<?xml version="1.0" encoding="UTF-8" standalone="no"?>
<!DOCTYPE svg PUBLIC "-//W3C//DTD SVG 1.1//EN"
"http://www.w3.org/Graphics/SVG/1.1/DTD/svg11.dtd">
<svg viewBox="0 0 811 1017" version="1.1" xmlns="http://www.w3.org/2000/svg" xmlns:xlink="http://www.w3.org/1999/xlink">
<defs>
<clipPath id="c0_278"><path d="M402.1,143.5v-61H507.5v61Z"/></clipPath>
<style type="text/css"><![CDATA[
.g0_278{
fill: #000;
}
.g1_278{
fill: #FFF;
}
.g2_278{
fill: #F9FBFB;
}
.g3_278{
fill: #F3F6F7;
}
.g4_278{
fill: #F0F3F4;
}
.g5_278{
fill: #F6F7F7;
}
.g6_278{
fill: #EDEFF0;
}
.g7_278{
fill: #040504;
}
.g8_278{
fill: #B0B2B1;
}
.g9_278{
fill: #2D9545;
}
]]></style>
</defs>
<path clip-path="url(#c0_278)" d="M408,138.3h.4V82.5H408Z" class="g0_278"/>
<path d="M579.1,149.1h.4V92.4h-.4Z" class="g0_278"/>
<path d="M561.9,149.1v3.2h-.3l-6.2,-3l-.4,-.2l.4,-.1l6.2,-3l.3,-.1v.3l-.1,.2l-6.2,2.9l-.2,-.3h.2l6.2,2.9l-.2,.4v-3.2Z" class="g0_278"/>
<path d="M561.6,149.1h.3v-2.9h-.3Z" class="g0_278"/>
<path d="M561.7,149.3h.2V149h-.2Z" class="g0_278"/>
<path d="M561.9,149.3h17.6V149H561.9Z" class="g0_278"/>
<path d="M143.3,709H442V431.1H143.3Z" class="g1_278"/>
<path d="M165.8,634.6l-6,-125.8l.3,.5L262.6,434.5l1.3,117.9l-98.1,82.2Z" class="g2_278"/>
<path d="M165.9,635.3l-.4,-.4l.3,-.3l98.1,-82.2L262.6,434.5L160.1,509.3l-.3,-.5l-.3,-.4L263.7,432.3v.6l-.4,-.1l-.2,.6l-.1,.5l.1,.1l1.4,118.6l-98.1,82.3l-.4,-.1l-.1,.5Z" class="g2_278"/>
<path d="M422.3,597.9L265.1,552.2L263.7,434.1l164.2,41.6l-5.6,122.2Z" class="g3_278"/>
<path d="M264.5,552.6L263.1,434l.6,.1l1.4,118.1l-.4,-.1l-.2,.5Z" class="g4_278"/>
<path d="M423.3,599.4l-.3,-.1l.3,-.4v.5Zm.1,-1.2l-1.1,-.3l5.6,-122.2L263.7,434.1v-1.2l165.3,42l-5.6,123.3Z" class="g3_278"/>
<path d="M263.7,434.1l-.7,-.2l.1,-.5l.2,-.6l.4,.1v1.2Z" class="g4_278"/>
<path d="M333.5,689.5L167,635.1l97.6,-81.9l157.1,45.7l-88.2,90.6Z" class="g5_278"/>
<path d="M167,635.1l-.6,-.2l98.1,-82.3l-.1,.6h.2L167,635.1Z" class="g3_278"/>
<path d="M421.7,598.9L264.6,553.2l157.1,45.7Z" class="g4_278"/>
<path d="M333.8,690.7L165.7,635.8l.2,-.5l.3,.4l.8,-.6l166.5,54.4l88.2,-90.6l1.3,.4l-89.2,91.4Zm89.5,-91.8l.1,-.7l.4,.2l-.5,.5Z" class="g5_278"/>
<path d="M166.2,635.7l-.3,-.4l.1,-.5l.4,.1l.6,.2l-.8,.6Z" class="g3_278"/>
<path d="M422.3,597.9L265.1,552.2l157.2,45.7Z" class="g4_278"/>
<path d="M423,599.3l-1.3,-.4L264.6,553.2l.5,-.3v-.7l158.3,46l-.1,.7l-.3,.4Z" class="g4_278"/>
<path d="M264.6,553.2h-.2l.1,-.6l.2,-.5l.4,.1v.7l-.5,.3Z" class="g6_278"/>
<path d="M165.3,635.6l168.6,55.1l.3,-.9L165.6,634.7l-.3,.9Z" class="g7_278"/>
<path d="M232.1,698.5l-2.2,3l2.3,3.2H231l-1.8,-2.4l-1.7,2.4h-1.2l2.4,-3.2l-2.2,-3h1.2l1.6,2.2l1.6,-2.2h1.2Z" class="g7_278"/>
<path d="M176.3,639l98.1,-83.2l.2,-.4l-1,-119.5h-.9l1,119.3l-98,83.1l.6,.7Z" class="g8_278"/>
<path d="M204.6,648.2l96.5,-84.7l.2,-.3L301.5,443h-.9l-.2,120L204,647.5l.6,.7Z" class="g8_278"/>
<path d="M233.3,657.6l95,-86.2l.1,-.3l1.4,-120.9h-.9l-1.4,120.7l-94.8,86l.6,.7Z" class="g8_278"/>
<path d="M262.6,667.1l93.3,-87.7l.2,-.3l2.5,-121.6h-.9l-2.5,121.4l-93.3,87.6l.7,.6Z" class="g8_278"/>
<path d="M292.4,676.8L384,587.6l.1,-.3L388,464.9h-.9l-3.9,122.2l-91.4,89.1l.6,.6Z" class="g8_278"/>
<path d="M322.8,686.8l89.8,-90.9l.1,-.3l5.2,-123.1H417l-5.2,122.9l-89.7,90.7l.7,.7Z" class="g8_278"/>
<path d="M176.9,637.3l-3.2,2.7l.6,.7l3.2,-2.7l-.6,-.7Z" class="g7_278"/>
<path d="M162.2,656.5c.9,0,1.6,.3,2.1,1c.5,.8,.8,1.8,.8,3.2c0,1.4,-.3,2.4,-.8,3.2c-.5,.7,-1.2,1,-2.1,1c-.9,0,-1.6,-.3,-2.1,-1c-.5,-.8,-.7,-1.8,-.7,-3.2c0,-1.4,.2,-2.4,.7,-3.2c.5,-.7,1.2,-1,2.1,-1Zm0,.8c-.5,0,-1,.3,-1.3,.9c-.2,.5,-.4,1.4,-.4,2.5c0,1.1,.2,2,.4,2.5c.3,.6,.8,.9,1.3,.9c.6,0,1,-.3,1.3,-.9c.3,-.5,.5,-1.4,.5,-2.5c0,-1.1,-.2,-2,-.5,-2.5c-.3,-.6,-.7,-.9,-1.3,-.9Z" class="g7_278"/>
<path d="M167,664.8h1.2v-1.4H167Z" class="g7_278"/>
<path d="M172.9,656.5c1,0,1.7,.3,2.1,1c.5,.8,.8,1.8,.8,3.2c0,1.4,-.3,2.4,-.8,3.2c-.4,.7,-1.1,1,-2.1,1c-.9,0,-1.6,-.3,-2.1,-1c-.4,-.8,-.7,-1.8,-.7,-3.2c0,-1.4,.3,-2.4,.7,-3.2c.5,-.7,1.2,-1,2.1,-1Zm0,.8c-.5,0,-1,.3,-1.2,.9c-.3,.5,-.5,1.4,-.5,2.5c0,1.1,.2,2,.5,2.5c.2,.6,.7,.9,1.2,.9c.6,0,1,-.3,1.3,-.9c.3,-.5,.5,-1.4,.5,-2.5c0,-1.1,-.2,-2,-.5,-2.5c-.3,-.6,-.7,-.9,-1.3,-.9Z" class="g7_278"/>
<path d="M205.1,646.5l-3.2,2.8l.6,.7l3.2,-2.9l-.6,-.6Z" class="g7_278"/>
<path d="M190.5,665.9c.9,0,1.6,.3,2.1,1.1c.5,.7,.7,1.7,.7,3.1c0,1.4,-.2,2.4,-.7,3.2c-.5,.7,-1.2,1.1,-2.1,1.1c-.9,0,-1.6,-.4,-2.1,-1.1c-.5,-.8,-.8,-1.8,-.8,-3.2c0,-1.4,.3,-2.4,.8,-3.1c.5,-.8,1.2,-1.1,2.1,-1.1Zm0,.8c-.6,0,-1,.3,-1.3,.9c-.3,.5,-.4,1.4,-.4,2.5c0,1.1,.1,2,.4,2.5c.3,.6,.7,.9,1.3,.9c.5,0,1,-.3,1.3,-.9c.3,-.5,.4,-1.4,.4,-2.5c0,-1.1,-.1,-2,-.4,-2.5c-.3,-.6,-.8,-.9,-1.3,-.9Z" class="g7_278"/>
<path d="M195.2,674.2h1.2v-1.4h-1.2Z" class="g7_278"/>
<path d="M199.8,673.3h3.8v.9h-5.2v-.9c.5,-.5,1,-1.1,1.8,-1.8c.7,-.7,1.1,-1.2,1.3,-1.4c.4,-.4,.6,-.7,.8,-1c.1,-.3,.2,-.6,.2,-.8c0,-.5,-.2,-.8,-.5,-1.1c-.3,-.3,-.7,-.4,-1.2,-.4c-.3,0,-.7,.1,-1.1,.2c-.4,.1,-.8,.3,-1.2,.5v-1.1c.4,-.2,.9,-.3,1.2,-.4c.4,-.1,.8,-.1,1.1,-.1c.9,0,1.5,.2,2,.6c.5,.4,.8,1,.8,1.7c0,.3,-.1,.7,-.2,1c-.1,.3,-.4,.6,-.7,1c-.1,.1,-.4,.4,-.9,.9c-.4,.5,-1.1,1.3,-2,2.2Z" class="g7_278"/>
<path d="M233.8,655.8l-3.1,2.9l.6,.7l3.2,-2.9l-.7,-.7Z" class="g7_278"/>
<path d="M219.2,675.5c1,0,1.7,.3,2.1,1c.5,.8,.8,1.8,.8,3.2c0,1.4,-.3,2.4,-.8,3.2c-.4,.7,-1.1,1,-2.1,1c-.9,0,-1.6,-.3,-2.1,-1c-.4,-.8,-.7,-1.8,-.7,-3.2c0,-1.4,.3,-2.4,.7,-3.2c.5,-.7,1.2,-1,2.1,-1Zm0,.8c-.5,0,-1,.3,-1.2,.9c-.3,.5,-.5,1.4,-.5,2.5c0,1.1,.2,2,.5,2.5c.2,.6,.7,.9,1.2,.9c.6,0,1,-.3,1.3,-.9c.3,-.5,.5,-1.4,.5,-2.5c0,-1.1,-.2,-2,-.5,-2.5c-.3,-.6,-.7,-.9,-1.3,-.9Z" class="g7_278"/>
<path d="M224,683.8h1.2v-1.4H224Z" class="g7_278"/>
<path d="M230.3,675.6h1.4v5.3h1.2v1h-1.2v1.9h-1.1v-1.9h-3.7v-1.1l3.4,-5.2Zm.3,1l-2.8,4.3h2.8v-4.3Z" class="g7_278"/>
<path d="M263.1,665.4l-3.1,2.9l.6,.7l3.1,-3l-.6,-.6Z" class="g7_278"/>
<path d="M248.5,685.2c1,0,1.7,.4,2.1,1.1c.5,.7,.8,1.8,.8,3.2c0,1.3,-.3,2.4,-.8,3.1c-.4,.7,-1.1,1.1,-2.1,1.1c-.9,0,-1.6,-.4,-2.1,-1.1c-.4,-.7,-.7,-1.8,-.7,-3.1c0,-1.4,.3,-2.5,.7,-3.2c.5,-.7,1.2,-1.1,2.1,-1.1Zm0,.9c-.5,0,-1,.3,-1.2,.8c-.3,.6,-.5,1.4,-.5,2.6c0,1.1,.2,1.9,.5,2.5c.2,.5,.7,.8,1.2,.8c.6,0,1,-.3,1.3,-.8c.3,-.6,.5,-1.4,.5,-2.5c0,-1.2,-.2,-2,-.5,-2.6c-.3,-.5,-.7,-.8,-1.3,-.8Z" class="g7_278"/>
<path d="M253.3,693.5h1.2v-1.3h-1.2Z" class="g7_278"/>
<path d="M261.6,685.5v1.1c-.3,-.2,-.6,-.3,-.9,-.3c-.2,-.1,-.5,-.2,-.8,-.2c-.7,0,-1.3,.3,-1.7,.8c-.4,.5,-.6,1.2,-.6,2.2c.2,-.3,.5,-.5,.8,-.7c.3,-.2,.7,-.3,1.1,-.3c.8,0,1.4,.3,1.9,.8c.5,.5,.7,1.2,.7,2c0,.9,-.2,1.5,-.7,2c-.5,.6,-1.2,.8,-2,.8c-1,0,-1.7,-.4,-2.2,-1.1c-.5,-.7,-.7,-1.8,-.7,-3.1c0,-1.3,.3,-2.4,.9,-3.1c.6,-.8,1.4,-1.2,2.5,-1.2c.2,0,.5,0,.8,.1c.3,.1,.6,.1,.9,.2Zm-2.2,3.5c-.5,0,-.9,.2,-1.2,.5c-.3,.4,-.4,.8,-.4,1.4c0,.6,.1,1.1,.4,1.4c.3,.4,.7,.5,1.2,.5c.5,0,.9,-.1,1.2,-.5c.3,-.3,.4,-.8,.4,-1.4c0,-.6,-.1,-1,-.4,-1.4c-.3,-.3,-.7,-.5,-1.2,-.5Z" class="g7_278"/>
<path d="M292.9,675.1l-3.1,3l.7,.6l3,-3l-.6,-.6Z" class="g7_278"/>
<path d="M278.4,695.2c.9,0,1.6,.3,2.1,1c.5,.8,.7,1.8,.7,3.2c0,1.4,-.2,2.4,-.7,3.2c-.5,.7,-1.2,1,-2.1,1c-.9,0,-1.6,-.3,-2.1,-1c-.5,-.8,-.7,-1.8,-.7,-3.2c0,-1.4,.2,-2.4,.7,-3.2c.5,-.7,1.2,-1,2.1,-1Zm0,.8c-.6,0,-1,.3,-1.3,.9c-.3,.5,-.4,1.4,-.4,2.5c0,1.1,.1,2,.4,2.5c.3,.6,.7,.9,1.3,.9c.6,0,1,-.3,1.3,-.9c.3,-.5,.4,-1.4,.4,-2.5c0,-1.1,-.1,-2,-.4,-2.5c-.3,-.6,-.7,-.9,-1.3,-.9Z" class="g7_278"/>
<path d="M283.2,703.5h1.1v-1.4h-1.1Z" class="g7_278"/>
<path d="M287.6,697.4c0,.4,.1,.7,.4,1c.2,.2,.6,.3,1.1,.3c.5,0,.8,-.1,1.1,-.3c.3,-.3,.4,-.6,.4,-1c0,-.4,-.1,-.8,-.4,-1c-.3,-.2,-.6,-.4,-1.1,-.4c-.5,0,-.9,.2,-1.1,.4c-.3,.2,-.4,.6,-.4,1Zm.4,1.7c-.5,-.1,-.9,-.3,-1.1,-.6c-.3,-.4,-.4,-.8,-.4,-1.2c0,-.7,.2,-1.2,.7,-1.6c.5,-.4,1.1,-.5,1.9,-.5c.8,0,1.5,.1,1.9,.5c.5,.4,.7,.9,.7,1.6c0,.4,-.1,.8,-.4,1.2c-.2,.3,-.6,.5,-1.1,.6c.5,.2,1,.4,1.3,.8c.3,.3,.4,.8,.4,1.3c0,.8,-.2,1.4,-.7,1.8c-.5,.4,-1.2,.6,-2.1,.6c-.9,0,-1.6,-.2,-2.1,-.6c-.5,-.4,-.7,-1,-.7,-1.8c0,-.5,.1,-1,.4,-1.3c.3,-.4,.8,-.6,1.3,-.8Zm1.1,.5c-.5,0,-.9,.1,-1.2,.4c-.3,.3,-.5,.7,-.5,1.2c0,.5,.2,.9,.5,1.2c.3,.2,.7,.4,1.2,.4c.5,0,.9,-.2,1.2,-.5c.3,-.2,.5,-.6,.5,-1.1c0,-.5,-.2,-.9,-.5,-1.2c-.3,-.3,-.7,-.4,-1.2,-.4Z" class="g7_278"/>
<path d="M323.2,685l-3,3l.7,.7l3,-3.1l-.7,-.6Z" class="g7_278"/>
<path d="M306.6,712.7h1.8v-6.3l-1.9,.4v-1l1.9,-.4h1.1v7.3h1.8v.9h-4.7v-.9Z" class="g7_278"/>
<path d="M313.6,713.6h1.1v-1.4h-1.1Z" class="g7_278"/>
<path d="M319.5,705.3c.9,0,1.6,.4,2.1,1.1c.5,.7,.7,1.8,.7,3.1c0,1.4,-.2,2.5,-.7,3.2c-.5,.7,-1.2,1.1,-2.1,1.1c-.9,0,-1.6,-.4,-2.1,-1.1c-.5,-.7,-.7,-1.8,-.7,-3.2c0,-1.3,.2,-2.4,.7,-3.1c.5,-.7,1.2,-1.1,2.1,-1.1Zm0,.9c-.6,0,-1,.2,-1.3,.8c-.3,.6,-.4,1.4,-.4,2.5c0,1.2,.1,2,.4,2.6c.3,.5,.7,.8,1.3,.8c.6,0,1,-.3,1.3,-.8c.3,-.6,.4,-1.4,.4,-2.6c0,-1.1,-.1,-1.9,-.4,-2.5c-.3,-.6,-.7,-.8,-1.3,-.8Z" class="g7_278"/>
<path d="M422.8,598L333,690.1l.7,.6l89.7,-92.1l-.6,-.6Z" class="g7_278"/>
<path d="M410.8,677.4c-.3,.8,-.6,1.2,-.9,1.5c-.2,.2,-.6,.3,-1,.3h-.8v-.9h.6c.2,0,.4,0,.6,-.1c.2,-.2,.3,-.5,.5,-1l.2,-.4l-2.5,-6.1h1.1l1.9,4.8l1.9,-4.8h1.1l-2.7,6.7Z" class="g7_278"/>
<path d="M166.5,503.6l5.7,126c0,.2,.2,.4,.3,.4l167.2,54.2l.3,-.9l-166.9,-54L167.4,503.6h-.9Z" class="g8_278"/>
<path d="M185.7,489.6l4.8,124.7c0,.2,.1,.4,.3,.4l165.4,52.5l.3,-.8L191.4,614L186.6,489.6h-.9Z" class="g8_278"/>
<path d="M204.2,476.1l4,123.4c0,.2,.1,.3,.3,.4l163.8,50.9l.2,-.9L209.1,599.1L205.1,476l-.9,.1Z" class="g8_278"/>
<path d="M222.2,462.9l3.2,122.2c0,.2,.1,.3,.3,.4l162.1,49.3l.3,-.8L226.3,584.7L223.1,462.9h-.9Z" class="g8_278"/>
<path d="M239.7,450.2l2.4,120.9c0,.2,.1,.3,.3,.4l160.4,47.9l.3,-.9L243,570.7L240.6,450.2h-.9Z" class="g8_278"/>
<path d="M256.6,437.8l1.7,119.7c0,.2,.1,.4,.3,.4l158.9,46.5l.2,-.8L259.2,557.1L257.5,437.8h-.9Z" class="g8_278"/>
<path d="M337.9,683.6l5,1.7l.3,-.9l-5.1,-1.6l-.2,.8Z" class="g7_278"/>
<path d="M348.9,699c.9,0,1.6,.4,2.1,1.1c.5,.8,.8,1.8,.8,3.2c0,1.4,-.3,2.4,-.8,3.1c-.5,.8,-1.2,1.1,-2.1,1.1c-.9,0,-1.6,-.3,-2.1,-1.1c-.5,-.7,-.7,-1.7,-.7,-3.1c0,-1.4,.2,-2.4,.7,-3.2c.5,-.7,1.2,-1.1,2.1,-1.1Zm0,.9c-.5,0,-1,.3,-1.3,.9c-.2,.5,-.4,1.4,-.4,2.5c0,1.1,.2,1.9,.4,2.5c.3,.6,.8,.9,1.3,.9c.6,0,1,-.3,1.3,-.9c.3,-.6,.4,-1.4,.4,-2.5c0,-1.1,-.1,-2,-.4,-2.5c-.3,-.6,-.7,-.9,-1.3,-.9Z" class="g7_278"/>
<path d="M353.7,707.4h1.2V706h-1.2Z" class="g7_278"/>
<path d="M359.6,699c1,0,1.7,.4,2.1,1.1c.5,.8,.8,1.8,.8,3.2c0,1.4,-.3,2.4,-.8,3.1c-.4,.8,-1.1,1.1,-2.1,1.1c-.9,0,-1.6,-.3,-2.1,-1.1c-.5,-.7,-.7,-1.7,-.7,-3.1c0,-1.4,.2,-2.4,.7,-3.2c.5,-.7,1.2,-1.1,2.1,-1.1Zm0,.9c-.5,0,-1,.3,-1.3,.9c-.2,.5,-.4,1.4,-.4,2.5c0,1.1,.2,1.9,.4,2.5c.3,.6,.8,.9,1.3,.9c.6,0,1,-.3,1.3,-.9c.3,-.6,.5,-1.4,.5,-2.5c0,-1.1,-.2,-2,-.5,-2.5c-.3,-.6,-.7,-.9,-1.3,-.9Z" class="g7_278"/>
<path d="M354.4,666.6l5.1,1.6l.2,-.8l-5,-1.6l-.3,.8Z" class="g7_278"/>
<path d="M365.2,681.8c1,0,1.7,.4,2.2,1.1c.4,.7,.7,1.8,.7,3.2c0,1.3,-.3,2.4,-.7,3.1c-.5,.7,-1.2,1.1,-2.2,1.1c-.9,0,-1.6,-.4,-2.1,-1.1c-.4,-.7,-.7,-1.8,-.7,-3.1c0,-1.4,.3,-2.5,.7,-3.2c.5,-.7,1.2,-1.1,2.1,-1.1Zm0,.9c-.5,0,-.9,.3,-1.2,.8c-.3,.6,-.5,1.4,-.5,2.6c0,1.1,.2,1.9,.5,2.5c.3,.5,.7,.8,1.2,.8c.6,0,1.1,-.3,1.3,-.8c.3,-.6,.5,-1.4,.5,-2.5c0,-1.2,-.2,-2,-.5,-2.6c-.2,-.5,-.7,-.8,-1.3,-.8Z" class="g7_278"/>
<path d="M370,690.1h1.2v-1.4H370Z" class="g7_278"/>
<path d="M374.5,689.2h3.9v.9h-5.2v-.9c.4,-.4,1,-1,1.7,-1.7c.8,-.8,1.2,-1.2,1.4,-1.5c.4,-.4,.6,-.7,.7,-1c.2,-.2,.3,-.5,.3,-.8c0,-.4,-.2,-.8,-.5,-1c-.3,-.3,-.7,-.5,-1.2,-.5c-.3,0,-.7,.1,-1.1,.2c-.4,.1,-.8,.3,-1.2,.6v-1.2c.4,-.1,.8,-.3,1.2,-.4c.4,0,.8,-.1,1.1,-.1c.8,0,1.5,.2,2,.6c.5,.5,.8,1,.8,1.7c0,.4,-.1,.7,-.2,1c-.1,.3,-.4,.7,-.7,1.1c-.1,.1,-.4,.4,-.9,.9c-.5,.5,-1.2,1.2,-2.1,2.1Z" class="g7_278"/>
<path d="M370.5,650.2l5,1.6l.2,-.9l-5,-1.5l-.2,.8Z" class="g7_278"/>
<path d="M381.1,665.1c.9,0,1.6,.4,2.1,1.1c.4,.7,.7,1.8,.7,3.2c0,1.3,-.3,2.4,-.7,3.1c-.5,.7,-1.2,1.1,-2.1,1.1c-1,0,-1.7,-.4,-2.1,-1.1c-.5,-.7,-.8,-1.8,-.8,-3.1c0,-1.4,.3,-2.5,.8,-3.2c.4,-.7,1.1,-1.1,2.1,-1.1Zm0,.9c-.6,0,-1,.3,-1.3,.8c-.3,.6,-.5,1.4,-.5,2.6c0,1.1,.2,1.9,.5,2.5c.3,.6,.7,.8,1.3,.8c.5,0,1,-.2,1.3,-.8c.2,-.6,.4,-1.4,.4,-2.5c0,-1.2,-.2,-2,-.4,-2.6c-.3,-.5,-.8,-.8,-1.3,-.8Z" class="g7_278"/>
<path d="M385.8,673.5H387v-1.4h-1.2Z" class="g7_278"/>
<path d="M392.2,665.3h1.3v5.3h1.2v.9h-1.2v1.9h-1.1v-1.9h-3.7v-1l3.5,-5.2Zm.2,.9l-2.8,4.4h2.8v-4.4Z" class="g7_278"/>
<path d="M386,634.3l5,1.5l.2,-.9l-4.9,-1.5l-.3,.9Z" class="g7_278"/>
<path d="M396.4,648.9c.9,0,1.6,.4,2.1,1.1c.5,.8,.7,1.8,.7,3.2c0,1.4,-.2,2.4,-.7,3.1c-.5,.8,-1.2,1.1,-2.1,1.1c-.9,0,-1.6,-.3,-2.1,-1.1c-.5,-.7,-.7,-1.7,-.7,-3.1c0,-1.4,.2,-2.4,.7,-3.2c.5,-.7,1.2,-1.1,2.1,-1.1Zm0,.9c-.6,0,-1,.3,-1.3,.9c-.3,.5,-.4,1.4,-.4,2.5c0,1.1,.1,2,.4,2.5c.3,.6,.7,.9,1.3,.9c.6,0,1,-.3,1.3,-.9c.3,-.5,.4,-1.4,.4,-2.5c0,-1.1,-.1,-2,-.4,-2.5c-.3,-.6,-.7,-.9,-1.3,-.9Z" class="g7_278"/>
<path d="M401.2,657.3h1.1v-1.4h-1.1Z" class="g7_278"/>
<path d="M409.4,649.3v1c-.3,-.1,-.5,-.2,-.8,-.3c-.3,-.1,-.6,-.1,-.9,-.1c-.7,0,-1.2,.2,-1.6,.7c-.4,.5,-.6,1.3,-.7,2.3c.2,-.4,.5,-.6,.8,-.8c.3,-.1,.7,-.2,1.1,-.2c.8,0,1.5,.2,1.9,.7c.5,.5,.8,1.2,.8,2.1c0,.8,-.3,1.5,-.8,2c-.5,.5,-1.1,.7,-2,.7c-.9,0,-1.6,-.3,-2.1,-1.1c-.5,-.7,-.8,-1.7,-.8,-3.1c0,-1.3,.3,-2.3,.9,-3.1c.6,-.8,1.5,-1.2,2.5,-1.2c.3,0,.6,.1,.8,.1c.3,.1,.6,.2,.9,.3Zm-2.2,3.4c-.5,0,-.9,.2,-1.2,.6c-.2,.3,-.4,.8,-.4,1.4c0,.5,.2,1,.4,1.3c.3,.4,.7,.6,1.2,.6c.5,0,.9,-.2,1.2,-.6c.3,-.3,.4,-.8,.4,-1.3c0,-.6,-.1,-1.1,-.4,-1.4c-.3,-.4,-.7,-.6,-1.2,-.6Z" class="g7_278"/>
<path d="M401.1,618.9l4.9,1.4l.2,-.8L401.3,618l-.2,.9Z" class="g7_278"/>
<path d="M411.2,633.3c.9,0,1.6,.3,2.1,1.1c.5,.7,.8,1.7,.8,3.1c0,1.4,-.3,2.4,-.8,3.2c-.5,.7,-1.2,1.1,-2.1,1.1c-.9,0,-1.6,-.4,-2.1,-1.1c-.5,-.8,-.7,-1.8,-.7,-3.2c0,-1.4,.2,-2.4,.7,-3.1c.5,-.8,1.2,-1.1,2.1,-1.1Zm0,.8c-.5,0,-1,.3,-1.3,.9c-.2,.5,-.4,1.4,-.4,2.5c0,1.1,.2,2,.4,2.5c.3,.6,.8,.9,1.3,.9c.6,0,1,-.3,1.3,-.9c.3,-.5,.5,-1.4,.5,-2.5c0,-1.1,-.2,-2,-.5,-2.5c-.3,-.6,-.7,-.9,-1.3,-.9Z" class="g7_278"/>
<path d="M416,641.6h1.2v-1.4H416Z" class="g7_278"/>
<path d="M420.4,635.5c0,.4,.2,.8,.4,1c.3,.2,.7,.3,1.1,.3c.5,0,.9,-.1,1.2,-.3c.2,-.2,.4,-.6,.4,-1c0,-.4,-.2,-.8,-.4,-1c-.3,-.2,-.7,-.4,-1.2,-.4c-.4,0,-.8,.2,-1.1,.4c-.2,.2,-.4,.6,-.4,1Zm.4,1.7c-.4,-.1,-.8,-.3,-1.1,-.6c-.2,-.3,-.4,-.7,-.4,-1.2c0,-.7,.3,-1.2,.7,-1.6c.5,-.3,1.1,-.5,1.9,-.5c.9,0,1.5,.2,2,.5c.4,.4,.7,.9,.7,1.6c0,.5,-.2,.9,-.4,1.2c-.3,.3,-.7,.5,-1.2,.6c.6,.2,1,.4,1.3,.8c.3,.3,.4,.8,.4,1.3c0,.8,-.2,1.4,-.7,1.8c-.5,.5,-1.2,.7,-2.1,.7c-.9,0,-1.6,-.2,-2,-.7c-.5,-.4,-.8,-1,-.8,-1.8c0,-.5,.2,-1,.5,-1.3c.3,-.4,.7,-.6,1.2,-.8Zm1.1,.5c-.5,0,-.9,.2,-1.2,.4c-.3,.3,-.5,.7,-.5,1.2c0,.5,.2,.9,.5,1.2c.3,.2,.7,.4,1.2,.4c.6,0,1,-.2,1.3,-.4c.3,-.3,.4,-.7,.4,-1.2c0,-.5,-.1,-.9,-.4,-1.2c-.3,-.2,-.7,-.4,-1.3,-.4Z" class="g7_278"/>
<path d="M415.7,603.9l4.9,1.4l.2,-.8L415.9,603l-.2,.9Z" class="g7_278"/>
<path d="M423.5,625.5h1.8v-6.3l-2,.4v-1l2,-.4h1.1v7.3h1.8v.9h-4.7v-.9Z" class="g7_278"/>
<path d="M430.4,626.4h1.2V625h-1.2Z" class="g7_278"/>
<path d="M436.3,618.1c1,0,1.7,.3,2.1,1.1c.5,.7,.8,1.7,.8,3.1c0,1.4,-.3,2.4,-.8,3.2c-.4,.7,-1.1,1.1,-2.1,1.1c-.9,0,-1.6,-.4,-2.1,-1.1c-.4,-.8,-.7,-1.8,-.7,-3.2c0,-1.4,.3,-2.4,.7,-3.1c.5,-.8,1.2,-1.1,2.1,-1.1Zm0,.8c-.5,0,-1,.3,-1.2,.9c-.3,.5,-.5,1.4,-.5,2.5c0,1.1,.2,2,.5,2.5c.2,.6,.7,.9,1.2,.9c.6,0,1,-.3,1.3,-.9c.3,-.5,.5,-1.4,.5,-2.5c0,-1.1,-.2,-2,-.5,-2.5c-.3,-.6,-.7,-.9,-1.3,-.9Z" class="g7_278"/>
<path d="M423.2,599.1l5.7,-124.2l-.9,-.1l-5.7,124.3h.9Z" class="g7_278"/>
<path d="M468.5,529.2h4.8v.9l-3.8,4.4h3.8v.8h-4.9v-.9l3.8,-4.4h-3.7v-.8Z" class="g7_278"/>
<path d="M423,595.8L264.6,549.9c-.1,0,-.3,0,-.4,.1l-98.7,82.5l.5,.7l98.6,-82.4l158.2,45.9l.2,-.9Z" class="g8_278"/>
<path d="M423.9,576.8L264.4,531.5c-.1,-.1,-.3,-.1,-.4,0L164.5,613l.6,.7l99.3,-81.3l159.2,45.2l.3,-.8Z" class="g8_278"/>
<path d="M424.8,557.5L264.2,512.8c-.2,-.1,-.3,0,-.4,0L163.6,593.2l.5,.7L264.2,513.7l160.3,44.6l.3,-.8Z" class="g8_278"/>
<path d="M425.7,537.9L264,493.8c-.2,0,-.3,0,-.4,.1l-101,79.2l.6,.8L263.9,494.7l161.5,44l.3,-.8Z" class="g8_278"/>
<path d="M426.6,518L263.7,474.6l-.4,.1L161.6,552.8l.6,.7l101.5,-78l162.6,43.4l.3,-.9Z" class="g8_278"/>
<path d="M427.5,497.9l-164,-42.7h-.4L160.7,532.1l.5,.7L263.5,456.1l163.8,42.6l.2,-.8Z" class="g8_278"/>
<path d="M428.4,477.4l-165.1,-42l-.4,.1L159.6,511.1l.6,.7L263.3,436.4l164.9,41.9l.2,-.9Z" class="g8_278"/>
<path d="M421,596.2l4.9,1.4l.2,-.9l-4.8,-1.4l-.3,.9Z" class="g7_278"/>
<path d="M434.5,593.5c.9,0,1.6,.4,2.1,1.1c.5,.8,.7,1.8,.7,3.2c0,1.4,-.2,2.4,-.7,3.1c-.5,.8,-1.2,1.1,-2.1,1.1c-.9,0,-1.6,-.3,-2.1,-1.1c-.5,-.7,-.8,-1.7,-.8,-3.1c0,-1.4,.3,-2.4,.8,-3.2c.5,-.7,1.2,-1.1,2.1,-1.1Zm0,.9c-.6,0,-1,.3,-1.3,.9c-.3,.5,-.4,1.4,-.4,2.5c0,1.1,.1,2,.4,2.5c.3,.6,.7,.9,1.3,.9c.5,0,1,-.3,1.3,-.9c.2,-.5,.4,-1.4,.4,-2.5c0,-1.1,-.2,-2,-.4,-2.5c-.3,-.6,-.8,-.9,-1.3,-.9Z" class="g7_278"/>
<path d="M439.2,601.9h1.2v-1.4h-1.2Z" class="g7_278"/>
<path d="M445.6,593.7H447V599h1.1v.9H447v2h-1.1v-2h-3.7v-1l3.4,-5.2Zm.3,1l-2.8,4.3h2.8v-4.3Z" class="g7_278"/>
<path d="M452.3,593.5c.9,0,1.6,.4,2.1,1.1c.5,.8,.7,1.8,.7,3.2c0,1.4,-.2,2.4,-.7,3.1c-.5,.8,-1.2,1.1,-2.1,1.1c-.9,0,-1.6,-.3,-2.1,-1.1c-.5,-.7,-.7,-1.7,-.7,-3.1c0,-1.4,.2,-2.4,.7,-3.2c.5,-.7,1.2,-1.1,2.1,-1.1Zm0,.9c-.5,0,-1,.3,-1.3,.9c-.3,.5,-.4,1.4,-.4,2.5c0,1.1,.1,2,.4,2.5c.3,.6,.8,.9,1.3,.9c.6,0,1,-.3,1.3,-.9c.3,-.5,.4,-1.4,.4,-2.5c0,-1.1,-.1,-2,-.4,-2.5c-.3,-.6,-.7,-.9,-1.3,-.9Z" class="g7_278"/>
<path d="M421.9,577.1l4.9,1.4l.2,-.8l-4.9,-1.4l-.2,.8Z" class="g7_278"/>
<path d="M435.5,574.5c.9,0,1.6,.4,2.1,1.1c.5,.7,.7,1.8,.7,3.2c0,1.4,-.2,2.4,-.7,3.1c-.5,.8,-1.2,1.1,-2.1,1.1c-.9,0,-1.6,-.3,-2.1,-1.1c-.5,-.7,-.7,-1.7,-.7,-3.1c0,-1.4,.2,-2.5,.7,-3.2c.5,-.7,1.2,-1.1,2.1,-1.1Zm0,.9c-.6,0,-1,.3,-1.3,.9c-.3,.5,-.4,1.4,-.4,2.5c0,1.1,.1,1.9,.4,2.5c.3,.6,.7,.8,1.3,.8c.6,0,1,-.2,1.3,-.8c.3,-.6,.4,-1.4,.4,-2.5c0,-1.1,-.1,-2,-.4,-2.5c-.3,-.6,-.7,-.9,-1.3,-.9Z" class="g7_278"/>
<path d="M440.3,582.9h1.1v-1.4h-1.1Z" class="g7_278"/>
<path d="M446.6,574.7H448V580h1.1v.9H448v2h-1.1v-2h-3.7v-1l3.4,-5.2Zm.3,.9l-2.8,4.4h2.8v-4.4Z" class="g7_278"/>
<path d="M451,574.7h4.3v.9H452v2c.2,0,.3,-.1,.5,-.1c.1,0,.3,0,.5,0c.9,0,1.6,.2,2.1,.7c.6,.5,.8,1.2,.8,2c0,.9,-.2,1.6,-.8,2.1c-.5,.5,-1.3,.7,-2.3,.7c-.4,0,-.7,0,-1.1,-.1c-.3,0,-.7,-.1,-1.1,-.2v-1.1c.4,.1,.7,.3,1.1,.4c.3,0,.7,.1,1.1,.1c.6,0,1.1,-.2,1.5,-.5c.3,-.3,.5,-.8,.5,-1.4c0,-.5,-.2,-1,-.5,-1.3c-.4,-.3,-.9,-.5,-1.5,-.5c-.3,0,-.6,0,-.9,.1c-.3,0,-.6,.2,-.9,.3v-4.1Z" class="g7_278"/>
<path d="M422.8,557.8l4.9,1.4l.2,-.9L423,557l-.2,.8Z" class="g7_278"/>
<path d="M436.5,555.3c.9,0,1.6,.3,2.1,1c.5,.8,.7,1.8,.7,3.2c0,1.4,-.2,2.4,-.7,3.2c-.5,.7,-1.2,1,-2.1,1c-.9,0,-1.6,-.3,-2.1,-1c-.5,-.8,-.7,-1.8,-.7,-3.2c0,-1.4,.2,-2.4,.7,-3.2c.5,-.7,1.2,-1,2.1,-1Zm0,.8c-.6,0,-1,.3,-1.3,.9c-.3,.5,-.4,1.4,-.4,2.5c0,1.1,.1,2,.4,2.5c.3,.6,.7,.9,1.3,.9c.6,0,1,-.3,1.3,-.9c.3,-.5,.4,-1.4,.4,-2.5c0,-1.1,-.1,-2,-.4,-2.5c-.3,-.6,-.7,-.9,-1.3,-.9Z" class="g7_278"/>
<path d="M441.3,563.6h1.1v-1.4h-1.1Z" class="g7_278"/>
<path d="M444.9,555.4h4.3v.9h-3.3v2c.1,0,.3,-.1,.5,-.1c.1,0,.3,0,.4,0c1,0,1.7,.2,2.2,.7c.5,.5,.8,1.2,.8,2.1c0,.8,-.3,1.5,-.8,2c-.6,.5,-1.3,.7,-2.3,.7c-.4,0,-.7,0,-1.1,0c-.3,-.1,-.7,-.2,-1.1,-.3v-1.1c.3,.2,.7,.3,1,.4c.4,.1,.8,.1,1.1,.1c.7,0,1.2,-.2,1.5,-.5c.4,-.3,.6,-.8,.6,-1.3c0,-.6,-.2,-1.1,-.6,-1.4c-.3,-.3,-.8,-.5,-1.5,-.5c-.3,0,-.5,0,-.8,.1c-.3,.1,-.6,.2,-.9,.3v-4.1Z" class="g7_278"/>
<path d="M454.4,555.3c.9,0,1.6,.3,2.1,1c.4,.8,.7,1.8,.7,3.2c0,1.4,-.3,2.4,-.7,3.2c-.5,.7,-1.2,1,-2.1,1c-1,0,-1.7,-.3,-2.1,-1c-.5,-.8,-.8,-1.8,-.8,-3.2c0,-1.4,.3,-2.4,.8,-3.2c.4,-.7,1.1,-1,2.1,-1Zm0,.8c-.6,0,-1,.3,-1.3,.9c-.3,.5,-.5,1.4,-.5,2.5c0,1.1,.2,2,.5,2.5c.3,.6,.7,.9,1.3,.9c.5,0,1,-.3,1.2,-.9c.3,-.5,.5,-1.4,.5,-2.5c0,-1.1,-.2,-2,-.5,-2.5c-.2,-.6,-.7,-.9,-1.2,-.9Z" class="g7_278"/>
<path d="M423.6,538.3l5,1.3l.2,-.9l-4.9,-1.3l-.3,.9Z" class="g7_278"/>
<path d="M437.5,535.7c1,0,1.7,.4,2.1,1.1c.5,.7,.8,1.8,.8,3.2c0,1.3,-.3,2.4,-.8,3.1c-.4,.7,-1.1,1.1,-2.1,1.1c-.9,0,-1.6,-.4,-2.1,-1.1c-.4,-.7,-.7,-1.8,-.7,-3.1c0,-1.4,.3,-2.5,.7,-3.2c.5,-.7,1.2,-1.1,2.1,-1.1Zm0,.9c-.5,0,-1,.3,-1.2,.8c-.3,.6,-.5,1.4,-.5,2.6c0,1.1,.2,1.9,.5,2.5c.2,.5,.7,.8,1.2,.8c.6,0,1.1,-.3,1.3,-.8c.3,-.6,.5,-1.4,.5,-2.5c0,-1.2,-.2,-2,-.5,-2.6c-.2,-.5,-.7,-.8,-1.3,-.8Z" class="g7_278"/>
<path d="M442.3,544h1.2v-1.4h-1.2Z" class="g7_278"/>
<path d="M445.9,535.9h4.3v.9h-3.3v2c.2,-.1,.3,-.1,.5,-.1c.2,-.1,.3,-.1,.5,-.1c.9,0,1.6,.3,2.1,.8c.6,.5,.9,1.2,.9,2c0,.9,-.3,1.6,-.9,2.1c-.5,.5,-1.3,.7,-2.3,.7c-.3,0,-.7,0,-1,-.1c-.4,-.1,-.8,-.1,-1.1,-.3v-1.1c.3,.2,.6,.3,1,.4c.3,.1,.7,.2,1.1,.2c.6,0,1.1,-.2,1.5,-.5c.4,-.4,.5,-.8,.5,-1.4c0,-.6,-.1,-1,-.5,-1.3c-.4,-.4,-.9,-.5,-1.5,-.5c-.3,0,-.6,0,-.9,.1c-.3,0,-.6,.1,-.9,.3v-4.1Z" class="g7_278"/>
<path d="M453,535.9h4.4v.9h-3.3v2c.1,-.1,.3,-.1,.4,-.1c.2,-.1,.4,-.1,.5,-.1c.9,0,1.7,.3,2.2,.8c.5,.5,.8,1.2,.8,2c0,.9,-.3,1.6,-.8,2.1c-.6,.5,-1.4,.7,-2.3,.7c-.4,0,-.7,0,-1.1,-.1c-.4,-.1,-.7,-.1,-1.1,-.3v-1.1c.3,.2,.7,.3,1,.4c.4,.1,.7,.2,1.1,.2c.7,0,1.2,-.2,1.5,-.5c.4,-.4,.6,-.8,.6,-1.4c0,-.6,-.2,-1,-.6,-1.3c-.3,-.4,-.8,-.5,-1.5,-.5c-.3,0,-.6,0,-.9,.1c-.3,0,-.6,.1,-.9,.3v-4.1Z" class="g7_278"/>
<path d="M424.5,518.4l5,1.3l.3,-.8l-5,-1.4l-.3,.9Z" class="g7_278"/>
<path d="M438.6,515.9c.9,0,1.6,.3,2.1,1.1c.5,.7,.7,1.7,.7,3.1c0,1.4,-.2,2.5,-.7,3.2c-.5,.7,-1.2,1.1,-2.1,1.1c-.9,0,-1.6,-.4,-2.1,-1.1c-.5,-.7,-.7,-1.8,-.7,-3.2c0,-1.4,.2,-2.4,.7,-3.1c.5,-.8,1.2,-1.1,2.1,-1.1Zm0,.9c-.6,0,-1,.2,-1.3,.8c-.3,.6,-.4,1.4,-.4,2.5c0,1.1,.1,2,.4,2.6c.3,.5,.7,.8,1.3,.8c.6,0,1,-.3,1.3,-.8c.3,-.6,.4,-1.5,.4,-2.6c0,-1.1,-.1,-1.9,-.4,-2.5c-.3,-.6,-.7,-.8,-1.3,-.8Z" class="g7_278"/>
<path d="M443.4,524.2h1.1v-1.4h-1.1Z" class="g7_278"/>
<path d="M451.6,516.2v1c-.2,-.1,-.5,-.2,-.8,-.3c-.3,-.1,-.6,-.1,-.8,-.1c-.8,0,-1.3,.3,-1.7,.8c-.4,.4,-.6,1.2,-.7,2.2c.2,-.3,.5,-.6,.8,-.7c.4,-.2,.7,-.3,1.1,-.3c.8,0,1.5,.3,2,.8c.4,.4,.7,1.1,.7,2c0,.8,-.3,1.5,-.8,2c-.5,.5,-1.1,.8,-2,.8c-.9,0,-1.6,-.4,-2.1,-1.1c-.5,-.7,-.8,-1.8,-.8,-3.2c0,-1.3,.3,-2.3,.9,-3.1c.7,-.7,1.5,-1.1,2.5,-1.1c.3,0,.6,0,.9,.1c.2,0,.5,.1,.8,.2Zm-2.2,3.5c-.4,0,-.8,.1,-1.1,.5c-.3,.3,-.5,.8,-.5,1.4c0,.6,.2,1,.5,1.4c.3,.3,.7,.5,1.1,.5c.5,0,.9,-.2,1.2,-.5c.3,-.4,.5,-.8,.5,-1.4c0,-.6,-.2,-1.1,-.5,-1.4c-.3,-.4,-.7,-.5,-1.2,-.5Z" class="g7_278"/>
<path d="M456.5,515.9c.9,0,1.6,.3,2.1,1.1c.4,.7,.7,1.7,.7,3.1c0,1.4,-.3,2.5,-.7,3.2c-.5,.7,-1.2,1.1,-2.1,1.1c-1,0,-1.7,-.4,-2.1,-1.1c-.5,-.7,-.8,-1.8,-.8,-3.2c0,-1.4,.3,-2.4,.8,-3.1c.4,-.8,1.1,-1.1,2.1,-1.1Zm0,.9c-.6,0,-1,.2,-1.3,.8c-.3,.6,-.5,1.4,-.5,2.5c0,1.1,.2,2,.5,2.6c.3,.5,.7,.8,1.3,.8c.5,0,1,-.3,1.2,-.8c.3,-.6,.5,-1.5,.5,-2.6c0,-1.1,-.2,-1.9,-.5,-2.5c-.2,-.6,-.7,-.8,-1.2,-.8Z" class="g7_278"/>
<path d="M425.5,498.3l5,1.3l.2,-.9l-5,-1.3l-.2,.9Z" class="g7_278"/>
<path d="M439.7,495.8c.9,0,1.6,.3,2.1,1.1c.5,.7,.7,1.7,.7,3.1c0,1.4,-.2,2.5,-.7,3.2c-.5,.7,-1.2,1.1,-2.1,1.1c-.9,0,-1.6,-.4,-2.1,-1.1c-.5,-.7,-.8,-1.8,-.8,-3.2c0,-1.4,.3,-2.4,.8,-3.1c.5,-.8,1.2,-1.1,2.1,-1.1Zm0,.9c-.6,0,-1,.2,-1.3,.8c-.3,.6,-.4,1.4,-.4,2.5c0,1.1,.1,2,.4,2.5c.3,.6,.7,.9,1.3,.9c.5,0,1,-.3,1.3,-.9c.2,-.5,.4,-1.4,.4,-2.5c0,-1.1,-.2,-1.9,-.4,-2.5c-.3,-.6,-.8,-.8,-1.3,-.8Z" class="g7_278"/>
<path d="M444.4,504.1h1.2v-1.4h-1.2Z" class="g7_278"/>
<path d="M452.7,496.1v1c-.3,-.1,-.5,-.2,-.8,-.3c-.3,-.1,-.6,-.1,-.9,-.1c-.7,0,-1.3,.3,-1.6,.7c-.4,.5,-.6,1.3,-.7,2.3c.2,-.3,.5,-.6,.8,-.7c.3,-.2,.7,-.3,1.1,-.3c.8,0,1.5,.2,1.9,.7c.5,.5,.7,1.2,.7,2.1c0,.8,-.2,1.5,-.7,2c-.5,.5,-1.2,.8,-2,.8c-.9,0,-1.7,-.4,-2.2,-1.1c-.5,-.7,-.7,-1.8,-.7,-3.2c0,-1.3,.3,-2.3,.9,-3.1c.6,-.7,1.5,-1.1,2.5,-1.1c.3,0,.5,0,.8,.1c.3,0,.6,.1,.9,.2Zm-2.2,3.5c-.5,0,-.9,.1,-1.2,.5c-.3,.3,-.4,.8,-.4,1.4c0,.6,.1,1,.4,1.4c.3,.3,.7,.5,1.2,.5c.5,0,.9,-.2,1.2,-.5c.3,-.4,.4,-.8,.4,-1.4c0,-.6,-.1,-1.1,-.4,-1.4c-.3,-.4,-.7,-.5,-1.2,-.5Z" class="g7_278"/>
<path d="M455.2,495.9h4.3v1h-3.3v2c.1,-.1,.3,-.1,.5,-.2c.1,0,.3,0,.4,0c1,0,1.7,.2,2.2,.7c.5,.5,.8,1.2,.8,2.1c0,.9,-.3,1.5,-.8,2c-.6,.5,-1.3,.8,-2.3,.8c-.4,0,-.7,-.1,-1.1,-.1c-.3,-.1,-.7,-.2,-1.1,-.3v-1.1c.3,.2,.7,.3,1,.4c.4,.1,.8,.1,1.2,.1c.6,0,1.1,-.1,1.5,-.5c.3,-.3,.5,-.7,.5,-1.3c0,-.6,-.2,-1,-.5,-1.4c-.4,-.3,-.9,-.5,-1.5,-.5c-.3,0,-.6,.1,-.9,.1c-.3,.1,-.6,.2,-.9,.3v-4.1Z" class="g7_278"/>
<path d="M426.4,477.8l5,1.3l.2,-.9l-5,-1.2l-.2,.8Z" class="g7_278"/>
<path d="M440.8,475.4c.9,0,1.6,.3,2.1,1.1c.4,.7,.7,1.8,.7,3.1c0,1.4,-.3,2.5,-.7,3.2c-.5,.7,-1.2,1.1,-2.1,1.1c-1,0,-1.7,-.4,-2.1,-1.1c-.5,-.7,-.8,-1.8,-.8,-3.2c0,-1.3,.3,-2.4,.8,-3.1c.4,-.8,1.1,-1.1,2.1,-1.1Zm0,.9c-.6,0,-1,.2,-1.3,.8c-.3,.6,-.5,1.4,-.5,2.5c0,1.2,.2,2,.5,2.6c.3,.5,.7,.8,1.3,.8c.5,0,1,-.3,1.2,-.8c.3,-.6,.5,-1.4,.5,-2.6c0,-1.1,-.2,-1.9,-.5,-2.5c-.2,-.6,-.7,-.8,-1.2,-.8Z" class="g7_278"/>
<path d="M445.5,483.7h1.2v-1.4h-1.2Z" class="g7_278"/>
<path d="M448.8,475.5h5.3v.5l-3,7.7H450l2.7,-7.2h-3.9v-1Z" class="g7_278"/>
<path d="M458.6,475.4c.9,0,1.6,.3,2.1,1.1c.5,.7,.7,1.8,.7,3.1c0,1.4,-.2,2.5,-.7,3.2c-.5,.7,-1.2,1.1,-2.1,1.1c-.9,0,-1.6,-.4,-2.1,-1.1c-.5,-.7,-.7,-1.8,-.7,-3.2c0,-1.3,.2,-2.4,.7,-3.1c.5,-.8,1.2,-1.1,2.1,-1.1Zm0,.9c-.6,0,-1,.2,-1.3,.8c-.3,.6,-.4,1.4,-.4,2.5c0,1.2,.1,2,.4,2.6c.3,.5,.7,.8,1.3,.8c.6,0,1,-.3,1.3,-.8c.3,-.6,.4,-1.4,.4,-2.6c0,-1.1,-.1,-1.9,-.4,-2.5c-.3,-.6,-.7,-.8,-1.3,-.8Z" class="g7_278"/>
<path d="M180.3,591.7L197,620.3l.1,.2L213.3,638l.2,.2l16,8.3l.3,.1l16,.8h.3l16.1,-5.1h.2L278.7,633l.1,-.1L295.5,621l17.1,-12.8l17.5,-11.9l-.9,-1.4l-17.5,11.9h-.1l-17.1,12.8l-16.6,11.9l-16.3,9.2l-15.9,5l-15.6,-.8l-15.7,-8.2l-16,-17.3L181.8,590.8l-1.5,.9Z" class="g9_278"/>
<path d="M190.5,578.9l16.5,29l.1,.1l16.1,17.4l.2,.1l15.9,7.8l.4,.1l15.9,.1l.3,-.1L272,627.6h.1l16.4,-9.9l33.8,-24.4l17.5,-10.6l-.9,-1.4l-17.5,10.5v.1l-33.8,24.4l-16.3,9.8l-15.8,5.7l-15.6,-.1l-15.6,-7.6L208.4,607L191.9,578l-1.4,.9Z" class="g9_278"/>
<path d="M200.5,566.2l16.4,29.4l.1,.2l16,17.1l.2,.2l15.8,7.2l.4,.1l15.9,-.7h.3l16,-6.5l.1,-.1l16.4,-10.4l16.7,-12.3l17.1,-11.8l17.4,-9.3l-.8,-1.5l-17.4,9.3l-.1,.1l-17.1,11.9l-16.7,12.2l-16.3,10.3l-15.8,6.5l-15.5,.6l-15.5,-7.1L218.3,594.7L202,565.4l-1.5,.8Z" class="g9_278"/>
<path d="M210.4,553.8l16.2,29.7l.1,.2l15.9,16.9l.3,.2l15.7,6.7l.4,.1l15.8,-1.4l.3,-.1l16,-7.2l.1,-.1l16.4,-10.9v-.1l16.7,-12.3l17,-11.4l17.3,-8l-.7,-1.5l-17.4,8h-.1l-17.1,11.5l-16.7,12.4l-16.2,10.9l-15.9,7.1l-15.4,1.4l-15.4,-6.5L228,582.6L211.8,553l-1.4,.8Z" class="g9_278"/>
<path d="M220.1,541.5l16.1,30.1l.1,.2l15.8,16.8l.3,.2l15.6,6.1c.2,0,.3,0,.5,0l15.7,-2.1l.3,-.1l16,-7.9l.1,-.1l16.3,-11.5h.1l16.6,-12.5l17,-11l17.2,-6.6l-.6,-1.6l-17.3,6.7l-.1,.1l-17.1,11L316,571.9l-16.3,11.4l-15.8,7.9l-15.4,2l-15.3,-5.9L237.6,570.7l-16,-30l-1.5,.8Z" class="g9_278"/>
<path d="M229.7,529.4l16,30.5l.1,.2l15.6,16.5l.4,.2l15.5,5.6c.2,.1,.3,.1,.5,0l15.7,-2.8l.3,-.1l15.9,-8.6l.1,-.1l16.4,-12l16.7,-12.7l16.9,-10.5l17.1,-5.3l-.5,-1.6l-17.2,5.4H359l-17.1,10.6l-16.7,12.7l-16.3,12L293.1,578l-15.4,2.7l-15.2,-5.4L247.1,559L231.2,528.6l-1.5,.8Z" class="g9_278"/>
<path d="M239.2,517.5L255,548.3l.1,.2l15.6,16.4l.3,.2l15.5,5c.2,.1,.3,.1,.5,0l15.7,-3.5l.2,-.1l16,-9.4h.1l33,-25.4l16.8,-10l17,-4.1l-.3,-1.6l-17.2,4.1l-.2,.1L351,530.3l-33,25.4L302.2,565l-15.4,3.4l-15.1,-4.8L256.4,547.4L240.7,516.7l-1.5,.8Z" class="g9_278"/>
<path d="M248.5,505.7l15.7,31.2l.1,.2l15.5,16.2c.1,.1,.2,.2,.3,.2l15.5,4.5c.1,0,.3,0,.4,0l15.7,-4.2l.2,-.1l16,-10.1l.1,-.1l16.3,-13.1l16.6,-12.9L377.7,508l16.9,-2.8l-.2,-1.7l-17.1,2.8l-.3,.1L360,516l-.1,.1l-16.7,13l-16.3,13.1l-15.8,10l-15.3,4.1l-15,-4.4L265.6,536L250,505l-1.5,.7Z" class="g9_278"/>
<path d="M257.7,494.1l15.6,31.5l.1,.2l15.3,16c.1,.2,.3,.2,.4,.3l15.4,3.9c.2,.1,.3,.1,.5,0l15.6,-4.9l.2,-.1l16,-10.8v-.1l16.4,-13.6l16.6,-13.1l16.7,-9l16.8,-1.5l-.1,-1.7l-17,1.6l-.3,.1l-17,9.1l-.1,.1l-16.7,13.1l-16.3,13.6L320,539.5l-15.3,4.9l-14.9,-3.9L274.7,524.8L259.2,493.4l-1.5,.7Z" class="g9_278"/>
<path d="M266.8,482.7l15.4,31.8l.2,.2l15.2,15.9c.1,.1,.3,.2,.4,.2l15.3,3.4c.2,.1,.4,.1,.5,0l15.6,-5.6l.2,-.1l16,-11.6l16.3,-14.1l16.6,-13.2L395.2,481l16.7,-.2l-.1,-1.7l-16.8,.3l-.4,.1l-16.9,8.6l-.1,.1l-16.7,13.3l-16.4,14.1L328.7,527l-15.2,5.5l-14.9,-3.3L283.7,513.7L268.3,481.9l-1.5,.8Z" class="g9_278"/>
<path d="M181.7,591.8L191.9,579c22.4,-28.3,44.8,-56.5,67.2,-84.7l9.1,-11.5l-1.3,-1l-9.1,11.4c-22.4,28.2,-44.8,56.5,-67.2,84.7l-10.2,12.8l1.3,1.1Z" class="g9_278"/>
<path d="M198.4,620.4l10,-12.4c22.1,-27.4,44.2,-54.8,66.3,-82.2l8.9,-11.1l-1.3,-1.1l-8.9,11.1c-22.1,27.4,-44.2,54.8,-66.3,82.2L197,619.4l1.4,1Z" class="g9_278"/>
<path d="M214.6,637.9l9.9,-12.6c21.8,-27.8,43.7,-55.7,65.5,-83.5l8.9,-11.3l-1.4,-1l-8.8,11.2c-21.9,27.9,-43.7,55.7,-65.6,83.6l-9.9,12.6l1.4,1Z" class="g9_278"/>
<path d="M230.6,646.2L240.4,633c21.7,-29.1,43.3,-58.2,65,-87.3l8.8,-11.8l-1.3,-1l-8.8,11.8C282.4,573.8,260.7,602.9,239,632l-9.8,13.2l1.4,1Z" class="g9_278"/>
<path d="M246.5,647l9.8,-13.9c21.6,-30.8,43.2,-61.5,64.7,-92.3l8.8,-12.5l-1.4,-1l-8.7,12.5c-21.6,30.8,-43.2,61.6,-64.8,92.4l-9.7,13.9l1.3,.9Z" class="g9_278"/>
<path d="M262.7,642l9.7,-14.7c21.5,-32.4,43.1,-64.9,64.6,-97.4l8.8,-13.2l-1.4,-.9L335.6,529c-21.5,32.5,-43.1,64.9,-64.6,97.4l-9.7,14.7l1.4,.9Z" class="g9_278"/>
<path d="M279,632.7l9.8,-15.2c21.5,-33.8,43,-67.5,64.6,-101.2l8.7,-13.7l-1.4,-.9l-8.8,13.7c-21.5,33.7,-43,67.4,-64.6,101.2l-9.7,15.2l1.4,.9Z" class="g9_278"/>
<path d="M295.8,620.8l9.7,-15.4C327,571.3,348.5,537.3,370,503.2l8.8,-13.9l-1.4,-.9l-8.8,13.9c-21.5,34.1,-43,68.1,-64.5,102.2l-9.8,15.4l1.5,.9Z" class="g9_278"/>
<path d="M312.9,608l9.7,-15C344,560,365.5,527,387,494.1l8.7,-13.4l-1.4,-1l-8.7,13.4c-21.5,33,-43,66,-64.4,99L311.4,607l1.5,1Z" class="g9_278"/>
<path d="M330.3,596.1L340,582.5c21.3,-30,42.6,-60,63.9,-90l8.6,-12.1l-1.3,-1l-8.6,12.2c-21.3,29.9,-42.6,59.9,-63.9,89.9L329,595.1l1.3,1Z" class="g9_278"/>
</svg>