<?xml version="1.0" encoding="UTF-8" standalone="no"?>
<!DOCTYPE svg PUBLIC "-//W3C//DTD SVG 1.1//EN"
"http://www.w3.org/Graphics/SVG/1.1/DTD/svg11.dtd">
<svg viewBox="0 0 811 1017" version="1.1" xmlns="http://www.w3.org/2000/svg" xmlns:xlink="http://www.w3.org/1999/xlink">
<defs>
<clipPath id="c0_115"><path d="M119.4,270.2V82.5h605V270.2Z"/></clipPath>
<clipPath id="c1_115"><path d="M156.1,729.8V399.7h440V729.8Z"/></clipPath>
<style type="text/css"><![CDATA[
.g0_115{
fill: #0E0E0E;
}
]]></style>
</defs>
<image clip-path="url(#c0_115)" preserveAspectRatio="none" x="119" y="83" width="605" height="187" xlink:href="img/1.jpg"/>
<image clip-path="url(#c1_115)" preserveAspectRatio="none" x="156" y="400" width="440" height="330" xlink:href="img/2.jpg"/>
<path d="M523.8,805.9h-1.1v-8.6h1.1Zm-1.8,.6h2.5v-4h1.1l2.9,4h3.1l-3.2,-4.2c1.2,-.4,1.9,-1.4,1.9,-2.7c0,-2.1,-1.6,-2.9,-3.5,-2.9H522v9.8Zm8.3,-.6h-1.5l-2.4,-3.4c.4,0,.9,0,1.3,-.1l2.6,3.5Zm-2.7,-4.1c-.2,0,-.5,0,-.8,0h-2.3v-4.5h2.4c.2,0,.5,.1,.7,.1v4.4Zm.7,-4.3c.9,.4,1.4,1.1,1.4,2.1c0,.9,-.5,1.8,-1.4,2.1v-4.2Z" class="g0_115"/>
</svg>