<?xml version="1.0" encoding="UTF-8" standalone="no"?>
<!DOCTYPE svg PUBLIC "-//W3C//DTD SVG 1.1//EN"
"http://www.w3.org/Graphics/SVG/1.1/DTD/svg11.dtd">
<svg viewBox="0 0 811 1017" version="1.1" xmlns="http://www.w3.org/2000/svg" xmlns:xlink="http://www.w3.org/1999/xlink">
<defs>
<clipPath id="c0_362"><path d="M407.6,102.5l-.1,-.1l-.1,-.2c-2.1,-2.7,-4.3,-5.3,-6.5,-7.9l-.2,-.2c-2.2,-2.6,-4.6,-5.2,-7,-7.6l-.1,-.1l-.1,-.2h11.9v.1l.2,.2c.6,.7,1.2,1.4,1.8,2l.1,.2l.1,.1c0,1.3,0,2.5,0,3.8v.7c0,3,0,5.9,0,8.9v.3Zm16.5,14.4V86.2h12.2v30.7Z"/></clipPath>
<clipPath id="c1_362"><path d="M393.5,331.5v0l.1,-.2c4.9,-5.1,9.6,-10.4,13.9,-16.1h.1v13.7l-.1,.1c-.6,.7,-1.2,1.4,-1.9,2.1v.1l-.2,.2v.1Z"/></clipPath>
<style type="text/css"><![CDATA[
.g0_362{
fill: #FFF;
}
.g1_362{
fill: #EDF7FA;
}
.g2_362{
fill: #EED3C5;
}
.g3_362{
fill: #F7B293;
}
.g4_362{
fill: #EB7D61;
}
.g5_362{
fill: #040504;
}
.g6_362{
fill: #181818;
}
.g7_362{
fill: #2E3A97;
}
.g8_362{
fill: #4458A6;
}
.g9_362{
fill: #7E95CC;
}
.ga_362{
fill: #000;
}
]]></style>
</defs>
<path d="M162.4,331.5H407.6V86.2H162.4Z" class="g0_362"/>
<path d="M242.4,306.3h-.7c-13,-.6,-18.6,-10.9,-20.4,-22.5l-.1,-.2v-.3c-1.9,-12.8,-3.6,-26.1,-4.1,-39v-1c-.5,-15.2,.1,-30.4,-.1,-45.6l-.1,-.3v-.2c-.1,-14.3,-.1,-28.1,1.6,-42.2v-.3l.1,-.2v-.8l.1,-.2v-.3c2.4,-14.5,1,-36.7,19,-41.3l.3,-.1h.4c8.1,-1.6,15.8,2.1,22.9,5.7l.2,.1l.1,.1c6.5,3.4,13.1,6.8,19.6,10.5l.2,.1l.2,.1l.1,.1l.2,.1c12.5,7.2,24.1,15.9,35.4,24.7l.2,.2c11,8.7,22.5,18.4,30.5,29.9l.2,.3l.1,.2l.1,.2l.1,.1c21.6,32.7,-3.3,57.6,-27.8,77.4l-.1,.1l-.1,.1l-.3,.2c-11.1,8.8,-22.7,17.6,-34.8,25l-.3,.2l-.1,.1h-.1c-6.4,3.8,-12.9,7.2,-19.4,10.7l-.2,.1h-.1c-6.6,3.4,-14,7.7,-21.6,8.1l-.2,.1h-1Z" class="g1_362"/>
<path d="M240,306.2v0l-.3,-.1h-.2C227.1,304.2,222.6,293.5,221,282.4v-.3l-.1,-.2c-1.8,-12.8,-3.4,-25.9,-3.8,-38.8v-.8l-.1,-.2c-.3,-15,.2,-29.9,-.1,-44.9v-.5c-.1,-14.1,0,-27.7,1.6,-41.7v-.3l.1,-.2v-.8l.1,-.2v-.3c2.4,-14.5,1,-36.9,19.3,-41.4h.4l.1,-.1c8.2,-1.5,16,2.3,23.1,6l.2,.1l.2,.1c6.5,3.4,13.1,6.8,19.4,10.4l.2,.1l.1,.1l.2,.1l.1,.1l.2,.1c12.5,7.2,24.2,16,35.6,24.9l.2,.2c11,8.8,22.6,18.5,30.5,30.3l.2,.2l.1,.3l.1,.1l.1,.1c21.1,33,-4.9,58,-29.4,77.6l-.1,.1l-.2,.1l-.1,.1c-11.3,8.9,-22.9,17.8,-35.3,25.1l-.2,.1l-.1,.1l-.2,.1c-6.3,3.7,-12.9,7.1,-19.4,10.5l-.1,.1l-.1,.1c-7,3.5,-14.6,7.8,-22.6,7.4l-.3,-.1H240Zm-56.5,25.2l.1,.1H347.9l.1,-.1c17.6,-12.4,33,-28.1,44.8,-46.1l.1,-.1l.1,-.1l.1,-.3c3,-4.5,5.7,-9.2,8.1,-14l.1,-.2l.1,-.3c1.2,-2.3,2.3,-4.7,3.4,-7.1l.1,-.2l.1,-.3c.5,-1.1,.9,-2.2,1.4,-3.3v-.1l.1,-.3l.1,-.2c.2,-.4,.4,-.8,.5,-1.2l.1,-.3l.1,-.2l.1,-.2v-.1l.1,-.2l.1,-.3v-95l-.1,-.2l-.1,-.3v-.1l-.1,-.1l-.1,-.2l-.1,-.3c-4,-10.4,-9.2,-20.3,-15.4,-29.5l-.2,-.2l-.1,-.1l-.1,-.1l-.1,-.3l-.2,-.2c-6,-8.8,-12.9,-17,-20.5,-24.5v-.1l-.2,-.2h-.1c-3.6,-3.6,-7.5,-7.1,-11.4,-10.4l-.3,-.2l-.2,-.2c-2,-1.6,-3.9,-3.1,-5.9,-4.6l-.1,-.1l-.2,-.1l-.2,-.1c-.8,-.7,-1.7,-1.3,-2.6,-2h-.1l-.3,-.2l-.2,-.2l-.1,-.1l-.1,-.1l-.3,-.1l-.2,-.2l-.1,-.1H183.6l-.1,.1l-.2,.2c-.3,.3,-.7,.6,-1,1l-.3,.2l-.2,.2V88l-.3,.2l-.2,.2c-3.7,3.7,-7.1,7.7,-10.3,11.8l-.2,.3h-.1c-1.5,2,-3,4.1,-4.4,6.2l-.1,.1l-.1,.2l-.1,.1c-.6,1,-1.3,1.9,-1.9,2.9l-.2,.3v.1c-.3,.4,-.5,.8,-.8,1.2l-.1,.2l-.1,.2l-.2,.2l-.1,.2v.1l-.2,.2V304.9l.2,.3v.1l.1,.1l.2,.3l.1,.2c5.6,9.1,12.3,17.6,20,25v.1l.2,.2h.1l.2,.2Z" class="g2_362"/>
<path d="M162.6,331.5h21l-.1,-.1c-8.2,-7.8,-15.2,-16.8,-21.1,-26.5v26.6h.2Z" class="g3_362"/>
<path d="M348,331.5h28.8c11.8,-10.7,22.2,-22.9,30.8,-36.3V256.3c-11.5,30.4,-33.2,56.5,-59.6,75.1l-.1,.1h.1Z" class="g3_362"/>
<path d="M407.6,161.4v-39C399,109.1,388.6,96.9,376.8,86.2H347.9l.1,.1c26.4,18.6,48.1,44.7,59.6,75v.1Z" class="g3_362"/>
<path d="M162.4,112.7l.2,-.2c5.8,-9.6,12.8,-18.5,20.9,-26.2l.1,-.1H162.4v26.6v-.1Z" class="g3_362"/>
<path d="M376.9,331.5h16.6c5,-5.2,9.7,-10.6,14.1,-16.3v-20l-.1,.2c-8.5,13.3,-18.9,25.4,-30.6,36l-.1,.1h.1Z" class="g4_362"/>
<path d="M407.6,122.4V102.5C403.2,96.8,398.5,91.4,393.5,86.2H376.8l.1,.1c11.7,10.6,22.1,22.7,30.6,36l.1,.1Z" class="g4_362"/>
<path d="M162,334.7h.8v-3.2H162Z" class="g5_362"/>
<path d="M156.6,342.4h5.7v-.8h-5.7Z" class="g5_362"/>
<path d="M167.1,341.3c.4,.1,.7,.3,1,.6c.2,.3,.3,.6,.3,1.1c0,.6,-.2,1.1,-.6,1.5c-.5,.4,-1.2,.5,-2,.5c-.3,0,-.6,0,-.9,0c-.3,-.1,-.6,-.2,-.9,-.3v-.9c.3,.2,.5,.3,.8,.4c.3,0,.7,.1,1,.1c.6,0,1,-.1,1.3,-.4c.3,-.2,.4,-.5,.4,-.9c0,-.4,-.1,-.8,-.4,-1c-.3,-.2,-.6,-.3,-1.1,-.3h-.8v-.8h.8c.4,0,.8,0,1,-.2c.3,-.2,.4,-.5,.4,-.8c0,-.3,-.1,-.6,-.4,-.8c-.2,-.2,-.6,-.3,-1,-.3c-.3,0,-.6,.1,-.8,.1c-.3,.1,-.6,.1,-1,.3v-.8c.4,-.1,.7,-.2,1,-.3c.3,0,.6,0,.8,0c.7,0,1.3,.1,1.7,.4c.4,.3,.6,.8,.6,1.3c0,.4,-.1,.7,-.3,.9c-.3,.3,-.6,.5,-.9,.6Z" class="g5_362"/>
<path d="M202.9,334.7h.7v-3.2h-.7Z" class="g5_362"/>
<path d="M197.4,342.4h5.8v-.8h-5.8Z" class="g5_362"/>
<path d="M205.9,344.1h3.2v.8h-4.2v-.8c.3,-.3,.8,-.8,1.4,-1.4c.6,-.6,.9,-1,1.1,-1.2c.3,-.3,.5,-.6,.6,-.8c.1,-.2,.2,-.4,.2,-.7c0,-.3,-.2,-.6,-.4,-.8c-.3,-.3,-.6,-.4,-1,-.4c-.3,0,-.6,.1,-.9,.2c-.3,.1,-.6,.2,-1,.4v-.9c.4,-.1,.7,-.2,1,-.3c.3,-.1,.6,-.1,.9,-.1c.7,0,1.2,.1,1.7,.5c.4,.3,.6,.8,.6,1.4c0,.3,-.1,.5,-.2,.8c-.1,.2,-.3,.5,-.5,.8c-.1,.1,-.3,.4,-.8,.8c-.4,.4,-.9,1,-1.7,1.7Z" class="g5_362"/>
<path d="M243.7,334.7h.8v-3.2h-.8Z" class="g5_362"/>
<path d="M238.3,342.4h5.8v-.8h-5.8Z" class="g5_362"/>
<path d="M246.2,344.1h1.5V339l-1.6,.3v-.8l1.6,-.3h.9v5.9h1.5v.8h-3.9v-.8Z" class="g5_362"/>
<path d="M284.6,334.7h.8v-3.2h-.8Z" class="g5_362"/>
<path d="M285,338.1c.7,0,1.3,.3,1.7,.9c.4,.6,.6,1.4,.6,2.6c0,1.1,-.2,1.9,-.6,2.5c-.4,.6,-1,.9,-1.7,.9c-.8,0,-1.3,-.3,-1.7,-.9c-.4,-.6,-.6,-1.4,-.6,-2.5c0,-1.2,.2,-2,.6,-2.6c.4,-.6,.9,-.9,1.7,-.9Zm0,.7c-.5,0,-.8,.2,-1.1,.7c-.2,.4,-.3,1.1,-.3,2.1c0,.9,.1,1.6,.3,2c.3,.5,.6,.7,1.1,.7c.5,0,.8,-.2,1.1,-.7c.2,-.4,.3,-1.1,.3,-2c0,-1,-.1,-1.7,-.3,-2.1c-.3,-.5,-.6,-.7,-1.1,-.7Z" class="g5_362"/>
<path d="M325.5,334.7h.7v-3.2h-.7Z" class="g5_362"/>
<path d="M324.1,344.1h1.5V339l-1.7,.3v-.8l1.7,-.3h.9v5.9h1.4v.8h-3.8v-.8Z" class="g5_362"/>
<path d="M366.4,334.7h.7v-3.2h-.7Z" class="g5_362"/>
<path d="M365.6,344.1h3.1v.8h-4.2v-.8c.3,-.3,.8,-.8,1.4,-1.4c.6,-.6,1,-1,1.1,-1.2c.3,-.3,.5,-.6,.6,-.8c.1,-.2,.2,-.4,.2,-.7c0,-.3,-.1,-.6,-.4,-.8c-.2,-.3,-.6,-.4,-1,-.4c-.2,0,-.5,.1,-.9,.2c-.3,.1,-.6,.2,-1,.4v-.9c.4,-.1,.7,-.2,1,-.3c.4,-.1,.7,-.1,.9,-.1c.7,0,1.3,.1,1.7,.5c.4,.3,.6,.8,.6,1.4c0,.3,0,.5,-.1,.8c-.1,.2,-.3,.5,-.6,.8c-.1,.1,-.3,.4,-.7,.8c-.4,.4,-1,1,-1.7,1.7Z" class="g5_362"/>
<path d="M407.2,334.7h.8v-3.2h-.8Z" class="g5_362"/>
<path d="M408.4,341.3c.5,.1,.8,.3,1,.6c.3,.3,.4,.6,.4,1.1c0,.6,-.2,1.1,-.7,1.5c-.4,.4,-1.1,.5,-1.9,.5c-.3,0,-.6,0,-.9,0c-.3,-.1,-.6,-.2,-.9,-.3v-.9c.2,.2,.5,.3,.8,.4c.3,0,.6,.1,.9,.1c.6,0,1.1,-.1,1.3,-.4c.3,-.2,.5,-.5,.5,-.9c0,-.4,-.1,-.8,-.4,-1c-.3,-.2,-.7,-.3,-1.2,-.3h-.8v-.8h.9c.4,0,.7,0,1,-.2c.2,-.2,.3,-.5,.3,-.8c0,-.3,-.1,-.6,-.3,-.8c-.3,-.2,-.6,-.3,-1.1,-.3c-.2,0,-.5,.1,-.8,.1c-.3,.1,-.6,.1,-.9,.3v-.8c.3,-.1,.6,-.2,1,-.3c.3,0,.5,0,.8,0c.7,0,1.2,.1,1.6,.4c.4,.3,.6,.8,.6,1.3c0,.4,-.1,.7,-.3,.9c-.2,.3,-.5,.5,-.9,.6Z" class="g5_362"/>
<path d="M159.2,331.8h3.2v-.7h-3.2Z" class="g5_362"/>
<path d="M143.3,332.4h5.8v-.7h-5.8Z" class="g5_362"/>
<path d="M153.8,331.3c.4,.1,.8,.3,1,.6c.3,.3,.4,.7,.4,1.1c0,.7,-.2,1.2,-.7,1.5c-.4,.4,-1.1,.6,-1.9,.6c-.3,0,-.6,0,-.9,-.1c-.3,-.1,-.6,-.1,-.9,-.3v-.8c.2,.1,.5,.2,.8,.3c.3,.1,.6,.1,.9,.1c.6,0,1,-.1,1.3,-.3c.3,-.2,.5,-.6,.5,-1c0,-.4,-.2,-.7,-.4,-.9c-.3,-.3,-.7,-.4,-1.2,-.4h-.8V331h.8c.5,0,.8,-.1,1.1,-.3c.2,-.2,.3,-.4,.3,-.8c0,-.3,-.1,-.6,-.3,-.7c-.3,-.2,-.6,-.3,-1.1,-.3c-.2,0,-.5,0,-.8,.1c-.3,0,-.6,.1,-.9,.2v-.8c.3,-.1,.6,-.2,.9,-.2c.3,-.1,.6,-.1,.9,-.1c.7,0,1.2,.2,1.6,.5c.4,.3,.6,.7,.6,1.3c0,.3,-.1,.6,-.3,.9c-.2,.3,-.5,.4,-.9,.5Z" class="g5_362"/>
<path d="M159.2,291h3.2v-.8h-3.2Z" class="g5_362"/>
<path d="M143.3,291.6h5.8v-.8h-5.8Z" class="g5_362"/>
<path d="M151.8,293.3H155v.8h-4.3v-.8c.4,-.3,.9,-.8,1.5,-1.4c.5,-.6,.9,-1,1.1,-1.2c.3,-.3,.5,-.6,.6,-.8c.1,-.2,.2,-.5,.2,-.7c0,-.3,-.2,-.6,-.4,-.9c-.3,-.2,-.6,-.3,-1,-.3c-.3,0,-.6,.1,-.9,.2c-.3,.1,-.7,.2,-1,.4v-.9c.4,-.2,.7,-.3,1,-.3c.3,-.1,.6,-.2,.9,-.2c.7,0,1.2,.2,1.6,.6c.5,.3,.7,.8,.7,1.4c0,.2,-.1,.5,-.2,.7c-.1,.3,-.3,.6,-.5,.9c-.1,.1,-.4,.4,-.8,.8c-.4,.4,-.9,1,-1.7,1.7Z" class="g5_362"/>
<path d="M159.2,250.1h3.2v-.8h-3.2Z" class="g5_362"/>
<path d="M143.3,250.7h5.8v-.8h-5.8Z" class="g5_362"/>
<path d="M151.2,252.4h1.5v-5.1l-1.6,.3v-.8l1.6,-.3h.9v5.9h1.5v.8h-3.9v-.8Z" class="g5_362"/>
<path d="M159.2,209.2h3.2v-.7h-3.2Z" class="g5_362"/>
<path d="M153,205.5c.7,0,1.3,.3,1.7,.9c.4,.6,.6,1.5,.6,2.6c0,1.1,-.2,2,-.6,2.6c-.4,.6,-1,.9,-1.7,.9c-.8,0,-1.3,-.3,-1.7,-.9c-.4,-.6,-.6,-1.5,-.6,-2.6c0,-1.1,.2,-2,.6,-2.6c.4,-.6,.9,-.9,1.7,-.9Zm0,.7c-.5,0,-.8,.3,-1.1,.7c-.2,.5,-.3,1.2,-.3,2.1c0,.9,.1,1.6,.3,2.1c.3,.4,.6,.7,1.1,.7c.5,0,.8,-.3,1.1,-.7c.2,-.5,.3,-1.2,.3,-2.1c0,-.9,-.1,-1.6,-.3,-2.1c-.3,-.4,-.6,-.7,-1.1,-.7Z" class="g5_362"/>
<path d="M159.2,168.3h3.2v-.7h-3.2Z" class="g5_362"/>
<path d="M151.2,170.7h1.5v-5.1l-1.6,.3v-.8l1.6,-.3h.9v5.9h1.5v.8h-3.9v-.8Z" class="g5_362"/>
<path d="M159.2,127.5h3.2v-.8h-3.2Z" class="g5_362"/>
<path d="M151.8,129.8H155v.8h-4.3v-.8c.4,-.3,.9,-.8,1.5,-1.4c.5,-.6,.9,-1,1.1,-1.2c.3,-.3,.5,-.6,.6,-.8c.1,-.2,.2,-.4,.2,-.7c0,-.3,-.2,-.6,-.4,-.8c-.3,-.3,-.6,-.4,-1,-.4c-.3,0,-.6,.1,-.9,.2c-.3,.1,-.7,.2,-1,.4v-.9c.4,-.1,.7,-.3,1,-.3c.3,-.1,.6,-.1,.9,-.1c.7,0,1.2,.1,1.7,.5c.4,.3,.6,.8,.6,1.4c0,.3,-.1,.5,-.2,.8c-.1,.2,-.3,.5,-.5,.8c-.1,.1,-.4,.4,-.8,.8c-.4,.4,-.9,1,-1.7,1.7Z" class="g5_362"/>
<path d="M159.2,86.6h3.2v-.8h-3.2Z" class="g5_362"/>
<path d="M153.8,86.1c.4,.1,.8,.3,1,.6c.3,.3,.4,.6,.4,1.1c0,.6,-.2,1.1,-.7,1.5c-.4,.4,-1.1,.6,-1.9,.6c-.3,0,-.6,-.1,-.9,-.1c-.3,-.1,-.6,-.2,-.9,-.3v-.9c.2,.2,.5,.3,.8,.4c.3,.1,.6,.1,.9,.1c.6,0,1,-.1,1.3,-.3c.3,-.3,.5,-.6,.5,-1c0,-.4,-.2,-.7,-.4,-1c-.3,-.2,-.7,-.3,-1.2,-.3h-.8v-.7h.9c.4,0,.7,-.1,1,-.3c.2,-.2,.3,-.4,.3,-.8c0,-.3,-.1,-.6,-.3,-.8c-.3,-.2,-.6,-.2,-1.1,-.2c-.2,0,-.5,0,-.8,0c-.3,.1,-.6,.2,-.9,.3v-.8c.3,-.1,.6,-.2,.9,-.2c.3,-.1,.6,-.1,.9,-.1c.7,0,1.2,.1,1.6,.5c.4,.3,.6,.7,.6,1.2c0,.4,-.1,.7,-.3,1c-.2,.2,-.5,.4,-.9,.5Z" class="g5_362"/>
<path d="M240.2,306.2l.1,-1.1h-.2l-.3,-.1h-.4l-.3,-.1h-.4l-.1,-.1h-.2h.1h-.3l-.2,-.1h-.3h.1l-.2,-.1c-.4,-.1,-.8,-.2,-1.2,-.3l-.3,-.1l-.1,-.1h-.1l-.2,-.1l-.2,-.1c-.2,0,-.4,-.1,-.6,-.2l-.1,-.1l-.3,-.1h-.1l-.1,-.1l-.2,-.1l-.2,-.1h-.1l-.2,-.1l-.1,-.1l-.1,-.1l-.3,-.1l-.2,-.1l-.2,-.2l-.6,1l.6,-1l-.3,-.1l-.1,-.1l-.1,-.1l-.2,-.1l-.6,.9l.6,-.9l-.2,-.2l-.1,-.1l-.2,-.1l-.2,-.1l-.2,-.2l-.3,-.2v-.1l-.2,-.1l-.1,-.1l-.1,-.1l-.2,-.1l-.1,-.1l-.1,-.1l-.1,-.1l-.2,-.2l-.2,-.2l-.1,-.1l-.1,-.1l-.1,-.1l-.1,-.2l-.1,-.1l-.2,-.1l-.1,-.1l-.1,-.1l-.1,-.2l-.1,-.1l-.1,-.2h-.1l-.1,-.2l-.2,-.3h-.1l-.1,-.2l-.1,-.2h-.1l-.1,-.3c-.1,-.1,-.3,-.3,-.4,-.4l-.1,-.3l-.9,.6l.9,-.5v-.1l-.2,-.2l-.1,-.1v-.1l-.1,-.3h-.1l-.1,-.2l-.1,-.2l-1,.5l1,-.5l-.1,-.3l-.2,-.2l-.1,-.2l-.1,-.2v-.1l-.1,-.2l-.1,-.2h-.1l-.1,-.3l-.1,-.2l-.1,-.3v.1l-.1,-.3l-.1,-.2l-.1,-.3v-.1l-.1,-.1l-.1,-.2l-.1,-.3l-1,.4l1,-.3V292l-.1,-.2v-.2l-.1,-.2v-.1l-.1,-.2l-.1,-.3v-.1l-.1,-.1l-.1,-.2h.1l-.1,-.3l-.1,-.2l-.1,-.3v.1v-.3l-.1,-.2v-.1l-.1,-.2v-.2l-.1,-.2l-.1,-.2V288l-.1,-.3l-.1,-.2v-.2L223,287v-.2l-.1,-.3v-.2l-.1,-.2v-.3l-.1,-.2v-.3l-.1,-.2v-.3l-.1,-.2v-.2l-.1,-.3v-.3l-.1,-.2v-.5l-.1,-.2v-.2l-.1,-.3v-.5l-.1,-.2v-.3v.1l-.1,-.3v-.5l-.1,-.2V280l-.1,-.3v-.4l-.1,-.1v-.7l-.1,-.2V278l-.1,-.2v-.7l-.1,-.3v-.5l-.1,-.2v-.5l-.1,-.3v-.4l-.1,-.3v-.5l-.1,-.2v-.8l-.1,-.2v-.3v.1v-.3l-.1,-.2v-.5l-1.1,.1l1.1,-.1v-.1l-.1,-.2v-.5c-.1,-.5,-.1,-.9,-.2,-1.4v-.3l-.1,-.2v-.8l-.1,-.2v-.5l-.1,-.2v-.8l-.1,-.2v-.5l-.1,-.3V265v.1v-.3l-.1,-.2v-.5l-.1,-.3v-.5l-.1,-.3l-1,.5l1.1,-.2v-.2l-.1,-.3v-.7l-.1,-.2v-.8h-.1v-.7l-.1,-.2v-1l-.1,-.3v-.7l-.1,-.2v-.8L219,257v-1l-.1,-.1l-1,.2L219,256l-.1,-.2v-1l-.1,-.3v-1v.1l-.1,-.3v-1l-.1,-.2v-1.2l-.1,-.3v-1.4l-.1,-.3v-1.5l-.1,-.2v-2l-.1,-.2v-2.7l-.1,-.2v-3.9l-.1,-.3V226.1v.1v-.3c0,-.6,0,-1.1,0,-1.7v-3.7l.1,-.2v-2.2c0,-.7,0,-1.4,0,-2v-2.7c0,-.6,0,-1.2,0,-1.7V206c0,-.6,0,-1.1,0,-1.7v-2.7c0,-.7,0,-1.3,0,-2v-1.5v.1v-.8l-.1,-.2v-3.7c0,-.6,0,-1.2,0,-1.7v-4v.1v-5v.1v-3.2l.1,-.3v-3.9l.1,-.2v-2.1v.1v-.7l.1,-.3v-1.9l.1,-.3v-1.4l.1,-.3v-1.4l.1,-.3v-1.2l.1,-.3v-.9l.1,-.3v-1l.1,-.2v-1l.1,-.2l-1.1,-.1l1.1,.1v-1l.1,-.2v-.8l.1,-.2v-.8l.1,-.2v-1l.1,-.2v-.7h.1v-.8l.1,-.2v-.8l.1,-.2v-.3l-1.1,-.1l.8,.8c.1,-.2,.3,-.4,.3,-.7v-.2l.1,-.5v-.5l.1,-.2v-.8l.1,-.2v-.3v.1v-.3l.1,-.2v-.8c.1,-.1,.1,-.3,.1,-.5v-.2l.1,-.3v-.7l.1,-.2v-.3c.1,-.6,.1,-1.1,.2,-1.7v-.2l.1,-.3l-1.1,-.1l1.1,.1v-.5l.1,-.2v-.5l.1,-.5v-.5l.1,-.2v-.5l.1,-.3v-.5l.1,-.2v-.5l.1,-.2v-.5l.1,-.3v-.7l.1,-.3v-.2l.1,-.2v-.7l.1,-.1v-.5l.1,-.2v-.5l.1,-.2v-.5l.1,-.3V136l.1,-.3v-.5l.1,-.2v-.2l.1,-.3V134l.1,-.2v-.2l.1,-.3v-.2l.1,-.3v-.2l.1,-.3v.1v-.3l.1,-.2v-.3l.1,-.2v-.3l.1,-.2v-.2l.1,-.3v-.2l.1,-.3l.1,-.2v-.3l.1,-.2l.1,-.2v-.3l.1,-.2l.1,-.2V128l.1,-.2v-.1l.1,-.2v.1l.1,-.3v-.2l.1,-.1v-.2l.1,-.2l.1,-.2v-.1l.1,-.2v-.2l.1,-.2l-1,-.4l1,.4l.1,-.3l.1,-.2l.1,-.1v-.2l.1,-.2l.1,-.2l.1,-.3l.1,-.2l.1,-.2l.1,-.3h.1l.1,-.2l.1,-.2V123l.1,-.2l.1,-.2c.1,-.2,.3,-.4,.4,-.7l-1.1,-.3l1,.5l.1,-.2l.1,-.2l.1,-.1l.1,-.2v-.1l.1,-.1l.2,-.3l-.9,-.6l.9,.6l.1,-.2c.3,-.3,.5,-.6,.7,-.9l.1,-.2l.1,-.1l.2,-.2l-.9,-.7l.9,.7l.1,-.2l.1,-.1l.1,-.2h.1l.1,-.2l.1,-.1l.1,-.1l.2,-.2l.1,-.1v.1l.1,-.2l.1,-.1l.1,-.2h.1l.2,-.2l.2,-.2l.1,-.1l.1,-.1l.1,-.1l.2,-.1l.1,-.1l.1,-.1l.2,-.2l.3,-.2l.2,-.2l.2,-.2l.2,-.1h.1l.2,-.2l.1,-.1l-.7,-.8l.6,.9l.2,-.2h.1l.1,-.1l.3,-.2l-.6,-.9l.6,1v-.1l.2,-.1l.2,-.1l.3,-.2h.1l.1,-.1l.2,-.1h.1l.2,-.1l.2,-.1l.1,-.1l.1,-.1l.3,-.1h.1l.1,-.1l.2,-.1h.2v-.1v.1l.3,-.1l.2,-.1l.1,-.1l.4,-.1l.2,-.1h.2l.3,-.1l.2,-.1h.3l.2,-.1h-.1h.3l.2,-.1h.3l.1,-.1h.3l.2,-.1h.5l.2,-.1h.7l.3,-.1h3l.2,.1h.7l.3,.1h.7l.2,.1h.3l.2,.1h.2l.3,.1h.2l.2,.1h.3l.2,.1h.2l.3,.1h.1l.3,.1l.3,.1h.3l.2,.1l.2,.1l.2,.1h.3l.2,.1l.3,.1h.1l.1,.1h.2l.3,.1l.1,.1h.1l.2,.1l.3,.1l.2,.1l.3,.1h.1l.1,.1l.2,.1l.3,.1l.2,.1l.3,.1h.1l.1,.1l.2,.1l.3,.1h.2l.2,-1l-.4,1l.2,.1l.3,.1l.2,.1l.3,.1h.1l.1,.1l.2,.1l.2,.1h.1l.4,.2l.1,.1l.2,.1l.2,.1l.3,.1l.2,.1l.5,-1l-.5,1c.3,.1,.5,.3,.8,.4l.2,.1l.3,.1l.2,.1l.2,.2l.3,.1l.2,.1l.3,.1l.2,.2l.3,.1l.5,-1l-.8,.8c.4,.3,1,.6,1.5,.8l.2,.1l.3,.2l.2,.1l.3,.1l.1,.1h.1l.3,.2h.1l.1,.1l.2,.1l.2,.1l.1,.1l.2,.1h.1l.2,.1l.2,.1l.1,.1l.2,.1l.2,.1h.1l.2,.1l.2,.2l.2,.1h.1l.2,.1l.5,-1l-.8,.8l.3,.2l.2,.1l.3,.2c.1,0,.3,.1,.4,.2h.1l.2,.2l.2,.1h.1l.2,.1l.2,.1l.1,.1l.2,.1h.1l.1,.1l.3,.1l.1,.1l.1,.1l.3,.1l.2,.1l.3,.2l.2,.1c.2,.1,.3,.2,.5,.3l.2,.1h.1l.2,.1l.2,.1l.3,.2l.2,.1l.3,.1l.1,.1l.1,.1l.3,.1l.1,.1h.1l.3,.2l.2,.1l.3,.1l.2,.2l.2,.1l.6,-1l-.8,.8c.3,.3,.8,.5,1.2,.7l.3,.2h.1l.1,.1l.3,.1v.1l.2,.1l.2,.1h.1l.2,.1l.2,.2l.6,-1h-1.1c0,.4,.2,.8,.5,1l.3,.1l.2,.1l.3,.2h.1l.1,.1l.3,.1l.1,.1l.1,.1l.2,.1h.1l.2,.1l.2,.2l.6,-1l-.6,1l.3,.1l.2,.1v.1l.3,.1l.1,.1h.1l.3,.2l.2,.1l.2,.2h.1l.5,-1l-.6,1l.3,.1l.2,.1l.4,.2l.1,.1l.3,.2l.2,.1l.2,.1h.1l.2,.2l.2,.1h-.1h.1l.3,.2h.1l.1,.1l.3,.2l.5,-1l-.5,1l.2,.1l.2,.1l.1,.1c.2,.1,.5,.3,.8,.4l.5,-.9l-.6,.9l.2,.1l.2,.1l.1,.1l.2,.1l.1,.1l.2,.1l.2,.1l.3,.2l.1,.1h.1l.2,.2h.1l.2,.1l.2,.2l.3,.1l.1,.1l.1,.1l.3,.2l.6,-1l-.8,.8l.2,.1l.2,.2l.2,.1c.2,.1,.4,.2,.5,.4l.2,.1h.1l.2,.2h.1l.2,.1l.2,.2l.3,.2h.1l.1,.1l.2,.2h.1l.2,.1l.1,.1l.1,.1l.3,.1c.2,.2,.4,.2,.6,.2v-1.1l-.6,.9l.2,.2l.2,.1l.1,.1l.2,.1l.6,-.9l-.6,.9l.3,.2l.1,.1l.1,.1l.3,.1l.6,-.9l-.6,.9l.2,.2l.1,.1h.1l.3,.2l.1,.1l.5,-1l-.6,.9l.2,.2l.2,.1h.1l.2,.2h.1v.1l.5,-1l-.6,.9l.3,.2h.1l.1,.1l.2,.2h.1l.2,.2h.1l.1,.1l.2,.2h.1l.2,.2h.1l.2,.1l.1,.2h.1l.3,.2l.2,.2l.2,.1h-.1h.2l.2,.2l.1,.1l.5,-1l-.6,.9l.2,.2h.1l.2,.1l.2,.2l.3,.2l.2,.2l.2,.1h.1l.2,.2l.3,.2l.1,.1l.1,.1l.2,.1l.3,.2l.1,.1l.1,.1l.2,.1l.1,.1l.2,.1v.1v-.1l.3,.2l.1,.1l.1,.1l.2,.1l.1,.1l.2,.1l.1,.1l.1,.1l.2,.1l.1,.1l.2,.2h.1l.6,-.9l-.7,.9l.3,.2h.1l.1,.1l.2,.2h.1l.2,.2l.3,.2l.1,.1l.1,.1l.2,.1l.3,.2l.2,.2l.2,.1l.1,.1l.2,.1v.1l.3,.1v.1l.2,.1l.1,.1l.2,.1l.2,.2l.3,.2l.2,.2l.1,.1c.4,.2,.8,.5,1.1,.8l.2,.1l.1,.1l.2,.1v.1h.1l.2,.1l.1,.1l.1,.1l.2,.2l.3,.2l.2,.2l.1,.1l.2,.1l.2,.1v.1l.3,.1v.1v-.1l.2,.2l.1,.1l.2,.1l.1,.1l.1,.1l.2,.2l.7,-.9l-.9,.6l.2,.3l.3,.2h.1l.1,.2l.2,.1h.1v.1l.2,.1l.3,.2v.1l.2,.1l.1,.1l.2,.1l.2,.2l.3,.2l.2,.2h.1l.1,.2l.2,.1l.1,.1l.2,.1l.3,.2v.1l.2,.1l.1,.1l.2,.1l.2,.2h-.1h.1l.3,.2l.6,-.9l-.6,.9l.2,.2c.2,.2,.5,.4,.7,.5v.1l.3,.2l.2,.2h.1l.2,.2l.1,.1l.1,.1c.2,.1,.4,.2,.5,.4l.3,.1v.1l.2,.1l.1,.2h.1l.3,.2l.2,.2h.1l.2,.2l.1,.1l.1,.1l.2,.1l.1,.1l.2,.2l.3,.2l.2,.2l.1,.1l.1,.1l.2,.1l.1,.1l.2,.2c.2,.2,.5,.4,.8,.6l.1,.1l.1,.1l.2,.1l.1,.1l.2,.2l.2,.2l.1,.1l.7,-.9l-.8,.8l.3,.2v.1l.2,.1l.1,.1l.2,.1l.1,.2c.3,.1,.5,.4,.7,.5l.6,-.9l-.7,.9l.3,.2l.2,.2h.1l.1,.2l.2,.1l.1,.1l.2,.1v.1l.2,.2h.1l.2,.2h.1l.6,-.8l-.7,.8l.3,.2v.1l.2,.1l.1,.1l.2,.1l.1,.2v-.1l.1,.2l.2,.1v.1l.2,.1l.1,.1l.2,.2c.1,.1,.2,.2,.3,.2l.2,.2l.1,.1l.2,.1l.1,.1h-.1l.2,.2l.1,.1l.1,.1h.1l.1,.1l.1,.1l.2,.1v.1c.2,.2,.4,.3,.5,.5l.3,.2l.7,-.8l-.8,.7l.1,.1l.2,.2l.3,.2v.1l.2,.1l.1,.1l.2,.2h-.1l.1,.1l.2,.1l.1,.1l.1,.1l.2,.1l.1,.1l.1,.2l.1,.1l.2,.1l.1,.1c.1,.2,.3,.3,.5,.5l.2,.2l.2,.2l.3,.2v.1l.2,.2l.8,-.8l-.8,.8l.3,.2v.1l.7,-.9l-.7,.8l.2,.3c.5,.5,1,.9,1.5,1.4l.2,.3h.1l.2,.2l.2,.3v-.1v.1l.2,.2h.1l.2,.3l.8,-.8l-.8,.7v.1l.2,.2l.8,-.8h-1.1c0,.3,.1,.6,.3,.8l.3,.2v.1l.2,.2l.2,.2l.1,.1l.2,.2l.2,.2l.1,.1l.1,.2h.1l.1,.2l.1,.1l.2,.2v-.1l.1,.2l.1,.1l.1,.1l.1,.1l.2,.2v.1l.2,.2h.1l.2,.2v.1l.2,.2l.2,.2v.1l.2,.2l.1,.1l.1,.1l.1,.1l.1,.2l.2,.1v.1l.2,.2l.1,.1l.2,.2l.2,.2v.1l.2,.2v.1l.2,.1l.1,.2l.1,.1l.1,.2h.1l.2,.3l.8,-.7l-.9,.6c.1,.2,.3,.4,.4,.5l.2,.2v.1l.2,.2l.2,.3l.2,.2l.1,.1l.1,.2l.1,.1l.1,.1l.2,.2c.1,.2,.2,.3,.3,.4l.5,-1l-.8,.6l.1,.3l.1,.1l.1,.1l.1,.2l.1,.1l.2,.2v.1l.9,-.7l-.9,.6l.1,.2c.2,.3,.4,.5,.6,.8l.1,.2l.2,.2v.1l.2,.2l.1,.2l.1,.2l.1,.1l.2,.2v.1l.1,.2l.1,.1l.1,.1l.1,.2l.1,.1l.1,.2l.1,.2l.2,.3v.1l.1,.1l.2,.3l.1,.2l.8,-.8l-.9,.5l.1,.3l.1,.1v.1h.1l.1,.3l.1,.1l.1,.1l.1,.3l.9,-.6l-.9,.5v.1l.1,.2l.1,.2h.1l.1,.3l.1,.1c.1,.3,.3,.6,.5,.9l.1,.2l.1,.2v.1l.1,.2l.1,.2v.1l.1,.1l.2,.3l.1,.2l.1,.3l.1,.2l.1,.2l.1,.2v.1l.1,.2l.1,.2v.1l.1,.2l.1,.2l.1,.2l1,-.6l-1.1,.4l.1,.3l.1,.2h.1v.3l.1,.2l.1,.2l.1,.3l.1,.2l.1,.1v.2l.1,.2l.1,.2v.1l.1,.2l.1,.2v.3l.2,.2l.9,-.6l-1.1,.3l.1,.3l.1,.2l.1,.3l.1,.2v.2l.1,.3v.1l.1,.1v.3l.1,.2l.1,.2v.3c.1,.2,.2,.5,.2,.7l.1,.2v.3l.1,.2v.3v-.1l.1,.3v.2l.1,.3v.2l.1,.2v.3l.1,.2v.3l.1,.2v.5l.1,.2v.5l.1,.2v.7l.1,.2v1l.1,.3v4.5l-.1,.2v1.1l-.1,.1v.8l-.1,.2v.5l-.1,.2v.5l-.1,.2v.3l-.1,.2v.3l-.1,.2c0,.2,-.1,.4,-.1,.7l-.1,.2v.3l-.1,.2v.2l-.1,.3c-.1,.6,-.3,1.3,-.5,1.9l-.1,.2v.3l-.1,.2l-.1,.2l-.1,.3l-.1,.2l1.1,.4l-1,-.5c-.1,.2,-.2,.5,-.3,.8l-.1,.3l-.1,.2v.2l-.1,.1l-.1,.2l-.1,.2v.1l-.1,.2l-.1,.2v.2l-.1,.1h.1l-.2,.2l-.1,.2l1.1,.5l-.8,-.8l-.3,.3l-.1,.3l-.1,.2v.1l-.1,.2l-.1,.2v.1l-.1,.1l-.1,.3l-.1,.1v.1l-.1,.3l-.1,.1v.1l-.2,.2v.2l-.1,.1l-.1,.2l-.1,.2v.1l-.1,.2l-.1,.2c-.2,.3,-.3,.6,-.5,.9l-.1,.1l-.1,.2c-.1,.2,-.2,.4,-.3,.6l.9,.5l-.9,-.6l-.1,.3l-.1,.1l-.1,.1l-.1,.2l-.1,.1l-.1,.2l-.1,.2l.9,.6l-.8,-.8l-.1,.2l-.2,.3l-.1,.1v.1l-.2,.2v.1l-.1,.2l-.1,.2h-.1c-.1,.3,-.3,.5,-.4,.7l-.1,.1h.1l-.2,.2l-.1,.1l-.1,.1l-.1,.2v.1l-.2,.2c-.1,.2,-.2,.3,-.3,.4v.1l-.2,.2v.1l-.2,.2l-.1,.1v.1h-.1l-.1,.3l.9,.6l-.9,-.7v.1l-.2,.2l-.1,.1l-.1,.2l-.1,.1l-.1,.1l-.1,.2l.8,.7l-.7,-.8l-.1,.1l-.2,.3l-.1,.1l-.1,.1l-.1,.2l-.1,.1l-.2,.2l-.2,.2v.1l-.2,.2v.1l-.2,.1l-.1,.2v.1l-.2,.2l-.1,.1l.9,.6l-.8,-.7l-.2,.3h-.1l-.1,.2l-.1,.1l-.1,.1l-.2,.2v.1l-.2,.2l-.2,.3l.8,.7l-.8,-.8v.1l-.2,.2l-.1,.1l-.2,.2v.1l-.2,.1l-.1,.1l-.1,.1l-.1,.2c-.2,.2,-.3,.4,-.5,.6l-.2,.2c-.2,.2,-.3,.3,-.5,.5v.1l-.2,.1l-.1,.1l-.1,.2l-.1,.1l-.1,.1l-.2,.2l-.1,.1l-.1,.1l-.1,.1l-.1,.2l-.1,.1l-.2,.1v.1l-.2,.2h-.1c-.1,.2,-.3,.4,-.4,.5l-.3,.3l-.2,.2v.1h-.1l.9,.7l-.8,-.8l-.2,.3h-.1l.8,.7l-.7,-.7l-.3,.2c-.1,.1,-.1,.2,-.2,.3l-.3,.2h.1h-.1l-.2,.2v.1c-.2,.1,-.3,.3,-.5,.4v.1v-.1l-.2,.3h-.1l-.2,.2l-.2,.3c-.1,0,-.2,.1,-.3,.2l-.2,.2l.7,.8l-.6,-.8h-.1l-.3,.3l.8,.8v-1.1c-.3,0,-.6,.1,-.8,.3l-.2,.2c-.1,.1,-.2,.2,-.3,.3l-.2,.2l-.2,.2l-.1,.1l-.2,.1v.1l-.2,.2h-.1l-.2,.2l-.1,.1l-.1,.1l-.1,.1l-.2,.2l-.1,.1l-.1,.1l-.2,.1l-.1,.1l-.1,.2h-.1l-.2,.2v.1l-.3,.2v-.1v.1l-.2,.2l.7,.8l-.6,-.9l-.1,.1l-.3,.2l-.2,.2l-.1,.1l-.2,.2l-.2,.2l-.1,.1l-.1,.1h-.1l-.1,.1l-.1,.1l-.2,.2h.1h-.1l-.2,.2l-.1,.1l-.2,.1v.1l-.3,.2l-.2,.2H328l-.2,.2v.1l-.2,.1c-.1,.1,-.3,.3,-.4,.4h-.1l-.2,.2v.1l-.3,.2l.7,.8l-.7,-.8l-.2,.2h-.1l-.2,.2l-.2,.2l-.1,.1l-.2,.1l-.1,.1l-.1,.1l-.2,.2l-.3,.2l.7,.9l-.6,-1l-.1,.1l-.2,.2l-.1,.1l-.2,.1l-.1,.1l-.1,.1l-.2,.2h-.1l-.2,.2l-.3,.2v.1l.7,.8l-.7,-.9l-.2,.3l-.2,.2h-.1l-.2,.2l-.1,.1l-.1,.1l-.2,.1c-.2,.2,-.4,.3,-.6,.5l-.2,.2l-.1,.1l-.2,.1l-.1,.1l-.1,.1l-.2,.1v.1l-.3,.2l-.2,.2h-.1l-.2,.2l-.1,.1l-.1,.1l-.2,.1h-.1l-.2,.2v.1l-.3,.1l-.1,.1h.1l-.2,.1l-.2,.2h-.1h.1l-.3,.2c-.1,.1,-.2,.2,-.3,.3l-.2,.1l-.1,.1l-.1,.1c-.5,.4,-1,.8,-1.5,1.2l-.2,.2l.6,.8l-.6,-.9v.1c-.3,.1,-.5,.3,-.8,.5l-.2,.2l-.3,.2l-.2,.2l-.1,.1l-.2,.1l-.1,.1l-.1,.1l-.2,.2l.6,.8l-.6,-.9v.1c-.5,.3,-1,.7,-1.5,1.1l-.1,.1l-.2,.1l-.1,.1l-.1,.1l-.3,.2l-.1,.1l.8,.8l-.7,-.9l-.2,.2h-.1l-.1,.2l-.2,.1l-.1,.1l-.2,.1c-.2,.2,-.4,.3,-.5,.4l-.2,.1l-.1,.1l-.2,.2c-.2,.2,-.5,.3,-.7,.5l-.2,.2h-.1l-.2,.2h-.1l-.2,.2l-.1,.1l-.1,.1l-.2,.1c-.2,.2,-.5,.4,-.7,.5l-.1,.1l-.2,.2l-.3,.2l-.2,.2l-.2,.1h-.1v.1l-.2,.1l-.3,.2l-.2,.2l-.1,.1l-.2,.1l-.2,.1v.1l-.3,.1v.1l-.2,.1l-.1,.1l-.1,.1l-.3,.2l-.2,.2h-.1l-.2,.1l-.1,.2h-.1l-.3,.2l.7,.9l-.7,-.9l-.2,.2h-.1l-.2,.2l-.1,.1h-.1l-.2,.2h-.1l-.2,.2l-.1,.1l-.1,.1c-.2,.1,-.4,.2,-.5,.3l-.1,.1l-.2,.1l-.1,.1l-.1,.1l-.3,.1v.1l-.2,.1l-.1,.1l-.2,.1h.1l-.3,.1v.1l-.2,.1l-.1,.1l-.2,.1l-.2,.1v.1l-.3,.2l-.2,.1l-.2,.1l-.1,.1l-.2,.2h-.1l.7,.9l-.6,-.9l-.2,.1l-.1,.1l-.2,.1l-.2,.2l-.3,.2h-.1l-.1,.1l-.2,.1v.1H296l-.2,.2h-.1l-.2,.1l-.1,.1l-.1,.1l-.2,.2H295l-.2,.1l-.1,.1l-.1,.1l-.3,.2l.6,.9l-.5,-1c-.2,.1,-.4,.3,-.6,.4l-.2,.2l.6,.9l-.5,-1l-.1,.1l-.3,.1l-.1,.1l-.1,.1l-.2,.2l.6,.9l-.6,-1c-.3,.2,-.6,.4,-.9,.6l.7,.9l-.6,-1l-.2,.2l-.1,.1l-.2,.1l-.2,.1l.6,.9v-1.1c-.2,0,-.4,.1,-.6,.2l-.3,.2l-.1,.1h-.1l-.2,.2h-.1l-.2,.2l-.1,.1h-.1c-.4,.2,-.7,.4,-1,.7h-.1l-.2,.1l-.2,.1v.1l-.2,.1l-.1,.1l-.2,.1l-.2,.1l.6,1V284c-.3,0,-.5,0,-.6,.1l-.3,.2l-.1,.1h-.1l-.3,.2l-.2,.1l-.2,.2h-.1l-.2,.1l-.1,.1l-.1,.1l-.3,.1v.1l.6,.9l-.6,-1l-.2,.2l-.2,.1h-.1l-.2,.2c-.2,.1,-.4,.2,-.6,.3l.7,.9l-.6,-.9l-.2,.1h-.1l-.1,.1l-.1,.1l-.2,.1l-.1,.1l-.2,.1l-.2,.1l.5,1l-.3,-1.1l-.2,.1l-.3,.2l-.1,.1h-.1l-.3,.1v.1l-.2,.1l-.2,.1l.5,1l-.5,-1c-.2,.1,-.4,.2,-.5,.3l-.3,.2h-.1l-.1,.1c-.3,.2,-.6,.3,-.8,.5l.6,.9l-.6,-1l-.2,.2l-.2,.1l-.3,.1l-.1,.1l-.1,.1l-.3,.1v.1l-.2,.1l-.3,.1l.6,1l-.4,-1.1c-.3,.2,-.6,.4,-.9,.5l-.1,.1H278l-.3,.2h-.1l-.1,.1l-.3,.2v-.1v.1l-.2,.1l-.3,.1l-.2,.2c-.3,.1,-.7,.3,-1,.5l-.1,.1h-.1l-.3,.2h-.1l-.1,.1c-.2,.1,-.4,.2,-.5,.3l-.3,.1l.6,1v-1.1c-.2,0,-.4,0,-.6,.1l-.2,.1c-.3,.2,-.7,.4,-1,.5l-.1,.1l-.1,.1l-.3,.1l-.1,.1h-.1l-.3,.2l-.2,.1l-.3,.1v.1l-.2,.1l-.2,.1h-.1l-.2,.1l-.2,.1v.1l-.3,.1l-.2,.1l-.3,.1l-.2,.1v.1l-.3,.1l-.1,.1h-.1l-.3,.2h-.1l-.1,.1l-.2,.1l-.1,.1l-.2,.1l-.2,.1h-.1l-.2,.1l-.2,.1l-.1,.1c-.1,0,-.3,.1,-.4,.2l-.3,.1l-.2,.2l-.3,.2l.8,.7l-.5,-.9l-.2,.1h-.1l-.2,.1l-.2,.1l-.2,.1v.1h-.1l-.2,.1l-.2,.1h-.1l-.2,.2h-.2l-.1,.1l-.2,.1l-.1,.1h-.2l-.2,.2h-.1l-.1,.1l-.3,.1l-.1,.1l-.1,.1l-.3,.1l-.2,.1l-.3,.1c-.3,.2,-.7,.4,-1,.6l.5,.9l-.5,-.9l-.2,.1l-.2,.1l.5,1v-1.1c-.2,0,-.4,0,-.5,.1l-.3,.1l-.2,.1l-.3,.2l-.2,.1l-.3,.1l-.2,.1l-.2,.2l-.3,.1l.5,1l-.5,-1l-.2,.1l-.3,.1l.5,1l-.4,-1h-.1l-.2,.1l-.3,.2l.5,.9v-1.1c-.2,0,-.3,.1,-.5,.2l-.2,.1l-.3,.1c-.1,.1,-.3,.2,-.5,.2l-.2,.1l-.2,.2h-.1l-.2,.1l-.2,.1h-.1l-.2,.1h.1l-.3,.1l-.2,.1l-.3,.1l-.2,.1h-.1l.5,1l-.4,-1l-.3,.1l-.2,.1l-.1,.1h-.1l-.3,.1l-.2,.1l-.3,.1l-.2,.1h-.1l-.1,.1l-.3,.1l-.2,.1l-.3,.1l-.2,.1h-.2l-.3,.1l-.2,.1l-.1,.1h-.2h.1l-.3,.1l-.2,.1h-.3l-.2,.1l-.2,.1h-.3h.1h-.1l-.2,.1l-.3,.1h-.2l-.1,.1h-.1l-.3,.1h-.2l-.2,.1h-.3l-.2,.1h-.2l-.3,.1h-.4l-.1,.1h-.4l-.3,.1H245l-.3,.1h-.9l-.2,.1H241l-.2,-.1h-.5l-.1,1.1l.1,-1.1l-.1,1.1l-.1,1.1h.2c1.4,.1,2.8,.1,4.2,0h.2c1.4,-.2,2.8,-.4,4.1,-.8h.3c.2,-.1,.5,-.2,.8,-.3h.2l.2,-.1l.3,-.1h.1l.1,-.1c.4,-.1,.7,-.2,1.1,-.3l.2,-.1h.1l.2,-.1l.2,-.1c.2,0,.3,-.1,.5,-.2h.3l.1,-.1c.3,-.1,.6,-.2,.9,-.4l.2,-.1v.1l.2,-.1l.1,-.1l.2,-.1l.3,-.1l-.5,-1l.5,1l.2,-.1c.3,-.1,.5,-.2,.8,-.3l.1,-.1h.1l.3,-.1l.1,-.1l.1,-.1l.3,-.1l.1,-.1h.1l.3,-.1h-.1l.3,-.1l.2,-.1l.3,-.2l-.5,-1v1.1c.2,0,.4,0,.5,-.1l.2,-.1l.3,-.1l-.5,-1l.4,1h.1l.2,-.1l.3,-.1v-.1l-.5,-.9l.5,.9l.2,-.1c.2,0,.4,-.1,.5,-.2l.3,-.1v-.1l.2,-.1l.3,-.1l.2,-.1l.3,-.1l-.5,-1v1.1c.1,0,.3,-.1,.5,-.1l.2,-.2l.2,-.1h.1l-.5,-1l.5,1l.2,-.1l.2,-.1l.1,-.1l.2,-.1l.2,-.1l.3,-.1l.2,-.1v-.1l.3,-.1l.1,-.1h.1l.3,-.1l.1,-.1l.1,-.1l.3,-.1l.1,-.1h.1l.3,-.2h-.1h.2l.1,-.1l.2,-.1l.1,-.1l.2,-.1v.1l.2,-.2h.1l.2,-.1l.2,-.1l.1,-.1l.2,-.1l.2,-.1l.3,-.2l-.8,-.8l.5,1l.3,-.1l.2,-.1V298l.3,-.1l.2,-.1l.2,-.1h.1l.1,-.1l.1,-.1l.2,-.1l.2,-.1h.1l.2,-.2h.1l.2,-.1l.2,-.1l.1,-.1l.2,-.1l.2,-.1h.1l.2,-.1l.2,-.1v-.1l.3,-.1h-.1l.3,-.1c.2,-.1,.5,-.3,.7,-.4l.2,-.1h.1l.2,-.2h.2l.1,-.1l.2,-.1l.2,-.1h-.1h.2V295l.2,-.1h.1l.2,-.1l.2,-.1l.1,-.1l.1,-.1l.3,-.1l.2,-.1l.3,-.2l-.5,-.9v1.1c.1,0,.3,-.1,.5,-.2l.2,-.1l.2,-.1h.1l.2,-.2l.2,-.1h.1l.2,-.1l.1,-.1c.3,-.2,.6,-.3,1,-.5l.2,-.1h-.1l.3,-.1v-.1l.2,-.1l.2,-.1h.1l.2,-.2h.2l.1,-.1l.2,-.1l.1,-.1l.2,-.1l.2,-.1h.1l.2,-.1l.2,-.2l-.5,-.9l.4,1l.1,-.1l.3,-.1l.1,-.1h.1v-.1l.2,-.1h.1l.1,-.1h.1l.2,-.2h.1l.2,-.1l.2,-.2h.1l-.6,-.9l.5,.9l.3,-.1l.2,-.1v-.1l.3,-.1l.1,-.1h.1l.3,-.2l.2,-.1l.2,-.2l-.5,-.9l.5,1l.1,-.1l.2,-.1l.2,-.1l.1,-.1l.2,-.1l.1,-.1v.1l.1,-.1h.1l.2,-.2l-.6,-.9l.4,1l.2,-.1l.2,-.1l.2,-.1l.1,-.1c.3,-.2,.6,-.3,.8,-.5l-.6,-.9l.5,1l.3,-.2l.1,-.1c.2,-.1,.3,-.1,.5,-.2l.1,-.1l.2,-.2h.1l-.6,-.9l.6,.9l.2,-.1l.2,-.1l.1,-.1l.2,-.1v-.1h.1l.2,-.1l.1,-.1h.1l.2,-.2l.1,-.1l.2,-.1l.2,-.1l-.5,-.9v1.1c.2,0,.4,-.1,.5,-.2l.3,-.2l.1,-.1h.1l.3,-.2l.2,-.1l.2,-.2h.1l.2,-.2h.1l.2,-.1l.2,-.1v-.1l.3,-.1l.1,-.1l.1,-.1l.2,-.1h.1l.2,-.2l.1,-.1l.2,-.1h-.1l.3,-.1l-.6,-1v1.1c.2,0,.4,0,.6,-.1l.2,-.2l.2,-.1l.1,-.1l.2,-.1l.1,-.1l-.7,-.8l.6,.9l.3,-.2l.1,-.1h.1l.3,-.2l-.6,-.9l.5,.9h.1l.2,-.2l.1,-.1h.2l.2,-.2l-.6,-.9l.5,.9h.1l.3,-.2l.1,-.1h.1l.2,-.2l-.6,-.9l.6,.9h.1l.2,-.2l.1,-.1l.2,-.1l-.1,.1l.3,-.2l.2,-.2h.1l.2,-.2l.2,-.1l.3,-.2h.1l.1,-.2l.2,-.1h.1l.2,-.2h.1l.2,-.2l.1,-.1h.1l.3,-.2v-.1l-.7,-.8l.7,.9l.2,-.2l.1,-.1l.2,-.1l.2,-.1l.2,-.2l.1,-.1l.2,-.1l.2,-.1v-.1c.2,-.1,.5,-.3,.7,-.4l.1,-.1l.2,-.1v-.1l.3,-.1v-.1l.2,-.1l.2,-.1l.1,-.1l.2,-.2c.1,-.1,.2,-.1,.4,-.2l.1,-.1l.2,-.2l.3,-.2l.2,-.2l.2,-.1h.1l.2,-.2l.1,-.1l-.7,-.8l.6,.9l.3,-.2l.1,-.1c.3,-.2,.6,-.4,.9,-.6l.1,-.1l.1,-.1c.2,-.1,.4,-.3,.5,-.4l.2,-.2h.2l.1,-.1l.2,-.2l.3,-.2l.2,-.2l.2,-.1l.1,-.1c.1,-.1,.3,-.2,.5,-.3v-.1l.2,-.1l.1,-.1l.2,-.1l.2,-.2c.3,-.2,.7,-.5,1,-.7l.2,-.2h.1l.2,-.2l.1,-.1l.1,-.1l.2,-.1l.1,-.1c.3,-.2,.6,-.4,.9,-.7h.1l.2,-.2l.3,-.2v-.1l.2,-.1l.2,-.1v-.1l.3,-.2l.1,-.1l-.8,-.7l.7,.8l.2,-.2h.1l.2,-.1l.1,-.2h.1l.2,-.2c.2,-.1,.4,-.3,.6,-.4l.1,-.1l.1,-.1l.2,-.1v-.1h.1l.2,-.2l-.7,-.8l.7,.9v-.1l.2,-.2h.1l.2,-.2l.1,-.1h.1v-.1v.1l.3,-.2l.2,-.2l.1,-.1l.2,-.1l.1,-.1l.1,-.1l.2,-.2h.1l.2,-.2l-.7,-.9l.7,.9l.3,-.2v-.1l.2,-.1l.1,-.1c.4,-.2,.7,-.5,1,-.7l.1,-.2l.2,-.1c.3,-.2,.5,-.4,.8,-.6l.1,-.1l.2,-.1l.1,-.2h.1l.2,-.2c.2,-.1,.4,-.3,.6,-.4v-.1l.2,-.1l.1,-.2h.1l.3,-.2l.2,-.2h.1l.2,-.2l.1,-.1l.1,-.1l.2,-.1l.1,-.1c.1,-.2,.3,-.3,.5,-.4c.2,-.2,.4,-.4,.6,-.5l.1,-.1l.2,-.2h.1V260l.2,-.1h-.1h.1v-.1l.3,-.2l-.7,-.8l.7,.8l.2,-.2h.1l.1,-.2l.1,-.1l.2,-.1l.1,-.1l.1,-.1l.2,-.1l.1,-.1l.2,-.2l-.7,-.8l.6,.9l.1,-.1l.3,-.2l.2,-.2l.1,-.1l.2,-.1l.1,-.1l.1,-.1l.2,-.2h.1l.2,-.2v-.1l.3,-.2l-.8,-.8l.8,.8l.2,-.2h.1l.2,-.2v-.1l.2,-.1l.1,-.1l.1,-.1l.2,-.2h.1l.2,-.2v-.1l.3,-.2c.2,-.1,.3,-.3,.5,-.5l.2,-.1l.1,-.1l.2,-.1l.1,-.1l.1,-.2l.2,-.1l.1,-.1l.1,-.1l.1,-.1l.2,-.2c.1,-.1,.2,-.2,.3,-.2l.2,-.3l-.7,-.8l.7,.9l.1,-.1l.2,-.2l.2,-.2l.1,-.1l.2,-.1c.1,-.2,.2,-.3,.3,-.4l.2,-.1l.1,-.1l.1,-.1l.2,-.2l.1,-.1c.1,-.1,.3,-.3,.5,-.4l.2,-.2v-.1c.3,-.3,.7,-.6,1,-.9l.3,-.2l-.8,-.8v1.1c.3,0,.6,-.1,.8,-.3l.2,-.3l-.8,-.8l.7,.9c.2,-.2,.4,-.4,.6,-.6l.2,-.2h.1l.2,-.2c.2,-.2,.3,-.4,.5,-.6l.2,-.2h.1l.2,-.2v-.1l.2,-.2h.1c.2,-.3,.5,-.5,.7,-.8l-.8,-.7l.8,.7l.2,-.2c.2,-.2,.3,-.3,.5,-.5l.2,-.2l.1,-.1l.2,-.2l.2,-.2l.1,-.1l.1,-.2l.1,-.1l.2,-.1l.1,-.1l.1,-.2l.1,-.1l.1,-.1l.2,-.2v-.1l.2,-.2h.1l.1,-.2c.2,-.2,.4,-.4,.5,-.6h.1h-.1l.3,-.2h-.1l.1,-.1l.2,-.2v-.1l.2,-.1l.1,-.1l.1,-.2c.1,-.1,.3,-.3,.4,-.4v-.1l.2,-.2l-.8,-.7l.8,.8v-.1l.2,-.3h.1l.2,-.2v-.1l.2,-.2l.1,-.1l.1,-.1l.1,-.2l.1,-.1l.2,-.2l.1,-.1l-1,-.6l.9,.7l.2,-.2v-.1l.2,-.2l.1,-.1l.1,-.1l.1,-.2l.1,-.1c.2,-.3,.5,-.7,.7,-1l.2,-.2l-.9,-.7l.8,.8c.1,-.2,.3,-.3,.4,-.5l.1,-.1l.1,-.2l.1,-.1l.2,-.2l-.9,-.7l.8,.7l.1,-.1l.1,-.2l.1,-.1l.1,-.1l.2,-.2c0,-.2,.1,-.3,.2,-.4l.1,-.2l.2,-.1v-.1l.2,-.3c.2,-.2,.3,-.5,.5,-.7v-.1l.2,-.2h-.1l.2,-.1v-.1l.2,-.3l.1,-.2l.2,-.2v-.1l.1,-.2h.1v-.1l.1,-.2l.2,-.2l-1,-.6l.8,.8l.2,-.2l.1,-.3l.1,-.1l.1,-.1c.1,-.3,.3,-.6,.4,-.8v-.1l-.9,-.4l.9,.5l.1,-.2l.2,-.2v-.1c.2,-.4,.4,-.8,.7,-1.2v-.1l.1,-.2c.4,-.7,.8,-1.5,1.1,-2.2l.1,-.2v-.1l.1,-.2l.1,-.2l.1,-.1l.1,-.2l.1,-.3l-1,-.4l.7,.8v-.1l.3,-.3l.1,-.2l.1,-.3c.1,-.2,.1,-.3,.2,-.5l.1,-.2c.1,-.2,.1,-.5,.2,-.7l.1,-.1l.1,-.3c0,-.1,.1,-.3,.2,-.5v-.2l.1,-.3l-1,-.3l1,.5v-.2l.1,-.2l.1,-.3c.1,-.2,.2,-.5,.2,-.7l.1,-.3v-.1l.1,-.1l.1,-.3v-.2l.1,-.2v-.1l.1,-.2v-.3l.1,-.2v-.2l.1,-.1v-.2c.1,-.2,.1,-.4,.1,-.6l.1,-.2l.1,-.2v-.3l.1,-.3v-.4c.1,-.4,.2,-.9,.3,-1.3v-.3c.6,-3.8,.6,-7.6,0,-11.4v-.2c-.1,-.4,-.2,-.9,-.3,-1.3v-.5c-.1,-.2,-.1,-.5,-.2,-.7v-.1l-.1,-.2c0,-.1,0,-.3,-.1,-.5v-.2l-.1,-.1v-.2l-.1,-.2c-.1,-.5,-.2,-1,-.4,-1.5v-.1l-.1,-.2v-.3l-.1,-.2l-.1,-.2v-.1l-.1,-.2l-.1,-.2l-.1,-.3l-.9,.6l1,-.4l-.1,-.2c0,-.3,-.1,-.5,-.2,-.8l-.1,-.2l-.1,-.2v-.1l-.1,-.2l-.1,-.3l-.1,-.2l-.1,-.3l-.1,-.1v-.1l-.1,-.3l-.1,-.2l-.1,-.2l-.9,.6l1,-.4l-.1,-.3l-.1,-.2l-.1,-.1l-.1,-.2l-.1,-.2v-.2l-.1,-.1l-.1,-.2l-.1,-.2c-.2,-.4,-.4,-.9,-.6,-1.3l-.1,-.2l-.1,-.1l-.1,-.2l-.1,-.2v-.1l-.2,-.2v-.2l-.1,-.1l-.1,-.2V188h-.1l-.1,-.2c-.1,-.2,-.2,-.3,-.3,-.5l-.1,-.2l-.9,.5l.9,-.5l-.1,-.3l-.1,-.2c-.1,-.1,-.2,-.2,-.2,-.3l-.1,-.1l-.1,-.1l-.1,-.3l-.2,-.2l-.8,.8l1,-.6l-.2,-.2c-.1,-.3,-.3,-.5,-.5,-.8l-.1,-.2l-.2,-.3v-.1l-.2,-.1h.1l-.2,-.3l-.2,-.2v-.1l-.1,-.2l-.2,-.2l-.2,-.3v-.1c-.2,-.2,-.4,-.4,-.5,-.7l-.2,-.2l-.1,-.1l-.1,-.1l-.1,-.3l-.1,-.1l-.8,.8l.9,-.7l-.2,-.2l-.1,-.1l-.1,-.2l-.1,-.1v-.1h-.1l-.2,-.3c-.1,-.1,-.2,-.2,-.4,-.3l-.5,1l.9,-.7l-.2,-.2V180l-.2,-.2l-.1,-.1l-.1,-.1l-.1,-.3l-.2,-.2l-.1,-.1l-.1,-.2l-.1,-.1l-.1,-.1l-.2,-.2v-.1l-.2,-.2l-.9,.7l.9,-.6v-.1l-.2,-.3h-.1l-.1,-.2l-.1,-.1l-.1,-.2l-.2,-.1v-.1l-.2,-.2c-.1,-.1,-.2,-.2,-.3,-.3l-.2,-.3l-.2,-.2l-.1,-.1l-.1,-.2l-.1,-.1l-.1,-.1l-.2,-.2v-.1l-.2,-.2l-.3,-.2h.1h-.1c-.1,-.2,-.3,-.4,-.5,-.6l-.1,-.2l-.1,-.1l-.2,-.1v-.1l-.2,-.2l-.1,-.1l-.2,-.3l-.1,-.1l-.2,-.2h-.1l-.1,-.2l-.1,-.1l-.2,-.2l-.2,-.2l-.1,-.1l-.2,-.2l-.2,-.3l-.3,-.2l-.8,.7h1.1c0,-.2,-.1,-.5,-.3,-.7l-.2,-.3l-.8,.8l.8,-.8l-.2,-.2h-.1l-.2,-.3l-.2,-.2h-.1l-.2,-.3l-.2,-.2h-.1c-.1,-.2,-.3,-.4,-.4,-.5h-.1l-.2,-.3l-.2,-.2c-.3,-.3,-.6,-.5,-.8,-.8l-.8,.8l.8,-.7l-.2,-.3l-.8,.8l.8,-.8l-.3,-.2l-.2,-.3h-.1c0,-.1,-.1,-.1,-.2,-.2L335,167l-.1,-.1l-.2,-.2l-.2,-.2l-.1,-.1l-.2,-.1l-.1,-.1L334,166l-.1,-.1l-.2,-.1l-.1,-.1l-.1,-.1l-.2,-.2l-.1,-.1l-.1,-.1l-.1,-.1l-.2,-.2h-.1l-.2,-.2l-.2,-.2l-.8,.8l.8,-.8c-.2,-.2,-.4,-.3,-.5,-.5h-.1l-.2,-.2l-.1,-.1l-.1,-.1l-.1,-.1l-.2,-.2l-.1,-.1l-.1,-.1l-.2,-.1l-.1,-.1l-.2,-.2c-.3,-.2,-.5,-.5,-.8,-.7l-.2,-.2l-.1,-.1l-.2,-.1l-.1,-.1l-.1,-.1l-.2,-.2l-.2,-.2h-.1l-.2,-.2l-.1,-.1l-.7,.9l.8,-.9l-.3,-.2l-.2,-.2h-.1l-.2,-.2l-.1,-.1l-.1,-.1l-.2,-.1l-.1,-.1c-.2,-.2,-.4,-.3,-.6,-.5l-.6,.9l.7,-.8l-.2,-.2L326,159l-.2,-.1l-.1,-.1l-.1,-.1l-.2,-.2l-.1,-.1l-.1,-.1l-.1,-.1l-.2,-.2h-.1l-.7,.9l.8,-.9l-.3,-.2l-.2,-.2l-.1,-.1l-.2,-.1l-.1,-.1l-.1,-.1l-.2,-.1V157h-.1l-.2,-.2l-.3,-.2l-.2,-.2l-.1,-.1l-.2,-.1l-.1,-.1l-.1,-.1l-.2,-.2h-.1l-.2,-.2l-.3,-.2l-.1,-.1l-.1,-.1l-.2,-.1V155l-.3,-.2l-.2,-.2h-.1l-.2,-.2l-.2,-.2l-.2,-.1l-.1,-.1l-.2,-.1v-.1l-.3,-.2l-.2,-.2h-.1c-.2,-.2,-.4,-.4,-.6,-.5l-.1,-.1l-.2,-.1v-.1l-.2,-.1l-.1,-.1h-.1l-.1,-.1l-.2,-.2l-.3,-.2l-.7,.8l.7,-.8l-.2,-.2l-.1,-.1c-.1,-.1,-.2,-.1,-.3,-.2l-.1,-.1l-.2,-.2h-.1l-.2,-.2c-.1,-.1,-.3,-.2,-.4,-.3l-.1,-.1l-.2,-.1l-.1,-.1l-.2,-.1v-.1l-.2,-.1l-.1,-.1l-.2,-.1l-.1,-.1l-.1,-.1c-.2,-.2,-.4,-.3,-.6,-.4l-.2,-.2l-.1,-.1l-.1,-.1l-.2,-.1l-.1,-.1l-.2,-.2l-.7,.9l.9,-.6l-.2,-.3l-.3,-.1v-.1l-.2,-.1l-.2,-.2l-.3,-.2l-.2,-.2h-.1l-.2,-.2l-.1,-.1l-.1,-.1l-.2,-.1h-.1v-.1l-.2,-.1l-.1,-.1l-.2,-.1l-.1,-.1l-.1,-.1l-.2,-.2h-.1l-.2,-.2l-.3,-.2l-.1,-.1l-.1,-.1l-.2,-.1l-.1,-.1l-.2,-.1v-.1l-.2,-.1l-.2,-.1l-.1,-.1l-.2,-.2l-.3,-.2l-.2,-.2h-.1l-.2,-.1l-.2,-.2l-.3,-.2l-.2,-.2l-.1,-.1l-.2,-.1l-.2,-.1v-.1l-.2,-.1l-.1,-.1l-.2,-.1l-.1,-.1l-.1,-.1l-.3,-.2l-.2,-.2h-.1l-.2,-.1l-.1,-.2h-.1l-.3,-.2l-.6,.9l.6,-.9l-.2,-.2h-.1l-.2,-.2l-.2,-.1l-.3,-.2l-.2,-.2l-.1,-.1l-.1,-.1l-.3,-.1v-.1v.1l-.2,-.2l-.1,-.1l-.2,-.1l-.2,-.1V140l-.3,-.2l-.2,-.1l-.1,-.1l-.2,-.1l-.2,-.2l-.3,-.2L300,139l-.2,-.2h-.1l-.2,-.2l-.2,-.2l-.2,-.1H299l-.2,-.2l-.1,-.1l-.6,1l.7,-.9l-.3,-.2h-.1l-.1,-.1l-.2,-.2H298l-.2,-.2h-.1l-.2,-.2l-.2,-.1l-.3,-.2l-.4,-.3l-.3,-.2l-.3,-.2l-.1,-.1h-.1l-.2,-.2l-.1,-.1l-.6,1l.6,-.9l-.2,-.2l-.1,-.1h-.1l-.3,-.2v-.1h-.1l-.5,1l.6,-.9l-.2,-.2l-.1,-.1h-.2l-.2,-.2H294l-.5,.9l.6,-.9l-.3,-.2h-.1v-.1h-.1l-.3,-.2l-.6,.9l.7,-.9h-.1l-.2,-.2H293l-.2,-.1l-.2,-.2c-.2,-.1,-.4,-.2,-.6,-.2v1.1l.6,-.9l-.3,-.2h.1h-.2l-.1,-.1l-.2,-.2h-.1l-.2,-.1l-.1,-.1l-.1,-.1l-.3,-.2l-.2,-.1l-.2,-.1l-.1,-.1l-.2,-.1l-.1,-.1l-.2,-.1l-.2,-.1l-.3,-.2l-.1,-.1l-.1,-.1l-.3,-.1l-.5,.9l.7,-.8l-.2,-.1l-.2,-.2l-.2,-.1h-.1l-.2,-.2h-.1h.1l-.2,-.1l-.2,-.2v.1l-.1,-.1l-.2,-.1l-.1,-.1l-.2,-.1l-.2,-.1l-.1,-.1l.1,.1l-.3,-.2l-.1,-.1h-.1l-.3,-.2h-.1l-.1,-.1l-.3,-.2l-.5,1l.5,-1l-.2,-.1l-.2,-.1l-.1,-.1l-.2,-.1l-.1,-.1l-.2,-.1l-.2,-.1l-.1,-.1l-.5,1l.6,-.9l-.2,-.2l-.2,-.1h-.1l-.2,-.2h-.1l-.2,-.1l-.2,-.2h-.1l-.2,-.1L283,128l-.3,-.2l-.1,-.1h-.1l-.3,-.2l-.2,-.1l-.3,-.2l-.2,-.1l-.2,-.1h-.1l-.2,-.2h-.1l-.2,-.1h.1l-.3,-.2h-.1l-.1,-.1l-.3,-.1l-.5,.9l.5,-.9l-.2,-.2l-.2,-.1h-.1l-.2,-.2h-.2l-.1,-.1l-.2,-.1l-.1,-.1l-.2,-.1l-.2,-.1h-.1l-.2,-.1l-.2,-.2l-.5,1h1.1c0,-.4,-.3,-.8,-.6,-1l-.3,-.1l-.2,-.1c-.2,-.2,-.5,-.3,-.7,-.4l-.2,-.1l-.1,-.1l-.2,-.1L276,124h-.2l-.2,-.2h-.1l-.2,-.1l-.2,-.1l-.5,.9l.7,-.8l-.2,-.2l-.3,-.1l-.2,-.1l-.3,-.1l-.1,-.1l-.1,-.1l-.2,-.1l-.2,-.1h-.1l-.2,-.2h-.2l-.1,-.1l-.2,-.1l-.1,-.1l-.2,-.1l-.2,-.1h-.1l-.2,-.1l-.2,-.2l-.3,-.1l-.2,-.1l-.3,-.2h.1l-.3,-.1l-.2,-.1l-.2,-.1h-.1l-.2,-.2l-.2,-.1h-.1l-.2,-.1l-.2,-.1l-.1,-.1l-.2,-.1h-.1l-.2,-.1l-.2,-.2v.1l-.1,-.1l-.2,-.1l-.2,-.1l-.2,-.1l-.3,-.2l-.2,-.1l-.3,-.1l-.5,.9l.8,-.7l-.3,-.2l-.2,-.2l-.2,-.1h-.1l-.2,-.1l-.2,-.1h-.1l-.2,-.2l-.2,-.1h-.1l-.2,-.1l-.1,-.1h-.1l-.1,-.1h.1l-.3,-.1l-.1,-.1h-.1l-.3,-.1l-.1,-.1l-.1,-.1l-.3,-.1h-.1v-.1h-.1l-.3,-.2l-.2,-.1l-.3,-.1l-.2,-.1l-.2,-.2h-.1l-.2,-.1l-.2,-.1H262l-.2,-.2l-.2,-.1l-.5,1l.7,-.8l-.2,-.2l-.3,-.1l-.2,-.1l-.3,-.2l-.2,-.1l-.3,-.1l-.2,-.1l-.3,-.2l-.2,-.1l-.3,-.1l-.2,-.1l-.3,-.1l-.2,-.2l-.3,-.1l-.2,-.1l-.3,-.1h.1l-.3,-.1v-.1l-.2,-.1c-.8,-.3,-1.5,-.6,-2.2,-.9l-.3,1.1l.5,-1.1l-.3,-.1c-.2,-.1,-.5,-.2,-.7,-.3l-.2,-.1h-.1l-.2,-.1l-.3,-.1h-.1l-.1,-.1l-.3,-.1l-.2,-.1l-.3,-.1l-.2,-.1h-.3l-.2,-.1c-.2,-.1,-.3,-.1,-.4,-.2h-.2l-.2,-.1c-2.1,-.7,-4.2,-1.2,-6.4,-1.4h-.2c-1.5,-.1,-3,-.2,-4.4,0h-.3c-.9,.1,-1.9,.3,-2.8,.5l-.3,.1c-1.7,.5,-3.4,1.2,-4.9,2.1l-.3,.2c-.3,.2,-.7,.4,-.9,.6l.8,.8l-.7,-.9l-.2,.2c-.3,.2,-.6,.4,-.8,.6l-.3,.2c-1.2,1,-2.2,2,-3.1,3.2l.9,.6l-.9,-.6l-.2,.2c0,.1,-.1,.2,-.2,.3l-.1,.1v.1h-.1l-.1,.3h-.1l-.1,.2l-.1,.2l-.1,.1l-.2,.2v.1l1,.6l-1,-.6l-.1,.2l-.1,.2l-.1,.1l-.1,.2l-.1,.1l-.1,.2l-.1,.2l-.1,.2l1,.4l-.9,-.6l-.2,.3l-.1,.2c-.5,1,-1,2.1,-1.4,3.1l-.1,.3l1,.4l-1,-.5c-.7,1.9,-1.3,3.9,-1.7,5.9l-.1,.2c-.1,.4,-.1,.7,-.2,1v.3c-.1,.3,-.2,.6,-.2,1l-.1,.2c-.1,.5,-.2,1,-.2,1.5l-.1,.2c0,.4,-.1,.7,-.1,1l-.1,.3c-.1,.6,-.1,1.2,-.2,1.7l-.1,.3c0,.5,-.1,.9,-.2,1.4v.3c-.1,.6,-.1,1.1,-.2,1.7l-.1,.3v.7l-.1,.2v.5c-.1,.4,-.1,.8,-.2,1.3v.2l-.1,.2v.6l1.1,.1l-1.1,-.1v.2c-.1,.4,-.1,.8,-.2,1.2v.3l-.1,.2c0,.2,0,.3,0,.5v.2l-.1,.3v.5l-.1,.2v.8l-.1,.2v.5l-.1,.2v.3c0,.2,0,.3,-.1,.5v.7l-.1,.3v.2c0,.3,0,.5,-.1,.8v.2l1.1,.1l-.8,-.8c-.2,.2,-.3,.5,-.3,.7v.2l-.1,.3v.5c0,.3,-.1,.6,-.1,1v.3c-.1,.1,-.1,.3,-.1,.4v.5l-.1,.2v.8l-.1,.2v.3c-.1,.8,-.1,1.6,-.2,2.4v.3l1.1,.1l-1.1,-.2v.1l-.1,.2v.8c-.1,.4,-.1,.8,-.1,1.2v.3c-.1,.3,-.1,.6,-.1,.9v.5h-.1v1c-.1,1.6,-.2,3.1,-.3,4.7v.3v-.1v.8c0,.2,0,.5,-.1,.7v2.3V175v.3l-.1,.2V177c0,.5,0,1,0,1.5v1l-.1,.2c0,.3,0,.5,0,.8v1.4c0,1.4,0,2.7,0,4v2.4c0,.5,0,1,0,1.5v1.7c0,.8,0,1.5,0,2.3v3.4l.1,.2v2.5c0,.5,0,1,0,1.5v3.1c0,.5,0,.9,0,1.3v6.1c0,.4,0,.8,0,1.2v3.2c0,.5,0,1,0,1.5v2.4l-.1,.3v3.4c0,.8,0,1.5,0,2.2v1.8c0,.4,0,.9,0,1.4v2.5c0,1.3,0,2.6,0,3.9v1.5c0,.3,0,.5,0,.7l.1,.3v1c0,.5,0,1,0,1.5v1.4l.1,.3v2.4c0,.3,.1,.5,.1,.8v1c.1,1.5,.2,3.1,.3,4.7v.9h.1v.5c0,.4,0,.7,.1,1v.3c0,.4,0,.8,.1,1.2v.7l.1,.3v.1l1.1,-.2l-1.1,.1v.2c.1,.8,.1,1.7,.2,2.5v.2l.1,.3v.7l.1,.3v.5c0,.1,0,.3,.1,.4v.8l.1,.2v.8l.1,.2v.3l.1,.3l1,-.4l-1.1,.1v.2l.1,.3v.7l.1,.3v.7h.1v.7l.1,.3v.5l.1,.2v.8l.1,.2v.5l.1,.2v.3c0,.1,0,.3,0,.5l.1,.2v.5l.1,.3v.4l.1,.3v.2l1.1,-.1l-1.1,.1v.5l.1,.3v.5l.1,.2v.5l.1,.2v.5l.1,.3v.7l.1,.2v.6l.1,.2v.5l.1,.2v.5l.1,.3v.5l.1,.2v.5l.1,.2v.6l.1,.2v.3c.1,.4,.1,.8,.2,1.2v.2l.1,.3c0,.3,.1,.6,.1,1l.1,.2v.3c.3,1.6,.6,3.2,1,4.7l.1,.3c.5,1.8,1.1,3.6,1.8,5.3l.1,.2l.1,.3c.3,.6,.6,1.2,.9,1.8l.2,.2l.9,-.5l-1,.5l.1,.1l.1,.2l.1,.2l.1,.1l.1,.2l.1,.1l.1,.2l.1,.2l1,-.6l-1,.6l.2,.3l.1,.1l.1,.1l.1,.3h.1c1.2,1.8,2.8,3.5,4.6,4.8l.2,.1l.1,.1l.2,.2l.3,.2c.2,.1,.3,.2,.5,.3l.3,.2c1.3,.7,2.7,1.4,4.1,1.8l.2,.1h.1c.2,.1,.3,.1,.5,.2h.3c.3,.1,.7,.2,1,.3h.2h-.1h.2c.5,.1,1,.2,1.5,.3h.3l.1,-1.1Z" class="g5_362"/>
<path d="M183.8,331.2l-3.5,-3.5c-5.9,-6.1,-11.1,-12.8,-15.7,-20l-1.9,-3l-.6,.4l1.8,3c4.6,7.2,9.9,14,15.9,20.2l3.5,3.4l.5,-.5Z" class="g6_362"/>
<path d="M407.3,256.2l-2,4.9c-11.2,26.6,-30.3,49.7,-53.4,67l-4.2,3l.4,.7l4.3,-3.1c23.1,-17.4,42.3,-40.5,53.6,-67.3l2,-5l-.7,-.2Z" class="g6_362"/>
<path d="M162.7,113l2.8,-4.5c4.6,-7,9.9,-13.6,15.8,-19.6l2.5,-2.4l-.5,-.5l-2.5,2.4c-6,6,-11.3,12.6,-15.9,19.7l-2.8,4.5l.6,.4Z" class="g6_362"/>
<path d="M347.7,86.5l4.7,3.5c23.2,17.5,42.3,40.8,53.4,67.8l1.5,3.7l.7,-.3l-1.5,-3.7C395.4,130.4,376.2,107,352.8,89.4l-4.7,-3.5l-.4,.6Z" class="g6_362"/>
<path d="M407.3,295l-3.4,5.1c-6.8,9.9,-14.7,19.1,-23.4,27.4l-3.9,3.7l.5,.5L381,328c8.8,-8.3,16.7,-17.6,23.6,-27.5l3.3,-5l-.6,-.5Z" class="g6_362"/>
<path d="M376.6,86.5l4.5,4.2c8.7,8.5,16.6,17.8,23.5,27.9l2.7,4l.6,-.4l-2.7,-4c-6.9,-10.1,-14.8,-19.5,-23.6,-28l-4.5,-4.3l-.5,.6Z" class="g6_362"/>
<path d="M407.3,314.9l-.1,.1l-.1,.3l-.2,.2l-.1,.1l-.1,.2l-.1,.1l-.1,.1l-.2,.2l-.2,.3c-.1,.2,-.3,.3,-.4,.5l-.1,.1l-.1,.1c-.2,.3,-.5,.7,-.8,1l-.1,.1l.3,.3l-.3,-.3l-.1,.1l-.1,.3h-.1l.3,.2l-.3,-.2l-.2,.2c-.1,.2,-.2,.4,-.4,.5l-.1,.1l-.1,.2l-.1,.1l-.1,.1l-.1,.2c-.2,.2,-.3,.4,-.5,.6l-.2,.2l-.1,.1l-.1,.1l-.1,.2l-.1,.1l-.2,.2l-.2,.3l-.2,.2l-.1,.1l-.1,.2c-.3,.3,-.6,.6,-.9,.9l-.2,.3l.3,.2l-.3,-.2c-.1,.1,-.3,.3,-.4,.5l-.1,.1l-.1,.1l-.1,.1l-.1,.2c-.3,.3,-.6,.6,-.9,1l-.2,.2h-.1l-.2,.2v.1l-.2,.2v.1l-.2,.1l-.1,.1l-.1,.2c-.6,.6,-1.1,1.1,-1.6,1.7l.3,.3l-.3,-.3l-.2,.2h-.1l-.2,.3l-.2,.2v.1l-.2,.2h-.1l-.2,.2v.1l-.2,.2h-.1l-.1,.2l-.1,.1l-.2,.2l-.1,.1l-.1,.1l-.1,.1l-.1,.1l-.2,.2l-.1,.1l.6,.5l.1,-.1l.1,-.1l.1,-.2l.1,-.1l.2,-.1l.1,-.1l.1,-.2l.1,-.1l.2,-.1l.1,-.1l.1,-.2l.1,-.1c.1,-.1,.3,-.3,.4,-.4l.1,-.1l.2,-.2c.1,-.2,.3,-.3,.5,-.5l-.3,-.3l.2,.3l.3,-.2v-.1l.2,-.2l.2,-.2l.1,-.1l.2,-.2v-.1l.2,-.1l.1,-.1l.1,-.2l.1,-.1l.1,-.1l.2,-.2l.1,-.1l.1,-.1l.1,-.1l.2,-.2v-.1l.2,-.2l.2,-.2l.1,-.1l.2,-.2c.3,-.4,.6,-.8,1,-1.1l.1,-.1h-.1l.2,-.2l.1,-.1l.2,-.2l-.3,-.3l.3,.3l.2,-.3l.2,-.2l.1,-.1l.1,-.1l.1,-.2l.1,-.1l.2,-.2l.2,-.2l.1,-.1l.1,-.2c.2,-.2,.4,-.4,.5,-.6l.2,-.2l.1,-.1l.1,-.1l.1,-.2l.1,-.1l.2,-.2c.1,-.1,.3,-.3,.4,-.5l.1,-.1l.1,-.1l.1,-.2l.1,-.1l.2,-.2c.1,-.2,.3,-.3,.4,-.5l.1,-.1l.1,-.2l.1,-.1l.1,-.1l.1,-.2l.1,-.1c.3,-.3,.5,-.6,.8,-1l.1,-.1l.1,-.1c.1,-.2,.3,-.3,.4,-.5l.2,-.2l.1,-.1l.1,-.2l.1,-.2h.1l.2,-.3l-.3,-.2l.3,.2l.1,-.2l.1,-.1l-.6,-.5Z" class="g6_362"/>
<path d="M393.2,86.5l.1,.1l.2,.1l.1,.2l.1,.1l.1,.1l.1,.1l.2,.2l.1,.1l.1,.1l.1,.1l.2,.2V88l.2,.1l.1,.1l.2,.2v.1v-.1l.2,.3c.1,.1,.2,.2,.3,.2l.2,.3l.3,-.3l-.3,.3c.4,.4,.7,.8,1.1,1.2l.1,.1l.1,.2l.2,.1l.1,.1l.1,.1l.1,.1l.2,.2v.1c.2,.1,.3,.3,.4,.5h.1l.2,.2c.1,.2,.3,.4,.4,.5l.1,.1l.1,.2l.1,.1l.2,.1l.1,.1l.1,.1l.1,.2c.2,.2,.4,.4,.5,.6l.3,-.3l-.3,.3l.2,.2l.1,.1h-.1l.2,.2h.1l.1,.2l.1,.1l.2,.2l.1,.1l.1,.1l.1,.2l.1,.1l.3,-.3l-.3,.3l.2,.2c.1,.2,.3,.4,.5,.6l.1,.1l.1,.2l.1,.1l.2,.1V97l.2,.2v.1l.2,.2l.2,.3h.1l.1,.2l.1,.1l.1,.1l.2,.2v.1l.2,.2l.2,.3h.1l.1,.2l.1,.1l.1,.2l.2,.1v.1l.2,.2v.1l.2,.2l.2,.3l.1,.1v-.1l.1,.2c.1,.2,.3,.3,.4,.5l.2,.2v.1l.2,.2l.1,.1l.1,.1l.1,.2l.1,.1l.2,.2l.1,.3h.1l.6,-.4l-.1,-.1l-.1,-.2v-.1l-.2,-.2l-.1,-.1l-.1,-.1l-.1,-.2l-.1,-.1l-.2,-.2c-.1,-.2,-.3,-.4,-.4,-.5l-.1,-.1l-.1,-.2l-.1,-.1l-.1,-.1l-.2,-.2v-.1c-.1,-.2,-.3,-.4,-.5,-.5l-.1,-.2l-.1,-.1v-.1l-.1,-.1l-.1,-.2h-.1l-.2,-.2v-.1l-.2,-.2v-.1l-.2,-.1c-.3,-.4,-.5,-.7,-.8,-1l-.2,-.3h-.1l-.1,-.2l-.1,-.1l-.1,-.2l-.2,-.1v-.1l-.2,-.2l-.3,.2l.3,-.2c-.2,-.2,-.3,-.4,-.4,-.5L402,95l-.2,-.2v-.1l-.2,-.1l-.1,-.2l-.1,-.1l-.1,-.2h-.1l-.2,-.2v-.1l-.2,-.2l-.3,.2l.3,-.2l-.2,-.3h-.1l-.1,-.2l-.1,-.1l-.2,-.2l-.1,-.1l-.1,-.1l-.1,-.1l-.1,-.1c-.3,-.4,-.6,-.7,-.9,-1l-.2,-.3l-.2,-.2l-.1,-.1l-.1,-.2l-.1,-.1l-.2,-.1l-.1,-.1l-.1,-.2l-.1,-.1l-.1,-.1l-.2,-.2v-.1l-.2,-.1l-.1,-.1l-.2,-.2l-.2,-.3l-.3,-.2l-.2,.2l.3,-.2h-.1l-.2,-.3l-.2,-.2v-.1l-.2,-.2h-.1l-.2,-.2v-.1l-.2,-.2h-.1l-.1,-.2l-.1,-.1l-.2,-.2l-.1,-.1l-.1,-.1l-.1,-.1l-.2,-.1l-.1,-.2l-.1,-.1l-.1,-.1l-.1,-.1l-.6,.5Z" class="g6_362"/>
<path d="M407.3,328.6l-.1,.1c-.1,.2,-.3,.4,-.4,.5l-.2,.3l.3,.2l-.3,-.2l-.2,.2l-.1,.1l-.1,.2h-.1l-.2,.2l-.1,.1l-.1,.2c-.1,.1,-.2,.2,-.3,.4l-.1,.1l-.2,.2l.5,.5h.1l-.3,-.3l.3,.3l.2,-.2v-.1l.2,-.2l.1,-.1l.1,-.1l.1,-.2l.1,-.1l.2,-.2l.2,-.2v-.1l.3,-.2l-.3,-.3l.2,.3h.1l.2,-.3l.2,-.2v-.1h.1l.1,-.2l.1,-.1l-.6,-.5Z" class="g6_362"/>
<path d="M405.1,86.5v0l.2,.2l.1,.1l.1,.2l.1,.1l.1,.1l.2,.2l-.1,-.1l.1,.2l.2,.1l.1,.1l.1,.2h.1l.2,.3l.3,-.3l-.3,.3l.2,.2v.1l.2,.2l.1,.1l.1,.1l.1,.1l.6,-.5l-.1,-.1l-.2,-.1v-.1l-.2,-.2v-.1l-.2,-.2h-.1l-.2,.2l.3,-.2l-.3,-.3l-.2,-.2v-.1l-.2,-.1l-.1,-.2l-.1,-.1l-.1,-.1l-.1,-.1l-.2,-.2v-.1l-.2,-.2h-.1l-.5,.5Z" class="g6_362"/>
<path d="M162,331.8h.8V85.8H162Z" class="g5_362"/>
<path d="M407.2,331.8h.8V85.8h-.8Z" class="g5_362"/>
<path d="M162,331.8H408v-.7H162Z" class="g5_362"/>
<path d="M162,86.6H408v-.8H162Z" class="g5_362"/>
<path d="M424.1,331.5h12.2V86.2H424.1Z" class="g0_362"/>
<path d="M424.1,331.5h12.2V300.8H424.1Z" class="g7_362"/>
<path d="M424.1,300.8h12.2V270.1H424.1Z" class="g8_362"/>
<path d="M424.1,270.1h12.2V239.5H424.1Z" class="g9_362"/>
<path d="M424.1,239.5h12.2V208.8H424.1Z" class="g1_362"/>
<path d="M424.1,208.8h12.2V178.2H424.1Z" class="g2_362"/>
<path d="M424.1,178.2h12.2V147.5H424.1Z" class="g3_362"/>
<path d="M424.1,147.5h12.2V116.9H424.1Z" class="g4_362"/>
<path d="M436.3,331.8h3.2v-.7h-3.2Z" class="g5_362"/>
<path d="M443.8,332.4h5.7v-.7h-5.7Z" class="g5_362"/>
<path d="M452.2,329.9c0,.4,.1,.7,.3,.9c.2,.1,.5,.2,.9,.2c.4,0,.7,-.1,.9,-.2c.3,-.2,.4,-.5,.4,-.9c0,-.3,-.1,-.6,-.4,-.8c-.2,-.2,-.5,-.3,-.9,-.3c-.4,0,-.7,.1,-.9,.3c-.2,.2,-.3,.5,-.3,.8Zm.3,1.5c-.4,-.1,-.7,-.3,-.9,-.6c-.2,-.2,-.3,-.6,-.3,-.9c0,-.6,.2,-1,.6,-1.3c.3,-.3,.9,-.5,1.5,-.5c.7,0,1.2,.2,1.6,.5c.4,.3,.6,.7,.6,1.3c0,.3,-.1,.7,-.4,.9c-.2,.3,-.5,.5,-.9,.6c.5,.1,.8,.3,1.1,.6c.2,.3,.3,.6,.3,1.1c0,.6,-.2,1.1,-.6,1.5c-.4,.3,-.9,.5,-1.7,.5c-.7,0,-1.3,-.2,-1.7,-.5c-.4,-.4,-.6,-.9,-.6,-1.5c0,-.5,.1,-.8,.4,-1.1c.2,-.3,.6,-.5,1,-.6Zm.9,.4c-.4,0,-.7,.1,-1,.3c-.2,.2,-.4,.6,-.4,1c0,.4,.2,.7,.4,.9c.3,.2,.6,.4,1,.4c.5,0,.8,-.2,1,-.4c.3,-.2,.4,-.5,.4,-.9c0,-.4,-.1,-.8,-.4,-1c-.2,-.2,-.5,-.3,-1,-.3Z" class="g5_362"/>
<path d="M459.3,328.1c.7,0,1.3,.3,1.7,.9c.4,.6,.6,1.5,.6,2.6c0,1.1,-.2,2,-.6,2.6c-.4,.6,-1,.9,-1.7,.9c-.8,0,-1.3,-.3,-1.7,-.9c-.4,-.6,-.6,-1.5,-.6,-2.6c0,-1.1,.2,-2,.6,-2.6c.4,-.6,.9,-.9,1.7,-.9Zm0,.7c-.5,0,-.8,.3,-1.1,.7c-.2,.5,-.3,1.2,-.3,2.1c0,.9,.1,1.6,.3,2.1c.3,.4,.6,.7,1.1,.7c.5,0,.8,-.3,1,-.7c.3,-.5,.4,-1.2,.4,-2.1c0,-.9,-.1,-1.6,-.4,-2.1c-.2,-.4,-.5,-.7,-1,-.7Z" class="g5_362"/>
<path d="M465.2,328.1c.7,0,1.3,.3,1.7,.9c.4,.6,.6,1.5,.6,2.6c0,1.1,-.2,2,-.6,2.6c-.4,.6,-1,.9,-1.7,.9c-.8,0,-1.4,-.3,-1.8,-.9c-.4,-.6,-.6,-1.5,-.6,-2.6c0,-1.1,.2,-2,.6,-2.6c.4,-.6,1,-.9,1.8,-.9Zm0,.7c-.5,0,-.9,.3,-1.1,.7c-.2,.5,-.4,1.2,-.4,2.1c0,.9,.2,1.6,.4,2.1c.2,.4,.6,.7,1.1,.7c.4,0,.8,-.3,1,-.7c.2,-.5,.4,-1.2,.4,-2.1c0,-.9,-.2,-1.6,-.4,-2.1c-.2,-.4,-.6,-.7,-1,-.7Z" class="g5_362"/>
<path d="M471,328.1c.8,0,1.3,.3,1.7,.9c.4,.6,.6,1.5,.6,2.6c0,1.1,-.2,2,-.6,2.6c-.4,.6,-.9,.9,-1.7,.9c-.7,0,-1.3,-.3,-1.7,-.9c-.4,-.6,-.6,-1.5,-.6,-2.6c0,-1.1,.2,-2,.6,-2.6c.4,-.6,1,-.9,1.7,-.9Zm0,.7c-.5,0,-.8,.3,-1,.7c-.3,.5,-.4,1.2,-.4,2.1c0,.9,.1,1.6,.4,2.1c.2,.4,.5,.7,1,.7c.5,0,.8,-.3,1.1,-.7c.2,-.5,.3,-1.2,.3,-2.1c0,-.9,-.1,-1.6,-.3,-2.1c-.3,-.4,-.6,-.7,-1.1,-.7Z" class="g5_362"/>
<path d="M436.3,301.2h3.2v-.8h-3.2Z" class="g5_362"/>
<path d="M443.8,301.8h5.7V301h-5.7Z" class="g5_362"/>
<path d="M455.3,297.7v.9c-.2,-.2,-.4,-.2,-.6,-.3c-.3,0,-.5,-.1,-.7,-.1c-.6,0,-1.1,.2,-1.4,.6c-.3,.4,-.5,1,-.6,1.9c.2,-.3,.4,-.5,.7,-.6c.3,-.2,.6,-.2,.9,-.2c.7,0,1.2,.2,1.6,.6c.4,.4,.6,.9,.6,1.6c0,.7,-.2,1.3,-.6,1.7c-.4,.4,-1,.6,-1.7,.6c-.7,0,-1.3,-.3,-1.7,-.9c-.5,-.6,-.7,-1.4,-.7,-2.6c0,-1,.3,-1.9,.8,-2.5c.5,-.6,1.2,-.9,2,-.9c.3,0,.5,0,.7,0c.2,.1,.5,.1,.7,.2Zm-1.8,2.9c-.4,0,-.7,.1,-.9,.4c-.3,.3,-.4,.7,-.4,1.1c0,.5,.1,.9,.4,1.2c.2,.3,.5,.4,.9,.4c.4,0,.8,-.1,1,-.4c.2,-.3,.4,-.7,.4,-1.2c0,-.4,-.2,-.8,-.4,-1.1c-.2,-.3,-.6,-.4,-1,-.4Z" class="g5_362"/>
<path d="M459.3,297.5c.7,0,1.3,.3,1.7,.9c.4,.5,.6,1.4,.6,2.5c0,1.2,-.2,2,-.6,2.6c-.4,.6,-1,.9,-1.7,.9c-.8,0,-1.3,-.3,-1.7,-.9c-.4,-.6,-.6,-1.4,-.6,-2.6c0,-1.1,.2,-2,.6,-2.5c.4,-.6,.9,-.9,1.7,-.9Zm0,.7c-.5,0,-.8,.2,-1.1,.7c-.2,.4,-.3,1.1,-.3,2c0,1,.1,1.7,.3,2.1c.3,.5,.6,.7,1.1,.7c.5,0,.8,-.2,1,-.7c.3,-.4,.4,-1.1,.4,-2.1c0,-.9,-.1,-1.6,-.4,-2c-.2,-.5,-.5,-.7,-1,-.7Z" class="g5_362"/>
<path d="M465.2,297.5c.7,0,1.3,.3,1.7,.9c.4,.5,.6,1.4,.6,2.5c0,1.2,-.2,2,-.6,2.6c-.4,.6,-1,.9,-1.7,.9c-.8,0,-1.4,-.3,-1.8,-.9c-.4,-.6,-.6,-1.4,-.6,-2.6c0,-1.1,.2,-2,.6,-2.5c.4,-.6,1,-.9,1.8,-.9Zm0,.7c-.5,0,-.9,.2,-1.1,.7c-.2,.4,-.4,1.1,-.4,2c0,1,.2,1.7,.4,2.1c.2,.5,.6,.7,1.1,.7c.4,0,.8,-.2,1,-.7c.2,-.4,.4,-1.1,.4,-2.1c0,-.9,-.2,-1.6,-.4,-2c-.2,-.5,-.6,-.7,-1,-.7Z" class="g5_362"/>
<path d="M471,297.5c.8,0,1.3,.3,1.7,.9c.4,.5,.6,1.4,.6,2.5c0,1.2,-.2,2,-.6,2.6c-.4,.6,-.9,.9,-1.7,.9c-.7,0,-1.3,-.3,-1.7,-.9c-.4,-.6,-.6,-1.4,-.6,-2.6c0,-1.1,.2,-2,.6,-2.5c.4,-.6,1,-.9,1.7,-.9Zm0,.7c-.5,0,-.8,.2,-1,.7c-.3,.4,-.4,1.1,-.4,2c0,1,.1,1.7,.4,2.1c.2,.5,.5,.7,1,.7c.5,0,.8,-.2,1.1,-.7c.2,-.4,.3,-1.1,.3,-2.1c0,-.9,-.1,-1.6,-.3,-2c-.3,-.5,-.6,-.7,-1.1,-.7Z" class="g5_362"/>
<path d="M436.3,270.5h3.2v-.7h-3.2Z" class="g5_362"/>
<path d="M443.8,271.1h5.7v-.7h-5.7Z" class="g5_362"/>
<path d="M453.7,266.9h1.2v4.4h.9v.8h-.9v1.5H454v-1.5h-3.1v-.9l2.8,-4.3Zm.3,.8l-2.3,3.6H454v-3.6Z" class="g5_362"/>
<path d="M459.3,266.8c.7,0,1.3,.3,1.7,.9c.4,.6,.6,1.5,.6,2.6c0,1.1,-.2,2,-.6,2.6c-.4,.6,-1,.9,-1.7,.9c-.8,0,-1.3,-.3,-1.7,-.9c-.4,-.6,-.6,-1.5,-.6,-2.6c0,-1.1,.2,-2,.6,-2.6c.4,-.6,.9,-.9,1.7,-.9Zm0,.7c-.5,0,-.8,.3,-1.1,.7c-.2,.5,-.3,1.2,-.3,2.1c0,.9,.1,1.6,.3,2.1c.3,.4,.6,.7,1.1,.7c.5,0,.8,-.3,1,-.7c.3,-.5,.4,-1.2,.4,-2.1c0,-.9,-.1,-1.6,-.4,-2.1c-.2,-.4,-.5,-.7,-1,-.7Z" class="g5_362"/>
<path d="M465.2,266.8c.7,0,1.3,.3,1.7,.9c.4,.6,.6,1.5,.6,2.6c0,1.1,-.2,2,-.6,2.6c-.4,.6,-1,.9,-1.7,.9c-.8,0,-1.4,-.3,-1.8,-.9c-.4,-.6,-.6,-1.5,-.6,-2.6c0,-1.1,.2,-2,.6,-2.6c.4,-.6,1,-.9,1.8,-.9Zm0,.7c-.5,0,-.9,.3,-1.1,.7c-.2,.5,-.4,1.2,-.4,2.1c0,.9,.2,1.6,.4,2.1c.2,.4,.6,.7,1.1,.7c.4,0,.8,-.3,1,-.7c.2,-.5,.4,-1.2,.4,-2.1c0,-.9,-.2,-1.6,-.4,-2.1c-.2,-.4,-.6,-.7,-1,-.7Z" class="g5_362"/>
<path d="M471,266.8c.8,0,1.3,.3,1.7,.9c.4,.6,.6,1.5,.6,2.6c0,1.1,-.2,2,-.6,2.6c-.4,.6,-.9,.9,-1.7,.9c-.7,0,-1.3,-.3,-1.7,-.9c-.4,-.6,-.6,-1.5,-.6,-2.6c0,-1.1,.2,-2,.6,-2.6c.4,-.6,1,-.9,1.7,-.9Zm0,.7c-.5,0,-.8,.3,-1,.7c-.3,.5,-.4,1.2,-.4,2.1c0,.9,.1,1.6,.4,2.1c.2,.4,.5,.7,1,.7c.5,0,.8,-.3,1.1,-.7c.2,-.5,.3,-1.2,.3,-2.1c0,-.9,-.1,-1.6,-.3,-2.1c-.3,-.4,-.6,-.7,-1.1,-.7Z" class="g5_362"/>
<path d="M436.3,239.9h3.2v-.8h-3.2Z" class="g5_362"/>
<path d="M443.8,240.5h5.7v-.8h-5.7Z" class="g5_362"/>
<path d="M452.3,242.2h3.1v.8h-4.2v-.8c.3,-.3,.8,-.8,1.4,-1.4c.6,-.6,1,-1,1.1,-1.2c.3,-.3,.5,-.6,.6,-.8c.1,-.2,.2,-.5,.2,-.7c0,-.3,-.1,-.6,-.4,-.8c-.2,-.3,-.6,-.4,-1,-.4c-.3,0,-.6,.1,-.9,.2c-.3,.1,-.6,.2,-1,.4v-.9c.4,-.1,.7,-.3,1,-.3c.4,-.1,.7,-.1,.9,-.1c.7,0,1.3,.1,1.7,.5c.4,.3,.6,.8,.6,1.4c0,.2,-.1,.5,-.2,.8c-.1,.2,-.2,.5,-.5,.8c-.1,.1,-.3,.4,-.7,.8c-.4,.4,-1,1,-1.7,1.7Z" class="g5_362"/>
<path d="M459.3,236.2c.7,0,1.3,.3,1.7,.8c.4,.6,.6,1.5,.6,2.6c0,1.2,-.2,2,-.6,2.6c-.4,.6,-1,.9,-1.7,.9c-.8,0,-1.3,-.3,-1.7,-.9c-.4,-.6,-.6,-1.4,-.6,-2.6c0,-1.1,.2,-2,.6,-2.6c.4,-.5,.9,-.8,1.7,-.8Zm0,.7c-.5,0,-.8,.2,-1.1,.7c-.2,.4,-.3,1.1,-.3,2c0,1,.1,1.7,.3,2.1c.3,.5,.6,.7,1.1,.7c.5,0,.8,-.2,1,-.7c.3,-.4,.4,-1.1,.4,-2.1c0,-.9,-.1,-1.6,-.4,-2c-.2,-.5,-.5,-.7,-1,-.7Z" class="g5_362"/>
<path d="M465.2,236.2c.7,0,1.3,.3,1.7,.8c.4,.6,.6,1.5,.6,2.6c0,1.2,-.2,2,-.6,2.6c-.4,.6,-1,.9,-1.7,.9c-.8,0,-1.4,-.3,-1.8,-.9c-.4,-.6,-.6,-1.4,-.6,-2.6c0,-1.1,.2,-2,.6,-2.6c.4,-.5,1,-.8,1.8,-.8Zm0,.7c-.5,0,-.9,.2,-1.1,.7c-.2,.4,-.4,1.1,-.4,2c0,1,.2,1.7,.4,2.1c.2,.5,.6,.7,1.1,.7c.4,0,.8,-.2,1,-.7c.2,-.4,.4,-1.1,.4,-2.1c0,-.9,-.2,-1.6,-.4,-2c-.2,-.5,-.6,-.7,-1,-.7Z" class="g5_362"/>
<path d="M471,236.2c.8,0,1.3,.3,1.7,.8c.4,.6,.6,1.5,.6,2.6c0,1.2,-.2,2,-.6,2.6c-.4,.6,-.9,.9,-1.7,.9c-.7,0,-1.3,-.3,-1.7,-.9c-.4,-.6,-.6,-1.4,-.6,-2.6c0,-1.1,.2,-2,.6,-2.6c.4,-.5,1,-.8,1.7,-.8Zm0,.7c-.5,0,-.8,.2,-1,.7c-.3,.4,-.4,1.1,-.4,2c0,1,.1,1.7,.4,2.1c.2,.5,.5,.7,1,.7c.5,0,.8,-.2,1.1,-.7c.2,-.4,.3,-1.1,.3,-2.1c0,-.9,-.1,-1.6,-.3,-2c-.3,-.5,-.6,-.7,-1.1,-.7Z" class="g5_362"/>
<path d="M436.3,209.2h3.2v-.7h-3.2Z" class="g5_362"/>
<path d="M445.7,205.5c.8,0,1.3,.3,1.7,.9c.4,.6,.6,1.5,.6,2.6c0,1.1,-.2,2,-.6,2.6c-.4,.6,-.9,.9,-1.7,.9c-.8,0,-1.3,-.3,-1.7,-.9c-.4,-.6,-.6,-1.5,-.6,-2.6c0,-1.1,.2,-2,.6,-2.6c.4,-.6,.9,-.9,1.7,-.9Zm0,.7c-.5,0,-.8,.3,-1.1,.7c-.2,.5,-.3,1.2,-.3,2.1c0,.9,.1,1.6,.3,2.1c.3,.4,.6,.7,1.1,.7c.5,0,.8,-.3,1.1,-.7c.2,-.5,.3,-1.2,.3,-2.1c0,-.9,-.1,-1.6,-.3,-2.1c-.3,-.4,-.6,-.7,-1.1,-.7Z" class="g5_362"/>
<path d="M436.3,178.6h3.2v-.8h-3.2Z" class="g5_362"/>
<path d="M444.5,180.9h3.2v.8h-4.3v-.8c.4,-.3,.9,-.8,1.5,-1.4c.6,-.6,.9,-1,1.1,-1.2c.3,-.3,.5,-.6,.6,-.8c.1,-.2,.2,-.5,.2,-.7c0,-.3,-.2,-.6,-.4,-.9c-.3,-.2,-.6,-.3,-1,-.3c-.3,0,-.6,.1,-.9,.2c-.3,.1,-.6,.2,-1,.4v-.9c.4,-.2,.7,-.3,1,-.3c.3,-.1,.6,-.2,.9,-.2c.7,0,1.2,.2,1.7,.6c.4,.3,.6,.8,.6,1.4c0,.2,-.1,.5,-.2,.7c-.1,.3,-.3,.6,-.5,.9c-.1,.1,-.4,.4,-.8,.8c-.4,.4,-.9,1,-1.7,1.7Z" class="g5_362"/>
<path d="M451.6,174.8c.7,0,1.3,.3,1.7,.9c.4,.6,.6,1.5,.6,2.6c0,1.2,-.2,2,-.6,2.6c-.4,.6,-1,.9,-1.7,.9c-.8,0,-1.4,-.3,-1.8,-.9c-.4,-.6,-.6,-1.4,-.6,-2.6c0,-1.1,.2,-2,.6,-2.6c.4,-.6,1,-.9,1.8,-.9Zm0,.8c-.5,0,-.9,.2,-1.1,.7c-.2,.4,-.3,1.1,-.3,2c0,1,.1,1.6,.3,2.1c.2,.5,.6,.7,1.1,.7c.4,0,.8,-.2,1,-.7c.3,-.5,.4,-1.1,.4,-2.1c0,-.9,-.1,-1.6,-.4,-2c-.2,-.5,-.6,-.7,-1,-.7Z" class="g5_362"/>
<path d="M457.4,174.8c.8,0,1.4,.3,1.8,.9c.4,.6,.5,1.5,.5,2.6c0,1.2,-.1,2,-.5,2.6c-.4,.6,-1,.9,-1.8,.9c-.7,0,-1.3,-.3,-1.7,-.9c-.4,-.6,-.6,-1.4,-.6,-2.6c0,-1.1,.2,-2,.6,-2.6c.4,-.6,1,-.9,1.7,-.9Zm0,.8c-.4,0,-.8,.2,-1,.7c-.3,.4,-.4,1.1,-.4,2c0,1,.1,1.6,.4,2.1c.2,.5,.6,.7,1,.7c.5,0,.9,-.2,1.1,-.7c.2,-.5,.3,-1.1,.3,-2.1c0,-.9,-.1,-1.6,-.3,-2c-.2,-.5,-.6,-.7,-1.1,-.7Z" class="g5_362"/>
<path d="M463.3,174.8c.7,0,1.3,.3,1.7,.9c.4,.6,.6,1.5,.6,2.6c0,1.2,-.2,2,-.6,2.6c-.4,.6,-1,.9,-1.7,.9c-.8,0,-1.3,-.3,-1.7,-.9c-.4,-.6,-.6,-1.4,-.6,-2.6c0,-1.1,.2,-2,.6,-2.6c.4,-.6,.9,-.9,1.7,-.9Zm0,.8c-.5,0,-.8,.2,-1.1,.7c-.2,.4,-.3,1.1,-.3,2c0,1,.1,1.6,.3,2.1c.3,.5,.6,.7,1.1,.7c.5,0,.8,-.2,1.1,-.7c.2,-.5,.3,-1.1,.3,-2.1c0,-.9,-.1,-1.6,-.3,-2c-.3,-.5,-.6,-.7,-1.1,-.7Z" class="g5_362"/>
<path d="M436.3,147.9h3.2v-.7h-3.2Z" class="g5_362"/>
<path d="M446,144.3h1.2v4.4h.9v.7h-.9V151h-.9v-1.6h-3.1v-.8l2.8,-4.3Zm.3,.8l-2.3,3.6h2.3v-3.6Z" class="g5_362"/>
<path d="M451.6,144.2c.7,0,1.3,.3,1.7,.9c.4,.6,.6,1.4,.6,2.6c0,1.1,-.2,2,-.6,2.6c-.4,.6,-1,.9,-1.7,.9c-.8,0,-1.4,-.3,-1.8,-.9c-.4,-.6,-.6,-1.5,-.6,-2.6c0,-1.2,.2,-2,.6,-2.6c.4,-.6,1,-.9,1.8,-.9Zm0,.7c-.5,0,-.9,.2,-1.1,.7c-.2,.5,-.3,1.2,-.3,2.1c0,.9,.1,1.6,.3,2.1c.2,.4,.6,.6,1.1,.6c.4,0,.8,-.2,1,-.6c.3,-.5,.4,-1.2,.4,-2.1c0,-.9,-.1,-1.6,-.4,-2.1c-.2,-.5,-.6,-.7,-1,-.7Z" class="g5_362"/>
<path d="M457.4,144.2c.8,0,1.4,.3,1.8,.9c.4,.6,.5,1.4,.5,2.6c0,1.1,-.1,2,-.5,2.6c-.4,.6,-1,.9,-1.8,.9c-.7,0,-1.3,-.3,-1.7,-.9c-.4,-.6,-.6,-1.5,-.6,-2.6c0,-1.2,.2,-2,.6,-2.6c.4,-.6,1,-.9,1.7,-.9Zm0,.7c-.4,0,-.8,.2,-1,.7c-.3,.5,-.4,1.2,-.4,2.1c0,.9,.1,1.6,.4,2.1c.2,.4,.6,.6,1,.6c.5,0,.9,-.2,1.1,-.6c.2,-.5,.3,-1.2,.3,-2.1c0,-.9,-.1,-1.6,-.3,-2.1c-.2,-.5,-.6,-.7,-1.1,-.7Z" class="g5_362"/>
<path d="M463.3,144.2c.7,0,1.3,.3,1.7,.9c.4,.6,.6,1.4,.6,2.6c0,1.1,-.2,2,-.6,2.6c-.4,.6,-1,.9,-1.7,.9c-.8,0,-1.3,-.3,-1.7,-.9c-.4,-.6,-.6,-1.5,-.6,-2.6c0,-1.2,.2,-2,.6,-2.6c.4,-.6,.9,-.9,1.7,-.9Zm0,.7c-.5,0,-.8,.2,-1.1,.7c-.2,.5,-.3,1.2,-.3,2.1c0,.9,.1,1.6,.3,2.1c.3,.4,.6,.6,1.1,.6c.5,0,.8,-.2,1.1,-.6c.2,-.5,.3,-1.2,.3,-2.1c0,-.9,-.1,-1.6,-.3,-2.1c-.3,-.5,-.6,-.7,-1.1,-.7Z" class="g5_362"/>
<path d="M436.3,117.3h3.2v-.8h-3.2Z" class="g5_362"/>
<path d="M447.6,113.8v.8c-.2,-.1,-.4,-.2,-.7,-.2c-.2,-.1,-.4,-.1,-.7,-.1c-.6,0,-1,.2,-1.3,.6c-.4,.4,-.5,1,-.6,1.8c.2,-.2,.4,-.4,.7,-.6c.3,-.1,.5,-.2,.9,-.2c.6,0,1.2,.2,1.6,.7c.4,.4,.6,.9,.6,1.6c0,.7,-.2,1.3,-.7,1.7c-.4,.4,-.9,.6,-1.6,.6c-.8,0,-1.4,-.3,-1.8,-.9c-.4,-.6,-.6,-1.4,-.6,-2.6c0,-1,.3,-1.9,.8,-2.5c.5,-.6,1.2,-1,2,-1c.2,0,.5,.1,.7,.1c.2,.1,.5,.1,.7,.2Zm-1.8,2.9c-.4,0,-.7,.1,-1,.4c-.2,.3,-.3,.6,-.3,1.1c0,.5,.1,.9,.3,1.2c.3,.3,.6,.4,1,.4c.4,0,.7,-.1,1,-.4c.2,-.3,.3,-.7,.3,-1.2c0,-.5,-.1,-.8,-.3,-1.1c-.3,-.3,-.6,-.4,-1,-.4Z" class="g5_362"/>
<path d="M451.6,113.5c.7,0,1.3,.3,1.7,.9c.4,.6,.6,1.5,.6,2.6c0,1.2,-.2,2,-.6,2.6c-.4,.6,-1,.9,-1.7,.9c-.8,0,-1.4,-.3,-1.8,-.9c-.4,-.6,-.6,-1.4,-.6,-2.6c0,-1.1,.2,-2,.6,-2.6c.4,-.6,1,-.9,1.8,-.9Zm0,.8c-.5,0,-.9,.2,-1.1,.7c-.2,.4,-.3,1.1,-.3,2c0,.9,.1,1.6,.3,2.1c.2,.5,.6,.7,1.1,.7c.4,0,.8,-.2,1,-.7c.3,-.5,.4,-1.2,.4,-2.1c0,-.9,-.1,-1.6,-.4,-2c-.2,-.5,-.6,-.7,-1,-.7Z" class="g5_362"/>
<path d="M457.4,113.5c.8,0,1.4,.3,1.8,.9c.4,.6,.5,1.5,.5,2.6c0,1.2,-.1,2,-.5,2.6c-.4,.6,-1,.9,-1.8,.9c-.7,0,-1.3,-.3,-1.7,-.9c-.4,-.6,-.6,-1.4,-.6,-2.6c0,-1.1,.2,-2,.6,-2.6c.4,-.6,1,-.9,1.7,-.9Zm0,.8c-.4,0,-.8,.2,-1,.7c-.3,.4,-.4,1.1,-.4,2c0,.9,.1,1.6,.4,2.1c.2,.5,.6,.7,1,.7c.5,0,.9,-.2,1.1,-.7c.2,-.5,.3,-1.2,.3,-2.1c0,-.9,-.1,-1.6,-.3,-2c-.2,-.5,-.6,-.7,-1.1,-.7Z" class="g5_362"/>
<path d="M463.3,113.5c.7,0,1.3,.3,1.7,.9c.4,.6,.6,1.5,.6,2.6c0,1.2,-.2,2,-.6,2.6c-.4,.6,-1,.9,-1.7,.9c-.8,0,-1.3,-.3,-1.7,-.9c-.4,-.6,-.6,-1.4,-.6,-2.6c0,-1.1,.2,-2,.6,-2.6c.4,-.6,.9,-.9,1.7,-.9Zm0,.8c-.5,0,-.8,.2,-1.1,.7c-.2,.4,-.3,1.1,-.3,2c0,.9,.1,1.6,.3,2.1c.3,.5,.6,.7,1.1,.7c.5,0,.8,-.2,1.1,-.7c.2,-.5,.3,-1.2,.3,-2.1c0,-.9,-.1,-1.6,-.3,-2c-.3,-.5,-.6,-.7,-1.1,-.7Z" class="g5_362"/>
<path d="M436.3,86.6h3.2v-.8h-3.2Z" class="g5_362"/>
<path d="M444.5,84.7c0,.4,.1,.6,.3,.8c.2,.2,.5,.3,.9,.3c.4,0,.7,-.1,.9,-.3c.2,-.2,.3,-.4,.3,-.8c0,-.3,-.1,-.6,-.3,-.8c-.2,-.2,-.5,-.3,-.9,-.3c-.4,0,-.7,.1,-.9,.3c-.2,.2,-.3,.5,-.3,.8Zm.3,1.4c-.4,0,-.7,-.2,-.9,-.5c-.2,-.3,-.3,-.6,-.3,-1c0,-.5,.1,-.9,.5,-1.2c.4,-.4,.9,-.5,1.6,-.5c.7,0,1.2,.1,1.6,.5c.4,.3,.5,.7,.5,1.2c0,.4,-.1,.7,-.3,1c-.2,.3,-.5,.5,-.9,.5c.5,.2,.8,.4,1,.6c.3,.3,.4,.7,.4,1.1c0,.7,-.2,1.2,-.6,1.5c-.4,.4,-1,.6,-1.7,.6c-.7,0,-1.3,-.2,-1.7,-.6c-.4,-.3,-.6,-.8,-.6,-1.5c0,-.4,.1,-.8,.4,-1.1c.2,-.2,.6,-.4,1,-.6Zm.9,.4c-.4,0,-.8,.2,-1,.4c-.3,.2,-.4,.5,-.4,.9c0,.4,.1,.8,.4,1c.2,.2,.6,.3,1,.3c.4,0,.8,-.1,1,-.3c.3,-.2,.4,-.6,.4,-1c0,-.4,-.1,-.7,-.4,-.9c-.2,-.2,-.6,-.4,-1,-.4Z" class="g5_362"/>
<path d="M451.6,82.9c.7,0,1.3,.3,1.7,.9c.4,.6,.6,1.4,.6,2.6c0,1.1,-.2,2,-.6,2.6c-.4,.6,-1,.9,-1.7,.9c-.8,0,-1.4,-.3,-1.8,-.9c-.4,-.6,-.6,-1.5,-.6,-2.6c0,-1.2,.2,-2,.6,-2.6c.4,-.6,1,-.9,1.8,-.9Zm0,.7c-.5,0,-.9,.2,-1.1,.7c-.2,.5,-.3,1.1,-.3,2.1c0,.9,.1,1.6,.3,2c.2,.5,.6,.7,1.1,.7c.4,0,.8,-.2,1,-.7c.3,-.4,.4,-1.1,.4,-2c0,-1,-.1,-1.6,-.4,-2.1c-.2,-.5,-.6,-.7,-1,-.7Z" class="g5_362"/>
<path d="M457.4,82.9c.8,0,1.4,.3,1.8,.9c.4,.6,.5,1.4,.5,2.6c0,1.1,-.1,2,-.5,2.6c-.4,.6,-1,.9,-1.8,.9c-.7,0,-1.3,-.3,-1.7,-.9c-.4,-.6,-.6,-1.5,-.6,-2.6c0,-1.2,.2,-2,.6,-2.6c.4,-.6,1,-.9,1.7,-.9Zm0,.7c-.4,0,-.8,.2,-1,.7c-.3,.5,-.4,1.1,-.4,2.1c0,.9,.1,1.6,.4,2c.2,.5,.6,.7,1,.7c.5,0,.9,-.2,1.1,-.7c.2,-.4,.3,-1.1,.3,-2c0,-1,-.1,-1.6,-.3,-2.1c-.2,-.5,-.6,-.7,-1.1,-.7Z" class="g5_362"/>
<path d="M463.3,82.9c.7,0,1.3,.3,1.7,.9c.4,.6,.6,1.4,.6,2.6c0,1.1,-.2,2,-.6,2.6c-.4,.6,-1,.9,-1.7,.9c-.8,0,-1.3,-.3,-1.7,-.9c-.4,-.6,-.6,-1.5,-.6,-2.6c0,-1.2,.2,-2,.6,-2.6c.4,-.6,.9,-.9,1.7,-.9Zm0,.7c-.5,0,-.8,.2,-1.1,.7c-.2,.5,-.3,1.1,-.3,2.1c0,.9,.1,1.6,.3,2c.3,.5,.6,.7,1.1,.7c.5,0,.8,-.2,1.1,-.7c.2,-.4,.3,-1.1,.3,-2c0,-1,-.1,-1.6,-.3,-2.1c-.3,-.5,-.6,-.7,-1.1,-.7Z" class="g5_362"/>
<path d="M424.1,331.5v.3h12.6V85.8h-13v246h.4v-.3h.3V86.6h11.5V331.1H424.1v.4h.3h-.3Z" class="g5_362"/>
<image clip-path="url(#c0_362)" preserveAspectRatio="none" x="393" y="86" width="43" height="31" xlink:href="img/1.jpg"/>
<image clip-path="url(#c1_362)" preserveAspectRatio="none" x="394" y="315" width="14" height="16" xlink:href="img/2.jpg"/>
<path d="M546.3,504.5h.4V461.6h-.4Z" class="ga_362"/>
<path d="M102.6,513.2h.3V411.8h-.3Z" class="ga_362"/>
<path d="M120.3,513.2V510l.2,.1l6.4,3l.3,.1l-.3,.2l-6.4,3l-.2,.1v-.3l.1,-.2l6.3,-2.9l.2,.3h-.2l-6.3,-2.9l.1,-.4l.1,.2v2.9Z" class="ga_362"/>
<path d="M120.3,516.2h.3v-3h-.3Z" class="ga_362"/>
<path d="M120.3,513.4h.1v-.3h-.1Z" class="ga_362"/>
<path d="M102.6,513.4h17.7v-.3H102.6Z" class="ga_362"/>
<path d="M471.6,570.3h.4V543.9h-.4Z" class="ga_362"/>
<path d="M447.4,543.9v3.2l-.3,-.1l-6.3,-3l-.3,-.1l.3,-.2l6.3,-3h.3v.2l-.1,.2L441,544l-.2,-.3h.2l6.3,2.9l-.2,.4v-3.1Z" class="ga_362"/>
<path d="M447.1,543.9h.3v-3h-.3Z" class="ga_362"/>
<path d="M447.2,544h.2v-.3h-.2Z" class="ga_362"/>
<path d="M447.4,544H472v-.3H447.4Z" class="ga_362"/>
<path d="M380,631.7h.3v-42H380Z" class="ga_362"/>
<path d="M308,589.7v3.2l-.3,-.1l-6.3,-2.9l-.4,-.2l.4,-.2l6.3,-2.9l.3,-.1v.3l-.1,.1l-6.3,3l-.2,-.4h.2l6.3,2.9l-.2,.4l-.1,-.2v-2.9Z" class="ga_362"/>
<path d="M307.6,589.7h.4v-2.9h-.4Z" class="ga_362"/>
<path d="M307.8,589.9h.2v-.4h-.2Z" class="ga_362"/>
<path d="M308,589.9h72.3v-.4H308Z" class="ga_362"/>
<path d="M109.2,713.4h.3v-32h-.3Z" class="ga_362"/>
<path d="M125.1,681.4v-3.2h.3l6.2,3l.4,.2l-.4,.1l-6.2,3l-.3,.1v-.3l.1,-.2l6.3,-2.9l.1,.3h-.1l-6.3,-2.9l.2,-.4l.1,.2v3Z" class="ga_362"/>
<path d="M125.1,684.3h.4v-2.9h-.4Z" class="ga_362"/>
<path d="M125.1,681.5h.2v-.3h-.2Z" class="ga_362"/>
<path d="M109.2,681.5h15.9v-.3H109.2Z" class="ga_362"/>
</svg>