<?xml version="1.0" encoding="UTF-8" standalone="no"?>
<!DOCTYPE svg PUBLIC "-//W3C//DTD SVG 1.1//EN"
"http://www.w3.org/Graphics/SVG/1.1/DTD/svg11.dtd">
<svg viewBox="0 0 811 1017" version="1.1" xmlns="http://www.w3.org/2000/svg" xmlns:xlink="http://www.w3.org/1999/xlink">
<defs>
<style type="text/css"><![CDATA[
.g0_236{
fill: #70A6CC;
}
.g1_236{
fill: #000;
}
.g2_236{
fill: #0E0E0E;
}
]]></style>
</defs>
<path d="M142.4,103.7H710.7V82.5H142.4Z" class="g0_236"/>
<path d="M424.7,164.2h.4v-26h-.4Z" class="g1_236"/>
<path d="M407.4,164.2v3.2l-.3,-.1l-6.3,-2.9l-.4,-.2l.4,-.2l6.3,-2.9l.3,-.1v.2l-.1,.2l-6.3,3l-.2,-.4h.2l6.3,2.9l-.2,.4l-.1,-.2v-2.9Z" class="g1_236"/>
<path d="M407,164.2h.4v-3H407Z" class="g1_236"/>
<path d="M407.2,164.4h.2V164h-.2Z" class="g1_236"/>
<path d="M407.4,164.4h17.7V164H407.4Z" class="g1_236"/>
<path d="M410.1,223.7h.4V194.8h-.4Z" class="g1_236"/>
<path d="M389.6,194.8V198l-.3,-.1L383.1,195l-.4,-.2l.4,-.2l6.2,-2.9l.3,-.1v.3l-.1,.1l-6.2,3l-.2,-.4h.2l6.2,2.9l-.2,.4l-.1,-.2v-2.9Z" class="g1_236"/>
<path d="M389.2,194.8h.4v-2.9h-.4Z" class="g1_236"/>
<path d="M389.4,195h.2v-.4h-.2Z" class="g1_236"/>
<path d="M389.6,195h20.9v-.4H389.6Z" class="g1_236"/>
<path d="M385.1,282.7h.4V240.6h-.4Z" class="g1_236"/>
<path d="M346,240.6v3.2l-.3,-.1l-6.4,-2.9l-.3,-.2l.3,-.2l6.4,-2.9l.3,-.1v.3l-.1,.2l-6.4,2.9l-.2,-.4h.2l6.4,3l-.2,.3l-.1,-.1v-3Z" class="g1_236"/>
<path d="M345.6,240.6h.4v-2.9h-.4Z" class="g1_236"/>
<path d="M345.8,240.8h.2v-.4h-.2Z" class="g1_236"/>
<path d="M346,240.8h39.5v-.4H346Z" class="g1_236"/>
<path d="M416.9,820.9v-.4h-1.3c-.3,0,-.6,-.2,-.6,-.6V804.1c0,-.4,.3,-.7,.6,-.7h1.3v-.3h-3.1v17.8h3.1Z" class="g2_236"/>
<path d="M421.9,815.8c-1.9,0,-1.9,-2.7,-1.9,-4.9c0,-2.2,0,-5.2,1.9,-5.2c2,0,2,3,2,5.2c0,2.2,-.1,4.9,-2,4.9Zm0,-10.3c-2.6,0,-3.3,2.7,-3.3,5.3c0,2.7,.8,5.3,3.3,5.3c2.6,0,3.4,-2.6,3.4,-5.3c0,-2.6,-.8,-5.3,-3.4,-5.3Z" class="g2_236"/>
<path d="M428.4,816.1c.5,0,.9,-.4,.9,-.9c0,-.5,-.4,-.9,-.9,-.9c-.5,0,-.9,.4,-.9,.9c0,.4,.4,.9,.9,.9Z" class="g2_236"/>
<path d="M433.1,816.1c.5,0,.9,-.4,.9,-.9c0,-.5,-.4,-.9,-.9,-.9c-.5,0,-.9,.4,-.9,.9c0,.4,.4,.9,.9,.9Z" class="g2_236"/>
<path d="M443.3,805.3h-3.7c-1,0,-1.6,1.2,-1.7,1.4h.2c0,-.1,.4,-.6,1,-.6h.5l-.7,2.3c-.3,.7,-1.2,.7,-1.2,1.4v.1c0,.2,.2,.3,.4,.3c.5,0,.8,-.3,1.4,-1.8l.8,-2.3h1.1l-.6,2.3c0,.3,-.1,.6,-.1,.8v.1c0,.5,.3,.9,.9,.9c.2,0,.5,-.1,.5,-.5c0,-.6,-.6,-.6,-.6,-1.2c0,0,0,-.1,0,-.3l.5,-2.1h1.2l.1,-.8Z" class="g2_236"/>
<path d="M437.2,812.5h7v-.8h-7Z" class="g2_236"/>
<path d="M440.3,816.4c-.7,0,-1.1,-.5,-1.1,-1.1c0,-.8,.4,-1.7,1.3,-1.7c1.2,0,1.4,1,1.4,1.9c0,1,-.3,1.5,-.8,2.2c-.2,.4,-.6,.8,-1.1,1.3c-.5,.5,-1.1,1.1,-1.8,1.7v.4h4.5l.4,-2.1h-.3c-.1,.2,-.2,.4,-.2,.5c-.2,.4,-.5,.6,-1,.6h-2.2c.5,-.4,1,-.8,1.4,-1.1c.8,-.6,1.5,-1.4,2,-2.3c.1,-.3,.2,-.7,.2,-1.1c0,-.4,0,-.6,-.1,-.9c-.4,-.8,-1.1,-1.3,-2.2,-1.3c-.7,0,-1.3,.3,-1.7,.6c-.4,.3,-.7,.8,-.7,1.5c0,.4,.1,.8,.3,1c.2,.3,.5,.4,.9,.4c.4,0,.7,-.2,.8,-.5Z" class="g2_236"/>
<path d="M449.9,820.9V803.1h-3.1v.3h1.3c.4,0,.7,.3,.7,.7v15.8c0,.4,-.3,.6,-.7,.6h-1.3v.4h3.1Z" class="g2_236"/>
<path d="M473.5,813h7.6v-.9h-7.6Z" class="g2_236"/>
<path d="M488.4,816.2c-1.3,0,-1.9,-1.6,-1.9,-3.1c0,-1.5,.6,-2.9,1.8,-2.9c.8,0,.8,.4,1,.8c.2,.3,.4,.5,.7,.5c.4,0,.6,-.2,.6,-.5c0,-.4,-.3,-.7,-.6,-.8c-.4,-.2,-.9,-.3,-1.5,-.3c-1,0,-1.9,.3,-2.4,.9c-.6,.5,-.9,1.4,-.9,2.4c0,.5,.1,1,.2,1.4c.4,1.1,1.2,1.9,2.7,1.9c1.3,0,2,-.5,2.6,-1.1l-.2,-.2c-.4,.5,-1.2,1,-2.1,1Z" class="g2_236"/>
<path d="M494.9,810.2c1.4,0,2.1,1.6,2,3c0,1.7,-.8,3,-2,3c-1.6,0,-1.9,-1.6,-1.9,-3c0,-1.4,.6,-3,1.9,-3Zm0,-.3c-.4,0,-.8,.1,-1.3,.2c-1.1,.5,-2,1.5,-2,3.1c0,.5,.1,.9,.3,1.3c.5,1.1,1.2,2,3,2c1.1,0,1.9,-.4,2.4,-.9c.5,-.6,1,-1.4,1,-2.4c0,-.5,-.1,-.9,-.3,-1.3c-.5,-1.1,-1.5,-2,-3.1,-2Z" class="g2_236"/>
<path d="M501.6,810.2c.8,0,1.2,.8,1.5,1.6h.2V810h-.2l-.3,.3c-.2,-.1,-.4,-.2,-.6,-.3c-.3,-.1,-.5,-.1,-.7,-.1c-.6,0,-1,.2,-1.3,.5c-.3,.3,-.5,.8,-.5,1.4c0,.7,.5,1.1,.9,1.4c.6,.5,2.1,1.1,2.1,1.9c0,.6,-.3,1.1,-1,1.1c-.9,0,-1.5,-.8,-1.8,-1.9h-.2v2.1h.2l.2,-.4c.5,.3,1.1,.5,1.7,.5c.6,0,1.1,-.2,1.4,-.5c.4,-.3,.6,-.8,.6,-1.3c0,-1,-1.1,-1.6,-1.9,-2.1c-.5,-.4,-1.2,-.6,-1.2,-1.4c0,-.5,.3,-1,.9,-1Z" class="g2_236"/>
<path d="M512,805.7c-2.2,1.4,-3.7,3.8,-3.7,6.8c0,2.8,1.6,5.6,3.6,6.9l.2,-.3c-2,-1.5,-2.5,-3.3,-2.5,-6.6c0,-3.3,.6,-5,2.5,-6.6l-.1,-.2Z" class="g2_236"/>
<path d="M521.1,805.7h-3.8c-1,0,-1.5,1.2,-1.6,1.4h.1c0,0,.4,-.6,1,-.6h.6l-.8,2.3c-.2,.7,-1.1,.8,-1.1,1.5c0,.2,.1,.3,.4,.3c.4,0,.8,-.2,1.3,-1.8l.8,-2.3h1.1l-.5,2.4c-.1,.3,-.2,.5,-.2,.8v.1c0,.4,.4,.8,.9,.8c.2,0,.5,0,.5,-.4c0,-.7,-.6,-.6,-.6,-1.2c0,-.1,0,-.2,0,-.3l.6,-2.2h1.1l.2,-.8Z" class="g2_236"/>
<path d="M514.9,813h7v-.9h-7Z" class="g2_236"/>
<path d="M518,816.9c-.7,0,-1.1,-.5,-1.1,-1.2c0,-.8,.5,-1.6,1.4,-1.6c1.2,0,1.3,1,1.3,1.9c0,.9,-.3,1.5,-.7,2.1c-.3,.4,-.7,.9,-1.2,1.4c-.4,.5,-1,1,-1.8,1.7v.3h4.6l.3,-2.1h-.3c0,.3,-.1,.5,-.2,.6c-.2,.4,-.5,.6,-1,.6h-2.1v-.1c.5,-.3,.9,-.7,1.4,-1c.7,-.7,1.5,-1.4,1.9,-2.3c.2,-.4,.3,-.8,.3,-1.2c0,-.3,-.1,-.6,-.2,-.8c-.4,-.8,-1.1,-1.3,-2.2,-1.3c-.7,0,-1.3,.2,-1.7,.6c-.4,.3,-.7,.8,-.7,1.4c0,.5,.1,.8,.4,1.1c.2,.2,.4,.4,.9,.4c.4,0,.7,-.2,.7,-.5Z" class="g2_236"/>
<path d="M524.3,805.7l-.1,.2c1.9,1.6,2.5,3.3,2.5,6.6c0,3.3,-.6,5.1,-2.5,6.6l.1,.3c2.1,-1.3,3.7,-4.1,3.7,-6.9c0,-3,-1.6,-5.4,-3.7,-6.8Z" class="g2_236"/>
<path d="M533.7,813h7.6v-.9h-7.6Z" class="g2_236"/>
<path d="M550.7,805.7c-2.2,1.4,-3.7,3.8,-3.7,6.8c0,2.8,1.6,5.6,3.6,6.9l.2,-.3c-1.9,-1.5,-2.5,-3.3,-2.5,-6.6c0,-3.3,.6,-5,2.5,-6.6l-.1,-.2Z" class="g2_236"/>
<path d="M556.1,813h7.6v-.9h-7.6Z" class="g2_236"/>
<path d="M571.8,816.2c-1.3,0,-1.9,-1.6,-1.9,-3.1c0,-1.5,.6,-2.9,1.8,-2.9c.8,0,.8,.4,1,.8c.2,.3,.4,.5,.7,.5c.4,0,.6,-.2,.6,-.5c0,-.4,-.3,-.7,-.6,-.8c-.4,-.2,-.9,-.3,-1.5,-.3c-1,0,-1.9,.3,-2.4,.9c-.6,.5,-.9,1.4,-.9,2.4c0,.5,.1,1,.2,1.4c.4,1.1,1.2,1.9,2.7,1.9c1.3,0,2,-.5,2.6,-1.1l-.2,-.2c-.4,.5,-1.2,1,-2.1,1Z" class="g2_236"/>
<path d="M578.3,810.2c1.4,0,2.1,1.6,2,3c0,1.7,-.8,3,-2,3c-1.6,0,-1.9,-1.6,-1.9,-3c0,-1.4,.6,-3,1.9,-3Zm0,-.3c-.4,0,-.8,.1,-1.3,.2c-1.1,.5,-2,1.5,-2,3.1c0,.5,.1,.9,.3,1.3c.5,1.1,1.2,2,3,2c1.2,0,1.9,-.4,2.4,-.9c.6,-.6,1,-1.4,1,-2.4c0,-.5,-.1,-.9,-.3,-1.3c-.5,-1.1,-1.5,-2,-3.1,-2Z" class="g2_236"/>
<path d="M585,810.2c.8,0,1.2,.8,1.5,1.6h.2V810h-.2l-.3,.3c-.2,-.1,-.4,-.2,-.6,-.3c-.2,-.1,-.5,-.1,-.7,-.1c-.6,0,-1,.2,-1.3,.5c-.3,.3,-.5,.8,-.5,1.4c0,.7,.5,1.1,.9,1.4c.6,.5,2.1,1.1,2.1,1.9c0,.6,-.3,1.1,-1,1.1c-.9,0,-1.5,-.8,-1.8,-1.9h-.2v2.1h.2l.2,-.4c.5,.3,1.1,.5,1.7,.5c.6,0,1.1,-.2,1.4,-.5c.4,-.3,.6,-.8,.6,-1.3c0,-1,-1.1,-1.6,-1.9,-2.1c-.5,-.4,-1.2,-.6,-1.2,-1.4c0,-.5,.3,-1,.9,-1Z" class="g2_236"/>
<path d="M592.9,805.7c-2.2,1.4,-3.7,3.8,-3.7,6.9c0,2.7,1.6,5.5,3.6,6.8l.2,-.3c-1.9,-1.5,-2.5,-3.3,-2.5,-6.6c0,-3.3,.6,-5,2.5,-6.5l-.1,-.3Z" class="g2_236"/>
<path d="M598.2,816.3c-1.9,0,-1.9,-2.8,-1.9,-5c0,-2.2,0,-5.1,1.9,-5.1c2,0,2,2.9,2,5.1c0,2.2,-.1,5,-2,5Zm0,-10.4c-2.6,0,-3.3,2.7,-3.3,5.4c0,2.6,.8,5.2,3.3,5.2c2.6,0,3.4,-2.6,3.4,-5.2c0,-2.7,-.7,-5.4,-3.4,-5.4Z" class="g2_236"/>
<path d="M603,805.7l-.1,.3c1.9,1.5,2.5,3.2,2.5,6.5c0,3.3,-.6,5.1,-2.5,6.6l.1,.3c2.1,-1.3,3.7,-4.1,3.7,-6.8c0,-3.1,-1.6,-5.5,-3.7,-6.9Z" class="g2_236"/>
<path d="M608.7,805.7l-.1,.2c1.9,1.6,2.5,3.3,2.5,6.6c0,3.3,-.6,5.1,-2.5,6.6l.2,.3c2,-1.3,3.6,-4.1,3.6,-6.9c0,-3,-1.5,-5.4,-3.7,-6.8Z" class="g2_236"/>
<path d="M618.6,814.5h7.6v-.8h-7.6Zm0,-3h7.6v-.9h-7.6Z" class="g2_236"/>
<path d="M635.1,816.3c-1.9,0,-1.9,-2.8,-1.9,-5c0,-2.2,0,-5.1,1.9,-5.1c2,0,2,2.9,2,5.1c0,2.2,-.1,5,-2,5Zm0,-10.4c-2.6,0,-3.3,2.7,-3.3,5.4c0,2.6,.8,5.2,3.3,5.2c2.6,0,3.4,-2.6,3.4,-5.2c0,-2.7,-.8,-5.4,-3.4,-5.4Z" class="g2_236"/>
<path d="M643.6,813h7.6v-.9h-7.6Z" class="g2_236"/>
<path d="M660.6,805.7c-2.2,1.4,-3.7,3.8,-3.7,6.9c0,2.7,1.6,5.5,3.6,6.8l.2,-.3c-2,-1.5,-2.5,-3.3,-2.5,-6.6c0,-3.3,.6,-5,2.5,-6.5l-.1,-.3Z" class="g2_236"/>
<path d="M662.7,813h7.6v-.9h-7.6Z" class="g2_236"/>
<path d="M673.2,806.7v.2c.4,0,1.1,.1,1.3,.2c.5,.2,.4,.4,.5,1v6.5c0,.3,0,.6,-.1,.8c-.1,.6,-.9,.7,-1.6,.8v.2H678v-.2c-.5,-.1,-1.3,-.1,-1.5,-.3c-.2,-.3,-.2,-.8,-.2,-1.4v-8.6c-.8,.4,-2.1,.7,-3.1,.8Z" class="g2_236"/>
<path d="M680.2,805.7l-.2,.3c1.9,1.5,2.6,3.2,2.6,6.5c0,3.3,-.6,5.1,-2.6,6.6l.2,.3c2.1,-1.3,3.6,-4.1,3.6,-6.8c0,-3.1,-1.5,-5.5,-3.6,-6.9Z" class="g2_236"/>
<path d="M690,814.5h7.7v-.8H690Zm0,-3h7.7v-.9H690Z" class="g2_236"/>
<path d="M704.4,806.7v.2c.4,0,1.1,.1,1.3,.2c.5,.2,.4,.4,.5,1v6.5c0,.3,-.1,.6,-.1,.8c-.1,.6,-.9,.7,-1.6,.8v.2h4.6v-.2c-.5,-.1,-1.2,-.1,-1.4,-.3c-.2,-.3,-.2,-.8,-.2,-1.4v-8.6c-.8,.4,-2.1,.7,-3.1,.8Z" class="g2_236"/>
</svg>