<?xml version="1.0" encoding="UTF-8" standalone="no"?>
<!DOCTYPE svg PUBLIC "-//W3C//DTD SVG 1.1//EN"
"http://www.w3.org/Graphics/SVG/1.1/DTD/svg11.dtd">
<svg viewBox="0 0 811 1017" version="1.1" xmlns="http://www.w3.org/2000/svg" xmlns:xlink="http://www.w3.org/1999/xlink">
<defs>
<style type="text/css"><![CDATA[
.g0_265{
fill: #E6E6E6;
}
.g1_265{
fill: #000;
}
.g2_265{
fill: #F7F5E8;
}
]]></style>
</defs>
<path d="M695.4,197.4C681.3,183.6,664,168.5,664,147.1c0,-22.6,16.9,-40.2,39.6,-40.2c23,0,36.5,16.2,36.5,38.5c0,26.8,-18.2,44.4,-41.3,55.1Zm-23.8,19.9c18.6,16.2,38.3,34.7,38.3,61.2c0,27.1,-18,50.2,-46.1,50.2c-28.2,0,-42,-19,-42,-45.7c0,-31.7,22,-54.4,49.8,-65.7Zm33.4,-11c26.5,-11.3,57.4,-27.5,57.4,-60.9c0,-30.3,-27.8,-46,-55.4,-46c-35,0,-68.6,23,-68.6,60.8c0,21.7,12,37.2,27,51.5c-30.9,13.2,-65.9,33.1,-65.9,71.6c0,35.4,29.9,52.9,62.1,52.9c40.7,0,75.7,-26.1,75.7,-68.7c0,-25.1,-15.4,-44.4,-32.3,-61.2Z" class="g0_265"/>
<path d="M275.3,330.8H724.4v-.3H275.3Z" class="g1_265"/>
<path d="M119.4,563.6h386V395.5h-386Z" class="g2_265"/>
</svg>