<?xml version="1.0" encoding="UTF-8" standalone="no"?>
<!DOCTYPE svg PUBLIC "-//W3C//DTD SVG 1.1//EN"
"http://www.w3.org/Graphics/SVG/1.1/DTD/svg11.dtd">
<svg viewBox="0 0 811 1017" version="1.1" xmlns="http://www.w3.org/2000/svg" xmlns:xlink="http://www.w3.org/1999/xlink">
<defs>
<clipPath id="c0_321"><path d="M357,159V140.7H523.5V159Z"/></clipPath>
<style type="text/css"><![CDATA[
.g0_321{
fill: #0E0E0E;
}
]]></style>
</defs>
<path d="M365.3,151.2h-3l4.1,-5c-.3,1.6,-.8,3.4,-1.1,5Zm.7,2.4l1.9,-8.5h-1.1l-6.2,7.6c-.4,.5,-.7,.9,-1,1.2c-.3,.4,-.6,.6,-.9,.8c-.2,.2,-.6,.4,-.7,.5c-.3,.2,-.5,.2,-.7,.2l-.1,.2h3.5v-.2c-.3,0,-.7,0,-.8,-.1c-.1,-.1,-.3,-.2,-.3,-.4c0,-.2,0,-.3,.1,-.5c.5,-.5,.8,-.9,1.2,-1.5l1.1,-1.4h3.2l-.5,2.2c0,.3,-.1,.7,-.2,.9c-.1,.2,-.2,.4,-.3,.5c-.1,.1,-.2,.2,-.4,.2c-.2,.1,-.4,.1,-.7,.1v.2H367l.1,-.2c-.5,0,-.8,-.1,-1,-.3c-.1,-.1,-.2,-.2,-.2,-.5c0,-.2,0,-.5,.1,-1Z" class="g0_321"/>
<path d="M373.5,153.7h7.6v-.8h-7.6Zm0,-3h7.6v-.8h-7.6Z" class="g0_321"/>
<path clip-path="url(#c0_321)" d="M397.2,141h-.8l-3.8,14.8l-2.9,-6.2l-2.9,1.5l.2,.3l1.6,-.5l3.9,8.1l4.7,-18Z" class="g0_321"/>
<path d="M396.8,141.8H523.1V141H396.8Z" class="g0_321"/>
<path d="M398.7,155.4c-.5,0,-.6,-.4,-.5,-.9c.1,-.4,-.3,-.6,-.6,-.6c-.4,0,-.6,.3,-.6,.7c0,.8,.7,1.1,1.6,1.1c.5,0,1.1,-.2,1.4,-.5c.4,-.4,.6,-.8,.6,-1.5c0,-.4,-.1,-.7,-.2,-1c-.3,-.6,-.8,-1,-1.1,-1.5c-.1,-.2,-.2,-.5,-.1,-.8c0,-.3,.1,-1,.7,-1c.6,0,.5,.5,.5,.7c-.1,.2,.1,.6,.5,.6c.3,0,.5,-.2,.5,-.5c0,-.7,-.7,-1.1,-1.4,-1.1c-.6,0,-1,.2,-1.4,.5c-.3,.3,-.5,.8,-.5,1.4c0,.3,.1,.6,.3,.9c.3,.5,.7,1,1,1.5c.2,.2,.3,.5,.3,.8c0,.5,-.2,1.2,-1,1.2Z" class="g0_321"/>
<path d="M407.3,144.9c-2.2,1.4,-3.7,3.9,-3.7,6.9c0,2.7,1.6,5.5,3.6,6.8l.2,-.2c-2,-1.6,-2.5,-3.4,-2.5,-6.7c0,-3.3,.6,-5,2.5,-6.5l-.1,-.3Z" class="g0_321"/>
<path d="M410.3,155.4c-.5,0,-.6,-.4,-.5,-.9c.1,-.4,-.3,-.6,-.6,-.6c-.4,0,-.6,.3,-.6,.7c0,.8,.8,1.1,1.6,1.1c.6,0,1.1,-.2,1.4,-.5c.4,-.4,.6,-.8,.6,-1.5c0,-.4,0,-.7,-.2,-1c-.3,-.6,-.8,-1,-1.1,-1.5c-.1,-.2,-.1,-.5,-.1,-.8c0,-.3,.1,-1,.7,-1c.6,0,.5,.5,.5,.7c-.1,.2,.1,.6,.5,.6c.3,0,.5,-.2,.5,-.5c0,-.7,-.6,-1.1,-1.3,-1.1c-.7,0,-1.1,.2,-1.5,.5c-.3,.3,-.5,.8,-.5,1.4c0,.3,.1,.6,.3,.9c.3,.5,.7,1,1,1.5c.2,.2,.3,.5,.3,.8c0,.5,-.2,1.2,-1,1.2Z" class="g0_321"/>
<path d="M418,152.2h7.6v-.8H418Z" class="g0_321"/>
<path d="M434.4,149.1c-.4,0,-.9,.2,-1.3,.5c-.5,.3,-.9,.7,-1.3,1.1c-.6,.8,-1.2,2,-1.2,3.3c0,1,.4,1.7,1.3,1.7c1.3,0,1.8,-.9,2.2,-1.5c-.2,.9,-.1,1.5,.6,1.5c.3,0,.7,-.1,1.1,-.5c.4,-.3,.7,-.8,1.1,-1.3l-.2,-.2c-.3,.4,-.9,1.4,-1.4,1.4c-.2,0,-.2,-.4,-.2,-.6c0,-.9,.6,-2.4,.9,-3.4l.7,-1.9h-1l-.2,.7c-.2,-.5,-.5,-.8,-1.1,-.8Zm.1,.3c.7,0,.6,1.3,.5,1.9c-.1,.3,-.2,.6,-.3,1c-.4,1.2,-1.5,3.1,-2.3,3.1c-.6,0,-.8,-1,-.8,-1.5c0,-.4,0,-.8,.2,-1.3c.4,-1,1.5,-3.2,2.7,-3.2Z" class="g0_321"/>
<path d="M438.4,144.9l-.2,.3c1.9,1.5,2.5,3.2,2.5,6.5c0,3.3,-.5,5.1,-2.5,6.7l.2,.2c2,-1.3,3.6,-4.1,3.6,-6.8c0,-3,-1.5,-5.5,-3.6,-6.9Z" class="g0_321"/>
<path d="M448.6,144.9c-2.1,1.4,-3.6,3.9,-3.6,6.9c0,2.7,1.5,5.5,3.6,6.8l.2,-.2c-2,-1.6,-2.6,-3.4,-2.6,-6.7c0,-3.3,.6,-5,2.6,-6.5l-.2,-.3Z" class="g0_321"/>
<path d="M451.6,155.4c-.5,0,-.6,-.4,-.5,-.9c.2,-.4,-.2,-.6,-.5,-.6c-.4,0,-.7,.3,-.7,.7c0,.8,.8,1.1,1.6,1.1c.6,0,1.2,-.2,1.5,-.5c.3,-.4,.6,-.8,.6,-1.5c0,-.4,-.1,-.7,-.3,-1c-.2,-.6,-.7,-1,-1,-1.5c-.1,-.2,-.2,-.5,-.2,-.8c0,-.3,.2,-1,.7,-1c.6,0,.6,.5,.5,.7c0,.2,.1,.6,.6,.6c.3,0,.5,-.2,.5,-.5c0,-.7,-.7,-1.1,-1.4,-1.1c-.6,0,-1.1,.2,-1.4,.5c-.3,.3,-.5,.8,-.5,1.4c0,.3,.1,.6,.2,.9c.4,.5,.8,1,1.1,1.5c.1,.2,.2,.5,.2,.8c0,.5,-.1,1.2,-1,1.2Z" class="g0_321"/>
<path d="M459.4,152.2H467v-.8h-7.6Z" class="g0_321"/>
<path d="M475.2,149.5c1.2,0,.9,1.9,.4,3.2c-.4,.8,-1.3,2.7,-2.4,2.7c-.5,0,-.7,-.3,-.7,-1c0,-.7,.3,-1.8,.5,-2.3c.3,-.6,.7,-1.6,1.1,-2c.3,-.4,.7,-.6,1.1,-.6Zm-2.2,6.2c1.7,0,2.8,-1.4,3.5,-2.6c.3,-.6,.6,-1.4,.6,-2.3c0,-1,-.5,-1.7,-1.5,-1.7c-1,0,-1.7,.6,-2,1.2h-.1l1.6,-5.6l-2.1,.1l-.1,.2c.7,0,.9,.3,.9,.6c0,.2,-.1,.6,-.2,.7l-1.5,5.7c-.2,.5,-.4,1,-.4,1.3c-.1,.4,-.2,.7,-.2,.9c0,.9,.6,1.5,1.5,1.5Z" class="g0_321"/>
<path d="M478.7,144.9l-.2,.3c1.9,1.5,2.6,3.2,2.6,6.5c0,3.3,-.6,5.1,-2.6,6.7l.2,.2c2.1,-1.3,3.6,-4.1,3.6,-6.8c0,-3,-1.5,-5.5,-3.6,-6.9Z" class="g0_321"/>
<path d="M488.9,144.9c-2.1,1.4,-3.6,3.9,-3.6,6.9c0,2.7,1.5,5.5,3.6,6.8l.2,-.2c-2,-1.6,-2.6,-3.4,-2.6,-6.7c0,-3.3,.7,-5,2.6,-6.5l-.2,-.3Z" class="g0_321"/>
<path d="M491.9,155.4c-.4,0,-.5,-.4,-.4,-.9c.1,-.4,-.3,-.6,-.6,-.6c-.4,0,-.6,.3,-.6,.7c0,.8,.7,1.1,1.5,1.1c.6,0,1.2,-.2,1.5,-.5c.3,-.4,.6,-.8,.6,-1.5c0,-.4,-.1,-.7,-.3,-1c-.2,-.6,-.7,-1,-1,-1.5c-.1,-.2,-.2,-.5,-.2,-.8c.1,-.3,.2,-1,.8,-1c.5,0,.5,.5,.4,.7c0,.2,.1,.6,.6,.6c.3,0,.5,-.2,.5,-.5c0,-.7,-.7,-1.1,-1.4,-1.1c-.6,0,-1,.2,-1.4,.5c-.3,.3,-.5,.8,-.5,1.4c0,.3,.1,.6,.3,.9c.3,.5,.7,1,1,1.5c.2,.2,.2,.5,.2,.8c0,.5,-.1,1.2,-1,1.2Z" class="g0_321"/>
<path d="M499.7,152.2h7.6v-.8h-7.6Z" class="g0_321"/>
<path d="M512.8,153.8c0,-.5,.1,-1,.2,-1.5c.3,-.9,1.1,-2.8,2.3,-2.8c.3,0,.3,.1,.3,.2c0,.2,-.1,.3,-.1,.5c0,.3,.2,.5,.6,.5c.4,0,.6,-.2,.6,-.6c0,-.7,-.6,-1,-1.3,-1c-1.4,0,-2.5,1.5,-3.1,2.5c-.3,.6,-.6,1.3,-.6,2.2c0,1.1,.6,1.9,1.7,1.9c1.3,0,2.1,-1,2.6,-2l-.2,-.1c-.5,.9,-1.3,1.8,-2.1,1.8c-.6,0,-.9,-1,-.9,-1.6Z" class="g0_321"/>
<path d="M518,144.9l-.1,.3c1.9,1.5,2.5,3.2,2.5,6.5c0,3.3,-.6,5.1,-2.5,6.7l.2,.2c2,-1.3,3.6,-4.1,3.6,-6.8c0,-3,-1.5,-5.5,-3.7,-6.9Z" class="g0_321"/>
<path d="M405.2,202.3c-.5,0,-.6,-.4,-.5,-.8c.1,-.5,-.2,-.7,-.6,-.7c-.4,0,-.6,.3,-.6,.7c0,.8,.8,1.1,1.6,1.1c.6,0,1.1,-.2,1.5,-.5c.3,-.4,.5,-.8,.5,-1.4c0,-.5,0,-.8,-.2,-1.1c-.3,-.6,-.7,-1,-1,-1.5c-.1,-.2,-.2,-.5,-.2,-.8c0,-.3,.1,-1,.7,-1c.6,0,.6,.5,.5,.7c-.1,.2,.1,.6,.5,.6c.4,0,.5,-.2,.5,-.5c0,-.7,-.6,-1.1,-1.3,-1.1c-.6,0,-1.1,.2,-1.4,.5c-.4,.3,-.5,.8,-.5,1.4c0,.3,.1,.6,.2,.9c.3,.5,.7,1,1.1,1.5c.1,.2,.2,.5,.2,.8c0,.5,-.1,1.2,-1,1.2Z" class="g0_321"/>
<path d="M413.4,200.6H421v-.8h-7.6Zm0,-3H421v-.8h-7.6Z" class="g0_321"/>
<path d="M432.1,185.9c-.4,0,-.9,.2,-1.3,.5c-.4,.3,-.9,.7,-1.2,1.1c-.7,.8,-1.3,2,-1.3,3.3c0,1,.4,1.7,1.3,1.7c1.3,0,1.8,-.8,2.2,-1.5c-.2,.9,-.1,1.5,.6,1.5c.3,0,.7,-.1,1.1,-.4c.4,-.4,.8,-.8,1.1,-1.4l-.2,-.2c-.3,.4,-.9,1.4,-1.3,1.4c-.2,0,-.3,-.4,-.3,-.6c0,-.9,.6,-2.4,.9,-3.4l.7,-1.9h-1l-.2,.7c-.2,-.5,-.5,-.8,-1.1,-.8Zm.1,.3c.7,0,.6,1.3,.5,1.9c-.1,.3,-.2,.6,-.3,1c-.4,1.2,-1.5,3.1,-2.3,3.1c-.6,0,-.7,-1,-.7,-1.5c0,-.4,0,-.8,.2,-1.3c.3,-1,1.4,-3.2,2.6,-3.2Z" class="g0_321"/>
<path d="M442.5,188.2h-3.2v.9h3.2v3.3h1v-3.3h3.3v-.9h-3.3v-3.3h-1v3.3Z" class="g0_321"/>
<path d="M454.5,186.3c1.3,0,.9,1.9,.4,3.2c-.3,.8,-1.3,2.7,-2.4,2.7c-.5,0,-.7,-.3,-.7,-1c0,-.7,.3,-1.8,.5,-2.3c.3,-.6,.7,-1.6,1.1,-2c.3,-.3,.7,-.6,1.1,-.6Zm-2.2,6.2c1.7,0,2.9,-1.4,3.5,-2.6c.3,-.6,.6,-1.4,.6,-2.2c0,-1.1,-.5,-1.8,-1.5,-1.8c-.9,0,-1.6,.6,-2,1.2l1.5,-5.6l-2.1,.1v.2c.6,0,.8,.3,.8,.6c0,.2,-.1,.6,-.1,.7l-1.6,5.7c-.2,.5,-.3,1,-.4,1.4c-.1,.3,-.2,.7,-.2,.8c0,.9,.6,1.5,1.5,1.5Z" class="g0_321"/>
<path d="M464.4,188.2h-3.2v.9h3.2v3.3h1v-3.3h3.3v-.9h-3.3v-3.3h-1v3.3Z" class="g0_321"/>
<path d="M473.7,190.6c0,-.5,.1,-1,.3,-1.5c.3,-.9,1,-2.8,2.2,-2.8c.3,0,.3,.1,.3,.2c0,.2,-.1,.3,-.1,.5c0,.3,.2,.6,.6,.6c.4,0,.6,-.3,.6,-.7c0,-.7,-.6,-1,-1.3,-1c-1.4,0,-2.5,1.5,-3.1,2.5c-.3,.6,-.6,1.3,-.6,2.2c0,1.1,.6,1.9,1.7,1.9c1.3,0,2.2,-1,2.6,-2l-.2,-.1c-.5,.9,-1.2,1.8,-2.1,1.8c-.6,0,-.9,-1,-.9,-1.6Z" class="g0_321"/>
<path d="M427.6,199.1h50.8v-.8H427.6Z" class="g0_321"/>
<path d="M452.4,206.4c-.9,0,-1.5,-.7,-1.5,-1.6c0,-1.1,.6,-2.3,1.8,-2.3c1.7,0,1.9,1.4,1.9,2.6c0,1.3,-.4,2.1,-1,3c-.4,.5,-.9,1.1,-1.6,1.8c-.6,.7,-1.5,1.5,-2.5,2.4v.4h6.2l.6,-2.8h-.5c-.1,.3,-.2,.6,-.3,.7c-.2,.6,-.6,.8,-1.4,.8h-2.9c.7,-.5,1.4,-1,1.9,-1.5c1.1,-.9,2.1,-1.9,2.7,-3.1c.2,-.5,.4,-1.1,.4,-1.6c0,-.5,-.1,-.8,-.3,-1.2c-.5,-1,-1.4,-1.7,-2.9,-1.7c-1,0,-1.9,.3,-2.4,.8c-.5,.4,-1,1.1,-1,2c0,.6,.2,1.1,.5,1.4c.3,.3,.7,.6,1.3,.6c.5,0,.9,-.3,1,-.7Z" class="g0_321"/>
<path d="M371.7,238.5c-.5,0,-.9,.1,-1.3,.5c-.5,.2,-.9,.6,-1.3,1.1c-.6,.8,-1.2,2,-1.2,3.3c0,.9,.4,1.7,1.3,1.7c1.3,0,1.8,-.9,2.2,-1.6c-.2,.9,-.1,1.6,.5,1.6c.4,0,.8,-.2,1.2,-.5c.4,-.3,.7,-.8,1.1,-1.4l-.2,-.1c-.3,.4,-.9,1.3,-1.4,1.3c-.2,0,-.2,-.3,-.2,-.5c0,-.9,.6,-2.5,.9,-3.4l.7,-1.9h-1l-.3,.7c-.1,-.5,-.4,-.8,-1,-.8Zm.1,.3c.7,0,.6,1.3,.5,1.8c-.1,.4,-.2,.7,-.3,1c-.4,1.2,-1.5,3.1,-2.3,3.1c-.6,0,-.8,-.9,-.8,-1.4c0,-.4,0,-.9,.2,-1.3c.4,-1.1,1.4,-3.2,2.7,-3.2Z" class="g0_321"/>
<path d="M379.8,243.1h7.6v-.9h-7.6Zm0,-3h7.6v-.9h-7.6Z" class="g0_321"/>
<path d="M394,247.8h.8V234.5H394Zm3,0h.8V234.5H397Z" class="g0_321"/>
<path d="M404.7,234.3c-2.1,1.4,-3.6,3.8,-3.6,6.9c0,2.7,1.6,5.5,3.6,6.8l.2,-.3c-1.9,-1.5,-2.5,-3.3,-2.5,-6.6c0,-3.3,.6,-5,2.5,-6.5l-.1,-.3h-.1Z" class="g0_321"/>
<path d="M413.2,239.4c0,-.5,-.5,-.9,-1,-.9c-.4,0,-.7,.1,-1,.3c-.3,.3,-.6,.6,-.8,.9c0,-.6,-.5,-1.2,-1.1,-1.2c-1.1,0,-2.1,1.2,-2.4,2l.2,.1c.3,-.5,1.1,-1.7,2,-1.7c.2,0,.3,.5,.3,.9c0,.3,0,.7,-.2,1.2l-.3,1.2c-.2,.6,-.4,1.3,-.7,1.7c-.2,.3,-.5,.7,-.8,.7c-.4,0,-.8,-.1,-.7,-.5c.1,-.3,.1,-.7,-.4,-.7c-.4,0,-.6,.3,-.6,.8c0,.5,.5,.9,1.1,.9c1,0,1.7,-.8,2.1,-1.5v.1c.1,.8,.5,1.4,1.4,1.4c1.1,0,2,-1.2,2.4,-1.8l-.2,-.2c-.5,.6,-1.1,1.6,-1.9,1.6c-.5,0,-.7,-.6,-.7,-1.2c0,-.3,.1,-.8,.2,-1.3l.2,-.8c.1,-.5,.3,-1.2,.6,-1.6c.2,-.3,.6,-.9,.9,-.9c.4,0,.4,.3,.4,.6c0,.4,.1,.6,.4,.6c.4,0,.6,-.3,.6,-.7Z" class="g0_321"/>
<path d="M415.9,242.7c-.7,0,-1.1,-.5,-1.1,-1.2c0,-.8,.5,-1.6,1.4,-1.6c1.2,0,1.3,1,1.3,1.9c0,.9,-.3,1.5,-.7,2.1c-.3,.4,-.7,.9,-1.2,1.4c-.5,.5,-1.1,1,-1.8,1.7v.3h4.5l.4,-2.1h-.3c-.1,.3,-.1,.5,-.2,.6c-.2,.4,-.5,.6,-1,.6h-2.1v-.1c.4,-.3,.9,-.7,1.3,-1c.8,-.7,1.6,-1.4,2,-2.3c.2,-.4,.3,-.8,.3,-1.2c0,-.3,-.1,-.6,-.2,-.8c-.4,-.8,-1.1,-1.3,-2.2,-1.3c-.7,0,-1.3,.2,-1.7,.6c-.4,.3,-.7,.8,-.7,1.4c0,.5,.1,.8,.3,1.1c.2,.2,.5,.4,.9,.4c.5,0,.7,-.2,.8,-.5Z" class="g0_321"/>
<path d="M424.4,241.6H432v-.9h-7.6Z" class="g0_321"/>
<path d="M443.4,239.4c0,-.5,-.4,-.9,-1,-.9c-.3,0,-.6,.1,-.9,.3c-.3,.3,-.6,.6,-.9,.9c0,-.6,-.4,-1.2,-1,-1.2c-1.1,0,-2.1,1.2,-2.4,2l.2,.1c.3,-.5,1,-1.7,1.9,-1.7c.3,0,.4,.5,.4,.9c0,.3,0,.7,-.2,1.2l-.3,1.2c-.2,.6,-.4,1.3,-.7,1.7c-.2,.3,-.5,.7,-.8,.7c-.5,0,-.8,-.1,-.7,-.5c.1,-.3,.1,-.7,-.4,-.7c-.4,0,-.6,.3,-.6,.8c0,.5,.5,.9,1.1,.9c1,0,1.7,-.8,2.1,-1.5v.1c.1,.8,.5,1.4,1.4,1.4c1.1,0,2,-1.2,2.4,-1.8l-.2,-.2c-.5,.6,-1.2,1.6,-2,1.6c-.4,0,-.6,-.6,-.6,-1.2c0,-.3,0,-.8,.2,-1.3l.2,-.8c.1,-.5,.3,-1.2,.6,-1.6c.2,-.3,.5,-.9,.9,-.9c.4,0,.4,.3,.4,.6c-.1,.4,.1,.6,.4,.6c.4,0,.5,-.3,.5,-.7Z" class="g0_321"/>
<path d="M445,240.2v.2c.3,0,.8,.1,1,.1c.3,.2,.3,.3,.3,.8V246c0,.3,0,.5,-.1,.6c0,.5,-.6,.5,-1.1,.6v.1h3.4v-.1c-.4,0,-.9,-.1,-1.1,-.3c-.1,-.2,-.2,-.5,-.2,-.9v-6.3c-.5,.3,-1.5,.5,-2.2,.5Z" class="g0_321"/>
<path d="M451.9,244.2c0,.4,.3,.8,.7,.8c.1,0,.3,-.1,.4,-.1c0,.4,-.1,.7,-.3,1c-.2,.3,-.6,.6,-1,1l.3,.4c.3,-.2,.6,-.5,.8,-.7c.5,-.5,1,-1,1,-1.9c0,-.9,-.4,-1.3,-1,-1.3c-.5,0,-.9,.3,-.9,.8Z" class="g0_321"/>
<path d="M457.3,247.1c0,.6,.5,1,1.1,1c.5,0,.8,-.2,1.3,-.6c.8,-.7,2.1,-2.2,2.8,-3.4c.4,-.6,.8,-1.3,1.1,-1.8c.3,-.8,1.1,-2.1,1.1,-2.9c0,-.3,-.1,-.5,-.2,-.7c-.1,-.1,-.2,-.2,-.4,-.2c-.2,0,-.3,.1,-.5,.2c-.1,.1,-.2,.3,-.2,.6c0,.5,.2,1,.2,1.4c0,.6,-.2,1.1,-.4,1.6c-.3,.4,-.5,.8,-.8,1.4h-.1l-.3,-2c-.1,-.5,-.4,-1.6,-.5,-2c-.2,-.7,-.3,-1.2,-1.3,-1.2c-1.1,0,-1.3,1.8,-1.6,2.5l.3,.2c.1,-.6,.6,-2.4,1.1,-2.4c.3,0,.4,1.1,.5,1.3c.1,.3,.2,.7,.3,1.4l.6,3.5c-.4,.8,-1.2,1.6,-1.8,2.1c-.2,.2,-.6,.3,-.7,.3c-.1,0,-.2,-.1,-.3,-.2c-.2,-.2,-.2,-.7,-.7,-.7c-.4,0,-.6,.3,-.6,.6Z" class="g0_321"/>
<path d="M467.5,242.7c-.7,0,-1.1,-.5,-1.1,-1.2c0,-.8,.4,-1.6,1.3,-1.6c1.2,0,1.3,1,1.3,1.9c0,.9,-.2,1.5,-.7,2.1c-.2,.4,-.6,.9,-1.1,1.4c-.5,.5,-1.1,1,-1.8,1.7v.3h4.5l.4,-2.1H470c-.1,.3,-.2,.5,-.2,.6c-.2,.4,-.5,.6,-1.1,.6h-2.1v-.1c.5,-.3,1,-.7,1.4,-1c.8,-.7,1.5,-1.4,2,-2.3c.1,-.4,.2,-.8,.2,-1.2c0,-.3,0,-.6,-.1,-.8c-.4,-.8,-1.1,-1.3,-2.2,-1.3c-.7,0,-1.4,.2,-1.8,.6c-.3,.3,-.7,.8,-.7,1.4c0,.5,.2,.8,.4,1.1c.2,.2,.5,.4,.9,.4c.4,0,.7,-.2,.8,-.5Z" class="g0_321"/>
<path d="M475.9,241.6h7.6v-.9h-7.6Z" class="g0_321"/>
<path d="M486.8,247.1c0,.6,.4,1,1.1,1c.4,0,.8,-.2,1.3,-.6c.8,-.7,2,-2.2,2.8,-3.4c.3,-.6,.7,-1.3,1,-1.8c.4,-.8,1.1,-2.1,1.1,-2.9c0,-.3,0,-.5,-.1,-.7c-.1,-.1,-.3,-.2,-.5,-.2c-.1,0,-.3,.1,-.4,.2c-.2,.1,-.2,.3,-.2,.6c0,.5,.2,1,.2,1.4c0,.6,-.2,1.1,-.5,1.6c-.2,.4,-.4,.8,-.8,1.4h-.1l-.3,-2c-.1,-.5,-.3,-1.6,-.4,-2c-.2,-.7,-.3,-1.2,-1.3,-1.2c-1.2,0,-1.4,1.8,-1.6,2.5l.3,.2c.1,-.6,.5,-2.4,1,-2.4c.3,0,.5,1.1,.5,1.3c.1,.3,.2,.7,.3,1.4l.6,3.5c-.3,.8,-1.2,1.6,-1.8,2.1c-.2,.2,-.5,.3,-.7,.3c-.1,0,-.2,-.1,-.2,-.2c-.2,-.2,-.2,-.7,-.7,-.7c-.4,0,-.6,.3,-.6,.6Z" class="g0_321"/>
<path d="M495.7,240.2v.2c.4,0,.8,.1,1,.1c.3,.2,.3,.3,.3,.8V246c0,.3,0,.5,0,.6c-.1,.5,-.7,.5,-1.2,.6v.1h3.4v-.1c-.4,0,-.9,-.1,-1.1,-.3c-.1,-.2,-.1,-.5,-.1,-.9v-6.3c-.6,.3,-1.6,.5,-2.3,.5Z" class="g0_321"/>
<path d="M501.7,234.3l-.1,.3c1.9,1.5,2.5,3.2,2.5,6.5c0,3.3,-.6,5.1,-2.5,6.6l.1,.3c2.1,-1.3,3.7,-4.1,3.7,-6.8c0,-3.1,-1.5,-5.5,-3.7,-6.9Z" class="g0_321"/>
<path d="M508.7,247.8h.8V234.5h-.8Zm2.9,0h.9V234.5h-.9Z" class="g0_321"/>
<path d="M372.2,261.2c1.2,0,.9,1.9,.4,3.2c-.4,.8,-1.3,2.8,-2.4,2.8c-.5,0,-.7,-.4,-.7,-1c0,-.8,.2,-1.8,.5,-2.4c.2,-.6,.7,-1.6,1.1,-2c.3,-.3,.6,-.6,1.1,-.6Zm-2.2,6.3c1.6,0,2.8,-1.5,3.4,-2.6c.4,-.6,.7,-1.4,.7,-2.3c0,-1,-.6,-1.7,-1.6,-1.7c-.9,0,-1.6,.5,-2,1.1l1.5,-5.5h-2l-.1,.2c.6,0,.9,.3,.9,.6c0,.2,-.1,.6,-.2,.8l-1.6,5.6c-.2,.6,-.3,1,-.4,1.4c0,.4,-.1,.7,-.1,.9c0,.9,.6,1.5,1.5,1.5Z" class="g0_321"/>
<path d="M379.8,265.5h7.6v-.9h-7.6Zm0,-3.1h7.6v-.8h-7.6Z" class="g0_321"/>
<path d="M394,270.2h.8V256.8H394Zm3,0h.8V256.8H397Z" class="g0_321"/>
<path d="M404.8,256.7c-2.2,1.4,-3.7,3.8,-3.7,6.8c0,2.8,1.6,5.6,3.6,6.8l.2,-.2c-1.9,-1.5,-2.5,-3.3,-2.5,-6.6c0,-3.3,.6,-5,2.5,-6.6l-.1,-.2Z" class="g0_321"/>
<path d="M413.2,261.8c0,-.5,-.5,-.9,-1,-.9c-.4,0,-.7,.1,-1,.3c-.3,.2,-.6,.5,-.8,.9c0,-.7,-.5,-1.2,-1.1,-1.2c-1.1,0,-2.1,1.1,-2.4,1.9l.2,.1c.3,-.5,1.1,-1.7,2,-1.7c.2,0,.3,.6,.3,1c0,.3,0,.7,-.2,1.2l-.3,1.2c-.2,.5,-.4,1.3,-.7,1.7c-.2,.3,-.5,.7,-.8,.7c-.4,0,-.8,-.1,-.7,-.5c.1,-.3,.1,-.7,-.4,-.7c-.4,0,-.6,.3,-.6,.7c0,.6,.5,1,1.1,1c1,0,1.7,-.8,2.1,-1.5c.1,.8,.5,1.5,1.4,1.5c1.1,0,2,-1.2,2.4,-1.9l-.2,-.1c-.5,.6,-1.1,1.6,-1.9,1.6c-.5,0,-.7,-.6,-.7,-1.2c0,-.4,.1,-.8,.2,-1.3l.2,-.8c.1,-.5,.3,-1.2,.6,-1.6c.2,-.3,.6,-.9,.9,-.9c.4,0,.4,.3,.4,.6c0,.4,.1,.6,.4,.6c.4,0,.6,-.3,.6,-.7Z" class="g0_321"/>
<path d="M416.1,269.6c-.7,0,-1.3,-.7,-1.3,-1.4c0,-.5,.4,-.9,.9,-.9c-.1,-.3,-.4,-.5,-.8,-.5c-.1,0,-.3,.1,-.4,.1c-.4,.2,-.7,.6,-.7,1.2c0,.2,.1,.4,.2,.7c.4,.6,1.1,1,2.1,1c.9,0,1.5,-.2,1.9,-.6c.4,-.3,.7,-.8,.7,-1.5c0,-.3,0,-.5,-.1,-.7c-.3,-.7,-.8,-1.1,-1.6,-1.3v-.1c.5,-.1,.8,-.3,1.1,-.6c.2,-.3,.4,-.7,.4,-1.2c0,-.2,0,-.5,-.2,-.7c-.3,-.7,-1.1,-1,-2.1,-1c-.6,0,-1.2,.1,-1.5,.3c-.3,.3,-.6,.6,-.6,1c0,.4,.1,.6,.3,.8c.1,.2,.4,.3,.7,.3c.1,0,.3,0,.4,-.1c.2,-.1,.2,-.2,.3,-.3c-.4,0,-.7,-.3,-.7,-.7c0,-.6,.5,-1.1,1.1,-1.1c.8,0,1.1,.6,1.1,1.6c0,.8,-.2,1.7,-1,1.7c-.2,0,-.4,-.1,-.6,-.1c-.2,0,-.6,0,-.6,.2c0,.3,.4,.4,.6,.4c.2,0,.5,-.2,.7,-.2c.9,0,1.1,.8,1.1,1.7c0,1,-.4,2,-1.4,2Z" class="g0_321"/>
<path d="M424.4,263.9H432v-.8h-7.6Z" class="g0_321"/>
<path d="M443.4,261.8c0,-.5,-.4,-.9,-1,-.9c-.3,0,-.6,.1,-.9,.3c-.3,.2,-.6,.5,-.9,.9c0,-.7,-.4,-1.2,-1,-1.2c-1.1,0,-2.1,1.1,-2.4,1.9l.2,.1c.3,-.5,1,-1.7,1.9,-1.7c.3,0,.4,.6,.4,1c0,.3,0,.7,-.2,1.2l-.3,1.2c-.2,.5,-.4,1.3,-.7,1.7c-.2,.3,-.5,.7,-.8,.7c-.5,0,-.8,-.1,-.7,-.5c.1,-.3,.1,-.7,-.4,-.7c-.4,0,-.6,.3,-.6,.7c0,.6,.5,1,1.1,1c1,0,1.7,-.8,2.1,-1.5c.1,.8,.5,1.5,1.4,1.5c1.1,0,2,-1.2,2.4,-1.9l-.2,-.1c-.5,.6,-1.2,1.6,-2,1.6c-.4,0,-.6,-.6,-.6,-1.2c0,-.4,0,-.8,.2,-1.3l.2,-.8c.1,-.5,.3,-1.2,.6,-1.6c.2,-.3,.5,-.9,.9,-.9c.4,0,.4,.3,.4,.6c-.1,.4,.1,.6,.4,.6c.4,0,.5,-.3,.5,-.7Z" class="g0_321"/>
<path d="M446.2,265c-.7,0,-1.1,-.4,-1.1,-1.1c0,-.8,.4,-1.6,1.3,-1.6c1.2,0,1.4,.9,1.4,1.9c0,.9,-.3,1.4,-.7,2.1c-.3,.4,-.7,.8,-1.2,1.3c-.5,.5,-1.1,1.1,-1.8,1.8v.3h4.5l.4,-2.1h-.3c-.1,.3,-.2,.4,-.2,.6c-.2,.4,-.5,.5,-1,.5h-2.2c.5,-.4,1,-.7,1.4,-1.1c.8,-.6,1.6,-1.3,2,-2.2c.2,-.4,.2,-.8,.2,-1.2c0,-.3,0,-.6,-.1,-.9c-.4,-.7,-1.1,-1.2,-2.2,-1.2c-.7,0,-1.3,.2,-1.7,.5c-.4,.4,-.7,.8,-.7,1.5c0,.5,.1,.8,.3,1c.2,.3,.5,.5,.9,.5c.4,0,.7,-.2,.8,-.6Z" class="g0_321"/>
<path d="M451.9,266.6c0,.4,.3,.7,.7,.7c.1,0,.3,0,.4,-.1c0,.4,-.1,.8,-.3,1.1c-.2,.3,-.6,.6,-1,1l.3,.4c.3,-.2,.6,-.5,.8,-.7c.5,-.5,1,-1,1,-1.9c0,-.9,-.4,-1.4,-1,-1.4c-.5,0,-.9,.4,-.9,.9Z" class="g0_321"/>
<path d="M457.3,269.5c0,.6,.5,1,1.1,1c.5,0,.8,-.2,1.3,-.6c.8,-.7,2.1,-2.2,2.8,-3.4c.4,-.7,.8,-1.3,1.1,-1.8c.3,-.8,1.1,-2.2,1.1,-3c0,-.2,-.1,-.4,-.2,-.6c-.1,-.2,-.2,-.2,-.4,-.2c-.2,0,-.3,0,-.5,.2c-.1,.1,-.2,.3,-.2,.6c0,.5,.2,.9,.2,1.3c0,.6,-.2,1.2,-.4,1.6c-.3,.5,-.5,.9,-.8,1.5h-.1l-.3,-2c-.1,-.5,-.4,-1.6,-.5,-2c-.2,-.7,-.3,-1.2,-1.3,-1.2c-1.1,0,-1.3,1.7,-1.6,2.5l.3,.1c.1,-.6,.6,-2.3,1.1,-2.3c.3,0,.4,1,.5,1.3c.1,.3,.2,.7,.3,1.3l.6,3.5c-.4,.8,-1.2,1.7,-1.8,2.2c-.2,.2,-.6,.3,-.7,.3c-.1,0,-.2,-.1,-.3,-.2c-.2,-.3,-.2,-.8,-.7,-.8c-.4,0,-.6,.3,-.6,.7Z" class="g0_321"/>
<path d="M467.7,269.6c-.7,0,-1.3,-.7,-1.3,-1.4c0,-.5,.3,-.9,.8,-.9c0,-.3,-.4,-.5,-.7,-.5c-.2,0,-.3,.1,-.4,.1c-.5,.2,-.7,.6,-.7,1.2c0,.2,0,.4,.1,.7c.4,.6,1.2,1,2.2,1c.8,0,1.4,-.2,1.9,-.6c.4,-.3,.7,-.8,.7,-1.5c0,-.3,0,-.5,-.1,-.7c-.3,-.7,-.9,-1.1,-1.6,-1.3v-.1c.4,-.1,.8,-.3,1,-.6c.3,-.3,.5,-.7,.5,-1.2c0,-.2,-.1,-.5,-.2,-.7c-.3,-.7,-1.1,-1,-2.2,-1c-.6,0,-1.1,.1,-1.5,.3c-.3,.3,-.6,.6,-.6,1c0,.4,.2,.6,.3,.8c.2,.2,.4,.3,.7,.3c.2,0,.4,0,.5,-.1c.1,-.1,.2,-.2,.2,-.3c-.4,0,-.7,-.3,-.7,-.7c0,-.6,.5,-1.1,1.1,-1.1c.8,0,1.2,.6,1.2,1.6c0,.8,-.2,1.7,-1.1,1.7c-.1,0,-.4,-.1,-.6,-.1c-.2,0,-.5,0,-.5,.2c0,.3,.3,.4,.6,.4c.2,0,.5,-.2,.6,-.2c.9,0,1.2,.8,1.2,1.7c0,1,-.4,2,-1.4,2Z" class="g0_321"/>
<path d="M475.9,263.9h7.6v-.8h-7.6Z" class="g0_321"/>
<path d="M486.8,269.5c0,.6,.4,1,1.1,1c.4,0,.8,-.2,1.3,-.6c.8,-.7,2,-2.2,2.8,-3.4c.3,-.7,.7,-1.3,1,-1.8c.4,-.8,1.1,-2.2,1.1,-3c0,-.2,0,-.4,-.1,-.6c-.1,-.2,-.3,-.2,-.5,-.2c-.1,0,-.3,0,-.4,.2c-.2,.1,-.2,.3,-.2,.6c0,.5,.2,.9,.2,1.3c0,.6,-.2,1.2,-.5,1.6c-.2,.5,-.4,.9,-.8,1.5h-.1l-.3,-2c-.1,-.5,-.3,-1.6,-.4,-2c-.2,-.7,-.3,-1.2,-1.3,-1.2c-1.2,0,-1.4,1.7,-1.6,2.5l.3,.1c.1,-.6,.5,-2.3,1,-2.3c.3,0,.5,1,.5,1.3c.1,.3,.2,.7,.3,1.3l.6,3.5c-.3,.8,-1.2,1.7,-1.8,2.2c-.2,.2,-.5,.3,-.7,.3c-.1,0,-.2,-.1,-.2,-.2c-.2,-.3,-.2,-.8,-.7,-.8c-.4,0,-.6,.3,-.6,.7Z" class="g0_321"/>
<path d="M496.9,265c-.7,0,-1.1,-.4,-1.1,-1.1c0,-.8,.5,-1.6,1.4,-1.6c1.2,0,1.3,.9,1.3,1.9c0,.9,-.3,1.4,-.7,2.1c-.3,.4,-.7,.8,-1.2,1.3c-.4,.5,-1,1.1,-1.8,1.8v.3h4.6l.3,-2.1h-.3c0,.3,-.1,.4,-.2,.6c-.2,.4,-.5,.5,-1,.5h-2.1c.5,-.4,.9,-.7,1.4,-1.1c.7,-.6,1.5,-1.3,1.9,-2.2c.2,-.4,.3,-.8,.3,-1.2c0,-.3,-.1,-.6,-.2,-.9c-.4,-.7,-1.1,-1.2,-2.2,-1.2c-.7,0,-1.3,.2,-1.7,.5c-.4,.4,-.7,.8,-.7,1.5c0,.5,.1,.8,.4,1c.2,.3,.4,.5,.9,.5c.4,0,.7,-.2,.7,-.6Z" class="g0_321"/>
<path d="M501.7,256.7l-.1,.2c1.9,1.6,2.5,3.3,2.5,6.6c0,3.3,-.6,5.1,-2.5,6.6l.1,.2c2.1,-1.2,3.7,-4,3.7,-6.8c0,-3,-1.5,-5.4,-3.7,-6.8Z" class="g0_321"/>
<path d="M508.7,270.2h.8V256.8h-.8Zm2.9,0h.9V256.8h-.9Z" class="g0_321"/>
<path d="M370.5,287.9c0,-.5,0,-1,.2,-1.4c.3,-1,1.1,-2.9,2.2,-2.9c.3,0,.4,.1,.4,.2c0,.2,-.2,.3,-.2,.5c0,.3,.2,.6,.6,.6c.4,0,.6,-.3,.6,-.7c0,-.7,-.6,-1,-1.3,-1c-1.4,0,-2.5,1.5,-3.1,2.5c-.3,.6,-.6,1.3,-.6,2.2c0,1.1,.7,1.9,1.8,1.9c1.2,0,2.1,-1,2.6,-2l-.3,-.1c-.5,.9,-1.2,1.8,-2.1,1.8c-.6,0,-.8,-1,-.8,-1.6Z" class="g0_321"/>
<path d="M379.8,287.8h7.6V287h-7.6Zm0,-3h7.6V284h-7.6Z" class="g0_321"/>
<path d="M394,292.6h.8V279.2H394Zm3,0h.8V279.2H397Z" class="g0_321"/>
<path d="M404.8,279.1c-2.2,1.4,-3.7,3.8,-3.7,6.8c0,2.8,1.6,5.6,3.6,6.8l.2,-.2c-1.9,-1.6,-2.5,-3.4,-2.5,-6.6c0,-3.3,.6,-5.1,2.5,-6.6l-.1,-.2Z" class="g0_321"/>
<path d="M413.2,284.2c0,-.5,-.5,-1,-1,-1c-.4,0,-.7,.2,-1,.4c-.3,.2,-.6,.5,-.8,.9c0,-.7,-.5,-1.3,-1.1,-1.3c-1.1,0,-2.1,1.2,-2.4,2l.2,.1c.3,-.5,1.1,-1.7,2,-1.7c.2,0,.3,.6,.3,1c0,.3,0,.7,-.2,1.2l-.3,1.1c-.2,.6,-.4,1.4,-.7,1.8c-.2,.3,-.5,.7,-.8,.7c-.4,0,-.8,-.1,-.7,-.5c.1,-.3,.1,-.8,-.4,-.8c-.4,0,-.6,.4,-.6,.8c0,.6,.5,.9,1.1,.9c1,0,1.7,-.7,2.1,-1.4c.1,.8,.5,1.4,1.4,1.4c1.1,0,2,-1.1,2.4,-1.8l-.2,-.2c-.5,.7,-1.1,1.7,-1.9,1.7c-.5,0,-.7,-.6,-.7,-1.2c0,-.4,.1,-.8,.2,-1.4l.2,-.7c.1,-.6,.3,-1.2,.6,-1.6c.2,-.3,.6,-1,.9,-1c.4,0,.4,.3,.4,.7c0,.4,.1,.5,.4,.5c.4,0,.6,-.3,.6,-.6Z" class="g0_321"/>
<path d="M414.7,285v.1c.3,0,.8,.1,1,.2c.3,.2,.3,.3,.3,.7v4.8c0,.2,0,.4,0,.5c-.1,.5,-.7,.6,-1.2,.6v.2h3.4v-.2c-.4,0,-.9,0,-1.1,-.2c-.1,-.2,-.1,-.6,-.1,-1v-6.3c-.6,.3,-1.6,.6,-2.3,.6Z" class="g0_321"/>
<path d="M424.4,286.3H432v-.8h-7.6Z" class="g0_321"/>
<path d="M443.4,284.2c0,-.5,-.4,-1,-1,-1c-.3,0,-.6,.2,-.9,.4c-.3,.2,-.6,.5,-.9,.9c0,-.7,-.4,-1.3,-1,-1.3c-1.1,0,-2.1,1.2,-2.4,2l.2,.1c.3,-.5,1,-1.7,1.9,-1.7c.3,0,.4,.6,.4,1c0,.3,0,.7,-.2,1.2l-.3,1.1c-.2,.6,-.4,1.4,-.7,1.8c-.2,.3,-.5,.7,-.8,.7c-.5,0,-.8,-.1,-.7,-.5c.1,-.3,.1,-.8,-.4,-.8c-.4,0,-.6,.4,-.6,.8c0,.6,.5,.9,1.1,.9c1,0,1.7,-.7,2.1,-1.4c.1,.8,.5,1.4,1.4,1.4c1.1,0,2,-1.1,2.4,-1.8l-.2,-.2c-.5,.7,-1.2,1.7,-2,1.7c-.4,0,-.6,-.6,-.6,-1.2c0,-.4,0,-.8,.2,-1.4l.2,-.7c.1,-.6,.3,-1.2,.6,-1.6c.2,-.3,.5,-1,.9,-1c.4,0,.4,.3,.4,.7c-.1,.4,.1,.5,.4,.5c.4,0,.5,-.3,.5,-.6Z" class="g0_321"/>
<path d="M446.4,292c-.7,0,-1.3,-.7,-1.3,-1.4c0,-.5,.4,-1,.9,-1c-.1,-.2,-.4,-.4,-.8,-.4c-.1,0,-.3,0,-.4,.1c-.4,.2,-.7,.6,-.7,1.1c0,.3,0,.5,.2,.7c.3,.7,1.1,1.1,2.1,1.1c.8,0,1.4,-.3,1.9,-.6c.4,-.4,.7,-.9,.7,-1.5c0,-.3,0,-.5,-.1,-.7c-.3,-.7,-.8,-1.1,-1.6,-1.3V288c.5,-.1,.8,-.4,1.1,-.7c.2,-.2,.4,-.6,.4,-1.1c0,-.3,-.1,-.5,-.2,-.7c-.3,-.7,-1.1,-1.1,-2.1,-1.1c-.6,0,-1.2,.2,-1.6,.4c-.3,.2,-.5,.6,-.5,1c0,.3,.1,.6,.3,.8c.1,.1,.4,.3,.7,.3c.1,0,.3,-.1,.4,-.1c.2,-.1,.2,-.2,.3,-.3c-.5,0,-.8,-.3,-.8,-.8c0,-.6,.5,-1.1,1.2,-1.1c.7,0,1.1,.7,1.1,1.6c0,.9,-.2,1.8,-1,1.8c-.2,0,-.4,-.2,-.6,-.2c-.3,0,-.6,.1,-.6,.3c0,.2,.4,.4,.6,.4c.2,0,.5,-.2,.6,-.3c.9,0,1.2,.8,1.2,1.8c0,1,-.4,2,-1.4,2Z" class="g0_321"/>
<path d="M451.9,288.9c0,.4,.3,.8,.7,.8c.1,0,.3,0,.4,-.1c0,.4,-.1,.7,-.3,1.1c-.2,.3,-.6,.6,-1,.9l.3,.5c.3,-.3,.6,-.5,.8,-.7c.5,-.5,1,-1,1,-2c0,-.9,-.4,-1.3,-1,-1.3c-.5,0,-.9,.3,-.9,.8Z" class="g0_321"/>
<path d="M457.3,291.9c0,.6,.5,.9,1.1,.9c.5,0,.8,-.1,1.3,-.5c.8,-.7,2.1,-2.3,2.8,-3.5c.4,-.6,.8,-1.2,1.1,-1.8c.3,-.7,1.1,-2.1,1.1,-2.9c0,-.2,-.1,-.4,-.2,-.6c-.1,-.2,-.2,-.3,-.4,-.3c-.2,0,-.3,.1,-.5,.2c-.1,.2,-.2,.4,-.2,.7c0,.4,.2,.9,.2,1.3c0,.6,-.2,1.1,-.4,1.6c-.3,.5,-.5,.9,-.8,1.4h-.1l-.3,-1.9c-.1,-.6,-.4,-1.6,-.5,-2.1c-.2,-.6,-.3,-1.2,-1.3,-1.2c-1.1,0,-1.3,1.8,-1.6,2.6l.3,.1c.1,-.6,.6,-2.3,1.1,-2.3c.3,0,.4,1,.5,1.2c.1,.3,.2,.7,.3,1.4l.6,3.5c-.4,.8,-1.2,1.7,-1.8,2.2c-.2,.2,-.6,.2,-.7,.2c-.1,0,-.2,0,-.3,-.1c-.2,-.3,-.2,-.8,-.7,-.8c-.4,0,-.6,.3,-.6,.7Z" class="g0_321"/>
<path d="M466.3,285v.1c.3,0,.8,.1,.9,.2c.4,.2,.3,.3,.4,.7v4.8c0,.2,0,.4,-.1,.5c0,.5,-.6,.6,-1.2,.6v.2h3.5v-.2c-.4,0,-1,0,-1.1,-.2c-.2,-.2,-.2,-.6,-.2,-1v-6.3c-.6,.3,-1.5,.6,-2.2,.6Z" class="g0_321"/>
<path d="M475.9,286.3h7.6v-.8h-7.6Z" class="g0_321"/>
<path d="M486.8,291.9c0,.6,.4,.9,1,.9h.1c.4,0,.8,-.1,1.3,-.5c.8,-.7,2,-2.3,2.8,-3.5c.3,-.6,.7,-1.2,1,-1.8c.4,-.7,1.1,-2.1,1.1,-2.9c0,-.2,0,-.4,-.1,-.6c-.1,-.2,-.3,-.3,-.5,-.3c-.1,0,-.3,.1,-.4,.2c-.2,.2,-.2,.4,-.2,.7c0,.4,.2,.9,.2,1.3c0,.6,-.2,1.1,-.5,1.6c-.2,.5,-.4,.9,-.8,1.4h-.1l-.3,-1.9c-.1,-.6,-.3,-1.6,-.4,-2.1c-.2,-.6,-.3,-1.2,-1.3,-1.2c-1.2,0,-1.4,1.8,-1.6,2.6l.3,.1c.1,-.6,.5,-2.3,1,-2.3c.3,0,.5,1,.5,1.2c.1,.3,.2,.7,.3,1.4l.6,3.5c-.3,.8,-1.2,1.7,-1.8,2.2c-.2,.2,-.5,.2,-.7,.2c-.1,0,-.2,0,-.2,-.1c-.2,-.3,-.2,-.8,-.7,-.8c-.4,0,-.6,.3,-.6,.7Z" class="g0_321"/>
<path d="M497.1,292c-.7,0,-1.2,-.7,-1.2,-1.4c0,-.5,.3,-1,.8,-1c-.1,-.2,-.4,-.4,-.8,-.4c-.1,0,-.3,0,-.4,.1c-.4,.2,-.7,.6,-.7,1.1c0,.3,.1,.5,.2,.7c.4,.7,1.1,1.1,2.2,1.1c.8,0,1.4,-.3,1.8,-.6c.4,-.4,.8,-.9,.8,-1.5c0,-.3,-.1,-.5,-.2,-.7c-.2,-.7,-.8,-1.1,-1.5,-1.3V288c.4,-.1,.8,-.4,1,-.7c.2,-.2,.4,-.6,.4,-1.1c0,-.3,0,-.5,-.1,-.7c-.4,-.7,-1.2,-1.1,-2.2,-1.1c-.6,0,-1.2,.2,-1.5,.4c-.3,.2,-.6,.6,-.6,1c0,.3,.1,.6,.3,.8c.1,.1,.4,.3,.7,.3c.2,0,.3,-.1,.5,-.1c.1,-.1,.1,-.2,.2,-.3c-.4,0,-.7,-.3,-.7,-.8c0,-.6,.5,-1.1,1.1,-1.1c.8,0,1.2,.7,1.2,1.6c0,.9,-.3,1.8,-1.1,1.8c-.2,0,-.4,-.2,-.6,-.2c-.2,0,-.5,.1,-.5,.3c0,.2,.3,.4,.5,.4c.3,0,.5,-.2,.7,-.3c.9,0,1.1,.8,1.1,1.8c0,1,-.4,2,-1.4,2Z" class="g0_321"/>
<path d="M503,292.6h.8V279.2H503Zm2.9,0h.9V279.2h-.9Z" class="g0_321"/>
<path d="M313.7,453.3h-3l4,-4.9c-.3,1.6,-.7,3.4,-1,4.9Zm.7,2.5l1.9,-8.5h-1.1l-6.2,7.6c-.4,.5,-.7,.9,-1.1,1.2c-.3,.4,-.6,.6,-.8,.8c-.3,.2,-.6,.4,-.8,.5c-.2,.1,-.4,.2,-.6,.2l-.1,.2h3.5v-.2c-.4,0,-.7,-.1,-.8,-.1c-.2,-.1,-.4,-.2,-.4,-.4c0,-.2,0,-.3,.2,-.5c.4,-.5,.7,-.9,1.2,-1.5l1.1,-1.4h3.2l-.5,2.2c-.1,.3,-.2,.6,-.3,.9c0,.2,-.1,.3,-.2,.5c-.2,.1,-.3,.2,-.5,.2c-.1,0,-.4,.1,-.6,.1l-.1,.2h4l.1,-.2c-.5,0,-.8,-.1,-1,-.3c-.2,-.1,-.3,-.2,-.3,-.5c0,-.2,.1,-.6,.2,-1Z" class="g0_321"/>
<path d="M321.9,455.9h7.6v-.8h-7.6Zm0,-3h7.6V452h-7.6Z" class="g0_321"/>
<path d="M341.2,437c-2.2,1.4,-3.7,3.8,-3.7,6.9c0,2.7,1.6,5.5,3.7,6.8l.1,-.3c-1.9,-1.5,-2.5,-3.3,-2.5,-6.6c0,-3.3,.6,-5,2.5,-6.5l-.1,-.3Z" class="g0_321"/>
<path d="M349.6,442.2c0,-.6,-.5,-1,-1,-1c-.3,0,-.7,.1,-1,.3c-.3,.3,-.6,.6,-.8,.9c0,-.6,-.4,-1.2,-1.1,-1.2c-1.1,0,-2.1,1.2,-2.4,2l.2,.1c.4,-.5,1.1,-1.7,2,-1.7c.2,0,.4,.5,.4,1c0,.2,-.1,.6,-.2,1.1l-.4,1.2c-.2,.6,-.4,1.4,-.7,1.8c-.2,.2,-.4,.6,-.8,.6c-.4,0,-.7,-.1,-.6,-.5c.1,-.3,0,-.7,-.4,-.7c-.5,0,-.7,.3,-.7,.8c0,.5,.5,.9,1.1,.9c1,0,1.7,-.8,2.1,-1.4h.1c.1,.8,.5,1.4,1.3,1.4c1.2,0,2,-1.1,2.4,-1.8l-.1,-.2c-.5,.6,-1.2,1.6,-2,1.6c-.5,0,-.7,-.6,-.7,-1.2c0,-.3,.1,-.8,.2,-1.3l.2,-.7c.1,-.6,.3,-1.3,.6,-1.7c.2,-.2,.6,-.9,1,-.9c.4,0,.3,.3,.3,.6c0,.4,.1,.6,.5,.6c.3,0,.5,-.3,.5,-.6Z" class="g0_321"/>
<path d="M352.5,449.9c-.7,0,-1.2,-.6,-1.2,-1.3c0,-.6,.3,-1,.8,-1c-.1,-.3,-.4,-.4,-.7,-.4c-.2,0,-.3,0,-.5,.1c-.4,.1,-.7,.6,-.7,1.1c0,.3,.1,.5,.2,.7c.4,.6,1.1,1,2.2,1c.8,0,1.4,-.2,1.8,-.6c.4,-.3,.8,-.8,.8,-1.5c0,-.2,-.1,-.5,-.2,-.7c-.2,-.6,-.8,-1.1,-1.5,-1.3c.4,-.1,.8,-.4,1,-.7c.2,-.3,.4,-.7,.4,-1.2c0,-.2,0,-.5,-.1,-.7c-.4,-.7,-1.2,-1,-2.2,-1c-.6,0,-1.1,.1,-1.5,.4c-.3,.2,-.6,.5,-.6,1c0,.3,.1,.6,.3,.7c.1,.2,.4,.3,.7,.3c.2,0,.3,0,.5,-.1c.1,0,.2,-.1,.2,-.2c-.4,0,-.7,-.4,-.7,-.8c0,-.6,.5,-1.1,1.1,-1.1c.8,0,1.2,.7,1.2,1.6c0,.9,-.3,1.8,-1.1,1.8c-.2,-.1,-.4,-.2,-.6,-.2c-.2,0,-.5,.1,-.5,.3c0,.2,.3,.3,.5,.3c.3,0,.5,-.1,.7,-.2c.9,0,1.1,.8,1.1,1.7c0,1.1,-.4,2,-1.4,2Z" class="g0_321"/>
<path d="M360.8,444.3h7.6v-.9h-7.6Z" class="g0_321"/>
<path d="M379.9,442.2c0,-.6,-.5,-1,-1,-1c-.3,0,-.7,.1,-1,.3c-.3,.3,-.6,.6,-.8,.9c0,-.6,-.5,-1.2,-1.1,-1.2c-1.1,0,-2.1,1.2,-2.4,2l.2,.1c.3,-.5,1.1,-1.7,2,-1.7c.2,0,.3,.5,.3,1c0,.2,0,.6,-.2,1.1l-.3,1.2c-.2,.6,-.4,1.4,-.7,1.8c-.2,.2,-.5,.6,-.8,.6c-.4,0,-.7,-.1,-.6,-.5c0,-.3,0,-.7,-.4,-.7c-.5,0,-.7,.3,-.7,.8c0,.5,.5,.9,1.1,.9c1,0,1.7,-.8,2.1,-1.4c.1,.8,.5,1.4,1.4,1.4c1.2,0,2,-1.1,2.4,-1.8l-.2,-.2c-.5,.6,-1.1,1.6,-1.9,1.6c-.5,0,-.7,-.6,-.7,-1.2c0,-.3,.1,-.8,.2,-1.3l.2,-.7c.1,-.6,.3,-1.3,.6,-1.7c.2,-.2,.6,-.9,.9,-.9c.5,0,.4,.3,.4,.6c0,.4,.1,.6,.5,.6c.3,0,.5,-.3,.5,-.6Z" class="g0_321"/>
<path d="M381.4,443v.1c.3,0,.8,.1,1,.1c.3,.2,.3,.3,.3,.8v4.7c0,.3,0,.5,0,.6c-.1,.5,-.7,.6,-1.2,.6v.1h3.4v-.1c-.4,0,-.9,-.1,-1.1,-.3c-.1,-.2,-.1,-.5,-.1,-.9v-6.3c-.6,.3,-1.6,.5,-2.3,.6Z" class="g0_321"/>
<path d="M387.4,437l-.1,.3c1.9,1.5,2.5,3.2,2.5,6.5c0,3.3,-.6,5.1,-2.5,6.6l.1,.3c2.1,-1.3,3.7,-4.1,3.7,-6.8c0,-3.1,-1.5,-5.5,-3.7,-6.9Z" class="g0_321"/>
<path d="M397.7,437c-2.2,1.4,-3.7,3.8,-3.7,6.9c0,2.7,1.6,5.5,3.6,6.8l.2,-.3c-2,-1.5,-2.5,-3.3,-2.5,-6.6c0,-3.3,.6,-5,2.5,-6.5l-.1,-.3Z" class="g0_321"/>
<path d="M397.8,449.8c0,.6,.5,1,1.1,1c.5,0,.8,-.2,1.3,-.6c.8,-.7,2.1,-2.2,2.8,-3.4c.4,-.6,.8,-1.2,1.1,-1.8c.3,-.8,1.1,-2.1,1.1,-2.9c0,-.3,-.1,-.5,-.2,-.6c-.1,-.2,-.2,-.3,-.4,-.3c-.2,0,-.3,.1,-.5,.2c-.1,.1,-.2,.4,-.2,.6c0,.5,.2,1,.2,1.4c0,.6,-.2,1.1,-.4,1.6c-.3,.5,-.5,.8,-.8,1.4h-.1l-.3,-1.9c-.2,-.6,-.4,-1.7,-.5,-2.1c-.2,-.7,-.3,-1.2,-1.3,-1.2c-1.1,0,-1.3,1.8,-1.6,2.5l.3,.2c.1,-.6,.6,-2.4,1.1,-2.4c.3,0,.4,1.1,.5,1.3c.1,.3,.2,.7,.3,1.4l.6,3.5c-.4,.8,-1.2,1.6,-1.8,2.1c-.2,.2,-.6,.3,-.7,.3c-.1,0,-.2,-.1,-.3,-.2c-.2,-.2,-.2,-.7,-.7,-.7c-.4,0,-.6,.3,-.6,.6Z" class="g0_321"/>
<path d="M408,445.4c-.7,0,-1.1,-.5,-1.1,-1.2c0,-.8,.4,-1.6,1.3,-1.6c1.2,0,1.3,1,1.3,1.9c0,.9,-.2,1.5,-.7,2.1c-.2,.4,-.6,.9,-1.1,1.4c-.5,.5,-1.1,1.1,-1.8,1.7v.3h4.5l.4,-2h-.3c-.1,.2,-.2,.4,-.3,.5c-.1,.4,-.4,.6,-1,.6h-2.1V449c.5,-.3,1,-.7,1.4,-1c.8,-.7,1.5,-1.4,2,-2.3c.1,-.4,.2,-.8,.2,-1.2c0,-.3,0,-.6,-.1,-.8c-.4,-.8,-1.1,-1.3,-2.2,-1.3c-.7,0,-1.4,.2,-1.8,.6c-.3,.3,-.7,.8,-.7,1.4c0,.5,.2,.8,.4,1.1c.2,.2,.5,.4,.9,.4c.4,0,.7,-.2,.8,-.5Z" class="g0_321"/>
<path d="M416.4,444.3H424v-.9h-7.6Z" class="g0_321"/>
<path d="M427.3,449.8c0,.6,.4,1,1.1,1c.4,0,.8,-.2,1.3,-.6c.8,-.7,2,-2.2,2.8,-3.4c.3,-.6,.7,-1.2,1,-1.8c.4,-.8,1.1,-2.1,1.1,-2.9c0,-.3,0,-.5,-.1,-.6c-.1,-.2,-.3,-.3,-.5,-.3c-.2,0,-.3,.1,-.4,.2c-.2,.1,-.2,.4,-.2,.6c0,.5,.2,1,.2,1.4c0,.6,-.2,1.1,-.5,1.6c-.2,.5,-.4,.8,-.8,1.4h-.1l-.3,-1.9c-.1,-.6,-.3,-1.7,-.4,-2.1c-.2,-.7,-.3,-1.2,-1.3,-1.2c-1.2,0,-1.4,1.8,-1.6,2.5l.3,.2c.1,-.6,.5,-2.4,1,-2.4c.3,0,.5,1.1,.5,1.3c.1,.3,.2,.7,.3,1.4l.6,3.5c-.3,.8,-1.2,1.6,-1.8,2.1c-.2,.2,-.5,.3,-.7,.3c-.1,0,-.2,-.1,-.2,-.2c-.2,-.2,-.2,-.7,-.7,-.7c-.4,0,-.6,.3,-.6,.6Z" class="g0_321"/>
<path d="M436.2,443v.1c.4,0,.8,.1,1,.1c.3,.2,.3,.3,.3,.8v4.7c0,.3,0,.5,0,.6c-.1,.5,-.7,.6,-1.2,.6v.1h3.4v-.1c-.4,0,-.9,-.1,-1.1,-.3c-.1,-.2,-.1,-.5,-.1,-.9v-6.3c-.6,.3,-1.6,.5,-2.3,.6Z" class="g0_321"/>
<path d="M442.2,437l-.1,.3c1.9,1.5,2.5,3.2,2.5,6.5c0,3.3,-.6,5.1,-2.5,6.6l.1,.3c2.1,-1.3,3.7,-4.1,3.7,-6.8c0,-3.1,-1.5,-5.5,-3.7,-6.9Z" class="g0_321"/>
<path d="M451.6,444.3h7.6v-.9h-7.6Z" class="g0_321"/>
<path d="M468.6,437c-2.2,1.4,-3.7,3.8,-3.7,6.9c0,2.7,1.6,5.5,3.7,6.8l.1,-.3c-1.9,-1.5,-2.5,-3.3,-2.5,-6.6c0,-3.3,.6,-5,2.5,-6.5l-.1,-.3Z" class="g0_321"/>
<path d="M477,442.2c0,-.6,-.5,-1,-1,-1c-.3,0,-.7,.1,-1,.3c-.3,.3,-.6,.6,-.8,.9c0,-.6,-.4,-1.2,-1.1,-1.2c-1.1,0,-2.1,1.2,-2.4,2l.2,.1c.4,-.5,1.1,-1.7,2,-1.7c.2,0,.4,.5,.4,1c0,.2,-.1,.6,-.2,1.1l-.4,1.2c-.2,.6,-.4,1.4,-.7,1.8c-.2,.2,-.4,.6,-.8,.6c-.4,0,-.7,-.1,-.6,-.5c.1,-.3,0,-.7,-.4,-.7c-.5,0,-.7,.3,-.7,.8c0,.5,.5,.9,1.1,.9c1,0,1.7,-.8,2.1,-1.4h.1c.1,.8,.5,1.4,1.3,1.4c1.2,0,2,-1.1,2.4,-1.8l-.2,-.2c-.4,.6,-1.1,1.6,-1.9,1.6c-.5,0,-.7,-.6,-.7,-1.2c0,-.3,.1,-.8,.2,-1.3l.2,-.7c.1,-.6,.3,-1.3,.6,-1.7c.2,-.2,.6,-.9,1,-.9c.4,0,.3,.3,.3,.6c0,.4,.1,.6,.5,.6c.3,0,.5,-.3,.5,-.6Z" class="g0_321"/>
<path d="M479.7,445.4c-.6,0,-1,-.5,-1,-1.2c0,-.8,.4,-1.6,1.3,-1.6c1.2,0,1.3,1,1.3,1.9c0,.9,-.3,1.5,-.7,2.1c-.3,.4,-.7,.9,-1.1,1.4c-.5,.5,-1.1,1.1,-1.9,1.7v.3h4.6l.3,-2h-.3c0,.2,-.1,.4,-.2,.5c-.2,.4,-.5,.6,-1,.6h-2.1V449c.5,-.3,.9,-.7,1.4,-1c.7,-.7,1.5,-1.4,1.9,-2.3c.2,-.4,.3,-.8,.3,-1.2c0,-.3,-.1,-.6,-.2,-.8c-.3,-.8,-1.1,-1.3,-2.2,-1.3c-.7,0,-1.3,.2,-1.7,.6c-.4,.3,-.7,.8,-.7,1.4c0,.5,.1,.8,.4,1.1c.2,.2,.5,.4,.9,.4c.4,0,.7,-.2,.7,-.5Z" class="g0_321"/>
<path d="M488.2,444.3h7.6v-.9h-7.6Z" class="g0_321"/>
<path d="M507.3,442.2c0,-.6,-.5,-1,-1,-1c-.4,0,-.7,.1,-1,.3c-.3,.3,-.6,.6,-.8,.9c0,-.6,-.5,-1.2,-1.1,-1.2c-1.1,0,-2.1,1.2,-2.4,2l.2,.1c.3,-.5,1.1,-1.7,2,-1.7c.2,0,.3,.5,.3,1c0,.2,0,.6,-.2,1.1l-.3,1.2c-.2,.6,-.4,1.4,-.7,1.8c-.2,.2,-.5,.6,-.8,.6c-.4,0,-.8,-.1,-.6,-.5c0,-.3,0,-.7,-.4,-.7c-.5,0,-.7,.3,-.7,.8c0,.5,.5,.9,1.1,.9c1,0,1.7,-.8,2.1,-1.4c.1,.8,.5,1.4,1.4,1.4c1.1,0,2,-1.1,2.4,-1.8l-.2,-.2c-.5,.6,-1.1,1.6,-1.9,1.6c-.5,0,-.7,-.6,-.7,-1.2c0,-.3,.1,-.8,.2,-1.3l.2,-.7c.1,-.6,.3,-1.3,.6,-1.7c.2,-.2,.6,-.9,.9,-.9c.5,0,.4,.3,.4,.6c0,.4,.1,.6,.5,.6c.3,0,.5,-.3,.5,-.6Z" class="g0_321"/>
<path d="M508.8,443v.1c.3,0,.8,.1,1,.1c.3,.2,.3,.3,.3,.8v4.7c0,.3,0,.5,0,.6c-.1,.5,-.7,.6,-1.2,.6v.1h3.4v-.1c-.4,0,-.9,-.1,-1.1,-.3c-.1,-.2,-.1,-.5,-.1,-.9v-6.3c-.6,.3,-1.6,.5,-2.3,.6Z" class="g0_321"/>
<path d="M514.8,437l-.1,.3c1.9,1.5,2.5,3.2,2.5,6.5c0,3.3,-.6,5.1,-2.5,6.6l.1,.3c2.1,-1.3,3.7,-4.1,3.7,-6.8c0,-3.1,-1.6,-5.5,-3.7,-6.9Z" class="g0_321"/>
<path d="M525.1,437c-2.2,1.4,-3.7,3.8,-3.7,6.9c0,2.7,1.6,5.5,3.6,6.8l.2,-.3c-2,-1.5,-2.5,-3.3,-2.5,-6.6c0,-3.3,.6,-5,2.5,-6.5l-.1,-.3Z" class="g0_321"/>
<path d="M525.2,449.8c0,.6,.5,1,1.1,1c.5,0,.8,-.2,1.3,-.6c.8,-.7,2.1,-2.2,2.8,-3.4c.4,-.6,.8,-1.2,1.1,-1.8c.3,-.8,1.1,-2.1,1.1,-2.9c0,-.3,-.1,-.5,-.2,-.6c-.1,-.2,-.2,-.3,-.4,-.3c-.2,0,-.3,.1,-.5,.2c-.1,.1,-.2,.4,-.2,.6c0,.5,.2,1,.2,1.4c0,.6,-.2,1.1,-.4,1.6c-.3,.5,-.5,.8,-.8,1.4h-.1l-.3,-1.9c-.2,-.6,-.4,-1.7,-.5,-2.1c-.2,-.7,-.3,-1.2,-1.3,-1.2c-1.1,0,-1.3,1.8,-1.6,2.5l.3,.2c.1,-.6,.6,-2.4,1.1,-2.4c.3,0,.4,1.1,.5,1.3c.1,.3,.2,.7,.3,1.4l.6,3.5c-.4,.8,-1.2,1.6,-1.8,2.1c-.3,.2,-.6,.3,-.7,.3c-.1,0,-.2,-.1,-.3,-.2c-.2,-.2,-.2,-.7,-.7,-.7c-.4,0,-.6,.3,-.6,.6Z" class="g0_321"/>
<path d="M535.6,449.9c-.7,0,-1.3,-.6,-1.3,-1.3c0,-.6,.3,-1,.8,-1c0,-.3,-.4,-.4,-.7,-.4c-.2,0,-.3,0,-.5,.1c-.4,.1,-.6,.6,-.6,1.1c0,.3,0,.5,.1,.7c.4,.6,1.2,1,2.2,1c.8,0,1.4,-.2,1.9,-.6c.4,-.3,.7,-.8,.7,-1.5c0,-.2,0,-.5,-.1,-.7c-.3,-.6,-.9,-1.1,-1.6,-1.3c.4,-.1,.8,-.4,1,-.7c.3,-.3,.5,-.7,.5,-1.2c0,-.2,-.1,-.5,-.2,-.7c-.3,-.7,-1.1,-1,-2.2,-1c-.6,0,-1.1,.1,-1.5,.4c-.3,.2,-.6,.5,-.6,1c0,.3,.2,.6,.3,.7c.2,.2,.4,.3,.7,.3c.2,0,.4,0,.5,-.1c.1,0,.2,-.1,.2,-.2c-.4,0,-.7,-.4,-.7,-.8c0,-.6,.5,-1.1,1.1,-1.1c.8,0,1.2,.7,1.2,1.6c0,.9,-.2,1.8,-1.1,1.8c-.1,-.1,-.4,-.2,-.6,-.2c-.2,0,-.5,.1,-.5,.3c0,.2,.3,.3,.6,.3c.2,0,.5,-.1,.6,-.2c.9,0,1.2,.8,1.2,1.7c0,1.1,-.4,2,-1.4,2Z" class="g0_321"/>
<path d="M543.8,444.3h7.6v-.9h-7.6Z" class="g0_321"/>
<path d="M554.7,449.8c0,.6,.4,1,1.1,1c.4,0,.8,-.2,1.3,-.6c.8,-.7,2,-2.2,2.8,-3.4c.3,-.6,.7,-1.2,1,-1.8c.4,-.8,1.1,-2.1,1.1,-2.9c0,-.3,0,-.5,-.1,-.6c-.1,-.2,-.3,-.3,-.5,-.3c-.2,0,-.3,.1,-.4,.2c-.2,.1,-.2,.4,-.2,.6c0,.5,.2,1,.2,1.4c0,.6,-.2,1.1,-.5,1.6c-.2,.5,-.4,.8,-.8,1.4h-.1l-.3,-1.9c-.1,-.6,-.3,-1.7,-.4,-2.1c-.2,-.7,-.3,-1.2,-1.3,-1.2c-1.2,0,-1.4,1.8,-1.6,2.5l.3,.2c.1,-.6,.5,-2.4,1,-2.4c.3,0,.5,1.1,.5,1.3c.1,.3,.2,.7,.3,1.4l.6,3.5c-.3,.8,-1.2,1.6,-1.8,2.1c-.2,.2,-.5,.3,-.7,.3c-.1,0,-.2,-.1,-.2,-.2c-.2,-.2,-.2,-.7,-.7,-.7c-.4,0,-.6,.3,-.6,.6Z" class="g0_321"/>
<path d="M563.6,443v.1c.4,0,.8,.1,1,.1c.3,.2,.3,.3,.3,.8v4.7c0,.3,0,.5,0,.6c-.1,.5,-.7,.6,-1.2,.6v.1h3.4v-.1c-.4,0,-.9,-.1,-1.1,-.3c-.1,-.2,-.1,-.5,-.1,-.9v-6.3c-.6,.3,-1.6,.5,-2.3,.6Z" class="g0_321"/>
<path d="M569.6,437l-.1,.3c1.9,1.5,2.5,3.2,2.5,6.5c0,3.3,-.6,5.1,-2.5,6.6l.1,.3c2.1,-1.3,3.7,-4.1,3.7,-6.8c0,-3.1,-1.5,-5.5,-3.7,-6.9Z" class="g0_321"/>
<path d="M336.1,454.4H574.7v-.9H336.1Z" class="g0_321"/>
<path d="M454.8,461.6c-.9,0,-1.4,-.6,-1.4,-1.6c0,-1,.5,-2.2,1.8,-2.2c1.6,0,1.8,1.4,1.8,2.6c0,1.3,-.4,2,-1,2.9c-.4,.6,-.9,1.2,-1.5,1.9c-.7,.7,-1.5,1.5,-2.6,2.4v.4h6.3l.5,-2.8h-.4c-.1,.3,-.3,.5,-.4,.7c-.2,.5,-.6,.8,-1.3,.8h-2.9v-.1c.6,-.4,1.3,-1,1.9,-1.4c1,-.9,2.1,-1.9,2.6,-3.1c.3,-.6,.4,-1.1,.4,-1.7c0,-.4,-.1,-.8,-.2,-1.1c-.5,-1.1,-1.5,-1.8,-3,-1.8c-1,0,-1.9,.4,-2.4,.8c-.5,.5,-1,1.1,-1,2c0,.7,.2,1.1,.6,1.5c.2,.3,.6,.5,1.2,.5c.5,0,.9,-.2,1,-.7Z" class="g0_321"/>
</svg>