<?xml version="1.0" encoding="UTF-8" standalone="no"?>
<!DOCTYPE svg PUBLIC "-//W3C//DTD SVG 1.1//EN"
"http://www.w3.org/Graphics/SVG/1.1/DTD/svg11.dtd">
<svg viewBox="0 0 811 1017" version="1.1" xmlns="http://www.w3.org/2000/svg" xmlns:xlink="http://www.w3.org/1999/xlink">
<defs>
<style type="text/css"><![CDATA[
.g0_423{
fill: #FFF;
}
.g1_423{
fill: #838485;
}
.g2_423{
fill: #8F8F8F;
}
.g3_423{
fill: #999898;
}
.g4_423{
fill: #A0A1A0;
}
.g5_423{
fill: #AAABAB;
}
.g6_423{
fill: #B4B4B5;
}
.g7_423{
fill: #BDBDBD;
}
.g8_423{
fill: #C6C5C4;
}
.g9_423{
fill: #CDCCCB;
}
.ga_423{
fill: #D5D5D3;
}
.gb_423{
fill: #DBDBDB;
}
.gc_423{
fill: #E3E2E2;
}
.gd_423{
fill: #E9E9E9;
}
.ge_423{
fill: #EDEFF0;
}
.gf_423{
fill: #F3F6F7;
}
.gg_423{
fill: #F8F8F7;
}
.gh_423{
fill: #F9FBFB;
}
.gi_423{
fill: none;
stroke: #040504;
stroke-width: 0.609;
stroke-linejoin: round;
}
.gj_423{
fill: #040504;
}
.gk_423{
fill: none;
stroke: #040504;
stroke-width: 0.609;
stroke-linecap: square;
}
.gl_423{
fill: none;
stroke: #040504;
stroke-width: 2.284;
stroke-linejoin: round;
}
.gm_423{
fill: #000;
}
]]></style>
</defs>
<path d="M171.2,357.9H443.1V86H171.2Z" class="g0_423"/>
<path d="M263.2,357.9h10.7l-4.2,-.5l-2.2,-.2l-2.1,-.2l-2.2,.6l-.4,.3h.4Z" class="g1_423"/>
<path d="M173.3,135.2l.7,-2.1c2.1,-5.1,.1,-11.6,-.5,-17.1l-.2,-1.1l-.1,1.1c-.2,5.6,-.9,11.5,-.1,17.1l.2,2.1Z" class="g1_423"/>
<path d="M256.8,357.9h6l.4,-.3l2.2,-.6l2.1,.2l2.2,.2l4.2,.5h15l-2.1,-1.3l-1.4,-.8c-3.5,-2.1,-7.6,-1.6,-11.5,-1.9l-2.1,-.3h-2.1c-3.9,-.6,-8.6,-.1,-11.8,2.2l-1.1,.8l-1.6,1.3h1.6Z" class="g2_423"/>
<path d="M173.3,135.2l-.2,-2.1c-.8,-5.6,-.1,-11.5,.1,-17.1l.1,-1.1l.2,1.1c.6,5.5,2.6,12,.5,17.1l-.7,2.1Zm0,8.1l1.1,-1.6l.8,-2.2c1.2,-2.9,2.3,-9.7,2.1,-12.8l-.2,-2.2l-.2,-2.1c-.3,-5,-.3,-10.3,-2.1,-15l-.8,-2.1l-.7,-1.1l-.2,1.1c-1.3,10.8,-1.7,25.6,-.1,36.4l.3,1.6Z" class="g2_423"/>
<path d="M173,141.7l-.3,-2.2c-1.2,-10.3,-.9,-23.9,.4,-34.2l.2,-1.1l.7,1.1l.8,2.1c1.8,4.7,1.8,10,2.1,15l.2,2.1l.2,2.2c.2,3.1,-.9,9.9,-2.1,12.8l-.8,2.2l-1.1,1.6l-.3,-1.6Zm75.2,205.5v-4.3l-2.1,-2.1V317.2H244l-2.2,-2.1h-8.5L231.1,313v-6.5L229,304.4V278.7h-4.3l-8.6,-8.6v-4.3L214,263.7v-8.6L211.8,253V223l-6.4,-6.4v-2.1H199l-2.1,-2.2V199.5l-2.2,-2.2V163.1h-8.6l-4.2,-4.3l-2.2,-2.2V96.7l2.2,-2.1H244l2.1,2.1v2.1l2.1,2.2v8.5h34.3l2.1,2.2h12.9l2.1,2.1V116l2.2,2.1h2.1l2.2,2.1l2.1,2.2l2.1,2.1v2.2h30l2.2,2.1H351l2.2,2.2h4.2l6.5,6.4v2.1l2.1,2.2v2.1h27.8l2.2,2.1h4.3l2.1,2.2h4.3l2.1,2.1l2.2,2.2l4.3,4.2v4.3h12.8l2.1,2.2h2.2l2.1,2.1v45l-2.1,2.1h-2.2l-2.1,2.2h-15v4.2l-2.1,2.2l-2.2,2.1l-2.1,2.2h-2.1l-2.2,2.1l-2.1,2.1v4.3l2.1,2.2v10.7h12.9l2.1,2.1v2.2l2.1,2.1h2.2l2.1,2.1l2.2,2.2l2.1,2.1v2.2l4.3,4.2V268l2.1,2.1v21.4l-4.3,4.3l-2.1,2.2h-8.6l-2.1,2.1V313l-2.1,2.1h-8.6l-2.1,2.1h-2.2v4.3l-2.1,2.2v6.4l-2.2,2.1H385.3l-2.2,2.2v8.5l-6.4,6.5H355.3l-6.4,-6.5v-2.1h-2.2l-2.1,-2.2l-2.1,-2.1l-2.2,-2.1h-2.1L336,332.2h-2.1l-2.2,-2.1V317.2H321l-2.1,-2.1h-4.3l-4.3,4.3v2.1l-2.1,2.2l-2.1,2.1l-2.2,2.1h-4.3v15l-2.1,2.2v2.1l-2.1,2.2h-45l-2.2,-2.2Zm-74.9,10.7h81.9l1.6,-1.3l1.1,-.8c3.2,-2.3,7.9,-2.8,11.8,-2.2h2.1l2.1,.3c3.9,.3,8,-.2,11.5,1.9l1.4,.8l2.1,1.3H443.1V86H171.2V357.9h2.1Z" class="g3_423"/>
<path d="M262.5,345.1l-1.4,-.6l-2.2,-.9l-1.4,-.7l-.7,-.5l-1.6,-1.6l-.5,-.5l-1.1,-1.7l-.8,-2.1l-.3,-.7l-.5,-1.4l-.7,-2.2l-.6,-2.1l-.3,-1.4c-.9,-3.9,-1.1,-7.6,-1.3,-11.5l-.2,-2.1l-.7,-1.9l-.2,-.3l-1.9,-1.8c-3.9,-1.7,-4.7,-1.4,-7.7,-4.6l-.9,-1l-.7,-1.1c-1.8,-4,-2.2,-6.4,-3.2,-10.7l-.2,-2.2l-.1,-1l-.2,-1.1l-.1,-2.1l-.2,-2.2l-.1,-2.1c-.4,-4.3,-.8,-8.5,-1,-12.9l-.1,-2.1l-.1,-2.2l-.3,-2.1l-.1,-.2L229,261.8l-.7,-.2l-1.5,-.6l-2.1,-.9l-1.1,-.7l-1.1,-.8l-1.6,-1.3c-5.3,-7.1,-4.6,-19.3,-5.4,-27.9l-.1,-2.1l-.1,-2.1l-.1,-2.2l-.1,-2.1l-.2,-2.2v-2.1l-.1,-2.1l-.5,-2.2l-.3,-.7l-2.2,-1l-1.4,-.4l-.7,-.2l-2.1,-.7L205.4,208l-2.1,-1.7c-2,-2.6,-3.3,-5.7,-3.6,-9l-.3,-2.1l-.1,-2.2l-.2,-2.1l-.1,-2.1c-.2,-4.3,-.6,-8.7,-.5,-12.9l-.1,-2.1l-.1,-2.2c-.3,-4.6,.2,-8.2,-.9,-12.8l-.4,-2.2l-.1,-1l-1.1,-1.1l-1.1,-1.4l-1.1,-.7l-1,-.8l-1.5,-1.4l-.7,-.7l-1,-1.4l-1.1,-2.2l-2.2,-2.1l-1.2,-2.1l-.9,-2.2l-.6,-2.1c-.9,-4.3,-1.6,-8.5,-1.2,-12.9l.2,-2.1l.1,-2.2l.1,-2.1c.7,-10.6,2.7,-17.8,14.3,-20l2.1,-.2l2.1,-.2l2.2,-.3l2.1,-.2l2.2,-.2h2.1l4.3,-.3l2.1,.3c3.5,.4,7.5,.9,10.7,2.4l2.2,1.2l.7,.4c2.8,2,6.3,3.4,8.4,6.4l1.2,2.1l2.1,2.2l.4,.1c5.2,1.2,7.7,1.2,12.9,1.2l2.1,.1l2.1,.1c4.3,.1,8.7,.5,12.9,.5l2.1,.1l2.2,.2l2.1,.2l2.2,.1l2.1,.2l2.1,.6l2.2,.6l.7,.3l1.4,.6l2.2,1.1l.4,.4l1.7,2.1l1.2,2.2l1,2.1l.4,2.2l1.2,2.1l.5,.2l2.1,.5l2.2,.1l2.1,.1l2.2,.1l2.1,.1l2.1,.1c9.9,1.1,23.7,-.4,32.2,4.8l.5,.4l1.6,1.6l.4,.6l1.1,2.1l.6,1.4l.3,.8l.6,2.1l1.3,1.6l.8,.5l1.3,.3l2.2,.1l2.1,.1l2.1,.2l2.2,.1l2.1,.3c4.4,.5,8.5,.7,12.9,.9l2.1,.2l2.2,.2l2.1,.2l2.1,.4c3.5,.2,6.9,1.5,9.7,3.5l1,.8l1.3,1.3l.9,1.4l.3,.7l1,2.2l.6,2.1l.2,.3l1.7,1.9l.5,.1l2.1,.2l2.2,.2l2.1,.2l2.1,.2c12.6,2,24,4.6,21.9,20.5v2.1l-.2,2.2l-.3,2.1c-.7,5.2,.5,5.6,-2.5,10.7l-1.7,2.2l-2.2,2.1l-2.1,1.3l-2.2,.8l-2.1,.8l-2.1,1.4l-2.2,.6l-2.1,.5l-2.2,.4l-2.1,.3l-2.1,.2l-1.1,.1l-1.1,.2l-2.1,.5l-1.2,1.5l-.4,2.1l-.4,2.1c-1,6,-5.2,8.8,-10.9,9.5l-2.1,.3l-2.2,.7l-.2,.2l.1,2.2l.1,.1l2.2,.6l2.1,.4l2.2,.4l2.1,.6l2.1,1.1l1.3,1.1l.9,1l.7,1.1l.8,2.2l.6,2.1l.4,2.1l.3,2.2l1.2,2.1l.3,.3l2.1,.5l2.2,.3l2.1,.5l1.6,.6l.5,.2l2.2,1l1,.9l1.1,1.3l.6,.8c2.3,4.2,3,15,3.7,20l1.1,1.5l1,2.1l1.5,2.1l-1.5,2.2l-1,2.1l-1.1,1.4l-.1,.8l-.4,2.1l-.3,2.1l-.6,2.2l-.7,2.1L414,298l-.9,2.1l-.6,2.1l-1.1,2.2l-.4,.7c-2.5,4.6,-6.5,4.8,-10.7,6.9l-.7,.9l-1.5,1.8l-.4,.4l-.8,2.1c-1.4,4.6,-2.6,8.2,-7.3,10.1l-1.5,.6l-.7,.3c-6.1,1.6,-9.2,3.5,-16,4l-1.1,.6l-2.1,1.6l-2.2,.7l-1.1,-.7l-3.2,-1.6l-.7,-.6l-1.4,-.2l-2.2,-.2l-2.1,-.3l-2.1,-.3l-2.2,-.3l-2.1,-.4l-2.2,-.3l-.7,-.1l-1.4,-.4l-2.1,-.7l-2.2,-.8l-.4,-.3l-1.7,-1.4l-.6,-.7l-1.1,-2.1l-.5,-1.1l-.4,-1.1l-.4,-2.1l-.5,-2.2l-.6,-2.1l-.2,-.2l-2.2,-1.4l-2.1,-.3l-1.4,-.3l-.7,-.1l-2.2,-.5l-2.1,-1l-.9,-.5L321,309.7l-.8,-1l-1.1,-2.2l-.2,-.5l-.5,-1.6l-.5,-2.2l-.3,-2.1L317,298l-.2,-.3l-2.2,-.1l-.3,.4l-.6,2.1c-.7,6.5,-2.6,11.8,-9.8,13l-2.1,.4l-2.2,.4l-1.4,1.2l-.6,2.1l-.1,1.1l-.1,1.1l-.2,2.1l-.3,2.2l-.4,2.1l-.5,2.1l-.6,1.8l-.3,.4l-1.3,2.1l-.6,2.2l-2.1,4.2l-2.2,2.2l-2.1,1.7c-6.5,3.3,-14.2,2.2,-21.4,3l-2.2,-.2l-.7,-.2Zm-12.1,4.3h45l2.1,-2.2v-2.1l2.1,-2.2v-15h4.3l2.2,-2.1l2.1,-2.1l2.1,-2.2v-2.1l4.3,-4.3h4.3l2.1,2.1h10.7v12.9l2.2,2.1H336l2.2,2.2h2.1l2.2,2.1l2.1,2.1l2.1,2.2h2.2v2.1l6.4,6.5h21.4l6.4,-6.5v-8.5l2.2,-2.2h12.8l2.2,-2.1v-6.4l2.1,-2.2v-4.3h2.2l2.1,-2.1h8.6l2.1,-2.2V300.1l2.1,-2.1h8.6l2.1,-2.2l4.3,-4.3V270.1L432.4,268v-2.2l-4.3,-4.2v-2.2L426,257.3l-2.2,-2.2L421.7,253h-2.2l-2.1,-2.1v-2.2l-2.1,-2.1H402.4V235.9l-2.1,-2.2v-4.3l2.1,-2.1l2.2,-2.1h2.1l2.1,-2.2l2.2,-2.1l2.1,-2.2v-4.2h15l2.1,-2.2h2.2l2.1,-2.1v-45l-2.1,-2.1h-2.2l-2.1,-2.2H415.3v-4.3L411,152.4l-2.2,-2.2l-2.1,-2.1h-4.3l-2.1,-2.2H396l-2.2,-2.1H366v-2.1l-2.1,-2.2v-2.1L357.4,131h-4.2L351,128.8h-8.5l-2.2,-2.1h-30v-2.2l-2.1,-2.1l-2.1,-2.2l-2.2,-2.1h-2.1L299.6,116v-2.2l-2.1,-2.1H284.6l-2.1,-2.2H248.2V101l-2.1,-2.2V96.7L244,94.5H181.9l-2.2,2.2v59.9l6.4,6.5h8.6v34.2l2.2,2.2v12.8l2.1,2.2h6.4v2.1l6.4,6.4v30l2.2,2.1v8.6l2.1,2.1v4.3l8.6,8.6H229v25.7l2.1,2.1v6.4l2.2,2.2h8.5l2.2,2.1h2.1v23.6l2.1,2.1v4.3l2.2,2.2Z" class="g4_423"/>
<path d="M262.4,340.8l-1.3,-.9l-1.4,-1.3l-.7,-.7l-1.3,-1.4l-.9,-1.3l-.5,-.8c-2,-3.8,-3.1,-4,-4.3,-8.6l-.5,-2.1l-.5,-2.2c-.5,-4.3,-.6,-6.4,-2.2,-10.7l-.6,-1.7l-.4,-.4l-1.7,-2.2L244,305.3c-2.2,-1.8,-4.7,-4.6,-5.5,-7.3l-1,-2.2l-.9,-2.1c-1.2,-4.1,-1.7,-8.7,-2.3,-12.9l-.3,-2.1l-.3,-2.1l-.3,-2.2l-.1,-2.1l-.3,-2.2l-.1,-2.1l-.2,-2.2l-.3,-2.1l-.7,-2.1l-.6,-1.7l-.5,-.5L229,257.8l-.9,-.5l-1.3,-.9c-3,-2.2,-5.3,-5.6,-6.4,-9.1l-.2,-.7l-.7,-2.2l-.4,-2.1l-.4,-2.1c-.4,-3.7,-1.1,-7.1,-1.3,-10.8l-.3,-2.1l-.3,-2.1c-.5,-4,-.2,-9.3,-1.3,-12.9l-.9,-2.1l-.6,-1.5l-1.2,-.7l-1,-.6l-2.1,-1l-.7,-.5l-1.4,-1.1l-1.3,-1c-1.7,-1.8,-4.1,-6.1,-4.2,-8.6l-.3,-2.2l-.4,-2.1c-.2,-3.6,-.9,-7.1,-1,-10.7l-.2,-2.1v-2.2l-.2,-2.1l-.1,-2.2c-.4,-3.8,0,-7.7,-.9,-11.5l-.2,-1.3l-.4,-2.2l-.4,-2.1l-.4,-2.1l-.3,-2.2l-.4,-2.1v-.6l-1.1,-1.6l-1.1,-.8l-2.1,-1.3L190.4,142l-.3,-.3l-1.8,-2.2L187,137.4l-.8,-2.2c-2.2,-6.3,-2.3,-6.1,-1.2,-12.8l.3,-2.2l.3,-2.1c.9,-4.7,.5,-6.4,3.5,-10.7l1.3,-1.5l.6,-.6l1.6,-1.4l1.3,-.8c2.2,-1.7,6.5,-2.2,9.4,-2.8l2.1,-.4l2.2,-.3l2.1,-.3l2.1,-.2L214,99l2.1,.4l2.2,.6l2.1,.6l1.1,.4l1,.4l2.2,1.2l.8,.5l1.3,.9l1.3,1.3l.9,1l.9,1.1l1.2,2.1l2.2,1.5l.8,.7c3.9,.6,7.7,1.4,11.6,2.1l.4,.1l2.1,.4c4.3,.1,8.6,.4,12.9,.7l2.1,.2l2.2,.2l2.1,.2l2.2,.1c4.3,.5,8.6,.8,12.8,1.8l2.1,1c3,1.3,7,5,8,8.2l.6,.9l.8,1.2l1.4,.6l2.1,.9l2.1,.4c11.5,1,23.2,1.3,34.3,4.1l1.1,.4l1,.5l2.2,1.1c2.5,1.9,4.6,4.1,5.9,7l.5,.5l1.4,1.6c3.8,1.9,8.1,1.5,12.2,2.2l1.4,.2l2.1,.3l2.2,.3l2.1,.4l2.2,.3l2.1,.2l2.1,.3l1.1,.1c3.3,.6,7.6,1,10.7,2.2l1.1,.4l2.1,1.2c3.3,2,4.8,3.5,6.7,6.9l1.9,1.9l.2,.3l1.9,.7l2.2,.8c3.7,.4,7,.9,10.7,1.8l2.1,.7l.7,.2c3.6,2,7.6,3.4,10.4,6.5l1.8,2.1l1.2,2.2l.5,2.1l-.3,2.1l-.2,2.2l-.4,2.1c-.7,3.6,-.7,7.4,-2.4,10.7l-.6,1.1l-.7,1.1c-2.9,3.1,-5.1,3.7,-7.8,7.2l-1.9,1.3l-.3,.2l-2.1,.9l-2.2,.7l-1.6,.4l-.5,.1l-2.1,.4l-2.2,.3l-2.1,.4l-1.3,.9l-.9,1l-1,1.2c-.9,3.6,-2.2,6.9,-5.4,9.2l-2.1,1.3l-.4,.2l-1.8,.7l-2.1,.6l-2.2,.8l-2.1,2.1l.2,2.2l1.9,1.9l.7,.2l1.5,.6l2.1,.6l2.2,1l2.1,1.3l1.1,.8l1,1.2l.6,1l1.3,2.1l.3,.8l.4,1.3l.5,2.2l1.2,1.9l.1,.2l2.1,2.2l2.1,.7c7.1,1.9,9.7,5.1,11.5,12.1l.5,2.1l.4,2.2l.5,2.1l.2,2.2c1.7,7.2,1.2,14.7,-1.9,21.4l-.5,.8l-.9,1.3l-1.2,1.5l-.7,.7l-1.2,2.1l-.3,.4l-1.2,1.7l-.9,1.1l-1.1,1.1l-1,.9l-1.8,1.2l-.4,.3l-2.1,1.4l-.3,.5l-1.4,2.1l-.5,.6l-1.4,1.5l-.7,.8l-1.4,1.4c-3.1,6.1,-5.1,8.4,-11.5,11.3l-2.1,1.4l-.3,.1c-7.3,3.4,-15.5,4.2,-23.3,2.4l-1,-.2l-1.1,-.2l-2.1,-.5l-2.2,-.5c-7.1,-1.5,-11.9,-4.1,-14,-11.7l-.8,-2.1L336,315l-2.1,-2.1l-2.2,-1.3l-2.1,-.5l-.7,-.3l-1.4,-.6l-2.2,-1.1l-.6,-.4l-1.5,-1.4l-.7,-.8l-1.3,-2.1L321,304l-.7,-1.8l-.6,-2.1l-.8,-1.8l-.1,-.3l-2,-2.1l-2.2,-.1l-2.1,2.2l-.8,2.1l-.6,2.1c-1.1,3.4,-3.8,7,-7.2,8.3l-.7,.3l-1.4,.5c-5.8,1.2,-5.4,5.5,-6.3,10.2l-.1,.6l-.4,1.6l-.8,2.1l-1,2.1l-1.5,2.2l-.6,.7l-1.9,1.4l-.3,.5l-1.2,1.7l-.9,1.2l-.9,.9l-1.3,1.1l-1.2,1l-.9,.7l-2.1,.6l-2.2,.4l-2.1,.2l-4.3,.6l-2.1,.2l-2.2,.2l-2.1,.2l-2.2,-.4l-.8,-.5Zm.8,4.5l2.2,.2l2.1,-.2c6.5,-.5,13.3,.2,19.3,-2.8l2.1,-1.7l2.2,-2.2l2.1,-4.2l.6,-2.2l1.3,-2.1l.3,-.4l.6,-1.8l.5,-2.1l.4,-2.1l.3,-2.2l.2,-2.1l.1,-1.1l.1,-1.1l.6,-2.1l1.4,-1.2l2.2,-.4l2.1,-.4c7.2,-1.2,9.1,-6.5,9.8,-13l.6,-2.1l.3,-.4l2.2,.1l.2,.3l.6,2.1l.3,2.1l.5,2.2l.5,1.6l.2,.5l1.1,2.2l.8,1l1.3,1.1l.9,.5l2.1,1l2.2,.5l.7,.1l1.4,.3l2.1,.3l2.2,1.4l.2,.2l.6,2.1l.5,2.2l.4,2.1l.4,1.1l.5,1.1l1.1,2.1l.6,.7l1.7,1.4l.4,.3l2.2,.8l2.1,.7l1.4,.4l.7,.1l2.2,.3l2.1,.4l2.2,.3l2.1,.3l2.1,.3l2.2,.2l1.4,.2l.7,.6l3.2,1.6l1.1,.7l2.2,-.7l2.1,-1.6l1.1,-.6c5.8,-.5,8.7,-1.7,13.9,-3.4l2.1,-.6l.7,-.3c5.1,-2,6.3,-3.5,8.2,-8.5l.6,-2.2l.8,-2.1l.4,-.4l1.5,-1.8l.7,-.9l2.1,-.9l.7,-.3l1.5,-.6l2.1,-.8l1.1,-.7l1,-.9l1.3,-1.3l.9,-1.4l.4,-.7l1.1,-2.2l.6,-2.1L414,298l1.3,-2.2l.7,-2.1l.6,-2.2l.3,-2.1l.4,-2.1l.1,-.8l1.1,-1.4l1,-2.1l1.5,-2.2l-1.5,-2.1l-1,-2.1l-1.1,-1.5c-.7,-5,-1.4,-15.8,-3.7,-20l-.6,-.8L412,253l-1,-.9l-2.2,-1l-.5,-.2l-1.6,-.6l-2.1,-.5l-2.2,-.3l-2.1,-.5l-.3,-.3l-1.2,-2.1l-.3,-2.2l-.4,-2.1l-.6,-2.1l-.8,-2.2l-.7,-1.1l-.9,-1l-1.3,-1.1l-2.1,-1.1l-2.1,-.6l-2.2,-.4l-2.1,-.4l-2.2,-.6l-.1,-.1l-.1,-2.2l.2,-.2l2.2,-.7l2.1,-.3c5.7,-.7,9.9,-3.5,10.9,-9.5l.4,-2.1l.4,-2.1l1.2,-1.5l2.1,-.5l1.1,-.2l1.1,-.1l2.1,-.2l2.1,-.3l2.2,-.4l2.1,-.5l2.2,-.6l2.1,-1.4l2.1,-.8l2.2,-.8l2.1,-1.3l2.2,-2.1l1.7,-2.2c3,-5.1,1.8,-5.5,2.5,-10.7l.3,-2.1l.2,-2.2v-2.1C432.8,168.6,421.4,166,408.8,164l-2.1,-.2l-2.1,-.2l-2.2,-.2l-2.1,-.2l-.5,-.1l-1.7,-1.9l-.2,-.3l-.6,-2.1l-1,-2.2l-.3,-.7l-.9,-1.4l-1.3,-1.3l-1,-.8c-2.8,-2,-6.2,-3.3,-9.7,-3.5l-2.1,-.4l-2.1,-.2l-2.2,-.2l-2.1,-.2c-4.4,-.2,-8.5,-.4,-12.9,-.9l-2.1,-.3l-2.2,-.1l-2.1,-.2l-2.1,-.1l-2.2,-.1l-1.3,-.3l-.8,-.5l-1.3,-1.6l-.6,-2.1l-.3,-.8l-.6,-1.4L345,137.4l-.4,-.6L343,135.2l-.5,-.4C334,129.6,320.2,131.1,310.3,130l-2.1,-.1l-2.1,-.1l-2.2,-.1l-2.1,-.1l-2.2,-.1l-2.1,-.5l-.5,-.2l-1.2,-2.1l-.4,-2.2l-1,-2.1l-1.2,-2.2l-1.7,-2.1l-.4,-.4l-2.2,-1.1l-1.4,-.6l-.7,-.3l-2.2,-.6l-2.1,-.6l-2.1,-.2l-2.2,-.1l-2.1,-.2l-2.2,-.2l-2.1,-.1c-4.2,0,-8.6,-.4,-12.8,-.5l-2.2,-.1l-2.1,-.1c-5.2,0,-7.7,0,-12.9,-1.2l-.4,-.1l-2.1,-2.2l-1.2,-2.1c-2.1,-3,-5.6,-4.4,-8.4,-6.4l-.7,-.4l-2.2,-1.2c-3.2,-1.5,-7.2,-2,-10.7,-2.4L214,96.7l-4.3,.3h-2.1l-2.2,.2l-2.1,.2l-2.2,.3l-2.1,.2l-2.1,.2c-11.6,2.2,-13.6,9.4,-14.3,20l-.1,2.1l-.1,2.2l-.2,2.1c-.4,4.4,.3,8.6,1.2,12.9l.6,2.1l.9,2.2l1.3,2.1l2.1,2.1l1.1,2.2l1,1.4l.7,.7l1.5,1.4l1,.8l1.1,.7l1.1,1.4l1.1,1.1l.1,1l.4,2.2c1.1,4.6,.6,8.2,.9,12.8l.1,2.2l.1,2.1c-.1,4.2,.3,8.6,.5,12.9l.1,2.1l.2,2.1l.1,2.2l.3,2.1c.3,3.3,1.6,6.4,3.6,9l2.1,1.7l2.2,1.3l2.1,.7l.7,.2l1.4,.4l2.2,1l.3,.7l.5,2.2l.1,2.1v2.1l.2,2.2l.1,2.1l.1,2.2l.1,2.1l.1,2.1c.8,8.6,.1,20.8,5.4,27.9l1.6,1.3l1.1,.8l1.1,.7l2.1,.9l1.5,.6l.7,.2l2.1,1.7l.1,.2l.3,2.1l.1,2.2l.1,2.1c.2,4.4,.6,8.6,1,12.9l.1,2.1l.2,2.2l.1,2.1l.2,1.1l.1,1l.2,2.2c1,4.3,1.4,6.7,3.2,10.7l.7,1.1l.9,1c3,3.2,3.8,2.9,7.7,4.6l1.9,1.8l.2,.3l.7,1.9l.2,2.1c.2,3.9,.4,7.6,1.3,11.5l.3,1.4l.6,2.1c.8,2.2,2.1,7.3,3.9,8.6l1.6,1.6l.7,.5l1.5,.7l2.1,.9l1.4,.6l.7,.2Z" class="g5_423"/>
<path d="M262.6,336.5l-1.5,-1.3l-.8,-.8L259,332.6l-.3,-.4l-1.9,-1.9c-5.4,-6.8,-4.5,-16.1,-8.1,-23.8l-.5,-1.3l-.5,-.8l-1.6,-2.2c-3.2,-2.9,-5.9,-6.5,-7.3,-10.7l-.8,-2.1l-.5,-1.6c-.8,-3.4,-1.5,-7.1,-2.1,-10.5l-.1,-.7l-.4,-2.2l-.3,-2.1l-.2,-2.2l-.3,-2.1l-.2,-2.2c-.4,-3.1,-1.8,-6.6,-2.8,-9.6l-1,-1.1L229,253.7c-2.2,-1.6,-4.6,-4.6,-5.7,-7.1l-.7,-2.2l-.8,-2.1l-.6,-2.1l-.5,-2.2c-.8,-3.6,-1.3,-7.1,-1.9,-10.7l-.3,-2.1l-.2,-1.5c-.7,-3.5,-.5,-8.3,-1.5,-11.4l-.7,-1.5l-.2,-.6L215,208l-1,-2.1l-2.2,-1.8l-.6,-.3l-1.5,-1.2l-1.1,-1c-4,-4.7,-3.5,-4.7,-4.7,-10.7l-.5,-2.1l-.1,-1.1c-.6,-3.9,-1.2,-7.8,-1.4,-11.8l-.3,-2.1l-.2,-2.2l-.1,-2.1l-.2,-2.1c.1,-4.6,-1,-8.5,-1.8,-12.9l-.3,-1.7l-.1,-.4l-.3,-2.2l-.4,-2.1l-.3,-2.2l-.7,-2.1l-.3,-.8L195,141.7l-.3,-.3l-2.1,-1.9l-1.9,-2.1l-.3,-.3l-1.1,-1.9l-1,-1.8c-2.6,-6.2,-1.7,-4.6,-.8,-11l.5,-2.2l.3,-1.4l.2,-.7l.6,-2.1l.5,-2.2l.6,-2.1l.2,-.4l1.4,-1.8l.8,-.9l1.2,-1.2l.9,-.8l1.8,-1.3c3.5,-1.4,7.4,-2.4,11.1,-3.2l2.1,-.4l2.1,-.3l2.2,-.3l2.1,.7l2.2,.8l1,.5l1.1,.6l2.2,1.1l.6,.5l1.5,1.1l.9,1l1.2,1.5l.5,.6l1.7,1.9l.2,.3l1.9,.7l2.2,.4l2.1,.4c2.9,.5,5.7,1.1,8.6,1.6l2.1,.4l2.1,.4c3.6,.1,7.2,.5,10.8,.9l2.1,.3l2.1,.2l2.2,.3l2.1,.3c4.1,.4,8.8,1.2,12.9,2.2l1.6,.4l.5,.2c2.5,1.3,5.4,3.9,6.8,6.3l1.8,2.1l2.1,1l2.2,.8l.7,.4l1.4,.5c10.6,1.6,21.6,2.2,32.1,4.9l2.1,.6l.9,.4l1.3,.6c2.7,1.6,4.9,3,6.6,5.8l2,1.9l.2,.2c3.5,1.4,6.6,2.8,10.5,2.9l2.1,.3l2.1,.3l2.2,.4l2.1,.4l2.2,.5l2.1,.5l2.2,.4l2.1,.4c4.5,.8,8.6,1.5,12.8,3.3l2.2,1.1l.3,.2c3.3,2.2,3.4,3.8,7.1,6.5l1.1,.4l2.2,.9l2.1,.7l.3,.1c3.2,1.3,7,1.3,10.4,2.6l2.2,.8l2.1,.9c2.5,1.3,6.4,4.5,8.6,6.4l1.6,2.2l.5,1l.5,1.1l-.5,2.1l-.5,2.2l-.4,2.1l-.4,2.2l-.6,2.1l-.2,1.1l-.3,1l-.6,2.2l-1.3,2.1l-1.8,2.2l-.3,.2c-1.8,3.7,-3.1,5.1,-6.4,7.2l-2.2,1l-.3,.1l-1.8,.6l-2.1,.6c-4.5,.7,-6.7,1.7,-9.4,5.3l-.9,2.1l-.5,.8c-1.6,2.9,-3.4,4.7,-6.4,6.2l-2.1,.9l-1.4,.7l-.8,.3l-1.9,1.8l-.2,.2l-1.8,1.9l.2,2.2l1.6,1.7l.5,.4l1.6,1.5l1.5,.7l.7,.3l2.1,1l1.4,.8l.8,.5l1.9,1.7l.2,.2l1.4,1.9l.7,1.3l.4,.8l.9,2.2l1.3,2.1l1.7,1.8l.4,.4l1.8,1.8l.8,.3l1.3,.7l2.2,1l.8,.4l1.3,.9l1.4,1.3l.7,.8l1,1.3l1.2,2.2l.9,2.1l.7,2.1l.5,2.2l.5,2.1c1.4,7.3,3,12.2,-.3,19.3l-.2,.6l-.7,1.5l-1.3,2.2l-.1,.2l-1.6,1.9l-.6,.6l-2.1,1.6l-1.9,2.1l-.2,.3l-1.9,1.8l-2.4,2.2l-1.2,2.1l-1,1.5l-.4,.7l-1.7,2.1l-2,2.1l-.2,.2l-2.1,1.8l-.2,.2c-3.2,4.8,-8,8.2,-12.6,11.4l-2.2,1.1l-.9,.3c-9.4,3,-9.1,2.5,-18.4,.8l-2.1,-.5l-1.3,-.3l-.8,-.2L351,327l-2.1,-.7l-1.2,-.5l-1,-.5L344.6,324l-.5,-.3l-1.6,-1.5l-.6,-.7l-1.6,-2.1l-1.1,-2.2l-1,-2.1l-2.2,-2l-.1,-.2l-2,-1.9l-.4,-.2l-1.8,-1.1l-2.1,-.9l-.3,-.1l-1.8,-1L326,306.5l-.7,-.6L324,304.4l-.8,-1.2l-.6,-1l-.9,-2.1l-.7,-1.2l-.4,-.9l-1.7,-1.8l-.4,-.4L316.8,294l-2.2,-.1l-1.9,1.9l-.2,.3l-1.8,1.9c-1.6,3.4,-2.3,5.9,-5.1,8.5l-1.7,1.3l-1.3,.9l-.8,.4l-2.2,.9l-1,.8l-1.1,1l-.8,1.1l-1.3,2.2l-.5,2.1l-.5,2.2l-.6,2.1l-.6,1.9l-.1,.3c-1.7,4,-4.4,6.8,-8.5,8.5l-2.1,1.9l-.5,.3l-1.6,.9l-2.2,.4l-2.1,.5l-2.2,.3l-2.1,.5l-2.1,.3l-2.2,.4l-2.1,.2l-2.2,-.9l-.6,-.5Zm.6,4.8l2.2,.4l2.1,-.2l2.2,-.2l2.1,-.2l4.3,-.6l2.1,-.2l2.2,-.4l2.1,-.6l.9,-.7l1.2,-1l1.3,-1.1l.9,-.9l.9,-1.2l1.2,-1.7l.3,-.5l1.9,-1.4l.6,-.7l1.5,-2.2l1,-2.1l.8,-2.1l.4,-1.6l.1,-.6c.9,-4.7,.5,-9,6.3,-10.2l1.4,-.5l.7,-.3c3.4,-1.3,6.1,-4.8,7.2,-8.3l.6,-2.1l.8,-2.1l2.1,-2.2l2.2,.1l2,2.1l.1,.3l.8,1.8l.6,2.1l.7,1.8l.2,.4l1.3,2.1l.7,.8l1.5,1.4l.6,.4l2.2,1.1l1.4,.6l.7,.3l2.1,.5l2.2,1.3L336,315l.2,.1c2.1,7.1,5,11.6,12.7,13.2l2.1,.6l2.2,.5l2.1,.5l1.1,.2l1,.2l2.2,.3l2.1,.3l2.2,.3l2.1,.2l2.2,-.2l2.1,-.3l2.1,-.3l2.2,-.5l2.1,-.6l2.2,-.8l1.8,-.8l.3,-.1c5.4,-3.2,10.2,-5,12.8,-11.3l.8,-1.4l1.4,-1.4l.7,-.8l1.4,-1.5l.5,-.6l1.4,-2.1l.3,-.5l2.1,-1.4l.4,-.3l1.8,-1.2l1,-.9l1.1,-1.1l.9,-1.1l1.2,-1.7l.3,-.4l1.2,-2.1l.7,-.7l1.2,-1.5l.9,-1.3c3.2,-6.5,4.2,-12.9,2.8,-20.1l-.4,-2.1l-.2,-2.2l-.5,-2.1l-.4,-2.2c-1.6,-6.6,-2.8,-11,-9.8,-13.6l-2.2,-.6l-2.1,-.7c-6.3,-5.5,-2,-11.9,-12.9,-16l-2.1,-.6l-1.5,-.6l-.7,-.2l-1.9,-1.9l-.2,-2.2l2.1,-2.1l2.2,-.8l2.1,-.6l1.8,-.7l.4,-.2l2.1,-1.3c2.5,-1.8,3.8,-4.2,4.8,-7.1l.6,-2.1l1,-1.2l.9,-1l1.3,-.9l2.1,-.4l2.2,-.3l2.1,-.4l.5,-.1l1.6,-.4l2.2,-.7l2.1,-.9l.3,-.2l1.9,-1.3l.8,-.8l1.3,-1.6l.9,-.5l1.2,-1.1l1.3,-1.1l.9,-.7l1.4,-1.4c2.4,-3.1,2.8,-7,3.3,-10.7l.4,-2.2l.4,-2.1l.2,-2.2l.3,-2.1l-.5,-2.1L426,175.9c-1.9,-2.7,-5.5,-5.6,-8.6,-6.6L415.3,168l-1.5,-.6c-3.2,-1.3,-7.9,-2.1,-11.4,-2.5l-2.1,-.3l-2.2,-.8l-1.9,-.7l-.2,-.3c-3,-2.3,-2.9,-4.9,-6.4,-7.4l-1.3,-.9l-.9,-.5c-3.8,-2.6,-8.5,-2.9,-12.8,-3.6l-1.1,-.2l-1.1,-.1l-2.1,-.3l-2.1,-.2l-2.2,-.3l-2.1,-.4l-2.2,-.3l-2.1,-.3c-3.5,-.6,-7.5,-.6,-10.7,-1.3l-2.2,-.8l-.7,-.3c-3.3,-3.4,-2.6,-5.1,-7.1,-8.5l-.7,-.6L336,135.7l-1,-.5l-1.1,-.4c-3.7,-1.3,-8.9,-1.7,-12.9,-2.2l-2.1,-.2l-2.1,-.2c-4.6,-.6,-9.4,-1,-14,-1.2l-1,-.1l-2.2,-.2l-2.1,-.4l-2.1,-.9l-1.4,-.6l-.8,-1.2c-2.4,-4,-1.8,-4.1,-5.7,-7.4l-.7,-.5l-2.2,-1.2c-3,-1.8,-9.2,-2.1,-12.8,-2.5l-2.1,-.3l-2.2,-.1l-2.1,-.2l-2.2,-.2c-4.2,-.4,-8.5,-.7,-12.8,-.9h-2.2l-2.1,-.4c-4,-.8,-8,-1.6,-12,-2.2l-.8,-.7l-2.2,-1.5l-1.2,-2.1l-.9,-1.1l-.9,-1L226.8,104l-1.3,-.9l-.8,-.5l-2.1,-1.2l-1.1,-.4c-4.9,-1.5,-6.7,-2.5,-11.8,-1.7l-2.1,.3l-2.2,.3c-2.6,.5,-8.5,1.3,-10.7,2.7l-2.1,1.3l-1.6,1.4l-.6,.6c-2.4,2.6,-3.8,5.3,-4.2,9L186,116l-.4,2.1c-.6,5.4,-2.4,9.9,-.2,15l.8,2.1l.8,2.2l1.3,2.1l1.8,2.2l.3,.3l2.2,1.8l2.1,1.3l1.1,.8l1.1,1.6v.6l.4,2.1l.4,2.2l.3,2.1l.4,2.1c1,5.1,1.3,7.6,1.4,12.9l.1,2.1l.1,2.2l.2,2.1v2.2c.3,3.6,.6,7,1.1,10.7l.1,2.1l.4,2.1c.3,4,1.8,7.8,4.5,10.8l1.3,1l1.4,1.1l.7,.5l2.1,1l1,.6l1.2,.7l.6,1.5l.9,2.1c1.1,3.1,.6,7.3,1.2,10.7l.1,2.2l.3,2.1c.4,4.4,.9,8.5,1.6,12.9l.4,2.1l.4,2.1l.7,2.2l.2,.7c.6,2.2,3.1,6.4,5,7.8l1.4,1.3l1.3,.9c4.1,1.8,4.5,6.8,4.8,10.7l.1,2.1l.3,2.2l.1,2.1l.3,2.2l.3,2.1l.3,2.1c.5,3.5,.9,7.4,1.8,10.7l.5,2.2l.9,2.1c2,4.6,2.5,6.2,6.5,9.5l2.1,1.2l1.7,2.2l.4,.4l.6,1.7c1.6,4.3,1.7,6.4,2.2,10.7l.5,2.2l.5,2.1c1.2,4.6,2.7,5.4,4.8,9.4l.9,1.3l1.3,1.4l.7,.7l1.4,1.3l1.3,.9l.8,.5Z" class="g6_423"/>
<path d="M262.3,332.2l-1.2,-.8l-1.6,-1.3l-.5,-.6l-1.4,-1.6l-.8,-1.2c-3.6,-6,-4,-13.4,-6.7,-20.2l-.7,-2.1l-.8,-2.2l-.4,-1l-.7,-1.1L246.1,298l-1.9,-2.2l-.2,-.2l-1.4,-1.9l-.8,-1.4c-1.8,-3.4,-2.4,-5.8,-3.4,-9.3l-.5,-2.2l-.4,-1.3l-.2,-.8l-.4,-2.2l-.5,-2.1l-.4,-2.1l-.3,-2.2l-.3,-2.1l-.3,-2.2l-.4,-2.1l-.5,-2.1l-.7,-2.2c-.7,-2.4,-1.5,-4.6,-2.4,-6.9l-1.3,-1.6l-.8,-1.1l-1,-1.1c-4.4,-5.2,-6.2,-15.4,-7.6,-21.9l-.3,-1.6l-.4,-2.2l-.4,-2.1l-.3,-2.2l-.2,-2.1l-.2,-2.1l-.3,-1.3l-.3,-.9l-.8,-2.1l-.8,-2.2l-.3,-.6l-.7,-1.5l-1,-2.1L214,203l-1.6,-1.4l-.6,-.6l-1.7,-1.5l-.4,-.5l-1.2,-1.7l-.9,-1.8l-.2,-.3c-2.8,-9.2,-3.8,-18.3,-4.8,-27.9l-.1,-2.1l-.2,-2.1l-.4,-2.2l-.4,-2.1l-.4,-1.7v-.5l-.5,-2.1l-.4,-2.1l-.3,-2.2l-.4,-2.1l-.4,-2.2l-.1,-.2l-.6,-1.9l-.8,-2.1l-.7,-1.8l-.5,-.4l-2.1,-2.1l-1.7,-1.9l-.2,-.3L191,133.1l-.6,-.9l-.6,-1.2l-.9,-2.2l.2,-2.1l.6,-2.2l.4,-2.1c.9,-2.8,1.4,-5.3,2.5,-8l.2,-.6l1.1,-2.1l.8,-1.1l1.1,-1.1l1.1,-.8l2.1,-1.1l.4,-.2l1.7,-.7l4.3,-1.4l2.2,-.7l2.1,-.5l2.1,-.4l2.2,-.3l2.1,.8l2.2,1.1c2.7,1.6,4.2,2.8,6.4,5.1l1.2,1.3l.9,.4l2.2,.8l2.1,.8l.9,.1l5.5,1.1l2.2,.4l2.1,.4c2.8,.5,5.9,1.4,8.6,1.4l2.1,.3l2.2,.2l2.1,.3l1.4,.2l.8,.1c7,1.1,17.1,2.4,23.5,5.3l1.4,1l.7,.7l1.4,1.5c3,3.4,2.5,2.2,6.8,4.3l.4,.1l2.2,.8c2.8,1.4,5.5,1.3,8.5,1.8l2.2,.2l2.1,.4l2.1,.3l2.2,.3l1.6,.3l.5,.1l2.2,.5c7,1.6,15.2,2.3,20.3,8l1.1,1l1.3,1.1c9.1,4.5,14.9,3.8,24,6.5l.4,.1l2.1,.6l2.2,.5l2.1,.5l1.6,.4l.5,.1l2.2,.6l2.1,.6l2.2,.8l2.1,.8l2.1,1c2.2,1.3,3.8,3.3,6,4.7l.5,.2l2.1,.8l2.1,.8c7.9,3.5,14.9,2.8,21.5,8.7l.2,.2l1.9,2.1l2.1,1.9l.3,.3l1,2.1l-.6,2.1l-.4,2.2l-.3,.7c-1.1,4,-2.1,8.1,-3,12.1l-1,2.2l-.2,.4c-1.7,3,-5.4,6,-8.6,7.1l-2.1,.8l-1,.2l-1.2,.4l-2.1,.6c-4.7,2.6,-6,3.4,-8.6,8l-1.3,1.7l-.8,.9c-2.9,2.9,-5.9,3,-8.6,6l-1.7,1.7l-.4,.5l-1.5,1.6l.1,2.2l1.4,1.4l.7,.7l1.4,1.4l.9,.8l1.2,1.1l2,1l.2,.1l2.1,1.3l1,.8l1.2,.9l1,1.2l1.1,1.5l.4,.6l1.1,2.2l.6,.8l.9,1.3l1.3,1.5l.6,.7l1.5,1.6l.5,.5l1.7,1.5l1,.6l1.1,.7l2.2,1.3l.2,.2l1.9,1.7l.3,.4l1.7,2.2l.1,.2l1.2,1.9l.7,2.1l.3,.8l.4,1.4l.6,2.1l.5,2.2l.5,2.1l.1,.5l.3,1.6l.4,2.2l.3,2.1l-.2,2.2l-.7,2.1l-.1,.3l-.6,1.9l-1,2.1l-.5,1.1l-.7,1c-5,7.6,-8.2,4.2,-12.2,13.3l-1.1,1.7l-1,1.5l-.6,.7l-1.6,1.8l-.3,.3l-1.8,1.7c-4.8,3.3,-8.4,8.6,-12.8,11.8l-2.2,1.3l-.5,.2c-9.7,4.5,-11,3.1,-20.9,.7l-2.1,-.6l-.3,-.1l-1.9,-.7l-2.1,-.9l-1,-.5l-1.2,-.8L345,321.5l-.4,-.3L343,319.4l-.5,-.7l-1,-1.5l-1.2,-1.9l-.1,-.2l-2,-2l-.2,-.2l-2,-1.8l-.2,-.3l-1.9,-1.6l-.9,-.5l-1.3,-.9l-2.1,-1.1l-.2,-.2L327.5,305l-.7,-.6l-1.5,-1.7l-.3,-.5l-1.3,-2.1l-.5,-.9l-.7,-1.2L321,296.4l-.5,-.6l-1.6,-1.6l-.5,-.5l-1.6,-1.6l-2.2,-.1l-1.7,1.7l-.4,.4l-1.8,1.7c-2.3,2.1,-2.8,4.6,-4.6,7l-1.4,1.6l-.8,.8c-2.2,2.1,-5.3,2.8,-7.1,5.6l-1.4,2.1l-1.3,2.2l-.6,2.1l-.3,1.3c-.8,3,-2.9,7.3,-5.3,9.4l-1.1,.9l-1.9,1.3c-3.7,2.5,-8.4,1.5,-13.1,3l-2.1,.4l-2.2,.4l-2.1,.5l-2.2,-1.2l-.9,-1Zm.9,4.8l2.2,.9l2.1,-.2l2.2,-.4l2.1,-.3l2.1,-.5l2.2,-.3l2.1,-.5l2.2,-.4l1.6,-.9l.5,-.3l2.1,-1.9c4.1,-1.7,6.8,-4.5,8.5,-8.5l.1,-.3l.6,-1.9l.6,-2.1l.5,-2.2l.5,-2.1l1.3,-2.2l.8,-1.1l1.1,-1l1,-.8l2.2,-.9l.8,-.4l1.3,-.9l1.7,-1.3c2.8,-2.6,3.5,-5.1,5.1,-8.5l1.8,-1.9l.2,-.3l1.9,-1.9l2.2,.1l1.7,1.8l.4,.4l1.7,1.8l.4,.9l.7,1.2l.9,2.1l.6,1l.8,1.2l1.3,1.5l.7,.6l1.5,1.2l1.8,1l.3,.1l2.1,.9l1.8,1.1l.4,.2l2,1.9l.1,.2l2.2,2l1,2.1l1.1,2.2l1.6,2.1l.6,.7l1.6,1.5l.5,.3l2.1,1.3l1,.5l1.2,.5l2.1,.7l2.2,.7l.8,.2l1.3,.3l2.1,.5l2.2,.4l2.1,.4l2.2,.3l1.6,.3l.5,.1l.7,-.1l1.5,-.2l2.1,-.4l2.1,-.5l2.2,-.6l1.2,-.5l.9,-.3l2.2,-1.1l1.1,-.7l1,-.6l1.8,-1.5l.3,-.4l2.2,-1.6l.3,-.2l1.8,-1.4l.7,-.7l1.5,-1.9l.2,-.3l1.7,-2.1l.2,-.2l2.1,-1.8l.2,-.2l2,-2.1l1.7,-2.1l.4,-.7l1,-1.5l1.2,-2.1l2.4,-2.2l1.9,-1.8l.2,-.3l1.9,-2.1l2.1,-1.6l.6,-.6l1.6,-1.9l.1,-.2l1.3,-2.2l.7,-1.5c3.2,-8.9,2.4,-8.8,.9,-17.7l-.4,-2.2l-.5,-2.1l-.5,-2.2l-.7,-2.1l-.9,-2.1l-1.2,-2.2l-1,-1.3l-.7,-.8L406.7,256l-1.3,-.9l-.8,-.4l-2.2,-1l-1.3,-.7l-.8,-.3l-1.8,-1.8l-.4,-.4l-1.7,-1.8l-1.3,-2.1l-.9,-2.2l-.4,-.8l-.7,-1.3l-1.4,-1.9l-.2,-.2l-1.9,-1.7l-.8,-.5l-1.4,-.8l-2.1,-1l-.7,-.3l-1.5,-.7l-1.6,-1.5l-.5,-.4l-1.6,-1.7l-.2,-2.2l1.8,-1.9l.2,-.2l1.9,-1.8l.8,-.3l1.4,-.7l2.1,-.9c2.1,-1,4.4,-2.8,5.6,-4.9l.8,-1.3l.5,-.8l.9,-2.1l.8,-1l1,-1.2l1.1,-.8l2.2,-1.3l2.1,-.5l2.2,-.5l2.1,-.6l1.8,-.6l.3,-.1c2.8,-1,6.3,-3.6,7.6,-6.3l1,-1.9l.3,-.2c3.8,-3.7,3.5,-6.2,4.8,-10.7l.4,-2.2l.4,-2.1l.5,-2.2l.5,-2.1l-.5,-1.1l-.5,-1c-1.9,-3.3,-5.3,-5,-8,-7.4l-2.2,-1.2l-2.1,-.9c-3.7,-1.5,-6.8,-2,-10.7,-2.7l-1.9,-.7l-.3,-.1l-2.1,-.7l-2.2,-.9c-2.7,-.9,-4.4,-3.6,-6.4,-5.5l-1.8,-1.4l-.3,-.2c-3.9,-2.3,-8.5,-3.1,-12.9,-4l-2.1,-.4l-2.1,-.4l-2.2,-.4l-2.1,-.5l-2.2,-.5l-2.1,-.4l-2.2,-.4l-2.1,-.3c-4.5,-.5,-6.5,-.7,-10.7,-2.4l-1.9,-.8l-.2,-.2l-2,-1.9l-.2,-.3l-1.4,-1.8l-.7,-.8l-1.9,-1.4l-.3,-.2L333.9,138l-1.3,-.6l-.9,-.4c-9.8,-2.9,-21.8,-4,-32.1,-5.1l-2.1,-.4l-1.4,-.5l-.7,-.4l-2.2,-.8l-2.1,-1c-2.6,-3,-3.1,-4.6,-6.5,-7.1l-2.1,-1.3l-.5,-.2c-3.6,-1.1,-8.5,-1.8,-12.3,-2.4l-2.2,-.2l-2.1,-.3l-2.2,-.3l-2.1,-.2c-3.6,-.5,-7.1,-.8,-10.7,-1.1l-2.2,-.1l-2.1,-.4c-3.6,-.7,-7.1,-1.4,-10.7,-2l-2.1,-.4l-2.2,-.4l-1.9,-.7l-.2,-.3l-1.7,-1.9l-.5,-.6l-1.2,-1.5l-.9,-1l-1.5,-1.1l-.6,-.5l-2.2,-1.2l-1.1,-.5l-1,-.5l-2.2,-.8l-2.1,-.7l-2.2,.3l-2.1,.3l-2.1,.4c-3.7,.8,-7.6,1.8,-11.1,3.2l-1.8,1.3l-.9,.8l-1.2,1.2l-.8,.9l-1.4,1.8l-.2,.4l-.6,2.1l-.5,2.2l-.6,2.1l-.2,.7l-.3,1.4l-.5,2.2c-.9,6.4,-1.8,4.8,.8,11l1,1.8l1.1,1.9l.3,.3l1.9,2.1l2.1,1.9l.3,.3l1.9,1.3l.3,.8l.7,2.1l.3,2.2l.4,2.1l.3,2.2l.1,.4l.3,1.7c.8,4.4,1.9,8.3,1.8,12.8l.2,2.2l.1,2.1l.2,2.2l.3,2.1c.2,4,.8,7.9,1.4,11.8l.1,1.1l.5,2.1c1.2,6,.7,6,4.7,10.7l1.1,1l1.5,1.2l.6,.3l2.2,1.8l1,2.1l.9,2.2l.2,.6l.7,1.5c1,3.1,.8,7.9,1.5,11.4l.2,1.5l.3,2.1c.6,3.6,1.1,7.1,1.9,10.7l.5,2.2l.6,2.1l.8,2.1l.7,2.2c1.1,2.5,3.5,5.5,5.7,7.1l1.1,1.4l1,1.1c1,3,2.4,6.5,2.8,9.6l.2,2.2l.3,2.1l.2,2.2l.3,2.1l.4,2.1l.1,.8c.6,3.4,1.3,7.1,2.1,10.5l.5,1.6l.8,2.1c1.4,4.2,4.1,7.8,7.3,10.7l1.6,2.2l.5,.8l.5,1.3c3.9,8.3,2.5,19.3,10,25.7l.3,.4l1.3,1.8l.8,.8l2.1,1.8Z" class="g7_423"/>
<path d="M262.5,330.1l-1.4,-1.2l-.9,-1l-1.3,-1.4l-.5,-.7c-3.6,-5.5,-4.2,-11.1,-6.2,-17.1l-.7,-2.2l-.7,-2.1l-.4,-1.4l-.3,-.8l-.7,-2.1l-.9,-2.1l-.3,-.7l-1,-1.5l-1.1,-1.5l-.5,-.6l-1.5,-2.2l-.1,-.2l-1.1,-1.9l-.9,-2.1l-.2,-.3l-.7,-1.9l-.8,-2.1c-2.6,-7.6,-3.2,-13.8,-4.9,-21.4l-.6,-2.2l-.6,-2.1c-1.4,-6.4,-5.3,-11.4,-8,-17.1l-.8,-2.2l-.7,-1.8l-.1,-.3l-.7,-2.2l-.5,-2.1l-.6,-2.2c-2.2,-6.6,-2.2,-14.1,-4.5,-19.9l-.6,-1.5l-.9,-2.1l-.7,-1.6l-.3,-.5l-1,-2.2l-.8,-1.4l-.7,-.7l-1.5,-1.6l-.5,-.6l-1.2,-2.1l-.4,-.9l-.5,-1.3l-.6,-2.1l-.6,-2.1l-.4,-1.6l-.2,-.6l-.5,-2.1l-.5,-2.2C205,175.2,204.3,168,203.3,160.9l-.4,-2.1l-.5,-2.2c-1.7,-7.5,-2,-16.4,-7.7,-22.3l-.9,-1.2l-1.2,-1.9l-.2,-.2l-1.1,-2.2l.2,-2.1l.6,-2.2c1.1,-3.6,2.2,-7.4,4.1,-10.7l.7,-1.3l.7,-.8c3.7,-2.4,7.9,-3.8,12.1,-5.2l2.1,-.6l2.2,-.4l2.1,1.1l1.4,.8l.8,.5l2.1,1.6c4.7,5.8,20.6,6.9,27.8,8.8l2.2,.2l2.1,.3l2.2,.3c4.3,.7,8.5,1.6,12.8,2.4l2.2,.5l1.6,.4c3.3,1,8.5,1.9,11.2,4.1l.2,.2l1.9,1.7l.4,.4l1.8,.9l2.1,1c8.7,4.5,18.6,4.2,27.9,6.9l2.1,.5l2.1,.5l2.2,.6c3.1,1.1,7.8,2.3,10.2,4.6l.5,.3l2.1,1.7l.2,.1l2,1l2.1,.8l1,.4l1.2,.4l2.1,.8l2.1,.6l1,.3l1.2,.4l2.1,.4l2.2,.4l2.1,.4l2.1,.5l.4,.1l1.8,.4c4.1,1.1,6.5,2.5,10.7,3.4l1.3,.4l.8,.3c3.8,1.1,7.3,2.8,10.7,4.6l2.2,1.4l.2,.2l1.9,.8c8.2,3.9,19.2,5.1,25.7,10.3l1.7,1.7l.5,.5l1.3,1.7l.8,2.1c-2.7,12.3,1.2,19.2,-12,25.7l-.8,.4l-2.2,.7l-2.1,.7c-3.5,1.8,-6.7,3.6,-9.1,6.8l-1.5,2.1l-.1,.2c-2.3,3.2,-5.8,4.1,-8.6,6.9l-1.5,1.5l-.6,.6l-1.5,1.5l-.7,.8l-1.1,1.3l.1,2.2l1,1.1l1,1l1.2,1.2c5.1,5.7,8.9,5.2,12.8,12.1l1.2,1.7l.9,1.2l.9,1l1.3,1.3l.7,.8l1.4,1.5l.7,.6l1.5,1.3l1.3,.9l.8,.5l2,1.6l.2,.2l1.8,2l.3,.3l1.3,1.8l.8,1.9l.1,.2l.8,2.2l.7,2.1l.6,2.2l.5,2.1l.5,2.2l.5,2.1l.4,2.1l-.4,2.2l-.7,2.1L411,287l-.1,.3l-1.2,2.1l-.9,1.4l-.5,.7l-1.6,1.8l-.4,.4l-1.7,1.5l-1,.6l-1.2,.7l-2.1,1.3l-.2,.2l-1.2,2.1l-.8,1.4l-.4,.7l-1.3,2.2l-.4,.6l-1.1,1.5l-1.1,1.3l-.7,.9l-1.4,1.4l-.8,.7l-1.3,1.2l-1.2,.9l-1,.8l-2.1,1.4l-2.2,2.1l-1.5,2.2l-.6,.6l-1.5,1.5l-.6,.6l-2.2,1.6l-2.1,1.1l-2,1l-.2,.1l-2.1,.8l-2.1,.7l-2.2,.2l-2.1,-.4l-2.2,-.5l-2.1,-.5l-1.4,-.4l-.8,-.2l-2.1,-.7l-2.1,-.8l-1.1,-.4l-1.1,-.5l-2.1,-1.1l-.8,-.6l-1.4,-1.1l-1.1,-1l-1,-1.1l-.9,-1.1l-1.2,-1.7l-.3,-.4l-4,-4l-.3,-.3L336,309.1l-.5,-.4l-1.6,-1.3C325.1,302,327.2,300.5,321,294.3l-.6,-.6l-1.5,-1.4l-2.1,-2.1l-2.2,-.1l-1.6,1.4l-.5,.5l-1.7,1.7c-3,2.8,-4.3,5.3,-6.6,8.5l-.3,.4l-1.9,1.8c-4.1,2.7,-5.5,4.2,-8,8.5l-.8,1.6l-.3,.6l-.7,2.1l-.8,2.2c-1.4,3.4,-3.2,6.2,-6.3,8.5l-.5,.4l-2.1,1.2c-4,1.1,-10.6,1.2,-15,1.7l-2.1,.2l-2.2,-.8l-.7,-.5Zm.7,3.1l2.2,1.2l2.1,-.5l2.2,-.4l2.1,-.4c4.5,-1.4,9.3,-.5,12.8,-2.9l.3,-.1l1.9,-1.3c3,-2.1,5,-6.1,6.1,-9.4l.3,-.9l.3,-1.3l.6,-2.1l1.3,-2.2c1.8,-3.2,3.6,-4.6,6.8,-6.4l1.7,-1.3l.8,-.8c2.8,-2.7,3.2,-6,6,-8.6l1.8,-1.7l.4,-.4l1.7,-1.7l2.2,.1l1.6,1.6l.5,.5l1.6,1.6l.5,.6l1.5,1.6l.7,1.2l.5,.9l1.3,2.1l.3,.5l1.5,1.7l.7,.6l1.9,1.5l.2,.2l2.1,1.1l1.3,.9l.9,.5l1.9,1.6l.2,.3l2,1.8l.2,.2l2,2l.1,.2l1.2,1.9l1,1.5l.4,.7l1.7,1.8l.4,.3l1.7,1.4l1.2,.8l1,.5l2.1,.9l1.9,.7l.3,.1l2.1,.6l2.1,.7l2.2,.5l1.3,.2l.8,.2l2.2,.4l2.1,.4l2.2,-.2l2.1,-.6l.6,-.2l1.5,-.4l2.2,-.9l1.6,-.8l.5,-.2c5.2,-2.4,9.4,-9.3,14.5,-12.7l.5,-.4l1.8,-1.7l.3,-.3l1.6,-1.8l.6,-.7l1,-1.5l1.1,-1.7l.3,-.4l1.1,-2.2l.8,-1.5l.6,-.6l1.5,-1.5l.7,-.6l1.5,-.8l1.9,-1.4l.2,-.1l2,-2l.1,-.2l1.5,-2l.7,-1c4.6,-8.9,3,-11.2,1,-20.4l-.6,-2.1l-.4,-1.4l-.3,-.8l-.7,-2.1l-1.2,-1.9l-.1,-.2L407,259.4l-.3,-.4l-1.9,-1.7l-.2,-.2l-2.2,-1.3l-1.1,-.7l-1,-.6L398.6,253l-.5,-.5l-1.5,-1.6l-.6,-.7l-1.3,-1.5l-.9,-1.3l-.6,-.8l-1.1,-2.2l-.4,-.6l-1.1,-1.5l-1,-1.2l-1.2,-.9l-1,-.8l-2.1,-1.3l-.2,-.1l-2,-1l-1.2,-1.1l-.9,-.8l-1.4,-1.4l-.7,-.7l-1.4,-1.4l-.1,-2.2l1.5,-1.6l.4,-.5l1.7,-1.7c2.4,-2.7,4.2,-2.6,7,-4.7l1.6,-1.3l.8,-.9c3.2,-3.8,2.6,-5.6,7.7,-8.5l2.2,-1.2l2.1,-.6l1.2,-.4l1,-.2c3.9,-1.3,6.8,-2.9,9.5,-6.2l1.2,-1.7l.2,-.4l1,-2.2l.6,-2.1l.3,-2.2l.6,-2.1l.6,-2.1l.5,-2.2l.4,-1.4l.3,-.7l.4,-2.2l.6,-2.1l-1,-2.1l-.3,-.3l-2.1,-1.9l-1.9,-2.1l-.2,-.2c-6.4,-5.7,-13.2,-5.2,-20.7,-8.4l-.8,-.3l-2.1,-.8l-2.1,-.8l-.5,-.2l-2.9,-2.2l-.9,-.9l-1.6,-1.2l-.6,-.4c-3.3,-1.6,-7.1,-2.9,-10.7,-3.8l-.5,-.1l-1.6,-.4l-2.1,-.5l-2.2,-.5l-2.1,-.6c-7.8,-2.6,-13.8,-1.9,-21.4,-5.3l-2.2,-.9l-.8,-.4l-1.3,-1.1c-2.2,-2.1,-3.7,-3.6,-6.5,-5.1l-.5,-.2l-1.6,-.5c-2.8,-1,-5.7,-1.8,-8.6,-2.4l-2.1,-.4l-2.1,-.4l-2.2,-.5l-.5,-.1l-1.6,-.3l-2.2,-.3l-2.1,-.3l-2.1,-.4l-2.2,-.2l-2.1,-.3l-2.2,-.2l-.3,-.1l-1.8,-.4l-2.1,-.8c-2.4,-.8,-5.1,-2,-7.4,-3.1l-1.2,-1.4l-.8,-.7l-1.4,-1.5c-3.3,-4.1,-18.2,-5.7,-23.5,-6.7l-2.2,-.3l-.7,-.1l-1.4,-.2l-2.1,-.3c-8.2,-.6,-15.5,-2.6,-23.6,-3.9l-2.1,-.8l-2.2,-.8l-.9,-.4c-1.8,-1.9,-3.3,-3.7,-5.5,-5.1l-2.1,-1.3l-2.2,-1.1l-2.1,-.8l-2.2,.3l-2.1,.4l-2.1,.5l-2.2,.7l-4.3,1.4l-1.7,.7l-.4,.2l-2.1,1.1l-1.1,.8l-1.1,1.1l-.8,1.1l-1.1,2.1l-.2,.6L192,116l-.7,2.1l-.5,2.1l-.4,1.1l-.3,1.1l-.4,2.1c-1.4,5,-1,4.4,1.3,8.6l1.4,2.1l.2,.3l1.7,1.9c5.8,4.1,5.3,15,7.2,21.4l.4,2.1l.4,2.2l.2,2.1l.1,2.2c.9,8.6,1.8,17.2,4.2,25.6l.6,2.2l.2,.3l.9,1.8c1.3,2.3,3.6,3.9,5.5,5.7l.4,.8l1,2.1c1,2.1,2.3,5.2,2.9,7.3l.3,1.3l.2,2.1l.2,2.1l.3,2.2l.4,2.1l.4,2.2l.3,1.6c1.6,7.2,2.7,13.8,6.4,20.4l1.2,1.5l1,1.1l.8,1.1l1.3,1.6l.2,.5l.8,2.1l.7,2.2l.5,1.3l.2,.8l.7,2.2c1,3.3,1.2,7.2,1.8,10.7l.4,2.1l.5,2.2l.4,2.1l.2,.8l.4,1.3l.5,2.2l.6,2.1l.7,2.2l.7,2.1l1.1,2.1l.3,.8l.8,1.4c2.1,3.2,3.4,3.6,5.6,7.5l.4,1l.8,2.2l.7,2.1c2.9,7.1,3.2,15.5,7.5,21.4l1.3,1.6l.6,.6l1.6,1.3l1.2,.8l.9,1Z" class="g8_423"/>
<path d="M262.6,327.9l-1.5,-1.5l-.5,-.6l-1.5,-2.1l-.1,-.2c-3.6,-5.3,-4.6,-13,-6.7,-19.1l-.8,-2.2l-.6,-2.1c-2,-6.7,-5.2,-9.1,-7.8,-15l-.9,-2.1l-.4,-.9l-.4,-1.3l-.8,-2.1c-2.4,-7.2,-2.9,-14.3,-5.1,-21.4l-.1,-.3l-.5,-1.9C232.7,248,231,244.5,227.7,238l-.9,-2.1l-.8,-2.2l-.7,-2.1l-.6,-1.8l-.1,-.4l-.7,-2.1C221.7,220.9,221.7,214,219,208l-.7,-1.9l-.1,-.2c-2.8,-7.3,-6.6,-11.2,-8.6,-19.3l-.7,-2.1l-.6,-2.2l-.5,-2.1l-.2,-1.1c-1.5,-6.8,-2,-13.7,-3.4,-20.3l-.5,-2.2l-.4,-2.1c-1.5,-7.9,-2.7,-13.8,-6.4,-21l-.4,-.4L194.9,131l-.2,-.3l-1.1,-1.9l.3,-2.1c3.7,-11.7,6,-14.6,17.9,-18.6l2.2,-.3l2.1,1.3l.7,.4l1.5,1.1l1.3,1.1l.8,.4c8.3,4.3,14.7,4.7,23.6,6.7l2.1,.4l2.1,.4c8.3,1.2,15.6,2.9,23.6,5.1l2.1,.7l2.2,.8l1.3,.5l.8,.3l2.2,.8c1.9,1.3,4.3,2.4,6.4,3.4l2.1,.9l2.2,.9c2.1,.7,4.6,1.7,6.7,2.2l1.8,.4l2.2,.3l2.1,.4c8.1,1.6,17.6,4,25.1,7.5l.6,.3l2.1,1.1l1.2,.7l1,.5l2.1,1l1.5,.7c7.6,3.3,14.8,4,22.4,6.4l1.8,.6l2.2,.9l1.4,.6c2,1.1,4.9,1.6,7.1,2.6l2.2,.8l2.1,.9c3.7,2,6.5,2.7,10.2,4.3l.5,.2l2.2,.8l2.1,.9l.8,.3l1.3,.4c7.9,2.6,14.8,3.6,20.6,10.3l.9,1.8l.1,.3l-.1,1.1c-.4,3.3,-1,6.3,-1.1,9.6L414,193l-.2,2.2l-.7,2.1l-1.5,2.2l-.6,.6l-1.6,1.5l-.6,.5l-2.1,1.5l-.2,.2l-1.9,1l-2.2,.8l-.6,.3l-1.5,.5l-2.2,1.1l-.9,.5l-1.2,.7l-2.2,1.5l-2.1,1.7c-2.1,1.9,-4,4.9,-6.4,6.6l-.3,.2l-1.9,1.4c-2,1.5,-3.9,3.2,-5.6,5.1l-.8,.8l-1.2,1.3l-.9,1.1l-.8,1l.1,2.2l.7,.8l1.2,1.3l.9,1l2.2,2.2l1.2,1.1c1.7,1.5,3.5,3,5.5,4.3l1.8,1.7l.4,.4l1.8,2.2l1.5,2.1l.6,.7c4,6.2,11.1,9.5,15,15.6l.4,.8l.9,2.2l.7,2.1c1,2.5,1.6,5.3,2.3,7.9l.1,.7l.5,2.1c-.1,2.7,-2.2,6.4,-3.7,8.6l-1.2,1.6l-.5,.5l-1.6,1.7l-.7,.5l-1.5,1.1l-1.6,1l-.5,.3l-1.9,1.9c-1.3,2.1,-2.5,4.3,-4,6.4l-.6,.8l-1,1.3c-1.6,2,-3.4,3.6,-5.4,5.2l-1.8,1.3l-.3,.2l-2.2,1.5l-.3,.4c-1.6,2.4,-3.5,4.6,-5.8,6.4l-.3,.3l-2.1,1.3c-2.4,1.3,-5.8,3.2,-8.6,3.3l-2.1,-.5l-.4,-.1l-1.8,-.4l-2.1,-.7l-2.2,-.7c-11.3,-4.1,-9.4,-5.4,-17.1,-12.9l-.3,-.3l-2.4,-2.1c-1.8,-1.8,-3.8,-3.2,-5.9,-4.8l-2.1,-1.7l-1.9,-2.1c-1.7,-2.3,-3.3,-4.4,-5.3,-6.4L321,292.3l-.8,-.8l-1.3,-1.2l-.9,-.9l-1.2,-1l-2.2,-.1l-1.4,1.1l-.7,.6l-1.6,1.5c-2,2.1,-4,4.1,-5.6,6.5l-1.4,1.8l-.2,.3c-3.8,4.5,-6.6,5.1,-9.8,10.7l-.7,1.2l-.5,1l-1.1,2.1l-.5,1.5c-1,2.8,-2.5,5.4,-4.3,7.6l-1.6,1.6l-.6,.5l-2.1,1.5l-.4,.1l-1.7,.6l-2.2,.1l-2.1,.1l-2.2,.1l-2.1,.2l-2.1,.1l-2.2,.1l-2.1,.3l-2.2,-1l-.6,-.6Zm.6,2.7l2.2,.8l2.1,-.2l2.2,-.2c3.8,-.6,9.2,-.4,12.8,-1.5l2.1,-1.2l.5,-.4c3.1,-2.3,4.9,-5.1,6.3,-8.5l.8,-2.2l.7,-2.1l.3,-.6L294,313c2.5,-4.4,3.9,-5.9,8,-8.6l1.9,-1.8l.3,-.4c2.3,-3.2,3.6,-5.7,6.6,-8.5l1.7,-1.7l.5,-.5l1.6,-1.4l2.2,.1l2.1,2.1l1.5,1.4l.6,.6c6.2,6.2,4.1,7.7,12.9,13.1l1.6,1.3l.5,.4l1.9,1.7l.3,.3l4,4l.3,.4l1.2,1.7l.9,1.1l1,1.1l1.1,1l1.4,1.1l.8,.6l2.1,1.1l1.1,.5l1.1,.4l2.1,.8l2.1,.7l.8,.2l1.4,.4l2.1,.5l2.2,.5l2.1,.4l2.2,-.2l2.1,-.7l2.1,-.8l.2,-.1l2,-1l2.1,-1.1l2.2,-1.6l.6,-.6L381,320l.6,-.6l1.5,-2.2l2.2,-2.1l2.1,-1.4l1,-.7l1.2,-1l1.3,-1.2l.8,-.7l1.4,-1.4l.7,-.9l1.1,-1.3L396,305l.4,-.6l1.3,-2.2l.4,-.7l.8,-1.4l1.2,-2.1l.2,-.2l2.1,-1.3l1.2,-.7l1,-.6l1.7,-1.5l.4,-.4l1.6,-1.8l.5,-.7l.9,-1.4l1.2,-2.1l.1,-.3l.8,-1.9l.7,-2.1l.4,-2.2l-.4,-2.1l-.5,-2.1l-.5,-2.2l-.5,-2.1l-.6,-2.2l-.7,-2.1l-.8,-2.2l-.1,-.2l-.8,-1.9l-1.3,-1.8l-.3,-.3l-1.8,-2l-.2,-.2l-2,-1.6l-.8,-.5l-1.3,-.9l-1.5,-1.3l-.7,-.6L396.7,253l-.7,-.8l-1.3,-1.3l-.9,-1l-.9,-1.2L391.7,247c-3.9,-6.9,-7.7,-6.4,-12.8,-12.1l-1.2,-1.2l-1,-1l-1,-1.1l-.1,-2.2l1.1,-1.3l.7,-.8l1.5,-1.5l.6,-.6l1.5,-1.5c2.2,-2.2,4.4,-3,6.8,-5l1.8,-1.9l.1,-.2c2.9,-4.4,5.3,-6,10,-8.6l.6,-.3l2.1,-.7l2.2,-.7c13.3,-6.4,10.3,-11.6,12.4,-24l.4,-2.1l-.8,-2.1l-1.3,-1.7l-.5,-.5c-5.6,-6.6,-17.4,-7.5,-25.2,-11.2l-2.2,-.8l-1.9,-.8l-.2,-.2c-3.3,-2.2,-7,-3.9,-10.7,-5.3l-2.2,-.7l-.8,-.3c-4.6,-1.1,-7.6,-2.5,-12,-3.8l-1.8,-.4l-.4,-.1l-2.1,-.5l-2.1,-.4L351,151l-2.1,-.4l-1.2,-.4l-1,-.3c-3.3,-1,-7.4,-2.4,-10.5,-4l-.2,-.1l-2.1,-1.7c-3.2,-2.6,-6,-3.3,-9.9,-4.6l-.8,-.3l-2.2,-.6l-2.1,-.5c-9.7,-3,-20.1,-2.6,-29.3,-7.1l-.7,-.3l-2.1,-1l-1.8,-.9l-.4,-.4l-1.9,-1.7c-2.3,-2.1,-5.9,-2.6,-8.8,-3.6l-2.1,-.6l-.5,-.1c-4.8,-1.2,-9.7,-2.1,-14.5,-2.9l-2.1,-.4l-2.2,-.3l-2.1,-.3c-7.9,-1.7,-24.8,-3,-30,-9l-2.1,-1.6l-.8,-.5l-1.4,-.8L214,105.5l-2.2,.4l-2.1,.6c-3.8,1.2,-7.2,2.4,-10.7,4.3l-1.4,.9l-.7,.8c-2.4,4.1,-3.5,7.5,-4.8,12l-.6,2.2l-.2,2.1l1.1,2.2l.2,.2l1.2,1.9l.9,1.2c4.8,4.5,6.1,14,7.3,20.2l.4,2.1l.5,2.2c1.5,7.6,1.9,15.7,3.5,23.5l.5,2.2l.5,2.1l.2,.6l.4,1.6l.6,2.1l.6,2.1l.5,1.3l.4,.9l1.2,2.1l.5,.6l1.5,1.6l.7,.7l.8,1.4l1,2.2l.3,.5l.7,1.6l.9,2.1c3,6.8,2.6,13.9,5.1,21.4l.6,2.2l.5,2.1l.7,2.2l.1,.3l.7,1.8l.8,2.2c2.6,6,5.3,7.9,7.3,14.9l.7,2.2l.6,2.1c2.2,8.2,2.5,15.3,5.5,23.6l.8,2.1l.7,1.9l.2,.3l.9,2.1l1.1,1.9l.1,.2l1.5,2.2l.5,.6l1.1,1.5l1,1.5l.3,.7l.9,2.1l.7,2.1l.3,.8l.4,1.4l.7,2.1l.7,2.2c2,6.2,2.7,12.4,6.8,17.8l1.2,1.4l.9,1l1.4,1.2l.7,.5Z" class="g9_423"/>
<path d="M262.7,325.8L261.1,324l-.2,-.3l-1.4,-2.2l-.6,-.9c-2.7,-4.9,-3.4,-10.9,-5.2,-16.2l-.7,-2.2l-.5,-1.5c-1.9,-6.3,-3.9,-10,-7.3,-15.6L244.1,283l-.1,-.3l-.8,-1.9l-.9,-2.1c-2.5,-6.3,-3.4,-12.7,-4.9,-19.3l-.6,-2.1l-.5,-2.2c-2.1,-6.5,-4.1,-13.2,-7.3,-19.2l-1,-2.2l-.8,-2.1l-.4,-.9l-.4,-1.3l-.7,-2.1l-.8,-2.1c-2.2,-6.8,-2.5,-12.7,-5.3,-19.3l-.9,-2.1l-.4,-1.2c-2.8,-5.4,-4.6,-10.3,-6.6,-16l-.7,-2.1l-.7,-2.2l-.6,-2.1l-.6,-2.1c-1.6,-6.7,-2.1,-13.2,-3.7,-19.7l-.3,-1.8l-.5,-2.1c-1.5,-7.1,-2.5,-13.3,-5.6,-20l-.6,-1.4L197.2,131l-.3,-.7l-1,-1.5l.3,-2.1c3.1,-8.8,6.9,-12.9,15.6,-16.3L214,110l2.1,1.4l.4,.3l1.8,1l2.1,1l.2,.1c8.4,4,18.6,4.9,27.6,7.2l2.2,.4l2.1,.4c8.8,1.7,17.4,4.3,25.7,7.5l2.2,.6l2.1,.8l.4,.3l1.7,.8c9.7,4.6,16.9,5,26.8,7.7l1.1,.3l2.1,.7c9.5,2.7,18.3,7.9,27.9,10.7l2.1,.7l1.8,.5h.3l2.2,.6l2.1,.4l2.2,.5l2.1,.6c3.4,.9,7.5,2.5,10.5,4.3l.2,.1l2.2,.9c2.8,.9,5.8,2.4,8.5,3.5l2.2,.7l2.1,.7l1.8,.5c8.4,4,18.2,4.9,26,10l1,.7l1.2,1l1.2,1.2l.9,1.6l.3,.5c-.5,4.3,-.8,8.6,-1.1,12.8l-.2,2.2l-.7,2.1c-1.7,2.4,-4.3,4.6,-6.8,6l-.9,.5l-1.3,.5l-2.1,.9l-1.6,.7c-3.4,1.6,-6.4,3.6,-9.1,6.1l-.4,.3l-1.8,2c-2.3,3.1,-5.8,4.8,-8.5,7.4l-1.5,1.3l-.7,.7l-1.3,1.5l-.8,.9l-1,1.2l-1.2,1.5l-.4,.6l.1,2.2l.3,.4c5.2,7.3,13.9,11.1,18.6,18.9l.7,.8l1.1,1.3c7.5,9,11.3,7.1,15.2,19.3l.6,2.1l.2,.6l.5,1.6l.5,2.1l.5,2.1l-.4,2.2l-1.1,2.1l-1.2,2.2l-.9,1.3l-.6,.8l-1.5,1.8l-.5,.3l-1.7,1.5c-2.4,1.7,-5,3.5,-6.4,6.2l-.5,.9l-1.4,2.1l-.3,.4l-1.3,1.8c-2,2.5,-4,4.4,-6.6,6.4l-.6,.5l-2.2,1.5c-3.1,3.1,-4.7,6.1,-8.5,8.6l-.2,.1l-2,1.2l-1.8,1l-.3,.1l-2.1,.9l-2.2,.4l-2.1,-.5c-14.3,-4.2,-14.1,-6,-23.6,-15.6l-.4,-.3l-1.7,-1.5l-.7,-.7c-2.5,-2.2,-5.5,-3.9,-7.8,-6.4l-.1,-.1l-1.7,-2c-2,-2.8,-4.4,-5.3,-6.9,-7.7l-.9,-.9l-1.2,-1.1l-1.3,-1l-.8,-.8l-2.2,-.1l-1.1,.9c-2.2,1.7,-4.9,4.2,-6.7,6.4l-.7,.8l-1.1,1.3c-2.6,3.8,-4.1,5.3,-7.5,8.2l-.4,.4l-1.7,2.1l-1.6,2.2c-4.9,7.1,-6.2,19.7,-17.7,18.3l-2.2,.1l-2.1,.1l-2.1,.1h-2.2l-2.1,.3l-2.2,-1.3l-.5,-.5Zm.5,2.7l2.2,1l2.1,-.3l2.2,-.1l2.1,-.1c3.1,-.4,8,0,10.7,-1.2l2.1,-1.5l.6,-.5c2.8,-2.4,4.7,-5.8,5.9,-9.2l.5,-1.5l1.1,-2.1l.5,-1l.7,-1.2c2.7,-4.4,4.3,-5.3,7.9,-8.6l1.9,-2.1l.2,-.3c2.2,-3.1,4.3,-5.6,7,-8.3l1.6,-1.5l.7,-.6l1.4,-1.1l2.2,.1l1.2,1l.9,.9l1.3,1.2l.8,.8l1.4,1.4c1.9,1.9,3.5,3.9,5.1,6.1l.2,.3l1.9,2.1c2.1,1.8,4.4,3.3,6.4,5l1.6,1.5l2.4,2.1c7.4,6.9,5.9,8.9,16.4,12.9l1,.3l2.2,.7l2.1,.7l1.8,.4l.4,.1l2.1,.5l2.2,-.4l.7,-.2l1.4,-.5l2.1,-1l1.2,-.6l1,-.6c2.5,-1.3,4.6,-3.4,6.4,-5.6l.2,-.3l1.6,-2.1l.3,-.4c7.8,-5.1,10.8,-8.6,15.3,-16.7l1.9,-1.9l.5,-.3l1.6,-1l1.5,-1.1l.7,-.5l1.6,-1.7l.5,-.5c1.8,-2.1,3.2,-4.9,4.3,-7.4l.2,-.6l.4,-2.2c-.6,-2.8,-1.3,-5.7,-2.1,-8.5l-.7,-1.9l-.1,-.3L408,268c-2.3,-7.8,-10.8,-10.7,-15.2,-17.1l-1.1,-1.5l-.6,-.7l-1.5,-2.1l-1.8,-2.2l-.4,-.4c-1.8,-2.2,-4.4,-3.2,-6.4,-5.2l-.9,-.8l-1.2,-1.1c-1.8,-1.8,-3.4,-3.4,-5,-5.3l-.1,-2.2l.8,-1l.9,-1.1l1.2,-1.3c1.7,-1.9,3.5,-3.6,5.4,-5.1l1,-.8l1.9,-1.4c2.7,-1.8,4.3,-4.7,6.7,-6.8l2.1,-1.7l2.2,-1.5l1.2,-.7l.9,-.5l2.2,-1.1l1.5,-.5l.6,-.3l2.2,-.8l1.9,-1l.2,-.2c2.5,-1.7,4.8,-3.6,6.4,-6.3l.7,-2.1L414,193c.3,-3.7,.7,-7,1.1,-10.7l.2,-1l.1,-1.1l-.1,-.3C412.1,173,402.6,170.5,396,168.5l-3.5,-1.1l-.8,-.3l-2.1,-.9C381.3,163.3,374.3,159.4,366,157l-.7,-.4l-1.4,-.6c-8.5,-3.6,-17,-3.9,-25.7,-7.6l-.7,-.3l-1.5,-.7l-2.1,-1l-1,-.5l-1.2,-.7l-2.1,-1.1c-6.3,-3.2,-14.5,-5.3,-21.4,-6.9l-2.1,-.5l-2.2,-.4c-8.1,-.9,-16.6,-4.4,-23.5,-8.5l-2.2,-.8l-.8,-.3l-1.3,-.5l-2.2,-.8c-7.4,-2.3,-15.8,-4.3,-23.5,-5.4l-2.2,-.4l-2.1,-.4c-9.4,-2.2,-17,-2.5,-25.7,-7.1l-.8,-.4l-1.3,-1.1l-1.5,-1.1l-.7,-.4L214,107.8l-2.2,.3c-11.9,4,-14.2,6.9,-17.9,18.6l-.3,2.1l1.1,1.9l.2,.3l1.6,2.1l.4,.4c3.3,6.3,4.7,11.9,6,18.9l.4,2.1l.4,2.1c1.8,7.1,2.2,14.2,3.6,21.5l.3,1l.2,1.1l.5,2.1l.6,2.2c2.2,8.8,4.8,11.7,8.4,19.3l.9,2.1l.1,.2c3.4,7.2,3.1,13.8,5.6,21.2l.7,2.1l.1,.4l.6,1.8l.7,2.1l.8,2.2l.9,2.1c3.3,6.5,5,10,7.2,17.1l.5,1.9l.1,.3c2.2,7.1,2.7,14.2,5.1,21.4l.8,2.1l.4,1.3l.4,.9l.9,2.1c2.6,5.9,5.8,8.3,7.8,15l.6,2.1l.8,2.2c2.1,6.2,3.1,13.9,6.8,19.3l1.5,2.1l.5,.6l1.5,1.5l.6,.6Z" class="ga_423"/>
<path d="M262.8,323.7l-1.6,-2.2l-.1,-.1l-1.3,-2l-.9,-1.8c-2.1,-5.2,-3.1,-11.9,-5.1,-17.5l-.7,-2.1l-.6,-1.9C250.4,289.5,246.8,285,244,278.7l-.9,-2.1l-.7,-2.2l-.6,-1.6l-.2,-.5c-1.9,-6.4,-2.7,-12.9,-4.5,-19.3l-.7,-2.1l-.6,-2.2c-2,-6.7,-3.9,-11.3,-6.8,-17.6l-.7,-1.7l-.9,-2.1l-.6,-1.3l-.3,-.8l-.7,-2.2l-.7,-2.1c-1.5,-5.7,-2.4,-11.1,-4.7,-16.7l-.2,-.4l-.8,-2.2c-3,-6,-3.9,-11,-6.4,-17.1l-.8,-2.2l-.4,-1l-.3,-1.1c-4.2,-15.6,-5.5,-32,-11.4,-47.1l-1,-2.1l-.1,-.3l-1.1,-1.9l.6,-2.1c3,-7.1,6.4,-10.6,13.3,-14l2.2,-.5l2.1,1.2l.7,.4l1.5,.7l2.1,.9c8.7,3.6,18.7,4.6,27.8,7l2.2,.3l2.1,.5c9.7,1.9,18.4,6.1,27.9,8.4l2.1,.8l1.5,.7l.6,.3l2.2,.8c10.2,4.2,19.5,4.4,30,8.8l2.1,.8l2.1,.9c8.4,3.6,19,7.7,27.9,9.4l1.8,.4l.3,.1l2.2,.6l2.1,.7l2.1,.7h.3l1.9,.8c3.3,1.2,5.5,3.2,8.6,4.4l2.1,.9l.9,.4c3.8,1.6,8,2.8,11.9,3.8l1.1,.4l5.4,2c2.8,.9,5.6,1.8,8.5,2.6l2.2,.6l2.1,.8l1.1,.5l1.1,.5l2.1,1.3l.5,.3l1.6,1.2l1.2,1l1,1.5l.4,.6l-.2,2.1l-.1,2.2l-.1,1.1l-.1,1l-.2,2.2c-.5,4.7,1,7.5,-3.1,10.7l-.9,.7l-1.9,1.4c-2.7,1.9,-6,2.8,-9,4.3l-2,1.2l-1.5,.9l-.6,.5l-2.1,1.6c-2.4,1.9,-3.9,4.6,-6.5,6.3l-.3,.2l-1.8,1.3c-2.8,2.1,-5.4,4.6,-7.7,7.3l-.9,1l-.8,1.1l-1.3,1.8l-.2,.3l.2,2.2l1.7,2.1l.4,.6l1.4,1.6l.8,.8l1.2,1.3c2.2,2.2,4.8,4.4,7.3,6.1l.4,.3l1.8,1.6c1.9,1.9,3.6,4.9,5.5,7l1.9,2.1l1.1,1.2l1,1c2.2,2.4,4.8,4.2,7.2,6.4l.4,.5l1.1,1.6c2.2,4.1,3.8,8.5,5,12.9l.3,1.2l.3,.9l-.3,1.1l-.2,1.1l-1.2,2.1l-.7,1.2c-1.7,2.7,-3.8,4.7,-6.4,6.6l-1.1,.8l-1.1,.9c-2.9,2.3,-4,5.5,-6.4,8.3l-1.2,1.5l-.9,1.1l-1.1,1l-1.1,1c-2.8,2.7,-6,4.3,-8.2,7.6l-.3,.4l-1.6,1.7c-2.4,2.6,-6,4.8,-9.1,6.2l-1.1,.3l-1.1,.2l-.8,-.2l-1.3,-.5l-2.2,-.7l-2.1,-.7l-.7,-.3c-11.2,-4.3,-10.8,-7.9,-19.2,-15l-1.5,-1.3l-1,-.8l-1.2,-1c-3.7,-2.8,-5,-3.6,-7.8,-7.6l-.7,-.8l-1.2,-1.3c-2.2,-2.6,-4.8,-5.1,-7.4,-7.3l-1.5,-1.3l-.6,-.5l-2.2,-.1l-.8,.6l-1.3,1l-1.4,1.2c-2.4,2,-4.3,4,-6.3,6.4l-.9,1l-.8,1.1c-2.9,4.4,-4.4,4.9,-7.7,8.5l-.2,.1l-1.6,2.1l-.4,.6l-1,1.6c-1.9,2.7,-2.6,5.7,-4,8.5l-1.3,2.2l-.1,.1c-3.5,4.9,-4.3,6.1,-10.7,5.8h-4.3l-2.1,.1h-2.2l-2.1,.2l-2.2,-1.4l-.4,-.5Zm.4,2.6l2.2,1.3l2.1,-.3h2.2l2.1,-.2h2.1l2.2,-.1c11,1.3,12.7,-10.3,17.1,-17.4l.6,-.9l1.6,-2.2l1.7,-2.1c2.7,-2.6,4.7,-3.7,6.8,-7.1l1.1,-1.5l1.1,-1.3c2,-2.5,3.9,-4.3,6.4,-6.4l1,-.8l1.1,-.9l2.2,.1l.8,.8l1.3,1c7.3,6,9.2,11.8,17.1,17l1.5,1.2l.7,.7c10.6,9,7.9,11.8,23.5,16.7l2.2,.7l2.1,.5l2.2,-.4l2.1,-.9l.3,-.1l1.8,-1l2,-1.2c2.6,-1.7,4.7,-4,6.6,-6.4l2,-2.2l.1,-.1c2.7,-1.8,5.4,-3.8,7.5,-6.3l1.1,-1.2l.8,-.9l1.3,-1.8l.3,-.4c2.3,-3.5,2.6,-4.9,6.2,-7.7l1.2,-.8l.9,-.7c3.6,-2.7,5.6,-6,7.5,-10l.4,-2.2l-.5,-2.1l-.5,-2.1l-.5,-1.6l-.2,-.6c-4.4,-14,-5.8,-10.6,-14.8,-20.2l-1,-1.2l-1.1,-1.3l-.7,-.8c-2.1,-2.6,-3.1,-4.7,-5.7,-6.8l-2.2,-1.8L381,240.6c-2.8,-2.1,-4.8,-4.3,-7.1,-6.9L372.4,232l-.3,-.4l-.1,-2.2l.4,-.6l1.2,-1.5l1,-1.2l.8,-.9l1.3,-1.5l.7,-.7l1.5,-1.3c2.7,-2.6,6.2,-4.3,8.4,-7.2l.1,-.2l1.8,-2c2.5,-2.4,5.8,-4.6,8.9,-6.2l.6,-.2l1.6,-.7l2.1,-.9l1.3,-.5c2.7,-1.4,5.4,-3.5,7.3,-5.9l.4,-.6l.7,-2.1c.3,-4.3,.7,-8.6,1,-12.9l.3,-2.1l-.3,-.5l-.9,-1.6L411,176.9l-1.2,-1c-6.8,-5.3,-16.4,-6,-24.5,-9.8l-2.2,-.8l-.3,-.1l-1.8,-.5c-3.9,-1.1,-6.1,-2.2,-9.8,-3.8l-.9,-.4l-2.1,-.7c-3.8,-1.5,-6.6,-3.5,-10.8,-4.7l-2.1,-.6l-2.1,-.6l-2.2,-.5l-2.1,-.4l-2.2,-.6h-.3l-1.8,-.5c-9.1,-2.4,-17.6,-7.2,-26.4,-10.2l-3.6,-1.2c-9.7,-3.4,-18.1,-3.4,-27.8,-7.8l-2.2,-.9l-1.7,-.8l-.4,-.3l-2.1,-.8C271.7,127,263.8,124,254.7,122.2l-2.2,-.4l-2.1,-.4c-10,-2.3,-20.4,-3.3,-29.8,-7.6l-.2,-.1l-2.1,-1l-1.8,-1l-.4,-.3L214,110l-2.2,.4c-8.7,3.4,-12.5,7.5,-15.6,16.3l-.3,2.1l1,1.5l.3,.7l1.2,2.1l.6,1.4c3.1,6.7,4.1,12.9,5.6,20l.5,2.1l.3,1.8c1.6,6.5,2.1,13,3.7,19.7l.6,2.1l.6,2.1l.7,2.2l.7,2.1c2,5.7,3.8,10.6,6.6,16l.4,1.2l.9,2.1c2.8,6.6,3.1,12.5,5.3,19.3l.8,2.1l.7,2.1l.4,1.3l.4,.9l.8,2.1l1,2.2c3.2,6,5.2,12.7,7.3,19.2l.5,2.2l.6,2.1c1.5,6.6,2.4,13,4.9,19.3l.9,2.1l.8,1.9l.1,.3l1.1,2.1c3.4,5.6,5.4,9.3,7.3,15.6l.5,1.5l.7,2.2c1.9,5.6,2.6,12.1,5.8,17.1l1.4,2.2l.2,.3l1.6,1.8l.5,.5Z" class="gb_423"/>
<path d="M262.8,321.5l-1.4,-2.1l-.3,-.5l-.9,-1.7l-1,-2.1c-1.3,-5.8,-2.8,-11.5,-4.5,-17.1l-.6,-2.2l-.8,-2.1c-1.9,-6.9,-6,-10.9,-8.6,-17.1l-.7,-2l-.1,-.2l-.8,-2.1c-4.3,-14.4,-5.4,-29.2,-12.9,-42.9l-1.1,-2.1l-.1,-.2l-.8,-1.9l-.9,-2.2l-.5,-1.3c-1.7,-5.3,-2.7,-10.5,-4.3,-15.8l-.8,-2.1l-.8,-2.2c-2.9,-6.1,-3.4,-10.9,-5.8,-17.1l-.8,-2.2l-.3,-.7l-.5,-1.4c-4.9,-15.4,-6.6,-31.8,-11.7,-47.1l-.7,-1.6l-.2,-.5l-1,-2.2l.7,-2.1c2.7,-5.6,5.9,-8.7,11.2,-11.7l2.2,-.8l2.1,1.2l1.4,.6l.8,.3l2.1,.8c8.7,3,18.9,4.3,27.8,6.6l2.2,.5l1.4,.3c9.7,2,17.5,6.7,27.3,8.6l1.3,.3l2.1,.7l2.1,.8l.8,.3c9,3.6,18.1,4.2,27.1,7.9l1.6,.7l.5,.2c9,4.2,18.3,7.5,27.9,9.9l2.1,.5l.4,.1l1.7,.4l2.2,.4l2.1,.5l2.2,.7l.4,.1c3.2,1.1,6.8,2.6,9.7,4.3l.6,.4l2.1,1.5c2.9,1.7,5.5,2.4,8.6,3.5l2.1,.7l1.3,.3l.9,.3l2.1,.5c3.7,.7,7.1,2.4,10.7,3.3l.6,.2l1.5,.5c4.2,1.2,7.1,1.4,10.9,3.8l2,1.4l1,.8l1.1,1.4l.5,.7l-.1,2.1v2.2l-.1,2.1l-.2,2.2v2.1l-.1,2.1l-.1,2.2l-.7,2.1l-1.3,1.3l-1.1,.9c-3.2,2.7,-6,3.4,-9.6,4.9l-2.2,1.1l-.7,.4l-1.4,.8l-1.8,1.3c-2.7,1.7,-4.3,4.5,-6.6,6.5l-.2,.1L381,216c-2.9,2,-5.5,4.4,-7.9,7l-.7,.8l-1.1,1.4l-1,1.3l-.6,.8l-1.4,2.1l.2,2.2l1.6,2.1l.2,.3l1.5,1.9l.6,.7c2.1,2.3,4,4.2,6.5,6.2l2.1,1.6l2.1,1.5c2.6,2,3.7,4.7,5.7,7.1l.8,.9l1,1.2l1.1,1.2c9.3,9.7,9.5,6,14.8,20.3l.2,.5l.5,1.6l.6,2.1l-.5,2.2l-.6,1c-1.7,2.9,-4,5.6,-6.9,7.5l-1.7,1.2l-1,1c-2.4,2,-3.7,4.4,-5.4,6.8l-1.3,1.7l-.8,1l-1,1.2l-1.2,1.1c-2,2,-4.2,3.7,-6.4,5.4l-2,2l-.1,.2c-1.7,2.5,-3.9,4.8,-6.5,6.5l-2.1,1.4l-1,.5l-1.1,.6l-2.2,.5l-2.1,-.7l-1.2,-.4l-1,-.3C349.8,316.5,350.6,314.4,342,306.5L340.3,305l-2.1,-1.7c-2.1,-1.9,-4.7,-3.2,-6.6,-5.3l-1.5,-2.2l-.5,-.6c-2.4,-3,-4.5,-5.4,-7.4,-7.9L321,286.2l-1.2,-1.1l-.9,-.7L317.1,283l-.3,-.3l-2.2,-.1c-2.3,1.5,-4.3,3.3,-6.4,5.1l-1.7,1.7l-.4,.5c-2.4,2.6,-4.5,5.2,-6.5,8.2l-2,2l-.1,.1l-2.1,1.9l-.2,.1c-2.3,2.6,-4.1,5.5,-5.6,8.6l-.7,1.5l-.2,.6l-.8,2.2l-1.1,2.1l-1.4,2.2l-.8,1l-.9,1.1l-1.2,1.2l-2.1,.8H267.5l-2.1,.2l-2.2,-1.6l-.4,-.6Zm.4,2.7l2.2,1.4l2.1,-.2h2.2l2.1,-.1h4.3c5.3,0,5.8,.3,9.3,-3.8l1.4,-2l.1,-.1c2,-2.9,2.6,-5.8,4.2,-8.8l1.1,-1.9l1,-1.6l.4,-.6l1.6,-2.1c1.9,-2.4,4.7,-3.9,6.3,-6.4l.3,-.4l1.3,-1.8c2.1,-2.7,4.6,-5.6,7.2,-7.9l.8,-.6l1.4,-1.2l1.3,-1l.8,-.6l2.2,.1l.6,.5c2.4,2,4.8,4.2,7,6.4l.9,1l1,1.2c3.1,3.2,4.1,6,8.2,8.5l1.5,1.2l1.2,1l1,.8c7.7,6,10.7,13.1,20.7,16.3l.7,.3l2.1,.7l2.2,.7l1.3,.5l.8,.2l1.1,-.2l1.1,-.3c2.8,-1.2,6.4,-3.4,8.5,-5.6l.6,-.6l1.6,-1.7c2.3,-3.3,4.3,-4.4,7.2,-6.8l1.3,-1.2l1.1,-1l1.1,-1l.9,-1.1c2.2,-2.6,3.6,-5,5.5,-7.6l.8,-1l1.3,-1.2c2.9,-2.5,5.7,-4,7.9,-7.3l.7,-1l.7,-1.2l1.2,-2.1l.2,-1.1l.3,-1.1l-.3,-.9c-.8,-3.3,-2,-6.6,-3.2,-9.8l-1,-2.1l-1.1,-2.2c-1.4,-2.9,-5.2,-4.9,-7.5,-7.3l-1.2,-1.2l-1,-1l-1.1,-1.2l-1,-1.1c-2.3,-2.4,-3.8,-4.9,-5.8,-7.4l-.6,-.6l-1.8,-1.6c-2.7,-1.9,-5.3,-4,-7.7,-6.4l-1.2,-1.3l-.8,-.8l-1.4,-1.6l-.4,-.6l-1.7,-2.1l-.2,-2.2l.2,-.3l1.3,-1.8l.8,-1.1l.9,-1c2,-2.4,4.2,-4.5,6.6,-6.5l1.1,-.8l1.8,-1.3c2.7,-1.6,4.3,-4.4,6.6,-6.4l.2,-.1l2.1,-1.6l.6,-.5l1.5,-.9c2.8,-1.9,5.8,-2.6,8.6,-4.1l2.2,-1.2l.2,-.2c5.2,-4,5.8,-3.7,5.9,-10.7v-2.1l.2,-2.2l.1,-1l.1,-1.1l.1,-2.2l.2,-2.1c-1.4,-3,-4.2,-4.3,-6.8,-5.9l-1.1,-.5l-1.1,-.5c-3.9,-1.5,-8.2,-2.4,-12.2,-3.8l-.6,-.2l-5.4,-2c-3,-1,-6.5,-1.7,-9.6,-2.9l-2.2,-.8l-1.2,-.5c-4.6,-1.7,-5.5,-2.7,-9.5,-4.7l-2.1,-1l-1.9,-.8h-.3l-2.1,-.7l-2.1,-.7l-2.2,-.6l-.3,-.1c-9.6,-1.7,-18.6,-5.3,-27.5,-8.8l-2.2,-1l-2.1,-.9c-9.6,-4.2,-20.1,-5.4,-30,-8.8l-2.1,-.8l-2.2,-.8l-.6,-.3l-1.5,-.7C273,129.8,264.2,126,254.7,123.7l-2.2,-.5l-2.1,-.5c-10,-2.3,-20.4,-3.5,-30,-7.3l-2.1,-.9l-1.5,-.7l-.7,-.4L214,112.2l-2.2,.5c-6.9,3.4,-10.3,6.9,-13.3,14l-.6,2.1l1.1,1.9l.1,.3l1,2.1c5.6,14.4,7.1,30,10.8,45l.6,2.1l.3,1.1l.4,1c2.3,5.5,3.8,12.1,6.3,17.2l.9,2.1l.8,2.2c2.4,5.7,3.3,11.2,4.9,17.1l.7,2.1l.7,2.2l.3,.8l.6,1.3l.9,2.1l.7,1.7c2.9,6.3,4.8,10.9,6.8,17.6l.6,2.2l.7,2.1c1.8,6.4,2.6,12.9,4.5,19.3l.2,.5l.6,1.6l.7,2.2l.9,2.1c2.8,6.3,6.4,10.8,8.5,17.4l.6,1.9l.7,2.1c2.2,6.1,3.1,14,6,19.3l1.3,2l.1,.1l1.6,2.2l.4,.5Z" class="gc_423"/>
<path d="M265.2,321.5l-2,-1.6l-.3,-.5l-1.4,-2.2l-.4,-.9c-2,-5.9,-2.9,-12.3,-4.9,-18.3l-.6,-2.2l-.6,-2.1c-1.8,-6,-3.7,-10.1,-7.5,-15l-1.2,-2.1l-.2,-.5l-.7,-1.7l-.9,-2.1c-2.6,-6.4,-2.8,-10.7,-4.1,-17.2l-.5,-2.1l-.2,-1.1c-1.8,-6.8,-3,-13.9,-6.1,-20.3l-.3,-.6l-.9,-1.6l-1.3,-1.7l-.2,-.4l-1,-2.1l-.9,-1.9c-2.1,-4.9,-3.2,-10.1,-4.6,-15.3l-.6,-2.1l-.6,-2.1c-2.8,-6.9,-3.3,-10.3,-5.2,-17.2l-.6,-2.1l-.8,-2.2l-.5,-1.2l-.3,-.9c-3.4,-7.1,-4.2,-13.6,-6.1,-21.1l-.1,-.3l-.6,-2.2c-1.9,-7.1,-2.9,-14.4,-4.8,-21.4l-.7,-2.1l-.2,-.7l-.5,-1.4l-.9,-2.2l.8,-2.1c2.4,-4,5.2,-7,9.1,-9.5l2.2,-1l2.1,1.1l2.2,.7l.3,.1l1.8,.6c8.9,2.6,18.7,3.9,27.8,6.3l2.2,.6l2.1,.5l1.9,.6c3.2,1.2,5.9,1.7,8.8,3.6l1.5,.7l.7,.3c3.8,1.3,6.8,2,10.7,3l2.1,.4l2.2,.4l.3,.1l1.8,.5l2.1,.8c10.2,3.8,20.2,4,30,9.3l.3,.1l1.9,1.3c7.1,3.6,17.7,6.1,25.7,8.1l2.1,.4l2.1,.4l2.2,.4l.6,.1l1.5,.4l2.2,.8l2.1,.7c2.1,1.1,4.6,1.8,6.4,3.3l1.8,1.3l.4,.3l2.1,1.8l2.1,1l2.2,.7l1.3,.4l.8,.3l2.2,.7l2.1,.5l2.2,.6l.5,.1l1.6,.3c4.3,.9,8.5,2.6,12.8,3.7l1.1,.3l1.1,.2c4.2,.9,6,1.5,9.5,4.1l1.2,1.3l.6,.8v6.4l-.2,2.2v6.4l-.4,1.1l-.4,1l-1.7,1.5l-.9,.7l-1.3,.8c-2.4,1.7,-5.7,2,-8.6,3.6l-2.1,1.1l-1.4,.9l-.7,.5l-2.2,1.6c-3.5,2.8,-2.8,3.8,-6.9,6.5l-1.6,1.1l-1.4,1c-2.4,1.9,-4.6,4.1,-6.5,6.4l-.7,.8l-1,1.4l-1.2,1.6l-.4,.5l-1.4,2.1l.1,2.2l1.7,2.1l1.7,2.2l.5,.6c2.1,2.4,4,4.5,6.4,6.5l1.8,1.4l.4,.3c4.9,3.4,4.4,3.5,8,8.3l.5,.7l1.2,1.4l1,1.2c8.2,9.2,10.7,7.3,15.5,20.3l.8,2.1l.7,2.1l-.7,2.2l-1.3,2l-.1,.1c-1.6,2.3,-3.8,4.6,-6.4,5.8l-.9,.6l-1.2,1.1c-2.8,2.3,-4.2,5.8,-6.4,8.4l-1.1,1.2l-1.1,1.3l-.8,.9l-1.3,1.2c-2.3,2.1,-4.4,2.9,-6.4,5.1l-.2,.1l-1.7,2.1c-1.7,3.2,-3.6,4.5,-6.4,6.5l-.3,.2l-2.2,1.2l-2.1,.6l-2.1,-.8l-2.2,-.9l-.8,-.3C351.2,315.7,348,309,340.3,303l-.9,-.8l-1.2,-1l-1.5,-1.1c-4,-2.7,-4.2,-4,-7.1,-7.3l-1,-1.3l-1.1,-1.2c-2.4,-2.5,-5.3,-5.4,-7.9,-7.3l-.7,-.6l-2,-1.6l-.1,-.1l-2.2,-.2l-.4,.3l-1.7,1.2c-2.2,1.8,-4.5,3.5,-6.4,5.5l-1.9,1.9l-.3,.3c-2.3,2.7,-4.3,5.6,-6.4,8.4l-2.1,1.9l-.2,.1l-2,2.1l-1.7,2.2c-2,3,-3,5.2,-4.2,8.5l-.5,1.7l-.2,.5l-1.1,2.1l-.9,1.2l-.7,1l-1.4,1.6l-1.3,.5l-.8,.3h-4.3l-2.2,-.1h-6.4l-2.1,-.1l-.2,-.1Zm-2,.6l2.2,1.6l2.1,-.2h12.9l2.1,-.8l1.2,-1.2l.9,-1.1l.8,-1l1.4,-2.2l1.1,-2.1l.8,-2.2l.2,-.6c1,-2.6,2.8,-5.7,4.5,-7.9l1.8,-2.2l.2,-.1l2.1,-1.9l.1,-.1c2.7,-2.1,3.9,-5.3,6.3,-7.8l.7,-.8l1.5,-1.6c2.2,-2.5,5.3,-5,8,-6.9l.5,-.4l2.2,.1l.3,.3l1.8,1.4l.9,.7l1.2,1.1c2.3,2.1,4.5,4,6.5,6.4l.8,1.1l1.3,1.5c1.7,3.1,4.6,5,7.3,7l1.3,1.1l2.1,1.7c9.5,8,8.6,11.3,21.4,16.2l1,.3l1.2,.4l2.1,.7l2.1,-.5l1.2,-.6l1,-.5l2.1,-1.4c2.6,-1.7,4.8,-4,6.5,-6.5l.1,-.2l2,-2c2.2,-1.7,4.4,-3.4,6.4,-5.4l1.2,-1.1l1,-1.2l.8,-1l1.3,-1.7c1.7,-2.4,3,-4.8,5.4,-6.8l1,-1l1.7,-1.2c2.9,-1.9,5.1,-4.6,6.9,-7.5l.6,-1l.5,-2.2l-.6,-2.1l-.5,-1.6l-.2,-.5C401.2,262.3,401,266,391.7,256.3l-1.1,-1.2l-1,-1.2l-.8,-.9c-2,-2.4,-3.1,-5.1,-5.7,-7.1L381,244.4l-2.1,-1.6c-2.5,-2,-4.4,-3.9,-6.5,-6.2l-.6,-.7L370.3,234l-.2,-.3l-1.6,-2.1l-.2,-2.2l1.4,-2.1l.6,-.8l1,-1.3l1.1,-1.4l.7,-.8c2.1,-2.4,4.5,-4.5,7.1,-6.4l.8,-.6l2.1,-1.4c2.4,-1.9,3.9,-4.7,6.5,-6.3l.3,-.3l1.8,-1.3l1.4,-.8l.7,-.4c3.9,-2.3,6.9,-2.4,10.8,-5.2l1,-.8l1.1,-.9l1.3,-1.3l.7,-2.1l.1,-2.2l.1,-2.1v-2.1l.2,-2.2l.1,-2.1v-2.2l.1,-2.1l-.5,-.7l-1.1,-1.4l-1,-.8c-3.6,-2.7,-6.4,-3.7,-10.7,-4.6l-2.2,-.6l-1.5,-.5c-3.2,-.8,-6,-2.1,-9.2,-3l-2.1,-.5l-2.1,-.5l-.9,-.3l-1.3,-.3c-3.1,-1,-7.4,-2.3,-10.2,-3.9l-.5,-.3l-2.1,-1.5c-2.8,-1.9,-7.1,-3.6,-10.3,-4.7l-.4,-.1l-2.2,-.7l-2.1,-.5l-2.2,-.4l-1.7,-.4l-.4,-.1l-2.1,-.5c-8.8,-2.3,-17.5,-5.1,-25.7,-9l-2.2,-.9l-.5,-.2c-8.9,-4.1,-18.2,-4.7,-27.3,-8.1l-2.2,-.8l-2.1,-.8l-2.1,-.7c-10.4,-1.9,-17.9,-6.5,-27.9,-8.7l-2.1,-.5c-9.7,-2.5,-20.7,-4,-30,-7.1l-2.1,-.8l-.8,-.3l-1.4,-.6L214,114.2l-2.2,.8c-5.3,3,-8.5,6.1,-11.2,11.7l-.7,2.1l1,2.2l.2,.5l.7,1.6c5.1,15.3,6.8,31.7,11.7,47.1l.5,1.4l.3,.7l.8,2.2c2.1,5.2,2.9,10.8,5.3,15.9l.5,1.2l.8,2.2c2.2,5.8,3.2,12,5.1,17.9l.5,1.3l.9,2.2l.8,1.9l.1,.2l1.1,2.1c7.5,13.7,8.6,28.5,12.9,42.9l.8,2.1l.1,.2l.7,2c2.6,6.2,6.7,10.2,8.6,17.1l.8,2.1l.6,2.2c2.2,6.3,3,13.1,5.4,19.2l1,1.7l.3,.5l1.4,2.1l.4,.6Z" class="gd_423"/>
<path d="M264.9,319.4l-1.7,-1.6l-.3,-.6l-1.1,-2.1l-.5,-2.1c-1.2,-6,-2.7,-11.4,-4.1,-17.2l-.4,-1.7l-.1,-.4c-1.5,-6.1,-3.8,-12.6,-8.5,-17l-.1,-.1L247,274.4l-.9,-1.7l-.2,-.4C243,265.9,243,261.8,241.7,255.1l-.3,-2.1l-.5,-2.1C239.5,244.2,238.4,238,236,231.6l-.6,-1.2l-.5,-1l-1.3,-2.1l-.3,-.5l-1.2,-1.6l-1,-1.1C228.3,218.8,227,213.9,225.8,208l-.6,-2.1l-.5,-2.1c-3,-7.4,-3.2,-12,-5.1,-19.3l-.6,-2.2l-.7,-2.1l-.7,-2.1l-.8,-2.2l-.7,-1.7l-.2,-.4l-1.1,-2.2l-.8,-1.4l-.2,-.7l-.6,-2.1l-.5,-2.2l-.6,-2.1l-.3,-.9l-.3,-1.3l-.5,-2.1l-.6,-2.2l-.5,-2.1c-2,-6.7,-2.5,-12.6,-4.1,-19.3l-.4,-1.4l-.2,-.7l-.6,-2.1l-.7,-2.2l1,-2.1c1.9,-2.8,4.2,-5.3,6.9,-7.3l2.2,-1l2.1,.8l2.2,.6l1.7,.4l.4,.2c6.6,1.6,13.2,2.3,20,4.1l3.6,.9c6,1.3,11.9,3.1,17.1,6.5l2.1,1l.5,.2l1.7,.6l2.1,.5c7.1,2.1,14.5,2.5,21.4,5.1l.7,.2l1.5,.4c7.4,1.6,13.1,2.4,20,6l1.4,1.2l1.3,1l.8,.5l2.2,1.1l1,.5l1.1,.5c6.5,2.4,12.6,3.2,19.3,5.1l2.1,.4l2.2,.4c6.9,.8,15.7,3.1,20.4,8.6l1,.8l1.7,1.4l.4,.2l2.2,.9c6.4,2.2,12.9,2.6,19.2,4.7l2.2,.6l2.1,.5l2.1,.6l2.2,.5l2.1,.5l2.2,.5l2.1,1.1l.9,.6l1.3,1.2l.7,.9v2.1l.1,2.2v2.1l-.1,2.2l.1,2.1V193l.1,2.2l-.9,2.1l-2.2,1.7l-.8,.5l-1.3,.7c-8.7,1.6,-15.2,7.3,-21.4,13.1l-1.3,1.2l-.9,.6l-1.8,1.5c-1.7,1.4,-3.2,3,-4.6,4.6l-1.5,1.8l-.6,.9l-1.1,1.3l-1.1,1.5l-.6,.6l-1.5,1.7l-.4,.4l.2,2.2l.2,.2l2.1,1.9l1.7,2.2l.5,.5l1.3,1.6c5.8,7.1,11.8,9.2,17,17.1l.9,1.1l1,1.1c4.8,5.7,11.4,10.1,14.5,17.1l.9,2.2l.8,2.1l.7,2.1l-.7,2.2l-1.6,2.1l-.6,.8c-2.4,3,-3.8,2.4,-6.4,4.6l-1.3,1l-.9,.8c-2.4,2.4,-3.1,5.2,-5.2,7.8l-1.2,1.4l-.7,.7l-1.4,1.6l-.7,.6c-1.9,1.7,-4.4,2.4,-6.1,4.3l-1.8,1.8l-.3,.3c-1.8,2.7,-3.1,5.6,-6.1,7.3l-2,1.3l-.1,.1l-2.2,.6l-1.9,-.7l-.2,-.1l-2.2,-1c-4.3,-2,-5.4,-2.5,-8.5,-6.1l-1.8,-1.4l-.4,-.3c-3.2,-2.3,-5.9,-5.8,-9.2,-8.3L340.3,301l-1.1,-.9l-1,-.9L336.7,298c-2.4,-2.7,-4.8,-4.8,-7.1,-7.7l-.8,-.9L327.5,288c-2.7,-2.9,-6.1,-5.3,-8.6,-8.1l-1.2,-1.2l-.9,-.8l-2.2,-.2l-1.3,1l-.8,.8l-1.4,1.3c-3.2,2.7,-6.5,5.3,-9.1,8.6l-.2,.3l-1.5,1.8c-2.2,2.6,-4.7,5.7,-7.1,8.1l-.4,.5l-1.7,2.1l-1.5,2.2l-.7,1.3c-2.2,3.5,-2.6,7.7,-4.3,10.7l-.5,.8l-1.6,2.1c-3.3,1.9,-9,.3,-12.8,.6h-2.2l-2.1,-.2l-.5,-.3Zm.5,2.2l2.1,.1h6.4l2.2,.1h4.3l.8,-.3l1.3,-.5l1.4,-1.6l.7,-1l.9,-1.2l1.1,-2.1l.2,-.5l.5,-1.6c1.2,-3.4,2.2,-5.6,4.2,-8.6l1.7,-2.2l2,-2.1l.2,-.1l2.1,-1.9c1.7,-2.1,3.2,-4.5,4.9,-6.6l1.5,-1.8l.3,-.3c2.7,-2.9,5.2,-4.9,8.3,-7.4l1.7,-1.2l.4,-.3l2.2,.2l.1,.1l2,1.6l.7,.6c2.4,1.7,4.9,4.3,7.1,6.4l.8,.9l1.1,1.2c2.3,2.5,4.6,6.6,7.4,8.1l.7,.5l1.5,1.1l1.2,1c8.1,6.1,11.7,13.4,21.5,17.2l.8,.3l2.2,.9l2.1,.8l2.2,-.6l2.1,-1.2l.3,-.2c2.2,-1.6,4.9,-3.6,6.1,-6.1l.3,-.3l1.7,-2.2c1.9,-2.1,4.5,-3.3,6.6,-5.2l1.3,-1.2l.8,-.9l1.1,-1.3l1.1,-1.2c1.8,-2.1,3.2,-5.2,5.2,-7.3l1.2,-1.1l1.2,-1.1c3.6,-2.3,4.7,-2.7,7.3,-6.4l.1,-.1l1.3,-2l.7,-2.2l-.7,-2.1l-.8,-2.1c-4.7,-12.5,-6.5,-10.7,-14.6,-19.3l-.9,-1l-1,-1.2l-1.2,-1.4c-2.2,-2.5,-3.5,-5.7,-6.4,-7.5l-2.1,-1.5l-.4,-.3c-3.2,-2.4,-5.6,-4.8,-8.2,-7.9l-.5,-.6l-1.6,-2.2l-1.8,-2.1l-.1,-2.2l1.4,-2.1l.5,-.5l1.1,-1.6l1,-1.4l.7,-.8c1.7,-2.1,3.6,-4,5.7,-5.7l.8,-.7l1.4,-1l1.6,-1.1l.5,-.5l2.1,-1.5l.2,-.2l1.8,-2.1l.2,-.2l2.1,-2l2.2,-1.6l.7,-.5l1.4,-.9c2.4,-1.5,5.8,-2.7,8.6,-3.5l2.1,-1.2l1.3,-.8c4,-2.4,3.4,-4.4,3.4,-8.6v-2.1l.2,-2.2v-6.4l-.6,-.8l-1.2,-1.3l-.9,-.7l-2.2,-1.3l-.3,-.2l-1.8,-.8l-2.2,-.6l-3.2,-.7c-4,-1,-7.8,-2.3,-11.8,-3.5l-2.1,-.5l-1.6,-.3l-.5,-.1l-2.2,-.6c-3.1,-.7,-7.9,-2.1,-10.7,-3.6l-2.1,-1.8l-.4,-.3c-2.9,-2.4,-4.8,-3.1,-8.2,-4.6l-2.1,-.7L351,157l-1.5,-.4l-.6,-.1l-2.2,-.4l-2.1,-.4l-2.1,-.4c-7.6,-1.8,-16.9,-4.2,-23.9,-7.2l-1.8,-.9l-1.9,-1.3c-9.3,-5,-18.3,-5.6,-28.1,-8.6l-2.2,-.8l-2.1,-.8l-1.8,-.5l-.3,-.1l-2.2,-.4c-3.3,-.7,-7.5,-1.6,-10.7,-2.7l-2.1,-.7l-.7,-.3c-4.4,-2.3,-5.2,-2.7,-10,-4.2l-.3,-.1l-1.9,-.6l-2.1,-.5c-9.8,-2.7,-20.3,-4.1,-30,-6.9l-1.8,-.6l-.3,-.1l-2.2,-.7L214,116.2l-2.2,1c-3.9,2.5,-6.7,5.5,-9.1,9.5l-.8,2.1l.9,2.2l.5,1.4l.2,.7l.7,2.1c1.8,6.4,2.6,12.9,4.4,19.3l.4,2.1l.6,2.2c1.7,6,2.7,13.6,5.4,19.3l.8,2.1l.3,.9l.5,1.2l.8,2.2c2,6.1,2.5,11.5,5.2,17.4l.6,1.9l.6,2.1c1.8,5.9,2.7,11.6,5.2,17.4l.9,1.9l1,2.1l.2,.4l1.3,1.7l.9,1.6l.3,.6c2.9,6.1,4.2,12.8,5.8,19.3l.3,1l.2,1.1c1.6,7,1.8,12.5,4.6,19.3l.9,2.1l.7,1.7l.2,.5l1.2,2.1c3.8,4.9,5.7,9,7.5,15l.6,2.1l.6,2.2l.6,2.1l.6,2.1l.6,2.2l.5,2.1l.5,1.8v.4l.5,2.1l.5,2.2l.5,2.1l.6,1.2l.4,.9l1.4,2.2l.3,.5l2,1.6l.2,.1Z" class="ge_423"/>
<path d="M264.8,317.2l-1.6,-1.8l-.1,-.3l-.4,-2.2l-.5,-2.1c-1.1,-5.8,-2.8,-11.2,-3.8,-17.1l-.5,-2.2l-.5,-2.1c-1.7,-6,-3.3,-10.7,-8,-15l-1.2,-1l-1.8,-3.3l-.3,-.6c-2.6,-5.9,-2.2,-12.3,-3.7,-18.6l-.4,-2.2l-.2,-1.1c-1.1,-6.1,-2.3,-14.9,-5.3,-20.3l-1.1,-1.8l-.2,-.3L233.5,223l-.2,-.2l-1.9,-1.9l-.3,-.3c-3.2,-6.3,-3.2,-10.3,-5,-16.8l-.5,-2.2l-.7,-2.1c-2,-5.6,-2.2,-13.2,-4,-19.3l-.5,-1.6l-.2,-.5l-.6,-2.2l-.7,-2.1c-1.5,-5.4,-5.7,-9.4,-6.5,-15l-.6,-1.8v-.4c-2.4,-7.6,-3.1,-13.1,-4.2,-20.8l-.1,-.6l-.5,-2.1l-.5,-2.1l-.6,-2.2l1.1,-2.1c1.5,-1.9,3,-3.5,4.8,-5l2.2,-1.3l2.1,.7l2.2,.5l2.1,.5l1.6,.3c8.9,1.2,17.7,3,26.2,5.5l2.2,.7l.6,.2c7.2,6.4,15.9,7.8,25.1,9.3l2.1,.3l2.2,.3l2.1,.4l1.4,.4l.7,.2c2.8,.7,5.8,1.5,8.6,2l2.2,.4l2.1,.4c3.5,.6,6.8,2,10,3.4l.7,.8l1.3,1.4l.8,.6c8,6.2,18.5,6.2,27.9,8.6l2.1,.3l2.2,.4l2.1,.3l2.1,.3l1.6,.2l.6,.1l2.1,.5c2.8,1,4.6,2,7.1,3.7l1.5,1.9l.2,.2c1.7,2,3.8,3.6,6.2,4.7l2.2,.9l2.1,.4l1.6,.4c9.9,1.4,16.8,3.6,26.2,5.7l2.2,.4l.6,.4l1.5,1.2l.9,.9l.1,2.1c.2,3.6,.1,7.2,.3,10.7l.1,2.2l-1.1,2.1c-2.4,2.6,-7.4,2.3,-11,4.3l-2.1,1l-2.2,1.2l-2.1,1.5l-.8,.6c-2.8,2.3,-5.1,3.2,-7.8,6.4l-2.1,2.2l-2.2,1.8c-2.4,2.1,-4.3,4.7,-6.4,7.1l-1.9,1.8l-.2,.2l-1.8,1.9l-.4,.5l-1,1.6l.1,2.2l.9,1.2l.9,.9c2.8,2.4,5.3,4.8,7.7,7.7l.8,.9l1.3,1.3c3.3,2.6,4.8,4,7.5,7.3l1.1,1l1.3,1.1l.8,.6l1.3,1.5c2.5,2.8,4.3,5.5,7.3,8l.6,.6l1.5,2.1l1.6,2.2l.6,.8l1.2,1.3l.9,.9l1.6,1.3l.6,.3l1,1.8l1.1,2.2l.8,2.1l.9,2.1l-.9,2.2l-.8,1.1l-.9,1l-1.2,1.2l-2.2,.8l-.2,.2l-1.9,1l-1.6,1.1l-.6,.5l-1.8,1.6c-1.5,1.8,-2.8,4.3,-3.6,6.5l-1,1.3l-.5,.8l-1.6,1.8l-.4,.3c-2.3,2.5,-3.7,1.7,-6.9,4.3l-1.3,1.1l-1,1.1l-1.1,1.5l-.5,.6l-1.2,2.1l-.5,1.1l-.4,1.1l-1.7,1.5l-.8,.6l-1.3,.9l-2.2,.7l-2.1,-.8l-1.6,-.8l-.6,-.3c-5,-2.4,-2.9,-2.8,-6.6,-6.1l-1.9,-1.5l-.8,-.6c-4.7,-2.3,-6.3,-5.6,-10.6,-8.6l-1.5,-1.4l-.9,-.7l-1.2,-1.7l-.4,-.5c-2.4,-3,-5.6,-4.6,-8.2,-7.9l-.6,-.6l-1.5,-1.7c-2.3,-2.3,-4.9,-4.2,-6.7,-6.9l-1.9,-2l-.2,-.1l-1.9,-1.5h-2.2l-2.1,1.3l-.3,.2l-1.9,1.7c-2.6,3.4,-3.9,4,-6.7,6.8l-1.8,1.8l-.3,.4c-2.2,3.4,-5.7,5.4,-7.9,8.5l-.4,.6l-1,1.6l-1.1,1.3l-.6,.8c-3,3.7,-4.6,8.3,-5.9,12.8l-.4,2.2l-1.4,2.1l-.3,.4l-2.1,1l-2.2,-.1l-2.1,-.1l-2.2,-.2l-2.1,-.1l-2.1,-.1l-2.2,-.1l-2.1,-.2l-.6,-.5Zm.6,2.5l2.1,.2h4.3l2.1,.1l2.2,.1h2.1l2.2,.1l1.9,-.8l.2,-.1l1.6,-2.1l.5,-.8c1.7,-3,2.1,-7.2,4.3,-10.7l.7,-1.3l1.5,-2.2l1.7,-2.1l.4,-.5c2.3,-2.1,4.2,-4.9,6.4,-7.2l.7,-.9l1.5,-1.8c2.7,-3.4,6,-6.1,9.3,-8.9l1.4,-1.3l.8,-.8l1.3,-1l2.2,.2l.9,.8l1.2,1.2c2.2,2.5,5.6,4.8,7.9,7.4l.7,.7l1.3,1.4c2.6,3.2,5.1,5.6,7.9,8.6l1.5,1.2l1,.9l1.1,.9l1.5,1.2c2.5,2.1,4.9,4.3,7.1,6.6l2.1,1.7l.4,.3l1.8,1.4l.7,.7l1.4,1.5l.5,.7l1.6,1l2,1.1l.2,.1l2.1,1l2.2,1l.2,.1l1.9,.7l2.2,-.6l.1,-.1l2,-1.3c2.6,-2,3.2,-2.2,4.7,-5.2l1.4,-2.1l.3,-.3c2.5,-3,5.2,-4,7.9,-6.1l.7,-.6l1.4,-1.6l.7,-.7l1.2,-1.4c1.7,-2.1,2.4,-4.3,4,-6.4l1.2,-1.4l.9,-.8c3.1,-3,5.1,-2.4,7.7,-5.6l.6,-.8l1.6,-2.1l.7,-2.2l-.7,-2.1l-.8,-2.1l-.9,-2.2c-3.1,-7,-9.7,-11.4,-14.5,-17.1l-1,-1.1l-.9,-1.1c-5.2,-7.9,-11.2,-10,-17,-17.1l-1.3,-1.6l-.5,-.5L366,233.7l-2.1,-1.9l-.2,-.2l-.2,-2.2l.4,-.4l1.5,-1.7l.6,-.6l1.1,-1.5l1.1,-1.3l.6,-.9c1.8,-2.3,3.9,-4.5,6.1,-6.4l1.8,-1.5l.9,-.6l1.3,-1.2c6.2,-5.8,12.7,-11.5,21.4,-13.1l1.3,-.7l.8,-.5l2.2,-1.7l.9,-2.1l-.1,-2.2v-2.1l-.1,-2.1l.1,-2.2v-2.1l-.1,-2.2v-2.1l-.7,-.9l-1.3,-1.2l-.9,-.6l-2.1,-1.1l-2.2,-.5l-2.1,-.5l-2.2,-.5l-2.1,-.6l-2.1,-.5c-6.6,-2.3,-12.8,-2.7,-19.3,-4.7l-2.1,-.6l-2.2,-.9l-.4,-.3L363.9,166c-4.6,-4.9,-10.6,-7.6,-17.2,-8.7l-2.1,-.3l-2.1,-.4c-6.7,-1.5,-15.1,-3.1,-21.5,-5.2l-2.1,-.7l-1.1,-.5l-1,-.5l-2.2,-1.1l-.8,-.5l-1.3,-1c-3.3,-3,-12.6,-5.5,-17.1,-6.2l-2.2,-.5l-2.1,-.5c-7.1,-2.2,-14.2,-3.6,-21.4,-5.1l-2.2,-.6l-2.1,-.5l-1.7,-.6l-.5,-.2l-2.1,-1l-1.8,-.9l-.4,-.2l-2.1,-1.2l-1.1,-.8l-1,-.4l-2.2,-.7l-2.1,-.6l-1.2,-.4l-1,-.3l-2.1,-.5l-2.1,-.5l-2.2,-.5c-7.2,-2,-14.3,-2.8,-21.4,-4.5l-.4,-.2l-1.7,-.4l-2.2,-.6l-2.1,-.8l-2.2,1c-2.7,2,-5,4.5,-6.9,7.3l-1,2.1l.7,2.2l.6,2.1l.2,.7l.4,1.4c1.5,6.2,2.1,12.6,3.9,18.7l.2,.6l.5,2.1c1.9,6.1,2.4,12.3,5.7,17.6l.7,1.7l.8,2.2l.7,2.1l.7,2.1c2.2,6.7,2.3,13,5,19.3l.7,2.2l.5,2.1c1.7,6.7,2.5,11.9,5.9,18.2l1,1.1l1.2,1.6l.3,.5l1.3,2.1l.5,1l.6,1.2c2.1,5.7,3.3,11.2,4.5,17.1l.4,2.2l.5,2.1c1.4,7.1,1.3,12.6,4.5,19.3l.2,.4l.9,1.7l1.1,2.2l.1,.1c4.7,4.4,7,10.9,8.5,17l.1,.4l.4,1.7c1.6,6.5,3.2,12.7,4.6,19.3l1.1,2.1l.3,.6l1.7,1.6l.5,.3Z" class="gf_423"/>
<path d="M365.1,317.2l-1.2,-.6l-2.2,-1.2l-.5,-.3c-1.5,-3.6,-4.3,-6.7,-7.7,-8.6l-.3,-.2l-2.2,-.9c-2.6,-1.3,-6.5,-5.4,-8.9,-7.4l-1,-2.2l-.8,-1.1l-.8,-1l-1.3,-1.4c-2.9,-2.6,-6,-3.5,-8.6,-7l-.1,-.2l-2,-1.8c-3.4,-2.8,-3.6,-6.3,-7.5,-8.9l-1.1,-.8l-2.1,-1.2l-2.2,-.1l-2.1,1.1l-1.8,1l-.4,.2c-3.5,2.4,-4,5.4,-6.4,7.5l-.8,.9l-1.3,1.3c-1.7,1.9,-3.4,3.9,-5.7,5.1l-.7,.5l-1.9,1.6l-.3,.3l-1.4,1.9c-1.5,2.1,-2.1,4.2,-3.7,6.4l-1.3,2.1l-1,2.2c-1.1,3,-1.9,5.4,-2.5,8.5l-.4,2.2l-.4,.6l-2.1,1.2l-2.2,-.1l-2.1,-.2l-2.2,-.2l-2.1,-.2l-2.1,-.2l-2.2,-.2l-2.1,-.2l-.5,-.5l-.6,-2.2l-.6,-2.1l-.5,-1.7l-.1,-.4l-.4,-2.2l-.4,-2.1l-.6,-2.2l-.5,-2.1l-.1,-.4c-1.3,-7.1,-1.9,-14.4,-5.1,-21l-1.1,-2.1l-.2,-.4l-1.5,-1.8l-.7,-.8l-1.3,-1.3l-.8,-.7l-2.2,-1.3l-.1,-.2l-1,-2.1l-1,-1.9l-.1,-.3l-.5,-2.1l-.2,-2.1l-.3,-2.2l-.2,-2.1l-.2,-2.2l-.4,-2.1c-1.2,-7.1,-1.7,-14.4,-3.4,-21.4l-.6,-2.2l-.5,-1.2l-.4,-.9l-.9,-2.1l-.9,-1.5l-.4,-.7l-1.5,-2.1l-.2,-.3l-1.8,-1.9l-.3,-.2L231.1,217l-.2,-.4l-.9,-2.1l-.6,-2.2l-.4,-1.7l-.1,-.4l-.4,-2.2l-.4,-2.1l-.5,-2.1c-2.4,-8.2,-2.5,-13.2,-3.8,-21.5l-.5,-2.1l-.4,-2.1l-.4,-1.5l-.1,-.7C221,169.8,219,163.2,214,159.1l-.1,-.3l-.7,-2.2c-2.4,-7.4,-3.1,-11.5,-3.9,-19.2l-.3,-2.2l-.3,-2.1l-.3,-2.1l-.6,-2.2l1.5,-2.1l.4,-.5l1.5,-1.7l.6,-.5l2.2,-1.5l2.1,.5l2.2,.3c3.5,.7,7.1,1,10.7,1.5l2.1,.2l2.2,.5c2.8,.6,5.7,1.4,8.5,2.1l2.2,.6l2.1,.6l2.1,2.2l2.9,2.1c6.3,4.3,14,5.5,21.4,6.4l1.4,.3l2.2,.2c7.4,.4,14.4,3,21.7,3.8l1.8,.5l2.2,.8l1.9,.8l.2,.4c3.8,5.5,10.7,8.7,17.1,9.6l2.2,.5l1.4,.2l.7,.2l2.2,.3l2.1,.3l2.1,.3l2.2,.3l2.1,.4l2.2,.4c3.5,.4,7.1,.9,10.7,1.2l2.1,.6l.7,.3l1.5,.9l2.1,1.3l1.2,2.1l.9,1.3c6,7.3,15,7.1,23.6,8.5l2.1,.2l2.2,.5l.7,.2c3,.7,6.1,1.5,9.1,2.2l.9,.2l2.1,.6l2.2,.6l.8,.7l.2,2.1l.1,2.2l.2,2.1l.1,2.2l.1,2.1l.1,2.1l.2,2.2l-1.2,2.1l-.6,.4l-2.2,.4c-3.1,.7,-5.6,1.4,-8.5,2.6l-2.2,.9l-2.1,1.3c-2.3,1.6,-4.2,2.2,-6.4,3.6L377,208l-.3,.3l-1.7,1.9l-.4,.6c-1.1,2.1,-3.5,4.1,-5.1,5.8l-1.3,1.4l-.8,.7c-2,2.5,-4.6,3,-7.1,6.5l-.7,1l-.7,1.1l-1.1,2.1l.2,2.2l1.2,2.1l.4,.6l1.4,1.6c2.8,3,4.4,2.4,7.2,5.7l.6,.7l1.5,1.5c2.9,2.7,4,3.5,6,7.1l.4,.5l1.4,1.6l.8,.7l1.8,1.4c3.4,1.5,4.2,3.7,6.7,6.2l.3,.3l1.9,1.9c1.8,2.1,2.5,4.8,4.2,6.9l1.7,1.9l.5,.4l2.1,1.7l2.2,1.2l.5,1l1,2.1l.6,1.2l.4,.9l-.4,1l-.6,1.2l-1.5,1.7l-1.5,.4l-.7,.2l-2.1,.9c-3.5,1.4,-6.3,4,-7.7,7.5l-.9,2.1l-.7,2.2l-1.4,2l-.2,.1l-2,1.8l-1,.3l-1.1,.4l-2.1,.9l-1.5,.9l-.7,.5l-1.9,1.6l-.2,.2c-2.2,2,-3.5,5.7,-4.4,8.4l-2,1.7l-1.1,.4l-1.1,.4l-.9,-.4Zm-99.7,.5l2.1,.2l2.2,.1l2.1,.1l2.1,.1l2.2,.2l2.1,.1l2.2,.1l2.1,-1l.3,-.4l1.4,-2.1l.4,-2.2c1.3,-4.5,2.9,-9.1,5.9,-12.8l.6,-.8l1.1,-1.3l1,-1.6l.4,-.6c2.2,-3.1,5.7,-5.1,7.9,-8.5l.3,-.4l1.8,-1.8c2.8,-2.8,4.1,-3.4,6.7,-6.8l1.9,-1.7l.3,-.2l2.1,-1.3h2.2l1.9,1.5l.2,.1l2,2c1.6,2.5,4,4.4,6.1,6.4l.5,.5l1.5,1.7c2.4,2.6,4.3,4.4,7,6.6l1.8,1.9l.4,.5l1.2,1.7l.9,.7c3.7,2.9,6.8,6.6,10.7,9.2l1.4,.8l.8,.6l1.9,1.5l.2,.2l1.8,1.9l.3,.5l1.2,1.7l1,.6l2.1,1.2l.6,.3l1.6,.8l2.1,.8l2.2,-.7l1.3,-.9l.8,-.6l1.7,-1.5l.4,-1.1l.5,-1.1l1.2,-2.1l.5,-.6l1.1,-1.5l1,-1.1c1.9,-1.7,4.1,-3,6.4,-3.9l1.8,-1.5l.4,-.3l1.6,-1.8l.5,-.8c1.8,-2.1,2.1,-4.9,4.3,-7.4l.3,-.4l1.8,-1.6l.6,-.5l1.6,-1.1l1.9,-1l.2,-.2l2.2,-.8l1.2,-1.2l.9,-1l.8,-1.1l.9,-2.2l-.9,-2.1l-.8,-2.1l-1.1,-2.2l-1,-1.8l-.6,-.3L398.1,271l-.9,-.9L396,268.8l-.6,-.8l-1.6,-2.2l-1.5,-2.1l-.6,-.6c-3,-2.5,-4.8,-5.2,-7.3,-8l-1.3,-1.5l-.8,-.6L381,251.9l-1.1,-1c-2.7,-3.3,-4.2,-4.7,-7.5,-7.3l-1.3,-1.3l-.8,-.9c-2.4,-2.9,-4.9,-5.3,-7.7,-7.7l-.9,-.9l-.9,-1.2l-.1,-2.2l1,-1.6l.4,-.5l1.8,-1.9l.2,-.2l1.9,-1.8c2,-2.3,3.8,-4.7,6.1,-6.8l.3,-.3l2.2,-1.8c2.9,-2.8,5,-5.5,8.5,-7.5l1.4,-1.1l.8,-.6l2.1,-1.5l2.2,-1.2c3.4,-1.7,6.9,-2.8,10.7,-3.6l2.1,-1.4l.3,-.3l1.1,-2.1l-.1,-2.2l-.1,-2.1l-.1,-2.1v-4.3l-.1,-2.2l-.1,-2.1l-.9,-.9l-1.5,-1.2l-.6,-.4c-10,-1.9,-17.5,-4.7,-27.9,-5.9l-.5,-.2l-1.6,-.4l-2.1,-.4c-2.5,-.8,-4.5,-1.9,-6.5,-3.6l-1.9,-2l-.2,-.2l-1.5,-1.9l-.7,-.5l-2.8,-1.7l-1.4,-.6l-2.2,-.9l-2.1,-.5l-.6,-.1l-1.6,-.2l-2.1,-.3l-2.1,-.3l-2.2,-.4l-2.1,-.3c-8.6,-2.2,-18,-2.4,-25.7,-7.1l-2.2,-1.5l-.8,-.6l-1.3,-1.4l-.7,-.8l-1.4,-.6l-2.2,-.9l-1.6,-.6l-.5,-.2l-2.2,-.6l-2.1,-.5c-3.7,-.6,-7.1,-1.3,-10.7,-2.2l-2.2,-.6l-.7,-.2l-1.4,-.4l-2.1,-.4l-2.2,-.3C269.4,137,259.7,135.8,252.5,130L251,128.8l-.6,-.2c-9.2,-3,-18.8,-4.9,-28.4,-6.2l-1.6,-.3l-2.1,-.5l-2.2,-.5l-2.1,-.7l-2.2,1.3c-1.8,1.5,-3.3,3.1,-4.8,5l-1.1,2.1l.6,2.2l.5,2.1l.5,2.1l.1,.6c1.1,6.8,1.5,12,3.6,18.7l.6,2.1v.4l.6,1.8l.6,2.1l.7,2.2l.3,1l.7,1.1l1.2,2.1l.2,.4l1.1,1.8l.9,2.1l.2,.6l.6,1.6l.7,2.1l.6,2.2l.2,.5l.5,1.6c1.8,5.9,2,13.2,3.8,18.7l.2,.6l.7,2.1c2.1,7,2,12.4,5.5,19l.3,.3l1.9,1.9l.2,.2l1.7,2.2l.2,.3l1.1,1.8c2.8,5,4.2,13.6,5.1,19.3l.2,1l.2,1.1c1.7,6.9,1.4,14.6,4.1,20.8l.3,.6l1.8,3.3l1.2,1c4.7,4.3,6.3,9,8,15l.5,2.1l.5,2.2c1.2,6.5,3.1,12.7,4.3,19.2l.4,2.2l.1,.3l1.6,1.8l.6,.5Z" class="gg_423"/>
<path d="M364,315.1l-.1,-.5l-.6,-1.7l-1.1,-2.1l-.5,-.8c-1.6,-3,-3.5,-4.1,-6.4,-5.6l-2.1,-.9l-2.2,-.6l-1.2,-.7l-.9,-.4L347,300.1l-.3,-.3L344.9,298l-.3,-1.1l-.4,-1.1l-1,-2.1l-.7,-1.1l-.8,-1.1c-2.7,-3.7,-6.6,-4.2,-10,-6.4L329.8,283l-.2,-.2c-2.5,-2.1,-2.3,-5.3,-5.1,-8.4l-1.3,-1.3l-1.1,-.8l-1.1,-.7l-2.1,-1.1l-.9,-.4l-1.2,-.5h-2.2l-1.6,.5l-.5,.2l-2.2,.9l-1.7,1.1l-.4,.2l-2.1,1.6l-.3,.3c-2.8,2.7,-2.7,6.2,-5.5,8.6l-.7,.8l-1.8,1.3l-.3,.2l-2.1,1c-3.4,1.6,-5.5,4,-7.1,7.4l-.8,2.1l-.7,2.2c-2,3.7,-3.1,6.5,-4,10.7l-.3,1.3l-.5,.8l-.9,2.1l-.7,1.7l-2.2,-.6l-2.1,-1.1l-2.2,-.5l-2.1,-1.1l-4.3,-1l-2.1,-.8l-.3,-.8l-1.2,-4.3C260,293.5,263.2,274.1,250.4,268l-2.2,-1l-.6,-1.2l-.7,-2.1c-.7,-6.4,-1.6,-12.8,-2.2,-19.3l-.2,-2.1l-.2,-2.1c-.5,-5.4,-1.4,-12.3,-3.5,-17.2l-1.1,-2.1l-1.2,-2.2l-1,-1l-1.2,-1.1l-.9,-.6l-2.1,-1.5L231.1,213l-.2,-.7l-.4,-2.1L230,208l-.4,-2.1l-.5,-2.1l-.1,-.5l-.4,-1.7l-.4,-2.1l-.6,-2.2l-.3,-2.1c-.5,-6.7,-1,-12.7,-2.1,-19.3l-.3,-2.1l-.2,-1.1l-.2,-1.1l-.5,-2.1c-1.4,-5.2,-2.3,-9.3,-6.6,-12.9l-1.3,-1l-1.6,-1.1l-.5,-.3l-.6,-1.8l-.6,-2.2l-.7,-2.1l-.3,-.9l-.3,-1.3l-.2,-2.1l-.1,-2.1l-.2,-2.2l-.1,-2.1l-.3,-2.2l-.1,-2.1l-.3,-2.1l-.4,-2.2l1.6,-2.1l.4,-.5l2.2,-1.7l2.1,.4l2.2,.2l2.1,.2l2.1,.3c7.6,.3,10,.8,17.2,2.9l1.1,.3l1,1.6c3.3,4,7.9,6.8,12.9,8.3l2.1,.6l1.1,.2l1.1,.2l2.1,.5c7.1,1.3,14.3,1.4,21.4,2.2l2.1,.5l2.2,.4l2.1,.4l.6,.1l1.6,.3l2.1,.4l2.2,.4l2.1,.3l2.1,.6l.5,.1l1,2.2l.7,1.3l.6,.8l1.5,1.6l.7,.6l1.5,1.2l1.6,.9l.5,.3c5.3,2.7,11.3,3.2,17.1,4l2.2,.2l2.1,.2c6.5,.8,12.8,1.5,19.3,2.1l2.1,.9l1.5,.9l.7,1.7c5,14.2,24.8,9.5,36.4,13.5l2.1,.8l2.1,.6l1.8,.5l.4,2.1c.8,4.5,2.1,6.9,3.2,10.7l.5,2.2l-1.6,.7l-2.1,1l-.9,.4l-1.3,.3c-3.3,.8,-5.5,1.5,-8.5,2.9l-2.2,1.1l-2.1,.6c-3.5,1.3,-6.4,3,-8.6,6.2l-1.2,1.8l-.9,2.1l-1.4,2.2l-.7,.7c-2.3,2.4,-3.9,2.3,-6.5,4.1l-2.1,1.6L358,223l-.6,.9l-.7,1.3l-1,2.1l-.4,1.1l-.3,1l.1,2.2l.2,.5l.6,1.6l1.3,2.2l.2,.4l1.3,1.7l.9,.9l1.7,1.3l.4,.2l2.2,1.1l2.1,.8l2.2,2l.1,.1l2,1.9c2.3,1.9,2.2,5.3,4.3,7.4l1.2,1.4l.9,1l1.7,1.2l.5,.2l2.1,1.1l2.1,.8l2.2,2.2l2,2.1l.1,.3l1,1.8l.8,2.2l.4,1.1c1.6,4,2.9,5,6.4,7.5l2.1,1.1l2.2,.8l.1,.2l1,2.1l-1,2.2l-.1,.1c-9.1,1.5,-13.2,4.5,-15,13.8L385,298l-1.9,2c-9.5,2.2,-12.7,5.3,-14.7,15.1l-.2,.2l-2.2,.9l-2,-1.1Zm2,2.5l1.1,-.4l1.1,-.4l2,-1.7l.1,-.4c.9,-2.6,2.1,-6,4.3,-8l.2,-.2l1.9,-1.6l.7,-.5l1.5,-.9l2.1,-.9l1.1,-.4l1,-.3l2,-1.8l.2,-.1l1.4,-2l.7,-2.2l.9,-2.1c1.4,-3.5,4.2,-6.1,7.7,-7.5l2.1,-.9l.7,-.2l1.5,-.4l1.5,-1.7l.6,-1.2l.4,-1l-.4,-.9l-.6,-1.2l-1,-2.1l-.5,-1l-2.2,-1.2L396,272.7l-.5,-.4l-1.7,-1.9c-1.7,-2.1,-2.4,-4.8,-4.2,-6.8l-1.9,-2l-.3,-.3c-2.5,-2.5,-3.3,-4.7,-6.7,-6.2l-1.8,-1.4l-.8,-.7l-1.4,-1.6l-.4,-.5c-2,-3.6,-3.1,-4.4,-6,-7.1l-1.5,-1.5l-.6,-.7c-2.8,-3.3,-4.4,-2.7,-7.2,-5.7l-1.4,-1.6l-.4,-.6L358,231.6l-.2,-2.2l1.1,-2.1l.7,-1.1l.7,-1c1.7,-2,3.3,-3.8,5.7,-4.9l1.4,-1.6l.8,-.7c1.8,-2.1,3.6,-3.5,5.4,-5.7l1,-1.5l.4,-.6l1.7,-1.9l.3,-.3l1.9,-1.5l1,-.6l1.1,-.6l2.1,-1l.8,-.5l1.4,-.9l2.1,-1.3c3.4,-1.6,7,-2.7,10.7,-3.5l2.2,-.4l.6,-.4l1.2,-2.1l-.2,-2.2l-.1,-2.1l-.1,-2.1l-.1,-2.2l-.2,-2.1l-.1,-2.2l-.2,-2.1l-.8,-.7l-2.2,-.6l-2.1,-.6c-2.8,-.7,-5.8,-1.4,-8.6,-2l-1.4,-.4l-.7,-.2l-2.2,-.5c-9,-1.4,-19.5,-1,-25.7,-8.7l-.9,-1.3l-1.2,-2.1l-2.1,-1.3l-1.5,-.9l-.7,-.3l-2.1,-.6l-2.2,-.2l-2.1,-.2l-2.1,-.3l-2.2,-.2l-2.1,-.3l-2.2,-.4l-2.1,-.4l-2.2,-.3l-2.1,-.3l-2.1,-.3l-2.2,-.3l-.7,-.2l-1.4,-.2c-7.5,-1.3,-12.5,-2.8,-17.9,-8.3l-1.4,-1.8l-.2,-.4l-1.9,-.8l-2.2,-.8c-7.1,-1.3,-14.2,-3.1,-21.4,-4.1l-2.1,-.2l-2.2,-.2c-7.8,-1.2,-16.1,-2,-22.8,-6.7L248.2,131l-2.1,-2.2l-2.1,-.6l-2.2,-.6c-2.8,-.7,-5.7,-1.5,-8.5,-2.1l-2.2,-.5l-2.1,-.2c-3.6,-.5,-7.2,-.8,-10.7,-1.5l-2.2,-.3l-2.1,-.5l-2.2,1.5l-.6,.5l-1.5,1.7l-.4,.5l-1.5,2.1l.6,2.2l.3,2.1l.3,2.1l.3,2.2c.8,7.7,1.5,11.8,3.9,19.2l.7,2.2l.1,.3c5,4.1,7,10.7,8.4,16.8l.1,.7l.4,1.5l.4,2.1l.5,2.1c1.3,8.3,1.4,13.3,3.8,21.5l.5,2.1l.4,2.1l.4,2.2l.1,.4l.4,1.7l.6,2.2l.9,2.1l.2,.4l2.2,1.5l.3,.2l1.8,1.9l.2,.3l1.5,2.1l.4,.7l.9,1.5l.9,2.1l.4,.9l.5,1.2l.6,2.2c1.7,7,2.2,14.3,3.4,21.4l.4,2.1l.2,2.2l.2,2.1l.3,2.2l.2,2.1l.5,2.1l.1,.3l1,1.9l1,2.1l.1,.2l2.2,1.3l.8,.7l1.3,1.3l.7,.8l1.5,1.8l.2,.4l1.1,2.1c3.2,6.6,3.8,13.9,5.1,21l.1,.4l.5,2.1l.6,2.2l.4,2.1l.4,2.2l.1,.4l.5,1.7l.6,2.1l.6,2.2l.5,.5l2.1,.2l2.2,.2l2.1,.2l2.1,.2l2.2,.2l2.1,.2l2.2,.1l2.1,-1.2l.4,-.6l.4,-2.2c.6,-3.1,1.4,-5.5,2.5,-8.5l1,-2.2l1.3,-2.1c1.6,-2.2,2.2,-4.3,3.7,-6.4l1.4,-1.9l.3,-.3l1.9,-1.6l.7,-.5c2.3,-1.2,4,-3.2,5.7,-5.1l1.3,-1.3l.8,-.9c2.4,-2.1,2.9,-5.1,6.4,-7.5l.4,-.2l1.8,-1l2.1,-1.1l2.2,.1l2.1,1.2l1.1,.8c4.3,3,3.8,5.8,7.2,8.6l.3,.3l2,1.8c2.2,3.2,5.9,4.7,8.7,7.2l1.3,1.4l.8,1l.8,1.1l1,2.2c2.4,2,6.3,6.1,8.9,7.4l2.2,.9l.3,.2l1.8,1.2l1.3,1l.8,.8l1.2,1.3l1,1.2l.6,.9l1,2.2l.5,.3l2.2,1.2l1.2,.6l.9,.4Z" class="gh_423"/>
<path d="M365.8,310.8l-.6,-2.1l-1,-2.2l-.3,-.5l-1.3,-1.6l-.9,-.7l-2.1,-1.1l-.5,-.4l-1.7,-.7l-2.1,-.5l-2.1,-.4l-2.2,-.3l-.4,-.2l-1.7,-.8L347.6,298l-.3,-2.2l-.6,-2.1l-.5,-2.2L345,289.4l-.4,-.5l-1.3,-1.6l-.8,-.8l-2.2,-1.4l-2.1,-.7l-2.2,-.5l-2.1,-.4l-1.1,-.5l-1.1,-.7l-1.1,-1.5c-.9,-4.2,-.5,-5.4,-3.1,-9.1l-1.6,-1.6l-.6,-.3l-2.1,-1.3l-1.4,-.5l-.8,-.3c-8.4,-2.3,-20.3,.5,-21.4,11l-.7,2.1l-1.4,1.1c-14.3,3.3,-10.8,9.2,-14.9,20.3l-.1,.5l-1.2,1.7l-.9,1.6l-2.2,-.5c-3.5,-.9,-7.1,-1.8,-10.7,-2.7l-2.1,-.6l-.7,-2.1l-.6,-2.1c-.4,-4.9,-1.1,-10.1,-1.6,-15l-.3,-2.2l-.2,-2.1c-.9,-5,-2.1,-10.6,-7.3,-12.9l-2.2,-1.4l-2.1,-.7l-1.1,-2.1l-1.1,-1.1c-1,-9.1,-1.8,-17.7,-2.5,-26.8l-.2,-2.1l-.2,-2.2c-1,-11.9,-3.2,-13.1,-9.9,-22.1l-2.1,-1.4l-2.2,-1.1l-.2,-1l-.4,-2.2c-2.5,-8.1,-1.4,-19,-2.6,-27.8l-.2,-2.2l-.2,-2.1c-.8,-7.5,-2.2,-16.3,-10.3,-19.3l-1.1,-.3l-2.1,-.6l-.4,-1.2c-1.5,-4.3,-.7,-12.2,-1.6,-17.1l-.2,-2.2l2.2,-2.1l2.1,.1c5.1,.6,12.7,.1,17.2,1.5l2.1,.5l.4,2.2l1.2,2.1l.5,1.1c4.7,8.5,23.6,8.7,32.2,9.3h2.1l2.1,.2l2.2,.1c5.5,-.3,9.6,1.4,15,2l.7,.1l1.4,2.2l2.2,2.1l2.1,1.4l.5,.8l1.6,1.6l.5,.5l1.7,1.7l.7,.4l1.4,.8l2.2,.8l2.1,.6l2.1,.5l2.2,.3l2.1,.3l2.2,.2c4.9,.5,10,.8,14.9,1.1l2.2,.3l2.1,.3l2.2,.3l2.1,.1l2.2,.3l2.1,.1l2.1,.2l2.2,.2l.2,.1l.7,2.1l.9,2.1l.3,1.1l.3,1.1l1.1,2.1c2.6,3.6,5.3,4,9.3,5.1l2.2,.3l2.1,.3c5,.4,10,.8,15,1.3l2.1,.1l2.2,.6l2.1,.7l.6,.2l.5,2.1c1.6,5.1,.5,5.7,2.1,10.7l.6,2.2l-1.6,.9l-1.8,1.2l-.4,.2c-5.7,2.7,-13.1,1.3,-17.1,6.7l-1.2,1.7l-.9,2.1l-1,2.2l-.4,2.1l-.8,1.1l-2.1,.6l-.7,.5l-1.5,.5l-2.1,.7l-1.6,.9l-.6,.4l-1.7,1.7l-.4,.6l-.9,1.6l-.9,2.1l-.3,1.1l-.3,1.1c-2,7.7,.5,17.5,9.5,19.2l1.5,.4l2.1,.3l1.7,1.5l.5,.6l.8,1.5l.4,2.2l.6,2.1l.3,.7l.6,1.4l1.1,2.2l.4,.5l2.2,1.6l2.1,1.2l2.2,.7l.7,.3l1.4,.4l2.1,.3l1.6,1.4c3.2,7.8,.9,13.9,11.3,16.9l1.1,.2l-1.1,.3l-2.2,.6c-8.1,3.2,-9,5.6,-10.5,14.1l-.2,.7l-1.4,1.5l-.7,.1l-2.1,.4l-2.2,.5l-2.1,.8l-.6,.3l-1.6,.8l-1.8,1.3l-.3,.4l-1.3,1.8l-.8,2.1l-1.3,2.2l-.6,2.1l-.3,1.1l-.2,-1.1Zm.2,5.4l2.2,-.9l.2,-.2c2,-9.8,5.2,-12.9,14.7,-15.1l1.9,-2l.3,-1.1c1.8,-9.3,5.9,-12.3,15,-13.8l.1,-.1l1,-2.2l-1,-2.1l-.1,-.2l-2.2,-.8L396,276.6c-2.5,-1.7,-4.9,-3.6,-6,-6.5l-.4,-1l-.4,-1.1l-.8,-2.2l-1,-1.8l-.1,-.3l-2,-2.1l-2.2,-2.2l-2.1,-.8l-2.1,-1.1l-.5,-.2l-1.7,-1.2l-.9,-1c-1.9,-1.8,-2.9,-3.9,-3.8,-6.4l-1.4,-2.1l-.3,-.3l-2,-1.9l-.1,-.1l-2.2,-2l-2.1,-.8l-2.2,-1.1l-.4,-.2l-1.7,-1.3l-.9,-.9l-1.3,-1.7l-.2,-.4l-1.3,-2.2l-.6,-1.6c-1.1,-2.4,.4,-4.8,1.4,-6.9l.7,-1.3l.6,-.9l1.6,-2.1l2.1,-1.6l.9,-.6l1.3,-.7l2.1,-1l.4,-.4l1.8,-1.4l.7,-.7l1.4,-2.2l.9,-2.1c2.2,-3.4,3.9,-5.3,7.7,-7.1l2.1,-.9l2.1,-.6c3.8,-2,6.6,-3,10.7,-4l1.3,-.3l.9,-.4l2.1,-1l1.6,-.7l-.5,-2.2c-1.1,-3.8,-2.4,-6.2,-3.2,-10.7l-.4,-2.1l-1.8,-.5l-2.1,-.6l-2.1,-.8c-11.3,-4,-31.2,.6,-36.2,-13.1l-.2,-.4l-.7,-1.7l-1.5,-.9l-2.1,-.9l-2.2,-.2l-1.4,-.2l-.7,-.1l-2.1,-.1l-2.2,-.2l-2.1,-.2L336,160l-2.1,-.3l-2.2,-.3l-2.1,-.2l-2.1,-.2c-6.4,-.8,-13.5,-1.2,-19.3,-4.2l-.5,-.3l-1.6,-.9l-1.5,-1.2l-.7,-.6l-1.5,-1.6l-.6,-.8l-.7,-1.3l-1,-2.2l-.5,-.1l-2.1,-.6l-2.1,-.3l-2.2,-.4l-2.1,-.4l-1.6,-.3l-.6,-.1l-2.1,-.4l-2.2,-.4c-6.5,-1.4,-14.5,-1.1,-21.4,-2.3l-2.1,-.4l-2.2,-.5l-1,-.2l-1.1,-.2c-6,-1.6,-10.3,-3.7,-14.6,-8.3l-.4,-.6l-1,-1.6c-7.8,-2.2,-10,-2.9,-18.3,-3.2l-2.1,-.3l-2.1,-.2l-2.2,-.2l-2.1,-.4l-2.2,1.7l-.4,.5l-1.6,2.1l.4,2.2l.3,2.1l.1,2.1l.3,2.2c.4,8.1,.5,9.1,3.1,16.8l.5,.3l1.6,1.1c4.9,4,5.5,5.9,7.4,11.7l.5,2.2l.5,2.1l.2,1.1l.2,1.1c1,6.4,1.9,12.8,2.2,19.2l.2,2.2l.3,2.1l.6,2.2l.4,2.1l.4,1.7l.1,.5l.5,2.1l.4,2.1l.5,2.2l.4,2.1l.2,.7l2.2,1.5l2.1,1.5l.9,.6l1.2,1.1l1,1l1.2,2.2l1.1,2.1c1.8,4.2,2.7,10.4,3.3,15l.2,2.2l.2,2.1c.5,6.4,1.5,12.9,2.1,19.3l.3,2.1l.7,2.1l.6,1.2c15.5,5.6,11.4,25,15.7,37.4l1.2,4.3l.3,.8l2.1,.8l4.3,1l2.1,1.1l2.2,.5l2.1,1.1l2.2,.6l.7,-1.7l.9,-2.1l.5,-.8l.3,-1.3c.9,-4.2,2,-7,4,-10.7l.7,-2.2l.8,-2.1c1.6,-3.4,3.7,-5.8,7.1,-7.4l2.1,-1l.3,-.2l1.8,-1.3l.7,-.8c2.8,-2.4,2.7,-5.9,5.5,-8.6l.3,-.3l2.1,-1.6l.4,-.2l1.7,-1.1l2.2,-.9l.5,-.2l1.6,-.5h2.2l1.2,.5l.9,.4l2.1,1.1l1.1,.7l1.1,.8l1.3,1.3c2.8,3.1,2.6,6.3,5.1,8.4l.2,.2l1.9,2.1c3.4,2.2,7.3,2.7,10,6.4l.8,1.1l.7,1.1l1,2.1l.4,1.1l.3,1.1l1.8,1.8l.3,.3l1.9,1.7l.9,.4l1.2,.7l2.2,.6l2.1,.9c3.5,1.8,5,2.8,6.9,6.4l1.1,2.1l.6,1.7l.1,.5l2,1.1Z" class="g0_423"/>
<path d="M171.2,357.9v2.7" class="gi_423"/>
<path d="M171.2,363.4c.6,0,1.1,.2,1.4,.7c.3,.5,.5,1.2,.5,2.2c0,.9,-.2,1.6,-.5,2.1c-.3,.5,-.8,.7,-1.4,.7c-.7,0,-1.1,-.2,-1.5,-.7c-.3,-.5,-.5,-1.2,-.5,-2.1c0,-1,.2,-1.7,.5,-2.2c.4,-.5,.8,-.7,1.5,-.7Zm0,.6c-.4,0,-.7,.2,-.9,.5c-.2,.4,-.3,1,-.3,1.8c0,.7,.1,1.3,.3,1.7c.2,.4,.5,.5,.9,.5c.3,0,.6,-.1,.8,-.5c.2,-.4,.3,-1,.3,-1.7c0,-.8,-.1,-1.4,-.3,-1.8c-.2,-.3,-.5,-.5,-.8,-.5Z" class="gj_423"/>
<path d="M205.2,357.9v2.7" class="gi_423"/>
<path d="M204.2,368.4h2.6v.6h-3.5v-.6c.3,-.3,.7,-.7,1.2,-1.2c.4,-.5,.8,-.8,.9,-.9c.2,-.3,.4,-.5,.5,-.7c.1,-.2,.1,-.4,.1,-.6c0,-.3,-.1,-.5,-.3,-.7c-.2,-.2,-.5,-.3,-.8,-.3c-.2,0,-.5,.1,-.7,.1c-.3,.1,-.6,.2,-.9,.4v-.8c.3,-.1,.6,-.2,.9,-.2c.2,-.1,.5,-.1,.7,-.1c.6,0,1,.1,1.4,.4c.3,.3,.5,.7,.5,1.2c0,.2,-.1,.4,-.1,.6c-.1,.2,-.3,.5,-.5,.7c-.1,.1,-.3,.3,-.6,.7c-.3,.3,-.8,.8,-1.4,1.4Z" class="gj_423"/>
<path d="M239.1,357.9v2.7" class="gi_423"/>
<path d="M239.4,363.5h.9v3.6h.8v.6h-.8V369h-.7v-1.3h-2.5V367l2.3,-3.5Zm.2,.6l-1.9,3h1.9v-3Z" class="gj_423"/>
<path d="M273.1,357.9v2.7" class="gi_423"/>
<path d="M274.7,363.6v.7c-.2,-.1,-.4,-.2,-.6,-.2c-.1,-.1,-.3,-.1,-.5,-.1c-.5,0,-.9,.2,-1.2,.5c-.2,.4,-.4,.9,-.4,1.5c.1,-.2,.3,-.3,.5,-.5c.3,-.1,.5,-.1,.8,-.1c.5,0,1,.1,1.3,.5c.3,.3,.5,.8,.5,1.4c0,.5,-.2,1,-.5,1.3c-.4,.4,-.8,.5,-1.4,.5c-.6,0,-1.1,-.2,-1.4,-.7c-.4,-.5,-.6,-1.2,-.6,-2.1c0,-.9,.3,-1.6,.7,-2.1c.4,-.6,.9,-.8,1.6,-.8c.2,0,.4,0,.6,0c.2,.1,.4,.1,.6,.2Zm-1.5,2.4c-.3,0,-.6,.1,-.8,.3c-.2,.2,-.3,.5,-.3,1c0,.4,.1,.7,.3,.9c.2,.2,.5,.3,.8,.3c.4,0,.6,-.1,.8,-.3c.2,-.2,.3,-.5,.3,-.9c0,-.5,-.1,-.8,-.3,-1c-.2,-.2,-.4,-.3,-.8,-.3Z" class="gj_423"/>
<path d="M307.1,357.9v2.7" class="gi_423"/>
<path d="M306.1,364.9c0,.3,.1,.5,.3,.7c.1,.1,.4,.2,.7,.2c.3,0,.6,-.1,.8,-.2c.2,-.2,.3,-.4,.3,-.7c0,-.3,-.1,-.5,-.3,-.7c-.2,-.1,-.5,-.2,-.8,-.2c-.3,0,-.6,.1,-.7,.2c-.2,.2,-.3,.4,-.3,.7Zm.3,1.2c-.3,-.1,-.6,-.3,-.8,-.5c-.2,-.2,-.2,-.5,-.2,-.8c0,-.4,.1,-.8,.4,-1c.3,-.3,.8,-.4,1.3,-.4c.6,0,1,.1,1.3,.4c.3,.2,.5,.6,.5,1c0,.3,-.1,.6,-.3,.8c-.2,.2,-.4,.4,-.7,.5c.3,.1,.6,.2,.8,.5c.2,.2,.3,.5,.3,.9c0,.5,-.1,.9,-.5,1.2c-.3,.3,-.8,.4,-1.4,.4c-.6,0,-1.1,-.1,-1.4,-.4c-.3,-.3,-.5,-.7,-.5,-1.2c0,-.4,.1,-.7,.3,-.9c.2,-.3,.5,-.4,.9,-.5Zm.7,.3c-.3,0,-.6,.1,-.8,.3c-.2,.2,-.3,.4,-.3,.8c0,.3,.1,.6,.3,.8c.2,.1,.5,.2,.8,.2c.4,0,.7,-.1,.9,-.2c.2,-.2,.3,-.5,.3,-.8c0,-.4,-.1,-.6,-.3,-.8c-.2,-.2,-.5,-.3,-.9,-.3Z" class="gj_423"/>
<path d="M341.1,357.9v2.7" class="gi_423"/>
<path d="M337.2,368.4h1.2v-4.2l-1.3,.2v-.7l1.3,-.2h.8v4.9h1.2v.6h-3.2v-.6Z" class="gj_423"/>
<path d="M343.5,363.4c.7,0,1.1,.2,1.5,.7c.3,.5,.5,1.2,.5,2.2c0,.9,-.2,1.6,-.5,2.1c-.4,.5,-.8,.7,-1.5,.7c-.6,0,-1.1,-.2,-1.4,-.7c-.3,-.5,-.5,-1.2,-.5,-2.1c0,-1,.2,-1.7,.5,-2.2c.3,-.5,.8,-.7,1.4,-.7Zm0,.6c-.3,0,-.6,.2,-.8,.5c-.2,.4,-.3,1,-.3,1.8c0,.7,.1,1.3,.3,1.7c.2,.4,.5,.5,.8,.5c.4,0,.7,-.1,.9,-.5c.2,-.4,.3,-1,.3,-1.7c0,-.8,-.1,-1.4,-.3,-1.8c-.2,-.3,-.5,-.5,-.9,-.5Z" class="gj_423"/>
<path d="M375.1,357.9v2.7" class="gi_423"/>
<path d="M371.2,368.4h1.2v-4.2l-1.3,.2v-.7l1.3,-.2h.8v4.9h1.2v.6h-3.2v-.6Z" class="gj_423"/>
<path d="M376.6,368.4h2.6v.6h-3.5v-.6c.3,-.3,.6,-.7,1.1,-1.2c.5,-.5,.8,-.8,1,-.9c.2,-.3,.4,-.5,.5,-.7c.1,-.2,.1,-.4,.1,-.6c0,-.3,-.1,-.5,-.3,-.7c-.2,-.2,-.5,-.3,-.8,-.3c-.2,0,-.5,.1,-.8,.1c-.2,.1,-.5,.2,-.8,.4v-.8c.3,-.1,.6,-.2,.8,-.2c.3,-.1,.6,-.1,.8,-.1c.5,0,1,.1,1.3,.4c.4,.3,.6,.7,.6,1.2c0,.2,-.1,.4,-.2,.6c-.1,.2,-.2,.5,-.4,.7c-.1,.1,-.3,.3,-.6,.7c-.4,.3,-.8,.8,-1.4,1.4Z" class="gj_423"/>
<path d="M409.1,357.9v2.7" class="gi_423"/>
<path d="M405.2,368.4h1.2v-4.2l-1.3,.2v-.7l1.3,-.2h.8v4.9h1.2v.6h-3.2v-.6Z" class="gj_423"/>
<path d="M411.8,363.5h.9v3.6h.8v.6h-.8V369H412v-1.3h-2.5V367l2.3,-3.5Zm.2,.6l-1.9,3H412v-3Z" class="gj_423"/>
<path d="M443.1,357.9v2.7" class="gi_423"/>
<path d="M439.2,368.4h1.2v-4.2l-1.3,.2v-.7l1.3,-.2h.8v4.9h1.2v.6h-3.2v-.6Z" class="gj_423"/>
<path d="M447.1,363.6v.7c-.2,-.1,-.4,-.2,-.6,-.2c-.2,-.1,-.4,-.1,-.5,-.1c-.5,0,-.9,.2,-1.2,.5c-.2,.4,-.4,.9,-.4,1.5c.1,-.2,.3,-.3,.5,-.5c.2,-.1,.5,-.1,.7,-.1c.6,0,1,.1,1.4,.5c.3,.3,.5,.8,.5,1.4c0,.5,-.2,1,-.5,1.3c-.4,.4,-.8,.5,-1.4,.5c-.6,0,-1.1,-.2,-1.5,-.7c-.3,-.5,-.5,-1.2,-.5,-2.1c0,-.9,.2,-1.6,.6,-2.1c.5,-.6,1,-.8,1.7,-.8c.2,0,.4,0,.6,0c.2,.1,.4,.1,.6,.2Zm-1.5,2.4c-.3,0,-.6,.1,-.8,.3c-.2,.2,-.3,.5,-.3,1c0,.4,.1,.7,.3,.9c.2,.2,.5,.3,.8,.3c.3,0,.6,-.1,.8,-.3c.2,-.2,.3,-.5,.3,-.9c0,-.5,-.1,-.8,-.3,-1c-.2,-.2,-.5,-.3,-.8,-.3Z" class="gj_423"/>
<path d="M171.2,357.9h-2.7" class="gi_423"/>
<path d="M163.4,355.2c.6,0,1.1,.2,1.4,.7c.4,.5,.5,1.2,.5,2.1c0,1,-.1,1.7,-.5,2.2c-.3,.5,-.8,.7,-1.4,.7c-.6,0,-1.1,-.2,-1.4,-.7c-.3,-.5,-.5,-1.2,-.5,-2.2c0,-.9,.2,-1.6,.5,-2.1c.3,-.5,.8,-.7,1.4,-.7Zm0,.6c-.4,0,-.7,.1,-.9,.5c-.2,.4,-.3,1,-.3,1.7c0,.8,.1,1.4,.3,1.8c.2,.3,.5,.5,.9,.5c.4,0,.7,-.2,.9,-.5c.2,-.4,.3,-1,.3,-1.8c0,-.7,-.1,-1.3,-.3,-1.7c-.2,-.4,-.5,-.5,-.9,-.5Z" class="gj_423"/>
<path d="M171.2,323.9h-2.7" class="gi_423"/>
<path d="M162.4,326.2h2.7v.6h-3.6v-.6c.3,-.3,.7,-.7,1.2,-1.2c.5,-.5,.8,-.8,.9,-1c.3,-.2,.4,-.5,.5,-.6c.1,-.2,.2,-.4,.2,-.6c0,-.3,-.1,-.5,-.3,-.7c-.2,-.2,-.5,-.3,-.8,-.3c-.3,0,-.5,0,-.8,.1c-.2,.1,-.5,.2,-.8,.4v-.8c.3,-.1,.6,-.2,.8,-.2c.3,-.1,.5,-.1,.8,-.1c.5,0,1,.1,1.3,.4c.4,.3,.5,.7,.5,1.2c0,.2,0,.4,-.1,.6c-.1,.2,-.2,.4,-.5,.7c0,.1,-.2,.3,-.5,.6c-.4,.4,-.8,.9,-1.5,1.5Z" class="gj_423"/>
<path d="M171.2,289.9h-2.7" class="gi_423"/>
<path d="M163.7,287.3h.9v3.6h.8v.6h-.8v1.3h-.7v-1.3h-2.5v-.7l2.3,-3.5Zm.2,.6l-1.9,3h1.9v-3Z" class="gj_423"/>
<path d="M171.2,255.9h-2.7" class="gi_423"/>
<path d="M165,253.4v.7c-.2,-.1,-.4,-.2,-.6,-.2c-.2,-.1,-.4,-.1,-.6,-.1c-.4,0,-.8,.2,-1.1,.5c-.2,.4,-.4,.9,-.4,1.5c.1,-.2,.3,-.3,.5,-.5c.2,-.1,.5,-.1,.7,-.1c.6,0,1,.1,1.4,.5c.3,.3,.5,.8,.5,1.4c0,.5,-.2,1,-.6,1.3c-.3,.4,-.7,.5,-1.3,.5c-.6,0,-1.1,-.2,-1.5,-.7c-.3,-.5,-.5,-1.2,-.5,-2.1c0,-.9,.2,-1.6,.6,-2.1c.5,-.6,1,-.8,1.7,-.8c.2,0,.4,0,.6,0c.2,.1,.4,.1,.6,.2Zm-1.5,2.4c-.3,0,-.6,.1,-.8,.3c-.2,.2,-.3,.6,-.3,1c0,.4,.1,.7,.3,.9c.2,.2,.5,.3,.8,.3c.3,0,.6,-.1,.8,-.3c.2,-.2,.3,-.5,.3,-.9c0,-.4,-.1,-.8,-.3,-1c-.2,-.2,-.5,-.3,-.8,-.3Z" class="gj_423"/>
<path d="M171.2,222h-2.7" class="gi_423"/>
<path d="M162.4,220.7c0,.3,.1,.5,.3,.7c.1,.1,.4,.2,.7,.2c.3,0,.6,-.1,.8,-.2c.1,-.2,.2,-.4,.2,-.7c0,-.3,-.1,-.5,-.2,-.7c-.2,-.1,-.5,-.2,-.8,-.2c-.3,0,-.6,.1,-.7,.2c-.2,.2,-.3,.4,-.3,.7Zm.3,1.2c-.4,-.1,-.6,-.2,-.8,-.5c-.2,-.2,-.3,-.5,-.3,-.8c0,-.4,.2,-.8,.5,-1c.3,-.3,.8,-.4,1.3,-.4c.6,0,1,.1,1.3,.4c.3,.2,.5,.6,.5,1c0,.3,-.1,.6,-.3,.8c-.2,.3,-.4,.4,-.7,.5c.3,.1,.6,.2,.8,.5c.2,.2,.3,.5,.3,.9c0,.5,-.2,.9,-.5,1.2c-.3,.3,-.8,.5,-1.4,.5c-.6,0,-1.1,-.2,-1.4,-.5c-.3,-.3,-.5,-.7,-.5,-1.2c0,-.4,.1,-.7,.3,-.9c.2,-.3,.5,-.4,.9,-.5Zm.7,.3c-.3,0,-.6,.1,-.8,.3c-.2,.2,-.3,.4,-.3,.8c0,.3,.1,.6,.3,.8c.2,.2,.5,.3,.8,.3c.4,0,.6,-.1,.8,-.3c.3,-.2,.4,-.5,.4,-.8c0,-.4,-.1,-.6,-.3,-.8c-.3,-.2,-.5,-.3,-.9,-.3Z" class="gj_423"/>
<path d="M171.2,188h-2.7" class="gi_423"/>
<path d="M157.1,190.2h1.2V186l-1.3,.3v-.7l1.3,-.3h.8v4.9h1.2v.7h-3.2v-.7Z" class="gj_423"/>
<path d="M163.4,185.2c.6,0,1.1,.2,1.4,.7c.4,.5,.5,1.2,.5,2.2c0,.9,-.1,1.6,-.5,2.1c-.3,.5,-.8,.8,-1.4,.8c-.6,0,-1.1,-.3,-1.4,-.8c-.3,-.5,-.5,-1.2,-.5,-2.1c0,-1,.2,-1.7,.5,-2.2c.3,-.5,.8,-.7,1.4,-.7Zm0,.6c-.4,0,-.7,.2,-.9,.6c-.2,.3,-.3,.9,-.3,1.7c0,.7,.1,1.3,.3,1.7c.2,.4,.5,.6,.9,.6c.4,0,.7,-.2,.9,-.6c.2,-.4,.3,-1,.3,-1.7c0,-.8,-.1,-1.4,-.3,-1.7c-.2,-.4,-.5,-.6,-.9,-.6Z" class="gj_423"/>
<path d="M171.2,154h-2.7" class="gi_423"/>
<path d="M157.1,156.2h1.2V152l-1.3,.3v-.7l1.3,-.3h.8v4.9h1.2v.7h-3.2v-.7Z" class="gj_423"/>
<path d="M162.4,156.2h2.7v.7h-3.6v-.7c.3,-.3,.7,-.7,1.2,-1.2c.5,-.5,.8,-.8,.9,-.9c.3,-.3,.4,-.5,.5,-.7c.1,-.2,.2,-.4,.2,-.6c0,-.3,-.1,-.5,-.3,-.7c-.2,-.2,-.5,-.3,-.8,-.3c-.3,0,-.5,.1,-.8,.2c-.2,0,-.5,.2,-.8,.3v-.7c.3,-.1,.6,-.2,.8,-.3c.3,-.1,.5,-.1,.8,-.1c.5,0,1,.2,1.3,.4c.4,.3,.5,.7,.5,1.2c0,.2,0,.4,-.1,.6c-.1,.2,-.2,.5,-.5,.8c0,0,-.2,.2,-.5,.6c-.4,.3,-.8,.8,-1.5,1.4Z" class="gj_423"/>
<path d="M171.2,120h-2.7" class="gi_423"/>
<path d="M157.1,122.2h1.2V118l-1.3,.3v-.7l1.3,-.3h.8v4.9h1.2v.7h-3.2v-.7Z" class="gj_423"/>
<path d="M163.7,117.3h.9v3.6h.8v.7h-.8v1.3h-.7v-1.3h-2.5v-.8l2.3,-3.5Zm.2,.7l-1.9,2.9h1.9V118Z" class="gj_423"/>
<path d="M171.2,86h-2.7" class="gi_423"/>
<path d="M157.1,88.2h1.2V84l-1.3,.3v-.7l1.3,-.3h.8v4.9h1.2v.7h-3.2v-.7Z" class="gj_423"/>
<path d="M165,83.5v.6c-.2,-.1,-.4,-.1,-.6,-.2c-.2,0,-.4,0,-.6,0c-.4,0,-.8,.1,-1.1,.5c-.2,.3,-.4,.8,-.4,1.5c.1,-.2,.3,-.4,.5,-.5c.2,-.1,.5,-.2,.7,-.2c.6,0,1,.2,1.4,.5c.3,.4,.5,.8,.5,1.4c0,.6,-.2,1,-.6,1.4c-.3,.3,-.7,.5,-1.3,.5c-.6,0,-1.1,-.3,-1.5,-.8c-.3,-.4,-.5,-1.2,-.5,-2.1c0,-.9,.2,-1.6,.6,-2.1c.5,-.5,1,-.8,1.7,-.8c.2,0,.4,0,.6,.1c.2,0,.4,.1,.6,.2Zm-1.5,2.3c-.3,0,-.6,.1,-.8,.3c-.2,.3,-.3,.6,-.3,1c0,.4,.1,.7,.3,.9c.2,.3,.5,.4,.8,.4c.3,0,.6,-.1,.8,-.4c.2,-.2,.3,-.5,.3,-.9c0,-.4,-.1,-.7,-.3,-1c-.2,-.2,-.5,-.3,-.8,-.3Z" class="gj_423"/>
<path d="M171.2,357.9V86M443.1,357.9V86M171.2,357.9H443.1M171.2,86H443.1" class="gk_423"/>
<path d="M256.7,324.5v-17m0,17h34v-17m51,17v-17m0,17h34v-17m-119,0v-17m34,17h17v-17m17,17v-17m0,17h17m34,0h17v-17m-152.9,0v-17m0,17h16.9m51,0h17m68,0h17v-17m-169.9,0v-17m169.9,17v-17m-169.9,0v-17m152.9,17v-17m0,17h17m-186.9,-17v-17m0,17h17m135.9,0v-17m0,17h17m-169.9,-17v-17m152.9,17h17v-17m-169.9,0v-17m169.9,17h17v-17m-203.9,0v-17m0,17h17m186.9,0v-17m-203.9,0v-17m169.9,17v-17m0,17h34m-203.9,-17v-17m118.9,17v-17m0,17h51m-169.9,-17V120.6m67.9,16.9V120.6m0,16.9h51M205.8,120.6h67.9" class="gl_423"/>
<path d="M312.2,516.5h.4V458.9h-.4Z" class="gm_423"/>
<path d="M288,493.6v3.2l-.3,-.1l-6.3,-2.9l-.3,-.2l.3,-.2l6.3,-2.9l.3,-.1v.3l-.1,.2l-6.3,2.9l-.2,-.4h.2l6.3,3l-.2,.3v-3.1Z" class="gm_423"/>
<path d="M287.7,493.6h.3v-2.9h-.3Z" class="gm_423"/>
<path d="M287.8,493.8h.2v-.4h-.2Z" class="gm_423"/>
<path d="M288,493.8h24.6v-.4H288Z" class="gm_423"/>
<path d="M650.1,575.5h.4V517.8h-.4Z" class="gm_423"/>
<path d="M358.4,652.9h.4V610h-.4Z" class="gm_423"/>
<path d="M574.6,692.4h.3v-53h-.3Z" class="gm_423"/>
<path d="M557.3,692.4v3.1l-.2,-.1l-6.3,-2.9l-.3,-.1l.3,-.2l6.3,-3h.2v.2l-.1,.2l-6.2,2.9l-.2,-.3h.2l6.2,2.8l-.1,.4l-.1,-.2v-2.8Z" class="gm_423"/>
<path d="M557,692.4h.3v-3H557Z" class="gm_423"/>
<path d="M557.1,692.5h.2v-.3h-.2Z" class="gm_423"/>
<path d="M557.3,692.5h17.6v-.3H557.3Z" class="gm_423"/>
<path d="M557.1,789.4h.3V762.9h-.3Z" class="gm_423"/>
</svg>