<?xml version="1.0" encoding="UTF-8" standalone="no"?>
<!DOCTYPE svg PUBLIC "-//W3C//DTD SVG 1.1//EN"
"http://www.w3.org/Graphics/SVG/1.1/DTD/svg11.dtd">
<svg viewBox="0 0 811 1017" version="1.1" xmlns="http://www.w3.org/2000/svg" xmlns:xlink="http://www.w3.org/1999/xlink">
<defs>
<style type="text/css"><![CDATA[
.g0_420{
fill: #000;
}
.g1_420{
fill: #FFF;
}
.g2_420{
fill: #999898;
}
.g3_420{
fill: #A0A1A0;
}
.g4_420{
fill: #AAABAB;
}
.g5_420{
fill: #B4B4B5;
}
.g6_420{
fill: #BDBDBD;
}
.g7_420{
fill: #C6C5C4;
}
.g8_420{
fill: #CDCCCB;
}
.g9_420{
fill: #D5D5D3;
}
.ga_420{
fill: #DBDBDB;
}
.gb_420{
fill: #E3E2E2;
}
.gc_420{
fill: #E9E9E9;
}
.gd_420{
fill: #EDEFF0;
}
.ge_420{
fill: #F3F6F7;
}
.gf_420{
fill: #F8F8F7;
}
.gg_420{
fill: #F9FBFB;
}
.gh_420{
fill: none;
stroke: #040504;
stroke-width: 0.609;
stroke-linejoin: round;
}
.gi_420{
fill: #040504;
}
.gj_420{
fill: none;
stroke: #040504;
stroke-width: 0.609;
stroke-linecap: square;
}
]]></style>
</defs>
<path d="M631,157.6h.4V88.1H631Z" class="g0_420"/>
<path d="M613.9,88.1v3.2l-.3,-.1l-6.3,-2.9l-.4,-.2l.4,-.2L613.6,85l.3,-.1v.3l-.1,.1l-6.3,3l-.2,-.4h.2l6.3,2.9l-.2,.4l-.1,-.2V88.1Z" class="g0_420"/>
<path d="M613.5,88.1h.4V85.2h-.4Z" class="g0_420"/>
<path d="M613.7,88.3h.2v-.4h-.2Z" class="g0_420"/>
<path d="M613.9,88.3h17.5v-.4H613.9Z" class="g0_420"/>
<path d="M378.9,417.9h.4V379.7h-.4Z" class="g0_420"/>
<path d="M361.8,418.1v3.2l-.3,-.1l-6.3,-2.9l-.4,-.2l.4,-.2l6.3,-2.9l.3,-.1v.3l-.1,.1l-6.3,3l-.2,-.4h.2l6.3,2.9l-.2,.4l-.1,-.2v-2.9Z" class="g0_420"/>
<path d="M361.4,418.1h.4v-2.9h-.4Z" class="g0_420"/>
<path d="M361.6,418.3h.2v-.4h-.2Z" class="g0_420"/>
<path d="M361.8,418.3h17.5v-.4H361.8Z" class="g0_420"/>
<path d="M369.3,460.8h.4V433.2h-.4Z" class="g0_420"/>
<path d="M344.9,433.2v3.2l-.3,-.1l-6.3,-2.9l-.3,-.2l.3,-.2l6.3,-2.9l.3,-.1v.3l-.1,.2l-6.3,2.9l-.2,-.4h.2l6.3,3l-.2,.3l-.1,-.1v-3Z" class="g0_420"/>
<path d="M344.5,433.2h.4v-2.9h-.4Z" class="g0_420"/>
<path d="M344.8,433.4h.1V433h-.1Z" class="g0_420"/>
<path d="M344.9,433.4h24.8V433H344.9Z" class="g0_420"/>
<path d="M157.4,911.6H429.3v-272H157.4Z" class="g1_420"/>
<path d="M240.9,894.4V862.3h-15l-2.1,-2.1V828.1h-15l-2.1,-2.2V776.7h-15l-2.2,-2.2V708.1h-15L172.4,706V656.8l2.1,-2.2h49.3l2.1,2.2v14.9h66.4l2.1,2.2v15h49.3l2.1,2.1v15h49.3l2.1,2.1v15h15l2.2,2.2v32.1l-2.2,2.1h-15v15l-2.1,2.2h-15v15h15l2.1,2.1v15h15l2.2,2.1V843l-2.2,2.2h-15v15l-2.1,2.1h-15v15l-2.1,2.1H363v15l-2.2,2.2H328.7l-2.1,-2.2v-15h-15l-2.2,-2.1v-15h-15v15l-2.1,2.1h-15v15l-2.1,2.2H243.1l-2.2,-2.2Zm-81.3,17.2H429.3v-272H157.4v272h2.2Z" class="g2_420"/>
<path d="M241.4,894.4v-15l-.3,-2.1v-15l-.2,-.5h-15l-1.6,-1.6v-15L224,843V828.1l-.1,-2.2v-15l-.1,-.3h-15l-1.7,-1.8v-15l-.2,-2.1v-15l-.1,-2.2v-15l-.1,-.3h-15l-1.8,-1.8v-15l-.1,-2.1v-15l-.1,-2.2v-15l-.2,-1h-15L173.4,706V691l-.7,-2.1v-15l.1,-2.2V656.8l1.7,-1.7h15l2.2,-.2h15l2.1,.6h15l1.2,1.3v14.9l.9,.2h15l2.2,.1H258l2.2,.1h15l1.8,1.8v15l.3,.1h15l2.1,.1h15l2.2,.1h15l1.9,1.8v15l.2,.1h15l2.1,.2h15l2.2,.1h15l1.8,1.7v15l.3,.1h15l2.1,.4h15l1.7,1.7v15l-.1,2.1v15l-1.6,1.5h-15l-2.1,.5h-15l-.2,.1v15l-1.9,2H363l-.2,.2v15l.2,.2h15l1.9,1.9v15l.2,.2h15l1.9,1.9v15l.2,1.6h15l.5,.6V843l-.5,.6h-15l-.5,1.6v15l-1.6,1.6h-15l-.4,.5v15L378,879H363l-1.7,.4v15l-.5,.5h-15l-.4,-.5v-15l-1.7,-.2h-15l-1.9,-1.9v-15l-.2,-.2h-15l-2,-1.9v-15l-.2,-.2h-15l-.2,.2v15l-1.9,1.9h-15l-.1,.2v15l-.5,2.1v15l-1.5,1.6h-15l-2.2,.1H243.1l-1.7,-1.7Zm1.7,2.2h32.1l2.1,-2.2v-15h15l2.1,-2.1v-15h15v15l2.2,2.1h15v15l2.1,2.2h32.1l2.2,-2.2v-15h15l2.1,-2.1v-15h15l2.1,-2.1v-15h15l2.2,-2.2V810.9l-2.2,-2.1h-15v-15l-2.1,-2.1h-15v-15h15l2.1,-2.2v-15h15l2.2,-2.1V725.3l-2.2,-2.2h-15v-15L395.1,706H345.8V691l-2.1,-2.1H294.4v-15l-2.1,-2.2H225.9V656.8l-2.1,-2.2H174.5l-2.1,2.2V706l2.1,2.1h15v66.4l2.2,2.2h15v49.2l2.1,2.2h15v32.1l2.1,2.1h15v32.1l2.2,2.2Z" class="g3_420"/>
<path d="M241.9,894.4v-15l-.7,-2.1v-15l-.3,-1h-15l-1.1,-1.1v-15l-.6,-2.2V828.1l-.2,-2.2v-15l-.2,-.7h-15l-1.3,-1.4v-15l-.4,-2.1v-15l-.2,-2.2v-15l-.2,-.6h-15l-1.5,-1.5v-15l-.2,-2.1v-15l-.1,-2.2v-15l-.4,-2h-15l-.1,-.1V691L173,688.9v-15l.3,-2.2V656.8l1.2,-1.3h15l2.2,-.3h15l2.1,1.2h15l.3,.4v14.9l1.8,.4h15l2.2,.1H258l2.2,.3h15l1.4,1.4v15l.7,.2h15l2.1,.2h15l2.2,.3h15l1.5,1.4v15l.6,.2h15l2.1,.3h15l2.2,.3h15l1.4,1.3v15l.7,.3h15l2.1,.6h15l1.3,1.3v15l-.3,2.1v15l-1,1h-15l-2.1,.9h-15l-.4,.2v15l-1.7,1.7H363l-.5,.5v15l.5,.4h15l1.7,1.7v15l.4,.4h15l1.7,1.7v15l.3,2.2V843l-.8,2.2v15l-1.2,1.1h-15l-.8,1v15l-1.3,1.3H363l-2.2,.7h-15l-2.1,-.3h-15l-1.6,-1.7v-15l-.5,-.4h-15l-1.7,-1.7v-15l-.5,-.5h-15l-.4,.5v15l-1.7,1.7h-15l-.3,.4v15l-.9,2.1v15l-.9,1h-15l-2.2,.2H243.1l-1.2,-1.2Zm1.2,1.7H258l2.2,-.1h15l1.5,-1.6v-15l.5,-2.1v-15l.1,-.2h15l1.9,-1.9v-15l.2,-.2h15l.2,.2v15l2,1.9h15l.2,.2v15l1.9,1.9h15l1.7,.2v15l.4,.5h15l.5,-.5v-15L363,879h15l1.7,-1.7v-15l.4,-.5h15l1.6,-1.6v-15l.5,-1.6h15l.5,-.6V828.1l-.5,-.6h-15l-.2,-1.6v-15L395.1,809h-15l-.2,-.2v-15L378,791.9H363l-.2,-.2v-15l.2,-.2h15l1.9,-2v-15l.2,-.1h15l2.1,-.5h15l1.6,-1.5v-15l.1,-2.1v-15l-1.7,-1.7h-15l-2.1,-.4h-15l-.3,-.1v-15L378,706.4H363l-2.2,-.1h-15l-2.1,-.2h-15l-.2,-.1V691l-1.9,-1.8h-15l-2.2,-.1h-15l-2.1,-.1h-15l-.3,-.1v-15l-1.8,-1.8h-15L258,672H243.1l-2.2,-.1h-15l-.9,-.2V656.8l-1.2,-1.3h-15l-2.1,-.6h-15l-2.2,.2h-15l-1.7,1.7v14.9l-.1,2.2v15l.7,2.1v15l1.1,1.1h15l.2,1v15l.1,2.2v15l.1,2.1v15l1.8,1.8h15l.1,.3v15l.1,2.2v15l.2,2.1v15l1.7,1.8h15l.1,.3v15l.1,2.2V843l.3,2.2v15l1.6,1.6h15l.2,.5v15l.3,2.1v15l1.7,1.7Z" class="g4_420"/>
<path d="M242.3,894.4v-15l-.9,-2.1v-15l-.5,-1.5h-15l-.6,-.6v-15l-.8,-2.2V828.1l-.3,-2.2v-15l-.4,-1.2h-15l-.9,-.9v-15l-.5,-2.1v-15l-.3,-2.2v-15l-.4,-1h-15l-1.1,-1.1v-15l-.4,-2.1v-15l-.1,-2.2v-15l-.4,-2.1V691l-.2,-.3h-15l-1.2,-1.8v-15l.4,-2.2V656.8l.8,-.8h15l2.2,-.6h15l1.9,1.4v14.9l.2,.1h15l2.1,.5h15l2.2,.2H258l2.2,.3h15l1.1,1.1v15l1,.4h15l2.1,.2h15l2.2,.5h15l1.1,1v15l1,.4h15l2.1,.3h15l2.2,.5h15l.9,.9v15l1.2,.5h15l2.1,.8h15l.9,.9v15l-.5,2.1v15l-.4,.4h-15l-2.1,1.3h-15l-.6,.4v15L378,776H363l-.7,.7v15l.7,.6h15l1.4,1.5v15l.7,.7h15l1.4,1.4v15l.5,2.2V843l-1.2,2.2v15l-.7,.7h-15l-1.2,1.4v15l-.9,.9H363l-2.2,1h-15l-2.1,-.5h-15l-1.4,-1.4v-15l-.7,-.7h-15l-1.5,-1.4v-15l-.7,-.7h-15l-.6,.7v15l-1.5,1.5h-15l-.4,.6v15l-1.4,2.1v15l-.3,.4h-15l-2.2,.4H243.1l-.8,-.8Zm.8,1.2H258l2.2,-.2h15l.9,-1v-15l.9,-2.1v-15l.3,-.4h15l1.7,-1.7v-15l.4,-.5h15l.5,.5v15l1.7,1.7h15l.4,.4v15l1.7,1.7h15l2.1,.3h15l2.2,-.7h15l1.3,-1.3v-15l.8,-1h15l1.2,-1.1v-15l.8,-2.2V828.1l-.3,-2.2v-15l-1.7,-1.7h-15l-.4,-.4v-15L378,792.1H363l-.5,-.4v-15l.5,-.5h15l1.7,-1.7v-15l.4,-.2h15l2.1,-.9h15l1,-1v-15l.3,-2.1v-15L412.2,724h-15l-2.1,-.6h-15l-.7,-.3v-15L378,706.8H363l-2.2,-.3h-15l-2.1,-.3h-15l-.6,-.2V691l-1.5,-1.4h-15l-2.2,-.3h-15l-2.1,-.2h-15l-.7,-.2v-15l-1.4,-1.4h-15l-2.2,-.3H243.1l-2.2,-.1h-15l-1.8,-.4V656.8l-.3,-.4h-15l-2.1,-1.2h-15l-2.2,.3h-15l-1.2,1.3v14.9l-.3,2.2v15l1.4,2.1v15l.1,.1h15l.4,2v15l.1,2.2v15l.2,2.1v15l1.5,1.5h15l.2,.6v15l.2,2.2v15l.4,2.1v15l1.3,1.4h15l.2,.7v15l.2,2.2V843l.6,2.2v15l1.1,1.1h15l.3,1v15l.7,2.1v15l1.2,1.2Z" class="g5_420"/>
<path d="M242.8,894.4v-15l-1.2,-2.1v-15l-.7,-2h-15l-.1,-.1v-15L224.7,843V828.1l-.4,-2.2v-15l-.5,-1.6h-15l-.5,-.5v-15l-.7,-2.1v-15l-.3,-2.2v-15l-.6,-1.3h-15l-.8,-.8v-15l-.5,-2.1v-15l-.2,-2.2v-15l-.4,-2.1V691l-.3,-.7h-15l-1,-1.4v-15l.7,-2.2V656.8l.3,-.4h15l2.2,-.7h15l1.5,1.1v14.9l.6,.3h15l2.1,.4h15l2.2,.3H258l2.2,.5h15l.7,.7v15l1.4,.6h15l2.1,.3h15l2.2,.5h15l.7,.7v15l1.4,.5h15l2.1,.5h15l2.2,.7h15l.5,.4v15l1.6,.6h15l2.1,1.1h15l.4,.5v15l-.4,1.5h-15l-.1,.6v15l-2,1.5h-15l-.9,.6v15l-1.2,1.3H363l-.9,.9v15l.9,.8h15l1.2,1.3v15l.9,.9h15l1.2,1.2v15l.5,2.2V843l-1.5,2.2v15l-.2,.2h-15l-1.6,1.9v15l-.5,.5H363l-2.2,1.2h-15l-2.1,-.5h-15l-1.1,-1.2v-15l-1,-.9h-15l-1.3,-1.2v-15l-.9,-.9h-15l-.8,.9v15l-1.3,1.2h-15l-.6,.9v15l-1.5,2.1H259.3v15l-1.3,.3H243.1l-.3,-.3Zm.3,.8H258l2.2,-.4h15l.3,-.4v-15l1.4,-2.1v-15l.4,-.6h15l1.5,-1.5v-15l.6,-.7h15l.7,.7v15l1.5,1.4h15l.7,.7v15l1.4,1.4h15l2.1,.5h15l2.2,-1h15l.9,-.9v-15l1.2,-1.4h15l.7,-.7v-15L397,843V828.1l-.5,-2.2v-15l-1.4,-1.4h-15l-.7,-.7v-15L378,792.3H363l-.7,-.6v-15l.7,-.7h15l1.5,-1.5v-15l.6,-.4h15l2.1,-1.3h15l.4,-.4v-15l.5,-2.1v-15l-.9,-.9h-15l-2.1,-.8h-15l-1.2,-.5v-15l-.9,-.9H363l-2.2,-.5h-15l-2.1,-.3h-15l-1,-.4V691l-1.1,-1h-15l-2.2,-.5h-15l-2.1,-.2h-15l-1,-.4v-15l-1.1,-1.1h-15l-2.2,-.3H243.1l-2.2,-.2h-15l-2.1,-.5h-15l-.2,-.1V656.8l-1.9,-1.4h-15l-2.2,.6h-15l-.8,.8v14.9l-.4,2.2v15l1.2,1.8h15l.2,.3v15l.4,2.1v15l.1,2.2v15l.4,2.1v15l1.1,1.1h15l.4,1v15l.3,2.2v15l.5,2.1v15l.9,.9h15l.4,1.2v15l.3,2.2V843l.8,2.2v15l.6,.6h15l.5,1.5v15l.9,2.1v15l.8,.8Z" class="g6_420"/>
<path d="M241.7,877.3v-15l-.7,-2.1v-15l-.1,-.3h-15l-1,-1.9V828.1l-.4,-2.2v-15l-.7,-2.1H208.7v-15l-.9,-2.1v-15l-.4,-2.2v-15l-.7,-1.7h-15l-.4,-.4v-15l-.6,-2.1v-15l-.3,-2.2v-15L190,706V691l-.5,-1.1h-15l-.7,-1v-15l.7,-2h15l.2,-.2V656.8l2,-.8h15l1.1,.8v14.9l1,.5h15l2.1,.4h15l2.2,.3H258l2.2,.6h15l.3,.4v15l1.8,.7h15l2.1,.4h15l2.2,.7h15l.3,.3v15l1.8,.7h15l2.1,.5h15l2.2,.9h15v15l2.1,.8h15l2.1,1.4v15l-.3,2.1v15l-1.8,1.4h-15l-1.1,.7v15l-1,1H363l-1.1,1.2v15l1.1,1h15l1,1.1v15l1.1,1.1h15l1,1v15l.5,2.2V843l-1.5,2.1h-15l-.1,.1v15l-1.9,2.1v15l-.1,.1H363l-2.2,1.5h-15l-2.1,-.7h-15l-.9,-.9v-15l-1.2,-1.1h-15l-1,-1v-15L309.4,844h-15l-1.1,1.2v15l-1,1h-15l-.7,1.1v15l-1.4,1.8h-15l-2.2,.2H243.1l-1.4,-2Zm1.4,17.4H258l1.3,-.3v-15h15.9l1.5,-2.1v-15l.6,-.9h15l1.3,-1.2v-15l.8,-.9h15l.9,.9v15l1.3,1.2h15l1,.9v15l1.1,1.2h15l2.1,.5h15l2.2,-1.2h15l.5,-.5v-15l1.6,-1.9h15l.2,-.2v-15l1.5,-2.2V828.1l-.5,-2.2v-15l-1.2,-1.2h-15l-.9,-.9v-15L378,792.5H363l-.9,-.8v-15l.9,-.9h15l1.2,-1.3v-15l.9,-.6h15l2,-1.5v-15l.1,-.6h15l.4,-1.5v-15l-.4,-.5h-15l-2.1,-1.1h-15l-1.6,-.6v-15l-.5,-.4H363l-2.2,-.7h-15l-2.1,-.5h-15l-1.4,-.5V691l-.7,-.7h-15l-2.2,-.5h-15l-2.1,-.4h-15l-1.4,-.5v-15l-.7,-.7h-15l-2.2,-.5H243.1l-2.2,-.3h-15l-2.1,-.4h-15l-.6,-.3V656.8l-1.5,-1.1h-15l-2.2,.7h-15l-.3,.4v14.9l-.7,2.2v15l1,1.4h15l.3,.7v15l.4,2.1v15l.2,2.2v15l.5,2.1v15l.8,.8h15l.6,1.3v15l.3,2.2v15l.7,2.1v15l.5,.5h15l.5,1.6v15l.4,2.2V843l1.1,2.2v15l.1,.1h15l.7,2v15l1.2,2.1v15l.3,.3Z" class="g7_420"/>
<path d="M241.9,877.3v-15l-.7,-2.1v-15l-.3,-.7h-15l-.7,-1.5V828.1l-.6,-2.2v-15l-.6,-2.1v-15l-.2,-.5h-15l-.7,-1.6v-15l-.5,-2.2v-15l-.9,-2.1H191.6v-15l-.7,-2.1v-15l-.3,-2.2v-15l-.5,-2.1V691l-.6,-1.5h-15l-.4,-.6v-15l.4,-1.2h15l.9,-1V656.8l1.3,-.5h15l.7,.5v14.9l1.4,.6h15l2.1,.5h15l2.2,.4H258l2.2,.7v15h15l2.1,.9h15l2.1,.4h15l2.1,.8v15h15.1l2.1,.8h15l2.1,.7h15l1.7,.6v15l.5,.2h15l2.1,.8h15l1.9,1.2v15l-.3,2.1v15l-1.6,1.2h-15l-1.3,.9v15l-.8,.8H363l-1.4,1.4v15L363,793h15l.8,.8v15l1.3,1.4h15l.7,.7v15l.7,2.2V843l-1.4,1.9h-15l-.3,.3v15l-1.8,2H363l-.2,.1v15l-2,1.4h-15l-2.1,-.8h-15l-.6,-.6v-15l-1.5,-1.4h-15l-.8,-.7v-15l-1.4,-1.4h-15l-1.3,1.4v15l-.8,.8h-15l-.9,1.3v15l-1.2,1.6h-15l-2.2,.2H243.1l-1.2,-1.8Zm1.2,2H258l2.2,-.2h15l1.4,-1.8v-15l.7,-1.1h15l1,-1v-15l1.1,-1.2h15l1.2,1.2v15l1,1h15l1.2,1.1v15l.9,.9h15l2.1,.7h15l2.2,-1.5h15l.1,-.1v-15l1.9,-2.1v-15l.1,-.1h15l1.5,-2.1V828.1l-.5,-2.2v-15l-1,-1h-15L379,808.8v-15l-1,-1.1H363l-1.1,-1v-15l1.1,-1.2h15l1,-1v-15l1.1,-.7h15l1.8,-1.4v-15l.3,-2.1v-15l-2.1,-1.4h-15l-2.1,-.8v-15H363l-2.2,-.9h-15l-2.1,-.5h-15l-1.8,-.7V691l-.3,-.3h-15l-2.2,-.7h-15l-2.1,-.4h-15l-1.8,-.7v-15l-.3,-.4h-15l-2.2,-.6H243.1l-2.2,-.3h-15l-2.1,-.4h-15l-1,-.5V656.8l-1.1,-.8h-15l-2,.8v14.9l-.2,.2h-15l-.7,2v15l.7,1h15l.5,1.1v15l.4,2.1v15l.3,2.2v15l.6,2.1v15l.4,.4h15l.7,1.7v15l.4,2.2v15l.9,2.1v15h15.1l.7,2.1v15l.4,2.2V843l1,1.9h15l.1,.3v15l.7,2.1v15l1.4,2Z" class="g8_420"/>
<path d="M242.1,877.3v-15l-.7,-2.1v-15l-.5,-1.2h-15l-.5,-1V828.1l-.6,-2.2v-15l-.6,-2.1v-15l-.4,-1h-15l-.5,-1.1v-15l-.6,-2.2v-15l-.9,-2.1v-15l-.1,-.6h-15l-.6,-1.5v-15l-.3,-2.2v-15l-.5,-2.1V691l-.8,-1.9h-15l-.1,-.2v-15l.1,-.4h15l1.6,-1.8V656.8l.6,-.3h15l.3,.3v14.9l1.8,.8h15l2.1,.4h15l2.2,.5H258l1.5,.5v15l.7,.2h15l2.1,.8h15l2.1,.5h15l1.5,.6v15l.7,.2h15l2.1,.8h15l2.1,.7h15l1.1,.4v15l1.1,.4h15l2.1,.7h15l1.6,1.1v15l-.2,2.1v15l-1.4,1.1h-15l-1.6,1v15l-.5,.6H363l-1.6,1.6v15l1.6,1.5h15l.6,.6v15l1.5,1.6h15l.5,.5v15l.7,2.2V843l-1.2,1.7h-15l-.5,.5v15l-1.6,1.7H363l-.4,.4v15l-1.8,1.2h-15l-2.1,-.8h-15l-.4,-.4v-15l-1.7,-1.6h-15l-.6,-.5v-15l-1.6,-1.6h-15l-1.5,1.6v15l-.6,.5h-15l-1,1.6v15l-1.1,1.4h-15l-2.2,.1H243.1l-1,-1.5Zm1,1.8H258l2.2,-.2h15l1.2,-1.6v-15l.9,-1.3h15l.8,-.8v-15l1.3,-1.4h15l1.4,1.4v15l.8,.7h15l1.5,1.4v15l.6,.6h15l2.1,.8h15l2,-1.4v-15l.2,-.1h15l1.8,-2v-15l.3,-.3h15l1.4,-1.9V828.1l-.7,-2.2v-15l-.7,-.7h-15l-1.3,-1.4v-15L378,793H363l-1.4,-1.3v-15l1.4,-1.4h15l.8,-.8v-15l1.3,-.9h15l1.6,-1.2v-15l.3,-2.1v-15l-1.9,-1.2h-15l-2.1,-.8H363l-.5,-.2v-15l-1.7,-.6h-15l-2.1,-.7h-15l-2.1,-.8H311.5V691l-2.1,-.8h-15l-2.1,-.4h-15l-2.1,-.9h-15v-15l-2.2,-.7H243.1l-2.2,-.4h-15l-2.1,-.5h-15l-1.4,-.6V656.8l-.7,-.5h-15l-1.3,.5v14.9l-.9,1h-15l-.4,1.2v15l.4,.6h15l.6,1.5v15l.5,2.1v15l.3,2.2v15l.7,2.1v15h15.1l.9,2.1v15l.5,2.2v15l.7,1.6h15l.2,.5v15l.6,2.1v15l.6,2.2V843l.7,1.5h15l.3,.7v15l.7,2.1v15l1.2,1.8Z" class="g9_420"/>
<path d="M242.2,877.3v-15l-.6,-2.1v-15l-.7,-1.6h-15l-.3,-.6V828.1l-.7,-2.2v-15l-.5,-2.1v-15l-.6,-1.6h-15l-.3,-.5v-15l-.6,-2.2v-15l-.8,-2.1v-15l-.4,-1.3h-15l-.3,-.8v-15l-.5,-2.2v-15l-.5,-2.1V691l-.7,-2.1v-15l2,-2.1h15l2.1,.8h15l2.1,.5h15l2.2,.5H258l.8,.3v15l1.4,.4h15l2.1,.8h15l2.1,.6h15l1,.3v15l1.2,.5h15l2.1,.6h15l2.1,.9h15l.4,.1v15l1.8,.6h15l2.1,.7h15l1.3,.9v15l-.1,2.1v15l-1.2,.9h-15l-1.8,1.2v15l-.3,.4H363l-1.8,1.8v15l1.8,1.7h15l.3,.4v15l1.8,1.9h15l.3,.2v15l.8,2.2V843l-1.1,1.5h-15l-.7,.7v15l-1.4,1.5H363l-.6,.6v15l-1.6,1.1h-15l-2.1,-1h-15l-.1,-.1v-15l-2,-1.8h-15l-.3,-.3v-15l-1.9,-1.9h-15l-1.8,1.9v15l-.3,.3h-15l-1.2,1.8v15l-.9,1.2h-15l-2.2,.1H243.1l-.9,-1.3Zm.9,1.5H258l2.2,-.1h15l1.1,-1.4v-15l1,-1.6h15l.6,-.5v-15l1.5,-1.6h15l1.6,1.6v15l.6,.5h15l1.7,1.6v15l.4,.4h15l2.1,.8h15l1.8,-1.2v-15l.4,-.4h15l1.6,-1.7v-15l.5,-.5h15l1.2,-1.7V828.1l-.7,-2.2v-15l-.5,-.5h-15l-1.5,-1.6v-15l-.6,-.6H363l-1.6,-1.5v-15l1.6,-1.6h15l.5,-.6v-15l1.6,-1h15l1.4,-1.1v-15l.2,-2.1v-15l-1.6,-1.1h-15l-2.1,-.7H363l-1.1,-.4v-15l-1.1,-.4h-15l-2.1,-.7h-15l-2.1,-.8h-15l-.7,-.2V691l-1.5,-.6h-15l-2.1,-.5h-15l-2.1,-.8h-15l-.7,-.2v-15l-1.5,-.5H243.1l-2.2,-.5h-15l-2.1,-.4h-15l-1.8,-.8V656.8l-.3,-.3h-15l-.6,.3v14.9l-1.6,1.8h-15l-.1,.4v15l.1,.2h15l.8,1.9v15l.5,2.1v15l.3,2.2v15l.6,1.5h15l.1,.6v15l.9,2.1v15l.6,2.2v15l.5,1.1h15l.4,1v15l.6,2.1v15l.6,2.2V843l.5,1h15l.5,1.2v15l.7,2.1v15l1,1.5Z" class="ga_420"/>
<path d="M242.4,877.3v-15l-.6,-2.1v-15l-.9,-2h-15V828.1l-.8,-2.2v-15l-.5,-2.1v-15l-.8,-2.1h-15v-15l-.8,-2.2v-15l-.7,-2.1v-15l-.6,-1.9h-15l-.1,-.2v-15l-.5,-2.2v-15l-.5,-2.1V691l-.7,-2.1v-15l1.8,-1.8h15l2.1,.7h15l2.1,.5h15l2.2,.6v15H258l2.2,.6h15l2.1,.7h15l2.1,.7h15l.4,.1v15l1.8,.7h15l2.1,.6h15l2,.8v15l.1,.1h15l2.2,.7h14.9l2.2,.7h15l1.1,.7v15l-.1,2.1v15l-1,.8h-15l-2,1.3v15l-.2,.1H363l-2,2.1v15l2,1.9h14.9l.2,.2v15l2,2.1h15v15l.9,2.2V843l-.9,1.3h-15l-.9,.9v15l-1.3,1.3H363l-.8,.8v15l-1.4,.9h-15l-2,-.9v-15l-.1,-.1h-15l-2.1,-1.9h-15l-.1,-.1v-15l-2.1,-2.1h-15l-2,2.1v15l-.1,.1h-15l-1.3,2v15l-.8,1H243.1l-.7,-1Zm.7,1.3H258l2.2,-.1h15l.9,-1.2v-15l1.2,-1.8h15l.3,-.3v-15l1.8,-1.9h15l1.9,1.9v15l.3,.3h15l2,1.8v15l.1,.1h15l2.1,1h15l1.6,-1.1v-15l.6,-.6h14.9l1.5,-1.5v-15l.7,-.7h15l1.1,-1.5V828.1l-.8,-2.2v-15l-.3,-.2h-15l-1.8,-1.9v-15l-.4,-.4H363l-1.8,-1.7v-15l1.8,-1.8h14.9l.4,-.4v-15l1.8,-1.2h15l1.2,-.9v-15l.1,-2.1v-15l-1.3,-.9h-15l-2.2,-.7H363l-1.8,-.6v-15l-.4,-.1h-15l-2.1,-.9h-15l-2.1,-.6h-15l-1.2,-.5V691l-1,-.3h-15l-2.1,-.6h-15l-2.1,-.8h-15l-1.4,-.4v-15l-.8,-.3H243.1l-2.2,-.5h-15l-2.1,-.5h-15l-2.1,-.8h-15l-2,2.1v15l.7,2.1v15l.5,2.1v15l.5,2.2v15l.3,.8h15l.4,1.3v15l.8,2.1v15l.6,2.2v15l.3,.5h15l.6,1.6v15l.5,2.1v15l.7,2.2V843l.3,.6h15l.7,1.6v15l.6,2.1v15l.9,1.3Z" class="gb_420"/>
<path d="M242.5,877.3v-15l-.5,-2.1v-15l-.9,-2.2V828.1l-.2,-.3h-15l-.7,-1.9v-15l-.4,-2.1v-15l-.7,-2.1v-15l-.3,-.4h-15l-.6,-1.8v-15l-.7,-2.1v-15l-.6,-2.1v-15l-.2,-.5h-15l-.4,-1.7v-15l-.5,-2.1V691l-.6,-2.1v-15l1.5,-1.6h15l2.1,.7h15l2.1,.4h15l1.6,.5v15l.6,.3H258l2.2,.5h15l2.1,.7h15l2,.6v15l.1,.1h15l2.2,.8h15l2.1,.5h15l1.7,.7v15l.4,.4h15l2.2,.6h14.9l2.2,.6h15l.8,.6v32.1l-.8,.6h-15l-2.2,1.4H363l-.2,.1v15l-2,2h-15l-.1,.2v15l.1,.1h15l2.1,2v15l.1,.1h14.9l1.9,2v15l.3,.3h15l.8,1.9V843l-.8,1.1h-15l-1.1,1.1v15l-1.1,1.1H363l-1.1,1v15l-1.1,.8h-15l-1.6,-.8v-15l-.5,-.4h-15l-1.9,-1.7v-15l-.2,-.2h-15l-1.9,-2V828.1l-.3,-.3h-15l-.2,.3V843l-1.9,2h-15l-.2,.2v15l-1.3,2.1v15l-.6,.8H243.1l-.6,-.8Zm.6,1h32.1l.8,-1v-15l1.3,-2h15l.1,-.1v-15l2,-2.1h15l2.1,2.1v15l.1,.1h15l2.1,1.9h15l.1,.1v15l2,.9h15l1.4,-.9v-15l.8,-.8h14.9l1.3,-1.3v-15l.9,-.9h15L396,843V828.1l-.9,-2.2v-15h-15l-2,-2.1v-15l-.2,-.2H363l-2,-1.9v-15l2,-2.1h14.9l.2,-.1v-15l2,-1.3h15l1,-.8v-15l.1,-2.1v-15l-1.1,-.7h-15l-2.2,-.7H363l-2.2,-.7h-15l-.1,-.1v-15l-2,-.8h-15l-2.1,-.6h-15l-1.8,-.7V691l-.4,-.1h-15l-2.1,-.7h-15l-2.1,-.7h-15l-2.2,-.6H243.1v-15l-2.2,-.6h-15l-2.1,-.5h-15l-2.1,-.7h-15l-1.8,1.8v15l.7,2.1v15l.5,2.1v15l.5,2.2v15l.1,.2h15l.6,1.9v15l.7,2.1v15l.8,2.2v15h15l.8,2.1v15l.5,2.1v15l.8,2.2v15.1h15l.9,2v15l.6,2.1v15l.7,1Z" class="gc_420"/>
<path d="M242.7,877.3v-15l-.5,-2.1v-15l-.7,-2.2V828.1l-.6,-.7h-15l-.5,-1.5v-15l-.4,-2.1v-15l-.6,-2.1v-15l-.6,-.9h-15l-.5,-1.3v-15l-.6,-2.1v-15l-.5,-2.1v-15l-.5,-1.3h-15l-.2,-.9v-15l-.6,-2.1V691l-.5,-2.1v-15l1.3,-1.3h15l2.1,.5h15l2.1,.5h15l1,.3v15l1.2,.6H258l2.2,.5h15l2.1,.5h15l1.5,.5v15l.6,.5h15l2.2,.6h15l2.1,.4h15l1.4,.6v15l.7,.7h15l2.2,.5h15l2.1,.6h15l.6,.4v32.1l-.6,.5h-15L378,759H363l-.6,.5v15l-1.6,1.6h-15l-.4,.6v15l.4,.4h15l1.7,1.7v15l.5,.4h15l1.5,1.7v15l.6,.7h15l.6,1.5V843l-.6,.8h-15l-1.4,1.4v15l-.7,.8H363l-1.3,1.3v15l-.9,.6h-15l-1.3,-.6v-15l-.8,-.7h-15l-1.6,-1.4v-15l-.5,-.6h-15L310,843V828.1l-.6,-.6h-15l-.6,.6V843l-1.5,1.6h-15l-.5,.6v15l-1.2,2.1v15l-.4,.6h-15l-2.2,-.1H243.1l-.4,-.5Zm.4,.8h32.1l.6,-.8v-15l1.3,-2.1v-15l.2,-.2h15l1.9,-2V828.1l.2,-.3h15l.3,.3V843l1.9,2h15l.2,.2v15l1.9,1.7h15l.5,.4v15l1.6,.8h15l1.1,-.8v-15l1.1,-1h15l1,-1.1v-15l1.1,-1.1h15l.8,-1.1V828.1l-.8,-1.9h-15l-.3,-.3v-15l-1.8,-2H363l-.1,-.1v-15l-2.1,-2h-15l-.1,-.1v-15l.1,-.2h15l2,-2v-15l.2,-.1h15l2.1,-1.4h15l.8,-.6V725.3l-.8,-.6h-15l-2.1,-.6H363l-2.2,-.6h-15l-.4,-.4v-15l-1.7,-.7h-15l-2.1,-.5h-15l-2.2,-.8h-15l-.1,-.1V691l-2,-.6h-15l-2.1,-.7h-15l-2.2,-.5H243.1l-.6,-.3v-15l-1.6,-.5h-15l-2.1,-.4h-15l-2.1,-.7h-15l-1.5,1.6v15l.6,2.1v15l.5,2.1v15l.4,1.7h15l.2,.5v15l.6,2.1v15l.7,2.1v15l.6,1.8h15l.3,.4v15l.7,2.1v15l.4,2.1v15l.7,1.9h15l.2,.3V843l.9,2.2v15l.5,2.1v15l.6,.8Z" class="gd_420"/>
<path d="M242.9,877.3v-15l-.5,-2.1v-15l-.6,-2.2V828.1l-.9,-1.1h-15l-.4,-1.1v-15l-.3,-2.1v-15l-.5,-2.1v-15l-.9,-1.3h-15l-.3,-.9v-15l-.6,-2.1v-15l-.4,-2.1v-15l-.8,-2h-15l-.1,-.2v-15l-.5,-2.1V691l-.4,-2.1v-15l1,-1.1h15l2.1,.5h15l2.1,.5h15l.4,.1v15l1.8,.9H258l2.2,.4h15l2.1,.5h15l1.1,.3v15l1,.8h15l2.2,.5h15l2.1,.4h15l1,.4v15l1.1,1h15l2.2,.4h15l2.1,.6h15l.3,.2v15l.1,2.1v15l-.4,.3h-15l-2.1,1H363l-1,.8v15l-1.2,1.2h-15l-.8,1v15l.8,.8h15l1.4,1.3v15l.8,.8h15l1.2,1.3v15l.9,1.1h15l.5,1.1V843l-.5,.6h-15l-1.6,1.6v15l-.5,.6H363l-1.5,1.5v15l-.7,.5h-15l-1,-.5v-15l-1.1,-1h-15l-1.3,-1.1v-15l-.8,-.9h-15L310.3,843V828.1l-.9,-.9h-15l-.9,.9V843l-1.2,1.2h-15l-.8,1v15l-1,2.1v15l-.3,.4h-15l-2.2,-.1H243.1l-.2,-.3Zm.2,.5H258l2.2,.1h15l.4,-.6v-15l1.2,-2.1v-15l.5,-.6h15l1.5,-1.6V828.1l.6,-.6h15l.6,.6V843l1.6,1.6h15l.5,.6v15l1.6,1.4h15l.8,.7v15l1.3,.6h15l.9,-.6v-15L363,861h15l.7,-.8v-15l1.4,-1.4h15l.6,-.8V828.1l-.6,-1.5h-15l-.6,-.7v-15L378,809.2H363l-.5,-.4v-15l-1.7,-1.7h-15l-.4,-.4v-15l.4,-.6h15l1.6,-1.6v-15l.6,-.5h15l2.1,-1.1h15l.6,-.5V725.3l-.6,-.4h-15l-2.1,-.6H363l-2.2,-.5h-15l-.7,-.7v-15l-1.4,-.6h-15l-2.1,-.4h-15l-2.2,-.6h-15l-.6,-.5V691l-1.5,-.5h-15l-2.1,-.5h-15l-2.2,-.5H243.1l-1.2,-.6v-15l-1,-.3h-15l-2.1,-.5h-15l-2.1,-.5h-15l-1.3,1.3v15l.5,2.1v15l.6,2.1v15l.2,.9h15l.5,1.3v15l.5,2.1v15l.6,2.1v15l.5,1.3h15l.6,.9v15l.6,2.1v15l.4,2.1v15l.5,1.5h15l.6,.7V843l.7,2.2v15l.5,2.1v15l.4,.5Z" class="ge_420"/>
<path d="M243,877.3v-15l-.4,-2.1v-15l-.5,-2.2V828.1l-1.2,-1.5h-15l-.2,-.7v-15l-.3,-2.1v-15l-.4,-2.1v-15L223.8,775h-15l-.2,-.5v-15l-.4,-2.1v-15l-.4,-2.1v-15l-.7,-2.2v-15l-.4,-.4h-15l-.5,-1.7V691l-.3,-2.1v-15l.8,-.8h15l2.1,.3h15l1.9,.5v15l.2,.2h15l2.2,1H258l2.2,.3h15l2.1,.4h15l.6,.2v15l1.5,1.1h15l2.2,.4h15l2.1,.3h15l.7,.3v15l1.4,1.3h15l2.2,.3h15l2.1,.5h15l.1,.1v15l.1,2.1v15l-.2,.1h-15l-2.1,.9H363l-1.4,1.1v15l-.8,.8h-15l-1.1,1.4v15l1.1,1.1h15l1,1v15l1.2,1.1h15l.8,1v15l1.3,1.4h15l.3,.8V843l-.3,.4h-15l-1.8,1.8v15l-.3,.4H363l-1.7,1.7v15l-.5,.3h-15l-.6,-.3v-15L343.7,861h-15l-.9,-.8v-15L326.6,844h-15l-.9,-1V828.1l-1.3,-1.2h-15l-1.3,1.2V843l-.8,.9h-15l-1.1,1.3v15l-.9,2.1v15l-.1,.2h-15l-2.2,-.2H243Zm.1,.3H258l2.2,.1h15l.3,-.4v-15l1,-2.1v-15l.8,-1h15l1.2,-1.2V828.1l.9,-.9h15l.9,.9V843l1.3,1.3h15l.8,.9v15l1.3,1.1h15l1.1,1v15l1,.5h15l.7,-.5v-15l1.5,-1.5h15l.5,-.6v-15l1.6,-1.6h15l.5,-.6V828.1l-.5,-1.1h-15l-.9,-1.1v-15L378,809.6H363l-.8,-.8v-15l-1.4,-1.3h-15l-.8,-.8v-15l.8,-1h15l1.2,-1.2v-15l1,-.8h15l2.1,-1h15l.4,-.3v-15l-.1,-2.1v-15l-.3,-.2h-15l-2.1,-.6H363l-2.2,-.4h-15l-1.1,-1v-15l-1,-.4h-15l-2.1,-.4h-15l-2.2,-.5h-15l-1,-.8V691l-1.1,-.3h-15l-2.1,-.5h-15l-2.2,-.4H243.1l-1.8,-.9v-15l-.4,-.1h-15l-2.1,-.5h-15l-2.1,-.5h-15l-1,1.1v15l.4,2.1v15l.5,2.1v15l.1,.2h15l.8,2v15l.4,2.1v15l.6,2.1v15l.3,.9h15l.9,1.3v15l.5,2.1v15l.3,2.1v15l.4,1.1h15l.9,1.1V843l.6,2.2v15l.5,2.1v15l.2,.3Z" class="gf_420"/>
<path d="M345.5,877.3v-15l-1.8,-1.6h-15l-.6,-.5v-15l-1.5,-1.6h-15L311,843V828.1l-1.6,-1.6h-15l-1.7,1.6V843l-.4,.5h-15l-1.5,1.7v15l-.6,2.1h-15l-2.2,-.7H243.1l-.3,-1.4v-15l-.4,-2.2V828.1l-1.5,-1.9h-15l-.1,-.3v-15l-.2,-2.1v-15l-.3,-2.1v-15l-1.5,-2.2v-15h-15l-.4,-2.1v-15l-.2,-2.1v-15l-.5,-2.2v-15l-1,-1h-15l-.3,-1.1V691l-.2,-2.1v-15l.5,-.5h15l2.1,.2h15l1.2,.3v15l.9,.8h15l2.2,.7H258l2.2,.2h15l2.1,.4h15.2v15l1.9,1.5h15l2.2,.3h15l2.1,.2h15l.3,.1v15l1.8,1.6h15l2.2,.2h15l1.5,.4v15l.6,2.1v15L378,758H363l-1.7,1.5v15l-.5,.5h-15l-1.4,1.7v15l1.4,1.5h15l.7,.6v15l1.5,1.5h15l.5,.6v15l1.6,1.8h15l.1,.4V843l-.1,.2h-15l-2,2v15l-.1,.2H363l-2,1.9v15l-.2,.2h-15l-.3,-.2Zm-102.4,0H258l2.2,.2h15l.1,-.2v-15l.9,-2.1v-15l1.1,-1.3h15l.8,-.9V828.1l1.3,-1.2h15l1.3,1.2V843l.9,1h15l1.2,1.2v15l.9,.8h15l1.5,1.3v15l.6,.3h15l.5,-.3v-15l1.7,-1.7h15l.3,-.4v-15l1.8,-1.8h15l.3,-.4V828.1l-.3,-.8h-15l-1.3,-1.4v-15l-.8,-1H363l-1.2,-1.1v-15l-1,-1h-15l-1.1,-1.1v-15l1.1,-1.4h15l.8,-.8v-15l1.4,-1.1h15l2.1,-.9h15l.2,-.1v-15l-.1,-2.1v-15l-.1,-.1h-15l-2.1,-.5H363l-2.2,-.3h-15l-1.4,-1.3v-15l-.7,-.3h-15l-2.1,-.3h-15l-2.2,-.4h-15L292.9,706V691l-.6,-.2h-15l-2.1,-.4h-15l-2.2,-.3H243.1l-2.2,-1h-15l-.2,-.2v-15l-1.9,-.5h-15l-2.1,-.3h-15l-.8,.8v15l.3,2.1v15l.5,1.7h15l.4,.4v15l.7,2.2v15l.4,2.1v15l.4,2.1v15l.2,.5h15l1.2,1.7v15l.4,2.1v15l.3,2.1v15l.2,.7h15l1.2,1.5V843l.5,2.2v15l.4,2.1v15h.1Z" class="gg_420"/>
<path d="M243,860.2v-15l-.2,-2.2V828.1l-1.5,-2.2v-15l-.4,-.4h-15l-.1,-1.7v-15l-.2,-2.1v-15l-.7,-2.2v-15l-1.1,-1.1h-15l-.2,-1v-15l-.1,-2.1v-15l-.2,-2.2v-15l-1.6,-1.6h-15l-.2,-.5V691l-.1,-2.1v-15l.3,-.3h15l2.1,.1h15l.6,.2v15l1.5,1.5h15l2.2,.3H258l2.2,.1h15l1.3,.2v15l.8,.9h15l2.1,.9h15l2.2,.2h15l2.1,.1h15v15l2.1,1.9h15l2.2,.1h14.9l.6,.2v15l.5,2.1v15l-1.1,.3H363l-2.1,1.8v15l-.1,.1h-15l-1.8,2.1v15l1.8,1.8h15l.3,.3v15l1.9,1.9h14.9l.3,.2v15l1.9,2.2V843l-2.2,1.9H363l-.3,.3v15l-1.9,2.1h-15l-2.1,-1.9h-15l-.2,-.2v-15l-1.9,-1.9h-15l-.3,-.3V828.1l-1.9,-1.9h-15l-2,1.9V843l-.1,.1h-15l-1.8,2.1v15l-.3,1h-15l-2.2,-.5H243.1l-.1,-.5Zm102.8,17.3h15l.2,-.2v-15l2,-1.9h14.9l.2,-.2v-15l2,-2h15l.1,-.2V828.1l-.1,-.4h-15l-1.6,-1.8v-15l-.6,-.6H363l-1.5,-1.5v-15l-.7,-.6h-15l-1.5,-1.5v-15l1.5,-1.7h15l.5,-.5v-15L363,758h14.9l2.2,-.6v-15l-.6,-2.1v-15l-1.6,-.4H363l-2.2,-.2h-15L344,723.1v-15l-.3,-.1h-15l-2.1,-.2h-15l-2.2,-.3h-15L292.5,706V691H277.3l-2.1,-.4h-15l-2.2,-.2H243.1l-2.2,-.7h-15l-.9,-.8v-15l-1.2,-.3h-15l-2.1,-.2h-15l-.5,.5v15l.2,2.1v15l.3,1.1h15l1,1v15l.5,2.2v15l.2,2.1v15l.4,2.1h15v15l1.5,2.2v15l.3,2.1v15l.2,2.1v15l.1,.3h15l1.5,1.9V843l.4,2.2v15l.3,1.4H258l2.2,.7h15l.6,-2.1v-15l1.5,-1.7h15l.4,-.5V828.1l1.7,-1.6h15l1.6,1.6V843l.6,.6h15l1.5,1.6v15l.6,.5h15l1.8,1.6v15l.3,.2Z" class="g1_420"/>
<path d="M157.4,911.6v2.6" class="gh_420"/>
<path d="M157.4,917c.6,0,1.1,.3,1.4,.8c.4,.5,.5,1.2,.5,2.1c0,.9,-.1,1.7,-.5,2.1c-.3,.5,-.8,.8,-1.4,.8c-.6,0,-1.1,-.3,-1.4,-.8c-.3,-.4,-.5,-1.2,-.5,-2.1c0,-.9,.2,-1.6,.5,-2.1c.3,-.5,.8,-.8,1.4,-.8Zm0,.6c-.4,0,-.7,.2,-.9,.6c-.2,.4,-.3,.9,-.3,1.7c0,.8,.1,1.3,.3,1.7c.2,.4,.5,.6,.9,.6c.4,0,.7,-.2,.9,-.6c.2,-.4,.3,-.9,.3,-1.7c0,-.8,-.1,-1.3,-.3,-1.7c-.2,-.4,-.5,-.6,-.9,-.6Z" class="gi_420"/>
<path d="M191.4,911.6v2.6" class="gh_420"/>
<path d="M190.4,922h2.7v.7h-3.6V922c.3,-.3,.7,-.6,1.2,-1.1c.5,-.5,.8,-.9,.9,-1c.3,-.3,.4,-.5,.5,-.7c.1,-.2,.2,-.4,.2,-.5c0,-.3,-.1,-.6,-.3,-.8c-.2,-.2,-.5,-.2,-.8,-.2c-.3,0,-.5,0,-.8,.1c-.2,.1,-.5,.2,-.8,.4v-.8c.3,-.1,.6,-.2,.8,-.3c.3,0,.5,-.1,.7,-.1c.6,0,1.1,.2,1.4,.5c.4,.2,.5,.6,.5,1.1c0,.2,0,.5,-.1,.7c-.1,.2,-.2,.4,-.5,.7c0,.1,-.2,.3,-.6,.6c-.3,.3,-.8,.8,-1.4,1.4Z" class="gi_420"/>
<path d="M225.4,911.6v2.6" class="gh_420"/>
<path d="M225.7,917.1h.9v3.6h.8v.7h-.8v1.3h-.8v-1.3h-2.5v-.8l2.4,-3.5Zm.1,.7l-1.8,2.9h1.8v-2.9Z" class="gi_420"/>
<path d="M259.4,911.6v2.6" class="gh_420"/>
<path d="M261,917.2v.7c-.2,-.1,-.4,-.1,-.6,-.2c-.2,0,-.4,0,-.6,0c-.5,0,-.9,.1,-1.1,.5c-.3,.3,-.4,.8,-.5,1.5c.2,-.2,.4,-.4,.6,-.5c.2,-.1,.5,-.2,.7,-.2c.6,0,1,.2,1.3,.5c.4,.4,.5,.8,.5,1.4c0,.6,-.1,1,-.5,1.4c-.3,.3,-.8,.5,-1.3,.5c-.7,0,-1.2,-.3,-1.5,-.8c-.3,-.4,-.5,-1.2,-.5,-2.1c0,-.9,.2,-1.6,.6,-2.1c.4,-.5,1,-.8,1.7,-.8c.2,0,.4,0,.6,.1c.2,0,.4,.1,.6,.1Zm-1.5,2.4c-.4,0,-.6,.1,-.8,.3c-.2,.3,-.3,.6,-.3,1c0,.4,.1,.7,.3,.9c.2,.3,.4,.4,.8,.4c.3,0,.6,-.1,.8,-.4c.2,-.2,.3,-.5,.3,-.9c0,-.4,-.1,-.7,-.3,-1c-.2,-.2,-.5,-.3,-.8,-.3Z" class="gi_420"/>
<path d="M293.4,911.6v2.6" class="gh_420"/>
<path d="M292.3,918.5c0,.3,.1,.5,.3,.7c.2,.2,.4,.2,.8,.2c.3,0,.5,0,.7,-.2c.2,-.2,.3,-.4,.3,-.7c0,-.3,-.1,-.5,-.3,-.6c-.2,-.2,-.4,-.3,-.7,-.3c-.4,0,-.6,.1,-.8,.3c-.2,.1,-.3,.3,-.3,.6Zm.3,1.2c-.3,-.1,-.5,-.2,-.7,-.4c-.2,-.3,-.3,-.5,-.3,-.8c0,-.5,.2,-.8,.5,-1.1c.3,-.2,.7,-.4,1.3,-.4c.5,0,1,.2,1.3,.4c.3,.3,.4,.6,.4,1.1c0,.3,0,.5,-.2,.8c-.2,.2,-.5,.3,-.8,.4c.4,.1,.7,.3,.9,.5c.2,.3,.3,.6,.3,.9c0,.6,-.2,1,-.5,1.3c-.3,.2,-.8,.4,-1.4,.4c-.6,0,-1.1,-.2,-1.4,-.4c-.4,-.3,-.5,-.7,-.5,-1.3c0,-.3,.1,-.6,.3,-.9c.2,-.2,.5,-.4,.8,-.5Zm.8,.3c-.4,0,-.7,.1,-.9,.3c-.2,.2,-.3,.5,-.3,.8c0,.3,.1,.6,.3,.8c.2,.2,.5,.3,.9,.3c.3,0,.6,-.1,.8,-.3c.2,-.2,.3,-.5,.3,-.8c0,-.3,-.1,-.6,-.3,-.8c-.2,-.2,-.5,-.3,-.8,-.3Z" class="gi_420"/>
<path d="M327.4,911.6v2.6" class="gh_420"/>
<path d="M323.5,922h1.2v-4.2l-1.3,.3v-.7l1.3,-.3h.7V922h1.3v.7h-3.2V922Z" class="gi_420"/>
<path d="M329.8,917c.6,0,1.1,.3,1.4,.8c.3,.5,.5,1.2,.5,2.1c0,.9,-.2,1.7,-.5,2.1c-.3,.5,-.8,.8,-1.4,.8c-.6,0,-1.1,-.3,-1.4,-.8c-.4,-.4,-.5,-1.2,-.5,-2.1c0,-.9,.1,-1.6,.5,-2.1c.3,-.5,.8,-.8,1.4,-.8Zm0,.6c-.4,0,-.7,.2,-.9,.6c-.2,.4,-.3,.9,-.3,1.7c0,.8,.1,1.3,.3,1.7c.2,.4,.5,.6,.9,.6c.4,0,.7,-.2,.9,-.6c.2,-.4,.3,-.9,.3,-1.7c0,-.8,-.1,-1.3,-.3,-1.7c-.2,-.4,-.5,-.6,-.9,-.6Z" class="gi_420"/>
<path d="M361.4,911.6v2.6" class="gh_420"/>
<path d="M357.5,922h1.2v-4.2l-1.4,.3v-.7l1.4,-.3h.7V922h1.3v.7h-3.2V922Z" class="gi_420"/>
<path d="M362.8,922h2.6v.7h-3.5V922c.3,-.3,.7,-.6,1.2,-1.1c.5,-.5,.8,-.9,.9,-1c.2,-.3,.4,-.5,.5,-.7c.1,-.2,.2,-.4,.2,-.5c0,-.3,-.1,-.6,-.4,-.8c-.2,-.2,-.4,-.2,-.8,-.2c-.2,0,-.4,0,-.7,.1c-.3,.1,-.6,.2,-.8,.4v-.8c.3,-.1,.5,-.2,.8,-.3c.3,0,.5,-.1,.7,-.1c.6,0,1.1,.2,1.4,.5c.3,.2,.5,.6,.5,1.1c0,.2,0,.5,-.1,.7c-.1,.2,-.3,.4,-.5,.7c0,.1,-.2,.3,-.6,.6c-.3,.3,-.8,.8,-1.4,1.4Z" class="gi_420"/>
<path d="M395.3,911.6v2.6" class="gh_420"/>
<path d="M391.4,922h1.3v-4.2l-1.4,.3v-.7l1.4,-.3h.7V922h1.2v.7h-3.2V922Z" class="gi_420"/>
<path d="M398,917.1h1v3.6h.8v.7H399v1.3h-.8v-1.3h-2.5v-.8l2.3,-3.5Zm.2,.7l-1.9,2.9h1.9v-2.9Z" class="gi_420"/>
<path d="M429.3,911.6v2.6" class="gh_420"/>
<path d="M425.4,922h1.3v-4.2l-1.4,.3v-.7l1.4,-.3h.7V922h1.2v.7h-3.2V922Z" class="gi_420"/>
<path d="M433.3,917.2v.7c-.1,-.1,-.3,-.1,-.5,-.2c-.2,0,-.4,0,-.6,0c-.5,0,-.9,.1,-1.1,.5c-.3,.3,-.4,.8,-.5,1.5c.2,-.2,.3,-.4,.6,-.5c.2,-.1,.4,-.2,.7,-.2c.6,0,1,.2,1.3,.5c.3,.4,.5,.8,.5,1.4c0,.6,-.2,1,-.5,1.4c-.3,.3,-.8,.5,-1.3,.5c-.7,0,-1.2,-.3,-1.5,-.8c-.4,-.4,-.5,-1.2,-.5,-2.1c0,-.9,.2,-1.6,.6,-2.1c.4,-.5,1,-.8,1.7,-.8c.2,0,.4,0,.5,.1c.2,0,.4,.1,.6,.1Zm-1.4,2.4c-.4,0,-.7,.1,-.8,.3c-.2,.3,-.3,.6,-.3,1c0,.4,.1,.7,.3,.9c.1,.3,.4,.4,.8,.4c.3,0,.6,-.1,.8,-.4c.2,-.2,.2,-.5,.2,-.9c0,-.4,0,-.7,-.2,-1c-.2,-.2,-.5,-.3,-.8,-.3Z" class="gi_420"/>
<path d="M157.4,911.6h-2.7" class="gh_420"/>
<path d="M149.7,908.8c.6,0,1.1,.2,1.4,.7c.3,.5,.5,1.2,.5,2.2c0,.9,-.2,1.6,-.5,2.1c-.3,.5,-.8,.8,-1.4,.8c-.7,0,-1.1,-.3,-1.5,-.8c-.3,-.5,-.5,-1.2,-.5,-2.1c0,-1,.2,-1.7,.5,-2.2c.4,-.5,.8,-.7,1.5,-.7Zm0,.6c-.4,0,-.7,.2,-.9,.6c-.2,.3,-.3,.9,-.3,1.7c0,.7,.1,1.3,.3,1.7c.2,.4,.5,.6,.9,.6c.3,0,.6,-.2,.8,-.6c.2,-.4,.3,-1,.3,-1.7c0,-.8,-.1,-1.4,-.3,-1.7c-.2,-.4,-.5,-.6,-.8,-.6Z" class="gi_420"/>
<path d="M157.4,877.6h-2.7" class="gh_420"/>
<path d="M148.7,879.8h2.6v.7h-3.5v-.7c.3,-.3,.7,-.7,1.2,-1.2c.5,-.5,.8,-.8,.9,-.9c.2,-.3,.4,-.5,.5,-.7c.1,-.2,.1,-.4,.1,-.6c0,-.3,-.1,-.5,-.3,-.7c-.2,-.2,-.5,-.3,-.8,-.3c-.2,0,-.5,.1,-.7,.2c-.3,0,-.6,.2,-.9,.3v-.7c.3,-.1,.6,-.2,.9,-.3c.2,-.1,.5,-.1,.7,-.1c.6,0,1,.2,1.4,.4c.3,.3,.5,.7,.5,1.2c0,.2,-.1,.4,-.1,.6c-.1,.2,-.3,.5,-.5,.8c-.1,0,-.3,.2,-.6,.6c-.3,.3,-.8,.8,-1.4,1.4Z" class="gi_420"/>
<path d="M157.4,843.6h-2.7" class="gh_420"/>
<path d="M149.9,840.9h1v3.6h.8v.7h-.8v1.3h-.8v-1.3h-2.5v-.8l2.3,-3.5Zm.2,.7l-1.9,2.9h1.9v-2.9Z" class="gi_420"/>
<path d="M157.4,809.6h-2.7" class="gh_420"/>
<path d="M151.2,807v.7c-.1,-.1,-.3,-.1,-.5,-.2c-.2,0,-.4,0,-.6,0c-.5,0,-.9,.1,-1.1,.5c-.3,.3,-.4,.8,-.5,1.5c.2,-.2,.3,-.4,.6,-.5c.2,-.1,.4,-.2,.7,-.2c.6,0,1,.2,1.3,.5c.3,.4,.5,.8,.5,1.4c0,.6,-.2,1,-.5,1.4c-.3,.3,-.8,.5,-1.3,.5c-.7,0,-1.2,-.3,-1.5,-.8c-.4,-.4,-.5,-1.2,-.5,-2.1c0,-.9,.2,-1.6,.6,-2.1c.4,-.5,1,-.8,1.7,-.8c.2,0,.3,0,.5,.1c.2,0,.4,.1,.6,.1Zm-1.4,2.4c-.4,0,-.7,.1,-.9,.3c-.1,.3,-.2,.6,-.2,1c0,.4,.1,.7,.2,.9c.2,.3,.5,.4,.9,.4c.3,0,.6,-.1,.8,-.4c.1,-.2,.2,-.5,.2,-.9c0,-.4,-.1,-.7,-.2,-1c-.2,-.2,-.5,-.3,-.8,-.3Z" class="gi_420"/>
<path d="M157.4,775.6h-2.7" class="gh_420"/>
<path d="M148.6,774.3c0,.3,.1,.6,.3,.7c.2,.2,.4,.3,.8,.3c.3,0,.5,-.1,.7,-.3c.2,-.1,.3,-.4,.3,-.7c0,-.2,-.1,-.5,-.3,-.6c-.2,-.2,-.4,-.3,-.7,-.3c-.4,0,-.6,.1,-.8,.3c-.2,.1,-.3,.4,-.3,.6Zm.3,1.2c-.3,0,-.6,-.2,-.7,-.4c-.2,-.2,-.3,-.5,-.3,-.8c0,-.5,.1,-.8,.5,-1.1c.3,-.2,.7,-.4,1.3,-.4c.5,0,.9,.2,1.3,.4c.3,.3,.4,.6,.4,1.1c0,.3,-.1,.6,-.2,.8c-.2,.2,-.5,.4,-.8,.4c.4,.1,.7,.3,.9,.5c.2,.3,.3,.6,.3,.9c0,.6,-.2,1,-.5,1.3c-.4,.3,-.8,.4,-1.4,.4c-.7,0,-1.1,-.1,-1.5,-.4c-.3,-.3,-.4,-.7,-.4,-1.3c0,-.3,.1,-.6,.3,-.9c.2,-.2,.4,-.4,.8,-.5Zm.8,.3c-.4,0,-.7,.1,-.9,.3c-.2,.2,-.3,.5,-.3,.8c0,.4,.1,.6,.3,.8c.2,.2,.5,.3,.9,.3c.3,0,.6,-.1,.8,-.3c.2,-.2,.3,-.4,.3,-.8c0,-.3,-.1,-.6,-.3,-.8c-.2,-.2,-.5,-.3,-.8,-.3Z" class="gi_420"/>
<path d="M157.4,741.6h-2.7" class="gh_420"/>
<path d="M143.3,743.9h1.3v-4.3l-1.4,.3v-.7l1.4,-.3h.7v5h1.2v.6h-3.2v-.6Z" class="gi_420"/>
<path d="M149.7,738.8c.6,0,1.1,.3,1.4,.8c.3,.5,.5,1.2,.5,2.1c0,1,-.2,1.7,-.5,2.2c-.3,.5,-.8,.7,-1.4,.7c-.7,0,-1.1,-.2,-1.5,-.7c-.3,-.5,-.5,-1.2,-.5,-2.2c0,-.9,.2,-1.6,.5,-2.1c.4,-.5,.8,-.8,1.5,-.8Zm0,.6c-.4,0,-.7,.2,-.9,.6c-.2,.4,-.3,1,-.3,1.7c0,.8,.1,1.4,.3,1.7c.2,.4,.5,.6,.9,.6c.3,0,.6,-.2,.8,-.6c.2,-.3,.3,-.9,.3,-1.7c0,-.7,-.1,-1.3,-.3,-1.7c-.2,-.4,-.5,-.6,-.8,-.6Z" class="gi_420"/>
<path d="M157.4,707.6h-2.7" class="gh_420"/>
<path d="M143.3,709.9h1.3v-4.3l-1.4,.3v-.7l1.4,-.2h.7v4.9h1.2v.6h-3.2v-.6Z" class="gi_420"/>
<path d="M148.7,709.9h2.6v.6h-3.5v-.6c.3,-.3,.7,-.7,1.2,-1.2c.5,-.5,.8,-.8,.9,-1c.2,-.2,.4,-.5,.5,-.7c.1,-.2,.1,-.3,.1,-.5c0,-.3,-.1,-.6,-.3,-.7c-.2,-.2,-.5,-.3,-.8,-.3c-.2,0,-.5,0,-.7,.1c-.3,.1,-.6,.2,-.9,.4v-.8c.3,-.1,.6,-.2,.9,-.3c.2,0,.5,0,.7,0c.6,0,1,.1,1.4,.4c.3,.3,.5,.7,.5,1.1c0,.3,-.1,.5,-.1,.7c-.1,.2,-.3,.4,-.5,.7c-.1,.1,-.3,.3,-.6,.6c-.3,.4,-.8,.9,-1.4,1.5Z" class="gi_420"/>
<path d="M157.4,673.6h-2.7" class="gh_420"/>
<path d="M143.3,675.9h1.3v-4.3l-1.4,.3v-.7l1.4,-.2h.7v4.9h1.2v.6h-3.2v-.6Z" class="gi_420"/>
<path d="M149.9,671h1v3.6h.8v.6h-.8v1.3h-.8v-1.3h-2.5v-.7l2.3,-3.5Zm.2,.6l-1.9,3h1.9v-3Z" class="gi_420"/>
<path d="M157.4,639.6h-2.7" class="gh_420"/>
<path d="M143.3,641.9h1.3v-4.2l-1.4,.2v-.7l1.4,-.2h.7v4.9h1.2v.6h-3.2v-.6Z" class="gi_420"/>
<path d="M151.2,637.1v.7c-.1,-.1,-.3,-.2,-.5,-.2c-.2,-.1,-.4,-.1,-.6,-.1c-.5,0,-.9,.2,-1.1,.5c-.3,.3,-.4,.8,-.5,1.5c.2,-.2,.3,-.4,.6,-.5c.2,-.1,.4,-.1,.7,-.1c.6,0,1,.1,1.3,.5c.3,.3,.5,.8,.5,1.3c0,.6,-.2,1.1,-.5,1.4c-.3,.4,-.8,.5,-1.3,.5c-.7,0,-1.2,-.2,-1.5,-.7c-.4,-.5,-.5,-1.2,-.5,-2.1c0,-.9,.2,-1.6,.6,-2.1c.4,-.6,1,-.8,1.7,-.8c.2,0,.3,0,.5,0c.2,.1,.4,.1,.6,.2Zm-1.4,2.3c-.4,0,-.7,.2,-.9,.4c-.1,.2,-.2,.5,-.2,.9c0,.4,.1,.8,.2,1c.2,.2,.5,.3,.9,.3c.3,0,.6,-.1,.8,-.3c.1,-.2,.2,-.6,.2,-1c0,-.4,-.1,-.7,-.2,-.9c-.2,-.2,-.5,-.4,-.8,-.4Z" class="gi_420"/>
<path d="M157.4,911.6v-272m271.9,272v-272m-271.9,272H429.3M157.4,639.6H429.3" class="gj_420"/>
</svg>