<?xml version="1.0" encoding="UTF-8" standalone="no"?>
<!DOCTYPE svg PUBLIC "-//W3C//DTD SVG 1.1//EN"
"http://www.w3.org/Graphics/SVG/1.1/DTD/svg11.dtd">
<svg viewBox="0 0 811 1017" version="1.1" xmlns="http://www.w3.org/2000/svg" xmlns:xlink="http://www.w3.org/1999/xlink">
<defs>
<style type="text/css"><![CDATA[
.g0_441{
fill: #040504;
}
.g1_441{
fill: #E2F4FC;
}
.g2_441{
fill: #FFF;
}
.g3_441{
fill: #211E1E;
}
]]></style>
</defs>
<path d="M138.8,794.1V271.6h18.7v-.7H138.1V794.1h.7Z" class="g0_441"/>
<path d="M156,273.4l8.2,-2.2L156,269v4.4Z" class="g0_441"/>
<path d="M138.1,794.2H316.2v-.7H138.1Z" class="g0_441"/>
<path d="M164.7,365.7H400.5V157.8H164.7Z" class="g1_441"/>
<path d="M400.5,365.7v-.3H165.1V158.2h235V365.7h.4v-.3v.3h.4V157.4H164.4V366.1H400.9v-.4h-.4Z" class="g0_441"/>
<path d="M173.7,276.1c0,-5.6,4.8,-10.3,10.6,-10.3H380.9c5.9,0,10.6,4.7,10.6,10.3v41.1c0,5.8,-4.7,10.3,-10.6,10.3H184.3c-5.8,0,-10.6,-4.5,-10.6,-10.3V276.1Z" class="g2_441"/>
<path d="M173.7,276.1h.4c0,-2.7,1.1,-5.2,3,-7c1.8,-1.8,4.4,-2.9,7.2,-2.9H380.9c5.7,0,10.2,4.5,10.2,9.9v41.1c0,5.6,-4.5,10,-10.2,10H184.3c-2.8,0,-5.4,-1.1,-7.2,-2.9c-1.9,-1.8,-3,-4.3,-3,-7.1V276.1h-.7v41.1c-.1,3,1.2,5.7,3.2,7.6c1.9,1.9,4.7,3.1,7.7,3.1H380.9c3.1,0,5.8,-1.2,7.8,-3.1c2,-1.9,3.2,-4.6,3.2,-7.6V276.1c0,-2.9,-1.2,-5.6,-3.2,-7.5c-2,-1.9,-4.7,-3.1,-7.8,-3.1H184.3c-6,0,-10.9,4.7,-10.9,10.6h.3Z" class="g3_441"/>
<path d="M173.7,210.1c0,-5.6,4.8,-10.3,10.6,-10.3H380.9c5.9,0,10.6,4.7,10.6,10.3v41.1c0,5.8,-4.7,10.3,-10.6,10.3H184.3c-5.8,0,-10.6,-4.5,-10.6,-10.3V210.1Z" class="g2_441"/>
<path d="M173.7,210.1h.4c0,-2.7,1.1,-5.2,3,-7c1.8,-1.8,4.4,-2.9,7.2,-2.9H380.9c5.7,0,10.2,4.5,10.2,9.9v41.1c0,5.6,-4.5,9.9,-10.2,9.9H184.3c-2.8,0,-5.4,-1,-7.2,-2.8c-1.9,-1.8,-3,-4.3,-3,-7.1V210.1h-.7v41.1c-.1,3,1.2,5.7,3.2,7.6c1.9,1.9,4.7,3.1,7.7,3.1H380.9c3.1,0,5.8,-1.2,7.8,-3.1c2,-1.9,3.2,-4.6,3.2,-7.6V210.1c0,-2.9,-1.2,-5.6,-3.2,-7.5c-2,-2,-4.7,-3.2,-7.8,-3.2H184.3c-6,0,-10.9,4.8,-10.9,10.7h.3Z" class="g3_441"/>
<path d="M460.8,365.7H696.6V157.8H460.8Z" class="g1_441"/>
<path d="M696.6,365.7v-.3H461.2V158.2h235V365.7h.4v-.3v.3h.3V157.4H460.4V366.1H696.9v-.4h-.3Z" class="g0_441"/>
<path d="M469.8,275.8c0,-5.6,4.8,-10.3,10.6,-10.3H677c5.9,0,10.6,4.7,10.6,10.3v41.1c0,5.8,-4.7,10.3,-10.6,10.3H480.4c-5.8,0,-10.6,-4.5,-10.6,-10.3V275.8Z" class="g2_441"/>
<path d="M469.8,275.8h.4c0,-2.7,1.1,-5.2,3,-7c1.8,-1.8,4.4,-2.9,7.2,-2.9H677c5.7,0,10.2,4.5,10.2,9.9v41.1c0,5.6,-4.5,10,-10.2,10H480.4c-2.8,0,-5.4,-1.1,-7.2,-2.9c-1.9,-1.8,-3,-4.3,-3,-7.1V275.8h-.8v41.1c0,3,1.3,5.7,3.2,7.6c2,1.9,4.8,3.1,7.8,3.1H677c3.1,0,5.8,-1.2,7.8,-3.1c1.9,-1.9,3.1,-4.6,3.1,-7.6V275.8c0,-2.9,-1.2,-5.6,-3.1,-7.5c-2,-1.9,-4.7,-3.1,-7.8,-3.1H480.4c-6.1,0,-11,4.7,-11,10.6h.4Z" class="g3_441"/>
<path d="M469.8,210.1c0,-5.6,4.8,-10.3,10.6,-10.3H677c5.9,0,10.6,4.7,10.6,10.3v41.1c0,5.8,-4.7,10.3,-10.6,10.3H480.4c-5.8,0,-10.6,-4.5,-10.6,-10.3V210.1Z" class="g2_441"/>
<path d="M469.8,210.1h.4c0,-2.7,1.1,-5.2,3,-7c1.8,-1.8,4.4,-2.9,7.2,-2.9H677c5.7,0,10.2,4.5,10.2,9.9v41.1c0,5.6,-4.5,9.9,-10.2,9.9H480.4c-2.8,0,-5.4,-1,-7.2,-2.8c-1.9,-1.8,-3,-4.3,-3,-7.1V210.1h-.8v41.1c0,3,1.3,5.7,3.2,7.6c2,1.9,4.8,3.1,7.8,3.1H677c3.1,0,5.8,-1.2,7.8,-3.1c1.9,-1.9,3.1,-4.6,3.1,-7.6V210.1c0,-2.9,-1.2,-5.6,-3.1,-7.5c-2,-2,-4.7,-3.2,-7.8,-3.2H480.4c-6.1,0,-11,4.8,-11,10.7h.4Z" class="g3_441"/>
<path d="M314.1,631.2H549.8V423.3H314.1Z" class="g1_441"/>
<path d="M549.8,631.2v-.4H314.5V423.6h235V631.2h.3v-.4v.4h.4V422.9H313.7V631.6H550.2v-.4h-.4Z" class="g0_441"/>
<path d="M323.1,541c0,-5.7,4.7,-10.3,10.6,-10.3H530.3c5.9,0,10.5,4.6,10.5,10.3v41.1c0,5.8,-4.6,10.3,-10.5,10.3H333.7c-5.9,0,-10.6,-4.5,-10.6,-10.3V541Z" class="g2_441"/>
<path d="M323.1,541h.4c0,-2.7,1.1,-5.2,3,-7c1.8,-1.8,4.3,-2.9,7.2,-2.9H530.3c5.7,0,10.2,4.4,10.2,9.9v41.1c0,5.6,-4.5,9.9,-10.2,9.9H333.7c-2.9,0,-5.4,-1.1,-7.2,-2.9c-1.9,-1.7,-3,-4.2,-3,-7V541h-.8v41.1c0,3,1.2,5.7,3.2,7.6c2,1.9,4.7,3.1,7.8,3.1H530.3c3.1,0,5.8,-1.2,7.8,-3.1c1.9,-1.9,3.1,-4.6,3.1,-7.6V541c0,-2.9,-1.2,-5.6,-3.1,-7.5c-2,-2,-4.7,-3.2,-7.8,-3.2H333.7c-6.1,0,-11,4.8,-11,10.7h.4Z" class="g3_441"/>
<path d="M323.1,473.8c0,-5.7,4.7,-10.3,10.6,-10.3H530.3c5.9,0,10.5,4.6,10.5,10.3v41.1c0,5.7,-4.6,10.3,-10.5,10.3H333.7c-5.9,0,-10.6,-4.6,-10.6,-10.3V473.8Z" class="g2_441"/>
<path d="M323.1,473.8h.4c0,-2.8,1.1,-5.2,3,-7c1.8,-1.8,4.3,-3,7.2,-3H530.3c5.7,0,10.2,4.5,10.2,10v41.1c0,5.5,-4.5,9.9,-10.2,9.9H333.7c-2.9,0,-5.4,-1.1,-7.2,-2.9c-1.9,-1.8,-3,-4.3,-3,-7V473.8h-.8v41.1c0,3,1.2,5.6,3.2,7.6c2,1.9,4.7,3,7.8,3H530.3c3.1,0,5.8,-1.1,7.8,-3c1.9,-2,3.1,-4.6,3.1,-7.6V473.8c0,-3,-1.2,-5.7,-3.1,-7.6c-2,-1.9,-4.7,-3.1,-7.8,-3.1H333.7c-6.1,0,-11,4.8,-11,10.7h.4Z" class="g3_441"/>
<path d="M314.1,896.2H549.8v-208H314.1Z" class="g1_441"/>
<path d="M549.8,896.2v-.4H314.5V688.6h235V896.2h.3v-.4v.4h.4V687.8H313.7V896.5H550.2v-.3h-.4Z" class="g0_441"/>
<path d="M323.1,807.8c0,-5.7,4.7,-10.3,10.6,-10.3H530.3c5.9,0,10.5,4.6,10.5,10.3v41.1c0,5.7,-4.6,10.3,-10.5,10.3H333.7c-5.9,0,-10.6,-4.6,-10.6,-10.3V807.8Z" class="g2_441"/>
<path d="M323.1,807.8h.4c0,-2.8,1.1,-5.2,3,-7c1.8,-1.8,4.3,-2.9,7.2,-2.9H530.3c5.7,0,10.2,4.4,10.2,9.9v41.1c0,5.5,-4.5,9.9,-10.2,9.9H333.7c-2.9,0,-5.4,-1.1,-7.2,-2.9c-1.9,-1.8,-3,-4.2,-3,-7V807.8h-.8v41.1c0,3,1.2,5.6,3.2,7.6c2,1.9,4.7,3.1,7.8,3.1H530.3c3.1,0,5.8,-1.2,7.8,-3.1c1.9,-2,3.1,-4.6,3.1,-7.6V807.8c0,-3,-1.2,-5.6,-3.1,-7.6c-2,-1.9,-4.7,-3.1,-7.8,-3.1H333.7c-6.1,0,-11,4.8,-11,10.7h.4Z" class="g3_441"/>
<path d="M323.1,739.6c0,-5.7,4.7,-10.3,10.6,-10.3H530.3c5.9,0,10.5,4.6,10.5,10.3v41.1c0,5.8,-4.6,10.3,-10.5,10.3H333.7c-5.9,0,-10.6,-4.5,-10.6,-10.3V739.6Z" class="g2_441"/>
<path d="M323.1,739.6h.4c0,-2.7,1.1,-5.2,3,-7c1.8,-1.8,4.3,-2.9,7.2,-2.9H530.3c5.7,0,10.2,4.4,10.2,9.9v41.1c0,5.6,-4.5,9.9,-10.2,9.9H333.7c-2.9,0,-5.4,-1.1,-7.2,-2.9c-1.9,-1.7,-3,-4.2,-3,-7V739.6h-.8v41.1c0,3,1.2,5.7,3.2,7.6c2,1.9,4.7,3.1,7.8,3.1H530.3c3.1,0,5.8,-1.2,7.8,-3.1c1.9,-1.9,3.1,-4.6,3.1,-7.6V739.6c0,-2.9,-1.2,-5.6,-3.1,-7.5c-2,-2,-4.7,-3.2,-7.8,-3.2H333.7c-6.1,0,-11,4.8,-11,10.7h.4Z" class="g3_441"/>
<path d="M578.9,365.4V529.9h-20v.7h20.8V365.4h-.8Z" class="g0_441"/>
<path d="M560.4,528l-8.3,2.2l8.3,2.2V528Z" class="g0_441"/>
<path d="M552,507.2h55V490.7H552Z" class="g2_441"/>
<path d="M556.5,501.6h45.7v-7.9H556.5Z" class="g2_441"/>
<path d="M283.8,365.4V529.9h20.8v-.8h-20V365.4h-.8Z" class="g0_441"/>
<path d="M303.1,531.7l8.3,-2.2l-8.3,-2.2v4.4Z" class="g0_441"/>
<path d="M255.6,507.2h55V490.7h-55Z" class="g2_441"/>
<path d="M261.1,501.6h44.3v-7.9H261.1Z" class="g2_441"/>
<path d="M429.1,421.8V265H408.3v.8h20.1v156h.7Z" class="g0_441"/>
<path d="M409.8,263.2l-8.2,2.2l8.2,2.2v-4.4Z" class="g0_441"/>
<path d="M401.4,307.7h55V287h-55Z" class="g2_441"/>
<path d="M406.6,300.1h45.6v-8H406.6Z" class="g2_441"/>
<path d="M110.3,307.7h48V287h-48Z" class="g2_441"/>
<path d="M118.6,300.1h39.5v-8H118.6Z" class="g2_441"/>
<path d="M431.6,679.2h.7V630.4h-.7Z" class="g0_441"/>
<path d="M434.2,677.7l-2.2,8.2l-2.2,-8.2h4.4Z" class="g0_441"/>
<path d="M404.5,666.4h55V649.9h-55Z" class="g2_441"/>
<path d="M409.2,660.9h45.7V653H409.2Z" class="g2_441"/>
</svg>