<?xml version="1.0" encoding="UTF-8" standalone="no"?>
<!DOCTYPE svg PUBLIC "-//W3C//DTD SVG 1.1//EN"
"http://www.w3.org/Graphics/SVG/1.1/DTD/svg11.dtd">
<svg viewBox="0 0 811 1017" version="1.1" xmlns="http://www.w3.org/2000/svg" xmlns:xlink="http://www.w3.org/1999/xlink">
<defs>
<style type="text/css"><![CDATA[
.g0_262{
fill: #0E0E0E;
}
.g1_262{
fill: #FFF;
}
.g2_262{
fill: #1A78B6;
}
.g3_262{
fill: none;
stroke: #1A78B6;
stroke-width: 1.045;
stroke-linejoin: round;
}
.g4_262{
fill: none;
stroke: #B0B2B1;
stroke-width: 0.835;
stroke-linecap: square;
stroke-linejoin: round;
}
.g5_262{
fill: none;
stroke: #040504;
stroke-width: 0.835;
stroke-linejoin: round;
}
.g6_262{
fill: #040504;
}
.g7_262{
fill: none;
stroke: #1A78B6;
stroke-width: 1.567;
stroke-linecap: square;
stroke-linejoin: round;
}
.g8_262{
fill: none;
stroke: #040504;
stroke-width: 0.835;
stroke-linecap: square;
}
]]></style>
</defs>
<path d="M147.2,161.6c-2.2,-2.5,-2.8,-8.8,-2.8,-12.9c0,-4.1,.6,-10.4,2.8,-12.9l-.2,-.5c-1.7,1.9,-4,6,-4,13.4c0,7.4,2.2,11.5,4,13.4l.2,-.5Z" class="g0_262"/>
<path d="M155.1,139.7v.1c.4,0,.8,.1,1,.1c.3,.2,.3,.3,.3,.8v4.7c0,.3,0,.5,0,.6c-.1,.5,-.7,.6,-1.2,.6v.2h3.5v-.2c-.4,0,-.9,0,-1.1,-.2c-.2,-.3,-.2,-.6,-.2,-1v-6.3c-.6,.3,-1.5,.5,-2.3,.6Z" class="g0_262"/>
<path d="M149.8,149.2h14v-.8h-14Z" class="g0_262"/>
<path d="M157.9,150.6h-.7l-2.5,8.5l-2.1,-4.5l-2.2,1.1l.2,.3l1.1,-.5l3,6l3.2,-10.9Z" class="g0_262"/>
<path d="M157.6,151.3h6.2v-.6h-6.2Z" class="g0_262"/>
<path d="M160.3,155.9c-.7,0,-1.1,-.5,-1.1,-1.1c0,-.8,.4,-1.7,1.3,-1.7c1.2,0,1.4,1,1.4,1.9c0,1,-.3,1.5,-.8,2.2c-.3,.4,-.6,.8,-1.1,1.3c-.5,.5,-1.1,1.1,-1.9,1.8v.3h4.6l.4,-2.1h-.3c-.1,.2,-.2,.4,-.2,.6c-.2,.3,-.5,.5,-1.1,.5h-2.1c.5,-.4,1,-.7,1.4,-1.1c.8,-.6,1.6,-1.4,2,-2.2c.2,-.4,.3,-.8,.3,-1.2c0,-.3,-.1,-.6,-.2,-.9c-.4,-.7,-1.1,-1.3,-2.2,-1.3c-.8,0,-1.4,.3,-1.8,.6c-.4,.3,-.7,.8,-.7,1.5c0,.4,.1,.8,.4,1c.2,.3,.5,.4,.9,.4c.4,0,.7,-.2,.8,-.5Z" class="g0_262"/>
<path d="M167.1,151.8c0,.5,.3,.8,.7,.8c.2,0,.3,0,.5,-.1c0,.4,-.1,.8,-.3,1.1c-.3,.3,-.6,.6,-1.1,.9l.3,.5c.4,-.3,.6,-.5,.9,-.7c.5,-.5,.9,-1,.9,-2c0,-.8,-.3,-1.3,-.9,-1.3c-.6,0,-1,.3,-1,.8Z" class="g0_262"/>
<path d="M180.9,139.7v.1c.3,0,.8,.1,1,.1c.3,.2,.3,.3,.3,.8v4.7c0,.3,0,.5,0,.6c-.1,.5,-.7,.6,-1.2,.6v.2h3.5v-.2c-.4,0,-1,0,-1.1,-.2c-.2,-.3,-.2,-.6,-.2,-1v-6.3c-.6,.3,-1.6,.5,-2.3,.6Z" class="g0_262"/>
<path d="M175.5,149.2h14.1v-.8H175.5Z" class="g0_262"/>
<path d="M183.7,150.6H183l-2.5,8.5l-2.2,-4.5l-2.1,1.1l.1,.3l1.2,-.5l2.9,6l3.3,-10.9Z" class="g0_262"/>
<path d="M183.3,151.3h6.3v-.6h-6.3Z" class="g0_262"/>
<path d="M186,155.9c-.7,0,-1.1,-.5,-1.1,-1.1c0,-.8,.5,-1.7,1.4,-1.7c1.2,0,1.3,1,1.3,1.9c0,1,-.2,1.5,-.7,2.2c-.3,.4,-.7,.8,-1.2,1.3c-.4,.5,-1.1,1.1,-1.8,1.8v.3h4.6l.4,-2.1h-.3c-.1,.2,-.2,.4,-.3,.6c-.1,.3,-.4,.5,-1,.5h-2.1c.4,-.4,.9,-.7,1.4,-1.1c.7,-.6,1.5,-1.4,2,-2.2c.1,-.4,.2,-.8,.2,-1.2c0,-.3,0,-.6,-.1,-.9c-.4,-.7,-1.1,-1.3,-2.3,-1.3c-.7,0,-1.3,.3,-1.7,.6c-.4,.3,-.7,.8,-.7,1.5c0,.4,.1,.8,.3,1c.2,.3,.5,.4,1,.4c.4,0,.7,-.2,.7,-.5Z" class="g0_262"/>
<path d="M192.9,151.8c0,.5,.3,.8,.7,.8c.2,0,.3,0,.4,-.1c0,.4,-.1,.8,-.3,1.1c-.2,.3,-.5,.6,-1,.9l.3,.5c.3,-.3,.6,-.5,.8,-.7c.6,-.5,1,-1,1,-2c0,-.8,-.3,-1.3,-1,-1.3c-.5,0,-.9,.3,-.9,.8Z" class="g0_262"/>
<path d="M206.7,139.7v.1c.3,0,.8,.1,1,.1c.3,.2,.3,.3,.3,.8v4.7c0,.3,0,.5,0,.6c-.1,.5,-.7,.6,-1.3,.6v.2h3.5v-.2c-.3,0,-.9,0,-1.1,-.2c-.1,-.3,-.1,-.6,-.1,-1v-6.3c-.6,.3,-1.6,.5,-2.3,.6Z" class="g0_262"/>
<path d="M201.3,149.2h14v-.8h-14Z" class="g0_262"/>
<path d="M209.4,150.6h-.6l-2.5,8.5l-2.2,-4.5l-2.1,1.1l.1,.3l1.2,-.5l2.9,6l3.2,-10.9Z" class="g0_262"/>
<path d="M209.1,151.3h6.2v-.6h-6.2Z" class="g0_262"/>
<path d="M211.8,155.9c-.7,0,-1.1,-.5,-1.1,-1.1c0,-.8,.4,-1.7,1.4,-1.7c1.2,0,1.3,1,1.3,1.9c0,1,-.3,1.5,-.7,2.2c-.3,.4,-.7,.8,-1.2,1.3c-.5,.5,-1.1,1.1,-1.9,1.8v.3h4.7l.4,-2.1h-.3c-.1,.2,-.2,.4,-.3,.6c-.1,.3,-.5,.5,-1,.5h-2.2c.5,-.4,1,-.7,1.4,-1.1c.8,-.6,1.6,-1.4,2,-2.2c.2,-.4,.3,-.8,.3,-1.2c0,-.3,-.1,-.6,-.2,-.9c-.3,-.7,-1.1,-1.3,-2.2,-1.3c-.7,0,-1.4,.3,-1.8,.6c-.3,.3,-.7,.8,-.7,1.5c0,.4,.2,.8,.4,1c.2,.3,.5,.4,.9,.4c.4,0,.7,-.2,.8,-.5Z" class="g0_262"/>
<path d="M217.9,161.6l.2,.5c1.8,-1.9,4,-6,4,-13.4c0,-7.4,-2.3,-11.5,-4,-13.4l-.2,.5c2.2,2.5,2.8,8.8,2.8,12.9c0,4.1,-.6,10.4,-2.8,12.9Z" class="g0_262"/>
<path d="M194.7,525.2H472.8V247.1H194.7Z" class="g1_262"/>
<path d="M460.1,389.3c.9,0,1.7,-.4,2.3,-1c.5,-.6,.9,-1.3,.9,-2.2c0,-.8,-.4,-1.6,-.9,-2.2c-.6,-.6,-1.4,-.9,-2.3,-.9c-.8,0,-1.6,.3,-2.2,.9c-.6,.6,-.9,1.4,-.9,2.2c0,.9,.3,1.6,.9,2.2c.6,.6,1.4,1,2.2,1Z" class="g2_262"/>
<path d="M460.1,389.3c.9,0,1.7,-.4,2.3,-1c.5,-.6,.9,-1.3,.9,-2.2c0,-.8,-.4,-1.6,-.9,-2.2c-.6,-.6,-1.4,-.9,-2.3,-.9c-.8,0,-1.6,.3,-2.2,.9c-.6,.6,-.9,1.4,-.9,2.2c0,.9,.3,1.6,.9,2.2c.6,.6,1.4,1,2.2,1Z" class="g3_262"/>
<path d="M460.1,262.8c.9,0,1.7,-.3,2.3,-.9c.5,-.6,.9,-1.4,.9,-2.2c0,-.8,-.4,-1.6,-.9,-2.2c-.6,-.6,-1.4,-.9,-2.3,-.9c-.8,0,-1.6,.3,-2.2,.9c-.6,.6,-.9,1.4,-.9,2.2c0,.8,.3,1.6,.9,2.2c.6,.6,1.4,.9,2.2,.9Z" class="g2_262"/>
<path d="M460.1,262.8c.9,0,1.7,-.3,2.3,-.9c.5,-.6,.9,-1.4,.9,-2.2c0,-.8,-.4,-1.6,-.9,-2.2c-.6,-.6,-1.4,-.9,-2.3,-.9c-.8,0,-1.6,.3,-2.2,.9c-.6,.6,-.9,1.4,-.9,2.2c0,.8,.3,1.6,.9,2.2c.6,.6,1.4,.9,2.2,.9Z" class="g3_262"/>
<path d="M333.7,262.8c.9,0,1.7,-.3,2.2,-.9c.6,-.6,1,-1.4,1,-2.2c0,-.8,-.4,-1.6,-1,-2.2c-.5,-.6,-1.3,-.9,-2.2,-.9c-.8,0,-1.6,.3,-2.2,.9c-.6,.6,-.9,1.4,-.9,2.2c0,.8,.3,1.6,.9,2.2c.6,.6,1.4,.9,2.2,.9Z" class="g2_262"/>
<path d="M333.7,262.8c.9,0,1.7,-.3,2.2,-.9c.6,-.6,1,-1.4,1,-2.2c0,-.8,-.4,-1.6,-1,-2.2c-.5,-.6,-1.3,-.9,-2.2,-.9c-.8,0,-1.6,.3,-2.2,.9c-.6,.6,-.9,1.4,-.9,2.2c0,.8,.3,1.6,.9,2.2c.6,.6,1.4,.9,2.2,.9Z" class="g3_262"/>
<path d="M207.3,262.8c.8,0,1.6,-.3,2.2,-.9c.6,-.6,.9,-1.4,.9,-2.2c0,-.8,-.3,-1.6,-.9,-2.2c-.6,-.6,-1.4,-.9,-2.2,-.9c-.8,0,-1.6,.3,-2.2,.9c-.6,.6,-.9,1.4,-.9,2.2c0,.8,.3,1.6,.9,2.2c.6,.6,1.4,.9,2.2,.9Z" class="g2_262"/>
<path d="M207.3,262.8c.8,0,1.6,-.3,2.2,-.9c.6,-.6,.9,-1.4,.9,-2.2c0,-.8,-.3,-1.6,-.9,-2.2c-.6,-.6,-1.4,-.9,-2.2,-.9c-.8,0,-1.6,.3,-2.2,.9c-.6,.6,-.9,1.4,-.9,2.2c0,.8,.3,1.6,.9,2.2c.6,.6,1.4,.9,2.2,.9Z" class="g3_262"/>
<path d="M207.3,389.3c.8,0,1.6,-.4,2.2,-1c.6,-.6,.9,-1.3,.9,-2.2c0,-.8,-.3,-1.6,-.9,-2.2c-.6,-.6,-1.4,-.9,-2.2,-.9c-.8,0,-1.6,.3,-2.2,.9c-.6,.6,-.9,1.4,-.9,2.2c0,.9,.3,1.6,.9,2.2c.6,.6,1.4,1,2.2,1Z" class="g2_262"/>
<path d="M207.3,389.3c.8,0,1.6,-.4,2.2,-1c.6,-.6,.9,-1.3,.9,-2.2c0,-.8,-.3,-1.6,-.9,-2.2c-.6,-.6,-1.4,-.9,-2.2,-.9c-.8,0,-1.6,.3,-2.2,.9c-.6,.6,-.9,1.4,-.9,2.2c0,.9,.3,1.6,.9,2.2c.6,.6,1.4,1,2.2,1Z" class="g3_262"/>
<path d="M207.3,515.7c.8,0,1.6,-.4,2.2,-.9c.6,-.6,.9,-1.4,.9,-2.3c0,-.8,-.3,-1.6,-.9,-2.2c-.6,-.6,-1.4,-.9,-2.2,-.9c-.8,0,-1.6,.3,-2.2,.9c-.6,.6,-.9,1.4,-.9,2.2c0,.9,.3,1.7,.9,2.3c.6,.5,1.4,.9,2.2,.9Z" class="g2_262"/>
<path d="M207.3,515.7c.8,0,1.6,-.4,2.2,-.9c.6,-.6,.9,-1.4,.9,-2.3c0,-.8,-.3,-1.6,-.9,-2.2c-.6,-.6,-1.4,-.9,-2.2,-.9c-.8,0,-1.6,.3,-2.2,.9c-.6,.6,-.9,1.4,-.9,2.2c0,.9,.3,1.7,.9,2.3c.6,.5,1.4,.9,2.2,.9Z" class="g3_262"/>
<path d="M333.7,515.7c.9,0,1.7,-.4,2.2,-.9c.6,-.6,1,-1.4,1,-2.3c0,-.8,-.4,-1.6,-1,-2.2c-.5,-.6,-1.3,-.9,-2.2,-.9c-.8,0,-1.6,.3,-2.2,.9c-.6,.6,-.9,1.4,-.9,2.2c0,.9,.3,1.7,.9,2.3c.6,.5,1.4,.9,2.2,.9Z" class="g2_262"/>
<path d="M333.7,515.7c.9,0,1.7,-.4,2.2,-.9c.6,-.6,1,-1.4,1,-2.3c0,-.8,-.4,-1.6,-1,-2.2c-.5,-.6,-1.3,-.9,-2.2,-.9c-.8,0,-1.6,.3,-2.2,.9c-.6,.6,-.9,1.4,-.9,2.2c0,.9,.3,1.7,.9,2.3c.6,.5,1.4,.9,2.2,.9Z" class="g3_262"/>
<path d="M460.1,515.7c.9,0,1.7,-.4,2.3,-.9c.5,-.6,.9,-1.4,.9,-2.3c0,-.8,-.4,-1.6,-.9,-2.2c-.6,-.6,-1.4,-.9,-2.3,-.9c-.8,0,-1.6,.3,-2.2,.9c-.6,.6,-.9,1.4,-.9,2.2c0,.9,.3,1.7,.9,2.3c.6,.5,1.4,.9,2.2,.9Z" class="g2_262"/>
<path d="M460.1,515.7c.9,0,1.7,-.4,2.3,-.9c.5,-.6,.9,-1.4,.9,-2.3c0,-.8,-.4,-1.6,-.9,-2.2c-.6,-.6,-1.4,-.9,-2.3,-.9c-.8,0,-1.6,.3,-2.2,.9c-.6,.6,-.9,1.4,-.9,2.2c0,.9,.3,1.7,.9,2.3c.6,.5,1.4,.9,2.2,.9Z" class="g3_262"/>
<path d="M460.1,389.3c.9,0,1.7,-.4,2.3,-1c.5,-.6,.9,-1.3,.9,-2.2c0,-.8,-.4,-1.6,-.9,-2.2c-.6,-.6,-1.4,-.9,-2.3,-.9c-.8,0,-1.6,.3,-2.2,.9c-.6,.6,-.9,1.4,-.9,2.2c0,.9,.3,1.6,.9,2.2c.6,.6,1.4,1,2.2,1Z" class="g2_262"/>
<path d="M460.1,389.3c.9,0,1.7,-.4,2.3,-1c.5,-.6,.9,-1.3,.9,-2.2c0,-.8,-.4,-1.6,-.9,-2.2c-.6,-.6,-1.4,-.9,-2.3,-.9c-.8,0,-1.6,.3,-2.2,.9c-.6,.6,-.9,1.4,-.9,2.2c0,.9,.3,1.6,.9,2.2c.6,.6,1.4,1,2.2,1Z" class="g3_262"/>
<path d="M207.3,525.2V247.1" class="g4_262"/>
<path d="M207.3,525.2v3.6" class="g5_262"/>
<path d="M195.7,537.6h6.6v-.9h-6.6Z" class="g6_262"/>
<path d="M204.7,539.6h1.7v-5.8l-1.9,.3v-.9l1.8,-.4h1.1v6.8h1.7v.8h-4.4v-.8Z" class="g6_262"/>
<path d="M211.1,540.4h1.1v-1.3h-1.1Z" class="g6_262"/>
<path d="M216.7,532.7c.8,0,1.5,.3,1.9,1c.5,.7,.7,1.6,.7,2.9c0,1.3,-.2,2.3,-.7,3c-.4,.6,-1.1,1,-1.9,1c-.9,0,-1.5,-.4,-2,-1c-.4,-.7,-.7,-1.7,-.7,-3c0,-1.3,.3,-2.2,.7,-2.9c.5,-.7,1.1,-1,2,-1Zm0,.8c-.6,0,-1,.3,-1.2,.8c-.3,.5,-.4,1.3,-.4,2.3c0,1.1,.1,1.9,.4,2.4c.2,.5,.6,.8,1.2,.8c.5,0,.9,-.3,1.2,-.8c.2,-.5,.4,-1.3,.4,-2.4c0,-1,-.2,-1.8,-.4,-2.3c-.3,-.5,-.7,-.8,-1.2,-.8Z" class="g6_262"/>
<path d="M270.5,525.2V247.1" class="g4_262"/>
<path d="M270.5,525.2v3.6" class="g5_262"/>
<path d="M258.9,537.6h6.6v-.9h-6.6Z" class="g6_262"/>
<path d="M269.9,532.7c.9,0,1.5,.3,2,1c.4,.7,.6,1.6,.6,2.9c0,1.3,-.2,2.3,-.6,3c-.5,.6,-1.1,1,-2,1c-.8,0,-1.5,-.4,-1.9,-1c-.5,-.7,-.7,-1.7,-.7,-3c0,-1.3,.2,-2.2,.7,-2.9c.4,-.7,1.1,-1,1.9,-1Zm0,.8c-.5,0,-.9,.3,-1.2,.8c-.3,.5,-.4,1.3,-.4,2.3c0,1.1,.1,1.9,.4,2.4c.3,.5,.7,.8,1.2,.8c.5,0,.9,-.3,1.2,-.8c.3,-.5,.4,-1.3,.4,-2.4c0,-1,-.1,-1.8,-.4,-2.3c-.3,-.5,-.7,-.8,-1.2,-.8Z" class="g6_262"/>
<path d="M274.4,540.4h1v-1.3h-1Z" class="g6_262"/>
<path d="M277.7,532.8h4v.9h-3.1v1.9c.2,-.1,.3,-.1,.5,-.2c.1,0,.3,0,.4,0c.9,0,1.6,.2,2,.7c.5,.5,.8,1.1,.8,1.9c0,.8,-.3,1.4,-.8,1.9c-.5,.5,-1.2,.7,-2.1,.7c-.3,0,-.7,0,-1,-.1c-.3,-.1,-.7,-.1,-1,-.2v-1.1c.3,.2,.6,.3,.9,.4c.3,.1,.7,.1,1,.1c.6,0,1.1,-.1,1.4,-.4c.4,-.4,.6,-.8,.6,-1.3c0,-.5,-.2,-1,-.6,-1.3c-.3,-.3,-.8,-.4,-1.4,-.4c-.2,0,-.5,0,-.8,.1c-.2,0,-.5,.1,-.8,.2v-3.8Z" class="g6_262"/>
<path d="M333.7,525.2V247.1" class="g4_262"/>
<path d="M333.7,525.2v3.6" class="g5_262"/>
<path d="M328.7,532.7c.9,0,1.5,.3,2,1c.4,.7,.7,1.6,.7,2.9c0,1.3,-.3,2.3,-.7,3c-.5,.6,-1.1,1,-2,1c-.8,0,-1.5,-.4,-1.9,-1c-.5,-.7,-.7,-1.7,-.7,-3c0,-1.3,.2,-2.2,.7,-2.9c.4,-.7,1.1,-1,1.9,-1Zm0,.8c-.5,0,-.9,.3,-1.2,.8c-.2,.5,-.4,1.3,-.4,2.3c0,1.1,.2,1.9,.4,2.4c.3,.5,.7,.8,1.2,.8c.6,0,1,-.3,1.2,-.8c.3,-.5,.4,-1.3,.4,-2.4c0,-1,-.1,-1.8,-.4,-2.3c-.2,-.5,-.6,-.8,-1.2,-.8Z" class="g6_262"/>
<path d="M333.2,540.4h1.1v-1.3h-1.1Z" class="g6_262"/>
<path d="M338.7,532.7c.9,0,1.5,.3,2,1c.4,.7,.6,1.6,.6,2.9c0,1.3,-.2,2.3,-.6,3c-.5,.6,-1.1,1,-2,1c-.8,0,-1.5,-.4,-1.9,-1c-.5,-.7,-.7,-1.7,-.7,-3c0,-1.3,.2,-2.2,.7,-2.9c.4,-.7,1.1,-1,1.9,-1Zm0,.8c-.5,0,-.9,.3,-1.2,.8c-.3,.5,-.4,1.3,-.4,2.3c0,1.1,.1,1.9,.4,2.4c.3,.5,.7,.8,1.2,.8c.5,0,.9,-.3,1.2,-.8c.3,-.5,.4,-1.3,.4,-2.4c0,-1,-.1,-1.8,-.4,-2.3c-.3,-.5,-.7,-.8,-1.2,-.8Z" class="g6_262"/>
<path d="M396.9,525.2V247.1" class="g4_262"/>
<path d="M396.9,525.2v3.6" class="g5_262"/>
<path d="M391.9,532.7c.9,0,1.6,.3,2,1c.5,.7,.7,1.6,.7,2.9c0,1.3,-.2,2.3,-.7,3c-.4,.6,-1.1,1,-2,1c-.8,0,-1.5,-.4,-1.9,-1c-.5,-.7,-.7,-1.7,-.7,-3c0,-1.3,.2,-2.2,.7,-2.9c.4,-.7,1.1,-1,1.9,-1Zm0,.8c-.5,0,-.9,.3,-1.2,.8c-.2,.5,-.4,1.3,-.4,2.3c0,1.1,.2,1.9,.4,2.4c.3,.5,.7,.8,1.2,.8c.6,0,1,-.3,1.2,-.8c.3,-.5,.4,-1.3,.4,-2.4c0,-1,-.1,-1.8,-.4,-2.3c-.2,-.5,-.6,-.8,-1.2,-.8Z" class="g6_262"/>
<path d="M396.4,540.4h1.1v-1.3h-1.1Z" class="g6_262"/>
<path d="M399.7,532.8h4.1v.9h-3.1v1.9c.1,-.1,.3,-.1,.4,-.2c.2,0,.3,0,.5,0c.8,0,1.5,.2,2,.7c.5,.5,.7,1.1,.7,1.9c0,.8,-.2,1.4,-.7,1.9c-.5,.5,-1.3,.7,-2.2,.7c-.3,0,-.6,0,-1,-.1c-.3,-.1,-.6,-.1,-1,-.2v-1.1c.3,.2,.6,.3,.9,.4c.4,.1,.7,.1,1.1,.1c.6,0,1,-.1,1.4,-.4c.3,-.4,.5,-.8,.5,-1.3c0,-.5,-.2,-1,-.5,-1.3c-.4,-.3,-.8,-.4,-1.4,-.4c-.3,0,-.6,0,-.8,.1c-.3,0,-.6,.1,-.9,.2v-3.8Z" class="g6_262"/>
<path d="M460.1,525.2V247.1" class="g4_262"/>
<path d="M460.1,525.2v3.6" class="g5_262"/>
<path d="M453.1,539.6h1.7v-5.8l-1.8,.3v-.9l1.8,-.4h1v6.8h1.7v.8h-4.4v-.8Z" class="g6_262"/>
<path d="M459.6,540.4h1.1v-1.3h-1.1Z" class="g6_262"/>
<path d="M465.1,532.7c.9,0,1.5,.3,2,1c.4,.7,.7,1.6,.7,2.9c0,1.3,-.3,2.3,-.7,3c-.5,.6,-1.1,1,-2,1c-.8,0,-1.5,-.4,-1.9,-1c-.5,-.7,-.7,-1.7,-.7,-3c0,-1.3,.2,-2.2,.7,-2.9c.4,-.7,1.1,-1,1.9,-1Zm0,.8c-.5,0,-.9,.3,-1.2,.8c-.2,.5,-.4,1.3,-.4,2.3c0,1.1,.2,1.9,.4,2.4c.3,.5,.7,.8,1.2,.8c.6,0,1,-.3,1.2,-.8c.3,-.5,.4,-1.3,.4,-2.4c0,-1,-.1,-1.8,-.4,-2.3c-.2,-.5,-.6,-.8,-1.2,-.8Z" class="g6_262"/>
<path d="M336.4,549l-2.1,2.8l2.2,2.9h-1.1l-1.7,-2.2l-1.7,2.2h-1.1l2.3,-3L331.1,549h1.1l1.5,2.1l1.6,-2.1h1.1Z" class="g6_262"/>
<path d="M194.7,512.5H472.8" class="g4_262"/>
<path d="M194.7,512.5H191" class="g5_262"/>
<path d="M156.4,513.7H163v-.9h-6.6Z" class="g6_262"/>
<path d="M165.4,515.6h1.7v-5.8l-1.9,.4v-.9l1.9,-.4h1v6.7h1.7v.9h-4.4v-.9Z" class="g6_262"/>
<path d="M171.8,516.5h1.1v-1.3h-1.1Z" class="g6_262"/>
<path d="M177.4,508.8c.8,0,1.5,.3,1.9,1c.5,.6,.7,1.6,.7,2.9c0,1.3,-.2,2.3,-.7,2.9c-.4,.7,-1.1,1.1,-1.9,1.1c-.9,0,-1.5,-.4,-2,-1.1c-.4,-.6,-.7,-1.6,-.7,-2.9c0,-1.3,.3,-2.3,.7,-2.9c.5,-.7,1.1,-1,2,-1Zm0,.8c-.6,0,-1,.2,-1.2,.8c-.3,.5,-.4,1.3,-.4,2.3c0,1,.1,1.8,.4,2.4c.2,.5,.6,.7,1.2,.7c.5,0,.9,-.2,1.2,-.7c.2,-.6,.4,-1.4,.4,-2.4c0,-1,-.2,-1.8,-.4,-2.3c-.3,-.6,-.7,-.8,-1.2,-.8Z" class="g6_262"/>
<path d="M184,508.8c.9,0,1.5,.3,2,1c.4,.6,.7,1.6,.7,2.9c0,1.3,-.3,2.3,-.7,2.9c-.5,.7,-1.1,1.1,-2,1.1c-.8,0,-1.5,-.4,-1.9,-1.1c-.5,-.6,-.7,-1.6,-.7,-2.9c0,-1.3,.2,-2.3,.7,-2.9c.4,-.7,1.1,-1,1.9,-1Zm0,.8c-.5,0,-.9,.2,-1.2,.8c-.2,.5,-.4,1.3,-.4,2.3c0,1,.2,1.8,.4,2.4c.3,.5,.7,.7,1.2,.7c.6,0,1,-.2,1.2,-.7c.3,-.6,.4,-1.4,.4,-2.4c0,-1,-.1,-1.8,-.4,-2.3c-.2,-.6,-.6,-.8,-1.2,-.8Z" class="g6_262"/>
<path d="M194.7,480.9H472.8" class="g4_262"/>
<path d="M194.7,480.9H191" class="g5_262"/>
<path d="M156.4,482.1H163v-.9h-6.6Z" class="g6_262"/>
<path d="M167.4,477.1c.9,0,1.5,.4,2,1.1c.4,.6,.6,1.6,.6,2.9c0,1.3,-.2,2.3,-.6,2.9c-.5,.7,-1.1,1.1,-2,1.1c-.8,0,-1.5,-.4,-2,-1.1c-.4,-.6,-.6,-1.6,-.6,-2.9c0,-1.3,.2,-2.3,.6,-2.9c.5,-.7,1.2,-1.1,2,-1.1Zm0,.9c-.5,0,-.9,.2,-1.2,.7c-.3,.6,-.4,1.4,-.4,2.4c0,1,.1,1.8,.4,2.4c.3,.5,.7,.7,1.2,.7c.5,0,.9,-.2,1.2,-.7c.3,-.6,.4,-1.4,.4,-2.4c0,-1,-.1,-1.8,-.4,-2.4c-.3,-.5,-.7,-.7,-1.2,-.7Z" class="g6_262"/>
<path d="M171.8,484.9h1.1v-1.3h-1.1Z" class="g6_262"/>
<path d="M174.9,477.3h4.9v.4l-2.8,7.2h-1l2.6,-6.7h-3.7v-.9Z" class="g6_262"/>
<path d="M181.8,477.3h4.1v.9h-3.1V480c.1,0,.3,-.1,.4,-.1c.2,0,.3,0,.5,0c.8,0,1.5,.2,2,.7c.5,.4,.7,1.1,.7,1.9c0,.8,-.2,1.4,-.7,1.9c-.5,.4,-1.3,.7,-2.2,.7c-.3,0,-.6,-.1,-1,-.1c-.3,-.1,-.6,-.2,-1,-.3v-1c.3,.2,.6,.3,1,.4c.3,0,.6,.1,1,.1c.6,0,1,-.2,1.4,-.5c.3,-.3,.5,-.7,.5,-1.2c0,-.6,-.2,-1,-.5,-1.3c-.4,-.3,-.8,-.5,-1.4,-.5c-.3,0,-.6,.1,-.8,.1c-.3,.1,-.6,.2,-.9,.3v-3.8Z" class="g6_262"/>
<path d="M194.7,449.3H472.8" class="g4_262"/>
<path d="M194.7,449.3H191" class="g5_262"/>
<path d="M156.4,450.5H163v-.9h-6.6Z" class="g6_262"/>
<path d="M167.4,445.5c.9,0,1.5,.4,2,1.1c.4,.6,.6,1.6,.6,2.9c0,1.3,-.2,2.3,-.6,2.9c-.5,.7,-1.1,1,-2,1c-.8,0,-1.5,-.3,-2,-1c-.4,-.6,-.6,-1.6,-.6,-2.9c0,-1.3,.2,-2.3,.6,-2.9c.5,-.7,1.2,-1.1,2,-1.1Zm0,.9c-.5,0,-.9,.2,-1.2,.7c-.3,.6,-.4,1.3,-.4,2.4c0,1,.1,1.8,.4,2.3c.3,.6,.7,.8,1.2,.8c.5,0,.9,-.2,1.2,-.8c.3,-.5,.4,-1.3,.4,-2.3c0,-1.1,-.1,-1.8,-.4,-2.4c-.3,-.5,-.7,-.7,-1.2,-.7Z" class="g6_262"/>
<path d="M171.8,453.3h1.1V452h-1.1Z" class="g6_262"/>
<path d="M175.2,445.7h4v.8h-3.1v1.9c.2,0,.3,-.1,.5,-.1c.1,0,.3,0,.4,0c.9,0,1.5,.2,2,.7c.5,.4,.8,1.1,.8,1.9c0,.8,-.3,1.4,-.8,1.9c-.5,.4,-1.2,.6,-2.1,.6c-.4,0,-.7,0,-1,0c-.3,-.1,-.7,-.2,-1,-.3v-1c.3,.2,.6,.3,.9,.4c.3,0,.7,.1,1,.1c.6,0,1.1,-.2,1.4,-.5c.4,-.3,.6,-.7,.6,-1.2c0,-.6,-.2,-1,-.6,-1.3c-.3,-.3,-.8,-.5,-1.4,-.5c-.2,0,-.5,.1,-.8,.1c-.3,.1,-.5,.2,-.8,.3v-3.8Z" class="g6_262"/>
<path d="M184,445.5c.9,0,1.5,.4,2,1.1c.4,.6,.7,1.6,.7,2.9c0,1.3,-.3,2.3,-.7,2.9c-.5,.7,-1.1,1,-2,1c-.8,0,-1.5,-.3,-1.9,-1c-.5,-.6,-.7,-1.6,-.7,-2.9c0,-1.3,.2,-2.3,.7,-2.9c.4,-.7,1.1,-1.1,1.9,-1.1Zm0,.9c-.5,0,-.9,.2,-1.2,.7c-.2,.6,-.4,1.3,-.4,2.4c0,1,.2,1.8,.4,2.3c.3,.6,.7,.8,1.2,.8c.6,0,1,-.2,1.2,-.8c.3,-.5,.4,-1.3,.4,-2.3c0,-1.1,-.1,-1.8,-.4,-2.4c-.2,-.5,-.6,-.7,-1.2,-.7Z" class="g6_262"/>
<path d="M194.7,417.7H472.8" class="g4_262"/>
<path d="M194.7,417.7H191" class="g5_262"/>
<path d="M156.4,418.9H163V418h-6.6Z" class="g6_262"/>
<path d="M167.4,413.9c.9,0,1.5,.4,2,1.1c.4,.6,.6,1.6,.6,2.9c0,1.3,-.2,2.3,-.6,2.9c-.5,.7,-1.1,1,-2,1c-.8,0,-1.5,-.3,-2,-1c-.4,-.6,-.6,-1.6,-.6,-2.9c0,-1.3,.2,-2.3,.6,-2.9c.5,-.7,1.2,-1.1,2,-1.1Zm0,.9c-.5,0,-.9,.2,-1.2,.7c-.3,.6,-.4,1.3,-.4,2.4c0,1,.1,1.8,.4,2.3c.3,.6,.7,.8,1.2,.8c.5,0,.9,-.2,1.2,-.8c.3,-.5,.4,-1.3,.4,-2.3c0,-1.1,-.1,-1.8,-.4,-2.4c-.3,-.5,-.7,-.7,-1.2,-.7Z" class="g6_262"/>
<path d="M171.8,421.7h1.1v-1.3h-1.1Z" class="g6_262"/>
<path d="M176.1,420.8h3.6v.9h-4.9v-.9c.4,-.4,.9,-.9,1.6,-1.6c.7,-.7,1.1,-1.1,1.3,-1.3c.3,-.4,.6,-.7,.7,-1c.1,-.2,.2,-.5,.2,-.7c0,-.4,-.2,-.8,-.4,-1c-.3,-.3,-.7,-.4,-1.2,-.4c-.3,0,-.6,.1,-1,.2c-.3,.1,-.7,.3,-1.1,.5v-1.1c.4,-.1,.8,-.2,1.1,-.3c.4,-.1,.7,-.2,1,-.2c.8,0,1.4,.2,1.9,.6c.5,.4,.7,1,.7,1.6c0,.3,0,.6,-.2,.9c-.1,.3,-.3,.6,-.6,1c-.1,.1,-.4,.4,-.8,.9c-.5,.4,-1.1,1.1,-1.9,1.9Z" class="g6_262"/>
<path d="M181.8,414.1h4.1v.8h-3.1v1.9c.1,0,.3,-.1,.4,-.1c.2,0,.3,0,.5,0c.8,0,1.5,.2,2,.7c.5,.4,.7,1.1,.7,1.8c0,.9,-.2,1.5,-.7,2c-.5,.4,-1.3,.6,-2.2,.6c-.3,0,-.6,0,-1,0c-.3,-.1,-.6,-.2,-1,-.3v-1c.3,.1,.6,.3,1,.4c.3,0,.6,.1,1,.1c.6,0,1,-.2,1.4,-.5c.3,-.3,.5,-.7,.5,-1.3c0,-.5,-.2,-.9,-.5,-1.2c-.4,-.3,-.8,-.5,-1.4,-.5c-.3,0,-.6,.1,-.8,.1c-.3,.1,-.6,.2,-.9,.3v-3.8Z" class="g6_262"/>
<path d="M194.7,386.1H472.8" class="g4_262"/>
<path d="M194.7,386.1H191" class="g5_262"/>
<path d="M167.4,382.3c.9,0,1.5,.4,2,1.1c.4,.6,.6,1.6,.6,2.9c0,1.3,-.2,2.3,-.6,2.9c-.5,.7,-1.1,1,-2,1c-.8,0,-1.5,-.3,-2,-1c-.4,-.6,-.6,-1.6,-.6,-2.9c0,-1.3,.2,-2.3,.6,-2.9c.5,-.7,1.2,-1.1,2,-1.1Zm0,.9c-.5,0,-.9,.2,-1.2,.7c-.3,.6,-.4,1.3,-.4,2.4c0,1,.1,1.8,.4,2.3c.3,.6,.7,.8,1.2,.8c.5,0,.9,-.2,1.2,-.8c.3,-.5,.4,-1.3,.4,-2.3c0,-1.1,-.1,-1.8,-.4,-2.4c-.3,-.5,-.7,-.7,-1.2,-.7Z" class="g6_262"/>
<path d="M171.9,390.1h1v-1.3h-1Z" class="g6_262"/>
<path d="M177.4,382.3c.8,0,1.5,.4,1.9,1.1c.5,.6,.7,1.6,.7,2.9c0,1.3,-.2,2.3,-.7,2.9c-.4,.7,-1.1,1,-1.9,1c-.9,0,-1.5,-.3,-2,-1c-.4,-.6,-.7,-1.6,-.7,-2.9c0,-1.3,.3,-2.3,.7,-2.9c.5,-.7,1.1,-1.1,2,-1.1Zm0,.9c-.6,0,-1,.2,-1.2,.7c-.3,.6,-.4,1.3,-.4,2.4c0,1,.1,1.8,.4,2.3c.2,.6,.6,.8,1.2,.8c.5,0,.9,-.2,1.2,-.8c.2,-.5,.4,-1.3,.4,-2.3c0,-1.1,-.2,-1.8,-.4,-2.4c-.3,-.5,-.7,-.7,-1.2,-.7Z" class="g6_262"/>
<path d="M184,382.3c.9,0,1.5,.4,2,1.1c.4,.6,.7,1.6,.7,2.9c0,1.3,-.3,2.3,-.7,2.9c-.5,.7,-1.1,1,-2,1c-.8,0,-1.5,-.3,-1.9,-1c-.5,-.6,-.7,-1.6,-.7,-2.9c0,-1.3,.2,-2.3,.7,-2.9c.4,-.7,1.1,-1.1,1.9,-1.1Zm0,.9c-.5,0,-.9,.2,-1.2,.7c-.2,.6,-.4,1.3,-.4,2.4c0,1,.2,1.8,.4,2.3c.3,.6,.7,.8,1.2,.8c.6,0,1,-.2,1.2,-.8c.3,-.5,.4,-1.3,.4,-2.3c0,-1.1,-.1,-1.8,-.4,-2.4c-.2,-.5,-.6,-.7,-1.2,-.7Z" class="g6_262"/>
<path d="M194.7,354.5H472.8" class="g4_262"/>
<path d="M194.7,354.5H191" class="g5_262"/>
<path d="M167.4,350.7c.9,0,1.5,.4,2,1c.4,.7,.6,1.7,.6,3c0,1.3,-.2,2.2,-.6,2.9c-.5,.7,-1.1,1,-2,1c-.8,0,-1.5,-.3,-2,-1c-.4,-.7,-.6,-1.6,-.6,-2.9c0,-1.3,.2,-2.3,.6,-3c.5,-.6,1.2,-1,2,-1Zm0,.8c-.5,0,-.9,.3,-1.2,.8c-.3,.6,-.4,1.3,-.4,2.4c0,1,.1,1.8,.4,2.3c.3,.6,.7,.8,1.2,.8c.5,0,.9,-.2,1.2,-.8c.3,-.5,.4,-1.3,.4,-2.3c0,-1.1,-.1,-1.8,-.4,-2.4c-.3,-.5,-.7,-.8,-1.2,-.8Z" class="g6_262"/>
<path d="M171.9,358.5h1v-1.3h-1Z" class="g6_262"/>
<path d="M176.1,357.6h3.6v.9h-4.9v-.9c.4,-.4,.9,-.9,1.6,-1.6c.7,-.7,1.1,-1.1,1.3,-1.3c.3,-.4,.6,-.7,.7,-1c.1,-.2,.2,-.5,.2,-.7c0,-.4,-.2,-.8,-.4,-1c-.3,-.3,-.7,-.4,-1.2,-.4c-.3,0,-.6,.1,-1,.2c-.3,.1,-.7,.2,-1.1,.5v-1.1c.4,-.1,.8,-.3,1.1,-.3c.4,-.1,.7,-.2,1,-.2c.8,0,1.4,.2,1.9,.6c.5,.4,.7,.9,.7,1.6c0,.3,0,.6,-.2,.9c-.1,.3,-.3,.6,-.6,1c-.1,.1,-.4,.4,-.8,.8c-.5,.5,-1.1,1.2,-1.9,2Z" class="g6_262"/>
<path d="M181.8,350.9h4.1v.8h-3.1v1.9c.1,0,.3,-.1,.4,-.1c.2,0,.3,0,.5,0c.8,0,1.5,.2,2,.7c.5,.4,.7,1,.7,1.8c0,.9,-.2,1.5,-.7,2c-.5,.4,-1.3,.6,-2.2,.6c-.3,0,-.6,0,-1,0c-.3,-.1,-.6,-.2,-1,-.3v-1c.3,.1,.6,.3,1,.3c.3,.1,.6,.2,1,.2c.6,0,1,-.2,1.4,-.5c.3,-.3,.5,-.7,.5,-1.3c0,-.5,-.2,-.9,-.5,-1.2c-.4,-.3,-.8,-.5,-1.4,-.5c-.3,0,-.6,0,-.8,.1c-.3,.1,-.6,.2,-.9,.3v-3.8Z" class="g6_262"/>
<path d="M194.7,322.9H472.8" class="g4_262"/>
<path d="M194.7,322.9H191" class="g5_262"/>
<path d="M167.4,319.1c.9,0,1.5,.4,2,1c.4,.7,.6,1.7,.6,3c0,1.3,-.2,2.2,-.6,2.9c-.5,.7,-1.1,1,-2,1c-.8,0,-1.5,-.3,-2,-1c-.4,-.7,-.6,-1.6,-.6,-2.9c0,-1.3,.2,-2.3,.6,-3c.5,-.6,1.2,-1,2,-1Zm0,.8c-.5,0,-.9,.3,-1.2,.8c-.3,.5,-.4,1.3,-.4,2.4c0,1,.1,1.8,.4,2.3c.3,.6,.7,.8,1.2,.8c.5,0,.9,-.2,1.2,-.8c.3,-.5,.4,-1.3,.4,-2.3c0,-1.1,-.1,-1.9,-.4,-2.4c-.3,-.5,-.7,-.8,-1.2,-.8Z" class="g6_262"/>
<path d="M171.9,326.9h1v-1.3h-1Z" class="g6_262"/>
<path d="M175.2,319.3h4v.8h-3.1V322c.2,-.1,.3,-.1,.5,-.1c.1,0,.3,-.1,.4,-.1c.9,0,1.5,.3,2,.7c.5,.5,.8,1.1,.8,1.9c0,.9,-.3,1.5,-.8,2c-.5,.4,-1.2,.6,-2.1,.6c-.4,0,-.7,0,-1,0c-.3,-.1,-.7,-.2,-1,-.3v-1c.3,.1,.6,.3,.9,.3c.3,.1,.7,.2,1,.2c.6,0,1.1,-.2,1.4,-.5c.4,-.3,.6,-.7,.6,-1.3c0,-.5,-.2,-.9,-.6,-1.2c-.3,-.3,-.8,-.5,-1.4,-.5c-.2,0,-.5,0,-.8,.1c-.3,.1,-.5,.2,-.8,.3v-3.8Z" class="g6_262"/>
<path d="M184,319.1c.9,0,1.5,.4,2,1c.4,.7,.7,1.7,.7,3c0,1.3,-.3,2.2,-.7,2.9c-.5,.7,-1.1,1,-2,1c-.8,0,-1.5,-.3,-1.9,-1c-.5,-.7,-.7,-1.6,-.7,-2.9c0,-1.3,.2,-2.3,.7,-3c.4,-.6,1.1,-1,1.9,-1Zm0,.8c-.5,0,-.9,.3,-1.2,.8c-.2,.5,-.4,1.3,-.4,2.4c0,1,.2,1.8,.4,2.3c.3,.6,.7,.8,1.2,.8c.6,0,1,-.2,1.2,-.8c.3,-.5,.4,-1.3,.4,-2.3c0,-1.1,-.1,-1.9,-.4,-2.4c-.2,-.5,-.6,-.8,-1.2,-.8Z" class="g6_262"/>
<path d="M194.7,291.3H472.8" class="g4_262"/>
<path d="M194.7,291.3H191" class="g5_262"/>
<path d="M167.4,287.5c.9,0,1.5,.4,2,1c.4,.7,.6,1.7,.6,3c0,1.3,-.2,2.2,-.6,2.9c-.5,.7,-1.1,1,-2,1c-.8,0,-1.5,-.3,-2,-1c-.4,-.7,-.6,-1.6,-.6,-2.9c0,-1.3,.2,-2.3,.6,-3c.5,-.6,1.2,-1,2,-1Zm0,.8c-.5,0,-.9,.3,-1.2,.8c-.3,.5,-.4,1.3,-.4,2.4c0,1,.1,1.8,.4,2.3c.3,.6,.7,.8,1.2,.8c.5,0,.9,-.2,1.2,-.8c.3,-.5,.4,-1.3,.4,-2.3c0,-1.1,-.1,-1.9,-.4,-2.4c-.3,-.5,-.7,-.8,-1.2,-.8Z" class="g6_262"/>
<path d="M171.9,295.3h1V294h-1Z" class="g6_262"/>
<path d="M174.9,287.7h4.9v.4l-2.8,7.2h-1l2.6,-6.8h-3.7v-.8Z" class="g6_262"/>
<path d="M181.8,287.7h4.1v.8h-3.1v1.9c.1,-.1,.3,-.1,.4,-.1c.2,0,.3,-.1,.5,-.1c.8,0,1.5,.3,2,.7c.5,.5,.7,1.1,.7,1.9c0,.9,-.2,1.5,-.7,1.9c-.5,.5,-1.3,.7,-2.2,.7c-.3,0,-.6,0,-1,-.1c-.3,0,-.6,-.1,-1,-.2v-1c.3,.1,.6,.3,1,.3c.3,.1,.6,.2,1,.2c.6,0,1,-.2,1.4,-.5c.3,-.3,.5,-.7,.5,-1.3c0,-.5,-.2,-.9,-.5,-1.2c-.4,-.3,-.8,-.5,-1.4,-.5c-.3,0,-.6,0,-.8,.1c-.3,.1,-.6,.2,-.9,.3v-3.8Z" class="g6_262"/>
<path d="M194.7,259.7H472.8" class="g4_262"/>
<path d="M194.7,259.7H191" class="g5_262"/>
<path d="M165.4,262.8h1.7V257l-1.9,.4v-1l1.9,-.3h1v6.7h1.7v.9h-4.4v-.9Z" class="g6_262"/>
<path d="M171.9,263.7h1v-1.3h-1Z" class="g6_262"/>
<path d="M177.4,255.9c.8,0,1.5,.4,1.9,1c.5,.7,.7,1.7,.7,3c0,1.3,-.2,2.2,-.7,2.9c-.4,.7,-1.1,1,-1.9,1c-.9,0,-1.5,-.3,-2,-1c-.4,-.7,-.7,-1.6,-.7,-2.9c0,-1.3,.3,-2.3,.7,-3c.5,-.6,1.1,-1,2,-1Zm0,.8c-.6,0,-1,.3,-1.2,.8c-.3,.5,-.4,1.3,-.4,2.4c0,1,.1,1.8,.4,2.3c.2,.5,.6,.8,1.2,.8c.5,0,.9,-.3,1.2,-.8c.2,-.5,.4,-1.3,.4,-2.3c0,-1.1,-.2,-1.9,-.4,-2.4c-.3,-.5,-.7,-.8,-1.2,-.8Z" class="g6_262"/>
<path d="M184,255.9c.9,0,1.5,.4,2,1c.4,.7,.7,1.7,.7,3c0,1.3,-.3,2.2,-.7,2.9c-.5,.7,-1.1,1,-2,1c-.8,0,-1.5,-.3,-1.9,-1c-.5,-.7,-.7,-1.6,-.7,-2.9c0,-1.3,.2,-2.3,.7,-3c.4,-.6,1.1,-1,1.9,-1Zm0,.8c-.5,0,-.9,.3,-1.2,.8c-.2,.5,-.4,1.3,-.4,2.4c0,1,.2,1.8,.4,2.3c.3,.5,.7,.8,1.2,.8c.6,0,1,-.3,1.2,-.8c.3,-.5,.4,-1.3,.4,-2.3c0,-1.1,-.1,-1.9,-.4,-2.4c-.2,-.5,-.6,-.8,-1.2,-.8Z" class="g6_262"/>
<path d="M149.5,385.9c.7,.2,1.1,.5,1.3,.7c.2,.3,.3,.6,.3,1v.8h-.7v-.6c0,-.2,-.1,-.4,-.2,-.6c-.1,-.1,-.4,-.3,-.9,-.4l-.4,-.2l-5.6,2.3v-1l4.4,-1.8l-4.4,-1.8v-1l6.2,2.6Z" class="g6_262"/>
<path d="M460.1,386.1l-.1,-5.4l-.3,-5.5l-.6,-5.5C451.1,309.4,401.6,263.5,341,259.9l-5.5,-.2l-5.4,.1c-62.8,1.8,-114.6,49.3,-121.9,111.7l-.6,5.6l-.2,5.4l-.1,5.4l.2,5.5c3.7,62.8,52.7,113.2,115.3,118.7l5.5,.3l5.4,.1c62.8,0,115.9,-45.9,125.1,-108.1l.7,-5.5l.4,-5.5l.2,-5.5" class="g7_262"/>
<path d="M194.7,525.2V247.1M472.8,525.2V247.1M194.7,525.2H472.8M194.7,247.1H472.8" class="g8_262"/>
</svg>