<?xml version="1.0" encoding="UTF-8" standalone="no"?>
<!DOCTYPE svg PUBLIC "-//W3C//DTD SVG 1.1//EN"
"http://www.w3.org/Graphics/SVG/1.1/DTD/svg11.dtd">
<svg viewBox="0 0 811 1017" version="1.1" xmlns="http://www.w3.org/2000/svg" xmlns:xlink="http://www.w3.org/1999/xlink">
<defs>
<style type="text/css"><![CDATA[
.g0_291{
fill: #0E0E0E;
}
]]></style>
</defs>
<path d="M273.6,227.8v-2.9c.8,0,1.2,0,1.6,.3c.5,.3,.8,.8,.9,1.5h.3v-4h-.3c0,.4,-.1,.7,-.3,.9c-.3,.7,-1.1,.9,-2.2,.9V220c0,-.1,.1,-.2,.2,-.2h1.7c.9,0,1.7,.3,2.1,.6c.5,.3,.8,.9,.9,1.6h.2l-.1,-2.5h-7.8v.2c.5,0,.9,.2,1.2,.4c.2,.2,.2,.7,.2,1.2v6.6c0,.5,-.1,1,-.3,1.2c-.2,.3,-.7,.5,-1.2,.5v.2h4.7v-.2c-.6,0,-1.2,-.2,-1.5,-.5c-.3,-.2,-.3,-.7,-.3,-1.3Z" class="g0_291"/>
<path d="M282.6,223.6c1.3,0,2,1.6,2,3c0,1.7,-.8,3.1,-2,3.1c-1.6,0,-2,-1.6,-2,-3.1c0,-1.4,.7,-3,2,-3Zm0,-.3c-.5,0,-.9,.1,-1.3,.3c-1.1,.4,-2,1.4,-2,3c0,.5,0,.9,.2,1.3c.5,1.1,1.2,2,3.1,2c1.1,0,1.8,-.4,2.4,-.9c.5,-.6,1,-1.3,1,-2.4c0,-.5,-.1,-.9,-.3,-1.3c-.5,-1.1,-1.5,-2,-3.1,-2Z" class="g0_291"/>
<path d="M292.2,224c0,-.4,-.3,-.7,-.8,-.7c-.2,0,-.4,.1,-.6,.2c-.7,.2,-1.2,.8,-1.5,1.4l-.2,-1.4l-2.1,.4v.2c.2,0,.5,.2,.7,.3c.2,.2,.3,.4,.3,.9c.1,.3,.1,.7,.1,1.3v1.6c0,.4,-.1,.6,-.1,.8c-.1,.6,-.3,.6,-1,.6v.2h3.2v-.2c-.2,0,-.4,0,-.5,-.1c-.5,-.2,-.5,-.7,-.5,-1.3v-1c0,-1.1,.2,-2.1,.7,-2.7c.2,-.3,.5,-.4,.7,-.4c.6,0,.5,.5,1,.5c.4,0,.6,-.2,.6,-.6Z" class="g0_291"/>
<path d="M298.1,229.9c1.1,0,1.7,-.5,2.1,-1.3c0,.8,.3,1.3,1.1,1.3c.6,0,1,-.2,1.3,-.6l-.1,-.2c-.1,.2,-.4,.4,-.7,.4c-.4,0,-.5,-.4,-.5,-1.3v-3c0,-1.5,-.7,-1.9,-2.2,-1.9c-1.3,0,-2.5,.7,-2.5,1.2c0,.4,.1,.7,.5,.7c.4,0,.6,-.3,.8,-.6c.1,-.3,.1,-.5,.2,-.7c.1,-.1,.5,-.3,.8,-.3c1.3,0,1.2,.7,1.2,1.7v.4l-1.7,.8c-.6,.3,-1.1,.5,-1.5,1c-.3,.2,-.5,.6,-.5,1c0,.9,.7,1.4,1.7,1.4Zm-.4,-1.6c0,-.5,.2,-.8,.5,-1.1c.5,-.5,1.1,-.8,1.9,-1.2v1.7c0,.5,-.2,.9,-.4,1.3c-.2,.3,-.7,.5,-1.2,.5c-.5,0,-.8,-.7,-.8,-1.2Z" class="g0_291"/>
<path d="M305.1,228.2v-9.3l-2.3,.4v.2c.2,0,.6,.2,.8,.4c.3,.3,.4,.3,.4,2v6.4c0,.3,0,.5,-.1,.7c-.1,.5,-.4,.6,-1,.6v.2h3.3v-.2c-.2,0,-.5,0,-.6,0c-.5,-.2,-.5,-.7,-.5,-1.4Z" class="g0_291"/>
<path d="M309,228.2v-9.3l-2.3,.4v.2c.2,0,.6,.2,.8,.4c.3,.3,.4,.3,.4,2v6.4c0,.3,0,.5,-.1,.7c0,.5,-.4,.6,-1,.6v.2h3.3v-.2c-.2,0,-.4,0,-.6,0c-.5,-.2,-.5,-.7,-.5,-1.4Z" class="g0_291"/>
<path d="M321.5,224.3c0,-.5,-.5,-1,-1,-1c-.3,0,-.6,.2,-1,.4c-.3,.2,-.6,.5,-.8,.9c0,-.7,-.4,-1.3,-1.1,-1.3c-1.1,0,-2.1,1.2,-2.4,2l.2,.1c.4,-.5,1.1,-1.7,2,-1.7c.3,0,.4,.6,.4,1c0,.3,-.1,.7,-.2,1.1l-.4,1.2c-.1,.6,-.4,1.4,-.7,1.8c-.2,.3,-.4,.7,-.8,.7c-.4,0,-.7,-.1,-.6,-.5c.1,-.3,0,-.8,-.4,-.8c-.5,0,-.6,.4,-.6,.8c0,.6,.4,.9,1,.9c1,0,1.7,-.7,2.1,-1.4h.1c.1,.8,.5,1.4,1.3,1.4c1.2,0,2,-1.1,2.5,-1.8l-.2,-.2c-.5,.7,-1.2,1.7,-2,1.7c-.4,0,-.7,-.6,-.7,-1.2c0,-.4,.1,-.8,.2,-1.4l.2,-.7c.1,-.6,.4,-1.2,.6,-1.6c.2,-.3,.6,-1,1,-1c.4,0,.3,.3,.3,.6c0,.4,.2,.6,.5,.6c.4,0,.5,-.3,.5,-.6Z" class="g0_291"/>
<path d="M334.7,224.2c0,.3,0,.4,0,.6c-.2,.3,-.3,.7,-.5,1.2l-.8,2h-.1l-1.6,-4.5h-.3l-1.8,4.5l-1,-3c0,-.2,0,-.3,-.1,-.4c0,-.1,0,-.3,0,-.3c0,-.5,.4,-.6,.9,-.6v-.2h-3.2v.2c.4,0,.6,.1,.8,.3c.2,.2,.3,.5,.4,.9l1.5,5h.3l1.9,-4.8l1.6,4.8h.2l1.9,-4.6c.2,-.6,.3,-.9,.6,-1.2c.1,-.2,.5,-.4,.8,-.4v-.2h-2.4v.2c.5,0,.9,.1,.9,.5Z" class="g0_291"/>
<path d="M338.8,228.2v-2.5c0,-.4,0,-.7,.2,-.9c.3,-.5,1,-1.1,1.8,-1.1c1.2,0,1.3,1.3,1.3,2.8v1.7c0,.4,0,.6,0,.8c-.1,.5,-.4,.6,-1,.6v.2h3.2v-.2c-.2,0,-.4,0,-.6,0c-.4,-.2,-.4,-.8,-.4,-1.4V226c0,-.9,-.1,-1.5,-.4,-1.9c-.4,-.5,-1,-.8,-1.7,-.8c-1.1,0,-1.9,.6,-2.4,1.3v-5.7l-2.2,.4v.2c.3,0,.8,.3,.9,.5q0,.1,0,.2c.1,.2,.1,.4,.1,.7c0,.3,0,.6,0,1.1v6.2c0,.5,0,.9,-.1,1.2c-.2,.2,-.5,.2,-.9,.2v.2h3.2v-.2c-.3,0,-.4,0,-.6,0c-.5,-.2,-.4,-.8,-.4,-1.4Z" class="g0_291"/>
<path d="M349.6,225.2c0,0,0,.1,0,.2c-.1,.2,-.5,.1,-.8,.1h-2.2c.2,-1,.7,-1.9,1.7,-1.9c1,0,1.3,.8,1.3,1.6Zm-1,4.4c-1.4,0,-2.1,-1.5,-2.1,-3.1c0,-.1,0,-.5,.1,-.7h3.9c.3,0,.4,0,.4,-.2c0,-1.6,-.9,-2.3,-2.5,-2.3c-.4,0,-.9,.1,-1.3,.3c-1.1,.5,-2,1.5,-2,3.1c0,1.9,1.3,3.3,3.2,3.2c1.4,0,1.7,-.4,2.5,-1.2l-.1,-.2c-.5,.6,-1.2,1.1,-2.1,1.1Z" class="g0_291"/>
<path d="M357.1,224c0,-.4,-.3,-.7,-.8,-.7c-.2,0,-.4,.1,-.6,.2c-.7,.2,-1.2,.8,-1.5,1.4l-.2,-1.4l-2.1,.4v.2c.2,0,.5,.2,.6,.3c.3,.2,.4,.4,.4,.9c0,.3,0,.7,0,1.3v1.6c0,.4,0,.6,0,.8c-.1,.6,-.3,.6,-1,.6v.2h3.2v-.2c-.2,0,-.4,0,-.5,-.1c-.5,-.2,-.5,-.7,-.5,-1.3v-1c0,-1.1,.2,-2.1,.6,-2.7c.3,-.3,.5,-.4,.7,-.4c.6,0,.6,.5,1,.5c.4,0,.7,-.2,.7,-.6Z" class="g0_291"/>
<path d="M362.1,225.2c0,0,0,.1,0,.2c-.1,.2,-.5,.1,-.7,.1h-2.3c.2,-1,.7,-1.9,1.7,-1.9c1,0,1.3,.8,1.3,1.6Zm-1,4.4c-1.4,0,-2.1,-1.5,-2.1,-3.1c0,-.1,0,-.5,.1,-.7H363c.3,0,.4,0,.4,-.2c0,-1.6,-.9,-2.3,-2.4,-2.3c-.5,0,-1,.1,-1.4,.3c-1.1,.5,-1.9,1.5,-1.9,3.1c0,1.9,1.2,3.3,3.1,3.2c1.4,0,1.8,-.4,2.5,-1.2l-.1,-.2c-.5,.6,-1.2,1.1,-2.1,1.1Z" class="g0_291"/>
<path d="M375,224.3c0,-.5,-.4,-1,-1,-1c-.3,0,-.6,.2,-.9,.4c-.3,.2,-.6,.5,-.9,.9c0,-.7,-.4,-1.3,-1,-1.3c-1.1,0,-2.1,1.2,-2.4,2l.2,.1c.3,-.5,1,-1.7,1.9,-1.7c.3,0,.4,.6,.4,1c0,.3,0,.7,-.2,1.1l-.3,1.2c-.2,.6,-.4,1.4,-.7,1.8c-.2,.3,-.5,.7,-.8,.7c-.5,0,-.8,-.1,-.7,-.5c.1,-.3,.1,-.8,-.4,-.8c-.4,0,-.6,.4,-.6,.8c0,.6,.5,.9,1.1,.9c1,0,1.7,-.7,2.1,-1.4c.1,.8,.5,1.4,1.4,1.4c1.1,0,2,-1.1,2.4,-1.8l-.2,-.2c-.5,.7,-1.2,1.7,-2,1.7c-.4,0,-.6,-.6,-.6,-1.2c0,-.4,0,-.8,.2,-1.4l.2,-.7c.1,-.6,.3,-1.2,.6,-1.6c.2,-.3,.5,-1,.9,-1c.4,0,.4,.3,.4,.6c-.1,.4,.1,.6,.4,.6c.4,0,.5,-.3,.5,-.6Z" class="g0_291"/>
<path d="M388.4,227.9v-.8h-3.8l.9,-2.2h2.9v-.8h-2.6l1.1,-2.7H386l-1,2.7h-4.2v.8h3.8l-.8,2.2h-3v.8h2.6l-1,2.7h.8l1.1,-2.7h4.1Z" class="g0_291"/>
<path d="M400.7,224.3c0,-.5,-.4,-1,-1,-1c-.3,0,-.6,.2,-.9,.4c-.3,.2,-.6,.5,-.9,.9c0,-.7,-.4,-1.3,-1,-1.3c-1.1,0,-2.1,1.2,-2.5,2l.3,.1c.3,-.5,1,-1.7,1.9,-1.7c.3,0,.4,.6,.4,1c0,.3,0,.7,-.2,1.1l-.3,1.2c-.2,.6,-.4,1.4,-.7,1.8c-.2,.3,-.5,.7,-.8,.7c-.5,0,-.8,-.1,-.7,-.5c.1,-.3,.1,-.8,-.4,-.8c-.4,0,-.6,.4,-.6,.8c0,.6,.5,.9,1.1,.9c1,0,1.7,-.7,2.1,-1.4c.1,.8,.5,1.4,1.3,1.4c1.2,0,2.1,-1.1,2.5,-1.8l-.2,-.2c-.5,.7,-1.2,1.7,-2,1.7c-.4,0,-.6,-.6,-.6,-1.2c0,-.4,0,-.8,.2,-1.4l.1,-.7c.2,-.6,.4,-1.2,.7,-1.6c.2,-.3,.5,-1,.9,-1c.4,0,.4,.3,.4,.6c-.1,.4,.1,.6,.4,.6c.4,0,.5,-.3,.5,-.6Z" class="g0_291"/>
<path d="M403.9,225.3c0,-.2,-.3,-.5,-.6,-.5c-.3,0,-.5,.2,-.5,.5c0,.4,.2,.6,.5,.6c.3,0,.6,-.3,.6,-.6Zm-2.1,6.8c1,0,1.5,-.8,1.8,-1.4l-.2,-.1c-.2,.3,-.6,1.1,-1,1.1c-.1,0,-.3,-.2,-.3,-.3c0,-.2,.2,-.6,.2,-.8l.7,-2.1c.2,-.3,.2,-.4,.2,-.6c0,-.3,0,-.6,-.4,-.6c-.7,0,-1.5,.8,-1.7,1.4l.2,.1c.1,-.2,.5,-.8,.8,-.8c.2,0,.2,.1,.2,.2c0,.2,-.1,.5,-.1,.7l-.8,2c0,.3,-.1,.5,-.1,.7c0,.3,.1,.5,.5,.5Z" class="g0_291"/>
<path d="M411.4,225.6c.5,0,.9,-.4,.9,-.9c0,-.5,-.4,-.9,-.9,-.9c-.4,0,-.8,.4,-.8,.9c0,.5,.4,.9,.8,.9Zm0,4.3c.5,0,.9,-.3,.9,-.8c0,-.5,-.4,-.9,-.9,-.9c-.4,0,-.8,.4,-.8,.9c0,.4,.4,.8,.8,.8Z" class="g0_291"/>
<path d="M417.4,229.6l-.1,.2H422l.1,-.2c-.7,0,-1.1,-.1,-1.3,-.3c-.2,-.2,-.4,-.4,-.4,-.7c0,-.2,.1,-.5,.2,-.8l.8,-3.3h1.1c1.1,0,1.1,1.2,1,2.3h.3l.9,-4.3h-.3c-.4,.9,-.8,1.7,-2,1.7h-.9l1.2,-4.4h1.7c.3,0,.6,0,.8,.1c.8,.4,1.5,1.3,1.6,2.3h.3v-2.7h-7.3v.2c.4,0,.7,.1,.9,.3c.2,.1,.3,.3,.3,.6c0,.1,0,.3,0,.4c0,.2,-.1,.4,-.1,.6l-1.7,6.2c-.1,.4,-.1,.6,-.2,.8c-.2,.4,-.5,.7,-.8,.9c-.2,0,-.5,.1,-.8,.1Z" class="g0_291"/>
<path d="M433.2,219.2c-2.2,1.4,-3.7,3.8,-3.7,6.8c0,2.8,1.6,5.6,3.6,6.8l.2,-.2c-1.9,-1.6,-2.5,-3.4,-2.5,-6.6c0,-3.3,.6,-5.1,2.5,-6.6l-.1,-.2Z" class="g0_291"/>
<path d="M441.6,224.3c0,-.5,-.5,-1,-1,-1c-.4,0,-.7,.2,-1,.4c-.3,.2,-.6,.5,-.8,.9c0,-.7,-.5,-1.3,-1.1,-1.3c-1.1,0,-2.1,1.2,-2.4,2l.2,.1c.3,-.5,1.1,-1.7,2,-1.7c.2,0,.3,.6,.3,1c0,.3,0,.7,-.2,1.1l-.3,1.2c-.2,.6,-.4,1.4,-.7,1.8c-.2,.3,-.5,.7,-.8,.7c-.4,0,-.8,-.1,-.6,-.5c0,-.3,0,-.8,-.4,-.8c-.5,0,-.7,.4,-.7,.8c0,.6,.5,.9,1.1,.9c1,0,1.7,-.7,2.1,-1.4c.1,.8,.5,1.4,1.4,1.4c1.1,0,2,-1.1,2.4,-1.8l-.2,-.2c-.5,.7,-1.1,1.7,-1.9,1.7c-.5,0,-.7,-.6,-.7,-1.2c0,-.4,.1,-.8,.2,-1.4l.2,-.7c.1,-.6,.3,-1.2,.6,-1.6c.2,-.3,.6,-1,.9,-1c.5,0,.4,.3,.4,.6c0,.4,.1,.6,.5,.6c.3,0,.5,-.3,.5,-.6Z" class="g0_291"/>
<path d="M442.8,219.2l-.1,.2c1.9,1.5,2.5,3.3,2.5,6.6c0,3.2,-.5,5,-2.5,6.6l.2,.2c2,-1.2,3.6,-4,3.6,-6.8c0,-3,-1.5,-5.4,-3.7,-6.8Z" class="g0_291"/>
<path d="M452.7,227.9h7.6v-.8h-7.6Zm0,-3h7.6v-.8h-7.6Z" class="g0_291"/>
<path d="M477.7,216.9h-.3c-.3,1.9,-1,2.7,-2,2.7h-5.9l4.3,-5.5L470,208.4h4.8c1.1,0,1.7,.6,2,2.5h.4l-.1,-3.1h-8.9l4.5,6.5l-5.2,6.6h10l.2,-4Z" class="g0_291"/>
<path d="M484.7,212h.3l1.5,-6c.1,-.1,.2,-.3,.2,-.5c.1,-.2,.4,-.6,.6,-.8c.1,-.1,.4,-.1,.5,-.1l.1,-.1h-2.3v.1c.2,0,.4,.1,.6,.3c.1,.1,.1,.6,.1,.8c0,.1,0,.3,0,.4l-1.1,4v.1l-2.5,-5.7h-2v.1c.4,0,.5,0,.7,.2c.2,.3,.4,.7,.4,1c0,.1,0,.2,-.1,.3l-1.1,4.4c-.1,.4,-.4,.7,-.6,1c-.3,.2,-.7,.4,-1,.4v.1h2.8v-.1c-.3,-.1,-.6,-.1,-.7,-.3c-.2,-.1,-.3,-.5,-.3,-.7c0,-.2,0,-.3,0,-.5l1.2,-4.3v-.2l2.7,6.1Z" class="g0_291"/>
<path d="M482,216.3c0,-.3,-.3,-.6,-.6,-.6c-.3,0,-.5,.3,-.5,.6c0,.3,.2,.5,.5,.5c.3,0,.6,-.3,.6,-.5Zm-2.1,6.8c1,-.1,1.5,-.9,1.7,-1.5l-.1,-.1c-.2,.3,-.6,1.1,-1,1.1c-.2,0,-.3,-.2,-.3,-.3c0,-.2,.2,-.6,.2,-.8l.7,-2c.1,-.4,.2,-.5,.2,-.7c0,-.3,0,-.6,-.4,-.6c-.7,0,-1.5,.8,-1.7,1.4l.2,.1c.1,-.2,.5,-.8,.8,-.8c.2,0,.2,.1,.2,.2c0,.2,-.1,.5,-.1,.7l-.8,2c-.1,.3,-.1,.5,-.1,.7c0,.4,.1,.6,.5,.6Z" class="g0_291"/>
<path d="M483.2,221.6h5.5V221h-5.5Zm0,-2.2h5.5v-.6h-5.5Z" class="g0_291"/>
<path d="M492.2,222.9c-1.4,0,-1.4,-2,-1.4,-3.6c0,-1.6,0,-3.8,1.4,-3.8c1.4,0,1.4,2.2,1.4,3.8c0,1.6,0,3.6,-1.4,3.6Zm0,-7.6c-1.9,0,-2.4,2,-2.4,4c0,1.9,.6,3.8,2.4,3.8c1.9,0,2.5,-1.9,2.5,-3.8c0,-2,-.6,-4,-2.5,-4Z" class="g0_291"/>
<path d="M497.5,220.4c0,.6,.5,1,1.1,1c.4,0,.8,-.2,1.3,-.6c.8,-.7,2,-2.2,2.8,-3.5c.3,-.6,.7,-1.2,1,-1.7c.4,-.8,1.1,-2.2,1.1,-3c0,-.2,0,-.4,-.1,-.6c-.1,-.2,-.3,-.2,-.5,-.2c-.1,0,-.3,0,-.4,.2c-.2,.1,-.2,.3,-.2,.6c0,.5,.2,.9,.2,1.3c0,.6,-.2,1.2,-.5,1.6c-.2,.5,-.4,.9,-.8,1.4h-.1l-.3,-1.9c-.1,-.5,-.3,-1.6,-.4,-2c-.2,-.7,-.3,-1.2,-1.3,-1.2c-1.2,0,-1.4,1.7,-1.6,2.5l.3,.1c.1,-.6,.5,-2.3,1,-2.3c.3,0,.5,1,.6,1.3c0,.3,.1,.7,.2,1.3l.6,3.5c-.3,.8,-1.2,1.7,-1.8,2.2c-.2,.2,-.5,.2,-.7,.2c-.1,0,-.2,0,-.2,-.1c-.2,-.3,-.2,-.8,-.7,-.8c-.4,0,-.6,.3,-.6,.7Z" class="g0_291"/>
<path d="M508,213.8c0,-.3,-.3,-.6,-.6,-.6c-.3,0,-.5,.3,-.5,.6c0,.3,.3,.5,.5,.5c.3,0,.6,-.3,.6,-.5Zm-2.1,6.8c1,0,1.5,-.9,1.8,-1.5l-.2,-.1c-.2,.3,-.6,1.1,-1,1.1c-.1,0,-.2,-.2,-.2,-.3c0,-.2,.1,-.6,.2,-.8l.7,-2c.1,-.3,.1,-.5,.1,-.7c0,-.3,0,-.6,-.3,-.6c-.7,0,-1.5,.9,-1.8,1.4l.2,.1c.2,-.2,.6,-.8,.9,-.8c.1,0,.2,.1,.2,.2c0,.2,-.1,.5,-.2,.7l-.7,2c-.1,.3,-.2,.5,-.2,.7c0,.4,.2,.6,.5,.6Z" class="g0_291"/>
<path d="M511.4,215.2c.2,-.6,.7,-1.8,1.1,-2.2c.2,-.3,.8,-.9,1.2,-.9c.6,0,.6,.4,.6,.8c0,1.1,-2,1.9,-2.9,2.3Zm2.5,-3.5c-.7,0,-1.3,.6,-1.8,1.2H512l1.5,-5.6l-2.3,.1l-.1,.2c.6,0,1.1,.2,1.1,.6c0,.1,0,.2,-.1,.5l-2.6,9.5h1l.8,-2.6l.3,-.1l.8,1.9c.2,.4,.3,.6,.4,.8c.2,.1,.3,.2,.5,.2c1,0,1.3,-.6,1.8,-1.9l-.2,-.1c-.3,.6,-.6,1.2,-1,1.2c-.2,0,-.4,-.5,-.6,-1l-.7,-1.6l.4,-.1c.6,-.3,1.2,-.7,1.6,-1c.4,-.4,.6,-.8,.6,-1.2c0,-.6,-.5,-1,-1.3,-1Z" class="g0_291"/>
<path d="M518.7,213.8c0,-.3,-.3,-.6,-.6,-.6c-.3,0,-.5,.3,-.5,.6c0,.3,.3,.5,.5,.5c.3,0,.6,-.3,.6,-.5Zm-2.1,6.8c1,0,1.5,-.9,1.8,-1.5l-.2,-.1c-.2,.3,-.6,1.1,-1,1.1c-.1,0,-.2,-.2,-.2,-.3c0,-.2,.1,-.6,.2,-.8l.7,-2c.1,-.3,.1,-.5,.1,-.7c0,-.3,0,-.6,-.3,-.6c-.7,0,-1.5,.9,-1.8,1.4l.2,.1c.2,-.2,.6,-.8,.9,-.8c.1,0,.2,.1,.2,.2c0,.2,-.1,.5,-.2,.7l-.7,2c-.1,.3,-.2,.5,-.2,.7c0,.4,.2,.6,.5,.6Z" class="g0_291"/>
<path d="M525.4,207.6c-2.2,1.4,-3.7,3.8,-3.7,6.8c0,2.8,1.6,5.6,3.6,6.8l.2,-.2c-2,-1.5,-2.5,-3.3,-2.5,-6.6c0,-3.3,.6,-5,2.5,-6.6l-.1,-.2Z" class="g0_291"/>
<path d="M533.7,212.7c0,-.5,-.4,-.9,-1,-.9c-.3,0,-.6,.1,-.9,.3c-.3,.2,-.6,.5,-.9,.9c0,-.7,-.4,-1.2,-1,-1.2c-1.1,0,-2.1,1.1,-2.5,1.9l.3,.1c.3,-.5,1,-1.7,1.9,-1.7c.3,0,.4,.6,.4,1c0,.3,0,.7,-.2,1.2l-.3,1.1c-.2,.6,-.4,1.4,-.7,1.8c-.2,.3,-.5,.7,-.8,.7c-.5,0,-.8,-.1,-.7,-.5c.1,-.3,.1,-.7,-.4,-.7c-.4,0,-.6,.3,-.6,.7c0,.6,.5,1,1.1,1c1,0,1.7,-.8,2.1,-1.5c.1,.8,.5,1.5,1.3,1.5c1.2,0,2.1,-1.2,2.5,-1.9l-.2,-.1c-.5,.6,-1.2,1.6,-2,1.6c-.4,0,-.6,-.6,-.6,-1.2c0,-.4,0,-.8,.2,-1.4l.1,-.7c.2,-.5,.4,-1.2,.7,-1.6c.1,-.3,.5,-.9,.9,-.9c.4,0,.4,.3,.4,.6c-.1,.4,.1,.6,.4,.6c.4,0,.5,-.3,.5,-.7Z" class="g0_291"/>
<path d="M535,207.6l-.1,.2c1.9,1.6,2.5,3.3,2.5,6.6c0,3.3,-.5,5.1,-2.5,6.6l.2,.2c2,-1.2,3.6,-4,3.6,-6.8c0,-3,-1.5,-5.4,-3.7,-6.8Z" class="g0_291"/>
<path d="M466.9,226.4h73.3v-.8H466.9Z" class="g0_291"/>
<path d="M483.2,241.4h-.3c-.3,1.9,-1,2.7,-2,2.7H475l4.4,-5.5l-3.9,-5.7h4.8c1.1,0,1.7,.6,2.1,2.5h.3l-.1,-3.1h-8.9l4.5,6.5l-5.1,6.6H483l.2,-4Z" class="g0_291"/>
<path d="M490.2,236.5h.3l1.5,-6c.1,-.1,.2,-.3,.2,-.4c.2,-.3,.4,-.7,.6,-.9c.1,-.1,.4,-.1,.5,-.1l.1,-.1h-2.3v.1c.2,0,.4,.1,.6,.3c.1,.2,.1,.6,.1,.8c0,.1,0,.3,0,.4l-1.1,4v.1L488.2,229h-2v.1c.4,0,.6,.1,.7,.2c.2,.3,.4,.7,.4,1c0,.1,0,.2,-.1,.3l-1.1,4.4c-.1,.4,-.4,.7,-.6,1c-.3,.2,-.7,.4,-1,.4v.1h2.8v-.1c-.3,-.1,-.6,-.1,-.7,-.3c-.2,-.1,-.3,-.5,-.3,-.7c0,-.2,0,-.3,0,-.5l1.2,-4.3v-.2l2.7,6.1Z" class="g0_291"/>
<path d="M487.5,240.8c0,-.3,-.3,-.6,-.6,-.6c-.3,0,-.5,.3,-.5,.6c0,.3,.2,.5,.5,.5c.3,0,.6,-.3,.6,-.5Zm-2.1,6.8c1,-.1,1.5,-.9,1.8,-1.5L487,246c-.2,.3,-.6,1.1,-1,1.1c-.1,0,-.3,-.2,-.3,-.3c0,-.2,.2,-.6,.2,-.8l.7,-2c.2,-.3,.2,-.5,.2,-.7c0,-.3,0,-.6,-.4,-.6c-.7,0,-1.5,.9,-1.7,1.4l.2,.1c.2,-.2,.6,-.8,.8,-.8c.2,0,.2,.1,.2,.2c0,.2,-.1,.5,-.1,.7l-.8,2c0,.3,-.1,.5,-.1,.7c0,.4,.1,.6,.5,.6Z" class="g0_291"/>
<path d="M488.7,246.1h5.5v-.6h-5.5Zm0,-2.2h5.5v-.6h-5.5Z" class="g0_291"/>
<path d="M497.7,247.4c-1.4,0,-1.4,-2,-1.4,-3.6c0,-1.6,0,-3.8,1.4,-3.8c1.4,0,1.4,2.2,1.4,3.8c0,1.6,0,3.6,-1.4,3.6Zm0,-7.6c-1.9,0,-2.4,2,-2.4,4c0,1.9,.6,3.8,2.4,3.8c1.9,0,2.5,-1.9,2.5,-3.8c0,-2,-.6,-4,-2.5,-4Z" class="g0_291"/>
<path d="M505.9,239.7c.2,-.6,.7,-1.8,1,-2.2c.3,-.3,.9,-.9,1.3,-.9c.6,0,.6,.5,.6,.8c0,1.1,-2,1.9,-2.9,2.3Zm2.5,-3.4c-.7,0,-1.3,.5,-1.8,1.1h-.1l1.5,-5.6l-2.3,.1l-.1,.2c.6,0,1.1,.2,1.1,.6c0,.1,0,.3,-.1,.5l-2.6,9.5h1l.7,-2.6l.4,-.1l.8,1.9c.2,.4,.3,.6,.4,.8c.2,.1,.3,.2,.5,.2c1,0,1.3,-.6,1.8,-1.8l-.2,-.2c-.3,.6,-.6,1.3,-1,1.3c-.2,0,-.4,-.6,-.6,-1.1l-.7,-1.6l.4,-.1c.6,-.3,1.2,-.7,1.6,-1c.4,-.4,.6,-.8,.6,-1.2c0,-.6,-.5,-.9,-1.3,-.9Z" class="g0_291"/>
<path d="M513.2,238.3c0,-.3,-.3,-.6,-.6,-.6c-.3,0,-.5,.3,-.5,.6c0,.3,.3,.5,.5,.5c.3,0,.6,-.3,.6,-.5Zm-2.1,6.8c1,0,1.5,-.9,1.8,-1.5l-.2,-.1c-.2,.3,-.6,1.1,-1,1.1c-.1,0,-.2,-.2,-.2,-.3c0,-.2,.1,-.6,.2,-.8l.7,-2c.1,-.3,.1,-.5,.1,-.7c0,-.3,0,-.5,-.3,-.5c-.7,0,-1.5,.8,-1.8,1.3l.2,.1c.2,-.2,.6,-.8,.8,-.8c.2,0,.2,.1,.2,.2c.1,.2,0,.5,-.1,.7l-.7,2.1c-.1,.2,-.2,.5,-.2,.6c0,.4,.2,.6,.5,.6Z" class="g0_291"/>
<path d="M519.9,232.1c-2.2,1.4,-3.7,3.8,-3.7,6.8c0,2.8,1.6,5.6,3.6,6.8l.2,-.2c-2,-1.5,-2.5,-3.3,-2.5,-6.6c0,-3.3,.6,-5,2.5,-6.6l-.1,-.2Z" class="g0_291"/>
<path d="M528.2,237.2c0,-.5,-.4,-.9,-1,-.9c-.3,0,-.6,.1,-.9,.3c-.3,.2,-.6,.5,-.9,.9c0,-.7,-.4,-1.2,-1,-1.2c-1.2,0,-2.1,1.1,-2.5,1.9l.2,.1c.4,-.5,1.1,-1.7,2,-1.7c.3,0,.4,.6,.4,1c0,.3,-.1,.7,-.2,1.2L524,240c-.2,.5,-.4,1.3,-.8,1.7c-.1,.3,-.4,.7,-.7,.7c-.5,0,-.8,-.1,-.7,-.5c.1,-.3,0,-.7,-.4,-.7c-.4,0,-.6,.3,-.6,.7c0,.6,.5,1,1,1c1.1,0,1.8,-.8,2.2,-1.5c.1,.8,.5,1.5,1.3,1.5c1.2,0,2.1,-1.2,2.5,-1.9l-.2,-.1c-.5,.6,-1.2,1.6,-2,1.6c-.4,0,-.6,-.6,-.6,-1.2c0,-.4,0,-.8,.2,-1.3l.1,-.8c.1,-.5,.4,-1.2,.7,-1.6c.1,-.3,.5,-.9,.9,-.9c.4,0,.4,.3,.4,.6c-.1,.4,.1,.6,.4,.6c.4,0,.5,-.3,.5,-.7Z" class="g0_291"/>
<path d="M529.5,232.1l-.1,.2c1.9,1.6,2.5,3.3,2.5,6.6c0,3.3,-.6,5.1,-2.5,6.6l.2,.2c2,-1.2,3.6,-4,3.6,-6.8c0,-3,-1.5,-5.4,-3.7,-6.8Z" class="g0_291"/>
<path d="M543.1,229c0,.4,.3,.8,.7,.8c.2,0,.3,0,.4,-.1c0,.4,0,.7,-.2,1.1c-.3,.3,-.6,.6,-1.1,.9l.3,.5c.4,-.3,.6,-.5,.9,-.7c.5,-.5,.9,-1,.9,-2c0,-.9,-.3,-1.3,-.9,-1.3c-.6,0,-1,.3,-1,.8Zm.9,-3.4c.5,0,.9,-.4,.9,-.9c0,-.5,-.4,-.9,-.9,-.9c-.5,0,-.9,.4,-.9,.9c0,.5,.4,.9,.9,.9Z" class="g0_291"/>
<path d="M548.5,229.6l-.1,.2h4.7l.1,-.2c-.6,0,-1,-.1,-1.3,-.3c-.2,-.2,-.3,-.4,-.3,-.7c0,-.2,0,-.5,.1,-.8l.9,-3.3h1c1.1,0,1.1,1.2,1,2.3h.3l.9,-4.3h-.2c-.5,.9,-.9,1.7,-2,1.7h-.9l1.1,-4.4h1.7c.3,0,.6,0,.8,.1c.8,.4,1.5,1.3,1.6,2.3h.3v-2.7h-7.3v.2c.4,0,.8,.1,1,.3c.1,.1,.3,.3,.3,.6c0,.1,-.1,.3,-.1,.4c0,.2,-.1,.4,-.1,.6l-1.7,6.2c0,.4,-.1,.6,-.2,.8c-.2,.4,-.5,.7,-.8,.9c-.2,0,-.5,.1,-.8,.1Z" class="g0_291"/>
<path d="M564.3,219.2c-2.2,1.4,-3.7,3.8,-3.7,6.8c0,2.8,1.6,5.6,3.7,6.8l.1,-.2c-1.9,-1.6,-2.5,-3.4,-2.5,-6.6c0,-3.3,.6,-5.1,2.5,-6.6l-.1,-.2Z" class="g0_291"/>
<path d="M572.7,224.3c0,-.5,-.5,-1,-1,-1c-.3,0,-.7,.2,-1,.4c-.3,.2,-.6,.5,-.8,.9c0,-.7,-.4,-1.3,-1.1,-1.3c-1.1,0,-2.1,1.2,-2.4,2l.2,.1c.4,-.5,1.1,-1.7,2,-1.7c.2,0,.4,.6,.4,1c0,.3,-.1,.7,-.3,1.1l-.3,1.2c-.2,.6,-.4,1.4,-.7,1.8c-.2,.3,-.4,.7,-.8,.7c-.4,0,-.7,-.1,-.6,-.5c.1,-.3,0,-.8,-.4,-.8c-.5,0,-.7,.4,-.7,.8c0,.6,.5,.9,1.1,.9c1,0,1.7,-.7,2.1,-1.4h.1c.1,.8,.5,1.4,1.3,1.4c1.2,0,2,-1.1,2.4,-1.8l-.2,-.2c-.4,.7,-1.1,1.7,-1.9,1.7c-.5,0,-.7,-.6,-.7,-1.2c0,-.4,.1,-.8,.2,-1.4l.2,-.7c.1,-.6,.3,-1.2,.6,-1.6c.2,-.3,.6,-1,1,-1c.4,0,.3,.3,.3,.6c0,.4,.1,.6,.5,.6c.3,0,.5,-.3,.5,-.6Z" class="g0_291"/>
<path d="M575.8,225.3c0,-.2,-.3,-.5,-.6,-.5c-.3,0,-.5,.2,-.5,.5c0,.4,.3,.6,.5,.6c.3,0,.6,-.3,.6,-.6Zm-2.1,6.8c1,0,1.5,-.8,1.8,-1.4l-.2,-.1c-.2,.3,-.6,1.1,-1,1.1c-.1,0,-.2,-.2,-.2,-.3c0,-.2,.1,-.6,.2,-.8l.7,-2.1c.1,-.3,.1,-.4,.1,-.6c0,-.3,0,-.6,-.3,-.6c-.7,0,-1.5,.8,-1.8,1.4l.2,.1c.2,-.2,.6,-.8,.9,-.8c.1,0,.2,.1,.2,.2c0,.2,-.1,.5,-.2,.7l-.7,2c-.1,.3,-.2,.5,-.2,.7c0,.3,.2,.5,.5,.5Z" class="g0_291"/>
<path d="M577.9,219.2l-.1,.2c1.9,1.5,2.5,3.3,2.5,6.6c0,3.2,-.6,5,-2.5,6.6l.1,.2c2.1,-1.2,3.7,-4,3.7,-6.8c0,-3,-1.6,-5.4,-3.7,-6.8Z" class="g0_291"/>
<path d="M587.8,227.9h7.6v-.8h-7.6Zm0,-3h7.6v-.8h-7.6Z" class="g0_291"/>
<path d="M599.1,232c0,.6,.5,.9,1.1,.9c.5,0,.8,-.1,1.3,-.5c.8,-.7,2.1,-2.3,2.8,-3.5c.4,-.6,.8,-1.2,1.1,-1.8c.3,-.7,1.1,-2.1,1.1,-2.9c0,-.2,-.1,-.4,-.2,-.6c-.1,-.2,-.2,-.3,-.4,-.3c-.2,0,-.3,.1,-.5,.2c-.1,.2,-.2,.4,-.2,.7c0,.4,.2,.9,.2,1.3c0,.6,-.2,1.1,-.4,1.6c-.3,.5,-.5,.9,-.8,1.4h-.1l-.3,-1.9c-.1,-.6,-.4,-1.6,-.5,-2.1c-.2,-.6,-.3,-1.2,-1.3,-1.2c-1.1,0,-1.3,1.8,-1.6,2.6l.3,.1c.1,-.6,.6,-2.3,1.1,-2.3c.3,0,.4,1,.5,1.2c.1,.3,.2,.7,.3,1.4l.6,3.5c-.4,.8,-1.2,1.7,-1.8,2.2c-.2,.1,-.6,.2,-.7,.2c-.1,0,-.2,0,-.3,-.1c-.2,-.3,-.2,-.8,-.7,-.8c-.4,0,-.6,.3,-.6,.7Z" class="g0_291"/>
<path d="M609.7,225.3c0,-.2,-.3,-.5,-.6,-.5c-.3,0,-.6,.2,-.6,.5c0,.4,.3,.6,.6,.6c.3,0,.6,-.3,.6,-.6Zm-2.1,6.8c1,0,1.5,-.8,1.7,-1.4l-.2,-.1c-.1,.3,-.5,1.1,-1,1.1c-.1,0,-.2,-.2,-.2,-.3c0,-.2,.1,-.6,.2,-.8l.7,-2.1c.1,-.3,.2,-.4,.2,-.6c0,-.3,0,-.6,-.4,-.6c-.7,0,-1.5,.8,-1.7,1.4l.2,.1c.1,-.2,.5,-.8,.8,-.8c.2,0,.2,.1,.2,.2c0,.2,-.1,.5,-.1,.7l-.8,2c-.1,.3,-.1,.5,-.1,.7c0,.3,.1,.5,.5,.5Z" class="g0_291"/>
<path d="M264.3,653.3v-2.9c.8,0,1.2,0,1.7,.3c.4,.3,.7,.8,.8,1.5h.3v-4h-.3c0,.4,-.1,.7,-.2,.9c-.4,.7,-1.2,.9,-2.3,.9v-4.5c0,-.1,.1,-.2,.2,-.2h1.7c.9,0,1.7,.3,2.1,.6c.5,.3,.8,.9,.9,1.6h.2l-.1,-2.5h-7.7v.2c.4,0,.8,.2,1.1,.4c.2,.3,.2,.7,.2,1.2v6.6c0,.5,0,1,-.3,1.2c-.2,.3,-.7,.5,-1.2,.5v.2h4.8v-.2c-.7,0,-1.3,-.2,-1.6,-.5c-.3,-.2,-.3,-.7,-.3,-1.3Z" class="g0_291"/>
<path d="M273.3,649.1c1.3,0,2,1.6,2,3c0,1.7,-.8,3.1,-2,3.1c-1.6,0,-1.9,-1.6,-1.9,-3.1c0,-1.4,.6,-3,1.9,-3Zm0,-.3c-.4,0,-.8,.1,-1.3,.3c-1.1,.4,-2,1.4,-2,3c0,.5,.1,.9,.3,1.3c.5,1.1,1.2,2,3,2c1.1,0,1.9,-.4,2.4,-.9c.5,-.6,1,-1.3,1,-2.4c0,-.5,-.1,-.9,-.3,-1.3c-.5,-1.1,-1.5,-2,-3.1,-2Z" class="g0_291"/>
<path d="M283,649.5c0,-.4,-.4,-.7,-.9,-.7c-.2,0,-.4,.1,-.6,.2c-.6,.2,-1.2,.8,-1.5,1.4l-.2,-1.4l-2.1,.4v.2c.2,0,.6,.2,.7,.3c.2,.2,.3,.4,.4,.9c0,.3,0,.7,0,1.3v1.6c0,.4,0,.6,0,.8c-.1,.6,-.4,.6,-1.1,.6v.2h3.2v-.2c-.2,0,-.3,0,-.5,-.1c-.5,-.2,-.4,-.6,-.4,-1.3v-1c0,-1.1,.1,-2.1,.6,-2.7c.2,-.3,.5,-.4,.7,-.4c.6,0,.5,.5,1,.5c.4,0,.7,-.2,.7,-.6Z" class="g0_291"/>
<path d="M288.8,655.4c1.1,0,1.7,-.5,2.1,-1.3c0,.8,.3,1.3,1.1,1.3c.6,0,1.1,-.2,1.3,-.6l-.1,-.2c-.1,.2,-.4,.4,-.7,.4c-.4,0,-.5,-.4,-.5,-1.3v-3c0,-1.5,-.7,-1.9,-2.2,-1.9c-1.3,0,-2.5,.7,-2.5,1.2c0,.4,.1,.7,.6,.7c.4,0,.6,-.3,.7,-.6c.1,-.3,.1,-.5,.2,-.7c.2,-.1,.5,-.3,.8,-.3c1.3,0,1.2,.7,1.2,1.7v.4l-1.7,.8c-.6,.3,-1.1,.5,-1.5,1c-.3,.2,-.4,.6,-.4,1c0,.9,.7,1.4,1.6,1.4Zm-.4,-1.6c0,-.5,.2,-.8,.5,-1.1c.5,-.5,1.1,-.8,1.9,-1.2v1.7c0,.5,-.2,.9,-.4,1.3c-.2,.3,-.7,.5,-1.2,.5c-.5,0,-.8,-.6,-.8,-1.2Z" class="g0_291"/>
<path d="M295.8,653.7v-9.3l-2.2,.4v.2c.1,0,.5,.2,.8,.4c.2,.3,.3,.3,.3,2v6.4c0,.3,0,.5,0,.7c-.1,.5,-.5,.6,-1.1,.6v.2h3.3v-.2c-.2,0,-.4,0,-.6,0c-.5,-.2,-.5,-.7,-.5,-1.4Z" class="g0_291"/>
<path d="M299.7,653.7v-9.3l-2.2,.4v.2c.2,0,.5,.2,.8,.4c.2,.3,.3,.3,.3,2v6.4c0,.3,0,.5,0,.7c-.1,.5,-.5,.6,-1.1,.6v.2h3.3v-.2c-.2,0,-.4,0,-.6,0c-.5,-.2,-.5,-.7,-.5,-1.4Z" class="g0_291"/>
<path d="M312.2,649.8c0,-.5,-.4,-1,-1,-1c-.3,0,-.6,.2,-.9,.4c-.4,.2,-.7,.5,-.9,.9c0,-.7,-.4,-1.3,-1,-1.3c-1.2,0,-2.1,1.2,-2.5,2l.2,.1c.4,-.5,1.1,-1.7,2,-1.7c.3,0,.4,.6,.4,1c0,.3,-.1,.7,-.2,1.1l-.4,1.2c-.1,.6,-.4,1.4,-.7,1.8c-.1,.3,-.4,.7,-.8,.7c-.4,0,-.7,-.1,-.6,-.5c.1,-.3,0,-.8,-.4,-.8c-.4,0,-.6,.4,-.6,.8c0,.6,.4,.9,1,.9c1,0,1.8,-.7,2.2,-1.4c.1,.8,.5,1.4,1.3,1.4c1.2,0,2,-1.1,2.5,-1.8l-.2,-.2c-.5,.7,-1.2,1.7,-2,1.7c-.4,0,-.6,-.6,-.6,-1.2c0,-.4,0,-.8,.1,-1.4l.2,-.7c.1,-.6,.4,-1.2,.6,-1.6c.2,-.3,.6,-1,1,-1c.4,0,.4,.3,.3,.6c0,.4,.2,.6,.5,.6c.4,0,.5,-.3,.5,-.6Z" class="g0_291"/>
<path d="M325.4,649.7c0,.3,0,.4,0,.6c-.1,.3,-.3,.7,-.5,1.2l-.8,2H324L322.4,649h-.3l-1.8,4.5l-1,-3c0,-.2,0,-.3,0,-.4c-.1,-.1,-.1,-.3,-.1,-.3c0,-.5,.4,-.6,.9,-.6V649H317v.2c.3,0,.6,.1,.7,.3c.2,.2,.3,.5,.4,.9l1.5,5h.3l1.9,-4.8v.1l1.7,4.7h.2l1.8,-4.6c.2,-.6,.3,-.9,.6,-1.2c.1,-.2,.5,-.4,.8,-.4V649h-2.4v.2c.5,0,.9,.1,.9,.5Z" class="g0_291"/>
<path d="M329.5,653.7v-2.5c0,-.4,.1,-.7,.2,-.9c.4,-.5,1,-1.1,1.8,-1.1c1.2,0,1.3,1.3,1.3,2.8v1.7c0,.4,0,.6,0,.8c-.1,.5,-.3,.6,-1,.6v.2H335v-.2c-.2,0,-.4,0,-.5,0c-.5,-.2,-.5,-.8,-.5,-1.4v-2.2c0,-.9,-.1,-1.5,-.4,-1.9c-.3,-.5,-1,-.8,-1.7,-.8c-1.1,0,-1.9,.6,-2.4,1.3v-5.7l-2.2,.4v.2c.3,0,.8,.3,.9,.5q0,.1,0,.2c.1,.2,.1,.4,.1,.7c0,.3,0,.6,0,1.1v6.2c0,.5,0,.9,-.1,1.2c-.2,.2,-.5,.2,-.9,.2v.2h3.2v-.2c-.2,0,-.4,0,-.5,0c-.5,-.2,-.5,-.7,-.5,-1.4Z" class="g0_291"/>
<path d="M340.3,650.7c0,0,0,.1,0,.2c-.1,.2,-.5,.1,-.7,.1h-2.3c.2,-1,.7,-1.9,1.7,-1.9c1,0,1.3,.8,1.3,1.6Zm-1,4.4c-1.4,0,-2.1,-1.5,-2.1,-3.1c0,-.1,.1,-.5,.1,-.7h3.9c.3,0,.4,0,.4,-.2c0,-1.6,-.9,-2.3,-2.4,-2.3c-.5,0,-1,.1,-1.4,.3c-1.1,.5,-1.9,1.5,-1.9,3.1c0,1.9,1.2,3.3,3.1,3.2c1.4,0,1.8,-.4,2.5,-1.2l-.1,-.2c-.5,.6,-1.2,1.1,-2.1,1.1Z" class="g0_291"/>
<path d="M347.8,649.5c0,-.4,-.3,-.7,-.8,-.7c-.2,0,-.4,.1,-.6,.2c-.7,.2,-1.2,.8,-1.5,1.4l-.2,-1.4l-2.1,.4v.2c.2,0,.5,.2,.7,.3c.2,.2,.3,.4,.3,.9c.1,.3,.1,.7,.1,1.3v1.6c0,.4,-.1,.6,-.1,.8c-.1,.6,-.3,.6,-1,.6v.2h3.2v-.2c-.2,0,-.4,0,-.5,-.1c-.5,-.2,-.5,-.6,-.5,-1.3v-1c0,-1.1,.2,-2.1,.7,-2.7c.2,-.3,.5,-.4,.7,-.4c.5,0,.5,.5,.9,.5c.4,0,.7,-.2,.7,-.6Z" class="g0_291"/>
<path d="M352.8,650.7c0,0,0,.1,0,.2c-.1,.2,-.4,.1,-.7,.1h-2.2c.2,-1,.6,-1.9,1.6,-1.9c1,0,1.3,.8,1.3,1.6Zm-.9,4.4c-1.5,0,-2.2,-1.5,-2.2,-3.1c0,-.1,.1,-.5,.1,-.7h3.9c.3,0,.4,0,.4,-.2c0,-1.6,-.9,-2.3,-2.4,-2.3c-.5,0,-1,.1,-1.4,.3c-1.1,.5,-1.9,1.5,-1.9,3.1c0,1.9,1.2,3.3,3.1,3.2c1.4,0,1.8,-.4,2.6,-1.2l-.2,-.2c-.5,.6,-1.1,1.1,-2,1.1Z" class="g0_291"/>
<path d="M365.8,649.8c0,-.5,-.5,-1,-1,-1c-.4,0,-.7,.2,-1,.4c-.3,.2,-.6,.5,-.8,.9c0,-.7,-.5,-1.3,-1.1,-1.3c-1.1,0,-2.1,1.2,-2.4,2l.2,.1c.3,-.5,1.1,-1.7,2,-1.7c.2,0,.3,.6,.3,1c0,.3,0,.7,-.2,1.1l-.3,1.2c-.2,.6,-.4,1.4,-.7,1.8c-.2,.3,-.5,.7,-.8,.7c-.4,0,-.8,-.1,-.6,-.5c0,-.3,0,-.8,-.5,-.8c-.4,0,-.6,.4,-.6,.8c0,.6,.5,.9,1.1,.9c1,0,1.7,-.7,2.1,-1.4c.1,.8,.5,1.4,1.4,1.4c1.1,0,2,-1.1,2.4,-1.8l-.2,-.2c-.5,.7,-1.1,1.7,-1.9,1.7c-.5,0,-.7,-.6,-.7,-1.2c0,-.4,.1,-.8,.2,-1.4l.2,-.7c.1,-.6,.3,-1.2,.6,-1.6c.2,-.3,.6,-1,.9,-1c.4,0,.4,.3,.4,.6c0,.4,.1,.6,.5,.6c.3,0,.5,-.3,.5,-.6Z" class="g0_291"/>
<path d="M379.2,653.4v-.8h-3.8l.8,-2.2h3v-.8h-2.6l1,-2.7h-.9l-1,2.7h-4.2v.8h3.8l-.8,2.2h-3v.8h2.6l-1,2.7h.9l1,-2.7h4.2Z" class="g0_291"/>
<path d="M391.5,649.8c0,-.5,-.5,-1,-1,-1c-.4,0,-.7,.2,-1,.4c-.3,.2,-.6,.5,-.8,.9c0,-.7,-.5,-1.3,-1.1,-1.3c-1.1,0,-2.1,1.2,-2.4,2l.2,.1c.3,-.5,1.1,-1.7,1.9,-1.7c.3,0,.4,.6,.4,1c0,.3,0,.7,-.2,1.1l-.3,1.2c-.2,.6,-.4,1.4,-.7,1.8c-.2,.3,-.5,.7,-.8,.7c-.4,0,-.8,-.1,-.7,-.5c.1,-.3,.1,-.8,-.4,-.8c-.4,0,-.6,.4,-.6,.8c0,.6,.5,.9,1.1,.9c1,0,1.7,-.7,2.1,-1.4c.1,.8,.5,1.4,1.4,1.4c1.1,0,2,-1.1,2.4,-1.8l-.2,-.2c-.5,.7,-1.1,1.7,-1.9,1.7c-.5,0,-.7,-.6,-.7,-1.2c0,-.4,.1,-.8,.2,-1.4l.2,-.7c.1,-.6,.3,-1.2,.6,-1.6c.2,-.3,.6,-1,.9,-1c.4,0,.4,.3,.4,.6c0,.4,.1,.6,.4,.6c.4,0,.6,-.3,.6,-.6Z" class="g0_291"/>
<path d="M394.6,650.9c0,-.3,-.3,-.6,-.6,-.6c-.3,0,-.5,.2,-.5,.6c0,.3,.2,.5,.5,.5c.3,0,.6,-.3,.6,-.5Zm-2.1,6.7c1,0,1.5,-.8,1.8,-1.4l-.2,-.1c-.2,.3,-.6,1.1,-1,1.1c-.1,0,-.3,-.2,-.3,-.3c0,-.2,.2,-.6,.2,-.8l.8,-2.1c.1,-.3,.1,-.4,.1,-.6c0,-.3,0,-.6,-.4,-.6c-.6,0,-1.5,.8,-1.7,1.4l.2,.1c.2,-.2,.6,-.8,.8,-.8c.2,0,.2,.1,.2,.2c.1,.2,0,.5,-.1,.7l-.7,2c-.1,.3,-.2,.5,-.2,.7c0,.3,.2,.5,.5,.5Z" class="g0_291"/>
<path d="M402.2,651.1c.5,0,.8,-.4,.8,-.9c0,-.5,-.3,-.9,-.8,-.9c-.5,0,-.9,.4,-.9,.9c0,.5,.4,.9,.9,.9Zm0,4.4c.5,0,.8,-.4,.8,-.9c0,-.5,-.3,-.9,-.8,-.9c-.5,0,-.9,.4,-.9,.9c0,.4,.4,.9,.9,.9Z" class="g0_291"/>
<path d="M408.1,655.1l-.1,.2h4.7l.1,-.2c-.6,0,-1,-.1,-1.3,-.3c-.2,-.2,-.3,-.4,-.3,-.7c0,-.2,0,-.5,.1,-.8l.9,-3.3h1c1.1,0,1.1,1.2,1,2.3h.3l.9,-4.3h-.2c-.5,.9,-.9,1.7,-2,1.7h-.9l1.1,-4.4h1.7c.3,0,.6,0,.8,.1c.8,.4,1.5,1.3,1.6,2.3h.3V645h-7.3v.2c.4,0,.8,.1,1,.3c.1,.1,.3,.3,.3,.6c0,.1,-.1,.3,-.1,.4c0,.2,-.1,.4,-.1,.6l-1.7,6.2c0,.4,-.1,.6,-.2,.8c-.2,.4,-.5,.7,-.8,.9c-.2,0,-.5,.1,-.8,.1Z" class="g0_291"/>
<path d="M423.9,644.7c-2.2,1.4,-3.7,3.8,-3.7,6.8c0,2.8,1.6,5.6,3.7,6.8l.1,-.2c-1.9,-1.6,-2.5,-3.4,-2.5,-6.6c0,-3.3,.6,-5.1,2.5,-6.6l-.1,-.2Z" class="g0_291"/>
<path d="M432.3,649.8c0,-.5,-.5,-1,-1,-1c-.3,0,-.7,.2,-1,.4c-.3,.2,-.6,.5,-.8,.9c0,-.7,-.4,-1.3,-1.1,-1.3c-1.1,0,-2.1,1.2,-2.4,2l.2,.1c.4,-.5,1.1,-1.7,2,-1.7c.2,0,.4,.6,.4,1c0,.3,-.1,.7,-.2,1.1l-.4,1.2c-.2,.6,-.4,1.4,-.7,1.8c-.2,.3,-.4,.7,-.8,.7c-.4,0,-.7,-.1,-.6,-.5c.1,-.3,0,-.8,-.4,-.8c-.5,0,-.7,.4,-.7,.8c0,.6,.5,.9,1.1,.9c1,0,1.7,-.7,2.1,-1.4h.1c.1,.8,.5,1.4,1.3,1.4c1.2,0,2,-1.1,2.4,-1.8l-.1,-.2c-.5,.7,-1.2,1.7,-2,1.7c-.5,0,-.7,-.6,-.7,-1.2c0,-.4,.1,-.8,.2,-1.4l.2,-.7c.1,-.6,.3,-1.2,.6,-1.6c.2,-.3,.6,-1,1,-1c.4,0,.3,.3,.3,.6c0,.4,.1,.6,.5,.6c.3,0,.5,-.3,.5,-.6Z" class="g0_291"/>
<path d="M433.6,644.7l-.2,.2c2,1.5,2.6,3.3,2.6,6.6c0,3.2,-.6,5,-2.6,6.6l.2,.2c2.1,-1.2,3.6,-4,3.6,-6.8c0,-3,-1.5,-5.4,-3.6,-6.8Z" class="g0_291"/>
<path d="M443.5,653.4h7.6v-.8h-7.6Zm0,-3h7.6v-.8h-7.6Z" class="g0_291"/>
<path d="M468.4,642.4h-.3c-.3,1.9,-1,2.7,-2,2.7h-5.8l4.3,-5.5l-3.9,-5.7h4.8c1.1,0,1.8,.6,2.1,2.5h.3l-.1,-3.1h-8.9l4.5,6.5l-5.1,6.6h9.9l.2,-4Z" class="g0_291"/>
<path d="M475.4,637.5h.3l1.6,-6c0,-.1,.1,-.3,.1,-.5c.2,-.2,.4,-.6,.7,-.8c.1,-.1,.3,-.1,.4,-.1l.1,-.1h-2.3v.1c.2,0,.4,.1,.6,.3c.1,.1,.1,.6,.1,.8c0,.1,0,.3,0,.4l-1.1,4v.1L473.4,630h-2v.1c.4,0,.6,0,.7,.2c.2,.3,.4,.7,.4,1c0,.1,0,.2,0,.3l-1.2,4.4c-.1,.4,-.3,.7,-.6,1c-.2,.2,-.7,.4,-1,.4v.1h2.8v-.1c-.3,-.1,-.6,-.1,-.7,-.3c-.2,-.1,-.3,-.5,-.3,-.7c0,-.2,0,-.3,0,-.5l1.2,-4.3v-.2l2.7,6.1Z" class="g0_291"/>
<path d="M472.7,641.8c0,-.3,-.3,-.6,-.6,-.6c-.3,0,-.5,.3,-.5,.6c0,.3,.2,.5,.5,.5c.3,0,.6,-.3,.6,-.5Zm-2.1,6.8c1,-.1,1.5,-.9,1.8,-1.5l-.2,-.1c-.2,.3,-.6,1.1,-1,1.1c-.1,0,-.3,-.2,-.3,-.3c0,-.2,.2,-.6,.2,-.8l.8,-2c.1,-.4,.1,-.5,.1,-.7c0,-.3,0,-.6,-.4,-.6c-.6,0,-1.5,.9,-1.7,1.4l.2,.1c.2,-.2,.6,-.8,.8,-.8c.2,0,.2,.1,.2,.2c.1,.2,0,.5,-.1,.7l-.7,2c-.1,.3,-.2,.5,-.2,.7c0,.4,.2,.6,.5,.6Z" class="g0_291"/>
<path d="M473.9,647.1h5.5v-.6h-5.5Zm0,-2.2h5.5v-.6h-5.5Z" class="g0_291"/>
<path d="M482.9,648.4c-1.4,0,-1.4,-2,-1.4,-3.6c0,-1.6,0,-3.8,1.4,-3.8c1.4,0,1.4,2.2,1.4,3.8c0,1.6,0,3.6,-1.4,3.6Zm0,-7.6c-1.9,0,-2.4,2,-2.4,4c0,1.9,.6,3.8,2.4,3.8c1.9,0,2.5,-1.9,2.5,-3.8c0,-2,-.6,-4,-2.5,-4Z" class="g0_291"/>
<path d="M488.2,645.9c0,.6,.5,1,1.1,1c.4,0,.8,-.2,1.3,-.6c.8,-.7,2.1,-2.2,2.8,-3.4c.4,-.7,.7,-1.3,1,-1.8c.4,-.8,1.1,-2.2,1.1,-3c0,-.2,0,-.4,-.1,-.6c-.1,-.2,-.3,-.2,-.5,-.2c-.1,0,-.3,0,-.4,.2c-.2,.1,-.2,.3,-.2,.6c0,.5,.2,.9,.2,1.3c0,.6,-.2,1.2,-.4,1.6c-.3,.5,-.5,.9,-.9,1.4l-.4,-1.9c-.1,-.5,-.3,-1.6,-.4,-2c-.2,-.7,-.3,-1.2,-1.3,-1.2c-1.2,0,-1.4,1.7,-1.6,2.5l.3,.1c.1,-.6,.6,-2.3,1,-2.3c.3,0,.5,1,.6,1.3c0,.3,.1,.7,.2,1.3l.6,3.5c-.3,.8,-1.1,1.7,-1.7,2.2c-.3,.2,-.6,.2,-.8,.2q-.1,0,-.2,-.1c-.2,-.3,-.2,-.8,-.7,-.8c-.4,0,-.6,.3,-.6,.7Z" class="g0_291"/>
<path d="M501.4,633.1c-2.1,1.4,-3.6,3.8,-3.6,6.8c0,2.8,1.6,5.6,3.6,6.8l.2,-.2c-2,-1.5,-2.5,-3.3,-2.5,-6.6c0,-3.3,.6,-5,2.5,-6.6l-.2,-.2Z" class="g0_291"/>
<path d="M509.8,638.2c0,-.5,-.4,-.9,-1,-.9c-.3,0,-.6,.1,-.9,.3c-.3,.2,-.7,.5,-.9,.9c0,-.7,-.4,-1.2,-1,-1.2c-1.2,0,-2.1,1.1,-2.5,1.9l.2,.1c.4,-.5,1.1,-1.7,2,-1.7c.3,0,.4,.6,.4,1c0,.3,-.1,.7,-.2,1.2l-.3,1.1c-.2,.6,-.4,1.4,-.8,1.8c-.1,.3,-.4,.7,-.7,.7c-.5,0,-.8,-.1,-.7,-.5c.1,-.3,0,-.7,-.4,-.7c-.4,0,-.6,.3,-.6,.7c0,.6,.5,1,1,1c1.1,0,1.8,-.8,2.2,-1.5c.1,.8,.5,1.5,1.3,1.5c1.2,0,2.1,-1.2,2.5,-1.9l-.2,-.1c-.5,.6,-1.2,1.6,-2,1.6c-.4,0,-.6,-.6,-.6,-1.2c0,-.4,0,-.8,.2,-1.4l.1,-.7c.1,-.5,.4,-1.2,.7,-1.6c.1,-.3,.5,-.9,.9,-.9c.4,0,.4,.3,.4,.6c-.1,.4,.1,.6,.4,.6c.4,0,.5,-.3,.5,-.7Z" class="g0_291"/>
<path d="M511.1,633.1l-.1,.2c1.9,1.6,2.5,3.3,2.5,6.6c0,3.3,-.6,5.1,-2.5,6.6l.2,.2c2,-1.2,3.6,-4,3.6,-6.8c0,-3,-1.5,-5.4,-3.7,-6.8Z" class="g0_291"/>
<path d="M518.8,639.3c0,-.3,-.2,-.6,-.5,-.6c-.4,0,-.6,.3,-.6,.6c0,.3,.3,.5,.6,.5c.2,0,.5,-.3,.5,-.5Zm-2,6.8c.9,0,1.4,-.9,1.7,-1.5l-.2,-.1c-.1,.3,-.5,1.1,-1,1.1c-.1,0,-.2,-.2,-.2,-.3c0,-.2,.1,-.6,.2,-.8l.7,-2c.1,-.3,.1,-.5,.1,-.7c0,-.3,0,-.6,-.3,-.6c-.7,0,-1.5,.9,-1.8,1.4l.2,.1c.2,-.2,.6,-.8,.9,-.8c.1,0,.2,.1,.2,.2c0,.2,-.1,.5,-.2,.7l-.7,2.1c-.1,.2,-.1,.4,-.1,.6c0,.4,.1,.6,.5,.6Z" class="g0_291"/>
<path d="M522.2,640.7c.2,-.6,.7,-1.8,1.1,-2.2c.2,-.3,.8,-.9,1.3,-.9c.5,0,.5,.5,.5,.8c0,1.1,-2,1.9,-2.9,2.3Zm2.5,-3.5c-.7,0,-1.3,.6,-1.8,1.2h-.1l1.5,-5.6l-2.3,.1l-.1,.2c.7,0,1.1,.2,1.1,.6c0,.1,0,.2,-.1,.5l-2.6,9.5h1l.8,-2.6l.3,-.1l.8,1.9c.2,.4,.3,.6,.5,.8c.1,.1,.2,.2,.4,.2c1,0,1.3,-.6,1.8,-1.9l-.2,-.1c-.3,.6,-.5,1.2,-1,1.2c-.2,0,-.4,-.5,-.6,-1l-.6,-1.6l.3,-.1c.6,-.3,1.2,-.7,1.6,-1c.4,-.4,.6,-.8,.6,-1.2c0,-.6,-.5,-1,-1.3,-1Z" class="g0_291"/>
<path d="M529.5,639.3c0,-.3,-.2,-.6,-.5,-.6c-.4,0,-.6,.3,-.6,.6c0,.3,.3,.5,.6,.5c.2,0,.5,-.3,.5,-.5Zm-2,6.8c.9,0,1.4,-.9,1.7,-1.5l-.2,-.1c-.1,.3,-.5,1.1,-1,1.1c-.1,0,-.2,-.2,-.2,-.3c0,-.2,.1,-.6,.2,-.8l.7,-2c.1,-.3,.1,-.5,.1,-.7c0,-.3,0,-.6,-.3,-.6c-.7,0,-1.5,.9,-1.8,1.4l.2,.1c.2,-.2,.6,-.8,.9,-.8c.1,0,.2,.1,.2,.2c0,.2,-.1,.5,-.2,.7l-.7,2.1c-.1,.2,-.1,.4,-.1,.6c0,.4,.1,.6,.5,.6Z" class="g0_291"/>
<path d="M536.2,633.1c-2.2,1.4,-3.7,3.8,-3.7,6.8c0,2.8,1.6,5.6,3.6,6.8l.2,-.2c-2,-1.5,-2.5,-3.3,-2.5,-6.6c0,-3.3,.6,-5,2.5,-6.6l-.1,-.2Z" class="g0_291"/>
<path d="M544.5,638.2c0,-.5,-.4,-.9,-1,-.9c-.3,0,-.6,.1,-.9,.3c-.3,.2,-.6,.5,-.9,.9c0,-.7,-.4,-1.2,-1,-1.2c-1.1,0,-2.1,1.1,-2.4,1.9l.2,.1c.3,-.5,1,-1.7,1.9,-1.7c.3,0,.4,.6,.4,1c0,.3,0,.7,-.2,1.2l-.3,1.1c-.2,.6,-.4,1.4,-.7,1.8c-.2,.3,-.5,.7,-.8,.7c-.5,0,-.8,-.1,-.7,-.5c.1,-.3,.1,-.7,-.4,-.7c-.4,0,-.6,.3,-.6,.7c0,.6,.5,1,1.1,1c1,0,1.7,-.8,2.1,-1.5c.1,.8,.5,1.5,1.4,1.5c1.1,0,2,-1.2,2.4,-1.9l-.2,-.1c-.5,.6,-1.2,1.6,-2,1.6c-.4,0,-.6,-.6,-.6,-1.2c0,-.4,0,-.8,.2,-1.4l.2,-.7c.1,-.5,.3,-1.2,.6,-1.6c.2,-.3,.5,-.9,.9,-.9c.4,0,.4,.3,.4,.6c-.1,.4,.1,.6,.4,.6c.4,0,.5,-.3,.5,-.7Z" class="g0_291"/>
<path d="M545.8,633.1l-.1,.2c1.9,1.6,2.5,3.3,2.5,6.6c0,3.3,-.5,5.1,-2.5,6.6l.2,.2c2,-1.2,3.6,-4,3.6,-6.8c0,-3,-1.5,-5.4,-3.7,-6.8Z" class="g0_291"/>
<path d="M457.6,651.9H551v-.8H457.6Z" class="g0_291"/>
<path d="M484,666.9h-.3c-.3,1.9,-1,2.7,-2.1,2.7h-5.8l4.3,-5.5l-3.8,-5.7H481c1.1,0,1.8,.6,2.1,2.5h.3v-3.1h-9l4.6,6.5l-5.2,6.6h10l.2,-4Z" class="g0_291"/>
<path d="M491,662h.2l1.6,-6c.1,-.1,.1,-.3,.2,-.4c.1,-.3,.4,-.7,.6,-.9c.1,-.1,.4,-.1,.5,-.1v-.1h-2.2l-.1,.1c.3,0,.5,.1,.6,.3c.2,.2,.2,.6,.2,.8c0,.1,0,.3,-.1,.4l-1,4v.1l-2.6,-5.7H487l-.1,.1c.5,0,.6,.1,.8,.2c.2,.3,.4,.7,.4,1c0,.1,-.1,.2,-.1,.3l-1.2,4.4c-.1,.4,-.3,.7,-.5,1c-.3,.2,-.7,.4,-1,.4v.1h2.8v-.1c-.3,-.1,-.6,-.1,-.7,-.2c-.2,-.2,-.3,-.6,-.3,-.8c0,-.2,0,-.3,0,-.5l1.1,-4.3l.1,-.2L491,662Z" class="g0_291"/>
<path d="M488.2,666.3c0,-.3,-.2,-.6,-.5,-.6c-.3,0,-.6,.3,-.6,.6c0,.3,.3,.5,.6,.5c.2,0,.5,-.3,.5,-.5Zm-2,6.8c.9,-.1,1.4,-.9,1.7,-1.5l-.2,-.1c-.1,.3,-.5,1.1,-1,1.1c-.1,0,-.2,-.2,-.2,-.3c0,-.2,.1,-.6,.2,-.8l.7,-2c.1,-.3,.2,-.5,.2,-.7c0,-.3,-.1,-.6,-.4,-.6c-.7,0,-1.5,.9,-1.7,1.4l.2,.1c.1,-.2,.5,-.8,.8,-.8c.1,0,.2,.1,.2,.2c0,.2,-.1,.5,-.2,.7l-.7,2c-.1,.3,-.1,.5,-.1,.7c0,.4,.1,.6,.5,.6Z" class="g0_291"/>
<path d="M489.4,671.6H495V671h-5.6Zm0,-2.2H495v-.6h-5.6Z" class="g0_291"/>
<path d="M498.5,672.9c-1.4,0,-1.4,-2,-1.4,-3.6c0,-1.6,0,-3.8,1.4,-3.8c1.4,0,1.4,2.2,1.4,3.8c0,1.6,0,3.6,-1.4,3.6Zm0,-7.6c-1.9,0,-2.5,2,-2.5,4c0,1.9,.6,3.8,2.5,3.8c1.9,0,2.5,-1.9,2.5,-3.8c0,-2,-.6,-4,-2.5,-4Z" class="g0_291"/>
<path d="M506.7,665.2c.1,-.6,.7,-1.8,1,-2.2c.3,-.3,.8,-.9,1.3,-.9c.6,0,.6,.5,.6,.8c-.1,1.1,-2.1,1.9,-2.9,2.3Zm2.4,-3.4c-.6,0,-1.3,.5,-1.7,1.1h-.2l1.6,-5.6l-2.3,.1l-.1,.2c.6,0,1.1,.2,1.1,.6c0,.1,-.1,.3,-.1,.5l-2.6,9.5h1l.7,-2.6l.4,-.1l.8,1.9c.1,.4,.3,.6,.4,.8c.1,.1,.3,.2,.5,.2c.9,0,1.3,-.6,1.8,-1.8l-.3,-.2c-.3,.6,-.5,1.3,-.9,1.3c-.2,0,-.5,-.6,-.6,-1.1l-.7,-1.6l.3,-.1c.7,-.3,1.3,-.7,1.7,-1c.3,-.4,.6,-.8,.6,-1.2c0,-.6,-.5,-.9,-1.4,-.9Z" class="g0_291"/>
<path d="M514,663.8c0,-.3,-.3,-.6,-.6,-.6c-.3,0,-.5,.3,-.5,.6c0,.3,.2,.5,.5,.5c.3,0,.6,-.2,.6,-.5Zm-2.1,6.8c1,0,1.5,-.9,1.7,-1.5l-.1,-.1c-.2,.3,-.6,1.1,-1,1.1c-.2,0,-.3,-.2,-.3,-.3c0,-.2,.2,-.6,.2,-.8l.7,-2c.1,-.3,.2,-.5,.2,-.7c0,-.3,0,-.5,-.4,-.5c-.7,0,-1.5,.8,-1.7,1.3l.2,.1c.1,-.2,.5,-.8,.8,-.8c.2,0,.2,.1,.2,.2c0,.2,-.1,.5,-.1,.7l-.8,2.1c-.1,.2,-.1,.5,-.1,.6c0,.4,.1,.6,.5,.6Z" class="g0_291"/>
<path d="M520.6,657.6c-2.1,1.4,-3.7,3.8,-3.7,6.8c0,2.8,1.6,5.6,3.7,6.8l.1,-.2c-1.9,-1.5,-2.5,-3.3,-2.5,-6.6c0,-3.3,.6,-5,2.5,-6.6l-.1,-.2Z" class="g0_291"/>
<path d="M529,662.7c0,-.5,-.5,-.9,-1,-.9c-.3,0,-.6,.1,-1,.3c-.3,.2,-.6,.5,-.8,.9c0,-.7,-.4,-1.2,-1.1,-1.2c-1.1,0,-2.1,1.1,-2.4,1.9l.2,.1c.4,-.5,1.1,-1.7,2,-1.7c.3,0,.4,.6,.4,1c0,.3,-.1,.7,-.2,1.2l-.4,1.2c-.1,.5,-.4,1.3,-.7,1.7c-.2,.3,-.4,.7,-.8,.7c-.4,0,-.7,-.1,-.6,-.5c.1,-.3,0,-.7,-.4,-.7c-.5,0,-.6,.3,-.6,.7c0,.6,.4,1,1,1c1,0,1.8,-.8,2.1,-1.5h.1c.1,.8,.5,1.5,1.3,1.5c1.2,0,2,-1.2,2.5,-1.9l-.2,-.1c-.5,.6,-1.2,1.6,-2,1.6c-.4,0,-.7,-.6,-.7,-1.2c0,-.4,.1,-.8,.2,-1.3l.2,-.8c.1,-.5,.4,-1.2,.6,-1.6c.2,-.3,.6,-.9,1,-.9c.4,0,.4,.3,.3,.6c0,.4,.2,.6,.5,.6c.4,0,.5,-.3,.5,-.7Z" class="g0_291"/>
<path d="M530.3,657.6l-.2,.2c2,1.6,2.6,3.3,2.6,6.6c0,3.3,-.6,5.1,-2.6,6.6l.2,.2c2.1,-1.2,3.7,-4,3.7,-6.8c0,-3,-1.6,-5.4,-3.7,-6.8Z" class="g0_291"/>
<path d="M554,654.5c0,.4,.2,.8,.7,.8c.1,0,.2,0,.4,-.1c0,.4,-.1,.7,-.3,1.1c-.2,.3,-.6,.6,-1.1,.9l.3,.5c.4,-.3,.7,-.5,.9,-.7c.5,-.5,.9,-1,.9,-2c0,-.9,-.3,-1.3,-.9,-1.3c-.6,0,-.9,.3,-.9,.8Zm.8,-3.4c.5,0,.9,-.4,.9,-.9c0,-.5,-.4,-.9,-.9,-.9c-.5,0,-.8,.4,-.8,.9c0,.5,.3,.9,.8,.9Z" class="g0_291"/>
<path d="M559.3,655.1l-.1,.2h4.7l.1,-.2c-.6,0,-1,-.1,-1.3,-.3c-.2,-.2,-.3,-.4,-.3,-.7c0,-.2,0,-.5,.1,-.8l.9,-3.3h1c1.1,0,1.1,1.2,1,2.3h.3l1,-4.3h-.3c-.4,.9,-.8,1.7,-2,1.7h-.9l1.1,-4.4h1.7c.3,0,.6,0,.8,.1c.8,.4,1.5,1.3,1.6,2.3h.3V645h-7.3v.2c.5,0,.8,.1,1,.3c.2,.1,.3,.3,.3,.6c0,.1,0,.3,-.1,.4c0,.2,0,.4,-.1,.6l-1.7,6.2c0,.4,-.1,.6,-.2,.8c-.2,.4,-.5,.7,-.8,.9c-.2,0,-.5,.1,-.8,.1Z" class="g0_291"/>
<path d="M575.1,644.7c-2.1,1.4,-3.7,3.8,-3.7,6.8c0,2.8,1.6,5.6,3.7,6.8l.1,-.2c-1.9,-1.6,-2.5,-3.4,-2.5,-6.6c0,-3.3,.6,-5.1,2.5,-6.6l-.1,-.2Z" class="g0_291"/>
<path d="M583.5,649.8c0,-.5,-.5,-1,-1,-1c-.3,0,-.7,.2,-1,.4c-.3,.2,-.6,.5,-.8,.9c0,-.7,-.4,-1.3,-1.1,-1.3c-1.1,0,-2.1,1.2,-2.4,2l.2,.1c.4,-.5,1.1,-1.7,2,-1.7c.2,0,.4,.6,.4,1c0,.3,-.1,.7,-.2,1.1l-.4,1.2c-.1,.6,-.4,1.4,-.7,1.8c-.2,.3,-.4,.7,-.8,.7c-.4,0,-.7,-.1,-.6,-.5c.1,-.3,0,-.8,-.4,-.8c-.5,0,-.6,.4,-.6,.8c0,.6,.4,.9,1,.9c1,0,1.7,-.7,2.1,-1.4h.1c.1,.8,.5,1.4,1.3,1.4c1.2,0,2,-1.1,2.5,-1.8l-.2,-.2c-.5,.7,-1.2,1.7,-2,1.7c-.4,0,-.7,-.6,-.7,-1.2c0,-.4,.1,-.8,.2,-1.4l.2,-.7c.1,-.6,.4,-1.2,.6,-1.6c.2,-.3,.6,-1,1,-1c.4,0,.3,.3,.3,.6c0,.4,.2,.6,.5,.6c.4,0,.5,-.3,.5,-.6Z" class="g0_291"/>
<path d="M586.6,650.9c0,-.3,-.2,-.6,-.5,-.6c-.3,0,-.6,.2,-.6,.6c0,.3,.3,.5,.6,.5c.2,0,.5,-.3,.5,-.5Zm-2,6.7c.9,0,1.4,-.8,1.7,-1.4l-.2,-.1c-.1,.3,-.5,1.1,-1,1.1c-.1,0,-.2,-.2,-.2,-.3c0,-.2,.1,-.6,.2,-.8l.7,-2.1c.1,-.3,.1,-.4,.1,-.6c0,-.3,0,-.6,-.3,-.6c-.7,0,-1.5,.8,-1.8,1.4l.2,.1c.2,-.2,.6,-.8,.9,-.8c.1,0,.2,.1,.2,.2c0,.2,-.1,.5,-.2,.7l-.7,2c-.1,.3,-.1,.5,-.1,.7c0,.3,.1,.5,.5,.5Z" class="g0_291"/>
<path d="M588.7,644.7l-.1,.2c1.9,1.5,2.5,3.3,2.5,6.6c0,3.2,-.6,5,-2.5,6.6l.1,.2c2.1,-1.2,3.7,-4,3.7,-6.8c0,-3,-1.5,-5.4,-3.7,-6.8Z" class="g0_291"/>
<path d="M598.6,653.4h7.6v-.8h-7.6Zm0,-3h7.6v-.8h-7.6Z" class="g0_291"/>
<path d="M609.9,657.5c0,.6,.5,.9,1.1,.9c.5,0,.8,-.1,1.3,-.5c.8,-.7,2.1,-2.3,2.8,-3.5c.4,-.6,.8,-1.2,1.1,-1.8c.4,-.7,1.1,-2.1,1.1,-2.9c0,-.2,-.1,-.4,-.2,-.6c-.1,-.2,-.2,-.3,-.4,-.3c-.2,0,-.3,.1,-.5,.2c-.1,.2,-.2,.4,-.2,.7c0,.4,.2,.9,.2,1.3c0,.6,-.2,1.1,-.4,1.6c-.3,.5,-.5,.9,-.8,1.4h-.1l-.3,-1.9c-.1,-.6,-.3,-1.6,-.5,-2.1c-.1,-.6,-.3,-1.2,-1.3,-1.2c-1.1,0,-1.3,1.8,-1.6,2.6l.3,.1c.2,-.6,.6,-2.3,1.1,-2.3c.3,0,.5,1,.5,1.2c.1,.3,.2,.7,.3,1.4l.6,3.5c-.4,.8,-1.2,1.7,-1.8,2.2c-.2,.2,-.6,.2,-.7,.2c-.1,0,-.2,0,-.3,-.1c-.2,-.3,-.2,-.8,-.6,-.8c-.4,0,-.7,.3,-.7,.7Z" class="g0_291"/>
<path d="M620.5,650.9c0,-.3,-.3,-.6,-.6,-.6c-.3,0,-.5,.2,-.5,.6c0,.3,.2,.5,.5,.5c.3,0,.6,-.3,.6,-.5Zm-2.1,6.7c1,0,1.5,-.8,1.7,-1.4l-.1,-.1c-.2,.3,-.6,1.1,-1,1.1c-.2,0,-.3,-.2,-.3,-.3c0,-.2,.2,-.6,.2,-.8l.7,-2.1c.1,-.3,.2,-.4,.2,-.6c0,-.3,0,-.6,-.4,-.6c-.7,0,-1.5,.8,-1.7,1.4l.2,.1c.1,-.2,.5,-.8,.8,-.8c.2,0,.2,.1,.2,.2c0,.2,-.1,.5,-.1,.7l-.8,2c-.1,.3,-.1,.5,-.1,.7c0,.3,.1,.5,.5,.5Z" class="g0_291"/>
</svg>