<?xml version="1.0" encoding="UTF-8" standalone="no"?>
<!DOCTYPE svg PUBLIC "-//W3C//DTD SVG 1.1//EN"
"http://www.w3.org/Graphics/SVG/1.1/DTD/svg11.dtd">
<svg viewBox="0 0 811 1017" version="1.1" xmlns="http://www.w3.org/2000/svg" xmlns:xlink="http://www.w3.org/1999/xlink">
<defs>
<clipPath id="c0_205"><path d="M156.1,919V625.6H449.4V919Z"/></clipPath>
<style type="text/css"><![CDATA[
.g0_205{
fill: #0E0E0E;
}
]]></style>
</defs>
<path d="M338.8,89.4c0,-.1,-.1,-.1,-.1,-.1c0,0,-.1,0,-.1,0c-4.8,5.3,-5.3,19.2,-5.3,20.8v.6h1.4v-.6c0,-1.2,.8,-15,3.9,-20.4c.1,-.1,.2,-.2,.2,-.3Z" class="g0_205"/>
<path d="M333.3,120h1.4v-9.6h-1.4Z" class="g0_205"/>
<path d="M333.3,128.9h1.4v-9.6h-1.4Z" class="g0_205"/>
<path d="M333.3,137.9h1.4v-9.6h-1.4Z" class="g0_205"/>
<path d="M333.3,146.8h1.4v-9.6h-1.4Z" class="g0_205"/>
<path d="M338.8,168c0,-.1,-.1,-.2,-.2,-.4c-3.1,-5.4,-3.9,-19.1,-3.9,-20.3v-.7h-1.4v.7c0,1.6,.5,15.4,5.3,20.7c0,.1,.1,.1,.1,.1c0,0,.1,-.1,.1,-.1Z" class="g0_205"/>
<path d="M341.2,90.4v.2c.5,0,1.1,.1,1.3,.2c.5,.2,.4,.4,.5,1v6.5c0,.4,0,.6,-.1,.8c-.1,.7,-.9,.8,-1.6,.8v.2H346v-.2c-.5,0,-1.3,0,-1.5,-.3c-.2,-.3,-.2,-.8,-.2,-1.3V89.7c-.8,.4,-2.1,.7,-3.1,.7Z" class="g0_205"/>
<path d="M371.4,94.6c0,-.5,-.4,-1,-1,-1c-.3,0,-.6,.2,-.9,.4c-.4,.2,-.7,.5,-.9,.9c0,-.7,-.4,-1.3,-1,-1.3c-1.2,0,-2.1,1.2,-2.5,2l.2,.1c.4,-.5,1.1,-1.7,2,-1.7c.3,0,.4,.6,.4,1c0,.3,-.1,.7,-.2,1.2l-.4,1.1c-.1,.6,-.4,1.4,-.7,1.8c-.1,.3,-.4,.7,-.8,.7c-.4,0,-.7,-.1,-.6,-.5c.1,-.3,0,-.7,-.4,-.7c-.5,0,-.6,.3,-.6,.7c0,.6,.4,.9,1,.9c1,0,1.8,-.7,2.1,-1.4h.1c.1,.8,.5,1.4,1.3,1.4c1.2,0,2,-1.1,2.5,-1.8l-.2,-.2c-.5,.7,-1.2,1.7,-2,1.7c-.4,0,-.6,-.6,-.6,-1.2c0,-.4,0,-.8,.1,-1.4l.2,-.7c.1,-.6,.4,-1.2,.6,-1.6c.2,-.3,.6,-.9,1,-.9c.4,0,.4,.2,.3,.6c0,.4,.2,.5,.5,.5c.4,0,.5,-.2,.5,-.6Z" class="g0_205"/>
<path d="M373,95.4v.2c.3,0,.8,0,.9,.1c.4,.2,.3,.3,.4,.7v4.8c0,.2,-.1,.4,-.1,.6c-.1,.4,-.6,.5,-1.2,.5v.2h3.4v-.2c-.3,0,-.9,0,-1,-.2c-.2,-.2,-.2,-.6,-.2,-1V94.9c-.6,.2,-1.5,.5,-2.2,.5Z" class="g0_205"/>
<path d="M397.8,96.3c0,-.4,-.4,-.8,-.8,-.8c-.5,0,-.8,.3,-.8,.8c0,.6,.5,.8,.8,.8c.3,0,.8,-.2,.8,-.8Z" class="g0_205"/>
<path d="M404.3,96.3c0,-.4,-.4,-.8,-.8,-.8c-.4,0,-.8,.3,-.8,.8c0,.6,.5,.8,.8,.8c.3,0,.8,-.2,.8,-.8Z" class="g0_205"/>
<path d="M410.8,96.3c0,-.4,-.3,-.8,-.8,-.8c-.4,0,-.8,.3,-.8,.8c0,.6,.5,.8,.8,.8c.3,0,.8,-.2,.8,-.8Z" class="g0_205"/>
<path d="M438.3,94.6c0,-.5,-.4,-1,-1,-1c-.3,0,-.6,.2,-.9,.4c-.3,.2,-.7,.5,-.9,.9c0,-.7,-.4,-1.3,-1,-1.3c-1.2,0,-2.1,1.2,-2.5,2l.2,.1c.4,-.5,1.1,-1.7,2,-1.7c.3,0,.4,.6,.4,1c0,.3,-.1,.7,-.2,1.2l-.3,1.1c-.2,.6,-.4,1.4,-.8,1.8c-.1,.3,-.4,.7,-.7,.7c-.5,0,-.8,-.1,-.7,-.5c.1,-.3,0,-.7,-.4,-.7c-.4,0,-.6,.3,-.6,.7c0,.6,.5,.9,1,.9c1.1,0,1.8,-.7,2.2,-1.4c.1,.8,.5,1.4,1.3,1.4c1.2,0,2.1,-1.1,2.5,-1.8l-.2,-.2c-.5,.7,-1.2,1.7,-2,1.7c-.4,0,-.6,-.6,-.6,-1.2c0,-.4,0,-.8,.2,-1.4l.1,-.7c.1,-.6,.4,-1.2,.7,-1.6c.1,-.3,.5,-.9,.9,-.9c.4,0,.4,.2,.4,.6c-.1,.4,.1,.5,.4,.5c.4,0,.5,-.2,.5,-.6Z" class="g0_205"/>
<path d="M439.9,95.4v.2c.3,0,.8,0,.9,.1c.4,.2,.4,.3,.4,.7v4.8c0,.2,0,.4,-.1,.6c0,.4,-.6,.5,-1.2,.5v.2h3.5v-.2c-.4,0,-.9,0,-1.1,-.2c-.2,-.2,-.2,-.6,-.2,-1V94.9c-.5,.2,-1.5,.5,-2.2,.5Z" class="g0_205"/>
<path d="M453.4,88.2l.2,-.3l-1.4,5.4c0,.2,-.1,.4,-.2,.5c-.1,.3,-.3,.6,-.5,.7c-.1,0,-.3,.1,-.5,.1v.1h3.1l.1,-.1c-.4,0,-.7,-.1,-.8,-.2c-.2,-.1,-.2,-.3,-.2,-.6c0,-.1,.1,-.4,.1,-.6l1.1,-4.1c.1,-.4,.2,-.6,.2,-.8c.1,-.4,.4,-.7,.6,-.9c.1,-.1,.3,-.1,.5,-.1v-.1h-1.9L450.1,93H450l-.7,-5.8H447l-.1,.1c.4,0,.6,0,.7,.1c.1,.1,.3,.3,.3,.5c0,.2,0,.5,-.1,.8l-1.2,4.6c-.1,.3,-.4,.7,-.6,.9c-.3,.2,-.6,.4,-.9,.4l-.1,.1h2.7l.1,-.1c-.3,0,-.6,-.1,-.7,-.3c-.1,-.1,-.3,-.4,-.3,-.7c0,-.2,0,-.3,.1,-.4l1.3,-5V88l.9,6.7h.3l4,-6.5Z" class="g0_205"/>
<path d="M341.2,108.8v.2c.5,0,1.1,.1,1.3,.2c.5,.2,.4,.4,.5,1v6.5c0,.3,0,.6,-.1,.8c-.1,.7,-.9,.8,-1.6,.8v.2H346v-.2c-.5,0,-1.3,-.1,-1.5,-.3c-.2,-.3,-.2,-.8,-.2,-1.4v-8.5c-.8,.4,-2.1,.7,-3.1,.7Z" class="g0_205"/>
<path d="M371.4,113c0,-.5,-.4,-1,-1,-1c-.3,0,-.6,.2,-.9,.4c-.4,.2,-.7,.5,-.9,.9c0,-.7,-.4,-1.3,-1,-1.3c-1.2,0,-2.1,1.2,-2.5,2l.2,.1c.4,-.5,1.1,-1.7,2,-1.7c.3,0,.4,.6,.4,1c0,.3,-.1,.7,-.2,1.1l-.4,1.2c-.1,.6,-.4,1.4,-.7,1.8c-.1,.3,-.4,.7,-.8,.7c-.4,0,-.7,-.1,-.6,-.5c.1,-.3,0,-.8,-.4,-.8c-.5,0,-.6,.4,-.6,.8c0,.6,.4,.9,1,.9c1,0,1.8,-.7,2.1,-1.4h.1c.1,.8,.5,1.4,1.3,1.4c1.2,0,2,-1.1,2.5,-1.8l-.2,-.2c-.5,.7,-1.2,1.7,-2,1.7c-.4,0,-.6,-.6,-.6,-1.2c0,-.4,0,-.8,.1,-1.4l.2,-.7c.1,-.6,.4,-1.2,.6,-1.6c.2,-.3,.6,-1,1,-1c.4,0,.4,.3,.3,.6c0,.4,.2,.6,.5,.6c.4,0,.5,-.3,.5,-.6Z" class="g0_205"/>
<path d="M374.2,116.2c-.7,0,-1.1,-.5,-1.1,-1.1c0,-.8,.4,-1.7,1.3,-1.7c1.2,0,1.3,1,1.3,1.9c0,1,-.2,1.5,-.7,2.2c-.3,.4,-.6,.8,-1.1,1.3c-.5,.5,-1.1,1.1,-1.9,1.7v.4h4.6l.4,-2.1h-.3c-.1,.2,-.2,.4,-.3,.5c-.1,.4,-.4,.6,-1,.6h-2.1c.5,-.4,1,-.8,1.4,-1.1c.7,-.6,1.5,-1.4,1.9,-2.3c.2,-.3,.3,-.7,.3,-1.1c0,-.4,-.1,-.6,-.2,-.9c-.3,-.8,-1,-1.3,-2.1,-1.3c-.7,0,-1.4,.3,-1.8,.6c-.4,.3,-.7,.8,-.7,1.5c0,.4,.2,.8,.4,1c.2,.3,.5,.4,.9,.4c.4,0,.7,-.2,.8,-.5Z" class="g0_205"/>
<path d="M397.8,114.7c0,-.4,-.4,-.8,-.8,-.8c-.5,0,-.8,.3,-.8,.8c0,.6,.5,.8,.8,.8c.3,0,.8,-.2,.8,-.8Z" class="g0_205"/>
<path d="M404.3,114.7c0,-.4,-.4,-.8,-.8,-.8c-.4,0,-.8,.3,-.8,.8c0,.6,.5,.8,.8,.8c.3,0,.8,-.2,.8,-.8Z" class="g0_205"/>
<path d="M410.8,114.7c0,-.4,-.3,-.8,-.8,-.8c-.4,0,-.8,.3,-.8,.8c0,.6,.5,.8,.8,.8c.3,0,.8,-.2,.8,-.8Z" class="g0_205"/>
<path d="M438.3,113c0,-.5,-.4,-1,-1,-1c-.3,0,-.6,.2,-.9,.4c-.3,.2,-.7,.5,-.9,.9c0,-.7,-.4,-1.3,-1,-1.3c-1.2,0,-2.1,1.2,-2.5,2l.2,.1c.4,-.5,1.1,-1.7,2,-1.7c.3,0,.4,.6,.4,1c0,.3,-.1,.7,-.2,1.1l-.3,1.2c-.2,.6,-.4,1.4,-.8,1.8c-.1,.3,-.4,.7,-.7,.7c-.5,0,-.8,-.1,-.7,-.5c.1,-.3,0,-.8,-.4,-.8c-.4,0,-.6,.4,-.6,.8c0,.6,.5,.9,1,.9c1.1,0,1.8,-.7,2.2,-1.4c.1,.8,.5,1.4,1.3,1.4c1.2,0,2.1,-1.1,2.5,-1.8l-.2,-.2c-.5,.7,-1.2,1.7,-2,1.7c-.4,0,-.6,-.6,-.6,-1.2c0,-.4,0,-.8,.2,-1.4l.1,-.7c.1,-.6,.4,-1.2,.7,-1.6c.1,-.3,.5,-1,.9,-1c.4,0,.4,.3,.4,.6c-.1,.4,.1,.6,.4,.6c.4,0,.5,-.3,.5,-.6Z" class="g0_205"/>
<path d="M441.1,116.2c-.7,0,-1.1,-.5,-1.1,-1.1c0,-.8,.4,-1.7,1.3,-1.7c1.2,0,1.3,1,1.3,1.9c0,1,-.2,1.5,-.7,2.2c-.2,.4,-.6,.8,-1.1,1.3c-.5,.5,-1.1,1.1,-1.8,1.7v.4h4.5l.4,-2.1h-.3c-.1,.2,-.2,.4,-.2,.5c-.2,.4,-.5,.6,-1.1,.6h-2.1c.5,-.4,1,-.8,1.4,-1.1c.8,-.6,1.5,-1.4,2,-2.3c.1,-.3,.2,-.7,.2,-1.1c0,-.4,0,-.6,-.1,-.9c-.4,-.8,-1.1,-1.3,-2.2,-1.3c-.7,0,-1.4,.3,-1.8,.6c-.3,.3,-.7,.8,-.7,1.5c0,.4,.2,.8,.4,1c.2,.3,.5,.4,.9,.4c.4,0,.7,-.2,.8,-.5Z" class="g0_205"/>
<path d="M453.4,106.6l.2,-.3l-1.4,5.3c0,.3,-.1,.5,-.2,.6c-.1,.3,-.3,.6,-.5,.7c-.1,0,-.3,0,-.5,0v.2h3.1l.1,-.2c-.4,0,-.7,0,-.8,-.1c-.2,-.1,-.2,-.3,-.2,-.6c0,-.1,.1,-.4,.1,-.7l1.1,-4c.1,-.4,.2,-.6,.2,-.8c.1,-.4,.4,-.7,.6,-.9c.1,-.1,.3,-.1,.5,-.1v-.1h-1.9l-3.7,5.8H450l-.7,-5.8H447l-.1,.1c.4,0,.6,0,.7,.1c.1,.1,.3,.3,.3,.5c0,.2,0,.5,-.1,.8l-1.2,4.5c-.1,.4,-.4,.8,-.6,1c-.3,.2,-.6,.3,-.9,.3l-.1,.2h2.7l.1,-.2c-.3,0,-.6,0,-.7,-.2c-.1,-.2,-.3,-.5,-.3,-.7c0,-.2,0,-.3,.1,-.5l1.3,-4.9v-.2l.9,6.7h.3l4,-6.5Z" class="g0_205"/>
<path d="M343.4,134.6c.5,0,.9,-.4,.9,-.9c0,-.5,-.4,-.9,-.9,-.9c-.5,0,-.9,.4,-.9,.9c0,.5,.4,.9,.9,.9Z" class="g0_205"/>
<path d="M343.4,140.6c.5,0,.9,-.4,.9,-.9c0,-.5,-.4,-.9,-.9,-.9c-.5,0,-.9,.4,-.9,.9c0,.4,.4,.9,.9,.9Z" class="g0_205"/>
<path d="M343.4,146.5c.5,0,.9,-.4,.9,-.8c0,-.6,-.4,-.9,-.9,-.9c-.5,0,-.9,.4,-.9,.9c0,.4,.4,.8,.9,.8Z" class="g0_205"/>
<path d="M371.3,134.6c.5,0,.9,-.4,.9,-.9c0,-.5,-.4,-.9,-.9,-.9c-.5,0,-.9,.4,-.9,.9c0,.5,.4,.9,.9,.9Z" class="g0_205"/>
<path d="M371.3,140.6c.5,0,.9,-.4,.9,-.9c0,-.5,-.4,-.9,-.9,-.9c-.5,0,-.9,.4,-.9,.9c0,.4,.4,.9,.9,.9Z" class="g0_205"/>
<path d="M371.3,146.5c.5,0,.9,-.4,.9,-.8c0,-.6,-.4,-.9,-.9,-.9c-.5,0,-.9,.4,-.9,.9c0,.4,.4,.8,.9,.8Z" class="g0_205"/>
<path d="M404.7,134.6c.5,0,.9,-.4,.9,-.9c0,-.5,-.4,-.9,-.9,-.9c-.4,0,-.9,.4,-.9,.9c0,.5,.5,.9,.9,.9Z" class="g0_205"/>
<path d="M404.7,140.6c.5,0,.9,-.4,.9,-.9c0,-.5,-.4,-.9,-.9,-.9c-.4,0,-.9,.4,-.9,.9c0,.4,.5,.9,.9,.9Z" class="g0_205"/>
<path d="M404.7,146.5c.5,0,.9,-.4,.9,-.8c0,-.6,-.4,-.9,-.9,-.9c-.4,0,-.9,.4,-.9,.9c0,.4,.5,.8,.9,.8Z" class="g0_205"/>
<path d="M444.1,134.6c.5,0,.9,-.4,.9,-.9c0,-.5,-.4,-.9,-.9,-.9c-.5,0,-.9,.4,-.9,.9c0,.5,.4,.9,.9,.9Z" class="g0_205"/>
<path d="M444.1,140.6c.5,0,.9,-.4,.9,-.9c0,-.5,-.4,-.9,-.9,-.9c-.5,0,-.9,.4,-.9,.9c0,.4,.4,.9,.9,.9Z" class="g0_205"/>
<path d="M444.1,146.5c.5,0,.9,-.4,.9,-.8c0,-.6,-.4,-.9,-.9,-.9c-.5,0,-.9,.4,-.9,.9c0,.4,.4,.8,.9,.8Z" class="g0_205"/>
<path d="M341.2,155.1v.2c.5,0,1.1,.1,1.3,.2c.5,.2,.4,.4,.5,1V163c0,.3,0,.6,-.1,.8c-.1,.6,-.9,.7,-1.6,.8v.2H346v-.2c-.5,-.1,-1.3,-.1,-1.5,-.4c-.2,-.2,-.2,-.7,-.2,-1.3v-8.6c-.8,.4,-2.1,.7,-3.1,.8Z" class="g0_205"/>
<path d="M369.7,159.3c0,-.6,-.4,-1,-1,-1c-.3,0,-.6,.1,-.9,.3c-.3,.3,-.7,.6,-.9,.9c0,-.6,-.4,-1.2,-1,-1.2c-1.2,0,-2.1,1.2,-2.5,2l.2,.1c.4,-.5,1.1,-1.7,2,-1.7c.3,0,.4,.5,.4,1c0,.3,-.1,.6,-.2,1.1l-.4,1.2c-.1,.6,-.4,1.4,-.7,1.8c-.1,.2,-.4,.6,-.8,.6c-.4,0,-.7,0,-.6,-.4c.1,-.4,0,-.8,-.4,-.8c-.4,0,-.6,.3,-.6,.8c0,.5,.5,.9,1,.9c1,0,1.8,-.8,2.2,-1.4c.1,.8,.5,1.4,1.3,1.4c1.2,0,2,-1.1,2.5,-1.8l-.2,-.2c-.5,.6,-1.2,1.6,-2,1.6c-.4,0,-.6,-.6,-.6,-1.2c0,-.3,0,-.8,.1,-1.3l.2,-.7c.1,-.6,.4,-1.3,.7,-1.7c.1,-.2,.5,-.9,.9,-.9c.4,0,.4,.3,.3,.6c0,.4,.2,.6,.5,.6c.4,0,.5,-.3,.5,-.6Z" class="g0_205"/>
<path d="M375.6,167.1h.2l1.6,-6c.1,-.1,.1,-.3,.2,-.4c.1,-.3,.4,-.7,.6,-.9c.1,0,.4,-.1,.5,-.1v-.1h-2.2l-.1,.1c.3,0,.5,.1,.6,.3c.2,.2,.2,.6,.2,.9c0,.1,0,.2,0,.3l-1.1,4v.1l-2.5,-5.7h-2l-.1,.1c.5,0,.6,.1,.8,.2c.2,.3,.4,.7,.4,1c0,.1,0,.2,-.1,.3l-1.2,4.5c0,.3,-.3,.7,-.5,.9c-.3,.2,-.7,.4,-1,.4v.1h2.8V167c-.3,0,-.6,-.1,-.7,-.2c-.2,-.2,-.3,-.5,-.3,-.8c0,-.2,0,-.3,0,-.4l1.1,-4.4l.1,-.2l2.7,6.1Z" class="g0_205"/>
<path d="M397.8,161c0,-.5,-.4,-.9,-.8,-.9c-.5,0,-.8,.4,-.8,.9c0,.5,.5,.8,.8,.8c.3,0,.8,-.3,.8,-.8Z" class="g0_205"/>
<path d="M404.3,161c0,-.5,-.4,-.9,-.8,-.9c-.4,0,-.8,.4,-.8,.9c0,.5,.5,.8,.8,.8c.3,0,.8,-.3,.8,-.8Z" class="g0_205"/>
<path d="M410.8,161c0,-.5,-.3,-.9,-.8,-.9c-.4,0,-.8,.4,-.8,.9c0,.5,.5,.8,.8,.8c.3,0,.8,-.3,.8,-.8Z" class="g0_205"/>
<path d="M436.6,159.3c0,-.6,-.4,-1,-1,-1c-.3,0,-.6,.1,-.9,.3c-.3,.3,-.6,.6,-.9,.9c0,-.6,-.4,-1.2,-1,-1.2c-1.1,0,-2.1,1.2,-2.5,2l.3,.1c.3,-.5,1,-1.7,1.9,-1.7c.3,0,.4,.5,.4,1c0,.3,0,.6,-.2,1.1l-.3,1.2c-.2,.6,-.4,1.4,-.7,1.8c-.2,.2,-.5,.6,-.8,.6c-.5,0,-.8,0,-.7,-.4c.1,-.4,.1,-.8,-.4,-.8c-.4,0,-.6,.3,-.6,.8c0,.5,.5,.9,1.1,.9c1,0,1.7,-.8,2.1,-1.4c.1,.8,.5,1.4,1.3,1.4c1.2,0,2.1,-1.1,2.5,-1.8l-.2,-.2c-.5,.6,-1.2,1.6,-2,1.6c-.4,0,-.6,-.6,-.6,-1.2c0,-.3,0,-.8,.2,-1.3l.1,-.7c.2,-.6,.4,-1.3,.7,-1.7c.2,-.2,.5,-.9,.9,-.9c.4,0,.4,.3,.4,.6c-.1,.4,.1,.6,.4,.6c.4,0,.5,-.3,.5,-.6Z" class="g0_205"/>
<path d="M442.5,167.1h.3l1.5,-6c.1,-.1,.2,-.3,.2,-.4c.1,-.3,.4,-.7,.6,-.9c.1,0,.4,-.1,.5,-.1l.1,-.1h-2.3v.1c.2,0,.4,.1,.6,.3c.1,.2,.1,.6,.1,.9c0,.1,0,.2,0,.3l-1.1,4v.1l-2.5,-5.7h-2v.1c.4,0,.5,.1,.7,.2c.2,.3,.4,.7,.4,1c0,.1,0,.2,-.1,.3l-1.1,4.5c-.1,.3,-.4,.7,-.6,.9c-.3,.2,-.7,.4,-1,.4v.1h2.8V167c-.3,0,-.6,-.1,-.7,-.2c-.2,-.2,-.3,-.5,-.3,-.8c0,-.2,0,-.3,0,-.4l1.2,-4.4V161l2.7,6.1Z" class="g0_205"/>
<path d="M455.1,152.9l.2,-.4l-1.4,5.4c0,.3,-.1,.4,-.2,.6c-.1,.2,-.3,.5,-.5,.6c-.2,.1,-.3,.1,-.5,.1v.2h3.1v-.2c-.3,0,-.6,0,-.7,-.1c-.2,-.1,-.2,-.4,-.2,-.6c0,-.2,0,-.4,.1,-.7l1.1,-4.1c.1,-.3,.2,-.6,.2,-.8c.1,-.3,.4,-.7,.6,-.8c.1,-.1,.3,-.1,.5,-.1v-.2h-1.9l-3.7,5.9h-.1l-.7,-5.9h-2.4v.2c.3,0,.5,0,.7,.1c.1,0,.3,.3,.3,.5c0,.2,0,.4,-.1,.8l-1.2,4.5c-.1,.3,-.4,.7,-.6,.9c-.3,.3,-.6,.4,-.9,.4l-.1,.2h2.7l.1,-.2c-.3,0,-.6,-.1,-.7,-.2c-.1,-.2,-.3,-.5,-.3,-.8c0,-.1,0,-.3,.1,-.4l1.3,-4.9v-.3l.8,6.8h.4l4,-6.5Z" class="g0_205"/>
<path d="M459.2,89.4c0,.1,.1,.2,.1,.3c3.2,5.4,4,19.2,4,20.4v.6h1.4v-.6c0,-1.6,-.6,-15.5,-5.3,-20.8c0,0,-.1,0,-.1,0q-.1,0,-.1,.1Z" class="g0_205"/>
<path d="M463.3,120h1.4v-9.6h-1.4Z" class="g0_205"/>
<path d="M463.3,128.9h1.4v-9.6h-1.4Z" class="g0_205"/>
<path d="M463.3,137.9h1.4v-9.6h-1.4Z" class="g0_205"/>
<path d="M463.3,146.8h1.4v-9.6h-1.4Z" class="g0_205"/>
<path d="M459.2,168c0,0,0,.1,.1,.1c0,0,.1,0,.1,-.1c4.7,-5.3,5.3,-19.1,5.3,-20.7v-.7h-1.4v.7c0,1.2,-.8,14.9,-4,20.3c0,.2,-.1,.3,-.1,.4Z" class="g0_205"/>
<path d="M474.2,89.4c0,-.1,-.1,-.1,-.1,-.1c0,0,-.1,0,-.1,0c-4.8,5.3,-5.3,19.2,-5.3,20.8v.6h1.4v-.6c0,-1.2,.8,-15,4,-20.4c0,-.1,.1,-.2,.1,-.3Z" class="g0_205"/>
<path d="M468.7,120h1.4v-9.6h-1.4Z" class="g0_205"/>
<path d="M468.7,128.9h1.4v-9.6h-1.4Z" class="g0_205"/>
<path d="M468.7,137.9h1.4v-9.6h-1.4Z" class="g0_205"/>
<path d="M468.7,146.8h1.4v-9.6h-1.4Z" class="g0_205"/>
<path d="M474.2,168c0,-.1,-.1,-.2,-.1,-.4c-3.2,-5.4,-4,-19.1,-4,-20.3v-.7h-1.4v.7c0,1.6,.5,15.4,5.3,20.7c0,.1,.1,.1,.1,.1c0,0,.1,-.1,.1,-.1Z" class="g0_205"/>
<path d="M481.6,93.9c-.4,0,-.8,.1,-1.3,.5c-.4,.3,-.8,.6,-1.2,1.1c-.7,.8,-1.3,2,-1.3,3.3c0,1,.4,1.7,1.3,1.7c1.3,0,1.8,-.9,2.2,-1.6c-.2,1,0,1.6,.6,1.6c.3,0,.7,-.2,1.1,-.5c.4,-.3,.8,-.8,1.1,-1.4l-.2,-.1c-.3,.4,-.9,1.4,-1.3,1.4c-.2,0,-.3,-.4,-.3,-.6c0,-.9,.6,-2.4,.9,-3.4l.7,-1.9h-1l-.2,.7c-.2,-.5,-.5,-.8,-1.1,-.8Zm.2,.3c.7,0,.5,1.3,.4,1.8c-.1,.4,-.2,.7,-.3,1c-.4,1.2,-1.5,3.2,-2.3,3.2c-.6,0,-.7,-1,-.7,-1.5c0,-.4,0,-.9,.2,-1.3c.3,-1.1,1.4,-3.2,2.7,-3.2Z" class="g0_205"/>
<path d="M487.6,102.6c-1.4,0,-1.4,-1.9,-1.4,-3.5c0,-1.7,0,-3.8,1.4,-3.8c1.4,0,1.4,2.1,1.4,3.8c0,1.6,0,3.5,-1.4,3.5Zm0,-7.5c-1.9,0,-2.4,2,-2.4,3.9c0,1.9,.5,3.8,2.4,3.8c1.9,0,2.5,-1.9,2.5,-3.8c0,-1.9,-.6,-3.9,-2.5,-3.9Z" class="g0_205"/>
<path d="M481.6,111.8c-.4,0,-.8,.1,-1.3,.5c-.4,.3,-.8,.6,-1.2,1.1c-.7,.8,-1.3,2,-1.3,3.3c0,.9,.4,1.7,1.3,1.7c1.3,0,1.8,-.9,2.2,-1.6c-.2,1,0,1.6,.6,1.6c.3,0,.7,-.2,1.1,-.5c.4,-.3,.8,-.8,1.1,-1.4l-.2,-.1c-.3,.4,-.9,1.4,-1.3,1.4c-.2,0,-.3,-.4,-.3,-.6c0,-.9,.6,-2.4,.9,-3.4l.7,-1.9h-1l-.2,.7c-.2,-.5,-.5,-.8,-1.1,-.8Zm.2,.3c.7,0,.5,1.3,.4,1.8c-.1,.4,-.2,.7,-.3,1c-.4,1.2,-1.5,3.1,-2.3,3.1c-.6,0,-.7,-.9,-.7,-1.4c0,-.4,0,-.9,.2,-1.3c.3,-1.1,1.4,-3.2,2.7,-3.2Z" class="g0_205"/>
<path d="M486,113.5v.2c.3,0,.8,.1,1,.1c.3,.2,.3,.3,.3,.8v4.7c0,.3,0,.5,0,.6c-.1,.5,-.7,.6,-1.2,.6v.1h3.4v-.1c-.4,0,-.9,-.1,-1.1,-.3c-.1,-.2,-.1,-.5,-.1,-.9V113c-.6,.3,-1.6,.5,-2.3,.5Z" class="g0_205"/>
<path d="M484.2,134.4c.6,0,.9,-.4,.9,-.9c0,-.5,-.3,-.9,-.9,-.9c-.4,0,-.8,.4,-.8,.9c0,.4,.4,.9,.8,.9Z" class="g0_205"/>
<path d="M484.2,140.3c.6,0,.9,-.4,.9,-.9c0,-.5,-.3,-.8,-.9,-.8c-.4,0,-.8,.4,-.8,.8c0,.5,.4,.9,.8,.9Z" class="g0_205"/>
<path d="M484.2,146.3c.6,0,.9,-.4,.9,-.9c0,-.5,-.3,-.9,-.9,-.9c-.4,0,-.8,.4,-.8,.9c0,.5,.4,.9,.8,.9Z" class="g0_205"/>
<path d="M479.2,157.6c-.5,0,-.9,.1,-1.3,.4c-.5,.3,-.9,.7,-1.3,1.2c-.6,.7,-1.2,1.9,-1.2,3.2c0,1,.3,1.8,1.3,1.8c1.3,0,1.8,-.9,2.2,-1.6c-.2,.9,-.1,1.6,.5,1.6c.4,0,.8,-.2,1.2,-.5c.3,-.3,.7,-.8,1,-1.4l-.1,-.1c-.3,.4,-1,1.3,-1.4,1.3c-.2,0,-.3,-.3,-.3,-.5c0,-.9,.7,-2.5,1,-3.5l.7,-1.8h-1l-.3,.7c-.1,-.5,-.4,-.8,-1,-.8Zm.1,.3c.7,0,.5,1.3,.4,1.8c0,.3,-.2,.7,-.3,1c-.3,1.2,-1.4,3.1,-2.2,3.1c-.6,0,-.8,-.9,-.8,-1.4c0,-.5,0,-.9,.2,-1.4c.4,-1,1.4,-3.1,2.7,-3.1Z" class="g0_205"/>
<path d="M490.2,159.9l.3,-.4l-1.4,5.4c-.1,.3,-.2,.5,-.2,.6c-.1,.3,-.4,.5,-.6,.7c-.1,0,-.3,0,-.5,0v.2h3.1l.1,-.2c-.4,0,-.6,0,-.8,-.1c-.1,-.1,-.2,-.3,-.2,-.6c0,-.1,.1,-.4,.2,-.7l1,-4c.1,-.4,.2,-.6,.3,-.9c.1,-.3,.3,-.6,.6,-.8c.1,-.1,.2,-.1,.4,-.1l.1,-.1h-2l-3.6,5.8h-.2l-.7,-5.8h-2.3l-.1,.1c.4,0,.6,0,.7,.1c.2,.1,.4,.3,.4,.5c0,.2,-.1,.5,-.2,.8l-1.2,4.5c-.1,.4,-.3,.7,-.6,1c-.2,.2,-.6,.3,-.9,.3v.2h2.7v-.2c-.2,0,-.5,0,-.7,-.2c-.1,-.2,-.2,-.5,-.2,-.7c0,-.2,0,-.3,0,-.5l1.3,-4.9l.1,-.2l.8,6.7h.3l4,-6.5Z" class="g0_205"/>
<path d="M494.3,89.4c0,.1,.1,.2,.2,.3c3.1,5.4,3.9,19.2,3.9,20.4v.6h1.4v-.6c0,-1.6,-.5,-15.5,-5.3,-20.8c0,0,-.1,0,-.1,0c0,0,-.1,0,-.1,.1Z" class="g0_205"/>
<path d="M498.4,120h1.4v-9.6h-1.4Z" class="g0_205"/>
<path d="M498.4,128.9h1.4v-9.6h-1.4Z" class="g0_205"/>
<path d="M498.4,137.9h1.4v-9.6h-1.4Z" class="g0_205"/>
<path d="M498.4,146.8h1.4v-9.6h-1.4Z" class="g0_205"/>
<path d="M494.3,168c0,0,.1,.1,.1,.1c0,0,.1,0,.1,-.1c4.8,-5.3,5.3,-19.1,5.3,-20.7v-.7h-1.4v.7c0,1.2,-.8,14.9,-3.9,20.3c-.1,.2,-.2,.3,-.2,.4Z" class="g0_205"/>
<path d="M505.3,130.6h7.6v-.9h-7.6Zm0,-3h7.6v-.9h-7.6Z" class="g0_205"/>
<path d="M524,89.4c0,-.1,-.1,-.1,-.1,-.1q-.1,0,-.1,0c-4.8,5.3,-5.3,19.2,-5.3,20.8v.6h1.4v-.6c0,-1.2,.7,-15,3.9,-20.4c.1,-.1,.2,-.2,.2,-.3Z" class="g0_205"/>
<path d="M518.5,120h1.4v-9.6h-1.4Z" class="g0_205"/>
<path d="M518.5,128.9h1.4v-9.6h-1.4Z" class="g0_205"/>
<path d="M518.5,137.9h1.4v-9.6h-1.4Z" class="g0_205"/>
<path d="M518.5,146.8h1.4v-9.6h-1.4Z" class="g0_205"/>
<path d="M524,168c0,-.1,-.1,-.2,-.2,-.4c-3.2,-5.4,-3.9,-19.1,-3.9,-20.3v-.7h-1.4v.7c0,1.6,.5,15.4,5.3,20.7q0,.1,.1,.1c0,0,.1,-.1,.1,-.1Z" class="g0_205"/>
<path d="M525.1,102.5c0,.6,.4,1,1.1,1c.4,0,.8,-.2,1.3,-.6c.8,-.7,2,-2.2,2.8,-3.4c.3,-.6,.7,-1.3,1,-1.8c.4,-.8,1.1,-2.1,1.1,-2.9c0,-.3,0,-.5,-.1,-.7c-.1,-.1,-.3,-.2,-.5,-.2c-.1,0,-.3,.1,-.4,.2c-.2,.1,-.2,.3,-.2,.6c0,.5,.2,1,.2,1.4c0,.6,-.2,1.1,-.5,1.6c-.2,.4,-.4,.8,-.8,1.4H530l-.3,-2c-.1,-.5,-.3,-1.6,-.4,-2c-.2,-.7,-.3,-1.2,-1.3,-1.2c-1.2,0,-1.4,1.8,-1.6,2.5l.3,.2c.1,-.6,.5,-2.4,1,-2.4c.3,0,.5,1.1,.6,1.3c0,.3,.1,.7,.2,1.4l.6,3.5c-.3,.8,-1.2,1.6,-1.8,2.1c-.2,.2,-.5,.3,-.7,.3c-.1,0,-.2,-.1,-.2,-.2c-.2,-.2,-.2,-.7,-.7,-.7c-.4,0,-.6,.3,-.6,.6Z" class="g0_205"/>
<path d="M534,95.6v.2c.4,0,.8,.1,1,.1c.3,.2,.3,.3,.3,.8v4.7c0,.3,0,.5,0,.6c-.1,.5,-.7,.5,-1.2,.6v.1h3.4v-.1c-.4,0,-.9,-.1,-1,-.3c-.2,-.2,-.2,-.5,-.2,-.9V95.1c-.6,.3,-1.6,.5,-2.3,.5Z" class="g0_205"/>
<path d="M525.1,120.4c0,.6,.4,1,1.1,1c.4,0,.8,-.2,1.3,-.6c.8,-.7,2,-2.2,2.8,-3.4c.3,-.6,.7,-1.3,1,-1.8c.4,-.8,1.1,-2.1,1.1,-2.9c0,-.3,0,-.5,-.1,-.7c-.1,-.1,-.3,-.2,-.5,-.2c-.1,0,-.3,.1,-.4,.2c-.2,.1,-.2,.3,-.2,.6c0,.5,.2,1,.2,1.4c0,.6,-.2,1.1,-.5,1.6c-.2,.4,-.4,.8,-.8,1.4H530l-.3,-2c-.1,-.5,-.3,-1.6,-.4,-2c-.2,-.7,-.3,-1.2,-1.3,-1.2c-1.2,0,-1.4,1.8,-1.6,2.5l.3,.2c.1,-.6,.5,-2.4,1,-2.4c.3,0,.5,1.1,.6,1.3c0,.3,.1,.7,.2,1.4l.6,3.5c-.3,.8,-1.2,1.6,-1.8,2.1c-.2,.2,-.5,.3,-.7,.3c-.1,0,-.2,-.1,-.2,-.2c-.2,-.2,-.2,-.7,-.7,-.7c-.4,0,-.6,.3,-.6,.6Z" class="g0_205"/>
<path d="M535.2,116c-.6,0,-1,-.5,-1,-1.2c0,-.8,.4,-1.6,1.3,-1.6c1.2,0,1.3,1,1.3,1.9c0,.9,-.3,1.5,-.7,2.1c-.3,.4,-.7,.9,-1.1,1.4c-.5,.5,-1.1,1,-1.9,1.7v.3h4.6l.3,-2h-.3c0,.2,-.1,.4,-.2,.5c-.2,.4,-.5,.6,-1,.6h-2.1v-.1c.5,-.3,.9,-.7,1.4,-1c.7,-.7,1.5,-1.4,1.9,-2.3c.2,-.4,.3,-.8,.3,-1.2c0,-.3,-.1,-.6,-.2,-.8c-.3,-.8,-1.1,-1.3,-2.2,-1.3c-.7,0,-1.3,.2,-1.7,.6c-.4,.3,-.7,.8,-.7,1.4c0,.5,.1,.8,.4,1.1c.2,.2,.5,.4,.9,.4c.4,0,.7,-.2,.7,-.5Z" class="g0_205"/>
<path d="M532.8,134.4c.5,0,.8,-.4,.8,-.9c0,-.5,-.3,-.9,-.8,-.9c-.5,0,-.9,.4,-.9,.9c0,.4,.4,.9,.9,.9Z" class="g0_205"/>
<path d="M532.8,140.3c.5,0,.8,-.4,.8,-.9c0,-.5,-.3,-.8,-.8,-.8c-.5,0,-.9,.4,-.9,.8c0,.5,.4,.9,.9,.9Z" class="g0_205"/>
<path d="M532.8,146.3c.5,0,.8,-.4,.8,-.9c0,-.5,-.3,-.9,-.8,-.9c-.5,0,-.9,.4,-.9,.9c0,.5,.4,.9,.9,.9Z" class="g0_205"/>
<path d="M523.4,166.2c0,.6,.5,1,1.1,1c.4,0,.8,-.2,1.3,-.6c.8,-.7,2,-2.2,2.8,-3.4c.4,-.7,.7,-1.3,1,-1.8c.4,-.8,1.1,-2.2,1.1,-3c0,-.2,0,-.4,-.1,-.6c-.1,-.2,-.3,-.2,-.5,-.2c-.1,0,-.3,0,-.4,.2c-.2,.1,-.2,.3,-.2,.6c0,.5,.2,.9,.2,1.3c0,.6,-.2,1.2,-.4,1.6c-.3,.5,-.5,.9,-.9,1.5h-.1l-.3,-2c-.1,-.5,-.3,-1.6,-.4,-2c-.2,-.7,-.3,-1.2,-1.3,-1.2c-1.2,0,-1.4,1.7,-1.6,2.5l.3,.1c.1,-.5,.6,-2.3,1,-2.3c.3,0,.5,1,.6,1.3c0,.3,.1,.7,.2,1.3l.6,3.6c-.3,.8,-1.1,1.6,-1.8,2.1c-.2,.2,-.5,.3,-.7,.3c-.1,0,-.1,-.1,-.2,-.2c-.2,-.3,-.2,-.7,-.7,-.7c-.4,0,-.6,.2,-.6,.6Z" class="g0_205"/>
<path d="M536.6,166.4h.3l1.6,-6c.1,-.2,.1,-.3,.2,-.5c.1,-.2,.3,-.7,.6,-.8c.1,-.1,.3,-.1,.5,-.1v-.1h-2.2l-.1,.1c.2,0,.5,.1,.6,.3c.2,.1,.2,.5,.2,.8c0,.1,0,.2,-.1,.4l-1,4v.1l-2.6,-5.7h-1.9l-.1,.1c.5,0,.6,0,.7,.2c.3,.2,.4,.7,.4,1c0,.1,0,.2,0,.3l-1.2,4.4c-.1,.4,-.3,.7,-.6,1c-.2,.2,-.6,.3,-.9,.3l-.1,.2h2.8l.1,-.2c-.3,0,-.6,0,-.8,-.2c-.1,-.2,-.3,-.5,-.3,-.7c0,-.2,0,-.3,.1,-.5l1.1,-4.3l.1,-.2l2.6,6.1Z" class="g0_205"/>
<path d="M541.6,89.4c0,.1,0,.2,.1,.3c3.2,5.4,4,19.2,4,20.4v.6h1.4v-.6c0,-1.6,-.6,-15.5,-5.3,-20.8q-.1,0,-.1,0q-.1,0,-.1,.1Z" class="g0_205"/>
<path d="M545.7,120h1.4v-9.6h-1.4Z" class="g0_205"/>
<path d="M545.7,128.9h1.4v-9.6h-1.4Z" class="g0_205"/>
<path d="M545.7,137.9h1.4v-9.6h-1.4Z" class="g0_205"/>
<path d="M545.7,146.8h1.4v-9.6h-1.4Z" class="g0_205"/>
<path d="M541.6,168c0,0,0,.1,.1,.1l.1,-.1c4.7,-5.3,5.3,-19.1,5.3,-20.7v-.7h-1.4v.7c0,1.2,-.8,14.9,-4,20.3c-.1,.2,-.1,.3,-.1,.4Z" class="g0_205"/>
<path d="M373,392.7c0,0,-.1,-.1,-.1,-.1c0,0,-.1,0,-.1,.1c-4.8,5.3,-5.3,19.1,-5.3,20.7v.7h1.4v-.7c0,-1.2,.8,-14.9,3.9,-20.3c.1,-.2,.2,-.3,.2,-.4Z" class="g0_205"/>
<path d="M367.5,423.3h1.4v-9.6h-1.4Z" class="g0_205"/>
<path d="M373,444.5c0,-.1,-.1,-.2,-.2,-.4c-3.1,-5.4,-3.9,-19.1,-3.9,-20.3v-.7h-1.4v.7c0,1.6,.5,15.4,5.3,20.7c0,.1,.1,.1,.1,.1c0,0,.1,-.1,.1,-.1Z" class="g0_205"/>
<path d="M375.4,394.5v.2c.5,0,1.1,.1,1.3,.2c.5,.3,.4,.4,.5,1v6.6c0,.3,0,.5,-.1,.7c-.1,.7,-.9,.8,-1.6,.8v.2h4.7V404c-.5,0,-1.3,0,-1.5,-.3c-.2,-.3,-.2,-.8,-.2,-1.3v-8.6c-.8,.4,-2.1,.7,-3.1,.7Z" class="g0_205"/>
<path d="M397.6,400.8h7.6V400h-7.6Z" class="g0_205"/>
<path d="M408.2,394.5v.2c.4,0,1.1,.1,1.3,.2c.4,.3,.4,.4,.4,1v6.6c0,.3,0,.5,0,.7c-.1,.7,-.9,.8,-1.7,.8v.2h4.7V404c-.5,0,-1.2,0,-1.4,-.3c-.2,-.3,-.3,-.8,-.3,-1.3v-8.6c-.7,.4,-2.1,.7,-3,.7Z" class="g0_205"/>
<path d="M431.4,394.5v.2c.5,0,1.1,.1,1.3,.2c.5,.3,.5,.4,.5,1v6.6c0,.3,0,.5,-.1,.7c0,.7,-.8,.8,-1.6,.8v.2h4.7V404c-.5,0,-1.2,0,-1.5,-.3c-.2,-.3,-.2,-.8,-.2,-1.3v-8.6c-.8,.4,-2.1,.7,-3.1,.7Z" class="g0_205"/>
<path d="M375.4,412.4v.2c.5,0,1.1,.1,1.3,.2c.5,.3,.4,.4,.5,1v6.6c0,.3,0,.5,-.1,.7c-.1,.7,-.9,.8,-1.6,.8v.2h4.7v-.2c-.5,0,-1.3,0,-1.5,-.3c-.2,-.3,-.2,-.8,-.2,-1.3v-8.6c-.8,.4,-2.1,.7,-3.1,.7Z" class="g0_205"/>
<path d="M405.6,422c-1.9,0,-1.9,-2.7,-1.9,-4.9c0,-2.2,0,-5.2,1.9,-5.2c2,0,2,3,2,5.2c0,2.2,-.1,4.9,-2,4.9Zm0,-10.3c-2.6,0,-3.4,2.7,-3.4,5.4c0,2.6,.9,5.2,3.4,5.2c2.6,0,3.4,-2.6,3.4,-5.2c0,-2.7,-.8,-5.4,-3.4,-5.4Z" class="g0_205"/>
<path d="M433.6,422c-1.9,0,-1.9,-2.7,-1.9,-4.9c0,-2.2,0,-5.2,1.9,-5.2c2,0,2,3,2,5.2c0,2.2,-.1,4.9,-2,4.9Zm0,-10.3c-2.6,0,-3.3,2.7,-3.3,5.4c0,2.6,.8,5.2,3.3,5.2c2.6,0,3.4,-2.6,3.4,-5.2c0,-2.7,-.8,-5.4,-3.4,-5.4Z" class="g0_205"/>
<path d="M375.4,430.3v.2c.5,0,1.1,.1,1.3,.2c.5,.3,.4,.4,.5,1v6.6c0,.3,0,.5,-.1,.7c-.1,.7,-.9,.8,-1.6,.8v.2h4.7v-.2c-.5,0,-1.3,0,-1.5,-.3c-.2,-.3,-.2,-.8,-.2,-1.3v-8.6c-.8,.4,-2.1,.7,-3.1,.7Z" class="g0_205"/>
<path d="M403.4,430.3v.2c.5,0,1.1,.1,1.3,.2c.5,.3,.5,.4,.5,1v6.6c0,.3,0,.5,-.1,.7c-.1,.7,-.9,.8,-1.6,.8v.2h4.7v-.2c-.5,0,-1.3,0,-1.5,-.3c-.2,-.3,-.2,-.8,-.2,-1.3v-8.6c-.8,.4,-2.1,.7,-3.1,.7Z" class="g0_205"/>
<path d="M431.4,430.3v.2c.5,0,1.1,.1,1.3,.2c.5,.3,.5,.4,.5,1v6.6c0,.3,0,.5,-.1,.7c0,.7,-.8,.8,-1.6,.8v.2h4.7v-.2c-.5,0,-1.2,0,-1.5,-.3c-.2,-.3,-.2,-.8,-.2,-1.3v-8.6c-.8,.4,-2.1,.7,-3.1,.7Z" class="g0_205"/>
<path d="M438.3,392.7c0,.1,0,.2,.1,.4c3.2,5.4,4,19.1,4,20.3v.7h1.4v-.7c0,-1.6,-.6,-15.4,-5.4,-20.7q0,-.1,0,-.1c-.1,0,-.1,.1,-.1,.1Z" class="g0_205"/>
<path d="M442.4,423.3h1.4v-9.6h-1.4Z" class="g0_205"/>
<path d="M438.3,444.5c0,0,0,.1,.1,.1v-.1c4.8,-5.3,5.4,-19.1,5.4,-20.7v-.7h-1.4v.7c0,1.2,-.8,14.9,-4,20.3c-.1,.2,-.1,.3,-.1,.4Z" class="g0_205"/>
<path d="M453.3,392.7c0,0,-.1,-.1,-.1,-.1q-.1,0,-.1,.1c-4.8,5.3,-5.3,19.1,-5.3,20.7v.7h1.4v-.7c0,-1.2,.8,-14.9,3.9,-20.3c.1,-.2,.2,-.3,.2,-.4Z" class="g0_205"/>
<path d="M447.8,423.3h1.4v-9.6h-1.4Z" class="g0_205"/>
<path d="M453.3,444.5c0,-.1,-.1,-.2,-.2,-.4C450,438.7,449.2,425,449.2,423.8v-.7h-1.4v.7c0,1.6,.5,15.4,5.3,20.7q0,.1,.1,.1c0,0,.1,-.1,.1,-.1Z" class="g0_205"/>
<path d="M458.2,397.8c-.4,0,-.8,.1,-1.3,.4c-.4,.3,-.8,.7,-1.2,1.2c-.6,.7,-1.2,1.9,-1.2,3.2c0,1,.3,1.8,1.3,1.8c1.3,0,1.7,-.9,2.1,-1.6h.1c-.2,.9,-.1,1.6,.5,1.6c.4,0,.7,-.2,1.1,-.5c.4,-.3,.8,-.8,1.1,-1.4l-.2,-.1c-.2,.4,-.9,1.3,-1.3,1.3c-.2,0,-.3,-.3,-.3,-.5c0,-1,.6,-2.5,1,-3.5l.7,-1.8h-1l-.3,.6c-.2,-.4,-.5,-.7,-1.1,-.7Zm.2,.2c.7,0,.5,1.3,.4,1.9c0,.3,-.2,.7,-.3,1c-.3,1.2,-1.4,3.1,-2.2,3.1c-.6,0,-.8,-.9,-.8,-1.4c0,-.5,0,-.9,.2,-1.4c.4,-1,1.4,-3.2,2.7,-3.2Z" class="g0_205"/>
<path d="M464.2,406.5c-1.4,0,-1.4,-2,-1.4,-3.6c0,-1.6,0,-3.7,1.4,-3.7c1.4,0,1.4,2.1,1.4,3.7c0,1.6,0,3.6,-1.4,3.6Zm0,-7.5c-1.9,0,-2.4,1.9,-2.4,3.9c0,1.9,.6,3.8,2.4,3.8c1.9,0,2.5,-1.9,2.5,-3.8c0,-2,-.6,-3.9,-2.5,-3.9Z" class="g0_205"/>
<path d="M458.2,415.7c-.4,0,-.8,.1,-1.3,.4c-.4,.3,-.8,.7,-1.2,1.2c-.6,.7,-1.2,1.9,-1.2,3.2c0,1,.3,1.8,1.3,1.8c1.3,0,1.7,-.9,2.1,-1.6h.1c-.2,.9,-.1,1.6,.5,1.6c.4,0,.7,-.2,1.1,-.5c.4,-.3,.8,-.8,1.1,-1.4l-.2,-.1c-.2,.4,-.9,1.3,-1.3,1.3c-.2,0,-.3,-.3,-.3,-.5c0,-1,.6,-2.5,1,-3.5l.7,-1.8h-1l-.3,.6c-.2,-.4,-.5,-.7,-1.1,-.7Zm.2,.2c.7,0,.5,1.3,.4,1.9c0,.3,-.2,.7,-.3,1c-.3,1.2,-1.4,3.1,-2.2,3.1c-.6,0,-.8,-.9,-.8,-1.4c0,-.5,0,-.9,.2,-1.4c.4,-1,1.4,-3.2,2.7,-3.2Z" class="g0_205"/>
<path d="M462.6,417.4v.2c.4,0,.8,0,1,.1c.3,.2,.3,.3,.3,.7v4.8c0,.2,0,.4,0,.6c-.1,.4,-.7,.5,-1.2,.5v.2h3.4v-.2c-.4,0,-.9,0,-1.1,-.2c-.1,-.2,-.1,-.6,-.1,-1v-6.2c-.6,.3,-1.6,.5,-2.3,.5Z" class="g0_205"/>
<path d="M458.2,433.6c-.4,0,-.8,.1,-1.3,.4c-.4,.3,-.8,.7,-1.2,1.2c-.6,.7,-1.2,1.9,-1.2,3.2c0,1,.3,1.8,1.3,1.8c1.3,0,1.7,-.9,2.1,-1.6h.1c-.2,.9,-.1,1.6,.5,1.6c.4,0,.7,-.2,1.1,-.5c.4,-.3,.8,-.8,1.1,-1.4l-.2,-.1c-.2,.4,-.9,1.3,-1.3,1.3c-.2,0,-.3,-.3,-.3,-.5c0,-1,.6,-2.5,1,-3.5l.7,-1.8h-1l-.3,.6c-.2,-.4,-.5,-.7,-1.1,-.7Zm.2,.2c.7,0,.5,1.3,.4,1.9c0,.3,-.2,.7,-.3,1c-.3,1.2,-1.4,3.1,-2.2,3.1c-.6,0,-.8,-.9,-.8,-1.4c0,-.5,0,-.9,.2,-1.4c.4,-1,1.4,-3.2,2.7,-3.2Z" class="g0_205"/>
<path d="M463.8,437.7c-.7,0,-1.1,-.4,-1.1,-1.1c0,-.8,.5,-1.6,1.4,-1.6c1.2,0,1.3,.9,1.3,1.9c0,.9,-.3,1.4,-.7,2.1c-.3,.4,-.7,.8,-1.2,1.3c-.4,.5,-1,1.1,-1.8,1.8v.3h4.6l.3,-2.1h-.3c0,.2,-.1,.4,-.2,.6c-.2,.3,-.5,.5,-1,.5H463c.4,-.4,.9,-.7,1.4,-1.1c.7,-.6,1.5,-1.4,1.9,-2.2c.2,-.4,.3,-.8,.3,-1.2c0,-.3,-.1,-.6,-.2,-.9c-.4,-.7,-1.1,-1.2,-2.2,-1.2c-.7,0,-1.3,.2,-1.7,.5c-.4,.4,-.7,.8,-.7,1.5c0,.5,.1,.8,.4,1c.2,.3,.4,.5,.9,.5c.4,0,.7,-.2,.7,-.6Z" class="g0_205"/>
<path d="M468.5,392.7c0,.1,0,.2,.1,.4c3.2,5.4,4,19.1,4,20.3v.7H474v-.7c0,-1.6,-.6,-15.4,-5.3,-20.7q-.1,-.1,-.1,-.1c-.1,0,-.1,.1,-.1,.1Z" class="g0_205"/>
<path d="M472.6,423.3H474v-9.6h-1.4Z" class="g0_205"/>
<path d="M468.5,444.5c0,0,0,.1,.1,.1l.1,-.1c4.7,-5.3,5.3,-19.1,5.3,-20.7v-.7h-1.4v.7c0,1.2,-.8,14.9,-4,20.3c-.1,.2,-.1,.3,-.1,.4Z" class="g0_205"/>
<path d="M479.5,420.5h7.6v-.8h-7.6Zm0,-3h7.6v-.8h-7.6Z" class="g0_205"/>
<path d="M498.1,392.7c0,0,0,-.1,-.1,-.1c0,0,-.1,0,-.1,.1c-4.7,5.3,-5.3,19.1,-5.3,20.7v.7H494v-.7c0,-1.2,.8,-14.9,4,-20.3c.1,-.2,.1,-.3,.1,-.4Z" class="g0_205"/>
<path d="M492.6,423.3H494v-9.6h-1.4Z" class="g0_205"/>
<path d="M498.1,444.5c0,-.1,0,-.2,-.1,-.4c-3.2,-5.4,-4,-19.1,-4,-20.3v-.7h-1.4v.7c0,1.6,.6,15.4,5.3,20.7c0,.1,.1,.1,.1,.1c.1,0,.1,-.1,.1,-.1Z" class="g0_205"/>
<path d="M502.7,404.1c-1.9,0,-1.9,-2.7,-1.9,-4.9c0,-2.2,0,-5.2,1.9,-5.2c2,0,2,3,2,5.2c0,2.2,-.1,4.9,-2,4.9Zm0,-10.3c-2.6,0,-3.3,2.7,-3.3,5.4c0,2.6,.8,5.2,3.3,5.2c2.6,0,3.4,-2.6,3.4,-5.2c0,-2.7,-.7,-5.4,-3.4,-5.4Z" class="g0_205"/>
<path d="M500.5,412.4v.2c.5,0,1.1,.1,1.4,.2c.4,.3,.4,.4,.4,1v6.6c0,.3,0,.5,0,.7c-.1,.7,-.9,.8,-1.7,.8v.2h4.7v-.2c-.5,0,-1.2,0,-1.4,-.3c-.3,-.3,-.3,-.8,-.3,-1.3v-8.6c-.8,.4,-2.1,.7,-3.1,.7Z" class="g0_205"/>
<path d="M502.7,439.9c-1.9,0,-1.9,-2.7,-1.9,-4.9c0,-2.2,0,-5.2,1.9,-5.2c2,0,2,3,2,5.2c0,2.2,-.1,4.9,-2,4.9Zm0,-10.3c-2.6,0,-3.3,2.7,-3.3,5.4c0,2.6,.8,5.2,3.3,5.2c2.6,0,3.4,-2.6,3.4,-5.2c0,-2.7,-.7,-5.4,-3.4,-5.4Z" class="g0_205"/>
<path d="M507.4,392.7c0,.1,0,.2,.1,.4c3.2,5.4,4,19.1,4,20.3v.7h1.4v-.7c0,-1.6,-.6,-15.4,-5.3,-20.7q-.1,-.1,-.1,-.1c-.1,0,-.1,.1,-.1,.1Z" class="g0_205"/>
<path d="M511.5,423.3h1.4v-9.6h-1.4Z" class="g0_205"/>
<path d="M507.4,444.5c0,0,0,.1,.1,.1l.1,-.1c4.7,-5.3,5.3,-19.1,5.3,-20.7v-.7h-1.4v.7c0,1.2,-.8,14.9,-4,20.3c-.1,.2,-.1,.3,-.1,.4Z" class="g0_205"/>
<image clip-path="url(#c0_205)" preserveAspectRatio="none" x="156" y="626" width="293" height="293" xlink:href="img/1.jpg"/>
</svg>