<?xml version="1.0" encoding="UTF-8" standalone="no"?>
<!DOCTYPE svg PUBLIC "-//W3C//DTD SVG 1.1//EN"
"http://www.w3.org/Graphics/SVG/1.1/DTD/svg11.dtd">
<svg viewBox="0 0 811 1017" version="1.1" xmlns="http://www.w3.org/2000/svg" xmlns:xlink="http://www.w3.org/1999/xlink">
<defs>
<style type="text/css"><![CDATA[
.g0_339{
fill: #F7F5E8;
}
.g1_339{
fill: #000;
}
]]></style>
</defs>
<path d="M156.1,303.2H724.4V82.5H156.1Z" class="g0_339"/>
<path d="M398.2,499.1h.4V472.5h-.4Z" class="g1_339"/>
<path d="M403.8,538.6h.4V512h-.4Z" class="g1_339"/>
<path d="M379.5,524.1v3.3l-.3,-.1l-6.2,-3l-.4,-.2l.4,-.1l6.2,-3l.3,-.1v.3l-.1,.2l-6.2,2.9L373,524h.2l6.2,2.9l-.2,.4l-.1,-.2v-3Z" class="g1_339"/>
<path d="M379.1,524.1h.4v-2.9h-.4Z" class="g1_339"/>
<path d="M379.3,524.3h.2V524h-.2Z" class="g1_339"/>
<path d="M379.5,524.3h24.7V524H379.5Z" class="g1_339"/>
<path d="M122.3,579.7h.3v-25h-.3Z" class="g1_339"/>
<path d="M137.8,554.7v-3.2l.3,.1l6.3,2.9l.3,.2l-.3,.2l-6.3,2.9l-.3,.1v-.3l.1,-.2l6.3,-2.9l.2,.4h-.2l-6.3,-3l.2,-.3v3.1Z" class="g1_339"/>
<path d="M137.8,557.6h.3v-2.9h-.3Z" class="g1_339"/>
<path d="M137.8,554.9h.2v-.4h-.2Z" class="g1_339"/>
<path d="M122.3,554.9h15.5v-.4H122.3Z" class="g1_339"/>
<path d="M495.5,584.5h.3V557.8h-.3Z" class="g1_339"/>
<path d="M471.2,570v3.2l-.3,-.1l-6.2,-2.9l-.4,-.2l.4,-.2l6.2,-2.9l.3,-.1v.3l-.1,.1l-6.3,3l-.1,-.4h.1l6.3,2.9l-.2,.4l-.1,-.2V570Z" class="g1_339"/>
<path d="M470.8,570h.4v-2.9h-.4Z" class="g1_339"/>
<path d="M471,570.2h.2v-.4H471Z" class="g1_339"/>
<path d="M471.2,570.2h24.6v-.4H471.2Z" class="g1_339"/>
<path d="M636,626.6h.3V554.7H636Z" class="g1_339"/>
<path d="M626.5,620.1h.3v-26h-.3Z" class="g1_339"/>
<path d="M626.5,607.7l.3,.2l9.6,-7.9l-.2,-.3Z" class="g1_339"/>
<path d="M509.2,683.5h.4V640.6h-.4Z" class="g1_339"/>
</svg>