<?xml version="1.0" encoding="UTF-8" standalone="no"?>
<!DOCTYPE svg PUBLIC "-//W3C//DTD SVG 1.1//EN"
"http://www.w3.org/Graphics/SVG/1.1/DTD/svg11.dtd">
<svg viewBox="0 0 811 1017" version="1.1" xmlns="http://www.w3.org/2000/svg" xmlns:xlink="http://www.w3.org/1999/xlink">
<defs>
<style type="text/css"><![CDATA[
.g0_67{
fill: #0E0E0E;
}
]]></style>
</defs>
<path d="M412.3,496c0,-.1,-.1,-.1,-.1,-.1c0,0,-.1,0,-.1,0c-4.8,5.3,-5.3,19.2,-5.3,20.8v.7h1.4v-.7c0,-1.2,.8,-15,3.9,-20.4c.1,-.1,.2,-.2,.2,-.3Z" class="g0_67"/>
<path d="M406.8,526.6h1.4V517h-1.4Z" class="g0_67"/>
<path d="M412.3,547.8c0,-.2,-.1,-.3,-.2,-.4C409,542,408.2,528.3,408.2,527.1v-.7h-1.4v.7c0,1.5,.5,15.4,5.3,20.7c0,0,.1,0,.1,0c0,0,.1,0,.1,0Z" class="g0_67"/>
<path d="M414.7,497.8v.2c.4,0,1.1,.1,1.3,.2c.5,.2,.4,.4,.5,1v6.5c0,.3,0,.6,-.1,.8c-.1,.7,-.9,.8,-1.6,.8v.2h4.7v-.2c-.5,0,-1.3,-.1,-1.5,-.3c-.2,-.3,-.2,-.8,-.2,-1.4V497c-.8,.4,-2.1,.8,-3.1,.8Z" class="g0_67"/>
<path d="M439.6,501.1c-.9,0,-1.5,-.6,-1.5,-1.6c0,-1,.6,-2.2,1.9,-2.2c1.6,0,1.8,1.4,1.8,2.6c0,1.3,-.4,2,-1,2.9c-.4,.6,-.9,1.2,-1.6,1.9c-.6,.7,-1.5,1.5,-2.5,2.4v.4H443l.5,-2.8H443c0,.3,-.2,.5,-.3,.7c-.2,.5,-.6,.8,-1.4,.8h-2.8v-.1c.6,-.4,1.3,-1,1.8,-1.4c1.1,-.9,2.1,-1.9,2.7,-3.1c.3,-.6,.4,-1.1,.4,-1.7c0,-.4,-.1,-.8,-.3,-1.1c-.4,-1.1,-1.4,-1.8,-2.9,-1.8c-1,0,-1.9,.4,-2.4,.8c-.5,.5,-1,1.1,-1,2c0,.7,.2,1.1,.5,1.5c.3,.3,.7,.5,1.3,.5c.5,0,.9,-.2,1,-.7Z" class="g0_67"/>
<path d="M463.2,507.4c-1,0,-1.8,-1,-1.8,-1.9c0,-.8,.5,-1.4,1.2,-1.4c-.1,-.3,-.6,-.5,-1.1,-.5c-.2,0,-.4,0,-.6,.1c-.5,.2,-.9,.8,-.9,1.6c0,.3,.1,.6,.2,.9c.6,.9,1.6,1.4,3,1.4c1.1,0,1.9,-.3,2.5,-.8c.6,-.5,1.1,-1.1,1.1,-2.1c0,-.3,-.1,-.6,-.2,-.9c-.4,-.9,-1.2,-1.5,-2.2,-1.8v-.1c.6,-.1,1.1,-.5,1.5,-.9c.3,-.4,.5,-.9,.5,-1.6c0,-.3,0,-.6,-.2,-.9c-.4,-1,-1.6,-1.5,-2.9,-1.5c-.9,0,-1.6,.2,-2.1,.6c-.4,.2,-.8,.7,-.8,1.3c0,.5,.1,.8,.4,1c.2,.3,.5,.5,.9,.5c.3,0,.5,-.1,.7,-.2c.2,-.1,.2,-.2,.3,-.3c-.6,0,-1,-.5,-1,-1.1c0,-.8,.7,-1.5,1.6,-1.5c1,0,1.5,.9,1.5,2.2c0,1.2,-.3,2.4,-1.4,2.4c-.3,0,-.6,-.2,-.8,-.2c-.3,0,-.8,.1,-.8,.4c0,.3,.5,.4,.8,.4c.3,0,.7,-.1,.9,-.3c1.2,0,1.6,1.1,1.6,2.4c0,1.4,-.6,2.8,-1.9,2.8Z" class="g0_67"/>
<path d="M417,517v5.4h-3.4c1.1,-1.8,2.3,-3.6,3.4,-5.4Zm-3.8,5.3v.6H417v.6c0,1.2,-.1,1.7,-.7,1.7v.2h2.8v-.2c-.6,0,-.7,-.7,-.7,-1.8v-.5h1.7c0,0,0,-.5,0,-.5c0,0,-1.7,0,-1.7,0v-7.5h-.5l-4.7,7.4Z" class="g0_67"/>
<path d="M442.9,514.9v0c-.4,.2,-1,.3,-1.8,.3c-.7,0,-1.2,-.1,-1.6,-.3l-1.4,5.6v.1c0,.2,-.1,.3,.1,.3c.2,0,.2,-.2,.3,-.4c.2,-.8,.8,-1.3,1.6,-1.3c1.2,0,1.4,.9,1.4,2.2c0,1.1,-.2,2,-.6,2.6c-.3,.5,-.8,1.3,-1.6,1.3c-.7,0,-1.1,-.8,-1.2,-1.4c-.1,-.4,-.2,-1,-.8,-1c-.4,0,-.6,.3,-.6,.8c0,.3,0,.5,.1,.7c.5,.7,1.3,1.1,2.5,1.1c.5,0,1.1,0,1.5,-.3c1.3,-.5,2.4,-1.6,2.4,-3.5c0,-.4,-.1,-.8,-.2,-1.2c-.4,-1,-1.4,-1.7,-2.8,-1.7c-.5,0,-1.1,.2,-1.5,.7l.1,-.3l.7,-2.8c0,0,.8,.1,1.3,.1c1.1,0,1.9,-.6,2.1,-1.6Z" class="g0_67"/>
<path d="M465.3,522c0,1.7,-.3,3.3,-1.8,3.3c-1.3,0,-1.9,-1.7,-1.9,-4v-.6c.5,-.9,1,-1.8,2.1,-1.8c1.3,0,1.6,1.6,1.6,3.1Zm1.2,-5.6c0,-.7,-1.3,-1.5,-2.3,-1.5c-3.2,0,-4.1,2.9,-4.1,6c0,2.4,1,4.6,3.3,4.6c2.1,0,3.4,-1.5,3.4,-3.6c0,-1.9,-1.1,-3.3,-3,-3.3c-1,0,-1.6,.6,-2.1,1.3v-.1c0,-1.1,-.1,-2.3,.3,-3c.4,-.6,1,-1.6,2,-1.6c1.5,0,1,1.8,1.9,1.8c.5,0,.6,-.2,.6,-.6Z" class="g0_67"/>
<path d="M415.5,543.4c.3,0,.6,-.1,.8,-.3c.5,-.8,1,-2.2,1.3,-3.1l.9,-2.4c.6,-1.5,1.3,-2.9,1.9,-4.4V533h-4.3c-.6,0,-1.2,0,-1.3,-.4c0,-.1,0,-.3,.1,-.4h-.3l-1,3.7h.3l.2,-.5c.2,-.6,.6,-1,1.3,-1.1c.3,0,.6,0,.9,0h3.3l-2,3.5c-.5,.8,-.8,1.3,-1.1,1.8c-.3,.5,-.5,1,-.7,1.3c-.2,.6,-.4,1,-.6,1.4c-.1,.2,-.1,.3,-.1,.4c-.1,0,0,.1,0,.2c0,.3,.1,.5,.4,.5Z" class="g0_67"/>
<path d="M440.1,533.1c1.5,0,1.8,1.2,1.8,2.2c0,.9,-.6,1.5,-1.2,1.9c-1,-.5,-2.3,-1,-2.3,-2.2c0,-.9,.4,-1.9,1.7,-1.9Zm.9,4.3c.6,-.3,1.3,-.5,1.6,-.9c.3,-.4,.4,-.8,.4,-1.3c0,-1.5,-1.4,-2.4,-2.9,-2.4c-.7,0,-1.4,.3,-2,.8c-.5,.4,-.8,1.1,-.8,1.9c0,1.1,.6,2,1.9,2.6c-1.5,.8,-2.3,1.7,-2.3,2.8c0,1.7,1.4,2.5,3.2,2.5c1.9,.1,3.3,-1.1,3.3,-2.9c0,-1.2,-.9,-2.3,-2.4,-3.1Zm-.8,5.8c-1.5,0,-2,-1.1,-2,-2.3c0,-1.3,.4,-2.1,1.2,-2.6l1.1,.6c.3,.1,.6,.3,.8,.5c.5,.4,.9,.7,.9,1.5c0,1.1,-.6,2.3,-2,2.3Z" class="g0_67"/>
<path d="M461.6,536.4c0,-1.7,.4,-3.3,1.9,-3.3c1.2,0,1.8,1.7,1.8,4v.6c-.4,.9,-.9,1.8,-2,1.8c-1.3,0,-1.7,-1.6,-1.7,-3.1Zm-1.2,5.6c0,.7,1.3,1.4,2.3,1.4c3.2,0,4.1,-2.8,4.1,-5.9c0,-2.4,-.9,-4.7,-3.3,-4.7c-2.1,0,-3.4,1.6,-3.4,3.7c0,1.9,1.1,3.3,3,3.3c1,0,1.7,-.6,2.2,-1.3v.1c0,1.1,0,2.3,-.4,3c-.3,.6,-.9,1.6,-1.9,1.6c-1.6,0,-1.1,-1.8,-2,-1.8c-.5,0,-.6,.2,-.6,.6Z" class="g0_67"/>
<path d="M468.1,496c0,.1,0,.2,.1,.3c3.2,5.4,4,19.2,4,20.4v.7h1.4v-.7c0,-1.6,-.6,-15.5,-5.3,-20.8q-.1,0,-.1,0q-.1,0,-.1,.1Z" class="g0_67"/>
<path d="M472.2,526.6h1.4V517h-1.4Z" class="g0_67"/>
<path d="M468.1,547.8h.2c4.7,-5.3,5.3,-19.2,5.3,-20.7v-.7h-1.4v.7c0,1.2,-.8,14.9,-4,20.3c-.1,.1,-.1,.2,-.1,.4Z" class="g0_67"/>
<path d="M183.9,915C181.6,911.6,181,902.6,181,897.1c0,-5.5,.6,-13.8,2.9,-17.2l-.2,-.6c-2.2,3.2,-4.1,8,-4.1,17.8c0,9.9,2,15.8,4.1,18.5l.2,-.6Z" class="g0_67"/>
<path d="M189.1,885.5c-.4,0,-.8,.2,-1.3,.5c-.4,.3,-.8,.6,-1.2,1.1c-.6,.8,-1.3,2,-1.3,3.3c0,1,.4,1.7,1.4,1.7c1.2,0,1.7,-.9,2.1,-1.5h.1c-.3,.9,-.1,1.5,.5,1.5c.4,0,.7,-.2,1.1,-.5c.4,-.3,.8,-.8,1.1,-1.3l-.2,-.2c-.2,.4,-.9,1.4,-1.3,1.4c-.2,0,-.3,-.4,-.3,-.6c0,-.9,.6,-2.4,1,-3.4l.7,-1.9h-1l-.3,.7c-.2,-.5,-.5,-.8,-1.1,-.8Zm.2,.3c.7,0,.5,1.3,.4,1.9c0,.3,-.2,.6,-.3,.9c-.4,1.2,-1.4,3.2,-2.2,3.2c-.7,0,-.8,-1,-.8,-1.5c0,-.4,0,-.9,.2,-1.3c.3,-1,1.4,-3.2,2.7,-3.2Z" class="g0_67"/>
<path d="M193.5,887.3v.1c.3,0,.8,.1,1,.1c.3,.2,.3,.3,.3,.8V893c0,.3,0,.5,0,.6c-.1,.5,-.7,.6,-1.2,.6v.1H197v-.1c-.4,0,-.9,0,-1.1,-.2c-.1,-.3,-.1,-.6,-.1,-1v-6.3c-.6,.3,-1.6,.5,-2.3,.6Z" class="g0_67"/>
<path d="M199.6,887.3v.1c.3,0,.8,.1,1,.1c.3,.2,.3,.3,.3,.8V893c0,.3,0,.5,0,.6c-.1,.5,-.7,.6,-1.2,.6v.1h3.4v-.1c-.4,0,-.9,0,-1.1,-.2c-.1,-.3,-.1,-.6,-.1,-1v-6.3c-.6,.3,-1.6,.5,-2.3,.6Z" class="g0_67"/>
<path d="M224.5,885.5c-.5,0,-.9,.2,-1.4,.5c-.4,.3,-.8,.6,-1.2,1.1c-.6,.8,-1.2,2,-1.2,3.3c0,1,.3,1.7,1.3,1.7c1.3,0,1.8,-.9,2.1,-1.5h.1c-.2,.9,-.1,1.5,.5,1.5c.4,0,.7,-.2,1.1,-.5c.4,-.3,.8,-.8,1.1,-1.3l-.1,-.2c-.3,.4,-1,1.4,-1.4,1.4c-.2,0,-.3,-.4,-.3,-.6c0,-.9,.6,-2.4,1,-3.4l.7,-1.9h-1l-.3,.7c-.2,-.5,-.5,-.8,-1,-.8Zm.1,.3c.7,0,.5,1.3,.4,1.9c0,.3,-.2,.6,-.3,.9c-.3,1.2,-1.4,3.2,-2.2,3.2c-.6,0,-.8,-1,-.8,-1.5c0,-.4,0,-.9,.2,-1.3c.4,-1,1.4,-3.2,2.7,-3.2Z" class="g0_67"/>
<path d="M228.8,887.3v.1c.4,0,.8,.1,1,.1c.3,.2,.3,.3,.3,.8V893c0,.3,0,.5,0,.6c-.1,.5,-.7,.6,-1.2,.6v.1h3.4v-.1c-.3,0,-.9,0,-1,-.2c-.2,-.3,-.2,-.6,-.2,-1v-6.3c-.6,.3,-1.6,.5,-2.3,.6Z" class="g0_67"/>
<path d="M236.1,889.7c-.6,0,-1,-.5,-1,-1.2c0,-.8,.4,-1.6,1.3,-1.6c1.2,0,1.3,1,1.3,1.9c0,.9,-.3,1.5,-.7,2.1c-.3,.4,-.7,.9,-1.1,1.4c-.5,.5,-1.1,1.1,-1.9,1.7v.3h4.6l.3,-2h-.3c0,.2,-.1,.4,-.2,.5c-.2,.4,-.5,.6,-1,.6h-2.1v-.1c.5,-.3,.9,-.7,1.4,-1c.7,-.7,1.5,-1.4,1.9,-2.3c.2,-.4,.3,-.8,.3,-1.2c0,-.3,-.1,-.6,-.2,-.8c-.3,-.8,-1.1,-1.3,-2.2,-1.3c-.7,0,-1.3,.3,-1.7,.6c-.4,.3,-.7,.8,-.7,1.4c0,.5,.1,.8,.4,1.1c.2,.2,.5,.4,.9,.4c.4,0,.7,-.2,.7,-.5Z" class="g0_67"/>
<path d="M259.8,885.5c-.5,0,-.9,.2,-1.3,.5c-.5,.3,-.9,.6,-1.3,1.1c-.6,.8,-1.2,2,-1.2,3.3c0,1,.4,1.7,1.3,1.7c1.3,0,1.8,-.9,2.2,-1.5c-.2,.9,-.1,1.5,.5,1.5c.4,0,.8,-.2,1.2,-.5c.4,-.3,.7,-.8,1,-1.3l-.1,-.2c-.3,.4,-.9,1.4,-1.4,1.4c-.2,0,-.2,-.4,-.2,-.6c0,-.9,.6,-2.4,.9,-3.4l.7,-1.9h-1l-.3,.7c-.1,-.5,-.4,-.8,-1,-.8Zm.1,.3c.7,0,.6,1.3,.4,1.9c0,.3,-.1,.6,-.2,.9c-.4,1.2,-1.5,3.2,-2.3,3.2c-.6,0,-.8,-1,-.8,-1.5c0,-.4,0,-.9,.2,-1.3c.4,-1,1.4,-3.2,2.7,-3.2Z" class="g0_67"/>
<path d="M264.2,887.3v.1c.3,0,.8,.1,.9,.1c.3,.2,.3,.3,.3,.8V893c0,.3,0,.5,0,.6c-.1,.5,-.7,.6,-1.2,.6v.1h3.4v-.1c-.3,0,-.9,0,-1,-.2c-.2,-.3,-.2,-.6,-.2,-1v-6.3c-.6,.3,-1.5,.5,-2.2,.6Z" class="g0_67"/>
<path d="M271.7,894.3c-.8,0,-1.3,-.7,-1.3,-1.4c0,-.6,.3,-1,.8,-1c0,-.3,-.4,-.4,-.7,-.4c-.2,0,-.3,0,-.5,.1c-.4,.1,-.7,.6,-.7,1.1c0,.3,.1,.5,.2,.7c.4,.7,1.2,1,2.2,1c.8,0,1.4,-.2,1.8,-.6c.5,-.3,.8,-.8,.8,-1.5c0,-.2,-.1,-.5,-.2,-.7c-.2,-.6,-.8,-1.1,-1.5,-1.3c.4,-.1,.8,-.4,1,-.7c.3,-.3,.4,-.7,.4,-1.1c0,-.3,0,-.5,-.1,-.8c-.3,-.6,-1.2,-1,-2.2,-1c-.6,0,-1.1,.1,-1.5,.4c-.3,.2,-.6,.5,-.6,1c0,.3,.1,.6,.3,.7c.2,.2,.4,.3,.7,.3c.2,0,.3,0,.5,-.1c.1,0,.2,-.1,.2,-.2c-.4,0,-.7,-.4,-.7,-.8c0,-.6,.5,-1.1,1.1,-1.1c.8,0,1.2,.7,1.2,1.6c0,.9,-.3,1.8,-1.1,1.8c-.2,-.1,-.4,-.2,-.6,-.2c-.2,0,-.5,.1,-.5,.3c0,.2,.3,.3,.5,.3c.3,0,.5,-.1,.7,-.2c.9,0,1.1,.8,1.1,1.8c0,1,-.4,2,-1.3,2Z" class="g0_67"/>
<path d="M189.1,903.4c-.4,0,-.8,.2,-1.3,.5c-.4,.3,-.8,.6,-1.2,1.1c-.6,.8,-1.3,2,-1.3,3.3c0,1,.4,1.7,1.4,1.7c1.2,0,1.7,-.9,2.1,-1.5h.1c-.3,.9,-.1,1.5,.5,1.5c.4,0,.7,-.2,1.1,-.5c.4,-.3,.8,-.8,1.1,-1.3l-.2,-.2c-.2,.4,-.9,1.4,-1.3,1.4c-.2,0,-.3,-.4,-.3,-.6c0,-.9,.6,-2.4,1,-3.4l.7,-1.9h-1l-.3,.7c-.2,-.5,-.5,-.8,-1.1,-.8Zm.2,.3c.7,0,.5,1.3,.4,1.9c0,.3,-.2,.6,-.3,.9c-.4,1.2,-1.4,3.2,-2.2,3.2c-.7,0,-.8,-1,-.8,-1.5c0,-.4,0,-.9,.2,-1.3c.3,-1,1.4,-3.2,2.7,-3.2Z" class="g0_67"/>
<path d="M194.7,907.6c-.7,0,-1.1,-.5,-1.1,-1.2c0,-.8,.5,-1.6,1.4,-1.6c1.2,0,1.3,1,1.3,1.9c0,.9,-.3,1.5,-.7,2.1c-.3,.4,-.7,.9,-1.2,1.4c-.4,.5,-1.1,1.1,-1.8,1.7v.3h4.6l.3,-2h-.3c0,.2,-.1,.4,-.2,.5c-.2,.4,-.5,.6,-1,.6h-2.1v-.1c.4,-.3,.9,-.7,1.3,-1c.8,-.7,1.6,-1.4,2,-2.3c.2,-.4,.3,-.8,.3,-1.2c0,-.3,-.1,-.6,-.2,-.8c-.4,-.8,-1.1,-1.3,-2.2,-1.3c-.7,0,-1.3,.2,-1.7,.6c-.4,.3,-.7,.8,-.7,1.4c0,.5,.1,.8,.4,1.1c.1,.2,.4,.4,.9,.4c.4,0,.6,-.2,.7,-.5Z" class="g0_67"/>
<path d="M199.6,905.2v.1c.3,0,.8,.1,1,.1c.3,.2,.3,.3,.3,.8v4.7c0,.3,0,.5,0,.6c-.1,.5,-.7,.6,-1.2,.6v.1h3.4v-.1c-.4,0,-.9,0,-1.1,-.2c-.1,-.3,-.1,-.6,-.1,-1v-6.3c-.6,.3,-1.6,.5,-2.3,.6Z" class="g0_67"/>
<path d="M224.5,903.4c-.5,0,-.9,.2,-1.4,.5c-.4,.3,-.8,.6,-1.2,1.1c-.6,.8,-1.2,2,-1.2,3.3c0,1,.3,1.7,1.3,1.7c1.3,0,1.8,-.9,2.1,-1.5h.1c-.2,.9,-.1,1.5,.5,1.5c.4,0,.7,-.2,1.1,-.5c.4,-.3,.8,-.8,1.1,-1.3l-.1,-.2c-.3,.4,-1,1.4,-1.4,1.4c-.2,0,-.3,-.4,-.3,-.6c0,-.9,.6,-2.4,1,-3.4l.7,-1.9h-1l-.3,.7c-.2,-.5,-.5,-.8,-1,-.8Zm.1,.3c.7,0,.5,1.3,.4,1.9c0,.3,-.2,.6,-.3,.9c-.3,1.2,-1.4,3.2,-2.2,3.2c-.6,0,-.8,-1,-.8,-1.5c0,-.4,0,-.9,.2,-1.3c.4,-1,1.4,-3.2,2.7,-3.2Z" class="g0_67"/>
<path d="M230,907.6c-.6,0,-1,-.5,-1,-1.2c0,-.8,.4,-1.6,1.3,-1.6c1.2,0,1.3,1,1.3,1.9c0,.9,-.3,1.5,-.7,2.1c-.3,.4,-.7,.9,-1.1,1.4c-.5,.5,-1.1,1.1,-1.9,1.7v.3h4.6l.3,-2h-.3c0,.2,-.1,.4,-.2,.5c-.2,.4,-.5,.6,-1,.6h-2.1v-.1c.5,-.3,.9,-.7,1.4,-1c.7,-.7,1.5,-1.4,1.9,-2.3c.2,-.4,.3,-.8,.3,-1.2c0,-.3,-.1,-.6,-.2,-.8c-.3,-.8,-1.1,-1.3,-2.2,-1.3c-.7,0,-1.3,.2,-1.7,.6c-.4,.3,-.7,.8,-.7,1.4c0,.5,.1,.8,.4,1.1c.2,.2,.5,.4,.9,.4c.4,0,.7,-.2,.7,-.5Z" class="g0_67"/>
<path d="M236.1,907.6c-.6,0,-1,-.5,-1,-1.2c0,-.8,.4,-1.6,1.3,-1.6c1.2,0,1.3,1,1.3,1.9c0,.9,-.3,1.5,-.7,2.1c-.3,.4,-.7,.9,-1.1,1.4c-.5,.5,-1.1,1.1,-1.9,1.7v.3h4.6l.3,-2h-.3c0,.2,-.1,.4,-.2,.5c-.2,.4,-.5,.6,-1,.6h-2.1v-.1c.5,-.3,.9,-.7,1.4,-1c.7,-.7,1.5,-1.4,1.9,-2.3c.2,-.4,.3,-.8,.3,-1.2c0,-.3,-.1,-.6,-.2,-.8c-.3,-.8,-1.1,-1.3,-2.2,-1.3c-.7,0,-1.3,.2,-1.7,.6c-.4,.3,-.7,.8,-.7,1.4c0,.5,.1,.8,.4,1.1c.2,.2,.5,.4,.9,.4c.4,0,.7,-.2,.7,-.5Z" class="g0_67"/>
<path d="M259.8,903.4c-.5,0,-.9,.2,-1.3,.5c-.5,.3,-.9,.6,-1.3,1.1c-.6,.8,-1.2,2,-1.2,3.3c0,1,.4,1.7,1.3,1.7c1.3,0,1.8,-.9,2.2,-1.5c-.2,.9,-.1,1.5,.5,1.5c.4,0,.8,-.2,1.2,-.5c.4,-.3,.7,-.8,1,-1.3l-.1,-.2c-.3,.4,-.9,1.4,-1.4,1.4c-.2,0,-.2,-.4,-.2,-.6c0,-.9,.6,-2.4,.9,-3.4l.7,-1.9h-1l-.3,.7c-.1,-.5,-.4,-.8,-1,-.8Zm.1,.3c.7,0,.6,1.3,.4,1.9c0,.3,-.1,.6,-.2,.9c-.4,1.2,-1.5,3.2,-2.3,3.2c-.6,0,-.8,-1,-.8,-1.5c0,-.4,0,-.9,.2,-1.3c.4,-1,1.4,-3.2,2.7,-3.2Z" class="g0_67"/>
<path d="M265.3,907.6c-.6,0,-1,-.5,-1,-1.2c0,-.8,.4,-1.6,1.3,-1.6c1.2,0,1.3,1,1.3,1.9c0,.9,-.3,1.5,-.7,2.1c-.3,.4,-.7,.9,-1.1,1.4c-.5,.5,-1.1,1.1,-1.9,1.7v.3h4.6l.4,-2h-.3c-.1,.2,-.2,.4,-.3,.5c-.1,.4,-.5,.6,-1,.6h-2.1v-.1c.5,-.3,1,-.7,1.4,-1c.7,-.7,1.5,-1.4,1.9,-2.3c.2,-.4,.3,-.8,.3,-1.2c0,-.3,-.1,-.6,-.2,-.8c-.3,-.8,-1.1,-1.3,-2.2,-1.3c-.7,0,-1.3,.2,-1.7,.6c-.4,.3,-.7,.8,-.7,1.4c0,.5,.2,.8,.4,1.1c.2,.2,.5,.4,.9,.4c.4,0,.7,-.2,.7,-.5Z" class="g0_67"/>
<path d="M271.7,912.2c-.8,0,-1.3,-.7,-1.3,-1.4c0,-.6,.3,-1,.8,-1c0,-.3,-.4,-.4,-.7,-.4c-.2,0,-.3,0,-.5,.1c-.4,.1,-.7,.6,-.7,1.1c0,.3,.1,.5,.2,.7c.4,.7,1.2,1,2.2,1c.8,0,1.4,-.2,1.8,-.6c.5,-.3,.8,-.8,.8,-1.5c0,-.2,-.1,-.5,-.2,-.7c-.2,-.6,-.8,-1.1,-1.5,-1.3c.4,-.1,.8,-.4,1,-.7c.3,-.3,.4,-.7,.4,-1.1c0,-.3,0,-.5,-.1,-.8c-.3,-.6,-1.2,-1,-2.2,-1c-.6,0,-1.1,.1,-1.5,.4c-.3,.2,-.6,.5,-.6,1c0,.3,.1,.6,.3,.7c.2,.2,.4,.3,.7,.3c.2,0,.3,0,.5,-.1c.1,0,.2,-.1,.2,-.2c-.4,0,-.7,-.4,-.7,-.8c0,-.6,.5,-1.1,1.1,-1.1c.8,0,1.2,.7,1.2,1.6c0,.9,-.3,1.8,-1.1,1.8c-.2,-.1,-.4,-.2,-.6,-.2c-.2,0,-.5,.1,-.5,.3c0,.2,.3,.3,.5,.3c.3,0,.5,-.1,.7,-.2c.9,0,1.1,.8,1.1,1.8c0,1,-.4,2,-1.3,2Z" class="g0_67"/>
<path d="M276.4,915l.2,.6c2.1,-2.7,4.1,-8.6,4.1,-18.5c0,-9.8,-1.9,-14.6,-4.1,-17.8l-.2,.6c2.3,3.4,2.9,11.7,2.9,17.2c0,5.5,-.6,14.5,-2.9,17.9Z" class="g0_67"/>
<path d="M291.3,900.7L288,897.4l3.3,-3.3l-.6,-.6l-3.3,3.3l-3.3,-3.3l-.6,.6l3.3,3.3l-3.3,3.3l.6,.6l3.3,-3.3l3.3,3.3l.6,-.6Z" class="g0_67"/>
<path d="M298.4,871.5c0,0,-.1,-.1,-.1,-.1c0,0,-.1,0,-.1,.1c-4.8,5.3,-5.3,19.1,-5.3,20.7v.7h1.4v-.7c0,-1.2,.8,-14.9,4,-20.3c0,-.2,.1,-.3,.1,-.4Z" class="g0_67"/>
<path d="M292.9,902.1h1.4v-9.6h-1.4Z" class="g0_67"/>
<path d="M298.4,923.3c0,-.1,-.1,-.2,-.1,-.4c-3.2,-5.4,-4,-19.1,-4,-20.3v-.7h-1.4v.7c0,1.6,.5,15.4,5.3,20.7c0,.1,.1,.1,.1,.1c0,0,.1,-.1,.1,-.1Z" class="g0_67"/>
<path d="M302.8,876.9c1.3,0,.9,1.9,.4,3.2c-.3,.8,-1.3,2.7,-2.4,2.7c-.5,0,-.7,-.3,-.7,-.9c0,-.8,.3,-1.8,.5,-2.4c.3,-.6,.8,-1.6,1.2,-2c.2,-.3,.6,-.6,1,-.6Zm-2.2,6.3c1.7,0,2.9,-1.5,3.5,-2.6c.3,-.7,.6,-1.5,.6,-2.3c0,-1,-.5,-1.7,-1.5,-1.7c-.9,0,-1.6,.5,-2,1.1l1.5,-5.6l-2.1,.1v.2c.6,0,.8,.3,.8,.6c0,.2,-.1,.6,-.1,.8l-1.6,5.6c-.2,.6,-.3,1,-.4,1.4c-.1,.4,-.1,.7,-.1,.9c0,.8,.5,1.5,1.4,1.5Z" class="g0_67"/>
<path d="M306.6,878.3v.2c.3,0,.8,0,.9,.1c.3,.2,.3,.3,.3,.7v4.8c0,.2,0,.4,0,.6c-.1,.5,-.6,.5,-1.2,.5v.2H310v-.2c-.3,0,-.9,0,-1,-.2c-.2,-.2,-.2,-.6,-.2,-1v-6.2c-.6,.3,-1.5,.5,-2.2,.5Z" class="g0_67"/>
<path d="M312.7,878.3v.2c.3,0,.8,0,.9,.1c.3,.2,.3,.3,.3,.7v4.8c0,.2,0,.4,0,.6c-.1,.5,-.6,.5,-1.2,.5v.2h3.4v-.2c-.3,0,-.9,0,-1,-.2c-.2,-.2,-.2,-.6,-.2,-1v-6.2c-.6,.3,-1.5,.5,-2.2,.5Z" class="g0_67"/>
<path d="M337,876.9c1.2,0,.9,1.9,.3,3.2c-.3,.8,-1.2,2.7,-2.4,2.7c-.4,0,-.7,-.3,-.7,-.9c0,-.8,.3,-1.8,.5,-2.4c.3,-.6,.8,-1.6,1.2,-2c.2,-.3,.6,-.6,1.1,-.6Zm-2.3,6.3c1.7,0,2.9,-1.5,3.5,-2.6c.3,-.7,.6,-1.5,.6,-2.3c0,-1,-.5,-1.7,-1.5,-1.7c-.9,0,-1.6,.5,-2,1.1l1.5,-5.6l-2.1,.1v.2c.6,0,.9,.3,.9,.6c0,.2,-.2,.6,-.2,.8l-1.6,5.6c-.2,.6,-.3,1,-.4,1.4c-.1,.4,-.1,.7,-.1,.9c0,.8,.6,1.5,1.4,1.5Z" class="g0_67"/>
<path d="M340.7,878.3v.2c.3,0,.8,0,.9,.1c.4,.2,.3,.3,.4,.7v4.8c0,.2,0,.4,-.1,.6c0,.5,-.6,.5,-1.2,.5v.2h3.5v-.2c-.4,0,-.9,0,-1.1,-.2c-.2,-.2,-.2,-.6,-.2,-1v-6.2c-.6,.3,-1.5,.5,-2.2,.5Z" class="g0_67"/>
<path d="M348,880.7c-.7,0,-1.1,-.4,-1.1,-1.1c0,-.8,.4,-1.6,1.3,-1.6c1.2,0,1.3,.9,1.3,1.9c0,.9,-.2,1.4,-.7,2.1c-.2,.4,-.6,.8,-1.1,1.3c-.5,.5,-1.1,1.1,-1.8,1.8v.3h4.5l.4,-2.1h-.3c-.1,.2,-.2,.4,-.3,.6c-.1,.3,-.4,.5,-1,.5h-2.1c.5,-.4,1,-.7,1.4,-1.1c.8,-.6,1.5,-1.4,2,-2.2c.1,-.4,.2,-.8,.2,-1.2c0,-.3,0,-.6,-.1,-.9c-.4,-.7,-1.1,-1.3,-2.2,-1.3c-.7,0,-1.4,.3,-1.8,.6c-.3,.3,-.7,.8,-.7,1.5c0,.5,.2,.8,.4,1c.2,.3,.5,.5,.9,.5c.4,0,.7,-.2,.8,-.6Z" class="g0_67"/>
<path d="M302.8,894.8c1.3,0,.9,1.9,.4,3.2c-.3,.8,-1.3,2.7,-2.4,2.7c-.5,0,-.7,-.3,-.7,-.9c0,-.8,.3,-1.8,.5,-2.4c.3,-.6,.8,-1.6,1.2,-2c.2,-.3,.6,-.6,1,-.6Zm-2.2,6.3c1.7,0,2.9,-1.5,3.5,-2.6c.3,-.7,.6,-1.5,.6,-2.3c0,-1,-.5,-1.7,-1.5,-1.7c-.9,0,-1.6,.5,-2,1.1l1.5,-5.6l-2.1,.1v.2c.6,0,.8,.3,.8,.6c0,.2,-.1,.6,-.1,.8l-1.6,5.6c-.2,.6,-.3,1,-.4,1.4c-.1,.4,-.1,.7,-.1,.9c0,.8,.5,1.5,1.4,1.5Z" class="g0_67"/>
<path d="M307.7,898.6c-.6,0,-1,-.4,-1,-1.1c0,-.8,.4,-1.6,1.3,-1.6c1.2,0,1.3,.9,1.3,1.9c0,.9,-.2,1.4,-.7,2.1c-.3,.4,-.7,.8,-1.1,1.3c-.5,.5,-1.1,1.1,-1.9,1.8v.3h4.6l.4,-2.1h-.3c-.1,.2,-.2,.4,-.3,.6c-.1,.3,-.4,.5,-1,.5h-2.1c.5,-.4,1,-.7,1.4,-1.1c.7,-.6,1.5,-1.3,1.9,-2.2c.2,-.4,.3,-.8,.3,-1.2c0,-.3,-.1,-.6,-.2,-.9c-.3,-.7,-1.1,-1.2,-2.1,-1.2c-.8,0,-1.4,.2,-1.8,.5c-.4,.4,-.7,.8,-.7,1.5c0,.5,.2,.8,.4,1c.2,.3,.5,.5,.9,.5c.4,0,.7,-.2,.7,-.6Z" class="g0_67"/>
<path d="M312.7,896.2v.2c.3,0,.8,0,.9,.1c.3,.2,.3,.3,.3,.7V902c0,.2,0,.4,0,.6c-.1,.5,-.6,.5,-1.2,.5v.2h3.4v-.2c-.3,0,-.9,0,-1,-.2c-.2,-.2,-.2,-.6,-.2,-1v-6.2c-.6,.3,-1.5,.5,-2.2,.5Z" class="g0_67"/>
<path d="M337,894.8c1.2,0,.9,1.9,.3,3.2c-.3,.8,-1.2,2.7,-2.4,2.7c-.4,0,-.7,-.3,-.7,-.9c0,-.8,.3,-1.8,.5,-2.4c.3,-.6,.8,-1.6,1.2,-2c.2,-.3,.6,-.6,1.1,-.6Zm-2.3,6.3c1.7,0,2.9,-1.5,3.5,-2.6c.3,-.7,.6,-1.5,.6,-2.3c0,-1,-.5,-1.7,-1.5,-1.7c-.9,0,-1.6,.5,-2,1.1l1.5,-5.6l-2.1,.1v.2c.6,0,.9,.3,.9,.6c0,.2,-.2,.6,-.2,.8l-1.6,5.6c-.2,.6,-.3,1,-.4,1.4c-.1,.4,-.1,.7,-.1,.9c0,.8,.6,1.5,1.4,1.5Z" class="g0_67"/>
<path d="M341.9,898.6c-.7,0,-1.1,-.4,-1.1,-1.1c0,-.8,.4,-1.6,1.3,-1.6c1.2,0,1.3,.9,1.3,1.9c0,.9,-.2,1.4,-.7,2.1c-.2,.4,-.6,.8,-1.1,1.3c-.5,.5,-1.1,1.1,-1.8,1.8v.3h4.5l.4,-2.1h-.3c-.1,.2,-.2,.4,-.2,.6c-.2,.3,-.5,.5,-1.1,.5H341c.5,-.4,1,-.7,1.4,-1.1c.8,-.6,1.5,-1.3,2,-2.2c.1,-.4,.2,-.8,.2,-1.2c0,-.3,0,-.6,-.1,-.9c-.4,-.7,-1.1,-1.2,-2.2,-1.2c-.7,0,-1.4,.2,-1.8,.5c-.3,.4,-.7,.8,-.7,1.5c0,.5,.2,.8,.4,1c.2,.3,.5,.5,.9,.5c.4,0,.7,-.2,.8,-.6Z" class="g0_67"/>
<path d="M348,898.6c-.7,0,-1.1,-.4,-1.1,-1.1c0,-.8,.4,-1.6,1.3,-1.6c1.2,0,1.3,.9,1.3,1.9c0,.9,-.2,1.4,-.7,2.1c-.2,.4,-.6,.8,-1.1,1.3c-.5,.5,-1.1,1.1,-1.8,1.8v.3h4.5l.4,-2.1h-.3c-.1,.2,-.2,.4,-.3,.6c-.1,.3,-.4,.5,-1,.5h-2.1c.5,-.4,1,-.7,1.4,-1.1c.8,-.6,1.5,-1.3,2,-2.2c.1,-.4,.2,-.8,.2,-1.2c0,-.3,0,-.6,-.1,-.9c-.4,-.7,-1.1,-1.2,-2.2,-1.2c-.7,0,-1.4,.2,-1.8,.5c-.3,.4,-.7,.8,-.7,1.5c0,.5,.2,.8,.4,1c.2,.3,.5,.5,.9,.5c.4,0,.7,-.2,.8,-.6Z" class="g0_67"/>
<path d="M302.8,912.7c1.3,0,.9,1.9,.4,3.2c-.3,.8,-1.3,2.7,-2.4,2.7c-.5,0,-.7,-.3,-.7,-.9c0,-.8,.3,-1.8,.5,-2.4c.3,-.6,.8,-1.6,1.2,-2c.2,-.3,.6,-.6,1,-.6Zm-2.2,6.3c1.7,0,2.9,-1.5,3.5,-2.6c.3,-.7,.6,-1.5,.6,-2.3c0,-1,-.5,-1.7,-1.5,-1.7c-.9,0,-1.6,.5,-2,1.1l1.5,-5.6l-2.1,.1v.2c.6,0,.8,.3,.8,.6c0,.2,-.1,.6,-.1,.8l-1.6,5.6c-.2,.6,-.3,1,-.4,1.4c-.1,.4,-.1,.7,-.1,.9c0,.8,.5,1.5,1.4,1.5Z" class="g0_67"/>
<path d="M308,921.1c-.8,0,-1.3,-.7,-1.3,-1.4c0,-.5,.3,-1,.8,-1c0,-.2,-.4,-.4,-.7,-.4c-.2,0,-.3,.1,-.5,.1c-.4,.2,-.7,.6,-.7,1.2c0,.2,.1,.4,.2,.7c.4,.6,1.2,1,2.2,1c.8,0,1.4,-.3,1.8,-.6c.5,-.3,.8,-.8,.8,-1.5c0,-.3,-.1,-.5,-.1,-.7c-.3,-.7,-.9,-1.1,-1.6,-1.3v-.1c.4,-.1,.8,-.3,1,-.6c.3,-.3,.5,-.7,.5,-1.2c0,-.3,-.1,-.5,-.2,-.7c-.3,-.7,-1.2,-1,-2.2,-1c-.6,0,-1.1,.1,-1.5,.3c-.3,.2,-.6,.6,-.6,1c0,.4,.1,.6,.3,.8c.2,.2,.4,.3,.7,.3c.2,0,.3,-.1,.5,-.1c.1,-.1,.2,-.2,.2,-.3c-.4,0,-.7,-.3,-.7,-.7c0,-.6,.5,-1.1,1.1,-1.1c.8,0,1.2,.6,1.2,1.6c0,.8,-.3,1.7,-1.1,1.7c-.2,0,-.4,-.1,-.6,-.1c-.2,0,-.5,0,-.5,.2c0,.3,.3,.4,.5,.4c.3,0,.5,-.2,.7,-.3c.9,0,1.1,.9,1.1,1.8c0,1,-.3,2,-1.3,2Z" class="g0_67"/>
<path d="M312.7,914.1v.2c.3,0,.8,0,.9,.1c.3,.2,.3,.3,.3,.7v4.8c0,.2,0,.4,0,.6c-.1,.5,-.6,.5,-1.2,.5v.2h3.4V921c-.3,0,-.9,0,-1,-.2c-.2,-.2,-.2,-.6,-.2,-1v-6.2c-.6,.3,-1.5,.5,-2.2,.5Z" class="g0_67"/>
<path d="M337,912.7c1.2,0,.9,1.9,.3,3.2c-.3,.8,-1.2,2.7,-2.4,2.7c-.4,0,-.7,-.3,-.7,-.9c0,-.8,.3,-1.8,.5,-2.4c.3,-.6,.8,-1.6,1.2,-2c.2,-.3,.6,-.6,1.1,-.6Zm-2.3,6.3c1.7,0,2.9,-1.5,3.5,-2.6c.3,-.7,.6,-1.5,.6,-2.3c0,-1,-.5,-1.7,-1.5,-1.7c-.9,0,-1.6,.5,-2,1.1l1.5,-5.6l-2.1,.1v.2c.6,0,.9,.3,.9,.6c0,.2,-.2,.6,-.2,.8l-1.6,5.6c-.2,.6,-.3,1,-.4,1.4c-.1,.4,-.1,.7,-.1,.9c0,.8,.6,1.5,1.4,1.5Z" class="g0_67"/>
<path d="M342.1,921.1c-.7,0,-1.3,-.7,-1.3,-1.4c0,-.5,.3,-1,.8,-1c0,-.2,-.4,-.4,-.7,-.4c-.2,0,-.3,.1,-.4,.1c-.4,.2,-.7,.6,-.7,1.2c0,.2,0,.4,.1,.7c.4,.6,1.2,1,2.2,1c.8,0,1.4,-.3,1.9,-.6c.4,-.3,.7,-.8,.7,-1.5c0,-.3,0,-.5,-.1,-.7c-.3,-.7,-.9,-1.1,-1.6,-1.3v-.1c.4,-.1,.8,-.3,1,-.6c.3,-.3,.5,-.7,.5,-1.2c0,-.3,-.1,-.5,-.2,-.7c-.3,-.7,-1.1,-1,-2.2,-1c-.6,0,-1.1,.1,-1.5,.3c-.3,.2,-.5,.6,-.5,1c0,.4,.1,.6,.2,.8c.2,.2,.4,.3,.7,.3c.2,0,.4,-.1,.5,-.1c.1,-.1,.2,-.2,.2,-.3c-.4,0,-.7,-.3,-.7,-.7c0,-.6,.5,-1.1,1.1,-1.1c.8,0,1.2,.6,1.2,1.6c0,.8,-.2,1.7,-1.1,1.7c-.1,0,-.4,-.1,-.6,-.1c-.2,0,-.5,0,-.5,.2c0,.3,.3,.4,.6,.4c.2,0,.5,-.2,.6,-.3c.9,0,1.2,.9,1.2,1.8c0,1,-.4,2,-1.4,2Z" class="g0_67"/>
<path d="M348,916.5c-.7,0,-1.1,-.4,-1.1,-1.1c0,-.8,.4,-1.6,1.3,-1.6c1.2,0,1.3,.9,1.3,1.9c0,.9,-.2,1.4,-.7,2.1c-.2,.4,-.6,.8,-1.1,1.3c-.5,.5,-1.1,1.1,-1.8,1.8v.3h4.5l.4,-2.1h-.3c-.1,.2,-.2,.4,-.3,.6c-.1,.3,-.4,.5,-1,.5h-2.1c.5,-.4,1,-.7,1.4,-1.1c.8,-.6,1.5,-1.4,2,-2.2c.1,-.4,.2,-.8,.2,-1.2c0,-.3,0,-.6,-.1,-.9c-.4,-.7,-1.1,-1.2,-2.2,-1.2c-.7,0,-1.4,.2,-1.8,.5c-.3,.4,-.7,.8,-.7,1.5c0,.5,.2,.8,.4,1c.2,.3,.5,.5,.9,.5c.4,0,.7,-.2,.8,-.6Z" class="g0_67"/>
<path d="M352.6,871.5c0,.1,.1,.2,.2,.4c3.1,5.4,3.9,19.1,3.9,20.3v.7h1.4v-.7c0,-1.6,-.5,-15.4,-5.3,-20.7q0,-.1,-.1,-.1c0,0,-.1,.1,-.1,.1Z" class="g0_67"/>
<path d="M356.7,902.1h1.4v-9.6h-1.4Z" class="g0_67"/>
<path d="M352.6,923.3c0,0,.1,.1,.1,.1q.1,0,.1,-.1c4.8,-5.3,5.3,-19.1,5.3,-20.7v-.7h-1.4v.7c0,1.2,-.8,14.9,-3.9,20.3c-.1,.2,-.2,.3,-.2,.4Z" class="g0_67"/>
<path d="M363.6,899.3h7.6v-.8h-7.6Zm0,-3h7.6v-.8h-7.6Z" class="g0_67"/>
<path d="M382.3,915c-2.3,-3.4,-2.9,-12.4,-2.9,-17.9c0,-5.5,.6,-13.8,2.9,-17.2l-.2,-.6c-2.2,3.2,-4.1,8,-4.1,17.8c0,9.9,2,15.8,4.1,18.5l.2,-.6Z" class="g0_67"/>
<path d="M387.5,885.5c-.4,0,-.8,.2,-1.3,.5c-.4,.3,-.9,.6,-1.2,1.1c-.7,.8,-1.3,2,-1.3,3.3c0,1,.4,1.7,1.3,1.7c1.3,0,1.8,-.9,2.2,-1.5c-.2,.9,-.1,1.5,.6,1.5c.3,0,.7,-.2,1.1,-.5c.4,-.3,.8,-.8,1.1,-1.3l-.2,-.2c-.3,.4,-.9,1.4,-1.3,1.4c-.2,0,-.3,-.4,-.3,-.6c0,-.9,.6,-2.4,.9,-3.4l.7,-1.9h-1l-.2,.7c-.2,-.5,-.5,-.8,-1.1,-.8Zm.2,.3c.7,0,.5,1.3,.4,1.9c-.1,.3,-.2,.6,-.3,.9c-.4,1.2,-1.5,3.2,-2.3,3.2c-.6,0,-.7,-1,-.7,-1.5c0,-.4,0,-.9,.2,-1.3c.3,-1,1.4,-3.2,2.7,-3.2Z" class="g0_67"/>
<path d="M391.9,887.3v.1c.3,0,.8,.1,1,.1c.3,.2,.3,.3,.3,.8V893c0,.3,0,.5,0,.6c-.1,.5,-.7,.6,-1.2,.6v.1h3.4v-.1c-.4,0,-.9,0,-1.1,-.2c-.1,-.3,-.1,-.6,-.1,-1v-6.3c-.6,.3,-1.6,.5,-2.3,.6Z" class="g0_67"/>
<path d="M398,887.3v.1c.3,0,.8,.1,1,.1c.3,.2,.3,.3,.3,.8V893c0,.3,0,.5,0,.6c-.1,.5,-.7,.6,-1.2,.6v.1h3.4v-.1c-.4,0,-.9,0,-1.1,-.2c-.1,-.3,-.1,-.6,-.1,-1v-6.3c-.6,.3,-1.6,.5,-2.3,.6Z" class="g0_67"/>
<path d="M407.4,885.9c1.2,0,.9,1.9,.4,3.2c-.4,.8,-1.3,2.7,-2.4,2.7c-.5,0,-.7,-.3,-.7,-1c0,-.7,.2,-1.8,.5,-2.3c.3,-.6,.7,-1.6,1.1,-2.1c.3,-.3,.6,-.5,1.1,-.5Zm-2.2,6.2c1.6,0,2.8,-1.5,3.4,-2.6c.4,-.6,.7,-1.4,.7,-2.3c0,-1,-.5,-1.7,-1.6,-1.7c-.9,0,-1.6,.6,-2,1.2l1.6,-5.6l-2.1,.1l-.1,.2c.6,0,.9,.3,.9,.6c0,.2,-.1,.5,-.2,.7l-1.6,5.7c-.1,.5,-.3,1,-.4,1.3c0,.4,-.1,.7,-.1,.9c0,.9,.6,1.5,1.5,1.5Z" class="g0_67"/>
<path d="M411.1,887.3v.1c.3,0,.8,.1,1,.1c.3,.2,.3,.3,.3,.8V893c0,.3,0,.5,0,.6c-.1,.5,-.7,.6,-1.2,.6v.1h3.4v-.1c-.4,0,-.9,0,-1.1,-.2c-.1,-.3,-.1,-.6,-.1,-1v-6.3c-.6,.3,-1.6,.5,-2.3,.6Z" class="g0_67"/>
<path d="M417.2,887.3v.1c.3,0,.8,.1,1,.1c.3,.2,.3,.3,.3,.8V893c0,.3,0,.5,0,.6c-.1,.5,-.7,.6,-1.2,.6v.1h3.4v-.1c-.4,0,-.9,0,-1.1,-.2c-.1,-.3,-.1,-.6,-.1,-1v-6.3c-.6,.3,-1.6,.5,-2.3,.6Z" class="g0_67"/>
<path d="M429.6,887.7h-3.2v1h3.2V892h1v-3.3h3.3v-1h-3.3v-3.2h-1v3.2Z" class="g0_67"/>
<path d="M442.2,885.5c-.5,0,-.9,.2,-1.3,.5c-.5,.3,-.9,.6,-1.3,1.1c-.6,.8,-1.2,2,-1.2,3.3c0,1,.4,1.7,1.3,1.7c1.3,0,1.8,-.9,2.2,-1.5c-.2,.9,-.1,1.5,.5,1.5c.4,0,.8,-.2,1.2,-.5c.4,-.3,.7,-.8,1.1,-1.3l-.2,-.2c-.3,.4,-.9,1.4,-1.4,1.4c-.2,0,-.2,-.4,-.2,-.6c0,-.9,.6,-2.4,.9,-3.4l.7,-1.9h-1l-.3,.7c-.1,-.5,-.4,-.8,-1,-.8Zm.1,.3c.7,0,.6,1.3,.5,1.9c-.1,.3,-.2,.6,-.3,.9c-.4,1.2,-1.5,3.2,-2.3,3.2c-.6,0,-.8,-1,-.8,-1.5c0,-.4,0,-.9,.2,-1.3c.4,-1,1.4,-3.2,2.7,-3.2Z" class="g0_67"/>
<path d="M446.6,887.3v.1c.3,0,.8,.1,.9,.1c.3,.2,.3,.3,.3,.8V893c0,.3,0,.5,0,.6c-.1,.5,-.6,.6,-1.2,.6v.1H450v-.1c-.3,0,-.9,0,-1,-.2c-.2,-.3,-.2,-.6,-.2,-1v-6.3c-.6,.3,-1.5,.5,-2.2,.6Z" class="g0_67"/>
<path d="M453.8,889.7c-.6,0,-1,-.5,-1,-1.2c0,-.8,.4,-1.6,1.3,-1.6c1.2,0,1.3,1,1.3,1.9c0,.9,-.3,1.5,-.7,2.1c-.3,.4,-.7,.9,-1.1,1.4c-.5,.5,-1.1,1.1,-1.9,1.7v.3h4.6l.4,-2h-.3c-.1,.2,-.2,.4,-.3,.5c-.1,.4,-.5,.6,-1,.6H453v-.1c.5,-.3,1,-.7,1.4,-1c.7,-.7,1.5,-1.4,1.9,-2.3c.2,-.4,.3,-.8,.3,-1.2c0,-.3,-.1,-.6,-.2,-.8c-.3,-.8,-1.1,-1.3,-2.2,-1.3c-.7,0,-1.3,.3,-1.7,.6c-.4,.3,-.7,.8,-.7,1.4c0,.5,.2,.8,.4,1.1c.2,.2,.5,.4,.9,.4c.4,0,.7,-.2,.7,-.5Z" class="g0_67"/>
<path d="M462,885.9c1.3,0,1,1.9,.4,3.2c-.3,.8,-1.3,2.7,-2.4,2.7c-.5,0,-.7,-.3,-.7,-1c0,-.7,.3,-1.8,.5,-2.3c.3,-.6,.8,-1.6,1.2,-2.1c.2,-.3,.6,-.5,1,-.5Zm-2.2,6.2c1.7,0,2.9,-1.5,3.5,-2.6c.3,-.6,.6,-1.4,.6,-2.3c0,-1,-.5,-1.7,-1.5,-1.7c-.9,0,-1.6,.6,-2,1.2l1.5,-5.6l-2.1,.1v.2c.6,0,.9,.3,.9,.6c0,.2,-.2,.5,-.2,.7l-1.6,5.7c-.2,.5,-.3,1,-.4,1.3c-.1,.4,-.1,.7,-.1,.9c0,.9,.5,1.5,1.4,1.5Z" class="g0_67"/>
<path d="M467,889.7c-.7,0,-1.1,-.5,-1.1,-1.2c0,-.8,.4,-1.6,1.3,-1.6c1.2,0,1.3,1,1.3,1.9c0,.9,-.2,1.5,-.7,2.1c-.3,.4,-.6,.9,-1.1,1.4c-.5,.5,-1.1,1.1,-1.9,1.7v.3h4.6l.4,-2h-.3c-.1,.2,-.2,.4,-.3,.5c-.1,.4,-.4,.6,-1,.6h-2.1v-.1c.5,-.3,1,-.7,1.4,-1c.7,-.7,1.5,-1.4,1.9,-2.3c.2,-.4,.3,-.8,.3,-1.2c0,-.3,-.1,-.6,-.2,-.8c-.3,-.8,-1,-1.3,-2.1,-1.3c-.7,0,-1.4,.3,-1.8,.6c-.4,.3,-.7,.8,-.7,1.4c0,.5,.2,.8,.4,1.1c.2,.2,.5,.4,.9,.4c.4,0,.7,-.2,.8,-.5Z" class="g0_67"/>
<path d="M471.9,887.3v.1c.3,0,.8,.1,.9,.1c.4,.2,.3,.3,.4,.8V893c0,.3,-.1,.5,-.1,.6c-.1,.5,-.6,.6,-1.2,.6v.1h3.4v-.1c-.3,0,-.9,0,-1,-.2c-.2,-.3,-.2,-.6,-.2,-1v-6.3c-.6,.3,-1.5,.5,-2.2,.6Z" class="g0_67"/>
<path d="M484.3,887.7H481v1h3.3V892h1v-3.3h3.2v-1h-3.2v-3.2h-1v3.2Z" class="g0_67"/>
<path d="M496.8,885.5c-.4,0,-.8,.2,-1.3,.5c-.4,.3,-.8,.6,-1.2,1.1c-.7,.8,-1.3,2,-1.3,3.3c0,1,.4,1.7,1.3,1.7c1.3,0,1.8,-.9,2.2,-1.5c-.2,.9,0,1.5,.6,1.5c.3,0,.7,-.2,1.1,-.5c.4,-.3,.8,-.8,1.1,-1.3l-.2,-.2c-.3,.4,-.9,1.4,-1.3,1.4c-.2,0,-.3,-.4,-.3,-.6c0,-.9,.6,-2.4,.9,-3.4l.7,-1.9h-1l-.2,.7c-.2,-.5,-.5,-.8,-1.1,-.8Zm.2,.3c.7,0,.5,1.3,.4,1.9c-.1,.3,-.2,.6,-.3,.9c-.4,1.2,-1.5,3.2,-2.3,3.2c-.6,0,-.7,-1,-.7,-1.5c0,-.4,0,-.9,.2,-1.3c.3,-1,1.4,-3.2,2.7,-3.2Z" class="g0_67"/>
<path d="M501.2,887.3v.1c.3,0,.8,.1,1,.1c.3,.2,.3,.3,.3,.8V893c0,.3,0,.5,0,.6c-.1,.5,-.7,.6,-1.2,.6v.1h3.4v-.1c-.4,0,-.9,0,-1.1,-.2c-.1,-.3,-.1,-.6,-.1,-1v-6.3c-.6,.3,-1.6,.5,-2.3,.6Z" class="g0_67"/>
<path d="M508.7,894.3c-.7,0,-1.3,-.7,-1.3,-1.4c0,-.6,.4,-1,.9,-1c-.1,-.3,-.4,-.4,-.8,-.4c-.1,0,-.3,0,-.4,.1c-.4,.1,-.7,.6,-.7,1.1c0,.3,0,.5,.2,.7c.3,.7,1.1,1,2.1,1c.8,0,1.4,-.2,1.9,-.6c.4,-.3,.7,-.8,.7,-1.5c0,-.2,0,-.5,-.1,-.7c-.3,-.6,-.8,-1.1,-1.6,-1.3c.5,-.1,.8,-.4,1.1,-.7c.2,-.3,.4,-.7,.4,-1.1c0,-.3,-.1,-.5,-.2,-.8c-.3,-.6,-1.1,-1,-2.1,-1c-.6,0,-1.2,.1,-1.5,.4c-.4,.2,-.6,.5,-.6,1c0,.3,.1,.6,.3,.7c.1,.2,.4,.3,.7,.3c.1,0,.3,0,.4,-.1c.2,0,.2,-.1,.3,-.2c-.5,0,-.7,-.4,-.7,-.8c0,-.6,.4,-1.1,1.1,-1.1c.7,0,1.1,.7,1.1,1.6c0,.9,-.2,1.8,-1,1.8c-.2,-.1,-.4,-.2,-.6,-.2c-.2,0,-.6,.1,-.6,.3c0,.2,.4,.3,.6,.3c.2,0,.5,-.1,.7,-.2c.8,0,1.1,.8,1.1,1.8c0,1,-.4,2,-1.4,2Z" class="g0_67"/>
<path d="M516.7,885.9c1.2,0,.9,1.9,.4,3.2c-.4,.8,-1.3,2.7,-2.4,2.7c-.5,0,-.7,-.3,-.7,-1c0,-.7,.2,-1.8,.5,-2.3c.3,-.6,.7,-1.6,1.1,-2.1c.3,-.3,.6,-.5,1.1,-.5Zm-2.2,6.2c1.6,0,2.8,-1.5,3.4,-2.6c.4,-.6,.7,-1.4,.7,-2.3c0,-1,-.6,-1.7,-1.6,-1.7c-.9,0,-1.6,.6,-2,1.2l1.5,-5.6l-2,.1l-.1,.2c.6,0,.9,.3,.9,.6c0,.2,-.1,.5,-.2,.7l-1.6,5.7c-.1,.5,-.3,1,-.4,1.3c0,.4,-.1,.7,-.1,.9c0,.9,.6,1.5,1.5,1.5Z" class="g0_67"/>
<path d="M521.8,894.3c-.7,0,-1.3,-.7,-1.3,-1.4c0,-.6,.4,-1,.9,-1c-.1,-.3,-.4,-.4,-.8,-.4c-.1,0,-.3,0,-.4,.1c-.4,.1,-.7,.6,-.7,1.1c0,.3,.1,.5,.2,.7c.4,.7,1.1,1,2.1,1c.8,0,1.5,-.2,1.9,-.6c.4,-.3,.7,-.8,.7,-1.5c0,-.2,0,-.5,-.1,-.7c-.3,-.6,-.8,-1.1,-1.6,-1.3c.5,-.1,.8,-.4,1.1,-.7c.2,-.3,.4,-.7,.4,-1.1c0,-.3,0,-.5,-.2,-.8c-.3,-.6,-1.1,-1,-2.1,-1c-.6,0,-1.2,.1,-1.5,.4c-.3,.2,-.6,.5,-.6,1c0,.3,.1,.6,.3,.7c.1,.2,.4,.3,.7,.3c.1,0,.3,0,.4,-.1c.2,0,.2,-.1,.3,-.2c-.4,0,-.7,-.4,-.7,-.8c0,-.6,.4,-1.1,1.1,-1.1c.7,0,1.1,.7,1.1,1.6c0,.9,-.2,1.8,-1,1.8c-.2,-.1,-.4,-.2,-.6,-.2c-.2,0,-.6,.1,-.6,.3c0,.2,.4,.3,.6,.3c.2,0,.5,-.1,.7,-.2c.9,0,1.1,.8,1.1,1.8c0,1,-.4,2,-1.4,2Z" class="g0_67"/>
<path d="M526.5,887.3v.1c.3,0,.8,.1,1,.1c.3,.2,.3,.3,.3,.8V893c0,.3,0,.5,0,.6c-.1,.5,-.7,.6,-1.2,.6v.1H530v-.1c-.4,0,-.9,0,-1.1,-.2c-.1,-.3,-.1,-.6,-.1,-1v-6.3c-.6,.3,-1.6,.5,-2.3,.6Z" class="g0_67"/>
<path d="M551.3,885.5c-.4,0,-.8,.2,-1.3,.5c-.4,.3,-.8,.6,-1.2,1.1c-.6,.8,-1.2,2,-1.2,3.3c0,1,.3,1.7,1.3,1.7c1.3,0,1.7,-.9,2.1,-1.5h.1c-.2,.9,-.1,1.5,.5,1.5c.4,0,.7,-.2,1.1,-.5c.4,-.3,.8,-.8,1.1,-1.3l-.2,-.2c-.2,.4,-.9,1.4,-1.3,1.4c-.2,0,-.3,-.4,-.3,-.6c0,-.9,.6,-2.4,1,-3.4l.7,-1.9h-1l-.3,.7c-.2,-.5,-.5,-.8,-1.1,-.8Zm.2,.3c.7,0,.5,1.3,.4,1.9c0,.3,-.2,.6,-.3,.9c-.3,1.2,-1.4,3.2,-2.2,3.2c-.6,0,-.8,-1,-.8,-1.5c0,-.4,0,-.9,.2,-1.3c.4,-1,1.4,-3.2,2.7,-3.2Z" class="g0_67"/>
<path d="M555.7,887.3v.1c.4,0,.8,.1,1,.1c.3,.2,.3,.3,.3,.8V893c0,.3,0,.5,0,.6c-.1,.5,-.7,.6,-1.2,.6v.1h3.4v-.1c-.4,0,-.9,0,-1,-.2c-.2,-.3,-.2,-.6,-.2,-1v-6.3c-.6,.3,-1.6,.5,-2.3,.6Z" class="g0_67"/>
<path d="M561.8,887.3v.1c.4,0,.8,.1,1,.1c.3,.2,.3,.3,.3,.8V893c0,.3,0,.5,0,.6c-.1,.5,-.7,.6,-1.2,.6v.1h3.4v-.1c-.4,0,-.9,0,-1.1,-.2c-.1,-.3,-.1,-.6,-.1,-1v-6.3c-.6,.3,-1.6,.5,-2.3,.6Z" class="g0_67"/>
<path d="M571.2,885.9c1.2,0,.9,1.9,.4,3.2c-.3,.8,-1.3,2.7,-2.4,2.7c-.5,0,-.7,-.3,-.7,-1c0,-.7,.3,-1.8,.5,-2.3c.3,-.6,.7,-1.6,1.1,-2.1c.3,-.3,.7,-.5,1.1,-.5Zm-2.2,6.2c1.7,0,2.8,-1.5,3.5,-2.6c.3,-.6,.6,-1.4,.6,-2.3c0,-1,-.5,-1.7,-1.5,-1.7c-1,0,-1.7,.6,-2,1.2h-.1l1.6,-5.6l-2.1,.1l-.1,.2c.7,0,.9,.3,.9,.6c0,.2,-.1,.5,-.2,.7l-1.5,5.7c-.2,.5,-.4,1,-.4,1.3c-.1,.4,-.2,.7,-.2,.9c0,.9,.6,1.5,1.5,1.5Z" class="g0_67"/>
<path d="M574.9,887.3v.1c.4,0,.8,.1,1,.1c.3,.2,.3,.3,.3,.8V893c0,.3,0,.5,0,.6c-.1,.5,-.7,.6,-1.2,.6v.1h3.4v-.1c-.4,0,-.9,0,-1,-.2c-.2,-.3,-.2,-.6,-.2,-1v-6.3c-.6,.3,-1.6,.5,-2.3,.6Z" class="g0_67"/>
<path d="M582.2,889.7c-.6,0,-1,-.5,-1,-1.2c0,-.8,.4,-1.6,1.3,-1.6c1.2,0,1.3,1,1.3,1.9c0,.9,-.3,1.5,-.7,2.1c-.3,.4,-.7,.9,-1.1,1.4c-.5,.5,-1.1,1.1,-1.9,1.7v.3h4.6l.3,-2h-.3c0,.2,-.1,.4,-.2,.5c-.2,.4,-.5,.6,-1,.6h-2.1v-.1c.5,-.3,.9,-.7,1.4,-1c.7,-.7,1.5,-1.4,1.9,-2.3c.2,-.4,.3,-.8,.3,-1.2c0,-.3,-.1,-.6,-.2,-.8c-.3,-.8,-1.1,-1.3,-2.2,-1.3c-.7,0,-1.3,.3,-1.7,.6c-.4,.3,-.7,.8,-.7,1.4c0,.5,.1,.8,.4,1.1c.2,.2,.5,.4,.9,.4c.4,0,.7,-.2,.7,-.5Z" class="g0_67"/>
<path d="M593.5,887.7h-3.3v1h3.3V892h.9v-3.3h3.3v-1h-3.3v-3.2h-.9v3.2Z" class="g0_67"/>
<path d="M606,885.5c-.4,0,-.9,.2,-1.3,.5c-.5,.3,-.9,.6,-1.2,1.1c-.7,.8,-1.3,2,-1.3,3.3c0,1,.4,1.7,1.3,1.7c1.3,0,1.8,-.9,2.2,-1.5c-.2,.9,-.1,1.5,.6,1.5c.3,0,.7,-.2,1.1,-.5c.4,-.3,.8,-.8,1.1,-1.3l-.2,-.2c-.3,.4,-.9,1.4,-1.3,1.4c-.2,0,-.3,-.4,-.3,-.6c0,-.9,.6,-2.4,.9,-3.4l.7,-1.9h-1l-.2,.7c-.2,-.5,-.5,-.8,-1.1,-.8Zm.1,.3c.7,0,.6,1.3,.5,1.9c-.1,.3,-.2,.6,-.3,.9c-.4,1.2,-1.5,3.2,-2.3,3.2c-.6,0,-.8,-1,-.8,-1.5c0,-.4,.1,-.9,.2,-1.3c.4,-1,1.5,-3.2,2.7,-3.2Z" class="g0_67"/>
<path d="M610.4,887.3v.1c.3,0,.8,.1,.9,.1c.4,.2,.3,.3,.4,.8V893c0,.3,0,.5,-.1,.6c0,.5,-.6,.6,-1.2,.6v.1h3.5v-.1c-.4,0,-.9,0,-1.1,-.2c-.2,-.3,-.2,-.6,-.2,-1v-6.3c-.5,.3,-1.5,.5,-2.2,.6Z" class="g0_67"/>
<path d="M617.7,889.7c-.7,0,-1.1,-.5,-1.1,-1.2c0,-.8,.4,-1.6,1.3,-1.6c1.2,0,1.3,1,1.3,1.9c0,.9,-.2,1.5,-.7,2.1c-.2,.4,-.6,.9,-1.1,1.4c-.5,.5,-1.1,1.1,-1.8,1.7v.3h4.5l.4,-2h-.3c-.1,.2,-.2,.4,-.2,.5c-.2,.4,-.5,.6,-1.1,.6h-2.1v-.1c.5,-.3,1,-.7,1.4,-1c.8,-.7,1.5,-1.4,2,-2.3c.1,-.4,.2,-.8,.2,-1.2c0,-.3,0,-.6,-.1,-.8c-.4,-.8,-1.1,-1.3,-2.2,-1.3c-.7,0,-1.4,.3,-1.8,.6c-.3,.3,-.7,.8,-.7,1.4c0,.5,.2,.8,.4,1.1c.2,.2,.5,.4,.9,.4c.4,0,.7,-.2,.8,-.5Z" class="g0_67"/>
<path d="M625.9,885.9c1.2,0,.9,1.9,.3,3.2c-.3,.8,-1.2,2.7,-2.4,2.7c-.4,0,-.6,-.3,-.6,-1c0,-.7,.2,-1.8,.5,-2.3c.2,-.6,.7,-1.6,1.1,-2.1c.2,-.3,.6,-.5,1.1,-.5Zm-2.3,6.2c1.7,0,2.9,-1.5,3.5,-2.6c.3,-.6,.6,-1.4,.6,-2.3c0,-1,-.5,-1.7,-1.5,-1.7c-.9,0,-1.6,.6,-2,1.2l1.5,-5.6l-2,.1l-.1,.2c.6,0,.9,.3,.9,.6c0,.2,-.1,.5,-.2,.7l-1.6,5.7c-.2,.5,-.3,1,-.4,1.3c-.1,.4,-.1,.7,-.1,.9c0,.9,.6,1.5,1.4,1.5Z" class="g0_67"/>
<path d="M630.8,889.7c-.7,0,-1.1,-.5,-1.1,-1.2c0,-.8,.4,-1.6,1.3,-1.6c1.2,0,1.4,1,1.4,1.9c0,.9,-.3,1.5,-.8,2.1c-.2,.4,-.6,.9,-1.1,1.4c-.5,.5,-1.1,1.1,-1.8,1.7v.3h4.5l.4,-2h-.3c-.1,.2,-.2,.4,-.2,.5c-.2,.4,-.5,.6,-1,.6h-2.2v-.1c.5,-.3,1,-.7,1.4,-1c.8,-.7,1.5,-1.4,2,-2.3c.1,-.4,.2,-.8,.2,-1.2c0,-.3,0,-.6,-.1,-.8c-.4,-.8,-1.1,-1.3,-2.2,-1.3c-.7,0,-1.4,.3,-1.8,.6c-.3,.3,-.6,.8,-.6,1.4c0,.5,.1,.8,.3,1.1c.2,.2,.5,.4,.9,.4c.4,0,.7,-.2,.8,-.5Z" class="g0_67"/>
<path d="M636.9,889.7c-.7,0,-1.1,-.5,-1.1,-1.2c0,-.8,.4,-1.6,1.3,-1.6c1.2,0,1.4,1,1.4,1.9c0,.9,-.3,1.5,-.8,2.1c-.2,.4,-.6,.9,-1.1,1.4c-.5,.5,-1.1,1.1,-1.8,1.7v.3h4.5l.4,-2h-.3c-.1,.2,-.2,.4,-.2,.5c-.2,.4,-.5,.6,-1.1,.6H636v-.1c.5,-.3,1,-.7,1.4,-1c.8,-.7,1.5,-1.4,2,-2.3c.1,-.4,.2,-.8,.2,-1.2c0,-.3,0,-.6,-.1,-.8c-.4,-.8,-1.1,-1.3,-2.2,-1.3c-.7,0,-1.4,.3,-1.8,.6c-.3,.3,-.6,.8,-.6,1.4c0,.5,.1,.8,.3,1.1c.2,.2,.5,.4,.9,.4c.4,0,.7,-.2,.8,-.5Z" class="g0_67"/>
<path d="M648.1,887.7h-3.2v1h3.2V892h1v-3.3h3.2v-1h-3.2v-3.2h-1v3.2Z" class="g0_67"/>
<path d="M660.6,885.5c-.4,0,-.8,.2,-1.3,.5c-.4,.3,-.8,.6,-1.2,1.1c-.6,.8,-1.2,2,-1.2,3.3c0,1,.3,1.7,1.3,1.7c1.3,0,1.7,-.9,2.1,-1.5h.1c-.2,.9,-.1,1.5,.5,1.5c.4,0,.7,-.2,1.1,-.5c.4,-.3,.8,-.8,1.1,-1.3l-.2,-.2c-.2,.4,-.9,1.4,-1.3,1.4c-.2,0,-.3,-.4,-.3,-.6c0,-.9,.6,-2.4,1,-3.4l.7,-1.9h-1l-.3,.7c-.2,-.5,-.5,-.8,-1.1,-.8Zm.2,.3c.7,0,.5,1.3,.4,1.9c0,.3,-.2,.6,-.3,.9c-.3,1.2,-1.4,3.2,-2.2,3.2c-.6,0,-.8,-1,-.8,-1.5c0,-.4,0,-.9,.2,-1.3c.4,-1,1.4,-3.2,2.7,-3.2Z" class="g0_67"/>
<path d="M665,887.3v.1c.4,0,.8,.1,1,.1c.3,.2,.3,.3,.3,.8V893c0,.3,0,.5,0,.6c-.1,.5,-.7,.6,-1.2,.6v.1h3.4v-.1c-.4,0,-.9,0,-1.1,-.2c-.1,-.3,-.1,-.6,-.1,-1v-6.3c-.6,.3,-1.6,.5,-2.3,.6Z" class="g0_67"/>
<path d="M672.5,894.3c-.7,0,-1.2,-.7,-1.2,-1.4c0,-.6,.3,-1,.8,-1c-.1,-.3,-.4,-.4,-.8,-.4c-.1,0,-.3,0,-.4,.1c-.4,.1,-.7,.6,-.7,1.1c0,.3,.1,.5,.2,.7c.4,.7,1.1,1,2.2,1c.8,0,1.4,-.2,1.8,-.6c.4,-.3,.8,-.8,.8,-1.5c0,-.2,-.1,-.5,-.2,-.7c-.2,-.6,-.8,-1.1,-1.5,-1.3c.4,-.1,.8,-.4,1,-.7c.2,-.3,.4,-.7,.4,-1.1c0,-.3,0,-.5,-.1,-.8c-.4,-.6,-1.2,-1,-2.2,-1c-.6,0,-1.2,.1,-1.5,.4c-.3,.2,-.6,.5,-.6,1c0,.3,.1,.6,.3,.7c.1,.2,.4,.3,.7,.3c.2,0,.3,0,.5,-.1c.1,0,.2,-.1,.2,-.2c-.4,0,-.7,-.4,-.7,-.8c0,-.6,.5,-1.1,1.1,-1.1c.8,0,1.2,.7,1.2,1.6c0,.9,-.3,1.8,-1.1,1.8c-.2,-.1,-.4,-.2,-.6,-.2c-.2,0,-.5,.1,-.5,.3c0,.2,.3,.3,.5,.3c.3,0,.5,-.1,.7,-.2c.9,0,1.1,.8,1.1,1.8c0,1,-.4,2,-1.4,2Z" class="g0_67"/>
<path d="M680.5,885.9c1.2,0,.9,1.9,.4,3.2c-.3,.8,-1.3,2.7,-2.4,2.7c-.5,0,-.7,-.3,-.7,-1c0,-.7,.3,-1.8,.5,-2.3c.3,-.6,.7,-1.6,1.1,-2.1c.3,-.3,.7,-.5,1.1,-.5Zm-2.2,6.2c1.7,0,2.8,-1.5,3.5,-2.6c.3,-.6,.6,-1.4,.6,-2.3c0,-1,-.5,-1.7,-1.5,-1.7c-1,0,-1.7,.6,-2,1.2h-.1l1.6,-5.6l-2.1,.1l-.1,.2c.7,0,.9,.3,.9,.6c0,.2,-.1,.5,-.2,.7l-1.5,5.7c-.2,.5,-.4,1,-.4,1.3c-.1,.4,-.2,.7,-.2,.9c0,.9,.6,1.5,1.5,1.5Z" class="g0_67"/>
<path d="M685.6,894.3c-.7,0,-1.2,-.7,-1.2,-1.4c0,-.6,.3,-1,.8,-1c-.1,-.3,-.4,-.4,-.7,-.4c-.2,0,-.3,0,-.5,.1c-.4,.1,-.7,.6,-.7,1.1c0,.3,.1,.5,.2,.7c.4,.7,1.1,1,2.2,1c.8,0,1.4,-.2,1.8,-.6c.4,-.3,.8,-.8,.8,-1.5c0,-.2,-.1,-.5,-.2,-.7c-.2,-.6,-.8,-1.1,-1.5,-1.3c.4,-.1,.8,-.4,1,-.7c.2,-.3,.4,-.7,.4,-1.1c0,-.3,0,-.5,-.1,-.8c-.4,-.6,-1.2,-1,-2.2,-1c-.6,0,-1.1,.1,-1.5,.4c-.3,.2,-.6,.5,-.6,1c0,.3,.1,.6,.3,.7c.1,.2,.4,.3,.7,.3c.2,0,.3,0,.5,-.1c.1,0,.2,-.1,.2,-.2c-.4,0,-.7,-.4,-.7,-.8c0,-.6,.5,-1.1,1.1,-1.1c.8,0,1.2,.7,1.2,1.6c0,.9,-.3,1.8,-1.1,1.8c-.2,-.1,-.4,-.2,-.6,-.2c-.2,0,-.5,.1,-.5,.3c0,.2,.3,.3,.5,.3c.3,0,.5,-.1,.7,-.2c.9,0,1.1,.8,1.1,1.8c0,1,-.4,2,-1.4,2Z" class="g0_67"/>
<path d="M691.5,889.7c-.6,0,-1,-.5,-1,-1.2c0,-.8,.4,-1.6,1.3,-1.6c1.2,0,1.3,1,1.3,1.9c0,.9,-.3,1.5,-.7,2.1c-.3,.4,-.7,.9,-1.1,1.4c-.5,.5,-1.1,1.1,-1.9,1.7v.3H694l.3,-2H694c0,.2,-.1,.4,-.2,.5c-.2,.4,-.5,.6,-1,.6h-2.1v-.1c.5,-.3,.9,-.7,1.4,-1c.7,-.7,1.5,-1.4,1.9,-2.3c.2,-.4,.3,-.8,.3,-1.2c0,-.3,-.1,-.6,-.2,-.8c-.3,-.8,-1.1,-1.3,-2.2,-1.3c-.7,0,-1.3,.3,-1.7,.6c-.4,.3,-.7,.8,-.7,1.4c0,.5,.1,.8,.4,1.1c.2,.2,.5,.4,.9,.4c.4,0,.7,-.2,.7,-.5Z" class="g0_67"/>
<path d="M387.5,903.4c-.4,0,-.8,.2,-1.3,.5c-.4,.3,-.9,.6,-1.2,1.1c-.7,.8,-1.3,2,-1.3,3.3c0,1,.4,1.7,1.3,1.7c1.3,0,1.8,-.9,2.2,-1.5c-.2,.9,-.1,1.5,.6,1.5c.3,0,.7,-.2,1.1,-.5c.4,-.3,.8,-.8,1.1,-1.3l-.2,-.2c-.3,.4,-.9,1.4,-1.3,1.4c-.2,0,-.3,-.4,-.3,-.6c0,-.9,.6,-2.4,.9,-3.4l.7,-1.9h-1l-.2,.7c-.2,-.5,-.5,-.8,-1.1,-.8Zm.2,.3c.7,0,.5,1.3,.4,1.9c-.1,.3,-.2,.6,-.3,.9c-.4,1.2,-1.5,3.2,-2.3,3.2c-.6,0,-.7,-1,-.7,-1.5c0,-.4,0,-.9,.2,-1.3c.3,-1,1.4,-3.2,2.7,-3.2Z" class="g0_67"/>
<path d="M393.1,907.6c-.7,0,-1.1,-.5,-1.1,-1.2c0,-.8,.4,-1.6,1.4,-1.6c1.2,0,1.3,1,1.3,1.9c0,.9,-.3,1.5,-.7,2.1c-.3,.4,-.7,.9,-1.2,1.4c-.5,.5,-1.1,1.1,-1.8,1.7v.3h4.5l.4,-2h-.3c-.1,.2,-.2,.4,-.2,.5c-.2,.4,-.5,.6,-1,.6h-2.1v-.1c.4,-.3,.9,-.7,1.3,-1c.8,-.7,1.6,-1.4,2,-2.3c.2,-.4,.3,-.8,.3,-1.2c0,-.3,-.1,-.6,-.2,-.8c-.4,-.8,-1.1,-1.3,-2.2,-1.3c-.7,0,-1.3,.2,-1.7,.6c-.4,.3,-.7,.8,-.7,1.4c0,.5,.1,.8,.3,1.1c.2,.2,.5,.4,.9,.4c.4,0,.7,-.2,.8,-.5Z" class="g0_67"/>
<path d="M398,905.2v.1c.3,0,.8,.1,1,.1c.3,.2,.3,.3,.3,.8v4.7c0,.3,0,.5,0,.6c-.1,.5,-.7,.6,-1.2,.6v.1h3.4v-.1c-.4,0,-.9,0,-1.1,-.2c-.1,-.3,-.1,-.6,-.1,-1v-6.3c-.6,.3,-1.6,.5,-2.3,.6Z" class="g0_67"/>
<path d="M407.4,903.8c1.2,0,.9,1.9,.4,3.2c-.4,.8,-1.3,2.7,-2.4,2.7c-.5,0,-.7,-.3,-.7,-1c0,-.7,.2,-1.8,.5,-2.3c.3,-.6,.7,-1.6,1.1,-2.1c.3,-.3,.6,-.5,1.1,-.5Zm-2.2,6.2c1.6,0,2.8,-1.5,3.4,-2.6c.4,-.6,.7,-1.4,.7,-2.3c0,-1,-.5,-1.7,-1.6,-1.7c-.9,0,-1.6,.6,-2,1.2l1.6,-5.6l-2.1,.1l-.1,.2c.6,0,.9,.3,.9,.6c0,.2,-.1,.5,-.2,.7l-1.6,5.7c-.1,.5,-.3,1,-.4,1.3c0,.4,-.1,.7,-.1,.9c0,.9,.6,1.5,1.5,1.5Z" class="g0_67"/>
<path d="M411.1,905.2v.1c.3,0,.8,.1,1,.1c.3,.2,.3,.3,.3,.8v4.7c0,.3,0,.5,0,.6c-.1,.5,-.7,.6,-1.2,.6v.1h3.4v-.1c-.4,0,-.9,0,-1.1,-.2c-.1,-.3,-.1,-.6,-.1,-1v-6.3c-.6,.3,-1.6,.5,-2.3,.6Z" class="g0_67"/>
<path d="M417.2,905.2v.1c.3,0,.8,.1,1,.1c.3,.2,.3,.3,.3,.8v4.7c0,.3,0,.5,0,.6c-.1,.5,-.7,.6,-1.2,.6v.1h3.4v-.1c-.4,0,-.9,0,-1.1,-.2c-.1,-.3,-.1,-.6,-.1,-1v-6.3c-.6,.3,-1.6,.5,-2.3,.6Z" class="g0_67"/>
<path d="M429.6,905.6h-3.2v1h3.2v3.3h1v-3.3h3.3v-1h-3.3v-3.2h-1v3.2Z" class="g0_67"/>
<path d="M442.2,903.4c-.5,0,-.9,.2,-1.3,.5c-.5,.3,-.9,.6,-1.3,1.1c-.6,.8,-1.2,2,-1.2,3.3c0,1,.4,1.7,1.3,1.7c1.3,0,1.8,-.9,2.2,-1.5c-.2,.9,-.1,1.5,.5,1.5c.4,0,.8,-.2,1.2,-.5c.4,-.3,.7,-.8,1.1,-1.3l-.2,-.2c-.3,.4,-.9,1.4,-1.4,1.4c-.2,0,-.2,-.4,-.2,-.6c0,-.9,.6,-2.4,.9,-3.4l.7,-1.9h-1l-.3,.7c-.1,-.5,-.4,-.8,-1,-.8Zm.1,.3c.7,0,.6,1.3,.5,1.9c-.1,.3,-.2,.6,-.3,.9c-.4,1.2,-1.5,3.2,-2.3,3.2c-.6,0,-.8,-1,-.8,-1.5c0,-.4,0,-.9,.2,-1.3c.4,-1,1.4,-3.2,2.7,-3.2Z" class="g0_67"/>
<path d="M447.7,907.6c-.6,0,-1,-.5,-1,-1.2c0,-.8,.4,-1.6,1.3,-1.6c1.2,0,1.3,1,1.3,1.9c0,.9,-.2,1.5,-.7,2.1c-.3,.4,-.7,.9,-1.1,1.4c-.5,.5,-1.1,1.1,-1.9,1.7v.3h4.6l.4,-2h-.3c-.1,.2,-.2,.4,-.3,.5c-.1,.4,-.4,.6,-1,.6h-2.1v-.1c.5,-.3,1,-.7,1.4,-1c.7,-.7,1.5,-1.4,1.9,-2.3c.2,-.4,.3,-.8,.3,-1.2c0,-.3,-.1,-.6,-.2,-.8c-.3,-.8,-1.1,-1.3,-2.1,-1.3c-.8,0,-1.4,.2,-1.8,.6c-.4,.3,-.7,.8,-.7,1.4c0,.5,.2,.8,.4,1.1c.2,.2,.5,.4,.9,.4c.4,0,.7,-.2,.7,-.5Z" class="g0_67"/>
<path d="M453.8,907.6c-.6,0,-1,-.5,-1,-1.2c0,-.8,.4,-1.6,1.3,-1.6c1.2,0,1.3,1,1.3,1.9c0,.9,-.3,1.5,-.7,2.1c-.3,.4,-.7,.9,-1.1,1.4c-.5,.5,-1.1,1.1,-1.9,1.7v.3h4.6l.4,-2h-.3c-.1,.2,-.2,.4,-.3,.5c-.1,.4,-.5,.6,-1,.6H453v-.1c.5,-.3,1,-.7,1.4,-1c.7,-.7,1.5,-1.4,1.9,-2.3c.2,-.4,.3,-.8,.3,-1.2c0,-.3,-.1,-.6,-.2,-.8c-.3,-.8,-1.1,-1.3,-2.2,-1.3c-.7,0,-1.3,.2,-1.7,.6c-.4,.3,-.7,.8,-.7,1.4c0,.5,.2,.8,.4,1.1c.2,.2,.5,.4,.9,.4c.4,0,.7,-.2,.7,-.5Z" class="g0_67"/>
<path d="M462,903.8c1.3,0,1,1.9,.4,3.2c-.3,.8,-1.3,2.7,-2.4,2.7c-.5,0,-.7,-.3,-.7,-1c0,-.7,.3,-1.8,.5,-2.3c.3,-.6,.8,-1.6,1.2,-2.1c.2,-.3,.6,-.5,1,-.5Zm-2.2,6.2c1.7,0,2.9,-1.5,3.5,-2.6c.3,-.6,.6,-1.4,.6,-2.3c0,-1,-.5,-1.7,-1.5,-1.7c-.9,0,-1.6,.6,-2,1.2l1.5,-5.6l-2.1,.1v.2c.6,0,.9,.3,.9,.6c0,.2,-.2,.5,-.2,.7l-1.6,5.7c-.2,.5,-.3,1,-.4,1.3c-.1,.4,-.1,.7,-.1,.9c0,.9,.5,1.5,1.4,1.5Z" class="g0_67"/>
<path d="M467,907.6c-.7,0,-1.1,-.5,-1.1,-1.2c0,-.8,.4,-1.6,1.3,-1.6c1.2,0,1.3,1,1.3,1.9c0,.9,-.2,1.5,-.7,2.1c-.3,.4,-.6,.9,-1.1,1.4c-.5,.5,-1.1,1.1,-1.9,1.7v.3h4.6l.4,-2h-.3c-.1,.2,-.2,.4,-.3,.5c-.1,.4,-.4,.6,-1,.6h-2.1v-.1c.5,-.3,1,-.7,1.4,-1c.7,-.7,1.5,-1.4,1.9,-2.3c.2,-.4,.3,-.8,.3,-1.2c0,-.3,-.1,-.6,-.2,-.8c-.3,-.8,-1,-1.3,-2.1,-1.3c-.7,0,-1.4,.2,-1.8,.6c-.4,.3,-.7,.8,-.7,1.4c0,.5,.2,.8,.4,1.1c.2,.2,.5,.4,.9,.4c.4,0,.7,-.2,.8,-.5Z" class="g0_67"/>
<path d="M471.9,905.2v.1c.3,0,.8,.1,.9,.1c.4,.2,.3,.3,.4,.8v4.7c0,.3,-.1,.5,-.1,.6c-.1,.5,-.6,.6,-1.2,.6v.1h3.4v-.1c-.3,0,-.9,0,-1,-.2c-.2,-.3,-.2,-.6,-.2,-1v-6.3c-.6,.3,-1.5,.5,-2.2,.6Z" class="g0_67"/>
<path d="M484.3,905.6H481v1h3.3v3.3h1v-3.3h3.2v-1h-3.2v-3.2h-1v3.2Z" class="g0_67"/>
<path d="M496.8,903.4c-.4,0,-.8,.2,-1.3,.5c-.4,.3,-.8,.6,-1.2,1.1c-.7,.8,-1.3,2,-1.3,3.3c0,1,.4,1.7,1.3,1.7c1.3,0,1.8,-.9,2.2,-1.5c-.2,.9,0,1.5,.6,1.5c.3,0,.7,-.2,1.1,-.5c.4,-.3,.8,-.8,1.1,-1.3l-.2,-.2c-.3,.4,-.9,1.4,-1.3,1.4c-.2,0,-.3,-.4,-.3,-.6c0,-.9,.6,-2.4,.9,-3.4l.7,-1.9h-1l-.2,.7c-.2,-.5,-.5,-.8,-1.1,-.8Zm.2,.3c.7,0,.5,1.3,.4,1.9c-.1,.3,-.2,.6,-.3,.9c-.4,1.2,-1.5,3.2,-2.3,3.2c-.6,0,-.7,-1,-.7,-1.5c0,-.4,0,-.9,.2,-1.3c.3,-1,1.4,-3.2,2.7,-3.2Z" class="g0_67"/>
<path d="M502.4,907.6c-.7,0,-1.1,-.5,-1.1,-1.2c0,-.8,.4,-1.6,1.3,-1.6c1.3,0,1.4,1,1.4,1.9c0,.9,-.3,1.5,-.7,2.1c-.3,.4,-.7,.9,-1.2,1.4c-.5,.5,-1.1,1.1,-1.8,1.7v.3h4.5l.4,-2h-.3c-.1,.2,-.2,.4,-.2,.5c-.2,.4,-.5,.6,-1,.6h-2.1v-.1c.4,-.3,.9,-.7,1.3,-1c.8,-.7,1.6,-1.4,2,-2.3c.2,-.4,.3,-.8,.3,-1.2c0,-.3,-.1,-.6,-.2,-.8c-.4,-.8,-1.1,-1.3,-2.2,-1.3c-.7,0,-1.3,.2,-1.7,.6c-.4,.3,-.7,.8,-.7,1.4c0,.5,.1,.8,.3,1.1c.2,.2,.5,.4,.9,.4c.4,0,.7,-.2,.8,-.5Z" class="g0_67"/>
<path d="M508.7,912.2c-.7,0,-1.3,-.7,-1.3,-1.4c0,-.6,.4,-1,.9,-1c-.1,-.3,-.4,-.4,-.8,-.4c-.1,0,-.3,0,-.4,.1c-.4,.1,-.7,.6,-.7,1.1c0,.3,0,.5,.2,.7c.3,.7,1.1,1,2.1,1c.8,0,1.4,-.2,1.9,-.6c.4,-.3,.7,-.8,.7,-1.5c0,-.2,0,-.5,-.1,-.7c-.3,-.6,-.8,-1.1,-1.6,-1.3c.5,-.1,.8,-.4,1.1,-.7c.2,-.3,.4,-.7,.4,-1.1c0,-.3,-.1,-.5,-.2,-.8c-.3,-.6,-1.1,-1,-2.1,-1c-.6,0,-1.2,.1,-1.5,.4c-.4,.2,-.6,.5,-.6,1c0,.3,.1,.6,.3,.7c.1,.2,.4,.3,.7,.3c.1,0,.3,0,.4,-.1c.2,0,.2,-.1,.3,-.2c-.5,0,-.7,-.4,-.7,-.8c0,-.6,.4,-1.1,1.1,-1.1c.7,0,1.1,.7,1.1,1.6c0,.9,-.2,1.8,-1,1.8c-.2,-.1,-.4,-.2,-.6,-.2c-.2,0,-.6,.1,-.6,.3c0,.2,.4,.3,.6,.3c.2,0,.5,-.1,.7,-.2c.8,0,1.1,.8,1.1,1.8c0,1,-.4,2,-1.4,2Z" class="g0_67"/>
<path d="M516.7,903.8c1.2,0,.9,1.9,.4,3.2c-.4,.8,-1.3,2.7,-2.4,2.7c-.5,0,-.7,-.3,-.7,-1c0,-.7,.2,-1.8,.5,-2.3c.3,-.6,.7,-1.6,1.1,-2.1c.3,-.3,.6,-.5,1.1,-.5Zm-2.2,6.2c1.6,0,2.8,-1.5,3.4,-2.6c.4,-.6,.7,-1.4,.7,-2.3c0,-1,-.6,-1.7,-1.6,-1.7c-.9,0,-1.6,.6,-2,1.2l1.5,-5.6l-2,.1l-.1,.2c.6,0,.9,.3,.9,.6c0,.2,-.1,.5,-.2,.7l-1.6,5.7c-.1,.5,-.3,1,-.4,1.3c0,.4,-.1,.7,-.1,.9c0,.9,.6,1.5,1.5,1.5Z" class="g0_67"/>
<path d="M521.8,912.2c-.7,0,-1.3,-.7,-1.3,-1.4c0,-.6,.4,-1,.9,-1c-.1,-.3,-.4,-.4,-.8,-.4c-.1,0,-.3,0,-.4,.1c-.4,.1,-.7,.6,-.7,1.1c0,.3,.1,.5,.2,.7c.4,.7,1.1,1,2.1,1c.8,0,1.5,-.2,1.9,-.6c.4,-.3,.7,-.8,.7,-1.5c0,-.2,0,-.5,-.1,-.7c-.3,-.6,-.8,-1.1,-1.6,-1.3c.5,-.1,.8,-.4,1.1,-.7c.2,-.3,.4,-.7,.4,-1.1c0,-.3,0,-.5,-.2,-.8c-.3,-.6,-1.1,-1,-2.1,-1c-.6,0,-1.2,.1,-1.5,.4c-.3,.2,-.6,.5,-.6,1c0,.3,.1,.6,.3,.7c.1,.2,.4,.3,.7,.3c.1,0,.3,0,.4,-.1c.2,0,.2,-.1,.3,-.2c-.4,0,-.7,-.4,-.7,-.8c0,-.6,.4,-1.1,1.1,-1.1c.7,0,1.1,.7,1.1,1.6c0,.9,-.2,1.8,-1,1.8c-.2,-.1,-.4,-.2,-.6,-.2c-.2,0,-.6,.1,-.6,.3c0,.2,.4,.3,.6,.3c.2,0,.5,-.1,.7,-.2c.9,0,1.1,.8,1.1,1.8c0,1,-.4,2,-1.4,2Z" class="g0_67"/>
<path d="M526.5,905.2v.1c.3,0,.8,.1,1,.1c.3,.2,.3,.3,.3,.8v4.7c0,.3,0,.5,0,.6c-.1,.5,-.7,.6,-1.2,.6v.1H530v-.1c-.4,0,-.9,0,-1.1,-.2c-.1,-.3,-.1,-.6,-.1,-1v-6.3c-.6,.3,-1.6,.5,-2.3,.6Z" class="g0_67"/>
<path d="M551.3,903.4c-.4,0,-.8,.2,-1.3,.5c-.4,.3,-.8,.6,-1.2,1.1c-.6,.8,-1.2,2,-1.2,3.3c0,1,.3,1.7,1.3,1.7c1.3,0,1.7,-.9,2.1,-1.5h.1c-.2,.9,-.1,1.5,.5,1.5c.4,0,.7,-.2,1.1,-.5c.4,-.3,.8,-.8,1.1,-1.3l-.2,-.2c-.2,.4,-.9,1.4,-1.3,1.4c-.2,0,-.3,-.4,-.3,-.6c0,-.9,.6,-2.4,1,-3.4l.7,-1.9h-1l-.3,.7c-.2,-.5,-.5,-.8,-1.1,-.8Zm.2,.3c.7,0,.5,1.3,.4,1.9c0,.3,-.2,.6,-.3,.9c-.3,1.2,-1.4,3.2,-2.2,3.2c-.6,0,-.8,-1,-.8,-1.5c0,-.4,0,-.9,.2,-1.3c.4,-1,1.4,-3.2,2.7,-3.2Z" class="g0_67"/>
<path d="M556.9,907.6c-.6,0,-1,-.5,-1,-1.2c0,-.8,.4,-1.6,1.3,-1.6c1.2,0,1.3,1,1.3,1.9c0,.9,-.3,1.5,-.7,2.1c-.3,.4,-.7,.9,-1.1,1.4c-.5,.5,-1.1,1.1,-1.9,1.7v.3h4.6l.3,-2h-.3c0,.2,-.1,.4,-.2,.5c-.2,.4,-.5,.6,-1,.6h-2.1v-.1c.5,-.3,.9,-.7,1.4,-1c.7,-.7,1.5,-1.4,1.9,-2.3c.2,-.4,.3,-.8,.3,-1.2c0,-.3,-.1,-.6,-.2,-.8c-.4,-.8,-1.1,-1.3,-2.2,-1.3c-.7,0,-1.3,.2,-1.7,.6c-.4,.3,-.7,.8,-.7,1.4c0,.5,.1,.8,.4,1.1c.2,.2,.5,.4,.9,.4c.4,0,.7,-.2,.7,-.5Z" class="g0_67"/>
<path d="M561.8,905.2v.1c.4,0,.8,.1,1,.1c.3,.2,.3,.3,.3,.8v4.7c0,.3,0,.5,0,.6c-.1,.5,-.7,.6,-1.2,.6v.1h3.4v-.1c-.4,0,-.9,0,-1.1,-.2c-.1,-.3,-.1,-.6,-.1,-1v-6.3c-.6,.3,-1.6,.5,-2.3,.6Z" class="g0_67"/>
<path d="M571.2,903.8c1.2,0,.9,1.9,.4,3.2c-.3,.8,-1.3,2.7,-2.4,2.7c-.5,0,-.7,-.3,-.7,-1c0,-.7,.3,-1.8,.5,-2.3c.3,-.6,.7,-1.6,1.1,-2.1c.3,-.3,.7,-.5,1.1,-.5ZM569,910c1.7,0,2.8,-1.5,3.5,-2.6c.3,-.6,.6,-1.4,.6,-2.3c0,-1,-.5,-1.7,-1.5,-1.7c-1,0,-1.7,.6,-2,1.2h-.1l1.6,-5.6l-2.1,.1l-.1,.2c.7,0,.9,.3,.9,.6c0,.2,-.1,.5,-.2,.7l-1.5,5.7c-.2,.5,-.4,1,-.4,1.3c-.1,.4,-.2,.7,-.2,.9c0,.9,.6,1.5,1.5,1.5Z" class="g0_67"/>
<path d="M574.9,905.2v.1c.4,0,.8,.1,1,.1c.3,.2,.3,.3,.3,.8v4.7c0,.3,0,.5,0,.6c-.1,.5,-.7,.6,-1.2,.6v.1h3.4v-.1c-.4,0,-.9,0,-1,-.2c-.2,-.3,-.2,-.6,-.2,-1v-6.3c-.6,.3,-1.6,.5,-2.3,.6Z" class="g0_67"/>
<path d="M582.2,907.6c-.6,0,-1,-.5,-1,-1.2c0,-.8,.4,-1.6,1.3,-1.6c1.2,0,1.3,1,1.3,1.9c0,.9,-.3,1.5,-.7,2.1c-.3,.4,-.7,.9,-1.1,1.4c-.5,.5,-1.1,1.1,-1.9,1.7v.3h4.6l.3,-2h-.3c0,.2,-.1,.4,-.2,.5c-.2,.4,-.5,.6,-1,.6h-2.1v-.1c.5,-.3,.9,-.7,1.4,-1c.7,-.7,1.5,-1.4,1.9,-2.3c.2,-.4,.3,-.8,.3,-1.2c0,-.3,-.1,-.6,-.2,-.8c-.3,-.8,-1.1,-1.3,-2.2,-1.3c-.7,0,-1.3,.2,-1.7,.6c-.4,.3,-.7,.8,-.7,1.4c0,.5,.1,.8,.4,1.1c.2,.2,.5,.4,.9,.4c.4,0,.7,-.2,.7,-.5Z" class="g0_67"/>
<path d="M593.5,905.6h-3.3v1h3.3v3.3h.9v-3.3h3.3v-1h-3.3v-3.2h-.9v3.2Z" class="g0_67"/>
<path d="M606,903.4c-.4,0,-.9,.2,-1.3,.5c-.5,.3,-.9,.6,-1.2,1.1c-.7,.8,-1.3,2,-1.3,3.3c0,1,.4,1.7,1.3,1.7c1.3,0,1.8,-.9,2.2,-1.5c-.2,.9,-.1,1.5,.6,1.5c.3,0,.7,-.2,1.1,-.5c.4,-.3,.8,-.8,1.1,-1.3l-.2,-.2c-.3,.4,-.9,1.4,-1.3,1.4c-.2,0,-.3,-.4,-.3,-.6c0,-.9,.6,-2.4,.9,-3.4l.7,-1.9h-1l-.2,.7c-.2,-.5,-.5,-.8,-1.1,-.8Zm.1,.3c.7,0,.6,1.3,.5,1.9c-.1,.3,-.2,.6,-.3,.9c-.4,1.2,-1.5,3.2,-2.3,3.2c-.6,0,-.8,-1,-.8,-1.5c0,-.4,.1,-.9,.2,-1.3c.4,-1,1.5,-3.2,2.7,-3.2Z" class="g0_67"/>
<path d="M611.6,907.6c-.7,0,-1.1,-.5,-1.1,-1.2c0,-.8,.4,-1.6,1.3,-1.6c1.2,0,1.3,1,1.3,1.9c0,.9,-.2,1.5,-.7,2.1c-.2,.4,-.6,.9,-1.1,1.4c-.5,.5,-1.1,1.1,-1.8,1.7v.3H614l.4,-2h-.3c-.1,.2,-.2,.4,-.2,.5c-.2,.4,-.5,.6,-1.1,.6h-2.1v-.1c.5,-.3,1,-.7,1.4,-1c.8,-.7,1.5,-1.4,2,-2.3c.1,-.4,.2,-.8,.2,-1.2c0,-.3,0,-.6,-.1,-.8c-.4,-.8,-1.1,-1.3,-2.2,-1.3c-.7,0,-1.4,.2,-1.8,.6c-.3,.3,-.7,.8,-.7,1.4c0,.5,.2,.8,.4,1.1c.2,.2,.5,.4,.9,.4c.4,0,.7,-.2,.8,-.5Z" class="g0_67"/>
<path d="M617.7,907.6c-.7,0,-1.1,-.5,-1.1,-1.2c0,-.8,.4,-1.6,1.3,-1.6c1.2,0,1.3,1,1.3,1.9c0,.9,-.2,1.5,-.7,2.1c-.2,.4,-.6,.9,-1.1,1.4c-.5,.5,-1.1,1.1,-1.8,1.7v.3h4.5l.4,-2h-.3c-.1,.2,-.2,.4,-.2,.5c-.2,.4,-.5,.6,-1.1,.6h-2.1v-.1c.5,-.3,1,-.7,1.4,-1c.8,-.7,1.5,-1.4,2,-2.3c.1,-.4,.2,-.8,.2,-1.2c0,-.3,0,-.6,-.1,-.8c-.4,-.8,-1.1,-1.3,-2.2,-1.3c-.7,0,-1.4,.2,-1.8,.6c-.3,.3,-.7,.8,-.7,1.4c0,.5,.2,.8,.4,1.1c.2,.2,.5,.4,.9,.4c.4,0,.7,-.2,.8,-.5Z" class="g0_67"/>
<path d="M625.9,903.8c1.2,0,.9,1.9,.3,3.2c-.3,.8,-1.2,2.7,-2.4,2.7c-.4,0,-.6,-.3,-.6,-1c0,-.7,.2,-1.8,.5,-2.3c.2,-.6,.7,-1.6,1.1,-2.1c.2,-.3,.6,-.5,1.1,-.5Zm-2.3,6.2c1.7,0,2.9,-1.5,3.5,-2.6c.3,-.6,.6,-1.4,.6,-2.3c0,-1,-.5,-1.7,-1.5,-1.7c-.9,0,-1.6,.6,-2,1.2l1.5,-5.6l-2,.1l-.1,.2c.6,0,.9,.3,.9,.6c0,.2,-.1,.5,-.2,.7l-1.6,5.7c-.2,.5,-.3,1,-.4,1.3c-.1,.4,-.1,.7,-.1,.9c0,.9,.6,1.5,1.4,1.5Z" class="g0_67"/>
<path d="M630.8,907.6c-.7,0,-1.1,-.5,-1.1,-1.2c0,-.8,.4,-1.6,1.3,-1.6c1.2,0,1.4,1,1.4,1.9c0,.9,-.3,1.5,-.8,2.1c-.2,.4,-.6,.9,-1.1,1.4c-.5,.5,-1.1,1.1,-1.8,1.7v.3h4.5l.4,-2h-.3c-.1,.2,-.2,.4,-.2,.5c-.2,.4,-.5,.6,-1,.6h-2.2v-.1c.5,-.3,1,-.7,1.4,-1c.8,-.7,1.5,-1.4,2,-2.3c.1,-.4,.2,-.8,.2,-1.2c0,-.3,0,-.6,-.1,-.8c-.4,-.8,-1.1,-1.3,-2.2,-1.3c-.7,0,-1.4,.2,-1.8,.6c-.3,.3,-.6,.8,-.6,1.4c0,.5,.1,.8,.3,1.1c.2,.2,.5,.4,.9,.4c.4,0,.7,-.2,.8,-.5Z" class="g0_67"/>
<path d="M636.9,907.6c-.7,0,-1.1,-.5,-1.1,-1.2c0,-.8,.4,-1.6,1.3,-1.6c1.2,0,1.4,1,1.4,1.9c0,.9,-.3,1.5,-.8,2.1c-.2,.4,-.6,.9,-1.1,1.4c-.5,.5,-1.1,1.1,-1.8,1.7v.3h4.5l.4,-2h-.3c-.1,.2,-.2,.4,-.2,.5c-.2,.4,-.5,.6,-1.1,.6H636v-.1c.5,-.3,1,-.7,1.4,-1c.8,-.7,1.5,-1.4,2,-2.3c.1,-.4,.2,-.8,.2,-1.2c0,-.3,0,-.6,-.1,-.8c-.4,-.8,-1.1,-1.3,-2.2,-1.3c-.7,0,-1.4,.2,-1.8,.6c-.3,.3,-.6,.8,-.6,1.4c0,.5,.1,.8,.3,1.1c.2,.2,.5,.4,.9,.4c.4,0,.7,-.2,.8,-.5Z" class="g0_67"/>
<path d="M648.1,905.6h-3.2v1h3.2v3.3h1v-3.3h3.2v-1h-3.2v-3.2h-1v3.2Z" class="g0_67"/>
<path d="M660.6,903.4c-.4,0,-.8,.2,-1.3,.5c-.4,.3,-.8,.6,-1.2,1.1c-.6,.8,-1.2,2,-1.2,3.3c0,1,.3,1.7,1.3,1.7c1.3,0,1.7,-.9,2.1,-1.5h.1c-.2,.9,-.1,1.5,.5,1.5c.4,0,.7,-.2,1.1,-.5c.4,-.3,.8,-.8,1.1,-1.3l-.2,-.2c-.2,.4,-.9,1.4,-1.3,1.4c-.2,0,-.3,-.4,-.3,-.6c0,-.9,.6,-2.4,1,-3.4l.7,-1.9h-1l-.3,.7c-.2,-.5,-.5,-.8,-1.1,-.8Zm.2,.3c.7,0,.5,1.3,.4,1.9c0,.3,-.2,.6,-.3,.9c-.3,1.2,-1.4,3.2,-2.2,3.2c-.6,0,-.8,-1,-.8,-1.5c0,-.4,0,-.9,.2,-1.3c.4,-1,1.4,-3.2,2.7,-3.2Z" class="g0_67"/>
<path d="M666.2,907.6c-.6,0,-1,-.5,-1,-1.2c0,-.8,.4,-1.6,1.3,-1.6c1.2,0,1.3,1,1.3,1.9c0,.9,-.3,1.5,-.7,2.1c-.3,.4,-.7,.9,-1.1,1.4c-.5,.5,-1.1,1.1,-1.9,1.7v.3h4.6l.3,-2h-.3c0,.2,-.1,.4,-.2,.5c-.2,.4,-.5,.6,-1,.6h-2.1v-.1c.5,-.3,.9,-.7,1.4,-1c.7,-.7,1.5,-1.4,1.9,-2.3c.2,-.4,.3,-.8,.3,-1.2c0,-.3,-.1,-.6,-.2,-.8c-.4,-.8,-1.1,-1.3,-2.2,-1.3c-.7,0,-1.3,.2,-1.7,.6c-.4,.3,-.7,.8,-.7,1.4c0,.5,.1,.8,.4,1.1c.2,.2,.5,.4,.9,.4c.4,0,.7,-.2,.7,-.5Z" class="g0_67"/>
<path d="M672.5,912.2c-.7,0,-1.2,-.7,-1.2,-1.4c0,-.6,.3,-1,.8,-1c-.1,-.3,-.4,-.4,-.8,-.4c-.1,0,-.3,0,-.4,.1c-.4,.1,-.7,.6,-.7,1.1c0,.3,.1,.5,.2,.7c.4,.7,1.1,1,2.2,1c.8,0,1.4,-.2,1.8,-.6c.4,-.3,.8,-.8,.8,-1.5c0,-.2,-.1,-.5,-.2,-.7c-.2,-.6,-.8,-1.1,-1.5,-1.3c.4,-.1,.8,-.4,1,-.7c.2,-.3,.4,-.7,.4,-1.1c0,-.3,0,-.5,-.1,-.8c-.4,-.6,-1.2,-1,-2.2,-1c-.6,0,-1.2,.1,-1.5,.4c-.3,.2,-.6,.5,-.6,1c0,.3,.1,.6,.3,.7c.1,.2,.4,.3,.7,.3c.2,0,.3,0,.5,-.1c.1,0,.2,-.1,.2,-.2c-.4,0,-.7,-.4,-.7,-.8c0,-.6,.5,-1.1,1.1,-1.1c.8,0,1.2,.7,1.2,1.6c0,.9,-.3,1.8,-1.1,1.8c-.2,-.1,-.4,-.2,-.6,-.2c-.2,0,-.5,.1,-.5,.3c0,.2,.3,.3,.5,.3c.3,0,.5,-.1,.7,-.2c.9,0,1.1,.8,1.1,1.8c0,1,-.4,2,-1.4,2Z" class="g0_67"/>
<path d="M680.5,903.8c1.2,0,.9,1.9,.4,3.2c-.3,.8,-1.3,2.7,-2.4,2.7c-.5,0,-.7,-.3,-.7,-1c0,-.7,.3,-1.8,.5,-2.3c.3,-.6,.7,-1.6,1.1,-2.1c.3,-.3,.7,-.5,1.1,-.5Zm-2.2,6.2c1.7,0,2.8,-1.5,3.5,-2.6c.3,-.6,.6,-1.4,.6,-2.3c0,-1,-.5,-1.7,-1.5,-1.7c-1,0,-1.7,.6,-2,1.2h-.1l1.6,-5.6l-2.1,.1l-.1,.2c.7,0,.9,.3,.9,.6c0,.2,-.1,.5,-.2,.7l-1.5,5.7c-.2,.5,-.4,1,-.4,1.3c-.1,.4,-.2,.7,-.2,.9c0,.9,.6,1.5,1.5,1.5Z" class="g0_67"/>
<path d="M685.6,912.2c-.7,0,-1.2,-.7,-1.2,-1.4c0,-.6,.3,-1,.8,-1c-.1,-.3,-.4,-.4,-.7,-.4c-.2,0,-.3,0,-.5,.1c-.4,.1,-.7,.6,-.7,1.1c0,.3,.1,.5,.2,.7c.4,.7,1.1,1,2.2,1c.8,0,1.4,-.2,1.8,-.6c.4,-.3,.8,-.8,.8,-1.5c0,-.2,-.1,-.5,-.2,-.7c-.2,-.6,-.8,-1.1,-1.5,-1.3c.4,-.1,.8,-.4,1,-.7c.2,-.3,.4,-.7,.4,-1.1c0,-.3,0,-.5,-.1,-.8c-.4,-.6,-1.2,-1,-2.2,-1c-.6,0,-1.1,.1,-1.5,.4c-.3,.2,-.6,.5,-.6,1c0,.3,.1,.6,.3,.7c.1,.2,.4,.3,.7,.3c.2,0,.3,0,.5,-.1c.1,0,.2,-.1,.2,-.2c-.4,0,-.7,-.4,-.7,-.8c0,-.6,.5,-1.1,1.1,-1.1c.8,0,1.2,.7,1.2,1.6c0,.9,-.3,1.8,-1.1,1.8c-.2,-.1,-.4,-.2,-.6,-.2c-.2,0,-.5,.1,-.5,.3c0,.2,.3,.3,.5,.3c.3,0,.5,-.1,.7,-.2c.9,0,1.1,.8,1.1,1.8c0,1,-.4,2,-1.4,2Z" class="g0_67"/>
<path d="M691.5,907.6c-.6,0,-1,-.5,-1,-1.2c0,-.8,.4,-1.6,1.3,-1.6c1.2,0,1.3,1,1.3,1.9c0,.9,-.3,1.5,-.7,2.1c-.3,.4,-.7,.9,-1.1,1.4c-.5,.5,-1.1,1.1,-1.9,1.7v.3H694l.3,-2H694c0,.2,-.1,.4,-.2,.5c-.2,.4,-.5,.6,-1,.6h-2.1v-.1c.5,-.3,.9,-.7,1.4,-1c.7,-.7,1.5,-1.4,1.9,-2.3c.2,-.4,.3,-.8,.3,-1.2c0,-.3,-.1,-.6,-.2,-.8c-.3,-.8,-1.1,-1.3,-2.2,-1.3c-.7,0,-1.3,.2,-1.7,.6c-.4,.3,-.7,.8,-.7,1.4c0,.5,.1,.8,.4,1.1c.2,.2,.5,.4,.9,.4c.4,0,.7,-.2,.7,-.5Z" class="g0_67"/>
<path d="M696.5,915l.2,.6c2.1,-2.7,4.1,-8.6,4.1,-18.5c0,-9.8,-1.9,-14.6,-4.1,-17.8l-.2,.6c2.2,3.4,2.8,11.7,2.8,17.2c0,5.5,-.6,14.5,-2.8,17.9Z" class="g0_67"/>
</svg>