<?xml version="1.0" encoding="UTF-8" standalone="no"?>
<!DOCTYPE svg PUBLIC "-//W3C//DTD SVG 1.1//EN"
"http://www.w3.org/Graphics/SVG/1.1/DTD/svg11.dtd">
<svg viewBox="0 0 811 1017" version="1.1" xmlns="http://www.w3.org/2000/svg" xmlns:xlink="http://www.w3.org/1999/xlink">
<defs>
<style type="text/css"><![CDATA[
.g0_149{
fill: #0E0E0E;
}
]]></style>
</defs>
<path d="M650.1,641.8c0,-.5,-.4,-1,-1,-1c-.3,0,-.6,.2,-.9,.4c-.4,.2,-.7,.5,-.9,.9c0,-.7,-.4,-1.3,-1,-1.3c-1.2,0,-2.1,1.2,-2.5,2l.2,.1c.4,-.5,1.1,-1.7,2,-1.7c.3,0,.4,.6,.4,1c0,.3,-.1,.7,-.2,1.2l-.4,1.1c-.1,.6,-.4,1.4,-.7,1.8c-.1,.3,-.4,.7,-.8,.7c-.4,0,-.7,-.1,-.6,-.5c.1,-.3,0,-.8,-.4,-.8c-.5,0,-.6,.4,-.6,.8c0,.6,.4,.9,1,.9c1,0,1.8,-.7,2.1,-1.4h.1c.1,.8,.5,1.4,1.3,1.4c1.2,0,2,-1.1,2.5,-1.8l-.2,-.2c-.5,.7,-1.2,1.7,-2,1.7c-.4,0,-.6,-.6,-.6,-1.2c0,-.4,0,-.8,.1,-1.4l.2,-.7c.1,-.6,.4,-1.2,.6,-1.6c.2,-.3,.6,-1,1,-1c.4,0,.4,.3,.3,.7c0,.4,.2,.5,.5,.5c.4,0,.5,-.2,.5,-.6Z" class="g0_149"/>
<path d="M653.2,642.9c0,-.3,-.2,-.6,-.5,-.6c-.3,0,-.6,.3,-.6,.6c0,.3,.3,.5,.6,.5c.2,0,.5,-.3,.5,-.5Zm-2,6.7c.9,0,1.4,-.8,1.7,-1.4l-.2,-.1c-.1,.3,-.5,1.1,-1,1.1c-.1,0,-.2,-.2,-.2,-.3c0,-.2,.1,-.6,.2,-.8l.7,-2.1c.1,-.3,.2,-.4,.2,-.6c0,-.3,-.1,-.6,-.4,-.6c-.7,0,-1.5,.8,-1.7,1.4l.2,.1c.1,-.2,.5,-.8,.8,-.8c.1,0,.2,.1,.2,.2c0,.2,-.1,.5,-.2,.7l-.7,2c-.1,.3,-.1,.5,-.1,.7c0,.4,.1,.5,.5,.5Z" class="g0_149"/>
<path d="M656.9,645.1c.2,0,.4,.2,.4,.4c0,1,-1.2,1.7,-2.1,2c.2,-.8,.9,-2.4,1.7,-2.4Zm.1,-.3c-.8,0,-1.4,.6,-1.9,1.1c-.4,.6,-.8,1.4,-.8,2.3c0,.9,.3,1.4,1.2,1.4c.7,0,1.4,-.5,1.9,-1.2l-.2,-.1c-.3,.4,-.9,1.1,-1.5,1.1c-.4,0,-.6,-.4,-.6,-1c0,-.2,0,-.5,0,-.7c1.1,-.2,2.9,-.9,2.9,-2.1c0,-.5,-.4,-.8,-1,-.8Z" class="g0_149"/>
<path d="M663.9,645.4h7.6v-.8h-7.6Zm0,-3h7.6v-.8h-7.6Z" class="g0_149"/>
<path d="M683.3,634.9c0,-.4,-.3,-.7,-.7,-.7c-.2,0,-.4,.1,-.7,.2c-.2,.2,-.4,.4,-.6,.7c0,-.5,-.3,-.9,-.8,-.9c-.8,0,-1.5,.8,-1.7,1.4l.1,.1c.3,-.4,.8,-1.3,1.5,-1.3c.1,0,.2,.4,.2,.8c0,.2,0,.4,-.1,.8l-.3,.9c-.1,.4,-.3,1,-.5,1.2c-.1,.2,-.3,.5,-.6,.5c-.3,0,-.5,0,-.4,-.3c0,-.2,0,-.6,-.3,-.6c-.3,0,-.5,.3,-.5,.6c0,.4,.4,.7,.8,.7c.7,0,1.3,-.6,1.5,-1.1h.1c0,.6,.3,1.1,.9,1.1c.9,0,1.5,-.9,1.8,-1.3l-.1,-.2c-.4,.5,-.9,1.2,-1.5,1.2c-.3,0,-.4,-.4,-.4,-.9c0,-.2,0,-.5,.1,-.9l.1,-.6c.1,-.4,.3,-.9,.5,-1.2c.1,-.2,.4,-.6,.7,-.6c.3,0,.3,.2,.2,.4c0,.3,.1,.4,.4,.4c.2,0,.3,-.2,.3,-.4Z" class="g0_149"/>
<path d="M685.7,635.5c0,-.2,-.2,-.4,-.4,-.4c-.2,0,-.4,.2,-.4,.4c0,.3,.2,.4,.4,.4c.2,0,.4,-.2,.4,-.4Zm-1.5,5.1c.7,0,1.1,-.6,1.3,-1l-.2,-.1c-.1,.2,-.4,.8,-.7,.8c-.1,0,-.2,-.2,-.2,-.2c0,-.2,.1,-.5,.1,-.6l.6,-1.6c.1,-.2,.1,-.3,.1,-.4c0,-.3,0,-.5,-.3,-.5c-.5,0,-1.1,.6,-1.3,1l.2,.1c.1,-.1,.4,-.6,.6,-.6c.1,0,.1,.1,.1,.2c.1,.1,0,.3,-.1,.5l-.5,1.5c-.1,.2,-.1,.4,-.1,.5c0,.3,.1,.4,.4,.4Z" class="g0_149"/>
<path d="M689.3,638.2c0,.5,-.3,1.1,-.5,1.4c-.4,.3,-.8,.6,-1.3,.7l.8,-3c0,-.1,.1,-.1,.1,-.1c.1,0,.2,0,.2,0c.5,0,.7,.5,.7,1Zm-1.6,-.7l-1.2,4.3c-.1,.3,-.3,.3,-.7,.3v.1h1.9v-.1c-.3,0,-.6,0,-.6,-.3c0,0,0,-.1,0,-.1q0,-.1,0,-.2l.3,-1c.7,-.1,1.3,-.4,1.8,-.8c.3,-.4,.7,-.9,.7,-1.5c0,-.8,-.4,-1.2,-1.2,-1.2c-.1,0,-.2,0,-.4,.1l.3,-.9H688l-.2,1c-.3,.1,-.5,.3,-.7,.4c-.2,.2,-.4,.3,-.5,.5l.1,.1c.3,-.2,.6,-.6,1,-.7Z" class="g0_149"/>
<path d="M678.1,643.9h13v-.8h-13Z" class="g0_149"/>
<path d="M682.5,650.6c0,-.2,-.1,-.6,-.1,-.7c0,-.2,0,-.4,0,-.6c.1,-.3,.3,-1.1,.6,-1.1c.1,0,.1,.4,.1,.6c0,.7,-.4,1.4,-.6,1.8Zm-2,-2.1c0,0,-1.3,1.6,-1.3,2.9c0,.6,.4,1.2,1.1,1.2c.7,0,1.2,-.5,1.6,-1c.2,.5,.5,1,1.1,1c1.6,0,2.5,-3,2.5,-4c.1,-.5,0,-.9,-.5,-.9c-.3,0,-.4,.2,-.4,.5c0,.5,.3,.9,.3,1.5c0,.8,-.8,2.5,-1.7,2.5c-.4,0,-.6,-.8,-.7,-1.3c.3,-.4,.6,-.9,.8,-1.3c.2,-.5,.3,-.8,.3,-1.1c0,-.4,-.2,-.8,-.5,-.8c-.2,0,-.4,.1,-.5,.3c-.5,.4,-.8,1.3,-.8,2.3c0,.1,0,.2,0,.3c0,.2,.1,.6,.1,.7c-.2,.3,-.5,.6,-.7,.7c-.2,.2,-.4,.2,-.6,.2c-.4,0,-.5,-.4,-.5,-.9c0,-1.3,.4,-2.2,.9,-3c.1,-.2,.3,-.4,.3,-.5c0,0,0,-.1,-.1,-.1c0,0,-.1,.1,-.2,.1c0,0,-.1,.1,-.2,.2c-.1,.1,-.2,.2,-.3,.2c-.2,0,-.3,-.1,-.4,-.2c-.2,-.2,-.3,-.3,-.6,-.3c-.4,0,-.9,.5,-.9,.9c0,.3,.2,.3,.4,.3c.2,0,.3,-.1,.3,-.3c0,-.2,-.2,-.2,-.2,-.3c0,-.1,.1,-.1,.2,-.1c.3,0,.4,.2,.6,.3c.1,.1,.2,.1,.4,0h.2Z" class="g0_149"/>
<path d="M688.8,651.7c0,.5,-.3,1.1,-.6,1.4c-.3,.3,-.8,.6,-1.3,.7l.8,-3q.1,0,.2,0q.1,0,.2,0c.5,0,.7,.5,.7,.9Zm-1.7,-.7l-1.2,4.3c0,.3,-.2,.3,-.6,.3v.2h1.9v-.2c-.4,0,-.7,0,-.7,-.3v-.1c.1,0,.1,-.1,.1,-.1l.3,-1.1c.7,-.1,1.3,-.4,1.7,-.8c.4,-.3,.8,-.8,.8,-1.5c0,-.7,-.5,-1.2,-1.2,-1.2c-.2,0,-.3,.1,-.4,.1l.2,-.9h-.5l-.3,1c-.2,.1,-.4,.3,-.6,.4c-.2,.2,-.4,.3,-.6,.5l.2,.2c.2,-.3,.6,-.6,.9,-.8Z" class="g0_149"/>
</svg>