<?xml version="1.0" encoding="UTF-8" standalone="no"?>
<!DOCTYPE svg PUBLIC "-//W3C//DTD SVG 1.1//EN"
"http://www.w3.org/Graphics/SVG/1.1/DTD/svg11.dtd">
<svg viewBox="0 0 811 1017" version="1.1" xmlns="http://www.w3.org/2000/svg" xmlns:xlink="http://www.w3.org/1999/xlink">
<defs>
<style type="text/css"><![CDATA[
.g0_300{
fill: #0E0E0E;
}
.g1_300{
fill: #000;
}
]]></style>
</defs>
<path d="M289.9,154.4v-3c.8,0,1.2,.1,1.6,.4c.5,.2,.8,.8,.9,1.4h.2v-3.9h-.2c-.1,.3,-.2,.6,-.3,.8c-.3,.8,-1.1,1,-2.2,1v-4.5q0,-.2,.2,-.2h1.7c.8,0,1.6,.2,2.1,.5c.5,.4,.7,1,.8,1.7h.3l-.1,-2.5h-7.8v.2c.5,0,.9,.1,1.1,.4c.2,.2,.3,.7,.3,1.2v6.6c0,.5,-.1,1,-.3,1.2c-.3,.3,-.7,.4,-1.2,.5v.2h4.7v-.2c-.6,-.1,-1.2,-.2,-1.5,-.5c-.3,-.2,-.3,-.7,-.3,-1.3Z" class="g0_300"/>
<path d="M298.9,150.2c1.3,0,2,1.6,2,3c0,1.7,-.8,3,-2,3c-1.6,0,-2,-1.6,-2,-3c0,-1.4,.7,-3,2,-3Zm0,-.3c-.5,0,-.9,.1,-1.3,.2c-1.1,.5,-2.1,1.5,-2.1,3.1c0,.4,.1,.9,.3,1.3c.5,1.1,1.2,2,3.1,2c1.1,0,1.8,-.4,2.4,-.9c.5,-.6,1,-1.4,1,-2.4c0,-.5,-.1,-.9,-.3,-1.3c-.5,-1.1,-1.6,-2,-3.1,-2Z" class="g0_300"/>
<path d="M308.5,150.6c0,-.5,-.3,-.7,-.8,-.7c-.2,0,-.4,0,-.6,.1c-.7,.3,-1.2,.8,-1.5,1.5l-.2,-1.5l-2.1,.5v.2c.2,0,.5,.1,.6,.2c.3,.3,.4,.5,.4,1c0,.3,0,.7,0,1.3v1.6c0,.3,0,.5,0,.7c-.1,.6,-.3,.7,-1,.7v.2h3.2v-.2c-.2,0,-.4,0,-.5,-.1c-.5,-.2,-.5,-.7,-.5,-1.4v-.9c0,-1.2,.2,-2.1,.7,-2.7c.2,-.3,.4,-.5,.7,-.5c.5,0,.5,.6,.9,.6c.4,0,.7,-.2,.7,-.6Z" class="g0_300"/>
<path d="M314.3,156.5c1.2,0,1.8,-.6,2.1,-1.3h.1c0,.8,.3,1.3,1,1.3c.7,0,1.1,-.3,1.4,-.7l-.1,-.1c-.1,.2,-.5,.4,-.7,.4c-.4,0,-.5,-.4,-.5,-1.3v-3c0,-1.5,-.7,-1.9,-2.2,-1.9c-1.3,0,-2.5,.7,-2.5,1.2c0,.4,.1,.6,.5,.6c.4,0,.6,-.2,.7,-.6c.1,-.2,.2,-.4,.3,-.6c.1,-.1,.4,-.3,.8,-.3c1.2,0,1.2,.7,1.2,1.6v.5l-1.7,.8c-.6,.3,-1.1,.5,-1.5,.9c-.3,.3,-.5,.6,-.5,1.1c0,.9,.7,1.4,1.6,1.4Zm-.4,-1.6c0,-.5,.3,-.9,.6,-1.2c.5,-.4,1.1,-.7,1.9,-1.1v1.6c0,.6,-.2,1,-.4,1.3c-.3,.3,-.7,.6,-1.2,.6c-.5,0,-.9,-.7,-.9,-1.2Z" class="g0_300"/>
<path d="M321.4,154.8v-9.3l-2.3,.4v.2c.2,0,.5,.1,.8,.4c.3,.2,.4,.3,.4,1.9v6.5c0,.2,0,.4,-.1,.6c-.1,.6,-.4,.7,-1.1,.7v.2h3.4v-.2c-.3,0,-.5,0,-.6,-.1c-.5,-.1,-.5,-.6,-.5,-1.3Z" class="g0_300"/>
<path d="M325.3,154.8v-9.3l-2.3,.4v.2c.2,0,.6,.1,.8,.4c.3,.2,.4,.3,.4,1.9v6.5c0,.2,0,.4,-.1,.6c-.1,.6,-.4,.7,-1,.7v.2h3.3v-.2c-.3,0,-.5,0,-.6,-.1c-.5,-.1,-.5,-.6,-.5,-1.3Z" class="g0_300"/>
<path d="M334.9,150.2c1.3,0,1.9,1.7,1.9,3.1c0,1.3,-.7,2.9,-1.9,2.9c-.9,0,-1.7,-.8,-1.7,-1.5c0,-.1,-.1,-.3,-.1,-.5v-1.8c0,-.3,.1,-.6,.1,-.8c.2,-.6,.7,-1.4,1.7,-1.4Zm.1,6.3c1,0,1.7,-.4,2.2,-.9c.5,-.6,.9,-1.3,.9,-2.4c0,-1,-.3,-1.8,-.9,-2.4c-.5,-.5,-1.2,-.9,-2.2,-.9c-.9,0,-1.4,.5,-1.9,1v-1l-2.3,.5v.2c.7,0,1,.2,1.1,.7c0,.1,0,.3,0,.6c.1,.3,.1,.7,.1,1.2v4.7c0,.5,-.1,.8,-.3,1.1c-.1,.2,-.5,.3,-.9,.3v.2h3.7v-.2c-.3,0,-.5,0,-.7,-.1c-.6,-.1,-.7,-.6,-.7,-1.4v-2c.5,.5,1,.8,1.9,.8Z" class="g0_300"/>
<path d="M342.6,150.2c1.4,0,2.1,1.6,2,3c0,1.7,-.8,3,-2,3c-1.6,0,-1.9,-1.6,-1.9,-3c0,-1.4,.6,-3,1.9,-3Zm0,-.3c-.4,0,-.8,.1,-1.3,.2c-1.1,.5,-2,1.5,-2,3.1c0,.4,.1,.9,.3,1.3c.5,1.1,1.2,2,3,2c1.2,0,1.9,-.4,2.4,-.9c.6,-.6,1,-1.4,1,-2.4c0,-.5,-.1,-.9,-.3,-1.3c-.5,-1.1,-1.5,-2,-3.1,-2Z" class="g0_300"/>
<path d="M348.7,148.2c.4,0,.8,-.3,.8,-.7c0,-.4,-.4,-.8,-.8,-.8c-.4,0,-.7,.4,-.7,.8c0,.4,.3,.7,.7,.7Zm.6,6.5v-4.8l-2.3,.5v.2c.4,0,.6,.1,.8,.3c.3,.3,.4,.6,.4,2.1v1.8c0,.3,0,.5,-.1,.7c-.1,.6,-.4,.7,-1.1,.7v.2h3.5v-.2c-.3,0,-.5,0,-.6,-.1c-.5,-.1,-.6,-.7,-.6,-1.4Z" class="g0_300"/>
<path d="M353.2,151.1v0l-.2,-1.2l-1.9,.5v.2c.2,0,.5,0,.7,.2c.3,.3,.4,.5,.4,2v2c0,.3,0,.6,-.1,.8c0,.5,-.4,.6,-1,.6v.2h3.2v-.2c-.2,0,-.4,0,-.6,-.1c-.5,-.1,-.4,-.7,-.4,-1.4v-2c0,-.6,0,-1,.2,-1.3c.3,-.6,1,-1.2,1.8,-1.2c1.3,0,1.3,1.5,1.3,2.8v1.8c0,.3,0,.6,-.1,.8c0,.5,-.3,.6,-.9,.6v.2h3.1v-.2c-.2,0,-.4,0,-.5,-.1c-.6,-.1,-.5,-.7,-.5,-1.4v-2.2c0,-.9,0,-1.5,-.4,-1.9c-.3,-.4,-.9,-.7,-1.7,-.7c-1.1,0,-1.8,.6,-2.4,1.2Z" class="g0_300"/>
<path d="M361.8,156.5c.8,0,1.2,-.2,1.6,-.9l-.2,-.2c-.2,.4,-.5,.8,-1,.8c-.8,0,-.8,-.5,-.8,-1.8v-4.1H363V150h-1.6v-1.9h-.2c-.3,.8,-1,1.6,-1.8,2v.2h.8V155c0,1,.6,1.5,1.6,1.5Z" class="g0_300"/>
<path d="M366.2,150.2c.8,0,1.2,.8,1.5,1.6h.2V150h-.2l-.3,.3c-.2,-.1,-.4,-.2,-.6,-.3c-.2,-.1,-.5,-.1,-.7,-.1c-.5,0,-1,.2,-1.3,.5c-.3,.3,-.5,.8,-.5,1.4c0,.7,.5,1.1,.9,1.4c.6,.5,2.1,1.1,2.1,1.9c0,.6,-.2,1.1,-1,1.1c-.9,0,-1.5,-.8,-1.8,-1.9h-.2v2.1h.2l.2,-.4c.5,.3,1.1,.5,1.7,.5c.6,0,1.1,-.2,1.5,-.5c.3,-.3,.5,-.8,.5,-1.3c0,-1,-1.1,-1.6,-1.9,-2.1c-.5,-.4,-1.2,-.6,-1.2,-1.4c0,-.5,.3,-1,.9,-1Z" class="g0_300"/>
<path d="M378,145.7c-2.2,1.4,-3.7,3.8,-3.7,6.9c0,2.7,1.6,5.5,3.6,6.8l.2,-.3c-1.9,-1.5,-2.5,-3.3,-2.5,-6.6c0,-3.3,.6,-5,2.5,-6.5l-.1,-.3Z" class="g0_300"/>
<path d="M386.4,150.9c0,-.6,-.5,-1,-1,-1c-.3,0,-.7,.1,-1,.3c-.3,.3,-.6,.6,-.8,.9c0,-.6,-.4,-1.2,-1.1,-1.2c-1.1,0,-2.1,1.2,-2.4,2l.2,.1c.3,-.5,1.1,-1.7,2,-1.7c.2,0,.3,.5,.3,1c0,.3,0,.6,-.2,1.1l-.3,1.2c-.2,.6,-.4,1.4,-.7,1.8c-.2,.2,-.4,.6,-.8,.6c-.4,0,-.7,0,-.6,-.4c0,-.4,0,-.8,-.4,-.8c-.5,0,-.7,.3,-.7,.8c0,.5,.5,.9,1.1,.9c1,0,1.7,-.8,2.1,-1.4c.1,.8,.5,1.4,1.4,1.4c1.2,0,2,-1.1,2.4,-1.8l-.2,-.2c-.5,.6,-1.1,1.6,-1.9,1.6c-.5,0,-.7,-.6,-.7,-1.2c0,-.3,.1,-.8,.2,-1.3l.2,-.7c.1,-.6,.3,-1.3,.6,-1.7c.2,-.2,.6,-.9,.9,-.9c.5,0,.4,.3,.4,.6c0,.4,.1,.6,.5,.6c.3,0,.5,-.3,.5,-.6Z" class="g0_300"/>
<path d="M388.6,155.6c0,.4,.2,.8,.7,.8c.1,0,.3,0,.4,-.1c0,.4,-.1,.7,-.3,1c-.2,.3,-.6,.7,-1.1,1l.4,.4c.3,-.2,.6,-.4,.8,-.7c.5,-.4,1,-.9,1,-1.9c0,-.9,-.4,-1.3,-1,-1.3c-.5,0,-.9,.3,-.9,.8Z" class="g0_300"/>
<path d="M394,158.6c0,.5,.5,.9,1.1,.9c.4,0,.8,-.2,1.3,-.6c.8,-.7,2.1,-2.2,2.8,-3.4c.4,-.6,.7,-1.2,1,-1.8c.4,-.8,1.2,-2.1,1.2,-2.9c0,-.3,-.1,-.4,-.2,-.6c-.1,-.2,-.3,-.3,-.5,-.3c-.1,0,-.3,.1,-.4,.2c-.1,.1,-.2,.4,-.2,.7c0,.4,.2,.9,.2,1.3c0,.6,-.2,1.1,-.4,1.6c-.3,.5,-.5,.8,-.8,1.4H399l-.4,-1.9c-.1,-.6,-.3,-1.7,-.4,-2.1c-.2,-.7,-.3,-1.2,-1.3,-1.2c-1.2,0,-1.4,1.8,-1.6,2.5l.3,.2c.1,-.6,.6,-2.4,1,-2.4c.4,0,.5,1.1,.6,1.3c.1,.3,.1,.7,.2,1.4l.6,3.5c-.3,.8,-1.1,1.6,-1.7,2.1c-.3,.2,-.6,.3,-.8,.3c-.1,0,-.1,-.1,-.2,-.2c-.2,-.2,-.2,-.7,-.7,-.7c-.4,0,-.6,.3,-.6,.7Z" class="g0_300"/>
<path d="M403.6,155.6c0,.4,.3,.8,.7,.8c.2,0,.3,0,.4,-.1c0,.4,-.1,.7,-.3,1c-.2,.3,-.6,.7,-1,1l.3,.4c.3,-.2,.6,-.4,.8,-.7c.6,-.4,1,-.9,1,-1.9c0,-.9,-.3,-1.3,-1,-1.3c-.5,0,-.9,.3,-.9,.8Z" class="g0_300"/>
<path d="M411.9,152.3c.3,0,.4,-.2,.4,-.4c0,-.5,-.5,-.4,-.7,-.8c-.1,-.2,.1,-.3,.4,-.3c.9,0,1.4,.9,2.6,.9l-3.4,3.2c-.4,.3,-.7,.8,-.7,1.1c0,.3,.1,.4,.2,.4c.8,0,.3,-.8,1,-.8c.9,0,1.4,.9,2.5,.9c1.2,0,1.6,-1.2,1.8,-2.2h-.2c-.3,.6,-.6,1.2,-1.2,1.2c-.9,0,-1.7,-.8,-2.6,-.8c1.3,-1.3,2.5,-2.4,3.8,-3.7c.1,-.2,.3,-.3,.3,-.6c0,-.3,0,-.4,-.2,-.4c-.3,0,-.4,.2,-.5,.4c-.1,.2,-.3,.4,-.6,.4c-.9,0,-1.5,-.9,-2.5,-.9c-.7,0,-1.4,.5,-1.4,1.4c0,.6,.4,1,1,1Z" class="g0_300"/>
<path d="M417.6,145.7l-.1,.3c1.9,1.5,2.5,3.2,2.5,6.5c0,3.3,-.6,5.1,-2.5,6.6l.2,.3c2,-1.3,3.6,-4.1,3.6,-6.8c0,-3.1,-1.5,-5.5,-3.7,-6.9Z" class="g0_300"/>
<path d="M424.3,155.6c0,.4,.2,.8,.6,.8c.2,0,.3,0,.4,-.1c0,.4,0,.7,-.2,1c-.3,.3,-.6,.7,-1.1,1l.3,.4c.4,-.2,.6,-.4,.9,-.7c.5,-.4,.9,-.9,.9,-1.9c0,-.9,-.3,-1.3,-.9,-1.3c-.6,0,-.9,.3,-.9,.8Z" class="g0_300"/>
<path d="M435.8,145.7c-2.1,1.4,-3.6,3.8,-3.6,6.9c0,2.7,1.5,5.5,3.6,6.8l.2,-.3c-2,-1.5,-2.6,-3.3,-2.6,-6.6c0,-3.3,.7,-5,2.6,-6.5l-.2,-.3Z" class="g0_300"/>
<path d="M444.2,150.9c0,-.6,-.4,-1,-1,-1c-.3,0,-.6,.1,-.9,.3c-.3,.3,-.7,.6,-.9,.9c0,-.6,-.4,-1.2,-1,-1.2c-1.2,0,-2.1,1.2,-2.5,2l.2,.1c.4,-.5,1.1,-1.7,2,-1.7c.3,0,.4,.5,.4,1c0,.3,-.1,.6,-.2,1.1l-.4,1.2c-.1,.6,-.4,1.4,-.7,1.8c-.1,.2,-.4,.6,-.8,.6c-.4,0,-.7,0,-.6,-.4c.1,-.4,0,-.8,-.4,-.8c-.4,0,-.6,.3,-.6,.8c0,.5,.5,.9,1,.9c1,0,1.8,-.8,2.2,-1.4c.1,.8,.5,1.4,1.3,1.4c1.2,0,2.1,-1.1,2.5,-1.8l-.2,-.2c-.5,.6,-1.2,1.6,-2,1.6c-.4,0,-.6,-.6,-.6,-1.2c0,-.3,0,-.8,.2,-1.3l.1,-.7c.1,-.6,.4,-1.3,.7,-1.7c.1,-.2,.5,-.9,.9,-.9c.4,0,.4,.3,.3,.6c0,.4,.2,.6,.5,.6c.4,0,.5,-.3,.5,-.6Z" class="g0_300"/>
<path d="M446.4,155.6c0,.4,.3,.8,.7,.8c.2,0,.3,0,.4,-.1c0,.4,-.1,.7,-.3,1c-.2,.3,-.5,.7,-1,1l.3,.4c.3,-.2,.6,-.4,.8,-.7c.6,-.4,1,-.9,1,-1.9c0,-.9,-.3,-1.3,-1,-1.3c-.5,0,-.9,.3,-.9,.8Z" class="g0_300"/>
<path d="M451.8,158.6c0,.5,.5,.9,1.1,.9c.5,0,.8,-.2,1.3,-.6c.9,-.7,2.1,-2.2,2.8,-3.4c.4,-.6,.8,-1.2,1.1,-1.8c.4,-.8,1.1,-2.1,1.1,-2.9c0,-.3,-.1,-.4,-.1,-.6c-.1,-.2,-.3,-.3,-.5,-.3c-.2,0,-.3,.1,-.5,.2c-.1,.1,-.2,.4,-.2,.7c0,.4,.3,.9,.3,1.3c0,.6,-.3,1.1,-.5,1.6c-.2,.5,-.5,.8,-.8,1.4h-.1l-.3,-1.9c-.1,-.6,-.3,-1.7,-.4,-2.1c-.2,-.7,-.4,-1.2,-1.4,-1.2c-1.1,0,-1.3,1.8,-1.6,2.5l.4,.2c.1,-.6,.5,-2.4,1,-2.4c.3,0,.5,1.1,.5,1.3c.1,.3,.2,.7,.3,1.4l.6,3.5c-.4,.8,-1.2,1.6,-1.8,2.1c-.2,.2,-.5,.3,-.7,.3c-.1,0,-.2,-.1,-.2,-.2c-.3,-.2,-.3,-.7,-.7,-.7c-.4,0,-.7,.3,-.7,.7Z" class="g0_300"/>
<path d="M461.5,155.6c0,.4,.2,.8,.7,.8c.1,0,.2,0,.4,-.1c0,.4,-.1,.7,-.3,1c-.2,.3,-.6,.7,-1.1,1l.3,.4c.4,-.2,.7,-.4,.9,-.7c.5,-.4,.9,-.9,.9,-1.9c0,-.9,-.3,-1.3,-.9,-1.3c-.6,0,-.9,.3,-.9,.8Z" class="g0_300"/>
<path d="M469.7,152.3c.3,0,.5,-.2,.5,-.4c0,-.5,-.6,-.4,-.7,-.8c-.1,-.2,.1,-.3,.3,-.3c.9,0,1.4,.9,2.6,.9l-3.4,3.2c-.4,.3,-.7,.8,-.7,1.1c0,.3,.2,.4,.3,.4c.7,0,.2,-.8,.9,-.8c.9,0,1.5,.9,2.6,.9c1.1,0,1.6,-1.2,1.8,-2.2h-.3c-.2,.6,-.5,1.2,-1.2,1.2c-.9,0,-1.7,-.8,-2.6,-.8c1.4,-1.3,2.5,-2.4,3.8,-3.7c.2,-.2,.4,-.3,.4,-.6c0,-.3,-.1,-.4,-.3,-.4c-.2,0,-.3,.2,-.4,.4c-.1,.2,-.4,.4,-.7,.4c-.8,0,-1.4,-.9,-2.5,-.9c-.7,0,-1.3,.5,-1.3,1.4c0,.6,.3,1,.9,1Z" class="g0_300"/>
<path d="M475.5,145.7l-.2,.3c1.9,1.5,2.6,3.2,2.6,6.5c0,3.3,-.6,5.1,-2.6,6.6l.2,.3c2.1,-1.3,3.6,-4.1,3.6,-6.8c0,-3.1,-1.5,-5.5,-3.6,-6.9Z" class="g0_300"/>
<path d="M493.3,154.5v-.9h-3.8l.8,-2.1h3v-.9h-2.6l1,-2.6h-.8l-1.1,2.6h-4.1v.9h3.8l-.9,2.2h-2.9v.8h2.6l-1.1,2.7h.9l1,-2.7h4.2Z" class="g0_300"/>
<path d="M503.5,145.7c-2.1,1.4,-3.7,3.8,-3.7,6.9c0,2.7,1.6,5.5,3.7,6.8l.1,-.3c-1.9,-1.5,-2.5,-3.3,-2.5,-6.6c0,-3.3,.6,-5,2.5,-6.5l-.1,-.3Z" class="g0_300"/>
<path d="M511.9,150.9c0,-.6,-.5,-1,-1,-1c-.3,0,-.6,.1,-1,.3c-.3,.3,-.6,.6,-.8,.9c0,-.6,-.4,-1.2,-1.1,-1.2c-1.1,0,-2.1,1.2,-2.4,2l.2,.1c.4,-.5,1.1,-1.7,2,-1.7c.3,0,.4,.5,.4,1c0,.3,-.1,.6,-.2,1.1l-.4,1.2c-.1,.6,-.4,1.4,-.7,1.8c-.2,.2,-.4,.6,-.8,.6c-.4,0,-.7,0,-.6,-.4c.1,-.4,0,-.8,-.4,-.8c-.5,0,-.6,.3,-.6,.8c0,.5,.4,.9,1,.9c1,0,1.8,-.8,2.1,-1.4h.1c.1,.8,.5,1.4,1.3,1.4c1.2,0,2,-1.1,2.5,-1.8l-.2,-.2c-.5,.6,-1.2,1.6,-2,1.6c-.4,0,-.7,-.6,-.7,-1.2c0,-.3,.1,-.8,.2,-1.3l.2,-.7c.1,-.6,.4,-1.3,.6,-1.7c.2,-.2,.6,-.9,1,-.9c.4,0,.4,.3,.3,.6c0,.4,.2,.6,.5,.6c.4,0,.5,-.3,.5,-.6Z" class="g0_300"/>
<path d="M515,151.9c0,-.3,-.2,-.5,-.5,-.5c-.3,0,-.6,.2,-.6,.5c0,.3,.3,.6,.6,.6c.2,0,.5,-.3,.5,-.6Zm-2,6.8c.9,0,1.4,-.8,1.7,-1.4l-.2,-.1c-.1,.2,-.5,1,-1,1c-.1,0,-.2,-.1,-.2,-.3c0,-.2,.1,-.6,.2,-.8l.7,-2c.1,-.3,.1,-.5,.1,-.6c0,-.4,0,-.6,-.3,-.6c-.7,0,-1.5,.8,-1.8,1.3l.3,.1c.1,-.2,.5,-.8,.8,-.8c.1,0,.2,.2,.2,.3c0,.1,-.1,.4,-.2,.6l-.7,2.1c-.1,.3,-.1,.5,-.1,.6c0,.4,.1,.6,.5,.6Z" class="g0_300"/>
<path d="M518,155.6c0,.4,.3,.8,.7,.8c.2,0,.3,0,.4,-.1c0,.4,-.1,.7,-.3,1c-.2,.3,-.5,.7,-1,1l.3,.4c.3,-.2,.6,-.4,.9,-.7c.5,-.4,.9,-.9,.9,-1.9c0,-.9,-.3,-1.3,-1,-1.3c-.5,0,-.9,.3,-.9,.8Z" class="g0_300"/>
<path d="M523.4,158.6c0,.5,.5,.9,1.1,.9c.5,0,.8,-.2,1.3,-.6c.9,-.7,2.1,-2.2,2.8,-3.4c.4,-.6,.8,-1.2,1.1,-1.8c.4,-.8,1.1,-2.1,1.1,-2.9c0,-.3,-.1,-.4,-.1,-.6c-.1,-.2,-.3,-.3,-.5,-.3c-.2,0,-.3,.1,-.5,.2c-.1,.1,-.2,.4,-.2,.7c0,.4,.3,.9,.3,1.3c0,.6,-.3,1.1,-.5,1.6c-.2,.5,-.5,.8,-.8,1.4h-.1l-.3,-1.9c-.1,-.6,-.3,-1.7,-.4,-2.1c-.2,-.7,-.4,-1.2,-1.4,-1.2c-1.1,0,-1.3,1.8,-1.6,2.5l.4,.2c.1,-.6,.5,-2.4,1,-2.4c.3,0,.5,1.1,.5,1.3c.1,.3,.2,.7,.3,1.4l.6,3.5c-.4,.8,-1.2,1.6,-1.8,2.1c-.2,.2,-.5,.3,-.7,.3c-.1,0,-.2,-.1,-.2,-.2c-.3,-.2,-.3,-.7,-.7,-.7c-.4,0,-.7,.3,-.7,.7Z" class="g0_300"/>
<path d="M534,151.9c0,-.3,-.3,-.5,-.6,-.5c-.3,0,-.5,.2,-.5,.5c0,.3,.2,.6,.5,.6c.3,0,.6,-.3,.6,-.6Zm-2.1,6.8c1,0,1.5,-.8,1.8,-1.4l-.2,-.1c-.2,.2,-.6,1,-1,1c-.1,0,-.3,-.1,-.3,-.3c0,-.2,.2,-.6,.2,-.8l.8,-2c.1,-.3,.1,-.5,.1,-.6c0,-.4,0,-.6,-.4,-.6c-.6,0,-1.5,.8,-1.7,1.3l.2,.1c.2,-.2,.6,-.8,.8,-.8c.2,0,.2,.2,.2,.3c.1,.1,0,.4,-.1,.6l-.7,2.1c-.1,.3,-.2,.5,-.2,.6c0,.4,.2,.6,.5,.6Z" class="g0_300"/>
<path d="M537,155.6c0,.4,.3,.8,.7,.8c.1,0,.3,0,.4,-.1c0,.4,-.1,.7,-.3,1c-.2,.3,-.6,.7,-1,1l.3,.4c.3,-.2,.6,-.4,.8,-.7c.5,-.4,1,-.9,1,-1.9c0,-.9,-.4,-1.3,-1,-1.3c-.5,0,-.9,.3,-.9,.8Z" class="g0_300"/>
<path d="M545.2,152.3c.3,0,.5,-.2,.5,-.4c0,-.5,-.5,-.4,-.7,-.8c-.1,-.2,.1,-.3,.4,-.3c.8,0,1.3,.9,2.5,.9l-3.4,3.2c-.3,.3,-.7,.8,-.7,1.1c0,.3,.2,.4,.3,.4c.7,0,.2,-.8,.9,-.8c1,0,1.5,.9,2.6,.9c1.2,0,1.6,-1.2,1.8,-2.2h-.3c-.2,.6,-.5,1.2,-1.2,1.2c-.9,0,-1.7,-.8,-2.6,-.8c1.4,-1.3,2.5,-2.4,3.8,-3.7c.2,-.2,.4,-.3,.4,-.6c0,-.3,-.1,-.4,-.2,-.4c-.3,0,-.4,.2,-.5,.4c-.1,.2,-.3,.4,-.6,.4c-.9,0,-1.5,-.9,-2.6,-.9c-.6,0,-1.3,.5,-1.3,1.4c0,.6,.4,1,.9,1Z" class="g0_300"/>
<path d="M553,151.9c0,-.3,-.3,-.5,-.6,-.5c-.3,0,-.5,.2,-.5,.5c0,.3,.2,.6,.5,.6c.3,0,.6,-.3,.6,-.6Zm-2.1,6.8c1,0,1.5,-.8,1.8,-1.4l-.2,-.1c-.2,.2,-.6,1,-1,1c-.1,0,-.3,-.1,-.3,-.3c0,-.2,.2,-.6,.2,-.8l.8,-2c.1,-.3,.1,-.5,.1,-.6c0,-.4,0,-.6,-.4,-.6c-.6,0,-1.5,.8,-1.7,1.3l.2,.1c.2,-.2,.6,-.8,.8,-.8c.2,0,.2,.2,.2,.3c.1,.1,0,.4,-.1,.6l-.7,2.1c-.1,.3,-.2,.5,-.2,.6c0,.4,.2,.6,.5,.6Z" class="g0_300"/>
<path d="M555.1,145.7l-.2,.3c2,1.5,2.6,3.2,2.6,6.5c0,3.3,-.6,5.1,-2.6,6.6l.2,.3c2.1,-1.3,3.6,-4.1,3.6,-6.8c0,-3.1,-1.5,-5.5,-3.6,-6.9Z" class="g0_300"/>
<path d="M566.3,152.1c.5,0,.9,-.3,.9,-.8c0,-.5,-.4,-.9,-.9,-.9c-.5,0,-.9,.4,-.9,.9c0,.4,.4,.8,.9,.8Zm0,4.4c.5,0,.9,-.4,.9,-.9c0,-.5,-.4,-.8,-.9,-.8c-.5,0,-.9,.3,-.9,.8c0,.5,.4,.9,.9,.9Z" class="g0_300"/>
<path d="M281.5,192.9v.2h4.7v-.2c-.6,0,-1,-.1,-1.2,-.3c-.3,-.2,-.4,-.4,-.4,-.7c0,-.2,0,-.5,.1,-.8l.9,-3.2h1.1c1,0,1.1,1.1,1,2.2h.3l.9,-4.2h-.3c-.4,.8,-.8,1.6,-2,1.6h-.9l1.1,-4.4h1.8c.3,0,.5,0,.7,.1c.9,.4,1.5,1.3,1.7,2.3h.3v-2.7H284l-.1,.2c.5,0,.8,.1,1,.3c.2,.1,.3,.3,.3,.6c0,.1,0,.3,0,.5c-.1,.1,-.1,.3,-.2,.6l-1.6,6.1c-.1,.4,-.2,.6,-.3,.8c-.1,.4,-.5,.7,-.8,.9c-.2,.1,-.5,.1,-.8,.1Z" class="g0_300"/>
<path d="M297.4,182.5c-2.2,1.4,-3.7,3.8,-3.7,6.8c0,2.8,1.6,5.6,3.6,6.8l.2,-.2c-2,-1.5,-2.5,-3.3,-2.5,-6.6c0,-3.3,.6,-5,2.5,-6.6l-.1,-.2Z" class="g0_300"/>
<path d="M305.7,187.6c0,-.5,-.4,-.9,-1,-.9c-.3,0,-.6,.1,-.9,.3c-.3,.2,-.6,.5,-.9,.9c0,-.7,-.4,-1.2,-1,-1.2c-1.2,0,-2.1,1.1,-2.5,1.9l.2,.1c.4,-.5,1.1,-1.7,2,-1.7c.3,0,.4,.6,.4,1c0,.3,0,.7,-.2,1.2l-.3,1.1c-.2,.6,-.4,1.4,-.8,1.8c-.1,.3,-.4,.7,-.7,.7c-.5,0,-.8,-.1,-.7,-.5c.1,-.3,.1,-.7,-.4,-.7c-.4,0,-.6,.3,-.6,.7c0,.6,.5,1,1.1,1c1,0,1.7,-.8,2.1,-1.5c.1,.8,.5,1.5,1.3,1.5c1.2,0,2.1,-1.2,2.5,-1.9l-.2,-.2c-.5,.7,-1.2,1.7,-2,1.7c-.4,0,-.6,-.6,-.6,-1.2c0,-.4,0,-.8,.2,-1.4l.1,-.7c.1,-.6,.4,-1.2,.7,-1.6c.1,-.3,.5,-.9,.9,-.9c.4,0,.4,.3,.4,.6c-.1,.4,.1,.5,.4,.5c.4,0,.5,-.2,.5,-.6Z" class="g0_300"/>
<path d="M307.9,192.3c0,.5,.3,.8,.7,.8c.2,0,.3,0,.4,-.1c0,.4,0,.8,-.3,1.1c-.2,.3,-.5,.6,-1,1l.3,.4c.4,-.3,.6,-.5,.9,-.7c.5,-.5,.9,-1,.9,-1.9c0,-.9,-.3,-1.4,-1,-1.4c-.5,0,-.9,.3,-.9,.8Z" class="g0_300"/>
<path d="M313.4,195.3c0,.6,.4,1,1.1,1c.4,0,.8,-.2,1.3,-.6c.8,-.7,2,-2.3,2.8,-3.5c.3,-.6,.7,-1.2,1,-1.8c.4,-.7,1.1,-2.1,1.1,-2.9c0,-.2,0,-.4,-.1,-.6c-.1,-.2,-.3,-.2,-.5,-.2c-.2,0,-.3,0,-.4,.2c-.2,.1,-.2,.3,-.2,.6c0,.4,.2,.9,.2,1.3c0,.6,-.2,1.2,-.5,1.6c-.2,.5,-.4,.9,-.8,1.4h-.1l-.3,-1.9c-.1,-.5,-.3,-1.6,-.4,-2c-.2,-.7,-.3,-1.2,-1.3,-1.2c-1.2,0,-1.4,1.7,-1.6,2.5l.3,.1c.1,-.6,.5,-2.3,1,-2.3c.3,0,.5,1,.5,1.3c.1,.3,.2,.7,.3,1.3l.6,3.5c-.3,.8,-1.2,1.7,-1.8,2.2c-.2,.2,-.5,.2,-.7,.2c-.1,0,-.2,0,-.2,-.1c-.2,-.3,-.2,-.8,-.7,-.8c-.4,0,-.6,.3,-.6,.7Z" class="g0_300"/>
<path d="M323,192.3c0,.5,.2,.8,.7,.8c.1,0,.3,0,.4,-.1c0,.4,-.1,.8,-.3,1.1c-.2,.3,-.6,.6,-1.1,1l.3,.4c.4,-.3,.7,-.5,.9,-.7c.5,-.5,.9,-1,.9,-1.9c0,-.9,-.3,-1.4,-.9,-1.4c-.5,0,-.9,.3,-.9,.8Z" class="g0_300"/>
<path d="M331.2,189c.3,0,.5,-.1,.5,-.4c0,-.5,-.6,-.4,-.7,-.8c-.1,-.1,.1,-.3,.3,-.3c.9,0,1.4,1,2.6,1l-3.4,3.1c-.3,.4,-.7,.8,-.7,1.2c0,.2,.2,.3,.3,.3c.7,0,.2,-.8,.9,-.8c1,0,1.5,1,2.6,1c1.2,0,1.6,-1.2,1.8,-2.2h-.3c-.2,.5,-.5,1.1,-1.2,1.1c-.9,0,-1.7,-.8,-2.6,-.8c1.4,-1.3,2.5,-2.3,3.8,-3.6c.2,-.2,.4,-.4,.4,-.7c0,-.2,-.1,-.3,-.2,-.3c-.3,0,-.4,.2,-.5,.4c-.1,.2,-.4,.3,-.7,.3c-.8,0,-1.4,-.8,-2.5,-.8c-.7,0,-1.3,.5,-1.3,1.4c0,.5,.4,.9,.9,.9Z" class="g0_300"/>
<path d="M337,182.5l-.2,.2c2,1.6,2.6,3.3,2.6,6.6c0,3.3,-.6,5.1,-2.6,6.6l.2,.2c2.1,-1.2,3.6,-4,3.6,-6.8c0,-3,-1.5,-5.4,-3.6,-6.8Z" class="g0_300"/>
<path d="M346.9,191.2h7.6v-.8h-7.6Zm0,-3h7.6v-.8h-7.6Z" class="g0_300"/>
<path d="M371.8,180.2h-.3c-.3,1.9,-1,2.7,-2,2.7h-5.8l4.3,-5.5l-3.9,-5.7h4.8c1.1,0,1.8,.6,2.1,2.5h.3l-.1,-3.1h-8.9l4.5,6.5l-5.1,6.6h10l.1,-4Z" class="g0_300"/>
<path d="M378.8,175.3h.3l1.6,-6c0,-.1,.1,-.3,.1,-.4c.2,-.3,.4,-.7,.7,-.9c.1,0,.3,-.1,.4,-.1l.1,-.1h-2.3v.1c.2,0,.4,.1,.6,.3c.1,.2,.1,.6,.1,.9c0,.1,0,.2,0,.3l-1,4l-.1,.1l-2.5,-5.7h-2v.1c.4,0,.6,.1,.7,.2c.3,.3,.4,.7,.4,1c0,.1,0,.2,0,.3l-1.2,4.5c-.1,.3,-.3,.7,-.6,.9c-.2,.2,-.7,.4,-1,.4v.1h2.8v-.1c-.2,0,-.5,-.1,-.7,-.2c-.2,-.2,-.3,-.5,-.3,-.8c0,-.1,0,-.3,.1,-.4l1.1,-4.4v-.2l2.7,6.1Z" class="g0_300"/>
<path d="M376.1,179.6c0,-.3,-.3,-.6,-.6,-.6c-.3,0,-.5,.3,-.5,.6c0,.3,.2,.5,.5,.5c.3,0,.6,-.3,.6,-.5Zm-2.1,6.8c1,0,1.5,-.9,1.8,-1.5l-.2,-.1c-.2,.3,-.6,1.1,-1,1.1c-.1,0,-.3,-.2,-.3,-.3c0,-.2,.2,-.6,.3,-.8l.7,-2c.1,-.3,.1,-.5,.1,-.7c0,-.3,0,-.5,-.4,-.5c-.6,0,-1.4,.8,-1.7,1.3l.2,.1c.2,-.2,.6,-.8,.8,-.8c.2,0,.2,.1,.2,.2c.1,.2,0,.5,-.1,.7l-.7,2.1c-.1,.2,-.2,.5,-.2,.6c0,.4,.2,.6,.5,.6Z" class="g0_300"/>
<path d="M377.3,184.9h5.6v-.6h-5.6Zm0,-2.2h5.6v-.6h-5.6Z" class="g0_300"/>
<path d="M386.3,186.2c-1.4,0,-1.4,-2,-1.4,-3.6c0,-1.6,0,-3.8,1.4,-3.8c1.5,0,1.5,2.2,1.5,3.8c0,1.6,-.1,3.6,-1.5,3.6Zm0,-7.6c-1.9,0,-2.4,2,-2.4,4c0,1.9,.6,3.8,2.4,3.8c1.9,0,2.5,-1.9,2.5,-3.8c0,-2,-.5,-4,-2.5,-4Z" class="g0_300"/>
<path d="M394.5,179.4c0,-1.6,.7,-2.7,1.3,-3.6c.2,-.2,.5,-.5,.5,-.6q0,-.1,-.1,-.1c-.1,0,-.2,.1,-.2,.1c-.1,0,-.2,.1,-.4,.3c-.1,.1,-.2,.2,-.4,.2c-.3,0,-.5,-.1,-.6,-.3c-.2,-.2,-.4,-.3,-.7,-.3c-.7,0,-1.3,.5,-1.3,1.1c0,.4,.3,.5,.5,.5c.3,0,.5,-.1,.5,-.4c0,-.3,-.3,-.3,-.3,-.4c0,-.1,.1,-.2,.3,-.2c.4,0,.6,.4,.7,.5q.3,0,.7,-.1h.1c-.4,.6,-1,1.7,-1.3,2.3c-.3,.6,-.4,1.1,-.4,1.6c0,.2,.1,.5,.1,.7c.2,.5,.6,1,1.4,1c1.9,0,2.7,-1.8,3.3,-2.9c.3,-.7,.5,-1.6,.5,-2.6c0,-.6,-.1,-1.1,-.7,-1.1c-.4,0,-.6,.2,-.6,.7c0,.5,.3,.9,.3,1.5c0,1.3,-.9,4,-2.4,4c-.7,0,-.8,-1.2,-.8,-1.9Z" class="g0_300"/>
<path d="M402,177.1c0,-.3,-.3,-.6,-.6,-.6c-.3,0,-.5,.3,-.5,.6c0,.3,.2,.5,.5,.5c.3,0,.6,-.2,.6,-.5Zm-2.1,6.8c1,0,1.5,-.9,1.8,-1.4l-.2,-.1c-.2,.2,-.6,1,-1,1c-.1,0,-.3,-.2,-.3,-.3c0,-.2,.2,-.6,.2,-.8l.7,-2c.2,-.3,.2,-.5,.2,-.6c0,-.4,0,-.6,-.4,-.6c-.7,0,-1.5,.8,-1.7,1.3l.2,.1c.2,-.2,.6,-.8,.8,-.8c.2,0,.2,.1,.2,.2c0,.2,-.1,.5,-.1,.7l-.8,2.1c0,.2,-.1,.5,-.1,.6c0,.4,.1,.6,.5,.6Z" class="g0_300"/>
<path d="M405.4,178.5c.1,-.6,.7,-1.8,1,-2.2c.3,-.3,.8,-.9,1.3,-.9c.6,0,.6,.5,.6,.8c-.1,1.1,-2.1,1.9,-2.9,2.3Zm2.4,-3.4c-.6,0,-1.3,.5,-1.7,1.1h-.2l1.6,-5.6l-2.3,.1l-.1,.2c.6,0,1.1,.2,1.1,.6c0,.1,-.1,.3,-.1,.5l-2.6,9.6h1l.7,-2.7l.4,-.1l.8,1.9c.2,.4,.3,.7,.4,.8c.1,.1,.3,.2,.5,.2c.9,0,1.3,-.6,1.8,-1.8l-.3,-.2c-.3,.6,-.5,1.3,-.9,1.3c-.2,0,-.5,-.6,-.6,-1.1l-.7,-1.6l.3,-.1c.7,-.3,1.3,-.6,1.7,-1c.3,-.4,.6,-.8,.6,-1.1c0,-.7,-.5,-1,-1.4,-1Z" class="g0_300"/>
<path d="M412.7,177.1c0,-.3,-.3,-.6,-.6,-.6c-.3,0,-.5,.3,-.5,.6c0,.3,.2,.5,.5,.5c.3,0,.6,-.2,.6,-.5Zm-2.1,6.8c1,0,1.5,-.9,1.8,-1.4l-.2,-.1c-.2,.2,-.6,1,-1,1c-.1,0,-.3,-.2,-.3,-.3c0,-.2,.2,-.6,.2,-.8l.7,-2c.2,-.3,.2,-.5,.2,-.6c0,-.4,0,-.6,-.4,-.6c-.7,0,-1.5,.8,-1.7,1.3l.2,.1c.2,-.2,.6,-.8,.8,-.8c.2,0,.2,.1,.2,.2c0,.2,-.1,.5,-.1,.7l-.8,2.1c0,.2,-.1,.5,-.1,.6c0,.4,.1,.6,.5,.6Z" class="g0_300"/>
<path d="M419.3,170.9c-2.1,1.4,-3.6,3.8,-3.6,6.8c0,2.8,1.5,5.6,3.6,6.9l.2,-.3c-2,-1.5,-2.6,-3.3,-2.6,-6.6c0,-3.3,.6,-5,2.6,-6.6l-.2,-.2Z" class="g0_300"/>
<path d="M427.7,176c0,-.5,-.5,-.9,-1,-.9c-.3,0,-.6,.1,-1,.3c-.3,.2,-.6,.5,-.8,.9c0,-.7,-.4,-1.2,-1.1,-1.2c-1.1,0,-2.1,1.2,-2.4,1.9l.2,.2c.4,-.5,1.1,-1.7,2,-1.7c.3,0,.4,.5,.4,.9c0,.3,-.1,.7,-.2,1.2l-.4,1.2c-.1,.5,-.4,1.3,-.7,1.7c-.1,.3,-.4,.7,-.8,.7c-.4,0,-.7,-.1,-.6,-.5c.1,-.3,0,-.7,-.4,-.7c-.5,0,-.6,.3,-.6,.7c0,.6,.4,1,1,1c1,0,1.8,-.8,2.1,-1.5l.1,.1c.1,.8,.5,1.4,1.3,1.4c1.2,0,2,-1.2,2.5,-1.9l-.2,-.1c-.5,.6,-1.2,1.6,-2,1.6c-.4,0,-.6,-.6,-.6,-1.2c0,-.3,0,-.8,.1,-1.3l.2,-.8c.1,-.5,.4,-1.2,.6,-1.6c.2,-.3,.6,-.9,1,-.9c.4,0,.4,.3,.3,.6c0,.4,.2,.6,.5,.6c.4,0,.5,-.3,.5,-.7Z" class="g0_300"/>
<path d="M429.9,180.8c0,.4,.3,.8,.7,.8c.2,0,.3,-.1,.4,-.1c0,.3,-.1,.7,-.3,1c-.2,.3,-.6,.6,-1,1l.3,.4c.3,-.2,.6,-.5,.8,-.7c.5,-.5,1,-1,1,-1.9c0,-.9,-.3,-1.4,-1,-1.4c-.5,0,-.9,.4,-.9,.9Z" class="g0_300"/>
<path d="M435.3,183.7c0,.6,.5,1,1.1,1c.5,0,.8,-.2,1.3,-.6c.8,-.7,2.1,-2.2,2.8,-3.4c.4,-.7,.8,-1.3,1.1,-1.8c.4,-.8,1.1,-2.2,1.1,-3c0,-.2,-.1,-.4,-.2,-.6c-.1,-.2,-.2,-.2,-.4,-.2c-.2,0,-.3,.1,-.5,.2c-.1,.1,-.2,.3,-.2,.6c0,.5,.2,.9,.2,1.4c0,.5,-.2,1.1,-.4,1.5c-.3,.5,-.5,.9,-.8,1.5h-.1l-.3,-2c-.1,-.5,-.3,-1.6,-.5,-2c-.1,-.7,-.3,-1.2,-1.3,-1.2c-1.1,0,-1.3,1.7,-1.6,2.5l.3,.1c.1,-.5,.6,-2.3,1.1,-2.3c.3,0,.4,1,.5,1.3c.1,.3,.2,.7,.3,1.4l.6,3.5c-.4,.8,-1.2,1.6,-1.8,2.1c-.2,.2,-.6,.3,-.7,.3c-.1,0,-.2,-.1,-.3,-.2c-.2,-.2,-.2,-.7,-.6,-.7c-.4,0,-.7,.2,-.7,.6Z" class="g0_300"/>
<path d="M444.9,180.8c0,.4,.3,.8,.7,.8c.2,0,.3,-.1,.4,-.1c0,.3,0,.7,-.3,1c-.2,.3,-.5,.6,-1,1l.3,.4c.4,-.2,.6,-.5,.9,-.7c.5,-.5,.9,-1,.9,-1.9c0,-.9,-.3,-1.4,-1,-1.4c-.5,0,-.9,.4,-.9,.9Z" class="g0_300"/>
<path d="M453.2,177.4c.3,0,.5,-.1,.5,-.4c0,-.5,-.6,-.4,-.7,-.7c-.1,-.2,0,-.4,.3,-.4c.9,0,1.4,1,2.6,1l-3.4,3.2c-.4,.3,-.7,.7,-.7,1.1c0,.2,.2,.4,.3,.4c.7,0,.2,-.9,.9,-.9c.9,0,1.5,1,2.5,1c1.2,0,1.6,-1.2,1.9,-2.2h-.3c-.2,.6,-.6,1.2,-1.2,1.2c-.9,0,-1.7,-.9,-2.6,-.9c1.3,-1.3,2.5,-2.3,3.8,-3.6c.2,-.2,.4,-.4,.4,-.6c0,-.3,-.1,-.4,-.3,-.4c-.3,0,-.3,.2,-.4,.4c-.1,.2,-.4,.4,-.7,.4c-.8,0,-1.4,-.9,-2.5,-.9c-.7,0,-1.3,.5,-1.3,1.4c0,.6,.3,.9,.9,.9Z" class="g0_300"/>
<path d="M458.9,170.9l-.1,.2c1.9,1.6,2.5,3.3,2.5,6.6c0,3.3,-.5,5.1,-2.5,6.6l.2,.3c2,-1.3,3.6,-4.1,3.6,-6.9c0,-3,-1.5,-5.4,-3.7,-6.8Z" class="g0_300"/>
<path d="M361,189.7H464.1v-.8H361Z" class="g0_300"/>
<path d="M377.2,204.7h-.3c-.3,1.9,-.9,2.7,-2,2.7h-5.8l4.3,-5.5l-3.8,-5.7h4.7c1.1,0,1.8,.6,2.1,2.5h.3l-.1,-3.1h-8.9l4.6,6.5l-5.2,6.6h10l.1,-4Z" class="g0_300"/>
<path d="M384.2,199.8h.3l1.6,-6c0,-.1,.1,-.3,.2,-.4c.1,-.3,.3,-.7,.6,-.9c.1,0,.3,-.1,.5,-.1v-.1h-2.3v.1c.2,0,.5,.1,.6,.3c.2,.2,.2,.6,.2,.9c0,.1,0,.2,-.1,.3l-1,4l-.1,.1l-2.5,-5.7h-1.9l-.1,.1c.4,0,.6,.1,.7,.2c.3,.3,.4,.7,.4,1c0,.1,0,.2,0,.3l-1.2,4.5c-.1,.3,-.3,.7,-.6,.9c-.2,.2,-.6,.4,-.9,.4l-.1,.1h2.8l.1,-.1c-.3,0,-.6,-.1,-.8,-.2c-.1,-.2,-.3,-.5,-.3,-.8c0,-.1,0,-.3,.1,-.4l1.1,-4.4l.1,-.2l2.6,6.1Z" class="g0_300"/>
<path d="M381.5,204.1c0,-.3,-.2,-.6,-.6,-.6c-.3,0,-.5,.3,-.5,.6c0,.3,.3,.5,.5,.5c.3,0,.6,-.2,.6,-.5Zm-2,6.8c.9,0,1.4,-.9,1.7,-1.5l-.2,-.1c-.1,.3,-.5,1.1,-1,1.1c-.1,0,-.2,-.2,-.2,-.3c0,-.2,.1,-.6,.2,-.8l.7,-2c.1,-.3,.1,-.5,.1,-.7c0,-.3,0,-.5,-.3,-.5c-.7,0,-1.5,.8,-1.8,1.3l.2,.1c.2,-.2,.6,-.8,.9,-.8c.1,0,.2,.1,.2,.2c0,.2,-.1,.5,-.2,.7l-.7,2.1c-.1,.2,-.1,.5,-.1,.6c0,.4,.1,.6,.5,.6Z" class="g0_300"/>
<path d="M382.7,209.4h5.6v-.6h-5.6Zm0,-2.2h5.6v-.6h-5.6Z" class="g0_300"/>
<path d="M391.8,210.7c-1.4,0,-1.4,-2,-1.4,-3.6c0,-1.6,0,-3.8,1.4,-3.8c1.4,0,1.4,2.2,1.4,3.8c0,1.6,0,3.6,-1.4,3.6Zm0,-7.5c-1.9,0,-2.5,1.9,-2.5,3.9c0,1.9,.6,3.8,2.5,3.8c1.8,0,2.4,-1.9,2.4,-3.8c0,-2,-.5,-3.9,-2.4,-3.9Z" class="g0_300"/>
<path d="M400,203c.1,-.6,.6,-1.8,1,-2.2c.3,-.3,.8,-.9,1.3,-.9c.5,0,.5,.5,.5,.8c0,1.1,-2,1.9,-2.8,2.3Zm2.4,-3.4c-.6,0,-1.3,.5,-1.8,1.1h-.1l1.5,-5.6l-2.3,.1v.3c.6,0,1.1,.1,1.1,.5c0,.1,-.1,.3,-.1,.5l-2.6,9.6h1l.7,-2.7l.4,-.1l.8,1.9c.1,.4,.3,.7,.4,.8c.1,.1,.3,.2,.5,.2c.9,0,1.2,-.6,1.8,-1.8l-.3,-.1c-.3,.5,-.5,1.2,-1,1.2c-.2,0,-.4,-.6,-.6,-1.1l-.6,-1.5l.3,-.2c.7,-.3,1.3,-.6,1.7,-1c.3,-.4,.6,-.8,.6,-1.1c0,-.7,-.5,-1,-1.4,-1Z" class="g0_300"/>
<path d="M407.2,201.6c0,-.3,-.2,-.6,-.5,-.6c-.3,0,-.6,.3,-.6,.6c0,.3,.3,.5,.6,.5c.3,0,.5,-.2,.5,-.5Zm-2,6.8c.9,0,1.5,-.9,1.7,-1.4l-.2,-.1c-.1,.2,-.5,1,-1,1c-.1,0,-.2,-.2,-.2,-.3c0,-.2,.1,-.6,.2,-.8l.7,-2c.1,-.3,.2,-.5,.2,-.6c0,-.4,0,-.6,-.4,-.6c-.7,0,-1.5,.8,-1.7,1.3l.2,.1c.1,-.2,.5,-.8,.8,-.8c.1,0,.2,.1,.2,.2c0,.2,-.1,.5,-.2,.7l-.7,2.1c-.1,.2,-.1,.5,-.1,.6c0,.4,.1,.6,.5,.6Z" class="g0_300"/>
<path d="M413.9,195.4c-2.2,1.4,-3.7,3.8,-3.7,6.8c0,2.8,1.6,5.6,3.7,6.9l.1,-.3c-1.9,-1.5,-2.5,-3.3,-2.5,-6.6c0,-3.3,.6,-5,2.5,-6.6l-.1,-.2Z" class="g0_300"/>
<path d="M422.3,200.5c0,-.5,-.5,-.9,-1,-.9c-.3,0,-.7,.1,-1,.3c-.3,.2,-.6,.5,-.8,.9c0,-.7,-.4,-1.2,-1.1,-1.2c-1.1,0,-2.1,1.2,-2.4,1.9l.2,.2c.3,-.5,1.1,-1.7,2,-1.7c.2,0,.4,.5,.4,.9c0,.3,-.1,.7,-.3,1.2l-.3,1.2c-.2,.5,-.4,1.3,-.7,1.7c-.2,.3,-.4,.7,-.8,.7c-.4,0,-.7,-.1,-.6,-.5c.1,-.3,0,-.7,-.4,-.7c-.5,0,-.7,.3,-.7,.7c0,.6,.5,1,1.1,1c1,0,1.7,-.8,2.1,-1.5v.1c.2,.8,.6,1.4,1.4,1.4c1.2,0,2,-1.2,2.4,-1.8l-.2,-.2c-.4,.6,-1.1,1.6,-1.9,1.6c-.5,0,-.7,-.6,-.7,-1.2c0,-.3,.1,-.8,.2,-1.3l.2,-.8c.1,-.5,.3,-1.2,.6,-1.6c.2,-.3,.6,-.9,.9,-.9c.5,0,.4,.3,.4,.6c0,.4,.1,.6,.5,.6c.3,0,.5,-.3,.5,-.7Z" class="g0_300"/>
<path d="M424.5,205.3c0,.4,.3,.8,.7,.8c.1,0,.3,-.1,.4,-.1c0,.3,-.1,.7,-.3,1c-.2,.3,-.6,.6,-1.1,1l.4,.4c.3,-.2,.6,-.5,.8,-.7c.5,-.5,1,-1,1,-1.9c0,-.9,-.4,-1.4,-1,-1.4c-.5,0,-.9,.4,-.9,.9Z" class="g0_300"/>
<path d="M429.9,208.2c0,.6,.5,1,1.1,1c.4,0,.8,-.2,1.3,-.6c.8,-.7,2.1,-2.2,2.8,-3.4c.4,-.7,.7,-1.3,1,-1.8c.4,-.8,1.2,-2.2,1.2,-3c0,-.2,-.1,-.4,-.2,-.6c-.1,-.2,-.3,-.2,-.5,-.2c-.1,0,-.2,.1,-.4,.2c-.1,.1,-.2,.3,-.2,.6c0,.5,.2,1,.2,1.4c0,.5,-.2,1.1,-.4,1.5c-.3,.5,-.5,.9,-.8,1.5h-.1l-.4,-2c-.1,-.5,-.3,-1.6,-.4,-2c-.2,-.7,-.3,-1.2,-1.3,-1.2c-1.2,0,-1.4,1.8,-1.6,2.5l.3,.1c.1,-.5,.6,-2.3,1,-2.3c.4,0,.5,1.1,.6,1.3c.1,.3,.1,.7,.3,1.4l.5,3.5c-.3,.8,-1.1,1.6,-1.7,2.1c-.3,.2,-.6,.3,-.8,.3c-.1,0,-.1,-.1,-.2,-.2c-.2,-.2,-.2,-.7,-.7,-.7c-.4,0,-.6,.2,-.6,.6Z" class="g0_300"/>
<path d="M439.5,205.3c0,.4,.3,.8,.7,.8c.2,0,.3,-.1,.4,-.1c0,.3,-.1,.7,-.3,1c-.2,.3,-.5,.6,-1,1l.3,.4c.3,-.2,.6,-.5,.8,-.7c.6,-.5,1,-1,1,-1.9c0,-.9,-.3,-1.4,-1,-1.4c-.5,0,-.9,.4,-.9,.9Z" class="g0_300"/>
<path d="M447.8,201.9c.3,0,.4,-.1,.4,-.4c0,-.5,-.5,-.4,-.7,-.7c-.1,-.2,.1,-.4,.4,-.4c.9,0,1.4,1,2.6,1l-3.4,3.2c-.4,.3,-.7,.8,-.7,1.1c0,.2,.2,.4,.2,.4c.8,0,.3,-.9,1,-.9c.9,0,1.4,1,2.5,1c1.2,0,1.6,-1.2,1.8,-2.2h-.2c-.3,.6,-.6,1.2,-1.2,1.2c-.9,0,-1.7,-.9,-2.6,-.9c1.3,-1.3,2.5,-2.3,3.8,-3.6c.1,-.2,.3,-.4,.3,-.6c0,-.3,0,-.4,-.2,-.4c-.3,0,-.4,.2,-.5,.4c-.1,.2,-.3,.4,-.6,.4c-.8,0,-1.5,-.9,-2.5,-.9c-.7,0,-1.4,.5,-1.4,1.4c0,.6,.4,.9,1,.9Z" class="g0_300"/>
<path d="M453.5,195.4l-.1,.2c1.9,1.6,2.5,3.3,2.5,6.6c0,3.3,-.6,5.1,-2.5,6.6l.2,.3c2,-1.3,3.6,-4.1,3.6,-6.9c0,-3,-1.5,-5.4,-3.7,-6.8Z" class="g0_300"/>
<path d="M467.1,192.3c0,.5,.2,.8,.7,.8c.1,0,.2,0,.4,-.1c0,.4,-.1,.8,-.3,1.1c-.2,.3,-.6,.6,-1.1,1l.3,.4c.4,-.3,.7,-.5,.9,-.7c.5,-.5,.9,-1,.9,-1.9c0,-.9,-.3,-1.4,-.9,-1.4c-.6,0,-.9,.3,-.9,.8Zm.8,-3.4c.5,0,.9,-.4,.9,-.9c0,-.5,-.4,-.9,-.9,-.9c-.4,0,-.8,.4,-.8,.9c0,.5,.4,.9,.8,.9Z" class="g0_300"/>
<path d="M472.4,192.9v.2H477l.1,-.2c-.6,0,-1,-.1,-1.3,-.3c-.2,-.2,-.3,-.4,-.3,-.7c0,-.2,0,-.5,.1,-.8l.9,-3.2h1.1c1,0,1,1.1,.9,2.2h.3l1,-4.2h-.3c-.4,.8,-.8,1.6,-2,1.6h-.9l1.1,-4.4h1.7c.3,0,.6,0,.8,.1c.8,.4,1.5,1.3,1.6,2.3h.4v-2.7h-7.4v.2c.5,0,.8,.1,1,.3c.2,.1,.3,.3,.3,.6c0,.1,0,.3,-.1,.5c0,.1,0,.3,-.1,.6l-1.6,6.1c-.1,.4,-.2,.6,-.3,.8c-.2,.4,-.5,.7,-.8,.9c-.2,.1,-.5,.1,-.8,.1Z" class="g0_300"/>
<path d="M488.2,182.5c-2.1,1.4,-3.7,3.8,-3.7,6.8c0,2.8,1.6,5.6,3.7,6.8l.2,-.2c-2,-1.5,-2.6,-3.3,-2.6,-6.6c0,-3.3,.6,-5,2.6,-6.6l-.2,-.2Z" class="g0_300"/>
<path d="M496.6,187.6c0,-.5,-.5,-.9,-1,-.9c-.3,0,-.6,.1,-1,.3c-.3,.2,-.6,.5,-.8,.9c0,-.7,-.4,-1.2,-1.1,-1.2c-1.1,0,-2.1,1.1,-2.4,1.9l.2,.1c.4,-.5,1.1,-1.7,2,-1.7c.3,0,.4,.6,.4,1c0,.3,-.1,.7,-.2,1.2l-.4,1.1c-.1,.6,-.4,1.4,-.7,1.8c-.1,.3,-.4,.7,-.8,.7c-.4,0,-.7,-.1,-.6,-.5c.1,-.3,0,-.7,-.4,-.7c-.5,0,-.6,.3,-.6,.7c0,.6,.4,1,1,1c1,0,1.8,-.8,2.1,-1.5h.1c.1,.8,.5,1.5,1.3,1.5c1.2,0,2,-1.2,2.5,-1.9l-.2,-.2c-.5,.7,-1.2,1.7,-2,1.7c-.4,0,-.6,-.6,-.6,-1.2c0,-.4,0,-.8,.1,-1.4l.2,-.7c.1,-.6,.4,-1.2,.6,-1.6c.2,-.3,.6,-.9,1,-.9c.4,0,.4,.3,.3,.6c0,.4,.2,.5,.5,.5c.4,0,.5,-.2,.5,-.6Z" class="g0_300"/>
<path d="M499.7,188.7c0,-.3,-.2,-.6,-.5,-.6c-.3,0,-.6,.3,-.6,.6c0,.3,.3,.5,.6,.5c.2,0,.5,-.3,.5,-.5Zm-2,6.8c.9,-.1,1.4,-.9,1.7,-1.5l-.2,-.1c-.1,.3,-.5,1.1,-1,1.1c-.1,0,-.2,-.2,-.2,-.3c0,-.2,.1,-.6,.2,-.8l.7,-2c.1,-.3,.1,-.5,.1,-.7c0,-.3,0,-.6,-.3,-.6c-.7,0,-1.5,.9,-1.7,1.4l.2,.1c.1,-.2,.5,-.8,.8,-.8c.1,0,.2,.1,.2,.2c0,.2,-.1,.5,-.2,.7l-.7,2c-.1,.3,-.1,.5,-.1,.7c0,.4,.1,.6,.5,.6Z" class="g0_300"/>
<path d="M502.7,192.3c0,.5,.3,.8,.7,.8c.2,0,.3,0,.4,-.1c0,.4,-.1,.8,-.3,1.1c-.2,.3,-.5,.6,-1,1l.3,.4c.4,-.3,.6,-.5,.9,-.7c.5,-.5,.9,-1,.9,-1.9c0,-.9,-.3,-1.4,-1,-1.4c-.5,0,-.9,.3,-.9,.8Z" class="g0_300"/>
<path d="M508.2,195.3c0,.6,.4,1,1.1,1c.4,0,.8,-.2,1.2,-.6c.9,-.7,2.1,-2.3,2.9,-3.5c.3,-.6,.7,-1.2,1,-1.8c.4,-.7,1.1,-2.1,1.1,-2.9c0,-.2,0,-.4,-.1,-.6c-.1,-.2,-.3,-.2,-.5,-.2c-.2,0,-.3,0,-.4,.2c-.2,.1,-.3,.3,-.3,.6c0,.4,.3,.9,.3,1.3c0,.6,-.3,1.2,-.5,1.6c-.2,.5,-.5,.9,-.8,1.4h-.1l-.3,-1.9c-.1,-.5,-.3,-1.6,-.4,-2c-.2,-.7,-.4,-1.2,-1.3,-1.2c-1.2,0,-1.4,1.7,-1.7,2.5l.4,.1c.1,-.6,.5,-2.3,1,-2.3c.3,0,.5,1,.5,1.3c.1,.3,.2,.7,.3,1.3l.6,3.5c-.3,.8,-1.2,1.7,-1.8,2.2c-.2,.2,-.5,.2,-.7,.2c-.1,0,-.2,0,-.2,-.1c-.2,-.3,-.2,-.8,-.7,-.8c-.4,0,-.6,.3,-.6,.7Z" class="g0_300"/>
<path d="M518.7,188.7c0,-.3,-.3,-.6,-.6,-.6c-.3,0,-.5,.3,-.5,.6c0,.3,.2,.5,.5,.5c.3,0,.6,-.3,.6,-.5Zm-2.1,6.8c1,-.1,1.5,-.9,1.8,-1.5l-.2,-.1c-.2,.3,-.6,1.1,-1,1.1c-.1,0,-.3,-.2,-.3,-.3c0,-.2,.2,-.6,.2,-.8l.8,-2c.1,-.3,.1,-.5,.1,-.7c0,-.3,0,-.6,-.4,-.6c-.6,0,-1.4,.9,-1.7,1.4l.2,.1c.2,-.2,.6,-.8,.8,-.8c.2,0,.2,.1,.2,.2c.1,.2,0,.5,-.1,.7l-.7,2c-.1,.3,-.2,.5,-.2,.7c0,.4,.2,.6,.5,.6Z" class="g0_300"/>
<path d="M521.7,192.3c0,.5,.3,.8,.7,.8c.1,0,.3,0,.4,-.1c0,.4,-.1,.8,-.3,1.1c-.2,.3,-.6,.6,-1,1l.3,.4c.3,-.3,.6,-.5,.8,-.7c.5,-.5,1,-1,1,-1.9c0,-.9,-.4,-1.4,-1,-1.4c-.5,0,-.9,.3,-.9,.8Z" class="g0_300"/>
<path d="M529.9,189c.3,0,.5,-.1,.5,-.4c0,-.5,-.5,-.4,-.7,-.8c-.1,-.1,.1,-.3,.4,-.3c.8,0,1.4,1,2.6,1l-3.4,3.1c-.4,.4,-.7,.8,-.7,1.2c0,.2,.1,.3,.2,.3c.7,0,.2,-.8,.9,-.8c1,0,1.5,1,2.6,1c1.2,0,1.6,-1.2,1.8,-2.2h-.3c-.2,.5,-.5,1.1,-1.1,1.1c-1,0,-1.8,-.8,-2.7,-.8c1.4,-1.3,2.6,-2.3,3.8,-3.6c.2,-.2,.4,-.4,.4,-.7c0,-.2,-.1,-.3,-.2,-.3c-.3,0,-.4,.2,-.5,.4c-.1,.2,-.3,.3,-.6,.3c-.9,0,-1.5,-.8,-2.5,-.8c-.7,0,-1.4,.5,-1.4,1.4c0,.5,.4,.9,.9,.9Z" class="g0_300"/>
<path d="M537.7,188.7c0,-.3,-.3,-.6,-.6,-.6c-.3,0,-.5,.3,-.5,.6c0,.3,.2,.5,.5,.5c.3,0,.6,-.3,.6,-.5Zm-2.1,6.8c1,-.1,1.5,-.9,1.8,-1.5l-.2,-.1c-.2,.3,-.6,1.1,-1,1.1c-.1,0,-.3,-.2,-.3,-.3c0,-.2,.2,-.6,.3,-.8l.7,-2c.1,-.3,.1,-.5,.1,-.7c0,-.3,0,-.6,-.3,-.6c-.7,0,-1.5,.9,-1.8,1.4l.2,.1c.2,-.2,.6,-.8,.8,-.8c.2,0,.2,.1,.2,.2c.1,.2,0,.5,-.1,.7l-.7,2c-.1,.3,-.2,.5,-.2,.7c0,.4,.2,.6,.5,.6Z" class="g0_300"/>
<path d="M539.8,182.5l-.2,.2c2,1.6,2.6,3.3,2.6,6.6c0,3.3,-.6,5.1,-2.6,6.6l.2,.2c2.1,-1.2,3.6,-4,3.6,-6.8c0,-3,-1.5,-5.4,-3.6,-6.8Z" class="g0_300"/>
<path d="M549.7,191.2h7.6v-.8h-7.6Zm0,-3h7.6v-.8h-7.6Z" class="g0_300"/>
<path d="M563.9,191c0,-1.6,.7,-2.7,1.4,-3.6c.1,-.2,.4,-.5,.4,-.6q0,-.1,-.1,-.1c-.1,0,-.2,0,-.2,.1c-.1,0,-.2,.1,-.4,.3c-.1,.1,-.2,.1,-.4,.1c-.3,0,-.4,0,-.6,-.2c-.2,-.2,-.4,-.3,-.7,-.3c-.6,0,-1.3,.5,-1.3,1.1c0,.4,.3,.5,.5,.5c.3,0,.5,-.2,.5,-.5c0,-.2,-.3,-.2,-.3,-.4c0,0,.1,-.2,.3,-.2c.4,0,.6,.5,.8,.5q.2,.1,.6,0l.1,-.1c-.4,.7,-1,1.7,-1.3,2.4c-.3,.6,-.4,1.1,-.4,1.6c0,.2,.1,.4,.1,.6c.2,.6,.6,1.1,1.4,1.1c1.9,0,2.7,-1.8,3.3,-2.9c.3,-.8,.5,-1.7,.5,-2.6c0,-.7,-.1,-1.1,-.6,-1.1c-.5,0,-.7,.2,-.7,.6c0,.6,.3,.9,.3,1.6c0,1.3,-.9,4,-2.4,4c-.7,0,-.8,-1.2,-.8,-1.9Z" class="g0_300"/>
<path d="M571.4,188.7c0,-.3,-.3,-.6,-.6,-.6c-.3,0,-.5,.3,-.5,.6c0,.3,.2,.5,.5,.5c.3,0,.6,-.3,.6,-.5Zm-2.1,6.8c1,-.1,1.5,-.9,1.8,-1.5l-.2,-.1c-.2,.3,-.6,1.1,-1,1.1c-.1,0,-.3,-.2,-.3,-.3c0,-.2,.2,-.6,.2,-.8l.7,-2c.2,-.3,.2,-.5,.2,-.7c0,-.3,0,-.6,-.4,-.6c-.7,0,-1.5,.9,-1.7,1.4l.2,.1c.2,-.2,.6,-.8,.8,-.8c.2,0,.2,.1,.2,.2c0,.2,-.1,.5,-.1,.7l-.8,2c0,.3,-.1,.5,-.1,.7c0,.4,.1,.6,.5,.6Z" class="g0_300"/>
<path d="M287.6,234.3c.1,-.6,.7,-1.8,1,-2.2c.3,-.3,.8,-.9,1.3,-.9c.6,0,.6,.5,.6,.8c-.1,1.1,-2,2,-2.9,2.3Zm2.4,-3.4c-.6,0,-1.3,.5,-1.7,1.2l-.1,-.1l1.5,-5.5l-2.3,.1l-.1,.2c.6,0,1.1,.1,1.1,.6c0,0,0,.2,-.1,.4l-2.6,9.6h1l.7,-2.6l.4,-.1l.8,1.9c.2,.3,.3,.6,.4,.7c.2,.1,.3,.2,.5,.2c1,0,1.3,-.6,1.8,-1.8l-.3,-.1c-.3,.6,-.5,1.2,-.9,1.2c-.2,0,-.5,-.6,-.6,-1l-.7,-1.6l.3,-.2c.7,-.3,1.3,-.6,1.7,-1c.4,-.4,.6,-.7,.6,-1.1c0,-.7,-.5,-1,-1.4,-1Z" class="g0_300"/>
<path d="M294.9,232.9c0,-.3,-.3,-.5,-.6,-.5c-.3,0,-.5,.2,-.5,.5c0,.3,.2,.6,.5,.6c.3,0,.6,-.3,.6,-.6Zm-2.1,6.8c1,0,1.5,-.8,1.8,-1.4l-.2,-.1c-.2,.2,-.6,1,-1,1c-.1,0,-.3,-.1,-.3,-.2c0,-.3,.2,-.7,.2,-.8l.8,-2.1c.1,-.3,.1,-.4,.1,-.6c0,-.3,0,-.6,-.4,-.6c-.6,0,-1.5,.8,-1.7,1.3l.2,.1c.2,-.2,.6,-.8,.8,-.8c.2,0,.2,.2,.2,.3c.1,.1,0,.5,-.1,.6l-.7,2.1c-.1,.3,-.2,.5,-.2,.6c0,.4,.2,.6,.5,.6Z" class="g0_300"/>
<path d="M301.5,226.7c-2.1,1.4,-3.6,3.8,-3.6,6.9c0,2.7,1.5,5.5,3.6,6.8l.2,-.2c-2,-1.6,-2.6,-3.4,-2.6,-6.7c0,-3.3,.6,-5,2.6,-6.5l-.2,-.3Z" class="g0_300"/>
<path d="M309.9,231.9c0,-.6,-.4,-1,-1,-1c-.3,0,-.6,.1,-.9,.4c-.4,.2,-.7,.5,-.9,.8c0,-.6,-.4,-1.2,-1,-1.2c-1.2,0,-2.1,1.2,-2.5,2l.2,.1c.4,-.5,1.1,-1.7,2,-1.7c.3,0,.4,.5,.4,1c0,.3,-.1,.6,-.2,1.1l-.4,1.2c-.1,.6,-.4,1.4,-.7,1.8c-.1,.2,-.4,.6,-.8,.6c-.4,0,-.7,0,-.6,-.4c.1,-.4,0,-.8,-.4,-.8c-.4,0,-.6,.3,-.6,.8c0,.5,.5,.9,1,.9c1,0,1.8,-.8,2.2,-1.4c.1,.8,.5,1.4,1.3,1.4c1.2,0,2,-1.1,2.5,-1.8l-.2,-.2c-.5,.6,-1.2,1.7,-2,1.7c-.4,0,-.6,-.7,-.6,-1.3c0,-.3,0,-.8,.1,-1.3l.2,-.7c.1,-.6,.4,-1.3,.6,-1.7c.2,-.2,.6,-.9,1,-.9c.4,0,.4,.3,.3,.6c0,.4,.2,.6,.5,.6c.4,0,.5,-.3,.5,-.6Z" class="g0_300"/>
<path d="M312.1,236.6c0,.4,.3,.8,.7,.8c.2,0,.3,0,.4,-.1c0,.4,-.1,.7,-.3,1c-.2,.3,-.5,.7,-1,1l.3,.4c.3,-.2,.6,-.4,.8,-.6c.6,-.5,1,-1,1,-2c0,-.9,-.3,-1.3,-1,-1.3c-.5,0,-.9,.3,-.9,.8Z" class="g0_300"/>
<path d="M317.5,239.6c0,.5,.5,.9,1.1,.9c.5,0,.8,-.2,1.3,-.6c.8,-.7,2.1,-2.2,2.8,-3.4c.4,-.6,.8,-1.2,1.1,-1.8c.4,-.8,1.1,-2.1,1.1,-2.9c0,-.3,-.1,-.4,-.2,-.6c0,-.2,-.2,-.3,-.4,-.3c-.2,0,-.3,.1,-.5,.2c-.1,.2,-.2,.4,-.2,.7c0,.4,.3,.9,.3,1.3c0,.6,-.3,1.1,-.5,1.6c-.2,.5,-.5,.8,-.8,1.4h-.1l-.3,-1.9c-.1,-.6,-.3,-1.7,-.4,-2.1c-.2,-.7,-.4,-1.2,-1.4,-1.2c-1.1,0,-1.3,1.8,-1.6,2.6l.3,.1c.2,-.6,.6,-2.3,1.1,-2.3c.3,0,.5,1,.5,1.2c.1,.3,.2,.7,.3,1.4l.6,3.5c-.4,.8,-1.2,1.7,-1.8,2.1c-.2,.2,-.6,.3,-.7,.3c-.1,0,-.2,-.1,-.3,-.2c-.2,-.2,-.2,-.7,-.6,-.7c-.4,0,-.7,.3,-.7,.7Z" class="g0_300"/>
<path d="M327.2,236.6c0,.4,.2,.8,.7,.8c.1,0,.2,0,.4,-.1c0,.4,-.1,.7,-.3,1c-.3,.3,-.6,.7,-1.1,1l.3,.4c.4,-.2,.7,-.4,.9,-.6c.5,-.5,.9,-1,.9,-2c0,-.9,-.3,-1.3,-.9,-1.3c-.6,0,-.9,.3,-.9,.8Z" class="g0_300"/>
<path d="M335.4,233.3c.3,0,.5,-.2,.5,-.4c0,-.5,-.6,-.4,-.7,-.8c-.1,-.2,.1,-.3,.3,-.3c.9,0,1.4,.9,2.6,.9l-3.4,3.2c-.4,.3,-.7,.8,-.7,1.1c0,.3,.2,.4,.3,.4c.7,0,.2,-.8,.9,-.8c.9,0,1.5,.9,2.6,.9c1.1,0,1.5,-1.2,1.8,-2.2h-.3c-.2,.6,-.5,1.2,-1.2,1.2c-.9,0,-1.7,-.8,-2.6,-.8c1.4,-1.3,2.5,-2.4,3.8,-3.6c.2,-.3,.4,-.4,.4,-.7c0,-.3,-.1,-.4,-.3,-.4c-.2,0,-.3,.3,-.4,.4c-.1,.2,-.4,.4,-.7,.4c-.8,0,-1.4,-.9,-2.5,-.9c-.7,0,-1.3,.5,-1.3,1.4c0,.6,.3,1,.9,1Z" class="g0_300"/>
<path d="M341.2,226.7l-.2,.3c1.9,1.5,2.5,3.2,2.5,6.5c0,3.3,-.5,5.1,-2.5,6.7l.2,.2c2.1,-1.3,3.6,-4.1,3.6,-6.8c0,-3.1,-1.5,-5.5,-3.6,-6.9Z" class="g0_300"/>
<path d="M351,235.5h7.7v-.8H351Zm0,-3h7.7v-.8H351Z" class="g0_300"/>
<path d="M463.9,217.6v.2c.5,0,1.1,.1,1.3,.2c.5,.2,.5,.4,.5,1v6.5c0,.3,0,.6,-.1,.8c-.1,.6,-.9,.7,-1.6,.8v.2h4.7v-.2c-.5,0,-1.3,-.1,-1.5,-.3c-.2,-.3,-.2,-.8,-.2,-1.4v-8.6c-.8,.4,-2.1,.8,-3.1,.8Z" class="g0_300"/>
<path d="M365.2,234H567.1v-.9H365.2Z" class="g0_300"/>
<path d="M376.5,237.3h-.8l-3.8,14.9L369,246l-2.9,1.5l.2,.3l1.6,-.6l3.9,8.2l4.7,-18.1Z" class="g0_300"/>
<path d="M376.1,238.2h191v-.9h-191Z" class="g0_300"/>
<path d="M381.3,241c-2.2,1.4,-3.7,3.8,-3.7,6.9c0,2.7,1.6,5.5,3.6,6.8l.2,-.3c-2,-1.5,-2.5,-3.3,-2.5,-6.6c0,-3.3,.6,-5,2.5,-6.5l-.1,-.3Z" class="g0_300"/>
<path d="M389.6,246.2c0,-.6,-.4,-1,-1,-1c-.3,0,-.6,.1,-.9,.3c-.3,.3,-.6,.6,-.9,.9c0,-.6,-.4,-1.2,-1,-1.2c-1.1,0,-2.1,1.2,-2.5,2l.3,.1c.3,-.5,1,-1.7,1.9,-1.7c.3,0,.4,.5,.4,1c0,.2,0,.6,-.2,1.1l-.3,1.2c-.2,.6,-.4,1.4,-.7,1.8c-.2,.2,-.5,.6,-.8,.6c-.5,0,-.8,-.1,-.7,-.5c.1,-.3,.1,-.7,-.4,-.7c-.4,0,-.6,.3,-.6,.8c0,.5,.5,.9,1.1,.9c1,0,1.7,-.8,2.1,-1.4c.1,.8,.5,1.4,1.4,1.4c1.1,0,2,-1.1,2.4,-1.8l-.2,-.2c-.5,.6,-1.2,1.6,-2,1.6c-.4,0,-.6,-.6,-.6,-1.2c0,-.3,0,-.8,.2,-1.3l.2,-.7c.1,-.6,.3,-1.3,.6,-1.7c.2,-.2,.5,-.9,.9,-.9c.4,0,.4,.3,.4,.6c-.1,.4,.1,.6,.4,.6c.4,0,.5,-.3,.5,-.6Z" class="g0_300"/>
<path d="M394.6,248.3h7.6v-.9h-7.6Z" class="g0_300"/>
<path d="M413.7,246.2c0,-.6,-.5,-1,-1,-1c-.3,0,-.7,.1,-1,.3c-.3,.3,-.6,.6,-.8,.9c0,-.6,-.4,-1.2,-1.1,-1.2c-1.1,0,-2.1,1.2,-2.4,2l.2,.1c.4,-.5,1.1,-1.7,2,-1.7c.2,0,.4,.5,.4,1c0,.2,-.1,.6,-.3,1.1l-.3,1.2c-.2,.6,-.4,1.4,-.7,1.8c-.2,.2,-.4,.6,-.8,.6c-.4,0,-.7,-.1,-.6,-.5c.1,-.3,0,-.7,-.4,-.7c-.5,0,-.7,.3,-.7,.8c0,.5,.5,.9,1.1,.9c1,0,1.7,-.8,2.1,-1.4h.1c.1,.8,.5,1.4,1.3,1.4c1.2,0,2,-1.1,2.4,-1.8l-.2,-.2c-.4,.6,-1.1,1.6,-1.9,1.6c-.5,0,-.7,-.6,-.7,-1.2c0,-.3,.1,-.8,.2,-1.3l.2,-.7c.1,-.6,.3,-1.3,.6,-1.7c.2,-.2,.6,-.9,1,-.9c.4,0,.3,.3,.3,.6c0,.4,.1,.6,.5,.6c.3,0,.5,-.3,.5,-.6Z" class="g0_300"/>
<path d="M416.8,247.2c0,-.3,-.3,-.6,-.6,-.6c-.3,0,-.5,.3,-.5,.6c0,.3,.3,.6,.5,.6c.3,0,.6,-.3,.6,-.6Zm-2.1,6.8c1,0,1.5,-.8,1.8,-1.4l-.2,-.1c-.2,.2,-.6,1,-1,1c-.1,0,-.2,-.1,-.2,-.3c0,-.2,.1,-.6,.2,-.8l.7,-2c.1,-.3,.1,-.5,.1,-.6c0,-.4,0,-.6,-.3,-.6c-.7,0,-1.5,.8,-1.8,1.3l.2,.1c.2,-.2,.6,-.8,.9,-.8c.1,0,.2,.2,.2,.3c0,.1,-.1,.4,-.2,.6l-.7,2.1c-.1,.2,-.2,.5,-.2,.6c0,.4,.2,.6,.5,.6Z" class="g0_300"/>
<path d="M418.9,241l-.1,.3c1.9,1.5,2.5,3.2,2.5,6.5c0,3.3,-.6,5.1,-2.5,6.6l.1,.3c2.1,-1.3,3.7,-4.1,3.7,-6.8c0,-3.1,-1.6,-5.5,-3.7,-6.9Z" class="g0_300"/>
<path d="M426.7,242.7c-.7,0,-1.1,-.5,-1.1,-1.1c0,-.8,.4,-1.7,1.3,-1.7c1.2,0,1.3,1,1.3,1.9c0,.9,-.2,1.5,-.7,2.2c-.2,.4,-.6,.8,-1.1,1.3c-.5,.5,-1.1,1.1,-1.9,1.7v.4h4.6l.4,-2.1h-.3c-.1,.2,-.2,.4,-.3,.5c-.1,.4,-.4,.6,-1,.6h-2.1c.5,-.4,1,-.8,1.4,-1.1c.7,-.7,1.5,-1.4,1.9,-2.3c.2,-.4,.3,-.8,.3,-1.2c0,-.3,0,-.6,-.2,-.8c-.3,-.8,-1,-1.3,-2.1,-1.3c-.7,0,-1.4,.3,-1.8,.6c-.3,.3,-.7,.8,-.7,1.5c0,.4,.2,.8,.4,1c.2,.3,.5,.4,.9,.4c.4,0,.7,-.2,.8,-.5Z" class="g0_300"/>
<path d="M437.9,247.4h-3.3v1h3.3v3.3h1v-3.3h3.2v-1h-3.2v-3.2h-1v3.2Z" class="g0_300"/>
<path d="M451.1,241c-2.2,1.4,-3.7,3.8,-3.7,6.9c0,2.7,1.6,5.5,3.6,6.8l.2,-.3c-2,-1.5,-2.5,-3.3,-2.5,-6.6c0,-3.3,.6,-5,2.5,-6.5l-.1,-.3Z" class="g0_300"/>
<path d="M451.2,253.8c0,.6,.5,1,1.1,1c.4,0,.8,-.2,1.3,-.6c.8,-.7,2.1,-2.2,2.8,-3.4c.4,-.6,.7,-1.2,1,-1.8c.4,-.8,1.2,-2.1,1.2,-2.9c0,-.3,-.1,-.5,-.2,-.6c-.1,-.2,-.3,-.3,-.5,-.3c-.1,0,-.3,.1,-.4,.2c-.2,.1,-.2,.3,-.2,.6c0,.5,.2,1,.2,1.4c0,.6,-.2,1.1,-.4,1.6c-.3,.4,-.5,.8,-.8,1.4h-.1l-.4,-1.9c-.1,-.6,-.3,-1.7,-.4,-2.1c-.2,-.7,-.3,-1.2,-1.3,-1.2c-1.2,0,-1.4,1.8,-1.6,2.5l.3,.2c.1,-.6,.6,-2.4,1,-2.4c.4,0,.5,1.1,.6,1.3c.1,.3,.1,.7,.2,1.4l.6,3.5c-.3,.8,-1.1,1.6,-1.7,2.1c-.3,.2,-.6,.3,-.8,.3c-.1,0,-.1,-.1,-.2,-.2c-.2,-.2,-.2,-.7,-.7,-.7c-.4,0,-.6,.3,-.6,.6Z" class="g0_300"/>
<path d="M463.6,248.3h7.6v-.9h-7.6Z" class="g0_300"/>
<path d="M474.4,253.8c0,.6,.5,1,1.1,1c.4,0,.8,-.2,1.3,-.6c.8,-.7,2.1,-2.2,2.8,-3.4c.4,-.6,.7,-1.2,1,-1.8c.4,-.8,1.2,-2.1,1.2,-2.9c0,-.3,-.1,-.5,-.2,-.6c-.1,-.2,-.3,-.3,-.5,-.3c-.1,0,-.2,.1,-.4,.2c-.1,.1,-.2,.3,-.2,.6c0,.5,.2,1,.2,1.4c0,.6,-.2,1.1,-.4,1.6c-.3,.4,-.5,.8,-.8,1.4h-.1l-.4,-1.9c-.1,-.6,-.3,-1.7,-.4,-2.1c-.2,-.7,-.3,-1.2,-1.3,-1.2c-1.2,0,-1.4,1.8,-1.6,2.5l.3,.2c.1,-.6,.6,-2.4,1,-2.4c.4,0,.5,1.1,.6,1.3c.1,.3,.1,.7,.2,1.4l.6,3.5c-.3,.8,-1.1,1.6,-1.7,2.1c-.3,.2,-.6,.3,-.8,.3c-.1,0,-.1,-.1,-.2,-.2c-.2,-.2,-.2,-.7,-.7,-.7c-.4,0,-.6,.3,-.6,.6Z" class="g0_300"/>
<path d="M484.9,247.2c0,-.3,-.2,-.6,-.5,-.6c-.3,0,-.6,.3,-.6,.6c0,.3,.3,.6,.6,.6c.2,0,.5,-.3,.5,-.6Zm-2,6.8c.9,0,1.4,-.8,1.7,-1.4l-.2,-.1c-.1,.2,-.5,1,-1,1c-.1,0,-.2,-.1,-.2,-.3c0,-.2,.1,-.6,.2,-.8l.7,-2c.1,-.3,.1,-.5,.1,-.6c0,-.4,0,-.6,-.3,-.6c-.7,0,-1.5,.8,-1.7,1.3l.2,.1c.1,-.2,.5,-.8,.8,-.8c.1,0,.2,.2,.2,.3c0,.1,-.1,.4,-.2,.6l-.7,2.1c-.1,.2,-.1,.5,-.1,.6c0,.4,.1,.6,.5,.6Z" class="g0_300"/>
<path d="M487,241l-.1,.3c1.9,1.5,2.5,3.2,2.5,6.5c0,3.3,-.6,5.1,-2.5,6.6l.2,.3c2,-1.3,3.6,-4.1,3.6,-6.8c0,-3.1,-1.5,-5.5,-3.7,-6.9Z" class="g0_300"/>
<path d="M494.8,242.7c-.7,0,-1.1,-.5,-1.1,-1.1c0,-.8,.4,-1.7,1.3,-1.7c1.2,0,1.4,1,1.4,1.9c0,.9,-.3,1.5,-.8,2.2c-.2,.4,-.6,.8,-1.1,1.3c-.5,.5,-1.1,1.1,-1.8,1.7v.4h4.5l.4,-2.1h-.3c-.1,.2,-.2,.4,-.2,.5c-.2,.4,-.5,.6,-1,.6h-2.2c.5,-.4,1,-.8,1.4,-1.1c.8,-.7,1.6,-1.4,2,-2.3c.1,-.4,.2,-.8,.2,-1.2c0,-.3,0,-.6,-.1,-.8c-.4,-.8,-1.1,-1.3,-2.2,-1.3c-.7,0,-1.3,.3,-1.7,.6c-.4,.3,-.7,.8,-.7,1.5c0,.4,.1,.8,.3,1c.2,.3,.5,.4,.9,.4c.4,0,.7,-.2,.8,-.5Z" class="g0_300"/>
<path d="M506,247.4h-3.2v1H506v3.3h1v-3.3h3.3v-1H507v-3.2h-1v3.2Z" class="g0_300"/>
<path d="M519.2,241c-2.2,1.4,-3.7,3.8,-3.7,6.9c0,2.7,1.6,5.5,3.6,6.8l.2,-.3c-1.9,-1.5,-2.5,-3.3,-2.5,-6.6c0,-3.3,.6,-5,2.5,-6.5l-.1,-.3Z" class="g0_300"/>
<path d="M522.1,247.5c.4,0,.5,-.1,.5,-.4c0,-.4,-.5,-.3,-.7,-.7c-.1,-.2,.1,-.4,.4,-.4c.9,0,1.4,1,2.6,1l-3.4,3.2c-.4,.3,-.7,.8,-.7,1.1c0,.3,.1,.4,.2,.4c.7,0,.3,-.8,1,-.8c.9,0,1.4,.9,2.5,.9c1.2,0,1.6,-1.2,1.8,-2.2h-.2c-.3,.6,-.6,1.2,-1.2,1.2c-.9,0,-1.7,-.8,-2.6,-.8c1.3,-1.3,2.5,-2.4,3.8,-3.7c.1,-.2,.3,-.3,.3,-.6c0,-.3,0,-.4,-.2,-.4c-.3,0,-.4,.2,-.5,.4c-.1,.2,-.3,.4,-.6,.4c-.9,0,-1.5,-.9,-2.5,-.9c-.7,0,-1.4,.5,-1.4,1.4c0,.6,.4,.9,.9,.9Z" class="g0_300"/>
<path d="M531.6,248.3h7.6v-.9h-7.6Z" class="g0_300"/>
<path d="M545.2,247.5c.4,0,.5,-.1,.5,-.4c0,-.4,-.5,-.3,-.7,-.7c-.1,-.2,.1,-.4,.4,-.4c.9,0,1.4,1,2.6,1l-3.4,3.2c-.4,.3,-.7,.8,-.7,1.1c0,.3,.1,.4,.2,.4c.7,0,.3,-.8,1,-.8c.9,0,1.4,.9,2.5,.9c1.2,0,1.6,-1.2,1.8,-2.2h-.2c-.3,.6,-.6,1.2,-1.2,1.2c-.9,0,-1.7,-.8,-2.7,-.8c1.4,-1.3,2.6,-2.4,3.9,-3.7c.1,-.2,.3,-.3,.3,-.6c0,-.3,0,-.4,-.2,-.4c-.3,0,-.4,.2,-.5,.4c-.1,.2,-.3,.4,-.6,.4c-.9,0,-1.5,-.9,-2.5,-.9c-.7,0,-1.4,.5,-1.4,1.4c0,.6,.4,.9,.9,.9Z" class="g0_300"/>
<path d="M553,247.2c0,-.3,-.3,-.6,-.6,-.6c-.3,0,-.5,.3,-.5,.6c0,.3,.3,.6,.5,.6c.3,0,.6,-.3,.6,-.6Zm-2.1,6.8c1,0,1.5,-.8,1.8,-1.4l-.2,-.1c-.2,.2,-.6,1,-1,1c-.1,0,-.2,-.1,-.2,-.3c0,-.2,.1,-.6,.2,-.8l.7,-2c.1,-.3,.1,-.5,.1,-.6c0,-.4,0,-.6,-.3,-.6c-.7,0,-1.5,.8,-1.8,1.3l.2,.1c.2,-.2,.6,-.8,.8,-.8c.2,0,.2,.2,.2,.3c.1,.1,0,.4,-.1,.6l-.7,2.1c-.1,.2,-.2,.5,-.2,.6c0,.4,.2,.6,.5,.6Z" class="g0_300"/>
<path d="M555.1,241l-.2,.3c2,1.5,2.6,3.2,2.6,6.5c0,3.3,-.6,5.1,-2.6,6.6l.2,.3c2.1,-1.3,3.7,-4.1,3.7,-6.8c0,-3.1,-1.6,-5.5,-3.7,-6.9Z" class="g0_300"/>
<path d="M562.9,242.7c-.7,0,-1.1,-.5,-1.1,-1.1c0,-.8,.4,-1.7,1.3,-1.7c1.2,0,1.3,1,1.3,1.9c0,.9,-.2,1.5,-.7,2.2c-.3,.4,-.6,.8,-1.1,1.3c-.5,.5,-1.1,1.1,-1.9,1.7v.4h4.6l.4,-2.1h-.3c-.1,.2,-.2,.4,-.3,.5c-.1,.4,-.4,.6,-1,.6H562c.5,-.4,1,-.8,1.4,-1.1c.7,-.7,1.5,-1.4,1.9,-2.3c.2,-.4,.3,-.8,.3,-1.2c0,-.3,-.1,-.6,-.2,-.8c-.3,-.8,-1,-1.3,-2.1,-1.3c-.7,0,-1.4,.3,-1.8,.6c-.4,.3,-.7,.8,-.7,1.5c0,.4,.2,.8,.4,1c.2,.3,.5,.4,.9,.4c.4,0,.7,-.2,.8,-.5Z" class="g0_300"/>
<path d="M132.6,366.5h.3V354.7h-.3Z" class="g1_300"/>
<path d="M148,354.7v-3.2l.3,.1l6.3,2.9l.3,.2l-.3,.1l-6.3,3l-.3,.1v-.3l.1,-.2l6.3,-2.9l.2,.3h-.2L148.1,352l.2,-.4l.1,.2v2.9Z" class="g1_300"/>
<path d="M148,357.6h.4v-2.9H148Z" class="g1_300"/>
<path d="M148,354.8h.2v-.3H148Z" class="g1_300"/>
<path d="M132.6,354.8H148v-.3H132.6Z" class="g1_300"/>
<path d="M363.6,370.1h.4v-12h-.4Z" class="g1_300"/>
<path d="M346.5,370.1v3.2l-.3,-.1l-6.2,-3l-.4,-.1l.4,-.2l6.2,-3l.3,-.1v.3l-.1,.2l-6.2,2.9l-.2,-.3h.2l6.2,2.9l-.2,.4l-.1,-.2v-2.9Z" class="g1_300"/>
<path d="M346.1,370.1h.4v-3h-.4Z" class="g1_300"/>
<path d="M346.3,370.2h.2v-.3h-.2Z" class="g1_300"/>
<path d="M346.5,370.2H364v-.3H346.5Z" class="g1_300"/>
<path d="M687.6,400.6h.4V355h-.4Z" class="g1_300"/>
<path d="M650.7,400.6v3.1l-.2,-.1l-6.3,-2.8l-.3,-.2l.3,-.2l6.3,-2.9l.2,-.1v.4l-6.3,3l-.2,-.4h.2l6.3,2.8l-.2,.4l-.1,-.2v-2.8Z" class="g1_300"/>
<path d="M650.4,400.6h.3v-2.9h-.3Z" class="g1_300"/>
<path d="M650.7,400.8h.1v-.4h-.1Z" class="g1_300"/>
<path d="M650.8,400.8H688v-.4H650.8Z" class="g1_300"/>
<path d="M349.4,472.4h.4v-26h-.4Z" class="g1_300"/>
<path d="M325.1,446.4v3.1l-.2,-.1l-6.3,-2.8l-.3,-.2l.3,-.2l6.3,-2.9l.2,-.1v.3l-.1,.2l-6.2,2.9l-.2,-.4h.2l6.2,2.9l-.1,.3l-.1,-.1v-2.9Z" class="g1_300"/>
<path d="M324.8,446.4h.3v-2.9h-.3Z" class="g1_300"/>
<path d="M325,446.6h.2v-.4H325Z" class="g1_300"/>
<path d="M325.2,446.6h24.6v-.4H325.2Z" class="g1_300"/>
</svg>