<?xml version="1.0" encoding="UTF-8" standalone="no"?>
<!DOCTYPE svg PUBLIC "-//W3C//DTD SVG 1.1//EN"
"http://www.w3.org/Graphics/SVG/1.1/DTD/svg11.dtd">
<svg viewBox="0 0 811 1017" version="1.1" xmlns="http://www.w3.org/2000/svg" xmlns:xlink="http://www.w3.org/1999/xlink">
<defs>
<clipPath id="c0_132"><path d="M363.1,724.7V627H490v97.7Z"/></clipPath>
<style type="text/css"><![CDATA[
.g0_132{
fill: #0E0E0E;
}
]]></style>
</defs>
<path d="M380.7,464.9c0,-.5,-.5,-.9,-1,-.9c-.3,0,-.7,.1,-1,.3c-.3,.2,-.6,.5,-.8,.9c0,-.7,-.4,-1.2,-1.1,-1.2c-1.1,0,-2.1,1.2,-2.4,1.9l.2,.2c.3,-.5,1.1,-1.7,2,-1.7c.2,0,.4,.5,.4,.9c0,.3,-.1,.7,-.3,1.2l-.3,1.2c-.2,.5,-.4,1.3,-.7,1.7c-.2,.3,-.4,.7,-.8,.7c-.4,0,-.7,-.1,-.6,-.5c0,-.3,0,-.7,-.4,-.7c-.5,0,-.7,.3,-.7,.7c0,.6,.5,1,1.1,1c1,0,1.7,-.8,2.1,-1.5v.1c.1,.8,.6,1.4,1.4,1.4c1.2,0,2,-1.2,2.4,-1.8l-.2,-.2c-.4,.6,-1.1,1.6,-1.9,1.6c-.5,0,-.7,-.6,-.7,-1.2c0,-.3,.1,-.8,.2,-1.3l.2,-.8c.1,-.5,.3,-1.2,.6,-1.6c.2,-.3,.6,-.9,.9,-.9c.5,0,.4,.3,.4,.6c0,.4,.1,.6,.5,.6c.3,0,.5,-.3,.5,-.7Z" class="g0_132"/>
<path d="M384.8,469.6c0,.6,-.3,1.4,-.7,1.8c-.4,.4,-1.1,.8,-1.7,.9l1,-4c.1,0,.2,0,.2,0c.1,0,.2,0,.3,0c.7,0,.9,.6,.9,1.3Zm-2.2,-1l-1.5,5.7c-.2,.4,-.4,.4,-.9,.4v.2h2.5v-.2c-.5,0,-.9,0,-.9,-.4c0,0,0,-.1,0,-.1c.1,-.1,.1,-.2,.1,-.2l.4,-1.5c.9,-.1,1.7,-.5,2.3,-1c.5,-.4,1,-1.1,1,-2c0,-1,-.6,-1.5,-1.6,-1.5c-.2,0,-.3,0,-.5,0l.3,-1.1h-.7l-.4,1.3c-.3,.2,-.6,.4,-.8,.6c-.3,.2,-.5,.4,-.7,.6l.2,.2c.3,-.4,.8,-.8,1.2,-1Z" class="g0_132"/>
<path d="M391.8,468.6h7.6v-.9h-7.6Zm0,-3h7.6v-.9h-7.6Z" class="g0_132"/>
<path d="M410.5,453.9c-.5,0,-.9,.1,-1.3,.4c-.5,.3,-.9,.7,-1.3,1.2c-.6,.7,-1.2,1.9,-1.2,3.2c0,1,.4,1.8,1.3,1.8c1.3,0,1.8,-.9,2.2,-1.6c-.2,.9,-.1,1.6,.5,1.6c.4,0,.8,-.2,1.2,-.5c.4,-.3,.7,-.8,1.1,-1.4l-.2,-.1c-.3,.4,-.9,1.3,-1.4,1.3c-.2,0,-.2,-.3,-.2,-.5c0,-.9,.6,-2.5,.9,-3.5l.7,-1.8h-1l-.3,.7c-.1,-.5,-.4,-.8,-1,-.8Zm.1,.3c.7,0,.6,1.3,.5,1.8c-.1,.4,-.2,.7,-.3,1c-.4,1.2,-1.5,3.1,-2.3,3.1c-.6,0,-.8,-.9,-.8,-1.4c0,-.4,0,-.9,.2,-1.4c.4,-1,1.4,-3.1,2.7,-3.1Z" class="g0_132"/>
<path d="M421.1,454.8c0,-.5,-.5,-.9,-1,-.9c-.3,0,-.7,.1,-1,.3c-.3,.2,-.6,.5,-.8,.9c0,-.7,-.4,-1.2,-1.1,-1.2c-1.1,0,-2.1,1.2,-2.4,1.9l.2,.2c.3,-.5,1.1,-1.7,2,-1.7c.2,0,.4,.5,.4,.9c0,.3,-.1,.7,-.3,1.2l-.3,1.2c-.2,.5,-.4,1.3,-.7,1.7c-.2,.3,-.4,.7,-.8,.7c-.4,0,-.7,-.1,-.6,-.5c.1,-.3,0,-.7,-.4,-.7c-.5,0,-.7,.3,-.7,.7c0,.6,.5,1,1.1,1c1,0,1.7,-.8,2.1,-1.5v.1c.2,.8,.6,1.4,1.4,1.4c1.2,0,2,-1.2,2.4,-1.8l-.2,-.2c-.4,.6,-1.1,1.6,-1.9,1.6c-.5,0,-.7,-.6,-.7,-1.2c0,-.3,.1,-.8,.2,-1.3l.2,-.8c.1,-.5,.3,-1.2,.6,-1.6c.2,-.3,.6,-.9,.9,-.9c.5,0,.4,.3,.4,.6c0,.4,.1,.6,.5,.6c.3,0,.5,-.3,.5,-.7Z" class="g0_132"/>
<path d="M424.2,455.9c0,-.3,-.3,-.6,-.6,-.6c-.3,0,-.5,.3,-.5,.6c0,.3,.3,.5,.5,.5c.3,0,.6,-.2,.6,-.5Zm-2.1,6.8c1,0,1.5,-.9,1.8,-1.4l-.2,-.1c-.2,.2,-.6,1,-1,1c-.1,0,-.2,-.2,-.2,-.3c0,-.2,.1,-.6,.2,-.8l.7,-2c.1,-.3,.1,-.5,.1,-.6c0,-.4,0,-.6,-.3,-.6c-.7,0,-1.5,.8,-1.8,1.3l.2,.1c.2,-.2,.6,-.8,.8,-.8c.2,0,.3,.1,.3,.2c0,.2,-.1,.5,-.2,.7l-.7,2.1c-.1,.2,-.2,.5,-.2,.6c0,.4,.2,.6,.5,.6Z" class="g0_132"/>
<path d="M432.7,456.1h-3.2v1h3.2v3.3h1v-3.3H437v-1h-3.3v-3.3h-1v3.3Z" class="g0_132"/>
<path d="M444.7,454.2c1.3,0,1,1.9,.4,3.2c-.3,.9,-1.3,2.8,-2.4,2.8c-.5,0,-.7,-.3,-.7,-1c0,-.7,.3,-1.8,.5,-2.4c.3,-.6,.8,-1.5,1.2,-2c.2,-.3,.6,-.6,1,-.6Zm-.1,-4.7h-2.1v.3c.6,0,.9,.2,.9,.5c0,.2,-.2,.6,-.2,.8l-1.6,5.7c-.2,.5,-.3,.9,-.4,1.3c-.1,.4,-.1,.7,-.1,.9c0,.9,.5,1.5,1.4,1.5c1.7,0,2.9,-1.5,3.5,-2.6c.3,-.6,.6,-1.4,.6,-2.3c0,-1,-.5,-1.7,-1.5,-1.7c-.9,0,-1.6,.5,-2,1.2V455l1.5,-5.5Z" class="g0_132"/>
<path d="M446.6,462.5c0,.6,.5,1,1.1,1c.4,0,.8,-.2,1.3,-.6c.8,-.7,2,-2.2,2.8,-3.4c.4,-.7,.7,-1.3,1,-1.8c.4,-.8,1.1,-2.2,1.1,-3c0,-.2,0,-.4,-.1,-.6c-.1,-.2,-.3,-.2,-.5,-.2c-.1,0,-.3,.1,-.4,.2c-.2,.1,-.2,.3,-.2,.6c0,.5,.2,1,.2,1.4c0,.5,-.2,1.1,-.4,1.5c-.3,.5,-.5,.9,-.9,1.5l-.4,-2c-.1,-.5,-.3,-1.6,-.4,-2c-.2,-.7,-.3,-1.2,-1.3,-1.2c-1.2,0,-1.4,1.8,-1.6,2.5l.3,.1c.1,-.5,.6,-2.3,1,-2.3c.3,0,.5,1.1,.6,1.3c0,.3,.1,.7,.2,1.4l.6,3.5c-.3,.8,-1.1,1.6,-1.8,2.1c-.2,.2,-.5,.3,-.7,.3c-.1,0,-.1,-.1,-.2,-.2c-.2,-.2,-.2,-.7,-.7,-.7c-.4,0,-.6,.2,-.6,.6Z" class="g0_132"/>
<path d="M457.1,455.9c0,-.3,-.2,-.6,-.5,-.6c-.3,0,-.6,.3,-.6,.6c0,.3,.3,.5,.6,.5c.2,0,.5,-.2,.5,-.5Zm-2,6.8c.9,0,1.4,-.9,1.7,-1.4l-.2,-.1c-.1,.2,-.5,1,-1,1c-.1,0,-.2,-.2,-.2,-.3c0,-.2,.1,-.6,.2,-.8l.7,-2c.1,-.3,.1,-.5,.1,-.6c0,-.4,0,-.6,-.3,-.6c-.7,0,-1.5,.8,-1.8,1.3l.3,.1c.1,-.2,.5,-.8,.8,-.8c.1,0,.2,.1,.2,.2c0,.2,-.1,.5,-.2,.7l-.7,2.1c-.1,.2,-.1,.5,-.1,.6c0,.4,.1,.6,.5,.6Z" class="g0_132"/>
<path d="M465.7,456.1h-3.3v1h3.3v3.3h.9v-3.3h3.3v-1h-3.3v-3.3h-.9v3.3Z" class="g0_132"/>
<path d="M475,458.5c0,-.4,.1,-.9,.2,-1.4c.3,-1,1.1,-2.9,2.2,-2.9c.4,0,.4,.2,.4,.3c0,.1,-.1,.2,-.1,.4c0,.4,.2,.6,.5,.6c.4,0,.6,-.2,.6,-.6c0,-.7,-.6,-1,-1.3,-1c-1.4,0,-2.5,1.4,-3.1,2.5c-.3,.6,-.5,1.3,-.5,2.1c0,1.1,.6,2,1.7,2c1.2,0,2.1,-1.1,2.6,-2.1l-.3,-.1c-.5,1,-1.2,1.9,-2.1,1.9c-.6,0,-.8,-1,-.8,-1.7Z" class="g0_132"/>
<path d="M405.9,467h73.7v-.8H405.9Z" class="g0_132"/>
<path d="M408.5,477.4c0,-1.4,.6,-2.9,1.7,-2.9c.7,0,.9,.7,.9,1.2c0,1.5,-.6,2.8,-1.7,2.9c-.6,0,-.9,-.7,-.9,-1.2Zm3.4,-2.4q.2,-.1,.4,-.1q.2,0,.3,0c.2,.2,.3,.7,.7,.7c.3,0,.5,-.3,.5,-.6c0,-.4,-.5,-.8,-.9,-.8c-.4,0,-.8,.2,-1.1,.6c-.4,-.4,-.9,-.6,-1.5,-.6c-.9,0,-1.5,.4,-2,.8c-.4,.5,-.8,1.1,-.8,1.9c0,.7,.2,1.3,.8,1.7v.1c-.5,.1,-.8,.3,-1,.4c-.2,.2,-.3,.4,-.3,.6c0,.4,.1,.7,.5,.9c.4,.2,1.1,.3,1.9,.5c.5,.1,.9,.2,1.2,.4c.2,.2,.4,.4,.4,.6c0,.8,-1.1,1.4,-2.2,1.4c-1.3,0,-2,-.5,-2,-1.3c0,-.5,.3,-.9,.7,-1.1c-.2,-.1,-.3,-.1,-.6,-.1c-.6,0,-1,.5,-1,1.1c0,.3,0,.5,.1,.7c.5,.7,1.5,1,2.7,1c1,0,1.8,-.2,2.4,-.6c.4,-.3,.7,-.7,.7,-1.5c0,-.8,-1.1,-1.3,-1.7,-1.5c-.5,-.1,-1.1,-.3,-1.6,-.5c-.2,0,-.2,-.2,-.2,-.3c0,-.4,.6,-.4,1,-.5c1.7,-.1,2.7,-1.2,2.7,-3c0,-.3,0,-.6,-.1,-.9Z" class="g0_132"/>
<path d="M421.6,475.2c0,-.6,-.4,-1,-1,-1c-.3,0,-.6,.1,-.9,.4c-.3,.2,-.6,.5,-.9,.8c0,-.6,-.4,-1.2,-1,-1.2c-1.1,0,-2.1,1.2,-2.5,2l.3,.1c.3,-.5,1,-1.7,1.9,-1.7c.3,0,.4,.5,.4,1c0,.3,0,.6,-.2,1.1l-.3,1.2c-.2,.6,-.4,1.4,-.7,1.8c-.2,.2,-.5,.7,-.8,.7c-.5,0,-.8,-.1,-.7,-.5c.1,-.4,.1,-.8,-.4,-.8c-.4,0,-.6,.3,-.6,.8c0,.5,.5,.9,1.1,.9c1,0,1.7,-.8,2.1,-1.4c.1,.8,.5,1.4,1.4,1.4c1.1,0,2,-1.1,2.4,-1.8l-.2,-.2c-.5,.6,-1.2,1.7,-2,1.7c-.4,0,-.6,-.7,-.6,-1.3c0,-.3,0,-.7,.2,-1.3l.2,-.7c.1,-.6,.3,-1.3,.6,-1.6c.2,-.3,.5,-1,.9,-1c.4,0,.4,.3,.4,.6c-.1,.4,.1,.6,.4,.6c.4,0,.5,-.3,.5,-.6Z" class="g0_132"/>
<path d="M424.8,476.2c0,-.3,-.3,-.5,-.6,-.5c-.3,0,-.5,.2,-.5,.5c0,.3,.2,.6,.5,.6c.3,0,.6,-.3,.6,-.6Zm-2.1,6.8c1,0,1.5,-.8,1.8,-1.4l-.2,-.1c-.2,.2,-.6,1,-1,1c-.1,0,-.3,-.1,-.3,-.2c0,-.3,.2,-.7,.2,-.8l.7,-2.1c.2,-.3,.2,-.4,.2,-.6c0,-.3,0,-.6,-.4,-.6c-.7,0,-1.5,.8,-1.7,1.3l.2,.2c.2,-.2,.6,-.9,.8,-.9c.2,0,.2,.2,.2,.3c0,.2,-.1,.5,-.1,.7l-.8,2c0,.3,-.1,.5,-.1,.6c0,.4,.1,.6,.5,.6Z" class="g0_132"/>
<path d="M433.3,476.4h-3.2v1h3.2v3.3h1v-3.3h3.2v-1h-3.2v-3.2h-1v3.2Z" class="g0_132"/>
<path d="M445.2,480.8c1.3,0,2,-1,2.4,-1.7l-.2,-.2c-.3,.4,-.8,1.3,-1.4,1.3c-.2,0,-.3,-.4,-.3,-.6c0,-.3,1.1,-3.6,1.1,-4.1c0,-.8,-.3,-1.3,-1.1,-1.3c-.3,0,-.9,.1,-1.3,.3c-.3,.2,-.6,.5,-.8,.9l-.1,.1l1.5,-5.7l-2.2,.1v.2c.4,0,.6,.1,.7,.2c.2,.1,.3,.4,.3,.5c0,.3,-.1,.7,-.2,.9l-2.5,9h.9c.5,-1.7,1.1,-3.7,1.9,-5c.3,-.6,.8,-1.1,1.5,-1.1c.6,0,.5,.9,.3,1.4c0,.2,-.1,.5,-.3,1c-.5,1.6,-.8,2.4,-.8,3.1c0,.4,.2,.7,.6,.7Z" class="g0_132"/>
<path d="M447.3,482.9c0,.5,.5,.9,1.1,.9c.5,0,.9,-.2,1.3,-.6c.9,-.6,2.1,-2.2,2.8,-3.4c.4,-.6,.8,-1.2,1.1,-1.8c.4,-.8,1.1,-2.1,1.1,-2.9c0,-.2,-.1,-.4,-.1,-.6c-.1,-.2,-.3,-.3,-.5,-.3c-.2,0,-.3,.1,-.4,.2c-.2,.2,-.3,.4,-.3,.7c0,.4,.3,.9,.3,1.3c0,.6,-.3,1.1,-.5,1.6c-.2,.5,-.5,.9,-.8,1.4h-.1l-.3,-1.9c-.1,-.6,-.3,-1.6,-.4,-2.1c-.2,-.6,-.4,-1.2,-1.4,-1.2c-1.1,0,-1.3,1.8,-1.6,2.6l.4,.1c.1,-.6,.5,-2.3,1,-2.3c.3,0,.5,1,.5,1.2c.1,.3,.2,.7,.3,1.4l.6,3.5c-.4,.8,-1.2,1.7,-1.8,2.1c-.2,.2,-.5,.3,-.7,.3c-.1,0,-.2,-.1,-.2,-.1c-.3,-.3,-.3,-.8,-.7,-.8c-.4,0,-.7,.3,-.7,.7Z" class="g0_132"/>
<path d="M457.9,476.2c0,-.3,-.3,-.5,-.6,-.5c-.3,0,-.5,.2,-.5,.5c0,.3,.2,.6,.5,.6c.3,0,.6,-.3,.6,-.6Zm-2.1,6.8c1,0,1.5,-.8,1.8,-1.4l-.2,-.1c-.2,.2,-.6,1,-1,1c-.1,0,-.3,-.1,-.3,-.2c0,-.3,.2,-.7,.2,-.8l.8,-2.1c.1,-.3,.1,-.4,.1,-.6c0,-.3,0,-.6,-.4,-.6c-.6,0,-1.5,.8,-1.7,1.3l.2,.2c.2,-.2,.6,-.9,.8,-.9c.2,0,.2,.2,.2,.3c.1,.2,0,.5,-.1,.7l-.7,2c-.1,.3,-.2,.5,-.2,.6c0,.4,.2,.6,.5,.6Z" class="g0_132"/>
<path d="M466.4,476.4h-3.2v1h3.2v3.3h1v-3.3h3.3v-1h-3.3v-3.2h-1v3.2Z" class="g0_132"/>
<path d="M478.6,471.5c0,-.4,-.4,-.8,-.8,-.8c-.4,0,-.8,.4,-.8,.8c0,.4,.4,.8,.8,.8c.4,0,.8,-.4,.8,-.8Zm-2.9,9.3c1.4,0,2.1,-1.1,2.4,-1.9l-.2,-.2c-.2,.4,-.8,1.5,-1.4,1.5c-.2,0,-.3,-.3,-.3,-.4c0,-.3,.2,-.9,.2,-1.1l1,-2.8c.2,-.4,.2,-.6,.2,-.9c0,-.4,0,-.8,-.5,-.8c-.9,0,-2,1.1,-2.3,1.9l.2,.1c.2,-.3,.8,-1.1,1.2,-1.1c.2,0,.2,.2,.2,.3c.1,.3,-.1,.7,-.2,.9l-1,2.8c-.1,.4,-.1,.7,-.1,.9c0,.5,.1,.8,.6,.8Z" class="g0_132"/>
<path d="M372.4,527c0,.6,.4,1,1.1,1c.4,0,.8,-.2,1.3,-.6c.8,-.7,2,-2.2,2.8,-3.4c.3,-.7,.7,-1.3,1,-1.8c.4,-.8,1.1,-2.2,1.1,-3c0,-.2,0,-.4,-.1,-.6c-.1,-.2,-.3,-.2,-.5,-.2c-.2,0,-.3,.1,-.4,.2c-.2,.1,-.2,.3,-.2,.6c0,.5,.2,.9,.2,1.3c0,.6,-.2,1.2,-.5,1.6c-.2,.5,-.4,.9,-.8,1.5h-.1l-.3,-2c-.1,-.5,-.3,-1.6,-.4,-2c-.2,-.7,-.3,-1.2,-1.3,-1.2c-1.2,0,-1.4,1.7,-1.6,2.5l.3,.1c.1,-.5,.5,-2.3,1,-2.3c.3,0,.5,1,.5,1.3c.1,.3,.2,.7,.3,1.3l.6,3.6c-.3,.8,-1.2,1.6,-1.8,2.1c-.2,.2,-.5,.3,-.7,.3c-.1,0,-.2,-.1,-.2,-.2c-.2,-.3,-.2,-.7,-.7,-.7c-.4,0,-.6,.2,-.6,.6Z" class="g0_132"/>
<path d="M383.9,524c0,.6,-.3,1.4,-.7,1.8c-.4,.4,-1.1,.8,-1.7,.9l1,-4c.1,0,.2,0,.2,0c.1,-.1,.2,-.1,.3,-.1c.6,0,.9,.7,.9,1.4Zm-2.2,-1l-1.5,5.7c-.2,.4,-.4,.4,-.9,.4v.2h2.5v-.2c-.5,0,-.9,0,-.9,-.4c0,0,0,-.1,0,-.1c.1,-.1,.1,-.2,.1,-.2l.4,-1.5c.9,-.1,1.7,-.5,2.3,-1c.5,-.4,1,-1.1,1,-2c0,-1,-.6,-1.5,-1.6,-1.5c-.2,0,-.3,0,-.5,0l.3,-1.1h-.7l-.4,1.3c-.3,.2,-.6,.4,-.8,.6c-.3,.2,-.5,.4,-.7,.6l.1,.2c.4,-.4,.9,-.8,1.3,-1Z" class="g0_132"/>
<path d="M390.9,523h7.6v-.9h-7.6Zm0,-3h7.6v-.9h-7.6Z" class="g0_132"/>
<path d="M409.7,509.4c0,.6,-.2,1.6,-.4,2.1c-.2,.6,-.7,1.8,-1,2.2c-.3,.4,-.8,.9,-1.3,.9c-.5,0,-.8,-.5,-.8,-1c0,-.6,.2,-1.8,.4,-2.3c.4,-.9,1.3,-2.7,2.4,-2.7c.4,0,.7,.4,.7,.8Zm.2,5.5c.4,0,.8,-.2,1.1,-.6c.3,-.4,.6,-.9,.9,-1.7l-.4,-.1c-.2,.5,-.7,1.9,-1.2,1.9c-.3,0,-.4,-.5,-.4,-.8c0,-.1,0,-.3,.1,-.5c0,-.6,.2,-1.2,.4,-1.8c.1,-.5,.2,-1,.4,-1.7l1.5,-5.8h-2.2l-.1,.2c.5,.1,.6,.1,.7,.2c.2,.1,.4,.3,.4,.4c0,.3,-.2,.6,-.2,.9l-.9,3.4c-.3,-.4,-.5,-.6,-1.1,-.6c-1,0,-1.9,.9,-2.5,1.6c-.2,.3,-.4,.6,-.6,1c-.4,.5,-.6,1.3,-.6,2.1c0,.6,.1,1,.4,1.3c.2,.3,.6,.6,1,.6c1.4,0,1.9,-.9,2.4,-1.7v.1c0,0,0,.2,0,.2c0,.1,0,.2,0,.3c0,.6,.3,1.1,.9,1.1Z" class="g0_132"/>
<path d="M420.1,509.2c0,-.5,-.4,-.9,-.9,-.9c-.4,0,-.7,.1,-1,.3c-.3,.2,-.6,.5,-.8,.9c0,-.7,-.5,-1.2,-1.1,-1.2c-1.1,0,-2.1,1.2,-2.4,1.9l.2,.2c.3,-.5,1.1,-1.7,1.9,-1.7c.3,0,.4,.5,.4,.9c0,.3,0,.7,-.2,1.2l-.3,1.2c-.2,.5,-.4,1.3,-.7,1.7c-.2,.3,-.5,.7,-.8,.7c-.4,0,-.8,-.1,-.7,-.5c.1,-.3,.1,-.7,-.4,-.7c-.4,0,-.6,.3,-.6,.7c0,.6,.5,1,1.1,1c1,0,1.7,-.8,2.1,-1.5v.1c.1,.8,.5,1.4,1.4,1.4c1.1,0,2,-1.2,2.4,-1.9l-.2,-.1c-.5,.6,-1.1,1.6,-2,1.6c-.4,0,-.6,-.6,-.6,-1.2c0,-.3,.1,-.8,.2,-1.3l.2,-.8c.1,-.5,.3,-1.2,.6,-1.6c.2,-.3,.6,-.9,.9,-.9c.4,0,.4,.3,.4,.6c0,.4,.1,.6,.4,.6c.4,0,.5,-.3,.5,-.7Z" class="g0_132"/>
<path d="M423.3,510.3c0,-.3,-.3,-.6,-.6,-.6c-.3,0,-.5,.3,-.5,.6c0,.3,.2,.5,.5,.5c.3,0,.6,-.2,.6,-.5Zm-2.1,6.8c1,0,1.5,-.9,1.8,-1.4l-.2,-.1c-.2,.2,-.6,1,-1,1c-.1,0,-.3,-.2,-.3,-.3c0,-.2,.2,-.6,.2,-.8l.8,-2c.1,-.3,.1,-.5,.1,-.6c0,-.4,0,-.6,-.4,-.6c-.6,0,-1.5,.8,-1.7,1.3l.2,.1c.2,-.2,.6,-.8,.8,-.8c.2,0,.2,.1,.2,.2c.1,.2,0,.5,-.1,.7l-.7,2.1c-.1,.2,-.2,.5,-.2,.6c0,.4,.2,.6,.5,.6Z" class="g0_132"/>
<path d="M431.8,510.5h-3.2v1h3.2v3.3h1v-3.3h3.3v-1h-3.3v-3.3h-1v3.3Z" class="g0_132"/>
<path d="M443.9,508.6c.2,0,.5,.3,.5,.6c0,1.3,-1.7,2.3,-2.9,2.7c.2,-1,1.2,-3.3,2.4,-3.3Zm.1,-.3c-1.1,0,-2,.8,-2.6,1.5c-.6,.7,-1.1,1.8,-1.1,3.1c0,1.2,.4,2,1.6,2c1,0,2,-.8,2.6,-1.7l-.3,-.2c-.4,.6,-1.2,1.6,-2,1.6c-.6,0,-.9,-.6,-.9,-1.4c0,-.3,.1,-.7,.1,-1c1.5,-.3,3.9,-1.2,3.9,-2.9c0,-.7,-.6,-1,-1.3,-1Z" class="g0_132"/>
<path d="M444.9,516.9c0,.6,.5,1,1.1,1c.4,0,.8,-.2,1.3,-.6c.8,-.7,2,-2.2,2.8,-3.4c.4,-.7,.7,-1.3,1,-1.8c.4,-.8,1.1,-2.2,1.1,-3c0,-.2,0,-.4,-.1,-.6c-.1,-.2,-.3,-.2,-.5,-.2c-.1,0,-.3,.1,-.4,.2c-.2,.1,-.2,.3,-.2,.6c0,.5,.2,.9,.2,1.3c0,.6,-.2,1.2,-.5,1.6c-.2,.5,-.4,.9,-.8,1.5h-.1l-.3,-2c-.1,-.5,-.3,-1.6,-.4,-2c-.2,-.7,-.3,-1.2,-1.3,-1.2c-1.2,0,-1.4,1.7,-1.6,2.5l.3,.1c.1,-.5,.5,-2.3,1,-2.3c.3,0,.5,1,.6,1.3c0,.3,.1,.7,.2,1.4l.6,3.5c-.3,.8,-1.2,1.6,-1.8,2.1c-.2,.2,-.5,.3,-.7,.3c-.1,0,-.2,-.1,-.2,-.2c-.2,-.3,-.2,-.7,-.7,-.7c-.4,0,-.6,.2,-.6,.6Z" class="g0_132"/>
<path d="M455.4,510.3c0,-.3,-.2,-.6,-.6,-.6c-.3,0,-.5,.3,-.5,.6c0,.3,.3,.5,.5,.5c.3,0,.6,-.2,.6,-.5Zm-2.1,6.8c1,0,1.5,-.9,1.8,-1.4l-.2,-.1c-.2,.2,-.6,1,-1,1c-.1,0,-.2,-.2,-.2,-.3c0,-.2,.1,-.6,.2,-.8l.7,-2c.1,-.3,.1,-.5,.1,-.6c0,-.4,0,-.6,-.3,-.6c-.7,0,-1.5,.8,-1.8,1.3l.2,.1c.2,-.2,.6,-.8,.9,-.8c.1,0,.2,.1,.2,.2c0,.2,-.1,.5,-.2,.7l-.7,2.1c-.1,.2,-.1,.5,-.1,.6c0,.4,.1,.6,.4,.6Z" class="g0_132"/>
<path d="M463.9,510.5h-3.2v1h3.2v3.3h1v-3.3h3.3v-1h-3.3v-3.3h-1v3.3Z" class="g0_132"/>
<path d="M472.7,517.6c-.3,0,-.4,-.2,-.5,-.5c0,-.3,-.1,-.5,-.5,-.5c-.2,0,-.3,.2,-.3,.4c0,.6,.7,.9,1.2,.9c.9,0,.9,-.3,1.3,-.8c.3,-.3,.4,-.7,.6,-1.2c.2,-.5,.5,-1.2,.7,-2l1.4,-5.2h1.2l.1,-.3h-1.2c.3,-1.2,.7,-3.2,1.1,-3.8c.1,-.2,.4,-.5,.7,-.5c.3,0,.5,.2,.5,.5c.1,.3,.2,.5,.5,.5c.3,0,.4,-.2,.4,-.4c0,-.6,-.7,-.9,-1.2,-.9c-1.9,.1,-2.6,3,-3,4.6h-1.3v.3h1.2l-2,7.4c-.1,.4,-.4,1.5,-.9,1.5Z" class="g0_132"/>
<path d="M405,521.4h75.5v-.8H405Z" class="g0_132"/>
<path d="M408.5,531.8c0,-1.4,.6,-2.9,1.7,-2.9c.7,0,.9,.7,.9,1.2c0,1.5,-.6,2.8,-1.7,2.8c-.6,0,-.9,-.6,-.9,-1.1Zm.2,6.4h.1c.9,0,1.7,-.2,2.3,-.6c.4,-.3,.7,-.7,.7,-1.5c0,-.8,-1.1,-1.3,-1.7,-1.5c-.5,-.1,-1.1,-.3,-1.6,-.5c-.2,0,-.2,-.2,-.2,-.3c0,-.4,.6,-.4,1,-.5c1.7,-.1,2.8,-1.2,2.8,-3c0,-.3,-.1,-.6,-.2,-.9q.2,-.1,.5,-.1q.1,0,.2,0c.2,.2,.3,.7,.7,.7c.3,0,.5,-.3,.5,-.6c0,-.4,-.5,-.8,-.9,-.8c-.4,0,-.8,.2,-1.1,.6c-.4,-.4,-.9,-.6,-1.5,-.6c-.9,0,-1.5,.4,-1.9,.8c-.5,.5,-.9,1.1,-.9,1.9c0,.7,.2,1.3,.8,1.7v.1c-.5,.1,-.8,.3,-1,.4c-.2,.2,-.3,.4,-.3,.6c0,.4,.1,.7,.5,.9c.4,.1,1.1,.3,1.9,.5c.5,.1,.9,.2,1.2,.4c.2,.2,.4,.4,.4,.6c0,.8,-1.1,1.4,-2.2,1.4c-1.2,0,-2,-.5,-2,-1.3c0,-.5,.3,-.9,.7,-1.1c-.2,-.1,-.3,-.1,-.6,-.1c-.6,0,-1,.5,-1,1.1c0,.3,0,.5,.1,.7c.5,.7,1.4,1,2.7,1Z" class="g0_132"/>
<path d="M421.6,529.6c0,-.6,-.4,-1,-1,-1c-.3,0,-.6,.1,-.9,.4c-.3,.2,-.6,.5,-.9,.8c0,-.6,-.4,-1.2,-1,-1.2c-1.1,0,-2.1,1.2,-2.4,2l.2,.1c.3,-.5,1,-1.7,1.9,-1.7c.3,0,.4,.5,.4,1c0,.3,0,.6,-.2,1.1l-.3,1.2c-.2,.6,-.4,1.4,-.7,1.8c-.2,.2,-.5,.6,-.8,.6c-.5,0,-.8,0,-.7,-.4c.1,-.4,.1,-.8,-.4,-.8c-.4,0,-.6,.3,-.6,.8c0,.5,.5,.9,1.1,.9c1,0,1.7,-.8,2.1,-1.4c.1,.8,.5,1.4,1.4,1.4c1.1,0,2,-1.1,2.4,-1.8l-.2,-.2c-.5,.6,-1.2,1.7,-2,1.7c-.4,0,-.6,-.7,-.6,-1.3c0,-.3,0,-.8,.2,-1.3l.2,-.7c.1,-.6,.3,-1.3,.6,-1.7c.2,-.2,.5,-.9,.9,-.9c.4,0,.4,.3,.4,.6c-.1,.4,.1,.6,.4,.6c.4,0,.5,-.3,.5,-.6Z" class="g0_132"/>
<path d="M424.8,530.6c0,-.3,-.3,-.5,-.6,-.5c-.3,0,-.5,.2,-.5,.5c0,.3,.2,.6,.5,.6c.3,0,.6,-.3,.6,-.6Zm-2.1,6.8c1,0,1.5,-.8,1.8,-1.4l-.2,-.1c-.2,.2,-.6,1,-1,1c-.1,0,-.3,-.1,-.3,-.2c0,-.3,.2,-.7,.2,-.8l.8,-2.1c.1,-.3,.1,-.4,.1,-.6c0,-.3,0,-.6,-.4,-.6c-.6,0,-1.5,.8,-1.7,1.3l.2,.2c.2,-.3,.6,-.9,.8,-.9c.2,0,.2,.2,.2,.3c0,.1,0,.5,-.1,.6l-.8,2.1c0,.3,-.1,.5,-.1,.6c0,.4,.1,.6,.5,.6Z" class="g0_132"/>
<path d="M433.3,530.8h-3.2v1h3.2v3.3h1v-3.3h3.2v-1h-3.2v-3.2h-1v3.2Z" class="g0_132"/>
<path d="M445.2,535.2c1.3,0,2,-1,2.4,-1.7l-.2,-.2c-.3,.4,-.8,1.3,-1.4,1.3c-.2,0,-.3,-.4,-.3,-.6c0,-.3,1.1,-3.6,1.1,-4.1c0,-.8,-.3,-1.3,-1.1,-1.3c-.3,0,-.9,.1,-1.3,.3c-.3,.2,-.6,.5,-.8,.9l-.1,.1l1.5,-5.7l-2.2,.1v.2c.4,0,.6,.1,.7,.2c.2,.1,.3,.4,.3,.5c0,.3,-.1,.6,-.2,.9l-2.5,9h.9c.5,-1.7,1.1,-3.7,1.9,-5c.3,-.6,.9,-1.1,1.6,-1.1c.5,0,.4,.9,.3,1.4c-.1,.2,-.2,.5,-.3,1c-.6,1.6,-.9,2.4,-.9,3.1c0,.4,.2,.7,.6,.7Z" class="g0_132"/>
<path d="M447.4,537.3c0,.5,.4,.9,1,.9h.1c.4,0,.8,-.2,1.2,-.6c.9,-.7,2.1,-2.2,2.9,-3.4c.3,-.6,.7,-1.2,1,-1.8c.4,-.8,1.1,-2.1,1.1,-2.9c0,-.3,0,-.4,-.1,-.6c-.1,-.2,-.3,-.3,-.5,-.3c-.2,0,-.3,.1,-.4,.2c-.2,.2,-.3,.4,-.3,.7c0,.4,.3,.9,.3,1.3c0,.6,-.3,1.1,-.5,1.6c-.2,.5,-.4,.8,-.8,1.4h-.1l-.3,-1.9c-.1,-.6,-.3,-1.7,-.4,-2.1c-.2,-.7,-.4,-1.2,-1.3,-1.2c-1.2,0,-1.4,1.8,-1.7,2.6l.4,.1c.1,-.6,.5,-2.3,1,-2.3c.3,0,.5,1,.5,1.2c.1,.3,.2,.7,.3,1.4l.6,3.5c-.3,.8,-1.2,1.7,-1.8,2.1c-.2,.2,-.5,.3,-.7,.3c-.1,0,-.2,-.1,-.2,-.2c-.2,-.2,-.2,-.7,-.7,-.7c-.4,0,-.6,.3,-.6,.7Z" class="g0_132"/>
<path d="M457.9,530.6c0,-.3,-.3,-.5,-.6,-.5c-.3,0,-.5,.2,-.5,.5c0,.3,.2,.6,.5,.6c.3,0,.6,-.3,.6,-.6Zm-2.1,6.8c1,0,1.5,-.8,1.8,-1.4l-.2,-.1c-.2,.2,-.6,1,-1,1c-.1,0,-.3,-.1,-.3,-.2c0,-.3,.2,-.7,.2,-.8l.8,-2.1c.1,-.3,.1,-.4,.1,-.6c0,-.3,0,-.6,-.4,-.6c-.6,0,-1.4,.8,-1.7,1.3l.2,.2c.2,-.3,.6,-.9,.8,-.9c.2,0,.2,.2,.2,.3c.1,.1,0,.5,-.1,.6l-.7,2.1c-.1,.3,-.2,.5,-.2,.6c0,.4,.2,.6,.5,.6Z" class="g0_132"/>
<path d="M466.4,530.8h-3.2v1h3.2v3.3h1v-3.3h3.3v-1h-3.3v-3.2h-1v3.2Z" class="g0_132"/>
<path d="M478.6,525.9c0,-.4,-.4,-.8,-.8,-.8c-.4,0,-.7,.4,-.7,.8c0,.4,.3,.7,.7,.7c.4,0,.8,-.3,.8,-.7Zm-2.9,9.3c1.4,0,2.1,-1.1,2.4,-2l-.2,-.1c-.2,.4,-.8,1.5,-1.4,1.5c-.1,0,-.3,-.3,-.3,-.4c0,-.3,.2,-.9,.3,-1.1l.9,-2.8c.2,-.4,.2,-.6,.2,-.9c0,-.4,0,-.8,-.5,-.8c-.9,0,-2,1.1,-2.3,1.9l.2,.1c.3,-.3,.8,-1.1,1.2,-1.1c.2,0,.2,.2,.2,.3c.1,.3,-.1,.7,-.2,.9l-1,2.8c-.1,.4,-.1,.7,-.1,.9c0,.5,.1,.8,.6,.8Z" class="g0_132"/>
<path d="M373.7,642.7c0,-.6,-.4,-1,-.9,-1c-.4,0,-.7,.1,-1,.4c-.3,.2,-.6,.5,-.8,.8c0,-.6,-.5,-1.2,-1.1,-1.2c-1.1,0,-2.1,1.2,-2.4,2l.2,.1c.3,-.5,1.1,-1.7,1.9,-1.7c.3,0,.4,.5,.4,1c0,.3,0,.6,-.2,1.1l-.3,1.2c-.2,.6,-.4,1.4,-.7,1.8c-.2,.2,-.5,.7,-.8,.7c-.4,0,-.8,-.1,-.7,-.5c.1,-.3,.1,-.8,-.4,-.8c-.4,0,-.6,.3,-.6,.8c0,.5,.5,.9,1.1,.9c1,0,1.7,-.8,2.1,-1.4c.1,.8,.5,1.4,1.4,1.4c1.1,0,2,-1.1,2.4,-1.8l-.2,-.2c-.5,.6,-1.2,1.7,-2,1.7c-.4,0,-.6,-.7,-.6,-1.3c0,-.3,.1,-.7,.2,-1.3l.2,-.7c.1,-.6,.3,-1.3,.6,-1.6c.2,-.3,.6,-1,.9,-1c.4,0,.4,.3,.4,.6c0,.4,.1,.6,.4,.6c.4,0,.5,-.3,.5,-.6Z" class="g0_132"/>
<path d="M377.9,647.3c0,.6,-.4,1.4,-.7,1.8c-.5,.4,-1.1,.8,-1.8,.9l1.1,-4c.1,0,.2,0,.2,0c.1,0,.2,0,.3,0c.6,0,.9,.7,.9,1.3Zm-2.2,-1l-1.6,5.8c-.1,.3,-.3,.4,-.8,.4v.1h2.4l.1,-.1c-.5,0,-.9,-.1,-.9,-.4q0,-.1,0,-.2c0,0,.1,-.1,.1,-.2l.4,-1.4c.9,-.1,1.7,-.6,2.3,-1c.5,-.5,1,-1.2,1,-2.1c0,-.9,-.6,-1.5,-1.6,-1.5c-.2,0,-.3,0,-.5,.1l.3,-1.2h-.7l-.4,1.4c-.3,.1,-.6,.3,-.8,.5c-.3,.2,-.5,.4,-.8,.6l.2,.2c.4,-.3,.9,-.8,1.3,-1Z" class="g0_132"/>
<path d="M384.9,646.3h7.6v-.8h-7.6Zm0,-3h7.6v-.8h-7.6Z" class="g0_132"/>
<path d="M403.6,631.6c-.5,0,-.9,.2,-1.4,.5c-.4,.3,-.8,.6,-1.2,1.1c-.6,.8,-1.2,2,-1.2,3.3c0,1,.3,1.7,1.3,1.7c1.3,0,1.8,-.9,2.1,-1.5h.1c-.2,.9,-.1,1.5,.5,1.5c.4,0,.7,-.1,1.2,-.5c.3,-.3,.7,-.8,1,-1.3l-.1,-.2c-.3,.4,-1,1.4,-1.4,1.4c-.2,0,-.3,-.4,-.3,-.6c0,-.9,.6,-2.4,1,-3.4l.7,-1.9h-1l-.3,.7c-.2,-.5,-.5,-.8,-1,-.8Zm.1,.3c.7,0,.5,1.3,.4,1.9c0,.3,-.2,.6,-.3,1c-.3,1.1,-1.4,3.1,-2.2,3.1c-.6,0,-.8,-1,-.8,-1.5c0,-.4,0,-.8,.2,-1.3c.4,-1,1.4,-3.2,2.7,-3.2Z" class="g0_132"/>
<path d="M414.1,632.6c0,-.6,-.4,-1,-.9,-1c-.4,0,-.7,.2,-1,.4c-.3,.2,-.6,.5,-.8,.9c0,-.7,-.5,-1.3,-1.1,-1.3c-1.1,0,-2.1,1.2,-2.4,2l.2,.1c.3,-.5,1.1,-1.7,1.9,-1.7c.3,0,.4,.5,.4,1c0,.3,0,.6,-.2,1.1l-.3,1.2c-.2,.6,-.4,1.4,-.7,1.8c-.2,.2,-.5,.7,-.8,.7c-.4,0,-.8,-.1,-.7,-.5c.1,-.3,.1,-.8,-.4,-.8c-.4,0,-.6,.3,-.6,.8c0,.5,.5,.9,1.1,.9c1,0,1.7,-.8,2.1,-1.4c.1,.8,.5,1.4,1.4,1.4c1.1,0,2,-1.1,2.4,-1.8l-.2,-.2c-.5,.6,-1.1,1.7,-2,1.7c-.4,0,-.6,-.7,-.6,-1.3c0,-.3,.1,-.7,.2,-1.3l.2,-.7c.1,-.6,.3,-1.3,.6,-1.6c.2,-.3,.6,-1,.9,-1c.4,0,.4,.3,.4,.6c0,.4,.1,.6,.4,.6c.4,0,.5,-.3,.5,-.6Z" class="g0_132"/>
<path d="M417.3,633.6c0,-.3,-.3,-.5,-.6,-.5c-.3,0,-.5,.2,-.5,.5c0,.3,.2,.6,.5,.6c.3,0,.6,-.3,.6,-.6Zm-2.1,6.8c1,0,1.5,-.8,1.8,-1.4l-.2,-.1c-.2,.2,-.6,1,-1,1c-.1,0,-.3,-.1,-.3,-.2c0,-.3,.2,-.7,.2,-.8l.8,-2.1c.1,-.3,.1,-.4,.1,-.6c0,-.3,0,-.6,-.4,-.6c-.6,0,-1.5,.8,-1.7,1.3l.2,.2c.2,-.2,.6,-.9,.8,-.9c.2,0,.2,.2,.2,.3c.1,.2,0,.5,-.1,.7l-.7,2c-.1,.3,-.2,.5,-.2,.6c0,.4,.2,.6,.5,.6Z" class="g0_132"/>
<path d="M425.8,633.8h-3.2v1h3.2v3.3h1v-3.3h3.3v-1h-3.3v-3.2h-1v3.2Z" class="g0_132"/>
<path d="M437.8,632c1.2,0,.9,1.9,.4,3.2c-.3,.8,-1.3,2.7,-2.4,2.7c-.5,0,-.7,-.3,-.7,-1c0,-.7,.3,-1.8,.5,-2.3c.3,-.6,.7,-1.6,1.1,-2c.3,-.4,.7,-.6,1.1,-.6Zm-2.2,6.2c1.7,0,2.9,-1.5,3.5,-2.6c.3,-.6,.6,-1.4,.6,-2.3c0,-1,-.5,-1.7,-1.5,-1.7c-1,0,-1.6,.6,-2,1.2l1.5,-5.6l-2.1,.1v.2c.6,0,.8,.3,.8,.6c0,.2,-.1,.5,-.1,.7l-1.6,5.7c-.2,.5,-.3,1,-.4,1.3c-.1,.4,-.2,.7,-.2,.9c0,.9,.6,1.5,1.5,1.5Z" class="g0_132"/>
<path d="M439.7,640.3c0,.5,.4,.9,1.1,.9c.4,0,.8,-.2,1.3,-.6c.8,-.6,2,-2.2,2.8,-3.4c.3,-.6,.7,-1.2,1,-1.8c.4,-.8,1.1,-2.1,1.1,-2.9c0,-.2,0,-.4,-.1,-.6c-.1,-.2,-.3,-.3,-.5,-.3c-.1,0,-.3,.1,-.4,.2c-.2,.2,-.2,.4,-.2,.7c0,.4,.2,.9,.2,1.3c0,.6,-.2,1.1,-.5,1.6c-.2,.5,-.4,.9,-.8,1.4h-.1l-.3,-1.9c-.1,-.6,-.3,-1.6,-.4,-2.1c-.2,-.6,-.3,-1.2,-1.3,-1.2c-1.2,0,-1.4,1.8,-1.6,2.6l.3,.1c.1,-.6,.5,-2.3,1,-2.3c.3,0,.5,1,.6,1.2c0,.3,.1,.7,.2,1.4l.6,3.5c-.3,.8,-1.2,1.7,-1.8,2.2c-.2,.1,-.5,.2,-.7,.2c-.1,0,-.2,-.1,-.2,-.1c-.2,-.3,-.2,-.8,-.7,-.8c-.4,0,-.6,.3,-.6,.7Z" class="g0_132"/>
<path d="M450.2,633.6c0,-.3,-.3,-.5,-.6,-.5c-.3,0,-.5,.2,-.5,.5c0,.3,.3,.6,.5,.6c.3,0,.6,-.3,.6,-.6Zm-2.1,6.8c1,0,1.5,-.8,1.8,-1.4l-.2,-.1c-.2,.2,-.6,1,-1,1c-.1,0,-.2,-.1,-.2,-.2c0,-.3,.1,-.7,.2,-.8l.7,-2.1c.1,-.3,.1,-.4,.1,-.6c0,-.3,0,-.6,-.3,-.6c-.7,0,-1.5,.8,-1.8,1.3l.2,.2c.2,-.2,.6,-.9,.8,-.9c.2,0,.3,.2,.3,.3c0,.2,-.1,.5,-.2,.7l-.7,2c-.1,.3,-.2,.5,-.2,.6c0,.4,.2,.6,.5,.6Z" class="g0_132"/>
<path d="M458.7,633.8h-3.2v1h3.2v3.3h1v-3.3H463v-1h-3.3v-3.2h-1v3.2Z" class="g0_132"/>
<path d="M468.1,636.3c0,-.5,0,-1,.2,-1.5c.3,-.9,1.1,-2.9,2.2,-2.9c.3,0,.4,.2,.4,.3c0,.2,-.2,.2,-.2,.4c0,.4,.2,.6,.6,.6c.4,0,.6,-.2,.6,-.6c0,-.7,-.6,-1,-1.3,-1c-1.4,0,-2.5,1.5,-3.1,2.5c-.3,.6,-.6,1.3,-.6,2.2c0,1.1,.7,1.9,1.8,1.9c1.2,0,2.1,-1,2.6,-2L471,636c-.5,1,-1.2,1.9,-2.1,1.9c-.6,0,-.8,-1,-.8,-1.6Z" class="g0_132"/>
<path d="M477.9,635.6c0,-.3,-.1,-.8,-.1,-1.1c0,-.2,0,-.5,.1,-.7c.1,-.4,.3,-1.5,.7,-1.5c.3,0,.3,.5,.3,.8c0,.9,-.6,1.9,-1,2.5Zm-2.7,-3c0,0,-1.7,2.3,-1.7,4c0,.8,.5,1.6,1.4,1.6c1.1,0,1.8,-.6,2.3,-1.3c.2,.7,.6,1.3,1.4,1.3c2.2,0,3.5,-4.1,3.6,-5.4c0,-.7,-.2,-1.2,-.8,-1.2c-.4,0,-.6,.3,-.6,.7c0,.7,.5,1.2,.5,2c-.1,1,-1.2,3.5,-2.3,3.5c-.6,0,-.9,-1.2,-1,-1.8c.5,-.6,.9,-1.3,1.1,-1.9c.2,-.6,.3,-1.1,.3,-1.5c0,-.5,-.2,-1,-.7,-1c-.2,0,-.4,.1,-.6,.3c-.6,.7,-1.1,1.9,-1.1,3.2c0,.2,0,.3,0,.5c0,.2,.1,.8,.1,1c-.3,.3,-.7,.7,-1,.9c-.2,.2,-.5,.3,-.7,.3c-.6,0,-.7,-.6,-.7,-1.3c0,-1.7,.5,-3.1,1.2,-4.2c.1,-.2,.5,-.4,.5,-.5c0,-.1,-.1,-.2,-.2,-.2c-.1,0,-.2,.1,-.2,.1c-.1,.1,-.2,.2,-.3,.3c-.2,.1,-.3,.2,-.5,.2c-.2,0,-.4,-.1,-.6,-.2c-.2,-.3,-.4,-.4,-.7,-.4c-.6,0,-1.3,.6,-1.3,1.1c0,.4,.3,.6,.6,.6c.3,0,.4,-.2,.4,-.5c0,-.2,-.2,-.2,-.2,-.4c0,-.1,0,-.2,.2,-.2c.4,0,.6,.4,.8,.5c.2,.1,.3,0,.6,0l.2,-.1Z" class="g0_132"/>
<path d="M485.4,633.6c0,-.3,-.2,-.5,-.5,-.5c-.3,0,-.6,.2,-.6,.5c0,.3,.3,.6,.6,.6c.2,0,.5,-.3,.5,-.6Zm-2,6.8c.9,0,1.4,-.8,1.7,-1.4l-.2,-.1c-.1,.2,-.5,1,-1,1c-.1,0,-.2,-.1,-.2,-.2c0,-.3,.1,-.7,.2,-.8l.7,-2.1c.1,-.3,.1,-.4,.1,-.6c0,-.3,0,-.6,-.3,-.6c-.7,0,-1.5,.8,-1.7,1.3l.2,.2c.1,-.2,.5,-.9,.8,-.9c.1,0,.2,.2,.2,.3c0,.2,-.1,.5,-.2,.7l-.7,2c-.1,.3,-.1,.5,-.1,.6c0,.4,.1,.6,.5,.6Z" class="g0_132"/>
<path d="M399,644.8h88v-.9H399Z" class="g0_132"/>
<path d="M401.5,655.1c0,-1.3,.7,-2.8,1.7,-2.8c.8,0,1,.6,1,1.1c0,1.5,-.7,2.9,-1.7,2.9c-.6,0,-1,-.6,-1,-1.2Zm3.5,-2.3c.2,-.1,.2,-.2,.4,-.2c.1,0,.2,0,.3,.1c.2,.1,.3,.6,.6,.6c.3,0,.6,-.3,.6,-.6c0,-.4,-.5,-.8,-1,-.8c-.3,0,-.7,.2,-1.1,.7c-.4,-.5,-.9,-.7,-1.4,-.7c-.9,0,-1.5,.4,-2,.8c-.4,.5,-.8,1.1,-.8,2c0,.7,.2,1.2,.8,1.6v.1c-.5,.2,-.8,.3,-1,.5c-.2,.1,-.3,.3,-.3,.6c0,.3,.1,.6,.5,.8c.4,.2,1,.4,1.9,.5c.5,.1,.9,.3,1.1,.4c.3,.2,.4,.4,.4,.6c0,.8,-1.1,1.4,-2.2,1.4c-1.2,0,-1.9,-.5,-1.9,-1.3c0,-.5,.3,-.8,.7,-1c-.3,-.1,-.3,-.2,-.6,-.2c-.6,0,-1.1,.5,-1.1,1.2c0,.2,0,.4,.2,.6c.5,.7,1.5,1,2.7,1c1,0,1.7,-.2,2.3,-.5c.5,-.4,.8,-.8,.8,-1.5c0,-.9,-1.1,-1.4,-1.7,-1.6c-.6,-.1,-1.2,-.3,-1.6,-.4c-.2,-.1,-.3,-.2,-.3,-.4c0,-.4,.6,-.4,1.1,-.4c1.7,-.2,2.7,-1.3,2.7,-3c0,-.4,0,-.7,-.1,-.9Z" class="g0_132"/>
<path d="M414.7,652.9c0,-.5,-.4,-1,-1,-1c-.3,0,-.6,.2,-.9,.4c-.3,.2,-.7,.5,-.9,.9c0,-.7,-.4,-1.3,-1,-1.3c-1.2,0,-2.1,1.2,-2.5,2l.2,.1c.4,-.5,1.1,-1.7,2,-1.7c.3,0,.4,.6,.4,1c0,.3,-.1,.7,-.2,1.2l-.3,1.1c-.2,.6,-.4,1.4,-.8,1.8c-.1,.3,-.4,.7,-.7,.7c-.5,0,-.8,-.1,-.7,-.5c.1,-.3,0,-.7,-.4,-.7c-.4,0,-.6,.3,-.6,.7c0,.6,.5,.9,1,.9c1.1,0,1.8,-.7,2.2,-1.4c.1,.8,.5,1.4,1.3,1.4c1.2,0,2.1,-1.1,2.5,-1.8l-.2,-.2c-.5,.7,-1.2,1.7,-2,1.7c-.4,0,-.6,-.6,-.6,-1.2c0,-.4,0,-.8,.2,-1.4l.1,-.7c.1,-.6,.4,-1.2,.7,-1.6c.1,-.3,.5,-1,.9,-1c.4,0,.4,.3,.4,.7c-.1,.4,.1,.5,.4,.5c.4,0,.5,-.2,.5,-.6Z" class="g0_132"/>
<path d="M417.9,654c0,-.3,-.3,-.6,-.6,-.6c-.3,0,-.6,.3,-.6,.6c0,.3,.3,.5,.6,.5c.3,0,.6,-.3,.6,-.5Zm-2.1,6.8c1,-.1,1.5,-.9,1.7,-1.5l-.2,-.1c-.1,.3,-.5,1.1,-1,1.1c-.1,0,-.2,-.2,-.2,-.3c0,-.2,.1,-.6,.2,-.8l.7,-2c.1,-.4,.2,-.5,.2,-.7c0,-.3,0,-.6,-.4,-.6c-.7,0,-1.5,.9,-1.7,1.4l.2,.1c.1,-.2,.5,-.8,.8,-.8c.2,0,.2,.1,.2,.2c0,.2,-.1,.5,-.2,.7l-.7,2c-.1,.3,-.1,.5,-.1,.7c0,.4,.1,.6,.5,.6Z" class="g0_132"/>
<path d="M426.4,654.2h-3.3v1h3.3v3.2h1v-3.2h3.2v-1h-3.2v-3.3h-1v3.3Z" class="g0_132"/>
<path d="M438.3,658.5c1.3,0,2,-.9,2.4,-1.7l-.3,-.2c-.3,.5,-.8,1.4,-1.3,1.4c-.3,0,-.4,-.4,-.4,-.6c0,-.3,1.2,-3.7,1.2,-4.1c0,-.8,-.3,-1.4,-1.1,-1.4c-.4,0,-1,.2,-1.3,.4c-.3,.2,-.6,.5,-.8,.8l-.1,.2l1.5,-5.8l-2.2,.1v.2c.4,.1,.6,.2,.7,.3c.2,.1,.3,.3,.3,.5c0,.2,-.1,.6,-.2,.9l-2.5,8.9h.9c.5,-1.7,1.1,-3.7,1.9,-5c.3,-.6,.8,-1.1,1.5,-1.1c.6,0,.4,1,.3,1.4c0,.3,-.1,.6,-.3,1c-.5,1.7,-.8,2.4,-.8,3.1c0,.5,.1,.7,.6,.7Z" class="g0_132"/>
<path d="M440.4,660.6c0,.6,.5,1,1.1,1c.5,0,.8,-.2,1.3,-.6c.8,-.7,2.1,-2.3,2.8,-3.5c.4,-.6,.8,-1.2,1.1,-1.8c.4,-.7,1.1,-2.1,1.1,-2.9c0,-.2,-.1,-.4,-.2,-.6c0,-.2,-.2,-.2,-.4,-.2c-.2,0,-.3,0,-.5,.2c-.1,.1,-.2,.3,-.2,.6c0,.4,.2,.9,.2,1.3c0,.6,-.2,1.1,-.4,1.6c-.3,.5,-.5,.9,-.8,1.4h-.1l-.3,-1.9c-.1,-.5,-.3,-1.6,-.4,-2c-.2,-.7,-.4,-1.2,-1.4,-1.2c-1.1,0,-1.3,1.7,-1.6,2.5l.3,.1c.2,-.6,.6,-2.3,1.1,-2.3c.3,0,.5,1,.5,1.3c.1,.3,.2,.7,.3,1.3l.6,3.5c-.4,.8,-1.2,1.7,-1.8,2.2c-.2,.2,-.6,.2,-.7,.2c-.1,0,-.2,0,-.3,-.1c-.2,-.3,-.2,-.8,-.6,-.8c-.4,0,-.7,.3,-.7,.7Z" class="g0_132"/>
<path d="M451,654c0,-.3,-.3,-.6,-.6,-.6c-.3,0,-.5,.3,-.5,.6c0,.3,.2,.5,.5,.5c.3,0,.6,-.3,.6,-.5Zm-2.1,6.8c1,-.1,1.5,-.9,1.8,-1.5l-.2,-.1c-.2,.3,-.6,1.1,-1,1.1c-.2,0,-.3,-.2,-.3,-.3c0,-.2,.2,-.6,.2,-.8l.7,-2c.1,-.4,.2,-.5,.2,-.7c0,-.3,0,-.6,-.4,-.6c-.7,0,-1.5,.9,-1.7,1.4l.2,.1c.1,-.2,.5,-.8,.8,-.8c.2,0,.2,.1,.2,.2c0,.2,-.1,.5,-.1,.7l-.8,2c-.1,.3,-.1,.5,-.1,.7c0,.4,.1,.6,.5,.6Z" class="g0_132"/>
<path d="M459.5,654.2h-3.3v1h3.3v3.2h1v-3.2h3.2v-1h-3.2v-3.3h-1v3.3Z" class="g0_132"/>
<path d="M471.6,649.2c0,-.4,-.3,-.7,-.7,-.7c-.4,0,-.8,.3,-.8,.7c0,.5,.4,.8,.8,.8c.3,0,.7,-.4,.7,-.8Zm-2.8,9.3c1.3,0,2,-1.1,2.4,-1.9l-.3,-.1c-.2,.3,-.7,1.4,-1.3,1.4c-.2,0,-.4,-.2,-.4,-.4c0,-.3,.2,-.9,.3,-1.1l1,-2.8c.2,-.4,.2,-.6,.2,-.8c0,-.5,0,-.8,-.5,-.8c-.9,0,-2,1.1,-2.4,1.8l.3,.1c.2,-.2,.8,-1.1,1.1,-1.1c.3,0,.3,.2,.3,.4c0,.2,-.1,.6,-.2,.9l-1,2.8c-.1,.3,-.2,.7,-.2,.9c0,.5,.2,.7,.7,.7Z" class="g0_132"/>
<path d="M478,655.9c-.1,-.3,-.1,-.8,-.1,-1c0,-.3,0,-.5,0,-.8c.1,-.4,.3,-1.5,.7,-1.5c.3,0,.3,.5,.3,.8c0,.9,-.6,2,-.9,2.5Zm-2.8,-3c0,0,-1.7,2.3,-1.7,4c0,.9,.5,1.6,1.5,1.6c1,0,1.7,-.6,2.2,-1.2c.3,.7,.7,1.2,1.5,1.2c2.1,0,3.5,-4,3.5,-5.3c0,-.7,-.1,-1.3,-.7,-1.3c-.5,0,-.7,.3,-.7,.7c0,.7,.5,1.3,.5,2c0,1.1,-1.1,3.5,-2.3,3.5c-.6,0,-.9,-1.2,-1,-1.8c.5,-.6,.9,-1.3,1.1,-1.9c.2,-.5,.4,-1,.4,-1.5c0,-.5,-.2,-1,-.7,-1c-.2,0,-.5,.2,-.7,.3c-.6,.7,-1.1,1.9,-1.1,3.3c0,.1,.1,.2,.1,.4c0,.2,0,.8,.1,1c-.4,.4,-.7,.7,-1,.9c-.3,.2,-.6,.3,-.8,.3c-.5,0,-.7,-.6,-.7,-1.2c0,-1.8,.5,-3.1,1.2,-4.2c.1,-.2,.5,-.5,.5,-.6c0,-.1,0,-.2,-.1,-.2c-.1,0,-.2,.1,-.3,.2c0,0,-.1,.1,-.3,.3c-.1,.1,-.3,.1,-.4,.1c-.3,0,-.5,0,-.6,-.2c-.2,-.2,-.4,-.4,-.8,-.4c-.6,0,-1.2,.6,-1.2,1.2c0,.4,.2,.5,.5,.5c.3,0,.4,-.2,.4,-.5c0,-.2,-.2,-.2,-.2,-.4c0,-.1,0,-.2,.2,-.2c.5,0,.6,.4,.8,.5c.2,.1,.3,.1,.6,0l.2,-.1Z" class="g0_132"/>
<path d="M485.5,654c0,-.3,-.3,-.6,-.6,-.6c-.3,0,-.5,.3,-.5,.6c0,.3,.2,.5,.5,.5c.3,0,.6,-.3,.6,-.5Zm-2.1,6.8c1,-.1,1.5,-.9,1.7,-1.5l-.1,-.1c-.2,.3,-.6,1.1,-1,1.1c-.2,0,-.3,-.2,-.3,-.3c0,-.2,.2,-.6,.2,-.8l.7,-2c.1,-.4,.2,-.5,.2,-.7c0,-.3,0,-.6,-.4,-.6c-.7,0,-1.5,.9,-1.7,1.4l.2,.1c.1,-.2,.5,-.8,.8,-.8c.2,0,.2,.1,.2,.2c0,.2,-.1,.5,-.1,.7l-.8,2c-.1,.3,-.1,.5,-.1,.7c0,.4,.1,.6,.5,.6Z" class="g0_132"/>
<path d="M366.4,690.6c0,.6,.4,1,1.1,1c.4,0,.8,-.2,1.2,-.6c.9,-.7,2.1,-2.2,2.9,-3.4c.3,-.7,.7,-1.3,1,-1.8c.4,-.8,1.1,-2.2,1.1,-3c0,-.2,-.1,-.4,-.1,-.6c-.1,-.2,-.3,-.2,-.5,-.2c-.2,0,-.3,.1,-.4,.2c-.2,.1,-.3,.3,-.3,.6c0,.5,.3,1,.3,1.4c0,.5,-.3,1.1,-.5,1.5c-.2,.5,-.5,.9,-.8,1.5h-.1l-.3,-2c-.1,-.5,-.3,-1.6,-.4,-2c-.2,-.7,-.4,-1.2,-1.4,-1.2c-1.1,0,-1.3,1.8,-1.6,2.5l.4,.1c.1,-.5,.5,-2.3,1,-2.3c.3,0,.5,1.1,.5,1.3c.1,.3,.2,.7,.3,1.4l.6,3.5c-.3,.8,-1.2,1.6,-1.8,2.1c-.2,.2,-.5,.3,-.7,.3c-.1,0,-.2,-.1,-.2,-.2c-.2,-.2,-.2,-.7,-.7,-.7c-.4,0,-.6,.2,-.6,.6Z" class="g0_132"/>
<path d="M377.9,687.6c0,.6,-.4,1.4,-.7,1.8c-.5,.4,-1.1,.8,-1.8,.9l1.1,-4c.1,0,.2,0,.2,0c.1,0,.2,0,.3,0c.6,0,.9,.6,.9,1.3Zm-2.2,-1l-1.6,5.7c-.1,.4,-.3,.4,-.8,.4v.2h2.4l.1,-.2c-.5,0,-.9,0,-.9,-.4c0,0,0,-.1,0,-.1c0,-.1,.1,-.2,.1,-.2l.4,-1.5c.9,-.1,1.7,-.5,2.3,-1c.5,-.4,1,-1.1,1,-2c0,-1,-.6,-1.5,-1.6,-1.5c-.2,0,-.3,0,-.5,0l.3,-1.1h-.7l-.4,1.3c-.3,.2,-.6,.4,-.8,.6c-.3,.2,-.5,.4,-.8,.6l.2,.2c.4,-.4,.9,-.8,1.3,-1Z" class="g0_132"/>
<path d="M384.9,686.6h7.6v-.9h-7.6Zm0,-3h7.6v-.9h-7.6Z" class="g0_132"/>
<path d="M403.7,673c0,.7,-.2,1.6,-.4,2.1c-.2,.6,-.7,1.8,-1.1,2.3c-.2,.3,-.7,.8,-1.2,.8c-.5,0,-.8,-.5,-.8,-1c0,-.6,.2,-1.8,.4,-2.3c.4,-.9,1.2,-2.7,2.4,-2.7c.4,0,.7,.4,.7,.8Zm.2,5.5c.4,0,.7,-.2,1,-.6c.4,-.4,.7,-.9,1,-1.7l-.4,-.1c-.2,.5,-.7,1.9,-1.2,1.9c-.3,0,-.4,-.5,-.4,-.8c0,-.1,0,-.3,0,-.5c.1,-.6,.3,-1.1,.4,-1.8c.1,-.5,.3,-1,.5,-1.6l1.5,-5.9h-2.2l-.1,.2c.4,.1,.6,.1,.7,.2c.2,.1,.3,.3,.3,.4c0,.3,-.1,.6,-.2,.9l-.9,3.4c-.2,-.4,-.4,-.6,-1,-.6c-1,0,-1.9,.9,-2.5,1.6c-.2,.3,-.4,.6,-.6,1c-.4,.6,-.6,1.3,-.6,2.1c0,.6,.1,1,.4,1.3c.2,.3,.5,.6,1,.6c1.4,0,1.9,-.9,2.4,-1.7v.1c0,0,0,.2,0,.2c0,.1,0,.2,0,.3c0,.6,.2,1.1,.9,1.1Z" class="g0_132"/>
<path d="M414.1,672.8c0,-.5,-.4,-.9,-1,-.9c-.3,0,-.6,.1,-.9,.3c-.3,.2,-.6,.5,-.9,.9c0,-.7,-.4,-1.2,-1,-1.2c-1.1,0,-2.1,1.2,-2.5,1.9l.3,.2c.3,-.5,1,-1.7,1.9,-1.7c.3,0,.4,.5,.4,.9c0,.3,0,.7,-.2,1.2l-.3,1.2c-.2,.6,-.4,1.3,-.7,1.7c-.2,.3,-.5,.7,-.8,.7c-.5,0,-.8,-.1,-.7,-.5c.1,-.3,.1,-.7,-.4,-.7c-.4,0,-.6,.3,-.6,.7c0,.6,.5,1,1.1,1c1,0,1.7,-.8,2.1,-1.5v.1c.1,.8,.5,1.4,1.4,1.4c1.1,0,2,-1.2,2.4,-1.8l-.2,-.2c-.5,.6,-1.2,1.6,-2,1.6c-.4,0,-.6,-.6,-.6,-1.2c0,-.3,0,-.8,.2,-1.3l.2,-.8c.1,-.5,.3,-1.2,.6,-1.6c.2,-.3,.5,-.9,.9,-.9c.4,0,.4,.3,.4,.6c-.1,.4,.1,.6,.4,.6c.4,0,.5,-.3,.5,-.7Z" class="g0_132"/>
<path d="M417.3,673.9c0,-.3,-.3,-.6,-.6,-.6c-.3,0,-.5,.3,-.5,.6c0,.3,.2,.5,.5,.5c.3,0,.6,-.2,.6,-.5Zm-2.1,6.8c1,0,1.5,-.9,1.8,-1.4l-.2,-.1c-.2,.2,-.6,1,-1,1c-.1,0,-.3,-.2,-.3,-.3c0,-.2,.2,-.6,.2,-.8l.7,-2c.2,-.3,.2,-.5,.2,-.6c0,-.4,0,-.6,-.4,-.6c-.7,0,-1.5,.8,-1.7,1.3l.2,.1c.2,-.2,.6,-.8,.8,-.8c.2,0,.2,.1,.2,.3c0,.1,-.1,.4,-.1,.6l-.8,2.1c0,.2,-.1,.5,-.1,.6c0,.4,.1,.6,.5,.6Z" class="g0_132"/>
<path d="M425.8,674.1h-3.3v1h3.3v3.3h1v-3.3H430v-1h-3.2v-3.3h-1v3.3Z" class="g0_132"/>
<path d="M437.8,672.2c.3,0,.6,.3,.6,.6c0,1.3,-1.7,2.3,-2.9,2.7c.2,-1,1.1,-3.3,2.3,-3.3Zm.2,-.3c-1.1,0,-2,.8,-2.6,1.5c-.6,.7,-1.1,1.8,-1.1,3.1c0,1.2,.4,2,1.6,2c1,0,1.9,-.8,2.5,-1.7l-.2,-.2c-.4,.6,-1.2,1.6,-2,1.6c-.6,0,-.9,-.5,-.9,-1.4c0,-.3,0,-.7,.1,-.9c1.5,-.4,3.9,-1.3,3.9,-3c0,-.7,-.6,-1,-1.3,-1Z" class="g0_132"/>
<path d="M438.9,680.5c0,.6,.4,1,1.1,1c.4,0,.8,-.2,1.3,-.6c.8,-.7,2,-2.2,2.8,-3.4c.3,-.7,.7,-1.3,1,-1.8c.4,-.8,1.1,-2.2,1.1,-3c0,-.2,0,-.4,-.1,-.6c-.1,-.2,-.3,-.2,-.5,-.2c-.2,0,-.3,.1,-.4,.2c-.2,.1,-.2,.3,-.2,.6c0,.5,.2,1,.2,1.4c0,.5,-.2,1.1,-.5,1.5c-.2,.5,-.4,.9,-.8,1.5h-.1l-.3,-2c-.1,-.5,-.3,-1.6,-.4,-2c-.2,-.7,-.3,-1.2,-1.3,-1.2c-1.2,0,-1.4,1.8,-1.6,2.5l.3,.1c.1,-.5,.5,-2.3,1,-2.3c.3,0,.5,1.1,.5,1.3c.1,.3,.2,.7,.3,1.4l.6,3.5c-.3,.8,-1.2,1.6,-1.8,2.1c-.2,.2,-.5,.3,-.7,.3c-.1,0,-.2,-.1,-.2,-.2c-.2,-.2,-.2,-.7,-.7,-.7c-.4,0,-.6,.2,-.6,.6Z" class="g0_132"/>
<path d="M449.4,673.9c0,-.3,-.3,-.6,-.6,-.6c-.3,0,-.5,.3,-.5,.6c0,.3,.3,.5,.5,.5c.3,0,.6,-.2,.6,-.5Zm-2.1,6.8c1,0,1.5,-.9,1.8,-1.4l-.2,-.1c-.2,.2,-.6,1,-1,1c-.1,0,-.3,-.2,-.3,-.3c0,-.2,.2,-.6,.3,-.8l.7,-2c.1,-.3,.1,-.5,.1,-.6c0,-.4,0,-.6,-.3,-.6c-.7,0,-1.5,.8,-1.8,1.3l.2,.1c.2,-.2,.6,-.8,.8,-.8c.2,0,.2,.1,.2,.3c.1,.1,0,.4,-.1,.6l-.7,2.1c-.1,.2,-.2,.5,-.2,.6c0,.4,.2,.6,.5,.6Z" class="g0_132"/>
<path d="M457.9,674.1h-3.2v1h3.2v3.3h1v-3.3h3.3v-1h-3.3v-3.3h-1v3.3Z" class="g0_132"/>
<path d="M466.7,681.2c-.3,0,-.4,-.2,-.5,-.5c0,-.3,-.1,-.5,-.5,-.5c-.2,0,-.4,.2,-.4,.4c0,.6,.8,.9,1.3,.9c.9,0,.9,-.3,1.3,-.8c.2,-.3,.4,-.7,.6,-1.2c.2,-.5,.5,-1.2,.7,-2l1.3,-5.2h1.3l.1,-.3h-1.3c.4,-1.2,.8,-3.1,1.2,-3.8c.1,-.2,.4,-.4,.7,-.4c.3,0,.4,.1,.5,.4c.1,.3,.2,.5,.5,.5c.3,0,.4,-.2,.4,-.4c0,-.6,-.8,-.9,-1.3,-.9c-1.8,.1,-2.5,3,-2.9,4.6h-1.3l-.1,.3h1.3l-2,7.4c-.1,.4,-.4,1.5,-.9,1.5Z" class="g0_132"/>
<path d="M479.8,675.9c0,-.3,-.1,-.9,-.1,-1.1c0,-.3,0,-.5,0,-.7c.1,-.4,.3,-1.6,.7,-1.6c.3,0,.3,.6,.3,.9c0,.8,-.6,1.9,-.9,2.5Zm-2.8,-3c0,0,-1.6,2.3,-1.6,4c0,.8,.4,1.6,1.4,1.6c1,0,1.7,-.6,2.3,-1.3c.2,.7,.6,1.3,1.4,1.3c2.1,0,3.5,-4.1,3.5,-5.4c0,-.7,-.1,-1.2,-.7,-1.2c-.4,0,-.6,.2,-.6,.7c0,.6,.4,1.2,.4,2c0,1,-1.1,3.5,-2.3,3.5c-.6,0,-.9,-1.2,-.9,-1.8c.4,-.7,.8,-1.4,1,-1.9c.2,-.6,.4,-1.1,.4,-1.5c0,-.6,-.2,-1,-.7,-1c-.2,0,-.4,.1,-.6,.3c-.7,.6,-1.1,1.9,-1.1,3.2c0,.1,0,.3,0,.5c0,.2,.1,.7,.1,.9c-.3,.4,-.7,.7,-1,.9c-.3,.2,-.6,.3,-.8,.3c-.5,0,-.7,-.6,-.7,-1.2c0,-1.7,.6,-3.1,1.2,-4.2c.2,-.2,.5,-.5,.5,-.6c0,0,0,-.1,-.1,-.1c-.1,0,-.2,.1,-.3,.1c0,0,-.1,.1,-.3,.3c-.1,.1,-.2,.2,-.4,.2c-.3,0,-.5,-.1,-.6,-.3c-.2,-.2,-.4,-.3,-.7,-.3c-.7,0,-1.3,.6,-1.3,1.1c0,.4,.3,.5,.5,.5c.3,0,.5,-.1,.5,-.4c0,-.2,-.3,-.3,-.3,-.4c0,-.1,.1,-.2,.3,-.2c.4,0,.6,.3,.7,.4c.2,.1,.3,.1,.6,0h.2Z" class="g0_132"/>
<path d="M487.3,673.9c0,-.3,-.3,-.6,-.6,-.6c-.3,0,-.5,.3,-.5,.6c0,.3,.2,.5,.5,.5c.3,0,.6,-.2,.6,-.5Zm-2.1,6.8c1,0,1.5,-.9,1.8,-1.4l-.2,-.1c-.2,.2,-.6,1,-1,1c-.1,0,-.3,-.2,-.3,-.3c0,-.2,.2,-.6,.2,-.8l.8,-2c.1,-.3,.1,-.5,.1,-.6c0,-.4,0,-.6,-.4,-.6c-.6,0,-1.5,.8,-1.7,1.3l.2,.1c.2,-.2,.6,-.8,.8,-.8c.2,0,.2,.1,.2,.3c.1,.1,0,.4,-.1,.6l-.7,2.1c-.1,.2,-.2,.5,-.2,.6c0,.4,.2,.6,.5,.6Z" class="g0_132"/>
<path d="M399,685h89.8v-.8H399Z" class="g0_132"/>
<path d="M402.5,695.4c0,-1.4,.6,-2.9,1.7,-2.9c.7,0,.9,.7,.9,1.2c0,1.5,-.6,2.8,-1.7,2.9c-.6,0,-.9,-.7,-.9,-1.2Zm3.4,-2.4q.2,-.1,.4,-.1c.1,0,.2,0,.3,0c.2,.2,.3,.7,.6,.7c.4,0,.6,-.3,.6,-.6c0,-.4,-.5,-.8,-1,-.8c-.3,0,-.7,.2,-1,.6c-.4,-.4,-.9,-.6,-1.5,-.6c-.9,0,-1.5,.4,-2,.8c-.4,.5,-.8,1.1,-.8,1.9c0,.7,.2,1.3,.8,1.7v.1c-.5,.1,-.8,.3,-1,.4c-.2,.2,-.3,.4,-.3,.6c0,.4,.1,.7,.5,.9c.4,.2,1,.3,1.9,.5c.5,.1,.9,.2,1.2,.4c.2,.2,.4,.4,.4,.6c0,.8,-1.2,1.4,-2.2,1.4c-1.3,0,-2,-.5,-2,-1.3c0,-.5,.3,-.9,.7,-1.1c-.2,-.1,-.3,-.1,-.6,-.1c-.6,0,-1.1,.5,-1.1,1.1c0,.3,0,.5,.2,.7c.5,.7,1.5,1,2.7,1c1,0,1.8,-.2,2.3,-.6c.5,-.3,.8,-.7,.8,-1.5c0,-.8,-1.1,-1.3,-1.7,-1.5c-.6,-.1,-1.2,-.3,-1.6,-.5c-.2,0,-.2,-.2,-.2,-.3c0,-.4,.5,-.4,1,-.5c1.7,-.1,2.7,-1.2,2.7,-3c0,-.3,0,-.6,-.1,-.9Z" class="g0_132"/>
<path d="M415.6,693.2c0,-.6,-.4,-1,-1,-1c-.3,0,-.6,.2,-.9,.4c-.3,.2,-.6,.5,-.9,.9c0,-.7,-.4,-1.3,-1,-1.3c-1.2,0,-2.1,1.2,-2.5,2l.2,.1c.4,-.5,1.1,-1.7,2,-1.7c.3,0,.4,.5,.4,1c0,.3,0,.6,-.2,1.1l-.3,1.2c-.2,.6,-.4,1.4,-.8,1.8c-.1,.2,-.4,.7,-.7,.7c-.5,0,-.8,-.1,-.7,-.5c.1,-.3,.1,-.8,-.4,-.8c-.4,0,-.6,.3,-.6,.8c0,.5,.5,.9,1.1,.9c1,0,1.7,-.8,2.1,-1.4c.1,.8,.5,1.4,1.3,1.4c1.2,0,2.1,-1.1,2.5,-1.8l-.2,-.2c-.5,.6,-1.2,1.7,-2,1.7c-.4,0,-.6,-.7,-.6,-1.3c0,-.3,0,-.7,.2,-1.3l.1,-.7c.1,-.6,.4,-1.3,.7,-1.6c.1,-.3,.5,-1,.9,-1c.4,0,.4,.3,.4,.6c-.1,.4,.1,.6,.4,.6c.4,0,.5,-.3,.5,-.6Z" class="g0_132"/>
<path d="M418.8,694.2c0,-.3,-.3,-.5,-.6,-.5c-.3,0,-.5,.2,-.5,.5c0,.3,.2,.6,.5,.6c.3,0,.6,-.3,.6,-.6Zm-2.1,6.8c1,0,1.5,-.8,1.7,-1.4l-.1,-.1c-.2,.2,-.6,1,-1,1c-.2,0,-.3,-.1,-.3,-.2c0,-.3,.2,-.7,.2,-.8l.7,-2.1c.1,-.3,.2,-.4,.2,-.6c0,-.3,0,-.6,-.4,-.6c-.7,0,-1.5,.8,-1.7,1.3l.2,.2c.1,-.2,.5,-.9,.8,-.9c.2,0,.2,.2,.2,.3c0,.2,-.1,.5,-.1,.7l-.8,2c-.1,.3,-.1,.5,-.1,.6c0,.4,.1,.6,.5,.6Z" class="g0_132"/>
<path d="M427.3,694.4H424v1h3.3v3.3h1v-3.3h3.2v-1h-3.2v-3.2h-1v3.2Z" class="g0_132"/>
<path d="M439.2,698.8c1.3,0,2,-1,2.4,-1.7l-.2,-.2c-.3,.4,-.8,1.3,-1.4,1.3c-.2,0,-.4,-.4,-.4,-.6c0,-.3,1.2,-3.6,1.2,-4.1c0,-.8,-.3,-1.3,-1.1,-1.3c-.3,0,-.9,.1,-1.3,.3c-.3,.3,-.6,.5,-.8,.9l-.1,.1l1.5,-5.7l-2.2,.1v.2c.4,0,.6,.1,.7,.2c.2,.1,.3,.4,.3,.5c0,.3,-.1,.7,-.2,.9l-2.5,9h.9c.5,-1.7,1.1,-3.7,1.9,-5c.3,-.6,.8,-1.1,1.5,-1.1c.6,0,.5,.9,.3,1.4c0,.2,-.1,.5,-.3,1c-.5,1.6,-.8,2.4,-.8,3.1c0,.4,.2,.7,.6,.7Z" class="g0_132"/>
<path d="M441.3,700.9c0,.5,.5,.9,1.1,.9c.5,0,.8,-.2,1.3,-.6c.9,-.6,2.1,-2.2,2.8,-3.4c.4,-.6,.8,-1.2,1.1,-1.8c.4,-.8,1.1,-2.1,1.1,-2.9c0,-.2,-.1,-.4,-.2,-.6c0,-.2,-.2,-.3,-.4,-.3c-.2,0,-.3,.1,-.5,.2c-.1,.2,-.2,.4,-.2,.7c0,.4,.3,.9,.3,1.3c0,.6,-.3,1.1,-.5,1.6c-.2,.5,-.5,.9,-.8,1.4h-.1l-.3,-1.9c-.1,-.6,-.3,-1.6,-.4,-2.1c-.2,-.6,-.4,-1.2,-1.4,-1.2c-1.1,0,-1.3,1.8,-1.6,2.6l.3,.1c.2,-.6,.6,-2.3,1.1,-2.3c.3,0,.5,1,.5,1.2c.1,.3,.2,.7,.3,1.4l.6,3.5c-.4,.8,-1.2,1.7,-1.8,2.2c-.2,.1,-.6,.2,-.7,.2c-.1,0,-.2,-.1,-.3,-.1c-.2,-.3,-.2,-.8,-.6,-.8c-.4,0,-.7,.3,-.7,.7Z" class="g0_132"/>
<path d="M451.9,694.2c0,-.3,-.3,-.5,-.6,-.5c-.3,0,-.5,.2,-.5,.5c0,.3,.2,.6,.5,.6c.3,0,.6,-.3,.6,-.6Zm-2.1,6.8c1,0,1.5,-.8,1.8,-1.4l-.2,-.1c-.2,.2,-.6,1,-1,1c-.1,0,-.3,-.1,-.3,-.2c0,-.3,.2,-.7,.2,-.8l.7,-2.1c.2,-.3,.2,-.4,.2,-.6c0,-.3,0,-.6,-.4,-.6c-.7,0,-1.5,.8,-1.7,1.3l.2,.2c.2,-.2,.6,-.9,.8,-.9c.2,0,.2,.2,.2,.3c0,.2,-.1,.5,-.1,.7l-.8,2c0,.3,-.1,.5,-.1,.6c0,.4,.1,.6,.5,.6Z" class="g0_132"/>
<path d="M460.4,694.4h-3.2v1h3.2v3.3h1v-3.3h3.2v-1h-3.2v-3.2h-1v3.2Z" class="g0_132"/>
<path d="M472.6,689.5c0,-.4,-.4,-.8,-.8,-.8c-.4,0,-.8,.4,-.8,.8c0,.4,.4,.8,.8,.8c.4,0,.8,-.4,.8,-.8Zm-2.9,9.3c1.4,0,2,-1.1,2.4,-1.9l-.2,-.2c-.3,.4,-.8,1.5,-1.4,1.5c-.2,0,-.3,-.3,-.3,-.4c0,-.3,.2,-.9,.2,-1.1l1,-2.8c.2,-.4,.2,-.6,.2,-.9c0,-.4,0,-.8,-.5,-.8c-.9,0,-2,1.1,-2.4,1.9l.3,.1c.2,-.3,.8,-1.1,1.1,-1.1c.3,0,.3,.2,.3,.3c.1,.3,-.1,.7,-.2,.9l-1,2.9c-.1,.3,-.2,.6,-.2,.8c0,.5,.2,.8,.7,.8Z" class="g0_132"/>
<path d="M478.9,696.2c0,-.3,-.1,-.8,-.1,-1.1c0,-.2,0,-.5,0,-.7c.1,-.4,.3,-1.5,.7,-1.5c.3,0,.3,.5,.3,.8c0,.9,-.6,1.9,-.9,2.5Zm-2.8,-3c0,0,-1.6,2.3,-1.6,4c0,.8,.4,1.6,1.4,1.6c1,0,1.7,-.6,2.3,-1.3c.2,.7,.6,1.3,1.4,1.3c2.1,0,3.5,-4.1,3.5,-5.4c0,-.7,-.1,-1.2,-.7,-1.2c-.5,0,-.6,.3,-.6,.7c0,.7,.4,1.3,.4,2c0,1,-1.1,3.5,-2.3,3.5c-.6,0,-.9,-1.2,-1,-1.8c.5,-.6,.9,-1.3,1.1,-1.9c.2,-.5,.4,-1.1,.4,-1.5c0,-.5,-.2,-1,-.7,-1c-.2,0,-.5,.1,-.6,.3c-.7,.7,-1.2,1.9,-1.2,3.2c0,.2,.1,.3,.1,.5c0,.2,.1,.8,.1,1c-.3,.3,-.7,.7,-1,.9c-.3,.2,-.6,.3,-.8,.3c-.5,0,-.7,-.6,-.7,-1.3c0,-1.7,.6,-3.1,1.2,-4.2c.2,-.2,.5,-.4,.5,-.5c0,-.1,0,-.2,-.1,-.2c-.1,0,-.2,.1,-.3,.1c0,.1,-.1,.2,-.3,.3c-.1,.1,-.3,.2,-.4,.2c-.3,0,-.5,-.1,-.6,-.2c-.2,-.3,-.4,-.4,-.8,-.4c-.6,0,-1.2,.6,-1.2,1.1c0,.4,.2,.6,.5,.6c.3,0,.4,-.2,.4,-.5c0,-.2,-.2,-.2,-.2,-.4c0,-.1,.1,-.2,.2,-.2c.5,0,.6,.4,.8,.5c.2,.1,.3,0,.6,0l.2,-.1Z" class="g0_132"/>
<path d="M486.4,694.2c0,-.3,-.3,-.5,-.6,-.5c-.3,0,-.5,.2,-.5,.5c0,.3,.2,.6,.5,.6c.3,0,.6,-.3,.6,-.6Zm-2.1,6.8c1,0,1.5,-.8,1.8,-1.4l-.2,-.1c-.2,.2,-.6,1,-1,1c-.1,0,-.3,-.1,-.3,-.2c0,-.3,.2,-.7,.2,-.8l.7,-2.1c.2,-.3,.2,-.4,.2,-.6c0,-.3,0,-.6,-.4,-.6c-.7,0,-1.5,.8,-1.7,1.3l.2,.2c.2,-.2,.6,-.9,.8,-.9c.2,0,.2,.2,.2,.3c0,.2,-.1,.5,-.1,.7l-.8,2c0,.3,-.1,.5,-.1,.6c0,.4,.1,.6,.5,.6Z" class="g0_132"/>
<path d="M369.4,717.8c0,-.3,-.1,-.8,-.1,-1.1c0,-.2,0,-.5,0,-.7c.1,-.4,.4,-1.5,.8,-1.5c.2,0,.2,.5,.2,.8c0,.9,-.6,1.9,-.9,2.5Zm-2.8,-3c0,0,-1.6,2.3,-1.6,4c0,.8,.4,1.6,1.4,1.6c1,0,1.7,-.6,2.3,-1.3c.2,.7,.6,1.3,1.4,1.3c2.1,0,3.5,-4.1,3.5,-5.4c0,-.7,-.1,-1.2,-.7,-1.2c-.4,0,-.6,.3,-.6,.7c0,.7,.4,1.2,.4,2c0,1,-1.1,3.5,-2.3,3.5c-.6,0,-.9,-1.2,-.9,-1.8c.4,-.6,.8,-1.3,1,-1.9c.2,-.6,.4,-1.1,.4,-1.5c0,-.5,-.2,-1,-.7,-1c-.2,0,-.4,.1,-.6,.3c-.7,.7,-1.1,1.9,-1.1,3.2c0,.2,0,.3,0,.5c0,.2,.1,.8,.1,.9c-.3,.4,-.7,.8,-1,1c-.3,.2,-.5,.3,-.8,.3c-.5,0,-.7,-.6,-.7,-1.3c0,-1.7,.6,-3.1,1.2,-4.2c.2,-.2,.5,-.4,.5,-.5c0,-.1,0,-.2,-.1,-.2c-.1,0,-.2,.1,-.3,.1c0,.1,-.1,.2,-.3,.3c-.1,.1,-.2,.2,-.4,.2c-.3,0,-.5,-.1,-.6,-.2c-.2,-.3,-.4,-.4,-.7,-.4c-.7,0,-1.3,.6,-1.3,1.1c0,.4,.3,.6,.5,.6c.3,0,.5,-.2,.5,-.5c0,-.2,-.3,-.2,-.3,-.4c0,-.1,.1,-.2,.3,-.2c.4,0,.6,.4,.7,.5c.2,.1,.3,0,.6,0l.2,-.1Z" class="g0_132"/>
<path clip-path="url(#c0_132)" d="M377.9,719.4c0,.6,-.4,1.4,-.7,1.8c-.5,.4,-1.1,.8,-1.8,.9l1.1,-4c.1,0,.2,0,.2,0c.1,0,.2,0,.3,0c.6,0,.9,.7,.9,1.3Zm-4.6,5.3h2.4l.1,-.1c-.5,0,-.9,-.1,-.9,-.4q0,-.1,0,-.2c0,0,.1,-.1,.1,-.2l.4,-1.4c.9,-.1,1.7,-.6,2.3,-1c.5,-.5,1,-1.2,1,-2.1c0,-.9,-.6,-1.5,-1.6,-1.5c-.2,0,-.3,0,-.5,.1l.3,-1.2h-.7l-.4,1.4c-.3,.1,-.6,.3,-.8,.5c-.3,.2,-.5,.4,-.8,.6l.2,.2c.4,-.3,.9,-.8,1.3,-1l-1.6,5.8c-.1,.3,-.3,.4,-.8,.4v.1Z" class="g0_132"/>
<path d="M384.9,718.4h7.6v-.8h-7.6Zm0,-3h7.6v-.8h-7.6Z" class="g0_132"/>
<path d="M399.2,710.6v.2c.4,0,1.1,.1,1.3,.2c.5,.2,.4,.4,.5,1v6.5c0,.3,-.1,.6,-.1,.8c-.1,.7,-.9,.7,-1.6,.8v.2H404v-.2c-.5,0,-1.3,-.1,-1.5,-.3c-.2,-.3,-.2,-.8,-.2,-1.4v-8.6c-.8,.4,-2.1,.8,-3.1,.8Z" class="g0_132"/>
</svg>