<?xml version="1.0" encoding="UTF-8" standalone="no"?>
<!DOCTYPE svg PUBLIC "-//W3C//DTD SVG 1.1//EN"
"http://www.w3.org/Graphics/SVG/1.1/DTD/svg11.dtd">
<svg viewBox="0 0 811 1017" version="1.1" xmlns="http://www.w3.org/2000/svg" xmlns:xlink="http://www.w3.org/1999/xlink">
<defs>
<style type="text/css"><![CDATA[
.g0_328{
fill: #0E0E0E;
}
]]></style>
</defs>
<path d="M325.6,290.1c0,-.4,0,-.9,.2,-1.4c.3,-1,1.1,-2.9,2.2,-2.9c.3,0,.4,.2,.4,.3c0,.1,-.1,.2,-.1,.4c0,.4,.1,.6,.5,.6c.4,0,.6,-.3,.6,-.7c0,-.6,-.6,-.9,-1.3,-.9c-1.4,0,-2.5,1.4,-3.1,2.5c-.3,.6,-.5,1.3,-.5,2.1c0,1.1,.6,2,1.7,2c1.2,0,2.1,-1.1,2.6,-2.1l-.3,-.1c-.5,1,-1.2,1.8,-2.1,1.8c-.6,0,-.8,-.9,-.8,-1.6Z" class="g0_328"/>
<path d="M336.2,286.1c0,-.2,-.1,-.4,-.3,-.5c-.2,-.2,-.4,-.2,-.6,-.2c-.4,0,-.9,.3,-1.2,.5c-.4,.4,-.7,.8,-1,1.3c0,-.2,.1,-.3,.1,-.4c0,-.2,0,-.3,0,-.4c0,-.5,-.1,-.9,-.6,-.9c-1,0,-1.9,1.1,-2.2,1.8l.3,.1c.2,-.4,.9,-1.4,1.3,-1.4c.2,0,.2,.5,.2,.7c0,.1,-.1,.2,-.1,.3c-.2,.9,-.4,1.5,-.7,2.5l-.8,2.5h1.1l.5,-1.7c.2,-.6,.4,-1.2,.6,-1.7c.2,-.5,.4,-.9,.6,-1.2c.3,-.5,.7,-1.2,1.2,-1.2c.1,0,.2,.2,.2,.3l.1,.1c.2,.2,.3,.2,.5,.2c.5,0,.8,-.3,.8,-.7Z" class="g0_328"/>
<path d="M338.3,290.2c0,-2.5,.9,-4.4,2.4,-4.4c.5,0,.9,.4,.9,1.1c0,.4,0,1,-.2,1.7c-.3,1,-1,3.1,-2.2,3.1c-.5,0,-.9,-.8,-.9,-1.5Zm.9,1.9c1,0,1.8,-.8,2.3,-1.4c.6,-.7,1.1,-1.8,1.1,-2.9c0,-.7,-.2,-1.3,-.5,-1.7c-.4,-.4,-.8,-.6,-1.4,-.6c-.5,0,-.9,.1,-1.3,.3c-.9,.5,-1.5,1.4,-1.9,2.3c-.2,.5,-.3,1,-.3,1.6c0,.7,.2,1.4,.6,1.7c.3,.4,.7,.7,1.4,.7Z" class="g0_328"/>
<path d="M345.3,291.7c-.4,0,-.5,-.4,-.4,-.8c.1,-.4,-.3,-.7,-.6,-.7c-.4,0,-.6,.3,-.6,.7c0,.8,.7,1.2,1.5,1.2c.6,0,1.2,-.3,1.5,-.6c.3,-.3,.6,-.7,.6,-1.4c0,-.4,-.1,-.7,-.3,-1c-.2,-.6,-.7,-1.1,-1,-1.6c-.1,-.2,-.2,-.4,-.2,-.7c.1,-.4,.2,-1,.7,-1c.6,0,.6,.4,.5,.7c0,.2,.1,.6,.6,.6c.3,0,.5,-.3,.5,-.6c0,-.7,-.7,-1,-1.4,-1c-.6,0,-1,.2,-1.4,.5c-.3,.3,-.5,.7,-.5,1.3c0,.4,.1,.7,.2,.9c.4,.6,.8,1,1.1,1.5c.2,.3,.2,.6,.2,.9c0,.4,-.1,1.1,-1,1.1Z" class="g0_328"/>
<path d="M350.7,291.7c-.5,0,-.6,-.4,-.5,-.8c.1,-.4,-.3,-.7,-.6,-.7c-.4,0,-.6,.3,-.6,.7c0,.8,.7,1.2,1.6,1.2c.5,0,1.1,-.3,1.4,-.6c.3,-.3,.6,-.7,.6,-1.4c0,-.4,-.1,-.7,-.3,-1c-.2,-.6,-.7,-1.1,-1,-1.6c-.1,-.2,-.2,-.4,-.2,-.7c.1,-.4,.2,-1,.8,-1c.6,0,.5,.4,.4,.7c0,.2,.2,.6,.6,.6c.3,0,.5,-.3,.5,-.6c0,-.7,-.7,-1,-1.4,-1c-.6,0,-1,.2,-1.4,.5c-.3,.3,-.5,.7,-.5,1.3c0,.4,.1,.7,.3,.9c.3,.6,.7,1,1,1.5c.2,.3,.3,.6,.3,.9c0,.4,-.2,1.1,-1,1.1Z" class="g0_328"/>
<path d="M359.3,281.3c-2.2,1.4,-3.7,3.8,-3.7,6.8c0,2.8,1.6,5.6,3.6,6.9l.2,-.3c-2,-1.5,-2.5,-3.3,-2.5,-6.6c0,-3.3,.6,-5,2.5,-6.6l-.1,-.2Z" class="g0_328"/>
<path d="M365.5,285.4c-.5,0,-1,.2,-1.5,.5c-.5,.3,-1,.7,-1.4,1.2c-.7,.7,-1.4,1.9,-1.4,3.2c0,1.1,.4,1.8,1.5,1.8c1.4,0,2.1,-.9,2.5,-1.6c-.2,.8,-.2,1.6,.7,1.6c1.2,0,2,-1,2.6,-1.9l-.2,-.2c-.3,.3,-1,1.3,-1.4,1.3c-.2,0,-.3,-.3,-.3,-.5c0,-.7,.6,-2.4,.9,-3.3l.7,-1.9h-1.3l-.3,.6c-.1,-.3,-.4,-.8,-1.1,-.8Zm.1,.4c.9,0,.5,1.4,.4,1.9c-.1,.3,-.2,.6,-.4,.9c-.4,1.2,-1.5,3,-2.3,3c-.6,0,-.7,-.9,-.7,-1.4c0,-.4,.2,-.8,.3,-1.3c.4,-1,1.4,-3.1,2.7,-3.1Z" class="g0_328"/>
<path d="M370.9,291.2c0,.4,.3,.8,.7,.8c.2,0,.3,-.1,.4,-.1c0,.3,-.1,.7,-.3,1c-.2,.3,-.5,.6,-1,1l.3,.4c.3,-.2,.6,-.5,.9,-.7c.5,-.5,.9,-1,.9,-1.9c0,-.9,-.3,-1.4,-1,-1.4c-.5,0,-.9,.4,-.9,.9Z" class="g0_328"/>
<path d="M381.8,286c1.7,0,.6,2.5,.4,3c-.4,.8,-1.1,2.6,-2.2,2.6c-.5,0,-.7,-.3,-.8,-.9c0,-.7,.3,-1.7,.5,-2.2c.2,-.6,.7,-1.5,1,-1.9c.3,-.3,.6,-.6,1.1,-.6Zm-2.3,6.1c2.1,0,3.3,-1.5,3.9,-2.6c.4,-.6,.6,-1.4,.6,-2.3c-.1,-1,-.8,-1.7,-1.9,-1.7c-.9,0,-1.6,.6,-1.9,1.3l.1,-.4l1.6,-5.2l-2.8,.1v.3c.6,0,.8,.3,.8,.6c0,.2,-.1,.5,-.2,.7l-1.6,5.5c-.2,.5,-.3,1,-.4,1.3c-.1,.4,-.1,.7,-.1,.9c0,.9,.9,1.5,1.9,1.5Z" class="g0_328"/>
<path d="M385.7,281.3l-.1,.2c1.9,1.6,2.5,3.3,2.5,6.6c0,3.3,-.5,5.1,-2.5,6.6l.2,.3c2,-1.3,3.6,-4.1,3.6,-6.9c0,-3,-1.5,-5.4,-3.7,-6.8Z" class="g0_328"/>
<path d="M395.6,290.1h7.6v-.9h-7.6Zm0,-3h7.6v-.9h-7.6Z" class="g0_328"/>
<path d="M412.6,286.6c0,.6,-.2,1.6,-.3,2.1c-.2,.6,-.7,1.8,-1.1,2.2c-.3,.4,-.7,.8,-1.2,.8c-.5,0,-.8,-.4,-.8,-.9c0,-.6,.1,-1.8,.4,-2.3c.3,-.9,1.2,-2.7,2.4,-2.7c.4,0,.6,.4,.6,.8Zm.2,5.5c.5,0,.8,-.2,1.1,-.6c.3,-.4,.6,-.9,.9,-1.7l-.3,-.1c-.2,.5,-.7,1.9,-1.2,1.9c-.3,0,-.4,-.5,-.4,-.8c0,-.2,0,-.3,0,-.5c.1,-.6,.2,-1.2,.4,-1.9c.1,-.4,.3,-.9,.4,-1.6l1.6,-5.8H413v.2c.4,.1,.5,.1,.7,.2c.2,.1,.3,.3,.3,.4c0,.3,-.1,.6,-.2,.9l-.9,3.4c-.2,-.4,-.4,-.6,-1,-.6c-1,0,-2,.9,-2.5,1.6c-.3,.3,-.5,.6,-.7,.9c-.3,.6,-.6,1.4,-.6,2.2c0,.6,.2,1,.5,1.3c.2,.3,.5,.6,1,.6c1.4,0,1.9,-.9,2.3,-1.7l.1,.1c0,0,0,.1,0,.2c-.1,.1,-.1,.2,-.1,.3c0,.6,.3,1.1,.9,1.1Z" class="g0_328"/>
<path d="M419.9,285.8c.3,0,.6,.3,.6,.6c0,1.3,-1.7,2.3,-3,2.7c.3,-1,1.2,-3.3,2.4,-3.3Zm.2,-.3c-1.2,0,-2,.8,-2.6,1.5c-.7,.7,-1.1,1.8,-1.1,3.1c0,1.2,.4,2,1.5,2c1.1,0,2,-.8,2.6,-1.7l-.2,-.2c-.4,.6,-1.2,1.5,-2.1,1.5c-.6,0,-.8,-.5,-.8,-1.3c0,-.3,0,-.7,.1,-1c1.4,-.3,3.9,-1.2,3.9,-2.9c0,-.7,-.6,-1,-1.3,-1Z" class="g0_328"/>
<path d="M423.2,292.1c1.3,0,2.1,-1.3,2.5,-2.1l-.2,-.2c-.3,.4,-.9,1.7,-1.7,1.7c-.2,0,-.3,-.5,-.3,-.6c0,-.2,.1,-.6,.2,-1l1.1,-4h1.3l.1,-.3h-1.3l.4,-1.6h-1l-.5,1.6h-1l-.1,.3h1l-.9,3.6c-.1,.5,-.2,.9,-.3,1.1c0,.3,-.1,.5,-.1,.7c0,.5,.3,.8,.8,.8Z" class="g0_328"/>
<path d="M435.7,262.3q0,-.1,-.1,-.1c-4.8,5.3,-5.4,19.2,-5.4,20.8v.6h1.4V283c0,-1.2,.8,-15,4,-20.4c.1,-.1,.1,-.2,.1,-.3Z" class="g0_328"/>
<path d="M430.2,292.9h1.4v-9.6h-1.4Z" class="g0_328"/>
<path d="M435.7,314c0,-.1,0,-.2,-.1,-.3c-3.2,-5.4,-4,-19.1,-4,-20.4v-.6h-1.4v.6c0,1.6,.6,15.5,5.4,20.8q.1,0,.1,-.1Z" class="g0_328"/>
<path d="M442.4,262.1v-.8h-3.5v9.2H440v-7.8c0,-.4,.3,-.6,.7,-.6h1.7Z" class="g0_328"/>
<path d="M438.9,279.3H440v-9.6h-1.1Z" class="g0_328"/>
<path d="M438.9,288.3H440v-9.6h-1.1Z" class="g0_328"/>
<path d="M438.9,297.3H440v-9.7h-1.1Z" class="g0_328"/>
<path d="M438.9,306.2H440v-9.6h-1.1Z" class="g0_328"/>
<path d="M442.4,315v-.8h-1.7c-.4,0,-.7,-.2,-.7,-.6v-7.8h-1.1V315h3.5Z" class="g0_328"/>
<path d="M451.6,264.6c0,-.4,-.3,-.8,-.7,-.8c-.4,0,-.8,.4,-.8,.8c0,.4,.4,.8,.8,.8c.3,0,.7,-.4,.7,-.8Zm-2.8,9.3c1.3,0,2,-1.1,2.4,-1.9l-.3,-.2c-.2,.4,-.7,1.5,-1.3,1.5c-.2,0,-.3,-.3,-.3,-.4c0,-.3,.1,-.9,.2,-1.1l1,-2.8c.2,-.4,.2,-.6,.2,-.9c0,-.4,0,-.8,-.5,-.8c-.9,0,-2,1.1,-2.4,1.9l.3,.1c.2,-.3,.8,-1.1,1.1,-1.1c.3,0,.3,.2,.3,.3c0,.3,-.1,.7,-.2,.9l-1,2.9c-.1,.3,-.2,.6,-.2,.8c0,.6,.2,.8,.7,.8Z" class="g0_328"/>
<path d="M475.7,276c0,.6,.5,.9,1.1,.9c.7,0,1.2,-.4,1.6,-.8c.5,-.5,.8,-1.2,1,-1.9l1,-3.6c.2,-.6,.3,-1.1,.4,-1.6c.1,-.4,.2,-.7,.2,-1c0,-.4,-.2,-.7,-.6,-.7c-.8,0,-1.9,1.2,-2.3,1.9l.3,.1c.2,-.2,.7,-1.1,1.2,-1.1c.1,0,.2,.2,.2,.4c0,.4,-.1,.7,-.2,1.2l-1.5,5.4c-.1,.4,-.4,1.3,-.8,1.3c-.1,0,-.2,-.1,-.3,-.1c-.2,-.3,0,-1.1,-.7,-1.1c-.4,0,-.6,.3,-.6,.7Zm5.9,-11.4c0,-.4,-.3,-.8,-.8,-.8c-.4,0,-.7,.4,-.7,.8c0,.4,.3,.8,.7,.8c.4,0,.8,-.4,.8,-.8Z" class="g0_328"/>
<path d="M507.1,270.7c.1,-.6,.6,-1.7,1,-2.1c.3,-.4,.8,-1,1.3,-1c.5,0,.5,.5,.5,.8c0,1.1,-2,2,-2.8,2.3Zm2.4,-3.4c-.6,0,-1.3,.5,-1.8,1.2h-.1l1.6,-5.6l-2.4,.1v.2c.6,0,1.1,.1,1.1,.6c0,0,-.1,.2,-.1,.4l-2.6,9.6h1l.7,-2.6l.4,-.1l.8,1.9c.1,.3,.3,.6,.4,.7c.1,.2,.3,.2,.5,.2c.9,0,1.2,-.6,1.8,-1.8l-.3,-.1c-.3,.6,-.5,1.2,-1,1.2c-.2,0,-.4,-.6,-.6,-1l-.6,-1.6l.3,-.2c.7,-.3,1.3,-.6,1.7,-1c.3,-.3,.6,-.7,.6,-1.1c0,-.7,-.5,-1,-1.4,-1Z" class="g0_328"/>
<path d="M447.5,285.2c-.5,0,-.9,.2,-1.3,.5c-.5,.3,-.9,.7,-1.3,1.1c-.6,.8,-1.2,2,-1.2,3.3c0,1,.4,1.7,1.3,1.7c1.3,0,1.8,-.9,2.2,-1.5c-.2,.9,-.1,1.5,.5,1.5c.4,0,.8,-.1,1.2,-.5c.4,-.3,.7,-.8,1.1,-1.3l-.2,-.2c-.3,.4,-.9,1.4,-1.4,1.4c-.2,0,-.2,-.4,-.2,-.6c0,-.9,.6,-2.4,.9,-3.4l.7,-1.9h-1l-.3,.7c-.1,-.5,-.4,-.8,-1,-.8Zm.1,.3c.7,0,.6,1.3,.5,1.9c-.1,.3,-.2,.6,-.3,1c-.4,1.1,-1.5,3.1,-2.3,3.1c-.6,0,-.8,-1,-.8,-1.5c0,-.4,0,-.8,.2,-1.3c.4,-1,1.4,-3.2,2.7,-3.2Z" class="g0_328"/>
<path d="M451.9,287v.1c.3,0,.8,.1,.9,.2c.3,.1,.3,.3,.3,.7v4.8c0,.2,0,.4,0,.5c-.1,.5,-.6,.6,-1.2,.6v.2h3.4v-.2c-.3,0,-.9,0,-1,-.2c-.2,-.2,-.2,-.6,-.2,-1v-6.3c-.6,.3,-1.5,.6,-2.2,.6Z" class="g0_328"/>
<path d="M476.7,285.2c-.4,0,-.9,.2,-1.3,.5c-.5,.3,-.9,.7,-1.3,1.1c-.6,.8,-1.2,2,-1.2,3.3c0,1,.4,1.7,1.3,1.7c1.3,0,1.8,-.9,2.2,-1.5c-.2,.9,-.1,1.5,.6,1.5c.3,0,.7,-.1,1.1,-.5c.4,-.3,.7,-.8,1.1,-1.3l-.2,-.2c-.3,.4,-.9,1.4,-1.3,1.4c-.3,0,-.3,-.4,-.3,-.6c0,-.9,.6,-2.4,.9,-3.4l.7,-1.9h-1l-.2,.7c-.2,-.5,-.5,-.8,-1.1,-.8Zm.1,.3c.7,0,.6,1.3,.5,1.9c-.1,.3,-.2,.6,-.3,1c-.4,1.1,-1.5,3.1,-2.3,3.1c-.6,0,-.8,-1,-.8,-1.5c0,-.4,.1,-.8,.2,-1.3c.4,-1,1.5,-3.2,2.7,-3.2Z" class="g0_328"/>
<path d="M482.3,289.4c-.7,0,-1.1,-.5,-1.1,-1.2c0,-.7,.4,-1.6,1.3,-1.6c1.2,0,1.3,1,1.3,1.9c0,.9,-.2,1.5,-.7,2.1c-.2,.4,-.6,.9,-1.1,1.4c-.5,.5,-1.1,1.1,-1.8,1.7v.4h4.5l.4,-2.1h-.3c-.1,.2,-.2,.4,-.3,.5c-.1,.4,-.4,.6,-1,.6h-2.1c.5,-.4,1,-.8,1.4,-1.1c.7,-.7,1.5,-1.4,2,-2.3c.1,-.4,.2,-.8,.2,-1.2c0,-.3,0,-.6,-.2,-.8c-.3,-.8,-1,-1.3,-2.1,-1.3c-.7,0,-1.4,.3,-1.8,.6c-.3,.3,-.7,.8,-.7,1.5c0,.4,.2,.8,.4,1c.2,.2,.5,.4,.9,.4c.4,0,.7,-.2,.8,-.5Z" class="g0_328"/>
<path d="M505.9,285.2c-.4,0,-.9,.2,-1.3,.5c-.4,.3,-.9,.7,-1.2,1.1c-.7,.8,-1.3,2,-1.3,3.3c0,1,.4,1.7,1.3,1.7c1.3,0,1.8,-.9,2.2,-1.5c-.2,.9,-.1,1.5,.6,1.5c.3,0,.7,-.1,1.1,-.5c.4,-.3,.8,-.8,1.1,-1.3l-.2,-.2c-.3,.4,-.9,1.4,-1.3,1.4c-.2,0,-.3,-.4,-.3,-.6c0,-.9,.6,-2.4,.9,-3.4l.7,-1.9h-1l-.2,.7c-.2,-.5,-.5,-.8,-1.1,-.8Zm.1,.3c.7,0,.6,1.3,.5,1.9c-.1,.3,-.2,.6,-.3,1c-.4,1.1,-1.5,3.1,-2.3,3.1c-.6,0,-.7,-1,-.7,-1.5c0,-.4,0,-.8,.2,-1.3c.3,-1,1.4,-3.2,2.6,-3.2Z" class="g0_328"/>
<path d="M511.7,294c-.7,0,-1.3,-.7,-1.3,-1.4c0,-.6,.4,-1,.9,-1c-.1,-.3,-.4,-.4,-.8,-.4c-.1,0,-.3,0,-.4,.1c-.4,.1,-.7,.6,-.7,1.1c0,.3,0,.5,.2,.7c.3,.7,1.1,1.1,2.1,1.1c.8,0,1.4,-.3,1.9,-.6c.4,-.4,.7,-.9,.7,-1.6c0,-.2,0,-.4,-.1,-.7c-.3,-.6,-.8,-1.1,-1.6,-1.3c.5,-.1,.8,-.4,1.1,-.7c.2,-.3,.4,-.7,.4,-1.1c0,-.3,-.1,-.5,-.2,-.7c-.3,-.7,-1.1,-1.1,-2.1,-1.1c-.6,0,-1.2,.2,-1.6,.4c-.3,.2,-.5,.5,-.5,1c0,.3,.1,.6,.3,.7c.1,.2,.3,.3,.7,.3c.1,0,.3,0,.4,-.1c.1,0,.2,-.1,.2,-.2c-.4,0,-.7,-.4,-.7,-.8c0,-.6,.5,-1.1,1.2,-1.1c.7,0,1.1,.7,1.1,1.6c0,.9,-.2,1.8,-1,1.8c-.2,-.1,-.4,-.2,-.6,-.2c-.3,0,-.6,.1,-.6,.3c0,.2,.4,.3,.6,.3c.2,0,.5,-.1,.6,-.2c.9,0,1.2,.8,1.2,1.8c0,1,-.4,2,-1.4,2Z" class="g0_328"/>
<path d="M447.5,303.5c1.3,0,1,1.9,.4,3.2c-.3,.8,-1.3,2.7,-2.4,2.7c-.5,0,-.7,-.3,-.7,-1c0,-.7,.3,-1.8,.5,-2.3c.3,-.6,.8,-1.6,1.2,-2c.2,-.4,.6,-.6,1,-.6Zm-2.2,6.2c1.7,0,2.9,-1.5,3.5,-2.6c.3,-.6,.6,-1.4,.6,-2.3c0,-1,-.5,-1.7,-1.5,-1.7c-.9,0,-1.6,.6,-2,1.2l1.5,-5.6l-2.1,.1v.2c.6,0,.8,.3,.8,.6c0,.2,-.1,.6,-.1,.7l-1.6,5.7c-.2,.5,-.3,1,-.4,1.3c-.1,.4,-.1,.7,-.1,.9c0,.9,.5,1.5,1.4,1.5Z" class="g0_328"/>
<path d="M451.3,304.9v.1c.3,0,.8,.1,.9,.2c.4,.1,.3,.3,.4,.7v4.8c0,.2,-.1,.4,-.1,.5c-.1,.5,-.6,.6,-1.2,.6v.2h3.4v-.2c-.3,0,-.9,0,-1,-.2c-.2,-.2,-.2,-.6,-.2,-1v-6.3c-.6,.3,-1.5,.6,-2.2,.6Z" class="g0_328"/>
<path d="M476.8,303.5c1.2,0,.9,1.9,.3,3.2c-.3,.8,-1.2,2.7,-2.4,2.7c-.4,0,-.7,-.3,-.7,-1c0,-.7,.3,-1.8,.5,-2.3c.3,-.6,.8,-1.6,1.2,-2c.2,-.4,.6,-.6,1.1,-.6Zm-2.3,6.2c1.7,0,2.9,-1.5,3.5,-2.6c.3,-.6,.6,-1.4,.6,-2.3c0,-1,-.5,-1.7,-1.5,-1.7c-.9,0,-1.6,.6,-2,1.2l1.5,-5.6l-2.1,.1v.2c.6,0,.9,.3,.9,.6c0,.2,-.2,.6,-.2,.7l-1.6,5.7c-.2,.5,-.3,1,-.4,1.3c-.1,.4,-.1,.7,-.1,.9c0,.9,.6,1.5,1.4,1.5Z" class="g0_328"/>
<path d="M481.7,307.3c-.7,0,-1.1,-.5,-1.1,-1.2c0,-.7,.4,-1.6,1.3,-1.6c1.2,0,1.3,1,1.3,1.9c0,.9,-.2,1.5,-.7,2.1c-.2,.4,-.6,.9,-1.1,1.4c-.5,.5,-1.1,1.1,-1.8,1.7v.4h4.5l.4,-2.1h-.3c-.1,.2,-.2,.4,-.3,.5c-.1,.4,-.4,.6,-1,.6h-2.1c.5,-.4,1,-.8,1.4,-1.1c.8,-.7,1.5,-1.4,2,-2.3c.1,-.4,.2,-.8,.2,-1.2c0,-.3,0,-.6,-.1,-.8c-.4,-.8,-1.1,-1.3,-2.2,-1.3c-.7,0,-1.4,.3,-1.8,.6c-.3,.3,-.7,.8,-.7,1.5c0,.4,.2,.8,.4,1c.2,.2,.5,.4,.9,.4c.4,0,.7,-.2,.8,-.5Z" class="g0_328"/>
<path d="M506,303.5c1.2,0,.9,1.9,.4,3.2c-.4,.8,-1.3,2.7,-2.5,2.7c-.4,0,-.6,-.3,-.6,-1c0,-.7,.2,-1.8,.5,-2.3c.2,-.6,.7,-1.6,1.1,-2c.2,-.4,.6,-.6,1.1,-.6Zm-2.2,6.2c1.6,0,2.8,-1.5,3.4,-2.6c.3,-.6,.6,-1.4,.6,-2.3c0,-1,-.5,-1.7,-1.5,-1.7c-.9,0,-1.6,.6,-2,1.2l1.5,-5.6l-2,.1l-.1,.2c.6,0,.9,.3,.9,.6c0,.2,-.1,.6,-.2,.7l-1.6,5.7c-.2,.5,-.3,1,-.4,1.3c0,.4,-.1,.7,-.1,.9c0,.9,.6,1.5,1.5,1.5Z" class="g0_328"/>
<path d="M511.1,311.9c-.7,0,-1.3,-.7,-1.3,-1.4c0,-.6,.4,-1,.9,-1c-.1,-.3,-.4,-.4,-.8,-.4c-.1,0,-.3,0,-.4,.1c-.4,.1,-.7,.6,-.7,1.1c0,.3,0,.5,.2,.7c.3,.7,1.1,1.1,2.1,1.1c.8,0,1.4,-.3,1.9,-.6c.4,-.4,.7,-.9,.7,-1.6c0,-.2,0,-.4,-.1,-.7c-.3,-.6,-.8,-1.1,-1.6,-1.3c.5,-.1,.8,-.4,1.1,-.7c.2,-.3,.4,-.7,.4,-1.1c0,-.3,-.1,-.5,-.2,-.7c-.3,-.7,-1.1,-1.1,-2.1,-1.1c-.6,0,-1.2,.2,-1.6,.4c-.3,.2,-.5,.5,-.5,1c0,.3,.1,.6,.3,.7c.1,.2,.4,.3,.7,.3c.1,0,.3,0,.4,-.1c.2,0,.2,-.1,.3,-.2c-.5,0,-.8,-.4,-.8,-.8c0,-.6,.5,-1.1,1.2,-1.1c.7,0,1.1,.7,1.1,1.6c0,.9,-.2,1.8,-1,1.8c-.2,-.1,-.4,-.2,-.6,-.2c-.3,0,-.6,.1,-.6,.3c0,.2,.4,.3,.6,.3c.2,0,.5,-.1,.6,-.2c.9,0,1.2,.8,1.2,1.8c0,1,-.4,2,-1.4,2Z" class="g0_328"/>
<path d="M519.8,270.5v-9.2h-3.6v.8H518c.3,0,.6,.2,.6,.6v7.8h1.2Z" class="g0_328"/>
<path d="M518.6,279.3h1.2v-9.6h-1.2Z" class="g0_328"/>
<path d="M518.6,288.3h1.2v-9.6h-1.2Z" class="g0_328"/>
<path d="M518.6,297.2h1.2v-9.6h-1.2Z" class="g0_328"/>
<path d="M518.6,306.2h1.2v-9.6h-1.2Z" class="g0_328"/>
<path d="M519.8,315v-9.2h-1.2v7.8c0,.4,-.3,.6,-.6,.6h-1.8v.8h3.6Z" class="g0_328"/>
<path d="M522.9,262.3c0,.1,.1,.2,.1,.3c3.2,5.4,4,19.2,4,20.4v.6h1.4v-.9c-.1,-2.6,-.8,-15.4,-5.3,-20.5c0,0,-.1,0,-.1,0c0,0,-.1,0,-.1,.1Z" class="g0_328"/>
<path d="M527,292.9h1.4v-9.6H527Z" class="g0_328"/>
<path d="M522.9,314c0,.1,.1,.1,.1,.1c0,0,.1,0,.1,0c4.5,-5.1,5.2,-17.9,5.3,-20.4v-1H527v.6c0,1.3,-.8,15,-4,20.4c0,.1,-.1,.2,-.1,.3Z" class="g0_328"/>
<path d="M216.4,419.8c0,-.5,.1,-.9,.2,-1.4c.3,-1,1.1,-2.9,2.2,-2.9c.4,0,.4,.2,.4,.3c0,.1,-.1,.2,-.1,.4c0,.4,.2,.6,.5,.6c.4,0,.7,-.3,.7,-.7c0,-.6,-.7,-.9,-1.4,-.9c-1.4,0,-2.5,1.4,-3.1,2.5c-.3,.5,-.5,1.3,-.5,2.1v.1c0,1,.6,1.9,1.7,1.9c1.3,0,2.1,-1.1,2.6,-2.1l-.3,-.1c-.4,.9,-1.2,1.8,-2,1.8c-.6,0,-.9,-.9,-.9,-1.6Z" class="g0_328"/>
<path d="M227,415.8c0,-.2,-.1,-.4,-.3,-.5c-.1,-.2,-.3,-.3,-.6,-.3c-.4,0,-.9,.4,-1.2,.6c-.3,.4,-.7,.8,-.9,1.3h-.1c.1,-.2,.1,-.3,.1,-.5c0,-.1,0,-.2,0,-.3c0,-.5,-.1,-.9,-.5,-.9c-1.1,0,-2,1.1,-2.2,1.8l.2,.1c.2,-.4,.9,-1.4,1.3,-1.4c.2,0,.2,.5,.2,.7c0,0,0,.2,0,.3c-.3,.8,-.4,1.5,-.8,2.5l-.8,2.4h1.1L223,420c.2,-.6,.4,-1.2,.6,-1.7c.2,-.5,.5,-.9,.7,-1.2c.2,-.5,.6,-1.2,1.1,-1.2c.2,0,.2,.2,.3,.3l.1,.1c.1,.1,.2,.2,.5,.2c.4,0,.7,-.3,.7,-.7Z" class="g0_328"/>
<path d="M229.1,419.9c0,-2.5,1,-4.4,2.4,-4.4c.5,0,.9,.4,.9,1.1c0,.4,0,1,-.2,1.7c-.2,1,-1,3.1,-2.1,3.1c-.6,0,-1,-.8,-1,-1.5Zm.9,1.9c1,0,1.9,-.8,2.4,-1.4c.5,-.7,1.1,-1.8,1.1,-2.9c0,-.7,-.3,-1.3,-.6,-1.7c-.4,-.4,-.8,-.6,-1.4,-.6c-.5,0,-.9,.1,-1.3,.3c-.8,.5,-1.5,1.3,-1.9,2.3c-.2,.5,-.3,1,-.3,1.6c0,.7,.2,1.4,.6,1.7c.4,.4,.8,.7,1.4,.7Z" class="g0_328"/>
<path d="M236.2,421.4c-.5,0,-.6,-.4,-.5,-.8c.1,-.5,-.3,-.7,-.6,-.7c-.4,0,-.6,.3,-.6,.7c0,.8,.7,1.2,1.6,1.2c.5,0,1.1,-.3,1.4,-.6c.4,-.3,.6,-.8,.6,-1.4c0,-.4,-.1,-.7,-.2,-1c-.3,-.6,-.8,-1.1,-1.1,-1.6c-.1,-.2,-.2,-.5,-.1,-.7c0,-.4,.1,-1,.7,-1c.6,0,.5,.4,.5,.6c-.1,.3,.1,.6,.5,.6c.3,0,.5,-.2,.5,-.5c0,-.7,-.6,-1,-1.3,-1c-.7,0,-1.1,.2,-1.5,.5c-.3,.3,-.5,.7,-.5,1.3c0,.4,.1,.7,.3,.9c.3,.6,.7,1,1,1.5c.2,.3,.3,.6,.3,.9c0,.4,-.2,1.1,-1,1.1Z" class="g0_328"/>
<path d="M241.5,421.4c-.5,0,-.6,-.4,-.5,-.8c.1,-.5,-.3,-.7,-.6,-.7c-.4,0,-.6,.3,-.6,.7c0,.8,.8,1.2,1.6,1.2c.6,0,1.1,-.3,1.4,-.6c.4,-.3,.6,-.8,.6,-1.4c0,-.4,0,-.7,-.2,-1c-.3,-.6,-.8,-1.1,-1.1,-1.6c-.1,-.2,-.1,-.5,-.1,-.7c0,-.4,.1,-1,.7,-1c.6,0,.5,.4,.5,.6c-.1,.3,.1,.6,.5,.6c.3,0,.5,-.2,.5,-.5c0,-.7,-.6,-1,-1.3,-1c-.7,0,-1.1,.2,-1.5,.5c-.3,.3,-.5,.7,-.5,1.3c0,.4,.1,.7,.3,.9c.3,.6,.7,1,1,1.5c.2,.3,.3,.6,.3,.9c0,.4,-.2,1.1,-1,1.1Z" class="g0_328"/>
<path d="M250.1,411c-2.2,1.4,-3.7,3.8,-3.7,6.8c0,2.8,1.6,5.6,3.6,6.9l.2,-.3c-1.9,-1.5,-2.5,-3.3,-2.5,-6.6c0,-3.3,.6,-5,2.5,-6.6l-.1,-.2Z" class="g0_328"/>
<path d="M256.3,415.1c-.5,0,-1,.2,-1.5,.5c-.5,.3,-1,.7,-1.4,1.2c-.7,.7,-1.4,1.9,-1.4,3.2c0,1.1,.4,1.8,1.5,1.8c1.5,0,2.1,-.9,2.5,-1.6c-.2,.8,-.1,1.6,.7,1.6c1.2,0,2.1,-1,2.6,-1.9l-.2,-.2c-.3,.3,-1,1.3,-1.4,1.3c-.2,0,-.3,-.3,-.3,-.5c0,-.8,.6,-2.4,.9,-3.3l.7,-1.9h-1.3l-.2,.6c-.2,-.3,-.5,-.8,-1.2,-.8Zm.1,.4c.9,0,.6,1.3,.4,1.9c-.1,.3,-.2,.6,-.3,.9c-.5,1.2,-1.5,3,-2.4,3c-.6,0,-.7,-.9,-.7,-1.4c0,-.4,.2,-.8,.4,-1.3c.4,-1,1.3,-3.1,2.6,-3.1Z" class="g0_328"/>
<path d="M261.3,416.9v.2c.3,0,.8,0,.9,.1c.3,.2,.3,.3,.3,.8v4.7c0,.2,0,.4,0,.6c-.1,.5,-.7,.5,-1.2,.6v.1h3.4v-.1c-.3,-.1,-.9,-.1,-1,-.3c-.2,-.2,-.2,-.5,-.2,-1v-6.2c-.6,.3,-1.5,.5,-2.2,.5Z" class="g0_328"/>
<path d="M268.2,420.9c0,.4,.2,.7,.7,.7c.1,0,.2,0,.4,-.1c0,.4,-.1,.8,-.3,1.1c-.3,.3,-.6,.6,-1.1,1l.3,.4c.4,-.2,.7,-.5,.9,-.7c.5,-.5,.9,-1,.9,-1.9c0,-.9,-.3,-1.4,-.9,-1.4c-.6,0,-.9,.4,-.9,.9Z" class="g0_328"/>
<path d="M279.6,415.1c-.5,0,-.9,.2,-1.5,.5c-.5,.3,-.9,.7,-1.3,1.2c-.8,.7,-1.5,1.9,-1.5,3.2c0,1.1,.5,1.8,1.5,1.8c1.5,0,2.1,-.9,2.6,-1.6c-.2,.8,-.2,1.6,.6,1.6c1.3,0,2.1,-1,2.7,-1.9l-.3,-.2c-.3,.3,-1,1.3,-1.3,1.3c-.3,0,-.4,-.3,-.4,-.5c0,-.8,.6,-2.4,1,-3.3l.6,-1.9H281l-.2,.6c-.1,-.3,-.5,-.8,-1.2,-.8Zm.2,.4c.9,0,.5,1.3,.3,1.9c0,.3,-.2,.6,-.3,.9c-.4,1.2,-1.5,3,-2.3,3c-.7,0,-.7,-.9,-.7,-1.4c0,-.4,.1,-.8,.3,-1.3c.4,-1,1.3,-3.1,2.7,-3.1Z" class="g0_328"/>
<path d="M285.8,419.3c-.7,0,-1.1,-.4,-1.1,-1.1c0,-.8,.4,-1.6,1.3,-1.6c1.2,0,1.4,.9,1.4,1.9c0,.9,-.3,1.4,-.8,2.1c-.2,.4,-.6,.8,-1.1,1.3c-.5,.5,-1.1,1.1,-1.8,1.8v.3h4.5l.4,-2.1h-.3c-.1,.3,-.2,.4,-.2,.6c-.2,.4,-.5,.6,-1,.6h-2.2V423c.5,-.3,1,-.7,1.4,-1.1c.8,-.6,1.5,-1.3,2,-2.2c.1,-.4,.2,-.8,.2,-1.2c0,-.3,0,-.6,-.1,-.9c-.4,-.7,-1.1,-1.2,-2.2,-1.2c-.7,0,-1.4,.2,-1.8,.5c-.3,.4,-.6,.8,-.6,1.5c0,.5,.1,.8,.3,1.1c.2,.2,.5,.4,.9,.4c.4,0,.7,-.2,.8,-.6Z" class="g0_328"/>
<path d="M291.5,420.9c0,.4,.3,.7,.7,.7c.1,0,.3,0,.4,-.1c0,.4,-.1,.8,-.3,1.1c-.2,.3,-.6,.6,-1,1l.3,.4c.3,-.2,.6,-.5,.8,-.7c.5,-.5,1,-1,1,-1.9c0,-.9,-.4,-1.4,-1,-1.4c-.5,0,-.9,.4,-.9,.9Z" class="g0_328"/>
<path d="M300.3,421.8c.5,0,.8,-.4,.8,-.9c0,-.5,-.3,-.9,-.8,-.9c-.5,0,-.9,.4,-.9,.9c0,.5,.4,.9,.9,.9Z" class="g0_328"/>
<path d="M307.4,421.8c.5,0,.9,-.4,.9,-.9c0,-.5,-.4,-.9,-.9,-.9c-.5,0,-.9,.4,-.9,.9c0,.5,.4,.9,.9,.9Z" class="g0_328"/>
<path d="M314.5,421.8c.5,0,.9,-.4,.9,-.9c0,-.5,-.4,-.9,-.9,-.9c-.4,0,-.8,.4,-.8,.9c0,.5,.4,.9,.8,.9Z" class="g0_328"/>
<path d="M320.9,420.9c0,.4,.2,.7,.7,.7c.1,0,.2,0,.4,-.1c0,.4,-.1,.8,-.3,1.1c-.3,.3,-.6,.6,-1.1,1l.3,.4c.4,-.2,.7,-.5,.9,-.7c.5,-.5,.9,-1,.9,-1.9c0,-.9,-.3,-1.4,-.9,-1.4c-.6,0,-.9,.4,-.9,.9Z" class="g0_328"/>
<path d="M332.3,415.1c-.5,0,-.9,.2,-1.4,.5c-.6,.3,-1,.7,-1.4,1.2c-.8,.7,-1.5,1.9,-1.5,3.2c0,1.1,.5,1.8,1.5,1.8c1.5,0,2.1,-.9,2.6,-1.6c-.2,.8,-.2,1.6,.6,1.6c1.3,0,2.1,-1,2.7,-1.9l-.3,-.2c-.3,.3,-1,1.3,-1.3,1.3c-.3,0,-.4,-.3,-.4,-.5c0,-.8,.6,-2.4,1,-3.3l.6,-1.9h-1.2l-.3,.6c-.1,-.3,-.5,-.8,-1.2,-.8Zm.2,.4c.9,0,.5,1.3,.3,1.9c0,.3,-.2,.6,-.3,.9c-.4,1.2,-1.5,3,-2.3,3c-.7,0,-.7,-.9,-.7,-1.4c0,-.4,.1,-.8,.3,-1.3c.4,-1,1.3,-3.1,2.7,-3.1Z" class="g0_328"/>
<path d="M341.6,424h.3l1.5,-6c.1,-.1,.2,-.3,.2,-.4c.1,-.3,.4,-.7,.6,-.9c.1,-.1,.4,-.1,.5,-.1l.1,-.1h-2.3v.1c.2,0,.4,.1,.6,.3c.1,.2,.1,.6,.1,.8c0,.1,0,.3,0,.4l-1.1,4v.1l-2.5,-5.7h-2v.1c.4,0,.5,.1,.7,.2c.2,.3,.4,.7,.4,1c0,.1,0,.2,-.1,.3l-1.1,4.4c-.1,.4,-.4,.7,-.6,1c-.3,.2,-.7,.4,-1,.4v.1h2.8v-.1c-.3,-.1,-.6,-.1,-.7,-.3c-.2,-.1,-.3,-.5,-.3,-.7c0,-.2,0,-.3,0,-.5l1.2,-4.3v-.2l2.7,6.1Z" class="g0_328"/>
<path d="M346.4,421.5H352v-.6h-5.6Z" class="g0_328"/>
<path d="M354.6,416.9v.2c.3,0,.8,0,.9,.1c.4,.2,.3,.3,.4,.8v4.7c0,.2,-.1,.4,-.1,.6c-.1,.5,-.6,.5,-1.2,.6v.1H358v-.1c-.3,-.1,-.9,-.1,-1,-.3c-.2,-.2,-.2,-.5,-.2,-1v-6.2c-.6,.3,-1.5,.5,-2.2,.5Z" class="g0_328"/>
<path d="M364.7,419.8h7.6v-.9h-7.6Zm0,-3.1h7.6v-.8h-7.6Z" class="g0_328"/>
<path d="M381.7,416.3c0,.6,-.2,1.6,-.3,2.1c-.2,.6,-.7,1.8,-1.1,2.2c-.3,.4,-.7,.8,-1.2,.8c-.5,0,-.8,-.4,-.8,-.9c0,-.6,.1,-1.8,.4,-2.3c.3,-.9,1.2,-2.7,2.4,-2.7c.4,0,.6,.4,.6,.8Zm.2,5.5c.5,0,.8,-.2,1.1,-.6c.3,-.4,.6,-.9,.9,-1.7l-.3,-.1c-.2,.5,-.7,1.9,-1.2,1.9c-.3,0,-.4,-.5,-.4,-.8c0,-.2,0,-.3,0,-.5c.1,-.6,.2,-1.2,.4,-1.9c.1,-.4,.3,-.9,.4,-1.6l1.6,-5.8h-2.3v.2c.4,0,.6,.1,.7,.2c.2,.1,.3,.3,.3,.4c0,.3,-.1,.6,-.2,.9l-.9,3.4c-.2,-.4,-.4,-.6,-1,-.6c-1,0,-2,.9,-2.5,1.6c-.3,.3,-.5,.6,-.7,.9c-.3,.6,-.6,1.4,-.6,2.2c0,.6,.2,1,.5,1.3c.2,.3,.5,.6,1,.6c1.4,0,1.9,-.9,2.3,-1.7h.1c0,.1,0,.2,0,.3c-.1,.1,-.1,.2,-.1,.3c0,.6,.3,1.1,.9,1.1Z" class="g0_328"/>
<path d="M389,415.5c.3,0,.6,.3,.6,.6c0,1.3,-1.7,2.3,-3,2.7c.3,-1,1.2,-3.3,2.4,-3.3Zm.2,-.3c-1.2,0,-2,.8,-2.6,1.5c-.6,.7,-1.1,1.8,-1.1,3.1c0,1.2,.4,2,1.6,2c1,0,1.9,-.8,2.5,-1.7l-.2,-.2c-.4,.6,-1.2,1.5,-2.1,1.5c-.6,0,-.8,-.5,-.8,-1.3c0,-.3,0,-.7,.1,-1c1.4,-.3,3.9,-1.2,3.9,-2.9c0,-.7,-.6,-1,-1.3,-1Z" class="g0_328"/>
<path d="M392.3,421.8c1.3,0,2.1,-1.3,2.5,-2.1l-.2,-.2c-.3,.4,-.9,1.7,-1.7,1.7c-.2,0,-.3,-.5,-.3,-.6c0,-.2,.1,-.6,.2,-1l1.1,-4h1.3l.1,-.3H394l.4,-1.6h-1l-.5,1.6h-1l-.1,.3h1.1l-1,3.6c-.1,.5,-.2,.9,-.3,1.1c0,.3,-.1,.5,-.1,.7c0,.5,.3,.8,.8,.8Z" class="g0_328"/>
<path d="M404.8,383c0,0,0,-.1,-.1,-.1v.1c-4.8,5.3,-5.4,19.1,-5.4,20.7v.7h1.4v-.7c0,-1.2,.8,-14.9,4,-20.3c.1,-.2,.1,-.3,.1,-.4Z" class="g0_328"/>
<path d="M399.3,413.7h1.4v-9.6h-1.4Z" class="g0_328"/>
<path d="M399.3,422.6h1.4V413h-1.4Z" class="g0_328"/>
<path d="M399.3,431.6h1.4V422h-1.4Z" class="g0_328"/>
<path d="M404.8,452.7c0,-.1,0,-.2,-.1,-.4c-3.2,-5.4,-4,-19.1,-4,-20.3v-.7h-1.4v.7c0,1.6,.6,15.4,5.4,20.7q0,.1,0,.1c.1,0,.1,-.1,.1,-.1Z" class="g0_328"/>
<path d="M411.5,382.8v-.7H408v9.2h1.1v-7.9c0,-.3,.3,-.6,.7,-.6h1.7Z" class="g0_328"/>
<path d="M408,400.1h1.1v-9.6H408Z" class="g0_328"/>
<path d="M408,409h1.1v-9.6H408Z" class="g0_328"/>
<path d="M408,418h1.1v-9.6H408Z" class="g0_328"/>
<path d="M408,426.9h1.1v-9.6H408Z" class="g0_328"/>
<path d="M408,435.9h1.1v-9.6H408Z" class="g0_328"/>
<path d="M408,444.8h1.1v-9.6H408Z" class="g0_328"/>
<path d="M411.5,453.6v-.7h-1.7c-.4,0,-.7,-.3,-.7,-.7v-7.8H408v9.2h3.5Z" class="g0_328"/>
<path d="M433.7,388.4c.3,0,.6,.3,.6,.6c0,1.3,-1.7,2.3,-3,2.7c.3,-1,1.2,-3.3,2.4,-3.3Zm.2,-.3c-1.2,0,-2,.8,-2.6,1.5c-.7,.7,-1.1,1.8,-1.1,3.1c0,1.2,.4,2,1.5,2c1.1,0,2,-.8,2.6,-1.7l-.2,-.2c-.4,.6,-1.2,1.5,-2.1,1.5c-.6,0,-.8,-.5,-.8,-1.3c0,-.3,0,-.7,.1,-1c1.4,-.3,3.9,-1.2,3.9,-2.9c0,-.7,-.6,-1,-1.3,-1Z" class="g0_328"/>
<path d="M436.8,389.8v.2c.3,0,.8,0,.9,.1c.4,.2,.3,.3,.4,.7v4.8c0,.2,-.1,.4,-.1,.6c-.1,.5,-.6,.5,-1.2,.6v.1h3.4v-.1c-.3,-.1,-.9,-.1,-1,-.3c-.2,-.2,-.2,-.6,-.2,-1v-6.2c-.6,.3,-1.5,.5,-2.2,.5Z" class="g0_328"/>
<path d="M496.4,388.4c.3,0,.5,.3,.5,.6c0,1.3,-1.6,2.3,-2.9,2.7c.3,-1,1.2,-3.3,2.4,-3.3Zm.1,-.3c-1.1,0,-2,.8,-2.6,1.5c-.6,.7,-1.1,1.8,-1.1,3.1c0,1.2,.4,2,1.6,2c1,0,2,-.8,2.6,-1.7l-.2,-.2c-.4,.6,-1.3,1.5,-2.1,1.5c-.6,0,-.8,-.5,-.8,-1.3c0,-.3,0,-.7,0,-1c1.5,-.3,4,-1.2,4,-2.9c0,-.7,-.7,-1,-1.4,-1Z" class="g0_328"/>
<path d="M500.6,392.2c-.6,0,-1,-.4,-1,-1.1c0,-.8,.4,-1.6,1.3,-1.6c1.2,0,1.3,.9,1.3,1.9c0,.9,-.3,1.4,-.7,2.1c-.3,.4,-.7,.8,-1.1,1.3c-.5,.5,-1.1,1.1,-1.9,1.8v.3h4.6l.3,-2.1h-.3c0,.2,-.1,.4,-.2,.6c-.2,.4,-.5,.5,-1,.5h-2.1c.5,-.4,.9,-.7,1.4,-1.1c.7,-.6,1.5,-1.3,1.9,-2.2c.2,-.4,.3,-.8,.3,-1.2c0,-.3,-.1,-.6,-.2,-.9c-.3,-.7,-1.1,-1.2,-2.2,-1.2c-.7,0,-1.3,.2,-1.7,.5c-.4,.4,-.7,.8,-.7,1.5c0,.5,.1,.8,.4,1c.2,.3,.5,.5,.9,.5c.4,0,.7,-.2,.7,-.6Z" class="g0_328"/>
<path d="M539.7,394.7c.5,0,.9,-.4,.9,-.9c0,-.5,-.4,-.9,-.9,-.9c-.5,0,-.9,.4,-.9,.9c0,.5,.4,.9,.9,.9Z" class="g0_328"/>
<path d="M546.9,394.7c.5,0,.8,-.4,.8,-.9c0,-.5,-.3,-.9,-.8,-.9c-.5,0,-.9,.4,-.9,.9c0,.5,.4,.9,.9,.9Z" class="g0_328"/>
<path d="M554,394.7c.5,0,.9,-.4,.9,-.9c0,-.5,-.4,-.9,-.9,-.9c-.5,0,-.9,.4,-.9,.9c0,.5,.4,.9,.9,.9Z" class="g0_328"/>
<path d="M595.4,388.4c.3,0,.6,.3,.6,.6c0,1.3,-1.7,2.3,-3,2.7c.3,-1,1.2,-3.3,2.4,-3.3Zm.1,-.3c-1.1,0,-2,.8,-2.5,1.5c-.7,.7,-1.1,1.8,-1.1,3.1c0,1.2,.4,2,1.5,2c1.1,0,2,-.8,2.6,-1.7l-.2,-.2c-.4,.6,-1.3,1.5,-2.1,1.5c-.6,0,-.8,-.5,-.8,-1.3c0,-.3,0,-.7,0,-1c1.5,-.3,4,-1.2,4,-2.9c0,-.7,-.7,-1,-1.4,-1Z" class="g0_328"/>
<path d="M602.7,396.9h.3l1.6,-6c.1,-.2,.1,-.3,.2,-.5c.1,-.2,.3,-.7,.6,-.8c.1,-.1,.3,-.1,.5,-.1v-.2h-2.2l-.1,.2c.2,0,.5,.1,.6,.3c.2,.1,.2,.5,.2,.8c0,.1,0,.2,-.1,.4l-1,4v.1l-2.6,-5.8h-1.9l-.1,.2c.5,0,.6,0,.7,.2c.3,.2,.4,.7,.4,1c0,.1,0,.2,0,.3l-1.2,4.4c-.1,.4,-.3,.7,-.6,1c-.2,.2,-.6,.3,-.9,.3l-.1,.2h2.8l.1,-.2c-.3,0,-.6,0,-.8,-.2c-.1,-.2,-.3,-.5,-.3,-.8c0,-.1,0,-.2,.1,-.4L600,391l.1,-.2l2.6,6.1Z" class="g0_328"/>
<path d="M430.2,406c-.4,0,-.8,.1,-1.3,.4c-.4,.3,-.8,.7,-1.2,1.2c-.6,.7,-1.2,1.9,-1.2,3.2c0,1,.3,1.8,1.3,1.8c1.3,0,1.8,-.9,2.1,-1.6h.1c-.2,.9,-.1,1.6,.5,1.6c.4,0,.7,-.2,1.1,-.5c.4,-.3,.8,-.8,1.1,-1.4l-.1,-.1c-.3,.4,-1,1.3,-1.4,1.3c-.2,0,-.3,-.3,-.3,-.5c0,-.9,.6,-2.5,1,-3.5l.7,-1.8h-1l-.3,.7c-.2,-.5,-.5,-.8,-1.1,-.8Zm.2,.2c.7,0,.5,1.4,.4,1.9c0,.3,-.2,.7,-.3,1c-.3,1.2,-1.4,3.1,-2.2,3.1c-.6,0,-.8,-.9,-.8,-1.4c0,-.5,0,-.9,.2,-1.4c.4,-1,1.4,-3.2,2.7,-3.2Z" class="g0_328"/>
<path d="M434.6,407.7v.2c.4,0,.8,0,1,.1c.3,.2,.3,.3,.3,.8v4.7c0,.2,0,.4,0,.6c-.1,.5,-.7,.5,-1.2,.6v.1h3.4v-.1c-.4,-.1,-.9,-.1,-1,-.3c-.2,-.2,-.2,-.5,-.2,-1v-6.2c-.6,.3,-1.6,.5,-2.3,.5Z" class="g0_328"/>
<path d="M440.7,407.7v.2c.4,0,.8,0,1,.1c.3,.2,.3,.3,.3,.8v4.7c0,.2,0,.4,0,.6c-.1,.5,-.7,.5,-1.2,.6v.1h3.4v-.1c-.4,-.1,-.9,-.1,-1,-.3c-.2,-.2,-.2,-.5,-.2,-1v-6.2c-.6,.3,-1.6,.5,-2.3,.5Z" class="g0_328"/>
<path d="M492.9,406c-.4,0,-.8,.1,-1.3,.4c-.4,.3,-.9,.7,-1.2,1.2c-.7,.7,-1.3,1.9,-1.3,3.2c0,1,.4,1.8,1.3,1.8c1.3,0,1.8,-.9,2.2,-1.6c-.2,.9,-.1,1.6,.6,1.6c.3,0,.7,-.2,1.1,-.5c.4,-.3,.8,-.8,1.1,-1.4l-.2,-.1c-.3,.4,-.9,1.3,-1.3,1.3c-.2,0,-.3,-.3,-.3,-.5c0,-.9,.6,-2.5,.9,-3.5l.7,-1.8h-1l-.2,.7c-.2,-.5,-.5,-.8,-1.1,-.8Zm.2,.2c.7,0,.5,1.4,.4,1.9c-.1,.3,-.2,.7,-.3,1c-.4,1.2,-1.5,3.1,-2.3,3.1c-.6,0,-.7,-.9,-.7,-1.4c0,-.5,0,-.9,.2,-1.4c.3,-1,1.4,-3.2,2.7,-3.2Z" class="g0_328"/>
<path d="M497.3,407.7v.2c.3,0,.8,0,1,.1c.3,.2,.3,.3,.3,.8v4.7c0,.2,0,.4,0,.6c-.1,.5,-.7,.5,-1.2,.6v.1h3.4v-.1c-.4,-.1,-.9,-.1,-1.1,-.3c-.1,-.2,-.2,-.5,-.2,-1v-6.2c-.5,.3,-1.5,.5,-2.2,.5Z" class="g0_328"/>
<path d="M504.6,410.1c-.7,0,-1.1,-.4,-1.1,-1.1c0,-.8,.4,-1.6,1.3,-1.6c1.3,0,1.4,.9,1.4,1.9c0,.9,-.3,1.4,-.7,2.1c-.3,.4,-.7,.8,-1.2,1.3c-.5,.5,-1.1,1.1,-1.8,1.8v.3H507l.4,-2.1h-.3c-.1,.2,-.2,.4,-.2,.6c-.2,.4,-.5,.6,-1,.6h-2.1v-.1c.4,-.4,.9,-.7,1.3,-1.1c.8,-.6,1.6,-1.3,2,-2.2c.2,-.4,.3,-.8,.3,-1.2c0,-.3,-.1,-.6,-.2,-.9c-.4,-.7,-1.1,-1.2,-2.2,-1.2c-.7,0,-1.3,.2,-1.7,.5c-.4,.4,-.7,.8,-.7,1.5c0,.5,.1,.8,.3,1c.2,.3,.5,.5,.9,.5c.4,0,.7,-.2,.8,-.6Z" class="g0_328"/>
<path d="M539.7,412.6c.5,0,.9,-.4,.9,-.9c0,-.5,-.4,-.9,-.9,-.9c-.5,0,-.9,.4,-.9,.9c0,.5,.4,.9,.9,.9Z" class="g0_328"/>
<path d="M546.9,412.6c.5,0,.8,-.4,.8,-.9c0,-.5,-.3,-.9,-.8,-.9c-.5,0,-.9,.4,-.9,.9c0,.5,.4,.9,.9,.9Z" class="g0_328"/>
<path d="M554,412.6c.5,0,.9,-.4,.9,-.9c0,-.5,-.4,-.9,-.9,-.9c-.5,0,-.9,.4,-.9,.9c0,.5,.4,.9,.9,.9Z" class="g0_328"/>
<path d="M591.9,406c-.4,0,-.8,.1,-1.3,.4c-.4,.3,-.8,.7,-1.2,1.2c-.7,.7,-1.3,1.9,-1.3,3.2c0,1,.4,1.8,1.3,1.8c1.3,0,1.8,-.9,2.2,-1.6c-.2,.9,0,1.6,.6,1.6c.4,0,.7,-.2,1.1,-.5c.4,-.3,.8,-.8,1.1,-1.4l-.2,-.1c-.3,.4,-.9,1.3,-1.3,1.3c-.2,0,-.3,-.3,-.3,-.5c0,-.9,.6,-2.5,.9,-3.5l.7,-1.8h-1l-.2,.7c-.2,-.5,-.5,-.8,-1.1,-.8Zm.2,.2c.7,0,.5,1.4,.4,1.9c-.1,.3,-.2,.7,-.3,1c-.4,1.2,-1.4,3.1,-2.2,3.1c-.7,0,-.8,-.9,-.8,-1.4c0,-.5,0,-.9,.2,-1.4c.3,-1,1.4,-3.2,2.7,-3.2Z" class="g0_328"/>
<path d="M596.3,407.7v.2c.3,0,.8,0,1,.1c.3,.2,.3,.3,.3,.8v4.7c0,.2,0,.4,0,.6c-.1,.5,-.7,.5,-1.2,.6v.1h3.4v-.1c-.4,-.1,-.9,-.1,-1.1,-.3c-.1,-.2,-.1,-.5,-.1,-1v-6.2c-.6,.3,-1.6,.5,-2.3,.5Z" class="g0_328"/>
<path d="M606.7,414.8h.3l1.6,-6c0,-.1,.1,-.3,.1,-.5c.2,-.2,.4,-.6,.7,-.8c.1,-.1,.3,-.1,.4,-.1l.1,-.1h-2.3v.1c.2,0,.4,.1,.6,.3c.1,.2,.1,.6,.1,.8c0,.1,0,.3,0,.4l-1,4l-.1,.1l-2.5,-5.7h-2v.1c.4,0,.6,0,.7,.2c.2,.3,.4,.7,.4,1c0,.1,0,.2,0,.3l-1.2,4.4c-.1,.4,-.3,.7,-.6,1c-.2,.2,-.7,.4,-1,.4v.1h2.8v-.1c-.2,-.1,-.6,-.1,-.7,-.3c-.2,-.1,-.3,-.5,-.3,-.7c0,-.2,0,-.3,0,-.5l1.2,-4.3v-.2l2.7,6.1Z" class="g0_328"/>
<path d="M427.5,430.5c.5,0,.9,-.4,.9,-.9c0,-.5,-.4,-.9,-.9,-.9c-.4,0,-.8,.4,-.8,.9c0,.5,.4,.9,.8,.9Z" class="g0_328"/>
<path d="M434.7,430.5c.5,0,.9,-.4,.9,-.9c0,-.5,-.4,-.9,-.9,-.9c-.5,0,-.9,.4,-.9,.9c0,.5,.4,.9,.9,.9Z" class="g0_328"/>
<path d="M441.8,430.5c.5,0,.9,-.4,.9,-.9c0,-.5,-.4,-.9,-.9,-.9c-.5,0,-.9,.4,-.9,.9c0,.5,.4,.9,.9,.9Z" class="g0_328"/>
<path d="M490.2,430.5c.5,0,.9,-.4,.9,-.9c0,-.5,-.4,-.9,-.9,-.9c-.5,0,-.9,.4,-.9,.9c0,.5,.4,.9,.9,.9Z" class="g0_328"/>
<path d="M497.3,430.5c.6,0,.9,-.4,.9,-.9c0,-.5,-.3,-.9,-.9,-.9c-.4,0,-.8,.4,-.8,.9c0,.5,.4,.9,.8,.9Z" class="g0_328"/>
<path d="M504.5,430.5c.5,0,.9,-.4,.9,-.9c0,-.5,-.4,-.9,-.9,-.9c-.5,0,-.9,.4,-.9,.9c0,.5,.4,.9,.9,.9Z" class="g0_328"/>
<path d="M539.7,430.5c.5,0,.9,-.4,.9,-.9c0,-.5,-.4,-.9,-.9,-.9c-.5,0,-.9,.4,-.9,.9c0,.5,.4,.9,.9,.9Z" class="g0_328"/>
<path d="M546.9,430.5c.5,0,.8,-.4,.8,-.9c0,-.5,-.3,-.9,-.8,-.9c-.5,0,-.9,.4,-.9,.9c0,.5,.4,.9,.9,.9Z" class="g0_328"/>
<path d="M554,430.5c.5,0,.9,-.4,.9,-.9c0,-.5,-.4,-.9,-.9,-.9c-.5,0,-.9,.4,-.9,.9c0,.5,.4,.9,.9,.9Z" class="g0_328"/>
<path d="M592.1,430.5c.6,0,.9,-.4,.9,-.9c0,-.5,-.3,-.9,-.9,-.9c-.4,0,-.8,.4,-.8,.9c0,.5,.4,.9,.8,.9Z" class="g0_328"/>
<path d="M599.3,430.5c.5,0,.9,-.4,.9,-.9c0,-.5,-.4,-.9,-.9,-.9c-.5,0,-.9,.4,-.9,.9c0,.5,.4,.9,.9,.9Z" class="g0_328"/>
<path d="M606.4,430.5c.5,0,.9,-.4,.9,-.9c0,-.5,-.4,-.9,-.9,-.9c-.4,0,-.8,.4,-.8,.9c0,.5,.4,.9,.8,.9Z" class="g0_328"/>
<path d="M416.6,441.8c-.5,0,-.9,.1,-1.3,.4c-.5,.3,-.9,.7,-1.3,1.2c-.6,.7,-1.2,1.9,-1.2,3.2c0,1,.4,1.8,1.3,1.8c1.3,0,1.8,-.9,2.2,-1.6c-.2,.9,-.1,1.6,.5,1.6c.4,0,.8,-.2,1.2,-.5c.4,-.3,.7,-.8,1.1,-1.4l-.2,-.1c-.3,.4,-.9,1.3,-1.4,1.3c-.2,0,-.2,-.3,-.2,-.5c0,-.9,.6,-2.5,.9,-3.5l.7,-1.8h-1l-.3,.7c-.1,-.5,-.4,-.8,-1,-.8Zm.1,.2c.7,0,.6,1.4,.5,1.9c-.1,.3,-.2,.7,-.3,1c-.4,1.2,-1.5,3.1,-2.3,3.1c-.6,0,-.8,-.9,-.8,-1.4c0,-.5,0,-.9,.2,-1.4c.4,-1,1.4,-3.2,2.7,-3.2Z" class="g0_328"/>
<path d="M423.6,442.9c-1.6,1,-2.7,2.8,-2.7,5c0,2,1.2,4.1,2.7,5l.1,-.2c-1.4,-1.1,-1.9,-2.4,-1.9,-4.8c0,-2.4,.5,-3.7,1.9,-4.8l-.1,-.2Z" class="g0_328"/>
<path d="M430.3,450.7h.3l1.6,-6c0,-.2,.1,-.3,.1,-.5c.2,-.2,.4,-.7,.6,-.8c.2,-.1,.4,-.1,.5,-.1l.1,-.2h-2.3v.2c.2,0,.4,.1,.6,.3c.1,.1,.1,.5,.1,.8c0,.1,0,.2,0,.4l-1.1,4v.1l-2.5,-5.8h-2v.2c.4,0,.6,0,.7,.2c.2,.2,.4,.7,.4,1c0,.1,0,.2,-.1,.3l-1.1,4.4c-.1,.4,-.4,.7,-.6,1c-.3,.2,-.7,.3,-1,.3v.2h2.8v-.2c-.3,0,-.6,0,-.7,-.2c-.2,-.2,-.3,-.5,-.3,-.8c0,-.1,0,-.2,0,-.4l1.2,-4.3v-.2l2.7,6.1Z" class="g0_328"/>
<path d="M435.1,448.2h5.6v-.6h-5.6Z" class="g0_328"/>
<path d="M443.3,443.6v.2c.3,0,.8,0,.9,.1c.4,.2,.3,.3,.4,.7v4.8c0,.2,-.1,.4,-.1,.5c0,.5,-.6,.6,-1.2,.6v.2h3.5v-.2c-.4,0,-1,0,-1.1,-.2c-.2,-.2,-.2,-.6,-.2,-1V443c-.6,.3,-1.5,.6,-2.2,.6Z" class="g0_328"/>
<path d="M448.9,442.9l-.1,.2c1.4,1.1,1.8,2.4,1.8,4.8c0,2.4,-.4,3.7,-1.8,4.8l.1,.2c1.5,-.9,2.7,-3,2.7,-5c0,-2.2,-1.1,-4,-2.7,-5Z" class="g0_328"/>
<path d="M454.4,443.6v.2c.3,0,.8,0,1,.1c.3,.2,.3,.3,.3,.7v4.8c0,.2,0,.4,0,.5c-.1,.5,-.7,.6,-1.2,.6v.2h3.4v-.2c-.4,0,-.9,0,-1.1,-.2c-.1,-.2,-.1,-.6,-.1,-1V443c-.6,.3,-1.6,.6,-2.3,.6Z" class="g0_328"/>
<path d="M479.2,441.8c-.4,0,-.8,.1,-1.3,.4c-.4,.3,-.8,.7,-1.2,1.2c-.6,.7,-1.2,1.9,-1.2,3.2c0,1,.3,1.8,1.3,1.8c1.3,0,1.7,-.9,2.1,-1.6h.1c-.2,.9,-.1,1.6,.5,1.6c.4,0,.7,-.2,1.1,-.5c.4,-.3,.8,-.8,1.1,-1.4l-.2,-.1c-.2,.4,-.9,1.3,-1.3,1.3c-.2,0,-.3,-.3,-.3,-.5c0,-.9,.6,-2.5,1,-3.5l.7,-1.8h-1l-.3,.7c-.2,-.5,-.5,-.8,-1.1,-.8Zm.2,.2c.7,0,.5,1.4,.4,1.9c0,.3,-.2,.7,-.3,1c-.3,1.2,-1.4,3.1,-2.2,3.1c-.6,0,-.8,-.9,-.8,-1.4c0,-.5,0,-.9,.2,-1.4c.4,-1,1.4,-3.2,2.7,-3.2Z" class="g0_328"/>
<path d="M486.3,442.9c-1.6,1,-2.7,2.8,-2.7,5c0,2,1.1,4.1,2.6,5l.2,-.2c-1.5,-1.1,-1.9,-2.4,-1.9,-4.8c0,-2.4,.5,-3.7,1.9,-4.8l-.1,-.2Z" class="g0_328"/>
<path d="M493,450.7h.2l1.6,-6c.1,-.2,.1,-.3,.2,-.5c.1,-.2,.4,-.7,.6,-.8c.1,-.1,.4,-.1,.5,-.1v-.2h-2.2l-.1,.2c.3,0,.5,.1,.6,.3c.2,.1,.2,.5,.2,.8c0,.1,0,.2,0,.4l-1.1,4v.1l-2.6,-5.8H489l-.1,.2c.5,0,.6,0,.8,.2c.2,.2,.4,.7,.4,1c0,.1,-.1,.2,-.1,.3l-1.2,4.4c0,.4,-.3,.7,-.5,1c-.3,.2,-.7,.3,-1,.3v.2h2.8v-.2c-.3,0,-.6,0,-.7,-.2c-.2,-.2,-.3,-.5,-.3,-.8c0,-.1,0,-.2,0,-.4l1.1,-4.3l.1,-.2l2.7,6.1Z" class="g0_328"/>
<path d="M497.8,448.2h5.6v-.6h-5.6Z" class="g0_328"/>
<path d="M507.1,446c-.6,0,-1,-.5,-1,-1.1c0,-.8,.4,-1.7,1.3,-1.7c1.2,0,1.3,1,1.3,1.9c0,1,-.3,1.5,-.7,2.2c-.3,.4,-.7,.8,-1.1,1.3c-.5,.5,-1.1,1.1,-1.9,1.8v.3h4.6l.3,-2.1h-.3c0,.2,-.1,.4,-.2,.6c-.2,.3,-.5,.5,-1,.5h-2.1c.5,-.4,.9,-.7,1.4,-1.1c.7,-.6,1.5,-1.4,1.9,-2.2c.2,-.4,.3,-.8,.3,-1.2c0,-.4,-.1,-.6,-.2,-.9c-.3,-.7,-1.1,-1.3,-2.2,-1.3c-.7,0,-1.3,.3,-1.7,.6c-.4,.3,-.7,.8,-.7,1.5c0,.4,.1,.8,.4,1c.2,.3,.5,.4,.9,.4c.4,0,.7,-.2,.7,-.5Z" class="g0_328"/>
<path d="M511.6,442.9l-.1,.2c1.4,1.1,1.8,2.4,1.8,4.8c0,2.4,-.4,3.7,-1.8,4.8l.1,.2c1.5,-.9,2.6,-3,2.6,-5c0,-2.2,-1.1,-4,-2.6,-5Z" class="g0_328"/>
<path d="M518.3,446c-.7,0,-1.1,-.5,-1.1,-1.1c0,-.8,.4,-1.7,1.3,-1.7c1.2,0,1.3,1,1.3,1.9c0,1,-.2,1.5,-.7,2.2c-.2,.4,-.6,.8,-1.1,1.3c-.5,.5,-1.1,1.1,-1.8,1.8v.3h4.5l.4,-2.1h-.3c-.1,.2,-.2,.4,-.2,.6c-.2,.3,-.5,.5,-1.1,.5h-2.1c.5,-.4,1,-.7,1.4,-1.1c.8,-.6,1.5,-1.4,2,-2.2c.1,-.4,.2,-.8,.2,-1.2c0,-.4,0,-.6,-.1,-.9c-.4,-.7,-1.1,-1.3,-2.2,-1.3c-.7,0,-1.4,.3,-1.8,.6c-.3,.3,-.7,.8,-.7,1.5c0,.4,.2,.8,.4,1c.2,.3,.5,.4,.9,.4c.4,0,.7,-.2,.8,-.5Z" class="g0_328"/>
<path d="M539.7,448.4c.5,0,.9,-.4,.9,-.9c0,-.5,-.4,-.9,-.9,-.9c-.5,0,-.9,.4,-.9,.9c0,.5,.4,.9,.9,.9Z" class="g0_328"/>
<path d="M546.9,448.4c.5,0,.8,-.4,.8,-.9c0,-.5,-.3,-.9,-.8,-.9c-.5,0,-.9,.4,-.9,.9c0,.5,.4,.9,.9,.9Z" class="g0_328"/>
<path d="M554,448.4c.5,0,.9,-.4,.9,-.9c0,-.5,-.4,-.9,-.9,-.9c-.5,0,-.9,.4,-.9,.9c0,.5,.4,.9,.9,.9Z" class="g0_328"/>
<path d="M578.3,441.8c-.5,0,-.9,.1,-1.4,.4c-.4,.3,-.8,.7,-1.2,1.2c-.6,.7,-1.2,1.9,-1.2,3.2c0,1,.3,1.8,1.3,1.8c1.3,0,1.8,-.9,2.1,-1.6h.1c-.2,.9,-.1,1.6,.5,1.6c.4,0,.7,-.2,1.1,-.5c.4,-.3,.8,-.8,1.1,-1.4l-.1,-.1c-.3,.4,-1,1.3,-1.4,1.3c-.2,0,-.3,-.3,-.3,-.5c0,-.9,.6,-2.5,1,-3.5l.7,-1.8h-1l-.3,.7c-.2,-.5,-.5,-.8,-1,-.8Zm.1,.2c.7,0,.5,1.4,.4,1.9c0,.3,-.2,.7,-.3,1c-.3,1.2,-1.4,3.1,-2.2,3.1c-.6,0,-.8,-.9,-.8,-1.4c0,-.5,0,-.9,.2,-1.4c.4,-1,1.4,-3.2,2.7,-3.2Z" class="g0_328"/>
<path d="M585.3,442.9c-1.6,1,-2.7,2.8,-2.7,5c0,2,1.1,4.1,2.6,5l.2,-.2c-1.5,-1.1,-1.9,-2.4,-1.9,-4.8c0,-2.4,.5,-3.7,1.9,-4.8l-.1,-.2Z" class="g0_328"/>
<path d="M592,450.7h.2l1.6,-6c.1,-.2,.1,-.3,.2,-.5c.1,-.2,.4,-.7,.6,-.8c.1,-.1,.4,-.1,.5,-.1v-.2h-2.2l-.1,.2c.3,0,.5,.1,.6,.3c.2,.1,.2,.5,.2,.8c0,.1,0,.2,0,.4l-1.1,4v.1L590,443.1h-2l-.1,.2c.5,0,.6,0,.8,.2c.2,.2,.4,.7,.4,1c0,.1,0,.2,-.1,.3l-1.1,4.4c-.1,.4,-.4,.7,-.6,1c-.3,.2,-.7,.3,-1,.3v.2h2.8v-.2c-.3,0,-.6,0,-.7,-.2c-.2,-.2,-.3,-.5,-.3,-.8c0,-.1,0,-.2,0,-.4l1.1,-4.3l.1,-.2l2.7,6.1Z" class="g0_328"/>
<path d="M596.8,448.2h5.6v-.6h-5.6Z" class="g0_328"/>
<path d="M604.9,443.6v.2c.4,0,.9,0,1,.1c.3,.2,.3,.3,.3,.7v4.8c0,.2,0,.4,0,.5c-.1,.5,-.7,.6,-1.2,.6v.2h3.4v-.2c-.3,0,-.9,0,-1,-.2c-.2,-.2,-.2,-.6,-.2,-1V443c-.6,.3,-1.5,.6,-2.3,.6Z" class="g0_328"/>
<path d="M610.6,442.9l-.1,.2c1.4,1.1,1.8,2.4,1.8,4.8c0,2.4,-.4,3.7,-1.8,4.8l.1,.2c1.5,-.9,2.7,-3,2.7,-5c0,-2.2,-1.2,-4,-2.7,-5Z" class="g0_328"/>
<path d="M620.4,450.7h.3l1.5,-6c.1,-.2,.1,-.3,.2,-.5c.1,-.2,.4,-.7,.6,-.8c.1,-.1,.4,-.1,.5,-.1l.1,-.2h-2.3v.2c.2,0,.4,.1,.5,.3c.2,.1,.2,.5,.2,.8c0,.1,0,.2,0,.4l-1.1,4v.1l-2.5,-5.8h-2v.2c.4,0,.5,0,.7,.2c.2,.2,.4,.7,.4,1c0,.1,0,.2,-.1,.3l-1.1,4.4c-.1,.4,-.4,.7,-.6,1c-.3,.2,-.7,.3,-1,.3v.2h2.8v-.2c-.3,0,-.6,0,-.7,-.2c-.2,-.2,-.3,-.5,-.3,-.8c0,-.1,0,-.2,0,-.4l1.2,-4.3v-.2l2.7,6.1Z" class="g0_328"/>
<path d="M629,391.3v-9.2h-3.6v.7h1.7c.4,0,.7,.3,.7,.6v7.9H629Z" class="g0_328"/>
<path d="M627.8,400.1H629v-9.6h-1.2Z" class="g0_328"/>
<path d="M627.8,409H629v-9.6h-1.2Z" class="g0_328"/>
<path d="M627.8,418H629v-9.6h-1.2Z" class="g0_328"/>
<path d="M627.8,426.9H629v-9.6h-1.2Z" class="g0_328"/>
<path d="M627.8,435.9H629v-9.6h-1.2Z" class="g0_328"/>
<path d="M627.8,444.8H629v-9.6h-1.2Z" class="g0_328"/>
<path d="M629,453.6v-9.2h-1.2v7.8c0,.4,-.3,.7,-.7,.7h-1.7v.7H629Z" class="g0_328"/>
<path d="M632.1,383c0,.1,0,.2,.1,.4c3.2,5.4,4,19.1,4,20.3v.7h1.4v-.7c0,-1.6,-.6,-15.4,-5.3,-20.7q-.1,-.1,-.1,-.1c-.1,0,-.1,.1,-.1,.1Z" class="g0_328"/>
<path d="M636.2,413.7h1.4v-9.6h-1.4Z" class="g0_328"/>
<path d="M636.2,422.6h1.4V413h-1.4Z" class="g0_328"/>
<path d="M636.2,431.6h1.4V422h-1.4Z" class="g0_328"/>
<path d="M632.1,452.7c0,0,0,.1,.1,.1l.1,-.1c4.7,-5.3,5.3,-19.1,5.3,-20.7v-.7h-1.4v.7c0,1.2,-.8,14.9,-4,20.3c-.1,.2,-.1,.3,-.1,.4Z" class="g0_328"/>
<path d="M348.2,540.4c0,-.4,.1,-.9,.2,-1.4c.3,-1,1.1,-2.9,2.2,-2.9c.4,0,.4,.2,.4,.3c0,.2,-.1,.2,-.1,.4c0,.4,.2,.6,.5,.6c.4,0,.7,-.2,.7,-.6c0,-.7,-.7,-1,-1.3,-1c-1.5,0,-2.6,1.5,-3.2,2.5c-.3,.6,-.5,1.3,-.5,2.1v.1c0,1.1,.6,1.9,1.7,1.9c1.3,0,2.1,-1,2.6,-2.1l-.3,-.1c-.4,1,-1.2,1.9,-2,1.9c-.6,0,-.9,-1,-.9,-1.7Z" class="g0_328"/>
<path d="M358.8,536.4c0,-.2,-.1,-.3,-.3,-.5c-.1,-.2,-.3,-.2,-.5,-.2c-.5,0,-1,.3,-1.3,.6c-.3,.3,-.7,.7,-.9,1.2h-.1c.1,-.2,.1,-.3,.1,-.4c0,-.1,0,-.3,0,-.4c0,-.5,-.1,-.9,-.5,-.9c-1.1,0,-2,1.1,-2.2,1.8l.2,.1c.2,-.4,.9,-1.4,1.4,-1.4c.1,0,.1,.5,.1,.7c0,.1,0,.2,0,.3c-.3,.9,-.4,1.6,-.8,2.5l-.8,2.5h1.1l.5,-1.7c.2,-.5,.4,-1.2,.6,-1.7c.2,-.4,.5,-.9,.7,-1.2c.2,-.4,.6,-1.2,1.1,-1.2c.2,0,.2,.3,.3,.3l.1,.1c.1,.2,.2,.3,.5,.3c.4,0,.7,-.4,.7,-.8Z" class="g0_328"/>
<path d="M360.9,540.6c0,-2.5,1,-4.5,2.4,-4.5c.5,0,.9,.4,.9,1.1c0,.5,0,1,-.2,1.7c-.2,1,-1,3.2,-2.1,3.2c-.6,0,-1,-.8,-1,-1.5Zm.9,1.8c1,0,1.9,-.8,2.4,-1.4c.5,-.7,1.1,-1.7,1.1,-2.9c0,-.7,-.3,-1.3,-.6,-1.7c-.3,-.3,-.8,-.6,-1.4,-.6c-.5,0,-.9,.1,-1.3,.4c-.8,.4,-1.5,1.3,-1.9,2.2c-.2,.5,-.3,1.1,-.3,1.6c0,.7,.2,1.4,.6,1.8c.4,.3,.8,.6,1.4,.6Z" class="g0_328"/>
<path d="M368,542.1c-.5,0,-.6,-.4,-.5,-.9c.1,-.4,-.3,-.7,-.6,-.7c-.4,0,-.6,.4,-.6,.8c0,.7,.8,1.1,1.6,1.1c.5,0,1.1,-.3,1.4,-.6c.4,-.3,.6,-.7,.6,-1.4c0,-.4,-.1,-.7,-.2,-1c-.3,-.6,-.8,-1.1,-1.1,-1.6c-.1,-.2,-.2,-.4,-.1,-.7c0,-.3,.1,-1,.7,-1c.6,0,.5,.4,.5,.7c-.1,.2,.1,.6,.5,.6c.3,0,.5,-.2,.5,-.6c0,-.6,-.6,-1,-1.3,-1c-.7,0,-1.1,.2,-1.5,.5c-.3,.3,-.5,.7,-.5,1.3c0,.4,.1,.7,.3,1c.3,.5,.7,.9,1,1.4c.2,.3,.3,.6,.3,.9c0,.5,-.2,1.2,-1,1.2Z" class="g0_328"/>
<path d="M373.3,542.1c-.5,0,-.6,-.4,-.5,-.9c.1,-.4,-.3,-.7,-.6,-.7c-.4,0,-.6,.4,-.6,.8c0,.7,.8,1.1,1.6,1.1c.6,0,1.1,-.3,1.4,-.6c.4,-.3,.6,-.7,.6,-1.4c0,-.4,0,-.7,-.2,-1c-.3,-.6,-.8,-1.1,-1,-1.6c-.2,-.2,-.2,-.4,-.2,-.7c0,-.3,.1,-1,.7,-1c.6,0,.6,.4,.5,.7c-.1,.2,.1,.6,.5,.6c.3,0,.5,-.2,.5,-.6c0,-.6,-.6,-1,-1.3,-1c-.7,0,-1.1,.2,-1.5,.5c-.3,.3,-.5,.7,-.5,1.3c0,.4,.1,.7,.3,1c.3,.5,.7,.9,1,1.4c.2,.3,.3,.6,.3,.9c0,.5,-.2,1.2,-1,1.2Z" class="g0_328"/>
<path d="M381.9,531.6c-2.2,1.4,-3.7,3.8,-3.7,6.9c0,2.7,1.6,5.5,3.7,6.8l.1,-.3c-1.9,-1.5,-2.5,-3.3,-2.5,-6.6c0,-3.3,.6,-5,2.5,-6.5l-.1,-.3Z" class="g0_328"/>
<path d="M388.1,535.8c-.5,0,-1,.1,-1.5,.4c-.5,.3,-1,.7,-1.4,1.2c-.7,.8,-1.4,2,-1.4,3.3c0,1,.4,1.7,1.5,1.7c1.5,0,2.1,-.9,2.5,-1.6c-.2,.8,-.1,1.6,.7,1.6c1.2,0,2.1,-1,2.6,-1.9l-.2,-.2c-.3,.4,-1,1.4,-1.4,1.4c-.2,0,-.3,-.4,-.3,-.6c0,-.7,.6,-2.3,.9,-3.3l.7,-1.9h-1.3l-.2,.7c-.2,-.4,-.5,-.8,-1.2,-.8Zm.1,.4c.9,0,.6,1.3,.4,1.8c-.1,.3,-.2,.6,-.3,1c-.5,1.1,-1.5,2.9,-2.4,2.9c-.6,0,-.7,-.9,-.7,-1.4c0,-.4,.2,-.8,.4,-1.3c.4,-.9,1.3,-3,2.6,-3Z" class="g0_328"/>
<path d="M392.6,531.6l-.1,.3c1.9,1.5,2.5,3.2,2.5,6.5c0,3.3,-.5,5.1,-2.5,6.6l.2,.3c2,-1.3,3.6,-4.1,3.6,-6.8c0,-3.1,-1.5,-5.5,-3.7,-6.9Z" class="g0_328"/>
<path d="M402.5,540.4h7.6v-.8h-7.6Zm0,-3h7.6v-.9h-7.6Z" class="g0_328"/>
<path d="M419.6,536.9c0,.7,-.2,1.6,-.4,2.1c-.2,.6,-.7,1.8,-1.1,2.3c-.2,.3,-.7,.8,-1.2,.8c-.5,0,-.8,-.5,-.8,-1c0,-.6,.2,-1.8,.4,-2.3c.3,-.9,1.2,-2.7,2.4,-2.7c.4,0,.7,.4,.7,.8Zm.1,5.5c.5,0,.8,-.2,1.1,-.6c.4,-.3,.7,-.9,.9,-1.7l-.3,-.1c-.2,.5,-.7,1.9,-1.2,1.9c-.3,0,-.4,-.5,-.4,-.8c0,-.1,0,-.3,0,-.5c.1,-.6,.3,-1.1,.4,-1.8c.1,-.5,.3,-1,.5,-1.6l1.5,-5.8H420l-.1,.2c.4,0,.6,0,.7,.1c.2,.1,.3,.3,.3,.4c0,.3,-.1,.6,-.2,.9l-.9,3.4c-.2,-.4,-.4,-.6,-1,-.6c-1,0,-2,.9,-2.5,1.6c-.3,.3,-.5,.6,-.7,1c-.3,.6,-.6,1.3,-.6,2.1c0,.6,.2,1,.5,1.4c.2,.3,.5,.5,1,.5c1.4,0,1.9,-.9,2.4,-1.7v.1c0,.1,0,.2,0,.3c0,0,-.1,.2,-.1,.2c0,.7,.3,1.1,.9,1.1Z" class="g0_328"/>
<path d="M426.8,536.1c.3,0,.6,.3,.6,.6c0,1.3,-1.7,2.3,-3,2.7c.3,-1,1.2,-3.3,2.4,-3.3Zm.2,-.3c-1.2,0,-2,.8,-2.6,1.5c-.6,.7,-1.1,1.9,-1.1,3.1c0,1.2,.4,2,1.6,2c1,0,1.9,-.7,2.5,-1.7l-.2,-.2c-.4,.6,-1.2,1.6,-2,1.6c-.7,0,-.9,-.5,-.9,-1.4c0,-.3,0,-.7,.1,-.9c1.4,-.3,3.9,-1.3,3.9,-3c0,-.6,-.6,-1,-1.3,-1Z" class="g0_328"/>
<path d="M430.1,542.4c1.3,0,2.1,-1.3,2.6,-2.1l-.3,-.1c-.3,.4,-.9,1.6,-1.7,1.6c-.2,0,-.3,-.5,-.3,-.6c0,-.2,.1,-.6,.2,-1l1.1,-3.9H433l.1,-.4h-1.3l.4,-1.6h-1l-.4,1.6h-1.1l-.1,.4h1.1l-1,3.6c-.1,.4,-.2,.8,-.3,1.1c0,.3,-.1,.4,-.1,.6c0,.6,.3,.8,.8,.8Z" class="g0_328"/>
<path d="M442.6,556.1c-2.2,-3.4,-2.8,-12.4,-2.8,-17.9c0,-5.5,.6,-13.8,2.8,-17.2l-.1,-.6h-.1c-2.1,3.3,-4.1,8,-4.1,17.8c0,9.9,2.1,15.8,4.1,18.5l.2,-.6Z" class="g0_328"/>
<path d="M449.5,556.1v-.4h-1.6c-.4,0,-.7,-.3,-.7,-.6V521.4c0,-.4,.3,-.7,.7,-.7h1.6v-.3h-3.4v35.7h3.4Z" class="g0_328"/>
<path d="M459,523.9c0,-.4,-.4,-.8,-.8,-.8c-.4,0,-.7,.4,-.7,.8c0,.4,.3,.7,.7,.7c.4,0,.8,-.3,.8,-.7Zm-2.8,9.3c1.3,0,2,-1.2,2.4,-2l-.3,-.1c-.2,.3,-.8,1.4,-1.4,1.4c-.1,0,-.3,-.2,-.3,-.3c0,-.3,.2,-.9,.3,-1.1l1,-2.8c.1,-.5,.2,-.7,.2,-.9c0,-.4,-.1,-.8,-.5,-.8c-1,0,-2.1,1.1,-2.4,1.8l.3,.2c.2,-.3,.7,-1.1,1.1,-1.1c.2,0,.3,.1,.3,.3c0,.2,-.1,.7,-.2,.9l-1,2.8c-.2,.4,-.2,.7,-.2,.9c0,.5,.2,.8,.7,.8Z" class="g0_328"/>
<path d="M483,535.3c0,.5,.6,.9,1.2,.9c.7,0,1.2,-.5,1.6,-.9c.4,-.5,.8,-1.1,1,-1.8l1,-3.6c.1,-.6,.3,-1.2,.4,-1.6c.1,-.4,.1,-.8,.1,-1c0,-.4,-.1,-.7,-.5,-.7c-.9,0,-2,1.1,-2.3,1.8l.2,.2c.3,-.3,.7,-1.1,1.2,-1.1c.2,0,.3,.2,.3,.4c0,.4,-.1,.7,-.3,1.2l-1.4,5.3c-.1,.5,-.4,1.4,-.9,1.4c-.1,0,-.2,-.1,-.3,-.2c-.2,-.3,0,-1,-.7,-1c-.4,0,-.6,.3,-.6,.7Zm5.9,-11.4c0,-.4,-.3,-.8,-.7,-.8c-.4,0,-.8,.4,-.8,.8c0,.4,.4,.7,.8,.7c.3,0,.7,-.3,.7,-.7Z" class="g0_328"/>
<path d="M454.8,544.5c-.4,0,-.8,.1,-1.3,.5c-.4,.3,-.9,.6,-1.2,1.1c-.7,.8,-1.3,2,-1.3,3.3c0,.9,.4,1.7,1.3,1.7c1.3,0,1.8,-.9,2.2,-1.6c-.2,1,-.1,1.6,.6,1.6c.3,0,.7,-.2,1.1,-.5c.4,-.3,.8,-.8,1.1,-1.4l-.2,-.1c-.3,.4,-.9,1.4,-1.3,1.4c-.2,0,-.3,-.4,-.3,-.6c0,-.9,.6,-2.4,.9,-3.4l.7,-1.9h-1l-.2,.7c-.2,-.5,-.5,-.8,-1.1,-.8Zm.1,.3c.7,0,.6,1.3,.5,1.8c-.1,.4,-.2,.7,-.3,1c-.4,1.2,-1.5,3.2,-2.3,3.2c-.6,0,-.7,-1,-.7,-1.5c0,-.4,0,-.9,.2,-1.3c.3,-1.1,1.4,-3.2,2.6,-3.2Z" class="g0_328"/>
<path d="M459.2,546.2v.2c.3,0,.8,.1,1,.1c.3,.2,.3,.3,.3,.8V552c0,.3,0,.5,-.1,.6c0,.5,-.6,.5,-1.1,.6v.1h3.4v-.1c-.4,0,-.9,-.1,-1.1,-.3c-.1,-.2,-.2,-.5,-.2,-.9v-6.3c-.5,.3,-1.5,.5,-2.2,.5Z" class="g0_328"/>
<path d="M484,544.5c-.4,0,-.8,.1,-1.3,.5c-.4,.3,-.8,.6,-1.2,1.1c-.6,.8,-1.3,2,-1.3,3.3c0,.9,.4,1.7,1.3,1.7c1.3,0,1.8,-.9,2.2,-1.6c-.2,1,0,1.6,.6,1.6c.4,0,.7,-.2,1.1,-.5c.4,-.3,.8,-.8,1.1,-1.4l-.2,-.1c-.2,.4,-.9,1.4,-1.3,1.4c-.2,0,-.3,-.4,-.3,-.6c0,-.9,.6,-2.4,1,-3.4l.6,-1.9h-.9l-.3,.7c-.2,-.5,-.5,-.8,-1.1,-.8Zm.2,.3c.7,0,.5,1.3,.4,1.8c0,.4,-.2,.7,-.3,1c-.4,1.2,-1.4,3.2,-2.2,3.2c-.7,0,-.8,-1,-.8,-1.5c0,-.4,0,-.9,.2,-1.3c.3,-1.1,1.4,-3.2,2.7,-3.2Z" class="g0_328"/>
<path d="M489.6,548.7c-.7,0,-1.1,-.5,-1.1,-1.2c0,-.8,.5,-1.6,1.4,-1.6c1.2,0,1.3,1,1.3,1.9c0,.9,-.3,1.5,-.7,2.1c-.3,.4,-.7,.9,-1.2,1.4c-.4,.5,-1.1,1,-1.8,1.7v.3h4.6l.3,-2h-.3c0,.2,-.1,.4,-.2,.5c-.2,.4,-.5,.6,-1,.6h-2.1v-.1c.4,-.3,.9,-.7,1.3,-1c.8,-.7,1.6,-1.4,2,-2.3c.2,-.4,.3,-.8,.3,-1.2c0,-.3,-.1,-.6,-.2,-.8c-.4,-.8,-1.1,-1.3,-2.2,-1.3c-.7,0,-1.3,.2,-1.7,.6c-.4,.3,-.7,.8,-.7,1.4c0,.5,.1,.8,.4,1.1c.1,.2,.4,.4,.9,.4c.4,0,.6,-.2,.7,-.5Z" class="g0_328"/>
<path d="M498.1,556.1V520.4h-3.5v.3h1.6c.4,0,.7,.3,.7,.7v33.7c0,.3,-.3,.6,-.7,.6h-1.6v.4h3.5Z" class="g0_328"/>
<path d="M501.5,556.1l.2,.6c2.1,-2.7,4.1,-8.6,4.1,-18.5c0,-9.8,-1.9,-14.5,-4.1,-17.8l-.2,.6c2.2,3.4,2.8,11.7,2.8,17.2c0,5.5,-.6,14.5,-2.8,17.9Z" class="g0_328"/>
</svg>