<?xml version="1.0" encoding="UTF-8" standalone="no"?>
<!DOCTYPE svg PUBLIC "-//W3C//DTD SVG 1.1//EN"
"http://www.w3.org/Graphics/SVG/1.1/DTD/svg11.dtd">
<svg viewBox="0 0 811 1017" version="1.1" xmlns="http://www.w3.org/2000/svg" xmlns:xlink="http://www.w3.org/1999/xlink">
<defs>
<clipPath id="c0_134"><path d="M142.4,879.3v-220h220v220Z"/></clipPath>
<style type="text/css"><![CDATA[
.g0_134{
fill: #0E0E0E;
}
]]></style>
</defs>
<path d="M321.4,86.1c0,0,0,-.1,0,-.1q-.1,0,-.1,.1c-4.8,5.3,-5.4,19.1,-5.4,20.7v.7h1.4v-.7c0,-1.2,.8,-14.9,4,-20.3c.1,-.2,.1,-.3,.1,-.4Z" class="g0_134"/>
<path d="M316,116.7h1.3v-9.6H316Z" class="g0_134"/>
<path d="M321.4,137.9c0,-.1,0,-.2,-.1,-.4c-3.2,-5.4,-4,-19.1,-4,-20.3v-.7h-1.4v.7c0,1.6,.6,15.4,5.4,20.7q0,.1,.1,.1c0,0,0,-.1,0,-.1Z" class="g0_134"/>
<path d="M323.9,87.9v.2c.4,0,1.1,.1,1.3,.2c.4,.3,.4,.4,.4,1v6.6c0,.3,0,.5,0,.7c-.1,.7,-.9,.8,-1.6,.8v.2h4.7v-.2c-.6,0,-1.3,0,-1.5,-.3c-.2,-.3,-.2,-.8,-.2,-1.3V87.2c-.8,.4,-2.2,.7,-3.1,.7Z" class="g0_134"/>
<path d="M349.4,97.5c-2,0,-2,-2.7,-2,-4.9c0,-2.2,0,-5.2,2,-5.2c1.9,0,1.9,3,1.9,5.2c0,2.2,0,4.9,-1.9,4.9Zm0,-10.3c-2.7,0,-3.4,2.7,-3.4,5.4c0,2.6,.8,5.2,3.4,5.2c2.5,0,3.3,-2.6,3.3,-5.2c0,-2.7,-.7,-5.4,-3.3,-5.4Z" class="g0_134"/>
<path d="M373.1,92.3c0,.6,-.2,1.6,-.3,2.1c-.2,.6,-.7,1.8,-1.1,2.2c-.3,.4,-.8,.8,-1.2,.8c-.5,0,-.8,-.4,-.8,-.9c0,-.7,.1,-1.8,.3,-2.3c.4,-.9,1.3,-2.7,2.4,-2.7c.5,0,.7,.3,.7,.8Zm.2,5.5c.4,0,.8,-.2,1.1,-.6c.3,-.4,.6,-.9,.9,-1.7l-.3,-.1c-.2,.5,-.7,1.9,-1.3,1.9c-.3,0,-.4,-.5,-.4,-.8c0,-.2,0,-.3,.1,-.5c.1,-.6,.2,-1.2,.4,-1.9c.1,-.4,.2,-.9,.4,-1.6l1.6,-5.8h-2.3v.2c.4,0,.5,.1,.7,.2c.1,.1,.3,.3,.3,.4c0,.3,-.1,.6,-.2,.9l-.9,3.4c-.3,-.4,-.5,-.6,-1.1,-.6c-1,0,-1.9,.9,-2.4,1.6c-.3,.3,-.5,.6,-.7,.9c-.3,.6,-.6,1.4,-.6,2.2c0,.6,.2,1,.4,1.3c.2,.3,.6,.6,1,.6c1.4,-.1,2,-.9,2.4,-1.7h.1c-.1,.1,-.1,.2,-.1,.3c0,.1,0,.2,0,.3c0,.6,.3,1.1,.9,1.1Z" class="g0_134"/>
<path d="M380.8,95.8c0,-.3,-.4,-.7,-.8,-.7c-.2,0,-.4,.1,-.7,.3c-.2,.2,-.4,.4,-.6,.6c0,-.4,-.3,-.9,-.8,-.9c-.8,0,-1.5,.9,-1.7,1.5l.1,.1c.3,-.4,.8,-1.3,1.5,-1.3c.2,0,.2,.4,.2,.7c0,.3,0,.5,-.1,.9l-.3,.8c-.1,.5,-.3,1,-.5,1.3c-.1,.2,-.3,.5,-.6,.5c-.3,0,-.5,0,-.4,-.3c0,-.3,0,-.6,-.3,-.6c-.3,0,-.5,.3,-.5,.6c0,.4,.4,.7,.8,.7c.7,0,1.3,-.6,1.5,-1.1h.1c0,.6,.3,1.1,.9,1.1c.9,0,1.5,-.9,1.8,-1.4l-.1,-.1c-.4,.5,-.9,1.2,-1.4,1.2c-.4,0,-.5,-.4,-.5,-.9c0,-.2,0,-.6,.1,-1l.1,-.5c.1,-.4,.3,-.9,.5,-1.2c.1,-.2,.4,-.7,.7,-.7c.3,0,.3,.3,.2,.5c0,.3,.1,.4,.4,.4c.3,0,.4,-.2,.4,-.5Z" class="g0_134"/>
<path d="M326.1,115.4c-1.9,0,-2,-2.7,-2,-4.9c0,-2.2,0,-5.2,2,-5.2c1.9,0,1.9,3,1.9,5.2c0,2.2,0,4.9,-1.9,4.9Zm0,-10.3c-2.6,0,-3.4,2.7,-3.4,5.4c0,2.6,.8,5.2,3.4,5.2c2.6,0,3.4,-2.6,3.4,-5.2c0,-2.7,-.8,-5.4,-3.4,-5.4Z" class="g0_134"/>
<path d="M347.2,105.8v.2c.4,0,1.1,.1,1.3,.2c.4,.3,.4,.4,.4,1v6.6c0,.3,0,.5,0,.7c-.1,.7,-.9,.8,-1.7,.8v.2h4.7v-.2c-.5,0,-1.2,0,-1.4,-.3c-.3,-.3,-.3,-.8,-.3,-1.3v-8.6c-.8,.4,-2.1,.7,-3,.7Z" class="g0_134"/>
<path d="M373.4,110.2c0,.6,-.2,1.6,-.3,2.1c-.2,.6,-.7,1.8,-1.1,2.2c-.3,.4,-.8,.8,-1.2,.8c-.5,0,-.8,-.4,-.8,-.9c0,-.7,.1,-1.8,.3,-2.3c.4,-.9,1.3,-2.7,2.4,-2.7c.5,0,.7,.3,.7,.8Zm.2,5.5c.4,0,.8,-.2,1.1,-.6c.3,-.4,.6,-.9,.9,-1.7l-.3,-.1c-.2,.5,-.7,1.9,-1.3,1.9c-.3,0,-.3,-.5,-.3,-.8c0,-.2,0,-.3,0,-.5c.1,-.6,.2,-1.2,.4,-1.9c.1,-.4,.2,-.9,.4,-1.6l1.6,-5.8h-2.3v.2c.4,0,.5,.1,.7,.2c.1,.1,.3,.3,.3,.4c0,.3,-.1,.6,-.2,.9l-.9,3.4c-.3,-.4,-.4,-.6,-1.1,-.6c-1,0,-1.9,.9,-2.4,1.6c-.3,.3,-.5,.6,-.7,.9c-.3,.6,-.6,1.4,-.6,2.2c0,.6,.2,1,.4,1.3c.3,.3,.6,.6,1.1,.6c1.3,-.1,1.9,-.9,2.3,-1.7h.1c-.1,.1,-.1,.2,-.1,.3c0,.1,0,.2,0,.3c0,.6,.3,1.1,.9,1.1Z" class="g0_134"/>
<path d="M375,119.4c0,.4,.4,.7,.9,.7c.3,0,.5,-.2,.9,-.5c.6,-.5,1.5,-1.6,2,-2.5c.3,-.4,.6,-.9,.8,-1.3c.3,-.5,.8,-1.5,.8,-2.1c0,-.2,0,-.3,-.1,-.5c-.1,-.1,-.2,-.2,-.3,-.2c-.1,0,-.2,.1,-.4,.2c-.1,.1,-.1,.2,-.1,.5c0,.3,.2,.6,.2,.9c0,.5,-.2,.9,-.4,1.2c-.2,.4,-.3,.6,-.6,1l-.3,-1.4c0,-.4,-.2,-1.2,-.3,-1.5c-.1,-.5,-.2,-.9,-.9,-.9c-.9,0,-1,1.3,-1.2,1.9l.2,.1c.1,-.4,.4,-1.7,.8,-1.7c.2,0,.3,.7,.4,.9c0,.2,.1,.5,.2,1l.4,2.6c-.3,.6,-.9,1.2,-1.3,1.6c-.2,.1,-.4,.1,-.5,.1c-.1,0,-.2,0,-.2,-.1c-.1,-.2,-.1,-.5,-.5,-.5c-.3,0,-.5,.2,-.5,.5Z" class="g0_134"/>
<path d="M326.1,133.3c-1.9,0,-2,-2.7,-2,-4.9c0,-2.2,0,-5.2,2,-5.2c1.9,0,1.9,3,1.9,5.2c0,2.2,0,4.9,-1.9,4.9Zm0,-10.3c-2.6,0,-3.4,2.7,-3.4,5.4c0,2.6,.8,5.2,3.4,5.2c2.6,0,3.4,-2.6,3.4,-5.2c0,-2.7,-.8,-5.4,-3.4,-5.4Z" class="g0_134"/>
<path d="M349.4,133.3c-2,0,-2,-2.7,-2,-4.9c0,-2.2,0,-5.2,2,-5.2c1.9,0,1.9,3,1.9,5.2c0,2.2,0,4.9,-1.9,4.9Zm0,-10.3c-2.7,0,-3.4,2.7,-3.4,5.4c0,2.6,.8,5.2,3.4,5.2c2.5,0,3.3,-2.6,3.3,-5.2c0,-2.7,-.7,-5.4,-3.3,-5.4Z" class="g0_134"/>
<path d="M373,123.7v.2c.5,0,1.1,.1,1.3,.2c.5,.3,.5,.4,.5,1v6.6c0,.3,0,.5,-.1,.7c-.1,.7,-.9,.8,-1.6,.8v.2h4.7v-.2c-.5,0,-1.2,0,-1.5,-.3c-.2,-.3,-.2,-.8,-.2,-1.3V123c-.8,.4,-2.1,.7,-3.1,.7Z" class="g0_134"/>
<path d="M382.5,86.1c0,.1,0,.2,.1,.4c3.2,5.4,4,19.1,4,20.3v.7H388v-.7c0,-1.6,-.6,-15.4,-5.3,-20.7q-.1,-.1,-.1,-.1c-.1,0,-.1,.1,-.1,.1Z" class="g0_134"/>
<path d="M386.6,116.7H388v-9.6h-1.4Z" class="g0_134"/>
<path d="M382.5,137.9c0,0,0,.1,.1,.1l.1,-.1c4.7,-5.3,5.3,-19.1,5.3,-20.7v-.7h-1.4v.7c0,1.2,-.8,14.9,-4,20.3c-.1,.2,-.1,.3,-.1,.4Z" class="g0_134"/>
<path d="M399.3,115.9c1,0,1.7,-.4,2.2,-.9c.5,-.6,.9,-1.4,.9,-2.4c0,-1,-.4,-1.8,-.9,-2.3c-.5,-.6,-1.3,-1,-2.2,-1c-.9,0,-1.5,.4,-1.9,1v-5.4l-2.3,.4v.3c.4,0,.8,.1,.9,.4c.1,.3,.2,.8,.2,1.6v8.2h.3l.7,-.9c.4,.5,.9,1,2.1,1Zm-1.9,-2.1v-1.9c0,-.6,0,-1.1,.2,-1.5c.4,-.5,.8,-.7,1.5,-.7c1.4,0,1.9,1.6,1.9,3c0,1.6,-.6,2.9,-1.9,2.9c-.2,0,-.5,-.1,-.8,-.2c-.6,-.3,-.9,-.7,-.9,-1.6Z" class="g0_134"/>
<path d="M408,111.2c0,0,0,.1,0,.2c-.1,.1,-.5,.1,-.7,.1H405c.2,-1.1,.7,-1.9,1.7,-1.9c1,0,1.3,.8,1.3,1.6Zm-.9,4.4c-1.5,0,-2.2,-1.6,-2.2,-3.1c0,-.2,.1,-.6,.1,-.7h3.9c.3,0,.4,0,.4,-.3c0,-1.5,-.9,-2.2,-2.4,-2.2c-.5,0,-1,.1,-1.4,.3c-1.1,.5,-1.9,1.5,-1.9,3.1c0,1.9,1.2,3.3,3.1,3.2c1.4,0,1.8,-.5,2.6,-1.2l-.2,-.2c-.5,.5,-1.2,1.1,-2,1.1Z" class="g0_134"/>
<path d="M413.7,115.6c-1.3,0,-1.9,-1.6,-1.9,-3.1c0,-1.4,.6,-2.9,1.8,-2.9c.8,0,.8,.5,1,.8c.2,.3,.4,.5,.7,.5c.4,0,.6,-.2,.6,-.5c0,-.4,-.3,-.7,-.6,-.8c-.4,-.2,-.9,-.3,-1.5,-.3c-1,0,-1.9,.4,-2.4,.9c-.6,.6,-.9,1.4,-.9,2.5c0,.4,0,.9,.2,1.3c.4,1.1,1.2,1.9,2.7,1.9c1.3,0,2,-.5,2.6,-1.1l-.2,-.2c-.5,.5,-1.2,1,-2.1,1Z" class="g0_134"/>
<path d="M420.2,109.6c1.3,0,2,1.6,2,3c0,1.7,-.8,3,-2,3c-1.6,0,-1.9,-1.5,-1.9,-3c0,-1.4,.6,-3,1.9,-3Zm0,-.3c-.4,0,-.8,.1,-1.3,.3c-1.1,.4,-2,1.4,-2,3c0,.5,.1,.9,.3,1.3c.5,1.1,1.2,2,3,2c1.1,0,1.9,-.4,2.4,-.9c.5,-.6,1,-1.4,1,-2.4c0,-.5,-.1,-.9,-.3,-1.3c-.5,-1.1,-1.5,-2,-3.1,-2Z" class="g0_134"/>
<path d="M434.7,112.5v1.7c0,.5,0,.9,-.2,1.1c-.2,.3,-.5,.3,-.9,.3v.2h3.2v-.2c-.2,0,-.4,0,-.5,0c-.5,-.2,-.5,-.8,-.5,-1.5V112c0,-.9,0,-1.5,-.4,-2c-.3,-.4,-1,-.7,-1.7,-.7c-1.1,0,-1.8,.6,-2.4,1.2c-.3,-.7,-1.1,-1.2,-2.1,-1.2c-1.1,0,-1.8,.6,-2.4,1.2h-.1l-.1,-1.2l-2,.5v.2c.2,0,.5,.1,.6,.1c.3,.3,.5,.5,.5,2.3v1.8c0,.3,0,.6,-.1,.7c0,.6,-.4,.7,-1,.7v.2h3.2v-.2c-.2,0,-.4,0,-.5,0c-.5,-.2,-.5,-.8,-.5,-1.5v-1.9c0,-.6,0,-1,.2,-1.3c.3,-.6,1.1,-1.2,1.8,-1.2c1.2,0,1.4,1.3,1.4,2.8v1.7c0,.3,0,.6,-.1,.7c0,.6,-.3,.7,-.9,.7v.2h3.2v-.2c-.3,0,-.5,0,-.6,0c-.5,-.2,-.5,-.8,-.5,-1.5v-1.9c0,-.6,0,-1,.2,-1.3c.4,-.6,1.1,-1.2,1.8,-1.2c1.3,0,1.4,1.4,1.4,2.8Z" class="g0_134"/>
<path d="M442.1,111.2c0,0,0,.1,0,.2c-.1,.1,-.4,.1,-.7,.1h-2.2c.2,-1.1,.6,-1.9,1.6,-1.9c1,0,1.3,.8,1.3,1.6Zm-.9,4.4c-1.5,0,-2.1,-1.6,-2.1,-3.1c0,-.2,0,-.6,0,-.7h4c.2,0,.3,0,.3,-.3c0,-1.5,-.8,-2.2,-2.4,-2.2c-.5,0,-.9,.1,-1.3,.3c-1.2,.5,-2,1.5,-2,3.1c0,1.9,1.2,3.3,3.1,3.2c1.4,0,1.8,-.5,2.6,-1.2l-.2,-.2c-.5,.5,-1.1,1.1,-2,1.1Z" class="g0_134"/>
<path d="M446.7,109.6c.8,0,1.2,.8,1.5,1.6h.2v-1.8h-.2l-.3,.3c-.2,-.1,-.4,-.2,-.6,-.3c-.2,-.1,-.5,-.1,-.7,-.1c-.6,0,-1,.2,-1.3,.5c-.3,.3,-.5,.8,-.5,1.4c0,.7,.5,1.1,.9,1.5c.6,.4,2.1,1,2.1,1.8c0,.6,-.3,1.1,-1,1.1c-.9,0,-1.5,-.7,-1.8,-1.9h-.2v2.1h.2l.2,-.4c.5,.3,1.1,.5,1.7,.5c.6,0,1.1,-.2,1.4,-.5c.4,-.3,.6,-.7,.6,-1.3c0,-1,-1.1,-1.6,-1.9,-2.1c-.5,-.4,-1.2,-.6,-1.2,-1.4c0,-.5,.3,-1,.9,-1Z" class="g0_134"/>
<path d="M462.1,86.1c0,0,-.1,-.1,-.1,-.1q-.1,0,-.1,.1c-4.8,5.3,-5.3,19.1,-5.3,20.7v.7H458v-.7c0,-1.2,.8,-14.9,3.9,-20.3c.1,-.2,.2,-.3,.2,-.4Z" class="g0_134"/>
<path d="M456.6,116.7H458v-9.6h-1.4Z" class="g0_134"/>
<path d="M462.1,137.9c0,-.1,-.1,-.2,-.2,-.4C458.8,132.1,458,118.4,458,117.2v-.7h-1.4v.7c0,1.6,.5,15.4,5.3,20.7q0,.1,.1,.1c0,0,.1,-.1,.1,-.1Z" class="g0_134"/>
<path d="M466.1,91.2c-.9,0,-1.4,-.6,-1.4,-1.5c0,-1.1,.5,-2.3,1.8,-2.3c1.6,0,1.8,1.4,1.8,2.6c0,1.3,-.4,2.1,-1,3c-.4,.5,-.9,1.1,-1.5,1.8c-.7,.7,-1.5,1.5,-2.6,2.4v.4h6.3l.5,-2.8h-.4c-.1,.3,-.3,.6,-.3,.7c-.3,.6,-.7,.8,-1.4,.8H465c.6,-.5,1.3,-1,1.9,-1.5c1,-.9,2.1,-1.9,2.6,-3.1c.3,-.5,.4,-1.1,.4,-1.6c0,-.5,-.1,-.8,-.2,-1.2c-.5,-1,-1.5,-1.7,-3,-1.7c-1,0,-1.8,.3,-2.4,.8c-.5,.4,-.9,1.1,-.9,2c0,.6,.1,1.1,.5,1.4c.2,.3,.6,.6,1.2,.6c.5,0,.9,-.3,1,-.8Z" class="g0_134"/>
<path d="M490,97.5c-1.9,0,-2,-2.7,-2,-4.9c0,-2.2,0,-5.2,2,-5.2c1.9,0,1.9,3,1.9,5.2c0,2.2,0,4.9,-1.9,4.9Zm0,-10.3c-2.6,0,-3.4,2.7,-3.4,5.4c0,2.6,.8,5.2,3.4,5.2c2.5,0,3.3,-2.6,3.3,-5.2c0,-2.7,-.7,-5.4,-3.3,-5.4Z" class="g0_134"/>
<path d="M512.7,91.2c-.9,0,-1.5,-.6,-1.5,-1.5c0,-1.1,.6,-2.3,1.8,-2.3c1.7,0,1.8,1.4,1.8,2.6c0,1.3,-.3,2.1,-.9,3c-.4,.5,-1,1.1,-1.6,1.8c-.7,.7,-1.5,1.5,-2.5,2.4v.4H516l.5,-2.8h-.4c-.1,.3,-.2,.6,-.3,.7c-.2,.6,-.7,.8,-1.4,.8h-2.9c.7,-.5,1.3,-1,1.9,-1.5c1,-.9,2.1,-1.9,2.7,-3.1c.2,-.5,.4,-1.1,.4,-1.6c0,-.5,-.1,-.8,-.3,-1.2c-.5,-1,-1.5,-1.7,-3,-1.7c-.9,0,-1.8,.3,-2.4,.8c-.5,.4,-.9,1.1,-.9,2c0,.6,.2,1.1,.5,1.4c.3,.3,.7,.6,1.2,.6c.6,0,1,-.3,1.1,-.8Z" class="g0_134"/>
<path d="M522.1,92.3c0,.6,-.2,1.6,-.4,2.1c-.2,.6,-.7,1.8,-1,2.2c-.3,.4,-.8,.8,-1.3,.8c-.5,0,-.8,-.4,-.8,-.9c0,-.7,.2,-1.8,.4,-2.3c.4,-.9,1.3,-2.7,2.4,-2.7c.4,0,.7,.3,.7,.8Zm.2,5.5c.4,0,.8,-.2,1.1,-.6c.3,-.4,.6,-.9,.9,-1.7l-.4,-.1c-.2,.5,-.7,1.9,-1.2,1.9c-.3,0,-.4,-.5,-.4,-.8c0,-.2,0,-.3,.1,-.5c0,-.6,.2,-1.2,.4,-1.9c.1,-.4,.2,-.9,.4,-1.6l1.5,-5.8h-2.2l-.1,.2c.5,0,.6,.1,.7,.2c.2,.1,.4,.3,.4,.4c0,.3,-.2,.6,-.2,.9l-.9,3.4c-.3,-.4,-.5,-.6,-1.1,-.6c-1,0,-1.9,.9,-2.5,1.6c-.2,.3,-.4,.6,-.6,.9c-.4,.6,-.6,1.4,-.6,2.2c0,.6,.1,1,.4,1.3c.2,.3,.6,.6,1,.6c1.4,-.1,1.9,-.9,2.4,-1.7c0,.1,0,.2,0,.3c0,.1,0,.2,0,.3c0,.6,.3,1.1,.9,1.1Z" class="g0_134"/>
<path d="M529.7,95.8c0,-.3,-.3,-.7,-.7,-.7c-.2,0,-.5,.1,-.7,.3c-.2,.2,-.5,.4,-.6,.6c0,-.4,-.3,-.9,-.8,-.9c-.8,0,-1.5,.9,-1.8,1.5l.2,.1c.2,-.4,.8,-1.3,1.4,-1.3c.2,0,.3,.4,.3,.7c0,.3,0,.5,-.1,.9l-.3,.8c-.1,.5,-.3,1,-.5,1.3c-.1,.2,-.3,.5,-.6,.5c-.3,0,-.5,0,-.5,-.3c.1,-.3,.1,-.6,-.2,-.6c-.4,0,-.5,.3,-.5,.6c0,.4,.3,.7,.8,.7c.7,0,1.2,-.6,1.5,-1.1c.1,.6,.4,1.1,1,1.1c.9,0,1.5,-.9,1.8,-1.4l-.1,-.1c-.4,.5,-.9,1.2,-1.5,1.2c-.3,0,-.4,-.4,-.4,-.9c0,-.2,0,-.6,.1,-1l.1,-.5c.1,-.4,.3,-.9,.5,-1.2c.1,-.2,.4,-.7,.7,-.7c.3,0,.2,.3,.2,.5c0,.3,.1,.4,.4,.4c.2,0,.3,-.2,.3,-.5Z" class="g0_134"/>
<path d="M466.7,115.4c-1.9,0,-1.9,-2.7,-1.9,-4.9c0,-2.2,0,-5.2,1.9,-5.2c1.9,0,1.9,3,1.9,5.2c0,2.2,0,4.9,-1.9,4.9Zm0,-10.3c-2.6,0,-3.4,2.7,-3.4,5.4c0,2.6,.8,5.2,3.4,5.2c2.6,0,3.4,-2.6,3.4,-5.2c0,-2.7,-.8,-5.4,-3.4,-5.4Z" class="g0_134"/>
<path d="M489.4,109.1c-.9,0,-1.5,-.6,-1.5,-1.5c0,-1.1,.6,-2.3,1.8,-2.3c1.7,0,1.9,1.4,1.9,2.6c0,1.3,-.4,2.1,-1,3c-.4,.5,-.9,1.1,-1.6,1.8c-.6,.7,-1.5,1.5,-2.5,2.4v.4h6.2l.6,-2.8h-.5c-.1,.3,-.2,.6,-.3,.7c-.2,.6,-.6,.8,-1.4,.8h-2.9c.7,-.5,1.4,-1,1.9,-1.5c1.1,-.9,2.1,-1.9,2.7,-3.1c.2,-.5,.4,-1.1,.4,-1.6c0,-.5,-.1,-.8,-.3,-1.2c-.4,-1,-1.4,-1.7,-2.9,-1.7c-1,0,-1.9,.3,-2.4,.8c-.5,.4,-1,1.1,-1,2c0,.6,.2,1.1,.5,1.4c.3,.3,.7,.6,1.3,.6c.5,0,.9,-.3,1,-.8Z" class="g0_134"/>
<path d="M513,109.1c-.9,0,-1.5,-.6,-1.5,-1.5c0,-1.1,.6,-2.3,1.8,-2.3c1.7,0,1.8,1.4,1.8,2.6c0,1.3,-.3,2.1,-.9,3c-.4,.5,-1,1.1,-1.6,1.8c-.7,.7,-1.5,1.5,-2.5,2.4v.4h6.2l.5,-2.8h-.4c-.1,.3,-.2,.6,-.3,.7c-.2,.6,-.7,.8,-1.4,.8h-2.9c.7,-.5,1.3,-1,1.9,-1.5c1,-.9,2.1,-1.9,2.7,-3.1c.2,-.5,.4,-1.1,.4,-1.6c0,-.5,-.1,-.8,-.3,-1.2c-.5,-1,-1.5,-1.7,-3,-1.7c-.9,0,-1.8,.3,-2.3,.8c-.6,.4,-1,1.1,-1,2c0,.6,.2,1.1,.5,1.4c.3,.3,.7,.6,1.2,.6c.6,0,1,-.3,1.1,-.8Z" class="g0_134"/>
<path d="M522.4,110.2c0,.6,-.2,1.6,-.4,2.1c-.2,.6,-.7,1.8,-1,2.2c-.3,.4,-.8,.8,-1.3,.8c-.5,0,-.8,-.4,-.8,-.9c0,-.7,.2,-1.8,.4,-2.3c.4,-.9,1.3,-2.7,2.4,-2.7c.4,0,.7,.3,.7,.8Zm.2,5.5c.4,0,.8,-.2,1.1,-.6c.3,-.4,.6,-.9,.9,-1.7l-.4,-.1c-.1,.5,-.7,1.9,-1.2,1.9c-.3,0,-.4,-.5,-.4,-.8c0,-.2,0,-.3,.1,-.5c0,-.6,.2,-1.2,.4,-1.9c.1,-.4,.2,-.9,.4,-1.6l1.5,-5.8h-2.2l-.1,.2c.5,0,.6,.1,.7,.2c.2,.1,.4,.3,.4,.4c0,.3,-.1,.6,-.2,.9l-.9,3.4c-.3,-.4,-.5,-.6,-1.1,-.6c-1,0,-1.9,.9,-2.5,1.6c-.2,.3,-.4,.6,-.6,.9c-.3,.6,-.6,1.4,-.6,2.2c0,.6,.1,1,.4,1.3c.2,.3,.6,.6,1,.6c1.4,-.1,1.9,-.9,2.4,-1.7c0,.1,0,.2,0,.3c0,.1,0,.2,0,.3c0,.6,.3,1.1,.9,1.1Z" class="g0_134"/>
<path d="M524,119.4c0,.4,.4,.7,.8,.7c.3,0,.6,-.2,1,-.5c.6,-.5,1.5,-1.6,2,-2.5c.3,-.4,.6,-.9,.8,-1.3c.3,-.5,.8,-1.5,.8,-2.1c0,-.2,-.1,-.3,-.1,-.5c-.1,-.1,-.2,-.2,-.4,-.2c-.1,0,-.2,.1,-.3,.2c-.1,.1,-.1,.2,-.1,.5c0,.3,.1,.6,.1,.9c0,.5,-.1,.9,-.3,1.2c-.2,.4,-.3,.6,-.6,1h-.1l-.2,-1.4c-.1,-.4,-.2,-1.2,-.3,-1.5c-.1,-.5,-.2,-.9,-1,-.9c-.8,0,-1,1.3,-1.1,1.9l.2,.1c.1,-.4,.4,-1.7,.8,-1.7c.2,0,.3,.7,.3,.9c.1,.2,.2,.5,.2,1l.5,2.6c-.3,.6,-.9,1.2,-1.3,1.6c-.2,.1,-.4,.1,-.6,.1c0,0,-.1,0,-.1,-.1c-.2,-.2,-.2,-.5,-.5,-.5c-.3,0,-.5,.2,-.5,.5Z" class="g0_134"/>
<path d="M466.7,133.3c-1.9,0,-1.9,-2.7,-1.9,-4.9c0,-2.2,0,-5.2,1.9,-5.2c1.9,0,1.9,3,1.9,5.2c0,2.2,0,4.9,-1.9,4.9Zm0,-10.3c-2.6,0,-3.4,2.7,-3.4,5.4c0,2.6,.8,5.2,3.4,5.2c2.6,0,3.4,-2.6,3.4,-5.2c0,-2.7,-.8,-5.4,-3.4,-5.4Z" class="g0_134"/>
<path d="M490,133.3c-1.9,0,-2,-2.7,-2,-4.9c0,-2.2,0,-5.2,2,-5.2c1.9,0,1.9,3,1.9,5.2c0,2.2,0,4.9,-1.9,4.9ZM490,123c-2.6,0,-3.4,2.7,-3.4,5.4c0,2.6,.8,5.2,3.4,5.2c2.5,0,3.3,-2.6,3.3,-5.2c0,-2.7,-.7,-5.4,-3.3,-5.4Z" class="g0_134"/>
<path d="M519.5,127.1c-1,0,-1.5,-.7,-1.5,-1.6c0,-1.1,.6,-2.3,1.8,-2.3c1.7,0,1.8,1.4,1.8,2.6c0,1.3,-.4,2.1,-1,3c-.3,.5,-.9,1.1,-1.5,1.8c-.7,.7,-1.5,1.5,-2.5,2.4v.4h6.2l.5,-2.8h-.4c-.1,.3,-.2,.6,-.3,.7c-.2,.6,-.7,.8,-1.4,.8h-2.9c.7,-.5,1.3,-1,1.9,-1.5c1,-.9,2.1,-1.9,2.7,-3.1c.2,-.5,.3,-1.1,.3,-1.6c0,-.5,-.1,-.8,-.2,-1.2c-.5,-1,-1.5,-1.7,-3,-1.7c-1,0,-1.8,.3,-2.4,.8c-.5,.4,-.9,1.1,-.9,2c0,.6,.2,1.1,.5,1.4c.3,.3,.7,.6,1.2,.6c.6,0,1,-.3,1.1,-.7Z" class="g0_134"/>
<path d="M531.4,86.1c0,.1,.1,.2,.2,.4c3.2,5.4,4,19.1,4,20.3v.7h1.3v-2c-.2,-3.9,-1.2,-14.9,-5.3,-19.4q0,-.1,0,-.1h-.1c0,0,-.1,.1,-.1,.1Z" class="g0_134"/>
<path d="M535.6,116.7h1.3v-9.6h-1.3Z" class="g0_134"/>
<path d="M531.4,137.9c0,0,.1,.1,.1,.1h.1v-.1c4.1,-4.5,5.1,-15.5,5.3,-19.4v-2h-1.3v.7c0,1.2,-.8,14.9,-4,20.3c-.1,.2,-.2,.3,-.2,.4Z" class="g0_134"/>
<image clip-path="url(#c0_134)" preserveAspectRatio="none" x="142" y="659" width="220" height="220" xlink:href="img/1.jpg"/>
</svg>