<?xml version="1.0" encoding="UTF-8" standalone="no"?>
<!DOCTYPE svg PUBLIC "-//W3C//DTD SVG 1.1//EN"
"http://www.w3.org/Graphics/SVG/1.1/DTD/svg11.dtd">
<svg viewBox="0 0 811 1017" version="1.1" xmlns="http://www.w3.org/2000/svg" xmlns:xlink="http://www.w3.org/1999/xlink">
<defs>
<style type="text/css"><![CDATA[
.g0_347{
fill: #FFF;
}
.g1_347{
fill: #BDC9E6;
}
.g2_347{
fill: #EDF7FA;
}
.g3_347{
fill: #ECD7CC;
}
.g4_347{
fill: #F6BDA1;
}
.g5_347{
fill: #F4997B;
}
.g6_347{
fill: #E56C56;
}
.g7_347{
fill: #BD4441;
}
.g8_347{
fill: #040504;
}
.g9_347{
fill: #181818;
}
.ga_347{
fill: #343433;
}
.gb_347{
fill: #2E3A97;
}
.gc_347{
fill: #4458A6;
}
.gd_347{
fill: #7E95CC;
}
.ge_347{
fill: #B3C8E7;
}
.gf_347{
fill: #000;
}
]]></style>
</defs>
<path d="M139.4,230.1H284.6V84.8H139.4Z" class="g0_347"/>
<path d="M253.8,179.2H198.1l-.6,-.5V150.8l.6,-.6h55.7l1.5,.3l.3,.3v27.9l-.3,.4l-1.5,.1Z" class="g1_347"/>
<path d="M268.5,193.7H183.4l-.4,-.3V136.2l.4,-.5h85.1l1.4,.3l.2,.2v57.2l-.2,.2l-1.4,.1Zm-71,-16.5v1.5l.6,.5h55.7l1.5,-.1l.3,-.4V150.8l-.3,-.3l-1.5,-.3H198.1l-.6,.6v26.4Z" class="g2_347"/>
<path d="M183,193.4V136.2l.4,-.5h85.1l1.4,.3l.2,.2v57.2l-.2,.2l-1.4,.2H183.4l-.4,-.4Zm-2.5,14.7l1.4,.1l1.5,.1h86.5c7.2,0,13.2,-5,14.5,-12l.2,-1.4V136.2c.1,-3.2,-.8,-6.2,-2.6,-8.8l-.3,-.5l-.9,-1c-1.7,-1.9,-3.9,-3.3,-6.5,-4.1l-1,-.3l-.4,-.1l-1.5,-.2l-1.5,-.1H183.4c-7.1,-.1,-13.3,4.8,-14.7,11.7l-.1,.4l-.1,1.5l-.1,1.5v57.2l.1,1.5l.2,1.4v.3l.3,1.2l.5,1.5l.7,1.4l.9,1.5c1.4,1.8,3.1,3.3,5.1,4.4l1.3,.6l1.5,.5l1.4,.4h.1Z" class="g3_347"/>
<path d="M181.9,222.8h89.5l1.5,-.1l1.4,-.2l1.5,-.3l1.5,-.3c1.9,-.5,3.9,-1.2,5.7,-2.1l.1,-.1l1.5,-.8V193.4v1.5l-.2,1.4l-.4,1.5c-1.8,6.3,-7.5,10.5,-14.1,10.5H183.4l-1.5,-.1c-6.6,-.4,-12.1,-5.4,-13.2,-11.9l-.2,-1.4l-.1,-1.5V136.2l.1,-1.5c.4,-6.7,5.4,-12.2,12,-13.3l1.4,-.2l1.5,-.1h86.5c2.6,0,5.2,.7,7.4,1.9l1.4,1l.6,.4c1.9,1.6,3.3,3.6,4.3,5.9l.5,1.5l.3,1.4l.2,1.5v1.5V110.5l-1.3,-.7l-.2,-.1l-1.4,-.7l-1.5,-.6c-2.8,-1,-5.7,-1.6,-8.8,-1.8h-88c-3.5,0,-6.9,.5,-10.2,1.7h-.1l-1.4,.6l-1.5,.7c-6.8,3.3,-12.1,9.2,-14.6,16.3l-.1,.2l-.4,1.3l-.4,1.4l-.3,1.5l-.2,1.5l-.1,1l-.1,.4l-.1,1.5v60.2l.1,1.4l.1,.3l.1,1.2l.2,1.5c.6,3,1.7,6,3.3,8.8l.8,1.2l.1,.2l1,1.5c4.6,6.3,11.6,10.4,19.4,11.5l1.5,.2l1.4,.1Z" class="g4_347"/>
<path d="M157,228.7l1.5,1.1l.4,.3H284.6V218.9l-1.5,.8l-.1,.1l-1.3,.6l-1.5,.6l-.8,.3l-.7,.2l-1.4,.4l-1.5,.3l-1.5,.3l-1.4,.2l-1.5,.1H181.9l-.9,-.1c-3.7,-.2,-7.5,-1.2,-10.9,-2.9l-1.4,-.7l-1.2,-.8l-.2,-.1C159.7,213.3,154.8,205.3,154,196.3l-.1,-1.4V134.7c.3,-8.9,4.7,-17.2,11.9,-22.5l1.4,-1h.1l1.4,-.9c3.3,-1.8,7,-3,10.8,-3.5l1,-.1l1.4,-.1h89.5l1.5,.2h.7l.7,.1l1.5,.3l1.5,.3l1.4,.4l1.1,.4l.4,.1l1.5,.6l1.4,.7l.2,.1l1.3,.7V94.6l-1.5,-.5l-1.4,-.4l-.1,-.1l-1.4,-.3L278.7,93l-1.4,-.3l-1.5,-.2l-1.5,-.2l-1.4,-.1h-.4l-1.1,-.1H181.9l-1.4,.1h-.1c-4.5,.2,-8.9,1.2,-13.1,2.8l-.2,.1l-1.3,.5l-1.5,.7c-7.5,3.6,-14,9.3,-18.4,16.4l-.6,1.1l-.2,.4l-.8,1.4l-.5,1l-.3,.5c-1.7,3.7,-2.9,7.7,-3.6,11.7l-.2,1.5l-.1,1.5l-.1,1.4l-.1,1.5v60.2l.1,1.4l.1,1.5l.1,1.5l.3,1.4l.2,1.5l.3,1.5l.4,1.3v.1c2.3,8.6,7.2,16.3,14.1,22l.5,.5l1.3,1l.2,.1Z" class="g5_347"/>
<path d="M140.9,230.1h18l-.4,-.3c-11.6,-7.9,-18.7,-20.9,-19.1,-34.9v-1.5v36.7h1.5Z" class="g6_347"/>
<path d="M139.4,134.7l.1,-1.5l.1,-1.4c1.1,-12.4,7.4,-23.7,17.4,-31.1l1.5,-1.1l.2,-.1l1.2,-.8c4.5,-2.8,9.5,-4.8,14.7,-5.8l1.5,-.3l1.4,-.2l1.5,-.1l1.4,-.1h.1l1.4,-.1h89.5l1.1,.1c2.6,.1,5.2,.5,7.7,1.1l1.4,.3l.1,.1l1.4,.4l1.5,.5V84.8H154.8c-5.8,3.2,-11,7.5,-15.4,12.4v39v-1.5Z" class="g6_347"/>
<path d="M139.4,97.2V84.8h15.4l-.7,.5c-5.3,3,-10,6.8,-14.1,11.3l-.6,.6Z" class="g7_347"/>
<path d="M139,232h.8v-1.9H139Z" class="g8_347"/>
<path d="M131.6,236.5H135v-.4h-3.4Z" class="g8_347"/>
<path d="M136.3,237.6h.9v-3.1l-1,.2v-.5l1,-.2h.5v3.6h.9v.4h-2.3v-.4Z" class="g8_347"/>
<path d="M140.8,234c.5,0,.8,.2,1,.5c.3,.4,.4,.9,.4,1.5c0,.7,-.1,1.2,-.4,1.6c-.2,.3,-.5,.5,-1,.5c-.4,0,-.8,-.2,-1,-.5c-.2,-.4,-.4,-.9,-.4,-1.6c0,-.6,.2,-1.1,.4,-1.5c.2,-.3,.6,-.5,1,-.5Zm0,.4c-.3,0,-.5,.1,-.6,.4c-.2,.3,-.2,.7,-.2,1.2c0,.6,0,1,.2,1.3c.1,.2,.3,.4,.6,.4c.3,0,.5,-.2,.6,-.4c.2,-.3,.2,-.7,.2,-1.3c0,-.5,0,-.9,-.2,-1.2c-.1,-.3,-.3,-.4,-.6,-.4Z" class="g8_347"/>
<path d="M143.1,238h.6v-.7h-.6Z" class="g8_347"/>
<path d="M146,234c.5,0,.8,.2,1,.5c.3,.4,.4,.9,.4,1.5c0,.7,-.1,1.2,-.4,1.6c-.2,.3,-.5,.5,-1,.5c-.4,0,-.8,-.2,-1,-.5c-.2,-.4,-.4,-.9,-.4,-1.6c0,-.6,.2,-1.1,.4,-1.5c.2,-.3,.6,-.5,1,-.5Zm0,.4c-.3,0,-.5,.1,-.6,.4c-.1,.3,-.2,.7,-.2,1.2c0,.6,.1,1,.2,1.3c.1,.2,.3,.4,.6,.4c.3,0,.5,-.2,.6,-.4c.2,-.3,.3,-.7,.3,-1.3c0,-.5,-.1,-.9,-.3,-1.2c-.1,-.3,-.3,-.4,-.6,-.4Z" class="g8_347"/>
<path d="M157.2,232h.7v-1.9h-.7Z" class="g8_347"/>
<path d="M151.5,236.5h3.4v-.4h-3.4Z" class="g8_347"/>
<path d="M155.9,234h2.6v.3l-1.4,3.7h-.6l1.4,-3.5h-2V234Z" class="g8_347"/>
<path d="M159.5,238h.6v-.7h-.6Z" class="g8_347"/>
<path d="M161.3,234h2.1v.5h-1.6v1l.2,-.1h.2c.5,0,.8,.1,1.1,.4c.3,.2,.4,.5,.4,.9c0,.5,-.1,.8,-.4,1c-.3,.3,-.6,.4,-1.1,.4c-.2,0,-.4,0,-.5,0c-.2,-.1,-.4,-.1,-.6,-.2v-.5c.2,.1,.3,.1,.5,.2c.2,0,.4,0,.6,0c.3,0,.5,0,.7,-.2c.2,-.2,.3,-.4,.3,-.7c0,-.2,-.1,-.4,-.3,-.6c-.2,-.2,-.4,-.3,-.7,-.3c-.2,0,-.3,.1,-.5,.1c-.1,0,-.3,.1,-.4,.1v-2Z" class="g8_347"/>
<path d="M175.3,232h.8v-1.9h-.8Z" class="g8_347"/>
<path d="M169.6,236.5h3.5v-.4h-3.5Z" class="g8_347"/>
<path d="M174.2,234h2.1v.5h-1.6v1l.3,-.1h.2c.4,0,.8,.1,1.1,.4c.2,.2,.3,.5,.3,.9c0,.5,-.1,.8,-.4,1c-.2,.3,-.6,.4,-1.1,.4c-.2,0,-.3,0,-.5,0c-.2,-.1,-.3,-.1,-.5,-.2v-.5c.1,.1,.3,.1,.5,.2c.1,0,.3,0,.5,0c.3,0,.6,0,.7,-.2c.2,-.2,.3,-.4,.3,-.7c0,-.2,-.1,-.4,-.3,-.6c-.1,-.2,-.4,-.3,-.7,-.3c-.1,0,-.3,.1,-.4,.1c-.2,0,-.3,.1,-.5,.1v-2Z" class="g8_347"/>
<path d="M177.7,238h.6v-.7h-.6Z" class="g8_347"/>
<path d="M180.6,234c.4,0,.8,.2,1,.5c.2,.4,.4,.9,.4,1.5c0,.7,-.2,1.2,-.4,1.6c-.2,.3,-.6,.5,-1,.5c-.5,0,-.8,-.2,-1,-.5c-.3,-.4,-.4,-.9,-.4,-1.6c0,-.6,.1,-1.1,.4,-1.5c.2,-.3,.5,-.5,1,-.5Zm0,.4c-.3,0,-.5,.1,-.6,.4c-.2,.3,-.2,.7,-.2,1.2c0,.6,0,1,.2,1.3c.1,.2,.3,.4,.6,.4c.3,0,.5,-.2,.6,-.4c.2,-.3,.2,-.7,.2,-1.3c0,-.5,0,-.9,-.2,-1.2c-.1,-.3,-.3,-.4,-.6,-.4Z" class="g8_347"/>
<path d="M193.5,232h.7v-1.9h-.7Z" class="g8_347"/>
<path d="M187.8,236.5h3.4v-.4h-3.4Z" class="g8_347"/>
<path d="M192.8,237.6h1.9v.4h-2.5v-.4c.2,-.2,.5,-.5,.8,-.9c.4,-.3,.6,-.6,.7,-.7c.2,-.2,.3,-.3,.4,-.5l.1,-.4c0,-.2,-.1,-.3,-.3,-.5c-.1,-.1,-.3,-.2,-.5,-.2c-.2,0,-.4,.1,-.6,.1c-.2,.1,-.4,.2,-.6,.3v-.6c.2,0,.4,-.1,.6,-.2c.2,0,.4,0,.5,0c.5,0,.8,.1,1,.3c.3,.2,.4,.5,.4,.8c0,.2,0,.3,-.1,.5c-.1,.1,-.2,.3,-.3,.5c-.1,0,-.2,.2,-.4,.4c-.3,.3,-.6,.6,-1.1,1.1Z" class="g8_347"/>
<path d="M195.9,238h.5v-.7h-.5Z" class="g8_347"/>
<path d="M197.6,234h2.1v.5h-1.6v1l.2,-.1h.3c.4,0,.8,.1,1,.4c.3,.2,.4,.5,.4,.9c0,.5,-.1,.8,-.4,1c-.3,.3,-.6,.4,-1.1,.4c-.2,0,-.4,0,-.5,0c-.2,-.1,-.4,-.1,-.6,-.2v-.5c.2,.1,.4,.1,.5,.2c.2,0,.4,0,.6,0c.3,0,.5,0,.7,-.2c.2,-.2,.3,-.4,.3,-.7c0,-.2,-.1,-.4,-.3,-.6c-.2,-.2,-.4,-.3,-.7,-.3c-.2,0,-.3,.1,-.5,.1c-.1,0,-.3,.1,-.4,.1v-2Z" class="g8_347"/>
<path d="M211.6,232h.8v-1.9h-.8Z" class="g8_347"/>
<path d="M209.4,234c.4,0,.8,.2,1,.5c.3,.4,.4,.9,.4,1.5c0,.7,-.1,1.2,-.4,1.6c-.2,.3,-.6,.5,-1,.5c-.4,0,-.8,-.2,-1,-.5c-.3,-.4,-.4,-.9,-.4,-1.6c0,-.6,.1,-1.1,.4,-1.5c.2,-.3,.6,-.5,1,-.5Zm0,.4c-.3,0,-.5,.1,-.6,.4c-.2,.3,-.2,.7,-.2,1.2c0,.6,0,1,.2,1.3c.1,.2,.3,.4,.6,.4c.3,0,.5,-.2,.6,-.4c.2,-.3,.2,-.7,.2,-1.3c0,-.5,0,-.9,-.2,-1.2c-.1,-.3,-.3,-.4,-.6,-.4Z" class="g8_347"/>
<path d="M211.7,238h.6v-.7h-.6Z" class="g8_347"/>
<path d="M214.6,234c.5,0,.8,.2,1,.5c.3,.4,.4,.9,.4,1.5c0,.7,-.1,1.2,-.4,1.6c-.2,.3,-.5,.5,-1,.5c-.4,0,-.8,-.2,-1,-.5c-.3,-.4,-.4,-.9,-.4,-1.6c0,-.6,.1,-1.1,.4,-1.5c.2,-.3,.6,-.5,1,-.5Zm0,.4c-.3,0,-.5,.1,-.6,.4c-.2,.3,-.2,.7,-.2,1.2c0,.6,0,1,.2,1.3c.1,.2,.3,.4,.6,.4c.3,0,.5,-.2,.6,-.4c.2,-.3,.2,-.7,.2,-1.3c0,-.5,0,-.9,-.2,-1.2c-.1,-.3,-.3,-.4,-.6,-.4Z" class="g8_347"/>
<path d="M229.8,232h.7v-1.9h-.7Z" class="g8_347"/>
<path d="M226.9,237.6h1.8v.4h-2.5v-.4c.2,-.2,.5,-.5,.9,-.9c.3,-.3,.5,-.6,.6,-.7c.2,-.2,.3,-.3,.4,-.5l.1,-.4c0,-.2,-.1,-.3,-.2,-.5c-.2,-.1,-.4,-.2,-.6,-.2c-.2,0,-.4,.1,-.6,.1c-.1,.1,-.3,.2,-.6,.3v-.6c.3,0,.5,-.1,.7,-.2c.1,0,.3,0,.5,0c.4,0,.7,.1,1,.3c.2,.2,.3,.5,.3,.8c0,.2,0,.3,-.1,.5c0,.1,-.1,.3,-.3,.5c-.1,0,-.2,.2,-.4,.4c-.3,.3,-.6,.6,-1,1.1Z" class="g8_347"/>
<path d="M229.9,238h.5v-.7h-.5Z" class="g8_347"/>
<path d="M231.6,234h2.1v.5h-1.6v1l.2,-.1h.3c.4,0,.8,.1,1,.4c.3,.2,.4,.5,.4,.9c0,.5,-.1,.8,-.4,1c-.2,.3,-.6,.4,-1.1,.4c-.2,0,-.3,0,-.5,0c-.2,-.1,-.4,-.1,-.6,-.2v-.5c.2,.1,.4,.1,.5,.2c.2,0,.4,0,.6,0c.3,0,.5,0,.7,-.2c.2,-.2,.3,-.4,.3,-.7c0,-.2,-.1,-.4,-.3,-.6c-.2,-.2,-.4,-.3,-.7,-.3c-.2,0,-.3,.1,-.4,.1c-.2,0,-.3,.1,-.5,.1v-2Z" class="g8_347"/>
<path d="M247.9,232h.8v-1.9h-.8Z" class="g8_347"/>
<path d="M244.6,234h2.1v.5h-1.6v1l.2,-.1h.2c.5,0,.8,.1,1.1,.4c.2,.2,.4,.5,.4,.9c0,.5,-.2,.8,-.4,1c-.3,.3,-.7,.4,-1.2,.4c-.1,0,-.3,0,-.5,0c-.1,-.1,-.3,-.1,-.5,-.2v-.5c.2,.1,.3,.1,.5,.2c.2,0,.3,0,.5,0c.3,0,.6,0,.8,-.2c.1,-.2,.2,-.4,.2,-.7c0,-.2,-.1,-.4,-.2,-.6c-.2,-.2,-.5,-.3,-.8,-.3c-.1,0,-.3,.1,-.4,.1c-.1,0,-.3,.1,-.4,.1v-2Z" class="g8_347"/>
<path d="M248,238h.6v-.7H248Z" class="g8_347"/>
<path d="M250.9,234c.5,0,.8,.2,1,.5c.3,.4,.4,.9,.4,1.5c0,.7,-.1,1.2,-.4,1.6c-.2,.3,-.5,.5,-1,.5c-.4,0,-.8,-.2,-1,-.5c-.2,-.4,-.4,-.9,-.4,-1.6c0,-.6,.2,-1.1,.4,-1.5c.2,-.3,.6,-.5,1,-.5Zm0,.4c-.3,0,-.5,.1,-.6,.4c-.2,.3,-.2,.7,-.2,1.2c0,.6,0,1,.2,1.3c.1,.2,.3,.4,.6,.4c.3,0,.5,-.2,.6,-.4c.2,-.3,.3,-.7,.3,-1.3c0,-.5,-.1,-.9,-.3,-1.2c-.1,-.3,-.3,-.4,-.6,-.4Z" class="g8_347"/>
<path d="M266.1,232h.7v-1.9h-.7Z" class="g8_347"/>
<path d="M262.6,234h2.5v.3l-1.4,3.7h-.6l1.4,-3.5h-1.9V234Z" class="g8_347"/>
<path d="M266.2,238h.5v-.7h-.5Z" class="g8_347"/>
<path d="M267.9,234H270v.5h-1.6v1l.2,-.1h.3c.4,0,.8,.1,1,.4c.3,.2,.4,.5,.4,.9c0,.5,-.1,.8,-.4,1c-.2,.3,-.6,.4,-1.1,.4c-.2,0,-.3,0,-.5,0c-.2,-.1,-.4,-.1,-.5,-.2v-.5c.1,.1,.3,.1,.4,.2c.2,0,.4,0,.6,0c.3,0,.5,0,.7,-.2c.2,-.2,.3,-.4,.3,-.7c0,-.2,-.1,-.4,-.3,-.6c-.2,-.2,-.4,-.3,-.7,-.3c-.2,0,-.3,.1,-.4,.1c-.2,0,-.3,.1,-.5,.1v-2Z" class="g8_347"/>
<path d="M284.2,232h.8v-1.9h-.8Z" class="g8_347"/>
<path d="M279.2,237.6h.9v-3.1l-1,.2v-.5l1,-.2h.5v3.6h.9v.4h-2.3v-.4Z" class="g8_347"/>
<path d="M283.7,234c.5,0,.8,.2,1.1,.5c.2,.4,.3,.9,.3,1.5c0,.7,-.1,1.2,-.3,1.6c-.3,.3,-.6,.5,-1.1,.5c-.4,0,-.7,-.2,-1,-.5c-.2,-.4,-.3,-.9,-.3,-1.6c0,-.6,.1,-1.1,.3,-1.5c.3,-.3,.6,-.5,1,-.5Zm0,.4c-.2,0,-.4,.1,-.6,.4c-.1,.3,-.2,.7,-.2,1.2c0,.6,.1,1,.2,1.3c.2,.2,.4,.4,.6,.4c.3,0,.5,-.2,.7,-.4c.1,-.3,.2,-.7,.2,-1.3c0,-.5,-.1,-.9,-.2,-1.2c-.2,-.3,-.4,-.4,-.7,-.4Z" class="g8_347"/>
<path d="M286.1,238h.5v-.7h-.5Z" class="g8_347"/>
<path d="M289,234c.4,0,.7,.2,1,.5c.2,.4,.3,.9,.3,1.5c0,.7,-.1,1.2,-.3,1.6c-.3,.3,-.6,.5,-1,.5c-.5,0,-.8,-.2,-1.1,-.5c-.2,-.4,-.3,-.9,-.3,-1.6c0,-.6,.1,-1.1,.3,-1.5c.3,-.3,.6,-.5,1.1,-.5Zm0,.4c-.3,0,-.5,.1,-.7,.4c-.1,.3,-.2,.7,-.2,1.2c0,.6,.1,1,.2,1.3c.2,.2,.4,.4,.7,.4c.2,0,.4,-.2,.6,-.4c.1,-.3,.2,-.7,.2,-1.3c0,-.5,-.1,-.9,-.2,-1.2c-.2,-.3,-.4,-.4,-.6,-.4Z" class="g8_347"/>
<path d="M137.5,230.4h1.9v-.7h-1.9Z" class="g8_347"/>
<path d="M119.4,230.6h3.4v-.4h-3.4Z" class="g8_347"/>
<path d="M124.1,231.7h.9v-3.1l-1,.2v-.5l1,-.1h.5v3.5h.9v.4h-2.3v-.4Z" class="g8_347"/>
<path d="M128.6,228.1c.5,0,.8,.2,1,.5c.3,.4,.4,.9,.4,1.5c0,.7,-.1,1.2,-.4,1.6c-.2,.3,-.5,.5,-1,.5c-.4,0,-.8,-.2,-1,-.5c-.2,-.4,-.3,-.9,-.3,-1.6c0,-.6,.1,-1.1,.3,-1.5c.2,-.3,.6,-.5,1,-.5Zm0,.4c-.2,0,-.5,.1,-.6,.4c-.1,.3,-.2,.7,-.2,1.2c0,.6,.1,1,.2,1.3c.1,.2,.4,.4,.6,.4c.3,0,.5,-.2,.7,-.4c.1,-.3,.2,-.7,.2,-1.3c0,-.5,-.1,-.9,-.2,-1.2c-.2,-.3,-.4,-.4,-.7,-.4Z" class="g8_347"/>
<path d="M130.9,232.1h.6v-.6h-.6Z" class="g8_347"/>
<path d="M133.8,228.1c.5,0,.8,.2,1.1,.5c.2,.4,.3,.9,.3,1.5c0,.7,-.1,1.2,-.3,1.6c-.3,.3,-.6,.5,-1.1,.5c-.4,0,-.8,-.2,-1,-.5c-.2,-.4,-.3,-.9,-.3,-1.6c0,-.6,.1,-1.1,.3,-1.5c.2,-.3,.6,-.5,1,-.5Zm0,.4c-.2,0,-.5,.1,-.6,.4c-.1,.3,-.2,.7,-.2,1.2c0,.6,.1,1,.2,1.3c.1,.2,.4,.4,.6,.4c.3,0,.5,-.2,.7,-.4c.1,-.3,.2,-.7,.2,-1.3c0,-.5,-.1,-.9,-.2,-1.2c-.2,-.3,-.4,-.4,-.7,-.4Z" class="g8_347"/>
<path d="M137.5,212.3h1.9v-.8h-1.9Z" class="g8_347"/>
<path d="M122.9,212.5h3.4V212h-3.4Z" class="g8_347"/>
<path d="M127.3,210h2.6v.2l-1.4,3.8h-.6l1.4,-3.5h-2V210Z" class="g8_347"/>
<path d="M130.9,214h.6v-.7h-.6Z" class="g8_347"/>
<path d="M132.7,210h2.1v.5h-1.6v.9h.2l.3,-.1c.4,0,.7,.2,1,.4c.3,.3,.4,.6,.4,1c0,.4,-.1,.8,-.4,1c-.3,.2,-.6,.4,-1.1,.4c-.2,0,-.4,-.1,-.5,-.1c-.2,0,-.4,-.1,-.6,-.1v-.6c.2,.1,.3,.2,.5,.2c.2,.1,.4,.1,.6,.1c.3,0,.5,-.1,.7,-.2c.2,-.2,.3,-.4,.3,-.7c0,-.3,-.1,-.5,-.3,-.7c-.2,-.1,-.4,-.2,-.7,-.2c-.2,0,-.3,0,-.5,0c-.1,.1,-.3,.1,-.4,.2v-2Z" class="g8_347"/>
<path d="M137.5,194.1h1.9v-.7h-1.9Z" class="g8_347"/>
<path d="M122.9,194.3h3.4v-.4h-3.4Z" class="g8_347"/>
<path d="M127.5,191.8h2.1v.5H128v1l.2,-.1h.2c.5,0,.8,.1,1.1,.4c.3,.2,.4,.5,.4,.9c0,.5,-.1,.8,-.4,1c-.3,.3,-.7,.4,-1.1,.4c-.2,0,-.4,0,-.5,0c-.2,-.1,-.4,-.1,-.6,-.2v-.5c.2,.1,.3,.1,.5,.2c.2,0,.4,0,.6,0c.3,0,.5,0,.7,-.2c.2,-.2,.2,-.4,.2,-.7c0,-.2,0,-.4,-.2,-.6c-.2,-.2,-.4,-.3,-.7,-.3c-.2,0,-.3,.1,-.5,.1c-.1,0,-.3,.1,-.4,.1v-2Z" class="g8_347"/>
<path d="M130.9,195.8h.6v-.7h-.6Z" class="g8_347"/>
<path d="M133.8,191.8c.5,0,.8,.2,1.1,.5c.2,.4,.3,.9,.3,1.5c0,.7,-.1,1.2,-.3,1.6c-.3,.3,-.6,.5,-1.1,.5c-.4,0,-.8,-.2,-1,-.5c-.2,-.4,-.3,-.9,-.3,-1.6c0,-.6,.1,-1.1,.3,-1.5c.2,-.3,.6,-.5,1,-.5Zm0,.4c-.2,0,-.5,.1,-.6,.4c-.1,.3,-.2,.7,-.2,1.2c0,.6,.1,1,.2,1.3c.1,.2,.4,.4,.6,.4c.3,0,.5,-.2,.7,-.4c.1,-.3,.2,-.7,.2,-1.3c0,-.5,-.1,-.9,-.2,-1.2c-.2,-.3,-.4,-.4,-.7,-.4Z" class="g8_347"/>
<path d="M137.5,176h1.9v-.8h-1.9Z" class="g8_347"/>
<path d="M122.9,176.2h3.4v-.5h-3.4Z" class="g8_347"/>
<path d="M127.9,177.2h1.9v.5h-2.5v-.5c.2,-.2,.5,-.5,.8,-.8c.4,-.4,.6,-.6,.7,-.7c.2,-.2,.3,-.4,.4,-.5l.1,-.4c0,-.2,-.1,-.4,-.3,-.5c-.1,-.2,-.3,-.2,-.5,-.2c-.2,0,-.4,0,-.6,.1c-.2,0,-.4,.1,-.6,.2v-.5c.2,-.1,.4,-.2,.6,-.2c.2,-.1,.4,-.1,.5,-.1c.5,0,.8,.1,1,.3c.3,.2,.4,.5,.4,.9c0,.1,0,.3,-.1,.4c-.1,.2,-.2,.3,-.3,.5c-.1,.1,-.2,.2,-.5,.5c-.2,.2,-.5,.6,-1,1Z" class="g8_347"/>
<path d="M130.9,177.7h.6V177h-.6Z" class="g8_347"/>
<path d="M132.7,173.7h2.1v.4h-1.6v1h.2l.3,-.1c.4,0,.7,.2,1,.4c.3,.2,.4,.6,.4,1c0,.4,-.1,.8,-.4,1c-.3,.2,-.6,.3,-1.1,.3c-.2,0,-.4,0,-.5,0c-.2,0,-.4,-.1,-.6,-.1V177c.2,.1,.3,.2,.5,.2c.2,.1,.4,.1,.6,.1c.3,0,.5,-.1,.7,-.2c.2,-.2,.3,-.4,.3,-.7c0,-.3,-.1,-.5,-.3,-.7c-.2,-.1,-.4,-.2,-.7,-.2c-.2,0,-.3,0,-.5,0c-.1,.1,-.3,.1,-.4,.2v-2Z" class="g8_347"/>
<path d="M137.5,157.8h1.9v-.7h-1.9Z" class="g8_347"/>
<path d="M128.6,155.5c.5,0,.8,.1,1.1,.5c.2,.3,.3,.9,.3,1.5c0,.7,-.1,1.2,-.3,1.6c-.3,.3,-.6,.5,-1.1,.5c-.4,0,-.8,-.2,-1,-.5c-.2,-.4,-.3,-.9,-.3,-1.6c0,-.6,.1,-1.2,.3,-1.5c.2,-.4,.6,-.5,1,-.5Zm0,.4c-.2,0,-.5,.1,-.6,.4c-.1,.3,-.2,.7,-.2,1.2c0,.6,.1,1,.2,1.3c.1,.2,.4,.4,.6,.4c.3,0,.5,-.2,.7,-.4c.1,-.3,.2,-.7,.2,-1.3c0,-.5,-.1,-.9,-.2,-1.2c-.2,-.3,-.4,-.4,-.7,-.4Z" class="g8_347"/>
<path d="M130.9,159.5h.6v-.7h-.6Z" class="g8_347"/>
<path d="M133.8,155.5c.5,0,.8,.1,1.1,.5c.2,.3,.3,.9,.3,1.5c0,.7,-.1,1.2,-.3,1.6c-.3,.3,-.6,.5,-1.1,.5c-.4,0,-.8,-.2,-1,-.5c-.2,-.4,-.3,-.9,-.3,-1.6c0,-.6,.1,-1.2,.3,-1.5c.2,-.4,.6,-.5,1,-.5Zm0,.4c-.2,0,-.5,.1,-.6,.4c-.1,.3,-.2,.7,-.2,1.2c0,.6,.1,1,.2,1.3c.1,.2,.4,.4,.6,.4c.3,0,.5,-.2,.7,-.4c.1,-.3,.2,-.7,.2,-1.3c0,-.5,-.1,-.9,-.2,-1.2c-.2,-.3,-.4,-.4,-.7,-.4Z" class="g8_347"/>
<path d="M137.5,139.7h1.9v-.8h-1.9Z" class="g8_347"/>
<path d="M127.9,140.9h1.9v.5h-2.5v-.5c.2,-.2,.5,-.5,.8,-.8c.4,-.4,.6,-.6,.7,-.7c.2,-.2,.3,-.4,.4,-.5l.1,-.4c0,-.2,-.1,-.4,-.3,-.5c-.1,-.2,-.3,-.2,-.5,-.2c-.2,0,-.4,0,-.6,.1c-.2,0,-.4,.1,-.6,.2v-.5c.2,-.1,.4,-.2,.6,-.2c.2,-.1,.4,-.1,.5,-.1c.5,0,.8,.1,1,.3c.3,.2,.4,.5,.4,.9c0,.1,0,.3,-.1,.4c-.1,.2,-.2,.3,-.3,.5c-.1,.1,-.2,.2,-.5,.5c-.2,.2,-.5,.6,-1,1Z" class="g8_347"/>
<path d="M130.9,141.4h.6v-.7h-.6Z" class="g8_347"/>
<path d="M132.7,137.4h2.1v.4h-1.6v1h.2l.3,-.1c.4,0,.7,.2,1,.4c.3,.2,.4,.6,.4,1c0,.4,-.1,.7,-.4,1c-.3,.2,-.6,.3,-1.1,.3c-.2,0,-.4,0,-.5,0c-.2,0,-.4,-.1,-.6,-.1v-.6c.2,.1,.3,.2,.5,.2c.2,.1,.4,.1,.6,.1c.3,0,.5,-.1,.7,-.3c.2,-.1,.3,-.3,.3,-.6c0,-.3,-.1,-.5,-.3,-.7c-.2,-.1,-.4,-.2,-.7,-.2c-.2,0,-.3,0,-.5,0c-.1,.1,-.3,.1,-.4,.2v-2Z" class="g8_347"/>
<path d="M137.5,121.5h1.9v-.7h-1.9Z" class="g8_347"/>
<path d="M127.5,119.2h2.1v.5H128v1l.2,-.1h.2c.5,0,.8,.1,1.1,.3c.3,.3,.4,.6,.4,1c0,.5,-.1,.8,-.4,1c-.3,.3,-.7,.4,-1.1,.4c-.2,0,-.4,0,-.5,-.1c-.2,0,-.4,0,-.6,-.1v-.5c.2,.1,.3,.1,.5,.2c.2,0,.4,0,.6,0c.3,0,.5,0,.7,-.2c.2,-.2,.3,-.4,.3,-.7c0,-.2,-.1,-.5,-.3,-.6c-.2,-.2,-.4,-.3,-.7,-.3c-.2,0,-.3,.1,-.5,.1c-.1,0,-.3,.1,-.4,.1v-2Z" class="g8_347"/>
<path d="M130.9,123.2h.6v-.7h-.6Z" class="g8_347"/>
<path d="M133.8,119.2c.5,0,.8,.1,1.1,.5c.2,.3,.3,.9,.3,1.5c0,.7,-.1,1.2,-.3,1.6c-.3,.3,-.6,.5,-1.1,.5c-.4,0,-.8,-.2,-1,-.5c-.2,-.4,-.3,-.9,-.3,-1.6c0,-.6,.1,-1.2,.3,-1.5c.2,-.4,.6,-.5,1,-.5Zm0,.4c-.2,0,-.5,.1,-.6,.4c-.1,.3,-.2,.7,-.2,1.2c0,.6,.1,1,.2,1.3c.1,.2,.4,.4,.6,.4c.3,0,.5,-.2,.7,-.4c.1,-.3,.2,-.7,.2,-1.3c0,-.5,-.1,-.9,-.2,-1.2c-.2,-.3,-.4,-.4,-.7,-.4Z" class="g8_347"/>
<path d="M137.5,103.4h1.9v-.8h-1.9Z" class="g8_347"/>
<path d="M127.3,101.1h2.6v.2l-1.4,3.8h-.6l1.4,-3.6h-2v-.4Z" class="g8_347"/>
<path d="M130.9,105.1h.6v-.7h-.6Z" class="g8_347"/>
<path d="M132.7,101.1h2.1v.4h-1.6v1l.2,-.1h.3c.4,0,.7,.2,1,.4c.3,.2,.4,.6,.4,1c0,.4,-.1,.7,-.4,1c-.3,.2,-.6,.3,-1.1,.3c-.2,0,-.4,0,-.5,0c-.2,0,-.4,-.1,-.6,-.1v-.6c.2,.1,.3,.2,.5,.2c.2,.1,.4,.1,.6,.1c.3,0,.5,-.1,.7,-.3c.2,-.1,.3,-.3,.3,-.6c0,-.3,-.1,-.5,-.3,-.7c-.2,-.1,-.4,-.2,-.7,-.2c-.2,0,-.3,0,-.5,0c-.1,.1,-.3,.1,-.4,.2v-2Z" class="g8_347"/>
<path d="M137.5,85.2h1.9v-.7h-1.9Z" class="g8_347"/>
<path d="M124.1,86.5h.9V83.4l-1,.2v-.5l1,-.2h.5v3.6h.9v.4h-2.3v-.4Z" class="g8_347"/>
<path d="M128.9,82.9c.3,0,.6,.2,.8,.5c.2,.3,.3,.8,.3,1.5c0,.7,-.1,1.2,-.3,1.6c-.3,.3,-.6,.5,-1.1,.5c-.4,0,-.8,-.2,-1,-.5c-.2,-.4,-.3,-.9,-.3,-1.6c0,-.7,.1,-1.2,.3,-1.5c.2,-.3,.5,-.5,.8,-.5h.5Zm-.3,.4c-.2,0,-.5,.1,-.6,.4c-.1,.3,-.2,.7,-.2,1.2c0,.6,.1,1,.2,1.2c.1,.3,.4,.5,.6,.5c.3,0,.5,-.2,.7,-.5c.1,-.2,.2,-.6,.2,-1.2c0,-.5,-.1,-.9,-.2,-1.2c-.2,-.3,-.4,-.4,-.7,-.4Z" class="g8_347"/>
<path d="M130.9,86.9h.6v-.7h-.6Z" class="g8_347"/>
<path d="M134.1,82.9c.3,0,.6,.2,.8,.5c.2,.3,.3,.8,.3,1.5c0,.7,-.1,1.2,-.3,1.6c-.3,.3,-.6,.5,-1.1,.5c-.4,0,-.8,-.2,-1,-.5c-.2,-.4,-.3,-.9,-.3,-1.6c0,-.7,.1,-1.2,.3,-1.5c.2,-.3,.5,-.5,.8,-.5h.5Zm-.3,.4c-.2,0,-.5,.1,-.6,.4c-.1,.3,-.2,.7,-.2,1.2c0,.6,.1,1,.2,1.2c.1,.3,.4,.5,.6,.5c.3,0,.5,-.2,.7,-.5c.1,-.2,.2,-.6,.2,-1.2c0,-.5,-.1,-.9,-.2,-1.2c-.2,-.3,-.4,-.4,-.7,-.4Z" class="g8_347"/>
<path d="M198.1,179.2l.2,-.2l-.4,-.5V151l.3,-.4h55.6l1.3,.2l.1,.2v27.6l-.1,.1l-1.3,.1H198.1v.4l.2,-.2l-.2,.2v.4h55.8l1.4,-.2l.3,-.1l.3,-.3l.1,-.3V150.8l-.1,-.2l-.3,-.4l-.3,-.1l-1.4,-.3H198.1l-.3,.2l-.6,.6l-.1,.2v27.9l.2,.3l.5,.5l.3,.1v-.4Z" class="g9_347"/>
<path d="M183.4,193.8l.8,-.8l-.1,-.1V136.6l.1,-.1l-.8,-.8v1.1h85l1.3,.3l.2,-1.1l-.8,.6l.1,.2l.9,-.6H269v57.2h1.1l-.8,-.7l-.2,.1l.8,.8l-.1,-1.1l-1.4,.2h-85v1.1l.8,-.8l-.8,.8v1.1h85.1l.1,-.1l1.5,-.2c.3,0,.5,-.1,.7,-.3l.1,-.2c.2,-.2,.3,-.5,.3,-.7V136.2c0,-.3,-.1,-.5,-.2,-.7l-.2,-.2c-.1,-.2,-.4,-.3,-.6,-.4l-1.5,-.3H183.4c-.3,0,-.6,.1,-.8,.4l-.4,.4c-.2,.2,-.3,.5,-.3,.8v57.2c0,.3,.1,.6,.4,.8l.3,.3c.2,.2,.5,.4,.8,.4v-1.1Z" class="ga_347"/>
<path d="M284.2,193.4v1.4l-.2,1.5l-.3,1.4c-2,6.8,-8.3,10.7,-15.2,10.2H182l-1.5,-.2c-6.3,-1.1,-11.2,-6.5,-11.6,-12.9l-.1,-2.9V134.7l.3,-1.8l.2,-1c1.6,-5.8,6.7,-9.9,12.7,-10.3l2.9,-.1l86.5,.1c5.9,.5,10.7,4.6,12.3,10.3l.3,1.4l.2,1.4v1.5h.8v-1.5l-.2,-1.5c-1.2,-6.7,-6.6,-11.7,-13.3,-12.4H184.9c-7.9,-.7,-14.9,4.1,-16.5,11.9v.1l-.3,1.9v57.2c-.7,8,4.3,15,12.3,16.5l1.5,.2l86.6,.1l2.9,-.1h.1l1.1,-.2l1.8,-.4h.1l1.4,-.5l.1,-.1l1,-.5h.1l1.8,-1.2c3.1,-2.2,5.2,-5.6,5.9,-9.3l.1,-1.5h.1v-1.5h-.8Z" class="g9_347"/>
<path d="M284.4,218.6l-1.6,.8c-3.6,1.8,-7.4,2.8,-11.4,3H181.9c-15,-.6,-27,-12.5,-27.6,-27.6V134.7c.5,-15.1,12.6,-27.1,27.6,-27.7h89.5c4.1,.2,8,1.3,11.7,3.1l1.3,.7l.4,-.6l-1.4,-.8l-1.6,-.7l-1.4,-.6c-1,-.4,-2,-.7,-3,-1l-1.5,-.3c-1.5,-.3,-3,-.4,-4.5,-.5l-83.6,-.1l-5.9,.1c-3.5,.1,-7.1,.9,-10.4,2.3l-1.5,.6l-1.4,.8c-9,5,-14.7,14.5,-15,24.7h-.1v55.8l.1,4.4c.3,10.2,6,19.4,14.9,24.5h.1l1.3,.7c3.8,1.9,7.9,2.9,12,3.1H267c5.3,.2,10,-.4,14.8,-2.5l1.3,-.6l1.7,-.9l-.4,-.6Z" class="g9_347"/>
<path d="M159.1,229.7l-.4,-.2c-5.9,-4,-10.7,-9.5,-14,-15.8l-.6,-1l-.1,-.4l-.7,-1.5l-.6,-1.4v-.1l-.5,-1.4l-.5,-1.4l-.4,-1.5l-.1,-.1l-.3,-1.3c-.7,-2.9,-1,-5.8,-1.1,-8.8v-1.4H139v1.5c.4,14.1,7.5,27.2,19.3,35.2l.4,.3l.4,-.7Z" class="g9_347"/>
<path d="M139.8,136.2v-2.9c1.3,-22.6,19.6,-40.2,42.1,-40.8h89.5l2.9,.2l2.9,.4l2.9,.6l2.9,.8l1.5,.4l.2,-.7l-1.4,-.5l-3,-.8l-2.9,-.6h-.1l-2.9,-.4l-3,-.2H181.9l-2.9,.2l-3,.4c-6.3,1,-12.3,3.3,-17.5,6.9h-.1l-1.6,1.2c-10.5,7.7,-17,19.8,-17.7,32.8l-.1,3h.8Z" class="g9_347"/>
<path d="M139.7,97.5l.6,-.7c3.2,-3.6,7,-6.7,11,-9.4l1.2,-.8l.3,-.1l1.5,-.9l.7,-.4l-.3,-.7l-.8,.4c-5.3,3.1,-10.1,6.9,-14.2,11.4l-.6,.7l.6,.5Z" class="g9_347"/>
<path d="M139,230.4h.8V84.5H139Z" class="g8_347"/>
<path d="M284.2,230.4h.8V84.5h-.8Z" class="g8_347"/>
<path d="M139,230.4H285v-.7H139Z" class="g8_347"/>
<path d="M139,85.2H285v-.7H139Z" class="g8_347"/>
<path d="M294.4,230.1h7.2V84.8h-7.2Z" class="g0_347"/>
<path d="M294.4,230.1h7.2V215.5h-7.2Z" class="gb_347"/>
<path d="M294.4,215.5h7.2V201h-7.2Z" class="gc_347"/>
<path d="M294.4,201h7.2V186.5h-7.2Z" class="gd_347"/>
<path d="M294.4,186.5h7.2V172h-7.2Z" class="ge_347"/>
<path d="M294.4,172h7.2V157.4h-7.2Z" class="g2_347"/>
<path d="M294.4,157.4h7.2V142.9h-7.2Z" class="g3_347"/>
<path d="M294.4,142.9h7.2V128.4h-7.2Z" class="g4_347"/>
<path d="M294.4,128.4h7.2V113.9h-7.2Z" class="g5_347"/>
<path d="M294.4,113.9h7.2V99.4h-7.2Z" class="g6_347"/>
<path d="M294.4,99.4h7.2V84.8h-7.2Z" class="g7_347"/>
<path d="M301.6,215.9h1.9v-.7h-1.9Z" class="g8_347"/>
<path d="M306,216.1h3.4v-.4H306Z" class="g8_347"/>
<path d="M311,214.6c0,.2,.1,.4,.2,.5c.1,.1,.3,.2,.5,.2c.3,0,.5,-.1,.6,-.2c.1,-.1,.2,-.3,.2,-.5c0,-.2,-.1,-.3,-.2,-.4c-.1,-.2,-.3,-.2,-.6,-.2c-.2,0,-.4,0,-.5,.2c-.1,.1,-.2,.2,-.2,.4Zm.2,.9c-.2,-.1,-.4,-.2,-.5,-.3c-.2,-.2,-.2,-.4,-.2,-.6c0,-.3,.1,-.6,.3,-.8c.2,-.1,.6,-.2,.9,-.2c.4,0,.8,.1,1,.2c.2,.2,.3,.5,.3,.8c0,.2,0,.4,-.2,.6c-.1,.1,-.3,.2,-.5,.3c.2,0,.4,.2,.6,.3c.1,.2,.2,.4,.2,.7c0,.4,-.1,.7,-.3,.9c-.3,.2,-.6,.3,-1.1,.3c-.4,0,-.7,-.1,-1,-.3c-.2,-.2,-.3,-.5,-.3,-.9c0,-.3,.1,-.5,.2,-.7c.1,-.1,.4,-.3,.6,-.3Zm.5,.2c-.2,0,-.4,.1,-.6,.2c-.1,.2,-.2,.3,-.2,.6c0,.2,.1,.4,.2,.6c.2,.1,.4,.2,.6,.2c.3,0,.5,-.1,.7,-.2c.1,-.2,.2,-.4,.2,-.6c0,-.3,-.1,-.4,-.2,-.6c-.2,-.1,-.4,-.2,-.7,-.2Z" class="g8_347"/>
<path d="M301.6,186.9h1.9v-.8h-1.9Z" class="g8_347"/>
<path d="M306,187.1h3.4v-.5H306Z" class="g8_347"/>
<path d="M311.9,184.6h.7v2.6h.6v.4h-.6v1h-.5v-1h-1.8v-.5l1.6,-2.5Zm.2,.5l-1.4,2.1h1.4v-2.1Z" class="g8_347"/>
<path d="M301.6,157.8h1.9v-.7h-1.9Z" class="g8_347"/>
<path d="M307.2,155.5c.4,0,.8,.1,1,.5c.2,.3,.4,.9,.4,1.5c0,.7,-.2,1.2,-.4,1.6c-.2,.3,-.6,.5,-1,.5c-.5,0,-.8,-.2,-1,-.5c-.3,-.4,-.4,-.9,-.4,-1.6c0,-.6,.1,-1.2,.4,-1.5c.2,-.4,.5,-.5,1,-.5Zm0,.4c-.3,0,-.5,.1,-.6,.4c-.2,.3,-.3,.7,-.3,1.2c0,.6,.1,1,.3,1.3c.1,.2,.3,.4,.6,.4c.3,0,.5,-.2,.6,-.4c.1,-.3,.2,-.7,.2,-1.3c0,-.5,-.1,-.9,-.2,-1.2c-.1,-.3,-.3,-.4,-.6,-.4Z" class="g8_347"/>
<path d="M301.6,128.8h1.9V128h-1.9Z" class="g8_347"/>
<path d="M307.4,126.5h.6v2.6h.6v.4H308v1h-.5v-1h-1.8V129l1.7,-2.5Zm.1,.5l-1.4,2.1h1.4V127Z" class="g8_347"/>
<path d="M301.6,99.7h1.9V99h-1.9Z" class="g8_347"/>
<path d="M306.4,98.5c0,.2,.1,.3,.2,.4c.2,.2,.3,.2,.6,.2c.2,0,.4,0,.5,-.2c.1,-.1,.2,-.2,.2,-.4c0,-.2,-.1,-.4,-.2,-.5c-.1,-.1,-.3,-.2,-.5,-.2c-.3,0,-.4,.1,-.6,.2c-.1,.1,-.2,.3,-.2,.5Zm.2,.8c-.2,0,-.4,-.2,-.5,-.3c-.1,-.2,-.2,-.4,-.2,-.6c0,-.3,.1,-.6,.3,-.7c.3,-.2,.6,-.3,1,-.3c.4,0,.7,.1,.9,.3c.2,.1,.3,.4,.3,.7c0,.2,0,.4,-.1,.6c-.2,.1,-.4,.3,-.6,.3c.3,.1,.5,.2,.6,.4c.2,.1,.2,.4,.2,.6c0,.4,-.1,.7,-.3,.9c-.2,.2,-.6,.3,-1,.3c-.5,0,-.8,-.1,-1,-.3c-.3,-.2,-.4,-.5,-.4,-.9c0,-.2,.1,-.5,.2,-.6c.2,-.2,.4,-.3,.6,-.4Zm.6,.2c-.3,0,-.5,.1,-.6,.2c-.2,.2,-.2,.4,-.2,.6c0,.2,0,.4,.2,.6c.1,.1,.3,.2,.6,.2c.2,0,.4,-.1,.6,-.2c.1,-.2,.2,-.4,.2,-.6c0,-.2,-.1,-.4,-.2,-.6c-.2,-.1,-.4,-.2,-.6,-.2Z" class="g8_347"/>
<path d="M294.4,230.1v.3H302V84.5h-8V230.4h.4v-.3h.3V85.2h6.5V229.7h-6.8v.4h.3h-.3Z" class="g8_347"/>
<path d="M344.2,230.1H489.4V84.8H344.2Z" class="g0_347"/>
<path d="M441,177.2l-1.4,-.3C422,173.3,404.4,169.7,386.7,166.2l-1,-.7l.1,-1.5c1.7,-8.3,3.4,-16.6,5.1,-24.9l.2,-1.2l1.5,-.2c18.1,3.7,36.2,7.4,54.3,11l1,.7l-.1,1.4c-1.7,8.4,-3.4,16.7,-5.1,25l-.2,1.2l-1.5,.2Z" class="g1_347"/>
<path d="M452.8,194.4l-3,-.6c-22.3,-4.6,-44.7,-9.1,-67,-13.6l-.5,-.1l-2.9,-.6l-1.5,-.3l-1.4,-.3l-3,-.6l-1.4,-.3l-1.5,-.3l-1.5,-.3l-.2,-.2l-.3,-1.4l.3,-1.5l.2,-1l.1,-.5c1,-4.6,1.9,-9.3,2.9,-13.9l.1,-.7l.3,-1.5l.3,-1.5c2.2,-10.7,4.4,-21.5,6.6,-32.2v-.3l.3,-1.2l1.2,-1l1.4,.3l1.5,.3c22.4,4.5,44.7,9.1,67.1,13.6l.4,.1l2.9,.6l1.5,.3l1.5,.3l.9,.2l.5,.1l5.9,1.2l.3,.1l.2,1.5l-.3,1.5l-.2,1l-.1,.4c-1,4.7,-1.9,9.4,-2.8,14l-.2,.7l-.3,1.5l-.3,1.4c-2.2,10.8,-4.3,21.6,-6.5,32.3l-.1,.3l-.3,1.2l-1.1,1ZM385.7,165.5l1,.7c18.1,3.6,36.2,7.3,54.3,11l1.5,-.2l.2,-1.2c1.7,-8.3,3.4,-16.6,5.1,-25l.1,-1.4l-1,-.7c-18.1,-3.6,-36.2,-7.3,-54.3,-11l-1.5,.2l-.2,1.2c-1.7,8.3,-3.4,16.6,-5.1,24.9l-.1,1.5Z" class="g2_347"/>
<path d="M447.9,193.4l-1,-.2l-1.5,-.3c-21.5,-4.4,-43,-8.7,-64.5,-13.1l-7.4,-1.5l-1.4,-.3l-3,-.6l-.2,-.2l-.3,-1.4l.3,-1.5l.2,-1l.1,-.5l.3,-1.4l.3,-1.5c.8,-3.9,1.6,-7.8,2.4,-11.7l.3,-1.5l.3,-1.5l.3,-1.4c2.1,-10.3,4.2,-20.6,6.3,-30.8v-.3l.3,-1.2l1.2,-1l1.4,.3l1.5,.3c22.4,4.5,44.7,9.1,67.1,13.6l.4,.1l2.9,.6l1.5,.3l2.4,.5l.5,.1l5.9,1.2l.3,.1l.2,1.5l-.3,1.5l-.2,1l-.1,.4c-.9,4.7,-1.9,9.4,-2.8,14l-.2,.7l-.3,1.5l-.3,1.4c-2.2,10.8,-4.3,21.6,-6.5,32.3l-.1,.3l-.3,1.2l-1.1,1l-4.4,-.9l-.5,-.1Zm.5,14.9l1.4,.3l1.5,.3l1.5,.2h1.4l1.5,-.1c5.4,-.8,10,-4.5,11.8,-9.7l.4,-1.5l.3,-1.5c1.3,-6.3,2.6,-12.7,3.9,-19.1l.3,-1.4l.3,-1.5l.3,-1.5l.3,-1.4c1.2,-5.9,2.3,-11.8,3.5,-17.6l.3,-1.5l.3,-1.5c.9,-6.2,4,-13,1.2,-19l-.8,-1.5l-.1,-.2l-.9,-1.3l-.6,-.7l-.6,-.7l-.8,-.8c-4.1,-3.7,-10.9,-3.7,-16.2,-5.1l-1.4,-.3l-1.5,-.3C449.3,119.6,443,118.3,436.6,117l-2.9,-.6l-1.5,-.3c-14.6,-3,-29.3,-5.9,-44,-8.9l-1.5,-.3l-.2,-.1l-1.2,-.2l-1.5,-.3l-1.5,-.3l-1.4,-.2h-1.5c-5.9,.2,-11.2,4.1,-13.2,9.7l-.1,.1l-.4,1.5c-1.3,6.4,-2.6,12.9,-3.9,19.3l-.2,1.2l-.3,1.5l-.3,1.5l-.3,1.4c-1.2,5.9,-2.4,11.8,-3.6,17.6l-.3,1.5l-.3,1.5c-.8,5.8,-3.9,13.6,-2,19l.6,1.5l.7,1.5l.1,.2l.9,1.2l.6,.8l.7,.7c4.3,4.6,11,4.4,16.7,5.9h.2l1.5,.3c6.7,1.4,13.3,2.7,20,4.1l.5,.1l3,.6c14.6,3,29.3,5.9,44,8.9l1.4,.3l1.5,.3l.3,.1l1.2,.2Z" class="g3_347"/>
<path d="M447.2,208.1l-.3,-.1l-1.5,-.3l-2.9,-.6c-14.2,-2.9,-28.4,-5.7,-42.5,-8.6l-3,-.6l-.5,-.1c-6.2,-1.3,-12.4,-2.5,-18.6,-3.8l-2.9,-.6c-5.7,-1.5,-12.5,-1.3,-16.9,-5.9l-.7,-.7l-.6,-.8l-.9,-1.2l-.1,-.2l-.7,-1.5l-.6,-1.5c-1.9,-5.3,.9,-12,1.7,-17.6l.3,-1.4l.3,-1.5c1.3,-6.3,2.6,-12.7,3.9,-19.1l.3,-1.4l.3,-1.5l.3,-1.5l.2,-1.2c1.3,-6.4,2.6,-12.9,3.9,-19.3l.4,-1.5l.1,-.1c2.1,-6.1,8.2,-10.1,14.7,-9.7l1.4,.2l1.5,.3l1.5,.3l1.2,.2l.2,.1l1.5,.3l1.5,.3c14.2,2.9,28.3,5.7,42.5,8.6l1.5,.3l2.9,.6c5.9,1.2,11.8,2.4,17.6,3.6l1.5,.3l1.5,.3c5.5,1.5,13.4,1.5,17.6,5.4l.8,.8l.6,.7l.6,.7l.9,1.3l.1,.2l.8,1.5c2.7,5.8,0,11.8,-.9,17.7l-.3,1.3l-.3,1.5c-1.3,6.4,-2.5,12.7,-3.8,19.1l-.3,1.4l-.3,1.5l-.3,1.5l-.3,1.4c-1.3,6.4,-2.6,12.8,-3.9,19.1l-.3,1.5l-.4,1.5c-2,5.7,-7.2,9.6,-13.3,9.8h-1.4l-1.5,-.2l-1.5,-.3l-2.6,-.5Zm-.3,14.7l1.5,.3l1.4,.2c12.8,1.8,25.1,-5,30.4,-16.7l.4,-1.1l.2,-.4l.5,-1.4c1.6,-5.5,2.5,-11.7,3.7,-17.3l.1,-.4l.3,-1.4c1.2,-5.9,2.4,-11.8,3.6,-17.6l.3,-1.5l.1,-.8V121.5l-1,-1.5l-.4,-.5l-.8,-.9c-9.5,-11.4,-25.7,-10.4,-38.8,-14l-3,-.6c-14.6,-3,-29.3,-6,-44,-8.9l-5.8,-1.2C380,90,368.3,89.2,357,102.4l-1.1,1.5l-.9,1.5c-3.5,5.6,-3.9,11.2,-5.3,17.6l-.3,1.4l-.3,1.5c-1.4,6.9,-2.7,13.7,-4.1,20.5l-.3,1.5l-.3,1.5l-.2,.8v43.2l1,1.5l.5,.5l.7,.9c5,5.6,11,8.7,18.3,9.9l1.5,.3l.6,.1c7.7,1.5,15.3,3.1,22.9,4.6l1.4,.3l3,.6c17.1,3.5,34.2,6.9,51.3,10.4l1.1,.2l.4,.1Z" class="g4_347"/>
<path d="M402.9,228.7l1.5,.3l1.4,.3l3,.6l.7,.2H479l.2,-.1l1.4,-1.2l.4,-.2l1.1,-1l.6,-.5l.9,-.8c2.1,-2,4,-4.1,5.7,-6.5l.1,-.2V164.7l-.1,.8L489,167l-.3,1.4l-.3,1.5c-1.3,6.4,-2.6,12.7,-3.9,19.1l-.6,2.9c-1.4,6.3,-1.8,12,-5.3,17.6l-.9,1.5l-1.1,1.5c-11.3,13.1,-23,12.4,-38.5,8.5l-4.4,-.9l-1.5,-.3c-14.5,-2.9,-29.1,-5.9,-43.6,-8.8l-.4,-.1l-1.5,-.3l-1.4,-.3c-6.4,-1.3,-12.7,-2.6,-19.1,-3.8l-1.5,-.3l-1.4,-.3c-6.2,-1.2,-11.8,-4.2,-16.2,-8.8l-.7,-.8l-.7,-.9l-.5,-.5l-1,-1.5v20.1l.6,.4l.9,.6c8.2,5.1,15.7,5.7,24.9,7.7l1.5,.3l1.3,.2c9.3,1.9,18.7,3.8,28,5.7l1.5,.3Z" class="g5_347"/>
<path d="M344.4,149.4l.3,-1.5l.6,-2.9l.3,-1.5c1.2,-6.3,2.5,-12.7,3.8,-19.1l.3,-1.4l.3,-1.5c1.4,-6.8,1.9,-11.7,5.9,-17.6l1.1,-1.5l.4,-.5C369,88.7,381.4,90.3,397,94.2l4.4,.9h.3c14.6,3,29.1,5.9,43.7,8.9l3,.6c13.1,3.6,29.3,2.6,38.8,14l.8,.9l.4,.5l1,1.5V101.4l-.6,-.4l-.8,-.6C477.9,94,461.7,93.1,449.8,90l-1.4,-.3l-1.5,-.2l-1.1,-.3c-6,-1.2,-12,-2.4,-18,-3.6l-1.4,-.3L424.9,85l-.8,-.2H354.6l-.1,.1L353,86l-.3,.3l-1.2,.9l-.6,.6l-.8,.8c-1.6,1.5,-3.1,3.1,-4.4,4.8l-.2,.2l-1.1,1.5l-.2,.2v54.9l.2,-.8Z" class="g5_347"/>
<path d="M345.7,230.1h63.8l-.7,-.2l-1.5,-.3c-10.3,-2.1,-20.6,-4.2,-30.8,-6.2l-3,-.6c-9.9,-2.3,-19,-2.8,-27.8,-8.3l-.9,-.6l-.6,-.4v16.6h1.5Z" class="g6_347"/>
<path d="M479.2,230.1h10.2V219.6l-.1,.2c-2.8,3.9,-6.2,7.3,-10.1,10.2l-.2,.1h.2Z" class="g6_347"/>
<path d="M489.4,101.4V84.8H424.1l.8,.2l1.5,.3c10.2,2.1,20.5,4.2,30.8,6.2l2.9,.6c9.9,2.3,19,2.8,27.9,8.3l.8,.6l.6,.4Z" class="g6_347"/>
<path d="M344.4,95.1l1.1,-1.5c2.5,-3.3,5.6,-6.2,9,-8.7l.1,-.1H344.2V95.3l.2,-.2Z" class="g6_347"/>
<path d="M343.8,232h.8v-1.9h-.8Z" class="g8_347"/>
<path d="M336.4,236.5h3.4v-.4h-3.4Z" class="g8_347"/>
<path d="M341.1,237.6h.9v-3.1l-1,.2v-.5l1,-.2h.5v3.6h.9v.4h-2.3v-.4Z" class="g8_347"/>
<path d="M345.6,234c.5,0,.8,.2,1,.5c.3,.4,.4,.9,.4,1.5c0,.7,-.1,1.2,-.4,1.6c-.2,.3,-.5,.5,-1,.5c-.4,0,-.8,-.2,-1,-.5c-.2,-.4,-.3,-.9,-.3,-1.6c0,-.6,.1,-1.1,.3,-1.5c.2,-.3,.6,-.5,1,-.5Zm0,.4c-.3,0,-.5,.1,-.6,.4c-.1,.3,-.2,.7,-.2,1.2c0,.6,.1,1,.2,1.3c.1,.2,.3,.4,.6,.4c.3,0,.5,-.2,.7,-.4c.1,-.3,.2,-.7,.2,-1.3c0,-.5,-.1,-.9,-.2,-1.2c-.2,-.3,-.4,-.4,-.7,-.4Z" class="g8_347"/>
<path d="M347.9,238h.6v-.7h-.6Z" class="g8_347"/>
<path d="M350.8,234c.5,0,.8,.2,1.1,.5c.2,.4,.3,.9,.3,1.5c0,.7,-.1,1.2,-.3,1.6c-.3,.3,-.6,.5,-1.1,.5c-.4,0,-.8,-.2,-1,-.5c-.2,-.4,-.3,-.9,-.3,-1.6c0,-.6,.1,-1.1,.3,-1.5c.2,-.3,.6,-.5,1,-.5Zm0,.4c-.2,0,-.5,.1,-.6,.4c-.1,.3,-.2,.7,-.2,1.2c0,.6,.1,1,.2,1.3c.1,.2,.4,.4,.6,.4c.3,0,.5,-.2,.7,-.4c.1,-.3,.2,-.7,.2,-1.3c0,-.5,-.1,-.9,-.2,-1.2c-.2,-.3,-.4,-.4,-.7,-.4Z" class="g8_347"/>
<path d="M362,232h.7v-1.9H362Z" class="g8_347"/>
<path d="M356.3,236.5h3.4v-.4h-3.4Z" class="g8_347"/>
<path d="M360.8,234h2.5v.3l-1.4,3.7h-.6l1.4,-3.5h-1.9V234Z" class="g8_347"/>
<path d="M364.4,238h.5v-.7h-.5Z" class="g8_347"/>
<path d="M366.1,234h2.1v.5h-1.6v1l.2,-.1h.3c.4,0,.8,.1,1,.4c.3,.2,.4,.5,.4,.9c0,.5,-.1,.8,-.4,1c-.3,.3,-.6,.4,-1.1,.4c-.2,0,-.4,0,-.5,0c-.2,-.1,-.4,-.1,-.6,-.2v-.5c.2,.1,.4,.1,.5,.2c.2,0,.4,0,.6,0c.3,0,.5,0,.7,-.2c.2,-.2,.3,-.4,.3,-.7c0,-.2,-.1,-.4,-.3,-.6c-.2,-.2,-.4,-.3,-.7,-.3c-.2,0,-.3,.1,-.5,.1c-.1,0,-.2,.1,-.4,.1v-2Z" class="g8_347"/>
<path d="M380.1,232h.8v-1.9h-.8Z" class="g8_347"/>
<path d="M374.5,236.5h3.4v-.4h-3.4Z" class="g8_347"/>
<path d="M379,234h2.2v.5h-1.7v1l.3,-.1h.2c.5,0,.8,.1,1.1,.4c.2,.2,.4,.5,.4,.9c0,.5,-.2,.8,-.4,1c-.3,.3,-.7,.4,-1.2,.4c-.1,0,-.3,0,-.5,0c-.2,-.1,-.3,-.1,-.5,-.2v-.5c.1,.1,.3,.1,.5,.2c.1,0,.3,0,.5,0c.3,0,.6,0,.7,-.2c.2,-.2,.3,-.4,.3,-.7c0,-.2,-.1,-.4,-.3,-.6c-.1,-.2,-.4,-.3,-.7,-.3c-.1,0,-.3,.1,-.4,.1c-.2,0,-.3,.1,-.5,.1v-2Z" class="g8_347"/>
<path d="M382.5,238h.6v-.7h-.6Z" class="g8_347"/>
<path d="M385.4,234c.4,0,.8,.2,1,.5c.3,.4,.4,.9,.4,1.5c0,.7,-.1,1.2,-.4,1.6c-.2,.3,-.6,.5,-1,.5c-.4,0,-.8,-.2,-1,-.5c-.3,-.4,-.4,-.9,-.4,-1.6c0,-.6,.1,-1.1,.4,-1.5c.2,-.3,.6,-.5,1,-.5Zm0,.4c-.3,0,-.5,.1,-.6,.4c-.2,.3,-.2,.7,-.2,1.2c0,.6,0,1,.2,1.3c.1,.2,.3,.4,.6,.4c.3,0,.5,-.2,.6,-.4c.2,-.3,.2,-.7,.2,-1.3c0,-.5,0,-.9,-.2,-1.2c-.1,-.3,-.3,-.4,-.6,-.4Z" class="g8_347"/>
<path d="M398.3,232h.7v-1.9h-.7Z" class="g8_347"/>
<path d="M392.6,236.5H396v-.4h-3.4Z" class="g8_347"/>
<path d="M397.7,237.6h1.8v.4H397v-.4c.2,-.2,.5,-.5,.8,-.9c.4,-.3,.6,-.6,.7,-.7c.2,-.2,.3,-.3,.4,-.5l.1,-.4c0,-.2,-.1,-.3,-.2,-.5c-.2,-.1,-.4,-.2,-.6,-.2c-.2,0,-.4,.1,-.6,.1c-.1,.1,-.3,.2,-.6,.3v-.6c.3,0,.5,-.1,.6,-.2c.2,0,.4,0,.6,0c.4,0,.7,.1,1,.3c.2,.2,.3,.5,.3,.8c0,.2,0,.3,-.1,.5c0,.1,-.1,.3,-.3,.5c-.1,0,-.2,.2,-.4,.4c-.3,.3,-.6,.6,-1,1.1Z" class="g8_347"/>
<path d="M400.7,238h.5v-.7h-.5Z" class="g8_347"/>
<path d="M402.4,234h2.1v.5h-1.6v1l.2,-.1h.3c.4,0,.8,.1,1,.4c.3,.2,.4,.5,.4,.9c0,.5,-.1,.8,-.4,1c-.3,.3,-.6,.4,-1.1,.4c-.2,0,-.3,0,-.5,0c-.2,-.1,-.4,-.1,-.6,-.2v-.5c.2,.1,.4,.1,.5,.2c.2,0,.4,0,.6,0c.3,0,.5,0,.7,-.2c.2,-.2,.3,-.4,.3,-.7c0,-.2,-.1,-.4,-.3,-.6c-.2,-.2,-.4,-.3,-.7,-.3c-.2,0,-.3,.1,-.5,.1c-.1,0,-.2,.1,-.4,.1v-2Z" class="g8_347"/>
<path d="M416.4,232h.8v-1.9h-.8Z" class="g8_347"/>
<path d="M414.2,234c.5,0,.8,.2,1,.5c.3,.4,.4,.9,.4,1.5c0,.7,-.1,1.2,-.4,1.6c-.2,.3,-.5,.5,-1,.5c-.4,0,-.8,-.2,-1,-.5c-.2,-.4,-.4,-.9,-.4,-1.6c0,-.6,.2,-1.1,.4,-1.5c.2,-.3,.6,-.5,1,-.5Zm0,.4c-.3,0,-.5,.1,-.6,.4c-.1,.3,-.2,.7,-.2,1.2c0,.6,.1,1,.2,1.3c.1,.2,.3,.4,.6,.4c.3,0,.5,-.2,.6,-.4c.2,-.3,.3,-.7,.3,-1.3c0,-.5,-.1,-.9,-.3,-1.2c-.1,-.3,-.3,-.4,-.6,-.4Z" class="g8_347"/>
<path d="M416.5,238h.6v-.7h-.6Z" class="g8_347"/>
<path d="M419.4,234c.5,0,.8,.2,1,.5c.3,.4,.4,.9,.4,1.5c0,.7,-.1,1.2,-.4,1.6c-.2,.3,-.5,.5,-1,.5c-.4,0,-.8,-.2,-1,-.5c-.2,-.4,-.4,-.9,-.4,-1.6c0,-.6,.2,-1.1,.4,-1.5c.2,-.3,.6,-.5,1,-.5Zm0,.4c-.3,0,-.5,.1,-.6,.4c-.1,.3,-.2,.7,-.2,1.2c0,.6,.1,1,.2,1.3c.1,.2,.3,.4,.6,.4c.3,0,.5,-.2,.6,-.4c.2,-.3,.3,-.7,.3,-1.3c0,-.5,-.1,-.9,-.3,-1.2c-.1,-.3,-.3,-.4,-.6,-.4Z" class="g8_347"/>
<path d="M434.6,232h.8v-1.9h-.8Z" class="g8_347"/>
<path d="M431.7,237.6h1.9v.4H431v-.4c.2,-.2,.5,-.5,.9,-.9c.3,-.3,.5,-.6,.6,-.7c.2,-.2,.3,-.3,.4,-.5l.1,-.4c0,-.2,-.1,-.3,-.2,-.5c-.2,-.1,-.4,-.2,-.6,-.2c-.2,0,-.4,.1,-.5,.1c-.2,.1,-.4,.2,-.6,.3v-.6c.2,0,.4,-.1,.6,-.2c.2,0,.3,0,.5,0c.4,0,.7,.1,1,.3c.2,.2,.3,.5,.3,.8c0,.2,0,.3,-.1,.5c0,.1,-.1,.3,-.3,.5c0,0,-.2,.2,-.4,.4c-.3,.3,-.6,.6,-1,1.1Z" class="g8_347"/>
<path d="M434.7,238h.6v-.7h-.6Z" class="g8_347"/>
<path d="M436.4,234h2.1v.5h-1.6v1l.3,-.1h.2c.4,0,.8,.1,1,.4c.3,.2,.4,.5,.4,.9c0,.5,-.1,.8,-.4,1c-.2,.3,-.6,.4,-1.1,.4c-.2,0,-.3,0,-.5,0c-.2,-.1,-.4,-.1,-.5,-.2v-.5c.1,.1,.3,.1,.5,.2c.1,0,.3,0,.5,0c.3,0,.5,0,.7,-.2c.2,-.2,.3,-.4,.3,-.7c0,-.2,-.1,-.4,-.3,-.6c-.2,-.2,-.4,-.3,-.7,-.3c-.1,0,-.3,.1,-.4,.1c-.2,0,-.3,.1,-.5,.1v-2Z" class="g8_347"/>
<path d="M452.7,232h.8v-1.9h-.8Z" class="g8_347"/>
<path d="M449.4,234h2.1v.5h-1.6v1l.2,-.1h.2c.5,0,.8,.1,1.1,.4c.3,.2,.4,.5,.4,.9c0,.5,-.2,.8,-.4,1c-.3,.3,-.7,.4,-1.1,.4c-.2,0,-.4,0,-.6,0c-.1,-.1,-.3,-.1,-.5,-.2v-.5c.2,.1,.3,.1,.5,.2c.2,0,.4,0,.5,0c.4,0,.6,0,.8,-.2c.2,-.2,.2,-.4,.2,-.7c0,-.2,0,-.4,-.2,-.6c-.2,-.2,-.4,-.3,-.8,-.3c-.1,0,-.2,.1,-.4,.1c-.1,0,-.3,.1,-.4,.1v-2Z" class="g8_347"/>
<path d="M452.8,238h.6v-.7h-.6Z" class="g8_347"/>
<path d="M455.7,234c.5,0,.8,.2,1.1,.5c.2,.4,.3,.9,.3,1.5c0,.7,-.1,1.2,-.3,1.6c-.3,.3,-.6,.5,-1.1,.5c-.4,0,-.8,-.2,-1,-.5c-.2,-.4,-.3,-.9,-.3,-1.6c0,-.6,.1,-1.1,.3,-1.5c.2,-.3,.6,-.5,1,-.5Zm0,.4c-.2,0,-.5,.1,-.6,.4c-.1,.3,-.2,.7,-.2,1.2c0,.6,.1,1,.2,1.3c.1,.2,.4,.4,.6,.4c.3,0,.5,-.2,.7,-.4c.1,-.3,.2,-.7,.2,-1.3c0,-.5,-.1,-.9,-.2,-1.2c-.2,-.3,-.4,-.4,-.7,-.4Z" class="g8_347"/>
<path d="M470.9,232h.8v-1.9h-.8Z" class="g8_347"/>
<path d="M467.4,234h2.5v.3l-1.4,3.7h-.6l1.4,-3.5h-1.9V234Z" class="g8_347"/>
<path d="M471,238h.6v-.7H471Z" class="g8_347"/>
<path d="M472.7,234h2.1v.5h-1.6v1l.3,-.1h.2c.4,0,.8,.1,1.1,.4c.2,.2,.3,.5,.3,.9c0,.5,-.1,.8,-.4,1c-.2,.3,-.6,.4,-1.1,.4c-.2,0,-.3,0,-.5,0c-.2,-.1,-.3,-.1,-.5,-.2v-.5c.1,.1,.3,.1,.5,.2c.1,0,.3,0,.5,0c.3,0,.6,0,.7,-.2c.2,-.2,.3,-.4,.3,-.7c0,-.2,-.1,-.4,-.3,-.6c-.1,-.2,-.4,-.3,-.7,-.3c-.1,0,-.3,.1,-.4,.1c-.2,0,-.3,.1,-.5,.1v-2Z" class="g8_347"/>
<path d="M489.1,232h.7v-1.9h-.7Z" class="g8_347"/>
<path d="M484,237.6h.9v-3.1l-.9,.2v-.5l.9,-.2h.5v3.6h.9v.4H484v-.4Z" class="g8_347"/>
<path d="M488.6,234c.4,0,.8,.2,1,.5c.2,.4,.3,.9,.3,1.5c0,.7,-.1,1.2,-.3,1.6c-.2,.3,-.6,.5,-1,.5c-.5,0,-.8,-.2,-1.1,-.5c-.2,-.4,-.3,-.9,-.3,-1.6c0,-.6,.1,-1.1,.3,-1.5c.3,-.3,.6,-.5,1.1,-.5Zm0,.4c-.3,0,-.5,.1,-.7,.4c-.1,.3,-.2,.7,-.2,1.2c0,.6,.1,1,.2,1.3c.2,.2,.4,.4,.7,.4c.2,0,.5,-.2,.6,-.4c.1,-.3,.2,-.7,.2,-1.3c0,-.5,-.1,-.9,-.2,-1.2c-.1,-.3,-.4,-.4,-.6,-.4Z" class="g8_347"/>
<path d="M490.9,238h.5v-.7h-.5Z" class="g8_347"/>
<path d="M493.8,234c.4,0,.8,.2,1,.5c.2,.4,.3,.9,.3,1.5c0,.7,-.1,1.2,-.3,1.6c-.2,.3,-.6,.5,-1,.5c-.5,0,-.8,-.2,-1.1,-.5c-.2,-.4,-.3,-.9,-.3,-1.6c0,-.6,.1,-1.1,.3,-1.5c.3,-.3,.6,-.5,1.1,-.5Zm0,.4c-.3,0,-.5,.1,-.7,.4c-.1,.3,-.2,.7,-.2,1.2c0,.6,.1,1,.2,1.3c.2,.2,.4,.4,.7,.4c.2,0,.5,-.2,.6,-.4c.1,-.3,.2,-.7,.2,-1.3c0,-.5,-.1,-.9,-.2,-1.2c-.1,-.3,-.4,-.4,-.6,-.4Z" class="g8_347"/>
<path d="M342.3,230.4h1.9v-.7h-1.9Z" class="g8_347"/>
<path d="M324.2,230.6h3.5v-.4h-3.5Z" class="g8_347"/>
<path d="M328.9,231.7h.9v-3.1l-1,.2v-.5l1,-.1h.5v3.5h.9v.4h-2.3v-.4Z" class="g8_347"/>
<path d="M333.4,228.1c.5,0,.8,.2,1.1,.5c.2,.4,.3,.9,.3,1.5c0,.7,-.1,1.2,-.3,1.6c-.3,.3,-.6,.5,-1.1,.5c-.4,0,-.7,-.2,-1,-.5c-.2,-.4,-.3,-.9,-.3,-1.6c0,-.6,.1,-1.1,.3,-1.5c.3,-.3,.6,-.5,1,-.5Zm0,.4c-.2,0,-.4,.1,-.6,.4c-.1,.3,-.2,.7,-.2,1.2c0,.6,.1,1,.2,1.3c.2,.2,.4,.4,.6,.4c.3,0,.5,-.2,.7,-.4c.1,-.3,.2,-.7,.2,-1.3c0,-.5,-.1,-.9,-.2,-1.2c-.2,-.3,-.4,-.4,-.7,-.4Z" class="g8_347"/>
<path d="M335.8,232.1h.5v-.6h-.5Z" class="g8_347"/>
<path d="M338.7,228.1c.4,0,.7,.2,1,.5c.2,.4,.3,.9,.3,1.5c0,.7,-.1,1.2,-.3,1.6c-.3,.3,-.6,.5,-1,.5c-.5,0,-.8,-.2,-1.1,-.5c-.2,-.4,-.3,-.9,-.3,-1.6c0,-.6,.1,-1.1,.3,-1.5c.3,-.3,.6,-.5,1.1,-.5Zm0,.4c-.3,0,-.5,.1,-.7,.4c-.1,.3,-.2,.7,-.2,1.2c0,.6,.1,1,.2,1.3c.2,.2,.4,.4,.7,.4c.2,0,.4,-.2,.6,-.4c.1,-.3,.2,-.7,.2,-1.3c0,-.5,-.1,-.9,-.2,-1.2c-.2,-.3,-.4,-.4,-.6,-.4Z" class="g8_347"/>
<path d="M342.3,212.3h1.9v-.8h-1.9Z" class="g8_347"/>
<path d="M327.7,212.5h3.4V212h-3.4Z" class="g8_347"/>
<path d="M332.2,210h2.5v.2l-1.4,3.8h-.6l1.4,-3.5h-1.9V210Z" class="g8_347"/>
<path d="M335.8,214h.5v-.7h-.5Z" class="g8_347"/>
<path d="M337.5,210h2.1v.5H338v.9h.2l.3,-.1c.4,0,.8,.2,1,.4c.3,.3,.4,.6,.4,1c0,.4,-.1,.8,-.4,1c-.3,.2,-.6,.4,-1.1,.4c-.2,0,-.4,-.1,-.5,-.1c-.2,0,-.4,-.1,-.6,-.1v-.6c.2,.1,.4,.2,.5,.2c.2,.1,.4,.1,.6,.1c.3,0,.5,-.1,.7,-.2c.2,-.2,.3,-.4,.3,-.7c0,-.3,-.1,-.5,-.3,-.7c-.2,-.1,-.4,-.2,-.7,-.2c-.2,0,-.3,0,-.5,0c-.1,.1,-.2,.1,-.4,.2v-2Z" class="g8_347"/>
<path d="M342.3,194.1h1.9v-.7h-1.9Z" class="g8_347"/>
<path d="M327.7,194.3h3.4v-.4h-3.4Z" class="g8_347"/>
<path d="M332.3,191.8h2.1v.5h-1.6v1l.2,-.1h.3c.4,0,.8,.1,1,.4c.3,.2,.4,.5,.4,.9c0,.5,-.1,.8,-.4,1c-.3,.3,-.6,.4,-1.1,.4c-.2,0,-.4,0,-.5,0c-.2,-.1,-.4,-.1,-.6,-.2v-.5c.2,.1,.4,.1,.5,.2c.2,0,.4,0,.6,0c.3,0,.5,0,.7,-.2c.2,-.2,.3,-.4,.3,-.7c0,-.2,-.1,-.4,-.3,-.6c-.2,-.2,-.4,-.3,-.7,-.3c-.2,0,-.3,.1,-.5,.1c-.1,0,-.3,.1,-.4,.1v-2Z" class="g8_347"/>
<path d="M335.8,195.8h.5v-.7h-.5Z" class="g8_347"/>
<path d="M338.7,191.8c.4,0,.7,.2,1,.5c.2,.4,.3,.9,.3,1.5c0,.7,-.1,1.2,-.3,1.6c-.3,.3,-.6,.5,-1,.5c-.5,0,-.8,-.2,-1.1,-.5c-.2,-.4,-.3,-.9,-.3,-1.6c0,-.6,.1,-1.1,.3,-1.5c.3,-.3,.6,-.5,1.1,-.5Zm0,.4c-.3,0,-.5,.1,-.7,.4c-.1,.3,-.2,.7,-.2,1.2c0,.6,.1,1,.2,1.3c.2,.2,.4,.4,.7,.4c.2,0,.4,-.2,.6,-.4c.1,-.3,.2,-.7,.2,-1.3c0,-.5,-.1,-.9,-.2,-1.2c-.2,-.3,-.4,-.4,-.6,-.4Z" class="g8_347"/>
<path d="M342.3,176h1.9v-.8h-1.9Z" class="g8_347"/>
<path d="M327.7,176.2h3.4v-.5h-3.4Z" class="g8_347"/>
<path d="M332.8,177.2h1.8v.5h-2.5v-.5c.2,-.2,.5,-.5,.8,-.8c.4,-.4,.6,-.6,.7,-.7c.2,-.2,.3,-.4,.4,-.5l.1,-.4c0,-.2,-.1,-.4,-.2,-.5c-.2,-.2,-.4,-.2,-.6,-.2c-.2,0,-.4,0,-.6,.1c-.2,0,-.4,.1,-.6,.2v-.5c.3,-.1,.5,-.2,.6,-.2c.2,-.1,.4,-.1,.6,-.1c.4,0,.7,.1,.9,.3c.3,.2,.4,.5,.4,.9c0,.1,0,.3,-.1,.4c0,.2,-.2,.3,-.3,.5c-.1,.1,-.2,.2,-.4,.5c-.3,.2,-.6,.6,-1,1Z" class="g8_347"/>
<path d="M335.8,177.7h.5V177h-.5Z" class="g8_347"/>
<path d="M337.5,173.7h2.1v.4H338v1h.2l.3,-.1c.4,0,.8,.2,1,.4c.3,.2,.4,.6,.4,1c0,.4,-.1,.8,-.4,1c-.3,.2,-.6,.3,-1.1,.3c-.2,0,-.4,0,-.5,0c-.2,0,-.4,-.1,-.6,-.1V177c.2,.1,.4,.2,.5,.2c.2,.1,.4,.1,.6,.1c.3,0,.5,-.1,.7,-.2c.2,-.2,.3,-.4,.3,-.7c0,-.3,-.1,-.5,-.3,-.7c-.2,-.1,-.4,-.2,-.7,-.2c-.2,0,-.3,0,-.5,0c-.1,.1,-.2,.1,-.4,.2v-2Z" class="g8_347"/>
<path d="M342.3,157.8h1.9v-.7h-1.9Z" class="g8_347"/>
<path d="M333.4,155.5c.5,0,.8,.1,1.1,.5c.2,.3,.3,.9,.3,1.5c0,.7,-.1,1.2,-.3,1.6c-.3,.3,-.6,.5,-1.1,.5c-.4,0,-.7,-.2,-1,-.5c-.2,-.4,-.3,-.9,-.3,-1.6c0,-.6,.1,-1.2,.3,-1.5c.3,-.4,.6,-.5,1,-.5Zm0,.4c-.2,0,-.4,.1,-.6,.4c-.1,.3,-.2,.7,-.2,1.2c0,.6,.1,1,.2,1.3c.2,.2,.4,.4,.6,.4c.3,0,.5,-.2,.7,-.4c.1,-.3,.2,-.7,.2,-1.3c0,-.5,-.1,-.9,-.2,-1.2c-.2,-.3,-.4,-.4,-.7,-.4Z" class="g8_347"/>
<path d="M335.8,159.5h.5v-.7h-.5Z" class="g8_347"/>
<path d="M338.7,155.5c.4,0,.7,.1,1,.5c.2,.3,.3,.9,.3,1.5c0,.7,-.1,1.2,-.3,1.6c-.3,.3,-.6,.5,-1,.5c-.5,0,-.8,-.2,-1.1,-.5c-.2,-.4,-.3,-.9,-.3,-1.6c0,-.6,.1,-1.2,.3,-1.5c.3,-.4,.6,-.5,1.1,-.5Zm0,.4c-.3,0,-.5,.1,-.7,.4c-.1,.3,-.2,.7,-.2,1.2c0,.6,.1,1,.2,1.3c.2,.2,.4,.4,.7,.4c.2,0,.4,-.2,.6,-.4c.1,-.3,.2,-.7,.2,-1.3c0,-.5,-.1,-.9,-.2,-1.2c-.2,-.3,-.4,-.4,-.6,-.4Z" class="g8_347"/>
<path d="M342.3,139.7h1.9v-.8h-1.9Z" class="g8_347"/>
<path d="M332.8,140.9h1.8v.5h-2.5v-.5c.2,-.2,.5,-.5,.8,-.8c.4,-.4,.6,-.6,.7,-.7c.2,-.2,.3,-.4,.4,-.5l.1,-.4c0,-.2,-.1,-.4,-.2,-.5c-.2,-.2,-.4,-.2,-.6,-.2c-.2,0,-.4,0,-.6,.1c-.2,0,-.4,.1,-.6,.2v-.5c.3,-.1,.5,-.2,.6,-.2c.2,-.1,.4,-.1,.6,-.1c.4,0,.7,.1,.9,.3c.3,.2,.4,.5,.4,.9c0,.1,0,.3,-.1,.4c0,.2,-.2,.3,-.3,.5c-.1,.1,-.2,.2,-.4,.5c-.3,.2,-.6,.6,-1,1Z" class="g8_347"/>
<path d="M335.8,141.4h.5v-.7h-.5Z" class="g8_347"/>
<path d="M337.5,137.4h2.1v.4H338v1h.2l.3,-.1c.4,0,.8,.2,1,.4c.3,.2,.4,.6,.4,1c0,.4,-.1,.7,-.4,1c-.3,.2,-.6,.3,-1.1,.3c-.2,0,-.4,0,-.5,0c-.2,0,-.4,-.1,-.6,-.1v-.6c.2,.1,.4,.2,.5,.2c.2,.1,.4,.1,.6,.1c.3,0,.5,-.1,.7,-.3c.2,-.1,.3,-.3,.3,-.6c0,-.3,-.1,-.5,-.3,-.7c-.2,-.1,-.4,-.2,-.7,-.2c-.2,0,-.3,0,-.5,0c-.1,.1,-.2,.1,-.4,.2v-2Z" class="g8_347"/>
<path d="M342.3,121.5h1.9v-.7h-1.9Z" class="g8_347"/>
<path d="M332.3,119.2h2.1v.5h-1.6v1l.2,-.1h.3c.4,0,.8,.1,1,.3c.3,.3,.4,.6,.4,1c0,.5,-.1,.8,-.4,1c-.3,.3,-.6,.4,-1.1,.4c-.2,0,-.4,0,-.5,-.1c-.2,0,-.4,0,-.6,-.1v-.5c.2,.1,.4,.1,.5,.2c.2,0,.4,0,.6,0c.3,0,.5,0,.7,-.2c.2,-.2,.3,-.4,.3,-.7c0,-.2,-.1,-.5,-.3,-.6c-.2,-.2,-.4,-.3,-.7,-.3c-.2,0,-.3,.1,-.5,.1c-.1,0,-.3,.1,-.4,.1v-2Z" class="g8_347"/>
<path d="M335.8,123.2h.5v-.7h-.5Z" class="g8_347"/>
<path d="M338.7,119.2c.4,0,.7,.1,1,.5c.2,.3,.3,.9,.3,1.5c0,.7,-.1,1.2,-.3,1.6c-.3,.3,-.6,.5,-1,.5c-.5,0,-.8,-.2,-1.1,-.5c-.2,-.4,-.3,-.9,-.3,-1.6c0,-.6,.1,-1.2,.3,-1.5c.3,-.4,.6,-.5,1.1,-.5Zm0,.4c-.3,0,-.5,.1,-.7,.4c-.1,.3,-.2,.7,-.2,1.2c0,.6,.1,1,.2,1.3c.2,.2,.4,.4,.7,.4c.2,0,.4,-.2,.6,-.4c.1,-.3,.2,-.7,.2,-1.3c0,-.5,-.1,-.9,-.2,-1.2c-.2,-.3,-.4,-.4,-.6,-.4Z" class="g8_347"/>
<path d="M342.3,103.4h1.9v-.8h-1.9Z" class="g8_347"/>
<path d="M332.2,101.1h2.5v.2l-1.4,3.8h-.6l1.4,-3.6h-1.9v-.4Z" class="g8_347"/>
<path d="M335.8,105.1h.5v-.7h-.5Z" class="g8_347"/>
<path d="M337.5,101.1h2.1v.4H338v1l.2,-.1h.3c.4,0,.8,.2,1,.4c.3,.2,.4,.6,.4,1c0,.4,-.1,.7,-.4,1c-.3,.2,-.6,.3,-1.1,.3c-.2,0,-.4,0,-.5,0c-.2,0,-.4,-.1,-.6,-.1v-.6c.2,.1,.4,.2,.5,.2c.2,.1,.4,.1,.6,.1c.3,0,.5,-.1,.7,-.3c.2,-.1,.3,-.3,.3,-.6c0,-.3,-.1,-.5,-.3,-.7c-.2,-.1,-.4,-.2,-.7,-.2c-.2,0,-.3,0,-.5,0c-.1,.1,-.2,.1,-.4,.2v-2Z" class="g8_347"/>
<path d="M342.3,85.2h1.9v-.7h-1.9Z" class="g8_347"/>
<path d="M328.9,86.5h.9V83.4l-1,.2v-.5l1,-.2h.5v3.6h.9v.4h-2.3v-.4Z" class="g8_347"/>
<path d="M333.7,82.9c.3,0,.6,.2,.8,.5c.2,.3,.3,.8,.3,1.5c0,.7,-.1,1.2,-.3,1.6c-.3,.3,-.6,.5,-1.1,.5c-.4,0,-.7,-.2,-1,-.5c-.2,-.4,-.3,-.9,-.3,-1.6c0,-.7,.1,-1.2,.3,-1.5c.2,-.3,.5,-.5,.8,-.5h.5Zm-.3,.4c-.2,0,-.4,.1,-.6,.4c-.1,.3,-.2,.7,-.2,1.2c0,.6,.1,1,.2,1.2c.2,.3,.4,.5,.6,.5c.3,0,.5,-.2,.7,-.5c.1,-.2,.2,-.6,.2,-1.2c0,-.5,-.1,-.9,-.2,-1.2c-.2,-.3,-.4,-.4,-.7,-.4Z" class="g8_347"/>
<path d="M335.8,86.9h.5v-.7h-.5Z" class="g8_347"/>
<path d="M338.9,82.9c.3,0,.6,.2,.8,.5c.2,.3,.3,.8,.3,1.5c0,.7,-.1,1.2,-.3,1.6c-.3,.3,-.6,.5,-1,.5c-.5,0,-.8,-.2,-1.1,-.5c-.2,-.4,-.3,-.9,-.3,-1.6c0,-.7,.1,-1.2,.3,-1.5c.2,-.3,.5,-.5,.8,-.5h.5Zm-.2,.4c-.3,0,-.5,.1,-.7,.4c-.1,.3,-.2,.7,-.2,1.2c0,.6,.1,1,.2,1.2c.2,.3,.4,.5,.7,.5c.2,0,.4,-.2,.6,-.5c.1,-.2,.2,-.6,.2,-1.2c0,-.5,-.1,-.9,-.2,-1.2c-.2,-.3,-.4,-.4,-.6,-.4Z" class="g8_347"/>
<path d="M435.2,176v-.4l-.9,-.2c-15.8,-3.2,-31.6,-6.4,-47.4,-9.6l-.8,-.5l.1,-1.2l.3,-1.4l.3,-1.5l.3,-1.5l.3,-1.4l.3,-1.5l.3,-1.5l.3,-1.4l.3,-1.5l.3,-1.5c.8,-3.9,1.6,-7.8,2.4,-11.7l.2,-1l1.1,-.1c18,3.7,36.1,7.3,54.1,11l.8,.5l-.1,1.2l-.3,1.4l-.3,1.5l-.3,1.5l-.3,1.4l-.3,1.5l-.3,1.5l-.3,1.4l-.2,1.5H445l-.3,1.5l-.3,1.4l-.2,1.5l-.3,1.5l-.3,1.3v.1l-.3,1.5l-.3,1.5l-.3,1.4l-.3,1.5l-.2,1l-1.2,.1l-5.8,-1.2v.4l-.1,.3l2.9,.6l2.9,.6h.2l1.4,-.1c.2,0,.3,-.2,.4,-.3l.2,-1.2c.4,-2,.8,-4.1,1.2,-6.1l.3,-1.3l.3,-1.4l.3,-1.5l.3,-1.5l.3,-1.4v-.1l.3,-1.4l.3,-1.5l.3,-1.4l.3,-1.5l.3,-1.4v-.1l.3,-1.4l.3,-1.5l.3,-1.5l.1,-1.5c0,-.1,0,-.3,-.2,-.3l-1,-.7H447c-8.6,-1.8,-17.2,-3.5,-25.8,-5.3l-.6,-.1l-1.5,-.3c-8.8,-1.8,-17.6,-3.6,-26.4,-5.4h-.1l-1.5,.2c-.2,0,-.3,.1,-.3,.3l-.3,1.2l-.3,1.5l-.3,1.5l-.3,1.4l-.3,1.5v.1l-.3,1.4l-.3,1.4l-.3,1.5l-.2,1.5l-.3,1.4l-.1,.1l-.2,1.4l-.3,1.5l-.3,1.4l-.3,1.5l-.3,1.4v.1l-.3,1.4l-.3,1.5l-.3,1.5l-.2,1.5c0,.1,.1,.3,.2,.3l1,.7h.2c7.3,1.5,14.6,3,22,4.5l1.4,.3l1.5,.3c7.3,1.5,14.7,3,22,4.5l.5,.1l1,.1l.1,-.3Z" class="g9_347"/>
<path d="M448.4,193.5l.2,-1.1l-.5,-.1l-6.9,-1.4l-.3,-.1c-2.3,-.4,-4.7,-.9,-7,-1.4h-.2l-1.3,-.3c-4.4,-.9,-8.8,-1.8,-13.2,-2.7L412,185h-.1c-4.4,-.9,-8.8,-1.8,-13.2,-2.7l-1.2,-.3h-.3c-4.7,-1,-9.4,-1.9,-14.2,-2.9l-.4,-.1l-1.5,-.3l-2.9,-.6l-1.5,-.3l-1.5,-.3l-2.9,-.6l-1.5,-.3l-1.3,-.2l-.1,-.1l-.5,.9l1,-.1l-.1,-1.3l.2,-1.3l.2,-.9l.1,-.5l.3,-1.5l.3,-1.5l.3,-1.4l.3,-1.5l.2,-.9l.1,-.6l.3,-1.4l.3,-1.5l.3,-1.5l.3,-1.4l.2,-.8l.1,-.7l.3,-1.5l.3,-1.4l.3,-1.5l.3,-1.5l.1,-.7l.2,-.7l.3,-1.5l.3,-1.5l.3,-1.4l.3,-1.5l.1,-.6l.2,-.9l.3,-1.4l.3,-1.5l.3,-1.5l.3,-1.4l.1,-.5l.2,-1l.3,-1.5l.3,-1.4l.2,-1.5l.3,-1.5l.1,-.4l.2,-1l.3,-1.5l.3,-1.5l.3,-1.4l.3,-1.5l.1,-.3l.2,-.8l.5,-.4l.9,.2l3.4,.7l1,.2l3,.6l1.4,.3c3,.6,5.9,1.2,8.8,1.8h.3l1.2,.3c4.4,.9,8.8,1.7,13.2,2.6l.1,.1l1.4,.2l1.4,.3l4.4,.9c4.4,.9,8.8,1.8,13.2,2.7l1.3,.3h.2l1.5,.3l1.4,.3l1.5,.3l1.5,.3l1.1,.2l.3,.1l1.5,.3l2.9,.6l1.5,.3l1,.2l.5,.1l1.4,.3l1.5,.3l2.9,.6l1,.2l.5,.1l5.7,1.1l.1,.1l.6,-1l-1.1,.2l.2,1.3l-.3,1.3l-.2,.9l-.1,.5l-.3,1.5l-.3,1.5l-.3,1.4l-.3,1.5l-.2,.9l-.1,.6l-.3,1.4l-.3,1.5l-.3,1.5l-.3,1.4l-.1,.8l-.2,.7L460,158l-.3,1.4l-.2,1.5l-.3,1.5l-.2,.6l-.1,.8l-.3,1.5l-.3,1.5l-.3,1.4l-.3,1.5l-.2,.6l-.1,.9l-.3,1.4l-.3,1.5l-.3,1.5l-.3,1.4l-.1,.5l-.2,1l-.3,1.5l-.3,1.4l-.3,1.5l-.3,1.5l-.1,.4l-.2,1l-.3,1.5l-.3,1.5l-.3,1.4l-.3,1.5v.3l-.2,.8l-.5,.4l-1,-.2l-1.5,-.3l-1.4,-.3l-.2,1.1l-.3,1.1l1.5,.2l1.5,.3l1.4,.3c.4,.1,.7,0,1,-.2l1.1,-1c.2,-.1,.4,-.3,.4,-.6l.3,-1.1v-.1l.1,-.3l.3,-1.4l.3,-1.5l.3,-1.5l.3,-1.4l.2,-1.1v-.4l.3,-1.5l.3,-1.4l.3,-1.5l.3,-1.5l.2,-.9l.1,-.5l.3,-1.5l.3,-1.5l.3,-1.4l.3,-1.5l.2,-.9l.1,-.6l.3,-1.4l.3,-1.5l.3,-1.5l.3,-1.4l.2,-.8l.1,-.7l.3,-1.5l.3,-1.4l.3,-1.5l.3,-1.5l.1,-.7l.2,-.7l.3,-1.5l.3,-1.5l.3,-1.4l.3,-1.5l.1,-.6l.2,-.9l.3,-1.4l.3,-1.5l.3,-1.5l.3,-1.4l.1,-.5l.2,-1l.3,-1.5V139l-.2,-1.5c-.1,-.3,-.3,-.6,-.6,-.8l-.3,-.2c-4.4,-1,-9,-1.8,-13.5,-2.8l-.4,-.1l-2.5,-.5l-1.5,-.3l-1.5,-.3l-1.4,-.3h-.4c-1.8,-.4,-3.6,-.8,-5.5,-1.2l-1.5,-.3h-.2l-1.2,-.3l-1.5,-.2l-4.4,-.9l-.1,-.1c-1.9,-.4,-3.9,-.7,-5.8,-1.1l-1.4,-.3h-.1c-2.4,-.5,-4.8,-1,-7.2,-1.5h-.1l-1.4,-.3c-4.3,-.9,-8.7,-1.8,-13,-2.6l-.2,-.1l-1.5,-.3c-5.4,-1.1,-10.8,-2.2,-16.1,-3.3l-1.5,-.3c-.3,0,-.7,.1,-.9,.3l-1.2,1c-.2,.1,-.3,.3,-.4,.5l-.3,1.2v.4l-.3,1.4l-.3,1.5l-.3,1.5l-.3,1.4l-.2,1.1l-.1,.4l-.3,1.5l-.3,1.4l-.3,1.5l-.3,1.5l-.2,.9l-.1,.5l-.3,1.5l-.3,1.5l-.3,1.4l-.3,1.5l-.2,.9l-.1,.6l-.3,1.4l-.3,1.5l-.3,1.5l-.3,1.4l-.1,.8l-.2,.7l-.3,1.5l-.3,1.4l-.3,1.5l-.3,1.5l-.1,.6l-.2,.8l-.3,1.5l-.3,1.5l-.2,1.4l-.3,1.5l-.2,.6l-.1,.9l-.6,2.9l-.3,1.5l-.3,1.4l-.1,.5l-.2,1l-.3,1.5v.3l.2,1.5c0,.3,.2,.6,.5,.8l.3,.2c4.4,1,9.1,1.8,13.5,2.8l.5,.1l1,.2c3.9,.8,7.8,1.6,11.7,2.3l1.5,.3l.2,.1c4.4,.9,8.7,1.7,13,2.6l1.5,.3c2.4,.5,4.8,1,7.3,1.5l5.9,1.2l1.3,.3h.1l3,.6l1.4,.3l1.5,.3l1.2,.2l.3,.1l1.4,.3c3.9,.8,7.9,1.6,11.8,2.4l1,.2l.4,.1l.3,-1.1Z" class="ga_347"/>
<path d="M448.4,208.3v-.4l-1.1,-.2l-.3,-.1c-17.1,-3.4,-34.3,-6.9,-51.4,-10.4l-1.4,-.3l-1.5,-.3l-1.5,-.3c-7.8,-1.6,-15.6,-3.1,-23.4,-4.7l-.1,-.1l-1.4,-.2c-8.1,-1.3,-13.4,-8.9,-11.8,-16.9l.3,-1.5v-.2l.3,-1.2l.3,-1.5l.3,-1.5l.3,-1.4l.3,-1.5v-.2l.3,-1.3l.3,-1.4l.3,-1.5l.3,-1.5l.3,-1.4v-.1l.3,-1.4l.3,-1.5l.3,-1.4l.3,-1.5l.2,-1.4l.1,-.1l.3,-1.4l.6,-3l.2,-1.4l.3,-1.4v-.1l.3,-1.5l.3,-1.4l.6,-3l.3,-1.2v-.2l.3,-1.5l.3,-1.5l.3,-1.5l.3,-1.4l.3,-1.1v-.4l.3,-1.5l.3,-1.4l.3,-1.5l.3,-1.5l.2,-1l.1,-.4l.3,-1.5l.3,-1.5l.3,-1.4c1.6,-7.3,8.8,-12.1,16.2,-10.8l1.4,.3l2.7,.5c12.3,2.5,24.6,5,36.9,7.5l1.5,.3l1.5,.3c13.2,2.7,26.4,5.3,39.6,8h.1l1.4,.3c5.3,.9,9.7,4.6,11.4,9.8v.1l.3,1.3l.3,1.4v2.9l-.3,1.4l-.3,1.5v.2l-.3,1.2c-.6,3,-1.1,5.9,-1.7,8.8l-.3,1.5l-.3,1.5l-.3,1.4v.1l-.3,1.4l-.3,1.5L475,161l-.3,1.5l-.3,1.4v.1l-.3,1.4l-.3,1.5l-.3,1.5l-.3,1.4l-.3,1.4v.1l-.3,1.5l-.3,1.4l-.3,1.5l-.3,1.5l-.2,1.2l-.1,.2l-.3,1.5l-.3,1.5l-.6,2.9l-.2,1.1l-.1,.4l-.3,1.4l-.3,1.5l-.6,2.9l-.2,1.1l-.1,.4l-.3,1.5l-.3,1.4l-.3,1.5c-1.6,7.3,-8.7,12.1,-16.1,10.8l-1.5,-.3l-1.5,-.3v.4l-.1,.4l1.5,.3c5.1,1.3,10.3,0,14.2,-3.6l.8,-.8c4,-4.2,3.9,-10.3,5.3,-15.5l.3,-1.5l.3,-1.5v-.3l.3,-1.1l.3,-1.5l.3,-1.5l.3,-1.4l.3,-1.5v-.3l.2,-1.2c.5,-2,.9,-4,1.3,-6l.2,-1.3l.3,-1.5l.3,-1.4l.3,-1.5l.3,-1.5l.3,-1.4l.3,-1.5l.3,-1.5l.3,-1.4l.3,-1.5l.3,-1.5l.3,-1.4l.3,-1.5l.3,-1.5l.3,-1.3v-.1l.3,-1.5l.3,-1.5l.3,-1.4l.3,-1.5l.2,-1.2l.1,-.3l.3,-1.4c1.7,-9.3,-4.6,-17,-13.8,-18.1H466l-1.4,-.3l-1.5,-.3c-23,-4.7,-46,-9.3,-68.9,-14l-3,-.6c-7.6,-1.2,-12.5,-4,-19.7,.6l-1.1,.9c-5.3,4.5,-5.1,9,-6.5,15.5l-.3,1.4l-.3,1.5l-.3,1.5l-.1,.3l-.2,1.1l-.3,1.5l-.3,1.5l-.3,1.4l-.3,1.5l-.1,.2l-.2,1.3l-.3,1.4l-.3,1.5l-.3,1.5l-.3,1.4v.2l-.3,1.3l-.6,2.9l-.3,1.5l-.3,1.5l-.3,1.4l-.3,1.5l-.6,2.9l-.3,1.5l-.3,1.5l-.3,1.4l-.3,1.5l-.3,1.5l-.2,1.3l-.1,.1l-.3,1.5l-.3,1.5l-.2,1.4l-.3,1.5l-.3,1.2v.3l-.3,1.4v.1l-.3,1.4c-.5,4.9,1.4,9.7,5.1,12.8l1,.8c4,3.3,14.5,3.9,19.7,5.4l1.5,.3l1.2,.2l.3,.1c21.5,4.3,43,8.7,64.5,13.1h.3l1.2,.3l.1,-.4Z" class="g9_347"/>
<path d="M489.1,164.7l-7.4,36.1l-.3,1.3c-2.7,10,-10.6,17.7,-20.7,20.3l-.7,.1l-1.4,.3l-1.5,.2l-1.4,.2h-2.9l-1.5,-.1l-1.4,-.1l-2.9,-.6L361.9,205.2l-1.6,-.4l-1.3,-.4c-4.1,-1.5,-7.9,-3.8,-10.9,-6.9l-1.4,-1.4l-1.2,-1.5l-1,-1.4l-.6,.4l1,1.5h.1l1.1,1.5c3.4,3.8,7.8,6.8,12.6,8.5h.1l1.3,.4l1.6,.4l85.1,17.3l3,.5l1.5,.2c1.9,.2,3.9,.1,5.9,-.1l1.5,-.2l1.5,-.3C471.3,220.8,480,212.1,482.5,201v-.1l7.3,-36.1l-.7,-.1Z" class="g9_347"/>
<path d="M344.6,150.2l7.3,-36.1l.3,-1.3C355,102.8,362.9,95,372.9,92.5l.7,-.1l1.5,-.3l1.4,-.2l1.5,-.2h2.9l1.4,.1l1.5,.1l2.9,.6l85,17.2l1.7,.4l1.2,.4c4.1,1.4,7.9,3.8,11,6.9l1.3,1.4l1.2,1.5l1,1.4l.6,-.4l-1,-1.5l-1.2,-1.5c-3.4,-3.8,-7.8,-6.8,-12.6,-8.5l-1.3,-.4l-1.7,-.4L386.8,91.7l-2.9,-.5L382.4,91c-2,-.2,-4,-.1,-6,.1l-1.4,.2h-.1l-1.4,.3c-11.1,2.5,-19.9,11.2,-22.3,22.3l-7.4,36.2l.8,.1Z" class="g9_347"/>
<path d="M409.6,229.7l-.8,-.2c-15.6,-3.1,-31.3,-6.3,-46.9,-9.5l-1.5,-.3l-1.4,-.3c-1.5,-.3,-3,-.7,-4.4,-1.2l-.7,-.2l-.8,-.3l-1.4,-.6l-1.4,-.6h-.1c-1.8,-.9,-3.5,-1.8,-5.2,-2.9l-.6,-.4l-.4,.6l.6,.4c4.3,2.8,9.2,4.8,14.2,6l1.5,.3l1.4,.3l1.5,.3l2.8,.5h.1l3,.6l1.4,.3l2.8,.6h.2l1.4,.3c11.3,2.3,22.5,4.6,33.8,6.9l.8,.1l.1,-.7Z" class="g9_347"/>
<path d="M489.1,219.3l-.1,.3c-2.8,3.9,-6.2,7.3,-10.1,10l-.1,.1l.4,.7l.2,-.1c3.9,-2.9,7.4,-6.3,10.2,-10.3l.1,-.2l-.6,-.5Z" class="g9_347"/>
<path d="M344.5,95.5l.2,-.2c2.7,-3.9,6.1,-7.3,10,-10.1l.1,-.1l-.4,-.6l-.1,.1c-4,2.9,-7.4,6.3,-10.2,10.3l-.2,.2l.6,.4Z" class="g9_347"/>
<path d="M424,85.2l.8,.2l1.5,.3l1.4,.3l1.5,.3c5.5,1.1,11,2.2,16.5,3.3l1.1,.2l1.5,.3l1.5,.3l1.4,.3l1.5,.3l.3,.1l2.6,.5l4.4,.9h.2l1.3,.3l1.5,.3l2.9,.6l1.5,.3l1.4,.3l4.4,.9l1.4,.3c1.5,.3,3,.7,4.4,1.2l.7,.2l.8,.3l1.5,.6l1.3,.6h.1l1.5,.7l1.3,.7l.1,.1l1.5,.9l.8,.5l.6,.4l.4,-.6l-.6,-.4c-4.3,-2.8,-9.1,-4.8,-14.2,-6l-1.4,-.3l-1.5,-.3l-1.5,-.3L469,93.5l-1.4,-.2l-.1,-.1l-2.9,-.6l-1.5,-.2l-2.7,-.6h-.2l-1.5,-.3c-2.4,-.5,-4.9,-1,-7.3,-1.5l-1.5,-.3l-1.5,-.3c-3.2,-.7,-6.5,-1.3,-9.7,-2l-.5,-.1l-3,-.6l-1.4,-.3l-1.5,-.3l-2.9,-.6l-1.5,-.3l-3.7,-.7l-.2,.7Z" class="g9_347"/>
<path d="M343.8,230.4h.8V84.5h-.8Z" class="g8_347"/>
<path d="M489.1,230.4h.7V84.5h-.7Z" class="g8_347"/>
<path d="M343.8,230.4h146v-.7h-146Z" class="g8_347"/>
<path d="M343.8,85.2h146v-.7h-146Z" class="g8_347"/>
<path d="M499.2,230.1h7.2V84.8h-7.2Z" class="g0_347"/>
<path d="M499.2,230.1h7.2V215.5h-7.2Z" class="gb_347"/>
<path d="M499.2,215.5h7.2V201h-7.2Z" class="gc_347"/>
<path d="M499.2,201h7.2V186.5h-7.2Z" class="gd_347"/>
<path d="M499.2,186.5h7.2V172h-7.2Z" class="ge_347"/>
<path d="M499.2,172h7.2V157.4h-7.2Z" class="g2_347"/>
<path d="M499.2,157.4h7.2V142.9h-7.2Z" class="g3_347"/>
<path d="M499.2,142.9h7.2V128.4h-7.2Z" class="g4_347"/>
<path d="M499.2,128.4h7.2V113.9h-7.2Z" class="g5_347"/>
<path d="M499.2,113.9h7.2V99.4h-7.2Z" class="g6_347"/>
<path d="M499.2,99.4h7.2V84.8h-7.2Z" class="g7_347"/>
<path d="M506.4,215.9h1.9v-.7h-1.9Z" class="g8_347"/>
<path d="M510.8,216.1h3.5v-.4h-3.5Z" class="g8_347"/>
<path d="M515.8,214.6c0,.2,.1,.4,.2,.5c.2,.1,.3,.2,.6,.2c.2,0,.4,-.1,.5,-.2c.1,-.1,.2,-.3,.2,-.5c0,-.2,-.1,-.3,-.2,-.4c-.1,-.2,-.3,-.2,-.5,-.2c-.3,0,-.4,0,-.6,.2c-.1,.1,-.2,.2,-.2,.4Zm.2,.9c-.2,-.1,-.4,-.2,-.5,-.3c-.1,-.2,-.2,-.4,-.2,-.6c0,-.3,.1,-.6,.3,-.8c.3,-.1,.6,-.2,1,-.2c.4,0,.7,.1,.9,.2c.2,.2,.3,.5,.3,.8c0,.2,0,.4,-.2,.6c-.1,.1,-.3,.2,-.5,.3c.3,0,.5,.2,.6,.3c.2,.2,.2,.4,.2,.7c0,.4,-.1,.7,-.3,.9c-.3,.2,-.6,.3,-1,.3c-.5,0,-.8,-.1,-1,-.3c-.3,-.2,-.4,-.5,-.4,-.9c0,-.3,.1,-.5,.2,-.7c.2,-.1,.4,-.3,.6,-.3Zm.6,.2c-.3,0,-.5,.1,-.6,.2c-.2,.2,-.3,.3,-.3,.6c0,.2,.1,.4,.3,.6c.1,.1,.3,.2,.6,.2c.2,0,.4,-.1,.6,-.2c.1,-.2,.2,-.4,.2,-.6c0,-.3,-.1,-.4,-.2,-.6c-.2,-.1,-.4,-.2,-.6,-.2Z" class="g8_347"/>
<path d="M506.4,186.9h1.9v-.8h-1.9Z" class="g8_347"/>
<path d="M510.8,187.1h3.5v-.5h-3.5Z" class="g8_347"/>
<path d="M516.8,184.6h.6v2.6h.6v.4h-.6v1h-.5v-1h-1.8v-.5l1.7,-2.5Zm.1,.5l-1.4,2.1h1.4v-2.1Z" class="g8_347"/>
<path d="M506.4,157.8h1.9v-.7h-1.9Z" class="g8_347"/>
<path d="M512,155.5c.4,0,.8,.1,1,.5c.2,.3,.4,.9,.4,1.5c0,.7,-.2,1.2,-.4,1.6c-.2,.3,-.6,.5,-1,.5c-.5,0,-.8,-.2,-1,-.5c-.3,-.4,-.4,-.9,-.4,-1.6c0,-.6,.1,-1.2,.4,-1.5c.2,-.4,.5,-.5,1,-.5Zm0,.4c-.3,0,-.5,.1,-.6,.4c-.2,.3,-.2,.7,-.2,1.2c0,.6,0,1,.2,1.3c.1,.2,.3,.4,.6,.4c.3,0,.5,-.2,.6,-.4c.2,-.3,.2,-.7,.2,-1.3c0,-.5,0,-.9,-.2,-1.2c-.1,-.3,-.3,-.4,-.6,-.4Z" class="g8_347"/>
<path d="M506.4,128.8h1.9V128h-1.9Z" class="g8_347"/>
<path d="M512.2,126.5h.7v2.6h.5v.4h-.5v1h-.6v-1h-1.8V129l1.7,-2.5Zm.1,.5l-1.3,2.1h1.3V127Z" class="g8_347"/>
<path d="M506.4,99.7h1.9V99h-1.9Z" class="g8_347"/>
<path d="M511.3,98.5c0,.2,0,.3,.1,.4c.2,.2,.4,.2,.6,.2c.2,0,.4,0,.5,-.2c.2,-.1,.2,-.2,.2,-.4c0,-.2,0,-.4,-.2,-.5c-.1,-.1,-.3,-.2,-.5,-.2c-.2,0,-.4,.1,-.6,.2c-.1,.1,-.1,.3,-.1,.5Zm.2,.8c-.3,0,-.5,-.2,-.6,-.3c-.1,-.2,-.2,-.4,-.2,-.6c0,-.3,.1,-.6,.4,-.7c.2,-.2,.5,-.3,.9,-.3c.4,0,.7,.1,.9,.3c.3,.1,.4,.4,.4,.7c0,.2,-.1,.4,-.2,.6c-.2,.1,-.3,.3,-.6,.3c.3,.1,.5,.2,.6,.4c.2,.1,.3,.4,.3,.6c0,.4,-.2,.7,-.4,.9c-.2,.2,-.6,.3,-1,.3c-.4,0,-.8,-.1,-1,-.3c-.3,-.2,-.4,-.5,-.4,-.9c0,-.2,.1,-.5,.2,-.6c.2,-.2,.4,-.3,.7,-.4Zm.5,.2c-.3,0,-.5,.1,-.6,.2c-.2,.2,-.2,.4,-.2,.6c0,.2,0,.4,.2,.6c.1,.1,.3,.2,.6,.2c.2,0,.4,-.1,.6,-.2c.1,-.2,.2,-.4,.2,-.6c0,-.2,-.1,-.4,-.2,-.6c-.1,-.1,-.4,-.2,-.6,-.2Z" class="g8_347"/>
<path d="M499.2,230.1v.3h7.6V84.5h-8V230.4h.4v-.3h.4V85.2h6.5V229.7h-6.9v.4h.4h-.4Z" class="g8_347"/>
<path d="M549.6,230.1H694.8V84.8H549.6Z" class="g0_347"/>
<path d="M589.2,174.9h4.4c10.2,0,20.5,0,30.8,0h4.4c4.4,0,8.8,0,13.2,0h13.2l1.4,-.2l.4,-.4V140.6l-.4,-.5l-1.4,-.1h-3c-10.2,0,-20.5,0,-30.8,0H617c-4.4,0,-8.8,0,-13.2,0h-2.9c-4.3,.1,-8.9,-.1,-13.2,.1l-.4,.5v33.7l.4,.4l1.5,.2Z" class="g1_347"/>
<path d="M672.8,192.3H571.6l-1.5,-.1l-.2,-.3V123l.2,-.3l1.5,-.1H672.8l1.4,.1l.3,.3v68.9l-.3,.3l-1.4,.1Zm-85.5,-18l.4,.4l1.5,.2h66l1.4,-.2l.4,-.4V140.6l-.4,-.5l-1.4,-.1h-66l-1.5,.1l-.4,.5v33.7Z" class="g2_347"/>
<path d="M569.9,191.9V123l.2,-.3l1.5,-.1H672.8l1.4,.1l.3,.3v68.9l-.3,.3l-1.4,.1H571.6l-1.5,-.1l-.2,-.3Zm-1.3,17.8H675.7c8.7,-.7,15.6,-7.6,16.1,-16.3l.1,-.2V123c0,-3.7,-1,-7.1,-3,-10.1l-.1,-.2l-1.1,-1.5c-2.4,-2.7,-5.5,-4.6,-9,-5.5l-1.5,-.3h-.1l-1.4,-.2H570.1c-8.7,-.1,-16.2,6.2,-17.4,14.8l-.2,1.5v71.9l.2,1.5l.2,1.4l.5,1.5l.5,1.5l.1,.1l.6,1.3l.8,1.3l.1,.2c2.2,3.1,5.2,5.4,8.7,6.6l1.5,.4l1.5,.3l1.4,.2Z" class="g3_347"/>
<path d="M567.2,209.5v0l-1.5,-.3l-1.5,-.4l-1.4,-.6c-3,-1.3,-5.4,-3.4,-7.3,-6l-.1,-.2l-.8,-1.3l-.6,-1.3l-.1,-.1l-.5,-1.5l-.5,-1.5l-.2,-1.5l-.2,-1.4V121.5l.2,-1.5l.2,-1.4c.8,-3.4,2.7,-6.5,5.2,-8.8l.3,-.3l1.4,-1.1c3.1,-2.2,6.6,-3.3,10.3,-3.2H675.7l1.4,.2h.1l1.5,.3l1.4,.4c2.9,1,5.6,2.8,7.6,5.1l1.1,1.5l.1,.2c2,3,3,6.4,3,10.1v70.2l-.1,.2c-.5,9.3,-8.3,16.4,-17.6,16.3H568.6l-1.4,-.2Zm1.4,17.6l1.5,.1H674.2c3,0,6,-.4,8.9,-1.1l1.4,-.4h.1c3,-1,6,-2.4,8.7,-4.1l.5,-.3l1,-.7V94.3l-1,-.7l-.5,-.3C688.1,89.9,682,88,675.7,87.8l-1.5,-.1H570.1c-6.8,0,-13.4,1.9,-19.1,5.6l-.5,.3l-.9,.7V220.6l.9,.7c5.3,3.5,11.6,5.6,18,5.8h.1Z" class="g4_347"/>
<path d="M551,230.1H694.8v-9.5l-1,.7l-.5,.3c-5.2,3.4,-11.3,5.3,-17.6,5.5l-1.5,.1H570.1c-6.8,0,-13.4,-1.9,-19.1,-5.6l-.5,-.3l-.9,-.7v9.5H551Z" class="g5_347"/>
<path d="M550.5,93.6l.5,-.3l1.5,-.9c5.4,-3.1,11.4,-4.7,17.6,-4.7H674.2l1.5,.1c6.3,.2,12.4,2.1,17.6,5.5l.5,.3l1,.7V84.8H549.6v9.5l.9,-.7Z" class="g5_347"/>
<path d="M549.2,232h.7v-1.9h-.7Z" class="g8_347"/>
<path d="M541.8,236.5h3.4v-.4h-3.4Z" class="g8_347"/>
<path d="M546.5,237.6h.8v-3.1l-.9,.2v-.5l.9,-.2h.6v3.6h.8v.4h-2.2v-.4Z" class="g8_347"/>
<path d="M551,234c.4,0,.8,.2,1,.5c.2,.4,.4,.9,.4,1.5c0,.7,-.2,1.2,-.4,1.6c-.2,.3,-.6,.5,-1,.5c-.5,0,-.8,-.2,-1,-.5c-.3,-.4,-.4,-.9,-.4,-1.6c0,-.6,.1,-1.1,.4,-1.5c.2,-.3,.5,-.5,1,-.5Zm0,.4c-.3,0,-.5,.1,-.6,.4c-.2,.3,-.3,.7,-.3,1.2c0,.6,.1,1,.3,1.3c.1,.2,.3,.4,.6,.4c.3,0,.5,-.2,.6,-.4c.1,-.3,.2,-.7,.2,-1.3c0,-.5,-.1,-.9,-.2,-1.2c-.1,-.3,-.3,-.4,-.6,-.4Z" class="g8_347"/>
<path d="M553.3,238h.6v-.7h-.6Z" class="g8_347"/>
<path d="M556.2,234c.4,0,.8,.2,1,.5c.2,.4,.4,.9,.4,1.5c0,.7,-.2,1.2,-.4,1.6c-.2,.3,-.6,.5,-1,.5c-.5,0,-.8,-.2,-1,-.5c-.3,-.4,-.4,-.9,-.4,-1.6c0,-.6,.1,-1.1,.4,-1.5c.2,-.3,.5,-.5,1,-.5Zm0,.4c-.3,0,-.5,.1,-.6,.4c-.2,.3,-.2,.7,-.2,1.2c0,.6,0,1,.2,1.3c.1,.2,.3,.4,.6,.4c.3,0,.5,-.2,.6,-.4c.2,-.3,.2,-.7,.2,-1.3c0,-.5,0,-.9,-.2,-1.2c-.1,-.3,-.3,-.4,-.6,-.4Z" class="g8_347"/>
<path d="M567.3,232h.8v-1.9h-.8Z" class="g8_347"/>
<path d="M561.7,236.5h3.4v-.4h-3.4Z" class="g8_347"/>
<path d="M566.1,234h2.6v.3l-1.5,3.7h-.5l1.3,-3.5h-1.9V234Z" class="g8_347"/>
<path d="M569.7,238h.6v-.7h-.6Z" class="g8_347"/>
<path d="M571.5,234h2.1v.5H572v1l.2,-.1h.2c.5,0,.8,.1,1.1,.4c.2,.2,.4,.5,.4,.9c0,.5,-.2,.8,-.4,1c-.3,.3,-.7,.4,-1.2,.4c-.1,0,-.3,0,-.5,0c-.1,-.1,-.3,-.1,-.5,-.2v-.5c.2,.1,.3,.1,.5,.2c.2,0,.3,0,.5,0c.3,0,.6,0,.8,-.2c.1,-.2,.2,-.4,.2,-.7c0,-.2,-.1,-.4,-.2,-.6c-.2,-.2,-.5,-.3,-.8,-.3c-.1,0,-.3,.1,-.4,.1c-.1,0,-.3,.1,-.4,.1v-2Z" class="g8_347"/>
<path d="M585.5,232h.7v-1.9h-.7Z" class="g8_347"/>
<path d="M579.8,236.5h3.4v-.4h-3.4Z" class="g8_347"/>
<path d="M584.4,234h2.1v.5h-1.6v1l.2,-.1h.3c.4,0,.8,.1,1,.4c.3,.2,.4,.5,.4,.9c0,.5,-.1,.8,-.4,1c-.3,.3,-.6,.4,-1.1,.4c-.2,0,-.4,0,-.5,0c-.2,-.1,-.4,-.1,-.6,-.2v-.5c.2,.1,.4,.1,.5,.2c.2,0,.4,0,.6,0c.3,0,.5,0,.7,-.2c.2,-.2,.3,-.4,.3,-.7c0,-.2,-.1,-.4,-.3,-.6c-.2,-.2,-.4,-.3,-.7,-.3c-.2,0,-.3,.1,-.5,.1c-.1,0,-.2,.1,-.4,.1v-2Z" class="g8_347"/>
<path d="M587.9,238h.5v-.7h-.5Z" class="g8_347"/>
<path d="M590.8,234c.4,0,.7,.2,1,.5c.2,.4,.3,.9,.3,1.5c0,.7,-.1,1.2,-.3,1.6c-.3,.3,-.6,.5,-1,.5c-.5,0,-.8,-.2,-1.1,-.5c-.2,-.4,-.3,-.9,-.3,-1.6c0,-.6,.1,-1.1,.3,-1.5c.3,-.3,.6,-.5,1.1,-.5Zm0,.4c-.3,0,-.5,.1,-.7,.4c-.1,.3,-.2,.7,-.2,1.2c0,.6,.1,1,.2,1.3c.2,.2,.4,.4,.7,.4c.2,0,.4,-.2,.6,-.4c.1,-.3,.2,-.7,.2,-1.3c0,-.5,-.1,-.9,-.2,-1.2c-.2,-.3,-.4,-.4,-.6,-.4Z" class="g8_347"/>
<path d="M603.6,232h.8v-1.9h-.8Z" class="g8_347"/>
<path d="M598,236.5h3.4v-.4H598Z" class="g8_347"/>
<path d="M603,237.6h1.9v.4h-2.5v-.4c.2,-.2,.5,-.5,.8,-.9c.4,-.3,.6,-.6,.7,-.7c.1,-.2,.3,-.3,.3,-.5l.1,-.4c0,-.2,0,-.3,-.2,-.5c-.1,-.1,-.3,-.2,-.6,-.2c-.1,0,-.3,.1,-.5,.1c-.2,.1,-.4,.2,-.6,.3v-.6c.2,0,.4,-.1,.6,-.2c.2,0,.4,0,.5,0c.4,0,.8,.1,1,.3c.3,.2,.4,.5,.4,.8c0,.2,-.1,.3,-.1,.5c-.1,.1,-.2,.3,-.4,.5c0,0,-.1,.2,-.4,.4c-.2,.3,-.5,.6,-1,1.1Z" class="g8_347"/>
<path d="M606,238h.6v-.7H606Z" class="g8_347"/>
<path d="M607.8,234h2.1v.5h-1.6v1l.2,-.1h.2c.5,0,.8,.1,1.1,.4c.2,.2,.4,.5,.4,.9c0,.5,-.2,.8,-.4,1c-.3,.3,-.7,.4,-1.2,.4c-.1,0,-.3,0,-.5,0c-.1,-.1,-.3,-.1,-.5,-.2v-.5c.2,.1,.3,.1,.5,.2c.2,0,.3,0,.5,0c.3,0,.6,0,.8,-.2c.1,-.2,.2,-.4,.2,-.7c0,-.2,-.1,-.4,-.2,-.6c-.2,-.2,-.5,-.3,-.8,-.3c-.1,0,-.3,.1,-.4,.1c-.1,0,-.3,.1,-.4,.1v-2Z" class="g8_347"/>
<path d="M621.8,232h.8v-1.9h-.8Z" class="g8_347"/>
<path d="M619.6,234c.4,0,.8,.2,1,.5c.2,.4,.3,.9,.3,1.5c0,.7,-.1,1.2,-.3,1.6c-.2,.3,-.6,.5,-1,.5c-.5,0,-.8,-.2,-1.1,-.5c-.2,-.4,-.3,-.9,-.3,-1.6c0,-.6,.1,-1.1,.3,-1.5c.3,-.3,.6,-.5,1.1,-.5Zm0,.4c-.3,0,-.5,.1,-.7,.4c-.1,.3,-.2,.7,-.2,1.2c0,.6,.1,1,.2,1.3c.2,.2,.4,.4,.7,.4c.2,0,.5,-.2,.6,-.4c.1,-.3,.2,-.7,.2,-1.3c0,-.5,-.1,-.9,-.2,-1.2c-.1,-.3,-.4,-.4,-.6,-.4Z" class="g8_347"/>
<path d="M621.9,238h.6v-.7h-.6Z" class="g8_347"/>
<path d="M624.8,234c.4,0,.8,.2,1,.5c.2,.4,.4,.9,.4,1.5c0,.7,-.2,1.2,-.4,1.6c-.2,.3,-.6,.5,-1,.5c-.5,0,-.8,-.2,-1,-.5c-.3,-.4,-.4,-.9,-.4,-1.6c0,-.6,.1,-1.1,.4,-1.5c.2,-.3,.5,-.5,1,-.5Zm0,.4c-.3,0,-.5,.1,-.6,.4c-.2,.3,-.3,.7,-.3,1.2c0,.6,.1,1,.3,1.3c.1,.2,.3,.4,.6,.4c.3,0,.5,-.2,.6,-.4c.1,-.3,.2,-.7,.2,-1.3c0,-.5,-.1,-.9,-.2,-1.2c-.1,-.3,-.3,-.4,-.6,-.4Z" class="g8_347"/>
<path d="M639.9,232h.8v-1.9h-.8Z" class="g8_347"/>
<path d="M637,237.6h1.9v.4h-2.5v-.4c.2,-.2,.5,-.5,.8,-.9c.4,-.3,.6,-.6,.7,-.7c.2,-.2,.3,-.3,.3,-.5l.2,-.4c0,-.2,-.1,-.3,-.3,-.5c-.1,-.1,-.3,-.2,-.5,-.2c-.2,0,-.4,.1,-.6,.1c-.2,.1,-.4,.2,-.6,.3v-.6c.2,0,.4,-.1,.6,-.2c.2,0,.4,0,.5,0c.5,0,.8,.1,1,.3c.3,.2,.4,.5,.4,.8c0,.2,0,.3,-.1,.5c-.1,.1,-.2,.3,-.3,.5c-.1,0,-.2,.2,-.5,.4c-.2,.3,-.5,.6,-1,1.1Z" class="g8_347"/>
<path d="M640,238h.6v-.7H640Z" class="g8_347"/>
<path d="M641.8,234h2.1v.5h-1.6v1l.2,-.1h.2c.5,0,.8,.1,1.1,.4c.3,.2,.4,.5,.4,.9c0,.5,-.1,.8,-.4,1c-.3,.3,-.7,.4,-1.1,.4c-.2,0,-.4,0,-.5,0c-.2,-.1,-.4,-.1,-.6,-.2v-.5c.2,.1,.3,.1,.5,.2c.2,0,.4,0,.6,0c.3,0,.5,0,.7,-.2c.2,-.2,.3,-.4,.3,-.7c0,-.2,-.1,-.4,-.3,-.6c-.2,-.2,-.4,-.3,-.7,-.3c-.2,0,-.3,.1,-.5,.1c-.1,0,-.3,.1,-.4,.1v-2Z" class="g8_347"/>
<path d="M658.1,232h.8v-1.9h-.8Z" class="g8_347"/>
<path d="M654.7,234h2.1v.5h-1.6v1l.3,-.1h.2c.4,0,.8,.1,1,.4c.3,.2,.4,.5,.4,.9c0,.5,-.1,.8,-.4,1c-.2,.3,-.6,.4,-1.1,.4c-.2,0,-.3,0,-.5,0c-.2,-.1,-.4,-.1,-.5,-.2v-.5c.1,.1,.3,.1,.5,.2c.1,0,.3,0,.5,0c.3,0,.6,0,.7,-.2c.2,-.2,.3,-.4,.3,-.7c0,-.2,-.1,-.4,-.3,-.6c-.1,-.2,-.4,-.3,-.7,-.3c-.1,0,-.3,.1,-.4,.1c-.2,0,-.3,.1,-.5,.1v-2Z" class="g8_347"/>
<path d="M658.2,238h.6v-.7h-.6Z" class="g8_347"/>
<path d="M661.1,234c.4,0,.8,.2,1,.5c.2,.4,.4,.9,.4,1.5c0,.7,-.2,1.2,-.4,1.6c-.2,.3,-.6,.5,-1,.5c-.5,0,-.8,-.2,-1,-.5c-.3,-.4,-.4,-.9,-.4,-1.6c0,-.6,.1,-1.1,.4,-1.5c.2,-.3,.5,-.5,1,-.5Zm0,.4c-.3,0,-.5,.1,-.6,.4c-.2,.3,-.3,.7,-.3,1.2c0,.6,.1,1,.3,1.3c.1,.2,.3,.4,.6,.4c.3,0,.5,-.2,.6,-.4c.1,-.3,.2,-.7,.2,-1.3c0,-.5,-.1,-.9,-.2,-1.2c-.1,-.3,-.3,-.4,-.6,-.4Z" class="g8_347"/>
<path d="M676.3,232h.7v-1.9h-.7Z" class="g8_347"/>
<path d="M672.7,234h2.6v.3l-1.4,3.7h-.6l1.4,-3.5h-2V234Z" class="g8_347"/>
<path d="M676.3,238h.6v-.7h-.6Z" class="g8_347"/>
<path d="M678.1,234h2.1v.5h-1.6v1l.2,-.1h.3c.4,0,.7,.1,1,.4c.3,.2,.4,.5,.4,.9c0,.5,-.1,.8,-.4,1c-.3,.3,-.6,.4,-1.1,.4c-.2,0,-.4,0,-.5,0c-.2,-.1,-.4,-.1,-.6,-.2v-.5c.2,.1,.3,.1,.5,.2c.2,0,.4,0,.6,0c.3,0,.5,0,.7,-.2c.2,-.2,.3,-.4,.3,-.7c0,-.2,-.1,-.4,-.3,-.6c-.2,-.2,-.4,-.3,-.7,-.3c-.2,0,-.3,.1,-.5,.1c-.1,0,-.3,.1,-.4,.1v-2Z" class="g8_347"/>
<path d="M694.4,232h.8v-1.9h-.8Z" class="g8_347"/>
<path d="M689.4,237.6h.9v-3.1l-1,.2v-.5l1,-.2h.5v3.6h.9v.4h-2.3v-.4Z" class="g8_347"/>
<path d="M693.9,234c.5,0,.8,.2,1,.5c.3,.4,.4,.9,.4,1.5c0,.7,-.1,1.2,-.4,1.6c-.2,.3,-.5,.5,-1,.5c-.4,0,-.8,-.2,-1,-.5c-.2,-.4,-.4,-.9,-.4,-1.6c0,-.6,.2,-1.1,.4,-1.5c.2,-.3,.6,-.5,1,-.5Zm0,.4c-.3,0,-.5,.1,-.6,.4c-.1,.3,-.2,.7,-.2,1.2c0,.6,.1,1,.2,1.3c.1,.2,.3,.4,.6,.4c.3,0,.5,-.2,.6,-.4c.2,-.3,.3,-.7,.3,-1.3c0,-.5,-.1,-.9,-.3,-1.2c-.1,-.3,-.3,-.4,-.6,-.4Z" class="g8_347"/>
<path d="M696.2,238h.6v-.7h-.6Z" class="g8_347"/>
<path d="M699.1,234c.5,0,.8,.2,1,.5c.3,.4,.4,.9,.4,1.5c0,.7,-.1,1.2,-.4,1.6c-.2,.3,-.5,.5,-1,.5c-.4,0,-.8,-.2,-1,-.5c-.2,-.4,-.4,-.9,-.4,-1.6c0,-.6,.2,-1.1,.4,-1.5c.2,-.3,.6,-.5,1,-.5Zm0,.4c-.3,0,-.5,.1,-.6,.4c-.1,.3,-.2,.7,-.2,1.2c0,.6,.1,1,.2,1.3c.1,.2,.3,.4,.6,.4c.3,0,.5,-.2,.7,-.4c.1,-.3,.2,-.7,.2,-1.3c0,-.5,-.1,-.9,-.2,-1.2c-.2,-.3,-.4,-.4,-.7,-.4Z" class="g8_347"/>
<path d="M547.7,230.4h1.9v-.7h-1.9Z" class="g8_347"/>
<path d="M529.6,230.6H533v-.4h-3.4Z" class="g8_347"/>
<path d="M534.3,231.7h.8v-3.1l-.9,.2v-.5l.9,-.1h.6v3.5h.9v.4h-2.3v-.4Z" class="g8_347"/>
<path d="M538.8,228.1c.4,0,.8,.2,1,.5c.3,.4,.4,.9,.4,1.5c0,.7,-.1,1.2,-.4,1.6c-.2,.3,-.6,.5,-1,.5c-.4,0,-.8,-.2,-1,-.5c-.3,-.4,-.4,-.9,-.4,-1.6c0,-.6,.1,-1.1,.4,-1.5c.2,-.3,.6,-.5,1,-.5Zm0,.4c-.3,0,-.5,.1,-.6,.4c-.2,.3,-.2,.7,-.2,1.2c0,.6,0,1,.2,1.3c.1,.2,.3,.4,.6,.4c.3,0,.5,-.2,.6,-.4c.2,-.3,.2,-.7,.2,-1.3c0,-.5,0,-.9,-.2,-1.2c-.1,-.3,-.3,-.4,-.6,-.4Z" class="g8_347"/>
<path d="M541.1,232.1h.6v-.6h-.6Z" class="g8_347"/>
<path d="M544,228.1c.4,0,.8,.2,1,.5c.3,.4,.4,.9,.4,1.5c0,.7,-.1,1.2,-.4,1.6c-.2,.3,-.6,.5,-1,.5c-.4,0,-.8,-.2,-1,-.5c-.3,-.4,-.4,-.9,-.4,-1.6c0,-.6,.1,-1.1,.4,-1.5c.2,-.3,.6,-.5,1,-.5Zm0,.4c-.3,0,-.5,.1,-.6,.4c-.2,.3,-.2,.7,-.2,1.2c0,.6,0,1,.2,1.3c.1,.2,.3,.4,.6,.4c.3,0,.5,-.2,.6,-.4c.2,-.3,.2,-.7,.2,-1.3c0,-.5,0,-.9,-.2,-1.2c-.1,-.3,-.3,-.4,-.6,-.4Z" class="g8_347"/>
<path d="M547.7,212.3h1.9v-.8h-1.9Z" class="g8_347"/>
<path d="M533.1,212.5h3.4V212h-3.4Z" class="g8_347"/>
<path d="M537.5,210h2.6v.2l-1.5,3.8h-.5l1.3,-3.5h-1.9V210Z" class="g8_347"/>
<path d="M541.1,214h.6v-.7h-.6Z" class="g8_347"/>
<path d="M542.9,210H545v.5h-1.6v.9h.2l.2,-.1c.5,0,.8,.2,1.1,.4c.2,.3,.4,.6,.4,1c0,.4,-.2,.8,-.4,1c-.3,.2,-.7,.4,-1.2,.4c-.1,0,-.3,-.1,-.5,-.1c-.1,0,-.3,-.1,-.5,-.1v-.6c.2,.1,.3,.2,.5,.2c.2,.1,.3,.1,.5,.1c.3,0,.6,-.1,.8,-.2c.1,-.2,.2,-.4,.2,-.7c0,-.3,-.1,-.5,-.2,-.7c-.2,-.1,-.5,-.2,-.8,-.2c-.1,0,-.3,0,-.4,0c-.1,.1,-.3,.1,-.4,.2v-2Z" class="g8_347"/>
<path d="M547.7,194.1h1.9v-.7h-1.9Z" class="g8_347"/>
<path d="M533.1,194.3h3.4v-.4h-3.4Z" class="g8_347"/>
<path d="M537.7,191.8h2.1v.5h-1.7v1l.3,-.1h.2c.5,0,.8,.1,1.1,.4c.2,.2,.4,.5,.4,.9c0,.5,-.2,.8,-.4,1c-.3,.3,-.7,.4,-1.2,.4c-.1,0,-.3,0,-.5,0c-.2,-.1,-.3,-.1,-.5,-.2v-.5c.1,.1,.3,.1,.5,.2c.2,0,.3,0,.5,0c.3,0,.6,0,.8,-.2c.1,-.2,.2,-.4,.2,-.7c0,-.2,-.1,-.4,-.2,-.6c-.2,-.2,-.5,-.3,-.8,-.3c-.1,0,-.3,.1,-.4,.1c-.2,0,-.3,.1,-.4,.1v-2Z" class="g8_347"/>
<path d="M541.1,195.8h.6v-.7h-.6Z" class="g8_347"/>
<path d="M544,191.8c.5,0,.8,.2,1,.5c.3,.4,.4,.9,.4,1.5c0,.7,-.1,1.2,-.4,1.6c-.2,.3,-.5,.5,-1,.5c-.4,0,-.8,-.2,-1,-.5c-.3,-.4,-.4,-.9,-.4,-1.6c0,-.6,.1,-1.1,.4,-1.5c.2,-.3,.6,-.5,1,-.5Zm0,.4c-.3,0,-.5,.1,-.6,.4c-.2,.3,-.2,.7,-.2,1.2c0,.6,0,1,.2,1.3c.1,.2,.3,.4,.6,.4c.3,0,.5,-.2,.6,-.4c.2,-.3,.2,-.7,.2,-1.3c0,-.5,0,-.9,-.2,-1.2c-.1,-.3,-.3,-.4,-.6,-.4Z" class="g8_347"/>
<path d="M547.7,176h1.9v-.8h-1.9Z" class="g8_347"/>
<path d="M533.1,176.2h3.4v-.5h-3.4Z" class="g8_347"/>
<path d="M538.1,177.2H540v.5h-2.5v-.5c.2,-.2,.4,-.5,.8,-.8c.4,-.4,.6,-.6,.7,-.7c.1,-.2,.3,-.4,.3,-.5l.1,-.4c0,-.2,0,-.4,-.2,-.5c-.1,-.2,-.3,-.2,-.6,-.2c-.1,0,-.3,0,-.5,.1c-.2,0,-.4,.1,-.6,.2v-.5c.2,-.1,.4,-.2,.6,-.2c.2,-.1,.4,-.1,.5,-.1c.4,0,.8,.1,1,.3c.2,.2,.4,.5,.4,.9c0,.1,-.1,.3,-.1,.4c-.1,.2,-.2,.3,-.4,.5c0,.1,-.1,.2,-.4,.5c-.2,.2,-.6,.6,-1,1Z" class="g8_347"/>
<path d="M541.1,177.7h.6V177h-.6Z" class="g8_347"/>
<path d="M542.9,173.7H545v.4h-1.6v1h.2l.2,-.1c.5,0,.8,.2,1.1,.4c.2,.2,.4,.6,.4,1c0,.4,-.2,.8,-.4,1c-.3,.2,-.7,.3,-1.2,.3c-.1,0,-.3,0,-.5,0c-.1,0,-.3,-.1,-.5,-.1V177c.2,.1,.3,.2,.5,.2c.2,.1,.3,.1,.5,.1c.3,0,.6,-.1,.8,-.2c.1,-.2,.2,-.4,.2,-.7c0,-.3,-.1,-.5,-.2,-.7c-.2,-.1,-.5,-.2,-.8,-.2c-.1,0,-.3,0,-.4,0c-.1,.1,-.3,.1,-.4,.2v-2Z" class="g8_347"/>
<path d="M547.7,157.8h1.9v-.7h-1.9Z" class="g8_347"/>
<path d="M538.8,155.5c.4,0,.8,.1,1,.5c.3,.3,.4,.9,.4,1.5c0,.7,-.1,1.2,-.4,1.6c-.2,.3,-.6,.5,-1,.5c-.4,0,-.8,-.2,-1,-.5c-.3,-.4,-.4,-.9,-.4,-1.6c0,-.6,.1,-1.2,.4,-1.5c.2,-.4,.6,-.5,1,-.5Zm0,.4c-.3,0,-.5,.1,-.6,.4c-.2,.3,-.2,.7,-.2,1.2c0,.6,0,1,.2,1.3c.1,.2,.3,.4,.6,.4c.3,0,.5,-.2,.6,-.4c.2,-.3,.2,-.7,.2,-1.3c0,-.5,0,-.9,-.2,-1.2c-.1,-.3,-.3,-.4,-.6,-.4Z" class="g8_347"/>
<path d="M541.1,159.5h.6v-.7h-.6Z" class="g8_347"/>
<path d="M544,155.5c.5,0,.8,.1,1,.5c.3,.3,.4,.9,.4,1.5c0,.7,-.1,1.2,-.4,1.6c-.2,.3,-.5,.5,-1,.5c-.4,0,-.8,-.2,-1,-.5c-.3,-.4,-.4,-.9,-.4,-1.6c0,-.6,.1,-1.2,.4,-1.5c.2,-.4,.6,-.5,1,-.5Zm0,.4c-.3,0,-.5,.1,-.6,.4c-.2,.3,-.2,.7,-.2,1.2c0,.6,0,1,.2,1.3c.1,.2,.3,.4,.6,.4c.3,0,.5,-.2,.6,-.4c.2,-.3,.2,-.7,.2,-1.3c0,-.5,0,-.9,-.2,-1.2c-.1,-.3,-.3,-.4,-.6,-.4Z" class="g8_347"/>
<path d="M547.7,139.7h1.9v-.8h-1.9Z" class="g8_347"/>
<path d="M538.1,140.9H540v.5h-2.5v-.5c.2,-.2,.4,-.5,.8,-.8c.4,-.4,.6,-.6,.7,-.7c.1,-.2,.3,-.4,.3,-.5l.1,-.4c0,-.2,0,-.4,-.2,-.5c-.1,-.2,-.3,-.2,-.6,-.2c-.1,0,-.3,0,-.5,.1c-.2,0,-.4,.1,-.6,.2v-.5c.2,-.1,.4,-.2,.6,-.2c.2,-.1,.4,-.1,.5,-.1c.4,0,.8,.1,1,.3c.2,.2,.4,.5,.4,.9c0,.1,-.1,.3,-.1,.4c-.1,.2,-.2,.3,-.4,.5c0,.1,-.1,.2,-.4,.5c-.2,.2,-.6,.6,-1,1Z" class="g8_347"/>
<path d="M541.1,141.4h.6v-.7h-.6Z" class="g8_347"/>
<path d="M542.9,137.4H545v.4h-1.6v1h.2l.2,-.1c.5,0,.8,.2,1.1,.4c.2,.2,.4,.6,.4,1c0,.4,-.2,.7,-.4,1c-.3,.2,-.7,.3,-1.2,.3c-.1,0,-.3,0,-.5,0c-.1,0,-.3,-.1,-.5,-.1v-.6c.2,.1,.3,.2,.5,.2c.2,.1,.3,.1,.5,.1c.3,0,.6,-.1,.8,-.3c.1,-.1,.2,-.3,.2,-.6c0,-.3,-.1,-.5,-.2,-.7c-.2,-.1,-.5,-.2,-.8,-.2c-.1,0,-.3,0,-.4,0c-.1,.1,-.3,.1,-.4,.2v-2Z" class="g8_347"/>
<path d="M547.7,121.5h1.9v-.7h-1.9Z" class="g8_347"/>
<path d="M537.7,119.2h2.1v.5h-1.7v1l.3,-.1h.2c.5,0,.8,.1,1.1,.3c.2,.3,.4,.6,.4,1c0,.5,-.2,.8,-.4,1c-.3,.3,-.7,.4,-1.2,.4c-.1,0,-.3,0,-.5,-.1c-.2,0,-.3,0,-.5,-.1v-.5c.1,.1,.3,.1,.5,.2c.2,0,.3,0,.5,0c.3,0,.6,0,.8,-.2c.1,-.2,.2,-.4,.2,-.7c0,-.2,-.1,-.5,-.2,-.6c-.2,-.2,-.5,-.3,-.8,-.3c-.1,0,-.3,.1,-.4,.1c-.2,0,-.3,.1,-.4,.1v-2Z" class="g8_347"/>
<path d="M541.1,123.2h.6v-.7h-.6Z" class="g8_347"/>
<path d="M544,119.2c.5,0,.8,.1,1,.5c.3,.3,.4,.9,.4,1.5c0,.7,-.1,1.2,-.4,1.6c-.2,.3,-.5,.5,-1,.5c-.4,0,-.8,-.2,-1,-.5c-.3,-.4,-.4,-.9,-.4,-1.6c0,-.6,.1,-1.2,.4,-1.5c.2,-.4,.6,-.5,1,-.5Zm0,.4c-.3,0,-.5,.1,-.6,.4c-.2,.3,-.2,.7,-.2,1.2c0,.6,0,1,.2,1.3c.1,.2,.3,.4,.6,.4c.3,0,.5,-.2,.6,-.4c.2,-.3,.2,-.7,.2,-1.3c0,-.5,0,-.9,-.2,-1.2c-.1,-.3,-.3,-.4,-.6,-.4Z" class="g8_347"/>
<path d="M547.7,103.4h1.9v-.8h-1.9Z" class="g8_347"/>
<path d="M537.5,101.1h2.6v.2l-1.5,3.8h-.5l1.3,-3.6h-1.9v-.4Z" class="g8_347"/>
<path d="M541.1,105.1h.6v-.7h-.6Z" class="g8_347"/>
<path d="M542.9,101.1H545v.4h-1.6v1l.2,-.1h.2c.5,0,.8,.2,1.1,.4c.2,.2,.4,.6,.4,1c0,.4,-.2,.7,-.4,1c-.3,.2,-.7,.3,-1.2,.3c-.1,0,-.3,0,-.5,0c-.1,0,-.3,-.1,-.5,-.1v-.6c.2,.1,.3,.2,.5,.2c.2,.1,.3,.1,.5,.1c.3,0,.6,-.1,.8,-.3c.1,-.1,.2,-.3,.2,-.6c0,-.3,-.1,-.5,-.2,-.7c-.2,-.1,-.5,-.2,-.8,-.2c-.1,0,-.3,0,-.4,0c-.1,.1,-.3,.1,-.4,.2v-2Z" class="g8_347"/>
<path d="M547.7,85.2h1.9v-.7h-1.9Z" class="g8_347"/>
<path d="M534.3,86.5h.8V83.4l-.9,.2v-.5l.9,-.2h.6v3.6h.9v.4h-2.3v-.4Z" class="g8_347"/>
<path d="M539,82.9c.4,0,.6,.2,.8,.5c.3,.3,.4,.8,.4,1.5c0,.7,-.1,1.2,-.4,1.6c-.2,.3,-.6,.5,-1,.5c-.4,0,-.8,-.2,-1,-.5c-.3,-.4,-.4,-.9,-.4,-1.6c0,-.7,.1,-1.2,.4,-1.5c.2,-.3,.4,-.5,.8,-.5h.4Zm-.2,.4c-.3,0,-.5,.1,-.6,.4c-.2,.3,-.2,.7,-.2,1.2c0,.6,0,1,.2,1.2c.1,.3,.3,.5,.6,.5c.3,0,.5,-.2,.6,-.5c.2,-.2,.2,-.6,.2,-1.2c0,-.5,0,-.9,-.2,-1.2c-.1,-.3,-.3,-.4,-.6,-.4Z" class="g8_347"/>
<path d="M541.1,86.9h.6v-.7h-.6Z" class="g8_347"/>
<path d="M544.2,82.9c.4,0,.6,.2,.8,.5c.3,.3,.4,.8,.4,1.5c0,.7,-.1,1.2,-.4,1.6c-.2,.3,-.5,.5,-1,.5c-.4,0,-.8,-.2,-1,-.5c-.3,-.4,-.4,-.9,-.4,-1.6c0,-.7,.1,-1.2,.4,-1.5c.2,-.3,.4,-.5,.8,-.5h.4Zm-.2,.4c-.3,0,-.5,.1,-.6,.4c-.2,.3,-.2,.7,-.2,1.2c0,.6,0,1,.2,1.2c.1,.3,.3,.5,.6,.5c.3,0,.5,-.2,.6,-.5c.2,-.2,.2,-.6,.2,-1.2c0,-.5,0,-.9,-.2,-1.2c-.1,-.3,-.3,-.4,-.6,-.4Z" class="g8_347"/>
<path d="M587.7,174.7l.3,-.2l-.3,-.3V140.7l.2,-.2l1.3,-.1h66l1.3,.1l.1,.2v33.5l-.1,.2l-1.3,.1h-66l-1.5,-.1v.3l.3,-.2l-.3,.2v.4l1.4,.1l.1,.1h66v-.1l1.5,-.1l.2,-.1l.4,-.4l.1,-.3V140.6l-.1,-.3l-.4,-.4l-.2,-.1l-1.5,-.2H589.1l-1.4,.2l-.3,.1l-.4,.4l-.1,.3v33.7l.1,.3l.4,.4l.3,.1v-.4Z" class="g9_347"/>
<path d="M570.1,192.2l.8,-.8l-.2,-.2l-.8,.7H571V123h-1.1l.8,.7l.2,-.2l-.8,-.8l.1,1.1l1.4,-.1H672.7l1.4,.1l.1,-1.1l-.8,.8l.2,.2l.9,-.7h-1.1v68.9h1.1l-.9,-.7l-.2,.2l.8,.8l-.1,-1.1l-1.4,.1H571.6l-1.4,-.1l-.1,1.1l.8,-.8l-.8,.8l-.1,1l1.5,.2H672.9l1.5,-.2c.2,0,.5,-.1,.7,-.3l.2,-.3c.2,-.2,.3,-.4,.3,-.7V123c0,-.3,-.1,-.6,-.3,-.8l-.2,-.2c-.2,-.2,-.5,-.3,-.7,-.4l-1.5,-.1H571.5l-1.5,.1c-.3,.1,-.5,.2,-.7,.4l-.2,.2c-.2,.2,-.3,.5,-.3,.8v68.9c0,.3,.1,.5,.3,.7l.2,.3c.2,.2,.4,.3,.7,.3l.1,-1Z" class="ga_347"/>
<path d="M568.6,209.7l.1,-.4l-1.4,-.2h-.1l-1.4,-.3c-4.1,-1,-7.7,-3.5,-10,-7l-.8,-1.3l-.7,-1.3v-.1l-.6,-1.4l-.4,-1.5l-.3,-1.4l-.1,-1.4v-.2l-.1,-1.3V123l.1,-1.3v-.2l.1,-1.4l.3,-1.4l.4,-1.5l.6,-1.4v-.1l-.3,-.2l.3,.2l.7,-1.3c2.5,-4.6,7,-7.8,12.2,-8.6l.1,-.1l1.4,-.1l1.4,-.1H674.2l1.5,.1l1.4,.1v.1c5.2,.8,9.7,4,12.3,8.6l.6,1.3l.4,-.2l-.4,.2l.1,.1l.5,1.4l.4,1.5l.3,1.4l.2,1.4v71.9c-.2,1.9,-.6,4,-1.5,5.8l-.6,1.3l-.8,1.3l-.1,.2c-3.2,4.6,-8.6,7.4,-14.3,7.3H568.6v.4l.1,-.4l-.1,.4v.4H674.2c2.1,0,4.1,-.3,6,-1h.1l1.4,-.5c1.7,-.8,3.2,-1.7,4.5,-2.9v-.1l.3,-.2c3.8,-3.5,5.8,-8.4,5.8,-13.5V123l-.1,-1.3v-.2c-.5,-8.9,-7.6,-16,-16.5,-16.7H570.1c-9.5,-.1,-17.4,7.2,-18,16.7v70.4c-.1,4.4,1.4,8.7,4.3,12l.2,.3l1.2,1.2c1,.9,2.1,1.7,3.3,2.4l1.2,.6c1.5,.7,3.2,1.2,4.9,1.5l1.4,.2v-.4Z" class="g9_347"/>
<path d="M694.6,220.3l-1,.6c-1.5,1.1,-3.2,2,-4.8,2.8l-.4,.1l-1.1,.5l-1.4,.5l-1.5,.5l-1.4,.4l-1.5,.3l-1.4,.3l-1.5,.2l-1.4,.2h-1.5l-1.5,.1H570.1l-1.5,-.1h-1.4c-2.5,-.2,-4.9,-.7,-7.3,-1.4l-1.4,-.5l-1.5,-.5l-1,-.5l-.4,-.1c-1.7,-.8,-3.4,-1.7,-4.9,-2.8l-.9,-.6l-.5,.6l1,.7c5.4,3.6,11.8,5.7,18.3,5.9H674.3c7,.1,13.9,-2,19.8,-5.9l.9,-.7l-.4,-.6Z" class="g9_347"/>
<path d="M549.8,94.6l.9,-.7c1.5,-1,3.2,-1.9,4.9,-2.7L556,91l1,-.4l1.5,-.5l1.4,-.5c2.4,-.7,4.8,-1.2,7.3,-1.4l1.3,-.1H675.8l1.4,.1c2.4,.2,4.9,.7,7.2,1.4l1.5,.5l1.4,.5l1.1,.4l.4,.2c1.6,.8,3.3,1.7,4.8,2.7l1,.7L695,94l-.9,-.7c-5.5,-3.6,-11.9,-5.7,-18.4,-5.9H570.1c-7,-.1,-14,2,-19.8,5.9l-1,.7l.5,.6Z" class="g9_347"/>
<path d="M549.2,230.4h.7V84.5h-.7Z" class="g8_347"/>
<path d="M694.4,230.4h.8V84.5h-.8Z" class="g8_347"/>
<path d="M549.2,230.4h146v-.7h-146Z" class="g8_347"/>
<path d="M549.2,85.2h146v-.7h-146Z" class="g8_347"/>
<path d="M704.5,230.1h7.3V84.8h-7.3Z" class="g0_347"/>
<path d="M704.5,230.1h7.3V215.5h-7.3Z" class="gb_347"/>
<path d="M704.5,215.5h7.3V201h-7.3Z" class="gc_347"/>
<path d="M704.5,201h7.3V186.5h-7.3Z" class="gd_347"/>
<path d="M704.5,186.5h7.3V172h-7.3Z" class="ge_347"/>
<path d="M704.5,172h7.3V157.4h-7.3Z" class="g2_347"/>
<path d="M704.5,157.4h7.3V142.9h-7.3Z" class="g3_347"/>
<path d="M704.5,142.9h7.3V128.4h-7.3Z" class="g4_347"/>
<path d="M704.5,128.4h7.3V113.9h-7.3Z" class="g5_347"/>
<path d="M704.5,113.9h7.3V99.4h-7.3Z" class="g6_347"/>
<path d="M704.5,99.4h7.3V84.8h-7.3Z" class="g7_347"/>
<path d="M711.8,215.9h1.9v-.7h-1.9Z" class="g8_347"/>
<path d="M716.2,216.1h3.4v-.4h-3.4Z" class="g8_347"/>
<path d="M721.2,214.6c0,.2,0,.4,.2,.5c.1,.1,.3,.2,.5,.2c.2,0,.4,-.1,.6,-.2c.1,-.1,.2,-.3,.2,-.5c0,-.2,-.1,-.3,-.2,-.4c-.2,-.2,-.4,-.2,-.6,-.2c-.2,0,-.4,0,-.5,.2c-.2,.1,-.2,.2,-.2,.4Zm.2,.9c-.2,-.1,-.4,-.2,-.6,-.3c-.1,-.2,-.2,-.4,-.2,-.6c0,-.3,.2,-.6,.4,-.8c.2,-.1,.5,-.2,.9,-.2c.4,0,.7,.1,1,.2c.2,.2,.3,.5,.3,.8c0,.2,-.1,.4,-.2,.6c-.1,.1,-.3,.2,-.5,.3c.2,0,.4,.2,.6,.3c.1,.2,.2,.4,.2,.7c0,.4,-.1,.7,-.4,.9c-.2,.2,-.5,.3,-1,.3c-.4,0,-.8,-.1,-1,-.3c-.2,-.2,-.3,-.5,-.3,-.9c0,-.3,0,-.5,.2,-.7c.1,-.1,.3,-.3,.6,-.3Zm.5,.2c-.2,0,-.4,.1,-.6,.2c-.1,.2,-.2,.3,-.2,.6c0,.2,.1,.4,.2,.6c.2,.1,.4,.2,.6,.2c.3,0,.5,-.1,.6,-.2c.2,-.2,.2,-.4,.2,-.6c0,-.3,0,-.4,-.2,-.6c-.1,-.1,-.3,-.2,-.6,-.2Z" class="g8_347"/>
<path d="M711.8,186.9h1.9v-.8h-1.9Z" class="g8_347"/>
<path d="M716.2,187.1h3.4v-.5h-3.4Z" class="g8_347"/>
<path d="M722.1,184.6h.7v2.6h.6v.4h-.6v1h-.6v-1h-1.7v-.5l1.6,-2.5Zm.1,.5l-1.3,2.1h1.3v-2.1Z" class="g8_347"/>
<path d="M711.8,157.8h1.9v-.7h-1.9Z" class="g8_347"/>
<path d="M717.3,155.5c.5,0,.8,.1,1.1,.5c.2,.3,.3,.9,.3,1.5c0,.7,-.1,1.2,-.3,1.6c-.3,.3,-.6,.5,-1.1,.5c-.4,0,-.7,-.2,-1,-.5c-.2,-.4,-.3,-.9,-.3,-1.6c0,-.6,.1,-1.2,.3,-1.5c.3,-.4,.6,-.5,1,-.5Zm0,.4c-.2,0,-.4,.1,-.6,.4c-.1,.3,-.2,.7,-.2,1.2c0,.6,.1,1,.2,1.3c.2,.2,.4,.4,.6,.4c.3,0,.5,-.2,.7,-.4c.1,-.3,.2,-.7,.2,-1.3c0,-.5,-.1,-.9,-.2,-1.2c-.2,-.3,-.4,-.4,-.7,-.4Z" class="g8_347"/>
<path d="M711.8,128.8h1.9V128h-1.9Z" class="g8_347"/>
<path d="M717.5,126.5h.7v2.6h.6v.4h-.6v1h-.5v-1h-1.8V129l1.6,-2.5Zm.2,.5l-1.4,2.1h1.4V127Z" class="g8_347"/>
<path d="M711.8,99.7h1.9V99h-1.9Z" class="g8_347"/>
<path d="M716.6,98.5c0,.2,.1,.3,.2,.4c.1,.2,.3,.2,.5,.2c.3,0,.5,0,.6,-.2c.1,-.1,.2,-.2,.2,-.4c0,-.2,-.1,-.4,-.2,-.5c-.1,-.1,-.3,-.2,-.6,-.2c-.2,0,-.4,.1,-.5,.2c-.1,.1,-.2,.3,-.2,.5Zm.2,.8c-.2,0,-.4,-.2,-.5,-.3c-.2,-.2,-.2,-.4,-.2,-.6c0,-.3,.1,-.6,.3,-.7c.2,-.2,.6,-.3,.9,-.3c.4,0,.8,.1,1,.3c.2,.1,.3,.4,.3,.7c0,.2,0,.4,-.2,.6c-.1,.1,-.3,.3,-.5,.3c.2,.1,.5,.2,.6,.4c.1,.1,.2,.4,.2,.6c0,.4,-.1,.7,-.3,.9c-.3,.2,-.6,.3,-1.1,.3c-.4,0,-.7,-.1,-1,-.3c-.2,-.2,-.3,-.5,-.3,-.9c0,-.2,.1,-.5,.2,-.6c.1,-.2,.3,-.3,.6,-.4Zm.5,.2c-.2,0,-.4,.1,-.6,.2c-.1,.2,-.2,.4,-.2,.6c0,.2,.1,.4,.2,.6c.2,.1,.4,.2,.6,.2c.3,0,.5,-.1,.7,-.2c.1,-.2,.2,-.4,.2,-.6c0,-.2,-.1,-.4,-.2,-.6c-.2,-.1,-.4,-.2,-.7,-.2Z" class="g8_347"/>
<path d="M704.5,230.1v.3h7.7V84.5h-8V230.4h.3v-.3h.4V85.2h6.5V229.7h-6.9v.4h.4h-.4Z" class="g8_347"/>
<path d="M414.1,646.3h.3v-42h-.3Z" class="gf_347"/>
<path d="M389.9,624.6v3.2l-.3,-.1l-6.2,-2.9l-.4,-.2l.4,-.2l6.2,-2.9l.3,-.1v.3l-.1,.2l-6.3,2.9l-.1,-.4h.1l6.3,3l-.2,.3l-.1,-.2v-2.9Z" class="gf_347"/>
<path d="M389.5,624.6h.4v-2.9h-.4Z" class="gf_347"/>
<path d="M389.7,624.8h24.7v-.4H389.7Z" class="gf_347"/>
<path d="M392.1,707.5h.3V664.7h-.3Z" class="gf_347"/>
<path d="M122.9,836.9h.4V731.6h-.4Z" class="gf_347"/>
<path d="M138.9,731.6v-3.2l.3,.1l6.2,2.9l.4,.2l-.4,.2l-6.2,2.9l-.3,.1v-.3l.1,-.2l6.2,-2.9l.2,.4h-.2l-6.2,-3l.2,-.3v3.1Z" class="gf_347"/>
<path d="M138.9,734.5h.3v-2.9h-.3Z" class="gf_347"/>
<path d="M122.9,731.8h16.2v-.4H122.9Z" class="gf_347"/>
<path d="M385,788.8h.4v-56H385Z" class="gf_347"/>
<path d="M375.4,781.7h.3v-26h-.3Z" class="gf_347"/>
<path d="M385.2,776.3l.3,-.2l-9.7,-7.9l-.2,.2Z" class="gf_347"/>
</svg>