<?xml version="1.0" encoding="UTF-8" standalone="no"?>
<!DOCTYPE svg PUBLIC "-//W3C//DTD SVG 1.1//EN"
"http://www.w3.org/Graphics/SVG/1.1/DTD/svg11.dtd">
<svg viewBox="0 0 811 1017" version="1.1" xmlns="http://www.w3.org/2000/svg" xmlns:xlink="http://www.w3.org/1999/xlink">
<defs>
<style type="text/css"><![CDATA[
.g0_169{
fill: none;
stroke: #1F1F1F;
stroke-width: 0.759;
}
.g1_169{
fill: #040504;
}
.g2_169{
fill: none;
stroke: #090A09;
stroke-width: 1.306;
}
.g3_169{
fill: none;
stroke: #1F1F1F;
stroke-width: 1.306;
}
.g4_169{
fill: none;
stroke: #040504;
stroke-width: 0.759;
}
.g5_169{
fill: none;
stroke: #96CD75;
stroke-width: 1.32;
}
.g6_169{
fill: none;
stroke: #040504;
stroke-width: 0.759;
stroke-dasharray: 2,2;
}
]]></style>
</defs>
<path d="M308.2,288.4c0,41.9,-34,75.8,-75.8,75.8c-41.8,0,-75.8,-33.9,-75.8,-75.8c0,-41.8,34,-75.8,75.8,-75.8c41.8,0,75.8,34,75.8,75.8Z" class="g0_169"/>
<path d="M234.3,288.4c0,1.1,-.9,1.9,-1.9,1.9c-1,0,-1.9,-.8,-1.9,-1.9c0,-1,.9,-1.9,1.9,-1.9c1,0,1.9,.9,1.9,1.9Z" class="g1_169"/>
<path d="M234.3,288.4c0,1.1,-.9,1.9,-1.9,1.9c-1,0,-1.9,-.8,-1.9,-1.9c0,-1,.9,-1.9,1.9,-1.9c1,0,1.9,.9,1.9,1.9Z" class="g2_169"/>
<path d="M234.4,212.6c0,1.1,-.9,1.9,-1.9,1.9c-1.1,0,-1.9,-.8,-1.9,-1.9c0,-1,.8,-1.9,1.9,-1.9c1,0,1.9,.9,1.9,1.9Z" class="g1_169"/>
<path d="M234.4,212.6c0,1.1,-.9,1.9,-1.9,1.9c-1.1,0,-1.9,-.8,-1.9,-1.9c0,-1,.8,-1.9,1.9,-1.9c1,0,1.9,.9,1.9,1.9Z" class="g2_169"/>
<path d="M460,288.6c0,41.9,-33.9,75.8,-75.7,75.8c-41.9,0,-75.8,-33.9,-75.8,-75.8c0,-41.8,33.9,-75.7,75.8,-75.7c41.8,0,75.7,33.9,75.7,75.7Z" class="g0_169"/>
<path d="M386.2,288.6c0,1.1,-.9,1.9,-1.9,1.9c-1.1,0,-1.9,-.8,-1.9,-1.9c0,-1,.8,-1.9,1.9,-1.9c1,0,1.9,.9,1.9,1.9Z" class="g1_169"/>
<path d="M386.2,288.6c0,1.1,-.9,1.9,-1.9,1.9c-1.1,0,-1.9,-.8,-1.9,-1.9c0,-1,.8,-1.9,1.9,-1.9c1,0,1.9,.9,1.9,1.9Z" class="g3_169"/>
<path d="M385.3,364.3c0,1.1,-.9,1.9,-1.9,1.9c-1.1,0,-1.9,-.8,-1.9,-1.9c0,-1,.8,-1.8,1.9,-1.8c1,0,1.9,.8,1.9,1.8Z" class="g1_169"/>
<path d="M385.3,364.3c0,1.1,-.9,1.9,-1.9,1.9c-1.1,0,-1.9,-.8,-1.9,-1.9c0,-1,.8,-1.8,1.9,-1.8c1,0,1.9,.8,1.9,1.8Z" class="g3_169"/>
<path d="M282.5,212.6H232.4" class="g4_169"/>
<path d="M281,210.4l8.2,2.2l-8.2,2.2v-4.4Z" class="g1_169"/>
<path d="M333.8,364.2h50.1" class="g4_169"/>
<path d="M335.3,366.4l-8.2,-2.2l8.2,-2.2v4.4Z" class="g1_169"/>
<path d="M232.4,288.4H383.9" class="g4_169"/>
<path d="M383.5,364.1C363.3,364,344,355.9,329.9,341.5c-14.1,-14.4,-22,-33.9,-21.7,-54M232.3,212.6c41.8,0,75.8,33.8,75.9,75.7" class="g5_169"/>
<path d="M232.4,288.4l-.1,-75.8m151.6,75.8v75.8" class="g6_169"/>
</svg>