<?xml version="1.0" encoding="UTF-8" standalone="no"?>
<!DOCTYPE svg PUBLIC "-//W3C//DTD SVG 1.1//EN"
"http://www.w3.org/Graphics/SVG/1.1/DTD/svg11.dtd">
<svg viewBox="0 0 811 1017" version="1.1" xmlns="http://www.w3.org/2000/svg" xmlns:xlink="http://www.w3.org/1999/xlink">
<defs>
<style type="text/css"><![CDATA[
.g0_284{
fill: #FFF;
}
.g1_284{
fill: #1A78B6;
}
.g2_284{
fill: none;
stroke: #1A78B6;
stroke-width: 0.98;
stroke-linejoin: round;
}
.g3_284{
fill: none;
stroke: #B0B2B1;
stroke-width: 0.785;
stroke-linecap: square;
stroke-linejoin: round;
}
.g4_284{
fill: none;
stroke: #040504;
stroke-width: 0.785;
stroke-linejoin: round;
}
.g5_284{
fill: #040504;
}
.g6_284{
fill: none;
stroke: #1A78B6;
stroke-width: 1.472;
stroke-linecap: square;
stroke-linejoin: round;
}
.g7_284{
fill: none;
stroke: #040504;
stroke-width: 0.785;
stroke-linecap: square;
}
]]></style>
</defs>
<path d="M177.6,359.5H528V98.3H177.6Z" class="g0_284"/>
<path d="M193.5,297.6c.8,0,1.5,-.4,2.1,-.9c.5,-.6,.8,-1.3,.8,-2.1c0,-.8,-.3,-1.5,-.8,-2.1c-.6,-.5,-1.3,-.8,-2.1,-.8c-.8,0,-1.5,.3,-2.1,.8c-.5,.6,-.8,1.3,-.8,2.1c0,.8,.3,1.5,.8,2.1c.6,.5,1.3,.9,2.1,.9Z" class="g1_284"/>
<path d="M193.5,297.6c.8,0,1.5,-.4,2.1,-.9c.5,-.6,.8,-1.3,.8,-2.1c0,-.8,-.3,-1.5,-.8,-2.1c-.6,-.5,-1.3,-.8,-2.1,-.8c-.8,0,-1.5,.3,-2.1,.8c-.5,.6,-.8,1.3,-.8,2.1c0,.8,.3,1.5,.8,2.1c.6,.5,1.3,.9,2.1,.9Z" class="g2_284"/>
<path d="M273.1,244.6c.8,0,1.6,-.3,2.1,-.9c.6,-.6,.9,-1.3,.9,-2.1c0,-.8,-.3,-1.5,-.9,-2.1c-.5,-.5,-1.3,-.8,-2.1,-.8c-.7,0,-1.5,.3,-2,.8c-.6,.6,-.9,1.3,-.9,2.1c0,.8,.3,1.5,.9,2.1c.5,.6,1.3,.9,2,.9Z" class="g1_284"/>
<path d="M273.1,244.6c.8,0,1.6,-.3,2.1,-.9c.6,-.6,.9,-1.3,.9,-2.1c0,-.8,-.3,-1.5,-.9,-2.1c-.5,-.5,-1.3,-.8,-2.1,-.8c-.7,0,-1.5,.3,-2,.8c-.6,.6,-.9,1.3,-.9,2.1c0,.8,.3,1.5,.9,2.1c.5,.6,1.3,.9,2,.9Z" class="g2_284"/>
<path d="M352.8,297.6c.8,0,1.5,-.4,2.1,-.9c.5,-.6,.8,-1.3,.8,-2.1c0,-.8,-.3,-1.5,-.8,-2.1c-.6,-.5,-1.3,-.8,-2.1,-.8c-.8,0,-1.5,.3,-2.1,.8c-.5,.6,-.8,1.3,-.8,2.1c0,.8,.3,1.5,.8,2.1c.6,.5,1.3,.9,2.1,.9Z" class="g1_284"/>
<path d="M352.8,297.6c.8,0,1.5,-.4,2.1,-.9c.5,-.6,.8,-1.3,.8,-2.1c0,-.8,-.3,-1.5,-.8,-2.1c-.6,-.5,-1.3,-.8,-2.1,-.8c-.8,0,-1.5,.3,-2.1,.8c-.5,.6,-.8,1.3,-.8,2.1c0,.8,.3,1.5,.8,2.1c.6,.5,1.3,.9,2.1,.9Z" class="g2_284"/>
<path d="M432.4,138.6c.8,0,1.6,-.3,2.1,-.9c.6,-.5,.9,-1.3,.9,-2.1c0,-.7,-.3,-1.5,-.9,-2c-.5,-.6,-1.3,-.9,-2.1,-.9c-.7,0,-1.5,.3,-2,.9c-.6,.5,-.9,1.3,-.9,2c0,.8,.3,1.6,.9,2.1c.5,.6,1.3,.9,2,.9Z" class="g1_284"/>
<path d="M432.4,138.6c.8,0,1.6,-.3,2.1,-.9c.6,-.5,.9,-1.3,.9,-2.1c0,-.7,-.3,-1.5,-.9,-2c-.5,-.6,-1.3,-.9,-2.1,-.9c-.7,0,-1.5,.3,-2,.9c-.6,.5,-.9,1.3,-.9,2c0,.8,.3,1.6,.9,2.1c.5,.6,1.3,.9,2,.9Z" class="g2_284"/>
<path d="M512.1,350.5c.8,0,1.5,-.3,2.1,-.8c.5,-.6,.8,-1.3,.8,-2.1c0,-.8,-.3,-1.5,-.8,-2.1c-.6,-.5,-1.3,-.8,-2.1,-.8c-.8,0,-1.5,.3,-2.1,.8c-.5,.6,-.8,1.3,-.8,2.1c0,.8,.3,1.5,.8,2.1c.6,.5,1.3,.8,2.1,.8Z" class="g1_284"/>
<path d="M512.1,350.5c.8,0,1.5,-.3,2.1,-.8c.5,-.6,.8,-1.3,.8,-2.1c0,-.8,-.3,-1.5,-.8,-2.1c-.6,-.5,-1.3,-.8,-2.1,-.8c-.8,0,-1.5,.3,-2.1,.8c-.5,.6,-.8,1.3,-.8,2.1c0,.8,.3,1.5,.8,2.1c.6,.5,1.3,.8,2.1,.8Z" class="g2_284"/>
<path d="M193.5,359.5V98.3" class="g3_284"/>
<path d="M193.5,359.5v3.4" class="g4_284"/>
<path d="M188.8,366.5c.8,0,1.4,.3,1.8,1c.5,.6,.7,1.5,.7,2.7c0,1.2,-.2,2.2,-.7,2.8c-.4,.6,-1,.9,-1.8,.9c-.8,0,-1.4,-.3,-1.8,-.9c-.4,-.6,-.7,-1.6,-.7,-2.8c0,-1.2,.3,-2.1,.7,-2.7c.4,-.7,1,-1,1.8,-1Zm0,.8c-.5,0,-.9,.2,-1.1,.7c-.3,.5,-.4,1.2,-.4,2.2c0,1,.1,1.7,.4,2.2c.2,.5,.6,.8,1.1,.8c.5,0,.9,-.3,1.1,-.8c.3,-.5,.4,-1.2,.4,-2.2c0,-1,-.1,-1.7,-.4,-2.2c-.2,-.5,-.6,-.7,-1.1,-.7Z" class="g5_284"/>
<path d="M193,373.8h1v-1.2h-1Z" class="g5_284"/>
<path d="M198.2,366.5c.8,0,1.4,.3,1.8,1c.4,.6,.6,1.5,.6,2.7c0,1.2,-.2,2.2,-.6,2.8c-.4,.6,-1,.9,-1.8,.9c-.8,0,-1.4,-.3,-1.9,-.9c-.4,-.6,-.6,-1.6,-.6,-2.8c0,-1.2,.2,-2.1,.6,-2.7c.5,-.7,1.1,-1,1.9,-1Zm0,.8c-.5,0,-.9,.2,-1.2,.7c-.2,.5,-.3,1.2,-.3,2.2c0,1,.1,1.7,.3,2.2c.3,.5,.7,.8,1.2,.8c.5,0,.9,-.3,1.1,-.8c.3,-.5,.4,-1.2,.4,-2.2c0,-1,-.1,-1.7,-.4,-2.2c-.2,-.5,-.6,-.7,-1.1,-.7Z" class="g5_284"/>
<path d="M257.2,359.5V98.3" class="g3_284"/>
<path d="M257.2,359.5v3.4" class="g4_284"/>
<path d="M252.5,366.5c.8,0,1.4,.3,1.9,1c.4,.6,.6,1.5,.6,2.7c0,1.2,-.2,2.2,-.6,2.8c-.5,.6,-1.1,.9,-1.9,.9c-.8,0,-1.4,-.3,-1.8,-.9c-.4,-.6,-.6,-1.6,-.6,-2.8c0,-1.2,.2,-2.1,.6,-2.7c.4,-.7,1,-1,1.8,-1Zm0,.8c-.5,0,-.8,.2,-1.1,.7c-.2,.5,-.4,1.2,-.4,2.2c0,1,.2,1.7,.4,2.2c.3,.5,.6,.8,1.1,.8c.5,0,.9,-.3,1.2,-.8c.2,-.5,.3,-1.2,.3,-2.2c0,-1,-.1,-1.7,-.3,-2.2c-.3,-.5,-.7,-.7,-1.2,-.7Z" class="g5_284"/>
<path d="M256.7,373.8h1v-1.2h-1Z" class="g5_284"/>
<path d="M260.7,373H264v.8h-4.5V373c.4,-.4,.9,-.9,1.5,-1.5c.6,-.7,1,-1.1,1.2,-1.3c.3,-.3,.5,-.6,.6,-.9c.2,-.2,.2,-.5,.2,-.7c0,-.4,-.1,-.7,-.4,-.9c-.2,-.3,-.6,-.4,-1,-.4c-.3,0,-.6,.1,-1,.2c-.3,.1,-.7,.2,-1.1,.5v-1c.4,-.2,.8,-.3,1.1,-.4c.4,0,.7,-.1,1,-.1c.7,0,1.3,.2,1.7,.6c.5,.3,.7,.8,.7,1.5c0,.2,-.1,.5,-.2,.8c-.1,.3,-.3,.6,-.6,.9c0,.1,-.3,.4,-.7,.8c-.5,.5,-1.1,1.1,-1.8,1.9Z" class="g5_284"/>
<path d="M320.9,359.5V98.3" class="g3_284"/>
<path d="M320.9,359.5v3.4" class="g4_284"/>
<path d="M316.3,366.5c.8,0,1.4,.3,1.8,1c.4,.6,.6,1.5,.6,2.7c0,1.2,-.2,2.2,-.6,2.8c-.4,.6,-1,.9,-1.8,.9c-.8,0,-1.5,-.3,-1.9,-.9c-.4,-.6,-.6,-1.6,-.6,-2.8c0,-1.2,.2,-2.1,.6,-2.7c.4,-.7,1.1,-1,1.9,-1Zm0,.8c-.5,0,-.9,.2,-1.2,.7c-.2,.5,-.3,1.2,-.3,2.2c0,1,.1,1.7,.3,2.2c.3,.5,.7,.8,1.2,.8c.5,0,.8,-.3,1.1,-.8c.2,-.5,.4,-1.2,.4,-2.2c0,-1,-.2,-1.7,-.4,-2.2c-.3,-.5,-.6,-.7,-1.1,-.7Z" class="g5_284"/>
<path d="M320.4,373.8h1v-1.2h-1Z" class="g5_284"/>
<path d="M326,366.6h1.2v4.7h1v.8h-1v1.7h-1v-1.7H323v-.9l3,-4.6Zm.2,.9l-2.4,3.8h2.4v-3.8Z" class="g5_284"/>
<path d="M384.7,359.5V98.3" class="g3_284"/>
<path d="M384.7,359.5v3.4" class="g4_284"/>
<path d="M380,366.5c.8,0,1.4,.3,1.8,1c.4,.6,.6,1.5,.6,2.7c0,1.2,-.2,2.2,-.6,2.8c-.4,.6,-1,.9,-1.8,.9c-.8,0,-1.4,-.3,-1.9,-.9c-.4,-.6,-.6,-1.6,-.6,-2.8c0,-1.2,.2,-2.1,.6,-2.7c.5,-.7,1.1,-1,1.9,-1Zm0,.8c-.5,0,-.9,.2,-1.1,.7c-.3,.5,-.4,1.2,-.4,2.2c0,1,.1,1.7,.4,2.2c.2,.5,.6,.8,1.1,.8c.5,0,.9,-.3,1.1,-.8c.3,-.5,.4,-1.2,.4,-2.2c0,-1,-.1,-1.7,-.4,-2.2c-.2,-.5,-.6,-.7,-1.1,-.7Z" class="g5_284"/>
<path d="M384.1,373.8h1.1v-1.2h-1.1Z" class="g5_284"/>
<path d="M391.4,366.8v.9c-.3,-.1,-.5,-.2,-.8,-.3c-.2,0,-.4,-.1,-.7,-.1c-.6,0,-1.1,.2,-1.5,.7c-.3,.4,-.5,1.1,-.5,1.9c.2,-.3,.4,-.5,.7,-.6c.3,-.2,.6,-.2,.9,-.2c.7,0,1.3,.2,1.7,.6c.4,.5,.6,1,.6,1.8c0,.7,-.2,1.3,-.6,1.8c-.4,.4,-1,.6,-1.7,.6c-.9,0,-1.5,-.3,-1.9,-.9c-.5,-.6,-.7,-1.6,-.7,-2.8c0,-1.1,.3,-2,.8,-2.7c.5,-.7,1.3,-1,2.2,-1c.2,0,.5,0,.7,.1c.3,0,.5,.1,.8,.2Zm-1.9,3c-.5,0,-.8,.2,-1.1,.5c-.2,.3,-.4,.7,-.4,1.2c0,.5,.2,.9,.4,1.2c.3,.3,.6,.5,1.1,.5c.4,0,.7,-.2,1,-.5c.2,-.3,.4,-.7,.4,-1.2c0,-.5,-.2,-.9,-.4,-1.2c-.3,-.3,-.6,-.5,-1,-.5Z" class="g5_284"/>
<path d="M448.4,359.5V98.3" class="g3_284"/>
<path d="M448.4,359.5v3.4" class="g4_284"/>
<path d="M443.7,366.5c.8,0,1.4,.3,1.8,1c.5,.6,.7,1.5,.7,2.7c0,1.2,-.2,2.2,-.7,2.8c-.4,.6,-1,.9,-1.8,.9c-.8,0,-1.4,-.3,-1.8,-.9c-.5,-.6,-.7,-1.6,-.7,-2.8c0,-1.2,.2,-2.1,.7,-2.7c.4,-.7,1,-1,1.8,-1Zm0,.8c-.5,0,-.9,.2,-1.1,.7c-.3,.5,-.4,1.2,-.4,2.2c0,1,.1,1.7,.4,2.2c.2,.5,.6,.8,1.1,.8c.5,0,.9,-.3,1.1,-.8c.3,-.5,.4,-1.2,.4,-2.2c0,-1,-.1,-1.7,-.4,-2.2c-.2,-.5,-.6,-.7,-1.1,-.7Z" class="g5_284"/>
<path d="M447.9,373.8h1v-1.2h-1Z" class="g5_284"/>
<path d="M451.7,368.5c0,.3,.2,.6,.4,.8c.2,.2,.5,.3,1,.3c.4,0,.7,-.1,.9,-.3c.3,-.2,.4,-.5,.4,-.8c0,-.4,-.1,-.7,-.4,-.9c-.2,-.2,-.5,-.3,-.9,-.3c-.5,0,-.8,.1,-1,.3c-.2,.2,-.4,.5,-.4,.9Zm.4,1.5c-.4,-.1,-.7,-.3,-1,-.6c-.2,-.3,-.3,-.6,-.3,-1c0,-.6,.2,-1.1,.6,-1.4c.4,-.3,1,-.5,1.7,-.5c.7,0,1.2,.2,1.6,.5c.4,.3,.6,.8,.6,1.4c0,.4,-.1,.7,-.3,1c-.2,.3,-.6,.5,-1,.6c.5,.1,.9,.3,1.1,.6c.3,.3,.4,.7,.4,1.2c0,.7,-.2,1.2,-.6,1.6c-.4,.3,-1.1,.5,-1.8,.5c-.8,0,-1.4,-.2,-1.9,-.5c-.4,-.4,-.6,-.9,-.6,-1.6c0,-.5,.1,-.9,.4,-1.2c.3,-.3,.6,-.5,1.1,-.6Zm1,.4c-.5,0,-.9,.1,-1.1,.4c-.3,.2,-.4,.6,-.4,1c0,.4,.1,.8,.4,1c.2,.2,.6,.4,1.1,.4c.4,0,.8,-.2,1,-.4c.3,-.3,.4,-.6,.4,-1c0,-.4,-.1,-.8,-.3,-1c-.3,-.3,-.7,-.4,-1.1,-.4Z" class="g5_284"/>
<path d="M512.1,359.5V98.3" class="g3_284"/>
<path d="M512.1,359.5v3.4" class="g4_284"/>
<path d="M505.5,373h1.6v-5.5l-1.7,.4V367l1.7,-.4h1V373h1.5v.8h-4.1V373Z" class="g5_284"/>
<path d="M511.6,373.8h1v-1.2h-1Z" class="g5_284"/>
<path d="M516.8,366.5c.8,0,1.4,.3,1.8,1c.4,.6,.7,1.5,.7,2.7c0,1.2,-.3,2.2,-.7,2.8c-.4,.6,-1,.9,-1.8,.9c-.8,0,-1.4,-.3,-1.9,-.9c-.4,-.6,-.6,-1.6,-.6,-2.8c0,-1.2,.2,-2.1,.6,-2.7c.5,-.7,1.1,-1,1.9,-1Zm0,.8c-.5,0,-.9,.2,-1.1,.7c-.3,.5,-.4,1.2,-.4,2.2c0,1,.1,1.7,.4,2.2c.2,.5,.6,.8,1.1,.8c.5,0,.9,-.3,1.1,-.8c.3,-.5,.4,-1.2,.4,-2.2c0,-1,-.1,-1.7,-.4,-2.2c-.2,-.5,-.6,-.7,-1.1,-.7Z" class="g5_284"/>
<path d="M350.8,381.8H355v.9l-3.4,3.8H355v.7h-4.4v-.8l3.4,-3.8h-3.2v-.8Z" class="g5_284"/>
<path d="M177.6,347.6H528" class="g3_284"/>
<path d="M177.6,347.6h-3.5" class="g4_284"/>
<path d="M158.2,344c.8,0,1.4,.4,1.8,1c.5,.6,.7,1.6,.7,2.8c0,1.2,-.2,2.1,-.7,2.7c-.4,.7,-1,1,-1.8,1c-.8,0,-1.4,-.3,-1.8,-1c-.5,-.6,-.7,-1.5,-.7,-2.7c0,-1.2,.2,-2.2,.7,-2.8c.4,-.6,1,-1,1.8,-1Zm0,.8c-.5,0,-.9,.3,-1.1,.7c-.3,.5,-.4,1.3,-.4,2.3c0,.9,.1,1.7,.4,2.2c.2,.5,.6,.7,1.1,.7c.5,0,.9,-.2,1.1,-.7c.3,-.5,.4,-1.3,.4,-2.2c0,-1,-.1,-1.8,-.4,-2.3c-.2,-.4,-.6,-.7,-1.1,-.7Z" class="g5_284"/>
<path d="M162.4,351.3h1v-1.2h-1Z" class="g5_284"/>
<path d="M167.6,344c.8,0,1.4,.4,1.8,1c.4,.6,.6,1.6,.6,2.8c0,1.2,-.2,2.1,-.6,2.7c-.4,.7,-1,1,-1.8,1c-.8,0,-1.4,-.3,-1.9,-1c-.4,-.6,-.6,-1.5,-.6,-2.7c0,-1.2,.2,-2.2,.6,-2.8c.5,-.6,1.1,-1,1.9,-1Zm0,.8c-.5,0,-.9,.3,-1.2,.7c-.2,.5,-.3,1.3,-.3,2.3c0,.9,.1,1.7,.3,2.2c.3,.5,.7,.7,1.2,.7c.5,0,.8,-.2,1.1,-.7c.3,-.5,.4,-1.3,.4,-2.2c0,-1,-.1,-1.8,-.4,-2.3c-.3,-.4,-.6,-.7,-1.1,-.7Z" class="g5_284"/>
<path d="M177.6,294.6H528" class="g3_284"/>
<path d="M177.6,294.6h-3.5" class="g4_284"/>
<path d="M158.2,291.1c.8,0,1.4,.3,1.8,.9c.5,.6,.7,1.6,.7,2.8c0,1.2,-.2,2.1,-.7,2.7c-.4,.7,-1,1,-1.8,1c-.8,0,-1.4,-.3,-1.8,-1c-.5,-.6,-.7,-1.5,-.7,-2.7c0,-1.2,.2,-2.2,.7,-2.8c.4,-.6,1,-.9,1.8,-.9Zm0,.7c-.5,0,-.9,.3,-1.1,.8c-.3,.4,-.4,1.2,-.4,2.2c0,.9,.1,1.7,.4,2.2c.2,.5,.6,.7,1.1,.7c.5,0,.9,-.2,1.1,-.7c.3,-.5,.4,-1.3,.4,-2.2c0,-1,-.1,-1.8,-.4,-2.2c-.2,-.5,-.6,-.8,-1.1,-.8Z" class="g5_284"/>
<path d="M162.4,298.3h1v-1.2h-1Z" class="g5_284"/>
<path d="M166.3,297.5h3.4v.8h-4.5v-.8c.3,-.4,.8,-.9,1.5,-1.5c.6,-.7,1,-1.1,1.2,-1.2c.3,-.4,.5,-.7,.6,-.9c.1,-.3,.2,-.5,.2,-.7c0,-.4,-.1,-.7,-.4,-1c-.3,-.2,-.6,-.3,-1,-.3c-.3,0,-.7,0,-1,.1c-.3,.1,-.7,.3,-1.1,.5v-1c.4,-.1,.8,-.2,1.1,-.3c.4,-.1,.7,-.1,.9,-.1c.8,0,1.4,.1,1.8,.5c.5,.4,.7,.9,.7,1.5c0,.3,-.1,.6,-.2,.8c-.1,.3,-.3,.6,-.6,1c-.1,.1,-.3,.3,-.8,.8c-.4,.4,-1,1,-1.8,1.8Z" class="g5_284"/>
<path d="M177.6,241.6H528" class="g3_284"/>
<path d="M177.6,241.6h-3.5" class="g4_284"/>
<path d="M158.2,238.1c.8,0,1.4,.3,1.8,.9c.5,.6,.7,1.6,.7,2.8c0,1.2,-.2,2.1,-.7,2.7c-.4,.7,-1,1,-1.8,1c-.8,0,-1.4,-.3,-1.8,-1c-.5,-.6,-.7,-1.5,-.7,-2.7c0,-1.2,.2,-2.2,.7,-2.8c.4,-.6,1,-.9,1.8,-.9Zm0,.7c-.5,0,-.9,.3,-1.1,.8c-.3,.5,-.4,1.2,-.4,2.2c0,1,.1,1.7,.4,2.2c.2,.5,.6,.7,1.1,.7c.5,0,.9,-.2,1.1,-.7c.3,-.5,.4,-1.2,.4,-2.2c0,-1,-.1,-1.7,-.4,-2.2c-.2,-.5,-.6,-.8,-1.1,-.8Z" class="g5_284"/>
<path d="M162.4,245.3h1v-1.2h-1Z" class="g5_284"/>
<path d="M167.9,238.2h1.2v4.7h1v.8h-1v1.6h-.9v-1.6h-3.3v-1l3,-4.5Zm.3,.8l-2.5,3.9h2.5V239Z" class="g5_284"/>
<path d="M177.6,188.6H528" class="g3_284"/>
<path d="M177.6,188.6h-3.5" class="g4_284"/>
<path d="M158.2,185.1c.8,0,1.4,.3,1.8,.9c.5,.7,.7,1.6,.7,2.8c0,1.2,-.2,2.1,-.7,2.7c-.4,.7,-1,1,-1.8,1c-.8,0,-1.4,-.3,-1.8,-1c-.5,-.6,-.7,-1.5,-.7,-2.7c0,-1.2,.2,-2.1,.7,-2.8c.4,-.6,1,-.9,1.8,-.9Zm0,.7c-.5,0,-.9,.3,-1.1,.8c-.3,.5,-.4,1.2,-.4,2.2c0,1,.1,1.7,.4,2.2c.2,.5,.6,.7,1.1,.7c.5,0,.9,-.2,1.1,-.7c.3,-.5,.4,-1.2,.4,-2.2c0,-1,-.1,-1.7,-.4,-2.2c-.2,-.5,-.6,-.8,-1.1,-.8Z" class="g5_284"/>
<path d="M162.4,192.4h1v-1.3h-1Z" class="g5_284"/>
<path d="M169.6,185.4v.8c-.2,-.1,-.5,-.2,-.7,-.2c-.3,-.1,-.5,-.1,-.8,-.1c-.6,0,-1.1,.2,-1.4,.6c-.4,.5,-.6,1.1,-.6,2c.2,-.3,.4,-.5,.7,-.7c.3,-.1,.6,-.2,1,-.2c.7,0,1.2,.2,1.7,.7c.4,.4,.6,1,.6,1.8c0,.7,-.2,1.3,-.7,1.7c-.4,.5,-1,.7,-1.7,.7c-.8,0,-1.5,-.3,-1.9,-1c-.4,-.6,-.7,-1.5,-.7,-2.7c0,-1.1,.3,-2,.8,-2.7c.6,-.7,1.3,-1,2.2,-1c.2,0,.5,0,.7,0c.3,.1,.5,.2,.8,.3Zm-1.9,3c-.4,0,-.8,.1,-1,.4c-.3,.3,-.4,.7,-.4,1.3c0,.5,.1,.9,.4,1.2c.2,.3,.6,.4,1,.4c.4,0,.8,-.1,1,-.4c.3,-.3,.4,-.7,.4,-1.2c0,-.6,-.1,-1,-.4,-1.3c-.2,-.3,-.6,-.4,-1,-.4Z" class="g5_284"/>
<path d="M177.6,135.6H528" class="g3_284"/>
<path d="M177.6,135.6h-3.5" class="g4_284"/>
<path d="M158.2,132.1c.8,0,1.4,.3,1.8,.9c.5,.7,.7,1.6,.7,2.8c0,1.2,-.2,2.1,-.7,2.7c-.4,.7,-1,1,-1.8,1c-.8,0,-1.4,-.3,-1.8,-1c-.5,-.6,-.7,-1.5,-.7,-2.7c0,-1.2,.2,-2.1,.7,-2.8c.4,-.6,1,-.9,1.8,-.9Zm0,.7c-.5,0,-.9,.3,-1.1,.8c-.3,.5,-.4,1.2,-.4,2.2c0,1,.1,1.7,.4,2.2c.2,.5,.6,.7,1.1,.7c.5,0,.9,-.2,1.1,-.7c.3,-.5,.4,-1.2,.4,-2.2c0,-1,-.1,-1.7,-.4,-2.2c-.2,-.5,-.6,-.8,-1.1,-.8Z" class="g5_284"/>
<path d="M162.4,139.4h1v-1.3h-1Z" class="g5_284"/>
<path d="M166.2,134c0,.4,.2,.7,.4,.9c.2,.2,.6,.3,1,.3c.4,0,.7,-.1,.9,-.3c.3,-.2,.4,-.5,.4,-.9c0,-.3,-.1,-.6,-.4,-.8c-.2,-.3,-.5,-.4,-.9,-.4c-.4,0,-.8,.1,-1,.4c-.2,.2,-.4,.5,-.4,.8Zm.4,1.6c-.4,-.2,-.7,-.3,-1,-.6c-.2,-.3,-.3,-.7,-.3,-1.1c0,-.5,.2,-1,.6,-1.3c.4,-.4,1,-.5,1.7,-.5c.7,0,1.2,.1,1.6,.5c.5,.3,.7,.8,.7,1.3c0,.4,-.2,.8,-.4,1.1c-.2,.3,-.5,.4,-1,.6c.5,.1,.9,.3,1.1,.6c.3,.3,.4,.7,.4,1.1c0,.7,-.2,1.3,-.6,1.6c-.4,.4,-1,.6,-1.8,.6c-.8,0,-1.4,-.2,-1.8,-.6c-.5,-.3,-.7,-.9,-.7,-1.6c0,-.4,.1,-.8,.4,-1.1c.3,-.3,.6,-.5,1.1,-.6Zm1,.4c-.5,0,-.9,.1,-1.1,.3c-.3,.3,-.4,.6,-.4,1c0,.5,.1,.8,.4,1.1c.2,.2,.6,.3,1.1,.3c.4,0,.8,-.1,1.1,-.3c.2,-.3,.4,-.6,.4,-1.1c0,-.4,-.2,-.7,-.4,-1c-.3,-.2,-.7,-.3,-1.1,-.3Z" class="g5_284"/>
<path d="M144.6,226.9c-.1,.1,-.1,.2,-.1,.3c-.1,.1,-.1,.2,-.1,.4c0,.5,.2,.9,.5,1.1c.3,.3,.8,.4,1.4,.4h2.8v.9h-5.3v-.9h.8c-.3,-.2,-.6,-.4,-.7,-.7c-.2,-.3,-.3,-.6,-.3,-1v-.1q0,-.1,0,-.2c0,-.1,.1,-.1,.1,-.2h.9Z" class="g5_284"/>
<path d="M193.5,294.6l3.2,-16.5l3.2,-14.6c42.7,-180.9,86.5,85.9,149.7,33.9l3.2,-2.8l3.2,-3.2l3.2,-3.7l3.2,-4.1c10.3,-14.2,18.2,-30.6,25.4,-46.5l3.2,-7.2l3.2,-7.3c9.7,-22.5,18.6,-45.4,28.7,-67.6l3.2,-6.8l3.2,-6.5l3.2,-6.1l3.1,-5.5c5.3,-8.6,16.7,-27,28.7,-17.1l3.2,3.2l3.2,4.6l3.2,6l3.2,7.6l3.1,9.1l3.2,10.9l3.2,12.7l3.2,14.7l3.2,16.7l3.2,18.8l3.2,21.1l3.1,23.4l3.2,26l3.2,28.5l3.2,31.3" class="g6_284"/>
<path d="M177.6,359.5V98.3M528,359.5V98.3M177.6,359.5H528M177.6,98.3H528" class="g7_284"/>
<path d="M288,83.8h7.2v1h-3v7.6H291V84.8h-3v-1Z" class="g5_284"/>
<path d="M301.7,88.5v3.9h-1.1V88.6c0,-.6,-.1,-1.1,-.3,-1.4c-.3,-.3,-.6,-.4,-1.1,-.4c-.6,0,-1,.1,-1.4,.5c-.3,.4,-.5,.9,-.5,1.5v3.6h-1V83.5h1V87c.3,-.4,.6,-.7,.9,-.9c.4,-.2,.8,-.3,1.2,-.3c.8,0,1.3,.3,1.7,.7c.4,.5,.6,1.2,.6,2Z" class="g5_284"/>
<path d="M308.2,88.6c0,-.5,-.1,-1,-.5,-1.4c-.3,-.3,-.7,-.5,-1.2,-.5c-.6,0,-1.1,.2,-1.4,.5c-.4,.4,-.6,.8,-.6,1.4h3.7Zm1.1,.3v.6h-4.9c.1,.7,.3,1.2,.7,1.6c.4,.4,.9,.6,1.6,.6c.4,0,.8,-.1,1.2,-.2c.4,-.1,.8,-.2,1.1,-.4v1c-.3,.2,-.7,.3,-1.1,.4c-.4,.1,-.8,.1,-1.2,.1c-1.1,0,-1.9,-.3,-2.5,-.9c-.6,-.6,-.9,-1.4,-.9,-2.4c0,-1.1,.3,-1.9,.9,-2.5c.5,-.7,1.3,-1,2.3,-1c.8,0,1.5,.3,2,.9c.5,.5,.8,1.3,.8,2.2Z" class="g5_284"/>
<path d="M319.8,87.2c.2,-.5,.6,-.8,.9,-1c.4,-.3,.8,-.4,1.3,-.4c.7,0,1.2,.3,1.6,.7c.3,.5,.5,1.2,.5,2v3.9h-1V88.6c0,-.6,-.1,-1.1,-.4,-1.4c-.2,-.3,-.5,-.4,-1,-.4c-.5,0,-.9,.1,-1.3,.5c-.3,.4,-.4,.9,-.4,1.5v3.6h-1.1V88.6c0,-.6,-.1,-1.1,-.3,-1.4c-.2,-.3,-.6,-.4,-1,-.4c-.6,0,-1,.1,-1.3,.5c-.3,.4,-.5,.9,-.5,1.5v3.6h-1.1V86h1.1v1c.2,-.4,.5,-.7,.9,-.9c.3,-.2,.7,-.3,1.2,-.3c.4,0,.8,.2,1.2,.4c.3,.2,.5,.6,.7,1Z" class="g5_284"/>
<path d="M328.8,85.8v0Zm-2.7,4.1V86h1.1v3.8c0,.7,.1,1.1,.3,1.4c.3,.3,.6,.5,1.1,.5c.6,0,1,-.2,1.4,-.6c.3,-.3,.5,-.8,.5,-1.5V86h1v6.4h-1v-1c-.3,.4,-.6,.7,-.9,.9c-.4,.2,-.8,.3,-1.2,.3c-.7,0,-1.3,-.2,-1.7,-.7c-.4,-.5,-.6,-1.1,-.6,-2Z" class="g5_284"/>
<path d="M337.8,86.2v1c-.3,-.2,-.6,-.3,-.9,-.4c-.3,0,-.7,-.1,-1,-.1c-.5,0,-.9,.1,-1.2,.3c-.3,.1,-.4,.4,-.4,.7c0,.2,.1,.4,.3,.6c.2,.1,.5,.2,1.1,.4h.4c.7,.2,1.3,.4,1.6,.7c.3,.3,.5,.7,.5,1.2c0,.6,-.3,1.1,-.8,1.5c-.4,.3,-1.1,.5,-1.9,.5c-.4,0,-.7,0,-1.1,-.1c-.4,-.1,-.8,-.2,-1.2,-.3V91.1c.4,.2,.8,.4,1.2,.5c.4,.1,.7,.1,1.1,.1c.5,0,.9,-.1,1.2,-.2c.2,-.2,.4,-.5,.4,-.8c0,-.3,-.1,-.5,-.3,-.6c-.2,-.2,-.6,-.3,-1.3,-.5l-.4,-.1c-.6,-.1,-1.1,-.3,-1.4,-.6c-.3,-.3,-.4,-.7,-.4,-1.2c0,-.6,.2,-1,.6,-1.4c.5,-.3,1.1,-.5,1.9,-.5c.3,0,.7,.1,1.1,.1c.3,.1,.6,.2,.9,.3Z" class="g5_284"/>
<path d="M345.2,88.5v3.9h-1.1V88.6c0,-.6,-.1,-1.1,-.3,-1.4c-.3,-.3,-.6,-.4,-1.1,-.4c-.6,0,-1,.1,-1.3,.5c-.4,.4,-.5,.9,-.5,1.5v3.6h-1.1V83.5h1.1V87c.2,-.4,.5,-.7,.9,-.9c.3,-.2,.7,-.3,1.1,-.3c.8,0,1.3,.3,1.7,.7c.4,.5,.6,1.2,.6,2Z" class="g5_284"/>
<path d="M351,87c-.1,-.1,-.2,-.1,-.4,-.2c-.1,0,-.2,0,-.4,0c-.6,0,-1.1,.2,-1.4,.6c-.3,.3,-.5,.9,-.5,1.6v3.4h-1V86h1v1c.2,-.4,.5,-.7,.9,-.9c.4,-.2,.8,-.3,1.3,-.3q.1,0,.2,0c.1,.1,.2,.1,.3,.1V87Z" class="g5_284"/>
<path d="M354.4,85.8c.9,0,1.6,.3,2.1,.9c.6,.6,.8,1.5,.8,2.5c0,1.1,-.2,1.9,-.8,2.5c-.5,.6,-1.2,.9,-2.1,.9c-.9,0,-1.7,-.3,-2.2,-.9c-.5,-.6,-.8,-1.4,-.8,-2.5c0,-1,.3,-1.9,.8,-2.5c.5,-.6,1.3,-.9,2.2,-.9Zm0,.9c-.6,0,-1,.3,-1.4,.7c-.3,.4,-.5,1,-.5,1.8c0,.8,.2,1.4,.5,1.8c.4,.5,.8,.7,1.4,.7c.5,0,1,-.2,1.3,-.7c.3,-.4,.5,-1,.5,-1.8c0,-.8,-.2,-1.4,-.5,-1.8c-.3,-.4,-.8,-.7,-1.3,-.7Z" class="g5_284"/>
<path d="M361.6,85.8c.9,0,1.6,.3,2.1,.9c.6,.6,.8,1.5,.8,2.5c0,1.1,-.2,1.9,-.8,2.5c-.5,.6,-1.2,.9,-2.1,.9c-.9,0,-1.7,-.3,-2.2,-.9c-.5,-.6,-.8,-1.4,-.8,-2.5c0,-1,.3,-1.9,.8,-2.5c.5,-.6,1.3,-.9,2.2,-.9Zm0,.9c-.6,0,-1,.3,-1.4,.7c-.3,.4,-.5,1,-.5,1.8c0,.8,.2,1.4,.5,1.8c.4,.5,.8,.7,1.4,.7c.5,0,1,-.2,1.3,-.7c.3,-.4,.5,-1,.5,-1.8c0,-.8,-.2,-1.4,-.5,-1.8c-.3,-.4,-.8,-.7,-1.3,-.7Z" class="g5_284"/>
<path d="M371.3,87.2c.3,-.5,.6,-.8,1,-1c.3,-.3,.8,-.4,1.3,-.4c.6,0,1.1,.3,1.5,.7c.4,.5,.6,1.2,.6,2v3.9h-1.1V88.6c0,-.6,-.1,-1.1,-.3,-1.4c-.3,-.3,-.6,-.4,-1,-.4c-.6,0,-1,.1,-1.3,.5c-.4,.4,-.5,.9,-.5,1.5v3.6h-1.1V88.6c0,-.6,-.1,-1.1,-.3,-1.4c-.2,-.3,-.6,-.4,-1,-.4c-.6,0,-1,.1,-1.3,.5c-.3,.4,-.5,.9,-.5,1.5v3.6h-1.1V86h1.1v1c.3,-.4,.5,-.7,.9,-.9c.3,-.2,.7,-.3,1.2,-.3c.5,0,.8,.2,1.2,.4c.3,.2,.5,.6,.7,1Z" class="g5_284"/>
<path d="M386.1,89.2c0,-.8,-.1,-1.4,-.5,-1.8c-.3,-.5,-.7,-.7,-1.3,-.7c-.5,0,-1,.2,-1.3,.7c-.3,.4,-.5,1,-.5,1.8c0,.8,.2,1.4,.5,1.8c.3,.5,.8,.7,1.3,.7c.6,0,1,-.2,1.3,-.7c.4,-.4,.5,-1,.5,-1.8Zm-3.6,2.3v3.4h-1V86h1v1c.3,-.4,.5,-.7,.9,-.9c.3,-.2,.7,-.3,1.2,-.3c.8,0,1.4,.3,1.9,1c.5,.6,.7,1.4,.7,2.4c0,1,-.2,1.8,-.7,2.5c-.5,.6,-1.1,.9,-1.9,.9c-.5,0,-.9,-.1,-1.2,-.3c-.4,-.2,-.6,-.5,-.9,-.8Z" class="g5_284"/>
<path d="M392.7,87c-.1,-.1,-.2,-.1,-.4,-.2c-.1,0,-.3,0,-.4,0c-.6,0,-1.1,.2,-1.4,.6c-.3,.3,-.5,.9,-.5,1.6v3.4h-1.1V86H390v1c.2,-.4,.5,-.7,.9,-.9c.3,-.2,.8,-.3,1.3,-.3c0,0,.1,0,.2,0c.1,.1,.2,.1,.3,.1V87Z" class="g5_284"/>
<path d="M396.1,85.8c.9,0,1.6,.3,2.1,.9c.5,.6,.8,1.5,.8,2.5c0,1.1,-.3,1.9,-.8,2.5c-.5,.6,-1.2,.9,-2.1,.9c-1,0,-1.7,-.3,-2.2,-.9c-.5,-.6,-.8,-1.4,-.8,-2.5c0,-1,.3,-1.9,.8,-2.5c.5,-.6,1.2,-.9,2.2,-.9Zm0,.9c-.6,0,-1.1,.3,-1.4,.7c-.3,.4,-.5,1,-.5,1.8c0,.8,.2,1.4,.5,1.8c.3,.5,.8,.7,1.4,.7c.5,0,1,-.2,1.3,-.7c.3,-.4,.5,-1,.5,-1.8c0,-.8,-.2,-1.4,-.5,-1.8c-.3,-.4,-.8,-.7,-1.3,-.7Z" class="g5_284"/>
<path d="M404,83.5v.9h-1c-.4,0,-.6,0,-.8,.2c-.1,.1,-.2,.4,-.2,.8V86h1.7v.8H402v5.6h-1.1V86.8h-1V86h1v-.5c0,-.7,.2,-1.2,.5,-1.5c.3,-.3,.8,-.5,1.4,-.5H404Z" class="g5_284"/>
<path d="M404.9,83.5H406v1.3h-1.1Zm0,2.5H406v6.4h-1.1Z" class="g5_284"/>
<path d="M408.2,92.4h1V83.5h-1Z" class="g5_284"/>
<path d="M415.9,88.6c0,-.5,-.2,-1,-.5,-1.4c-.3,-.3,-.7,-.5,-1.2,-.5c-.6,0,-1.1,.2,-1.5,.5c-.3,.4,-.5,.8,-.6,1.4h3.8Zm1.1,.3v.6h-4.9c0,.7,.3,1.2,.7,1.6c.3,.4,.9,.6,1.6,.6c.4,0,.8,-.1,1.2,-.2c.4,-.1,.7,-.2,1.1,-.4v1c-.4,.2,-.8,.3,-1.2,.4c-.4,.1,-.8,.1,-1.2,.1c-1,0,-1.8,-.3,-2.4,-.9c-.6,-.6,-.9,-1.4,-.9,-2.4c0,-1.1,.3,-1.9,.8,-2.5c.6,-.7,1.4,-1,2.3,-1c.9,0,1.6,.3,2.1,.9c.5,.5,.8,1.3,.8,2.2Z" class="g5_284"/>
</svg>