<?xml version="1.0" encoding="UTF-8" standalone="no"?>
<!DOCTYPE svg PUBLIC "-//W3C//DTD SVG 1.1//EN"
"http://www.w3.org/Graphics/SVG/1.1/DTD/svg11.dtd">
<svg viewBox="0 0 811 1017" version="1.1" xmlns="http://www.w3.org/2000/svg" xmlns:xlink="http://www.w3.org/1999/xlink">
<defs>
<clipPath id="c0_392"><path d="M142.4,699.9V489H353.2V699.9Z"/></clipPath>
<style type="text/css"><![CDATA[
.g0_392{
fill: #000;
}
]]></style>
</defs>
<image clip-path="url(#c0_392)" preserveAspectRatio="none" x="142" y="489" width="211" height="211" xlink:href="img/1.jpg"/>
<path d="M102.6,878.1h.3V790.6h-.3Z" class="g0_392"/>
<path d="M120.3,878.1v-3.2l.2,.1l6.4,2.9l.3,.2l-.3,.2l-6.4,2.9l-.2,.1V881l.1,-.2l6.3,-2.9l.2,.4h-.2l-6.3,-3l.1,-.3l.1,.1v3Z" class="g0_392"/>
<path d="M120.3,881h.3v-2.9h-.3Z" class="g0_392"/>
<path d="M120.3,878.3h.1v-.4h-.1Z" class="g0_392"/>
<path d="M102.6,878.3h17.7v-.4H102.6Z" class="g0_392"/>
<path d="M710.5,893.3h.4V804.7h-.4Z" class="g0_392"/>
<path d="M693.1,893.3v3.2l-.3,-.1l-6.3,-2.9l-.4,-.2l.4,-.2l6.3,-2.9l.3,-.1v.3l-.1,.1l-6.3,3l-.2,-.4h.2L693,896l-.2,.4l-.1,-.2v-2.9Z" class="g0_392"/>
<path d="M692.7,893.3h.4v-2.9h-.4Z" class="g0_392"/>
<path d="M692.9,893.5h.2v-.4h-.2Z" class="g0_392"/>
<path d="M693.1,893.5h17.8v-.4H693.1Z" class="g0_392"/>
</svg>