<?xml version="1.0" encoding="UTF-8" standalone="no"?>
<!DOCTYPE svg PUBLIC "-//W3C//DTD SVG 1.1//EN"
"http://www.w3.org/Graphics/SVG/1.1/DTD/svg11.dtd">
<svg viewBox="0 0 811 1017" version="1.1" xmlns="http://www.w3.org/2000/svg" xmlns:xlink="http://www.w3.org/1999/xlink">
<defs>
<clipPath id="c0_192"><path d="M143.6,466.1V231.3H378.3V466.1Z"/></clipPath>
<clipPath id="c1_192"><path d="M143.6,886.4V651.6H378.3V886.4Z"/></clipPath>
<style type="text/css"><![CDATA[
.g0_192{
fill: #0E0E0E;
}
]]></style>
</defs>
<path d="M384.5,169.9c.2,0,.5,.3,.5,.6c0,1.3,-1.7,2.3,-2.9,2.7c.2,-1,1.1,-3.3,2.4,-3.3Zm.1,-.3c-1.1,0,-2,.8,-2.6,1.5c-.6,.7,-1.1,1.9,-1.1,3.1c0,1.2,.4,2,1.6,2c1,0,2,-.7,2.5,-1.7l-.2,-.2c-.4,.6,-1.2,1.6,-2,1.6c-.6,0,-.9,-.5,-.9,-1.4c0,-.2,.1,-.7,.1,-.9c1.5,-.3,3.9,-1.3,3.9,-3c0,-.6,-.6,-1,-1.3,-1Z" class="g0_192"/>
<path d="M387.8,178.4c.9,0,1.4,-.4,1.7,-1c0,.6,.2,1,.8,1c.5,0,.9,-.2,1.1,-.5l-.1,-.1c-.1,.1,-.3,.3,-.6,.3c-.2,0,-.3,-.3,-.3,-1.1v-2.4c0,-1.1,-.6,-1.5,-1.8,-1.5c-1.1,0,-2,.6,-2,1c0,.3,.1,.5,.4,.5c.4,0,.5,-.2,.6,-.5c.1,-.2,.1,-.4,.2,-.5c.1,-.1,.4,-.2,.6,-.2c1.1,0,1,.5,1,1.3v.4l-1.4,.6c-.5,.2,-.8,.4,-1.2,.7c-.2,.2,-.3,.5,-.3,.9c0,.7,.5,1.1,1.3,1.1Zm-.4,-1.3c0,-.4,.2,-.7,.5,-.9c.4,-.4,.9,-.6,1.5,-.9v1.3c0,.5,-.1,.8,-.3,1c-.2,.3,-.6,.5,-1,.5c-.4,0,-.7,-.5,-.7,-1Z" class="g0_192"/>
<path d="M394.8,173.4c1.1,0,1.6,1.3,1.6,2.4c0,1.1,-.5,2.4,-1.5,2.4c-.8,0,-1.4,-.7,-1.4,-1.2c0,-.1,0,-.3,0,-.4v-1.5c0,-.2,0,-.5,0,-.6c.1,-.5,.6,-1.1,1.3,-1.1Zm.1,5c.8,0,1.4,-.3,1.8,-.7c.4,-.5,.7,-1.1,.7,-1.9c0,-.9,-.2,-1.4,-.7,-1.9c-.4,-.5,-1,-.8,-1.8,-.8c-.7,0,-1.1,.4,-1.4,.9h-.1v-.8l-1.8,.3v.2c.5,0,.7,.2,.8,.6c.1,0,.1,.2,.1,.4c0,.3,0,.6,0,1v3.8c0,.3,0,.6,-.2,.8c-.1,.2,-.4,.3,-.7,.3v.1h2.9v-.1c-.2,0,-.4,0,-.5,-.1c-.5,-.1,-.5,-.5,-.5,-1.1v-1.7c.3,.4,.7,.7,1.4,.7Z" class="g0_192"/>
<path d="M401.3,173.4c1.1,0,1.6,1.3,1.6,2.4c0,1.1,-.5,2.4,-1.5,2.4c-.7,0,-1.4,-.7,-1.4,-1.2c0,-.1,0,-.3,0,-.4v-1.5c0,-.2,0,-.5,0,-.6c.1,-.5,.6,-1.1,1.3,-1.1Zm.2,5c.7,0,1.3,-.3,1.8,-.7c.4,-.5,.7,-1.1,.7,-1.9c0,-.9,-.3,-1.4,-.7,-1.9c-.4,-.5,-1,-.8,-1.8,-.8c-.8,0,-1.2,.4,-1.5,.9h-.1v-.8l-1.8,.3v.2c.6,0,.8,.2,.9,.6c0,0,0,.2,0,.4c0,.3,0,.6,0,1v3.8c0,.3,0,.6,-.1,.8c-.2,.2,-.4,.3,-.8,.3v.1h3v-.1c-.3,0,-.4,0,-.6,-.1c-.5,-.1,-.5,-.5,-.5,-1.1v-1.7c.4,.4,.7,.7,1.5,.7Z" class="g0_192"/>
<path d="M410.3,165.4c-2.1,1.4,-3.6,3.8,-3.6,6.9c0,2.7,1.5,5.5,3.6,6.8l.2,-.3c-2,-1.5,-2.6,-3.3,-2.6,-6.6c0,-3.3,.6,-5,2.6,-6.5l-.2,-.3Z" class="g0_192"/>
<path d="M418.7,170.6c0,-.6,-.4,-1,-1,-1c-.3,0,-.6,.1,-.9,.3c-.4,.3,-.7,.6,-.9,.9c0,-.6,-.4,-1.2,-1,-1.2c-1.2,0,-2.1,1.2,-2.5,2l.2,.1c.4,-.5,1.1,-1.7,2,-1.7c.3,0,.4,.5,.4,1c0,.3,-.1,.6,-.2,1.1l-.4,1.2c-.1,.6,-.4,1.4,-.7,1.8c-.1,.2,-.4,.6,-.8,.6c-.4,0,-.7,0,-.6,-.4c.1,-.4,0,-.8,-.4,-.8c-.4,0,-.6,.3,-.6,.8c0,.5,.4,.9,1,.9c1,0,1.8,-.8,2.2,-1.4c.1,.8,.5,1.4,1.3,1.4c1.2,0,2,-1.1,2.5,-1.8l-.2,-.2c-.5,.6,-1.2,1.6,-2,1.6c-.4,0,-.6,-.6,-.6,-1.2c0,-.3,0,-.8,.1,-1.3l.2,-.7c.1,-.6,.4,-1.3,.6,-1.7c.2,-.2,.6,-.9,1,-.9c.4,0,.4,.3,.3,.6c0,.4,.2,.6,.5,.6c.4,0,.5,-.3,.5,-.6Z" class="g0_192"/>
<path d="M420,165.4l-.1,.3c1.9,1.5,2.5,3.2,2.5,6.5c0,3.3,-.6,5.1,-2.5,6.6l.1,.3c2.1,-1.3,3.7,-4.1,3.7,-6.8c0,-3.1,-1.6,-5.5,-3.7,-6.9Z" class="g0_192"/>
<path d="M429.9,174.2h7.6v-.8h-7.6Zm0,-3h7.6v-.9h-7.6Z" class="g0_192"/>
<path d="M449.5,170.6c0,-.6,-.5,-1,-1,-1c-.4,0,-.7,.1,-1,.3c-.3,.3,-.6,.6,-.8,.9c0,-.6,-.5,-1.2,-1.1,-1.2c-1.1,0,-2.1,1.2,-2.4,2l.2,.1c.3,-.5,1.1,-1.7,2,-1.7c.2,0,.3,.5,.3,1c0,.3,0,.6,-.2,1.1l-.3,1.2c-.2,.6,-.4,1.4,-.7,1.8c-.2,.2,-.5,.6,-.8,.6c-.4,0,-.8,0,-.7,-.4c.1,-.4,.1,-.8,-.4,-.8c-.4,0,-.6,.3,-.6,.8c0,.5,.5,.9,1.1,.9c1,0,1.7,-.8,2.1,-1.4c.1,.8,.5,1.4,1.4,1.4c1.1,0,2,-1.1,2.4,-1.8l-.2,-.2c-.5,.6,-1.1,1.6,-1.9,1.6c-.5,0,-.7,-.6,-.7,-1.2c0,-.3,.1,-.8,.2,-1.3l.2,-.7c.1,-.6,.3,-1.3,.6,-1.7c.2,-.2,.6,-.9,.9,-.9c.4,0,.4,.3,.4,.6c0,.4,.1,.6,.4,.6c.4,0,.6,-.3,.6,-.6Z" class="g0_192"/>
<path d="M457.2,171.8h-3.3v1h3.3v3.3h1v-3.3h3.2v-1h-3.2v-3.2h-1v3.2Z" class="g0_192"/>
<path d="M467.2,166.4v.2c.4,0,1.1,.1,1.3,.2c.5,.2,.4,.4,.5,1v6.5c0,.3,-.1,.6,-.1,.8c-.1,.6,-.9,.7,-1.6,.8v.2H472v-.2c-.5,-.1,-1.3,-.1,-1.5,-.3c-.2,-.3,-.2,-.8,-.2,-1.4v-8.6c-.8,.4,-2.1,.8,-3.1,.8Z" class="g0_192"/>
<image clip-path="url(#c0_192)" preserveAspectRatio="none" x="144" y="231" width="234" height="235" xlink:href="img/1.jpg"/>
<path d="M388,523.4v.1c.3,0,.7,.1,.9,.1c.3,.2,.3,.3,.3,.7v4.4c0,.2,0,.4,-.1,.6c0,.4,-.6,.5,-1.1,.5v.1h3.2v-.1c-.3,0,-.8,0,-1,-.2c-.1,-.2,-.1,-.5,-.1,-.9v-5.8c-.6,.2,-1.5,.4,-2.1,.5Z" class="g0_192"/>
<path d="M386.6,532.2h5.7v-.7h-5.7Z" class="g0_192"/>
<path d="M389.1,535.8c-.6,0,-1,-.4,-1,-1c0,-.8,.4,-1.5,1.2,-1.5c1.1,0,1.2,.9,1.2,1.7c0,.9,-.2,1.4,-.6,2c-.3,.4,-.6,.8,-1.1,1.3c-.4,.4,-1,1,-1.7,1.6v.3h4.2l.4,-2h-.3c-.1,.3,-.1,.4,-.2,.6c-.2,.3,-.4,.5,-.9,.5h-2v-.1c.4,-.3,.9,-.6,1.3,-.9c.7,-.6,1.4,-1.3,1.8,-2.1c.2,-.4,.2,-.8,.2,-1.1c0,-.3,0,-.6,-.1,-.8c-.4,-.7,-1,-1.2,-2,-1.2c-.7,0,-1.3,.2,-1.7,.5c-.3,.3,-.6,.8,-.6,1.4c0,.4,.1,.7,.3,1c.2,.2,.5,.3,.9,.3c.4,0,.6,-.1,.7,-.5Z" class="g0_192"/>
<path d="M364.3,588.2c.3,0,.6,.2,.6,.5c0,1.4,-1.7,2.4,-2.9,2.7c.2,-1,1.1,-3.2,2.3,-3.2Zm.2,-.4c-1.2,0,-2,.8,-2.6,1.5c-.6,.8,-1.1,1.9,-1.1,3.2c0,1.2,.4,1.9,1.6,1.9c1,0,1.9,-.7,2.5,-1.7l-.2,-.1c-.4,.5,-1.2,1.5,-2,1.5c-.6,0,-.9,-.5,-.9,-1.4c0,-.2,0,-.7,.1,-.9c1.4,-.3,3.9,-1.3,3.9,-2.9c0,-.7,-.6,-1.1,-1.3,-1.1Z" class="g0_192"/>
<path d="M367.7,596.6c.9,0,1.4,-.4,1.6,-1h.1c0,.6,.2,1,.8,1c.5,0,.9,-.2,1.1,-.5l-.1,-.1c-.1,.1,-.3,.3,-.6,.3c-.2,0,-.4,-.3,-.4,-1.1v-2.4c0,-1.1,-.5,-1.4,-1.7,-1.4c-1.1,0,-2,.5,-2,.9c0,.3,.1,.5,.4,.5c.4,0,.5,-.2,.6,-.5c.1,-.2,.1,-.3,.2,-.5c.1,0,.4,-.2,.6,-.2c1,0,1,.5,1,1.3v.4l-1.4,.6c-.5,.2,-.9,.4,-1.2,.8c-.2,.2,-.3,.4,-.3,.8c0,.7,.5,1.1,1.3,1.1Zm-.4,-1.3c0,-.4,.2,-.6,.5,-.9c.4,-.4,.9,-.6,1.5,-.9v1.3c0,.5,-.1,.8,-.3,1.1c-.2,.2,-.6,.4,-1,.4c-.4,0,-.7,-.5,-.7,-1Z" class="g0_192"/>
<path d="M374.7,591.6c1.1,0,1.6,1.4,1.6,2.4c0,1.1,-.6,2.4,-1.5,2.4c-.8,0,-1.4,-.6,-1.4,-1.2c0,-.1,-.1,-.2,-.1,-.4v-1.4c0,-.3,.1,-.5,.1,-.7c.1,-.4,.6,-1.1,1.3,-1.1Zm.1,5c.8,0,1.4,-.3,1.8,-.7c.4,-.4,.7,-1.1,.7,-1.9c0,-.8,-.3,-1.4,-.7,-1.9c-.4,-.4,-1,-.7,-1.8,-.7c-.7,0,-1.1,.4,-1.5,.8v-.8l-1.8,.4v.1c.5,0,.7,.2,.8,.6c.1,.1,.1,.2,.1,.5c0,.2,0,.5,0,.9v3.8c0,.4,-.1,.7,-.2,.9c-.1,.2,-.4,.2,-.7,.2v.1h2.9v-.1c-.2,0,-.4,0,-.5,-.1c-.5,-.1,-.6,-.5,-.6,-1.1V596c.4,.4,.8,.6,1.5,.6Z" class="g0_192"/>
<path d="M381.2,591.6c1.1,0,1.6,1.4,1.6,2.4c0,1.1,-.5,2.4,-1.5,2.4c-.7,0,-1.4,-.6,-1.4,-1.2c0,-.1,0,-.2,0,-.4v-1.4c0,-.3,0,-.5,0,-.7c.1,-.4,.6,-1.1,1.3,-1.1Zm.1,5c.8,0,1.4,-.3,1.8,-.7c.5,-.4,.8,-1.1,.8,-1.9c0,-.8,-.3,-1.4,-.7,-1.9c-.4,-.4,-1,-.7,-1.8,-.7c-.8,0,-1.2,.4,-1.5,.8h-.1v-.8l-1.8,.4v.1c.5,0,.8,.2,.9,.6c0,.1,0,.2,0,.5c0,.2,0,.5,0,.9v3.8c0,.4,0,.7,-.1,.9c-.2,.2,-.4,.2,-.8,.2v.1h3v-.1c-.3,0,-.4,0,-.6,-.1c-.5,-.1,-.5,-.5,-.5,-1.1V596c.4,.4,.7,.6,1.4,.6Z" class="g0_192"/>
<path d="M390.2,583.7c-2.1,1.3,-3.6,3.8,-3.6,6.8c0,2.8,1.5,5.5,3.6,6.8l.2,-.2c-2,-1.6,-2.6,-3.4,-2.6,-6.7c0,-3.3,.6,-5,2.6,-6.5l-.2,-.2Z" class="g0_192"/>
<path d="M398.6,588.8c0,-.6,-.5,-1,-1,-1c-.3,0,-.6,.2,-1,.4c-.3,.2,-.6,.5,-.8,.9c0,-.7,-.4,-1.3,-1.1,-1.3c-1.1,0,-2.1,1.2,-2.4,2l.2,.1c.4,-.5,1.1,-1.7,2,-1.7c.3,0,.4,.5,.4,1c0,.3,-.1,.6,-.2,1.1l-.4,1.2c-.1,.6,-.4,1.4,-.7,1.8c-.1,.2,-.4,.7,-.8,.7c-.4,0,-.7,-.1,-.6,-.5c.1,-.3,0,-.8,-.4,-.8c-.5,0,-.6,.3,-.6,.8c0,.6,.4,.9,1,.9c1,0,1.8,-.7,2.1,-1.4h.1c.1,.8,.5,1.4,1.3,1.4c1.2,0,2,-1.1,2.5,-1.8l-.2,-.2c-.5,.7,-1.2,1.7,-2,1.7c-.4,0,-.6,-.6,-.6,-1.3c0,-.3,0,-.7,.1,-1.3l.2,-.7c.1,-.6,.4,-1.2,.6,-1.6c.2,-.3,.6,-1,1,-1c.4,0,.4,.3,.3,.6c0,.4,.2,.6,.5,.6c.4,0,.5,-.3,.5,-.6Z" class="g0_192"/>
<path d="M399.9,583.7l-.1,.2c1.9,1.5,2.5,3.2,2.5,6.5c0,3.3,-.6,5.1,-2.5,6.7l.1,.2c2.1,-1.3,3.7,-4,3.7,-6.8c0,-3,-1.6,-5.5,-3.7,-6.8Z" class="g0_192"/>
<path d="M409.8,592.4h7.6v-.8h-7.6Zm0,-3h7.6v-.8h-7.6Z" class="g0_192"/>
<path d="M425.9,574.5v.2c.5,0,1.1,.1,1.3,.2c.5,.2,.4,.4,.5,1v6.5c0,.3,0,.6,-.1,.8c-.1,.7,-.9,.8,-1.6,.8v.2h4.7V584c-.5,0,-1.3,-.1,-1.5,-.3c-.2,-.3,-.2,-.8,-.2,-1.4v-8.6c-.8,.4,-2.1,.8,-3.1,.8Z" class="g0_192"/>
<path d="M423.9,590.9h8.4v-.8h-8.4Z" class="g0_192"/>
<path d="M427.5,598.1c-.9,0,-1.4,-.6,-1.4,-1.5c0,-1.1,.5,-2.3,1.8,-2.3c1.6,0,1.8,1.4,1.8,2.6c0,1.3,-.4,2.1,-1,3c-.4,.5,-.9,1.1,-1.5,1.8c-.7,.7,-1.5,1.5,-2.6,2.4v.4h6.3l.5,-2.8H431c-.1,.3,-.3,.6,-.3,.7c-.3,.6,-.7,.8,-1.4,.8h-2.9c.6,-.5,1.3,-1,1.9,-1.5c1,-.9,2.1,-1.9,2.6,-3.1c.3,-.5,.4,-1.1,.4,-1.6c0,-.5,-.1,-.8,-.2,-1.2c-.5,-1,-1.5,-1.7,-3,-1.7c-1,0,-1.8,.3,-2.4,.7c-.5,.5,-.9,1.2,-.9,2.1c0,.6,.2,1.1,.5,1.4c.2,.3,.6,.6,1.2,.6c.5,0,1,-.3,1,-.8Z" class="g0_192"/>
<path d="M441.3,588.8c0,-.6,-.5,-1,-1,-1c-.3,0,-.7,.2,-1,.4c-.3,.2,-.6,.5,-.8,.9c0,-.7,-.4,-1.3,-1.1,-1.3c-1.1,0,-2.1,1.2,-2.4,2l.2,.1c.4,-.5,1.1,-1.7,2,-1.7c.2,0,.4,.5,.4,1c0,.3,-.1,.6,-.2,1.1l-.4,1.2c-.1,.6,-.4,1.4,-.7,1.8c-.2,.2,-.4,.7,-.8,.7c-.4,0,-.7,-.1,-.6,-.5c.1,-.3,0,-.8,-.4,-.8c-.5,0,-.6,.3,-.6,.8c0,.6,.4,.9,1,.9c1,0,1.7,-.7,2.1,-1.4h.1c.1,.8,.5,1.4,1.3,1.4c1.2,0,2,-1.1,2.5,-1.8l-.2,-.2c-.5,.7,-1.2,1.7,-2,1.7c-.5,0,-.7,-.6,-.7,-1.3c0,-.3,.1,-.7,.2,-1.3l.2,-.7c.1,-.6,.4,-1.2,.6,-1.6c.2,-.3,.6,-1,1,-1c.4,0,.3,.3,.3,.6c0,.4,.1,.6,.5,.6c.3,0,.5,-.3,.5,-.6Z" class="g0_192"/>
<path d="M444.6,583.5c-.6,0,-1,-.5,-1,-1.2c0,-.8,.4,-1.6,1.3,-1.6c1.2,0,1.3,1,1.3,1.9c0,.9,-.3,1.5,-.7,2.1c-.3,.4,-.7,.9,-1.1,1.4c-.5,.5,-1.1,1.1,-1.9,1.7v.3h4.6l.3,-2h-.3c0,.2,-.1,.4,-.2,.5c-.2,.4,-.5,.6,-1,.6h-2.1v-.1c.5,-.3,.9,-.7,1.4,-1c.7,-.7,1.5,-1.4,1.9,-2.3c.2,-.4,.3,-.8,.3,-1.2c0,-.3,-.1,-.6,-.2,-.8c-.3,-.8,-1.1,-1.3,-2.2,-1.3c-.7,0,-1.3,.2,-1.7,.6c-.4,.3,-.7,.8,-.7,1.4c0,.5,.1,.8,.4,1.1c.2,.2,.5,.4,.9,.4c.4,0,.7,-.2,.7,-.5Z" class="g0_192"/>
<path d="M455.9,590.1h-3.3v.9h3.3v3.3h.9V591h3.3v-.9h-3.3v-3.3h-.9v3.3Z" class="g0_192"/>
<path d="M471.1,588.8c0,-.6,-.5,-1,-1,-1c-.3,0,-.6,.2,-1,.4c-.3,.2,-.6,.5,-.8,.9c0,-.7,-.4,-1.3,-1.1,-1.3c-1.1,0,-2.1,1.2,-2.4,2l.2,.1c.4,-.5,1.1,-1.7,2,-1.7c.3,0,.4,.5,.4,1c0,.3,-.1,.6,-.2,1.1l-.4,1.2c-.1,.6,-.4,1.4,-.7,1.8c-.2,.2,-.4,.7,-.8,.7c-.4,0,-.7,-.1,-.6,-.5c.1,-.3,0,-.8,-.4,-.8c-.5,0,-.6,.3,-.6,.8c0,.6,.4,.9,1,.9c1,0,1.8,-.7,2.1,-1.4h.1c.1,.8,.5,1.4,1.3,1.4c1.2,0,2,-1.1,2.5,-1.8l-.2,-.2c-.5,.7,-1.2,1.7,-2,1.7c-.4,0,-.7,-.6,-.7,-1.3c0,-.3,.1,-.7,.2,-1.3l.2,-.7c.1,-.6,.4,-1.2,.6,-1.6c.2,-.3,.6,-1,1,-1c.4,0,.4,.3,.3,.6c0,.4,.2,.6,.5,.6c.4,0,.5,-.3,.5,-.6Z" class="g0_192"/>
<path d="M478.8,590.1h-3.2v.9h3.2v3.3h1V591h3.3v-.9h-3.3v-3.3h-1v3.3Z" class="g0_192"/>
<path d="M488.8,584.6v.2c.5,0,1.1,.1,1.3,.2c.5,.2,.5,.4,.5,1v6.5c0,.3,0,.6,-.1,.8c-.1,.7,-.9,.8,-1.6,.8v.2h4.7v-.2c-.5,0,-1.3,-.1,-1.5,-.3c-.2,-.3,-.2,-.8,-.2,-1.4v-8.6c-.8,.4,-2.1,.8,-3.1,.8Z" class="g0_192"/>
<image clip-path="url(#c1_192)" preserveAspectRatio="none" x="144" y="652" width="234" height="234" xlink:href="img/2.jpg"/>
</svg>