<?xml version="1.0" encoding="UTF-8" standalone="no"?>
<!DOCTYPE svg PUBLIC "-//W3C//DTD SVG 1.1//EN"
"http://www.w3.org/Graphics/SVG/1.1/DTD/svg11.dtd">
<svg viewBox="0 0 811 1017" version="1.1" xmlns="http://www.w3.org/2000/svg" xmlns:xlink="http://www.w3.org/1999/xlink">
<defs>
<style type="text/css"><![CDATA[
.g0_215{
fill: #70A6CC;
}
.g1_215{
fill: #000;
}
.g2_215{
fill: #0E0E0E;
}
]]></style>
</defs>
<path d="M156.1,377.2H724.4V355.9H156.1Z" class="g0_215"/>
<path d="M712.8,417.8h.4v-33h-.4Z" class="g1_215"/>
<path d="M695.4,417.8V421l-.3,-.1L688.8,418l-.4,-.2l.4,-.2l6.3,-2.9l.3,-.1v.3l-.1,.2L689,418l-.2,-.4h.2l6.3,3l-.2,.3l-.1,-.2v-2.9Z" class="g1_215"/>
<path d="M695,417.8h.4v-2.9H695Z" class="g1_215"/>
<path d="M695.2,418h.2v-.4h-.2Z" class="g1_215"/>
<path d="M695.4,418h17.8v-.4H695.4Z" class="g1_215"/>
<path d="M116.3,433.1h.4V386.7h-.4Z" class="g1_215"/>
<path d="M134,433.1v-3.2l.3,.1l6.3,2.9l.4,.2l-.4,.2l-6.3,2.9l-.3,.1v-.2l.1,-.2l6.3,-3l.2,.4h-.2l-6.3,-2.9l.2,-.4l.1,.2v2.9Z" class="g1_215"/>
<path d="M134,436.1h.4v-3H134Z" class="g1_215"/>
<path d="M134,433.3h.2v-.4H134Z" class="g1_215"/>
<path d="M116.3,433.3H134v-.4H116.3Z" class="g1_215"/>
<path d="M512.4,463.7h.4V436.3h-.4Z" class="g1_215"/>
<path d="M479.9,463.7V467l-.3,-.1l-6.3,-3l-.4,-.2l.4,-.1l6.3,-3l.3,-.1v.3l-.1,.2l-6.3,2.9l-.2,-.3h.2l6.3,2.9l-.2,.4l-.1,-.2v-3Z" class="g1_215"/>
<path d="M479.5,463.7h.4v-2.9h-.4Z" class="g1_215"/>
<path d="M479.7,463.9h.2v-.3h-.2Z" class="g1_215"/>
<path d="M479.9,463.9h32.9v-.3H479.9Z" class="g1_215"/>
<path d="M113.1,557.6h.4V494.2h-.4Z" class="g1_215"/>
<path d="M133.3,494.2V491l.3,.1l6.3,2.9l.4,.2l-.4,.2l-6.3,2.9l-.3,.1v-.3l.1,-.2l6.3,-2.9l.2,.4h-.2l-6.3,-3l.2,-.3l.1,.1v3Z" class="g1_215"/>
<path d="M133.3,497.1h.4v-2.9h-.4Z" class="g1_215"/>
<path d="M133.3,494.4h.2V494h-.2Z" class="g1_215"/>
<path d="M113.1,494.4h20.2V494H113.1Z" class="g1_215"/>
<path d="M561.8,551.6h.4V509.5h-.4Z" class="g1_215"/>
<path d="M537.5,509.5v3.2l-.2,-.1L531,509.7l-.3,-.2l.3,-.2l6.3,-2.9l.2,-.1v.3l-.1,.1l-6.2,3l-.2,-.4h.2l6.2,2.9l-.1,.4l-.1,-.2v-2.9Z" class="g1_215"/>
<path d="M537.2,509.5h.3v-2.9h-.3Z" class="g1_215"/>
<path d="M537.4,509.7h.1v-.4h-.1Z" class="g1_215"/>
<path d="M537.5,509.7h24.7v-.4H537.5Z" class="g1_215"/>
<path d="M380,650.9c0,-.1,-.1,-.1,-.1,-.1c0,0,-.1,0,-.1,0c-4.8,5.3,-5.3,19.2,-5.3,20.8v.6h1.4v-.6c0,-1.2,.8,-15,3.9,-20.4c.1,-.1,.2,-.2,.2,-.3Z" class="g2_215"/>
<path d="M374.5,681.5h1.4v-9.6h-1.4Z" class="g2_215"/>
<path d="M374.5,690.4h1.4v-9.6h-1.4Z" class="g2_215"/>
<path d="M374.5,699.4h1.4v-9.6h-1.4Z" class="g2_215"/>
<path d="M374.5,708.3h1.4v-9.6h-1.4Z" class="g2_215"/>
<path d="M380,729.5c0,-.1,-.1,-.2,-.2,-.4c-3.1,-5.4,-3.9,-19.1,-3.9,-20.3v-.7h-1.4v.7c0,1.6,.5,15.4,5.3,20.7c0,.1,.1,.1,.1,.1c0,0,.1,-.1,.1,-.1Z" class="g2_215"/>
<path d="M382.4,651.9v.2c.4,0,1.1,.1,1.3,.2c.5,.2,.4,.4,.5,1v6.5c0,.4,0,.6,-.1,.8c-.1,.7,-.9,.8,-1.6,.8v.2h4.7v-.2c-.5,0,-1.3,0,-1.5,-.3c-.2,-.3,-.2,-.8,-.2,-1.3v-8.6c-.8,.4,-2.1,.7,-3.1,.7Z" class="g2_215"/>
<path d="M412.6,656.1c0,-.5,-.5,-1,-1,-1c-.3,0,-.6,.2,-1,.4c-.3,.2,-.6,.5,-.8,.9c0,-.7,-.4,-1.3,-1.1,-1.3c-1.1,0,-2.1,1.2,-2.4,2l.2,.1c.4,-.5,1.1,-1.7,2,-1.7c.3,0,.4,.6,.4,1c0,.3,-.1,.7,-.2,1.2l-.4,1.1c-.1,.6,-.4,1.4,-.7,1.8c-.1,.3,-.4,.7,-.8,.7c-.4,0,-.7,-.1,-.6,-.5c.1,-.3,0,-.7,-.4,-.7c-.5,0,-.6,.3,-.6,.7c0,.6,.4,.9,1,.9c1,0,1.8,-.7,2.1,-1.4h.1c.1,.8,.5,1.4,1.3,1.4c1.2,0,2,-1.1,2.5,-1.8l-.2,-.2c-.5,.7,-1.2,1.7,-2,1.7c-.4,0,-.6,-.6,-.6,-1.2c0,-.4,0,-.8,.1,-1.4l.2,-.7c.1,-.6,.4,-1.2,.6,-1.6c.2,-.3,.6,-1,1,-1c.4,0,.4,.3,.3,.7c0,.4,.2,.5,.5,.5c.4,0,.5,-.2,.5,-.6Z" class="g2_215"/>
<path d="M414.2,656.9v.2c.3,0,.8,0,.9,.1c.3,.2,.3,.3,.3,.7v4.8c0,.2,0,.4,0,.5c-.1,.5,-.6,.6,-1.2,.6v.2h3.4v-.2c-.3,0,-.9,0,-1,-.2c-.2,-.2,-.2,-.6,-.2,-1v-6.3c-.6,.3,-1.5,.6,-2.2,.6Z" class="g2_215"/>
<path d="M439,657.8c0,-.4,-.4,-.8,-.8,-.8c-.5,0,-.8,.3,-.8,.8c0,.6,.5,.8,.8,.8c.3,0,.8,-.2,.8,-.8Z" class="g2_215"/>
<path d="M445.5,657.8c0,-.4,-.4,-.8,-.8,-.8c-.5,0,-.8,.3,-.8,.8c0,.6,.5,.8,.8,.8c.3,0,.8,-.2,.8,-.8Z" class="g2_215"/>
<path d="M452,657.8c0,-.4,-.3,-.8,-.8,-.8c-.4,0,-.8,.3,-.8,.8c0,.6,.5,.8,.8,.8c.3,0,.8,-.2,.8,-.8Z" class="g2_215"/>
<path d="M479.5,656.1c0,-.5,-.4,-1,-1,-1c-.3,0,-.6,.2,-.9,.4c-.3,.2,-.7,.5,-.9,.9c0,-.7,-.4,-1.3,-1,-1.3c-1.2,0,-2.1,1.2,-2.5,2l.2,.1c.4,-.5,1.1,-1.7,2,-1.7c.3,0,.4,.6,.4,1c0,.3,-.1,.7,-.2,1.2l-.4,1.1c-.1,.6,-.4,1.4,-.7,1.8c-.1,.3,-.4,.7,-.8,.7c-.4,0,-.7,-.1,-.6,-.5c.1,-.3,0,-.7,-.4,-.7c-.4,0,-.6,.3,-.6,.7c0,.6,.5,.9,1,.9c1,0,1.8,-.7,2.2,-1.4c.1,.8,.5,1.4,1.3,1.4c1.2,0,2,-1.1,2.5,-1.8l-.2,-.2c-.5,.7,-1.2,1.7,-2,1.7c-.4,0,-.6,-.6,-.6,-1.2c0,-.4,0,-.8,.2,-1.4l.1,-.7c.1,-.6,.4,-1.2,.7,-1.6c.1,-.3,.5,-1,.9,-1c.4,0,.4,.3,.3,.7c0,.4,.2,.5,.5,.5c.4,0,.5,-.2,.5,-.6Z" class="g2_215"/>
<path d="M481.1,656.9v.2c.3,0,.8,0,.9,.1c.4,.2,.3,.3,.4,.7v4.8c0,.2,0,.4,-.1,.5c0,.5,-.6,.6,-1.2,.6v.2h3.5v-.2c-.4,0,-1,0,-1.1,-.2c-.2,-.2,-.2,-.6,-.2,-1v-6.3c-.6,.3,-1.5,.6,-2.2,.6Z" class="g2_215"/>
<path d="M494.6,649.7l.2,-.3l-1.4,5.3c0,.3,-.1,.5,-.2,.6c-.1,.3,-.3,.6,-.5,.7c-.1,0,-.3,.1,-.5,.1v.1h3.1v-.1c-.3,0,-.6,-.1,-.7,-.2c-.2,-.1,-.2,-.3,-.2,-.6c0,-.1,.1,-.4,.1,-.7l1.1,-4c.1,-.4,.2,-.6,.2,-.8c.1,-.4,.4,-.7,.6,-.9c.1,-.1,.3,-.1,.5,-.1v-.1h-2l-3.6,5.8h-.1l-.7,-5.8h-2.4v.1c.3,0,.6,0,.7,.1c.1,.1,.3,.3,.3,.5c0,.2,0,.5,-.1,.8l-1.2,4.5c-.1,.4,-.4,.8,-.6,1c-.3,.2,-.6,.4,-.9,.4l-.1,.1h2.7l.1,-.1c-.3,-.1,-.6,-.1,-.7,-.3c-.1,-.1,-.3,-.4,-.3,-.7c0,-.2,0,-.3,.1,-.5l1.3,-4.9v-.2l.9,6.7h.3l4,-6.5Z" class="g2_215"/>
<path d="M382.4,670.3v.2c.4,0,1.1,.1,1.3,.2c.5,.2,.4,.4,.5,1v6.5c0,.3,0,.6,-.1,.8c-.1,.7,-.9,.8,-1.6,.8v.2h4.7v-.2c-.5,0,-1.3,-.1,-1.5,-.3c-.2,-.3,-.2,-.8,-.2,-1.4v-8.6c-.8,.5,-2.1,.8,-3.1,.8Z" class="g2_215"/>
<path d="M412.6,674.5c0,-.6,-.5,-1,-1,-1c-.3,0,-.6,.2,-1,.4c-.3,.2,-.6,.5,-.8,.9c0,-.7,-.4,-1.3,-1.1,-1.3c-1.1,0,-2.1,1.2,-2.4,2l.2,.1c.4,-.5,1.1,-1.7,2,-1.7c.3,0,.4,.6,.4,1c0,.3,-.1,.7,-.2,1.1l-.4,1.2c-.1,.6,-.4,1.4,-.7,1.8c-.1,.3,-.4,.7,-.8,.7c-.4,0,-.7,-.1,-.6,-.5c.1,-.3,0,-.8,-.4,-.8c-.5,0,-.6,.3,-.6,.8c0,.6,.4,.9,1,.9c1,0,1.8,-.7,2.1,-1.4h.1c.1,.8,.5,1.4,1.3,1.4c1.2,0,2,-1.1,2.5,-1.8l-.2,-.2c-.5,.7,-1.2,1.7,-2,1.7c-.4,0,-.6,-.6,-.6,-1.2c0,-.4,0,-.8,.1,-1.4l.2,-.7c.1,-.6,.4,-1.2,.6,-1.6c.2,-.3,.6,-1,1,-1c.4,0,.4,.3,.3,.6c0,.4,.2,.6,.5,.6c.4,0,.5,-.3,.5,-.6Z" class="g2_215"/>
<path d="M415.3,677.7c-.6,0,-1,-.5,-1,-1.1c0,-.8,.4,-1.7,1.3,-1.7c1.2,0,1.3,1,1.3,1.9c0,1,-.2,1.5,-.7,2.2c-.3,.4,-.7,.8,-1.1,1.3c-.5,.5,-1.1,1.1,-1.9,1.7v.4h4.6l.4,-2.1h-.3c-.1,.2,-.2,.4,-.3,.5c-.1,.4,-.4,.6,-1,.6h-2.1c.5,-.4,1,-.8,1.4,-1.1c.7,-.7,1.5,-1.4,1.9,-2.3c.2,-.3,.3,-.7,.3,-1.2c0,-.3,-.1,-.5,-.2,-.8c-.3,-.8,-1.1,-1.3,-2.1,-1.3c-.8,0,-1.4,.3,-1.8,.6c-.4,.3,-.7,.8,-.7,1.5c0,.4,.2,.8,.4,1c.2,.3,.5,.4,.9,.4c.4,0,.7,-.2,.7,-.5Z" class="g2_215"/>
<path d="M439,676.2c0,-.5,-.4,-.8,-.8,-.8c-.5,0,-.8,.3,-.8,.8c0,.6,.5,.8,.8,.8c.3,0,.8,-.2,.8,-.8Z" class="g2_215"/>
<path d="M445.5,676.2c0,-.5,-.4,-.8,-.8,-.8c-.5,0,-.8,.3,-.8,.8c0,.6,.5,.8,.8,.8c.3,0,.8,-.2,.8,-.8Z" class="g2_215"/>
<path d="M452,676.2c0,-.5,-.3,-.8,-.8,-.8c-.4,0,-.8,.3,-.8,.8c0,.6,.5,.8,.8,.8c.3,0,.8,-.2,.8,-.8Z" class="g2_215"/>
<path d="M479.5,674.5c0,-.6,-.4,-1,-1,-1c-.3,0,-.6,.2,-.9,.4c-.3,.2,-.7,.5,-.9,.9c0,-.7,-.4,-1.3,-1,-1.3c-1.2,0,-2.1,1.2,-2.5,2l.2,.1c.4,-.5,1.1,-1.7,2,-1.7c.3,0,.4,.6,.4,1c0,.3,-.1,.7,-.2,1.1l-.4,1.2c-.1,.6,-.4,1.4,-.7,1.8c-.1,.3,-.4,.7,-.8,.7c-.4,0,-.7,-.1,-.6,-.5c.1,-.3,0,-.8,-.4,-.8c-.4,0,-.6,.3,-.6,.8c0,.6,.5,.9,1,.9c1,0,1.8,-.7,2.2,-1.4c.1,.8,.5,1.4,1.3,1.4c1.2,0,2,-1.1,2.5,-1.8l-.2,-.2c-.5,.7,-1.2,1.7,-2,1.7c-.4,0,-.6,-.6,-.6,-1.2c0,-.4,0,-.8,.2,-1.4l.1,-.7c.1,-.6,.4,-1.2,.7,-1.6c.1,-.3,.5,-1,.9,-1c.4,0,.4,.3,.3,.6c0,.4,.2,.6,.5,.6c.4,0,.5,-.3,.5,-.6Z" class="g2_215"/>
<path d="M482.3,677.7c-.7,0,-1.1,-.5,-1.1,-1.1c0,-.8,.4,-1.7,1.3,-1.7c1.2,0,1.3,1,1.3,1.9c0,1,-.2,1.5,-.7,2.2c-.2,.4,-.6,.8,-1.1,1.3c-.5,.5,-1.1,1.1,-1.8,1.7v.4h4.5l.4,-2.1h-.3c-.1,.2,-.2,.4,-.3,.5c-.1,.4,-.4,.6,-1,.6h-2.1c.5,-.4,1,-.8,1.4,-1.1c.7,-.7,1.5,-1.4,2,-2.3c.1,-.3,.2,-.7,.2,-1.2c0,-.3,0,-.5,-.2,-.8c-.3,-.8,-1,-1.3,-2.1,-1.3c-.7,0,-1.4,.3,-1.8,.6c-.3,.3,-.7,.8,-.7,1.5c0,.4,.2,.8,.4,1c.2,.3,.5,.4,.9,.4c.4,0,.7,-.2,.8,-.5Z" class="g2_215"/>
<path d="M494.6,668.1l.2,-.3l-1.4,5.3c0,.3,-.1,.5,-.2,.6c-.1,.3,-.3,.5,-.5,.7c-.1,0,-.3,0,-.5,0v.2h3.1v-.2c-.3,0,-.6,0,-.7,-.1c-.2,-.1,-.2,-.3,-.2,-.6c0,-.1,.1,-.4,.1,-.7l1.1,-4c.1,-.4,.2,-.6,.2,-.8c.1,-.4,.4,-.7,.6,-.9c.1,-.1,.3,-.1,.5,-.1v-.1H495l-3.7,5.8h-.1l-.7,-5.8h-2.4v.1c.3,0,.6,0,.7,.1c.1,.1,.3,.3,.3,.5c0,.2,0,.5,-.1,.8l-1.2,4.5c-.1,.4,-.4,.7,-.6,1c-.3,.2,-.6,.3,-.9,.3l-.1,.2h2.7l.1,-.2c-.3,0,-.6,0,-.7,-.2c-.1,-.2,-.3,-.5,-.3,-.7c0,-.2,0,-.3,.1,-.5l1.3,-4.9v-.2l.9,6.7h.3l4,-6.5Z" class="g2_215"/>
<path d="M384.6,696.1c.5,0,.9,-.4,.9,-.9c0,-.5,-.4,-.9,-.9,-.9c-.5,0,-.9,.4,-.9,.9c0,.5,.4,.9,.9,.9Z" class="g2_215"/>
<path d="M384.6,702.1c.5,0,.9,-.4,.9,-.9c0,-.5,-.4,-.9,-.9,-.9c-.5,0,-.9,.4,-.9,.9c0,.4,.4,.9,.9,.9Z" class="g2_215"/>
<path d="M384.6,708c.5,0,.9,-.4,.9,-.9c0,-.5,-.4,-.8,-.9,-.8c-.5,0,-.9,.4,-.9,.8c0,.5,.4,.9,.9,.9Z" class="g2_215"/>
<path d="M412.5,696.1c.5,0,.9,-.4,.9,-.9c0,-.5,-.4,-.9,-.9,-.9c-.5,0,-.9,.4,-.9,.9c0,.5,.4,.9,.9,.9Z" class="g2_215"/>
<path d="M412.5,702.1c.5,0,.9,-.4,.9,-.9c0,-.5,-.4,-.9,-.9,-.9c-.5,0,-.9,.4,-.9,.9c0,.4,.4,.9,.9,.9Z" class="g2_215"/>
<path d="M412.5,708c.5,0,.9,-.4,.9,-.9c0,-.5,-.4,-.8,-.9,-.8c-.5,0,-.9,.4,-.9,.8c0,.5,.4,.9,.9,.9Z" class="g2_215"/>
<path d="M445.9,696.1c.5,0,.9,-.4,.9,-.9c0,-.5,-.4,-.9,-.9,-.9c-.5,0,-.9,.4,-.9,.9c0,.5,.4,.9,.9,.9Z" class="g2_215"/>
<path d="M445.9,702.1c.5,0,.9,-.4,.9,-.9c0,-.5,-.4,-.9,-.9,-.9c-.5,0,-.9,.4,-.9,.9c0,.4,.4,.9,.9,.9Z" class="g2_215"/>
<path d="M445.9,708c.5,0,.9,-.4,.9,-.9c0,-.5,-.4,-.8,-.9,-.8c-.5,0,-.9,.4,-.9,.8c0,.5,.4,.9,.9,.9Z" class="g2_215"/>
<path d="M485.3,696.1c.5,0,.9,-.4,.9,-.9c0,-.5,-.4,-.9,-.9,-.9c-.5,0,-.9,.4,-.9,.9c0,.5,.4,.9,.9,.9Z" class="g2_215"/>
<path d="M485.3,702.1c.5,0,.9,-.4,.9,-.9c0,-.5,-.4,-.9,-.9,-.9c-.5,0,-.9,.4,-.9,.9c0,.4,.4,.9,.9,.9Z" class="g2_215"/>
<path d="M485.3,708c.5,0,.9,-.4,.9,-.9c0,-.5,-.4,-.8,-.9,-.8c-.5,0,-.9,.4,-.9,.8c0,.5,.4,.9,.9,.9Z" class="g2_215"/>
<path d="M382.4,716.6v.2c.4,0,1.1,.1,1.3,.2c.5,.2,.4,.4,.5,1v6.5c0,.3,0,.6,-.1,.8c-.1,.6,-.9,.7,-1.6,.8v.2h4.7v-.2c-.5,-.1,-1.3,-.1,-1.5,-.4c-.2,-.3,-.2,-.7,-.2,-1.3v-8.6c-.8,.4,-2.1,.7,-3.1,.8Z" class="g2_215"/>
<path d="M410.9,720.7c0,-.5,-.4,-.9,-1,-.9c-.3,0,-.6,.1,-.9,.3c-.4,.3,-.7,.6,-.9,.9c0,-.6,-.4,-1.2,-1,-1.2c-1.2,0,-2.1,1.2,-2.5,2l.2,.1c.4,-.5,1.1,-1.7,2,-1.7c.3,0,.4,.5,.4,.9c0,.3,-.1,.7,-.2,1.2l-.4,1.2c-.1,.6,-.4,1.4,-.7,1.8c-.1,.2,-.4,.6,-.8,.6c-.4,0,-.7,-.1,-.6,-.5c.1,-.3,0,-.7,-.4,-.7c-.4,0,-.6,.3,-.6,.8c0,.5,.5,.9,1,.9c1,0,1.8,-.8,2.2,-1.4c.1,.8,.5,1.4,1.3,1.4c1.2,0,2,-1.1,2.5,-1.8l-.2,-.2c-.5,.6,-1.2,1.6,-2,1.6c-.4,0,-.6,-.6,-.6,-1.2c0,-.3,0,-.8,.1,-1.3l.2,-.7c.1,-.6,.4,-1.3,.6,-1.7c.2,-.2,.6,-.9,1,-.9c.4,0,.4,.3,.3,.6c0,.4,.2,.6,.5,.6c.4,0,.5,-.3,.5,-.7Z" class="g2_215"/>
<path d="M416.8,728.6h.2l1.6,-6c.1,-.1,.1,-.3,.2,-.4c.1,-.3,.4,-.7,.6,-.9c.1,0,.4,-.1,.5,-.1v-.1h-2.2l-.1,.1c.3,0,.5,.1,.6,.3c.2,.2,.2,.6,.2,.9c0,.1,0,.2,-.1,.3l-1,4v.1l-2.6,-5.7h-1.9l-.1,.1c.5,0,.6,.1,.8,.2c.2,.3,.4,.7,.4,1c0,.1,-.1,.2,-.1,.3l-1.2,4.5c0,.3,-.3,.7,-.5,.9c-.3,.2,-.7,.4,-1,.4v.1h2.8v-.1c-.3,0,-.6,-.1,-.7,-.2c-.2,-.2,-.3,-.6,-.3,-.8c0,-.2,0,-.3,0,-.4l1.1,-4.4l.1,-.2l2.7,6.1Z" class="g2_215"/>
<path d="M439,722.5c0,-.5,-.4,-.9,-.8,-.9c-.5,0,-.8,.4,-.8,.9c0,.5,.5,.8,.8,.8c.3,0,.8,-.3,.8,-.8Z" class="g2_215"/>
<path d="M445.5,722.5c0,-.5,-.4,-.9,-.8,-.9c-.5,0,-.8,.4,-.8,.9c0,.5,.5,.8,.8,.8c.3,0,.8,-.3,.8,-.8Z" class="g2_215"/>
<path d="M452,722.5c0,-.5,-.3,-.9,-.8,-.9c-.4,0,-.8,.4,-.8,.9c0,.5,.5,.8,.8,.8c.3,0,.8,-.3,.8,-.8Z" class="g2_215"/>
<path d="M477.8,720.7c0,-.5,-.4,-.9,-1,-.9c-.3,0,-.6,.1,-.9,.3c-.3,.3,-.6,.6,-.9,.9c0,-.6,-.4,-1.2,-1,-1.2c-1.2,0,-2.1,1.2,-2.5,2l.2,.1c.4,-.5,1.1,-1.7,2,-1.7c.3,0,.4,.5,.4,.9c0,.3,-.1,.7,-.2,1.2l-.3,1.2c-.2,.6,-.4,1.4,-.8,1.8c-.1,.2,-.4,.6,-.7,.6c-.5,0,-.8,-.1,-.7,-.5c.1,-.3,0,-.7,-.4,-.7c-.4,0,-.6,.3,-.6,.8c0,.5,.5,.9,1,.9c1.1,0,1.8,-.8,2.2,-1.4c.1,.8,.5,1.4,1.3,1.4c1.2,0,2.1,-1.1,2.5,-1.8l-.2,-.2c-.5,.6,-1.2,1.6,-2,1.6c-.4,0,-.6,-.6,-.6,-1.2c0,-.3,0,-.8,.2,-1.3l.1,-.7c.1,-.6,.4,-1.3,.7,-1.7c.1,-.2,.5,-.9,.9,-.9c.4,0,.4,.3,.4,.6c-.1,.4,.1,.6,.4,.6c.4,0,.5,-.3,.5,-.7Z" class="g2_215"/>
<path d="M483.7,728.6h.3l1.5,-6c.1,-.1,.1,-.3,.2,-.4c.1,-.3,.4,-.7,.6,-.9c.1,0,.4,-.1,.5,-.1v-.1h-2.2v.1c.2,0,.4,.1,.5,.3c.2,.2,.2,.6,.2,.9c0,.1,0,.2,0,.3l-1.1,4v.1l-2.5,-5.7h-2v.1c.4,0,.5,.1,.7,.2c.2,.3,.4,.7,.4,1c0,.1,0,.2,-.1,.3l-1.1,4.5c-.1,.3,-.4,.7,-.6,.9c-.3,.2,-.7,.4,-1,.4v.1h2.8v-.1c-.3,0,-.6,-.1,-.7,-.2c-.2,-.2,-.3,-.6,-.3,-.8c0,-.2,0,-.3,0,-.4l1.1,-4.4l.1,-.2l2.7,6.1Z" class="g2_215"/>
<path d="M496.3,714.4l.2,-.4l-1.4,5.4c0,.2,-.1,.4,-.2,.6c-.1,.2,-.3,.5,-.5,.6c-.2,.1,-.3,.1,-.5,.1v.2H497v-.2c-.3,0,-.6,0,-.7,-.1c-.2,-.1,-.2,-.4,-.2,-.6c0,-.2,0,-.4,.1,-.7l1.1,-4.1c.1,-.3,.1,-.6,.2,-.8c.1,-.3,.4,-.7,.6,-.8c.1,-.1,.3,-.1,.5,-.1v-.2h-1.9l-3.7,5.9h-.1l-.7,-5.9h-2.4v.2c.3,0,.5,0,.7,.1c.1,0,.3,.3,.3,.5c0,.2,0,.4,-.1,.8l-1.2,4.5c-.1,.3,-.4,.7,-.6,.9c-.3,.3,-.6,.4,-.9,.4l-.1,.2h2.7l.1,-.2c-.3,0,-.6,-.1,-.7,-.2c-.1,-.2,-.3,-.5,-.3,-.8c0,-.1,0,-.3,.1,-.4l1.3,-4.9v-.3l.8,6.8h.4l4,-6.5Z" class="g2_215"/>
<path d="M500.4,650.9c0,.1,0,.2,.1,.3c3.2,5.4,4,19.2,4,20.4v.6h1.4v-.6c0,-1.6,-.6,-15.5,-5.3,-20.8q-.1,0,-.1,0q-.1,0,-.1,.1Z" class="g2_215"/>
<path d="M504.5,681.5h1.4v-9.6h-1.4Z" class="g2_215"/>
<path d="M504.5,690.4h1.4v-9.6h-1.4Z" class="g2_215"/>
<path d="M504.5,699.4h1.4v-9.6h-1.4Z" class="g2_215"/>
<path d="M504.5,708.3h1.4v-9.6h-1.4Z" class="g2_215"/>
<path d="M500.4,729.5c0,0,0,.1,.1,.1l.1,-.1c4.7,-5.3,5.3,-19.1,5.3,-20.7v-.7h-1.4v.7c0,1.2,-.8,14.9,-4,20.3c-.1,.2,-.1,.3,-.1,.4Z" class="g2_215"/>
</svg>