<?xml version="1.0" encoding="UTF-8" standalone="no"?>
<!DOCTYPE svg PUBLIC "-//W3C//DTD SVG 1.1//EN"
"http://www.w3.org/Graphics/SVG/1.1/DTD/svg11.dtd">
<svg viewBox="0 0 811 1017" version="1.1" xmlns="http://www.w3.org/2000/svg" xmlns:xlink="http://www.w3.org/1999/xlink">
<defs>
<style type="text/css"><![CDATA[
.g0_408{
fill: #D9D9D9;
}
.g1_408{
fill: #FFF;
}
.g2_408{
fill: #AEACAB;
}
.g3_408{
fill: none;
stroke: #231F20;
stroke-width: 0.759;
stroke-linejoin: round;
}
]]></style>
</defs>
<path d="M237.6,738.6h36.7V726.2H237.6Z" class="g0_408"/>
<path d="M347.6,784.5h14.7V772H347.6Z" class="g0_408"/>
<path d="M215.6,799.7h36.7V787.3H215.6Z" class="g0_408"/>
<path d="M347.6,799.7h14.7V787.3H347.6Z" class="g0_408"/>
<path d="M215.6,815H376.9V802.6H215.6Z" class="g0_408"/>
<path d="M215.6,830.3H376.9V817.9H215.6Z" class="g0_408"/>
<path d="M143,294.6H298.9V275.2H143Z" class="g1_408"/>
<path d="M143,314.1h19.5V294.6H143Z" class="g1_408"/>
<path d="M162.5,314.1h38.9V294.6H162.5Z" class="g2_408"/>
<path d="M201.4,314.1h97.5V294.6H201.4Z" class="g1_408"/>
<path d="M143,333.6H298.9V314.1H143Z" class="g1_408"/>
<path d="M143,353H298.9V333.6H143Z" class="g1_408"/>
<path d="M143,372.5H259.9V353H143Z" class="g1_408"/>
<path d="M259.9,372.5h19.5V353H259.9Z" class="g2_408"/>
<path d="M279.4,372.5h19.5V353H279.4Z" class="g1_408"/>
<path d="M143,392H259.9V372.5H143Z" class="g1_408"/>
<path d="M259.9,392h19.5V372.5H259.9Z" class="g2_408"/>
<path d="M279.4,392h19.5V372.5H279.4Z" class="g1_408"/>
<path d="M143,411.4H298.9V392H143Z" class="g2_408"/>
<path d="M143,430.9H298.9V411.4H143Z" class="g2_408"/>
<path d="M162.5,274.9V431.2M181.9,274.9V431.2M201.4,274.9V431.2M220.9,274.9V431.2M240.4,274.9V431.2M259.9,274.9V431.2M279.4,274.9V431.2M142.7,294.6H299.2M142.7,314.1H299.2M142.7,333.6H299.2M142.7,353H299.2M142.7,372.5H299.2M142.7,392H299.2M142.7,411.4H299.2M143,274.9V431.2M298.9,274.9V431.2M142.7,275.2H299.2M142.7,430.9H299.2" class="g3_408"/>
<path d="M329.1,294.6h58.5V275.2H329.1Z" class="g1_408"/>
<path d="M387.6,294.6h97.5V275.2H387.6Z" class="g1_408"/>
<path d="M329.1,314.1h58.5V294.6H329.1Z" class="g1_408"/>
<path d="M387.6,314.1h97.5V294.6H387.6Z" class="g1_408"/>
<path d="M329.1,333.6h58.5V314.1H329.1Z" class="g1_408"/>
<path d="M387.6,333.6h97.5V314.1H387.6Z" class="g1_408"/>
<path d="M329.1,353h58.5V333.6H329.1Z" class="g1_408"/>
<path d="M387.6,353h97.5V333.6H387.6Z" class="g1_408"/>
<path d="M329.1,372.5h58.5V353H329.1Z" class="g1_408"/>
<path d="M387.6,372.5h97.5V353H387.6Z" class="g1_408"/>
<path d="M329.1,392h58.5V372.5H329.1Z" class="g1_408"/>
<path d="M387.6,392h97.5V372.5H387.6Z" class="g1_408"/>
<path d="M329.1,411.4h58.5V392H329.1Z" class="g1_408"/>
<path d="M387.6,411.4h58.5V392H387.6Z" class="g1_408"/>
<path d="M446.1,411.4h19.5V392H446.1Z" class="g2_408"/>
<path d="M465.6,411.4h19.5V392H465.6Z" class="g1_408"/>
<path d="M329.1,430.9h58.5V411.4H329.1Z" class="g2_408"/>
<path d="M387.6,430.9h97.5V411.4H387.6Z" class="g2_408"/>
<path d="M348.6,274.9V431.2M368.1,274.9V431.2M387.6,274.9V431.2M407.1,274.9V431.2M426.6,274.9V431.2M446.1,274.9V431.2M465.6,274.9V431.2M328.8,294.6H485.4M328.8,314.1H485.4M328.8,333.6H485.4M328.8,353H485.4M328.8,372.5H485.4M328.8,392H485.4M328.8,411.4H485.4M329.1,274.9V431.2m156,-156.3V431.2M328.8,275.2H485.4M328.8,430.9H485.4" class="g3_408"/>
<image x="516" y="275" width="157" height="98" xlink:href="shade/1.png"/>
<path d="M516.4,391.9H633.3V372.4H516.4Z" class="g1_408"/>
<path d="M633.3,391.9h19.5V372.4H633.3Z" class="g2_408"/>
<path d="M652.8,391.9h19.5V372.4H652.8Z" class="g1_408"/>
<path d="M516.4,411.4H672.3V391.9H516.4Z" class="g2_408"/>
<path d="M516.4,430.8H672.3V411.4H516.4Z" class="g2_408"/>
<path d="M535.9,274.8V431.1M555.4,274.8V431.1M574.9,274.8V431.1M594.3,274.8V431.1M613.8,274.8V431.1M633.3,274.8V431.1M652.8,274.8V431.1M516.1,294.6H672.6M516.1,314H672.6M516.1,333.5H672.6M516.1,353H672.6M516.1,372.4H672.6M516.1,391.9H672.6M516.1,411.4H672.6M516.4,274.8V431.1M672.3,274.8V431.1M516.1,275.1H672.6M516.1,430.8H672.6" class="g3_408"/>
</svg>