<?xml version="1.0" encoding="UTF-8" standalone="no"?>
<!DOCTYPE svg PUBLIC "-//W3C//DTD SVG 1.1//EN"
"http://www.w3.org/Graphics/SVG/1.1/DTD/svg11.dtd">
<svg viewBox="0 0 811 1017" version="1.1" xmlns="http://www.w3.org/2000/svg" xmlns:xlink="http://www.w3.org/1999/xlink">
<defs>
<clipPath id="c0_54"><path d="M142.4,915.7V635.2H490.7V915.7Z"/></clipPath>
<style type="text/css"><![CDATA[
.g0_54{
fill: #0E0E0E;
}
]]></style>
</defs>
<path d="M374.3,164.2c-.5,0,-.9,.1,-1.4,.5c-.4,.3,-.8,.6,-1.2,1.1c-.6,.8,-1.2,2,-1.2,3.3c0,.9,.3,1.7,1.3,1.7c1.3,0,1.8,-.9,2.1,-1.6h.1c-.2,1,-.1,1.6,.5,1.6c.4,0,.7,-.2,1.1,-.5c.4,-.3,.8,-.8,1.1,-1.4l-.1,-.1c-.3,.4,-1,1.4,-1.4,1.4c-.2,0,-.3,-.4,-.3,-.6c0,-.9,.6,-2.4,1,-3.4l.7,-1.9h-1l-.3,.7c-.2,-.5,-.5,-.8,-1,-.8Zm.1,.3c.7,0,.5,1.3,.4,1.8c0,.4,-.2,.7,-.3,1c-.3,1.2,-1.4,3.1,-2.2,3.1c-.6,0,-.8,-.9,-.8,-1.4c0,-.4,0,-.9,.2,-1.3c.4,-1.1,1.4,-3.2,2.7,-3.2Z" class="g0_54"/>
<path d="M378.6,165.9v.2c.4,0,.8,.1,1,.1c.3,.2,.3,.3,.3,.8v4.7c0,.3,0,.5,0,.6c-.1,.5,-.7,.5,-1.2,.6v.1h3.4v-.1c-.4,0,-.9,-.1,-1,-.3c-.2,-.2,-.2,-.5,-.2,-.9v-6.3c-.6,.3,-1.6,.5,-2.3,.5Z" class="g0_54"/>
<path d="M391.2,165.1c0,-.5,-.4,-.9,-1,-.9c-.3,0,-.6,.1,-.9,.3c-.3,.3,-.6,.6,-.9,.9c0,-.6,-.4,-1.2,-1,-1.2c-1.1,0,-2.1,1.2,-2.4,2l.2,.1c.3,-.5,1,-1.7,1.9,-1.7c.3,0,.4,.5,.4,.9c0,.3,0,.7,-.2,1.2l-.3,1.2c-.2,.6,-.4,1.3,-.7,1.7c-.2,.3,-.5,.7,-.8,.7c-.5,0,-.8,-.1,-.7,-.5c.1,-.3,.1,-.7,-.4,-.7c-.4,0,-.6,.3,-.6,.8c0,.5,.5,.9,1.1,.9c1,0,1.7,-.8,2.1,-1.4c.1,.8,.5,1.4,1.4,1.4c1.1,0,2,-1.2,2.4,-1.8l-.2,-.2c-.5,.6,-1.2,1.6,-2,1.6c-.4,0,-.6,-.6,-.6,-1.2c0,-.3,0,-.8,.2,-1.3l.2,-.7c.1,-.6,.3,-1.3,.6,-1.7c.2,-.3,.5,-.9,.9,-.9c.4,0,.4,.3,.4,.6c-.1,.4,.1,.6,.4,.6c.4,0,.5,-.3,.5,-.7Z" class="g0_54"/>
<path d="M399,166.4h-3.3v1H399v3.3h1v-3.3h3.2v-1H400v-3.2h-1v3.2Z" class="g0_54"/>
<path d="M411.5,164.2c-.4,0,-.8,.1,-1.3,.5c-.4,.3,-.9,.6,-1.2,1.1c-.7,.8,-1.3,2,-1.3,3.3c0,.9,.4,1.7,1.3,1.7c1.3,0,1.8,-.9,2.2,-1.6c-.2,1,-.1,1.6,.6,1.6c.3,0,.7,-.2,1.1,-.5c.4,-.3,.8,-.8,1.1,-1.4l-.2,-.1c-.3,.4,-.9,1.4,-1.3,1.4c-.2,0,-.3,-.4,-.3,-.6c0,-.9,.6,-2.4,.9,-3.4l.7,-1.9h-1l-.2,.7c-.2,-.5,-.5,-.8,-1.1,-.8Zm.1,.3c.7,0,.6,1.3,.5,1.8c-.1,.4,-.2,.7,-.3,1c-.4,1.2,-1.5,3.1,-2.3,3.1c-.6,0,-.7,-.9,-.7,-1.4c0,-.4,0,-.9,.2,-1.3c.3,-1.1,1.4,-3.2,2.6,-3.2Z" class="g0_54"/>
<path d="M417.1,168.4c-.7,0,-1.1,-.5,-1.1,-1.2c0,-.8,.4,-1.6,1.3,-1.6c1.2,0,1.4,1,1.4,1.9c0,.9,-.3,1.5,-.7,2.1c-.3,.4,-.7,.9,-1.2,1.4c-.5,.5,-1.1,1,-1.8,1.7v.3h4.5l.4,-2.1h-.3c-.1,.3,-.2,.5,-.2,.6c-.2,.4,-.5,.6,-1,.6h-2.1l-.1,-.1c.5,-.3,1,-.7,1.4,-1c.8,-.7,1.6,-1.4,2,-2.3c.2,-.4,.3,-.8,.3,-1.2c0,-.3,-.1,-.6,-.2,-.8c-.4,-.8,-1.1,-1.3,-2.2,-1.3c-.7,0,-1.3,.2,-1.7,.6c-.4,.3,-.7,.8,-.7,1.4c0,.5,.1,.8,.3,1.1c.2,.2,.5,.4,.9,.4c.4,0,.7,-.2,.8,-.5Z" class="g0_54"/>
<path d="M420.3,172.8c0,.6,.4,1,1.1,1c.4,0,.8,-.2,1.3,-.6c.8,-.7,2,-2.2,2.8,-3.4c.3,-.6,.7,-1.3,1,-1.8c.4,-.8,1.1,-2.1,1.1,-2.9c0,-.3,0,-.5,-.1,-.7c-.1,-.1,-.3,-.2,-.5,-.2c-.1,0,-.3,.1,-.4,.2c-.2,.1,-.2,.3,-.2,.6c0,.5,.2,1,.2,1.4c0,.6,-.2,1.1,-.5,1.6c-.2,.4,-.4,.8,-.8,1.4h-.1l-.3,-2c-.1,-.5,-.3,-1.6,-.4,-2c-.2,-.7,-.3,-1.2,-1.3,-1.2c-1.2,0,-1.4,1.8,-1.6,2.5l.3,.2c.1,-.6,.5,-2.4,1,-2.4c.3,0,.5,1.1,.6,1.3c0,.3,.1,.7,.2,1.4l.6,3.5c-.3,.8,-1.2,1.6,-1.8,2.1c-.2,.2,-.5,.3,-.7,.3c-.1,0,-.2,-.1,-.2,-.2c-.2,-.2,-.2,-.7,-.7,-.7c-.4,0,-.6,.3,-.6,.6Z" class="g0_54"/>
<path d="M435.4,166.4h-3.2v1h3.2v3.3h1v-3.3h3.2v-1h-3.2v-3.2h-1v3.2Z" class="g0_54"/>
<path d="M447.9,164.2c-.4,0,-.8,.1,-1.3,.5c-.4,.3,-.8,.6,-1.2,1.1c-.6,.8,-1.2,2,-1.2,3.3c0,.9,.3,1.7,1.3,1.7c1.3,0,1.7,-.9,2.1,-1.6h.1c-.2,1,-.1,1.6,.5,1.6c.4,0,.7,-.2,1.1,-.5c.4,-.3,.8,-.8,1.1,-1.4l-.2,-.1c-.2,.4,-.9,1.4,-1.3,1.4c-.2,0,-.3,-.4,-.3,-.6c0,-.9,.6,-2.4,1,-3.4l.7,-1.9h-1l-.3,.7c-.2,-.5,-.5,-.8,-1.1,-.8Zm.2,.3c.7,0,.5,1.3,.4,1.8c0,.4,-.2,.7,-.3,1c-.3,1.2,-1.4,3.1,-2.2,3.1c-.6,0,-.8,-.9,-.8,-1.4c0,-.4,0,-.9,.2,-1.3c.4,-1.1,1.4,-3.2,2.7,-3.2Z" class="g0_54"/>
<path d="M453.7,172.9c-.7,0,-1.2,-.6,-1.2,-1.4c0,-.5,.3,-.9,.8,-.9c-.1,-.3,-.4,-.4,-.8,-.4c-.1,0,-.3,0,-.4,.1c-.4,.1,-.7,.6,-.7,1.1c0,.2,.1,.5,.2,.7c.4,.6,1.1,1,2.2,1c.8,0,1.4,-.2,1.8,-.6c.4,-.3,.8,-.8,.8,-1.5c0,-.2,-.1,-.5,-.2,-.7c-.2,-.6,-.8,-1.1,-1.5,-1.3c.4,-.2,.8,-.4,1,-.7c.2,-.3,.4,-.7,.4,-1.2c0,-.2,0,-.5,-.1,-.7c-.4,-.7,-1.2,-1,-2.2,-1c-.6,0,-1.2,.1,-1.5,.4c-.3,.2,-.6,.5,-.6,1c0,.3,.1,.6,.3,.7c.1,.2,.4,.3,.7,.3c.2,0,.3,0,.5,-.1c.1,0,.2,-.1,.2,-.3c-.4,0,-.7,-.3,-.7,-.7c0,-.6,.5,-1.1,1.1,-1.1c.8,0,1.2,.7,1.2,1.6c0,.9,-.3,1.8,-1.1,1.8c-.2,-.1,-.4,-.2,-.6,-.2c-.2,0,-.5,.1,-.5,.3c0,.2,.3,.3,.5,.3c.3,0,.5,-.1,.7,-.2c.9,0,1.1,.8,1.1,1.7c0,1.1,-.4,2,-1.4,2Z" class="g0_54"/>
<path d="M462.5,168.8h7.6V168h-7.6Zm0,-3h7.6v-.9h-7.6Z" class="g0_54"/>
<path d="M479,170.5c-1.9,0,-1.9,-2.7,-1.9,-4.9c0,-2.2,0,-5.1,1.9,-5.1c2,0,2,2.9,2,5.1c0,2.2,-.1,4.9,-2,4.9Zm.1,-10.3H479c-2.6,.1,-3.4,2.7,-3.4,5.4c0,2.6,.9,5.2,3.4,5.2c2.6,0,3.4,-2.6,3.4,-5.2c0,-2.7,-.7,-5.3,-3.3,-5.4Z" class="g0_54"/>
<path d="M386.8,305.1c0,-.6,-.5,-1,-1,-1c-.3,0,-.7,.2,-1,.4c-.3,.2,-.6,.5,-.8,.9c0,-.7,-.4,-1.3,-1.1,-1.3c-1.1,0,-2.1,1.2,-2.4,2l.2,.1c.4,-.5,1.1,-1.7,2,-1.7c.3,0,.4,.5,.4,1c0,.3,-.1,.6,-.2,1.1l-.4,1.2c-.1,.6,-.4,1.4,-.7,1.8c-.2,.2,-.4,.7,-.8,.7c-.4,0,-.7,-.1,-.6,-.5c.1,-.3,0,-.8,-.4,-.8c-.5,0,-.6,.3,-.6,.8c0,.5,.4,.9,1,.9c1,0,1.7,-.8,2.1,-1.4h.1c.1,.8,.5,1.4,1.3,1.4c1.2,0,2,-1.1,2.5,-1.8l-.2,-.2c-.5,.7,-1.2,1.7,-2,1.7c-.4,0,-.7,-.6,-.7,-1.3c0,-.3,.1,-.7,.2,-1.3l.2,-.7c.1,-.6,.4,-1.3,.6,-1.6c.2,-.3,.6,-1,1,-1c.4,0,.3,.3,.3,.6c0,.4,.2,.6,.5,.6c.4,0,.5,-.3,.5,-.6Z" class="g0_54"/>
<path d="M391.7,307.2h7.7v-.8h-7.7Z" class="g0_54"/>
<path d="M410.8,305.1c0,-.6,-.4,-1,-1,-1c-.3,0,-.6,.2,-.9,.4c-.3,.2,-.6,.5,-.9,.9c0,-.7,-.4,-1.3,-1,-1.3c-1.2,0,-2.1,1.2,-2.5,2l.2,.1c.4,-.5,1.1,-1.7,2,-1.7c.3,0,.4,.5,.4,1c0,.3,-.1,.6,-.2,1.1l-.3,1.2c-.2,.6,-.4,1.4,-.8,1.8c-.1,.2,-.4,.7,-.7,.7c-.5,0,-.8,-.1,-.7,-.5c.1,-.3,0,-.8,-.4,-.8c-.4,0,-.6,.3,-.6,.8c0,.5,.5,.9,1,.9c1.1,0,1.8,-.8,2.2,-1.4c.1,.8,.5,1.4,1.3,1.4c1.2,0,2.1,-1.1,2.5,-1.8l-.2,-.2c-.5,.7,-1.2,1.7,-2,1.7c-.4,0,-.6,-.6,-.6,-1.3c0,-.3,0,-.7,.2,-1.3l.1,-.7c.1,-.6,.4,-1.3,.7,-1.6c.1,-.3,.5,-1,.9,-1c.4,0,.4,.3,.4,.6c-.1,.4,.1,.6,.4,.6c.4,0,.5,-.3,.5,-.6Z" class="g0_54"/>
<path d="M414,312.9c-1.4,0,-1.4,-2,-1.4,-3.6c0,-1.6,0,-3.8,1.4,-3.8c1.4,0,1.4,2.2,1.4,3.8c0,1.6,0,3.6,-1.4,3.6Zm0,-7.6c-1.9,0,-2.5,2,-2.5,4c0,1.9,.6,3.8,2.5,3.8c1.9,0,2.5,-1.9,2.5,-3.8c0,-2,-.6,-4,-2.5,-4Z" class="g0_54"/>
<path d="M379.6,317.3h38.2v-.8H379.6Z" class="g0_54"/>
<path d="M396.2,324.5c-.4,0,-.9,.1,-1.3,.4c-.4,.3,-.9,.7,-1.2,1.2c-.7,.7,-1.3,1.9,-1.3,3.2c0,1,.4,1.8,1.3,1.8c1.3,0,1.8,-.9,2.2,-1.6c-.2,.9,-.1,1.6,.6,1.6c.3,0,.7,-.2,1.1,-.5c.4,-.3,.8,-.8,1.1,-1.4l-.2,-.1c-.3,.4,-.9,1.3,-1.3,1.3c-.2,0,-.3,-.3,-.3,-.6c0,-.9,.6,-2.4,.9,-3.4l.7,-1.8h-1l-.2,.6c-.2,-.4,-.5,-.7,-1.1,-.7Zm.1,.2c.7,0,.6,1.3,.5,1.9c-.1,.3,-.2,.6,-.3,1c-.4,1.2,-1.5,3.1,-2.3,3.1c-.6,0,-.7,-.9,-.7,-1.4c0,-.5,0,-.9,.2,-1.4c.3,-1,1.4,-3.2,2.6,-3.2Z" class="g0_54"/>
<path d="M404.4,329.1c0,-.4,-.3,-.7,-.7,-.7c-.2,0,-.5,.1,-.7,.3c-.2,.2,-.5,.4,-.6,.6c0,-.4,-.3,-.9,-.8,-.9c-.8,0,-1.5,.9,-1.8,1.5l.2,.1c.2,-.4,.8,-1.3,1.4,-1.3c.2,0,.3,.4,.3,.7c0,.2,0,.5,-.2,.9l-.2,.8c-.1,.5,-.3,1,-.5,1.3c-.1,.2,-.3,.5,-.6,.5c-.3,0,-.5,0,-.5,-.3c.1,-.3,.1,-.6,-.3,-.6c-.3,0,-.4,.2,-.4,.6c0,.4,.3,.7,.8,.7c.7,0,1.2,-.6,1.5,-1.1c.1,.6,.4,1.1,1,1.1c.9,0,1.5,-.9,1.8,-1.4l-.1,-.1c-.4,.5,-.9,1.2,-1.5,1.2c-.3,0,-.5,-.4,-.5,-.9c0,-.2,.1,-.6,.2,-1l.1,-.5c.1,-.4,.3,-.9,.5,-1.2c.1,-.2,.4,-.7,.6,-.7c.3,0,.3,.3,.3,.5c0,.3,.1,.4,.3,.4c.3,0,.4,-.2,.4,-.5Z" class="g0_54"/>
<path d="M424.3,318.8h7.6V318h-7.6Zm0,-3h7.6V315h-7.6Z" class="g0_54"/>
<path d="M437.5,312.8c0,.6,.4,.9,1.1,.9c.4,0,.8,-.2,1.2,-.6c.9,-.6,2.1,-2.2,2.9,-3.4c.3,-.6,.7,-1.2,1,-1.8c.4,-.8,1.1,-2.1,1.1,-2.9c0,-.2,0,-.4,-.1,-.6c-.1,-.2,-.3,-.3,-.5,-.3c-.2,0,-.3,.1,-.4,.2c-.2,.2,-.3,.4,-.3,.7c0,.4,.3,.9,.3,1.3c0,.6,-.3,1.1,-.5,1.6c-.2,.5,-.5,.9,-.8,1.4h-.1l-.3,-1.9c-.1,-.6,-.3,-1.6,-.4,-2.1c-.2,-.6,-.4,-1.2,-1.3,-1.2c-1.2,0,-1.4,1.8,-1.7,2.6l.4,.1c.1,-.6,.5,-2.3,1,-2.3c.3,0,.5,1,.5,1.2c.1,.3,.2,.7,.3,1.4l.6,3.5c-.3,.8,-1.2,1.7,-1.8,2.2c-.2,.1,-.5,.2,-.7,.2c-.1,0,-.2,-.1,-.2,-.1c-.2,-.3,-.2,-.8,-.7,-.8c-.4,0,-.6,.3,-.6,.7Z" class="g0_54"/>
<path d="M449.8,307.2h7.6v-.8h-7.6Z" class="g0_54"/>
<path d="M460.7,312.8c0,.6,.4,.9,1.1,.9c.4,0,.8,-.2,1.2,-.6c.9,-.6,2.1,-2.2,2.9,-3.4c.3,-.6,.7,-1.2,1,-1.8c.4,-.8,1.1,-2.1,1.1,-2.9c0,-.2,0,-.4,-.1,-.6c-.1,-.2,-.3,-.3,-.5,-.3c-.2,0,-.3,.1,-.4,.2c-.2,.2,-.2,.4,-.2,.7c0,.4,.2,.9,.2,1.3c0,.6,-.2,1.1,-.5,1.6c-.2,.5,-.4,.9,-.8,1.4h-.1l-.3,-1.9c-.1,-.6,-.3,-1.6,-.4,-2.1c-.2,-.6,-.4,-1.2,-1.3,-1.2c-1.2,0,-1.4,1.8,-1.6,2.6l.3,.1c.1,-.6,.5,-2.3,1,-2.3c.3,0,.5,1,.5,1.2c.1,.3,.2,.7,.3,1.4l.6,3.5c-.3,.8,-1.2,1.7,-1.8,2.2c-.2,.1,-.5,.2,-.7,.2c-.1,0,-.2,-.1,-.2,-.1c-.2,-.3,-.2,-.8,-.7,-.8c-.4,0,-.6,.3,-.6,.7Z" class="g0_54"/>
<path d="M471.2,312.9c-1.4,0,-1.4,-2,-1.4,-3.6c0,-1.6,0,-3.8,1.4,-3.8c1.4,0,1.4,2.2,1.4,3.8c0,1.6,0,3.6,-1.4,3.6Zm0,-7.6c-1.9,0,-2.4,2,-2.4,4c0,1.9,.6,3.8,2.4,3.8c1.9,0,2.5,-1.9,2.5,-3.8c0,-2,-.6,-4,-2.5,-4Z" class="g0_54"/>
<path d="M438.5,317.3H475v-.8H438.5Z" class="g0_54"/>
<path d="M454.6,324.5c-.5,0,-.9,.1,-1.3,.4c-.5,.3,-.9,.7,-1.3,1.2c-.6,.7,-1.2,1.9,-1.2,3.2c0,1,.4,1.8,1.3,1.8c1.3,0,1.8,-.9,2.2,-1.6c-.2,.9,-.1,1.6,.5,1.6c.4,0,.8,-.2,1.2,-.5c.4,-.3,.7,-.8,1.1,-1.4l-.2,-.1c-.3,.4,-.9,1.3,-1.4,1.3c-.2,0,-.2,-.3,-.2,-.6c0,-.9,.6,-2.4,.9,-3.4l.7,-1.8h-1l-.3,.6c-.1,-.4,-.4,-.7,-1,-.7Zm.1,.2c.7,0,.6,1.3,.5,1.9c-.1,.3,-.2,.6,-.3,1c-.4,1.2,-1.5,3.1,-2.3,3.1c-.6,0,-.8,-.9,-.8,-1.4c0,-.5,0,-.9,.2,-1.4c.4,-1,1.4,-3.2,2.7,-3.2Z" class="g0_54"/>
<path d="M456.8,334.8c0,.4,.3,.6,.8,.6c.3,0,.6,-.1,.9,-.4c.6,-.5,1.5,-1.6,2.1,-2.5c.2,-.4,.5,-.9,.7,-1.3c.3,-.6,.8,-1.5,.8,-2.1c0,-.2,0,-.3,-.1,-.5c0,-.1,-.2,-.2,-.3,-.2c-.1,0,-.2,.1,-.3,.2c-.1,.1,-.2,.2,-.2,.5c0,.3,.2,.6,.2,.9c0,.5,-.2,.8,-.3,1.2c-.2,.3,-.4,.6,-.6,1h-.1l-.2,-1.4c-.1,-.4,-.3,-1.2,-.3,-1.5c-.2,-.5,-.3,-.9,-1,-.9c-.9,0,-1,1.3,-1.2,1.9l.2,.1c.1,-.4,.5,-1.7,.8,-1.7c.2,0,.4,.7,.4,.9c0,.2,.1,.5,.2,1l.4,2.6c-.2,.6,-.8,1.2,-1.3,1.5c-.1,.2,-.4,.2,-.5,.2q-.1,0,-.2,-.1c-.1,-.2,-.1,-.5,-.5,-.5c-.3,0,-.4,.2,-.4,.5Z" class="g0_54"/>
<path d="M356.1,469.2c-.4,0,-.9,.1,-1.3,.5c-.5,.2,-.9,.6,-1.3,1.1c-.6,.8,-1.2,2,-1.2,3.2c0,1,.4,1.8,1.3,1.8c1.3,0,1.8,-.9,2.2,-1.6c-.2,.9,-.1,1.6,.6,1.6c.3,0,.7,-.2,1.1,-.5c.4,-.3,.7,-.8,1.1,-1.4l-.2,-.1c-.3,.4,-.9,1.3,-1.3,1.3c-.3,0,-.3,-.3,-.3,-.5c0,-.9,.6,-2.5,.9,-3.4l.7,-1.9h-1l-.2,.7c-.2,-.5,-.5,-.8,-1.1,-.8Zm.1,.3c.7,0,.6,1.3,.5,1.8c-.1,.4,-.2,.7,-.3,1c-.4,1.2,-1.5,3.1,-2.3,3.1c-.6,0,-.8,-.9,-.8,-1.4c0,-.4,.1,-.9,.2,-1.3c.4,-1.1,1.5,-3.2,2.7,-3.2Z" class="g0_54"/>
<path d="M360.5,470.9v.2c.3,0,.8,.1,.9,.1c.4,.2,.3,.3,.4,.8v4.7c0,.3,0,.4,-.1,.6c0,.5,-.6,.5,-1.2,.6v.1H364v-.1c-.4,0,-1,-.1,-1.1,-.3c-.2,-.2,-.2,-.5,-.2,-.9v-6.3c-.6,.3,-1.5,.5,-2.2,.5Z" class="g0_54"/>
<path d="M373.1,470.1c0,-.5,-.5,-.9,-1,-.9c-.3,0,-.7,.1,-1,.3c-.3,.3,-.6,.6,-.8,.9c0,-.6,-.4,-1.2,-1.1,-1.2c-1.1,0,-2.1,1.2,-2.4,1.9l.2,.2c.4,-.5,1.1,-1.7,2,-1.7c.2,0,.4,.5,.4,.9c0,.3,-.1,.7,-.2,1.2l-.4,1.2c-.2,.6,-.4,1.3,-.7,1.7c-.2,.3,-.4,.7,-.8,.7c-.4,0,-.7,-.1,-.6,-.5c.1,-.3,0,-.7,-.4,-.7c-.5,0,-.7,.3,-.7,.8c0,.5,.5,.9,1.1,.9c1,0,1.7,-.8,2.1,-1.5l.1,.1c.1,.8,.5,1.4,1.3,1.4c1.2,0,2,-1.2,2.4,-1.8l-.1,-.2c-.5,.6,-1.2,1.6,-2,1.6c-.5,0,-.7,-.6,-.7,-1.2c0,-.3,.1,-.8,.2,-1.3l.2,-.8c.1,-.5,.4,-1.2,.6,-1.6c.2,-.3,.6,-.9,1,-.9c.4,0,.3,.3,.3,.6c0,.4,.1,.6,.5,.6c.3,0,.5,-.3,.5,-.7Z" class="g0_54"/>
<path d="M380.8,471.4h-3.2v1h3.2v3.3h1v-3.3h3.3v-1h-3.3v-3.3h-1v3.3Z" class="g0_54"/>
<path d="M393.4,469.2c-.5,0,-.9,.1,-1.4,.5c-.4,.2,-.8,.6,-1.2,1.1c-.6,.8,-1.2,2,-1.2,3.2c0,1,.3,1.8,1.3,1.8c1.3,0,1.8,-.9,2.1,-1.6h.1c-.2,.9,-.1,1.6,.5,1.6c.4,0,.7,-.2,1.1,-.5c.4,-.3,.8,-.8,1.1,-1.4l-.1,-.1c-.3,.4,-1,1.3,-1.4,1.3c-.2,0,-.3,-.3,-.3,-.5c0,-.9,.6,-2.5,1,-3.4l.7,-1.9h-1l-.3,.7c-.2,-.5,-.5,-.8,-1,-.8Zm.1,.3c.7,0,.5,1.3,.4,1.8c0,.4,-.2,.7,-.3,1c-.3,1.2,-1.4,3.1,-2.2,3.1c-.6,0,-.8,-.9,-.8,-1.4c0,-.4,0,-.9,.2,-1.3c.4,-1.1,1.4,-3.2,2.7,-3.2Z" class="g0_54"/>
<path d="M398.9,473.4c-.6,0,-1,-.5,-1,-1.2c0,-.8,.4,-1.6,1.3,-1.6c1.2,0,1.3,1,1.3,1.9c0,.9,-.3,1.5,-.7,2.1c-.3,.4,-.7,.9,-1.1,1.4c-.5,.5,-1.1,1,-1.9,1.7v.3h4.6l.3,-2.1h-.3c0,.3,-.1,.5,-.2,.6c-.2,.4,-.5,.6,-1,.6h-2.1V477c.5,-.3,.9,-.7,1.4,-1c.7,-.7,1.5,-1.4,1.9,-2.3c.2,-.4,.3,-.8,.3,-1.2c0,-.3,-.1,-.6,-.2,-.9c-.3,-.7,-1.1,-1.2,-2.2,-1.2c-.7,0,-1.3,.2,-1.7,.6c-.4,.3,-.7,.8,-.7,1.4c0,.5,.1,.8,.4,1.1c.2,.2,.5,.4,.9,.4c.4,0,.7,-.2,.7,-.5Z" class="g0_54"/>
<path d="M402.1,477.8c0,.6,.5,1,1.1,1c.5,0,.8,-.2,1.3,-.6c.8,-.7,2.1,-2.2,2.8,-3.4c.4,-.6,.8,-1.3,1.1,-1.8c.3,-.8,1.1,-2.1,1.1,-2.9c0,-.3,-.1,-.5,-.2,-.7c-.1,-.2,-.3,-.2,-.4,-.2c-.2,0,-.3,.1,-.5,.2c-.1,.1,-.2,.3,-.2,.6c0,.5,.2,1,.2,1.4c0,.6,-.2,1.1,-.4,1.5c-.3,.5,-.5,.9,-.8,1.5h-.1l-.4,-2c-.1,-.5,-.3,-1.6,-.4,-2c-.2,-.7,-.3,-1.2,-1.3,-1.2c-1.2,0,-1.3,1.8,-1.6,2.5l.3,.1c.1,-.5,.6,-2.3,1.1,-2.3c.3,0,.4,1.1,.5,1.3c.1,.3,.2,.7,.3,1.4l.6,3.5c-.4,.8,-1.2,1.6,-1.8,2.1c-.3,.2,-.6,.3,-.7,.3c-.1,0,-.2,-.1,-.3,-.2c-.2,-.2,-.2,-.7,-.7,-.7c-.4,0,-.6,.3,-.6,.6Z" class="g0_54"/>
<path d="M417.2,471.4H414v1h3.2v3.3h1v-3.3h3.3v-1h-3.3v-3.3h-1v3.3Z" class="g0_54"/>
<path d="M429.8,469.2c-.4,0,-.9,.1,-1.3,.5c-.5,.2,-.9,.6,-1.3,1.1c-.6,.8,-1.2,2,-1.2,3.2c0,1,.4,1.8,1.3,1.8c1.3,0,1.8,-.9,2.2,-1.6c-.2,.9,-.1,1.6,.5,1.6c.4,0,.8,-.2,1.2,-.5c.4,-.3,.7,-.8,1.1,-1.4l-.2,-.1c-.3,.4,-.9,1.3,-1.4,1.3c-.2,0,-.2,-.3,-.2,-.5c0,-.9,.6,-2.5,.9,-3.4l.7,-1.9h-1l-.2,.7c-.2,-.5,-.5,-.8,-1.1,-.8Zm.1,.3c.7,0,.6,1.3,.5,1.8c-.1,.4,-.2,.7,-.3,1c-.4,1.2,-1.5,3.1,-2.3,3.1c-.6,0,-.8,-.9,-.8,-1.4c0,-.4,0,-.9,.2,-1.3c.4,-1.1,1.5,-3.2,2.7,-3.2Z" class="g0_54"/>
<path d="M435.6,477.9c-.8,0,-1.3,-.7,-1.3,-1.4c0,-.5,.3,-.9,.8,-.9c0,-.3,-.4,-.4,-.7,-.4c-.2,0,-.3,0,-.5,.1c-.4,.1,-.6,.5,-.6,1.1c0,.2,0,.5,.1,.7c.4,.6,1.2,1,2.2,1c.8,0,1.4,-.2,1.9,-.6c.4,-.3,.7,-.8,.7,-1.5c0,-.3,-.1,-.5,-.1,-.7c-.3,-.6,-.9,-1.1,-1.6,-1.3v-.1c.4,-.1,.8,-.3,1,-.6c.3,-.3,.5,-.7,.5,-1.2c0,-.2,-.1,-.5,-.2,-.7c-.3,-.7,-1.1,-1,-2.2,-1c-.6,0,-1.1,.1,-1.5,.4c-.3,.2,-.6,.5,-.6,1c0,.3,.2,.6,.3,.7c.2,.2,.4,.3,.7,.3c.2,0,.3,0,.5,-.1c.1,-.1,.2,-.2,.2,-.3c-.4,0,-.7,-.3,-.7,-.7c0,-.6,.5,-1.1,1.1,-1.1c.8,0,1.2,.7,1.2,1.6c0,.9,-.3,1.8,-1.1,1.8c-.1,-.1,-.4,-.2,-.6,-.2c-.2,0,-.5,.1,-.5,.3c0,.2,.3,.3,.6,.3c.2,0,.5,-.1,.6,-.2c.9,0,1.2,.8,1.2,1.7c0,1.1,-.4,2,-1.4,2Z" class="g0_54"/>
<path d="M441.4,471.5c.3,0,.4,-.1,.4,-.4c0,-.5,-.5,-.4,-.7,-.7c0,-.2,.1,-.4,.4,-.4c.9,0,1.4,1,2.6,1l-3.4,3.2c-.4,.3,-.7,.8,-.7,1.1c0,.2,.2,.4,.2,.4c.8,0,.3,-.8,1,-.8c.9,0,1.4,.9,2.5,.9c1.2,0,1.6,-1.2,1.9,-2.2h-.3c-.3,.6,-.6,1.2,-1.2,1.2c-.9,0,-1.7,-.9,-2.6,-.9c1.3,-1.2,2.5,-2.3,3.8,-3.6c.2,-.2,.3,-.4,.3,-.6c0,-.3,0,-.4,-.2,-.4c-.3,0,-.4,.2,-.5,.4c-.1,.2,-.3,.4,-.6,.4c-.8,0,-1.4,-.9,-2.5,-.9c-.7,0,-1.3,.5,-1.3,1.4c0,.6,.3,.9,.9,.9Z" class="g0_54"/>
<path d="M453.6,471.4h-3.3v1h3.3v3.3h1v-3.3h3.2v-1h-3.2v-3.3h-1v3.3Z" class="g0_54"/>
<path d="M466.1,469.2c-.4,0,-.9,.1,-1.3,.5c-.4,.2,-.9,.6,-1.2,1.1c-.7,.8,-1.3,2,-1.3,3.2c0,1,.4,1.8,1.3,1.8c1.3,0,1.8,-.9,2.2,-1.6c-.2,.9,-.1,1.6,.6,1.6c.3,0,.7,-.2,1.1,-.5c.4,-.3,.8,-.8,1.1,-1.4l-.2,-.1c-.3,.4,-.9,1.3,-1.3,1.3c-.2,0,-.3,-.3,-.3,-.5c0,-.9,.6,-2.5,.9,-3.4l.7,-1.9h-1l-.2,.7c-.2,-.5,-.5,-.8,-1.1,-.8Zm.1,.3c.7,0,.6,1.3,.5,1.8c-.1,.4,-.2,.7,-.3,1c-.4,1.2,-1.5,3.1,-2.3,3.1c-.6,0,-.7,-.9,-.7,-1.4c0,-.4,0,-.9,.2,-1.3c.3,-1.1,1.4,-3.2,2.6,-3.2Z" class="g0_54"/>
<path d="M472.2,471.9v3.9h-2.5c.8,-1.3,1.6,-2.6,2.5,-3.9Zm-2.8,3.9v.4h2.8v.4c0,.9,-.1,1.3,-.6,1.3v.1h2.1v-.1c-.4,0,-.5,-.6,-.5,-1.3v-.4h1.2c0,0,0,-.4,0,-.4c0,0,-1.2,0,-1.2,0v-5.4h-.3l-3.5,5.4Z" class="g0_54"/>
<path d="M480.6,473.8h7.7v-.9h-7.7Zm0,-3h7.7v-.9h-7.7Z" class="g0_54"/>
<path d="M497.2,475.5c-1.9,0,-1.9,-2.7,-1.9,-4.9c0,-2.2,0,-5.1,1.9,-5.1c1.9,0,1.9,2.9,1.9,5.1c0,2.2,0,4.9,-1.9,4.9Zm0,-10.3c-2.6,0,-3.4,2.7,-3.4,5.4c0,2.6,.8,5.2,3.4,5.2c2.6,0,3.4,-2.6,3.4,-5.2c0,-2.7,-.8,-5.4,-3.4,-5.4Z" class="g0_54"/>
<path d="M361.7,580.8c.3,0,.4,-.1,.4,-.4c0,-.5,-.5,-.4,-.7,-.8c0,-.2,.1,-.3,.4,-.3c.9,0,1.4,.9,2.6,.9l-3.4,3.2c-.4,.4,-.7,.8,-.7,1.1c0,.3,.2,.4,.3,.4c.7,0,.2,-.8,.9,-.8c.9,0,1.4,.9,2.5,.9c1.2,0,1.6,-1.2,1.9,-2.1l-.3,-.1c-.2,.6,-.6,1.2,-1.2,1.2c-.9,0,-1.7,-.8,-2.6,-.8c1.3,-1.3,2.5,-2.4,3.8,-3.6c.2,-.2,.3,-.4,.3,-.7c0,-.2,0,-.4,-.2,-.4c-.3,0,-.3,.3,-.4,.4c-.2,.2,-.4,.4,-.7,.4c-.8,0,-1.4,-.9,-2.5,-.9c-.7,0,-1.3,.6,-1.3,1.4c0,.6,.3,1,.9,1Z" class="g0_54"/>
<path d="M371.6,583h7.6v-.8h-7.6Zm0,-3h7.6v-.8h-7.6Z" class="g0_54"/>
<path d="M384.9,581.5h7.6v-.8h-7.6Z" class="g0_54"/>
<path d="M399.8,568.3c-.5,0,-.9,.2,-1.3,.5c-.5,.3,-.9,.7,-1.3,1.1c-.6,.8,-1.2,2,-1.2,3.3c0,1,.3,1.7,1.3,1.7c1.3,0,1.8,-.9,2.2,-1.5c-.2,.9,-.1,1.5,.5,1.5c.4,0,.8,-.1,1.2,-.5c.3,-.3,.7,-.8,1,-1.3l-.1,-.2c-.3,.4,-1,1.4,-1.4,1.4c-.2,0,-.3,-.4,-.3,-.6c0,-.9,.7,-2.4,1,-3.4l.7,-1.9h-1l-.3,.7c-.1,-.5,-.4,-.8,-1,-.8Zm.1,.3c.7,0,.5,1.3,.4,1.9c0,.3,-.1,.6,-.3,1c-.3,1.1,-1.4,3.1,-2.2,3.1c-.6,0,-.8,-1,-.8,-1.5c0,-.4,0,-.8,.2,-1.3c.4,-1,1.4,-3.2,2.7,-3.2Z" class="g0_54"/>
<path d="M404.2,570.1v.1c.3,0,.8,.1,.9,.2c.3,.1,.3,.3,.3,.7v4.8c0,.2,0,.4,0,.5c-.1,.5,-.7,.6,-1.2,.6v.2h3.4V577c-.3,0,-.9,0,-1,-.2c-.2,-.2,-.2,-.6,-.2,-1v-6.3c-.6,.3,-1.5,.6,-2.2,.6Z" class="g0_54"/>
<path d="M395.3,581.5h14.3v-.9H395.3Z" class="g0_54"/>
<path d="M399.8,588.7c-.5,0,-.9,.1,-1.3,.4c-.5,.3,-.9,.7,-1.3,1.2c-.6,.7,-1.2,1.9,-1.2,3.2c0,1,.3,1.8,1.3,1.8c1.3,0,1.8,-.9,2.2,-1.6c-.2,.9,-.1,1.6,.5,1.6c.4,0,.8,-.2,1.2,-.5c.3,-.3,.7,-.8,1,-1.4l-.1,-.1c-.3,.4,-1,1.3,-1.4,1.3c-.2,0,-.3,-.3,-.3,-.6c0,-.9,.7,-2.4,1,-3.4l.7,-1.8h-1l-.3,.6c-.1,-.4,-.4,-.7,-1,-.7Zm.1,.2c.7,0,.5,1.3,.4,1.9c0,.3,-.1,.6,-.3,1c-.3,1.2,-1.4,3.1,-2.2,3.1c-.6,0,-.8,-.9,-.8,-1.4c0,-.5,0,-.9,.2,-1.4c.4,-1,1.4,-3.2,2.7,-3.2Z" class="g0_54"/>
<path d="M405.6,597.4c-.8,0,-1.3,-.7,-1.3,-1.4c0,-.5,.3,-1,.8,-1c0,-.2,-.4,-.4,-.7,-.4c-.2,0,-.3,.1,-.5,.1c-.4,.2,-.7,.6,-.7,1.2c0,.2,.1,.4,.2,.6c.4,.7,1.1,1.1,2.1,1.1h.1c.8,0,1.4,-.3,1.8,-.6c.5,-.4,.8,-.8,.8,-1.5c0,-.3,-.1,-.5,-.2,-.7c-.2,-.7,-.8,-1.1,-1.5,-1.3v-.1c.4,-.1,.8,-.3,1,-.6c.3,-.3,.4,-.7,.4,-1.2c0,-.3,0,-.5,-.1,-.7c-.3,-.7,-1.2,-1,-2.2,-1c-.6,0,-1.1,.1,-1.5,.3c-.3,.2,-.6,.6,-.6,1c0,.3,.1,.6,.3,.8c.2,.1,.4,.3,.7,.3c.2,0,.3,-.1,.5,-.1c.1,-.1,.2,-.2,.2,-.3c-.4,0,-.7,-.3,-.7,-.7c0,-.6,.5,-1.1,1.1,-1.1c.8,0,1.2,.6,1.2,1.5c0,.9,-.3,1.8,-1.1,1.8c-.2,0,-.4,-.1,-.6,-.1c-.2,0,-.5,0,-.5,.2c0,.3,.3,.4,.5,.4c.3,0,.5,-.2,.7,-.3c.9,0,1.1,.8,1.1,1.8c0,1,-.4,2,-1.3,2Z" class="g0_54"/>
<path d="M418.5,579.4c0,-.6,-.4,-1,-.9,-1c-.4,0,-.7,.2,-1,.4c-.3,.2,-.6,.5,-.8,.9c0,-.7,-.5,-1.3,-1.1,-1.3c-1.1,0,-2.1,1.2,-2.4,2l.2,.1c.3,-.5,1.1,-1.7,1.9,-1.7c.3,0,.4,.5,.4,1c0,.3,0,.6,-.2,1.1l-.3,1.2c-.2,.6,-.4,1.4,-.7,1.8c-.2,.2,-.5,.7,-.8,.7c-.4,0,-.8,-.1,-.7,-.5c.1,-.3,.1,-.8,-.4,-.8c-.4,0,-.6,.3,-.6,.8c0,.5,.5,.9,1.1,.9c1,0,1.7,-.8,2.1,-1.4c.1,.8,.5,1.4,1.4,1.4c1.1,0,2,-1.1,2.4,-1.8l-.2,-.2c-.5,.7,-1.1,1.7,-2,1.7c-.4,0,-.6,-.6,-.6,-1.3c0,-.3,.1,-.7,.2,-1.3l.2,-.7c.1,-.6,.3,-1.3,.6,-1.6c.2,-.3,.6,-1,.9,-1c.4,0,.4,.3,.4,.6c0,.4,.1,.6,.4,.6c.4,0,.5,-.3,.5,-.6Z" class="g0_54"/>
<path d="M423.5,581.5h7.6v-.8h-7.6Z" class="g0_54"/>
<path d="M441.7,568.3c-.4,0,-.9,.2,-1.3,.5c-.5,.3,-.9,.7,-1.3,1.1c-.6,.8,-1.2,2,-1.2,3.3c0,1,.4,1.7,1.3,1.7c1.3,0,1.8,-.9,2.2,-1.5c-.2,.9,-.1,1.5,.6,1.5c.3,0,.7,-.1,1.1,-.5c.4,-.3,.7,-.8,1.1,-1.3l-.2,-.2c-.3,.4,-.9,1.4,-1.3,1.4c-.3,0,-.3,-.4,-.3,-.6c0,-.9,.6,-2.4,.9,-3.4l.7,-1.9h-1l-.2,.7c-.2,-.5,-.5,-.8,-1.1,-.8Zm.1,.3c.7,0,.6,1.3,.5,1.9c-.1,.3,-.2,.6,-.3,1c-.4,1.1,-1.5,3.1,-2.3,3.1c-.6,0,-.8,-1,-.8,-1.5c0,-.4,.1,-.8,.2,-1.3c.4,-1,1.5,-3.2,2.7,-3.2Z" class="g0_54"/>
<path d="M447.3,572.5c-.7,0,-1.1,-.5,-1.1,-1.2c0,-.7,.4,-1.6,1.3,-1.6c1.2,0,1.3,1,1.3,1.9c0,.9,-.2,1.5,-.7,2.1c-.2,.4,-.6,.9,-1.1,1.4c-.5,.5,-1.1,1.1,-1.8,1.7v.4h4.5l.4,-2.1h-.3c-.1,.2,-.2,.4,-.3,.5c-.1,.4,-.4,.6,-1,.6h-2.1c.5,-.4,1,-.8,1.4,-1.1c.7,-.7,1.5,-1.4,1.9,-2.3c.2,-.4,.3,-.8,.3,-1.2c0,-.3,0,-.6,-.2,-.8c-.3,-.8,-1,-1.3,-2.1,-1.3c-.7,0,-1.4,.3,-1.8,.6c-.3,.3,-.7,.8,-.7,1.5c0,.4,.2,.8,.4,1c.2,.2,.5,.4,.9,.4c.4,0,.7,-.2,.8,-.5Z" class="g0_54"/>
<path d="M437.2,581.5h14.3v-.9H437.2Z" class="g0_54"/>
<path d="M441.7,588.7c-.4,0,-.9,.1,-1.3,.4c-.5,.3,-.9,.7,-1.3,1.2c-.6,.7,-1.2,1.9,-1.2,3.2c0,1,.4,1.8,1.3,1.8c1.3,0,1.8,-.9,2.2,-1.6c-.2,.9,-.1,1.6,.6,1.6c.3,0,.7,-.2,1.1,-.5c.4,-.3,.7,-.8,1.1,-1.4l-.2,-.1c-.3,.4,-.9,1.3,-1.3,1.3c-.3,0,-.3,-.3,-.3,-.6c0,-.9,.6,-2.4,.9,-3.4l.7,-1.8h-1l-.2,.6c-.2,-.4,-.5,-.7,-1.1,-.7Zm.1,.2c.7,0,.6,1.3,.5,1.9c-.1,.3,-.2,.6,-.3,1c-.4,1.2,-1.5,3.1,-2.3,3.1c-.6,0,-.8,-.9,-.8,-1.4c0,-.5,.1,-.9,.2,-1.4c.4,-1,1.5,-3.2,2.7,-3.2Z" class="g0_54"/>
<path d="M447.5,597.4c-.7,0,-1.3,-.7,-1.3,-1.4c0,-.5,.3,-1,.8,-1c0,-.2,-.4,-.4,-.7,-.4c-.2,0,-.3,.1,-.5,.1c-.4,.2,-.6,.6,-.6,1.2c0,.2,0,.4,.1,.6c.4,.7,1.2,1.1,2.2,1.1c.8,0,1.4,-.3,1.9,-.6c.4,-.4,.7,-.8,.7,-1.5c0,-.3,0,-.5,-.1,-.7c-.3,-.7,-.9,-1.1,-1.6,-1.3v-.1c.4,-.1,.8,-.3,1,-.6c.3,-.3,.5,-.7,.5,-1.2c0,-.3,-.1,-.5,-.2,-.7c-.3,-.7,-1.1,-1,-2.2,-1c-.6,0,-1.1,.1,-1.5,.3c-.3,.2,-.6,.6,-.6,1c0,.3,.2,.6,.3,.8c.2,.1,.4,.3,.7,.3c.2,0,.4,-.1,.5,-.1c.1,-.1,.2,-.2,.2,-.3c-.4,0,-.7,-.3,-.7,-.7c0,-.6,.5,-1.1,1.1,-1.1c.8,0,1.2,.6,1.2,1.5c0,.9,-.3,1.8,-1.1,1.8c-.1,0,-.4,-.1,-.6,-.1c-.2,0,-.5,0,-.5,.2c0,.3,.3,.4,.6,.4c.2,0,.5,-.2,.6,-.3c.9,0,1.2,.8,1.2,1.8c0,1,-.4,2,-1.4,2Z" class="g0_54"/>
<path d="M452.2,587.1c0,.6,.5,.9,1.1,.9c.5,0,.8,-.2,1.3,-.6c.8,-.6,2.1,-2.2,2.8,-3.4c.4,-.6,.8,-1.2,1.1,-1.8c.4,-.8,1.1,-2.1,1.1,-2.9c0,-.2,-.1,-.4,-.2,-.6c0,-.2,-.2,-.3,-.4,-.3c-.2,0,-.3,.1,-.5,.2c-.1,.2,-.2,.4,-.2,.7c0,.4,.3,.9,.3,1.3c0,.6,-.3,1.1,-.5,1.6c-.2,.5,-.5,.9,-.8,1.4h-.1l-.3,-1.9c-.1,-.6,-.3,-1.6,-.4,-2.1c-.2,-.6,-.4,-1.2,-1.4,-1.2c-1.1,0,-1.3,1.8,-1.6,2.6l.3,.1c.2,-.6,.6,-2.3,1.1,-2.3c.3,0,.5,1,.5,1.2c.1,.3,.2,.7,.3,1.4l.6,3.5c-.4,.8,-1.2,1.7,-1.8,2.2c-.2,.1,-.6,.2,-.7,.2c-.1,0,-.2,-.1,-.3,-.1c-.2,-.3,-.2,-.8,-.6,-.8c-.4,0,-.7,.3,-.7,.7Z" class="g0_54"/>
<path d="M464.6,581.5h7.6v-.8h-7.6Z" class="g0_54"/>
<path d="M482.8,568.3c-.5,0,-.9,.2,-1.3,.5c-.5,.3,-.9,.7,-1.3,1.1c-.6,.8,-1.2,2,-1.2,3.3c0,1,.4,1.7,1.3,1.7c1.3,0,1.8,-.9,2.2,-1.5c-.2,.9,-.1,1.5,.5,1.5c.4,0,.8,-.1,1.2,-.5c.4,-.3,.7,-.8,1.1,-1.3l-.2,-.2c-.3,.4,-.9,1.4,-1.4,1.4c-.2,0,-.2,-.4,-.2,-.6c0,-.9,.6,-2.4,.9,-3.4l.7,-1.9h-1l-.3,.7c-.1,-.5,-.4,-.8,-1,-.8Zm.1,.3c.7,0,.6,1.3,.4,1.9c0,.3,-.1,.6,-.2,1c-.4,1.1,-1.5,3.1,-2.3,3.1c-.6,0,-.8,-1,-.8,-1.5c0,-.4,0,-.8,.2,-1.3c.4,-1,1.4,-3.2,2.7,-3.2Z" class="g0_54"/>
<path d="M488.8,571l.1,4h-2.6c.9,-1.3,1.7,-2.7,2.5,-4Zm-2.7,3.9v.5h2.8v.4c0,.9,-.1,1.2,-.6,1.2v.2h2.1V577c-.5,0,-.6,-.5,-.6,-1.3v-.3h1.3c0,0,0,-.4,0,-.4c0,0,-1.3,0,-1.3,0v-5.5h-.3l-3.4,5.4Z" class="g0_54"/>
<path d="M478.3,581.5h14.3v-.9H478.3Z" class="g0_54"/>
<path d="M482.8,588.7c-.5,0,-.9,.1,-1.3,.4c-.5,.3,-.9,.7,-1.3,1.2c-.6,.7,-1.2,1.9,-1.2,3.2c0,1,.4,1.8,1.3,1.8c1.3,0,1.8,-.9,2.2,-1.6c-.2,.9,-.1,1.6,.5,1.6c.4,0,.8,-.2,1.2,-.5c.4,-.3,.7,-.8,1.1,-1.4l-.2,-.1c-.3,.4,-.9,1.3,-1.4,1.3c-.2,0,-.2,-.3,-.2,-.6c0,-.9,.6,-2.4,.9,-3.4l.7,-1.8h-1l-.3,.6c-.1,-.4,-.4,-.7,-1,-.7Zm.1,.2c.7,0,.6,1.3,.4,1.9c0,.3,-.1,.6,-.2,1c-.4,1.2,-1.5,3.1,-2.3,3.1c-.6,0,-.8,-.9,-.8,-1.4c0,-.5,0,-.9,.2,-1.4c.4,-1,1.4,-3.2,2.7,-3.2Z" class="g0_54"/>
<path d="M488.6,597.4c-.8,0,-1.3,-.7,-1.3,-1.4c0,-.5,.3,-1,.8,-1c0,-.2,-.4,-.4,-.7,-.4c-.2,0,-.3,.1,-.5,.1c-.4,.2,-.7,.6,-.7,1.2c0,.2,.1,.4,.2,.6c.4,.7,1.1,1.1,2.1,1.1h.1c.8,0,1.4,-.3,1.8,-.6c.5,-.4,.8,-.8,.8,-1.5c0,-.3,-.1,-.5,-.2,-.7c-.2,-.7,-.8,-1.1,-1.5,-1.3v-.1c.4,-.1,.8,-.3,1,-.6c.3,-.3,.5,-.7,.5,-1.2c0,-.3,-.1,-.5,-.2,-.7c-.3,-.7,-1.2,-1,-2.2,-1c-.6,0,-1.1,.1,-1.5,.3c-.3,.2,-.6,.6,-.6,1c0,.3,.1,.6,.3,.8c.2,.1,.4,.3,.7,.3c.2,0,.3,-.1,.5,-.1c.1,-.1,.2,-.2,.2,-.3c-.4,0,-.7,-.3,-.7,-.7c0,-.6,.5,-1.1,1.1,-1.1c.8,0,1.2,.6,1.2,1.5c0,.9,-.3,1.8,-1.1,1.8c-.2,0,-.4,-.1,-.6,-.1c-.2,0,-.5,0,-.5,.2c0,.3,.3,.4,.5,.4c.3,0,.5,-.2,.7,-.3c.9,0,1.1,.8,1.1,1.8c0,1,-.3,2,-1.3,2Z" class="g0_54"/>
<image clip-path="url(#c0_54)" preserveAspectRatio="none" x="142" y="635" width="349" height="281" xlink:href="img/1.jpg"/>
</svg>