<?xml version="1.0" encoding="UTF-8" standalone="no"?>
<!DOCTYPE svg PUBLIC "-//W3C//DTD SVG 1.1//EN"
"http://www.w3.org/Graphics/SVG/1.1/DTD/svg11.dtd">
<svg viewBox="0 0 811 1017" version="1.1" xmlns="http://www.w3.org/2000/svg" xmlns:xlink="http://www.w3.org/1999/xlink">
<defs>
<style type="text/css"><![CDATA[
.g0_411{
fill: #FFF;
}
.g1_411{
fill: #AEACAB;
}
.g2_411{
fill: none;
stroke: #231F20;
stroke-width: 0.759;
stroke-linejoin: round;
}
]]></style>
</defs>
<path d="M157,103.6H313.1V84.1H157Z" class="g0_411"/>
<path d="M157,123.1H313.1V103.6H157Z" class="g0_411"/>
<path d="M157,142.6h39V123.1H157Z" class="g0_411"/>
<path d="M196,142.6h39.1V123.1H196Z" class="g1_411"/>
<path d="M235.1,142.6h78V123.1h-78Z" class="g0_411"/>
<path d="M157,162.1h19.5V142.6H157Z" class="g0_411"/>
<path d="M176.5,162.1h78.1V142.6H176.5Z" class="g1_411"/>
<path d="M254.6,162.1h58.5V142.6H254.6Z" class="g0_411"/>
<path d="M157,181.6h19.5V162.1H157Z" class="g0_411"/>
<path d="M176.5,181.6h78.1V162.1H176.5Z" class="g1_411"/>
<path d="M254.6,181.6h58.5V162.1H254.6Z" class="g0_411"/>
<path d="M157,201.1h39V181.6H157Z" class="g0_411"/>
<path d="M196,201.1h39.1V181.6H196Z" class="g1_411"/>
<path d="M235.1,201.1h78V181.6h-78Z" class="g0_411"/>
<path d="M157,220.5H313.1V201.1H157Z" class="g0_411"/>
<path d="M157,240H313.1V220.5H157Z" class="g0_411"/>
<path d="M176.5,83.8V240.3M196,83.8V240.3M215.5,83.8V240.3M235.1,83.8V240.3M254.6,83.8V240.3M274.1,83.8V240.3M293.6,83.8V240.3M156.7,103.6H313.4M156.7,123.1H313.4M156.7,142.6H313.4M156.7,162.1H313.4M156.7,181.6H313.4M156.7,201.1H313.4M156.7,220.5H313.4M157,83.8V240.3M313.1,83.8V240.3M156.7,84.1H313.4M156.7,240H313.4" class="g2_411"/>
<path d="M338.6,103.6H494.8V84.1H338.6Z" class="g0_411"/>
<path d="M338.6,123.1H494.8V103.6H338.6Z" class="g0_411"/>
<path d="M338.6,142.6h78.1V123.1H338.6Z" class="g0_411"/>
<path d="M416.7,142.6h39.1V123.1H416.7Z" class="g1_411"/>
<path d="M455.8,142.6h39V123.1h-39Z" class="g0_411"/>
<path d="M338.6,162h58.6V142.6H338.6Z" class="g0_411"/>
<path d="M397.2,162h78.1V142.6H397.2Z" class="g1_411"/>
<path d="M475.3,162h19.5V142.6H475.3Z" class="g0_411"/>
<path d="M338.6,181.6h58.6V162.1H338.6Z" class="g0_411"/>
<path d="M397.2,181.6h78.1V162.1H397.2Z" class="g1_411"/>
<path d="M475.3,181.6h19.5V162.1H475.3Z" class="g0_411"/>
<path d="M338.6,201h78.1V181.5H338.6Z" class="g0_411"/>
<path d="M416.7,201h39.1V181.5H416.7Z" class="g1_411"/>
<path d="M455.8,201h39V181.5h-39Z" class="g0_411"/>
<path d="M338.6,220.5H494.8V201.1H338.6Z" class="g0_411"/>
<path d="M338.6,240H494.8V220.5H338.6Z" class="g0_411"/>
<path d="M358.2,83.8V240.3M377.7,83.8V240.3M397.2,83.8V240.3M416.7,83.8V240.3M436.2,83.8V240.3M455.8,83.8V240.3M475.3,83.8V240.3M338.3,103.6H495.1M338.3,123.1H495.1M338.3,142.6H495.1M338.3,162H495.1M338.3,181.6H495.1M338.3,201H495.1M338.3,220.5H495.1M338.6,83.8V240.3M494.8,83.8V240.3M338.3,84.1H495.1M338.3,240H495.1" class="g2_411"/>
<path d="M520.5,142.5H676.6V84H520.5Z" class="g0_411"/>
<path d="M520.5,162H579V142.5H520.5Z" class="g0_411"/>
<path d="M579,162h39.1V142.5H579Z" class="g1_411"/>
<path d="M618.1,162h58.5V142.5H618.1Z" class="g0_411"/>
<path d="M520.5,181.5H579V162H520.5Z" class="g0_411"/>
<path d="M579,181.5h39.1V162H579Z" class="g1_411"/>
<path d="M618.1,181.5h58.5V162H618.1Z" class="g0_411"/>
<path d="M520.5,240H676.6V181.5H520.5Z" class="g0_411"/>
<path d="M540,83.7V240.3M559.5,83.7V240.3M579,83.7V240.3M598.5,83.7V240.3M618.1,83.7V240.3M637.6,83.7V240.3M657.1,83.7V240.3M520.2,103.5H676.9M520.2,123H676.9M520.2,142.5H676.9M520.2,162H676.9M520.2,181.5H676.9M520.2,201H676.9M520.2,220.5H676.9M520.5,83.7V240.3M676.6,83.7V240.3M520.2,84H676.9M520.2,240H676.9" class="g2_411"/>
<path d="M157.2,349.8h156v-39h-156Z" class="g0_411"/>
<path d="M157.2,369.3h39V349.8h-39Z" class="g0_411"/>
<path d="M196.2,369.3h39V349.8h-39Z" class="g1_411"/>
<path d="M235.2,369.3h78V349.8h-78Z" class="g0_411"/>
<path d="M157.2,388.7h19.5V369.3H157.2Z" class="g0_411"/>
<path d="M176.7,388.7h78V369.3h-78Z" class="g1_411"/>
<path d="M254.7,388.7h58.5V369.3H254.7Z" class="g0_411"/>
<path d="M157.2,408.2h19.5V388.7H157.2Z" class="g0_411"/>
<path d="M176.7,408.2h78V388.7h-78Z" class="g1_411"/>
<path d="M254.7,408.2h58.5V388.7H254.7Z" class="g0_411"/>
<path d="M157.2,427.7h39V408.2h-39Z" class="g0_411"/>
<path d="M196.2,427.7h39V408.2h-39Z" class="g1_411"/>
<path d="M235.2,427.7h78V408.2h-78Z" class="g0_411"/>
<path d="M157.2,466.7h156v-39h-156Z" class="g0_411"/>
<path d="M176.7,310.5V467M196.2,310.5V467M215.7,310.5V467M235.2,310.5V467M254.7,310.5V467M274.2,310.5V467M293.7,310.5V467M156.9,330.3H313.5M156.9,349.8H313.5M156.9,369.3H313.5M156.9,388.7H313.5M156.9,408.2H313.5M156.9,427.7H313.5M156.9,447.2H313.5M157.2,310.5V467m156,-156.5V467M156.9,310.8H313.5M156.9,466.7H313.5" class="g2_411"/>
<path d="M344.8,349.8h156v-39h-156Z" class="g0_411"/>
<path d="M344.8,369.3h78V349.8h-78Z" class="g0_411"/>
<path d="M422.8,369.3h39V349.8h-39Z" class="g1_411"/>
<path d="M461.8,369.3h39V349.8h-39Z" class="g0_411"/>
<path d="M344.8,388.7h58.5V369.3H344.8Z" class="g0_411"/>
<path d="M403.3,388.7h78V369.3h-78Z" class="g1_411"/>
<path d="M481.3,388.7h19.5V369.3H481.3Z" class="g0_411"/>
<path d="M344.8,408.2h58.5V388.7H344.8Z" class="g0_411"/>
<path d="M403.3,408.2h78V388.7h-78Z" class="g1_411"/>
<path d="M481.3,408.2h19.5V388.7H481.3Z" class="g0_411"/>
<path d="M344.8,427.7h78V408.2h-78Z" class="g0_411"/>
<path d="M422.8,427.7h39V408.2h-39Z" class="g1_411"/>
<path d="M461.8,427.7h39V408.2h-39Z" class="g0_411"/>
<path d="M344.8,447.2h156V427.7h-156Z" class="g0_411"/>
<path d="M344.8,466.7h156V447.2h-156Z" class="g0_411"/>
<path d="M364.3,310.5V467M383.8,310.5V467M403.3,310.5V467M422.8,310.5V467M442.3,310.5V467M461.8,310.5V467M481.3,310.5V467M344.5,330.3H501.2M344.5,349.8H501.2M344.5,369.3H501.2M344.5,388.7H501.2M344.5,408.2H501.2M344.5,427.7H501.2M344.5,447.2H501.2M344.8,310.5V467M500.9,310.5V467M344.5,310.8H501.2M344.5,466.7H501.2" class="g2_411"/>
<path d="M532.6,330.2h97.5V310.8H532.6Z" class="g0_411"/>
<path d="M630.1,330.2h58.5V310.8H630.1Z" class="g0_411"/>
<path d="M532.6,349.7h97.5V330.2H532.6Z" class="g0_411"/>
<path d="M630.1,349.7h58.5V330.2H630.1Z" class="g0_411"/>
<path d="M532.6,369.2h39V349.7h-39Z" class="g0_411"/>
<path d="M571.6,369.2h58.5V349.7H571.6Z" class="g1_411"/>
<path d="M630.1,369.2h19.5V349.7H630.1Z" class="g1_411"/>
<path d="M649.6,369.2h39V349.7h-39Z" class="g0_411"/>
<path d="M532.6,388.7h19.5V369.2H532.6Z" class="g0_411"/>
<path d="M552.1,388.7h78V369.2h-78Z" class="g1_411"/>
<path d="M630.1,388.7h39V369.2h-39Z" class="g1_411"/>
<path d="M669.1,388.7h19.5V369.2H669.1Z" class="g0_411"/>
<path d="M532.6,408.1h19.5V388.7H532.6Z" class="g0_411"/>
<path d="M552.1,408.1h78V388.7h-78Z" class="g1_411"/>
<path d="M630.1,408.1h39V388.7h-39Z" class="g1_411"/>
<path d="M669.1,408.1h19.5V388.7H669.1Z" class="g0_411"/>
<path d="M532.6,427.6h39V408.2h-39Z" class="g0_411"/>
<path d="M571.6,427.6h58.5V408.2H571.6Z" class="g1_411"/>
<path d="M630.1,427.6h19.5V408.2H630.1Z" class="g1_411"/>
<path d="M649.6,427.6h39V408.2h-39Z" class="g0_411"/>
<path d="M532.6,447.1h97.5V427.6H532.6Z" class="g0_411"/>
<path d="M630.1,447.1h58.5V427.6H630.1Z" class="g0_411"/>
<path d="M532.6,466.6h97.5V447.1H532.6Z" class="g0_411"/>
<path d="M630.1,466.6h58.5V447.1H630.1Z" class="g0_411"/>
<path d="M552.1,310.5V466.9M571.6,310.5V466.9M591.1,310.5V466.9M610.6,310.5V466.9M630.1,310.5V466.9M649.6,310.5V466.9M669.1,310.5V466.9M532.3,330.2H688.9M532.3,349.7H688.9M532.3,369.2H688.9M532.3,388.7H688.9M532.3,408.1H688.9M532.3,427.6H688.9M532.3,447.1H688.9M532.6,310.5V466.9m156,-156.4V466.9M532.3,310.8H688.9M532.3,466.6H688.9" class="g2_411"/>
<path d="M157,590.8H313.1v-39H157Z" class="g0_411"/>
<path d="M157,610.3h39V590.8H157Z" class="g0_411"/>
<path d="M196,610.3h39.1V590.8H196Z" class="g1_411"/>
<path d="M235.1,610.3h78V590.8h-78Z" class="g0_411"/>
<path d="M157,629.8h19.5V610.3H157Z" class="g0_411"/>
<path d="M176.5,629.8h78.1V610.3H176.5Z" class="g1_411"/>
<path d="M254.6,629.8h58.5V610.3H254.6Z" class="g0_411"/>
<path d="M157,649.3h19.5V629.8H157Z" class="g0_411"/>
<path d="M176.5,649.3h78.1V629.8H176.5Z" class="g1_411"/>
<path d="M254.6,649.3h58.5V629.8H254.6Z" class="g0_411"/>
<path d="M157,668.8h39V649.3H157Z" class="g0_411"/>
<path d="M196,668.8h39.1V649.3H196Z" class="g1_411"/>
<path d="M235.1,668.8h78V649.3h-78Z" class="g0_411"/>
<path d="M157,707.8H313.1v-39H157Z" class="g0_411"/>
<path d="M176.5,551.5V708.1M196,551.5V708.1M215.5,551.5V708.1M235.1,551.5V708.1M254.6,551.5V708.1M274.1,551.5V708.1M293.6,551.5V708.1M156.7,571.3H313.4M156.7,590.8H313.4M156.7,610.3H313.4M156.7,629.8H313.4M156.7,649.3H313.4M156.7,668.8H313.4M156.7,688.3H313.4M157,551.5V708.1M313.1,551.5V708.1M156.7,551.8H313.4M156.7,707.7H313.4" class="g2_411"/>
<path d="M338.6,590.8H494.8v-39H338.6Z" class="g0_411"/>
<path d="M338.6,610.3h78.1V590.8H338.6Z" class="g0_411"/>
<path d="M416.7,610.3h39.1V590.8H416.7Z" class="g1_411"/>
<path d="M455.8,610.3h39V590.8h-39Z" class="g0_411"/>
<path d="M338.6,629.8h58.6V610.3H338.6Z" class="g0_411"/>
<path d="M397.2,629.8h78.1V610.3H397.2Z" class="g1_411"/>
<path d="M475.3,629.8h19.5V610.3H475.3Z" class="g0_411"/>
<path d="M338.6,649.3h58.6V629.8H338.6Z" class="g0_411"/>
<path d="M397.2,649.3h78.1V629.8H397.2Z" class="g1_411"/>
<path d="M475.3,649.3h19.5V629.8H475.3Z" class="g0_411"/>
<path d="M338.6,668.8h78.1V649.3H338.6Z" class="g0_411"/>
<path d="M416.7,668.8h39.1V649.3H416.7Z" class="g1_411"/>
<path d="M455.8,668.8h39V649.3h-39Z" class="g0_411"/>
<path d="M338.6,707.8H494.8v-39H338.6Z" class="g0_411"/>
<path d="M358.2,551.5V708.1M377.7,551.5V708.1M397.2,551.5V708.1M416.7,551.5V708.1M436.2,551.5V708.1M455.8,551.5V708.1M475.3,551.5V708.1M338.3,571.3H495.1M338.3,590.8H495.1M338.3,610.3H495.1M338.3,629.8H495.1M338.3,649.3H495.1M338.3,668.8H495.1M338.3,688.3H495.1M338.6,551.5V708.1M494.8,551.5V708.1M338.3,551.8H495.1m-156.8,156H495.1" class="g2_411"/>
<path d="M520.5,590.7H676.6v-39H520.5Z" class="g0_411"/>
<path d="M520.5,610.2h39V590.7h-39Z" class="g0_411"/>
<path d="M559.5,610.2h39.1V590.7H559.5Z" class="g1_411"/>
<path d="M598.6,610.2h78V590.7h-78Z" class="g0_411"/>
<path d="M520.5,629.7H540V610.2H520.5Z" class="g0_411"/>
<path d="M540,629.7h39V610.2H540Z" class="g1_411"/>
<path d="M579,629.7h97.6V610.2H579Z" class="g0_411"/>
<path d="M520.5,649.2H540V629.7H520.5Z" class="g0_411"/>
<path d="M540,649.2h39V629.7H540Z" class="g1_411"/>
<path d="M579,649.2h97.6V629.7H579Z" class="g0_411"/>
<path d="M520.5,668.7h39V649.2h-39Z" class="g0_411"/>
<path d="M559.5,668.7h39.1V649.2H559.5Z" class="g1_411"/>
<path d="M598.6,668.7h78V649.2h-78Z" class="g0_411"/>
<path d="M520.5,688.2H676.6V668.7H520.5Z" class="g0_411"/>
<path d="M520.5,707.7H676.6V688.2H520.5Z" class="g0_411"/>
<path d="M540,551.4V708M559.5,551.4V708M579,551.4V708M598.5,551.4V708M618.1,551.4V708M637.6,551.4V708M657.1,551.4V708M520.2,571.2H676.9M520.2,590.7H676.9M520.2,610.2H676.9M520.2,629.7H676.9M520.2,649.2H676.9M520.2,668.7H676.9M520.2,688.2H676.9M520.5,551.4V708M676.6,551.4V708M520.2,551.7H676.9m-156.7,156H676.9" class="g2_411"/>
</svg>