<?xml version="1.0" encoding="UTF-8" standalone="no"?>
<!DOCTYPE svg PUBLIC "-//W3C//DTD SVG 1.1//EN"
"http://www.w3.org/Graphics/SVG/1.1/DTD/svg11.dtd">
<svg viewBox="0 0 811 1017" version="1.1" xmlns="http://www.w3.org/2000/svg" xmlns:xlink="http://www.w3.org/1999/xlink">
<defs>
<clipPath id="c0_350"><path d="M104.1,827.5V592.2H710.7V827.5Z"/></clipPath>
<style type="text/css"><![CDATA[
.g0_350{
fill: #FFF;
}
.g1_350{
fill: #2E3A97;
}
.g2_350{
fill: #4458A6;
}
.g3_350{
fill: #7E95CC;
}
.g4_350{
fill: #EDF7FA;
}
.g5_350{
fill: #EED3C5;
}
.g6_350{
fill: #F7B293;
}
.g7_350{
fill: #EB7D61;
}
.g8_350{
fill: #BD4441;
}
.g9_350{
fill: #040504;
}
.ga_350{
fill: #1C2442;
}
.gb_350{
fill: #181818;
}
.gc_350{
fill: #641011;
}
.gd_350{
fill: #F1FAFD;
}
.ge_350{
fill: #B43A35;
}
]]></style>
</defs>
<path d="M130.3,815.2H347.1V598.4H130.3Z" class="g0_350"/>
<path d="M237.6,714.5l-2.2,-.7l-2.2,-1.5l-1.5,-2.2l-.6,-2.2H231v-2.2h.1l.6,-2.2l1.5,-2.2l2.2,-1.5l2.2,-.6h2.2l2.2,.6l2.2,1.5l1.5,2.2l.7,2.2v2.2l-.7,2.2l-1.5,2.2l-2.2,1.5l-2.2,.7h-2.2Zm-8.7,17.6l2.2,.7l2.1,.6c32.7,5.4,45.9,-38.4,15.5,-51.8h-.1l-2.2,-.8c-32.1,-8.2,-48.9,34.4,-19.7,50.3l2,.9l.2,.1Z" class="g1_350"/>
<path d="M228.7,732l-2,-.9l-2.2,-1.2C197,711.5,217.4,670.7,248.6,681.6h.1l2.1,.9c29.1,15.9,12.3,58.5,-19.7,50.3l-2.2,-.7l-.2,-.1Zm.2,20.2l2.2,.5l2.1,.3c57.6,4.5,72.6,-74.1,17.5,-91.1l-2.1,-.5l-2.2,-.4l-2.2,-.3c-23,-2.7,-44.3,11.8,-50.4,34.1v.1l-.5,2.1c-5,23.4,8.4,46.7,31.2,54.1l2.2,.6h.1l2.1,.5Z" class="g2_350"/>
<path d="M226.8,751.7h-.1l-2.2,-.6l-2.2,-.8c-21.5,-8.2,-33.9,-30.8,-29,-53.3l.5,-2.1v-.1c6.3,-23.1,28.9,-37.7,52.6,-33.8l2.2,.4l2.1,.5h.1l2.2,.7c21.9,7.1,35.3,29.1,31.5,51.9l-.4,2.2l-.5,2.1c-6,22.3,-27.3,36.9,-50.4,34.2l-2.1,-.3l-2.2,-.5l-2.1,-.5Zm-.1,19.8l2.2,.4l2.2,.3l2.1,.2c33.6,2.8,63.7,-20.1,70.1,-53l.1,-.5l.4,-2.2c5.1,-34.4,-17,-66.6,-50.8,-74.2l-1.7,-.3l-.5,-.1l-2.2,-.4l-2.2,-.3c-33.7,-3.9,-64.6,18.2,-72,51.2l-.3,1.7l-.1,.5c-6.3,34.1,14.8,67.1,48.3,75.8l2.2,.5l1.7,.3l.5,.1Z" class="g3_350"/>
<path d="M239.8,792h-2.2l-2.2,-.1l-2.2,-.1c-43.6,-2.8,-77.9,-38,-79.6,-81.7l-.1,-2.2v-2.2c.7,-44.6,35.3,-81,79.7,-83.9l2.2,-.1l2.2,-.1h2.2l2.2,.1c43.7,1.7,78.9,36,81.7,79.6l.1,2.2l.1,2.2c.5,44.6,-33.1,81.9,-77.5,86l-2.2,.1l-2.2,.1l-2.2,.1ZM172.9,707.9l.1,2.2l.1,2.2l.2,2.2c3.9,32.8,31.3,57.5,64.3,58.1H242c33.8,-1.8,60.7,-28.7,62.5,-62.5v-6.6l-.2,-2.2C301.5,668.4,275,642.8,242,641.1l-2.2,-.1h-2.2c-33.8,.6,-61.6,26.6,-64.5,60.3l-.1,2.2l-.1,2.2v2.2Z" class="g4_350"/>
<path d="M226.6,791.2l-2.1,-.4l-2.2,-.4l-2.2,-.4c-43.4,-9.8,-71.9,-51.1,-65.7,-95.2v-.1l.3,-2.1c7.7,-44.7,48.7,-75.6,93.9,-70.4l2.2,.3l2.2,.3l2.1,.4c43.7,8.7,73.3,49.2,68.2,93.5l-.2,2.2c-6.6,44.9,-46.8,76.8,-92,72.8l-2.2,-.3l-2.2,-.2h-.1Zm2.3,19.7l2.2,.2l2.1,.1l2.2,.1c55.1,1.7,101.9,-39.4,107.4,-94.2v-.4l.2,-2.2c4,-56,-36.5,-105,-92.2,-111.5l-2.2,-.3l-2.2,-.2l-2.2,-.1C189,599.6,141.3,639.9,134.9,694.8l-.2,1.8l-.1,.4c-5.2,55.9,34.3,105.7,89.9,113.4l2.2,.3l1.8,.2h.4Z" class="g5_350"/>
<path d="M228.5,810.9l-1.8,-.2l-2.2,-.3l-2.2,-.3C167.8,801.3,129.5,752,134.6,697l.1,-.4l.2,-1.8c6.5,-55.7,55.5,-96.3,111.5,-92.3l2.2,.2l2.2,.3l2.2,.2c54.7,7.6,94,56.1,90,111.3l-.2,2.2v.4c-5.6,55.6,-53.7,97,-109.6,94.1l-2.1,-.1l-2.2,-.2h-.4Zm-52.2,3l2.2,1.2l.2,.1h120c19,-10.4,35.1,-26,46.3,-44.6l.8,-1.4l1.2,-2.1l.1,-.3v-120c-1.7,-3,-3.5,-6.1,-5.5,-9l-1,-1.6l-.5,-.6c-2.5,-3.6,-5.3,-7.2,-8.3,-10.6l-.3,-.3l-1.9,-2.1l-.1,-.1c-7.1,-7.7,-15.2,-14.4,-24,-20l-2.2,-1.4l-.8,-.5l-1.4,-.8L299,598.5l-.3,-.1h-120c-8.7,4.8,-16.9,10.7,-24.2,17.5l-.1,.1l-2.2,2.1c-6.8,6.6,-12.8,14,-17.8,21.9l-1.4,2.2l-.5,.8l-.8,1.4l-1.3,2.2l-.1,.2v120l.1,.3l1.3,2.1l.8,1.4l.5,.8l1.4,2.2l.3,.5l1.1,1.7l1.1,1.6c2.2,3.2,4.6,6.4,7.1,9.4l1.6,1.8l.3,.4l1.9,2c7,7.6,15,14.3,23.6,19.9l.5,.3l2.2,1.4l.8,.5l1.4,.8Z" class="g6_350"/>
<path d="M143.4,813.8l1.7,1.4h33.6l-.2,-.1c-20.2,-11.2,-36.9,-27.9,-48.1,-48l-.1,-.3v33.7l1.4,1.6c3.4,3.8,7.1,7.5,10.9,11l.8,.7Z" class="g7_350"/>
<path d="M299,815.2h33.4l1.6,-1.4c4.1,-3.7,8,-7.6,11.7,-11.7l1.4,-1.6V766.8l-.1,.3c-11.2,20.1,-27.9,36.8,-48,48l-.3,.1h.3Z" class="g7_350"/>
<path d="M130.4,646.6l1.3,-2.2c11.1,-19.1,27.4,-35.1,46.8,-45.9l.2,-.1H145.1l-1.7,1.4c-4.1,3.7,-8,7.6,-11.7,11.7l-1.4,1.7v33.6l.1,-.2Z" class="g7_350"/>
<path d="M347.1,646.8V613.2l-1.4,-1.7c-3.7,-4.1,-7.6,-8,-11.7,-11.7l-1.6,-1.4H298.7l.3,.1c20.1,11.2,36.8,27.9,48,48.1l.1,.2Z" class="g7_350"/>
<path d="M145.1,815.2H130.3V800.5l1.4,1.6c3.7,4.1,7.6,8,11.7,11.7l1.7,1.4Z" class="g8_350"/>
<path d="M347.1,815.2H332.4l1.6,-1.4c4.1,-3.7,8,-7.6,11.7,-11.7l1.4,-1.6v14.7Z" class="g8_350"/>
<path d="M130.3,613.2V598.4h14.8l-1.7,1.4c-4.1,3.7,-8,7.6,-11.7,11.7l-1.4,1.7Z" class="g8_350"/>
<path d="M347.1,613.2l-1.4,-1.7c-3.7,-4.1,-7.6,-8,-11.7,-11.7l-1.6,-1.4h14.7v14.8Z" class="g8_350"/>
<path d="M160.9,818.1h.7v-2.9h-.7Z" class="g9_350"/>
<path d="M152.2,824.9h5.1v-.7h-5.1Z" class="g9_350"/>
<path d="M159.2,826.5h1.3v-4.6l-1.4,.3v-.7l1.4,-.3h.8v5.3h1.3v.6h-3.4v-.6Z" class="g9_350"/>
<path d="M164.3,827.1h.8v-1h-.8Z" class="g9_350"/>
<path d="M168.6,821.1c.6,0,1.1,.3,1.5,.8c.3,.5,.5,1.3,.5,2.3c0,1,-.2,1.7,-.5,2.3c-.4,.5,-.9,.8,-1.5,.8c-.7,0,-1.2,-.3,-1.6,-.8c-.3,-.6,-.5,-1.3,-.5,-2.3c0,-1,.2,-1.8,.5,-2.3c.4,-.5,.9,-.8,1.6,-.8Zm0,.6c-.4,0,-.8,.2,-1,.6c-.2,.4,-.3,1.1,-.3,1.9c0,.8,.1,1.4,.3,1.8c.2,.4,.6,.6,1,.6c.4,0,.7,-.2,.9,-.6c.2,-.4,.3,-1,.3,-1.8c0,-.8,-.1,-1.5,-.3,-1.9c-.2,-.4,-.5,-.6,-.9,-.6Z" class="g9_350"/>
<path d="M199.6,818.1h.8v-2.9h-.8Z" class="g9_350"/>
<path d="M191,824.9h5.1v-.7H191Z" class="g9_350"/>
<path d="M199.5,821.1c.7,0,1.2,.3,1.5,.8c.4,.5,.6,1.3,.6,2.3c0,1,-.2,1.7,-.6,2.3c-.3,.5,-.8,.8,-1.5,.8c-.6,0,-1.2,-.3,-1.5,-.8c-.4,-.6,-.5,-1.3,-.5,-2.3c0,-1,.1,-1.8,.5,-2.3c.3,-.5,.9,-.8,1.5,-.8Zm0,.6c-.4,0,-.7,.2,-.9,.6c-.2,.4,-.3,1.1,-.3,1.9c0,.8,.1,1.4,.3,1.8c.2,.4,.5,.6,.9,.6c.4,0,.7,-.2,1,-.6c.2,-.4,.3,-1,.3,-1.8c0,-.8,-.1,-1.5,-.3,-1.9c-.3,-.4,-.6,-.6,-1,-.6Z" class="g9_350"/>
<path d="M203,827.1h.8v-1H203Z" class="g9_350"/>
<path d="M205.6,821.2h3.1v.7h-2.4v1.4l.4,-.1h.3c.7,0,1.2,.2,1.6,.6c.4,.3,.6,.8,.6,1.4c0,.7,-.2,1.2,-.6,1.5c-.4,.4,-1,.6,-1.7,.6c-.3,0,-.5,-.1,-.8,-.1c-.2,0,-.5,-.1,-.8,-.2v-.8c.3,.1,.5,.2,.8,.3c.2,0,.5,.1,.8,.1c.4,0,.8,-.1,1.1,-.4c.2,-.2,.4,-.5,.4,-1c0,-.4,-.2,-.7,-.4,-.9c-.3,-.3,-.7,-.4,-1.1,-.4c-.2,0,-.4,0,-.7,.1c-.2,0,-.4,.1,-.6,.2v-3Z" class="g9_350"/>
<path d="M238.3,818.1h.8v-2.9h-.8Z" class="g9_350"/>
<path d="M234.8,821.1c.7,0,1.2,.3,1.6,.8c.3,.5,.5,1.3,.5,2.3c0,1,-.2,1.7,-.5,2.3c-.4,.5,-.9,.8,-1.6,.8c-.6,0,-1.1,-.3,-1.5,-.8c-.3,-.6,-.5,-1.3,-.5,-2.3c0,-1,.2,-1.8,.5,-2.3c.4,-.5,.9,-.8,1.5,-.8Zm0,.6c-.4,0,-.7,.2,-.9,.6c-.2,.4,-.3,1.1,-.3,1.9c0,.8,.1,1.4,.3,1.8c.2,.4,.5,.6,.9,.6c.4,0,.8,-.2,1,-.6c.2,-.4,.3,-1,.3,-1.8c0,-.8,-.1,-1.5,-.3,-1.9c-.2,-.4,-.6,-.6,-1,-.6Z" class="g9_350"/>
<path d="M238.3,827.1h.8v-1h-.8Z" class="g9_350"/>
<path d="M242.6,821.1c.7,0,1.2,.3,1.5,.8c.4,.5,.6,1.3,.6,2.3c0,1,-.2,1.7,-.6,2.3c-.3,.5,-.8,.8,-1.5,.8c-.7,0,-1.2,-.3,-1.5,-.8c-.4,-.6,-.5,-1.3,-.5,-2.3c0,-1,.1,-1.8,.5,-2.3c.3,-.5,.8,-.8,1.5,-.8Zm0,.6c-.4,0,-.7,.2,-.9,.6c-.2,.4,-.3,1.1,-.3,1.9c0,.8,.1,1.4,.3,1.8c.2,.4,.5,.6,.9,.6c.4,0,.7,-.2,.9,-.6c.2,-.4,.4,-1,.4,-1.8c0,-.8,-.2,-1.5,-.4,-1.9c-.2,-.4,-.5,-.6,-.9,-.6Z" class="g9_350"/>
<path d="M277.1,818.1h.7v-2.9h-.7Z" class="g9_350"/>
<path d="M273.6,821.1c.6,0,1.1,.3,1.5,.8c.3,.5,.5,1.3,.5,2.3c0,1,-.2,1.7,-.5,2.3c-.4,.5,-.9,.8,-1.5,.8c-.7,0,-1.2,-.3,-1.6,-.8c-.3,-.6,-.5,-1.3,-.5,-2.3c0,-1,.2,-1.8,.5,-2.3c.4,-.5,.9,-.8,1.6,-.8Zm0,.6c-.5,0,-.8,.2,-1,.6c-.2,.4,-.3,1.1,-.3,1.9c0,.8,.1,1.4,.3,1.8c.2,.4,.5,.6,1,.6c.4,0,.7,-.2,.9,-.6c.2,-.4,.3,-1,.3,-1.8c0,-.8,-.1,-1.5,-.3,-1.9c-.2,-.4,-.5,-.6,-.9,-.6Z" class="g9_350"/>
<path d="M277,827.1h.9v-1H277Z" class="g9_350"/>
<path d="M279.6,821.2h3.2v.7h-2.4v1.4l.3,-.1h.4c.6,0,1.1,.2,1.5,.6c.4,.3,.6,.8,.6,1.4c0,.7,-.2,1.2,-.6,1.5c-.4,.4,-.9,.6,-1.7,.6c-.2,0,-.5,-.1,-.7,-.1c-.3,0,-.6,-.1,-.8,-.2v-.8c.2,.1,.5,.2,.7,.3c.3,0,.5,.1,.8,.1c.5,0,.8,-.1,1.1,-.4c.3,-.2,.4,-.5,.4,-1c0,-.4,-.1,-.7,-.4,-.9c-.3,-.3,-.6,-.4,-1.1,-.4c-.2,0,-.4,0,-.6,.1c-.2,0,-.5,.1,-.7,.2v-3Z" class="g9_350"/>
<path d="M315.8,818.1h.7v-2.9h-.7Z" class="g9_350"/>
<path d="M310.7,826.5H312v-4.6l-1.4,.3v-.7l1.4,-.3h.8v5.3h1.3v.6h-3.4v-.6Z" class="g9_350"/>
<path d="M315.7,827.1h.9v-1h-.9Z" class="g9_350"/>
<path d="M320.1,821.1c.6,0,1.1,.3,1.5,.8c.3,.5,.5,1.3,.5,2.3c0,1,-.2,1.7,-.5,2.3c-.4,.5,-.9,.8,-1.5,.8c-.7,0,-1.2,-.3,-1.6,-.8c-.3,-.6,-.5,-1.3,-.5,-2.3c0,-1,.2,-1.8,.5,-2.3c.4,-.5,.9,-.8,1.6,-.8Zm0,.6c-.5,0,-.8,.2,-1,.6c-.2,.4,-.3,1.1,-.3,1.9c0,.8,.1,1.4,.3,1.8c.2,.4,.5,.6,1,.6c.4,0,.7,-.2,.9,-.6c.2,-.4,.3,-1,.3,-1.8c0,-.8,-.1,-1.5,-.3,-1.9c-.2,-.4,-.5,-.6,-.9,-.6Z" class="g9_350"/>
<path d="M127.4,784.6h2.9v-.7h-2.9Z" class="g9_350"/>
<path d="M105.7,785.1h5.1v-.6h-5.1Z" class="g9_350"/>
<path d="M112.6,786.7h1.3v-4.5l-1.4,.2v-.7l1.4,-.3h.8v5.3h1.4v.7h-3.5v-.7Z" class="g9_350"/>
<path d="M117.7,787.4h.8v-1h-.8Z" class="g9_350"/>
<path d="M122,781.3c.7,0,1.2,.3,1.5,.8c.4,.5,.5,1.3,.5,2.3c0,1,-.1,1.8,-.5,2.3c-.3,.5,-.8,.8,-1.5,.8c-.7,0,-1.2,-.3,-1.5,-.8c-.4,-.5,-.6,-1.3,-.6,-2.3c0,-1,.2,-1.8,.6,-2.3c.3,-.5,.8,-.8,1.5,-.8Zm0,.7c-.4,0,-.7,.2,-.9,.6c-.3,.4,-.4,1,-.4,1.8c0,.8,.1,1.4,.4,1.8c.2,.4,.5,.6,.9,.6c.4,0,.7,-.2,.9,-.6c.2,-.4,.3,-1,.3,-1.8c0,-.8,-.1,-1.4,-.3,-1.8c-.2,-.4,-.5,-.6,-.9,-.6Z" class="g9_350"/>
<path d="M127.4,745.9h2.9v-.7h-2.9Z" class="g9_350"/>
<path d="M105.7,746.4h5.1v-.7h-5.1Z" class="g9_350"/>
<path d="M114.2,742.6c.7,0,1.2,.3,1.5,.8c.4,.5,.6,1.3,.6,2.3c0,1,-.2,1.7,-.6,2.3c-.3,.5,-.8,.8,-1.5,.8c-.7,0,-1.2,-.3,-1.5,-.8c-.4,-.6,-.5,-1.3,-.5,-2.3c0,-1,.1,-1.8,.5,-2.3c.3,-.5,.8,-.8,1.5,-.8Zm0,.6c-.4,0,-.7,.2,-.9,.6c-.2,.4,-.3,1.1,-.3,1.9c0,.8,.1,1.4,.3,1.8c.2,.4,.5,.6,.9,.6c.4,0,.7,-.2,1,-.6c.2,-.4,.3,-1,.3,-1.8c0,-.8,-.1,-1.5,-.3,-1.9c-.3,-.4,-.6,-.6,-1,-.6Z" class="g9_350"/>
<path d="M117.7,748.6h.8v-1h-.8Z" class="g9_350"/>
<path d="M120.3,742.7h3.1v.7H121v1.4l.4,-.1h.3c.7,0,1.2,.2,1.6,.6c.4,.3,.6,.8,.6,1.4c0,.7,-.2,1.2,-.6,1.5c-.4,.4,-1,.6,-1.7,.6c-.3,0,-.5,-.1,-.8,-.1c-.2,0,-.5,-.1,-.8,-.2v-.8c.3,.1,.5,.2,.8,.3c.2,0,.5,.1,.8,.1c.4,0,.8,-.1,1.1,-.4c.2,-.2,.4,-.6,.4,-1c0,-.4,-.2,-.7,-.4,-.9c-.3,-.3,-.7,-.4,-1.1,-.4c-.2,0,-.5,0,-.7,.1c-.2,0,-.4,.1,-.6,.2v-3Z" class="g9_350"/>
<path d="M127.4,707.2h2.9v-.8h-2.9Z" class="g9_350"/>
<path d="M114.2,703.9c.7,0,1.2,.2,1.5,.8c.4,.5,.6,1.2,.6,2.3c0,1,-.2,1.7,-.6,2.2c-.3,.6,-.8,.8,-1.5,.8c-.6,0,-1.2,-.2,-1.5,-.8c-.4,-.5,-.5,-1.2,-.5,-2.2c0,-1.1,.1,-1.8,.5,-2.3c.3,-.6,.9,-.8,1.5,-.8Zm0,.6c-.4,0,-.7,.2,-.9,.6c-.2,.4,-.3,1,-.3,1.9c0,.8,.1,1.4,.3,1.8c.2,.4,.5,.6,.9,.6c.4,0,.7,-.2,1,-.6c.2,-.4,.3,-1,.3,-1.8c0,-.9,-.1,-1.5,-.3,-1.9c-.3,-.4,-.6,-.6,-1,-.6Z" class="g9_350"/>
<path d="M117.7,709.9h.8v-1h-.8Z" class="g9_350"/>
<path d="M122,703.9c.7,0,1.2,.2,1.5,.8c.4,.5,.5,1.2,.5,2.3c0,1,-.1,1.7,-.5,2.2c-.3,.6,-.8,.8,-1.5,.8c-.7,0,-1.2,-.2,-1.5,-.8c-.4,-.5,-.6,-1.2,-.6,-2.2c0,-1.1,.2,-1.8,.6,-2.3c.3,-.6,.8,-.8,1.5,-.8Zm0,.6c-.4,0,-.7,.2,-.9,.6c-.2,.4,-.4,1,-.4,1.9c0,.8,.2,1.4,.4,1.8c.2,.4,.5,.6,.9,.6c.4,0,.7,-.2,.9,-.6c.2,-.4,.3,-1,.3,-1.8c0,-.9,-.1,-1.5,-.3,-1.9c-.2,-.4,-.5,-.6,-.9,-.6Z" class="g9_350"/>
<path d="M127.4,668.5h2.9v-.8h-2.9Z" class="g9_350"/>
<path d="M114.2,665.1c.7,0,1.2,.3,1.5,.8c.4,.6,.6,1.3,.6,2.3c0,1,-.2,1.8,-.6,2.3c-.3,.5,-.8,.8,-1.5,.8c-.6,0,-1.2,-.3,-1.5,-.8c-.4,-.5,-.5,-1.3,-.5,-2.3c0,-1,.1,-1.7,.5,-2.3c.3,-.5,.9,-.8,1.5,-.8Zm0,.7c-.4,0,-.7,.2,-.9,.6c-.2,.4,-.3,1,-.3,1.8c0,.8,.1,1.5,.3,1.9c.2,.4,.5,.6,.9,.6c.4,0,.7,-.2,1,-.6c.2,-.4,.3,-1.1,.3,-1.9c0,-.8,-.1,-1.4,-.3,-1.8c-.3,-.4,-.6,-.6,-1,-.6Z" class="g9_350"/>
<path d="M117.7,671.2h.8v-1h-.8Z" class="g9_350"/>
<path d="M120.3,665.3h3.1v.6H121v1.5l.4,-.1h.3c.7,0,1.2,.1,1.6,.5c.4,.4,.6,.9,.6,1.5c0,.6,-.2,1.1,-.6,1.5c-.4,.3,-1,.5,-1.7,.5c-.3,0,-.5,0,-.8,-.1c-.2,0,-.5,-.1,-.8,-.1v-.9c.3,.2,.5,.3,.8,.3c.2,.1,.5,.1,.8,.1c.4,0,.8,-.1,1.1,-.3c.2,-.3,.4,-.6,.4,-1c0,-.4,-.2,-.8,-.4,-1c-.3,-.2,-.7,-.4,-1.1,-.4c-.2,0,-.5,.1,-.7,.1c-.2,.1,-.4,.1,-.6,.2v-2.9Z" class="g9_350"/>
<path d="M127.4,629.8h2.9V629h-2.9Z" class="g9_350"/>
<path d="M112.6,631.8H114v-4.5l-1.5,.2v-.7l1.4,-.3h.8v5.3h1.4v.7h-3.5v-.7Z" class="g9_350"/>
<path d="M117.7,632.5h.8v-1h-.8Z" class="g9_350"/>
<path d="M122,626.4c.7,0,1.2,.3,1.5,.8c.4,.5,.5,1.3,.5,2.3c0,1,-.1,1.8,-.5,2.3c-.3,.5,-.8,.8,-1.5,.8c-.7,0,-1.2,-.3,-1.5,-.8c-.4,-.5,-.6,-1.3,-.6,-2.3c0,-1,.2,-1.8,.6,-2.3c.3,-.5,.8,-.8,1.5,-.8Zm0,.7c-.4,0,-.7,.2,-.9,.6c-.2,.4,-.4,1,-.4,1.8c0,.8,.2,1.4,.4,1.8c.2,.4,.5,.6,.9,.6c.4,0,.7,-.2,.9,-.6c.2,-.4,.3,-1,.3,-1.8c0,-.8,-.1,-1.4,-.3,-1.8c-.2,-.4,-.5,-.6,-.9,-.6Z" class="g9_350"/>
<path d="M237.6,714.5v0l-2.2,-.7l-2.2,-1.5l-1.5,-2.2l-.6,-2.2H231v-2.2h.1l.6,-2.2l1.5,-2.2l2.2,-1.5l2.2,-.6h2.2l2.2,.6l2.2,1.5l1.5,2.2l.7,2.2v2.2l-.7,2.2l-1.5,2.2l-2.2,1.5l-2.2,.7h-2.2Z" class="ga_350"/>
<path d="M228.9,732.1l.1,-.4h-.1l-2.1,-.9c-28.7,-15.7,-12.2,-57.7,19.5,-49.6l2.1,.7l.2,.1c29.9,13.2,16.9,56.4,-15.3,51l-2.1,-.5l-2.2,-.8l-.1,.4l.1,-.4l-.1,.4l-.2,.3l2.2,.8h.1c34,8.4,49.8,-37.8,17.7,-52l-2.2,-.7c-34,-8.5,-49.9,37.6,-17.9,51.9h.1l.2,-.3Z" class="gb_350"/>
<path d="M228.9,752.2v-.3l-2,-.5l-.1,-.1l-2.2,-.6l-2.2,-.8l-1.8,-.7l-.3,-.2c-10.7,-4.6,-19.1,-13.1,-23.8,-23.7l-.1,-.3l-.8,-1.9c-4,-10.5,-4,-22.1,0,-32.6l.8,-1.8l.1,-.3c4.7,-10.7,13.1,-19.1,23.8,-23.8l.3,-.1l1.8,-.8c10.5,-4,22.1,-4,32.6,0l1.9,.8l.3,.1c10.6,4.7,19.1,13.1,23.7,23.8l.2,.3l.7,1.8l.8,2.2l.6,2.2l.1,.1l.5,2c1.4,6.5,1.4,13.2,0,19.6l-.5,2.1l-.1,.1l-.6,2.1l-.8,2.2l-.7,1.9l-.2,.3c-4.6,10.6,-13.1,19.1,-23.7,23.7l-.3,.2l-1.9,.7l-2.2,.8l-2.1,.6l-.1,.1l-2.1,.5c-5.7,1.2,-11.6,1.3,-17.4,.4l-2.2,-.4v.3v-.3v.3l-.1,.4l2.2,.4c23.9,4,46.8,-10.8,53,-34.1l.5,-2.1c5.3,-24.6,-9.5,-48.7,-33.6,-55.2l-.1,-.1l-2.1,-.5c-33.5,-7,-62.8,22.3,-55.8,55.8l.5,2.1l.1,.1c4.5,16.9,18.2,29.9,35.3,33.6l.1,-.4Z" class="gb_350"/>
<path d="M226.7,771.5v-.3l-.5,-.1l-1.6,-.4l-2.2,-.5l-2.2,-.6l-2.2,-.7l-2.1,-.8l-2.2,-.8l-1.4,-.6l-.8,-.4c-14.3,-6.5,-25.8,-18,-32.3,-32.3l-.4,-.8l-.6,-1.3l-.8,-2.2l-.8,-2.1v-.1c-3.5,-10.5,-4.3,-21.8,-2.2,-32.7l.1,-.4l.3,-1.7l.5,-2.2l.6,-2.2l.7,-2.2l.8,-2.1l.8,-2.2l.6,-1.4l.4,-.8c5.8,-12.8,15.6,-23.3,27.9,-30.1l.8,-.4l1.4,-.8l2.2,-1l.8,-.4l1.4,-.5l2.2,-.9l2.1,-.7v-.1l2.2,-.7l2.2,-.6l2.2,-.5l1.6,-.3l.5,-.1c10.9,-2.1,22.2,-1.3,32.7,2.2l.1,.1l2.1,.7l2.2,.9l1.3,.5l.8,.4l2.2,1l1.5,.8l.7,.4c12.3,6.8,22.1,17.3,27.9,30.1l.4,.8l.6,1.4l.8,2.2l.8,2.1l.7,2.2l.6,2.2l.5,2.2l.4,1.7l.1,.4c2,10.9,1.2,22.2,-2.3,32.7v.1l-.8,2.1l-.8,2.2l-.6,1.3l-.4,.8l-1,2.2l-.8,1.5l.4,.2l-.4,-.2l-.4,.7c-6.7,12.3,-17.3,22.1,-30.1,27.9l-.8,.4l-1.3,.6l-2.2,.8l-2.1,.8h-.1c-9.8,3.3,-20.3,4.2,-30.5,2.6l-2.2,-.3v.3v-.3v.3l-.1,.4l2.2,.4l2.2,.3c35.6,4.1,67.8,-20.6,73.2,-55.9l.3,-2.2C308.6,679,283.9,646.8,248.6,641.4l-2.2,-.3l-2.2,-.3c-33.9,-2.7,-64.3,20.5,-70.6,53.9l-.3,2.2c-5.3,35.2,18,68.1,52.8,74.9l.5,.1l.1,-.4Z" class="gb_350"/>
<path d="M226.7,791.2l.1,-1.1c-2.9,-.5,-5.8,-1,-8.6,-1.7l-1.8,-.5l-.4,-.1l-2.1,-.6l-2.2,-.8l-2,-.7h-.2l-2.1,-.9l-2.2,-.9l-.8,-.3L203,783l-2.1,-1.1l-1,-.5l-1.2,-.6l-2.1,-1.2l-.6,-.3l-1.6,-1c-4.6,-2.9,-9,-6.2,-13,-9.9l-2.2,-2.1l-.7,.8l.8,-.8l-.8,.8l.8,-.8l-2.1,-2.2c-3.7,-4,-7.1,-8.3,-9.9,-13l-1,-1.6L166,749l-1.3,-2.2l-.6,-1.2l-.5,-.9l-1,-2.2l-.6,-1.3l-.4,-.9l-.9,-2.1l-.8,-2.2l-.1,-.1l-.7,-2.1l-.7,-2.1l-.7,-2.2l-.1,-.4l-.4,-1.7c-3.4,-13.5,-3.4,-27.7,0,-41.1l.4,-1.8l.1,-.4l.7,-2.1l.7,-2.2l.7,-2l.1,-.2l.8,-2.1l.9,-2.2l.4,-.8l.6,-1.4l1,-2.1l.5,-1l.6,-1.2l1.3,-2.1l.3,-.6l1,-1.6c2.8,-4.6,6.2,-9,9.9,-13l2.1,-2.2l-.8,-.7l.8,.8l-.8,-.8l.7,.8l2.2,-2.1c4,-3.7,8.4,-7.1,13,-9.9l1.6,-1l.6,-.3l2.1,-1.3l1.2,-.6l1,-.5l2.1,-1l1.4,-.6l.8,-.4l2.2,-.9l2.1,-.8l.2,-.1l2,-.7l2.2,-.7l2.1,-.7l.4,-.1l1.8,-.4c13.4,-3.4,27.6,-3.4,41.1,0l1.7,.4l.4,.1l2.2,.7l2.1,.7l2.1,.7l.1,.1l2.2,.8l2.1,.9l.9,.4H273l1.4,.6l2.2,1l.9,.5l1.2,.6l2.2,1.3l.5,.3l1.6,1c4.7,2.8,9,6.2,13,9.9l2.2,2.1l.8,-.8l-.8,.8l.8,-.8l-.8,.7l2.1,2.2c3.7,4,7,8.4,9.9,13l1,1.6h-.1l.4,.6l1.2,2.1l.6,1.2l.5,1l1.1,2.1l.6,1.4l.3,.8l.9,2.2l.9,2.1v.2l.7,2l.7,2.2l.7,2.1l.1,.4l.5,1.8c3.4,13.4,3.4,27.6,0,41.1l-.5,1.7l-.1,.4l-.7,2.2l-.7,2.1l-.7,2.1v.1l-.9,2.2l-.9,2.1l-.3,.9l-.6,1.3l-1.1,2.2l-.5,.9l-.6,1.2l-1.2,2.2l-.4,.5h.1l-1,1.6c-2.9,4.7,-6.2,9,-9.9,13l-2.1,2.2l.8,.8l-.8,-.8l.8,.8l-.8,-.8l-2.2,2.1c-4,3.7,-8.3,7,-13,9.9l-1.6,1l-.5,.3l-2.2,1.2l-1.2,.6l-.9,.5l-2.2,1.1l-1.4,.6h.1l-.9,.3l-2.1,.9l-2.2,.9h-.1l-2.1,.7l-2.1,.8l-2.2,.6l-.4,.1l-1.7,.5c-9.9,2.5,-20.2,3.1,-30.3,1.9l-2.2,-.2l-.1,1.1l.1,-1.1l-.1,1.1l-.2,1l2.2,.3c7.4,.9,14.9,.8,22.2,-.3h.1l2.1,-.3c36.2,-6.2,64.5,-34.5,70.7,-70.7l.3,-2.1V719c1.2,-8.1,1.2,-16.3,0,-24.4l-.3,-2.2c-6.2,-36.2,-34.5,-64.5,-70.7,-70.7l-2.1,-.3h-.1c-8.1,-1.2,-16.3,-1.2,-24.4,0l-2.2,.3c-36.2,6.2,-64.5,34.5,-70.7,70.7l-.3,2.2c-1.2,8.1,-1.2,16.3,0,24.4v.1l.3,2.1c6.2,36.2,34.5,64.5,70.7,70.7l2.2,.3l.2,-1Z" class="g9_350"/>
<path d="M228.9,810.9v-.4h-.4c-4.3,-.4,-8.5,-1.1,-12.7,-2.1l-.6,-.1l-1.6,-.4c-3.7,-.9,-7.3,-2,-10.9,-3.3l-1.7,-.7l-.5,-.2l-2.2,-.8l-2.1,-1l-.4,-.1l-1.8,-.9l-2.2,-1.1l-.5,-.2l-1.7,-.9l-2.2,-1.2l-.1,-.1l-2.1,-1.2l-1.6,-1l-.5,-.3l-2.2,-1.4l-.7,-.5l-1.5,-1l-1.6,-1.2l-.2,.4l.2,-.4l-.6,-.4c-8.8,-6.6,-16.6,-14.6,-22.9,-23.6l-1.1,-1.5l-.4,-.6l-1.4,-2.2l-.4,-.6l-1,-1.6l-1.2,-2l-.1,-.2l-1.2,-2.2l-.8,-1.7l-.3,-.5l-1.1,-2.1l-.8,-1.9l-.2,-.3l-.9,-2.2l-.9,-2.2l-.2,-.5l-.6,-1.7c-7,-18.8,-8.3,-39.3,-3.9,-58.9l.1,-.6l.4,-1.6l.6,-2.2l.6,-2.1l.6,-2.1l.1,-.1l.7,-2.2l.8,-2.2l.6,-1.7l.2,-.5l.9,-2.2l.9,-2.1l.2,-.4l.8,-1.8l1.1,-2.2l.3,-.5l.8,-1.7l1.2,-2.2l.1,-.1l1.2,-2.1l1,-1.6l.4,-.5l1.4,-2.2l.4,-.7l1.1,-1.5c6.8,-9.7,15.4,-18.3,25.1,-25.1l1.5,-1.1l.7,-.4l2.2,-1.4l.5,-.4l1.6,-1l2.1,-1.2l.1,-.1l2.2,-1.2l1.7,-.8l.5,-.3l2.2,-1.1l1.8,-.8l.4,-.2l2.1,-.9l2.2,-.9l.5,-.2l1.7,-.6c7.7,-2.9,15.8,-4.8,24,-5.8l1.8,-.1l.4,-.1c13.2,-1.2,26.6,0,39.3,3.8l2,.6l.2,.1l2.1,.7l2.2,.8l1.7,.6l.5,.2l2.2,.9l2.2,.9l.3,.2l1.9,.8l2.1,1.1l.5,.3l1.7,.8l2.2,1.2l.2,.1l2,1.2l1.6,1l.6,.4l2.2,1.4l.6,.4l1.5,1.1c9,6.3,17,14.1,23.6,22.9l.4,.6l.4,-.2l-.4,.2l1.2,1.6l1,1.5l.5,.7l1.4,2.2l.3,.5l1,1.6l1.2,2.1l.1,.1l1.2,2.2l.9,1.7l.2,.5l1.1,2.2l.9,1.8l.1,.4l.9,2.1l.9,2.2l.2,.5l.7,1.7l.7,2.2l.8,2.2v.1l.6,2.1l.7,2.1l.5,2.2l.4,1.6l.1,.6c3.4,15.1,3.4,30.8,0,45.8l-.1,.6l-.4,1.6c-.9,3.7,-2,7.4,-3.3,10.9l-.7,1.7l-.2,.5l-.9,2.2l-.9,2.2l-.1,.3l-.9,1.9l-1.1,2.1l-.2,.5l-.9,1.7l-1.2,2.2l-.1,.2l-1.2,2l-1,1.6l-.3,.6l-1.4,2.2l-.5,.6l-1,1.5l-1.2,1.6l.4,.2l-.4,-.2l-.4,.6c-3.8,5.1,-8,9.8,-12.7,14.1l-1.3,1.2l.3,.3l-.2,-.3l-.9,.8l-1.7,1.4l-.5,.5l-2.1,1.7h-.1l.2,.3l-.2,-.3l-2.2,1.7l-.6,.4l.2,.4l-.2,-.4l-1.6,1.2l-1.5,1l-.6,.5l-2.2,1.4l-.6,.3l-1.6,1l-2,1.2l-.2,.1l-2.2,1.2l-1.7,.9l-.5,.2l-2.1,1.1l-1.9,.9l-.3,.1l-2.2,1l-2.2,.8l-.5,.2l-1.7,.7c-3.5,1.3,-7.2,2.4,-10.9,3.3l-1.6,.4l-.6,.1c-10,2.3,-20.3,3.1,-30.5,2.3l-2.2,-.2v.4v-.4v.4l-.1,.4l2.2,.2l2.2,.1c57.2,2.9,105.9,-40.1,110.2,-97.1l.1,-2.2C346.4,656,304.7,607.8,248.6,602.4l-2.2,-.2l-2.2,-.2c-56.3,-2.8,-104.5,38.9,-109.9,94.9l-.2,2.2c-4.1,56.3,36.6,105.4,92.5,112l2.2,.2l.1,-.4Z" class="gb_350"/>
<path d="M178.9,814.9l-.2,-.1l-2.2,-1.3l-1.4,-.8l-.8,-.5l-2.2,-1.3l-.5,-.4l-1.7,-1.1l-1.5,-1l-.7,-.5l-2.1,-1.5l-.3,-.2l-1.9,-1.5l-1,-.7l-1.2,-1l-1.5,-1.2l-.7,-.6c-6,-5.1,-11.5,-10.7,-16.5,-16.9l-1,-1.2l-.7,-.9l-1.4,-2l-.2,-.2l-1.6,-2.2l-.4,-.6l-1.1,-1.6L135,773.9l-.3,-.5l-1.4,-2.2l-.5,-.8l-.8,-1.3l-1.2,-2.2l-.2,-.3l-.6,.4l.1,.2c5.3,9.7,12,18.5,19.6,26.4l2.2,2.2c7.9,7.7,16.8,14.3,26.4,19.6l.2,.2l.4,-.7Z" class="gb_350"/>
<path d="M346.8,766.6l-.1,.3l-1.3,2.2l-.8,1.3l-.5,.8l-1.3,2.2l.3,.2l-.3,-.2l-.4,.5l-1.1,1.7l-1,1.6l-.5,.6l-1.5,2.2l-.2,.2l-1.5,2l-.7,.9l-1,1.2c-5.5,6.9,-11.8,13.2,-18.7,18.7l-1.2,1l-.9,.7l-2,1.5l-.2,.2l-2.2,1.5l-.6,.5l-1.6,1l-1.7,1.1l-.5,.4l-2.2,1.3l-.8,.5l-1.3,.8l-2.2,1.3l-.3,.1l.4,.7l.2,-.2c20.3,-11.2,37,-27.9,48.2,-48.2l.2,-.2l-.7,-.4Z" class="gb_350"/>
<path d="M130.6,647l.2,-.2l1.2,-2.2l.8,-1.4l.5,-.8l1.4,-2.2l.3,-.5l1.1,-1.7l1.1,-1.5l.4,-.6l1.6,-2.2l.2,-.3l1.4,-1.9l.7,-1v.1l1,-1.3l1.2,-1.5l.6,-.7l1.6,-1.8l.3,-.4l1.9,-2l.1,-.2l2.1,-2.1v-.1l-.3,-.2l.3,.3l2.2,-2.2l2.1,-2.1l.2,-.1l2,-1.9l.4,-.3l1.8,-1.6l.7,-.6l1.5,-1.2l1.2,-1l1,-.7l1.9,-1.4l.3,-.2l2.1,-1.6l.7,-.4l1.5,-1.1l1.7,-1.1l.5,-.3l2.2,-1.4l.8,-.5l1.4,-.8l2.2,-1.2l.2,-.2l-.4,-.6l-.2,.1c-10.5,5.9,-20.2,13.2,-28.6,21.9l.3,.2l-.3,-.3l-2.1,2.2c-6.8,7.4,-12.6,15.5,-17.5,24.2l-.1,.3l.6,.3Z" class="gb_350"/>
<path d="M298.5,598.7l.3,.2l2.2,1.2l1.3,.8l.8,.5l2.2,1.4l.5,.3l1.7,1.1l1.6,1.1l.6,.4l2.2,1.6l.2,.2l2,1.4l.9,.7l1.2,1c3.1,2.5,6,5.1,8.8,7.8l2.2,2.2l.2,-.3l-.3,.2c2.1,2.2,4.1,4.4,6,6.6l.6,.7l1.2,1.5l1,1.3v-.1l.7,1l1.5,1.9l.2,.3l1.5,2.2l.5,.6l1,1.5l1.1,1.7l.4,.5l1.3,2.2l.5,.8l.8,1.4l1.3,2.2l.1,.2l.7,-.3l-.2,-.3c-2.5,-4.6,-5.3,-9,-8.4,-13.2l-.2,-.2c-1.4,-1.9,-2.9,-3.8,-4.4,-5.6l-.6,-.8c-1.3,-1.4,-2.5,-2.9,-3.8,-4.2l-.1,-.2L327.7,620l-.3,.3l.3,-.2c-8.4,-8.7,-18,-16,-28.6,-21.9l-.2,-.1l-.4,.6Z" class="gb_350"/>
<path d="M145.3,815l-1.6,-1.5l-.9,-.7l-1.3,-1.2c-2.3,-2.1,-4.4,-4.3,-6.6,-6.5L134,804l-.3,.3l.3,-.3l-1.2,-1.3l-.8,-.8l-1.4,-1.7l-.6,.5l1.4,1.7c3.7,4.1,7.6,8,11.8,11.7l1.6,1.4l.5,-.5Z" class="gb_350"/>
<path d="M346.9,800.2l-1.5,1.7l.3,.2l-.3,-.2l-.7,.8l-1.3,1.3l.3,.3l-.3,-.3l-.9,1.1l.3,.2l-.3,-.2l-1.1,1.1l-1.1,1.1l-1.1,1.1l-1.1,1.1l-1.1,1.1l.2,.3l-.2,-.3l-1.1,1l.3,.2l-.3,-.3l-1.3,1.3l.3,.3l-.3,-.3l-.9,.7l.3,.3l-.2,-.3l-1.7,1.5l.5,.5l1.7,-1.4c4.1,-3.7,8,-7.6,11.7,-11.7l1.4,-1.7l-.5,-.5Z" class="gb_350"/>
<path d="M130.6,613.4l1.4,-1.6c3.7,-4.1,7.6,-8,11.7,-11.7l1.6,-1.4l-.5,-.6l-1.6,1.4c-4.2,3.7,-8.1,7.6,-11.8,11.8l-1.4,1.6l.6,.5Z" class="gb_350"/>
<path d="M332.1,598.7l1.7,1.4c2.2,2,4.4,4.1,6.5,6.2l1.1,1.1l.2,-.2l-.2,.2l1.1,1.2l.9,1l1.3,1.3l.7,.9l1.5,1.6l.5,-.5L346,611.3c-3.7,-4.2,-7.6,-8.1,-11.7,-11.8l-1.7,-1.4l-.5,.6Z" class="gb_350"/>
<path d="M222.4,782l-1.4,-.4l-.3,1.1l1.5,.3l.2,-1Zm-2.1,-.5l-1.4,-.4l-.3,1.1l1.5,.3l.2,-1Zm-2.1,-.6h-.1l-1.3,-.4l-.3,1.1l1.2,.3l.1,.1h.2l.2,-1.1Zm-2,-.6l-1.4,-.4l-.4,1l1.5,.5l.3,-1.1Zm-2.1,-.6l-.4,-.2l-1,-.3l-.3,1l.9,.4h.1l.4,.1l.3,-1Zm-2,-.8l-1.4,-.5l-.4,1l1.4,.6l.4,-1.1Zm-2,-.7l-.7,-.3l-.7,-.3l-.4,1l.6,.3h.1l.7,.3l.4,-1Zm-2,-.8l-.9,-.4l-.4,-.2l-.5,1l.4,.1v.1l1,.4l.4,-1Zm-1.9,-.9l-1.4,-.7l-.4,1l1.3,.7l.5,-1Zm-1.9,-1l-1.4,-.6l-.5,1l1.4,.6l.5,-1Zm-1.9,-.9l-1.3,-.8l-.6,1l1.3,.7l.6,-.9Zm-1.9,-1.1l-1.3,-.7l-.6,.9l1.3,.8l.6,-1Zm-1.9,-1.1l-.1,-.1l-1.1,-.7l-.6,1l1.1,.7l.2,.1l.5,-1Zm-1.8,-1.1l-.5,-.3l-.7,-.5l-.6,.9l.7,.5l.5,.3l.6,-.9ZM195,770.1l-1.2,-.9l-.6,.9l1.2,.9l.6,-.9Zm-1.7,-1.3h-.1l-1.1,-.9l-.7,.9l1.2,.9v.1l.7,-1Zm-1.7,-1.3l-1.2,-.9l-.7,.9l1.2,.9l.7,-.9Zm-1.7,-1.3l-.1,-.1l-1,-.8l-.8,.8l1.1,.9l.1,.1l.7,-.9Zm-1.6,-1.4l-.7,-.5l-.4,-.4l-.8,.8l.5,.4l.7,.6l.7,-.9Zm-1.6,-1.4l-1.1,-1l-.8,.8l1.1,1l.8,-.8Zm-1.6,-1.5l-1.1,-1l-.7,.8l1,1l.8,-.8Zm-1.5,-1.5l-.3,-.3l-.7,-.8l-.8,.8l.7,.7v.1l.3,.3l.8,-.8Zm-1.5,-1.5l-1,-1.1l-.8,.7l1,1.1l.8,-.7Zm-1.4,-1.6l-1,-1.2l-.8,.7l1,1.2l.8,-.7Zm-1.4,-1.7l-.4,-.4l-.5,-.7l-.9,.6l.5,.7h.1l.4,.5l.8,-.7ZM178,753.9l-.9,-1.2l-.9,.7l.9,1.2l.9,-.7Zm-1.3,-1.7l-.6,-.8l-.3,-.4l-.9,.7l.3,.3v.1l.6,.8l.9,-.7Zm-1.3,-1.7l-.8,-1.2l-.9,.6l.8,1.2l.9,-.6Zm-1.1,-1.8l-.8,-1.3l-1,.6l.8,1.3l1,-.6Zm-1.2,-1.8l-.8,-1.3l-.9,.6l.8,1.3l.9,-.6ZM172,745l-.1,-.1l-.6,-1.2l-1,.6l.6,1.1h.1l.1,.2l.9,-.6Zm-1,-1.8l-.7,-1.4l-1,.5l.7,1.4l1,-.5Zm-1,-1.9l-.4,-.8l-.3,-.6l-1,.5l.3,.6l.4,.8l1,-.5Zm-.9,-2l-.6,-1.3l-1.1,.4l.7,1.4l1,-.5Zm-.9,-1.9l-.6,-1.2V736l-1,.4v.2l.6,1.2l1,-.4Zm-.8,-2l-.6,-1.4l-1,.4l.5,1.4l1.1,-.4Zm-.8,-2l-.5,-1.4l-1.1,.4l.6,1.4l1,-.4Zm-.7,-2l-.5,-1.4l-1,.3l.4,1.4l1.1,-.3Zm-.7,-2.1l-.4,-1.4l-1.1,.3l.5,1.5l1,-.4Zm-.6,-2l-.4,-1.5l-1,.3l.3,1.5l1.1,-.3Zm-.5,-2.1l-.4,-1.5l-1,.3l.3,1.5l1.1,-.3Zm-.5,-2.1l-.3,-1.4l-1.1,.2l.3,1.4l1.1,-.2Zm-.4,-2.1l-.3,-1.5l-1.1,.2l.3,1.5l1.1,-.2Zm-.4,-2.1v-.1l-.2,-1.4l-1.1,.2l.2,1.3v.2l1.1,-.2Zm-.3,-2.1l-.2,-1.5l-1.1,.1l.2,1.5l1.1,-.1Zm-.3,-2.2v-.2l-.1,-1.2l-1.1,.1l.1,1.2v.3l1.1,-.2Zm-.1,-2.1L162,711l-1.1,.1l.1,1.5l1.1,-.1Zm-.2,-2.1v-1.5h-1.1v1.5h1.1Zm0,-2.2l-.1,-1.5l-1.1,.1l.1,1.5l1.1,-.1Zm-.1,-2.1v-.4l.1,-1.1h-1.1l-.1,1.1v.4h1.1Zm.1,-2.1l.1,-1.5l-1.1,-.1l-.1,1.5l1.1,.1Zm.1,-2.2v-.4l.1,-1.1l-1.1,-.1l-.1,1.1v.5H162Zm.2,-2.1l.1,-1.5l-1.1,-.1l-.1,1.5l1.1,.1Zm.2,-2.2V697l.2,-.9l-1.1,-.2l-.1,1l-.1,.5l1.1,.1Zm.3,-2.1l.2,-1.5l-1.1,-.1l-.2,1.5l1.1,.1Zm.3,-2.1l.1,-.6l.2,-.9l-1.1,-.2l-.1,.9H162l-.1,.6l1.1,.2Zm.5,-2.1l.3,-1.5l-1.1,-.2l-.3,1.5l1.1,.2Zm.4,-2.1l.2,-.8l.2,-.6l-1.1,-.3l-.2,.7l-.2,.8l1.1,.2Zm.5,-2.1l.4,-1.4l-1,-.3l-.4,1.4l1,.3Zm.6,-2l.3,-1l.1,-.5l-1,-.3l-.2,.4v.1l-.2,1l1,.3Zm.7,-2.1l.4,-1.4l-1,-.4l-.5,1.5l1.1,.3Zm.7,-2l.4,-1.3v-.1l-1,-.4v.2l-.5,1.2l1.1,.4Zm.7,-2l.6,-1.4l-1,-.4l-.6,1.4l1,.4Zm.8,-2l.6,-1.4l-1,-.4l-.6,1.4l1,.4Zm.9,-2l.6,-1.3l-1,-.5l-.6,1.4l1,.4Zm.9,-1.9l.7,-1.4l-1,-.4l-.7,1.3l1,.5Zm.9,-1.9l.1,-.2l.7,-1.1l-1,-.6l-.7,1.2v.2l.9,.5Zm1.1,-1.9l.7,-1.3l-.9,-.5l-.8,1.3l1,.5Zm1.1,-1.9l.4,-.7l.3,-.5l-.9,-.6l-.3,.5h-.1l-.4,.8l1,.5Zm1.1,-1.8l.7,-1.1l.1,-.1l-.9,-.7l-.1,.2l-.8,1.1l1,.6Zm1.1,-1.8l.9,-1.2l-.9,-.6l-.9,1.2l.9,.6Zm1.3,-1.7l.4,-.7l.5,-.5l-.9,-.7l-.4,.6h-.1l-.4,.6l.9,.7Zm1.3,-1.7l.9,-1.2l-.9,-.7l-.9,1.2l.9,.7Zm1.3,-1.7l.5,-.7l.4,-.5l-.8,-.7l-.4,.5h-.1l-.5,.7l.9,.7Zm1.3,-1.7l1,-1.1l-.8,-.8l-1,1.2l.8,.7Zm1.4,-1.6l1.1,-1.1l-.8,-.8l-1.1,1.1l.8,.8Zm1.5,-1.6l.2,-.2l.9,-.8l-.8,-.8l-.9,.9l-.2,.2l.8,.7Zm1.5,-1.5l.8,-.8l.3,-.2l-.8,-.9l-.2,.3l-.9,.8l.8,.8Zm1.6,-1.5l1.1,-1l-.8,-.8l-1.1,1l.8,.8Zm1.5,-1.5h.1l1.1,-.9l-.7,-.9l-1.1,1H187l.7,.8Zm1.7,-1.3l1,-.9l.1,-.1l-.7,-.9l-.1,.1v.1l-1,.8l.7,.9Zm1.6,-1.4l1.2,-.9l-.6,-.9l-1.2,.9l.6,.9Zm1.8,-1.3l1.2,-.9l-.7,-.9l-1.2,.9l.7,.9Zm1.7,-1.3l1.2,-.8l-.6,-.9l-1.3,.8l.7,.9Zm1.7,-1.2h.1l1.2,-.8l-.6,-.9l-1.2,.7l-.1,.1l.6,.9Zm1.9,-1.1l1.2,-.8l-.5,-.9l-1.3,.8l.6,.9Zm1.8,-1.1l.8,-.5l.5,-.3l-.5,-.9l-.6,.2v.1l-.8,.4l.6,1Zm1.8,-1.1l1.4,-.7l-.5,-.9l-1.4,.7l.5,.9Zm2,-1l1.3,-.7l-.5,-1l-1.4,.7l.6,1Zm1.9,-.9l1.3,-.7l-.4,-1l-1.4,.7l.5,1Zm1.9,-.9l1.4,-.6l-.5,-1l-1.3,.6l.4,1Zm2,-.9l1.4,-.5l-.4,-1.1l-1.4,.6l.4,1Zm2,-.8l1.4,-.5l-.4,-1l-1.4,.5l.4,1Zm2,-.7l.2,-.1l1.2,-.4l-.3,-1l-1.2,.4h-.1l-.2,.1l.4,1Zm2,-.7l1.5,-.4l-.4,-1.1l-1.4,.5l.3,1Zm2.1,-.6l.5,-.1l.9,-.3l-.3,-1.1l-.9,.3h-.1l-.4,.1l.3,1.1Zm2,-.5l1.5,-.4l-.3,-1.1l-1.4,.4l.2,1.1Zm2.1,-.6l.7,-.1l.8,-.2l-.2,-1.1l-.8,.2l-.7,.2l.2,1Zm2.1,-.4l1.5,-.3l-.2,-1.1l-1.5,.3l.2,1.1Zm2.1,-.4l.9,-.1l.6,-.1l-.1,-1.1l-.7,.1l-.9,.1l.2,1.1Zm2.1,-.3l1.5,-.2l-.1,-1.1l-1.5,.2l.1,1.1Zm2.2,-.3l.9,-.1h.6l-.1,-1.1H231l-.9,.1l.1,1.1Zm2.1,-.2l1.5,-.1l-.1,-1.1l-1.5,.1l.1,1.1Zm2.2,-.1l1,-.1h.4v-1.1h-.5l-1,.1l.1,1.1Zm2.1,-.1h1.5v-1.1h-1.5V630Zm2.1,-.1h1.5l.1,-1.1h-1.6v1.1Zm2.2,.1h1.5v-1.1h-1.5V630Zm2.1,.1h1.2l.3,.1l.1,-1.1l-.4,-.1h-1.1l-.1,1.1Zm2.2,.1l1.5,.2l.1,-1.1l-1.5,-.2l-.1,1.1Zm2.1,.2l1.2,.1l.3,.1l.1,-1.1h-.3l-1.2,-.2l-.1,1.1Zm2.1,.3l1.5,.2l.2,-1.1l-1.5,-.2l-.2,1.1Zm2.1,.3l1.4,.2l.1,.1l.2,-1.1h-.1l-.1,-.1l-1.3,-.2l-.2,1.1Zm2.1,.4l1.5,.3l.2,-1.1l-1.4,-.3l-.3,1.1Zm2.2,.5l1.4,.3l.1,-.6l-.1,.6l.3,-1.1l-1.5,-.3l-.2,1.1Zm2,.5l1.5,.4l.3,-1.1l-1.5,-.4l-.3,1.1Zm2.1,.5l1.5,.4l.3,-1l-1.5,-.4l-.3,1Zm2,.6l1.5,.5l.3,-1l-1.4,-.5l-.4,1Zm2.1,.7l1.4,.5l.4,-1l-1.5,-.5l-.3,1Zm2,.7l1.4,.6l.4,-1l-1.4,-.6l-.4,1Zm2,.9l1.4,.5l.4,-1l-1.4,-.6l-.4,1.1Zm2,.8l.3,.1l1,.5l.5,-1l-1.1,-.5l-.3,-.1l-.4,1Zm1.9,.9l1.4,.7l.4,-1l-1.3,-.7l-.5,1Zm1.9,.9l.8,.4l.5,.3l.6,-.9l-.6,-.4l-.8,-.3l-.5,.9Zm1.9,1l1.3,.8l.6,-1l-1.3,-.7l-.6,.9Zm1.9,1.1l1.3,.8l.5,-1l-1.3,-.7l-.5,.9Zm1.8,1.1l1.3,.8l.6,-.9l-1.3,-.8l-.6,.9Zm1.8,1.1l1.3,.9l.6,-.9l-1.2,-.9l-.7,.9ZM283,644l1.2,.8l.3,-.4l-.3,.4l.7,-.8v-.1l-1.3,-.8l-.6,.9Zm1.7,1.2l1.2,1l.7,-.9l-1.2,-.9l-.7,.8Zm1.7,1.4l1.2,.9l.7,-.9l-1.2,-.9l-.7,.9Zm1.7,1.3l1.1,1l.8,-.9l-1.2,-1l-.7,.9Zm1.6,1.4l.1,.1l1,.9l.8,-.8l-1,-.9l-.1,-.1l-.8,.8Zm1.6,1.4l.7,.7l.4,.4l.8,-.8l-.4,-.4l-.7,-.7l-.8,.8Zm1.5,1.5l1.1,1.1l.8,-.8l-1.1,-1.1l-.8,.8Zm1.6,1.5l1,1.1l.8,-.7l-1,-1.1l-.8,.7Zm1.4,1.6l.6,.6l.4,.5l.8,-.7l-.4,-.5l-.6,-.6l-.8,.7Zm1.4,1.6l1,1.2l.8,-.7l-.9,-1.2l-.9,.7Zm1.4,1.7l.9,1.2l.9,-.7l-.9,-1.2l-.9,.7Zm1.3,1.7l.9,1.2l.9,-.7l-.9,-1.2l-.9,.7Zm1.3,1.7l.2,.2l.6,1l1,-.6l-.7,-1l-.2,-.3l-.9,.7Zm1.2,1.8l.5,.6l.3,.6l1,-.6l-.4,-.6l-.5,-.7l-.9,.7Zm1.2,1.8l.8,1.2l.9,-.5l-.8,-1.3l-.9,.6Zm1.1,1.8l.8,1.3l.9,-.6l-.8,-1.3l-.9,.6Zm1.1,1.8l.7,1.4l1,-.6l-.7,-1.3l-1,.5Zm1,1.9l.7,1.4l1,-.5l-.7,-1.4l-1,.5Zm1,1.9v.1l.6,1.3l1,-.5l-.6,-1.3v-.1l-1,.5Zm.9,2l.6,1.4l1,-.5l-.6,-1.4l-1,.5Zm.9,1.9l.2,.6l.3,.8l1,-.4l-.3,-.8V677l-.2,-.5l-1,.4Zm.7,2l.6,1.4l1,-.4l-.5,-1.4l-1.1,.4Zm.8,2l.3,.9l.2,.5l1,-.3l-.1,-.5v-.1l-.4,-.8l-1,.3Zm.7,2.1l.4,1.4l1.1,-.3l-.5,-1.5l-1,.4Zm.6,2l.4,1.2l.1,.2l1,-.2v-.3l-.1,-.1l-.3,-1.1l-1.1,.3Zm.6,2.1l.4,1.4l1,-.2l-.3,-1.5l-1.1,.3Zm.5,2.1l.4,1.3v.1l1.1,-.2l-.1,-.1l-.3,-1.4l-1.1,.3Zm.5,2l.3,1.5l1.1,-.2l-.3,-1.5l-1.1,.2Zm.4,2.2l.3,1.4l1.1,-.2l-.3,-1.4l-1.1,.2Zm.4,2.1l.1,1.4l1.1,-.1l-.2,-1.5l-1,.2Zm.2,2.1l.2,1.5l1.1,-.2l-.2,-1.4l-1.1,.1Zm.3,2.1l.1,1.5l1.1,-.1l-.1,-1.5l-1.1,.1Zm.1,2.2l.1,1.5l1.1,-.1l-.1,-1.5l-1.1,.1Zm.2,2.1v1.5h1.1V704h-1.1Zm0,2.1v1.6l1.1,-.1v-1.5h-1.1Zm0,2.2l-.1,1.5h1.1l.1,-1.5h-1.1Zm-.1,2.1l-.1,1.5l1.1,.1l.1,-1.5l-1.1,-.1Zm-.1,2.2l-.2,1.5l1.1,.1l.2,-1.5l-1.1,-.1Zm-.2,2.1l-.2,1.5l1.1,.1l.2,-1.5l-1.1,-.1Zm-.2,2.1l-.3,1.5l1.1,.2L316,717l-1,-.2Zm-.4,2.2l-.2,1.4l1.1,.2l.2,-1.5l-1.1,-.1Zm-.3,2.1l-.3,1.4l1,.3l.4,-1.5l-1.1,-.2Zm-.5,2.1l-.3,1.4l1.1,.3l.3,-1.5l-1.1,-.2Zm-.4,2.1v0l-.4,1.4l1,.3l.4,-1.4v-.1l-1,-.2Zm-.6,2l-.4,1.5l1.1,.3l.4,-1.5l-1.1,-.3Zm-.6,2.1l-.1,.3l-.3,1.1l1,.4l.4,-1.2l.1,-.3l-1.1,-.3Zm-.7,2l-.5,1.4l1.1,.4l.5,-1.4l-1.1,-.4Zm-.7,2.1l-.2,.5l-.3,.8l1,.5l.4,-.9l.2,-.6l-1.1,-.3Zm-.7,1.9l-.6,1.4l1,.5l.6,-1.4l-1,-.5Zm-.9,2l-.3,1l-.3,.4l1,.5l.2,-.5h.1l.3,-.9l-1,-.5Zm-.8,2l-.7,1.3l1,.5l.6,-1.3l-.9,-.5Zm-1,1.9l-.7,1.4l1,.4l.7,-1.3l-1,-.5Zm-1,1.9l-.7,1.3l1,.6l.7,-1.4l-1,-.5Zm-1,1.9l-.8,1.3l1,.5l.7,-1.3l-.9,-.5Zm-1.1,1.9l-.1,.1l-.7,1.1l.9,.6l.8,-1.2l.1,-.1l-1,-.5Zm-1.1,1.8l-.3,.4l-.6,.8l.9,.6l.6,-.8l.3,-.5l-.9,-.5Zm-1.2,1.7l-.9,1.3l.9,.6l.9,-1.2l-.9,-.7Zm-1.3,1.8v0l-.9,1.2l.9,.6l.9,-1.1v-.1l-.9,-.6Zm-1.3,1.7l-.9,1.2l.9,.6l.9,-1.1l-.9,-.7Zm-1.3,1.7l-.1,.1l-.9,1l.9,.7l.9,-1v-.1h.1l-.9,-.7Zm-1.4,1.6l-.5,.6l-.5,.5l.8,.8l.5,-.5l.5,-.7l-.8,-.7Zm-1.4,1.6l-1,1.1l.8,.7l1,-1.1l-.8,-.7Zm-1.5,1.6l-1.1,1l.8,.8l1.1,-1.1l-.8,-.7Zm-1.5,1.5l-.3,.3l-.8,.7l.8,.8l.7,-.7h.1l.3,-.3l-.8,-.8Zm-1.6,1.4l-1.1,1.1l.8,.8l1.1,-1.1l-.8,-.8Zm-1.6,1.5l-1.1,.9l.7,.9l1.1,-1l-.7,-.8Zm-1.6,1.4l-.5,.3l-.7,.6l.7,.8l.7,-.5l.5,-.4l-.7,-.8Zm-1.7,1.3l-1.2,.9l.7,.9l1.2,-1l-.7,-.8Zm-1.7,1.3l-.8,.6l-.4,.3l.6,.9l.4,-.3h.1l.8,-.7l-.7,-.8Zm-1.7,1.2l-1.3,.9l.6,.9L283,771l-.6,-.9Zm-1.8,1.2l-1.3,.8l.6,.9l1.3,-.8l-.6,-.9Zm-1.9,1.1l-1.2,.8l.5,1l1.3,-.8l-.6,-1Zm-1.8,1.2h-.1l-1.2,.7l.5,.9l1.2,-.6l.2,-.1l-.6,-.9Zm-1.9,1l-1.3,.7l.5,.9l1.3,-.7l-.5,-.9Zm-1.9,1l-.7,.3l-.6,.3l.5,1l.6,-.3l.7,-.4l-.5,-.9Zm-1.9,.9l-1.4,.6l.5,1l1.4,-.6l-.5,-1Zm-2,.9l-1.1,.5l-.2,.1l.4,1l.2,-.1l1.2,-.5l-.5,-1Zm-1.9,.8l-1.4,.5l.4,1.1l1.4,-.6l-.4,-1Zm-2,.8l-1.5,.5l.4,1l1.4,-.5l-.3,-1Zm-2,.7l-1.5,.4l.3,1.1l1.5,-.5l-.3,-1Zm-2.1,.6l-1.4,.5l.3,1l1.4,-.4l-.3,-1.1Zm-2,.6l-1.5,.4l.3,1.1l1.4,-.4l-.2,-1.1Zm-2.1,.6l-1.5,.3l.3,1.1l1.4,-.4l-.2,-1ZM255,782l-1.5,.2l.2,1.1l1.5,-.2L255,782Zm-2.1,.4l-1.5,.2l.2,1.1l1.5,-.2l-.2,-1.1Zm-2.1,.4h-.1l-1.4,.2l.1,1l1.4,-.1h.1l.1,-.1l-.2,-1Zm-2.2,.2l-1.4,.2l.1,1.1l1.5,-.2l-.2,-1.1Zm-2.1,.3h-.2l-1.3,.1l.1,1.1l1.3,-.1h.2l-.1,-1.1Zm-2.1,.2l-1.5,.1l.1,1.1l1.5,-.1l-.1,-1.1Zm-2.2,.1H242l-1.2,.1v1.1l1.2,-.1h.3l-.1,-1.1Zm-2.1,.1h-1.5v1.1h1.5v-1.1Zm-2.2,0h-1.4l-.1,1.1H238l-.1,-1.1Zm-2.1,-.1h-1.5v1.1h1.5v-1.1Zm-2.1,-.1h-.4l-1.1,-.1l-.1,1.1l1.1,.1h.4l.1,-1.1Zm-2.2,-.1l-1.5,-.2l-.1,1.1l1.5,.1l.1,-1Zm-2.1,-.3h-.5l-1,-.2l-.1,1.1l1,.2h.5l.1,-1.1Zm-2.1,-.3l-1.5,-.2l-.2,1.1l1.5,.2l.2,-1.1Zm-2.1,-.3l-.6,-.1l-.9,-.2l-.2,1.1l.9,.2l.6,.1l.2,-1.1Zm-2.1,-.4l-.7,-.1l-.2,1l.6,.2l.3,-1.1Z" class="g9_350"/>
<path d="M129.9,815.6h.8V598h-.8Z" class="g9_350"/>
<path d="M346.8,815.6h.7V598h-.7Z" class="g9_350"/>
<path d="M129.9,815.6H347.5v-.7H129.9Z" class="g9_350"/>
<path d="M129.9,598.8H347.5V598H129.9Z" class="g9_350"/>
<path d="M361.7,815.2h10.8V598.4H361.7Z" class="g0_350"/>
<path d="M361.7,815.2h10.8V788.1H361.7Z" class="g1_350"/>
<path d="M361.7,788.1h10.8V761H361.7Z" class="g2_350"/>
<path d="M361.7,761h10.8V733.9H361.7Z" class="g3_350"/>
<path d="M361.7,733.9h10.8V706.8H361.7Z" class="g4_350"/>
<path d="M361.7,706.8h10.8V679.7H361.7Z" class="g5_350"/>
<path d="M361.7,679.7h10.8V652.6H361.7Z" class="g6_350"/>
<path d="M361.7,652.6h10.8V625.5H361.7Z" class="g7_350"/>
<path d="M361.7,625.5h10.8V598.4H361.7Z" class="g8_350"/>
<path d="M372.5,815.6h2.9v-.7h-2.9Z" class="g9_350"/>
<path d="M379.1,816.1h5.1v-.7h-5.1Z" class="g9_350"/>
<path d="M386.1,817.7h1.3v-4.6l-1.4,.3v-.7l1.4,-.3h.8v5.3h1.3v.6h-3.4v-.6Z" class="g9_350"/>
<path d="M391.1,818.3h.9v-1h-.9Z" class="g9_350"/>
<path d="M395.4,812.3c.7,0,1.2,.3,1.6,.8c.3,.5,.5,1.3,.5,2.3c0,1,-.2,1.7,-.5,2.3c-.4,.5,-.9,.8,-1.6,.8c-.6,0,-1.1,-.3,-1.5,-.8c-.3,-.6,-.5,-1.3,-.5,-2.3c0,-1,.2,-1.8,.5,-2.3c.4,-.5,.9,-.8,1.5,-.8Zm0,.6c-.4,0,-.7,.2,-.9,.6c-.2,.4,-.3,1.1,-.3,1.9c0,.8,.1,1.4,.3,1.8c.2,.4,.5,.6,.9,.6c.5,0,.8,-.2,1,-.6c.2,-.4,.3,-1,.3,-1.8c0,-.8,-.1,-1.5,-.3,-1.9c-.2,-.4,-.5,-.6,-1,-.6Z" class="g9_350"/>
<path d="M400.6,812.3c.7,0,1.2,.3,1.5,.8c.4,.5,.6,1.3,.6,2.3c0,1,-.2,1.7,-.6,2.3c-.3,.5,-.8,.8,-1.5,.8c-.6,0,-1.2,-.3,-1.5,-.8c-.4,-.6,-.5,-1.3,-.5,-2.3c0,-1,.1,-1.8,.5,-2.3c.3,-.5,.9,-.8,1.5,-.8Zm0,.6c-.4,0,-.7,.2,-.9,.6c-.2,.4,-.3,1.1,-.3,1.9c0,.8,.1,1.4,.3,1.8c.2,.4,.5,.6,.9,.6c.4,0,.7,-.2,1,-.6c.2,-.4,.3,-1,.3,-1.8c0,-.8,-.1,-1.5,-.3,-1.9c-.3,-.4,-.6,-.6,-1,-.6Z" class="g9_350"/>
<path d="M372.5,788.5h2.9v-.7h-2.9Z" class="g9_350"/>
<path d="M379.1,789h5.1v-.7h-5.1Z" class="g9_350"/>
<path d="M387.7,785.2c.6,0,1.1,.3,1.5,.8c.3,.5,.5,1.3,.5,2.3c0,1,-.2,1.7,-.5,2.3c-.4,.5,-.9,.8,-1.5,.8c-.7,0,-1.2,-.3,-1.6,-.8c-.3,-.6,-.5,-1.3,-.5,-2.3c0,-1,.2,-1.8,.5,-2.3c.4,-.5,.9,-.8,1.6,-.8Zm0,.6c-.5,0,-.8,.2,-1,.6c-.2,.4,-.3,1.1,-.3,1.9c0,.8,.1,1.4,.3,1.8c.2,.4,.5,.6,1,.6c.4,0,.7,-.2,.9,-.6c.2,-.4,.3,-1,.3,-1.8c0,-.8,-.1,-1.5,-.3,-1.9c-.2,-.4,-.5,-.6,-.9,-.6Z" class="g9_350"/>
<path d="M391.1,791.2h.9v-1h-.9Z" class="g9_350"/>
<path d="M393.5,785.3h3.8v.3l-2.1,5.6h-.9l2.1,-5.2h-2.9v-.7Z" class="g9_350"/>
<path d="M398.9,785.3h3.2v.7h-2.5v1.4l.4,-.1h.3c.7,0,1.2,.2,1.6,.6c.4,.3,.6,.8,.6,1.4c0,.7,-.2,1.2,-.6,1.5c-.4,.4,-1,.6,-1.7,.6c-.2,0,-.5,-.1,-.7,-.1c-.3,-.1,-.6,-.1,-.8,-.2v-.8c.2,.1,.4,.2,.7,.3c.3,0,.5,.1,.8,.1c.5,0,.8,-.1,1.1,-.4c.3,-.2,.4,-.6,.4,-1c0,-.4,-.1,-.7,-.4,-1c-.3,-.2,-.6,-.3,-1.1,-.3c-.2,0,-.4,0,-.6,.1c-.2,0,-.5,.1,-.7,.2v-3Z" class="g9_350"/>
<path d="M372.5,761.4h2.9v-.7h-2.9Z" class="g9_350"/>
<path d="M379.1,761.9h5.1v-.7h-5.1Z" class="g9_350"/>
<path d="M387.7,758.1c.6,0,1.1,.2,1.5,.8c.3,.5,.5,1.3,.5,2.3c0,1,-.2,1.7,-.5,2.3c-.4,.5,-.9,.7,-1.5,.7c-.7,0,-1.2,-.2,-1.6,-.7c-.3,-.6,-.5,-1.3,-.5,-2.3c0,-1,.2,-1.8,.5,-2.3c.4,-.6,.9,-.8,1.6,-.8Zm0,.6c-.5,0,-.8,.2,-1,.6c-.2,.4,-.3,1,-.3,1.9c0,.8,.1,1.4,.3,1.8c.2,.4,.5,.6,1,.6c.4,0,.7,-.2,.9,-.6c.2,-.4,.3,-1,.3,-1.8c0,-.9,-.1,-1.5,-.3,-1.9c-.2,-.4,-.5,-.6,-.9,-.6Z" class="g9_350"/>
<path d="M391.1,764.1h.9v-1h-.9Z" class="g9_350"/>
<path d="M393.7,758.2h3.2v.7h-2.4v1.4l.3,-.1h.4c.6,0,1.1,.2,1.5,.5c.4,.4,.6,.9,.6,1.5c0,.7,-.2,1.2,-.6,1.5c-.4,.4,-.9,.5,-1.7,.5c-.2,0,-.5,0,-.7,0c-.3,-.1,-.5,-.1,-.8,-.2v-.8c.2,.1,.5,.2,.7,.3c.3,0,.5,.1,.8,.1c.5,0,.8,-.2,1.1,-.4c.3,-.2,.4,-.6,.4,-1c0,-.4,-.1,-.7,-.4,-1c-.3,-.2,-.6,-.3,-1.1,-.3c-.2,0,-.4,0,-.6,.1c-.2,0,-.5,.1,-.7,.2v-3Z" class="g9_350"/>
<path d="M400.6,758.1c.7,0,1.2,.2,1.5,.8c.4,.5,.6,1.3,.6,2.3c0,1,-.2,1.7,-.6,2.3c-.3,.5,-.8,.7,-1.5,.7c-.6,0,-1.2,-.2,-1.5,-.7c-.4,-.6,-.5,-1.3,-.5,-2.3c0,-1,.1,-1.8,.5,-2.3c.3,-.6,.9,-.8,1.5,-.8Zm0,.6c-.4,0,-.7,.2,-.9,.6c-.2,.4,-.3,1,-.3,1.9c0,.8,.1,1.4,.3,1.8c.2,.4,.5,.6,.9,.6c.4,0,.7,-.2,1,-.6c.2,-.4,.3,-1,.3,-1.8c0,-.9,-.1,-1.5,-.3,-1.9c-.3,-.4,-.6,-.6,-1,-.6Z" class="g9_350"/>
<path d="M372.5,734.3h2.9v-.8h-2.9Z" class="g9_350"/>
<path d="M379.1,734.8h5.1v-.7h-5.1Z" class="g9_350"/>
<path d="M387.7,731c.6,0,1.1,.2,1.5,.8c.3,.5,.5,1.3,.5,2.3c0,1,-.2,1.7,-.5,2.2c-.4,.6,-.9,.8,-1.5,.8c-.7,0,-1.2,-.2,-1.6,-.8c-.3,-.5,-.5,-1.2,-.5,-2.2c0,-1,.2,-1.8,.5,-2.3c.4,-.6,.9,-.8,1.6,-.8Zm0,.6c-.5,0,-.8,.2,-1,.6c-.2,.4,-.3,1,-.3,1.9c0,.8,.1,1.4,.3,1.8c.2,.4,.5,.6,1,.6c.4,0,.7,-.2,.9,-.6c.2,-.4,.3,-1,.3,-1.8c0,-.9,-.1,-1.5,-.3,-1.9c-.2,-.4,-.5,-.6,-.9,-.6Z" class="g9_350"/>
<path d="M391.1,737h.9v-1h-.9Z" class="g9_350"/>
<path d="M394.4,736.3h2.8v.7h-3.8v-.7c.3,-.3,.8,-.7,1.3,-1.2c.5,-.6,.8,-.9,1,-1.1c.2,-.2,.4,-.5,.5,-.7c.1,-.2,.2,-.4,.2,-.6c0,-.3,-.1,-.6,-.4,-.7c-.2,-.2,-.5,-.3,-.8,-.3c-.3,0,-.5,0,-.8,.1c-.3,.1,-.6,.2,-.9,.4v-.8c.3,-.2,.6,-.3,.9,-.3c.3,-.1,.5,-.1,.8,-.1c.6,0,1.1,.1,1.4,.4c.4,.3,.6,.8,.6,1.3c0,.2,-.1,.4,-.2,.7c0,.2,-.2,.4,-.5,.7c0,.1,-.2,.3,-.6,.7c-.3,.4,-.8,.9,-1.5,1.5Z" class="g9_350"/>
<path d="M398.9,731.1h3.2v.7h-2.5v1.4l.4,-.1h.3c.7,0,1.2,.2,1.6,.5c.4,.4,.6,.9,.6,1.5c0,.7,-.2,1.2,-.6,1.5c-.4,.4,-1,.5,-1.7,.5c-.2,0,-.5,0,-.7,0c-.3,-.1,-.6,-.1,-.8,-.2v-.8c.2,.1,.4,.2,.7,.3c.3,0,.5,.1,.8,.1c.5,0,.8,-.2,1.1,-.4c.3,-.2,.4,-.6,.4,-1c0,-.4,-.1,-.7,-.4,-1c-.3,-.2,-.6,-.3,-1.1,-.3c-.2,0,-.4,0,-.6,0c-.2,.1,-.5,.2,-.7,.3v-3Z" class="g9_350"/>
<path d="M372.5,707.2h2.9v-.8h-2.9Z" class="g9_350"/>
<path d="M380.8,703.9c.7,0,1.2,.2,1.6,.8c.3,.5,.5,1.2,.5,2.3c0,1,-.2,1.7,-.5,2.2c-.4,.6,-.9,.8,-1.6,.8c-.6,0,-1.1,-.2,-1.5,-.8c-.3,-.5,-.5,-1.2,-.5,-2.2c0,-1.1,.2,-1.8,.5,-2.3c.4,-.6,.9,-.8,1.5,-.8Zm0,.6c-.4,0,-.7,.2,-.9,.6c-.2,.4,-.3,1,-.3,1.9c0,.8,.1,1.4,.3,1.8c.2,.4,.5,.6,.9,.6c.4,0,.8,-.2,1,-.6c.2,-.4,.3,-1,.3,-1.8c0,-.9,-.1,-1.5,-.3,-1.9c-.2,-.4,-.6,-.6,-1,-.6Z" class="g9_350"/>
<path d="M384.3,709.9h.8v-1h-.8Z" class="g9_350"/>
<path d="M388.6,703.9c.7,0,1.2,.2,1.5,.8c.4,.5,.6,1.2,.6,2.3c0,1,-.2,1.7,-.6,2.2c-.3,.6,-.8,.8,-1.5,.8c-.7,0,-1.2,-.2,-1.5,-.8c-.4,-.5,-.5,-1.2,-.5,-2.2c0,-1.1,.1,-1.8,.5,-2.3c.3,-.6,.8,-.8,1.5,-.8Zm0,.6c-.4,0,-.7,.2,-.9,.6c-.2,.4,-.3,1,-.3,1.9c0,.8,.1,1.4,.3,1.8c.2,.4,.5,.6,.9,.6c.4,0,.7,-.2,.9,-.6c.3,-.4,.4,-1,.4,-1.8c0,-.9,-.1,-1.5,-.4,-1.9c-.2,-.4,-.5,-.6,-.9,-.6Z" class="g9_350"/>
<path d="M393.8,703.9c.7,0,1.2,.2,1.5,.8c.4,.5,.5,1.2,.5,2.3c0,1,-.1,1.7,-.5,2.2c-.3,.6,-.8,.8,-1.5,.8c-.7,0,-1.2,-.2,-1.5,-.8c-.4,-.5,-.6,-1.2,-.6,-2.2c0,-1.1,.2,-1.8,.6,-2.3c.3,-.6,.8,-.8,1.5,-.8Zm0,.6c-.4,0,-.7,.2,-.9,.6c-.2,.4,-.4,1,-.4,1.9c0,.8,.2,1.4,.4,1.8c.2,.4,.5,.6,.9,.6c.4,0,.7,-.2,.9,-.6c.2,-.4,.3,-1,.3,-1.8c0,-.9,-.1,-1.5,-.3,-1.9c-.2,-.4,-.5,-.6,-.9,-.6Z" class="g9_350"/>
<path d="M372.5,680.1h2.9v-.8h-2.9Z" class="g9_350"/>
<path d="M380.8,676.8c.7,0,1.2,.2,1.6,.8c.3,.5,.5,1.2,.5,2.2c0,1,-.2,1.8,-.5,2.3c-.4,.6,-.9,.8,-1.6,.8c-.6,0,-1.1,-.2,-1.5,-.8c-.3,-.5,-.5,-1.3,-.5,-2.3c0,-1,.2,-1.7,.5,-2.2c.4,-.6,.9,-.8,1.5,-.8Zm0,.6c-.4,0,-.7,.2,-.9,.6c-.2,.4,-.3,1,-.3,1.8c0,.9,.1,1.5,.3,1.9c.2,.4,.5,.6,.9,.6c.4,0,.8,-.2,1,-.6c.2,-.4,.3,-1,.3,-1.9c0,-.8,-.1,-1.4,-.3,-1.8c-.2,-.4,-.6,-.6,-1,-.6Z" class="g9_350"/>
<path d="M384.3,682.8h.8v-1h-.8Z" class="g9_350"/>
<path d="M387.6,682.1h2.8v.7h-3.8v-.7c.3,-.3,.7,-.7,1.3,-1.2c.5,-.6,.8,-.9,1,-1.1c.2,-.3,.4,-.5,.5,-.7c.1,-.2,.1,-.4,.1,-.6c0,-.3,-.1,-.6,-.3,-.8c-.2,-.2,-.5,-.3,-.9,-.3c-.2,0,-.5,.1,-.8,.2c-.2,.1,-.5,.2,-.8,.4v-.8c.3,-.2,.6,-.3,.9,-.3c.2,-.1,.5,-.1,.7,-.1c.6,0,1.1,.1,1.5,.4c.4,.3,.6,.7,.6,1.3c0,.2,-.1,.4,-.2,.7c-.1,.2,-.2,.4,-.5,.7c-.1,.1,-.3,.3,-.6,.7c-.4,.4,-.9,.9,-1.5,1.5Z" class="g9_350"/>
<path d="M392.1,676.9h3.1v.6h-2.4V679l.4,-.1h.3c.7,0,1.2,.2,1.6,.5c.4,.4,.6,.9,.6,1.5c0,.6,-.2,1.1,-.6,1.5c-.4,.3,-1,.5,-1.7,.5c-.3,0,-.5,0,-.8,0c-.2,-.1,-.5,-.1,-.8,-.2v-.8c.3,.1,.5,.2,.8,.3c.2,0,.5,0,.8,0c.4,0,.8,-.1,1.1,-.3c.2,-.3,.4,-.6,.4,-1c0,-.4,-.2,-.7,-.4,-1c-.3,-.2,-.7,-.3,-1.1,-.3c-.2,0,-.5,0,-.7,0c-.2,.1,-.4,.2,-.6,.3v-3Z" class="g9_350"/>
<path d="M372.5,653h2.9v-.8h-2.9Z" class="g9_350"/>
<path d="M380.8,649.7c.7,0,1.2,.2,1.6,.7c.3,.6,.5,1.3,.5,2.3c0,1,-.2,1.8,-.5,2.3c-.4,.6,-.9,.8,-1.6,.8c-.6,0,-1.1,-.2,-1.5,-.8c-.3,-.5,-.5,-1.3,-.5,-2.3c0,-1,.2,-1.7,.5,-2.3c.4,-.5,.9,-.7,1.5,-.7Zm0,.6c-.4,0,-.7,.2,-.9,.6c-.2,.4,-.3,1,-.3,1.8c0,.9,.1,1.5,.3,1.9c.2,.4,.5,.6,.9,.6c.4,0,.8,-.2,1,-.6c.2,-.4,.3,-1,.3,-1.9c0,-.8,-.1,-1.4,-.3,-1.8c-.2,-.4,-.6,-.6,-1,-.6Z" class="g9_350"/>
<path d="M384.3,655.7h.8v-1h-.8Z" class="g9_350"/>
<path d="M386.9,649.8h3.2v.6h-2.5v1.5l.4,-.1h.3c.7,0,1.2,.2,1.6,.5c.4,.4,.6,.9,.6,1.5c0,.6,-.2,1.1,-.6,1.5c-.4,.3,-1,.5,-1.7,.5c-.2,0,-.5,0,-.8,0c-.2,-.1,-.5,-.2,-.8,-.2v-.8c.3,.1,.5,.2,.8,.2c.2,.1,.5,.1,.8,.1c.5,0,.8,-.1,1.1,-.3c.3,-.3,.4,-.6,.4,-1c0,-.4,-.1,-.7,-.4,-1c-.3,-.2,-.6,-.3,-1.1,-.3c-.2,0,-.4,0,-.7,0c-.2,.1,-.4,.1,-.6,.2v-2.9Z" class="g9_350"/>
<path d="M393.8,649.7c.7,0,1.2,.2,1.5,.7c.4,.6,.5,1.3,.5,2.3c0,1,-.1,1.8,-.5,2.3c-.3,.6,-.8,.8,-1.5,.8c-.7,0,-1.2,-.2,-1.5,-.8c-.4,-.5,-.6,-1.3,-.6,-2.3c0,-1,.2,-1.7,.6,-2.3c.3,-.5,.8,-.7,1.5,-.7Zm0,.6c-.4,0,-.7,.2,-.9,.6c-.2,.4,-.4,1,-.4,1.8c0,.9,.2,1.5,.4,1.9c.2,.4,.5,.6,.9,.6c.4,0,.7,-.2,.9,-.6c.2,-.4,.3,-1,.3,-1.9c0,-.8,-.1,-1.4,-.3,-1.8c-.2,-.4,-.5,-.6,-.9,-.6Z" class="g9_350"/>
<path d="M372.5,625.9h2.9v-.8h-2.9Z" class="g9_350"/>
<path d="M380.8,622.5c.7,0,1.2,.3,1.6,.8c.3,.6,.5,1.3,.5,2.3c0,1,-.2,1.8,-.5,2.3c-.4,.5,-.9,.8,-1.6,.8c-.6,0,-1.1,-.3,-1.5,-.8c-.3,-.5,-.5,-1.3,-.5,-2.3c0,-1,.2,-1.7,.5,-2.3c.4,-.5,.9,-.8,1.5,-.8Zm0,.7c-.4,0,-.7,.2,-.9,.6c-.2,.4,-.3,1,-.3,1.8c0,.8,.1,1.5,.3,1.9c.2,.4,.5,.6,.9,.6c.4,0,.8,-.2,1,-.6c.2,-.4,.3,-1.1,.3,-1.9c0,-.8,-.1,-1.4,-.3,-1.8c-.2,-.4,-.6,-.6,-1,-.6Z" class="g9_350"/>
<path d="M384.3,628.6h.8v-1h-.8Z" class="g9_350"/>
<path d="M386.7,622.7h3.8v.3l-2.2,5.6h-.8l2,-5.3h-2.8v-.6Z" class="g9_350"/>
<path d="M392.1,622.7h3.1v.6h-2.4v1.5l.4,-.1h.3c.7,0,1.2,.2,1.6,.5c.4,.4,.6,.9,.6,1.5c0,.6,-.2,1.1,-.6,1.5c-.4,.3,-1,.5,-1.7,.5c-.3,0,-.5,0,-.8,-.1c-.2,0,-.5,-.1,-.8,-.1v-.9c.3,.2,.5,.3,.8,.3c.2,.1,.5,.1,.8,.1c.4,0,.8,-.1,1.1,-.3c.2,-.3,.4,-.6,.4,-1c0,-.4,-.2,-.8,-.4,-1c-.3,-.2,-.7,-.4,-1.1,-.4c-.2,0,-.5,.1,-.7,.1c-.2,.1,-.4,.1,-.6,.2v-2.9Z" class="g9_350"/>
<path d="M372.5,598.8h2.9V598h-2.9Z" class="g9_350"/>
<path d="M379.3,600.8h1.3v-4.5l-1.5,.3v-.8l1.5,-.3h.8v5.3h1.3v.7h-3.4v-.7Z" class="g9_350"/>
<path d="M384.3,601.5h.8v-1h-.8Z" class="g9_350"/>
<path d="M388.6,595.4c.7,0,1.2,.3,1.5,.8c.4,.6,.6,1.3,.6,2.3c0,1,-.2,1.8,-.6,2.3c-.3,.5,-.8,.8,-1.5,.8c-.7,0,-1.2,-.3,-1.5,-.8c-.4,-.5,-.5,-1.3,-.5,-2.3c0,-1,.1,-1.7,.5,-2.3c.3,-.5,.8,-.8,1.5,-.8Zm0,.7c-.4,0,-.7,.2,-.9,.6c-.2,.4,-.3,1,-.3,1.8c0,.8,.1,1.4,.3,1.9c.2,.4,.5,.6,.9,.6c.4,0,.7,-.2,.9,-.6c.3,-.5,.4,-1.1,.4,-1.9c0,-.8,-.1,-1.4,-.4,-1.8c-.2,-.4,-.5,-.6,-.9,-.6Z" class="g9_350"/>
<path d="M393.8,595.4c.7,0,1.2,.3,1.5,.8c.4,.6,.5,1.3,.5,2.3c0,1,-.1,1.8,-.5,2.3c-.3,.5,-.8,.8,-1.5,.8c-.7,0,-1.2,-.3,-1.5,-.8c-.4,-.5,-.6,-1.3,-.6,-2.3c0,-1,.2,-1.7,.6,-2.3c.3,-.5,.8,-.8,1.5,-.8Zm0,.7c-.4,0,-.7,.2,-.9,.6c-.2,.4,-.4,1,-.4,1.8c0,.8,.2,1.4,.4,1.9c.2,.4,.5,.6,.9,.6c.4,0,.7,-.2,.9,-.6c.2,-.5,.3,-1.1,.3,-1.9c0,-.8,-.1,-1.4,-.3,-1.8c-.2,-.4,-.5,-.6,-.9,-.6Z" class="g9_350"/>
<path d="M361.7,815.2v.4h11.2V598H361.3V815.6h.4v-.4h.4V598.8h10.1V814.9H361.7v.3h.4h-.4Z" class="g9_350"/>
<path d="M437.3,812.4H654.1V595.6H437.3Z" class="gc_350"/>
<path d="M540.2,714.2l2.2,.9l2.2,.5c12.2,.8,17.6,-14.7,7.2,-21.5l-.6,-.3l-2.2,-.9c-12,-3.3,-20.2,11.3,-11,19.8l1.6,1.1l.6,.4Z" class="g1_350"/>
<path d="M539.6,713.8L538,712.7l-1,-1c-8.4,-10,2.6,-23.8,14.2,-17.9l.6,.3l1.6,1.2c9.2,8.5,1,23.1,-11,19.8l-2.2,-.9l-.6,-.4ZM538,734l2.2,.5l2.2,.3c37.4,2.7,47.9,-48,12.5,-60.4l-1.5,-.4l-2.2,-.5c-38.1,-5.3,-51.3,46.2,-15.4,59.9l.7,.2l1.5,.4Z" class="g2_350"/>
<path d="M536.5,733.6l-.7,-.2l-2.2,-.9C498.9,716.2,515.9,665.9,553.4,674l1.5,.4l.6,.2c36,13.7,22.7,65.2,-15.3,59.9L538,734l-1.5,-.4Zm-.7,19.8l2.2,.3l2.2,.3l2.2,.2c25.1,1.6,47.4,-15.4,52.6,-40l.1,-.4l.3,-2.1c4,-25.9,-12.4,-50.3,-37.7,-56.6l-2.2,-.5l-2.1,-.4l-2.2,-.3c-25.2,-2.7,-48.3,13.6,-54.4,38l-.4,1.9l-.1,.3c-5.1,25.6,10.2,50.8,35.1,58.2l2.2,.6l1.9,.4l.3,.1Z" class="g3_350"/>
<path d="M535.5,753.3l-1.9,-.4l-2.2,-.6l-2.1,-.7c-23.8,-8.3,-37.9,-32.7,-33,-57.5l.1,-.3l.4,-1.9c6.3,-25.3,30.7,-41.6,56.6,-37.7l2.1,.4l2.2,.5l2.2,.6c24.2,7.2,39.4,31,35.5,56l-.3,2.1l-.1,.4c-5.3,25.4,-29,42.6,-54.8,39.8l-2.2,-.3l-2.2,-.3l-.3,-.1Zm.3,19.7l2.2,.3l2.2,.2l2.2,.1c36,1.7,67.1,-24.1,72.3,-59.7v-.1l.3,-2.1C619,675,594,641.8,557.7,635.3l-2.1,-.3h-.1l-2.1,-.3l-2.2,-.2c-35.9,-2.8,-67.9,22,-74.2,57.4l-.3,2.2c-5.2,36.5,18.7,70.5,54.7,78.1l2.2,.4l2.2,.4Z" class="gd_350"/>
<path d="M535.8,773l-2.2,-.4l-2.2,-.4l-2.1,-.5c-34.9,-8.5,-57.6,-41.9,-52.6,-77.6l.3,-2.2c6.5,-36.2,39.7,-61.2,76.4,-57.2l2.1,.3h.1l2.1,.3l2.2,.5c35.2,7.4,59,40.1,55.1,75.9l-.3,2.1v.1c-5.3,36.4,-37.7,62.4,-74.5,59.6l-2.2,-.2l-2.2,-.3Zm2.2,19.7l2.2,.2l2.2,.1h2.2c46.6,.6,85.6,-34.7,89.8,-81.1v-.2l.2,-2.2c2.8,-47.5,-31.8,-88.7,-79.1,-94l-1.9,-.2h-.2l-2.2,-.2L549,615c-46.7,-1.7,-86.6,32.7,-91.8,79.1l-.2,2v.2c-4.1,47.4,29.6,89.4,76.6,95.9l2.2,.3l2,.2h.2Z" class="g5_350"/>
<g clip-path="url(#c0_350)">
<path d="M537.8,792.7l-2,-.2l-2.2,-.3l-2.2,-.3c-46,-7.5,-78.4,-49,-74.4,-95.6v-.2l.2,-2c5.3,-47.2,46.5,-81.8,94,-79l2.2,.2h.2l1.9,.2l2.2,.2c46.3,6.4,79.7,47.1,76.9,93.8l-.2,2.2v.2c-4.3,47.2,-44.5,82.8,-92,81.1l-2.2,-.1l-2.2,-.2h-.2Zm-12.9,17.7l2.2,.4l2.2,.4l2.1,.3c56.7,7.4,109.1,-30,120.5,-85.8l.2,-.9l.4,-2.2C662.4,665.1,625.5,610.5,568.7,598l-1.4,-.2l-.8,-.2l-2.2,-.4l-2.2,-.4C505.3,588.2,452,625,439.7,681l-.2,1.3l-.2,.9c-11.1,57.2,24.7,112.6,81.2,126.3l2.2,.5l1.3,.2l.9,.2Z" class="g6_350"/>
<path d="M524,810.2l-1.3,-.3l-2.2,-.4l-2.2,-.6c-55.4,-14.6,-89.9,-69.3,-79,-125.7l.2,-.9l.2,-1.3c12.5,-56.8,67.1,-93.7,124.6,-83.8l2.2,.4l.8,.2l1.4,.2l2.2,.5c55.7,13.4,91.4,67.5,81.6,124.1l-.4,2.2l-.2,.9c-11.6,56.6,-65.3,94.1,-122.6,85.5l-2.2,-.4l-2.2,-.4l-.9,-.2Zm-47.3,1.3l1.4,.9H613.3l1.4,-.9c15.4,-9.9,28.6,-23.1,38.5,-38.5l.9,-1.4V636.4l-.9,-1.4c-9.9,-15.5,-23.1,-28.7,-38.5,-38.6l-1.4,-.8H478.1l-1.4,.8C461.2,606.3,448,619.5,438.1,635l-.8,1.4V771.6l.8,1.4c9.5,14.8,22,27.5,36.6,37.2l2,1.3Z" class="g7_350"/>
</g>
<path d="M478.1,812.4H446.2c-3.1,-2.8,-6.1,-5.8,-8.9,-8.9V771.6l.8,1.4c9.9,15.4,23.1,28.6,38.6,38.5l1.4,.9Z" class="ge_350"/>
<path d="M645.2,812.4H613.3l1.4,-.9c15.4,-9.9,28.6,-23.1,38.5,-38.5l.9,-1.4v31.9c-2.8,3,-5.7,5.9,-8.7,8.8l-.2,.1Z" class="ge_350"/>
<path d="M437.3,636.4V604.5c2.8,-3.1,5.8,-6.1,8.9,-8.9h31.9l-1.4,.8C461.2,606.3,448,619.5,438.1,635l-.8,1.4Z" class="ge_350"/>
<path d="M654.1,636.4l-.9,-1.4c-9.9,-15.5,-23.1,-28.7,-38.5,-38.6l-1.4,-.8h31.9c3.1,2.8,6.1,5.8,8.9,8.9v31.9Z" class="ge_350"/>
<path d="M467.9,815.3h.7v-2.9h-.7Z" class="g9_350"/>
<path d="M459.2,822.1h5.1v-.7h-5.1Z" class="g9_350"/>
<path d="M466.2,823.6h1.3v-4.5l-1.4,.3v-.7l1.4,-.3h.8v5.2h1.3v.7h-3.4v-.7Z" class="g9_350"/>
<path d="M471.2,824.3h.9v-1h-.9Z" class="g9_350"/>
<path d="M475.5,818.3c.7,0,1.2,.2,1.6,.8c.3,.5,.5,1.2,.5,2.3c0,.9,-.2,1.7,-.5,2.2c-.4,.6,-.9,.8,-1.6,.8c-.6,0,-1.1,-.2,-1.5,-.8c-.3,-.5,-.5,-1.3,-.5,-2.2c0,-1.1,.2,-1.8,.5,-2.3c.4,-.6,.9,-.8,1.5,-.8Zm0,.6c-.4,0,-.7,.2,-.9,.6c-.2,.4,-.3,1,-.3,1.9c0,.8,.1,1.4,.3,1.8c.2,.4,.5,.6,.9,.6c.5,0,.8,-.2,1,-.6c.2,-.4,.3,-1,.3,-1.8c0,-.9,-.1,-1.5,-.3,-1.9c-.2,-.4,-.5,-.6,-1,-.6Z" class="g9_350"/>
<path d="M506.6,815.3h.7v-2.9h-.7Z" class="g9_350"/>
<path d="M497.9,822.1H503v-.7h-5.1Z" class="g9_350"/>
<path d="M506.5,818.3c.7,0,1.2,.2,1.5,.8c.4,.5,.5,1.2,.5,2.3c0,.9,-.1,1.7,-.5,2.2c-.3,.6,-.8,.8,-1.5,.8c-.7,0,-1.2,-.2,-1.5,-.8c-.4,-.5,-.6,-1.3,-.6,-2.2c0,-1.1,.2,-1.8,.6,-2.3c.3,-.6,.8,-.8,1.5,-.8Zm0,.6c-.4,0,-.7,.2,-.9,.6c-.3,.4,-.4,1,-.4,1.9c0,.8,.1,1.4,.4,1.8c.2,.4,.5,.6,.9,.6c.4,0,.7,-.2,.9,-.6c.2,-.4,.3,-1,.3,-1.8c0,-.9,-.1,-1.5,-.3,-1.9c-.2,-.4,-.5,-.6,-.9,-.6Z" class="g9_350"/>
<path d="M510,824.3h.8v-1H510Z" class="g9_350"/>
<path d="M512.5,818.4h3.2v.6h-2.4v1.5l.3,-.1h.4c.6,0,1.2,.2,1.6,.5c.4,.4,.5,.9,.5,1.5c0,.6,-.2,1.1,-.6,1.5c-.4,.4,-.9,.5,-1.6,.5c-.3,0,-.5,0,-.8,0c-.3,-.1,-.5,-.1,-.8,-.2v-.8c.2,.1,.5,.2,.7,.3c.3,0,.6,.1,.8,.1c.5,0,.9,-.2,1.1,-.4c.3,-.3,.4,-.6,.4,-1c0,-.4,-.1,-.7,-.4,-1c-.2,-.2,-.6,-.3,-1.1,-.3c-.2,0,-.4,0,-.6,0c-.2,.1,-.4,.2,-.7,.3v-3Z" class="g9_350"/>
<path d="M545.3,815.3h.8v-2.9h-.8Z" class="g9_350"/>
<path d="M541.8,818.3c.7,0,1.2,.2,1.5,.8c.4,.5,.6,1.2,.6,2.3c0,.9,-.2,1.7,-.6,2.2c-.3,.6,-.8,.8,-1.5,.8c-.7,0,-1.2,-.2,-1.5,-.8c-.4,-.5,-.6,-1.3,-.6,-2.2c0,-1.1,.2,-1.8,.6,-2.3c.3,-.6,.8,-.8,1.5,-.8Zm0,.6c-.4,0,-.7,.2,-.9,.6c-.2,.4,-.3,1,-.3,1.9c0,.8,.1,1.4,.3,1.8c.2,.4,.5,.6,.9,.6c.4,0,.7,-.2,.9,-.6c.2,-.4,.3,-1,.3,-1.8c0,-.9,-.1,-1.5,-.3,-1.9c-.2,-.4,-.5,-.6,-.9,-.6Z" class="g9_350"/>
<path d="M545.3,824.3h.8v-1h-.8Z" class="g9_350"/>
<path d="M549.6,818.3c.6,0,1.1,.2,1.5,.8c.3,.5,.5,1.2,.5,2.3c0,.9,-.2,1.7,-.5,2.2c-.4,.6,-.9,.8,-1.5,.8c-.7,0,-1.2,-.2,-1.6,-.8c-.3,-.5,-.5,-1.3,-.5,-2.2c0,-1.1,.2,-1.8,.5,-2.3c.4,-.6,.9,-.8,1.6,-.8Zm0,.6c-.4,0,-.8,.2,-1,.6c-.2,.4,-.3,1,-.3,1.9c0,.8,.1,1.4,.3,1.8c.2,.4,.6,.6,1,.6c.4,0,.7,-.2,.9,-.6c.2,-.4,.3,-1,.3,-1.8c0,-.9,-.1,-1.5,-.3,-1.9c-.2,-.4,-.5,-.6,-.9,-.6Z" class="g9_350"/>
<path d="M584,815.3h.8v-2.9H584Z" class="g9_350"/>
<path d="M580.5,818.3c.7,0,1.2,.2,1.5,.8c.4,.5,.6,1.2,.6,2.3c0,.9,-.2,1.7,-.6,2.2c-.3,.6,-.8,.8,-1.5,.8c-.6,0,-1.2,-.2,-1.5,-.8c-.4,-.5,-.5,-1.3,-.5,-2.2c0,-1.1,.1,-1.8,.5,-2.3c.3,-.6,.9,-.8,1.5,-.8Zm0,.6c-.4,0,-.7,.2,-.9,.6c-.2,.4,-.3,1,-.3,1.9c0,.8,.1,1.4,.3,1.8c.2,.4,.5,.6,.9,.6c.4,0,.7,-.2,1,-.6c.2,-.4,.3,-1,.3,-1.8c0,-.9,-.1,-1.5,-.3,-1.9c-.3,-.4,-.6,-.6,-1,-.6Z" class="g9_350"/>
<path d="M584,824.3h.8v-1H584Z" class="g9_350"/>
<path d="M586.6,818.4h3.1v.6h-2.4v1.5l.4,-.1h.3c.7,0,1.2,.2,1.6,.5c.4,.4,.6,.9,.6,1.5c0,.6,-.2,1.1,-.6,1.5c-.4,.4,-1,.5,-1.7,.5c-.3,0,-.5,0,-.8,0c-.2,-.1,-.5,-.1,-.8,-.2v-.8c.3,.1,.5,.2,.8,.3c.2,0,.5,.1,.8,.1c.4,0,.8,-.2,1.1,-.4c.2,-.3,.4,-.6,.4,-1c0,-.4,-.2,-.7,-.4,-1c-.3,-.2,-.7,-.3,-1.1,-.3c-.2,0,-.4,0,-.7,0c-.2,.1,-.4,.2,-.6,.3v-3Z" class="g9_350"/>
<path d="M622.8,815.3h.7v-2.9h-.7Z" class="g9_350"/>
<path d="M617.7,823.6H619v-4.5l-1.5,.3v-.7l1.5,-.3h.8v5.2h1.3v.7h-3.4v-.7Z" class="g9_350"/>
<path d="M622.7,824.3h.9v-1h-.9Z" class="g9_350"/>
<path d="M627,818.3c.7,0,1.2,.2,1.5,.8c.4,.5,.6,1.2,.6,2.3c0,.9,-.2,1.7,-.6,2.2c-.3,.6,-.8,.8,-1.5,.8c-.6,0,-1.2,-.2,-1.5,-.8c-.4,-.5,-.5,-1.3,-.5,-2.2c0,-1.1,.1,-1.8,.5,-2.3c.3,-.6,.9,-.8,1.5,-.8Zm0,.6c-.4,0,-.7,.2,-.9,.6c-.2,.4,-.3,1,-.3,1.9c0,.8,.1,1.4,.3,1.8c.2,.4,.5,.6,.9,.6c.4,0,.7,-.2,1,-.6c.2,-.4,.3,-1,.3,-1.8c0,-.9,-.1,-1.5,-.3,-1.9c-.3,-.4,-.6,-.6,-1,-.6Z" class="g9_350"/>
<path d="M434.4,781.8h2.9v-.7h-2.9Z" class="g9_350"/>
<path d="M412.6,782.3h5.1v-.7h-5.1Z" class="g9_350"/>
<path d="M419.6,783.9h1.3v-4.6l-1.4,.3v-.7l1.4,-.3h.8v5.3H423v.6h-3.4v-.6Z" class="g9_350"/>
<path d="M424.7,784.5h.8v-1h-.8Z" class="g9_350"/>
<path d="M429,778.5c.6,0,1.1,.2,1.5,.8c.3,.5,.5,1.3,.5,2.3c0,1,-.2,1.7,-.5,2.3c-.4,.5,-.9,.7,-1.5,.7c-.7,0,-1.2,-.2,-1.6,-.7c-.3,-.6,-.5,-1.3,-.5,-2.3c0,-1,.2,-1.8,.5,-2.3c.4,-.6,.9,-.8,1.6,-.8Zm0,.6c-.5,0,-.8,.2,-1,.6c-.2,.4,-.3,1.1,-.3,1.9c0,.8,.1,1.4,.3,1.8c.2,.4,.5,.6,1,.6c.4,0,.7,-.2,.9,-.6c.2,-.4,.3,-1,.3,-1.8c0,-.8,-.1,-1.5,-.3,-1.9c-.2,-.4,-.5,-.6,-.9,-.6Z" class="g9_350"/>
<path d="M434.4,743.1h2.9v-.8h-2.9Z" class="g9_350"/>
<path d="M412.6,743.6h5.1v-.7h-5.1Z" class="g9_350"/>
<path d="M421.2,739.8c.7,0,1.2,.2,1.5,.8c.4,.5,.5,1.2,.5,2.2c0,1,-.1,1.8,-.5,2.3c-.3,.6,-.8,.8,-1.5,.8c-.7,0,-1.2,-.2,-1.5,-.8c-.4,-.5,-.6,-1.3,-.6,-2.3c0,-1,.2,-1.7,.6,-2.2c.3,-.6,.8,-.8,1.5,-.8Zm0,.6c-.4,0,-.7,.2,-.9,.6c-.3,.4,-.4,1,-.4,1.8c0,.9,.1,1.5,.4,1.9c.2,.4,.5,.6,.9,.6c.4,0,.7,-.2,.9,-.6c.2,-.4,.3,-1,.3,-1.9c0,-.8,-.1,-1.4,-.3,-1.8c-.2,-.4,-.5,-.6,-.9,-.6Z" class="g9_350"/>
<path d="M424.7,745.8h.8v-1h-.8Z" class="g9_350"/>
<path d="M427.2,739.9h3.2v.6H428V742l.3,-.1h.4c.6,0,1.2,.2,1.6,.5c.3,.4,.5,.9,.5,1.5c0,.6,-.2,1.1,-.6,1.5c-.4,.3,-.9,.5,-1.6,.5c-.3,0,-.5,0,-.8,0c-.3,-.1,-.5,-.1,-.8,-.2v-.8c.2,.1,.5,.2,.7,.3c.3,0,.6,0,.8,0c.5,0,.9,-.1,1.1,-.3c.3,-.3,.4,-.6,.4,-1c0,-.4,-.1,-.7,-.4,-1c-.2,-.2,-.6,-.3,-1.1,-.3c-.2,0,-.4,0,-.6,0c-.2,.1,-.4,.2,-.7,.3v-3Z" class="g9_350"/>
<path d="M434.4,704.4h2.9v-.8h-2.9Z" class="g9_350"/>
<path d="M421.2,701c.6,0,1.2,.3,1.5,.8c.4,.6,.5,1.3,.5,2.3c0,1,-.1,1.8,-.5,2.3c-.3,.5,-.9,.8,-1.5,.8c-.7,0,-1.2,-.3,-1.5,-.8c-.4,-.5,-.6,-1.3,-.6,-2.3c0,-1,.2,-1.7,.6,-2.3c.3,-.5,.8,-.8,1.5,-.8Zm0,.7c-.4,0,-.7,.2,-.9,.6c-.3,.4,-.4,1,-.4,1.8c0,.8,.1,1.4,.4,1.9c.2,.4,.5,.6,.9,.6c.4,0,.7,-.2,.9,-.6c.2,-.5,.3,-1.1,.3,-1.9c0,-.8,-.1,-1.4,-.3,-1.8c-.2,-.4,-.5,-.6,-.9,-.6Z" class="g9_350"/>
<path d="M424.7,707.1h.8v-1h-.8Z" class="g9_350"/>
<path d="M429,701c.6,0,1.1,.3,1.5,.8c.3,.6,.5,1.3,.5,2.3c0,1,-.2,1.8,-.5,2.3c-.4,.5,-.9,.8,-1.5,.8c-.7,0,-1.2,-.3,-1.6,-.8c-.3,-.5,-.5,-1.3,-.5,-2.3c0,-1,.2,-1.7,.5,-2.3c.4,-.5,.9,-.8,1.6,-.8Zm0,.7c-.5,0,-.8,.2,-1,.6c-.2,.4,-.3,1,-.3,1.8c0,.8,.1,1.4,.3,1.9c.2,.4,.5,.6,1,.6c.4,0,.7,-.2,.9,-.6c.2,-.5,.3,-1.1,.3,-1.9c0,-.8,-.1,-1.4,-.3,-1.8c-.2,-.4,-.5,-.6,-.9,-.6Z" class="g9_350"/>
<path d="M434.4,665.6h2.9v-.7h-2.9Z" class="g9_350"/>
<path d="M421.2,662.3c.6,0,1.2,.3,1.5,.8c.4,.5,.5,1.3,.5,2.3c0,1,-.1,1.8,-.5,2.3c-.3,.5,-.9,.8,-1.5,.8c-.7,0,-1.2,-.3,-1.5,-.8c-.4,-.5,-.6,-1.3,-.6,-2.3c0,-1,.2,-1.8,.6,-2.3c.3,-.5,.8,-.8,1.5,-.8Zm0,.7c-.4,0,-.7,.2,-.9,.6c-.3,.4,-.4,1,-.4,1.8c0,.8,.1,1.4,.4,1.8c.2,.4,.5,.6,.9,.6c.4,0,.7,-.2,.9,-.6c.2,-.4,.3,-1,.3,-1.8c0,-.8,-.1,-1.4,-.3,-1.8c-.2,-.4,-.5,-.6,-.9,-.6Z" class="g9_350"/>
<path d="M424.7,668.4h.8v-1h-.8Z" class="g9_350"/>
<path d="M427.3,662.4h3.1v.7H428v1.5l.3,-.1l.4,-.1c.6,0,1.2,.2,1.6,.6c.4,.3,.5,.8,.5,1.5c0,.6,-.2,1.1,-.6,1.4c-.4,.4,-.9,.6,-1.6,.6c-.3,0,-.5,0,-.8,-.1c-.3,0,-.5,-.1,-.8,-.2v-.8c.2,.1,.5,.2,.7,.3c.3,.1,.6,.1,.8,.1c.5,0,.9,-.1,1.1,-.4c.3,-.2,.4,-.5,.4,-.9c0,-.5,-.1,-.8,-.4,-1c-.2,-.3,-.6,-.4,-1.1,-.4c-.2,0,-.4,0,-.6,.1c-.2,0,-.4,.1,-.6,.2v-3Z" class="g9_350"/>
<path d="M434.4,626.9h2.9v-.7h-2.9Z" class="g9_350"/>
<path d="M419.6,629h1.3v-4.6l-1.4,.3V624l1.4,-.3h.8V629H423v.6h-3.4V629Z" class="g9_350"/>
<path d="M424.7,629.6h.8v-1h-.8Z" class="g9_350"/>
<path d="M429,623.6c.6,0,1.1,.3,1.5,.8c.3,.5,.5,1.3,.5,2.3c0,1,-.2,1.7,-.5,2.3c-.4,.5,-.9,.8,-1.5,.8c-.7,0,-1.2,-.3,-1.6,-.8c-.3,-.6,-.5,-1.3,-.5,-2.3c0,-1,.2,-1.8,.5,-2.3c.4,-.5,.9,-.8,1.6,-.8Zm0,.6c-.5,0,-.8,.2,-1,.6c-.2,.4,-.3,1.1,-.3,1.9c0,.8,.1,1.4,.3,1.8c.2,.4,.5,.6,1,.6c.4,0,.7,-.2,.9,-.6c.2,-.4,.3,-1,.3,-1.8c0,-.8,-.1,-1.5,-.3,-1.9c-.2,-.4,-.5,-.6,-.9,-.6Z" class="g9_350"/>
<path d="M540.2,714.2l.2,-.3l-.6,-.4l-1.5,-1.1c-9,-8.2,-1,-22.3,10.6,-19.2l2.1,.9l.6,.3c10,6.6,4.8,21.6,-7,20.8l-2.1,-.4l-2.1,-.9l-.2,.3l.2,-.3l-.2,.3l-.1,.4l2.2,.9c13.9,3.5,21.6,-14.7,9.1,-22.1h-.1l-2.2,-.9c-13.5,-3.6,-21.5,13.9,-9.7,21.7l.6,.4h.1l.1,-.4Z" class="gb_350"/>
<path d="M538.1,733.6l-1.5,-.4L536,733c-9.1,-3,-16.3,-10.2,-19.3,-19.3l-.2,-.6l-.5,-1.5c-1.2,-5,-1.2,-10.2,0,-15.2l.5,-1.5l.2,-.6c3,-9.1,10.2,-16.3,19.3,-19.3l.6,-.2l1.5,-.5c5,-1.2,10.2,-1.2,15.2,0l1.5,.5l.6,.2c9.1,3,16.3,10.2,19.3,19.3l.2,.6l.4,1.5c1.3,5,1.3,10.2,0,15.2l-.4,1.5l-.2,.6c-3,9.1,-10.2,16.3,-19.3,19.3l-.6,.2l-1.5,.4c-4.3,1.1,-8.7,1.3,-13,.5l-2.2,-.5l-.2,.8l2.2,.5h.1c38.9,5.4,51.8,-47.8,14.8,-60.8l-1.5,-.5c-39.9,-8.3,-55.4,46.6,-17.1,60.3l1.5,.5l.2,-.8Z" class="gb_350"/>
<path d="M535.9,753l-2.2,-.5l-2.1,-.6l-3.5,-1.2c-22.2,-8.3,-35.4,-31,-31.8,-54.3l.5,-2.6l.4,-1.8c6,-24.3,29,-40.4,53.9,-37.7l2.2,.3l2.5,.5l1.8,.4c59.9,17.2,44.9,102.5,-17.3,98.2l-2.2,-.3l-2.2,-.4l-.1,.7l2.2,.4l2.2,.3c25.2,2.7,48.6,-13.5,54.7,-38.3l.4,-1.8c5.4,-25.8,-9.9,-51.5,-35.3,-59l-2.2,-.6l-1.8,-.4c-25.8,-5.3,-51.5,10,-59,35.4l-.6,2.1v.1c-6.4,26.3,8.9,53,35,60.7l2.1,.6h.1l2.1,.5l.2,-.7Z" class="gb_350"/>
<path d="M535.8,773l.2,-1.1c-2.9,-.4,-5.8,-1,-8.6,-1.8l-1.3,-.4l-.9,-.2l-2.2,-.7l-2.1,-.8l-.9,-.4l-1.3,-.5l-2.1,-1l-1.4,-.7l-.8,-.3c-5.5,-2.9,-10.5,-6.4,-15.1,-10.5l-2.1,-2.1l-.8,.8l.8,-.7c-5.1,-5.1,-9.3,-11,-12.6,-17.4l-.4,-.7l-.6,-1.4l-1,-2.2l-.5,-1.2l-.4,-.9l-.8,-2.2l-.7,-2.1l-.3,-1l-.3,-1.2c-.8,-2.8,-1.4,-5.7,-1.8,-8.6v-.1l-1.1,.2l1.1,-.1l-.3,-2.2c-.6,-5,-.6,-10,0,-15.1l.3,-2.1l-1.1,-.2l1.1,.2c.4,-2.9,1,-5.8,1.8,-8.6l.3,-1.2l.3,-1l.7,-2.1l.8,-2.2l.4,-.9l.5,-1.3l1,-2.1l.6,-1.4l.4,-.8c3.3,-6.4,7.5,-12.2,12.6,-17.3l-.8,-.7l.8,.8l2.1,-2.1c4.6,-4.1,9.6,-7.7,15.1,-10.5l.8,-.4v.1l1.4,-.7l2.1,-1l1.3,-.5l.9,-.4l2.1,-.8l2.2,-.7l.9,-.3l1.3,-.3c11.9,-3.3,24.6,-3.3,36.6,0l1.2,.3l1,.3l2.1,.7l2.2,.8l.9,.4l1.2,.5l2.2,1l1.4,.7v-.1l.7,.4c5.5,2.8,10.6,6.4,15.1,10.5l2.2,2.1l.8,-.8l-.9,.7c3.9,3.9,7.4,8.3,10.2,13l.7,1.1l.6,1.1l1.2,2.1l.3,.8l.7,1.4l1,2.1l.5,1.3l.4,.9l.7,2.2l.8,2.1l.2,1v-.1l.4,1.3l.6,2.1l.4,2.2l.5,2.1l.3,2.2l.3,2.1c.5,5.1,.5,10.1,0,15.1l-.3,2.2l-.3,2.1l-.5,2.2l-.4,2.2l-.6,2.1l-.4,1.2l-.2,1l-.8,2.1l-.7,2.2l-.4,.9l-.5,1.2l-1,2.2l-.7,1.4l-.3,.7l-1.2,2.2l-.6,1.1l-.7,1.1c-2.8,4.7,-6.3,9.1,-10.2,13l.9,.7l-.8,-.8l-2.2,2.1c-4.5,4.1,-9.6,7.6,-15.1,10.5l-.7,.3l-1.4,.7l-2.2,1l-1.2,.5l-.9,.4l-2.2,.8l-2.1,.7l-1,.2l-1.2,.4c-8.4,2.3,-17.2,3,-25.9,2.1l-2.1,-.3l-.2,1.1l.2,-1.1l-.2,1.1l-.1,1.1l2.2,.3c5.9,.6,11.9,.5,17.8,-.3l2.2,-.4c14.4,-2.5,27.6,-9.4,37.9,-19.7l-.8,-.7l.8,.7l2.1,-2.2c24.8,-27.1,24.8,-68.5,0,-95.7l-2.1,-2.2l-.8,.8l.8,-.7C585.5,643.7,572.2,636.8,557.9,634.3l-2.2,-.4c-6.6,-1,-13.4,-1,-20.1,0l-2.1,.4c-14.4,2.5,-27.7,9.4,-37.9,19.7l.8,.7l-.8,-.8l-2.1,2.2c-24.8,27.2,-24.8,68.6,0,95.7l2.1,2.2l.8,-.7l-.8,.7c10.3,10.3,23.5,17.2,37.9,19.7l2.1,.4h.1l.1,-1.1Z" class="g9_350"/>
<path d="M538.1,792.3l-4.4,-.4l-4.4,-.7l-4.6,-1.1c-40.9,-10,-69.2,-47.2,-67.6,-89.4l.3,-4.6l.4,-4.1c6,-43.5,42.8,-76.1,86.8,-76.7l4.4,.1l4.5,.3l4.2,.4l4.3,.7c41.6,7.9,71.8,43.8,72.4,86.1l-.1,4.4l-.3,4.5c-3.9,43.7,-39,78,-82.9,80.7l-4.3,.2l-4.4,-.1l-4.4,-.3v.8l4.4,.3h4.4c46,-.6,83.9,-35.7,88,-81.5l.3,-4.6c1.6,-46,-31.8,-85.7,-77.3,-91.9l-4.2,-.5l-4.6,-.3c-46,-1.6,-85.7,31.7,-91.9,77.3l-.5,4.2c-4.1,45.9,27.4,87.3,72.6,95.8l4.4,.7l4.4,.5l.1,-.8Z" class="gb_350"/>
<path d="M524.9,810.4l.1,-.4l-.9,-.1c-8.8,-1.8,-17.3,-4.7,-25.3,-8.6l-.4,-.2l-1.8,-.9l-2.2,-1.1l-.3,-.2l-1.9,-1l-1.9,-1.1l-.3,-.2l-2.2,-1.4l-1,-.6l-1.1,-.8l-2.1,-1.4l-.1,-.1l-2.2,-1.5l-.7,-.6l-.3,.3l.3,-.3l-1.5,-1.1c-3.8,-3,-7.5,-6.3,-10.9,-9.8l-2.1,-2.2L466,777l-1.8,-2.1l-.4,-.4l-.3,.3l.3,-.3l-1.5,-1.8l-.7,-.8l-.2,.2l.3,-.2l-1.1,-1.3l-1.1,-1.5l-.6,-.7l-1.6,-2.2v-.1L455.8,764l-.7,-1.1l-.7,-1.1l-1.3,-2.2l-.2,-.2l-.3,.2l.3,-.2l-1.1,-1.9l-1.1,-2l-.1,-.2l-1.2,-2.2l-.9,-1.8h.1l-.2,-.4l-1.1,-2.2l-.9,-2.1v-.1l-.9,-2.1l-.9,-2.2l-.4,-1.2l-.4,-1l-.7,-2.2l-.7,-2.2l-.4,-1.2l-.3,-.9l-.6,-2.2l-.5,-2.2l-.5,-2.2l-.3,-1.3l-.2,-.9c-2.6,-13.6,-2.6,-27.8,0,-41.4l.2,-.9l.3,-1.3l.5,-2.2l.5,-2.2l.6,-2.2l.3,-.9l.4,-1.3l.7,-2.1l.7,-2.2l.4,-1l.4,-1.2c1.1,-3,2.4,-5.9,3.8,-8.7l.2,-.4h-.1l.9,-1.8l1.2,-2.2l.1,-.3l-.3,-.1l.3,.1l1.1,-1.9l1.1,-1.9l-.3,-.2l.3,.2l.2,-.3l1.3,-2.2l.7,-1l.7,-1.1l1.5,-2.1v-.1l1.6,-2.2l.6,-.7l1.1,-1.5l1.1,-1.3l-.3,-.3l.2,.3l.7,-.9L462,635l.3,.2l1.5,-1.7l-.3,-.3l.3,.3l.4,-.4L466,631l-.3,-.2l.3,.2l.1,-.1l-.2,-.3l.2,.3l2.1,-2.2c2.1,-2.2,4.3,-4.2,6.5,-6.2l.5,-.4l-.3,-.3l.3,.3l1.7,-1.5l.9,-.6l-.3,-.3l.3,.3l1.3,-1.1l1.5,-1.1l-.3,-.3l.3,.3l.7,-.6l2.2,-1.6h.1l2.1,-1.4l1.1,-.8l1,-.7l2.2,-1.3l.3,-.2l1.9,-1.1l1.9,-1.1l.3,-.1l2.2,-1.1l1.8,-.9l.4,-.2c7.6,-3.7,15.7,-6.5,24,-8.3l1.3,-.3l.9,-.1c18.9,-3.8,38.5,-2.3,56.7,4.1l1,.4l1.2,.4c2.9,1.1,5.9,2.4,8.7,3.8l.4,.2l1.8,.9l2.2,1.1l.2,.1l2,1.1l1.9,1.1l.2,.2l2.2,1.3l1.1,.7l1.1,.8l2.1,1.4h.1l.2,-.3l-.2,.3l2.2,1.6l.7,.6l1.5,1.1l1.3,1.1l.2,-.3l-.2,.3l.8,.6l1.8,1.5l.4,.4l2.1,1.8l.1,.1l2.2,2.1l.2,-.3l-.2,.3c2.8,2.8,5.5,5.7,8,8.7l.7,.9l.3,-.3l-.3,.3l1.1,1.3l1.1,1.5l.5,.7l1.6,2.2l.1,.1l1.4,2.1l.8,1.1l.6,1l1.4,2.2l.3,-.2l-.3,.2l.2,.3l1.1,1.9l1,1.9l.4,-.1l-.4,.1l.2,.3l1.1,2.2l.9,1.8l.2,.4l.4,-.2l-.4,.2l1,2.1c1,2.2,1.9,4.4,2.8,6.6l.4,1.2l.4,1l.7,2.2l.7,2.1l.4,1.3l.2,.9c3.7,12.8,4.9,26.1,3.7,39.3l-.2,2.2h.3h-.3l-.3,2.2c-.7,5.1,-1.7,10.3,-3.2,15.3l-.2,.9l-.4,1.2l-.7,2.2l-.7,2.2l-.4,1l-.4,1.2l.3,.1l-.3,-.1l-.9,2.2l-.9,2.1v.1l-1,2.1l-1,2.2l.4,.2l-.4,-.2l-.2,.4l-.9,1.8l-1.1,2.2l-.2,.2l-1,2l-1.1,1.9l.3,.2l-.3,-.2l-.2,.3l.3,.1l-.3,-.2l-1.4,2.2l-.6,1.1l-.8,1.1l-1.4,2.1l-.1,.1l-1.6,2.2l-.5,.7l-1.1,1.5l-1.1,1.3l-.7,.8l-1.5,1.8l.3,.3l-.3,-.3l-.3,.4l-1.8,2.1l-.2,.1l.3,.3l-.3,-.3l-2,2.2l-2.2,2.2l.2,.3l-.2,-.3l-2.2,2l-.1,.2l.2,.2l-.2,-.2l-2.1,1.8l-.4,.3l.3,.3l-.3,-.3l-1.8,1.5l.3,.3l-.3,-.3l-.8,.7l.2,.3l-.2,-.3l-1.3,1.1l-1.5,1.1l.2,.3l-.2,-.3l-.7,.6l-2.2,1.5l.2,.3l-.2,-.3l-.1,.1l.2,.3l-.2,-.3l-2.1,1.4l-1.1,.8l-1.1,.6l-2.2,1.4l-.2,.2l-1.9,1.1c-21.8,12.4,-47.3,16.9,-72.1,12.5l-2.2,-.4v.4l.1,-.4l-.1,.4l-.1,.4l2.2,.4c41.6,7.2,83.4,-10.2,107.7,-44.6v-.1l1.5,-2.1C673.4,708.2,651.7,632.9,590.7,605l-2.1,-1h-.1c-27.3,-11.7,-58.3,-11.7,-85.7,0l-2.2,1c-26.1,11.8,-46.5,33.6,-56.7,60.5l-.4,1.2l-.4,1c-22,63,16.5,130.1,81.7,143.1l.1,-.4Z" class="gb_350"/>
<path d="M478.3,812.1l-1.4,-.9l-2,-1.3l-.2,-.1l-2.2,-1.5l-.8,-.6l-1.4,-1l-1.6,-1.2l-.5,-.4L466,803.4h-.1l-2.1,-1.8l-.5,-.4l-.2,.3l.2,-.3l-1.7,-1.5c-1.9,-1.6,-3.7,-3.3,-5.5,-5.1l-1,-1.1l-.3,.3l.3,-.3L454,792.4l-1.1,-1.1l-1,-1l-.3,.2l.3,-.2l-1.2,-1.4c-2.1,-2.4,-4.2,-4.8,-6.1,-7.4l-.5,-.6l-1.2,-1.6l-1,-1.3l-.5,-.8L439.9,775l-.1,-.2l-1.4,-2l-.8,-1.4l-.7,.4l.9,1.4c1.9,3,4,5.9,6.2,8.8l1.7,2.2c8.7,10.8,19.1,20.2,30.8,27.7l1.4,.8l.4,-.6Z" class="gb_350"/>
<path d="M653.8,771.4l-.9,1.4l-1.3,2l-.1,.2l-1.5,2.2l-.6,.8l-1,1.3l.3,.3l-.3,-.3l-1.2,1.6l-.4,.6l-1.7,2.2l-1.8,2.2l.3,.2l-.3,-.2l-.4,.5l.3,.2l-.3,-.2l-1.5,1.7l-.7,.8l-1.3,1.4l.3,.2l-.3,-.2l-.9,1l.3,.2l-.3,-.2l-1.1,1.1l.3,.3l-.3,-.3l-1.1,1.1l-1.1,1.1l.3,.3l-.3,-.3l-1.1,1.1l.3,.3l-.3,-.3l-1.1,1.1l-1,.9l-1.4,1.3l-.8,.7l.2,.3l-.2,-.3l-1.7,1.5l.2,.3l-.2,-.3l-.5,.4l.2,.3l-.2,-.3l-2.2,1.8l-2.2,1.7l.2,.3l-.2,-.3l-.6,.4l-1.6,1.2l-1.3,1l-.9,.6l-2.1,1.5l-.2,.1l-2,1.3l-1.4,.9l.4,.6l1.4,-.8c7.5,-4.9,14.5,-10.5,20.9,-16.7l1.1,-1.1c2.4,-2.5,4.7,-5.1,7,-7.7l1.7,-2.2h.1c2.3,-2.9,4.5,-5.9,6.5,-9l1.4,-2l.8,-1.4l-.6,-.4Z" class="gb_350"/>
<path d="M437.6,636.6l.8,-1.4l1.4,-2l.1,-.2l1.5,-2.2l.5,-.8l1,-1.4l1.2,-1.6v.1l.5,-.6c1.2,-1.7,2.6,-3.3,3.9,-4.9l1.5,-1.7l-.3,-.2l.3,.2l.7,-.8l-.3,-.3l.3,.3l1.2,-1.4l1,-1l1.1,-1.2l-.3,-.2l.3,.2l1.1,-1.1l-.3,-.2l.3,.2l1,-1c1.8,-1.8,3.6,-3.5,5.5,-5.1l1.7,-1.5l-.2,-.3l.2,.3l.5,-.4l2.1,-1.8h.1l2.2,-1.7l.5,-.5l1.6,-1.1l1.4,-1l.8,-.6l2.2,-1.5l.2,-.1l2,-1.3l1.4,-.9l-.4,-.7l-1.4,.9l-2,1.3l-.2,.2c-10.8,7.2,-20.4,16,-28.6,26.2L444,626c-2.2,2.8,-4.3,5.8,-6.2,8.8l-.9,1.4l.7,.4Z" class="gb_350"/>
<path d="M613.1,595.9l1.4,.9l2,1.3l.2,.1l2.1,1.5l.9,.6l1.3,.9l1.6,1.2l.6,.5l2.2,1.7l2.2,1.8l.2,-.3l-.2,.3l.5,.4l.2,-.3l-.2,.3l1.7,1.5l.8,.7l1.4,1.2l1,1l.2,-.3l-.2,.3l1.1,1.1l1.1,1.1l1.1,1l1.1,1.1l1.1,1.2l.3,-.2l-.3,.2l.9,1l1.3,1.4l.3,-.3l-.3,.3l.7,.8c1.9,2.1,3.7,4.3,5.4,6.6l.4,.6V627l1.2,1.6l1,1.4l.6,.8l1.5,2.2l.3,-.2l-.3,.2l.1,.2l1.3,2l.9,1.4l.6,-.4l-.8,-1.4C643.6,619.3,630.4,606,614.9,596.1l-1.4,-.9l-.4,.7Z" class="gb_350"/>
<path d="M446.5,812.1l-.2,-.1l-2.2,-2.1l-2.2,-2.1l-.3,.2l.3,-.2l-2.1,-2.2l-.1,-.1l-2,-2.1l-.2,-.2l-.5,.5l.1,.2c2.8,3,5.7,5.9,8.7,8.6l.1,.2l.6,-.6Z" class="gb_350"/>
<path d="M653.8,803.2l-.1,.2l.2,.3l-.2,-.3l-2.1,2.1v.1l-2.1,2.2l.2,.2l-.2,-.2l.2,.2l-.2,-.2l-2.2,2.1l.2,.3l-.2,-.3l-.1,.1l.3,.2l-.3,-.3l-2.1,2.1l-.2,.1l.5,.6l.2,-.2c1.5,-1.3,3,-2.8,4.4,-4.2l2.2,-2.2l2,-2.2l.2,-.2l-.6,-.5Z" class="gb_350"/>
<path d="M437.5,604.8l.2,-.2l2,-2.2h.1l2.1,-2.2l-.3,-.3l.3,.3l-.3,-.3l.3,.3l2.2,-2.1V598l2.2,-2l.2,-.2l-.6,-.5l-.1,.2c-3,2.7,-5.9,5.6,-8.7,8.6l-.1,.2l.5,.5Z" class="gb_350"/>
<path d="M644.9,595.8l.2,.2l2.1,2l.1,.1l2.2,2.1l.2,-.3l-.2,.3l2.1,2.2l2.1,2.2l.2,-.3l-.2,.3l.1,.2l.6,-.5l-.2,-.2l-2,-2.2L650,599.7c-1.4,-1.5,-2.9,-2.9,-4.4,-4.2l-.2,-.2l-.5,.5Z" class="gb_350"/>
<path d="M529.4,779.1l-1.5,-.3l-.2,1l1.4,.4l.3,-1.1Zm-2.1,-.5l-1.5,-.3l-.2,1l1.4,.4l.3,-1.1Zm-2.1,-.5H525l-1.2,-.4l-.3,1l1.2,.4l.2,.1l.3,-1.1Zm-2,-.6l-1.5,-.5l-.3,1.1l1.4,.4l.4,-1Zm-2.1,-.7l-.4,-.1l-1,-.4l-.4,1.1l1,.3v.1l.5,.1l.3,-1.1Zm-2,-.7l-1.4,-.5l-.4,1l1.4,.5l.4,-1Zm-2,-.8l-.8,-.2l-.6,-.3l-.4,1l.6,.3l.8,.3l.4,-1.1Zm-2,-.8l-.9,-.4l-.4,-.2l-.5,1l.4,.2l1,.4l.4,-1Zm-1.9,-.9l-1.4,-.6l-.5,1l1.4,.6l.5,-1Zm-2,-.9l-1.3,-.7l-.5,1l1.3,.7l.5,-1Zm-1.9,-1L508,771l-.5,.9l1.3,.8l.5,-1Zm-1.8,-1l-1.3,-.8l-.6,1l1.3,.7l.6,-.9Zm-1.9,-1.1l-.2,-.1l-1.1,-.7l-.6,.9l1.2,.8l.1,.1l.6,-1Zm-1.8,-1.1l-.5,-.4l-.7,-.5l-.7,.9l.8,.5v.1l.5,.3l.6,-.9ZM502,767.3l-1.2,-.9l-.6,.9l1.2,.9l.6,-.9ZM500.2,766v0l-1.1,-.9l-.7,.9l1.1,.9h.1l.6,-.9Zm-1.6,-1.3l-1.2,-.9l-.7,.9l1.2,.9l.7,-.9Zm-1.7,-1.3l-.2,-.1l-1,-.9l-.7,.9l1,.8l.1,.1l.1,.1l.7,-.9ZM495.2,762l-.6,-.6l-.5,-.4l-.7,.8l.4,.5h.1l.6,.5l.7,-.8Zm-1.6,-1.4l-1.1,-1l-.7,.8l1.1,1l.7,-.8Zm-1.5,-1.5L491,758l-.8,.8l1.1,1.1l.8,-.8Zm-1.5,-1.5l-.4,-.3l-.7,-.8l-.8,.8l.7,.7l.4,.4l.8,-.8ZM489.1,756l-1,-1.1l-.8,.8l1,1.1l.8,-.8Zm-1.4,-1.6l-1,-1.1l-.8,.7l.9,1.2l.9,-.8Zm-1.4,-1.6l-.4,-.5l-.5,-.7l-.9,.7l.5,.7l.4,.5l.9,-.7ZM485,751.1l-.9,-1.2l-.9,.7l.9,1.2l.9,-.7Zm-1.3,-1.7l-.7,-.8l-.2,-.4l-.9,.6l.2,.4l.7,.9l.9,-.7Zm-1.3,-1.7l-.8,-1.3l-1,.6l.9,1.3l.9,-.6Zm-1.2,-1.8l-.8,-1.3l-.9,.6l.8,1.3l.9,-.6Zm-1.1,-1.8l-.8,-1.3l-.9,.5l.8,1.3l.9,-.5ZM479,742.2l-.1,-.1l-.6,-1.2l-1,.5l.6,1.2l.1,.2l1,-.6Zm-1,-1.9l-.7,-1.3l-1,.5l.7,1.4l1,-.6Zm-1,-1.9l-.4,-.7l-.3,-.6l-1,.5l.3,.6l.4,.7l1,-.5Zm-1,-1.9l-.6,-1.4l-1,.5l.6,1.4l1,-.5Zm-.8,-2l-.6,-1.1v-.2l-1.1,.4l.1,.2l.5,1.2l1.1,-.5Zm-.9,-1.9l-.5,-1.4l-1,.4l.5,1.4l1,-.4Zm-.7,-2l-.6,-1.4l-1,.3l.5,1.5l1.1,-.4Zm-.8,-2l-.4,-1.5l-1.1,.4l.5,1.4l1,-.3Zm-.6,-2.1l-.5,-1.4l-1,.3l.4,1.4l1.1,-.3Zm-.6,-2l-.4,-1.5l-1.1,.3l.4,1.4l1.1,-.2Zm-.5,-2.1l-.4,-1.5l-1.1,.3l.4,1.4l1.1,-.2Zm-.6,-2.1l-.2,-1.5l-1.1,.2l.3,1.5l1,-.2Zm-.4,-2.1l-.2,-1.5l-1.1,.2l.3,1.5l1,-.2Zm-.4,-2.1V716l-.1,-1.4l-1.1,.1l.1,1.4l.1,.2l1,-.2Zm-.2,-2.1l-.2,-1.5l-1.1,.1l.2,1.5l1.1,-.1Zm-.3,-2.2v-.2l-.1,-1.3l-1.1,.1l.1,1.3v.3l1.1,-.2Zm-.2,-2.1l-.1,-1.5l-1.1,.1l.1,1.5l1.1,-.1Zm-.1,-2.2v-.2l-.1,-1.2h-1.1l.1,1.2v.3l1.1,-.1Zm-.1,-2.1v-1.5h-1.1v1.5h1.1Zm0,-2.1v-1.5l-1.1,-.1v1.6h1.1Zm.1,-2.2v-1.5h-1.1v1.5h1.1ZM469,699v-.4l.1,-1.1l-1.1,-.1l-.1,1.1v.4l1.1,.1Zm.1,-2.2l.2,-1.5l-1.1,-.1l-.1,1.5l1,.1Zm.3,-2.1v-.5l.2,-1l-1.1,-.1l-.2,.9v.6l1.1,.1Zm.3,-2.1l.2,-1.5l-1.1,-.2l-.2,1.5l1.1,.2Zm.3,-2.1l.1,-.6l.2,-.9l-1.1,-.2l-.2,.8v.1l-.1,.6l1.1,.2Zm.4,-2.1l.3,-1.5l-1,-.2l-.4,1.4l1.1,.3Zm.5,-2.1l.1,-.8l.2,-.7l-1,-.3l-.2,.7v.1l-.2,.7l1.1,.3Zm.5,-2.1l.4,-1.4l-1,-.3l-.5,1.4l1.1,.3Zm.6,-2.1l.3,-.9l.1,-.5l-1,-.3l-.2,.4l-.3,1l1.1,.3Zm.6,-2l.5,-1.4l-1,-.4l-.5,1.4l1,.4Zm.7,-2l.5,-1.3v-.1l-1,-.5l-.1,.2l-.4,1.3l1,.4Zm.8,-2l.5,-1.4l-1,-.5l-.6,1.4l1.1,.5Zm.8,-2l.6,-1.4l-1.1,-.4l-.5,1.3l1,.5Zm.8,-2l.7,-1.3l-1,-.5l-.7,1.3l1,.5Zm1,-1.9l.6,-1.4l-1,-.5l-.6,1.4l1,.5Zm.9,-2l.1,-.1l.6,-1.2l-.9,-.5l-.7,1.2l-.1,.1l1,.5Zm1.1,-1.8l.7,-1.3l-.9,-.6l-.8,1.3l1,.6Zm1,-1.9l.5,-.7l.3,-.6l-.9,-.6l-.4,.6l-.4,.8l.9,.5Zm1.1,-1.8l.7,-1.1l.1,-.2l-.9,-.6l-.1,.2l-.7,1.1l.9,.6Zm1.2,-1.8l.9,-1.2L482,659l-.9,1.3l.9,.6Zm1.3,-1.8l.4,-.6l.4,-.6l-.8,-.6l-.5,.5l-.4,.7l.9,.6Zm1.2,-1.7l1,-1.2l-.9,-.6l-.9,1.2l.8,.6Zm1.4,-1.7l.5,-.6l.4,-.5l-.9,-.7l-.4,.4v.1l-.5,.6l.9,.7Zm1.3,-1.6l1,-1.2l-.8,-.7l-1,1.2l.8,.7Zm1.4,-1.6l1,-1.1l-.8,-.8l-1,1.1l.8,.8Zm1.5,-1.6l.1,-.2l.9,-.9l-.8,-.8l-.8,.9l-.1,.1l-.1,.1l.8,.8Zm1.5,-1.5l.8,-.9l.2,-.2l-.7,-.8l-.2,.2h-.1l-.8,.9l.8,.8Zm1.5,-1.5l1.1,-1l-.7,-.9l-1.1,1.1l.7,.8Zm1.6,-1.5h.1l1,-.9l-.7,-.9l-1,.9H494v.1l.7,.8Zm1.6,-1.4l1.1,-.8l.1,-.1l-.7,-.9l-.1,.1l-1.1,.9l.7,.8Zm1.7,-1.3l1.2,-.9l-.7,-.9l-1.2,.9l.7,.9Zm1.7,-1.3l1.2,-.9l-.6,-.9l-1.2,.9l.6,.9Zm1.7,-1.3l1.3,-.8l-.7,-.9l-1.2,.8l.6,.9Zm1.8,-1.2l.1,-.1l1.2,-.7l-.6,-.9l-1.2,.7l-.1,.1l.6,.9Zm1.8,-1.1l1.3,-.8l-.6,-1l-1.3,.8l.6,1Zm1.9,-1.2l.7,-.4l.5,-.3l-.5,-1l-.5,.3l-.8,.5l.6,.9Zm1.8,-1l1.3,-.7l-.5,-1l-1.3,.7l.5,1Zm1.9,-1l1.4,-.7l-.6,-1l-1.3,.7l.5,1Zm1.9,-1l1.4,-.6l-.5,-1l-1.3,.6l.4,1Zm2,-.9l1.4,-.6l-.5,-1l-1.4,.6l.5,1Zm1.9,-.8l1.4,-.6l-.4,-1l-1.4,.6l.4,1Zm2,-.8l1.5,-.5l-.4,-1l-1.4,.5l.3,1Zm2.1,-.7l.2,-.1l1.2,-.4l-.4,-1l-1.2,.3l-.2,.1l.4,1.1Zm2,-.7l1.4,-.4l-.3,-1.1l-1.4,.5l.3,1Zm2.1,-.6l.4,-.2l1,-.2l-.3,-1.1l-1,.3l-.5,.1l.4,1.1Zm2,-.6l1.5,-.3l-.3,-1.1l-1.5,.4l.3,1Zm2.1,-.5l.7,-.2l.7,-.1l-.2,-1.1l-.7,.2h-.1l-.7,.1l.3,1.1Zm2.1,-.4l1.5,-.3l-.2,-1.1l-1.5,.3l.2,1.1Zm2.1,-.4l.8,-.2l.7,-.1l-.2,-1h-.7l-.8,.2l.2,1.1Zm2.1,-.3l1.5,-.2l-.1,-1.1l-1.5,.2l.1,1.1Zm2.2,-.3l.9,-.1l.5,-.1l-.1,-1.1l-.5,.1h-.1l-.9,.1l.2,1.1Zm2.1,-.2l1.5,-.1l-.1,-1.1l-1.5,.1l.1,1.1Zm2.1,-.2h1.5v-1.1h-1.5v1.1Zm2.2,-.1h1.5L545,626h-1.5l.1,1.1Zm2.1,0h1.5V626h-1.5v1.1Zm2.1,0l1.5,.1l.1,-1.1l-1.5,-.1l-.1,1.1Zm2.2,.1l1.1,.1h.4l.1,-1.1h-.4l-1.2,-.1v1.1Zm2.1,.2l1.5,.1l.1,-1.1l-1.5,-.1l-.1,1.1Zm2.2,.2l1.2,.1l.2,.1l.2,-1.1l-.3,-.1l-1.2,-.1l-.1,1.1Zm2.1,.3l1.5,.2L558,627l-1.4,-.2l-.2,1.1Zm2.1,.3l1.3,.2h.2l.2,-1l-.2,-.1l-1.3,-.2l-.2,1.1Zm2.1,.4l1.5,.3l.2,-1.1l-1.5,-.3l-.2,1.1Zm2.1,.4l1.5,.4l.1,-.6l-.1,.5l.3,-1h-.1L563,628l-.3,1Zm2.1,.5l1.4,.4l.3,-1l-1.4,-.4l-.3,1Zm2.1,.6l1.4,.4l.3,-1.1l-1.4,-.4l-.3,1.1Zm2,.6l1.4,.5l.4,-1.1l-1.4,-.4l-.4,1Zm2.1,.7l1.4,.5l.3,-1.1l-1.4,-.4l-.3,1Zm2,.7l1.4,.6l.4,-1l-1.4,-.6l-.4,1Zm2,.8l1.3,.6l.5,-1l-1.4,-.6l-.4,1Zm2,.8l.2,.2l1.1,.5l.5,-1l-1.1,-.5v-.1l-.3,-.1l-.4,1Zm1.9,1l1.3,.6l.5,-1l-1.3,-.6l-.5,1Zm1.9,.9l.8,.4l.5,.3l.6,-1l-.6,-.3l-.8,-.4l-.5,1Zm1.9,1l1.3,.8l.5,-1l-1.3,-.7l-.5,.9Zm1.9,1.1l1.3,.7l.5,-.9l-1.3,-.8l-.5,1Zm1.8,1.1l1.3,.8l.6,-1l-1.3,-.8l-.6,1Zm1.8,1.1l1.2,.9l.7,-.9l-1.3,-.9l-.6,.9Zm1.8,1.3l1.2,.8l.3,-.4l-.3,.4l.7,-.9h-.1l-1.2,-.9l-.6,1Zm1.7,1.2l1.2,.9l.7,-.8l-1.2,-1l-.7,.9Zm1.7,1.3l1.2,.9l.7,-.8l-1.2,-.9l-.7,.8Zm1.7,1.4l1.1,.9l.7,-.8l-1.1,-1l-.7,.9Zm1.6,1.4h.1l1,1l.7,-.8l-1,-1l-.1,-.1l-.7,.9Zm1.6,1.4l.7,.6l.4,.4l.7,-.7l-.4,-.4v-.1l-.7,-.6l-.7,.8Zm1.5,1.5l1.1,1.1l.8,-.8l-1.1,-1.1l-.8,.8Zm1.5,1.5l1,1.1l.8,-.7l-1,-1.1l-.8,.7Zm1.5,1.6l.5,.6l.5,.5l.8,-.7l-.4,-.5l-.1,-.1l-.5,-.5l-.8,.7Zm1.4,1.6l1,1.2l.8,-.7l-1,-1.2l-.8,.7Zm1.4,1.6l.9,1.2l.8,-.6l-.9,-1.2l-.8,.6Zm1.3,1.8l.9,1.2l.8,-.7l-.9,-1.2l-.8,.7Zm1.3,1.7l.1,.2l.7,1l.9,-.6l-.7,-1l-.2,-.3l-.8,.7Zm1.2,1.7l.4,.7l.4,.6l.9,-.6l-.3,-.6l-.5,-.7l-.9,.6Zm1.1,1.8l.8,1.3l1,-.6l-.8,-1.2l-1,.5Zm1.2,1.9l.8,1.2l.9,-.5l-.8,-1.3l-.9,.6Zm1,1.8l.8,1.3l.9,-.5l-.7,-1.3l-1,.5Zm1.1,1.9l.7,1.3l.9,-.5l-.7,-1.3l-.9,.5Zm1,1.9v.1l.6,1.3l1,-.5l-.6,-1.3l-.1,-.1l-.9,.5Zm.8,1.9l.7,1.4l1,-.4l-.7,-1.4l-1,.4Zm.9,2l.3,.5l.3,.9l1,-.4l-.3,-.9l-.3,-.5l-1,.4Zm.8,2l.5,1.4l1.1,-.4l-.6,-1.4l-1,.4Zm.8,2l.3,.9l.2,.5l1,-.3l-.2,-.6l-.3,-.9l-1,.4Zm.7,2l.4,1.5l1.1,-.4l-.5,-1.4l-1,.3Zm.6,2.1l.4,1.1v.3l1.1,-.3l-.1,-.3l-.3,-1.1l-1.1,.3Zm.6,2l.3,1.5l1.1,-.3L621,684l-1,.2Zm.5,2.1l.3,1.4v.1l1.1,-.2v-.2l-.3,-1.3l-1.1,.2Zm.5,2.1l.2,1.5l1.1,-.2l-.2,-1.5l-1.1,.2Zm.4,2.1l.2,1.5l1.1,-.2l-.3,-1.5l-1,.2Zm.3,2.1l.2,1.5L623,694l-.2,-1.5l-1.1,.1Zm.3,2.2l.2,1.5l1.1,-.2l-.2,-1.5l-1.1,.2Zm.2,2.1l.1,1.5l1.1,-.1l-.1,-1.5l-1.1,.1Zm.2,2.1l.1,1.5h1.1l-.1,-1.5h-1.1Zm.1,2.2v1.5l1.1,-.1v-1.5l-1.1,.1Zm.1,2.1v1.5h1.1v-1.5h-1.1Zm0,2.1l-.1,1.5l1.1,.1l.1,-1.5l-1.1,-.1Zm-.1,2.2l-.1,1.5l1.1,.1l.1,-1.6h-1.1Zm-.1,2.1l-.2,1.5l1.1,.1l.2,-1.5l-1.1,-.1Zm-.3,2.2l-.1,1.5l1.1,.1l.1,-1.5l-1.1,-.1Zm-.2,2.1l-.2,1.5l1.1,.2l.2,-1.5l-1.1,-.2Zm-.3,2.1l-.2,1.5l1,.2l.3,-1.5l-1.1,-.2Zm-.4,2.1l-.3,1.5l1.1,.2l.3,-1.4l-1.1,-.3Zm-.4,2.1l-.3,1.5l1,.2l.4,-1.4l-1.1,-.3Zm-.5,2.1v.1l-.4,1.4l1.1,.3l.4,-1.4v-.1l-1.1,-.3Zm-.5,2.1l-.4,1.4l1,.3l.4,-1.4l-1,-.3Zm-.6,2.1l-.1,.2l-.4,1.2l1.1,.3l.4,-1.1v-.3l-1,-.3Zm-.7,2L618,730l1.1,.4l.4,-1.5l-1,-.3Zm-.7,2l-.2,.6l-.3,.8l1,.4l.3,-.8v-.1l.2,-.5l-1,-.4Zm-.8,2l-.6,1.4l1.1,.4L618,733l-1,-.4Zm-.8,2l-.4,.9l-.2,.5l1,.4l.2,-.4l.4,-1l-1,-.4Zm-.9,1.9l-.6,1.4l1,.5l.6,-1.4l-1,-.5Zm-.9,2l-.7,1.3l1,.5l.7,-1.3l-1,-.5Zm-1,1.9l-.7,1.3l.9,.5l.8,-1.3l-1,-.5Zm-1.1,1.8l-.7,1.4l1,.5l.7,-1.3l-1,-.6Zm-1,1.9l-.1,.1l-.7,1.2l.9,.6l.7,-1.2h.1v-.1l-.9,-.6Zm-1.2,1.8l-.3,.5l-.5,.8l.9,.6l.5,-.8h.1l.3,-.5l-1,-.6Zm-1.2,1.8l-.8,1.2l.9,.7l.8,-1.3l-.9,-.6Zm-1.2,1.8v0l-.9,1.1l.9,.7l.8,-1.1l.1,-.1l-.9,-.6Zm-1.3,1.6l-.9,1.2l.8,.7l1,-1.2l-.9,-.7Zm-1.3,1.7l-.1,.1l-.9,1.1l.8,.7l.9,-1.1h.1v-.1l-.8,-.7Zm-1.4,1.7l-.6,.6l-.4,.5l.8,.7l.5,-.5l.5,-.6l-.8,-.7Zm-1.5,1.6l-1,1.1l.8,.7l1.1,-1.1l-.9,-.7Zm-1.4,1.5l-1.1,1.1l.8,.8l1.1,-1.1l-.8,-.8Zm-1.5,1.5l-.3,.3l-.8,.8l.7,.8l.8,-.7v-.1l.3,-.3l-.7,-.8Zm-1.6,1.5l-1.1,1l.7,.8l1.1,-1l-.7,-.8Zm-1.6,1.4l-1.1,1l.7,.8l1.1,-.9l-.7,-.9Zm-1.6,1.4l-.5,.4l-.7,.5l.7,.9l.7,-.5v-.1l.5,-.3l-.7,-.9Zm-1.7,1.3l-1.2,1l.6,.8l1.2,-.9l-.6,-.9Zm-1.7,1.3l-.8,.6l-.4,.3l.6,.9l.4,-.3l.8,-.6l-.6,-.9Zm-1.8,1.3l-1.2,.8l.6,.9l1.2,-.8l-.6,-.9Zm-1.7,1.2l-1.3,.8l.5,.9l1.3,-.8l-.5,-.9Zm-1.9,1.1l-1.3,.8l.6,.9l1.3,-.8l-.6,-.9Zm-1.8,1.1l-.2,.1l-1.1,.6l.5,1l1.2,-.6l.1,-.1l-.5,-1Zm-1.9,1l-1.3,.7l.5,1l1.3,-.7l-.5,-1Zm-1.9,1l-.7,.4l-.6,.3l.4,1l.7,-.3l.7,-.4l-.5,-1Zm-1.9,1l-1.4,.6l.4,1l1.4,-.6l-.4,-1Zm-2,.8l-1.2,.6h-.1l.3,1.1l.3,-.1l1.2,-.6l-.5,-1Zm-2,.9l-1.4,.5l.4,1l1.4,-.5l-.4,-1Zm-2,.7l-1.4,.6l.4,1l1.4,-.5l-.4,-1.1Zm-2,.8l-1.4,.4l.3,1.1l1.5,-.5l-.4,-1Zm-2,.6l-1.5,.4l.4,1.1l1.4,-.5l-.3,-1Zm-2.1,.6l-1.4,.4l.2,1l1.5,-.3l-.3,-1.1Zm-2.1,.5l-1.4,.4l.2,1.1l1.5,-.4l-.3,-1.1Zm-2,.5l-1.5,.3l.2,1.1l1.5,-.3l-.2,-1.1Zm-2.2,.4l-1.4,.3l.2,1.1l1.4,-.3l-.2,-1.1Zm-2.1,.4l-.1,.1l-1.3,.1l.1,1.1l1.4,-.2h.1l-.2,-1.1Zm-2.1,.3l-1.5,.2l.2,1.1l1.5,-.2l-.2,-1.1Zm-2.1,.3h-.2l-1.3,.1l.1,1.1l1.3,-.1h.2l-.1,-1.1Zm-2.1,.1l-1.6,.2l.1,1.1l1.5,-.2v-1.1Zm-2.2,.2h-1.5v1.1h1.6l-.1,-1.1Zm-2.1,0l-1.5,.1V782l1.5,-.1v-1.1Zm-2.2,.1h-.3l-1.2,-.1v1.1l1.2,.1h.3v-1.1Zm-2.1,-.1l-1.5,-.1l-.1,1.1l1.5,.1l.1,-1.1Zm-2.2,-.1h-.4l-1,-.1l-.2,1.1l1.2,.1h.4v-1.1Zm-2.1,-.2l-1.5,-.1l-.1,1.1l1.5,.1l.1,-1.1Zm-2.1,-.2h-.5l-1,-.2l-.2,1.1l1,.2h.5l.2,-1.1Zm-2.1,-.3l-1.5,-.2l-.2,1.1l1.5,.2l.2,-1.1Zm-2.2,-.3l-.6,-.1l-.8,-.2l-.3,1.1l.9,.2h.1l.5,.1l.2,-1.1Zm-2.1,-.4l-.6,-.2l-.3,1.1l.7,.1l.2,-1Z" class="g9_350"/>
<path d="M436.9,812.8h.7V595.2h-.7Z" class="g9_350"/>
<path d="M653.7,812.8h.8V595.2h-.8Z" class="g9_350"/>
<path d="M436.9,812.8H654.5V812H436.9Z" class="g9_350"/>
<path d="M436.9,595.9H654.5v-.7H436.9Z" class="g9_350"/>
<path d="M668.7,812.4h10.8V595.6H668.7Z" class="g0_350"/>
<path d="M668.7,812.4h10.8V785.3H668.7Z" class="g1_350"/>
<path d="M668.7,785.3h10.8V758.2H668.7Z" class="g2_350"/>
<path d="M668.7,758.2h10.8V731.1H668.7Z" class="g3_350"/>
<path d="M668.7,731.1h10.8V704H668.7Z" class="g4_350"/>
<path d="M668.7,704h10.8V676.9H668.7Z" class="g5_350"/>
<path d="M668.7,676.9h10.8V649.8H668.7Z" class="g6_350"/>
<path d="M668.7,649.8h10.8V622.7H668.7Z" class="g7_350"/>
<path d="M668.7,622.7h10.8V595.6H668.7Z" class="g8_350"/>
<path d="M679.5,812.8h2.9V812h-2.9Z" class="g9_350"/>
<path d="M686.1,813.3h5.1v-.7h-5.1Z" class="g9_350"/>
<path d="M693.1,814.8h1.3v-4.5l-1.5,.3v-.7l1.5,-.3h.8v5.2h1.3v.7h-3.4v-.7Z" class="g9_350"/>
<path d="M698.1,815.5h.8v-1h-.8Z" class="g9_350"/>
<path d="M702.4,809.5c.7,0,1.2,.2,1.5,.8c.4,.5,.6,1.2,.6,2.2c0,1,-.2,1.8,-.6,2.3c-.3,.6,-.8,.8,-1.5,.8c-.7,0,-1.2,-.2,-1.5,-.8c-.4,-.5,-.5,-1.3,-.5,-2.3c0,-1,.1,-1.7,.5,-2.2c.3,-.6,.8,-.8,1.5,-.8Zm0,.6c-.4,0,-.7,.2,-.9,.6c-.2,.4,-.3,1,-.3,1.8c0,.9,.1,1.5,.3,1.9c.2,.4,.5,.6,.9,.6c.4,0,.7,-.2,.9,-.6c.2,-.4,.4,-1,.4,-1.9c0,-.8,-.2,-1.4,-.4,-1.8c-.2,-.4,-.5,-.6,-.9,-.6Z" class="g9_350"/>
<path d="M707.6,809.5c.7,0,1.2,.2,1.5,.8c.3,.4,.5,.9,.5,1.6v1.3c0,.7,-.2,1.2,-.5,1.6c-.3,.6,-.8,.8,-1.5,.8c-.7,0,-1.2,-.2,-1.5,-.8c-.4,-.5,-.6,-1.3,-.6,-2.3c0,-1,.2,-1.7,.6,-2.2c.3,-.6,.8,-.8,1.5,-.8Zm0,.6c-.4,0,-.7,.2,-.9,.6c-.3,.4,-.4,1,-.4,1.8c0,.9,.1,1.5,.4,1.9c.2,.4,.5,.6,.9,.6c.4,0,.7,-.2,.9,-.6c.2,-.4,.3,-1,.3,-1.9c0,-.8,-.1,-1.4,-.3,-1.8c-.2,-.4,-.5,-.6,-.9,-.6Z" class="g9_350"/>
<path d="M679.5,785.7h2.9v-.8h-2.9Z" class="g9_350"/>
<path d="M686.1,786.2h5.1v-.7h-5.1Z" class="g9_350"/>
<path d="M694.6,782.4c.7,0,1.2,.2,1.6,.7c.3,.6,.5,1.3,.5,2.3c0,1,-.2,1.8,-.5,2.3c-.4,.6,-.9,.8,-1.6,.8c-.6,0,-1.1,-.2,-1.5,-.8c-.3,-.5,-.5,-1.3,-.5,-2.3c0,-1,.2,-1.7,.5,-2.3c.4,-.5,.9,-.7,1.5,-.7Zm0,.6c-.4,0,-.7,.2,-.9,.6c-.2,.4,-.3,1,-.3,1.8c0,.9,.1,1.5,.3,1.9c.2,.4,.5,.6,.9,.6c.4,0,.8,-.2,1,-.6c.2,-.4,.3,-1,.3,-1.9c0,-.8,-.1,-1.4,-.3,-1.8c-.2,-.4,-.6,-.6,-1,-.6Z" class="g9_350"/>
<path d="M698.1,788.4h.8v-1h-.8Z" class="g9_350"/>
<path d="M700.5,782.5h3.8v.3l-2.2,5.6h-.8l2,-5.3h-2.8v-.6Z" class="g9_350"/>
<path d="M705.9,782.5H709v.6h-2.4v1.5l.4,-.1h.3c.7,0,1.2,.2,1.6,.5c.4,.4,.6,.9,.6,1.5c0,.6,-.2,1.1,-.6,1.5c-.4,.3,-1,.5,-1.7,.5c-.3,0,-.5,0,-.8,0c-.2,-.1,-.5,-.1,-.8,-.2v-.8c.3,.1,.5,.2,.8,.2c.2,.1,.5,.1,.8,.1c.4,0,.8,-.1,1.1,-.3c.2,-.3,.4,-.6,.4,-1c0,-.4,-.2,-.7,-.4,-1c-.3,-.2,-.7,-.3,-1.1,-.3c-.2,0,-.5,0,-.7,0c-.2,.1,-.4,.1,-.6,.3v-3Z" class="g9_350"/>
<path d="M679.5,758.6h2.9v-.8h-2.9Z" class="g9_350"/>
<path d="M686.1,759.1h5.1v-.7h-5.1Z" class="g9_350"/>
<path d="M694.6,755.3c.7,0,1.2,.2,1.6,.7c.3,.6,.5,1.3,.5,2.3c0,1,-.2,1.8,-.5,2.3c-.4,.6,-.9,.8,-1.6,.8c-.6,0,-1.1,-.2,-1.5,-.8c-.3,-.5,-.5,-1.3,-.5,-2.3c0,-1,.2,-1.7,.5,-2.3c.4,-.5,.9,-.7,1.5,-.7Zm0,.6c-.4,0,-.7,.2,-.9,.6c-.2,.4,-.3,1,-.3,1.8c0,.8,.1,1.5,.3,1.9c.2,.4,.5,.6,.9,.6c.4,0,.8,-.2,1,-.6c.2,-.4,.3,-1.1,.3,-1.9c0,-.8,-.1,-1.4,-.3,-1.8c-.2,-.4,-.6,-.6,-1,-.6Z" class="g9_350"/>
<path d="M698.1,761.3h.8v-1h-.8Z" class="g9_350"/>
<path d="M700.7,755.4h3.1v.6h-2.4v1.5l.4,-.1h.3c.7,0,1.2,.2,1.6,.5c.4,.4,.6,.9,.6,1.5c0,.6,-.2,1.1,-.6,1.5c-.4,.3,-1,.5,-1.7,.5c-.2,0,-.5,0,-.8,0c-.2,-.1,-.5,-.2,-.8,-.2v-.8c.3,.1,.5,.2,.8,.2c.2,.1,.5,.1,.8,.1c.4,0,.8,-.1,1.1,-.3c.2,-.3,.4,-.6,.4,-1c0,-.4,-.2,-.7,-.4,-1c-.3,-.2,-.7,-.4,-1.1,-.4c-.2,0,-.4,.1,-.7,.1c-.2,.1,-.4,.1,-.6,.2v-2.9Z" class="g9_350"/>
<path d="M707.6,755.3c.7,0,1.2,.2,1.5,.7c.3,.5,.5,1,.5,1.7v1.2c0,.8,-.2,1.3,-.5,1.7c-.3,.6,-.8,.8,-1.5,.8c-.7,0,-1.2,-.2,-1.5,-.8c-.4,-.5,-.6,-1.3,-.6,-2.3c0,-1,.2,-1.7,.6,-2.3c.3,-.5,.8,-.7,1.5,-.7Zm0,.6c-.4,0,-.7,.2,-.9,.6c-.3,.4,-.4,1,-.4,1.8c0,.8,.1,1.5,.4,1.9c.2,.4,.5,.6,.9,.6c.4,0,.7,-.2,.9,-.6c.2,-.4,.3,-1.1,.3,-1.9c0,-.8,-.1,-1.4,-.3,-1.8c-.2,-.4,-.5,-.6,-.9,-.6Z" class="g9_350"/>
<path d="M679.5,731.5h2.9v-.8h-2.9Z" class="g9_350"/>
<path d="M686.1,732h5.1v-.7h-5.1Z" class="g9_350"/>
<path d="M694.6,728.1c.7,0,1.2,.3,1.6,.8c.3,.6,.5,1.3,.5,2.3c0,1,-.2,1.8,-.5,2.3c-.4,.5,-.9,.8,-1.6,.8c-.6,0,-1.1,-.3,-1.5,-.8c-.3,-.5,-.5,-1.3,-.5,-2.3c0,-1,.2,-1.7,.5,-2.3c.4,-.5,.9,-.8,1.5,-.8Zm0,.7c-.4,0,-.7,.2,-.9,.6c-.2,.4,-.3,1,-.3,1.8c0,.8,.1,1.5,.3,1.9c.2,.4,.5,.6,.9,.6c.4,0,.8,-.2,1,-.6c.2,-.4,.3,-1.1,.3,-1.9c0,-.8,-.1,-1.4,-.3,-1.8c-.2,-.4,-.6,-.6,-1,-.6Z" class="g9_350"/>
<path d="M698.1,734.2h.8v-1h-.8Z" class="g9_350"/>
<path d="M701.4,733.5h2.8v.7h-3.8v-.7c.3,-.3,.7,-.7,1.3,-1.3c.5,-.5,.8,-.8,1,-1c.2,-.3,.4,-.5,.5,-.7c.1,-.2,.1,-.4,.1,-.6c0,-.3,-.1,-.6,-.3,-.8c-.2,-.2,-.5,-.3,-.9,-.3c-.2,0,-.5,.1,-.8,.2c-.2,0,-.5,.2,-.8,.4v-.9c.3,-.1,.6,-.2,.9,-.3c.2,0,.5,-.1,.7,-.1c.6,0,1.1,.2,1.5,.5c.4,.3,.6,.7,.6,1.2c0,.3,-.1,.5,-.2,.7c-.1,.3,-.2,.5,-.5,.8c-.1,.1,-.3,.3,-.6,.7c-.4,.3,-.9,.9,-1.5,1.5Z" class="g9_350"/>
<path d="M705.9,728.3H709v.6h-2.4v1.5l.4,-.1h.3c.7,0,1.2,.1,1.6,.5c.4,.4,.6,.9,.6,1.5c0,.6,-.2,1.1,-.6,1.5c-.4,.3,-1,.5,-1.7,.5c-.3,0,-.5,0,-.8,-.1c-.2,0,-.5,-.1,-.8,-.1v-.9c.3,.2,.5,.3,.8,.3c.2,.1,.5,.1,.8,.1c.4,0,.8,-.1,1.1,-.3c.2,-.3,.4,-.6,.4,-1c0,-.4,-.2,-.8,-.4,-1c-.3,-.2,-.7,-.4,-1.1,-.4c-.2,0,-.5,.1,-.7,.1c-.2,.1,-.4,.1,-.6,.2v-2.9Z" class="g9_350"/>
<path d="M679.5,704.4h2.9v-.8h-2.9Z" class="g9_350"/>
<path d="M687.8,701c.7,0,1.2,.3,1.5,.8c.4,.6,.6,1.3,.6,2.3c0,1,-.2,1.8,-.6,2.3c-.3,.5,-.8,.8,-1.5,.8c-.7,0,-1.2,-.3,-1.5,-.8c-.4,-.5,-.6,-1.3,-.6,-2.3c0,-1,.2,-1.7,.6,-2.3c.3,-.5,.8,-.8,1.5,-.8Zm0,.7c-.4,0,-.7,.2,-.9,.6c-.2,.4,-.3,1,-.3,1.8c0,.8,.1,1.4,.3,1.9c.2,.4,.5,.6,.9,.6c.4,0,.7,-.2,.9,-.6c.2,-.5,.4,-1.1,.4,-1.9c0,-.8,-.2,-1.4,-.4,-1.8c-.2,-.4,-.5,-.6,-.9,-.6Z" class="g9_350"/>
<path d="M691.3,707.1h.8v-1h-.8Z" class="g9_350"/>
<path d="M695.6,701c.6,0,1.2,.3,1.5,.8c.4,.6,.5,1.3,.5,2.3c0,1,-.1,1.8,-.5,2.3c-.3,.5,-.9,.8,-1.5,.8c-.7,0,-1.2,-.3,-1.6,-.8c-.3,-.5,-.5,-1.3,-.5,-2.3c0,-1,.2,-1.7,.5,-2.3c.4,-.5,.9,-.8,1.6,-.8Zm0,.7c-.4,0,-.7,.2,-1,.6c-.2,.4,-.3,1,-.3,1.8c0,.8,.1,1.4,.3,1.9c.3,.4,.6,.6,1,.6c.4,0,.7,-.2,.9,-.6c.2,-.5,.3,-1.1,.3,-1.9c0,-.8,-.1,-1.4,-.3,-1.8c-.2,-.4,-.5,-.6,-.9,-.6Z" class="g9_350"/>
<path d="M700.8,701c.6,0,1.1,.3,1.5,.8c.3,.6,.5,1.3,.5,2.3c0,1,-.2,1.8,-.5,2.3c-.4,.5,-.9,.8,-1.5,.8c-.7,0,-1.2,-.3,-1.6,-.8c-.3,-.5,-.5,-1.3,-.5,-2.3c0,-1,.2,-1.7,.5,-2.3c.4,-.5,.9,-.8,1.6,-.8Zm0,.7c-.5,0,-.8,.2,-1,.6c-.2,.4,-.3,1,-.3,1.8c0,.8,.1,1.4,.3,1.9c.2,.4,.5,.6,1,.6c.4,0,.7,-.2,.9,-.6c.2,-.5,.3,-1.1,.3,-1.9c0,-.8,-.1,-1.4,-.3,-1.8c-.2,-.4,-.5,-.6,-.9,-.6Z" class="g9_350"/>
<path d="M679.5,677.3h2.9v-.8h-2.9Z" class="g9_350"/>
<path d="M687.8,673.9c.7,0,1.2,.3,1.5,.8c.4,.5,.6,1.3,.6,2.3c0,1,-.2,1.8,-.6,2.3c-.3,.5,-.8,.8,-1.5,.8c-.7,0,-1.2,-.3,-1.5,-.8c-.4,-.5,-.6,-1.3,-.6,-2.3c0,-1,.2,-1.8,.6,-2.3c.3,-.5,.8,-.8,1.5,-.8Zm0,.7c-.4,0,-.7,.2,-.9,.6c-.2,.4,-.3,1,-.3,1.8c0,.8,.1,1.4,.3,1.8c.2,.5,.5,.7,.9,.7c.4,0,.7,-.2,.9,-.7c.2,-.4,.4,-1,.4,-1.8c0,-.8,-.2,-1.4,-.4,-1.8c-.2,-.4,-.5,-.6,-.9,-.6Z" class="g9_350"/>
<path d="M691.3,680h.8v-1h-.8Z" class="g9_350"/>
<path d="M694.5,679.3h2.9v.7h-3.8v-.7c.3,-.3,.7,-.7,1.2,-1.3c.6,-.5,.9,-.8,1,-1c.3,-.3,.5,-.5,.6,-.7c.1,-.2,.1,-.4,.1,-.6c0,-.3,-.1,-.6,-.3,-.8c-.2,-.2,-.5,-.3,-.9,-.3c-.2,0,-.5,.1,-.8,.1c-.3,.1,-.6,.3,-.9,.4v-.8c.3,-.1,.6,-.2,.9,-.3c.3,0,.6,-.1,.8,-.1c.6,0,1.1,.2,1.5,.5c.3,.3,.5,.7,.5,1.2c0,.3,0,.5,-.1,.7c-.1,.2,-.3,.5,-.5,.8c-.1,.1,-.3,.3,-.6,.7c-.4,.3,-.9,.8,-1.6,1.5Z" class="g9_350"/>
<path d="M699.1,674h3.1v.7h-2.4v1.5l.3,-.1h.4c.6,0,1.2,.1,1.6,.5c.3,.4,.5,.9,.5,1.5c0,.6,-.2,1.1,-.6,1.5c-.4,.3,-.9,.5,-1.6,.5c-.3,0,-.5,0,-.8,-.1c-.3,0,-.5,-.1,-.8,-.2V679c.2,.2,.5,.3,.7,.3c.3,.1,.6,.1,.8,.1c.5,0,.9,-.1,1.1,-.3c.3,-.3,.4,-.6,.4,-1c0,-.4,-.1,-.8,-.4,-1c-.2,-.2,-.6,-.4,-1.1,-.4c-.2,0,-.4,.1,-.6,.1c-.2,0,-.4,.1,-.6,.2v-3Z" class="g9_350"/>
<path d="M679.5,650.2h2.9v-.8h-2.9Z" class="g9_350"/>
<path d="M687.8,646.8c.7,0,1.2,.3,1.5,.8c.4,.5,.6,1.3,.6,2.3c0,1,-.2,1.8,-.6,2.3c-.3,.5,-.8,.8,-1.5,.8c-.7,0,-1.2,-.3,-1.5,-.8c-.4,-.5,-.6,-1.3,-.6,-2.3c0,-1,.2,-1.8,.6,-2.3c.3,-.5,.8,-.8,1.5,-.8Zm0,.7c-.4,0,-.7,.2,-.9,.6c-.2,.4,-.3,1,-.3,1.8c0,.8,.1,1.4,.3,1.8c.2,.4,.5,.7,.9,.7c.4,0,.7,-.3,.9,-.7c.2,-.4,.4,-1,.4,-1.8c0,-.8,-.2,-1.4,-.4,-1.8c-.2,-.4,-.5,-.6,-.9,-.6Z" class="g9_350"/>
<path d="M691.3,652.9h.8v-1h-.8Z" class="g9_350"/>
<path d="M693.9,646.9H697v.7h-2.4v1.5l.4,-.1l.3,-.1c.7,0,1.2,.2,1.6,.6c.4,.4,.6,.8,.6,1.5c0,.6,-.2,1.1,-.6,1.5c-.4,.3,-1,.5,-1.7,.5c-.3,0,-.5,0,-.8,-.1c-.2,0,-.5,-.1,-.8,-.2v-.8c.3,.2,.5,.3,.8,.3c.2,.1,.5,.1,.8,.1c.4,0,.8,-.1,1.1,-.3c.2,-.3,.4,-.6,.4,-1c0,-.4,-.2,-.8,-.4,-1c-.3,-.3,-.7,-.4,-1.1,-.4c-.3,0,-.5,0,-.7,.1c-.2,0,-.4,.1,-.6,.2v-3Z" class="g9_350"/>
<path d="M700.8,646.8c.6,0,1.1,.3,1.5,.8c.3,.5,.5,1.3,.5,2.3c0,1,-.2,1.8,-.5,2.3c-.4,.5,-.9,.8,-1.5,.8c-.7,0,-1.2,-.3,-1.6,-.8c-.3,-.5,-.5,-1.3,-.5,-2.3c0,-1,.2,-1.8,.5,-2.3c.4,-.5,.9,-.8,1.6,-.8Zm0,.7c-.5,0,-.8,.2,-1,.6c-.2,.4,-.3,1,-.3,1.8c0,.8,.1,1.4,.3,1.8c.2,.4,.5,.7,1,.7c.4,0,.7,-.3,.9,-.7c.2,-.4,.3,-1,.3,-1.8c0,-.8,-.1,-1.4,-.3,-1.8c-.2,-.4,-.5,-.6,-.9,-.6Z" class="g9_350"/>
<path d="M679.5,623h2.9v-.7h-2.9Z" class="g9_350"/>
<path d="M687.8,619.7c.7,0,1.2,.3,1.5,.8c.4,.5,.6,1.3,.6,2.3c0,1,-.2,1.8,-.6,2.3c-.3,.5,-.8,.8,-1.5,.8c-.7,0,-1.2,-.3,-1.5,-.8c-.4,-.5,-.6,-1.3,-.6,-2.3c0,-1,.2,-1.8,.6,-2.3c.3,-.5,.8,-.8,1.5,-.8Zm0,.7c-.4,0,-.7,.2,-.9,.6c-.2,.4,-.3,1,-.3,1.8c0,.8,.1,1.4,.3,1.8c.2,.4,.5,.6,.9,.6c.4,0,.7,-.2,.9,-.6c.2,-.4,.4,-1,.4,-1.8c0,-.8,-.2,-1.4,-.4,-1.8c-.2,-.4,-.5,-.6,-.9,-.6Z" class="g9_350"/>
<path d="M691.3,625.8h.8v-1h-.8Z" class="g9_350"/>
<path d="M693.7,619.8h3.8v.4l-2.2,5.6h-.8l2,-5.3h-2.8v-.7Z" class="g9_350"/>
<path d="M699.1,619.8h3.1v.7h-2.4V622l.3,-.1l.4,-.1c.6,0,1.2,.2,1.6,.6c.3,.3,.5,.8,.5,1.5c0,.6,-.2,1.1,-.6,1.5c-.4,.3,-.9,.5,-1.6,.5c-.3,0,-.5,0,-.8,-.1c-.3,0,-.5,-.1,-.8,-.2v-.8c.2,.1,.5,.2,.7,.3c.3,.1,.6,.1,.8,.1c.5,0,.9,-.1,1.1,-.4c.3,-.2,.4,-.5,.4,-.9c0,-.5,-.1,-.8,-.4,-1c-.2,-.3,-.6,-.4,-1.1,-.4c-.2,0,-.4,0,-.6,.1c-.2,0,-.4,.1,-.6,.2v-3Z" class="g9_350"/>
<path d="M679.5,595.9h2.9v-.7h-2.9Z" class="g9_350"/>
<path d="M686.2,598h1.3v-4.5l-1.4,.2V593l1.4,-.3h.8V598h1.3v.7h-3.4V598Z" class="g9_350"/>
<path d="M691.3,598.7h.8v-1.1h-.8Z" class="g9_350"/>
<path d="M695.6,592.6c.6,0,1.2,.3,1.5,.8c.4,.5,.5,1.3,.5,2.3c0,1,-.1,1.8,-.5,2.3c-.3,.5,-.9,.8,-1.5,.8c-.7,0,-1.2,-.3,-1.6,-.8c-.3,-.5,-.5,-1.3,-.5,-2.3c0,-1,.2,-1.8,.5,-2.3c.4,-.5,.9,-.8,1.6,-.8Zm0,.6c-.4,0,-.7,.3,-1,.7c-.2,.4,-.3,1,-.3,1.8c0,.8,.1,1.4,.3,1.8c.3,.4,.6,.6,1,.6c.4,0,.7,-.2,.9,-.6c.2,-.4,.3,-1,.3,-1.8c0,-.8,-.1,-1.4,-.3,-1.8c-.2,-.4,-.5,-.7,-.9,-.7Z" class="g9_350"/>
<path d="M700.8,592.6c.6,0,1.1,.3,1.5,.8c.3,.5,.5,1.3,.5,2.3c0,1,-.2,1.8,-.5,2.3c-.4,.5,-.9,.8,-1.5,.8c-.7,0,-1.2,-.3,-1.6,-.8c-.3,-.5,-.5,-1.3,-.5,-2.3c0,-1,.2,-1.8,.5,-2.3c.4,-.5,.9,-.8,1.6,-.8Zm0,.6c-.5,0,-.8,.3,-1,.7c-.2,.4,-.3,1,-.3,1.8c0,.8,.1,1.4,.3,1.8c.2,.4,.5,.6,1,.6c.4,0,.7,-.2,.9,-.6c.2,-.4,.3,-1,.3,-1.8c0,-.8,-.1,-1.4,-.3,-1.8c-.2,-.4,-.5,-.7,-.9,-.7Z" class="g9_350"/>
<path d="M668.7,812.4v.4h11.2V595.2H668.3V812.8h.4v-.4h.3V595.9h10.1V812H668.7v.4h.3h-.3Z" class="g9_350"/>
</svg>