<?xml version="1.0" encoding="UTF-8" standalone="no"?>
<!DOCTYPE svg PUBLIC "-//W3C//DTD SVG 1.1//EN"
"http://www.w3.org/Graphics/SVG/1.1/DTD/svg11.dtd">
<svg viewBox="0 0 811 1017" version="1.1" xmlns="http://www.w3.org/2000/svg" xmlns:xlink="http://www.w3.org/1999/xlink">
<defs>
<style type="text/css"><![CDATA[
.g0_323{
fill: #0E0E0E;
}
.g1_323{
fill: #000;
}
]]></style>
</defs>
<path d="M344.8,424c-.5,0,-1,.2,-1.5,.5c-.5,.3,-.9,.7,-1.4,1.2c-.7,.7,-1.4,1.9,-1.4,3.2c0,1.1,.4,1.8,1.5,1.8c1.5,0,2.1,-.9,2.5,-1.6h.1c-.3,.8,-.2,1.6,.6,1.6c1.3,0,2.1,-1,2.7,-1.9l-.3,-.2c-.3,.3,-1,1.3,-1.4,1.3c-.2,0,-.3,-.3,-.3,-.5c0,-.7,.6,-2.4,.9,-3.3l.7,-1.9h-1.3l-.2,.6c-.2,-.3,-.5,-.8,-1.2,-.8Zm.2,.4c.9,0,.5,1.4,.3,1.9c-.1,.3,-.2,.6,-.3,.9c-.4,1.2,-1.5,3,-2.3,3c-.7,0,-.7,-.9,-.7,-1.4c0,-.4,.1,-.8,.3,-1.3c.4,-1,1.3,-3.1,2.7,-3.1Z" class="g0_323"/>
<path d="M354.9,426.7c0,-.4,-.3,-.8,-.8,-.8c-.4,0,-.8,.4,-.8,.8c0,.6,.5,.9,.8,.9c.3,0,.8,-.3,.8,-.9Z" class="g0_323"/>
<path d="M364.6,419.9c-2.2,1.4,-3.7,3.8,-3.7,6.8c0,2.8,1.6,5.6,3.6,6.9l.2,-.3c-2,-1.5,-2.5,-3.3,-2.5,-6.6c0,-3.3,.6,-5,2.5,-6.6l-.1,-.2Z" class="g0_323"/>
<path d="M370.1,424.6c1.8,0,.7,2.5,.5,3c-.4,.8,-1.1,2.6,-2.3,2.6c-.4,0,-.7,-.3,-.7,-.9c0,-.7,.3,-1.7,.5,-2.2c.2,-.6,.6,-1.5,1,-1.9c.2,-.3,.6,-.6,1,-.6Zm-2.2,6.1c2.1,0,3.3,-1.5,3.9,-2.6c.3,-.6,.6,-1.4,.6,-2.3c-.1,-1,-.9,-1.7,-1.9,-1.7c-.9,0,-1.6,.6,-1.9,1.3l.1,-.4l1.5,-5.2l-2.7,.1l-.1,.3c.6,0,.8,.3,.8,.6c.1,.2,-.1,.5,-.1,.7l-1.7,5.5c-.1,.5,-.3,1,-.3,1.3c-.1,.4,-.2,.7,-.2,.9c.1,.9,1,1.5,2,1.5Z" class="g0_323"/>
<path d="M385.5,430l-3.4,-3.3l3.4,-3.3l-.6,-.6l-3.3,3.3l-3.3,-3.3l-.6,.6l3.3,3.3l-3.3,3.3l.6,.6l3.3,-3.3l3.3,3.3l.6,-.6Z" class="g0_323"/>
<path d="M391.6,428.7c0,-.5,.1,-.9,.2,-1.4c.3,-.9,1,-2.7,2.1,-2.7c.4,0,.4,.1,.4,.2c0,.2,-.1,.3,-.1,.4c0,.4,.3,.6,.8,.6c.5,0,.8,-.3,.8,-.7c0,-.7,-.7,-1,-1.5,-1c-1.7,0,-3.1,1.5,-3.8,2.5c-.4,.6,-.7,1.3,-.7,2.1c0,1.2,.8,2,2,2c1.5,0,2.5,-1.1,3.1,-2.1l-.4,-.1c-.5,.9,-1.3,1.7,-2.1,1.7c-.6,0,-.8,-.9,-.8,-1.5Z" class="g0_323"/>
<path d="M397.2,419.9l-.2,.2c1.9,1.6,2.6,3.3,2.6,6.6c0,3.3,-.6,5.1,-2.6,6.6l.2,.3c2.1,-1.3,3.6,-4.1,3.6,-6.9c0,-3,-1.5,-5.4,-3.6,-6.8Z" class="g0_323"/>
<path d="M407,428.7h7.7v-.9H407Zm0,-3.1h7.7v-.8H407Z" class="g0_323"/>
<path d="M424.1,425.2c0,.6,-.2,1.6,-.4,2.1c-.2,.6,-.7,1.8,-1,2.2c-.3,.4,-.8,.8,-1.3,.8c-.5,0,-.8,-.4,-.8,-.9c0,-.6,.2,-1.8,.4,-2.3c.4,-.9,1.3,-2.7,2.4,-2.7c.4,0,.7,.4,.7,.8Zm.2,5.5c.4,0,.7,-.2,1.1,-.6c.3,-.4,.6,-.9,.9,-1.7l-.4,-.1c-.2,.5,-.7,1.9,-1.2,1.9c-.3,0,-.4,-.5,-.4,-.8c0,-.2,0,-.3,0,-.5c.1,-.6,.3,-1.2,.4,-1.9c.2,-.4,.3,-.9,.5,-1.6l1.5,-5.8h-2.2l-.1,.2c.5,.1,.6,.1,.7,.2c.2,.1,.3,.3,.3,.4c0,.3,-.1,.6,-.1,.9l-1,3.4c-.2,-.4,-.4,-.6,-1,-.6c-1,0,-1.9,.9,-2.5,1.6c-.2,.3,-.4,.6,-.6,.9c-.4,.6,-.6,1.4,-.6,2.2c0,.6,.1,1,.4,1.3c.2,.3,.6,.6,1,.6c1.4,0,1.9,-.9,2.4,-1.7v.1c0,0,0,.1,0,.2c0,.1,0,.2,0,.3c0,.6,.2,1.1,.9,1.1Z" class="g0_323"/>
<path d="M431.4,424.4c.2,0,.5,.3,.5,.6c0,1.3,-1.7,2.3,-2.9,2.7c.3,-1,1.2,-3.3,2.4,-3.3Zm.1,-.3c-1.1,0,-2,.8,-2.6,1.5c-.6,.7,-1.1,1.8,-1.1,3.1c0,1.2,.4,2,1.6,2c1,0,2,-.8,2.6,-1.7l-.3,-.2c-.4,.6,-1.2,1.5,-2,1.5c-.6,0,-.9,-.5,-.9,-1.3c0,-.3,.1,-.7,.1,-1c1.5,-.3,3.9,-1.2,3.9,-2.9c0,-.7,-.6,-1,-1.3,-1Z" class="g0_323"/>
<path d="M434.7,430.7c1.2,0,2.1,-1.3,2.5,-2.1l-.3,-.2c-.3,.4,-.9,1.7,-1.6,1.7c-.3,0,-.3,-.5,-.3,-.6c0,-.2,0,-.6,.2,-1l1,-4h1.3l.1,-.3h-1.3l.4,-1.6h-1l-.4,1.6h-1.1v.3h1l-1,3.6c-.1,.5,-.2,.9,-.2,1.1c-.1,.3,-.1,.5,-.1,.7c0,.5,.2,.8,.8,.8Z" class="g0_323"/>
<path d="M447.2,400.9c0,-.1,-.1,-.1,-.1,-.1c0,0,-.1,0,-.1,0c-4.8,5.3,-5.3,19.2,-5.3,20.8v.6h1.4v-.6c0,-1.2,.8,-15,3.9,-20.4c.1,-.1,.2,-.2,.2,-.3Z" class="g0_323"/>
<path d="M441.7,431.5h1.4v-9.6h-1.4Z" class="g0_323"/>
<path d="M447.2,452.6c0,-.1,-.1,-.2,-.2,-.3c-3.1,-5.4,-3.9,-19.2,-3.9,-20.4v-.6h-1.4v.6c0,1.6,.5,15.5,5.3,20.8c0,0,.1,0,.1,0c0,0,.1,0,.1,-.1Z" class="g0_323"/>
<path d="M453.9,400.7v-.8h-3.6v9.2h1.1v-7.8c0,-.4,.4,-.6,.7,-.6h1.8Z" class="g0_323"/>
<path d="M450.3,417.9h1.1v-9.6h-1.1Z" class="g0_323"/>
<path d="M450.3,426.9h1.1v-9.6h-1.1Z" class="g0_323"/>
<path d="M450.3,435.8h1.1v-9.6h-1.1Z" class="g0_323"/>
<path d="M450.3,444.8h1.1v-9.6h-1.1Z" class="g0_323"/>
<path d="M453.9,453.6v-.8h-1.8c-.3,0,-.7,-.2,-.7,-.6v-7.8h-1.1v9.2h3.6Z" class="g0_323"/>
<path d="M458.9,405.9c-.4,0,-.9,.2,-1.3,.5c-.4,.3,-.9,.6,-1.2,1.1c-.7,.8,-1.3,2,-1.3,3.3c0,1,.4,1.7,1.3,1.7c1.3,0,1.8,-.9,2.2,-1.5c-.2,.9,-.1,1.5,.6,1.5c.3,0,.7,-.1,1.1,-.5c.4,-.3,.8,-.8,1.1,-1.3l-.2,-.2c-.3,.4,-.9,1.4,-1.3,1.4c-.2,0,-.3,-.4,-.3,-.6c0,-.9,.6,-2.4,.9,-3.4l.7,-1.9h-1l-.2,.7c-.2,-.5,-.5,-.8,-1.1,-.8Zm.1,.3c.7,0,.6,1.3,.5,1.9c-.1,.3,-.2,.6,-.3,1c-.4,1.1,-1.5,3.1,-2.3,3.1c-.6,0,-.7,-1,-.7,-1.5c0,-.4,0,-.8,.2,-1.3c.3,-1,1.4,-3.2,2.6,-3.2Z" class="g0_323"/>
<path d="M463.3,407.7v.1c.3,0,.8,.1,.9,.2c.4,.1,.4,.2,.4,.7v4.8c0,.2,0,.4,-.1,.5c0,.5,-.6,.6,-1.2,.6v.2h3.5v-.2c-.4,0,-.9,0,-1.1,-.2c-.2,-.2,-.2,-.6,-.2,-1v-6.3c-.5,.3,-1.5,.6,-2.2,.6Z" class="g0_323"/>
<path d="M488.1,405.9c-.4,0,-.8,.2,-1.3,.5c-.4,.3,-.8,.6,-1.2,1.1c-.7,.8,-1.3,2,-1.3,3.3c0,1,.4,1.7,1.3,1.7c1.3,0,1.8,-.9,2.2,-1.5c-.2,.9,0,1.5,.6,1.5c.4,0,.7,-.1,1.1,-.5c.4,-.3,.8,-.8,1.1,-1.3l-.2,-.2c-.3,.4,-.9,1.4,-1.3,1.4c-.2,0,-.3,-.4,-.3,-.6c0,-.9,.6,-2.4,.9,-3.4l.7,-1.9h-1l-.2,.7c-.2,-.5,-.5,-.8,-1.1,-.8Zm.2,.3c.7,0,.5,1.3,.4,1.9c-.1,.3,-.2,.6,-.3,1c-.4,1.1,-1.4,3.1,-2.2,3.1c-.7,0,-.8,-1,-.8,-1.5c0,-.4,0,-.8,.2,-1.3c.3,-1,1.4,-3.2,2.7,-3.2Z" class="g0_323"/>
<path d="M493.7,410.1c-.7,0,-1.1,-.5,-1.1,-1.2c0,-.7,.5,-1.6,1.4,-1.6c1.2,0,1.3,1,1.3,1.9c0,.9,-.3,1.5,-.7,2.1c-.3,.4,-.7,.9,-1.2,1.4c-.5,.5,-1.1,1.1,-1.8,1.7v.4h4.5l.4,-2.1h-.3c-.1,.2,-.2,.4,-.2,.5c-.2,.4,-.5,.6,-1,.6h-2.1v-.1c.4,-.3,.9,-.7,1.3,-1c.8,-.7,1.6,-1.4,2,-2.3c.2,-.4,.3,-.8,.3,-1.2c0,-.3,-.1,-.6,-.2,-.8c-.4,-.8,-1.1,-1.3,-2.2,-1.3c-.7,0,-1.3,.3,-1.7,.6c-.4,.3,-.7,.8,-.7,1.4c0,.5,.1,.9,.3,1.1c.2,.2,.5,.4,.9,.4c.4,0,.7,-.2,.8,-.5Z" class="g0_323"/>
<path d="M517.3,405.9c-.4,0,-.8,.2,-1.3,.5c-.4,.3,-.8,.6,-1.2,1.1c-.6,.8,-1.2,2,-1.2,3.3c0,1,.3,1.7,1.3,1.7c1.3,0,1.7,-.9,2.1,-1.5h.1c-.2,.9,-.1,1.5,.5,1.5c.4,0,.7,-.1,1.1,-.5c.4,-.3,.8,-.8,1.1,-1.3l-.2,-.2c-.2,.4,-.9,1.4,-1.3,1.4c-.2,0,-.3,-.4,-.3,-.6c0,-.9,.6,-2.4,1,-3.4l.7,-1.9h-1l-.3,.7c-.2,-.5,-.5,-.8,-1.1,-.8Zm.2,.3c.7,0,.5,1.3,.4,1.9c0,.3,-.2,.6,-.3,1c-.3,1.1,-1.4,3.1,-2.2,3.1c-.6,0,-.8,-1,-.8,-1.5c0,-.4,0,-.8,.2,-1.3c.4,-1,1.4,-3.2,2.7,-3.2Z" class="g0_323"/>
<path d="M523.1,414.7c-.7,0,-1.2,-.7,-1.2,-1.4c0,-.6,.3,-1,.8,-1c-.1,-.3,-.4,-.4,-.8,-.4c-.1,0,-.3,0,-.4,.1c-.4,.1,-.7,.6,-.7,1.1c0,.3,.1,.5,.2,.7c.4,.7,1.1,1.1,2.2,1.1c.8,0,1.4,-.3,1.8,-.7c.4,-.3,.8,-.8,.8,-1.5c0,-.2,-.1,-.4,-.2,-.7c-.2,-.6,-.8,-1.1,-1.5,-1.3c.4,-.1,.8,-.4,1,-.7c.2,-.3,.4,-.7,.4,-1.1c0,-.3,0,-.5,-.1,-.7c-.4,-.7,-1.2,-1.1,-2.2,-1.1c-.6,0,-1.2,.2,-1.5,.4c-.3,.2,-.6,.5,-.6,1c0,.3,.1,.6,.3,.7c.1,.2,.4,.3,.7,.3c.2,0,.3,0,.5,-.1c.1,0,.2,-.1,.2,-.2c-.4,0,-.7,-.4,-.7,-.8c0,-.6,.5,-1.1,1.1,-1.1c.8,0,1.2,.7,1.2,1.6c0,.9,-.3,1.8,-1.1,1.8c-.2,-.1,-.4,-.2,-.6,-.2c-.2,0,-.5,.1,-.5,.3c0,.2,.3,.3,.5,.3c.3,0,.5,-.1,.7,-.2c.9,0,1.1,.8,1.1,1.8c0,1,-.4,2,-1.4,2Z" class="g0_323"/>
<path d="M459,424.2c1.2,0,.9,1.9,.4,3.2c-.4,.8,-1.3,2.7,-2.5,2.7c-.4,0,-.6,-.3,-.6,-1c0,-.7,.2,-1.8,.5,-2.3c.2,-.6,.7,-1.6,1.1,-2c.2,-.4,.6,-.6,1.1,-.6Zm-2.2,6.2c1.6,0,2.8,-1.5,3.4,-2.6c.3,-.6,.6,-1.4,.6,-2.3c0,-1,-.5,-1.7,-1.5,-1.7c-.9,0,-1.6,.6,-2,1.2l1.5,-5.6l-2,.1l-.1,.2c.6,0,.9,.3,.9,.6c0,.2,-.1,.5,-.2,.7l-1.6,5.7c-.2,.5,-.3,1,-.4,1.3c0,.4,-.1,.7,-.1,.9c0,.9,.6,1.5,1.5,1.5Z" class="g0_323"/>
<path d="M462.7,425.6v.1c.3,0,.8,.1,1,.2c.3,.1,.3,.2,.3,.7v4.8c0,.2,0,.4,-.1,.5c0,.5,-.6,.6,-1.1,.6v.2h3.4v-.2c-.4,0,-.9,0,-1.1,-.2c-.1,-.2,-.2,-.6,-.2,-1V425c-.5,.3,-1.5,.6,-2.2,.6Z" class="g0_323"/>
<path d="M488.2,424.2c1.2,0,.9,1.9,.4,3.2c-.4,.8,-1.3,2.7,-2.4,2.7c-.5,0,-.7,-.3,-.7,-1c0,-.7,.2,-1.8,.5,-2.3c.3,-.6,.7,-1.6,1.1,-2c.3,-.4,.6,-.6,1.1,-.6Zm-2.2,6.2c1.6,0,2.8,-1.5,3.4,-2.6c.4,-.6,.7,-1.4,.7,-2.3c0,-1,-.5,-1.7,-1.6,-1.7c-.9,0,-1.6,.6,-1.9,1.2h-.1l1.6,-5.6l-2.1,.1l-.1,.2c.6,0,.9,.3,.9,.6c0,.2,-.1,.5,-.2,.7l-1.6,5.7c-.1,.5,-.3,1,-.4,1.3c0,.4,-.1,.7,-.1,.9c0,.9,.6,1.5,1.5,1.5Z" class="g0_323"/>
<path d="M493.1,428c-.7,0,-1.1,-.5,-1.1,-1.2c0,-.7,.5,-1.6,1.4,-1.6c1.2,0,1.3,1,1.3,1.9c0,.9,-.3,1.5,-.7,2.1c-.3,.4,-.7,.9,-1.2,1.4c-.5,.5,-1.1,1.1,-1.8,1.7v.4h4.5l.4,-2.1h-.3c-.1,.2,-.1,.4,-.2,.5c-.2,.4,-.5,.6,-1,.6h-2.1v-.1c.4,-.3,.9,-.7,1.3,-1c.8,-.7,1.6,-1.4,2,-2.3c.2,-.4,.3,-.8,.3,-1.2c0,-.3,-.1,-.6,-.2,-.8c-.4,-.8,-1.1,-1.3,-2.2,-1.3c-.7,0,-1.3,.3,-1.7,.6c-.4,.3,-.7,.8,-.7,1.4c0,.5,.1,.9,.3,1.1c.2,.2,.5,.4,.9,.4c.5,0,.7,-.2,.8,-.5Z" class="g0_323"/>
<path d="M517.4,424.2c1.2,0,.9,1.9,.4,3.2c-.3,.8,-1.3,2.7,-2.4,2.7c-.5,0,-.7,-.3,-.7,-1c0,-.7,.3,-1.8,.5,-2.3c.3,-.6,.7,-1.6,1.1,-2c.3,-.4,.7,-.6,1.1,-.6Zm-2.2,6.2c1.7,0,2.8,-1.5,3.5,-2.6c.3,-.6,.6,-1.4,.6,-2.3c0,-1,-.5,-1.7,-1.5,-1.7c-1,0,-1.7,.6,-2,1.2h-.1l1.6,-5.6l-2.1,.1l-.1,.2c.7,0,.9,.3,.9,.6c0,.2,-.1,.5,-.2,.7l-1.5,5.7c-.2,.5,-.4,1,-.4,1.3c-.1,.4,-.2,.7,-.2,.9c0,.9,.6,1.5,1.5,1.5Z" class="g0_323"/>
<path d="M522.5,432.6c-.7,0,-1.2,-.7,-1.2,-1.4c0,-.6,.3,-1,.8,-1c-.1,-.3,-.4,-.4,-.7,-.4c-.2,0,-.4,0,-.5,.1c-.4,.1,-.7,.6,-.7,1.1c0,.3,.1,.5,.2,.7c.4,.7,1.1,1.1,2.2,1.1c.8,0,1.4,-.3,1.8,-.7c.4,-.3,.8,-.8,.8,-1.5c0,-.2,-.1,-.4,-.2,-.7c-.2,-.6,-.8,-1.1,-1.5,-1.3c.4,-.1,.8,-.4,1,-.7c.2,-.3,.4,-.7,.4,-1.1c0,-.3,0,-.5,-.1,-.7c-.4,-.7,-1.2,-1.1,-2.2,-1.1c-.6,0,-1.2,.2,-1.5,.4c-.3,.2,-.6,.5,-.6,1c0,.3,.1,.6,.3,.7c.1,.2,.4,.3,.7,.3c.2,0,.3,0,.5,-.1c.1,0,.2,-.1,.2,-.2c-.4,0,-.7,-.4,-.7,-.8c0,-.6,.5,-1.1,1.1,-1.1c.8,0,1.2,.7,1.2,1.6c0,.9,-.3,1.8,-1.1,1.8c-.2,-.1,-.4,-.2,-.6,-.2c-.2,0,-.5,.1,-.5,.3c0,.2,.3,.3,.5,.3c.3,0,.5,-.1,.7,-.2c.9,0,1.1,.8,1.1,1.8c0,1,-.4,2,-1.4,2Z" class="g0_323"/>
<path d="M456.8,446.4c0,-.5,0,-1,.2,-1.5c.3,-.9,1.1,-2.9,2.2,-2.9c.3,0,.4,.2,.4,.3c0,.2,-.1,.3,-.1,.4c0,.4,.2,.6,.5,.6c.4,0,.6,-.2,.6,-.6c0,-.7,-.6,-1,-1.3,-1c-1.4,0,-2.5,1.5,-3.1,2.5c-.3,.6,-.5,1.3,-.5,2.2c0,1.1,.6,1.9,1.7,1.9c1.2,0,2.1,-1,2.6,-2l-.3,-.2c-.5,1,-1.2,1.9,-2.1,1.9c-.6,0,-.8,-1,-.8,-1.6Z" class="g0_323"/>
<path d="M462.2,443.5v.1c.3,0,.8,.1,1,.2c.3,.1,.3,.3,.3,.7v4.8c0,.2,0,.4,0,.5c-.1,.5,-.7,.6,-1.2,.6v.2h3.4v-.2c-.4,0,-.9,0,-1.1,-.2c-.1,-.2,-.1,-.6,-.1,-1v-6.3c-.6,.3,-1.6,.6,-2.3,.6Z" class="g0_323"/>
<path d="M486,446.4c0,-.5,.1,-1,.2,-1.5c.3,-.9,1.1,-2.9,2.2,-2.9c.4,0,.4,.2,.4,.3c0,.2,-.1,.3,-.1,.4c0,.4,.2,.6,.5,.6c.4,0,.7,-.2,.7,-.6c0,-.7,-.7,-1,-1.4,-1c-1.4,0,-2.5,1.5,-3.1,2.5c-.3,.6,-.5,1.3,-.5,2.2c0,1.1,.6,1.9,1.7,1.9c1.3,0,2.1,-1,2.6,-2l-.3,-.2c-.4,1,-1.2,1.9,-2,1.9c-.6,0,-.9,-1,-.9,-1.6Z" class="g0_323"/>
<path d="M492.6,445.9c-.6,0,-1,-.5,-1,-1.2c0,-.7,.4,-1.6,1.3,-1.6c1.2,0,1.3,1,1.3,1.9c0,.9,-.3,1.5,-.7,2.1c-.3,.4,-.7,.9,-1.1,1.4c-.5,.5,-1.1,1.1,-1.9,1.7v.4h4.6l.3,-2.1h-.3c0,.2,-.1,.4,-.2,.5c-.2,.4,-.5,.6,-1,.6h-2.1c.5,-.4,.9,-.8,1.4,-1.1c.7,-.7,1.5,-1.4,1.9,-2.3c.2,-.4,.3,-.8,.3,-1.2c0,-.3,-.1,-.6,-.2,-.8c-.3,-.8,-1.1,-1.3,-2.2,-1.3c-.7,0,-1.3,.3,-1.7,.6c-.4,.3,-.7,.8,-.7,1.4c0,.5,.1,.9,.4,1.1c.2,.2,.5,.4,.9,.4c.4,0,.7,-.2,.7,-.5Z" class="g0_323"/>
<path d="M515.2,446.4c0,-.5,.1,-1,.2,-1.5c.3,-.9,1.1,-2.9,2.2,-2.9c.4,0,.4,.2,.4,.3c0,.2,-.1,.3,-.1,.4c0,.4,.2,.6,.5,.6c.4,0,.7,-.2,.7,-.6c0,-.7,-.6,-1,-1.3,-1c-1.4,0,-2.5,1.5,-3.1,2.5c-.4,.6,-.6,1.3,-.6,2.2c0,1.1,.6,1.9,1.7,1.9c1.3,0,2.1,-1,2.6,-2l-.2,-.2c-.5,1,-1.3,1.9,-2.1,1.9c-.6,0,-.9,-1,-.9,-1.6Z" class="g0_323"/>
<path d="M522.1,450.5c-.8,0,-1.3,-.7,-1.3,-1.4c0,-.6,.3,-1,.8,-1c0,-.3,-.4,-.4,-.7,-.4c-.2,0,-.3,0,-.5,.1c-.4,.1,-.7,.6,-.7,1.1c0,.3,.1,.5,.2,.7c.4,.7,1.2,1.1,2.2,1.1c.8,0,1.4,-.3,1.8,-.7c.5,-.3,.8,-.8,.8,-1.5c0,-.2,-.1,-.4,-.1,-.7c-.3,-.6,-.9,-1.1,-1.6,-1.3c.4,-.1,.8,-.4,1,-.7c.3,-.3,.5,-.7,.5,-1.1c0,-.3,-.1,-.5,-.2,-.7c-.3,-.7,-1.2,-1.1,-2.2,-1.1c-.6,0,-1.1,.2,-1.5,.4c-.3,.2,-.6,.5,-.6,1c0,.3,.1,.6,.3,.7c.2,.2,.4,.3,.7,.3c.2,0,.3,0,.5,-.1c.1,0,.2,-.1,.2,-.2c-.4,0,-.7,-.4,-.7,-.8c0,-.6,.5,-1.1,1.1,-1.1c.8,0,1.2,.7,1.2,1.6c0,.9,-.3,1.8,-1.1,1.8c-.2,-.1,-.4,-.2,-.6,-.2c-.2,0,-.5,.1,-.5,.3c0,.2,.3,.3,.5,.3c.3,0,.5,-.1,.7,-.2c.9,0,1.1,.8,1.1,1.8c0,1,-.3,2,-1.3,2Z" class="g0_323"/>
<path d="M531.2,409.1v-9.2h-3.6v.8h1.8c.4,0,.7,.2,.7,.6v7.8h1.1Z" class="g0_323"/>
<path d="M530.1,417.9h1.1v-9.6h-1.1Z" class="g0_323"/>
<path d="M530.1,426.9h1.1v-9.6h-1.1Z" class="g0_323"/>
<path d="M530.1,435.8h1.1v-9.6h-1.1Z" class="g0_323"/>
<path d="M530.1,444.8h1.1v-9.6h-1.1Z" class="g0_323"/>
<path d="M531.2,453.6v-9.2h-1.1v7.8c0,.4,-.3,.6,-.7,.6h-1.8v.8h3.6Z" class="g0_323"/>
<path d="M534.3,400.9c0,.1,.1,.2,.2,.3c3.2,5.4,3.9,19.2,3.9,20.4v.6h1.4v-.6c0,-1.6,-.5,-15.5,-5.3,-20.8h-.1c0,0,-.1,0,-.1,.1Z" class="g0_323"/>
<path d="M538.4,431.5h1.4v-9.6h-1.4Z" class="g0_323"/>
<path d="M534.3,452.6c0,.1,.1,.1,.1,.1q.1,0,.1,0c4.8,-5.3,5.3,-19.2,5.3,-20.8v-.6h-1.4v.6c0,1.2,-.7,15,-3.9,20.4c-.1,.1,-.2,.2,-.2,.3Z" class="g0_323"/>
<path d="M400.4,678.6h.4V653.1h-.4Z" class="g1_323"/>
<path d="M383.2,678.6v3.1l-.3,-.1l-6.2,-2.8l-.4,-.2l.4,-.2l6.2,-2.9l.3,-.1v.3l-.1,.2l-6.3,2.9l-.1,-.4h.1l6.3,2.9l-.2,.3l-.1,-.2v-2.8Z" class="g1_323"/>
<path d="M382.8,678.6h.4v-2.9h-.4Z" class="g1_323"/>
<path d="M383,678.8h.2v-.4H383Z" class="g1_323"/>
<path d="M383.2,678.8h17.6v-.4H383.2Z" class="g1_323"/>
<path d="M390.9,721.9h.3V693.7h-.3Z" class="g1_323"/>
<path d="M366.7,693.7v3.2l-.3,-.1l-6.3,-2.9l-.4,-.2l.4,-.1l6.3,-3l.3,-.1v.3l-.1,.2l-6.3,2.9l-.2,-.3h.2l6.3,2.9l-.2,.3l-.1,-.1v-3Z" class="g1_323"/>
<path d="M366.3,693.7h.4v-2.9h-.4Z" class="g1_323"/>
<path d="M366.5,693.9h.2v-.3h-.2Z" class="g1_323"/>
<path d="M366.7,693.9h24.5v-.3H366.7Z" class="g1_323"/>
<path d="M267.3,743.4h.4V709h-.4Z" class="g1_323"/>
<path d="M243.1,709v3.3l-.3,-.1l-6.3,-3l-.4,-.2l.4,-.1l6.3,-3l.3,-.1v.3l-.1,.2l-6.3,2.9l-.2,-.3h.2l6.3,2.9l-.2,.4l-.1,-.2v-3Z" class="g1_323"/>
<path d="M242.7,709h.4v-2.9h-.4Z" class="g1_323"/>
<path d="M242.9,709.2h.2v-.3h-.2Z" class="g1_323"/>
<path d="M243.1,709.2h24.6v-.3H243.1Z" class="g1_323"/>
</svg>