<?xml version="1.0" encoding="UTF-8" standalone="no"?>
<!DOCTYPE svg PUBLIC "-//W3C//DTD SVG 1.1//EN"
"http://www.w3.org/Graphics/SVG/1.1/DTD/svg11.dtd">
<svg viewBox="0 0 811 1017" version="1.1" xmlns="http://www.w3.org/2000/svg" xmlns:xlink="http://www.w3.org/1999/xlink">
<defs>
<clipPath id="c0_153"><path d="M121.5,471V347.3H312.4V471Z"/></clipPath>
<clipPath id="c1_153"><path d="M327.4,471V347.3H518.3V471Z"/></clipPath>
<clipPath id="c2_153"><path d="M533.4,471V347.3H724.3V471Z"/></clipPath>
<style type="text/css"><![CDATA[
.g0_153{
fill: #0E0E0E;
}
]]></style>
</defs>
<image clip-path="url(#c0_153)" preserveAspectRatio="none" x="121" y="347" width="191" height="124" xlink:href="img/1.jpg"/>
<image clip-path="url(#c1_153)" preserveAspectRatio="none" x="327" y="347" width="191" height="124" xlink:href="img/2.jpg"/>
<image clip-path="url(#c2_153)" preserveAspectRatio="none" x="533" y="347" width="191" height="124" xlink:href="img/3.jpg"/>
<path d="M408.2,865c-.3,0,-.4,-.2,-.4,-.4c-.1,-.3,-.2,-.6,-.5,-.6c-.3,0,-.4,.2,-.4,.5c0,.6,.7,.8,1.2,.9h.1c.8,-.1,.9,-.3,1.3,-.8c.2,-.3,.4,-.7,.5,-1.2c.2,-.6,.6,-1.2,.7,-2l1.4,-5.2h1.2l.1,-.3h-1.2c.3,-1.2,.8,-3.2,1.1,-3.8c.1,-.2,.4,-.5,.8,-.5c.3,0,.4,.2,.5,.5c0,.3,.1,.5,.5,.5c.2,0,.3,-.2,.3,-.4c0,-.5,-.4,-.8,-.8,-.9h-.8c-1.6,.4,-2.2,3.1,-2.6,4.6H410l-.1,.3h1.2l-1.9,7.4c-.1,.3,-.4,1.4,-1,1.4Z" class="g0_153"/>
<path d="M422.1,858c.5,0,.9,-.4,.9,-.9c0,-.5,-.4,-.9,-.9,-.9c-.5,0,-.9,.4,-.9,.9c0,.5,.4,.9,.9,.9Zm0,4.4c.5,0,.9,-.4,.9,-.9c0,-.5,-.4,-.9,-.9,-.9c-.5,0,-.9,.4,-.9,.9c0,.5,.4,.9,.9,.9Z" class="g0_153"/>
<path d="M431,861.6h-1.1V853H431Zm6.5,0H436l-2.4,-3.4c.4,0,.9,0,1.3,-.1l2.6,3.5Zm-2.7,-4.1c-.2,0,-.5,.1,-.8,.1h-2.3V853h2.4c.2,0,.5,.1,.7,.2v4.3Zm.7,-4.2c.9,.4,1.4,1,1.4,2c0,1,-.6,1.8,-1.4,2.2v-4.2Zm3.3,8.9L435.6,858c1.2,-.4,1.9,-1.4,1.9,-2.7c0,-2.1,-1.6,-2.9,-3.5,-2.9h-4.8v9.8h2.5v-4h1.1l2.9,4h3.1Z" class="g0_153"/>
<path d="M457.8,858.4l-2.9,-3l-.5,.5l1.8,2.1H444.4v.8h11.8l-1.8,2.2l.5,.5l2.9,-3.1Z" class="g0_153"/>
<path d="M465.7,861.6h-1.1V853h1.1Zm6.5,0h-1.5l-2.4,-3.4c.4,0,.9,0,1.3,-.1l2.6,3.5Zm-2.7,-4.1c-.2,0,-.5,.1,-.8,.1h-2.3V853h2.4c.2,0,.5,.1,.7,.2v4.3Zm.7,-4.2c.9,.4,1.4,1,1.4,2c0,1,-.6,1.8,-1.4,2.2v-4.2Zm3.3,8.9L470.3,858c1.2,-.4,1.9,-1.4,1.9,-2.7c0,-2.1,-1.6,-2.9,-3.5,-2.9h-4.8v9.8h2.5v-4h1.1l2.9,4h3.1Z" class="g0_153"/>
</svg>