<?xml version="1.0" encoding="UTF-8" standalone="no"?>
<!DOCTYPE svg PUBLIC "-//W3C//DTD SVG 1.1//EN"
"http://www.w3.org/Graphics/SVG/1.1/DTD/svg11.dtd">
<svg viewBox="0 0 811 1017" version="1.1" xmlns="http://www.w3.org/2000/svg" xmlns:xlink="http://www.w3.org/1999/xlink">
<defs>
<clipPath id="c0_152"><path d="M142.4,772.3V501.7h440V772.3Z"/></clipPath>
<style type="text/css"><![CDATA[
.g0_152{
fill: #0E0E0E;
}
]]></style>
</defs>
<path d="M379.6,313.4c-.5,0,-.6,-.4,-.5,-.8c.1,-.5,-.2,-.7,-.6,-.7c-.4,0,-.6,.3,-.6,.7c0,.8,.8,1.1,1.6,1.1c.6,0,1.1,-.2,1.4,-.5c.4,-.4,.6,-.8,.6,-1.4c0,-.4,0,-.8,-.2,-1.1c-.3,-.6,-.8,-1,-1,-1.5c-.2,-.2,-.2,-.5,-.2,-.7c0,-.4,.1,-1.1,.7,-1.1c.6,0,.6,.5,.5,.7c-.1,.2,.1,.6,.5,.6c.3,0,.5,-.2,.5,-.5c0,-.7,-.6,-1.1,-1.3,-1.1c-.7,0,-1.1,.2,-1.4,.6c-.4,.3,-.5,.7,-.5,1.3c0,.3,0,.6,.2,.9c.3,.5,.7,1,1,1.5c.2,.2,.3,.5,.3,.8c0,.5,-.2,1.2,-1,1.2Z" class="g0_152"/>
<path d="M387.8,311.7h7.6v-.8h-7.6Zm0,-3h7.6v-.8h-7.6Z" class="g0_152"/>
<path d="M402.7,306.3c-.3,0,-.4,-.2,-.4,-.4c-.1,-.3,-.2,-.6,-.6,-.6c-.2,0,-.3,.2,-.3,.5c0,.6,.7,.8,1.2,.8c.9,0,.9,-.2,1.3,-.7c.3,-.3,.4,-.7,.6,-1.2c.2,-.6,.5,-1.2,.7,-2.1l1.4,-5.1h1.2l.1,-.3h-1.2c.3,-1.2,.8,-3.2,1.1,-3.8c.1,-.2,.4,-.5,.7,-.5c.4,0,.5,.2,.5,.5c.1,.2,.2,.5,.6,.5c.2,0,.3,-.2,.3,-.4c0,-.5,-.4,-.8,-.8,-.9h-.8c-1.6,.4,-2.2,3.1,-2.6,4.6h-1.2l-.1,.3h1.2l-2,7.4c0,.3,-.3,1.4,-.9,1.4Z" class="g0_152"/>
<path d="M415.7,292.9c-2.2,1.4,-3.7,3.8,-3.7,6.8c0,2.8,1.6,5.6,3.6,6.8l.2,-.2c-1.9,-1.6,-2.5,-3.4,-2.5,-6.6c0,-3.3,.6,-5,2.5,-6.6l-.1,-.2Z" class="g0_152"/>
<path d="M420.8,297.4c1.3,0,.9,1.9,.4,3.2c-.3,.8,-1.3,2.7,-2.4,2.7c-.5,0,-.7,-.3,-.7,-1c0,-.7,.3,-1.7,.5,-2.3c.3,-.6,.8,-1.6,1.2,-2c.2,-.3,.6,-.6,1,-.6Zm-.1,-4.8h-.2l-1.9,.1v.2c.6,0,.8,.3,.8,.6c0,.2,-.1,.6,-.1,.7l-1.6,5.7c-.2,.5,-.3,1,-.4,1.4c-.1,.3,-.1,.7,-.1,.9c0,.8,.5,1.4,1.4,1.4c1.7,0,2.9,-1.4,3.5,-2.6c.3,-.6,.6,-1.4,.6,-2.2c0,-1.1,-.5,-1.8,-1.5,-1.8c-.9,0,-1.6,.6,-2,1.2l1.5,-5.6Z" class="g0_152"/>
<path d="M424.3,292.9l-.1,.2c1.9,1.6,2.5,3.3,2.5,6.6c0,3.2,-.6,5,-2.5,6.6l.1,.2c2.1,-1.2,3.7,-4,3.7,-6.8c0,-3,-1.6,-5.4,-3.7,-6.8Z" class="g0_152"/>
<path d="M433.7,300.1h7.6v-.8h-7.6Z" class="g0_152"/>
<path d="M446.3,306.3c-.3,0,-.4,-.2,-.5,-.4c-.1,-.3,-.2,-.6,-.5,-.6c-.2,0,-.4,.2,-.4,.5c0,.6,.8,.8,1.3,.8c.8,0,.9,-.2,1.3,-.7c.2,-.3,.4,-.7,.6,-1.2c.2,-.6,.5,-1.2,.7,-2.1l1.3,-5.1h1.3l.1,-.3h-1.3c.4,-1.2,.8,-3.2,1.2,-3.8c.1,-.2,.4,-.5,.7,-.5c.3,0,.4,.2,.5,.5c.1,.2,.2,.5,.5,.5c.3,0,.4,-.2,.4,-.4c0,-.5,-.4,-.8,-.9,-.9h-.8c-1.5,.4,-2.2,3.1,-2.6,4.6H448l-.1,.3h1.3l-2,7.4c-.1,.3,-.4,1.4,-.9,1.4Z" class="g0_152"/>
<path d="M459.2,292.9c-2.1,1.4,-3.6,3.8,-3.6,6.8c0,2.8,1.5,5.6,3.6,6.8l.2,-.2c-2,-1.6,-2.5,-3.4,-2.5,-6.6c0,-3.3,.6,-5,2.5,-6.6l-.2,-.2Z" class="g0_152"/>
<path d="M464.9,297c-.4,0,-.8,.2,-1.3,.5c-.4,.3,-.8,.7,-1.2,1.1c-.7,.8,-1.3,2,-1.3,3.3c0,1,.4,1.7,1.3,1.7c1.3,0,1.8,-.8,2.2,-1.5c-.2,.9,0,1.5,.6,1.5c.4,0,.7,-.1,1.1,-.4c.4,-.4,.8,-.8,1.1,-1.4l-.2,-.2c-.3,.5,-.9,1.4,-1.3,1.4c-.2,0,-.3,-.3,-.3,-.6c0,-.9,.6,-2.4,.9,-3.4l.7,-1.8h-.9l-.3,.6c-.2,-.4,-.5,-.8,-1.1,-.8Zm.2,.3c.7,0,.5,1.3,.4,1.9c-.1,.3,-.2,.6,-.3,1c-.4,1.2,-1.4,3.1,-2.2,3.1c-.7,0,-.8,-1,-.8,-1.5c0,-.4,0,-.8,.2,-1.3c.3,-1,1.4,-3.2,2.7,-3.2Z" class="g0_152"/>
<path d="M468.9,292.9l-.1,.2c1.9,1.6,2.5,3.3,2.5,6.6c0,3.2,-.6,5,-2.5,6.6l.1,.2c2.1,-1.2,3.7,-4,3.7,-6.8c0,-3,-1.6,-5.4,-3.7,-6.8Z" class="g0_152"/>
<path d="M402,310.2h72v-.8H402Z" class="g0_152"/>
<path d="M426.6,317.7c1.2,0,.9,1.9,.3,3.2c-.3,.9,-1.3,2.8,-2.4,2.8c-.5,0,-.7,-.4,-.7,-1c0,-.7,.3,-1.8,.5,-2.4c.3,-.6,.8,-1.6,1.2,-2c.2,-.3,.6,-.6,1.1,-.6Zm-2.3,6.3c1.7,0,2.9,-1.5,3.5,-2.6c.3,-.6,.6,-1.4,.6,-2.3c0,-1,-.5,-1.7,-1.5,-1.7c-.9,0,-1.6,.5,-2,1.1l1.5,-5.5h-2.1v.2c.6,0,.9,.3,.9,.6c0,.2,-.2,.6,-.2,.8l-1.6,5.6c-.2,.6,-.3,1,-.4,1.4c-.1,.4,-.1,.7,-.1,.9c0,.9,.5,1.5,1.4,1.5Z" class="g0_152"/>
<path d="M433.7,320.5h7.6v-.9h-7.6Z" class="g0_152"/>
<path d="M450.1,317.4c-.5,0,-.9,.1,-1.4,.4c-.4,.3,-.8,.7,-1.2,1.2c-.6,.7,-1.2,1.9,-1.2,3.2c0,1,.3,1.8,1.3,1.8c1.3,0,1.8,-.9,2.1,-1.6h.1c-.2,.9,-.1,1.6,.5,1.6c.4,0,.8,-.2,1.2,-.5c.3,-.3,.7,-.8,1,-1.4l-.1,-.1c-.3,.4,-1,1.3,-1.4,1.3c-.2,0,-.3,-.3,-.3,-.5c0,-.9,.6,-2.5,1,-3.5l.7,-1.8h-1l-.3,.7c-.2,-.5,-.4,-.8,-1,-.8Zm.1,.3c.7,0,.5,1.3,.4,1.8c0,.3,-.2,.7,-.3,1c-.3,1.2,-1.4,3.1,-2.2,3.1c-.6,0,-.8,-.9,-.8,-1.4c0,-.5,0,-.9,.2,-1.4c.4,-1,1.4,-3.1,2.7,-3.1Z" class="g0_152"/>
<image clip-path="url(#c0_152)" preserveAspectRatio="none" x="142" y="502" width="440" height="270" xlink:href="img/1.jpg"/>
</svg>