<?xml version="1.0" encoding="UTF-8" standalone="no"?>
<!DOCTYPE svg PUBLIC "-//W3C//DTD SVG 1.1//EN"
"http://www.w3.org/Graphics/SVG/1.1/DTD/svg11.dtd">
<svg viewBox="0 0 811 1017" version="1.1" xmlns="http://www.w3.org/2000/svg" xmlns:xlink="http://www.w3.org/1999/xlink">
<defs>
<style type="text/css"><![CDATA[
.g0_190{
fill: #0E0E0E;
}
]]></style>
</defs>
<path d="M355.8,245.4l1,-3.6c.1,-.5,.2,-1.1,.7,-1.2c.1,-.1,.2,-.1,.4,-.1c1.5,0,2.2,.9,2.2,1.9c0,.4,-.1,.8,-.3,1.1c-.6,1,-1.8,1.9,-3.3,1.9h-.7Zm-.6,2.4l.6,-2.1h.9c2,0,3.7,-.6,4.5,-1.9c.2,-.4,.4,-.8,.4,-1.3c0,-.7,-.4,-1.3,-1,-1.7c-.6,-.4,-1.5,-.6,-2.7,-.6h-3.7l-.1,.2c.3,0,.5,.1,.7,.1c.4,.1,.6,.5,.6,1c0,.2,0,.6,-.2,1l-1.6,5.9c-.1,.6,-.3,1.2,-.6,1.5c-.3,.2,-.7,.4,-1.1,.4l-.1,.2h4.5l.1,-.2c-1.1,0,-1.5,-.5,-1.5,-1c0,-.2,0,-.5,.1,-.7c0,-.2,.1,-.5,.2,-.8Z" class="g0_190"/>
<path d="M367.6,239.9c-2.1,1.4,-3.7,3.8,-3.7,6.8c0,2.8,1.6,5.6,3.7,6.8l.2,-.2c-2,-1.5,-2.6,-3.3,-2.6,-6.6c0,-3.3,.6,-5,2.6,-6.6l-.2,-.2Z" class="g0_190"/>
<path d="M376,245c0,-.5,-.5,-.9,-1,-.9c-.3,0,-.6,.1,-1,.3c-.3,.2,-.6,.5,-.8,.9c0,-.7,-.4,-1.2,-1.1,-1.2c-1.1,0,-2.1,1.1,-2.4,1.9l.2,.1c.4,-.5,1.1,-1.7,2,-1.7c.3,0,.4,.6,.4,1c0,.3,-.1,.7,-.2,1.2l-.4,1.2c-.1,.5,-.4,1.3,-.7,1.7c-.2,.3,-.4,.7,-.8,.7c-.4,0,-.7,-.1,-.6,-.5c.1,-.3,0,-.7,-.4,-.7c-.5,0,-.6,.3,-.6,.7c0,.6,.4,1,1,1c1,0,1.8,-.8,2.1,-1.5h.1c.1,.8,.5,1.5,1.3,1.5c1.2,0,2,-1.2,2.5,-1.9l-.2,-.1c-.5,.6,-1.2,1.6,-2,1.6c-.4,0,-.6,-.6,-.6,-1.2c0,-.4,0,-.8,.1,-1.3l.2,-.8c.1,-.5,.4,-1.2,.6,-1.6c.2,-.3,.6,-.9,1,-.9c.4,0,.4,.3,.3,.6c0,.4,.2,.6,.5,.6c.4,0,.5,-.3,.5,-.7Z" class="g0_190"/>
<path d="M377.3,239.9l-.2,.2c2,1.6,2.6,3.3,2.6,6.6c0,3.3,-.6,5.1,-2.6,6.6l.2,.2c2.1,-1.2,3.7,-4,3.7,-6.8c0,-3,-1.6,-5.4,-3.7,-6.8Z" class="g0_190"/>
<path d="M387.2,248.7h7.6v-.9h-7.6Zm0,-3.1h7.6v-.8h-7.6Z" class="g0_190"/>
<path d="M406.7,245c0,-.5,-.4,-.9,-1,-.9c-.3,0,-.6,.1,-.9,.3c-.3,.2,-.6,.5,-.9,.9c0,-.7,-.4,-1.2,-1,-1.2c-1.1,0,-2.1,1.1,-2.4,1.9l.2,.1c.3,-.5,1.1,-1.7,1.9,-1.7c.3,0,.4,.6,.4,1c0,.3,0,.7,-.2,1.2l-.3,1.2c-.2,.5,-.4,1.3,-.7,1.7c-.2,.3,-.5,.7,-.8,.7c-.5,0,-.8,-.1,-.7,-.5c.1,-.3,.1,-.7,-.4,-.7c-.4,0,-.6,.3,-.6,.7c0,.6,.5,1,1.1,1c1,0,1.7,-.8,2.1,-1.5c.1,.8,.5,1.5,1.4,1.5c1.1,0,2,-1.2,2.4,-1.9l-.2,-.1c-.5,.6,-1.2,1.6,-2,1.6c-.4,0,-.6,-.6,-.6,-1.2c0,-.4,0,-.8,.2,-1.3l.2,-.8c.1,-.5,.3,-1.2,.6,-1.6c.2,-.3,.5,-.9,.9,-.9c.4,0,.4,.3,.4,.6c-.1,.4,.1,.6,.4,.6c.4,0,.5,-.3,.5,-.7Z" class="g0_190"/>
<path d="M410.3,244.3c-.7,0,-1.3,-.7,-1.3,-1.4c0,-.5,.4,-1,.9,-1c-.1,-.2,-.4,-.4,-.8,-.4c-.1,0,-.3,0,-.4,.1c-.4,.2,-.7,.6,-.7,1.2c0,.2,0,.4,.2,.6c.3,.7,1.1,1.1,2.1,1.1c.8,0,1.4,-.3,1.9,-.6c.4,-.4,.7,-.8,.7,-1.5c0,-.3,0,-.5,-.1,-.7c-.3,-.7,-.8,-1.1,-1.6,-1.3v-.1c.5,-.1,.8,-.3,1.1,-.7c.2,-.2,.4,-.6,.4,-1.1c0,-.3,-.1,-.5,-.2,-.7c-.3,-.7,-1.1,-1,-2.1,-1c-.6,0,-1.2,.1,-1.6,.3c-.3,.2,-.5,.6,-.5,1c0,.3,.1,.6,.3,.8c.1,.1,.4,.3,.7,.3c.1,0,.3,-.1,.4,-.1c.2,-.1,.2,-.2,.3,-.3c-.5,0,-.8,-.3,-.8,-.7c0,-.6,.5,-1.2,1.2,-1.2c.7,0,1.1,.7,1.1,1.6c0,.9,-.2,1.8,-1,1.8c-.2,0,-.4,-.1,-.6,-.1c-.2,0,-.6,0,-.6,.2c0,.3,.4,.4,.6,.4c.2,0,.5,-.2,.7,-.3c.8,0,1.1,.8,1.1,1.8c0,1,-.4,2,-1.4,2Z" class="g0_190"/>
<path d="M418.5,247.1h7.7v-.8h-7.7Z" class="g0_190"/>
<path d="M434.2,230.7v.3c.4,0,1.1,0,1.3,.1c.5,.3,.4,.4,.5,1.1v6.5c0,.3,-.1,.5,-.1,.7c-.1,.7,-.9,.8,-1.6,.8v.2H439v-.2c-.6,0,-1.3,0,-1.5,-.3c-.2,-.3,-.2,-.8,-.2,-1.3V230c-.8,.4,-2.2,.7,-3.1,.7Z" class="g0_190"/>
<path d="M432.2,247.1h8.4v-.8h-8.4Z" class="g0_190"/>
<path d="M435.8,254.4c-.9,0,-1.5,-.7,-1.5,-1.6c0,-1.1,.6,-2.2,1.9,-2.2c1.6,0,1.8,1.3,1.8,2.6c0,1.2,-.4,2,-1,2.9c-.4,.5,-.9,1.2,-1.6,1.8c-.6,.7,-1.5,1.5,-2.5,2.4v.5h6.3l.5,-2.9h-.5c0,.3,-.2,.6,-.3,.8c-.2,.5,-.6,.8,-1.3,.8h-2.9v-.1c.6,-.5,1.3,-1,1.8,-1.5c1.1,-.8,2.1,-1.8,2.7,-3c.3,-.6,.4,-1.1,.4,-1.7c0,-.4,-.1,-.8,-.2,-1.2c-.5,-1,-1.5,-1.7,-3,-1.7c-1,0,-1.9,.3,-2.4,.8c-.5,.4,-1,1.1,-1,2c0,.6,.2,1.1,.5,1.4c.3,.4,.7,.6,1.3,.6c.5,0,.9,-.3,1,-.7Z" class="g0_190"/>
<path d="M449.6,245c0,-.5,-.5,-.9,-1,-.9c-.4,0,-.7,.1,-1,.3c-.3,.2,-.6,.5,-.8,.9c0,-.7,-.5,-1.2,-1.1,-1.2c-1.1,0,-2.1,1.1,-2.4,1.9l.2,.1c.3,-.5,1.1,-1.7,2,-1.7c.2,0,.3,.6,.3,1c0,.3,0,.7,-.2,1.2l-.3,1.2c-.2,.5,-.4,1.3,-.7,1.7c-.2,.3,-.5,.7,-.8,.7c-.4,0,-.8,-.1,-.6,-.5c0,-.3,0,-.7,-.4,-.7c-.5,0,-.7,.3,-.7,.7c0,.6,.5,1,1.1,1c1,0,1.7,-.8,2.1,-1.5c.1,.8,.5,1.5,1.4,1.5c1.1,0,2,-1.2,2.4,-1.9l-.2,-.1c-.5,.6,-1.1,1.6,-1.9,1.6c-.5,0,-.7,-.6,-.7,-1.2c0,-.4,.1,-.8,.2,-1.3l.2,-.8c.1,-.5,.3,-1.2,.6,-1.6c.2,-.3,.6,-.9,.9,-.9c.5,0,.4,.3,.4,.6c0,.4,.1,.6,.5,.6c.3,0,.5,-.3,.5,-.7Z" class="g0_190"/>
<path d="M452.9,239.7c-.7,0,-1.1,-.5,-1.1,-1.1c0,-.8,.5,-1.7,1.4,-1.7c1.2,0,1.3,1,1.3,1.9c0,1,-.3,1.5,-.7,2.2c-.3,.4,-.7,.8,-1.2,1.3c-.4,.5,-1.1,1.1,-1.8,1.8v.3h4.5l.4,-2.1h-.3c-.1,.2,-.1,.4,-.2,.6c-.2,.3,-.5,.5,-1,.5h-2.1c.4,-.4,.9,-.7,1.3,-1.1c.8,-.6,1.6,-1.4,2,-2.2c.2,-.4,.3,-.8,.3,-1.2c0,-.3,-.1,-.6,-.2,-.9c-.4,-.7,-1.1,-1.3,-2.2,-1.3c-.7,0,-1.3,.3,-1.7,.6c-.4,.3,-.7,.8,-.7,1.5c0,.4,.1,.8,.3,1c.2,.3,.5,.4,1,.4c.4,0,.6,-.2,.7,-.5Z" class="g0_190"/>
<path d="M461.4,247.1H469v-.8h-7.6Z" class="g0_190"/>
<path d="M476.8,244.2c-.9,0,-1.4,-.7,-1.4,-1.6c0,-1.1,.6,-2.2,1.8,-2.2c1.6,0,1.8,1.3,1.8,2.6c0,1.2,-.4,2,-1,2.9c-.4,.5,-.9,1.1,-1.5,1.8c-.7,.7,-1.5,1.5,-2.6,2.4v.4h6.3l.5,-2.8h-.4c-.1,.3,-.2,.6,-.3,.8c-.3,.5,-.7,.7,-1.4,.7h-2.9c.6,-.5,1.3,-1,1.9,-1.5c1,-.9,2.1,-1.9,2.6,-3.1c.3,-.5,.4,-1.1,.4,-1.6c0,-.4,-.1,-.8,-.2,-1.2c-.5,-1,-1.5,-1.7,-3,-1.7c-1,0,-1.8,.3,-2.4,.8c-.5,.4,-.9,1.1,-.9,2c0,.6,.2,1.1,.5,1.4c.2,.3,.6,.6,1.2,.6c.6,0,1,-.3,1,-.7Z" class="g0_190"/>
<path d="M488.8,245c0,-.5,-.5,-.9,-1,-.9c-.3,0,-.6,.1,-1,.3c-.3,.2,-.6,.5,-.8,.9c0,-.7,-.4,-1.2,-1.1,-1.2c-1.1,0,-2.1,1.1,-2.4,1.9l.2,.1c.4,-.5,1.1,-1.7,2,-1.7c.3,0,.4,.6,.4,1c0,.3,-.1,.7,-.2,1.2l-.4,1.2c-.1,.5,-.4,1.3,-.7,1.7c-.1,.3,-.4,.7,-.8,.7c-.4,0,-.7,-.1,-.6,-.5c.1,-.3,0,-.7,-.4,-.7c-.5,0,-.6,.3,-.6,.7c0,.6,.4,1,1,1c1,0,1.8,-.8,2.1,-1.5h.1c.1,.8,.5,1.5,1.3,1.5c1.2,0,2,-1.2,2.5,-1.9l-.2,-.1c-.5,.6,-1.2,1.6,-2,1.6c-.4,0,-.6,-.6,-.6,-1.2c0,-.4,0,-.8,.1,-1.3l.2,-.8c.1,-.5,.4,-1.2,.6,-1.6c.2,-.3,.6,-.9,1,-.9c.4,0,.4,.3,.3,.6c0,.4,.2,.6,.5,.6c.4,0,.5,-.3,.5,-.7Z" class="g0_190"/>
<path d="M496.5,246.3h-3.2v1h3.2v3.2h1v-3.2h3.3v-1h-3.3V243h-1v3.3Z" class="g0_190"/>
<path d="M506.5,240.8v.3c.5,0,1.1,0,1.3,.1c.5,.3,.5,.4,.5,1.1v6.5c0,.3,0,.5,-.1,.7c-.1,.7,-.9,.8,-1.6,.8v.2h4.7v-.2c-.5,0,-1.3,0,-1.5,-.3c-.2,-.3,-.2,-.8,-.2,-1.3v-8.6c-.8,.4,-2.1,.7,-3.1,.7Z" class="g0_190"/>
<path d="M351.4,275.4l.9,-3.6c.2,-.5,.3,-1,.8,-1.2c.1,0,.2,0,.4,0c1.4,0,2.1,.8,2.1,1.9c0,.4,0,.7,-.2,1c-.6,1,-1.8,1.9,-3.3,1.9h-.7Zm-.6,2.4l.5,-2.1h1c2,0,3.7,-.6,4.5,-1.8c.2,-.4,.3,-.9,.3,-1.3c0,-.8,-.3,-1.3,-.9,-1.7c-.7,-.4,-1.6,-.6,-2.7,-.6h-3.8v.2c.3,0,.5,0,.7,0c.4,.1,.6,.6,.6,1c0,.3,-.1,.6,-.2,1l-1.6,6c-.1,.5,-.4,1.2,-.6,1.5c-.3,.2,-.7,.4,-1.1,.4l-.1,.2h4.5v-.2c-1,0,-1.5,-.6,-1.5,-1.1c0,-.1,.1,-.4,.2,-.7c0,-.2,.1,-.5,.2,-.8Z" class="g0_190"/>
<path d="M360.5,267.1c0,-.3,-.3,-.5,-.5,-.5c-.3,0,-.5,.3,-.6,.6l-.8,2.5c0,0,-.1,.2,-.1,.2c0,.1,.1,.2,.1,.2c.2,0,.3,-.2,.4,-.3l1.3,-2.1c.1,-.1,.2,-.4,.2,-.6Z" class="g0_190"/>
<path d="M367.6,269.9c-2.1,1.4,-3.7,3.8,-3.7,6.9c0,2.7,1.6,5.5,3.7,6.8l.2,-.2c-2,-1.6,-2.6,-3.4,-2.6,-6.7c0,-3.3,.6,-5,2.6,-6.5l-.2,-.3Z" class="g0_190"/>
<path d="M376,275.1c0,-.6,-.5,-1,-1,-1c-.3,0,-.6,.1,-1,.4c-.3,.2,-.6,.5,-.8,.8c0,-.6,-.4,-1.2,-1.1,-1.2c-1.1,0,-2.1,1.2,-2.4,2l.2,.1c.4,-.5,1.1,-1.7,2,-1.7c.3,0,.4,.5,.4,1c0,.3,-.1,.6,-.2,1.1l-.4,1.2c-.1,.6,-.4,1.4,-.7,1.8c-.2,.2,-.4,.7,-.8,.7c-.4,0,-.7,-.1,-.6,-.5c.1,-.4,0,-.8,-.4,-.8c-.5,0,-.6,.3,-.6,.8c0,.5,.4,.9,1,.9c1,0,1.8,-.8,2.1,-1.4h.1c.1,.8,.5,1.4,1.3,1.4c1.2,0,2,-1.1,2.5,-1.8l-.2,-.2c-.5,.6,-1.2,1.7,-2,1.7c-.4,0,-.6,-.7,-.6,-1.3c0,-.3,0,-.7,.1,-1.3l.2,-.7c.1,-.6,.4,-1.3,.6,-1.6c.2,-.3,.6,-1,1,-1c.4,0,.4,.3,.3,.6c0,.4,.2,.6,.5,.6c.4,0,.5,-.3,.5,-.6Z" class="g0_190"/>
<path d="M377.3,269.9l-.2,.3c2,1.5,2.6,3.2,2.6,6.5c0,3.3,-.6,5.1,-2.6,6.7l.2,.2c2.1,-1.3,3.7,-4.1,3.7,-6.8c0,-3.1,-1.6,-5.5,-3.7,-6.9Z" class="g0_190"/>
<path d="M387.2,278.7h7.6v-.8h-7.6Zm0,-3h7.6v-.8h-7.6Z" class="g0_190"/>
<path d="M403.4,280.5c-1,0,-1.7,-1,-1.7,-1.9c0,-.8,.4,-1.4,1.1,-1.4c-.1,-.3,-.5,-.5,-1,-.5c-.2,0,-.4,0,-.6,.1c-.6,.2,-.9,.8,-.9,1.6c0,.3,0,.6,.2,.9c.5,.9,1.6,1.4,3,1.4c1.1,0,1.9,-.3,2.5,-.8c.6,-.5,1,-1.1,1,-2.1c0,-.3,0,-.6,-.2,-.9c-.3,-.9,-1.1,-1.6,-2.1,-1.8V275c.6,-.1,1.1,-.5,1.4,-.9c.3,-.4,.6,-.9,.6,-1.6c0,-.3,-.1,-.7,-.2,-1c-.5,-.9,-1.6,-1.4,-3,-1.4c-.8,0,-1.6,.2,-2.1,.5c-.4,.3,-.8,.8,-.8,1.4c0,.5,.2,.8,.5,1c.1,.3,.5,.4,.9,.4c.2,0,.4,0,.6,-.1c.2,-.1,.3,-.2,.4,-.4c-.6,0,-1,-.4,-1,-1c0,-.8,.7,-1.5,1.5,-1.5c1.1,0,1.6,.9,1.6,2.2c0,1.2,-.3,2.4,-1.4,2.4c-.3,-.1,-.6,-.2,-.9,-.2c-.3,0,-.7,.1,-.7,.4c0,.3,.5,.4,.8,.4c.3,0,.6,-.2,.9,-.3c1.2,0,1.5,1.1,1.5,2.4c0,1.4,-.5,2.8,-1.9,2.8Z" class="g0_190"/>
<path d="M415.1,275.1c0,-.6,-.4,-1,-1,-1c-.3,0,-.6,.1,-.9,.4c-.4,.2,-.7,.5,-.9,.8c0,-.6,-.4,-1.2,-1.1,-1.2c-1.1,0,-2,1.2,-2.4,2l.2,.1c.4,-.5,1.1,-1.7,2,-1.7c.3,0,.4,.5,.4,1c0,.3,-.1,.6,-.2,1.1l-.4,1.2c-.1,.6,-.4,1.4,-.7,1.8c-.1,.2,-.4,.7,-.8,.7c-.4,0,-.7,-.1,-.6,-.5c.1,-.4,0,-.8,-.4,-.8c-.5,0,-.6,.3,-.6,.8c0,.5,.4,.9,1,.9c1,0,1.8,-.8,2.1,-1.4h.1c.1,.8,.5,1.4,1.3,1.4c1.2,0,2,-1.1,2.5,-1.8l-.2,-.2c-.5,.6,-1.2,1.7,-2,1.7c-.4,0,-.6,-.7,-.6,-1.3c0,-.3,0,-.7,.1,-1.3l.2,-.7c.1,-.6,.4,-1.3,.6,-1.6c.2,-.3,.6,-1,1,-1c.4,0,.4,.3,.3,.6c0,.4,.2,.6,.5,.6c.4,0,.5,-.3,.5,-.6Z" class="g0_190"/>
<path d="M418.4,269.8c-.6,0,-1,-.5,-1,-1.2c0,-.8,.4,-1.6,1.3,-1.6c1.2,0,1.3,1,1.3,1.9c0,.9,-.2,1.5,-.7,2.1c-.3,.4,-.7,.9,-1.1,1.4c-.5,.5,-1.1,1,-1.9,1.7v.3h4.6l.4,-2H421c-.1,.2,-.2,.4,-.3,.5c-.1,.4,-.4,.6,-1,.6h-2.1v-.1c.5,-.3,1,-.7,1.4,-1c.7,-.7,1.5,-1.4,1.9,-2.3c.2,-.4,.3,-.8,.3,-1.2c0,-.3,-.1,-.6,-.2,-.8c-.3,-.8,-1.1,-1.3,-2.1,-1.3c-.8,0,-1.4,.2,-1.8,.6c-.4,.3,-.7,.8,-.7,1.4c0,.5,.2,.8,.4,1.1c.2,.2,.5,.4,.9,.4c.4,0,.7,-.2,.7,-.5Z" class="g0_190"/>
<path d="M426.9,277.2h7.6v-.8h-7.6Z" class="g0_190"/>
<path d="M446,275.1c0,-.6,-.5,-1,-1,-1c-.3,0,-.7,.1,-1,.4c-.3,.2,-.6,.5,-.8,.8c0,-.6,-.4,-1.2,-1.1,-1.2c-1.1,0,-2.1,1.2,-2.4,2l.2,.1c.4,-.5,1.1,-1.7,2,-1.7c.2,0,.4,.5,.4,1c0,.3,-.1,.6,-.2,1.1l-.4,1.2c-.2,.6,-.4,1.4,-.7,1.8c-.2,.2,-.4,.7,-.8,.7c-.4,0,-.7,-.1,-.6,-.5c.1,-.4,0,-.8,-.4,-.8c-.5,0,-.7,.3,-.7,.8c0,.5,.5,.9,1.1,.9c1,0,1.7,-.8,2.1,-1.4h.1c.1,.8,.5,1.4,1.3,1.4c1.2,0,2,-1.1,2.4,-1.8l-.1,-.2c-.5,.6,-1.2,1.7,-2,1.7c-.5,0,-.7,-.7,-.7,-1.3c0,-.3,.1,-.7,.2,-1.3l.2,-.7c.1,-.6,.4,-1.3,.6,-1.6c.2,-.3,.6,-1,1,-1c.4,0,.3,.3,.3,.6c0,.4,.1,.6,.5,.6c.3,0,.5,-.3,.5,-.6Z" class="g0_190"/>
<path d="M450.9,277.2h7.7v-.8h-7.7Z" class="g0_190"/>
<path d="M466.4,274.2c-.9,0,-1.5,-.6,-1.5,-1.6c0,-1.1,.6,-2.2,1.9,-2.2c1.6,0,1.8,1.3,1.8,2.6c0,1.3,-.4,2,-1,2.9c-.4,.6,-.9,1.2,-1.6,1.9c-.6,.7,-1.5,1.4,-2.5,2.3v.5h6.3l.5,-2.9h-.5c0,.4,-.2,.6,-.3,.8c-.2,.5,-.6,.8,-1.3,.8h-2.9v-.1c.6,-.5,1.3,-1,1.8,-1.4c1.1,-.9,2.1,-1.9,2.7,-3.1c.3,-.6,.4,-1.1,.4,-1.7c0,-.4,-.1,-.8,-.2,-1.1c-.5,-1.1,-1.5,-1.8,-3,-1.8c-1,0,-1.9,.4,-2.4,.8c-.5,.5,-1,1.1,-1,2c0,.7,.2,1.1,.5,1.5c.3,.3,.7,.5,1.3,.5c.5,0,.9,-.2,1,-.7Z" class="g0_190"/>
<path d="M348.5,300.6l.9,-3.6c.2,-.5,.3,-1.1,.7,-1.2c.1,0,.3,0,.5,0c1.4,0,2.1,.8,2.1,1.9c0,.4,-.1,.7,-.2,1c-.6,1,-1.8,1.9,-3.3,1.9h-.7Zm-.7,2.4l.6,-2.1h1c2,0,3.7,-.6,4.5,-1.9c.2,-.3,.3,-.8,.3,-1.2c0,-.8,-.3,-1.3,-1,-1.7c-.6,-.4,-1.5,-.7,-2.6,-.7h-3.8v.3c.2,0,.5,0,.6,0c.5,.1,.7,.6,.7,1c0,.3,-.1,.6,-.2,1l-1.6,5.9c-.1,.6,-.4,1.3,-.7,1.5c-.2,.3,-.6,.5,-1.1,.5v.2h4.4l.1,-.2c-1,0,-1.5,-.6,-1.5,-1.1c0,-.1,.1,-.4,.1,-.7c.1,-.2,.1,-.5,.2,-.8Z" class="g0_190"/>
<path d="M357.6,292.3c0,-.3,-.3,-.5,-.5,-.5c-.4,0,-.5,.3,-.6,.6l-.8,2.4c-.1,.1,-.1,.3,-.1,.3c0,.1,0,.2,.1,.2c.1,0,.3,-.2,.3,-.3l1.4,-2.1c.1,-.2,.2,-.4,.2,-.6Z" class="g0_190"/>
<path d="M360.5,292.3c0,-.3,-.3,-.5,-.5,-.5c-.3,0,-.5,.3,-.6,.6l-.8,2.4c0,.1,-.1,.3,-.1,.3c0,.1,.1,.2,.1,.2c.2,0,.3,-.2,.4,-.3l1.3,-2.1c.1,-.2,.2,-.4,.2,-.6Z" class="g0_190"/>
<path d="M367.6,295.1c-2.1,1.4,-3.7,3.8,-3.7,6.9c0,2.7,1.6,5.5,3.7,6.8l.2,-.3c-2,-1.5,-2.6,-3.3,-2.6,-6.6c0,-3.3,.6,-5,2.6,-6.5l-.2,-.3Z" class="g0_190"/>
<path d="M376,300.2c0,-.5,-.5,-.9,-1,-.9c-.3,0,-.6,.1,-1,.3c-.3,.3,-.6,.6,-.8,.9c0,-.6,-.4,-1.2,-1.1,-1.2c-1.1,0,-2.1,1.2,-2.4,2l.2,.1c.4,-.5,1.1,-1.7,2,-1.7c.3,0,.4,.5,.4,1c0,.2,-.1,.6,-.2,1.1l-.4,1.2c-.1,.6,-.4,1.4,-.7,1.8c-.2,.2,-.4,.6,-.8,.6c-.4,0,-.7,-.1,-.6,-.5c.1,-.3,0,-.7,-.4,-.7c-.5,0,-.6,.3,-.6,.8c0,.5,.4,.9,1,.9c1,0,1.8,-.8,2.1,-1.4h.1c.1,.8,.5,1.4,1.3,1.4c1.2,0,2,-1.1,2.5,-1.8l-.2,-.2c-.5,.6,-1.2,1.6,-2,1.6c-.4,0,-.6,-.6,-.6,-1.2c0,-.3,0,-.8,.1,-1.3l.2,-.7c.1,-.6,.4,-1.3,.6,-1.7c.2,-.2,.6,-.9,1,-.9c.4,0,.4,.3,.3,.6c0,.4,.2,.6,.5,.6c.4,0,.5,-.3,.5,-.7Z" class="g0_190"/>
<path d="M377.3,295.1l-.2,.3c2,1.5,2.6,3.2,2.6,6.5c0,3.3,-.6,5.1,-2.6,6.6l.2,.3c2.1,-1.3,3.7,-4.1,3.7,-6.8c0,-3.1,-1.6,-5.5,-3.7,-6.9Z" class="g0_190"/>
<path d="M387.2,303.9h7.6v-.8h-7.6Zm0,-3h7.6V300h-7.6Z" class="g0_190"/>
<path d="M405.6,302.4c0,1.6,-.4,3.2,-1.8,3.2c-1.3,0,-1.9,-1.7,-1.9,-3.9V301c.4,-.9,1,-1.7,2,-1.7c1.4,0,1.7,1.6,1.7,3.1Zm1.2,-5.6c0,-.8,-1.3,-1.5,-2.3,-1.5c-3.2,0,-4.1,2.8,-4.1,6c0,2.4,.9,4.6,3.3,4.6c2.1,0,3.4,-1.5,3.4,-3.6c0,-1.9,-1.1,-3.3,-3,-3.3c-1,0,-1.7,.6,-2.1,1.2h-.1c0,-1.1,0,-2.3,.4,-3.1c.3,-.6,.9,-1.5,1.9,-1.5c1.6,0,1.1,1.8,2,1.8c.5,0,.6,-.2,.6,-.6Z" class="g0_190"/>
<path d="M415.1,300.2c0,-.5,-.4,-.9,-1,-.9c-.3,0,-.6,.1,-.9,.3c-.4,.3,-.7,.6,-.9,.9c0,-.6,-.4,-1.2,-1.1,-1.2c-1.1,0,-2,1.2,-2.4,2l.2,.1c.4,-.5,1.1,-1.7,2,-1.7c.3,0,.4,.5,.4,1c0,.2,-.1,.6,-.2,1.1l-.4,1.2c-.1,.6,-.4,1.4,-.7,1.8c-.1,.2,-.4,.6,-.8,.6c-.4,0,-.7,-.1,-.6,-.5c.1,-.3,0,-.7,-.4,-.7c-.5,0,-.6,.3,-.6,.8c0,.5,.4,.9,1,.9c1,0,1.8,-.8,2.1,-1.4h.1c.1,.8,.5,1.4,1.3,1.4c1.2,0,2,-1.1,2.5,-1.8l-.2,-.2c-.5,.6,-1.2,1.6,-2,1.6c-.4,0,-.6,-.6,-.6,-1.2c0,-.3,0,-.8,.1,-1.3l.2,-.7c.1,-.6,.4,-1.3,.6,-1.7c.2,-.2,.6,-.9,1,-.9c.4,0,.4,.3,.3,.6c0,.4,.2,.6,.5,.6c.4,0,.5,-.3,.5,-.7Z" class="g0_190"/>
<path d="M420.1,302.4h7.6v-.9h-7.6Z" class="g0_190"/>
<path d="M433.9,296.1v.2c.4,0,1.1,.1,1.3,.2c.5,.2,.4,.4,.5,1V304c0,.3,0,.6,-.1,.8c-.1,.6,-.9,.7,-1.6,.8v.2h4.7v-.2c-.5,-.1,-1.3,-.1,-1.5,-.4c-.2,-.3,-.2,-.7,-.2,-1.3v-8.6c-.8,.4,-2.1,.7,-3.1,.8Z" class="g0_190"/>
<path d="M345.6,325.8l.9,-3.6c.1,-.5,.3,-1.1,.7,-1.2c.1,-.1,.3,-.1,.4,-.1c1.5,0,2.2,.9,2.2,2c0,.3,-.1,.7,-.3,1c-.5,1,-1.7,1.9,-3.3,1.9h-.6Zm-.7,2.4l.6,-2.1h.9c2.1,0,3.8,-.6,4.5,-1.9c.3,-.4,.4,-.8,.4,-1.3c0,-.7,-.3,-1.2,-1,-1.6c-.6,-.5,-1.5,-.7,-2.7,-.7h-3.7l-.1,.2c.3,.1,.5,.1,.7,.1c.4,.1,.6,.5,.6,1c0,.2,0,.6,-.1,1l-1.6,5.9c-.2,.6,-.4,1.3,-.7,1.5c-.2,.3,-.7,.5,-1.1,.5v.2H346l.1,-.2c-1,0,-1.5,-.6,-1.5,-1.1c0,-.2,.1,-.4,.1,-.7c.1,-.2,.1,-.5,.2,-.8Z" class="g0_190"/>
<path d="M354.7,317.5c0,-.3,-.3,-.5,-.6,-.5c-.3,0,-.4,.3,-.5,.5l-.9,2.5c0,.1,0,.2,0,.3c0,.1,0,.2,.1,.2c.1,0,.3,-.2,.3,-.3l1.3,-2.1c.2,-.2,.3,-.4,.3,-.6Z" class="g0_190"/>
<path d="M357.6,317.5c0,-.3,-.3,-.5,-.5,-.5c-.4,0,-.5,.3,-.6,.5l-.8,2.5c-.1,.1,-.1,.2,-.1,.3c0,.1,0,.2,.1,.2c.1,0,.3,-.2,.3,-.3l1.4,-2.1c.1,-.2,.2,-.4,.2,-.6Z" class="g0_190"/>
<path d="M360.5,317.5c0,-.3,-.3,-.5,-.5,-.5c-.3,0,-.5,.3,-.6,.5l-.8,2.5c0,.1,-.1,.2,-.1,.3c0,.1,.1,.2,.1,.2c.2,0,.3,-.2,.4,-.3l1.3,-2.1c.1,-.2,.2,-.4,.2,-.6Z" class="g0_190"/>
<path d="M367.6,320.3c-2.1,1.4,-3.7,3.8,-3.7,6.8c0,2.8,1.6,5.6,3.7,6.9l.2,-.3c-2,-1.5,-2.6,-3.3,-2.6,-6.6c0,-3.3,.6,-5,2.6,-6.6l-.2,-.2Z" class="g0_190"/>
<path d="M376,325.4c0,-.5,-.5,-.9,-1,-.9c-.3,0,-.6,.1,-1,.3c-.3,.2,-.6,.5,-.8,.9c0,-.7,-.4,-1.2,-1.1,-1.2c-1.1,0,-2.1,1.2,-2.4,1.9l.2,.2c.4,-.5,1.1,-1.7,2,-1.7c.3,0,.4,.5,.4,.9c0,.3,-.1,.7,-.2,1.2l-.4,1.2c-.1,.5,-.4,1.3,-.7,1.7c-.2,.3,-.4,.7,-.8,.7c-.4,0,-.7,-.1,-.6,-.5c.1,-.3,0,-.7,-.4,-.7c-.5,0,-.6,.3,-.6,.7c0,.6,.4,1,1,1c1,0,1.8,-.8,2.1,-1.5l.1,.1c.1,.8,.5,1.4,1.3,1.4c1.2,0,2,-1.2,2.5,-1.8l-.2,-.2c-.5,.6,-1.2,1.6,-2,1.6c-.4,0,-.6,-.6,-.6,-1.2c0,-.3,0,-.8,.1,-1.3l.2,-.8c.1,-.5,.4,-1.2,.6,-1.6c.2,-.3,.6,-.9,1,-.9c.4,0,.4,.3,.3,.6c0,.4,.2,.6,.5,.6c.4,0,.5,-.3,.5,-.7Z" class="g0_190"/>
<path d="M377.3,320.3l-.2,.2c2,1.6,2.6,3.3,2.6,6.6c0,3.3,-.6,5.1,-2.6,6.6l.2,.3c2.1,-1.3,3.7,-4.1,3.7,-6.9c0,-3,-1.6,-5.4,-3.7,-6.8Z" class="g0_190"/>
<path d="M387.2,329.1h7.6v-.9h-7.6Zm0,-3h7.6v-.9h-7.6Z" class="g0_190"/>
<path d="M405.6,327.5c0,1.7,-.4,3.3,-1.8,3.3c-1.3,0,-1.9,-1.7,-1.9,-3.9v-.7c.4,-.9,1,-1.8,2,-1.8c1.4,0,1.7,1.7,1.7,3.1Zm1.2,-5.6c0,-.7,-1.3,-1.4,-2.3,-1.4c-3.2,0,-4.1,2.8,-4.1,5.9c0,2.5,.9,4.7,3.3,4.7c2.1,0,3.4,-1.6,3.4,-3.6c0,-1.9,-1.1,-3.4,-3,-3.4c-1,0,-1.7,.6,-2.1,1.3h-.1c0,-1.2,0,-2.3,.4,-3.1c.3,-.6,.9,-1.5,1.9,-1.5c1.6,0,1.1,1.8,2,1.8c.5,0,.6,-.2,.6,-.7Z" class="g0_190"/>
<path d="M402.9,436.4c-.4,0,-.9,.2,-1.3,.5c-.4,.3,-.9,.7,-1.2,1.1c-.7,.8,-1.3,2,-1.3,3.3c0,1,.4,1.7,1.3,1.7c1.3,0,1.8,-.8,2.2,-1.5c-.2,.9,-.1,1.5,.6,1.5c.3,0,.7,-.1,1.1,-.4c.4,-.4,.8,-.8,1.1,-1.4l-.2,-.2c-.3,.4,-.9,1.4,-1.3,1.4c-.2,0,-.3,-.3,-.3,-.6c0,-.9,.6,-2.4,.9,-3.4l.7,-1.8h-1l-.2,.6c-.2,-.5,-.5,-.8,-1.1,-.8Zm.1,.3c.7,0,.6,1.3,.5,1.9c-.1,.3,-.2,.6,-.3,1c-.4,1.2,-1.5,3.1,-2.3,3.1c-.6,0,-.7,-1,-.7,-1.5c0,-.4,0,-.8,.1,-1.3c.4,-1,1.5,-3.2,2.7,-3.2Z" class="g0_190"/>
<path d="M411,441h7.7v-.8H411Zm0,-3h7.7v-.8H411Z" class="g0_190"/>
<path d="M428.6,432.3c-2.2,1.4,-3.7,3.8,-3.7,6.8c0,2.8,1.6,5.6,3.6,6.8l.2,-.2c-2,-1.6,-2.5,-3.4,-2.5,-6.7c0,-3.3,.6,-5,2.5,-6.5l-.1,-.2Z" class="g0_190"/>
<path d="M434.2,436.4c-.4,0,-.8,.2,-1.3,.5c-.4,.3,-.8,.7,-1.2,1.1c-.6,.8,-1.3,2,-1.3,3.3c0,1,.4,1.7,1.4,1.7c1.2,0,1.7,-.8,2.1,-1.5h.1c-.3,.9,-.1,1.5,.5,1.5c.4,0,.7,-.1,1.1,-.4c.4,-.4,.8,-.8,1.1,-1.4l-.2,-.2c-.2,.4,-.9,1.4,-1.3,1.4c-.2,0,-.3,-.3,-.3,-.6c0,-.9,.6,-2.4,1,-3.4l.7,-1.8h-1l-.3,.6c-.2,-.5,-.5,-.8,-1.1,-.8Zm.2,.3c.7,0,.5,1.3,.4,1.9c0,.3,-.2,.6,-.3,1c-.4,1.2,-1.4,3.1,-2.2,3.1c-.6,0,-.8,-1,-.8,-1.5c0,-.4,0,-.8,.2,-1.3c.4,-1,1.4,-3.2,2.7,-3.2Z" class="g0_190"/>
<path d="M444.8,437.4c0,-.6,-.4,-1,-1,-1c-.3,0,-.6,.2,-.9,.4c-.3,.2,-.6,.5,-.9,.9c0,-.7,-.4,-1.3,-1,-1.3c-1.1,0,-2.1,1.2,-2.5,2l.3,.1c.3,-.5,1,-1.7,1.9,-1.7c.3,0,.4,.6,.4,1c0,.3,0,.7,-.2,1.1l-.3,1.2c-.2,.6,-.4,1.4,-.7,1.8c-.2,.3,-.5,.7,-.8,.7c-.5,0,-.8,-.1,-.7,-.5c.1,-.3,.1,-.8,-.4,-.8c-.4,0,-.6,.3,-.6,.8c0,.6,.5,.9,1.1,.9c1,0,1.7,-.7,2.1,-1.4c.1,.8,.5,1.4,1.3,1.4c1.2,0,2.1,-1.1,2.5,-1.8l-.2,-.2c-.5,.7,-1.2,1.7,-2,1.7c-.4,0,-.6,-.6,-.6,-1.2c0,-.4,0,-.8,.2,-1.4l.1,-.7c.2,-.6,.4,-1.2,.7,-1.6c.2,-.3,.5,-1,.9,-1c.4,0,.4,.3,.4,.6c-.1,.4,.1,.6,.4,.6c.4,0,.5,-.3,.5,-.6Z" class="g0_190"/>
<path d="M446.1,432.3l-.1,.2c1.9,1.5,2.5,3.2,2.5,6.5c0,3.3,-.5,5.1,-2.5,6.7l.2,.2c2,-1.2,3.6,-4,3.6,-6.8c0,-3,-1.5,-5.4,-3.7,-6.8Z" class="g0_190"/>
<path d="M453.7,429.4c0,-.2,-.3,-.4,-.5,-.4c-.3,0,-.5,.3,-.5,.5l-.9,2.5c0,0,-.1,.2,-.1,.3c0,0,.1,.1,.2,.1c.1,0,.2,-.1,.3,-.2l1.3,-2.1c.1,-.2,.2,-.4,.2,-.7Z" class="g0_190"/>
<path d="M395.2,574.3c1.3,0,1,2,.4,3.3c-.3,.8,-1.3,2.7,-2.4,2.7c-.5,0,-.7,-.3,-.7,-1c0,-.7,.3,-1.8,.5,-2.3c.3,-.6,.8,-1.6,1.2,-2.1c.2,-.3,.6,-.6,1,-.6Zm-2.2,6.3c1.7,0,2.9,-1.5,3.5,-2.6c.3,-.6,.6,-1.4,.6,-2.3c0,-1,-.5,-1.7,-1.5,-1.7c-.9,0,-1.6,.6,-2,1.2l1.5,-5.6l-2.1,.1v.2c.6,0,.9,.3,.9,.6c0,.1,-.2,.5,-.2,.7l-1.6,5.7c-.2,.5,-.3,1,-.4,1.3c-.1,.4,-.1,.7,-.1,.9c0,.9,.5,1.5,1.4,1.5Z" class="g0_190"/>
<path d="M402.9,578.6h7.6v-.8h-7.6Zm0,-3h7.6v-.9h-7.6Z" class="g0_190"/>
<path d="M421.5,594.3c-2.3,-3.4,-2.9,-12.4,-2.9,-17.9c0,-5.5,.6,-13.8,2.9,-17.2l-.2,-.6c-2.2,3.2,-4.1,8,-4.1,17.8c0,9.9,2,15.8,4.1,18.5l.2,-.6Z" class="g0_190"/>
<path d="M428.8,564.3c1.2,0,.9,1.9,.3,3.2c-.3,.8,-1.2,2.7,-2.4,2.7c-.5,0,-.7,-.3,-.7,-1c0,-.7,.3,-1.8,.5,-2.3c.3,-.6,.8,-1.6,1.2,-2.1c.2,-.3,.6,-.5,1.1,-.5Zm-2.3,6.2c1.7,0,2.9,-1.5,3.5,-2.6c.3,-.6,.6,-1.4,.6,-2.3c0,-1,-.5,-1.7,-1.5,-1.7c-.9,0,-1.6,.6,-2,1.2l1.5,-5.6l-2.1,.1v.2c.6,0,.9,.3,.9,.6c0,.2,-.2,.5,-.2,.7l-1.6,5.7c-.2,.5,-.3,1,-.4,1.3c-.1,.4,-.1,.7,-.1,.9c0,.9,.6,1.5,1.4,1.5Z" class="g0_190"/>
<path d="M424,577.1h8.4v-.9H424Z" class="g0_190"/>
<path d="M427.6,584.3c-.9,0,-1.4,-.6,-1.4,-1.5c0,-1.1,.5,-2.3,1.8,-2.3c1.6,0,1.8,1.4,1.8,2.6c0,1.3,-.4,2,-1,2.9c-.4,.6,-.9,1.2,-1.5,1.9c-.7,.7,-1.5,1.5,-2.6,2.4v.4H431l.5,-2.8h-.4c-.1,.3,-.3,.5,-.4,.7c-.2,.5,-.6,.8,-1.3,.8h-2.9v-.1c.6,-.4,1.3,-.9,1.9,-1.4c1,-.9,2.1,-1.9,2.6,-3.1c.3,-.5,.4,-1.1,.4,-1.6c0,-.5,-.1,-.9,-.2,-1.2c-.5,-1,-1.5,-1.8,-3,-1.8c-1,0,-1.9,.4,-2.4,.8c-.5,.5,-1,1.1,-1,2c0,.7,.2,1.1,.6,1.5c.2,.3,.6,.5,1.2,.5c.5,0,.9,-.2,1,-.7Z" class="g0_190"/>
<path d="M441.4,575c0,-.6,-.5,-1,-1,-1c-.3,0,-.7,.1,-1,.3c-.3,.3,-.6,.6,-.8,.9c0,-.6,-.4,-1.2,-1.1,-1.2c-1.1,0,-2.1,1.2,-2.4,2l.2,.1c.3,-.5,1.1,-1.7,2,-1.7c.2,0,.4,.5,.4,1c0,.3,-.1,.6,-.3,1.1l-.3,1.2c-.2,.6,-.4,1.4,-.7,1.8c-.2,.2,-.4,.6,-.8,.6c-.4,0,-.7,0,-.6,-.4c.1,-.4,0,-.8,-.4,-.8c-.5,0,-.7,.3,-.7,.8c0,.5,.5,.9,1.1,.9c1,0,1.7,-.8,2.1,-1.4c.2,.8,.6,1.4,1.4,1.4c1.2,0,2,-1.1,2.4,-1.8l-.2,-.2c-.4,.6,-1.1,1.6,-1.9,1.6c-.5,0,-.7,-.6,-.7,-1.2c0,-.3,.1,-.8,.2,-1.3l.2,-.7c.1,-.6,.3,-1.3,.6,-1.7c.2,-.2,.6,-.9,.9,-.9c.5,0,.4,.3,.4,.6c0,.4,.1,.6,.5,.6c.3,0,.5,-.3,.5,-.6Z" class="g0_190"/>
<path d="M444.7,569.7c-.7,0,-1.1,-.5,-1.1,-1.2c0,-.8,.5,-1.6,1.4,-1.6c1.2,0,1.3,1,1.3,1.9c0,.9,-.3,1.5,-.7,2.1c-.3,.4,-.7,.9,-1.1,1.4c-.5,.5,-1.1,1,-1.9,1.7v.3h4.6l.3,-2.1h-.3c0,.3,-.1,.5,-.2,.6c-.2,.4,-.5,.6,-1,.6h-2.1v-.1c.5,-.3,.9,-.7,1.4,-1c.7,-.7,1.5,-1.4,1.9,-2.3c.2,-.4,.3,-.8,.3,-1.2c0,-.3,-.1,-.6,-.2,-.9c-.4,-.7,-1.1,-1.2,-2.2,-1.2c-.7,0,-1.3,.2,-1.7,.6c-.4,.3,-.7,.8,-.7,1.4c0,.5,.1,.8,.4,1.1c.2,.2,.4,.4,.9,.4c.4,0,.7,-.2,.7,-.5Z" class="g0_190"/>
<path d="M449.7,594.3l.2,.6c2.1,-2.7,4.1,-8.6,4.1,-18.5c0,-9.8,-2,-14.6,-4.1,-17.8l-.2,.6c2.2,3.4,2.8,11.7,2.8,17.2c0,5.5,-.6,14.5,-2.8,17.9Z" class="g0_190"/>
<path d="M458.4,555.5c0,-.3,-.3,-.5,-.6,-.5c-.3,0,-.4,.3,-.5,.5l-.8,2.5c-.1,.1,-.1,.2,-.1,.3c0,.1,0,.2,.1,.2c.1,0,.3,-.2,.3,-.3l1.4,-2.1c.1,-.2,.2,-.4,.2,-.6Z" class="g0_190"/>
<path d="M461.3,555.3c-.1,-.2,-.3,-.3,-.5,-.3c-.3,0,-.5,.3,-.6,.5l-.8,2.5c0,.1,-.1,.2,-.1,.3c0,.1,.1,.2,.1,.2c.2,0,.3,-.2,.4,-.3l1.3,-2.1c.1,-.1,.1,-.2,.2,-.4v-.4Z" class="g0_190"/>
<path d="M391.8,702.3c0,-.4,.1,-.9,.2,-1.4c.3,-1,1.1,-2.9,2.2,-2.9c.4,0,.4,.2,.4,.3c0,.1,-.1,.2,-.1,.4c0,.4,.2,.6,.5,.6c.4,0,.7,-.2,.7,-.6c0,-.7,-.6,-1,-1.3,-1c-1.5,0,-2.6,1.4,-3.1,2.5c-.4,.6,-.6,1.3,-.6,2.1c0,1.1,.6,2,1.7,2c1.3,0,2.1,-1.1,2.6,-2.1l-.3,-.1c-.4,1,-1.2,1.9,-2,1.9c-.6,0,-.9,-1,-.9,-1.7Z" class="g0_190"/>
<path d="M401.2,702.3h7.6v-.9h-7.6Zm0,-3h7.6v-.9h-7.6Z" class="g0_190"/>
<path d="M419.6,713.2c-2.2,-2.6,-2.8,-8.9,-2.8,-13c0,-4.1,.6,-10.3,2.8,-12.9l-.2,-.5c-1.6,1.9,-3.9,6,-3.9,13.4c0,7.4,2.2,11.6,3.9,13.4l.2,-.4Z" class="g0_190"/>
<path d="M424.6,692.2c0,-.4,.1,-.9,.3,-1.4c.3,-1,1,-2.9,2.2,-2.9c.3,0,.3,.2,.3,.3c0,.1,-.1,.2,-.1,.4c0,.4,.2,.6,.6,.6c.4,0,.6,-.2,.6,-.6c0,-.7,-.6,-1,-1.3,-1c-1.4,0,-2.5,1.4,-3.1,2.5c-.3,.6,-.6,1.3,-.6,2.1c0,1.1,.6,2,1.7,2c1.3,0,2.2,-1.1,2.6,-2.1l-.2,-.1c-.5,1,-1.2,1.9,-2.1,1.9c-.6,0,-.9,-1,-.9,-1.7Z" class="g0_190"/>
<path d="M422.1,700.7h8.4v-.8h-8.4Z" class="g0_190"/>
<path d="M428.2,711c0,1.7,-.4,3.3,-1.9,3.3c-1.2,0,-1.8,-1.8,-1.8,-4v-.6c.4,-.9,.9,-1.8,2,-1.8c1.3,0,1.7,1.6,1.7,3.1Zm1.2,-5.6c0,-.7,-1.3,-1.5,-2.4,-1.5c-3.1,0,-4.1,2.8,-4.1,6c0,2.4,1,4.6,3.4,4.6c2.1,0,3.4,-1.5,3.4,-3.6c0,-1.9,-1.1,-3.3,-3,-3.3c-1,0,-1.7,.6,-2.2,1.3v-.1c0,-1.1,0,-2.3,.4,-3.1c.3,-.5,.9,-1.5,1.9,-1.5c1.6,0,1.1,1.8,2,1.8c.5,0,.6,-.2,.6,-.6Z" class="g0_190"/>
<path d="M439.5,698.6c0,-.5,-.5,-.9,-1,-.9c-.3,0,-.7,.1,-1,.3c-.3,.2,-.6,.5,-.8,.9c0,-.7,-.4,-1.2,-1.1,-1.2c-1.1,0,-2.1,1.2,-2.4,1.9l.2,.2c.3,-.5,1.1,-1.7,2,-1.7c.2,0,.4,.5,.4,.9c0,.3,-.1,.7,-.3,1.2l-.3,1.2c-.2,.5,-.4,1.3,-.7,1.7c-.2,.3,-.4,.7,-.8,.7c-.4,0,-.7,-.1,-.6,-.5c.1,-.3,0,-.7,-.4,-.7c-.5,0,-.7,.3,-.7,.7c0,.6,.5,1,1.1,1c1,0,1.7,-.8,2.1,-1.5v.1c.2,.8,.6,1.4,1.4,1.4c1.2,0,2,-1.2,2.4,-1.8l-.2,-.2c-.4,.6,-1.1,1.6,-1.9,1.6c-.5,0,-.7,-.6,-.7,-1.2c0,-.3,.1,-.8,.2,-1.3l.2,-.8c.1,-.5,.3,-1.2,.6,-1.6c.2,-.3,.6,-.9,.9,-.9c.5,0,.4,.3,.4,.6c0,.4,.1,.6,.5,.6c.3,0,.5,-.3,.5,-.7Z" class="g0_190"/>
<path d="M443,697.9c-.7,0,-1.2,-.7,-1.2,-1.4c0,-.5,.3,-.9,.8,-.9c-.1,-.3,-.4,-.5,-.8,-.5c-.1,0,-.3,.1,-.4,.1c-.4,.2,-.7,.6,-.7,1.2c0,.2,.1,.4,.2,.7c.4,.6,1.1,1,2.2,1c.8,0,1.4,-.2,1.8,-.6c.4,-.3,.7,-.8,.7,-1.5c0,-.3,0,-.5,-.1,-.7c-.2,-.7,-.8,-1.1,-1.5,-1.3v-.1c.4,-.1,.7,-.3,1,-.6c.2,-.3,.4,-.7,.4,-1.2c0,-.2,0,-.5,-.1,-.7c-.4,-.7,-1.2,-1,-2.2,-1c-.6,0,-1.2,.1,-1.5,.3c-.3,.3,-.6,.6,-.6,1c0,.4,.1,.6,.3,.8c.1,.2,.4,.3,.7,.3c.2,0,.3,0,.5,-.1c.1,-.1,.1,-.2,.2,-.3c-.4,0,-.7,-.3,-.7,-.7c0,-.6,.5,-1.1,1.1,-1.1c.8,0,1.2,.6,1.2,1.6c0,.8,-.3,1.7,-1.1,1.7c-.2,0,-.4,-.1,-.6,-.1c-.2,0,-.5,0,-.5,.2c0,.3,.3,.4,.5,.4c.3,0,.5,-.2,.7,-.2c.9,0,1.1,.8,1.1,1.7c0,1,-.4,2,-1.4,2Z" class="g0_190"/>
<path d="M447.8,713.2l.2,.4c1.7,-1.8,3.9,-6,3.9,-13.4c0,-7.4,-2.3,-11.5,-3.9,-13.4l-.2,.5c2.1,2.6,2.7,8.8,2.7,12.9c0,4.1,-.6,10.4,-2.7,13Z" class="g0_190"/>
<path d="M456.3,683.7c0,-.2,-.3,-.4,-.5,-.4c-.3,0,-.5,.2,-.6,.5l-.8,2.5c-.1,0,-.1,.2,-.1,.3c0,0,0,.1,.1,.1c.1,0,.3,-.1,.3,-.2l1.4,-2.2c.1,-.1,.2,-.4,.2,-.6Z" class="g0_190"/>
<path d="M459.2,683.7c0,-.2,-.3,-.4,-.5,-.4c-.3,0,-.5,.2,-.5,.5l-.9,2.5c0,0,-.1,.2,-.1,.3c0,0,.1,.1,.1,.1c.2,0,.3,-.1,.4,-.2l1.3,-2.2c.1,-.1,.2,-.4,.2,-.6Z" class="g0_190"/>
<path d="M462.2,683.7c0,-.2,-.3,-.4,-.6,-.4c-.3,0,-.4,.2,-.5,.5l-.9,2.5c0,0,-.1,.2,-.1,.3c0,0,.1,.1,.2,.1c.1,0,.2,-.1,.3,-.2l1.3,-2.2c.2,-.1,.3,-.4,.3,-.6Z" class="g0_190"/>
</svg>