<?xml version="1.0" encoding="UTF-8" standalone="no"?>
<!DOCTYPE svg PUBLIC "-//W3C//DTD SVG 1.1//EN"
"http://www.w3.org/Graphics/SVG/1.1/DTD/svg11.dtd">
<svg viewBox="0 0 811 1017" version="1.1" xmlns="http://www.w3.org/2000/svg" xmlns:xlink="http://www.w3.org/1999/xlink">
<defs>
<style type="text/css"><![CDATA[
.g0_58{
fill: #0E0E0E;
}
]]></style>
</defs>
<path d="M387.3,120.1c0,-.6,-.4,-1,-1,-1c-.3,0,-.6,.2,-.9,.4c-.4,.2,-.7,.5,-.9,.9c0,-.7,-.4,-1.3,-1,-1.3c-1.2,0,-2.1,1.2,-2.5,2l.2,.1c.4,-.5,1.1,-1.7,2,-1.7c.3,0,.4,.6,.4,1c0,.3,-.1,.7,-.2,1.1l-.4,1.2c-.1,.6,-.4,1.4,-.7,1.8c-.1,.3,-.4,.7,-.8,.7c-.4,0,-.7,-.1,-.6,-.5c.1,-.3,0,-.8,-.4,-.8c-.4,0,-.6,.3,-.6,.8c0,.6,.5,.9,1,.9c1,0,1.8,-.7,2.2,-1.4c.1,.8,.5,1.4,1.3,1.4c1.2,0,2,-1.1,2.5,-1.8l-.2,-.2c-.5,.7,-1.2,1.7,-2,1.7c-.4,0,-.6,-.6,-.6,-1.2c0,-.4,0,-.8,.1,-1.4l.2,-.7c.1,-.6,.4,-1.2,.6,-1.6c.2,-.3,.6,-1,1,-1c.4,0,.4,.3,.3,.6c0,.4,.2,.6,.5,.6c.4,0,.5,-.3,.5,-.6Z" class="g0_58"/>
<path d="M392.3,122.2h7.6v-.8h-7.6Z" class="g0_58"/>
<path d="M411.3,120.1c0,-.6,-.4,-1,-1,-1c-.3,0,-.6,.2,-.9,.4c-.3,.2,-.6,.5,-.9,.9c0,-.7,-.4,-1.3,-1,-1.3c-1.1,0,-2.1,1.2,-2.4,2l.2,.1c.3,-.5,1.1,-1.7,1.9,-1.7c.3,0,.4,.6,.4,1c0,.3,0,.7,-.2,1.1l-.3,1.2c-.2,.6,-.4,1.4,-.7,1.8c-.2,.3,-.5,.7,-.8,.7c-.5,0,-.8,-.1,-.7,-.5c.1,-.3,.1,-.8,-.4,-.8c-.4,0,-.6,.3,-.6,.8c0,.6,.5,.9,1.1,.9c1,0,1.7,-.7,2.1,-1.4c.1,.8,.5,1.4,1.4,1.4c1.1,0,2,-1.1,2.4,-1.8l-.2,-.2c-.5,.7,-1.2,1.7,-2,1.7c-.4,0,-.6,-.6,-.6,-1.2c0,-.4,0,-.8,.2,-1.4l.2,-.7c.1,-.6,.3,-1.2,.6,-1.6c.2,-.3,.5,-1,.9,-1c.4,0,.4,.3,.4,.6c-.1,.4,.1,.6,.4,.6c.4,0,.5,-.3,.5,-.6Z" class="g0_58"/>
<path d="M412.5,126.6c0,-1.8,.7,-3.2,1.7,-3.2c.4,0,.7,.2,.7,.8c0,.3,0,.7,-.2,1.2c-.1,.7,-.7,2.3,-1.5,2.3c-.5,0,-.7,-.6,-.7,-1.1Zm.6,1.3c.8,0,1.4,-.5,1.7,-1c.4,-.5,.9,-1.3,.9,-2.1c0,-.5,-.2,-1,-.5,-1.2c-.2,-.3,-.5,-.5,-1,-.5c-.3,0,-.6,.1,-.9,.3c-.6,.3,-1.1,.9,-1.4,1.7c-.2,.3,-.2,.7,-.2,1.1c0,.5,.1,1,.4,1.3c.3,.2,.5,.4,1,.4Z" class="g0_58"/>
<path d="M380.1,132.3H417v-.8H380.1Z" class="g0_58"/>
<path d="M398.8,140.4c0,-.5,-.4,-.9,-1,-.9c-.3,0,-.6,.1,-.9,.3c-.3,.2,-.6,.5,-.9,.9c0,-.7,-.4,-1.2,-1,-1.2c-1.1,0,-2.1,1.1,-2.4,1.9l.2,.1c.3,-.5,1,-1.7,1.9,-1.7c.3,0,.4,.6,.4,1c0,.3,0,.7,-.2,1.2l-.3,1.1c-.2,.6,-.4,1.4,-.7,1.8c-.2,.3,-.5,.7,-.8,.7c-.5,0,-.8,-.1,-.7,-.5c.1,-.3,.1,-.7,-.4,-.7c-.4,0,-.6,.3,-.6,.7c0,.6,.5,1,1.1,1c1,0,1.7,-.8,2.1,-1.5c.1,.8,.5,1.5,1.4,1.5c1.1,0,2,-1.2,2.4,-1.9l-.2,-.1c-.5,.6,-1.2,1.6,-2,1.6c-.4,0,-.6,-.6,-.6,-1.2c0,-.4,0,-.8,.2,-1.4l.2,-.7c.1,-.5,.3,-1.2,.6,-1.6c.2,-.3,.5,-.9,.9,-.9c.4,0,.4,.3,.4,.6c-.1,.4,.1,.6,.4,.6c.4,0,.5,-.3,.5,-.7Z" class="g0_58"/>
<path d="M402.4,144.7c0,.5,-.2,1.2,-.3,1.5c-.1,.5,-.5,1.3,-.8,1.7c-.2,.2,-.5,.6,-.9,.6c-.3,0,-.6,-.4,-.6,-.7c0,-.5,.2,-1.3,.3,-1.7c.3,-.7,.9,-2,1.8,-2c.3,0,.5,.3,.5,.6Zm.1,4c.3,0,.6,-.1,.8,-.4c.2,-.3,.5,-.7,.7,-1.3l-.3,-.1c-.1,.4,-.5,1.4,-.9,1.4c-.2,0,-.3,-.3,-.3,-.5c0,-.1,0,-.3,.1,-.4c0,-.5,.1,-.8,.3,-1.3c0,-.4,.1,-.8,.3,-1.2l1.1,-4.3h-1.6l-.1,.2c.3,0,.4,0,.5,.1c.2,.1,.3,.2,.3,.3c0,.2,-.1,.4,-.2,.6l-.6,2.6c-.2,-.4,-.4,-.5,-.8,-.5c-.7,0,-1.4,.6,-1.8,1.1c-.2,.3,-.3,.5,-.5,.8c-.2,.4,-.4,.9,-.4,1.5c0,.5,.1,.8,.3,1c.1,.2,.4,.4,.7,.4c1,0,1.4,-.6,1.8,-1.2c0,.1,0,.2,0,.2c0,.1,-.1,.2,-.1,.2c0,.5,.3,.8,.7,.8Z" class="g0_58"/>
<path d="M423.6,133.8h7.6V133h-7.6Zm0,-3h7.6V130h-7.6Z" class="g0_58"/>
<path d="M436.7,127.8c0,.6,.5,.9,1.1,.9c.4,0,.8,-.1,1.3,-.5c.8,-.7,2,-2.3,2.8,-3.5c.4,-.6,.7,-1.2,1,-1.8c.4,-.8,1.1,-2.1,1.1,-2.9c0,-.2,0,-.4,-.1,-.6c-.1,-.2,-.3,-.3,-.5,-.3c-.1,0,-.3,.1,-.4,.2c-.2,.2,-.2,.4,-.2,.7c0,.4,.2,.9,.2,1.3c0,.6,-.2,1.1,-.4,1.6c-.3,.5,-.5,.9,-.9,1.4l-.4,-1.9c-.1,-.6,-.3,-1.6,-.4,-2.1c-.2,-.6,-.3,-1.2,-1.3,-1.2c-1.2,0,-1.4,1.8,-1.6,2.6l.3,.1c.1,-.6,.6,-2.3,1,-2.3c.3,0,.5,1,.6,1.2c0,.3,.1,.7,.2,1.4l.6,3.5c-.3,.8,-1.1,1.7,-1.8,2.2c-.2,.1,-.5,.2,-.7,.2q-.1,0,-.2,-.1c-.2,-.3,-.2,-.8,-.7,-.8c-.4,0,-.6,.3,-.6,.7Z" class="g0_58"/>
<path d="M449.1,122.2h7.6v-.8h-7.6Z" class="g0_58"/>
<path d="M459.9,127.8c0,.6,.5,.9,1.1,.9c.4,0,.8,-.1,1.3,-.5c.8,-.7,2.1,-2.3,2.8,-3.5c.4,-.6,.7,-1.2,1,-1.8c.4,-.8,1.1,-2.1,1.1,-2.9c0,-.2,0,-.4,-.1,-.6c-.1,-.2,-.3,-.3,-.5,-.3c-.1,0,-.3,.1,-.4,.2c-.2,.2,-.2,.4,-.2,.7c0,.4,.2,.9,.2,1.3c0,.6,-.2,1.1,-.4,1.6c-.3,.5,-.5,.9,-.9,1.4l-.4,-1.9c-.1,-.6,-.3,-1.6,-.4,-2.1c-.2,-.6,-.3,-1.2,-1.3,-1.2c-1.2,0,-1.4,1.8,-1.6,2.6l.3,.1c.1,-.6,.6,-2.3,1,-2.3c.4,0,.5,1,.6,1.2c0,.3,.1,.7,.2,1.4l.6,3.5c-.3,.8,-1.1,1.7,-1.7,2.2c-.3,.1,-.6,.2,-.8,.2q-.1,0,-.2,-.1c-.2,-.3,-.2,-.8,-.7,-.8c-.4,0,-.6,.3,-.6,.7Z" class="g0_58"/>
<path d="M468.4,126.6c0,-1.8,.7,-3.2,1.7,-3.2c.4,0,.7,.2,.7,.8c0,.3,0,.7,-.1,1.2c-.2,.7,-.8,2.3,-1.6,2.3c-.4,0,-.7,-.6,-.7,-1.1Zm.7,1.3c.7,0,1.3,-.5,1.7,-1c.4,-.5,.8,-1.3,.8,-2.1c0,-.5,-.2,-1,-.4,-1.2c-.3,-.3,-.6,-.5,-1.1,-.5c-.3,0,-.6,.1,-.9,.3c-.6,.3,-1.1,.9,-1.4,1.7c-.1,.3,-.2,.7,-.2,1.1c0,.5,.2,1,.4,1.3c.3,.2,.6,.4,1.1,.4Z" class="g0_58"/>
<path d="M437.7,132.3H473v-.8H437.7Z" class="g0_58"/>
<path d="M447.8,148.1c0,.6,.5,1,1.1,1c.5,0,.8,-.2,1.3,-.6c.8,-.7,2.1,-2.2,2.8,-3.4c.4,-.7,.8,-1.3,1,-1.8c.4,-.8,1.2,-2.2,1.2,-3c0,-.2,-.1,-.4,-.2,-.6c-.1,-.2,-.3,-.2,-.4,-.2c-.2,0,-.3,0,-.5,.2c-.1,.1,-.2,.3,-.2,.6c0,.5,.2,.9,.2,1.3c0,.6,-.2,1.2,-.4,1.6c-.3,.5,-.5,.9,-.8,1.5h-.1l-.4,-2c-.1,-.5,-.3,-1.6,-.4,-2c-.2,-.7,-.3,-1.2,-1.3,-1.2c-1.2,0,-1.3,1.7,-1.6,2.5l.3,.1c.1,-.6,.6,-2.3,1.1,-2.3c.3,0,.4,1,.5,1.3c.1,.3,.2,.7,.3,1.3l.5,3.5c-.3,.8,-1.1,1.7,-1.7,2.2c-.3,.2,-.6,.3,-.7,.3c-.2,0,-.2,-.1,-.3,-.2c-.2,-.3,-.2,-.8,-.7,-.8c-.4,0,-.6,.3,-.6,.7Z" class="g0_58"/>
<path d="M458.7,144.7c0,.5,-.1,1.2,-.2,1.5c-.2,.5,-.5,1.3,-.8,1.7c-.2,.2,-.6,.6,-.9,.6c-.4,0,-.6,-.4,-.6,-.7c0,-.5,.1,-1.3,.3,-1.7c.3,-.7,.9,-2,1.7,-2c.3,0,.5,.3,.5,.6Zm.2,4c.3,0,.5,-.1,.8,-.4c.2,-.3,.4,-.7,.6,-1.3l-.2,-.1c-.2,.4,-.5,1.4,-.9,1.4c-.2,0,-.3,-.3,-.3,-.5c0,-.1,0,-.3,0,-.4c.1,-.5,.2,-.8,.3,-1.3c.1,-.4,.2,-.8,.3,-1.2l1.2,-4.3H459v.2c.3,0,.4,0,.5,.1c.1,.1,.2,.2,.2,.3c0,.2,0,.4,-.1,.6l-.7,2.6c-.2,-.4,-.3,-.5,-.7,-.5c-.8,0,-1.4,.6,-1.8,1.1c-.2,.3,-.4,.5,-.5,.8c-.3,.4,-.5,.9,-.5,1.5c0,.5,.2,.8,.3,1c.2,.2,.5,.4,.8,.4c1,0,1.4,-.6,1.7,-1.2h.1c-.1,.1,-.1,.2,-.1,.2c0,.1,0,.2,0,.2c0,.5,.2,.8,.7,.8Z" class="g0_58"/>
<path d="M380.7,163.8c0,.6,.5,1,1.1,1c.5,0,.8,-.2,1.3,-.6c.9,-.7,2.1,-2.3,2.8,-3.5c.4,-.6,.8,-1.2,1.1,-1.8c.4,-.7,1.1,-2.1,1.1,-2.9c0,-.2,-.1,-.4,-.1,-.6c-.1,-.2,-.3,-.2,-.5,-.2c-.2,0,-.3,0,-.5,.2c-.1,.1,-.2,.3,-.2,.6c0,.4,.3,.9,.3,1.3c0,.6,-.3,1.1,-.5,1.6c-.2,.5,-.5,.9,-.8,1.4h-.1l-.3,-1.9c-.1,-.5,-.3,-1.6,-.4,-2c-.2,-.7,-.4,-1.2,-1.4,-1.2c-1.1,0,-1.3,1.7,-1.6,2.5l.3,.1c.2,-.6,.6,-2.3,1.1,-2.3c.3,0,.5,1,.5,1.3c.1,.3,.2,.7,.3,1.3l.6,3.5c-.4,.8,-1.2,1.7,-1.8,2.2c-.2,.2,-.5,.2,-.7,.2c-.1,0,-.2,0,-.2,-.1c-.3,-.3,-.3,-.8,-.7,-.8c-.4,0,-.7,.3,-.7,.7Z" class="g0_58"/>
<path d="M393.1,158.2h7.6v-.8h-7.6Z" class="g0_58"/>
<path d="M403.9,163.8c0,.6,.5,1,1.1,1c.5,0,.8,-.2,1.3,-.6c.9,-.7,2.1,-2.3,2.8,-3.5c.4,-.6,.8,-1.2,1.1,-1.8c.4,-.7,1.1,-2.1,1.1,-2.9c0,-.2,-.1,-.4,-.1,-.6c-.1,-.2,-.3,-.2,-.5,-.2c-.2,0,-.3,0,-.5,.2c-.1,.1,-.2,.3,-.2,.6c0,.4,.3,.9,.3,1.3c0,.6,-.3,1.1,-.5,1.6c-.2,.5,-.5,.9,-.8,1.4h-.1l-.3,-1.9c-.1,-.5,-.3,-1.6,-.4,-2c-.2,-.7,-.4,-1.2,-1.4,-1.2c-1.1,0,-1.3,1.7,-1.6,2.5l.4,.1c.1,-.6,.5,-2.3,1,-2.3c.3,0,.5,1,.5,1.3c.1,.3,.2,.7,.3,1.3l.6,3.5c-.4,.8,-1.2,1.7,-1.8,2.2c-.2,.2,-.5,.2,-.7,.2c-.1,0,-.2,0,-.2,-.1c-.3,-.3,-.3,-.8,-.7,-.8c-.4,0,-.7,.3,-.7,.7Z" class="g0_58"/>
<path d="M412.5,162.6c0,-1.8,.7,-3.2,1.7,-3.2c.4,0,.7,.2,.7,.8c0,.3,0,.7,-.2,1.2c-.1,.7,-.7,2.3,-1.5,2.3c-.5,0,-.7,-.6,-.7,-1.1Zm.6,1.4c.8,0,1.4,-.6,1.7,-1.1c.4,-.5,.9,-1.2,.9,-2.1c0,-.5,-.2,-.9,-.5,-1.2c-.2,-.3,-.5,-.5,-1,-.5c-.3,0,-.6,.1,-.9,.3c-.6,.3,-1.1,1,-1.4,1.7c-.2,.3,-.2,.7,-.2,1.1c0,.5,.1,1,.4,1.3c.3,.2,.5,.5,1,.5Z" class="g0_58"/>
<path d="M381.8,168.3H417v-.8H381.8Z" class="g0_58"/>
<path d="M391.9,184.1c0,.6,.4,1,1.1,1c.4,0,.8,-.2,1.3,-.6c.8,-.7,2,-2.2,2.8,-3.4c.3,-.7,.7,-1.3,1,-1.8c.4,-.8,1.1,-2.2,1.1,-3c0,-.2,0,-.4,-.1,-.6c-.1,-.2,-.3,-.2,-.5,-.2c-.2,0,-.3,.1,-.4,.2c-.2,.1,-.2,.3,-.2,.6c0,.5,.2,.9,.2,1.4c0,.5,-.2,1.1,-.5,1.5c-.2,.5,-.4,.9,-.8,1.5h-.1l-.3,-2c-.1,-.5,-.3,-1.6,-.4,-2c-.2,-.7,-.3,-1.2,-1.3,-1.2c-1.2,0,-1.4,1.7,-1.6,2.5l.3,.1c.1,-.5,.5,-2.3,1,-2.3c.3,0,.5,1,.5,1.3c.1,.3,.2,.7,.3,1.4l.6,3.5c-.3,.8,-1.2,1.6,-1.8,2.1c-.2,.2,-.5,.3,-.7,.3c-.1,0,-.2,-.1,-.2,-.2c-.2,-.2,-.2,-.7,-.7,-.7c-.4,0,-.6,.2,-.6,.6Z" class="g0_58"/>
<path d="M402.8,180.7c0,.5,-.2,1.2,-.3,1.6c-.1,.4,-.5,1.2,-.8,1.6c-.2,.2,-.5,.6,-.8,.6c-.4,0,-.6,-.3,-.6,-.7c0,-.5,.1,-1.3,.2,-1.7c.3,-.6,.9,-2,1.8,-2c.3,0,.5,.3,.5,.6Zm.1,4c.3,0,.6,-.1,.8,-.4c.3,-.3,.5,-.7,.7,-1.3h-.3c-.1,.4,-.5,1.3,-.9,1.3c-.2,0,-.2,-.3,-.2,-.5c0,-.1,0,-.2,0,-.4c0,-.4,.2,-.8,.3,-1.3c0,-.4,.2,-.7,.3,-1.2l1.1,-4.2h-1.6l-.1,.1c.3,0,.4,.1,.6,.1c.1,.1,.2,.2,.2,.3c0,.2,-.1,.4,-.2,.7l-.6,2.5c-.2,-.3,-.3,-.5,-.8,-.5c-.7,0,-1.4,.7,-1.8,1.2c-.2,.2,-.3,.4,-.5,.7c-.2,.4,-.4,1,-.4,1.6c0,.4,.1,.7,.3,.9c.2,.2,.4,.4,.7,.4c1.1,0,1.4,-.6,1.8,-1.2c0,.1,0,.2,0,.2c0,.1,0,.2,0,.2c0,.5,.2,.8,.6,.8Z" class="g0_58"/>
<path d="M423.6,169.8h7.6V169h-7.6Zm0,-3h7.6V166h-7.6Z" class="g0_58"/>
<path d="M439.5,157.5c.3,0,.5,-.1,.5,-.4c0,-.5,-.6,-.4,-.7,-.8c-.1,-.2,.1,-.3,.3,-.3c.9,0,1.4,1,2.6,1l-3.4,3.1c-.3,.4,-.7,.8,-.7,1.2c0,.2,.2,.3,.3,.3c.7,0,.2,-.8,.9,-.8c1,0,1.5,.9,2.6,.9c1.2,0,1.6,-1.1,1.8,-2.1h-.3c-.2,.5,-.5,1.1,-1.2,1.1c-.9,0,-1.7,-.8,-2.6,-.8c1.4,-1.3,2.5,-2.3,3.8,-3.6c.2,-.2,.4,-.4,.4,-.7c0,-.2,-.1,-.3,-.2,-.3c-.3,0,-.4,.2,-.5,.4c-.1,.2,-.4,.3,-.7,.3c-.8,0,-1.4,-.9,-2.5,-.9c-.7,0,-1.3,.6,-1.3,1.5c0,.5,.4,.9,.9,.9Z" class="g0_58"/>
<path d="M448.9,158.2h7.7v-.8h-7.7Z" class="g0_58"/>
<path d="M462.6,157.5c.3,0,.5,-.1,.5,-.4c0,-.5,-.6,-.4,-.7,-.8c-.1,-.2,.1,-.3,.3,-.3c.9,0,1.4,1,2.6,1l-3.4,3.1c-.3,.4,-.7,.8,-.7,1.2c0,.2,.2,.3,.3,.3c.7,0,.2,-.8,.9,-.8c1,0,1.5,.9,2.6,.9c1.1,0,1.6,-1.1,1.8,-2.1h-.3c-.2,.5,-.5,1.1,-1.2,1.1c-.9,0,-1.7,-.8,-2.6,-.8c1.4,-1.3,2.5,-2.3,3.8,-3.6c.2,-.2,.4,-.4,.4,-.7c0,-.2,-.1,-.3,-.2,-.3c-.3,0,-.4,.2,-.5,.4c-.1,.2,-.4,.3,-.7,.3c-.8,0,-1.4,-.9,-2.5,-.9c-.7,0,-1.3,.6,-1.3,1.5c0,.5,.4,.9,.9,.9Z" class="g0_58"/>
<path d="M468.4,162.6c0,-1.8,.6,-3.2,1.7,-3.2c.4,0,.6,.2,.6,.8c0,.3,.1,.7,-.1,1.2c-.2,.7,-.7,2.3,-1.5,2.3c-.5,0,-.7,-.6,-.7,-1.1Zm.6,1.4c.7,0,1.4,-.6,1.7,-1.1c.4,-.5,.8,-1.2,.8,-2.1c0,-.5,-.1,-.9,-.4,-1.2c-.2,-.3,-.5,-.5,-1,-.5c-.3,0,-.6,.1,-.9,.3c-.7,.3,-1.2,1,-1.4,1.7c-.2,.3,-.2,.7,-.2,1.1c0,.5,.1,1,.4,1.3c.2,.2,.5,.5,1,.5Z" class="g0_58"/>
<path d="M437.7,168.3h35.2v-.8H437.7Z" class="g0_58"/>
<path d="M450.6,177.8c.3,0,.5,-.1,.5,-.4c0,-.5,-.6,-.4,-.7,-.7c-.1,-.2,0,-.4,.3,-.4c.9,0,1.4,1,2.6,1l-3.4,3.2c-.4,.3,-.7,.7,-.7,1.1c0,.2,.2,.4,.3,.4c.7,0,.2,-.9,.9,-.9c.9,0,1.5,1,2.5,1c1.2,0,1.6,-1.2,1.9,-2.2h-.3c-.2,.6,-.6,1.2,-1.2,1.2c-.9,0,-1.7,-.9,-2.6,-.9c1.3,-1.3,2.5,-2.3,3.8,-3.6c.2,-.2,.4,-.4,.4,-.6c0,-.3,-.1,-.4,-.3,-.4c-.3,0,-.3,.2,-.4,.4c-.1,.2,-.4,.4,-.7,.4c-.8,0,-1.4,-.9,-2.5,-.9c-.7,0,-1.3,.5,-1.3,1.4c0,.6,.3,.9,.9,.9Z" class="g0_58"/>
<path d="M458.7,180.7c0,.5,-.1,1.2,-.2,1.6c-.2,.4,-.5,1.2,-.8,1.6c-.2,.2,-.6,.6,-.9,.6c-.4,0,-.6,-.3,-.6,-.7c0,-.5,.1,-1.3,.3,-1.7c.2,-.6,.9,-2,1.7,-2c.3,0,.5,.3,.5,.6Zm.2,4c.3,0,.5,-.1,.8,-.4c.2,-.3,.4,-.7,.6,-1.3h-.2c-.2,.4,-.5,1.3,-.9,1.3c-.2,0,-.3,-.3,-.3,-.5c0,-.1,0,-.2,0,-.4c.1,-.4,.2,-.8,.3,-1.3c.1,-.4,.2,-.7,.3,-1.2l1.2,-4.2H459v.1c.3,0,.4,.1,.5,.1c.1,.1,.2,.2,.2,.3c0,.2,-.1,.4,-.1,.7l-.7,2.5c-.2,-.3,-.3,-.5,-.7,-.5c-.8,0,-1.5,.7,-1.9,1.2c-.1,.2,-.3,.4,-.4,.7c-.3,.4,-.5,1,-.5,1.6c0,.4,.1,.7,.3,.9c.2,.2,.5,.4,.8,.4c1,0,1.4,-.6,1.7,-1.2h.1c-.1,.1,-.1,.2,-.1,.2c0,.1,0,.2,0,.2c0,.5,.2,.8,.7,.8Z" class="g0_58"/>
</svg>