<?xml version="1.0" encoding="UTF-8" standalone="no"?>
<!DOCTYPE svg PUBLIC "-//W3C//DTD SVG 1.1//EN"
"http://www.w3.org/Graphics/SVG/1.1/DTD/svg11.dtd">
<svg viewBox="0 0 811 1017" version="1.1" xmlns="http://www.w3.org/2000/svg" xmlns:xlink="http://www.w3.org/1999/xlink">
<defs>
<clipPath id="c0_46"><path d="M142.4,646.6v-220h220v220Z"/></clipPath>
<clipPath id="c1_46"><path d="M398.3,870.3V855h56.5v15.3Z"/></clipPath>
<style type="text/css"><![CDATA[
.g0_46{
fill: #0E0E0E;
}
]]></style>
</defs>
<image clip-path="url(#c0_46)" preserveAspectRatio="none" x="142" y="427" width="220" height="220" xlink:href="img/1.jpg"/>
<path clip-path="url(#c1_46)" d="M400.2,858.5c.5,0,.9,-.4,.9,-.9c0,-.6,-.4,-1,-.9,-1c-.5,0,-.9,.4,-.9,1c0,.5,.4,.9,.9,.9Zm.8,6.3v-4.7l-2.7,.5v.3c.6,0,.9,0,1,.5c0,.1,0,.3,0,.6c.1,.3,.1,.7,.1,1.1v1.8c0,.2,0,.5,-.1,.7c-.1,.5,-.4,.6,-1,.7v.3h3.8v-.3c-.3,0,-.4,0,-.6,-.1c-.5,-.1,-.5,-.8,-.5,-1.4Z" class="g0_46"/>
<path d="M407,864.7h7.6v-.9H407Zm0,-3h7.6v-.9H407Z" class="g0_46"/>
<path d="M424.5,855.9c-2.1,1.4,-3.6,3.8,-3.6,6.9c0,2.7,1.5,5.5,3.6,6.8l.2,-.3c-2,-1.5,-2.6,-3.3,-2.6,-6.6c0,-3.3,.6,-5,2.6,-6.5l-.2,-.3Z" class="g0_46"/>
<path d="M427.7,856.9v.2c.4,0,1.1,0,1.3,.2c.4,.2,.4,.4,.4,1v6.5c0,.3,0,.6,0,.8c-.1,.6,-.9,.7,-1.7,.8v.2h4.7v-.2c-.5,-.1,-1.2,-.1,-1.4,-.4c-.2,-.3,-.3,-.7,-.3,-1.3v-8.6c-.7,.4,-2.1,.7,-3,.8Z" class="g0_46"/>
<path d="M435.5,865.8c0,.4,.3,.8,.7,.8c.2,0,.3,-.1,.4,-.1c0,.4,0,.7,-.2,1c-.3,.3,-.6,.6,-1.1,1l.3,.4c.4,-.2,.6,-.5,.9,-.7c.5,-.5,.9,-1,.9,-1.9c0,-.9,-.3,-1.4,-.9,-1.4c-.6,0,-1,.4,-1,.9Z" class="g0_46"/>
<path d="M446.2,866.4c-2,0,-2,-2.7,-2,-4.9c0,-2.2,0,-5.1,2,-5.1c1.9,0,1.9,2.9,1.9,5.1c0,2.2,0,4.9,-1.9,4.9Zm0,-10.3c-2.6,0,-3.4,2.7,-3.4,5.4c0,2.6,.8,5.2,3.4,5.2c2.5,0,3.3,-2.6,3.3,-5.2c0,-2.7,-.7,-5.4,-3.3,-5.4Z" class="g0_46"/>
<path d="M450.9,855.9l-.1,.3c1.9,1.5,2.5,3.2,2.5,6.5c0,3.3,-.5,5.1,-2.5,6.6l.2,.3c2,-1.3,3.6,-4.1,3.6,-6.8c0,-3.1,-1.5,-5.5,-3.7,-6.9Z" class="g0_46"/>
<path d="M401.3,900.4c.6,0,1,-.4,1,-.9c0,-.5,-.4,-.9,-1,-.9c-.5,0,-.9,.4,-.9,.9c0,.5,.4,.9,.9,.9Zm-3.9,10c0,.4,.2,.7,.5,.9c.4,.2,.8,.3,1.5,.3c1.8,0,2.8,-1.1,2.8,-3v-6.5l-2.8,.4v.3c.4,0,.6,.1,.7,.2c.3,.1,.3,.4,.4,.9c0,.3,0,.6,0,1.1v4.4c0,.9,-.1,1.8,-.8,1.8c-.6,0,-.7,-.5,-.9,-.8c0,-.1,-.2,-.3,-.3,-.4c-.1,-.1,-.2,-.2,-.5,-.2c-.3,0,-.6,.3,-.6,.6Z" class="g0_46"/>
<path d="M407.9,906.6h7.6v-.8h-7.6Zm0,-3h7.6v-.8h-7.6Z" class="g0_46"/>
<path d="M425.4,897.9c-2.1,1.4,-3.7,3.8,-3.7,6.8c0,2.8,1.6,5.6,3.7,6.8l.2,-.2c-2,-1.6,-2.6,-3.4,-2.6,-6.6c0,-3.3,.6,-5,2.6,-6.6l-.2,-.2Z" class="g0_46"/>
<path d="M430.8,908.4c-2,0,-2,-2.7,-2,-4.9c0,-2.2,0,-5.2,2,-5.2c1.9,0,1.9,3,1.9,5.2c0,2.2,0,4.9,-1.9,4.9Zm0,-10.3c-2.6,0,-3.4,2.7,-3.4,5.3c0,2.7,.8,5.3,3.4,5.3c2.5,0,3.3,-2.6,3.3,-5.3c0,-2.6,-.7,-5.3,-3.3,-5.3Z" class="g0_46"/>
<path d="M436.4,907.7c0,.5,.3,.8,.7,.8c.2,0,.3,0,.4,-.1c0,.4,0,.8,-.3,1.1c-.2,.3,-.5,.6,-1,.9l.3,.5c.4,-.3,.6,-.5,.9,-.7c.5,-.5,.9,-1,.9,-2c0,-.8,-.3,-1.3,-1,-1.3c-.5,0,-.9,.3,-.9,.8Z" class="g0_46"/>
<path d="M444.9,898.8v.2c.4,0,1.1,.1,1.3,.2c.4,.2,.4,.4,.4,1v6.5c0,.4,0,.6,0,.8c-.1,.7,-.9,.8,-1.7,.8v.2h4.7v-.2c-.5,0,-1.2,0,-1.4,-.3c-.2,-.3,-.3,-.8,-.3,-1.3v-8.6c-.8,.4,-2.1,.7,-3,.7Z" class="g0_46"/>
<path d="M451.8,897.9l-.1,.2c1.9,1.6,2.5,3.3,2.5,6.6c0,3.2,-.6,5,-2.5,6.6l.2,.2c1.9,-1.1,3.4,-3.6,3.6,-6.2v-1.2c-.2,-2.8,-1.7,-4.9,-3.7,-6.2Z" class="g0_46"/>
</svg>