<?xml version="1.0" encoding="UTF-8" standalone="no"?>
<!DOCTYPE svg PUBLIC "-//W3C//DTD SVG 1.1//EN"
"http://www.w3.org/Graphics/SVG/1.1/DTD/svg11.dtd">
<svg viewBox="0 0 811 1017" version="1.1" xmlns="http://www.w3.org/2000/svg" xmlns:xlink="http://www.w3.org/1999/xlink">
<defs>
<style type="text/css"><![CDATA[
.g0_96{
fill: #0E0E0E;
}
]]></style>
</defs>
<path d="M352.9,178.7C350.6,175.3,350,166.4,350,160.9c0,-5.5,.6,-13.8,2.9,-17.2l-.2,-.6c-2.2,3.2,-4.1,8,-4.1,17.8c0,9.8,2,15.8,4.1,18.4l.2,-.6Z" class="g0_96"/>
<path d="M360.3,146v.3c.5,0,1.1,0,1.4,.1c.4,.3,.4,.4,.4,1.1V154c0,.3,0,.5,0,.7c-.1,.7,-.9,.8,-1.7,.8v.3h4.7v-.3c-.5,0,-1.2,0,-1.4,-.3c-.3,-.3,-.3,-.8,-.3,-1.3v-8.6c-.8,.4,-2.1,.7,-3.1,.7Z" class="g0_96"/>
<path d="M387.3,152.3h7.6v-.8h-7.6Z" class="g0_96"/>
<path d="M399.5,149.4c-.9,0,-1.5,-.7,-1.5,-1.6c0,-1.1,.6,-2.2,1.8,-2.2c1.7,0,1.8,1.3,1.8,2.6c0,1.2,-.3,2,-.9,2.9c-.4,.5,-1,1.1,-1.6,1.8c-.7,.7,-1.5,1.5,-2.5,2.4v.5h6.2l.5,-2.9h-.4c-.1,.3,-.2,.6,-.3,.8c-.2,.5,-.7,.7,-1.4,.7h-2.9c.7,-.5,1.3,-1,1.9,-1.5c1,-.9,2.1,-1.9,2.7,-3.1c.2,-.5,.4,-1.1,.4,-1.6c0,-.4,-.1,-.8,-.3,-1.2c-.5,-1,-1.5,-1.7,-3,-1.7c-.9,0,-1.8,.3,-2.3,.8c-.6,.4,-1,1.1,-1,2c0,.6,.2,1.1,.5,1.4c.3,.3,.7,.6,1.2,.6c.6,0,1,-.3,1.1,-.7Z" class="g0_96"/>
<path d="M354.6,170.2h7.6v-.8h-7.6Z" class="g0_96"/>
<path d="M366.7,167.3c-.9,0,-1.4,-.7,-1.4,-1.6c0,-1.1,.5,-2.2,1.8,-2.2c1.6,0,1.8,1.3,1.8,2.6c0,1.2,-.4,2,-1,2.9c-.4,.5,-.9,1.1,-1.5,1.8c-.7,.7,-1.6,1.5,-2.6,2.4v.5h6.3l.5,-2.9h-.4c-.1,.3,-.3,.6,-.4,.8c-.2,.5,-.6,.7,-1.3,.7h-2.9c.6,-.5,1.3,-1,1.9,-1.5c1,-.9,2,-1.9,2.6,-3.1c.3,-.5,.4,-1.1,.4,-1.6c0,-.4,-.1,-.8,-.2,-1.2c-.5,-1,-1.5,-1.7,-3,-1.7c-1,0,-1.9,.3,-2.4,.8c-.5,.4,-1,1.1,-1,2c0,.6,.2,1.1,.5,1.4c.3,.3,.7,.6,1.3,.6c.5,0,.9,-.3,1,-.7Z" class="g0_96"/>
<path d="M387.3,170.2h7.6v-.8h-7.6Z" class="g0_96"/>
<path d="M399.5,167.3c-.9,0,-1.5,-.7,-1.5,-1.6c0,-1.1,.6,-2.2,1.8,-2.2c1.7,0,1.8,1.3,1.8,2.6c0,1.2,-.3,2,-.9,2.9c-.4,.5,-1,1.1,-1.6,1.8c-.7,.7,-1.5,1.5,-2.5,2.4v.5h6.2l.5,-2.9h-.4c-.1,.3,-.2,.6,-.3,.8c-.2,.5,-.7,.7,-1.4,.7h-2.9c.7,-.5,1.3,-1,1.9,-1.5c1,-.9,2.1,-1.9,2.7,-3.1c.2,-.5,.4,-1.1,.4,-1.6c0,-.4,-.1,-.8,-.3,-1.2c-.5,-1,-1.5,-1.7,-3,-1.7c-.9,0,-1.8,.3,-2.3,.8c-.6,.4,-1,1.1,-1,2c0,.6,.2,1.1,.5,1.4c.3,.3,.7,.6,1.2,.6c.6,0,1,-.3,1.1,-.7Z" class="g0_96"/>
<path d="M405,178.7l.2,.6c2.1,-2.6,4.1,-8.6,4.1,-18.4c0,-9.8,-2,-14.6,-4.1,-17.8l-.2,.6c2.2,3.4,2.8,11.7,2.8,17.2c0,5.5,-.6,14.4,-2.8,17.8Z" class="g0_96"/>
<path d="M419.9,178.7c-2.2,-3.4,-2.8,-12.3,-2.8,-17.8c0,-5.5,.6,-13.8,2.8,-17.2l-.1,-.6c-2.2,3.2,-4.1,8,-4.1,17.8c0,9.8,2,15.8,4.1,18.4l.1,-.6Z" class="g0_96"/>
<path d="M427.4,148.4l-4.4,5.4h-.1l1.3,-6.1c.1,-.4,.2,-.8,.3,-1c.1,-.4,.3,-.8,.7,-1c.1,-.1,.4,-.1,.6,-.1l.1,-.2h-4v.2c.5,0,.8,.1,.9,.2c.2,.1,.3,.4,.3,.7c0,.2,-.1,.6,-.2,1l-1.9,8.4h.7l6.1,-7.4c.4,-.5,.8,-1,1.1,-1.3c.3,-.4,.6,-.7,.8,-.9c.3,-.2,.8,-.5,1,-.6c.2,0,.5,-.1,.7,-.1v-.2h-3.3l-.1,.2c.4,0,.6,0,.7,.1c.2,.1,.3,.3,.3,.5c0,.2,-.1,.4,-.4,.7c-.2,.3,-.7,.9,-1.2,1.5Z" class="g0_96"/>
<path d="M432.7,154.9c0,.6,-.3,1.4,-.7,1.8c-.4,.4,-1.1,.8,-1.7,.9l1.1,-4c0,0,.1,0,.2,0q.1,-.1,.2,-.1c.7,0,.9,.7,.9,1.4Zm-2.1,-1l-1.6,5.7c-.1,.4,-.4,.4,-.9,.4v.2h2.5V160c-.4,0,-.8,0,-.8,-.4c0,0,0,-.1,0,-.1c0,-.1,0,-.2,0,-.3l.4,-1.4c.9,-.1,1.8,-.5,2.3,-1c.6,-.4,1,-1.1,1,-2c0,-1,-.5,-1.5,-1.5,-1.5c-.2,0,-.4,0,-.6,0l.3,-1.1h-.6l-.4,1.3c-.3,.2,-.6,.3,-.9,.6c-.3,.1,-.5,.4,-.7,.6l.2,.2c.3,-.4,.8,-.8,1.3,-1Z" class="g0_96"/>
<path d="M427.3,166.3l-4.5,5.4h-.1l1.4,-6.1c0,-.4,.2,-.8,.2,-1c.2,-.4,.3,-.8,.7,-1c.2,-.1,.4,-.1,.7,-.1v-.2h-3.9l-.1,.2c.5,0,.8,.1,1,.2c.2,.1,.2,.4,.2,.7c0,.2,0,.6,-.2,1l-1.9,8.4h.8l6,-7.4c.5,-.5,.9,-1,1.1,-1.3c.3,-.4,.6,-.7,.9,-.9c.3,-.2,.8,-.5,1,-.5c.2,-.1,.4,-.2,.6,-.2l.1,-.2h-3.4v.2c.3,0,.6,0,.7,.1c.1,.1,.2,.3,.2,.5c0,.2,-.1,.4,-.3,.7c-.2,.3,-.7,.9,-1.2,1.5Z" class="g0_96"/>
<path d="M431.9,171.2c-.3,0,-.6,.1,-1,.3c-.3,.2,-.6,.5,-.9,.8c-.4,.6,-.9,1.5,-.9,2.4c0,.7,.3,1.3,1,1.3c.9,0,1.3,-.7,1.6,-1.2c-.2,.7,-.1,1.2,.4,1.2c.2,0,.5,-.1,.8,-.4c.3,-.2,.6,-.6,.8,-1l-.1,-.1c-.2,.3,-.7,1,-1,1c-.2,0,-.2,-.2,-.2,-.4c0,-.7,.4,-1.8,.7,-2.5l.5,-1.4h-.8l-.1,.5c-.2,-.3,-.4,-.5,-.8,-.5Zm.1,.2c.5,0,.4,.9,.3,1.3c0,.3,-.1,.5,-.2,.7c-.3,.9,-1.1,2.3,-1.7,2.3c-.4,0,-.5,-.7,-.5,-1c0,-.4,0,-.7,.1,-1c.3,-.8,1.1,-2.3,2,-2.3Z" class="g0_96"/>
<path d="M435.9,178.7l.1,.6c2.1,-2.6,4.1,-8.6,4.1,-18.4c0,-9.8,-1.9,-14.6,-4.1,-17.8l-.1,.6c2.2,3.4,2.8,11.7,2.8,17.2c0,5.5,-.6,14.4,-2.8,17.8Z" class="g0_96"/>
<path d="M446.8,163.1h7.6v-.9h-7.6Zm0,-3h7.6v-.9h-7.6Z" class="g0_96"/>
<path d="M465.5,178.7c-2.3,-3.4,-2.9,-12.3,-2.9,-17.8c0,-5.5,.6,-13.8,2.9,-17.2l-.2,-.6c-2.2,3.2,-4.1,8,-4.1,17.8c0,9.8,2,15.8,4.1,18.4l.2,-.6Z" class="g0_96"/>
<path d="M483.5,155.6c-1.9,0,-2,-2.7,-2,-4.9c0,-2.2,0,-5.1,2,-5.1c1.9,0,1.9,2.9,1.9,5.1c0,2.2,0,4.9,-1.9,4.9Zm0,-10.3c-2.6,0,-3.4,2.7,-3.4,5.4c0,2.6,.8,5.2,3.4,5.2c2.5,0,3.3,-2.6,3.3,-5.2c0,-2.7,-.7,-5.4,-3.3,-5.4Z" class="g0_96"/>
<path d="M467.1,170.2h7.6v-.8h-7.6Z" class="g0_96"/>
<path d="M478.1,166.7c0,-1.6,.3,-3.2,1.8,-3.2c1.2,0,1.8,1.7,1.8,3.9v.7c-.4,.9,-.9,1.7,-2,1.7c-1.3,0,-1.6,-1.6,-1.6,-3.1Zm-1.3,5.6c0,.8,1.4,1.5,2.4,1.5c3.1,0,4.1,-2.8,4.1,-6c0,-2.4,-1,-4.6,-3.4,-4.6c-2,0,-3.4,1.5,-3.4,3.6c0,1.9,1.1,3.3,3.1,3.3c1,0,1.6,-.6,2.1,-1.2c0,1.1,0,2.3,-.4,3.1c-.3,.6,-.9,1.5,-1.9,1.5c-1.6,0,-1.1,-1.8,-1.9,-1.8c-.6,0,-.7,.2,-.7,.6Z" class="g0_96"/>
<path d="M488.2,173.5c-1.9,0,-1.9,-2.7,-1.9,-4.9c0,-2.2,0,-5.1,1.9,-5.1c2,0,2,2.9,2,5.1c0,2.2,-.1,4.9,-2,4.9Zm0,-10.3c-2.6,0,-3.4,2.7,-3.4,5.4c0,2.6,.9,5.2,3.4,5.2c2.6,0,3.4,-2.6,3.4,-5.2c0,-2.7,-.8,-5.4,-3.4,-5.4Z" class="g0_96"/>
<path d="M496.6,173.5c-1.9,0,-2,-2.7,-2,-4.9c0,-2.2,0,-5.1,2,-5.1c1.9,0,1.9,2.9,1.9,5.1c0,2.2,0,4.9,-1.9,4.9Zm0,-10.3c-2.6,0,-3.4,2.7,-3.4,5.4c0,2.6,.8,5.2,3.4,5.2c2.5,0,3.3,-2.6,3.3,-5.2c0,-2.7,-.7,-5.4,-3.3,-5.4Z" class="g0_96"/>
<path d="M501.5,178.7l.2,.6c2.1,-2.6,4.1,-8.6,4.1,-18.4c0,-9.8,-1.9,-14.6,-4.1,-17.8l-.2,.6c2.3,3.4,2.9,11.7,2.9,17.2c0,5.5,-.6,14.4,-2.9,17.8Z" class="g0_96"/>
<path d="M352.9,286.5C350.6,283.1,350,274.1,350,268.6c0,-5.5,.6,-13.8,2.9,-17.2l-.2,-.6c-2.2,3.2,-4.1,8,-4.1,17.8c0,9.9,2,15.8,4.1,18.5l.2,-.6Z" class="g0_96"/>
<path d="M362.3,263.4c-1,0,-1.8,-1,-1.8,-1.9c0,-.8,.5,-1.4,1.2,-1.4c-.1,-.3,-.6,-.6,-1.1,-.6c-.2,0,-.4,.1,-.6,.2c-.5,.2,-.9,.8,-.9,1.5c0,.4,.1,.7,.2,1c.6,.9,1.6,1.4,3,1.4c1.1,0,1.9,-.3,2.5,-.8c.6,-.5,1.1,-1.1,1.1,-2.1c0,-.3,-.1,-.6,-.2,-.9c-.4,-.9,-1.2,-1.6,-2.2,-1.8v-.1c.6,-.1,1.1,-.5,1.5,-.9c.3,-.4,.5,-.9,.5,-1.6c0,-.3,0,-.7,-.2,-1c-.4,-.9,-1.6,-1.4,-2.9,-1.4c-.9,0,-1.6,.2,-2.1,.5c-.4,.3,-.8,.8,-.8,1.4c0,.4,.1,.8,.4,1c.2,.3,.5,.4,1,.4c.2,0,.4,0,.6,-.1c.2,-.1,.2,-.2,.3,-.4c-.6,0,-1,-.4,-1,-1c0,-.8,.7,-1.5,1.6,-1.5c1,0,1.5,.9,1.5,2.2c0,1.2,-.3,2.4,-1.4,2.4c-.3,-.1,-.6,-.2,-.8,-.2c-.3,0,-.8,.1,-.8,.4c0,.3,.5,.4,.8,.4c.3,0,.7,-.2,.9,-.3c1.2,0,1.6,1.1,1.6,2.4c0,1.4,-.6,2.8,-1.9,2.8Z" class="g0_96"/>
<path d="M395.3,263.4c-1.9,0,-1.9,-2.8,-1.9,-5c0,-2.2,0,-5.1,1.9,-5.1c1.9,0,1.9,2.9,1.9,5.1c0,2.2,0,5,-1.9,5Zm0,-10.4c-2.6,0,-3.4,2.7,-3.4,5.4c0,2.6,.8,5.2,3.4,5.2c2.6,0,3.4,-2.6,3.4,-5.2c0,-2.7,-.8,-5.4,-3.4,-5.4Z" class="g0_96"/>
<path d="M354.6,278h7.6v-.8h-7.6Z" class="g0_96"/>
<path d="M366.7,275c-.9,0,-1.4,-.7,-1.4,-1.6c0,-1.1,.5,-2.2,1.8,-2.2c1.6,0,1.8,1.3,1.8,2.6c0,1.3,-.4,2,-1,2.9c-.4,.6,-.9,1.2,-1.5,1.9c-.7,.6,-1.5,1.4,-2.6,2.3v.5h6.3l.5,-2.9h-.4c-.1,.3,-.3,.6,-.4,.8c-.2,.5,-.6,.8,-1.3,.8h-2.9V280c.6,-.5,1.3,-1,1.9,-1.4c1,-.9,2,-1.9,2.6,-3.1c.3,-.6,.4,-1.1,.4,-1.7c0,-.4,-.1,-.8,-.2,-1.1c-.5,-1.1,-1.5,-1.8,-3,-1.8c-1,0,-1.9,.4,-2.4,.8c-.5,.4,-1,1.1,-1,2c0,.6,.2,1.1,.5,1.4c.3,.4,.7,.6,1.3,.6c.5,0,.9,-.3,1,-.7Z" class="g0_96"/>
<path d="M387.3,278h7.6v-.8h-7.6Z" class="g0_96"/>
<path d="M399.5,275c-.9,0,-1.5,-.7,-1.5,-1.6c0,-1.1,.6,-2.2,1.8,-2.2c1.7,0,1.8,1.3,1.8,2.6c0,1.3,-.3,2,-.9,2.9c-.4,.6,-1,1.2,-1.6,1.9c-.7,.6,-1.5,1.4,-2.5,2.3v.5h6.2l.5,-2.9h-.4c-.1,.3,-.2,.6,-.3,.8c-.2,.5,-.7,.8,-1.4,.8h-2.9V280c.7,-.5,1.3,-1,1.9,-1.4c1,-.9,2.1,-1.9,2.7,-3.1c.2,-.6,.4,-1.1,.4,-1.7c0,-.4,-.1,-.8,-.3,-1.1c-.5,-1.1,-1.5,-1.8,-3,-1.8c-.9,0,-1.8,.4,-2.3,.8c-.6,.4,-1,1.1,-1,2c0,.6,.2,1.1,.5,1.4c.3,.4,.7,.6,1.2,.6c.6,0,1,-.3,1.1,-.7Z" class="g0_96"/>
<path d="M405,286.5l.2,.6c2.1,-2.7,4.1,-8.6,4.1,-18.5c0,-9.8,-2,-14.6,-4.1,-17.8l-.2,.6c2.2,3.4,2.8,11.7,2.8,17.2c0,5.5,-.6,14.5,-2.8,17.9Z" class="g0_96"/>
<path d="M419.9,286.5c-2.2,-3.4,-2.8,-12.4,-2.8,-17.9c0,-5.5,.6,-13.8,2.8,-17.2l-.1,-.6c-2.2,3.2,-4.1,8,-4.1,17.8c0,9.9,2,15.8,4.1,18.5l.1,-.6Z" class="g0_96"/>
<path d="M427.4,256.2l-4.4,5.4h-.1l1.3,-6.2c.1,-.4,.2,-.8,.3,-1c.1,-.4,.3,-.8,.7,-.9c.1,-.1,.4,-.1,.6,-.1l.1,-.2h-4v.2c.5,0,.8,0,.9,.1c.2,.1,.2,.5,.2,.7c0,.3,0,.6,-.1,1.1l-1.9,8.3h.7l6.1,-7.3c.4,-.5,.8,-1.1,1.1,-1.4c.3,-.4,.6,-.6,.8,-.8c.3,-.2,.8,-.5,1,-.6c.2,-.1,.5,-.1,.7,-.1v-.2h-3.3l-.1,.2c.4,0,.6,0,.7,0c.2,.1,.2,.4,.2,.5c0,.2,0,.4,-.3,.7c-.2,.4,-.7,1,-1.2,1.6Z" class="g0_96"/>
<path d="M432.7,262.6c0,.6,-.3,1.4,-.7,1.8c-.4,.4,-1.1,.8,-1.7,.9l1.1,-4c0,0,.1,0,.2,0q.1,0,.2,0c.7,0,.9,.7,.9,1.3Zm-2.1,-1l-1.6,5.8c-.1,.3,-.4,.4,-.9,.4v.1h2.5v-.1c-.4,0,-.8,-.1,-.8,-.4q0,-.1,0,-.2q0,-.1,0,-.2l.4,-1.4c.9,-.1,1.8,-.6,2.3,-1.1c.6,-.4,1,-1.1,1,-2c0,-.9,-.5,-1.5,-1.5,-1.5c-.2,0,-.4,0,-.6,.1l.3,-1.2h-.6l-.4,1.4c-.3,.1,-.6,.3,-.9,.5c-.3,.2,-.5,.4,-.7,.6l.2,.2c.3,-.3,.8,-.8,1.3,-1Z" class="g0_96"/>
<path d="M427.3,274.1l-4.5,5.4h-.1l1.4,-6.2c0,-.4,.2,-.8,.2,-1c.2,-.4,.3,-.8,.7,-.9c.2,-.1,.4,-.1,.7,-.1v-.2h-3.9l-.1,.2c.5,0,.8,0,1,.1c.2,.1,.2,.5,.2,.7c0,.3,-.1,.6,-.2,1.1l-1.9,8.3h.8l6,-7.3c.4,-.5,.9,-1.1,1.1,-1.4c.3,-.4,.6,-.6,.9,-.8c.3,-.2,.8,-.5,1,-.6c.2,-.1,.4,-.1,.6,-.1l.1,-.2h-3.4v.2c.3,0,.6,0,.7,0c.1,.1,.2,.4,.2,.5c0,.2,-.1,.4,-.3,.7c-.2,.4,-.7,1,-1.2,1.6Z" class="g0_96"/>
<path d="M431.9,278.9c-.3,0,-.6,.1,-1,.3c-.3,.2,-.6,.5,-.9,.9c-.4,.5,-.9,1.4,-.9,2.3c0,.8,.3,1.3,1,1.3c.9,0,1.3,-.6,1.6,-1.1c-.2,.6,-.1,1.1,.4,1.1c.2,0,.5,-.1,.8,-.3c.3,-.3,.6,-.6,.8,-1l-.1,-.1c-.2,.3,-.7,.9,-1,.9c-.2,0,-.2,-.2,-.2,-.4c0,-.6,.4,-1.7,.7,-2.5l.5,-1.3h-.8l-.1,.5c-.2,-.4,-.4,-.6,-.8,-.6Zm.1,.2c.5,0,.4,1,.3,1.4c0,.2,-.1,.4,-.2,.7c-.3,.9,-1.1,2.3,-1.7,2.3c-.4,0,-.5,-.7,-.5,-1.1c0,-.3,0,-.6,.1,-1c.3,-.7,1.1,-2.3,2,-2.3Z" class="g0_96"/>
<path d="M435.9,286.5l.1,.6c2.1,-2.7,4.1,-8.6,4.1,-18.5c0,-9.8,-1.9,-14.6,-4.1,-17.8l-.1,.6c2.2,3.4,2.8,11.7,2.8,17.2c0,5.5,-.6,14.5,-2.8,17.9Z" class="g0_96"/>
<path d="M446.8,270.8h7.6V270h-7.6Zm0,-3h7.6V267h-7.6Z" class="g0_96"/>
<path d="M465.5,286.5c-2.3,-3.4,-2.9,-12.4,-2.9,-17.9c0,-5.5,.6,-13.8,2.9,-17.2l-.2,-.6c-2.2,3.2,-4.1,8,-4.1,17.8c0,9.9,2,15.8,4.1,18.5l.2,-.6Z" class="g0_96"/>
<path d="M473.3,256.6c0,-1.7,.4,-3.3,1.8,-3.3c1.3,0,1.9,1.7,1.9,3.9v.7c-.4,.9,-1,1.8,-2.1,1.8c-1.3,0,-1.6,-1.7,-1.6,-3.1Zm-1.2,5.6c0,.7,1.3,1.4,2.3,1.4c3.2,0,4.1,-2.8,4.1,-5.9c0,-2.5,-.9,-4.7,-3.3,-4.7c-2.1,0,-3.4,1.6,-3.4,3.6c0,2,1.1,3.4,3,3.4c1,0,1.7,-.6,2.1,-1.3h.1c0,1.2,0,2.4,-.4,3.1c-.3,.6,-.9,1.6,-1.9,1.6c-1.6,0,-1.1,-1.8,-2,-1.8c-.5,0,-.6,.1,-.6,.6Z" class="g0_96"/>
<path d="M483.5,263.4c-1.9,0,-2,-2.8,-2,-5c0,-2.2,0,-5.1,2,-5.1c1.9,0,1.9,2.9,1.9,5.1c0,2.2,0,5,-1.9,5Zm0,-10.4c-2.6,0,-3.4,2.7,-3.4,5.4c0,2.6,.8,5.2,3.4,5.2c2.5,0,3.3,-2.6,3.3,-5.2c0,-2.7,-.7,-5.4,-3.3,-5.4Z" class="g0_96"/>
<path d="M491.8,263.4c-1.9,0,-1.9,-2.8,-1.9,-5c0,-2.2,0,-5.1,1.9,-5.1c2,0,2,2.9,2,5.1c0,2.2,-.1,5,-2,5Zm0,-10.4c-2.6,0,-3.3,2.7,-3.3,5.4c0,2.6,.8,5.2,3.3,5.2c2.6,0,3.4,-2.6,3.4,-5.2c0,-2.7,-.8,-5.4,-3.4,-5.4Z" class="g0_96"/>
<path d="M467.1,278h7.6v-.8h-7.6Z" class="g0_96"/>
<path d="M478.1,274.5c0,-1.7,.3,-3.3,1.8,-3.3c1.2,0,1.8,1.7,1.8,3.9v.7c-.4,.9,-.9,1.8,-2,1.8c-1.3,0,-1.6,-1.7,-1.6,-3.1Zm-1.3,5.6c0,.7,1.4,1.4,2.4,1.4c3.1,0,4.1,-2.8,4.1,-5.9c0,-2.5,-1,-4.7,-3.4,-4.7c-2,0,-3.4,1.6,-3.4,3.6c0,2,1.1,3.4,3.1,3.4c1,0,1.6,-.6,2.1,-1.3c0,1.2,0,2.4,-.4,3.1c-.3,.6,-.9,1.6,-1.9,1.6c-1.6,0,-1.1,-1.8,-1.9,-1.8c-.6,0,-.7,.2,-.7,.6Z" class="g0_96"/>
<path d="M488.2,281.3c-1.9,0,-1.9,-2.8,-1.9,-4.9c0,-2.3,0,-5.2,1.9,-5.2c2,0,2,2.9,2,5.2c0,2.1,-.1,4.9,-2,4.9Zm0,-10.4c-2.6,0,-3.4,2.7,-3.4,5.4c0,2.6,.9,5.2,3.4,5.2c2.6,0,3.4,-2.6,3.4,-5.2c0,-2.7,-.8,-5.4,-3.4,-5.4Z" class="g0_96"/>
<path d="M496.6,281.3c-1.9,0,-2,-2.8,-2,-4.9c0,-2.3,0,-5.2,2,-5.2c1.9,0,1.9,2.9,1.9,5.2c0,2.1,0,4.9,-1.9,4.9Zm0,-10.4c-2.6,0,-3.4,2.7,-3.4,5.4c0,2.6,.8,5.2,3.4,5.2c2.5,0,3.3,-2.6,3.3,-5.2c0,-2.7,-.7,-5.4,-3.3,-5.4Z" class="g0_96"/>
<path d="M501.5,286.5l.2,.6c2.1,-2.7,4.1,-8.6,4.1,-18.5c0,-9.8,-1.9,-14.6,-4.1,-17.8l-.2,.6c2.3,3.4,2.9,11.7,2.9,17.2c0,5.5,-.6,14.5,-2.9,17.9Z" class="g0_96"/>
<path d="M352.9,456.1C350.6,452.7,350,443.7,350,438.3c0,-5.5,.6,-13.9,2.9,-17.3l-.2,-.6c-2.2,3.3,-4.1,8,-4.1,17.9c0,9.8,2,15.7,4.1,18.4l.2,-.6Z" class="g0_96"/>
<path d="M354.6,429.7h7.6v-.8h-7.6Z" class="g0_96"/>
<path d="M366.7,426.7c-.9,0,-1.4,-.6,-1.4,-1.6c0,-1,.5,-2.2,1.8,-2.2c1.6,0,1.8,1.3,1.8,2.6c0,1.3,-.4,2,-1,2.9c-.4,.6,-.9,1.2,-1.5,1.9c-.7,.7,-1.5,1.5,-2.6,2.4v.4h6.3l.5,-2.9h-.4c-.1,.4,-.3,.6,-.4,.8c-.2,.5,-.6,.8,-1.3,.8h-2.9v-.1c.6,-.5,1.3,-1,1.9,-1.4c1,-.9,2,-1.9,2.6,-3.1c.3,-.6,.4,-1.1,.4,-1.7c0,-.4,-.1,-.8,-.2,-1.1c-.5,-1.1,-1.5,-1.8,-3,-1.8c-1,0,-1.9,.4,-2.4,.8c-.5,.5,-1,1.1,-1,2c0,.7,.2,1.1,.5,1.5c.3,.3,.7,.5,1.3,.5c.5,0,.9,-.2,1,-.7Z" class="g0_96"/>
<path d="M395.3,433c-1.9,0,-1.9,-2.8,-1.9,-4.9c0,-2.3,0,-5.2,1.9,-5.2c1.9,0,1.9,2.9,1.9,5.2c0,2.1,0,4.9,-1.9,4.9Zm0,-10.4c-2.6,0,-3.4,2.7,-3.4,5.4c0,2.6,.8,5.2,3.4,5.2c2.6,0,3.4,-2.5,3.4,-5.2c0,-2.7,-.8,-5.4,-3.4,-5.4Z" class="g0_96"/>
<path d="M354.6,447.6h7.6v-.8h-7.6Z" class="g0_96"/>
<path d="M366.7,444.6c-.9,0,-1.4,-.6,-1.4,-1.6c0,-1,.5,-2.2,1.8,-2.2c1.6,0,1.8,1.3,1.8,2.6c0,1.3,-.4,2,-1,2.9c-.4,.6,-.9,1.2,-1.5,1.9c-.7,.7,-1.5,1.5,-2.6,2.4v.4h6.3l.5,-2.8h-.4c-.1,.3,-.3,.5,-.4,.7c-.2,.5,-.6,.8,-1.3,.8h-2.9v-.1c.6,-.5,1.3,-1,1.9,-1.4c1,-.9,2,-1.9,2.6,-3.1c.3,-.6,.4,-1.1,.4,-1.7c0,-.4,-.1,-.8,-.2,-1.1c-.5,-1.1,-1.5,-1.8,-3,-1.8c-1,0,-1.9,.4,-2.4,.8c-.5,.5,-1,1.1,-1,2c0,.7,.2,1.1,.5,1.5c.3,.3,.7,.5,1.3,.5c.5,0,.9,-.2,1,-.7Z" class="g0_96"/>
<path d="M387.3,447.6h7.6v-.8h-7.6Z" class="g0_96"/>
<path d="M399.5,444.6c-.9,0,-1.5,-.6,-1.5,-1.6c0,-1,.6,-2.2,1.8,-2.2c1.7,0,1.8,1.3,1.8,2.6c0,1.3,-.3,2,-.9,2.9c-.4,.6,-1,1.2,-1.6,1.9c-.7,.7,-1.5,1.5,-2.5,2.4v.4h6.2l.5,-2.8h-.4c-.1,.3,-.2,.5,-.3,.7c-.2,.5,-.7,.8,-1.4,.8h-2.9v-.1c.7,-.5,1.3,-1,1.9,-1.4c1,-.9,2.1,-1.9,2.7,-3.1c.2,-.6,.4,-1.1,.4,-1.7c0,-.4,-.1,-.8,-.3,-1.1c-.5,-1.1,-1.5,-1.8,-3,-1.8c-.9,0,-1.8,.4,-2.3,.8c-.6,.5,-1,1.1,-1,2c0,.7,.2,1.1,.5,1.5c.3,.3,.7,.5,1.2,.5c.6,0,1,-.2,1.1,-.7Z" class="g0_96"/>
<path d="M405,456.1l.2,.6c2.1,-2.7,4.1,-8.6,4.1,-18.4c0,-9.9,-2,-14.6,-4.1,-17.9l-.2,.6c2.2,3.4,2.8,11.8,2.8,17.3c0,5.4,-.6,14.4,-2.8,17.8Z" class="g0_96"/>
<path d="M419.9,456.1c-2.2,-3.4,-2.8,-12.4,-2.8,-17.8c0,-5.5,.6,-13.9,2.8,-17.3l-.1,-.6c-2.2,3.3,-4.1,8,-4.1,17.9c0,9.8,2,15.7,4.1,18.4l.1,-.6Z" class="g0_96"/>
<path d="M427.4,425.8l-4.4,5.4h-.1l1.3,-6.2c.1,-.3,.2,-.8,.3,-1c.1,-.4,.3,-.8,.7,-.9c.1,-.1,.4,-.1,.6,-.1l.1,-.2h-4v.2c.5,0,.8,0,.9,.1c.2,.1,.2,.5,.2,.7c0,.3,0,.6,-.1,1.1l-1.9,8.3h.7l6.1,-7.3c.4,-.5,.8,-1,1.1,-1.4c.3,-.3,.6,-.6,.8,-.8c.3,-.2,.8,-.5,1,-.6c.2,-.1,.5,-.1,.7,-.1v-.2h-3.3l-.1,.2c.4,0,.6,0,.7,.1c.2,0,.2,.3,.2,.4c0,.2,0,.4,-.3,.8c-.2,.3,-.7,.9,-1.2,1.5Z" class="g0_96"/>
<path d="M432.7,432.2c0,.7,-.3,1.4,-.7,1.8c-.4,.4,-1.1,.8,-1.7,.9l1.1,-4c0,0,.1,0,.2,0q.1,0,.2,0c.7,0,.9,.7,.9,1.3Zm-2.1,-1L429,437c-.1,.3,-.4,.4,-.9,.4v.1h2.5v-.1c-.4,0,-.8,-.1,-.8,-.4q0,-.1,0,-.2c0,0,0,-.1,0,-.2l.4,-1.4c.9,-.1,1.8,-.6,2.3,-1c.6,-.5,1,-1.1,1,-2c0,-1,-.5,-1.6,-1.5,-1.6c-.2,0,-.4,0,-.6,.1l.3,-1.2h-.6l-.4,1.4c-.3,.1,-.6,.3,-.9,.5c-.3,.2,-.5,.4,-.7,.7l.2,.1c.3,-.3,.8,-.8,1.3,-1Z" class="g0_96"/>
<path d="M427.3,443.7l-4.5,5.4h-.1l1.4,-6.2c0,-.3,.2,-.8,.2,-1c.2,-.4,.3,-.8,.7,-.9c.2,-.1,.4,-.1,.7,-.1v-.2h-3.9l-.1,.2c.5,0,.8,0,1,.1c.2,.1,.2,.5,.2,.7c0,.3,-.1,.6,-.2,1.1l-1.9,8.3h.8l6,-7.3c.4,-.5,.9,-1,1.1,-1.4c.3,-.3,.6,-.6,.9,-.8c.3,-.2,.8,-.5,1,-.6c.2,-.1,.4,-.1,.6,-.1l.1,-.2h-3.4v.2c.3,0,.6,0,.7,.1c.1,0,.2,.3,.2,.4c0,.2,-.1,.4,-.3,.8c-.2,.3,-.7,.9,-1.2,1.5Z" class="g0_96"/>
<path d="M431.9,448.5c-.3,0,-.6,.1,-1,.3c-.3,.3,-.6,.5,-.9,.9c-.4,.5,-.9,1.4,-.9,2.4c0,.7,.3,1.2,1,1.2c.9,0,1.3,-.6,1.6,-1.1c-.2,.7,-.1,1.1,.4,1.1c.2,0,.5,-.1,.8,-.3c.3,-.3,.6,-.6,.8,-1l-.1,-.1c-.2,.3,-.7,1,-1,1c-.2,0,-.2,-.3,-.2,-.5c0,-.6,.4,-1.7,.7,-2.5l.5,-1.3h-.8l-.1,.5c-.2,-.4,-.4,-.6,-.8,-.6Zm.1,.2c.5,0,.4,1,.3,1.4c0,.2,-.1,.4,-.2,.7c-.3,.9,-1.1,2.3,-1.7,2.3c-.4,0,-.5,-.7,-.5,-1.1c0,-.3,0,-.6,.1,-1c.3,-.7,1.1,-2.3,2,-2.3Z" class="g0_96"/>
<path d="M435.9,456.1l.1,.6c2.1,-2.7,4.1,-8.6,4.1,-18.4c0,-9.9,-1.9,-14.6,-4.1,-17.9l-.1,.6c2.2,3.4,2.8,11.8,2.8,17.3c0,5.4,-.6,14.4,-2.8,17.8Z" class="g0_96"/>
<path d="M446.8,440.4h7.6v-.8h-7.6Zm0,-3h7.6v-.8h-7.6Z" class="g0_96"/>
<path d="M465.5,456.1c-2.3,-3.4,-2.9,-12.4,-2.9,-17.8c0,-5.5,.6,-13.9,2.9,-17.3l-.2,-.6c-2.2,3.3,-4.1,8,-4.1,17.9c0,9.8,2,15.7,4.1,18.4l.2,-.6Z" class="g0_96"/>
<path d="M467.1,429.7h7.6v-.8h-7.6Z" class="g0_96"/>
<path d="M481.7,429.7c0,1.7,-.3,3.3,-1.8,3.3c-1.2,0,-1.8,-1.8,-1.8,-4v-.6c.4,-.9,.9,-1.8,2,-1.8c1.3,0,1.6,1.6,1.6,3.1Zm1.2,-5.6c0,-.7,-1.3,-1.5,-2.3,-1.5c-3.1,0,-4.1,2.8,-4.1,6c0,2.4,1,4.6,3.4,4.6c2,0,3.4,-1.5,3.4,-3.6c0,-1.9,-1.1,-3.3,-3.1,-3.3c-1,0,-1.6,.6,-2.1,1.3v-.1c0,-1.1,0,-2.3,.4,-3c.3,-.6,.9,-1.6,1.9,-1.6c1.5,0,1.1,1.8,1.9,1.8c.6,0,.6,-.2,.6,-.6Z" class="g0_96"/>
<path d="M488.2,433c-1.9,0,-1.9,-2.8,-1.9,-4.9c0,-2.3,0,-5.2,1.9,-5.2c2,0,2,2.9,2,5.2c0,2.1,-.1,4.9,-2,4.9Zm0,-10.4c-2.6,0,-3.4,2.7,-3.4,5.4c0,2.6,.9,5.2,3.4,5.2c2.6,0,3.4,-2.5,3.4,-5.2c0,-2.7,-.8,-5.4,-3.4,-5.4Z" class="g0_96"/>
<path d="M496.6,433c-1.9,0,-2,-2.8,-2,-4.9c0,-2.3,0,-5.2,2,-5.2c1.9,0,1.9,2.9,1.9,5.2c0,2.1,0,4.9,-1.9,4.9Zm0,-10.4c-2.6,0,-3.4,2.7,-3.4,5.4c0,2.6,.8,5.2,3.4,5.2c2.5,0,3.3,-2.5,3.3,-5.2c0,-2.7,-.7,-5.4,-3.3,-5.4Z" class="g0_96"/>
<path d="M467.1,447.6h7.6v-.8h-7.6Z" class="g0_96"/>
<path d="M478.1,444.1c0,-1.7,.3,-3.3,1.8,-3.3c1.2,0,1.8,1.7,1.8,3.9v.7c-.4,.9,-.9,1.8,-2,1.8c-1.3,0,-1.6,-1.7,-1.6,-3.1Zm-1.3,5.6c0,.7,1.4,1.4,2.4,1.4c3.1,0,4.1,-2.8,4.1,-5.9c0,-2.4,-1,-4.7,-3.4,-4.7c-2,0,-3.4,1.6,-3.4,3.7c0,1.9,1.1,3.3,3.1,3.3c1,0,1.6,-.6,2.1,-1.3c0,1.2,0,2.4,-.4,3.1c-.3,.6,-.9,1.6,-1.9,1.6c-1.6,0,-1.1,-1.8,-1.9,-1.8c-.6,0,-.7,.2,-.7,.6Z" class="g0_96"/>
<path d="M488.2,450.9c-1.9,0,-1.9,-2.8,-1.9,-4.9c0,-2.2,0,-5.2,1.9,-5.2c2,0,2,3,2,5.2c0,2.1,-.1,4.9,-2,4.9Zm0,-10.4c-2.6,0,-3.4,2.7,-3.4,5.4c0,2.6,.9,5.2,3.4,5.2c2.6,0,3.4,-2.5,3.4,-5.2c0,-2.7,-.8,-5.4,-3.4,-5.4Z" class="g0_96"/>
<path d="M496.6,450.9c-1.9,0,-2,-2.8,-2,-4.9c0,-2.2,0,-5.2,2,-5.2c1.9,0,1.9,3,1.9,5.2c0,2.1,0,4.9,-1.9,4.9Zm0,-10.4c-2.6,0,-3.4,2.7,-3.4,5.4c0,2.6,.8,5.2,3.4,5.2c2.5,0,3.3,-2.5,3.3,-5.2c0,-2.7,-.7,-5.4,-3.3,-5.4Z" class="g0_96"/>
<path d="M501.5,456.1l.2,.6c2.1,-2.7,4.1,-8.6,4.1,-18.4c0,-9.9,-1.9,-14.6,-4.1,-17.9l-.2,.6c2.3,3.4,2.9,11.8,2.9,17.3c0,5.4,-.6,14.4,-2.9,17.8Z" class="g0_96"/>
<path d="M352.9,567.5C350.6,564.1,350,555.1,350,549.7c0,-5.5,.6,-13.9,2.9,-17.3l-.2,-.6c-2.2,3.3,-4.1,8,-4.1,17.9c0,9.8,2,15.7,4.1,18.4l.2,-.6Z" class="g0_96"/>
<path d="M354.6,541.1h7.6v-.8h-7.6Z" class="g0_96"/>
<path d="M366.7,538.1c-.9,0,-1.4,-.6,-1.4,-1.6c0,-1,.5,-2.2,1.8,-2.2c1.6,0,1.8,1.3,1.8,2.6c0,1.3,-.4,2,-1,2.9c-.4,.6,-.9,1.2,-1.5,1.9c-.7,.7,-1.6,1.5,-2.6,2.4v.4h6.3l.5,-2.8h-.4c-.1,.3,-.3,.5,-.4,.7c-.2,.5,-.6,.8,-1.3,.8h-2.9v-.1c.6,-.5,1.3,-1,1.9,-1.4c1,-.9,2,-1.9,2.6,-3.1c.3,-.6,.4,-1.1,.4,-1.7c0,-.4,-.1,-.8,-.2,-1.1c-.5,-1.1,-1.5,-1.8,-3,-1.8c-1,0,-1.9,.4,-2.4,.8c-.5,.5,-1,1.1,-1,2c0,.7,.2,1.1,.5,1.5c.3,.3,.7,.5,1.3,.5c.5,0,.9,-.2,1,-.7Z" class="g0_96"/>
<path d="M395.3,544.4c-1.9,0,-1.9,-2.7,-1.9,-4.9c0,-2.2,0,-5.2,1.9,-5.2c1.9,0,1.9,3,1.9,5.2c0,2.2,0,4.9,-1.9,4.9Zm0,-10.4c-2.6,0,-3.4,2.8,-3.4,5.4c0,2.6,.8,5.2,3.4,5.2c2.6,0,3.4,-2.5,3.4,-5.2c0,-2.7,-.8,-5.4,-3.4,-5.4Z" class="g0_96"/>
<path d="M362.5,562.3c-1.9,0,-1.9,-2.7,-1.9,-4.9c0,-2.2,0,-5.2,1.9,-5.2c2,0,2,3,2,5.2c0,2.2,-.1,4.9,-2,4.9Zm0,-10.4c-2.6,0,-3.3,2.7,-3.3,5.4c0,2.6,.8,5.2,3.3,5.2c2.6,0,3.4,-2.5,3.4,-5.2c0,-2.7,-.7,-5.4,-3.4,-5.4Z" class="g0_96"/>
<path d="M387.3,559h7.6v-.8h-7.6Z" class="g0_96"/>
<path d="M399.5,556c-.9,0,-1.5,-.6,-1.5,-1.6c0,-1,.6,-2.2,1.8,-2.2c1.7,0,1.8,1.4,1.8,2.6c0,1.3,-.3,2,-.9,2.9c-.4,.6,-1,1.2,-1.6,1.9c-.7,.7,-1.5,1.5,-2.5,2.4v.4h6.2l.5,-2.8h-.4c-.1,.3,-.2,.5,-.3,.7c-.2,.5,-.7,.8,-1.4,.8h-2.9V561c.7,-.5,1.3,-1,1.9,-1.4c1,-.9,2.1,-1.9,2.7,-3.1c.2,-.6,.4,-1.1,.4,-1.7c0,-.4,-.1,-.8,-.3,-1.1c-.5,-1.1,-1.5,-1.8,-3,-1.8c-.9,0,-1.8,.4,-2.3,.8c-.6,.5,-1,1.1,-1,2c0,.7,.2,1.1,.5,1.5c.3,.3,.7,.5,1.2,.5c.6,0,1,-.2,1.1,-.7Z" class="g0_96"/>
<path d="M405,567.5l.2,.6c2.1,-2.7,4.1,-8.6,4.1,-18.4c0,-9.9,-2,-14.6,-4.1,-17.9l-.2,.6c2.2,3.4,2.8,11.8,2.8,17.3c0,5.4,-.6,14.4,-2.8,17.8Z" class="g0_96"/>
<path d="M419.9,567.5c-2.2,-3.4,-2.8,-12.4,-2.8,-17.8c0,-5.5,.6,-13.9,2.8,-17.3l-.1,-.6c-2.2,3.3,-4.1,8,-4.1,17.9c0,9.8,2,15.7,4.1,18.4l.1,-.6Z" class="g0_96"/>
<path d="M427.4,537.2l-4.4,5.4h-.1l1.3,-6.2c.1,-.3,.2,-.8,.3,-1c.1,-.4,.3,-.8,.7,-.9c.1,-.1,.4,-.1,.6,-.1l.1,-.2h-4v.2c.5,0,.8,0,.9,.1c.2,.1,.2,.5,.2,.7c0,.3,0,.6,-.1,1.1l-1.9,8.3h.7l6.1,-7.3c.4,-.5,.8,-1,1.1,-1.4c.3,-.3,.6,-.6,.8,-.8c.3,-.2,.8,-.5,1,-.6c.2,-.1,.5,-.1,.7,-.1v-.2h-3.3l-.1,.2c.4,0,.6,0,.7,.1c.2,0,.2,.3,.2,.4c0,.2,0,.5,-.3,.8c-.2,.3,-.7,.9,-1.2,1.5Z" class="g0_96"/>
<path d="M432.7,543.6c0,.7,-.3,1.4,-.7,1.8c-.4,.4,-1.1,.8,-1.7,1l1.1,-4.1c0,0,.1,0,.2,0q.1,0,.2,0c.7,0,.9,.7,.9,1.3Zm-2.1,-1l-1.6,5.8c-.1,.3,-.4,.4,-.9,.4v.1h2.5v-.1c-.4,0,-.8,0,-.8,-.4q0,-.1,0,-.2c0,0,0,-.1,0,-.2l.4,-1.4c.9,-.1,1.8,-.5,2.3,-1c.6,-.5,1,-1.1,1,-2c0,-1,-.5,-1.6,-1.5,-1.6c-.2,0,-.4,0,-.6,.1l.3,-1.2h-.6l-.4,1.4c-.3,.1,-.6,.3,-.9,.5c-.3,.2,-.5,.4,-.7,.7l.2,.1c.3,-.3,.8,-.7,1.3,-1Z" class="g0_96"/>
<path d="M427.3,555.1l-4.5,5.4h-.1l1.4,-6.2c0,-.3,.2,-.8,.2,-1c.2,-.4,.3,-.8,.7,-.9c.2,-.1,.4,-.1,.7,-.1v-.2h-3.9l-.1,.2c.5,0,.8,0,1,.1c.2,.1,.2,.5,.2,.7c0,.3,-.1,.6,-.2,1.1l-1.9,8.3h.8l6,-7.3c.4,-.5,.9,-1,1.1,-1.4c.3,-.3,.6,-.6,.9,-.8c.3,-.2,.8,-.5,1,-.6c.2,-.1,.4,-.1,.6,-.1l.1,-.2h-3.4v.2c.3,0,.6,0,.7,.1c.1,0,.2,.3,.2,.4c0,.2,-.1,.5,-.3,.8c-.2,.3,-.7,.9,-1.2,1.5Z" class="g0_96"/>
<path d="M431.9,559.9c-.3,0,-.6,.1,-1,.4c-.3,.2,-.6,.4,-.9,.8c-.4,.5,-.9,1.4,-.9,2.4c0,.7,.3,1.2,1,1.2c.9,0,1.3,-.6,1.6,-1.1c-.2,.7,-.1,1.1,.4,1.1c.2,0,.5,-.1,.8,-.3c.3,-.3,.6,-.6,.8,-1l-.1,-.1c-.2,.3,-.7,1,-1,1c-.2,0,-.2,-.3,-.2,-.4c0,-.7,.4,-1.8,.7,-2.6l.5,-1.3h-.8l-.1,.5c-.2,-.4,-.4,-.6,-.8,-.6Zm.1,.2c.5,0,.4,1,.3,1.4c0,.2,-.1,.5,-.2,.7c-.3,.9,-1.1,2.3,-1.7,2.3c-.4,0,-.5,-.7,-.5,-1.1c0,-.3,0,-.6,.1,-1c.3,-.7,1.1,-2.3,2,-2.3Z" class="g0_96"/>
<path d="M435.9,567.5l.1,.6c2.1,-2.7,4.1,-8.6,4.1,-18.4c0,-9.9,-1.9,-14.6,-4.1,-17.9l-.1,.6c2.2,3.4,2.8,11.8,2.8,17.3c0,5.4,-.6,14.4,-2.8,17.8Z" class="g0_96"/>
<path d="M446.8,551.8h7.6V551h-7.6Zm0,-3h7.6V548h-7.6Z" class="g0_96"/>
<path d="M465.5,567.5c-2.3,-3.4,-2.9,-12.4,-2.9,-17.8c0,-5.5,.6,-13.9,2.9,-17.3l-.2,-.6c-2.2,3.3,-4.1,8,-4.1,17.9c0,9.8,2,15.7,4.1,18.4l.2,-.6Z" class="g0_96"/>
<path d="M467.1,541.1h7.6v-.8h-7.6Z" class="g0_96"/>
<path d="M481.7,541.1c0,1.7,-.3,3.3,-1.8,3.3c-1.2,0,-1.8,-1.8,-1.8,-4v-.6c.4,-.9,.9,-1.8,2,-1.8c1.3,0,1.6,1.6,1.6,3.1Zm1.2,-5.6c0,-.7,-1.3,-1.5,-2.3,-1.5c-3.1,0,-4.1,2.9,-4.1,6c0,2.4,1,4.6,3.4,4.6c2,0,3.4,-1.5,3.4,-3.6c0,-1.9,-1.1,-3.3,-3.1,-3.3c-1,0,-1.6,.6,-2.1,1.3v-.1c0,-1.1,0,-2.3,.4,-3c.3,-.6,.9,-1.6,1.9,-1.6c1.5,0,1.1,1.8,1.9,1.8c.6,0,.6,-.2,.6,-.6Z" class="g0_96"/>
<path d="M488.2,544.4c-1.9,0,-1.9,-2.7,-1.9,-4.9c0,-2.2,0,-5.2,1.9,-5.2c2,0,2,3,2,5.2c0,2.2,-.1,4.9,-2,4.9Zm0,-10.4c-2.6,0,-3.4,2.8,-3.4,5.4c0,2.6,.9,5.2,3.4,5.2c2.6,0,3.4,-2.5,3.4,-5.2c0,-2.7,-.8,-5.4,-3.4,-5.4Z" class="g0_96"/>
<path d="M496.6,544.4c-1.9,0,-2,-2.7,-2,-4.9c0,-2.2,0,-5.2,2,-5.2c1.9,0,1.9,3,1.9,5.2c0,2.2,0,4.9,-1.9,4.9Zm0,-10.4c-2.6,0,-3.4,2.8,-3.4,5.4c0,2.6,.8,5.2,3.4,5.2c2.5,0,3.3,-2.5,3.3,-5.2c0,-2.7,-.7,-5.4,-3.3,-5.4Z" class="g0_96"/>
<path d="M467.1,559h7.6v-.8h-7.6Z" class="g0_96"/>
<path d="M479.6,562.3c-1,0,-1.8,-1,-1.8,-1.9c0,-.8,.5,-1.4,1.2,-1.4c-.1,-.3,-.6,-.5,-1,-.5c-.2,0,-.5,0,-.6,.1c-.6,.2,-1,.8,-1,1.6c0,.3,.1,.6,.3,.9c.5,.9,1.5,1.4,2.9,1.4c1.1,0,2,-.3,2.6,-.8c.5,-.5,1,-1.1,1,-2.1c0,-.3,-.1,-.6,-.2,-.9c-.4,-.9,-1.1,-1.5,-2.1,-1.8v-.1c.5,-.1,1,-.5,1.4,-.9c.3,-.4,.6,-.9,.6,-1.6c0,-.3,-.1,-.6,-.3,-.9c-.4,-1,-1.5,-1.5,-2.9,-1.5c-.9,0,-1.6,.2,-2.1,.6c-.4,.2,-.8,.7,-.8,1.3c0,.5,.2,.8,.4,1c.2,.3,.5,.5,1,.5c.2,0,.4,-.1,.6,-.2c.2,-.1,.3,-.2,.3,-.3c-.6,0,-1,-.5,-1,-1.1c0,-.8,.7,-1.5,1.6,-1.5c1,0,1.6,.9,1.6,2.2c0,1.2,-.4,2.4,-1.5,2.4c-.2,0,-.5,-.2,-.8,-.2c-.3,0,-.7,.1,-.7,.4c0,.3,.4,.4,.7,.4c.3,0,.7,-.2,.9,-.3c1.2,0,1.6,1.1,1.6,2.4c0,1.4,-.5,2.8,-1.9,2.8Z" class="g0_96"/>
<path d="M488.2,562.3c-1.9,0,-1.9,-2.7,-1.9,-4.9c0,-2.2,0,-5.2,1.9,-5.2c2,0,2,3,2,5.2c0,2.2,-.1,4.9,-2,4.9Zm0,-10.4c-2.6,0,-3.4,2.7,-3.4,5.4c0,2.6,.9,5.2,3.4,5.2c2.6,0,3.4,-2.5,3.4,-5.2c0,-2.7,-.8,-5.4,-3.4,-5.4Z" class="g0_96"/>
<path d="M496.6,562.3c-1.9,0,-2,-2.7,-2,-4.9c0,-2.2,0,-5.2,2,-5.2c1.9,0,1.9,3,1.9,5.2c0,2.2,0,4.9,-1.9,4.9Zm0,-10.4c-2.6,0,-3.4,2.7,-3.4,5.4c0,2.6,.8,5.2,3.4,5.2c2.5,0,3.3,-2.5,3.3,-5.2c0,-2.7,-.7,-5.4,-3.3,-5.4Z" class="g0_96"/>
<path d="M501.5,567.5l.2,.6c2.1,-2.7,4.1,-8.6,4.1,-18.4c0,-9.9,-1.9,-14.6,-4.1,-17.9l-.2,.6c2.3,3.4,2.9,11.8,2.9,17.3c0,5.4,-.6,14.4,-2.9,17.8Z" class="g0_96"/>
<path d="M366.3,700.6c-2.2,-3.4,-2.8,-12.4,-2.8,-17.8c0,-5.5,.6,-13.9,2.8,-17.3l-.1,-.6h-.1c-2.1,3.3,-4.1,8,-4.1,17.9c0,9.8,2.1,15.7,4.1,18.4l.2,-.6Z" class="g0_96"/>
<path d="M369.1,667.9v.2c.4,0,1.1,.1,1.3,.2c.4,.2,.4,.4,.4,1v6.5c0,.3,0,.6,0,.8c-.1,.7,-.9,.7,-1.7,.8v.2h4.7v-.2c-.5,0,-1.2,-.1,-1.4,-.3c-.2,-.3,-.3,-.8,-.3,-1.4v-8.6c-.7,.4,-2.1,.8,-3,.8Z" class="g0_96"/>
<path d="M394.5,677.5c-1.9,0,-1.9,-2.8,-1.9,-4.9c0,-2.3,0,-5.2,1.9,-5.2c2,0,2,2.9,2,5.2c0,2.1,-.1,4.9,-2,4.9Zm0,-10.4c-2.6,0,-3.3,2.7,-3.3,5.4c0,2.6,.8,5.2,3.3,5.2c2.6,0,3.4,-2.6,3.4,-5.2c0,-2.7,-.7,-5.4,-3.4,-5.4Z" class="g0_96"/>
<path d="M371.3,695.4c-2,0,-2,-2.8,-2,-4.9c0,-2.3,0,-5.2,2,-5.2c1.9,0,1.9,2.9,1.9,5.2c0,2.1,0,4.9,-1.9,4.9Zm0,-10.4c-2.6,0,-3.4,2.7,-3.4,5.4c0,2.6,.8,5.2,3.4,5.2c2.5,0,3.3,-2.6,3.3,-5.2c0,-2.7,-.7,-5.4,-3.3,-5.4Z" class="g0_96"/>
<path d="M392.3,685.8v.2c.5,0,1.1,.1,1.3,.2c.5,.2,.5,.4,.5,1v6.5c0,.3,0,.6,-.1,.8c0,.7,-.8,.7,-1.6,.8v.2h4.7v-.2c-.5,0,-1.2,-.1,-1.4,-.3c-.3,-.3,-.3,-.8,-.3,-1.4V685c-.8,.4,-2.1,.8,-3.1,.8Z" class="g0_96"/>
<path d="M399.5,700.6l.2,.6c2,-2.7,4.1,-8.6,4.1,-18.4c0,-9.9,-2,-14.6,-4.1,-17.9l-.2,.6c2.2,3.4,2.8,11.8,2.8,17.3c0,5.4,-.6,14.4,-2.8,17.8Z" class="g0_96"/>
<path d="M414.4,700.6c-2.2,-3.4,-2.8,-12.4,-2.8,-17.8c0,-5.5,.6,-13.9,2.8,-17.3l-.1,-.6h-.1c-2.1,3.3,-4.1,8,-4.1,17.9c0,9.8,2.1,15.7,4.1,18.4l.2,-.6Z" class="g0_96"/>
<path d="M421.9,670.3l-4.4,5.4h-.2l1.4,-6.2c.1,-.3,.2,-.8,.3,-1c.1,-.4,.3,-.8,.7,-.9c.1,-.1,.4,-.1,.6,-.1l.1,-.2h-4v.2c.4,0,.8,0,.9,.1c.2,.1,.2,.5,.2,.7c0,.3,0,.6,-.1,1.1l-1.9,8.3h.7l6.1,-7.3c.4,-.5,.8,-1.1,1.1,-1.4c.3,-.4,.6,-.6,.8,-.8c.3,-.2,.8,-.5,1,-.6c.2,-.1,.5,-.1,.7,-.1v-.2h-3.3l-.1,.2c.3,0,.6,0,.7,.1c.2,0,.2,.3,.2,.4c0,.2,0,.4,-.3,.8c-.2,.3,-.7,.9,-1.2,1.5Z" class="g0_96"/>
<path d="M427.2,676.7c0,.6,-.3,1.4,-.7,1.8c-.4,.4,-1.1,.8,-1.7,.9l1.1,-4c0,0,.1,0,.2,0c0,0,.1,0,.2,0c.7,0,.9,.7,.9,1.3Zm-2.1,-1l-1.6,5.8c-.1,.3,-.4,.4,-.9,.4v.1h2.5v-.1c-.4,0,-.8,-.1,-.8,-.4q0,-.1,0,-.2c0,0,0,-.1,0,-.2l.4,-1.4c.9,-.1,1.8,-.6,2.3,-1c.5,-.5,1,-1.2,1,-2.1c0,-.9,-.6,-1.5,-1.5,-1.5c-.2,0,-.4,0,-.6,.1l.3,-1.2h-.6l-.4,1.4c-.3,.1,-.6,.3,-.9,.5c-.3,.2,-.5,.4,-.7,.6l.2,.2c.3,-.3,.8,-.8,1.3,-1Z" class="g0_96"/>
<path d="M421.8,688.2l-4.5,5.4h-.1l1.4,-6.2c0,-.3,.2,-.8,.2,-1c.2,-.4,.3,-.8,.7,-.9c.2,-.1,.4,-.1,.7,-.1v-.2h-3.9l-.1,.2c.5,0,.8,0,1,.1c.2,.1,.2,.5,.2,.7c0,.3,-.1,.6,-.2,1.1l-1.9,8.3h.8l6,-7.3c.4,-.5,.9,-1.1,1.1,-1.4c.3,-.3,.6,-.6,.9,-.8c.3,-.2,.8,-.5,1,-.6c.2,-.1,.4,-.1,.6,-.1l.1,-.2h-3.4v.2c.3,0,.6,0,.7,.1c.1,0,.2,.3,.2,.4c0,.2,-.1,.4,-.3,.8c-.2,.3,-.7,.9,-1.2,1.5Z" class="g0_96"/>
<path d="M426.4,693c-.3,0,-.7,.1,-1,.3c-.3,.3,-.6,.5,-.9,.9c-.5,.5,-.9,1.4,-.9,2.4c0,.7,.3,1.2,1,1.2c.9,0,1.3,-.6,1.5,-1.1h.1c-.2,.7,-.1,1.1,.4,1.1c.2,0,.5,-.1,.8,-.3c.3,-.3,.5,-.6,.8,-1l-.1,-.1c-.3,.3,-.7,1,-1,1c-.2,0,-.2,-.3,-.2,-.5c0,-.6,.4,-1.7,.7,-2.5l.5,-1.3h-.8l-.1,.5c-.2,-.4,-.4,-.6,-.8,-.6Zm.1,.2c.5,0,.4,1,.3,1.4c0,.2,-.1,.4,-.2,.7c-.3,.9,-1.1,2.3,-1.7,2.3c-.4,0,-.5,-.7,-.5,-1.1c0,-.3,0,-.6,.1,-1c.3,-.7,1,-2.3,2,-2.3Z" class="g0_96"/>
<path d="M430.3,700.6l.2,.6c2.1,-2.7,4.1,-8.6,4.1,-18.4c0,-9.9,-1.9,-14.6,-4,-17.9h-.1l-.2,.6c2.3,3.4,2.9,11.8,2.9,17.3c0,5.4,-.6,14.4,-2.9,17.8Z" class="g0_96"/>
<path d="M441.3,684.9h7.6v-.8h-7.6Zm0,-3h7.6v-.8h-7.6Z" class="g0_96"/>
<path d="M459.9,700.6c-2.2,-3.4,-2.8,-12.4,-2.8,-17.8c0,-5.5,.6,-13.9,2.8,-17.3l-.1,-.6h-.1c-2.1,3.3,-4,8,-4,17.9c0,9.8,2,15.7,4.1,18.4l.1,-.6Z" class="g0_96"/>
<path d="M464.6,677.5c-1,0,-1.7,-1,-1.7,-1.9c0,-.8,.4,-1.4,1.1,-1.4c-.1,-.3,-.6,-.5,-1,-.5c-.2,0,-.4,0,-.6,.1c-.6,.2,-1,.8,-1,1.6c0,.3,.1,.6,.3,.9c.5,.9,1.5,1.4,2.9,1.4c1.1,0,2,-.3,2.6,-.8c.5,-.5,1,-1.1,1,-2.1c0,-.3,-.1,-.6,-.2,-.9c-.3,-.9,-1.1,-1.5,-2.1,-1.8V672c.5,-.1,1.1,-.5,1.4,-.9c.3,-.4,.6,-.9,.6,-1.6c0,-.3,-.1,-.7,-.2,-1c-.5,-.9,-1.6,-1.4,-3,-1.4c-.9,0,-1.6,.2,-2.1,.5c-.4,.3,-.8,.8,-.8,1.4c0,.5,.2,.8,.4,1c.2,.3,.5,.4,1,.4c.2,0,.4,0,.6,-.1c.2,-.1,.3,-.2,.3,-.4c-.6,0,-1,-.4,-1,-1c0,-.8,.7,-1.5,1.6,-1.5c1,0,1.6,.9,1.6,2.2c0,1.2,-.4,2.4,-1.5,2.4c-.2,-.1,-.5,-.2,-.8,-.2c-.3,0,-.7,.1,-.7,.4c0,.3,.4,.4,.7,.4c.4,0,.7,-.2,.9,-.3c1.2,0,1.6,1.1,1.6,2.4c0,1.4,-.5,2.8,-1.9,2.8Z" class="g0_96"/>
<path d="M473.2,677.5c-1.9,0,-1.9,-2.8,-1.9,-4.9c0,-2.3,0,-5.2,1.9,-5.2c2,0,2,2.9,2,5.2c0,2.1,-.1,4.9,-2,4.9Zm0,-10.4c-2.6,0,-3.4,2.7,-3.4,5.4c0,2.6,.9,5.2,3.4,5.2c2.6,0,3.4,-2.6,3.4,-5.2c0,-2.7,-.8,-5.4,-3.4,-5.4Z" class="g0_96"/>
<path d="M481.6,677.5c-1.9,0,-2,-2.8,-2,-4.9c0,-2.3,0,-5.2,2,-5.2c1.9,0,1.9,2.9,1.9,5.2c0,2.1,0,4.9,-1.9,4.9Zm0,-10.4c-2.6,0,-3.4,2.7,-3.4,5.4c0,2.6,.8,5.2,3.4,5.2c2.5,0,3.4,-2.6,3.4,-5.2c0,-2.7,-.8,-5.4,-3.4,-5.4Z" class="g0_96"/>
<path d="M462.7,685.8v.2c.4,0,1.1,.1,1.3,.2c.4,.2,.4,.4,.4,1v6.5c0,.3,0,.6,0,.8c-.1,.7,-.9,.7,-1.7,.8v.2h4.7v-.2c-.5,0,-1.2,-.1,-1.4,-.3c-.2,-.3,-.3,-.8,-.3,-1.4V685c-.7,.4,-2.1,.8,-3,.8Z" class="g0_96"/>
<path d="M476,685h-.1c-.4,.2,-1,.3,-1.8,.3c-.7,0,-1.1,-.1,-1.6,-.3l-1.4,5.6v.1c0,.2,-.1,.2,.1,.2c.2,0,.2,-.1,.3,-.3c.3,-.8,.8,-1.4,1.7,-1.4c1.2,0,1.4,1,1.4,2.3c0,1,-.2,2,-.6,2.6c-.3,.5,-.8,1.3,-1.6,1.3c-.8,0,-1.1,-.8,-1.3,-1.4c-.1,-.4,-.1,-1,-.7,-1c-.5,0,-.7,.3,-.7,.8c0,.2,.1,.5,.2,.7c.4,.7,1.3,1.1,2.4,1.1c.6,0,1.1,-.1,1.6,-.3c1.3,-.5,2.3,-1.7,2.3,-3.5c0,-.4,0,-.8,-.2,-1.2c-.4,-1,-1.4,-1.7,-2.7,-1.7c-.5,0,-1.2,.2,-1.5,.6v-.2l.8,-2.9c0,0,.8,.2,1.3,.2c1,0,1.9,-.6,2.1,-1.6Z" class="g0_96"/>
<path d="M481.6,695.4c-1.9,0,-2,-2.8,-2,-4.9c0,-2.3,0,-5.2,2,-5.2c1.9,0,1.9,2.9,1.9,5.2c0,2.1,0,4.9,-1.9,4.9Zm0,-10.4c-2.6,0,-3.4,2.7,-3.4,5.4c0,2.6,.8,5.2,3.4,5.2c2.5,0,3.4,-2.6,3.4,-5.2c0,-2.7,-.8,-5.4,-3.4,-5.4Z" class="g0_96"/>
<path d="M486.5,700.6l.2,.6c2.1,-2.7,4.1,-8.6,4.1,-18.4c0,-9.9,-1.9,-14.6,-4.1,-17.9l-.2,.6c2.3,3.4,2.9,11.8,2.9,17.3c0,5.4,-.6,14.4,-2.9,17.8Z" class="g0_96"/>
</svg>