<?xml version="1.0" encoding="UTF-8" standalone="no"?>
<!DOCTYPE svg PUBLIC "-//W3C//DTD SVG 1.1//EN"
"http://www.w3.org/Graphics/SVG/1.1/DTD/svg11.dtd">
<svg viewBox="0 0 811 1017" version="1.1" xmlns="http://www.w3.org/2000/svg" xmlns:xlink="http://www.w3.org/1999/xlink">
<defs>
<style type="text/css"><![CDATA[
.g0_315{
fill: #F9FBFB;
}
.g1_315{
fill: #F3F6F7;
}
.g2_315{
fill: #F0F3F4;
}
.g3_315{
fill: #F6F7F7;
}
.g4_315{
fill: #EDEFF0;
}
.g5_315{
fill: #040504;
}
.g6_315{
fill: #B0B2B1;
}
.g7_315{
fill: #4C7BBF;
}
.g8_315{
fill: #D74562;
}
.g9_315{
fill: #0E0E0E;
}
]]></style>
</defs>
<path d="M467.5,533.3L312.8,510.6l-.1,.5L312.2,382l157.6,15.2l-2.3,136.1Z" class="g0_315"/>
<path d="M468.6,534.5l-.5,-.1h.2l-.5,-1l-.7,.3L312.7,511.1l.1,-.5l154.7,22.7l2.3,-136.1L312.2,382h.1l-.1,-.6v-.5l158.7,15.3l-2.3,138.3Z" class="g0_315"/>
<path d="M208.6,548.1L206.1,407.2L312.2,382l.5,129.1l-.2,-.5L208.6,548.1Z" class="g1_315"/>
<path d="M312.2,381.4v0Z" class="g1_315"/>
<path d="M312.2,381.4v0Z" class="g2_315"/>
<path d="M207.6,549.6v-.3l.6,.1l-.6,.2Zm0,-1.1L205,406.3L312.1,380.9l.1,.5l-.1,.6h.1L206.1,407.2l2.5,140.9l-1,.4Z" class="g1_315"/>
<path d="M312.2,382v0Z" class="g2_315"/>
<path d="M312.2,382v0h-.1l.1,-.6l.1,.6h-.1Z" class="g2_315"/>
<path d="M373,576L210.2,548.7l102.5,-37l153.4,22.4L373,576Z" class="g3_315"/>
<path d="M466.1,534.1L312.7,511.7l.2,-.1l-.2,-.5l154.4,22.6l-1,.4Z" class="g1_315"/>
<path d="M373.1,577.1L208.2,549.4L312.7,511.7l-102.5,37L373,576l93.1,-41.9l2,.3l-95,42.7ZM207.6,549.3l-1.6,-.2l1.6,-.6v.8Z" class="g3_315"/>
<path d="M468.1,534.4l-2,-.3l1.7,-.7l.5,1h-.2Z" class="g1_315"/>
<path d="M208.2,549.4l-.6,-.1v-.8L312.5,510.6l.2,.5l-.1,.6h.1L208.2,549.4Z" class="g2_315"/>
<path d="M312.7,511.7h-.1l.1,-.6l.2,.5l-.2,.1Z" class="g4_315"/>
<path d="M468.2,533.3l-95.7,43l.3,.8l95.8,-43l-.4,-.8Z" class="g5_315"/>
<path d="M455.1,580.5l-2.2,2.9l2.3,3H454l-1.7,-2.3l-1.7,2.3h-1.1l2.3,-3.1l-2.1,-2.8h1.1l1.6,2.1l1.5,-2.1h1.2Z" class="g5_315"/>
<path d="M466.4,534.2L311.2,511.5l-.5,-129.6h-.9l.5,129.9c0,.2,.2,.4,.4,.4l155.6,22.9l.1,-.9Z" class="g6_315"/>
<path d="M430.5,550.3L271.6,525.8L270.3,391.5h-.8l1.2,134.6c0,.2,.2,.4,.4,.4l159.3,24.7l.1,-.9Z" class="g6_315"/>
<path d="M391.7,567.8L228.9,541.2L226.8,401.8h-.9L228,541.6c0,.2,.2,.3,.4,.4l163.1,26.6l.2,-.8Z" class="g6_315"/>
<path d="M464.5,534.8l4.8,.7l.1,-.8l-4.8,-.7l-.1,.8Z" class="g5_315"/>
<path d="M474.2,547.6c.9,0,1.6,.3,2,1c.5,.7,.7,1.7,.7,3c0,1.3,-.2,2.3,-.7,3c-.4,.7,-1.1,1,-2,1c-.9,0,-1.5,-.3,-2,-1c-.4,-.7,-.7,-1.7,-.7,-3c0,-1.3,.3,-2.3,.7,-3c.5,-.7,1.1,-1,2,-1Zm0,.8c-.5,0,-.9,.3,-1.2,.8c-.3,.5,-.4,1.3,-.4,2.4c0,1.1,.1,1.9,.4,2.4c.3,.5,.7,.8,1.2,.8c.6,0,1,-.3,1.2,-.8c.3,-.5,.5,-1.3,.5,-2.4c0,-1.1,-.2,-1.9,-.5,-2.4c-.2,-.5,-.6,-.8,-1.2,-.8Z" class="g5_315"/>
<path d="M478.8,555.5h1.1v-1.3h-1.1Z" class="g5_315"/>
<path d="M484.4,547.6c.9,0,1.5,.3,2,1c.5,.7,.7,1.7,.7,3c0,1.3,-.2,2.3,-.7,3c-.5,.7,-1.1,1,-2,1c-.9,0,-1.5,-.3,-2,-1c-.5,-.7,-.7,-1.7,-.7,-3c0,-1.3,.2,-2.3,.7,-3c.5,-.7,1.1,-1,2,-1Zm0,.8c-.5,0,-1,.3,-1.2,.8c-.3,.5,-.4,1.3,-.4,2.4c0,1.1,.1,1.9,.4,2.4c.2,.5,.7,.8,1.2,.8c.5,0,1,-.3,1.2,-.8c.3,-.5,.4,-1.3,.4,-2.4c0,-1.1,-.1,-1.9,-.4,-2.4c-.2,-.5,-.7,-.8,-1.2,-.8Z" class="g5_315"/>
<path d="M428.6,550.9l4.9,.8l.2,-.9l-5,-.7l-.1,.8Z" class="g5_315"/>
<path d="M438.8,564.2c.8,0,1.5,.4,2,1.1c.4,.7,.6,1.7,.6,3c0,1.3,-.2,2.3,-.6,3c-.5,.7,-1.2,1,-2,1c-.9,0,-1.6,-.3,-2,-1c-.5,-.7,-.7,-1.7,-.7,-3c0,-1.3,.2,-2.3,.7,-3c.4,-.7,1.1,-1.1,2,-1.1Zm0,.9c-.6,0,-1,.2,-1.3,.8c-.2,.5,-.4,1.3,-.4,2.4c0,1,.2,1.8,.4,2.4c.3,.5,.7,.8,1.3,.8c.5,0,.9,-.3,1.2,-.8c.3,-.6,.4,-1.4,.4,-2.4c0,-1.1,-.1,-1.9,-.4,-2.4c-.3,-.6,-.7,-.8,-1.2,-.8Z" class="g5_315"/>
<path d="M443.3,572.2h1.1v-1.4h-1.1Z" class="g5_315"/>
<path d="M446.7,564.4h4.1v.9h-3.1v1.9c.1,-.1,.3,-.1,.4,-.1c.2,-.1,.3,-.1,.5,-.1c.8,0,1.5,.3,2,.7c.5,.5,.8,1.2,.8,2c0,.8,-.3,1.5,-.8,1.9c-.5,.5,-1.2,.7,-2.2,.7c-.3,0,-.6,0,-1,-.1c-.3,0,-.7,-.1,-1,-.2v-1.1c.3,.2,.6,.3,.9,.4c.4,.1,.7,.1,1.1,.1c.6,0,1.1,-.1,1.4,-.4c.4,-.4,.5,-.8,.5,-1.3c0,-.6,-.1,-1,-.5,-1.3c-.3,-.3,-.8,-.5,-1.4,-.5c-.3,0,-.6,0,-.8,.1c-.3,.1,-.6,.2,-.9,.3v-3.9Z" class="g5_315"/>
<path d="M389.7,568.4l5,.8l.2,-.9l-5,-.8l-.2,.9Z" class="g5_315"/>
<path d="M398.3,589.4H400v-6l-1.9,.4v-1l1.9,-.3h1v6.9h1.7v.8h-4.4v-.8Z" class="g5_315"/>
<path d="M404.9,590.2H406v-1.3h-1.1Z" class="g5_315"/>
<path d="M410.5,582.3c.9,0,1.5,.4,2,1.1c.5,.6,.7,1.6,.7,3c0,1.3,-.2,2.3,-.7,3c-.5,.6,-1.1,1,-2,1c-.9,0,-1.5,-.4,-2,-1c-.5,-.7,-.7,-1.7,-.7,-3c0,-1.4,.2,-2.4,.7,-3c.5,-.7,1.1,-1.1,2,-1.1Zm0,.9c-.5,0,-.9,.2,-1.2,.8c-.3,.5,-.4,1.3,-.4,2.4c0,1,.1,1.8,.4,2.4c.3,.5,.7,.8,1.2,.8c.5,0,1,-.3,1.2,-.8c.3,-.6,.4,-1.4,.4,-2.4c0,-1.1,-.1,-1.9,-.4,-2.4c-.2,-.6,-.7,-.8,-1.2,-.8Z" class="g5_315"/>
<path d="M207.6,549.2l165.8,27.9l.1,-.9L207.8,548.4l-.2,.8Z" class="g5_315"/>
<path d="M269,598.8c-.3,.7,-.6,1.1,-.8,1.3c-.3,.3,-.6,.4,-1,.4h-.8v-.8h.5c.3,0,.5,-.1,.7,-.2c.1,-.1,.3,-.4,.4,-.9l.2,-.4l-2.3,-5.8h1l1.8,4.6l1.8,-4.6h1l-2.5,6.4Z" class="g5_315"/>
<path d="M314.8,381.7l.4,129.6L211.1,549l.3,.8L315.8,512c.1,-.1,.2,-.3,.2,-.4l-.4,-129.9h-.8Z" class="g6_315"/>
<path d="M375.9,387.6l-.6,132.5L274.7,559.7l.3,.8L375.9,520.8c.2,-.1,.3,-.3,.3,-.4l.6,-132.8h-.9Z" class="g6_315"/>
<path d="M440.1,393.8l-1.8,135.5l-96.7,41.6l.3,.8l97,-41.7c.1,-.1,.2,-.2,.2,-.4l1.8,-135.8h-.8Z" class="g6_315"/>
<path d="M212.4,548.5l-3.6,1.3l.3,.8l3.6,-1.3l-.3,-.8Z" class="g5_315"/>
<path d="M197.1,564.1c.9,0,1.5,.4,2,1.1c.5,.7,.7,1.7,.7,3c0,1.3,-.2,2.3,-.7,3c-.5,.7,-1.1,1,-2,1c-.9,0,-1.5,-.3,-2,-1c-.4,-.7,-.7,-1.7,-.7,-3c0,-1.3,.3,-2.3,.7,-3c.5,-.7,1.1,-1.1,2,-1.1Zm0,.9c-.5,0,-.9,.2,-1.2,.8c-.3,.5,-.4,1.3,-.4,2.4c0,1,.1,1.8,.4,2.4c.3,.5,.7,.8,1.2,.8c.6,0,1,-.3,1.2,-.8c.3,-.6,.4,-1.4,.4,-2.4c0,-1.1,-.1,-1.9,-.4,-2.4c-.2,-.6,-.6,-.8,-1.2,-.8Z" class="g5_315"/>
<path d="M201.6,572.1h1.1v-1.4h-1.1Z" class="g5_315"/>
<path d="M207.3,564.1c.9,0,1.5,.4,2,1.1c.4,.7,.7,1.7,.7,3c0,1.3,-.3,2.3,-.7,3c-.5,.7,-1.1,1,-2,1c-.9,0,-1.5,-.3,-2,-1c-.5,-.7,-.7,-1.7,-.7,-3c0,-1.3,.2,-2.3,.7,-3c.5,-.7,1.1,-1.1,2,-1.1Zm0,.9c-.6,0,-1,.2,-1.2,.8c-.3,.5,-.4,1.3,-.4,2.4c0,1,.1,1.8,.4,2.4c.2,.5,.6,.8,1.2,.8c.5,0,.9,-.3,1.2,-.8c.3,-.6,.4,-1.4,.4,-2.4c0,-1.1,-.1,-1.9,-.4,-2.4c-.3,-.6,-.7,-.8,-1.2,-.8Z" class="g5_315"/>
<path d="M275.9,559.2l-3.4,1.3l.3,.8l3.5,-1.3l-.4,-.8Z" class="g5_315"/>
<path d="M260.9,575.3c.9,0,1.5,.3,2,1c.5,.7,.7,1.7,.7,3c0,1.3,-.2,2.3,-.7,3c-.5,.7,-1.1,1,-2,1c-.9,0,-1.5,-.3,-2,-1c-.5,-.7,-.7,-1.7,-.7,-3c0,-1.3,.2,-2.3,.7,-3c.5,-.7,1.1,-1,2,-1Zm0,.8c-.5,0,-.9,.3,-1.2,.8c-.3,.5,-.4,1.3,-.4,2.4c0,1.1,.1,1.9,.4,2.4c.3,.5,.7,.8,1.2,.8c.6,0,1,-.3,1.2,-.8c.3,-.5,.4,-1.3,.4,-2.4c0,-1.1,-.1,-1.9,-.4,-2.4c-.2,-.5,-.6,-.8,-1.2,-.8Z" class="g5_315"/>
<path d="M265.4,583.2h1.1v-1.4h-1.1Z" class="g5_315"/>
<path d="M268.8,575.4H273v.9h-3.2v1.9c.2,-.1,.3,-.1,.5,-.1c.1,-.1,.3,-.1,.4,-.1c.9,0,1.6,.3,2.1,.7c.5,.5,.7,1.2,.7,2c0,.8,-.2,1.5,-.7,1.9c-.6,.5,-1.3,.7,-2.2,.7c-.4,0,-.7,0,-1,-.1c-.4,0,-.7,-.1,-1.1,-.2v-1.1c.3,.2,.7,.3,1,.4c.3,.1,.7,.1,1,.1c.6,0,1.1,-.1,1.5,-.4c.3,-.4,.5,-.8,.5,-1.3c0,-.6,-.2,-1,-.5,-1.3c-.4,-.3,-.9,-.5,-1.5,-.5c-.2,0,-.5,0,-.8,.1c-.3,.1,-.6,.2,-.9,.3v-3.9Z" class="g5_315"/>
<path d="M342.8,570.4l-3.3,1.4l.3,.8l3.4,-1.4l-.4,-.8Z" class="g5_315"/>
<path d="M326,594h1.7v-5.9l-1.8,.3v-.9l1.8,-.4h1.1V594h1.7v.9H326V594Z" class="g5_315"/>
<path d="M332.6,594.9h1.1v-1.4h-1.1Z" class="g5_315"/>
<path d="M338.3,587c.8,0,1.5,.3,1.9,1c.5,.7,.7,1.7,.7,3c0,1.3,-.2,2.3,-.7,3c-.4,.7,-1.1,1,-1.9,1c-.9,0,-1.6,-.3,-2,-1c-.5,-.7,-.7,-1.7,-.7,-3c0,-1.3,.2,-2.3,.7,-3c.4,-.7,1.1,-1,2,-1Zm0,.8c-.6,0,-1,.3,-1.3,.8c-.2,.5,-.4,1.3,-.4,2.4c0,1.1,.2,1.9,.4,2.4c.3,.5,.7,.8,1.3,.8c.5,0,.9,-.3,1.2,-.8c.3,-.5,.4,-1.3,.4,-2.4c0,-1.1,-.1,-1.9,-.4,-2.4c-.3,-.5,-.7,-.8,-1.2,-.8Z" class="g5_315"/>
<path d="M208.5,549.3L206,406.3h-.8l2.5,143h.8Z" class="g5_315"/>
<path d="M157.2,477.9h4.6v.9l-3.6,4.2h3.6v.7h-4.7v-.9l3.6,-4.2h-3.5v-.7Z" class="g5_315"/>
<path d="M208.2,546.5L312.7,509L468,531.6l.1,-.8L312.7,508.2h-.2L207.9,545.7l.3,.8Z" class="g6_315"/>
<path d="M207.2,490.3L312.5,457.6L469,477.3l.1,-.9L312.5,456.8h-.2L206.9,489.4l.3,.9Z" class="g6_315"/>
<path d="M206.2,433.2L312.3,405.6l157.6,16.6l.1,-.9L312.3,404.7h-.1L205.9,432.3l.3,.9Z" class="g6_315"/>
<path d="M209.2,545.2l-3.5,1.3l.3,.8l3.5,-1.3l-.3,-.8Z" class="g5_315"/>
<path d="M181.4,547.5c.9,0,1.6,.4,2,1.1c.5,.7,.7,1.7,.7,3c0,1.3,-.2,2.3,-.7,3c-.4,.7,-1.1,1,-2,1c-.8,0,-1.5,-.3,-2,-1c-.4,-.7,-.7,-1.7,-.7,-3c0,-1.3,.3,-2.3,.7,-3c.5,-.7,1.2,-1.1,2,-1.1Zm0,.9c-.5,0,-.9,.2,-1.2,.8c-.3,.5,-.4,1.3,-.4,2.4c0,1,.1,1.8,.4,2.4c.3,.5,.7,.8,1.2,.8c.6,0,1,-.3,1.3,-.8c.2,-.6,.4,-1.4,.4,-2.4c0,-1.1,-.2,-1.9,-.4,-2.4c-.3,-.6,-.7,-.8,-1.3,-.8Z" class="g5_315"/>
<path d="M186,555.4h1.1v-1.3H186Z" class="g5_315"/>
<path d="M191.6,547.5c.9,0,1.5,.4,2,1.1c.5,.7,.7,1.7,.7,3c0,1.3,-.2,2.3,-.7,3c-.5,.7,-1.1,1,-2,1c-.9,0,-1.5,-.3,-2,-1c-.5,-.7,-.7,-1.7,-.7,-3c0,-1.3,.2,-2.3,.7,-3c.5,-.7,1.1,-1.1,2,-1.1Zm0,.9c-.5,0,-.9,.2,-1.2,.8c-.3,.5,-.4,1.3,-.4,2.4c0,1,.1,1.8,.4,2.4c.3,.5,.7,.8,1.2,.8c.5,0,1,-.3,1.2,-.8c.3,-.6,.4,-1.4,.4,-2.4c0,-1.1,-.1,-1.9,-.4,-2.4c-.2,-.6,-.7,-.8,-1.2,-.8Z" class="g5_315"/>
<path d="M208.3,489l-3.6,1.1l.2,.9l3.6,-1.2l-.2,-.8Z" class="g5_315"/>
<path d="M180.3,491.1c.8,0,1.5,.4,2,1c.4,.7,.6,1.7,.6,3.1c0,1.3,-.2,2.3,-.6,3c-.5,.6,-1.2,1,-2,1c-.9,0,-1.6,-.4,-2,-1c-.5,-.7,-.7,-1.7,-.7,-3c0,-1.4,.2,-2.4,.7,-3.1c.4,-.6,1.1,-1,2,-1Zm0,.8c-.6,0,-1,.3,-1.3,.8c-.2,.6,-.4,1.4,-.4,2.5c0,1,.2,1.8,.4,2.4c.3,.5,.7,.8,1.3,.8c.5,0,.9,-.3,1.2,-.8c.3,-.6,.4,-1.4,.4,-2.4c0,-1.1,-.1,-1.9,-.4,-2.5c-.3,-.5,-.7,-.8,-1.2,-.8Z" class="g5_315"/>
<path d="M184.8,499h1.1v-1.3h-1.1Z" class="g5_315"/>
<path d="M188.2,491.3h4.1v.8h-3.1V494c.1,0,.3,0,.4,-.1c.2,0,.3,0,.5,0c.8,0,1.5,.2,2,.7c.5,.5,.8,1.1,.8,1.9c0,.9,-.3,1.5,-.8,2c-.5,.5,-1.2,.7,-2.2,.7c-.3,0,-.6,0,-1,-.1c-.3,-.1,-.7,-.1,-1,-.2v-1.1c.3,.2,.6,.3,.9,.4c.4,.1,.7,.1,1.1,.1c.6,0,1.1,-.2,1.4,-.5c.4,-.3,.5,-.7,.5,-1.3c0,-.5,-.1,-.9,-.5,-1.2c-.3,-.4,-.8,-.5,-1.4,-.5c-.3,0,-.6,0,-.8,.1c-.3,0,-.6,.1,-.9,.3v-3.9Z" class="g5_315"/>
<path d="M207.3,432l-3.6,.9l.2,.8l3.6,-.9l-.2,-.8Z" class="g5_315"/>
<path d="M177,440.9h1.7v-6l-1.8,.4v-.9l1.8,-.4h1.1v6.9h1.7v.9H177v-.9Z" class="g5_315"/>
<path d="M183.6,441.8h1.1v-1.4h-1.1Z" class="g5_315"/>
<path d="M189.3,433.8c.8,0,1.5,.4,2,1.1c.4,.7,.6,1.7,.6,3c0,1.3,-.2,2.3,-.6,3c-.5,.7,-1.2,1,-2,1c-.9,0,-1.6,-.3,-2,-1c-.5,-.7,-.7,-1.7,-.7,-3c0,-1.3,.2,-2.3,.7,-3c.4,-.7,1.1,-1.1,2,-1.1Zm0,.9c-.6,0,-1,.2,-1.3,.8c-.2,.5,-.4,1.3,-.4,2.4c0,1,.2,1.8,.4,2.4c.3,.5,.7,.8,1.3,.8c.5,0,.9,-.3,1.2,-.8c.3,-.6,.4,-1.4,.4,-2.4c0,-1.1,-.1,-1.9,-.4,-2.4c-.3,-.6,-.7,-.8,-1.2,-.8Z" class="g5_315"/>
<path d="M312.5,405.9v.8h1.6v-.8h-1.6Zm0,1.6v2.4h1.6v-2.4h-1.6Zm0,3.2l.1,2.4h1.6l-.1,-2.4h-1.6Zm.1,3.2v2.4h1.6v-2.4h-1.6Zm0,3.2v2.4h1.6v-2.4h-1.6Zm0,3.2v2.4h1.6v-2.4h-1.6Zm0,3.2v2.4h1.6v-2.4h-1.6Zm0,3.2v2.4h1.6v-2.4h-1.6Zm0,3.2v2.4h1.6v-2.4h-1.6Zm0,3.2v2.4h1.6v-2.4h-1.6Zm0,3.2v2.4h1.6v-2.4h-1.6Zm0,3.2l.1,2.4h1.6l-.1,-2.4h-1.6Zm.1,3.2v2.4h1.6v-2.4h-1.6Zm0,3.2v2.4h1.6v-2.4h-1.6Zm0,3.2v2.4h1.6v-2.4h-1.6Zm0,3.2v2.4h1.6v-2.4h-1.6Zm0,3.2V458l1.6,-.1v-2.4h-1.6Zm0,3.3v2.4l1.6,-.1v-2.4l-1.6,.1Zm0,3.2v2.4l1.6,-.1v-2.4l-1.6,.1Zm0,3.2v2.4l1.6,-.1v-2.4l-1.6,.1Zm0,3.2l.1,2.4l1.6,-.1v-2.4l-1.7,.1Zm.1,3.2V474l1.6,-.1v-2.4l-1.6,.1Zm0,3.2v2.4l1.6,-.1v-2.4l-1.6,.1Zm0,3.2v2.4h1.6v-2.5l-1.6,.1Zm0,3.2v2.4h1.6v-2.5l-1.6,.1Zm0,3.2v2.4h1.6v-2.5l-1.6,.1Zm0,3.2V490h1.6v-2.4h-1.6Zm0,3.2v2.4h1.6v-2.4h-1.6Zm0,3.2l.1,2.4h1.6l-.1,-2.4h-1.6Zm.1,3.2v2.4h1.6v-2.4h-1.6Zm0,3.2v2.4h1.6v-2.4h-1.6Zm0,3.2V506h1.6v-2.4h-1.6Zm0,3.2v2.4h1.6v-2.4h-1.6Z" class="g7_315"/>
<path d="M312.5,406.1l.2,.8l1.6,-.3l-.2,-.8l-1.6,.3Zm.4,1.6l.5,2.3l1.5,-.3l-.5,-2.4l-1.5,.4Zm.6,3.1l.5,2.3l1.6,-.3l-.5,-2.3l-1.6,.3Zm.7,3.1l.5,2.4l1.6,-.4l-.5,-2.3l-1.6,.3Zm.7,3.2l.5,2.3l1.5,-.3l-.5,-2.4l-1.5,.4Z" class="g7_315"/>
<path d="M312.5,405.8l-.1,.8l1.6,.3l.1,-.8l-1.6,-.3Zm-.2,1.6l-.5,2.3l1.6,.3l.4,-2.3l-1.5,-.3Zm-.6,3.1l-.5,2.4l1.6,.3l.4,-2.4l-1.5,-.3Zm-.6,3.2l-.4,2.3l1.5,.3l.5,-2.3l-1.6,-.3Zm-.6,3.1l-.4,2.4l1.6,.3l.4,-2.4l-1.6,-.3Zm-.6,3.2l-.1,.8l1.6,.2l.1,-.8l-1.6,-.2Z" class="g7_315"/>
<path d="M437.1,526.9l-123.3,-18l-.2,1.6l123.3,18l.2,-1.6Z" class="g8_315"/>
<path d="M436.9,526.9l-17.4,1.3l.2,1.6L437,528.5l-.1,-1.6Z" class="g8_315"/>
<path d="M437.3,526.9l-17.4,-6.4l-.5,1.5l17.3,6.4l.6,-1.5Z" class="g8_315"/>
<path d="M231.7,540.1L314,510.4l-.6,-1.5l-82.2,29.7l.5,1.5Z" class="g8_315"/>
<path d="M231.5,540.1l11.9,-.3v-1.6l-11.9,.3v1.6Z" class="g8_315"/>
<path d="M231.9,540l11.8,-8.3l-.9,-1.3L231,538.6l.9,1.4Z" class="g8_315"/>
<path d="M362.5,560.4l1.5,-.6l-.7,-1.5l-1.5,.6l.7,1.5Zm2.9,-1.3l1.5,-.6l-.6,-1.5l-1.5,.7l.6,1.4Zm3,-1.2l1.4,-.7l-.6,-1.4l-1.5,.6l.7,1.5Zm2.9,-1.3l1.5,-.6l-.7,-1.5l-1.4,.6l.6,1.5Zm3,-1.2l1.4,-.7l-.6,-1.4l-1.5,.6l.7,1.5Zm2.9,-1.3l1.5,-.6L378,552l-1.4,.6l.6,1.5Zm2.9,-1.3l1.5,-.6l-.6,-1.5l-1.5,.7l.6,1.4Zm3,-1.2l1.5,-.6l-.7,-1.5l-1.4,.6l.6,1.5Zm2.9,-1.3l1.5,-.6l-.6,-1.5l-1.5,.7l.6,1.4Zm3,-1.2l1.4,-.7l-.6,-1.4l-1.5,.6l.7,1.5Zm2.9,-1.3l1.5,-.6l-.6,-1.5l-1.5,.6l.6,1.5Zm3,-1.2l1.4,-.7l-.6,-1.4l-1.5,.6l.7,1.5Zm2.9,-1.3l1.5,-.6l-.7,-1.5l-1.4,.6l.6,1.5Zm2.9,-1.3l1.5,-.6l-.6,-1.5l-1.5,.7l.6,1.4Zm3,-1.2l1.5,-.6l-.7,-1.5l-1.4,.6l.6,1.5Zm2.9,-1.3l1.5,-.6l-.6,-1.5L406,540l.6,1.5Zm3,-1.2l1.4,-.7l-.6,-1.4l-1.5,.6l.7,1.5Zm2.9,-1.3l1.5,-.6l-.6,-1.5l-1.5,.6l.6,1.5Zm3,-1.3l1.4,-.6l-.6,-1.5l-1.5,.7l.7,1.4Zm2.9,-1.2l1.5,-.6l-.7,-1.5l-1.4,.6l.6,1.5Zm2.9,-1.3l1.5,-.6l-.6,-1.5l-1.5,.7l.6,1.4Zm3,-1.2l1.5,-.7l-.7,-1.4l-1.4,.6l.6,1.5Zm2.9,-1.3l1.5,-.6l-.6,-1.5l-1.5,.6l.6,1.5Zm3,-1.2l1.4,-.7l-.6,-1.4l-1.5,.6l.7,1.5Zm2.9,-1.3l1.5,-.6l-.6,-1.5l-1.5,.6l.6,1.5Zm3,-1.3l1.2,-.5l-.6,-1.5l-1.3,.6l.7,1.4Z" class="g8_315"/>
<path d="M362.3,561l1.6,-.1l-.1,-1.6l-1.6,.1l.1,1.6Zm3.2,-.2l1.6,-.1l-.1,-1.6l-1.6,.1l.1,1.6Zm3.2,-.1l1.6,-.1l-.1,-1.6l-1.6,.1l.1,1.6Z" class="g8_315"/>
<path d="M362.4,559.9l1.3,-1l-1,-1.2l-1.3,1l1,1.2Zm2.5,-2l1.3,-1l-1,-1.2l-1.3,1l1,1.2Zm2.5,-2l1.3,-1l-1,-1.2l-1.3,1l1,1.2Zm2.5,-2l1.3,-1l-1,-1.2l-1.3,1l1,1.2Z" class="g8_315"/>
<path d="M359.2,559.2l-1.5,-.2l-.3,1.6l1.6,.2l.2,-1.6Zm-3.1,-.5l-1.6,-.2l-.3,1.6l1.6,.2l.3,-1.6Zm-3.2,-.5l-1.6,-.2l-.2,1.5l1.6,.3l.2,-1.6Zm-3.1,-.5l-1.6,-.3l-.3,1.6l1.6,.3l.3,-1.6Zm-3.2,-.5l-1.6,-.3l-.2,1.6l1.5,.3l.3,-1.6Zm-3.2,-.5l-1.5,-.3l-.3,1.6l1.6,.3l.2,-1.6Zm-3.1,-.5l-1.6,-.3l-.2,1.6l1.5,.2l.3,-1.5Zm-3.2,-.6l-1.6,-.2l-.2,1.6l1.6,.2l.2,-1.6Zm-3.1,-.5l-1.6,-.2l-.3,1.6l1.6,.2l.3,-1.6Zm-3.2,-.5l-1.6,-.2l-.2,1.5l1.6,.3l.2,-1.6Zm-3.2,-.5l-1.5,-.2l-.3,1.5l1.6,.3l.2,-1.6Zm-3.1,-.5l-1.6,-.3l-.2,1.6l1.5,.3l.3,-1.6Zm-3.2,-.5l-1.5,-.3l-.3,1.6l1.6,.3l.2,-1.6Zm-3.1,-.5l-1.6,-.3l-.3,1.6l1.6,.3l.3,-1.6Zm-3.2,-.5l-1.6,-.3l-.2,1.6l1.6,.2l.2,-1.5Zm-3.1,-.6l-1.6,-.2l-.3,1.6l1.6,.2l.3,-1.6Zm-3.2,-.5l-1.6,-.2l-.2,1.6l1.5,.2l.3,-1.6Zm-3.2,-.5l-1.5,-.2l-.3,1.5l1.6,.3l.2,-1.6Zm-3.1,-.5l-1.6,-.2l-.3,1.5l1.6,.3l.3,-1.6Zm-3.2,-.5l-1.6,-.3l-.2,1.6l1.6,.3l.2,-1.6Zm-3.1,-.5l-1.6,-.3l-.3,1.6l1.6,.3l.3,-1.6Zm-3.2,-.5l-1.6,-.3l-.2,1.6l1.5,.2l.3,-1.5Zm-3.2,-.5l-1.5,-.3l-.3,1.6l1.6,.2l.2,-1.5Zm-3.1,-.6l-1.6,-.2l-.3,1.6l1.6,.2l.3,-1.6Zm-3.2,-.5l-1.6,-.2l-.2,1.6l1.6,.2l.2,-1.6Zm-3.1,-.5l-1.6,-.2l-.3,1.5l1.6,.3l.3,-1.6Zm-3.2,-.5l-1.6,-.3l-.2,1.6l1.5,.3l.3,-1.6Zm-3.2,-.5l-1.5,-.3l-.3,1.6l1.6,.3l.2,-1.6Zm-3.1,-.5l-1.6,-.3l-.3,1.6l1.6,.3l.3,-1.6Zm-3.2,-.5l-1.6,-.3l-.2,1.6l1.6,.2l.2,-1.5Zm-3.1,-.5l-1.6,-.3l-.3,1.6l1.6,.2l.3,-1.5Zm-3.2,-.6l-1.6,-.2l-.2,1.6l1.5,.2l.3,-1.6Zm-3.2,-.5l-1.5,-.2l-.3,1.5l1.6,.3l.2,-1.6Zm-3.1,-.5l-1.6,-.2l-.3,1.5l1.6,.3l.3,-1.6Zm-3.2,-.5l-1.6,-.3l-.2,1.6l1.6,.3l.2,-1.6Zm-3.1,-.5l-1.6,-.3l-.3,1.6l1.6,.3l.3,-1.6Zm-3.2,-.5l-1.6,-.3l-.2,1.6l1.6,.3l.2,-1.6Zm-3.2,-.5l-1.5,-.3l-.3,1.6l1.6,.2l.2,-1.5Zm-3.1,-.6l-1.6,-.2l-.2,1.6l1.5,.2l.3,-1.6Zm-3.2,-.5l-1.6,-.2l-.2,1.6l1.6,.2l.2,-1.6Zm-3.1,-.5l-1.3,-.2l-.3,1.6l1.3,.2l.3,-1.6Z" class="g8_315"/>
<path d="M359,559.6l-1.6,.1l.2,1.6l1.5,-.1l-.1,-1.6Zm-3.1,.2l-1.6,.1l.1,1.6l1.6,-.1l-.1,-1.6Zm-3.2,.2l-1.6,.1l.1,1.6l1.6,-.1l-.1,-1.6Zm-3.2,.2l-1.6,.1l.1,1.6l1.6,-.1l-.1,-1.6Zm-3.2,.2l-1.6,.1l.1,1.6l1.6,-.1l-.1,-1.6Zm-3.2,.2l-.7,.1l.1,1.6l.7,-.1l-.1,-1.6Z" class="g8_315"/>
<path d="M359.5,559l-1.5,-.6l-.6,1.5l1.5,.6l.6,-1.5Zm-3,-1.2l-1.5,-.6l-.6,1.5l1.5,.6l.6,-1.5Zm-3,-1.2l-1.5,-.5l-.5,1.4l1.4,.6l.6,-1.5Zm-3,-1.1l-1.4,-.6l-.6,1.5l1.5,.6l.5,-1.5Zm-2.9,-1.2l-1.5,-.6l-.6,1.5l1.5,.6l.6,-1.5Zm-3,-1.2l-1.5,-.5l-.6,1.5l1.5,.5l.6,-1.5Z" class="g8_315"/>
<path d="M382.4,702c1.1,0,1.7,-.6,2.1,-1.3c0,.8,.3,1.3,1.1,1.3c.6,0,1,-.3,1.3,-.7l-.1,-.1c-.1,.2,-.4,.4,-.7,.4c-.4,0,-.5,-.4,-.5,-1.3v-3c0,-1.5,-.7,-1.9,-2.2,-1.9c-1.3,0,-2.5,.7,-2.5,1.2c0,.4,.1,.6,.5,.6c.5,0,.7,-.2,.8,-.6c.1,-.2,.1,-.4,.2,-.6c.2,-.1,.5,-.3,.8,-.3c1.3,0,1.2,.6,1.2,1.6v.5l-1.7,.8c-.6,.2,-1.1,.5,-1.5,.9c-.3,.3,-.4,.6,-.4,1.1c0,.9,.6,1.4,1.6,1.4Zm-.4,-1.6c0,-.5,.2,-.9,.5,-1.2c.5,-.4,1.1,-.7,1.9,-1.1v1.6c0,.6,-.2,1,-.4,1.3c-.2,.3,-.7,.6,-1.2,.6c-.5,0,-.8,-.7,-.8,-1.2Z" class="g9_315"/>
<path d="M392.6,696.1c0,-.5,-.4,-.7,-.8,-.7c-.2,0,-.5,0,-.7,.1c-.6,.3,-1.1,.8,-1.4,1.5h-.1l-.2,-1.5l-2.1,.4v.3c.3,0,.6,.1,.7,.2c.2,.2,.3,.5,.4,1c0,.3,0,.7,0,1.2v1.7c0,.3,0,.5,0,.7c-.1,.6,-.4,.6,-1,.7v.2h3.1v-.2c-.2,0,-.3,0,-.5,-.1c-.4,-.2,-.4,-.7,-.4,-1.4v-1c0,-1.1,.1,-2,.6,-2.6c.2,-.3,.5,-.5,.7,-.5c.6,0,.5,.6,1,.6c.4,0,.7,-.2,.7,-.6Z" class="g9_315"/>
<path d="M397.5,697.2c0,.1,0,.2,0,.2c0,.2,-.4,.2,-.7,.2h-2.2c.2,-1.1,.6,-2,1.7,-1.9c1,0,1.2,.8,1.2,1.5Zm-.9,4.5c-1.5,0,-2.1,-1.6,-2.1,-3.1c0,-.2,0,-.6,.1,-.7h3.9c.2,0,.3,-.1,.3,-.3c0,-1.5,-.8,-2.2,-2.4,-2.2c-.5,0,-.9,.1,-1.3,.2c-1.2,.6,-2,1.6,-2,3.2c0,1.9,1.2,3.2,3.2,3.2c1.3,0,1.7,-.5,2.5,-1.2l-.1,-.2c-.6,.5,-1.2,1.1,-2.1,1.1Z" class="g9_315"/>
<path d="M401.6,702c1.1,0,1.7,-.6,2.1,-1.3c0,.8,.3,1.3,1.1,1.3c.6,0,1,-.3,1.3,-.7l-.1,-.1c-.1,.2,-.4,.4,-.7,.4c-.4,0,-.5,-.4,-.5,-1.3v-3c0,-1.5,-.7,-1.9,-2.2,-1.9c-1.3,0,-2.5,.7,-2.5,1.2c0,.4,.1,.6,.5,.6c.4,0,.6,-.2,.8,-.6c0,-.2,.1,-.4,.2,-.6c.1,-.1,.5,-.3,.8,-.3c1.3,0,1.2,.6,1.2,1.6v.5l-1.7,.8c-.6,.2,-1.1,.5,-1.5,.9c-.3,.3,-.5,.6,-.5,1.1c0,.9,.7,1.4,1.7,1.4Zm-.5,-1.6c0,-.5,.3,-.9,.6,-1.2c.5,-.4,1.1,-.7,1.9,-1.1v1.6c0,.6,-.2,1,-.4,1.3c-.2,.3,-.7,.6,-1.2,.6c-.5,0,-.9,-.7,-.9,-1.2Z" class="g9_315"/>
<path d="M410.7,700h7.6v-.8h-7.6Zm0,-3h7.6v-.9h-7.6Z" class="g9_315"/>
<path d="M424.9,704.7h.9V691.4h-.9Zm3,0h.8V691.4h-.8Z" class="g9_315"/>
<path d="M435.6,695.4c-.5,0,-1,.1,-1.5,.4c-.5,.3,-1,.7,-1.4,1.2c-.7,.8,-1.4,2,-1.4,3.3c0,1,.4,1.7,1.5,1.7c1.5,0,2.1,-.9,2.5,-1.6c-.2,.8,-.1,1.6,.7,1.6c1.2,0,2.1,-1,2.6,-1.9l-.2,-.2c-.3,.4,-1,1.3,-1.4,1.3c-.2,0,-.3,-.3,-.3,-.5c0,-.7,.6,-2.3,.9,-3.3l.7,-1.9H437l-.3,.7c-.1,-.4,-.4,-.8,-1.1,-.8Zm.1,.4c.9,0,.5,1.3,.4,1.8c-.1,.3,-.2,.6,-.3,1c-.5,1.1,-1.5,2.9,-2.4,2.9c-.6,0,-.7,-.9,-.7,-1.4c0,-.4,.2,-.8,.4,-1.3c.3,-.9,1.3,-3,2.6,-3Z" class="g9_315"/>
<path d="M441.4,704.7h.8V691.4h-.8Zm2.9,0h.9V691.4h-.9Z" class="g9_315"/>
<path d="M448.8,704.7h.9V691.4h-.9Zm3,0h.8V691.4h-.8Z" class="g9_315"/>
<path d="M458.9,695.9c1.7,0,.6,2.5,.4,3.1c-.4,.7,-1.1,2.6,-2.3,2.6c-.4,0,-.7,-.3,-.7,-1c0,-.7,.3,-1.7,.5,-2.2c.2,-.6,.7,-1.5,1,-1.9c.3,-.3,.6,-.6,1.1,-.6Zm-2.3,6.1c2.1,0,3.3,-1.5,3.9,-2.6c.3,-.6,.6,-1.4,.6,-2.3c-.1,-1,-.9,-1.7,-1.9,-1.7c-.9,0,-1.6,.6,-1.9,1.3l.1,-.4l1.6,-5.2l-2.8,.1l-.1,.3c.6,0,.8,.3,.9,.6c0,.2,-.1,.5,-.2,.7l-1.6,5.5c-.2,.5,-.4,1,-.4,1.4c-.1,.3,-.2,.6,-.1,.8c0,.9,.9,1.5,1.9,1.5Z" class="g9_315"/>
<path d="M464.1,704.7h.8V691.4h-.8Zm2.9,0h.9V691.4H467Z" class="g9_315"/>
<path d="M474.9,695.7c.8,0,1.2,.8,1.5,1.6h.1v-1.8h-.1l-.3,.3c-.2,-.1,-.4,-.3,-.6,-.3c-.3,-.1,-.5,-.1,-.7,-.1c-.6,0,-1,.2,-1.3,.5c-.3,.3,-.5,.7,-.5,1.4c0,.7,.4,1.1,.9,1.4c.5,.5,2.1,1.1,2.1,1.8c0,.7,-.3,1.2,-1,1.2c-.9,0,-1.5,-.8,-1.8,-1.9H473v2.1h.1l.3,-.5c.5,.4,1,.6,1.7,.6c.6,0,1.1,-.2,1.4,-.5c.4,-.3,.6,-.8,.6,-1.3c0,-1,-1.1,-1.7,-1.9,-2.1c-.5,-.4,-1.2,-.7,-1.2,-1.4c0,-.5,.2,-1,.9,-1Z" class="g9_315"/>
<path d="M479.7,693.7c.4,0,.8,-.4,.8,-.8c0,-.3,-.4,-.7,-.8,-.7c-.3,0,-.7,.4,-.7,.7c0,.4,.3,.8,.7,.8Zm.7,6.5v-4.8l-2.4,.5v.2c.4,0,.7,.1,.9,.3c.3,.3,.3,.6,.3,2.1v1.8c0,.3,0,.5,0,.7c-.1,.6,-.5,.6,-1.1,.7v.2h3.4v-.2c-.2,0,-.4,0,-.6,-.1c-.5,-.1,-.5,-.7,-.5,-1.4Z" class="g9_315"/>
<path d="M484.3,696.6h-.1l-.1,-1.2l-1.9,.5v.2c.2,0,.4,0,.6,.2c.3,.3,.4,.4,.4,2v2c0,.3,0,.5,0,.7c-.1,.6,-.4,.6,-1,.7v.2h3.1v-.2c-.2,0,-.4,0,-.5,-.1c-.5,-.1,-.5,-.7,-.5,-1.4v-2c0,-.6,0,-1,.2,-1.3c.4,-.6,1.1,-1.2,1.9,-1.2c1.3,0,1.2,1.5,1.2,2.8v1.8c0,.3,0,.5,0,.7c-.1,.6,-.4,.6,-1,.7v.2h3.1v-.2c-.2,0,-.4,0,-.5,-.1c-.5,-.1,-.4,-.7,-.4,-1.4V698c0,-.9,-.1,-1.5,-.4,-1.9c-.4,-.4,-1,-.7,-1.7,-.7c-1.1,0,-1.9,.6,-2.4,1.2Z" class="g9_315"/>
<path d="M498,697.5c-.5,1.7,-1,4.2,-2.5,4.2c-.8,0,-1.1,-.7,-1.1,-1.7c0,-.7,.1,-1.6,.4,-2.5H498Zm.6,-3.6c0,.8,-.2,1.9,-.5,3.1h-3.2c.5,-2.2,1.5,-4.5,2.9,-4.5c.6,0,.8,.5,.8,1.4Zm1,.8c0,-.3,0,-2.5,-1.8,-2.5c-2.6,0,-4.5,4.1,-4.5,6.9c0,.6,.1,2.9,2,2.9c2.9,0,4.3,-5,4.3,-7.3Z" class="g9_315"/>
<path d="M386.8,794.8c0,-.5,.1,-1,.2,-1.5c.3,-.9,1.1,-2.9,2.2,-2.9c.4,0,.4,.2,.4,.3c0,.2,-.1,.3,-.1,.4c0,.4,.2,.6,.5,.6c.4,0,.7,-.2,.7,-.6c0,-.7,-.6,-1,-1.3,-1c-1.5,0,-2.6,1.5,-3.1,2.5c-.4,.6,-.6,1.3,-.6,2.2c0,1.1,.6,1.9,1.7,1.9c1.3,0,2.1,-1,2.6,-2l-.3,-.2c-.4,1,-1.2,1.9,-2,1.9c-.6,0,-.9,-1,-.9,-1.6Z" class="g9_315"/>
<path d="M396.2,794.7h7.6v-.8h-7.6Zm0,-3h7.6v-.8h-7.6Z" class="g9_315"/>
<path d="M410.3,799.5h.9V786.1h-.9Zm3,0h.9V786.1h-.9Z" class="g9_315"/>
<path d="M421,790.1c-.5,0,-1,.1,-1.5,.5c-.5,.2,-1,.6,-1.4,1.1c-.7,.8,-1.4,2,-1.4,3.3c0,1,.4,1.7,1.5,1.7c1.5,0,2.1,-.9,2.5,-1.6h.1c-.3,.8,-.2,1.6,.6,1.6c1.3,0,2.1,-1,2.7,-1.9l-.3,-.2c-.3,.4,-1,1.4,-1.4,1.4c-.2,0,-.3,-.4,-.3,-.6c0,-.7,.6,-2.3,.9,-3.2l.7,-1.9h-1.3l-.2,.6c-.2,-.4,-.5,-.8,-1.2,-.8Zm.2,.4c.9,0,.5,1.3,.3,1.8c-.1,.3,-.2,.7,-.3,1c-.5,1.1,-1.5,3,-2.4,3c-.6,0,-.6,-1,-.6,-1.5c0,-.4,.1,-.8,.3,-1.2c.4,-1,1.3,-3.1,2.7,-3.1Z" class="g9_315"/>
<path d="M426.8,799.5h.8V786.1h-.8Zm3,0h.8V786.1h-.8Z" class="g9_315"/>
<path d="M434.3,799.5h.8V786.1h-.8Zm2.9,0h.9V786.1h-.9Z" class="g9_315"/>
<path d="M444.3,790.6c1.7,0,.7,2.5,.4,3.1c-.4,.8,-1.1,2.6,-2.2,2.6c-.5,0,-.7,-.3,-.8,-.9c0,-.7,.3,-1.8,.5,-2.3c.2,-.6,.7,-1.5,1.1,-1.9c.2,-.3,.5,-.6,1,-.6Zm-2.3,6.1c2.2,0,3.3,-1.4,3.9,-2.6c.4,-.6,.6,-1.3,.6,-2.2c-.1,-1.1,-.8,-1.8,-1.8,-1.8c-1,0,-1.7,.6,-2,1.3l.1,-.4l1.6,-5.2l-2.8,.1v.4c.6,0,.8,.2,.8,.5c0,.2,-.1,.5,-.1,.7l-1.7,5.5c-.2,.6,-.3,1,-.4,1.4c-.1,.4,-.1,.7,-.1,.9c0,.8,.9,1.4,1.9,1.4Z" class="g9_315"/>
<path d="M449.5,799.5h.8V786.1h-.8Zm3,0h.8V786.1h-.8Z" class="g9_315"/>
<path d="M460.3,790.4c.8,0,1.2,.8,1.5,1.6h.2v-1.8h-.2l-.3,.3c-.2,-.1,-.4,-.2,-.6,-.3c-.2,-.1,-.5,-.1,-.7,-.1c-.5,0,-1,.2,-1.3,.5c-.3,.3,-.5,.8,-.5,1.4c0,.7,.5,1.1,.9,1.5c.6,.4,2.1,1,2.1,1.8c0,.6,-.2,1.2,-1,1.2c-.9,0,-1.5,-.8,-1.8,-2h-.2v2.1h.2l.2,-.4c.5,.3,1.1,.5,1.7,.5c.6,0,1.1,-.1,1.5,-.5c.3,-.3,.5,-.7,.5,-1.3c0,-1,-1.1,-1.6,-1.9,-2.1c-.5,-.3,-1.2,-.6,-1.2,-1.4c0,-.5,.3,-1,.9,-1Z" class="g9_315"/>
<path d="M465.2,788.4c.4,0,.7,-.3,.7,-.7c0,-.4,-.3,-.8,-.7,-.8c-.4,0,-.8,.4,-.8,.8c0,.4,.4,.7,.8,.7Zm.6,6.5v-4.8l-2.3,.5v.2c.4,0,.6,.1,.8,.3c.3,.3,.3,.6,.3,2.1V795c0,.3,0,.5,0,.7c-.1,.6,-.5,.7,-1.1,.7v.2h3.4v-.2c-.2,0,-.4,0,-.6,0c-.5,-.2,-.5,-.8,-.5,-1.5Z" class="g9_315"/>
<path d="M469.7,791.3v0l-.2,-1.2l-1.9,.5v.2c.2,0,.5,.1,.7,.2c.2,.3,.3,.5,.3,2v2c0,.4,0,.6,0,.8c-.1,.5,-.4,.6,-1,.6v.2h3.2v-.2c-.3,0,-.5,0,-.6,0c-.5,-.2,-.4,-.7,-.4,-1.5v-2c0,-.6,0,-.9,.2,-1.3c.3,-.5,1,-1.1,1.8,-1.1c1.3,0,1.2,1.4,1.2,2.7V795c0,.4,0,.6,0,.8c0,.5,-.4,.6,-1,.6v.2h3.1v-.2c-.2,0,-.4,0,-.5,0c-.5,-.2,-.4,-.8,-.4,-1.5v-2.2c0,-.9,-.1,-1.5,-.4,-1.9c-.3,-.4,-1,-.7,-1.7,-.7c-1.1,0,-1.8,.6,-2.4,1.2Z" class="g9_315"/>
<path d="M483.4,792.2c-.5,1.7,-1,4.2,-2.5,4.2c-.8,0,-1.1,-.7,-1.1,-1.7c0,-.7,.2,-1.6,.4,-2.5h3.2Zm.7,-3.6c0,.8,-.3,1.9,-.6,3.1h-3.2c.6,-2.2,1.5,-4.5,2.9,-4.5c.6,0,.9,.5,.9,1.4Zm.9,.8c0,-.2,0,-2.5,-1.8,-2.5c-2.6,0,-4.5,4.1,-4.5,7c0,.5,.1,2.9,2,2.9c3,0,4.3,-5.1,4.3,-7.4Z" class="g9_315"/>
<path d="M491.5,796.8c1.8,0,2.6,-1.3,3.2,-2.1l-.3,-.1c-.4,.4,-1.1,1.3,-1.8,1.3c-.3,0,-.3,-.2,-.3,-.3c0,-.1,.2,-.5,.4,-.9l.8,-2c.1,-.3,.4,-1.2,.4,-1.6c0,-.6,-.6,-1,-1.6,-1c-.9,0,-1.6,.6,-2.3,1.6h-.1c.1,-.4,.1,-.1,.1,-.6c0,-.6,-.2,-1,-.8,-1c-1.7,0,-2.1,1.3,-2.5,2.5l.3,.1c.2,-.6,.8,-2,1.4,-2c.1,0,.2,.1,.2,.3c0,.3,-.2,.8,-.3,1c-.2,.6,-.3,1.2,-.6,1.8l-1,2.8h1.5l1,-2.6c.2,-.8,1.1,-2.1,1.4,-2.5c.2,-.2,.7,-.8,1.2,-.8c.4,0,.4,.2,.4,.5c0,.3,-.2,.8,-.3,1c0,0,-1.1,2.8,-1.2,3c0,.2,-.1,.4,-.1,.5c0,.6,.3,1.1,.9,1.1Z" class="g9_315"/>
</svg>