<?xml version="1.0" encoding="UTF-8" standalone="no"?>
<!DOCTYPE svg PUBLIC "-//W3C//DTD SVG 1.1//EN"
"http://www.w3.org/Graphics/SVG/1.1/DTD/svg11.dtd">
<svg viewBox="0 0 811 1017" version="1.1" xmlns="http://www.w3.org/2000/svg" xmlns:xlink="http://www.w3.org/1999/xlink">
<defs>
<clipPath id="c0_345"><path d="M72.6,202.2V82.5H174.7V202.2Z"/></clipPath>
<style type="text/css"><![CDATA[
.g0_345{
fill: #000;
}
.g1_345{
fill: #FFF;
}
.g2_345{
fill: #BDC9E6;
}
.g3_345{
fill: #EDF7FA;
}
.g4_345{
fill: #ECD7CC;
}
.g5_345{
fill: #F6BDA1;
}
.g6_345{
fill: #F4997B;
}
.g7_345{
fill: #BD4441;
}
.g8_345{
fill: #040504;
}
.g9_345{
fill: #181818;
}
.ga_345{
fill: #343433;
}
.gb_345{
fill: #2E3A97;
}
.gc_345{
fill: #4458A6;
}
.gd_345{
fill: #7E95CC;
}
.ge_345{
fill: #E56C56;
}
]]></style>
</defs>
<path clip-path="url(#c0_345)" d="M168.4,200.2h.4V82.5h-.4Z" class="g0_345"/>
<path d="M191.1,542.2H438.4V294.8H191.1Z" class="g1_345"/>
<path d="M361,443.2H268.5l-2.5,-.1l-.7,-.9V394.8l.7,-.9l2.5,-.1H361l2.5,.1l.7,.9v47.4l-.7,.9l-2.5,.1Z" class="g2_345"/>
<path d="M386,468H243.6l-2.5,-.2l-.5,-.6V369.8l.5,-.6l2.5,-.2H386l2.5,.2l.5,.6v97.4l-.5,.6L386,468ZM265.3,442.2l.7,.9l2.5,.1H361l2.5,-.1l.7,-.9V394.8l-.7,-.9l-2.5,-.1H268.5l-2.5,.1l-.7,.9v47.4Z" class="g3_345"/>
<path d="M240.6,467.2V369.8l.4,-.6l2.5,-.2H386l2.5,.2l.5,.6v97.4l-.5,.6L386,468H243.5l-2.5,-.2l-.4,-.6Zm-4.5,25.1l2.5,.3l2.4,.1H388.5c12.2,.2,22.7,-8.5,24.8,-20.5l.1,-.9l.2,-1.6l.1,-2.5V369.8l-.1,-2.5l-.2,-1.6l-.1,-.9l-.5,-2.5l-.9,-2.5l-.9,-2.1l-.3,-.4l-1.5,-2.5c-2.7,-3.8,-6.4,-6.8,-10.7,-8.6l-2.5,-.9l-2.2,-.5l-.3,-.1l-2.5,-.3l-2.5,-.1H241c-4.3,-.1,-8.6,1,-12.4,3.1l-2.5,1.6l-1.1,.8c-3.2,2.6,-5.8,6.1,-7.4,10l-.8,2.5l-.6,2.5l-.1,.9l-.2,1.6l-.1,2.5v97.4l.1,2.5l.2,1.6l.1,.9l.6,2.5l.8,2.5l1,2.1l.2,.4c2.3,4.2,5.8,7.7,10,10l2.3,1.1l2.5,.9l2.1,.5l.4,.1Z" class="g4_345"/>
<path d="M235.7,492.2l-2.1,-.5l-2.5,-.9l-2.3,-1.1l-.2,-.1c-4.1,-2.3,-7.6,-5.8,-9.8,-9.9l-.2,-.4l-1,-2.1l-.8,-2.5l-.6,-2.5l-.1,-.9l-.2,-1.6l-.1,-2.5V369.8l.1,-2.5l.2,-1.6l.1,-.9l.6,-2.5l.8,-2.5c1.6,-3.9,4.2,-7.4,7.4,-10l1.1,-.8l2.5,-1.6l.2,-.1l2.3,-1.1l2.5,-.9l2.1,-.5l.4,-.1l2.5,-.3l2.5,-.1H388.5l2.5,.1l2.5,.3l.3,.1l2.2,.5l2.5,.9l2.3,1.1c3.3,1.8,6.2,4.4,8.4,7.5l1.5,2.5l.3,.4l.9,2.1l.9,2.5l.5,2.5l.1,.9l.2,1.6l.1,2.5v97.4l-.1,2.5l-.2,1.6l-.1,.9l-.5,2.5c-1.3,4.3,-3.6,8.2,-6.8,11.2l-1.5,1.3l-1,.8c-4.4,3.1,-9.7,4.8,-15,4.7H241.1l-2.5,-.1l-2.5,-.3l-.4,-.1Zm.4,25l2.5,.2H388.5c24.9,.2,46,-18,49.5,-42.7l.3,-2.5l.1,-2.5V369.8c.1,-5.1,-.6,-10.2,-2.1,-15l-.4,-1.3l-.4,-1.2c-1.6,-4.5,-3.8,-8.7,-6.6,-12.5l-.5,-.6l-1.5,-1.9l-1,-1.1c-7.2,-8.1,-16.8,-13.6,-27.4,-15.7L396,320l-2.2,-.2h-.3l-2.5,-.2l-2.5,-.1H241.1c-10.8,-.1,-21.4,3.4,-30,9.8l-.7,.5l-1.8,1.5c-8,6.8,-13.6,15.8,-16.1,26l-.5,2.5l-.5,2.5l-.2,2.5l-.2,2.5V469.7l.2,2.5l.2,2.5l.5,2.5l.5,2.5l.7,2.5l.4,1.2c1.2,4,3.1,7.8,5.3,11.3l1.7,2.5l.5,.6l1.5,1.9c6.8,8,15.8,13.7,26,16.3l2.5,.5l2.5,.4l2.5,.3Z" class="g5_345"/>
<path d="M223.6,540.2l2.5,.5l2.5,.5l2.5,.4l2.5,.2l2.5,.2l2.5,.1l2.5,.1H388.5l2.5,-.1l2.5,-.1c4.2,-.2,8.3,-.8,12.5,-1.8l2,-.5l.5,-.1l2.5,-.8c9.1,-2.8,17.6,-7.4,24.9,-13.4l.9,-.7l1.6,-1.4V467.2v2.5l-.1,2.5C436.1,497,415.9,516.3,391,517.4H241.1c-26,.2,-47.6,-19.4,-49.8,-45.2l-.2,-2.5v-2.5v56.1l1.6,1.4c8.3,7,18.3,12.2,28.8,15l2.1,.5Z" class="g6_345"/>
<path d="M191.1,367.3l.2,-2.5l.2,-2.5c3.5,-24.7,24.6,-43,49.6,-42.8H388.5l2.5,.1c24.9,1,45.1,20.3,47.3,45.2l.1,2.5v2.5V313.7l-1.6,-1.4l-.9,-.7C423.2,301.2,407.4,295.3,391,294.8H241.1c-17.3,-.1,-34.2,5.8,-47.5,16.8l-.9,.7l-1.6,1.4v56.1v-2.5Z" class="g6_345"/>
<path d="M241.1,542.2h-50V523.3l1.6,1.4c12.8,10.8,29.1,17,45.9,17.4l2.5,.1Z" class="g7_345"/>
<path d="M438.4,542.2H388.5l2.5,-.1c16.8,-.4,33,-6.6,45.8,-17.4l1.6,-1.4v18.9Z" class="g7_345"/>
<path d="M191.1,313.7V294.8h50h-2.5c-16.8,.5,-33.1,6.7,-45.9,17.5l-1.6,1.4Z" class="g7_345"/>
<path d="M438.4,313.7l-1.6,-1.4C424,301.5,407.8,295.3,391,294.8h-2.5h49.9v18.9Z" class="g7_345"/>
<path d="M190.7,545.4h.8v-3.2h-.8Z" class="g8_345"/>
<path d="M177.8,553.2h5.8v-.8h-5.8Z" class="g8_345"/>
<path d="M185.8,555h1.5v-5.2l-1.7,.3v-.8l1.7,-.3h.9v6h1.5v.7h-3.9V555Z" class="g8_345"/>
<path d="M193.5,548.8c.8,0,1.3,.3,1.7,.9c.4,.6,.6,1.5,.6,2.7c0,1.1,-.2,2,-.6,2.6c-.4,.6,-.9,.9,-1.7,.9c-.8,0,-1.3,-.3,-1.7,-.9c-.4,-.6,-.6,-1.5,-.6,-2.6c0,-1.2,.2,-2.1,.6,-2.7c.4,-.6,.9,-.9,1.7,-.9Zm0,.8c-.5,0,-.8,.2,-1.1,.7c-.2,.4,-.3,1.1,-.3,2.1c0,.9,.1,1.6,.3,2c.3,.5,.6,.7,1.1,.7c.5,0,.8,-.2,1.1,-.7c.2,-.4,.3,-1.1,.3,-2c0,-1,-.1,-1.7,-.3,-2.1c-.3,-.5,-.6,-.7,-1.1,-.7Z" class="g8_345"/>
<path d="M197.4,555.7h1v-1.1h-1Z" class="g8_345"/>
<path d="M202.4,548.8c.7,0,1.3,.3,1.7,.9c.4,.6,.6,1.5,.6,2.7c0,1.1,-.2,2,-.6,2.6c-.4,.6,-1,.9,-1.7,.9c-.8,0,-1.4,-.3,-1.8,-.9c-.4,-.6,-.6,-1.5,-.6,-2.6c0,-1.2,.2,-2.1,.6,-2.7c.4,-.6,1,-.9,1.8,-.9Zm0,.8c-.5,0,-.9,.2,-1.1,.7c-.2,.4,-.4,1.1,-.4,2.1c0,.9,.2,1.6,.4,2c.2,.5,.6,.7,1.1,.7c.4,0,.8,-.2,1,-.7c.3,-.4,.4,-1.1,.4,-2c0,-1,-.1,-1.7,-.4,-2.1c-.2,-.5,-.6,-.7,-1,-.7Z" class="g8_345"/>
<path d="M221.6,545.4h.8v-3.2h-.8Z" class="g8_345"/>
<path d="M211.7,553.2h5.8v-.8h-5.8Z" class="g8_345"/>
<path d="M219.3,549h4.3v.3l-2.4,6.4h-1l2.3,-6h-3.2V549Z" class="g8_345"/>
<path d="M225.4,555.7h1v-1.1h-1Z" class="g8_345"/>
<path d="M228.4,549H232v.7h-2.8v1.7l.4,-.1h.4c.8,0,1.4,.2,1.8,.6c.5,.4,.7,1,.7,1.7c0,.7,-.3,1.3,-.7,1.7c-.5,.4,-1.1,.6,-1.9,.6c-.3,0,-.6,-.1,-.9,-.1c-.3,-.1,-.6,-.1,-.9,-.2v-.9c.3,.1,.5,.2,.8,.3c.3,.1,.6,.1,1,.1c.5,0,.9,-.1,1.2,-.4c.3,-.3,.5,-.7,.5,-1.1c0,-.5,-.2,-.9,-.5,-1.2c-.3,-.2,-.7,-.4,-1.2,-.4c-.3,0,-.5,.1,-.8,.1c-.2,.1,-.5,.1,-.7,.3V549Z" class="g8_345"/>
<path d="M252.5,545.4h.8v-3.2h-.8Z" class="g8_345"/>
<path d="M242.6,553.2h5.8v-.8h-5.8Z" class="g8_345"/>
<path d="M250.4,549H254v.7h-2.7v1.7l.4,-.1h.4c.7,0,1.3,.2,1.8,.6c.4,.4,.6,1,.6,1.7c0,.7,-.2,1.3,-.7,1.7c-.4,.4,-1.1,.6,-1.9,.6c-.3,0,-.6,-.1,-.8,-.1c-.3,-.1,-.6,-.1,-1,-.2v-.9c.3,.1,.6,.2,.9,.3c.3,.1,.6,.1,.9,.1c.5,0,.9,-.1,1.2,-.4c.4,-.3,.5,-.7,.5,-1.1c0,-.5,-.1,-.9,-.5,-1.2c-.3,-.2,-.7,-.4,-1.2,-.4c-.2,0,-.5,.1,-.7,.1c-.3,.1,-.5,.1,-.8,.3V549Z" class="g8_345"/>
<path d="M256.3,555.7h1v-1.1h-1Z" class="g8_345"/>
<path d="M261.2,548.8c.8,0,1.4,.3,1.8,.9c.4,.6,.6,1.5,.6,2.7c0,1.1,-.2,2,-.6,2.6c-.4,.6,-1,.9,-1.8,.9c-.7,0,-1.3,-.3,-1.7,-.9c-.4,-.6,-.6,-1.5,-.6,-2.6c0,-1.2,.2,-2.1,.6,-2.7c.4,-.6,1,-.9,1.7,-.9Zm0,.8c-.4,0,-.8,.2,-1,.7c-.3,.4,-.4,1.1,-.4,2.1c0,.9,.1,1.6,.4,2c.2,.5,.6,.7,1,.7c.5,0,.9,-.2,1.1,-.7c.3,-.4,.4,-1.1,.4,-2c0,-1,-.1,-1.7,-.4,-2.1c-.2,-.5,-.6,-.7,-1.1,-.7Z" class="g8_345"/>
<path d="M283.5,545.4h.7v-3.2h-.7Z" class="g8_345"/>
<path d="M273.5,553.2h5.9v-.8h-5.9Z" class="g8_345"/>
<path d="M282.1,555h3.2v.7H281V555c.4,-.4,.8,-.9,1.4,-1.5c.6,-.6,1,-1,1.2,-1.2c.3,-.3,.5,-.6,.6,-.8c.1,-.2,.2,-.5,.2,-.7c0,-.3,-.2,-.6,-.4,-.9c-.3,-.2,-.6,-.3,-1,-.3c-.3,0,-.6,.1,-.9,.2c-.3,.1,-.7,.2,-1,.4v-.9c.3,-.2,.7,-.3,1,-.3c.3,-.1,.6,-.2,.9,-.2c.7,0,1.2,.2,1.7,.6c.4,.3,.6,.8,.6,1.4c0,.2,-.1,.5,-.2,.8c-.1,.2,-.3,.5,-.5,.8c-.1,.1,-.4,.4,-.8,.8c-.4,.4,-.9,1,-1.7,1.8Z" class="g8_345"/>
<path d="M287.2,555.7h1v-1.1h-1Z" class="g8_345"/>
<path d="M290.2,549h3.6v.7h-2.7v1.7l.3,-.1h.4c.8,0,1.4,.2,1.8,.6c.5,.4,.7,1,.7,1.7c0,.7,-.2,1.3,-.7,1.7c-.4,.4,-1.1,.6,-1.9,.6c-.3,0,-.6,-.1,-.9,-.1c-.3,-.1,-.6,-.1,-.9,-.2v-.9c.3,.1,.6,.2,.9,.3c.3,.1,.6,.1,.9,.1c.5,0,.9,-.1,1.2,-.4c.3,-.3,.5,-.7,.5,-1.1c0,-.5,-.2,-.9,-.5,-1.2c-.3,-.2,-.7,-.4,-1.2,-.4c-.3,0,-.5,.1,-.7,.1c-.3,.1,-.5,.1,-.8,.3V549Z" class="g8_345"/>
<path d="M314.4,545.4h.7v-3.2h-.7Z" class="g8_345"/>
<path d="M310.3,548.8c.8,0,1.4,.3,1.8,.9c.4,.6,.6,1.5,.6,2.7c0,1.1,-.2,2,-.6,2.6c-.4,.6,-1,.9,-1.8,.9c-.7,0,-1.3,-.3,-1.7,-.9c-.4,-.6,-.6,-1.5,-.6,-2.6c0,-1.2,.2,-2.1,.6,-2.7c.4,-.6,1,-.9,1.7,-.9Zm0,.8c-.5,0,-.8,.2,-1,.7c-.3,.4,-.4,1.1,-.4,2.1c0,.9,.1,1.6,.4,2c.2,.5,.5,.7,1,.7c.5,0,.9,-.2,1.1,-.7c.2,-.4,.3,-1.1,.3,-2c0,-1,-.1,-1.7,-.3,-2.1c-.2,-.5,-.6,-.7,-1.1,-.7Z" class="g8_345"/>
<path d="M314.3,555.7h.9v-1.1h-.9Z" class="g8_345"/>
<path d="M319.2,548.8c.7,0,1.3,.3,1.7,.9c.4,.6,.6,1.5,.6,2.7c0,1.1,-.2,2,-.6,2.6c-.4,.6,-1,.9,-1.7,.9c-.8,0,-1.4,-.3,-1.8,-.9c-.4,-.6,-.6,-1.5,-.6,-2.6c0,-1.2,.2,-2.1,.6,-2.7c.4,-.6,1,-.9,1.8,-.9Zm0,.8c-.5,0,-.8,.2,-1.1,.7c-.2,.4,-.3,1.1,-.3,2.1c0,.9,.1,1.6,.3,2c.3,.5,.6,.7,1.1,.7c.5,0,.8,-.2,1.1,-.7c.2,-.4,.3,-1.1,.3,-2c0,-1,-.1,-1.7,-.3,-2.1c-.3,-.5,-.6,-.7,-1.1,-.7Z" class="g8_345"/>
<path d="M345.3,545.4h.8v-3.2h-.8Z" class="g8_345"/>
<path d="M340.1,555h3.2v.7H339V555c.3,-.4,.8,-.9,1.4,-1.5c.6,-.6,1,-1,1.1,-1.2c.3,-.3,.5,-.6,.6,-.8c.2,-.2,.2,-.5,.2,-.7c0,-.3,-.1,-.6,-.4,-.9c-.2,-.2,-.6,-.3,-1,-.3c-.2,0,-.5,.1,-.9,.2c-.3,.1,-.6,.2,-1,.4v-.9c.4,-.2,.7,-.3,1,-.3c.4,-.1,.7,-.2,.9,-.2c.7,0,1.3,.2,1.7,.6c.4,.3,.6,.8,.6,1.4c0,.2,0,.5,-.1,.8c-.1,.2,-.3,.5,-.6,.8c-.1,.1,-.3,.4,-.7,.8c-.4,.4,-1,1,-1.7,1.8Z" class="g8_345"/>
<path d="M345.2,555.7h1v-1.1h-1Z" class="g8_345"/>
<path d="M348.2,549h3.6v.7H349v1.7l.4,-.1h.4c.8,0,1.3,.2,1.8,.6c.4,.4,.7,1,.7,1.7c0,.7,-.3,1.3,-.7,1.7c-.5,.4,-1.1,.6,-1.9,.6c-.3,0,-.6,-.1,-.9,-.1c-.3,-.1,-.6,-.1,-.9,-.2v-.9c.2,.1,.5,.2,.8,.3c.3,.1,.6,.1,.9,.1c.6,0,1,-.1,1.3,-.4c.3,-.3,.4,-.7,.4,-1.1c0,-.5,-.1,-.9,-.4,-1.2c-.3,-.2,-.7,-.4,-1.3,-.4c-.2,0,-.5,.1,-.7,.1c-.2,.1,-.5,.1,-.7,.3V549Z" class="g8_345"/>
<path d="M376.2,545.4h.8v-3.2h-.8Z" class="g8_345"/>
<path d="M370.2,549h3.6v.7H371v1.7l.4,-.1h.4c.8,0,1.4,.2,1.8,.6c.5,.4,.7,1,.7,1.7c0,.7,-.2,1.3,-.7,1.7c-.4,.4,-1.1,.6,-1.9,.6c-.3,0,-.6,-.1,-.9,-.1c-.3,-.1,-.6,-.1,-.9,-.2v-.9c.3,.1,.6,.2,.9,.3c.3,.1,.6,.1,.9,.1c.5,0,.9,-.1,1.2,-.4c.3,-.3,.5,-.7,.5,-1.1c0,-.5,-.2,-.9,-.5,-1.2c-.3,-.2,-.7,-.4,-1.2,-.4c-.3,0,-.5,.1,-.7,.1c-.3,.1,-.5,.1,-.8,.3V549Z" class="g8_345"/>
<path d="M376.1,555.7h1v-1.1h-1Z" class="g8_345"/>
<path d="M381,548.8c.8,0,1.4,.3,1.8,.9c.4,.6,.6,1.5,.6,2.7c0,1.1,-.2,2,-.6,2.6c-.4,.6,-1,.9,-1.8,.9c-.7,0,-1.3,-.3,-1.7,-.9c-.4,-.6,-.6,-1.5,-.6,-2.6c0,-1.2,.2,-2.1,.6,-2.7c.4,-.6,1,-.9,1.7,-.9Zm0,.8c-.4,0,-.8,.2,-1,.7c-.3,.4,-.4,1.1,-.4,2.1c0,.9,.1,1.6,.4,2c.2,.5,.6,.7,1,.7c.5,0,.9,-.2,1.1,-.7c.2,-.4,.4,-1.1,.4,-2c0,-1,-.2,-1.7,-.4,-2.1c-.2,-.5,-.6,-.7,-1.1,-.7Z" class="g8_345"/>
<path d="M407.1,545.4h.8v-3.2h-.8Z" class="g8_345"/>
<path d="M400.9,549h4.3v.3l-2.4,6.4h-1l2.3,-6h-3.2V549Z" class="g8_345"/>
<path d="M407,555.7h1v-1.1h-1Z" class="g8_345"/>
<path d="M410,549h3.6v.7h-2.8v1.7l.4,-.1h.4c.8,0,1.4,.2,1.8,.6c.5,.4,.7,1,.7,1.7c0,.7,-.2,1.3,-.7,1.7c-.4,.4,-1.1,.6,-1.9,.6c-.3,0,-.6,-.1,-.9,-.1c-.3,-.1,-.6,-.1,-.9,-.2v-.9c.3,.1,.6,.2,.9,.3c.2,.1,.6,.1,.9,.1c.5,0,.9,-.1,1.2,-.4c.3,-.3,.5,-.7,.5,-1.1c0,-.5,-.2,-.9,-.5,-1.2c-.3,-.2,-.7,-.4,-1.2,-.4c-.3,0,-.5,.1,-.8,.1c-.2,.1,-.5,.1,-.7,.3V549Z" class="g8_345"/>
<path d="M438.1,545.4h.7v-3.2h-.7Z" class="g8_345"/>
<path d="M429.2,555h1.5v-5.2l-1.6,.3v-.8l1.6,-.3h.9v6h1.5v.7h-3.9V555Z" class="g8_345"/>
<path d="M437,548.8c.7,0,1.3,.3,1.7,.9c.4,.6,.6,1.5,.6,2.7c0,1.1,-.2,2,-.6,2.6c-.4,.6,-1,.9,-1.7,.9c-.8,0,-1.4,-.3,-1.8,-.9c-.4,-.6,-.6,-1.5,-.6,-2.6c0,-1.2,.2,-2.1,.6,-2.7c.4,-.6,1,-.9,1.8,-.9Zm0,.8c-.5,0,-.9,.2,-1.1,.7c-.2,.4,-.4,1.1,-.4,2.1c0,.9,.2,1.6,.4,2c.2,.5,.6,.7,1.1,.7c.4,0,.8,-.2,1,-.7c.3,-.4,.4,-1.1,.4,-2c0,-1,-.1,-1.7,-.4,-2.1c-.2,-.5,-.6,-.7,-1,-.7Z" class="g8_345"/>
<path d="M440.9,555.7h1v-1.1h-1Z" class="g8_345"/>
<path d="M445.8,548.8c.8,0,1.4,.3,1.8,.9c.4,.6,.6,1.5,.6,2.7c0,1.1,-.2,2,-.6,2.6c-.4,.6,-1,.9,-1.8,.9c-.7,0,-1.3,-.3,-1.7,-.9c-.4,-.6,-.6,-1.5,-.6,-2.6c0,-1.2,.2,-2.1,.6,-2.7c.4,-.6,1,-.9,1.7,-.9Zm0,.8c-.4,0,-.8,.2,-1,.7c-.3,.4,-.4,1.1,-.4,2.1c0,.9,.1,1.6,.4,2c.2,.5,.6,.7,1,.7c.5,0,.9,-.2,1.1,-.7c.2,-.4,.3,-1.1,.3,-2c0,-1,-.1,-1.7,-.3,-2.1c-.2,-.5,-.6,-.7,-1.1,-.7Z" class="g8_345"/>
<path d="M187.8,542.5h3.3v-.7h-3.3Z" class="g8_345"/>
<path d="M157.1,543.2h5.8v-.8h-5.8Z" class="g8_345"/>
<path d="M165,544.9h1.5v-5.1l-1.6,.3v-.9l1.6,-.3h.9v6h1.5v.8H165v-.8Z" class="g8_345"/>
<path d="M172.7,538.8c.8,0,1.4,.3,1.8,.9c.4,.6,.6,1.5,.6,2.6c0,1.2,-.2,2,-.6,2.6c-.4,.6,-1,.9,-1.8,.9c-.7,0,-1.3,-.3,-1.7,-.9c-.4,-.6,-.6,-1.4,-.6,-2.6c0,-1.1,.2,-2,.6,-2.6c.4,-.6,1,-.9,1.7,-.9Zm0,.7c-.4,0,-.8,.3,-1,.7c-.3,.5,-.4,1.2,-.4,2.1c0,.9,.1,1.6,.4,2.1c.2,.5,.6,.7,1,.7c.5,0,.9,-.2,1.1,-.7c.3,-.5,.4,-1.2,.4,-2.1c0,-.9,-.1,-1.6,-.4,-2.1c-.2,-.4,-.6,-.7,-1.1,-.7Z" class="g8_345"/>
<path d="M176.7,545.7h1v-1.2h-1Z" class="g8_345"/>
<path d="M181.6,538.8c.8,0,1.4,.3,1.8,.9c.4,.6,.6,1.5,.6,2.6c0,1.2,-.2,2,-.6,2.6c-.4,.6,-1,.9,-1.8,.9c-.7,0,-1.3,-.3,-1.7,-.9c-.4,-.6,-.6,-1.4,-.6,-2.6c0,-1.1,.2,-2,.6,-2.6c.4,-.6,1,-.9,1.7,-.9Zm0,.7c-.5,0,-.8,.3,-1.1,.7c-.2,.5,-.3,1.2,-.3,2.1c0,.9,.1,1.6,.3,2.1c.3,.5,.6,.7,1.1,.7c.5,0,.8,-.2,1.1,-.7c.2,-.5,.3,-1.2,.3,-2.1c0,-.9,-.1,-1.6,-.3,-2.1c-.3,-.4,-.6,-.7,-1.1,-.7Z" class="g8_345"/>
<path d="M187.8,511.6h3.3v-.7h-3.3Z" class="g8_345"/>
<path d="M163,512.3h5.8v-.8H163Z" class="g8_345"/>
<path d="M170.6,508h4.3v.4l-2.5,6.4h-.9l2.3,-6h-3.2V508Z" class="g8_345"/>
<path d="M176.7,514.8h1v-1.2h-1Z" class="g8_345"/>
<path d="M179.7,508h3.6v.8h-2.8v1.6l.4,-.1h.4c.8,0,1.4,.2,1.8,.6c.4,.4,.7,1,.7,1.7c0,.7,-.3,1.3,-.7,1.7c-.5,.4,-1.1,.6,-1.9,.6c-.3,0,-.6,0,-.9,-.1c-.3,0,-.6,-.1,-.9,-.2v-.9c.2,.1,.5,.3,.8,.3c.3,.1,.6,.1,.9,.1c.6,0,1,-.1,1.3,-.4c.3,-.2,.4,-.6,.4,-1.1c0,-.5,-.1,-.8,-.4,-1.1c-.3,-.3,-.7,-.4,-1.3,-.4c-.2,0,-.4,0,-.7,.1c-.2,0,-.5,.1,-.7,.2V508Z" class="g8_345"/>
<path d="M187.8,480.7h3.3v-.8h-3.3Z" class="g8_345"/>
<path d="M163,481.3h5.8v-.7H163Z" class="g8_345"/>
<path d="M170.8,477.1h3.6v.8h-2.8v1.6l.4,-.1h.4c.8,0,1.4,.2,1.8,.6c.5,.4,.7,1,.7,1.7c0,.7,-.2,1.3,-.7,1.7c-.4,.4,-1.1,.6,-1.9,.6c-.3,0,-.6,0,-.9,-.1c-.3,0,-.6,-.1,-.9,-.2v-.9c.3,.1,.6,.2,.9,.3c.2,.1,.5,.1,.9,.1c.5,0,.9,-.1,1.2,-.4c.3,-.3,.5,-.6,.5,-1.1c0,-.5,-.2,-.9,-.5,-1.1c-.3,-.3,-.7,-.4,-1.2,-.4c-.3,0,-.5,0,-.8,0c-.2,.1,-.5,.2,-.7,.3v-3.4Z" class="g8_345"/>
<path d="M176.7,483.9h1v-1.2h-1Z" class="g8_345"/>
<path d="M181.6,477c.8,0,1.4,.3,1.8,.9c.4,.6,.6,1.4,.6,2.6c0,1.1,-.2,2,-.6,2.6c-.4,.6,-1,.9,-1.8,.9c-.7,0,-1.3,-.3,-1.7,-.9c-.4,-.6,-.6,-1.5,-.6,-2.6c0,-1.2,.2,-2,.6,-2.6c.4,-.6,1,-.9,1.7,-.9Zm0,.7c-.5,0,-.8,.2,-1.1,.7c-.2,.4,-.3,1.1,-.3,2.1c0,.9,.1,1.6,.3,2.1c.3,.4,.6,.7,1.1,.7c.5,0,.8,-.3,1.1,-.7c.2,-.5,.3,-1.2,.3,-2.1c0,-1,-.1,-1.7,-.3,-2.1c-.3,-.5,-.6,-.7,-1.1,-.7Z" class="g8_345"/>
<path d="M187.8,449.8h3.3V449h-3.3Z" class="g8_345"/>
<path d="M163,450.4h5.8v-.8H163Z" class="g8_345"/>
<path d="M171.6,452.2h3.2v.7h-4.3v-.7c.3,-.4,.8,-.9,1.4,-1.5c.6,-.6,1,-1,1.1,-1.2c.3,-.3,.5,-.6,.6,-.8c.2,-.2,.2,-.4,.2,-.7c0,-.3,-.1,-.6,-.4,-.8c-.2,-.3,-.5,-.4,-1,-.4c-.2,0,-.5,.1,-.9,.2c-.3,.1,-.6,.2,-1,.4v-.9c.4,-.2,.7,-.3,1.1,-.3c.3,-.1,.6,-.2,.8,-.2c.7,0,1.3,.2,1.7,.6c.4,.3,.6,.8,.6,1.4c0,.3,0,.5,-.1,.8c-.1,.2,-.3,.5,-.6,.8c-.1,.1,-.3,.4,-.7,.8c-.4,.4,-1,1,-1.7,1.8Z" class="g8_345"/>
<path d="M176.7,452.9h1v-1.1h-1Z" class="g8_345"/>
<path d="M179.7,446.2h3.6v.7h-2.8v1.7l.4,-.1h.4c.8,0,1.4,.2,1.8,.6c.4,.4,.7,1,.7,1.7c0,.7,-.3,1.3,-.7,1.7c-.5,.4,-1.1,.6,-1.9,.6c-.3,0,-.6,-.1,-.9,-.1c-.3,0,-.6,-.1,-.9,-.2v-.9c.2,.1,.5,.2,.8,.3c.3,.1,.6,.1,.9,.1c.6,0,1,-.1,1.3,-.4c.3,-.3,.4,-.7,.4,-1.1c0,-.5,-.1,-.9,-.4,-1.2c-.3,-.2,-.7,-.4,-1.3,-.4c-.2,0,-.4,.1,-.7,.1c-.2,.1,-.5,.2,-.7,.3v-3.4Z" class="g8_345"/>
<path d="M187.8,418.9h3.3v-.8h-3.3Z" class="g8_345"/>
<path d="M172.7,415.1c.8,0,1.4,.3,1.8,.9c.4,.6,.6,1.5,.6,2.6c0,1.2,-.2,2.1,-.6,2.7c-.4,.6,-1,.9,-1.8,.9c-.7,0,-1.3,-.3,-1.7,-.9c-.4,-.6,-.6,-1.5,-.6,-2.7c0,-1.1,.2,-2,.6,-2.6c.4,-.6,1,-.9,1.7,-.9Zm0,.7c-.4,0,-.8,.3,-1,.7c-.3,.5,-.4,1.2,-.4,2.1c0,1,.1,1.7,.4,2.1c.2,.5,.6,.7,1,.7c.5,0,.9,-.2,1.1,-.7c.3,-.4,.4,-1.1,.4,-2.1c0,-.9,-.1,-1.6,-.4,-2.1c-.2,-.4,-.6,-.7,-1.1,-.7Z" class="g8_345"/>
<path d="M176.7,422h1v-1.1h-1Z" class="g8_345"/>
<path d="M181.6,415.1c.8,0,1.4,.3,1.8,.9c.4,.6,.6,1.5,.6,2.6c0,1.2,-.2,2.1,-.6,2.7c-.4,.6,-1,.9,-1.8,.9c-.7,0,-1.3,-.3,-1.7,-.9c-.4,-.6,-.6,-1.5,-.6,-2.7c0,-1.1,.2,-2,.6,-2.6c.4,-.6,1,-.9,1.7,-.9Zm0,.7c-.5,0,-.8,.3,-1.1,.7c-.2,.5,-.3,1.2,-.3,2.1c0,1,.1,1.7,.3,2.1c.3,.5,.6,.7,1.1,.7c.5,0,.8,-.2,1.1,-.7c.2,-.4,.3,-1.1,.3,-2.1c0,-.9,-.1,-1.6,-.3,-2.1c-.3,-.4,-.6,-.7,-1.1,-.7Z" class="g8_345"/>
<path d="M187.8,387.9h3.3v-.7h-3.3Z" class="g8_345"/>
<path d="M171.6,390.3h3.2v.8h-4.3v-.8c.3,-.3,.8,-.8,1.4,-1.4c.6,-.6,1,-1,1.1,-1.2c.3,-.3,.5,-.6,.6,-.8c.2,-.3,.2,-.5,.2,-.7c0,-.4,-.1,-.7,-.4,-.9c-.2,-.2,-.5,-.3,-.9,-.3c-.3,0,-.6,0,-1,.1c-.3,.1,-.6,.3,-1,.5v-.9c.4,-.2,.7,-.3,1.1,-.4c.3,-.1,.6,-.1,.8,-.1c.7,0,1.3,.2,1.7,.5c.4,.4,.6,.8,.6,1.4c0,.3,0,.6,-.1,.8c-.1,.3,-.3,.6,-.6,.9c-.1,.1,-.3,.4,-.7,.8c-.4,.4,-1,1,-1.7,1.7Z" class="g8_345"/>
<path d="M176.7,391.1h1v-1.2h-1Z" class="g8_345"/>
<path d="M179.7,384.3h3.6v.8h-2.8v1.7l.4,-.1l.4,-.1c.8,0,1.4,.2,1.8,.6c.4,.5,.7,1,.7,1.7c0,.8,-.3,1.3,-.7,1.7c-.5,.4,-1.1,.6,-1.9,.6c-.3,0,-.6,0,-.9,0c-.3,-.1,-.6,-.2,-.9,-.3V390c.2,.2,.5,.3,.8,.4c.3,0,.6,.1,.9,.1c.6,0,1,-.2,1.3,-.5c.3,-.2,.4,-.6,.4,-1.1c0,-.4,-.1,-.8,-.4,-1.1c-.3,-.3,-.7,-.4,-1.3,-.4c-.2,0,-.4,0,-.7,.1c-.2,0,-.5,.1,-.7,.2v-3.4Z" class="g8_345"/>
<path d="M187.8,357h3.3v-.7h-3.3Z" class="g8_345"/>
<path d="M170.8,353.4h3.6v.8h-2.8v1.6l.4,-.1h.4c.8,0,1.4,.2,1.8,.6c.5,.4,.7,1,.7,1.7c0,.7,-.2,1.3,-.7,1.7c-.4,.4,-1.1,.6,-1.9,.6c-.3,0,-.6,0,-.9,-.1c-.3,0,-.6,-.1,-.9,-.2v-.9c.3,.1,.6,.3,.9,.3c.2,.1,.6,.1,.9,.1c.5,0,.9,-.1,1.2,-.4c.3,-.2,.5,-.6,.5,-1.1c0,-.5,-.2,-.8,-.5,-1.1c-.3,-.3,-.7,-.4,-1.2,-.4c-.3,0,-.5,0,-.8,.1c-.2,0,-.4,.1,-.7,.2v-3.4Z" class="g8_345"/>
<path d="M176.7,360.2h1V359h-1Z" class="g8_345"/>
<path d="M181.6,353.3c.8,0,1.4,.3,1.8,.9c.4,.6,.6,1.5,.6,2.6c0,1.1,-.2,2,-.6,2.6c-.4,.6,-1,.9,-1.8,.9c-.7,0,-1.3,-.3,-1.7,-.9c-.4,-.6,-.6,-1.5,-.6,-2.6c0,-1.1,.2,-2,.6,-2.6c.4,-.6,1,-.9,1.7,-.9Zm0,.7c-.5,0,-.8,.2,-1.1,.7c-.2,.5,-.3,1.2,-.3,2.1c0,.9,.1,1.6,.3,2.1c.3,.5,.6,.7,1.1,.7c.5,0,.8,-.2,1.1,-.7c.2,-.5,.3,-1.2,.3,-2.1c0,-.9,-.1,-1.6,-.3,-2.1c-.3,-.5,-.6,-.7,-1.1,-.7Z" class="g8_345"/>
<path d="M187.8,326.1h3.3v-.7h-3.3Z" class="g8_345"/>
<path d="M170.6,322.5h4.3v.4l-2.5,6.4h-.9l2.3,-6h-3.2v-.8Z" class="g8_345"/>
<path d="M176.7,329.3h1v-1.2h-1Z" class="g8_345"/>
<path d="M179.7,322.5h3.6v.8h-2.8v1.6l.4,-.1h.4c.8,0,1.4,.2,1.8,.6c.4,.4,.7,1,.7,1.7c0,.7,-.3,1.3,-.7,1.7c-.5,.4,-1.1,.6,-1.9,.6c-.3,0,-.6,0,-.9,-.1c-.3,0,-.6,-.1,-.9,-.2v-.9c.2,.1,.5,.2,.8,.3c.3,.1,.6,.1,.9,.1c.6,0,1,-.1,1.3,-.4c.3,-.3,.4,-.6,.4,-1.1c0,-.5,-.1,-.9,-.4,-1.1c-.3,-.3,-.7,-.4,-1.3,-.4c-.2,0,-.4,0,-.7,0c-.2,.1,-.5,.2,-.7,.3v-3.4Z" class="g8_345"/>
<path d="M187.8,295.2h3.3v-.8h-3.3Z" class="g8_345"/>
<path d="M165,297.6h1.5v-5.2l-1.6,.3v-.8l1.6,-.3h.9v6h1.5v.7H165v-.7Z" class="g8_345"/>
<path d="M172.7,291.4c.8,0,1.4,.3,1.8,.9c.4,.6,.6,1.5,.6,2.7c0,1.1,-.2,2,-.6,2.6c-.4,.6,-1,.9,-1.8,.9c-.7,0,-1.3,-.3,-1.7,-.9c-.4,-.6,-.6,-1.5,-.6,-2.6c0,-1.2,.2,-2.1,.6,-2.7c.4,-.6,1,-.9,1.7,-.9Zm0,.8c-.4,0,-.8,.2,-1,.7c-.3,.4,-.4,1.1,-.4,2.1c0,.9,.1,1.6,.4,2.1c.2,.4,.6,.6,1,.6c.5,0,.9,-.2,1.1,-.6c.3,-.5,.4,-1.2,.4,-2.1c0,-1,-.1,-1.7,-.4,-2.1c-.2,-.5,-.6,-.7,-1.1,-.7Z" class="g8_345"/>
<path d="M176.7,298.3h1v-1.1h-1Z" class="g8_345"/>
<path d="M181.6,291.4c.8,0,1.4,.3,1.8,.9c.4,.6,.6,1.5,.6,2.7c0,1.1,-.2,2,-.6,2.6c-.4,.6,-1,.9,-1.8,.9c-.7,0,-1.3,-.3,-1.7,-.9c-.4,-.6,-.6,-1.5,-.6,-2.6c0,-1.2,.2,-2.1,.6,-2.7c.4,-.6,1,-.9,1.7,-.9Zm0,.8c-.5,0,-.8,.2,-1.1,.7c-.2,.4,-.3,1.1,-.3,2.1c0,.9,.1,1.6,.3,2.1c.3,.4,.6,.6,1.1,.6c.5,0,.8,-.2,1.1,-.6c.2,-.5,.3,-1.2,.3,-2.1c0,-1,-.1,-1.7,-.3,-2.1c-.3,-.5,-.6,-.7,-1.1,-.7Z" class="g8_345"/>
<path d="M266.3,442.8l-.6,-.7V394.9l.5,-.6l2.3,-.2H361l2.3,.2l.5,.6v47.2l-.5,.6l-2.3,.1H268.5l-2.4,-.1l-.1,.7l2.5,.2H361l2.5,-.2l.3,-.1l.7,-.8l.1,-.3V394.8l-.1,-.3l-.7,-.8l-.3,-.2l-2.5,-.1H268.5l-2.5,.1l-.2,.2l-.8,.8l-.1,.3v47.4l.1,.3l.8,.8l.5,-.5Z" class="g9_345"/>
<path d="M241.1,467.8l.8,-.8l-.2,-.2V370.2l.2,-.3l-.8,-.7v1.1l2.5,-.2H385.9l2,.2l.2,.2l.9,-.7h-1.1v97l-.3,.2l.9,.8l-.1,-1.1l-2.5,.2H243.6l-2.5,-.2v1.1l.8,-.8l-.8,.8l-.1,1.1l2.5,.2H386.1l2.4,-.2c.3,-.1,.6,-.2,.8,-.4l.5,-.6c.2,-.2,.3,-.4,.3,-.7V369.8c0,-.3,-.1,-.6,-.3,-.8l-.5,-.5c-.2,-.2,-.5,-.4,-.8,-.4l-2.4,-.2H243.5l-2.5,.2c-.3,0,-.6,.2,-.8,.4l-.5,.5c-.1,.2,-.2,.5,-.2,.8v97.4c0,.3,.1,.5,.2,.7l.5,.6c.2,.2,.5,.3,.8,.4l.1,-1.1Z" class="ga_345"/>
<path d="M236.1,492.3v-.4l-.3,-.1l-2.1,-.5l-2.5,-.9c-8.5,-3.5,-14.3,-11.5,-14.9,-20.7l-.1,-2.5V369.8c-.3,-10.2,5.6,-19.3,15,-23.3l2.5,-.8l2.1,-.5l.3,-.1l2.5,-.4H390.9l2.5,.4l.3,.1l2.2,.5l2.4,.8c8.5,3.6,14.3,11.6,15,20.8v99.9c.3,10.2,-5.6,19.3,-15,23.2l-2.4,.9l-2.2,.5l-.3,.1l-2.5,.3l-2.4,.1H241.1l-2.5,-.1l-2.5,-.3v.4v-.4v.4l-.1,.4l2.5,.3l2.5,.1H388.5c5.8,.1,11.7,-1.9,16.2,-5.6l1.5,-1.3c4.1,-3.9,7,-9.2,7.6,-14.9l.2,-1.5v-.1l.1,-2.5V369.8c.1,-5.8,-1.7,-11.7,-5.3,-16.2h-.1L407.4,352c-3.6,-3.9,-8.5,-6.7,-13.9,-7.7L391,344l-2.5,-.1H241c-5.4,-.1,-10.8,1.6,-15.2,4.8l-1,.8c-4.7,3.8,-8,9.3,-9,15.2l-.1,1l-.2,1.5v.1l-.1,2.5v97.4l.1,2.5v.1l.2,1.5l.1,1c.5,2.7,1.4,5.1,2.6,7.6h.1l1.5,2.5c3.3,4.6,8.1,8.1,13.5,9.7l2.1,.5l.4,.1l.1,-.4Z" class="g9_345"/>
<path d="M438.1,467.2l-.1,2.5c-.9,25.7,-21.4,46.2,-47.1,47.3l-7.4,.1L238.6,517c-25.7,-1.1,-46.2,-21.6,-47.1,-47.3v-2.5h-.8v2.5c1,26.1,21.8,47,47.9,48.1H391c11,-.5,21.7,-4.6,30.2,-11.8l2.5,-2.3c8.6,-8.4,13.9,-19.5,14.9,-31.5l.2,-2.5v-2.5h-.7Z" class="g9_345"/>
<path d="M191.5,369.8v-2.5c.9,-25.7,21.4,-46.3,47.1,-47.3l7.5,-.1H246l144.9,.1c25.7,1.1,46.2,21.6,47.1,47.3l.1,2.5h.7v-2.6c-1,-26,-21.7,-46.9,-47.8,-48H238.6c-11.1,.4,-21.8,4.6,-30.3,11.8l-2.5,2.3c-8.6,8.3,-13.9,19.5,-14.9,31.4l-.2,2.5v2.6h.8Z" class="g9_345"/>
<path d="M241.1,541.8h-2.5c-5.1,-.2,-10.1,-.8,-15,-2l-2,-.5l-.4,-.1l-2.5,-.7l-2.5,-.8l-2.3,-.9l-.2,-.1l-2.5,-1l-2.5,-1.1l-.5,-.3l-2,-1c-4.7,-2.4,-9.2,-5.5,-13.2,-8.9L191.3,523l-.5,.6l1.7,1.4c12.9,10.9,29.2,17.1,46,17.5H241l.1,-.7Z" class="g9_345"/>
<path d="M438.2,523l-1.6,1.4c-4.1,3.4,-8.6,6.5,-13.3,8.9l-2,1l-.5,.3l-2.5,1.1l-2.5,1l-.2,.1l-2.3,.9c-7.2,2.5,-14.7,3.9,-22.3,4.1h-2.5v.7H391c16.9,-.4,33.2,-6.6,46.1,-17.5l1.6,-1.5l-.5,-.5Z" class="g9_345"/>
<path d="M191.3,314l1.7,-1.4c4,-3.5,8.5,-6.5,13.2,-9l2,-1l.5,-.2l2.5,-1.1l2.5,-1.1h.2l2.3,-.9l2.5,-.8l2.5,-.7l.4,-.1l2,-.5c4.9,-1.2,9.9,-1.8,15,-2h2.5l-.1,-.8l-2.5,.1c-16.8,.4,-33.1,6.6,-46,17.5l-1.7,1.4l.5,.6Z" class="g9_345"/>
<path d="M388.5,295.2H391c5,.2,10,.8,14.9,2l2,.5l.5,.1l2.4,.7l2.5,.8l2.3,.9h.2l2.5,1.1l2.5,1.1l.5,.2l2,1c4.7,2.5,9.2,5.5,13.3,9l1.6,1.4l.5,-.6L437.1,312C424.2,301.1,407.9,294.9,391,294.5l-2.5,-.1v.8Z" class="g9_345"/>
<path d="M190.7,542.5h.8V294.4h-.8Z" class="g8_345"/>
<path d="M438.1,542.5h.7V294.4h-.7Z" class="g8_345"/>
<path d="M190.7,542.5H438.8v-.7H190.7Z" class="g8_345"/>
<path d="M190.7,295.2H438.8v-.8H190.7Z" class="g8_345"/>
<path d="M455,542.2h12.4V294.8H455Z" class="g1_345"/>
<path d="M455,542.2h12.4V517.4H455Z" class="gb_345"/>
<path d="M455,517.4h12.4V492.7H455Z" class="gc_345"/>
<path d="M455,492.7h12.4V468H455Z" class="gd_345"/>
<path d="M455,468h12.4V443.2H455Z" class="g2_345"/>
<path d="M455,443.2h12.4V418.5H455Z" class="g3_345"/>
<path d="M455,418.5h12.4V393.8H455Z" class="g4_345"/>
<path d="M455,393.8h12.4V369H455Z" class="g5_345"/>
<path d="M455,369h12.4V344.3H455Z" class="g6_345"/>
<path d="M455,344.3h12.4V319.5H455Z" class="ge_345"/>
<path d="M455,319.5h12.4V294.8H455Z" class="g7_345"/>
<path d="M467.4,517.8h3.3v-.7h-3.3Z" class="g8_345"/>
<path d="M474.9,518.4h5.8v-.7h-5.8Z" class="g8_345"/>
<path d="M483.4,515.9c0,.4,.1,.6,.3,.8c.2,.2,.6,.3,.9,.3c.4,0,.7,-.1,1,-.3c.2,-.2,.3,-.4,.3,-.8c0,-.3,-.1,-.6,-.3,-.8c-.3,-.2,-.6,-.3,-1,-.3c-.3,0,-.7,.1,-.9,.3c-.2,.2,-.3,.5,-.3,.8Zm.3,1.5c-.4,-.1,-.7,-.3,-.9,-.6c-.2,-.3,-.3,-.6,-.3,-1c0,-.5,.2,-.9,.6,-1.3c.3,-.3,.9,-.4,1.5,-.4c.7,0,1.3,.1,1.6,.4c.4,.4,.6,.8,.6,1.3c0,.4,-.1,.7,-.3,1c-.2,.3,-.5,.5,-.9,.6c.4,.1,.8,.3,1,.6c.2,.3,.4,.6,.4,1.1c0,.6,-.2,1.1,-.6,1.5c-.4,.3,-1,.5,-1.8,.5c-.7,0,-1.3,-.2,-1.7,-.5c-.4,-.4,-.6,-.9,-.6,-1.5c0,-.5,.1,-.8,.4,-1.1c.2,-.3,.6,-.5,1,-.6Zm.9,.3c-.4,0,-.7,.2,-1,.4c-.2,.2,-.4,.5,-.4,1c0,.4,.2,.7,.4,.9c.3,.3,.6,.4,1,.4c.5,0,.8,-.1,1.1,-.4c.2,-.2,.4,-.5,.4,-.9c0,-.5,-.2,-.8,-.4,-1c-.3,-.2,-.6,-.4,-1.1,-.4Z" class="g8_345"/>
<path d="M467.4,468.3h3.3v-.7h-3.3Z" class="g8_345"/>
<path d="M474.9,469h5.8v-.8h-5.8Z" class="g8_345"/>
<path d="M485,464.7h1.1v4.4h1v.8h-1v1.6h-.9v-1.6h-3.1V469l2.9,-4.3Zm.2,.8l-2.3,3.6h2.3v-3.6Z" class="g8_345"/>
<path d="M467.4,418.9h3.3v-.8h-3.3Z" class="g8_345"/>
<path d="M476.9,415.1c.7,0,1.3,.3,1.7,.9c.4,.6,.6,1.5,.6,2.6c0,1.2,-.2,2.1,-.6,2.7c-.4,.6,-1,.9,-1.7,.9c-.8,0,-1.4,-.3,-1.8,-.9c-.4,-.6,-.6,-1.5,-.6,-2.7c0,-1.1,.2,-2,.6,-2.6c.4,-.6,1,-.9,1.8,-.9Zm0,.7c-.5,0,-.9,.3,-1.1,.7c-.2,.5,-.4,1.2,-.4,2.1c0,1,.2,1.7,.4,2.1c.2,.5,.6,.7,1.1,.7c.4,0,.8,-.2,1,-.7c.3,-.4,.4,-1.1,.4,-2.1c0,-.9,-.1,-1.6,-.4,-2.1c-.2,-.4,-.6,-.7,-1,-.7Z" class="g8_345"/>
<path d="M467.4,369.4h3.3v-.8h-3.3Z" class="g8_345"/>
<path d="M477.2,365.8h1.1v4.4h1v.8h-1v1.6h-.9V371h-3v-.9l2.8,-4.3Zm.2,.8l-2.3,3.6h2.3v-3.6Z" class="g8_345"/>
<path d="M467.4,319.9h3.3v-.7h-3.3Z" class="g8_345"/>
<path d="M475.6,318c0,.4,.1,.6,.3,.8c.3,.2,.6,.3,1,.3c.4,0,.7,-.1,.9,-.3c.2,-.2,.3,-.4,.3,-.8c0,-.3,-.1,-.6,-.3,-.8c-.2,-.2,-.5,-.3,-.9,-.3c-.4,0,-.7,.1,-1,.3c-.2,.2,-.3,.5,-.3,.8Zm.3,1.5c-.4,-.1,-.7,-.3,-.9,-.6c-.2,-.2,-.3,-.6,-.3,-1c0,-.5,.2,-.9,.6,-1.2c.4,-.4,.9,-.5,1.6,-.5c.6,0,1.2,.1,1.5,.5c.4,.3,.6,.7,.6,1.2c0,.4,-.1,.8,-.3,1c-.2,.3,-.5,.5,-.9,.6c.4,.1,.8,.3,1,.6c.3,.3,.4,.6,.4,1.1c0,.6,-.2,1.1,-.6,1.5c-.4,.3,-1,.5,-1.7,.5c-.8,0,-1.4,-.2,-1.8,-.5c-.4,-.4,-.6,-.9,-.6,-1.5c0,-.5,.2,-.8,.4,-1.1c.3,-.3,.6,-.5,1,-.6Zm1,.4c-.5,0,-.8,.1,-1.1,.3c-.2,.2,-.3,.6,-.3,1c0,.4,.1,.7,.3,.9c.3,.3,.6,.4,1.1,.4c.4,0,.7,-.1,1,-.4c.2,-.2,.4,-.5,.4,-.9c0,-.4,-.2,-.8,-.4,-1c-.3,-.2,-.6,-.3,-1,-.3Z" class="g8_345"/>
<path d="M455,542.2v.3h12.8V294.4H454.7V542.5h.3v-.3h.4v-247H467V541.8H455v.4h.4H455Z" class="g8_345"/>
</svg>