<?xml version="1.0" encoding="UTF-8" standalone="no"?>
<!DOCTYPE svg PUBLIC "-//W3C//DTD SVG 1.1//EN"
"http://www.w3.org/Graphics/SVG/1.1/DTD/svg11.dtd">
<svg viewBox="0 0 811 1017" version="1.1" xmlns="http://www.w3.org/2000/svg" xmlns:xlink="http://www.w3.org/1999/xlink">
<defs>
<style type="text/css"><![CDATA[
.g0_231{
fill: #70A6CC;
}
.g1_231{
fill: #000;
}
.g2_231{
fill: #FFF;
}
.g3_231{
fill: #1A78B6;
}
.g4_231{
fill: none;
stroke: #1A78B6;
stroke-width: 0.982;
stroke-linejoin: round;
}
.g5_231{
fill: none;
stroke: #B0B2B1;
stroke-width: 0.785;
stroke-linecap: square;
stroke-linejoin: round;
}
.g6_231{
fill: none;
stroke: #040504;
stroke-width: 0.785;
stroke-linejoin: round;
}
.g7_231{
fill: #040504;
}
.g8_231{
fill: none;
stroke: #808181;
stroke-width: 1.472;
stroke-linecap: square;
stroke-linejoin: round;
}
.g9_231{
fill: none;
stroke: #1A78B6;
stroke-width: 1.472;
stroke-linecap: square;
stroke-linejoin: round;
}
.ga_231{
fill: none;
stroke: #040504;
stroke-width: 0.785;
stroke-linecap: square;
}
]]></style>
</defs>
<path d="M156.1,273.4H724.4V252.1H156.1Z" class="g0_231"/>
<path d="M568.4,353.7h.4V284.8h-.4Z" class="g1_231"/>
<path d="M551.3,353.7V357l-.3,-.1l-6.3,-3l-.4,-.2l.4,-.1l6.3,-3l.3,-.1v.3l-.1,.2l-6.3,2.9l-.2,-.3h.2l6.3,2.9l-.2,.4l-.1,-.2v-3Z" class="g1_231"/>
<path d="M550.9,353.7h.4v-2.9h-.4Z" class="g1_231"/>
<path d="M551.1,353.9h.2v-.3h-.2Z" class="g1_231"/>
<path d="M551.3,353.9h17.5v-.3H551.3Z" class="g1_231"/>
<path d="M429.3,397.7h.3V369h-.3Z" class="g1_231"/>
<path d="M411.9,369v3.2l-.3,-.1l-6.3,-3l-.4,-.1l.4,-.2l6.3,-3l.3,-.1v.3l-.1,.2l-6.4,2.9l-.1,-.3h.1l6.4,2.9l-.2,.4l-.1,-.2V369Z" class="g1_231"/>
<path d="M411.5,369h.4v-3h-.4Z" class="g1_231"/>
<path d="M411.7,369.1h.2v-.3h-.2Z" class="g1_231"/>
<path d="M411.9,369.1h17.7v-.3H411.9Z" class="g1_231"/>
<path d="M741,414.8h.4V322.5H741Z" class="g1_231"/>
<path d="M707.8,414.8V418l-.3,-.1L701.3,415l-.4,-.2l.4,-.2l6.2,-2.9l.3,-.1v.3l-.1,.1l-6.3,3l-.1,-.4h.1l6.3,2.9l-.2,.4l-.1,-.2v-2.9Z" class="g1_231"/>
<path d="M707.4,414.8h.4v-2.9h-.4Z" class="g1_231"/>
<path d="M707.7,415h.2v-.4h-.2Z" class="g1_231"/>
<path d="M707.9,415h33.5v-.4H707.9Z" class="g1_231"/>
<path d="M205.7,843.9H556.4V582.7H205.7Z" class="g2_231"/>
<path d="M224.6,834.8c.8,0,1.5,-.3,2.1,-.9c.5,-.5,.8,-1.3,.8,-2c0,-.8,-.3,-1.6,-.8,-2.1c-.6,-.6,-1.3,-.9,-2.1,-.9c-.8,0,-1.5,.3,-2.1,.9c-.5,.5,-.8,1.3,-.8,2.1c0,.7,.3,1.5,.8,2c.6,.6,1.3,.9,2.1,.9Z" class="g3_231"/>
<path d="M224.6,834.8c.8,0,1.5,-.3,2.1,-.9c.5,-.5,.8,-1.3,.8,-2c0,-.8,-.3,-1.6,-.8,-2.1c-.6,-.6,-1.3,-.9,-2.1,-.9c-.8,0,-1.5,.3,-2.1,.9c-.5,.5,-.8,1.3,-.8,2.1c0,.7,.3,1.5,.8,2c.6,.6,1.3,.9,2.1,.9Z" class="g4_231"/>
<path d="M303.1,800.1c.8,0,1.5,-.3,2.1,-.9c.5,-.5,.8,-1.3,.8,-2.1c0,-.7,-.3,-1.5,-.8,-2c-.6,-.6,-1.3,-.9,-2.1,-.9c-.8,0,-1.6,.3,-2.1,.9c-.6,.5,-.9,1.3,-.9,2c0,.8,.3,1.6,.9,2.1c.5,.6,1.3,.9,2.1,.9Z" class="g3_231"/>
<path d="M303.1,800.1c.8,0,1.5,-.3,2.1,-.9c.5,-.5,.8,-1.3,.8,-2.1c0,-.7,-.3,-1.5,-.8,-2c-.6,-.6,-1.3,-.9,-2.1,-.9c-.8,0,-1.6,.3,-2.1,.9c-.6,.5,-.9,1.3,-.9,2c0,.8,.3,1.6,.9,2.1c.5,.6,1.3,.9,2.1,.9Z" class="g4_231"/>
<path d="M381.6,716.2c.7,0,1.5,-.3,2,-.8c.6,-.6,.9,-1.3,.9,-2.1c0,-.8,-.3,-1.5,-.9,-2.1c-.5,-.5,-1.3,-.8,-2,-.8c-.8,0,-1.6,.3,-2.1,.8c-.6,.6,-.9,1.3,-.9,2.1c0,.8,.3,1.5,.9,2.1c.5,.5,1.3,.8,2.1,.8Z" class="g3_231"/>
<path d="M381.6,716.2c.7,0,1.5,-.3,2,-.8c.6,-.6,.9,-1.3,.9,-2.1c0,-.8,-.3,-1.5,-.9,-2.1c-.5,-.5,-1.3,-.8,-2,-.8c-.8,0,-1.6,.3,-2.1,.8c-.6,.6,-.9,1.3,-.9,2.1c0,.8,.3,1.5,.9,2.1c.5,.5,1.3,.8,2.1,.8Z" class="g4_231"/>
<path d="M460,632.4c.8,0,1.6,-.3,2.1,-.9c.6,-.5,.9,-1.3,.9,-2c0,-.8,-.3,-1.6,-.9,-2.1c-.5,-.6,-1.3,-.9,-2.1,-.9c-.7,0,-1.5,.3,-2,.9c-.6,.5,-.9,1.3,-.9,2.1c0,.7,.3,1.5,.9,2c.5,.6,1.3,.9,2,.9Z" class="g3_231"/>
<path d="M460,632.4c.8,0,1.6,-.3,2.1,-.9c.6,-.5,.9,-1.3,.9,-2c0,-.8,-.3,-1.6,-.9,-2.1c-.5,-.6,-1.3,-.9,-2.1,-.9c-.7,0,-1.5,.3,-2,.9c-.6,.5,-.9,1.3,-.9,2.1c0,.7,.3,1.5,.9,2c.5,.6,1.3,.9,2,.9Z" class="g4_231"/>
<path d="M538.5,597.7c.8,0,1.5,-.3,2.1,-.9c.5,-.5,.9,-1.3,.9,-2.1c0,-.7,-.4,-1.5,-.9,-2c-.6,-.6,-1.3,-.9,-2.1,-.9c-.8,0,-1.5,.3,-2.1,.9c-.5,.5,-.8,1.3,-.8,2c0,.8,.3,1.6,.8,2.1c.6,.6,1.3,.9,2.1,.9Z" class="g3_231"/>
<path d="M538.5,597.7c.8,0,1.5,-.3,2.1,-.9c.5,-.5,.9,-1.3,.9,-2.1c0,-.7,-.4,-1.5,-.9,-2c-.6,-.6,-1.3,-.9,-2.1,-.9c-.8,0,-1.5,.3,-2.1,.9c-.5,.5,-.8,1.3,-.8,2c0,.8,.3,1.6,.8,2.1c.6,.6,1.3,.9,2.1,.9Z" class="g4_231"/>
<path d="M231.7,843.9V582.7" class="g5_231"/>
<path d="M231.7,843.9v3.5" class="g6_231"/>
<path d="M220.8,855.6h6.1v-.8h-6.1Z" class="g7_231"/>
<path d="M229.2,857.5h1.6V852l-1.7,.3v-.8l1.7,-.4h.9v6.4h1.6v.8h-4.1v-.8Z" class="g7_231"/>
<path d="M235.3,858.3h1v-1.2h-1Z" class="g7_231"/>
<path d="M238.4,851.1h3.8v.8h-2.9v1.8c.1,-.1,.3,-.1,.4,-.1c.2,0,.3,-.1,.4,-.1c.8,0,1.5,.3,1.9,.7c.5,.4,.7,1,.7,1.8c0,.7,-.2,1.3,-.7,1.8c-.5,.4,-1.1,.6,-2,.6c-.3,0,-.6,0,-.9,-.1c-.3,0,-.7,-.1,-1,-.2v-1c.3,.2,.6,.3,.9,.4c.3,.1,.6,.1,1,.1c.5,0,1,-.2,1.3,-.4c.3,-.3,.5,-.7,.5,-1.2c0,-.5,-.2,-.9,-.5,-1.2c-.3,-.3,-.8,-.4,-1.3,-.4c-.3,0,-.5,0,-.8,0c-.3,.1,-.5,.2,-.8,.3v-3.6Z" class="g7_231"/>
<path d="M281.6,843.9V582.7" class="g5_231"/>
<path d="M281.6,843.9v3.5" class="g6_231"/>
<path d="M270.8,855.6h6.1v-.8h-6.1Z" class="g7_231"/>
<path d="M279.2,857.5h1.5V852l-1.7,.3v-.8l1.7,-.4h1v6.4h1.6v.8h-4.1v-.8Z" class="g7_231"/>
<path d="M285.2,858.3h1.1v-1.2h-1.1Z" class="g7_231"/>
<path d="M290.4,851c.8,0,1.4,.3,1.9,.9c.4,.7,.6,1.6,.6,2.8c0,1.2,-.2,2.1,-.6,2.8c-.5,.6,-1.1,.9,-1.9,.9c-.8,0,-1.4,-.3,-1.8,-.9c-.4,-.7,-.6,-1.6,-.6,-2.8c0,-1.2,.2,-2.1,.6,-2.8c.4,-.6,1,-.9,1.8,-.9Zm0,.8c-.5,0,-.8,.2,-1.1,.7c-.2,.5,-.4,1.2,-.4,2.2c0,1,.2,1.7,.4,2.2c.3,.5,.6,.7,1.1,.7c.5,0,.9,-.2,1.2,-.7c.2,-.5,.3,-1.2,.3,-2.2c0,-1,-.1,-1.7,-.3,-2.2c-.3,-.5,-.7,-.7,-1.2,-.7Z" class="g7_231"/>
<path d="M331.6,843.9V582.7" class="g5_231"/>
<path d="M331.6,843.9v3.5" class="g6_231"/>
<path d="M320.7,855.6h6.2v-.8h-6.2Z" class="g7_231"/>
<path d="M331,851c.8,0,1.4,.3,1.9,.9c.4,.7,.6,1.6,.6,2.8c0,1.2,-.2,2.1,-.6,2.8c-.5,.6,-1.1,.9,-1.9,.9c-.8,0,-1.4,-.3,-1.8,-.9c-.4,-.7,-.6,-1.6,-.6,-2.8c0,-1.2,.2,-2.1,.6,-2.8c.4,-.6,1,-.9,1.8,-.9Zm0,.8c-.5,0,-.8,.2,-1.1,.7c-.3,.5,-.4,1.2,-.4,2.2c0,1,.1,1.7,.4,2.2c.3,.5,.6,.7,1.1,.7c.5,0,.9,-.2,1.2,-.7c.2,-.5,.3,-1.2,.3,-2.2c0,-1,-.1,-1.7,-.3,-2.2c-.3,-.5,-.7,-.7,-1.2,-.7Z" class="g7_231"/>
<path d="M335.2,858.3h1v-1.2h-1Z" class="g7_231"/>
<path d="M338.3,851.1h3.8v.8h-2.9v1.8c.2,-.1,.3,-.1,.4,-.1c.2,0,.3,-.1,.5,-.1c.8,0,1.4,.3,1.9,.7c.4,.4,.7,1,.7,1.8c0,.7,-.3,1.3,-.8,1.8c-.4,.4,-1.1,.6,-2,.6c-.3,0,-.6,0,-.9,-.1c-.3,0,-.6,-.1,-1,-.2v-1c.3,.2,.6,.3,.9,.4c.3,.1,.7,.1,1,.1c.5,0,1,-.2,1.3,-.4c.3,-.3,.5,-.7,.5,-1.2c0,-.5,-.2,-.9,-.5,-1.2c-.3,-.3,-.8,-.4,-1.3,-.4c-.3,0,-.5,0,-.8,0c-.2,.1,-.5,.2,-.8,.3v-3.6Z" class="g7_231"/>
<path d="M381.6,843.9V582.7" class="g5_231"/>
<path d="M381.6,843.9v3.5" class="g6_231"/>
<path d="M376.9,851c.8,0,1.4,.3,1.8,.9c.4,.7,.6,1.6,.6,2.8c0,1.2,-.2,2.1,-.6,2.8c-.4,.6,-1,.9,-1.8,.9c-.8,0,-1.4,-.3,-1.9,-.9c-.4,-.7,-.6,-1.6,-.6,-2.8c0,-1.2,.2,-2.1,.6,-2.8c.5,-.6,1.1,-.9,1.9,-.9Zm0,.8c-.5,0,-.9,.2,-1.2,.7c-.2,.5,-.3,1.2,-.3,2.2c0,1,.1,1.7,.3,2.2c.3,.5,.7,.7,1.2,.7c.5,0,.9,-.2,1.1,-.7c.3,-.5,.4,-1.2,.4,-2.2c0,-1,-.1,-1.7,-.4,-2.2c-.2,-.5,-.6,-.7,-1.1,-.7Z" class="g7_231"/>
<path d="M381,858.3h1.1v-1.2H381Z" class="g7_231"/>
<path d="M386.2,851c.8,0,1.5,.3,1.9,.9c.4,.7,.6,1.6,.6,2.8c0,1.2,-.2,2.1,-.6,2.8c-.4,.6,-1.1,.9,-1.9,.9c-.8,0,-1.4,-.3,-1.8,-.9c-.4,-.7,-.6,-1.6,-.6,-2.8c0,-1.2,.2,-2.1,.6,-2.8c.4,-.6,1,-.9,1.8,-.9Zm0,.8c-.5,0,-.8,.2,-1.1,.7c-.2,.5,-.4,1.2,-.4,2.2c0,1,.2,1.7,.4,2.2c.3,.5,.6,.7,1.1,.7c.5,0,.9,-.2,1.2,-.7c.2,-.5,.3,-1.2,.3,-2.2c0,-1,-.1,-1.7,-.3,-2.2c-.3,-.5,-.7,-.7,-1.2,-.7Z" class="g7_231"/>
<path d="M431.5,843.9V582.7" class="g5_231"/>
<path d="M431.5,843.9v3.5" class="g6_231"/>
<path d="M426.8,851c.8,0,1.4,.3,1.9,.9c.4,.7,.6,1.6,.6,2.8c0,1.2,-.2,2.1,-.6,2.8c-.5,.6,-1.1,.9,-1.9,.9c-.8,0,-1.4,-.3,-1.8,-.9c-.4,-.7,-.6,-1.6,-.6,-2.8c0,-1.2,.2,-2.1,.6,-2.8c.4,-.6,1,-.9,1.8,-.9Zm0,.8c-.5,0,-.8,.2,-1.1,.7c-.2,.5,-.4,1.2,-.4,2.2c0,1,.2,1.7,.4,2.2c.3,.5,.6,.7,1.1,.7c.5,0,.9,-.2,1.2,-.7c.2,-.5,.3,-1.2,.3,-2.2c0,-1,-.1,-1.7,-.3,-2.2c-.3,-.5,-.7,-.7,-1.2,-.7Z" class="g7_231"/>
<path d="M431,858.3h1v-1.2h-1Z" class="g7_231"/>
<path d="M434.1,851.1h3.8v.8H435v1.8c.2,-.1,.3,-.1,.4,-.1c.2,0,.3,-.1,.5,-.1c.8,0,1.4,.3,1.9,.7c.4,.4,.7,1,.7,1.8c0,.7,-.3,1.3,-.8,1.8c-.4,.4,-1.1,.6,-2,.6c-.3,0,-.6,0,-.9,-.1c-.3,0,-.6,-.1,-1,-.2v-1c.3,.2,.6,.3,.9,.4c.3,.1,.7,.1,1,.1c.6,0,1,-.2,1.3,-.4c.3,-.3,.5,-.7,.5,-1.2c0,-.5,-.2,-.9,-.5,-1.2c-.3,-.3,-.7,-.4,-1.3,-.4c-.3,0,-.5,0,-.8,0c-.2,.1,-.5,.2,-.8,.3v-3.6Z" class="g7_231"/>
<path d="M481.5,843.9V582.7" class="g5_231"/>
<path d="M481.5,843.9v3.5" class="g6_231"/>
<path d="M474.9,857.5h1.6V852l-1.7,.3v-.8l1.7,-.4h.9v6.4H479v.8h-4.1v-.8Z" class="g7_231"/>
<path d="M481,858.3h1v-1.2h-1Z" class="g7_231"/>
<path d="M486.2,851c.8,0,1.4,.3,1.8,.9c.4,.7,.6,1.6,.6,2.8c0,1.2,-.2,2.1,-.6,2.8c-.4,.6,-1,.9,-1.8,.9c-.8,0,-1.5,-.3,-1.9,-.9c-.4,-.7,-.6,-1.6,-.6,-2.8c0,-1.2,.2,-2.1,.6,-2.8c.4,-.6,1.1,-.9,1.9,-.9Zm0,.8c-.5,0,-.9,.2,-1.2,.7c-.2,.5,-.3,1.2,-.3,2.2c0,1,.1,1.7,.3,2.2c.3,.5,.7,.7,1.2,.7c.5,0,.8,-.2,1.1,-.7c.2,-.5,.4,-1.2,.4,-2.2c0,-1,-.2,-1.7,-.4,-2.2c-.3,-.5,-.6,-.7,-1.1,-.7Z" class="g7_231"/>
<path d="M531.4,843.9V582.7" class="g5_231"/>
<path d="M531.4,843.9v3.5" class="g6_231"/>
<path d="M524.9,857.5h1.5V852l-1.7,.3v-.8l1.7,-.4h1v6.4H529v.8h-4.1v-.8Z" class="g7_231"/>
<path d="M530.9,858.3h1v-1.2h-1Z" class="g7_231"/>
<path d="M534.1,851.1h3.8v.8h-3v1.8c.2,-.1,.3,-.1,.5,-.1c.1,0,.2,-.1,.4,-.1c.8,0,1.4,.3,1.9,.7c.5,.4,.7,1,.7,1.8c0,.7,-.3,1.3,-.7,1.8c-.5,.4,-1.2,.6,-2.1,.6c-.3,0,-.6,0,-.9,-.1c-.3,0,-.6,-.1,-.9,-.2v-1c.2,.2,.5,.3,.8,.4c.4,.1,.7,.1,1,.1c.6,0,1,-.2,1.3,-.4c.4,-.3,.5,-.7,.5,-1.2c0,-.5,-.1,-.9,-.5,-1.2c-.3,-.3,-.7,-.4,-1.3,-.4c-.2,0,-.5,0,-.8,0c-.2,.1,-.5,.2,-.7,.3v-3.6Z" class="g7_231"/>
<path d="M383.5,866.3l-1.9,2.6l2,2.8h-1L381,869.6l-1.5,2.1h-1.1l2.1,-2.8l-1.9,-2.6h1.1l1.4,1.9l1.4,-1.9h1Z" class="g7_231"/>
<path d="M205.7,831.9H556.4" class="g5_231"/>
<path d="M205.7,831.9h-3.4" class="g6_231"/>
<path d="M169.8,832.9H176v-.8h-6.2Z" class="g7_231"/>
<path d="M178.2,834.8h1.6v-5.5l-1.7,.4v-.9l1.7,-.4h1v6.4h1.6v.8h-4.2v-.8Z" class="g7_231"/>
<path d="M184.3,835.6h1v-1.2h-1Z" class="g7_231"/>
<path d="M189.5,828.3c.8,0,1.4,.3,1.8,1c.5,.6,.7,1.5,.7,2.7c0,1.2,-.2,2.1,-.7,2.8c-.4,.6,-1,.9,-1.8,.9c-.8,0,-1.4,-.3,-1.8,-.9c-.5,-.7,-.7,-1.6,-.7,-2.8c0,-1.2,.2,-2.1,.7,-2.7c.4,-.7,1,-1,1.8,-1Zm0,.8c-.5,0,-.9,.2,-1.1,.7c-.3,.5,-.4,1.2,-.4,2.2c0,1,.1,1.7,.4,2.2c.2,.5,.6,.8,1.1,.8c.5,0,.9,-.3,1.1,-.8c.3,-.5,.4,-1.2,.4,-2.2c0,-1,-.1,-1.7,-.4,-2.2c-.2,-.5,-.6,-.7,-1.1,-.7Z" class="g7_231"/>
<path d="M195.7,828.3c.9,0,1.5,.3,1.9,1c.4,.6,.6,1.5,.6,2.7c0,1.2,-.2,2.1,-.6,2.8c-.4,.6,-1,.9,-1.9,.9c-.8,0,-1.4,-.3,-1.8,-.9c-.4,-.7,-.6,-1.6,-.6,-2.8c0,-1.2,.2,-2.1,.6,-2.7c.4,-.7,1,-1,1.8,-1Zm0,.8c-.4,0,-.8,.2,-1.1,.7c-.2,.5,-.4,1.2,-.4,2.2c0,1,.2,1.7,.4,2.2c.3,.5,.7,.8,1.1,.8c.6,0,.9,-.3,1.2,-.8c.2,-.5,.4,-1.2,.4,-2.2c0,-1,-.2,-1.7,-.4,-2.2c-.3,-.5,-.6,-.7,-1.2,-.7Z" class="g7_231"/>
<path d="M205.7,802.2H556.4" class="g5_231"/>
<path d="M205.7,802.2h-3.4" class="g6_231"/>
<path d="M169.8,803.3H176v-.8h-6.2Z" class="g7_231"/>
<path d="M180.1,798.7c.8,0,1.5,.3,1.9,.9c.4,.7,.6,1.6,.6,2.8c0,1.2,-.2,2.1,-.6,2.7c-.4,.7,-1.1,1,-1.9,1c-.8,0,-1.4,-.3,-1.8,-1c-.4,-.6,-.6,-1.5,-.6,-2.7c0,-1.2,.2,-2.1,.6,-2.8c.4,-.6,1,-.9,1.8,-.9Zm0,.7c-.5,0,-.8,.3,-1.1,.8c-.2,.5,-.4,1.2,-.4,2.2c0,1,.2,1.7,.4,2.2c.3,.5,.6,.7,1.1,.7c.5,0,.9,-.2,1.2,-.7c.2,-.5,.3,-1.2,.3,-2.2c0,-1,-.1,-1.7,-.3,-2.2c-.3,-.5,-.7,-.8,-1.2,-.8Z" class="g7_231"/>
<path d="M184.3,806h1v-1.3h-1Z" class="g7_231"/>
<path d="M187.2,798.8h4.6v.4l-2.6,6.8h-1l2.4,-6.4h-3.4v-.8Z" class="g7_231"/>
<path d="M193.7,798.8h3.8v.8h-2.9v1.8c.1,-.1,.3,-.1,.4,-.1c.1,-.1,.3,-.1,.4,-.1c.8,0,1.4,.2,1.9,.7c.5,.4,.7,1,.7,1.8c0,.7,-.2,1.3,-.7,1.8c-.5,.4,-1.2,.6,-2,.6c-.3,0,-.6,0,-.9,-.1c-.4,0,-.7,-.1,-1,-.2v-1c.3,.2,.6,.3,.9,.4c.3,0,.6,.1,1,.1c.5,0,.9,-.2,1.3,-.5c.3,-.2,.4,-.6,.4,-1.1c0,-.5,-.1,-.9,-.4,-1.2c-.4,-.3,-.8,-.5,-1.3,-.5c-.3,0,-.6,.1,-.8,.1c-.3,.1,-.5,.2,-.8,.3v-3.6Z" class="g7_231"/>
<path d="M205.7,772.6H556.4" class="g5_231"/>
<path d="M205.7,772.6h-3.4" class="g6_231"/>
<path d="M169.8,773.6H176v-.8h-6.2Z" class="g7_231"/>
<path d="M180.1,769c.8,0,1.5,.3,1.9,1c.4,.6,.6,1.5,.6,2.7c0,1.2,-.2,2.2,-.6,2.8c-.4,.6,-1.1,1,-1.9,1c-.8,0,-1.4,-.4,-1.8,-1c-.4,-.6,-.6,-1.6,-.6,-2.8c0,-1.2,.2,-2.1,.6,-2.7c.4,-.7,1,-1,1.8,-1Zm0,.8c-.5,0,-.8,.2,-1.1,.7c-.2,.5,-.4,1.3,-.4,2.2c0,1,.2,1.8,.4,2.3c.3,.4,.6,.7,1.1,.7c.5,0,.9,-.3,1.2,-.7c.2,-.5,.3,-1.3,.3,-2.3c0,-.9,-.1,-1.7,-.3,-2.2c-.3,-.5,-.7,-.7,-1.2,-.7Z" class="g7_231"/>
<path d="M184.3,776.3h1v-1.2h-1Z" class="g7_231"/>
<path d="M187.4,769.2h3.8v.8h-2.9v1.7c.2,0,.3,-.1,.4,-.1c.2,0,.3,0,.5,0c.8,0,1.4,.2,1.9,.6c.4,.5,.7,1.1,.7,1.8c0,.8,-.3,1.4,-.7,1.8c-.5,.4,-1.2,.7,-2.1,.7c-.3,0,-.6,-.1,-.9,-.1c-.3,-.1,-.6,-.1,-1,-.3v-.9c.3,.1,.6,.2,.9,.3c.3,.1,.7,.1,1,.1c.6,0,1,-.1,1.3,-.4c.3,-.3,.5,-.7,.5,-1.2c0,-.5,-.2,-.9,-.5,-1.2c-.3,-.3,-.7,-.4,-1.3,-.4c-.3,0,-.5,0,-.8,.1c-.2,0,-.5,.1,-.8,.3v-3.6Z" class="g7_231"/>
<path d="M195.7,769c.9,0,1.5,.3,1.9,1c.4,.6,.6,1.5,.6,2.7c0,1.2,-.2,2.2,-.6,2.8c-.4,.6,-1,1,-1.9,1c-.8,0,-1.4,-.4,-1.8,-1c-.4,-.6,-.6,-1.6,-.6,-2.8c0,-1.2,.2,-2.1,.6,-2.7c.4,-.7,1,-1,1.8,-1Zm0,.8c-.4,0,-.8,.2,-1.1,.7c-.2,.5,-.4,1.3,-.4,2.2c0,1,.2,1.8,.4,2.3c.3,.4,.7,.7,1.1,.7c.6,0,.9,-.3,1.2,-.7c.2,-.5,.4,-1.3,.4,-2.3c0,-.9,-.2,-1.7,-.4,-2.2c-.3,-.5,-.6,-.7,-1.2,-.7Z" class="g7_231"/>
<path d="M205.7,742.9H556.4" class="g5_231"/>
<path d="M205.7,742.9h-3.4" class="g6_231"/>
<path d="M169.8,744H176v-.8h-6.2Z" class="g7_231"/>
<path d="M180.1,739.4c.8,0,1.5,.3,1.9,.9c.4,.7,.6,1.6,.6,2.8c0,1.2,-.2,2.1,-.6,2.8c-.4,.6,-1.1,.9,-1.9,.9c-.8,0,-1.4,-.3,-1.8,-.9c-.4,-.7,-.6,-1.6,-.6,-2.8c0,-1.2,.2,-2.1,.6,-2.8c.4,-.6,1,-.9,1.8,-.9Zm0,.8c-.5,0,-.8,.2,-1.1,.7c-.2,.5,-.4,1.2,-.4,2.2c0,1,.2,1.7,.4,2.2c.3,.5,.6,.7,1.1,.7c.5,0,.9,-.2,1.2,-.7c.2,-.5,.3,-1.2,.3,-2.2c0,-1,-.1,-1.7,-.3,-2.2c-.3,-.5,-.7,-.7,-1.2,-.7Z" class="g7_231"/>
<path d="M184.3,746.7h1v-1.2h-1Z" class="g7_231"/>
<path d="M188.3,745.9h3.3v.8h-4.5v-.8c.4,-.4,.9,-.9,1.5,-1.6c.6,-.6,1,-1,1.2,-1.2c.3,-.4,.5,-.7,.6,-.9c.2,-.2,.2,-.5,.2,-.7c0,-.4,-.1,-.7,-.4,-.9c-.2,-.3,-.6,-.4,-1,-.4c-.3,0,-.6,.1,-1,.2c-.3,.1,-.7,.2,-1.1,.4v-.9c.4,-.2,.8,-.3,1.1,-.4c.4,-.1,.7,-.1,1,-.1c.7,0,1.3,.2,1.7,.5c.5,.4,.7,.9,.7,1.5c0,.3,0,.6,-.2,.9c-.1,.2,-.3,.5,-.6,.9c0,.1,-.3,.4,-.7,.8c-.5,.4,-1.1,1.1,-1.8,1.9Z" class="g7_231"/>
<path d="M193.7,739.5h3.8v.8h-2.9v1.8c.1,-.1,.3,-.1,.4,-.1c.1,0,.3,-.1,.4,-.1c.8,0,1.4,.3,1.9,.7c.5,.4,.7,1,.7,1.8c0,.7,-.2,1.3,-.7,1.8c-.5,.4,-1.2,.6,-2,.6c-.3,0,-.6,0,-.9,-.1c-.4,0,-.7,-.1,-1,-.2v-1c.3,.2,.6,.3,.9,.4c.3,.1,.6,.1,1,.1c.5,0,.9,-.1,1.3,-.4c.3,-.3,.4,-.7,.4,-1.2c0,-.5,-.1,-.9,-.4,-1.2c-.4,-.3,-.8,-.4,-1.3,-.4c-.3,0,-.6,0,-.8,0c-.3,.1,-.5,.2,-.8,.3v-3.6Z" class="g7_231"/>
<path d="M205.7,713.3H556.4" class="g5_231"/>
<path d="M205.7,713.3h-3.4" class="g6_231"/>
<path d="M180.1,709.7c.8,0,1.5,.4,1.9,1c.4,.6,.6,1.6,.6,2.8c0,1.2,-.2,2.1,-.6,2.7c-.4,.7,-1.1,1,-1.9,1c-.8,0,-1.4,-.3,-1.8,-1c-.4,-.6,-.6,-1.5,-.6,-2.7c0,-1.2,.2,-2.2,.6,-2.8c.4,-.6,1,-1,1.8,-1Zm0,.8c-.5,0,-.8,.3,-1.1,.7c-.2,.5,-.4,1.3,-.4,2.3c0,.9,.2,1.7,.4,2.2c.3,.5,.6,.7,1.1,.7c.5,0,.9,-.2,1.2,-.7c.2,-.5,.3,-1.3,.3,-2.2c0,-1,-.1,-1.8,-.3,-2.3c-.3,-.4,-.7,-.7,-1.2,-.7Z" class="g7_231"/>
<path d="M184.3,717h1v-1.2h-1Z" class="g7_231"/>
<path d="M189.5,709.7c.8,0,1.4,.4,1.8,1c.5,.6,.7,1.6,.7,2.8c0,1.2,-.2,2.1,-.7,2.7c-.4,.7,-1,1,-1.8,1c-.8,0,-1.4,-.3,-1.8,-1c-.5,-.6,-.7,-1.5,-.7,-2.7c0,-1.2,.2,-2.2,.7,-2.8c.4,-.6,1,-1,1.8,-1Zm0,.8c-.5,0,-.9,.3,-1.1,.7c-.3,.5,-.4,1.3,-.4,2.3c0,.9,.1,1.7,.4,2.2c.2,.5,.6,.7,1.1,.7c.5,0,.9,-.2,1.1,-.7c.3,-.5,.4,-1.3,.4,-2.2c0,-1,-.1,-1.8,-.4,-2.3c-.2,-.4,-.6,-.7,-1.1,-.7Z" class="g7_231"/>
<path d="M195.7,709.7c.9,0,1.5,.4,1.9,1c.4,.6,.6,1.6,.6,2.8c0,1.2,-.2,2.1,-.6,2.7c-.4,.7,-1,1,-1.9,1c-.8,0,-1.4,-.3,-1.8,-1c-.4,-.6,-.6,-1.5,-.6,-2.7c0,-1.2,.2,-2.2,.6,-2.8c.4,-.6,1,-1,1.8,-1Zm0,.8c-.4,0,-.8,.3,-1.1,.7c-.2,.5,-.4,1.3,-.4,2.3c0,.9,.2,1.7,.4,2.2c.3,.5,.7,.7,1.1,.7c.6,0,.9,-.2,1.2,-.7c.2,-.5,.4,-1.3,.4,-2.2c0,-1,-.2,-1.8,-.4,-2.3c-.3,-.4,-.6,-.7,-1.2,-.7Z" class="g7_231"/>
<path d="M205.7,683.7H556.4" class="g5_231"/>
<path d="M205.7,683.7h-3.4" class="g6_231"/>
<path d="M180.1,680.1c.8,0,1.5,.3,1.9,1c.4,.6,.6,1.5,.6,2.7c0,1.2,-.2,2.1,-.6,2.8c-.4,.6,-1.1,.9,-1.9,.9c-.8,0,-1.4,-.3,-1.8,-.9c-.4,-.7,-.6,-1.6,-.6,-2.8c0,-1.2,.2,-2.1,.6,-2.7c.4,-.7,1,-1,1.8,-1Zm0,.8c-.5,0,-.8,.2,-1.1,.7c-.2,.5,-.4,1.2,-.4,2.2c0,1,.2,1.7,.4,2.2c.3,.5,.6,.8,1.1,.8c.5,0,.9,-.3,1.2,-.8c.2,-.5,.3,-1.2,.3,-2.2c0,-1,-.1,-1.7,-.3,-2.2c-.3,-.5,-.7,-.7,-1.2,-.7Z" class="g7_231"/>
<path d="M184.3,687.4h1v-1.2h-1Z" class="g7_231"/>
<path d="M188.3,686.6h3.3v.8h-4.5v-.8c.4,-.4,.9,-.9,1.5,-1.6c.6,-.6,1,-1,1.2,-1.2c.3,-.3,.5,-.6,.6,-.9c.2,-.2,.2,-.5,.2,-.7c0,-.4,-.1,-.7,-.4,-.9c-.2,-.3,-.6,-.4,-1,-.4c-.3,0,-.6,.1,-1,.2c-.3,.1,-.7,.2,-1.1,.5v-1c.4,-.2,.8,-.3,1.1,-.4c.4,-.1,.7,-.1,1,-.1c.7,0,1.3,.2,1.7,.6c.5,.3,.7,.8,.7,1.4c0,.3,0,.6,-.2,.9c-.1,.2,-.3,.6,-.6,.9c0,.1,-.3,.4,-.7,.8c-.4,.5,-1.1,1.1,-1.8,1.9Z" class="g7_231"/>
<path d="M193.7,680.2h3.8v.9h-2.9v1.7c.1,0,.3,-.1,.4,-.1c.1,0,.3,0,.4,0c.8,0,1.5,.2,1.9,.6c.5,.5,.7,1,.7,1.8c0,.8,-.2,1.4,-.7,1.8c-.5,.4,-1.2,.6,-2,.6c-.3,0,-.6,0,-.9,0c-.4,-.1,-.7,-.2,-1,-.3v-.9c.3,.1,.6,.2,.9,.3c.3,.1,.6,.1,1,.1c.5,0,.9,-.1,1.3,-.4c.3,-.3,.4,-.7,.4,-1.2c0,-.5,-.1,-.9,-.4,-1.2c-.4,-.3,-.8,-.4,-1.3,-.4c-.3,0,-.6,0,-.8,.1c-.3,0,-.5,.1,-.8,.2v-3.6Z" class="g7_231"/>
<path d="M205.7,654H556.4" class="g5_231"/>
<path d="M205.7,654h-3.4" class="g6_231"/>
<path d="M180.1,650.5c.8,0,1.5,.3,1.9,.9c.4,.7,.6,1.6,.6,2.8c0,1.2,-.2,2.1,-.6,2.7c-.4,.7,-1.1,1,-1.9,1c-.8,0,-1.4,-.3,-1.8,-1c-.4,-.6,-.6,-1.5,-.6,-2.7c0,-1.2,.2,-2.1,.6,-2.8c.4,-.6,1,-.9,1.8,-.9Zm0,.7c-.5,0,-.8,.3,-1.1,.8c-.2,.5,-.4,1.2,-.4,2.2c0,1,.2,1.7,.4,2.2c.3,.5,.6,.7,1.1,.7c.5,0,.9,-.2,1.2,-.7c.2,-.5,.3,-1.2,.3,-2.2c0,-1,-.1,-1.7,-.3,-2.2c-.3,-.5,-.7,-.8,-1.2,-.8Z" class="g7_231"/>
<path d="M184.3,657.8h1v-1.3h-1Z" class="g7_231"/>
<path d="M187.4,650.6h3.8v.8h-2.9v1.8c.2,-.1,.3,-.1,.5,-.1c.1,-.1,.2,-.1,.4,-.1c.8,0,1.4,.2,1.9,.7c.4,.4,.7,1,.7,1.8c0,.7,-.3,1.3,-.7,1.8c-.5,.4,-1.2,.6,-2.1,.6c-.3,0,-.6,0,-.9,-.1c-.3,0,-.6,-.1,-1,-.2v-1c.3,.2,.6,.3,.9,.4c.3,0,.7,.1,1,.1c.6,0,1,-.2,1.3,-.5c.3,-.2,.5,-.6,.5,-1.1c0,-.5,-.2,-.9,-.5,-1.2c-.3,-.3,-.7,-.5,-1.3,-.5c-.3,0,-.5,.1,-.8,.1c-.2,.1,-.5,.2,-.8,.3v-3.6Z" class="g7_231"/>
<path d="M195.7,650.5c.9,0,1.5,.3,1.9,.9c.4,.7,.6,1.6,.6,2.8c0,1.2,-.2,2.1,-.6,2.7c-.4,.7,-1,1,-1.9,1c-.8,0,-1.4,-.3,-1.8,-1c-.4,-.6,-.6,-1.5,-.6,-2.7c0,-1.2,.2,-2.1,.6,-2.8c.4,-.6,1,-.9,1.8,-.9Zm0,.7c-.4,0,-.8,.3,-1.1,.8c-.2,.5,-.4,1.2,-.4,2.2c0,1,.2,1.7,.4,2.2c.3,.5,.7,.7,1.1,.7c.6,0,.9,-.2,1.2,-.7c.2,-.5,.4,-1.2,.4,-2.2c0,-1,-.2,-1.7,-.4,-2.2c-.3,-.5,-.6,-.8,-1.2,-.8Z" class="g7_231"/>
<path d="M205.7,624.4H556.4" class="g5_231"/>
<path d="M205.7,624.4h-3.4" class="g6_231"/>
<path d="M180.1,620.8c.8,0,1.5,.3,1.9,1c.4,.6,.6,1.5,.6,2.7c0,1.2,-.2,2.2,-.6,2.8c-.4,.6,-1.1,1,-1.9,1c-.8,0,-1.4,-.4,-1.8,-1c-.4,-.6,-.6,-1.6,-.6,-2.8c0,-1.2,.2,-2.1,.6,-2.7c.4,-.7,1,-1,1.8,-1Zm0,.8c-.5,0,-.8,.2,-1.1,.7c-.2,.5,-.4,1.3,-.4,2.2c0,1,.2,1.8,.4,2.2c.3,.5,.6,.8,1.1,.8c.5,0,.9,-.3,1.2,-.8c.2,-.4,.3,-1.2,.3,-2.2c0,-.9,-.1,-1.7,-.3,-2.2c-.3,-.5,-.7,-.7,-1.2,-.7Z" class="g7_231"/>
<path d="M184.3,628.1h1v-1.2h-1Z" class="g7_231"/>
<path d="M187.2,621h4.6v.4l-2.6,6.7h-1l2.4,-6.3h-3.4V621Z" class="g7_231"/>
<path d="M193.7,621h3.8v.8h-2.9v1.7c.1,0,.3,-.1,.4,-.1c.1,0,.3,0,.4,0c.8,0,1.5,.2,1.9,.6c.5,.5,.7,1.1,.7,1.8c0,.8,-.2,1.4,-.7,1.8c-.5,.4,-1.2,.7,-2,.7c-.3,0,-.6,-.1,-.9,-.1c-.4,-.1,-.7,-.2,-1,-.3V627c.3,.1,.6,.2,.9,.3c.3,.1,.6,.1,1,.1c.5,0,.9,-.1,1.3,-.4c.3,-.3,.4,-.7,.4,-1.2c0,-.5,-.1,-.9,-.4,-1.2c-.4,-.3,-.8,-.4,-1.3,-.4c-.3,0,-.6,0,-.8,.1c-.3,0,-.5,.1,-.8,.3V621Z" class="g7_231"/>
<path d="M205.7,594.7H556.4" class="g5_231"/>
<path d="M205.7,594.7h-3.4" class="g6_231"/>
<path d="M178.2,597.7h1.6v-5.5l-1.7,.3v-.8l1.7,-.4h1v6.4h1.6v.8h-4.2v-.8Z" class="g7_231"/>
<path d="M184.3,598.5h1v-1.2h-1Z" class="g7_231"/>
<path d="M189.5,591.2c.8,0,1.4,.3,1.8,.9c.5,.7,.7,1.6,.7,2.8c0,1.2,-.2,2.1,-.7,2.8c-.4,.6,-1,.9,-1.8,.9c-.8,0,-1.4,-.3,-1.8,-.9c-.5,-.7,-.7,-1.6,-.7,-2.8c0,-1.2,.2,-2.1,.7,-2.8c.4,-.6,1,-.9,1.8,-.9Zm0,.8c-.5,0,-.9,.2,-1.1,.7c-.3,.5,-.4,1.2,-.4,2.2c0,1,.1,1.7,.4,2.2c.2,.5,.6,.7,1.1,.7c.5,0,.9,-.2,1.1,-.7c.3,-.5,.4,-1.2,.4,-2.2c0,-1,-.1,-1.7,-.4,-2.2c-.2,-.5,-.6,-.7,-1.1,-.7Z" class="g7_231"/>
<path d="M195.7,591.2c.9,0,1.5,.3,1.9,.9c.4,.7,.6,1.6,.6,2.8c0,1.2,-.2,2.1,-.6,2.8c-.4,.6,-1,.9,-1.9,.9c-.8,0,-1.4,-.3,-1.8,-.9c-.4,-.7,-.6,-1.6,-.6,-2.8c0,-1.2,.2,-2.1,.6,-2.8c.4,-.6,1,-.9,1.8,-.9Zm0,.8c-.4,0,-.8,.2,-1.1,.7c-.2,.5,-.4,1.2,-.4,2.2c0,1,.2,1.7,.4,2.2c.3,.5,.7,.7,1.1,.7c.6,0,.9,-.2,1.2,-.7c.2,-.5,.4,-1.2,.4,-2.2c0,-1,-.2,-1.7,-.4,-2.2c-.3,-.5,-.6,-.7,-1.2,-.7Z" class="g7_231"/>
<path d="M163.3,713.1c.7,.2,1.1,.4,1.3,.7c.2,.2,.3,.5,.3,.9v.7h-.8v-.5c0,-.2,0,-.4,-.2,-.5c-.1,-.2,-.3,-.3,-.8,-.5l-.4,-.2l-5.3,2.2V715l4.2,-1.7l-4.2,-1.7v-.9l5.9,2.4Z" class="g7_231"/>
<path d="M221.7,831.8l4,.1C340.8,829.1,421.4,599,536.4,594.8h4" class="g8_231"/>
<path d="M221.7,831.6l4,.3l4,.2c44.5,.1,88.6,-47.7,115.9,-77.4l10,-11.2l12,-13.8l44.9,-52.2c19.2,-21.4,39.7,-43.3,63,-60.3l5,-3.5l5,-3.2c13,-8.1,27.5,-14.6,42.9,-15.8l4,-.1h4l4,.3" class="g9_231"/>
<path d="M205.7,843.9V582.7M556.4,843.9V582.7M205.7,843.9H556.4M205.7,582.7H556.4" class="ga_231"/>
<path d="M374.6,568.5v1.1c-.4,-.2,-.8,-.4,-1.2,-.5c-.4,-.1,-.8,-.1,-1.2,-.1c-.6,0,-1.1,.1,-1.4,.3c-.4,.3,-.5,.6,-.5,1.1c0,.4,.1,.7,.3,.9c.2,.1,.7,.3,1.3,.4l.7,.2c.9,.1,1.5,.4,1.9,.8c.4,.5,.6,1,.6,1.7c0,.8,-.2,1.5,-.8,1.9c-.5,.4,-1.4,.6,-2.4,.6c-.4,0,-.9,0,-1.3,-.1c-.5,-.1,-1,-.2,-1.5,-.4v-1.2c.5,.3,1,.5,1.4,.6c.5,.1,.9,.2,1.4,.2c.6,0,1.1,-.1,1.5,-.4c.4,-.3,.5,-.6,.5,-1.1c0,-.4,-.1,-.8,-.4,-1c-.2,-.2,-.6,-.4,-1.2,-.5l-.7,-.2c-.9,-.1,-1.5,-.4,-1.9,-.8c-.4,-.3,-.6,-.9,-.6,-1.5c0,-.8,.3,-1.4,.8,-1.8c.5,-.4,1.3,-.7,2.2,-.7c.4,0,.8,.1,1.2,.1c.5,.1,.9,.2,1.3,.4Z" class="g7_231"/>
<path d="M376.9,567.8H378v1.4h-1.1Zm0,2.5H378v6.5h-1.1Z" class="g7_231"/>
<path d="M385.5,572.9v3.9h-1v-3.9c0,-.6,-.1,-1,-.4,-1.3c-.2,-.3,-.6,-.5,-1,-.5c-.6,0,-1.1,.2,-1.4,.5c-.3,.4,-.5,.9,-.5,1.5v3.7h-1.1v-6.5h1.1v1c.3,-.4,.6,-.6,.9,-.8c.3,-.2,.7,-.3,1.2,-.3c.7,0,1.3,.2,1.7,.7c.4,.4,.5,1.1,.5,2Z" class="g7_231"/>
<path d="M392.1,573c0,-.6,-.2,-1.1,-.5,-1.4c-.3,-.4,-.7,-.5,-1.2,-.5c-.6,0,-1.1,.1,-1.5,.5c-.3,.3,-.5,.8,-.6,1.4h3.8Zm1.1,.3v.5h-4.9c0,.7,.3,1.3,.7,1.7c.4,.4,.9,.5,1.6,.5c.4,0,.8,0,1.2,-.1c.4,-.1,.7,-.3,1.1,-.5v1.1c-.4,.1,-.8,.2,-1.2,.3c-.3,.1,-.8,.1,-1.2,.1c-1,0,-1.8,-.3,-2.4,-.9c-.6,-.6,-.9,-1.4,-.9,-2.4c0,-1,.3,-1.9,.8,-2.5c.6,-.6,1.4,-.9,2.4,-.9c.8,0,1.5,.3,2,.8c.5,.6,.8,1.3,.8,2.3Z" class="g7_231"/>
</svg>