<?xml version="1.0" encoding="UTF-8" standalone="no"?>
<!DOCTYPE svg PUBLIC "-//W3C//DTD SVG 1.1//EN"
"http://www.w3.org/Graphics/SVG/1.1/DTD/svg11.dtd">
<svg viewBox="0 0 811 1017" version="1.1" xmlns="http://www.w3.org/2000/svg" xmlns:xlink="http://www.w3.org/1999/xlink">
<defs>
<style type="text/css"><![CDATA[
.g0_91{
fill: #0E0E0E;
}
]]></style>
</defs>
<path d="M359.7,144.5c0,0,-.1,-.1,-.1,-.1c0,0,-.1,0,-.1,.1c-4.8,5.3,-5.3,19.2,-5.3,20.7v.7h1.4v-.7c0,-1.2,.8,-14.9,4,-20.3c0,-.2,.1,-.3,.1,-.4Z" class="g0_91"/>
<path d="M354.2,175.2h1.4v-9.6h-1.4Z" class="g0_91"/>
<path d="M359.7,196.3c0,-.1,-.1,-.2,-.1,-.4c-3.2,-5.4,-4,-19.1,-4,-20.3v-.7h-1.4v.7c0,1.6,.5,15.4,5.3,20.8c0,0,.1,0,.1,0c0,0,.1,0,.1,-.1Z" class="g0_91"/>
<path d="M364.7,149.6c-.5,0,-.9,.1,-1.3,.4c-.5,.3,-.9,.7,-1.3,1.2c-.6,.7,-1.2,1.9,-1.2,3.2c0,1,.3,1.8,1.3,1.8c1.3,0,1.8,-.9,2.2,-1.6c-.2,.9,-.1,1.6,.5,1.6c.4,0,.8,-.2,1.2,-.5c.3,-.3,.7,-.8,1,-1.4l-.1,-.1c-.3,.4,-1,1.3,-1.4,1.3c-.2,0,-.3,-.3,-.3,-.5c0,-.9,.7,-2.5,1,-3.5l.7,-1.8h-1l-.3,.7c-.1,-.5,-.4,-.8,-1,-.8Zm.1,.3c.7,0,.5,1.3,.4,1.8c0,.3,-.1,.7,-.3,1c-.3,1.2,-1.4,3.1,-2.2,3.1c-.6,0,-.8,-.9,-.8,-1.4c0,-.5,0,-.9,.2,-1.4c.4,-1,1.4,-3.1,2.7,-3.1Z" class="g0_91"/>
<path d="M369.1,151.3v.2c.3,0,.8,0,.9,.1c.3,.2,.3,.3,.3,.8v4.7c0,.2,0,.4,0,.6c-.1,.5,-.7,.5,-1.2,.6v.1h3.4v-.1c-.3,-.1,-.9,-.1,-1,-.3c-.2,-.2,-.2,-.5,-.2,-1v-6.2c-.6,.3,-1.5,.5,-2.2,.5Z" class="g0_91"/>
<path d="M396.5,155.9c-1.9,0,-1.9,-2.7,-1.9,-4.9c0,-2.2,0,-5.1,1.9,-5.1c1.9,0,1.9,2.9,1.9,5.1c0,2.2,0,4.9,-1.9,4.9Zm0,-10.3c-2.6,0,-3.4,2.7,-3.4,5.4c0,2.6,.9,5.2,3.4,5.2c2.6,0,3.4,-2.6,3.4,-5.2c0,-2.7,-.8,-5.4,-3.4,-5.4Z" class="g0_91"/>
<path d="M425.7,155.9c-1.9,0,-1.9,-2.7,-1.9,-4.9c0,-2.2,0,-5.1,1.9,-5.1c2,0,2,2.9,2,5.1c0,2.2,-.1,4.9,-2,4.9Zm0,-10.3c-2.6,0,-3.3,2.7,-3.3,5.4c0,2.6,.8,5.2,3.3,5.2c2.6,0,3.4,-2.6,3.4,-5.2c0,-2.7,-.8,-5.4,-3.4,-5.4Z" class="g0_91"/>
<path d="M367.3,173.8c-1.9,0,-1.9,-2.7,-1.9,-4.9c0,-2.2,0,-5.1,1.9,-5.1c1.9,0,1.9,2.9,1.9,5.1c0,2.2,0,4.9,-1.9,4.9Zm0,-10.3c-2.6,0,-3.4,2.7,-3.4,5.4c0,2.6,.8,5.2,3.4,5.2c2.6,0,3.4,-2.6,3.4,-5.2c0,-2.7,-.8,-5.4,-3.4,-5.4Z" class="g0_91"/>
<path d="M393.9,167.5c-.4,0,-.9,.1,-1.3,.4c-.5,.3,-.9,.7,-1.3,1.2c-.6,.7,-1.2,1.9,-1.2,3.2c0,1,.4,1.8,1.3,1.8c1.3,0,1.8,-.9,2.2,-1.6c-.2,.9,-.1,1.6,.6,1.6c.3,0,.7,-.2,1.1,-.5c.4,-.3,.7,-.8,1.1,-1.4l-.2,-.1c-.3,.4,-.9,1.3,-1.3,1.3c-.3,0,-.3,-.3,-.3,-.5c0,-.9,.6,-2.5,.9,-3.5l.7,-1.8h-1l-.2,.7c-.2,-.5,-.5,-.8,-1.1,-.8Zm.1,.3c.7,0,.6,1.3,.5,1.8c-.1,.3,-.2,.7,-.3,1c-.4,1.2,-1.5,3.1,-2.3,3.1c-.6,0,-.8,-.9,-.8,-1.4c0,-.5,.1,-.9,.2,-1.4c.4,-1,1.5,-3.1,2.7,-3.1Z" class="g0_91"/>
<path d="M399.5,171.6c-.7,0,-1.1,-.4,-1.1,-1.1c0,-.8,.4,-1.6,1.3,-1.6c1.2,0,1.3,.9,1.3,1.9c0,.9,-.2,1.4,-.7,2.1c-.3,.4,-.6,.8,-1.1,1.3c-.5,.5,-1.1,1.1,-1.9,1.8v.3h4.6l.4,-2.1H402c-.1,.3,-.2,.4,-.3,.6c-.1,.4,-.4,.6,-1,.6h-2.1v-.1c.5,-.3,1,-.7,1.4,-1.1c.7,-.6,1.5,-1.3,1.9,-2.2c.2,-.4,.3,-.8,.3,-1.2c0,-.3,0,-.6,-.2,-.9c-.3,-.7,-1,-1.2,-2.1,-1.2c-.7,0,-1.4,.2,-1.8,.5c-.4,.4,-.7,.9,-.7,1.5c0,.5,.2,.8,.4,1.1c.2,.2,.5,.4,.9,.4c.4,0,.7,-.2,.8,-.6Z" class="g0_91"/>
<path d="M425.7,173.8c-1.9,0,-1.9,-2.7,-1.9,-4.9c0,-2.2,0,-5.1,1.9,-5.1c2,0,2,2.9,2,5.1c0,2.2,-.1,4.9,-2,4.9Zm0,-10.3c-2.6,0,-3.3,2.7,-3.3,5.4c0,2.6,.8,5.2,3.3,5.2c2.6,0,3.4,-2.6,3.4,-5.2c0,-2.7,-.8,-5.4,-3.4,-5.4Z" class="g0_91"/>
<path d="M367.3,191.7c-1.9,0,-1.9,-2.7,-1.9,-4.9c0,-2.2,0,-5.1,1.9,-5.1c1.9,0,1.9,2.9,1.9,5.1c0,2.2,0,4.9,-1.9,4.9Zm0,-10.3c-2.6,0,-3.4,2.7,-3.4,5.4c0,2.6,.8,5.2,3.4,5.2c2.6,0,3.4,-2.6,3.4,-5.2c0,-2.7,-.8,-5.4,-3.4,-5.4Z" class="g0_91"/>
<path d="M396.5,191.7c-1.9,0,-1.9,-2.7,-1.9,-4.9c0,-2.2,0,-5.1,1.9,-5.1c1.9,0,1.9,2.9,1.9,5.1c0,2.2,0,4.9,-1.9,4.9Zm0,-10.3c-2.6,0,-3.4,2.7,-3.4,5.4c0,2.6,.9,5.2,3.4,5.2c2.6,0,3.4,-2.6,3.4,-5.2c0,-2.7,-.8,-5.4,-3.4,-5.4Z" class="g0_91"/>
<path d="M423.1,185.4c-.4,0,-.9,.1,-1.3,.4c-.4,.3,-.9,.7,-1.2,1.2c-.7,.7,-1.3,1.9,-1.3,3.2c0,1,.4,1.8,1.3,1.8c1.3,0,1.8,-.9,2.2,-1.6c-.2,.9,-.1,1.6,.6,1.6c.3,0,.7,-.2,1.1,-.5c.4,-.3,.8,-.8,1.1,-1.4l-.2,-.1c-.3,.4,-.9,1.3,-1.3,1.3c-.2,0,-.3,-.3,-.3,-.5c0,-.9,.6,-2.5,.9,-3.5l.7,-1.8h-1l-.2,.7c-.2,-.5,-.5,-.8,-1.1,-.8Zm.1,.3c.7,0,.6,1.3,.5,1.8c-.1,.3,-.2,.7,-.3,1c-.4,1.2,-1.5,3.1,-2.3,3.1c-.6,0,-.7,-.9,-.7,-1.4c0,-.5,0,-.9,.1,-1.4c.4,-1,1.5,-3.1,2.7,-3.1Z" class="g0_91"/>
<path d="M428.9,194.1c-.7,0,-1.3,-.7,-1.3,-1.4c0,-.5,.3,-.9,.9,-.9c-.1,-.3,-.4,-.5,-.8,-.5c-.1,0,-.3,.1,-.4,.1c-.4,.2,-.7,.6,-.7,1.2c0,.2,0,.4,.2,.7c.3,.6,1.1,1,2.1,1c.8,0,1.4,-.2,1.9,-.6c.4,-.3,.7,-.8,.7,-1.5c0,-.3,0,-.5,-.1,-.7c-.3,-.7,-.9,-1.1,-1.6,-1.3v-.1c.4,-.1,.8,-.3,1.1,-.6c.2,-.3,.4,-.7,.4,-1.2c0,-.2,-.1,-.5,-.2,-.7c-.3,-.7,-1.1,-1,-2.1,-1c-.7,0,-1.2,.1,-1.6,.3c-.3,.3,-.5,.6,-.5,1c0,.4,.1,.6,.3,.8c.1,.2,.3,.3,.7,.3c.1,0,.3,0,.4,-.1c.1,-.1,.2,-.2,.2,-.3c-.4,0,-.7,-.3,-.7,-.7c0,-.6,.5,-1.1,1.2,-1.1c.7,0,1.1,.7,1.1,1.6c0,.9,-.2,1.7,-1,1.7c-.2,0,-.4,-.1,-.6,-.1c-.3,0,-.6,.1,-.6,.2c0,.3,.3,.4,.6,.4c.2,0,.5,-.2,.6,-.2c.9,0,1.2,.8,1.2,1.7c0,1,-.4,2,-1.4,2Z" class="g0_91"/>
<path d="M433.3,144.5c0,.1,.1,.2,.2,.4c3.2,5.4,3.9,19.1,3.9,20.3v.7h1.4v-.7c0,-1.5,-.5,-15.4,-5.3,-20.7q0,-.1,-.1,-.1c0,0,-.1,.1,-.1,.1Z" class="g0_91"/>
<path d="M437.4,175.2h1.4v-9.6h-1.4Z" class="g0_91"/>
<path d="M433.3,196.3c0,.1,.1,.1,.1,.1q.1,0,.1,0c4.8,-5.4,5.3,-19.2,5.3,-20.8v-.7h-1.4v.7c0,1.2,-.7,14.9,-3.9,20.3c-.1,.2,-.2,.3,-.2,.4Z" class="g0_91"/>
<path d="M451.5,173.7l-3.3,-3.3l3.3,-3.3l-.5,-.6l-3.3,3.3l-3.3,-3.3l-.6,.6l3.3,3.3l-3.3,3.3l.6,.6l3.3,-3.3l3.3,3.3l.5,-.6Z" class="g0_91"/>
<path d="M462,144.5c0,0,-.1,-.1,-.1,-.1c0,0,-.1,0,-.1,.1c-4.8,5.3,-5.3,19.2,-5.3,20.7v.7h1.4v-.7c0,-1.2,.8,-14.9,3.9,-20.3c.1,-.2,.2,-.3,.2,-.4Z" class="g0_91"/>
<path d="M456.5,175.2h1.4v-9.6h-1.4Z" class="g0_91"/>
<path d="M462,196.3c0,-.1,-.1,-.2,-.2,-.4c-3.1,-5.4,-3.9,-19.1,-3.9,-20.3v-.7h-1.4v.7c0,1.6,.5,15.4,5.3,20.8c0,0,.1,0,.1,0c0,0,.1,0,.1,-.1Z" class="g0_91"/>
<path d="M469.6,150.5c0,-.5,-.4,-.9,-1,-.9c-.3,0,-.6,.1,-.9,.3c-.3,.2,-.6,.5,-.9,.9c0,-.7,-.4,-1.2,-1,-1.2c-1.1,0,-2.1,1.1,-2.4,1.9l.2,.2c.3,-.6,1,-1.8,1.9,-1.8c.3,0,.4,.6,.4,1c0,.3,0,.7,-.2,1.2l-.3,1.2c-.2,.5,-.4,1.3,-.7,1.7c-.2,.3,-.5,.7,-.8,.7c-.5,0,-.8,-.1,-.7,-.5c.1,-.3,.1,-.7,-.4,-.7c-.4,0,-.6,.3,-.6,.7c0,.6,.5,1,1.1,1c1,0,1.7,-.8,2.1,-1.5c.1,.8,.5,1.5,1.4,1.5c1.1,0,2,-1.2,2.4,-1.9l-.2,-.1c-.5,.6,-1.2,1.6,-2,1.6c-.4,0,-.6,-.6,-.6,-1.2c0,-.3,0,-.8,.2,-1.3l.2,-.8c.1,-.5,.3,-1.2,.6,-1.6c.2,-.3,.5,-.9,.9,-.9c.4,0,.4,.3,.4,.6c-.1,.4,.1,.6,.4,.6c.4,0,.5,-.3,.5,-.7Z" class="g0_91"/>
<path d="M471.2,151.3v.2c.3,0,.8,0,1,.1c.3,.2,.3,.3,.3,.8v4.7c0,.2,0,.4,-.1,.6c0,.5,-.6,.5,-1.1,.6v.1h3.4v-.1c-.4,-.1,-.9,-.1,-1.1,-.3c-.1,-.2,-.2,-.5,-.2,-1v-6.2c-.5,.3,-1.5,.5,-2.2,.5Z" class="g0_91"/>
<path d="M469.6,168.4c0,-.5,-.4,-.9,-1,-.9c-.3,0,-.6,.1,-.9,.3c-.3,.2,-.6,.5,-.9,.9c0,-.7,-.4,-1.2,-1,-1.2c-1.1,0,-2.1,1.1,-2.4,1.9l.2,.2c.3,-.6,1,-1.8,1.9,-1.8c.3,0,.4,.6,.4,1c0,.3,0,.7,-.2,1.2l-.3,1.2c-.2,.5,-.4,1.3,-.7,1.7c-.2,.3,-.5,.7,-.8,.7c-.5,0,-.8,-.1,-.7,-.5c.1,-.3,.1,-.7,-.4,-.7c-.4,0,-.6,.3,-.6,.7c0,.6,.5,1,1.1,1c1,0,1.7,-.8,2.1,-1.5c.1,.8,.5,1.5,1.4,1.5c1.1,0,2,-1.2,2.4,-1.9l-.2,-.1c-.5,.6,-1.2,1.6,-2,1.6c-.4,0,-.6,-.6,-.6,-1.2c0,-.3,0,-.8,.2,-1.3l.2,-.8c.1,-.5,.3,-1.2,.6,-1.6c.2,-.3,.5,-.9,.9,-.9c.4,0,.4,.3,.4,.6c-.1,.4,.1,.6,.4,.6c.4,0,.5,-.3,.5,-.7Z" class="g0_91"/>
<path d="M472.4,171.6c-.7,0,-1.1,-.4,-1.1,-1.1c0,-.8,.4,-1.6,1.3,-1.6c1.2,0,1.4,.9,1.4,1.9c0,.9,-.3,1.4,-.7,2.1c-.3,.4,-.7,.8,-1.2,1.3c-.5,.5,-1.1,1.1,-1.8,1.8v.3h4.5l.4,-2.1h-.3c-.1,.3,-.2,.4,-.2,.6c-.2,.4,-.5,.6,-1,.6h-2.1l-.1,-.1c.5,-.3,1,-.7,1.4,-1.1c.8,-.6,1.6,-1.3,2,-2.2c.2,-.4,.2,-.8,.2,-1.2c0,-.3,0,-.6,-.1,-.9c-.4,-.7,-1.1,-1.2,-2.2,-1.2c-.7,0,-1.3,.2,-1.7,.5c-.4,.4,-.7,.9,-.7,1.5c0,.5,.1,.8,.3,1.1c.2,.2,.5,.4,.9,.4c.4,0,.7,-.2,.8,-.6Z" class="g0_91"/>
<path d="M469.6,186.3c0,-.5,-.4,-.9,-1,-.9c-.3,0,-.6,.1,-.9,.3c-.3,.2,-.6,.5,-.9,.9c0,-.7,-.4,-1.2,-1,-1.2c-1.1,0,-2.1,1.1,-2.4,1.9l.2,.2c.3,-.6,1,-1.8,1.9,-1.8c.3,0,.4,.6,.4,1c0,.3,0,.7,-.2,1.2l-.3,1.2c-.2,.5,-.4,1.3,-.7,1.7c-.2,.3,-.5,.7,-.8,.7c-.5,0,-.8,-.1,-.7,-.5c.1,-.3,.1,-.7,-.4,-.7c-.4,0,-.6,.3,-.6,.7c0,.6,.5,1,1.1,1c1,0,1.7,-.8,2.1,-1.5c.1,.8,.5,1.5,1.4,1.5c1.1,0,2,-1.2,2.4,-1.9L469,190c-.5,.6,-1.2,1.6,-2,1.6c-.4,0,-.6,-.6,-.6,-1.2c0,-.3,0,-.8,.2,-1.3l.2,-.8c.1,-.5,.3,-1.2,.6,-1.6c.2,-.3,.5,-.9,.9,-.9c.4,0,.4,.3,.4,.6c-.1,.4,.1,.6,.4,.6c.4,0,.5,-.3,.5,-.7Z" class="g0_91"/>
<path d="M472.6,194.1c-.7,0,-1.3,-.7,-1.3,-1.4c0,-.5,.4,-.9,.9,-.9c-.1,-.3,-.4,-.5,-.8,-.5c-.1,0,-.3,.1,-.4,.1c-.4,.2,-.7,.6,-.7,1.2c0,.2,0,.4,.2,.7c.3,.6,1.1,1,2.1,1c.8,0,1.4,-.2,1.9,-.6c.4,-.3,.7,-.8,.7,-1.5c0,-.3,0,-.5,-.1,-.7c-.3,-.7,-.8,-1.1,-1.6,-1.3v-.1c.5,-.1,.8,-.3,1.1,-.6c.2,-.3,.4,-.7,.4,-1.2c0,-.2,-.1,-.5,-.2,-.7c-.3,-.7,-1.1,-1,-2.1,-1c-.6,0,-1.2,.1,-1.6,.3c-.3,.3,-.5,.6,-.5,1c0,.4,.1,.6,.3,.8c.1,.2,.4,.3,.7,.3c.1,0,.3,0,.4,-.1c.2,-.1,.2,-.2,.3,-.3c-.5,0,-.8,-.3,-.8,-.7c0,-.6,.5,-1.1,1.2,-1.1c.7,0,1.1,.7,1.1,1.6c0,.9,-.2,1.7,-1,1.7c-.2,0,-.4,-.1,-.6,-.1c-.3,0,-.6,.1,-.6,.2c0,.3,.4,.4,.6,.4c.2,0,.5,-.2,.6,-.2c.9,0,1.2,.8,1.2,1.7c0,1,-.4,2,-1.4,2Z" class="g0_91"/>
<path d="M477.1,144.5c0,.1,0,.2,.1,.4c3.2,5.4,4,19.1,4,20.3v.7h1.4v-.7c0,-1.5,-.6,-15.4,-5.4,-20.7q0,-.1,-.1,-.1c0,0,0,.1,0,.1Z" class="g0_91"/>
<path d="M481.2,175.2h1.4v-9.6h-1.4Z" class="g0_91"/>
<path d="M477.1,196.3q0,.1,0,.1q.1,0,.1,0c4.8,-5.4,5.4,-19.2,5.4,-20.8v-.7h-1.4v.7c0,1.2,-.8,14.9,-4,20.3c-.1,.2,-.1,.3,-.1,.4Z" class="g0_91"/>
<path d="M488.1,172.3h7.6v-.8h-7.6Zm0,-3h7.6v-.8h-7.6Z" class="g0_91"/>
<path d="M506.7,144.5c0,0,-.1,-.1,-.1,-.1c0,0,-.1,0,-.1,.1c-4.8,5.3,-5.3,19.2,-5.3,20.7v.7h1.4v-.7c0,-1.2,.8,-14.9,4,-20.3c0,-.2,.1,-.3,.1,-.4Z" class="g0_91"/>
<path d="M501.2,175.2h1.4v-9.6h-1.4Z" class="g0_91"/>
<path d="M506.7,196.3c0,-.1,-.1,-.2,-.1,-.4c-3.2,-5.4,-4,-19.1,-4,-20.3v-.7h-1.4v.7c0,1.6,.5,15.4,5.3,20.8c0,0,.1,0,.1,0c0,0,.1,0,.1,-.1Z" class="g0_91"/>
<path d="M511.1,149.9c1.3,0,.9,1.9,.4,3.2c-.3,.9,-1.3,2.8,-2.4,2.8c-.5,0,-.7,-.4,-.7,-1c0,-.8,.3,-1.8,.5,-2.4c.3,-.6,.8,-1.6,1.2,-2c.2,-.3,.6,-.6,1,-.6Zm-2.2,6.3c1.7,0,2.9,-1.5,3.5,-2.6c.3,-.6,.6,-1.4,.6,-2.3c0,-1,-.5,-1.7,-1.5,-1.7c-.9,0,-1.6,.5,-2,1.1l1.5,-5.5h-2.1v.2c.6,0,.8,.3,.8,.6c0,.2,-.1,.6,-.1,.8l-1.6,5.6c-.2,.6,-.3,1,-.4,1.4c-.1,.4,-.1,.7,-.1,.9c0,.9,.5,1.5,1.4,1.5Z" class="g0_91"/>
<path d="M514.9,151.3v.2c.3,0,.8,0,.9,.1c.3,.2,.3,.3,.3,.8v4.7c0,.2,0,.4,0,.6c-.1,.5,-.7,.5,-1.2,.6v.1h3.4v-.1c-.3,-.1,-.9,-.1,-1,-.3c-.2,-.2,-.2,-.5,-.2,-1v-6.2c-.6,.3,-1.5,.5,-2.2,.5Z" class="g0_91"/>
<path d="M511.1,167.8c1.3,0,.9,1.9,.4,3.2c-.3,.9,-1.3,2.8,-2.4,2.8c-.5,0,-.7,-.4,-.7,-1c0,-.8,.3,-1.8,.5,-2.4c.3,-.6,.8,-1.6,1.2,-2c.2,-.3,.6,-.6,1,-.6Zm-2.2,6.3c1.7,0,2.9,-1.5,3.5,-2.6c.3,-.6,.6,-1.4,.6,-2.3c0,-1,-.5,-1.7,-1.5,-1.7c-.9,0,-1.6,.5,-2,1.1l1.5,-5.5h-2.1v.2c.6,0,.8,.3,.8,.6c0,.2,-.1,.6,-.1,.8l-1.6,5.6c-.2,.6,-.3,1,-.4,1.4c-.1,.4,-.1,.7,-.1,.9c0,.9,.5,1.5,1.4,1.5Z" class="g0_91"/>
<path d="M516,171.6c-.6,0,-1,-.4,-1,-1.1c0,-.8,.4,-1.6,1.3,-1.6c1.2,0,1.3,.9,1.3,1.9c0,.9,-.3,1.4,-.7,2.1c-.3,.4,-.7,.8,-1.1,1.3c-.5,.5,-1.1,1.1,-1.9,1.8v.3h4.6l.4,-2.1h-.3c-.1,.3,-.2,.4,-.3,.6c-.1,.4,-.5,.6,-1,.6h-2.1v-.1c.5,-.3,1,-.7,1.4,-1.1c.7,-.6,1.5,-1.3,1.9,-2.2c.2,-.4,.3,-.8,.3,-1.2c0,-.3,-.1,-.6,-.2,-.9c-.3,-.7,-1.1,-1.2,-2.2,-1.2c-.7,0,-1.3,.2,-1.7,.5c-.4,.4,-.7,.9,-.7,1.5c0,.5,.2,.8,.4,1.1c.2,.2,.5,.4,.9,.4c.4,0,.7,-.2,.7,-.6Z" class="g0_91"/>
<path d="M511.1,185.7c1.3,0,.9,1.9,.4,3.2c-.3,.9,-1.3,2.8,-2.4,2.8c-.5,0,-.7,-.4,-.7,-1c0,-.8,.3,-1.8,.5,-2.4c.3,-.6,.8,-1.6,1.2,-2c.2,-.3,.6,-.6,1,-.6Zm-2.2,6.3c1.7,0,2.9,-1.5,3.5,-2.6c.3,-.6,.6,-1.4,.6,-2.3c0,-1,-.5,-1.7,-1.5,-1.7c-.9,0,-1.6,.5,-2,1.1L511,181h-2.1v.2c.6,0,.8,.3,.8,.6c0,.2,-.1,.6,-.1,.8l-1.6,5.6c-.2,.6,-.3,1,-.4,1.4c-.1,.4,-.1,.7,-.1,.9c0,.9,.5,1.5,1.4,1.5Z" class="g0_91"/>
<path d="M516.3,194.1c-.8,0,-1.3,-.7,-1.3,-1.4c0,-.5,.3,-.9,.8,-.9c0,-.3,-.4,-.5,-.7,-.5c-.2,0,-.3,.1,-.5,.1c-.4,.2,-.7,.6,-.7,1.2c0,.2,.1,.4,.2,.7c.4,.6,1.2,1,2.2,1c.8,0,1.4,-.2,1.8,-.6c.5,-.3,.8,-.8,.8,-1.5c0,-.3,-.1,-.5,-.2,-.7c-.2,-.7,-.8,-1.1,-1.5,-1.3v-.1c.4,-.1,.8,-.3,1,-.6c.3,-.3,.4,-.7,.4,-1.2c0,-.2,0,-.5,-.1,-.7c-.4,-.7,-1.2,-1,-2.2,-1c-.6,0,-1.1,.1,-1.5,.3c-.3,.3,-.6,.6,-.6,1c0,.4,.1,.6,.3,.8c.2,.2,.4,.3,.7,.3c.2,0,.3,0,.5,-.1c.1,-.1,.2,-.2,.2,-.3c-.4,0,-.7,-.3,-.7,-.7c0,-.6,.5,-1.1,1.1,-1.1c.8,0,1.2,.7,1.2,1.6c0,.9,-.3,1.7,-1.1,1.7c-.2,0,-.4,-.1,-.6,-.1c-.2,0,-.5,.1,-.5,.2c0,.3,.3,.4,.5,.4c.3,0,.5,-.2,.7,-.2c.9,0,1.1,.8,1.1,1.7c0,1,-.4,2,-1.3,2Z" class="g0_91"/>
<path d="M520.7,144.5c0,.1,.1,.2,.1,.4c3.2,5.4,4,19.1,4,20.3v.7h1.4v-2c-.2,-4,-1.2,-14.9,-5.3,-19.4c0,-.1,-.1,-.1,-.1,-.1c0,0,-.1,.1,-.1,.1Z" class="g0_91"/>
<path d="M524.8,175.2h1.4v-9.6h-1.4Z" class="g0_91"/>
<path d="M520.7,196.3c0,.1,.1,.1,.1,.1c0,0,.1,0,.1,0c4.1,-4.6,5.1,-15.5,5.3,-19.5v-2h-1.4v.7c0,1.2,-.8,14.9,-4,20.3c0,.2,-.1,.3,-.1,.4Z" class="g0_91"/>
<path d="M423.8,305.8c0,-.5,-.4,-1,-1,-1c-.3,0,-.6,.2,-.9,.4c-.3,.2,-.7,.5,-.9,.9c0,-.7,-.4,-1.3,-1,-1.3c-1.2,0,-2.1,1.2,-2.5,2l.2,.1c.4,-.5,1.1,-1.7,2,-1.7c.3,0,.4,.6,.4,1c0,.3,-.1,.7,-.2,1.2l-.4,1.1c-.1,.6,-.4,1.4,-.7,1.8c-.1,.3,-.4,.7,-.8,.7c-.4,0,-.7,-.1,-.6,-.5c.1,-.3,0,-.7,-.4,-.7c-.4,0,-.6,.3,-.6,.7c0,.6,.5,.9,1,.9c1,0,1.8,-.7,2.2,-1.4c.1,.8,.5,1.4,1.3,1.4c1.2,0,2.1,-1.1,2.5,-1.8l-.2,-.2c-.5,.7,-1.2,1.7,-2,1.7c-.4,0,-.6,-.6,-.6,-1.2c0,-.4,0,-.8,.2,-1.4l.1,-.7c.1,-.6,.4,-1.2,.7,-1.6c.1,-.3,.5,-.9,.9,-.9c.4,0,.4,.2,.3,.6c0,.4,.2,.5,.5,.5c.4,0,.5,-.2,.5,-.6Z" class="g0_91"/>
<path d="M425.4,306.6v.2c.3,0,.8,0,.9,.1c.4,.2,.3,.3,.4,.7v4.8c0,.2,0,.4,-.1,.6c0,.4,-.6,.5,-1.2,.5v.2h3.5v-.2c-.4,0,-1,0,-1.1,-.2c-.2,-.2,-.2,-.6,-.2,-1v-6.2c-.6,.2,-1.5,.5,-2.2,.5Z" class="g0_91"/>
<path d="M435.5,309.4h7.6v-.8h-7.6Zm0,-3h7.6v-.8h-7.6Z" class="g0_91"/>
<path d="M454.3,295.1c1.2,0,.9,1.9,.3,3.2c-.3,.8,-1.2,2.7,-2.4,2.7c-.4,0,-.6,-.3,-.6,-.9c0,-.8,.2,-1.8,.5,-2.4c.2,-.6,.7,-1.6,1.1,-2c.2,-.3,.6,-.6,1.1,-.6Zm-2.3,6.3c1.7,0,2.9,-1.5,3.5,-2.6c.3,-.7,.6,-1.5,.6,-2.3c0,-1,-.5,-1.7,-1.5,-1.7c-.9,0,-1.6,.5,-2,1.1l1.5,-5.6l-2,.1l-.1,.2c.6,0,.9,.3,.9,.6c0,.2,-.1,.6,-.2,.8l-1.6,5.6c-.2,.6,-.3,1,-.4,1.4c-.1,.4,-.1,.7,-.1,.9c0,.8,.6,1.5,1.4,1.5Z" class="g0_91"/>
<path d="M458,296.5v.2c.3,0,.8,0,.9,.1c.4,.2,.4,.3,.4,.7v4.8c0,.2,0,.4,-.1,.6c0,.4,-.6,.5,-1.2,.5v.2h3.5v-.2c-.4,0,-.9,0,-1.1,-.2c-.2,-.2,-.2,-.6,-.2,-1V296c-.5,.2,-1.5,.5,-2.2,.5Z" class="g0_91"/>
<path d="M449.7,307.9H464v-.8H449.7Z" class="g0_91"/>
<path d="M454.2,315.1c-.4,0,-.9,.1,-1.3,.4c-.5,.3,-.9,.7,-1.2,1.2c-.7,.7,-1.3,2,-1.3,3.2c0,1,.4,1.8,1.3,1.8c1.3,0,1.8,-.9,2.2,-1.6c-.2,.9,-.1,1.6,.6,1.6c.3,0,.7,-.2,1.1,-.5c.4,-.3,.8,-.8,1.1,-1.4l-.2,-.1c-.3,.4,-.9,1.3,-1.3,1.3c-.2,0,-.3,-.3,-.3,-.5c0,-.9,.6,-2.5,.9,-3.5l.7,-1.8h-1l-.2,.7c-.2,-.5,-.5,-.8,-1.1,-.8Zm.1,.3c.7,0,.6,1.3,.5,1.8c-.1,.4,-.2,.7,-.3,1c-.4,1.2,-1.5,3.1,-2.3,3.1c-.6,0,-.7,-.9,-.7,-1.4c0,-.4,0,-.9,.1,-1.4c.4,-1,1.5,-3.1,2.7,-3.1Z" class="g0_91"/>
<path d="M458.6,316.8v.2c.3,0,.8,0,.9,.1c.4,.2,.4,.3,.4,.8v4.7c0,.2,0,.4,-.1,.6c0,.5,-.6,.5,-1.2,.6v.1h3.5v-.1c-.4,-.1,-.9,-.1,-1.1,-.3c-.2,-.2,-.2,-.5,-.2,-.9v-6.3c-.5,.3,-1.5,.5,-2.2,.5Z" class="g0_91"/>
<path d="M423.8,363c0,-.5,-.4,-1,-1,-1c-.3,0,-.6,.2,-.9,.4c-.3,.2,-.7,.5,-.9,.9c0,-.7,-.4,-1.3,-1,-1.3c-1.2,0,-2.1,1.2,-2.5,2l.2,.1c.4,-.5,1.1,-1.7,2,-1.7c.3,0,.4,.6,.4,1c0,.3,-.1,.7,-.2,1.2l-.4,1.1c-.1,.6,-.4,1.4,-.7,1.8c-.1,.3,-.4,.7,-.8,.7c-.4,0,-.7,-.1,-.6,-.5c.1,-.3,0,-.7,-.4,-.7c-.4,0,-.6,.3,-.6,.7c0,.6,.5,.9,1,.9c1,0,1.8,-.7,2.2,-1.4c.1,.8,.5,1.4,1.3,1.4c1.2,0,2.1,-1.1,2.5,-1.8l-.2,-.2c-.5,.7,-1.2,1.7,-2,1.7c-.4,0,-.6,-.6,-.6,-1.2c0,-.4,0,-.8,.2,-1.4l.1,-.7c.1,-.6,.4,-1.2,.7,-1.6c.1,-.3,.5,-1,.9,-1c.4,0,.4,.3,.3,.7c0,.4,.2,.5,.5,.5c.4,0,.5,-.2,.5,-.6Z" class="g0_91"/>
<path d="M426.6,366.2c-.7,0,-1.1,-.5,-1.1,-1.1c0,-.8,.4,-1.7,1.3,-1.7c1.2,0,1.3,1,1.3,1.9c0,1,-.2,1.5,-.7,2.2c-.2,.4,-.6,.8,-1.1,1.3c-.5,.5,-1.1,1.1,-1.8,1.8v.3H429l.4,-2.1h-.3c-.1,.2,-.2,.4,-.3,.6c-.1,.3,-.4,.5,-1,.5h-2.1c.5,-.4,1,-.7,1.4,-1.1c.7,-.6,1.5,-1.4,2,-2.2c.1,-.4,.2,-.8,.2,-1.2c0,-.3,0,-.6,-.1,-.9c-.4,-.7,-1.1,-1.3,-2.2,-1.3c-.7,0,-1.4,.3,-1.8,.6c-.3,.3,-.7,.8,-.7,1.5c0,.4,.2,.8,.4,1c.2,.3,.5,.4,.9,.4c.4,0,.7,-.2,.8,-.5Z" class="g0_91"/>
<path d="M435.5,366.6h7.6v-.8h-7.6Zm0,-3h7.6v-.8h-7.6Z" class="g0_91"/>
<path d="M454.3,352.3c1.2,0,.9,1.9,.3,3.2c-.3,.8,-1.2,2.7,-2.4,2.7c-.4,0,-.6,-.3,-.6,-.9c0,-.8,.2,-1.8,.5,-2.4c.2,-.6,.7,-1.6,1.1,-2c.2,-.3,.6,-.6,1.1,-.6Zm-2.3,6.2c1.7,0,2.9,-1.4,3.5,-2.6c.3,-.6,.6,-1.4,.6,-2.2c0,-1.1,-.5,-1.8,-1.5,-1.8c-.9,0,-1.6,.6,-2,1.2l1.5,-5.6l-2,.1l-.1,.2c.6,0,.9,.3,.9,.6c0,.2,-.1,.6,-.2,.8l-1.6,5.6c-.2,.6,-.3,1,-.4,1.4c-.1,.4,-.1,.7,-.1,.9c0,.8,.6,1.4,1.4,1.4Z" class="g0_91"/>
<path d="M459.2,356.1c-.7,0,-1.1,-.5,-1.1,-1.1c0,-.8,.4,-1.7,1.3,-1.7c1.2,0,1.4,1,1.4,1.9c0,1,-.3,1.5,-.8,2.2c-.2,.4,-.6,.8,-1.1,1.3c-.5,.5,-1.1,1.1,-1.8,1.8v.3h4.5l.4,-2.1h-.3c-.1,.2,-.2,.4,-.2,.6c-.2,.3,-.5,.5,-1.1,.5h-2.1c.5,-.4,1,-.7,1.4,-1.1c.8,-.6,1.5,-1.4,2,-2.2c.1,-.4,.2,-.8,.2,-1.2c0,-.3,0,-.6,-.1,-.9c-.4,-.7,-1.1,-1.3,-2.2,-1.3c-.7,0,-1.4,.3,-1.8,.6c-.3,.3,-.6,.8,-.6,1.5c0,.4,.1,.8,.3,1c.2,.3,.5,.4,.9,.4c.4,0,.7,-.2,.8,-.5Z" class="g0_91"/>
<path d="M449.7,365.1H464v-.8H449.7Z" class="g0_91"/>
<path d="M454.2,372.3c-.4,0,-.9,.1,-1.3,.4c-.5,.3,-.9,.7,-1.2,1.2c-.7,.7,-1.3,1.9,-1.3,3.2c0,1,.4,1.8,1.3,1.8c1.3,0,1.8,-.9,2.2,-1.6c-.2,.9,-.1,1.6,.6,1.6c.3,0,.7,-.2,1.1,-.5c.4,-.3,.8,-.8,1.1,-1.4l-.2,-.1c-.3,.4,-.9,1.3,-1.3,1.3c-.2,0,-.3,-.3,-.3,-.5c0,-.9,.6,-2.5,.9,-3.5l.7,-1.8h-1l-.2,.7c-.2,-.5,-.5,-.8,-1.1,-.8Zm.1,.3c.7,0,.6,1.3,.5,1.8c-.1,.3,-.2,.7,-.3,1c-.4,1.2,-1.5,3.1,-2.3,3.1c-.6,0,-.7,-.9,-.7,-1.4c0,-.5,0,-.9,.1,-1.4c.4,-1,1.5,-3.1,2.7,-3.1Z" class="g0_91"/>
<path d="M459.8,376.5c-.7,0,-1.1,-.5,-1.1,-1.2c0,-.8,.4,-1.6,1.3,-1.6c1.2,0,1.4,1,1.4,1.9c0,.9,-.3,1.5,-.8,2.1c-.2,.4,-.6,.9,-1.1,1.3c-.5,.6,-1.1,1.1,-1.8,1.8v.3h4.5l.4,-2.1h-.3c-.1,.3,-.2,.4,-.2,.6c-.2,.4,-.5,.6,-1.1,.6h-2.1v-.1c.5,-.3,1,-.7,1.4,-1.1c.8,-.6,1.5,-1.3,2,-2.2c.1,-.4,.2,-.8,.2,-1.2c0,-.3,0,-.6,-.1,-.9c-.4,-.7,-1.1,-1.2,-2.2,-1.2c-.7,0,-1.4,.2,-1.8,.5c-.3,.4,-.7,.9,-.7,1.5c0,.5,.2,.8,.4,1.1c.2,.2,.5,.4,.9,.4c.4,0,.7,-.2,.8,-.5Z" class="g0_91"/>
<path d="M423.8,416.6c0,-.5,-.4,-.9,-1,-.9c-.3,0,-.6,.1,-.9,.3c-.3,.2,-.7,.5,-.9,.9c0,-.7,-.4,-1.2,-1,-1.2c-1.2,0,-2.1,1.1,-2.5,1.9l.2,.1c.4,-.5,1.1,-1.7,2,-1.7c.3,0,.4,.6,.4,1c0,.3,-.1,.7,-.2,1.2l-.4,1.2c-.1,.5,-.4,1.3,-.7,1.7c-.1,.3,-.4,.7,-.8,.7c-.4,0,-.7,-.1,-.6,-.5c.1,-.3,0,-.7,-.4,-.7c-.4,0,-.6,.3,-.6,.7c0,.6,.5,1,1,1c1,0,1.8,-.8,2.2,-1.5c.1,.8,.5,1.5,1.3,1.5c1.2,0,2,-1.2,2.5,-1.9l-.2,-.1c-.5,.6,-1.2,1.6,-2,1.6c-.4,0,-.6,-.6,-.6,-1.2c0,-.4,0,-.8,.2,-1.3l.1,-.8c.1,-.5,.4,-1.2,.7,-1.6c.1,-.3,.5,-.9,.9,-.9c.4,0,.4,.3,.3,.6c0,.4,.2,.6,.5,.6c.4,0,.5,-.3,.5,-.7Z" class="g0_91"/>
<path d="M426.8,424.4c-.7,0,-1.3,-.7,-1.3,-1.4c0,-.5,.3,-.9,.8,-.9c0,-.3,-.4,-.5,-.7,-.5c-.2,0,-.3,.1,-.5,.1c-.4,.2,-.6,.6,-.6,1.2c0,.2,0,.4,.1,.7c.4,.6,1.2,1,2.2,1c.8,0,1.4,-.2,1.9,-.6c.4,-.3,.7,-.8,.7,-1.5c0,-.3,0,-.5,-.1,-.7c-.3,-.7,-.9,-1.1,-1.6,-1.3v-.1c.4,-.1,.8,-.3,1,-.6c.3,-.3,.5,-.7,.5,-1.2c0,-.2,-.1,-.5,-.2,-.7c-.3,-.7,-1.1,-1,-2.2,-1c-.6,0,-1.1,.1,-1.5,.3c-.3,.3,-.6,.6,-.6,1.1c0,.3,.2,.5,.3,.7c.2,.2,.4,.3,.7,.3c.2,0,.4,0,.5,-.1c.1,-.1,.2,-.2,.2,-.3c-.4,0,-.7,-.3,-.7,-.7c0,-.6,.5,-1.1,1.1,-1.1c.8,0,1.2,.7,1.2,1.6c0,.9,-.2,1.7,-1.1,1.7c-.1,0,-.4,-.1,-.6,-.1c-.2,0,-.5,.1,-.5,.2c0,.3,.3,.4,.6,.4c.2,0,.5,-.2,.6,-.2c.9,0,1.2,.8,1.2,1.7c0,1,-.4,2,-1.4,2Z" class="g0_91"/>
<path d="M435.5,420.3h7.6v-.9h-7.6Zm0,-3.1h7.6v-.8h-7.6Z" class="g0_91"/>
<path d="M454.3,405.9c1.2,0,.9,1.9,.3,3.2c-.3,.9,-1.2,2.8,-2.4,2.8c-.4,0,-.6,-.4,-.6,-1c0,-.8,.2,-1.8,.5,-2.4c.2,-.6,.7,-1.6,1.1,-2c.2,-.3,.6,-.6,1.1,-.6Zm-2.3,6.3c1.7,0,2.9,-1.5,3.5,-2.6c.3,-.6,.6,-1.4,.6,-2.3c0,-1,-.5,-1.7,-1.5,-1.7c-.9,0,-1.6,.5,-2,1.1l1.5,-5.5h-2l-.1,.2c.6,0,.9,.3,.9,.6c0,.2,-.1,.6,-.2,.8l-1.6,5.6c-.2,.6,-.3,1,-.4,1.4c-.1,.4,-.1,.7,-.1,.9c0,.9,.6,1.5,1.4,1.5Z" class="g0_91"/>
<path d="M459.4,414.3c-.7,0,-1.3,-.7,-1.3,-1.4c0,-.5,.3,-.9,.9,-.9c-.1,-.3,-.4,-.5,-.8,-.5c-.1,0,-.3,.1,-.4,.1c-.4,.2,-.7,.6,-.7,1.2c0,.2,0,.4,.2,.7c.3,.6,1.1,1,2.1,1c.8,0,1.4,-.2,1.9,-.6c.4,-.3,.7,-.8,.7,-1.5c0,-.3,0,-.5,-.1,-.7c-.3,-.7,-.9,-1.1,-1.6,-1.3v-.1c.4,-.1,.8,-.3,1.1,-.6c.2,-.3,.4,-.7,.4,-1.2c0,-.2,-.1,-.5,-.2,-.7c-.3,-.7,-1.1,-1,-2.1,-1c-.7,0,-1.2,.1,-1.6,.3c-.3,.3,-.5,.6,-.5,1.1c0,.3,.1,.5,.3,.7c.1,.2,.3,.3,.7,.3c.1,0,.3,0,.4,-.1c.1,-.1,.2,-.2,.2,-.3c-.4,0,-.7,-.3,-.7,-.7c0,-.6,.5,-1.1,1.2,-1.1c.7,0,1.1,.7,1.1,1.6c0,.9,-.2,1.7,-1.1,1.7c-.1,0,-.4,-.1,-.5,-.1c-.3,0,-.6,.1,-.6,.3c0,.2,.3,.3,.6,.3c.2,0,.5,-.2,.6,-.2c.9,0,1.2,.8,1.2,1.7c0,1,-.4,2,-1.4,2Z" class="g0_91"/>
<path d="M449.7,418.7H464v-.8H449.7Z" class="g0_91"/>
<path d="M454.2,425.9c-.4,0,-.9,.2,-1.3,.5c-.5,.3,-.9,.6,-1.2,1.1c-.7,.8,-1.3,2,-1.3,3.3c0,1,.4,1.7,1.3,1.7c1.3,0,1.8,-.9,2.2,-1.5c-.2,.9,-.1,1.5,.6,1.5c.3,0,.7,-.2,1.1,-.5c.4,-.3,.8,-.8,1.1,-1.4l-.2,-.1c-.3,.4,-.9,1.4,-1.3,1.4c-.2,0,-.3,-.4,-.3,-.6c0,-.9,.6,-2.4,.9,-3.4l.7,-1.9h-1l-.2,.7c-.2,-.5,-.5,-.8,-1.1,-.8Zm.1,.3c.7,0,.6,1.3,.5,1.9c-.1,.3,-.2,.6,-.3,.9c-.4,1.2,-1.5,3.2,-2.3,3.2c-.6,0,-.8,-1,-.8,-1.5c0,-.4,.1,-.9,.2,-1.3c.4,-1,1.5,-3.2,2.7,-3.2Z" class="g0_91"/>
<path d="M460,434.6c-.7,0,-1.3,-.6,-1.3,-1.3c0,-.6,.3,-1,.8,-1c0,-.3,-.4,-.4,-.7,-.4c-.2,0,-.3,0,-.4,.1c-.4,.1,-.7,.6,-.7,1.1c0,.3,0,.5,.1,.7c.4,.6,1.2,1,2.2,1c.8,0,1.4,-.2,1.9,-.6c.4,-.3,.7,-.8,.7,-1.5c0,-.2,0,-.5,-.1,-.7c-.3,-.6,-.9,-1.1,-1.6,-1.3c.4,-.1,.8,-.4,1,-.7c.3,-.3,.5,-.7,.5,-1.1c0,-.3,-.1,-.5,-.2,-.8c-.3,-.6,-1.1,-1,-2.2,-1c-.6,0,-1.1,.1,-1.5,.4c-.3,.2,-.5,.5,-.5,1c0,.3,.1,.6,.2,.7c.2,.2,.4,.3,.8,.3c.1,0,.3,0,.4,-.1c.1,0,.2,-.1,.2,-.2c-.4,0,-.7,-.4,-.7,-.8c0,-.6,.5,-1.1,1.1,-1.1c.8,0,1.2,.7,1.2,1.6c0,.9,-.2,1.8,-1.1,1.8c-.1,-.1,-.4,-.2,-.6,-.2c-.2,0,-.5,.1,-.5,.3c0,.2,.3,.3,.6,.3c.2,0,.5,-.1,.6,-.2c.9,0,1.2,.8,1.2,1.7c0,1.1,-.4,2,-1.4,2Z" class="g0_91"/>
<path d="M350.5,527.8c0,0,0,-.1,0,-.1q-.1,0,-.1,.1c-4.8,5.3,-5.4,19.2,-5.4,20.7v.7h1.4v-.7c0,-1.2,.8,-14.9,4,-20.3c.1,-.1,.1,-.3,.1,-.4Z" class="g0_91"/>
<path d="M345,558.5h1.4v-9.6H345Z" class="g0_91"/>
<path d="M350.5,579.6c0,-.1,0,-.2,-.1,-.4c-3.2,-5.4,-4,-19.1,-4,-20.3v-.7H345v.7c0,1.6,.6,15.4,5.4,20.8h.1v-.1Z" class="g0_91"/>
<path d="M355.5,532.9c-.4,0,-.8,.1,-1.3,.4c-.4,.3,-.8,.7,-1.2,1.2c-.7,.7,-1.3,1.9,-1.3,3.2c0,1,.4,1.8,1.3,1.8c1.3,0,1.8,-.9,2.2,-1.6c-.2,.9,0,1.6,.6,1.6c.3,0,.7,-.2,1.1,-.5c.4,-.3,.8,-.8,1.1,-1.4l-.2,-.1c-.3,.4,-.9,1.3,-1.3,1.3c-.2,0,-.3,-.3,-.3,-.5c0,-.9,.6,-2.5,.9,-3.5l.7,-1.8h-1l-.2,.7c-.2,-.5,-.5,-.8,-1.1,-.8Zm.2,.3c.7,0,.5,1.3,.4,1.8c-.1,.3,-.2,.7,-.3,1c-.4,1.2,-1.5,3.1,-2.3,3.1c-.6,0,-.7,-.9,-.7,-1.4c0,-.5,0,-.9,.2,-1.4c.3,-1,1.4,-3.1,2.7,-3.1Z" class="g0_91"/>
<path d="M359.9,534.6v.2c.3,0,.8,0,1,.1c.3,.2,.3,.3,.3,.8v4.7c0,.2,0,.4,0,.6c-.1,.5,-.7,.5,-1.2,.6v.1h3.4v-.1c-.4,-.1,-.9,-.1,-1.1,-.3c-.1,-.2,-.1,-.5,-.1,-.9v-6.3c-.6,.3,-1.6,.5,-2.3,.5Z" class="g0_91"/>
<path d="M366,534.6v.2c.3,0,.8,0,1,.1c.3,.2,.3,.3,.3,.8v4.7c0,.2,0,.4,0,.6c-.1,.5,-.7,.5,-1.2,.6v.1h3.4v-.1c-.4,-.1,-.9,-.1,-1.1,-.3c-.1,-.2,-.1,-.5,-.1,-.9v-6.3c-.6,.3,-1.6,.5,-2.3,.5Z" class="g0_91"/>
<path d="M396.5,539.2c-1.9,0,-1.9,-2.7,-1.9,-4.9c0,-2.2,0,-5.1,1.9,-5.1c2,0,2,2.9,2,5.1c0,2.2,-.1,4.9,-2,4.9Zm0,-10.3c-2.6,0,-3.4,2.7,-3.4,5.4c0,2.6,.9,5.2,3.4,5.2c2.6,0,3.4,-2.6,3.4,-5.2c0,-2.7,-.8,-5.4,-3.4,-5.4Z" class="g0_91"/>
<path d="M431.8,539.2c-1.9,0,-1.9,-2.7,-1.9,-4.9c0,-2.2,0,-5.1,1.9,-5.1c2,0,2,2.9,2,5.1c0,2.2,-.1,4.9,-2,4.9Zm0,-10.3c-2.6,0,-3.3,2.7,-3.3,5.4c0,2.6,.8,5.2,3.3,5.2c2.6,0,3.4,-2.6,3.4,-5.2c0,-2.7,-.7,-5.4,-3.4,-5.4Z" class="g0_91"/>
<path d="M355.5,550.8c-.4,0,-.8,.1,-1.3,.4c-.4,.3,-.8,.7,-1.2,1.2c-.7,.7,-1.3,1.9,-1.3,3.2c0,1,.4,1.8,1.3,1.8c1.3,0,1.8,-.9,2.2,-1.6c-.2,.9,0,1.6,.6,1.6c.3,0,.7,-.2,1.1,-.5c.4,-.3,.8,-.8,1.1,-1.4l-.2,-.1c-.3,.4,-.9,1.3,-1.3,1.3c-.2,0,-.3,-.3,-.3,-.5c0,-.9,.6,-2.5,.9,-3.5l.7,-1.8h-1l-.2,.7c-.2,-.5,-.5,-.8,-1.1,-.8Zm.2,.3c.7,0,.5,1.3,.4,1.8c-.1,.3,-.2,.7,-.3,1c-.4,1.2,-1.5,3.1,-2.3,3.1c-.6,0,-.7,-.9,-.7,-1.4c0,-.5,0,-.9,.2,-1.4c.3,-1,1.4,-3.1,2.7,-3.1Z" class="g0_91"/>
<path d="M361.1,555c-.7,0,-1.1,-.5,-1.1,-1.2c0,-.8,.5,-1.6,1.4,-1.6c1.2,0,1.3,1,1.3,1.9c0,.9,-.3,1.4,-.7,2.1c-.3,.4,-.7,.9,-1.2,1.3c-.5,.6,-1.1,1.1,-1.8,1.8v.3h4.5l.4,-2.1h-.3c-.1,.3,-.2,.4,-.2,.6c-.2,.4,-.5,.6,-1,.6h-2.1v-.1c.4,-.3,.9,-.7,1.3,-1.1c.8,-.6,1.6,-1.3,2,-2.2c.2,-.4,.3,-.8,.3,-1.2c0,-.3,-.1,-.6,-.2,-.9c-.4,-.7,-1.1,-1.2,-2.2,-1.2c-.7,0,-1.3,.2,-1.7,.5c-.4,.4,-.7,.9,-.7,1.5c0,.5,.1,.8,.3,1.1c.2,.2,.5,.4,.9,.4c.4,0,.7,-.2,.8,-.5Z" class="g0_91"/>
<path d="M366,552.5v.2c.3,0,.8,0,1,.1c.3,.2,.3,.3,.3,.8v4.7c0,.2,0,.4,0,.6c-.1,.5,-.7,.5,-1.2,.6v.1h3.4v-.1c-.4,-.1,-.9,-.1,-1.1,-.3c-.1,-.2,-.1,-.5,-.1,-1V552c-.6,.3,-1.6,.5,-2.3,.5Z" class="g0_91"/>
<path d="M390.8,550.8c-.4,0,-.8,.1,-1.3,.4c-.4,.3,-.8,.7,-1.2,1.2c-.6,.7,-1.2,1.9,-1.2,3.2c0,1,.3,1.8,1.3,1.8c1.3,0,1.7,-.9,2.1,-1.6h.1c-.3,.9,-.1,1.6,.5,1.6c.4,0,.7,-.2,1.1,-.5c.4,-.3,.8,-.8,1.1,-1.4l-.2,-.1c-.2,.4,-.9,1.3,-1.3,1.3c-.2,0,-.3,-.3,-.3,-.5c0,-.9,.6,-2.5,1,-3.5l.7,-1.8h-1l-.3,.7c-.2,-.5,-.5,-.8,-1.1,-.8Zm.2,.3c.7,0,.5,1.3,.4,1.8c0,.3,-.2,.7,-.3,1c-.3,1.2,-1.4,3.1,-2.2,3.1c-.6,0,-.8,-.9,-.8,-1.4c0,-.5,0,-.9,.2,-1.4c.4,-1,1.4,-3.1,2.7,-3.1Z" class="g0_91"/>
<path d="M396.4,555c-.7,0,-1.1,-.5,-1.1,-1.2c0,-.8,.5,-1.6,1.4,-1.6c1.2,0,1.3,1,1.3,1.9c0,.9,-.3,1.4,-.7,2.1c-.3,.4,-.7,.9,-1.2,1.3c-.4,.6,-1.1,1.1,-1.8,1.8v.3h4.6l.3,-2.1h-.3c0,.3,-.1,.4,-.2,.6c-.2,.4,-.5,.6,-1,.6h-2.1v-.1c.4,-.3,.9,-.7,1.3,-1.1c.8,-.6,1.6,-1.3,2,-2.2c.2,-.4,.3,-.8,.3,-1.2c0,-.3,-.1,-.6,-.2,-.9c-.4,-.7,-1.1,-1.2,-2.2,-1.2c-.7,0,-1.3,.2,-1.7,.5c-.4,.4,-.7,.9,-.7,1.5c0,.5,.1,.8,.4,1.1c.2,.2,.4,.4,.9,.4c.4,0,.7,-.2,.7,-.5Z" class="g0_91"/>
<path d="M402.5,555c-.7,0,-1.1,-.5,-1.1,-1.2c0,-.8,.5,-1.6,1.4,-1.6c1.2,0,1.3,1,1.3,1.9c0,.9,-.3,1.4,-.7,2.1c-.3,.4,-.7,.9,-1.2,1.3c-.4,.6,-1.1,1.1,-1.8,1.8v.3H405l.3,-2.1H405c0,.3,-.1,.4,-.2,.6c-.2,.4,-.5,.6,-1,.6h-2.1v-.1c.4,-.3,.9,-.7,1.3,-1.1c.8,-.6,1.6,-1.3,2,-2.2c.2,-.4,.3,-.8,.3,-1.2c0,-.3,-.1,-.6,-.2,-.9c-.4,-.7,-1.1,-1.2,-2.2,-1.2c-.7,0,-1.3,.2,-1.7,.5c-.4,.4,-.7,.9,-.7,1.5c0,.5,.1,.8,.4,1.1c.2,.2,.4,.4,.9,.4c.4,0,.7,-.2,.7,-.5Z" class="g0_91"/>
<path d="M431.8,557.1c-1.9,0,-1.9,-2.7,-1.9,-4.9c0,-2.2,0,-5.1,1.9,-5.1c2,0,2,2.9,2,5.1c0,2.2,-.1,4.9,-2,4.9Zm0,-10.3c-2.6,0,-3.3,2.7,-3.3,5.4c0,2.6,.8,5.2,3.3,5.2c2.6,0,3.4,-2.6,3.4,-5.2c0,-2.7,-.7,-5.4,-3.4,-5.4Z" class="g0_91"/>
<path d="M355.5,568.7c-.4,0,-.8,.1,-1.3,.4c-.4,.3,-.8,.7,-1.2,1.2c-.7,.7,-1.3,1.9,-1.3,3.2c0,1,.4,1.8,1.3,1.8c1.3,0,1.8,-.9,2.2,-1.6c-.2,.9,0,1.6,.6,1.6c.3,0,.7,-.2,1.1,-.5c.4,-.3,.8,-.8,1.1,-1.4l-.2,-.1c-.3,.4,-.9,1.3,-1.3,1.3c-.2,0,-.3,-.3,-.3,-.5c0,-.9,.6,-2.5,.9,-3.5l.7,-1.8h-1l-.2,.7c-.2,-.5,-.5,-.8,-1.1,-.8Zm.2,.3c.7,0,.5,1.3,.4,1.8c-.1,.3,-.2,.7,-.3,1c-.4,1.2,-1.5,3.1,-2.3,3.1c-.6,0,-.7,-.9,-.7,-1.4c0,-.5,0,-.9,.2,-1.4c.3,-1,1.4,-3.1,2.7,-3.1Z" class="g0_91"/>
<path d="M361.3,577.4c-.7,0,-1.3,-.7,-1.3,-1.4c0,-.5,.4,-.9,.9,-.9c-.1,-.3,-.4,-.5,-.8,-.5c-.1,0,-.3,.1,-.4,.1c-.4,.2,-.7,.6,-.7,1.2c0,.2,.1,.5,.2,.7c.4,.6,1.1,1,2.1,1c.8,0,1.4,-.2,1.9,-.6c.4,-.3,.7,-.8,.7,-1.5c0,-.3,0,-.5,-.1,-.7c-.3,-.7,-.8,-1.1,-1.6,-1.3v-.1c.5,-.1,.8,-.3,1.1,-.6c.2,-.3,.4,-.7,.4,-1.2c0,-.2,0,-.5,-.2,-.7c-.3,-.7,-1.1,-1,-2.1,-1c-.6,0,-1.2,.1,-1.5,.3c-.3,.3,-.6,.6,-.6,1.1c0,.3,.1,.5,.3,.7c.1,.2,.4,.3,.7,.3c.1,0,.3,0,.4,-.1c.2,-.1,.2,-.2,.3,-.3c-.5,0,-.7,-.3,-.7,-.7c0,-.6,.4,-1.1,1.1,-1.1c.7,0,1.1,.7,1.1,1.6c0,.9,-.2,1.7,-1,1.7c-.2,0,-.4,-.1,-.6,-.1c-.2,0,-.6,.1,-.6,.3c0,.2,.4,.3,.6,.3c.2,0,.5,-.1,.7,-.2c.8,0,1.1,.8,1.1,1.7c0,1,-.4,2,-1.4,2Z" class="g0_91"/>
<path d="M366,570.4v.2c.3,0,.8,0,1,.1c.3,.2,.3,.3,.3,.8v4.7c0,.2,0,.4,0,.6c-.1,.5,-.7,.5,-1.2,.6v.1h3.4v-.1c-.4,-.1,-.9,-.1,-1.1,-.3c-.1,-.2,-.1,-.5,-.1,-1v-6.2c-.6,.3,-1.6,.5,-2.3,.5Z" class="g0_91"/>
<path d="M390.8,568.7c-.4,0,-.8,.1,-1.3,.4c-.4,.3,-.8,.7,-1.2,1.2c-.6,.7,-1.2,1.9,-1.2,3.2c0,1,.3,1.8,1.3,1.8c1.3,0,1.7,-.9,2.1,-1.6h.1c-.3,.9,-.1,1.6,.5,1.6c.4,0,.7,-.2,1.1,-.5c.4,-.3,.8,-.8,1.1,-1.4l-.2,-.1c-.2,.4,-.9,1.3,-1.3,1.3c-.2,0,-.3,-.3,-.3,-.5c0,-.9,.6,-2.5,1,-3.5l.7,-1.8h-1l-.3,.7c-.2,-.5,-.5,-.8,-1.1,-.8Zm.2,.3c.7,0,.5,1.3,.4,1.8c0,.3,-.2,.7,-.3,1c-.3,1.2,-1.4,3.1,-2.2,3.1c-.6,0,-.8,-.9,-.8,-1.4c0,-.5,0,-.9,.2,-1.4c.4,-1,1.4,-3.1,2.7,-3.1Z" class="g0_91"/>
<path d="M396.6,577.4c-.7,0,-1.2,-.7,-1.2,-1.4c0,-.5,.3,-.9,.8,-.9c-.1,-.3,-.4,-.5,-.8,-.5c-.1,0,-.3,.1,-.4,.1c-.4,.2,-.7,.6,-.7,1.2c0,.2,.1,.5,.2,.7c.4,.6,1.1,1,2.2,1c.8,0,1.4,-.2,1.8,-.6c.4,-.3,.7,-.8,.7,-1.5c0,-.3,0,-.5,-.1,-.7c-.2,-.7,-.8,-1.1,-1.5,-1.3v-.1c.4,-.1,.7,-.3,1,-.6c.2,-.3,.4,-.7,.4,-1.2c0,-.2,0,-.5,-.1,-.7c-.4,-.7,-1.2,-1,-2.2,-1c-.6,0,-1.2,.1,-1.5,.3c-.3,.3,-.6,.6,-.6,1.1c0,.3,.1,.5,.3,.7c.1,.2,.4,.3,.7,.3c.2,0,.3,0,.4,-.1c.2,-.1,.2,-.2,.3,-.3c-.4,0,-.7,-.3,-.7,-.7c0,-.6,.5,-1.1,1.1,-1.1c.8,0,1.1,.7,1.1,1.6c0,.9,-.2,1.7,-1,1.7c-.2,0,-.4,-.1,-.6,-.1c-.2,0,-.5,.1,-.5,.3c0,.2,.3,.3,.5,.3c.2,0,.5,-.1,.7,-.2c.9,0,1.1,.8,1.1,1.7c0,1,-.4,2,-1.4,2Z" class="g0_91"/>
<path d="M402.5,572.9c-.7,0,-1.1,-.5,-1.1,-1.2c0,-.8,.5,-1.6,1.4,-1.6c1.2,0,1.3,1,1.3,1.9c0,.9,-.3,1.4,-.7,2.1c-.3,.4,-.7,.9,-1.2,1.3c-.4,.6,-1.1,1.1,-1.8,1.8v.3H405l.3,-2.1H405c0,.3,-.1,.4,-.2,.6c-.2,.4,-.5,.6,-1,.6h-2.1v-.1c.4,-.3,.9,-.7,1.3,-1.1c.8,-.6,1.6,-1.3,2,-2.2c.2,-.4,.3,-.8,.3,-1.2c0,-.3,-.1,-.6,-.2,-.9c-.4,-.7,-1.1,-1.2,-2.2,-1.2c-.7,0,-1.3,.2,-1.7,.5c-.4,.4,-.7,.9,-.7,1.5c0,.5,.1,.8,.4,1.1c.2,.2,.4,.4,.9,.4c.4,0,.7,-.2,.7,-.5Z" class="g0_91"/>
<path d="M426.2,568.7c-.5,0,-.9,.1,-1.4,.4c-.4,.3,-.8,.7,-1.2,1.2c-.6,.7,-1.2,1.9,-1.2,3.2c0,1,.3,1.8,1.3,1.8c1.3,0,1.8,-.9,2.1,-1.6h.1c-.2,.9,-.1,1.6,.5,1.6c.4,0,.8,-.2,1.2,-.5c.3,-.3,.7,-.8,1,-1.4l-.1,-.1c-.3,.4,-1,1.3,-1.4,1.3c-.2,0,-.3,-.3,-.3,-.5c0,-.9,.6,-2.5,1,-3.5l.7,-1.8h-1l-.3,.7c-.2,-.5,-.4,-.8,-1,-.8Zm.1,.3c.7,0,.5,1.3,.4,1.8c0,.3,-.2,.7,-.3,1c-.3,1.2,-1.4,3.1,-2.2,3.1c-.6,0,-.8,-.9,-.8,-1.4c0,-.5,0,-.9,.2,-1.4c.4,-1,1.4,-3.1,2.7,-3.1Z" class="g0_91"/>
<path d="M432,577.4c-.8,0,-1.3,-.7,-1.3,-1.4c0,-.5,.3,-.9,.8,-.9c-.1,-.3,-.4,-.5,-.7,-.5c-.2,0,-.3,.1,-.5,.1c-.4,.2,-.7,.6,-.7,1.2c0,.2,.1,.5,.2,.7c.4,.6,1.2,1,2.2,1c.8,0,1.4,-.2,1.8,-.6c.4,-.3,.8,-.8,.8,-1.5c0,-.3,-.1,-.5,-.2,-.7c-.2,-.7,-.8,-1.1,-1.5,-1.3v-.1c.4,-.1,.8,-.3,1,-.6c.2,-.3,.4,-.7,.4,-1.2c0,-.2,0,-.5,-.1,-.7c-.4,-.7,-1.2,-1,-2.2,-1c-.6,0,-1.1,.1,-1.5,.3c-.3,.3,-.6,.6,-.6,1.1c0,.3,.1,.5,.3,.7c.1,.2,.4,.3,.7,.3c.2,0,.3,0,.5,-.1c.1,-.1,.2,-.2,.2,-.3c-.4,0,-.7,-.3,-.7,-.7c0,-.6,.5,-1.1,1.1,-1.1c.8,0,1.2,.7,1.2,1.6c0,.9,-.3,1.7,-1.1,1.7c-.2,0,-.4,-.1,-.6,-.1c-.2,0,-.5,.1,-.5,.3c0,.2,.3,.3,.5,.3c.3,0,.5,-.1,.7,-.2c.9,0,1.1,.8,1.1,1.7c0,1,-.4,2,-1.3,2Z" class="g0_91"/>
<path d="M438.1,577.4c-.8,0,-1.3,-.7,-1.3,-1.4c0,-.5,.3,-.9,.8,-.9c-.1,-.3,-.4,-.5,-.7,-.5c-.2,0,-.3,.1,-.5,.1c-.4,.2,-.7,.6,-.7,1.2c0,.2,.1,.5,.2,.7c.4,.6,1.2,1,2.2,1c.8,0,1.4,-.2,1.8,-.6c.4,-.3,.8,-.8,.8,-1.5c0,-.3,-.1,-.5,-.2,-.7c-.2,-.7,-.8,-1.1,-1.5,-1.3v-.1c.4,-.1,.8,-.3,1,-.6c.2,-.3,.4,-.7,.4,-1.2c0,-.2,0,-.5,-.1,-.7c-.4,-.7,-1.2,-1,-2.2,-1c-.6,0,-1.1,.1,-1.5,.3c-.3,.3,-.6,.6,-.6,1.1c0,.3,.1,.5,.3,.7c.1,.2,.4,.3,.7,.3c.2,0,.3,0,.5,-.1c.1,-.1,.2,-.2,.2,-.3c-.4,0,-.7,-.3,-.7,-.7c0,-.6,.5,-1.1,1.1,-1.1c.8,0,1.2,.7,1.2,1.6c0,.9,-.3,1.7,-1.1,1.7c-.2,0,-.4,-.1,-.6,-.1c-.2,0,-.5,.1,-.5,.3c0,.2,.3,.3,.5,.3c.3,0,.5,-.1,.7,-.2c.9,0,1.1,.8,1.1,1.7c0,1,-.4,2,-1.3,2Z" class="g0_91"/>
<path d="M442.5,527.8c0,.1,.1,.3,.1,.4c3.2,5.4,4,19.1,4,20.3v.7H448v-.7c0,-1.5,-.6,-15.4,-5.3,-20.7c0,-.1,-.1,-.1,-.1,-.1c-.1,0,-.1,.1,-.1,.1Z" class="g0_91"/>
<path d="M446.6,558.5H448v-9.6h-1.4Z" class="g0_91"/>
<path d="M442.5,579.6q0,.1,.1,.1c0,0,.1,0,.1,0c4.7,-5.4,5.3,-19.2,5.3,-20.8v-.7h-1.4v.7c0,1.2,-.8,14.9,-4,20.3c0,.2,-.1,.3,-.1,.4Z" class="g0_91"/>
<path d="M460.7,557l-3.3,-3.3l3.3,-3.3l-.6,-.6l-3.3,3.3l-3.3,-3.3l-.6,.6l3.3,3.3l-3.3,3.3l.6,.6l3.3,-3.3l3.3,3.3l.6,-.6Z" class="g0_91"/>
<path d="M471.1,527.8c0,0,0,-.1,-.1,-.1l-.1,.1c-4.7,5.3,-5.3,19.2,-5.3,20.7v.7H467v-.7c0,-1.2,.8,-14.9,4,-20.3c.1,-.1,.1,-.3,.1,-.4Z" class="g0_91"/>
<path d="M465.6,558.5H467v-9.6h-1.4Z" class="g0_91"/>
<path d="M471.1,579.6c0,-.1,0,-.2,-.1,-.4c-3.2,-5.4,-4,-19.1,-4,-20.3v-.7h-1.4v.7c0,1.6,.6,15.4,5.3,20.8q.1,0,.1,0q.1,0,.1,-.1Z" class="g0_91"/>
<path d="M478.8,533.8c0,-.5,-.5,-.9,-1,-.9c-.3,0,-.6,.1,-1,.3c-.3,.2,-.6,.5,-.8,.9c0,-.7,-.4,-1.2,-1.1,-1.2c-1.1,0,-2.1,1.2,-2.4,1.9l.2,.2c.4,-.5,1.1,-1.8,2,-1.8c.3,0,.4,.6,.4,1c0,.3,-.1,.7,-.2,1.2l-.4,1.2c-.1,.5,-.4,1.3,-.7,1.7c-.2,.3,-.4,.7,-.8,.7c-.4,0,-.7,-.1,-.6,-.5c.1,-.3,0,-.7,-.4,-.7c-.5,0,-.6,.3,-.6,.7c0,.6,.4,1,1,1c1,0,1.8,-.8,2.1,-1.5h.1c.1,.9,.5,1.5,1.3,1.5c1.2,0,2,-1.2,2.5,-1.9l-.2,-.1c-.5,.6,-1.2,1.6,-2,1.6c-.4,0,-.7,-.6,-.7,-1.2c0,-.3,.1,-.8,.2,-1.3l.2,-.8c.1,-.5,.4,-1.2,.6,-1.6c.2,-.3,.6,-.9,1,-.9c.4,0,.4,.3,.3,.6c0,.4,.2,.6,.5,.6c.4,0,.5,-.3,.5,-.7Z" class="g0_91"/>
<path d="M480.3,534.6v.2c.4,0,.9,0,1,.1c.3,.2,.3,.3,.3,.8v4.7c0,.2,0,.4,0,.6c-.1,.5,-.7,.5,-1.2,.6v.1h3.4v-.1c-.3,-.1,-.9,-.1,-1,-.3c-.2,-.2,-.2,-.5,-.2,-.9v-6.3c-.6,.3,-1.5,.5,-2.3,.5Z" class="g0_91"/>
<path d="M478.8,551.7c0,-.5,-.5,-.9,-1,-.9c-.3,0,-.6,.1,-1,.3c-.3,.2,-.6,.5,-.8,.9c0,-.7,-.4,-1.2,-1.1,-1.2c-1.1,0,-2.1,1.2,-2.4,1.9l.2,.2c.4,-.5,1.1,-1.8,2,-1.8c.3,0,.4,.6,.4,1c0,.3,-.1,.7,-.2,1.2l-.4,1.2c-.1,.5,-.4,1.3,-.7,1.7c-.2,.3,-.4,.7,-.8,.7c-.4,0,-.7,-.1,-.6,-.5c.1,-.3,0,-.7,-.4,-.7c-.5,0,-.6,.3,-.6,.7c0,.6,.4,1,1,1c1,0,1.8,-.8,2.1,-1.5h.1c.1,.9,.5,1.5,1.3,1.5c1.2,0,2,-1.2,2.5,-1.9l-.2,-.1c-.5,.6,-1.2,1.6,-2,1.6c-.4,0,-.7,-.6,-.7,-1.2c0,-.3,.1,-.8,.2,-1.3l.2,-.8c.1,-.5,.4,-1.2,.6,-1.6c.2,-.3,.6,-.9,1,-.9c.4,0,.4,.3,.3,.6c0,.4,.2,.6,.5,.6c.4,0,.5,-.3,.5,-.7Z" class="g0_91"/>
<path d="M481.5,555c-.6,0,-1,-.5,-1,-1.2c0,-.8,.4,-1.6,1.3,-1.6c1.2,0,1.3,1,1.3,1.9c0,.9,-.3,1.4,-.7,2.1c-.3,.4,-.7,.9,-1.1,1.3c-.5,.6,-1.1,1.1,-1.9,1.8v.3H484l.4,-2.1H484c0,.3,-.1,.4,-.2,.6c-.1,.4,-.5,.6,-1,.6h-2.1v-.1c.5,-.3,1,-.7,1.4,-1.1c.7,-.6,1.5,-1.3,1.9,-2.2c.2,-.4,.3,-.8,.3,-1.2c0,-.3,-.1,-.6,-.2,-.9c-.3,-.7,-1.1,-1.2,-2.2,-1.2c-.7,0,-1.3,.2,-1.7,.5c-.4,.4,-.7,.9,-.7,1.5c0,.5,.2,.8,.4,1.1c.2,.2,.5,.4,.9,.4c.4,0,.7,-.2,.7,-.5Z" class="g0_91"/>
<path d="M478.8,569.6c0,-.5,-.5,-.9,-1,-.9c-.3,0,-.6,.1,-1,.3c-.3,.2,-.6,.5,-.8,.9c0,-.7,-.4,-1.2,-1.1,-1.2c-1.1,0,-2.1,1.2,-2.4,1.9l.2,.2c.4,-.5,1.1,-1.8,2,-1.8c.3,0,.4,.6,.4,1c0,.3,-.1,.7,-.2,1.2l-.4,1.2c-.1,.5,-.4,1.3,-.7,1.7c-.2,.3,-.4,.7,-.8,.7c-.4,0,-.7,-.1,-.6,-.5c.1,-.3,0,-.7,-.4,-.7c-.5,0,-.6,.3,-.6,.7c0,.6,.4,1,1,1c1,0,1.8,-.8,2.1,-1.5l.1,.1c.1,.8,.5,1.4,1.3,1.4c1.2,0,2,-1.2,2.5,-1.9l-.2,-.1c-.5,.6,-1.2,1.6,-2,1.6c-.4,0,-.7,-.6,-.7,-1.2c0,-.3,.1,-.8,.2,-1.3l.2,-.8c.1,-.5,.4,-1.2,.6,-1.6c.2,-.3,.6,-.9,1,-.9c.4,0,.4,.3,.3,.6c0,.4,.2,.6,.5,.6c.4,0,.5,-.3,.5,-.7Z" class="g0_91"/>
<path d="M481.8,577.4c-.8,0,-1.3,-.7,-1.3,-1.4c0,-.5,.3,-.9,.8,-.9c0,-.3,-.4,-.5,-.7,-.5c-.2,0,-.3,.1,-.5,.1c-.4,.2,-.7,.6,-.7,1.2c0,.2,.1,.5,.2,.7c.4,.6,1.2,1,2.2,1c.8,0,1.4,-.2,1.8,-.6c.4,-.3,.8,-.8,.8,-1.5c0,-.3,-.1,-.5,-.2,-.7c-.2,-.7,-.8,-1.1,-1.5,-1.3v-.1c.4,-.1,.8,-.3,1,-.6c.3,-.3,.4,-.7,.4,-1.2c0,-.2,0,-.5,-.1,-.7c-.4,-.7,-1.2,-1,-2.2,-1c-.6,0,-1.1,.1,-1.5,.3c-.3,.3,-.6,.6,-.6,1.1c0,.3,.1,.5,.3,.7c.2,.2,.4,.3,.7,.3c.2,0,.3,0,.5,-.1c.1,-.1,.2,-.2,.2,-.3c-.4,0,-.7,-.3,-.7,-.7c0,-.6,.5,-1.1,1.1,-1.1c.8,0,1.2,.7,1.2,1.6c0,.9,-.3,1.7,-1.1,1.7c-.2,0,-.4,-.1,-.6,-.1c-.2,0,-.5,.1,-.5,.3c0,.2,.3,.3,.5,.3c.3,0,.5,-.1,.7,-.2c.9,0,1.1,.8,1.1,1.7c0,1,-.4,2,-1.3,2Z" class="g0_91"/>
<path d="M486.2,527.8c0,.1,.1,.3,.1,.4c3.2,5.4,4,19.1,4,20.3v.7h1.4v-.7c0,-1.5,-.5,-15.4,-5.3,-20.7c0,-.1,-.1,-.1,-.1,-.1c0,0,-.1,.1,-.1,.1Z" class="g0_91"/>
<path d="M490.3,558.5h1.4v-9.6h-1.4Z" class="g0_91"/>
<path d="M486.2,579.6c0,.1,.1,.1,.1,.1c0,0,.1,0,.1,0c4.8,-5.4,5.3,-19.2,5.3,-20.8v-.7h-1.4v.7c0,1.2,-.8,14.9,-4,20.3c0,.2,-.1,.3,-.1,.4Z" class="g0_91"/>
<path d="M497.2,555.6h7.6v-.8h-7.6Zm0,-3h7.6v-.8h-7.6Z" class="g0_91"/>
<path d="M515.8,527.8c0,0,0,-.1,-.1,-.1v.1c-4.8,5.3,-5.4,19.2,-5.4,20.7v.7h1.4v-.7c0,-1.2,.8,-14.9,4,-20.3c.1,-.1,.1,-.3,.1,-.4Z" class="g0_91"/>
<path d="M510.3,558.5h1.4v-9.6h-1.4Z" class="g0_91"/>
<path d="M515.8,579.6c0,-.1,0,-.2,-.1,-.4c-3.2,-5.4,-4,-19.1,-4,-20.3v-.7h-1.4v.7c0,1.6,.6,15.4,5.4,20.8q.1,0,.1,-.1Z" class="g0_91"/>
<path d="M520.3,533.2c1.2,0,.9,1.9,.4,3.2c-.4,.9,-1.3,2.8,-2.4,2.8c-.5,0,-.7,-.3,-.7,-1c0,-.7,.2,-1.8,.5,-2.4c.2,-.6,.7,-1.6,1.1,-2c.3,-.3,.6,-.6,1.1,-.6Zm-2.2,6.3c1.6,0,2.8,-1.5,3.4,-2.6c.3,-.6,.6,-1.4,.6,-2.3c0,-1,-.5,-1.7,-1.5,-1.7c-.9,0,-1.6,.5,-2,1.2V534l1.5,-5.5h-2l-.1,.2c.6,0,.9,.3,.9,.6c0,.2,-.1,.6,-.2,.8l-1.6,5.6c-.2,.6,-.3,1,-.4,1.4c0,.4,-.1,.7,-.1,.9c0,.9,.6,1.5,1.5,1.5Z" class="g0_91"/>
<path d="M524,534.6v.2c.3,0,.8,0,1,.1c.3,.2,.3,.3,.3,.8v4.7c0,.2,0,.4,-.1,.6c0,.5,-.6,.5,-1.1,.6v.1h3.4v-.1c-.4,-.1,-.9,-.1,-1.1,-.3c-.1,-.2,-.2,-.5,-.2,-.9v-6.3c-.5,.3,-1.5,.5,-2.2,.5Z" class="g0_91"/>
<path d="M520.3,551.1c1.2,0,.9,1.9,.4,3.2c-.4,.9,-1.3,2.8,-2.4,2.8c-.5,0,-.7,-.3,-.7,-1c0,-.7,.2,-1.8,.5,-2.4c.2,-.6,.7,-1.6,1.1,-2c.3,-.3,.6,-.6,1.1,-.6Zm-2.2,6.3c1.6,0,2.8,-1.5,3.4,-2.6c.3,-.6,.6,-1.4,.6,-2.3c0,-1,-.5,-1.7,-1.5,-1.7c-.9,0,-1.6,.5,-2,1.2v-.1l1.5,-5.5h-2l-.1,.2c.6,0,.9,.3,.9,.6c0,.2,-.1,.6,-.2,.8l-1.6,5.6c-.2,.6,-.3,1,-.4,1.4c0,.4,-.1,.7,-.1,.9c0,.9,.6,1.5,1.5,1.5Z" class="g0_91"/>
<path d="M525.2,555c-.7,0,-1.1,-.5,-1.1,-1.2c0,-.8,.4,-1.6,1.3,-1.6c1.2,0,1.4,1,1.4,1.9c0,.9,-.3,1.4,-.7,2.1c-.3,.4,-.7,.9,-1.2,1.3c-.5,.6,-1.1,1.1,-1.8,1.8v.3h4.5l.4,-2.1h-.3c-.1,.3,-.2,.4,-.2,.6c-.2,.4,-.5,.6,-1,.6h-2.1l-.1,-.1c.5,-.3,1,-.7,1.4,-1.1c.8,-.6,1.6,-1.3,2,-2.2c.2,-.4,.2,-.8,.2,-1.2c0,-.3,0,-.6,-.1,-.9c-.4,-.7,-1.1,-1.2,-2.2,-1.2c-.7,0,-1.3,.2,-1.7,.5c-.4,.4,-.7,.9,-.7,1.5c0,.5,.1,.8,.3,1.1c.2,.2,.5,.4,.9,.4c.4,0,.7,-.2,.8,-.5Z" class="g0_91"/>
<path d="M520.3,569c1.2,0,.9,1.9,.4,3.2c-.4,.9,-1.3,2.8,-2.4,2.8c-.5,0,-.7,-.3,-.7,-1c0,-.7,.2,-1.8,.5,-2.4c.2,-.6,.7,-1.6,1.1,-2c.3,-.3,.6,-.6,1.1,-.6Zm-2.2,6.3c1.6,0,2.8,-1.5,3.4,-2.6c.3,-.6,.6,-1.4,.6,-2.3c0,-1,-.5,-1.7,-1.5,-1.7c-.9,0,-1.6,.5,-2,1.2v-.1l1.5,-5.5h-2l-.1,.2c.6,0,.9,.3,.9,.6c0,.2,-.1,.6,-.2,.8l-1.6,5.6c-.2,.6,-.3,1,-.4,1.4c0,.4,-.1,.7,-.1,.9c0,.9,.6,1.5,1.5,1.5Z" class="g0_91"/>
<path d="M525.4,577.4c-.7,0,-1.3,-.7,-1.3,-1.4c0,-.5,.4,-.9,.9,-.9c-.1,-.3,-.4,-.5,-.8,-.5c-.1,0,-.3,.1,-.4,.1c-.4,.2,-.7,.6,-.7,1.2c0,.2,0,.5,.2,.7c.3,.6,1.1,1,2.1,1c.8,0,1.4,-.2,1.9,-.6c.4,-.3,.7,-.8,.7,-1.5c0,-.3,0,-.5,-.1,-.7c-.3,-.7,-.8,-1.1,-1.6,-1.3v-.1c.5,-.1,.8,-.3,1.1,-.6c.2,-.3,.4,-.7,.4,-1.2c0,-.2,-.1,-.5,-.2,-.7c-.3,-.7,-1.1,-1,-2.1,-1c-.6,0,-1.2,.1,-1.6,.3c-.3,.3,-.5,.6,-.5,1.1c0,.3,.1,.5,.3,.7c.1,.2,.4,.3,.7,.3c.1,0,.3,0,.4,-.1c.2,-.1,.2,-.2,.3,-.3c-.5,0,-.8,-.3,-.8,-.7c0,-.6,.5,-1.1,1.2,-1.1c.7,0,1.1,.7,1.1,1.6c0,.9,-.2,1.7,-1,1.7c-.2,0,-.4,-.1,-.6,-.1c-.2,0,-.6,.1,-.6,.3c0,.2,.4,.3,.6,.3c.2,0,.5,-.1,.7,-.2c.8,0,1.1,.8,1.1,1.7c0,1,-.4,2,-1.4,2Z" class="g0_91"/>
<path d="M529.9,527.8c0,.1,0,.3,.1,.4c3.2,5.4,4,19.1,4,20.3v.7h1.3v-2.1c-.2,-4.1,-1.2,-14.8,-5.3,-19.3q0,-.1,0,-.1h-.1c0,0,0,.1,0,.1Z" class="g0_91"/>
<path d="M534,558.5h1.3v-9.6H534Z" class="g0_91"/>
<path d="M529.9,579.6q0,.1,0,.1h.1c4.1,-4.6,5.1,-15.3,5.3,-19.3v-2.2H534v.7c0,1.2,-.8,14.9,-4,20.3c-.1,.2,-.1,.3,-.1,.4Z" class="g0_91"/>
<path d="M350.5,659.1c0,0,0,-.1,0,-.1q-.1,0,-.1,.1c-4.8,5.3,-5.4,19.1,-5.4,20.7v.7h1.4v-.7c0,-1.2,.8,-14.9,4,-20.3c.1,-.2,.1,-.3,.1,-.4Z" class="g0_91"/>
<path d="M345,689.7h1.4v-9.6H345Z" class="g0_91"/>
<path d="M350.5,710.9c0,-.1,0,-.2,-.1,-.4c-3.2,-5.4,-4,-19.1,-4,-20.3v-.7H345v.7c0,1.6,.6,15.4,5.4,20.7q0,.1,.1,.1c0,0,0,-.1,0,-.1Z" class="g0_91"/>
<path d="M355.5,664.2c-.4,0,-.8,.1,-1.3,.4c-.4,.3,-.8,.7,-1.2,1.2c-.7,.7,-1.3,1.9,-1.3,3.2c0,1,.4,1.8,1.3,1.8c1.3,0,1.8,-.9,2.2,-1.6c-.2,.9,0,1.6,.6,1.6c.3,0,.7,-.2,1.1,-.5c.4,-.3,.8,-.8,1.1,-1.4l-.2,-.1c-.3,.4,-.9,1.3,-1.3,1.3c-.2,0,-.3,-.3,-.3,-.5c0,-.9,.6,-2.5,.9,-3.5l.7,-1.8h-1l-.2,.7c-.2,-.5,-.5,-.8,-1.1,-.8Zm.2,.2c.7,0,.5,1.4,.4,1.9c-.1,.3,-.2,.7,-.3,1c-.4,1.2,-1.5,3.1,-2.3,3.1c-.6,0,-.7,-.9,-.7,-1.4c0,-.5,0,-.9,.2,-1.4c.3,-1,1.4,-3.2,2.7,-3.2Z" class="g0_91"/>
<path d="M359.9,665.9v.2c.3,0,.8,0,1,.1c.3,.2,.3,.3,.3,.7v4.8c0,.2,0,.4,0,.6c-.1,.5,-.7,.5,-1.2,.6v.1h3.4v-.1c-.4,-.1,-.9,-.1,-1.1,-.3c-.1,-.2,-.1,-.6,-.1,-1v-6.2c-.6,.3,-1.6,.5,-2.3,.5Z" class="g0_91"/>
<path d="M366,665.9v.2c.3,0,.8,0,1,.1c.3,.2,.3,.3,.3,.7v4.8c0,.2,0,.4,0,.6c-.1,.5,-.7,.5,-1.2,.6v.1h3.4v-.1c-.4,-.1,-.9,-.1,-1.1,-.3c-.1,-.2,-.1,-.6,-.1,-1v-6.2c-.6,.3,-1.6,.5,-2.3,.5Z" class="g0_91"/>
<path d="M390.8,664.2c-.4,0,-.8,.1,-1.3,.4c-.4,.3,-.8,.7,-1.2,1.2c-.6,.7,-1.3,1.9,-1.3,3.2c0,1,.4,1.8,1.4,1.8c1.2,0,1.7,-.9,2.1,-1.6h.1c-.3,.9,-.1,1.6,.5,1.6c.4,0,.7,-.2,1.1,-.5c.4,-.3,.8,-.8,1.1,-1.4l-.2,-.1c-.2,.4,-.9,1.3,-1.3,1.3c-.2,0,-.3,-.3,-.3,-.5c0,-.9,.6,-2.5,1,-3.5l.7,-1.8h-1l-.3,.7c-.2,-.5,-.5,-.8,-1.1,-.8Zm.2,.2c.7,0,.5,1.4,.4,1.9c0,.3,-.2,.7,-.3,1c-.4,1.2,-1.4,3.1,-2.2,3.1c-.6,0,-.8,-.9,-.8,-1.4c0,-.5,0,-.9,.2,-1.4c.4,-1,1.4,-3.2,2.7,-3.2Z" class="g0_91"/>
<path d="M395.2,665.9v.2c.3,0,.8,0,1,.1c.3,.2,.3,.3,.3,.7v4.8c0,.2,0,.4,0,.6c-.1,.5,-.7,.5,-1.2,.6v.1h3.4v-.1c-.4,-.1,-.9,-.1,-1.1,-.3c-.1,-.2,-.1,-.6,-.1,-1v-6.2c-.6,.3,-1.6,.5,-2.3,.5Z" class="g0_91"/>
<path d="M402.5,668.3c-.7,0,-1.1,-.4,-1.1,-1.1c0,-.8,.5,-1.6,1.4,-1.6c1.2,0,1.3,.9,1.3,1.9c0,.9,-.3,1.4,-.7,2.1c-.3,.4,-.7,.8,-1.2,1.3c-.4,.5,-1.1,1.1,-1.8,1.8v.3H405l.3,-2.1H405c0,.2,-.1,.4,-.2,.6c-.2,.4,-.5,.5,-1,.5h-2.1c.4,-.4,.9,-.7,1.3,-1.1c.8,-.6,1.6,-1.3,2,-2.2c.2,-.4,.3,-.8,.3,-1.2c0,-.3,-.1,-.6,-.2,-.9c-.4,-.7,-1.1,-1.2,-2.2,-1.2c-.7,0,-1.3,.2,-1.7,.5c-.4,.4,-.7,.8,-.7,1.5c0,.5,.1,.8,.4,1c.2,.3,.4,.5,.9,.5c.4,0,.6,-.2,.7,-.6Z" class="g0_91"/>
<path d="M426.2,664.2c-.5,0,-.9,.1,-1.4,.4c-.4,.3,-.8,.7,-1.2,1.2c-.6,.7,-1.2,1.9,-1.2,3.2c0,1,.3,1.8,1.3,1.8c1.3,0,1.8,-.9,2.1,-1.6h.1c-.2,.9,-.1,1.6,.5,1.6c.4,0,.8,-.2,1.2,-.5c.3,-.3,.7,-.8,1,-1.4l-.1,-.1c-.3,.4,-1,1.3,-1.4,1.3c-.2,0,-.3,-.3,-.3,-.5c0,-.9,.6,-2.5,1,-3.5l.7,-1.8h-1l-.3,.7c-.2,-.5,-.5,-.8,-1,-.8Zm.1,.2c.7,0,.5,1.4,.4,1.9c0,.3,-.2,.7,-.3,1c-.3,1.2,-1.4,3.1,-2.2,3.1c-.6,0,-.8,-.9,-.8,-1.4c0,-.5,0,-.9,.2,-1.4c.4,-1,1.4,-3.2,2.7,-3.2Z" class="g0_91"/>
<path d="M430.5,665.9v.2c.4,0,.8,0,1,.1c.3,.2,.3,.3,.3,.7v4.8c0,.2,0,.4,0,.6c-.1,.5,-.7,.5,-1.2,.6v.1H434v-.1c-.3,-.1,-.9,-.1,-1,-.3c-.2,-.2,-.2,-.6,-.2,-1v-6.2c-.6,.3,-1.6,.5,-2.3,.5Z" class="g0_91"/>
<path d="M438.1,672.9c-.8,0,-1.3,-.7,-1.3,-1.4c0,-.5,.3,-1,.8,-1c-.1,-.2,-.4,-.4,-.7,-.4c-.2,0,-.3,.1,-.5,.1c-.4,.2,-.7,.6,-.7,1.2c0,.2,.1,.4,.2,.7c.4,.6,1.2,1,2.2,1c.8,0,1.4,-.3,1.8,-.6c.4,-.3,.8,-.8,.8,-1.5c0,-.3,-.1,-.5,-.2,-.7c-.2,-.7,-.8,-1.1,-1.5,-1.3v-.1c.4,-.1,.8,-.3,1,-.6c.2,-.3,.4,-.7,.4,-1.2c0,-.2,0,-.5,-.1,-.7c-.4,-.7,-1.2,-1,-2.2,-1c-.6,0,-1.1,.1,-1.5,.3c-.3,.2,-.6,.6,-.6,1c0,.4,.1,.6,.3,.8c.1,.2,.4,.3,.7,.3c.2,0,.3,0,.5,-.1c.1,-.1,.2,-.2,.2,-.3c-.4,0,-.7,-.3,-.7,-.7c0,-.6,.5,-1.1,1.1,-1.1c.8,0,1.2,.6,1.2,1.6c0,.8,-.3,1.7,-1.1,1.7c-.2,0,-.4,-.1,-.6,-.1c-.2,0,-.5,0,-.5,.2c0,.3,.3,.4,.5,.4c.3,0,.5,-.2,.7,-.3c.9,0,1.1,.9,1.1,1.8c0,1,-.4,2,-1.3,2Z" class="g0_91"/>
<path d="M361.2,688.4c-1.9,0,-1.9,-2.7,-1.9,-4.9c0,-2.2,0,-5.2,1.9,-5.2c1.9,0,1.9,3,1.9,5.2c0,2.2,0,4.9,-1.9,4.9Zm0,-10.3c-2.6,0,-3.4,2.7,-3.4,5.4c0,2.6,.8,5.2,3.4,5.2c2.6,0,3.4,-2.6,3.4,-5.2c0,-2.7,-.8,-5.4,-3.4,-5.4Z" class="g0_91"/>
<path d="M390.8,682.1c-.4,0,-.8,.1,-1.3,.4c-.4,.3,-.8,.7,-1.2,1.2c-.6,.7,-1.3,1.9,-1.3,3.2c0,1,.4,1.8,1.4,1.8c1.2,0,1.7,-.9,2.1,-1.6h.1c-.3,.9,-.1,1.6,.5,1.6c.4,0,.7,-.2,1.1,-.5c.4,-.3,.8,-.8,1.1,-1.4l-.2,-.1c-.2,.4,-.9,1.3,-1.3,1.3c-.2,0,-.3,-.3,-.3,-.5c0,-.9,.6,-2.5,1,-3.5l.7,-1.8h-1l-.3,.7c-.2,-.5,-.5,-.8,-1.1,-.8Zm.2,.2c.7,0,.5,1.4,.4,1.9c0,.3,-.2,.7,-.3,1c-.4,1.2,-1.4,3.1,-2.2,3.1c-.6,0,-.8,-.9,-.8,-1.4c0,-.5,0,-.9,.2,-1.4c.4,-1,1.4,-3.2,2.7,-3.2Z" class="g0_91"/>
<path d="M396.4,686.2c-.7,0,-1.1,-.4,-1.1,-1.1c0,-.8,.5,-1.6,1.4,-1.6c1.2,0,1.3,.9,1.3,1.9c0,.9,-.3,1.4,-.7,2.1c-.3,.4,-.7,.8,-1.2,1.3c-.4,.5,-1.1,1.1,-1.8,1.8v.3h4.6l.3,-2.1h-.3c0,.2,-.1,.4,-.2,.6c-.2,.4,-.5,.5,-1,.5h-2.1c.4,-.4,.9,-.7,1.3,-1.1c.8,-.6,1.6,-1.3,2,-2.2c.2,-.4,.3,-.8,.3,-1.2c0,-.3,-.1,-.6,-.2,-.9c-.4,-.7,-1.1,-1.2,-2.2,-1.2c-.7,0,-1.3,.2,-1.7,.5c-.4,.4,-.7,.8,-.7,1.5c0,.5,.1,.8,.4,1c.2,.3,.4,.5,.9,.5c.4,0,.7,-.2,.7,-.6Z" class="g0_91"/>
<path d="M402.5,686.2c-.7,0,-1.1,-.4,-1.1,-1.1c0,-.8,.5,-1.6,1.4,-1.6c1.2,0,1.3,.9,1.3,1.9c0,.9,-.3,1.4,-.7,2.1c-.3,.4,-.7,.8,-1.2,1.3c-.4,.5,-1.1,1.1,-1.8,1.8v.3H405l.3,-2.1H405c0,.2,-.1,.4,-.2,.6c-.2,.4,-.5,.5,-1,.5h-2.1c.4,-.4,.9,-.7,1.3,-1.1c.8,-.6,1.6,-1.3,2,-2.2c.2,-.4,.3,-.8,.3,-1.2c0,-.3,-.1,-.6,-.2,-.9c-.4,-.7,-1.1,-1.2,-2.2,-1.2c-.7,0,-1.3,.2,-1.7,.5c-.4,.4,-.7,.8,-.7,1.5c0,.5,.1,.8,.4,1c.2,.3,.4,.5,.9,.5c.4,0,.6,-.2,.7,-.6Z" class="g0_91"/>
<path d="M426.2,682.1c-.5,0,-.9,.1,-1.4,.4c-.4,.3,-.8,.7,-1.2,1.2c-.6,.7,-1.2,1.9,-1.2,3.2c0,1,.3,1.8,1.3,1.8c1.3,0,1.8,-.9,2.1,-1.6h.1c-.2,.9,-.1,1.6,.5,1.6c.4,0,.8,-.2,1.2,-.5c.3,-.3,.7,-.8,1,-1.4l-.1,-.1c-.3,.4,-1,1.3,-1.4,1.3c-.2,0,-.3,-.3,-.3,-.5c0,-.9,.6,-2.5,1,-3.5l.7,-1.8h-1l-.3,.7c-.2,-.5,-.5,-.8,-1,-.8Zm.1,.2c.7,0,.5,1.4,.4,1.9c0,.3,-.2,.7,-.3,1c-.3,1.2,-1.4,3.1,-2.2,3.1c-.6,0,-.8,-.9,-.8,-1.4c0,-.5,0,-.9,.2,-1.4c.4,-1,1.4,-3.2,2.7,-3.2Z" class="g0_91"/>
<path d="M431.7,686.2c-.6,0,-1,-.4,-1,-1.1c0,-.8,.4,-1.6,1.3,-1.6c1.2,0,1.3,.9,1.3,1.9c0,.9,-.3,1.4,-.7,2.1c-.3,.4,-.7,.8,-1.1,1.3c-.5,.5,-1.1,1.1,-1.9,1.8v.3h4.6l.3,-2.1h-.3c0,.2,-.1,.4,-.2,.6c-.1,.4,-.5,.5,-1,.5h-2.1c.5,-.4,.9,-.7,1.4,-1.1c.7,-.6,1.5,-1.3,1.9,-2.2c.2,-.4,.3,-.8,.3,-1.2c0,-.3,-.1,-.6,-.2,-.9c-.3,-.7,-1.1,-1.2,-2.2,-1.2c-.7,0,-1.3,.2,-1.7,.5c-.4,.4,-.7,.8,-.7,1.5c0,.5,.1,.8,.4,1c.2,.3,.5,.5,.9,.5c.4,0,.7,-.2,.7,-.6Z" class="g0_91"/>
<path d="M438.1,690.8c-.8,0,-1.3,-.7,-1.3,-1.4c0,-.5,.3,-1,.8,-1c-.1,-.2,-.4,-.4,-.7,-.4c-.2,0,-.3,.1,-.5,.1c-.4,.2,-.7,.6,-.7,1.2c0,.2,.1,.4,.2,.7c.4,.6,1.2,1,2.2,1c.8,0,1.4,-.3,1.8,-.6c.4,-.3,.8,-.8,.8,-1.5c0,-.3,-.1,-.5,-.2,-.7c-.2,-.7,-.8,-1.1,-1.5,-1.3v-.1c.4,-.1,.8,-.3,1,-.6c.2,-.3,.4,-.7,.4,-1.2c0,-.2,0,-.5,-.1,-.7c-.4,-.7,-1.2,-1,-2.2,-1c-.6,0,-1.1,.1,-1.5,.3c-.3,.3,-.6,.6,-.6,1c0,.4,.1,.6,.3,.8c.1,.2,.4,.3,.7,.3c.2,0,.3,0,.5,-.1c.1,-.1,.2,-.2,.2,-.3c-.4,0,-.7,-.3,-.7,-.7c0,-.6,.5,-1.1,1.1,-1.1c.8,0,1.2,.6,1.2,1.6c0,.8,-.3,1.7,-1.1,1.7c-.2,0,-.4,-.1,-.6,-.1c-.2,0,-.5,0,-.5,.2c0,.3,.3,.4,.5,.4c.3,0,.5,-.2,.7,-.2c.9,0,1.1,.8,1.1,1.7c0,1,-.4,2,-1.3,2Z" class="g0_91"/>
<path d="M361.2,706.3c-1.9,0,-1.9,-2.7,-1.9,-4.9c0,-2.2,0,-5.2,1.9,-5.2c1.9,0,1.9,3,1.9,5.2c0,2.2,0,4.9,-1.9,4.9Zm0,-10.3c-2.6,0,-3.4,2.7,-3.4,5.4c0,2.6,.8,5.2,3.4,5.2c2.6,0,3.4,-2.6,3.4,-5.2c0,-2.7,-.8,-5.4,-3.4,-5.4Z" class="g0_91"/>
<path d="M396.5,706.3c-1.9,0,-1.9,-2.7,-1.9,-4.9c0,-2.2,0,-5.2,1.9,-5.2c1.9,0,1.9,3,1.9,5.2c0,2.2,0,4.9,-1.9,4.9Zm0,-10.3c-2.6,0,-3.4,2.7,-3.4,5.4c0,2.6,.9,5.2,3.4,5.2c2.6,0,3.4,-2.6,3.4,-5.2c0,-2.7,-.8,-5.4,-3.4,-5.4Z" class="g0_91"/>
<path d="M426.2,700c-.5,0,-.9,.1,-1.4,.4c-.4,.3,-.8,.7,-1.2,1.2c-.6,.7,-1.2,1.9,-1.2,3.2c0,1,.3,1.8,1.3,1.8c1.3,0,1.8,-.9,2.1,-1.6h.1c-.2,.9,-.1,1.6,.5,1.6c.4,0,.8,-.2,1.2,-.5c.3,-.3,.7,-.8,1,-1.4l-.1,-.1c-.3,.4,-1,1.3,-1.4,1.3c-.2,0,-.3,-.3,-.3,-.5c0,-.9,.6,-2.5,1,-3.5l.7,-1.8h-1l-.3,.7c-.2,-.5,-.5,-.8,-1,-.8Zm.1,.2c.7,0,.5,1.4,.4,1.9c0,.3,-.2,.7,-.3,1c-.3,1.2,-1.4,3.1,-2.2,3.1c-.6,0,-.8,-.9,-.8,-1.4c0,-.5,0,-.9,.2,-1.4c.4,-1,1.4,-3.2,2.7,-3.2Z" class="g0_91"/>
<path d="M432,708.7c-.8,0,-1.3,-.7,-1.3,-1.4c0,-.5,.3,-1,.8,-1c-.1,-.2,-.4,-.4,-.7,-.4c-.2,0,-.3,.1,-.5,.1c-.4,.2,-.7,.6,-.7,1.2c0,.2,.1,.4,.2,.7c.4,.6,1.2,1,2.2,1c.8,0,1.4,-.3,1.8,-.6c.4,-.3,.8,-.8,.8,-1.5c0,-.3,-.1,-.5,-.2,-.7c-.2,-.7,-.8,-1.1,-1.5,-1.3v-.1c.4,-.1,.8,-.3,1,-.6c.2,-.3,.4,-.7,.4,-1.2c0,-.2,0,-.5,-.1,-.7c-.4,-.7,-1.2,-1,-2.2,-1c-.6,0,-1.1,.1,-1.5,.3c-.3,.3,-.6,.6,-.6,1c0,.4,.1,.6,.3,.8c.1,.2,.4,.3,.7,.3c.2,0,.3,0,.5,-.1c.1,-.1,.2,-.2,.2,-.3c-.4,0,-.7,-.3,-.7,-.7c0,-.6,.5,-1.1,1.1,-1.1c.8,0,1.2,.6,1.2,1.6c0,.8,-.3,1.7,-1.1,1.7c-.2,0,-.4,-.1,-.6,-.1c-.2,0,-.5,0,-.5,.2c0,.3,.3,.4,.5,.4c.3,0,.5,-.2,.7,-.2c.9,0,1.1,.8,1.1,1.7c0,1,-.4,2,-1.3,2Z" class="g0_91"/>
<path d="M438.1,708.7c-.8,0,-1.3,-.7,-1.3,-1.4c0,-.5,.3,-1,.8,-1c-.1,-.2,-.4,-.4,-.7,-.4c-.2,0,-.3,.1,-.5,.1c-.4,.2,-.7,.6,-.7,1.2c0,.2,.1,.4,.2,.7c.4,.6,1.2,1,2.2,1c.8,0,1.4,-.3,1.8,-.6c.4,-.3,.8,-.8,.8,-1.5c0,-.3,-.1,-.5,-.2,-.7c-.2,-.7,-.8,-1.1,-1.5,-1.3v-.1c.4,-.1,.8,-.3,1,-.6c.2,-.3,.4,-.7,.4,-1.2c0,-.2,0,-.5,-.1,-.7c-.4,-.7,-1.2,-1,-2.2,-1c-.6,0,-1.1,.1,-1.5,.3c-.3,.3,-.6,.6,-.6,1c0,.4,.1,.6,.3,.8c.1,.2,.4,.3,.7,.3c.2,0,.3,0,.5,-.1c.1,-.1,.2,-.2,.2,-.3c-.4,0,-.7,-.3,-.7,-.7c0,-.6,.5,-1.1,1.1,-1.1c.8,0,1.2,.6,1.2,1.6c0,.8,-.3,1.7,-1.1,1.7c-.2,0,-.4,-.1,-.6,-.1c-.2,0,-.5,0,-.5,.2c0,.3,.3,.4,.5,.4c.3,0,.5,-.2,.7,-.2c.9,0,1.1,.8,1.1,1.7c0,1,-.4,2,-1.3,2Z" class="g0_91"/>
<path d="M442.5,659.1c0,.1,.1,.2,.1,.4c3.2,5.4,4,19.1,4,20.3v.7H448v-.7c0,-1.6,-.6,-15.4,-5.3,-20.7c0,-.1,-.1,-.1,-.1,-.1c-.1,0,-.1,.1,-.1,.1Z" class="g0_91"/>
<path d="M446.6,689.7H448v-9.6h-1.4Z" class="g0_91"/>
<path d="M442.5,710.9c0,0,0,.1,.1,.1c0,0,.1,0,.1,-.1c4.7,-5.3,5.3,-19.1,5.3,-20.7v-.7h-1.4v.7c0,1.2,-.8,14.9,-4,20.3c0,.2,-.1,.3,-.1,.4Z" class="g0_91"/>
<path d="M460.7,688.3L457.4,685l3.3,-3.3l-.6,-.6l-3.3,3.3l-3.3,-3.3l-.6,.6l3.3,3.3l-3.3,3.3l.6,.6l3.3,-3.3l3.3,3.3l.6,-.6Z" class="g0_91"/>
<path d="M471.1,659.1c0,0,0,-.1,-.1,-.1l-.1,.1c-4.7,5.3,-5.3,19.1,-5.3,20.7v.7H467v-.7c0,-1.2,.8,-14.9,4,-20.3c.1,-.2,.1,-.3,.1,-.4Z" class="g0_91"/>
<path d="M465.6,689.7H467v-9.6h-1.4Z" class="g0_91"/>
<path d="M471.1,710.9c0,-.1,0,-.2,-.1,-.4c-3.2,-5.4,-4,-19.1,-4,-20.3v-.7h-1.4v.7c0,1.6,.6,15.4,5.3,20.7q.1,.1,.1,.1c.1,0,.1,-.1,.1,-.1Z" class="g0_91"/>
<path d="M478.8,665.1c0,-.5,-.5,-.9,-1,-.9c-.3,0,-.6,.1,-1,.3c-.3,.2,-.6,.5,-.8,.9c0,-.7,-.4,-1.2,-1.1,-1.2c-1.1,0,-2.1,1.1,-2.4,1.9l.2,.1c.4,-.5,1.1,-1.7,2,-1.7c.3,0,.4,.6,.4,1c0,.3,-.1,.7,-.2,1.2l-.4,1.1c-.1,.6,-.4,1.4,-.7,1.8c-.2,.3,-.4,.7,-.8,.7c-.4,0,-.7,-.1,-.6,-.5c.1,-.3,0,-.7,-.4,-.7c-.5,0,-.6,.3,-.6,.7c0,.6,.4,1,1,1c1,0,1.8,-.8,2.1,-1.5h.1c.1,.8,.5,1.5,1.3,1.5c1.2,0,2,-1.2,2.5,-1.9l-.2,-.1c-.5,.6,-1.2,1.6,-2,1.6c-.4,0,-.7,-.6,-.7,-1.2c0,-.4,.1,-.8,.2,-1.4l.2,-.7c.1,-.5,.4,-1.2,.6,-1.6c.2,-.3,.6,-.9,1,-.9c.4,0,.4,.3,.3,.6c0,.4,.2,.6,.5,.6c.4,0,.5,-.3,.5,-.7Z" class="g0_91"/>
<path d="M480.3,665.9v.2c.4,0,.9,0,1,.1c.3,.2,.3,.3,.3,.7v4.8c0,.2,0,.4,0,.6c-.1,.5,-.7,.5,-1.2,.6v.1h3.4v-.1c-.3,-.1,-.9,-.1,-1,-.3c-.2,-.2,-.2,-.6,-.2,-1v-6.2c-.6,.3,-1.5,.5,-2.3,.5Z" class="g0_91"/>
<path d="M478.8,683c0,-.5,-.5,-.9,-1,-.9c-.3,0,-.6,.1,-1,.3c-.3,.2,-.6,.5,-.8,.9c0,-.7,-.4,-1.2,-1.1,-1.2c-1.1,0,-2.1,1.1,-2.4,1.9l.2,.1c.4,-.5,1.1,-1.7,2,-1.7c.3,0,.4,.6,.4,1c0,.3,-.1,.7,-.2,1.2l-.4,1.1c-.1,.6,-.4,1.4,-.7,1.8c-.2,.3,-.4,.7,-.8,.7c-.4,0,-.7,-.1,-.6,-.5c.1,-.3,0,-.7,-.4,-.7c-.5,0,-.6,.3,-.6,.7c0,.6,.4,1,1,1c1,0,1.8,-.8,2.1,-1.5h.1c.1,.8,.5,1.5,1.3,1.5c1.2,0,2,-1.2,2.5,-1.9l-.2,-.1c-.5,.6,-1.2,1.6,-2,1.6c-.4,0,-.7,-.6,-.7,-1.2c0,-.4,.1,-.8,.2,-1.4l.2,-.7c.1,-.5,.4,-1.2,.6,-1.6c.2,-.3,.6,-.9,1,-.9c.4,0,.4,.3,.3,.6c0,.4,.2,.6,.5,.6c.4,0,.5,-.3,.5,-.7Z" class="g0_91"/>
<path d="M481.5,686.2c-.6,0,-1,-.4,-1,-1.1c0,-.8,.4,-1.6,1.3,-1.6c1.2,0,1.3,.9,1.3,1.9c0,.9,-.3,1.4,-.7,2.1c-.3,.4,-.7,.8,-1.1,1.3c-.5,.5,-1.1,1.1,-1.9,1.8v.3H484l.4,-2.1H484c0,.2,-.1,.4,-.2,.6c-.1,.4,-.5,.5,-1,.5h-2.1c.5,-.4,1,-.7,1.4,-1.1c.7,-.6,1.5,-1.3,1.9,-2.2c.2,-.4,.3,-.8,.3,-1.2c0,-.3,-.1,-.6,-.2,-.9c-.3,-.7,-1.1,-1.2,-2.2,-1.2c-.7,0,-1.3,.2,-1.7,.5c-.4,.4,-.7,.8,-.7,1.5c0,.5,.2,.8,.4,1c.2,.3,.5,.5,.9,.5c.4,0,.7,-.2,.7,-.6Z" class="g0_91"/>
<path d="M478.8,700.9c0,-.5,-.5,-.9,-1,-.9c-.3,0,-.6,.1,-1,.3c-.3,.2,-.6,.5,-.8,.9c0,-.7,-.4,-1.2,-1.1,-1.2c-1.1,0,-2.1,1.1,-2.4,1.9l.2,.1c.4,-.5,1.1,-1.7,2,-1.7c.3,0,.4,.6,.4,1c0,.3,-.1,.7,-.2,1.2l-.4,1.1c-.1,.6,-.4,1.4,-.7,1.8c-.2,.3,-.4,.7,-.8,.7c-.4,0,-.7,-.1,-.6,-.5c.1,-.3,0,-.7,-.4,-.7c-.5,0,-.6,.3,-.6,.7c0,.6,.4,1,1,1c1,0,1.8,-.8,2.1,-1.5h.1c.1,.8,.5,1.5,1.3,1.5c1.2,0,2,-1.2,2.5,-1.9l-.2,-.1c-.5,.6,-1.2,1.6,-2,1.6c-.4,0,-.7,-.6,-.7,-1.2c0,-.4,.1,-.8,.2,-1.4l.2,-.7c.1,-.5,.4,-1.2,.6,-1.6c.2,-.3,.6,-.9,1,-.9c.4,0,.4,.3,.3,.6c0,.4,.2,.6,.5,.6c.4,0,.5,-.3,.5,-.7Z" class="g0_91"/>
<path d="M481.8,708.7c-.8,0,-1.3,-.7,-1.3,-1.4c0,-.5,.3,-1,.8,-1c-.1,-.2,-.4,-.4,-.7,-.4c-.2,0,-.3,.1,-.5,.1c-.4,.2,-.7,.6,-.7,1.2c0,.2,.1,.4,.2,.7c.4,.6,1.2,1,2.2,1c.8,0,1.4,-.3,1.8,-.6c.4,-.3,.8,-.8,.8,-1.5c0,-.3,-.1,-.5,-.2,-.7c-.2,-.7,-.8,-1.1,-1.5,-1.3v-.1c.4,-.1,.8,-.3,1,-.6c.2,-.3,.4,-.7,.4,-1.2c0,-.2,0,-.5,-.1,-.7c-.4,-.7,-1.2,-1,-2.2,-1c-.6,0,-1.1,.1,-1.5,.3c-.3,.3,-.6,.6,-.6,1c0,.4,.1,.6,.3,.8c.2,.2,.4,.3,.7,.3c.2,0,.3,0,.5,-.1c.1,-.1,.2,-.2,.2,-.3c-.4,0,-.7,-.3,-.7,-.7c0,-.6,.5,-1.1,1.1,-1.1c.8,0,1.2,.6,1.2,1.6c0,.8,-.3,1.7,-1.1,1.7c-.2,0,-.4,-.1,-.6,-.1c-.2,0,-.5,0,-.5,.2c0,.3,.3,.4,.5,.4c.3,0,.5,-.2,.7,-.2c.9,0,1.1,.8,1.1,1.7c0,1,-.4,2,-1.3,2Z" class="g0_91"/>
<path d="M486.2,659.1c0,.1,.1,.2,.1,.4c3.2,5.4,4,19.1,4,20.3v.7h1.4v-.7c0,-1.6,-.5,-15.4,-5.3,-20.7c0,-.1,-.1,-.1,-.1,-.1c0,0,-.1,.1,-.1,.1Z" class="g0_91"/>
<path d="M490.3,689.7h1.4v-9.6h-1.4Z" class="g0_91"/>
<path d="M486.2,710.9c0,0,.1,.1,.1,.1c0,0,.1,0,.1,-.1c4.8,-5.3,5.3,-19.1,5.3,-20.7v-.7h-1.4v.7c0,1.2,-.8,14.9,-4,20.3c0,.2,-.1,.3,-.1,.4Z" class="g0_91"/>
<path d="M497.2,686.9h7.6v-.8h-7.6Zm0,-3h7.6v-.8h-7.6Z" class="g0_91"/>
<path d="M515.8,659.1c0,0,0,-.1,-.1,-.1v.1c-4.8,5.3,-5.4,19.1,-5.4,20.7v.7h1.4v-.7c0,-1.2,.8,-14.9,4,-20.3c.1,-.2,.1,-.3,.1,-.4Z" class="g0_91"/>
<path d="M510.3,689.7h1.4v-9.6h-1.4Z" class="g0_91"/>
<path d="M515.8,710.9c0,-.1,0,-.2,-.1,-.4c-3.2,-5.4,-4,-19.1,-4,-20.3v-.7h-1.4v.7c0,1.6,.6,15.4,5.4,20.7q0,.1,0,.1c.1,0,.1,-.1,.1,-.1Z" class="g0_91"/>
<path d="M520.3,664.5c1.2,0,.9,1.9,.4,3.2c-.4,.8,-1.3,2.7,-2.5,2.7c-.4,0,-.6,-.3,-.6,-.9c0,-.8,.2,-1.8,.5,-2.4c.2,-.6,.7,-1.6,1.1,-2c.3,-.3,.6,-.6,1.1,-.6Zm-2.2,6.3c1.6,0,2.8,-1.5,3.4,-2.6c.3,-.6,.6,-1.5,.6,-2.3c0,-1,-.5,-1.7,-1.5,-1.7c-.9,0,-1.6,.5,-2,1.1l1.5,-5.6l-2,.1l-.1,.2c.6,0,.9,.3,.9,.6c0,.2,-.1,.6,-.2,.8l-1.6,5.6c-.2,.6,-.3,1,-.4,1.4c0,.4,-.1,.7,-.1,.9c0,.9,.6,1.5,1.5,1.5Z" class="g0_91"/>
<path d="M524,665.9v.2c.3,0,.8,0,1,.1c.3,.2,.3,.3,.3,.7v4.8c0,.2,0,.4,-.1,.6c0,.5,-.6,.5,-1.1,.6v.1h3.4v-.1c-.4,-.1,-.9,-.1,-1.1,-.3c-.1,-.2,-.2,-.6,-.2,-1v-6.2c-.5,.3,-1.5,.5,-2.2,.5Z" class="g0_91"/>
<path d="M520.3,682.4c1.2,0,.9,1.9,.4,3.2c-.4,.8,-1.3,2.7,-2.5,2.7c-.4,0,-.6,-.3,-.6,-.9c0,-.8,.2,-1.8,.5,-2.4c.2,-.6,.7,-1.6,1.1,-2c.3,-.3,.6,-.6,1.1,-.6Zm-2.2,6.3c1.6,0,2.8,-1.5,3.4,-2.6c.3,-.7,.6,-1.5,.6,-2.3c0,-1,-.5,-1.7,-1.5,-1.7c-.9,0,-1.6,.5,-2,1.1l1.5,-5.6l-2,.1l-.1,.2c.6,0,.9,.3,.9,.6c0,.2,-.1,.6,-.2,.8l-1.6,5.6c-.2,.6,-.3,1,-.4,1.4c0,.4,-.1,.7,-.1,.9c0,.9,.6,1.5,1.5,1.5Z" class="g0_91"/>
<path d="M525.2,686.2c-.7,0,-1.1,-.4,-1.1,-1.1c0,-.8,.4,-1.6,1.3,-1.6c1.2,0,1.4,.9,1.4,1.9c0,.9,-.3,1.4,-.7,2.1c-.3,.4,-.7,.8,-1.2,1.3c-.5,.5,-1.1,1.1,-1.8,1.8v.3h4.5l.4,-2.1h-.3c-.1,.2,-.2,.4,-.2,.6c-.2,.4,-.5,.5,-1,.5h-2.2c.5,-.4,1,-.7,1.4,-1.1c.8,-.6,1.6,-1.3,2,-2.2c.2,-.4,.2,-.8,.2,-1.2c0,-.3,0,-.6,-.1,-.9c-.4,-.7,-1.1,-1.2,-2.2,-1.2c-.7,0,-1.3,.2,-1.7,.5c-.4,.4,-.7,.8,-.7,1.5c0,.5,.1,.8,.3,1c.2,.3,.5,.5,.9,.5c.4,0,.7,-.2,.8,-.6Z" class="g0_91"/>
<path d="M520.3,700.3c1.2,0,.9,1.9,.4,3.2c-.4,.8,-1.3,2.7,-2.5,2.7c-.4,0,-.6,-.3,-.6,-.9c0,-.8,.2,-1.8,.5,-2.4c.2,-.6,.7,-1.6,1.1,-2c.3,-.3,.6,-.6,1.1,-.6Zm-2.2,6.3c1.6,0,2.8,-1.5,3.4,-2.6c.3,-.6,.6,-1.5,.6,-2.3c0,-1,-.5,-1.7,-1.5,-1.7c-.9,0,-1.6,.5,-2,1.1l1.5,-5.6l-2,.1l-.1,.2c.6,0,.9,.3,.9,.6c0,.2,-.1,.6,-.2,.8l-1.6,5.6c-.2,.6,-.3,1,-.4,1.4c0,.4,-.1,.7,-.1,.9c0,.9,.6,1.5,1.5,1.5Z" class="g0_91"/>
<path d="M525.4,708.7c-.7,0,-1.3,-.7,-1.3,-1.4c0,-.5,.4,-1,.9,-1c-.1,-.2,-.4,-.4,-.8,-.4c-.1,0,-.3,.1,-.4,.1c-.4,.2,-.7,.6,-.7,1.2c0,.2,0,.4,.2,.7c.3,.6,1.1,1,2.1,1c.8,0,1.4,-.3,1.9,-.6c.4,-.3,.7,-.8,.7,-1.5c0,-.3,0,-.5,-.1,-.7c-.3,-.7,-.8,-1.1,-1.6,-1.3v-.1c.5,-.1,.8,-.3,1.1,-.6c.2,-.3,.4,-.7,.4,-1.2c0,-.2,-.1,-.5,-.2,-.7c-.3,-.7,-1.1,-1,-2.1,-1c-.6,0,-1.2,.1,-1.6,.3c-.3,.3,-.5,.6,-.5,1c0,.4,.1,.6,.3,.8c.1,.2,.4,.3,.7,.3c.1,0,.3,0,.4,-.1c.2,-.1,.2,-.2,.3,-.3c-.5,0,-.7,-.3,-.7,-.7c0,-.6,.4,-1.1,1.1,-1.1c.7,0,1.1,.6,1.1,1.6c0,.8,-.2,1.7,-1,1.7c-.2,0,-.4,-.1,-.6,-.1c-.2,0,-.6,0,-.6,.2c0,.3,.4,.4,.6,.4c.2,0,.5,-.2,.7,-.2c.8,0,1.1,.8,1.1,1.7c0,1,-.4,2,-1.4,2Z" class="g0_91"/>
<path d="M529.9,659.1c0,.1,0,.2,.1,.4c3.2,5.4,4,19.1,4,20.3v.7h1.3v-2.1c-.2,-4.1,-1.2,-14.8,-5.3,-19.3q0,-.1,0,-.1h-.1c0,0,0,.1,0,.1Z" class="g0_91"/>
<path d="M534,689.7h1.3v-9.6H534Z" class="g0_91"/>
<path d="M529.9,710.9c0,0,0,.1,0,.1h.1v-.1c4.1,-4.5,5.1,-15.2,5.3,-19.3v-2.1H534v.7c0,1.2,-.8,14.9,-4,20.3c-.1,.2,-.1,.3,-.1,.4Z" class="g0_91"/>
<path d="M420.8,844.4c0,-.5,-.5,-.9,-1,-.9c-.3,0,-.7,.1,-1,.3c-.3,.3,-.6,.6,-.8,.9c0,-.6,-.4,-1.2,-1.1,-1.2c-1.1,0,-2.1,1.2,-2.4,2l.2,.1c.3,-.5,1.1,-1.7,2,-1.7c.2,0,.3,.5,.3,.9c0,.3,0,.7,-.2,1.2l-.3,1.2c-.2,.6,-.4,1.3,-.7,1.7c-.2,.3,-.4,.7,-.8,.7c-.4,0,-.7,-.1,-.6,-.5c0,-.3,0,-.7,-.4,-.7c-.5,0,-.7,.3,-.7,.8c0,.5,.5,.9,1.1,.9c1,0,1.7,-.8,2.1,-1.5v.1c.1,.8,.5,1.4,1.4,1.4c1.2,0,2,-1.2,2.4,-1.8l-.2,-.2c-.5,.6,-1.1,1.6,-1.9,1.6c-.5,0,-.7,-.6,-.7,-1.2c0,-.3,.1,-.8,.2,-1.3l.2,-.8c.1,-.5,.3,-1.2,.6,-1.6c.2,-.3,.6,-.9,.9,-.9c.5,0,.4,.3,.4,.6c0,.4,.1,.6,.5,.6c.3,0,.5,-.3,.5,-.7Z" class="g0_91"/>
<path d="M422.3,845.2v.2c.4,0,.8,.1,1,.1c.3,.2,.3,.3,.3,.8V851c0,.3,0,.5,0,.6c-.1,.5,-.7,.5,-1.2,.6v.1h3.4v-.1c-.4,0,-.9,-.1,-1.1,-.3c-.1,-.2,-.1,-.5,-.1,-.9v-6.3c-.6,.3,-1.6,.5,-2.3,.5Z" class="g0_91"/>
<path d="M432.5,848.1h7.6v-.8h-7.6Zm0,-3h7.6v-.9h-7.6Z" class="g0_91"/>
<path d="M454.3,833.7c1.2,0,.9,1.9,.3,3.2c-.3,.9,-1.2,2.8,-2.4,2.8c-.4,0,-.6,-.3,-.6,-1c0,-.7,.2,-1.8,.5,-2.4c.2,-.6,.7,-1.5,1.1,-2c.2,-.3,.6,-.6,1.1,-.6ZM452,840c1.7,0,2.9,-1.5,3.5,-2.6c.3,-.6,.6,-1.4,.6,-2.3c0,-1,-.5,-1.7,-1.5,-1.7c-.9,0,-1.6,.5,-2,1.2v-.1l1.5,-5.5l-2,.1l-.1,.2c.6,0,.9,.3,.9,.5c0,.2,-.1,.6,-.2,.8l-1.6,5.7c-.2,.5,-.3,.9,-.4,1.3c-.1,.4,-.1,.7,-.1,.9c0,.9,.6,1.5,1.4,1.5Z" class="g0_91"/>
<path d="M458,835.1v.2c.3,0,.8,.1,.9,.1c.4,.2,.4,.3,.4,.8v4.7c0,.3,0,.5,-.1,.6c0,.5,-.6,.5,-1.2,.6v.1h3.5v-.1c-.4,0,-.9,-.1,-1.1,-.3c-.2,-.2,-.2,-.5,-.2,-.9v-6.3c-.5,.3,-1.5,.5,-2.2,.5Z" class="g0_91"/>
<path d="M446.6,846.6H467v-.9H446.6Z" class="g0_91"/>
<path d="M451.2,853.7c-.5,0,-.9,.2,-1.4,.5c-.4,.3,-.8,.7,-1.2,1.1c-.6,.8,-1.2,2,-1.2,3.3c0,1,.3,1.7,1.3,1.7c1.3,0,1.8,-.9,2.1,-1.5h.1c-.2,.9,-.1,1.5,.5,1.5c.4,0,.7,-.1,1.1,-.5c.4,-.3,.8,-.8,1.1,-1.3l-.1,-.2c-.3,.4,-1,1.4,-1.4,1.4c-.2,0,-.3,-.4,-.3,-.6c0,-.9,.6,-2.4,1,-3.4l.7,-1.9h-1l-.3,.7c-.2,-.5,-.5,-.8,-1,-.8Zm.1,.3c.7,0,.5,1.3,.4,1.9c0,.3,-.2,.6,-.3,1c-.3,1.1,-1.4,3.1,-2.2,3.1c-.6,0,-.8,-1,-.8,-1.5c0,-.4,0,-.8,.2,-1.3c.4,-1,1.4,-3.2,2.7,-3.2Z" class="g0_91"/>
<path d="M455.5,855.5v.1c.4,0,.8,.1,1,.2c.3,.1,.3,.3,.3,.7v4.8c0,.2,0,.4,0,.5c-.1,.5,-.7,.6,-1.2,.6v.2H459v-.2c-.4,0,-.9,0,-1,-.2c-.2,-.2,-.2,-.6,-.2,-1v-6.3c-.6,.3,-1.6,.6,-2.3,.6Z" class="g0_91"/>
<path d="M461.6,855.5v.1c.4,0,.8,.1,1,.2c.3,.1,.3,.3,.3,.7v4.8c0,.2,0,.4,0,.5c-.1,.5,-.7,.6,-1.2,.6v.2h3.4v-.2c-.4,0,-.9,0,-1,-.2c-.2,-.2,-.2,-.6,-.2,-1v-6.3c-.6,.3,-1.6,.6,-2.3,.6Z" class="g0_91"/>
</svg>