<?xml version="1.0" encoding="UTF-8" standalone="no"?>
<!DOCTYPE svg PUBLIC "-//W3C//DTD SVG 1.1//EN"
"http://www.w3.org/Graphics/SVG/1.1/DTD/svg11.dtd">
<svg viewBox="0 0 811 1017" version="1.1" xmlns="http://www.w3.org/2000/svg" xmlns:xlink="http://www.w3.org/1999/xlink">
<defs>
<clipPath id="c0_95"><path d="M156.1,577.2v-308h385v308Z"/></clipPath>
<style type="text/css"><![CDATA[
.g0_95{
fill: #0E0E0E;
}
]]></style>
</defs>
<image clip-path="url(#c0_95)" preserveAspectRatio="none" x="156" y="269" width="385" height="308" xlink:href="img/1.jpg"/>
<path d="M375.3,922.4C373.1,919,372.5,910,372.5,904.6c0,-5.5,.6,-13.9,2.8,-17.3l-.1,-.5h-.1c-2.1,3.2,-4,7.9,-4,17.8c0,9.8,2,15.7,4.1,18.4l.1,-.6Z" class="g0_95"/>
<path d="M378.1,889.7v.2c.4,0,1.1,.1,1.3,.2c.4,.2,.4,.4,.4,1v6.5c0,.3,0,.6,0,.8c-.1,.7,-.9,.8,-1.7,.8v.2h4.7v-.2c-.5,0,-1.2,-.1,-1.4,-.3c-.2,-.3,-.3,-.8,-.3,-1.4v-8.6c-.7,.4,-2.1,.8,-3,.8Z" class="g0_95"/>
<path d="M400.3,896h7.6v-.8h-7.6Z" class="g0_95"/>
<path d="M412.5,893c-1,0,-1.5,-.6,-1.5,-1.6c0,-1,.6,-2.2,1.8,-2.2c1.7,0,1.8,1.4,1.8,2.6c0,1.3,-.4,2,-1,2.9c-.3,.6,-.9,1.2,-1.5,1.9c-.7,.7,-1.5,1.5,-2.5,2.4v.4h6.2l.5,-2.8h-.4c-.1,.3,-.2,.5,-.3,.7c-.2,.5,-.7,.8,-1.4,.8h-2.9V898c.7,-.4,1.3,-1,1.9,-1.4c1,-.9,2.1,-1.9,2.7,-3.1c.2,-.6,.3,-1.1,.3,-1.7c0,-.4,0,-.8,-.2,-1.1c-.5,-1.1,-1.5,-1.8,-3,-1.8c-1,0,-1.8,.4,-2.4,.8c-.5,.5,-.9,1.1,-.9,2c0,.7,.2,1.1,.5,1.5c.3,.3,.7,.5,1.2,.5c.6,0,1,-.2,1.1,-.7Z" class="g0_95"/>
<path d="M378.1,907.6v.2c.4,0,1.1,.1,1.3,.2c.4,.2,.4,.4,.4,1v6.5c0,.3,0,.6,0,.8c-.1,.7,-.9,.8,-1.7,.8v.2h4.7v-.2c-.5,0,-1.2,-.1,-1.4,-.3c-.2,-.3,-.3,-.8,-.3,-1.4v-8.6c-.7,.4,-2.1,.8,-3,.8Z" class="g0_95"/>
<path d="M406.1,907.6v.2c.4,0,1.1,.1,1.3,.2c.5,.2,.4,.4,.5,1v6.5c0,.3,-.1,.6,-.1,.8c-.1,.7,-.9,.8,-1.6,.8v.2h4.7v-.2c-.5,0,-1.3,-.1,-1.5,-.3c-.2,-.3,-.2,-.8,-.2,-1.4v-8.6c-.8,.4,-2.1,.8,-3.1,.8Z" class="g0_95"/>
<path d="M418,922.4l.2,.6c2,-2.7,4.1,-8.6,4.1,-18.4c0,-9.9,-2,-14.6,-4.1,-17.8l-.2,.5c2.2,3.4,2.8,11.8,2.8,17.3c0,5.4,-.6,14.4,-2.8,17.8Z" class="g0_95"/>
<path d="M432.9,922.4C430.7,919,430.1,910,430.1,904.6c0,-5.5,.6,-13.9,2.8,-17.3l-.1,-.5h-.1c-2.1,3.2,-4.1,7.9,-4.1,17.8c0,9.8,2.1,15.7,4.1,18.4l.2,-.6Z" class="g0_95"/>
<path d="M440.4,892.1l-4.4,5.4h-.2l1.4,-6.2c.1,-.3,.2,-.8,.3,-1c.1,-.4,.3,-.8,.7,-.9c.1,-.1,.4,-.1,.6,-.1l.1,-.2h-4l-.1,.2c.5,0,.9,0,1,.1c.2,.1,.2,.5,.2,.8c0,.2,0,.5,-.1,1l-1.9,8.3h.7l6.1,-7.3c.4,-.5,.8,-1,1.1,-1.4c.3,-.3,.6,-.6,.8,-.8c.3,-.2,.8,-.5,1,-.6c.2,-.1,.5,-.1,.7,-.1v-.2h-3.3l-.1,.2c.3,0,.6,0,.7,.1c.2,0,.2,.3,.2,.4c0,.2,0,.5,-.3,.8c-.2,.3,-.7,.9,-1.2,1.5Z" class="g0_95"/>
<path d="M445.7,898.5c0,.7,-.3,1.4,-.7,1.8c-.4,.4,-1.1,.8,-1.7,1l1.1,-4.1c0,0,.1,0,.2,0c0,0,.1,0,.2,0c.7,0,.9,.7,.9,1.3Zm-2.1,-1l-1.6,5.8c-.1,.3,-.4,.4,-.9,.4v.1h2.5v-.1c-.4,0,-.9,0,-.9,-.4c0,-.1,.1,-.1,.1,-.2c0,0,0,-.1,0,-.2l.4,-1.4c.9,-.1,1.8,-.5,2.3,-1c.5,-.5,1,-1.1,1,-2c0,-1,-.6,-1.6,-1.5,-1.6c-.2,0,-.4,0,-.6,.1l.3,-1.2h-.6l-.4,1.4c-.3,.1,-.6,.3,-.9,.5c-.3,.2,-.5,.4,-.7,.7l.2,.1c.3,-.3,.8,-.7,1.3,-1Z" class="g0_95"/>
<path d="M440.3,910l-4.5,5.4h-.1l1.4,-6.2c0,-.3,.1,-.8,.2,-1c.2,-.4,.3,-.8,.7,-.9c.2,-.1,.4,-.1,.7,-.1V907h-3.9l-.1,.2c.5,0,.8,0,1,.1c.2,.1,.2,.5,.2,.8c0,.2,-.1,.5,-.2,1l-1.9,8.3h.8l6,-7.3c.4,-.5,.9,-1,1.1,-1.4c.3,-.3,.6,-.6,.9,-.8c.3,-.2,.8,-.5,1,-.6c.2,-.1,.4,-.1,.6,-.1l.1,-.2h-3.4v.2c.3,0,.6,0,.7,.1c.1,0,.2,.3,.2,.4c0,.2,-.1,.5,-.3,.8c-.3,.3,-.7,.9,-1.2,1.5Z" class="g0_95"/>
<path d="M444.9,914.8c-.3,0,-.7,.1,-1,.4c-.3,.2,-.6,.4,-.9,.8c-.5,.5,-.9,1.4,-.9,2.4c0,.7,.3,1.2,1,1.2c.9,0,1.3,-.6,1.5,-1.1h.1c-.2,.7,-.1,1.1,.4,1.1c.2,0,.5,-.1,.8,-.3c.3,-.3,.5,-.6,.8,-1l-.2,-.1c-.2,.3,-.6,1,-.9,1c-.2,0,-.2,-.3,-.2,-.4c0,-.7,.4,-1.8,.6,-2.6l.6,-1.3h-.8l-.2,.5c-.1,-.4,-.3,-.6,-.7,-.6Zm.1,.2c.5,0,.4,1,.3,1.4c-.1,.2,-.2,.5,-.2,.7c-.3,.9,-1.1,2.3,-1.7,2.3c-.4,0,-.5,-.7,-.5,-1.1c0,-.3,0,-.6,.1,-1c.3,-.7,1,-2.3,2,-2.3Z" class="g0_95"/>
<path d="M448.8,922.4l.2,.6c2.1,-2.7,4.1,-8.6,4.1,-18.4c0,-9.9,-1.9,-14.6,-4.1,-17.8l-.2,.5c2.3,3.4,2.9,11.8,2.9,17.3c0,5.4,-.6,14.4,-2.9,17.8Z" class="g0_95"/>
<path d="M459.8,906.7h7.6v-.8h-7.6Zm0,-3h7.6v-.8h-7.6Z" class="g0_95"/>
<path d="M478.4,922.4C476.2,919,475.6,910,475.6,904.6c0,-5.5,.6,-13.9,2.8,-17.3l-.1,-.5h-.1c-2.1,3.2,-4.1,7.9,-4.1,17.8c0,9.8,2.1,15.7,4.1,18.4l.2,-.6Z" class="g0_95"/>
<path d="M491.7,899.3c-1.9,0,-1.9,-2.7,-1.9,-4.9c0,-2.2,0,-5.2,1.9,-5.2c2,0,2,3,2,5.2c0,2.2,-.1,4.9,-2,4.9Zm0,-10.4c-2.6,0,-3.4,2.8,-3.4,5.4c0,2.6,.9,5.2,3.4,5.2c2.6,0,3.4,-2.5,3.4,-5.2c0,-2.7,-.8,-5.4,-3.4,-5.4Z" class="g0_95"/>
<path d="M483.5,908.9v5.4H480c1.2,-1.8,2.3,-3.6,3.5,-5.4Zm-3.8,5.3v.6h3.8v.6c0,1.2,-.1,1.7,-.8,1.7v.2h2.9v-.2c-.6,0,-.8,-.7,-.8,-1.8v-.5h1.7c0,0,0,-.5,0,-.5c0,0,-1.7,0,-1.7,0v-7.5h-.4l-4.7,7.4Z" class="g0_95"/>
<path d="M494.5,906.8h-.1c-.4,.2,-1,.3,-1.8,.3c-.7,0,-1.1,-.1,-1.6,-.3l-1.4,5.6c0,0,0,.1,0,.1c0,.2,-.1,.3,.1,.3c.2,0,.2,-.2,.3,-.4c.3,-.8,.8,-1.3,1.7,-1.3c1.1,0,1.4,.9,1.4,2.2c0,1.1,-.2,2,-.6,2.6c-.3,.5,-.8,1.3,-1.6,1.3c-.8,0,-1.1,-.8,-1.3,-1.4c-.1,-.4,-.2,-1,-.7,-1c-.5,0,-.7,.3,-.7,.8c0,.3,.1,.5,.2,.7c.4,.7,1.3,1.1,2.4,1.1c.6,0,1.1,0,1.6,-.3c1.3,-.5,2.3,-1.6,2.3,-3.5c0,-.4,0,-.8,-.2,-1.2c-.4,-1,-1.4,-1.7,-2.8,-1.7c-.4,0,-1.1,.2,-1.4,.7v-.3l.8,-2.8c0,0,.8,.1,1.3,.1c1,0,1.9,-.6,2.1,-1.6Z" class="g0_95"/>
<path d="M500.1,917.2c-1.9,0,-2,-2.7,-2,-4.9c0,-2.2,0,-5.2,2,-5.2c1.9,0,1.9,3,1.9,5.2c0,2.2,0,4.9,-1.9,4.9Zm0,-10.4c-2.6,0,-3.4,2.8,-3.4,5.4c0,2.6,.8,5.2,3.4,5.2c2.5,0,3.3,-2.5,3.3,-5.2c0,-2.7,-.7,-5.4,-3.3,-5.4Z" class="g0_95"/>
<path d="M505,922.4l.2,.6c2.1,-2.7,4.1,-8.6,4.1,-18.4c0,-9.9,-1.9,-14.6,-4.1,-17.8l-.2,.5c2.3,3.4,2.9,11.8,2.9,17.3c0,5.4,-.6,14.4,-2.9,17.8Z" class="g0_95"/>
</svg>