<?xml version="1.0" encoding="UTF-8" standalone="no"?>
<!DOCTYPE svg PUBLIC "-//W3C//DTD SVG 1.1//EN"
"http://www.w3.org/Graphics/SVG/1.1/DTD/svg11.dtd">
<svg viewBox="0 0 811 1017" version="1.1" xmlns="http://www.w3.org/2000/svg" xmlns:xlink="http://www.w3.org/1999/xlink">
<defs>
<clipPath id="c0_227"><path d="M119.4,243.8V230.1h605v13.7Z"/></clipPath>
<clipPath id="c1_227"><path d="M174.4,875.1V683.6H365.8V875.1Z"/></clipPath>
<style type="text/css"><![CDATA[
.g0_227{
fill: #E6E6E6;
}
.g1_227{
fill: #000;
}
.g2_227{
fill: #F7F5E8;
}
]]></style>
</defs>
<path d="M775.8,106.3H688.1c-6.1,0,-20.6,.7,-25.7,-2.4c-5.1,-3.1,-4.5,-11,-4.9,-15.8h-6.8l-21.7,80h7.3c7.2,-18.5,11.3,-28.1,16.1,-32c6.2,-4.4,15.1,-4.1,34,-4.1h69.1c-11,19.3,-27.1,49.2,-33,57.5L623.9,336.2h39.9Z" class="g0_227"/>
<path clip-path="url(#c0_227)" d="M273.5,233H724.4v-.3H273.5Z" class="g1_227"/>
<path d="M119.4,529.9h386V398.6h-386Z" class="g2_227"/>
<image clip-path="url(#c1_227)" preserveAspectRatio="none" x="174" y="684" width="192" height="191" xlink:href="img/1.jpg"/>
</svg>