<?xml version="1.0" encoding="UTF-8" standalone="no"?>
<!DOCTYPE svg PUBLIC "-//W3C//DTD SVG 1.1//EN"
"http://www.w3.org/Graphics/SVG/1.1/DTD/svg11.dtd">
<svg viewBox="0 0 811 1017" version="1.1" xmlns="http://www.w3.org/2000/svg" xmlns:xlink="http://www.w3.org/1999/xlink">
<defs>
<style type="text/css"><![CDATA[
.g0_139{
fill: #000;
}
]]></style>
</defs>
<path d="M363.2,336.2h.4V294.3h-.4Z" class="g0_139"/>
<path d="M338.9,294.3v3.2l-.3,-.1l-6.2,-3l-.4,-.1l.4,-.2l6.2,-3l.3,-.1v.3l-.1,.2l-6.2,2.9l-.2,-.3h.2l6.2,2.9l-.2,.4l-.1,-.2v-2.9Z" class="g0_139"/>
<path d="M338.5,294.3h.4v-3h-.4Z" class="g0_139"/>
<path d="M338.8,294.4h.2v-.3h-.2Z" class="g0_139"/>
<path d="M339,294.4h24.6v-.3H339Z" class="g0_139"/>
<path d="M403.9,404.5h.4V362.4h-.4Z" class="g0_139"/>
<path d="M326.5,382.8V386l-.3,-.1L319.9,383l-.3,-.2l.3,-.2l6.3,-2.9l.3,-.1v.3l-.1,.2l-6.3,2.9l-.2,-.4h.2l6.3,2.9l-.2,.4l-.1,-.2v-2.9Z" class="g0_139"/>
<path d="M326.1,382.8h.4v-2.9h-.4Z" class="g0_139"/>
<path d="M326.3,383h.2v-.4h-.2Z" class="g0_139"/>
<path d="M326.5,383h77.8v-.4H326.5Z" class="g0_139"/>
<path d="M554.1,486h.4V443.9h-.4Z" class="g0_139"/>
<path d="M529.9,443.9v3.2h-.3l-6.3,-3l-.3,-.2l.3,-.1l6.3,-3l.3,-.1v.3l-.1,.2l-6.3,2.9l-.2,-.3h.2l6.3,2.9l-.2,.4v-3.2Z" class="g0_139"/>
<path d="M529.6,443.9h.3V441h-.3Z" class="g0_139"/>
<path d="M529.7,444.1h.2v-.3h-.2Z" class="g0_139"/>
<path d="M529.9,444.1h24.6v-.3H529.9Z" class="g0_139"/>
<path d="M429.4,574.6h.3v-42h-.3Z" class="g0_139"/>
<path d="M373.3,532.6v3.2l-.3,-.1l-6.2,-2.9l-.4,-.2l.4,-.2l6.2,-2.9l.3,-.1v.2l-.1,.2l-6.3,3l-.1,-.4h.1l6.3,2.9l-.2,.4l-.1,-.2v-2.9Z" class="g0_139"/>
<path d="M372.9,532.6h.4v-3h-.4Z" class="g0_139"/>
<path d="M373.1,532.8h.2v-.4h-.2Z" class="g0_139"/>
<path d="M373.3,532.8h56.4v-.4H373.3Z" class="g0_139"/>
</svg>