<?xml version="1.0" encoding="UTF-8" standalone="no"?>
<!DOCTYPE svg PUBLIC "-//W3C//DTD SVG 1.1//EN"
"http://www.w3.org/Graphics/SVG/1.1/DTD/svg11.dtd">
<svg viewBox="0 0 811 1017" version="1.1" xmlns="http://www.w3.org/2000/svg" xmlns:xlink="http://www.w3.org/1999/xlink">
<defs>
<clipPath id="c0_360"><path d="M142.4,755V591.1h330V755Z"/></clipPath>
<style type="text/css"><![CDATA[
.g0_360{
fill: #BF4543;
}
.g1_360{
fill: #F1FAFD;
}
.g2_360{
fill: #ECD7CC;
}
.g3_360{
fill: #F6BDA1;
}
.g4_360{
fill: #F4997B;
}
.g5_360{
fill: #E56C56;
}
.g6_360{
fill: none;
stroke: #040504;
stroke-width: 0.759;
stroke-linejoin: round;
}
.g7_360{
fill: #040504;
}
.g8_360{
fill: none;
stroke: #040504;
stroke-width: 2.2;
stroke-linejoin: round;
}
.g9_360{
fill: none;
stroke: #181818;
stroke-width: 0.759;
stroke-linejoin: round;
}
.ga_360{
fill: none;
stroke: #040504;
stroke-width: 0.759;
stroke-linecap: square;
}
.gb_360{
fill: #FFF;
}
.gc_360{
fill: #2E3A97;
}
.gd_360{
fill: #4458A6;
}
.ge_360{
fill: #7E95CC;
}
.gf_360{
fill: #B3C8E7;
}
.gg_360{
fill: #0E0E0E;
}
]]></style>
</defs>
<path d="M168.7,333.3H418.4V83.9H168.7Z" class="g0_360"/>
<path d="M358.9,316.3h.5l.2,.1h.3c33.1,.8,56.6,-30.5,45.5,-62.1l-.1,-.1l-.1,-.3l-.1,-.2c-4.9,-12.9,-14.7,-22.8,-27,-28.9l-.2,-.1h-.1c-15.8,-8,-29.6,-6.9,-45.9,-10.5h-.1l-.2,-.1h-.2l-.3,-.1l-.1,-.1h-.1c-18.7,-6.8,-4.1,-25.2,.9,-36.4l.1,-.3c7.1,-14.7,10.9,-30.4,6.8,-46.6l-.1,-.2v-.3C330.4,99,295.8,84,268.2,101.5l-.1,.1l-.2,.1l-.2,.1v.1l-.3,.1l-.1,.1l-.1,.1c-11.8,8.1,-19,20.6,-21.4,34.6l-.1,.2v.3c-1.5,8.8,-1,17.4,-.3,26.2v.3c.6,8.4,1.1,15.8,-4.6,22.7l-.1,.1l-.1,.1l-.2,.2v.1l-.2,.2c-9.6,9.9,-20.5,15.8,-28.6,27.7l-.2,.3c-9.1,12.9,-12.6,28.8,-8.2,44.2l.1,.2l.1,.3v.2h.1v.3c11.1,32.4,44.1,40.6,74.6,30.2h.1l.2,-.1l.3,-.1c20.7,-6.5,23.9,-5.3,40.1,8.2h.1l.2,.2c11.5,9.5,23.7,16.5,38.8,17.5h1Z" class="g1_360"/>
<path d="M358.8,316.3h-1.2c-15,-1.1,-27.1,-8.1,-38.5,-17.5l-.2,-.2h-.1c-16.2,-13.5,-19.4,-14.7,-40.1,-8.2l-.3,.1l-.2,.1h-.1c-30.5,10.4,-63.5,2.2,-74.6,-30.2v-.3h-.1v-.2l-.1,-.3l-.1,-.2c-4.3,-15.3,-.9,-31,8,-44l.2,-.2c8.2,-12.1,19.1,-18.1,28.8,-28l.2,-.2v-.1l.2,-.2l.1,-.1c5.7,-6.8,5.3,-13.9,4.8,-22.3l-.1,-.3v-.2c-.7,-8.9,-1.2,-17.4,.2,-26.3l.1,-.2V137c2.4,-14,9.6,-26.7,21.5,-34.8l.1,-.1l.1,-.1l.3,-.1v-.1l.2,-.1l.2,-.1l.1,-.1c27.5,-17.5,62,-2.6,70.3,28.3l.1,.3v.3c4.2,16.1,.5,31.9,-6.6,46.6l-.1,.2c-4.9,11.3,-19.8,29.9,-1,36.7h.1l.1,.1l.3,.1h.2l.2,.1h.1c16.2,3.6,29.9,2.5,45.7,10.4l.2,.1h.1c12.3,6.1,22.3,16,27.2,29l.1,.2l.1,.3l.1,.1c11.2,31.8,-12.5,63.1,-45.8,62.1l-.2,-.1h-.6ZM214.2,333.1l.2,.1l.2,.1H418.4V189.4c-5,-6.6,-9.8,-13.2,-13.9,-20.4l-.1,-.2l-.2,-.3C392.5,147.9,388.6,124.2,377.3,103.1l-.2,-.3l-.1,-.2l-.1,-.2v-.1c-3,-5.6,-6.4,-11,-10.3,-16.2l-.2,-.2v-.1l-.2,-.2l-.1,-.1c-.3,-.4,-.6,-.9,-1,-1.3v-.1l-.2,-.2H220.5l-.1,.1l-.1,.1l-.1,.2l-.1,.1l-.2,.2l-.2,.3l-.2,.2l-.1,.1l-.1,.2c-.9,1,-1.8,2.1,-2.6,3.2l-.2,.3h-.1l-.1,.2c-1.9,2.4,-3.7,4.9,-5.4,7.5l-.1,.2l-.1,.2l-.1,.1l-.2,.2c-7.3,11.3,-12.8,23.4,-18,35.8l-.1,.2l-.1,.3l-.1,.2l-.1,.3h-.1c-3.9,9.5,-7.8,19,-11.9,28.4l-.1,.1v.2l-.1,.2c-2,4.6,-4.1,9.1,-6.1,13.7l-.1,.3l-.2,.2c-.9,2.2,-1.8,4.3,-2.7,6.4l-.1,.1l-.1,.3l-.1,.2c-.4,1,-.8,2,-1.2,3l-.1,.3l-.1,.2l-.1,.1v.2l-.1,.2l-.1,.2V291.9l.1,.2l.1,.2l.1,.1c.2,.4,.4,.8,.7,1.2l.1,.3l.1,.1l.1,.1l.2,.3l.1,.2c10.4,16.9,25.8,29.8,43.6,38.4l.1,.1h.2Z" class="g2_360"/>
<path d="M180.9,333.1l.2,.2h33.5l-.2,-.1c-18.9,-9,-35.1,-22.8,-45.6,-41.1l-.1,-.2v30.3c3.8,3.9,7.8,7.5,12.1,10.9h.1Z" class="g3_360"/>
<path d="M418.4,189.4v-37C407.1,129.7,400.5,105.7,386.9,84l-.1,-.1H364.9c4.6,5.8,8.6,12.1,12.1,18.7l.1,.2l.2,.3c11.3,21.1,15.2,44.8,26.9,65.4l.2,.3l.1,.2c4,7.1,8.8,13.7,13.7,20.2l.2,.2Z" class="g3_360"/>
<path d="M168.8,188.2l.1,-.2c7.7,-18.2,15.9,-35.9,23.2,-54.2l.1,-.2l.1,-.3C199.6,115.6,207.8,98.6,220.4,84l.1,-.1H198.6l-.2,.1c-.8,1.3,-1.7,2.6,-2.6,3.9l-.1,.2l-.2,.3c-10.9,16.7,-18.9,35.1,-26.8,53.4v46.6l.1,-.2Z" class="g3_360"/>
<path d="M168.9,333.3h12.2l-.2,-.2c-4.3,-3.3,-8.3,-6.9,-12.1,-10.8l-.1,-.1v11.1h.2Z" class="g4_360"/>
<path d="M418.4,152.4V126.1C412.3,111.8,406.6,97.6,399.1,84l-.1,-.1H386.8l.1,.1c13.6,21.6,20.2,45.6,31.4,68.3l.1,.1Z" class="g4_360"/>
<path d="M168.7,141.8l.1,-.3c7.9,-18.2,15.8,-36.5,26.7,-53.1l.2,-.3l.1,-.2c.9,-1.3,1.8,-2.6,2.6,-3.9l.2,-.1H186.4C179.7,94.5,174,105.7,168.7,117v24.8Z" class="g4_360"/>
<path d="M418.4,126.1V108.2C414.9,100,411.3,92,407.4,84.1l-.1,-.2H399l.1,.1c7.5,13.6,13.2,27.8,19.2,42.1h.1Z" class="g5_360"/>
<path d="M168.8,116.8l.1,-.2c5.2,-11.2,10.9,-22.3,17.5,-32.7h.1h-8.1l-.1,.2c-2.4,4.1,-4.8,8.3,-7,12.5l-.1,.2l-.1,.3c-.8,1.5,-1.6,3.1,-2.4,4.6V117l.1,-.2Z" class="g5_360"/>
<path d="M418.4,108.2V95.1c-1.7,-3.7,-3.3,-7.4,-5,-11.1l-.1,-.1h-6l.1,.2c3.9,7.8,7.5,15.9,10.9,24l.1,.1Z" class="g0_360"/>
<path d="M168.8,101.6l.1,-.3c.7,-1.4,1.4,-2.8,2.2,-4.2l.1,-.3l.1,-.2c2.2,-4.2,4.6,-8.4,7,-12.5l.1,-.2h-5.8l-.2,.2c-1.2,2.3,-2.5,4.6,-3.7,6.9v10.7l.1,-.1Z" class="g0_360"/>
<path d="M176.5,333.3v3.3" class="g6_360"/>
<path d="M167.6,344.4h5.9v-.7h-5.9Z" class="g7_360"/>
<path d="M175.6,346.2h1.5V341l-1.6,.3v-.8l1.6,-.3h1v6h1.5v.8h-4v-.8Z" class="g7_360"/>
<path d="M181.4,340.2h3.7v.7h-2.8v1.7c.1,0,.3,-.1,.4,-.1c.1,0,.3,0,.4,0c.8,0,1.4,.2,1.8,.6c.5,.4,.7,1,.7,1.7c0,.7,-.3,1.3,-.7,1.7c-.5,.4,-1.1,.6,-1.9,.6c-.3,0,-.6,0,-.9,-.1c-.3,0,-.6,-.1,-.9,-.2v-.9c.2,.1,.5,.3,.8,.3c.3,.1,.6,.1,.9,.1c.6,0,1,-.1,1.3,-.4c.3,-.3,.5,-.6,.5,-1.1c0,-.5,-.2,-.9,-.5,-1.1c-.3,-.3,-.7,-.5,-1.3,-.5c-.2,0,-.5,.1,-.7,.1c-.3,.1,-.5,.2,-.8,.3v-3.4Z" class="g7_360"/>
<path d="M215.5,333.3v3.3" class="g6_360"/>
<path d="M206.6,344.4h5.9v-.7h-5.9Z" class="g7_360"/>
<path d="M214.6,346.2h1.5V341l-1.6,.3v-.8l1.6,-.3h1v6h1.5v.8h-4v-.8Z" class="g7_360"/>
<path d="M222.4,340c.8,0,1.4,.3,1.8,.9c.4,.6,.6,1.5,.6,2.7c0,1.1,-.2,2,-.6,2.6c-.4,.6,-1,.9,-1.8,.9c-.7,0,-1.3,-.3,-1.7,-.9c-.4,-.6,-.6,-1.5,-.6,-2.6c0,-1.2,.2,-2.1,.6,-2.7c.4,-.6,1,-.9,1.7,-.9Zm0,.8c-.5,0,-.8,.2,-1.1,.7c-.2,.4,-.3,1.1,-.3,2.1c0,.9,.1,1.6,.3,2.1c.3,.5,.6,.7,1.1,.7c.5,0,.9,-.2,1.1,-.7c.2,-.5,.4,-1.2,.4,-2.1c0,-1,-.2,-1.7,-.4,-2.1c-.2,-.5,-.6,-.7,-1.1,-.7Z" class="g7_360"/>
<path d="M254.5,333.3v3.3" class="g6_360"/>
<path d="M248.6,344.4h5.9v-.7h-5.9Z" class="g7_360"/>
<path d="M256.5,340.2h3.6v.7h-2.8v1.7c.2,0,.3,-.1,.4,-.1c.2,0,.3,0,.4,0c.8,0,1.4,.2,1.8,.6c.5,.4,.7,1,.7,1.7c0,.7,-.2,1.3,-.7,1.7c-.4,.4,-1.1,.6,-1.9,.6c-.3,0,-.6,0,-.9,-.1c-.3,0,-.6,-.1,-.9,-.2v-.9c.3,.1,.5,.3,.8,.3c.3,.1,.6,.1,1,.1c.5,0,.9,-.1,1.2,-.4c.3,-.3,.5,-.6,.5,-1.1c0,-.5,-.2,-.9,-.5,-1.1c-.3,-.3,-.7,-.5,-1.2,-.5c-.3,0,-.5,.1,-.8,.1c-.2,.1,-.5,.2,-.7,.3v-3.4Z" class="g7_360"/>
<path d="M293.5,333.3v3.3" class="g6_360"/>
<path d="M293.5,340c.8,0,1.4,.3,1.8,.9c.4,.6,.6,1.5,.6,2.7c0,1.1,-.2,2,-.6,2.6c-.4,.6,-1,.9,-1.8,.9c-.7,0,-1.3,-.3,-1.7,-.9c-.4,-.6,-.6,-1.5,-.6,-2.6c0,-1.2,.2,-2.1,.6,-2.7c.4,-.6,1,-.9,1.7,-.9Zm0,.8c-.5,0,-.8,.2,-1.1,.7c-.2,.4,-.3,1.1,-.3,2.1c0,.9,.1,1.6,.3,2.1c.3,.5,.6,.7,1.1,.7c.5,0,.9,-.2,1.1,-.7c.2,-.5,.4,-1.2,.4,-2.1c0,-1,-.2,-1.7,-.4,-2.1c-.2,-.5,-.6,-.7,-1.1,-.7Z" class="g7_360"/>
<path d="M332.5,333.3v3.3" class="g6_360"/>
<path d="M330.6,340.2h3.6v.7h-2.8v1.7c.1,0,.3,-.1,.4,-.1c.1,0,.3,0,.4,0c.8,0,1.4,.2,1.8,.6c.5,.4,.7,1,.7,1.7c0,.7,-.2,1.3,-.7,1.7c-.4,.4,-1.1,.6,-1.9,.6c-.3,0,-.6,0,-.9,-.1c-.3,0,-.6,-.1,-.9,-.2v-.9c.3,.1,.5,.3,.8,.3c.3,.1,.6,.1,1,.1c.5,0,.9,-.1,1.2,-.4c.3,-.3,.5,-.6,.5,-1.1c0,-.5,-.2,-.9,-.5,-1.1c-.3,-.3,-.7,-.5,-1.2,-.5c-.3,0,-.5,.1,-.8,.1c-.2,.1,-.5,.2,-.7,.3v-3.4Z" class="g7_360"/>
<path d="M371.5,333.3v3.3" class="g6_360"/>
<path d="M366.7,346.2h1.6V341l-1.7,.3v-.8l1.6,-.3h1v6h1.5v.8h-4v-.8Z" class="g7_360"/>
<path d="M374.5,340c.8,0,1.4,.3,1.8,.9c.4,.6,.6,1.5,.6,2.7c0,1.1,-.2,2,-.6,2.6c-.4,.6,-1,.9,-1.8,.9c-.7,0,-1.3,-.3,-1.7,-.9c-.4,-.6,-.6,-1.5,-.6,-2.6c0,-1.2,.2,-2.1,.6,-2.7c.4,-.6,1,-.9,1.7,-.9Zm0,.8c-.4,0,-.8,.2,-1,.7c-.3,.4,-.4,1.1,-.4,2.1c0,.9,.1,1.6,.4,2.1c.2,.5,.6,.7,1,.7c.5,0,.9,-.2,1.1,-.7c.2,-.5,.4,-1.2,.4,-2.1c0,-1,-.2,-1.7,-.4,-2.1c-.2,-.5,-.6,-.7,-1.1,-.7Z" class="g7_360"/>
<path d="M410.6,333.3v3.3" class="g6_360"/>
<path d="M405.8,346.2h1.5V341l-1.7,.3v-.8l1.7,-.3h.9v6h1.5v.8h-3.9v-.8Z" class="g7_360"/>
<path d="M411.6,340.2h3.6v.7h-2.8v1.7c.1,0,.3,-.1,.4,-.1c.2,0,.3,0,.4,0c.8,0,1.4,.2,1.8,.6c.5,.4,.7,1,.7,1.7c0,.7,-.2,1.3,-.7,1.7c-.4,.4,-1.1,.6,-1.9,.6c-.3,0,-.6,0,-.9,-.1c-.3,0,-.6,-.1,-.9,-.2v-.9c.3,.1,.5,.3,.8,.3c.3,.1,.6,.1,1,.1c.5,0,.9,-.1,1.2,-.4c.3,-.3,.5,-.6,.5,-1.1c0,-.5,-.2,-.9,-.5,-1.1c-.3,-.3,-.7,-.5,-1.2,-.5c-.3,0,-.5,.1,-.8,.1c-.2,.1,-.5,.2,-.7,.3v-3.4Z" class="g7_360"/>
<path d="M168.7,325.5h-3.3" class="g6_360"/>
<path d="M143.3,326.5h5.9v-.8h-5.9Z" class="g7_360"/>
<path d="M151.4,328.3h1.5v-5.2l-1.7,.3v-.8l1.7,-.4h.9v6.1h1.5v.8h-3.9v-.8Z" class="g7_360"/>
<path d="M157.2,322.2h3.6v.8H158v1.7c.2,-.1,.3,-.1,.4,-.1c.2,0,.3,0,.4,0c.8,0,1.4,.2,1.8,.6c.5,.4,.7,1,.7,1.7c0,.7,-.2,1.3,-.7,1.7c-.4,.4,-1.1,.6,-1.9,.6c-.3,0,-.6,0,-.9,-.1c-.3,0,-.6,-.1,-.9,-.2V328c.3,.1,.5,.2,.8,.3c.3,.1,.6,.1,1,.1c.5,0,.9,-.1,1.2,-.4c.3,-.3,.5,-.6,.5,-1.1c0,-.5,-.2,-.9,-.5,-1.2c-.3,-.2,-.7,-.4,-1.2,-.4c-.3,0,-.5,.1,-.8,.1c-.2,.1,-.5,.1,-.7,.3v-3.5Z" class="g7_360"/>
<path d="M168.7,286.5h-3.3" class="g6_360"/>
<path d="M143.3,287.5h5.9v-.7h-5.9Z" class="g7_360"/>
<path d="M151.4,289.3h1.5v-5.2l-1.7,.3v-.8l1.7,-.3h.9v6h1.5v.8h-3.9v-.8Z" class="g7_360"/>
<path d="M159.1,283.1c.8,0,1.4,.3,1.8,.9c.4,.6,.6,1.5,.6,2.7c0,1.1,-.2,2,-.6,2.6c-.4,.6,-1,.9,-1.8,.9c-.7,0,-1.3,-.3,-1.7,-.9c-.4,-.6,-.6,-1.5,-.6,-2.6c0,-1.2,.2,-2.1,.6,-2.7c.4,-.6,1,-.9,1.7,-.9Zm0,.8c-.4,0,-.8,.2,-1,.7c-.3,.4,-.4,1.1,-.4,2.1c0,.9,.1,1.6,.4,2.1c.2,.5,.6,.7,1,.7c.5,0,.9,-.2,1.1,-.7c.3,-.5,.4,-1.2,.4,-2.1c0,-1,-.1,-1.7,-.4,-2.1c-.2,-.5,-.6,-.7,-1.1,-.7Z" class="g7_360"/>
<path d="M168.7,247.6h-3.3" class="g6_360"/>
<path d="M149.3,248.6h5.9v-.8h-5.9Z" class="g7_360"/>
<path d="M157.2,244.3h3.6v.8H158v1.6c.2,0,.3,0,.4,-.1c.2,0,.3,0,.4,0c.8,0,1.4,.2,1.8,.6c.5,.4,.7,1,.7,1.7c0,.8,-.2,1.3,-.7,1.7c-.4,.4,-1.1,.7,-1.9,.7c-.3,0,-.6,-.1,-.9,-.1c-.3,-.1,-.6,-.1,-.9,-.2v-1c.3,.2,.5,.3,.8,.4c.3,0,.6,.1,1,.1c.5,0,.9,-.2,1.2,-.4c.3,-.3,.5,-.7,.5,-1.2c0,-.5,-.2,-.8,-.5,-1.1c-.3,-.3,-.7,-.4,-1.2,-.4c-.3,0,-.5,0,-.8,.1c-.2,0,-.5,.1,-.7,.2v-3.4Z" class="g7_360"/>
<path d="M168.7,208.6h-3.3" class="g6_360"/>
<path d="M159.1,205.2c.8,0,1.4,.3,1.8,.9c.4,.6,.6,1.5,.6,2.6c0,1.2,-.2,2.1,-.6,2.7c-.4,.6,-1,.9,-1.8,.9c-.7,0,-1.3,-.3,-1.7,-.9c-.4,-.6,-.6,-1.5,-.6,-2.7c0,-1.1,.2,-2,.6,-2.6c.4,-.6,1,-.9,1.7,-.9Zm0,.7c-.4,0,-.8,.3,-1,.7c-.3,.5,-.4,1.2,-.4,2.1c0,1,.1,1.7,.4,2.1c.2,.5,.6,.7,1,.7c.5,0,.9,-.2,1.1,-.7c.3,-.4,.4,-1.1,.4,-2.1c0,-.9,-.1,-1.6,-.4,-2.1c-.2,-.4,-.6,-.7,-1.1,-.7Z" class="g7_360"/>
<path d="M168.7,169.6h-3.3" class="g6_360"/>
<path d="M157.2,166.3h3.6v.8H158v1.7c.2,-.1,.3,-.1,.4,-.1c.2,0,.3,-.1,.4,-.1c.8,0,1.4,.3,1.8,.7c.5,.4,.7,1,.7,1.7c0,.7,-.2,1.3,-.7,1.7c-.4,.4,-1.1,.6,-1.9,.6c-.3,0,-.6,0,-.9,-.1c-.3,0,-.6,-.1,-.9,-.2v-.9c.3,.1,.5,.2,.8,.3c.3,.1,.6,.1,1,.1c.5,0,.9,-.1,1.2,-.4c.3,-.3,.5,-.6,.5,-1.1c0,-.5,-.2,-.9,-.5,-1.2c-.3,-.2,-.7,-.4,-1.2,-.4c-.3,0,-.5,.1,-.8,.1c-.2,.1,-.5,.2,-.7,.3v-3.5Z" class="g7_360"/>
<path d="M168.7,130.6h-3.3" class="g6_360"/>
<path d="M151.4,133.4h1.5v-5.2l-1.7,.3v-.8l1.7,-.3h.9v6h1.5v.8h-3.9v-.8Z" class="g7_360"/>
<path d="M159.1,127.2c.8,0,1.4,.3,1.8,.9c.4,.7,.6,1.5,.6,2.7c0,1.1,-.2,2,-.6,2.6c-.4,.6,-1,.9,-1.8,.9c-.7,0,-1.3,-.3,-1.7,-.9c-.4,-.6,-.6,-1.5,-.6,-2.6c0,-1.2,.2,-2,.6,-2.7c.4,-.6,1,-.9,1.7,-.9Zm0,.8c-.4,0,-.8,.2,-1,.7c-.3,.4,-.4,1.1,-.4,2.1c0,.9,.1,1.6,.4,2.1c.2,.5,.6,.7,1,.7c.5,0,.9,-.2,1.1,-.7c.3,-.5,.4,-1.2,.4,-2.1c0,-1,-.1,-1.7,-.4,-2.1c-.2,-.5,-.6,-.7,-1.1,-.7Z" class="g7_360"/>
<path d="M168.7,91.7h-3.3" class="g6_360"/>
<path d="M151.4,94.4h1.5V89.2l-1.7,.4v-.9l1.7,-.3h.9v6h1.5v.8h-3.9v-.8Z" class="g7_360"/>
<path d="M157.2,88.4h3.6v.8H158v1.6c.2,0,.3,0,.4,-.1c.2,0,.3,0,.4,0c.8,0,1.4,.2,1.8,.6c.5,.4,.7,1,.7,1.7c0,.8,-.2,1.3,-.7,1.7c-.4,.4,-1.1,.7,-1.9,.7c-.3,0,-.6,-.1,-.9,-.1c-.3,-.1,-.6,-.1,-.9,-.2v-1c.3,.2,.5,.3,.8,.4c.3,0,.6,.1,1,.1c.5,0,.9,-.2,1.2,-.4c.3,-.3,.5,-.7,.5,-1.2c0,-.5,-.2,-.8,-.5,-1.1c-.3,-.3,-.7,-.4,-1.2,-.4c-.3,0,-.5,0,-.8,.1c-.2,0,-.5,.1,-.7,.2V88.4Z" class="g7_360"/>
<path d="M358.9,316.3h-1c-15.1,-1,-27.3,-8,-38.8,-17.4v-.1l-.2,-.2c-16.1,-13.4,-19.3,-14.8,-40,-8.2h-.2l-.3,.1l-.2,.1c-30.5,10.4,-63.4,2.3,-74.6,-30l-.1,-.2v-.3h-.1v-.2l-.1,-.3c-4.5,-15.3,-1.1,-31.1,7.9,-44.1v-.1l.2,-.2c8.1,-12,18.8,-17.9,28.5,-27.7l.3,-.3l.2,-.2v-.1l.2,-.2c5.7,-6.8,5.4,-13.8,4.9,-22.2v-.2l-.1,-.3c-.7,-8.8,-1.2,-17.4,.2,-26.2v-.3l.1,-.2c2.3,-14.1,9.4,-26.8,21.3,-35l.2,-.1l.1,-.1l.1,-.1l.3,-.1v-.1l.2,-.1l.2,-.1c27.4,-17.5,61.9,-2.9,70.3,28l.1,.2l.1,.3v.2c4.1,16.1,.6,31.8,-6.5,46.4l-.1,.3l-.1,.2c-4.8,11.2,-19.7,29.7,-1.3,36.6l.3,.1h.1l.1,.1l.3,.1h.2l.2,.1c16.1,3.6,29.8,2.5,45.6,10.3l.2,.1l.2,.1c12.4,6,22.4,16,27.3,28.9v.1l.1,.2l.1,.3c11.3,31.6,-12.2,63,-45.4,62.2h-.3l-.2,-.1h-.5Z" class="g8_360"/>
<path d="M214.6,333.3l-4.5,-2.2C193.6,322.4,179.6,309.9,169.9,294l-1.2,-2.1m0,-103.5l3.5,-8.4l7.2,-16.3L184.5,152l6.3,-15.2l4.7,-11l3.4,-7.5l2.9,-6l2.9,-5.4l2.9,-5.1l2.8,-4.5l3.1,-4.4l3,-4l3.2,-4l.8,-1m144.4,0l2.8,3.7l2.8,4c6.3,9.5,11.1,19.8,15.1,30.4l2.8,7.6l7.8,21.9c4,10.3,9,19.6,15.4,28.7l4,5.5l2.8,3.7M181.1,333.3l-.2,-.2c-4.3,-3.3,-8.3,-6.9,-12.1,-10.8l-.1,-.1m0,-180.4l7.4,-16.7c6.2,-13.9,13,-27.5,21.6,-40l.9,-1.2m188.2,0l3,5c10.7,18.5,17.2,39,26.1,58.4l2.5,5.1M168.7,117l4.4,-9.2l3.6,-7l3.8,-7l3.6,-6.2l2.4,-3.7m212.6,0l3.1,6l3.2,6.4l3.6,7.8l4,9.2l5.4,12.8M168.7,101.7l.1,-.1c.7,-1.5,1.5,-3,2.3,-4.5l.1,-.3l.1,-.2c2.2,-4.2,4.6,-8.4,7,-12.5l.1,-.2m228.9,0l3.3,7l3.9,8.4l3.9,8.9" class="g9_360"/>
<path d="M168.7,333.3V83.9M418.4,333.3V83.9M168.7,333.3H418.4M168.7,83.9H418.4" class="ga_360"/>
<path d="M435.1,333.3h12.5V83.9H435.1Z" class="gb_360"/>
<path d="M435.1,333.3h12.5V308.4H435.1Z" class="gc_360"/>
<path d="M435.1,308.4h12.5v-25H435.1Z" class="gd_360"/>
<path d="M435.1,283.4h12.5V258.5H435.1Z" class="ge_360"/>
<path d="M435.1,258.5h12.5v-25H435.1Z" class="gf_360"/>
<path d="M435.1,233.5h12.5V208.6H435.1Z" class="g1_360"/>
<path d="M435.1,208.6h12.5v-25H435.1Z" class="g2_360"/>
<path d="M435.1,183.6h12.5V158.7H435.1Z" class="g3_360"/>
<path d="M435.1,158.7h12.5v-25H435.1Z" class="g4_360"/>
<path d="M435.1,133.7h12.5V108.8H435.1Z" class="g5_360"/>
<path d="M435.1,108.8h12.5V83.9H435.1Z" class="g0_360"/>
<path d="M447.6,308.4h3.3" class="g6_360"/>
<path d="M455.2,309.4H461v-.8h-5.8Z" class="g7_360"/>
<path d="M465.3,305.1h1.2v4.4h1v.8h-1v1.6h-.9v-1.6h-3.1v-.9l2.8,-4.3Zm.3,.8l-2.4,3.6h2.4v-3.6Z" class="g7_360"/>
<path d="M471,305c.7,0,1.3,.3,1.7,.9c.4,.6,.6,1.5,.6,2.6c0,1.2,-.2,2,-.6,2.6c-.4,.6,-1,1,-1.7,1c-.8,0,-1.4,-.4,-1.8,-1c-.4,-.6,-.6,-1.4,-.6,-2.6c0,-1.1,.2,-2,.6,-2.6c.4,-.6,1,-.9,1.8,-.9Zm0,.7c-.5,0,-.9,.2,-1.1,.7c-.2,.5,-.4,1.2,-.4,2.1c0,.9,.2,1.6,.4,2.1c.2,.5,.6,.7,1.1,.7c.5,0,.8,-.2,1.1,-.7c.2,-.5,.3,-1.2,.3,-2.1c0,-.9,-.1,-1.6,-.3,-2.1c-.3,-.5,-.6,-.7,-1.1,-.7Z" class="g7_360"/>
<path d="M447.6,258.5h3.3" class="g6_360"/>
<path d="M455.2,259.5H461v-.8h-5.8Z" class="g7_360"/>
<path d="M463.8,261.3H467v.7h-4.3v-.7c.4,-.4,.8,-.9,1.4,-1.5c.6,-.6,1,-1,1.2,-1.2c.3,-.3,.5,-.6,.6,-.8c.1,-.3,.2,-.5,.2,-.7c0,-.4,-.1,-.7,-.4,-.9c-.3,-.2,-.6,-.3,-1,-.3c-.3,0,-.6,0,-.9,.1c-.3,.1,-.7,.3,-1,.5v-1c.3,-.1,.7,-.2,1,-.3c.3,-.1,.6,-.1,.9,-.1c.7,0,1.3,.2,1.7,.5c.4,.4,.6,.8,.6,1.4c0,.3,0,.6,-.1,.8c-.2,.3,-.3,.6,-.6,.9c-.1,.1,-.3,.4,-.7,.8c-.5,.4,-1,1,-1.8,1.8Z" class="g7_360"/>
<path d="M471,255.1c.7,0,1.3,.3,1.7,.9c.4,.6,.6,1.5,.6,2.6c0,1.2,-.2,2,-.6,2.7c-.4,.6,-1,.9,-1.7,.9c-.8,0,-1.4,-.3,-1.8,-.9c-.4,-.7,-.6,-1.5,-.6,-2.7c0,-1.1,.2,-2,.6,-2.6c.4,-.6,1,-.9,1.8,-.9Zm0,.7c-.5,0,-.9,.2,-1.1,.7c-.2,.5,-.4,1.2,-.4,2.1c0,1,.2,1.7,.4,2.1c.2,.5,.6,.7,1.1,.7c.5,0,.8,-.2,1.1,-.7c.2,-.4,.3,-1.1,.3,-2.1c0,-.9,-.1,-1.6,-.3,-2.1c-.3,-.5,-.6,-.7,-1.1,-.7Z" class="g7_360"/>
<path d="M447.6,208.6h3.3" class="g6_360"/>
<path d="M457.1,205.2c.8,0,1.4,.3,1.8,.9c.4,.6,.6,1.5,.6,2.6c0,1.2,-.2,2.1,-.6,2.7c-.4,.6,-1,.9,-1.8,.9c-.7,0,-1.3,-.3,-1.7,-.9c-.4,-.6,-.6,-1.5,-.6,-2.7c0,-1.1,.2,-2,.6,-2.6c.4,-.6,1,-.9,1.7,-.9Zm0,.7c-.4,0,-.8,.3,-1,.7c-.3,.5,-.4,1.2,-.4,2.1c0,1,.1,1.7,.4,2.1c.2,.5,.6,.7,1,.7c.5,0,.9,-.2,1.1,-.7c.3,-.4,.4,-1.1,.4,-2.1c0,-.9,-.1,-1.6,-.4,-2.1c-.2,-.4,-.6,-.7,-1.1,-.7Z" class="g7_360"/>
<path d="M447.6,158.7h3.3" class="g6_360"/>
<path d="M456,161.5h3.2v.8h-4.4v-.8c.4,-.4,.9,-.9,1.5,-1.5c.6,-.6,1,-1,1.1,-1.2c.3,-.3,.5,-.6,.6,-.8c.2,-.2,.2,-.5,.2,-.7c0,-.4,-.1,-.7,-.4,-.9c-.2,-.2,-.5,-.3,-1,-.3c-.2,0,-.6,0,-.9,.1c-.3,.1,-.6,.3,-1,.5v-1c.4,-.1,.7,-.2,1,-.3c.4,-.1,.7,-.1,.9,-.1c.7,0,1.3,.2,1.7,.5c.4,.4,.7,.9,.7,1.4c0,.3,-.1,.6,-.2,.8c-.1,.3,-.3,.6,-.6,.9c-.1,.1,-.3,.4,-.7,.8c-.4,.4,-1,1,-1.7,1.8Z" class="g7_360"/>
<path d="M463.1,155.3c.8,0,1.4,.3,1.8,.9c.4,.6,.6,1.5,.6,2.6c0,1.2,-.2,2.1,-.6,2.7c-.4,.6,-1,.9,-1.8,.9c-.8,0,-1.3,-.3,-1.7,-.9c-.5,-.6,-.7,-1.5,-.7,-2.7c0,-1.1,.2,-2,.7,-2.6c.4,-.6,.9,-.9,1.7,-.9Zm0,.7c-.5,0,-.8,.3,-1.1,.7c-.2,.5,-.3,1.2,-.3,2.1c0,1,.1,1.7,.3,2.2c.3,.4,.6,.7,1.1,.7c.5,0,.8,-.3,1.1,-.7c.2,-.5,.3,-1.2,.3,-2.2c0,-.9,-.1,-1.6,-.3,-2.1c-.3,-.4,-.6,-.7,-1.1,-.7Z" class="g7_360"/>
<path d="M447.6,108.8h3.3" class="g6_360"/>
<path d="M457.5,105.5h1.1V110h1v.8h-1v1.6h-.9v-1.6h-3.1v-.9l2.9,-4.4Zm.2,.8l-2.3,3.7h2.3v-3.7Z" class="g7_360"/>
<path d="M463.1,105.4c.8,0,1.4,.3,1.8,.9c.4,.6,.6,1.5,.6,2.7c0,1.1,-.2,2,-.6,2.6c-.4,.6,-1,.9,-1.8,.9c-.8,0,-1.3,-.3,-1.7,-.9c-.5,-.6,-.7,-1.5,-.7,-2.6c0,-1.2,.2,-2.1,.7,-2.7c.4,-.6,.9,-.9,1.7,-.9Zm0,.7c-.5,0,-.8,.3,-1.1,.7c-.2,.5,-.3,1.2,-.3,2.2c0,.9,.1,1.6,.3,2.1c.3,.4,.6,.7,1.1,.7c.5,0,.8,-.3,1.1,-.7c.2,-.5,.3,-1.2,.3,-2.1c0,-1,-.1,-1.7,-.3,-2.2c-.3,-.4,-.6,-.7,-1.1,-.7Z" class="g7_360"/>
<path d="M435.1,333.3h12.5V83.9H435.1Z" class="ga_360"/>
<image clip-path="url(#c0_360)" preserveAspectRatio="none" x="142" y="591" width="330" height="164" xlink:href="img/1.jpg"/>
<path d="M311.2,833.3l-.4,.5c-.4,-.3,-.7,-.5,-1,-.6c-.4,-.2,-.7,-.3,-1.1,-.3c-.5,0,-.9,.1,-1.3,.3c-.4,.1,-.7,.3,-1,.6c-.3,.2,-.5,.5,-.7,.9c-.1,.3,-.2,.7,-.2,1c0,.5,.1,.8,.3,1.1c.2,.4,.4,.6,.7,.9c.3,.3,.5,.5,.9,.7c.3,.3,.6,.5,.9,.8c.3,.2,.5,.5,.7,.8c.2,.3,.3,.6,.3,1c0,1.1,-.7,2.2,-2.2,2.2c-1.6,0,-2.3,-1.6,-2.5,-3.2h-.3l-.6,3.4h.4l.4,-1c.7,.7,1.6,1.1,2.6,1.1c.4,0,.9,0,1.3,-.2c.4,-.2,.8,-.4,1.1,-.7c.3,-.3,.5,-.7,.7,-1c.2,-.4,.3,-.9,.3,-1.3c0,-.5,-.1,-.9,-.3,-1.2c-.2,-.4,-.4,-.7,-.7,-.9c-.2,-.3,-.5,-.6,-.9,-.8c-.3,-.2,-.6,-.4,-.9,-.6c-.2,-.3,-.5,-.5,-.6,-.7c-.2,-.3,-.3,-.6,-.3,-.9c0,-1,.4,-1.9,1.9,-1.9c1.3,0,1.8,1.3,1.8,2.6h.4l.5,-2.6h-.2Z" class="gg_360"/>
<path d="M315.5,840.4l1.7,-6.3c.1,-.6,.3,-.7,.9,-.7c2.3,0,3.4,1.7,3.4,3.9c0,.4,-.1,.8,-.2,1.2c-.4,2.3,-2,4.6,-4.8,4.6c-1,0,-1.5,-.6,-1.3,-1.6c.1,-.4,.2,-.7,.3,-1.1Zm-1,-7.3v.2c.3,0,.6,0,.9,.2c.2,.1,.4,.3,.4,.6c0,.4,-.2,.9,-.3,1.3l-1.6,5.9c-.2,1,-.8,1.5,-1.1,1.7c-.2,.1,-.5,.2,-.8,.2l-.1,.2h4.7c.9,0,1.7,-.1,2.5,-.3c.7,-.3,1.4,-.7,2,-1.3c.3,-.3,.6,-.6,.8,-.9c.2,-.4,.4,-.7,.6,-1.1c.1,-.4,.3,-.8,.4,-1.2c.1,-.4,.1,-.8,.1,-1.2c0,-.6,-.1,-1.2,-.3,-1.8c-.3,-.6,-.6,-1.1,-1.2,-1.5c-.4,-.4,-1,-.6,-1.5,-.8c-.6,-.1,-1.2,-.2,-1.8,-.2h-3.7Z" class="gg_360"/>
<path d="M323.7,843.2v.2h4.7v-.2c-.6,0,-1,-.1,-1.2,-.3c-.3,-.2,-.4,-.4,-.4,-.7c0,-.2,0,-.5,.1,-.8l.9,-3.3h1.1c1,0,1,1.2,.9,2.3h.4l.9,-4.3h-.3c-.4,.9,-.8,1.7,-2,1.7h-.9l1.1,-4.4h1.8c.2,0,.5,0,.7,.1c.9,.4,1.5,1.3,1.7,2.3h.3v-2.7h-7.3l-.1,.2c.5,0,.8,.1,1,.3c.2,.1,.3,.3,.3,.6c0,.1,0,.3,0,.4c-.1,.2,-.1,.4,-.2,.6l-1.6,6.2c-.1,.3,-.2,.6,-.3,.8c-.1,.4,-.5,.7,-.8,.9c-.2,0,-.5,.1,-.8,.1Z" class="gg_360"/>
<path d="M332.2,845.6l-.1,.1H338l.8,-2.2h-.3c-.5,1.1,-1.4,2,-3,2c-.7,0,-1.1,-.1,-1.1,-.8c0,-.1,.1,-.3,.1,-.5l1.1,-4.1c.1,-.3,.2,-.6,.3,-.8c.1,-.4,.3,-.8,.7,-.9c.1,0,.3,0,.5,0v-.2H334l-.1,.2c.3,0,.7,0,.8,.1c.1,.1,.2,.3,.2,.5c0,.2,-.1,.5,-.2,.8l-1.2,4.5c0,.2,-.1,.4,-.1,.6c-.2,.2,-.4,.5,-.7,.6c-.1,.1,-.3,.1,-.5,.1Z" class="gg_360"/>
<path d="M342.2,841.3c.2,0,.4,.1,.4,.4c0,1,-1.2,1.7,-2.1,2c.2,-.8,.8,-2.4,1.7,-2.4Zm.1,-.3c-.8,0,-1.5,.6,-1.9,1.1c-.4,.5,-.8,1.4,-.8,2.3c0,.9,.3,1.4,1.2,1.4c.7,0,1.4,-.5,1.8,-1.2l-.1,-.1c-.3,.4,-.9,1.1,-1.5,1.1c-.5,0,-.6,-.4,-.6,-1c0,-.2,0,-.5,0,-.7c1.1,-.2,2.9,-.9,2.9,-2.1c0,-.5,-.5,-.8,-1,-.8Z" class="gg_360"/>
<path d="M349.3,845.8c.9,0,1.5,-1,1.8,-1.5l-.2,-.2c-.2,.4,-.7,1.3,-1.1,1.3c-.1,0,-.1,-.3,-.1,-.4q0,-.1,0,-.2c.2,-.6,.5,-1.3,.7,-2c0,-.3,.2,-.6,.2,-1c0,-.5,-.2,-.8,-.7,-.8c-.4,0,-.6,.2,-.9,.4c-.3,.3,-.6,.6,-.8,1.1h-.1c.1,-.3,.2,-.4,.2,-.7c0,-.5,-.3,-.8,-.8,-.8c-.6,0,-1.1,.5,-1.7,1.5v-.1c.1,-.2,.1,-.4,.1,-.7c0,-.4,0,-.7,-.5,-.7c-.9,0,-1.3,.9,-1.5,1.8h.1c.2,-.4,.7,-1.6,1.1,-1.6c.2,0,.2,.3,.2,.5c0,.1,0,.2,0,.3c-.2,.6,-.4,1.1,-.6,1.7l-.6,2h.7l.7,-2.2c.4,-.7,.8,-1.6,1.4,-2.1c.2,-.1,.3,-.1,.4,-.1c.4,0,.3,.8,.2,1.1c-.1,.5,-.3,1,-.5,1.6l-.5,1.7h.7c.3,-.8,.5,-1.6,.7,-2.2c.3,-.7,.8,-1.5,1.2,-1.9c.3,-.2,.4,-.3,.6,-.3c.1,0,.2,0,.2,.2c0,.4,-.2,.8,-.3,1.3c-.2,.7,-.4,1.2,-.6,1.7c-.1,.3,-.1,.4,-.1,.6c0,.4,.1,.7,.4,.7Z" class="gg_360"/>
<path d="M355.3,845.8c.9,0,1.4,-.9,1.7,-1.4l-.2,-.1c-.2,.4,-.6,1.1,-1,1.1c-.1,0,-.1,-.3,-.1,-.4c0,-.1,0,-.3,.1,-.6c.1,-.2,.2,-.5,.3,-.9c.2,-.6,.4,-1.4,.4,-1.8c0,-.4,-.2,-.7,-.7,-.7c-.8,0,-1.4,.7,-1.9,1.4c.1,-.2,.1,-.4,.1,-.7c0,-.4,-.1,-.7,-.5,-.7c-1,0,-1.3,.9,-1.6,1.8h.3c.1,-.4,.5,-1.5,1,-1.5c.1,0,.2,.1,.2,.2c0,.2,-.1,.6,-.2,.9c-.1,.4,-.2,.8,-.4,1.3l-.6,2h.7l.6,-1.8c.2,-.6,.6,-1.4,1,-1.9c.2,-.3,.7,-.7,1,-.7c.2,0,.3,.1,.3,.3c0,0,-.1,.2,-.1,.3c0,.3,-.1,.6,-.2,.9c-.2,.8,-.4,1.4,-.6,2.1c0,.1,0,.2,0,.2c0,.4,0,.7,.4,.7Z" class="gg_360"/>
<path d="M360.7,839c0,-.3,-.2,-.5,-.5,-.5c-.3,0,-.6,.2,-.6,.5c0,.3,.3,.6,.6,.6c.2,0,.5,-.3,.5,-.6Zm-2,6.8c.9,0,1.4,-.8,1.7,-1.4l-.2,-.1c-.1,.3,-.5,1.1,-1,1.1c-.1,0,-.2,-.2,-.2,-.3c0,-.2,.1,-.7,.2,-.8l.7,-2.1c.1,-.3,.1,-.4,.1,-.6c0,-.3,0,-.6,-.3,-.6c-.7,0,-1.5,.8,-1.7,1.4l.2,.1c.1,-.2,.5,-.8,.8,-.8c.1,0,.2,.1,.2,.2c0,.2,-.1,.5,-.2,.7l-.7,2c-.1,.3,-.1,.5,-.1,.7c0,.3,.1,.5,.5,.5Z" class="gg_360"/>
<path d="M362.8,845.6c-.3,0,-.4,-.3,-.3,-.6c.1,-.3,-.2,-.5,-.5,-.5c-.2,0,-.4,.2,-.4,.5c0,.6,.6,.8,1.2,.8c.4,0,.8,-.2,1,-.4c.3,-.2,.5,-.5,.5,-1c0,-.3,-.1,-.5,-.2,-.8c-.2,-.4,-.6,-.7,-.8,-1.1c-.1,-.1,-.1,-.3,-.1,-.5c0,-.3,.1,-.8,.5,-.8c.5,0,.4,.3,.4,.5c-.1,.2,.1,.5,.4,.5c.2,0,.3,-.2,.3,-.4c0,-.5,-.4,-.8,-1,-.8c-.4,0,-.7,.2,-1,.4c-.2,.2,-.3,.5,-.3,1c0,.2,0,.4,.1,.6c.3,.4,.5,.7,.8,1.1c.1,.2,.2,.4,.2,.6c0,.4,-.1,.9,-.8,.9Z" class="gg_360"/>
<path d="M366.3,844.4c0,-.3,.1,-.7,.2,-1c.2,-.7,.8,-2.1,1.6,-2.1c.3,0,.3,.1,.3,.1c0,.2,-.1,.2,-.1,.4c0,.2,.1,.4,.4,.4c.3,0,.4,-.2,.4,-.5c0,-.5,-.4,-.7,-.9,-.7c-1,0,-1.8,1.1,-2.3,1.8c-.2,.5,-.4,1,-.4,1.6c0,.8,.5,1.4,1.3,1.4c.9,0,1.5,-.7,1.9,-1.5l-.2,-.1c-.4,.7,-.9,1.4,-1.5,1.4c-.5,0,-.7,-.7,-.7,-1.2Z" class="gg_360"/>
<path d="M373,841c-.3,0,-.6,.1,-1,.4c-.3,.2,-.6,.4,-.9,.8c-.4,.5,-.9,1.4,-.9,2.4c0,.7,.3,1.2,1,1.2c.9,0,1.3,-.6,1.6,-1.1c-.2,.7,-.1,1.1,.4,1.1c.2,0,.5,-.1,.8,-.3c.3,-.3,.6,-.6,.8,-1l-.1,-.1c-.2,.3,-.7,1,-1,1c-.2,0,-.2,-.3,-.2,-.4c0,-.7,.4,-1.8,.7,-2.6l.5,-1.3h-.8l-.1,.5c-.2,-.4,-.4,-.6,-.8,-.6Zm.1,.2c.5,0,.4,1,.3,1.4c0,.2,-.1,.5,-.2,.7c-.3,.9,-1.1,2.3,-1.7,2.3c-.4,0,-.5,-.7,-.5,-1.1c0,-.3,0,-.6,.1,-1c.3,-.7,1.1,-2.3,2,-2.3Z" class="gg_360"/>
<path d="M376.4,845.8c.9,0,1.5,-.9,1.8,-1.5l-.2,-.1c-.2,.3,-.6,1.2,-1.2,1.2c-.2,0,-.2,-.3,-.2,-.4c0,-.2,0,-.4,.1,-.8l.8,-2.8h1v-.3h-.9l.3,-1.2h-.8l-.3,1.2h-.7l-.1,.3h.8l-.7,2.6c-.1,.3,-.2,.6,-.2,.8c-.1,.2,-.1,.3,-.1,.5c0,.4,.2,.5,.6,.5Z" class="gg_360"/>
<path d="M382.1,841.3c.2,0,.4,.1,.4,.4c0,1,-1.3,1.7,-2.2,2c.2,-.8,.9,-2.4,1.8,-2.4Zm.1,-.3c-.9,0,-1.5,.6,-1.9,1.1c-.5,.5,-.8,1.4,-.8,2.3c0,.9,.3,1.4,1.1,1.4c.8,0,1.5,-.5,1.9,-1.2l-.2,-.1c-.3,.4,-.9,1.1,-1.5,1.1c-.4,0,-.6,-.4,-.6,-1c0,-.2,0,-.5,.1,-.7c1,-.2,2.8,-.9,2.8,-2.1c0,-.5,-.4,-.8,-.9,-.8Z" class="gg_360"/>
<path d="M389.4,832.8c-2.1,1.3,-3.6,3.8,-3.6,6.8c0,2.8,1.5,5.5,3.6,6.8l.2,-.2c-2,-1.6,-2.5,-3.4,-2.5,-6.7c0,-3.3,.6,-5,2.5,-6.5l-.2,-.2Z" class="gg_360"/>
<path d="M398.7,838c0,-.6,-.5,-1.1,-1.1,-1.1c-.4,0,-.8,.2,-1.1,.4c-.4,.3,-.8,.6,-1,1c0,-.7,-.4,-1.4,-1.1,-1.4c-1.2,0,-2.1,1.2,-2.5,2.1l.3,.1c.3,-.5,1,-1.6,1.7,-1.6c.3,0,.4,.5,.4,.9c0,.3,-.1,.7,-.2,1.1l-.3,1.1c-.2,.5,-.4,1.3,-.7,1.7c-.1,.2,-.4,.6,-.7,.6c-.3,0,-.7,-.1,-.5,-.4c.1,-.3,0,-.7,-.6,-.7c-.6,0,-.9,.3,-.9,.8c0,.6,.5,1,1.2,1c1.1,0,2,-.9,2.4,-1.6h.1c.1,.9,.5,1.6,1.4,1.6c1.5,0,2.1,-1.2,2.6,-2l-.3,-.1c-.5,.6,-1.2,1.6,-1.9,1.6c-.4,0,-.6,-.6,-.6,-1.2c0,-.3,.1,-.8,.2,-1.3c.2,-.7,.4,-1.6,.7,-2.2c.2,-.3,.5,-.9,.8,-.9c.6,0,.4,.3,.3,.6c0,.4,.2,.5,.7,.5c.5,.1,.7,-.3,.7,-.6Z" class="gg_360"/>
<path d="M400,832.8l-.1,.2c1.9,1.5,2.5,3.2,2.5,6.5c0,3.3,-.6,5.1,-2.5,6.7l.1,.2c2.1,-1.3,3.7,-4,3.7,-6.8c0,-3,-1.5,-5.5,-3.7,-6.8Z" class="gg_360"/>
<path d="M409.9,841.5h7.6v-.8h-7.6Zm0,-3h7.6v-.8h-7.6Z" class="gg_360"/>
<path d="M424.1,846.3h.8V832.9h-.8Zm3,0h.8V832.9h-.8Z" class="gg_360"/>
<path d="M437.8,838c0,-.6,-.5,-1.1,-1.1,-1.1c-.4,0,-.8,.2,-1.1,.4c-.4,.3,-.8,.6,-1,1c0,-.7,-.4,-1.4,-1.1,-1.4c-1.2,0,-2.1,1.2,-2.4,2.1l.2,.1c.3,-.5,1,-1.6,1.7,-1.6c.3,0,.4,.5,.4,.9c0,.3,-.1,.7,-.2,1.1l-.3,1.1c-.2,.5,-.4,1.3,-.7,1.7c-.1,.2,-.3,.6,-.7,.6c-.3,0,-.7,-.1,-.5,-.4c.1,-.3,0,-.7,-.6,-.7c-.6,0,-.9,.3,-.9,.8c0,.6,.5,1,1.2,1c1.2,0,2,-.9,2.4,-1.6h.1c.1,.9,.5,1.6,1.4,1.6c1.5,0,2.1,-1.2,2.6,-2l-.3,-.1c-.5,.6,-1.2,1.6,-1.8,1.6c-.5,0,-.7,-.6,-.7,-1.2c0,-.3,.1,-.8,.2,-1.3c.2,-.7,.4,-1.6,.7,-2.2c.2,-.3,.5,-.9,.8,-.9c.6,0,.4,.3,.3,.6c0,.4,.2,.5,.7,.5c.5,.1,.7,-.3,.7,-.6Z" class="gg_360"/>
<path d="M442.8,840h7.6v-.8h-7.6Z" class="gg_360"/>
<path d="M455.6,846.2c-.3,0,-.5,-.4,-.6,-.7c-.1,-.2,-.2,-.5,-.7,-.5c-.4,0,-.6,.2,-.6,.5c0,.6,1.2,1.1,1.8,1.1c1.6,0,2,-.9,2.5,-2c.2,-.6,.5,-1.2,.7,-2.1l1.4,-5h1.1l.1,-.5h-1.1c.3,-1.1,.8,-3,1,-3.5c.1,-.2,.5,-.6,.8,-.6c.2,0,.6,.4,.7,.7c.1,.2,.2,.5,.7,.5c.4,0,.6,-.2,.6,-.5c0,-.7,-1.3,-1.1,-1.8,-1.1c-2.3,0,-3.1,3,-3.6,4.5h-1.1l-.1,.5h1l-1.9,7.2c-.1,.4,-.5,1.5,-.9,1.5Z" class="gg_360"/>
<path d="M462.3,838.7v.1c.4,0,.8,.1,1,.2c.3,.1,.3,.3,.3,.7v4.8c0,.2,0,.4,0,.5c-.1,.5,-.7,.6,-1.2,.6v.2h3.4v-.2c-.3,0,-.9,0,-1,-.2c-.2,-.2,-.2,-.6,-.2,-1v-6.3c-.6,.3,-1.6,.6,-2.3,.6Z" class="gg_360"/>
<path d="M469.6,846.3h.8V832.9h-.8Zm2.9,0h.9V832.9h-.9Z" class="gg_360"/>
<path d="M477,846.3h.9V832.9H477Zm3,0h.8V832.9H480Z" class="gg_360"/>
<path d="M490.8,838c0,-.6,-.5,-1.1,-1.2,-1.1c-.3,0,-.7,.2,-1.1,.4c-.3,.3,-.7,.6,-1,1c0,-.7,-.4,-1.4,-1,-1.4c-1.3,0,-2.2,1.2,-2.5,2.1l.2,.1c.4,-.5,1,-1.6,1.8,-1.6c.2,0,.3,.5,.3,.9c0,.3,0,.7,-.2,1.1l-.3,1.1c-.1,.5,-.3,1.3,-.6,1.7c-.2,.2,-.4,.6,-.7,.6c-.4,0,-.7,-.1,-.6,-.4c.1,-.3,.1,-.7,-.6,-.7c-.6,0,-.9,.3,-.9,.8c0,.6,.6,1,1.2,1c1.2,0,2,-.9,2.5,-1.6c.1,.9,.5,1.6,1.4,1.6c1.5,0,2.2,-1.2,2.6,-2l-.3,-.1c-.4,.6,-1.1,1.6,-1.8,1.6c-.4,0,-.6,-.6,-.6,-1.2c0,-.3,0,-.8,.2,-1.3c.2,-.7,.3,-1.6,.7,-2.2c.1,-.3,.5,-.9,.8,-.9c.6,0,.3,.3,.3,.6c-.1,.4,.1,.5,.6,.5c.5,.1,.8,-.3,.8,-.6Z" class="gg_360"/>
<path d="M495.7,840h7.6v-.8h-7.6Z" class="gg_360"/>
<path d="M508.5,846.2c-.2,0,-.5,-.4,-.5,-.7c-.1,-.2,-.3,-.5,-.8,-.5c-.3,0,-.5,.2,-.5,.5c0,.6,1.1,1.1,1.7,1.1c1.7,0,2.1,-.9,2.6,-2c.2,-.6,.5,-1.2,.7,-2.1l1.3,-5h1.1l.1,-.5h-1c.3,-1.1,.7,-3,1,-3.5c.1,-.2,.4,-.6,.7,-.6c.3,0,.7,.4,.7,.7c.1,.2,.3,.5,.8,.5c.3,0,.5,-.2,.5,-.5c0,-.7,-1.2,-1.1,-1.8,-1.1c-2.3,0,-3.1,3,-3.6,4.5h-1.1v.5h1l-2,7.2c0,.4,-.4,1.5,-.9,1.5Z" class="gg_360"/>
<path d="M519.1,841.6c0,-.4,-.3,-.7,-.7,-.7c-.2,0,-.5,.1,-.7,.3c-.2,.1,-.5,.3,-.6,.6c0,-.5,-.3,-.9,-.8,-.9c-.8,0,-1.5,.9,-1.8,1.4l.2,.1c.2,-.3,.8,-1.2,1.4,-1.2c.2,0,.3,.4,.3,.7c0,.2,0,.5,-.2,.8l-.2,.9c-.1,.4,-.3,1,-.5,1.3c-.1,.2,-.3,.5,-.6,.5c-.3,0,-.5,-.1,-.5,-.4c.1,-.2,.1,-.5,-.3,-.5c-.3,0,-.4,.2,-.4,.5c0,.5,.3,.7,.8,.7c.7,0,1.2,-.5,1.5,-1c.1,.6,.4,1,1,1c.9,0,1.5,-.8,1.8,-1.3l-.1,-.1c-.4,.4,-.9,1.2,-1.5,1.2c-.3,0,-.5,-.5,-.5,-.9c0,-.3,.1,-.6,.2,-1l.1,-.5c.1,-.4,.3,-.9,.5,-1.2c.1,-.2,.4,-.7,.6,-.7c.3,0,.3,.2,.3,.5c0,.2,.1,.4,.3,.4c.3,0,.4,-.2,.4,-.5Z" class="gg_360"/>
<path d="M522.2,846.3h.8V832.9h-.8Zm3,0h.8V832.9h-.8Z" class="gg_360"/>
<path d="M532.1,840h7.6v-.8h-7.6Z" class="gg_360"/>
<path d="M545.3,841.6c0,-.5,0,-1,.2,-1.5c.3,-.9,1,-2.8,2.2,-2.8c.3,0,.3,.1,.3,.2c0,.2,-.1,.3,-.1,.5c0,.3,.2,.5,.6,.5c.4,0,.6,-.2,.6,-.6c0,-.7,-.6,-1,-1.3,-1c-1.4,0,-2.5,1.5,-3.1,2.5c-.3,.6,-.6,1.3,-.6,2.2c0,1.1,.6,1.9,1.7,1.9c1.3,0,2.2,-1,2.6,-2l-.2,-.1c-.5,.9,-1.2,1.8,-2.1,1.8c-.6,0,-.8,-1,-.8,-1.6Z" class="gg_360"/>
</svg>