<?xml version="1.0" encoding="UTF-8" standalone="no"?>
<!DOCTYPE svg PUBLIC "-//W3C//DTD SVG 1.1//EN"
"http://www.w3.org/Graphics/SVG/1.1/DTD/svg11.dtd">
<svg viewBox="0 0 811 1017" version="1.1" xmlns="http://www.w3.org/2000/svg" xmlns:xlink="http://www.w3.org/1999/xlink">
<defs>
<style type="text/css"><![CDATA[
.g0_212{
fill: #0E0E0E;
}
]]></style>
</defs>
<path d="M371.5,164.6v.2h7.9l1.2,-3.1h-.4c-.7,1.6,-1.9,2.8,-4.1,2.8c-1,0,-1.5,-.2,-1.5,-1c0,-.2,.1,-.5,.1,-.8l1.5,-5.6c.1,-.4,.2,-.8,.4,-1.1c.2,-.5,.4,-1,.9,-1.2c.2,0,.5,-.1,.7,-.1l.1,-.2h-4.4v.2c.4,0,.9,.1,1.1,.2c.1,.1,.2,.4,.2,.7c0,.3,-.1,.7,-.2,1.1l-1.6,6.1c-.1,.4,-.2,.6,-.3,.8c-.1,.4,-.4,.8,-.9,.9c-.1,.1,-.4,.1,-.7,.1Z" class="g0_212"/>
<path d="M386.4,154.2c-2.2,1.4,-3.7,3.8,-3.7,6.8c0,2.8,1.6,5.6,3.6,6.9l.2,-.3c-2,-1.5,-2.5,-3.3,-2.5,-6.6c0,-3.3,.6,-5,2.5,-6.6l-.1,-.2Z" class="g0_212"/>
<path d="M394.7,159.3c0,-.5,-.4,-.9,-1,-.9c-.3,0,-.6,.1,-.9,.3c-.3,.2,-.6,.5,-.9,.9c0,-.7,-.4,-1.2,-1,-1.2c-1.1,0,-2.1,1.1,-2.4,1.9l.2,.2c.3,-.6,1.1,-1.8,1.9,-1.8c.3,0,.4,.6,.4,1c0,.3,0,.7,-.2,1.2l-.3,1.2c-.2,.5,-.4,1.3,-.7,1.7c-.2,.3,-.5,.7,-.8,.7c-.5,0,-.8,-.1,-.7,-.5c.1,-.3,.1,-.7,-.4,-.7c-.4,0,-.6,.3,-.6,.7c0,.6,.5,1,1.1,1c1,0,1.7,-.8,2.1,-1.5c.1,.8,.5,1.5,1.4,1.5c1.1,0,2,-1.2,2.4,-1.9l-.2,-.1c-.5,.6,-1.2,1.6,-2,1.6c-.4,0,-.6,-.6,-.6,-1.2c0,-.3,0,-.8,.2,-1.3l.2,-.8c.1,-.5,.3,-1.2,.6,-1.6c.2,-.3,.5,-.9,.9,-.9c.4,0,.4,.3,.4,.6c-.1,.4,.1,.6,.4,.6c.4,0,.5,-.3,.5,-.7Z" class="g0_212"/>
<path d="M396,154.2l-.1,.2c1.9,1.6,2.5,3.3,2.5,6.6c0,3.3,-.5,5.1,-2.5,6.6l.2,.3c2,-1.3,3.6,-4.1,3.6,-6.9c0,-3,-1.5,-5.4,-3.7,-6.8Z" class="g0_212"/>
<path d="M405.9,163h7.6v-.9h-7.6Zm0,-3.1h7.6v-.8h-7.6Z" class="g0_212"/>
<path d="M429.2,146.6h.2l1.6,-6c.1,-.1,.1,-.3,.2,-.5c.1,-.2,.4,-.6,.6,-.8c.1,-.1,.4,-.1,.5,-.1v-.1h-2.2l-.1,.1c.3,0,.5,.1,.6,.3c.2,.1,.2,.6,.2,.8c0,.1,0,.3,-.1,.4l-1,4v.1l-2.6,-5.7h-1.9l-.1,.1c.5,0,.6,0,.8,.2c.2,.3,.4,.7,.4,1c0,.1,-.1,.2,-.1,.3l-1.2,4.4c0,.4,-.3,.7,-.5,1c-.3,.2,-.7,.4,-1,.4v.1h2.8v-.1c-.3,-.1,-.6,-.1,-.7,-.3c-.2,-.1,-.3,-.5,-.3,-.7c0,-.2,0,-.3,0,-.5l1.1,-4.3l.1,-.2l2.7,6.1Z" class="g0_212"/>
<path d="M436.7,166h-.3c-.5,3.2,-1.8,4.9,-3.6,4.9H421.5l8.1,-10.3l-7,-10.2H432c1.9,0,2.9,1,3.5,4.3h.3l-.1,-5.1H420l8,11.4l-9.1,11.5h17.5l.3,-6.5Z" class="g0_212"/>
<path d="M423,175.9c0,-.3,-.2,-.6,-.6,-.6c-.3,0,-.5,.3,-.5,.6c0,.3,.3,.5,.5,.5c.3,0,.6,-.3,.6,-.5Zm-2,6.7c.9,0,1.4,-.8,1.7,-1.4l-.2,-.1c-.1,.3,-.6,1.1,-1,1.1c-.1,0,-.2,-.2,-.2,-.3c0,-.2,.1,-.6,.2,-.8l.7,-2.1c.1,-.3,.1,-.4,.1,-.6c0,-.3,0,-.6,-.3,-.6c-.7,0,-1.5,.8,-1.8,1.4l.2,.1c.2,-.2,.6,-.8,.9,-.8c.1,0,.2,.1,.2,.2c0,.2,-.1,.5,-.2,.7l-.7,2c-.1,.3,-.1,.5,-.1,.7c0,.4,.1,.5,.5,.5Z" class="g0_212"/>
<path d="M424.2,181.2h5.6v-.6h-5.6Zm0,-2.2h5.6v-.6h-5.6Z" class="g0_212"/>
<path d="M431.7,175.5v.1c.3,0,.8,.1,.9,.2c.4,.1,.3,.3,.4,.7v4.8c0,.2,-.1,.4,-.1,.5c-.1,.5,-.6,.6,-1.2,.6v.2h3.4v-.2c-.3,0,-.9,0,-1,-.2c-.2,-.2,-.2,-.6,-.2,-1v-6.3c-.6,.3,-1.5,.6,-2.2,.6Z" class="g0_212"/>
<path d="M439.5,167c0,.6,.5,1,1.1,1c.4,0,.8,-.2,1.3,-.6c.8,-.7,2,-2.2,2.8,-3.4c.4,-.7,.7,-1.3,1,-1.8c.4,-.8,1.1,-2.2,1.1,-3c0,-.2,0,-.4,-.1,-.6c-.1,-.2,-.3,-.2,-.5,-.2c-.1,0,-.3,0,-.4,.2c-.2,.1,-.2,.3,-.2,.6c0,.5,.2,.9,.2,1.3c0,.6,-.2,1.2,-.4,1.6c-.3,.5,-.5,.9,-.9,1.5h-.1l-.3,-2c-.1,-.5,-.3,-1.6,-.4,-2c-.2,-.7,-.3,-1.2,-1.3,-1.2c-1.2,0,-1.4,1.7,-1.6,2.5l.3,.1c.1,-.5,.6,-2.3,1,-2.3c.3,0,.5,1,.6,1.3c0,.3,.1,.7,.2,1.3l.6,3.6c-.3,.8,-1.1,1.6,-1.8,2.1c-.2,.2,-.5,.3,-.7,.3c-.1,0,-.1,-.1,-.2,-.2c-.2,-.3,-.2,-.7,-.7,-.7c-.4,0,-.6,.2,-.6,.6Z" class="g0_212"/>
<path d="M450,160.4c0,-.3,-.2,-.6,-.5,-.6c-.4,0,-.6,.3,-.6,.6c0,.3,.3,.5,.6,.5c.2,0,.5,-.2,.5,-.5Zm-2,6.8c.9,0,1.4,-.9,1.7,-1.5l-.2,-.1c-.1,.3,-.5,1.1,-1,1.1c-.1,0,-.2,-.2,-.2,-.3c0,-.2,.1,-.6,.2,-.8l.7,-2c.1,-.3,.1,-.5,.1,-.7c0,-.3,0,-.5,-.3,-.5c-.7,0,-1.5,.8,-1.8,1.3l.2,.1c.2,-.2,.6,-.8,.9,-.8c.1,0,.2,.1,.2,.2c0,.2,-.1,.5,-.2,.7l-.7,2.1c-.1,.2,-.1,.5,-.1,.6c0,.4,.1,.6,.5,.6Z" class="g0_212"/>
<path d="M454.1,161.5c0,-1.3,.6,-2.8,1.7,-2.8c.7,0,.9,.6,.9,1.2c0,1.4,-.6,2.8,-1.7,2.8c-.6,0,-.9,-.6,-.9,-1.2Zm3.4,-2.3c.2,-.1,.2,-.2,.4,-.2c.1,0,.2,0,.3,.1c.2,.2,.3,.6,.7,.6c.3,0,.5,-.2,.5,-.6c0,-.4,-.5,-.7,-1,-.7c-.3,0,-.7,.2,-1,.6c-.4,-.4,-.9,-.6,-1.5,-.6c-.9,0,-1.5,.3,-2,.8c-.4,.4,-.8,1,-.8,1.9c0,.7,.2,1.2,.8,1.7c-.5,.2,-.8,.3,-1,.5c-.2,.2,-.3,.4,-.3,.6c0,.3,.1,.6,.5,.8c.4,.2,1.1,.4,1.9,.6c.5,0,.9,.2,1.2,.4c.2,.1,.4,.3,.4,.6c0,.7,-1.2,1.3,-2.2,1.3c-1.3,.1,-2,-.4,-2,-1.2c0,-.6,.3,-.9,.7,-1.1c-.2,-.1,-.3,-.2,-.6,-.2c-.6,0,-1,.6,-1,1.2c0,.2,0,.5,.1,.7c.5,.7,1.5,1,2.7,1c1,0,1.8,-.2,2.4,-.6c.4,-.4,.7,-.8,.7,-1.5c0,-.9,-1.1,-1.4,-1.7,-1.5c-.5,-.2,-1.1,-.3,-1.6,-.5c-.2,-.1,-.2,-.2,-.2,-.4c0,-.3,.6,-.4,1,-.4c1.7,-.1,2.7,-1.2,2.7,-3c0,-.3,0,-.7,-.1,-.9Z" class="g0_212"/>
<path d="M461.4,160.4c0,-.3,-.2,-.6,-.5,-.6c-.3,0,-.6,.3,-.6,.6c0,.3,.3,.5,.6,.5c.3,0,.5,-.2,.5,-.5Zm-2,6.8c1,0,1.5,-.9,1.7,-1.5l-.2,-.1c-.1,.3,-.5,1.1,-1,1.1c-.1,0,-.2,-.2,-.2,-.3c0,-.2,.1,-.6,.2,-.8l.7,-2c.1,-.3,.2,-.5,.2,-.7c0,-.3,0,-.5,-.4,-.5c-.7,0,-1.5,.8,-1.7,1.3l.2,.1c.1,-.2,.5,-.8,.8,-.8c.2,0,.2,.1,.2,.2c0,.2,-.1,.5,-.2,.7L459,166c-.1,.2,-.1,.5,-.1,.6c0,.4,.1,.6,.5,.6Z" class="g0_212"/>
<path d="M468.1,154.2c-2.2,1.4,-3.7,3.8,-3.7,6.8c0,2.8,1.6,5.6,3.7,6.9l.1,-.3c-1.9,-1.5,-2.5,-3.3,-2.5,-6.6c0,-3.3,.6,-5,2.5,-6.6l-.1,-.2Z" class="g0_212"/>
<path d="M476.5,159.3c0,-.5,-.5,-.9,-1,-.9c-.3,0,-.7,.1,-1,.3c-.3,.2,-.6,.5,-.8,.9c0,-.7,-.4,-1.2,-1.1,-1.2c-1.1,0,-2.1,1.1,-2.4,1.9l.2,.2c.3,-.6,1.1,-1.8,2,-1.8c.2,0,.4,.6,.4,1c0,.3,-.1,.7,-.3,1.2l-.3,1.2c-.2,.5,-.4,1.3,-.7,1.7c-.2,.3,-.4,.7,-.8,.7c-.4,0,-.7,-.1,-.6,-.5c.1,-.3,0,-.7,-.4,-.7c-.5,0,-.7,.3,-.7,.7c0,.6,.5,1,1.1,1c1,0,1.7,-.8,2.1,-1.5h.1c.1,.8,.5,1.5,1.3,1.5c1.2,0,2,-1.2,2.4,-1.9l-.2,-.1c-.4,.6,-1.1,1.6,-1.9,1.6c-.5,0,-.7,-.6,-.7,-1.2c0,-.3,.1,-.8,.2,-1.3l.2,-.8c.1,-.5,.3,-1.2,.6,-1.6c.2,-.3,.6,-.9,.9,-.9c.5,0,.4,.3,.4,.6c0,.4,.1,.6,.5,.6c.3,0,.5,-.3,.5,-.7Z" class="g0_212"/>
<path d="M477.8,154.2l-.2,.2c1.9,1.6,2.6,3.3,2.6,6.6c0,3.3,-.6,5.1,-2.6,6.6l.2,.3c1.9,-1.2,3.4,-3.6,3.6,-6.2v-1.4c-.2,-2.7,-1.7,-4.8,-3.6,-6.1Z" class="g0_212"/>
<path d="M364.4,289.1c0,-1.4,.6,-2.9,1.7,-2.9c.7,0,.9,.7,.9,1.2c0,1.5,-.6,2.8,-1.7,2.8c-.5,0,-.9,-.6,-.9,-1.1Zm3.4,-2.4c.3,-.1,.3,-.2,.5,-.2c.1,0,.2,0,.2,.1c.2,.2,.3,.6,.7,.6c.3,0,.5,-.2,.5,-.5c0,-.5,-.5,-.8,-.9,-.8c-.4,0,-.7,.2,-1.1,.6c-.4,-.4,-.9,-.6,-1.5,-.6c-.8,0,-1.5,.4,-1.9,.8c-.5,.4,-.9,1.1,-.9,1.9c0,.7,.3,1.2,.9,1.7h-.1c-.5,.2,-.8,.4,-1,.5c-.2,.2,-.3,.4,-.3,.6c0,.4,.1,.6,.5,.8c.4,.2,1.1,.4,2,.6c.5,0,.8,.2,1.1,.4c.3,.2,.4,.4,.4,.6c0,.8,-1.1,1.4,-2.2,1.4c-1.2,0,-2,-.5,-2,-1.3c0,-.5,.3,-.9,.7,-1.1c-.2,-.1,-.3,-.1,-.6,-.1c-.6,0,-1,.5,-1,1.1c0,.3,0,.5,.1,.7c.6,.7,1.5,1,2.7,1c1,0,1.8,-.2,2.4,-.6c.4,-.3,.8,-.8,.8,-1.5c0,-.8,-1.2,-1.4,-1.8,-1.5c-.5,-.2,-1.1,-.3,-1.5,-.5c-.2,0,-.3,-.2,-.3,-.4c0,-.3,.6,-.3,1.1,-.4c1.6,-.1,2.7,-1.2,2.7,-3c0,-.3,-.1,-.6,-.2,-.9Z" class="g0_212"/>
<path d="M371.8,287.9c0,-.3,-.3,-.6,-.6,-.6c-.3,0,-.5,.3,-.5,.6c0,.3,.2,.5,.5,.5c.3,0,.6,-.2,.6,-.5Zm-2.1,6.8c1,0,1.5,-.8,1.8,-1.4l-.2,-.1c-.2,.2,-.6,1,-1,1c-.1,0,-.3,-.2,-.3,-.3c0,-.2,.2,-.6,.2,-.8l.8,-2c.1,-.3,.1,-.5,.1,-.6c0,-.4,0,-.6,-.4,-.6c-.6,0,-1.5,.8,-1.7,1.3l.2,.1c.2,-.2,.6,-.8,.8,-.8c.2,0,.2,.2,.2,.3c.1,.1,0,.4,-.1,.6l-.7,2.1c-.1,.2,-.2,.5,-.2,.6c0,.4,.2,.6,.5,.6Z" class="g0_212"/>
<path d="M378.4,281.7c-2.1,1.4,-3.6,3.8,-3.6,6.9c0,2.7,1.5,5.5,3.6,6.8l.2,-.3c-2,-1.5,-2.6,-3.3,-2.6,-6.6c0,-3.3,.6,-5,2.6,-6.5l-.2,-.3Z" class="g0_212"/>
<path d="M386.8,286.8c0,-.5,-.4,-.9,-1,-.9c-.3,0,-.6,.1,-.9,.3c-.4,.3,-.7,.6,-.9,.9c0,-.6,-.4,-1.2,-1,-1.2c-1.2,0,-2.1,1.2,-2.5,2l.2,.1c.4,-.5,1.1,-1.7,2,-1.7c.3,0,.4,.5,.4,.9c0,.3,-.1,.7,-.2,1.2l-.4,1.2c-.1,.6,-.4,1.3,-.7,1.7c-.1,.3,-.4,.7,-.8,.7c-.4,0,-.7,-.1,-.6,-.5c.1,-.3,0,-.7,-.4,-.7c-.4,0,-.6,.3,-.6,.8c0,.5,.4,.9,1,.9c1,0,1.8,-.8,2.2,-1.4c.1,.8,.5,1.4,1.3,1.4c1.2,0,2,-1.2,2.5,-1.8l-.2,-.2c-.5,.6,-1.2,1.6,-2,1.6c-.4,0,-.6,-.6,-.6,-1.2c0,-.3,0,-.8,.1,-1.3l.2,-.7c.1,-.6,.4,-1.3,.6,-1.7c.2,-.2,.6,-.9,1,-.9c.4,0,.4,.3,.3,.6c0,.4,.2,.6,.5,.6c.4,0,.5,-.3,.5,-.7Z" class="g0_212"/>
<path d="M388.1,281.7l-.1,.3c1.9,1.5,2.5,3.2,2.5,6.5c0,3.3,-.6,5.1,-2.5,6.6l.1,.3c2.1,-1.3,3.7,-4.1,3.7,-6.8c0,-3.1,-1.5,-5.5,-3.7,-6.9Z" class="g0_212"/>
<path d="M398,290.5h7.6v-.8H398Zm0,-3h7.6v-.9H398Z" class="g0_212"/>
<path d="M429.4,274.1h.2l1.6,-6c.1,-.1,.1,-.3,.2,-.4c.1,-.3,.4,-.7,.6,-.9c.1,0,.4,-.1,.5,-.1v-.1h-2.2l-.1,.1c.3,.1,.5,.1,.6,.3c.2,.2,.2,.6,.2,.9c0,.1,0,.2,-.1,.3l-1,4v.1l-2.6,-5.7h-1.9l-.1,.1c.5,.1,.6,.1,.8,.2c.2,.3,.4,.7,.4,1c0,.1,-.1,.2,-.1,.3l-1.2,4.5c0,.3,-.3,.7,-.5,.9c-.3,.2,-.7,.4,-1,.4v.1h2.8V274c-.3,0,-.6,-.1,-.7,-.2c-.2,-.2,-.3,-.5,-.3,-.8c0,-.1,0,-.3,0,-.4l1.1,-4.4l.1,-.2l2.7,6.1Z" class="g0_212"/>
<path d="M437.2,300v-.3c-.6,0,-1.5,-.2,-1.5,-.9V278.3c0,-.7,.9,-.8,1.5,-.8v-.4H419.5v.4c.6,0,1.5,.1,1.5,.8v20.5c0,.7,-.9,.9,-1.5,.9v.3h4.6v-.3c-.5,0,-1.5,-.2,-1.5,-1V278.3c0,-.3,.4,-.6,.7,-.6h10c.3,0,.7,.3,.7,.7v20.3c0,.8,-.8,1,-1.5,1v.3h4.7Z" class="g0_212"/>
<path d="M409.9,311.7c0,.4,.4,.7,.8,.7c.5,0,.9,-.4,1.2,-.7c.3,-.3,.6,-.8,.7,-1.3l.7,-2.7c.2,-.4,.3,-.8,.3,-1.1c.1,-.3,.2,-.6,.2,-.8c0,-.2,-.1,-.4,-.4,-.4c-.7,0,-1.5,.8,-1.7,1.3l.2,.1c.1,-.2,.5,-.8,.8,-.8c.1,0,.2,.2,.2,.3c0,.3,-.1,.5,-.1,.9l-1.1,3.9c-.1,.3,-.3,1,-.7,1c0,0,-.1,-.1,-.1,-.2c-.2,-.2,-.1,-.7,-.6,-.7c-.3,0,-.4,.2,-.4,.5Zm4.3,-8.3c0,-.3,-.2,-.6,-.6,-.6c-.3,0,-.5,.3,-.5,.6c0,.3,.3,.5,.5,.5c.3,0,.6,-.2,.6,-.5Z" class="g0_212"/>
<path d="M415.2,308.7h5.5v-.6h-5.5Zm0,-2.2h5.5v-.6h-5.5Z" class="g0_212"/>
<path d="M422.6,303v.2c.4,0,.8,0,1,.1c.3,.2,.3,.3,.3,.7v4.8c0,.2,0,.4,0,.5c-.1,.5,-.7,.6,-1.2,.6v.2h3.4v-.2c-.4,0,-.9,0,-1.1,-.2c-.1,-.2,-.1,-.6,-.1,-1v-6.3c-.6,.3,-1.6,.6,-2.3,.6Z" class="g0_212"/>
<path d="M428.4,309.5c0,.3,.2,.6,.5,.6c.1,0,.2,0,.3,-.1c0,.3,-.1,.5,-.2,.8c-.2,.2,-.4,.4,-.8,.7l.2,.3c.3,-.2,.5,-.3,.7,-.5c.3,-.4,.6,-.7,.6,-1.4c0,-.7,-.2,-1,-.7,-1c-.3,0,-.6,.2,-.6,.6Z" class="g0_212"/>
<path d="M430.8,311.7c0,.4,.4,.7,.8,.7c.5,0,.9,-.4,1.2,-.7c.3,-.3,.6,-.8,.7,-1.3l.8,-2.7c.1,-.4,.2,-.8,.3,-1.1c0,-.3,.1,-.6,.1,-.8c0,-.2,-.1,-.4,-.4,-.4c-.6,0,-1.4,.8,-1.7,1.3l.2,.1c.1,-.2,.5,-.8,.8,-.8c.1,0,.2,.2,.2,.3c0,.3,0,.5,-.1,.9l-1.1,3.9c-.1,.3,-.3,1,-.6,1c-.1,0,-.2,-.1,-.2,-.2c-.2,-.2,0,-.7,-.6,-.7c-.3,0,-.4,.2,-.4,.5Zm4.3,-8.3c0,-.3,-.2,-.6,-.5,-.6c-.3,0,-.6,.3,-.6,.6c0,.3,.3,.5,.6,.5c.2,0,.5,-.2,.5,-.5Z" class="g0_212"/>
<path d="M441.9,308.7v-.6h-2.8l.6,-1.6h2.2v-.6H440l.8,-2h-.7l-.7,2h-3.1v.6h2.8l-.6,1.6h-2.2v.6h1.9l-.7,1.9h.6l.8,-1.9h3Z" class="g0_212"/>
<path d="M445.6,303.4c0,-.3,-.3,-.6,-.6,-.6c-.3,0,-.5,.3,-.5,.6c0,.3,.3,.5,.5,.5c.3,0,.6,-.2,.6,-.5Zm-2.1,6.8c1,0,1.5,-.9,1.8,-1.5l-.2,-.1c-.2,.3,-.6,1.1,-1,1.1c-.1,0,-.2,-.2,-.2,-.3c0,-.2,.1,-.6,.2,-.8l.7,-2c.1,-.3,.1,-.5,.1,-.7c0,-.3,0,-.5,-.3,-.5c-.7,0,-1.5,.8,-1.8,1.3l.2,.1c.2,-.2,.6,-.8,.8,-.8c.2,0,.2,.1,.2,.2c.1,.2,0,.5,-.1,.7l-.7,2.1c-.1,.2,-.2,.5,-.2,.6c0,.4,.2,.6,.5,.6Z" class="g0_212"/>
<path d="M459.8,275.6c0,-.5,-.4,-1,-1,-1c-.3,0,-.6,.2,-.9,.4c-.4,.2,-.7,.5,-.9,.9c0,-.7,-.4,-1.3,-1,-1.3c-1.2,0,-2.1,1.2,-2.5,2l.2,.1c.4,-.5,1.1,-1.7,2,-1.7c.3,0,.4,.6,.4,1c0,.3,-.1,.7,-.2,1.1l-.4,1.2c-.1,.6,-.4,1.4,-.7,1.8c-.1,.3,-.4,.7,-.8,.7c-.4,0,-.7,-.1,-.6,-.5c.1,-.3,0,-.8,-.4,-.8c-.4,0,-.6,.4,-.6,.8c0,.6,.5,.9,1,.9c1,0,1.8,-.7,2.2,-1.4c.1,.8,.5,1.4,1.3,1.4c1.2,0,2,-1.1,2.5,-1.8l-.2,-.2c-.5,.7,-1.2,1.7,-2,1.7c-.4,0,-.6,-.6,-.6,-1.2c0,-.4,0,-.8,.1,-1.4l.2,-.7c.1,-.6,.4,-1.2,.6,-1.6c.2,-.3,.6,-1,1,-1c.4,0,.4,.3,.3,.6c0,.4,.2,.6,.5,.6c.4,0,.5,-.3,.5,-.6Z" class="g0_212"/>
<path d="M464.8,277.7h7.6v-.8h-7.6Z" class="g0_212"/>
<path d="M483.8,275.6c0,-.5,-.4,-1,-1,-1c-.3,0,-.6,.2,-.9,.4c-.3,.2,-.6,.5,-.8,.9c0,-.7,-.5,-1.3,-1.1,-1.3c-1.1,0,-2.1,1.2,-2.4,2l.2,.1c.3,-.5,1.1,-1.7,1.9,-1.7c.3,0,.4,.6,.4,1c0,.3,0,.7,-.2,1.1l-.3,1.2c-.2,.6,-.4,1.4,-.7,1.8c-.2,.3,-.5,.7,-.8,.7c-.5,0,-.8,-.1,-.7,-.5c.1,-.3,.1,-.8,-.4,-.8c-.4,0,-.6,.4,-.6,.8c0,.6,.5,.9,1.1,.9c1,0,1.7,-.7,2.1,-1.4c.1,.8,.5,1.4,1.4,1.4c1.1,0,2,-1.1,2.4,-1.8l-.2,-.2c-.5,.7,-1.2,1.7,-2,1.7c-.4,0,-.6,-.6,-.6,-1.2c0,-.4,0,-.8,.2,-1.4l.2,-.7c.1,-.6,.3,-1.2,.6,-1.6c.2,-.3,.5,-1,.9,-1c.4,0,.4,.3,.4,.6c-.1,.4,.1,.6,.4,.6c.4,0,.5,-.3,.5,-.6Z" class="g0_212"/>
<path d="M483.5,285c0,.4,.4,.6,.8,.6c.5,0,.9,-.3,1.2,-.6c.3,-.4,.6,-.8,.7,-1.3L487,281c.1,-.4,.2,-.8,.3,-1.1c0,-.3,.1,-.6,.1,-.8c0,-.3,-.1,-.5,-.4,-.5c-.6,0,-1.4,.8,-1.7,1.4l.2,.1c.1,-.2,.5,-.8,.8,-.8c.1,0,.2,.1,.2,.2c0,.4,0,.6,-.1,.9l-1.1,3.9c-.1,.4,-.3,1,-.6,1c-.1,0,-.2,0,-.2,-.1c-.2,-.2,-.1,-.8,-.6,-.8c-.3,0,-.4,.3,-.4,.6Zm4.3,-8.4c0,-.2,-.2,-.5,-.5,-.5c-.3,0,-.6,.2,-.6,.5c0,.3,.3,.6,.6,.6c.2,0,.5,-.3,.5,-.6Z" class="g0_212"/>
<path d="M450.6,289h40.5v-.9H450.6Z" class="g0_212"/>
<path d="M457.8,297.1c0,-.6,-.4,-1,-1,-1c-.3,0,-.6,.2,-.9,.4c-.3,.2,-.6,.5,-.9,.9c0,-.7,-.4,-1.3,-1,-1.3c-1.1,0,-2.1,1.2,-2.4,2l.2,.1c.3,-.5,1.1,-1.7,1.9,-1.7c.3,0,.4,.5,.4,1c0,.3,0,.6,-.2,1.1l-.3,1.2c-.2,.6,-.4,1.4,-.7,1.8c-.2,.2,-.5,.7,-.8,.7c-.5,0,-.8,-.1,-.7,-.5c.1,-.3,.1,-.8,-.4,-.8c-.4,0,-.6,.3,-.6,.8c0,.6,.5,.9,1.1,.9c1,0,1.7,-.7,2.1,-1.4c.1,.8,.5,1.4,1.4,1.4c1.1,0,2,-1.1,2.4,-1.8l-.2,-.2c-.5,.7,-1.2,1.7,-2,1.7c-.4,0,-.6,-.6,-.6,-1.2c0,-.4,0,-.8,.2,-1.4l.2,-.7c.1,-.6,.3,-1.2,.6,-1.6c.2,-.3,.5,-1,.9,-1c.4,0,.4,.3,.4,.6c-.1,.4,.1,.6,.4,.6c.4,0,.5,-.3,.5,-.6Z" class="g0_212"/>
<path d="M461,298.1c0,-.3,-.3,-.5,-.6,-.5c-.3,0,-.5,.2,-.5,.5c0,.3,.2,.6,.5,.6c.3,0,.6,-.3,.6,-.6Zm-2.1,6.8c1,0,1.5,-.8,1.8,-1.4l-.2,-.1c-.2,.3,-.6,1.1,-1,1.1c-.1,0,-.3,-.2,-.3,-.3c0,-.2,.2,-.7,.2,-.8l.8,-2.1c.1,-.3,.1,-.4,.1,-.6c0,-.3,0,-.6,-.4,-.6c-.6,0,-1.5,.8,-1.7,1.4l.2,.1c.2,-.2,.6,-.8,.8,-.8c.2,0,.2,.1,.2,.2c0,.2,0,.5,-.1,.7l-.8,2c0,.3,-.1,.5,-.1,.7c0,.3,.1,.5,.5,.5Z" class="g0_212"/>
<path d="M466.7,299.2h7.6v-.8h-7.6Z" class="g0_212"/>
<path d="M485.8,297.1c0,-.6,-.4,-1,-1,-1c-.3,0,-.6,.2,-.9,.4c-.3,.2,-.7,.5,-.9,.9c0,-.7,-.4,-1.3,-1,-1.3c-1.2,0,-2.1,1.2,-2.5,2l.2,.1c.4,-.5,1.1,-1.7,2,-1.7c.3,0,.4,.5,.4,1c0,.3,-.1,.6,-.2,1.1l-.4,1.2c-.1,.6,-.4,1.4,-.7,1.8c-.1,.2,-.4,.7,-.8,.7c-.4,0,-.7,-.1,-.6,-.5c.1,-.3,0,-.8,-.4,-.8c-.4,0,-.6,.3,-.6,.8c0,.6,.5,.9,1,.9c1,0,1.8,-.7,2.2,-1.4c.1,.8,.5,1.4,1.3,1.4c1.2,0,2,-1.1,2.5,-1.8l-.2,-.2c-.5,.7,-1.2,1.7,-2,1.7c-.4,0,-.6,-.6,-.6,-1.2c0,-.4,0,-.8,.1,-1.4l.2,-.7c.1,-.6,.4,-1.2,.7,-1.6c.1,-.3,.5,-1,.9,-1c.4,0,.4,.3,.3,.6c0,.4,.2,.6,.5,.6c.4,0,.5,-.3,.5,-.6Z" class="g0_212"/>
<path d="M485.5,306.5c0,.4,.4,.6,.8,.6c.5,0,.9,-.3,1.2,-.6c.3,-.4,.6,-.8,.7,-1.4l.7,-2.6c.2,-.4,.3,-.8,.3,-1.1c.1,-.3,.1,-.6,.1,-.8c0,-.3,-.1,-.5,-.4,-.5c-.6,0,-1.4,.8,-1.6,1.4l.2,.1c.1,-.2,.5,-.8,.8,-.8c.1,0,.2,.1,.2,.2c0,.4,-.1,.6,-.2,.9l-1,3.9c-.1,.4,-.3,1,-.7,1q-.1,0,-.2,-.1c-.1,-.2,0,-.8,-.5,-.8c-.3,0,-.4,.3,-.4,.6Zm4.3,-8.4c0,-.3,-.3,-.5,-.6,-.5c-.3,0,-.5,.2,-.5,.5c0,.3,.2,.6,.5,.6c.3,0,.6,-.3,.6,-.6Z" class="g0_212"/>
<path d="M415.5,396c0,-.5,-.4,-.9,-1,-.9c-.3,0,-.6,.1,-.9,.3c-.4,.2,-.7,.5,-.9,.9c0,-.7,-.4,-1.2,-1,-1.2c-1.2,0,-2.1,1.1,-2.5,1.9l.2,.1c.4,-.5,1.1,-1.7,2,-1.7c.3,0,.4,.6,.4,1c0,.3,-.1,.7,-.2,1.2l-.4,1.1c-.1,.6,-.4,1.4,-.7,1.8c-.1,.3,-.4,.7,-.8,.7c-.4,0,-.7,-.1,-.6,-.5c.1,-.3,0,-.7,-.4,-.7c-.5,0,-.6,.3,-.6,.7c0,.6,.4,1,1,1c1,0,1.8,-.8,2.2,-1.5c.1,.8,.5,1.5,1.3,1.5c1.2,0,2,-1.2,2.5,-1.9l-.2,-.2c-.5,.7,-1.2,1.7,-2,1.7c-.4,0,-.6,-.6,-.6,-1.2c0,-.4,0,-.8,.1,-1.4l.2,-.7c.1,-.6,.4,-1.2,.6,-1.6c.2,-.3,.6,-.9,1,-.9c.4,0,.4,.3,.3,.6c0,.4,.2,.5,.5,.5c.4,0,.5,-.2,.5,-.6Z" class="g0_212"/>
<path d="M420.5,398.1h7.6v-.8h-7.6Z" class="g0_212"/>
<path d="M439.5,396c0,-.5,-.4,-.9,-1,-.9c-.3,0,-.6,.1,-.9,.3c-.3,.2,-.6,.5,-.9,.9c0,-.7,-.4,-1.2,-1,-1.2c-1.1,0,-2.1,1.1,-2.4,1.9l.2,.1c.3,-.5,1,-1.7,1.9,-1.7c.3,0,.4,.6,.4,1c0,.3,0,.7,-.2,1.2l-.3,1.1c-.2,.6,-.4,1.4,-.7,1.8c-.2,.3,-.5,.7,-.8,.7c-.5,0,-.8,-.1,-.7,-.5c.1,-.3,.1,-.7,-.4,-.7c-.4,0,-.6,.3,-.6,.7c0,.6,.5,1,1.1,1c1,0,1.7,-.8,2.1,-1.5c.1,.8,.5,1.5,1.4,1.5c1.1,0,2,-1.2,2.4,-1.9l-.2,-.2c-.5,.7,-1.2,1.7,-2,1.7c-.4,0,-.6,-.6,-.6,-1.2c0,-.4,0,-.8,.2,-1.4l.2,-.7c.1,-.6,.3,-1.2,.6,-1.6c.2,-.3,.5,-.9,.9,-.9c.4,0,.4,.3,.4,.6c-.1,.4,.1,.5,.4,.5c.4,0,.5,-.2,.5,-.6Z" class="g0_212"/>
<path d="M439.2,405.4c0,.4,.4,.7,.8,.7c.5,0,.9,-.4,1.2,-.7c.3,-.3,.6,-.8,.7,-1.3l.8,-2.7c.1,-.4,.2,-.8,.3,-1.1c0,-.3,.1,-.6,.1,-.8c0,-.2,-.1,-.5,-.4,-.5c-.6,0,-1.5,.9,-1.7,1.4l.2,.1c.1,-.2,.5,-.8,.8,-.8c.1,0,.2,.1,.2,.3c0,.3,-.1,.5,-.1,.9l-1.1,3.9c-.1,.3,-.3,.9,-.7,.9c0,0,-.1,0,-.1,-.1c-.2,-.2,-.1,-.7,-.6,-.7c-.3,0,-.4,.2,-.4,.5Zm4.3,-8.3c0,-.3,-.2,-.6,-.5,-.6c-.4,0,-.6,.3,-.6,.6c0,.3,.3,.5,.6,.5c.2,0,.5,-.2,.5,-.5Z" class="g0_212"/>
<path d="M406.3,409.4h40.4v-.9H406.3Z" class="g0_212"/>
<path d="M413.5,417.5c0,-.5,-.4,-.9,-1,-.9c-.3,0,-.6,.1,-.9,.3c-.3,.2,-.6,.5,-.9,.9c0,-.7,-.4,-1.2,-1,-1.2c-1.1,0,-2.1,1.1,-2.4,1.9l.2,.1c.3,-.5,1,-1.7,1.9,-1.7c.3,0,.4,.6,.4,1c0,.3,0,.7,-.2,1.2l-.3,1.1c-.2,.6,-.4,1.4,-.7,1.8c-.2,.3,-.5,.7,-.8,.7c-.5,0,-.8,-.1,-.7,-.5c.1,-.3,.1,-.7,-.4,-.7c-.4,0,-.6,.3,-.6,.7c0,.6,.5,.9,1.1,.9c1,0,1.7,-.7,2.1,-1.4c.1,.8,.5,1.4,1.4,1.4c1.1,0,2,-1.1,2.4,-1.8l-.2,-.2c-.5,.7,-1.2,1.7,-2,1.7c-.4,0,-.6,-.6,-.6,-1.2c0,-.4,0,-.8,.2,-1.4l.2,-.7c.1,-.6,.3,-1.2,.6,-1.6c.2,-.3,.5,-.9,.9,-.9c.4,0,.4,.2,.4,.6c-.1,.4,.1,.5,.4,.5c.4,0,.5,-.2,.5,-.6Z" class="g0_212"/>
<path d="M416.7,418.6c0,-.3,-.3,-.6,-.6,-.6c-.3,0,-.5,.3,-.5,.6c0,.3,.2,.5,.5,.5c.3,0,.6,-.3,.6,-.5Zm-2.1,6.8c1,-.1,1.5,-.9,1.8,-1.5l-.2,-.1c-.2,.3,-.6,1.1,-1,1.1c-.1,0,-.3,-.2,-.3,-.3c0,-.2,.2,-.6,.2,-.8l.7,-2c.2,-.4,.2,-.5,.2,-.7c0,-.3,0,-.6,-.4,-.6c-.7,0,-1.5,.8,-1.7,1.4l.2,.1c.2,-.2,.6,-.8,.8,-.8c.2,0,.2,.1,.2,.2c0,.2,-.1,.5,-.1,.7l-.8,2c0,.3,-.1,.5,-.1,.7c0,.4,.1,.6,.5,.6Z" class="g0_212"/>
<path d="M422.4,419.6H430v-.8h-7.6Z" class="g0_212"/>
<path d="M441.5,417.5c0,-.5,-.4,-.9,-1,-.9c-.3,0,-.6,.1,-.9,.3c-.4,.2,-.7,.5,-.9,.9c0,-.7,-.4,-1.2,-1,-1.2c-1.2,0,-2.1,1.1,-2.5,1.9l.2,.1c.4,-.5,1.1,-1.7,2,-1.7c.3,0,.4,.6,.4,1c0,.3,-.1,.7,-.2,1.2l-.4,1.1c-.1,.6,-.4,1.4,-.7,1.8c-.1,.3,-.4,.7,-.8,.7c-.4,0,-.7,-.1,-.6,-.5c.1,-.3,0,-.7,-.4,-.7c-.5,0,-.6,.3,-.6,.7c0,.6,.4,.9,1,.9c1,0,1.8,-.7,2.2,-1.4c.1,.8,.5,1.4,1.3,1.4c1.2,0,2,-1.1,2.5,-1.8l-.2,-.2c-.5,.7,-1.2,1.7,-2,1.7c-.4,0,-.6,-.6,-.6,-1.2c0,-.4,0,-.8,.1,-1.4l.2,-.7c.1,-.6,.4,-1.2,.6,-1.6c.2,-.3,.6,-.9,1,-.9c.4,0,.4,.2,.3,.6c0,.4,.2,.5,.5,.5c.4,0,.5,-.2,.5,-.6Z" class="g0_212"/>
<path d="M441.2,426.9c0,.4,.4,.6,.8,.6c.5,0,.9,-.3,1.2,-.6c.3,-.3,.6,-.8,.7,-1.3l.7,-2.7c.1,-.4,.2,-.8,.3,-1.1c.1,-.3,.1,-.6,.1,-.8c0,-.2,-.1,-.5,-.4,-.5c-.6,0,-1.4,.9,-1.6,1.4l.1,.1c.2,-.2,.6,-.8,.9,-.8c.1,0,.2,.1,.2,.3c0,.3,-.1,.5,-.2,.9l-1,3.9c-.1,.3,-.3,.9,-.7,.9q-.1,0,-.2,-.1c-.1,-.2,0,-.7,-.5,-.7c-.3,0,-.4,.2,-.4,.5Zm4.3,-8.3c0,-.3,-.3,-.6,-.6,-.6c-.3,0,-.5,.3,-.5,.6c0,.3,.2,.5,.5,.5c.3,0,.6,-.3,.6,-.5Z" class="g0_212"/>
<path d="M413.5,487c0,-.6,-.4,-1,-1,-1c-.3,0,-.6,.2,-.9,.4c-.3,.2,-.6,.5,-.9,.9c0,-.7,-.4,-1.3,-1,-1.3c-1.1,0,-2.1,1.2,-2.4,2l.2,.1c.3,-.5,1,-1.7,1.9,-1.7c.3,0,.4,.5,.4,1c0,.3,0,.6,-.2,1.1l-.3,1.2c-.2,.6,-.4,1.4,-.7,1.8c-.2,.2,-.5,.7,-.8,.7c-.5,0,-.8,-.1,-.7,-.5c.1,-.3,.1,-.8,-.4,-.8c-.4,0,-.6,.3,-.6,.8c0,.6,.5,.9,1.1,.9c1,0,1.7,-.8,2.1,-1.4c.1,.8,.5,1.4,1.4,1.4c1.1,0,2,-1.1,2.4,-1.8l-.2,-.2c-.5,.7,-1.2,1.7,-2,1.7c-.4,0,-.6,-.6,-.6,-1.3c0,-.3,0,-.7,.2,-1.3l.2,-.7c.1,-.6,.3,-1.3,.6,-1.6c.2,-.3,.5,-1,.9,-1c.4,0,.4,.3,.4,.6c-.1,.4,.1,.6,.4,.6c.4,0,.5,-.3,.5,-.6Z" class="g0_212"/>
<path d="M416.7,488c0,-.3,-.3,-.5,-.6,-.5c-.3,0,-.5,.2,-.5,.5c0,.3,.2,.6,.5,.6c.3,0,.6,-.3,.6,-.6Zm-2.1,6.8c1,0,1.5,-.8,1.8,-1.4l-.2,-.1c-.2,.2,-.6,1.1,-1,1.1c-.1,0,-.3,-.2,-.3,-.3c0,-.2,.2,-.7,.2,-.8l.7,-2.1c.2,-.3,.2,-.4,.2,-.6c0,-.3,0,-.6,-.4,-.6c-.7,0,-1.5,.8,-1.7,1.4l.2,.1c.2,-.2,.6,-.8,.8,-.8c.2,0,.2,.1,.2,.2c0,.2,-.1,.5,-.1,.7l-.8,2c0,.3,-.1,.5,-.1,.7c0,.3,.1,.5,.5,.5Z" class="g0_212"/>
<path d="M422.4,489.1H430v-.8h-7.6Z" class="g0_212"/>
<path d="M441.5,487c0,-.6,-.4,-1,-1,-1c-.3,0,-.6,.2,-.9,.4c-.4,.2,-.7,.5,-.9,.9c0,-.7,-.4,-1.3,-1,-1.3c-1.2,0,-2.1,1.2,-2.5,2l.2,.1c.4,-.5,1.1,-1.7,2,-1.7c.3,0,.4,.5,.4,1c0,.3,-.1,.6,-.2,1.1l-.4,1.2c-.1,.6,-.4,1.4,-.7,1.8c-.1,.2,-.4,.7,-.8,.7c-.4,0,-.7,-.1,-.6,-.5c.1,-.3,0,-.8,-.4,-.8c-.5,0,-.6,.3,-.6,.8c0,.6,.4,.9,1,.9c1,0,1.8,-.8,2.2,-1.4c.1,.8,.5,1.4,1.3,1.4c1.2,0,2,-1.1,2.5,-1.8l-.2,-.2c-.5,.7,-1.2,1.7,-2,1.7c-.4,0,-.6,-.6,-.6,-1.3c0,-.3,0,-.7,.1,-1.3l.2,-.7c.1,-.6,.4,-1.3,.6,-1.6c.2,-.3,.6,-1,1,-1c.4,0,.4,.3,.3,.6c0,.4,.2,.6,.5,.6c.4,0,.5,-.3,.5,-.6Z" class="g0_212"/>
<path d="M441.2,496.4c0,.4,.4,.6,.8,.6c.5,0,.9,-.3,1.2,-.6c.3,-.4,.6,-.8,.7,-1.4l.7,-2.6c.1,-.4,.2,-.8,.3,-1.1c.1,-.3,.1,-.6,.1,-.8c0,-.3,-.1,-.5,-.4,-.5c-.6,0,-1.4,.8,-1.6,1.4l.1,.1c.2,-.2,.6,-.8,.9,-.8c.1,0,.2,.1,.2,.2c0,.4,-.1,.6,-.2,.9l-1,3.9c-.1,.4,-.3,1,-.7,1q-.1,0,-.2,-.1c-.1,-.2,0,-.8,-.5,-.8c-.3,0,-.4,.3,-.4,.6Zm4.3,-8.4c0,-.3,-.3,-.5,-.6,-.5c-.3,0,-.5,.2,-.5,.5c0,.3,.2,.6,.5,.6c.3,0,.6,-.3,.6,-.6Z" class="g0_212"/>
<path d="M406.3,500.3h40.4v-.8H406.3Z" class="g0_212"/>
<path d="M413.5,508.5c0,-.6,-.4,-1,-1,-1c-.3,0,-.6,.2,-.9,.4c-.3,.2,-.6,.5,-.9,.9c0,-.7,-.4,-1.3,-1,-1.3c-1.1,0,-2.1,1.2,-2.4,2l.2,.1c.3,-.5,1,-1.7,1.9,-1.7c.3,0,.4,.5,.4,1c0,.3,0,.6,-.2,1.1l-.3,1.2c-.2,.6,-.4,1.4,-.7,1.8c-.2,.2,-.5,.7,-.8,.7c-.5,0,-.8,-.1,-.7,-.5c.1,-.3,.1,-.8,-.4,-.8c-.4,0,-.6,.3,-.6,.8c0,.5,.5,.9,1.1,.9c1,0,1.7,-.8,2.1,-1.4c.1,.8,.5,1.4,1.4,1.4c1.1,0,2,-1.1,2.4,-1.8l-.2,-.2c-.5,.6,-1.2,1.7,-2,1.7c-.4,0,-.6,-.6,-.6,-1.3c0,-.3,0,-.7,.2,-1.3l.2,-.7c.1,-.6,.3,-1.3,.6,-1.6c.2,-.3,.5,-1,.9,-1c.4,0,.4,.3,.4,.6c-.1,.4,.1,.6,.4,.6c.4,0,.5,-.3,.5,-.6Z" class="g0_212"/>
<path d="M416.7,509.5c0,-.3,-.3,-.5,-.6,-.5c-.3,0,-.5,.2,-.5,.5c0,.3,.2,.6,.5,.6c.3,0,.6,-.3,.6,-.6Zm-2.1,6.8c1,0,1.5,-.8,1.8,-1.4l-.2,-.1c-.2,.2,-.6,1,-1,1c-.1,0,-.3,-.1,-.3,-.2c0,-.3,.2,-.7,.2,-.8l.7,-2.1c.2,-.3,.2,-.4,.2,-.6c0,-.3,0,-.6,-.4,-.6c-.7,0,-1.5,.8,-1.7,1.4l.2,.1c.2,-.2,.6,-.9,.8,-.9c.2,0,.2,.2,.2,.3c0,.2,-.1,.5,-.1,.7l-.8,2c0,.3,-.1,.5,-.1,.6c0,.4,.1,.6,.5,.6Z" class="g0_212"/>
<path d="M422.4,510.6H430v-.8h-7.6Z" class="g0_212"/>
<path d="M441.5,508.5c0,-.6,-.4,-1,-1,-1c-.3,0,-.6,.2,-.9,.4c-.4,.2,-.7,.5,-.9,.9c0,-.7,-.4,-1.3,-1,-1.3c-1.2,0,-2.1,1.2,-2.5,2l.2,.1c.4,-.5,1.1,-1.7,2,-1.7c.3,0,.4,.5,.4,1c0,.3,-.1,.6,-.2,1.1l-.4,1.2c-.1,.6,-.4,1.4,-.7,1.8c-.1,.2,-.4,.7,-.8,.7c-.4,0,-.7,-.1,-.6,-.5c.1,-.3,0,-.8,-.4,-.8c-.5,0,-.6,.3,-.6,.8c0,.5,.4,.9,1,.9c1,0,1.8,-.8,2.2,-1.4c.1,.8,.5,1.4,1.3,1.4c1.2,0,2,-1.1,2.5,-1.8l-.2,-.2c-.5,.6,-1.2,1.7,-2,1.7c-.4,0,-.6,-.6,-.6,-1.3c0,-.3,0,-.7,.1,-1.3l.2,-.7c.1,-.6,.4,-1.3,.6,-1.6c.2,-.3,.6,-1,1,-1c.4,0,.4,.3,.3,.6c0,.4,.2,.6,.5,.6c.4,0,.5,-.3,.5,-.6Z" class="g0_212"/>
<path d="M441.2,517.9c0,.4,.4,.6,.8,.6c.5,0,.9,-.3,1.2,-.6c.3,-.4,.6,-.8,.7,-1.4l.7,-2.6c.1,-.5,.2,-.8,.3,-1.1c.1,-.4,.1,-.6,.1,-.8c0,-.3,-.1,-.5,-.4,-.5c-.6,0,-1.4,.8,-1.6,1.4l.1,.1c.2,-.2,.6,-.9,.9,-.9c.1,0,.2,.2,.2,.3c0,.4,-.1,.6,-.2,.9l-1,3.9c-.1,.3,-.3,1,-.7,1q-.1,0,-.2,-.1c-.1,-.2,0,-.8,-.5,-.8c-.3,0,-.4,.3,-.4,.6Zm4.3,-8.4c0,-.3,-.3,-.5,-.6,-.5c-.3,0,-.5,.2,-.5,.5c0,.3,.2,.6,.5,.6c.3,0,.6,-.3,.6,-.6Z" class="g0_212"/>
<path d="M391.1,676.9v.2c.4,0,1.1,.1,1.3,.2c.5,.2,.4,.4,.5,1v6.5c0,.3,-.1,.6,-.1,.8c-.1,.6,-.9,.7,-1.6,.8v.2h4.7v-.2c-.5,-.1,-1.3,-.1,-1.5,-.4c-.2,-.2,-.2,-.7,-.2,-1.3v-8.6c-.8,.4,-2.1,.7,-3.1,.8Z" class="g0_212"/>
<path d="M373.1,693.3h40.4v-.9H373.1Z" class="g0_212"/>
<path d="M380.3,701.4c0,-.5,-.5,-1,-1,-1c-.3,0,-.6,.2,-1,.4c-.3,.2,-.6,.5,-.8,.9c0,-.7,-.4,-1.3,-1.1,-1.3c-1.1,0,-2.1,1.2,-2.4,2l.2,.1c.4,-.5,1.1,-1.7,2,-1.7c.3,0,.4,.6,.4,1c0,.3,-.1,.7,-.2,1.1l-.4,1.2c-.1,.6,-.4,1.4,-.7,1.8c-.1,.3,-.4,.7,-.8,.7c-.4,0,-.7,-.1,-.6,-.5c.1,-.3,0,-.8,-.4,-.8c-.5,0,-.6,.4,-.6,.8c0,.6,.4,.9,1,.9c1,0,1.8,-.7,2.1,-1.4h.1c.1,.8,.5,1.4,1.3,1.4c1.2,0,2,-1.1,2.5,-1.8l-.2,-.2c-.5,.7,-1.2,1.7,-2,1.7c-.4,0,-.6,-.6,-.6,-1.2c0,-.4,0,-.8,.1,-1.4l.2,-.7c.1,-.6,.4,-1.2,.6,-1.6c.2,-.3,.6,-1,1,-1c.4,0,.4,.3,.3,.6c0,.4,.2,.6,.5,.6c.4,0,.5,-.3,.5,-.6Z" class="g0_212"/>
<path d="M383.4,702.4c0,-.2,-.2,-.5,-.5,-.5c-.3,0,-.6,.2,-.6,.5c0,.4,.3,.6,.6,.6c.2,0,.5,-.3,.5,-.6Zm-2,6.8c.9,0,1.4,-.8,1.7,-1.4l-.2,-.1c-.1,.3,-.5,1.1,-1,1.1c-.1,0,-.2,-.2,-.2,-.3c0,-.2,.1,-.6,.2,-.8l.7,-2.1c.1,-.3,.1,-.4,.1,-.6c0,-.3,0,-.6,-.3,-.6c-.7,0,-1.5,.8,-1.7,1.4l.2,.1c.1,-.2,.5,-.8,.8,-.8c.1,0,.2,.1,.2,.2c0,.2,-.1,.5,-.2,.7l-.7,2c-.1,.3,-.1,.5,-.1,.7c0,.3,.1,.5,.5,.5Z" class="g0_212"/>
<path d="M389.2,703.5h7.6v-.8h-7.6Z" class="g0_212"/>
<path d="M408.3,701.4c0,-.5,-.5,-1,-1,-1c-.4,0,-.7,.2,-1,.4c-.3,.2,-.6,.5,-.8,.9c0,-.7,-.5,-1.3,-1.1,-1.3c-1.1,0,-2.1,1.2,-2.4,2l.2,.1c.3,-.5,1.1,-1.7,2,-1.7c.2,0,.3,.6,.3,1c0,.3,0,.7,-.2,1.1l-.3,1.2c-.2,.6,-.4,1.4,-.7,1.8c-.2,.3,-.5,.7,-.8,.7c-.4,0,-.8,-.1,-.6,-.5c0,-.3,0,-.8,-.4,-.8c-.5,0,-.7,.4,-.7,.8c0,.6,.5,.9,1.1,.9c1,0,1.7,-.7,2.1,-1.4c.1,.8,.5,1.4,1.4,1.4c1.1,0,2,-1.1,2.4,-1.8l-.2,-.2c-.5,.7,-1.1,1.7,-1.9,1.7c-.5,0,-.7,-.6,-.7,-1.2c0,-.4,.1,-.8,.2,-1.4l.2,-.7c.1,-.6,.3,-1.2,.6,-1.6c.2,-.3,.6,-1,.9,-1c.4,0,.4,.3,.4,.6c0,.4,.1,.6,.5,.6c.3,0,.5,-.3,.5,-.6Z" class="g0_212"/>
<path d="M407.9,710.8c0,.4,.4,.6,.8,.6c.5,0,.9,-.3,1.2,-.6c.3,-.4,.6,-.8,.7,-1.3l.8,-2.7c.1,-.4,.2,-.8,.3,-1.1c.1,-.3,.1,-.6,.1,-.8c0,-.3,-.1,-.5,-.4,-.5c-.6,0,-1.4,.8,-1.7,1.4l.2,.1c.2,-.2,.5,-.8,.8,-.8c.2,0,.2,.1,.2,.2c0,.4,0,.6,-.1,.9l-1.1,3.9c-.1,.4,-.3,1,-.6,1c-.1,0,-.2,0,-.2,-.1c-.2,-.2,0,-.8,-.6,-.8c-.3,0,-.4,.3,-.4,.6Zm4.3,-8.4c0,-.2,-.2,-.5,-.5,-.5c-.3,0,-.6,.2,-.6,.5c0,.3,.3,.6,.6,.6c.2,0,.5,-.3,.5,-.6Z" class="g0_212"/>
<path d="M422.5,691.2c0,-.6,-.4,-1,-1,-1c-.3,0,-.6,.1,-.9,.3c-.4,.3,-.7,.6,-.9,.9c0,-.6,-.4,-1.2,-1,-1.2c-1.2,0,-2.1,1.2,-2.5,2l.2,.1c.4,-.5,1.1,-1.7,2,-1.7c.3,0,.4,.5,.4,1c0,.3,-.1,.6,-.2,1.1l-.4,1.2c-.1,.6,-.4,1.4,-.7,1.8c-.1,.2,-.4,.6,-.8,.6c-.4,0,-.7,0,-.6,-.5c.1,-.3,0,-.7,-.4,-.7c-.4,0,-.6,.3,-.6,.8c0,.5,.4,.9,1,.9c1,0,1.8,-.8,2.2,-1.4c.1,.8,.5,1.4,1.3,1.4c1.2,0,2,-1.1,2.5,-1.8l-.2,-.2c-.5,.6,-1.2,1.6,-2,1.6c-.4,0,-.6,-.6,-.6,-1.2c0,-.3,0,-.8,.1,-1.3l.2,-.7c.1,-.6,.4,-1.3,.6,-1.7c.2,-.2,.6,-.9,1,-.9c.4,0,.4,.3,.3,.6c0,.4,.2,.6,.5,.6c.4,0,.5,-.3,.5,-.6Z" class="g0_212"/>
<path d="M427.5,693.3h7.6v-.9h-7.6Z" class="g0_212"/>
<path d="M462.3,679.9c0,-.5,-.4,-1,-1,-1c-.3,0,-.6,.2,-.9,.4c-.3,.2,-.7,.5,-.9,.9c0,-.7,-.4,-1.3,-1,-1.3c-1.2,0,-2.1,1.2,-2.5,2l.2,.1c.4,-.5,1.1,-1.7,2,-1.7c.3,0,.4,.6,.4,1c0,.3,-.1,.7,-.2,1.2l-.3,1.1c-.2,.6,-.4,1.4,-.8,1.8c-.1,.3,-.4,.7,-.7,.7c-.5,0,-.8,-.1,-.7,-.5c.1,-.3,0,-.8,-.4,-.8c-.4,0,-.6,.4,-.6,.8c0,.6,.5,.9,1,.9c1.1,0,1.8,-.7,2.2,-1.4c.1,.8,.5,1.4,1.3,1.4c1.2,0,2.1,-1.1,2.5,-1.8l-.2,-.2c-.5,.7,-1.2,1.7,-2,1.7c-.4,0,-.6,-.6,-.6,-1.2c0,-.4,0,-.8,.2,-1.4l.1,-.7c.1,-.6,.4,-1.2,.7,-1.6c.1,-.3,.5,-1,.9,-1c.4,0,.4,.3,.4,.7c-.1,.4,.1,.5,.4,.5c.4,0,.5,-.2,.5,-.6Z" class="g0_212"/>
<path d="M462,689.3c0,.4,.4,.6,.8,.6c.5,0,.9,-.3,1.2,-.6c.3,-.3,.6,-.8,.7,-1.3l.7,-2.7c.2,-.4,.3,-.8,.3,-1.1c.1,-.3,.2,-.6,.2,-.8c0,-.3,-.2,-.5,-.5,-.5c-.6,0,-1.4,.9,-1.6,1.4l.2,.1c.1,-.2,.5,-.8,.8,-.8c.1,0,.2,.1,.2,.3c0,.3,-.1,.5,-.2,.9l-1,3.8c-.1,.4,-.3,1,-.7,1q-.1,0,-.2,-.1c-.1,-.2,0,-.7,-.5,-.7c-.3,0,-.4,.2,-.4,.5Zm4.3,-8.3c0,-.3,-.3,-.6,-.6,-.6c-.3,0,-.5,.3,-.5,.6c0,.2,.2,.5,.5,.5c.3,0,.6,-.3,.6,-.5Z" class="g0_212"/>
<path d="M441.1,693.3h40.4v-.9H441.1Z" class="g0_212"/>
<path d="M448.3,701.4c0,-.5,-.4,-1,-1,-1c-.3,0,-.6,.2,-.9,.4c-.3,.2,-.6,.5,-.9,.9c0,-.7,-.4,-1.3,-1,-1.3c-1.1,0,-2.1,1.2,-2.5,2l.3,.1c.3,-.5,1,-1.7,1.9,-1.7c.3,0,.4,.6,.4,1c0,.3,0,.7,-.2,1.1l-.3,1.2c-.2,.6,-.4,1.4,-.7,1.8c-.2,.3,-.5,.7,-.8,.7c-.5,0,-.8,-.1,-.7,-.5c.1,-.3,.1,-.8,-.4,-.8c-.4,0,-.6,.4,-.6,.8c0,.6,.5,.9,1.1,.9c1,0,1.7,-.7,2.1,-1.4c.1,.8,.5,1.4,1.4,1.4c1.1,0,2,-1.1,2.4,-1.8l-.2,-.2c-.5,.7,-1.2,1.7,-2,1.7c-.4,0,-.6,-.6,-.6,-1.2c0,-.4,0,-.8,.2,-1.4l.2,-.7c.1,-.6,.3,-1.2,.6,-1.6c.2,-.3,.5,-1,.9,-1c.4,0,.4,.3,.4,.6c-.1,.4,.1,.6,.4,.6c.4,0,.5,-.3,.5,-.6Z" class="g0_212"/>
<path d="M451.5,702.4c0,-.2,-.3,-.5,-.6,-.5c-.3,0,-.5,.2,-.5,.5c0,.4,.2,.6,.5,.6c.3,0,.6,-.3,.6,-.6Zm-2.1,6.8c1,0,1.5,-.8,1.8,-1.4l-.2,-.1c-.2,.3,-.6,1.1,-1,1.1c-.1,0,-.3,-.2,-.3,-.3c0,-.2,.2,-.6,.2,-.8l.7,-2.1c.2,-.3,.2,-.4,.2,-.6c0,-.3,0,-.6,-.4,-.6c-.7,0,-1.5,.8,-1.7,1.4l.2,.1c.1,-.2,.6,-.8,.8,-.8c.2,0,.2,.1,.2,.2c0,.2,-.1,.5,-.1,.7l-.8,2c0,.3,-.1,.5,-.1,.7c0,.3,.1,.5,.5,.5Z" class="g0_212"/>
<path d="M457.2,703.5h7.6v-.8h-7.6Z" class="g0_212"/>
<path d="M476.3,701.4c0,-.5,-.4,-1,-1,-1c-.3,0,-.6,.2,-.9,.4c-.4,.2,-.7,.5,-.9,.9c0,-.7,-.4,-1.3,-1.1,-1.3c-1.1,0,-2,1.2,-2.4,2l.2,.1c.4,-.5,1.1,-1.7,2,-1.7c.3,0,.4,.6,.4,1c0,.3,-.1,.7,-.2,1.1l-.4,1.2c-.1,.6,-.4,1.4,-.7,1.8c-.1,.3,-.4,.7,-.8,.7c-.4,0,-.7,-.1,-.6,-.5c.1,-.3,0,-.8,-.4,-.8c-.5,0,-.6,.4,-.6,.8c0,.6,.4,.9,1,.9c1,0,1.8,-.7,2.1,-1.4h.1c.1,.8,.5,1.4,1.3,1.4c1.2,0,2,-1.1,2.5,-1.8l-.2,-.2c-.5,.7,-1.2,1.7,-2,1.7c-.4,0,-.6,-.6,-.6,-1.2c0,-.4,0,-.8,.1,-1.4l.2,-.7c.1,-.6,.4,-1.2,.6,-1.6c.2,-.3,.6,-1,1,-1c.4,0,.4,.3,.3,.6c0,.4,.2,.6,.5,.6c.4,0,.5,-.3,.5,-.6Z" class="g0_212"/>
<path d="M476,710.8c0,.4,.4,.6,.8,.6c.5,0,.9,-.3,1.2,-.6c.3,-.4,.5,-.8,.7,-1.3l.7,-2.7c.1,-.4,.2,-.8,.3,-1.1c.1,-.3,.1,-.6,.1,-.8c0,-.3,-.1,-.5,-.4,-.5c-.6,0,-1.4,.8,-1.7,1.4l.2,.1c.2,-.2,.6,-.8,.9,-.8c.1,0,.2,.1,.2,.2c0,.4,-.1,.6,-.2,.9l-1.1,3.9c0,.4,-.2,1,-.6,1q-.1,0,-.2,-.1c-.1,-.2,0,-.8,-.5,-.8c-.3,0,-.4,.3,-.4,.6Zm4.3,-8.4c0,-.2,-.3,-.5,-.6,-.5c-.3,0,-.5,.2,-.5,.5c0,.3,.2,.6,.5,.6c.3,0,.6,-.3,.6,-.6Z" class="g0_212"/>
<path d="M397.5,770.7c0,-.6,-.5,-1,-1,-1c-.3,0,-.7,.2,-1,.4c-.3,.2,-.6,.5,-.8,.9c0,-.7,-.4,-1.3,-1.1,-1.3c-1.1,0,-2.1,1.2,-2.4,2l.2,.1c.3,-.5,1.1,-1.7,2,-1.7c.2,0,.4,.6,.4,1c0,.3,-.1,.6,-.3,1.1l-.3,1.2c-.2,.6,-.4,1.4,-.7,1.8c-.2,.3,-.4,.7,-.8,.7c-.4,0,-.7,-.1,-.6,-.5c.1,-.3,0,-.8,-.4,-.8c-.5,0,-.7,.3,-.7,.8c0,.6,.5,.9,1.1,.9c1,0,1.7,-.7,2.1,-1.4c.2,.8,.6,1.4,1.4,1.4c1.2,0,2,-1.1,2.4,-1.8l-.2,-.2c-.4,.7,-1.1,1.7,-1.9,1.7c-.5,0,-.7,-.6,-.7,-1.2c0,-.4,.1,-.8,.2,-1.4l.2,-.7c.1,-.6,.3,-1.2,.6,-1.6c.2,-.3,.6,-1,.9,-1c.5,0,.4,.3,.4,.6c0,.4,.1,.6,.5,.6c.3,0,.5,-.3,.5,-.6Z" class="g0_212"/>
<path d="M397.1,780.1c0,.4,.4,.6,.9,.6c.5,0,.9,-.3,1.1,-.6c.3,-.4,.6,-.8,.8,-1.3l.7,-2.7c.1,-.4,.2,-.8,.3,-1.1c.1,-.3,.1,-.6,.1,-.8c0,-.3,-.1,-.5,-.4,-.5c-.6,0,-1.4,.8,-1.7,1.4l.2,.1c.2,-.2,.5,-.8,.9,-.8c.1,0,.2,.1,.2,.2c0,.4,-.1,.6,-.2,.9l-1.1,3.9c-.1,.4,-.3,1,-.6,1c-.1,0,-.2,0,-.2,-.1c-.2,-.2,0,-.8,-.6,-.8c-.2,0,-.4,.3,-.4,.6Zm4.3,-8.4c0,-.3,-.2,-.5,-.5,-.5c-.3,0,-.6,.2,-.6,.5c0,.3,.3,.6,.6,.6c.3,0,.5,-.3,.5,-.6Z" class="g0_212"/>
<path d="M376.3,784.1h40.4v-.9H376.3Z" class="g0_212"/>
<path d="M383.5,792.2c0,-.6,-.5,-1,-1,-1c-.3,0,-.6,.2,-1,.4c-.3,.2,-.6,.5,-.8,.9c0,-.7,-.4,-1.3,-1.1,-1.3c-1.1,0,-2.1,1.2,-2.4,2l.2,.1c.4,-.5,1.1,-1.7,2,-1.7c.3,0,.4,.5,.4,1c0,.3,-.1,.6,-.2,1.1l-.4,1.2c-.1,.6,-.4,1.4,-.7,1.8c-.2,.2,-.4,.7,-.8,.7c-.4,0,-.7,-.1,-.6,-.5c.1,-.3,0,-.8,-.4,-.8c-.5,0,-.6,.3,-.6,.8c0,.5,.4,.9,1,.9c1,0,1.7,-.8,2.1,-1.4h.1c.1,.8,.5,1.4,1.3,1.4c1.2,0,2,-1.1,2.5,-1.8l-.2,-.2c-.5,.7,-1.2,1.7,-2,1.7c-.4,0,-.7,-.6,-.7,-1.3c0,-.3,.1,-.7,.2,-1.3l.2,-.7c.1,-.6,.4,-1.3,.6,-1.6c.2,-.3,.6,-1,1,-1c.4,0,.3,.3,.3,.6c0,.4,.2,.6,.5,.6c.4,0,.5,-.3,.5,-.6Z" class="g0_212"/>
<path d="M386.6,793.2c0,-.3,-.2,-.5,-.5,-.5c-.3,0,-.6,.2,-.6,.5c0,.3,.3,.6,.6,.6c.2,0,.5,-.3,.5,-.6Zm-2,6.8c.9,0,1.4,-.8,1.7,-1.4l-.2,-.1c-.1,.2,-.5,1,-1,1c-.1,0,-.2,-.1,-.2,-.2c0,-.3,.1,-.7,.2,-.8l.7,-2.1c.1,-.3,.1,-.4,.1,-.6c0,-.3,0,-.6,-.3,-.6c-.7,0,-1.5,.8,-1.8,1.4l.2,.1c.2,-.2,.6,-.9,.9,-.9c.1,0,.2,.2,.2,.3c0,.2,-.1,.5,-.2,.7l-.7,2c-.1,.3,-.1,.5,-.1,.6c0,.4,.1,.6,.5,.6Z" class="g0_212"/>
<path d="M392.4,794.3H400v-.8h-7.6Z" class="g0_212"/>
<path d="M411.5,792.2c0,-.6,-.5,-1,-1,-1c-.4,0,-.7,.2,-1,.4c-.3,.2,-.6,.5,-.8,.9c0,-.7,-.5,-1.3,-1.1,-1.3c-1.1,0,-2.1,1.2,-2.4,2l.2,.1c.3,-.5,1.1,-1.7,1.9,-1.7c.3,0,.4,.5,.4,1c0,.3,0,.6,-.2,1.1l-.3,1.2c-.2,.6,-.4,1.4,-.7,1.8c-.2,.2,-.5,.7,-.8,.7c-.4,0,-.8,-.1,-.7,-.5c.1,-.3,.1,-.8,-.4,-.8c-.4,0,-.6,.3,-.6,.8c0,.5,.5,.9,1.1,.9c1,0,1.7,-.8,2.1,-1.4c.1,.8,.5,1.4,1.4,1.4c1.1,0,2,-1.1,2.4,-1.8l-.2,-.2c-.5,.7,-1.1,1.7,-1.9,1.7c-.5,0,-.7,-.6,-.7,-1.3c0,-.3,.1,-.7,.2,-1.3l.2,-.7c.1,-.6,.3,-1.3,.6,-1.6c.2,-.3,.6,-1,.9,-1c.4,0,.4,.3,.4,.6c0,.4,.1,.6,.4,.6c.4,0,.6,-.3,.6,-.6Z" class="g0_212"/>
<path d="M411.1,801.6c0,.4,.4,.6,.8,.6c.5,0,.9,-.3,1.2,-.6c.3,-.4,.6,-.8,.7,-1.4l.8,-2.6c.1,-.4,.2,-.8,.3,-1.1c0,-.3,.1,-.6,.1,-.8c0,-.3,-.1,-.5,-.4,-.5c-.6,0,-1.4,.8,-1.7,1.4l.2,.1c.1,-.2,.5,-.8,.8,-.8c.1,0,.2,.1,.2,.2c0,.4,0,.6,-.1,.9l-1.1,3.9c-.1,.4,-.3,1,-.6,1c-.1,0,-.2,0,-.2,-.1c-.2,-.2,0,-.8,-.6,-.8c-.3,0,-.4,.3,-.4,.6Zm4.3,-8.4c0,-.3,-.2,-.5,-.5,-.5c-.3,0,-.6,.2,-.6,.5c0,.3,.3,.6,.6,.6c.2,0,.5,-.3,.5,-.6Z" class="g0_212"/>
<path d="M422.7,784.1h7.7v-.9h-7.7Z" class="g0_212"/>
<path d="M457.6,770.7c0,-.6,-.5,-1,-1,-1c-.3,0,-.6,.2,-1,.4c-.3,.2,-.6,.5,-.8,.9c0,-.7,-.4,-1.3,-1.1,-1.3c-1.1,0,-2.1,1.2,-2.4,2l.2,.1c.4,-.5,1.1,-1.7,2,-1.7c.3,0,.4,.6,.4,1c0,.3,-.1,.6,-.2,1.1l-.4,1.2c-.1,.6,-.4,1.4,-.7,1.8c-.2,.3,-.4,.7,-.8,.7c-.4,0,-.7,-.1,-.6,-.5c.1,-.3,0,-.8,-.4,-.8c-.5,0,-.6,.3,-.6,.8c0,.6,.4,.9,1,.9c1,0,1.8,-.7,2.1,-1.4h.1c.1,.8,.5,1.4,1.3,1.4c1.2,0,2,-1.1,2.5,-1.8l-.2,-.2c-.5,.7,-1.2,1.7,-2,1.7c-.4,0,-.6,-.6,-.6,-1.2c0,-.4,0,-.8,.1,-1.4l.2,-.7c.1,-.6,.4,-1.2,.6,-1.6c.2,-.3,.6,-1,1,-1c.4,0,.4,.3,.3,.6c0,.4,.2,.6,.5,.6c.4,0,.5,-.3,.5,-.6Z" class="g0_212"/>
<path d="M457.2,780.1c0,.4,.5,.6,.9,.6c.5,0,.9,-.3,1.1,-.6c.4,-.4,.6,-.8,.8,-1.3l.7,-2.7c.1,-.4,.2,-.8,.3,-1.1c.1,-.3,.1,-.6,.1,-.8c0,-.3,-.1,-.5,-.4,-.5c-.6,0,-1.4,.8,-1.7,1.4l.2,.1c.2,-.2,.5,-.8,.9,-.8c.1,0,.2,.1,.2,.2c0,.4,-.1,.6,-.2,.9l-1.1,3.9c0,.4,-.3,1,-.6,1q-.1,0,-.2,-.1c-.2,-.2,0,-.8,-.5,-.8c-.3,0,-.5,.3,-.5,.6Zm4.4,-8.4c0,-.3,-.3,-.5,-.6,-.5c-.3,0,-.6,.2,-.6,.5c0,.3,.3,.6,.6,.6c.3,0,.6,-.3,.6,-.6Z" class="g0_212"/>
<path d="M436.4,784.1h40.4v-.9H436.4Z" class="g0_212"/>
<path d="M443.6,792.2c0,-.6,-.4,-1,-1,-1c-.3,0,-.6,.2,-.9,.4c-.4,.2,-.7,.5,-.9,.9c0,-.7,-.4,-1.3,-1,-1.3c-1.2,0,-2.1,1.2,-2.5,2l.2,.1c.4,-.5,1.1,-1.7,2,-1.7c.3,0,.4,.5,.4,1c0,.3,-.1,.6,-.2,1.1l-.4,1.2c-.1,.6,-.4,1.4,-.7,1.8c-.1,.2,-.4,.7,-.8,.7c-.4,0,-.7,-.1,-.6,-.5c.1,-.3,0,-.8,-.4,-.8c-.4,0,-.6,.3,-.6,.8c0,.5,.5,.9,1,.9c1,0,1.8,-.8,2.2,-1.4c.1,.8,.5,1.4,1.3,1.4c1.2,0,2,-1.1,2.5,-1.8l-.2,-.2c-.5,.7,-1.2,1.7,-2,1.7c-.4,0,-.6,-.6,-.6,-1.3c0,-.3,0,-.7,.1,-1.3l.2,-.7c.1,-.6,.4,-1.3,.6,-1.6c.2,-.3,.6,-1,1,-1c.4,0,.4,.3,.3,.6c0,.4,.2,.6,.5,.6c.4,0,.5,-.3,.5,-.6Z" class="g0_212"/>
<path d="M446.7,793.2c0,-.3,-.2,-.5,-.5,-.5c-.3,0,-.6,.2,-.6,.5c0,.3,.3,.6,.6,.6c.2,0,.5,-.3,.5,-.6Zm-2,6.8c.9,0,1.5,-.8,1.7,-1.4l-.2,-.1c-.1,.2,-.5,1,-1,1c-.1,0,-.2,-.1,-.2,-.2c0,-.3,.1,-.7,.2,-.8l.7,-2.1c.1,-.3,.2,-.4,.2,-.6c0,-.3,-.1,-.6,-.4,-.6c-.7,0,-1.5,.8,-1.7,1.4l.2,.1c.1,-.2,.5,-.9,.8,-.9c.1,0,.2,.2,.2,.3c0,.2,-.1,.5,-.2,.7l-.7,2c-.1,.3,-.1,.5,-.1,.6c0,.4,.1,.6,.5,.6Z" class="g0_212"/>
<path d="M452.5,794.3h7.6v-.8h-7.6Z" class="g0_212"/>
<path d="M471.6,792.2c0,-.6,-.5,-1,-1,-1c-.3,0,-.7,.2,-1,.4c-.3,.2,-.6,.5,-.8,.9c0,-.7,-.4,-1.3,-1.1,-1.3c-1.1,0,-2.1,1.2,-2.4,2l.2,.1c.4,-.5,1.1,-1.7,2,-1.7c.2,0,.4,.5,.4,1c0,.3,-.1,.6,-.3,1.1l-.3,1.2c-.2,.6,-.4,1.4,-.7,1.8c-.2,.2,-.4,.7,-.8,.7c-.4,0,-.7,-.1,-.6,-.5c.1,-.3,0,-.8,-.4,-.8c-.5,0,-.7,.3,-.7,.8c0,.5,.5,.9,1.1,.9c1,0,1.7,-.8,2.1,-1.4h.1c.1,.8,.5,1.4,1.3,1.4c1.2,0,2,-1.1,2.4,-1.8l-.2,-.2c-.4,.7,-1.1,1.7,-1.9,1.7c-.5,0,-.7,-.6,-.7,-1.3c0,-.3,.1,-.7,.2,-1.3l.2,-.7c.1,-.6,.3,-1.3,.6,-1.6c.2,-.3,.6,-1,.9,-1c.5,0,.4,.3,.4,.6c0,.4,.1,.6,.5,.6c.3,0,.5,-.3,.5,-.6Z" class="g0_212"/>
<path d="M471.2,801.6c0,.4,.4,.6,.9,.6c.5,0,.9,-.3,1.1,-.6c.3,-.4,.6,-.8,.8,-1.4l.7,-2.6c.1,-.4,.2,-.8,.3,-1.1c.1,-.3,.1,-.6,.1,-.8c0,-.3,-.1,-.5,-.4,-.5c-.6,0,-1.4,.8,-1.7,1.4l.2,.1c.2,-.2,.5,-.8,.9,-.8c.1,0,.2,.1,.2,.2c0,.4,-.1,.6,-.2,.9l-1.1,3.9c-.1,.4,-.3,1,-.6,1c-.1,0,-.2,0,-.2,-.1c-.2,-.2,0,-.8,-.5,-.8c-.3,0,-.5,.3,-.5,.6Zm4.3,-8.4c0,-.3,-.2,-.5,-.5,-.5c-.3,0,-.6,.2,-.6,.5c0,.3,.3,.6,.6,.6c.3,0,.5,-.3,.5,-.6Z" class="g0_212"/>
</svg>