<?xml version="1.0" encoding="UTF-8" standalone="no"?>
<!DOCTYPE svg PUBLIC "-//W3C//DTD SVG 1.1//EN"
"http://www.w3.org/Graphics/SVG/1.1/DTD/svg11.dtd">
<svg viewBox="0 0 811 1017" version="1.1" xmlns="http://www.w3.org/2000/svg" xmlns:xlink="http://www.w3.org/1999/xlink">
<defs>
<clipPath id="c0_223"><path d="M156.1,726.1V423.6H542.7V726.1Z"/></clipPath>
<style type="text/css"><![CDATA[
.g0_223{
fill: #000;
}
.g1_223{
fill: #FFF;
}
.g2_223{
fill: #1A78B6;
}
.g3_223{
fill: none;
stroke: #1A78B6;
stroke-width: 0.968;
stroke-linejoin: round;
}
.g4_223{
fill: none;
stroke: #B0B2B1;
stroke-width: 0.774;
stroke-linecap: square;
stroke-linejoin: round;
}
.g5_223{
fill: none;
stroke: #040504;
stroke-width: 0.774;
stroke-linejoin: round;
}
.g6_223{
fill: #040504;
}
.g7_223{
fill: none;
stroke: #1A78B6;
stroke-width: 1.452;
stroke-linecap: square;
stroke-linejoin: round;
}
.g8_223{
fill: none;
stroke: #040504;
stroke-width: 0.774;
stroke-linecap: square;
}
]]></style>
</defs>
<path d="M134.7,312.8h.4V253h-.4Z" class="g0_223"/>
<path d="M154.9,253v-3.2l.3,.1l6.3,2.9l.4,.2l-.4,.2l-6.3,2.9l-.3,.1v-.3l.1,-.2l6.3,-2.9l.2,.4h-.2l-6.3,-3l.2,-.3l.1,.2V253Z" class="g0_223"/>
<path d="M154.9,255.9h.4V253h-.4Z" class="g0_223"/>
<path d="M154.9,253.2h.2v-.4h-.2Z" class="g0_223"/>
<path d="M134.7,253.2h20.2v-.4H134.7Z" class="g0_223"/>
<path d="M195.8,697.4h346V439.6h-346Z" class="g1_223"/>
<path d="M237.8,627c.7,0,1.5,-.3,2,-.9c.6,-.5,.9,-1.3,.9,-2c0,-.8,-.3,-1.6,-.9,-2.1c-.5,-.5,-1.3,-.8,-2,-.8c-.8,0,-1.5,.3,-2.1,.8c-.5,.5,-.8,1.3,-.8,2.1c0,.7,.3,1.5,.8,2c.6,.6,1.3,.9,2.1,.9Z" class="g2_223"/>
<path d="M237.8,627c.7,0,1.5,-.3,2,-.9c.6,-.5,.9,-1.3,.9,-2c0,-.8,-.3,-1.6,-.9,-2.1c-.5,-.5,-1.3,-.8,-2,-.8c-.8,0,-1.5,.3,-2.1,.8c-.5,.5,-.8,1.3,-.8,2.1c0,.7,.3,1.5,.8,2c.6,.6,1.3,.9,2.1,.9Z" class="g3_223"/>
<path d="M290.3,592.5c.8,0,1.5,-.3,2,-.8c.6,-.6,.9,-1.3,.9,-2.1c0,-.8,-.3,-1.5,-.9,-2c-.5,-.6,-1.2,-.9,-2,-.9c-.8,0,-1.5,.3,-2.1,.9c-.5,.5,-.8,1.2,-.8,2c0,.8,.3,1.5,.8,2.1c.6,.5,1.3,.8,2.1,.8Z" class="g2_223"/>
<path d="M290.3,592.5c.8,0,1.5,-.3,2,-.8c.6,-.6,.9,-1.3,.9,-2.1c0,-.8,-.3,-1.5,-.9,-2c-.5,-.6,-1.2,-.9,-2,-.9c-.8,0,-1.5,.3,-2.1,.9c-.5,.5,-.8,1.2,-.8,2c0,.8,.3,1.5,.8,2.1c.6,.5,1.3,.8,2.1,.8Z" class="g3_223"/>
<path d="M342.8,489.2c.8,0,1.5,-.3,2.1,-.9c.5,-.5,.8,-1.3,.8,-2c0,-.8,-.3,-1.6,-.8,-2.1c-.6,-.5,-1.3,-.8,-2.1,-.8c-.8,0,-1.5,.3,-2.1,.8c-.5,.5,-.8,1.3,-.8,2.1c0,.7,.3,1.5,.8,2c.6,.6,1.3,.9,2.1,.9Z" class="g2_223"/>
<path d="M342.8,489.2c.8,0,1.5,-.3,2.1,-.9c.5,-.5,.8,-1.3,.8,-2c0,-.8,-.3,-1.6,-.8,-2.1c-.6,-.5,-1.3,-.8,-2.1,-.8c-.8,0,-1.5,.3,-2.1,.8c-.5,.5,-.8,1.3,-.8,2.1c0,.7,.3,1.5,.8,2c.6,.6,1.3,.9,2.1,.9Z" class="g3_223"/>
<path d="M395.3,454.7c.8,0,1.5,-.3,2.1,-.8c.5,-.6,.8,-1.3,.8,-2.1c0,-.8,-.3,-1.5,-.8,-2c-.6,-.6,-1.3,-.9,-2.1,-.9c-.8,0,-1.5,.3,-2,.9c-.6,.5,-.9,1.2,-.9,2c0,.8,.3,1.5,.9,2.1c.5,.5,1.2,.8,2,.8Z" class="g2_223"/>
<path d="M395.3,454.7c.8,0,1.5,-.3,2.1,-.8c.5,-.6,.8,-1.3,.8,-2.1c0,-.8,-.3,-1.5,-.8,-2c-.6,-.6,-1.3,-.9,-2.1,-.9c-.8,0,-1.5,.3,-2,.9c-.6,.5,-.9,1.2,-.9,2c0,.8,.3,1.5,.9,2.1c.5,.5,1.2,.8,2,.8Z" class="g3_223"/>
<path d="M447.8,454.7c.8,0,1.5,-.3,2.1,-.8c.5,-.6,.8,-1.3,.8,-2.1c0,-.8,-.3,-1.5,-.8,-2c-.6,-.6,-1.3,-.9,-2.1,-.9c-.8,0,-1.5,.3,-2,.9c-.6,.5,-.9,1.2,-.9,2c0,.8,.3,1.5,.9,2.1c.5,.5,1.2,.8,2,.8Z" class="g2_223"/>
<path d="M447.8,454.7c.8,0,1.5,-.3,2.1,-.8c.5,-.6,.8,-1.3,.8,-2.1c0,-.8,-.3,-1.5,-.8,-2c-.6,-.6,-1.3,-.9,-2.1,-.9c-.8,0,-1.5,.3,-2,.9c-.6,.5,-.9,1.2,-.9,2c0,.8,.3,1.5,.9,2.1c.5,.5,1.2,.8,2,.8Z" class="g3_223"/>
<path d="M237.8,697.4V439.6" class="g4_223"/>
<path d="M237.8,697.4v3.4" class="g5_223"/>
<path d="M232.8,710.8h1.6v-5.4l-1.7,.3v-.8l1.7,-.4h.9v6.3h1.6v.8h-4.1v-.8Z" class="g6_223"/>
<path d="M240.9,704.4c.7,0,1.4,.3,1.8,.9c.4,.7,.6,1.6,.6,2.8c0,1.2,-.2,2.1,-.6,2.7c-.4,.6,-1.1,.9,-1.8,.9c-.8,0,-1.4,-.3,-1.9,-.9c-.4,-.6,-.6,-1.5,-.6,-2.7c0,-1.2,.2,-2.1,.6,-2.8c.5,-.6,1.1,-.9,1.9,-.9Zm0,.8c-.5,0,-.9,.2,-1.2,.7c-.2,.5,-.3,1.2,-.3,2.2c0,.9,.1,1.7,.3,2.1c.3,.5,.7,.8,1.2,.8c.5,0,.8,-.3,1.1,-.8c.2,-.4,.3,-1.2,.3,-2.1c0,-1,-.1,-1.7,-.3,-2.2c-.3,-.5,-.6,-.7,-1.1,-.7Z" class="g6_223"/>
<path d="M290.3,697.4V439.6" class="g4_223"/>
<path d="M290.3,697.4v3.4" class="g5_223"/>
<path d="M285.3,710.8h1.6v-5.4l-1.7,.3v-.8l1.7,-.4h.9v6.3h1.6v.8h-4.1v-.8Z" class="g6_223"/>
<path d="M291.5,710.8H293v-5.4l-1.6,.3v-.8l1.6,-.4h1v6.3h1.6v.8h-4.1v-.8Z" class="g6_223"/>
<path d="M342.8,697.4V439.6" class="g4_223"/>
<path d="M342.8,697.4v3.4" class="g5_223"/>
<path d="M337.8,710.8h1.6v-5.4l-1.7,.3v-.8l1.7,-.4h.9v6.3h1.6v.8h-4.1v-.8Z" class="g6_223"/>
<path d="M344.7,710.8H348v.8h-4.5v-.8c.4,-.4,.9,-.9,1.5,-1.5c.6,-.7,1,-1.1,1.2,-1.2c.3,-.4,.5,-.7,.6,-.9c.1,-.3,.2,-.5,.2,-.7c0,-.4,-.1,-.7,-.4,-.9c-.3,-.3,-.6,-.4,-1,-.4c-.3,0,-.6,.1,-1,.2c-.3,.1,-.7,.2,-1,.4v-.9c.3,-.2,.7,-.3,1,-.4c.4,-.1,.7,-.1,.9,-.1c.8,0,1.4,.2,1.8,.6c.4,.3,.7,.8,.7,1.4c0,.3,-.1,.6,-.2,.8c-.1,.3,-.3,.6,-.6,1c-.1,.1,-.3,.3,-.8,.8c-.4,.4,-1,1,-1.7,1.8Z" class="g6_223"/>
<path d="M395.3,697.4V439.6" class="g4_223"/>
<path d="M395.3,697.4v3.4" class="g5_223"/>
<path d="M390.3,710.8h1.6v-5.4l-1.7,.3v-.8l1.7,-.4h1v6.3h1.5v.8h-4.1v-.8Z" class="g6_223"/>
<path d="M399.2,707.8c.5,.1,.9,.3,1.1,.6c.3,.3,.4,.7,.4,1.1c0,.7,-.2,1.3,-.7,1.7c-.5,.3,-1.2,.5,-2.1,.5c-.3,0,-.6,0,-.9,-.1c-.3,0,-.6,-.1,-1,-.2v-.9c.3,.1,.6,.2,.9,.3c.3,.1,.7,.1,1,.1c.6,0,1.1,-.1,1.4,-.3c.3,-.3,.4,-.6,.4,-1.1c0,-.4,-.1,-.7,-.4,-.9c-.3,-.3,-.7,-.4,-1.2,-.4h-.8v-.8h.8c.5,0,.9,-.1,1.1,-.3c.3,-.1,.4,-.4,.4,-.8c0,-.3,-.2,-.6,-.4,-.8c-.3,-.2,-.6,-.3,-1.1,-.3c-.3,0,-.6,0,-.9,.1c-.3,0,-.6,.1,-.9,.3v-.9c.3,-.1,.7,-.2,1,-.2c.3,-.1,.6,-.1,.9,-.1c.7,0,1.3,.2,1.7,.5c.4,.3,.6,.8,.6,1.3c0,.4,-.1,.8,-.3,1c-.2,.3,-.5,.5,-1,.6Z" class="g6_223"/>
<path d="M447.8,697.4V439.6" class="g4_223"/>
<path d="M447.8,697.4v3.4" class="g5_223"/>
<path d="M442.9,710.8h1.5v-5.4l-1.7,.3v-.8l1.7,-.4h1v6.3h1.5v.8h-4v-.8Z" class="g6_223"/>
<path d="M451.2,704.5h1.2v4.6h1v.8h-1v1.7h-.9v-1.7h-3.2V709l2.9,-4.5Zm.3,.9l-2.4,3.7h2.4v-3.7Z" class="g6_223"/>
<path d="M500.3,697.4V439.6" class="g4_223"/>
<path d="M500.3,697.4v3.4" class="g5_223"/>
<path d="M495.4,710.8h1.5v-5.4l-1.7,.3v-.8l1.7,-.4h1v6.3h1.5v.8h-4v-.8Z" class="g6_223"/>
<path d="M501.4,704.5h3.7v.8h-2.9v1.8c.2,-.1,.3,-.1,.5,-.1c.1,-.1,.2,-.1,.4,-.1c.8,0,1.4,.2,1.9,.7c.4,.4,.6,1,.6,1.7c0,.8,-.2,1.4,-.7,1.8c-.4,.4,-1.1,.6,-2,.6c-.3,0,-.6,0,-.9,0c-.3,-.1,-.6,-.2,-.9,-.3v-.9c.3,.1,.6,.2,.9,.3c.3,.1,.6,.1,.9,.1c.6,0,1,-.1,1.3,-.4c.3,-.3,.5,-.7,.5,-1.2c0,-.5,-.2,-.9,-.5,-1.1c-.3,-.3,-.7,-.5,-1.3,-.5c-.2,0,-.5,.1,-.8,.1c-.2,.1,-.5,.2,-.7,.3v-3.6Z" class="g6_223"/>
<path d="M371.2,719.5l-1.9,2.6l2,2.7h-1l-1.5,-2l-1.6,2h-1l2.1,-2.7l-1.9,-2.6h1l1.4,1.9l1.4,-1.9h1Z" class="g6_223"/>
<path d="M195.8,693h346" class="g4_223"/>
<path d="M195.8,693h-3.4" class="g5_223"/>
<path d="M169.6,694h6.1v-.8h-6.1Z" class="g6_223"/>
<path d="M180.1,689.6h1.2v4.6h1v.8h-1v1.6h-1V695h-3.1v-.9l2.9,-4.5Zm.2,.8l-2.4,3.8h2.4v-3.8Z" class="g6_223"/>
<path d="M186.3,689.6h1.2v4.6h1v.8h-1v1.6h-1V695h-3.2v-.9l3,-4.5Zm.2,.8l-2.4,3.8h2.4v-3.8Z" class="g6_223"/>
<path d="M195.8,658.5h346" class="g4_223"/>
<path d="M195.8,658.5h-3.4" class="g5_223"/>
<path d="M169.6,659.6h6.1v-.8h-6.1Z" class="g6_223"/>
<path d="M180.1,655.1h1.2v4.6h1v.8h-1v1.7h-1v-1.7h-3.1v-.9l2.9,-4.5Zm.2,.9l-2.4,3.7h2.4V656Z" class="g6_223"/>
<path d="M186.8,658.4c.4,.1,.8,.3,1,.6c.3,.3,.4,.7,.4,1.1c0,.7,-.2,1.3,-.7,1.7c-.5,.3,-1.1,.5,-2,.5c-.3,0,-.6,0,-.9,-.1c-.4,0,-.7,-.1,-1,-.2v-.9c.3,.1,.5,.2,.9,.3c.3,.1,.6,.1,.9,.1c.6,0,1.1,-.1,1.4,-.3c.3,-.3,.5,-.6,.5,-1.1c0,-.4,-.2,-.7,-.5,-.9c-.2,-.3,-.6,-.4,-1.2,-.4h-.8V658h.9c.4,0,.8,-.1,1,-.3c.3,-.1,.4,-.4,.4,-.8c0,-.3,-.1,-.6,-.4,-.8c-.2,-.2,-.6,-.3,-1.1,-.3c-.2,0,-.5,0,-.8,.1c-.3,0,-.6,.1,-1,.3v-.9c.4,-.1,.7,-.2,1,-.2c.3,-.1,.6,-.1,.9,-.1c.7,0,1.3,.2,1.7,.5c.5,.3,.7,.8,.7,1.3c0,.4,-.1,.7,-.4,1c-.2,.3,-.5,.5,-.9,.6Z" class="g6_223"/>
<path d="M195.8,624.1h346" class="g4_223"/>
<path d="M195.8,624.1h-3.4" class="g5_223"/>
<path d="M169.6,625.1h6.1v-.8h-6.1Z" class="g6_223"/>
<path d="M180.1,620.7h1.2v4.6h1v.8h-1v1.6h-1v-1.6h-3.1v-.9l2.9,-4.5Zm.2,.8l-2.4,3.8h2.4v-3.8Z" class="g6_223"/>
<path d="M184.7,626.9H188v.8h-4.4v-.8c.3,-.3,.8,-.8,1.4,-1.5c.7,-.6,1.1,-1,1.2,-1.2c.3,-.3,.5,-.6,.7,-.9c.1,-.2,.1,-.4,.1,-.7c0,-.3,-.1,-.7,-.4,-.9c-.2,-.2,-.6,-.3,-1,-.3c-.3,0,-.6,0,-.9,.1c-.4,.1,-.7,.3,-1.1,.5v-1c.4,-.1,.7,-.3,1.1,-.3c.3,-.1,.6,-.2,.9,-.2c.7,0,1.3,.2,1.8,.6c.4,.4,.6,.9,.6,1.5c0,.3,-.1,.5,-.2,.8c-.1,.3,-.3,.6,-.6,.9c0,.1,-.3,.4,-.7,.8c-.4,.4,-1,1.1,-1.8,1.8Z" class="g6_223"/>
<path d="M195.8,589.6h346" class="g4_223"/>
<path d="M195.8,589.6h-3.4" class="g5_223"/>
<path d="M169.6,590.7h6.1v-.8h-6.1Z" class="g6_223"/>
<path d="M180.1,586.2h1.2v4.6h1v.8h-1v1.7h-1v-1.7h-3.1v-.9l2.9,-4.5Zm.2,.9l-2.4,3.7h2.4v-3.7Z" class="g6_223"/>
<path d="M184,592.5h1.6v-5.4l-1.7,.3v-.8l1.7,-.4h1v6.3h1.5v.8H184v-.8Z" class="g6_223"/>
<path d="M195.8,555.2h346" class="g4_223"/>
<path d="M195.8,555.2h-3.4" class="g5_223"/>
<path d="M169.6,556.2h6.1v-.8h-6.1Z" class="g6_223"/>
<path d="M180.1,551.8h1.2v4.6h1v.8h-1v1.6h-1v-1.6h-3.1v-.9l2.9,-4.5Zm.2,.8l-2.4,3.8h2.4v-3.8Z" class="g6_223"/>
<path d="M185.9,551.6c.8,0,1.4,.4,1.8,1c.5,.6,.7,1.5,.7,2.7c0,1.2,-.2,2.1,-.7,2.7c-.4,.7,-1,1,-1.8,1c-.8,0,-1.4,-.3,-1.8,-1c-.4,-.6,-.6,-1.5,-.6,-2.7c0,-1.2,.2,-2.1,.6,-2.7c.4,-.6,1,-1,1.8,-1Zm0,.8c-.5,0,-.8,.2,-1.1,.7c-.2,.5,-.4,1.2,-.4,2.2c0,1,.2,1.7,.4,2.2c.3,.5,.6,.7,1.1,.7c.5,0,.9,-.2,1.1,-.7c.3,-.5,.4,-1.2,.4,-2.2c0,-1,-.1,-1.7,-.4,-2.2c-.2,-.5,-.6,-.7,-1.1,-.7Z" class="g6_223"/>
<path d="M195.8,520.7h346" class="g4_223"/>
<path d="M195.8,520.7h-3.4" class="g5_223"/>
<path d="M169.6,521.8h6.1V521h-6.1Z" class="g6_223"/>
<path d="M180.6,520.6c.5,.1,.8,.3,1.1,.6c.2,.3,.4,.7,.4,1.1c0,.7,-.3,1.3,-.7,1.7c-.5,.3,-1.2,.5,-2.1,.5c-.3,0,-.6,0,-.9,-.1c-.3,0,-.6,-.1,-1,-.2v-.9c.3,.1,.6,.2,.9,.3c.3,.1,.6,.1,1,.1c.6,0,1,-.1,1.4,-.3c.3,-.3,.4,-.6,.4,-1.1c0,-.4,-.1,-.7,-.4,-.9c-.3,-.3,-.7,-.4,-1.2,-.4h-.9v-.8h.9c.5,0,.8,-.1,1.1,-.3c.2,-.1,.4,-.4,.4,-.8c0,-.3,-.2,-.6,-.4,-.8c-.3,-.2,-.7,-.3,-1.1,-.3c-.3,0,-.6,0,-.9,.1c-.3,0,-.6,.1,-1,.3v-.9c.4,-.1,.7,-.2,1.1,-.2c.3,-.1,.6,-.1,.9,-.1c.7,0,1.3,.2,1.7,.5c.4,.3,.6,.8,.6,1.3c0,.4,-.1,.8,-.3,1c-.3,.3,-.6,.5,-1,.6Z" class="g6_223"/>
<path d="M185.8,521.2c.4,0,.8,-.1,1,-.4c.3,-.3,.4,-.7,.4,-1.2c0,-.5,-.1,-.9,-.4,-1.2c-.2,-.3,-.6,-.4,-1,-.4c-.4,0,-.8,.1,-1,.4c-.3,.3,-.4,.7,-.4,1.2c0,.5,.1,.9,.4,1.2c.2,.3,.6,.4,1,.4Zm-1.9,3v-.8c.3,.1,.5,.2,.7,.2c.3,.1,.5,.1,.8,.1c.6,0,1.1,-.2,1.4,-.6c.3,-.4,.5,-1.1,.6,-1.9c-.2,.2,-.4,.4,-.7,.6c-.3,.1,-.6,.2,-.9,.2c-.8,0,-1.3,-.2,-1.7,-.6c-.4,-.5,-.6,-1.1,-.6,-1.8c0,-.7,.2,-1.3,.6,-1.7c.4,-.5,1,-.7,1.7,-.7c.8,0,1.5,.3,1.9,.9c.4,.7,.6,1.6,.6,2.8c0,1.1,-.2,2,-.8,2.6c-.5,.7,-1.2,1,-2.1,1c-.2,0,-.5,0,-.7,0c-.3,-.1,-.5,-.2,-.8,-.3Z" class="g6_223"/>
<path d="M195.8,486.3h346" class="g4_223"/>
<path d="M195.8,486.3h-3.4" class="g5_223"/>
<path d="M169.6,487.3h6.1v-.8h-6.1Z" class="g6_223"/>
<path d="M180.6,486.1c.5,.1,.8,.3,1.1,.6c.2,.4,.4,.7,.4,1.2c0,.7,-.3,1.2,-.7,1.6c-.5,.4,-1.2,.6,-2.1,.6c-.3,0,-.6,-.1,-.9,-.1c-.3,-.1,-.6,-.2,-1,-.3v-.9c.3,.2,.6,.3,.9,.4c.3,0,.6,.1,1,.1c.6,0,1,-.1,1.4,-.4c.3,-.2,.4,-.6,.4,-1c0,-.4,-.1,-.8,-.4,-1c-.3,-.2,-.7,-.3,-1.2,-.3h-.9v-.8h.9c.5,0,.8,-.1,1.1,-.3c.2,-.2,.4,-.5,.4,-.8c0,-.4,-.2,-.7,-.4,-.9c-.3,-.1,-.7,-.2,-1.1,-.2c-.3,0,-.6,0,-.9,0c-.3,.1,-.6,.2,-1,.3v-.8c.4,-.1,.7,-.2,1.1,-.3c.3,0,.6,-.1,.9,-.1c.7,0,1.3,.2,1.7,.5c.4,.4,.6,.8,.6,1.4c0,.4,-.1,.7,-.3,1c-.3,.2,-.6,.4,-1,.5Z" class="g6_223"/>
<path d="M184.6,484.7c0,.3,.1,.6,.4,.8c.2,.2,.5,.3,.9,.3c.4,0,.8,-.1,1,-.3c.2,-.2,.3,-.5,.3,-.8c0,-.4,-.1,-.7,-.3,-.9c-.2,-.2,-.6,-.3,-1,-.3c-.4,0,-.7,.1,-.9,.3c-.3,.2,-.4,.5,-.4,.9Zm.4,1.5c-.4,-.1,-.8,-.3,-1,-.6c-.2,-.3,-.3,-.6,-.3,-1c0,-.6,.2,-1,.6,-1.4c.4,-.3,.9,-.5,1.6,-.5c.7,0,1.3,.2,1.7,.5c.4,.4,.6,.8,.6,1.4c0,.4,-.1,.7,-.4,1c-.2,.3,-.5,.5,-.9,.6c.4,.1,.8,.3,1.1,.6c.2,.3,.3,.7,.3,1.2c0,.6,-.2,1.2,-.6,1.5c-.4,.4,-1,.6,-1.8,.6c-.8,0,-1.4,-.2,-1.8,-.6c-.4,-.3,-.6,-.9,-.6,-1.5c0,-.5,.1,-.9,.4,-1.2c.3,-.3,.6,-.5,1.1,-.6Zm.9,.4c-.4,0,-.8,.1,-1,.4c-.3,.2,-.4,.5,-.4,1c0,.4,.1,.7,.4,1c.2,.2,.6,.3,1,.3c.5,0,.8,-.1,1.1,-.3c.3,-.3,.4,-.6,.4,-1c0,-.5,-.1,-.8,-.4,-1c-.3,-.3,-.6,-.4,-1.1,-.4Z" class="g6_223"/>
<path d="M195.8,451.8h346" class="g4_223"/>
<path d="M195.8,451.8h-3.4" class="g5_223"/>
<path d="M169.6,452.9h6.1v-.8h-6.1Z" class="g6_223"/>
<path d="M180.6,451.7c.5,.1,.8,.3,1.1,.6c.2,.3,.4,.7,.4,1.1c0,.7,-.3,1.3,-.7,1.7c-.5,.3,-1.2,.5,-2.1,.5c-.3,0,-.6,0,-.9,-.1c-.3,0,-.6,-.1,-1,-.2v-.9c.3,.1,.6,.2,.9,.3c.3,.1,.6,.1,1,.1c.6,0,1,-.1,1.4,-.3c.3,-.3,.4,-.6,.4,-1.1c0,-.4,-.1,-.7,-.4,-.9c-.3,-.3,-.7,-.4,-1.2,-.4h-.9v-.8h.9c.5,0,.8,-.1,1.1,-.3c.2,-.1,.4,-.4,.4,-.8c0,-.3,-.2,-.6,-.4,-.8c-.3,-.2,-.7,-.3,-1.1,-.3c-.3,0,-.6,0,-.9,.1c-.3,0,-.6,.1,-1,.3v-.9c.4,-.1,.7,-.2,1.1,-.2c.3,-.1,.6,-.1,.9,-.1c.7,0,1.3,.2,1.7,.5c.4,.3,.6,.8,.6,1.3c0,.4,-.1,.8,-.3,1c-.3,.3,-.6,.5,-1,.6Z" class="g6_223"/>
<path d="M183.6,448.4h4.6v.4l-2.6,6.7h-1l2.4,-6.3h-3.4v-.8Z" class="g6_223"/>
<path d="M163.2,568.3c.6,.2,1,.5,1.2,.7c.2,.2,.3,.6,.3,.9v.7H164v-.5c0,-.2,-.1,-.4,-.2,-.5c-.1,-.2,-.4,-.3,-.8,-.5l-.4,-.1l-5.2,2.1v-.9l4.1,-1.7l-4.1,-1.6V566l5.8,2.3Z" class="g6_223"/>
<path clip-path="url(#c0_223)" d="M211.5,685.7l7.9,-15c55.1,-102.2,165,-279.5,305.1,-199l1.6,.9" class="g7_223"/>
<path d="M195.8,697.4V439.6m346,257.8V439.6m-346,257.8h346M195.8,439.6h346" class="g8_223"/>
<path d="M295.7,425.3H297l3.3,8.5h-1.2l-.8,-2.2h-3.8l-.8,2.2h-1.2l3.2,-8.5Zm.7,1.2l-1.6,4.2h3.1l-1.5,-4.2Z" class="g6_223"/>
<path d="M306,430.6c0,-.7,-.1,-1.3,-.5,-1.8c-.3,-.4,-.7,-.6,-1.3,-.6c-.5,0,-.9,.2,-1.3,.6c-.3,.5,-.4,1.1,-.4,1.8c0,.8,.1,1.4,.4,1.9c.4,.4,.8,.6,1.3,.6c.6,0,1,-.2,1.3,-.6c.4,-.5,.5,-1.1,.5,-1.9Zm-3.5,2.3v3.3h-1.1v-8.7h1.1v.9c.2,-.4,.5,-.6,.8,-.8c.3,-.2,.7,-.3,1.2,-.3c.8,0,1.4,.3,1.9,.9c.5,.6,.7,1.4,.7,2.4c0,1,-.2,1.8,-.7,2.5c-.5,.6,-1.1,.9,-1.9,.9c-.5,0,-.9,-.1,-1.2,-.3c-.3,-.2,-.6,-.5,-.8,-.8Z" class="g6_223"/>
<path d="M313.4,430.6c0,-.7,-.2,-1.3,-.5,-1.8c-.3,-.4,-.7,-.6,-1.3,-.6c-.5,0,-1,.2,-1.3,.6c-.3,.5,-.5,1.1,-.5,1.8c0,.8,.2,1.4,.5,1.9c.3,.4,.8,.6,1.3,.6c.6,0,1,-.2,1.3,-.6c.3,-.5,.5,-1.1,.5,-1.9Zm-3.6,2.3v3.3h-1v-8.7h1v.9c.3,-.4,.5,-.6,.9,-.8c.3,-.2,.7,-.3,1.2,-.3c.7,0,1.4,.3,1.9,.9c.4,.6,.7,1.4,.7,2.4c0,1,-.3,1.8,-.7,2.5c-.5,.6,-1.2,.9,-1.9,.9c-.5,0,-.9,-.1,-1.2,-.3c-.4,-.2,-.6,-.5,-.9,-.8Z" class="g6_223"/>
<path d="M319.9,428.4c-.1,0,-.2,-.1,-.4,-.1c-.1,0,-.3,-.1,-.4,-.1c-.6,0,-1.1,.2,-1.4,.6c-.3,.4,-.5,.9,-.5,1.7v3.3h-1v-6.3h1v.9c.2,-.3,.5,-.6,.9,-.8c.3,-.2,.8,-.3,1.3,-.3c0,0,.1,0,.2,0c.1,0,.2,0,.3,.1v1Z" class="g6_223"/>
<path d="M323.2,427.3c.9,0,1.6,.3,2.1,.9c.6,.6,.8,1.4,.8,2.4c0,1.1,-.2,1.9,-.8,2.5c-.5,.6,-1.2,.9,-2.1,.9c-.9,0,-1.6,-.3,-2.1,-.9c-.6,-.6,-.8,-1.4,-.8,-2.5c0,-1,.2,-1.8,.8,-2.4c.5,-.6,1.2,-.9,2.1,-.9Zm0,.9c-.6,0,-1,.2,-1.3,.6c-.4,.5,-.5,1.1,-.5,1.8c0,.8,.1,1.4,.5,1.8c.3,.5,.7,.7,1.3,.7c.6,0,1,-.2,1.3,-.7c.3,-.4,.5,-1,.5,-1.8c0,-.7,-.2,-1.3,-.5,-1.7c-.3,-.5,-.7,-.7,-1.3,-.7Z" class="g6_223"/>
<path d="M332.8,427.5l-2.3,3.1l2.4,3.2h-1.2l-1.9,-2.5l-1.8,2.5h-1.3l2.5,-3.3l-2.3,-3h1.3l1.6,2.2l1.7,-2.2h1.3Z" class="g6_223"/>
<path d="M334.4,425h1v1.3h-1Zm0,2.5h1v6.3h-1Z" class="g6_223"/>
<path d="M342.5,428.7c.3,-.5,.6,-.8,1,-1.1c.3,-.2,.8,-.3,1.3,-.3c.6,0,1.1,.2,1.5,.7c.4,.5,.5,1.1,.5,2v3.8h-1V430c0,-.6,-.1,-1,-.3,-1.3c-.3,-.3,-.6,-.5,-1,-.5c-.6,0,-1,.2,-1.3,.6c-.3,.3,-.5,.8,-.5,1.4v3.6h-1V430c0,-.6,-.1,-1.1,-.4,-1.3c-.2,-.3,-.5,-.5,-1,-.5c-.5,0,-.9,.2,-1.2,.6c-.3,.3,-.5,.8,-.5,1.4v3.6h-1v-6.3h1v.9c.2,-.3,.5,-.6,.9,-.8c.3,-.2,.7,-.3,1.1,-.3c.5,0,.9,.1,1.2,.4c.3,.2,.6,.5,.7,1Z" class="g6_223"/>
<path d="M353.9,430.2v3.6h-1.1v-.9c-.2,.3,-.5,.6,-.8,.8c-.4,.2,-.8,.3,-1.4,.3c-.6,0,-1.1,-.2,-1.5,-.6c-.4,-.3,-.6,-.8,-.6,-1.4c0,-.7,.3,-1.3,.7,-1.7c.5,-.3,1.2,-.5,2.2,-.5h1.4v-.1c0,-.5,-.1,-.9,-.4,-1.1c-.3,-.3,-.8,-.4,-1.4,-.4c-.3,0,-.7,0,-1,.1c-.4,.1,-.7,.2,-1,.4v-1c.4,-.1,.7,-.2,1.1,-.3c.4,-.1,.7,-.1,1,-.1c1,0,1.7,.2,2.1,.7c.5,.5,.7,1.2,.7,2.2Zm-2.1,.4c-.8,0,-1.4,.1,-1.7,.3c-.4,.2,-.5,.5,-.5,1c0,.4,.1,.7,.3,.9c.3,.2,.6,.3,1,.3c.6,0,1.1,-.2,1.4,-.6c.4,-.4,.5,-1,.5,-1.6v-.3h-1Z" class="g6_223"/>
<path d="M357.1,425.7v1.8h2.1v.8h-2.1v3.4c0,.5,0,.9,.2,1c.1,.2,.4,.2,.9,.2h1v.9h-1c-.9,0,-1.4,-.1,-1.7,-.4c-.3,-.3,-.5,-.9,-.5,-1.7v-3.4h-.7v-.8h.7v-1.8h1.1Z" class="g6_223"/>
<path d="M360.6,425h1v1.3h-1Zm0,2.5h1v6.3h-1Z" class="g6_223"/>
<path d="M369.1,430v3.8h-1V430c0,-.6,-.1,-1,-.4,-1.3c-.2,-.3,-.6,-.5,-1,-.5c-.6,0,-1,.2,-1.4,.6c-.3,.3,-.5,.8,-.5,1.4v3.6h-1v-6.3h1v.9c.3,-.3,.6,-.6,.9,-.8c.4,-.2,.8,-.3,1.2,-.3c.7,0,1.3,.2,1.7,.7c.3,.4,.5,1.1,.5,2Z" class="g6_223"/>
<path d="M376.4,433c0,1.1,-.2,1.9,-.7,2.4c-.5,.6,-1.2,.8,-2.2,.8c-.4,0,-.7,0,-1,0c-.4,-.1,-.7,-.2,-1,-.3v-1c.3,.2,.6,.3,.9,.4c.3,0,.6,.1,.9,.1c.7,0,1.2,-.2,1.6,-.6c.3,-.3,.5,-.9,.5,-1.6v-.5c-.2,.4,-.5,.7,-.8,.8c-.4,.2,-.8,.3,-1.3,.3c-.7,0,-1.4,-.3,-1.8,-.9c-.5,-.6,-.8,-1.4,-.8,-2.3c0,-1,.3,-1.8,.8,-2.4c.4,-.6,1.1,-.9,1.8,-.9c.5,0,.9,.1,1.3,.3c.3,.2,.6,.4,.8,.8v-.9h1V433Zm-1,-2.4c0,-.8,-.2,-1.4,-.5,-1.8c-.3,-.4,-.7,-.6,-1.3,-.6c-.6,0,-1,.2,-1.3,.6c-.3,.4,-.5,1,-.5,1.8c0,.7,.2,1.3,.5,1.7c.3,.4,.7,.6,1.3,.6c.6,0,1,-.2,1.3,-.6c.3,-.4,.5,-1,.5,-1.7Z" class="g6_223"/>
<path d="M386.8,430.6c0,-.7,-.1,-1.3,-.4,-1.8c-.4,-.4,-.8,-.6,-1.3,-.6c-.6,0,-1,.2,-1.3,.6c-.4,.5,-.5,1.1,-.5,1.8c0,.8,.1,1.4,.5,1.9c.3,.4,.7,.6,1.3,.6c.5,0,.9,-.2,1.3,-.6c.3,-.5,.4,-1.1,.4,-1.9Zm-3.5,2.3v3.3h-1.1v-8.7h1.1v.9c.2,-.4,.5,-.6,.8,-.8c.4,-.2,.8,-.3,1.2,-.3c.8,0,1.4,.3,1.9,.9c.5,.6,.7,1.4,.7,2.4c0,1,-.2,1.8,-.7,2.5c-.5,.6,-1.1,.9,-1.9,.9c-.4,0,-.8,-.1,-1.2,-.3c-.3,-.2,-.6,-.5,-.8,-.8Z" class="g6_223"/>
<path d="M392.1,427.3c.9,0,1.6,.3,2.2,.9c.5,.6,.7,1.4,.7,2.4c0,1.1,-.2,1.9,-.7,2.5c-.6,.6,-1.3,.9,-2.2,.9c-.9,0,-1.6,-.3,-2.1,-.9c-.5,-.6,-.8,-1.4,-.8,-2.5c0,-1,.3,-1.8,.8,-2.4c.5,-.6,1.2,-.9,2.1,-.9Zm0,.9c-.5,0,-1,.2,-1.3,.6c-.3,.5,-.5,1.1,-.5,1.8c0,.8,.2,1.4,.5,1.8c.3,.5,.8,.7,1.3,.7c.6,0,1,-.2,1.3,-.7c.4,-.4,.5,-1,.5,-1.8c0,-.7,-.1,-1.3,-.5,-1.7c-.3,-.5,-.7,-.7,-1.3,-.7Z" class="g6_223"/>
<path d="M396.8,433.8h1V425h-1Z" class="g6_223"/>
<path d="M402.6,434.4c-.3,.8,-.5,1.3,-.8,1.5c-.3,.2,-.7,.3,-1.1,.3h-.9v-.8h.6c.3,0,.5,-.1,.7,-.2c.2,-.2,.3,-.5,.5,-1l.2,-.5l-2.6,-6.2h1.2l1.9,4.9l2,-4.9h1.1l-2.8,6.9Z" class="g6_223"/>
<path d="M412.2,430v3.8h-1.1V430c0,-.6,-.1,-1,-.3,-1.3c-.3,-.3,-.6,-.5,-1.1,-.5c-.6,0,-1,.2,-1.3,.6c-.4,.3,-.5,.8,-.5,1.4v3.6h-1.1v-6.3h1.1v.9c.2,-.3,.5,-.6,.9,-.8c.3,-.2,.7,-.3,1.1,-.3c.8,0,1.3,.2,1.7,.7c.4,.4,.6,1.1,.6,2Z" class="g6_223"/>
<path d="M416.7,427.3c.9,0,1.6,.3,2.1,.9c.6,.6,.8,1.4,.8,2.4c0,1.1,-.2,1.9,-.8,2.5c-.5,.6,-1.2,.9,-2.1,.9c-.9,0,-1.6,-.3,-2.1,-.9c-.6,-.6,-.8,-1.4,-.8,-2.5c0,-1,.2,-1.8,.8,-2.4c.5,-.6,1.2,-.9,2.1,-.9Zm0,.9c-.6,0,-1,.2,-1.3,.6c-.3,.5,-.5,1.1,-.5,1.8c0,.8,.2,1.4,.5,1.8c.3,.5,.7,.7,1.3,.7c.6,0,1,-.2,1.3,-.7c.4,-.4,.5,-1,.5,-1.8c0,-.7,-.1,-1.3,-.5,-1.7c-.3,-.5,-.7,-.7,-1.3,-.7Z" class="g6_223"/>
<path d="M426.3,428.7c.3,-.5,.6,-.8,.9,-1.1c.4,-.2,.8,-.3,1.3,-.3c.7,0,1.2,.2,1.6,.7c.3,.5,.5,1.1,.5,2v3.8h-1.1V430c0,-.6,-.1,-1,-.3,-1.3c-.2,-.3,-.5,-.5,-1,-.5c-.5,0,-.9,.2,-1.2,.6c-.4,.3,-.5,.8,-.5,1.4v3.6h-1.1V430c0,-.6,-.1,-1.1,-.3,-1.3c-.2,-.3,-.5,-.5,-1,-.5c-.5,0,-.9,.2,-1.3,.6c-.3,.3,-.4,.8,-.4,1.4v3.6h-1.1v-6.3h1.1v.9c.2,-.3,.5,-.6,.8,-.8c.4,-.2,.8,-.3,1.2,-.3c.5,0,.9,.1,1.2,.4c.3,.2,.6,.5,.7,1Z" class="g6_223"/>
<path d="M432.7,425h1v1.3h-1Zm0,2.5h1v6.3h-1Z" class="g6_223"/>
<path d="M440.9,430.2v3.6h-1.1v-.9c-.2,.3,-.5,.6,-.8,.8c-.4,.2,-.8,.3,-1.4,.3c-.6,0,-1.1,-.2,-1.5,-.6c-.4,-.3,-.6,-.8,-.6,-1.4c0,-.7,.3,-1.3,.7,-1.7c.5,-.3,1.2,-.5,2.2,-.5h1.4v-.1c0,-.5,-.1,-.9,-.4,-1.1c-.3,-.3,-.8,-.4,-1.4,-.4c-.3,0,-.7,0,-1,.1c-.4,.1,-.7,.2,-1,.4v-1c.4,-.1,.7,-.2,1.1,-.3c.4,-.1,.7,-.1,1,-.1c1,0,1.7,.2,2.1,.7c.5,.5,.7,1.2,.7,2.2Zm-2.1,.4c-.8,0,-1.4,.1,-1.8,.3c-.3,.2,-.4,.5,-.4,1c0,.4,.1,.7,.3,.9c.3,.2,.6,.3,1,.3c.6,0,1.1,-.2,1.4,-.6c.4,-.4,.5,-1,.5,-1.6v-.3h-1Z" class="g6_223"/>
<path d="M443,433.8h1.1V425H443Z" class="g6_223"/>
</svg>