<?xml version="1.0" encoding="UTF-8" standalone="no"?>
<!DOCTYPE svg PUBLIC "-//W3C//DTD SVG 1.1//EN"
"http://www.w3.org/Graphics/SVG/1.1/DTD/svg11.dtd">
<svg viewBox="0 0 811 1017" version="1.1" xmlns="http://www.w3.org/2000/svg" xmlns:xlink="http://www.w3.org/1999/xlink">
<defs>
<style type="text/css"><![CDATA[
.g0_216{
fill: #0E0E0E;
}
]]></style>
</defs>
<path d="M325,391.7q0,-.1,-.1,-.1h-.1c-4.7,5.3,-5.3,19.2,-5.3,20.8v.6h1.4v-.6c0,-1.2,.8,-15,4,-20.4c.1,-.1,.1,-.2,.1,-.3Z" class="g0_216"/>
<path d="M319.5,422.3h1.4v-9.6h-1.4Z" class="g0_216"/>
<path d="M319.5,431.3h1.4v-9.6h-1.4Z" class="g0_216"/>
<path d="M319.5,440.2h1.4v-9.6h-1.4Z" class="g0_216"/>
<path d="M319.5,449.2h1.4v-9.6h-1.4Z" class="g0_216"/>
<path d="M325,470.3c0,-.1,0,-.2,-.1,-.4c-3.2,-5.4,-4,-19.1,-4,-20.3v-.7h-1.4v.7c0,1.6,.6,15.4,5.3,20.8q.1,0,.1,0q.1,0,.1,-.1Z" class="g0_216"/>
<path d="M327.5,392.7v.2c.4,0,1.1,.1,1.3,.2c.4,.3,.4,.4,.4,1.1v6.5c0,.3,0,.5,0,.7c-.1,.7,-.9,.8,-1.7,.8v.2h4.7v-.2c-.5,0,-1.2,0,-1.4,-.3c-.2,-.3,-.3,-.8,-.3,-1.3V392c-.8,.4,-2.1,.7,-3,.7Z" class="g0_216"/>
<path d="M357.6,396.9c0,-.5,-.4,-.9,-.9,-.9c-.4,0,-.7,.1,-1,.3c-.3,.2,-.6,.5,-.8,.9c0,-.7,-.5,-1.2,-1.1,-1.2c-1.1,0,-2.1,1.1,-2.4,1.9l.2,.1c.3,-.5,1.1,-1.7,1.9,-1.7c.3,0,.4,.6,.4,1c0,.3,0,.7,-.2,1.2l-.3,1.2c-.2,.5,-.4,1.3,-.7,1.7c-.2,.3,-.5,.7,-.8,.7c-.4,0,-.8,-.1,-.7,-.5c.1,-.3,.1,-.7,-.4,-.7c-.4,0,-.6,.3,-.6,.7c0,.6,.5,1,1.1,1c1,0,1.7,-.8,2.1,-1.5c.1,.8,.5,1.5,1.4,1.5c1.1,0,2,-1.2,2.4,-1.9l-.2,-.1c-.5,.6,-1.1,1.6,-2,1.6c-.4,0,-.6,-.6,-.6,-1.2c0,-.4,.1,-.8,.2,-1.3l.2,-.8c.1,-.5,.3,-1.2,.6,-1.6c.2,-.3,.6,-.9,.9,-.9c.4,0,.4,.3,.4,.6c0,.4,.1,.6,.4,.6c.4,0,.5,-.3,.5,-.7Z" class="g0_216"/>
<path d="M359.2,397.7v.2c.3,0,.8,0,1,.1c.3,.2,.3,.3,.3,.8v4.7c0,.2,0,.4,0,.6c-.1,.5,-.7,.5,-1.2,.6v.1h3.4v-.1c-.4,-.1,-.9,-.1,-1.1,-.3c-.1,-.2,-.1,-.6,-.1,-1v-6.2c-.6,.3,-1.6,.5,-2.3,.5Z" class="g0_216"/>
<path d="M384.1,398.6c0,-.4,-.4,-.8,-.9,-.8c-.4,0,-.8,.4,-.8,.8c0,.6,.5,.8,.8,.8c.3,0,.9,-.2,.9,-.8Z" class="g0_216"/>
<path d="M390.6,398.6c0,-.4,-.4,-.8,-.9,-.8c-.4,0,-.8,.4,-.8,.8c0,.6,.5,.8,.8,.8c.4,0,.9,-.2,.9,-.8Z" class="g0_216"/>
<path d="M397.1,398.6c0,-.4,-.4,-.8,-.8,-.8c-.5,0,-.9,.4,-.9,.8c0,.6,.6,.8,.9,.8c.3,0,.8,-.2,.8,-.8Z" class="g0_216"/>
<path d="M424.6,396.9c0,-.5,-.5,-.9,-1,-.9c-.3,0,-.7,.1,-1,.3c-.3,.2,-.6,.5,-.8,.9c0,-.7,-.4,-1.2,-1.1,-1.2c-1.1,0,-2.1,1.1,-2.4,1.9l.2,.1c.3,-.5,1.1,-1.7,2,-1.7c.2,0,.4,.6,.4,1c0,.3,-.1,.7,-.3,1.2l-.3,1.2c-.2,.5,-.4,1.3,-.7,1.7c-.2,.3,-.4,.7,-.8,.7c-.4,0,-.7,-.1,-.6,-.5c.1,-.3,0,-.7,-.4,-.7c-.5,0,-.7,.3,-.7,.7c0,.6,.5,1,1.1,1c1,0,1.7,-.8,2.1,-1.5c.2,.8,.6,1.5,1.4,1.5c1.2,0,2,-1.2,2.4,-1.9l-.2,-.1c-.4,.6,-1.1,1.6,-1.9,1.6c-.5,0,-.7,-.6,-.7,-1.2c0,-.4,.1,-.8,.2,-1.3l.2,-.8c.1,-.5,.3,-1.2,.6,-1.6c.2,-.3,.6,-.9,.9,-.9c.5,0,.4,.3,.4,.6c0,.4,.1,.6,.5,.6c.3,0,.5,-.3,.5,-.7Z" class="g0_216"/>
<path d="M426.1,397.7v.2c.4,0,.8,0,1,.1c.3,.2,.3,.3,.3,.8v4.7c0,.2,0,.4,0,.6c-.1,.5,-.7,.5,-1.2,.6v.1h3.4v-.1c-.4,-.1,-.9,-.1,-1.1,-.3c-.1,-.2,-.1,-.6,-.1,-1v-6.2c-.6,.3,-1.6,.5,-2.3,.5Z" class="g0_216"/>
<path d="M439.7,390.5l.2,-.3l-1.4,5.4c-.1,.2,-.1,.4,-.2,.6c-.1,.2,-.3,.5,-.6,.6c-.1,0,-.3,.1,-.4,.1l-.1,.1h3.2v-.1c-.3,0,-.6,-.1,-.8,-.2c-.1,-.1,-.1,-.3,-.1,-.5c0,-.2,0,-.5,.1,-.7l1.1,-4.1c0,-.3,.1,-.6,.2,-.8c.1,-.3,.3,-.7,.6,-.9c.1,0,.3,-.1,.4,-.1l.1,-.1h-2l-3.6,5.8h-.2l-.7,-5.8h-2.3v.1c.3,0,.5,.1,.6,.1c.2,.1,.4,.4,.4,.6c0,.1,-.1,.4,-.2,.8l-1.1,4.5c-.1,.3,-.4,.7,-.7,.9c-.2,.2,-.6,.4,-.9,.4v.1H434v-.1c-.2,0,-.5,-.1,-.6,-.3c-.1,-.1,-.3,-.4,-.3,-.7c0,-.2,0,-.3,0,-.4l1.3,-5l.1,-.2l.8,6.7h.3l4.1,-6.5Z" class="g0_216"/>
<path d="M327.5,411.1v.2c.4,0,1.1,.1,1.3,.2c.4,.2,.4,.4,.4,1V419c0,.4,0,.6,0,.8c-.1,.7,-.9,.8,-1.7,.8v.2h4.7v-.2c-.5,0,-1.2,0,-1.4,-.3c-.2,-.3,-.3,-.8,-.3,-1.3v-8.6c-.8,.4,-2.1,.7,-3,.7Z" class="g0_216"/>
<path d="M357.6,415.3c0,-.5,-.4,-.9,-.9,-.9c-.4,0,-.7,.1,-1,.3c-.3,.2,-.6,.5,-.8,.9c0,-.7,-.5,-1.2,-1.1,-1.2c-1.1,0,-2.1,1.1,-2.4,1.9l.2,.1c.3,-.5,1.1,-1.7,1.9,-1.7c.3,0,.4,.6,.4,1c0,.3,0,.7,-.2,1.2l-.3,1.1c-.2,.6,-.4,1.4,-.7,1.8c-.2,.3,-.5,.7,-.8,.7c-.4,0,-.8,-.1,-.7,-.5c.1,-.3,.1,-.7,-.4,-.7c-.4,0,-.6,.3,-.6,.7c0,.6,.5,.9,1.1,.9c1,0,1.7,-.7,2.1,-1.4c.1,.8,.5,1.4,1.4,1.4c1.1,0,2,-1.1,2.4,-1.8l-.2,-.2c-.5,.7,-1.1,1.7,-2,1.7c-.4,0,-.6,-.6,-.6,-1.2c0,-.4,.1,-.8,.2,-1.4l.2,-.7c.1,-.6,.3,-1.2,.6,-1.6c.2,-.3,.6,-.9,.9,-.9c.4,0,.4,.2,.4,.6c0,.4,.1,.5,.4,.5c.4,0,.5,-.2,.5,-.6Z" class="g0_216"/>
<path d="M360.4,418.5c-.7,0,-1.1,-.5,-1.1,-1.1c0,-.8,.5,-1.7,1.4,-1.7c1.2,0,1.3,1,1.3,1.9c0,1,-.3,1.5,-.7,2.2c-.3,.4,-.7,.8,-1.2,1.3c-.5,.5,-1.1,1.1,-1.8,1.8v.3h4.5l.4,-2.1h-.3c-.1,.2,-.2,.4,-.2,.6c-.2,.3,-.5,.5,-1,.5h-2.1c.4,-.4,.9,-.7,1.3,-1.1c.8,-.6,1.6,-1.4,2,-2.2c.2,-.4,.3,-.8,.3,-1.2c0,-.3,-.1,-.6,-.2,-.9c-.4,-.7,-1.1,-1.3,-2.2,-1.3c-.7,0,-1.3,.3,-1.7,.6c-.4,.3,-.7,.8,-.7,1.5c0,.4,.1,.8,.3,1c.2,.3,.5,.4,.9,.4c.4,0,.7,-.1,.8,-.5Z" class="g0_216"/>
<path d="M384.1,417c0,-.4,-.4,-.8,-.9,-.8c-.4,0,-.8,.4,-.8,.8c0,.6,.5,.8,.8,.8c.3,0,.9,-.2,.9,-.8Z" class="g0_216"/>
<path d="M390.6,417c0,-.4,-.4,-.8,-.9,-.8c-.4,0,-.8,.4,-.8,.8c0,.6,.5,.8,.8,.8c.4,0,.9,-.2,.9,-.8Z" class="g0_216"/>
<path d="M397.1,417c0,-.4,-.4,-.8,-.8,-.8c-.5,0,-.9,.4,-.9,.8c0,.6,.6,.8,.9,.8c.3,0,.8,-.2,.8,-.8Z" class="g0_216"/>
<path d="M424.6,415.3c0,-.5,-.5,-.9,-1,-.9c-.3,0,-.7,.1,-1,.3c-.3,.2,-.6,.5,-.8,.9c0,-.7,-.4,-1.2,-1.1,-1.2c-1.1,0,-2.1,1.1,-2.4,1.9l.2,.1c.3,-.5,1.1,-1.7,2,-1.7c.2,0,.4,.6,.4,1c0,.3,-.1,.7,-.3,1.2l-.3,1.1c-.2,.6,-.4,1.4,-.7,1.8c-.2,.3,-.4,.7,-.8,.7c-.4,0,-.7,-.1,-.6,-.5c.1,-.3,0,-.7,-.4,-.7c-.5,0,-.7,.3,-.7,.7c0,.6,.5,.9,1.1,.9c1,0,1.7,-.7,2.1,-1.4c.2,.8,.6,1.4,1.4,1.4c1.2,0,2,-1.1,2.4,-1.8l-.2,-.2c-.4,.7,-1.1,1.7,-1.9,1.7c-.5,0,-.7,-.6,-.7,-1.2c0,-.4,.1,-.8,.2,-1.4l.2,-.7c.1,-.6,.3,-1.2,.6,-1.6c.2,-.3,.6,-.9,.9,-.9c.5,0,.4,.2,.4,.6c0,.4,.1,.5,.5,.5c.3,0,.5,-.2,.5,-.6Z" class="g0_216"/>
<path d="M427.3,418.5c-.6,0,-1,-.5,-1,-1.1c0,-.8,.4,-1.7,1.3,-1.7c1.2,0,1.3,1,1.3,1.9c0,1,-.3,1.5,-.7,2.2c-.3,.4,-.7,.8,-1.1,1.3c-.5,.5,-1.1,1.1,-1.9,1.8v.3h4.6l.3,-2.1h-.3c0,.2,-.1,.4,-.2,.6c-.2,.3,-.5,.5,-1,.5h-2.1c.5,-.4,.9,-.7,1.4,-1.1c.7,-.6,1.5,-1.4,1.9,-2.2c.2,-.4,.3,-.8,.3,-1.2c0,-.3,-.1,-.6,-.2,-.9c-.4,-.7,-1.1,-1.3,-2.2,-1.3c-.7,0,-1.3,.3,-1.7,.6c-.4,.3,-.7,.8,-.7,1.5c0,.4,.1,.8,.4,1c.2,.3,.5,.4,.9,.4c.4,0,.7,-.1,.7,-.5Z" class="g0_216"/>
<path d="M439.7,408.9l.2,-.3l-1.4,5.4c-.1,.2,-.1,.4,-.2,.5c-.1,.3,-.3,.6,-.6,.7c-.1,0,-.3,.1,-.4,.1l-.1,.1h3.2v-.1c-.3,0,-.6,-.1,-.8,-.2c-.1,-.1,-.1,-.3,-.1,-.6c0,-.1,0,-.4,.1,-.6l1.1,-4.1c0,-.4,.1,-.6,.2,-.8c.1,-.4,.3,-.7,.6,-.9c.1,-.1,.3,-.1,.4,-.1l.1,-.1h-2l-3.6,5.8h-.2l-.7,-5.8h-2.3v.1c.3,0,.5,0,.6,.1c.2,.1,.4,.3,.4,.5c0,.2,-.1,.5,-.2,.8l-1.1,4.6c-.1,.3,-.4,.7,-.7,.9c-.2,.2,-.6,.4,-.9,.4v.1H434v-.1c-.2,0,-.5,-.1,-.6,-.3c-.1,-.1,-.3,-.4,-.3,-.7c0,-.2,0,-.3,0,-.4l1.3,-5l.1,-.2l.8,6.7h.3l4.1,-6.5Z" class="g0_216"/>
<path d="M329.7,436.9c.5,0,.8,-.4,.8,-.9c0,-.5,-.3,-.8,-.8,-.8c-.5,0,-.9,.4,-.9,.8c0,.5,.4,.9,.9,.9Z" class="g0_216"/>
<path d="M329.7,442.9c.5,0,.8,-.4,.8,-.9c0,-.5,-.3,-.9,-.8,-.9c-.5,0,-.9,.4,-.9,.9c0,.5,.4,.9,.9,.9Z" class="g0_216"/>
<path d="M329.7,448.8c.5,0,.8,-.3,.8,-.8c0,-.5,-.3,-.9,-.8,-.9c-.5,0,-.9,.4,-.9,.9c0,.4,.4,.8,.9,.8Z" class="g0_216"/>
<path d="M357.5,436.9c.5,0,.9,-.4,.9,-.9c0,-.5,-.4,-.8,-.9,-.8c-.5,0,-.9,.4,-.9,.8c0,.5,.4,.9,.9,.9Z" class="g0_216"/>
<path d="M357.5,442.9c.5,0,.9,-.4,.9,-.9c0,-.5,-.4,-.9,-.9,-.9c-.5,0,-.9,.4,-.9,.9c0,.5,.4,.9,.9,.9Z" class="g0_216"/>
<path d="M357.5,448.8c.5,0,.9,-.3,.9,-.8c0,-.5,-.4,-.9,-.9,-.9c-.5,0,-.9,.4,-.9,.9c0,.4,.4,.8,.9,.8Z" class="g0_216"/>
<path d="M391,436.9c.5,0,.9,-.4,.9,-.9c0,-.5,-.4,-.8,-.9,-.8c-.5,0,-.9,.4,-.9,.8c0,.5,.4,.9,.9,.9Z" class="g0_216"/>
<path d="M391,442.9c.5,0,.9,-.4,.9,-.9c0,-.5,-.4,-.9,-.9,-.9c-.5,0,-.9,.4,-.9,.9c0,.5,.4,.9,.9,.9Z" class="g0_216"/>
<path d="M391,448.8c.5,0,.9,-.3,.9,-.8c0,-.5,-.4,-.9,-.9,-.9c-.5,0,-.9,.4,-.9,.9c0,.4,.4,.8,.9,.8Z" class="g0_216"/>
<path d="M430.3,436.9c.5,0,.9,-.4,.9,-.9c0,-.5,-.4,-.8,-.9,-.8c-.5,0,-.9,.4,-.9,.8c0,.5,.4,.9,.9,.9Z" class="g0_216"/>
<path d="M430.3,442.9c.5,0,.9,-.4,.9,-.9c0,-.5,-.4,-.9,-.9,-.9c-.5,0,-.9,.4,-.9,.9c0,.5,.4,.9,.9,.9Z" class="g0_216"/>
<path d="M430.3,448.8c.5,0,.9,-.3,.9,-.8c0,-.5,-.4,-.9,-.9,-.9c-.5,0,-.9,.4,-.9,.9c0,.4,.4,.8,.9,.8Z" class="g0_216"/>
<path d="M327.5,457.4v.2c.4,0,1.1,.1,1.3,.2c.4,.2,.4,.4,.4,1v6.5c0,.3,0,.6,0,.8c-.1,.7,-.9,.7,-1.7,.8v.2h4.7v-.2c-.5,0,-1.2,-.1,-1.4,-.3c-.2,-.3,-.3,-.8,-.3,-1.4v-8.6c-.8,.4,-2.1,.8,-3,.8Z" class="g0_216"/>
<path d="M356,461.6c0,-.6,-.5,-1,-1,-1c-.3,0,-.7,.2,-1,.4c-.3,.2,-.6,.5,-.8,.8c0,-.6,-.4,-1.2,-1.1,-1.2c-1.1,0,-2.1,1.2,-2.4,2l.2,.1c.3,-.5,1.1,-1.7,2,-1.7c.2,0,.3,.5,.3,1c0,.3,0,.6,-.2,1.1l-.3,1.2c-.2,.6,-.4,1.4,-.7,1.8c-.2,.2,-.4,.7,-.8,.7c-.4,0,-.7,-.1,-.6,-.5c0,-.3,0,-.8,-.4,-.8c-.5,0,-.7,.3,-.7,.8c0,.5,.5,.9,1.1,.9c1,0,1.7,-.8,2.1,-1.4c.1,.8,.5,1.4,1.4,1.4c1.2,0,2,-1.1,2.4,-1.8l-.2,-.2c-.5,.6,-1.1,1.7,-1.9,1.7c-.5,0,-.7,-.7,-.7,-1.3c0,-.3,.1,-.7,.2,-1.3l.2,-.7c.1,-.6,.3,-1.3,.6,-1.6c.2,-.3,.6,-1,.9,-1c.5,0,.4,.3,.4,.6c0,.4,.1,.6,.5,.6c.3,0,.5,-.3,.5,-.6Z" class="g0_216"/>
<path d="M361.8,469.4h.3l1.6,-6c0,-.1,.1,-.3,.1,-.4c.2,-.3,.4,-.7,.7,-.9c.1,0,.3,-.1,.4,-.1l.1,-.1h-2.3v.1c.2,.1,.4,.1,.6,.3c.1,.2,.1,.6,.1,.9c0,.1,0,.2,0,.3l-1,4l-.1,.1l-2.5,-5.7h-2v.1c.4,.1,.6,.1,.7,.2c.3,.3,.4,.7,.4,1c0,.1,0,.2,0,.3l-1.2,4.5c-.1,.3,-.3,.7,-.6,.9c-.2,.2,-.6,.4,-1,.4v.1h2.8l.1,-.1c-.3,0,-.6,-.1,-.8,-.2c-.1,-.2,-.3,-.5,-.3,-.8c0,-.1,0,-.3,.1,-.4l1.1,-4.4l.1,-.2l2.6,6.1Z" class="g0_216"/>
<path d="M384.1,463.3c0,-.5,-.4,-.9,-.9,-.9c-.4,0,-.8,.4,-.8,.9c0,.6,.5,.8,.8,.8c.3,0,.9,-.3,.9,-.8Z" class="g0_216"/>
<path d="M390.6,463.3c0,-.5,-.4,-.9,-.9,-.9c-.4,0,-.8,.4,-.8,.9c0,.6,.5,.8,.8,.8c.4,0,.9,-.3,.9,-.8Z" class="g0_216"/>
<path d="M397.1,463.3c0,-.5,-.4,-.9,-.8,-.9c-.5,0,-.9,.4,-.9,.9c0,.6,.6,.8,.9,.8c.3,0,.8,-.3,.8,-.8Z" class="g0_216"/>
<path d="M422.9,461.6c0,-.6,-.5,-1,-1,-1c-.3,0,-.7,.2,-1,.4c-.3,.2,-.6,.5,-.8,.8c0,-.6,-.4,-1.2,-1.1,-1.2c-1.1,0,-2.1,1.2,-2.4,2l.2,.1c.4,-.5,1.1,-1.7,2,-1.7c.2,0,.4,.5,.4,1c0,.3,-.1,.6,-.2,1.1l-.4,1.2c-.1,.6,-.4,1.4,-.7,1.8c-.2,.2,-.4,.7,-.8,.7c-.4,0,-.7,-.1,-.6,-.5c.1,-.3,0,-.8,-.4,-.8c-.5,0,-.6,.3,-.6,.8c0,.5,.4,.9,1,.9c1,0,1.7,-.8,2.1,-1.4h.1c.1,.8,.5,1.4,1.3,1.4c1.2,0,2,-1.1,2.5,-1.8l-.2,-.2c-.5,.6,-1.2,1.7,-2,1.7c-.4,0,-.7,-.7,-.7,-1.3c0,-.3,.1,-.7,.2,-1.3l.2,-.7c.1,-.6,.4,-1.3,.6,-1.6c.2,-.3,.6,-1,1,-1c.4,0,.3,.3,.3,.6c0,.4,.1,.6,.5,.6c.3,0,.5,-.3,.5,-.6Z" class="g0_216"/>
<path d="M428.7,469.4h.3l1.6,-6c0,-.1,.1,-.3,.2,-.4c.1,-.3,.3,-.7,.6,-.9c.1,0,.3,-.1,.5,-.1v-.1h-2.3v.1c.2,.1,.5,.1,.6,.3c.2,.2,.2,.6,.2,.9c0,.1,0,.2,-.1,.3l-1,4l-.1,.1l-2.5,-5.7h-1.9l-.1,.1c.4,.1,.6,.1,.7,.2c.3,.3,.4,.7,.4,1c0,.1,0,.2,0,.3l-1.2,4.5c-.1,.3,-.3,.7,-.6,.9c-.2,.2,-.6,.4,-.9,.4l-.1,.1h2.8l.1,-.1c-.3,0,-.6,-.1,-.8,-.2c-.1,-.2,-.3,-.5,-.3,-.8c0,-.1,0,-.3,.1,-.4l1.1,-4.4l.1,-.2l2.6,6.1Z" class="g0_216"/>
<path d="M441.3,455.2l.3,-.4l-1.4,5.4c-.1,.3,-.2,.5,-.2,.6c-.1,.3,-.3,.5,-.6,.6c-.1,.1,-.3,.1,-.4,.1l-.1,.2H442l.1,-.2c-.4,0,-.6,0,-.8,-.1c-.1,-.1,-.1,-.4,-.1,-.6c0,-.1,0,-.4,.1,-.7l1,-4c.1,-.4,.2,-.7,.3,-.9c.1,-.3,.3,-.6,.6,-.8c.1,-.1,.2,-.1,.4,-.1l.1,-.2h-2l-3.6,5.9h-.2l-.7,-5.9h-2.3l-.1,.2c.4,0,.6,0,.7,.1c.2,0,.4,.3,.4,.5c0,.2,-.1,.5,-.2,.8l-1.2,4.5c0,.4,-.3,.7,-.6,.9c-.2,.3,-.6,.4,-.9,.4v.2h2.7v-.2c-.2,0,-.5,0,-.6,-.2c-.2,-.2,-.3,-.5,-.3,-.7c0,-.2,0,-.3,0,-.5l1.3,-4.9l.1,-.3l.8,6.8h.3l4,-6.5Z" class="g0_216"/>
<path d="M445.4,391.7c0,.1,.1,.2,.2,.3c3.2,5.4,3.9,19.2,3.9,20.4v.6h1.4v-.6c0,-1.6,-.5,-15.5,-5.3,-20.8h-.1c0,0,-.1,0,-.1,.1Z" class="g0_216"/>
<path d="M449.5,422.3h1.4v-9.6h-1.4Z" class="g0_216"/>
<path d="M449.5,431.3h1.4v-9.6h-1.4Z" class="g0_216"/>
<path d="M449.5,440.2h1.4v-9.6h-1.4Z" class="g0_216"/>
<path d="M449.5,449.2h1.4v-9.6h-1.4Z" class="g0_216"/>
<path d="M445.4,470.3c0,.1,.1,.1,.1,.1q.1,0,.1,0c4.8,-5.4,5.3,-19.2,5.3,-20.8v-.7h-1.4v.7c0,1.2,-.7,14.9,-3.9,20.3c-.1,.2,-.2,.3,-.2,.4Z" class="g0_216"/>
<path d="M460.4,391.7q0,-.1,-.1,-.1c-4.8,5.3,-5.4,19.2,-5.4,20.8v.6h1.4v-.6c0,-1.2,.8,-15,4,-20.4c.1,-.1,.1,-.2,.1,-.3Z" class="g0_216"/>
<path d="M454.9,422.3h1.4v-9.6h-1.4Z" class="g0_216"/>
<path d="M454.9,431.3h1.4v-9.6h-1.4Z" class="g0_216"/>
<path d="M454.9,440.2h1.4v-9.6h-1.4Z" class="g0_216"/>
<path d="M454.9,449.2h1.4v-9.6h-1.4Z" class="g0_216"/>
<path d="M460.4,470.3c0,-.1,0,-.2,-.1,-.4c-3.2,-5.4,-4,-19.1,-4,-20.3v-.7h-1.4v.7c0,1.6,.6,15.4,5.4,20.8q.1,0,.1,-.1Z" class="g0_216"/>
<path d="M467.9,396.2c-.5,0,-.9,.2,-1.3,.5c-.5,.3,-.9,.6,-1.3,1.1c-.6,.8,-1.2,2,-1.2,3.3c0,1,.4,1.7,1.3,1.7c1.3,0,1.8,-.9,2.2,-1.5c-.2,.9,-.1,1.5,.5,1.5c.4,0,.8,-.2,1.2,-.5c.4,-.3,.7,-.8,1.1,-1.4l-.2,-.1c-.3,.4,-.9,1.4,-1.4,1.4c-.2,0,-.2,-.4,-.2,-.6c0,-.9,.6,-2.4,.9,-3.4l.7,-1.9h-1l-.3,.7c-.1,-.5,-.4,-.8,-1,-.8Zm.1,.3c.7,0,.6,1.3,.5,1.9c-.1,.3,-.2,.6,-.3,.9c-.4,1.2,-1.5,3.2,-2.3,3.2c-.6,0,-.8,-1,-.8,-1.5c0,-.4,0,-.9,.2,-1.3c.4,-1,1.4,-3.2,2.7,-3.2Z" class="g0_216"/>
<path d="M473.9,404.9c-1.4,0,-1.4,-1.9,-1.4,-3.5c0,-1.6,0,-3.8,1.4,-3.8c1.4,0,1.4,2.2,1.4,3.8c0,1.6,0,3.5,-1.4,3.5Zm0,-7.5c-1.9,0,-2.5,2,-2.5,3.9c0,1.9,.6,3.8,2.5,3.8c1.8,0,2.4,-1.8,2.4,-3.8c0,-1.9,-.5,-3.9,-2.4,-3.9Z" class="g0_216"/>
<path d="M467.9,414.1c-.5,0,-.9,.2,-1.3,.5c-.5,.3,-.9,.6,-1.3,1.1c-.6,.8,-1.2,2,-1.2,3.3c0,1,.4,1.7,1.3,1.7c1.3,0,1.8,-.9,2.2,-1.5c-.2,.9,-.1,1.5,.5,1.5c.4,0,.8,-.2,1.2,-.5c.4,-.3,.7,-.8,1.1,-1.4l-.2,-.1c-.3,.4,-.9,1.4,-1.4,1.4c-.2,0,-.2,-.4,-.2,-.6c0,-.9,.6,-2.4,.9,-3.4l.7,-1.9h-1l-.3,.7c-.1,-.5,-.4,-.8,-1,-.8Zm.1,.3c.7,0,.6,1.3,.5,1.9c-.1,.3,-.2,.6,-.3,.9c-.4,1.2,-1.5,3.2,-2.3,3.2c-.6,0,-.8,-1,-.8,-1.5c0,-.4,0,-.9,.2,-1.3c.4,-1,1.4,-3.2,2.7,-3.2Z" class="g0_216"/>
<path d="M472.3,415.9v.1c.3,0,.8,.1,.9,.1c.3,.2,.3,.3,.3,.8v4.7c0,.3,0,.5,0,.6c-.1,.5,-.6,.6,-1.2,.6v.1h3.4v-.1c-.3,0,-.9,0,-1,-.2c-.2,-.3,-.2,-.6,-.2,-1v-6.3c-.6,.3,-1.5,.5,-2.2,.6Z" class="g0_216"/>
<path d="M470.5,436.7c.5,0,.9,-.4,.9,-.9c0,-.5,-.4,-.9,-.9,-.9c-.5,0,-.9,.4,-.9,.9c0,.5,.4,.9,.9,.9Z" class="g0_216"/>
<path d="M470.5,442.6c.5,0,.9,-.4,.9,-.8c0,-.5,-.4,-.9,-.9,-.9c-.5,0,-.9,.4,-.9,.9c0,.4,.4,.8,.9,.8Z" class="g0_216"/>
<path d="M470.5,448.6c.5,0,.9,-.4,.9,-.9c0,-.5,-.4,-.9,-.9,-.9c-.5,0,-.9,.4,-.9,.9c0,.5,.4,.9,.9,.9Z" class="g0_216"/>
<path d="M465.4,459.9c-.4,0,-.8,.1,-1.3,.4c-.4,.3,-.9,.7,-1.2,1.2c-.7,.8,-1.3,2,-1.3,3.2c0,1,.4,1.8,1.3,1.8c1.3,0,1.8,-.9,2.2,-1.6c-.2,.9,-.1,1.6,.6,1.6c.3,0,.7,-.2,1.1,-.5c.4,-.3,.8,-.8,1.1,-1.4l-.2,-.1c-.3,.4,-.9,1.3,-1.3,1.3c-.2,0,-.3,-.3,-.3,-.5c0,-.9,.6,-2.5,.9,-3.5l.7,-1.8h-1l-.2,.7c-.2,-.5,-.5,-.8,-1.1,-.8Zm.1,.3c.7,0,.6,1.3,.5,1.8c-.1,.4,-.2,.7,-.3,1c-.4,1.2,-1.5,3.1,-2.3,3.1c-.6,0,-.7,-.9,-.7,-1.4c0,-.4,0,-.9,.2,-1.3c.3,-1.1,1.4,-3.2,2.6,-3.2Z" class="g0_216"/>
<path d="M476.5,462.2l.2,-.3l-1.4,5.3c-.1,.3,-.1,.5,-.2,.6c-.1,.3,-.3,.6,-.6,.7c-.1,0,-.2,.1,-.4,.1l-.1,.1h3.2v-.1c-.3,0,-.6,-.1,-.7,-.2c-.2,-.1,-.2,-.3,-.2,-.6c0,-.1,0,-.4,.1,-.7l1.1,-4c.1,-.4,.1,-.6,.2,-.8c.1,-.4,.4,-.7,.6,-.9c.1,-.1,.3,-.1,.5,-.1v-.1h-2l-3.6,5.8h-.1l-.7,-5.8H470v.1c.3,0,.5,0,.7,.1c.1,.1,.3,.3,.3,.5c0,.2,0,.5,-.1,.8l-1.2,4.5c-.1,.4,-.4,.8,-.6,1c-.3,.2,-.6,.4,-1,.4v.1h2.7l.1,-.1c-.3,-.1,-.6,-.1,-.7,-.3c-.1,-.1,-.3,-.5,-.3,-.7c0,-.2,0,-.3,0,-.5l1.4,-4.9V462l.8,6.7h.3l4.1,-6.5Z" class="g0_216"/>
<path d="M480.6,391.7c0,.1,0,.2,.1,.3c3.2,5.4,4,19.2,4,20.4v.6h1.4v-.6c0,-1.6,-.6,-15.5,-5.3,-20.8q-.1,0,-.1,0q-.1,0,-.1,.1Z" class="g0_216"/>
<path d="M484.7,422.3h1.4v-9.6h-1.4Z" class="g0_216"/>
<path d="M484.7,431.3h1.4v-9.6h-1.4Z" class="g0_216"/>
<path d="M484.7,440.2h1.4v-9.6h-1.4Z" class="g0_216"/>
<path d="M484.7,449.2h1.4v-9.6h-1.4Z" class="g0_216"/>
<path d="M480.6,470.3q0,.1,.1,.1h.1c4.7,-5.4,5.3,-19.2,5.3,-20.8v-.7h-1.4v.7c0,1.2,-.8,14.9,-4,20.3c-.1,.2,-.1,.3,-.1,.4Z" class="g0_216"/>
<path d="M491.6,432.9h7.6v-.8h-7.6Zm0,-3h7.6V429h-7.6Z" class="g0_216"/>
<path d="M510.2,391.7q0,-.1,-.1,-.1c0,0,-.1,0,-.1,0c-4.7,5.3,-5.3,19.2,-5.3,20.8v.6h1.4v-.6c0,-1.2,.8,-15,4,-20.4c0,-.1,.1,-.2,.1,-.3Z" class="g0_216"/>
<path d="M504.7,422.3h1.4v-9.6h-1.4Z" class="g0_216"/>
<path d="M504.7,431.3h1.4v-9.6h-1.4Z" class="g0_216"/>
<path d="M504.7,440.2h1.4v-9.6h-1.4Z" class="g0_216"/>
<path d="M504.7,449.2h1.4v-9.6h-1.4Z" class="g0_216"/>
<path d="M510.2,470.3c0,-.1,-.1,-.2,-.1,-.4c-3.2,-5.4,-4,-19.1,-4,-20.3v-.7h-1.4v.7c0,1.6,.6,15.4,5.3,20.8c0,0,.1,0,.1,0q.1,0,.1,-.1Z" class="g0_216"/>
<path d="M511.3,404.9c0,.5,.5,.9,1.1,.9c.5,0,.8,-.2,1.3,-.6c.8,-.7,2.1,-2.2,2.8,-3.4c.4,-.6,.8,-1.2,1.1,-1.8c.4,-.8,1.1,-2.1,1.1,-2.9c0,-.3,-.1,-.4,-.2,-.6c-.1,-.2,-.2,-.3,-.4,-.3c-.2,0,-.3,.1,-.5,.2c-.1,.1,-.2,.4,-.2,.7c0,.4,.2,.9,.2,1.3c0,.6,-.2,1.1,-.4,1.6c-.3,.5,-.5,.8,-.8,1.4h-.1l-.3,-1.9c-.1,-.6,-.4,-1.7,-.5,-2.1c-.1,-.7,-.3,-1.2,-1.3,-1.2c-1.1,0,-1.3,1.8,-1.6,2.5l.3,.2c.1,-.6,.6,-2.4,1.1,-2.4c.3,0,.4,1.1,.5,1.3c.1,.3,.2,.7,.3,1.4l.6,3.5c-.4,.8,-1.2,1.7,-1.8,2.1c-.2,.2,-.6,.3,-.7,.3c-.1,0,-.2,-.1,-.3,-.2c-.2,-.2,-.2,-.7,-.7,-.7c-.4,0,-.6,.3,-.6,.7Z" class="g0_216"/>
<path d="M520.3,398v.1c.3,0,.8,.1,.9,.1c.4,.2,.4,.3,.4,.8v4.7c0,.3,0,.5,-.1,.6c0,.5,-.6,.6,-1.2,.6v.1h3.5v-.1c-.4,0,-.9,0,-1.1,-.2c-.2,-.3,-.2,-.6,-.2,-1v-6.3c-.5,.3,-1.5,.5,-2.2,.6Z" class="g0_216"/>
<path d="M511.3,422.8c0,.5,.5,.9,1.1,.9c.5,0,.8,-.2,1.3,-.6c.8,-.7,2.1,-2.2,2.8,-3.4c.4,-.6,.8,-1.2,1.1,-1.8c.4,-.8,1.1,-2.1,1.1,-2.9c0,-.3,-.1,-.4,-.2,-.6c-.1,-.2,-.2,-.3,-.4,-.3c-.2,0,-.3,.1,-.5,.2c-.1,.2,-.2,.4,-.2,.7c0,.4,.2,.9,.2,1.3c0,.6,-.2,1.1,-.4,1.6c-.3,.5,-.5,.8,-.8,1.4h-.1l-.3,-1.9c-.1,-.6,-.4,-1.7,-.5,-2.1c-.1,-.7,-.3,-1.2,-1.3,-1.2c-1.1,0,-1.3,1.8,-1.6,2.5l.3,.2c.1,-.6,.6,-2.3,1.1,-2.3c.3,0,.4,1,.5,1.2c.1,.3,.2,.7,.3,1.4l.6,3.5c-.4,.8,-1.2,1.7,-1.8,2.1c-.2,.2,-.6,.3,-.7,.3c-.1,0,-.2,-.1,-.3,-.2c-.2,-.2,-.2,-.7,-.7,-.7c-.4,0,-.6,.3,-.6,.7Z" class="g0_216"/>
<path d="M521.5,418.3c-.7,0,-1.1,-.5,-1.1,-1.2c0,-.8,.4,-1.6,1.3,-1.6c1.2,0,1.3,1,1.3,1.9c0,.9,-.2,1.5,-.7,2.1c-.2,.4,-.6,.9,-1.1,1.4c-.5,.5,-1.1,1.1,-1.8,1.7v.3h4.5l.4,-2H524c-.1,.2,-.2,.4,-.2,.5c-.2,.4,-.5,.6,-1.1,.6h-2.1v-.1c.5,-.3,1,-.7,1.4,-1c.8,-.7,1.5,-1.4,2,-2.3c.1,-.4,.2,-.8,.2,-1.2c0,-.3,0,-.6,-.1,-.8c-.4,-.8,-1.1,-1.3,-2.2,-1.3c-.7,0,-1.4,.2,-1.8,.6c-.3,.3,-.7,.8,-.7,1.4c0,.5,.2,.8,.4,1.1c.2,.2,.5,.4,.9,.4c.4,0,.7,-.2,.8,-.5Z" class="g0_216"/>
<path d="M519,436.7c.5,0,.9,-.4,.9,-.9c0,-.5,-.4,-.9,-.9,-.9c-.5,0,-.9,.4,-.9,.9c0,.5,.4,.9,.9,.9Z" class="g0_216"/>
<path d="M519,442.6c.5,0,.9,-.4,.9,-.8c0,-.5,-.4,-.9,-.9,-.9c-.5,0,-.9,.4,-.9,.9c0,.4,.4,.8,.9,.8Z" class="g0_216"/>
<path d="M519,448.6c.5,0,.9,-.4,.9,-.9c0,-.5,-.4,-.9,-.9,-.9c-.5,0,-.9,.4,-.9,.9c0,.5,.4,.9,.9,.9Z" class="g0_216"/>
<path d="M509.6,468.5c0,.6,.5,1,1.1,1c.5,0,.8,-.2,1.3,-.6c.8,-.7,2.1,-2.2,2.8,-3.4c.4,-.6,.8,-1.3,1.1,-1.8c.4,-.8,1.1,-2.1,1.1,-2.9c0,-.3,-.1,-.5,-.2,-.7c0,-.2,-.2,-.2,-.4,-.2c-.2,0,-.3,.1,-.5,.2c-.1,.1,-.2,.3,-.2,.6c0,.5,.3,1,.3,1.4c0,.6,-.3,1.1,-.5,1.5c-.2,.5,-.5,.9,-.8,1.5h-.1l-.3,-2c-.1,-.5,-.3,-1.6,-.4,-2c-.2,-.7,-.4,-1.2,-1.4,-1.2c-1.1,0,-1.3,1.8,-1.6,2.5l.3,.1c.2,-.5,.6,-2.3,1.1,-2.3c.3,0,.5,1.1,.5,1.3c.1,.3,.2,.7,.3,1.4l.6,3.5c-.4,.8,-1.2,1.6,-1.8,2.1c-.2,.2,-.6,.3,-.7,.3c-.1,0,-.2,-.1,-.3,-.2c-.2,-.2,-.2,-.7,-.6,-.7c-.4,0,-.7,.3,-.7,.6Z" class="g0_216"/>
<path d="M522.9,468.7h.3l1.5,-6c.1,-.1,.2,-.3,.2,-.4c.2,-.3,.4,-.7,.6,-.9c.1,-.1,.4,-.1,.5,-.1l.1,-.1h-2.3v.1c.2,0,.4,.1,.6,.3c.1,.2,.1,.6,.1,.8c0,.1,0,.3,0,.4l-1.1,4v.1l-2.5,-5.7h-2v.1c.4,0,.6,0,.7,.2c.2,.3,.4,.7,.4,1c0,.1,0,.2,-.1,.3l-1.1,4.4c-.1,.4,-.4,.7,-.6,1c-.3,.2,-.7,.4,-1,.4v.1H520v-.1c-.3,-.1,-.6,-.1,-.7,-.3c-.2,-.1,-.3,-.5,-.3,-.7c0,-.2,0,-.3,0,-.5l1.2,-4.3v-.2l2.7,6.1Z" class="g0_216"/>
<path d="M527.8,391.7c0,.1,.1,.2,.2,.3c3.1,5.4,3.9,19.2,3.9,20.4v.6h1.4v-.6c0,-1.6,-.5,-15.5,-5.3,-20.8c0,0,-.1,0,-.1,0c0,0,-.1,0,-.1,.1Z" class="g0_216"/>
<path d="M531.9,422.3h1.4v-9.6h-1.4Z" class="g0_216"/>
<path d="M531.9,431.3h1.4v-9.6h-1.4Z" class="g0_216"/>
<path d="M531.9,440.2h1.4v-9.6h-1.4Z" class="g0_216"/>
<path d="M531.9,449.2h1.4v-9.6h-1.4Z" class="g0_216"/>
<path d="M527.8,470.3c0,.1,.1,.1,.1,.1c0,0,.1,0,.1,0c4.8,-5.4,5.3,-19.2,5.3,-20.8v-.7h-1.4v.7c0,1.2,-.8,14.9,-3.9,20.3c-.1,.2,-.2,.3,-.2,.4Z" class="g0_216"/>
</svg>