<?xml version="1.0" encoding="UTF-8" standalone="no"?>
<!DOCTYPE svg PUBLIC "-//W3C//DTD SVG 1.1//EN"
"http://www.w3.org/Graphics/SVG/1.1/DTD/svg11.dtd">
<svg viewBox="0 0 811 1017" version="1.1" xmlns="http://www.w3.org/2000/svg" xmlns:xlink="http://www.w3.org/1999/xlink">
<defs>
<clipPath id="c0_222"><path d="M142.4,385V82.5H528.9V385Z"/></clipPath>
<style type="text/css"><![CDATA[
.g0_222{
fill: #70A6CC;
}
.g1_222{
fill: #FFF;
}
.g2_222{
fill: #1A78B6;
}
.g3_222{
fill: none;
stroke: #1A78B6;
stroke-width: 0.968;
stroke-linejoin: round;
}
.g4_222{
fill: none;
stroke: #B0B2B1;
stroke-width: 0.774;
stroke-linecap: square;
stroke-linejoin: round;
}
.g5_222{
fill: none;
stroke: #040504;
stroke-width: 0.774;
stroke-linejoin: round;
}
.g6_222{
fill: #040504;
}
.g7_222{
fill: none;
stroke: #1A78B6;
stroke-width: 1.452;
stroke-linecap: square;
stroke-linejoin: round;
}
.g8_222{
fill: none;
stroke: #040504;
stroke-width: 0.774;
stroke-linecap: square;
}
.g9_222{
fill: #000;
}
]]></style>
</defs>
<path d="M142.4,590.2H710.7V568.9H142.4Z" class="g0_222"/>
<path d="M182,356.4H528V98.5H182Z" class="g1_222"/>
<path d="M224,286.2c.8,0,1.5,-.3,2.1,-.9c.5,-.5,.8,-1.3,.8,-2c0,-.8,-.3,-1.5,-.8,-2.1c-.6,-.5,-1.3,-.8,-2.1,-.8c-.7,0,-1.5,.3,-2,.8c-.6,.6,-.9,1.3,-.9,2.1c0,.7,.3,1.5,.9,2c.5,.6,1.3,.9,2,.9Z" class="g2_222"/>
<path d="M224,286.2c.8,0,1.5,-.3,2.1,-.9c.5,-.5,.8,-1.3,.8,-2c0,-.8,-.3,-1.5,-.8,-2.1c-.6,-.5,-1.3,-.8,-2.1,-.8c-.7,0,-1.5,.3,-2,.8c-.6,.6,-.9,1.3,-.9,2.1c0,.7,.3,1.5,.9,2c.5,.6,1.3,.9,2,.9Z" class="g3_222"/>
<path d="M276.5,251.8c.8,0,1.5,-.3,2.1,-.9c.5,-.5,.8,-1.3,.8,-2c0,-.8,-.3,-1.5,-.8,-2.1c-.6,-.5,-1.3,-.8,-2.1,-.8c-.7,0,-1.5,.3,-2,.8c-.6,.6,-.9,1.3,-.9,2.1c0,.7,.3,1.5,.9,2c.5,.6,1.3,.9,2,.9Z" class="g2_222"/>
<path d="M276.5,251.8c.8,0,1.5,-.3,2.1,-.9c.5,-.5,.8,-1.3,.8,-2c0,-.8,-.3,-1.5,-.8,-2.1c-.6,-.5,-1.3,-.8,-2.1,-.8c-.7,0,-1.5,.3,-2,.8c-.6,.6,-.9,1.3,-.9,2.1c0,.7,.3,1.5,.9,2c.5,.6,1.3,.9,2,.9Z" class="g3_222"/>
<path d="M329,148.6c.8,0,1.6,-.3,2.1,-.8c.5,-.6,.9,-1.3,.9,-2.1c0,-.8,-.4,-1.5,-.9,-2.1c-.5,-.5,-1.3,-.8,-2.1,-.8c-.7,0,-1.5,.3,-2,.8c-.6,.6,-.9,1.3,-.9,2.1c0,.8,.3,1.5,.9,2.1c.5,.5,1.3,.8,2,.8Z" class="g2_222"/>
<path d="M329,148.6c.8,0,1.6,-.3,2.1,-.8c.5,-.6,.9,-1.3,.9,-2.1c0,-.8,-.4,-1.5,-.9,-2.1c-.5,-.5,-1.3,-.8,-2.1,-.8c-.7,0,-1.5,.3,-2,.8c-.6,.6,-.9,1.3,-.9,2.1c0,.8,.3,1.5,.9,2.1c.5,.5,1.3,.8,2,.8Z" class="g3_222"/>
<path d="M381.6,114.2c.7,0,1.5,-.3,2,-.8c.6,-.6,.9,-1.3,.9,-2.1c0,-.8,-.3,-1.5,-.9,-2c-.5,-.6,-1.3,-.9,-2,-.9c-.8,0,-1.6,.3,-2.1,.9c-.5,.5,-.9,1.2,-.9,2c0,.8,.4,1.5,.9,2.1c.5,.5,1.3,.8,2.1,.8Z" class="g2_222"/>
<path d="M381.6,114.2c.7,0,1.5,-.3,2,-.8c.6,-.6,.9,-1.3,.9,-2.1c0,-.8,-.3,-1.5,-.9,-2c-.5,-.6,-1.3,-.9,-2,-.9c-.8,0,-1.6,.3,-2.1,.9c-.5,.5,-.9,1.2,-.9,2c0,.8,.4,1.5,.9,2.1c.5,.5,1.3,.8,2.1,.8Z" class="g3_222"/>
<path d="M434.1,114.2c.7,0,1.5,-.3,2,-.8c.6,-.6,.9,-1.3,.9,-2.1c0,-.8,-.3,-1.5,-.9,-2c-.5,-.6,-1.3,-.9,-2,-.9c-.8,0,-1.5,.3,-2.1,.9c-.5,.5,-.8,1.2,-.8,2c0,.8,.3,1.5,.8,2.1c.6,.5,1.3,.8,2.1,.8Z" class="g2_222"/>
<path d="M434.1,114.2c.7,0,1.5,-.3,2,-.8c.6,-.6,.9,-1.3,.9,-2.1c0,-.8,-.3,-1.5,-.9,-2c-.5,-.6,-1.3,-.9,-2,-.9c-.8,0,-1.5,.3,-2.1,.9c-.5,.5,-.8,1.2,-.8,2c0,.8,.3,1.5,.8,2.1c.6,.5,1.3,.8,2.1,.8Z" class="g3_222"/>
<path d="M224,356.4V98.5" class="g4_222"/>
<path d="M224,356.4v3.3" class="g5_222"/>
<path d="M219.1,369.7h1.5v-5.4l-1.7,.3v-.8l1.7,-.4h1v6.3h1.5v.8h-4v-.8Z" class="g6_222"/>
<path d="M227.1,363.3c.8,0,1.4,.3,1.8,1c.4,.6,.6,1.5,.6,2.7c0,1.2,-.2,2.1,-.6,2.7c-.4,.6,-1,.9,-1.8,.9c-.8,0,-1.4,-.3,-1.8,-.9c-.4,-.6,-.6,-1.5,-.6,-2.7c0,-1.2,.2,-2.1,.6,-2.7c.4,-.7,1,-1,1.8,-1Zm0,.8c-.5,0,-.9,.2,-1.1,.7c-.3,.5,-.4,1.2,-.4,2.2c0,.9,.1,1.7,.4,2.2c.2,.4,.6,.7,1.1,.7c.5,0,.9,-.3,1.1,-.7c.3,-.5,.4,-1.3,.4,-2.2c0,-1,-.1,-1.7,-.4,-2.2c-.2,-.5,-.6,-.7,-1.1,-.7Z" class="g6_222"/>
<path d="M276.5,356.4V98.5" class="g4_222"/>
<path d="M276.5,356.4v3.3" class="g5_222"/>
<path d="M271.6,369.7h1.5v-5.4l-1.7,.3v-.8l1.7,-.4h1v6.3h1.5v.8h-4v-.8Z" class="g6_222"/>
<path d="M277.7,369.7h1.6v-5.4l-1.7,.3v-.8l1.7,-.4h.9v6.3h1.6v.8h-4.1v-.8Z" class="g6_222"/>
<path d="M329,356.4V98.5" class="g4_222"/>
<path d="M329,356.4v3.3" class="g5_222"/>
<path d="M324.1,369.7h1.5v-5.4l-1.7,.3v-.8l1.7,-.4h1v6.3h1.5v.8h-4v-.8Z" class="g6_222"/>
<path d="M330.9,369.7h3.3v.8h-4.4v-.8c.3,-.4,.8,-.9,1.4,-1.5c.7,-.6,1.1,-1.1,1.2,-1.2c.3,-.4,.5,-.7,.7,-.9c.1,-.2,.1,-.5,.1,-.7c0,-.4,-.1,-.7,-.4,-.9c-.2,-.3,-.6,-.4,-1,-.4c-.3,0,-.6,.1,-.9,.2c-.4,.1,-.7,.2,-1.1,.4v-.9c.4,-.2,.7,-.3,1.1,-.4c.3,-.1,.6,-.1,.9,-.1c.7,0,1.3,.2,1.7,.6c.5,.3,.7,.8,.7,1.4c0,.3,-.1,.6,-.2,.9c-.1,.2,-.3,.5,-.6,.9c0,.1,-.3,.3,-.7,.8c-.4,.4,-1,1,-1.8,1.8Z" class="g6_222"/>
<path d="M381.6,356.4V98.5" class="g4_222"/>
<path d="M381.6,356.4v3.3" class="g5_222"/>
<path d="M376.6,369.7h1.6v-5.4l-1.7,.3v-.8l1.6,-.4h1v6.3h1.6v.8h-4.1v-.8Z" class="g6_222"/>
<path d="M385.5,366.7c.4,.1,.8,.3,1.1,.6c.2,.3,.3,.7,.3,1.1c0,.7,-.2,1.3,-.7,1.7c-.5,.3,-1.1,.5,-2,.5c-.3,0,-.6,0,-.9,0c-.3,-.1,-.7,-.2,-1,-.3v-.9c.3,.1,.5,.2,.9,.3c.3,.1,.6,.1,1,.1c.6,0,1,-.1,1.3,-.3c.3,-.3,.5,-.6,.5,-1.1c0,-.4,-.2,-.7,-.4,-.9c-.3,-.3,-.7,-.4,-1.3,-.4h-.8v-.8h.9c.4,0,.8,-.1,1.1,-.2c.2,-.2,.3,-.5,.3,-.9c0,-.3,-.1,-.6,-.4,-.8c-.2,-.2,-.6,-.3,-1.1,-.3c-.2,0,-.5,0,-.8,.1c-.3,.1,-.6,.1,-1,.3v-.9c.4,-.1,.7,-.2,1,-.2c.3,-.1,.6,-.1,.9,-.1c.7,0,1.3,.2,1.7,.5c.5,.3,.7,.8,.7,1.3c0,.4,-.1,.8,-.4,1c-.2,.3,-.5,.5,-.9,.6Z" class="g6_222"/>
<path d="M434.1,356.4V98.5" class="g4_222"/>
<path d="M434.1,356.4v3.3" class="g5_222"/>
<path d="M429.1,369.7h1.6v-5.4l-1.7,.3v-.8l1.7,-.4h.9v6.3h1.6v.8h-4.1v-.8Z" class="g6_222"/>
<path d="M437.5,363.4h1.2V368h1v.8h-1v1.7h-1v-1.7h-3.2v-.9l3,-4.5Zm.2,.9l-2.4,3.7h2.4v-3.7Z" class="g6_222"/>
<path d="M486.6,356.4V98.5" class="g4_222"/>
<path d="M486.6,356.4v3.3" class="g5_222"/>
<path d="M481.6,369.7h1.6v-5.4l-1.7,.3v-.8l1.7,-.4h.9v6.3h1.6v.8h-4.1v-.8Z" class="g6_222"/>
<path d="M487.6,363.4h3.8v.8h-2.9V366c.1,-.1,.3,-.1,.4,-.1c.2,-.1,.3,-.1,.4,-.1c.8,0,1.4,.2,1.9,.7c.5,.4,.7,1,.7,1.7c0,.8,-.2,1.4,-.7,1.8c-.5,.4,-1.2,.6,-2,.6c-.3,0,-.6,0,-.9,0c-.3,-.1,-.6,-.2,-1,-.3v-.9c.3,.1,.6,.2,.9,.3c.3,.1,.6,.1,1,.1c.5,0,.9,-.1,1.3,-.4c.3,-.3,.4,-.7,.4,-1.2c0,-.5,-.1,-.8,-.4,-1.1c-.4,-.3,-.8,-.5,-1.3,-.5c-.3,0,-.5,.1,-.8,.1c-.3,.1,-.5,.2,-.8,.3v-3.6Z" class="g6_222"/>
<path d="M357.5,378.5l-1.9,2.5l2,2.8h-1L355,381.7l-1.5,2.1h-1.1l2.1,-2.8l-1.9,-2.5h1.1l1.4,1.8l1.4,-1.8h1Z" class="g6_222"/>
<path d="M182,352H528" class="g4_222"/>
<path d="M182,352h-3.3" class="g5_222"/>
<path d="M155.8,353.1h6.1v-.8h-6.1Z" class="g6_222"/>
<path d="M166.3,348.7h1.2v4.6h1.1v.8h-1.1v1.6h-.9v-1.6h-3.2v-1l2.9,-4.4Zm.3,.8l-2.4,3.8h2.4v-3.8Z" class="g6_222"/>
<path d="M172.5,348.7h1.2v4.6h1v.8h-1v1.6h-.9v-1.6h-3.2v-1l2.9,-4.4Zm.3,.8l-2.5,3.8h2.5v-3.8Z" class="g6_222"/>
<path d="M182,317.7H528" class="g4_222"/>
<path d="M182,317.7h-3.3" class="g5_222"/>
<path d="M155.8,318.7h6.1v-.8h-6.1Z" class="g6_222"/>
<path d="M166.3,314.3h1.2v4.6h1.1v.8h-1.1v1.6h-.9v-1.6h-3.2v-1l2.9,-4.4Zm.3,.8l-2.4,3.8h2.4v-3.8Z" class="g6_222"/>
<path d="M173,317.5c.5,.1,.8,.3,1.1,.6c.3,.3,.4,.7,.4,1.2c0,.7,-.3,1.2,-.7,1.6c-.5,.4,-1.2,.6,-2.1,.6c-.3,0,-.6,-.1,-.9,-.1c-.3,-.1,-.6,-.2,-1,-.3v-.9c.3,.2,.6,.3,.9,.3c.3,.1,.7,.2,1,.2c.6,0,1,-.2,1.4,-.4c.3,-.2,.4,-.6,.4,-1c0,-.4,-.1,-.8,-.4,-1c-.3,-.2,-.7,-.3,-1.2,-.3h-.8v-.8h.8c.5,0,.8,-.1,1.1,-.3c.2,-.2,.4,-.5,.4,-.8c0,-.4,-.2,-.7,-.4,-.9c-.3,-.2,-.6,-.3,-1.1,-.3c-.3,0,-.6,.1,-.9,.1c-.3,.1,-.6,.2,-1,.3v-.9c.4,-.1,.8,-.1,1.1,-.2c.3,0,.6,-.1,.9,-.1c.7,0,1.3,.2,1.7,.5c.4,.4,.6,.8,.6,1.4c0,.4,-.1,.7,-.3,1c-.2,.2,-.6,.4,-1,.5Z" class="g6_222"/>
<path d="M182,283.3H528" class="g4_222"/>
<path d="M182,283.3h-3.3" class="g5_222"/>
<path d="M155.8,284.3h6.1v-.8h-6.1Z" class="g6_222"/>
<path d="M166.3,279.9h1.2v4.6h1.1v.8h-1.1v1.6h-.9v-1.6h-3.2v-.9l2.9,-4.5Zm.3,.8l-2.4,3.8h2.4v-3.8Z" class="g6_222"/>
<path d="M171,286.1h3.3v.8h-4.5v-.8c.4,-.3,.9,-.8,1.5,-1.5c.6,-.6,1,-1,1.2,-1.2c.3,-.3,.5,-.6,.6,-.9c.1,-.2,.2,-.4,.2,-.7c0,-.3,-.1,-.7,-.4,-.9c-.3,-.2,-.6,-.3,-1,-.3c-.3,0,-.6,0,-1,.1c-.3,.1,-.7,.3,-1,.5v-1c.3,-.1,.7,-.3,1,-.3c.4,-.1,.7,-.1,1,-.1c.7,0,1.3,.1,1.7,.5c.4,.4,.7,.9,.7,1.5c0,.3,-.1,.5,-.2,.8c-.1,.3,-.3,.6,-.6,.9c-.1,.1,-.3,.4,-.8,.8c-.4,.4,-1,1.1,-1.7,1.8Z" class="g6_222"/>
<path d="M182,248.9H528" class="g4_222"/>
<path d="M182,248.9h-3.3" class="g5_222"/>
<path d="M155.8,249.9h6.1v-.8h-6.1Z" class="g6_222"/>
<path d="M166.3,245.5h1.2v4.6h1.1v.8h-1.1v1.7h-.9v-1.7h-3.2V250l2.9,-4.5Zm.3,.8l-2.4,3.8h2.4v-3.8Z" class="g6_222"/>
<path d="M170.3,251.7h1.6v-5.3l-1.7,.3v-.9l1.7,-.3h.9v6.2h1.6v.9h-4.1v-.9Z" class="g6_222"/>
<path d="M182,214.5H528" class="g4_222"/>
<path d="M182,214.5h-3.3" class="g5_222"/>
<path d="M155.8,215.5h6.1v-.8h-6.1Z" class="g6_222"/>
<path d="M166.3,211.1h1.2v4.6h1.1v.8h-1.1v1.7h-.9v-1.7h-3.2v-.9l2.9,-4.5Zm.3,.8l-2.4,3.8h2.4v-3.8Z" class="g6_222"/>
<path d="M172.2,211c.8,0,1.4,.3,1.8,.9c.4,.6,.6,1.5,.6,2.7c0,1.2,-.2,2.1,-.6,2.8c-.4,.6,-1,.9,-1.8,.9c-.8,0,-1.4,-.3,-1.8,-.9c-.5,-.7,-.7,-1.6,-.7,-2.8c0,-1.2,.2,-2.1,.7,-2.7c.4,-.6,1,-.9,1.8,-.9Zm0,.7c-.5,0,-.9,.3,-1.1,.8c-.3,.4,-.4,1.2,-.4,2.1c0,1,.1,1.7,.4,2.2c.2,.5,.6,.7,1.1,.7c.5,0,.8,-.2,1.1,-.7c.2,-.5,.4,-1.2,.4,-2.2c0,-.9,-.2,-1.7,-.4,-2.1c-.3,-.5,-.6,-.8,-1.1,-.8Z" class="g6_222"/>
<path d="M182,180.1H528" class="g4_222"/>
<path d="M182,180.1h-3.3" class="g5_222"/>
<path d="M155.8,181.1h6.1v-.8h-6.1Z" class="g6_222"/>
<path d="M166.9,180c.4,.1,.8,.3,1,.6c.3,.3,.4,.7,.4,1.1c0,.7,-.2,1.3,-.7,1.6c-.5,.4,-1.2,.6,-2,.6c-.3,0,-.6,0,-1,-.1c-.3,0,-.6,-.1,-.9,-.2v-1c.2,.2,.5,.3,.8,.4c.4,.1,.7,.1,1,.1c.6,0,1.1,-.1,1.4,-.4c.3,-.2,.5,-.5,.5,-1c0,-.4,-.2,-.7,-.5,-1c-.3,-.2,-.7,-.3,-1.2,-.3h-.8v-.8h.9c.4,0,.8,-.1,1,-.3c.3,-.2,.4,-.4,.4,-.8c0,-.4,-.1,-.6,-.4,-.8c-.2,-.2,-.6,-.3,-1.1,-.3c-.2,0,-.5,0,-.8,.1c-.3,0,-.7,.1,-1,.2v-.8c.3,-.1,.7,-.2,1,-.2c.3,-.1,.6,-.1,.9,-.1c.7,0,1.3,.1,1.7,.5c.4,.3,.7,.8,.7,1.3c0,.4,-.2,.7,-.4,1c-.2,.3,-.5,.5,-.9,.6Z" class="g6_222"/>
<path d="M172.1,180.6c.4,0,.7,-.1,1,-.4c.2,-.3,.4,-.7,.4,-1.2c0,-.5,-.2,-.9,-.4,-1.2c-.3,-.3,-.6,-.5,-1,-.5c-.5,0,-.8,.2,-1.1,.5c-.2,.3,-.3,.7,-.3,1.2c0,.5,.1,.9,.3,1.2c.3,.3,.6,.4,1.1,.4Zm-1.9,3v-.8c.2,.1,.4,.2,.7,.2c.2,.1,.5,.1,.7,.1c.6,0,1.1,-.2,1.5,-.6c.3,-.5,.5,-1.1,.5,-2c-.2,.3,-.4,.5,-.7,.7c-.2,.1,-.6,.2,-.9,.2c-.7,0,-1.3,-.2,-1.7,-.7c-.4,-.4,-.6,-1,-.6,-1.7c0,-.7,.2,-1.3,.7,-1.8c.4,-.4,1,-.6,1.7,-.6c.8,0,1.4,.3,1.8,.9c.5,.6,.7,1.6,.7,2.7c0,1.2,-.3,2,-.8,2.7c-.5,.7,-1.3,1,-2.1,1c-.3,0,-.5,0,-.8,-.1c-.2,0,-.5,-.1,-.7,-.2Z" class="g6_222"/>
<path d="M182,145.7H528" class="g4_222"/>
<path d="M182,145.7h-3.3" class="g5_222"/>
<path d="M155.8,146.7h6.1v-.8h-6.1Z" class="g6_222"/>
<path d="M166.9,145.6c.4,.1,.8,.3,1,.6c.3,.3,.4,.7,.4,1.1c0,.7,-.2,1.3,-.7,1.6c-.5,.4,-1.2,.6,-2,.6c-.3,0,-.6,0,-1,-.1c-.3,0,-.6,-.1,-.9,-.2v-1c.2,.2,.5,.3,.8,.4c.4,.1,.7,.1,1,.1c.6,0,1.1,-.1,1.4,-.3c.3,-.3,.5,-.6,.5,-1.1c0,-.4,-.2,-.7,-.5,-.9c-.3,-.3,-.7,-.4,-1.2,-.4h-.8v-.8h.9c.4,0,.8,-.1,1,-.3c.3,-.2,.4,-.4,.4,-.8c0,-.3,-.1,-.6,-.4,-.8c-.2,-.2,-.6,-.3,-1.1,-.3c-.2,0,-.5,0,-.8,.1c-.3,0,-.7,.1,-1,.2v-.8c.3,-.1,.7,-.2,1,-.2c.3,-.1,.6,-.1,.9,-.1c.7,0,1.3,.2,1.7,.5c.4,.3,.7,.8,.7,1.3c0,.4,-.2,.7,-.4,1c-.2,.3,-.5,.5,-.9,.6Z" class="g6_222"/>
<path d="M170.9,144.1c0,.4,.1,.7,.3,.9c.2,.2,.6,.3,1,.3c.4,0,.7,-.1,.9,-.3c.3,-.2,.4,-.5,.4,-.9c0,-.4,-.1,-.6,-.4,-.8c-.2,-.3,-.5,-.4,-.9,-.4c-.4,0,-.8,.1,-1,.4c-.2,.2,-.3,.4,-.3,.8Zm.3,1.5c-.4,-.1,-.7,-.3,-.9,-.6c-.3,-.2,-.4,-.6,-.4,-1c0,-.5,.2,-1,.6,-1.3c.4,-.3,1,-.5,1.7,-.5c.7,0,1.2,.2,1.6,.5c.4,.3,.6,.8,.6,1.3c0,.4,-.1,.8,-.3,1c-.2,.3,-.6,.5,-1,.6c.5,.1,.9,.3,1.1,.6c.3,.4,.4,.7,.4,1.2c0,.7,-.2,1.2,-.6,1.6c-.4,.3,-1,.5,-1.8,.5c-.8,0,-1.4,-.2,-1.8,-.5c-.4,-.4,-.6,-.9,-.6,-1.6c0,-.5,.1,-.8,.3,-1.2c.3,-.3,.7,-.5,1.1,-.6Zm1,.4c-.5,0,-.8,.1,-1.1,.4c-.3,.2,-.4,.6,-.4,1c0,.4,.1,.8,.4,1c.3,.2,.6,.4,1.1,.4c.4,0,.8,-.2,1.1,-.4c.2,-.2,.3,-.6,.3,-1c0,-.4,-.1,-.8,-.3,-1c-.3,-.3,-.7,-.4,-1.1,-.4Z" class="g6_222"/>
<path d="M182,111.3H528" class="g4_222"/>
<path d="M182,111.3h-3.3" class="g5_222"/>
<path d="M155.8,112.4h6.1v-.8h-6.1Z" class="g6_222"/>
<path d="M166.9,111.2c.4,.1,.8,.3,1,.6c.3,.3,.4,.7,.4,1.1c0,.7,-.2,1.3,-.7,1.7c-.5,.3,-1.2,.5,-2,.5c-.3,0,-.6,0,-1,-.1c-.3,0,-.6,-.1,-.9,-.2v-.9c.2,.1,.5,.2,.8,.3c.4,.1,.7,.1,1,.1c.6,0,1.1,-.1,1.4,-.3c.3,-.3,.5,-.6,.5,-1.1c0,-.4,-.2,-.7,-.5,-.9c-.3,-.3,-.7,-.4,-1.2,-.4h-.8v-.8h.9c.4,0,.8,-.1,1,-.3c.3,-.1,.4,-.4,.4,-.8c0,-.3,-.1,-.6,-.4,-.8c-.2,-.2,-.6,-.3,-1.1,-.3c-.2,0,-.5,0,-.8,.1c-.3,0,-.7,.1,-1,.3v-.9c.3,-.1,.7,-.2,1,-.2c.3,-.1,.6,-.1,.9,-.1c.7,0,1.3,.2,1.7,.5c.4,.3,.7,.8,.7,1.3c0,.4,-.2,.8,-.4,1c-.2,.3,-.5,.5,-.9,.6Z" class="g6_222"/>
<path d="M169.9,107.9h4.5v.4l-2.5,6.7h-1l2.4,-6.3h-3.4v-.8Z" class="g6_222"/>
<path d="M149.4,227.2c.6,.2,1.1,.5,1.3,.7c.1,.3,.2,.6,.2,1v.6h-.7V229c0,-.2,0,-.4,-.2,-.5c-.1,-.2,-.3,-.3,-.8,-.5l-.4,-.1l-5.2,2.1v-.9l4.2,-1.7l-4.2,-1.6v-.9l5.8,2.3Z" class="g6_222"/>
<path clip-path="url(#c0_222)" d="M197.8,344.6l7.8,-14.9c54.2,-100,162.6,-275,300.9,-202.2l5.8,3.1" class="g7_222"/>
<path d="M182,356.4V98.5M528,356.4V98.5M182,356.4H528M182,98.5H528" class="g8_222"/>
<path d="M282,84.3h1.3l3.2,8.4h-1.2l-.8,-2.1h-3.8l-.7,2.1h-1.3L282,84.3Zm.6,1.1l-1.5,4.2h3.1l-1.6,-4.2Z" class="g6_222"/>
<path d="M292.3,89.6c0,-.8,-.2,-1.4,-.5,-1.9c-.3,-.4,-.8,-.6,-1.3,-.6c-.6,0,-1,.2,-1.3,.6c-.3,.5,-.5,1.1,-.5,1.9c0,.7,.2,1.3,.5,1.8c.3,.4,.7,.6,1.3,.6c.5,0,1,-.2,1.3,-.6c.3,-.5,.5,-1.1,.5,-1.8Zm-3.6,2.2v3.3h-1V86.4h1v.9c.2,-.3,.5,-.6,.8,-.8c.4,-.2,.8,-.3,1.2,-.3c.8,0,1.4,.3,1.9,.9c.5,.7,.8,1.5,.8,2.5c0,1,-.3,1.8,-.8,2.4c-.5,.6,-1.1,.9,-1.9,.9c-.4,0,-.8,-.1,-1.2,-.3c-.3,-.2,-.6,-.4,-.8,-.8Z" class="g6_222"/>
<path d="M299.6,89.6c0,-.8,-.1,-1.4,-.4,-1.9c-.3,-.4,-.8,-.6,-1.3,-.6c-.6,0,-1,.2,-1.3,.6c-.3,.5,-.5,1.1,-.5,1.9c0,.7,.2,1.3,.5,1.8c.3,.4,.7,.6,1.3,.6c.5,0,1,-.2,1.3,-.6c.3,-.5,.4,-1.1,.4,-1.8Zm-3.5,2.2v3.3H295V86.4h1.1v.9c.2,-.3,.5,-.6,.8,-.8c.4,-.2,.8,-.3,1.2,-.3c.8,0,1.4,.3,1.9,.9c.5,.7,.7,1.5,.7,2.5c0,1,-.2,1.8,-.7,2.4c-.5,.6,-1.1,.9,-1.9,.9c-.4,0,-.8,-.1,-1.2,-.3c-.3,-.2,-.6,-.4,-.8,-.8Z" class="g6_222"/>
<path d="M306.1,87.3c-.1,0,-.2,-.1,-.3,-.1c-.2,0,-.3,-.1,-.5,-.1c-.6,0,-1,.2,-1.4,.6c-.3,.4,-.4,1,-.4,1.7v3.3h-1.1V86.4h1.1v1c.2,-.4,.5,-.7,.8,-.9c.4,-.2,.8,-.3,1.3,-.3c.1,0,.2,0,.3,0c0,0,.1,.1,.2,.1v1Z" class="g6_222"/>
<path d="M309.4,86.2c1,0,1.7,.3,2.2,.9c.5,.6,.8,1.4,.8,2.5c0,1,-.3,1.8,-.8,2.4c-.5,.6,-1.2,.9,-2.2,.9c-.9,0,-1.6,-.3,-2.1,-.9c-.5,-.6,-.8,-1.4,-.8,-2.4c0,-1.1,.3,-1.9,.8,-2.5c.5,-.6,1.2,-.9,2.1,-.9Zm0,.9c-.5,0,-1,.2,-1.3,.7c-.3,.4,-.5,1,-.5,1.8c0,.7,.2,1.3,.5,1.8c.3,.4,.8,.6,1.3,.6c.6,0,1,-.2,1.4,-.7c.3,-.4,.5,-1,.5,-1.7c0,-.8,-.2,-1.4,-.5,-1.8c-.4,-.5,-.8,-.7,-1.4,-.7Z" class="g6_222"/>
<path d="M319,86.4l-2.3,3.1l2.4,3.2h-1.2l-1.8,-2.5l-1.9,2.5H313l2.4,-3.3l-2.2,-3h1.2l1.7,2.2l1.7,-2.2H319Z" class="g6_222"/>
<path d="M320.6,83.9h1.1v1.3h-1.1Zm0,2.5h1.1v6.3h-1.1Z" class="g6_222"/>
<path d="M328.8,87.6c.3,-.5,.6,-.8,.9,-1c.4,-.3,.8,-.4,1.3,-.4c.7,0,1.2,.2,1.5,.7c.4,.5,.6,1.1,.6,2v3.8H332V88.9c0,-.6,-.1,-1,-.3,-1.3c-.2,-.3,-.5,-.5,-1,-.5c-.5,0,-.9,.2,-1.3,.6c-.3,.3,-.4,.8,-.4,1.4v3.6h-1.1V88.9c0,-.6,-.1,-1,-.3,-1.3c-.2,-.3,-.6,-.5,-1,-.5c-.5,0,-1,.2,-1.3,.6c-.3,.3,-.5,.8,-.5,1.4v3.6h-1V86.4h1v1c.3,-.4,.6,-.7,.9,-.9c.3,-.2,.7,-.3,1.2,-.3c.5,0,.8,.1,1.2,.4c.3,.2,.5,.5,.7,1Z" class="g6_222"/>
<path d="M340.1,89.1v3.6h-1v-.9c-.2,.3,-.5,.6,-.9,.8c-.4,.2,-.8,.3,-1.3,.3c-.7,0,-1.2,-.2,-1.6,-.6c-.3,-.3,-.5,-.8,-.5,-1.4c0,-.7,.2,-1.3,.7,-1.6c.5,-.4,1.2,-.6,2.1,-.6h1.5v-.1c0,-.5,-.2,-.8,-.5,-1.1c-.3,-.3,-.7,-.4,-1.3,-.4c-.4,0,-.7,0,-1.1,.1c-.3,.1,-.6,.3,-1,.4v-.9c.4,-.2,.8,-.3,1.1,-.4c.4,0,.8,-.1,1.1,-.1c.9,0,1.6,.3,2.1,.7c.4,.5,.6,1.2,.6,2.2Zm-2,.4c-.9,0,-1.5,.1,-1.8,.3c-.3,.2,-.5,.5,-.5,1c0,.4,.1,.7,.4,.9c.2,.2,.6,.3,1,.3c.6,0,1,-.2,1.4,-.6c.3,-.4,.5,-1,.5,-1.6v-.3h-1Z" class="g6_222"/>
<path d="M343.3,84.6v1.8h2.2v.8h-2.2v3.4c0,.6,.1,.9,.2,1c.2,.2,.5,.3,.9,.3h1.1v.8h-1.1c-.8,0,-1.4,-.1,-1.7,-.4c-.3,-.3,-.4,-.9,-.4,-1.7V87.2h-.8v-.8h.8V84.6h1Z" class="g6_222"/>
<path d="M346.8,83.9h1.1v1.3h-1.1Zm0,2.5h1.1v6.3h-1.1Z" class="g6_222"/>
<path d="M355.4,88.9v3.8h-1.1V88.9c0,-.6,-.1,-1,-.3,-1.3c-.3,-.3,-.6,-.5,-1.1,-.5c-.6,0,-1,.2,-1.3,.6c-.4,.3,-.5,.8,-.5,1.4v3.6H350V86.4h1.1v1c.2,-.4,.5,-.7,.9,-.9c.3,-.2,.7,-.3,1.1,-.3c.8,0,1.3,.2,1.7,.7c.4,.4,.6,1.1,.6,2Z" class="g6_222"/>
<path d="M362.7,91.9c0,1.1,-.3,1.9,-.7,2.5c-.5,.5,-1.3,.7,-2.3,.7c-.3,0,-.7,0,-1,0c-.3,-.1,-.6,-.2,-.9,-.3v-1c.3,.2,.6,.3,.9,.4c.3,0,.6,.1,.9,.1c.7,0,1.2,-.2,1.5,-.6c.4,-.3,.5,-.9,.5,-1.6v-.5c-.2,.4,-.5,.7,-.8,.9c-.3,.1,-.7,.2,-1.2,.2c-.8,0,-1.4,-.3,-1.9,-.9c-.5,-.6,-.7,-1.3,-.7,-2.3c0,-1,.2,-1.8,.7,-2.4c.5,-.6,1.1,-.9,1.9,-.9c.5,0,.9,.1,1.2,.3c.3,.2,.6,.5,.8,.8v-.9h1.1v5.5Zm-1.1,-2.4c0,-.8,-.1,-1.4,-.4,-1.8c-.3,-.4,-.8,-.6,-1.4,-.6c-.5,0,-.9,.2,-1.3,.6c-.3,.4,-.4,1,-.4,1.8c0,.7,.1,1.3,.4,1.7c.4,.4,.8,.7,1.3,.7c.6,0,1.1,-.3,1.4,-.7c.3,-.4,.4,-1,.4,-1.7Z" class="g6_222"/>
<path d="M373.1,89.6c0,-.8,-.2,-1.4,-.5,-1.9c-.3,-.4,-.7,-.6,-1.3,-.6c-.5,0,-1,.2,-1.3,.6c-.3,.5,-.5,1.1,-.5,1.9c0,.7,.2,1.3,.5,1.8c.3,.4,.8,.6,1.3,.6c.6,0,1,-.2,1.3,-.6c.3,-.5,.5,-1.1,.5,-1.8Zm-3.6,2.2v3.3h-1V86.4h1v.9c.3,-.3,.5,-.6,.9,-.8c.3,-.2,.7,-.3,1.2,-.3c.7,0,1.4,.3,1.8,.9c.5,.7,.8,1.5,.8,2.5c0,1,-.3,1.8,-.8,2.4c-.4,.6,-1.1,.9,-1.8,.9c-.5,0,-.9,-.1,-1.2,-.3c-.4,-.2,-.6,-.4,-.9,-.8Z" class="g6_222"/>
<path d="M378.4,86.2c.9,0,1.6,.3,2.1,.9c.5,.6,.8,1.4,.8,2.5c0,1,-.3,1.8,-.8,2.4c-.5,.6,-1.2,.9,-2.1,.9c-.9,0,-1.7,-.3,-2.2,-.9c-.5,-.6,-.8,-1.4,-.8,-2.4c0,-1.1,.3,-1.9,.8,-2.5c.5,-.6,1.3,-.9,2.2,-.9Zm0,.9c-.6,0,-1,.2,-1.4,.7c-.3,.4,-.5,1,-.5,1.8c0,.7,.2,1.3,.5,1.8c.4,.4,.8,.6,1.4,.6c.5,0,1,-.2,1.3,-.7c.3,-.4,.5,-1,.5,-1.7c0,-.8,-.2,-1.4,-.5,-1.8c-.3,-.5,-.8,-.7,-1.3,-.7Z" class="g6_222"/>
<path d="M383,92.7h1.1V83.9H383Z" class="g6_222"/>
<path d="M388.9,93.3c-.3,.8,-.6,1.3,-.9,1.5c-.3,.2,-.6,.3,-1.1,.3h-.8v-.8h.6c.3,0,.5,-.1,.6,-.2c.2,-.2,.4,-.5,.6,-1l.2,-.5l-2.6,-6.2h1.1l2,4.9l2,-4.9h1.1l-2.8,6.9Z" class="g6_222"/>
<path d="M398.4,88.9v3.8h-1V88.9c0,-.6,-.2,-1,-.4,-1.3c-.2,-.3,-.6,-.5,-1,-.5c-.6,0,-1.1,.2,-1.4,.6c-.3,.3,-.5,.8,-.5,1.4v3.6h-1V86.4h1v1c.3,-.4,.6,-.7,.9,-.9c.4,-.2,.7,-.3,1.2,-.3c.7,0,1.3,.2,1.6,.7c.4,.4,.6,1.1,.6,2Z" class="g6_222"/>
<path d="M403,86.2c.9,0,1.6,.3,2.1,.9c.5,.6,.8,1.4,.8,2.5c0,1,-.3,1.8,-.8,2.4c-.5,.6,-1.2,.9,-2.1,.9c-1,0,-1.7,-.3,-2.2,-.9c-.5,-.6,-.8,-1.4,-.8,-2.4c0,-1.1,.3,-1.9,.8,-2.5c.5,-.6,1.2,-.9,2.2,-.9Zm0,.9c-.6,0,-1,.2,-1.4,.7c-.3,.4,-.5,1,-.5,1.8c0,.7,.2,1.3,.5,1.8c.3,.4,.8,.6,1.4,.6c.5,0,1,-.2,1.3,-.7c.3,-.4,.5,-1,.5,-1.7c0,-.8,-.2,-1.4,-.5,-1.8c-.3,-.5,-.8,-.7,-1.3,-.7Z" class="g6_222"/>
<path d="M412.6,87.6c.2,-.5,.5,-.8,.9,-1c.4,-.3,.8,-.4,1.3,-.4c.6,0,1.1,.2,1.5,.7c.4,.5,.5,1.1,.5,2v3.8h-1V88.9c0,-.6,-.1,-1,-.3,-1.3c-.2,-.3,-.6,-.5,-1,-.5c-.6,0,-1,.2,-1.3,.6c-.3,.3,-.5,.8,-.5,1.4v3.6h-1V88.9c0,-.6,-.1,-1,-.3,-1.3c-.3,-.3,-.6,-.5,-1,-.5c-.6,0,-1,.2,-1.3,.6c-.3,.3,-.5,.8,-.5,1.4v3.6h-1V86.4h1v1c.3,-.4,.5,-.7,.9,-.9c.3,-.2,.7,-.3,1.2,-.3c.4,0,.8,.1,1.1,.4c.4,.2,.6,.5,.8,1Z" class="g6_222"/>
<path d="M418.9,83.9H420v1.3h-1.1Zm0,2.5H420v6.3h-1.1Z" class="g6_222"/>
<path d="M427.1,89.1v3.6h-1v-.9c-.2,.3,-.5,.6,-.9,.8c-.4,.2,-.8,.3,-1.3,.3c-.7,0,-1.2,-.2,-1.6,-.6c-.3,-.3,-.5,-.8,-.5,-1.4c0,-.7,.2,-1.3,.7,-1.6c.5,-.4,1.2,-.6,2.1,-.6h1.5v-.1c0,-.5,-.2,-.8,-.5,-1.1c-.3,-.3,-.7,-.4,-1.3,-.4c-.4,0,-.7,0,-1.1,.1c-.3,.1,-.7,.3,-1,.4v-.9c.4,-.2,.8,-.3,1.1,-.4c.4,0,.8,-.1,1.1,-.1c.9,0,1.6,.3,2.1,.7c.4,.5,.6,1.2,.6,2.2Zm-2,.4c-.9,0,-1.5,.1,-1.8,.3c-.3,.2,-.5,.5,-.5,1c0,.4,.1,.7,.4,.9c.2,.2,.6,.3,1,.3c.5,0,1,-.2,1.4,-.6c.3,-.4,.5,-1,.5,-1.6v-.3h-1Z" class="g6_222"/>
<path d="M429.3,92.7h1V83.9h-1Z" class="g6_222"/>
<path d="M554.7,915h.3V846.6h-.3Z" class="g9_222"/>
<path d="M537.5,915v3.2l-.2,-.1l-6.4,-2.9l-.3,-.2l.3,-.2l6.4,-2.9l.2,-.1v.3l-.1,.2l-6.3,2.9l-.2,-.4h.2l6.3,3l-.1,.3l-.1,-.1v-3Z" class="g9_222"/>
<path d="M537.2,915h.3v-2.9h-.3Z" class="g9_222"/>
<path d="M537.4,915.2h.1v-.4h-.1Z" class="g9_222"/>
<path d="M537.5,915.2H555v-.4H537.5Z" class="g9_222"/>
</svg>