<?xml version="1.0" encoding="UTF-8" standalone="no"?>
<!DOCTYPE svg PUBLIC "-//W3C//DTD SVG 1.1//EN"
"http://www.w3.org/Graphics/SVG/1.1/DTD/svg11.dtd">
<svg viewBox="0 0 811 1017" version="1.1" xmlns="http://www.w3.org/2000/svg" xmlns:xlink="http://www.w3.org/1999/xlink">
<defs>
<style type="text/css"><![CDATA[
.g0_322{
fill: #F9FBFB;
}
.g1_322{
fill: #F3F6F7;
}
.g2_322{
fill: #F0F3F4;
}
.g3_322{
fill: #F6F7F7;
}
.g4_322{
fill: #EDEFF0;
}
.g5_322{
fill: #040504;
}
.g6_322{
fill: #B0B2B1;
}
.g7_322{
fill: #D74562;
}
]]></style>
</defs>
<path d="M453.8,585.7L299,563.1l-.1,.5l-.5,-129h.1l157.6,15.2l-2.3,135.9Z" class="g0_322"/>
<path d="M454.8,587l-.4,-.1l.1,-.1l-.4,-.9l-.8,.3L298.9,563.6l.1,-.5l154.8,22.6l2.3,-135.9L298.5,434.6h.1l-.2,-.5l.1,-.6l158.7,15.3L454.8,587Z" class="g0_322"/>
<path d="M194.9,600.6L192.4,459.8l106,-25.2l.5,129l-.2,-.5L194.9,600.6Z" class="g1_322"/>
<path d="M193.8,602.1v-.3l.6,.1l-.6,.2Zm0,-1.1L191.3,458.9l107,-25.3l.1,.5v.5l-106,25.2l2.5,140.8l-1.1,.4Z" class="g1_322"/>
<path d="M298.4,434.6v0h.1h-.1Z" class="g2_322"/>
<path d="M298.5,434.6h-.1v-.5l.2,.5h-.1Z" class="g2_322"/>
<path d="M359.2,628.4L196.5,601.2L299,564.2l153.4,22.4l-93.2,41.8Z" class="g3_322"/>
<path d="M452.4,586.6L299,564.2l.1,-.1l-.2,-.5l154.4,22.6l-.9,.4Z" class="g1_322"/>
<path d="M196.5,601.2L299,564.2l-102.5,37Z" class="g2_322"/>
<path d="M359.4,629.5l-165,-27.6l2.1,-.7l162.7,27.2l93.2,-41.8l2,.3l-95,42.6ZM193.8,601.8l-1.5,-.3l1.5,-.5v.8Z" class="g3_322"/>
<path d="M454.4,586.9l-2,-.3l1.7,-.7l.4,.9l-.1,.1Z" class="g1_322"/>
<path d="M194.4,601.9l-.6,-.1V601L298.7,563.1l.2,.5l-.1,.6h.2L194.4,601.9Z" class="g2_322"/>
<path d="M299,564.2h-.2l.1,-.6l.2,.5l-.1,.1Z" class="g4_322"/>
<path d="M454.5,585.8l-95.8,43l.4,.8l95.7,-43l-.3,-.8Z" class="g5_322"/>
<path d="M441.3,632.9l-2.1,2.9l2.2,3h-1.1l-1.7,-2.3l-1.7,2.3h-1.1l2.2,-3.1l-2.1,-2.8h1.2l1.5,2.1l1.6,-2.1h1.1Z" class="g5_322"/>
<path d="M452.6,586.7L297.4,564l-.5,-129.5h-.8l.5,129.8c0,.2,.1,.4,.4,.4l155.5,22.8l.1,-.8Z" class="g6_322"/>
<path d="M416.8,602.8l-159,-24.6L256.6,444.1h-.9L257,578.6c0,.2,.1,.4,.3,.4l159.3,24.6l.2,-.8Z" class="g6_322"/>
<path d="M377.9,620.2L215.1,593.7L213,454.4h-.8L214.3,594c0,.2,.1,.4,.3,.4l163.2,26.7l.1,-.9Z" class="g6_322"/>
<path d="M450.8,587.3l4.8,.7l.1,-.8l-4.8,-.8l-.1,.9Z" class="g5_322"/>
<path d="M460.5,600c.8,0,1.5,.4,2,1.1c.4,.6,.7,1.6,.7,3c0,1.3,-.3,2.3,-.7,2.9c-.5,.7,-1.2,1.1,-2,1.1c-.9,0,-1.6,-.4,-2,-1.1c-.5,-.6,-.7,-1.6,-.7,-2.9c0,-1.4,.2,-2.4,.7,-3c.4,-.7,1.1,-1.1,2,-1.1Zm0,.9c-.6,0,-1,.2,-1.3,.8c-.2,.5,-.4,1.3,-.4,2.4c0,1,.2,1.8,.4,2.3c.3,.6,.7,.8,1.3,.8c.5,0,.9,-.2,1.2,-.8c.3,-.5,.4,-1.3,.4,-2.3c0,-1.1,-.1,-1.9,-.4,-2.4c-.3,-.6,-.7,-.8,-1.2,-.8Z" class="g5_322"/>
<path d="M465,607.9h1.1v-1.3H465Z" class="g5_322"/>
<path d="M470.6,600c.9,0,1.6,.4,2,1.1c.5,.6,.7,1.6,.7,3c0,1.3,-.2,2.3,-.7,2.9c-.4,.7,-1.1,1.1,-2,1.1c-.8,0,-1.5,-.4,-2,-1.1c-.4,-.6,-.6,-1.6,-.6,-2.9c0,-1.4,.2,-2.4,.6,-3c.5,-.7,1.2,-1.1,2,-1.1Zm0,.9c-.5,0,-.9,.2,-1.2,.8c-.2,.5,-.4,1.3,-.4,2.4c0,1,.2,1.8,.4,2.3c.3,.6,.7,.8,1.2,.8c.6,0,1,-.2,1.3,-.8c.2,-.5,.4,-1.3,.4,-2.3c0,-1.1,-.2,-1.9,-.4,-2.4c-.3,-.6,-.7,-.8,-1.3,-.8Z" class="g5_322"/>
<path d="M414.9,603.4l4.9,.7l.1,-.8l-4.9,-.8l-.1,.9Z" class="g5_322"/>
<path d="M425,616.7c.9,0,1.5,.3,2,1c.5,.7,.7,1.7,.7,3c0,1.3,-.2,2.3,-.7,3c-.5,.7,-1.1,1,-2,1c-.9,0,-1.5,-.3,-2,-1c-.5,-.7,-.7,-1.7,-.7,-3c0,-1.3,.2,-2.3,.7,-3c.5,-.7,1.1,-1,2,-1Zm0,.8c-.5,0,-.9,.3,-1.2,.8c-.3,.5,-.4,1.3,-.4,2.4c0,1.1,.1,1.9,.4,2.4c.3,.5,.7,.8,1.2,.8c.6,0,1,-.3,1.2,-.8c.3,-.5,.4,-1.3,.4,-2.4c0,-1.1,-.1,-1.9,-.4,-2.4c-.2,-.5,-.6,-.8,-1.2,-.8Z" class="g5_322"/>
<path d="M429.5,624.6h1.1v-1.3h-1.1Z" class="g5_322"/>
<path d="M432.9,616.8h4.2v.9h-3.2v1.9c.2,0,.3,-.1,.5,-.1c.1,0,.3,0,.4,0c.9,0,1.6,.2,2.1,.7c.5,.4,.8,1.1,.8,1.9c0,.8,-.3,1.5,-.8,2c-.6,.4,-1.3,.6,-2.2,.6c-.4,0,-.7,0,-1,0c-.4,-.1,-.7,-.2,-1.1,-.3v-1c.3,.1,.7,.3,1,.3c.3,.1,.7,.2,1,.2c.6,0,1.1,-.2,1.5,-.5c.3,-.3,.5,-.8,.5,-1.3c0,-.5,-.2,-1,-.5,-1.3c-.4,-.3,-.9,-.5,-1.5,-.5c-.2,0,-.5,.1,-.8,.1c-.3,.1,-.6,.2,-.9,.3v-3.9Z" class="g5_322"/>
<path d="M376,620.8l5,.8l.1,-.8l-5,-.9l-.1,.9Z" class="g5_322"/>
<path d="M384.5,641.8h1.7v-6l-1.8,.4v-.9l1.8,-.4h1.1v6.9H389v.9h-4.5v-.9Z" class="g5_322"/>
<path d="M391.1,642.7h1.1v-1.4h-1.1Z" class="g5_322"/>
<path d="M396.8,634.7c.8,0,1.5,.4,2,1.1c.4,.7,.6,1.7,.6,3c0,1.3,-.2,2.3,-.6,3c-.5,.7,-1.2,1,-2,1c-.9,0,-1.6,-.3,-2,-1c-.5,-.7,-.7,-1.7,-.7,-3c0,-1.3,.2,-2.3,.7,-3c.4,-.7,1.1,-1.1,2,-1.1Zm0,.9c-.6,0,-1,.2,-1.3,.8c-.2,.5,-.4,1.3,-.4,2.4c0,1,.2,1.8,.4,2.4c.3,.5,.7,.8,1.3,.8c.5,0,.9,-.3,1.2,-.8c.3,-.6,.4,-1.4,.4,-2.4c0,-1.1,-.1,-1.9,-.4,-2.4c-.3,-.6,-.7,-.8,-1.2,-.8Z" class="g5_322"/>
<path d="M193.9,601.7l165.7,27.8l.2,-.9L194,600.9l-.1,.8Z" class="g5_322"/>
<path d="M255.2,651.2c-.2,.7,-.5,1.1,-.8,1.4c-.2,.2,-.6,.3,-1,.3h-.8v-.8h.6c.3,0,.5,-.1,.6,-.2c.2,-.1,.3,-.4,.5,-.9l.2,-.4l-2.4,-5.8h1l1.8,4.6l1.9,-4.6h1l-2.6,6.4Z" class="g5_322"/>
<path d="M301,434.4l.4,129.4L197.3,601.5l.3,.8L302,564.5c.2,-.1,.3,-.3,.3,-.4l-.4,-129.7H301Z" class="g6_322"/>
<path d="M362.2,440.2l-.6,132.4L260.9,612.1l.3,.8L362.1,573.3c.2,-.1,.3,-.3,.3,-.4L363,440.3l-.8,-.1Z" class="g6_322"/>
<path d="M426.3,446.4l-1.8,135.4l-96.7,41.6l.4,.7l96.9,-41.6c.2,-.1,.3,-.3,.3,-.4l1.8,-135.7h-.9Z" class="g6_322"/>
<path d="M198.6,601l-3.5,1.3l.3,.8l3.5,-1.3l-.3,-.8Z" class="g5_322"/>
<path d="M183.4,616.6c.8,0,1.5,.3,2,1c.4,.7,.6,1.7,.6,3c0,1.3,-.2,2.3,-.6,3c-.5,.7,-1.2,1,-2,1c-.9,0,-1.6,-.3,-2,-1c-.5,-.7,-.7,-1.7,-.7,-3c0,-1.3,.2,-2.3,.7,-3c.4,-.7,1.1,-1,2,-1Zm0,.8c-.6,0,-1,.3,-1.3,.8c-.2,.5,-.4,1.3,-.4,2.4c0,1.1,.2,1.9,.4,2.4c.3,.5,.7,.8,1.3,.8c.5,0,.9,-.3,1.2,-.8c.3,-.5,.4,-1.3,.4,-2.4c0,-1.1,-.1,-1.9,-.4,-2.4c-.3,-.5,-.7,-.8,-1.2,-.8Z" class="g5_322"/>
<path d="M187.9,624.5H189v-1.3h-1.1Z" class="g5_322"/>
<path d="M193.5,616.6c.9,0,1.6,.3,2,1c.5,.7,.7,1.7,.7,3c0,1.3,-.2,2.3,-.7,3c-.4,.7,-1.1,1,-2,1c-.8,0,-1.5,-.3,-2,-1c-.4,-.7,-.6,-1.7,-.6,-3c0,-1.3,.2,-2.3,.6,-3c.5,-.7,1.2,-1,2,-1Zm0,.8c-.5,0,-.9,.3,-1.2,.8c-.3,.5,-.4,1.3,-.4,2.4c0,1.1,.1,1.9,.4,2.4c.3,.5,.7,.8,1.2,.8c.6,0,1,-.3,1.3,-.8c.2,-.5,.4,-1.3,.4,-2.4c0,-1.1,-.2,-1.9,-.4,-2.4c-.3,-.5,-.7,-.8,-1.3,-.8Z" class="g5_322"/>
<path d="M262.2,611.6l-3.5,1.4l.3,.8l3.5,-1.4l-.3,-.8Z" class="g5_322"/>
<path d="M247.2,627.7c.8,0,1.5,.3,2,1c.4,.7,.6,1.7,.6,3c0,1.3,-.2,2.3,-.6,3c-.5,.7,-1.2,1,-2,1c-.9,0,-1.6,-.3,-2,-1c-.5,-.7,-.7,-1.7,-.7,-3c0,-1.3,.2,-2.3,.7,-3c.4,-.7,1.1,-1,2,-1Zm0,.8c-.6,0,-1,.3,-1.3,.8c-.2,.5,-.4,1.3,-.4,2.4c0,1.1,.2,1.9,.4,2.4c.3,.5,.7,.8,1.3,.8c.5,0,.9,-.3,1.2,-.8c.3,-.5,.4,-1.3,.4,-2.4c0,-1.1,-.1,-1.9,-.4,-2.4c-.3,-.5,-.7,-.8,-1.2,-.8Z" class="g5_322"/>
<path d="M251.7,635.6h1.1v-1.3h-1.1Z" class="g5_322"/>
<path d="M255.1,627.8h4.1v.9h-3.1v1.9c.1,0,.3,-.1,.4,-.1c.2,0,.3,0,.5,0c.8,0,1.5,.2,2,.7c.5,.4,.8,1.1,.8,1.9c0,.8,-.3,1.5,-.8,1.9c-.5,.5,-1.2,.7,-2.2,.7c-.3,0,-.6,0,-1,0c-.3,-.1,-.7,-.2,-1,-.3v-1c.3,.1,.6,.2,.9,.3c.4,.1,.7,.2,1.1,.2c.6,0,1.1,-.2,1.4,-.5c.4,-.3,.5,-.8,.5,-1.3c0,-.5,-.1,-1,-.5,-1.3c-.3,-.3,-.8,-.5,-1.4,-.5c-.3,0,-.6,.1,-.8,.1c-.3,.1,-.6,.2,-.9,.3v-3.9Z" class="g5_322"/>
<path d="M329.1,622.8l-3.4,1.5l.4,.8l3.3,-1.5l-.3,-.8Z" class="g5_322"/>
<path d="M312.3,646.4H314v-5.9l-1.9,.3v-.9l1.9,-.4h1v6.9h1.7v.9h-4.4v-.9Z" class="g5_322"/>
<path d="M318.9,647.3H320V646h-1.1Z" class="g5_322"/>
<path d="M324.5,639.4c.9,0,1.5,.3,2,1c.5,.7,.7,1.7,.7,3c0,1.3,-.2,2.3,-.7,3c-.5,.7,-1.1,1,-2,1c-.9,0,-1.5,-.3,-2,-1c-.5,-.7,-.7,-1.7,-.7,-3c0,-1.3,.2,-2.3,.7,-3c.5,-.7,1.1,-1,2,-1Zm0,.8c-.5,0,-.9,.3,-1.2,.8c-.3,.5,-.4,1.3,-.4,2.4c0,1.1,.1,1.9,.4,2.4c.3,.5,.7,.8,1.2,.8c.5,0,1,-.3,1.2,-.8c.3,-.5,.4,-1.3,.4,-2.4c0,-1.1,-.1,-1.9,-.4,-2.4c-.2,-.5,-.7,-.8,-1.2,-.8Z" class="g5_322"/>
<path d="M194.8,601.8L192.3,458.9h-.9l2.5,142.9h.9Z" class="g5_322"/>
<path d="M143.5,530.4H148v.9l-3.6,4.2H148v.7h-4.7v-.8l3.6,-4.2h-3.4v-.8Z" class="g5_322"/>
<path d="M194.5,599L299,561.5l155.3,22.6l.1,-.9L299,560.7h-.2L194.2,598.2l.3,.8Z" class="g6_322"/>
<path d="M193.4,542.8L298.8,510.2l156.4,19.6l.1,-.8L298.8,509.3l-.2,.1L193.2,542l.2,.8Z" class="g6_322"/>
<path d="M192.4,485.7L298.6,458.2l157.6,16.6v-.9L298.6,457.3h-.2L192.2,484.9l.2,.8Z" class="g6_322"/>
<path d="M195.5,597.7l-3.6,1.3l.3,.8l3.6,-1.3l-.3,-.8Z" class="g5_322"/>
<path d="M167.7,600c.8,0,1.5,.3,2,1c.4,.7,.7,1.7,.7,3c0,1.3,-.3,2.3,-.7,3c-.5,.7,-1.2,1,-2,1c-.9,0,-1.6,-.3,-2,-1c-.5,-.7,-.7,-1.7,-.7,-3c0,-1.3,.2,-2.3,.7,-3c.4,-.7,1.1,-1,2,-1Zm0,.8c-.6,0,-1,.3,-1.2,.8c-.3,.6,-.5,1.4,-.5,2.4c0,1.1,.2,1.9,.5,2.4c.2,.5,.6,.8,1.2,.8c.5,0,.9,-.3,1.2,-.8c.3,-.5,.4,-1.3,.4,-2.4c0,-1,-.1,-1.8,-.4,-2.4c-.3,-.5,-.7,-.8,-1.2,-.8Z" class="g5_322"/>
<path d="M172.2,607.9h1.1v-1.3h-1.1Z" class="g5_322"/>
<path d="M177.9,600c.8,0,1.5,.3,2,1c.4,.7,.6,1.7,.6,3c0,1.3,-.2,2.3,-.6,3c-.5,.7,-1.2,1,-2,1c-.9,0,-1.6,-.3,-2,-1c-.5,-.7,-.7,-1.7,-.7,-3c0,-1.3,.2,-2.3,.7,-3c.4,-.7,1.1,-1,2,-1Zm0,.8c-.6,0,-1,.3,-1.3,.8c-.2,.6,-.4,1.4,-.4,2.4c0,1.1,.2,1.9,.4,2.4c.3,.5,.7,.8,1.3,.8c.5,0,.9,-.3,1.2,-.8c.3,-.5,.4,-1.3,.4,-2.4c0,-1,-.1,-1.8,-.4,-2.4c-.3,-.5,-.7,-.8,-1.2,-.8Z" class="g5_322"/>
<path d="M194.5,541.5l-3.6,1.2l.3,.8l3.6,-1.1l-.3,-.9Z" class="g5_322"/>
<path d="M166.5,543.6c.9,0,1.5,.4,2,1.1c.5,.7,.7,1.7,.7,3c0,1.3,-.2,2.3,-.7,3c-.5,.7,-1.1,1,-2,1c-.9,0,-1.5,-.3,-2,-1c-.5,-.7,-.7,-1.7,-.7,-3c0,-1.3,.2,-2.3,.7,-3c.5,-.7,1.1,-1.1,2,-1.1Zm0,.9c-.5,0,-.9,.2,-1.2,.8c-.3,.5,-.4,1.3,-.4,2.4c0,1,.1,1.8,.4,2.4c.3,.5,.7,.8,1.2,.8c.6,0,1,-.3,1.2,-.8c.3,-.6,.4,-1.4,.4,-2.4c0,-1.1,-.1,-1.9,-.4,-2.4c-.2,-.6,-.6,-.8,-1.2,-.8Z" class="g5_322"/>
<path d="M171,551.5h1.1v-1.3H171Z" class="g5_322"/>
<path d="M174.4,543.8h4.2v.9h-3.2v1.9c.2,-.1,.3,-.1,.5,-.2c.1,0,.3,0,.4,0c.9,0,1.6,.2,2.1,.7c.5,.5,.8,1.1,.8,1.9c0,.9,-.3,1.5,-.8,2c-.6,.5,-1.3,.7,-2.2,.7c-.4,0,-.7,0,-1,-.1c-.4,0,-.7,-.1,-1.1,-.2v-1.1c.3,.2,.7,.3,1,.4c.3,.1,.7,.1,1,.1c.6,0,1.1,-.1,1.5,-.5c.3,-.3,.5,-.7,.5,-1.3c0,-.5,-.2,-.9,-.5,-1.2c-.4,-.3,-.9,-.5,-1.5,-.5c-.2,0,-.5,0,-.8,.1c-.3,0,-.6,.1,-.9,.3v-3.9Z" class="g5_322"/>
<path d="M193.5,484.6l-3.6,.9l.2,.8l3.7,-.9l-.3,-.8Z" class="g5_322"/>
<path d="M163.3,493.4H165v-5.9l-1.9,.4v-1l1.9,-.3h1v6.8h1.7v.9h-4.4v-.9Z" class="g5_322"/>
<path d="M169.9,494.3H171V493h-1.1Z" class="g5_322"/>
<path d="M175.5,486.4c.9,0,1.5,.4,2,1.1c.5,.6,.7,1.6,.7,2.9c0,1.4,-.2,2.4,-.7,3c-.5,.7,-1.1,1.1,-2,1.1c-.9,0,-1.5,-.4,-2,-1.1c-.5,-.6,-.7,-1.6,-.7,-3c0,-1.3,.2,-2.3,.7,-2.9c.5,-.7,1.1,-1.1,2,-1.1Zm0,.8c-.5,0,-.9,.3,-1.2,.8c-.3,.6,-.4,1.4,-.4,2.4c0,1.1,.1,1.9,.4,2.4c.3,.6,.7,.8,1.2,.8c.5,0,1,-.2,1.2,-.8c.3,-.5,.4,-1.3,.4,-2.4c0,-1,-.1,-1.8,-.4,-2.4c-.2,-.5,-.7,-.8,-1.2,-.8Z" class="g5_322"/>
<path d="M298.8,458.5l.3,103.7h1.6l-.3,-103.7h-1.6Z" class="g7_322"/>
<path d="M298.8,458.7l2.8,13.4l1.6,-.3l-2.8,-13.4l-1.6,.3Z" class="g7_322"/>
<path d="M298.8,458.4l-2.8,15l1.6,.2l2.8,-14.9l-1.6,-.3Z" class="g7_322"/>
<path d="M423.3,579.4l-123.2,-18l-.3,1.6l123.3,17.9l.2,-1.5Z" class="g7_322"/>
<path d="M423.2,579.4l-17.4,1.3l.1,1.6l17.4,-1.4l-.1,-1.5Z" class="g7_322"/>
<path d="M423.5,579.4L406.2,573l-.6,1.5l17.4,6.4l.5,-1.5Z" class="g7_322"/>
<path d="M423.1,470.8l-1.6,-.2l-.1,1.6l1.6,.2l.1,-1.6Zm-3.2,-.3l-1.5,-.2l-.2,1.6l1.6,.1l.1,-1.5Zm-3.1,-.4l-1.6,-.1l-.2,1.5l1.6,.2l.2,-1.6Zm-3.2,-.3l-1.6,-.2l-.2,1.6l1.6,.2l.2,-1.6Zm-3.2,-.4l-1.6,-.1l-.2,1.6l1.6,.1l.2,-1.6Zm-3.2,-.3l-1.6,-.2l-.1,1.6l1.6,.2l.1,-1.6Zm-3.2,-.3l-1.5,-.2l-.2,1.6l1.6,.2l.1,-1.6Zm-3.1,-.4l-1.6,-.1l-.2,1.6l1.6,.1l.2,-1.6Zm-3.2,-.3l-1.6,-.2l-.2,1.6l1.6,.2l.2,-1.6Zm-3.2,-.3l-1.6,-.2l-.2,1.6l1.6,.2l.2,-1.6Zm-3.2,-.4l-1.6,-.1l-.1,1.6l1.5,.1l.2,-1.6Zm-3.2,-.3l-1.6,-.2l-.1,1.6l1.6,.2l.1,-1.6Zm-3.1,-.3l-1.6,-.2l-.2,1.6l1.6,.1l.2,-1.5Zm-3.2,-.4l-1.6,-.1l-.2,1.5l1.6,.2l.2,-1.6Zm-3.2,-.3l-1.6,-.2l-.2,1.6l1.6,.2l.2,-1.6Zm-3.2,-.3l-1.6,-.2l-.1,1.6l1.5,.1l.2,-1.5Zm-3.2,-.4l-1.6,-.2l-.1,1.6l1.6,.2l.1,-1.6Zm-3.2,-.3l-1.5,-.2l-.2,1.6l1.6,.2l.1,-1.6Zm-3.1,-.4l-1.6,-.1l-.2,1.6l1.6,.1l.2,-1.6Zm-3.2,-.3l-1.6,-.2l-.2,1.6l1.6,.2l.2,-1.6Zm-3.2,-.3l-1.6,-.2l-.2,1.6l1.6,.2l.2,-1.6Zm-3.2,-.4l-1.6,-.1l-.1,1.6l1.6,.1l.1,-1.6Zm-3.2,-.3l-1.6,-.2l-.1,1.6l1.6,.2l.1,-1.6Zm-3.1,-.3l-1.6,-.2l-.2,1.6l1.6,.2l.2,-1.6Zm-3.2,-.4l-1.6,-.1l-.2,1.5l1.6,.2l.2,-1.6Zm-3.2,-.3l-1.6,-.2l-.2,1.6l1.6,.2l.2,-1.6Zm-3.2,-.3l-1.6,-.2l-.1,1.6l1.5,.1l.2,-1.5Zm-3.2,-.4l-1.6,-.1l-.1,1.5l1.6,.2l.1,-1.6Zm-3.1,-.3l-1.6,-.2l-.2,1.6l1.6,.2l.2,-1.6Zm-3.2,-.4l-1.6,-.1l-.2,1.6l1.6,.1l.2,-1.6Zm-3.2,-.3l-1.6,-.2l-.2,1.6l1.6,.2l.2,-1.6Zm-3.2,-.3l-1.6,-.2l-.1,1.6l1.5,.2l.2,-1.6Zm-3.2,-.4l-1.6,-.1l-.1,1.6l1.6,.1l.1,-1.6Zm-3.2,-.3l-1.5,-.2l-.2,1.6l1.6,.2l.1,-1.6Zm-3.1,-.3l-1.6,-.2l-.2,1.6l1.6,.2l.2,-1.6Zm-3.2,-.4l-1.6,-.1l-.2,1.6l1.6,.1l.2,-1.6Zm-3.2,-.3l-1.6,-.2l-.2,1.6l1.6,.2l.2,-1.6Zm-3.2,-.3l-1.6,-.2l-.1,1.6l1.6,.1l.1,-1.5Zm-3.2,-.4l-1.6,-.1l-.1,1.5l1.6,.2l.1,-1.6Z" class="g7_322"/>
<path d="M423,471.1l-1.6,.2l.2,1.6l1.5,-.2l-.1,-1.6Zm-3.2,.4l-1.6,.2l.2,1.6l1.6,-.2l-.2,-1.6Zm-3.2,.4l-1.6,.2l.2,1.6l1.6,-.2l-.2,-1.6Zm-3.2,.4l-1.6,.2l.2,1.6l1.6,-.2l-.2,-1.6Zm-3.2,.4l-1.5,.1l.1,1.6l1.6,-.2l-.2,-1.5Zm-3.1,.3l-.2,.1l.2,1.5h.2l-.2,-1.6Z" class="g7_322"/>
<path d="M423.4,470.5l-1.5,-.5l-.6,1.5l1.6,.5l.5,-1.5Zm-3.1,-1l-1.5,-.5l-.5,1.5l1.5,.5l.5,-1.5Zm-3,-1l-1.5,-.5l-.5,1.5l1.5,.5l.5,-1.5Zm-3,-1l-1.6,-.5l-.5,1.5l1.6,.5l.5,-1.5Zm-3.1,-1l-1.5,-.5l-.5,1.5l1.5,.5l.5,-1.5Zm-3,-1l-.9,-.3l-.5,1.5l.9,.3l.5,-1.5Z" class="g7_322"/>
<path d="M423.8,473.3v1.6l1.6,.1v-1.6l-1.6,-.1Zm0,3.2v1.6l1.6,.1v-1.6l-1.6,-.1Zm-.1,3.2v1.6l1.6,.1v-1.6l-1.6,-.1Zm0,3.2v1.6l1.6,.1V483l-1.6,-.1Zm-.1,3.2v1.6l1.6,.1v-1.6l-1.6,-.1Zm0,3.2v1.6l1.6,.1v-1.6l-1.6,-.1Zm0,3.2l-.1,1.6l1.6,.1l.1,-1.6l-1.6,-.1Zm-.1,3.2v1.6l1.6,.1v-1.6l-1.6,-.1Zm0,3.2v1.6l1.6,.1V499l-1.6,-.1Zm-.1,3.2v1.6l1.6,.1v-1.6l-1.6,-.1Zm0,3.2v1.6l1.6,.1v-1.6l-1.6,-.1Zm0,3.2l-.1,1.6h1.6l.1,-1.6h-1.6Zm-.1,3.2v1.6h1.6v-1.6h-1.6Zm0,3.2v1.6h1.6v-1.6h-1.6Zm-.1,3.2v1.6h1.6v-1.6h-1.6Zm0,3.2v1.6h1.6v-1.6h-1.6Zm0,3.2l-.1,1.6h1.6l.1,-1.6h-1.6Zm-.1,3.2v1.6h1.6v-1.6h-1.6Zm0,3.2v1.6h1.5l.1,-1.6h-1.6Zm-.1,3.2v1.6h1.6v-1.6H423Zm0,3.2v1.6h1.6v-1.6H423Zm-.1,3.2v1.6h1.6v-1.6h-1.6Zm0,3.2v1.6h1.6v-1.6h-1.6Zm0,3.2l-.1,1.6h1.6l.1,-1.6h-1.6Zm-.1,3.2v1.6h1.6v-1.6h-1.6Zm0,3.2v1.6h1.6v-1.6h-1.6Zm-.1,3.2v1.6h1.6v-1.6h-1.6Zm0,3.2v1.6h1.6v-1.6h-1.6Zm0,3.2l-.1,1.6h1.6l.1,-1.6h-1.6Zm-.1,3.2v1.6h1.6v-1.6h-1.6Zm0,3.2v1.6h1.6v-1.6h-1.6Zm-.1,3.2v1.6h1.6v-1.6h-1.6Zm0,3.2v1.6h1.6v-1.6h-1.6Zm0,3.2l-.1,1.2l1.6,.1v-1.3h-1.5Z" class="g7_322"/>
<path d="M424.1,473.5l.3,1.5l1.6,-.2l-.3,-1.6l-1.6,.3Zm.6,3.1l.2,1.6l1.6,-.3l-.3,-1.6l-1.5,.3Zm.5,3.2l.3,1.5l1.5,-.2l-.2,-1.6l-1.6,.3Zm.5,3.1l.3,1.6l1.6,-.3l-.3,-1.5l-1.6,.2Z" class="g7_322"/>
<path d="M423.6,473.2l-.3,1.6l1.6,.2l.2,-1.5l-1.5,-.3Zm-.6,3.1l-.3,1.6l1.6,.3l.3,-1.6l-1.6,-.3Zm-.5,3.2l-.3,1.6l1.5,.2l.3,-1.5l-1.5,-.3Zm-.6,3.1l-.3,1.6l1.6,.3l.3,-1.6l-1.6,-.3Zm-.6,3.2l-.2,1.5l1.5,.3l.3,-1.5l-1.6,-.3Z" class="g7_322"/>
<path d="M218,592.5l82.2,-29.6l-.5,-1.5L217.5,591l.5,1.5Z" class="g7_322"/>
<path d="M217.7,592.6l12,-.4l-.1,-1.6l-11.9,.4v1.6Z" class="g7_322"/>
<path d="M218.2,592.4L230,584.2l-.9,-1.3l-11.8,8.2l.9,1.3Z" class="g7_322"/>
<path d="M217.8,480.7l1.6,-.4l-.4,-1.6l-1.6,.4l.4,1.6Zm3.1,-.8l1.6,-.4l-.4,-1.6l-1.6,.4l.4,1.6Zm3.1,-.8l1.6,-.4l-.4,-1.6l-1.6,.4l.4,1.6Zm3.1,-.8l1.6,-.4l-.4,-1.6l-1.6,.4l.4,1.6Zm3.1,-.8l1.6,-.4l-.4,-1.6l-1.6,.4l.4,1.6Zm3.1,-.9l1.6,-.4l-.4,-1.5l-1.6,.4l.4,1.5Zm3.1,-.8l1.6,-.4l-.4,-1.5l-1.6,.4l.4,1.5Zm3.1,-.8l1.6,-.4l-.4,-1.5l-1.6,.4l.4,1.5Zm3.1,-.8l1.6,-.4l-.5,-1.5l-1.5,.4l.4,1.5Zm3.1,-.8l1.5,-.4l-.4,-1.5l-1.5,.4l.4,1.5Zm3.1,-.8l1.5,-.4l-.4,-1.5l-1.5,.4l.4,1.5Zm3.1,-.8l1.5,-.4l-.4,-1.5l-1.5,.4l.4,1.5ZM255,471l1.5,-.4l-.4,-1.6l-1.5,.5l.4,1.5Zm3.1,-.8l1.5,-.4l-.4,-1.6l-1.5,.4l.4,1.6Zm3.1,-.8l1.5,-.4l-.4,-1.6l-1.5,.4l.4,1.6Zm3.1,-.8l1.5,-.4l-.4,-1.6l-1.5,.4l.4,1.6Zm3.1,-.8l1.5,-.4l-.4,-1.6l-1.5,.4l.4,1.6Zm3.1,-.8l1.5,-.4l-.4,-1.6l-1.5,.4l.4,1.6Zm3.1,-.8l1.5,-.4l-.4,-1.6l-1.5,.4l.4,1.6Zm3.1,-.9l1.5,-.4l-.4,-1.5l-1.5,.4l.4,1.5Zm3.1,-.8l1.5,-.4l-.4,-1.5l-1.6,.4l.5,1.5Zm3,-.8l1.6,-.4l-.4,-1.5l-1.6,.4l.4,1.5Zm3.1,-.8l1.6,-.4l-.4,-1.5l-1.6,.4l.4,1.5Zm3.1,-.8l1.6,-.4l-.4,-1.5l-1.6,.4l.4,1.5Zm3.1,-.8l1.6,-.4l-.4,-1.5l-1.6,.4l.4,1.5Zm3.1,-.8l1.6,-.4l-.4,-1.5l-1.6,.4l.4,1.5Zm3.1,-.8l1.5,-.4l-.4,-1.5l-1.5,.4l.4,1.5Z" class="g7_322"/>
<path d="M217.6,481.2l1.6,.2l.1,-1.6l-1.6,-.2l-.1,1.6Zm3.2,.3l1.6,.1l.1,-1.6l-1.6,-.1l-.1,1.6Zm3.2,.2l1.6,.1l.1,-1.6l-1.6,-.1l-.1,1.6Zm3.2,.3h.9l.2,-1.6h-1l-.1,1.6Z" class="g7_322"/>
<path d="M217.9,480.2l1.3,-.8l-.8,-1.4l-1.3,.8l.8,1.4Zm2.7,-1.7l1.4,-.8l-.8,-1.4l-1.4,.9l.8,1.3Zm2.8,-1.6l1.3,-.8l-.8,-1.4l-1.4,.8l.9,1.4Zm2.7,-1.7l1.4,-.8l-.8,-1.4l-1.4,.9l.8,1.3Z" class="g7_322"/>
<path d="M215.3,481.9v1.6h1.6v-1.6h-1.6Zm.1,3.2v1.6H217v-1.6h-1.6Zm0,3.2v1.6H217v-1.6h-1.6Zm.1,3.2v1.6h1.6v-1.6h-1.6Zm0,3.2v1.6h1.6v-1.6h-1.6Zm0,3.2l.1,1.6h1.6l-.1,-1.6h-1.6Zm.1,3.2v1.6h1.6v-1.6h-1.6Zm0,3.2l.1,1.6h1.6l-.1,-1.6h-1.6Zm.1,3.2v1.6h1.6v-1.6h-1.6Zm0,3.2l.1,1.6h1.6l-.1,-1.6h-1.6Zm.1,3.2v1.6h1.6v-1.6h-1.6Zm0,3.2l.1,1.6h1.6l-.1,-1.6h-1.6Zm.1,3.2v1.6h1.6v-1.6h-1.6Zm0,3.2v1.6h1.6v-1.6h-1.6Zm.1,3.2v1.6h1.6v-1.6H216Zm0,3.2v1.6h1.6v-1.6H216Zm.1,3.2v1.6h1.6v-1.6h-1.6Zm0,3.2v1.6h1.6v-1.6h-1.6Zm.1,3.2v1.6h1.6v-1.6h-1.6Zm0,3.2v1.6h1.6v-1.6h-1.6Zm.1,3.2v1.6h1.6v-1.6h-1.6Zm0,3.2v1.6h1.6v-1.6h-1.6Zm0,3.2l.1,1.6H218l-.1,-1.6h-1.6Zm.1,3.2v1.6H218v-1.6h-1.6Zm0,3.2l.1,1.6h1.6l-.1,-1.6h-1.6Zm.1,3.2v1.6h1.6v-1.6h-1.6Zm0,3.2l.1,1.6h1.6l-.1,-1.6h-1.6Zm.1,3.2v1.6h1.6v-1.6h-1.6Zm0,3.2v1.6h1.7l-.1,-1.6h-1.6Zm.1,3.2v1.6h1.6v-1.6h-1.6Zm0,3.2v1.6h1.6v-1.6h-1.6Zm.1,3.2v1.6h1.6v-1.6h-1.6Zm0,3.2v1.6h1.6v-1.6h-1.6Zm.1,3.2v1.6h1.6v-1.6h-1.6Zm0,3.2v1.1h1.6v-1.1h-1.6Z" class="g7_322"/>
<path d="M215.7,482.1l.4,1.5l1.5,-.4l-.4,-1.5l-1.5,.4Zm.7,3.1l.4,1.5l1.6,-.4l-.4,-1.5l-1.6,.4Zm.8,3.1l.4,1.5l1.5,-.3l-.4,-1.6l-1.5,.4Zm.7,3.1l.4,1.5l1.6,-.3l-.4,-1.6l-1.6,.4Zm.8,3.1l.1,.4l1.5,-.4v-.4l-1.6,.4Z" class="g7_322"/>
<path d="M215,481.7l-.3,1.6l1.6,.3l.3,-1.6l-1.6,-.3Zm-.6,3.2l-.3,1.6l1.6,.3l.3,-1.6l-1.6,-.3Zm-.6,3.1l-.3,1.6l1.6,.3l.3,-1.6l-1.6,-.3Zm-.6,3.2l-.3,1.5l1.6,.3l.3,-1.5l-1.6,-.3Zm-.6,3.1l-.3,1.6l1.6,.3l.3,-1.6l-1.6,-.3Z" class="g7_322"/>
<path d="M348.7,612.8l1.5,-.6l-.6,-1.5l-1.5,.7l.6,1.4Zm3,-1.2l1.4,-.6l-.6,-1.5l-1.5,.6l.7,1.5Zm2.9,-1.3l1.5,-.6l-.6,-1.5l-1.5,.7l.6,1.4Zm3,-1.2l1.4,-.7l-.6,-1.4l-1.5,.6l.7,1.5Zm2.9,-1.3l1.5,-.6l-.7,-1.5l-1.4,.6l.6,1.5Zm2.9,-1.2l1.5,-.7l-.6,-1.4l-1.5,.6l.6,1.5Zm3,-1.3l1.4,-.6l-.6,-1.5l-1.5,.6l.7,1.5Zm2.9,-1.3l1.5,-.6l-.6,-1.5l-1.5,.7l.6,1.4Zm3,-1.2l1.4,-.6l-.6,-1.5l-1.5,.6l.7,1.5Zm2.9,-1.3l1.5,-.6l-.7,-1.5l-1.4,.7l.6,1.4Zm2.9,-1.2l1.5,-.7l-.6,-1.4l-1.5,.6l.6,1.5Zm3,-1.3l1.5,-.6l-.7,-1.5l-1.4,.6l.6,1.5Zm2.9,-1.2l1.5,-.7l-.6,-1.4l-1.5,.6l.6,1.5Zm3,-1.3l1.4,-.6l-.6,-1.5l-1.5,.6l.7,1.5Zm2.9,-1.2l1.5,-.7l-.6,-1.4l-1.5,.6l.6,1.5Zm3,-1.3l1.4,-.6l-.6,-1.5l-1.5,.6l.7,1.5Zm2.9,-1.3l1.5,-.6l-.7,-1.5l-1.4,.7l.6,1.4Zm2.9,-1.2l1.5,-.6l-.6,-1.5l-1.5,.6l.6,1.5Zm3,-1.3l1.5,-.6l-.7,-1.5l-1.4,.7l.6,1.4Zm2.9,-1.2l1.5,-.7l-.6,-1.4l-1.5,.6l.6,1.5Zm3,-1.3l1.4,-.6l-.6,-1.5l-1.5,.6l.7,1.5Zm2.9,-1.2l1.5,-.7l-.7,-1.4l-1.4,.6l.6,1.5Zm2.9,-1.3l1.5,-.6l-.6,-1.5l-1.5,.6l.6,1.5Zm3,-1.3l1.5,-.6l-.7,-1.5l-1.4,.7l.6,1.4Zm2.9,-1.2l1.5,-.6l-.6,-1.5l-1.5,.6l.6,1.5Zm3,-1.3l1.2,-.5l-.6,-1.5l-1.3,.6l.7,1.4Z" class="g7_322"/>
<path d="M348.6,613.4h1.6l-.1,-1.6l-1.6,.1l.1,1.5Zm3.2,-.1l1.6,-.1l-.1,-1.6l-1.6,.1l.1,1.6Zm3.2,-.2l1.6,-.1l-.1,-1.6l-1.6,.1l.1,1.6Z" class="g7_322"/>
<path d="M348.7,612.4l1.2,-1l-1,-1.3l-1.2,1l1,1.3Zm2.5,-2l1.2,-1l-1,-1.3l-1.2,1l1,1.3Zm2.5,-2l1.2,-1l-1,-1.3l-1.2,1l1,1.3Zm2.5,-2l1.2,-1l-1,-1.3l-1.2,1l1,1.3Z" class="g7_322"/>
<path d="M345.5,611.7l-1.6,-.3l-.2,1.6l1.5,.3l.3,-1.6Zm-3.2,-.5l-1.5,-.3l-.3,1.6l1.6,.3l.2,-1.6Zm-3.1,-.5l-1.6,-.3l-.3,1.6l1.6,.2l.3,-1.5Zm-3.2,-.5l-1.6,-.3l-.2,1.6l1.6,.2l.2,-1.5Zm-3.1,-.6l-1.6,-.2L331,611l1.6,.2l.3,-1.6Zm-3.2,-.5l-1.6,-.2l-.2,1.6l1.5,.2l.3,-1.6Zm-3.2,-.5l-1.5,-.2l-.3,1.5l1.6,.3l.2,-1.6Zm-3.1,-.5l-1.6,-.3l-.2,1.6l1.5,.3l.3,-1.6Zm-3.2,-.5l-1.5,-.3l-.3,1.6l1.6,.3l.2,-1.6Zm-3.1,-.5l-1.6,-.3l-.3,1.6l1.6,.3l.3,-1.6Zm-3.2,-.5l-1.6,-.3l-.2,1.6l1.6,.2l.2,-1.5Zm-3.1,-.5l-1.6,-.3l-.3,1.6l1.6,.2l.3,-1.5Zm-3.2,-.6l-1.6,-.2l-.2,1.6l1.5,.2l.3,-1.6Zm-3.2,-.5l-1.5,-.2l-.3,1.6l1.6,.2l.2,-1.6Zm-3.1,-.5l-1.6,-.2l-.3,1.5l1.6,.3l.3,-1.6Zm-3.2,-.5l-1.6,-.2l-.2,1.5l1.6,.3l.2,-1.6Zm-3.1,-.5l-1.6,-.3l-.3,1.6l1.6,.3l.3,-1.6Zm-3.2,-.5l-1.6,-.3l-.2,1.6l1.6,.3l.2,-1.6Zm-3.1,-.5l-1.6,-.3l-.3,1.6l1.6,.2l.3,-1.5Zm-3.2,-.5l-1.6,-.3l-.2,1.6l1.5,.2l.3,-1.5Zm-3.2,-.6l-1.5,-.2l-.3,1.6l1.6,.2l.2,-1.6Zm-3.1,-.5l-1.6,-.2l-.3,1.6l1.6,.2l.3,-1.6Zm-3.2,-.5l-1.6,-.2l-.2,1.5l1.6,.3l.2,-1.6Zm-3.1,-.5l-1.6,-.2l-.3,1.5l1.6,.3l.3,-1.6Zm-3.2,-.5l-1.6,-.3l-.2,1.6l1.5,.3l.3,-1.6Zm-3.2,-.5l-1.5,-.3l-.3,1.6l1.6,.3l.2,-1.6Zm-3.1,-.5l-1.6,-.3l-.2,1.6l1.5,.3l.3,-1.6Zm-3.2,-.5l-1.5,-.3l-.3,1.6l1.6,.2l.2,-1.5Zm-3.1,-.6l-1.6,-.2l-.3,1.6l1.6,.2l.3,-1.6Zm-3.2,-.5l-1.6,-.2l-.2,1.6l1.6,.2l.2,-1.6Zm-3.1,-.5l-1.6,-.2l-.3,1.5l1.6,.3l.3,-1.6Zm-3.2,-.5l-1.6,-.2l-.2,1.5l1.5,.3l.3,-1.6Zm-3.2,-.5l-1.5,-.3l-.3,1.6l1.6,.3l.2,-1.6Zm-3.1,-.5l-1.6,-.3l-.2,1.6l1.5,.3l.3,-1.6Zm-3.2,-.5l-1.6,-.3l-.2,1.6l1.6,.3l.2,-1.6Zm-3.1,-.5l-1.6,-.3l-.3,1.6l1.6,.2l.3,-1.5Zm-3.2,-.6l-1.6,-.2l-.2,1.6l1.6,.2l.2,-1.6Zm-3.1,-.5l-1.6,-.2l-.3,1.6l1.6,.2l.3,-1.6Zm-3.2,-.5l-1.6,-.2l-.2,1.5l1.5,.3l.3,-1.6Zm-3.2,-.5l-1.5,-.2l-.3,1.5l1.6,.3l.2,-1.6Zm-3.1,-.5l-1.3,-.2l-.3,1.6l1.3,.2l.3,-1.6Z" class="g7_322"/>
<path d="M345.3,612l-1.6,.1l.1,1.6l1.6,-.1l-.1,-1.6Zm-3.2,.2l-1.6,.2l.1,1.5l1.6,-.1l-.1,-1.6Zm-3.2,.3l-1.6,.1l.1,1.6l1.6,-.1l-.1,-1.6Zm-3.2,.2l-1.6,.1l.1,1.6l1.6,-.1l-.1,-1.6Zm-3.2,.2l-1.6,.1l.1,1.6l1.6,-.1l-.1,-1.6Zm-3.2,.2h-.7l.1,1.6h.7l-.1,-1.6Z" class="g7_322"/>
<path d="M345.7,611.4l-1.4,-.6l-.6,1.5l1.5,.6l.5,-1.5Zm-2.9,-1.2l-1.5,-.5l-.6,1.5l1.5,.5l.6,-1.5Zm-3,-1.1l-1.5,-.6l-.6,1.5l1.5,.6l.6,-1.5Zm-3,-1.2l-1.5,-.6l-.6,1.5l1.5,.6l.6,-1.5Zm-3,-1.1l-1.5,-.6l-.6,1.5l1.5,.6l.6,-1.5Zm-3,-1.2l-1.5,-.6l-.5,1.5l1.5,.6l.5,-1.5Z" class="g7_322"/>
<path d="M345.8,494.8l-1.6,-.2l-.2,1.6l1.6,.2l.2,-1.6Zm-3.2,-.4l-1.6,-.2l-.2,1.6l1.6,.2l.2,-1.6Zm-3.2,-.4l-1.6,-.1l-.2,1.5l1.6,.2l.2,-1.6Zm-3.2,-.3l-1.6,-.2l-.1,1.6l1.5,.2l.2,-1.6Zm-3.1,-.4l-1.6,-.2l-.2,1.6l1.6,.2l.2,-1.6Zm-3.2,-.4l-1.6,-.2l-.2,1.6l1.6,.2l.2,-1.6Zm-3.2,-.4l-1.6,-.1l-.2,1.5l1.6,.2l.2,-1.6Zm-3.2,-.3l-1.6,-.2l-.1,1.6l1.5,.2l.2,-1.6Zm-3.2,-.4l-1.5,-.2l-.2,1.6l1.6,.2l.1,-1.6Zm-3.1,-.4l-1.6,-.2l-.2,1.6l1.6,.2l.2,-1.6ZM314,491l-1.6,-.1l-.2,1.5l1.6,.2L314,491Zm-3.2,-.3l-1.6,-.2l-.2,1.6l1.6,.2l.2,-1.6Zm-3.2,-.4l-1.5,-.2l-.2,1.6l1.6,.2l.1,-1.6Zm-3.1,-.4l-1.6,-.2l-.2,1.6l1.6,.2l.2,-1.6Zm-3.2,-.4l-1.6,-.1l-.2,1.5l1.6,.2l.2,-1.6Zm-3.2,-.3l-1.6,-.2l-.2,1.6l1.6,.2l.2,-1.6Zm-3.2,-.4l-1.6,-.2l-.1,1.6l1.5,.2l.2,-1.6Zm-3.1,-.4l-1.6,-.2l-.2,1.6l1.6,.2l.2,-1.6Zm-3.2,-.4l-1.6,-.1l-.2,1.5l1.6,.2l.2,-1.6Zm-3.2,-.3l-1.6,-.2l-.2,1.6l1.6,.2l.2,-1.6Zm-3.2,-.4l-1.6,-.2l-.2,1.6l1.6,.2l.2,-1.6Zm-3.2,-.4l-1.5,-.2l-.2,1.6l1.6,.2l.1,-1.6Zm-3.1,-.3l-1.6,-.2l-.2,1.6l1.6,.1l.2,-1.5Zm-3.2,-.4l-1.6,-.2l-.2,1.6l1.6,.2l.2,-1.6Zm-3.2,-.4l-1.6,-.2l-.2,1.6l1.6,.2l.2,-1.6Zm-3.2,-.4l-1.5,-.2l-.2,1.6l1.6,.2l.1,-1.6Zm-3.1,-.3l-1.6,-.2l-.2,1.6l1.6,.1l.2,-1.5Zm-3.2,-.4l-1.6,-.2l-.2,1.6l1.6,.2l.2,-1.6Zm-3.2,-.4l-1.6,-.2l-.2,1.6l1.6,.2l.2,-1.6Zm-3.2,-.4l-1.6,-.2l-.1,1.6l1.5,.2l.2,-1.6Zm-3.1,-.3l-1.6,-.2l-.2,1.6l1.6,.1l.2,-1.5Zm-3.2,-.4l-1.6,-.2l-.2,1.6l1.6,.2l.2,-1.6Zm-3.2,-.4l-1.6,-.2l-.2,1.6l1.6,.2l.2,-1.6Zm-3.2,-.4l-1.6,-.2l-.2,1.6l1.6,.2l.2,-1.6Zm-3.2,-.3l-1.5,-.2l-.2,1.6l1.6,.1l.1,-1.5Zm-3.1,-.4l-1.6,-.2l-.2,1.6l1.6,.2l.2,-1.6Zm-3.2,-.4l-1.6,-.2l-.2,1.6l1.6,.2l.2,-1.6Zm-3.2,-.4l-1.6,-.2l-.2,1.6l1.6,.2l.2,-1.6Zm-3.2,-.3l-1.6,-.2l-.1,1.6l1.6,.2l.1,-1.6Zm-3.1,-.4l-1.6,-.2l-.2,1.6l1.6,.2l.2,-1.6Zm-3.2,-.4l-1.6,-.2l-.2,1.6l1.6,.2l.2,-1.6Z" class="g7_322"/>
<path d="M345.6,495.2l-1.6,.1l.2,1.6l1.6,-.2l-.2,-1.5Zm-3.2,.3l-1.6,.2l.2,1.6l1.6,-.2l-.2,-1.6Zm-3.2,.4l-1.6,.1l.2,1.6l1.6,-.1l-.2,-1.6Zm-3.2,.3l-1.5,.2l.1,1.6l1.6,-.2l-.2,-1.6Zm-3.1,.4l-1.6,.2l.2,1.6l1.5,-.2l-.1,-1.6Zm-3.2,.3l-1.1,.2l.2,1.6l1.1,-.2l-.2,-1.6Z" class="g7_322"/>
<path d="M346,494.5l-1.5,-.5l-.5,1.5l1.5,.5l.5,-1.5Zm-3,-1.1l-1.5,-.5l-.5,1.5l1.5,.5l.5,-1.5Zm-3,-1l-1.5,-.5l-.6,1.5l1.5,.5l.6,-1.5Zm-3,-1.1l-1.6,-.5l-.5,1.5l1.5,.5l.6,-1.5Zm-3.1,-1l-1.5,-.6l-.5,1.6l1.5,.5l.5,-1.5Zm-3,-1.1l-1.5,-.5l-.5,1.5l1.5,.5l.5,-1.5Z" class="g7_322"/>
<path d="M349,496.1l1.6,-.5l-.5,-1.5l-1.5,.4l.4,1.6Zm3.1,-1l1.5,-.5l-.5,-1.5l-1.5,.5l.5,1.5Zm3,-.9l1.6,-.5l-.5,-1.5l-1.5,.4l.4,1.6Zm3.1,-1l1.5,-.5l-.5,-1.5l-1.5,.5l.5,1.5Zm3,-.9l1.6,-.5l-.5,-1.5l-1.5,.4l.4,1.6Zm3.1,-1l1.5,-.5l-.4,-1.5l-1.6,.5l.5,1.5Zm3.1,-.9l1.5,-.5l-.5,-1.5l-1.5,.4l.5,1.6Zm3,-1l1.5,-.5l-.4,-1.5l-1.6,.5l.5,1.5Zm3.1,-.9L375,488l-.5,-1.5l-1.5,.4l.5,1.6Zm3,-1l1.6,-.5l-.5,-1.5L376,486l.5,1.5Zm3.1,-.9l1.5,-.5l-.5,-1.5l-1.5,.4l.5,1.6Zm3,-1l1.6,-.4l-.5,-1.6l-1.5,.5l.4,1.5Zm3.1,-.9l1.5,-.5l-.5,-1.5l-1.5,.5l.5,1.5Zm3,-1l1.6,-.4l-.5,-1.6l-1.5,.5l.4,1.5Zm3.1,-.9l1.5,-.5l-.4,-1.5l-1.6,.5l.5,1.5Zm3.1,-1l1.5,-.4l-.5,-1.6l-1.5,.5l.5,1.5Zm3,-.9l1.5,-.5l-.4,-1.5l-1.6,.5l.5,1.5Zm3.1,-1l1.5,-.4l-.5,-1.6l-1.5,.5l.5,1.5Zm3,-.9l1.5,-.5l-.4,-1.5l-1.6,.5l.5,1.5Zm3.1,-1l1.5,-.4l-.5,-1.6l-1.5,.5l.5,1.5Zm3,-.9l1.6,-.5l-.5,-1.5l-1.5,.5l.4,1.5Zm3.1,-1l1.5,-.4l-.5,-1.6l-1.5,.5l.5,1.5Zm3,-.9l1.6,-.5l-.5,-1.5l-1.5,.5l.4,1.5Zm3.1,-1l1.5,-.4l-.5,-1.6l-1.5,.5l.5,1.5Zm3,-.9l1.6,-.5l-.5,-1.5l-1.5,.5l.4,1.5Z" class="g7_322"/>
<path d="M348.8,496.7l1.6,.1l.1,-1.6l-1.6,-.1l-.1,1.6Zm3.2,.2l1.6,.1l.1,-1.6l-1.6,-.1l-.1,1.6Zm3.2,.2l1.6,.1l.1,-1.6l-1.6,-.1l-.1,1.6Zm3.2,.2v0l.1,-1.6l-.1,1.6Z" class="g7_322"/>
<path d="M349,495.5l1.3,-.9l-.9,-1.3l-1.3,.9l.9,1.3Zm2.7,-1.8l1.3,-.9l-.9,-1.3l-1.3,.9l.9,1.3Zm2.6,-1.8l1.3,-.9l-.9,-1.3l-1.3,.9l.9,1.3Zm2.6,-1.8l1.3,-.9l-.9,-1.3l-1.3,.9l.9,1.3Z" class="g7_322"/>
<path d="M346.5,497.4V499h1.6v-1.6h-1.6Zm-.1,3.2v1.6H348v-1.6h-1.6Zm0,3.2v1.6H348v-1.6h-1.6Zm0,3.2v1.6H348V507h-1.6Zm0,3.2v1.6H348v-1.6h-1.6Zm0,3.2V515H348v-1.6h-1.6Zm0,3.2v1.6H348v-1.6h-1.6Zm0,3.2v1.6H348v-1.6h-1.6Zm0,3.2v1.6H348V523h-1.6Zm0,3.2v1.6H348v-1.6h-1.6Zm0,3.2V531H348v-1.6h-1.6Zm0,3.2v1.6H348v-1.6h-1.6Zm0,3.2l-.1,1.6h1.6l.1,-1.6h-1.6Zm-.1,3.2v1.6h1.6V539h-1.6Zm0,3.2v1.6h1.6v-1.6h-1.6Zm0,3.2V547h1.6v-1.6h-1.6Zm0,3.2v1.5l1.6,.1v-1.6h-1.6Zm0,3.1v1.6l1.6,.1v-1.6l-1.6,-.1Zm0,3.2v1.6l1.6,.1V555l-1.6,-.1Zm0,3.2v1.6l1.6,.1v-1.6l-1.6,-.1Zm0,3.2v1.6h1.6v-1.5l-1.6,-.1Zm0,3.2v1.6h1.6v-1.6h-1.6Zm0,3.2v1.6h1.6v-1.6h-1.6Zm0,3.2v1.6h1.6v-1.6h-1.6Zm-.1,3.2v1.6h1.6v-1.6h-1.6Zm0,3.2v1.6h1.6v-1.6h-1.6Zm0,3.2v1.6h1.6v-1.6h-1.6Zm0,3.2v1.6h1.6v-1.6h-1.6Zm0,3.2v1.6h1.6v-1.6h-1.6Zm0,3.2v1.6h1.6v-1.6h-1.6Zm0,3.2v1.6h1.6v-1.6h-1.6Zm0,3.2v1.6h1.6v-1.6h-1.6Zm0,3.2v1.6h1.6v-1.6h-1.6Zm0,3.2v1.6h1.6v-1.6h-1.6Zm0,3.2v1.6h1.6v-1.6h-1.6Zm0,3.2l-.1,1.6h1.6l.1,-1.6h-1.6Zm-.1,3.2v.2h1.6v-.2h-1.6Z" class="g7_322"/>
<path d="M346.8,497.5l.3,1.6l1.6,-.3l-.3,-1.6l-1.6,.3Zm.6,3.1l.3,1.6l1.6,-.3l-.3,-1.6l-1.6,.3Zm.6,3.2l.3,1.5l1.6,-.3l-.3,-1.5l-1.6,.3Zm.6,3.1l.4,1.6l1.5,-.3l-.3,-1.6l-1.6,.3Zm.7,3.1l.2,1l1.5,-.3l-.2,-1l-1.5,.3Z" class="g7_322"/>
<path d="M346.2,497.2l-.3,1.6l1.6,.3l.3,-1.6l-1.6,-.3Zm-.6,3.1l-.3,1.6l1.6,.3l.3,-1.6l-1.6,-.3Zm-.6,3.2l-.2,1.6l1.5,.3l.3,-1.6l-1.6,-.3Zm-.5,3.1l-.3,1.6l1.6,.3l.3,-1.6l-1.6,-.3Zm-.6,3.2l-.3,1.6l1.6,.2l.3,-1.5l-1.6,-.3Z" class="g7_322"/>
</svg>