<?xml version="1.0" encoding="UTF-8" standalone="no"?>
<!DOCTYPE svg PUBLIC "-//W3C//DTD SVG 1.1//EN"
"http://www.w3.org/Graphics/SVG/1.1/DTD/svg11.dtd">
<svg viewBox="0 0 811 1017" version="1.1" xmlns="http://www.w3.org/2000/svg" xmlns:xlink="http://www.w3.org/1999/xlink">
<defs>
<clipPath id="c0_141"><path d="M376.7,627.2V409.5H667V627.2Z"/></clipPath>
<clipPath id="c1_141"><path d="M157.5,627.2V409.5H328.6V627.2Z"/></clipPath>
<style type="text/css"><![CDATA[
.g0_141{
fill: #040504;
}
.g1_141{
fill: #0E0E0E;
}
]]></style>
</defs>
<image clip-path="url(#c0_141)" preserveAspectRatio="none" x="377" y="410" width="290" height="217" xlink:href="img/1.jpg"/>
<image clip-path="url(#c1_141)" preserveAspectRatio="none" x="157" y="410" width="172" height="217" xlink:href="img/2.jpg"/>
<path d="M244.6,496.3L498.7,462l-.1,-.7L244.5,495.5l.1,.8Z" class="g0_141"/>
<path d="M497.4,464l7.9,-3.2l-8.5,-1.1l.6,4.3Z" class="g0_141"/>
<path d="M410.2,840.1c0,0,-.1,-.1,-.1,-.1c0,0,-.1,0,-.1,.1c-4.8,5.3,-5.3,19.1,-5.3,20.7v.7h1.4v-.7c0,-1.2,.8,-14.9,3.9,-20.3c.1,-.2,.2,-.3,.2,-.4Z" class="g1_141"/>
<path d="M404.7,870.7h1.4v-9.6h-1.4Z" class="g1_141"/>
<path d="M410.2,891.9c0,-.1,-.1,-.2,-.2,-.4c-3.1,-5.4,-3.9,-19.1,-3.9,-20.3v-.7h-1.4v.7c0,1.6,.5,15.4,5.3,20.7c0,.1,.1,.1,.1,.1c0,0,.1,-.1,.1,-.1Z" class="g1_141"/>
<path d="M414.6,838.6v.2c.4,0,.8,.1,1,.1c.3,.2,.3,.3,.3,.8v4.7c0,.3,0,.5,0,.6c-.1,.5,-.7,.5,-1.2,.6v.1h3.4v-.1c-.3,0,-.9,-.1,-1,-.3c-.2,-.2,-.2,-.5,-.2,-.9v-6.3c-.6,.3,-1.5,.5,-2.3,.5Z" class="g1_141"/>
<path d="M412.4,848.2h7.7v-.8h-7.7Z" class="g1_141"/>
<path d="M416.3,854.9c0,-.2,-.1,-.6,-.1,-.7c0,-.2,0,-.4,0,-.6c.1,-.3,.3,-1.1,.6,-1.1c.1,0,.1,.4,.1,.6c0,.6,-.4,1.4,-.6,1.8Zm-2,-2.2c0,0,-1.3,1.7,-1.3,3c0,.6,.4,1.1,1.1,1.1c.7,0,1.2,-.4,1.6,-.9c.2,.5,.5,.9,1.1,.9c1.6,0,2.5,-2.9,2.6,-3.9c0,-.5,-.1,-.9,-.6,-.9c-.3,0,-.4,.2,-.4,.5c0,.5,.3,.9,.3,1.5c0,.7,-.8,2.5,-1.7,2.5c-.4,0,-.6,-.8,-.7,-1.3c.4,-.4,.6,-.9,.8,-1.4c.2,-.4,.3,-.7,.3,-1c0,-.4,-.2,-.8,-.5,-.8c-.2,0,-.4,.1,-.5,.2c-.5,.5,-.8,1.4,-.8,2.4c0,.1,0,.2,0,.3c0,.2,.1,.6,.1,.7c-.2,.3,-.5,.5,-.7,.7c-.2,.2,-.4,.2,-.6,.2c-.4,0,-.5,-.4,-.5,-.9c0,-1.3,.4,-2.2,.9,-3.1c.1,-.1,.3,-.3,.3,-.4c0,0,0,-.1,-.1,-.1c0,0,-.1,.1,-.2,.1c0,0,-.1,.1,-.2,.2c-.1,.1,-.2,.2,-.3,.2c-.2,0,-.3,-.1,-.4,-.2c-.2,-.2,-.3,-.3,-.6,-.3c-.4,0,-.9,.4,-.9,.8c0,.3,.2,.4,.4,.4c.2,0,.3,-.1,.3,-.3c0,-.2,-.2,-.2,-.2,-.3c0,-.1,.1,-.2,.2,-.2c.3,0,.4,.3,.6,.4c.1,.1,.2,.1,.4,0l.2,-.1Z" class="g1_141"/>
<path d="M441.6,851.5c-1.9,0,-1.9,-2.7,-1.9,-4.9c0,-2.2,0,-5.2,1.9,-5.2c2,0,2,3,2,5.2c0,2.2,-.1,4.9,-2,4.9Zm0,-10.4c-2.6,0,-3.3,2.8,-3.3,5.4c0,2.6,.8,5.2,3.3,5.2c2.6,0,3.4,-2.5,3.4,-5.2c0,-2.7,-.8,-5.4,-3.4,-5.4Z" class="g1_141"/>
<path d="M465.6,851.5c-2,0,-2,-2.7,-2,-4.9c0,-2.2,0,-5.2,2,-5.2c1.9,0,1.9,3,1.9,5.2c0,2.2,0,4.9,-1.9,4.9Zm0,-10.4c-2.6,0,-3.4,2.8,-3.4,5.4c0,2.6,.8,5.2,3.4,5.2c2.5,0,3.3,-2.5,3.3,-5.2c0,-2.7,-.7,-5.4,-3.3,-5.4Z" class="g1_141"/>
<path d="M416.2,870.3c-1.9,0,-1.9,-2.7,-1.9,-4.9c0,-2.2,0,-5.1,1.9,-5.1c2,0,2,2.9,2,5.1c0,2.2,-.1,4.9,-2,4.9Zm0,-10.3c-2.6,0,-3.3,2.7,-3.3,5.4c0,2.6,.8,5.2,3.3,5.2c2.6,0,3.4,-2.6,3.4,-5.2c0,-2.7,-.7,-5.4,-3.4,-5.4Z" class="g1_141"/>
<path d="M440,857.5v.2c.4,0,.8,0,1,.1c.3,.2,.3,.3,.3,.7v4.8c0,.2,0,.4,0,.6c-.1,.5,-.7,.5,-1.2,.6v.1h3.4v-.1c-.4,-.1,-.9,-.1,-1.1,-.3c-.1,-.2,-.1,-.6,-.1,-1V857c-.6,.3,-1.6,.5,-2.3,.5Z" class="g1_141"/>
<path d="M438.6,867.1h6.1v-.9h-6.1Z" class="g1_141"/>
<path d="M441.9,875.9c.9,0,1.4,-.7,1.8,-1.2l-.2,-.2c-.2,.3,-.6,1,-1,1c-.2,0,-.3,-.3,-.3,-.4c0,-.3,.9,-2.7,.9,-3c0,-.6,-.2,-1,-.8,-1c-.3,0,-.7,.1,-1,.2c-.2,.2,-.4,.4,-.6,.7v.1l1.1,-4.3l-1.6,.2l-.1,.1c.3,0,.5,.1,.6,.2c.1,0,.2,.2,.2,.3c0,.2,-.1,.5,-.2,.7l-1.8,6.5h.6c.4,-1.2,.9,-2.7,1.4,-3.6c.3,-.4,.7,-.8,1.2,-.8c.4,0,.3,.7,.2,1c-.1,.2,-.1,.4,-.2,.7c-.4,1.2,-.6,1.8,-.6,2.3c0,.3,.1,.5,.4,.5Z" class="g1_141"/>
<path d="M465.6,870.3c-2,0,-2,-2.7,-2,-4.9c0,-2.2,0,-5.1,2,-5.1c1.9,0,1.9,2.9,1.9,5.1c0,2.2,0,4.9,-1.9,4.9Zm0,-10.3c-2.6,0,-3.4,2.7,-3.4,5.4c0,2.6,.8,5.2,3.4,5.2c2.5,0,3.3,-2.6,3.3,-5.2c0,-2.7,-.7,-5.4,-3.3,-5.4Z" class="g1_141"/>
<path d="M416.2,888.3c-1.9,0,-1.9,-2.7,-1.9,-4.9c0,-2.2,0,-5.2,1.9,-5.2c2,0,2,3,2,5.2c0,2.2,-.1,4.9,-2,4.9Zm0,-10.3c-2.6,0,-3.3,2.7,-3.3,5.4c0,2.6,.8,5.2,3.3,5.2c2.6,0,3.4,-2.6,3.4,-5.2c0,-2.7,-.7,-5.4,-3.4,-5.4Z" class="g1_141"/>
<path d="M441.6,888.3c-1.9,0,-1.9,-2.7,-1.9,-4.9c0,-2.2,0,-5.2,1.9,-5.2c2,0,2,3,2,5.2c0,2.2,-.1,4.9,-2,4.9Zm0,-10.3c-2.6,0,-3.3,2.7,-3.3,5.4c0,2.6,.8,5.2,3.3,5.2c2.6,0,3.4,-2.6,3.4,-5.2c0,-2.7,-.8,-5.4,-3.4,-5.4Z" class="g1_141"/>
<path d="M463.4,878.7v.2c.4,0,1.1,.1,1.3,.2c.4,.3,.4,.4,.4,1.1v6.5c0,.3,0,.5,0,.7c-.1,.7,-.9,.8,-1.7,.8v.2h4.7v-.2c-.5,0,-1.2,0,-1.4,-.3c-.2,-.3,-.3,-.8,-.3,-1.3V878c-.8,.4,-2.1,.7,-3,.7Z" class="g1_141"/>
<path d="M470.2,840.1c0,.1,.1,.2,.1,.4c3.2,5.4,4,19.1,4,20.3v.7h1.4v-1.2c-.1,-3.1,-.9,-15.3,-5.3,-20.2c0,-.1,-.1,-.1,-.1,-.1c-.1,0,-.1,.1,-.1,.1Z" class="g1_141"/>
<path d="M474.3,870.7h1.4v-9.6h-1.4Z" class="g1_141"/>
<path d="M470.2,891.9c0,0,0,.1,.1,.1c0,0,.1,0,.1,-.1c4.4,-4.9,5.2,-17.1,5.3,-20.1v-1.3h-1.4v.7c0,1.2,-.8,14.9,-4,20.3c0,.2,-.1,.3,-.1,.4Z" class="g1_141"/>
</svg>