<?xml version="1.0" encoding="UTF-8" standalone="no"?>
<!DOCTYPE svg PUBLIC "-//W3C//DTD SVG 1.1//EN"
"http://www.w3.org/Graphics/SVG/1.1/DTD/svg11.dtd">
<svg viewBox="0 0 811 1017" version="1.1" xmlns="http://www.w3.org/2000/svg" xmlns:xlink="http://www.w3.org/1999/xlink">
<defs>
<style type="text/css"><![CDATA[
.g0_206{
fill: #0E0E0E;
}
]]></style>
</defs>
<path d="M359.2,575q0,-.1,-.1,-.1H359c-4.7,5.3,-5.3,19.2,-5.3,20.8v.7h1.4v-.7c0,-1.2,.8,-14.9,4,-20.4c.1,-.1,.1,-.2,.1,-.3Z" class="g0_206"/>
<path d="M353.7,605.6h1.4V596h-1.4Z" class="g0_206"/>
<path d="M359.2,626.8c0,-.2,0,-.3,-.1,-.4c-3.2,-5.4,-4,-19.1,-4,-20.3v-.7h-1.4v.7c0,1.5,.6,15.4,5.3,20.7q.1,0,.1,0q.1,0,.1,0Z" class="g0_206"/>
<path d="M361.7,576.8v.2c.4,0,1.1,.1,1.3,.2c.4,.2,.4,.4,.4,1v6.5c0,.3,0,.6,0,.8c-.1,.7,-.9,.8,-1.7,.8v.2h4.7v-.2c-.5,0,-1.2,-.1,-1.4,-.3c-.3,-.3,-.3,-.8,-.3,-1.4V576c-.8,.5,-2.1,.8,-3,.8Z" class="g0_206"/>
<path d="M383.9,583.1h7.6v-.8h-7.6Z" class="g0_206"/>
<path d="M394.4,576.8v.2c.5,0,1.1,.1,1.3,.2c.5,.2,.5,.4,.5,1v6.5c0,.3,0,.6,-.1,.8c-.1,.7,-.9,.8,-1.6,.8v.2h4.7v-.2c-.5,0,-1.3,-.1,-1.5,-.3c-.2,-.3,-.2,-.8,-.2,-1.4V576c-.8,.5,-2.1,.8,-3.1,.8Z" class="g0_206"/>
<path d="M417.7,576.8v.2c.4,0,1.1,.1,1.3,.2c.5,.2,.4,.4,.5,1v6.5c0,.3,-.1,.6,-.1,.8c-.1,.7,-.9,.8,-1.6,.8v.2h4.7v-.2c-.6,0,-1.3,-.1,-1.5,-.3c-.2,-.3,-.2,-.8,-.2,-1.4V576c-.8,.5,-2.2,.8,-3.1,.8Z" class="g0_206"/>
<path d="M361.7,594.7v.2c.4,0,1.1,.1,1.3,.2c.4,.2,.4,.4,.4,1v6.5c0,.3,0,.6,0,.8c-.1,.7,-.9,.8,-1.7,.8v.2h4.7v-.2c-.5,0,-1.2,-.1,-1.4,-.3c-.3,-.3,-.3,-.8,-.3,-1.4v-8.6c-.8,.4,-2.1,.8,-3,.8Z" class="g0_206"/>
<path d="M391.9,604.3c-1.9,0,-2,-2.7,-2,-4.9c0,-2.2,0,-5.2,2,-5.2c1.9,0,1.9,3,1.9,5.2c0,2.2,0,4.9,-1.9,4.9Zm0,-10.4c-2.6,0,-3.4,2.8,-3.4,5.4c0,2.6,.8,5.2,3.4,5.2c2.5,0,3.3,-2.5,3.3,-5.2c0,-2.7,-.7,-5.4,-3.3,-5.4Z" class="g0_206"/>
<path d="M419.9,604.3c-1.9,0,-1.9,-2.7,-1.9,-4.9c0,-2.2,0,-5.2,1.9,-5.2c1.9,0,1.9,3,1.9,5.2c0,2.2,0,4.9,-1.9,4.9Zm0,-10.4c-2.6,0,-3.4,2.8,-3.4,5.4c0,2.6,.8,5.2,3.4,5.2c2.6,0,3.4,-2.5,3.4,-5.2c0,-2.7,-.8,-5.4,-3.4,-5.4Z" class="g0_206"/>
<path d="M363.9,622.2c-2,0,-2,-2.7,-2,-4.9c0,-2.2,0,-5.2,2,-5.2c1.9,0,1.9,3,1.9,5.2c0,2.2,0,4.9,-1.9,4.9Zm0,-10.3c-2.6,0,-3.4,2.7,-3.4,5.3c0,2.6,.8,5.2,3.4,5.2c2.5,0,3.3,-2.5,3.3,-5.2c0,-2.7,-.7,-5.3,-3.3,-5.3Z" class="g0_206"/>
<path d="M391.9,622.2c-1.9,0,-2,-2.7,-2,-4.9c0,-2.2,0,-5.2,2,-5.2c1.9,0,1.9,3,1.9,5.2c0,2.2,0,4.9,-1.9,4.9Zm0,-10.3c-2.6,0,-3.4,2.7,-3.4,5.3c0,2.6,.8,5.2,3.4,5.2c2.5,0,3.3,-2.5,3.3,-5.2c0,-2.7,-.7,-5.3,-3.3,-5.3Z" class="g0_206"/>
<path d="M417.7,612.6v.2c.4,0,1.1,.1,1.3,.2c.5,.2,.4,.4,.5,1v6.5c0,.3,-.1,.6,-.1,.8c-.1,.7,-.9,.8,-1.6,.8v.2h4.7v-.2c-.6,0,-1.3,-.1,-1.5,-.3c-.2,-.3,-.2,-.8,-.2,-1.4v-8.5c-.8,.4,-2.2,.7,-3.1,.7Z" class="g0_206"/>
<path d="M424.5,575c0,.1,.1,.2,.2,.3c3.1,5.5,3.9,19.2,3.9,20.4v.7H430v-.7c0,-1.6,-.5,-15.5,-5.3,-20.8c0,0,-.1,0,-.1,0c0,0,-.1,0,-.1,.1Z" class="g0_206"/>
<path d="M428.6,605.6H430V596h-1.4Z" class="g0_206"/>
<path d="M424.5,626.8c0,0,.1,0,.1,0c0,0,.1,0,.1,0c4.8,-5.3,5.3,-19.2,5.3,-20.7v-.7h-1.4v.7c0,1.2,-.8,14.9,-3.9,20.3c-.1,.1,-.2,.2,-.2,.4Z" class="g0_206"/>
<path d="M439.5,575q0,-.1,-.1,-.1h-.1c-4.7,5.3,-5.3,19.2,-5.3,20.8v.7h1.4v-.7c0,-1.2,.8,-14.9,4,-20.4c.1,-.1,.1,-.2,.1,-.3Z" class="g0_206"/>
<path d="M434,605.6h1.4V596H434Z" class="g0_206"/>
<path d="M439.5,626.8c0,-.2,0,-.3,-.1,-.4c-3.2,-5.4,-4,-19.1,-4,-20.3v-.7H434v.7c0,1.5,.6,15.4,5.3,20.7q.1,0,.1,0q.1,0,.1,0Z" class="g0_206"/>
<path d="M444.5,580c-.4,0,-.9,.2,-1.3,.5c-.5,.3,-.9,.7,-1.2,1.1c-.7,.8,-1.3,2,-1.3,3.3c0,1,.4,1.7,1.3,1.7c1.3,0,1.8,-.8,2.2,-1.5c-.2,.9,-.1,1.5,.6,1.5c.3,0,.7,-.1,1.1,-.4c.4,-.4,.7,-.8,1.1,-1.4l-.2,-.2c-.3,.4,-.9,1.4,-1.3,1.4c-.3,0,-.3,-.4,-.3,-.6c0,-.9,.6,-2.4,.9,-3.4l.7,-1.8h-1l-.2,.6c-.2,-.5,-.5,-.8,-1.1,-.8Zm.1,.3c.7,0,.6,1.3,.5,1.9c-.1,.3,-.2,.6,-.3,1c-.4,1.2,-1.5,3.1,-2.3,3.1c-.6,0,-.8,-1,-.8,-1.5c0,-.4,.1,-.8,.2,-1.3c.4,-1,1.5,-3.2,2.7,-3.2Z" class="g0_206"/>
<path d="M450.5,588.8c-1.4,0,-1.4,-2,-1.4,-3.6c0,-1.6,0,-3.8,1.4,-3.8c1.4,0,1.4,2.2,1.4,3.8c0,1.6,0,3.6,-1.4,3.6Zm0,-7.6c-1.9,0,-2.5,2,-2.5,4c0,1.9,.6,3.8,2.5,3.8c1.9,0,2.4,-1.9,2.4,-3.8c0,-2,-.5,-4,-2.4,-4Z" class="g0_206"/>
<path d="M444.5,597.9c-.4,0,-.9,.2,-1.3,.5c-.5,.3,-.9,.7,-1.2,1.1c-.7,.8,-1.3,2,-1.3,3.3c0,1,.4,1.7,1.3,1.7c1.3,0,1.8,-.8,2.2,-1.5c-.2,.9,-.1,1.5,.6,1.5c.3,0,.7,-.1,1.1,-.4c.4,-.4,.7,-.8,1.1,-1.4l-.2,-.2c-.3,.4,-.9,1.4,-1.3,1.4c-.3,0,-.3,-.3,-.3,-.6c0,-.9,.6,-2.4,.9,-3.4l.7,-1.8h-1l-.2,.6c-.2,-.5,-.5,-.8,-1.1,-.8Zm.1,.3c.7,0,.6,1.3,.5,1.9c-.1,.3,-.2,.6,-.3,1c-.4,1.2,-1.5,3.1,-2.3,3.1c-.6,0,-.8,-1,-.8,-1.5c0,-.4,.1,-.8,.2,-1.3c.4,-1,1.5,-3.2,2.7,-3.2Z" class="g0_206"/>
<path d="M448.9,599.7v.1c.3,0,.8,.1,.9,.2c.4,.1,.3,.3,.4,.7v4.8c0,.2,0,.4,-.1,.5c0,.5,-.6,.6,-1.2,.6v.2h3.5v-.2c-.4,0,-1,0,-1.1,-.2c-.2,-.2,-.2,-.6,-.2,-1v-6.3c-.6,.3,-1.5,.6,-2.2,.6Z" class="g0_206"/>
<path d="M444.5,615.8c-.4,0,-.9,.2,-1.3,.5c-.5,.3,-.9,.7,-1.2,1.1c-.7,.8,-1.3,2,-1.3,3.3c0,1,.4,1.7,1.3,1.7c1.3,0,1.8,-.8,2.2,-1.5c-.2,.9,-.1,1.5,.6,1.5c.3,0,.7,-.1,1.1,-.4c.4,-.4,.7,-.8,1.1,-1.4l-.2,-.2c-.3,.4,-.9,1.4,-1.3,1.4c-.3,0,-.3,-.4,-.3,-.6c0,-.9,.6,-2.4,.9,-3.4l.7,-1.8h-1l-.2,.6c-.2,-.5,-.5,-.8,-1.1,-.8Zm.1,.3c.7,0,.6,1.3,.5,1.9c-.1,.3,-.2,.6,-.3,1c-.4,1.2,-1.5,3.1,-2.3,3.1c-.6,0,-.8,-1,-.8,-1.5c0,-.4,.1,-.8,.2,-1.3c.4,-1,1.5,-3.2,2.7,-3.2Z" class="g0_206"/>
<path d="M450.1,620c-.7,0,-1.1,-.5,-1.1,-1.1c0,-.8,.4,-1.7,1.3,-1.7c1.2,0,1.3,1,1.3,1.9c0,1,-.2,1.5,-.7,2.2c-.2,.4,-.6,.8,-1.1,1.3c-.5,.5,-1.1,1.1,-1.8,1.7v.4h4.5l.4,-2.1h-.3c-.1,.2,-.2,.4,-.3,.5c-.1,.4,-.4,.6,-1,.6h-2.1c.5,-.4,1,-.8,1.4,-1.1c.7,-.7,1.5,-1.4,2,-2.3c.1,-.3,.2,-.7,.2,-1.2c0,-.3,0,-.5,-.1,-.8c-.4,-.8,-1.1,-1.3,-2.2,-1.3c-.7,0,-1.4,.3,-1.8,.6c-.3,.3,-.7,.8,-.7,1.5c0,.4,.2,.8,.4,1c.2,.3,.5,.4,.9,.4c.4,0,.7,-.2,.8,-.5Z" class="g0_206"/>
<path d="M454.7,575c0,.1,.1,.2,.2,.3c3.1,5.5,3.9,19.2,3.9,20.4v.7h1.4v-.7c0,-1.6,-.5,-15.5,-5.3,-20.8h-.1c0,0,-.1,0,-.1,.1Z" class="g0_206"/>
<path d="M458.8,605.6h1.4V596h-1.4Z" class="g0_206"/>
<path d="M454.7,626.8c0,0,.1,0,.1,0q.1,0,.1,0c4.8,-5.3,5.3,-19.2,5.3,-20.7v-.7h-1.4v.7c0,1.2,-.8,14.9,-3.9,20.3c-.1,.1,-.2,.2,-.2,.4Z" class="g0_206"/>
<path d="M465.7,602.8h7.6v-.9h-7.6Zm0,-3h7.6v-.9h-7.6Z" class="g0_206"/>
<path d="M484.4,575c0,-.1,-.1,-.1,-.1,-.1q-.1,0,-.1,0c-4.8,5.3,-5.3,19.2,-5.3,20.8v.7h1.4v-.7c0,-1.2,.7,-14.9,3.9,-20.4c.1,-.1,.2,-.2,.2,-.3Z" class="g0_206"/>
<path d="M478.9,605.6h1.4V596h-1.4Z" class="g0_206"/>
<path d="M484.4,626.8c0,-.2,-.1,-.3,-.2,-.4C481,621,480.3,607.3,480.3,606.1v-.7h-1.4v.7c0,1.5,.5,15.4,5.3,20.7h.1c0,0,.1,0,.1,0Z" class="g0_206"/>
<path d="M489,586.4c-1.9,0,-1.9,-2.7,-1.9,-4.9c0,-2.2,0,-5.2,1.9,-5.2c1.9,0,1.9,3,1.9,5.2c0,2.2,0,4.9,-1.9,4.9ZM489,576c-2.6,0,-3.4,2.8,-3.4,5.4c0,2.6,.8,5.2,3.4,5.2c2.6,0,3.4,-2.5,3.4,-5.2c0,-2.7,-.8,-5.4,-3.4,-5.4Z" class="g0_206"/>
<path d="M486.8,594.7v.2c.4,0,1.1,.1,1.3,.2c.5,.2,.4,.4,.5,1v6.5c0,.3,-.1,.6,-.1,.8c-.1,.7,-.9,.8,-1.6,.8v.2h4.7v-.2c-.5,0,-1.3,-.1,-1.5,-.3c-.2,-.3,-.2,-.8,-.2,-1.4v-8.6c-.8,.4,-2.1,.8,-3.1,.8Z" class="g0_206"/>
<path d="M489,622.2c-1.9,0,-1.9,-2.7,-1.9,-4.9c0,-2.2,0,-5.2,1.9,-5.2c1.9,0,1.9,3,1.9,5.2c0,2.2,0,4.9,-1.9,4.9Zm0,-10.3c-2.6,0,-3.4,2.7,-3.4,5.3c0,2.6,.8,5.2,3.4,5.2c2.6,0,3.4,-2.5,3.4,-5.2c0,-2.7,-.8,-5.3,-3.4,-5.3Z" class="g0_206"/>
<path d="M493.6,575c0,.1,.1,.2,.2,.3c3.1,5.5,3.9,19.2,3.9,20.4v.7h1.4v-.7c0,-1.6,-.5,-15.5,-5.3,-20.8h-.1c0,0,-.1,0,-.1,.1Z" class="g0_206"/>
<path d="M497.7,605.6h1.4V596h-1.4Z" class="g0_206"/>
<path d="M493.6,626.8c0,0,.1,0,.1,0q.1,0,.1,0c4.8,-5.3,5.3,-19.2,5.3,-20.7v-.7h-1.4v.7c0,1.2,-.8,14.9,-3.9,20.3c-.1,.1,-.2,.2,-.2,.4Z" class="g0_206"/>
</svg>