<?xml version="1.0" encoding="UTF-8" standalone="no"?>
<!DOCTYPE svg PUBLIC "-//W3C//DTD SVG 1.1//EN"
"http://www.w3.org/Graphics/SVG/1.1/DTD/svg11.dtd">
<svg viewBox="0 0 811 1017" version="1.1" xmlns="http://www.w3.org/2000/svg" xmlns:xlink="http://www.w3.org/1999/xlink">
<defs>
<style type="text/css"><![CDATA[
.g0_179{
fill: #959695;
}
.g1_179{
fill: #555756;
}
.g2_179{
fill: #73C048;
}
.g3_179{
fill: #040504;
}
]]></style>
</defs>
<path d="M156.8,775.1v0Zm121.8,0H156.8v-1.3H257.2c2.9,.7,5.9,1.1,9,1.1c3.1,0,6.1,-.4,8.9,-1.1h3l2.4,-1.8c5.6,-2.3,10.5,-6,14.2,-10.6l30.7,-23h2.2l-49,36.7Zm-12.4,-.9c-1.7,0,-3.3,-.2,-4.9,-.4h9.8c-1.6,.2,-3.2,.4,-4.9,.4Zm17.5,-4.6l7.8,-5.8c-2.3,2.3,-4.9,4.2,-7.8,5.8Zm44.9,-32h-2.2l96.2,-72.1h2.2l-96.2,72.1Zm97.2,-72.9h-2.2l49,-36.7H594.4v1.3H493.8c-2.8,-.7,-5.8,-1.1,-8.8,-1.1c-3,0,-5.9,.4,-8.7,1.1H473l-2.6,2c-5.3,2.3,-10,5.8,-13.7,10.3l-30.9,23.1ZM460.1,639c2.1,-2,4.4,-3.7,6.9,-5.2l-6.9,5.2Zm29.5,-9.7h-9.1c1.5,-.2,3,-.3,4.5,-.3c1.6,0,3.1,.1,4.6,.3Z" class="g0_179"/>
<path d="M597.4,738.4H387.9c.3,-.3,.7,-.5,1,-.8H597.4v.8Zm-210.8,0h-59l1,-.8h59c-.3,.3,-.6,.5,-1,.8Zm-61.2,0H303c0,-.1,0,-.2,0,-.3c0,-.2,0,-.3,0,-.5h23.4l-1,.8Z" class="g0_179"/>
<path d="M327.6,738.4h-2.2l1,-.8h2.2l-1,.8Z" class="g1_179"/>
<path d="M302.3,738.4H266.4c.3,-.3,.7,-.5,1,-.8h34.9c0,.2,0,.3,0,.5c0,.1,0,.2,0,.3Zm-37.2,0h-35c0,-.1,0,-.2,0,-.3c0,-.2,0,-.3,0,-.5h36c-.3,.3,-.6,.5,-1,.8Zm-35.8,0H156.8v-.8h72.5c0,.2,0,.3,0,.5c0,.1,0,.2,0,.3Z" class="g0_179"/>
<path d="M597.4,665.5H521.9c0,-.2,0,-.3,0,-.4c0,-.1,0,-.3,0,-.4h75.5v.8Zm-76.3,0h-36c.4,-.3,.7,-.5,1.1,-.8h34.9c0,.1,0,.3,0,.4c0,.1,0,.2,0,.4Zm-37.2,0h-35c0,-.2,0,-.3,0,-.4c0,-.1,0,-.3,0,-.4h36c-.3,.3,-.7,.5,-1,.8Zm-35.7,0H424.8l1,-.8h22.4c0,.1,0,.3,0,.4c0,.1,0,.2,0,.4Zm-25.6,0h-59c.4,-.3,.7,-.5,1,-.8h59l-1,.8Zm-60.2,0H156.8v-.8H363.4c-.3,.3,-.7,.5,-1,.8Z" class="g0_179"/>
<path d="M424.8,665.5h-2.2l1,-.8h2.2l-1,.8Z" class="g1_179"/>
<path d="M275.1,773.8h-4c4.5,-.6,8.8,-2.1,12.6,-4.2l-3.2,2.4c-1.7,.8,-3.5,1.4,-5.4,1.8Zm-13.8,0h-4.1c-15.9,-3.9,-27.7,-18.3,-27.9,-35.4h.8c.1,9.8,4.1,18.7,10.6,25.2c5.4,5.4,12.6,9.1,20.6,10.2Zm30.2,-10q.1,-.1,.2,-.2c6.5,-6.5,10.5,-15.4,10.6,-25.2h.7c0,8.7,-3.1,16.7,-8.3,23l-3.2,2.4Z" class="g0_179"/>
<path d="M266.2,774.9c-3.1,0,-6.1,-.4,-9,-1.1h4.1c1.6,.2,3.2,.4,4.9,.4c1.7,0,3.3,-.2,4.9,-.4h4c-2.8,.7,-5.8,1.1,-8.9,1.1ZM280.5,772l3.2,-2.4c2.9,-1.6,5.5,-3.5,7.8,-5.8l3.2,-2.4c-3.7,4.6,-8.6,8.3,-14.2,10.6Z" class="g1_179"/>
<path d="M303,737.6h-.7c-.1,-7.8,-2.7,-15,-7,-20.9c.2,-.1,.4,-.3,.6,-.4c4.4,6,7,13.3,7.1,21.3Zm-72.9,0h-.8c.3,-20.1,16.7,-36.4,36.9,-36.4c11.9,0,22.5,5.7,29.2,14.5c-.2,.1,-.4,.3,-.6,.4c-.9,-1.2,-2,-2.4,-3.1,-3.5C285.2,706,276.2,702,266.2,702c-10,0,-19,4,-25.5,10.6c-6.5,6.4,-10.5,15.2,-10.6,25Z" class="g0_179"/>
<path d="M303,738.4h-.7c0,-.1,0,-.2,0,-.3c0,-.2,0,-.3,0,-.5h.7c0,.2,0,.3,0,.5c0,.1,0,.2,0,.3Zm-72.9,0h-.8c0,-.1,0,-.2,0,-.3c0,-.2,0,-.3,0,-.5h.8c0,.2,0,.3,0,.5c0,.1,0,.2,0,.3Zm72.9,-.3v0Z" class="g1_179"/>
<path d="M485,701.9c-11.9,0,-22.5,-5.6,-29.2,-14.4c.2,-.2,.4,-.3,.6,-.5c.9,1.3,2,2.5,3.1,3.6c6.5,6.5,15.6,10.6,25.5,10.6c10,0,19,-4.1,25.5,-10.6c6.5,-6.4,10.5,-15.3,10.6,-25.1h.8c-.2,20.1,-16.6,36.4,-36.9,36.4Zm-29.7,-15c-4.4,-6,-7,-13.4,-7.1,-21.4h.7c.1,7.8,2.7,15,7,20.9c-.2,.2,-.4,.3,-.6,.5Zm66.6,-22.2h-.8C521,654.9,517,646,510.5,639.6C505,634,497.7,630.3,489.6,629.3h4.2c16,3.9,27.9,18.2,28.1,35.4Zm-73,0h-.7c.1,-8.8,3.3,-16.9,8.5,-23.1l3.4,-2.6c-.2,.2,-.4,.4,-.6,.6c-6.4,6.4,-10.5,15.3,-10.6,25.1ZM467,633.8l3.4,-2.5c1.9,-.9,3.9,-1.5,5.9,-2h4.2c-4.9,.6,-9.5,2.2,-13.5,4.5Z" class="g0_179"/>
<path d="M456.7,641.6c3.7,-4.5,8.4,-8,13.7,-10.3l-3.4,2.5c-2.5,1.5,-4.8,3.2,-6.9,5.2l-3.4,2.6Zm37.1,-12.3h-4.2c-1.5,-.2,-3,-.3,-4.6,-.3c-1.5,0,-3,.1,-4.5,.3h-4.2c2.8,-.7,5.7,-1.1,8.7,-1.1c3,0,6,.4,8.8,1.1Z" class="g1_179"/>
<path d="M521.9,665.5h-.8c0,-.2,0,-.3,0,-.4c0,-.1,0,-.3,0,-.4h.8c0,.1,0,.3,0,.4c0,.1,0,.2,0,.4Zm-73,0h-.7c0,-.2,0,-.3,0,-.4c0,-.1,0,-.3,0,-.4h.7c0,.1,0,.3,0,.4c0,.1,0,.2,0,.4Zm73,-.4v0Z" class="g1_179"/>
<path d="M460.8,638.4c6.6,-6,15.2,-9.3,24.2,-9.4v-.7c-9.2,0,-18,3.4,-24.7,9.6l.5,.5Z" class="g2_179"/>
<path d="M289,765.9c-6.2,5.2,-14.1,8.1,-22.2,8.3v.7c8.3,-.2,16.3,-3.1,22.7,-8.4l-.5,-.6Z" class="g2_179"/>
<path d="M299.1,805l-.5,-.6c35.4,-26.5,64.4,-48.2,88,-66h1.3L299.1,805Zm89.8,-67.4h-1.3c30.6,-22.9,52.3,-39.2,67.7,-50.7c.2,.2,.3,.4,.5,.6C440.5,698.9,419,715,388.9,737.6Z" class="g0_179"/>
<path d="M387.9,738.4h-1.3c.4,-.3,.7,-.5,1,-.8h1.3c-.3,.3,-.7,.5,-1,.8Z" class="g1_179"/>
<path d="M456.4,687c-.2,-.2,-.3,-.4,-.5,-.6c13.8,-10.3,22.5,-16.8,28,-20.9h1.2c-5.4,4,-14.2,10.7,-28.7,21.5Zm29.8,-22.3h-1.3q8.2,-6.2,8.2,-6.2l.5,.6l-7.4,5.6Z" class="g0_179"/>
<path d="M485.1,665.5h-1.2c.3,-.3,.7,-.5,1,-.8h1.3c-.4,.3,-.7,.5,-1.1,.8Z" class="g1_179"/>
<path d="M455.8,687.5c-.2,-.2,-.3,-.4,-.5,-.6c.2,-.2,.4,-.3,.6,-.5c.2,.2,.3,.4,.5,.6c-.2,.2,-.4,.3,-.6,.5Z" class="g1_179"/>
<path d="M256.7,745.7l-.5,-.6c3,-2.3,6,-4.5,8.9,-6.7h1.3c-3.2,2.4,-6.4,4.8,-9.7,7.3ZM451.2,599.2h-.1l-.2,.3l.2,-.3h-.4l-87.3,65.5h1.2q86.6,-64.9,86.6,-64.9c.1,-.1,.1,-.2,.1,-.4c0,-.1,-.1,-.1,-.1,-.2ZM267.4,737.6h-1.3c10.2,-7.5,19.7,-14.7,28.7,-21.5c.2,.2,.3,.4,.5,.6c-8.8,6.6,-18.1,13.6,-27.9,20.9Zm28.5,-21.3c-.2,-.2,-.3,-.4,-.5,-.6c26.6,-20,48.7,-36.5,67,-50.2h1.2c-18.4,13.8,-40.7,30.5,-67.7,50.8Zm155,-116.8l.1,.4l-.1,-.4Zm0,0l.4,.2l-.4,-.2Zm0,0h.4h-.4Zm0,0l.4,-.2l-.4,.2Z" class="g0_179"/>
<path d="M266.4,738.4h-1.3c.4,-.3,.7,-.5,1,-.8h1.3c-.3,.3,-.7,.5,-1,.8Z" class="g1_179"/>
<path d="M363.6,665.5h-1.2c.3,-.3,.7,-.5,1,-.8h1.2c-.3,.3,-.6,.5,-1,.8Z" class="g1_179"/>
<path d="M295.3,716.7c-.2,-.2,-.3,-.4,-.5,-.6c.2,-.1,.4,-.3,.6,-.4c.2,.2,.3,.4,.5,.6c-.2,.1,-.4,.3,-.6,.4Z" class="g1_179"/>
<path d="M266.3,773.8H156.8v1.3l109.5,.1v-1.4Z" class="g2_179"/>
<path d="M498.4,629h92.2v-.8H498.4Z" class="g3_179"/>
<path d="M589.1,630.8l8.2,-2.2l-8.2,-2.2v4.4Z" class="g3_179"/>
<path d="M589,628l-104.2,-.1v1.4H589V628Z" class="g2_179"/>
<path d="M462.8,635.4L287.5,766.8l.8,1L463.6,636.4l-.8,-1Z" class="g2_179"/>
<path d="M459,638.4l-1.2,1l.4,.6l1.3,-1l-.5,-.6Z" class="g3_179"/>
<path d="M456.7,637.9l7.9,-3.2l-5.2,6.7l-2.7,-3.5Z" class="g3_179"/>
<path d="M260,774.8h1.6v-.7H260Z" class="g3_179"/>
<path d="M260.1,772.2l8.3,2.2l-8.3,2.2v-4.4Z" class="g3_179"/>
</svg>