<?xml version="1.0" encoding="UTF-8" standalone="no"?>
<!DOCTYPE svg PUBLIC "-//W3C//DTD SVG 1.1//EN"
"http://www.w3.org/Graphics/SVG/1.1/DTD/svg11.dtd">
<svg viewBox="0 0 811 1017" version="1.1" xmlns="http://www.w3.org/2000/svg" xmlns:xlink="http://www.w3.org/1999/xlink">
<defs>
<style type="text/css"><![CDATA[
.g0_288{
fill: #0E0E0E;
}
]]></style>
</defs>
<path d="M348.6,359.4v.2h4.7v-.2c-.6,0,-1,-.2,-1.2,-.3c-.3,-.2,-.4,-.4,-.4,-.8c0,-.2,.1,-.4,.1,-.7l.9,-3.3h1.1c1,0,1.1,1.2,1,2.2h.3l.9,-4.2h-.3c-.4,.9,-.8,1.7,-2,1.7h-.9l1.1,-4.4h1.8c.3,0,.5,0,.7,.1c.9,.4,1.5,1.2,1.7,2.3h.3v-2.7h-7.3l-.1,.2c.5,0,.8,.1,1,.3c.2,.1,.3,.3,.3,.6c0,.1,0,.2,0,.4c-.1,.2,-.1,.4,-.2,.6l-1.6,6.2c-.1,.3,-.2,.6,-.3,.8c-.1,.4,-.5,.7,-.8,.8c-.2,.1,-.5,.2,-.8,.2Z" class="g0_288"/>
<path d="M364.5,348.9c-2.2,1.4,-3.7,3.8,-3.7,6.9c0,2.7,1.6,5.5,3.6,6.8l.2,-.2c-2,-1.6,-2.5,-3.4,-2.5,-6.7c0,-3.3,.6,-5,2.5,-6.5l-.1,-.3Z" class="g0_288"/>
<path d="M372.8,354.1c0,-.6,-.4,-1,-1,-1c-.3,0,-.6,.1,-.9,.4c-.3,.2,-.6,.5,-.9,.8c0,-.6,-.4,-1.2,-1,-1.2c-1.2,0,-2.1,1.2,-2.5,2l.2,.1c.4,-.5,1.1,-1.7,2,-1.7c.3,0,.4,.5,.4,1c0,.3,0,.6,-.2,1.1l-.3,1.2c-.2,.6,-.4,1.4,-.8,1.8c-.1,.2,-.4,.6,-.7,.6c-.5,0,-.8,0,-.7,-.4c.1,-.4,.1,-.8,-.4,-.8c-.4,0,-.6,.3,-.6,.8c0,.5,.5,.9,1.1,.9c1,0,1.7,-.8,2.1,-1.4c.1,.8,.5,1.4,1.3,1.4c1.2,0,2.1,-1.1,2.5,-1.8l-.2,-.2c-.5,.6,-1.2,1.7,-2,1.7c-.4,0,-.6,-.7,-.6,-1.3c0,-.3,0,-.8,.2,-1.3l.1,-.7c.1,-.6,.4,-1.3,.7,-1.7c.1,-.2,.5,-.9,.9,-.9c.4,0,.4,.3,.4,.6c-.1,.4,.1,.6,.4,.6c.4,0,.5,-.3,.5,-.6Z" class="g0_288"/>
<path d="M374.1,348.9l-.1,.3c1.9,1.5,2.5,3.2,2.5,6.5c0,3.3,-.6,5.1,-2.5,6.7l.2,.2c2,-1.3,3.6,-4.1,3.6,-6.8c0,-3.1,-1.5,-5.5,-3.7,-6.9Z" class="g0_288"/>
<path d="M384,357.7h7.6v-.8H384Zm0,-3h7.6v-.8H384Z" class="g0_288"/>
<path d="M397.1,351.7c0,.5,.5,.9,1.1,.9c.5,0,.8,-.2,1.3,-.6c.8,-.6,2.1,-2.2,2.8,-3.4c.4,-.6,.8,-1.2,1.1,-1.8c.4,-.8,1.1,-2.1,1.1,-2.9c0,-.2,-.1,-.4,-.2,-.6c0,-.2,-.2,-.3,-.4,-.3c-.2,0,-.3,.1,-.5,.2c-.1,.2,-.2,.4,-.2,.7c0,.4,.3,.9,.3,1.3c0,.6,-.3,1.1,-.5,1.6c-.2,.5,-.5,.9,-.8,1.4h-.1l-.3,-1.9c-.1,-.6,-.3,-1.7,-.4,-2.1c-.2,-.7,-.4,-1.2,-1.4,-1.2c-1.1,0,-1.3,1.8,-1.6,2.6l.3,.1c.2,-.6,.6,-2.3,1.1,-2.3c.3,0,.5,1,.5,1.2c.1,.3,.2,.7,.3,1.4l.6,3.5c-.4,.8,-1.2,1.7,-1.8,2.1c-.2,.2,-.6,.3,-.7,.3c-.1,0,-.2,-.1,-.3,-.1c-.2,-.3,-.2,-.8,-.6,-.8c-.4,0,-.7,.3,-.7,.7Z" class="g0_288"/>
<path d="M406.1,344.8v.1c.3,0,.8,.1,1,.2c.3,.1,.3,.2,.3,.7v4.8c0,.2,0,.4,-.1,.5c0,.5,-.6,.6,-1.1,.6v.2h3.4v-.2c-.4,0,-.9,0,-1.1,-.2c-.1,-.3,-.2,-.6,-.2,-1v-6.3c-.5,.3,-1.5,.5,-2.2,.6Z" class="g0_288"/>
<path d="M413.4,346.4c.1,-.6,.7,-1.8,1,-2.2c.3,-.3,.9,-.9,1.3,-.9c.6,0,.6,.5,.6,.8c-.1,1.1,-2,2,-2.9,2.3Zm2.4,-3.4c-.6,0,-1.3,.5,-1.7,1.2l-.1,-.1l1.5,-5.5l-2.3,.1l-.1,.2c.6,0,1.1,.1,1.1,.6c0,0,0,.2,-.1,.4l-2.6,9.6h1l.7,-2.6l.4,-.1l.8,1.9c.2,.3,.3,.6,.4,.7c.2,.2,.3,.2,.5,.2c1,0,1.3,-.6,1.8,-1.8l-.3,-.1c-.3,.6,-.5,1.2,-.9,1.2c-.2,0,-.5,-.6,-.6,-1l-.7,-1.6l.3,-.2c.7,-.3,1.3,-.6,1.7,-1c.4,-.3,.6,-.7,.6,-1.1c0,-.7,-.5,-1,-1.4,-1Z" class="g0_288"/>
<path d="M419.1,344.8v.1c.3,0,.8,.1,1,.2c.3,.1,.3,.2,.3,.7v4.8c0,.2,0,.4,0,.5c-.1,.5,-.7,.6,-1.2,.6v.2h3.4v-.2c-.4,0,-.9,0,-1.1,-.2c-.1,-.3,-.1,-.6,-.1,-1v-6.3c-.6,.3,-1.6,.5,-2.3,.6Z" class="g0_288"/>
<path d="M429.7,338.8c-2.2,1.4,-3.7,3.8,-3.7,6.9c0,2.7,1.6,5.5,3.6,6.8l.2,-.2c-2,-1.6,-2.5,-3.4,-2.5,-6.7c0,-3.3,.6,-5,2.5,-6.5l-.1,-.3Z" class="g0_288"/>
<path d="M438,344c0,-.6,-.4,-1,-1,-1c-.3,0,-.6,.1,-.9,.4c-.3,.2,-.6,.5,-.9,.8c0,-.6,-.4,-1.2,-1,-1.2c-1.1,0,-2.1,1.2,-2.5,2l.3,.1c.3,-.5,1,-1.7,1.9,-1.7c.3,0,.4,.5,.4,1c0,.3,0,.6,-.2,1.1l-.3,1.2c-.2,.6,-.4,1.4,-.7,1.8c-.2,.2,-.5,.7,-.8,.7c-.5,0,-.8,-.1,-.7,-.5c.1,-.4,.1,-.8,-.4,-.8c-.4,0,-.6,.3,-.6,.8c0,.5,.5,.9,1.1,.9c1,0,1.7,-.8,2.1,-1.4c.1,.8,.5,1.4,1.3,1.4c1.2,0,2.1,-1.1,2.5,-1.8l-.2,-.2c-.5,.6,-1.2,1.7,-2,1.7c-.4,0,-.6,-.7,-.6,-1.3c0,-.3,0,-.8,.2,-1.3l.1,-.7c.2,-.6,.4,-1.3,.7,-1.6c.1,-.3,.5,-1,.9,-1c.4,0,.4,.3,.4,.6c-.1,.4,.1,.6,.4,.6c.4,0,.5,-.3,.5,-.6Z" class="g0_288"/>
<path d="M439.3,338.8l-.1,.3c1.9,1.5,2.5,3.2,2.5,6.5c0,3.3,-.5,5.1,-2.5,6.7l.2,.2c2,-1.3,3.6,-4.1,3.6,-6.8c0,-3.1,-1.5,-5.5,-3.7,-6.9Z" class="g0_288"/>
<path d="M451.5,345.2h-3.3v1h3.3v3.3h1v-3.3h3.2v-1h-3.2V342h-1v3.2Z" class="g0_288"/>
<path d="M458.5,351.7c0,.5,.5,.9,1.1,.9c.4,0,.8,-.2,1.3,-.6c.8,-.6,2,-2.2,2.8,-3.4c.3,-.6,.7,-1.2,1,-1.8c.4,-.8,1.1,-2.1,1.1,-2.9c0,-.2,0,-.4,-.1,-.6c-.1,-.2,-.3,-.3,-.5,-.3c-.1,0,-.3,.1,-.4,.2c-.2,.2,-.2,.4,-.2,.7c0,.4,.2,.9,.2,1.3c0,.6,-.2,1.1,-.5,1.6c-.2,.5,-.4,.9,-.8,1.4h-.1l-.3,-1.9c-.1,-.6,-.3,-1.7,-.4,-2.1c-.2,-.7,-.3,-1.2,-1.3,-1.2c-1.2,0,-1.4,1.8,-1.6,2.6l.3,.1c.1,-.6,.5,-2.3,1,-2.3c.3,0,.5,1,.6,1.2c0,.3,.1,.7,.2,1.4l.6,3.5c-.3,.8,-1.2,1.7,-1.8,2.1c-.2,.2,-.5,.3,-.7,.3c-.1,0,-.2,-.1,-.2,-.1c-.2,-.3,-.2,-.8,-.7,-.8c-.4,0,-.6,.3,-.6,.7Z" class="g0_288"/>
<path d="M468.6,347.2c-.6,0,-1,-.5,-1,-1.2c0,-.8,.4,-1.6,1.3,-1.6c1.2,0,1.3,1,1.3,1.9c0,.9,-.3,1.5,-.7,2.1c-.3,.4,-.7,.9,-1.1,1.4c-.5,.5,-1.1,1.1,-1.9,1.7v.4h4.6l.3,-2.1h-.3c0,.2,-.1,.4,-.2,.5c-.2,.4,-.5,.6,-1,.6h-2.1v-.1c.5,-.3,.9,-.7,1.4,-1c.7,-.7,1.5,-1.4,1.9,-2.3c.2,-.4,.3,-.8,.3,-1.2c0,-.3,-.1,-.6,-.2,-.8c-.3,-.8,-1.1,-1.3,-2.2,-1.3c-.7,0,-1.3,.3,-1.7,.6c-.4,.3,-.7,.8,-.7,1.4c0,.5,.1,.8,.4,1.1c.2,.2,.5,.4,.9,.4c.4,0,.7,-.2,.7,-.5Z" class="g0_288"/>
<path d="M474.7,346.4c.2,-.6,.7,-1.8,1.1,-2.2c.2,-.3,.8,-.9,1.3,-.9c.5,0,.5,.5,.5,.8c0,1.1,-2,2,-2.9,2.3Zm2.5,-3.4c-.7,0,-1.3,.5,-1.8,1.2l-.1,-.1l1.5,-5.5l-2.3,.1v.2c.6,0,1,.1,1,.6c0,0,0,.2,-.1,.4l-2.6,9.6h1l.8,-2.6l.3,-.1l.8,1.9c.2,.3,.3,.6,.5,.7c.1,.2,.2,.2,.4,.2c1,0,1.3,-.6,1.8,-1.8l-.2,-.1c-.3,.6,-.5,1.2,-1,1.2c-.2,0,-.4,-.6,-.6,-1l-.6,-1.6l.3,-.2c.6,-.3,1.3,-.6,1.6,-1c.4,-.3,.6,-.7,.6,-1.1c0,-.7,-.5,-1,-1.3,-1Z" class="g0_288"/>
<path d="M481.6,347.2c-.6,0,-1,-.5,-1,-1.2c0,-.8,.4,-1.6,1.3,-1.6c1.2,0,1.3,1,1.3,1.9c0,.9,-.2,1.5,-.7,2.1c-.3,.4,-.7,.9,-1.1,1.4c-.5,.5,-1.1,1.1,-1.9,1.7v.4h4.6l.4,-2.1h-.3c-.1,.2,-.2,.4,-.3,.5c-.1,.4,-.4,.6,-1,.6h-2.1v-.1c.5,-.3,1,-.7,1.4,-1c.7,-.7,1.5,-1.4,1.9,-2.3c.2,-.4,.3,-.8,.3,-1.2c0,-.3,-.1,-.6,-.2,-.8c-.3,-.8,-1.1,-1.3,-2.2,-1.3c-.7,0,-1.3,.3,-1.7,.6c-.4,.3,-.7,.8,-.7,1.4c0,.5,.2,.8,.4,1.1c.2,.2,.5,.4,.9,.4c.4,0,.7,-.2,.7,-.5Z" class="g0_288"/>
<path d="M491,338.8c-2.2,1.4,-3.7,3.8,-3.7,6.9c0,2.7,1.6,5.5,3.7,6.8l.1,-.2c-1.9,-1.6,-2.5,-3.4,-2.5,-6.7c0,-3.3,.6,-5,2.5,-6.5l-.1,-.3Z" class="g0_288"/>
<path d="M499.4,344c0,-.6,-.5,-1,-1,-1c-.3,0,-.7,.1,-1,.4c-.3,.2,-.6,.5,-.8,.8c0,-.6,-.4,-1.2,-1.1,-1.2c-1.1,0,-2.1,1.2,-2.4,2l.2,.1c.3,-.5,1.1,-1.7,2,-1.7c.2,0,.4,.5,.4,1c0,.3,-.1,.6,-.3,1.1l-.3,1.2c-.2,.6,-.4,1.4,-.7,1.8c-.2,.2,-.4,.7,-.8,.7c-.4,0,-.7,-.1,-.6,-.5c.1,-.4,0,-.8,-.4,-.8c-.5,0,-.7,.3,-.7,.8c0,.5,.5,.9,1.1,.9c1,0,1.7,-.8,2.1,-1.4c.2,.8,.6,1.4,1.4,1.4c1.2,0,2,-1.1,2.4,-1.8l-.2,-.2c-.4,.6,-1.1,1.7,-1.9,1.7c-.5,0,-.7,-.7,-.7,-1.3c0,-.3,.1,-.8,.2,-1.3l.2,-.7c.1,-.6,.3,-1.3,.6,-1.6c.2,-.3,.6,-1,.9,-1c.5,0,.4,.3,.4,.6c0,.4,.1,.6,.5,.6c.3,0,.5,-.3,.5,-.6Z" class="g0_288"/>
<path d="M500.7,338.8l-.2,.3c1.9,1.5,2.6,3.2,2.6,6.5c0,3.3,-.6,5.1,-2.6,6.7l.2,.2c2.1,-1.3,3.6,-4.1,3.6,-6.8c0,-3.1,-1.5,-5.5,-3.6,-6.9Z" class="g0_288"/>
<path d="M398.2,356.2H505.8v-.9H398.2Z" class="g0_288"/>
<path d="M413.4,366.7c.1,-.5,.7,-1.7,1,-2.1c.3,-.3,.9,-.9,1.3,-.9c.6,0,.6,.4,.6,.7c-.1,1.2,-2,2,-2.9,2.3Zm2.4,-3.4c-.6,0,-1.3,.5,-1.7,1.2H414l1.5,-5.6l-2.3,.1l-.1,.2c.6,0,1.1,.1,1.1,.6c0,.1,0,.2,-.1,.4l-2.6,9.6h1l.7,-2.6l.4,-.1l.8,1.9c.2,.3,.3,.6,.4,.7c.2,.2,.3,.2,.5,.2c1,0,1.3,-.6,1.8,-1.8l-.3,-.1c-.3,.6,-.5,1.2,-.9,1.2c-.2,0,-.5,-.6,-.6,-1l-.7,-1.6l.3,-.1c.7,-.3,1.3,-.7,1.7,-1c.4,-.4,.6,-.8,.6,-1.2c0,-.7,-.5,-1,-1.4,-1Z" class="g0_288"/>
<path d="M419.1,365.1v.2c.3,0,.8,0,1,.1c.3,.2,.3,.3,.3,.7v4.8c0,.2,0,.4,0,.5c-.1,.5,-.7,.6,-1.2,.6v.2h3.4V372c-.4,0,-.9,0,-1.1,-.2c-.1,-.2,-.1,-.6,-.1,-1v-6.3c-.6,.3,-1.6,.6,-2.3,.6Z" class="g0_288"/>
<path d="M429.7,359.2c-2.2,1.4,-3.7,3.8,-3.7,6.8c0,2.8,1.6,5.6,3.6,6.8l.2,-.2c-2,-1.6,-2.5,-3.4,-2.5,-6.6c0,-3.3,.6,-5,2.5,-6.6l-.1,-.2Z" class="g0_288"/>
<path d="M438,364.3c0,-.5,-.4,-1,-1,-1c-.3,0,-.6,.2,-.9,.4c-.3,.2,-.6,.5,-.9,.9c0,-.7,-.4,-1.3,-1,-1.3c-1.1,0,-2.1,1.2,-2.5,2l.3,.1c.3,-.5,1,-1.7,1.9,-1.7c.3,0,.4,.6,.4,1c0,.3,0,.7,-.2,1.2l-.3,1.1c-.2,.6,-.4,1.4,-.7,1.8c-.2,.3,-.5,.7,-.8,.7c-.5,0,-.8,-.1,-.7,-.5c.1,-.3,.1,-.8,-.4,-.8c-.4,0,-.6,.4,-.6,.8c0,.6,.5,.9,1.1,.9c1,0,1.7,-.7,2.1,-1.4c.1,.8,.5,1.4,1.3,1.4c1.2,0,2.1,-1.1,2.5,-1.8l-.2,-.2c-.5,.7,-1.2,1.7,-2,1.7c-.4,0,-.6,-.6,-.6,-1.2c0,-.4,0,-.8,.2,-1.4l.1,-.7c.2,-.6,.4,-1.2,.7,-1.6c.1,-.3,.5,-1,.9,-1c.4,0,.4,.3,.4,.7c-.1,.4,.1,.5,.4,.5c.4,0,.5,-.2,.5,-.6Z" class="g0_288"/>
<path d="M439.3,359.2l-.1,.2c1.9,1.6,2.5,3.3,2.5,6.6c0,3.2,-.5,5,-2.5,6.6l.2,.2c2,-1.2,3.6,-4,3.6,-6.8c0,-3,-1.5,-5.4,-3.7,-6.8Z" class="g0_288"/>
<path d="M451.5,365.6h-3.3v1h3.3v3.2h1v-3.2h3.2v-1h-3.2v-3.3h-1v3.3Z" class="g0_288"/>
<path d="M461.4,366.7c.1,-.5,.7,-1.7,1,-2.1c.3,-.3,.9,-.9,1.3,-.9c.6,0,.6,.4,.6,.7c0,1.2,-2,2,-2.9,2.3Zm2.5,-3.4c-.7,0,-1.4,.5,-1.8,1.2H462l1.5,-5.6l-2.3,.1l-.1,.2c.6,0,1.1,.1,1.1,.6c0,.1,0,.2,-.1,.4l-2.6,9.6h1l.7,-2.6l.4,-.1l.8,1.9c.2,.3,.3,.6,.4,.7c.2,.2,.3,.2,.5,.2c1,0,1.3,-.6,1.8,-1.8l-.3,-.1c-.2,.6,-.5,1.2,-.9,1.2c-.2,0,-.4,-.6,-.6,-1l-.7,-1.6l.3,-.1c.7,-.3,1.3,-.7,1.7,-1c.4,-.4,.6,-.8,.6,-1.2c0,-.7,-.5,-1,-1.3,-1Z" class="g0_288"/>
<path d="M468.3,367.5c-.7,0,-1.1,-.5,-1.1,-1.1c0,-.8,.5,-1.7,1.4,-1.7c1.2,0,1.3,1,1.3,1.9c0,1,-.3,1.5,-.7,2.2c-.3,.4,-.7,.8,-1.2,1.3c-.4,.5,-1.1,1.1,-1.8,1.8v.3h4.6l.3,-2.1h-.3c0,.2,-.1,.4,-.2,.6c-.2,.3,-.5,.5,-1,.5h-2.1c.4,-.4,.9,-.7,1.3,-1.1c.8,-.6,1.6,-1.4,2,-2.2c.2,-.4,.3,-.8,.3,-1.2c0,-.4,-.1,-.6,-.2,-.9c-.4,-.7,-1.1,-1.3,-2.2,-1.3c-.7,0,-1.3,.3,-1.7,.6c-.4,.3,-.7,.8,-.7,1.5c0,.4,.1,.8,.4,1c.1,.3,.4,.4,.9,.4c.4,0,.6,-.2,.7,-.5Z" class="g0_288"/>
<path d="M477.7,359.2c-2.2,1.4,-3.7,3.8,-3.7,6.8c0,2.8,1.6,5.6,3.6,6.8l.2,-.2c-2,-1.6,-2.5,-3.4,-2.5,-6.6c0,-3.3,.6,-5,2.5,-6.6l-.1,-.2Z" class="g0_288"/>
<path d="M486,364.3c0,-.5,-.4,-1,-1,-1c-.3,0,-.6,.2,-.9,.4c-.3,.2,-.6,.5,-.9,.9c0,-.7,-.4,-1.3,-1,-1.3c-1.1,0,-2.1,1.2,-2.4,2l.2,.1c.3,-.5,1,-1.7,1.9,-1.7c.3,0,.4,.6,.4,1c0,.3,0,.7,-.2,1.2l-.3,1.1c-.2,.6,-.4,1.4,-.7,1.8c-.2,.3,-.5,.7,-.8,.7c-.5,0,-.8,-.1,-.7,-.5c.1,-.3,.1,-.8,-.4,-.8c-.4,0,-.6,.4,-.6,.8c0,.6,.5,.9,1.1,.9c1,0,1.7,-.7,2.1,-1.4c.1,.8,.5,1.4,1.4,1.4c1.1,0,2,-1.1,2.4,-1.8l-.2,-.2c-.5,.7,-1.2,1.7,-2,1.7c-.4,0,-.6,-.6,-.6,-1.2c0,-.4,0,-.8,.2,-1.4l.2,-.7c.1,-.6,.3,-1.2,.6,-1.6c.2,-.3,.5,-1,.9,-1c.4,0,.4,.3,.4,.7c-.1,.4,.1,.5,.4,.5c.4,0,.5,-.2,.5,-.6Z" class="g0_288"/>
<path d="M487.3,359.2l-.1,.2c1.9,1.6,2.5,3.3,2.5,6.6c0,3.2,-.5,5,-2.5,6.6l.2,.2c2,-1.2,3.6,-4,3.6,-6.8c0,-3,-1.5,-5.4,-3.7,-6.8Z" class="g0_288"/>
<path d="M378,454.1c.2,-.6,.7,-1.7,1.1,-2.1c.2,-.4,.8,-1,1.3,-1c.5,0,.5,.5,.5,.8c0,1.1,-2,2,-2.9,2.3Zm2.5,-3.4c-.7,0,-1.3,.5,-1.8,1.2h-.1l1.5,-5.6l-2.3,.1v.2c.6,0,1,.1,1,.6c0,0,0,.2,-.1,.4l-2.6,9.6h1l.8,-2.6l.3,-.1l.8,1.9c.2,.3,.3,.6,.5,.7c.1,.2,.2,.2,.4,.2c1,0,1.3,-.6,1.8,-1.8l-.2,-.1c-.3,.6,-.5,1.2,-1,1.2c-.2,0,-.4,-.6,-.6,-1l-.6,-1.6l.3,-.2c.6,-.3,1.3,-.6,1.6,-1c.4,-.3,.6,-.7,.6,-1.1c0,-.7,-.5,-1,-1.3,-1Z" class="g0_288"/>
<path d="M385.3,452.7c0,-.3,-.2,-.5,-.5,-.5c-.3,0,-.6,.2,-.6,.5c0,.3,.3,.6,.6,.6c.2,0,.5,-.3,.5,-.6Zm-2,6.8c.9,0,1.4,-.8,1.7,-1.4l-.2,-.1c-.1,.2,-.5,1,-1,1c-.1,0,-.2,-.1,-.2,-.2c0,-.2,.1,-.7,.2,-.8l.7,-2.1c.1,-.3,.1,-.4,.1,-.6c0,-.3,0,-.6,-.3,-.6c-.7,0,-1.5,.8,-1.8,1.4l.3,.1c.1,-.2,.5,-.8,.8,-.8c.1,0,.2,.1,.2,.2c0,.2,-.1,.5,-.2,.7l-.7,2c-.1,.3,-.1,.5,-.1,.7c0,.3,.1,.5,.5,.5Z" class="g0_288"/>
<path d="M392,446.5c-2.2,1.4,-3.7,3.9,-3.7,6.9c0,2.7,1.6,5.5,3.6,6.8l.2,-.2c-2,-1.6,-2.5,-3.4,-2.5,-6.7c0,-3.3,.6,-5,2.5,-6.5l-.1,-.3Z" class="g0_288"/>
<path d="M400.3,451.7c0,-.6,-.4,-1,-.9,-1c-.4,0,-.7,.2,-1,.4c-.3,.2,-.6,.5,-.8,.9c0,-.7,-.5,-1.3,-1.1,-1.3c-1.1,0,-2.1,1.2,-2.4,2l.2,.1c.3,-.5,1.1,-1.7,1.9,-1.7c.3,0,.4,.5,.4,1c0,.3,0,.6,-.2,1.1l-.3,1.2c-.2,.6,-.4,1.4,-.7,1.8c-.2,.2,-.5,.7,-.8,.7c-.4,0,-.8,-.1,-.7,-.5c.1,-.3,.1,-.8,-.4,-.8c-.4,0,-.6,.3,-.6,.8c0,.6,.5,.9,1.1,.9c1,0,1.7,-.8,2.1,-1.4c.1,.8,.5,1.4,1.4,1.4c1.1,0,2,-1.1,2.4,-1.8l-.2,-.2c-.5,.7,-1.1,1.7,-2,1.7c-.4,0,-.6,-.6,-.6,-1.3c0,-.3,.1,-.7,.2,-1.3l.2,-.7c.1,-.6,.3,-1.3,.6,-1.6c.2,-.3,.6,-1,.9,-1c.4,0,.4,.3,.4,.6c0,.4,.1,.6,.4,.6c.4,0,.5,-.3,.5,-.6Z" class="g0_288"/>
<path d="M401.6,446.5l-.1,.3c1.9,1.5,2.5,3.2,2.5,6.5c0,3.3,-.5,5.1,-2.5,6.7l.2,.2c2,-1.3,3.6,-4.1,3.6,-6.8c0,-3,-1.5,-5.5,-3.7,-6.9Z" class="g0_288"/>
<path d="M411.5,455.3h7.6v-.8h-7.6Zm0,-3h7.6v-.8h-7.6Z" class="g0_288"/>
<path d="M449,437.4v.2c.4,0,1.1,.1,1.3,.2c.5,.2,.4,.4,.5,1v6.5c0,.3,-.1,.6,-.1,.8c-.1,.7,-.9,.8,-1.6,.8v.2h4.7v-.2c-.5,0,-1.3,-.1,-1.5,-.3c-.2,-.3,-.2,-.8,-.2,-1.4v-8.6c-.8,.4,-2.1,.8,-3.1,.8Z" class="g0_288"/>
<path d="M425.7,453.8h51V453h-51Z" class="g0_288"/>
<path d="M427.4,470.3h.8V456.9h-.8Z" class="g0_288"/>
<path d="M437.1,461.9c0,-.5,-.5,-.9,-1,-.9c-.3,0,-.7,.1,-1,.3c-.3,.2,-.6,.5,-.8,.9c0,-.7,-.4,-1.2,-1.1,-1.2c-1.1,0,-2.1,1.1,-2.4,1.9l.2,.1c.3,-.5,1.1,-1.7,2,-1.7c.2,0,.4,.6,.4,1c0,.3,-.1,.7,-.3,1.2l-.3,1.1c-.2,.6,-.4,1.4,-.7,1.8c-.2,.3,-.4,.7,-.8,.7c-.4,0,-.7,-.1,-.6,-.5c.1,-.3,0,-.7,-.4,-.7c-.5,0,-.7,.3,-.7,.7c0,.6,.5,1,1.1,1c1,0,1.7,-.8,2.1,-1.5c.2,.8,.6,1.5,1.4,1.5c1.2,0,2,-1.2,2.4,-1.9l-.2,-.2c-.4,.7,-1.1,1.7,-1.9,1.7c-.5,0,-.7,-.6,-.7,-1.2c0,-.4,.1,-.8,.2,-1.4l.2,-.7c.1,-.6,.3,-1.2,.6,-1.6c.2,-.3,.6,-.9,.9,-.9c.5,0,.4,.3,.4,.6c0,.4,.1,.5,.5,.5c.3,0,.5,-.2,.5,-.6Z" class="g0_288"/>
<path d="M442,464h7.6v-.8H442Z" class="g0_288"/>
<path d="M461.1,461.9c0,-.5,-.4,-.9,-1,-.9c-.3,0,-.6,.1,-.9,.3c-.4,.2,-.7,.5,-.9,.9c0,-.7,-.4,-1.2,-1,-1.2c-1.2,0,-2.1,1.1,-2.5,1.9l.2,.1c.4,-.5,1.1,-1.7,2,-1.7c.3,0,.4,.6,.4,1c0,.3,-.1,.7,-.2,1.2l-.4,1.1c-.1,.6,-.4,1.4,-.7,1.8c-.1,.3,-.4,.7,-.8,.7c-.4,0,-.7,-.1,-.6,-.5c.1,-.3,0,-.7,-.4,-.7c-.4,0,-.6,.3,-.6,.7c0,.6,.5,1,1,1c1,0,1.8,-.8,2.2,-1.5c.1,.8,.5,1.5,1.3,1.5c1.2,0,2,-1.2,2.5,-1.9l-.2,-.2c-.5,.7,-1.2,1.7,-2,1.7c-.4,0,-.6,-.6,-.6,-1.2c0,-.4,0,-.8,.1,-1.4l.2,-.7c.1,-.6,.4,-1.2,.6,-1.6c.2,-.3,.6,-.9,1,-.9c.4,0,.4,.3,.3,.6c0,.4,.2,.5,.5,.5c.4,0,.5,-.2,.5,-.6Z" class="g0_288"/>
<path d="M464.2,463c0,-.3,-.2,-.6,-.5,-.6c-.3,0,-.6,.3,-.6,.6c0,.3,.3,.5,.6,.5c.2,0,.5,-.3,.5,-.5Zm-2,6.8c.9,-.1,1.5,-.9,1.7,-1.5l-.2,-.1c-.1,.3,-.5,1.1,-1,1.1c-.1,0,-.2,-.2,-.2,-.3c0,-.2,.1,-.6,.2,-.8l.7,-2c.1,-.3,.2,-.5,.2,-.7c0,-.3,-.1,-.6,-.4,-.6c-.7,0,-1.5,.9,-1.7,1.4l.2,.1c.1,-.2,.5,-.8,.8,-.8c.1,0,.2,.1,.2,.2c0,.2,-.1,.5,-.2,.7l-.7,2c-.1,.3,-.1,.5,-.1,.7c0,.4,.1,.6,.5,.6Z" class="g0_288"/>
<path d="M467.4,470.3h.9V456.9h-.9Z" class="g0_288"/>
<path d="M473.5,463.2c1,0,1.4,-.9,1.7,-1.4l-.1,-.1c-.3,.3,-.7,1.1,-1,1.1c-.2,0,-.2,-.3,-.2,-.4c0,-.1,.1,-.3,.1,-.6c.1,-.2,.2,-.6,.4,-1c.1,-.6,.3,-1.3,.3,-1.7c0,-.5,-.2,-.7,-.6,-.7c-.9,0,-1.5,.7,-1.9,1.4c0,-.3,.1,-.4,.1,-.7c0,-.5,-.1,-.7,-.5,-.7c-1.1,0,-1.3,.9,-1.6,1.8h.2c.1,-.4,.5,-1.5,1,-1.5c.1,0,.2,0,.2,.2c0,.2,0,.6,-.1,.8c-.1,.5,-.2,.9,-.4,1.4l-.7,2h.7l.7,-1.8c.2,-.6,.6,-1.5,.9,-1.9c.3,-.3,.7,-.8,1.1,-.8c.1,0,.2,.1,.2,.4c0,0,0,.2,0,.2c-.1,.4,-.2,.7,-.3,1c-.2,.8,-.3,1.3,-.5,2.1c-.1,0,-.1,.1,-.1,.2c0,.4,.1,.7,.4,.7Z" class="g0_288"/>
<path d="M325,791c.2,-.6,.7,-1.8,1.1,-2.2c.2,-.3,.8,-.9,1.3,-.9c.5,0,.5,.5,.5,.8c0,1.1,-2,2,-2.9,2.3Zm2.5,-3.4c-.7,0,-1.3,.5,-1.8,1.2l-.1,-.1l1.5,-5.5l-2.3,.1l-.1,.2c.7,0,1.1,.1,1.1,.6c0,0,0,.2,-.1,.4l-2.6,9.6h1l.8,-2.6l.3,-.1l.8,1.9c.2,.3,.3,.6,.5,.7c.1,.1,.2,.2,.4,.2c1,0,1.3,-.6,1.8,-1.8l-.2,-.1c-.3,.6,-.5,1.2,-1,1.2c-.2,0,-.4,-.6,-.6,-1l-.6,-1.6l.3,-.2c.6,-.3,1.2,-.6,1.6,-1c.4,-.4,.6,-.7,.6,-1.1c0,-.7,-.5,-1,-1.3,-1Z" class="g0_288"/>
<path d="M330.7,789.4v.1c.4,0,.8,.1,1,.1c.3,.2,.3,.3,.3,.8v4.7c0,.3,0,.5,0,.6c-.1,.5,-.7,.6,-1.2,.6v.1h3.4v-.1c-.3,0,-.9,0,-1,-.2c-.2,-.3,-.2,-.6,-.2,-1v-6.3c-.6,.3,-1.6,.5,-2.3,.6Z" class="g0_288"/>
<path d="M341.3,783.4c-2.2,1.4,-3.7,3.8,-3.7,6.9c0,2.7,1.6,5.5,3.6,6.8l.2,-.2c-1.9,-1.6,-2.5,-3.4,-2.5,-6.7c0,-3.3,.6,-5,2.5,-6.5l-.1,-.3Z" class="g0_288"/>
<path d="M349.7,788.6c0,-.6,-.5,-1,-1,-1c-.3,0,-.7,.1,-1,.4c-.3,.2,-.6,.5,-.8,.8c0,-.6,-.4,-1.2,-1.1,-1.2c-1.1,0,-2.1,1.2,-2.4,2l.2,.1c.3,-.5,1.1,-1.7,2,-1.7c.2,0,.3,.5,.3,1c0,.3,0,.6,-.2,1.1l-.3,1.2c-.2,.6,-.4,1.4,-.7,1.8c-.2,.2,-.4,.6,-.8,.6c-.4,0,-.7,0,-.6,-.4c0,-.4,0,-.8,-.4,-.8c-.5,0,-.7,.3,-.7,.8c0,.5,.5,.9,1.1,.9c1,0,1.7,-.8,2.1,-1.4c.1,.8,.5,1.4,1.4,1.4c1.2,0,2,-1.1,2.4,-1.8l-.2,-.2c-.5,.6,-1.1,1.7,-1.9,1.7c-.5,0,-.7,-.7,-.7,-1.3c0,-.3,.1,-.8,.2,-1.3l.2,-.7c.1,-.6,.3,-1.3,.6,-1.7c.2,-.2,.6,-.9,.9,-.9c.5,0,.4,.3,.4,.6c0,.4,.1,.6,.5,.6c.3,0,.5,-.3,.5,-.6Z" class="g0_288"/>
<path d="M351,783.4l-.2,.3c1.9,1.5,2.5,3.2,2.5,6.5c0,3.3,-.5,5.1,-2.5,6.7l.2,.2c2,-1.3,3.6,-4.1,3.6,-6.8c0,-3.1,-1.5,-5.5,-3.6,-6.9Z" class="g0_288"/>
<path d="M360.8,792.2h7.6v-.8h-7.6Zm0,-3h7.6v-.8h-7.6Z" class="g0_288"/>
<path d="M396.1,774.3v.2c.4,0,1.1,.1,1.3,.2c.4,.2,.4,.4,.4,1v6.5c0,.3,0,.6,0,.8c-.1,.6,-.9,.7,-1.7,.8v.2h4.7v-.2c-.5,0,-1.2,-.1,-1.4,-.3c-.2,-.3,-.2,-.8,-.2,-1.4v-8.6c-.8,.4,-2.2,.8,-3.1,.8Z" class="g0_288"/>
<path d="M375,790.7h46.6v-.9H375Z" class="g0_288"/>
<path d="M376.7,807.2h.8V793.8h-.8Z" class="g0_288"/>
<path d="M386.4,798.8c0,-.5,-.5,-1,-1,-1c-.3,0,-.7,.2,-1,.4c-.3,.2,-.6,.5,-.8,.9c0,-.7,-.4,-1.3,-1.1,-1.3c-1.1,0,-2.1,1.2,-2.4,2l.2,.1c.4,-.5,1.1,-1.7,2,-1.7c.2,0,.4,.6,.4,1c0,.3,-.1,.7,-.2,1.2l-.4,1.1c-.1,.6,-.4,1.4,-.7,1.8c-.2,.3,-.4,.7,-.8,.7c-.4,0,-.7,-.1,-.6,-.5c.1,-.3,0,-.8,-.4,-.8c-.5,0,-.7,.4,-.7,.8c0,.6,.5,.9,1.1,.9c1,0,1.7,-.7,2.1,-1.4h.1c.1,.8,.5,1.4,1.3,1.4c1.2,0,2,-1.1,2.4,-1.8l-.1,-.2c-.5,.7,-1.2,1.7,-2,1.7c-.5,0,-.7,-.6,-.7,-1.2c0,-.4,.1,-.8,.2,-1.4l.2,-.7c.1,-.6,.4,-1.2,.6,-1.6c.2,-.3,.6,-1,1,-1c.4,0,.3,.3,.3,.7c0,.4,.1,.5,.5,.5c.3,0,.5,-.2,.5,-.6Z" class="g0_288"/>
<path d="M391.3,800.9H399v-.8h-7.7Z" class="g0_288"/>
<path d="M410.4,798.8c0,-.5,-.4,-1,-1,-1c-.3,0,-.6,.2,-.9,.4c-.3,.2,-.7,.5,-.9,.9c0,-.7,-.4,-1.3,-1,-1.3c-1.2,0,-2.1,1.2,-2.5,2l.2,.1c.4,-.5,1.1,-1.7,2,-1.7c.3,0,.4,.6,.4,1c0,.3,-.1,.7,-.2,1.2l-.3,1.1c-.2,.6,-.4,1.4,-.8,1.8c-.1,.3,-.4,.7,-.7,.7c-.5,0,-.8,-.1,-.7,-.5c.1,-.3,0,-.8,-.4,-.8c-.4,0,-.6,.4,-.6,.8c0,.6,.5,.9,1,.9c1.1,0,1.8,-.7,2.2,-1.4c.1,.8,.5,1.4,1.3,1.4c1.2,0,2.1,-1.1,2.5,-1.8l-.2,-.2c-.5,.7,-1.2,1.7,-2,1.7c-.4,0,-.6,-.6,-.6,-1.2c0,-.4,0,-.8,.2,-1.4l.1,-.7c.1,-.6,.4,-1.2,.7,-1.6c.1,-.3,.5,-1,.9,-1c.4,0,.4,.3,.4,.7c-.1,.4,.1,.5,.4,.5c.4,0,.5,-.2,.5,-.6Z" class="g0_288"/>
<path d="M412,799.6v.1c.3,0,.8,.1,.9,.2c.4,.2,.3,.3,.4,.7v4.8c0,.2,0,.4,-.1,.5c0,.5,-.6,.6,-1.2,.6v.2h3.5v-.2c-.4,0,-.9,0,-1.1,-.2c-.2,-.2,-.2,-.6,-.2,-1V799c-.5,.3,-1.5,.6,-2.2,.6Z" class="g0_288"/>
<path d="M419.1,807.2h.8V793.8h-.8Z" class="g0_288"/>
<path d="M424.8,793.3c0,.4,.3,.8,.7,.8c.2,0,.3,0,.4,-.1c0,.4,0,.7,-.3,1c-.2,.3,-.5,.7,-1,1l.3,.4c.4,-.2,.6,-.4,.9,-.6c.5,-.5,.9,-1,.9,-2c0,-.9,-.3,-1.3,-.9,-1.3c-.6,0,-1,.3,-1,.8Z" class="g0_288"/>
<path d="M433.2,791c.1,-.6,.7,-1.8,1,-2.2c.3,-.3,.8,-.9,1.3,-.9c.6,0,.6,.5,.6,.8c-.1,1.1,-2,2,-2.9,2.3Zm2.4,-3.4c-.6,0,-1.3,.5,-1.7,1.2l-.1,-.1l1.5,-5.5l-2.3,.1l-.1,.2c.6,0,1.1,.1,1.1,.6c0,0,0,.2,-.1,.4l-2.6,9.6h1l.7,-2.6l.4,-.1l.8,1.9c.2,.3,.3,.6,.4,.7c.2,.1,.3,.2,.5,.2c1,0,1.3,-.6,1.8,-1.8l-.3,-.1c-.3,.6,-.5,1.2,-.9,1.2c-.2,0,-.5,-.6,-.6,-1l-.7,-1.6l.3,-.2c.7,-.3,1.3,-.6,1.7,-1c.4,-.4,.6,-.7,.6,-1.1c0,-.7,-.5,-1,-1.4,-1Z" class="g0_288"/>
<path d="M440.1,791.8c-.7,0,-1.1,-.5,-1.1,-1.2c0,-.8,.5,-1.6,1.4,-1.6c1.2,0,1.3,1,1.3,1.9c0,.9,-.3,1.5,-.7,2.1c-.3,.4,-.7,.9,-1.2,1.4c-.5,.5,-1.1,1.1,-1.8,1.7v.3h4.5l.4,-2h-.3c-.1,.2,-.2,.4,-.2,.5c-.2,.4,-.5,.6,-1,.6h-2.1v-.1c.4,-.3,.9,-.7,1.3,-1c.8,-.7,1.6,-1.4,2,-2.3c.2,-.4,.3,-.8,.3,-1.2c0,-.3,-.1,-.6,-.2,-.8c-.4,-.8,-1.1,-1.3,-2.2,-1.3c-.7,0,-1.3,.2,-1.7,.6c-.4,.3,-.7,.8,-.7,1.4c0,.5,.1,.8,.3,1.1c.2,.2,.5,.4,.9,.4c.4,0,.7,-.2,.8,-.5Z" class="g0_288"/>
<path d="M449.5,783.4c-2.2,1.4,-3.7,3.8,-3.7,6.9c0,2.7,1.6,5.5,3.6,6.8l.2,-.2c-2,-1.6,-2.5,-3.4,-2.5,-6.7c0,-3.3,.6,-5,2.5,-6.5l-.1,-.3Z" class="g0_288"/>
<path d="M457.8,788.6c0,-.6,-.4,-1,-1,-1c-.3,0,-.6,.1,-.9,.4c-.3,.2,-.6,.5,-.9,.8c0,-.6,-.4,-1.2,-1,-1.2c-1.2,0,-2.1,1.2,-2.5,2l.2,.1c.4,-.5,1.1,-1.7,2,-1.7c.3,0,.4,.5,.4,1c0,.3,0,.6,-.2,1.1l-.3,1.2c-.2,.6,-.4,1.4,-.8,1.8c-.1,.2,-.4,.6,-.7,.6c-.5,0,-.8,0,-.7,-.4c.1,-.4,.1,-.8,-.4,-.8c-.4,0,-.6,.3,-.6,.8c0,.5,.5,.9,1.1,.9c1,0,1.7,-.8,2.1,-1.4c.1,.8,.5,1.4,1.3,1.4c1.2,0,2.1,-1.1,2.5,-1.8l-.2,-.2c-.5,.6,-1.2,1.7,-2,1.7c-.4,0,-.6,-.7,-.6,-1.3c0,-.3,0,-.8,.2,-1.3l.1,-.7c.1,-.6,.4,-1.3,.7,-1.7c.1,-.2,.5,-.9,.9,-.9c.4,0,.4,.3,.4,.6c-.1,.4,.1,.6,.4,.6c.4,0,.5,-.3,.5,-.6Z" class="g0_288"/>
<path d="M459.1,783.4l-.1,.3c1.9,1.5,2.5,3.2,2.5,6.5c0,3.3,-.6,5.1,-2.5,6.7l.2,.2c2,-1.3,3.6,-4.1,3.6,-6.8c0,-3.1,-1.5,-5.5,-3.7,-6.9Z" class="g0_288"/>
<path d="M469,792.2h7.6v-.8H469Zm0,-3h7.6v-.8H469Z" class="g0_288"/>
<path d="M504.2,774.3v.2c.5,0,1.1,.1,1.3,.2c.5,.2,.5,.4,.5,1v6.5c0,.3,0,.6,-.1,.8c0,.6,-.8,.7,-1.6,.8v.2H509v-.2c-.5,0,-1.2,-.1,-1.4,-.3c-.3,-.3,-.3,-.8,-.3,-1.4v-8.6c-.8,.4,-2.1,.8,-3.1,.8Z" class="g0_288"/>
<path d="M483.2,790.7h46.5v-.9H483.2Z" class="g0_288"/>
<path d="M484.8,807.2h.9V793.8h-.9Z" class="g0_288"/>
<path d="M494.5,798.8c0,-.5,-.4,-1,-.9,-1c-.4,0,-.7,.2,-1,.4c-.3,.2,-.6,.5,-.8,.9c0,-.7,-.5,-1.3,-1.1,-1.3c-1.1,0,-2.1,1.2,-2.4,2l.2,.1c.3,-.5,1.1,-1.7,1.9,-1.7c.3,0,.4,.6,.4,1c0,.3,0,.7,-.2,1.2l-.3,1.1c-.2,.6,-.4,1.4,-.7,1.8c-.2,.3,-.5,.7,-.8,.7c-.5,0,-.8,-.1,-.7,-.5c.1,-.3,.1,-.8,-.4,-.8c-.4,0,-.6,.4,-.6,.8c0,.6,.5,.9,1.1,.9c1,0,1.7,-.7,2.1,-1.4c.1,.8,.5,1.4,1.4,1.4c1.1,0,2,-1.1,2.4,-1.8l-.2,-.2c-.5,.7,-1.2,1.7,-2,1.7c-.4,0,-.6,-.6,-.6,-1.2c0,-.4,.1,-.8,.2,-1.4l.2,-.7c.1,-.6,.3,-1.2,.6,-1.6c.2,-.3,.6,-1,.9,-1c.4,0,.4,.3,.4,.7c0,.4,.1,.5,.4,.5c.4,0,.5,-.2,.5,-.6Z" class="g0_288"/>
<path d="M499.5,800.9h7.6v-.8h-7.6Z" class="g0_288"/>
<path d="M518.6,798.8c0,-.5,-.5,-1,-1,-1c-.3,0,-.7,.2,-1,.4c-.3,.2,-.6,.5,-.8,.9c0,-.7,-.4,-1.3,-1.1,-1.3c-1.1,0,-2.1,1.2,-2.4,2l.2,.1c.4,-.5,1.1,-1.7,2,-1.7c.2,0,.4,.6,.4,1c0,.3,-.1,.7,-.2,1.2l-.4,1.1c-.1,.6,-.4,1.4,-.7,1.8c-.2,.3,-.4,.7,-.8,.7c-.4,0,-.7,-.1,-.6,-.5c.1,-.3,0,-.8,-.4,-.8c-.5,0,-.6,.4,-.6,.8c0,.6,.4,.9,1,.9c1,0,1.7,-.7,2.1,-1.4h.1c.1,.8,.5,1.4,1.3,1.4c1.2,0,2,-1.1,2.5,-1.8l-.2,-.2c-.5,.7,-1.2,1.7,-2,1.7c-.4,0,-.7,-.6,-.7,-1.2c0,-.4,.1,-.8,.2,-1.4l.2,-.7c.1,-.6,.4,-1.2,.6,-1.6c.2,-.3,.6,-1,1,-1c.4,0,.3,.3,.3,.7c0,.4,.2,.5,.5,.5c.3,0,.5,-.2,.5,-.6Z" class="g0_288"/>
<path d="M521.3,802c-.6,0,-1,-.5,-1,-1.1c0,-.8,.4,-1.7,1.3,-1.7c1.2,0,1.3,1,1.3,1.9c0,1,-.3,1.5,-.7,2.2c-.3,.4,-.7,.8,-1.1,1.3c-.5,.5,-1.1,1.1,-1.9,1.8v.3h4.6l.3,-2.1h-.3c0,.2,-.1,.4,-.2,.6c-.1,.3,-.5,.5,-1,.5h-2.1c.5,-.4,.9,-.7,1.4,-1.1c.7,-.6,1.5,-1.4,1.9,-2.2c.2,-.4,.3,-.8,.3,-1.2c0,-.4,-.1,-.6,-.2,-.9c-.3,-.7,-1.1,-1.3,-2.2,-1.3c-.7,0,-1.3,.3,-1.7,.6c-.4,.3,-.7,.8,-.7,1.5c0,.4,.2,.8,.4,1c.2,.3,.5,.4,.9,.4c.4,0,.7,-.2,.7,-.5Z" class="g0_288"/>
<path d="M527.2,807.2h.9V793.8h-.9Z" class="g0_288"/>
<path d="M345.6,898.7l-.1,.2h4.7l.1,-.2c-.6,0,-1,-.2,-1.3,-.3c-.2,-.2,-.4,-.4,-.4,-.8c0,-.2,.1,-.4,.2,-.7l.9,-3.3h1c1.1,0,1.1,1.2,1,2.2h.3l.9,-4.2h-.3c-.4,.8,-.8,1.6,-1.9,1.6h-1l1.2,-4.3h1.7c.3,0,.6,0,.8,0c.8,.4,1.5,1.3,1.6,2.4h.3v-2.8H348v.3c.4,0,.8,.1,.9,.2c.2,.2,.4,.4,.4,.7c0,.1,-.1,.2,-.1,.4c0,.2,-.1,.4,-.1,.6l-1.7,6.2c0,.3,-.1,.6,-.2,.8c-.2,.4,-.5,.7,-.8,.8c-.2,.1,-.5,.2,-.8,.2Z" class="g0_288"/>
<path d="M361.4,888.2c-2.2,1.4,-3.7,3.8,-3.7,6.9c0,2.7,1.6,5.5,3.7,6.8l.1,-.3C359.6,900.1,359,898.3,359,895c0,-3.3,.6,-5,2.5,-6.5l-.1,-.3Z" class="g0_288"/>
<path d="M369.8,893.3c0,-.5,-.5,-.9,-1,-.9c-.3,0,-.7,.1,-1,.3c-.3,.3,-.6,.6,-.8,.9c0,-.6,-.4,-1.2,-1.1,-1.2c-1.1,0,-2.1,1.2,-2.4,2l.2,.1c.3,-.5,1.1,-1.7,2,-1.7c.2,0,.4,.5,.4,.9c0,.3,-.1,.7,-.3,1.2l-.3,1.2c-.2,.6,-.4,1.3,-.7,1.7c-.2,.3,-.4,.7,-.8,.7c-.4,0,-.7,-.1,-.6,-.5c.1,-.3,0,-.7,-.4,-.7c-.5,0,-.7,.3,-.7,.8c0,.5,.5,.9,1.1,.9c1,0,1.7,-.8,2.1,-1.4c.2,.8,.6,1.4,1.4,1.4c1.2,0,2,-1.2,2.4,-1.8l-.2,-.2c-.4,.6,-1.1,1.6,-1.9,1.6c-.5,0,-.7,-.6,-.7,-1.2c0,-.3,.1,-.8,.2,-1.3l.2,-.7c.1,-.6,.3,-1.3,.6,-1.7c.2,-.2,.6,-.9,.9,-.9c.5,0,.4,.3,.4,.6c0,.4,.1,.6,.5,.6c.3,0,.5,-.3,.5,-.7Z" class="g0_288"/>
<path d="M371.1,888.2l-.2,.3c1.9,1.5,2.6,3.2,2.6,6.5c0,3.3,-.6,5.1,-2.6,6.6l.2,.3c2.1,-1.3,3.6,-4.1,3.6,-6.8c0,-3.1,-1.5,-5.5,-3.6,-6.9Z" class="g0_288"/>
<path d="M380.9,897h7.7v-.8h-7.7Zm0,-3h7.7v-.9h-7.7Z" class="g0_288"/>
<path d="M394.1,887c0,.6,.5,1,1.1,1c.4,0,.8,-.2,1.3,-.6c.8,-.7,2,-2.3,2.8,-3.5c.4,-.6,.7,-1.2,1,-1.8c.4,-.7,1.1,-2.1,1.1,-2.9c0,-.2,0,-.4,-.1,-.6c-.1,-.2,-.3,-.2,-.5,-.2c-.1,0,-.3,0,-.4,.2c-.2,.1,-.2,.3,-.2,.6c0,.4,.2,.9,.2,1.3c0,.6,-.2,1.2,-.5,1.6c-.2,.5,-.4,.9,-.8,1.4H399l-.3,-1.9c-.1,-.5,-.3,-1.6,-.4,-2c-.2,-.7,-.3,-1.2,-1.3,-1.2c-1.2,0,-1.4,1.7,-1.6,2.5l.3,.1c.1,-.6,.6,-2.3,1,-2.3c.3,0,.5,1,.6,1.3c0,.3,.1,.7,.2,1.3l.6,3.5c-.3,.8,-1.2,1.7,-1.8,2.2c-.2,.2,-.5,.2,-.7,.2c-.1,0,-.2,0,-.2,-.1c-.2,-.3,-.2,-.8,-.7,-.8c-.4,0,-.6,.3,-.6,.7Z" class="g0_288"/>
<path d="M403,880.1v.2c.4,0,.8,0,1,.1c.3,.2,.3,.3,.3,.7v4.8c0,.2,0,.4,0,.6c-.1,.4,-.7,.5,-1.2,.5v.2h3.4V887c-.3,0,-.9,0,-1,-.2c-.2,-.2,-.2,-.6,-.2,-1v-6.2c-.6,.2,-1.6,.5,-2.3,.5Z" class="g0_288"/>
<path d="M424.5,871.9v.1c.3,0,.8,.1,.9,.2c.4,.1,.3,.2,.4,.7v4.8c0,.2,-.1,.4,-.1,.5c-.1,.5,-.6,.6,-1.2,.6v.2h3.4v-.2c-.3,0,-.9,0,-1,-.2c-.2,-.3,-.2,-.6,-.2,-1v-6.3c-.6,.3,-1.5,.5,-2.2,.6Z" class="g0_288"/>
<path d="M410.2,881.4h31.7v-.8H410.2Z" class="g0_288"/>
<path d="M411.8,892.1h.6v-9.8h-.6Z" class="g0_288"/>
<path d="M419.2,885.9c0,-.3,-.3,-.7,-.7,-.7c-.3,0,-.5,.1,-.7,.3c-.3,.2,-.5,.4,-.6,.6c0,-.4,-.3,-.9,-.8,-.9c-.8,0,-1.5,.9,-1.8,1.5l.2,.1c.2,-.4,.7,-1.3,1.4,-1.3c.2,0,.3,.4,.3,.7c0,.3,-.1,.5,-.2,.9l-.2,.8c-.1,.5,-.3,1,-.5,1.3c-.2,.2,-.4,.5,-.6,.5c-.3,0,-.6,0,-.5,-.3c.1,-.3,0,-.6,-.3,-.6c-.3,0,-.4,.3,-.4,.6c0,.4,.3,.7,.7,.7c.8,0,1.3,-.6,1.6,-1.1c.1,.6,.4,1.1,1,1.1c.8,0,1.5,-.9,1.8,-1.4l-.2,-.1c-.3,.5,-.8,1.2,-1.4,1.2c-.3,0,-.5,-.4,-.5,-.9c0,-.2,.1,-.6,.2,-1l.1,-.5c.1,-.4,.3,-.9,.4,-1.2c.2,-.2,.5,-.7,.7,-.7c.3,0,.3,.3,.3,.5c0,.3,.1,.4,.3,.4c.3,0,.4,-.2,.4,-.5Z" class="g0_288"/>
<path d="M420.8,887.5h5.6v-.6h-5.6Z" class="g0_288"/>
<path d="M432.8,885.9c0,-.3,-.4,-.7,-.8,-.7c-.2,0,-.4,.1,-.6,.3c-.3,.2,-.5,.4,-.7,.6c0,-.4,-.3,-.9,-.7,-.9c-.9,0,-1.6,.9,-1.8,1.5l.1,.1c.3,-.4,.8,-1.3,1.5,-1.3c.2,0,.3,.4,.3,.7c0,.3,-.1,.5,-.2,.9l-.2,.8c-.2,.5,-.3,1,-.6,1.3c-.1,.2,-.3,.5,-.5,.5c-.3,0,-.6,0,-.5,-.3c.1,-.3,0,-.6,-.3,-.6c-.3,0,-.4,.3,-.4,.6c0,.4,.3,.7,.7,.7c.8,0,1.3,-.6,1.6,-1.1c.1,.6,.4,1.1,1,1.1c.8,0,1.4,-.9,1.8,-1.4l-.2,-.1c-.3,.5,-.8,1.2,-1.4,1.2c-.3,0,-.5,-.4,-.5,-.9c0,-.2,0,-.6,.1,-1l.2,-.5c0,-.4,.2,-.9,.4,-1.2c.2,-.2,.4,-.7,.7,-.7c.3,0,.3,.3,.3,.5c-.1,.3,.1,.4,.3,.4c.3,0,.4,-.2,.4,-.5Z" class="g0_288"/>
<path d="M433.9,886.5v.2c.3,0,.7,0,.8,.1c.2,.1,.2,.2,.2,.5v3.6c0,.2,0,.3,0,.4c-.1,.4,-.5,.4,-.9,.5v.1h2.6v-.1c-.3,-.1,-.7,-.1,-.8,-.2c-.2,-.2,-.2,-.4,-.2,-.8v-4.7c-.4,.2,-1.1,.4,-1.7,.4Z" class="g0_288"/>
<path d="M439.8,892.1h.6v-9.8h-.6Z" class="g0_288"/>
<path d="M450.7,880.6h-3.2v1h3.2v3.2h1v-3.2H455v-1h-3.3v-3.3h-1v3.3Z" class="g0_288"/>
<path d="M457.7,887c0,.6,.5,1,1.1,1c.5,0,.8,-.2,1.3,-.6c.8,-.7,2.1,-2.3,2.8,-3.5c.4,-.6,.8,-1.2,1,-1.8c.4,-.7,1.2,-2.1,1.2,-2.9c0,-.2,-.1,-.4,-.2,-.6c-.1,-.2,-.3,-.2,-.4,-.2c-.2,0,-.3,0,-.5,.2c-.1,.1,-.2,.3,-.2,.6c0,.4,.2,.9,.2,1.3c0,.6,-.2,1.2,-.4,1.6c-.3,.5,-.5,.9,-.8,1.4h-.1l-.4,-1.9c-.1,-.5,-.3,-1.6,-.4,-2c-.2,-.7,-.3,-1.2,-1.3,-1.2c-1.2,0,-1.3,1.7,-1.6,2.5l.3,.1c.1,-.6,.6,-2.3,1.1,-2.3c.3,0,.4,1,.5,1.3c.1,.3,.1,.7,.3,1.3l.5,3.5c-.3,.8,-1.1,1.7,-1.7,2.2c-.3,.2,-.6,.2,-.7,.2q-.2,0,-.3,-.1c-.2,-.3,-.2,-.8,-.7,-.8c-.4,0,-.6,.3,-.6,.7Z" class="g0_288"/>
<path d="M467.9,882.5c-.7,0,-1.1,-.5,-1.1,-1.1c0,-.8,.4,-1.7,1.3,-1.7c1.2,0,1.3,1,1.3,1.9c0,1,-.2,1.5,-.7,2.2c-.3,.4,-.6,.8,-1.1,1.3c-.5,.5,-1.1,1.1,-1.9,1.8v.3h4.6l.4,-2.1h-.3c-.1,.2,-.2,.4,-.3,.6c-.1,.3,-.4,.5,-1,.5H467c.5,-.4,1,-.7,1.4,-1.1c.7,-.6,1.5,-1.4,1.9,-2.2c.2,-.4,.3,-.8,.3,-1.2c0,-.3,-.1,-.6,-.2,-.9c-.3,-.7,-1,-1.3,-2.1,-1.3c-.7,0,-1.4,.3,-1.8,.6c-.4,.3,-.7,.8,-.7,1.5c0,.4,.2,.8,.4,1c.2,.3,.5,.4,.9,.4c.4,0,.7,-.1,.8,-.5Z" class="g0_288"/>
<path d="M488.1,871.9v.1c.3,0,.8,.1,.9,.2c.4,.1,.4,.2,.4,.7v4.8c0,.2,0,.4,-.1,.5c0,.5,-.6,.6,-1.2,.6v.2h3.5v-.2c-.4,0,-.9,0,-1.1,-.2c-.2,-.3,-.2,-.6,-.2,-1v-6.3c-.6,.3,-1.5,.5,-2.2,.6Z" class="g0_288"/>
<path d="M473.9,881.4h31.6v-.8H473.9Z" class="g0_288"/>
<path d="M475.4,892.1h.6v-9.8h-.6Z" class="g0_288"/>
<path d="M482.8,885.9c0,-.3,-.3,-.7,-.7,-.7c-.2,0,-.5,.1,-.7,.3c-.2,.2,-.5,.4,-.6,.6c0,-.4,-.3,-.9,-.8,-.9c-.8,0,-1.5,.9,-1.8,1.5l.2,.1c.2,-.4,.8,-1.3,1.4,-1.3c.2,0,.3,.4,.3,.7c0,.3,0,.5,-.1,.9l-.3,.8c-.1,.5,-.3,1,-.5,1.3c-.1,.2,-.3,.5,-.6,.5c-.3,0,-.5,0,-.5,-.3c.1,-.3,.1,-.6,-.2,-.6c-.4,0,-.5,.3,-.5,.6c0,.4,.3,.7,.8,.7c.7,0,1.2,-.6,1.5,-1.1c.1,.6,.4,1.1,1,1.1c.9,0,1.5,-.9,1.8,-1.4l-.1,-.1c-.4,.5,-.9,1.2,-1.5,1.2c-.3,0,-.4,-.4,-.4,-.9c0,-.2,0,-.6,.1,-1l.1,-.5c.1,-.4,.3,-.9,.5,-1.2c.1,-.2,.4,-.7,.7,-.7c.3,0,.2,.3,.2,.5c0,.3,.1,.4,.4,.4c.2,0,.3,-.2,.3,-.5Z" class="g0_288"/>
<path d="M484.5,887.5H490v-.6h-5.5Z" class="g0_288"/>
<path d="M496.4,885.9c0,-.3,-.3,-.7,-.7,-.7c-.3,0,-.5,.1,-.7,.3c-.2,.2,-.5,.4,-.6,.6c0,-.4,-.3,-.9,-.8,-.9c-.8,0,-1.5,.9,-1.8,1.5l.2,.1c.2,-.4,.8,-1.3,1.4,-1.3c.2,0,.3,.4,.3,.7c0,.3,-.1,.5,-.2,.9l-.2,.8c-.1,.5,-.3,1,-.5,1.3c-.2,.2,-.3,.5,-.6,.5c-.3,0,-.6,0,-.5,-.3c.1,-.3,0,-.6,-.3,-.6c-.3,0,-.4,.3,-.4,.6c0,.4,.3,.7,.7,.7c.8,0,1.3,-.6,1.6,-1.1c.1,.6,.4,1.1,1,1.1c.9,0,1.5,-.9,1.8,-1.4l-.2,-.1c-.3,.5,-.8,1.2,-1.4,1.2c-.3,0,-.5,-.4,-.5,-.9c0,-.2,.1,-.6,.2,-1l.1,-.5c.1,-.4,.3,-.9,.5,-1.2c.1,-.2,.4,-.7,.6,-.7c.3,0,.3,.3,.3,.5c0,.3,.1,.4,.3,.4c.3,0,.4,-.2,.4,-.5Z" class="g0_288"/>
<path d="M498.5,888.4c-.5,0,-.8,-.4,-.8,-.9c0,-.6,.3,-1.2,1,-1.2c.9,0,1,.7,1,1.4c0,.7,-.2,1.1,-.6,1.6c-.2,.3,-.5,.7,-.8,1c-.4,.4,-.9,.8,-1.4,1.3v.3h3.4l.3,-1.6h-.2c-.1,.2,-.2,.3,-.2,.4c-.1,.3,-.4,.5,-.8,.5h-1.6v-.1c.4,-.2,.8,-.5,1.1,-.8c.5,-.5,1.1,-1,1.4,-1.7c.2,-.3,.2,-.6,.2,-.9c0,-.2,0,-.4,-.1,-.6c-.3,-.6,-.8,-1,-1.6,-1c-.6,0,-1,.2,-1.3,.4c-.3,.3,-.6,.7,-.6,1.2c0,.3,.2,.6,.3,.7c.2,.2,.4,.4,.7,.4c.3,0,.5,-.2,.6,-.4Z" class="g0_288"/>
<path d="M503.4,892.1h.6v-9.8h-.6Z" class="g0_288"/>
<path d="M395.1,895.5H507.3v-.9H395.1Z" class="g0_288"/>
<path d="M424.5,898.5v.2c.3,0,.8,0,.9,.1c.4,.2,.3,.3,.4,.7v4.8c0,.2,-.1,.4,-.1,.5c-.1,.5,-.6,.6,-1.2,.6v.2h3.4v-.2c-.3,0,-.9,0,-1,-.2c-.2,-.2,-.2,-.6,-.2,-1v-6.3c-.6,.3,-1.5,.6,-2.2,.6Z" class="g0_288"/>
<path d="M410.2,908h31.7v-.8H410.2Z" class="g0_288"/>
<path d="M411.8,918.7h.6v-9.8h-.6Z" class="g0_288"/>
<path d="M419.2,912.6c0,-.4,-.3,-.7,-.7,-.7c-.3,0,-.5,.1,-.7,.2c-.3,.2,-.5,.4,-.6,.7c0,-.5,-.3,-.9,-.8,-.9c-.8,0,-1.5,.8,-1.8,1.4l.2,.1c.2,-.4,.7,-1.2,1.4,-1.2c.2,0,.3,.4,.3,.7c0,.2,-.1,.5,-.2,.8l-.2,.9c-.1,.4,-.3,1,-.5,1.3c-.2,.2,-.4,.5,-.6,.5c-.3,0,-.6,-.1,-.5,-.4c.1,-.2,0,-.5,-.3,-.5c-.3,0,-.4,.2,-.4,.5c0,.4,.3,.7,.7,.7c.8,0,1.3,-.6,1.6,-1.1v.1c.1,.5,.4,1,1,1c.8,0,1.5,-.8,1.8,-1.3l-.2,-.2c-.3,.5,-.8,1.2,-1.4,1.2c-.3,0,-.5,-.4,-.5,-.9c0,-.2,.1,-.5,.2,-.9l.1,-.6c.1,-.4,.3,-.9,.4,-1.1c.2,-.2,.5,-.7,.7,-.7c.3,0,.3,.2,.3,.4c0,.3,.1,.4,.3,.4c.3,0,.4,-.2,.4,-.4Z" class="g0_288"/>
<path d="M420.8,914.1h5.6v-.6h-5.6Z" class="g0_288"/>
<path d="M432.8,912.6c0,-.4,-.4,-.7,-.8,-.7c-.2,0,-.4,.1,-.6,.2c-.3,.2,-.5,.4,-.7,.7c0,-.5,-.3,-.9,-.7,-.9c-.9,0,-1.6,.8,-1.8,1.4l.1,.1c.3,-.4,.8,-1.2,1.5,-1.2c.2,0,.3,.4,.3,.7c0,.2,-.1,.5,-.2,.8l-.2,.9c-.2,.4,-.3,1,-.6,1.3c-.1,.2,-.3,.5,-.5,.5c-.3,0,-.6,-.1,-.5,-.4c.1,-.2,0,-.5,-.3,-.5c-.3,0,-.4,.2,-.4,.5c0,.4,.3,.7,.7,.7c.8,0,1.3,-.6,1.6,-1.1v.1c.1,.5,.4,1,1,1c.8,0,1.4,-.8,1.8,-1.3l-.2,-.2c-.3,.5,-.8,1.2,-1.4,1.2c-.3,0,-.5,-.4,-.5,-.9c0,-.2,0,-.5,.1,-.9l.2,-.6c0,-.4,.2,-.9,.4,-1.1c.2,-.2,.4,-.7,.7,-.7c.3,0,.3,.2,.3,.4c-.1,.3,.1,.4,.3,.4c.3,0,.4,-.2,.4,-.4Z" class="g0_288"/>
<path d="M433.9,913.2v.1c.3,0,.7,0,.8,.1c.2,.1,.2,.2,.2,.6v3.5c0,.2,0,.3,0,.5c-.1,.3,-.5,.4,-.9,.4v.1h2.6v-.1c-.3,0,-.7,0,-.8,-.2c-.2,-.1,-.2,-.4,-.2,-.7v-4.7c-.4,.2,-1.1,.4,-1.7,.4Z" class="g0_288"/>
<path d="M439.8,918.7h.6v-9.8h-.6Z" class="g0_288"/>
<path d="M450.7,907.2h-3.2v1h3.2v3.3h1v-3.3H455v-1h-3.3v-3.3h-1v3.3Z" class="g0_288"/>
<path d="M474.8,898.5v.2c.3,0,.8,0,.9,.1c.3,.2,.3,.3,.3,.7v4.8c0,.2,0,.4,0,.5c-.1,.5,-.7,.6,-1.2,.6v.2h3.4v-.2c-.3,0,-.9,0,-1,-.2c-.2,-.2,-.2,-.6,-.2,-1v-6.3c-.6,.3,-1.5,.6,-2.2,.6Z" class="g0_288"/>
<path d="M460.5,908h31.7v-.8H460.5Z" class="g0_288"/>
<path d="M462.1,918.7h.6v-9.8h-.6Z" class="g0_288"/>
<path d="M469.5,912.6c0,-.4,-.3,-.7,-.7,-.7c-.3,0,-.5,.1,-.7,.2c-.3,.2,-.5,.4,-.7,.7c0,-.5,-.3,-.9,-.7,-.9c-.8,0,-1.6,.8,-1.8,1.4l.2,.1c.2,-.4,.7,-1.2,1.4,-1.2c.2,0,.3,.4,.3,.7c0,.2,-.1,.5,-.2,.8l-.2,.9c-.1,.4,-.3,1,-.5,1.3c-.2,.2,-.4,.5,-.6,.5c-.3,0,-.6,-.1,-.5,-.4c.1,-.2,0,-.5,-.3,-.5c-.3,0,-.4,.2,-.4,.5c0,.4,.3,.7,.7,.7c.8,0,1.3,-.6,1.6,-1.1v.1c.1,.5,.4,1,1,1c.8,0,1.5,-.8,1.8,-1.3l-.2,-.2c-.3,.5,-.8,1.2,-1.4,1.2c-.3,0,-.5,-.4,-.5,-.9c0,-.2,.1,-.5,.2,-.9l.1,-.6c.1,-.4,.2,-.9,.4,-1.1c.2,-.2,.5,-.7,.7,-.7c.3,0,.3,.2,.3,.4c0,.3,.1,.4,.3,.4c.3,0,.4,-.2,.4,-.4Z" class="g0_288"/>
<path d="M471.1,914.1h5.6v-.6h-5.6Z" class="g0_288"/>
<path d="M483.1,912.6c0,-.4,-.4,-.7,-.8,-.7c-.2,0,-.4,.1,-.7,.2c-.2,.2,-.4,.4,-.6,.7c0,-.5,-.3,-.9,-.7,-.9c-.9,0,-1.6,.8,-1.8,1.4l.1,.1c.3,-.4,.8,-1.2,1.5,-1.2c.2,0,.3,.4,.3,.7c0,.2,-.1,.5,-.2,.8l-.2,.9c-.2,.4,-.3,1,-.6,1.3c-.1,.2,-.3,.5,-.5,.5c-.4,0,-.6,-.1,-.5,-.4c.1,-.2,0,-.5,-.3,-.5c-.3,0,-.5,.2,-.5,.5c0,.4,.4,.7,.8,.7c.8,0,1.3,-.6,1.6,-1.1v.1c.1,.5,.4,1,1,1c.8,0,1.4,-.8,1.8,-1.3l-.2,-.2c-.3,.5,-.8,1.2,-1.4,1.2c-.3,0,-.5,-.4,-.5,-.9c0,-.2,0,-.5,.1,-.9l.2,-.6c0,-.4,.2,-.9,.4,-1.1c.1,-.2,.4,-.7,.7,-.7c.3,0,.3,.2,.3,.4c-.1,.3,.1,.4,.3,.4c.3,0,.4,-.2,.4,-.4Z" class="g0_288"/>
<path d="M485.1,915c-.5,0,-.8,-.4,-.8,-.9c0,-.6,.4,-1.2,1,-1.2c.9,0,1,.7,1,1.4c0,.7,-.2,1.1,-.5,1.6c-.2,.3,-.5,.7,-.9,1.1c-.3,.3,-.8,.8,-1.4,1.3v.2H487l.3,-1.6H487c0,.2,-.1,.4,-.1,.5c-.2,.2,-.4,.4,-.8,.4h-1.6c.4,-.3,.7,-.6,1,-.8c.6,-.5,1.2,-1.1,1.5,-1.7c.1,-.3,.2,-.6,.2,-.9c0,-.3,0,-.5,-.1,-.7c-.3,-.6,-.8,-1,-1.7,-1c-.5,0,-1,.2,-1.3,.5c-.3,.2,-.5,.6,-.5,1.1c0,.3,.1,.6,.3,.8c.1,.2,.4,.3,.7,.3c.3,0,.5,-.2,.5,-.4Z" class="g0_288"/>
<path d="M490,918.7h.7v-9.8H490Z" class="g0_288"/>
</svg>