<?xml version="1.0" encoding="UTF-8" standalone="no"?>
<!DOCTYPE svg PUBLIC "-//W3C//DTD SVG 1.1//EN"
"http://www.w3.org/Graphics/SVG/1.1/DTD/svg11.dtd">
<svg viewBox="0 0 811 1017" version="1.1" xmlns="http://www.w3.org/2000/svg" xmlns:xlink="http://www.w3.org/1999/xlink">
<defs>
<style type="text/css"><![CDATA[
.g0_409{
fill: #000;
}
]]></style>
</defs>
<path d="M675.3,341.8h.4V260.6h-.4Z" class="g0_409"/>
<path d="M611.6,260.6v3.2l-.3,-.1l-6.2,-2.9l-.4,-.2l.4,-.2l6.2,-2.9l.3,-.1v.3l-.1,.2l-6.2,2.9l-.2,-.4h.2l6.2,3l-.2,.3l-.1,-.2v-2.9Z" class="g0_409"/>
<path d="M611.2,260.6h.4v-2.9h-.4Z" class="g0_409"/>
<path d="M611.4,260.8h.2v-.4h-.2Z" class="g0_409"/>
<path d="M611.6,260.8h64.1v-.4H611.6Z" class="g0_409"/>
<path d="M138.2,362.8h.4V291.1h-.4Z" class="g0_409"/>
<path d="M193,291.1v-3.2l.2,.1l6.3,3l.3,.1l-.3,.2l-6.3,3H193v-.2l.1,-.2l6.2,-2.9l.2,.3h-.2l-6.2,-2.9l.1,-.4l.1,.2v2.9Z" class="g0_409"/>
<path d="M193,294.1h.3v-3H193Z" class="g0_409"/>
<path d="M192.9,291.3h.2V291h-.2Z" class="g0_409"/>
<path d="M138.2,291.3h54.7V291H138.2Z" class="g0_409"/>
<path d="M138.2,607.3h.4V535.6h-.4Z" class="g0_409"/>
<path d="M193,535.6v-3.2l.2,.1l6.3,2.9l.3,.2l-.3,.2l-6.3,2.9l-.2,.1v-.3l.1,-.1l6.2,-3l.2,.4h-.2l-6.2,-2.9l.1,-.4l.1,.2v2.9Z" class="g0_409"/>
<path d="M193,538.5h.3v-2.9H193Z" class="g0_409"/>
<path d="M192.9,535.8h.2v-.4h-.2Z" class="g0_409"/>
<path d="M138.2,535.8h54.7v-.4H138.2Z" class="g0_409"/>
<path d="M508.3,896.6h.4V841.2h-.4Z" class="g0_409"/>
<path d="M458.9,841.2v3.1h-.3l-6.3,-2.9l-.4,-.2l.4,-.2l6.3,-2.9l.3,-.1v.3l-.1,.2l-6.3,2.9l-.2,-.4h.2l6.3,2.9l-.2,.4l-.1,-.2v-2.9Z" class="g0_409"/>
<path d="M458.5,841.2h.4v-2.9h-.4Z" class="g0_409"/>
<path d="M458.7,841.4h.2V841h-.2Z" class="g0_409"/>
<path d="M458.9,841.4h49.8V841H458.9Z" class="g0_409"/>
</svg>