<?xml version="1.0" encoding="UTF-8" standalone="no"?>
<!DOCTYPE svg PUBLIC "-//W3C//DTD SVG 1.1//EN"
"http://www.w3.org/Graphics/SVG/1.1/DTD/svg11.dtd">
<svg viewBox="0 0 811 1017" version="1.1" xmlns="http://www.w3.org/2000/svg" xmlns:xlink="http://www.w3.org/1999/xlink">
<defs>
<style type="text/css"><![CDATA[
.g0_131{
fill: #F7F5E8;
}
.g1_131{
fill: #040504;
}
.g2_131{
fill: #E68C9E;
}
.g3_131{
fill: #DF6079;
}
.g4_131{
fill: #B73C54;
}
.g5_131{
fill: #84283B;
}
]]></style>
</defs>
<path d="M156.1,164.3H724.4V82.5H156.1Z" class="g0_131"/>
<path d="M407.2,286.2h-.4V419.1L597,495.2V361.7L406.8,285.6v.6h.4l-.1,.3l189.2,75.8V494.1L407.6,418.6V286.2h-.4l-.1,.3l.1,-.3Z" class="g1_131"/>
<path d="M532.5,442.7L431.8,392.3L557.9,366l.9,-.1l-26.3,76.8Z" class="g2_131"/>
<path d="M431.8,392.3l.1,.4L558.2,366.3l-26,75.8L432,392l-.2,.3l.1,.4l-.1,-.4l-.1,.4l101,50.5l26.7,-77.9L430.7,392.2l1,.5l.1,-.4Z" class="g1_131"/>
<path d="M559.3,365.1l-3.8,.3l.1,.8l3.8,-.3l-.1,-.8Zm-7.6,.7l-3.7,.3v.7l3.8,-.3l-.1,-.7Zm-7.5,.6l-3.8,.3v.7l3.8,-.3v-.7Zm-7.6,.6l-3.8,.3l.1,.7l3.8,-.3l-.1,-.7Zm-7.6,.6l-3.7,.3v.8l3.8,-.3l-.1,-.8Zm-7.5,.6l-3.8,.3l.1,.8l3.7,-.3v-.8Zm-7.6,.6l-3.8,.3l.1,.8l3.8,-.3l-.1,-.8Zm-7.6,.6l-3.7,.3v.8l3.8,-.3l-.1,-.8Zm-7.5,.7l-3.8,.3l.1,.7l3.7,-.3v-.7Zm-7.6,.6l-3.8,.3l.1,.7l3.8,-.3l-.1,-.7Zm-7.6,.6l-3.7,.3v.7l3.8,-.3l-.1,-.7Zm-7.5,.6l-3.8,.3l.1,.8l3.7,-.3v-.8Zm-7.6,.6l-3.8,.3l.1,.8l3.8,-.3l-.1,-.8Zm-7.6,.6l-3.7,.3v.8l3.8,-.3l-.1,-.8Zm-7.5,.6l-3.8,.3l.1,.8l3.7,-.3v-.8Zm-7.6,.7l-3.8,.3l.1,.7l3.8,-.3l-.1,-.7Zm-7.6,.6l-3.7,.3v.7l3.8,-.3l-.1,-.7Zm-7.5,.6l-3.8,.3l.1,.7l3.7,-.3v-.7Zm-7.6,.6l-3.8,.3l.1,.8l3.8,-.3l-.1,-.8Zm-7.6,.6l-3.7,.3v.8l3.8,-.3l-.1,-.8Zm-7.5,.6l-3.8,.3l.1,.8l3.7,-.3v-.8Zm-7.6,.6l-3.8,.3l.1,.8l3.8,-.3l-.1,-.8Zm-7.6,.7l-3.7,.3v.7l3.8,-.3l-.1,-.7Zm-7.5,.6l-3.8,.3l.1,.7l3.7,-.3v-.7Zm-7.6,.6l-3.8,.3l.1,.7l3.8,-.3l-.1,-.7Zm-7.6,.6l-3.7,.3v.8l3.8,-.3l-.1,-.8Zm-7.5,.6l-3.8,.3l.1,.8l3.7,-.3v-.8Zm-7.6,.6l-3.8,.3l.1,.8l3.8,-.3l-.1,-.8Zm-7.6,.6l-3.7,.3v.8l3.8,-.3l-.1,-.8Zm-7.5,.7l-3.8,.3l.1,.7l3.7,-.3V383Zm-7.6,.6l-3.8,.3l.1,.7l3.8,-.3l-.1,-.7Zm-7.5,.6l-3.8,.3v.7l3.8,-.3v-.7Zm-7.6,.6l-3.8,.3l.1,.8l3.7,-.3v-.8Zm-7.6,.6l-3.8,.3l.1,.8l3.8,-.3l-.1,-.8Zm-7.5,.6l-3.8,.3v.8l3.8,-.3V386Zm-7.6,.6l-3.8,.3l.1,.8l3.7,-.3v-.8Zm-7.6,.7l-3.8,.3l.1,.7L287,388l-.1,-.7Zm-7.5,.6l-3.8,.3v.7l3.8,-.3v-.7Zm-7.6,.6l-3.8,.3l.1,.7l3.7,-.3v-.7Zm-7.6,.6l-3.8,.3l.1,.8l3.8,-.3l-.1,-.8Zm-7.5,.6l-3.8,.3v.8l3.8,-.3v-.8Zm-7.6,.6l-3.8,.3l.1,.8l3.7,-.3v-.8Zm-7.6,.6l-3.8,.3l.1,.8l3.8,-.3l-.1,-.8Zm-7.5,.7l-3.8,.3v.7l3.8,-.3v-.7Zm-7.6,.6l-3.8,.3l.1,.7l3.8,-.3l-.1,-.7Zm-7.6,.6l-3.8,.3l.1,.7l3.8,-.3l-.1,-.7Zm-7.5,.6l-3.8,.3v.8l3.8,-.3v-.8Zm-7.6,.6l-3.8,.3l.1,.8l3.8,-.3l-.1,-.8Zm-7.6,.6l-3.8,.3l.1,.8l3.8,-.3l-.1,-.8Zm-7.5,.6l-3.8,.3v.8l3.8,-.3v-.8Zm-7.6,.7l-3.8,.3l.1,.7l3.8,-.3l-.1,-.7Zm-7.6,.6l-3.8,.3l.1,.7l3.8,-.3l-.1,-.7Zm-7.5,.6l-3.8,.3v.7l3.8,-.3v-.7Z" class="g1_131"/>
<path d="M158.9,398.4l3.8,.4l.1,-.7l-3.8,-.5l-.1,.8Zm7.6,.9l3.7,.5l.1,-.8l-3.7,-.5l-.1,.8Zm7.5,.9l3.8,.5l.1,-.8l-3.8,-.4l-.1,.7Zm7.6,.9l3.7,.5l.1,-.8l-3.8,-.4v.7Zm7.5,.9l3.8,.5l.1,-.8l-3.8,-.4l-.1,.7Zm7.5,.9l3.8,.5l.1,-.8l-3.8,-.4l-.1,.7Zm7.6,.9l3.7,.5l.1,-.8l-3.7,-.4l-.1,.7Zm7.5,.9l3.8,.5l.1,-.8l-3.8,-.4l-.1,.7Zm7.5,1l3.8,.4l.1,-.7l-3.8,-.5l-.1,.8Zm7.6,.9l3.7,.4l.1,-.7l-3.7,-.5l-.1,.8Zm7.5,.9l3.8,.4l.1,-.7l-3.8,-.5l-.1,.8Zm7.5,.9l3.8,.4l.1,-.7l-3.8,-.5l-.1,.8Zm7.6,.9l3.8,.4V409l-3.7,-.5l-.1,.8Zm7.5,.9l3.8,.4l.1,-.7l-3.8,-.5l-.1,.8Zm7.6,.9l3.7,.4l.1,-.7l-3.8,-.5v.8Zm7.5,.9l3.8,.5l.1,-.8l-3.8,-.5l-.1,.8Zm7.5,.9l3.8,.5l.1,-.8l-3.8,-.4l-.1,.7Zm7.6,.9l3.7,.5l.1,-.8l-3.7,-.4l-.1,.7Zm7.5,.9l3.8,.5l.1,-.8l-3.8,-.4l-.1,.7Zm7.5,.9l3.8,.5l.1,-.8l-3.8,-.4l-.1,.7Zm7.6,.9l3.7,.5l.1,-.8l-3.7,-.4l-.1,.7Zm7.5,.9l3.8,.5l.1,-.8l-3.8,-.4l-.1,.7Zm7.6,.9l3.7,.5l.1,-.7l-3.8,-.5v.7Zm7.5,1l3.8,.4V419l-3.7,-.5l-.1,.8Zm7.5,.9l3.8,.4l.1,-.7l-3.8,-.5l-.1,.8Zm7.6,.9l3.7,.4l.1,-.7l-3.7,-.5l-.1,.8Zm7.5,.9l3.8,.4l.1,-.7l-3.8,-.5l-.1,.8Zm7.5,.9l3.8,.4l.1,-.7l-3.8,-.5l-.1,.8Zm7.6,.9l3.7,.4l.1,-.7l-3.7,-.5l-.1,.8Zm7.5,.9l3.8,.5l.1,-.8l-3.8,-.5l-.1,.8Zm7.5,.9l3.8,.5l.1,-.8l-3.8,-.4l-.1,.7Zm7.6,.9l3.8,.5v-.8l-3.7,-.4l-.1,.7Zm7.5,.9l3.8,.5l.1,-.8l-3.8,-.4l-.1,.7Zm7.6,.9l3.7,.5l.1,-.8l-3.8,-.4v.7Zm7.5,.9l3.8,.5l.1,-.8l-3.8,-.4l-.1,.7Zm7.5,.9l3.8,.5l.1,-.8l-3.8,-.4l-.1,.7Zm7.6,.9l3.7,.5l.1,-.8l-3.7,-.4l-.1,.7Zm7.5,1l3.8,.4l.1,-.7l-3.8,-.5l-.1,.8Zm7.5,.9l3.8,.4l.1,-.7l-3.8,-.5l-.1,.8Zm7.6,.9l3.7,.4l.1,-.7L453,433l-.1,.8Zm7.5,.9l3.8,.4l.1,-.7l-3.8,-.5l-.1,.8Zm7.6,.9l3.7,.4l.1,-.7l-3.8,-.5v.8Zm7.5,.9l3.8,.4v-.7l-3.7,-.5l-.1,.8Zm7.5,.9l3.8,.5l.1,-.8l-3.8,-.5l-.1,.8Zm7.6,.9l3.7,.5l.1,-.8l-3.7,-.4l-.1,.7Zm7.5,.9l3.8,.5l.1,-.8l-3.8,-.4l-.1,.7Zm7.5,.9l3.8,.5l.1,-.8l-3.8,-.4l-.1,.7Zm7.6,.9l3.7,.5l.1,-.8l-3.7,-.4l-.1,.7Zm7.5,.9l3.8,.5l.1,-.8l-3.8,-.4l-.1,.7Zm7.5,.9l3.8,.5l.1,-.8l-3.8,-.4l-.1,.7Z" class="g1_131"/>
<path d="M159,398.4l3.8,-.1v-.7H159v.8Zm7.6,-.2h3.8v-.8l-3.8,.1v.7Zm7.6,-.1L178,398v-.8l-3.8,.1v.8Zm7.6,-.2l3.8,-.1l-.1,-.7l-3.7,.1v.7Zm7.6,-.1l3.8,-.1l-.1,-.8l-3.8,.1l.1,.8Zm7.5,-.2l3.8,-.1v-.7h-3.8v.8Zm7.6,-.2h3.8v-.8l-3.8,.1v.7Zm7.6,-.1l3.8,-.1v-.7h-3.8v.8Zm7.6,-.2h3.8v-.8l-3.8,.1v.7Zm7.6,-.1l3.8,-.1v-.8l-3.8,.1v.8Zm7.6,-.2l3.8,-.1V396l-3.8,.1v.7Zm7.6,-.1l3.8,-.1v-.8l-3.8,.1v.8Zm7.6,-.2l3.8,-.1v-.7h-3.8v.8Zm7.6,-.2h3.8l-.1,-.8l-3.8,.1l.1,.7Zm7.5,-.1l3.8,-.1v-.8l-3.8,.1v.8Zm7.6,-.2l3.8,-.1v-.7l-3.8,.1v.7Zm7.6,-.1l3.8,-.1V395l-3.8,.1v.8Zm7.6,-.2l3.8,-.1v-.7L288,395v.7Zm7.6,-.1l3.8,-.1v-.8l-3.8,.1v.8Zm7.6,-.2l3.8,-.1v-.7h-3.8v.8Zm7.6,-.2h3.8v-.8l-3.8,.1v.7Zm7.6,-.1l3.8,-.1v-.8l-3.8,.1v.8Zm7.6,-.2l3.8,-.1l-.1,-.7l-3.8,.1l.1,.7Zm7.6,-.1l3.8,-.1l-.1,-.8l-3.8,.1l.1,.8Zm7.5,-.2l3.8,-.1v-.7h-3.8v.8Zm7.6,-.2h3.8v-.8l-3.8,.1v.7Zm7.6,-.1l3.8,-.1v-.8l-3.8,.1v.8Zm7.6,-.2l3.8,-.1v-.7l-3.8,.1v.7Zm7.6,-.1l3.8,-.1v-.8l-3.8,.1v.8Zm7.6,-.2l3.8,-.1V393l-3.8,.1v.7Zm7.6,-.1l3.8,-.1v-.8l-3.8,.1v.8Zm7.6,-.2l3.8,-.1v-.7h-3.8v.8Zm7.6,-.2h3.8l-.1,-.8l-3.8,.1l.1,.7Zm7.6,-.1l3.7,-.1v-.8l-3.8,.1l.1,.8ZM417,393l3.8,-.1v-.7l-3.8,.1v.7Zm7.6,-.1l3.8,-.1V392l-3.8,.1v.8Z" class="g1_131"/>
<path d="M160.9,398c0,1.1,-.8,1.9,-1.9,1.9c-1,0,-1.9,-.8,-1.9,-1.9c0,-1,.9,-1.9,1.9,-1.9c1.1,0,1.9,.9,1.9,1.9Z" class="g1_131"/>
<path d="M372.8,423.4l-.8,-.1L315,394.8l72.8,-15.3l-15,43.9ZM322.2,394.2l-3.8,.1v.8l3.8,-.1v-.8Zm7.5,-.1l-3.8,.1l.1,.7l3.8,-.1l-.1,-.7Zm7.6,-.2l-3.8,.1l.1,.8l3.8,-.1l-.1,-.8Zm7.6,-.1h-3.8v.8l3.8,-.1v-.7Zm7.6,-.2l-3.8,.1v.7h3.8v-.8Zm7.6,-.2l-3.8,.1v.8l3.8,-.1v-.8Zm7.6,-.1l-3.8,.1v.7l3.8,-.1v-.7Zm7.6,-.2l-3.8,.1v.8l3.8,-.1v-.8Zm7.6,-.1l-3.8,.1v.7l3.8,-.1V393Z" class="g3_131"/>
<path d="M372.7,423.6l-.7,-.3l.8,.1l-.1,.2Z" class="g4_131"/>
<path d="M318.4,395.1v-.8l3.8,-.1v.8l-3.8,.1Zm7.6,-.2l-.1,-.7l3.8,-.1l.1,.7l-3.8,.1Zm7.6,-.1l-.1,-.8l3.8,-.1l.1,.8l-3.8,.1Zm7.5,-.2v-.8h3.8v.7l-3.8,.1Zm7.6,-.2v-.7l3.8,-.1v.8h-3.8Zm7.6,-.1v-.8l3.8,-.1v.8l-3.8,.1Zm7.6,-.2v-.7l3.8,-.1v.7l-3.8,.1Zm7.6,-.1v-.8l3.8,-.1v.8l-3.8,.1Zm7.6,-.2v-.7l3.8,-.1v.7l-3.8,.1Z" class="g4_131"/>
<path d="M315,394.8l.1,.3L387.3,380l-14.8,43.1L315.1,394.4l-.1,.4l.1,.3l-.1,-.3l-.2,.3l58.1,29.1L388.4,379l-74.6,15.6l1,.5l.2,-.3Z" class="g1_131"/>
<path d="M406.4,664.8H406V797.9l190.9,76.2V740.4L406,664.2v.6h.4l-.2,.3l190,75.8V873L406.8,797.4V664.8h-.4l-.2,.3l.2,-.3Z" class="g1_131"/>
<path d="M528.1,758.3h-3.8v.8h3.8Zm-7.6,0h-3.8v.8h3.8Zm-7.6,0h-3.8v.8h3.8Zm-7.6,0h-3.8v.8h3.8Zm-7.6,0h-3.8v.8h3.8Zm-7.6,0h-3.8v.8h3.8Zm-7.6,0h-3.9v.8h3.9Zm-7.7,0H471v.8h3.8Zm-7.6,0h-3.8v.8h3.8Zm-7.6,0h-3.8v.8h3.8Zm-7.6,0h-3.8v.8H452Zm-7.6,0h-3.8v.8h3.8Zm-7.6,0H433v.8h3.8Zm-7.6,0h-3.8v.8h3.8Zm-7.6,0h-3.8v.8h3.8Zm-7.6,0h-3.8v.8H414Zm-7.6,0h-3.8v.8h3.8Zm-7.7,0h-3.8v.8h3.8Zm-7.6,0h-3.8v.8h3.8Zm-7.6,0h-3.8v.8h3.8Zm-7.6,0h-3.8v.8h3.8Zm-7.6,0h-3.8v.8h3.8Zm-7.6,0h-3.8v.8h3.8Zm-7.6,0h-3.8v.8h3.8Zm-7.6,0h-3.8v.8h3.8Zm-7.6,0h-3.8v.8h3.8Zm-7.6,0h-3.8v.8h3.8Zm-7.7,0h-3.8v.8h3.8Zm-7.6,0h-3.8v.8H315Zm-7.6,0h-3.8v.8h3.8Zm-7.6,0H296v.8h3.8Zm-7.6,0h-3.8v.8h3.8Zm-7.6,0h-3.8v.8h3.8Zm-7.6,0h-3.8v.8H277Zm-7.6,0h-3.8v.8h3.8Zm-7.6,0H258v.8h3.8Zm-7.6,0h-3.8v.8h3.8Zm-7.6,0h-3.9v.8h3.9Zm-7.7,0h-3.8v.8h3.8Zm-7.6,0h-3.8v.8h3.8Zm-7.6,0h-3.8v.8h3.8Zm-7.6,0h-3.8v.8h3.8Zm-7.6,0h-3.8v.8h3.8Zm-7.6,0h-3.8v.8h3.8Zm-7.6,0h-3.8v.8h3.8Zm-7.6,0h-3.8v.8h3.8Zm-7.6,0h-3.8v.8h3.8Zm-7.6,0h-3.9v.8h3.9Zm-7.7,0H159v.8h3.8Z" class="g1_131"/>
<path d="M157.2,803.7H161v-.8h-3.8Zm7.6,0h3.8v-.8h-3.8Zm7.6,0h3.9v-.8h-3.9Zm7.7,0h3.8v-.8h-3.8Zm7.6,0h3.8v-.8h-3.8Zm7.6,0h3.8v-.8h-3.8Zm7.6,0h3.8v-.8h-3.8Zm7.6,0h3.8v-.8h-3.8Zm7.6,0h3.8v-.8h-3.8Zm7.6,0h3.8v-.8h-3.8Zm7.6,0h3.8v-.8h-3.8Zm7.6,0h3.8v-.8h-3.8Zm7.6,0h3.8v-.8h-3.8Zm7.7,0H260v-.8h-3.8Zm7.6,0h3.8v-.8h-3.8Zm7.6,0h3.8v-.8h-3.8Zm7.6,0h3.8v-.8H279Zm7.6,0h3.8v-.8h-3.8Zm7.6,0H298v-.8h-3.8Zm7.6,0h3.8v-.8h-3.8Zm7.6,0h3.8v-.8h-3.8Zm7.6,0h3.8v-.8H317Zm7.6,0h3.8v-.8h-3.8Zm7.6,0h3.9v-.8h-3.9Zm7.7,0h3.8v-.8h-3.8Zm7.6,0h3.8v-.8h-3.8Zm7.6,0h3.8v-.8h-3.8Zm7.6,0h3.8v-.8h-3.8Zm7.6,0h3.8v-.8h-3.8Zm7.6,0h3.8v-.8h-3.8Zm7.6,0h3.8v-.8h-3.8Zm7.6,0h3.8v-.8h-3.8Zm7.6,0h3.8v-.8h-3.8Zm7.6,0h3.9v-.8h-3.9Zm7.7,0h3.8v-.8H416Zm7.6,0h3.8v-.8h-3.8Zm7.6,0H435v-.8h-3.8Zm7.6,0h3.8v-.8h-3.8Zm7.6,0h3.8v-.8h-3.8Zm7.6,0h3.8v-.8H454Zm7.6,0h3.8v-.8h-3.8Zm7.6,0H473v-.8h-3.8Zm7.6,0h3.8v-.8h-3.8Zm7.6,0h3.8v-.8h-3.8Zm7.7,0h3.8v-.8h-3.8Zm7.6,0h3.8v-.8h-3.8Zm7.6,0h3.8v-.8h-3.8Z" class="g1_131"/>
<path d="M157.2,774.3H161v-.8h-3.8Zm7.6,0h3.8v-.8h-3.8Zm7.6,0h3.9v-.8h-3.9Zm7.7,0h3.8v-.8h-3.8Zm7.6,0h3.8v-.8h-3.8Zm7.6,0h3.8v-.8h-3.8Zm7.6,0h3.8v-.8h-3.8Zm7.6,0h3.8v-.8h-3.8Zm7.6,0h3.8v-.8h-3.8Zm7.6,0h3.8v-.8h-3.8Zm7.6,0h3.8v-.8h-3.8Zm7.6,0h3.8v-.8h-3.8Zm7.6,0h3.8v-.8h-3.8Zm7.7,0H260v-.8h-3.8Zm7.6,0h3.8v-.8h-3.8Zm7.6,0h3.8v-.8h-3.8Zm7.6,0h3.8v-.8H279Zm7.6,0h3.8v-.8h-3.8Zm7.6,0H298v-.8h-3.8Zm7.6,0h3.8v-.8h-3.8Zm7.6,0h3.8v-.8h-3.8Zm7.6,0h3.8v-.8H317Zm7.6,0h3.8v-.8h-3.8Zm7.6,0h3.9v-.8h-3.9Zm7.7,0h3.8v-.8h-3.8Zm7.6,0h3.8v-.8h-3.8Zm7.6,0h3.8v-.8h-3.8Zm7.6,0h3.8v-.8h-3.8Zm7.6,0h3.8v-.8h-3.8Zm7.6,0h3.8v-.8h-3.8Zm7.6,0h3.8v-.8h-3.8Zm7.6,0h3.8v-.8h-3.8Zm7.6,0h3.8v-.8h-3.8Zm7.6,0h3.9v-.8h-3.9Zm7.7,0h3.8v-.8H416Zm7.6,0h3.8v-.8h-3.8Zm7.6,0H435v-.8h-3.8Zm7.6,0h3.8v-.8h-3.8Zm7.6,0h3.8v-.8h-3.8Z" class="g1_131"/>
<path d="M371.8,802.4l-58,-28.9l69.1,-14.4h.6v-.2l3.4,-.7l-5.2,15.3h-3.8v.8h3.5l-9.6,28.1Zm2.3,-28.9h-3.8v.8h3.8Zm-7.6,0h-3.8v.8h3.8Zm-7.6,0h-3.8v.8h3.8Zm-7.6,0h-3.8v.8h3.8Zm-7.6,0h-3.8v.8h3.8Zm-7.6,0h-3.9v.8h3.9Zm-7.7,0h-3.8v.8h3.8Zm-7.6,0H317v.8h3.8Z" class="g3_131"/>
<path d="M383.5,759.1h-.6l.6,-.2v.2Z" class="g4_131"/>
<path d="M381.4,774.3h-3.5v-.8h3.8l-.3,.8Zm-7.3,0h-3.8v-.8h3.8Zm-7.6,0h-3.8v-.8h3.8Zm-7.6,0h-3.8v-.8h3.8Zm-7.6,0h-3.8v-.8h3.8Zm-7.6,0h-3.8v-.8h3.8Zm-7.6,0h-3.9v-.8h3.9Zm-7.7,0h-3.8v-.8h3.8Zm-7.6,0H317v-.8h3.8Z" class="g4_131"/>
<path d="M313.8,773.5l.1,.3l72.5,-15.1l-14.9,43.2L314,773.1l-.2,.4l.1,.3l-.1,-.3l-.2,.3L372,802.9l15.5,-45.2l-74.8,15.6l.9,.5l.2,-.3Z" class="g1_131"/>
<path d="M512.5,802.8L454.6,773.9l71.2,-14.8h1.8l-15.1,43.7Z" class="g2_131"/>
<path d="M527.6,759.1h-1.8l1.9,-.4l-.1,.4Z" class="g5_131"/>
<path d="M454.6,773.9l.1,.4l72.4,-15.1l-14.8,43.1L454.8,773.6l-.2,.3l.1,.4l-.1,-.4l-.2,.4l58.4,29.1l15.5,-45.2l-74.9,15.6l1,.5l.2,-.4Z" class="g1_131"/>
</svg>