<?xml version="1.0" encoding="UTF-8" standalone="no"?>
<!DOCTYPE svg PUBLIC "-//W3C//DTD SVG 1.1//EN"
"http://www.w3.org/Graphics/SVG/1.1/DTD/svg11.dtd">
<svg viewBox="0 0 811 1017" version="1.1" xmlns="http://www.w3.org/2000/svg" xmlns:xlink="http://www.w3.org/1999/xlink">
<defs>
<style type="text/css"><![CDATA[
.g0_255{
fill: #70A6CC;
}
.g1_255{
fill: #FFF;
}
.g2_255{
fill: #1A78B6;
}
.g3_255{
fill: none;
stroke: #1A78B6;
stroke-width: 0.974;
stroke-linejoin: round;
}
.g4_255{
fill: none;
stroke: #040504;
stroke-width: 0.585;
}
.g5_255{
fill: none;
stroke: #B0B2B1;
stroke-width: 0.78;
stroke-linecap: square;
stroke-linejoin: round;
}
.g6_255{
fill: none;
stroke: #040504;
stroke-width: 0.78;
stroke-linejoin: round;
}
.g7_255{
fill: #040504;
}
.g8_255{
fill: none;
stroke: #1A78B6;
stroke-width: 1.462;
stroke-linecap: square;
stroke-linejoin: round;
}
.g9_255{
fill: none;
stroke: #040504;
stroke-width: 0.78;
stroke-linecap: square;
}
.ga_255{
fill: #0E0E0E;
}
.gb_255{
fill: #000;
}
]]></style>
</defs>
<path d="M156.1,694.7H724.4V673.5H156.1Z" class="g0_255"/>
<path d="M199.1,357.1H547.3V97.7H199.1Z" class="g1_255"/>
<path d="M215,253.9c.8,0,1.5,-.3,2.1,-.8c.5,-.6,.9,-1.3,.9,-2.1c0,-.8,-.4,-1.5,-.9,-2.1c-.6,-.5,-1.3,-.8,-2.1,-.8c-.7,0,-1.5,.3,-2,.8c-.6,.6,-.9,1.3,-.9,2.1c0,.8,.3,1.5,.9,2.1c.5,.5,1.3,.8,2,.8Z" class="g2_255"/>
<path d="M215,253.9c.8,0,1.5,-.3,2.1,-.8c.5,-.6,.9,-1.3,.9,-2.1c0,-.8,-.4,-1.5,-.9,-2.1c-.6,-.5,-1.3,-.8,-2.1,-.8c-.7,0,-1.5,.3,-2,.8c-.6,.6,-.9,1.3,-.9,2.1c0,.8,.3,1.5,.9,2.1c.5,.5,1.3,.8,2,.8Z" class="g3_255"/>
<path d="M265,206.8c.8,0,1.5,-.3,2.1,-.9c.5,-.5,.8,-1.3,.8,-2.1c0,-.7,-.3,-1.5,-.8,-2c-.6,-.6,-1.3,-.9,-2.1,-.9c-.8,0,-1.5,.3,-2.1,.9c-.5,.5,-.8,1.3,-.8,2c0,.8,.3,1.6,.8,2.1c.6,.6,1.3,.9,2.1,.9Z" class="g2_255"/>
<path d="M265,206.8c.8,0,1.5,-.3,2.1,-.9c.5,-.5,.8,-1.3,.8,-2.1c0,-.7,-.3,-1.5,-.8,-2c-.6,-.6,-1.3,-.9,-2.1,-.9c-.8,0,-1.5,.3,-2.1,.9c-.5,.5,-.8,1.3,-.8,2c0,.8,.3,1.6,.8,2.1c.6,.6,1.3,.9,2.1,.9Z" class="g3_255"/>
<path d="M331.6,191.1c.8,0,1.5,-.4,2.1,-.9c.5,-.6,.8,-1.3,.8,-2.1c0,-.7,-.3,-1.5,-.8,-2c-.6,-.6,-1.3,-.9,-2.1,-.9c-.8,0,-1.5,.3,-2.1,.9c-.5,.5,-.8,1.3,-.8,2c0,.8,.3,1.5,.8,2.1c.6,.5,1.3,.9,2.1,.9Z" class="g2_255"/>
<path d="M331.6,191.1c.8,0,1.5,-.4,2.1,-.9c.5,-.6,.8,-1.3,.8,-2.1c0,-.7,-.3,-1.5,-.8,-2c-.6,-.6,-1.3,-.9,-2.1,-.9c-.8,0,-1.5,.3,-2.1,.9c-.5,.5,-.8,1.3,-.8,2c0,.8,.3,1.5,.8,2.1c.6,.5,1.3,.9,2.1,.9Z" class="g3_255"/>
<path d="M381.6,230.4c.7,0,1.5,-.4,2,-.9c.6,-.5,.9,-1.3,.9,-2.1c0,-.7,-.3,-1.5,-.9,-2c-.5,-.6,-1.3,-.9,-2,-.9c-.8,0,-1.6,.3,-2.1,.9c-.5,.5,-.9,1.3,-.9,2c0,.8,.4,1.6,.9,2.1c.5,.5,1.3,.9,2.1,.9Z" class="g2_255"/>
<path d="M381.6,230.4c.7,0,1.5,-.4,2,-.9c.6,-.5,.9,-1.3,.9,-2.1c0,-.7,-.3,-1.5,-.9,-2c-.5,-.6,-1.3,-.9,-2,-.9c-.8,0,-1.6,.3,-2.1,.9c-.5,.5,-.9,1.3,-.9,2c0,.8,.4,1.6,.9,2.1c.5,.5,1.3,.9,2.1,.9Z" class="g3_255"/>
<path d="M364.9,109.5v5.3l-4.4,-1.1L215.1,251H215L360.4,113.7l-4.4,-1l8.9,-3.2ZM531.5,345.4L522,342.5l4.2,-1.2L381.5,227.5l.1,-.1L526.4,341.3l4.2,-1.2l.9,5.3Z" class="g4_255"/>
<path d="M215,357.1V97.7" class="g5_255"/>
<path d="M215,357.1v3.5" class="g6_255"/>
<path d="M207.3,364.1c.8,0,1.4,.4,1.8,1c.4,.6,.6,1.5,.6,2.7c0,1.2,-.2,2.1,-.6,2.8c-.4,.6,-1,.9,-1.8,.9c-.8,0,-1.4,-.3,-1.9,-.9c-.4,-.7,-.6,-1.6,-.6,-2.8c0,-1.2,.2,-2.1,.6,-2.7c.5,-.6,1.1,-1,1.9,-1Zm0,.8c-.5,0,-.9,.2,-1.1,.7c-.3,.5,-.4,1.3,-.4,2.2c0,1,.1,1.7,.4,2.2c.2,.5,.6,.8,1.1,.8c.5,0,.8,-.3,1.1,-.8c.2,-.5,.4,-1.2,.4,-2.2c0,-.9,-.2,-1.7,-.4,-2.2c-.3,-.5,-.6,-.7,-1.1,-.7Z" class="g7_255"/>
<path d="M211.4,371.4h1v-1.2h-1Z" class="g7_255"/>
<path d="M216.6,364.1c.8,0,1.4,.4,1.8,1c.4,.6,.6,1.5,.6,2.7c0,1.2,-.2,2.1,-.6,2.8c-.4,.6,-1,.9,-1.8,.9c-.8,0,-1.4,-.3,-1.8,-.9c-.5,-.7,-.7,-1.6,-.7,-2.8c0,-1.2,.2,-2.1,.7,-2.7c.4,-.6,1,-1,1.8,-1Zm0,.8c-.5,0,-.9,.2,-1.1,.7c-.3,.5,-.4,1.3,-.4,2.2c0,1,.1,1.7,.4,2.2c.2,.5,.6,.8,1.1,.8c.5,0,.8,-.3,1.1,-.8c.2,-.5,.4,-1.2,.4,-2.2c0,-.9,-.2,-1.7,-.4,-2.2c-.3,-.5,-.6,-.7,-1.1,-.7Z" class="g7_255"/>
<path d="M222.8,364.1c.8,0,1.4,.4,1.8,1c.4,.6,.6,1.5,.6,2.7c0,1.2,-.2,2.1,-.6,2.8c-.4,.6,-1,.9,-1.8,.9c-.8,0,-1.4,-.3,-1.8,-.9c-.5,-.7,-.7,-1.6,-.7,-2.8c0,-1.2,.2,-2.1,.7,-2.7c.4,-.6,1,-1,1.8,-1Zm0,.8c-.5,0,-.9,.2,-1.1,.7c-.3,.5,-.4,1.3,-.4,2.2c0,1,.1,1.7,.4,2.2c.2,.5,.6,.8,1.1,.8c.5,0,.9,-.3,1.1,-.8c.2,-.5,.4,-1.2,.4,-2.2c0,-.9,-.2,-1.7,-.4,-2.2c-.2,-.5,-.6,-.7,-1.1,-.7Z" class="g7_255"/>
<path d="M256.7,357.1V97.7" class="g5_255"/>
<path d="M256.7,357.1v3.5" class="g6_255"/>
<path d="M248.9,364.1c.8,0,1.4,.4,1.8,1c.5,.6,.7,1.5,.7,2.7c0,1.2,-.2,2.1,-.7,2.8c-.4,.6,-1,.9,-1.8,.9c-.8,0,-1.4,-.3,-1.8,-.9c-.4,-.7,-.6,-1.6,-.6,-2.8c0,-1.2,.2,-2.1,.6,-2.7c.4,-.6,1,-1,1.8,-1Zm0,.8c-.5,0,-.9,.2,-1.1,.7c-.3,.5,-.4,1.3,-.4,2.2c0,1,.1,1.7,.4,2.2c.2,.5,.6,.8,1.1,.8c.5,0,.9,-.3,1.1,-.8c.3,-.5,.4,-1.2,.4,-2.2c0,-.9,-.1,-1.7,-.4,-2.2c-.2,-.5,-.6,-.7,-1.1,-.7Z" class="g7_255"/>
<path d="M253.1,371.4h1v-1.2h-1Z" class="g7_255"/>
<path d="M257,370.6h3.3v.8h-4.5v-.8c.4,-.4,.9,-.9,1.5,-1.6c.6,-.6,1,-1,1.2,-1.2c.3,-.3,.5,-.6,.7,-.9c.1,-.2,.1,-.4,.1,-.7c0,-.3,-.1,-.7,-.4,-.9c-.2,-.2,-.6,-.3,-1,-.3c-.3,0,-.6,0,-1,.1c-.3,.1,-.6,.3,-1,.5v-1c.4,-.1,.7,-.3,1.1,-.3c.3,-.1,.6,-.2,.9,-.2c.7,0,1.3,.2,1.7,.6c.5,.4,.7,.9,.7,1.5c0,.3,-.1,.5,-.2,.8c-.1,.3,-.3,.6,-.6,.9c0,.1,-.3,.4,-.7,.8c-.4,.5,-1,1.1,-1.8,1.9Z" class="g7_255"/>
<path d="M262.4,364.3h3.7v.8h-2.9v1.7c.2,0,.3,-.1,.5,-.1c.1,0,.2,0,.4,0c.8,0,1.4,.2,1.9,.6c.4,.5,.7,1.1,.7,1.8c0,.8,-.3,1.4,-.7,1.8c-.5,.4,-1.2,.6,-2.1,.6c-.3,0,-.6,0,-.9,-.1c-.3,0,-.6,-.1,-.9,-.2v-1c.3,.2,.5,.3,.9,.4c.3,.1,.6,.1,.9,.1c.6,0,1,-.1,1.3,-.4c.3,-.3,.5,-.7,.5,-1.2c0,-.5,-.2,-.9,-.5,-1.2c-.3,-.3,-.7,-.4,-1.3,-.4c-.2,0,-.5,0,-.8,.1c-.2,0,-.5,.1,-.7,.2v-3.5Z" class="g7_255"/>
<path d="M298.3,357.1V97.7" class="g5_255"/>
<path d="M298.3,357.1v3.5" class="g6_255"/>
<path d="M290.5,364.1c.8,0,1.4,.4,1.9,1c.4,.6,.6,1.5,.6,2.7c0,1.2,-.2,2.1,-.6,2.8c-.5,.6,-1.1,.9,-1.9,.9c-.8,0,-1.4,-.3,-1.8,-.9c-.4,-.7,-.6,-1.6,-.6,-2.8c0,-1.2,.2,-2.1,.6,-2.7c.4,-.6,1,-1,1.8,-1Zm0,.8c-.4,0,-.8,.2,-1.1,.7c-.2,.5,-.3,1.3,-.3,2.2c0,1,.1,1.7,.3,2.2c.3,.5,.7,.8,1.1,.8c.5,0,.9,-.3,1.2,-.8c.2,-.5,.3,-1.2,.3,-2.2c0,-.9,-.1,-1.7,-.3,-2.2c-.3,-.5,-.7,-.7,-1.2,-.7Z" class="g7_255"/>
<path d="M294.7,371.4h1v-1.2h-1Z" class="g7_255"/>
<path d="M297.8,364.3h3.8v.8h-2.9v1.7c.1,0,.3,-.1,.4,-.1c.1,0,.3,0,.4,0c.8,0,1.4,.2,1.9,.6c.5,.5,.7,1.1,.7,1.8c0,.8,-.2,1.4,-.7,1.8c-.5,.4,-1.2,.6,-2,.6c-.3,0,-.6,0,-.9,-.1c-.3,0,-.7,-.1,-1,-.2v-1c.3,.2,.6,.3,.9,.4c.3,.1,.6,.1,1,.1c.5,0,.9,-.1,1.3,-.4c.3,-.3,.4,-.7,.4,-1.2c0,-.5,-.1,-.9,-.4,-1.2c-.4,-.3,-.8,-.4,-1.3,-.4c-.3,0,-.6,0,-.8,.1c-.3,0,-.5,.1,-.8,.2v-3.5Z" class="g7_255"/>
<path d="M306,364.1c.8,0,1.5,.4,1.9,1c.4,.6,.6,1.5,.6,2.7c0,1.2,-.2,2.1,-.6,2.8c-.4,.6,-1.1,.9,-1.9,.9c-.7,0,-1.4,-.3,-1.8,-.9c-.4,-.7,-.6,-1.6,-.6,-2.8c0,-1.2,.2,-2.1,.6,-2.7c.4,-.6,1.1,-1,1.8,-1Zm0,.8c-.4,0,-.8,.2,-1.1,.7c-.2,.5,-.3,1.3,-.3,2.2c0,1,.1,1.7,.3,2.2c.3,.5,.7,.8,1.1,.8c.5,0,.9,-.3,1.2,-.8c.2,-.5,.3,-1.2,.3,-2.2c0,-.9,-.1,-1.7,-.3,-2.2c-.3,-.5,-.7,-.7,-1.2,-.7Z" class="g7_255"/>
<path d="M339.9,357.1V97.7" class="g5_255"/>
<path d="M339.9,357.1v3.5" class="g6_255"/>
<path d="M332.2,364.1c.8,0,1.4,.4,1.8,1c.4,.6,.6,1.5,.6,2.7c0,1.2,-.2,2.1,-.6,2.8c-.4,.6,-1,.9,-1.8,.9c-.8,0,-1.4,-.3,-1.8,-.9c-.5,-.7,-.7,-1.6,-.7,-2.8c0,-1.2,.2,-2.1,.7,-2.7c.4,-.6,1,-1,1.8,-1Zm0,.8c-.5,0,-.9,.2,-1.1,.7c-.3,.5,-.4,1.3,-.4,2.2c0,1,.1,1.7,.4,2.2c.2,.5,.6,.8,1.1,.8c.5,0,.9,-.3,1.1,-.8c.2,-.5,.4,-1.2,.4,-2.2c0,-.9,-.2,-1.7,-.4,-2.2c-.2,-.5,-.6,-.7,-1.1,-.7Z" class="g7_255"/>
<path d="M336.3,371.4h1v-1.2h-1Z" class="g7_255"/>
<path d="M339.2,364.3h4.6v.4l-2.6,6.7h-1l2.4,-6.3h-3.4v-.8Z" class="g7_255"/>
<path d="M345.6,364.3h3.8v.8h-2.9v1.7c.2,0,.3,-.1,.4,-.1c.2,0,.3,0,.5,0c.7,0,1.4,.2,1.8,.6c.5,.5,.7,1.1,.7,1.8c0,.8,-.2,1.4,-.7,1.8c-.5,.4,-1.1,.6,-2,.6c-.3,0,-.6,0,-.9,-.1c-.3,0,-.6,-.1,-1,-.2v-1c.3,.2,.6,.3,.9,.4c.3,.1,.6,.1,1,.1c.5,0,1,-.1,1.3,-.4c.3,-.3,.5,-.7,.5,-1.2c0,-.5,-.2,-.9,-.5,-1.2c-.3,-.3,-.8,-.4,-1.3,-.4c-.3,0,-.5,0,-.8,.1c-.2,0,-.5,.1,-.8,.2v-3.5Z" class="g7_255"/>
<path d="M381.6,357.1V97.7" class="g5_255"/>
<path d="M381.6,357.1v3.5" class="g6_255"/>
<path d="M371.9,370.6h1.6v-5.5l-1.7,.4v-.9l1.7,-.3h.9v6.3H376v.8h-4.1v-.8Z" class="g7_255"/>
<path d="M378,371.4h1v-1.2h-1Z" class="g7_255"/>
<path d="M383.1,364.1c.8,0,1.4,.4,1.8,1c.5,.6,.7,1.5,.7,2.7c0,1.2,-.2,2.1,-.7,2.8c-.4,.6,-1,.9,-1.8,.9c-.8,0,-1.4,-.3,-1.8,-.9c-.4,-.7,-.6,-1.6,-.6,-2.8c0,-1.2,.2,-2.1,.6,-2.7c.4,-.6,1,-1,1.8,-1Zm0,.8c-.5,0,-.9,.2,-1.1,.7c-.2,.5,-.4,1.3,-.4,2.2c0,1,.2,1.7,.4,2.2c.2,.5,.6,.8,1.1,.8c.5,0,.9,-.3,1.1,-.8c.3,-.5,.4,-1.2,.4,-2.2c0,-.9,-.1,-1.7,-.4,-2.2c-.2,-.5,-.6,-.7,-1.1,-.7Z" class="g7_255"/>
<path d="M389.3,364.1c.8,0,1.4,.4,1.8,1c.5,.6,.7,1.5,.7,2.7c0,1.2,-.2,2.1,-.7,2.8c-.4,.6,-1,.9,-1.8,.9c-.8,0,-1.4,-.3,-1.8,-.9c-.4,-.7,-.6,-1.6,-.6,-2.8c0,-1.2,.2,-2.1,.6,-2.7c.4,-.6,1,-1,1.8,-1Zm0,.8c-.5,0,-.8,.2,-1.1,.7c-.2,.5,-.4,1.3,-.4,2.2c0,1,.2,1.7,.4,2.2c.3,.5,.6,.8,1.1,.8c.5,0,.9,-.3,1.1,-.8c.3,-.5,.4,-1.2,.4,-2.2c0,-.9,-.1,-1.7,-.4,-2.2c-.2,-.5,-.6,-.7,-1.1,-.7Z" class="g7_255"/>
<path d="M423.2,357.1V97.7" class="g5_255"/>
<path d="M423.2,357.1v3.5" class="g6_255"/>
<path d="M413.6,370.6h1.5v-5.5l-1.7,.4v-.9l1.7,-.3h1v6.3h1.6v.8h-4.1v-.8Z" class="g7_255"/>
<path d="M419.6,371.4h1v-1.2h-1Z" class="g7_255"/>
<path d="M423.5,370.6h3.4v.8h-4.5v-.8c.3,-.4,.8,-.9,1.5,-1.6c.6,-.6,1,-1,1.1,-1.2c.4,-.3,.6,-.6,.7,-.9c.1,-.2,.2,-.4,.2,-.7c0,-.3,-.2,-.7,-.4,-.9c-.3,-.2,-.6,-.3,-1.1,-.3c-.3,0,-.6,0,-.9,.1c-.3,.1,-.7,.3,-1.1,.5v-1c.4,-.1,.8,-.3,1.1,-.3c.3,-.1,.6,-.2,.9,-.2c.8,0,1.3,.2,1.8,.6c.4,.4,.6,.9,.6,1.5c0,.3,0,.5,-.1,.8c-.1,.3,-.3,.6,-.6,.9c-.1,.1,-.4,.4,-.8,.8c-.4,.5,-1,1.1,-1.8,1.9Z" class="g7_255"/>
<path d="M428.9,364.3h3.8v.8h-2.9v1.7c.1,0,.3,-.1,.4,-.1c.1,0,.3,0,.4,0c.8,0,1.4,.2,1.9,.6c.5,.5,.7,1.1,.7,1.8c0,.8,-.2,1.4,-.7,1.8c-.5,.4,-1.2,.6,-2,.6c-.3,0,-.6,0,-.9,-.1c-.3,0,-.7,-.1,-1,-.2v-1c.3,.2,.6,.3,.9,.4c.3,.1,.6,.1,1,.1c.5,0,.9,-.1,1.3,-.4c.3,-.3,.4,-.7,.4,-1.2c0,-.5,-.1,-.9,-.4,-1.2c-.4,-.3,-.8,-.4,-1.3,-.4c-.3,0,-.6,0,-.8,.1c-.3,0,-.5,.1,-.8,.2v-3.5Z" class="g7_255"/>
<path d="M464.8,357.1V97.7" class="g5_255"/>
<path d="M464.8,357.1v3.5" class="g6_255"/>
<path d="M455.2,370.6h1.6v-5.5l-1.7,.4v-.9l1.7,-.3h.9v6.3h1.6v.8h-4.1v-.8Z" class="g7_255"/>
<path d="M461.2,371.4h1v-1.2h-1Z" class="g7_255"/>
<path d="M464.3,364.3h3.8v.8h-2.9v1.7c.2,0,.3,-.1,.4,-.1c.2,0,.3,0,.5,0c.8,0,1.4,.2,1.8,.6c.5,.5,.7,1.1,.7,1.8c0,.8,-.2,1.4,-.7,1.8c-.5,.4,-1.1,.6,-2,.6c-.3,0,-.6,0,-.9,-.1c-.3,0,-.6,-.1,-1,-.2v-1c.3,.2,.6,.3,.9,.4c.3,.1,.7,.1,1,.1c.5,0,1,-.1,1.3,-.4c.3,-.3,.5,-.7,.5,-1.2c0,-.5,-.2,-.9,-.5,-1.2c-.3,-.3,-.8,-.4,-1.3,-.4c-.3,0,-.5,0,-.8,.1c-.2,0,-.5,.1,-.8,.2v-3.5Z" class="g7_255"/>
<path d="M472.6,364.1c.8,0,1.4,.4,1.8,1c.4,.6,.6,1.5,.6,2.7c0,1.2,-.2,2.1,-.6,2.8c-.4,.6,-1,.9,-1.8,.9c-.8,0,-1.4,-.3,-1.8,-.9c-.5,-.7,-.7,-1.6,-.7,-2.8c0,-1.2,.2,-2.1,.7,-2.7c.4,-.6,1,-1,1.8,-1Zm0,.8c-.5,0,-.9,.2,-1.1,.7c-.3,.5,-.4,1.3,-.4,2.2c0,1,.1,1.7,.4,2.2c.2,.5,.6,.8,1.1,.8c.5,0,.9,-.3,1.1,-.8c.3,-.5,.4,-1.2,.4,-2.2c0,-.9,-.1,-1.7,-.4,-2.2c-.2,-.5,-.6,-.7,-1.1,-.7Z" class="g7_255"/>
<path d="M506.5,357.1V97.7" class="g5_255"/>
<path d="M506.5,357.1v3.5" class="g6_255"/>
<path d="M496.8,370.6h1.6v-5.5l-1.7,.4v-.9l1.7,-.3h1v6.3h1.5v.8h-4.1v-.8Z" class="g7_255"/>
<path d="M502.9,371.4h1v-1.2h-1Z" class="g7_255"/>
<path d="M505.7,364.3h4.6v.4l-2.6,6.7h-1l2.4,-6.3h-3.4v-.8Z" class="g7_255"/>
<path d="M512.2,364.3H516v.8h-2.9v1.7c.1,0,.2,-.1,.4,-.1c.1,0,.3,0,.4,0c.8,0,1.4,.2,1.9,.6c.4,.5,.7,1.1,.7,1.8c0,.8,-.3,1.4,-.7,1.8c-.5,.4,-1.2,.6,-2.1,.6c-.3,0,-.6,0,-.9,-.1c-.3,0,-.6,-.1,-.9,-.2v-1c.3,.2,.6,.3,.9,.4c.3,.1,.6,.1,.9,.1c.6,0,1,-.1,1.3,-.4c.4,-.3,.5,-.7,.5,-1.2c0,-.5,-.1,-.9,-.5,-1.2c-.3,-.3,-.7,-.4,-1.3,-.4c-.2,0,-.5,0,-.7,.1c-.3,0,-.6,.1,-.8,.2v-3.5Z" class="g7_255"/>
<path d="M375.7,379.4l-2,2.6l2.1,2.7h-1.1l-1.5,-2.1l-1.6,2.1h-1l2.1,-2.8l-1.9,-2.5h1l1.4,1.9l1.4,-1.9h1.1Z" class="g7_255"/>
<path d="M199.1,345.4H547.3" class="g5_255"/>
<path d="M199.1,345.4h-3.4" class="g6_255"/>
<path d="M169.7,346.4h6.1v-.8h-6.1Z" class="g7_255"/>
<path d="M178,348.3h1.6v-5.5l-1.7,.4v-.9l1.7,-.3h.9v6.3h1.6v.8H178v-.8Z" class="g7_255"/>
<path d="M184,349.1h1.1v-1.3H184Z" class="g7_255"/>
<path d="M189.2,341.8c.8,0,1.4,.3,1.8,1c.4,.6,.7,1.5,.7,2.7c0,1.2,-.3,2.1,-.7,2.8c-.4,.6,-1,.9,-1.8,.9c-.8,0,-1.4,-.3,-1.8,-.9c-.4,-.7,-.7,-1.6,-.7,-2.8c0,-1.2,.3,-2.1,.7,-2.7c.4,-.7,1,-1,1.8,-1Zm0,.8c-.5,0,-.9,.2,-1.1,.7c-.3,.5,-.4,1.2,-.4,2.2c0,1,.1,1.7,.4,2.2c.2,.5,.6,.7,1.1,.7c.5,0,.9,-.2,1.1,-.7c.3,-.5,.4,-1.2,.4,-2.2c0,-1,-.1,-1.7,-.4,-2.2c-.2,-.5,-.6,-.7,-1.1,-.7Z" class="g7_255"/>
<path d="M199.1,306H547.3" class="g5_255"/>
<path d="M199.1,306h-3.4" class="g6_255"/>
<path d="M169.7,307.1h6.1v-.8h-6.1Z" class="g7_255"/>
<path d="M179.9,302.5c.8,0,1.4,.3,1.8,1c.4,.6,.7,1.5,.7,2.7c0,1.2,-.3,2.1,-.7,2.7c-.4,.7,-1,1,-1.8,1c-.8,0,-1.4,-.3,-1.8,-1c-.4,-.6,-.7,-1.5,-.7,-2.7c0,-1.2,.3,-2.1,.7,-2.7c.4,-.7,1,-1,1.8,-1Zm0,.8c-.5,0,-.9,.2,-1.1,.7c-.3,.5,-.4,1.2,-.4,2.2c0,1,.1,1.7,.4,2.2c.2,.5,.6,.7,1.1,.7c.5,0,.9,-.2,1.1,-.7c.3,-.5,.4,-1.2,.4,-2.2c0,-1,-.1,-1.7,-.4,-2.2c-.2,-.5,-.6,-.7,-1.1,-.7Z" class="g7_255"/>
<path d="M184,309.7h1.1v-1.2H184Z" class="g7_255"/>
<path d="M187.2,302.6h3.7v.9H188v1.7c.2,-.1,.3,-.1,.5,-.1c.1,0,.2,0,.4,0c.8,0,1.4,.2,1.9,.6c.4,.4,.7,1,.7,1.8c0,.7,-.3,1.3,-.8,1.8c-.4,.4,-1.1,.6,-2,.6c-.3,0,-.6,0,-.9,-.1c-.3,0,-.6,-.1,-.9,-.2v-1c.2,.2,.5,.3,.8,.4c.3,0,.7,.1,1,.1c.6,0,1,-.2,1.3,-.5c.3,-.2,.5,-.6,.5,-1.1c0,-.5,-.2,-.9,-.5,-1.2c-.3,-.3,-.7,-.4,-1.3,-.4c-.3,0,-.5,0,-.8,0c-.2,.1,-.5,.2,-.7,.3v-3.6Z" class="g7_255"/>
<path d="M199.1,266.7H547.3" class="g5_255"/>
<path d="M199.1,266.7h-3.4" class="g6_255"/>
<path d="M179.9,263.2c.8,0,1.4,.3,1.8,1c.4,.6,.7,1.5,.7,2.7c0,1.2,-.3,2.1,-.7,2.7c-.4,.7,-1,1,-1.8,1c-.8,0,-1.4,-.3,-1.8,-1c-.4,-.6,-.7,-1.5,-.7,-2.7c0,-1.2,.3,-2.1,.7,-2.7c.4,-.7,1,-1,1.8,-1Zm0,.8c-.5,0,-.9,.2,-1.1,.7c-.3,.5,-.4,1.2,-.4,2.2c0,1,.1,1.7,.4,2.2c.2,.5,.6,.7,1.1,.7c.5,0,.9,-.2,1.1,-.7c.3,-.5,.4,-1.2,.4,-2.2c0,-1,-.1,-1.7,-.4,-2.2c-.2,-.5,-.6,-.7,-1.1,-.7Z" class="g7_255"/>
<path d="M184,270.4h1.1v-1.2H184Z" class="g7_255"/>
<path d="M189.2,263.2c.8,0,1.4,.3,1.8,1c.4,.6,.7,1.5,.7,2.7c0,1.2,-.3,2.1,-.7,2.7c-.4,.7,-1,1,-1.8,1c-.8,0,-1.4,-.3,-1.8,-1c-.4,-.6,-.7,-1.5,-.7,-2.7c0,-1.2,.3,-2.1,.7,-2.7c.4,-.7,1,-1,1.8,-1Zm0,.8c-.5,0,-.9,.2,-1.1,.7c-.3,.5,-.4,1.2,-.4,2.2c0,1,.1,1.7,.4,2.2c.2,.5,.6,.7,1.1,.7c.5,0,.9,-.2,1.1,-.7c.3,-.5,.4,-1.2,.4,-2.2c0,-1,-.1,-1.7,-.4,-2.2c-.2,-.5,-.6,-.7,-1.1,-.7Z" class="g7_255"/>
<path d="M199.1,227.4H547.3" class="g5_255"/>
<path d="M199.1,227.4h-3.4" class="g6_255"/>
<path d="M179.9,223.9c.8,0,1.4,.3,1.8,.9c.4,.7,.7,1.6,.7,2.8c0,1.2,-.3,2.1,-.7,2.7c-.4,.7,-1,1,-1.8,1c-.8,0,-1.4,-.3,-1.8,-1c-.4,-.6,-.7,-1.5,-.7,-2.7c0,-1.2,.3,-2.1,.7,-2.8c.4,-.6,1,-.9,1.8,-.9Zm0,.8c-.5,0,-.9,.2,-1.1,.7c-.3,.5,-.4,1.2,-.4,2.2c0,1,.1,1.7,.4,2.2c.2,.5,.6,.7,1.1,.7c.5,0,.9,-.2,1.1,-.7c.3,-.5,.4,-1.2,.4,-2.2c0,-1,-.1,-1.7,-.4,-2.2c-.2,-.5,-.6,-.7,-1.1,-.7Z" class="g7_255"/>
<path d="M184,231.1h1.1v-1.2H184Z" class="g7_255"/>
<path d="M187.2,224h3.7v.8H188v1.8c.2,-.1,.3,-.1,.5,-.1c.1,0,.2,-.1,.4,-.1c.8,0,1.4,.3,1.9,.7c.4,.4,.7,1,.7,1.8c0,.7,-.3,1.3,-.8,1.7c-.4,.5,-1.1,.7,-2,.7c-.3,0,-.6,-.1,-.9,-.1c-.3,-.1,-.6,-.1,-.9,-.2v-1c.2,.2,.5,.3,.8,.4c.3,0,.7,.1,1,.1c.6,0,1,-.2,1.3,-.5c.3,-.3,.5,-.7,.5,-1.1c0,-.5,-.2,-.9,-.5,-1.2c-.3,-.3,-.7,-.5,-1.3,-.5c-.3,0,-.5,.1,-.8,.1c-.2,.1,-.5,.2,-.7,.3V224Z" class="g7_255"/>
<path d="M199.1,188.1H547.3" class="g5_255"/>
<path d="M199.1,188.1h-3.4" class="g6_255"/>
<path d="M178,191h1.6v-5.4l-1.7,.3v-.8l1.7,-.4h.9V191h1.6v.8H178V191Z" class="g7_255"/>
<path d="M184,191.8h1.1v-1.2H184Z" class="g7_255"/>
<path d="M189.2,184.6c.8,0,1.4,.3,1.8,.9c.4,.7,.7,1.6,.7,2.8c0,1.2,-.3,2.1,-.7,2.7c-.4,.7,-1,1,-1.8,1c-.8,0,-1.4,-.3,-1.8,-1c-.4,-.6,-.7,-1.5,-.7,-2.7c0,-1.2,.3,-2.1,.7,-2.8c.4,-.6,1,-.9,1.8,-.9Zm0,.8c-.5,0,-.9,.2,-1.1,.7c-.3,.5,-.4,1.2,-.4,2.2c0,1,.1,1.7,.4,2.2c.2,.5,.6,.7,1.1,.7c.5,0,.9,-.2,1.1,-.7c.3,-.5,.4,-1.2,.4,-2.2c0,-1,-.1,-1.7,-.4,-2.2c-.2,-.5,-.6,-.7,-1.1,-.7Z" class="g7_255"/>
<path d="M199.1,148.8H547.3" class="g5_255"/>
<path d="M199.1,148.8h-3.4" class="g6_255"/>
<path d="M178,151.7h1.6v-5.4l-1.7,.3v-.8l1.7,-.4h.9v6.3h1.6v.8H178v-.8Z" class="g7_255"/>
<path d="M184,152.5h1.1v-1.2H184Z" class="g7_255"/>
<path d="M187.2,145.4h3.7v.8H188V148c.2,-.1,.3,-.1,.5,-.1c.1,-.1,.2,-.1,.4,-.1c.8,0,1.4,.2,1.9,.7c.4,.4,.7,1,.7,1.7c0,.8,-.3,1.4,-.8,1.8c-.4,.4,-1.1,.7,-2,.7c-.3,0,-.6,-.1,-.9,-.1c-.3,-.1,-.6,-.1,-.9,-.2v-1c.2,.1,.5,.3,.8,.3c.3,.1,.7,.1,1,.1c.6,0,1,-.1,1.3,-.4c.3,-.3,.5,-.7,.5,-1.2c0,-.5,-.2,-.8,-.5,-1.1c-.3,-.3,-.7,-.5,-1.3,-.5c-.3,0,-.5,.1,-.8,.1c-.2,.1,-.5,.2,-.7,.3v-3.6Z" class="g7_255"/>
<path d="M199.1,109.5H547.3" class="g5_255"/>
<path d="M199.1,109.5h-3.4" class="g6_255"/>
<path d="M178.7,112.4H182v.8h-4.5v-.8c.4,-.4,.9,-.9,1.5,-1.5c.6,-.7,1,-1.1,1.2,-1.2c.3,-.4,.5,-.7,.6,-.9c.2,-.3,.2,-.5,.2,-.7c0,-.4,-.1,-.7,-.4,-1c-.2,-.2,-.6,-.3,-1,-.3c-.3,0,-.6,0,-1,.1c-.3,.1,-.7,.3,-1,.5v-1c.3,-.1,.7,-.2,1,-.3c.4,-.1,.7,-.1,1,-.1c.7,0,1.3,.2,1.7,.5c.5,.4,.7,.9,.7,1.5c0,.3,-.1,.6,-.2,.8c-.1,.3,-.3,.6,-.6,1c-.1,.1,-.3,.3,-.7,.8c-.5,.4,-1.1,1,-1.8,1.8Z" class="g7_255"/>
<path d="M184,113.2h1.1V112H184Z" class="g7_255"/>
<path d="M189.2,106c.8,0,1.4,.3,1.8,.9c.4,.7,.7,1.6,.7,2.8c0,1.2,-.3,2.1,-.7,2.7c-.4,.6,-1,1,-1.8,1c-.8,0,-1.4,-.4,-1.8,-1c-.4,-.6,-.7,-1.5,-.7,-2.7c0,-1.2,.3,-2.1,.7,-2.8c.4,-.6,1,-.9,1.8,-.9Zm0,.7c-.5,0,-.9,.3,-1.1,.8c-.3,.5,-.4,1.2,-.4,2.2c0,.9,.1,1.7,.4,2.2c.2,.4,.6,.7,1.1,.7c.5,0,.9,-.3,1.1,-.7c.3,-.5,.4,-1.3,.4,-2.2c0,-1,-.1,-1.7,-.4,-2.2c-.2,-.5,-.6,-.8,-1.1,-.8Z" class="g7_255"/>
<path d="M163.2,227.2c.6,.2,1,.5,1.2,.7c.2,.2,.3,.6,.3,.9v.7H164V229c0,-.2,-.1,-.4,-.2,-.5c-.1,-.2,-.4,-.3,-.8,-.5l-.4,-.1l-5.2,2.1v-.9l4.1,-1.7l-4.1,-1.6v-1l5.8,2.4Z" class="g7_255"/>
<path d="M215,251l1.5,-1.4c44.6,-41.5,110.6,-63.3,163.6,-23.3l1.5,1.1" class="g8_255"/>
<path d="M199.1,357.1V97.7M547.3,357.1V97.7M199.1,357.1H547.3M199.1,97.7H547.3" class="g9_255"/>
<path d="M258,83.3h5.4v1h-4.3v2.5h4.1v1h-4.1v3.1h4.4v1H258V83.3Z" class="g7_255"/>
<path d="M270.6,85.5l-2.3,3.1l2.4,3.3h-1.2l-1.9,-2.5l-1.8,2.5h-1.3L267,88.5l-2.2,-3H266l1.7,2.3l1.7,-2.3h1.2Z" class="g7_255"/>
<path d="M276.8,88.7c0,-.8,-.1,-1.4,-.5,-1.8c-.3,-.5,-.7,-.7,-1.3,-.7c-.5,0,-1,.2,-1.3,.7c-.3,.4,-.5,1,-.5,1.8c0,.7,.2,1.4,.5,1.8c.3,.4,.8,.7,1.3,.7c.6,0,1,-.3,1.3,-.7c.4,-.4,.5,-1.1,.5,-1.8Zm-3.6,2.2v3.4h-1V85.5h1v.9c.3,-.3,.5,-.6,.9,-.8c.3,-.2,.7,-.3,1.2,-.3c.8,0,1.4,.3,1.9,.9c.5,.7,.7,1.5,.7,2.5c0,1,-.2,1.8,-.7,2.4c-.5,.6,-1.1,.9,-1.9,.9c-.5,0,-.9,-.1,-1.2,-.2c-.4,-.2,-.6,-.5,-.9,-.9Z" class="g7_255"/>
<path d="M279.7,91.9h1V83h-1Z" class="g7_255"/>
<path d="M282.9,83H284v1.3h-1.1Zm0,2.5H284v6.4h-1.1Z" class="g7_255"/>
<path d="M290.8,85.7v1c-.3,-.2,-.6,-.3,-.9,-.4c-.3,0,-.6,-.1,-.9,-.1c-.7,0,-1.3,.2,-1.6,.7c-.4,.4,-.6,1,-.6,1.8c0,.8,.2,1.4,.6,1.8c.3,.4,.9,.6,1.6,.6c.3,0,.6,0,.9,-.1c.3,-.1,.6,-.2,.9,-.3v.9c-.3,.2,-.6,.3,-1,.3c-.3,.1,-.6,.1,-1,.1c-.9,0,-1.7,-.3,-2.3,-.9c-.5,-.6,-.8,-1.4,-.8,-2.4c0,-1.1,.3,-1.9,.9,-2.5c.5,-.6,1.3,-.9,2.3,-.9c.3,0,.7,.1,1,.1c.3,.1,.6,.2,.9,.3Z" class="g7_255"/>
<path d="M292.6,83h1v1.3h-1Zm0,2.5h1v6.4h-1Z" class="g7_255"/>
<path d="M296.9,83.7v1.8H299v.8h-2.1v3.5c0,.5,0,.8,.2,1c.1,.1,.4,.2,.9,.2h1v.9h-1c-.8,0,-1.4,-.2,-1.7,-.5c-.3,-.3,-.5,-.8,-.5,-1.6V86.3H295v-.8h.8V83.7h1.1Z" class="g7_255"/>
<path d="M308.7,88.7c0,-.8,-.1,-1.4,-.4,-1.8c-.4,-.5,-.8,-.7,-1.4,-.7c-.5,0,-.9,.2,-1.3,.7c-.3,.4,-.4,1,-.4,1.8c0,.7,.1,1.4,.4,1.8c.4,.4,.8,.7,1.3,.7c.6,0,1,-.3,1.4,-.7c.3,-.4,.4,-1.1,.4,-1.8Zm-3.5,2.2v3.4h-1.1V85.5h1.1v.9c.2,-.3,.5,-.6,.8,-.8c.3,-.2,.7,-.3,1.2,-.3c.8,0,1.4,.3,1.9,.9c.5,.7,.7,1.5,.7,2.5c0,1,-.2,1.8,-.7,2.4c-.5,.6,-1.1,.9,-1.9,.9c-.5,0,-.9,-.1,-1.2,-.2c-.3,-.2,-.6,-.5,-.8,-.9Z" class="g7_255"/>
<path d="M314,85.3c1,0,1.7,.3,2.2,.9c.5,.6,.8,1.4,.8,2.5c0,1,-.3,1.8,-.8,2.4c-.5,.6,-1.2,.9,-2.2,.9c-.9,0,-1.6,-.3,-2.1,-.9c-.5,-.6,-.8,-1.4,-.8,-2.4c0,-1.1,.3,-1.9,.8,-2.5c.5,-.6,1.2,-.9,2.1,-.9Zm0,.9c-.5,0,-1,.2,-1.3,.7c-.3,.4,-.5,1,-.5,1.8c0,.7,.2,1.3,.5,1.8c.3,.4,.8,.6,1.3,.6c.6,0,1.1,-.2,1.4,-.6c.3,-.5,.5,-1.1,.5,-1.8c0,-.8,-.2,-1.4,-.5,-1.8c-.3,-.5,-.8,-.7,-1.4,-.7Z" class="g7_255"/>
<path d="M318.7,91.9h1.1V83h-1.1Z" class="g7_255"/>
<path d="M324.6,92.5c-.3,.7,-.5,1.2,-.8,1.5c-.3,.2,-.7,.3,-1.2,.3h-.8v-.9h.6c.3,0,.5,0,.7,-.2c.2,-.1,.3,-.4,.5,-1l.2,-.4l-2.6,-6.3h1.1l2,5l2,-5h1.1l-2.8,7Z" class="g7_255"/>
<path d="M334.2,88v3.9h-1V88c0,-.6,-.1,-1,-.4,-1.3c-.2,-.3,-.6,-.5,-1,-.5c-.6,0,-1.1,.2,-1.4,.6c-.3,.3,-.5,.8,-.5,1.5v3.6h-1V85.5h1v1c.3,-.4,.6,-.7,.9,-.9c.3,-.2,.7,-.3,1.2,-.3c.7,0,1.3,.2,1.7,.7c.3,.5,.5,1.1,.5,2Z" class="g7_255"/>
<path d="M338.8,85.3c.9,0,1.6,.3,2.1,.9c.6,.6,.8,1.4,.8,2.5c0,1,-.2,1.8,-.8,2.4c-.5,.6,-1.2,.9,-2.1,.9c-.9,0,-1.6,-.3,-2.2,-.9c-.5,-.6,-.7,-1.4,-.7,-2.4c0,-1.1,.2,-1.9,.7,-2.5c.6,-.6,1.3,-.9,2.2,-.9Zm0,.9c-.6,0,-1,.2,-1.3,.7c-.4,.4,-.5,1,-.5,1.8c0,.7,.1,1.3,.5,1.8c.3,.4,.7,.6,1.3,.6c.6,0,1,-.2,1.3,-.6c.4,-.5,.5,-1.1,.5,-1.8c0,-.8,-.1,-1.4,-.5,-1.8c-.3,-.5,-.7,-.7,-1.3,-.7Z" class="g7_255"/>
<path d="M348.5,86.7c.2,-.5,.5,-.8,.9,-1c.4,-.3,.8,-.4,1.3,-.4c.7,0,1.2,.3,1.5,.7c.4,.5,.6,1.1,.6,2v3.9h-1.1V88c0,-.6,-.1,-1,-.3,-1.3c-.2,-.3,-.6,-.5,-1,-.5c-.5,0,-1,.2,-1.3,.6c-.3,.3,-.5,.8,-.5,1.5v3.6h-1V88c0,-.6,-.1,-1,-.4,-1.3c-.2,-.3,-.5,-.5,-1,-.5c-.5,0,-.9,.2,-1.2,.6c-.4,.3,-.5,.8,-.5,1.5v3.6h-1.1V85.5h1.1v1c.2,-.4,.5,-.7,.9,-.9c.3,-.2,.7,-.3,1.1,-.3c.5,0,.9,.1,1.2,.4c.4,.2,.6,.6,.8,1Z" class="g7_255"/>
<path d="M354.9,83h1v1.3h-1Zm0,2.5h1v6.4h-1Z" class="g7_255"/>
<path d="M363.1,88.2v3.7h-1v-1c-.3,.4,-.6,.7,-.9,.9c-.4,.1,-.8,.2,-1.3,.2c-.7,0,-1.2,-.1,-1.6,-.5c-.4,-.4,-.6,-.9,-.6,-1.5c0,-.7,.3,-1.3,.7,-1.6c.5,-.4,1.2,-.6,2.2,-.6h1.5v-.1c0,-.5,-.2,-.8,-.5,-1.1c-.3,-.3,-.8,-.4,-1.3,-.4c-.4,0,-.8,.1,-1.1,.1c-.4,.1,-.7,.3,-1,.4v-.9c.4,-.2,.7,-.3,1.1,-.4c.4,0,.7,-.1,1.1,-.1c.9,0,1.6,.3,2,.7c.5,.5,.7,1.2,.7,2.2Zm-2.1,.5c-.8,0,-1.4,.1,-1.7,.2c-.4,.2,-.5,.6,-.5,1c0,.4,.1,.7,.3,.9c.3,.2,.6,.4,1,.4c.6,0,1.1,-.3,1.4,-.7c.4,-.4,.6,-.9,.6,-1.6v-.2H361Z" class="g7_255"/>
<path d="M365.3,91.9h1V83h-1Z" class="g7_255"/>
<path d="M377.3,88.2v3.7h-1.1v-1c-.2,.4,-.5,.7,-.9,.9c-.3,.1,-.8,.2,-1.3,.2c-.7,0,-1.2,-.1,-1.6,-.5c-.4,-.4,-.5,-.9,-.5,-1.5c0,-.7,.2,-1.3,.7,-1.6c.5,-.4,1.2,-.6,2.1,-.6h1.5v-.1c0,-.5,-.1,-.8,-.5,-1.1c-.3,-.3,-.7,-.4,-1.3,-.4c-.4,0,-.7,.1,-1.1,.1c-.3,.1,-.7,.3,-1,.4v-.9c.4,-.2,.8,-.3,1.1,-.4c.4,0,.8,-.1,1.1,-.1c.9,0,1.6,.3,2.1,.7c.4,.5,.7,1.2,.7,2.2Zm-2.1,.5c-.9,0,-1.5,.1,-1.8,.2c-.3,.2,-.5,.6,-.5,1c0,.4,.1,.7,.4,.9c.2,.2,.6,.4,1,.4c.6,0,1,-.3,1.4,-.7c.3,-.4,.5,-.9,.5,-1.6v-.2h-1Z" class="g7_255"/>
<path d="M384.7,88v3.9h-1V88c0,-.6,-.1,-1,-.4,-1.3c-.2,-.3,-.6,-.5,-1,-.5c-.6,0,-1,.2,-1.4,.6c-.3,.3,-.5,.8,-.5,1.5v3.6h-1V85.5h1v1c.3,-.4,.6,-.7,.9,-.9c.4,-.2,.8,-.3,1.2,-.3c.7,0,1.3,.2,1.7,.7c.4,.5,.5,1.1,.5,2Z" class="g7_255"/>
<path d="M387.5,88.7c0,.7,.1,1.4,.4,1.8c.4,.4,.8,.7,1.4,.7c.5,0,.9,-.3,1.3,-.7c.3,-.4,.4,-1.1,.4,-1.8c0,-.8,-.1,-1.4,-.4,-1.8c-.4,-.5,-.8,-.7,-1.3,-.7c-.6,0,-1,.2,-1.4,.7c-.3,.4,-.4,1,-.4,1.8ZM391,86.4V83h1.1v8.9H391v-1c-.2,.4,-.5,.7,-.8,.9c-.3,.1,-.7,.2,-1.2,.2c-.8,0,-1.4,-.3,-1.9,-.9c-.5,-.6,-.7,-1.4,-.7,-2.4c0,-1,.2,-1.8,.7,-2.5c.5,-.6,1.1,-.9,1.9,-.9c.5,0,.9,.1,1.2,.3c.3,.2,.6,.5,.8,.8Z" class="g7_255"/>
<path d="M399,83.7v1.8h2.2v.8H399v3.5c0,.5,.1,.8,.2,1c.2,.1,.5,.2,.9,.2h1.1v.9h-1.1c-.8,0,-1.4,-.2,-1.7,-.5c-.3,-.3,-.4,-.8,-.4,-1.6V86.3h-.8v-.8h.8V83.7h1Z" class="g7_255"/>
<path d="M407.6,88.2v3.7h-1.1v-1c-.2,.4,-.5,.7,-.9,.9c-.3,.1,-.8,.2,-1.3,.2c-.6,0,-1.2,-.1,-1.6,-.5c-.3,-.4,-.5,-.9,-.5,-1.5c0,-.7,.2,-1.3,.7,-1.6c.5,-.4,1.2,-.6,2.2,-.6h1.4v-.1c0,-.5,-.1,-.8,-.5,-1.1c-.3,-.3,-.7,-.4,-1.3,-.4c-.4,0,-.7,.1,-1.1,.1c-.3,.1,-.6,.3,-1,.4v-.9c.4,-.2,.8,-.3,1.2,-.4c.3,0,.7,-.1,1,-.1c.9,0,1.6,.3,2.1,.7c.4,.5,.7,1.2,.7,2.2Zm-2.1,.5c-.9,0,-1.5,.1,-1.8,.2c-.3,.2,-.5,.6,-.5,1c0,.4,.1,.7,.4,.9c.2,.2,.6,.4,1,.4c.6,0,1,-.3,1.4,-.7c.3,-.4,.5,-.9,.5,-1.6v-.2h-1Z" class="g7_255"/>
<path d="M415.1,88v3.9H414V88c0,-.6,-.1,-1,-.3,-1.3c-.3,-.3,-.6,-.5,-1.1,-.5c-.6,0,-1,.2,-1.4,.6c-.3,.3,-.4,.8,-.4,1.5v3.6h-1.1V85.5h1.1v1c.2,-.4,.5,-.7,.8,-.9c.4,-.2,.8,-.3,1.2,-.3c.8,0,1.3,.2,1.7,.7c.4,.5,.6,1.1,.6,2Z" class="g7_255"/>
<path d="M422.4,91.1c0,1.1,-.2,1.9,-.7,2.4c-.5,.5,-1.2,.8,-2.2,.8c-.4,0,-.8,0,-1.1,-.1c-.3,0,-.6,-.1,-.9,-.2V92.9c.3,.2,.6,.3,.9,.4c.3,.1,.6,.1,.9,.1c.7,0,1.2,-.1,1.5,-.5c.4,-.4,.6,-.9,.6,-1.6v-.6c-.3,.4,-.5,.7,-.9,.9c-.3,.2,-.7,.3,-1.2,.3c-.8,0,-1.4,-.3,-1.9,-.9c-.5,-.6,-.7,-1.4,-.7,-2.4c0,-1,.2,-1.8,.7,-2.4c.5,-.6,1.1,-.9,1.9,-.9c.5,0,.9,.1,1.2,.3c.4,.2,.6,.5,.9,.8v-.9h1v5.6Zm-1,-2.5c0,-.8,-.2,-1.4,-.5,-1.8c-.3,-.4,-.8,-.6,-1.3,-.6c-.6,0,-1,.2,-1.3,.6c-.4,.4,-.5,1,-.5,1.8c0,.8,.1,1.3,.5,1.8c.3,.4,.7,.6,1.3,.6c.5,0,1,-.2,1.3,-.6c.3,-.5,.5,-1,.5,-1.8Z" class="g7_255"/>
<path d="M429,88.1c0,-.6,-.2,-1,-.5,-1.4c-.3,-.3,-.7,-.5,-1.2,-.5c-.6,0,-1.1,.2,-1.4,.5c-.4,.3,-.6,.8,-.6,1.4H429Zm1.1,.3v.5h-4.9c.1,.7,.3,1.3,.7,1.7c.4,.4,.9,.5,1.6,.5c.4,0,.8,0,1.2,-.1c.4,-.1,.7,-.2,1.1,-.5v1c-.4,.2,-.8,.3,-1.2,.4c-.4,.1,-.8,.1,-1.2,.1c-1,0,-1.8,-.3,-2.4,-.9c-.6,-.5,-.9,-1.4,-.9,-2.4c0,-1,.3,-1.8,.9,-2.5c.5,-.6,1.3,-.9,2.3,-.9c.8,0,1.5,.3,2,.9c.5,.5,.8,1.3,.8,2.2Z" class="g7_255"/>
<path d="M437.1,88v3.9H436V88c0,-.6,-.1,-1,-.3,-1.3c-.2,-.3,-.6,-.5,-1.1,-.5c-.5,0,-1,.2,-1.3,.6c-.3,.3,-.5,.8,-.5,1.5v3.6h-1.1V85.5h1.1v1c.2,-.4,.5,-.7,.9,-.9c.3,-.2,.7,-.3,1.2,-.3c.7,0,1.3,.2,1.6,.7c.4,.5,.6,1.1,.6,2Z" class="g7_255"/>
<path d="M440.2,83.7v1.8h2.2v.8h-2.2v3.5c0,.5,.1,.8,.2,1c.2,.1,.5,.2,.9,.2h1.1v.9h-1.1c-.8,0,-1.4,-.2,-1.7,-.5c-.3,-.3,-.4,-.8,-.4,-1.6V86.3h-.8v-.8h.8V83.7h1Z" class="g7_255"/>
<path d="M446.7,85.5h1.2l2,5.3l2,-5.3H453l-2.4,6.4h-1.5l-2.4,-6.4Z" class="g7_255"/>
<path d="M458.8,88.1c0,-.6,-.1,-1,-.4,-1.4c-.4,-.3,-.8,-.5,-1.3,-.5c-.6,0,-1,.2,-1.4,.5c-.4,.3,-.6,.8,-.6,1.4h3.7Zm1.1,.3v.5h-4.8c0,.7,.2,1.3,.6,1.7c.4,.4,.9,.5,1.6,.5c.4,0,.8,0,1.2,-.1c.4,-.1,.8,-.2,1.1,-.5v1c-.3,.2,-.7,.3,-1.1,.4c-.4,.1,-.8,.1,-1.2,.1c-1,0,-1.8,-.3,-2.4,-.9c-.6,-.5,-.9,-1.4,-.9,-2.4c0,-1,.2,-1.8,.8,-2.5c.6,-.6,1.3,-.9,2.3,-.9c.9,0,1.5,.3,2,.9c.5,.5,.8,1.3,.8,2.2Z" class="g7_255"/>
<path d="M466.2,85.7v1c-.3,-.2,-.6,-.3,-.9,-.4c-.3,0,-.6,-.1,-.9,-.1c-.7,0,-1.2,.2,-1.6,.7c-.3,.4,-.5,1,-.5,1.8c0,.8,.2,1.4,.5,1.8c.4,.4,.9,.6,1.6,.6c.3,0,.6,0,.9,-.1c.3,-.1,.6,-.2,.9,-.3v.9c-.3,.2,-.6,.3,-.9,.3c-.3,.1,-.6,.1,-1,.1c-1,0,-1.7,-.3,-2.3,-.9c-.6,-.6,-.8,-1.4,-.8,-2.4c0,-1.1,.2,-1.9,.8,-2.5c.6,-.6,1.4,-.9,2.4,-.9c.3,0,.6,.1,.9,.1c.3,.1,.6,.2,.9,.3Z" class="g7_255"/>
<path d="M469.1,83.7v1.8h2.2v.8h-2.2v3.5c0,.5,.1,.8,.2,1c.1,.1,.4,.2,.9,.2h1.1v.9h-1.1c-.8,0,-1.4,-.2,-1.7,-.5c-.3,-.3,-.5,-.8,-.5,-1.6V86.3h-.7v-.8h.7V83.7h1.1Z" class="g7_255"/>
<path d="M475.1,85.3c.9,0,1.6,.3,2.2,.9c.5,.6,.8,1.4,.8,2.5c0,1,-.3,1.8,-.8,2.4c-.6,.6,-1.3,.9,-2.2,.9c-.9,0,-1.6,-.3,-2.1,-.9c-.6,-.6,-.8,-1.4,-.8,-2.4c0,-1.1,.2,-1.9,.8,-2.5c.5,-.6,1.2,-.9,2.1,-.9Zm0,.9c-.5,0,-1,.2,-1.3,.7c-.4,.4,-.5,1,-.5,1.8c0,.7,.1,1.3,.5,1.8c.3,.4,.7,.6,1.3,.6c.6,0,1,-.2,1.3,-.6c.4,-.5,.5,-1.1,.5,-1.8c0,-.8,-.1,-1.4,-.5,-1.8c-.3,-.5,-.7,-.7,-1.3,-.7Z" class="g7_255"/>
<path d="M483.5,86.5c-.1,-.1,-.2,-.2,-.4,-.2c-.1,0,-.3,0,-.4,0c-.6,0,-1.1,.1,-1.4,.5c-.3,.4,-.5,1,-.5,1.7v3.4h-1V85.5h1v1c.2,-.4,.5,-.7,.9,-.9c.3,-.2,.8,-.3,1.3,-.3c0,0,.1,0,.2,0c.1,0,.2,.1,.3,.1v1.1Z" class="g7_255"/>
<path d="M488.7,85.7v1c-.3,-.2,-.6,-.3,-.9,-.4c-.4,-.1,-.7,-.1,-1,-.1c-.6,0,-1,.1,-1.2,.2c-.3,.2,-.4,.4,-.4,.8c0,.2,.1,.4,.3,.5c.2,.2,.5,.3,1.1,.4l.4,.1c.7,.2,1.2,.4,1.6,.7c.3,.3,.4,.7,.4,1.2c0,.6,-.2,1.1,-.7,1.4c-.5,.4,-1.1,.5,-1.9,.5c-.4,0,-.7,0,-1.1,-.1c-.4,0,-.8,-.1,-1.2,-.3V90.5c.4,.3,.8,.4,1.2,.5c.4,.1,.7,.2,1.1,.2c.5,0,.9,-.1,1.1,-.3c.3,-.2,.4,-.4,.4,-.7c0,-.3,-.1,-.5,-.2,-.7c-.2,-.1,-.7,-.3,-1.3,-.4L486,89c-.6,-.1,-1.1,-.3,-1.4,-.6c-.3,-.3,-.4,-.7,-.4,-1.2c0,-.6,.2,-1.1,.6,-1.4c.4,-.3,1.1,-.5,1.8,-.5c.4,0,.8,0,1.1,.1c.4,.1,.7,.1,1,.3Z" class="g7_255"/>
<path d="M252,536.1l.8,-3.3c.2,-.6,.4,-1,1,-1c1.5,0,2.2,.5,2.2,1.9c0,.4,-.1,.6,-.3,.9c-.4,.8,-1.5,1.5,-2.7,1.5h-1Zm-4.2,5.5v.2h4.9c.6,0,1.2,-.1,1.7,-.2c.5,-.2,1,-.4,1.3,-.6c.4,-.3,.7,-.6,.9,-.9c.2,-.4,.3,-.8,.3,-1.3c0,-.6,-.2,-1.2,-.6,-1.6c-.4,-.4,-1,-.7,-1.8,-.9c.3,-.1,.7,-.2,1,-.3c.3,0,.6,-.2,.9,-.4c.3,-.2,.5,-.4,.7,-.7c.2,-.3,.3,-.7,.3,-1.1c0,-.5,-.1,-.9,-.3,-1.2c-.3,-.3,-.5,-.5,-.9,-.7c-.3,-.2,-.7,-.3,-1.1,-.3c-.4,-.1,-.7,-.1,-1.1,-.1h-3.6l-.1,.2c.5,0,.8,.2,1,.3c.1,.2,.2,.5,.2,.8c0,.2,-.1,.5,-.2,.9l-1.6,6.1c-.1,.3,-.2,.6,-.3,.8c-.2,.4,-.4,.6,-.8,.8c-.2,.1,-.5,.2,-.8,.2Zm3.5,-2.6l.7,-2.5h.7c1.6,0,2.7,.6,2.7,2.1c0,.3,-.1,.7,-.2,1c-.5,1.1,-1.4,1.9,-3,1.9c-.7,0,-1.2,-.3,-1.2,-1c0,-.5,.2,-1.1,.3,-1.5Z" class="ga_255"/>
<path d="M260.8,544c-.8,0,-1.3,-.6,-1.3,-1.3c0,-.6,.3,-1,.8,-1c0,-.3,-.4,-.4,-.7,-.4c-.2,0,-.3,0,-.5,.1c-.4,.1,-.7,.6,-.7,1.1c0,.3,.1,.5,.2,.7c.4,.6,1.2,1,2.2,1c.8,0,1.4,-.2,1.8,-.6c.5,-.3,.8,-.8,.8,-1.5c0,-.2,-.1,-.5,-.2,-.7c-.2,-.6,-.8,-1.1,-1.5,-1.3c.4,-.1,.8,-.4,1,-.7c.3,-.3,.4,-.7,.4,-1.2c0,-.2,0,-.4,-.1,-.7c-.4,-.6,-1.2,-1,-2.2,-1c-.6,0,-1.1,.1,-1.5,.4c-.3,.2,-.6,.5,-.6,1c0,.3,.1,.6,.3,.7c.2,.2,.4,.3,.7,.3c.2,0,.3,0,.5,-.1c.1,0,.2,-.1,.2,-.2c-.4,0,-.7,-.4,-.7,-.8c0,-.6,.5,-1.1,1.1,-1.1c.8,0,1.2,.7,1.2,1.6c0,.9,-.3,1.8,-1.1,1.8c-.2,-.1,-.4,-.2,-.6,-.2c-.2,0,-.5,.1,-.5,.3c0,.2,.3,.3,.5,.3c.3,0,.5,-.1,.7,-.2c.9,0,1.1,.8,1.1,1.7c0,1.1,-.4,2,-1.3,2Z" class="ga_255"/>
<path d="M269.9,531.1c-2.2,1.4,-3.7,3.8,-3.7,6.9c0,2.7,1.6,5.5,3.6,6.8l.2,-.3c-1.9,-1.5,-2.5,-3.3,-2.5,-6.6c0,-3.3,.6,-5,2.5,-6.5l-.1,-.3Z" class="ga_255"/>
<path d="M272.3,541.9c1.3,0,2.1,-1.3,2.5,-2.1l-.2,-.1c-.3,.4,-.9,1.6,-1.7,1.6c-.2,0,-.3,-.5,-.3,-.6c0,-.2,.1,-.6,.2,-1l1.1,-3.9h1.3l.1,-.4H274l.4,-1.6h-1l-.5,1.6h-1l-.1,.4h1l-.9,3.6c-.1,.4,-.2,.8,-.3,1.1c0,.3,-.1,.4,-.1,.6c0,.6,.3,.8,.8,.8Z" class="ga_255"/>
<path d="M276.7,531.1l-.2,.3c1.9,1.5,2.6,3.2,2.6,6.5c0,3.3,-.6,5.1,-2.6,6.6l.2,.3c2.1,-1.3,3.6,-4.1,3.6,-6.8c0,-3.1,-1.5,-5.5,-3.6,-6.9Z" class="ga_255"/>
<path d="M286.5,539.9h7.7v-.8h-7.7Zm0,-3h7.7V536h-7.7Z" class="ga_255"/>
<path d="M305.9,521c-2.2,1.4,-3.7,3.8,-3.7,6.9c0,2.7,1.6,5.5,3.6,6.8l.2,-.3c-2,-1.5,-2.5,-3.3,-2.5,-6.6c0,-3.3,.6,-5,2.5,-6.5l-.1,-.3Z" class="ga_255"/>
<path d="M309,522v.2c.4,0,1.1,.1,1.3,.2c.5,.2,.4,.4,.5,1v6.5c0,.3,-.1,.6,-.1,.8c-.1,.6,-.9,.7,-1.6,.8v.2h4.7v-.2c-.5,-.1,-1.3,-.1,-1.5,-.4c-.2,-.3,-.2,-.7,-.2,-1.3v-8.6c-.8,.4,-2.1,.7,-3.1,.8Z" class="ga_255"/>
<path d="M319.6,528.3h7.6v-.9h-7.6Z" class="ga_255"/>
<path d="M332.7,531.8c1.3,0,2.1,-1.3,2.6,-2.1l-.3,-.1c-.3,.4,-.9,1.6,-1.7,1.6c-.2,0,-.3,-.5,-.3,-.6c0,-.2,.1,-.6,.3,-1l1,-3.9h1.3l.1,-.4h-1.3l.4,-1.6h-1l-.4,1.6h-1.1l-.1,.4h1.1l-1,3.6c-.1,.4,-.2,.8,-.2,1.1c-.1,.3,-.2,.4,-.2,.6c0,.6,.3,.8,.8,.8Z" class="ga_255"/>
<path d="M337.1,521l-.1,.3c1.9,1.5,2.5,3.2,2.5,6.5c0,3.3,-.6,5.1,-2.5,6.6l.1,.3c2.1,-1.3,3.7,-4.1,3.7,-6.8c0,-3.1,-1.6,-5.5,-3.7,-6.9Z" class="ga_255"/>
<path d="M345.1,526.2c-.7,0,-1.3,-.7,-1.3,-1.4c0,-.6,.3,-1,.8,-1c0,-.3,-.4,-.4,-.7,-.4c-.2,0,-.3,0,-.5,.1c-.4,.1,-.6,.6,-.6,1.1c0,.3,0,.5,.1,.7c.4,.7,1.2,1.1,2.2,1.1c.8,0,1.4,-.3,1.9,-.6c.4,-.4,.7,-.9,.7,-1.6c0,-.2,0,-.4,-.1,-.7c-.3,-.6,-.9,-1.1,-1.6,-1.3c.4,-.1,.8,-.4,1,-.7c.3,-.2,.5,-.6,.5,-1.1c0,-.3,-.1,-.5,-.2,-.7c-.3,-.7,-1.1,-1.1,-2.2,-1.1c-.6,0,-1.1,.2,-1.5,.4c-.3,.2,-.6,.5,-.6,1c0,.3,.2,.6,.3,.7c.2,.2,.4,.4,.7,.4c.2,0,.4,-.1,.5,-.2c.1,0,.2,-.1,.2,-.2c-.4,0,-.7,-.3,-.7,-.8c0,-.6,.5,-1.1,1.1,-1.1c.8,0,1.2,.7,1.2,1.6c0,.9,-.3,1.8,-1.1,1.8c-.1,-.1,-.4,-.2,-.6,-.2c-.2,0,-.5,.1,-.5,.3c0,.2,.3,.3,.6,.3c.2,0,.5,-.1,.6,-.2c.9,0,1.2,.8,1.2,1.8c0,1,-.4,2,-1.4,2Z" class="ga_255"/>
<path d="M354.4,529.2c-.1,-.3,-.1,-.9,-.1,-1.1c0,-.2,0,-.5,0,-.7c.1,-.4,.3,-1.6,.7,-1.6c.3,0,.3,.6,.3,.9c0,.9,-.6,1.9,-.9,2.5Zm-2.8,-3c0,0,-1.7,2.3,-1.7,4c0,.8,.5,1.6,1.4,1.6c1.1,0,1.8,-.6,2.3,-1.3c.3,.7,.6,1.3,1.5,1.3c2.1,0,3.4,-4.1,3.5,-5.4c0,-.7,-.1,-1.2,-.7,-1.2c-.5,0,-.7,.2,-.7,.7c0,.7,.5,1.2,.5,2c0,1,-1.1,3.5,-2.3,3.5c-.6,0,-.9,-1.2,-1,-1.8c.5,-.6,.9,-1.3,1.1,-1.9c.2,-.6,.3,-1.1,.3,-1.5c0,-.6,-.2,-1,-.7,-1c-.2,0,-.4,.1,-.6,.3c-.6,.7,-1.1,1.9,-1.1,3.2c0,.2,0,.3,0,.5c0,.2,.1,.8,.1,.9c-.3,.4,-.6,.8,-.9,1c-.3,.2,-.6,.3,-.8,.3c-.5,0,-.7,-.7,-.7,-1.3c0,-1.7,.5,-3.1,1.2,-4.2c.1,-.2,.5,-.5,.5,-.5c0,-.1,-.1,-.2,-.2,-.2c-.1,0,-.1,.1,-.2,.1c-.1,.1,-.2,.1,-.3,.3c-.1,.1,-.3,.2,-.4,.2c-.3,0,-.5,-.1,-.7,-.3c-.1,-.2,-.3,-.3,-.7,-.3c-.6,0,-1.3,.6,-1.3,1.1c0,.4,.3,.5,.6,.5c.3,0,.4,-.1,.4,-.4c0,-.2,-.2,-.3,-.2,-.4c0,-.1,0,-.2,.2,-.2c.4,0,.6,.4,.8,.4c.2,.1,.3,.1,.6,.1l.2,-.1Z" class="ga_255"/>
<path d="M360.3,527v.1c.3,0,.8,.1,.9,.1c.4,.2,.3,.3,.4,.8v4.7c0,.3,0,.5,-.1,.6c0,.5,-.6,.6,-1.2,.6v.1h3.5v-.1c-.4,0,-1,-.1,-1.1,-.3c-.2,-.2,-.2,-.5,-.2,-.9v-6.3c-.6,.3,-1.5,.5,-2.2,.6Z" class="ga_255"/>
<path d="M364.6,533.9c0,.5,.5,.9,1.1,.9c.5,0,.8,-.2,1.3,-.6c.9,-.7,2.1,-2.2,2.8,-3.4c.4,-.6,.8,-1.2,1.1,-1.8c.4,-.8,1.1,-2.1,1.1,-2.9c0,-.3,-.1,-.5,-.1,-.6c-.1,-.2,-.3,-.3,-.5,-.3c-.2,0,-.3,.1,-.5,.2c-.1,.1,-.2,.4,-.2,.6c0,.5,.3,1,.3,1.4c0,.6,-.3,1.1,-.5,1.6c-.2,.5,-.5,.8,-.8,1.4h-.1l-.3,-1.9c-.1,-.6,-.3,-1.7,-.4,-2.1c-.2,-.7,-.4,-1.2,-1.4,-1.2c-1.1,0,-1.3,1.8,-1.6,2.5l.3,.2c.2,-.6,.6,-2.4,1.1,-2.4c.3,0,.5,1.1,.5,1.3c.1,.3,.2,.7,.3,1.4l.6,3.5c-.4,.8,-1.2,1.6,-1.8,2.1c-.2,.2,-.5,.3,-.7,.3c-.1,0,-.2,-.1,-.2,-.2c-.3,-.2,-.3,-.7,-.7,-.7c-.4,0,-.7,.3,-.7,.7Z" class="ga_255"/>
<path d="M373.6,527v.1c.3,0,.8,.1,1,.1c.3,.2,.3,.3,.3,.8v4.7c0,.3,0,.5,0,.6c-.1,.5,-.7,.6,-1.2,.6v.1h3.4v-.1c-.4,0,-.9,-.1,-1.1,-.3c-.1,-.2,-.1,-.5,-.1,-.9v-6.3c-.6,.3,-1.6,.5,-2.3,.6Z" class="ga_255"/>
<path d="M386,527.4h-3.2v1H386v3.3h1v-3.3h3.3v-1H387v-3.2h-1v3.2Z" class="ga_255"/>
<path d="M399.2,521c-2.2,1.4,-3.7,3.8,-3.7,6.9c0,2.7,1.6,5.5,3.6,6.8l.2,-.3c-1.9,-1.5,-2.5,-3.3,-2.5,-6.6c0,-3.3,.6,-5,2.5,-6.5l-.1,-.3Z" class="ga_255"/>
<path d="M402.3,522v.2c.5,0,1.1,.1,1.3,.2c.5,.2,.5,.4,.5,1v6.5c0,.3,0,.6,-.1,.8c0,.6,-.9,.7,-1.6,.8v.2h4.7v-.2c-.5,-.1,-1.2,-.1,-1.5,-.4c-.2,-.3,-.2,-.7,-.2,-1.3v-8.6c-.8,.4,-2.1,.7,-3.1,.8Z" class="ga_255"/>
<path d="M413,528.3h7.6v-.9H413Z" class="ga_255"/>
<path d="M426.1,531.8c1.3,0,2.1,-1.3,2.5,-2.1l-.3,-.1c-.3,.4,-.9,1.6,-1.6,1.6c-.3,0,-.3,-.5,-.3,-.6c0,-.2,.1,-.6,.2,-1l1,-3.9h1.3l.1,-.4h-1.3l.5,-1.6h-1.1l-.4,1.6h-1.1v.4h1l-.9,3.6c-.2,.4,-.3,.8,-.3,1.1c-.1,.3,-.1,.4,-.1,.6c0,.6,.2,.8,.8,.8Z" class="ga_255"/>
<path d="M430.4,521l-.1,.3c1.9,1.5,2.5,3.2,2.5,6.5c0,3.3,-.5,5.1,-2.5,6.6l.2,.3c2,-1.3,3.6,-4.1,3.6,-6.8c0,-3.1,-1.5,-5.5,-3.7,-6.9Z" class="ga_255"/>
<path d="M438.2,521.6c-.7,0,-1.1,-.5,-1.1,-1.1c0,-.8,.5,-1.7,1.4,-1.7c1.2,0,1.3,1,1.3,1.9c0,.9,-.3,1.5,-.7,2.1c-.3,.5,-.7,.9,-1.2,1.4c-.5,.5,-1.1,1.1,-1.8,1.7v.4h4.5l.4,-2.1h-.3c-.1,.2,-.2,.4,-.2,.5c-.2,.4,-.5,.6,-1,.6h-2.1c.4,-.4,.9,-.8,1.3,-1.1c.8,-.7,1.6,-1.4,2,-2.3c.2,-.4,.3,-.8,.3,-1.2c0,-.3,-.1,-.6,-.2,-.8c-.4,-.8,-1.1,-1.3,-2.2,-1.3c-.7,0,-1.3,.3,-1.7,.6c-.4,.3,-.7,.8,-.7,1.5c0,.4,.1,.8,.3,1c.2,.2,.5,.4,.9,.4c.4,0,.7,-.2,.8,-.5Z" class="ga_255"/>
<path d="M443.7,531.8c1.2,0,2.1,-1.3,2.5,-2.1l-.3,-.1c-.3,.4,-.9,1.6,-1.6,1.6c-.3,0,-.3,-.5,-.3,-.6c0,-.2,0,-.6,.2,-1l1,-3.9h1.3l.1,-.4h-1.3l.5,-1.6h-1.1l-.4,1.6h-1.1v.4h1l-1,3.6c-.1,.4,-.2,.8,-.2,1.1c-.1,.3,-.1,.4,-.1,.6c0,.6,.2,.8,.8,.8Z" class="ga_255"/>
<path d="M452.7,529.2c0,-.3,-.1,-.9,-.1,-1.1c0,-.2,0,-.5,.1,-.7c0,-.4,.3,-1.6,.7,-1.6c.2,0,.2,.6,.2,.9c0,.9,-.5,1.9,-.9,2.5Zm-2.8,-3c0,0,-1.6,2.3,-1.6,4c0,.8,.5,1.6,1.4,1.6c1,0,1.7,-.6,2.3,-1.3c.2,.7,.6,1.3,1.4,1.3c2.2,0,3.5,-4.1,3.5,-5.4c0,-.7,-.1,-1.2,-.7,-1.2c-.4,0,-.6,.2,-.6,.7c0,.7,.5,1.2,.4,2c0,1,-1.1,3.5,-2.2,3.5c-.6,0,-.9,-1.2,-1,-1.8c.4,-.6,.8,-1.3,1.1,-1.9c.2,-.6,.3,-1.1,.3,-1.5c0,-.6,-.2,-1,-.7,-1c-.2,0,-.4,.1,-.6,.3c-.7,.7,-1.1,1.9,-1.1,3.2c0,.2,0,.3,0,.5c0,.2,.1,.8,.1,.9c-.3,.4,-.7,.8,-1,1c-.3,.2,-.5,.3,-.7,.3c-.6,0,-.8,-.7,-.8,-1.3c0,-1.7,.6,-3.1,1.3,-4.2c.1,-.2,.4,-.5,.4,-.5c0,-.1,0,-.2,-.1,-.2c-.1,0,-.2,.1,-.2,.1c-.1,.1,-.2,.1,-.4,.3c-.1,.1,-.2,.2,-.4,.2c-.3,0,-.4,-.1,-.6,-.3c-.2,-.2,-.4,-.3,-.7,-.3c-.6,0,-1.3,.6,-1.3,1.1c0,.4,.3,.5,.6,.5c.2,0,.4,-.1,.4,-.4c0,-.2,-.3,-.3,-.3,-.4c0,-.1,.1,-.2,.3,-.2c.4,0,.6,.4,.8,.4q.2,.1,.6,.1l.1,-.1Z" class="ga_255"/>
<path d="M459.8,529.4c-.6,0,-1,-.5,-1,-1.2c0,-.8,.4,-1.6,1.3,-1.6c1.2,0,1.3,1,1.3,1.9c0,.9,-.3,1.5,-.7,2.1c-.3,.4,-.7,.9,-1.1,1.4c-.5,.5,-1.1,1.1,-1.9,1.7v.3h4.6l.3,-2h-.3c0,.2,-.1,.4,-.2,.5c-.2,.4,-.5,.6,-1,.6H459V533c.5,-.3,.9,-.7,1.4,-1c.7,-.7,1.5,-1.4,1.9,-2.3c.2,-.4,.3,-.8,.3,-1.2c0,-.3,-.1,-.6,-.2,-.8c-.3,-.8,-1.1,-1.3,-2.2,-1.3c-.7,0,-1.3,.2,-1.7,.6c-.4,.3,-.7,.8,-.7,1.4c0,.5,.1,.8,.4,1.1c.2,.2,.5,.4,.9,.4c.4,0,.7,-.2,.7,-.5Z" class="ga_255"/>
<path d="M463,533.9c0,.5,.5,.9,1.1,.9c.5,0,.8,-.2,1.3,-.6c.8,-.7,2.1,-2.2,2.8,-3.4c.4,-.6,.8,-1.2,1.1,-1.8c.3,-.8,1.1,-2.1,1.1,-2.9c0,-.3,-.1,-.5,-.2,-.6c-.1,-.2,-.2,-.3,-.4,-.3c-.2,0,-.3,.1,-.5,.2c-.1,.1,-.2,.4,-.2,.6c0,.5,.2,1,.2,1.4c0,.6,-.2,1.1,-.4,1.6c-.3,.5,-.5,.8,-.8,1.4H468l-.4,-1.9c-.1,-.6,-.3,-1.7,-.4,-2.1c-.2,-.7,-.3,-1.2,-1.3,-1.2c-1.2,0,-1.3,1.8,-1.6,2.5l.3,.2c.1,-.6,.6,-2.4,1.1,-2.4c.3,0,.4,1.1,.5,1.3c.1,.3,.2,.7,.3,1.4l.6,3.5c-.4,.8,-1.2,1.6,-1.8,2.1c-.3,.2,-.6,.3,-.7,.3c-.1,0,-.2,-.1,-.3,-.2c-.2,-.2,-.2,-.7,-.7,-.7c-.4,0,-.6,.3,-.6,.7Z" class="ga_255"/>
<path d="M473.2,529.4c-.7,0,-1.1,-.5,-1.1,-1.2c0,-.8,.4,-1.6,1.3,-1.6c1.2,0,1.3,1,1.3,1.9c0,.9,-.2,1.5,-.7,2.1c-.2,.4,-.6,.9,-1.1,1.4c-.5,.5,-1.1,1.1,-1.8,1.7v.3h4.5l.4,-2h-.3c-.1,.2,-.2,.4,-.3,.5c-.1,.4,-.4,.6,-1,.6h-2.1V533c.5,-.3,1,-.7,1.4,-1c.7,-.7,1.5,-1.4,1.9,-2.3c.2,-.4,.3,-.8,.3,-1.2c0,-.3,0,-.6,-.2,-.8c-.3,-.8,-1,-1.3,-2.1,-1.3c-.7,0,-1.4,.2,-1.8,.6c-.3,.3,-.7,.8,-.7,1.4c0,.5,.2,.8,.4,1.1c.2,.2,.5,.4,.9,.4c.4,0,.7,-.2,.8,-.5Z" class="ga_255"/>
<path d="M484.4,527.4h-3.3v1h3.3v3.3h1v-3.3h3.2v-1h-3.2v-3.2h-1v3.2Z" class="ga_255"/>
<path d="M497.6,521c-2.2,1.4,-3.7,3.8,-3.7,6.9c0,2.7,1.6,5.5,3.6,6.8l.2,-.3c-2,-1.5,-2.5,-3.3,-2.5,-6.6c0,-3.3,.6,-5,2.5,-6.5l-.1,-.3Z" class="ga_255"/>
<path d="M500.7,522v.2c.4,0,1.1,.1,1.3,.2c.5,.2,.4,.4,.5,1v6.5c0,.3,-.1,.6,-.1,.8c-.1,.6,-.9,.7,-1.6,.8v.2h4.7v-.2c-.5,-.1,-1.3,-.1,-1.5,-.4c-.2,-.3,-.2,-.7,-.2,-1.3v-8.6c-.8,.4,-2.1,.7,-3.1,.8Z" class="ga_255"/>
<path d="M511.3,528.3h7.6v-.9h-7.6Z" class="ga_255"/>
<path d="M524.5,531.8c1.2,0,2,-1.3,2.5,-2.1l-.3,-.1c-.3,.4,-.9,1.6,-1.7,1.6c-.2,0,-.3,-.5,-.3,-.6c.1,-.2,.1,-.6,.3,-1l1,-3.9h1.3l.1,-.4h-1.3l.4,-1.6h-1l-.4,1.6H524l-.1,.4H525l-1,3.6c-.1,.4,-.2,.8,-.2,1.1c-.1,.3,-.1,.4,-.1,.6c0,.6,.2,.8,.8,.8Z" class="ga_255"/>
<path d="M528.8,521l-.1,.3c1.9,1.5,2.5,3.2,2.5,6.5c0,3.3,-.6,5.1,-2.5,6.6l.1,.3c2.1,-1.3,3.7,-4.1,3.7,-6.8c0,-3.1,-1.5,-5.5,-3.7,-6.9Z" class="ga_255"/>
<path d="M535.2,531.8c1.3,0,2.1,-1.3,2.5,-2.1l-.3,-.1c-.2,.4,-.9,1.6,-1.6,1.6c-.2,0,-.3,-.5,-.3,-.6c0,-.2,.1,-.6,.2,-1l1.1,-3.9H538l.1,-.4h-1.3l.5,-1.6h-1.1l-.4,1.6h-1.1v.4h1l-.9,3.6c-.2,.4,-.2,.8,-.3,1.1c-.1,.3,-.1,.4,-.1,.6c0,.6,.2,.8,.8,.8Z" class="ga_255"/>
<path d="M541.6,521.6c-.7,0,-1.1,-.5,-1.1,-1.1c0,-.8,.4,-1.7,1.3,-1.7c1.3,0,1.4,1,1.4,1.9c0,.9,-.3,1.5,-.7,2.1c-.3,.5,-.7,.9,-1.2,1.4c-.5,.5,-1.1,1.1,-1.8,1.7v.4H544l.4,-2.1h-.3c-.1,.2,-.2,.4,-.2,.5c-.2,.4,-.5,.6,-1,.6h-2.1c.4,-.4,.9,-.8,1.3,-1.1c.8,-.7,1.6,-1.4,2,-2.3c.2,-.4,.3,-.8,.3,-1.2c0,-.3,-.1,-.6,-.2,-.8c-.4,-.8,-1.1,-1.3,-2.2,-1.3c-.7,0,-1.3,.3,-1.7,.6c-.4,.3,-.7,.8,-.7,1.5c0,.4,.1,.8,.3,1c.2,.2,.5,.4,.9,.4c.4,0,.7,-.2,.8,-.5Z" class="ga_255"/>
<path d="M551.1,529.2c0,-.3,-.1,-.9,-.1,-1.1c0,-.2,0,-.5,0,-.7c.1,-.4,.3,-1.6,.7,-1.6c.3,0,.3,.6,.3,.9c0,.9,-.6,1.9,-.9,2.5Zm-2.8,-3c0,0,-1.6,2.3,-1.6,4c0,.8,.4,1.6,1.4,1.6c1,0,1.7,-.6,2.3,-1.3c.2,.7,.6,1.3,1.4,1.3c2.1,0,3.5,-4.1,3.5,-5.4c0,-.7,-.1,-1.2,-.7,-1.2c-.4,0,-.6,.2,-.6,.7c0,.7,.4,1.2,.4,2c0,1,-1.1,3.5,-2.3,3.5c-.6,0,-.9,-1.2,-.9,-1.8c.4,-.6,.8,-1.3,1,-1.9c.2,-.6,.4,-1.1,.4,-1.5c0,-.6,-.2,-1,-.7,-1c-.2,0,-.5,.1,-.6,.3c-.7,.7,-1.1,1.9,-1.1,3.2c0,.2,0,.3,0,.5c0,.2,.1,.8,.1,.9c-.3,.4,-.7,.8,-1,1c-.3,.2,-.6,.3,-.8,.3c-.5,0,-.7,-.7,-.7,-1.3c0,-1.7,.6,-3.1,1.2,-4.2c.2,-.2,.5,-.5,.5,-.5c0,-.1,0,-.2,-.1,-.2c-.1,0,-.2,.1,-.3,.1c0,.1,-.1,.1,-.3,.3c-.1,.1,-.2,.2,-.4,.2c-.3,0,-.5,-.1,-.6,-.3c-.2,-.2,-.4,-.3,-.8,-.3c-.6,0,-1.2,.6,-1.2,1.1c0,.4,.3,.5,.5,.5c.3,0,.5,-.1,.5,-.4c0,-.2,-.3,-.3,-.3,-.4c0,-.1,.1,-.2,.3,-.2c.4,0,.5,.4,.7,.4c.2,.1,.3,.1,.6,.1l.2,-.1Z" class="ga_255"/>
<path d="M558.4,533.9c-.7,0,-1.3,-.6,-1.3,-1.3c0,-.6,.4,-1,.9,-1c-.1,-.3,-.4,-.4,-.8,-.4c-.1,0,-.3,0,-.4,.1c-.4,.1,-.7,.6,-.7,1.1c0,.3,0,.5,.2,.7c.3,.6,1.1,1,2.1,1c.8,0,1.4,-.2,1.9,-.6c.4,-.3,.7,-.8,.7,-1.5c0,-.2,0,-.5,-.1,-.7c-.3,-.6,-.8,-1.1,-1.6,-1.3c.5,-.1,.8,-.4,1.1,-.7c.2,-.3,.4,-.7,.4,-1.1c0,-.3,-.1,-.5,-.2,-.8c-.3,-.6,-1.1,-1,-2.1,-1c-.6,0,-1.2,.1,-1.6,.4c-.3,.2,-.5,.5,-.5,1c0,.3,.1,.6,.3,.7c.1,.2,.4,.3,.7,.3c.1,0,.3,0,.4,-.1c.2,0,.2,-.1,.3,-.2c-.5,0,-.7,-.4,-.7,-.8c0,-.6,.4,-1.1,1.1,-1.1c.7,0,1.1,.7,1.1,1.6c0,.9,-.2,1.8,-1,1.8c-.2,-.1,-.4,-.2,-.6,-.2c-.2,0,-.6,.1,-.6,.3c0,.2,.4,.3,.6,.3c.2,0,.5,-.1,.7,-.2c.8,0,1.1,.8,1.1,1.7c0,1.1,-.4,2,-1.4,2Z" class="ga_255"/>
<path d="M561.4,533.9c0,.5,.5,.9,1.1,.9c.4,0,.8,-.2,1.3,-.6c.8,-.7,2,-2.2,2.8,-3.4c.4,-.6,.7,-1.2,1,-1.8c.4,-.8,1.1,-2.1,1.1,-2.9c0,-.3,0,-.5,-.1,-.6c-.1,-.2,-.3,-.3,-.5,-.3c-.1,0,-.3,.1,-.4,.2c-.2,.1,-.2,.4,-.2,.6c0,.5,.2,1,.2,1.4c0,.6,-.2,1.1,-.5,1.6c-.2,.5,-.4,.8,-.8,1.4h-.1l-.3,-1.9c-.1,-.6,-.3,-1.7,-.4,-2.1c-.2,-.7,-.3,-1.2,-1.3,-1.2c-1.2,0,-1.4,1.8,-1.6,2.5l.3,.2c.1,-.6,.5,-2.4,1,-2.4c.3,0,.5,1.1,.6,1.3c0,.3,.1,.7,.2,1.4l.6,3.5c-.3,.8,-1.2,1.6,-1.8,2.1c-.2,.2,-.5,.3,-.7,.3c-.1,0,-.2,-.1,-.2,-.2c-.2,-.2,-.2,-.7,-.7,-.7c-.4,0,-.6,.3,-.6,.7Z" class="ga_255"/>
<path d="M571.7,533.9c-.7,0,-1.2,-.6,-1.2,-1.3c0,-.6,.3,-1,.8,-1c-.1,-.3,-.4,-.4,-.7,-.4c-.2,0,-.4,0,-.5,.1c-.4,.1,-.7,.6,-.7,1.1c0,.3,.1,.5,.2,.7c.4,.6,1.1,1,2.2,1c.8,0,1.4,-.2,1.8,-.6c.4,-.3,.8,-.8,.8,-1.5c0,-.2,-.1,-.5,-.2,-.7c-.2,-.6,-.8,-1.1,-1.5,-1.3c.4,-.1,.8,-.4,1,-.7c.2,-.3,.4,-.7,.4,-1.1c0,-.3,0,-.5,-.1,-.8c-.4,-.6,-1.2,-1,-2.2,-1c-.6,0,-1.1,.1,-1.5,.4c-.3,.2,-.6,.5,-.6,1c0,.3,.1,.6,.3,.7c.1,.2,.4,.3,.7,.3c.2,0,.3,0,.5,-.1c.1,0,.2,-.1,.2,-.2c-.4,0,-.7,-.4,-.7,-.8c0,-.6,.5,-1.1,1.1,-1.1c.8,0,1.2,.7,1.2,1.6c0,.9,-.3,1.8,-1.1,1.8c-.2,-.1,-.4,-.2,-.6,-.2c-.2,0,-.5,.1,-.5,.3c0,.2,.3,.3,.5,.3c.3,0,.5,-.1,.7,-.2c.9,0,1.1,.8,1.1,1.7c0,1.1,-.4,2,-1.4,2Z" class="ga_255"/>
<path d="M582.8,527.4h-3.3v1h3.3v3.3h.9v-3.3H587v-1h-3.3v-3.2h-.9v3.2Z" class="ga_255"/>
<path d="M592,531.8c1.3,0,2.1,-1.3,2.6,-2.1l-.3,-.1c-.3,.4,-.9,1.6,-1.7,1.6c-.2,0,-.3,-.5,-.3,-.6c0,-.2,.1,-.6,.2,-1l1.1,-3.9h1.3l.1,-.4h-1.3l.4,-1.6h-1l-.5,1.6h-1l-.1,.4h1.1l-1,3.6c-.1,.4,-.2,.8,-.3,1.1c0,.3,-.1,.4,-.1,.6c0,.6,.3,.8,.8,.8Z" class="ga_255"/>
<path d="M598.7,526.2c-.8,0,-1.3,-.7,-1.3,-1.4c0,-.6,.3,-1,.8,-1c0,-.3,-.4,-.4,-.7,-.4c-.2,0,-.3,0,-.5,.1c-.4,.1,-.7,.6,-.7,1.1c0,.3,.1,.5,.2,.7c.4,.7,1.2,1.1,2.2,1.1c.8,0,1.4,-.3,1.8,-.6c.4,-.4,.8,-.9,.8,-1.6c0,-.2,-.1,-.4,-.2,-.7c-.2,-.6,-.8,-1.1,-1.5,-1.3c.4,-.1,.8,-.4,1,-.7c.3,-.2,.4,-.6,.4,-1.1c0,-.3,0,-.5,-.1,-.7c-.4,-.7,-1.2,-1.1,-2.2,-1.1c-.6,0,-1.1,.2,-1.5,.4c-.3,.2,-.6,.5,-.6,1c0,.3,.1,.6,.3,.7c.2,.2,.4,.4,.7,.4c.2,0,.3,-.1,.5,-.2c.1,0,.2,-.1,.2,-.2c-.4,0,-.7,-.3,-.7,-.8c0,-.6,.5,-1.1,1.1,-1.1c.8,0,1.2,.7,1.2,1.6c0,.9,-.3,1.8,-1.1,1.8c-.2,-.1,-.4,-.2,-.6,-.2c-.2,0,-.5,.1,-.5,.3c0,.2,.3,.3,.5,.3c.3,0,.5,-.1,.7,-.2c.9,0,1.1,.8,1.1,1.8c0,1,-.4,2,-1.3,2Z" class="ga_255"/>
<path d="M607.9,529.2c0,-.3,-.1,-.9,-.1,-1.1c0,-.2,0,-.5,.1,-.7c.1,-.4,.3,-1.6,.7,-1.6c.2,0,.2,.6,.2,.9c0,.9,-.5,1.9,-.9,2.5Zm-2.7,-3c0,0,-1.7,2.3,-1.7,4c0,.8,.5,1.6,1.4,1.6c1,0,1.8,-.6,2.3,-1.3c.2,.7,.6,1.3,1.4,1.3c2.2,0,3.5,-4.1,3.5,-5.4c.1,-.7,-.1,-1.2,-.7,-1.2c-.4,0,-.6,.2,-.6,.7c0,.7,.5,1.2,.4,2c0,1,-1.1,3.5,-2.2,3.5c-.6,0,-.9,-1.2,-1,-1.8c.4,-.6,.8,-1.3,1.1,-1.9c.2,-.6,.3,-1.1,.3,-1.5c0,-.6,-.2,-1,-.7,-1c-.2,0,-.4,.1,-.6,.3c-.7,.7,-1.1,1.9,-1.1,3.2c0,.2,0,.3,0,.5c0,.2,.1,.8,.1,.9c-.3,.4,-.7,.8,-1,1c-.3,.2,-.5,.3,-.7,.3c-.6,0,-.7,-.7,-.7,-1.3c0,-1.7,.5,-3.1,1.2,-4.2c.1,-.2,.5,-.5,.5,-.5c0,-.1,-.1,-.2,-.2,-.2c-.1,0,-.2,.1,-.2,.1c-.1,.1,-.2,.1,-.4,.3c-.1,.1,-.2,.2,-.4,.2c-.3,0,-.4,-.1,-.6,-.3c-.2,-.2,-.4,-.3,-.7,-.3c-.6,0,-1.3,.6,-1.3,1.1c0,.4,.3,.5,.6,.5c.2,0,.4,-.1,.4,-.4c0,-.2,-.2,-.3,-.2,-.4c0,-.1,0,-.2,.2,-.2c.4,0,.6,.4,.8,.4c.2,.1,.3,.1,.6,.1l.2,-.1Z" class="ga_255"/>
<path d="M615.5,527.9l.1,4H613c.9,-1.3,1.7,-2.7,2.5,-4Zm-2.7,3.9v.4h2.8v.4c0,.9,-.2,1.3,-.6,1.3v.1h2.1v-.1c-.5,0,-.6,-.6,-.6,-1.3v-.4h1.3c0,0,0,-.3,0,-.3c0,0,-1.3,0,-1.3,0v-5.5h-.3l-3.4,5.4Z" class="ga_255"/>
<path d="M618.2,533.9c0,.5,.5,.9,1.1,.9c.5,0,.8,-.2,1.3,-.6c.8,-.7,2.1,-2.2,2.8,-3.4c.4,-.6,.8,-1.2,1.1,-1.8c.3,-.8,1.1,-2.1,1.1,-2.9c0,-.3,-.1,-.5,-.2,-.6c-.1,-.2,-.2,-.3,-.4,-.3c-.2,0,-.3,.1,-.5,.2c-.1,.1,-.2,.4,-.2,.6c0,.5,.2,1,.2,1.4c0,.6,-.2,1.1,-.4,1.6c-.3,.5,-.5,.8,-.8,1.4h-.1l-.3,-1.9c-.1,-.6,-.4,-1.7,-.5,-2.1c-.1,-.7,-.3,-1.2,-1.3,-1.2c-1.1,0,-1.3,1.8,-1.6,2.5l.3,.2c.1,-.6,.6,-2.4,1.1,-2.4c.3,0,.4,1.1,.5,1.3c.1,.3,.2,.7,.3,1.4l.6,3.5c-.4,.8,-1.2,1.6,-1.8,2.1c-.2,.2,-.6,.3,-.7,.3c-.1,0,-.2,-.1,-.3,-.2c-.2,-.2,-.2,-.7,-.7,-.7c-.4,0,-.6,.3,-.6,.7Z" class="ga_255"/>
<path d="M628.9,527.9v4h-2.5c.8,-1.3,1.6,-2.7,2.5,-4Zm-2.8,3.9v.4h2.8v.4c0,.9,-.1,1.3,-.6,1.3v.1h2.1v-.1c-.4,0,-.5,-.6,-.5,-1.3v-.4h1.2c0,0,0,-.3,0,-.3c0,0,-1.2,0,-1.2,0v-5.5h-.4l-3.4,5.4Z" class="ga_255"/>
<path d="M300.7,538.4H632.6v-.9H300.7Z" class="ga_255"/>
<path d="M332.5,542.1c-2.1,1.4,-3.7,3.9,-3.7,6.9c0,2.7,1.6,5.5,3.7,6.8l.2,-.2c-2,-1.6,-2.6,-3.4,-2.6,-6.7c0,-3.3,.6,-5,2.6,-6.5l-.2,-.3Z" class="ga_255"/>
<path d="M335.7,543.1v.2c.4,0,1.1,.1,1.3,.2c.4,.2,.4,.4,.4,1V551c0,.3,0,.6,0,.8c-.1,.7,-.9,.8,-1.7,.8v.2h4.7v-.2c-.5,0,-1.2,-.1,-1.4,-.3c-.3,-.3,-.3,-.8,-.3,-1.4v-8.6c-.8,.4,-2.1,.8,-3,.8Z" class="ga_255"/>
<path d="M346.3,549.4h7.6v-.8h-7.6Z" class="ga_255"/>
<path d="M359.4,552.9c1.3,0,2.1,-1.3,2.5,-2.1l-.2,-.1c-.3,.4,-.9,1.6,-1.7,1.6c-.2,0,-.3,-.4,-.3,-.6c0,-.2,.1,-.5,.2,-1l1.1,-3.9h1.3l.1,-.4H361l.5,-1.6h-1l-.5,1.6h-1l-.1,.4h1l-.9,3.6c-.1,.4,-.2,.8,-.3,1.1c0,.3,-.1,.5,-.1,.6c0,.6,.3,.8,.8,.8Z" class="ga_255"/>
<path d="M363.8,542.1l-.2,.3c1.9,1.5,2.6,3.2,2.6,6.5c0,3.3,-.6,5.1,-2.6,6.7l.2,.2c2.1,-1.3,3.6,-4.1,3.6,-6.8c0,-3,-1.5,-5.5,-3.6,-6.9Z" class="ga_255"/>
<path d="M371.7,548.4c-.7,0,-1.2,-.7,-1.2,-1.4c0,-.5,.3,-1,.8,-1c-.1,-.2,-.4,-.4,-.7,-.4c-.2,0,-.3,.1,-.5,.1c-.4,.2,-.7,.6,-.7,1.2c0,.2,.1,.4,.2,.6c.4,.7,1.1,1.1,2.2,1.1c.8,0,1.4,-.3,1.8,-.6c.4,-.4,.8,-.8,.8,-1.5c0,-.3,-.1,-.5,-.2,-.7c-.2,-.7,-.8,-1.1,-1.5,-1.3v-.1c.4,-.1,.8,-.3,1,-.6c.2,-.3,.4,-.7,.4,-1.2c0,-.3,0,-.5,-.1,-.7c-.4,-.7,-1.2,-1,-2.2,-1c-.6,0,-1.1,.1,-1.5,.3c-.3,.2,-.6,.6,-.6,1c0,.3,.1,.6,.3,.8c.1,.1,.4,.3,.7,.3c.2,0,.3,-.1,.5,-.1c.1,-.1,.2,-.2,.2,-.3c-.4,0,-.7,-.3,-.7,-.7c0,-.6,.5,-1.1,1.1,-1.1c.8,0,1.2,.6,1.2,1.5c0,.9,-.3,1.8,-1.1,1.8c-.2,0,-.4,-.1,-.6,-.1c-.2,0,-.5,0,-.5,.2c0,.3,.3,.4,.5,.4c.3,0,.5,-.2,.7,-.3c.9,0,1.1,.8,1.1,1.8c0,1,-.4,2,-1.4,2Z" class="ga_255"/>
<path d="M381,550.3c0,-.3,-.1,-.8,-.1,-1c0,-.3,0,-.6,.1,-.8c0,-.4,.3,-1.5,.7,-1.5c.2,0,.2,.5,.2,.8c0,.9,-.5,1.9,-.9,2.5Zm-2.8,-3c0,0,-1.6,2.3,-1.6,4c0,.8,.5,1.6,1.4,1.6c1,0,1.7,-.6,2.3,-1.3c.2,.7,.6,1.3,1.4,1.3c2.2,0,3.5,-4.1,3.5,-5.4c0,-.7,-.1,-1.2,-.7,-1.2c-.4,0,-.6,.3,-.6,.7c0,.7,.5,1.3,.4,2c0,1,-1.1,3.5,-2.3,3.5c-.5,0,-.8,-1.2,-.9,-1.8c.4,-.6,.8,-1.3,1.1,-1.9c.2,-.5,.3,-1,.3,-1.5c0,-.5,-.2,-1,-.7,-1c-.2,0,-.4,.1,-.6,.3c-.7,.7,-1.1,1.9,-1.1,3.2c0,.2,0,.3,0,.5c0,.2,.1,.8,.1,1c-.3,.3,-.7,.7,-1,.9c-.3,.2,-.5,.3,-.7,.3c-.6,0,-.8,-.6,-.8,-1.3c0,-1.7,.6,-3,1.3,-4.2c.1,-.2,.4,-.4,.4,-.5c0,-.1,0,-.2,-.1,-.2c-.1,0,-.2,.1,-.2,.1c-.1,.1,-.2,.2,-.4,.3c-.1,.1,-.2,.2,-.4,.2c-.3,0,-.4,-.1,-.6,-.2c-.2,-.3,-.4,-.4,-.7,-.4c-.6,0,-1.3,.6,-1.3,1.1c0,.5,.3,.6,.6,.6c.2,0,.4,-.2,.4,-.5c0,-.2,-.3,-.2,-.3,-.4c0,-.1,.1,-.2,.3,-.2c.4,0,.6,.4,.8,.5q.2,.1,.6,0l.1,-.1Z" class="ga_255"/>
<path d="M386.9,548.1v.1c.4,0,.8,.1,1,.2c.3,.1,.3,.3,.3,.7v4.8c0,.2,0,.4,0,.5c-.1,.5,-.7,.6,-1.2,.6v.2h3.4V555c-.3,0,-.9,0,-1,-.2c-.2,-.2,-.2,-.6,-.2,-1v-6.3c-.6,.3,-1.6,.6,-2.3,.6Z" class="ga_255"/>
<path d="M399.4,548.6h-3.3v.9h3.3v3.3h.9v-3.3h3.3v-.9h-3.3v-3.3h-.9v3.3Z" class="ga_255"/>
<path d="M412.5,542.1c-2.1,1.4,-3.6,3.9,-3.6,6.9c0,2.7,1.5,5.5,3.6,6.8l.2,-.2c-2,-1.6,-2.6,-3.4,-2.6,-6.7c0,-3.3,.6,-5,2.6,-6.5l-.2,-.3Z" class="ga_255"/>
<path d="M415.7,543.1v.2c.4,0,1.1,.1,1.3,.2c.4,.2,.4,.4,.4,1V551c0,.3,0,.6,0,.8c-.1,.7,-.9,.8,-1.7,.8v.2h4.7v-.2c-.5,0,-1.2,-.1,-1.4,-.3c-.2,-.3,-.3,-.8,-.3,-1.4v-8.6c-.7,.4,-2.1,.8,-3,.8Z" class="ga_255"/>
<path d="M426.3,549.4h7.6v-.8h-7.6Z" class="ga_255"/>
<path d="M439.4,552.9c1.3,0,2.1,-1.3,2.5,-2.1l-.2,-.1c-.3,.4,-.9,1.6,-1.7,1.6c-.2,0,-.3,-.4,-.3,-.6c0,-.2,.1,-.5,.2,-1l1.1,-3.9h1.3l.1,-.4h-1.3l.4,-1.6h-1l-.5,1.6h-1l-.1,.4h1l-.9,3.6c-.1,.4,-.2,.8,-.3,1.1c0,.3,-.1,.5,-.1,.6c0,.6,.3,.8,.8,.8Z" class="ga_255"/>
<path d="M443.8,542.1l-.2,.3c1.9,1.5,2.6,3.2,2.6,6.5c0,3.3,-.6,5.1,-2.6,6.7l.2,.2c2.1,-1.3,3.6,-4.1,3.6,-6.8c0,-3,-1.5,-5.5,-3.6,-6.9Z" class="ga_255"/>
<path d="M451.5,543.8c-.6,0,-1,-.5,-1,-1.1c0,-.8,.4,-1.6,1.3,-1.6c1.2,0,1.3,.9,1.3,1.8c0,1,-.3,1.5,-.7,2.2c-.3,.4,-.7,.8,-1.1,1.3c-.5,.5,-1.1,1.1,-1.9,1.8v.3H454l.3,-2.1H454c0,.2,-.1,.4,-.2,.6c-.1,.3,-.5,.5,-1,.5h-2.1c.5,-.4,.9,-.7,1.4,-1.1c.7,-.6,1.5,-1.4,1.9,-2.2c.2,-.4,.3,-.8,.3,-1.2c0,-.3,-.1,-.6,-.2,-.9c-.3,-.7,-1.1,-1.3,-2.2,-1.3c-.7,0,-1.3,.3,-1.7,.6c-.4,.3,-.7,.8,-.7,1.5c0,.4,.1,.8,.4,1c.2,.3,.5,.4,.9,.4c.4,0,.7,-.1,.7,-.5Z" class="ga_255"/>
<path d="M457,552.9c1.3,0,2.1,-1.3,2.5,-2.1l-.3,-.1c-.2,.4,-.8,1.6,-1.6,1.6c-.2,0,-.3,-.4,-.3,-.6c0,-.2,.1,-.5,.2,-1l1.1,-3.9h1.3v-.4h-1.3l.5,-1.6h-1l-.5,1.6h-1l-.1,.4h1l-.9,3.6c-.2,.4,-.2,.8,-.3,1.1c-.1,.3,-.1,.5,-.1,.6c0,.6,.2,.8,.8,.8Z" class="ga_255"/>
<path d="M466.1,550.3c-.1,-.3,-.1,-.8,-.1,-1c0,-.3,0,-.6,0,-.8c.1,-.4,.3,-1.5,.7,-1.5c.3,0,.3,.5,.3,.8c0,.9,-.6,1.9,-.9,2.5Zm-2.8,-3c0,0,-1.7,2.3,-1.7,4c0,.8,.5,1.6,1.4,1.6c1.1,0,1.8,-.6,2.3,-1.3c.3,.7,.6,1.3,1.5,1.3c2.1,0,3.4,-4.1,3.5,-5.4c0,-.7,-.1,-1.2,-.8,-1.2c-.4,0,-.6,.3,-.6,.7c0,.7,.5,1.3,.5,2c0,1,-1.1,3.5,-2.3,3.5c-.6,0,-.9,-1.2,-1,-1.8c.5,-.6,.9,-1.3,1.1,-1.9c.2,-.5,.3,-1,.3,-1.5c0,-.5,-.2,-1,-.7,-1c-.2,0,-.4,.1,-.6,.3c-.6,.7,-1.1,1.9,-1.1,3.2c0,.2,0,.3,0,.5c0,.2,.1,.8,.1,1c-.3,.3,-.6,.7,-.9,.9c-.3,.2,-.6,.3,-.8,.3c-.5,0,-.7,-.6,-.7,-1.3c0,-1.7,.5,-3,1.2,-4.2c.1,-.2,.5,-.4,.5,-.5c0,-.1,-.1,-.2,-.2,-.2c-.1,0,-.1,.1,-.2,.1c-.1,.1,-.2,.2,-.3,.3c-.2,.1,-.3,.2,-.4,.2c-.3,0,-.5,-.1,-.7,-.2c-.1,-.3,-.3,-.4,-.7,-.4c-.6,0,-1.3,.6,-1.3,1.1c0,.5,.3,.6,.6,.6c.3,0,.4,-.2,.4,-.5c0,-.2,-.2,-.2,-.2,-.4c0,-.1,0,-.2,.2,-.2c.4,0,.6,.4,.8,.5c.2,.1,.3,.1,.6,0l.2,-.1Z" class="ga_255"/>
<path d="M473.2,550.5c-.7,0,-1.1,-.5,-1.1,-1.2c0,-.7,.4,-1.6,1.3,-1.6c1.2,0,1.3,1,1.3,1.9c0,.9,-.2,1.5,-.7,2.1c-.2,.4,-.6,.9,-1.1,1.4c-.5,.5,-1.1,1.1,-1.8,1.7v.4h4.5l.4,-2.1h-.3c-.1,.2,-.2,.4,-.3,.5c-.1,.4,-.4,.6,-1,.6h-2.1c.5,-.4,1,-.8,1.4,-1.1c.7,-.7,1.5,-1.4,1.9,-2.3c.2,-.4,.3,-.8,.3,-1.2c0,-.3,0,-.6,-.2,-.8c-.3,-.8,-1,-1.3,-2.1,-1.3c-.7,0,-1.4,.3,-1.8,.6c-.3,.3,-.7,.8,-.7,1.5c0,.4,.2,.8,.4,1c.2,.2,.5,.4,.9,.4c.4,0,.7,-.2,.8,-.5Z" class="ga_255"/>
<path d="M484.4,548.6h-3.3v.9h3.3v3.3h1v-3.3h3.2v-.9h-3.2v-3.3h-1v3.3Z" class="ga_255"/>
<path d="M497.6,542.1c-2.2,1.4,-3.7,3.9,-3.7,6.9c0,2.7,1.6,5.5,3.6,6.8l.2,-.2c-2,-1.6,-2.5,-3.4,-2.5,-6.7c0,-3.3,.6,-5,2.5,-6.5l-.1,-.3Z" class="ga_255"/>
<path d="M500.7,543.1v.2c.4,0,1.1,.1,1.3,.2c.5,.2,.4,.4,.5,1V551c0,.3,-.1,.6,-.1,.8c-.1,.7,-.9,.8,-1.6,.8v.2h4.7v-.2c-.5,0,-1.3,-.1,-1.5,-.3c-.2,-.3,-.2,-.8,-.2,-1.4v-8.6c-.8,.4,-2.1,.8,-3.1,.8Z" class="ga_255"/>
<path d="M511.3,549.4h7.6v-.8h-7.6Z" class="ga_255"/>
<path d="M524.5,552.9c1.2,0,2,-1.3,2.5,-2.1l-.3,-.1c-.3,.4,-.9,1.6,-1.7,1.6c-.2,0,-.3,-.4,-.3,-.6c.1,-.2,.1,-.5,.3,-1l1,-3.9h1.3l.1,-.4h-1.3l.4,-1.6h-1l-.4,1.6H524l-.1,.4H525l-1,3.6c-.1,.4,-.2,.8,-.2,1.1c-.1,.3,-.1,.5,-.1,.6c0,.6,.2,.8,.8,.8Z" class="ga_255"/>
<path d="M528.8,542.1l-.1,.3c1.9,1.5,2.5,3.2,2.5,6.5c0,3.3,-.6,5.1,-2.5,6.7l.1,.2c2.1,-1.3,3.7,-4.1,3.7,-6.8c0,-3,-1.5,-5.5,-3.7,-6.9Z" class="ga_255"/>
<path d="M535.2,552.9c1.3,0,2.1,-1.3,2.5,-2.1l-.3,-.1c-.2,.4,-.9,1.6,-1.6,1.6c-.2,0,-.3,-.4,-.3,-.6c0,-.2,.1,-.5,.2,-1l1.1,-3.9H538l.1,-.4h-1.3l.5,-1.6h-1.1l-.4,1.6h-1.1v.4h1l-.9,3.6c-.2,.4,-.2,.8,-.3,1.1c-.1,.3,-.1,.5,-.1,.6c0,.6,.2,.8,.8,.8Z" class="ga_255"/>
<path d="M541.6,543.8c-.7,0,-1.1,-.5,-1.1,-1.1c0,-.8,.4,-1.6,1.3,-1.6c1.3,0,1.4,.9,1.4,1.8c0,1,-.3,1.5,-.7,2.2c-.3,.4,-.7,.8,-1.2,1.3c-.5,.5,-1.1,1.1,-1.8,1.8v.3H544l.4,-2.1h-.3c-.1,.2,-.2,.4,-.2,.6c-.2,.3,-.5,.5,-1,.5h-2.1c.4,-.4,.9,-.7,1.3,-1.1c.8,-.6,1.6,-1.4,2,-2.2c.2,-.4,.3,-.8,.3,-1.2c0,-.3,-.1,-.6,-.2,-.9c-.4,-.7,-1.1,-1.3,-2.2,-1.3c-.7,0,-1.3,.3,-1.7,.6c-.4,.3,-.7,.8,-.7,1.5c0,.4,.1,.8,.3,1c.2,.3,.5,.4,.9,.4c.4,0,.7,-.1,.8,-.5Z" class="ga_255"/>
<path d="M551.1,550.3c0,-.3,-.1,-.8,-.1,-1c0,-.3,0,-.6,0,-.8c.1,-.4,.3,-1.5,.7,-1.5c.3,0,.3,.5,.3,.8c0,.9,-.6,1.9,-.9,2.5Zm-2.8,-3c0,0,-1.6,2.3,-1.6,4c0,.8,.4,1.6,1.4,1.6c1,0,1.7,-.6,2.3,-1.3c.2,.7,.6,1.3,1.4,1.3c2.1,0,3.5,-4.1,3.5,-5.4c0,-.7,-.1,-1.2,-.7,-1.2c-.4,0,-.6,.3,-.6,.7c0,.7,.4,1.3,.4,2c0,1,-1.1,3.5,-2.3,3.5c-.6,0,-.9,-1.2,-.9,-1.8c.4,-.6,.8,-1.3,1,-1.9c.2,-.5,.4,-1,.4,-1.5c0,-.5,-.2,-1,-.7,-1c-.2,0,-.5,.1,-.6,.3c-.7,.7,-1.1,1.9,-1.1,3.2c0,.2,0,.3,0,.5c0,.2,.1,.8,.1,1c-.3,.3,-.7,.7,-1,.9c-.3,.2,-.6,.3,-.8,.3c-.5,0,-.7,-.6,-.7,-1.3c0,-1.7,.6,-3,1.2,-4.2c.2,-.2,.5,-.4,.5,-.5c0,-.1,0,-.2,-.1,-.2c-.1,0,-.2,.1,-.3,.1c0,.1,-.1,.2,-.3,.3c-.1,.1,-.2,.2,-.4,.2c-.3,0,-.5,-.1,-.6,-.2c-.2,-.3,-.4,-.4,-.8,-.4c-.6,0,-1.2,.6,-1.2,1.1c0,.5,.3,.6,.5,.6c.3,0,.5,-.2,.5,-.5c0,-.2,-.3,-.2,-.3,-.4c0,-.1,.1,-.2,.3,-.2c.4,0,.5,.4,.7,.5c.2,.1,.3,.1,.6,0l.2,-.1Z" class="ga_255"/>
<path d="M558.4,555.1c-.7,0,-1.3,-.7,-1.3,-1.4c0,-.6,.4,-1,.9,-1c-.1,-.3,-.4,-.4,-.8,-.4c-.1,0,-.3,0,-.4,.1c-.4,.1,-.7,.6,-.7,1.1c0,.3,0,.5,.2,.7c.3,.7,1.1,1.1,2.1,1.1c.8,0,1.4,-.3,1.9,-.6c.4,-.4,.7,-.9,.7,-1.6c0,-.2,0,-.4,-.1,-.7c-.3,-.6,-.8,-1.1,-1.6,-1.3c.5,-.1,.8,-.4,1.1,-.7c.2,-.2,.4,-.6,.4,-1.1c0,-.3,-.1,-.5,-.2,-.7c-.3,-.7,-1.1,-1.1,-2.1,-1.1c-.6,0,-1.2,.2,-1.6,.4c-.3,.2,-.5,.5,-.5,1c0,.3,.1,.6,.3,.7c.1,.2,.4,.3,.7,.3c.1,0,.3,0,.4,-.1c.2,0,.2,-.1,.3,-.2c-.5,0,-.7,-.3,-.7,-.8c0,-.6,.4,-1.1,1.1,-1.1c.7,0,1.1,.7,1.1,1.6c0,.9,-.2,1.8,-1,1.8c-.2,-.1,-.4,-.2,-.6,-.2c-.2,0,-.6,.1,-.6,.3c0,.2,.4,.3,.6,.3c.2,0,.5,-.1,.7,-.2c.8,0,1.1,.8,1.1,1.8c0,1,-.4,2,-1.4,2Z" class="ga_255"/>
<path d="M569.4,548.6h-3.2v.9h3.2v3.3h1v-3.3h3.3v-.9h-3.3v-3.3h-1v3.3Z" class="ga_255"/>
<path d="M578.7,552.9c1.3,0,2.1,-1.3,2.5,-2.1l-.3,-.1c-.2,.4,-.8,1.6,-1.6,1.6c-.2,0,-.3,-.4,-.3,-.6c0,-.2,.1,-.5,.2,-1l1.1,-3.9h1.3v-.4h-1.3l.5,-1.6h-1l-.5,1.6h-1l-.1,.4h1l-.9,3.6c-.2,.4,-.2,.8,-.3,1.1c-.1,.3,-.1,.5,-.1,.6c0,.6,.2,.8,.8,.8Z" class="ga_255"/>
<path d="M585.3,548.4c-.7,0,-1.3,-.7,-1.3,-1.4c0,-.5,.4,-1,.9,-1c-.1,-.2,-.4,-.4,-.8,-.4c-.1,0,-.3,.1,-.4,.1c-.4,.2,-.7,.6,-.7,1.2c0,.2,.1,.4,.2,.6c.4,.7,1.1,1.1,2.2,1.1c.8,0,1.4,-.3,1.8,-.6c.4,-.4,.7,-.8,.7,-1.5c0,-.3,0,-.5,-.1,-.7c-.2,-.7,-.8,-1.1,-1.6,-1.3v-.1c.5,-.1,.8,-.3,1.1,-.6c.2,-.3,.4,-.7,.4,-1.2c0,-.3,0,-.5,-.1,-.7c-.4,-.7,-1.2,-1,-2.2,-1c-.6,0,-1.2,.1,-1.5,.3c-.3,.2,-.6,.6,-.6,1c0,.3,.1,.6,.3,.8c.1,.1,.4,.3,.7,.3c.1,0,.3,-.1,.4,-.1c.2,-.1,.2,-.2,.3,-.3c-.4,0,-.7,-.3,-.7,-.7c0,-.6,.5,-1.1,1.1,-1.1c.8,0,1.1,.6,1.1,1.5c0,.9,-.2,1.8,-1,1.8c-.2,0,-.4,-.1,-.6,-.1c-.2,0,-.5,0,-.5,.2c0,.3,.3,.4,.5,.4c.2,0,.5,-.2,.7,-.3c.9,0,1.1,.8,1.1,1.8c0,1,-.4,2,-1.4,2Z" class="ga_255"/>
<path d="M594.6,550.3c0,-.3,-.1,-.8,-.1,-1c0,-.3,0,-.6,0,-.8c.1,-.4,.4,-1.5,.8,-1.5c.2,0,.2,.5,.2,.8c0,.9,-.6,1.9,-.9,2.5Zm-2.8,-3c0,0,-1.6,2.3,-1.6,4c0,.8,.5,1.6,1.4,1.6c1,0,1.7,-.6,2.3,-1.3c.2,.7,.6,1.3,1.4,1.3c2.1,0,3.5,-4.1,3.5,-5.4c0,-.7,-.1,-1.2,-.7,-1.2c-.4,0,-.6,.3,-.6,.7c0,.7,.4,1.3,.4,2c0,1,-1.1,3.5,-2.3,3.5c-.6,0,-.8,-1.2,-.9,-1.8c.4,-.6,.8,-1.3,1,-1.9c.3,-.5,.4,-1,.4,-1.5c0,-.5,-.2,-1,-.7,-1c-.2,0,-.4,.1,-.6,.3c-.7,.7,-1.1,1.9,-1.1,3.2c0,.2,0,.3,0,.5c0,.2,.1,.8,.1,1c-.3,.3,-.7,.7,-1,.9c-.3,.2,-.5,.3,-.8,.3c-.5,0,-.7,-.6,-.7,-1.3c0,-1.7,.6,-3,1.3,-4.2c.1,-.2,.4,-.4,.4,-.5c0,-.1,0,-.2,-.1,-.2c-.1,0,-.2,.1,-.3,.1c0,.1,-.1,.2,-.3,.3c-.1,.1,-.2,.2,-.4,.2c-.3,0,-.5,-.1,-.6,-.2c-.2,-.3,-.4,-.4,-.7,-.4c-.7,0,-1.3,.6,-1.3,1.1c0,.5,.3,.6,.5,.6c.3,0,.5,-.2,.5,-.5c0,-.2,-.3,-.2,-.3,-.4c0,-.1,.1,-.2,.3,-.2c.4,0,.6,.4,.7,.5c.2,.1,.3,.1,.6,0l.2,-.1Z" class="ga_255"/>
<path d="M602.2,549v4h-2.5c.8,-1.3,1.7,-2.7,2.5,-4Zm-2.8,3.9v.5h2.8v.4c0,.9,-.1,1.2,-.6,1.2v.2h2.1V555c-.4,0,-.5,-.5,-.5,-1.3v-.3h1.2c0,0,0,-.4,0,-.4c0,0,-1.2,0,-1.2,0v-5.5h-.3l-3.5,5.4Z" class="ga_255"/>
<path d="M361.5,751h.4V708.1h-.4Z" class="gb_255"/>
<path d="M468.4,920.9h.4V769.3h-.4Z" class="gb_255"/>
</svg>