<?xml version="1.0" encoding="UTF-8" standalone="no"?>
<!DOCTYPE svg PUBLIC "-//W3C//DTD SVG 1.1//EN"
"http://www.w3.org/Graphics/SVG/1.1/DTD/svg11.dtd">
<svg viewBox="0 0 811 1017" version="1.1" xmlns="http://www.w3.org/2000/svg" xmlns:xlink="http://www.w3.org/1999/xlink">
<defs>
<style type="text/css"><![CDATA[
.g0_337{
fill: #FFF;
}
.g1_337{
fill: #4458A6;
}
.g2_337{
fill: #7E95CC;
}
.g3_337{
fill: #B6D3EA;
}
.g4_337{
fill: #EDF7FA;
}
.g5_337{
fill: #FACBC8;
}
.g6_337{
fill: #EE7F6A;
}
.g7_337{
fill: #BD4441;
}
.g8_337{
fill: #641011;
}
.g9_337{
fill: #040504;
}
.ga_337{
fill: #181818;
}
.gb_337{
fill: #BCD9EF;
}
.gc_337{
fill: #D7E3F3;
}
.gd_337{
fill: #E6F4FA;
}
.ge_337{
fill: #F9FBFD;
}
.gf_337{
fill: #FBF5F3;
}
.gg_337{
fill: #FCE2E0;
}
.gh_337{
fill: #F5CCB7;
}
.gi_337{
fill: #F9B77C;
}
.gj_337{
fill: #EF9381;
}
.gk_337{
fill: #EC794F;
}
.gl_337{
fill: #C86260;
}
.gm_337{
fill: #C2514C;
}
.gn_337{
fill: #B73A36;
}
.go_337{
fill: #752928;
}
.gp_337{
fill: #400F0F;
}
.gq_337{
fill: #511312;
}
.gr_337{
fill: #2E3A97;
}
.gs_337{
fill: #5D73B8;
}
.gt_337{
fill: #768AC5;
}
.gu_337{
fill: #8DA1D1;
}
.gv_337{
fill: #9EB3DB;
}
.gw_337{
fill: #B3C5E5;
}
.gx_337{
fill: #CAE2F3;
}
.gy_337{
fill: #D9E7F5;
}
]]></style>
</defs>
<path d="M146.6,299.9H361V85.5H146.6Z" class="g0_337"/>
<path d="M250.6,211.5l2.2,.3h2.1c21.6,-1.9,24.8,-31,4.2,-37.5l-2,-.5l-2.2,-.2c-22.7,-.5,-28.1,30.2,-6.5,37.4l.2,.1l2,.4Z" class="g1_337"/>
<path d="M248.6,211.1l-.2,-.1l-2.1,-.8c-20.6,-9.7,-11.7,-39.5,10.8,-36.4l2,.5h.2c21.6,7.2,16.2,38,-6.5,37.5l-2.2,-.3l-2,-.4Zm-.2,19.5l2.2,.2l2.2,.1c48.2,-.5,53.9,-67.4,6.5,-76.1l-2.2,-.3c-48.2,-2.1,-57.7,64.3,-10.8,75.7l2.1,.4Z" class="g2_337"/>
<path d="M254.9,250.1H252l-1.4,-.1c-29.7,-1.7,-53.2,-25.7,-54.2,-55.5v-2.9c.6,-30.1,24.2,-54.5,54.2,-56.3h5.1c29.7,.9,53.8,24.4,55.5,54.1v1.4l.1,.8c.5,30.1,-22.1,55.4,-52,58.2l-2.2,.2l-1.4,.1h-.8ZM215.6,193.8l.1,2.1l.2,2.2c8.4,46.2,73.1,42.5,76.2,-4.3v-2.2l-.1,-2.2c-5.7,-46.5,-70.6,-46.5,-76.3,0l-.1,2.2v2.2Z" class="g3_337"/>
<path d="M254.9,269.2h-4.3l-2.2,-.1c-38.9,-2.9,-69.3,-34.2,-71.1,-73.2v-4.3c.6,-39.9,31.4,-72.4,71.1,-75.3l2.2,-.1l2.2,-.1h2.1l2.2,.1c39,1.7,70.3,32.2,73.1,71.1l.1,2.1l.1,2.2c.5,39.8,-29.4,73.3,-69,77.3l-2.1,.2l-2.2,.1h-2.2ZM196.4,193.8v.7l.1,1.4l.2,2.2c2.8,29.1,26.8,51.4,56.1,52h2.9c30.3,-1,54.5,-25.3,55.5,-55.6l.1,-.7v-2.2l-.1,-.8v-1.4c-1.7,-29.7,-25.8,-53.2,-55.5,-54.1h-2.9c-30.1,.6,-54.5,24.1,-56.3,54.1l-.1,1.4v3Z" class="g4_337"/>
<path d="M254.9,288.4h-2.1l-2.2,-.1l-2.2,-.1c-49.5,-2.8,-88.5,-42.7,-90.2,-92.3l-.1,-2.1v-2.2c.7,-50.4,40,-91.5,90.3,-94.5l2.2,-.1h6.5c49.5,1.8,89.4,40.8,92.3,90.3l.1,2.1v2.2C350,242,311.7,284,261.4,288.1l-2.1,.1l-2.2,.1l-2.2,.1ZM177.3,193.8v2.1l.2,2.2l.1,2.2c4,38.8,36.1,68.3,75.2,68.9h4.3c39.8,-1.8,71.5,-33.5,73.2,-73.3l.1,-2.1v-2.2l-.1,-2.2l-.1,-2.1c-2.8,-38.9,-34.1,-69.4,-73.1,-71.1l-2.2,-.1h-2.1c-39.9,.6,-72.5,31.4,-75.3,71.2l-.2,2.1v4.4Z" class="g5_337"/>
<path d="M295.1,299.9H212.6l-1,-.4l-2.2,-.9C180.9,286.7,158.4,263.7,147,234.9l-.4,-1V151.5c11.3,-29.3,34,-52.7,62.8,-64.8l2.2,-.8l1,-.4h82.5l1,.4c28.7,11.3,51.7,33.9,63.7,62.4l.9,2.1l.3,1.1v82.4c-5,13.1,-12.4,25.2,-21.8,35.7l-2,2.1c-10.4,11,-23,19.8,-36.8,26h-.1l-2.1,.9l-2.1,.9l-1,.4ZM158.1,193.8l.1,2.1l.1,2.2l.1,2.2c4,49.4,44.8,87.4,94.4,88.1h2.1l2.2,-.1c50.4,-1.8,90.6,-42,92.4,-92.4v-6.5l-.1,-2.1C346.5,137.8,306.6,98.8,257.1,97h-4.3c-50.5,.6,-91.6,39.9,-94.5,90.3l-.1,2.1l-.1,2.2v2.2Z" class="g6_337"/>
<path d="M212.6,299.9H173.4c-10.1,-7.6,-19.2,-16.7,-26.8,-26.8V233.9l.4,1c11.7,29.5,35.1,52.9,64.6,64.6l1,.4Z" class="g7_337"/>
<path d="M334.2,299.9H295.1l1,-.4c29.5,-11.7,52.9,-35.1,64.6,-64.6l.3,-1v39.2c-7.4,9.8,-16.1,18.7,-25.9,26.2l-.9,.6Z" class="g7_337"/>
<path d="M146.6,151.5V112.3c7.6,-10.2,16.7,-19.2,26.8,-26.8h39.2l-1,.4c-29.5,11.6,-52.9,35,-64.6,64.5l-.4,1.1Z" class="g7_337"/>
<path d="M361,151.5l-.3,-1.1C349,120.9,325.6,97.5,296.1,85.9l-1,-.4h39.1c10.2,7.6,19.2,16.6,26.8,26.8v39.2Z" class="g7_337"/>
<path d="M148.8,299.9h24.6l-.8,-.6C163.1,292,154.5,283.4,147.3,273.9l-.7,-.8v26.8h2.2Z" class="g8_337"/>
<path d="M335.1,299.9H361V273.1l-.6,.8c-7.2,9.5,-15.8,18.1,-25.3,25.4l-.9,.6h.9Z" class="g8_337"/>
<path d="M147.3,111.5l1.5,-2c6.9,-8.8,15,-16.6,23.8,-23.4l.8,-.6H146.6v26.8l.7,-.8Z" class="g8_337"/>
<path d="M361,112.3V85.5H334.2l.9,.6c9.5,7.3,18.1,15.8,25.3,25.4l.6,.8Z" class="g8_337"/>
<path d="M176.9,302.7h.7v-2.8h-.7Z" class="g9_337"/>
<path d="M168.3,309.4h5.1v-.6h-5.1Z" class="g9_337"/>
<path d="M175.2,311h1.3v-4.5l-1.4,.3V306l1.4,-.2h.8V311h1.3v.6h-3.4V311Z" class="g9_337"/>
<path d="M180.2,311.6h.9v-1h-.9Z" class="g9_337"/>
<path d="M184.5,305.7c.6,0,1.1,.2,1.5,.7c.3,.6,.5,1.3,.5,2.3c0,1,-.2,1.7,-.5,2.3c-.4,.5,-.9,.8,-1.5,.8c-.7,0,-1.2,-.3,-1.5,-.8c-.4,-.6,-.5,-1.3,-.5,-2.3c0,-1,.1,-1.7,.5,-2.3c.3,-.5,.8,-.7,1.5,-.7Zm0,.6c-.4,0,-.7,.2,-.9,.6c-.2,.4,-.3,1,-.3,1.8c0,.8,.1,1.4,.3,1.8c.2,.4,.5,.6,.9,.6c.4,0,.7,-.2,.9,-.6c.2,-.4,.3,-1,.3,-1.8c0,-.8,-.1,-1.4,-.3,-1.8c-.2,-.4,-.5,-.6,-.9,-.6Z" class="g9_337"/>
<path d="M215.2,302.7h.7v-2.8h-.7Z" class="g9_337"/>
<path d="M206.6,309.4h5.1v-.6h-5.1Z" class="g9_337"/>
<path d="M215.1,305.7c.6,0,1.1,.2,1.5,.7c.3,.6,.5,1.3,.5,2.3c0,1,-.2,1.7,-.5,2.3c-.4,.5,-.9,.8,-1.5,.8c-.7,0,-1.2,-.3,-1.5,-.8c-.4,-.6,-.5,-1.3,-.5,-2.3c0,-1,.1,-1.7,.5,-2.3c.3,-.5,.8,-.7,1.5,-.7Zm0,.6c-.4,0,-.7,.2,-.9,.6c-.2,.4,-.3,1,-.3,1.8c0,.8,.1,1.4,.3,1.8c.2,.4,.5,.6,.9,.6c.4,0,.7,-.2,.9,-.6c.2,-.4,.3,-1,.3,-1.8c0,-.8,-.1,-1.4,-.3,-1.8c-.2,-.4,-.5,-.6,-.9,-.6Z" class="g9_337"/>
<path d="M218.5,311.6h.8v-1h-.8Z" class="g9_337"/>
<path d="M221.1,305.8h3.1v.6h-2.4v1.5l.4,-.1h.3c.7,0,1.2,.1,1.6,.5c.3,.4,.5,.8,.5,1.5c0,.6,-.2,1.1,-.6,1.4c-.4,.4,-.9,.6,-1.6,.6c-.3,0,-.5,-.1,-.8,-.1c-.2,-.1,-.5,-.1,-.8,-.2v-.8c.3,.1,.5,.2,.8,.3c.2,.1,.5,.1,.8,.1c.4,0,.8,-.1,1,-.4c.3,-.2,.4,-.5,.4,-.9c0,-.5,-.1,-.8,-.4,-1c-.2,-.3,-.6,-.4,-1,-.4c-.3,0,-.5,0,-.7,.1c-.2,0,-.4,.1,-.6,.2v-2.9Z" class="g9_337"/>
<path d="M253.5,302.7h.7v-2.8h-.7Z" class="g9_337"/>
<path d="M250,305.7c.7,0,1.2,.2,1.5,.7c.3,.6,.5,1.3,.5,2.3c0,1,-.2,1.7,-.5,2.3c-.3,.5,-.8,.8,-1.5,.8c-.7,0,-1.2,-.3,-1.5,-.8c-.4,-.6,-.5,-1.3,-.5,-2.3c0,-1,.1,-1.7,.5,-2.3c.3,-.5,.8,-.7,1.5,-.7Zm0,.6c-.4,0,-.7,.2,-.9,.6c-.2,.4,-.3,1,-.3,1.8c0,.8,.1,1.4,.3,1.8c.2,.4,.5,.6,.9,.6c.4,0,.7,-.2,.9,-.6c.2,-.4,.3,-1,.3,-1.8c0,-.8,-.1,-1.4,-.3,-1.8c-.2,-.4,-.5,-.6,-.9,-.6Z" class="g9_337"/>
<path d="M253.4,311.6h.8v-1h-.8Z" class="g9_337"/>
<path d="M257.7,305.7c.6,0,1.1,.2,1.5,.7c.3,.6,.5,1.3,.5,2.3c0,1,-.2,1.7,-.5,2.3c-.4,.5,-.9,.8,-1.5,.8c-.7,0,-1.2,-.3,-1.5,-.8c-.4,-.6,-.5,-1.3,-.5,-2.3c0,-1,.1,-1.7,.5,-2.3c.3,-.5,.8,-.7,1.5,-.7Zm0,.6c-.4,0,-.7,.2,-.9,.6c-.2,.4,-.4,1,-.4,1.8c0,.8,.2,1.4,.4,1.8c.2,.4,.5,.6,.9,.6c.4,0,.7,-.2,.9,-.6c.2,-.4,.3,-1,.3,-1.8c0,-.8,-.1,-1.4,-.3,-1.8c-.2,-.4,-.5,-.6,-.9,-.6Z" class="g9_337"/>
<path d="M291.7,302.7h.8v-2.8h-.8Z" class="g9_337"/>
<path d="M288.3,305.7c.6,0,1.1,.2,1.5,.7c.3,.6,.5,1.3,.5,2.3c0,1,-.2,1.7,-.5,2.3c-.4,.5,-.9,.8,-1.5,.8c-.7,0,-1.2,-.3,-1.5,-.8c-.4,-.6,-.6,-1.3,-.6,-2.3c0,-1,.2,-1.7,.6,-2.3c.3,-.5,.8,-.7,1.5,-.7Zm0,.6c-.4,0,-.7,.2,-.9,.6c-.2,.4,-.4,1,-.4,1.8c0,.8,.2,1.4,.4,1.8c.2,.4,.5,.6,.9,.6c.4,0,.7,-.2,.9,-.6c.2,-.4,.3,-1,.3,-1.8c0,-.8,-.1,-1.4,-.3,-1.8c-.2,-.4,-.5,-.6,-.9,-.6Z" class="g9_337"/>
<path d="M291.7,311.6h.8v-1h-.8Z" class="g9_337"/>
<path d="M294.3,305.8h3.1v.6H295v1.5l.3,-.1h.4c.7,0,1.2,.1,1.6,.5c.3,.4,.5,.8,.5,1.5c0,.6,-.2,1.1,-.6,1.4c-.4,.4,-.9,.6,-1.6,.6c-.3,0,-.5,-.1,-.8,-.1c-.2,-.1,-.5,-.1,-.8,-.2v-.8c.3,.1,.5,.2,.8,.3c.2,.1,.5,.1,.8,.1c.4,0,.8,-.1,1,-.4c.3,-.2,.4,-.5,.4,-.9c0,-.5,-.1,-.8,-.4,-1c-.2,-.3,-.6,-.4,-1,-.4c-.3,0,-.5,0,-.7,.1c-.2,0,-.4,.1,-.6,.2v-2.9Z" class="g9_337"/>
<path d="M330,302.7h.8v-2.8H330Z" class="g9_337"/>
<path d="M325,311h1.3v-4.5l-1.4,.3V306l1.4,-.2h.8V311h1.3v.6H325V311Z" class="g9_337"/>
<path d="M330,311.6h.8v-1H330Z" class="g9_337"/>
<path d="M334.3,305.7c.6,0,1.1,.2,1.5,.7c.3,.6,.5,1.3,.5,2.3c0,1,-.2,1.7,-.5,2.3c-.4,.5,-.9,.8,-1.5,.8c-.7,0,-1.2,-.3,-1.6,-.8c-.3,-.6,-.5,-1.3,-.5,-2.3c0,-1,.2,-1.7,.5,-2.3c.4,-.5,.9,-.7,1.6,-.7Zm0,.6c-.5,0,-.8,.2,-1,.6c-.2,.4,-.3,1,-.3,1.8c0,.8,.1,1.4,.3,1.8c.2,.4,.5,.6,1,.6c.4,0,.7,-.2,.9,-.6c.2,-.4,.3,-1,.3,-1.8c0,-.8,-.1,-1.4,-.3,-1.8c-.2,-.4,-.5,-.6,-.9,-.6Z" class="g9_337"/>
<path d="M143.8,269.6h2.8v-.7h-2.8Z" class="g9_337"/>
<path d="M122.3,270.1h5v-.7h-5Z" class="g9_337"/>
<path d="M129.2,271.6h1.3v-4.4l-1.4,.2v-.7l1.4,-.3h.8v5.2h1.3v.7h-3.4v-.7Z" class="g9_337"/>
<path d="M134.2,272.3h.8v-1h-.8Z" class="g9_337"/>
<path d="M138.4,266.3c.7,0,1.2,.3,1.5,.8c.4,.5,.6,1.3,.6,2.3c0,1,-.2,1.7,-.6,2.2c-.3,.6,-.8,.8,-1.5,.8c-.6,0,-1.1,-.2,-1.5,-.8c-.3,-.5,-.5,-1.2,-.5,-2.2c0,-1,.2,-1.8,.5,-2.3c.4,-.5,.9,-.8,1.5,-.8Zm0,.7c-.4,0,-.7,.2,-.9,.6c-.2,.4,-.3,1,-.3,1.8c0,.8,.1,1.4,.3,1.8c.2,.4,.5,.6,.9,.6c.4,0,.8,-.2,1,-.6c.2,-.4,.3,-1,.3,-1.8c0,-.8,-.1,-1.4,-.3,-1.8c-.2,-.4,-.6,-.6,-1,-.6Z" class="g9_337"/>
<path d="M143.8,231.3h2.8v-.7h-2.8Z" class="g9_337"/>
<path d="M122.3,231.8h5v-.6h-5Z" class="g9_337"/>
<path d="M130.7,228c.7,0,1.2,.3,1.6,.8c.3,.5,.5,1.3,.5,2.3c0,1,-.2,1.7,-.5,2.3c-.4,.5,-.9,.7,-1.6,.7c-.6,0,-1.1,-.2,-1.5,-.7c-.3,-.6,-.5,-1.3,-.5,-2.3c0,-1,.2,-1.8,.5,-2.3c.4,-.5,.9,-.8,1.5,-.8Zm0,.7c-.4,0,-.7,.2,-.9,.6c-.2,.4,-.3,1,-.3,1.8c0,.8,.1,1.4,.3,1.8c.2,.4,.5,.6,.9,.6c.5,0,.8,-.2,1,-.6c.2,-.4,.3,-1,.3,-1.8c0,-.8,-.1,-1.4,-.3,-1.8c-.2,-.4,-.5,-.6,-1,-.6Z" class="g9_337"/>
<path d="M134.2,234h.8v-1h-.8Z" class="g9_337"/>
<path d="M136.7,228.1h3.2v.7h-2.4v1.5l.3,-.1l.4,-.1c.6,0,1.1,.2,1.5,.6c.4,.3,.6,.8,.6,1.4c0,.7,-.2,1.2,-.6,1.5c-.4,.4,-.9,.5,-1.7,.5c-.2,0,-.5,0,-.7,0c-.3,-.1,-.5,-.1,-.8,-.2v-.8c.2,.1,.5,.2,.7,.3c.3,0,.5,.1,.8,.1c.5,0,.8,-.2,1.1,-.4c.3,-.2,.4,-.6,.4,-1c0,-.4,-.1,-.7,-.4,-.9c-.3,-.3,-.6,-.4,-1.1,-.4c-.2,0,-.4,0,-.6,.1c-.2,0,-.4,.1,-.7,.2v-3Z" class="g9_337"/>
<path d="M143.8,193.1h2.8v-.8h-2.8Z" class="g9_337"/>
<path d="M130.7,189.8c.7,0,1.2,.2,1.6,.7c.3,.6,.5,1.3,.5,2.3c0,1,-.2,1.7,-.5,2.3c-.4,.5,-.9,.8,-1.6,.8c-.6,0,-1.1,-.3,-1.5,-.8c-.3,-.6,-.5,-1.3,-.5,-2.3c0,-1,.2,-1.7,.5,-2.3c.4,-.5,.9,-.7,1.5,-.7Zm0,.6c-.4,0,-.7,.2,-.9,.6c-.2,.4,-.3,1,-.3,1.8c0,.8,.1,1.4,.3,1.8c.2,.4,.5,.6,.9,.6c.5,0,.8,-.2,1,-.6c.2,-.4,.3,-1,.3,-1.8c0,-.8,-.1,-1.4,-.3,-1.8c-.2,-.4,-.5,-.6,-1,-.6Z" class="g9_337"/>
<path d="M134.2,195.7h.8v-1h-.8Z" class="g9_337"/>
<path d="M138.4,189.8c.7,0,1.2,.2,1.5,.7c.4,.6,.6,1.3,.6,2.3c0,1,-.2,1.7,-.6,2.3c-.3,.5,-.8,.8,-1.5,.8c-.6,0,-1.1,-.3,-1.5,-.8c-.3,-.6,-.5,-1.3,-.5,-2.3c0,-1,.2,-1.7,.5,-2.3c.4,-.5,.9,-.7,1.5,-.7Zm0,.6c-.4,0,-.7,.2,-.9,.6c-.2,.4,-.3,1,-.3,1.8c0,.8,.1,1.4,.3,1.8c.2,.4,.5,.6,.9,.6c.4,0,.8,-.2,1,-.6c.2,-.4,.3,-1,.3,-1.8c0,-.8,-.1,-1.4,-.3,-1.8c-.2,-.4,-.6,-.6,-1,-.6Z" class="g9_337"/>
<path d="M143.8,154.8h2.8V154h-2.8Z" class="g9_337"/>
<path d="M130.7,151.5c.7,0,1.2,.2,1.6,.8c.3,.5,.5,1.2,.5,2.2c0,1,-.2,1.8,-.5,2.3c-.4,.5,-.9,.8,-1.6,.8c-.6,0,-1.1,-.3,-1.5,-.8c-.3,-.5,-.5,-1.3,-.5,-2.3c0,-1,.2,-1.7,.5,-2.2c.4,-.6,.9,-.8,1.5,-.8Zm0,.6c-.4,0,-.7,.2,-.9,.6c-.2,.4,-.3,1,-.3,1.8c0,.8,.1,1.4,.3,1.8c.2,.4,.5,.6,.9,.6c.5,0,.8,-.2,1,-.6c.2,-.4,.3,-1,.3,-1.8c0,-.8,-.1,-1.4,-.3,-1.8c-.2,-.4,-.5,-.6,-1,-.6Z" class="g9_337"/>
<path d="M134.2,157.4h.8v-1h-.8Z" class="g9_337"/>
<path d="M136.7,151.6h3.2v.6h-2.4v1.5l.3,-.1h.4c.6,0,1.1,.1,1.5,.5c.4,.4,.6,.9,.6,1.5c0,.6,-.2,1.1,-.6,1.4c-.4,.4,-.9,.6,-1.7,.6c-.2,0,-.5,-.1,-.7,-.1c-.3,0,-.5,-.1,-.8,-.2v-.8c.2,.1,.5,.2,.7,.3c.3,.1,.5,.1,.8,.1c.5,0,.8,-.1,1.1,-.4c.3,-.2,.4,-.5,.4,-.9c0,-.4,-.1,-.8,-.4,-1c-.3,-.2,-.6,-.4,-1.1,-.4c-.2,0,-.4,.1,-.6,.1c-.2,.1,-.4,.1,-.7,.2v-2.9Z" class="g9_337"/>
<path d="M143.8,116.5h2.8v-.8h-2.8Z" class="g9_337"/>
<path d="M129.2,118.5h1.3V114l-1.4,.3v-.7l1.4,-.3h.8v5.2h1.3v.7h-3.4v-.7Z" class="g9_337"/>
<path d="M134.2,119.2h.8v-1h-.8Z" class="g9_337"/>
<path d="M138.4,113.2c.7,0,1.2,.2,1.5,.8c.4,.5,.6,1.2,.6,2.2c0,1,-.2,1.8,-.6,2.3c-.3,.5,-.8,.8,-1.5,.8c-.6,0,-1.1,-.3,-1.5,-.8c-.3,-.5,-.5,-1.3,-.5,-2.3c0,-1,.2,-1.7,.5,-2.2c.4,-.6,.9,-.8,1.5,-.8Zm0,.6c-.4,0,-.7,.2,-.9,.6c-.2,.4,-.3,1,-.3,1.8c0,.8,.1,1.4,.3,1.8c.2,.4,.5,.7,.9,.7c.4,0,.8,-.3,1,-.7c.2,-.4,.3,-1,.3,-1.8c0,-.8,-.1,-1.4,-.3,-1.8c-.2,-.4,-.6,-.6,-1,-.6Z" class="g9_337"/>
<path d="M250.6,211.5l.1,-.3l-2,-.5h-.2c-6,-1.8,-10.9,-6.7,-12.7,-12.7v-.2l-.5,-1.9l-.2,-2.2v-2.1l.2,-2.1l.5,-2v-.1c2.8,-9.1,11.8,-14.8,21.2,-13.2l2,.4l.1,.1c6.1,1.8,11,6.6,12.7,12.7l.1,.1l.4,2l.3,2.1v2.1l-.3,2.2l-.4,1.9l-.1,.2c-1.7,6,-6.6,10.9,-12.7,12.7H259l-2,.5l-2.1,.2h-2.1l-2.2,-.2v.3l.1,-.3l-.1,.3l-.1,.4l2.2,.3h.1c24.5,.3,28.4,-33.5,4.4,-38.8h-.1l-2.1,-.2h-.1c-9.1,-.5,-17.4,5.4,-19.8,14.2l-.5,1.9v.1c-1.7,9.8,4.4,19.3,13.9,22.1l2,.4l.1,-.4Z" class="ga_337"/>
<path d="M246.4,229.8h-.1l-2.1,-.5C205.5,218.1,207,164.5,246.3,155.5l2.2,-.3l2.1,-.3c41.1,-2.4,57,50.4,21.5,71l-2.2,1.1l-2.3,1l.3,.7l2.3,-1h.1c38.6,-19.6,23.5,-76,-19.8,-73.5l-2.1,.2c-43,7.5,-44.7,66.2,-2.2,76.2l.2,-.8Z" class="ga_337"/>
<path d="M252.8,249.7l-4.3,-.2l-4.3,-.6c-65.4,-13.5,-61.9,-104.6,4.3,-113l4.3,-.3l4.3,.1l4.3,.4c26.3,3.6,46.7,24.7,49.2,51.2l.3,4.3l-.1,4.3c-1.5,26.6,-21.1,48.5,-47.3,53l-4.3,.6l-4.3,.2h-2.1v.8h2.1l4.4,-.3c28.5,-2.7,50.6,-25.7,52.3,-54.3v-4.3C311,161.3,287.3,136.7,257.1,135l-4.3,-.1h-.1l-4.3,.2c-28.5,2.8,-50.6,25.7,-52.3,54.3l-.1,4.4c.6,27.7,20.7,51.1,48,55.8l4.4,.6l4.3,.3l.1,-.8Z" class="ga_337"/>
<path d="M211.6,255.2l-2.4,-1.7l-3.4,-2.6l-2.1,-1.8c-26,-23.2,-32.8,-60.9,-16.6,-91.6l2.4,-4.3l1.4,-2.1c19.5,-29.4,56.6,-41.5,89.6,-29l4.3,1.7l4.3,2.1l4.2,2.5l2.2,1.3c29.4,19.5,41.4,56.6,28.9,89.7l-1.7,4.2l-2.1,4.3c-16.2,30.6,-51.1,46.4,-84.9,38l-4.3,-1.2l-4.3,-1.4l-1.2,-.5l-.8,2l1.3,.5l4.3,1.5C266.6,278,305,262,322.5,229v-.1l2.2,-4.3c15.6,-34.8,3.7,-75.7,-28,-96.7l-2.2,-1.4L290.1,124c-35.4,-18.6,-79,-7.4,-101,25.8l-.1,.1l-1.3,2.1c-20.3,33.1,-13.2,75.9,16.7,100.6l3.5,2.7l2.4,1.7l1.3,-1.8Z" class="g9_337"/>
<path d="M237.6,287l.1,-.4l-.7,-.1l-1.5,-.3c-4.4,-.8,-8.7,-2,-12.9,-3.5l-1.5,-.5l-.7,-.2l-2.2,-.9l-2.1,-.9l-.4,-.2l-1.8,-.7l-2.1,-1.1l-.7,-.3l-1.5,-.8L207.5,276l-.5,-.3l-1.7,-1C192.2,267,181.2,256.2,173.1,243.4l-.2,-.3h.1l-1.2,-1.9l-1,-1.7l-.3,-.4l-1.1,-2.2l-.8,-1.5l-.3,-.7l-1,-2.1l-.8,-1.8l-.2,-.4l-.9,-2.1l-.8,-2.2l-.3,-.6l-.5,-1.5l-.7,-2.2l-.7,-2.2l-.2,-.8l-.4,-1.3c-4.4,-16.3,-4.4,-33.4,0,-49.6l.4,-1.4l.2,-.8l.7,-2.1l.7,-2.2l.5,-1.5l.3,-.7l.8,-2.1l.9,-2.2l.2,-.4l.8,-1.7l1,-2.2l.3,-.7l.8,-1.4l1.1,-2.2l.3,-.4l1,-1.8l1.2,-1.9h-.1l.2,-.2l1.4,-2.2l.6,-.9l.9,-1.2c6.2,-8.9,14,-16.6,22.8,-22.9l1.3,-.9l.9,-.6l2.2,-1.4l.2,-.1l1.9,-1.2l1.7,-1l.5,-.2l2.1,-1.2l1.5,-.7l.7,-.4l2.1,-1l1.8,-.8l.4,-.2l2.1,-.9l2.2,-.8l.7,-.2l1.5,-.6l2.1,-.7l2.2,-.7l.8,-.2l1.3,-.4l2.2,-.5l2.1,-.5l2.2,-.5l1.5,-.3l.7,-.1c10.7,-1.8,21.6,-1.8,32.3,0l.7,.1l1.5,.3l2.1,.5l2.2,.5l2.1,.5l1.4,.4l.8,.2l2.2,.7l2.1,.7l1.5,.6l.7,.2l2.1,.8l2.2,.9l.4,.2l1.7,.8l2.2,1l.7,.4l1.5,.7l2.1,1.2l.4,.2l1.8,1l1.9,1.2l.2,.1l2.2,1.4l.9,.6l1.2,.9c8.2,5.7,15.4,12.8,21.3,20.7l.3,.4l1.3,1.8l.9,1.2l.6,.9l1.4,2.2l.1,.2l1.2,1.9l1,1.8l.2,.4l1.2,2.2l.7,1.4l.4,.7l1,2.2l.8,1.7l.2,.4l.9,2.2l.8,2.1l.3,.7l.5,1.5l.7,2.2l.7,2.1l.2,.8l.4,1.4c4.4,16.2,4.4,33.3,0,49.6l-.4,1.3l-.2,.8l-.7,2.2l-.7,2.2l-.5,1.5l-.3,.6l-.8,2.2l-.9,2.1l-.2,.4l-.8,1.8l-1,2.1l-.4,.7l-.7,1.5l-1.2,2.2l-.2,.4l-1,1.7l-1.2,1.9l-.1,.3l-1.4,2.1l-.6,.9l-.9,1.3l-1.3,1.8l-.3,.3c-5.9,8,-13.1,15,-21.3,20.7l-1.2,.9l-.9,.6l-2.2,1.4l-.2,.2l-1.9,1.1l-1.8,1l-.4,.3l-2.1,1.1l-1.5,.8l-.7,.3l-2.2,1.1L292,280l-.4,.2l-2.2,.9l-2.1,.9l-.7,.2l-1.5,.5c-4.2,1.5,-8.5,2.7,-12.9,3.5l-1.5,.3l-.7,.1c-10,1.7,-20.2,1.9,-30.2,.4l-2.1,-.4l-.1,.4l.1,-.4l-.1,.4l-.1,.4l2.2,.3c10.1,1.5,20.4,1.4,30.4,-.3l.7,-.1l1.5,-.3l2.2,-.5C322.2,276,354.3,231.6,349.4,182.9l-.2,-2.2c-6,-46.9,-44.8,-82.4,-92.1,-84.1h-6.5c-47.3,1.7,-86.2,37.2,-92.1,84.1l-.3,2.2c-4.9,48.7,27.3,93.1,75,103.6l2.2,.5l1.5,.3l.6,.1l.1,-.4Z" class="ga_337"/>
<path d="M212.8,299.5l-1.1,-.4c-2.9,-1.1,-5.8,-2.4,-8.6,-3.8l-.2,-.1l-1.2,-.6l-.4,.7l1.3,.6c1.5,.7,3,1.4,4.5,2.1l.1,.1l2.1,.9l2.2,.8l1,.4l.3,-.7Z" class="ga_337"/>
<path d="M187.5,285.9l-1.7,-1.1l-.4,-.4l-1.7,-1.3l-1.1,-.8l-1.1,-.9l-1.6,-1.3l-.5,-.5l-2,-1.7l-.2,-.2l-2.1,-1.9v-.1l-2.2,-2.1l-2.1,-2.1l-.1,-.1l-1.9,-2.1c-3.1,-3.4,-6,-7,-8.6,-10.8l-.3,-.3l-1.2,-1.8l-.9,-1.5v.1l-.5,-.8L156,252l-.4,-.5l-.9,-1.6l-1.2,-2.2l-1.2,-2.1l-1,-2l-.1,-.2l-1,-2.2l-1,-2.1V239l-.9,-2.1l-.9,-2.1l-.4,-1l-.7,.2l.4,1c7.9,20.1,21.3,37.6,38.7,50.4l1.6,1.2l.5,-.7Z" class="ga_337"/>
<path d="M360.7,233.8l-.4,1l-.9,2.1l-.9,2.1v.1l.3,.1l-.3,-.1l-1,2.1l-1,2.2l-.1,.2l-1,2l-1.2,2.1l-1.2,2.2l-1,1.6h.1l-.4,.5l-1.3,2.2l-.5,.8v-.1l-.9,1.5l-1.3,1.8l-.2,.3l-1.6,2.2l-.3,.5l.3,.2l-.3,-.3l-1.3,1.7l-.9,1.2l-.8,1l-1.3,1.6l-.5,.5l-1.7,2l.3,.2l-.3,-.2l-.2,.2l-2,2.1v.1c-1.4,1.4,-2.8,2.9,-4.3,4.3l-.9,.8l.5,.6l.9,-.9C345.3,264.8,354.8,250.7,361,235l.4,-1l-.7,-.2Z" class="ga_337"/>
<path d="M318.3,287.3l-.8,.5l-1.4,.9l-.7,.5l-2.2,1.4l-.5,.3l-1.7,.9l-2.1,1.2v.1l-2.2,1.1l-1.9,1l-.2,.1c-2.9,1.4,-5.7,2.7,-8.7,3.8l-1,.4l.3,.7l1,-.4l2.2,-.8l2.1,-.9V298c6.1,-2.7,11.9,-5.9,17.4,-9.6l.8,-.5l-.4,-.6Z" class="ga_337"/>
<path d="M147,151.6l.4,-1l.9,-2.2l.9,-2v-.1l1,-2.2l1,-2.1l.1,-.2l1,-2l1.2,-2.2l1.2,-2.1l.9,-1.6l.4,-.6l1.3,-2.1l.5,-.8l.9,-1.4l1.2,-1.8l.3,-.4l1.5,-2.1l.4,-.5l1.3,-1.7c2.3,-3,4.7,-5.8,7.3,-8.6h.1l2.1,-2.2l-.3,-.2l.3,.2l2.2,-2.1l.9,-.8l-.5,-.6l-.9,.8c-5.6,5.3,-10.6,11.1,-15,17.4l-.3,.4c-5.1,7.3,-9.3,15.2,-12.6,23.5l-.4,1l.7,.3Z" class="ga_337"/>
<path d="M189.4,98.1l.8,-.6l1.4,-.9l.7,-.5l2.2,-1.3l.5,-.3l1.6,-1l2.2,-1.2L201,91.1l1.9,-1h.2c2.8,-1.4,5.7,-2.7,8.6,-3.9l1.1,-.4l-.3,-.7l-1,.4c-7.7,3,-14.9,6.9,-21.8,11.4l-.7,.5l.4,.7Z" class="ga_337"/>
<path d="M294.9,85.8l1,.4l2.2,.9l2.1,.9l2.2,1l2.2,1.1h.2l1.2,.7l.3,-.7l-1.2,-.6l-.2,-.1l-2.2,-1.1l-2.1,-1h-.1l-2.1,-.9l-2.2,-.9l-1,-.4l-.3,.7Z" class="ga_337"/>
<path d="M320.2,99.4l1.6,1.2l.5,.3l1.7,1.3c3.8,3,7.4,6.1,10.8,9.5l.3,-.2l-.3,.2l2.1,2.2c2.6,2.8,5.1,5.6,7.4,8.6l1.3,1.7l.3,.5l1.6,2.1l.2,.4L349,129l.9,1.4l.5,.8l1.3,2.1l.4,.6H352l1,1.6l1.2,2.1l1.2,2.2l1,2l.1,.1l1,2.2l1,2.2v.1l.9,2l.9,2.2l.4,1l.7,-.3l-.4,-1c-7.9,-20,-21.4,-37.5,-38.7,-50.3l-1.7,-1.2l-.4,.6Z" class="ga_337"/>
<path d="M173.7,299.6l-.8,-.6l-2,-1.6l-.2,-.1l-2.2,-1.8l-.3,-.2l-1.8,-1.6l-.7,-.6l-1.5,-1.3c-4,-3.7,-7.8,-7.6,-11.4,-11.7l-1.5,-1.8L151,278l-1.8,-2.2l-.1,-.2l-1.5,-1.9l-.7,-.9l-.6,.5l.7,.8c7.2,9.6,15.8,18.2,25.4,25.5l.8,.6l.5,-.6Z" class="ga_337"/>
<path d="M360.7,272.8l-.6,.9l.3,.2l-.3,-.2l-1.5,1.9l-.2,.2l-1.7,2.2l-.3,.3l-1.5,1.8l.2,.3l-.2,-.3l-.6,.7l.2,.3l-.2,-.3l-1.4,1.5l.3,.2l-.3,-.2l-.8,.9l.3,.3l-.3,-.3l-1.2,1.3l.3,.2l-.2,-.2l-1.1,1l-1,1.1l-1.1,1.1l.2,.3l-.2,-.3l-1.1,1.1l-1.1,1l-1.2,1.1l-.9,.9l-1.5,1.3l-.7,.6l-1.8,1.6l.2,.2l-.2,-.2l-.4,.2l.3,.3l-.3,-.3l-2.1,1.8l.2,.3l-.2,-.3l-.2,.1l-2,1.6l-.8,.6l.5,.6l.8,-.6c9.6,-7.3,18.1,-15.9,25.4,-25.5l.6,-.8l-.6,-.5Z" class="ga_337"/>
<path d="M146.9,112.5l.7,-.8l1.5,-2l.1,-.2l1.8,-2.1l.3,-.4v.1l1.5,-1.9l.6,-.7l1.3,-1.4l.9,-1l1.1,-1.2c1.8,-1.8,3.5,-3.6,5.4,-5.3l1.2,-1.2l.9,-.8l1.5,-1.3l.7,-.6l1.8,-1.6l.3,-.3l2.2,-1.7l.2,-.2l2,-1.5l.8,-.6l-.5,-.6l-.8,.6c-9.6,7.3,-18.2,15.9,-25.4,25.4l-.7,.9l.6,.4Z" class="ga_337"/>
<path d="M334,85.8l.8,.6l2,1.5l.2,.2l2.1,1.7l.4,.3l1.8,1.6l.7,.6l1.5,1.3l.9,.8l1.2,1.2c2.6,2.4,5,4.9,7.3,7.5l1.4,1.4l.6,.7l1.5,1.9V107l.3,.4l1.7,2.1l.2,.2l1.5,2l.6,.8l.6,-.4l-.6,-.9C353.4,101.7,344.9,93.1,335.3,85.8l-.8,-.6l-.5,.6Z" class="ga_337"/>
<path d="M146.3,300.3h.7V85.1h-.7Z" class="g9_337"/>
<path d="M360.7,300.3h.7V85.1h-.7Z" class="g9_337"/>
<path d="M146.3,300.3H361.4v-.8H146.3Z" class="g9_337"/>
<path d="M146.3,85.9H361.4v-.8H146.3Z" class="g9_337"/>
<path d="M246.3,230.7l6.1,-.3v.8l-6,.3l-.1,-.8Z" class="ga_337"/>
<path d="M256.2,226.4c.8,-.1,1.4,.2,1.9,.8c.5,.6,.7,1.5,.8,2.7c.1,1.1,-.1,2.1,-.4,2.7c-.4,.7,-1,1,-1.8,1.1c-.8,0,-1.4,-.3,-1.9,-.9c-.4,-.6,-.7,-1.4,-.8,-2.6c0,-1.2,.1,-2.1,.5,-2.8c.4,-.6,.9,-1,1.7,-1Zm.1,.7c-.5,0,-.9,.3,-1.1,.8c-.2,.5,-.3,1.2,-.2,2.2c.1,1,.2,1.7,.5,2.2c.3,.4,.7,.6,1.2,.6c.4,0,.8,-.3,1,-.8c.2,-.5,.3,-1.2,.2,-2.2c0,-1,-.2,-1.7,-.5,-2.1c-.2,-.5,-.6,-.7,-1.1,-.7Z" class="ga_337"/>
<path d="M260.7,232.1l1,-.1l.1,1.2l-1,.1l-.1,-1.2Z" class="ga_337"/>
<path d="M263.4,226l3.8,-.2v.8l-2.9,.2l.2,1.7l.4,-.1c.1,-.1,.2,-.1,.4,-.1c.8,0,1.4,.1,1.9,.5c.5,.4,.7,1,.8,1.7c0,.8,-.2,1.4,-.6,1.8c-.5,.5,-1.1,.7,-2,.8c-.3,0,-.6,0,-.9,0c-.3,-.1,-.6,-.1,-.9,-.2l-.1,-.9c.3,.1,.6,.2,.9,.2c.3,.1,.6,.1,1,.1c.5,0,.9,-.2,1.2,-.5c.3,-.3,.5,-.7,.4,-1.2c0,-.5,-.2,-.9,-.5,-1.1c-.4,-.3,-.8,-.4,-1.3,-.4c-.3,0,-.5,.1,-.8,.1c-.2,.1,-.5,.2,-.7,.4l-.3,-3.6Z" class="ga_337"/>
<path d="M215.5,254.5c.7,.3,1.1,.8,1.3,1.5c.2,.8,0,1.7,-.4,2.8c-.4,1.1,-1,1.9,-1.6,2.3c-.6,.4,-1.3,.5,-2,.2c-.8,-.3,-1.2,-.8,-1.4,-1.5c-.1,-.8,0,-1.7,.5,-2.8c.4,-1.1,.9,-1.9,1.5,-2.3c.7,-.4,1.3,-.5,2.1,-.2Zm-.3,.7c-.5,-.2,-.9,-.1,-1.3,.3c-.4,.3,-.8,1,-1.2,1.9c-.3,.9,-.5,1.6,-.4,2.1c0,.6,.3,.9,.8,1.1c.4,.2,.9,.1,1.3,-.3c.4,-.3,.8,-.9,1.1,-1.8c.4,-.9,.5,-1.7,.5,-2.2c-.1,-.5,-.4,-.9,-.8,-1.1Z" class="g9_337"/>
<path d="M217.1,261.6l.9,.3l-.4,1.2l-.9,-.4l.4,-1.1Z" class="g9_337"/>
<path d="M224,257.9c.8,.3,1.2,.8,1.4,1.5c.1,.8,0,1.7,-.4,2.8c-.5,1.1,-1,1.9,-1.6,2.3c-.6,.4,-1.3,.5,-2,.2c-.8,-.3,-1.2,-.8,-1.4,-1.5c-.1,-.8,0,-1.7,.4,-2.8c.5,-1.1,1,-1.9,1.6,-2.3c.6,-.4,1.3,-.5,2,-.2Zm-.2,.7c-.5,-.2,-.9,-.1,-1.3,.3c-.4,.3,-.8,1,-1.2,1.9c-.3,.9,-.5,1.6,-.4,2.1c0,.6,.3,.9,.7,1.1c.5,.2,.9,.1,1.3,-.3c.5,-.3,.8,-1,1.2,-1.9c.3,-.9,.5,-1.6,.4,-2.1c0,-.6,-.3,-.9,-.7,-1.1Z" class="g9_337"/>
<path d="M191.9,284.9c.8,.3,1.2,.8,1.3,1.6c.1,.7,-.1,1.6,-.6,2.7c-.4,1.1,-1,1.8,-1.6,2.2c-.7,.4,-1.4,.5,-2.1,.1c-.7,-.3,-1.1,-.8,-1.2,-1.6c-.2,-.7,0,-1.6,.5,-2.7c.5,-1.1,1.1,-1.8,1.7,-2.2c.6,-.4,1.3,-.4,2,-.1Zm-.3,.7c-.4,-.2,-.9,-.2,-1.3,.2c-.4,.3,-.8,.9,-1.2,1.8c-.4,.9,-.6,1.6,-.6,2.1c.1,.6,.3,.9,.7,1.2c.5,.2,.9,.1,1.3,-.3c.5,-.3,.9,-.9,1.3,-1.8c.4,-.9,.6,-1.6,.5,-2.1c0,-.6,-.2,-.9,-.7,-1.1Z" class="ga_337"/>
<path d="M193.2,292l.9,.4l-.5,1.1l-.9,-.4l.5,-1.1Z" class="ga_337"/>
<path d="M198.4,288l3.4,1.5l-.3,.7L198.9,289l-.7,1.6c.1,0,.3,.1,.4,.1l.4,.1c.7,.4,1.2,.8,1.4,1.4c.3,.6,.3,1.2,0,1.9c-.4,.7,-.8,1.1,-1.4,1.3c-.6,.2,-1.3,.1,-2.1,-.3c-.3,-.1,-.5,-.2,-.8,-.4c-.3,-.2,-.5,-.4,-.8,-.6l.4,-.9c.2,.3,.4,.5,.7,.7c.2,.2,.5,.4,.8,.5c.5,.2,1,.3,1.4,.1c.4,-.1,.7,-.4,.9,-.8c.2,-.5,.2,-.9,0,-1.3c-.1,-.4,-.5,-.7,-1,-.9c-.2,-.1,-.4,-.2,-.7,-.2c-.3,-.1,-.5,-.1,-.8,-.1l1.4,-3.2Z" class="ga_337"/>
<path d="M319.1,281c.7,-.4,1.3,-.4,2,-.1c.7,.3,1.3,1,1.9,2c.6,1.1,.9,1.9,.9,2.7c0,.7,-.4,1.3,-1.1,1.7c-.7,.4,-1.3,.5,-2,.1c-.7,-.3,-1.3,-1,-1.9,-2c-.7,-1,-.9,-1.9,-.9,-2.6c0,-.8,.4,-1.4,1.1,-1.8Zm.4,.7c-.5,.2,-.6,.6,-.6,1.2c0,.5,.3,1.2,.8,2c.5,.9,.9,1.4,1.4,1.7c.5,.3,.9,.3,1.3,.1c.5,-.3,.6,-.7,.6,-1.2c0,-.6,-.3,-1.3,-.8,-2.1c-.5,-.8,-.9,-1.4,-1.4,-1.7c-.5,-.3,-.9,-.3,-1.3,0Z" class="ga_337"/>
<path d="M325.7,284.1l.8,-.5l.6,1l-.8,.5l-.6,-1Z" class="ga_337"/>
<path d="M325.3,277.5l3.3,-1.9l.4,.6l-2.5,1.5l.9,1.5l.3,-.3l.3,-.2c.7,-.4,1.3,-.6,2,-.4c.6,.1,1.1,.5,1.4,1.1c.4,.7,.5,1.3,.3,1.9c-.2,.6,-.6,1.1,-1.4,1.6c-.2,.1,-.5,.2,-.8,.3c-.3,.2,-.6,.3,-.9,.3l-.5,-.8c.3,0,.6,0,.9,-.1c.3,-.1,.6,-.3,.9,-.4c.5,-.3,.8,-.7,.9,-1.1c.1,-.4,.1,-.8,-.2,-1.2c-.2,-.4,-.6,-.7,-1,-.8c-.4,0,-.8,0,-1.3,.3c-.2,.2,-.4,.3,-.6,.5c-.2,.2,-.4,.4,-.6,.6l-1.8,-3Z" class="ga_337"/>
<path d="M176.1,101.3c.6,-.4,1.3,-.5,2,-.1c.7,.3,1.3,1,1.9,2c.6,1,.9,1.9,.9,2.6c-.1,.8,-.4,1.4,-1.1,1.8c-.7,.4,-1.4,.4,-2,.1c-.7,-.3,-1.4,-1,-2,-2c-.6,-1.1,-.9,-1.9,-.8,-2.7c0,-.7,.4,-1.3,1.1,-1.7Zm.3,.6c-.4,.3,-.6,.7,-.5,1.2c0,.6,.3,1.2,.8,2.1c.4,.8,.9,1.4,1.4,1.7c.4,.2,.9,.3,1.3,0c.4,-.2,.6,-.6,.6,-1.2c0,-.5,-.3,-1.2,-.8,-2c-.5,-.9,-1,-1.4,-1.4,-1.7c-.5,-.3,-.9,-.3,-1.4,-.1Z" class="ga_337"/>
<path d="M182.6,104.3l.9,-.5l.6,1l-.8,.6l-.7,-1.1Z" class="ga_337"/>
<path d="M182.3,97.7l3.2,-1.9l.4,.7L183.5,98l.9,1.4l.3,-.3l.3,-.2c.7,-.4,1.3,-.5,1.9,-.4c.6,.1,1.1,.5,1.5,1.2c.4,.6,.5,1.2,.3,1.8c-.2,.6,-.6,1.2,-1.4,1.6c-.2,.2,-.5,.3,-.8,.4c-.3,.1,-.6,.2,-.9,.3l-.5,-.8c.3,0,.6,-.1,.9,-.2c.3,-.1,.6,-.2,.9,-.4c.5,-.3,.8,-.6,.9,-1c.1,-.4,.1,-.8,-.2,-1.3c-.3,-.4,-.6,-.6,-1,-.7c-.4,-.1,-.9,0,-1.3,.3c-.3,.1,-.5,.3,-.7,.4c-.1,.2,-.3,.4,-.5,.7l-1.8,-3.1Z" class="ga_337"/>
<path d="M311,88.5c.8,.3,1.2,.8,1.3,1.6c.1,.7,-.1,1.6,-.5,2.7c-.5,1.1,-1.1,1.8,-1.7,2.2c-.7,.4,-1.3,.4,-2.1,.1c-.7,-.3,-1.1,-.8,-1.2,-1.6c-.2,-.7,0,-1.6,.5,-2.7c.5,-1.1,1.1,-1.8,1.7,-2.2c.6,-.4,1.3,-.5,2,-.1Zm-.3,.6c-.4,-.2,-.8,-.1,-1.3,.3c-.4,.3,-.8,.9,-1.2,1.8c-.4,.9,-.6,1.6,-.6,2.1c.1,.6,.3,.9,.7,1.1c.5,.2,.9,.2,1.4,-.2c.4,-.3,.8,-.9,1.2,-1.8c.4,-.9,.6,-1.6,.5,-2.1c0,-.6,-.2,-.9,-.7,-1.2Z" class="ga_337"/>
<path d="M312.3,95.6l.9,.4l-.5,1.1l-.9,-.4l.5,-1.1Z" class="ga_337"/>
<path d="M317.6,91.5l3.4,1.6l-.4,.7L318,92.6l-.7,1.6c.1,0,.3,0,.4,.1l.4,.1c.7,.3,1.2,.8,1.5,1.4c.2,.6,.2,1.2,-.1,1.9c-.4,.6,-.8,1.1,-1.4,1.3c-.6,.2,-1.3,.1,-2.1,-.3c-.3,-.1,-.5,-.2,-.8,-.4c-.2,-.2,-.5,-.4,-.8,-.6l.4,-.9c.2,.3,.5,.5,.7,.7c.2,.2,.5,.3,.8,.5c.5,.2,1,.3,1.4,.1c.4,-.1,.7,-.4,.9,-.8c.2,-.5,.2,-.9,0,-1.3c-.1,-.4,-.5,-.7,-1,-.9c-.2,-.1,-.4,-.2,-.7,-.3c-.2,0,-.5,0,-.8,0l1.5,-3.3Z" class="ga_337"/>
<path d="M375.4,299.9h10.7V85.5H375.4Z" class="g0_337"/>
<path d="M375.4,299.9h10.7V273.1H375.4Z" class="g1_337"/>
<path d="M375.4,273.1h10.7V246.3H375.4Z" class="g2_337"/>
<path d="M375.4,246.3h10.7V219.5H375.4Z" class="g3_337"/>
<path d="M375.4,219.5h10.7V192.7H375.4Z" class="g4_337"/>
<path d="M375.4,192.7h10.7V165.9H375.4Z" class="g5_337"/>
<path d="M375.4,165.9h10.7V139.1H375.4Z" class="g6_337"/>
<path d="M375.4,139.1h10.7V112.3H375.4Z" class="g7_337"/>
<path d="M375.4,112.3h10.7V85.5H375.4Z" class="g8_337"/>
<path d="M386.1,300.3H389v-.8h-2.9Z" class="g9_337"/>
<path d="M392.6,300.7h5.1v-.6h-5.1Z" class="g9_337"/>
<path d="M399.5,302.3h1.3v-4.5l-1.4,.3v-.8l1.4,-.2h.8v5.2h1.3v.6h-3.4v-.6Z" class="g9_337"/>
<path d="M404.5,302.9h.9v-1h-.9Z" class="g9_337"/>
<path d="M408.8,297c.6,0,1.1,.2,1.5,.7c.3,.6,.5,1.3,.5,2.3c0,1,-.2,1.7,-.5,2.3c-.4,.5,-.9,.7,-1.5,.7c-.7,0,-1.2,-.2,-1.5,-.7c-.4,-.6,-.5,-1.3,-.5,-2.3c0,-1,.1,-1.7,.5,-2.3c.3,-.5,.8,-.7,1.5,-.7Zm0,.6c-.4,0,-.7,.2,-.9,.6c-.2,.4,-.3,1,-.3,1.8c0,.8,.1,1.4,.3,1.8c.2,.4,.5,.6,.9,.6c.4,0,.7,-.2,.9,-.6c.2,-.4,.3,-1,.3,-1.8c0,-.8,-.1,-1.4,-.3,-1.8c-.2,-.4,-.5,-.6,-.9,-.6Z" class="g9_337"/>
<path d="M413.9,297c.7,0,1.2,.2,1.5,.7c.4,.6,.5,1.3,.5,2.3c0,1,-.1,1.7,-.5,2.3c-.3,.5,-.8,.7,-1.5,.7c-.6,0,-1.2,-.2,-1.5,-.7c-.3,-.6,-.5,-1.3,-.5,-2.3c0,-1,.2,-1.7,.5,-2.3c.3,-.5,.9,-.7,1.5,-.7Zm0,.6c-.4,0,-.7,.2,-.9,.6c-.2,.4,-.3,1,-.3,1.8c0,.8,.1,1.4,.3,1.8c.2,.4,.5,.6,.9,.6c.4,0,.7,-.2,.9,-.6c.2,-.4,.3,-1,.3,-1.8c0,-.8,-.1,-1.4,-.3,-1.8c-.2,-.4,-.5,-.6,-.9,-.6Z" class="g9_337"/>
<path d="M386.1,273.5H389v-.8h-2.9Z" class="g9_337"/>
<path d="M392.6,273.9h5.1v-.6h-5.1Z" class="g9_337"/>
<path d="M401.1,270.2c.7,0,1.2,.2,1.5,.7c.4,.6,.5,1.3,.5,2.3c0,1,-.1,1.8,-.5,2.3c-.3,.5,-.8,.8,-1.5,.8c-.7,0,-1.2,-.3,-1.5,-.8c-.4,-.5,-.5,-1.3,-.5,-2.3c0,-1,.1,-1.7,.5,-2.3c.3,-.5,.8,-.7,1.5,-.7Zm0,.6c-.4,0,-.7,.2,-.9,.6c-.2,.4,-.3,1,-.3,1.8c0,.8,.1,1.4,.3,1.8c.2,.4,.5,.6,.9,.6c.4,0,.7,-.2,.9,-.6c.2,-.4,.3,-1,.3,-1.8c0,-.8,-.1,-1.4,-.3,-1.8c-.2,-.4,-.5,-.6,-.9,-.6Z" class="g9_337"/>
<path d="M404.5,276.1h.9v-1h-.9Z" class="g9_337"/>
<path d="M406.9,270.3h3.8v.3l-2.2,5.5h-.8l2,-5.2h-2.8v-.6Z" class="g9_337"/>
<path d="M412.2,270.3h3.1v.6h-2.4v1.5l.4,-.1h.3c.7,0,1.2,.1,1.6,.5c.4,.4,.6,.8,.6,1.5c0,.6,-.2,1.1,-.6,1.4c-.4,.4,-1,.6,-1.7,.6c-.2,0,-.5,-.1,-.7,-.1c-.3,-.1,-.6,-.1,-.8,-.2v-.8c.2,.1,.4,.2,.7,.3c.3,0,.5,.1,.8,.1c.5,0,.8,-.1,1.1,-.4c.2,-.2,.4,-.5,.4,-.9c0,-.5,-.2,-.8,-.4,-1c-.3,-.3,-.6,-.4,-1.1,-.4c-.2,0,-.4,0,-.6,.1c-.2,0,-.5,.1,-.7,.2v-2.9Z" class="g9_337"/>
<path d="M386.1,246.7H389v-.8h-2.9Z" class="g9_337"/>
<path d="M392.6,247.1h5.1v-.6h-5.1Z" class="g9_337"/>
<path d="M401.1,243.4c.7,0,1.2,.2,1.5,.7c.4,.6,.5,1.3,.5,2.3c0,1,-.1,1.8,-.5,2.3c-.3,.5,-.8,.8,-1.5,.8c-.7,0,-1.2,-.3,-1.5,-.8c-.4,-.5,-.5,-1.3,-.5,-2.3c0,-1,.1,-1.7,.5,-2.3c.3,-.5,.8,-.7,1.5,-.7Zm0,.6c-.4,0,-.7,.2,-.9,.6c-.2,.4,-.3,1,-.3,1.8c0,.8,.1,1.4,.3,1.8c.2,.4,.5,.6,.9,.6c.4,0,.7,-.2,.9,-.6c.2,-.4,.3,-1,.3,-1.8c0,-.8,-.1,-1.4,-.3,-1.8c-.2,-.4,-.5,-.6,-.9,-.6Z" class="g9_337"/>
<path d="M404.5,249.3h.9v-1h-.9Z" class="g9_337"/>
<path d="M407.1,243.5h3.1v.6h-2.4v1.5l.4,-.1h.3c.7,0,1.2,.1,1.6,.5c.4,.4,.5,.8,.5,1.5c0,.6,-.2,1.1,-.5,1.4c-.4,.4,-1,.6,-1.7,.6c-.3,0,-.5,-.1,-.8,-.1c-.2,-.1,-.5,-.1,-.8,-.2v-.8c.3,.1,.5,.2,.8,.3c.2,0,.5,.1,.8,.1c.4,0,.8,-.1,1.1,-.4c.2,-.2,.3,-.5,.3,-.9c0,-.5,-.1,-.8,-.3,-1c-.3,-.3,-.7,-.4,-1.1,-.4c-.2,0,-.5,0,-.7,.1c-.2,0,-.4,.1,-.6,.2v-2.9Z" class="g9_337"/>
<path d="M413.9,243.4c.7,0,1.2,.2,1.5,.7c.4,.6,.5,1.3,.5,2.3c0,1,-.1,1.8,-.5,2.3c-.3,.5,-.8,.8,-1.5,.8c-.6,0,-1.2,-.3,-1.5,-.8c-.3,-.5,-.5,-1.3,-.5,-2.3c0,-1,.2,-1.7,.5,-2.3c.3,-.5,.9,-.7,1.5,-.7Zm0,.6c-.4,0,-.7,.2,-.9,.6c-.2,.4,-.3,1,-.3,1.8c0,.8,.1,1.4,.3,1.8c.2,.4,.5,.6,.9,.6c.4,0,.7,-.2,.9,-.6c.2,-.4,.3,-1,.3,-1.8c0,-.8,-.1,-1.4,-.3,-1.8c-.2,-.4,-.5,-.6,-.9,-.6Z" class="g9_337"/>
<path d="M386.1,219.9H389v-.8h-2.9Z" class="g9_337"/>
<path d="M392.6,220.3h5.1v-.6h-5.1Z" class="g9_337"/>
<path d="M401.1,216.6c.7,0,1.2,.2,1.5,.7c.4,.6,.5,1.3,.5,2.3c0,1,-.1,1.8,-.5,2.3c-.3,.5,-.8,.8,-1.5,.8c-.7,0,-1.2,-.3,-1.5,-.8c-.4,-.5,-.5,-1.3,-.5,-2.3c0,-1,.1,-1.7,.5,-2.3c.3,-.5,.8,-.7,1.5,-.7Zm0,.6c-.4,0,-.7,.2,-.9,.6c-.2,.4,-.3,1,-.3,1.8c0,.8,.1,1.4,.3,1.8c.2,.4,.5,.6,.9,.6c.4,0,.7,-.2,.9,-.6c.2,-.4,.3,-1,.3,-1.8c0,-.8,-.1,-1.4,-.3,-1.8c-.2,-.4,-.5,-.6,-.9,-.6Z" class="g9_337"/>
<path d="M404.5,222.5h.9v-1h-.9Z" class="g9_337"/>
<path d="M407.8,221.9h2.7v.6h-3.7v-.6c.3,-.3,.7,-.8,1.2,-1.3c.6,-.5,.9,-.9,1,-1c.3,-.3,.5,-.5,.6,-.7c.1,-.2,.1,-.4,.1,-.6c0,-.3,-.1,-.6,-.3,-.8c-.2,-.2,-.5,-.3,-.9,-.3c-.2,0,-.5,.1,-.8,.2c-.2,0,-.5,.2,-.8,.3v-.8c.3,-.1,.6,-.2,.8,-.2c.3,-.1,.6,-.1,.8,-.1c.6,0,1.1,.1,1.5,.4c.3,.3,.5,.7,.5,1.2c0,.3,0,.5,-.1,.7c-.1,.2,-.3,.5,-.5,.8c-.1,.1,-.3,.3,-.6,.6c-.4,.4,-.9,.9,-1.5,1.6Z" class="g9_337"/>
<path d="M412.2,216.7h3.1v.6h-2.4v1.5l.4,-.1h.3c.7,0,1.2,.1,1.6,.5c.4,.4,.6,.8,.6,1.5c0,.6,-.2,1.1,-.6,1.4c-.4,.4,-1,.6,-1.7,.6c-.2,0,-.5,-.1,-.7,-.1c-.3,-.1,-.6,-.1,-.8,-.2v-.8c.2,.1,.4,.2,.7,.3c.3,0,.5,.1,.8,.1c.5,0,.8,-.1,1.1,-.4c.2,-.2,.4,-.5,.4,-.9c0,-.5,-.2,-.8,-.4,-1c-.3,-.3,-.6,-.4,-1.1,-.4c-.2,0,-.4,0,-.6,.1c-.2,0,-.5,.1,-.7,.2v-2.9Z" class="g9_337"/>
<path d="M386.1,193.1H389v-.8h-2.9Z" class="g9_337"/>
<path d="M394.3,189.8c.7,0,1.2,.2,1.6,.7c.3,.6,.5,1.3,.5,2.3c0,1,-.2,1.7,-.5,2.3c-.4,.5,-.9,.8,-1.6,.8c-.6,0,-1.1,-.3,-1.5,-.8c-.3,-.6,-.5,-1.3,-.5,-2.3c0,-1,.2,-1.7,.5,-2.3c.4,-.5,.9,-.7,1.5,-.7Zm0,.6c-.4,0,-.7,.2,-.9,.6c-.2,.4,-.3,1,-.3,1.8c0,.8,.1,1.4,.3,1.8c.2,.4,.5,.6,.9,.6c.5,0,.8,-.2,1,-.6c.2,-.4,.3,-1,.3,-1.8c0,-.8,-.1,-1.4,-.3,-1.8c-.2,-.4,-.5,-.6,-1,-.6Z" class="g9_337"/>
<path d="M397.8,195.7h.8v-1h-.8Z" class="g9_337"/>
<path d="M402,189.8c.7,0,1.2,.2,1.5,.7c.4,.6,.6,1.3,.6,2.3c0,1,-.2,1.7,-.6,2.3c-.3,.5,-.8,.8,-1.5,.8c-.6,0,-1.1,-.3,-1.5,-.8c-.3,-.6,-.5,-1.3,-.5,-2.3c0,-1,.2,-1.7,.5,-2.3c.4,-.5,.9,-.7,1.5,-.7Zm0,.6c-.4,0,-.7,.2,-.9,.6c-.2,.4,-.3,1,-.3,1.8c0,.8,.1,1.4,.3,1.8c.2,.4,.5,.6,.9,.6c.4,0,.8,-.2,1,-.6c.2,-.4,.3,-1,.3,-1.8c0,-.8,-.1,-1.4,-.3,-1.8c-.2,-.4,-.6,-.6,-1,-.6Z" class="g9_337"/>
<path d="M407.2,189.8c.6,0,1.1,.2,1.5,.7c.3,.6,.5,1.3,.5,2.3c0,1,-.2,1.7,-.5,2.3c-.4,.5,-.9,.8,-1.5,.8c-.7,0,-1.2,-.3,-1.6,-.8c-.3,-.6,-.5,-1.3,-.5,-2.3c0,-1,.2,-1.7,.5,-2.3c.4,-.5,.9,-.7,1.6,-.7Zm0,.6c-.5,0,-.8,.2,-1,.6c-.2,.4,-.3,1,-.3,1.8c0,.8,.1,1.4,.3,1.8c.2,.4,.5,.6,1,.6c.4,0,.7,-.2,.9,-.6c.2,-.4,.3,-1,.3,-1.8c0,-.8,-.1,-1.4,-.3,-1.8c-.2,-.4,-.5,-.6,-.9,-.6Z" class="g9_337"/>
<path d="M386.1,166.3H389v-.8h-2.9Z" class="g9_337"/>
<path d="M394.3,163c.7,0,1.2,.2,1.6,.7c.3,.6,.5,1.3,.5,2.3c0,1,-.2,1.7,-.5,2.3c-.4,.5,-.9,.8,-1.6,.8c-.6,0,-1.1,-.3,-1.5,-.8c-.3,-.6,-.5,-1.3,-.5,-2.3c0,-1,.2,-1.7,.5,-2.3c.4,-.5,.9,-.7,1.5,-.7Zm0,.6c-.4,0,-.7,.2,-.9,.6c-.2,.4,-.3,1,-.3,1.8c0,.8,.1,1.4,.3,1.8c.2,.4,.5,.6,.9,.6c.5,0,.8,-.2,1,-.6c.2,-.4,.3,-1,.3,-1.8c0,-.8,-.1,-1.4,-.3,-1.8c-.2,-.4,-.5,-.6,-1,-.6Z" class="g9_337"/>
<path d="M397.8,168.9h.8v-1h-.8Z" class="g9_337"/>
<path d="M401,168.3h2.8v.6h-3.7v-.6c.3,-.3,.7,-.8,1.2,-1.3c.5,-.5,.8,-.9,1,-1c.2,-.3,.4,-.5,.5,-.7c.1,-.2,.2,-.4,.2,-.6c0,-.3,-.1,-.6,-.4,-.8c-.2,-.2,-.5,-.3,-.8,-.3c-.3,0,-.5,.1,-.8,.2c-.3,0,-.6,.2,-.9,.3v-.8c.3,-.1,.6,-.2,.9,-.2c.3,-.1,.5,-.1,.8,-.1c.6,0,1.1,.1,1.4,.4c.4,.3,.6,.7,.6,1.2c0,.3,-.1,.5,-.2,.7c-.1,.2,-.2,.5,-.5,.8c0,.1,-.2,.3,-.6,.6c-.3,.4,-.8,.9,-1.5,1.6Z" class="g9_337"/>
<path d="M405.5,163.1h3.1v.6h-2.4v1.5l.3,-.1h.4c.6,0,1.2,.1,1.5,.5c.4,.4,.6,.8,.6,1.5c0,.6,-.2,1.1,-.6,1.4c-.4,.4,-.9,.6,-1.6,.6c-.3,0,-.5,-.1,-.8,-.1c-.2,-.1,-.5,-.1,-.8,-.2V168c.3,.1,.5,.2,.8,.3c.2,.1,.5,.1,.7,.1c.5,0,.9,-.1,1.1,-.4c.3,-.2,.4,-.5,.4,-.9c0,-.5,-.1,-.8,-.4,-1c-.2,-.3,-.6,-.4,-1.1,-.4c-.2,0,-.4,0,-.6,.1c-.2,0,-.4,.1,-.6,.2v-2.9Z" class="g9_337"/>
<path d="M386.1,139.5H389v-.8h-2.9Z" class="g9_337"/>
<path d="M394.3,136.2c.7,0,1.2,.2,1.6,.7c.3,.6,.5,1.3,.5,2.3c0,1,-.2,1.7,-.5,2.3c-.4,.5,-.9,.8,-1.6,.8c-.6,0,-1.1,-.3,-1.5,-.8c-.3,-.6,-.5,-1.3,-.5,-2.3c0,-1,.2,-1.7,.5,-2.3c.4,-.5,.9,-.7,1.5,-.7Zm0,.6c-.4,0,-.7,.2,-.9,.6c-.2,.4,-.3,1,-.3,1.8c0,.8,.1,1.4,.3,1.8c.2,.4,.5,.6,.9,.6c.5,0,.8,-.2,1,-.6c.2,-.4,.3,-1,.3,-1.8c0,-.8,-.1,-1.4,-.3,-1.8c-.2,-.4,-.5,-.6,-1,-.6Z" class="g9_337"/>
<path d="M397.8,142.1h.8v-1h-.8Z" class="g9_337"/>
<path d="M400.3,136.3h3.2v.6h-2.4v1.5l.3,-.1h.4c.6,0,1.1,.1,1.5,.5c.4,.4,.6,.8,.6,1.5c0,.6,-.2,1.1,-.6,1.4c-.4,.4,-.9,.6,-1.7,.6c-.2,0,-.5,-.1,-.7,-.1c-.3,-.1,-.5,-.1,-.8,-.2v-.8c.2,.1,.5,.2,.7,.3c.3,.1,.5,.1,.8,.1c.5,0,.8,-.1,1.1,-.4c.3,-.2,.4,-.5,.4,-.9c0,-.5,-.1,-.8,-.4,-1c-.3,-.3,-.6,-.4,-1.1,-.4c-.2,0,-.4,0,-.6,.1c-.2,0,-.4,.1,-.7,.2v-2.9Z" class="g9_337"/>
<path d="M407.2,136.2c.6,0,1.1,.2,1.5,.7c.3,.6,.5,1.3,.5,2.3c0,1,-.2,1.7,-.5,2.3c-.4,.5,-.9,.8,-1.5,.8c-.7,0,-1.2,-.3,-1.6,-.8c-.3,-.6,-.5,-1.3,-.5,-2.3c0,-1,.2,-1.7,.5,-2.3c.4,-.5,.9,-.7,1.6,-.7Zm0,.6c-.5,0,-.8,.2,-1,.6c-.2,.4,-.3,1,-.3,1.8c0,.8,.1,1.4,.3,1.8c.2,.4,.5,.6,1,.6c.4,0,.7,-.2,.9,-.6c.2,-.4,.3,-1,.3,-1.8c0,-.8,-.1,-1.4,-.3,-1.8c-.2,-.4,-.5,-.6,-.9,-.6Z" class="g9_337"/>
<path d="M386.1,112.7H389v-.8h-2.9Z" class="g9_337"/>
<path d="M394.3,109.4c.7,0,1.2,.2,1.6,.7c.3,.6,.5,1.3,.5,2.3c0,1,-.2,1.7,-.5,2.3c-.4,.5,-.9,.8,-1.6,.8c-.6,0,-1.1,-.3,-1.5,-.8c-.3,-.6,-.5,-1.3,-.5,-2.3c0,-1,.2,-1.7,.5,-2.3c.4,-.5,.9,-.7,1.5,-.7Zm0,.6c-.4,0,-.7,.2,-.9,.6c-.2,.4,-.3,1,-.3,1.8c0,.8,.1,1.4,.3,1.8c.2,.4,.5,.6,.9,.6c.5,0,.8,-.2,1,-.6c.2,-.4,.3,-1,.3,-1.8c0,-.8,-.1,-1.4,-.3,-1.8c-.2,-.4,-.5,-.6,-1,-.6Z" class="g9_337"/>
<path d="M397.8,115.3h.8v-1h-.8Z" class="g9_337"/>
<path d="M400.1,109.5h3.8v.3l-2.1,5.5h-.9l2.1,-5.2h-2.9v-.6Z" class="g9_337"/>
<path d="M405.5,109.5h3.1v.6h-2.4v1.5l.3,-.1h.4c.6,0,1.2,.1,1.5,.5c.4,.4,.6,.8,.6,1.5c0,.6,-.2,1.1,-.6,1.4c-.4,.4,-.9,.6,-1.6,.6c-.3,0,-.5,-.1,-.8,-.1c-.2,-.1,-.5,-.1,-.8,-.2v-.8c.3,.1,.5,.2,.8,.3c.2,0,.5,.1,.7,.1c.5,0,.9,-.1,1.1,-.4c.3,-.2,.4,-.5,.4,-.9c0,-.5,-.1,-.8,-.4,-1c-.2,-.3,-.6,-.4,-1.1,-.4c-.2,0,-.4,0,-.6,.1c-.2,0,-.4,.1,-.6,.2v-2.9Z" class="g9_337"/>
<path d="M386.1,85.9H389v-.8h-2.9Z" class="g9_337"/>
<path d="M392.8,87.9h1.3V83.4l-1.4,.3v-.8l1.4,-.2h.8v5.2h1.3v.6h-3.4v-.6Z" class="g9_337"/>
<path d="M397.8,88.5h.8v-1h-.8Z" class="g9_337"/>
<path d="M402,82.6c.7,0,1.2,.2,1.5,.7c.4,.6,.6,1.3,.6,2.3c0,1,-.2,1.7,-.6,2.3c-.3,.5,-.8,.8,-1.5,.8c-.6,0,-1.1,-.3,-1.5,-.8c-.3,-.6,-.5,-1.3,-.5,-2.3c0,-1,.2,-1.7,.5,-2.3c.4,-.5,.9,-.7,1.5,-.7Zm0,.6c-.4,0,-.7,.2,-.9,.6c-.2,.4,-.3,1,-.3,1.8c0,.8,.1,1.4,.3,1.8c.2,.4,.5,.6,.9,.6c.4,0,.8,-.2,1,-.6c.2,-.4,.3,-1,.3,-1.8c0,-.8,-.1,-1.4,-.3,-1.8c-.2,-.4,-.6,-.6,-1,-.6Z" class="g9_337"/>
<path d="M407.2,82.6c.6,0,1.1,.2,1.5,.7c.3,.6,.5,1.3,.5,2.3c0,1,-.2,1.7,-.5,2.3c-.4,.5,-.9,.8,-1.5,.8c-.7,0,-1.2,-.3,-1.6,-.8c-.3,-.6,-.5,-1.3,-.5,-2.3c0,-1,.2,-1.7,.5,-2.3c.4,-.5,.9,-.7,1.6,-.7Zm0,.6c-.5,0,-.8,.2,-1,.6c-.2,.4,-.3,1,-.3,1.8c0,.8,.1,1.4,.3,1.8c.2,.4,.5,.6,1,.6c.4,0,.7,-.2,.9,-.6c.2,-.4,.3,-1,.3,-1.8c0,-.8,-.1,-1.4,-.3,-1.8c-.2,-.4,-.5,-.6,-.9,-.6Z" class="g9_337"/>
<path d="M375.4,299.9v.4h11.1V85.1H375V300.3h.4v-.4h.4V85.9h10V299.5H375.4v.4h.4h-.4Z" class="g9_337"/>
<path d="M451.2,299.9H665.6V85.5H451.2Z" class="g0_337"/>
<path d="M557.3,230.9h2.2l2.1,-.1c46.6,-5.7,46.6,-70.5,0,-76.3l-2.1,-.1h-2.2c-46.8,3.1,-50.5,67.8,-4.3,76.2l2.1,.2l2.2,.1Z" class="gb_337"/>
<path d="M559.5,246.8h-2.2l-2.2,-.1l-2.1,-.2c-26.5,-2.6,-47,-24,-48.6,-50.6l-.1,-2.1v-2.2c.5,-27.4,21.4,-50,48.7,-52.8l2.1,-.2h6.5c26.6,1.6,48,22.2,50.7,48.7l.1,2.1l.1,2.2C613,219,593.1,242.4,566,246.3l-2.2,.2l-2.2,.2l-2.1,.1Zm-39.4,-53l.2,2.1l.2,2.2c8.4,46.1,73.1,42.5,76.2,-4.3v-2.2l-.2,-2.2c-5.7,-46.5,-70.5,-46.5,-76.2,0l-.2,2.2v2.2Z" class="gc_337"/>
<path d="M559.5,259h-2.2l-2.2,-.1l-2.1,-.1C519.8,256,493.9,229.2,492.2,195.9l-.1,-2.1v-2.2c.6,-34.2,26.8,-62.2,60.9,-65l2.1,-.2h6.5c33.3,1.7,60.1,27.6,62.9,60.9l.1,2.1l.1,2.2c.5,34.8,-25.8,64,-60.5,67.1l-.4,.1l-2.2,.1l-2.1,.1ZM504.3,193.8l.1,2.1l.1,2.2l.3,2.2c3.7,26.3,25.9,46,52.5,46.5h2.2l2.1,-.1C589,245,610.8,223.3,612.4,195.9l.1,-2.1v-2.2l-.1,-2.2l-.1,-2.1c-2.7,-26.5,-24.1,-47.1,-50.7,-48.7h-4.3c-27.4,.5,-50,21.4,-52.8,48.7l-.1,2.1l-.1,2.2v2.2Z" class="gd_337"/>
<path d="M559.5,269.2h-4.4L553,269c-38.9,-2.8,-69.4,-34.1,-71.1,-73.1l-.1,-2.1v-2.2c.7,-39.8,31.5,-72.4,71.2,-75.3l2.1,-.1l2.2,-.1h2.2l2.1,.1c39,1.7,70.3,32.2,73.2,71.1l.1,2.1v2.2c.5,39.8,-29.3,73.3,-68.9,77.3l-2.2,.1l-2.2,.2h-2.1ZM492.1,193.8l.1,2.1l.1,2.2v.4c3.1,33.9,31,59.9,65,60.5h2.2l2.1,-.1c34.1,-1.7,61.3,-28.9,63,-63l.1,-2.1v-2.2l-.1,-2.2l-.1,-2.1C621.7,154,594.9,128.1,561.6,126.4h-4.3c-34.1,.6,-62.2,26.8,-65,60.9l-.1,2.1l-.1,2.2v2.2Z" class="ge_337"/>
<path d="M559.5,278.3h-2.2l-2.2,-.1c-44.8,-1.8,-80.5,-37.5,-82.3,-82.3v-4.3c.7,-45.7,36.6,-82.6,82.3,-84.5h6.5c44.8,1.8,80.5,37.5,82.3,82.2v.1l.1,2.2c.5,45.7,-34.6,83.5,-80.2,86.5l-2.1,.1h-.1l-2.1,.1ZM481.8,193.8l.1,2.1l.1,2.2l.2,2.2c3.9,38.7,36.1,68.3,75.1,68.9h4.3c39.8,-1.8,71.5,-33.5,73.3,-73.3v-6.5l-.1,-2.1c-2.9,-38.9,-34.2,-69.4,-73.2,-71.1l-2.1,-.1h-2.2c-39.8,.6,-72.4,31.4,-75.3,71.2l-.1,2.1l-.1,2.2v2.2Z" class="gf_337"/>
<path d="M559.5,286.4h-4.4l-2.1,-.1c-48.4,-2.9,-86.6,-41.9,-88.3,-90.4l-.1,-2.1v-2.2C465.3,142.2,503.7,102,553,99.1l2.1,-.1l2.2,-.1h2.2l2.1,.1c48.5,1.7,87.5,39.8,90.4,88.3l.1,2.1l.1,2.2c.5,49.3,-37.1,90.5,-86.2,94.5l-2.2,.2l-2.2,.1h-2.1ZM472.8,193.8v2.1l.1,.1l.1,2.1c2.9,44.7,39.5,79.5,84.3,80.2h2.2l2.1,-.1c44.8,-1.8,80.5,-37.5,82.3,-82.3l.1,-2.1v-2.2l-.1,-2.2v-.1c-1.8,-44.7,-37.5,-80.4,-82.3,-82.2h-4.3c-45.6,.7,-82.6,36.6,-84.4,82.2l-.1,.1v4.4Z" class="gg_337"/>
<path d="M540.4,284.7l-.4,-.1l-2.2,-.4l-2.1,-.6C487.9,271.7,457.6,225,466,176.4l.4,-1.7v-.4c10,-49.2,56.4,-81.8,106.1,-74.3l2.1,.3l1.8,.3l.4,.1l2.2,.5c48,10.9,79.4,56.7,72.1,105.6l-.4,2.1l-.3,1.7c-9.5,48.5,-54.8,81.3,-103.9,75.1l-2.2,-.3l-2.1,-.4l-1.8,-.3Zm8.2,8.8l2.2,.2l2.2,.1l2.1,.1c53.1,1.6,98.2,-37.6,104,-90.3l.1,-1.2l.2,-2.1C663.4,146,624.2,98.6,570.3,92.1l-1,-.1l-1.2,-.1L566,91.7l-2.2,-.2c-53.5,-2.7,-99.6,36.2,-106,89.3l-.1,1l-.1,1.1c-5.2,54.2,33,102.4,86.7,110.1l2.2,.3l1,.1l1.1,.1Z" class="gh_337"/>
<path d="M573.7,299.9H543.1l-.9,-.2l-2.2,-.3c-46,-8,-81.6,-44.4,-88.7,-90.5l-.1,-.9V177.4C457.9,130.9,493.7,94,540,86l2.2,-.4l.9,-.1h30.6l.9,.1c46.2,7.1,82.5,42.7,90.5,88.7l.4,2.1l.1,1V208c-3,21.2,-12.4,41.3,-26.8,57.2l-1.4,1.5l-.6,.7c-15,15.7,-34.4,26.6,-55.7,31.1L579,299l-2.2,.4l-2.2,.3l-.9,.2ZM457.1,193.8l.1,2.1l.1,2.2l.1,2.2c4,52.5,47.2,93,99.9,93.7h2.2l2.1,-.1c53.5,-1.8,96.2,-44.5,98,-98l.1,-2.1v-2.2l-.1,-2.2l-.1,-2.1C656.7,134.7,614.3,93.2,561.6,91.4h-4.3c-53.5,.6,-97.1,42.5,-100,95.9l-.1,2.1l-.1,2.2v2.2Z" class="gi_337"/>
<path d="M543.1,299.9H517.2c-30.3,-11.7,-54.4,-35.7,-66,-66V208l.1,.9c7.2,46.9,43.9,83.7,90.9,90.8l.9,.2Z" class="gj_337"/>
<path d="M599.6,299.9H573.7l.9,-.2c47,-7.1,83.7,-43.9,90.9,-90.8l.1,-.9v25.9c-11.5,30,-35.1,53.8,-65,65.6l-1,.4Z" class="gj_337"/>
<path d="M451.2,177.4V151.5c11.6,-30.4,35.6,-54.4,66,-66h25.9l-.9,.1c-47,7.2,-83.7,43.9,-90.9,90.8l-.1,1Z" class="gj_337"/>
<path d="M665.6,177.4l-.1,-1C658.3,129.5,621.6,92.8,574.6,85.6l-.9,-.1h25.9c30.3,11.6,54.3,35.6,66,66v25.9Z" class="gj_337"/>
<path d="M498.8,298.1l2.2,1.2l1.1,.6h15.1l-1,-.4c-29.5,-11.7,-53,-35.1,-64.6,-64.6l-.4,-1v15c10.7,20.4,27,37.4,47,48.8l.6,.4Z" class="gk_337"/>
<path d="M600.6,299.9h14c21.8,-11.4,39.6,-29.2,51,-51v-15l-.4,1c-11.7,29.5,-35.1,52.9,-64.6,64.6l-1,.4h1Z" class="gk_337"/>
<path d="M451.6,150.4l.9,-2.1c11.9,-28.5,34.9,-51.1,63.7,-62.4l1,-.4H502.1c-21.7,11.4,-39.5,29.2,-50.9,50.9v15.1l.4,-1.1Z" class="gk_337"/>
<path d="M665.6,151.5V136.4C654.2,114.7,636.4,96.9,614.6,85.5h-15l1,.4c29.5,11.6,52.9,35,64.6,64.5l.4,1.1Z" class="gk_337"/>
<path d="M502.1,299.9H490.3c-15.7,-10,-29.1,-23.4,-39.1,-39.2V248.9l.6,1.2c11.2,20.8,28.4,38,49.2,49.2l1.1,.6Z" class="gl_337"/>
<path d="M626.4,299.9H614.6l1.2,-.6c20.8,-11.2,38,-28.4,49.2,-49.2l.6,-1.2v11.8c-10,15.7,-23.3,29.1,-39,39.1l-.2,.1Z" class="gl_337"/>
<path d="M451.2,136.4V124.6c10,-15.7,23.4,-29.1,39.1,-39.1h11.8l-1.1,.6c-20.8,11.2,-38,28.3,-49.2,49.2l-.6,1.1Z" class="gl_337"/>
<path d="M665.6,136.4l-.6,-1.1C653.8,114.4,636.6,97.3,615.8,86.1l-1.2,-.6h11.8c15.8,10,29.2,23.3,39.2,39.1v11.8Z" class="gl_337"/>
<path d="M490.3,299.9h-10l-1,-.7c-10.4,-7.8,-19.7,-17.1,-27.4,-27.5l-.7,-.9V260.7l.1,.2c10,15.6,23.2,28.9,38.9,38.9l.1,.1Z" class="gm_337"/>
<path d="M636.5,299.9H626.4l.2,-.1c15.7,-10,28.9,-23.3,38.9,-38.9l.1,-.2v10.1l-.7,.9c-7.7,10.4,-17,19.7,-27.5,27.5l-.9,.7Z" class="gm_337"/>
<path d="M451.2,124.6v-10l.7,-1c7.7,-10.4,17,-19.7,27.4,-27.4l1,-.7h10l-.1,.1c-15.7,10,-28.9,23.2,-38.9,38.9l-.1,.1Z" class="gm_337"/>
<path d="M665.6,124.6l-.1,-.1C655.5,108.8,642.3,95.6,626.6,85.6l-.2,-.1h10.1l.9,.7c10.5,7.7,19.8,17,27.5,27.4l.7,1v10Z" class="gm_337"/>
<path d="M470.7,299.3l.7,.6h8.9l-1,-.7c-10.4,-7.8,-19.7,-17.1,-27.4,-27.5l-.7,-.9v8.8c5.3,6.6,11.2,12.6,17.6,18.1l1.9,1.6Z" class="gn_337"/>
<path d="M637.4,299.9h8c7.4,-6,14.2,-12.8,20.2,-20.3v-8.8l-.7,.9c-7.7,10.4,-17,19.7,-27.5,27.5l-.9,.7h.9Z" class="gn_337"/>
<path d="M451.9,113.6l1.5,-1.9c7.4,-9.6,16.2,-18.3,25.9,-25.5l1,-.7h-8.9c-7.4,6,-14.2,12.8,-20.2,20.2v8.9l.7,-1Z" class="gn_337"/>
<path d="M665.6,114.6v-8.9c-6,-7.4,-12.8,-14.2,-20.2,-20.2h-8.9l.9,.7c10.5,7.7,19.8,17,27.5,27.4l.7,1Z" class="gn_337"/>
<path d="M471.4,299.9h-8L462,298.7c-3.3,-3.1,-6.5,-6.3,-9.6,-9.7l-1.2,-1.3v-8.1l.6,.8c5.7,6.9,12,13.2,18.9,18.9l.7,.6Z" class="go_337"/>
<path d="M653.4,299.9h-8l.7,-.6c6.9,-5.7,13.2,-12,18.9,-18.9l.6,-.8v8.1l-1.2,1.3c-3.1,3.4,-6.3,6.6,-9.6,9.7l-1.4,1.2Z" class="go_337"/>
<path d="M451.2,105.7v-8l1.2,-1.4c3.1,-3.3,6.3,-6.6,9.6,-9.6l1.4,-1.2h8l-.7,.6c-6.9,5.6,-13.2,12,-18.9,18.9l-.6,.7Z" class="go_337"/>
<path d="M665.6,105.7L665,105C659.3,98.1,653,91.7,646.1,86.1l-.7,-.6h8l1.4,1.2c3.3,3,6.5,6.3,9.6,9.6l1.2,1.4v8Z" class="go_337"/>
<path d="M455.5,299.5l.5,.4h7.4L462,298.7c-3.3,-3.1,-6.5,-6.3,-9.6,-9.7l-1.2,-1.3v7.4l.4,.4l1.8,1.8l.3,.4l1.8,1.8Z" class="g8_337"/>
<path d="M654.8,299.9h6c1.7,-1.6,3.2,-3.2,4.8,-4.8v-7.4l-1.2,1.3c-3.1,3.4,-6.3,6.6,-9.6,9.7l-1.4,1.2h1.4Z" class="g8_337"/>
<path d="M452.4,96.3l1,-1c2.7,-3,5.6,-5.9,8.6,-8.6l1.4,-1.2H456c-1.7,1.5,-3.3,3.1,-4.8,4.7v7.5l1.2,-1.4Z" class="g8_337"/>
<path d="M665.6,97.7V90.2C664,88.6,662.5,87,660.8,85.5h-7.4l1.4,1.2c3.3,3,6.5,6.3,9.6,9.6l1.2,1.4Z" class="g8_337"/>
<path d="M453.4,299.9H456l-.5,-.4l-1.8,-1.8l-.3,-.4l-1.8,-1.8l-.4,-.4v4.8h2.2Z" class="gp_337"/>
<path d="M661.3,299.9h4.3v-4.8l-.4,.4l-1.8,1.8l-.3,.4l-1.8,1.8l-.5,.4h.5Z" class="gp_337"/>
<path d="M451.6,89.8L453.4,88l.3,-.4l1.8,-1.7l.5,-.4h-4.8v4.7l.4,-.4Z" class="gq_337"/>
<path d="M665.6,90.2V85.5h-4.8l.5,.4l1.8,1.7l.3,.4l1.8,1.8l.4,.4Z" class="gp_337"/>
<path d="M481.4,302.7h.8v-2.8h-.8Z" class="g9_337"/>
<path d="M472.9,309.4h5v-.6h-5Z" class="g9_337"/>
<path d="M479.8,311h1.3v-4.5l-1.4,.3V306l1.4,-.2h.8V311h1.3v.6h-3.4V311Z" class="g9_337"/>
<path d="M484.8,311.6h.8v-1h-.8Z" class="g9_337"/>
<path d="M489,305.7c.7,0,1.2,.2,1.5,.7c.4,.6,.6,1.3,.6,2.3c0,1,-.2,1.7,-.6,2.3c-.3,.5,-.8,.7,-1.5,.7c-.6,0,-1.1,-.2,-1.5,-.7c-.3,-.6,-.5,-1.3,-.5,-2.3c0,-1,.2,-1.7,.5,-2.3c.4,-.5,.9,-.7,1.5,-.7Zm0,.6c-.4,0,-.7,.2,-.9,.6c-.2,.4,-.3,1,-.3,1.8c0,.8,.1,1.4,.3,1.8c.2,.4,.5,.6,.9,.6c.5,0,.8,-.2,1,-.6c.2,-.4,.3,-1,.3,-1.8c0,-.8,-.1,-1.4,-.3,-1.8c-.2,-.4,-.5,-.6,-1,-.6Z" class="g9_337"/>
<path d="M519.7,302.7h.8v-2.8h-.8Z" class="g9_337"/>
<path d="M511.2,309.4h5v-.6h-5Z" class="g9_337"/>
<path d="M519.6,305.7c.7,0,1.2,.2,1.5,.7c.4,.6,.6,1.3,.6,2.3c0,1,-.2,1.7,-.6,2.3c-.3,.5,-.8,.7,-1.5,.7c-.6,0,-1.1,-.2,-1.5,-.7c-.3,-.6,-.5,-1.3,-.5,-2.3c0,-1,.2,-1.7,.5,-2.3c.4,-.5,.9,-.7,1.5,-.7Zm0,.6c-.4,0,-.7,.2,-.9,.6c-.2,.4,-.3,1,-.3,1.8c0,.8,.1,1.4,.3,1.8c.2,.4,.5,.6,.9,.6c.4,0,.8,-.2,1,-.6c.2,-.4,.3,-1,.3,-1.8c0,-.8,-.1,-1.4,-.3,-1.8c-.2,-.4,-.6,-.6,-1,-.6Z" class="g9_337"/>
<path d="M523.1,311.6h.8v-1h-.8Z" class="g9_337"/>
<path d="M525.6,305.8h3.2v.6h-2.4v1.5l.3,-.1l.4,-.1c.6,0,1.1,.2,1.5,.6c.4,.3,.6,.8,.6,1.4c0,.7,-.2,1.2,-.6,1.5c-.4,.4,-1,.5,-1.7,.5c-.2,0,-.5,0,-.7,0c-.3,-.1,-.5,-.1,-.8,-.2v-.8c.2,.1,.5,.2,.7,.3c.3,0,.5,.1,.8,.1c.5,0,.8,-.1,1.1,-.4c.3,-.2,.4,-.5,.4,-1c0,-.4,-.1,-.7,-.4,-.9c-.3,-.3,-.6,-.4,-1.1,-.4c-.2,0,-.4,0,-.6,.1c-.2,0,-.4,.1,-.7,.2v-2.9Z" class="g9_337"/>
<path d="M558,302.7h.8v-2.8H558Z" class="g9_337"/>
<path d="M554.5,305.7c.7,0,1.2,.2,1.6,.7c.3,.6,.5,1.3,.5,2.3c0,1,-.2,1.7,-.5,2.3c-.4,.5,-.9,.7,-1.6,.7c-.6,0,-1.1,-.2,-1.5,-.7c-.3,-.6,-.5,-1.3,-.5,-2.3c0,-1,.2,-1.7,.5,-2.3c.4,-.5,.9,-.7,1.5,-.7Zm0,.6c-.4,0,-.7,.2,-.9,.6c-.2,.4,-.3,1,-.3,1.8c0,.8,.1,1.4,.3,1.8c.2,.4,.5,.6,.9,.6c.5,0,.8,-.2,1,-.6c.2,-.4,.3,-1,.3,-1.8c0,-.8,-.1,-1.4,-.3,-1.8c-.2,-.4,-.5,-.6,-1,-.6Z" class="g9_337"/>
<path d="M558,311.6h.8v-1H558Z" class="g9_337"/>
<path d="M562.2,305.7c.7,0,1.2,.2,1.5,.7c.4,.6,.6,1.3,.6,2.3c0,1,-.2,1.7,-.6,2.3c-.3,.5,-.8,.7,-1.5,.7c-.6,0,-1.1,-.2,-1.5,-.7c-.3,-.6,-.5,-1.3,-.5,-2.3c0,-1,.2,-1.7,.5,-2.3c.4,-.5,.9,-.7,1.5,-.7Zm0,.6c-.4,0,-.7,.2,-.9,.6c-.2,.4,-.3,1,-.3,1.8c0,.8,.1,1.4,.3,1.8c.2,.4,.5,.6,.9,.6c.4,0,.8,-.2,1,-.6c.2,-.4,.3,-1,.3,-1.8c0,-.8,-.1,-1.4,-.3,-1.8c-.2,-.4,-.6,-.6,-1,-.6Z" class="g9_337"/>
<path d="M596.3,302.7h.8v-2.8h-.8Z" class="g9_337"/>
<path d="M592.8,305.7c.7,0,1.2,.2,1.5,.7c.4,.6,.6,1.3,.6,2.3c0,1,-.2,1.7,-.6,2.3c-.3,.5,-.8,.7,-1.5,.7c-.6,0,-1.1,-.2,-1.5,-.7c-.3,-.6,-.5,-1.3,-.5,-2.3c0,-1,.2,-1.7,.5,-2.3c.4,-.5,.9,-.7,1.5,-.7Zm0,.6c-.4,0,-.7,.2,-.9,.6c-.2,.4,-.3,1,-.3,1.8c0,.8,.1,1.4,.3,1.8c.2,.4,.5,.6,.9,.6c.4,0,.8,-.2,1,-.6c.2,-.4,.3,-1,.3,-1.8c0,-.8,-.1,-1.4,-.3,-1.8c-.2,-.4,-.6,-.6,-1,-.6Z" class="g9_337"/>
<path d="M596.3,311.6h.8v-1h-.8Z" class="g9_337"/>
<path d="M598.8,305.8h3.1v.6h-2.3v1.5l.3,-.1l.3,-.1c.7,0,1.2,.2,1.6,.6c.4,.3,.6,.8,.6,1.4c0,.7,-.2,1.2,-.6,1.5c-.4,.4,-1,.5,-1.7,.5c-.2,0,-.5,0,-.7,0c-.3,-.1,-.5,-.1,-.8,-.2v-.8c.2,.1,.5,.2,.7,.3c.3,0,.5,.1,.8,.1c.5,0,.8,-.1,1.1,-.4c.3,-.2,.4,-.5,.4,-1c0,-.4,-.1,-.7,-.4,-.9c-.3,-.3,-.6,-.4,-1.1,-.4c-.2,0,-.4,0,-.6,.1c-.2,0,-.5,.1,-.7,.2v-2.9Z" class="g9_337"/>
<path d="M634.6,302.7h.7v-2.8h-.7Z" class="g9_337"/>
<path d="M629.6,311h1.3v-4.5l-1.5,.3V306l1.4,-.2h.8V311h1.3v.6h-3.3V311Z" class="g9_337"/>
<path d="M634.5,311.6h.9v-1h-.9Z" class="g9_337"/>
<path d="M638.8,305.7c.7,0,1.2,.2,1.5,.7c.4,.6,.5,1.3,.5,2.3c0,1,-.1,1.7,-.5,2.3c-.3,.5,-.8,.7,-1.5,.7c-.7,0,-1.2,-.2,-1.5,-.7c-.4,-.6,-.5,-1.3,-.5,-2.3c0,-1,.1,-1.7,.5,-2.3c.3,-.5,.8,-.7,1.5,-.7Zm0,.6c-.4,0,-.7,.2,-.9,.6c-.2,.4,-.3,1,-.3,1.8c0,.8,.1,1.4,.3,1.8c.2,.4,.5,.6,.9,.6c.4,0,.7,-.2,.9,-.6c.2,-.4,.3,-1,.3,-1.8c0,-.8,-.1,-1.4,-.3,-1.8c-.2,-.4,-.5,-.6,-.9,-.6Z" class="g9_337"/>
<path d="M448.4,269.6h2.8v-.7h-2.8Z" class="g9_337"/>
<path d="M426.8,270.1h5.1v-.7h-5.1Z" class="g9_337"/>
<path d="M433.7,271.6H435v-4.4l-1.4,.2v-.7l1.4,-.3h.8v5.2h1.3v.7h-3.4v-.7Z" class="g9_337"/>
<path d="M438.7,272.3h.9v-1h-.9Z" class="g9_337"/>
<path d="M443,266.3c.6,0,1.2,.3,1.5,.8c.3,.5,.5,1.3,.5,2.3c0,1,-.2,1.7,-.5,2.2c-.3,.6,-.9,.8,-1.5,.8c-.7,0,-1.2,-.2,-1.5,-.8c-.4,-.5,-.5,-1.2,-.5,-2.2c0,-1,.1,-1.8,.5,-2.3c.3,-.5,.8,-.8,1.5,-.8Zm0,.7c-.4,0,-.7,.2,-.9,.6c-.2,.4,-.3,1,-.3,1.8c0,.8,.1,1.4,.3,1.8c.2,.4,.5,.6,.9,.6c.4,0,.7,-.2,.9,-.6c.2,-.4,.3,-1,.3,-1.8c0,-.8,-.1,-1.4,-.3,-1.8c-.2,-.4,-.5,-.6,-.9,-.6Z" class="g9_337"/>
<path d="M448.4,231.3h2.8v-.7h-2.8Z" class="g9_337"/>
<path d="M426.8,231.8h5.1v-.6h-5.1Z" class="g9_337"/>
<path d="M435.3,228c.7,0,1.2,.3,1.5,.8c.4,.5,.5,1.3,.5,2.3c0,1,-.1,1.7,-.5,2.3c-.3,.5,-.8,.7,-1.5,.7c-.7,0,-1.2,-.2,-1.5,-.7c-.4,-.6,-.5,-1.3,-.5,-2.3c0,-1,.1,-1.8,.5,-2.3c.3,-.5,.8,-.8,1.5,-.8Zm0,.7c-.4,0,-.7,.2,-.9,.6c-.2,.4,-.3,1,-.3,1.8c0,.8,.1,1.4,.3,1.8c.2,.4,.5,.6,.9,.6c.4,0,.7,-.2,.9,-.6c.2,-.4,.3,-1,.3,-1.8c0,-.8,-.1,-1.4,-.3,-1.8c-.2,-.4,-.5,-.6,-.9,-.6Z" class="g9_337"/>
<path d="M438.7,234h.9v-1h-.9Z" class="g9_337"/>
<path d="M441.3,228.1h3.1v.7H442v1.5l.4,-.1l.3,-.1c.7,0,1.2,.2,1.6,.6c.4,.3,.6,.8,.6,1.4c0,.7,-.2,1.2,-.6,1.5c-.4,.4,-1,.5,-1.7,.5c-.2,0,-.5,0,-.8,0c-.2,-.1,-.5,-.1,-.7,-.2v-.8c.2,.1,.4,.2,.7,.3c.2,0,.5,.1,.8,.1c.4,0,.8,-.2,1.1,-.4c.2,-.2,.4,-.6,.4,-1c0,-.4,-.2,-.7,-.4,-.9c-.3,-.3,-.7,-.4,-1.1,-.4c-.2,0,-.4,0,-.7,.1c-.2,0,-.4,.1,-.6,.2v-3Z" class="g9_337"/>
<path d="M448.4,193.1h2.8v-.8h-2.8Z" class="g9_337"/>
<path d="M435.3,189.8c.7,0,1.2,.2,1.5,.7c.4,.6,.5,1.3,.5,2.3c0,1,-.1,1.8,-.5,2.3c-.3,.5,-.8,.8,-1.5,.8c-.7,0,-1.2,-.3,-1.5,-.8c-.4,-.5,-.5,-1.3,-.5,-2.3c0,-1,.1,-1.7,.5,-2.3c.3,-.5,.8,-.7,1.5,-.7Zm0,.6c-.4,0,-.7,.2,-.9,.6c-.2,.4,-.3,1,-.3,1.8c0,.8,.1,1.4,.3,1.8c.2,.4,.5,.6,.9,.6c.4,0,.7,-.2,.9,-.6c.2,-.4,.3,-1,.3,-1.8c0,-.8,-.1,-1.4,-.3,-1.8c-.2,-.4,-.5,-.6,-.9,-.6Z" class="g9_337"/>
<path d="M438.7,195.7h.9v-1h-.9Z" class="g9_337"/>
<path d="M443,189.8c.6,0,1.2,.2,1.5,.7c.3,.6,.5,1.3,.5,2.3c0,1,-.2,1.8,-.5,2.3c-.3,.5,-.9,.8,-1.5,.8c-.7,0,-1.2,-.3,-1.5,-.8c-.4,-.5,-.5,-1.3,-.5,-2.3c0,-1,.1,-1.7,.5,-2.3c.3,-.5,.8,-.7,1.5,-.7Zm0,.6c-.4,0,-.7,.2,-.9,.6c-.2,.4,-.3,1,-.3,1.8c0,.8,.1,1.4,.3,1.8c.2,.4,.5,.6,.9,.6c.4,0,.7,-.2,.9,-.6c.2,-.4,.3,-1,.3,-1.8c0,-.8,-.1,-1.4,-.3,-1.8c-.2,-.4,-.5,-.6,-.9,-.6Z" class="g9_337"/>
<path d="M448.4,154.8h2.8V154h-2.8Z" class="g9_337"/>
<path d="M435.3,151.5c.7,0,1.2,.2,1.5,.8c.4,.5,.5,1.2,.5,2.2c0,1,-.1,1.8,-.5,2.3c-.3,.5,-.8,.8,-1.5,.8c-.7,0,-1.2,-.3,-1.5,-.8c-.4,-.5,-.5,-1.3,-.5,-2.3c0,-1,.1,-1.7,.5,-2.2c.3,-.6,.8,-.8,1.5,-.8Zm0,.6c-.4,0,-.7,.2,-.9,.6c-.2,.4,-.3,1,-.3,1.8c0,.8,.1,1.4,.3,1.8c.2,.4,.5,.6,.9,.6c.4,0,.7,-.2,.9,-.6c.2,-.4,.3,-1,.3,-1.8c0,-.8,-.1,-1.4,-.3,-1.8c-.2,-.4,-.5,-.6,-.9,-.6Z" class="g9_337"/>
<path d="M438.7,157.5h.9v-1h-.9Z" class="g9_337"/>
<path d="M441.3,151.6h3.1v.6H442v1.5l.4,-.1h.3c.7,0,1.2,.1,1.6,.5c.4,.4,.6,.9,.6,1.5c0,.6,-.2,1.1,-.6,1.4c-.4,.4,-1,.6,-1.7,.6c-.2,0,-.5,-.1,-.8,-.1c-.2,0,-.5,-.1,-.7,-.2v-.8c.2,.1,.4,.2,.7,.3c.2,.1,.5,.1,.8,.1c.4,0,.8,-.1,1.1,-.4c.2,-.2,.4,-.5,.4,-.9c0,-.4,-.2,-.8,-.4,-1c-.3,-.2,-.7,-.4,-1.1,-.4c-.2,0,-.4,.1,-.7,.1c-.2,.1,-.4,.1,-.6,.2v-2.9Z" class="g9_337"/>
<path d="M448.4,116.5h2.8v-.8h-2.8Z" class="g9_337"/>
<path d="M433.7,118.5H435V114l-1.4,.3v-.7l1.4,-.3h.8v5.2h1.3v.7h-3.4v-.7Z" class="g9_337"/>
<path d="M438.7,119.2h.9v-1h-.9Z" class="g9_337"/>
<path d="M443,113.2c.6,0,1.2,.2,1.5,.8c.3,.5,.5,1.2,.5,2.2c0,1,-.2,1.8,-.5,2.3c-.3,.5,-.9,.8,-1.5,.8c-.7,0,-1.2,-.3,-1.5,-.8c-.4,-.5,-.5,-1.3,-.5,-2.3c0,-1,.1,-1.7,.5,-2.2c.3,-.6,.8,-.8,1.5,-.8Zm0,.6c-.4,0,-.7,.2,-.9,.6c-.2,.4,-.3,1,-.3,1.8c0,.8,.1,1.4,.3,1.8c.2,.5,.5,.7,.9,.7c.4,0,.7,-.2,.9,-.7c.2,-.4,.3,-1,.3,-1.8c0,-.8,-.1,-1.4,-.3,-1.8c-.2,-.4,-.5,-.6,-.9,-.6Z" class="g9_337"/>
<path d="M553,230.6v-.4c-4.6,-.7,-8.8,-2.1,-12.9,-4.3l-.1,.3l.2,-.3L538,224.6c-2.3,-1.5,-4.5,-3.2,-6.5,-5.2l-.2,.3l.3,-.2l-2,-2.2l-.1,-.2l-1.6,-1.9l-.6,-.9l-.9,-1.3l-1.2,-2.1l-.4,.2l.4,-.2c-2.2,-4.1,-3.6,-8.3,-4.3,-12.9l-.4,.1l.4,-.1l-.3,-2.1l-.1,-2.2v-2.1l.1,-2.1l.3,-2.2h-.4h.4c.7,-4.6,2.1,-8.8,4.3,-12.9l-.4,-.1l.4,.2l1.2,-2.2l.9,-1.3l.6,-.8l1.6,-2l.1,-.2l2,-2.1l-.3,-.3l.3,.3l-.3,-.3l.3,.3l2.1,-2l.2,-.2l2,-1.5l.8,-.6l1.3,-.9l2.2,-1.3l-.2,-.3l.1,.4c4.1,-2.3,8.3,-3.7,13,-4.4l-.1,-.3v.4l2.2,-.3l2.1,-.1h2.2l2.1,.1l2.2,.3v-.4l-.1,.3c4.6,.7,8.9,2.1,13,4.4l.1,-.4l-.2,.3l2.2,1.3l1.3,.9l.8,.6l2,1.5l.1,.2l2.2,2l.3,-.3l-.3,.3l.3,-.3l-.3,.3l2,2.1c1.7,2.1,3.2,4.2,4.5,6.5l.3,-.2l-.4,.1l1.1,2.2c1.6,3.3,2.7,7.1,3.2,10.7v.1l.4,-.1h-.4l.3,2.2l.1,2.1v2.1l-.1,2.2l-.3,2.1l.4,.1l-.4,-.1c-.5,3.7,-1.6,7.4,-3.2,10.8l-1.1,2.1l.4,.2l-.3,-.3c-1.3,2.3,-2.8,4.5,-4.5,6.5l-2,2.2l.3,.2l-.2,-.3c-2,2,-4.2,3.7,-6.5,5.2l-2.2,1.3l.2,.3l-.1,-.3c-4.1,2.2,-8.3,3.6,-12.9,4.3v.4v-.4l-2.2,.2l-2.1,.2h-2.2l-2.1,-.2l-2.2,-.2v.4v-.4v.4l-.1,.4l2.2,.2c6.7,.6,13.6,-.6,19.7,-3.5l2.2,-1.1l-.2,-.4l.1,.4c2.4,-1.3,4.6,-2.8,6.7,-4.6l2.1,-2l-.2,-.3l.1,.4c2.1,-2,3.9,-4.3,5.4,-6.7l1.3,-2.1l-.3,-.2l.2,.3c1.9,-3.5,3.3,-7.2,4.1,-11.1l.4,-2.1l-.4,-.1l.4,.1c.5,-3.7,.5,-7.4,0,-11h-.4h.4l-.4,-2.2c-.8,-3.8,-2.2,-7.6,-4.1,-11l-.2,.3l.3,-.2L591,171.9c-3.5,-5.5,-8.4,-10,-14.1,-13.2l-.1,.4l.2,-.3l-2.2,-1.1c-2.8,-1.3,-5.7,-2.3,-8.8,-2.9l-2.1,-.4l-.1,.4l.1,-.4c-3.6,-.5,-7.4,-.5,-11,0l.1,.4l-.1,-.4l-2.2,.4c-3,.6,-5.9,1.6,-8.7,2.9l-2.2,1.1l.2,.3l-.1,-.4c-22.7,12.6,-27.1,43,-8.7,61.4l.1,-.4l-.2,.3l2.1,2c2.1,1.8,4.3,3.3,6.7,4.6l.1,-.4l-.2,.4l2.2,1.1c3.4,1.6,7.2,2.7,10.9,3.3l.1,-.4Z" class="ga_337"/>
<path d="M514.1,223.1l-1.9,-3l-1.5,-2.7c-26,-53.6,37.3,-103.3,83.2,-65.1l2.1,2l2.2,2.2c38.4,44.6,-8.5,108.3,-62.4,85l-2.1,-1.1l-2,-1.1l-.4,.7l2,1.1c55,26.5,105.2,-38.7,65.4,-85.1l-2.1,-2.2l-.1,-.1l-2.1,-2c-19,-16.7,-47,-18.1,-67.6,-3.4l-2.5,1.8C504,166.4,498,194.6,510,217.8l1.5,2.7l2,3l.6,-.4Z" class="ga_337"/>
<path d="M553,258.8v-.4l-.4,-.1c-3.5,-.3,-7,-.9,-10.4,-1.7l-1.5,-.4h.1l-.7,-.2c-17.9,-5.2,-32.7,-17.6,-40.9,-34.3l-.4,.1l.4,-.1l-1,-2.1c-1.2,-2.8,-2.3,-5.7,-3.1,-8.6l-.2,-.7l-.4,-1.5l-.5,-2.1l-.5,-2.2l-.3,-2.1l-.3,-2.2l-.2,-1.8v-.3c-.3,-3.6,-.3,-7.2,0,-10.8v-.4l.2,-1.8l.3,-2.1l.3,-2.2l.5,-2.1l.5,-2.2l.4,-1.5l.2,-.6c.8,-3,1.9,-5.9,3.1,-8.6l1,-2.1v-.1c8.2,-16.7,23,-29.1,40.9,-34.3l.7,-.1h-.1l1.5,-.4c10.7,-2.7,21.7,-2.7,32.3,0l1.5,.4l.7,.1c16.2,4.7,30,15.4,38.5,30l.3,.4l.3,-.2l-.4,.1l1.1,1.9l1.1,2.1v.1l1,2.1l.9,2.1l.3,.7l.3,-.1l-.3,.1l.5,1.5l.8,2.1l.6,2.2l.2,.6l.4,1.5l.5,2.2l.4,2.1l.4,2.2l.3,2.1l.2,1.8v.4c.3,3.6,.3,7.2,0,10.8v.3l-.2,1.8l-.3,2.2l-.4,2.1l-.4,2.2l-.5,2.1l-.4,1.5l-.2,.7l-.6,2.1l-.8,2.2l-.5,1.5l.3,.1l-.3,-.1l-.3,.6c-6.1,15.1,-17.5,27.3,-32,34.5h-.1l-2.1,1c-2.8,1.2,-5.7,2.3,-8.6,3.1l-.7,.2l-1.5,.4c-6.3,1.6,-12.8,2.2,-19.3,1.9l-2.2,-.1v.4v-.4v.7l2.1,.2l2.2,.1c35.2,.5,64.6,-26.2,67.6,-61.3l.1,-2.2c1.7,-35.8,-25,-66.4,-60.8,-69.7h-.4l-2.1,-.1c-35.9,-1.7,-66.5,25,-69.7,60.7l-.1,.4c-2.8,36,23.1,67.5,58.9,71.7l1.7,.2h.5v-.3Z" class="ga_337"/>
<path d="M516.2,255.2l-3.7,-2.6l-2.1,-1.7l-2.2,-1.8C482.3,225.9,475.5,188.2,491.6,157.5l2.5,-4.3l1.3,-2.1c19.5,-29.4,56.6,-41.5,89.7,-29l4.2,1.8l4.3,2l4.3,2.5l2.1,1.3c29.4,19.5,41.4,56.6,29,89.7l-1.8,4.2l-2.1,4.3c-16.2,30.6,-51.1,46.4,-84.9,38L536,264.7l-4.3,-1.4l-1.2,-.5l-.8,2l1.2,.5h.1l4.3,1.5c35.8,11.1,74.3,-4.8,91.8,-37.8v-.1l2.1,-4.3c15.6,-34.9,3.8,-75.7,-28,-96.7L599,126.5L594.7,124h-.1c-35.4,-18.6,-78.9,-7.5,-101,25.8v.1l-1.4,2.1c-20.3,33.1,-13.1,75.9,16.8,100.6l2.1,1.7h.1l3.7,2.7l1.3,-1.8Z" class="g9_337"/>
<path d="M555.1,278.2l.1,-.4h-.1c-5.1,-.2,-10.1,-.8,-15,-1.9l-1,-.2l-1.2,-.3c-3.7,-.9,-7.2,-2,-10.8,-3.4l-1.4,-.6l-.7,-.3l-2.2,-1l-1.9,-.9l-.2,-.1L518.5,268l-1.7,-.9l-.2,.3l.2,-.3l-.4,-.3l-2.2,-1.3l-1,-.6l-1.2,-.7l-2.1,-1.5l-.2,.4l.2,-.3c-8.5,-5.9,-15.7,-13.2,-21.6,-21.6l-.3,.2l.3,-.2L486.9,239c-2.7,-4.1,-5,-8.4,-6.9,-12.9l-.3,-.7l-.6,-1.5c-1.4,-3.5,-2.5,-7.1,-3.4,-10.7l-.3,-1.2l-.2,-1c-2.7,-12.1,-2.7,-24.5,0,-36.7l.2,-.9l.3,-1.2l.5,-2.2l.7,-2.1l.6,-2.2l-.3,-.1l.3,.1l-.3,-.1l.3,.1l.8,-2.1l.8,-2.2l.6,-1.4l.3,-.7l1,-2.2l.9,-1.9l-.4,-.2l.4,.2l.1,-.3l1.1,-2.1l.9,-1.7l-.3,-.2l.3,.2l.3,-.5l1.2,-2.1l.7,-1.1l.7,-1.1l1.4,-2.1l-.3,-.3l.3,.3c5.4,-7.7,11.9,-14.5,19.4,-20l2.2,-1.6l-.2,-.3l.2,.3c3.4,-2.4,7,-4.5,10.8,-6.3l.2,-.2l1.9,-.9c4.9,-2.2,9.9,-4,15.1,-5.3l1.2,-.2l1,-.3c12.1,-2.6,24.5,-2.6,36.6,0l1,.3l1.2,.2c5.2,1.3,10.2,3.1,15.1,5.3l1.9,.9l.2,.2l2.2,1.1l1.7,.9l.4,.2l2.2,1.3l1,.7l.2,-.4l-.2,.4l1.1,.7l2.2,1.4l.2,-.3l-.2,.3l2.2,1.6c4.7,3.4,9,7.4,12.9,11.7l1.5,1.8l.3,-.2l-.3,.2l.6,.8l1.2,1.4l1,1.3l.6,.8l1.6,2.2l.3,-.3l-.4,.2h.1v.1l1.4,2.1l.7,1.1l.3,-.2l-.3,.2l.7,1.1l1.2,2.1l.3,.5l.9,1.7l1.1,2.2l.1,.2l.4,-.2l-.4,.2l.9,1.9l1,2.2l.3,.7l.3,-.2l-.3,.2l.6,1.4l.8,2.2l.7,2.1l.4,-.1l-.4,.1l.7,2.2l.7,2.1l.5,2.2l.3,1.2l.2,.9c2.7,12.2,2.7,24.6,0,36.7l-.2,1l-.3,1.2c-.9,3.6,-2,7.2,-3.4,10.7l-.6,1.5l.3,.1l-.3,-.1l-.3,.7l-1,2.2l-.9,1.9l.4,.1l-.4,-.1l-.1,.2l-1.1,2.2l-.9,1.7l-.3,.4l-1.2,2.2l-.7,1l.3,.2l-.3,-.2l-.7,1.1l-1.4,2.2h-.1l.4,.2l-.3,-.2l-1.6,2.1l-.6,.9l.3,.2l-.3,-.2l-1,1.3l.3,.2l-.3,-.2l-1.2,1.4c-1.4,1.7,-2.9,3.4,-4.5,5.1l-1.9,1.9l.2,.3l-.2,-.3l-.2,.2c-3.3,3.2,-6.9,6.1,-10.6,8.7l.2,.3l-.2,-.4l-2.2,1.5l-1.1,.7l-1,.6l-2.2,1.3l-.4,.3l.2,.3l-.2,-.3l-1.7,.9l-2.2,1.1l-.2,.1l.1,.4l-.1,-.4l-1.9,.9l-2.2,1l-.7,.3l-1.4,.6c-3.6,1.4,-7.1,2.5,-10.8,3.4l-1.2,.3l-1,.2c-6.4,1.4,-12.9,2.1,-19.4,2l-2.1,-.1l-.1,.4l.1,-.4l-.1,.4v.4l2.2,.1c68.8,.3,110.3,-74.5,73.2,-132.8l-1.4,-2.2l-.3,.2l.3,-.1v-.1C623.2,135.2,615.9,127.9,607.3,122l-.2,.3l.2,-.3l-2.1,-1.5c-28.5,-18.4,-65.1,-18.4,-93.6,0l-2.1,1.5h-.1c-7.7,5.4,-14.5,11.9,-20.1,19.6l-1.6,2.1l.3,.2l-.3,-.2c-20.4,29.5,-20.4,68.4,0,97.9l.3,-.2l-.3,.2l1.6,2.2c15.5,21,39.7,33.8,65.8,34.8v-.4Z" class="ga_337"/>
<path d="M616,119.1l1.7,1.4l2.4,2.1l4.1,3.8c30.6,30.5,36.4,77.9,14,114.8l-2.8,4.3l-2.6,3.6c-26.7,35.2,-74.3,46.9,-114.3,28l-4.3,-2.2l-4.3,-2.4l-4.4,-2.8L502,267.1C466.8,240.3,455.1,192.7,474,152.8l2.1,-4.3l2.5,-4.4c23,-37.8,69.3,-54.2,111.1,-39.4l4.3,1.6l4.3,1.9l3.6,1.9l.4,-.7l-3.7,-1.8v-.1l-4.3,-1.9C551.3,88,502.1,104.1,478,143.7l-.1,.1l-2.4,4.3c-22,40.9,-11,91.5,26,119.6l3.6,2.6l4.4,2.8c41.3,25.1,94.6,14.9,123.9,-23.5L636,246c27,-39.4,20.4,-92.4,-15.4,-124l-2.4,-2.1l-1.8,-1.4l-.4,.6Z" class="ga_337"/>
<path d="M548.6,293.5l.1,-.4l-1.1,-.1c-4,-.4,-8,-1.1,-11.9,-2l-.7,-.2l-1.4,-.3c-3.7,-.9,-7.3,-2.1,-10.8,-3.4l-1.5,-.6l-.7,-.2c-2.9,-1.2,-5.8,-2.5,-8.6,-4l-.1,-.1l-2,-1.1l-2,-1l-.2,-.2l-2.2,-1.3l-1.1,-.7l-.2,.3l.2,-.3l-1,-.6l-2.2,-1.5l-.1,-.1l-2,-1.4l-1,-.7l-1.2,-.9l-1.6,-1.3l-.6,-.4l-2,-1.7l-.3,.3l.3,-.3l-.1,-.1c-2.4,-2,-4.6,-4.2,-6.8,-6.4l-1.8,-2l-.2,-.2c-2.5,-2.7,-4.8,-5.6,-7,-8.6l-1.5,-2l-.1,-.1c-1.9,-2.8,-3.7,-5.7,-5.3,-8.7l-1,-2l-.1,-.1l-1.1,-2.2l-1,-2.1v-.1l-.4,.2l.4,-.1l-1,-2.2l-.9,-2.2l-.3,-.7v.1l-.5,-1.5c-1.4,-3.6,-2.5,-7.1,-3.4,-10.8l-.4,-1.5l-.1,-.7C457.6,204.7,456.9,193.8,458,183l.1,-1.2l.1,-1c.4,-3.6,1,-7.2,1.9,-10.8l.1,-.7l.4,-1.4l.6,-2.2l.6,-2.2l.6,-1.9l.1,-.2l.7,-2.2l.8,-2.1l.5,-1.5l.3,-.7c1.2,-2.9,2.5,-5.8,4,-8.6l.1,-.2l1,-2l1.1,-1.9l.1,-.2l1.3,-2.2l.8,-1.2l-.3,-.2l.3,.2l.6,-.9c1.4,-2.3,3,-4.4,4.6,-6.5l1.2,-1.6l-.3,-.3l.3,.3l.5,-.6l1.7,-2l.1,-.1l1.9,-2.2l.2,-.2l1.8,-1.9c2.2,-2.3,4.4,-4.4,6.8,-6.4l.1,-.1l2,-1.7l.6,-.5l1.6,-1.2l1.2,-.9l1,-.7l2,-1.5l.1,-.1l2.2,-1.4l1,-.6l1.1,-.8l2.2,-1.3l.2,-.1l2,-1.1l1.9,-1.1h.2l2.2,-1.1l2.1,-1l2.2,-1l2.1,-.9l.7,-.3l1.5,-.5l2.2,-.8l2.1,-.8h.2l2,-.6l2.1,-.7l2.2,-.5l1.4,-.4l.7,-.2c10.7,-2.4,21.5,-3.1,32.4,-2.1l1.1,.2l1.1,.1c3.6,.4,7.2,1,10.7,1.8l.8,.2l1.4,.4l2.2,.5l2.1,.7l2,.6h.2l2.1,.8l2.2,.8l1.5,.5l.6,.3c3.7,1.5,7.3,3.2,10.8,5.1l2,1.1l.2,.1l2.2,1.3l1.1,.8l.2,-.4l-.2,.4l1,.6c3,1.9,5.9,4,8.6,6.3l2.1,1.7l.1,.1c3.8,3.3,7.4,6.9,10.7,10.7l.1,.1l1.7,2l.4,.6l1.3,1.6l.9,1.2l.3,-.3l-.3,.3l.7,.9l1.5,2.1v.1l1.5,2.2l.6,.9l.3,-.2l-.3,.2l.7,1.2l1.3,2.2l.2,.2l1.1,1.9l1,2l.4,-.1l-.4,.1l.1,.2l.3,-.2l-.3,.2l1.1,2.1l1,2.1v.1l1,2.2l.9,2.1l.2,.7l.6,1.5l.8,2.1l.7,2.2l.1,.2l.6,1.9l.6,2.2l.6,2.2l.4,1.4l.1,.7c.8,3.6,1.5,7.2,1.9,10.8l.1,1l.1,1.2c1.1,10.8,.4,21.7,-2.1,32.3l-.1,.7l-.4,1.5l-.6,2.1l-.6,2.2l-.6,1.9l-.1,.3l-.7,2.1l.4,.1l-.4,-.1l-.8,2.2l.4,.1l-.4,-.1l-.6,1.5v-.1l-.2,.7l-.9,2.2l.3,.1l-.3,-.1l-1,2.1v.1l-1,2.1l-1.1,2.2l.3,.1l-.3,-.1l-.1,.1l-1,2l-1.1,2l-.2,.2l-1.3,2.1l-.7,1.2l.3,.2l-.3,-.2l-.6,1l-1.5,2.1v.2l-1.5,2l.3,.2L640,252l-.7,1l.3,.2l-.3,-.2l-.9,1.2l.3,.2l-.3,-.2l-1.3,1.6l-.4,.5l-1.7,2.1l-.1,.1l-1.9,2.1l-.2,.2l.3,.3l-.3,-.3l-1.8,2l.2,.3l-.2,-.3l-.3,.3l-1.9,1.9l.3,.2l-.3,-.2l-.3,.2l-2,1.9l-.1,.2l.2,.2l-.2,-.2l-2.2,1.9l.2,.3l-.2,-.3l-.1,.1l.2,.3l-.2,-.3L622,271l.3,.3L622,271l-.5,.4l.2,.3l-.2,-.3l-1.6,1.3l.2,.3l-.2,-.3l-1.2,.9l.2,.3l-.2,-.3l-1,.7l-2,1.4l.2,.3l-.2,-.3l-.1,.1c-2.8,1.9,-5.7,3.7,-8.7,5.3l-2,1.1l-.1,.1c-2.9,1.5,-5.7,2.8,-8.7,4l-.6,.2l-1.5,.6c-3.5,1.3,-7.1,2.4,-10.8,3.4l-1.4,.3l-.8,.2c-9.9,2.3,-20,3.1,-30.2,2.3l-2.1,-.2l-.1,.4l.1,-.4l-.1,.4v.4l2.2,.2l2.2,.1c55.3,2.8,102.5,-38.7,106.8,-93.9l.1,-2.2C662.7,144,623.1,97.5,569.3,91.6l-1.1,-.1L566,91.3c-54.8,-4,-102.7,35.9,-108.7,90.5l-.1,1.1C452,238.1,491.5,287,546.4,293.6l1.1,.2l1.1,.1v-.4Z" class="ga_337"/>
<path d="M543.2,299.5l-1,-.1c-5.9,-.9,-11.6,-2.3,-17.3,-4.1l-.2,-.1l-1.9,-.7l-2.2,-.7l-1.9,-.8l-.2,-.1l-2.2,-.9l-2.1,-.9l-.5,-.2l-1.7,-.8L509.8,289l-.6,-.3l-1.5,-.8l-2.2,-1.2l-.3,-.2v.1l-1.8,-1.1l-1.9,-1.1l-.3,-.2L499,282.8l-.8,-.6l-.2,.3l.2,-.3l-1.3,-.9c-12,-8.3,-22.3,-19,-30,-31.4l-.2,-.4l-.3,.2l.3,-.2l-1.1,-1.8l-1.1,-1.8l-.2,-.4l-1.1,-2.1l-.8,-1.5l-.4,.1l.4,-.1l-.4,-.7l-1,-2.1l-.8,-1.7l-.2,-.5l-1,-2.1l-.9,-2.2l-.1,-.3l-.7,-1.9l-.8,-2.1l-.6,-1.9l-.1,-.3l-.7,-2.1l-.6,-2.2l-.6,-2.1l-.2,-.8l-.3,-1.4l-.5,-2.2l-.4,-2.1l-.4,-2.2l-.4,-2.1l-.1,-1l-.8,.1l.2,1c7.1,47.1,44,83.9,91.1,91.1l1,.1l.1,-.7Z" class="ga_337"/>
<path d="M665.2,207.9l-.1,1l-.4,2.1l-.4,2.2l-.4,2.1l-.5,2.2l-.3,1.4l-.2,.8h.3l-.3,-.1l-.6,2.2l.4,.1l-.4,-.1l-.6,2.2l-.7,2.1l-.1,.3l-.7,1.9l-.7,2.1l-.8,1.9l-.1,.3l.4,.1l-.4,-.1l-.9,2.2l-.9,2.1l-.2,.5l-.8,1.7l.4,.1l-.4,-.1l-1,2.1l-.4,.7l-.8,1.5l-1.1,2.1l-.2,.4l-1.1,1.8l-1.1,1.8l-.2,.4l-1.4,2.1l-.6,.9l.4,.2l-.3,-.2l-1,1.3l-1.2,1.8l.3,.2l-.3,-.2l-.3,.3l-1.6,2.2l.3,.2l-.3,-.2l-.3,.3l.3,.3l-.3,-.3l-1.4,1.9l-.7,.8l-1.1,1.3l-1.1,1.2l.3,.3l-.3,-.3l-.8,1l-1.3,1.4l.2,.3l-.2,-.3l-.7,.7l-1.5,1.6l-.6,.6l-1.6,1.5l-.7,.6l-1.4,1.4l.2,.3l-.2,-.3l-.9,.8l-1.3,1.1l.3,.3l-.3,-.3l-1.3,1.1l.3,.2l-.3,-.2l-.8,.7l.2,.3l-.2,-.3l-1.9,1.4l.3,.3l-.2,-.3l-.4,.3l-2.1,1.6l-.4,.3l.2,.3l-.2,-.3l-1.8,1.2l-1.3,.9l.2,.3l-.2,-.3l-.9,.6l-2.1,1.4l.2,.3l-.2,-.3l-.4,.2l.2,.3l-.2,-.3l-1.8,1.1l-1.8,1l-.3,.2l-2.2,1.2l-1.5,.8l-.7,.3l-2.1,1.1l-1.7,.8l-.5,.2l-2.1,.9l-2.2,.9l-.2,.1l-1.9,.8l-2.2,.7l-1.9,.7l-.3,.1c-5.6,1.8,-11.3,3.2,-17.2,4.1l-1,.1l.1,.7l1,-.1c47.1,-7.2,83.9,-44,91.1,-91.1l.2,-1l-.8,-.1Z" class="ga_337"/>
<path d="M451.6,177.5l.1,-1l.4,-2.2l.4,-2.1l.4,-2.2l.5,-2.1l.3,-1.5l.2,-.7l.6,-2.2l.6,-2.1l.7,-2.2l.1,-.2l.6,-1.9l.8,-2.2L458,153l.1,-.2l.9,-2.2l1,-2.2l.2,-.5l.8,-1.6l1,-2.2l.4,-.6l.8,-1.5l1.1,-2.2l.2,-.3l-.3,-.2l.3,.2l1.1,-1.9l1.1,-1.8l-.3,-.2l.3,.2l.2,-.3l1.4,-2.2l.5,-.8l-.3,-.2l.3,.2l.9,-1.3l1.3,-1.8l-.3,-.2l.3,.2l.3,-.4c7,-9.7,15.7,-18.2,25.6,-25l1.3,-.9l-.2,-.3l.2,.3l.8,-.5l2.2,-1.4l.3,-.2l1.9,-1.1l1.8,-1.1l.3,-.2l2.2,-1.2l1.5,-.8l.6,-.3l2.2,-1l1.7,-.8l.5,-.2l2.1,-1l2.2,-.9l.2,-.1l1.9,-.7l2.2,-.8l1.9,-.6l.2,-.1l2.2,-.7l2.2,-.6l2.1,-.6l.8,-.2l1.4,-.3l2.1,-.5l2.2,-.5l2.1,-.4l2.2,-.3l1,-.1l-.1,-.8l-1,.1c-47.1,7.2,-84,44.1,-91.1,91.2l-.2,.9l.8,.2Z" class="ga_337"/>
<path d="M573.6,85.9l1,.1l2.1,.3l2.2,.4l2.2,.5l2.1,.5l1.4,.3l.8,.2l2.1,.6l2.2,.6l2.1,.7l.3,.1l1.9,.6l2.2,.8l1.9,.7l.2,.1l2.2,.9l2.1,1l.5,.2l1.7,.8l2.1,1l.7,.3l1.5,.8l2.2,1.2l.3,.2l1.8,1.1l1.8,1.1l.2,-.4l-.2,.4l.4,.2l.2,-.3l-.2,.3l2.1,1.4l.9,.5l.2,-.3l-.2,.3l1.3,.9l1.8,1.3l.4,.3l2.1,1.6l.4,.2l.2,-.3l-.3,.3l1.9,1.5c2.8,2.2,5.4,4.6,8,7.2l.6,.6l.3,-.3l-.3,.3l1.5,1.5l.7,.7l.2,-.2l-.2,.2l1.3,1.5l.8,.9l1.1,1.2l1.1,1.3l.3,-.2l-.3,.2l.7,.9l1.4,1.8l.3,-.2l-.3,.2l.3,.4l1.6,2.1l.3,.4l.3,-.2l-.3,.2l1.2,1.8l.9,1.3l.6,.8l1.4,2.2l.2,.3l1.1,1.8l1.1,1.9l.3,-.2l-.3,.2l.2,.3l1.1,2.2l.8,1.5l.4,.6l1,2.2l.4,-.2l-.4,.2l.8,1.6l.2,.5l.9,2.2l.9,2.2l.1,.2l.8,1.9l.7,2.2l.7,1.9l.1,.2l.7,2.2l.6,2.1l.6,2.2l.2,.7l.3,1.5l.5,2.1l.4,2.2l.4,2.1l.4,2.2l.1,1l.8,-.2l-.2,-.9c-7.2,-47.1,-44,-84,-91.1,-91.2l-1,-.1l-.1,.8Z" class="ga_337"/>
<path d="M517.3,299.5l-1,-.4c-2.9,-1.1,-5.8,-2.4,-8.6,-3.8l-.2,-.1l-2,-1l-2.1,-1.1l-.1,-.1l-2.1,-1.2l-1.6,-.9l-.6,-.3l-2.1,-1.4l-.8,-.5l-1.4,-.9c-5.3,-3.6,-10.4,-7.6,-15.1,-12.1l-2.2,-2.1l-.2,.3l.3,-.3c-2.8,-2.7,-5.4,-5.6,-7.8,-8.6l-.9,-1.1l-.3,.3l.3,-.3l-.9,-1.1l-1.2,-1.7l-.3,.3l.3,-.3l-.4,-.4l-1.6,-2.2l-.2,-.3l-1.2,-1.9l-1,-1.4l-.4,-.7L460.5,252l-.3,-.5l-1,-1.6L458,247.7l-1.1,-2.1l-1,-2l-.1,-.2l-1.1,-2.2l-1,-2.1V239l-.9,-2.1l-.9,-2.1l-.4,-1l-.7,.2l.4,1c5.4,13.7,13.5,26.3,23.6,37l2.1,2.1l.3,-.2l-.3,.2c11.1,11.2,24.5,20,39.1,25.7l1,.4l.3,-.7Z" class="ga_337"/>
<path d="M665.2,233.8l-.4,1l.4,.1l-.4,-.1l-.8,2.1l.3,.2l-.3,-.2l-.9,2.1l.3,.1l-.3,-.1l-.1,.1l.4,.1l-.4,-.1l-1,2.1l-1,2.2l-.1,.2l-1,2l-1.1,2.1l-1.3,2.2l-.9,1.6l-.3,.5l-1.4,2.2l-.5,.7l-.9,1.4l-1.2,1.9l.3,.2l-.3,-.2l-.3,.3l-1.5,2.2l.3,.2l-.3,-.2l-.4,.4l.3,.3l-.3,-.3l-1.3,1.7l.3,.3l-.2,-.3l-.9,1.1l.3,.3l-.3,-.3l-.9,1.1l-1.3,1.6l-.5,.5l.3,.3l-.3,-.3l-1.7,2l.3,.2l-.3,-.2l-.2,.2l.3,.3l-.3,-.3l-1.9,2.1l-.1,.1l-2.1,2.1l.3,.3l-.3,-.3l-2.1,2.1l-.1,.1l-2.1,1.9l.3,.3l-.3,-.3l-.2,.2l.2,.3l-.2,-.3l-1.9,1.7l-.6,.5l-1.6,1.3l.2,.3l-.2,-.3l-1,.9l.2,.2l-.2,-.3l-1.2,.9l-1.6,1.3l.2,.3l-.2,-.3l-.5,.4l-2.2,1.5l-.3,.3l.2,.3l-.2,-.3l-1.8,1.2l.2,.3l-.2,-.3l-1.4,.9l-.8,.5l-2.2,1.4l-.5,.3l-1.6,.9l-2.2,1.2v.1l-2.1,1.1l-2,1l-.2,.1l-2.1,1l-2.2,1l-.1,.1l-2.1,.8l-2.1,.9l-1,.4l.2,.7l1.1,-.4c7.1,-2.8,13.9,-6.3,20.3,-10.4l1.4,-1c6.2,-4.1,12.1,-8.9,17.4,-14.2v-.1l-.3,-.2l.3,.2L642,272v-.1l2,-2.1c9.2,-10.2,16.5,-22,21.6,-34.8l.3,-1l-.7,-.2Z" class="ga_337"/>
<path d="M451.5,151.6l.4,-1l.9,-2.2l.9,-2v-.1l1,-2.2l1.1,-2.1l.1,-.2l1,-2l-.4,-.2l.4,.2l1.1,-2.2l1.2,-2.1l1,-1.6l.3,-.6l1.4,-2.1l.4,-.8l-.3,-.2l.3,.2l1,-1.4l1.2,-1.8l.2,-.4l1.6,-2.1l.4,-.5l-.3,-.2l.3,.2l1.2,-1.7l.9,-1.1l-.3,-.2l.3,.2l.9,-1l1.3,-1.6l.5,-.6l1.6,-1.9l.2,-.2l2,-2.2l-.3,-.2l.3,.2l2.1,-2.2h.1l-.3,-.2l.2,.2l2.2,-2.1h.1l2.1,-2l.2,-.2l1.9,-1.7l-.2,-.3l.2,.3l.6,-.4l-.3,-.3l.3,.3l1.6,-1.4c2.1,-1.7,4.2,-3.3,6.5,-4.9l.3,-.2l1.8,-1.2l1.4,-1l.8,-.5L499,94.8l.6,-.3l1.6,-1l2.1,-1.2h.1l2.1,-1.1l2,-1.1h.2L509.8,89L512,88h.1l2,-.9l2.2,-.9l1,-.4l-.3,-.7l-1,.4c-14.6,5.8,-28,14.6,-39.1,25.7l.3,.3l-.3,-.3l-2.1,2.2c-4.5,4.7,-8.6,9.8,-12.2,15.2l-.9,1.4c-4.1,6.4,-7.7,13.2,-10.5,20.3l-.4,1l.7,.3Z" class="ga_337"/>
<path d="M599.5,85.8l1,.4c2.9,1.2,5.8,2.5,8.6,3.9h.2l2,1.1l2.1,1.1l2.2,1.2l1.6,1l.5,.3l2.2,1.3l.8,.5l1.4,1l1.8,1.2l.3,.2l2.2,1.6l.2,-.3l-.2,.3l.5,.3l.2,-.3l-.2,.3l1.6,1.3l1.2,.9l.2,-.3l-.2,.3l1,.8l1.6,1.4l.2,-.3l-.2,.3l.6,.4l1.9,1.7l.2,.2l2.1,2l.3,-.3l-.3,.3h.1l2.1,2.1l.3,-.2l-.3,.2l2.1,2.2h.1l1.9,2.2l.3,-.3l-.3,.3l.2,.2l.3,-.3l-.3,.3l1.7,1.9l.5,.6l1.3,1.6l.9,1l.3,-.2l-.3,.2l.8,1.1l.3,-.2l-.3,.2l1.3,1.7l.3,-.2l-.3,.2l.4,.5l1.5,2.1l.3,.4l.3,-.2l-.3,.2l1.2,1.8l.9,1.4l.4,-.2l-.4,.2l.5,.8l1.4,2.1l.3,.6l.9,1.6l1.3,2.1l1.1,2.2l.3,-.2l-.3,.2l1,2l.1,.2l.4,-.2l-.4,.2l1,2.1l1,2.2l.4,-.2l-.4,.2l.1,.1l.3,-.2l-.3,.2l.9,2l.8,2.2l.4,1l.7,-.3l-.3,-1C660.1,136.6,652.1,124.1,642,113.4l-2.1,-2.2l-.3,.3l.3,-.3C632.8,104.1,624.7,97.9,616,92.9l-2.2,-1.3c-4.2,-2.3,-8.6,-4.3,-13,-6.1l-1.1,-.4l-.2,.7Z" class="ga_337"/>
<path d="M502.3,299.5l-1.1,-.6L499,297.7l-.6,-.3l-1.5,-.9l-2.1,-1.3h-.1l-2.2,-1.4l-1.1,-.7l-1,-.7c-3.6,-2.5,-7.1,-5.2,-10.4,-8l-.4,-.3l-.3,.3l.3,-.3l-2.1,-1.8l-.1,-.1l-2.1,-2l-.1,-.1l-2.1,-2L473,278l-2,-2.1l-.1,-.1c-3.9,-4.1,-7.4,-8.4,-10.7,-13l-1.5,-2.1l-.7,-1l-.7,-1.2l-1.4,-2.1v-.1l-1.3,-2.1l-.9,-1.5l-.4,-.7l-1.2,-2.1l-.6,-1.1l-.6,.3l.6,1.1c.7,1.5,1.6,3,2.4,4.4l1.3,2.1v.1c11.2,18,26.9,32.8,45.6,42.8l1.2,.6l.3,-.7Z" class="ga_337"/>
<path d="M665.3,248.8l-.6,1.1l-1.2,2.1l.3,.2l-.3,-.2l-.4,.7l-.9,1.5l.3,.2l-.3,-.2l-1.3,2.1v.1l-1.4,2.1l-.7,1.2l-.7,1l-1.5,2.1L655,265l-.5,.7l.3,.2l-.3,-.2l-1.1,1.5l-1.1,1.3l.3,.2l-.3,-.2l-.7,.8l.3,.3l-.3,-.3l-1.5,1.8l.3,.2l-.3,-.2l-.3,.4l-1.8,2l-.1,.1l-2,2.2l-.1,.1l-2,2.1l-.1,.1l-2.1,2l-.1,.1l-2.2,2l.3,.3l-.3,-.3v.1c-2.6,2.2,-5.2,4.4,-7.9,6.4l-.7,.6l.2,.3l-.2,-.3l-2.1,1.6h-.1l-2.1,1.5l-1,.7l-1.2,.7l.2,.3l-.2,-.3l-2.1,1.4H622l-2.1,1.3l-1.5,.9l-.6,.3l-2.2,1.2l-1.1,.6l.3,.7l1.2,-.6c18.6,-10,34.4,-24.8,45.6,-42.8v-.1l1.3,-2.1c.8,-1.4,1.6,-2.9,2.4,-4.4l.6,-1.1l-.6,-.3Z" class="ga_337"/>
<path d="M451.5,136.6l.6,-1.1l1.2,-2.2l.4,-.6l.9,-1.5l1.3,-2.2l1.4,-2.2l.7,-1.1l.7,-1l1.5,-2.1v-.1l1.6,-2.1l.5,-.8l-.3,-.2l.3,.2l1.1,-1.4l1.1,-1.3l.7,-.9l1.4,-1.7l-.2,-.3l.2,.3l.4,-.4l-.3,-.3l.3,.3l1.8,-2.1l.1,-.1l2,-2.1l.1,-.1l2,-2.1l.1,-.1l2.1,-2.1h.1l2.1,-2l.1,-.1l2.1,-1.8l.4,-.4l1.8,-1.4l.8,-.7l1.3,-1.1l1.5,-1.1l-.3,-.3l.2,.3l.8,-.5l2.1,-1.6h.1L490.4,93l1,-.7l1.1,-.8l2.2,-1.3l.1,-.1l2.1,-1.2l1.5,-.9l.6,-.4l2.2,-1.2l1.1,-.6l-.3,-.7l-1.2,.6c-18.7,10.1,-34.4,24.9,-45.6,42.9l-1.3,2.2c-.8,1.4,-1.7,2.8,-2.4,4.3l-.6,1.1l.6,.4Z" class="ga_337"/>
<path d="M614.5,85.8l1.1,.6l2.2,1.2l.6,.4l1.5,.9l2.1,1.2l.1,.1l.2,-.4l-.2,.4l2.1,1.3l1.2,.8l1,.7l2.1,1.5h.1c2.2,1.6,4.3,3.2,6.4,5l1.8,1.4l.2,-.3l-.2,.3l.4,.4l2.1,1.8v.1l2.2,2h.1l2.1,2.1l.1,.1l2,2.1l.1,.1l2,2.1l.1,.1l1.8,2.1l.3,.4l.3,-.3l-.3,.3l1.5,1.7l.7,.9l.3,-.3l-.3,.3l1.1,1.3l1.1,1.4l.3,-.2l-.3,.2l.5,.8l.3,-.3l-.3,.3l1.6,2.1v.1l1.5,2.1l.7,1l.7,1.1l1.4,2.2l1.3,2.1l.9,1.6l.4,.6l1.2,2.2l.3,-.2l-.3,.2l.6,1.1l.6,-.4l-.6,-1.1c-.8,-1.5,-1.6,-2.9,-2.4,-4.3l-1.3,-2.2C650.4,110.6,634.6,95.8,616,85.7l-1.2,-.6l-.3,.7Z" class="ga_337"/>
<path d="M490.5,299.6l-.1,-.1L488.2,298l-.9,-.6l-1.2,-.8l-1.9,-1.4l-.3,-.2l-2.2,-1.6l-.4,-.3l-1.7,-1.4l-1,-.8l-.3,.3l.3,-.3l-1.2,-.9L476,288.8l-.7,-.6l-1.8,-1.6l-.4,-.4l-.2,.3l.2,-.3l-1.9,-1.8l-.3,-.2l-.2,.3l.3,-.3l-2,-1.9l-.2,-.2l-1.9,-2c-2.7,-2.7,-5.2,-5.6,-7.6,-8.6L458,269.8l-.4,-.5L456,267.2l-.2,-.3L454.5,265l-.8,-1.2l-.7,-1l-1.4,-2.1l-.1,-.2l-.6,.4l.1,.2c10,15.7,23.3,29,39,39l.1,.1l.4,-.6Z" class="ga_337"/>
<path d="M665.3,260.5l-.1,.2l-1.4,2.1l.3,.3l-.3,-.3l-.7,1l.3,.2l-.3,-.2l-.8,1.2l.3,.2l-.3,-.2l-1.4,1.9h.1l-.2,.3l.3,.2l-.3,-.2l-1.7,2.1l.3,.3l-.3,-.3l-.3,.5l-1.3,1.7l.3,.2l-.3,-.2l-.9,1l.3,.3l-.3,-.3l-.9,1.1l-1.2,1.5l.3,.2l-.3,-.2l-.6,.7l.3,.2l-.3,-.2l-1.6,1.8l.3,.2l-.3,-.2l-.4,.4l-1.7,1.9l.2,.2l-.2,-.2l-.3,.2l.3,.3l-.3,-.3l-1.9,2l.3,.3l-.3,-.3l-.2,.2l.3,.2l-.3,-.2l-2,1.9l.3,.3l-.3,-.3l-.2,.2l.3,.3l-.3,-.3l-1.9,1.8l-.4,.4l-1.8,1.6l-.7,.6l.3,.2l-.3,-.2l-1.4,1.2l-1.2,.9l.3,.3l-.3,-.3l-1,.8l-1.7,1.4l.2,.3l-.2,-.3l-.5,.3l-2.1,1.6l.2,.3l-.2,-.3l-.3,.2l.2,.3l-.2,-.3l-1.9,1.4l-1.2,.8l-.9,.6l-2.2,1.5v-.1l-.2,.2l.5,.6l.1,-.1c15.7,-10,29,-23.3,39,-39l.1,-.2l-.6,-.4Z" class="ga_337"/>
<path d="M451.5,124.8l.1,-.1l1.4,-2.2l.7,-1l.8,-1.2l1.3,-1.8l.2,-.3l1.6,-2.2l.4,-.4l1.3,-1.7l.9,-1.1l-.3,-.2l.3,.2l.9,-1.1c1.8,-2.2,3.8,-4.4,5.8,-6.5l1.9,-2l.2,-.1l1.9,-2l.3,-.2l-.3,-.3l.3,.3l1.9,-1.8l.4,-.3l1.8,-1.6l.7,-.6l1.4,-1.2l1.2,-1l-.3,-.3l.3,.3l1,-.8l-.3,-.3l.3,.3l1.7,-1.3l.4,-.4l2.2,-1.6l.3,-.2l-.2,-.3l.2,.3l1.9,-1.3l1.2,-.8l-.3,-.4l.3,.4l.9,-.7l2.2,-1.4l.1,-.1l-.4,-.6l-.1,.1c-7.8,4.9,-15,10.7,-21.6,17.2l-.1,.2h-.1c-3,3.1,-5.9,6.3,-8.6,9.7l-.9,1c-2.2,2.8,-4.3,5.7,-6.3,8.7l-1.4,2.2l-.1,.1l.6,.4Z" class="ga_337"/>
<path d="M626.2,85.8l.2,.1l2.2,1.4l.9,.7l1.2,.8l1.9,1.3l.3,.2l2.1,1.6l.5,.4l1.7,1.3l1,.8l.3,-.3l-.3,.3l1.2,1l.2,-.3l-.2,.3l1.4,1.2l.3,-.3l-.3,.3l.7,.6l1.8,1.6l.2,-.3l-.2,.3l.4,.3l1.9,1.8l.3,-.3l-.3,.3l.2,.2l.3,-.2l-.3,.2l2,2l.3,-.3l-.3,.3l.2,.1l.3,-.2l-.3,.2l1.9,2l.3,-.2l-.3,.2l.3,.3l.2,-.3l-.2,.3l1.7,1.9l.3,-.3l-.3,.3l.4,.4l1.6,1.8l.3,-.3l-.3,.2l.6,.8l.3,-.3l-.3,.2l1.2,1.5l.3,-.2l-.3,.2l.9,1.1l.3,-.2l-.3,.2l.9,1.1l1.3,1.7l.3,-.3l-.3,.3l.3,.4l1.7,2.2l.1,.3l1.4,1.8l.3,-.2l-.3,.2l.8,1.2l.7,1l1.4,2.2l.1,.1l.6,-.4l-.1,-.1c-10,-15.7,-23.3,-29,-39,-39l-.1,-.1l-.5,.6Z" class="ga_337"/>
<path d="M480.5,299.6l-.9,-.7l-2,-1.5h.1l-.3,-.2l-2.1,-1.7l-.4,-.3l-1.8,-1.5l-.8,-.6l-1.4,-1.2l-1,-1l-1.1,-1l-1.3,-1.1l-.9,-.9l-1.3,-1.3l-.3,.3l.3,-.3l-.8,-.8c-1.8,-1.9,-3.6,-3.7,-5.3,-5.7L458,278.7l-.7,-.7l-1.5,-1.9l-.2,-.3l-1.8,-2.1l-.1,-.3l-1.5,-1.9l-.7,-1l-.6,.5l.7,.9c3.8,5.1,7.9,9.9,12.3,14.4l.9,.8c4.5,4.5,9.3,8.6,14.3,12.4l1,.7l.4,-.6Z" class="ga_337"/>
<path d="M665.3,270.5l-.7,1l.3,.2l-.3,-.2l-1.5,1.9l.3,.2l-.3,-.2l-.2,.3l.3,.2l-.3,-.3l-1.7,2.2l-.2,.3l-1.6,1.9l-.6,.7l.3,.3l-.3,-.3l-1.2,1.4l-1,1.1l.3,.2l-.3,-.2l-1,1.1l.3,.2l-.3,-.2l-1.1,1.2l-.9,1l.3,.2l-.3,-.3l-1.3,1.4l.3,.2l-.3,-.2l-.8,.8l-1.3,1.3l.2,.3l-.2,-.3l-1,.9l-1.2,1.1l.3,.3l-.3,-.3l-1.1,1l.3,.3l-.3,-.3l-1.1,1l.3,.2l-.3,-.2l-1.4,1.2l.3,.3l-.3,-.3l-.7,.6l.2,.3l-.2,-.3l-1.8,1.5l.2,.3l-.2,-.3l-.4,.3l-2.1,1.7l-.3,.2l-1.9,1.5l.2,.3l-.2,-.3l-1,.7l.5,.6l1,-.7c10.4,-7.8,19.7,-17.1,27.5,-27.6l.7,-.9l-.6,-.5Z" class="ga_337"/>
<path d="M451.5,114.8l.7,-.9l1.5,-2l.1,-.2l1.8,-2.2l.2,-.3l1.5,-1.8l-.2,-.3l.2,.3l.7,-.8l1.2,-1.4l.9,-1l-.2,-.3l.2,.3l1.1,-1.1l1.1,-1.3l.9,-.9l1.3,-1.3l.8,-.9l1.3,-1.2l-.2,-.3l.2,.3l.9,-.9l-.2,-.3l.2,.3l1.3,-1.2l-.3,-.2l.3,.2l1.1,-1c2.4,-2.2,4.9,-4.3,7.5,-6.3l.3,-.2h-.1l2,-1.4l.9,-.7l-.4,-.6l-1,.7c-5,3.7,-9.8,7.9,-14.3,12.3l-.9,.9c-4.4,4.4,-8.5,9.2,-12.3,14.3l-.7,1l.6,.4Z" class="ga_337"/>
<path d="M636.2,85.8l1,.7l.2,-.3l-.2,.3l1.9,1.4l.3,-.3l-.3,.3l.3,.2l2.1,1.7l.4,.3l1.8,1.5l.2,-.3l-.2,.3l.7,.7l.3,-.3l-.3,.3l1.4,1.2l.3,-.3l-.3,.3l1.1,.9l1.1,1l.3,-.2l-.3,.2l1.2,1.2l1,.9l.2,-.3l-.2,.3l1.3,1.2l.2,-.2l-.2,.2l.8,.9l1.3,1.3l.3,-.3l-.3,.3l.9,.9l.3,-.2l-.3,.2l1.1,1.3l1,1.1l.3,-.3l-.3,.3l1,1l.3,-.2l-.3,.2l1.2,1.4l.3,-.2l-.3,.2l.6,.8l1.6,1.8l.2,.3l1.7,2.2l.3,-.2l-.3,.2l.2,.2l.3,-.2l-.3,.2l1.5,2l.7,.9l.6,-.4l-.7,-1C657.4,103,648.1,93.6,637.7,85.9l-1,-.7l-.5,.6Z" class="ga_337"/>
<path d="M471.7,299.6l-.8,-.6l-.2,.3l.2,-.3l-1.8,-1.6l-.3,-.2c-1.6,-1.4,-3.1,-2.7,-4.6,-4.1l-1.9,-1.9l-.3,.3l.3,-.3l-.3,-.3l-.3,.3l.3,-.3l-1.9,-1.8l-.3,-.3l-1.8,-2l-.3,.3l.3,-.3l-.2,-.2l-.3,.3l.3,-.3l-2,-2.1l-1.9,-2.2l-.2,-.3l-1.6,-1.9l-.6,-.7l-.6,.5l.6,.7c.5,.8,1.2,1.5,1.8,2.2l1.9,2.2l.3,-.3l-.3,.3c4.7,5.2,9.8,10.1,15.2,14.6l.8,.6l.5,-.6Z" class="ga_337"/>
<path d="M665.3,279.4l-.6,.7l.3,.3l-.3,-.3l-1.6,1.9l-.2,.3l-1.9,2.2l-2,2.1l.3,.3l-.3,-.3l-.2,.2l.3,.3l-.3,-.3l-1.9,2l-.2,.3l-1.9,1.8l.3,.3l-.3,-.3l-.3,.3l-2,1.9l-.2,.2l-2.1,2l-2.2,1.9l-.3,.2l.3,.3l-.3,-.3l-1.8,1.6l.2,.3l-.2,-.3l-.8,.6l.5,.6l.7,-.6c.7,-.7,1.5,-1.2,2.2,-1.9l2.2,-1.9l-.3,-.2l.3,.2c5.2,-4.7,10.1,-9.7,14.6,-15.2l.6,-.7l-.6,-.5Z" class="ga_337"/>
<path d="M451.5,106l.6,-.8l1.6,-1.8l.2,-.3l-.3,-.3l.3,.3l1.9,-2.2l2,-2.2l-.3,-.2l.3,.2l.2,-.2l1.8,-1.9l-.2,-.3l.2,.3l.3,-.3l-.2,-.3l.2,.3L462,94.4l-.3,-.3l.3,.3l.3,-.3l-.3,-.3l.3,.3l1.9,-1.8L464,92l.2,.3l.2,-.2c2.1,-2,4.3,-3.9,6.5,-5.7l.8,-.6l-.5,-.6l-.8,.6c-5.4,4.5,-10.5,9.3,-15.2,14.6l.3,.2l-.3,-.2l-1.9,2.2c-.6,.7,-1.2,1.4,-1.8,2.1l-.6,.8l.6,.5Z" class="ga_337"/>
<path d="M645.1,85.8l.8,.6l.2,-.3l-.2,.3l1.8,1.5l.3,-.3l-.3,.3l.3,.3l2.2,1.9l2.1,2l.2,.2v-.1l2,1.9l.3,.3l.3,-.3l-.3,.3l1.9,1.9c1.4,1.5,2.9,3,4.3,4.6l1.9,2.2l.3,-.3l-.3,.3l.2,.3l1.6,1.8l.3,-.2l-.3,.2l.6,.8l.6,-.5l-.6,-.8C660.8,99.3,655.9,94.2,650.7,89.5l-.3,.3l.3,-.3l-2.2,-1.9c-.7,-.6,-1.5,-1.2,-2.2,-1.8l-.7,-.6l-.5,.6Z" class="ga_337"/>
<path d="M463.6,299.6l-1.3,-1.2l-1.1,-1h.1l-1.2,-1L459,295.3l-1,-1l-.3,.2l.3,-.2l-1.2,-1.2l-1,-1L454.7,291l-1.1,-1.2l-.2,.3l.2,-.3l-.9,-1l-1.2,-1.4l-.6,.5l1.2,1.4c3.1,3.4,6.3,6.6,9.7,9.6l1.3,1.3l.5,-.6Z" class="ga_337"/>
<path d="M665.3,287.4l-1.2,1.4l.3,.2l-.3,-.2l-1,1l.3,.3l-.3,-.3l-1,1.2l.3,.2l-.3,-.3l-1.1,1.2l.3,.3l-.3,-.3l-1,1l.3,.3l-.3,-.3l-1.2,1.2l.3,.2l-.3,-.2l-1,1l.3,.2l-.3,-.2l-1.1,1.1l.2,.2l-.2,-.2l-1.2,1l-1,1l.3,.3l-.3,-.3l-1.3,1.2l.5,.6l1.3,-1.3c3.4,-3,6.6,-6.2,9.7,-9.6l1.2,-1.4l-.6,-.5Z" class="ga_337"/>
<path d="M451.5,97.9l1.2,-1.3l.9,-1.1l1.1,-1.1l1.1,-1.1l1,-1.1l-.3,-.2l.3,.2L458,91.1l-.3,-.3l.3,.3l1,-1L460.1,89l1.1,-1.1l1.1,-.9l1.3,-1.2l-.5,-.6l-1.3,1.2c-3.4,3.1,-6.6,6.3,-9.7,9.7l-1.2,1.3l.6,.5Z" class="ga_337"/>
<path d="M653.2,85.8l1.3,1.2l.3,-.3l-.3,.3l1,.9l.3,-.3l-.3,.3l1.2,1.1l1.1,1.1l1,1l.3,-.3l-.3,.3l1.2,1.1l.3,-.2l-.3,.2l1,1.1l.3,-.3l-.3,.3l1.1,1.1l.3,-.3l-.3,.3l1,1.1l.3,-.2l-.3,.2l1,1.1l1.2,1.3l.6,-.5l-1.2,-1.3c-3.1,-3.4,-6.3,-6.6,-9.7,-9.7l-1.3,-1.2l-.5,.6Z" class="ga_337"/>
<path d="M456.2,299.6l-.4,-.4L454,297.4l-.4,-.3l-1.7,-1.8l-.4,-.4l-.6,.5l.4,.4l1.8,1.8l.4,.4l1.8,1.7l.4,.4l.5,-.5Z" class="ga_337"/>
<path d="M665.3,294.9l-.4,.4l.3,.2l-.3,-.2l-1.7,1.8l.2,.2l-.2,-.2l-.4,.3l-1.8,1.8l-.4,.4l.5,.5l.4,-.4c1.4,-1.3,2.7,-2.6,4,-3.9l.4,-.4l-.6,-.5Z" class="ga_337"/>
<path d="M451.2,90.2l.4,-.4L453.4,88l.3,-.4l1.8,-1.7l.5,-.4l-4.8,4.7Z" class="gp_337"/>
<path d="M451.5,90.5l.4,-.4l1.7,-1.8l.4,-.4l1.8,-1.7l.4,-.4l-.5,-.6l-.4,.4l-1.8,1.8l-.4,.3v.1l-1.8,1.7l-.4,.5l.6,.5Z" class="ga_337"/>
<path d="M660.6,85.8l.4,.4l1.8,1.7l.3,-.3l-.3,.3l.4,.4l1.7,1.8l.3,-.3l-.3,.3l.4,.4l.6,-.5l-.4,-.5c-1.3,-1.3,-2.6,-2.6,-4,-3.9l-.4,-.4l-.5,.6Z" class="ga_337"/>
<path d="M450.8,300.3h.8V85.1h-.8Z" class="g9_337"/>
<path d="M665.2,300.3h.8V85.1h-.8Z" class="g9_337"/>
<path d="M450.8,300.3H666v-.8H450.8Z" class="g9_337"/>
<path d="M450.8,85.9H666v-.8H450.8Z" class="g9_337"/>
<path d="M513.6,226.1l5,3.4l-.5,.6l-5,-3.4l.5,-.6Z" class="ga_337"/>
<path d="M524.1,228.7c.6,.4,.9,1,.9,1.8c0,.7,-.3,1.6,-1,2.6c-.7,1,-1.3,1.6,-2,1.9c-.7,.3,-1.4,.2,-2.1,-.3c-.6,-.4,-.9,-1,-.9,-1.8c0,-.7,.3,-1.6,1,-2.6c.7,-.9,1.3,-1.6,2,-1.8c.7,-.3,1.4,-.2,2.1,.2Zm-.5,.6c-.4,-.3,-.8,-.3,-1.3,0c-.5,.3,-1,.8,-1.5,1.6c-.6,.8,-.9,1.5,-.9,2c-.1,.5,.1,.9,.5,1.2c.4,.3,.8,.3,1.3,0c.5,-.2,1,-.7,1.5,-1.5c.6,-.8,.9,-1.5,.9,-2.1c.1,-.5,-.1,-.9,-.5,-1.2Z" class="ga_337"/>
<path d="M524.1,236l.8,.5l-.7,1l-.8,-.6l.7,-.9Z" class="ga_337"/>
<path d="M529.9,232.9L533,235l-.4,.6L530.2,234l-1,1.4c.2,.1,.3,.1,.4,.2l.4,.2c.6,.4,1,1,1.2,1.6c.1,.6,0,1.2,-.5,1.8c-.4,.6,-.9,1,-1.5,1.1c-.7,.1,-1.3,-.1,-2,-.6c-.3,-.2,-.5,-.4,-.7,-.6c-.3,-.2,-.5,-.5,-.7,-.7l.5,-.8c.2,.3,.4,.5,.6,.8c.2,.2,.4,.4,.7,.6c.4,.3,.9,.4,1.3,.4c.4,-.1,.8,-.3,1.1,-.7c.2,-.4,.3,-.8,.2,-1.2c-.1,-.5,-.3,-.8,-.8,-1.1c-.2,-.2,-.4,-.3,-.7,-.4c-.2,-.1,-.5,-.2,-.8,-.2l2,-2.9Z" class="ga_337"/>
<path d="M520,254.5c.8,.3,1.2,.8,1.4,1.5c.1,.8,0,1.7,-.5,2.8c-.4,1.1,-.9,1.9,-1.5,2.3c-.6,.4,-1.3,.5,-2.1,.2c-.7,-.3,-1.1,-.8,-1.3,-1.5c-.2,-.8,0,-1.7,.4,-2.8c.4,-1.1,1,-1.9,1.6,-2.3c.6,-.4,1.3,-.5,2,-.2Zm-.3,.7c-.4,-.2,-.8,-.1,-1.3,.3c-.4,.3,-.7,1,-1.1,1.9c-.4,.9,-.5,1.6,-.4,2.1c0,.6,.3,.9,.7,1.1c.5,.2,.9,.1,1.3,-.3c.4,-.3,.8,-1,1.2,-1.8c.3,-1,.5,-1.7,.4,-2.2c0,-.6,-.3,-.9,-.8,-1.1Z" class="g9_337"/>
<path d="M521.7,261.6l.9,.3l-.5,1.2l-.9,-.4l.5,-1.1Z" class="g9_337"/>
<path d="M528.6,257.9c.7,.3,1.2,.8,1.3,1.5c.2,.8,.1,1.7,-.4,2.8c-.4,1.1,-.9,1.9,-1.6,2.3c-.6,.4,-1.2,.5,-2,.2c-.7,-.3,-1.2,-.8,-1.3,-1.5c-.2,-.8,0,-1.7,.4,-2.8c.4,-1.1,1,-1.9,1.6,-2.3c.6,-.4,1.3,-.5,2,-.2Zm-.3,.7c-.4,-.2,-.9,-.1,-1.3,.3c-.4,.3,-.8,.9,-1.1,1.8c-.4,.9,-.5,1.7,-.5,2.2c.1,.5,.3,.9,.8,1.1c.5,.2,.9,.1,1.3,-.3c.4,-.3,.8,-1,1.1,-1.9c.4,-.9,.5,-1.6,.5,-2.1c-.1,-.6,-.3,-.9,-.8,-1.1Z" class="g9_337"/>
<path d="M607.1,107.8c.7,.4,1.1,.9,1.2,1.7c.1,.7,-.1,1.6,-.6,2.7c-.5,1.1,-1.1,1.8,-1.8,2.2c-.6,.4,-1.3,.4,-2,0c-.7,-.3,-1.1,-.9,-1.2,-1.6c-.1,-.7,.1,-1.6,.6,-2.7c.5,-1.1,1.1,-1.8,1.7,-2.2c.7,-.4,1.4,-.4,2.1,-.1Zm-.3,.7c-.5,-.2,-.9,-.1,-1.4,.2c-.4,.3,-.8,.9,-1.2,1.8c-.5,.9,-.7,1.6,-.6,2.1c0,.6,.2,.9,.6,1.2c.5,.2,.9,.1,1.4,-.2c.4,-.3,.8,-.9,1.2,-1.8c.5,-.9,.7,-1.6,.6,-2.1c0,-.6,-.2,-1,-.6,-1.2Z" class="ga_337"/>
<path d="M608.2,115l.9,.4l-.5,1.1l-.9,-.4l.5,-1.1Z" class="ga_337"/>
<path d="M613.5,111.1l3.4,1.6l-.4,.7l-2.6,-1.2l-.7,1.5c.1,.1,.3,.1,.4,.1l.4,.2c.7,.3,1.2,.8,1.4,1.4c.2,.6,.2,1.2,-.1,1.8c-.4,.7,-.8,1.2,-1.4,1.3c-.6,.2,-1.3,.1,-2.1,-.3c-.3,-.1,-.5,-.2,-.8,-.4c-.2,-.2,-.5,-.4,-.7,-.6l.4,-.9c.2,.3,.4,.5,.6,.7c.3,.2,.5,.4,.8,.5c.5,.2,1,.3,1.4,.2c.4,-.1,.7,-.4,.9,-.9c.2,-.4,.3,-.8,.1,-1.2c-.2,-.4,-.5,-.7,-1,-1c-.2,-.1,-.5,-.2,-.7,-.2c-.3,-.1,-.5,-.1,-.8,-.1l1.5,-3.2Z" class="ga_337"/>
<path d="M680,299.9h10.7V85.5H680Z" class="g0_337"/>
<path d="M680,299.9h10.7v-9H680Z" class="gr_337"/>
<path d="M680,290.9h10.7V282H680Z" class="g1_337"/>
<path d="M680,282h10.7v-8.9H680Z" class="gs_337"/>
<path d="M680,273.1h10.7v-9H680Z" class="gt_337"/>
<path d="M680,264.1h10.7v-8.9H680Z" class="gu_337"/>
<path d="M680,255.2h10.7v-8.9H680Z" class="gv_337"/>
<path d="M680,246.3h10.7v-9H680Z" class="gw_337"/>
<path d="M680,237.3h10.7v-8.9H680Z" class="g3_337"/>
<path d="M680,228.4h10.7v-8.9H680Z" class="gx_337"/>
<path d="M680,219.5h10.7v-9H680Z" class="gy_337"/>
<path d="M680,210.5h10.7v-8.9H680Z" class="gd_337"/>
<path d="M680,201.6h10.7v-8.9H680Z" class="ge_337"/>
<path d="M680,192.7h10.7v-9H680Z" class="gf_337"/>
<path d="M680,183.7h10.7v-8.9H680Z" class="gg_337"/>
<path d="M680,174.8h10.7v-8.9H680Z" class="gh_337"/>
<path d="M680,165.9h10.7v-9H680Z" class="gi_337"/>
<path d="M680,156.9h10.7V148H680Z" class="gj_337"/>
<path d="M680,148h10.7v-8.9H680Z" class="gk_337"/>
<path d="M680,139.1h10.7v-9H680Z" class="gl_337"/>
<path d="M680,130.1h10.7v-8.9H680Z" class="gm_337"/>
<path d="M680,121.2h10.7v-8.9H680Z" class="gn_337"/>
<path d="M680,112.3h10.7v-9H680Z" class="go_337"/>
<path d="M680,103.3h10.7V94.4H680Z" class="g8_337"/>
<path d="M680,94.4h10.7V85.5H680Z" class="gp_337"/>
<path d="M690.7,300.3h2.8v-.8h-2.8Z" class="g9_337"/>
<path d="M697.2,300.7h5v-.6h-5Z" class="g9_337"/>
<path d="M706.4,299.8c.3,0,.6,.2,.8,.5c.3,.2,.4,.5,.4,.9c0,.6,-.2,1.1,-.6,1.4c-.4,.3,-1,.4,-1.7,.4c-.3,0,-.5,0,-.8,0c-.3,-.1,-.5,-.1,-.8,-.2V302c.2,.1,.5,.2,.7,.3c.3,0,.6,.1,.8,.1c.5,0,.9,-.1,1.2,-.3c.2,-.2,.4,-.5,.4,-.9c0,-.3,-.1,-.6,-.4,-.8c-.2,-.2,-.6,-.3,-1,-.3h-.7v-.6h.7c.4,0,.7,-.1,.9,-.3c.2,-.1,.3,-.3,.3,-.6c0,-.3,-.1,-.6,-.3,-.7c-.2,-.2,-.5,-.3,-.9,-.3c-.2,0,-.5,0,-.7,.1c-.3,0,-.5,.1,-.8,.2v-.7c.3,-.1,.6,-.1,.8,-.2c.3,0,.5,0,.8,0c.6,0,1,.1,1.4,.4c.4,.2,.5,.6,.5,1.1c0,.3,-.1,.6,-.3,.8c-.1,.2,-.4,.4,-.7,.5Z" class="g9_337"/>
<path d="M709.1,302.9h.8v-1h-.8Z" class="g9_337"/>
<path d="M713.3,297c.7,0,1.2,.2,1.5,.7c.4,.6,.6,1.3,.6,2.3c0,1,-.2,1.7,-.6,2.3c-.3,.5,-.8,.7,-1.5,.7c-.6,0,-1.1,-.2,-1.5,-.7c-.3,-.6,-.5,-1.3,-.5,-2.3c0,-1,.2,-1.7,.5,-2.3c.4,-.5,.9,-.7,1.5,-.7Zm0,.6c-.4,0,-.7,.2,-.9,.6c-.2,.4,-.3,1,-.3,1.8c0,.8,.1,1.4,.3,1.8c.2,.4,.5,.6,.9,.6c.4,0,.8,-.2,1,-.6c.2,-.4,.3,-1,.3,-1.8c0,-.8,-.1,-1.4,-.3,-1.8c-.2,-.4,-.6,-.6,-1,-.6Z" class="g9_337"/>
<path d="M718.5,297c.6,0,1.1,.2,1.5,.7c.3,.6,.5,1.3,.5,2.3c0,1,-.2,1.7,-.5,2.3c-.4,.5,-.9,.7,-1.5,.7c-.7,0,-1.2,-.2,-1.6,-.7c-.3,-.6,-.5,-1.3,-.5,-2.3c0,-1,.2,-1.7,.5,-2.3c.4,-.5,.9,-.7,1.6,-.7Zm0,.6c-.5,0,-.8,.2,-1,.6c-.2,.4,-.3,1,-.3,1.8c0,.8,.1,1.4,.3,1.8c.2,.4,.5,.6,1,.6c.4,0,.7,-.2,.9,-.6c.2,-.4,.3,-1,.3,-1.8c0,-.8,-.1,-1.4,-.3,-1.8c-.2,-.4,-.5,-.6,-.9,-.6Z" class="g9_337"/>
<path d="M690.7,273.5h2.8v-.8h-2.8Z" class="g9_337"/>
<path d="M697.2,273.9h5v-.6h-5Z" class="g9_337"/>
<path d="M704.6,275.5h2.8v.6h-3.7v-.6c.3,-.3,.7,-.8,1.2,-1.3c.5,-.5,.9,-.9,1,-1c.2,-.3,.4,-.5,.5,-.7c.1,-.2,.2,-.4,.2,-.6c0,-.3,-.1,-.6,-.4,-.8c-.2,-.2,-.5,-.3,-.8,-.3c-.3,0,-.5,.1,-.8,.2c-.3,0,-.6,.2,-.9,.3v-.8c.3,-.1,.6,-.2,.9,-.2c.3,-.1,.5,-.1,.8,-.1c.6,0,1.1,.1,1.4,.4c.4,.3,.6,.7,.6,1.2c0,.3,-.1,.5,-.2,.7c-.1,.2,-.2,.5,-.5,.8c0,.1,-.2,.3,-.6,.6c-.3,.4,-.8,.9,-1.5,1.6Z" class="g9_337"/>
<path d="M709.1,276.1h.8v-1h-.8Z" class="g9_337"/>
<path d="M712.3,275.5h2.8v.6h-3.7v-.6c.3,-.3,.7,-.8,1.2,-1.3c.5,-.5,.8,-.9,1,-1c.2,-.3,.4,-.5,.5,-.7c.1,-.2,.2,-.4,.2,-.6c0,-.3,-.1,-.6,-.4,-.8c-.2,-.2,-.5,-.3,-.8,-.3c-.3,0,-.5,.1,-.8,.2c-.3,0,-.6,.2,-.9,.3v-.8c.3,-.1,.6,-.2,.9,-.2c.3,-.1,.5,-.1,.8,-.1c.6,0,1.1,.1,1.4,.4c.4,.3,.6,.7,.6,1.2c0,.3,-.1,.5,-.2,.7c-.1,.2,-.2,.5,-.5,.8c0,.1,-.2,.3,-.6,.6c-.3,.4,-.8,.9,-1.5,1.6Z" class="g9_337"/>
<path d="M716.8,270.3h3.1v.6h-2.4v1.5l.3,-.1h.4c.6,0,1.2,.1,1.5,.5c.4,.3,.6,.8,.6,1.5c0,.6,-.2,1.1,-.6,1.4c-.4,.4,-.9,.5,-1.6,.5c-.3,0,-.5,0,-.8,0c-.2,-.1,-.5,-.1,-.8,-.2v-.8c.3,.1,.5,.2,.7,.3c.3,0,.6,.1,.8,.1c.5,0,.9,-.1,1.1,-.4c.3,-.2,.4,-.5,.4,-.9c0,-.5,-.1,-.8,-.4,-1c-.2,-.3,-.6,-.4,-1.1,-.4c-.2,0,-.4,0,-.6,.1c-.2,0,-.4,.1,-.6,.2v-2.9Z" class="g9_337"/>
<path d="M690.7,246.7h2.8v-.8h-2.8Z" class="g9_337"/>
<path d="M697.2,247.1h5v-.6h-5Z" class="g9_337"/>
<path d="M704.1,248.7h1.3v-4.5l-1.4,.3v-.8l1.4,-.2h.8v5.2h1.3v.6h-3.4v-.6Z" class="g9_337"/>
<path d="M709.1,249.3h.8v-1h-.8Z" class="g9_337"/>
<path d="M711.6,243.5h3.2v.6h-2.4v1.5l.3,-.1h.4c.6,0,1.1,.1,1.5,.5c.4,.4,.6,.8,.6,1.5c0,.6,-.2,1.1,-.6,1.4c-.4,.4,-.9,.5,-1.7,.5c-.2,0,-.5,0,-.7,0c-.3,-.1,-.5,-.1,-.8,-.2v-.8c.2,.1,.5,.2,.7,.3c.3,0,.5,.1,.8,.1c.5,0,.8,-.1,1.1,-.4c.3,-.2,.4,-.5,.4,-.9c0,-.5,-.1,-.8,-.4,-1c-.3,-.3,-.6,-.4,-1.1,-.4c-.2,0,-.4,0,-.6,.1c-.2,0,-.4,.1,-.7,.2v-2.9Z" class="g9_337"/>
<path d="M718.5,243.4c.6,0,1.1,.2,1.5,.7c.3,.6,.5,1.3,.5,2.3c0,1,-.2,1.7,-.5,2.3c-.4,.5,-.9,.7,-1.5,.7c-.7,0,-1.2,-.2,-1.6,-.7c-.3,-.6,-.5,-1.3,-.5,-2.3c0,-1,.2,-1.7,.5,-2.3c.4,-.5,.9,-.7,1.6,-.7Zm0,.6c-.5,0,-.8,.2,-1,.6c-.2,.4,-.3,1,-.3,1.8c0,.8,.1,1.4,.3,1.8c.2,.4,.5,.6,1,.6c.4,0,.7,-.2,.9,-.6c.2,-.4,.3,-1,.3,-1.8c0,-.8,-.1,-1.4,-.3,-1.8c-.2,-.4,-.5,-.6,-.9,-.6Z" class="g9_337"/>
<path d="M690.7,219.9h2.8v-.8h-2.8Z" class="g9_337"/>
<path d="M697.2,220.3h5v-.6h-5Z" class="g9_337"/>
<path d="M705.6,216.6c.7,0,1.2,.2,1.6,.7c.3,.6,.5,1.3,.5,2.3c0,1,-.2,1.7,-.5,2.3c-.4,.5,-.9,.7,-1.6,.7c-.6,0,-1.1,-.2,-1.5,-.7c-.3,-.6,-.5,-1.3,-.5,-2.3c0,-1,.2,-1.7,.5,-2.3c.4,-.5,.9,-.7,1.5,-.7Zm0,.6c-.4,0,-.7,.2,-.9,.6c-.2,.4,-.3,1,-.3,1.8c0,.8,.1,1.4,.3,1.8c.2,.4,.5,.6,.9,.6c.5,0,.8,-.2,1,-.6c.2,-.4,.3,-1,.3,-1.8c0,-.8,-.1,-1.4,-.3,-1.8c-.2,-.4,-.5,-.6,-1,-.6Z" class="g9_337"/>
<path d="M709.1,222.5h.8v-1h-.8Z" class="g9_337"/>
<path d="M711.4,216.7h3.8v.3l-2.1,5.5h-.9l2.1,-5.2h-2.9v-.6Z" class="g9_337"/>
<path d="M716.8,216.7h3.1v.6h-2.4v1.5l.3,-.1h.4c.6,0,1.2,.1,1.5,.5c.4,.4,.6,.8,.6,1.5c0,.6,-.2,1.1,-.6,1.4c-.4,.4,-.9,.5,-1.6,.5c-.3,0,-.5,0,-.8,0c-.2,-.1,-.5,-.1,-.8,-.2v-.8c.3,.1,.5,.2,.7,.3c.3,0,.6,.1,.8,.1c.5,0,.9,-.1,1.1,-.4c.3,-.2,.4,-.5,.4,-.9c0,-.5,-.1,-.8,-.4,-1c-.2,-.3,-.6,-.4,-1.1,-.4c-.2,0,-.4,0,-.6,.1c-.2,0,-.4,.1,-.6,.2v-2.9Z" class="g9_337"/>
<path d="M690.7,193.1h2.8v-.8h-2.8Z" class="g9_337"/>
<path d="M698.9,189.8c.7,0,1.2,.2,1.5,.7c.4,.6,.5,1.3,.5,2.3c0,1,-.1,1.8,-.5,2.3c-.3,.5,-.8,.8,-1.5,.8c-.7,0,-1.2,-.3,-1.5,-.8c-.4,-.5,-.5,-1.3,-.5,-2.3c0,-1,.1,-1.7,.5,-2.3c.3,-.5,.8,-.7,1.5,-.7Zm0,.6c-.4,0,-.7,.2,-.9,.6c-.2,.4,-.3,1,-.3,1.8c0,.8,.1,1.4,.3,1.8c.2,.4,.5,.6,.9,.6c.4,0,.7,-.2,.9,-.6c.2,-.4,.3,-1,.3,-1.8c0,-.8,-.1,-1.4,-.3,-1.8c-.2,-.4,-.5,-.6,-.9,-.6Z" class="g9_337"/>
<path d="M702.3,195.7h.9v-1h-.9Z" class="g9_337"/>
<path d="M706.6,189.8c.6,0,1.1,.2,1.5,.7c.3,.6,.5,1.3,.5,2.3c0,1,-.2,1.8,-.5,2.3c-.4,.5,-.9,.8,-1.5,.8c-.7,0,-1.2,-.3,-1.5,-.8c-.4,-.5,-.5,-1.3,-.5,-2.3c0,-1,.1,-1.7,.5,-2.3c.3,-.5,.8,-.7,1.5,-.7Zm0,.6c-.4,0,-.7,.2,-.9,.6c-.2,.4,-.4,1,-.4,1.8c0,.8,.2,1.4,.4,1.8c.2,.4,.5,.6,.9,.6c.4,0,.7,-.2,.9,-.6c.2,-.4,.3,-1,.3,-1.8c0,-.8,-.1,-1.4,-.3,-1.8c-.2,-.4,-.5,-.6,-.9,-.6Z" class="g9_337"/>
<path d="M711.7,189.8c.7,0,1.2,.2,1.5,.7c.4,.6,.5,1.3,.5,2.3c0,1,-.1,1.8,-.5,2.3c-.3,.5,-.8,.8,-1.5,.8c-.7,0,-1.2,-.3,-1.5,-.8c-.3,-.5,-.5,-1.3,-.5,-2.3c0,-1,.2,-1.7,.5,-2.3c.3,-.5,.8,-.7,1.5,-.7Zm0,.6c-.4,0,-.7,.2,-.9,.6c-.2,.4,-.3,1,-.3,1.8c0,.8,.1,1.4,.3,1.8c.2,.4,.5,.6,.9,.6c.4,0,.7,-.2,.9,-.6c.2,-.4,.3,-1,.3,-1.8c0,-.8,-.1,-1.4,-.3,-1.8c-.2,-.4,-.5,-.6,-.9,-.6Z" class="g9_337"/>
<path d="M690.7,166.3h2.8v-.8h-2.8Z" class="g9_337"/>
<path d="M698.9,163c.7,0,1.2,.2,1.5,.7c.4,.6,.5,1.3,.5,2.3c0,1,-.1,1.7,-.5,2.3c-.3,.5,-.8,.8,-1.5,.8c-.7,0,-1.2,-.3,-1.5,-.8c-.4,-.6,-.5,-1.3,-.5,-2.3c0,-1,.1,-1.7,.5,-2.3c.3,-.5,.8,-.7,1.5,-.7Zm0,.6c-.4,0,-.7,.2,-.9,.6c-.2,.4,-.3,1,-.3,1.8c0,.8,.1,1.4,.3,1.8c.2,.4,.5,.6,.9,.6c.4,0,.7,-.2,.9,-.6c.2,-.4,.3,-1,.3,-1.8c0,-.8,-.1,-1.4,-.3,-1.8c-.2,-.4,-.5,-.6,-.9,-.6Z" class="g9_337"/>
<path d="M702.3,168.9h.9v-1h-.9Z" class="g9_337"/>
<path d="M704.7,163.1h3.8v.3l-2.2,5.5h-.8l2,-5.2h-2.8v-.6Z" class="g9_337"/>
<path d="M710,163.1h3.1v.6h-2.4v1.5l.4,-.1h.3c.7,0,1.2,.1,1.6,.5c.4,.4,.6,.8,.6,1.5c0,.6,-.2,1.1,-.6,1.4c-.4,.4,-1,.6,-1.7,.6c-.2,0,-.5,-.1,-.7,-.1c-.3,-.1,-.6,-.1,-.8,-.2V168c.2,.1,.4,.2,.7,.3c.2,.1,.5,.1,.8,.1c.5,0,.8,-.1,1.1,-.4c.2,-.2,.4,-.5,.4,-.9c0,-.5,-.2,-.8,-.4,-1c-.3,-.3,-.6,-.4,-1.1,-.4c-.2,0,-.4,0,-.6,.1c-.2,0,-.5,.1,-.7,.2v-2.9Z" class="g9_337"/>
<path d="M690.7,139.5h2.8v-.8h-2.8Z" class="g9_337"/>
<path d="M697.3,141.5h1.3V137l-1.4,.3v-.8l1.4,-.2h.8v5.2h1.3v.6h-3.4v-.6Z" class="g9_337"/>
<path d="M702.3,142.1h.9v-1h-.9Z" class="g9_337"/>
<path d="M704.9,136.3H708v.6h-2.4v1.5l.4,-.1h.3c.7,0,1.2,.1,1.6,.5c.4,.4,.5,.8,.5,1.5c0,.6,-.2,1.1,-.5,1.4c-.4,.4,-1,.6,-1.7,.6c-.3,0,-.5,-.1,-.8,-.1c-.2,-.1,-.5,-.1,-.8,-.2v-.8c.3,.1,.5,.2,.8,.3c.2,.1,.5,.1,.8,.1c.4,0,.8,-.1,1,-.4c.3,-.2,.4,-.5,.4,-.9c0,-.5,-.1,-.8,-.4,-1c-.2,-.3,-.6,-.4,-1,-.4c-.2,0,-.5,0,-.7,.1c-.2,0,-.4,.1,-.6,.2v-2.9Z" class="g9_337"/>
<path d="M711.7,136.2c.7,0,1.2,.2,1.5,.7c.4,.6,.5,1.3,.5,2.3c0,1,-.1,1.8,-.5,2.3c-.3,.5,-.8,.8,-1.5,.8c-.7,0,-1.2,-.3,-1.5,-.8c-.3,-.5,-.5,-1.3,-.5,-2.3c0,-1,.2,-1.7,.5,-2.3c.3,-.5,.8,-.7,1.5,-.7Zm0,.6c-.4,0,-.7,.2,-.9,.6c-.2,.4,-.3,1,-.3,1.8c0,.8,.1,1.4,.3,1.8c.2,.4,.5,.6,.9,.6c.4,0,.7,-.2,.9,-.6c.2,-.4,.3,-1,.3,-1.8c0,-.8,-.1,-1.4,-.3,-1.8c-.2,-.4,-.5,-.6,-.9,-.6Z" class="g9_337"/>
<path d="M690.7,112.7h2.8v-.8h-2.8Z" class="g9_337"/>
<path d="M697.9,114.7h2.8v.6h-3.8v-.6c.3,-.3,.7,-.8,1.3,-1.3c.5,-.5,.8,-.9,.9,-1c.3,-.3,.5,-.5,.6,-.7c.1,-.2,.1,-.4,.1,-.6c0,-.3,-.1,-.6,-.3,-.8c-.2,-.2,-.5,-.3,-.9,-.3c-.2,0,-.5,.1,-.8,.2c-.2,0,-.5,.2,-.8,.4v-.9c.3,-.1,.6,-.2,.9,-.2c.2,-.1,.5,-.1,.7,-.1c.6,0,1.1,.1,1.5,.4c.3,.3,.5,.7,.5,1.2c0,.3,0,.5,-.1,.7c-.1,.2,-.3,.5,-.5,.8c-.1,.1,-.3,.3,-.6,.6c-.4,.4,-.9,.9,-1.5,1.6Z" class="g9_337"/>
<path d="M702.3,115.3h.9v-1h-.9Z" class="g9_337"/>
<path d="M705.6,114.7h2.7v.6h-3.7v-.6c.3,-.3,.7,-.8,1.2,-1.3c.6,-.5,.9,-.9,1,-1c.3,-.3,.5,-.5,.6,-.7c.1,-.2,.1,-.4,.1,-.6c0,-.3,-.1,-.6,-.3,-.8c-.2,-.2,-.5,-.3,-.9,-.3c-.2,0,-.5,.1,-.8,.2c-.2,0,-.5,.2,-.9,.4v-.9c.4,-.1,.7,-.2,.9,-.2c.3,-.1,.6,-.1,.8,-.1c.6,0,1.1,.1,1.5,.4c.3,.3,.5,.7,.5,1.2c0,.3,0,.5,-.1,.7c-.1,.2,-.3,.5,-.5,.8c-.1,.1,-.3,.3,-.6,.6c-.4,.4,-.9,.9,-1.5,1.6Z" class="g9_337"/>
<path d="M710,109.5h3.1v.6h-2.4v1.5l.4,-.1h.3c.7,0,1.2,.1,1.6,.5c.4,.4,.6,.8,.6,1.5c0,.6,-.2,1.1,-.6,1.4c-.4,.4,-1,.6,-1.7,.6c-.2,0,-.5,-.1,-.7,-.1c-.3,-.1,-.6,-.1,-.8,-.2v-.8c.2,.1,.4,.2,.7,.3c.2,.1,.5,.1,.8,.1c.5,0,.8,-.1,1.1,-.4c.2,-.2,.4,-.5,.4,-.9c0,-.5,-.2,-.8,-.4,-1c-.3,-.3,-.6,-.4,-1.1,-.4c-.2,0,-.4,0,-.6,.1c-.2,0,-.5,.1,-.7,.2v-2.9Z" class="g9_337"/>
<path d="M690.7,85.9h2.8v-.8h-2.8Z" class="g9_337"/>
<path d="M699.6,85.4c.4,.1,.7,.2,.9,.5c.2,.2,.3,.6,.3,.9c0,.6,-.2,1.1,-.6,1.4c-.4,.3,-.9,.5,-1.7,.5c-.2,0,-.5,-.1,-.7,-.1c-.3,-.1,-.6,-.1,-.9,-.2v-.8c.3,.1,.5,.2,.8,.3c.2,.1,.5,.1,.8,.1c.5,0,.9,-.1,1.1,-.3c.3,-.2,.4,-.5,.4,-.9c0,-.3,-.1,-.6,-.3,-.8c-.3,-.2,-.6,-.3,-1.1,-.3H698v-.6h.7c.4,0,.7,-.1,.9,-.3c.2,-.1,.3,-.3,.3,-.6c0,-.3,-.1,-.6,-.3,-.7c-.2,-.2,-.6,-.3,-1,-.3c-.2,0,-.4,.1,-.7,.1c-.2,0,-.5,.1,-.8,.2v-.7c.3,-.1,.6,-.1,.9,-.2c.2,0,.5,0,.7,0c.6,0,1.1,.1,1.4,.4c.4,.2,.6,.6,.6,1.1c0,.3,-.1,.6,-.3,.8c-.2,.2,-.5,.4,-.8,.5Z" class="g9_337"/>
<path d="M702.3,88.5h.9v-1h-.9Z" class="g9_337"/>
<path d="M706.6,82.6c.6,0,1.1,.2,1.5,.7c.3,.6,.5,1.3,.5,2.3c0,1,-.2,1.8,-.5,2.3c-.4,.5,-.9,.8,-1.5,.8c-.7,0,-1.2,-.3,-1.5,-.8c-.4,-.5,-.5,-1.3,-.5,-2.3c0,-1,.1,-1.7,.5,-2.3c.3,-.5,.8,-.7,1.5,-.7Zm0,.6c-.4,0,-.7,.2,-.9,.6c-.2,.4,-.4,1,-.4,1.8c0,.8,.2,1.4,.4,1.8c.2,.4,.5,.6,.9,.6c.4,0,.7,-.2,.9,-.6c.2,-.4,.3,-1,.3,-1.8c0,-.8,-.1,-1.4,-.3,-1.8c-.2,-.4,-.5,-.6,-.9,-.6Z" class="g9_337"/>
<path d="M711.7,82.6c.7,0,1.2,.2,1.5,.7c.4,.6,.5,1.3,.5,2.3c0,1,-.1,1.8,-.5,2.3c-.3,.5,-.8,.8,-1.5,.8c-.7,0,-1.2,-.3,-1.5,-.8c-.3,-.5,-.5,-1.3,-.5,-2.3c0,-1,.2,-1.7,.5,-2.3c.3,-.5,.8,-.7,1.5,-.7Zm0,.6c-.4,0,-.7,.2,-.9,.6c-.2,.4,-.3,1,-.3,1.8c0,.8,.1,1.4,.3,1.8c.2,.4,.5,.6,.9,.6c.4,0,.7,-.2,.9,-.6c.2,-.4,.3,-1,.3,-1.8c0,-.8,-.1,-1.4,-.3,-1.8c-.2,-.4,-.5,-.6,-.9,-.6Z" class="g9_337"/>
<path d="M680,299.9v.4h11.1V85.1H679.6V300.3h.4v-.4h.4V85.9h9.9V299.5H680v.4h.4H680Z" class="g9_337"/>
</svg>