<?xml version="1.0" encoding="UTF-8" standalone="no"?>
<!DOCTYPE svg PUBLIC "-//W3C//DTD SVG 1.1//EN"
"http://www.w3.org/Graphics/SVG/1.1/DTD/svg11.dtd">
<svg viewBox="0 0 811 1017" version="1.1" xmlns="http://www.w3.org/2000/svg" xmlns:xlink="http://www.w3.org/1999/xlink">
<defs>
<clipPath id="c0_292"><path d="M107.7,274.4V83.2H298.9V274.4Z"/></clipPath>
<clipPath id="c1_292"><path d="M313.4,274.4V83.2H504.6V274.4Z"/></clipPath>
<clipPath id="c2_292"><path d="M519.4,274.4V83.2H710.6V274.4Z"/></clipPath>
<style type="text/css"><![CDATA[
.g0_292{
fill: #0E0E0E;
}
]]></style>
</defs>
<image clip-path="url(#c0_292)" preserveAspectRatio="none" x="108" y="83" width="191" height="191" xlink:href="img/1.jpg"/>
<image clip-path="url(#c1_292)" preserveAspectRatio="none" x="313" y="83" width="192" height="191" xlink:href="img/2.jpg"/>
<image clip-path="url(#c2_292)" preserveAspectRatio="none" x="519" y="83" width="192" height="191" xlink:href="img/3.jpg"/>
<path d="M284.9,577.2c0,.6,-.2,1.5,-.3,2.1c-.2,.6,-.7,1.7,-1.1,2.2c-.3,.3,-.8,.8,-1.2,.8c-.5,0,-.8,-.4,-.8,-.9c0,-.7,.1,-1.8,.3,-2.3c.4,-.9,1.3,-2.7,2.4,-2.7c.5,0,.7,.3,.7,.8Zm.2,5.4c.4,0,.8,-.2,1.1,-.5c.3,-.4,.6,-1,.9,-1.8l-.3,-.1c-.2,.6,-.7,1.9,-1.3,1.9c-.3,0,-.4,-.5,-.4,-.7c0,-.2,0,-.3,.1,-.5c.1,-.7,.2,-1.2,.4,-1.9c.1,-.4,.2,-1,.4,-1.6l1.6,-5.8h-2.3l-.1,.2c.5,0,.6,.1,.8,.2c.1,.1,.3,.3,.3,.4c0,.3,-.1,.6,-.2,.9l-.9,3.4c-.3,-.4,-.5,-.7,-1.1,-.7c-1,0,-1.9,1,-2.4,1.6c-.3,.3,-.5,.7,-.7,1c-.3,.6,-.6,1.4,-.6,2.2c0,.6,.2,1,.4,1.3c.2,.3,.6,.5,1,.5c1.4,0,1.9,-.8,2.4,-1.6h.1c-.1,.1,-.1,.2,-.1,.3c0,.1,0,.2,0,.3c0,.6,.3,1,.9,1Z" class="g0_292"/>
<path d="M293.3,571.8c-2.1,1.4,-3.7,3.9,-3.7,6.9c0,2.7,1.6,5.5,3.7,6.8l.1,-.2c-1.9,-1.6,-2.5,-3.4,-2.5,-6.7c0,-3.3,.6,-5,2.5,-6.5l-.1,-.3Z" class="g0_292"/>
<path d="M299.6,571.9c-2.1,1.4,-3.7,3.8,-3.7,6.8c0,2.8,1.6,5.6,3.7,6.8l.1,-.2c-1.9,-1.6,-2.5,-3.4,-2.5,-6.6c0,-3.3,.6,-5,2.5,-6.6l-.1,-.2Z" class="g0_292"/>
<path d="M308,577c0,-.5,-.5,-1,-1,-1c-.3,0,-.6,.2,-1,.4c-.3,.2,-.6,.5,-.8,.9c0,-.7,-.4,-1.3,-1.1,-1.3c-1.1,0,-2.1,1.2,-2.4,2l.2,.1c.4,-.5,1.1,-1.7,2,-1.7c.3,0,.4,.6,.4,1c0,.3,-.1,.7,-.2,1.2l-.4,1.1c-.1,.6,-.4,1.4,-.7,1.8c-.2,.3,-.4,.7,-.8,.7c-.4,0,-.7,-.1,-.6,-.5c.1,-.3,0,-.7,-.4,-.7c-.5,0,-.6,.3,-.6,.7c0,.6,.4,.9,1,.9c1,0,1.8,-.7,2.1,-1.4h.1c.1,.8,.5,1.4,1.3,1.4c1.2,0,2,-1.1,2.5,-1.8l-.2,-.2c-.5,.7,-1.2,1.7,-2,1.7c-.4,0,-.6,-.6,-.6,-1.2c0,-.4,0,-.8,.1,-1.4l.2,-.7c.1,-.6,.4,-1.2,.6,-1.6c.2,-.3,.6,-1,1,-1c.4,0,.4,.3,.3,.7c0,.4,.2,.5,.5,.5c.4,0,.5,-.2,.5,-.6Z" class="g0_292"/>
<path d="M309.6,577.8v.2c.3,0,.8,0,.9,.1c.3,.2,.3,.3,.3,.7v4.8c0,.2,0,.4,0,.5c-.1,.5,-.7,.6,-1.2,.6v.2H313v-.2c-.3,0,-.9,0,-1,-.2c-.2,-.2,-.2,-.6,-.2,-1v-6.3c-.6,.3,-1.5,.6,-2.2,.6Z" class="g0_292"/>
<path d="M316.5,581.7c0,.5,.2,.8,.7,.8c.1,0,.2,0,.4,-.1c0,.4,-.1,.7,-.3,1.1c-.3,.3,-.6,.6,-1.1,.9l.3,.5c.4,-.3,.7,-.5,.9,-.7c.5,-.5,.9,-1,.9,-2c0,-.9,-.3,-1.3,-.9,-1.3c-.6,0,-.9,.3,-.9,.8Z" class="g0_292"/>
<path d="M321.9,584.7c0,.6,.4,.9,1.1,.9c.4,0,.8,-.1,1.3,-.5c.8,-.7,2,-2.3,2.8,-3.5c.3,-.6,.7,-1.2,1,-1.8c.4,-.7,1.1,-2.1,1.1,-2.9c0,-.2,0,-.4,-.1,-.6c-.1,-.2,-.3,-.3,-.5,-.3c-.1,0,-.3,.1,-.4,.3c-.2,.1,-.2,.3,-.2,.6c0,.4,.2,.9,.2,1.3c0,.6,-.2,1.1,-.5,1.6c-.2,.5,-.4,.9,-.8,1.4h-.1l-.3,-1.9c-.1,-.6,-.3,-1.6,-.4,-2.1c-.2,-.6,-.3,-1.2,-1.3,-1.2c-1.2,0,-1.4,1.8,-1.6,2.6l.3,.1c.1,-.6,.5,-2.3,1,-2.3c.3,0,.5,1,.6,1.3c0,.2,.1,.6,.2,1.3l.6,3.5c-.3,.8,-1.2,1.7,-1.8,2.2c-.2,.2,-.5,.2,-.7,.2c-.1,0,-.2,0,-.2,-.1c-.2,-.3,-.2,-.8,-.7,-.8c-.4,0,-.6,.3,-.6,.7Z" class="g0_292"/>
<path d="M330.8,577.8v.2c.4,0,.8,0,1,.1c.3,.2,.3,.3,.3,.7v4.8c0,.2,0,.4,0,.5c-.1,.5,-.7,.6,-1.2,.6v.2h3.4v-.2c-.4,0,-.9,0,-1.1,-.2c-.1,-.2,-.1,-.6,-.1,-1v-6.3c-.6,.3,-1.6,.6,-2.3,.6Z" class="g0_292"/>
<path d="M336.8,571.9l-.1,.2c1.9,1.6,2.5,3.3,2.5,6.6c0,3.2,-.6,5,-2.5,6.6l.2,.2c2,-1.2,3.6,-4,3.6,-6.8c0,-3,-1.5,-5.4,-3.7,-6.8Z" class="g0_292"/>
<path d="M343.4,581.7c0,.5,.3,.8,.7,.8c.2,0,.3,0,.4,-.1c0,.4,0,.7,-.3,1.1c-.2,.3,-.5,.6,-1,.9l.3,.5c.4,-.3,.6,-.5,.9,-.7c.5,-.5,.9,-1,.9,-2c0,-.9,-.3,-1.3,-.9,-1.3c-.6,0,-1,.3,-1,.8Z" class="g0_292"/>
<path d="M355,571.9c-2.1,1.4,-3.6,3.8,-3.6,6.8c0,2.8,1.5,5.6,3.6,6.8l.2,-.2c-2,-1.6,-2.6,-3.4,-2.6,-6.6c0,-3.3,.6,-5,2.6,-6.6l-.2,-.2Z" class="g0_292"/>
<path d="M363.4,577c0,-.5,-.4,-1,-1,-1c-.3,0,-.6,.2,-.9,.4c-.4,.2,-.7,.5,-.9,.9c0,-.7,-.4,-1.3,-1,-1.3c-1.2,0,-2.1,1.2,-2.5,2l.2,.1c.4,-.5,1.1,-1.7,2,-1.7c.3,0,.4,.6,.4,1c0,.3,-.1,.7,-.2,1.2l-.4,1.1c-.1,.6,-.4,1.4,-.7,1.8c-.1,.3,-.4,.7,-.8,.7c-.4,0,-.7,-.1,-.6,-.5c.1,-.3,0,-.7,-.4,-.7c-.4,0,-.6,.3,-.6,.7c0,.6,.5,.9,1,.9c1,0,1.8,-.7,2.2,-1.4c.1,.8,.5,1.4,1.3,1.4c1.2,0,2,-1.1,2.5,-1.8l-.2,-.2c-.5,.7,-1.2,1.7,-2,1.7c-.4,0,-.6,-.6,-.6,-1.2c0,-.4,0,-.8,.1,-1.4l.2,-.7c.1,-.6,.4,-1.2,.6,-1.6c.2,-.3,.6,-1,1,-1c.4,0,.4,.3,.3,.7c0,.4,.2,.5,.5,.5c.4,0,.5,-.2,.5,-.6Z" class="g0_292"/>
<path d="M366.2,580.2c-.7,0,-1.1,-.5,-1.1,-1.1c0,-.8,.4,-1.7,1.3,-1.7c1.2,0,1.3,1,1.3,1.9c0,1,-.2,1.5,-.7,2.2c-.3,.4,-.6,.8,-1.1,1.3c-.5,.5,-1.1,1.1,-1.9,1.8v.3h4.6l.4,-2.1h-.3c-.1,.2,-.2,.4,-.3,.6c-.1,.3,-.4,.5,-1,.5h-2.1c.5,-.4,1,-.7,1.4,-1.1c.7,-.6,1.5,-1.4,1.9,-2.2c.2,-.4,.3,-.8,.3,-1.2c0,-.4,0,-.6,-.2,-.9c-.3,-.7,-1,-1.3,-2.1,-1.3c-.7,0,-1.4,.3,-1.8,.6c-.4,.3,-.7,.8,-.7,1.5c0,.4,.2,.8,.4,1c.2,.3,.5,.4,.9,.4c.4,0,.7,-.2,.8,-.5Z" class="g0_292"/>
<path d="M371.9,581.7c0,.5,.2,.8,.7,.8c.1,0,.2,0,.4,-.1c0,.4,-.1,.7,-.3,1.1c-.2,.3,-.6,.6,-1.1,.9l.3,.5c.4,-.3,.7,-.5,.9,-.7c.5,-.5,.9,-1,.9,-2c0,-.9,-.3,-1.3,-.9,-1.3c-.5,0,-.9,.3,-.9,.8Z" class="g0_292"/>
<path d="M377.3,584.7c0,.6,.5,.9,1.1,.9c.4,0,.8,-.1,1.3,-.5c.8,-.7,2,-2.3,2.8,-3.5c.4,-.6,.7,-1.2,1,-1.8c.4,-.7,1.1,-2.1,1.1,-2.9c0,-.2,0,-.4,-.1,-.6c-.1,-.2,-.3,-.3,-.5,-.3c-.1,0,-.3,.1,-.4,.3c-.2,.1,-.2,.3,-.2,.6c0,.4,.2,.9,.2,1.3c0,.6,-.2,1.1,-.4,1.6c-.3,.5,-.5,.9,-.9,1.4h-.1l-.3,-1.9c-.1,-.6,-.3,-1.6,-.4,-2.1c-.2,-.6,-.3,-1.2,-1.3,-1.2c-1.2,0,-1.4,1.8,-1.6,2.6l.3,.1c.1,-.6,.6,-2.3,1,-2.3c.3,0,.5,1,.6,1.3c0,.2,.1,.6,.2,1.3l.6,3.5c-.3,.8,-1.1,1.7,-1.8,2.2c-.2,.2,-.5,.2,-.7,.2q-.1,0,-.2,-.1c-.2,-.3,-.2,-.8,-.7,-.8c-.4,0,-.6,.3,-.6,.7Z" class="g0_292"/>
<path d="M387.4,580.2c-.6,0,-1,-.5,-1,-1.1c0,-.8,.4,-1.7,1.3,-1.7c1.2,0,1.3,1,1.3,1.9c0,1,-.3,1.5,-.7,2.2c-.3,.4,-.7,.8,-1.1,1.3c-.5,.5,-1.1,1.1,-1.9,1.8v.3h4.6l.3,-2.1h-.3c0,.2,-.1,.4,-.2,.6c-.1,.3,-.5,.5,-1,.5h-2.1c.5,-.4,.9,-.7,1.4,-1.1c.7,-.6,1.5,-1.4,1.9,-2.2c.2,-.4,.3,-.8,.3,-1.2c0,-.4,-.1,-.6,-.2,-.9c-.3,-.7,-1.1,-1.3,-2.2,-1.3c-.7,0,-1.3,.3,-1.7,.6c-.4,.3,-.7,.8,-.7,1.5c0,.4,.2,.8,.4,1c.2,.3,.5,.4,.9,.4c.4,0,.7,-.2,.7,-.5Z" class="g0_292"/>
<path d="M392.2,571.9l-.1,.2c1.9,1.6,2.5,3.3,2.5,6.6c0,3.2,-.5,5,-2.5,6.6l.2,.2c2,-1.2,3.6,-4,3.6,-6.8c0,-3,-1.5,-5.4,-3.7,-6.8Z" class="g0_292"/>
<path d="M397.9,571.8l-.1,.3c1.9,1.5,2.5,3.2,2.5,6.5c0,3.3,-.5,5.1,-2.5,6.7l.2,.2c2,-1.3,3.6,-4.1,3.6,-6.8c0,-3,-1.5,-5.5,-3.7,-6.9Z" class="g0_292"/>
<path d="M407.8,580.6h7.6v-.8h-7.6Zm0,-3h7.6v-.8h-7.6Z" class="g0_292"/>
<path d="M432.9,563H432l-4.2,22.8l-3.5,-7.4l-3.2,1.6l.2,.4l1.7,-.7l4.9,10.3l5,-27Z" class="g0_292"/>
<path d="M432.5,563.8h140V563h-140Z" class="g0_292"/>
<path d="M437.6,571.9c-2.1,1.4,-3.6,3.8,-3.6,6.8c0,2.8,1.5,5.6,3.6,6.8l.2,-.2c-2,-1.6,-2.6,-3.4,-2.6,-6.6c0,-3.3,.6,-5,2.6,-6.6l-.2,-.2Z" class="g0_292"/>
<path d="M446,577c0,-.5,-.4,-1,-1,-1c-.3,0,-.6,.2,-.9,.4c-.4,.2,-.7,.5,-.9,.9c0,-.7,-.4,-1.3,-1.1,-1.3c-1.1,0,-2,1.2,-2.4,2l.2,.1c.4,-.5,1.1,-1.7,2,-1.7c.3,0,.4,.6,.4,1c0,.3,-.1,.7,-.2,1.2l-.4,1.1c-.1,.6,-.4,1.4,-.7,1.8c-.1,.3,-.4,.7,-.8,.7c-.4,0,-.7,-.1,-.6,-.5c.1,-.3,0,-.7,-.4,-.7c-.5,0,-.6,.3,-.6,.7c0,.6,.4,.9,1,.9c1,0,1.8,-.7,2.1,-1.4h.1c.1,.8,.5,1.4,1.3,1.4c1.2,0,2,-1.1,2.5,-1.8l-.2,-.2c-.5,.7,-1.2,1.7,-2,1.7c-.4,0,-.6,-.6,-.6,-1.2c0,-.4,0,-.8,.1,-1.4l.2,-.7c.1,-.6,.4,-1.2,.6,-1.6c.2,-.3,.6,-1,1,-1c.4,0,.4,.3,.3,.7c0,.4,.2,.5,.5,.5c.4,0,.5,-.2,.5,-.6Z" class="g0_292"/>
<path d="M447.6,577.8v.2c.3,0,.8,0,.9,.1c.4,.2,.3,.3,.4,.7v4.8c0,.2,-.1,.4,-.1,.5c-.1,.5,-.6,.6,-1.2,.6v.2H451v-.2c-.3,0,-.9,0,-1,-.2c-.2,-.2,-.2,-.6,-.2,-1v-6.3c-.6,.3,-1.5,.6,-2.2,.6Z" class="g0_292"/>
<path d="M457.2,579.1h7.6v-.8h-7.6Z" class="g0_292"/>
<path d="M476.3,577c0,-.5,-.5,-1,-1,-1c-.3,0,-.7,.2,-1,.4c-.3,.2,-.6,.5,-.8,.9c0,-.7,-.4,-1.3,-1.1,-1.3c-1.1,0,-2.1,1.2,-2.4,2l.2,.1c.4,-.5,1.1,-1.7,2,-1.7c.2,0,.4,.6,.4,1c0,.3,-.1,.7,-.2,1.2l-.4,1.1c-.1,.6,-.4,1.4,-.7,1.8c-.2,.3,-.4,.7,-.8,.7c-.4,0,-.7,-.1,-.6,-.5c.1,-.3,0,-.7,-.4,-.7c-.5,0,-.6,.3,-.6,.7c0,.6,.4,.9,1,.9c1,0,1.7,-.7,2.1,-1.4h.1c.1,.8,.5,1.4,1.3,1.4c1.2,0,2,-1.1,2.5,-1.8l-.2,-.2c-.5,.7,-1.2,1.7,-2,1.7c-.5,0,-.7,-.6,-.7,-1.2c0,-.4,.1,-.8,.2,-1.4l.2,-.7c.1,-.6,.4,-1.2,.6,-1.6c.2,-.3,.6,-1,1,-1c.4,0,.3,.3,.3,.7c0,.4,.1,.5,.5,.5c.3,0,.5,-.2,.5,-.6Z" class="g0_292"/>
<path d="M479,580.2c-.6,0,-1,-.5,-1,-1.1c0,-.8,.4,-1.7,1.3,-1.7c1.2,0,1.3,1,1.3,1.9c0,1,-.3,1.5,-.7,2.2c-.3,.4,-.7,.8,-1.1,1.3c-.5,.5,-1.1,1.1,-1.9,1.8v.3h4.6l.3,-2.1h-.3c0,.2,-.1,.4,-.2,.6c-.1,.3,-.5,.5,-1,.5h-2.1c.5,-.4,.9,-.7,1.4,-1.1c.7,-.6,1.5,-1.4,1.9,-2.2c.2,-.4,.3,-.8,.3,-1.2c0,-.4,-.1,-.6,-.2,-.9c-.3,-.7,-1.1,-1.3,-2.2,-1.3c-.7,0,-1.3,.3,-1.7,.6c-.4,.3,-.7,.8,-.7,1.5c0,.4,.2,.8,.4,1c.2,.3,.5,.4,.9,.4c.4,0,.7,-.2,.7,-.5Z" class="g0_292"/>
<path d="M483.8,571.9l-.1,.2c1.9,1.6,2.5,3.3,2.5,6.6c0,3.2,-.6,5,-2.5,6.6l.2,.2c2,-1.2,3.6,-4,3.6,-6.8c0,-3,-1.5,-5.4,-3.7,-6.8Z" class="g0_292"/>
<path d="M491.6,573.5c-.7,0,-1.1,-.4,-1.1,-1.1c0,-.8,.4,-1.6,1.3,-1.6c1.2,0,1.4,.9,1.4,1.9c0,.9,-.3,1.4,-.7,2.1c-.3,.4,-.7,.9,-1.2,1.3c-.5,.6,-1.1,1.1,-1.8,1.8v.3H494l.4,-2.1h-.3c-.1,.3,-.2,.4,-.2,.6c-.2,.4,-.5,.6,-1,.6h-2.1l-.1,-.1c.5,-.3,1,-.7,1.4,-1.1c.8,-.6,1.6,-1.3,2,-2.2c.2,-.4,.3,-.8,.3,-1.2c0,-.3,-.1,-.6,-.2,-.9c-.4,-.7,-1.1,-1.2,-2.2,-1.2c-.7,0,-1.3,.2,-1.7,.5c-.4,.4,-.7,.9,-.7,1.5c0,.5,.1,.8,.3,1.1c.2,.2,.5,.4,.9,.4c.4,0,.7,-.2,.8,-.6Z" class="g0_292"/>
<path d="M502.8,578.3h-3.2v1h3.2v3.2h1v-3.2h3.3v-1h-3.3V575h-1v3.3Z" class="g0_292"/>
<path d="M516,571.9c-2.2,1.4,-3.7,3.8,-3.7,6.8c0,2.8,1.6,5.6,3.6,6.8l.2,-.2c-1.9,-1.6,-2.5,-3.4,-2.5,-6.6c0,-3.3,.6,-5,2.5,-6.6l-.1,-.2Z" class="g0_292"/>
<path d="M516.1,584.7c0,.6,.5,.9,1.1,.9c.5,0,.8,-.1,1.3,-.5c.8,-.7,2.1,-2.3,2.8,-3.5c.4,-.6,.8,-1.2,1.1,-1.8c.4,-.7,1.1,-2.1,1.1,-2.9c0,-.2,-.1,-.4,-.2,-.6c-.1,-.2,-.2,-.3,-.4,-.3c-.2,0,-.3,.1,-.5,.3c-.1,.1,-.2,.3,-.2,.6c0,.4,.2,.9,.2,1.3c0,.6,-.2,1.1,-.4,1.6c-.3,.5,-.5,.9,-.8,1.4h-.1l-.3,-1.9c-.1,-.6,-.3,-1.6,-.5,-2.1c-.1,-.6,-.3,-1.2,-1.3,-1.2c-1.1,0,-1.3,1.8,-1.6,2.6l.3,.1c.2,-.6,.6,-2.3,1.1,-2.3c.3,0,.4,1,.5,1.3c.1,.2,.2,.6,.3,1.3l.6,3.5c-.4,.8,-1.2,1.7,-1.8,2.2c-.2,.2,-.6,.2,-.7,.2c-.1,0,-.2,0,-.3,-.1c-.2,-.3,-.2,-.8,-.6,-.8c-.5,0,-.7,.3,-.7,.7Z" class="g0_292"/>
<path d="M525.1,577.8v.2c.3,0,.8,0,.9,.1c.4,.2,.4,.3,.4,.7v4.8c0,.2,0,.4,-.1,.5c0,.5,-.6,.6,-1.2,.6v.2h3.5v-.2c-.4,0,-.9,0,-1.1,-.2c-.2,-.2,-.2,-.6,-.2,-1v-6.3c-.5,.3,-1.5,.6,-2.2,.6Z" class="g0_292"/>
<path d="M534.7,579.1h7.6v-.8h-7.6Z" class="g0_292"/>
<path d="M545.6,584.7c0,.6,.5,.9,1.1,.9c.4,0,.8,-.1,1.3,-.5c.8,-.7,2,-2.3,2.8,-3.5c.3,-.6,.7,-1.2,1,-1.8c.4,-.7,1.1,-2.1,1.1,-2.9c0,-.2,0,-.4,-.1,-.6c-.1,-.2,-.3,-.3,-.5,-.3c-.1,0,-.3,.1,-.4,.3c-.2,.1,-.2,.3,-.2,.6c0,.4,.2,.9,.2,1.3c0,.6,-.2,1.1,-.5,1.6c-.2,.5,-.4,.9,-.8,1.4h-.1l-.3,-1.9c-.1,-.6,-.3,-1.6,-.4,-2.1c-.2,-.6,-.3,-1.2,-1.3,-1.2c-1.2,0,-1.4,1.8,-1.6,2.6l.3,.1c.1,-.6,.5,-2.3,1,-2.3c.3,0,.5,1,.6,1.3c0,.2,.1,.6,.2,1.3l.6,3.5c-.3,.8,-1.2,1.7,-1.8,2.2c-.2,.2,-.5,.2,-.7,.2c-.1,0,-.2,0,-.2,-.1c-.2,-.3,-.2,-.8,-.7,-.8c-.4,0,-.6,.3,-.6,.7Z" class="g0_292"/>
<path d="M555.7,580.2c-.6,0,-1,-.5,-1,-1.1c0,-.8,.4,-1.7,1.3,-1.7c1.2,0,1.3,1,1.3,1.9c0,1,-.3,1.5,-.7,2.2c-.3,.4,-.7,.8,-1.1,1.3c-.5,.5,-1.1,1.1,-1.9,1.8v.3h4.6l.3,-2.1h-.3c0,.2,-.1,.4,-.2,.6c-.2,.3,-.5,.5,-1,.5h-2.1c.5,-.4,.9,-.7,1.4,-1.1c.7,-.6,1.5,-1.4,1.9,-2.2c.2,-.4,.3,-.8,.3,-1.2c0,-.4,-.1,-.6,-.2,-.9c-.3,-.7,-1.1,-1.3,-2.2,-1.3c-.7,0,-1.3,.3,-1.7,.6c-.4,.3,-.7,.8,-.7,1.5c0,.4,.1,.8,.4,1c.2,.3,.5,.4,.9,.4c.4,0,.7,-.2,.7,-.5Z" class="g0_292"/>
<path d="M560.5,571.9l-.1,.2c1.9,1.6,2.5,3.3,2.5,6.6c0,3.2,-.6,5,-2.5,6.6l.2,.2c2,-1.2,3.6,-4,3.6,-6.8c0,-3,-1.5,-5.4,-3.7,-6.8Z" class="g0_292"/>
<path d="M568.3,573.5c-.7,0,-1.1,-.4,-1.1,-1.1c0,-.8,.4,-1.6,1.3,-1.6c1.2,0,1.4,.9,1.4,1.9c0,.9,-.3,1.4,-.8,2.1c-.2,.4,-.6,.9,-1.1,1.3c-.5,.6,-1.1,1.1,-1.8,1.8v.3h4.5l.4,-2.1h-.3c-.1,.3,-.2,.4,-.2,.6c-.2,.4,-.5,.6,-1,.6h-2.1l-.1,-.1c.5,-.3,1,-.7,1.4,-1.1c.8,-.6,1.5,-1.3,2,-2.2c.1,-.4,.2,-.8,.2,-1.2c0,-.3,0,-.6,-.1,-.9c-.4,-.7,-1.1,-1.2,-2.2,-1.2c-.7,0,-1.3,.2,-1.7,.5c-.4,.4,-.7,.9,-.7,1.5c0,.5,.1,.8,.3,1.1c.2,.2,.5,.4,.9,.4c.4,0,.7,-.2,.8,-.6Z" class="g0_292"/>
<path d="M225.2,672.3c0,.6,-.2,1.6,-.4,2.1c-.2,.6,-.7,1.7,-1.1,2.2c-.2,.3,-.7,.8,-1.2,.8c-.5,0,-.8,-.4,-.8,-.9c0,-.7,.2,-1.8,.4,-2.3c.4,-.9,1.2,-2.7,2.4,-2.7c.4,0,.7,.3,.7,.8Zm.2,5.4c.4,0,.7,-.1,1.1,-.5c.3,-.4,.6,-1,.9,-1.8l-.4,-.1c-.2,.6,-.7,1.9,-1.2,1.9c-.3,0,-.4,-.4,-.4,-.7c0,-.2,0,-.3,0,-.5c.1,-.7,.3,-1.2,.4,-1.9c.1,-.4,.3,-1,.5,-1.6l1.5,-5.8h-2.2l-.1,.2c.4,0,.6,.1,.7,.2c.2,.1,.3,.3,.3,.4c0,.3,-.1,.6,-.1,.9l-1,3.4c-.2,-.4,-.4,-.6,-1,-.6c-1,0,-1.9,.9,-2.5,1.5c-.2,.4,-.4,.7,-.6,1c-.4,.6,-.6,1.4,-.6,2.2c0,.6,.1,1,.4,1.3c.2,.3,.6,.5,1,.5c1.4,0,1.9,-.8,2.4,-1.6c0,.1,0,.2,0,.3c0,.1,0,.2,0,.3c0,.6,.2,1,.9,1Z" class="g0_292"/>
<path d="M233.6,667c-2.2,1.4,-3.7,3.8,-3.7,6.8c0,2.8,1.6,5.5,3.6,6.8l.2,-.2c-2,-1.6,-2.5,-3.4,-2.5,-6.7c0,-3.3,.6,-5,2.5,-6.5l-.1,-.2Z" class="g0_292"/>
<path d="M239.9,667c-2.2,1.4,-3.7,3.8,-3.7,6.8c0,2.8,1.6,5.6,3.6,6.8l.2,-.2c-1.9,-1.6,-2.5,-3.3,-2.5,-6.6c0,-3.3,.6,-5,2.5,-6.6l-.1,-.2Z" class="g0_292"/>
<path d="M248.3,672.1c0,-.5,-.5,-.9,-1,-.9c-.3,0,-.7,.1,-1,.3c-.3,.2,-.6,.5,-.8,.9c0,-.7,-.5,-1.2,-1.1,-1.2c-1.1,0,-2.1,1.1,-2.4,1.9l.2,.1c.3,-.5,1.1,-1.7,2,-1.7c.2,0,.3,.6,.3,1c0,.3,0,.7,-.2,1.2l-.3,1.1c-.2,.6,-.4,1.4,-.7,1.8c-.2,.3,-.5,.7,-.8,.7c-.4,0,-.7,-.1,-.6,-.5c0,-.3,0,-.7,-.4,-.7c-.5,0,-.7,.3,-.7,.7c0,.6,.5,.9,1.1,.9c1,0,1.7,-.7,2.1,-1.4c.1,.8,.5,1.4,1.4,1.4c1.2,0,2,-1.1,2.4,-1.8l-.2,-.2c-.5,.7,-1.1,1.7,-1.9,1.7c-.5,0,-.7,-.6,-.7,-1.2c0,-.4,.1,-.8,.2,-1.4l.2,-.7c.1,-.6,.3,-1.2,.6,-1.6c.2,-.3,.6,-.9,.9,-.9c.5,0,.4,.2,.4,.6c0,.4,.1,.5,.5,.5c.3,0,.5,-.2,.5,-.6Z" class="g0_292"/>
<path d="M249.8,672.9v.2c.3,0,.8,0,1,.1c.3,.2,.3,.3,.3,.7v4.8c0,.2,0,.4,0,.6c-.1,.4,-.7,.5,-1.2,.5v.2h3.4v-.2c-.4,0,-.9,0,-1.1,-.2c-.1,-.2,-.1,-.6,-.1,-1v-6.2c-.6,.2,-1.6,.5,-2.3,.5Z" class="g0_292"/>
<path d="M256.7,676.8c0,.5,.3,.8,.7,.8c.2,0,.3,0,.4,-.1c0,.4,-.1,.8,-.3,1.1c-.2,.3,-.5,.6,-1,.9l.3,.5c.3,-.3,.6,-.5,.8,-.7c.6,-.5,1,-1,1,-2c0,-.8,-.3,-1.3,-1,-1.3c-.5,0,-.9,.3,-.9,.8Z" class="g0_292"/>
<path d="M262.1,679.8c0,.6,.5,1,1.1,1c.5,0,.8,-.2,1.3,-.6c.8,-.7,2.1,-2.3,2.8,-3.5c.4,-.6,.8,-1.2,1.1,-1.8c.4,-.7,1.1,-2.1,1.1,-2.9c0,-.2,-.1,-.4,-.2,-.6c0,-.2,-.2,-.2,-.4,-.2c-.2,0,-.3,0,-.5,.2c-.1,.1,-.2,.3,-.2,.6c0,.4,.3,.9,.3,1.3c0,.6,-.3,1.2,-.5,1.6c-.2,.5,-.5,.9,-.8,1.4h-.1l-.3,-1.9c-.1,-.5,-.3,-1.6,-.4,-2c-.2,-.7,-.4,-1.2,-1.4,-1.2c-1.1,0,-1.3,1.7,-1.6,2.5l.3,.1c.2,-.6,.6,-2.3,1.1,-2.3c.3,0,.5,1,.5,1.3c.1,.3,.2,.7,.3,1.3l.6,3.5c-.4,.8,-1.2,1.7,-1.8,2.2c-.2,.2,-.6,.2,-.7,.2c-.1,0,-.2,0,-.3,-.1c-.2,-.3,-.2,-.8,-.6,-.8c-.4,0,-.7,.3,-.7,.7Z" class="g0_292"/>
<path d="M271.1,672.9v.2c.3,0,.8,0,1,.1c.3,.2,.3,.3,.3,.7v4.8c0,.2,0,.4,-.1,.6c0,.4,-.6,.5,-1.1,.5v.2h3.4v-.2c-.4,0,-.9,0,-1.1,-.2c-.1,-.2,-.2,-.6,-.2,-1v-6.2c-.5,.2,-1.5,.5,-2.2,.5Z" class="g0_292"/>
<path d="M278,676.8c0,.5,.3,.8,.7,.8c.1,0,.3,0,.4,-.1c0,.4,-.1,.8,-.3,1.1c-.2,.3,-.6,.6,-1,.9l.3,.5c.3,-.3,.6,-.5,.8,-.7c.5,-.5,1,-1,1,-2c0,-.8,-.4,-1.3,-1,-1.3c-.5,0,-.9,.3,-.9,.8Z" class="g0_292"/>
<path d="M286.2,673.5c.4,0,.5,-.1,.5,-.4c0,-.5,-.5,-.4,-.7,-.8c-.1,-.2,.1,-.3,.4,-.3c.9,0,1.4,1,2.6,1l-3.4,3.1c-.4,.4,-.7,.8,-.7,1.2c0,.2,.1,.3,.2,.3c.7,0,.2,-.8,.9,-.8c1,0,1.5,.9,2.6,.9c1.2,0,1.6,-1.1,1.8,-2.1h-.3c-.2,.5,-.5,1.1,-1.1,1.1c-.9,0,-1.7,-.8,-2.7,-.8c1.4,-1.3,2.6,-2.3,3.8,-3.6c.2,-.2,.4,-.4,.4,-.7c0,-.2,-.1,-.3,-.2,-.3c-.3,0,-.4,.2,-.5,.4c-.1,.2,-.3,.3,-.6,.3c-.9,0,-1.5,-.8,-2.5,-.8c-.7,0,-1.4,.5,-1.4,1.4c0,.5,.4,.9,.9,.9Z" class="g0_292"/>
<path d="M292.4,672.9v.2c.3,0,.8,0,1,.1c.3,.2,.3,.3,.3,.7v4.8c0,.2,0,.4,0,.6c-.1,.4,-.7,.5,-1.2,.5v.2h3.4v-.2c-.4,0,-.9,0,-1.1,-.2c-.1,-.2,-.1,-.6,-.1,-1v-6.2c-.6,.2,-1.6,.5,-2.3,.5Z" class="g0_292"/>
<path d="M298.4,667l-.1,.2c1.9,1.6,2.5,3.3,2.5,6.6c0,3.3,-.6,5,-2.5,6.6l.1,.2c2.1,-1.2,3.7,-4,3.7,-6.8c0,-3,-1.5,-5.4,-3.7,-6.8Z" class="g0_292"/>
<path d="M305,676.8c0,.5,.3,.8,.7,.8c.2,0,.3,0,.4,-.1c0,.4,-.1,.8,-.3,1.1c-.2,.3,-.5,.6,-1,.9l.3,.5c.4,-.3,.6,-.5,.9,-.7c.5,-.5,.9,-1,.9,-2c0,-.8,-.3,-1.3,-1,-1.3c-.5,0,-.9,.3,-.9,.8Z" class="g0_292"/>
<path d="M316.6,667c-2.1,1.4,-3.6,3.8,-3.6,6.8c0,2.8,1.5,5.6,3.6,6.8l.2,-.2c-2,-1.6,-2.6,-3.3,-2.6,-6.6c0,-3.3,.6,-5,2.6,-6.6l-.2,-.2Z" class="g0_292"/>
<path d="M325,672.1c0,-.5,-.4,-.9,-1,-.9c-.3,0,-.6,.1,-.9,.3c-.4,.2,-.7,.5,-.9,.9c0,-.7,-.4,-1.2,-1.1,-1.2c-1.1,0,-2,1.1,-2.4,1.9l.2,.1c.4,-.5,1.1,-1.7,2,-1.7c.3,0,.4,.6,.4,1c0,.3,-.1,.7,-.2,1.2l-.4,1.1c-.1,.6,-.4,1.4,-.7,1.8c-.1,.3,-.4,.7,-.8,.7c-.4,0,-.7,-.1,-.6,-.5c.1,-.3,0,-.7,-.4,-.7c-.5,0,-.6,.3,-.6,.7c0,.6,.4,.9,1,.9c1,0,1.8,-.7,2.1,-1.4h.1c.1,.8,.5,1.4,1.3,1.4c1.2,0,2,-1.1,2.5,-1.8l-.2,-.2c-.5,.7,-1.2,1.7,-2,1.7c-.4,0,-.6,-.6,-.6,-1.2c0,-.4,0,-.8,.1,-1.4l.2,-.7c.1,-.6,.4,-1.2,.6,-1.6c.2,-.3,.6,-.9,1,-.9c.4,0,.4,.2,.3,.6c0,.4,.2,.5,.5,.5c.4,0,.5,-.2,.5,-.6Z" class="g0_292"/>
<path d="M327.8,675.3c-.7,0,-1.1,-.4,-1.1,-1.1c0,-.8,.4,-1.7,1.3,-1.7c1.2,0,1.3,1,1.3,1.9c0,1,-.2,1.5,-.7,2.2c-.3,.4,-.7,.8,-1.1,1.3c-.5,.5,-1.1,1.1,-1.9,1.8v.3h4.6l.4,-2.1h-.3c-.1,.2,-.2,.4,-.3,.6c-.1,.3,-.4,.5,-1,.5h-2.1c.5,-.4,1,-.7,1.4,-1.1c.7,-.6,1.5,-1.4,1.9,-2.2c.2,-.4,.3,-.8,.3,-1.2c0,-.3,-.1,-.6,-.2,-.9c-.3,-.7,-1.1,-1.3,-2.1,-1.3c-.8,0,-1.4,.3,-1.8,.6c-.4,.3,-.7,.8,-.7,1.5c0,.5,.2,.8,.4,1c.2,.3,.5,.4,.9,.4c.4,0,.7,-.1,.8,-.5Z" class="g0_292"/>
<path d="M333.5,676.8c0,.5,.2,.8,.7,.8c.1,0,.2,0,.4,-.1c0,.4,-.1,.8,-.3,1.1c-.2,.3,-.6,.6,-1.1,.9l.3,.5c.4,-.3,.7,-.5,.9,-.7c.5,-.5,.9,-1,.9,-2c0,-.8,-.3,-1.3,-.9,-1.3c-.6,0,-.9,.3,-.9,.8Z" class="g0_292"/>
<path d="M338.9,679.8c0,.6,.5,1,1.1,1c.4,0,.8,-.2,1.3,-.6c.8,-.7,2,-2.3,2.8,-3.5c.4,-.6,.7,-1.2,1,-1.8c.4,-.7,1.1,-2.1,1.1,-2.9c0,-.2,0,-.4,-.1,-.6c-.1,-.2,-.3,-.2,-.5,-.2c-.1,0,-.3,0,-.4,.2c-.2,.1,-.2,.3,-.2,.6c0,.4,.2,.9,.2,1.3c0,.6,-.2,1.2,-.5,1.6c-.2,.5,-.4,.9,-.8,1.4h-.1l-.3,-1.9c-.1,-.5,-.3,-1.6,-.4,-2c-.2,-.7,-.3,-1.2,-1.3,-1.2c-1.2,0,-1.4,1.7,-1.6,2.5l.3,.1c.1,-.6,.5,-2.3,1,-2.3c.3,0,.5,1,.6,1.3c0,.3,.1,.7,.2,1.3l.6,3.5c-.3,.8,-1.2,1.7,-1.8,2.2c-.2,.2,-.5,.2,-.7,.2c-.1,0,-.2,0,-.2,-.1c-.2,-.3,-.2,-.8,-.7,-.8c-.4,0,-.6,.3,-.6,.7Z" class="g0_292"/>
<path d="M349,675.3c-.6,0,-1,-.4,-1,-1.1c0,-.8,.4,-1.7,1.3,-1.7c1.2,0,1.3,1,1.3,1.9c0,1,-.3,1.5,-.7,2.2c-.3,.4,-.7,.8,-1.1,1.3c-.5,.5,-1.1,1.1,-1.9,1.8v.3h4.6l.3,-2.1h-.3c0,.2,-.1,.4,-.2,.6c-.2,.3,-.5,.5,-1,.5h-2.1c.5,-.4,.9,-.7,1.4,-1.1c.7,-.6,1.5,-1.4,1.9,-2.2c.2,-.4,.3,-.8,.3,-1.2c0,-.3,-.1,-.6,-.2,-.9c-.3,-.7,-1.1,-1.3,-2.2,-1.3c-.7,0,-1.3,.3,-1.7,.6c-.4,.3,-.7,.8,-.7,1.5c0,.5,.1,.8,.4,1c.2,.3,.5,.4,.9,.4c.4,0,.7,-.1,.7,-.5Z" class="g0_292"/>
<path d="M354.7,676.8c0,.5,.3,.8,.7,.8c.2,0,.3,0,.4,-.1c0,.4,-.1,.8,-.3,1.1c-.2,.3,-.5,.6,-1,.9l.3,.5c.4,-.3,.6,-.5,.9,-.7c.5,-.5,.9,-1,.9,-2c0,-.8,-.3,-1.3,-1,-1.3c-.5,0,-.9,.3,-.9,.8Z" class="g0_292"/>
<path d="M363,673.5c.3,0,.5,-.1,.5,-.4c0,-.5,-.6,-.4,-.7,-.8c-.1,-.2,0,-.3,.3,-.3c.9,0,1.4,1,2.6,1l-3.4,3.1c-.4,.4,-.7,.8,-.7,1.2c0,.2,.2,.3,.3,.3c.7,0,.2,-.8,.9,-.8c.9,0,1.5,.9,2.5,.9c1.2,0,1.6,-1.1,1.9,-2.1h-.3c-.2,.5,-.6,1.1,-1.2,1.1c-.9,0,-1.7,-.8,-2.6,-.8c1.3,-1.3,2.5,-2.3,3.8,-3.6c.2,-.2,.4,-.4,.4,-.7c0,-.2,-.1,-.3,-.3,-.3c-.3,0,-.3,.2,-.4,.4c-.1,.2,-.4,.3,-.7,.3c-.8,0,-1.4,-.8,-2.5,-.8c-.7,0,-1.3,.5,-1.3,1.4c0,.5,.3,.9,.9,.9Z" class="g0_292"/>
<path d="M370.4,675.3c-.7,0,-1.1,-.4,-1.1,-1.1c0,-.8,.4,-1.7,1.3,-1.7c1.2,0,1.3,1,1.3,1.9c0,1,-.2,1.5,-.7,2.2c-.3,.4,-.6,.8,-1.1,1.3c-.5,.5,-1.1,1.1,-1.9,1.8v.3h4.6l.4,-2.1h-.3c-.1,.2,-.2,.4,-.3,.6c-.1,.3,-.4,.5,-1,.5h-2.1c.5,-.4,1,-.7,1.4,-1.1c.7,-.6,1.5,-1.4,1.9,-2.2c.2,-.4,.3,-.8,.3,-1.2c0,-.3,-.1,-.6,-.2,-.9c-.3,-.7,-1,-1.3,-2.1,-1.3c-.7,0,-1.4,.3,-1.8,.6c-.4,.3,-.7,.8,-.7,1.5c0,.5,.2,.8,.4,1c.2,.3,.5,.4,.9,.4c.4,0,.7,-.1,.8,-.5Z" class="g0_292"/>
<path d="M375.1,667l-.1,.2c1.9,1.6,2.5,3.3,2.5,6.6c0,3.3,-.5,5,-2.5,6.6l.2,.2c2,-1.2,3.6,-4,3.6,-6.8c0,-3,-1.5,-5.4,-3.7,-6.8Z" class="g0_292"/>
<path d="M380.9,667l-.2,.2c1.9,1.5,2.5,3.2,2.5,6.5c0,3.3,-.5,5.1,-2.5,6.7l.2,.2c2,-1.3,3.6,-4,3.6,-6.8c0,-3,-1.5,-5.4,-3.6,-6.8Z" class="g0_292"/>
<path d="M390.7,675.7h7.6v-.8h-7.6Zm0,-3h7.6v-.8h-7.6Z" class="g0_292"/>
<path d="M415.8,658.1H415l-4.3,22.8l-3.5,-7.4l-3.2,1.6l.2,.4l1.7,-.7l4.9,10.3l5,-27Z" class="g0_292"/>
<path d="M415.4,658.9H632.2v-.8H415.4Z" class="g0_292"/>
<path d="M420.5,667c-2.1,1.4,-3.6,3.8,-3.6,6.8c0,2.8,1.5,5.6,3.6,6.8l.2,-.2c-2,-1.6,-2.6,-3.3,-2.6,-6.6c0,-3.3,.7,-5,2.6,-6.6l-.2,-.2Z" class="g0_292"/>
<path d="M428.9,672.1c0,-.5,-.4,-.9,-1,-.9c-.3,0,-.6,.1,-.9,.3c-.3,.2,-.7,.5,-.9,.9c0,-.7,-.4,-1.2,-1,-1.2c-1.2,0,-2.1,1.1,-2.5,1.9l.2,.1c.4,-.5,1.1,-1.7,2,-1.7c.3,0,.4,.6,.4,1c0,.3,-.1,.7,-.2,1.2l-.4,1.1c-.1,.6,-.4,1.4,-.7,1.8c-.1,.3,-.4,.7,-.8,.7c-.4,0,-.7,-.1,-.6,-.5c.1,-.3,0,-.7,-.4,-.7c-.4,0,-.6,.3,-.6,.7c0,.6,.5,.9,1,.9c1,0,1.8,-.7,2.2,-1.4c.1,.8,.5,1.4,1.3,1.4c1.2,0,2,-1.1,2.5,-1.8l-.2,-.2c-.5,.7,-1.2,1.7,-2,1.7c-.4,0,-.6,-.6,-.6,-1.2c0,-.4,0,-.8,.2,-1.4l.1,-.7c.1,-.6,.4,-1.2,.7,-1.6c.1,-.3,.5,-.9,.9,-.9c.4,0,.4,.2,.3,.6c0,.4,.2,.5,.5,.5c.4,0,.5,-.2,.5,-.6Z" class="g0_292"/>
<path d="M430.5,672.9v.2c.3,0,.8,0,.9,.1c.4,.2,.3,.3,.4,.7v4.8c0,.2,0,.4,-.1,.6c0,.4,-.6,.5,-1.2,.5v.2H434v-.2c-.4,0,-1,0,-1.1,-.2c-.2,-.2,-.2,-.6,-.2,-1v-6.2c-.6,.2,-1.5,.5,-2.2,.5Z" class="g0_292"/>
<path d="M440.1,674.2h7.6v-.8h-7.6Z" class="g0_292"/>
<path d="M459.2,672.1c0,-.5,-.4,-.9,-1,-.9c-.3,0,-.6,.1,-.9,.3c-.4,.2,-.7,.5,-.9,.9c0,-.7,-.4,-1.2,-1.1,-1.2c-1.1,0,-2,1.1,-2.4,1.9l.2,.1c.4,-.5,1.1,-1.7,2,-1.7c.3,0,.4,.6,.4,1c0,.3,-.1,.7,-.2,1.2l-.4,1.1c-.1,.6,-.4,1.4,-.7,1.8c-.1,.3,-.4,.7,-.8,.7c-.4,0,-.7,-.1,-.6,-.5c.1,-.3,0,-.7,-.4,-.7c-.5,0,-.6,.3,-.6,.7c0,.6,.4,.9,1,.9c1,0,1.8,-.7,2.1,-1.4h.1c.1,.8,.5,1.4,1.3,1.4c1.2,0,2,-1.1,2.5,-1.8l-.2,-.2c-.5,.7,-1.2,1.7,-2,1.7c-.4,0,-.6,-.6,-.6,-1.2c0,-.4,0,-.8,.1,-1.4l.2,-.7c.1,-.6,.4,-1.2,.6,-1.6c.2,-.3,.6,-.9,1,-.9c.4,0,.4,.2,.3,.6c0,.4,.2,.5,.5,.5c.4,0,.5,-.2,.5,-.6Z" class="g0_292"/>
<path d="M462,675.3c-.7,0,-1.1,-.4,-1.1,-1.1c0,-.8,.4,-1.7,1.3,-1.7c1.2,0,1.3,1,1.3,1.9c0,1,-.2,1.5,-.7,2.2c-.3,.4,-.7,.8,-1.1,1.3c-.5,.5,-1.1,1.1,-1.9,1.8v.3h4.6l.4,-2.1h-.3c-.1,.2,-.2,.4,-.3,.6c-.1,.3,-.4,.5,-1,.5h-2.1c.5,-.4,1,-.7,1.4,-1.1c.7,-.6,1.5,-1.4,1.9,-2.2c.2,-.4,.3,-.8,.3,-1.2c0,-.3,-.1,-.6,-.2,-.9c-.3,-.7,-1.1,-1.3,-2.1,-1.3c-.8,0,-1.4,.3,-1.8,.6c-.4,.3,-.7,.8,-.7,1.5c0,.5,.2,.8,.4,1c.2,.3,.5,.4,.9,.4c.4,0,.7,-.1,.8,-.5Z" class="g0_292"/>
<path d="M466.7,667l-.1,.2c1.9,1.6,2.5,3.3,2.5,6.6c0,3.3,-.5,5,-2.5,6.6l.2,.2c2,-1.2,3.6,-4,3.6,-6.8c0,-3,-1.5,-5.4,-3.7,-6.8Z" class="g0_292"/>
<path d="M474.5,668.7c-.7,0,-1.1,-.5,-1.1,-1.2c0,-.8,.5,-1.6,1.4,-1.6c1.2,0,1.3,1,1.3,1.9c0,.9,-.3,1.5,-.7,2.1c-.3,.4,-.7,.9,-1.2,1.3c-.4,.6,-1.1,1.1,-1.8,1.8v.3H477l.3,-2.1H477c0,.3,-.1,.5,-.2,.6c-.2,.4,-.5,.6,-1,.6h-2.1v-.1c.4,-.3,.9,-.7,1.3,-1.1c.8,-.6,1.6,-1.3,2,-2.2c.2,-.4,.3,-.8,.3,-1.2c0,-.3,-.1,-.6,-.2,-.9c-.4,-.7,-1.1,-1.2,-2.2,-1.2c-.7,0,-1.3,.2,-1.7,.5c-.4,.4,-.7,.9,-.7,1.5c0,.5,.1,.8,.4,1.1c.1,.2,.4,.4,.9,.4c.4,0,.6,-.2,.7,-.5Z" class="g0_292"/>
<path d="M485.7,673.4h-3.2v1h3.2v3.2h1v-3.2H490v-1h-3.3v-3.3h-1v3.3Z" class="g0_292"/>
<path d="M498.9,667c-2.2,1.4,-3.7,3.8,-3.7,6.8c0,2.8,1.6,5.6,3.7,6.8l.1,-.2c-1.9,-1.6,-2.5,-3.3,-2.5,-6.6c0,-3.3,.6,-5,2.5,-6.6l-.1,-.2Z" class="g0_292"/>
<path d="M499,679.8c0,.6,.5,1,1.1,1c.5,0,.8,-.2,1.3,-.6c.9,-.7,2.1,-2.3,2.8,-3.5c.4,-.6,.8,-1.2,1.1,-1.8c.4,-.7,1.1,-2.1,1.1,-2.9c0,-.2,-.1,-.4,-.1,-.6c-.1,-.2,-.3,-.2,-.5,-.2c-.2,0,-.3,0,-.5,.2c-.1,.1,-.2,.3,-.2,.6c0,.4,.3,.9,.3,1.3c0,.6,-.3,1.2,-.5,1.6c-.2,.5,-.5,.9,-.8,1.4H504l-.3,-1.9c-.1,-.5,-.3,-1.6,-.4,-2c-.2,-.7,-.4,-1.2,-1.4,-1.2c-1.1,0,-1.3,1.7,-1.6,2.5l.3,.1c.2,-.6,.6,-2.3,1.1,-2.3c.3,0,.5,1,.5,1.3c.1,.3,.2,.7,.3,1.3l.6,3.5c-.4,.8,-1.2,1.7,-1.8,2.2c-.2,.2,-.5,.2,-.7,.2c-.1,0,-.2,0,-.3,-.1c-.2,-.3,-.2,-.8,-.6,-.8c-.4,0,-.7,.3,-.7,.7Z" class="g0_292"/>
<path d="M508,672.9v.2c.3,0,.8,0,1,.1c.3,.2,.3,.3,.3,.7v4.8c0,.2,0,.4,-.1,.6c0,.4,-.6,.5,-1.1,.5v.2h3.4v-.2c-.4,0,-.9,0,-1.1,-.2c-.1,-.2,-.2,-.6,-.2,-1v-6.2c-.5,.2,-1.5,.5,-2.2,.5Z" class="g0_292"/>
<path d="M517.6,674.2h7.7v-.8h-7.7Z" class="g0_292"/>
<path d="M528.5,679.8c0,.6,.5,1,1.1,1c.4,0,.8,-.2,1.3,-.6c.8,-.7,2,-2.3,2.8,-3.5c.4,-.6,.7,-1.2,1,-1.8c.4,-.7,1.1,-2.1,1.1,-2.9c0,-.2,0,-.4,-.1,-.6c-.1,-.2,-.3,-.2,-.5,-.2c-.1,0,-.3,0,-.4,.2c-.2,.1,-.2,.3,-.2,.6c0,.4,.2,.9,.2,1.3c0,.6,-.2,1.2,-.4,1.6c-.3,.5,-.5,.9,-.9,1.4l-.4,-1.9c-.1,-.5,-.3,-1.6,-.4,-2c-.2,-.7,-.3,-1.2,-1.3,-1.2c-1.2,0,-1.4,1.7,-1.6,2.5l.3,.1c.1,-.6,.6,-2.3,1,-2.3c.3,0,.5,1,.6,1.3c0,.3,.1,.7,.2,1.3l.6,3.5c-.3,.8,-1.1,1.7,-1.7,2.2c-.3,.2,-.6,.2,-.8,.2q-.1,0,-.2,-.1c-.2,-.3,-.2,-.8,-.7,-.8c-.4,0,-.6,.3,-.6,.7Z" class="g0_292"/>
<path d="M538.6,675.3c-.6,0,-1,-.4,-1,-1.1c0,-.8,.4,-1.7,1.3,-1.7c1.2,0,1.3,1,1.3,1.9c0,1,-.3,1.5,-.7,2.2c-.3,.4,-.7,.8,-1.1,1.3c-.5,.5,-1.1,1.1,-1.9,1.8v.3h4.6l.4,-2.1h-.3c-.1,.2,-.2,.4,-.3,.6c-.1,.3,-.5,.5,-1,.5h-2.1c.5,-.4,1,-.7,1.4,-1.1c.7,-.6,1.5,-1.4,1.9,-2.2c.2,-.4,.3,-.8,.3,-1.2c0,-.3,-.1,-.6,-.2,-.9c-.3,-.7,-1.1,-1.3,-2.2,-1.3c-.7,0,-1.3,.3,-1.7,.6c-.4,.3,-.7,.8,-.7,1.5c0,.5,.2,.8,.4,1c.2,.3,.5,.4,.9,.4c.4,0,.7,-.1,.7,-.5Z" class="g0_292"/>
<path d="M543.4,667l-.1,.2c1.9,1.6,2.5,3.3,2.5,6.6c0,3.3,-.5,5,-2.5,6.6l.2,.2c2,-1.2,3.6,-4,3.6,-6.8c0,-3,-1.5,-5.4,-3.7,-6.8Z" class="g0_292"/>
<path d="M551.2,668.7c-.7,0,-1.1,-.5,-1.1,-1.2c0,-.8,.5,-1.6,1.4,-1.6c1.2,0,1.3,1,1.3,1.9c0,.9,-.3,1.5,-.7,2.1c-.3,.4,-.7,.9,-1.2,1.3c-.5,.6,-1.1,1.1,-1.8,1.8v.3h4.5l.4,-2.1h-.3c-.1,.3,-.2,.5,-.2,.6c-.2,.4,-.5,.6,-1,.6h-2.1v-.1c.4,-.3,.9,-.7,1.3,-1.1c.8,-.6,1.6,-1.3,2,-2.2c.2,-.4,.3,-.8,.3,-1.2c0,-.3,-.1,-.6,-.2,-.9c-.4,-.7,-1.1,-1.2,-2.2,-1.2c-.7,0,-1.3,.2,-1.7,.5c-.4,.4,-.7,.9,-.7,1.5c0,.5,.1,.8,.3,1.1c.2,.2,.5,.4,.9,.4c.4,0,.7,-.2,.8,-.5Z" class="g0_292"/>
<path d="M562.4,673.4h-3.2v1h3.2v3.2h1v-3.2h3.3v-1h-3.3v-3.3h-1v3.3Z" class="g0_292"/>
<path d="M575.6,667c-2.2,1.4,-3.7,3.8,-3.7,6.8c0,2.8,1.6,5.6,3.6,6.8l.2,-.2c-1.9,-1.6,-2.5,-3.3,-2.5,-6.6c0,-3.3,.6,-5,2.5,-6.6l-.1,-.2Z" class="g0_292"/>
<path d="M578.6,673.5c.3,0,.4,-.1,.4,-.4c0,-.5,-.5,-.4,-.7,-.8c-.1,-.2,.1,-.3,.4,-.3c.9,0,1.4,1,2.6,1l-3.4,3.1c-.4,.4,-.7,.8,-.7,1.2c0,.2,.2,.3,.2,.3c.8,0,.3,-.8,1,-.8c.9,0,1.4,.9,2.5,.9c1.2,0,1.6,-1.1,1.8,-2.1h-.2c-.3,.5,-.6,1.1,-1.2,1.1c-.9,0,-1.7,-.8,-2.6,-.8c1.3,-1.3,2.5,-2.3,3.8,-3.6c.1,-.2,.3,-.4,.3,-.7c0,-.2,0,-.3,-.2,-.3c-.3,0,-.4,.2,-.5,.4c-.1,.2,-.3,.3,-.6,.3c-.8,0,-1.5,-.8,-2.5,-.8c-.7,0,-1.4,.5,-1.4,1.4c0,.5,.4,.9,1,.9Z" class="g0_292"/>
<path d="M584.7,672.9v.2c.4,0,.8,0,1,.1c.3,.2,.3,.3,.3,.7v4.8c0,.2,0,.4,0,.6c-.1,.4,-.7,.5,-1.2,.5v.2h3.4v-.2c-.3,0,-.9,0,-1,-.2c-.2,-.2,-.2,-.6,-.2,-1v-6.2c-.6,.2,-1.6,.5,-2.3,.5Z" class="g0_292"/>
<path d="M594.4,674.2H602v-.8h-7.6Z" class="g0_292"/>
<path d="M608.1,673.5c.3,0,.4,-.1,.4,-.4c0,-.5,-.5,-.4,-.7,-.8c-.1,-.2,.1,-.3,.4,-.3c.9,0,1.4,1,2.6,1l-3.4,3.1c-.4,.4,-.7,.8,-.7,1.2c0,.2,.1,.3,.2,.3c.7,0,.3,-.8,1,-.8c.9,0,1.4,.9,2.5,.9c1.2,0,1.6,-1.1,1.8,-2.1H612c-.3,.5,-.6,1.1,-1.2,1.1c-.9,0,-1.7,-.8,-2.6,-.8c1.3,-1.3,2.5,-2.3,3.8,-3.6c.1,-.2,.3,-.4,.3,-.7c0,-.2,0,-.3,-.2,-.3c-.3,0,-.4,.2,-.5,.4c-.1,.2,-.3,.3,-.6,.3c-.9,0,-1.5,-.8,-2.5,-.8c-.7,0,-1.4,.5,-1.4,1.4c0,.5,.4,.9,1,.9Z" class="g0_292"/>
<path d="M615.4,675.3c-.6,0,-1.1,-.4,-1.1,-1.1c0,-.8,.5,-1.7,1.4,-1.7c1.2,0,1.3,1,1.3,1.9c0,1,-.3,1.5,-.7,2.2c-.3,.4,-.7,.8,-1.1,1.3c-.5,.5,-1.1,1.1,-1.9,1.8v.3h4.6l.3,-2.1h-.3c0,.2,-.1,.4,-.2,.6c-.2,.3,-.5,.5,-1,.5h-2.1c.5,-.4,.9,-.7,1.4,-1.1c.7,-.6,1.5,-1.4,1.9,-2.2c.2,-.4,.3,-.8,.3,-1.2c0,-.3,-.1,-.6,-.2,-.9c-.4,-.7,-1.1,-1.3,-2.2,-1.3c-.7,0,-1.3,.3,-1.7,.6c-.4,.3,-.7,.8,-.7,1.5c0,.5,.1,.8,.4,1c.2,.3,.5,.4,.9,.4c.4,0,.7,-.1,.7,-.5Z" class="g0_292"/>
<path d="M620.2,667l-.1,.2c1.9,1.6,2.5,3.3,2.5,6.6c0,3.3,-.6,5,-2.5,6.6l.2,.2c2,-1.2,3.6,-4,3.6,-6.8c0,-3,-1.5,-5.4,-3.7,-6.8Z" class="g0_292"/>
<path d="M628,668.7c-.7,0,-1.1,-.5,-1.1,-1.2c0,-.8,.4,-1.6,1.3,-1.6c1.2,0,1.4,1,1.4,1.9c0,.9,-.3,1.5,-.8,2.1c-.2,.4,-.6,.9,-1.1,1.3c-.5,.6,-1.1,1.1,-1.8,1.8v.3h4.5l.4,-2.1h-.3c-.1,.3,-.2,.5,-.2,.6c-.2,.4,-.5,.6,-1,.6h-2.2v-.1c.5,-.3,1,-.7,1.4,-1.1c.8,-.6,1.5,-1.3,2,-2.2c.1,-.4,.2,-.8,.2,-1.2c0,-.3,0,-.6,-.1,-.9c-.4,-.7,-1.1,-1.2,-2.2,-1.2c-.7,0,-1.4,.2,-1.8,.5c-.3,.4,-.6,.9,-.6,1.5c0,.5,.1,.8,.3,1.1c.2,.2,.5,.4,.9,.4c.4,0,.7,-.2,.8,-.5Z" class="g0_292"/>
<path d="M323.4,776c.2,-.6,.7,-1.8,1.1,-2.2c.2,-.3,.8,-.9,1.3,-.9c.5,0,.5,.5,.5,.8c0,1.1,-2,2,-2.9,2.3Zm2.5,-3.4c-.7,0,-1.3,.5,-1.8,1.1H324l1.5,-5.6l-2.3,.2l-.1,.2c.6,0,1.1,.1,1.1,.6c0,0,0,.2,-.1,.4l-2.6,9.6h1l.8,-2.6l.3,-.2l.8,2c.2,.3,.3,.6,.4,.7c.2,.1,.3,.2,.5,.2c1,0,1.3,-.6,1.8,-1.8l-.2,-.1c-.3,.6,-.6,1.2,-1,1.2c-.2,0,-.4,-.6,-.6,-1l-.6,-1.6l.3,-.2c.6,-.3,1.2,-.6,1.6,-1c.4,-.4,.6,-.7,.6,-1.1c0,-.7,-.5,-1,-1.3,-1Z" class="g0_292"/>
<path d="M330.7,774.6c0,-.3,-.2,-.5,-.6,-.5c-.3,0,-.5,.2,-.5,.5c0,.3,.3,.6,.5,.6c.3,0,.6,-.3,.6,-.6Zm-2,6.8c.9,0,1.4,-.8,1.7,-1.4l-.2,-.1c-.1,.2,-.6,1,-1,1c-.1,0,-.2,-.1,-.2,-.3c0,-.2,.1,-.6,.2,-.8l.7,-2c.1,-.3,.1,-.4,.1,-.6c0,-.3,0,-.6,-.3,-.6c-.7,0,-1.5,.8,-1.8,1.3l.2,.1c.2,-.2,.6,-.8,.9,-.8c.1,0,.2,.2,.2,.3c0,.1,-.1,.4,-.2,.6l-.7,2.1c-.1,.3,-.1,.5,-.1,.6c0,.4,.1,.6,.5,.6Z" class="g0_292"/>
<path d="M337.4,768.4c-2.2,1.4,-3.7,3.8,-3.7,6.9c0,2.7,1.6,5.5,3.6,6.8l.2,-.3c-2,-1.5,-2.5,-3.3,-2.5,-6.6c0,-3.3,.6,-5,2.5,-6.5l-.1,-.3Z" class="g0_292"/>
<path d="M345.7,773.6c0,-.6,-.4,-1,-1,-1c-.3,0,-.6,.1,-.9,.3c-.3,.3,-.6,.6,-.9,.9c0,-.6,-.4,-1.2,-1,-1.2c-1.1,0,-2.1,1.2,-2.5,2l.3,.1c.3,-.5,1,-1.7,1.9,-1.7c.3,0,.4,.5,.4,1c0,.3,0,.6,-.2,1.1l-.3,1.2c-.2,.6,-.4,1.4,-.7,1.8c-.2,.2,-.5,.6,-.8,.6c-.5,0,-.8,0,-.7,-.5c.1,-.3,.1,-.7,-.4,-.7c-.4,0,-.6,.3,-.6,.8c0,.5,.5,.9,1.1,.9c1,0,1.7,-.8,2.1,-1.4c.1,.8,.5,1.4,1.4,1.4c1.1,0,2,-1.1,2.4,-1.8l-.2,-.2c-.5,.6,-1.2,1.6,-2,1.6c-.4,0,-.6,-.6,-.6,-1.2c0,-.3,0,-.8,.2,-1.3l.2,-.7c.1,-.6,.3,-1.3,.6,-1.7c.2,-.2,.5,-.9,.9,-.9c.4,0,.4,.3,.4,.6c-.1,.4,.1,.6,.4,.6c.4,0,.5,-.3,.5,-.6Z" class="g0_292"/>
<path d="M348,778.3c0,.4,.2,.8,.6,.8c.2,0,.3,0,.5,-.1c0,.4,-.1,.7,-.3,1c-.3,.3,-.6,.7,-1.1,1l.3,.4c.4,-.2,.6,-.4,.9,-.7c.5,-.4,.9,-.9,.9,-1.9c0,-.9,-.3,-1.3,-.9,-1.3c-.6,0,-.9,.3,-.9,.8Z" class="g0_292"/>
<path d="M353.4,781.3c0,.5,.4,.9,1.1,.9c.4,0,.8,-.2,1.3,-.6c.8,-.7,2,-2.2,2.8,-3.4c.3,-.6,.7,-1.2,1,-1.8c.4,-.8,1.1,-2.1,1.1,-2.9c0,-.3,0,-.5,-.1,-.6c-.1,-.2,-.3,-.3,-.5,-.3c-.1,0,-.3,.1,-.4,.2c-.2,.1,-.2,.4,-.2,.6c0,.5,.2,1,.2,1.4c0,.6,-.2,1.1,-.5,1.6c-.2,.5,-.4,.8,-.8,1.4h-.1l-.3,-1.9c-.1,-.6,-.3,-1.7,-.4,-2.1c-.2,-.7,-.3,-1.2,-1.3,-1.2c-1.2,0,-1.4,1.8,-1.6,2.5l.3,.2c.1,-.6,.5,-2.4,1,-2.4c.3,0,.5,1.1,.5,1.3c.1,.3,.2,.7,.3,1.4l.6,3.5c-.3,.8,-1.2,1.6,-1.8,2.1c-.2,.2,-.5,.3,-.7,.3c-.1,0,-.2,-.1,-.2,-.2c-.2,-.2,-.2,-.7,-.7,-.7c-.4,0,-.6,.3,-.6,.7Z" class="g0_292"/>
<path d="M362.1,768.4l-.2,.3c1.9,1.5,2.5,3.2,2.5,6.5c0,3.3,-.5,5.1,-2.5,6.6l.2,.3c2.1,-1.3,3.6,-4.1,3.6,-6.8c0,-3.1,-1.5,-5.5,-3.6,-6.9Z" class="g0_292"/>
<path d="M371.9,777.2h7.7v-.8h-7.7Zm0,-3h7.7v-.9h-7.7Z" class="g0_292"/>
<path d="M456.5,759.3v.2c.5,0,1.1,.1,1.3,.2c.5,.2,.4,.4,.5,1v6.5c0,.3,0,.6,-.1,.8c-.1,.6,-.9,.7,-1.6,.8v.2h4.7v-.2c-.5,-.1,-1.3,-.1,-1.5,-.4c-.2,-.2,-.2,-.7,-.2,-1.3v-8.5h-.1c-.8,.3,-2.1,.7,-3,.7Z" class="g0_292"/>
<path d="M386.1,775.7H531.3v-.9H386.1Z" class="g0_292"/>
<path d="M397.4,779.6h-.8l-3.8,14.9l-2.9,-6.2l-2.9,1.5l.2,.3l1.6,-.6l3.9,8.2l4.7,-18.1Z" class="g0_292"/>
<path d="M397,780.5H524.6v-.9H397Z" class="g0_292"/>
<path d="M402.2,783.3c-2.2,1.4,-3.7,3.8,-3.7,6.9c0,2.7,1.6,5.5,3.6,6.8l.2,-.2c-2,-1.6,-2.5,-3.4,-2.5,-6.7c0,-3.3,.6,-5,2.5,-6.5l-.1,-.3Z" class="g0_292"/>
<path d="M410.5,788.5c0,-.6,-.4,-1,-1,-1c-.3,0,-.6,.2,-.9,.4c-.3,.2,-.6,.5,-.9,.9c0,-.7,-.4,-1.3,-1,-1.3c-1.1,0,-2.1,1.2,-2.4,2l.2,.1c.3,-.5,1,-1.7,1.9,-1.7c.3,0,.4,.5,.4,1c0,.3,0,.6,-.2,1.1l-.3,1.2c-.2,.6,-.4,1.4,-.7,1.8c-.2,.2,-.5,.7,-.8,.7c-.5,0,-.8,-.1,-.7,-.5c.1,-.3,.1,-.8,-.4,-.8c-.4,0,-.6,.3,-.6,.8c0,.5,.5,.9,1.1,.9c1,0,1.7,-.8,2.1,-1.4c.1,.8,.5,1.4,1.4,1.4c1.1,0,2,-1.1,2.4,-1.8l-.2,-.2c-.5,.7,-1.2,1.7,-2,1.7c-.4,0,-.6,-.6,-.6,-1.3c0,-.3,0,-.7,.2,-1.3l.2,-.7c.1,-.6,.3,-1.3,.6,-1.6c.2,-.3,.5,-1,.9,-1c.4,0,.4,.3,.4,.6c-.1,.4,.1,.6,.4,.6c.4,0,.5,-.3,.5,-.6Z" class="g0_292"/>
<path d="M415.5,790.6h7.6v-.8h-7.6Z" class="g0_292"/>
<path d="M434.6,788.5c0,-.6,-.5,-1,-1,-1c-.3,0,-.7,.2,-1,.4c-.3,.2,-.6,.5,-.8,.9c0,-.7,-.4,-1.3,-1.1,-1.3c-1.1,0,-2.1,1.2,-2.4,2l.2,.1c.4,-.5,1.1,-1.7,2,-1.7c.2,0,.4,.5,.4,1c0,.3,-.1,.6,-.2,1.1l-.4,1.2c-.2,.6,-.4,1.4,-.7,1.8c-.2,.2,-.4,.7,-.8,.7c-.4,0,-.7,-.1,-.6,-.5c.1,-.3,0,-.8,-.4,-.8c-.5,0,-.7,.3,-.7,.8c0,.5,.5,.9,1.1,.9c1,0,1.7,-.8,2.1,-1.4h.1c.1,.8,.5,1.4,1.3,1.4c1.2,0,2,-1.1,2.4,-1.8l-.1,-.2c-.5,.7,-1.2,1.7,-2,1.7c-.5,0,-.7,-.6,-.7,-1.3c0,-.3,.1,-.7,.2,-1.3l.2,-.7c.1,-.6,.3,-1.3,.6,-1.6c.2,-.3,.6,-1,1,-1c.4,0,.3,.3,.3,.6c0,.4,.1,.6,.5,.6c.3,0,.5,-.3,.5,-.6Z" class="g0_292"/>
<path d="M436.1,789.3v.1c.4,0,.8,.1,1,.2c.3,.1,.3,.3,.3,.7v4.8c0,.2,0,.4,0,.5c-.1,.5,-.7,.6,-1.2,.6v.2h3.4v-.2c-.4,0,-.9,0,-1,-.2c-.2,-.2,-.2,-.6,-.2,-1v-6.3c-.6,.3,-1.6,.6,-2.3,.6Z" class="g0_292"/>
<path d="M442.1,783.3l-.1,.3c1.9,1.5,2.5,3.2,2.5,6.5c0,3.3,-.6,5.1,-2.5,6.7l.2,.2c2,-1.3,3.6,-4.1,3.6,-6.8c0,-3.1,-1.5,-5.5,-3.7,-6.9Z" class="g0_292"/>
<path d="M449.9,785c-.7,0,-1.1,-.5,-1.1,-1.1c0,-.8,.4,-1.7,1.3,-1.7c1.2,0,1.4,1,1.4,1.9c0,1,-.3,1.5,-.8,2.2c-.2,.4,-.6,.8,-1.1,1.3c-.5,.5,-1.1,1.1,-1.8,1.8v.3h4.5l.4,-2.1h-.3c-.1,.2,-.2,.4,-.2,.6c-.2,.3,-.5,.5,-1,.5H449c.5,-.4,1,-.7,1.4,-1.1c.8,-.6,1.5,-1.4,2,-2.2c.1,-.4,.2,-.8,.2,-1.2c0,-.3,0,-.6,-.1,-.9c-.4,-.7,-1.1,-1.3,-2.2,-1.3c-.7,0,-1.3,.3,-1.7,.6c-.4,.3,-.7,.8,-.7,1.5c0,.4,.1,.8,.3,1c.2,.3,.5,.4,.9,.4c.4,0,.7,-.2,.8,-.5Z" class="g0_292"/>
<path d="M461.1,789.7h-3.2v1h3.2V794h1v-3.3h3.3v-1h-3.3v-3.2h-1v3.2Z" class="g0_292"/>
<path d="M474.3,783.3c-2.2,1.4,-3.7,3.8,-3.7,6.9c0,2.7,1.6,5.5,3.6,6.8l.2,-.2c-2,-1.6,-2.5,-3.4,-2.5,-6.7c0,-3.3,.6,-5,2.5,-6.5l-.1,-.3Z" class="g0_292"/>
<path d="M474.4,796.2c0,.5,.5,.9,1.1,.9c.5,0,.8,-.2,1.3,-.6c.8,-.6,2.1,-2.2,2.8,-3.4c.4,-.6,.8,-1.2,1.1,-1.8c.3,-.8,1.1,-2.1,1.1,-2.9c0,-.2,-.1,-.4,-.2,-.6c-.1,-.2,-.2,-.3,-.4,-.3c-.2,0,-.3,.1,-.5,.2c-.1,.2,-.2,.4,-.2,.7c0,.4,.2,.9,.2,1.3c0,.6,-.2,1.1,-.4,1.6c-.3,.5,-.5,.9,-.8,1.4h-.1l-.3,-1.9c-.1,-.6,-.4,-1.6,-.5,-2.1c-.2,-.6,-.3,-1.2,-1.3,-1.2c-1.1,0,-1.3,1.8,-1.6,2.6l.3,.1c.1,-.6,.6,-2.3,1.1,-2.3c.3,0,.4,1,.5,1.2c.1,.3,.2,.7,.3,1.4l.6,3.5c-.4,.8,-1.2,1.7,-1.8,2.2c-.2,.1,-.6,.2,-.7,.2c-.1,0,-.2,-.1,-.3,-.1c-.2,-.3,-.2,-.8,-.7,-.8c-.4,0,-.6,.3,-.6,.7Z" class="g0_292"/>
<path d="M486.8,790.6h7.6v-.8h-7.6Z" class="g0_292"/>
<path d="M497.6,796.2c0,.5,.5,.9,1.1,.9c.5,0,.8,-.2,1.3,-.6c.8,-.6,2.1,-2.2,2.8,-3.4c.4,-.6,.8,-1.2,1.1,-1.8c.3,-.8,1.1,-2.1,1.1,-2.9c0,-.2,-.1,-.4,-.2,-.6c-.1,-.2,-.2,-.3,-.4,-.3c-.2,0,-.3,.1,-.5,.2c-.1,.2,-.2,.4,-.2,.7c0,.4,.2,.9,.2,1.3c0,.6,-.2,1.1,-.4,1.6c-.3,.5,-.5,.9,-.8,1.4h-.1l-.3,-1.9c-.1,-.6,-.4,-1.6,-.5,-2.1c-.2,-.6,-.3,-1.2,-1.3,-1.2c-1.1,0,-1.3,1.8,-1.6,2.6l.3,.1c.1,-.6,.6,-2.3,1.1,-2.3c.3,0,.4,1,.5,1.2c.1,.3,.2,.7,.3,1.4l.6,3.5c-.4,.8,-1.2,1.7,-1.8,2.2c-.2,.1,-.6,.2,-.7,.2c-.1,0,-.2,-.1,-.3,-.1c-.2,-.3,-.2,-.8,-.7,-.8c-.4,0,-.6,.3,-.6,.7Z" class="g0_292"/>
<path d="M506.6,789.3v.1c.3,0,.8,.1,.9,.2c.4,.1,.4,.3,.4,.7v4.8c0,.2,0,.4,-.1,.5c0,.5,-.6,.6,-1.2,.6v.2h3.5v-.2c-.4,0,-.9,0,-1.1,-.2c-.2,-.2,-.2,-.6,-.2,-1v-6.3c-.5,.3,-1.5,.6,-2.2,.6Z" class="g0_292"/>
<path d="M512.6,783.3l-.2,.3c1.9,1.5,2.6,3.2,2.6,6.5c0,3.3,-.6,5.1,-2.6,6.7l.2,.2c2.1,-1.3,3.6,-4.1,3.6,-6.8c0,-3.1,-1.5,-5.5,-3.6,-6.9Z" class="g0_292"/>
<path d="M520.3,785c-.6,0,-1,-.5,-1,-1.1c0,-.8,.4,-1.7,1.3,-1.7c1.2,0,1.3,1,1.3,1.9c0,1,-.3,1.5,-.7,2.2c-.3,.4,-.7,.8,-1.1,1.3c-.5,.5,-1.1,1.1,-1.9,1.8v.3h4.6l.3,-2.1h-.3c0,.2,-.1,.4,-.2,.6c-.2,.3,-.5,.5,-1,.5h-2.1c.5,-.4,.9,-.7,1.4,-1.1c.7,-.6,1.5,-1.4,1.9,-2.2c.2,-.4,.3,-.8,.3,-1.2c0,-.3,-.1,-.6,-.2,-.9c-.3,-.7,-1.1,-1.3,-2.2,-1.3c-.7,0,-1.3,.3,-1.7,.6c-.4,.3,-.7,.8,-.7,1.5c0,.4,.1,.8,.4,1c.2,.3,.5,.4,.9,.4c.4,0,.7,-.2,.7,-.5Z" class="g0_292"/>
<path d="M528.1,783.1c1,0,1.5,-.9,1.7,-1.4l-.1,-.1c-.3,.3,-.7,1,-1,1c-.2,0,-.2,-.2,-.2,-.3c0,-.1,.1,-.3,.2,-.6c0,-.3,.1,-.6,.3,-1c.1,-.6,.3,-1.3,.3,-1.7c0,-.5,-.1,-.7,-.6,-.7c-.9,0,-1.5,.6,-1.9,1.4v-.1c.1,-.2,.1,-.3,.1,-.6c0,-.5,-.1,-.7,-.5,-.7c-1,0,-1.3,.9,-1.6,1.7l.2,.1c.2,-.4,.5,-1.6,1,-1.6c.1,0,.2,.1,.2,.3c0,.2,0,.6,-.1,.8c-.1,.5,-.2,.9,-.4,1.4l-.7,2h.8l.6,-1.9c.2,-.5,.6,-1.4,1,-1.9c.2,-.2,.6,-.7,1,-.7c.1,0,.2,.1,.2,.3c0,.1,0,.3,0,.3c-.1,.4,-.2,.7,-.3,1c-.2,.8,-.3,1.3,-.5,2c0,.1,-.1,.2,-.1,.3c0,.4,.1,.7,.4,.7Z" class="g0_292"/>
<path d="M281.9,892.3c.2,-.6,.7,-1.8,1.1,-2.2c.2,-.3,.8,-.9,1.3,-.9c.5,0,.5,.5,.5,.8c0,1.1,-2,2,-2.9,2.3Zm2.5,-3.4c-.7,0,-1.3,.5,-1.8,1.2l-.1,-.1l1.5,-5.5l-2.3,.1l-.1,.2c.6,0,1.1,.1,1.1,.6c0,0,0,.2,-.1,.4l-2.6,9.6h1l.8,-2.6l.3,-.1l.8,1.9c.2,.3,.3,.6,.4,.7c.2,.1,.3,.2,.5,.2c1,0,1.3,-.6,1.8,-1.8l-.2,-.1c-.3,.6,-.5,1.2,-1,1.2c-.2,0,-.4,-.6,-.6,-1l-.6,-1.6l.3,-.2c.6,-.3,1.2,-.6,1.6,-1c.4,-.4,.6,-.7,.6,-1.1c0,-.7,-.5,-1,-1.3,-1Z" class="g0_292"/>
<path d="M289.2,890.9c0,-.3,-.2,-.5,-.5,-.5c-.4,0,-.6,.2,-.6,.5c0,.3,.3,.6,.6,.6c.2,0,.5,-.3,.5,-.6Zm-2,6.8c.9,0,1.4,-.8,1.7,-1.4l-.2,-.1c-.1,.2,-.5,1,-1,1c-.1,0,-.2,-.1,-.2,-.2c0,-.3,.1,-.7,.2,-.8l.7,-2.1c.1,-.3,.1,-.4,.1,-.6c0,-.3,0,-.6,-.3,-.6c-.7,0,-1.5,.8,-1.8,1.3l.2,.1c.2,-.2,.6,-.8,.9,-.8c.1,0,.2,.2,.2,.3c0,.1,-.1,.5,-.2,.6l-.7,2.1c-.1,.3,-.1,.5,-.1,.6c0,.4,.1,.6,.5,.6Z" class="g0_292"/>
<path d="M295.9,884.7c-2.2,1.4,-3.7,3.8,-3.7,6.9c0,2.7,1.6,5.5,3.6,6.8l.2,-.2c-2,-1.6,-2.5,-3.4,-2.5,-6.7c0,-3.3,.6,-5,2.5,-6.5l-.1,-.3Z" class="g0_292"/>
<path d="M304.2,889.9c0,-.6,-.4,-1,-1,-1c-.3,0,-.6,.1,-.9,.4c-.3,.2,-.6,.5,-.9,.8c0,-.6,-.4,-1.2,-1,-1.2c-1.1,0,-2.1,1.2,-2.4,2l.2,.1c.3,-.5,1,-1.7,1.9,-1.7c.3,0,.4,.5,.4,1c0,.3,0,.6,-.2,1.1l-.3,1.2c-.2,.6,-.4,1.4,-.7,1.8c-.2,.2,-.5,.6,-.8,.6c-.5,0,-.8,0,-.7,-.4c.1,-.4,.1,-.8,-.4,-.8c-.4,0,-.6,.3,-.6,.8c0,.5,.5,.9,1.1,.9c1,0,1.7,-.8,2.1,-1.4c.1,.8,.5,1.4,1.4,1.4c1.1,0,2,-1.1,2.4,-1.8l-.2,-.2c-.5,.6,-1.2,1.7,-2,1.7c-.4,0,-.6,-.7,-.6,-1.3c0,-.3,0,-.8,.2,-1.3l.2,-.7c.1,-.6,.3,-1.3,.6,-1.7c.2,-.2,.5,-.9,.9,-.9c.4,0,.4,.3,.4,.6c-.1,.4,.1,.6,.4,.6c.4,0,.5,-.3,.5,-.6Z" class="g0_292"/>
<path d="M306.5,894.6c0,.4,.2,.8,.7,.8c.1,0,.2,0,.4,-.1c0,.4,-.1,.7,-.3,1c-.3,.3,-.6,.7,-1.1,1l.3,.4c.4,-.2,.7,-.4,.9,-.6c.5,-.5,.9,-1,.9,-2c0,-.9,-.3,-1.3,-.9,-1.3c-.6,0,-.9,.3,-.9,.8Z" class="g0_292"/>
<path d="M311.9,897.6c0,.5,.4,.9,1.1,.9c.4,0,.8,-.2,1.3,-.6c.8,-.7,2,-2.2,2.8,-3.4c.3,-.6,.7,-1.2,1,-1.8c.4,-.8,1.1,-2.1,1.1,-2.9c0,-.3,0,-.4,-.1,-.6c-.1,-.2,-.3,-.3,-.5,-.3c-.1,0,-.3,.1,-.4,.2c-.2,.2,-.2,.4,-.2,.7c0,.4,.2,.9,.2,1.3c0,.6,-.2,1.1,-.5,1.6c-.2,.5,-.4,.8,-.8,1.4h-.1l-.3,-1.9c-.1,-.6,-.3,-1.7,-.4,-2.1c-.2,-.7,-.3,-1.2,-1.3,-1.2c-1.2,0,-1.4,1.8,-1.6,2.6l.3,.1c.1,-.6,.5,-2.3,1,-2.3c.3,0,.5,1,.6,1.2c0,.3,.1,.7,.2,1.4l.6,3.5c-.3,.8,-1.2,1.7,-1.8,2.1c-.2,.2,-.5,.3,-.7,.3c-.1,0,-.2,-.1,-.2,-.2c-.2,-.2,-.2,-.7,-.7,-.7c-.4,0,-.6,.3,-.6,.7Z" class="g0_292"/>
<path d="M321.5,894.6c0,.4,.3,.8,.7,.8c.1,0,.3,0,.4,-.1c0,.4,-.1,.7,-.3,1c-.2,.3,-.6,.7,-1.1,1l.4,.4c.3,-.2,.6,-.4,.8,-.6c.5,-.5,1,-1,1,-2c0,-.9,-.4,-1.3,-1,-1.3c-.5,0,-.9,.3,-.9,.8Z" class="g0_292"/>
<path d="M329.7,891.3c.3,0,.5,-.2,.5,-.4c0,-.5,-.5,-.4,-.7,-.8c-.1,-.2,.1,-.3,.3,-.3c.9,0,1.4,.9,2.6,.9l-3.4,3.2c-.3,.3,-.7,.8,-.7,1.1c0,.3,.2,.4,.3,.4c.7,0,.2,-.8,.9,-.8c1,0,1.5,.9,2.6,.9c1.2,0,1.6,-1.2,1.8,-2.2h-.3c-.2,.6,-.5,1.2,-1.2,1.2c-.9,0,-1.7,-.8,-2.6,-.8c1.4,-1.3,2.5,-2.4,3.8,-3.6c.2,-.3,.4,-.4,.4,-.7c0,-.3,-.1,-.4,-.2,-.4c-.3,0,-.4,.3,-.5,.4c-.1,.2,-.3,.4,-.6,.4c-.9,0,-1.5,-.9,-2.6,-.9c-.6,0,-1.3,.5,-1.3,1.4c0,.6,.4,1,.9,1Z" class="g0_292"/>
<path d="M335.5,884.7l-.1,.3c1.9,1.5,2.5,3.2,2.5,6.5c0,3.3,-.6,5.1,-2.5,6.7l.1,.2c2.1,-1.3,3.7,-4.1,3.7,-6.8c0,-3.1,-1.6,-5.5,-3.7,-6.9Z" class="g0_292"/>
<path d="M345.4,893.5H353v-.8h-7.6Zm0,-3H353v-.8h-7.6Z" class="g0_292"/>
<path d="M464,875.6v.2c.4,0,1.1,.1,1.3,.2c.4,.2,.4,.4,.4,1v6.5c0,.3,0,.6,0,.8c-.1,.6,-.9,.7,-1.7,.8v.2h4.7v-.2c-.5,0,-1.2,-.1,-1.4,-.3c-.2,-.3,-.2,-.8,-.2,-1.4v-8.5H467c-.8,.4,-2.1,.7,-3,.7Z" class="g0_292"/>
<path d="M359.5,892H572.8v-.9H359.5Z" class="g0_292"/>
<path d="M370.9,895.9H370l-3.8,14.9l-2.9,-6.2l-2.9,1.5l.2,.3l1.6,-.6l3.9,8.2l4.8,-18.1Z" class="g0_292"/>
<path d="M370.5,896.8H566v-.9H370.5Z" class="g0_292"/>
<path d="M375.6,899.6c-2.2,1.4,-3.7,3.9,-3.7,6.9c0,2.7,1.6,5.5,3.6,6.8l.2,-.2c-1.9,-1.6,-2.5,-3.4,-2.5,-6.7c0,-3.3,.6,-5,2.5,-6.5l-.1,-.3Z" class="g0_292"/>
<path d="M384,904.8c0,-.6,-.5,-1,-1,-1c-.3,0,-.7,.2,-1,.4c-.3,.2,-.6,.5,-.8,.9c0,-.7,-.4,-1.3,-1.1,-1.3c-1.1,0,-2.1,1.2,-2.4,2l.2,.1c.3,-.5,1.1,-1.7,2,-1.7c.2,0,.4,.5,.4,1c0,.3,-.1,.6,-.3,1.1l-.3,1.2c-.2,.6,-.4,1.4,-.7,1.8c-.2,.2,-.4,.7,-.8,.7c-.4,0,-.7,-.1,-.6,-.5c.1,-.3,0,-.8,-.4,-.8c-.5,0,-.7,.3,-.7,.8c0,.6,.5,.9,1.1,.9c1,0,1.7,-.7,2.1,-1.4c.2,.8,.6,1.4,1.4,1.4c1.2,0,2,-1.1,2.4,-1.8l-.2,-.2c-.4,.7,-1.1,1.7,-1.9,1.7c-.5,0,-.7,-.6,-.7,-1.3c0,-.3,.1,-.7,.2,-1.3l.2,-.7c.1,-.6,.3,-1.3,.6,-1.6c.2,-.3,.6,-1,.9,-1c.5,0,.4,.3,.4,.6c0,.4,.1,.6,.5,.6c.3,0,.5,-.3,.5,-.6Z" class="g0_292"/>
<path d="M388.9,906.9h7.6v-.8h-7.6Z" class="g0_292"/>
<path d="M408,904.8c0,-.6,-.4,-1,-1,-1c-.3,0,-.6,.2,-.9,.4c-.4,.2,-.7,.5,-.9,.9c0,-.7,-.4,-1.3,-1,-1.3c-1.2,0,-2.1,1.2,-2.5,2l.2,.1c.4,-.5,1.1,-1.7,2,-1.7c.3,0,.4,.5,.4,1c0,.3,-.1,.6,-.2,1.1l-.4,1.2c-.1,.6,-.4,1.4,-.7,1.8c-.1,.2,-.4,.7,-.8,.7c-.4,0,-.7,-.1,-.6,-.5c.1,-.3,0,-.8,-.4,-.8c-.4,0,-.6,.3,-.6,.8c0,.6,.5,.9,1,.9c1,0,1.8,-.7,2.2,-1.4c.1,.8,.5,1.4,1.3,1.4c1.2,0,2,-1.1,2.5,-1.8l-.2,-.2c-.5,.7,-1.2,1.7,-2,1.7c-.4,0,-.6,-.6,-.6,-1.3c0,-.3,0,-.7,.1,-1.3l.2,-.7c.1,-.6,.4,-1.3,.6,-1.6c.2,-.3,.6,-1,1,-1c.4,0,.4,.3,.3,.6c0,.4,.2,.6,.5,.6c.4,0,.5,-.3,.5,-.6Z" class="g0_292"/>
<path d="M409.6,905.6v.1c.3,0,.8,.1,.9,.2c.4,.1,.3,.3,.4,.7v4.8c0,.2,-.1,.4,-.1,.5c0,.5,-.6,.6,-1.2,.6v.2H413v-.2c-.3,0,-.9,0,-1,-.2c-.2,-.2,-.2,-.6,-.2,-1V905c-.6,.3,-1.5,.6,-2.2,.6Z" class="g0_292"/>
<path d="M415.5,899.6l-.1,.3c1.9,1.5,2.5,3.2,2.5,6.5c0,3.3,-.5,5.1,-2.5,6.7l.2,.2c2,-1.3,3.6,-4.1,3.6,-6.8c0,-3,-1.5,-5.5,-3.7,-6.9Z" class="g0_292"/>
<path d="M423.3,901.3c-.7,0,-1.1,-.4,-1.1,-1.1c0,-.8,.5,-1.6,1.4,-1.6c1.2,0,1.3,.9,1.3,1.9c0,.9,-.3,1.4,-.7,2.1c-.3,.4,-.7,.8,-1.2,1.3c-.4,.5,-1,1.1,-1.8,1.8v.3h4.6l.3,-2.1h-.3c0,.2,-.1,.4,-.2,.6c-.2,.3,-.5,.5,-1,.5h-2.1c.4,-.4,.9,-.7,1.3,-1.1c.8,-.6,1.6,-1.4,2,-2.2c.2,-.4,.3,-.8,.3,-1.2c0,-.3,-.1,-.6,-.2,-.9c-.4,-.7,-1.1,-1.3,-2.2,-1.3c-.7,0,-1.3,.3,-1.7,.6c-.4,.3,-.7,.8,-.7,1.5c0,.5,.1,.8,.4,1c.2,.3,.4,.5,.9,.5c.4,0,.7,-.2,.7,-.6Z" class="g0_292"/>
<path d="M434.6,906.1h-3.3v.9h3.3v3.3h.9V907h3.3v-.9h-3.3v-3.3h-.9v3.3Z" class="g0_292"/>
<path d="M447.7,899.6c-2.1,1.4,-3.7,3.9,-3.7,6.9c0,2.7,1.6,5.5,3.7,6.8l.1,-.2c-1.9,-1.6,-2.5,-3.4,-2.5,-6.7c0,-3.3,.6,-5,2.5,-6.5l-.1,-.3Z" class="g0_292"/>
<path d="M447.8,912.5c0,.6,.5,.9,1.1,.9c.5,0,.9,-.2,1.3,-.6c.9,-.6,2.1,-2.2,2.9,-3.4c.3,-.6,.7,-1.2,1,-1.8c.4,-.8,1.1,-2.1,1.1,-2.9c0,-.2,-.1,-.4,-.1,-.6c-.1,-.2,-.3,-.3,-.5,-.3c-.2,0,-.3,.1,-.4,.2c-.2,.2,-.3,.4,-.3,.7c0,.4,.3,.9,.3,1.3c0,.6,-.3,1.1,-.5,1.6c-.2,.5,-.5,.9,-.8,1.4h-.1l-.3,-1.9c-.1,-.6,-.3,-1.6,-.4,-2.1c-.2,-.6,-.4,-1.2,-1.4,-1.2c-1.1,0,-1.3,1.8,-1.6,2.6l.4,.1c.1,-.6,.5,-2.3,1,-2.3c.3,0,.5,1,.5,1.2c.1,.3,.2,.7,.3,1.4l.6,3.5c-.3,.8,-1.2,1.7,-1.8,2.2c-.2,.1,-.5,.2,-.7,.2c-.1,0,-.2,0,-.2,-.1c-.3,-.3,-.3,-.8,-.7,-.8c-.4,0,-.7,.3,-.7,.7Z" class="g0_292"/>
<path d="M460.2,906.9h7.6v-.8h-7.6Z" class="g0_292"/>
<path d="M471.1,912.5c0,.6,.4,.9,1.1,.9c.4,0,.8,-.2,1.2,-.6c.9,-.6,2.1,-2.2,2.9,-3.4c.3,-.6,.7,-1.2,1,-1.8c.4,-.8,1.1,-2.1,1.1,-2.9c0,-.2,-.1,-.4,-.1,-.6c-.1,-.2,-.3,-.3,-.5,-.3c-.2,0,-.3,.1,-.4,.2c-.2,.2,-.3,.4,-.3,.7c0,.4,.3,.9,.3,1.3c0,.6,-.3,1.1,-.5,1.6c-.2,.5,-.5,.9,-.8,1.4H476l-.3,-1.9c-.1,-.6,-.3,-1.6,-.4,-2.1c-.2,-.6,-.4,-1.2,-1.4,-1.2c-1.1,0,-1.3,1.8,-1.6,2.6l.4,.1c.1,-.6,.5,-2.3,1,-2.3c.3,0,.5,1,.5,1.2c.1,.3,.2,.7,.3,1.4l.6,3.5c-.3,.8,-1.2,1.7,-1.8,2.2c-.2,.1,-.5,.2,-.7,.2c-.1,0,-.2,0,-.2,-.1c-.2,-.3,-.2,-.8,-.7,-.8c-.4,0,-.6,.3,-.6,.7Z" class="g0_292"/>
<path d="M480,905.6v.1c.3,0,.8,.1,1,.2c.3,.1,.3,.3,.3,.7v4.8c0,.2,0,.4,0,.5c-.1,.5,-.7,.6,-1.2,.6v.2h3.4v-.2c-.4,0,-.9,0,-1.1,-.2c-.1,-.2,-.1,-.6,-.1,-1V905c-.6,.3,-1.6,.6,-2.3,.6Z" class="g0_292"/>
<path d="M486,899.6l-.1,.3c1.9,1.5,2.5,3.2,2.5,6.5c0,3.3,-.6,5.1,-2.5,6.7l.1,.2c2.1,-1.3,3.7,-4.1,3.7,-6.8c0,-3,-1.6,-5.5,-3.7,-6.9Z" class="g0_292"/>
<path d="M493.8,901.3c-.7,0,-1.1,-.4,-1.1,-1.1c0,-.8,.4,-1.6,1.3,-1.6c1.2,0,1.3,.9,1.3,1.9c0,.9,-.2,1.4,-.7,2.1c-.3,.4,-.6,.8,-1.1,1.3c-.5,.5,-1.1,1.1,-1.9,1.8v.3h4.6l.4,-2.1h-.3c-.1,.2,-.2,.4,-.3,.6c-.1,.3,-.4,.5,-1,.5h-2.1c.5,-.4,1,-.7,1.4,-1.1c.7,-.6,1.5,-1.4,1.9,-2.2c.2,-.4,.3,-.8,.3,-1.2c0,-.3,0,-.6,-.2,-.9c-.3,-.7,-1,-1.3,-2.1,-1.3c-.7,0,-1.4,.3,-1.8,.6c-.4,.3,-.7,.8,-.7,1.5c0,.5,.2,.8,.4,1c.2,.3,.5,.5,.9,.5c.4,0,.7,-.2,.8,-.6Z" class="g0_292"/>
<path d="M505,906.1h-3.3v.9H505v3.3h1V907h3.2v-.9H506v-3.3h-1v3.3Z" class="g0_292"/>
<path d="M518.2,899.6c-2.2,1.4,-3.7,3.9,-3.7,6.9c0,2.7,1.6,5.5,3.6,6.8l.2,-.2c-2,-1.6,-2.5,-3.4,-2.5,-6.7c0,-3.3,.6,-5,2.5,-6.5l-.1,-.3Z" class="g0_292"/>
<path d="M521.1,906.2c.3,0,.5,-.1,.5,-.4c0,-.5,-.6,-.4,-.7,-.8c-.1,-.2,.1,-.3,.3,-.3c.9,0,1.4,1,2.6,1l-3.4,3.1c-.3,.4,-.7,.8,-.7,1.1c0,.3,.2,.4,.3,.4c.7,0,.2,-.8,.9,-.8c1,0,1.5,.9,2.6,.9c1.2,0,1.6,-1.2,1.8,-2.1l-.3,-.1c-.2,.6,-.5,1.2,-1.2,1.2c-.9,0,-1.7,-.8,-2.6,-.8c1.4,-1.3,2.5,-2.4,3.8,-3.6c.2,-.2,.4,-.4,.4,-.7c0,-.2,-.1,-.4,-.2,-.4c-.3,0,-.4,.3,-.5,.4c-.1,.2,-.4,.4,-.7,.4c-.8,0,-1.4,-.9,-2.5,-.9c-.6,0,-1.3,.6,-1.3,1.5c0,.5,.4,.9,.9,.9Z" class="g0_292"/>
<path d="M530.6,906.9h7.6v-.8h-7.6Z" class="g0_292"/>
<path d="M544.2,906.2c.3,0,.5,-.1,.5,-.4c0,-.5,-.6,-.4,-.7,-.8c-.1,-.2,.1,-.3,.3,-.3c.9,0,1.4,1,2.6,1l-3.4,3.1c-.3,.4,-.7,.8,-.7,1.1c0,.3,.2,.4,.3,.4c.7,0,.2,-.8,.9,-.8c1,0,1.5,.9,2.6,.9c1.2,0,1.6,-1.2,1.8,-2.1l-.3,-.1c-.2,.6,-.5,1.2,-1.2,1.2c-.9,0,-1.7,-.8,-2.6,-.8c1.4,-1.3,2.5,-2.4,3.8,-3.6c.2,-.2,.4,-.4,.4,-.7c0,-.2,-.1,-.4,-.2,-.4c-.3,0,-.4,.3,-.5,.4c-.1,.2,-.4,.4,-.7,.4c-.8,0,-1.4,-.9,-2.5,-.9c-.7,0,-1.3,.6,-1.3,1.5c0,.5,.4,.9,.9,.9Z" class="g0_292"/>
<path d="M552,905.8c0,-.3,-.3,-.5,-.6,-.5c-.3,0,-.5,.2,-.5,.5c0,.3,.2,.6,.5,.6c.3,0,.6,-.3,.6,-.6Zm-2.1,6.8c1,0,1.5,-.8,1.8,-1.4l-.2,-.1c-.2,.3,-.6,1.1,-1,1.1c-.1,0,-.3,-.2,-.3,-.3c0,-.2,.2,-.7,.2,-.8l.7,-2.1c.2,-.3,.2,-.4,.2,-.6c0,-.3,0,-.6,-.4,-.6c-.7,0,-1.5,.8,-1.7,1.4l.2,.1c.2,-.2,.6,-.8,.8,-.8c.2,0,.2,.1,.2,.2c0,.2,-.1,.5,-.1,.7l-.8,2c0,.3,-.1,.5,-.1,.7c0,.3,.1,.5,.5,.5Z" class="g0_292"/>
<path d="M554.1,899.6l-.2,.3c1.9,1.5,2.5,3.2,2.5,6.5c0,3.3,-.5,5.1,-2.5,6.7l.2,.2c2,-1.3,3.6,-4.1,3.6,-6.8c0,-3,-1.5,-5.5,-3.6,-6.9Z" class="g0_292"/>
<path d="M561.8,901.3c-.6,0,-1,-.4,-1,-1.1c0,-.8,.4,-1.6,1.3,-1.6c1.2,0,1.3,.9,1.3,1.9c0,.9,-.3,1.4,-.7,2.1c-.3,.4,-.7,.8,-1.1,1.3c-.5,.5,-1.1,1.1,-1.9,1.8v.3h4.6l.3,-2.1h-.3c0,.2,-.1,.4,-.2,.6c-.2,.3,-.5,.5,-1,.5H561c.5,-.4,.9,-.7,1.4,-1.1c.7,-.6,1.5,-1.4,1.9,-2.2c.2,-.4,.3,-.8,.3,-1.2c0,-.3,-.1,-.6,-.2,-.9c-.3,-.7,-1.1,-1.3,-2.2,-1.3c-.7,0,-1.3,.3,-1.7,.6c-.4,.3,-.7,.8,-.7,1.5c0,.5,.1,.8,.4,1c.2,.3,.5,.5,.9,.5c.4,0,.7,-.2,.7,-.6Z" class="g0_292"/>
<path d="M569.6,899.4c1,0,1.5,-.9,1.7,-1.4l-.1,-.1c-.3,.3,-.7,1.1,-1,1.1c-.2,0,-.2,-.3,-.2,-.4c0,-.1,.1,-.3,.2,-.6c0,-.3,.1,-.6,.3,-1c.1,-.6,.3,-1.3,.3,-1.7c0,-.5,-.2,-.7,-.6,-.7c-.9,0,-1.5,.7,-1.9,1.4c0,-.3,.1,-.4,.1,-.7c0,-.5,-.1,-.7,-.5,-.7c-1.1,0,-1.3,.9,-1.6,1.7l.2,.1c.2,-.4,.5,-1.6,1,-1.6c.1,0,.2,.1,.2,.3c0,.2,0,.6,-.1,.8c-.1,.5,-.2,.9,-.4,1.4l-.7,2h.8l.6,-1.9c.2,-.5,.6,-1.4,1,-1.9c.2,-.2,.6,-.7,1,-.7c.1,0,.2,.1,.2,.3c0,.1,0,.3,0,.3c-.1,.4,-.2,.7,-.3,1c-.2,.8,-.3,1.3,-.5,2.1c-.1,0,-.1,.1,-.1,.2c0,.4,.1,.7,.4,.7Z" class="g0_292"/>
</svg>