<?xml version="1.0" encoding="UTF-8" standalone="no"?>
<!DOCTYPE svg PUBLIC "-//W3C//DTD SVG 1.1//EN"
"http://www.w3.org/Graphics/SVG/1.1/DTD/svg11.dtd">
<svg viewBox="0 0 811 1017" version="1.1" xmlns="http://www.w3.org/2000/svg" xmlns:xlink="http://www.w3.org/1999/xlink">
<defs>
<style type="text/css"><![CDATA[
.g0_2{
fill: none;
stroke: #040504;
stroke-width: 0.759;
stroke-miterlimit: 20;
}
.g1_2{
fill: #040504;
}
.g2_2{
fill: #E2F4FC;
}
.g3_2{
fill: none;
stroke: #211E1E;
stroke-width: 0.759;
}
]]></style>
</defs>
<path d="M300.8,676.9H494.1v31.2" class="g0_2"/>
<path d="M491.9,706.6l2.2,8.2l2.2,-8.2h-4.4Z" class="g1_2"/>
<path d="M392.9,207.2H314.7V169.4" class="g0_2"/>
<path d="M391.4,205l8.2,2.2l-8.2,2.2V205Z" class="g1_2"/>
<path d="M493.4,308V235.8" class="g0_2"/>
<path d="M495.6,306.5l-2.2,8.3l-2.2,-8.3h4.4Z" class="g1_2"/>
<path d="M265.5,473.6H204.7V435.8" class="g0_2"/>
<path d="M264,471.4l8.3,2.2l-8.3,2.2v-4.4Z" class="g1_2"/>
<path d="M392.9,607.1h-119V569.2" class="g0_2"/>
<path d="M391.4,604.9l8.2,2.2l-8.2,2.2v-4.4Z" class="g1_2"/>
<path d="M498.8,809.5H203V702.8" class="g0_2"/>
<path d="M497.3,807.2l8.2,2.3l-8.2,2.2v-4.5Z" class="g1_2"/>
<path d="M493.4,574.3V369" class="g0_2"/>
<path d="M495.6,572.8l-2.2,8.2l-2.2,-8.2h4.4Z" class="g1_2"/>
<path d="M373.7,542.7H412V500.9" class="g0_2"/>
<path d="M375.2,544.9L367,542.7l8.2,-2.2v4.4Z" class="g1_2"/>
<path d="M626.5,773.8V608.5H586.7" class="g0_2"/>
<path d="M628.7,772.3l-2.2,8.2l-2.3,-8.2h4.5Z" class="g1_2"/>
<path d="M413.4,872.9H622.3V832.3" class="g0_2"/>
<path d="M414.9,875.1l-8.2,-2.2l8.2,-2.2v4.4Z" class="g1_2"/>
<path d="M505.8,790.4c0,-4.9,4,-8.9,9,-8.9H683c5,0,9,4,9,8.9v35.8c0,5.1,-4,9,-9,9H514.8c-5,0,-9,-3.9,-9,-9V790.4Z" class="g2_2"/>
<path d="M505.8,790.4c0,-4.9,4,-8.9,9,-8.9H683c5,0,9,4,9,8.9v35.8c0,5.1,-4,9,-9,9H514.8c-5,0,-9,-3.9,-9,-9V790.4Z" class="g3_2"/>
<path d="M221.5,854c0,-4.9,4.1,-9,9,-9H398.7c5.1,0,9,4.1,9,9v35.8c0,5,-3.9,9,-9,9H230.5c-4.9,0,-9,-4,-9,-9V854Z" class="g2_2"/>
<path d="M221.5,854c0,-4.9,4.1,-9,9,-9H398.7c5.1,0,9,4.1,9,9v35.8c0,5,-3.9,9,-9,9H230.5c-4.9,0,-9,-4,-9,-9V854Z" class="g3_2"/>
<path d="M400.2,723.8c0,-4.9,4.1,-9,9.1,-9H577.5c5,0,9,4.1,9,9v35.8c0,5,-4,9,-9,9H409.3c-5,0,-9.1,-4,-9.1,-9V723.8Z" class="g2_2"/>
<path d="M400.2,723.8c0,-4.9,4.1,-9,9.1,-9H577.5c5,0,9,4.1,9,9v35.8c0,5,-4,9,-9,9H409.3c-5,0,-9.1,-4,-9.1,-9V723.8Z" class="g3_2"/>
<path d="M114.3,657.2c0,-5,4.1,-9,9,-9H291.5c5.1,0,9,4,9,9V693c0,5,-3.9,9,-9,9H123.3c-4.9,0,-9,-4,-9,-9V657.2Z" class="g2_2"/>
<path d="M114.3,657.2c0,-5,4.1,-9,9,-9H291.5c5.1,0,9,4,9,9V693c0,5,-3.9,9,-9,9H123.3c-4.9,0,-9,-4,-9,-9V657.2Z" class="g3_2"/>
<path d="M400.2,590.5c0,-4.9,4.1,-8.9,9.1,-8.9H577.5c5,0,9,4,9,8.9v35.9c0,5,-4,8.9,-9,8.9H409.3c-5,0,-9.1,-3.9,-9.1,-8.9V590.5Z" class="g2_2"/>
<path d="M400.2,590.5c0,-4.9,4.1,-8.9,9.1,-8.9H577.5c5,0,9,4,9,8.9v35.9c0,5,-4,8.9,-9,8.9H409.3c-5,0,-9.1,-3.9,-9.1,-8.9V590.5Z" class="g3_2"/>
<path d="M180.1,523.9c0,-4.9,4,-9,9,-9H357.3c5,0,9,4.1,9,9v35.8c0,5.1,-4,9,-9,9H189.1c-5,0,-9,-3.9,-9,-9V523.9Z" class="g2_2"/>
<path d="M180.1,523.9c0,-4.9,4,-9,9,-9H357.3c5,0,9,4.1,9,9v35.8c0,5.1,-4,9,-9,9H189.1c-5,0,-9,-3.9,-9,-9V523.9Z" class="g3_2"/>
<path d="M273.5,455.8c0,-5,4,-9,9,-9H450.7c5.1,0,9,4,9,9v35.8c0,5,-3.9,9,-9,9H282.5c-5,0,-9,-4,-9,-9V455.8Z" class="g2_2"/>
<path d="M273.5,455.8c0,-5,4,-9,9,-9H450.7c5.1,0,9,4,9,9v35.8c0,5,-3.9,9,-9,9H282.5c-5,0,-9,-4,-9,-9V455.8Z" class="g3_2"/>
<path d="M114.3,390.7c0,-5,4.1,-9,9,-9H291.5c5.1,0,9,4,9,9v35.8c0,5,-3.9,9,-9,9H123.3c-4.9,0,-9,-4,-9,-9V390.7Z" class="g2_2"/>
<path d="M114.3,390.7c0,-5,4.1,-9,9,-9H291.5c5.1,0,9,4,9,9v35.8c0,5,-3.9,9,-9,9H123.3c-4.9,0,-9,-4,-9,-9V390.7Z" class="g3_2"/>
<path d="M400.2,324c0,-4.9,4.1,-8.9,9.1,-8.9H577.5c5,0,9,4,9,8.9v35.9c0,5,-4,8.9,-9,8.9H409.3c-5,0,-9.1,-3.9,-9.1,-8.9V324Z" class="g2_2"/>
<path d="M400.2,324c0,-4.9,4.1,-8.9,9.1,-8.9H577.5c5,0,9,4,9,8.9v35.9c0,5,-4,8.9,-9,8.9H409.3c-5,0,-9.1,-3.9,-9.1,-8.9V324Z" class="g3_2"/>
<path d="M114.3,258.9c0,-4.9,4.1,-8.9,9,-8.9H291.5c5.1,0,9,4,9,8.9v35.9c0,5,-3.9,8.9,-9,8.9H123.3c-4.9,0,-9,-3.9,-9,-8.9V258.9Z" class="g2_2"/>
<path d="M114.3,258.9c0,-4.9,4.1,-8.9,9,-8.9H291.5c5.1,0,9,4,9,8.9v35.9c0,5,-3.9,8.9,-9,8.9H123.3c-4.9,0,-9,-3.9,-9,-8.9V258.9Z" class="g3_2"/>
<path d="M400.2,190.8c0,-5,4.1,-9,9.1,-9H577.5c5,0,9,4,9,9v35.8c0,5,-4,9,-9,9H409.3c-5,0,-9.1,-4,-9.1,-9V190.8Z" class="g2_2"/>
<path d="M400.2,190.8c0,-5,4.1,-9,9.1,-9H577.5c5,0,9,4,9,9v35.8c0,5,-4,9,-9,9H409.3c-5,0,-9.1,-4,-9.1,-9V190.8Z" class="g3_2"/>
<path d="M221.5,124.2c0,-5,4.1,-9,9,-9H398.7c5.1,0,9,4,9,9V160c0,5,-3.9,9,-9,9H230.5c-4.9,0,-9,-4,-9,-9V124.2Z" class="g2_2"/>
<path d="M221.5,124.2c0,-5,4.1,-9,9,-9H398.7c5.1,0,9,4,9,9V160c0,5,-3.9,9,-9,9H230.5c-4.9,0,-9,-4,-9,-9V124.2Z" class="g3_2"/>
<path d="M392.9,341.8H204.6V304" class="g0_2"/>
<path d="M391.4,339.6l8.2,2.2l-8.2,2.2v-4.4Z" class="g1_2"/>
</svg>