<?xml version="1.0" encoding="UTF-8" standalone="no"?>
<!DOCTYPE svg PUBLIC "-//W3C//DTD SVG 1.1//EN"
"http://www.w3.org/Graphics/SVG/1.1/DTD/svg11.dtd">
<svg viewBox="0 0 811 1017" version="1.1" xmlns="http://www.w3.org/2000/svg" xmlns:xlink="http://www.w3.org/1999/xlink">
<defs>
<style type="text/css"><![CDATA[
.g0_129{
fill: #000;
}
.g1_129{
fill: #0E0E0E;
}
]]></style>
</defs>
<path d="M440.3,220.2h.3V135.6h-.3Z" class="g0_129"/>
<path d="M156.1,136.3H724.7v-.7H156.1Z" class="g0_129"/>
<path d="M156.1,220.2H724.7v-.4H156.1Z" class="g0_129"/>
<path d="M472.4,155.9c0,-.5,-.5,-.9,-1,-.9c-.3,0,-.7,.1,-1,.3c-.3,.2,-.6,.5,-.8,.9c0,-.7,-.4,-1.2,-1.1,-1.2c-1.1,0,-2.1,1.1,-2.4,1.9l.2,.1c.4,-.5,1.1,-1.7,2,-1.7c.2,0,.4,.6,.4,1c0,.3,-.1,.7,-.2,1.2l-.4,1.1c-.1,.6,-.4,1.4,-.7,1.8c-.2,.3,-.4,.7,-.8,.7c-.4,0,-.7,-.1,-.6,-.5c.1,-.3,0,-.7,-.4,-.7c-.5,0,-.6,.3,-.6,.7c0,.6,.4,1,1,1c1,0,1.7,-.8,2.1,-1.5h.1c.1,.8,.5,1.5,1.3,1.5c1.2,0,2,-1.2,2.5,-1.9l-.2,-.2c-.5,.7,-1.2,1.7,-2,1.7c-.4,0,-.7,-.6,-.7,-1.2c0,-.4,.1,-.8,.2,-1.4l.2,-.7c.1,-.6,.4,-1.2,.6,-1.6c.2,-.3,.6,-.9,1,-.9c.4,0,.3,.3,.3,.6c0,.4,.1,.5,.5,.5c.3,0,.5,-.2,.5,-.6Z" class="g1_129"/>
<path d="M475.4,159.2c.2,0,.4,.2,.4,.4c0,1,-1.2,1.7,-2.1,2c.2,-.8,.9,-2.4,1.7,-2.4Zm.1,-.3c-.8,0,-1.4,.6,-1.8,1.1c-.5,.6,-.9,1.4,-.9,2.3c0,.9,.3,1.5,1.2,1.5c.7,0,1.4,-.6,1.9,-1.3l-.2,-.1c-.3,.4,-.9,1.1,-1.5,1.1c-.4,0,-.6,-.4,-.6,-1c0,-.2,0,-.5,0,-.7c1.1,-.2,2.9,-.9,2.9,-2.1c0,-.5,-.4,-.8,-1,-.8Z" class="g1_129"/>
<path d="M482.4,159.5H490v-.8h-7.6Zm0,-3H490v-.8h-7.6Z" class="g1_129"/>
<path d="M503.8,144.7c0,-.5,-.5,-.9,-1,-.9c-.3,0,-.6,.1,-1,.3c-.3,.2,-.6,.5,-.8,.9c0,-.7,-.4,-1.2,-1.1,-1.2c-1.1,0,-2.1,1.1,-2.4,1.9l.2,.1c.4,-.5,1.1,-1.7,2,-1.7c.3,0,.4,.6,.4,1c0,.3,-.1,.7,-.2,1.2l-.4,1.1c-.1,.6,-.4,1.4,-.7,1.8c-.2,.3,-.4,.7,-.8,.7c-.4,0,-.7,-.1,-.6,-.5c.1,-.3,0,-.7,-.4,-.7c-.5,0,-.6,.3,-.6,.7c0,.6,.4,1,1,1c1,0,1.8,-.8,2.1,-1.5h.1c.1,.8,.5,1.5,1.3,1.5c1.2,0,2,-1.2,2.5,-1.9l-.2,-.2c-.5,.7,-1.2,1.7,-2,1.7c-.4,0,-.6,-.6,-.6,-1.2c0,-.4,0,-.8,.1,-1.4l.2,-.7c.1,-.6,.4,-1.2,.6,-1.6c.2,-.3,.6,-.9,1,-.9c.4,0,.4,.3,.3,.6c0,.4,.2,.5,.5,.5c.4,0,.5,-.2,.5,-.6Z" class="g1_129"/>
<path d="M507.9,149.3c0,.7,-.3,1.5,-.7,1.8c-.4,.4,-1.1,.9,-1.7,1l1.1,-4c0,0,.1,-.1,.2,-.1c0,0,.1,0,.2,0c.7,0,.9,.7,.9,1.3Zm-2.1,-1l-1.6,5.8c-.1,.3,-.4,.4,-.9,.4v.2h2.5v-.2c-.4,0,-.8,0,-.8,-.4c0,0,0,-.1,0,-.2c0,0,0,-.1,0,-.2l.4,-1.4c.9,-.1,1.8,-.5,2.3,-1c.5,-.5,1,-1.1,1,-2c0,-1,-.6,-1.6,-1.5,-1.6c-.2,0,-.4,.1,-.6,.1l.3,-1.2h-.6l-.4,1.4c-.3,.1,-.6,.3,-.9,.5c-.3,.2,-.5,.4,-.7,.7l.2,.2c.3,-.4,.8,-.8,1.3,-1.1Z" class="g1_129"/>
<path d="M496.6,158h13.6v-.8H496.6Z" class="g1_129"/>
<path d="M502.8,165.3c-.9,0,-1.5,-.7,-1.5,-1.6c0,-1.1,.6,-2.2,1.8,-2.2c1.7,0,1.9,1.3,1.9,2.6c0,1.2,-.4,2,-1,2.9c-.4,.5,-.9,1.2,-1.6,1.8c-.6,.7,-1.5,1.5,-2.5,2.4v.5h6.2l.5,-2.9h-.4c-.1,.3,-.2,.6,-.3,.8c-.2,.5,-.6,.8,-1.4,.8h-2.8l-.1,-.1c.7,-.5,1.3,-1,1.9,-1.5c1,-.9,2.1,-1.9,2.7,-3.1c.2,-.5,.4,-1,.4,-1.6c0,-.4,-.1,-.8,-.3,-1.2c-.5,-1,-1.5,-1.7,-3,-1.7c-.9,0,-1.8,.3,-2.3,.8c-.6,.4,-1,1.1,-1,2c0,.6,.2,1.1,.5,1.4c.3,.4,.7,.6,1.3,.6c.5,0,.9,-.3,1,-.7Z" class="g1_129"/>
<path d="M466.3,204.1c0,.6,.5,.9,1.1,.9c.4,0,.8,-.1,1.3,-.5c.8,-.7,2,-2.3,2.8,-3.5c.4,-.6,.7,-1.2,1,-1.8c.4,-.7,1.1,-2.1,1.1,-2.9c0,-.2,0,-.4,-.1,-.6c-.1,-.2,-.3,-.3,-.5,-.3c-.1,0,-.3,.1,-.4,.2c-.2,.2,-.2,.4,-.2,.7c0,.4,.2,.9,.2,1.3c0,.6,-.2,1.1,-.4,1.6c-.3,.5,-.5,.9,-.9,1.4l-.4,-1.9c-.1,-.6,-.3,-1.6,-.4,-2.1c-.2,-.6,-.3,-1.2,-1.3,-1.2c-1.2,0,-1.4,1.8,-1.6,2.6l.3,.1c.1,-.6,.6,-2.3,1,-2.3c.3,0,.5,1,.6,1.2c0,.3,.1,.7,.2,1.4l.6,3.5c-.3,.8,-1.1,1.7,-1.7,2.2c-.3,.2,-.6,.2,-.8,.2q-.1,0,-.2,-.1c-.2,-.3,-.2,-.8,-.7,-.8c-.4,0,-.6,.3,-.6,.7Z" class="g1_129"/>
<path d="M476.7,199.7c.3,0,.4,.2,.4,.4c0,1,-1.2,1.7,-2.1,2c.2,-.8,.9,-2.4,1.7,-2.4Zm.1,-.3c-.8,0,-1.4,.6,-1.8,1.1c-.5,.6,-.8,1.4,-.8,2.3c0,.9,.2,1.4,1.1,1.4c.8,0,1.4,-.5,1.9,-1.2l-.2,-.1c-.3,.4,-.9,1.1,-1.5,1.1c-.4,0,-.6,-.4,-.6,-1c0,-.2,0,-.5,0,-.7c1.1,-.2,2.9,-.9,2.9,-2.1c0,-.5,-.4,-.8,-1,-.8Z" class="g1_129"/>
<path d="M483.7,200h7.6v-.8h-7.6Zm0,-3h7.6v-.8h-7.6Z" class="g1_129"/>
<path d="M496.9,192.9c0,.6,.4,.9,1.1,.9c.4,0,.8,-.1,1.3,-.5c.8,-.7,2,-2.3,2.8,-3.5c.3,-.6,.7,-1.2,1,-1.8c.4,-.7,1.1,-2.1,1.1,-2.9c0,-.2,0,-.4,-.1,-.6c-.1,-.2,-.3,-.3,-.5,-.3c-.2,0,-.3,.1,-.4,.2c-.2,.2,-.2,.4,-.2,.7c0,.4,.2,.9,.2,1.3c0,.6,-.2,1.1,-.5,1.6c-.2,.5,-.4,.9,-.8,1.4h-.1l-.3,-1.9c-.1,-.6,-.3,-1.6,-.4,-2.1c-.2,-.6,-.3,-1.2,-1.3,-1.2c-1.2,0,-1.4,1.8,-1.6,2.6l.3,.1c.1,-.6,.5,-2.3,1,-2.3c.3,0,.5,1,.5,1.2c.1,.3,.2,.7,.3,1.4l.6,3.5c-.3,.8,-1.2,1.7,-1.8,2.2c-.2,.2,-.5,.2,-.7,.2c-.1,0,-.2,0,-.2,-.1c-.2,-.3,-.2,-.8,-.7,-.8c-.4,0,-.6,.3,-.6,.7Z" class="g1_129"/>
<path d="M508.4,189.8c0,.7,-.3,1.4,-.7,1.8c-.4,.4,-1.1,.8,-1.7,1l1,-4c.1,-.1,.2,-.1,.2,-.1c.1,0,.2,0,.3,0c.6,0,.9,.7,.9,1.3Zm-2.2,-1l-1.5,5.8c-.2,.3,-.4,.4,-.9,.4v.1h2.5V195c-.5,0,-.9,0,-.9,-.4q0,-.1,0,-.2c.1,0,.1,-.1,.1,-.2l.4,-1.4c.9,-.1,1.7,-.5,2.3,-1c.5,-.5,1,-1.1,1,-2c0,-1,-.6,-1.6,-1.6,-1.6c-.2,0,-.3,0,-.5,.1l.3,-1.2h-.7l-.4,1.4c-.3,.1,-.6,.3,-.8,.5c-.3,.2,-.5,.4,-.7,.7l.1,.1c.4,-.3,.9,-.7,1.3,-1Z" class="g1_129"/>
<path d="M497.9,198.5h12.7v-.8H497.9Z" class="g1_129"/>
<path d="M503.7,205.8c-.9,0,-1.5,-.7,-1.5,-1.6c0,-1.1,.6,-2.2,1.8,-2.2c1.7,0,1.8,1.3,1.8,2.6c0,1.2,-.3,2,-.9,2.9c-.4,.5,-.9,1.1,-1.6,1.8c-.7,.7,-1.5,1.5,-2.5,2.4v.5H507l.5,-2.9h-.4c-.1,.3,-.2,.6,-.3,.8c-.2,.5,-.6,.7,-1.4,.7h-2.9c.7,-.5,1.3,-1,1.9,-1.5c1,-.9,2.1,-1.9,2.7,-3.1c.2,-.5,.4,-1.1,.4,-1.6c0,-.4,-.1,-.8,-.3,-1.2c-.5,-1,-1.5,-1.7,-3,-1.7c-.9,0,-1.8,.3,-2.3,.8c-.6,.4,-1,1.1,-1,2c0,.6,.2,1.1,.5,1.4c.3,.3,.7,.6,1.2,.6c.6,0,1,-.3,1.1,-.7Z" class="g1_129"/>
<path d="M716.9,281.8c0,-.4,-.2,-.7,-.5,-.8h-.6c-.2,.1,-.3,.2,-.5,.3c-.2,.1,-.5,.4,-.7,.7c0,-.5,-.2,-.8,-.6,-1h-.6c-.8,.2,-1.5,1,-1.7,1.6l.2,.1c.3,-.4,.9,-1.4,1.6,-1.4c.2,0,.3,.4,.3,.8c0,.2,0,.6,-.1,1l-.3,.9c-.2,.5,-.4,1.2,-.6,1.5c-.1,.2,-.4,.6,-.7,.6c-.3,0,-.6,-.1,-.5,-.4c.1,-.3,0,-.6,-.3,-.6c-.4,0,-.6,.2,-.6,.6c0,.5,.4,.8,.9,.8c.9,0,1.5,-.7,1.8,-1.2c.1,.7,.4,1.2,1.1,1.2c1,0,1.7,-1,2.1,-1.6l-.2,-.1c-.4,.5,-1,1.4,-1.6,1.4c-.4,0,-.6,-.5,-.6,-1c0,-.3,.1,-.7,.2,-1.2l.1,-.6c.1,-.4,.3,-1,.6,-1.3c.1,-.3,.4,-.8,.7,-.8c.4,0,.4,.3,.3,.5c0,.3,.1,.5,.4,.5c.3,0,.4,-.2,.4,-.5Z" class="g1_129"/>
<path d="M720.5,285.5c0,.6,-.3,1.3,-.6,1.6c-.4,.3,-.9,.7,-1.5,.8l.9,-3.5q.1,0,.2,0q.1,0,.2,0c.6,0,.8,.6,.8,1.1Zm-1.9,-.8l-1.3,4.9c-.1,.3,-.4,.4,-.8,.4v.1h2.2V290c-.4,0,-.8,0,-.8,-.4v-.1c.1,0,.1,-.1,.1,-.2l.3,-1.2c.8,-.1,1.5,-.5,2,-.9c.5,-.4,.9,-.9,.9,-1.7c0,-.8,-.5,-1.3,-1.4,-1.3c-.1,0,-.3,0,-.4,0l.2,-1h-.5l-.4,1.2c-.2,.1,-.5,.3,-.7,.5c-.3,.1,-.4,.3,-.6,.5l.1,.2c.3,-.3,.8,-.7,1.1,-.9Z" class="g1_129"/>
<path d="M709.9,292.1h13.7v-1H709.9Z" class="g1_129"/>
<path d="M714.3,299.8c0,-.3,-.1,-.8,-.1,-.9c0,-.3,0,-.5,.1,-.6c0,-.4,.2,-1.3,.6,-1.3c.2,0,.2,.4,.2,.7c0,.7,-.5,1.6,-.8,2.1ZM712,297.2c0,0,-1.4,2,-1.4,3.4c0,.7,.4,1.3,1.2,1.3c.9,0,1.5,-.5,1.9,-1c.2,.6,.5,1,1.2,1c1.8,0,2.9,-3.4,2.9,-4.5c0,-.5,-.1,-1,-.6,-1c-.3,0,-.5,.2,-.5,.6c0,.6,.4,1,.4,1.7c0,.8,-.9,2.9,-1.9,2.9c-.5,0,-.7,-1,-.8,-1.5c.3,-.5,.7,-1.1,.9,-1.6c.2,-.5,.3,-.9,.3,-1.2c0,-.5,-.2,-.9,-.6,-.9c-.2,0,-.4,.1,-.5,.3c-.6,.5,-1,1.6,-1,2.7c0,.1,.1,.2,.1,.4c0,.1,0,.6,0,.7c-.2,.4,-.5,.6,-.8,.8c-.2,.2,-.4,.3,-.6,.3c-.5,0,-.6,-.5,-.6,-1.1c0,-1.4,.4,-2.5,1,-3.5c.1,-.1,.4,-.4,.4,-.4c0,-.1,0,-.2,-.1,-.2c-.1,0,-.2,.1,-.2,.1q-.1,.1,-.3,.3c-.1,.1,-.2,.1,-.3,.1c-.3,0,-.4,0,-.5,-.2c-.2,-.2,-.4,-.3,-.6,-.3c-.6,0,-1.1,.5,-1.1,1c0,.3,.2,.4,.4,.4c.3,0,.4,-.1,.4,-.4c0,-.2,-.2,-.2,-.2,-.3c0,-.1,0,-.2,.2,-.2c.4,0,.5,.3,.7,.4c.1,.1,.2,.1,.4,0l.2,-.1Z" class="g1_129"/>
<path d="M721.5,301c0,.6,-.3,1.2,-.6,1.6c-.4,.3,-.9,.7,-1.5,.8l.9,-3.5c.1,0,.2,0,.2,0c.1,0,.2,0,.2,0c.6,0,.8,.6,.8,1.1Zm-1.8,-.9l-1.4,5c-.1,.3,-.3,.4,-.7,.4l-.1,.1h2.2v-.1c-.4,-.1,-.7,-.1,-.7,-.4c0,0,0,-.1,0,-.1q0,-.1,0,-.2l.4,-1.2c.7,-.1,1.5,-.5,1.9,-.9c.5,-.4,.9,-1,.9,-1.7c0,-.9,-.5,-1.4,-1.3,-1.4c-.2,0,-.4,0,-.5,.1l.3,-1h-.6l-.4,1.2c-.2,.1,-.5,.2,-.7,.4c-.2,.2,-.4,.4,-.6,.6l.1,.1c.3,-.3,.8,-.7,1.2,-.9Z" class="g1_129"/>
</svg>