<?xml version="1.0" encoding="UTF-8" standalone="no"?>
<!DOCTYPE svg PUBLIC "-//W3C//DTD SVG 1.1//EN"
"http://www.w3.org/Graphics/SVG/1.1/DTD/svg11.dtd">
<svg viewBox="0 0 811 1017" version="1.1" xmlns="http://www.w3.org/2000/svg" xmlns:xlink="http://www.w3.org/1999/xlink">
<defs>
<style type="text/css"><![CDATA[
.g0_251{
fill: #FFF;
}
.g1_251{
fill: #1A78B6;
}
.g2_251{
fill: none;
stroke: #1A78B6;
stroke-width: 0.982;
stroke-linejoin: round;
}
.g3_251{
fill: none;
stroke: #B0B2B1;
stroke-width: 0.785;
stroke-linecap: square;
stroke-linejoin: round;
}
.g4_251{
fill: none;
stroke: #040504;
stroke-width: 0.785;
stroke-linejoin: round;
}
.g5_251{
fill: #040504;
}
.g6_251{
fill: none;
stroke: #1A78B6;
stroke-width: 1.472;
stroke-linecap: square;
stroke-linejoin: round;
}
.g7_251{
fill: none;
stroke: #040504;
stroke-width: 0.785;
stroke-linecap: square;
}
.g8_251{
fill: #0E0E0E;
}
]]></style>
</defs>
<path d="M190.9,540.8H541.5V279.6H190.9Z" class="g0_251"/>
<path d="M233.4,512.1c.8,0,1.5,-.3,2.1,-.8c.5,-.6,.8,-1.3,.8,-2.1c0,-.8,-.3,-1.6,-.8,-2.1c-.6,-.6,-1.3,-.9,-2.1,-.9c-.8,0,-1.5,.3,-2.1,.9c-.6,.5,-.9,1.3,-.9,2.1c0,.8,.3,1.5,.9,2.1c.6,.5,1.3,.8,2.1,.8Z" class="g1_251"/>
<path d="M233.4,512.1c.8,0,1.5,-.3,2.1,-.8c.5,-.6,.8,-1.3,.8,-2.1c0,-.8,-.3,-1.6,-.8,-2.1c-.6,-.6,-1.3,-.9,-2.1,-.9c-.8,0,-1.5,.3,-2.1,.9c-.6,.5,-.9,1.3,-.9,2.1c0,.8,.3,1.5,.9,2.1c.6,.5,1.3,.8,2.1,.8Z" class="g2_251"/>
<path d="M499,314.2c.8,0,1.5,-.3,2.1,-.9c.5,-.5,.8,-1.3,.8,-2c0,-.8,-.3,-1.6,-.8,-2.1c-.6,-.6,-1.3,-.9,-2.1,-.9c-.8,0,-1.6,.3,-2.1,.9c-.6,.5,-.9,1.3,-.9,2.1c0,.7,.3,1.5,.9,2c.5,.6,1.3,.9,2.1,.9Z" class="g1_251"/>
<path d="M499,314.2c.8,0,1.5,-.3,2.1,-.9c.5,-.5,.8,-1.3,.8,-2c0,-.8,-.3,-1.6,-.8,-2.1c-.6,-.6,-1.3,-.9,-2.1,-.9c-.8,0,-1.6,.3,-2.1,.9c-.6,.5,-.9,1.3,-.9,2.1c0,.7,.3,1.5,.9,2c.5,.6,1.3,.9,2.1,.9Z" class="g2_251"/>
<path d="M233.4,540.8V279.6" class="g3_251"/>
<path d="M233.4,540.8v3.5" class="g4_251"/>
<path d="M228.7,547.9c.8,0,1.4,.3,1.8,.9c.5,.7,.7,1.6,.7,2.8c0,1.2,-.2,2.1,-.7,2.8c-.4,.6,-1,.9,-1.8,.9c-.8,0,-1.4,-.3,-1.8,-.9c-.5,-.7,-.7,-1.6,-.7,-2.8c0,-1.2,.2,-2.1,.7,-2.8c.4,-.6,1,-.9,1.8,-.9Zm0,.8c-.5,0,-.9,.2,-1.1,.7c-.3,.5,-.4,1.2,-.4,2.2c0,1,.1,1.7,.4,2.2c.2,.5,.6,.7,1.1,.7c.5,0,.9,-.2,1.1,-.7c.3,-.5,.4,-1.2,.4,-2.2c0,-1,-.1,-1.7,-.4,-2.2c-.2,-.5,-.6,-.7,-1.1,-.7Z" class="g5_251"/>
<path d="M232.9,555.2h1V554h-1Z" class="g5_251"/>
<path d="M238.1,547.9c.8,0,1.4,.3,1.8,.9c.4,.7,.6,1.6,.6,2.8c0,1.2,-.2,2.1,-.6,2.8c-.4,.6,-1,.9,-1.8,.9c-.8,0,-1.4,-.3,-1.9,-.9c-.4,-.7,-.6,-1.6,-.6,-2.8c0,-1.2,.2,-2.1,.6,-2.8c.5,-.6,1.1,-.9,1.9,-.9Zm0,.8c-.5,0,-.9,.2,-1.2,.7c-.2,.5,-.3,1.2,-.3,2.2c0,1,.1,1.7,.3,2.2c.3,.5,.7,.7,1.2,.7c.5,0,.8,-.2,1.1,-.7c.2,-.5,.4,-1.2,.4,-2.2c0,-1,-.2,-1.7,-.4,-2.2c-.3,-.5,-.6,-.7,-1.1,-.7Z" class="g5_251"/>
<path d="M286.5,540.8V279.6" class="g3_251"/>
<path d="M286.5,540.8v3.5" class="g4_251"/>
<path d="M281.8,547.9c.8,0,1.4,.3,1.9,.9c.4,.7,.6,1.6,.6,2.8c0,1.2,-.2,2.1,-.6,2.8c-.5,.6,-1.1,.9,-1.9,.9c-.8,0,-1.4,-.3,-1.8,-.9c-.4,-.7,-.7,-1.6,-.7,-2.8c0,-1.2,.3,-2.1,.7,-2.8c.4,-.6,1,-.9,1.8,-.9Zm0,.8c-.5,0,-.9,.2,-1.1,.7c-.3,.5,-.4,1.2,-.4,2.2c0,1,.1,1.7,.4,2.2c.2,.5,.6,.7,1.1,.7c.5,0,.9,-.2,1.1,-.7c.3,-.5,.4,-1.2,.4,-2.2c0,-1,-.1,-1.7,-.4,-2.2c-.2,-.5,-.6,-.7,-1.1,-.7Z" class="g5_251"/>
<path d="M286,555.2h1V554h-1Z" class="g5_251"/>
<path d="M289.9,554.4h3.4v.8h-4.5v-.8c.4,-.4,.9,-.9,1.5,-1.6c.6,-.6,1,-1,1.2,-1.2c.3,-.4,.5,-.7,.6,-.9c.2,-.2,.2,-.5,.2,-.7c0,-.4,-.1,-.7,-.4,-.9c-.3,-.3,-.6,-.4,-1,-.4c-.3,0,-.7,.1,-1,.2c-.3,.1,-.7,.2,-1.1,.4v-.9c.4,-.2,.8,-.3,1.1,-.4c.4,-.1,.7,-.1,1,-.1c.7,0,1.3,.2,1.7,.5c.5,.4,.7,.9,.7,1.5c0,.3,-.1,.6,-.2,.9c-.1,.2,-.3,.5,-.6,.9c-.1,.1,-.3,.4,-.7,.8c-.5,.4,-1.1,1.1,-1.9,1.9Z" class="g5_251"/>
<path d="M339.6,540.8V279.6" class="g3_251"/>
<path d="M339.6,540.8v3.5" class="g4_251"/>
<path d="M334.9,547.9c.8,0,1.5,.3,1.9,.9c.4,.7,.6,1.6,.6,2.8c0,1.2,-.2,2.1,-.6,2.8c-.4,.6,-1.1,.9,-1.9,.9c-.8,0,-1.4,-.3,-1.8,-.9c-.4,-.7,-.6,-1.6,-.6,-2.8c0,-1.2,.2,-2.1,.6,-2.8c.4,-.6,1,-.9,1.8,-.9Zm0,.8c-.5,0,-.8,.2,-1.1,.7c-.2,.5,-.4,1.2,-.4,2.2c0,1,.2,1.7,.4,2.2c.3,.5,.6,.7,1.1,.7c.5,0,.9,-.2,1.2,-.7c.2,-.5,.3,-1.2,.3,-2.2c0,-1,-.1,-1.7,-.3,-2.2c-.3,-.5,-.7,-.7,-1.2,-.7Z" class="g5_251"/>
<path d="M339.1,555.2h1V554h-1Z" class="g5_251"/>
<path d="M344.6,548h1.3v4.7h1v.8h-1v1.7h-1v-1.7h-3.2v-1l2.9,-4.5Zm.3,.9l-2.5,3.8h2.5v-3.8Z" class="g5_251"/>
<path d="M392.7,540.8V279.6" class="g3_251"/>
<path d="M392.7,540.8v3.5" class="g4_251"/>
<path d="M388.1,547.9c.8,0,1.4,.3,1.8,.9c.4,.7,.6,1.6,.6,2.8c0,1.2,-.2,2.1,-.6,2.8c-.4,.6,-1,.9,-1.8,.9c-.8,0,-1.5,-.3,-1.9,-.9c-.4,-.7,-.6,-1.6,-.6,-2.8c0,-1.2,.2,-2.1,.6,-2.8c.4,-.6,1.1,-.9,1.9,-.9Zm0,.8c-.5,0,-.9,.2,-1.2,.7c-.2,.5,-.3,1.2,-.3,2.2c0,1,.1,1.7,.3,2.2c.3,.5,.7,.7,1.2,.7c.5,0,.8,-.2,1.1,-.7c.2,-.5,.4,-1.2,.4,-2.2c0,-1,-.2,-1.7,-.4,-2.2c-.3,-.5,-.6,-.7,-1.1,-.7Z" class="g5_251"/>
<path d="M392.2,555.2h1V554h-1Z" class="g5_251"/>
<path d="M399.5,548.2v.9c-.3,-.2,-.5,-.2,-.8,-.3c-.2,-.1,-.5,-.1,-.7,-.1c-.6,0,-1.1,.2,-1.5,.6c-.3,.5,-.5,1.1,-.5,2c.1,-.3,.4,-.5,.7,-.6c.2,-.2,.6,-.3,.9,-.3c.7,0,1.3,.3,1.7,.7c.4,.4,.6,1,.6,1.8c0,.7,-.2,1.3,-.6,1.7c-.5,.5,-1,.7,-1.8,.7c-.8,0,-1.4,-.3,-1.9,-.9c-.4,-.7,-.6,-1.6,-.6,-2.8c0,-1.1,.3,-2,.8,-2.7c.5,-.7,1.3,-1,2.2,-1c.2,0,.4,0,.7,.1c.2,0,.5,.1,.8,.2Zm-2,3c-.4,0,-.7,.2,-1,.5c-.2,.2,-.4,.7,-.4,1.2c0,.5,.2,.9,.4,1.2c.3,.3,.6,.4,1,.4c.5,0,.8,-.1,1.1,-.4c.2,-.3,.4,-.7,.4,-1.2c0,-.5,-.2,-1,-.4,-1.2c-.3,-.3,-.6,-.5,-1.1,-.5Z" class="g5_251"/>
<path d="M445.9,540.8V279.6" class="g3_251"/>
<path d="M445.9,540.8v3.5" class="g4_251"/>
<path d="M441.2,547.9c.8,0,1.4,.3,1.8,.9c.4,.7,.6,1.6,.6,2.8c0,1.2,-.2,2.1,-.6,2.8c-.4,.6,-1,.9,-1.8,.9c-.8,0,-1.4,-.3,-1.9,-.9c-.4,-.7,-.6,-1.6,-.6,-2.8c0,-1.2,.2,-2.1,.6,-2.8c.5,-.6,1.1,-.9,1.9,-.9Zm0,.8c-.5,0,-.9,.2,-1.1,.7c-.3,.5,-.4,1.2,-.4,2.2c0,1,.1,1.7,.4,2.2c.2,.5,.6,.7,1.1,.7c.5,0,.9,-.2,1.1,-.7c.3,-.5,.4,-1.2,.4,-2.2c0,-1,-.1,-1.7,-.4,-2.2c-.2,-.5,-.6,-.7,-1.1,-.7Z" class="g5_251"/>
<path d="M445.3,555.2h1.1V554h-1.1Z" class="g5_251"/>
<path d="M449.2,549.8c0,.4,.1,.7,.4,.9c.2,.2,.5,.3,.9,.3c.5,0,.8,-.1,1,-.3c.3,-.2,.4,-.5,.4,-.9c0,-.3,-.1,-.6,-.4,-.8c-.2,-.2,-.5,-.3,-1,-.3c-.4,0,-.7,.1,-.9,.3c-.3,.2,-.4,.5,-.4,.8Zm.4,1.6c-.4,-.1,-.8,-.3,-1,-.6c-.2,-.3,-.3,-.7,-.3,-1.1c0,-.5,.2,-1,.6,-1.3c.4,-.3,.9,-.5,1.6,-.5c.8,0,1.3,.2,1.7,.5c.4,.3,.6,.8,.6,1.3c0,.4,-.1,.8,-.3,1.1c-.3,.3,-.6,.5,-1,.6c.5,.1,.8,.3,1.1,.6c.3,.3,.4,.7,.4,1.2c0,.6,-.2,1.2,-.6,1.6c-.5,.3,-1.1,.5,-1.9,.5c-.7,0,-1.4,-.2,-1.8,-.5c-.4,-.4,-.6,-1,-.6,-1.6c0,-.5,.1,-.9,.4,-1.2c.2,-.3,.6,-.5,1.1,-.6Zm.9,.4c-.4,0,-.8,.1,-1,.3c-.3,.3,-.4,.6,-.4,1.1c0,.4,.1,.7,.4,1c.2,.2,.6,.3,1,.3c.5,0,.9,-.1,1.1,-.3c.3,-.3,.4,-.6,.4,-1c0,-.5,-.1,-.8,-.4,-1.1c-.2,-.2,-.6,-.3,-1.1,-.3Z" class="g5_251"/>
<path d="M499,540.8V279.6" class="g3_251"/>
<path d="M499,540.8v3.5" class="g4_251"/>
<path d="M492.4,554.4H494v-5.5l-1.7,.3v-.8L494,548h.9v6.4h1.6v.8h-4.1v-.8Z" class="g5_251"/>
<path d="M498.5,555.2h1V554h-1Z" class="g5_251"/>
<path d="M503.7,547.9c.8,0,1.4,.3,1.8,.9c.4,.7,.6,1.6,.6,2.8c0,1.2,-.2,2.1,-.6,2.8c-.4,.6,-1,.9,-1.8,.9c-.8,0,-1.5,-.3,-1.9,-.9c-.4,-.7,-.6,-1.6,-.6,-2.8c0,-1.2,.2,-2.1,.6,-2.8c.4,-.6,1.1,-.9,1.9,-.9Zm0,.8c-.5,0,-.9,.2,-1.2,.7c-.2,.5,-.3,1.2,-.3,2.2c0,1,.1,1.7,.3,2.2c.3,.5,.7,.7,1.2,.7c.5,0,.8,-.2,1.1,-.7c.2,-.5,.4,-1.2,.4,-2.2c0,-1,-.2,-1.7,-.4,-2.2c-.3,-.5,-.6,-.7,-1.1,-.7Z" class="g5_251"/>
<path d="M368.7,563.2l-2,2.6l2.1,2.8h-1.1l-1.5,-2.1l-1.6,2.1h-1l2,-2.8l-1.9,-2.6h1.1l1.4,1.9l1.4,-1.9h1.1Z" class="g5_251"/>
<path d="M190.9,509.2H541.5" class="g3_251"/>
<path d="M190.9,509.2h-3.4" class="g4_251"/>
<path d="M171.5,505.6c.8,0,1.4,.3,1.9,1c.4,.6,.6,1.5,.6,2.7c0,1.2,-.2,2.2,-.6,2.8c-.5,.6,-1.1,.9,-1.9,.9c-.8,0,-1.4,-.3,-1.8,-.9c-.4,-.6,-.6,-1.6,-.6,-2.8c0,-1.2,.2,-2.1,.6,-2.7c.4,-.7,1,-1,1.8,-1Zm0,.8c-.5,0,-.8,.2,-1.1,.7c-.2,.5,-.4,1.2,-.4,2.2c0,1,.2,1.7,.4,2.2c.3,.5,.6,.8,1.1,.8c.5,0,.9,-.3,1.2,-.8c.2,-.5,.3,-1.2,.3,-2.2c0,-1,-.1,-1.7,-.3,-2.2c-.3,-.5,-.7,-.7,-1.2,-.7Z" class="g5_251"/>
<path d="M175.7,512.9h1v-1.2h-1Z" class="g5_251"/>
<path d="M179.7,512.1H183v.8h-4.5v-.8c.4,-.4,.9,-.9,1.5,-1.5c.6,-.7,1,-1.1,1.2,-1.3c.3,-.3,.5,-.6,.6,-.9c.2,-.2,.2,-.4,.2,-.7c0,-.4,-.1,-.7,-.4,-.9c-.2,-.2,-.6,-.4,-1,-.4c-.3,0,-.6,.1,-1,.2c-.3,.1,-.7,.3,-1.1,.5v-1c.4,-.2,.8,-.3,1.1,-.4c.4,0,.7,-.1,1,-.1c.7,0,1.3,.2,1.7,.6c.5,.3,.7,.8,.7,1.5c0,.3,-.1,.5,-.2,.8c-.1,.3,-.3,.6,-.6,.9c0,.1,-.3,.4,-.7,.8c-.5,.5,-1.1,1.1,-1.8,1.9Z" class="g5_251"/>
<path d="M190.9,469.6H541.5" class="g3_251"/>
<path d="M190.9,469.6h-3.4" class="g4_251"/>
<path d="M171.5,466c.8,0,1.4,.4,1.9,1c.4,.6,.6,1.5,.6,2.8c0,1.2,-.2,2.1,-.6,2.7c-.5,.6,-1.1,1,-1.9,1c-.8,0,-1.4,-.4,-1.8,-1c-.4,-.6,-.6,-1.5,-.6,-2.7c0,-1.3,.2,-2.2,.6,-2.8c.4,-.6,1,-1,1.8,-1Zm0,.8c-.5,0,-.8,.2,-1.1,.7c-.2,.5,-.4,1.3,-.4,2.3c0,.9,.2,1.7,.4,2.2c.3,.4,.6,.7,1.1,.7c.5,0,.9,-.3,1.2,-.7c.2,-.5,.3,-1.3,.3,-2.2c0,-1,-.1,-1.8,-.3,-2.3c-.3,-.5,-.7,-.7,-1.2,-.7Z" class="g5_251"/>
<path d="M175.7,473.3h1v-1.2h-1Z" class="g5_251"/>
<path d="M181.8,469.5c.4,.1,.8,.3,1,.6c.3,.3,.4,.7,.4,1.1c0,.7,-.2,1.3,-.7,1.7c-.5,.4,-1.2,.6,-2.1,.6c-.3,0,-.6,-.1,-.9,-.1c-.3,-.1,-.6,-.2,-1,-.3v-.9c.3,.1,.6,.2,.9,.3c.3,.1,.7,.1,1,.1c.6,0,1.1,-.1,1.4,-.3c.3,-.3,.5,-.6,.5,-1.1c0,-.4,-.2,-.7,-.5,-.9c-.3,-.3,-.7,-.4,-1.2,-.4h-.8v-.8h.8c.5,0,.9,-.1,1.1,-.3c.3,-.2,.4,-.5,.4,-.8c0,-.4,-.1,-.7,-.4,-.9c-.2,-.2,-.6,-.2,-1.1,-.2c-.3,0,-.6,0,-.9,0c-.3,.1,-.6,.2,-1,.3v-.9c.4,-.1,.7,-.1,1.1,-.2c.3,0,.6,-.1,.9,-.1c.7,0,1.3,.2,1.7,.5c.5,.4,.7,.8,.7,1.4c0,.4,-.1,.7,-.4,1c-.2,.3,-.5,.5,-.9,.6Z" class="g5_251"/>
<path d="M190.9,430H541.5" class="g3_251"/>
<path d="M190.9,430h-3.4" class="g4_251"/>
<path d="M171.5,426.5c.8,0,1.4,.3,1.9,.9c.4,.6,.6,1.6,.6,2.8c0,1.2,-.2,2.1,-.6,2.7c-.5,.7,-1.1,1,-1.9,1c-.8,0,-1.4,-.3,-1.8,-1c-.4,-.6,-.6,-1.5,-.6,-2.7c0,-1.2,.2,-2.2,.6,-2.8c.4,-.6,1,-.9,1.8,-.9Zm0,.7c-.5,0,-.8,.3,-1.1,.8c-.2,.4,-.4,1.2,-.4,2.2c0,.9,.2,1.7,.4,2.2c.3,.5,.6,.7,1.1,.7c.5,0,.9,-.2,1.2,-.7c.2,-.5,.3,-1.3,.3,-2.2c0,-1,-.1,-1.8,-.3,-2.2c-.3,-.5,-.7,-.8,-1.2,-.8Z" class="g5_251"/>
<path d="M175.7,433.7h1v-1.2h-1Z" class="g5_251"/>
<path d="M181.2,426.6h1.2v4.6h1.1v.9h-1.1v1.6h-.9v-1.6h-3.2v-1l2.9,-4.5Zm.3,.8l-2.5,3.8h2.5v-3.8Z" class="g5_251"/>
<path d="M190.9,390.4H541.5" class="g3_251"/>
<path d="M190.9,390.4h-3.4" class="g4_251"/>
<path d="M171.5,386.9c.8,0,1.4,.3,1.9,.9c.4,.7,.6,1.6,.6,2.8c0,1.2,-.2,2.1,-.6,2.7c-.5,.7,-1.1,1,-1.9,1c-.8,0,-1.4,-.3,-1.8,-1c-.4,-.6,-.6,-1.5,-.6,-2.7c0,-1.2,.2,-2.1,.6,-2.8c.4,-.6,1,-.9,1.8,-.9Zm0,.7c-.5,0,-.8,.3,-1.1,.8c-.2,.5,-.4,1.2,-.4,2.2c0,1,.2,1.7,.4,2.2c.3,.5,.6,.7,1.1,.7c.5,0,.9,-.2,1.2,-.7c.2,-.5,.3,-1.2,.3,-2.2c0,-1,-.1,-1.7,-.3,-2.2c-.3,-.5,-.7,-.8,-1.2,-.8Z" class="g5_251"/>
<path d="M175.7,394.2h1v-1.3h-1Z" class="g5_251"/>
<path d="M178.8,387h3.8v.8h-2.9v1.8c.2,-.1,.3,-.1,.4,-.1c.2,-.1,.3,-.1,.5,-.1c.8,0,1.4,.2,1.9,.7c.4,.4,.7,1,.7,1.8c0,.7,-.3,1.3,-.8,1.8c-.4,.4,-1.1,.6,-2,.6c-.3,0,-.6,0,-.9,-.1c-.3,0,-.6,-.1,-1,-.2v-1c.3,.2,.6,.3,.9,.4c.3,0,.7,.1,1,.1c.5,0,1,-.2,1.3,-.5c.3,-.2,.5,-.6,.5,-1.1c0,-.5,-.2,-.9,-.5,-1.2c-.3,-.3,-.8,-.5,-1.3,-.5c-.3,0,-.5,.1,-.8,.1c-.2,.1,-.5,.2,-.8,.3V387Z" class="g5_251"/>
<path d="M190.9,350.8H541.5" class="g3_251"/>
<path d="M190.9,350.8h-3.4" class="g4_251"/>
<path d="M171.5,347.3c.8,0,1.4,.3,1.9,.9c.4,.7,.6,1.6,.6,2.8c0,1.2,-.2,2.1,-.6,2.8c-.5,.6,-1.1,.9,-1.9,.9c-.8,0,-1.4,-.3,-1.8,-.9c-.4,-.7,-.6,-1.6,-.6,-2.8c0,-1.2,.2,-2.1,.6,-2.8c.4,-.6,1,-.9,1.8,-.9Zm0,.8c-.5,0,-.8,.2,-1.1,.7c-.2,.5,-.4,1.2,-.4,2.2c0,1,.2,1.7,.4,2.2c.3,.5,.6,.7,1.1,.7c.5,0,.9,-.2,1.2,-.7c.2,-.5,.3,-1.2,.3,-2.2c0,-1,-.1,-1.7,-.3,-2.2c-.3,-.5,-.7,-.7,-1.2,-.7Z" class="g5_251"/>
<path d="M175.7,354.6h1v-1.2h-1Z" class="g5_251"/>
<path d="M182.9,347.6v.9c-.2,-.2,-.5,-.2,-.7,-.3c-.2,-.1,-.5,-.1,-.7,-.1c-.7,0,-1.2,.2,-1.5,.7c-.3,.4,-.5,1,-.6,1.9c.2,-.3,.4,-.5,.7,-.6c.3,-.2,.6,-.3,1,-.3c.7,0,1.3,.3,1.7,.7c.4,.4,.6,1,.6,1.8c0,.7,-.2,1.3,-.7,1.7c-.4,.5,-1,.7,-1.7,.7c-.8,0,-1.4,-.3,-1.9,-.9c-.4,-.7,-.6,-1.6,-.6,-2.8c0,-1.1,.2,-2,.8,-2.7c.5,-.7,1.2,-1,2.1,-1c.3,0,.5,0,.8,.1c.2,0,.5,.1,.7,.2Zm-1.9,3c-.4,0,-.8,.2,-1,.5c-.3,.3,-.4,.7,-.4,1.2c0,.5,.1,.9,.4,1.2c.2,.3,.6,.4,1,.4c.4,0,.8,-.1,1,-.4c.3,-.3,.4,-.7,.4,-1.2c0,-.5,-.1,-.9,-.4,-1.2c-.2,-.3,-.6,-.5,-1,-.5Z" class="g5_251"/>
<path d="M190.9,311.3H541.5" class="g3_251"/>
<path d="M190.9,311.3h-3.4" class="g4_251"/>
<path d="M171.5,307.7c.8,0,1.4,.3,1.9,1c.4,.6,.6,1.5,.6,2.7c0,1.2,-.2,2.1,-.6,2.8c-.5,.6,-1.1,.9,-1.9,.9c-.8,0,-1.4,-.3,-1.8,-.9c-.4,-.7,-.6,-1.6,-.6,-2.8c0,-1.2,.2,-2.1,.6,-2.7c.4,-.7,1,-1,1.8,-1Zm0,.8c-.5,0,-.8,.2,-1.1,.7c-.2,.5,-.4,1.2,-.4,2.2c0,1,.2,1.7,.4,2.2c.3,.5,.6,.8,1.1,.8c.5,0,.9,-.3,1.2,-.8c.2,-.5,.3,-1.2,.3,-2.2c0,-1,-.1,-1.7,-.3,-2.2c-.3,-.5,-.7,-.7,-1.2,-.7Z" class="g5_251"/>
<path d="M175.7,315h1v-1.2h-1Z" class="g5_251"/>
<path d="M178.6,307.8h4.6v.4l-2.6,6.8h-1l2.4,-6.3h-3.4v-.9Z" class="g5_251"/>
<path d="M162.9,410c.7,.2,1.1,.5,1.3,.7c.2,.2,.3,.5,.3,.9v.7h-.8v-.5c0,-.2,0,-.4,-.1,-.5c-.1,-.2,-.4,-.3,-.8,-.5l-.4,-.1l-5.3,2.1v-.9l4.2,-1.7l-4.2,-1.7v-.9l5.8,2.4Z" class="g5_251"/>
<path d="M206.8,529l2.7,-2C313.9,449.1,418.4,371.3,522.9,293.5l2.6,-2" class="g6_251"/>
<path d="M190.9,540.8V279.6M541.5,540.8V279.6M190.9,540.8H541.5M190.9,279.6H541.5" class="g7_251"/>
<path d="M343.3,265.1h2.9c.9,0,1.6,.2,2.1,.6c.5,.3,.7,.9,.7,1.5c0,.6,-.1,1,-.4,1.3c-.2,.3,-.6,.5,-1,.6c.5,.1,1,.4,1.3,.7c.3,.4,.5,.9,.5,1.5c0,.8,-.3,1.4,-.8,1.8c-.5,.4,-1.3,.6,-2.2,.6h-3.1v-8.6Zm1.1,1v2.6h1.8c.5,0,1,-.1,1.2,-.4c.3,-.2,.4,-.5,.4,-.9c0,-.5,-.1,-.8,-.4,-1c-.2,-.2,-.7,-.3,-1.2,-.3h-1.8Zm0,3.5v3.2h1.9c.6,0,1.1,-.2,1.4,-.4c.3,-.3,.4,-.7,.4,-1.2c0,-.6,-.1,-1,-.4,-1.2c-.3,-.3,-.8,-.4,-1.4,-.4h-1.9Z" class="g5_251"/>
<path d="M355.8,269.9c0,-.6,-.2,-1,-.5,-1.4c-.3,-.3,-.8,-.5,-1.3,-.5c-.6,0,-1,.2,-1.4,.5c-.3,.3,-.6,.8,-.6,1.4h3.8Zm1,.3v.5H352c0,.8,.2,1.3,.6,1.7c.4,.4,1,.6,1.7,.6c.4,0,.8,-.1,1.1,-.2c.4,-.1,.8,-.2,1.2,-.4v1c-.4,.1,-.8,.3,-1.2,.3c-.4,.1,-.8,.2,-1.2,.2c-1,0,-1.8,-.3,-2.4,-.9c-.6,-.6,-.9,-1.4,-.9,-2.5c0,-1,.2,-1.8,.8,-2.5c.6,-.6,1.3,-.9,2.3,-.9c.9,0,1.6,.3,2.1,.8c.5,.6,.7,1.4,.7,2.3Z" class="g5_251"/>
<path d="M358.1,267.3h5v.9l-3.9,4.7h3.9v.8H358v-1l3.9,-4.6h-3.8v-.8Z" class="g5_251"/>
<path d="M364.7,264.8h1.1v1.3h-1.1Zm0,2.5h1.1v6.4h-1.1Z" class="g5_251"/>
<path d="M372.5,269.9c0,-.6,-.2,-1,-.5,-1.4c-.3,-.3,-.7,-.5,-1.3,-.5c-.6,0,-1,.2,-1.4,.5c-.3,.3,-.5,.8,-.6,1.4h3.8Zm1,.3v.5h-4.8c0,.8,.2,1.3,.6,1.7c.4,.4,1,.6,1.7,.6c.4,0,.8,-.1,1.1,-.2c.4,-.1,.8,-.2,1.2,-.4v1c-.4,.1,-.8,.3,-1.2,.3c-.4,.1,-.8,.2,-1.2,.2c-1,0,-1.8,-.3,-2.4,-.9c-.6,-.6,-.9,-1.4,-.9,-2.5c0,-1,.2,-1.8,.8,-2.5c.6,-.6,1.4,-.9,2.3,-.9c.9,0,1.6,.3,2.1,.8c.5,.6,.7,1.4,.7,2.3Z" class="g5_251"/>
<path d="M379,268.3c-.1,-.1,-.2,-.2,-.4,-.2c-.1,0,-.3,0,-.5,0c-.5,0,-1,.1,-1.3,.5c-.3,.4,-.5,1,-.5,1.7v3.4h-1.1v-6.4h1.1v1c.2,-.4,.5,-.7,.9,-.9c.3,-.2,.8,-.3,1.3,-.3c0,0,.1,0,.2,0c.1,0,.2,0,.3,.1v1.1Z" class="g5_251"/>
<path d="M384.2,272.7h1.9v-6.5l-2.1,.4v-1.1l2.1,-.4h1.2v7.6h1.9v1h-5v-1Z" class="g5_251"/>
<path d="M378.1,718.1c0,-1.3,.7,-2.8,1.7,-2.8c.8,0,1,.6,1,1.2c0,1.4,-.7,2.8,-1.7,2.8c-.6,0,-1,-.6,-1,-1.2Zm3.5,-2.3c.2,-.1,.2,-.2,.4,-.2c.1,0,.2,0,.3,.1c.2,.2,.3,.6,.6,.6c.3,0,.6,-.2,.6,-.6c0,-.4,-.5,-.7,-1,-.7c-.3,0,-.7,.2,-1.1,.6c-.4,-.4,-.9,-.6,-1.4,-.6c-.9,0,-1.5,.3,-2,.8c-.4,.4,-.8,1,-.8,1.9c0,.7,.2,1.2,.8,1.7c-.5,.2,-.8,.3,-1,.5c-.2,.2,-.3,.4,-.3,.6c0,.3,.1,.6,.5,.8c.4,.2,1,.4,1.9,.6c.5,0,.9,.2,1.1,.4c.3,.1,.4,.3,.4,.6c0,.7,-1.1,1.3,-2.2,1.3c-1.2,.1,-1.9,-.4,-1.9,-1.2c0,-.6,.3,-.9,.7,-1.1q-.3,-.1,-.6,-.1c-.7,0,-1.1,.5,-1.1,1.1c0,.2,0,.5,.2,.7c.5,.7,1.5,1,2.7,1c1,0,1.7,-.2,2.3,-.6c.5,-.3,.8,-.8,.8,-1.5c0,-.9,-1.1,-1.4,-1.7,-1.5c-.6,-.2,-1.2,-.3,-1.6,-.5c-.2,-.1,-.3,-.2,-.3,-.4c0,-.3,.6,-.4,1.1,-.4c1.7,-.1,2.7,-1.2,2.7,-3c0,-.3,0,-.7,-.1,-.9Z" class="g8_251"/>
<path d="M385.5,717c0,-.3,-.2,-.6,-.5,-.6c-.3,0,-.6,.3,-.6,.6c0,.3,.3,.5,.6,.5c.2,0,.5,-.2,.5,-.5Zm-2,6.8c.9,0,1.4,-.9,1.7,-1.5l-.2,-.1c-.1,.3,-.5,1.1,-1,1.1c-.1,0,-.2,-.2,-.2,-.3c0,-.2,.1,-.6,.2,-.8l.7,-2c.1,-.3,.1,-.5,.1,-.7c0,-.3,0,-.5,-.3,-.5c-.7,0,-1.5,.8,-1.7,1.3l.2,.1c.1,-.2,.5,-.8,.8,-.8c.1,0,.2,.1,.2,.2c0,.2,-.1,.5,-.2,.7l-.7,2.1c-.1,.2,-.1,.5,-.1,.6c0,.4,.1,.6,.5,.6Z" class="g8_251"/>
<path d="M392.2,710.8c-2.2,1.4,-3.7,3.8,-3.7,6.8c0,2.8,1.6,5.6,3.6,6.9l.2,-.3c-1.9,-1.5,-2.5,-3.3,-2.5,-6.6c0,-3.3,.6,-5,2.5,-6.6l-.1,-.2Z" class="g8_251"/>
<path d="M400.6,715.9c0,-.5,-.5,-.9,-1,-.9c-.4,0,-.7,.1,-1,.3c-.3,.2,-.6,.5,-.8,.9c0,-.7,-.5,-1.2,-1.1,-1.2c-1.1,0,-2.1,1.1,-2.4,1.9l.2,.2c.3,-.6,1.1,-1.8,2,-1.8c.2,0,.3,.6,.3,1c0,.3,0,.7,-.2,1.2l-.3,1.2c-.2,.5,-.4,1.3,-.7,1.7c-.2,.3,-.5,.7,-.8,.7c-.4,0,-.8,-.1,-.7,-.5c.1,-.3,.1,-.7,-.4,-.7c-.4,0,-.6,.3,-.6,.7c0,.6,.5,1,1.1,1c1,0,1.7,-.8,2.1,-1.5c.1,.8,.5,1.5,1.4,1.5c1.1,0,2,-1.2,2.4,-1.9l-.2,-.1c-.5,.6,-1.1,1.6,-1.9,1.6c-.5,0,-.7,-.6,-.7,-1.2c0,-.3,.1,-.8,.2,-1.3l.2,-.8c.1,-.5,.3,-1.2,.6,-1.6c.2,-.3,.6,-.9,.9,-.9c.4,0,.4,.3,.4,.6c0,.4,.1,.6,.4,.6c.4,0,.6,-.3,.6,-.7Z" class="g8_251"/>
<path d="M401.8,710.8l-.1,.2c1.9,1.6,2.5,3.3,2.5,6.6c0,3.3,-.5,5.1,-2.5,6.6l.2,.3c2,-1.3,3.6,-4.1,3.6,-6.9c0,-3,-1.5,-5.4,-3.7,-6.8Z" class="g8_251"/>
<path d="M411.7,719.6h7.6v-.9h-7.6Zm0,-3.1h7.6v-.8h-7.6Z" class="g8_251"/>
<path d="M443.1,703.2h.3l1.6,-6c0,-.1,.1,-.3,.1,-.4c.2,-.3,.4,-.7,.7,-.9c.1,-.1,.3,-.1,.4,-.1l.1,-.1H444v.1c.2,0,.4,.1,.6,.3c.1,.2,.1,.6,.1,.8c0,.1,0,.3,0,.4l-1,4l-.1,.1l-2.5,-5.7h-2v.1c.4,0,.6,.1,.7,.2c.2,.3,.4,.7,.4,1c0,.1,0,.2,0,.3l-1.2,4.4c-.1,.4,-.3,.7,-.6,1c-.2,.2,-.7,.4,-1,.4v.1h2.8v-.1c-.2,-.1,-.6,-.1,-.7,-.3c-.2,-.1,-.3,-.5,-.3,-.7c0,-.2,0,-.3,0,-.5l1.2,-4.3v-.2l2.7,6.1Z" class="g8_251"/>
<path d="M450.9,729.1v-.3c-.5,0,-1.5,-.2,-1.5,-.9V707.4c0,-.7,.9,-.9,1.5,-.9v-.3H433.2v.3c.6,0,1.5,.2,1.5,.9v20.4c0,.8,-.9,1,-1.5,1v.3h4.7v-.3c-.6,0,-1.5,-.2,-1.5,-1V707.4c0,-.4,.4,-.6,.7,-.6H447c.4,0,.7,.3,.7,.7v20.3c0,.8,-.8,1,-1.4,1v.3h4.6Z" class="g8_251"/>
<path d="M423.6,740.8c0,.4,.4,.6,.9,.6c.5,0,.9,-.3,1.1,-.6c.4,-.3,.6,-.8,.8,-1.3l.7,-2.7c.1,-.4,.2,-.8,.3,-1.1c.1,-.3,.1,-.6,.1,-.8c0,-.2,-.1,-.5,-.4,-.5c-.6,0,-1.4,.9,-1.7,1.4l.2,.1c.2,-.2,.5,-.8,.9,-.8c.1,0,.2,.1,.2,.3c0,.3,-.1,.5,-.2,.9l-1.1,3.9c0,.3,-.3,.9,-.6,.9c-.1,0,-.2,0,-.2,-.1c-.2,-.2,0,-.7,-.5,-.7c-.3,0,-.5,.2,-.5,.5Zm4.3,-8.3c0,-.3,-.2,-.6,-.5,-.6c-.3,0,-.6,.3,-.6,.6c0,.3,.3,.5,.6,.5c.3,0,.5,-.3,.5,-.5Z" class="g8_251"/>
<path d="M428.9,737.8h5.6v-.6h-5.6Zm0,-2.2h5.6V735h-5.6Z" class="g8_251"/>
<path d="M436.4,732.1v.1c.3,0,.8,.1,.9,.2c.4,.1,.3,.3,.4,.7v4.8c0,.2,0,.4,-.1,.5c0,.5,-.6,.6,-1.2,.6v.2h3.5V739c-.4,0,-.9,0,-1.1,-.2c-.2,-.2,-.2,-.6,-.2,-1v-6.3c-.6,.3,-1.5,.6,-2.2,.6Z" class="g8_251"/>
<path d="M442.1,738.6c0,.3,.2,.6,.5,.6c.2,0,.2,-.1,.3,-.1c0,.3,0,.5,-.2,.7c-.1,.3,-.4,.5,-.7,.8l.2,.3c.2,-.2,.4,-.4,.6,-.5c.4,-.4,.7,-.7,.7,-1.4c0,-.7,-.2,-1,-.7,-1c-.4,0,-.7,.2,-.7,.6Z" class="g8_251"/>
<path d="M444.6,740.8c0,.4,.4,.6,.8,.6c.5,0,.9,-.3,1.2,-.6c.3,-.3,.5,-.8,.7,-1.3l.7,-2.7c.1,-.4,.2,-.8,.3,-1.1c.1,-.3,.1,-.6,.1,-.8c0,-.2,-.1,-.5,-.4,-.5c-.6,0,-1.4,.9,-1.7,1.4l.2,.1c.2,-.2,.6,-.8,.9,-.8c.1,0,.2,.1,.2,.3c0,.3,-.1,.5,-.2,.9l-1.1,3.9c0,.3,-.2,.9,-.6,.9q-.1,0,-.2,-.1c-.1,-.2,0,-.7,-.5,-.7c-.3,0,-.4,.2,-.4,.5Zm4.3,-8.3c0,-.3,-.3,-.6,-.6,-.6c-.3,0,-.5,.3,-.5,.6c0,.3,.2,.5,.5,.5c.3,0,.6,-.3,.6,-.5Z" class="g8_251"/>
<path d="M455.6,737.8v-.6h-2.7l.6,-1.6h2.1V735h-1.9l.8,-2h-.6l-.8,2h-3v.6h2.8l-.7,1.6h-2.1v.6H452l-.8,1.9h.6l.8,-1.9h3Z" class="g8_251"/>
<path d="M459.4,732.5c0,-.3,-.3,-.6,-.6,-.6c-.3,0,-.6,.3,-.6,.6c0,.3,.3,.5,.6,.5c.3,0,.6,-.3,.6,-.5Zm-2.1,6.8c1,-.1,1.5,-.9,1.7,-1.5l-.2,-.1c-.1,.3,-.5,1.1,-1,1.1c-.1,0,-.2,-.2,-.2,-.3c0,-.2,.1,-.6,.2,-.8l.7,-2.1c.1,-.3,.2,-.4,.2,-.6c0,-.3,0,-.6,-.4,-.6c-.7,0,-1.5,.8,-1.7,1.4l.2,.1c.1,-.2,.5,-.8,.8,-.8c.2,0,.2,.1,.2,.2c0,.2,-.1,.5,-.2,.7l-.7,2c-.1,.3,-.1,.5,-.1,.7c0,.4,.1,.6,.5,.6Z" class="g8_251"/>
<path d="M473.6,704.7c0,-.6,-.5,-1,-1,-1c-.4,0,-.7,.1,-1,.4c-.3,.2,-.6,.5,-.8,.8c0,-.6,-.5,-1.2,-1.1,-1.2c-1.1,0,-2.1,1.2,-2.4,2l.2,.1c.3,-.5,1.1,-1.7,2,-1.7c.2,0,.3,.5,.3,1c0,.3,0,.6,-.2,1.1l-.3,1.2c-.2,.6,-.4,1.4,-.7,1.8c-.2,.2,-.5,.7,-.8,.7c-.4,0,-.8,-.1,-.6,-.5c0,-.3,0,-.8,-.4,-.8c-.5,0,-.7,.3,-.7,.8c0,.5,.5,.9,1.1,.9c1,0,1.7,-.8,2.1,-1.4c.1,.8,.5,1.4,1.4,1.4c1.1,0,2,-1.1,2.4,-1.8l-.2,-.2c-.5,.6,-1.1,1.7,-1.9,1.7c-.5,0,-.7,-.7,-.7,-1.3c0,-.3,.1,-.7,.2,-1.3l.2,-.7c.1,-.6,.3,-1.3,.6,-1.6c.2,-.3,.6,-1,.9,-1c.5,0,.4,.3,.4,.6c0,.4,.1,.6,.5,.6c.3,0,.5,-.3,.5,-.6Z" class="g8_251"/>
<path d="M478.5,706.8h7.6V706h-7.6Z" class="g8_251"/>
<path d="M497.6,704.7c0,-.6,-.5,-1,-1,-1c-.3,0,-.6,.1,-1,.4c-.3,.2,-.6,.5,-.8,.8c0,-.6,-.4,-1.2,-1.1,-1.2c-1.1,0,-2.1,1.2,-2.4,2l.2,.1c.4,-.5,1.1,-1.7,2,-1.7c.3,0,.4,.5,.4,1c0,.3,-.1,.6,-.2,1.1l-.4,1.2c-.1,.6,-.4,1.4,-.7,1.8c-.1,.2,-.4,.7,-.8,.7c-.4,0,-.7,-.1,-.6,-.5c.1,-.3,0,-.8,-.4,-.8c-.5,0,-.6,.3,-.6,.8c0,.5,.4,.9,1,.9c1,0,1.8,-.8,2.1,-1.4h.1c.1,.8,.5,1.4,1.3,1.4c1.2,0,2,-1.1,2.5,-1.8l-.2,-.2c-.5,.6,-1.2,1.7,-2,1.7c-.4,0,-.6,-.7,-.6,-1.3c0,-.3,0,-.7,.1,-1.3l.2,-.7c.1,-.6,.4,-1.3,.6,-1.6c.2,-.3,.6,-1,1,-1c.4,0,.4,.3,.3,.6c0,.4,.2,.6,.5,.6c.4,0,.5,-.3,.5,-.6Z" class="g8_251"/>
<path d="M497.3,714c0,.4,.4,.7,.8,.7c.5,0,.9,-.3,1.1,-.6c.4,-.4,.6,-.8,.8,-1.4l.7,-2.6c.1,-.5,.2,-.8,.3,-1.1c.1,-.4,.1,-.6,.1,-.8c0,-.3,-.1,-.5,-.4,-.5c-.6,0,-1.4,.8,-1.7,1.3l.2,.2c.2,-.2,.5,-.9,.9,-.9c.1,0,.2,.2,.2,.3c0,.4,-.1,.6,-.2,.9l-1.1,3.9c0,.3,-.3,1,-.6,1q-.1,0,-.2,-.1c-.1,-.2,0,-.8,-.5,-.8c-.3,0,-.4,.3,-.4,.5Zm4.3,-8.3c0,-.3,-.3,-.5,-.6,-.5c-.3,0,-.5,.2,-.5,.5c0,.3,.2,.6,.5,.6c.3,0,.6,-.3,.6,-.6Z" class="g8_251"/>
<path d="M464.4,718h40.4v-.8H464.4Z" class="g8_251"/>
<path d="M471.6,726.2c0,-.6,-.5,-1,-1,-1c-.3,0,-.6,.1,-1,.3c-.3,.3,-.6,.6,-.8,.9c0,-.6,-.4,-1.2,-1.1,-1.2c-1.1,0,-2.1,1.2,-2.4,2l.2,.1c.4,-.5,1.1,-1.7,2,-1.7c.3,0,.4,.5,.4,1c0,.3,-.1,.6,-.2,1.1l-.4,1.2c-.1,.6,-.4,1.4,-.7,1.8c-.1,.2,-.4,.6,-.8,.6c-.4,0,-.7,0,-.6,-.4c.1,-.4,0,-.8,-.4,-.8c-.5,0,-.6,.3,-.6,.8c0,.5,.4,.9,1,.9c1,0,1.8,-.8,2.1,-1.4h.1c.1,.8,.5,1.4,1.3,1.4c1.2,0,2,-1.1,2.5,-1.8l-.2,-.2c-.5,.6,-1.2,1.6,-2,1.6c-.4,0,-.6,-.6,-.6,-1.2c0,-.3,0,-.8,.1,-1.3l.2,-.7c.1,-.6,.4,-1.3,.6,-1.7c.2,-.2,.6,-.9,1,-.9c.4,0,.4,.3,.3,.6c0,.4,.2,.6,.5,.6c.4,0,.5,-.3,.5,-.6Z" class="g8_251"/>
<path d="M474.7,727.2c0,-.3,-.2,-.5,-.5,-.5c-.3,0,-.6,.2,-.6,.5c0,.3,.3,.6,.6,.6c.2,0,.5,-.3,.5,-.6Zm-2,6.8c.9,0,1.4,-.8,1.7,-1.4l-.2,-.1c-.1,.2,-.5,1,-1,1c-.1,0,-.2,-.1,-.2,-.2c0,-.3,.1,-.7,.2,-.8l.7,-2.1c.1,-.3,.1,-.4,.1,-.6c0,-.3,0,-.6,-.3,-.6c-.7,0,-1.5,.8,-1.7,1.3l.2,.1c.1,-.2,.5,-.8,.8,-.8c.1,0,.2,.2,.2,.3c0,.1,-.1,.5,-.2,.6l-.7,2.1c-.1,.3,-.1,.5,-.1,.6c0,.4,.1,.6,.5,.6Z" class="g8_251"/>
<path d="M480.5,728.3h7.6v-.8h-7.6Z" class="g8_251"/>
<path d="M499.6,726.2c0,-.6,-.5,-1,-1,-1c-.3,0,-.7,.1,-1,.3c-.3,.3,-.6,.6,-.8,.9c0,-.6,-.5,-1.2,-1.1,-1.2c-1.1,0,-2.1,1.2,-2.4,2l.2,.1c.3,-.5,1.1,-1.7,2,-1.7c.2,0,.3,.5,.3,1c0,.3,0,.6,-.2,1.1l-.3,1.2c-.2,.6,-.4,1.4,-.7,1.8c-.2,.2,-.5,.6,-.8,.6c-.4,0,-.8,0,-.6,-.4c0,-.4,0,-.8,-.4,-.8c-.5,0,-.7,.3,-.7,.8c0,.5,.5,.9,1.1,.9c1,0,1.7,-.8,2.1,-1.4c.1,.8,.5,1.4,1.4,1.4c1.1,0,2,-1.1,2.4,-1.8l-.2,-.2c-.5,.6,-1.1,1.6,-1.9,1.6c-.5,0,-.7,-.6,-.7,-1.2c0,-.3,.1,-.8,.2,-1.3l.2,-.7c.1,-.6,.3,-1.3,.6,-1.7c.2,-.2,.6,-.9,.9,-.9c.5,0,.4,.3,.4,.6c0,.4,.1,.6,.5,.6c.3,0,.5,-.3,.5,-.6Z" class="g8_251"/>
<path d="M499.2,735.5c0,.4,.4,.7,.9,.7c.5,0,.8,-.3,1.1,-.6c.3,-.4,.6,-.9,.7,-1.4l.8,-2.6c.1,-.5,.2,-.8,.3,-1.1c.1,-.4,.1,-.6,.1,-.8c0,-.3,-.1,-.5,-.4,-.5c-.6,0,-1.4,.8,-1.7,1.3l.2,.2c.2,-.2,.5,-.9,.8,-.9c.2,0,.2,.2,.2,.3c0,.4,0,.6,-.1,.9l-1.1,3.9c-.1,.3,-.3,1,-.6,1c-.1,0,-.2,0,-.2,-.1c-.2,-.2,0,-.8,-.6,-.8c-.3,0,-.4,.2,-.4,.5Zm4.3,-8.3c0,-.3,-.2,-.5,-.5,-.5c-.3,0,-.6,.2,-.6,.5c0,.3,.3,.6,.6,.6c.2,0,.5,-.3,.5,-.6Z" class="g8_251"/>
<path d="M348.1,887.7c0,-1.4,.6,-2.9,1.7,-2.9c.7,0,.9,.7,.9,1.2c0,1.5,-.6,2.8,-1.7,2.8c-.6,0,-.9,-.6,-.9,-1.1Zm3.4,-2.4q.2,-.1,.4,-.1c.1,0,.2,0,.3,0c.2,.2,.3,.7,.6,.7c.4,0,.6,-.3,.6,-.6c0,-.4,-.5,-.8,-1,-.8c-.3,0,-.7,.2,-1,.6c-.4,-.4,-.9,-.6,-1.5,-.6c-.9,0,-1.5,.4,-2,.8c-.4,.5,-.8,1.1,-.8,1.9c0,.7,.2,1.3,.8,1.7v.1c-.5,.1,-.8,.3,-1,.4c-.2,.2,-.3,.4,-.3,.6c0,.4,.1,.7,.5,.9c.4,.1,1.1,.3,1.9,.5c.5,.1,.9,.2,1.2,.4c.2,.2,.4,.4,.4,.6c0,.8,-1.2,1.4,-2.2,1.4c-1.3,0,-2,-.5,-2,-1.3c0,-.5,.3,-.9,.7,-1.1c-.2,-.1,-.3,-.1,-.6,-.1c-.6,0,-1.1,.5,-1.1,1.1c0,.3,0,.5,.2,.7c.5,.7,1.5,1,2.7,1c1,0,1.8,-.2,2.3,-.6c.5,-.3,.8,-.7,.8,-1.5c0,-.8,-1.1,-1.3,-1.7,-1.5c-.6,-.1,-1.1,-.3,-1.6,-.5c-.2,0,-.2,-.2,-.2,-.3c0,-.4,.5,-.4,1,-.5c1.7,-.1,2.7,-1.2,2.7,-3c0,-.3,0,-.6,-.1,-.9Z" class="g8_251"/>
<path d="M353.9,886.3v.1c.3,0,.8,.1,.9,.1c.4,.2,.3,.3,.4,.8V892c0,.3,0,.5,-.1,.6c0,.5,-.6,.6,-1.2,.6v.1h3.5v-.1c-.4,0,-1,0,-1.1,-.2c-.2,-.3,-.2,-.6,-.2,-1v-6.3c-.6,.3,-1.5,.5,-2.2,.6Z" class="g8_251"/>
<path d="M364.4,880.3c-2.1,1.4,-3.7,3.8,-3.7,6.9c0,2.7,1.6,5.5,3.7,6.8l.1,-.2c-1.9,-1.6,-2.5,-3.4,-2.5,-6.7c0,-3.3,.6,-5,2.5,-6.5l-.1,-.3Z" class="g8_251"/>
<path d="M366.8,891.1c1.3,0,2.1,-1.3,2.6,-2.1l-.3,-.1c-.3,.4,-.9,1.6,-1.7,1.6c-.2,0,-.3,-.4,-.3,-.6c0,-.2,.1,-.5,.2,-1l1.1,-3.9h1.3l.1,-.4h-1.3l.4,-1.6h-1l-.4,1.6h-1.1l-.1,.4h1.1l-1,3.6c-.1,.4,-.2,.8,-.3,1.1c0,.3,-.1,.5,-.1,.6c0,.6,.3,.8,.8,.8Z" class="g8_251"/>
<path d="M371.2,880.3l-.1,.3c1.9,1.5,2.5,3.2,2.5,6.5c0,3.3,-.6,5.1,-2.5,6.7l.1,.2c2.1,-1.3,3.7,-4.1,3.7,-6.8c0,-3.1,-1.6,-5.5,-3.7,-6.9Z" class="g8_251"/>
<path d="M381.1,889.1h7.6v-.8h-7.6Zm0,-3h7.6v-.8h-7.6Z" class="g8_251"/>
<path d="M399.6,881c1.3,0,2.1,-1.3,2.5,-2.1l-.3,-.1c-.2,.4,-.9,1.6,-1.6,1.6c-.3,0,-.3,-.4,-.3,-.6c0,-.2,.1,-.5,.2,-1l1.1,-3.9h1.2l.1,-.4h-1.3l.5,-1.6h-1.1l-.4,1.6h-1.1v.4h1l-.9,3.6c-.2,.4,-.2,.8,-.3,1.1c-.1,.3,-.1,.5,-.1,.6c0,.6,.2,.8,.8,.8Z" class="g8_251"/>
<path d="M407.6,877.5h7.6v-.8h-7.6Z" class="g8_251"/>
<path d="M420.7,881c1.3,0,2.1,-1.3,2.5,-2.1l-.2,-.1c-.3,.4,-.9,1.6,-1.7,1.6c-.2,0,-.3,-.4,-.3,-.6c0,-.2,.1,-.5,.2,-1l1.1,-3.9h1.3l.1,-.4h-1.3l.4,-1.6h-1l-.5,1.6h-1l-.1,.4h1.1l-1,3.6c-.1,.4,-.2,.8,-.3,1.1c0,.3,-.1,.5,-.1,.6c0,.6,.3,.8,.8,.8Z" class="g8_251"/>
<path d="M426.5,878.6c-.7,0,-1.1,-.5,-1.1,-1.2c0,-.8,.4,-1.6,1.3,-1.6c1.3,0,1.4,1,1.4,1.9c0,.9,-.3,1.5,-.7,2.1c-.3,.4,-.7,.9,-1.2,1.4c-.5,.5,-1.1,1.1,-1.8,1.7v.4h4.5l.4,-2.1H429c-.1,.2,-.2,.4,-.2,.5c-.2,.4,-.5,.6,-1,.6h-2.1v-.1c.4,-.3,.9,-.7,1.3,-1c.8,-.7,1.6,-1.4,2,-2.3c.2,-.4,.3,-.8,.3,-1.2c0,-.3,-.1,-.6,-.2,-.8c-.4,-.8,-1.1,-1.3,-2.2,-1.3c-.7,0,-1.3,.3,-1.7,.6c-.4,.3,-.7,.8,-.7,1.4c0,.5,.1,.8,.3,1.1c.2,.2,.5,.4,.9,.4c.4,0,.7,-.2,.8,-.5Z" class="g8_251"/>
<path d="M395.2,887.6h38.6v-.9H395.2Z" class="g8_251"/>
<path d="M396.5,901.3c1.3,0,2.1,-1.2,2.5,-2l-.3,-.2c-.2,.4,-.9,1.6,-1.6,1.6c-.3,0,-.3,-.4,-.3,-.5c0,-.3,.1,-.6,.2,-1l1.1,-4h1.2l.1,-.3h-1.3l.5,-1.7h-1.1l-.4,1.7H396v.3h1l-.9,3.6c-.2,.5,-.2,.8,-.3,1.1c-.1,.3,-.1,.5,-.1,.7c0,.5,.2,.7,.8,.7Z" class="g8_251"/>
<path d="M401.1,896.5v.1c.3,0,.8,.1,.9,.2c.4,.2,.3,.3,.4,.7v4.8c0,.2,-.1,.4,-.1,.5c-.1,.5,-.6,.6,-1.2,.6v.2h3.4v-.2c-.3,0,-.9,0,-1,-.2c-.2,-.2,-.2,-.6,-.2,-1v-6.3c-.6,.3,-1.5,.6,-2.2,.6Z" class="g8_251"/>
<path d="M410.7,897.8h7.6V897h-7.6Z" class="g8_251"/>
<path d="M423.8,901.3c1.3,0,2.1,-1.2,2.5,-2l-.2,-.2c-.3,.4,-.9,1.6,-1.7,1.6c-.2,0,-.3,-.4,-.3,-.5c0,-.3,.1,-.6,.2,-1l1.1,-4h1.3l.1,-.3h-1.3l.4,-1.7h-1l-.5,1.7h-1l-.1,.3h1.1l-1,3.6c-.1,.5,-.2,.8,-.3,1.1c0,.3,-.1,.5,-.1,.7c0,.5,.3,.7,.8,.7Z" class="g8_251"/>
<path d="M429.6,898.9c-.7,0,-1.1,-.5,-1.1,-1.1c0,-.8,.4,-1.7,1.3,-1.7c1.3,0,1.4,1,1.4,1.9c0,1,-.3,1.5,-.7,2.2c-.3,.4,-.7,.8,-1.2,1.3c-.5,.5,-1.1,1.1,-1.8,1.8v.3H432l.4,-2.1h-.3c-.1,.2,-.2,.4,-.2,.6c-.2,.3,-.5,.5,-1,.5h-2.1c.4,-.4,.9,-.7,1.3,-1.1c.8,-.6,1.6,-1.4,2,-2.2c.2,-.4,.3,-.8,.3,-1.2c0,-.4,-.1,-.6,-.2,-.9c-.4,-.7,-1.1,-1.3,-2.2,-1.3c-.7,0,-1.3,.3,-1.7,.6c-.4,.3,-.7,.8,-.7,1.5c0,.4,.1,.8,.3,1c.2,.3,.5,.4,.9,.4c.4,0,.7,-.2,.8,-.5Z" class="g8_251"/>
<path d="M440.3,889.1H448v-.8h-7.7Zm0,-3H448v-.8h-7.7Z" class="g8_251"/>
<path d="M457.4,881c1.3,0,2.1,-1.3,2.5,-2.1l-.2,-.1c-.3,.4,-.9,1.6,-1.7,1.6c-.2,0,-.3,-.4,-.3,-.6c0,-.2,.1,-.5,.2,-1l1.1,-3.9h1.3l.1,-.4h-1.3l.4,-1.6h-1l-.5,1.6h-1l-.1,.4h1l-.9,3.6c-.1,.4,-.2,.8,-.3,1.1c0,.3,-.1,.5,-.1,.6c0,.6,.3,.8,.8,.8Z" class="g8_251"/>
<path d="M465.4,877.5h7.7v-.8h-7.7Z" class="g8_251"/>
<path d="M479.3,871.2v.2c.4,0,1.1,.1,1.3,.2c.5,.2,.4,.4,.5,1v6.5c0,.3,-.1,.6,-.1,.8c-.1,.6,-.9,.7,-1.6,.8v.2h4.7v-.2c-.5,0,-1.3,-.1,-1.5,-.3c-.2,-.3,-.2,-.8,-.2,-1.4v-8.6c-.8,.4,-2.1,.8,-3.1,.8Z" class="g8_251"/>
<path d="M454.5,887.6h32.8v-.9H454.5Z" class="g8_251"/>
<path d="M458.7,901.1c-1.9,0,-2,-2.7,-2,-4.9c0,-2.2,0,-5.2,2,-5.2c1.9,0,1.9,3,1.9,5.2c0,2.2,0,4.9,-1.9,4.9Zm0,-10.3c-2.6,0,-3.4,2.7,-3.4,5.3c0,2.7,.8,5.3,3.4,5.3c2.5,0,3.4,-2.6,3.4,-5.3c0,-2.7,-.8,-5.3,-3.4,-5.3Z" class="g8_251"/>
<path d="M467.1,897.8h7.6V897h-7.6Z" class="g8_251"/>
<path d="M480.9,891.5v.2c.5,0,1.1,.1,1.4,.2c.4,.2,.4,.4,.4,1v6.5c0,.4,0,.6,0,.8c-.1,.7,-.9,.8,-1.7,.8v.2h4.7V901c-.5,0,-1.2,0,-1.4,-.3c-.3,-.3,-.3,-.8,-.3,-1.4v-8.5c-.8,.4,-2.1,.7,-3.1,.7Z" class="g8_251"/>
<path d="M493.9,889.1h7.6v-.8h-7.6Zm0,-3h7.6v-.8h-7.6Z" class="g8_251"/>
<path d="M508.2,881.3v.2c.5,0,1.1,.1,1.3,.2c.5,.2,.4,.4,.5,1v6.5c0,.3,0,.6,-.1,.8c-.1,.6,-.9,.7,-1.6,.8v.2H513v-.2c-.5,0,-1.3,-.1,-1.5,-.3c-.2,-.3,-.2,-.8,-.2,-1.4v-8.6c-.8,.4,-2.1,.8,-3.1,.8Z" class="g8_251"/>
<path d="M518.8,887.6h7.6v-.8h-7.6Z" class="g8_251"/>
<path d="M532,891.1c1.2,0,2.1,-1.3,2.5,-2.1l-.3,-.1c-.3,.4,-.9,1.6,-1.6,1.6c-.3,0,-.4,-.4,-.4,-.6c.1,-.2,.1,-.5,.3,-1l1,-3.9h1.3l.1,-.4h-1.3L534,883h-1l-.4,1.6h-1.1v.4h1l-1,3.6c-.1,.4,-.2,.8,-.2,1.1c-.1,.3,-.1,.5,-.1,.6c0,.6,.2,.8,.8,.8Z" class="g8_251"/>
</svg>