<?xml version="1.0" encoding="UTF-8" standalone="no"?>
<!DOCTYPE svg PUBLIC "-//W3C//DTD SVG 1.1//EN"
"http://www.w3.org/Graphics/SVG/1.1/DTD/svg11.dtd">
<svg viewBox="0 0 811 1017" version="1.1" xmlns="http://www.w3.org/2000/svg" xmlns:xlink="http://www.w3.org/1999/xlink">
<defs>
<clipPath id="c0_237"><path d="M156.1,275V82.5H412.8V275Z"/></clipPath>
<style type="text/css"><![CDATA[
.g0_237{
fill: #70A6CC;
}
.g1_237{
fill: #476B85;
}
.g2_237{
fill: #000;
}
]]></style>
</defs>
<path d="M156.1,325.1H724.4V303.9H156.1Z" class="g0_237"/>
<path d="M156.1,759H293.2V726.9H156.1Z" class="g1_237"/>
<path d="M293.2,759H508.7V726.9H293.2Z" class="g1_237"/>
<path d="M508.7,759H724.2V726.9H508.7Z" class="g1_237"/>
<path d="M293.1,863h.3V726.6h-.3Z" class="g2_237"/>
<path d="M508.5,863h.3V726.6h-.3Z" class="g2_237"/>
<path d="M156.1,727.3H724.2v-.7H156.1Z" class="g2_237"/>
<path d="M156.1,759.2H724.2v-.4H156.1Z" class="g2_237"/>
<path d="M156.1,863H724.2v-.3H156.1Z" class="g2_237"/>
<image clip-path="url(#c0_237)" preserveAspectRatio="none" x="156" y="83" width="257" height="192" xlink:href="img/1.jpg"/>
<path d="M456,446.7h.3V402.8H456Z" class="g2_237"/>
<path d="M418.4,446.7v3.2l-.3,-.1l-6.2,-2.9l-.4,-.2l.4,-.2l6.2,-2.9l.3,-.1v.3l-.1,.1l-6.3,3l-.1,-.4h.1l6.3,2.9l-.2,.4l-.1,-.2v-2.9Z" class="g2_237"/>
<path d="M418,446.7h.4v-2.9H418Z" class="g2_237"/>
<path d="M418.2,446.9h.2v-.4h-.2Z" class="g2_237"/>
<path d="M418.4,446.9h37.9v-.4H418.4Z" class="g2_237"/>
<path d="M573.8,538.4h.4V484.1h-.4Z" class="g2_237"/>
<path d="M556.4,538.4v3.2l-.3,-.1l-6.3,-3l-.3,-.1l.3,-.2l6.3,-3h.3v.2l-.1,.2l-6.3,2.9l-.2,-.3h.2l6.3,2.9l-.2,.4l-.1,-.2v-2.9Z" class="g2_237"/>
<path d="M556,538.4h.4v-3H556Z" class="g2_237"/>
<path d="M556.2,538.5h.2v-.3h-.2Z" class="g2_237"/>
<path d="M556.4,538.5h17.8v-.3H556.4Z" class="g2_237"/>
</svg>