<?xml version="1.0" encoding="UTF-8" standalone="no"?>
<!DOCTYPE svg PUBLIC "-//W3C//DTD SVG 1.1//EN"
"http://www.w3.org/Graphics/SVG/1.1/DTD/svg11.dtd">
<svg viewBox="0 0 811 1017" version="1.1" xmlns="http://www.w3.org/2000/svg" xmlns:xlink="http://www.w3.org/1999/xlink">
<defs>
<style type="text/css"><![CDATA[
.g0_150{
fill: #E6E6E6;
}
.g1_150{
fill: #000;
}
.g2_150{
fill: #F7F5E8;
}
]]></style>
</defs>
<path d="M636.9,129.6c9,.7,17.5,1.7,26.5,1.7c23.4,.3,52.9,-4.1,69.4,-22.7c2,-2.4,7.2,-8.9,7.2,-12.3c0,-.7,-.3,-.7,-1.1,-.7c-1,0,-18.1,10,-44.3,10C674,105.6,658.3,100.7,639,93.9l-27.5,95.9c10.3,-.7,23.4,-2.4,30.9,-2.4c27.9,0,50.2,9,50.2,40.9c0,29.3,-21.3,55.7,-44,71.2c-26.1,17.9,-55.7,24.7,-86.3,28.2l-2,8.5C596.4,333.8,630,327.7,661,307.7c31.3,-20.2,57.3,-53.2,57.3,-92.5c0,-40.9,-32.9,-55.6,-69,-55.6l-20.3,1Z" class="g0_150"/>
<path d="M256.9,233H706.1v-.3H256.9Z" class="g1_150"/>
<path d="M101.1,649.1H487V398.6H101.1Z" class="g2_150"/>
</svg>