<?xml version="1.0" encoding="UTF-8" standalone="no"?>
<!DOCTYPE svg PUBLIC "-//W3C//DTD SVG 1.1//EN"
"http://www.w3.org/Graphics/SVG/1.1/DTD/svg11.dtd">
<svg viewBox="0 0 811 1017" version="1.1" xmlns="http://www.w3.org/2000/svg" xmlns:xlink="http://www.w3.org/1999/xlink">
<defs>
<style type="text/css"><![CDATA[
.g0_317{
fill: #000;
}
]]></style>
</defs>
<path d="M395.7,408.9h.4V382.7h-.4Z" class="g0_317"/>
<path d="M378.6,408.9v3.2l-.3,-.1l-6.2,-2.9l-.4,-.2l.4,-.2l6.2,-2.9l.3,-.1v.3l-.1,.2l-6.2,2.9l-.2,-.4h.2l6.2,3l-.2,.3l-.1,-.1v-3Z" class="g0_317"/>
<path d="M378.2,408.9h.4V406h-.4Z" class="g0_317"/>
<path d="M378.4,409.1h.2v-.4h-.2Z" class="g0_317"/>
<path d="M378.6,409.1h17.5v-.4H378.6Z" class="g0_317"/>
<path d="M387.7,452h.3V424h-.3Z" class="g0_317"/>
<path d="M363.4,424v3.3l-.3,-.1l-6.2,-3l-.4,-.2l.4,-.1l6.2,-3l.3,-.1v.3l-.1,.2l-6.3,2.9l-.1,-.3h.1l6.3,2.9l-.2,.4L363,427v-3Z" class="g0_317"/>
<path d="M363,424h.4v-2.9H363Z" class="g0_317"/>
<path d="M363.2,424.2h.2v-.3h-.2Z" class="g0_317"/>
<path d="M363.4,424.2H388v-.3H363.4Z" class="g0_317"/>
</svg>