<?xml version="1.0" encoding="UTF-8" standalone="no"?>
<!DOCTYPE svg PUBLIC "-//W3C//DTD SVG 1.1//EN"
"http://www.w3.org/Graphics/SVG/1.1/DTD/svg11.dtd">
<svg viewBox="0 0 811 1017" version="1.1" xmlns="http://www.w3.org/2000/svg" xmlns:xlink="http://www.w3.org/1999/xlink">
<defs>
<clipPath id="c0_53"><path d="M156.1,590.2V370.1h220V590.2Z"/></clipPath>
<clipPath id="c1_53"><path d="M156.1,920.2V700.1h220V920.2Z"/></clipPath>
<style type="text/css"><![CDATA[
.g0_53{
fill: #0E0E0E;
}
]]></style>
</defs>
<path d="M409.2,239.9c0,.6,.5,1,1.1,1c.4,0,.8,-.2,1.3,-.6c.8,-.7,2.1,-2.3,2.8,-3.5c.4,-.6,.7,-1.2,1,-1.8c.4,-.7,1.2,-2.1,1.2,-2.9c0,-.2,-.1,-.4,-.2,-.6c-.1,-.2,-.3,-.2,-.5,-.2c-.1,0,-.2,0,-.4,.2c-.1,.1,-.2,.3,-.2,.6c0,.4,.2,.9,.2,1.3c0,.6,-.2,1.2,-.4,1.6c-.3,.5,-.5,.9,-.8,1.4h-.1l-.4,-1.9c-.1,-.5,-.3,-1.6,-.4,-2c-.2,-.7,-.3,-1.2,-1.3,-1.2c-1.2,0,-1.4,1.7,-1.6,2.5l.3,.1c.1,-.6,.6,-2.3,1,-2.3c.4,0,.5,1,.6,1.3c.1,.3,.1,.7,.2,1.3l.6,3.5c-.3,.8,-1.1,1.7,-1.7,2.2c-.3,.2,-.6,.2,-.8,.2q-.1,0,-.2,-.1c-.2,-.3,-.2,-.8,-.7,-.8c-.4,0,-.6,.3,-.6,.7Z" class="g0_53"/>
<path d="M422.1,235.8h7.6V235h-7.6Zm0,-3h7.6V232h-7.6Z" class="g0_53"/>
<path d="M438.9,231.3c-.4,0,-.8,.1,-1.3,.4c-.4,.3,-.8,.7,-1.2,1.2c-.6,.7,-1.2,1.9,-1.2,3.2c0,1,.3,1.8,1.3,1.8c1.3,0,1.8,-.9,2.1,-1.6h.1c-.2,.9,-.1,1.6,.5,1.6c.4,0,.7,-.2,1.1,-.5c.4,-.4,.8,-.8,1.1,-1.4l-.1,-.1c-.3,.4,-1,1.3,-1.4,1.3c-.2,0,-.3,-.3,-.3,-.6c0,-.9,.6,-2.4,1,-3.4l.7,-1.8h-1l-.3,.6c-.2,-.4,-.5,-.7,-1.1,-.7Zm.2,.2c.7,0,.5,1.3,.4,1.9c0,.3,-.2,.6,-.3,1c-.3,1.2,-1.4,3.1,-2.2,3.1c-.6,0,-.8,-.9,-.8,-1.4c0,-.5,0,-.9,.2,-1.4c.4,-1,1.4,-3.2,2.7,-3.2Z" class="g0_53"/>
<path d="M449.5,232.2c0,-.5,-.4,-.9,-1,-.9c-.3,0,-.6,.1,-.9,.3c-.3,.2,-.6,.5,-.8,.9c0,-.7,-.5,-1.2,-1.1,-1.2c-1.1,0,-2.1,1.1,-2.4,1.9l.2,.1c.3,-.5,1.1,-1.7,1.9,-1.7c.3,0,.4,.6,.4,1c0,.3,0,.7,-.2,1.2l-.3,1.1c-.2,.6,-.4,1.4,-.7,1.8c-.2,.3,-.5,.7,-.8,.7c-.5,0,-.8,-.1,-.7,-.5c.1,-.3,.1,-.7,-.4,-.7c-.4,0,-.6,.3,-.6,.7c0,.6,.5,1,1.1,1c1,0,1.7,-.8,2.1,-1.5c.1,.8,.5,1.5,1.4,1.5c1.1,0,2,-1.2,2.4,-1.9l-.2,-.2c-.5,.7,-1.2,1.7,-2,1.7c-.4,0,-.6,-.6,-.6,-1.2c0,-.4,0,-.8,.2,-1.4l.2,-.7c.1,-.6,.3,-1.2,.6,-1.6c.2,-.3,.6,-.9,.9,-.9c.4,0,.4,.3,.4,.6c-.1,.4,.1,.5,.4,.5c.4,0,.5,-.2,.5,-.6Z" class="g0_53"/>
<path d="M457.3,233.5H454v1h3.3v3.2h1v-3.2h3.2v-1h-3.2v-3.3h-1v3.3Z" class="g0_53"/>
<path d="M469.3,231.6c1.2,0,.9,1.9,.4,3.2c-.4,.8,-1.3,2.7,-2.4,2.7c-.5,0,-.7,-.3,-.7,-.9c0,-.8,.2,-1.8,.5,-2.4c.2,-.6,.7,-1.6,1.1,-2c.3,-.3,.6,-.6,1.1,-.6Zm-2.2,6.3c1.6,0,2.8,-1.5,3.4,-2.6c.4,-.7,.7,-1.5,.7,-2.3c0,-1,-.6,-1.7,-1.6,-1.7c-.9,0,-1.6,.5,-2,1.1l1.5,-5.6l-2,.1l-.1,.2c.6,0,.9,.3,.9,.6c0,.2,-.1,.6,-.2,.8l-1.6,5.6c-.1,.6,-.3,1,-.4,1.4c0,.4,-.1,.7,-.1,.9c0,.8,.6,1.5,1.5,1.5Z" class="g0_53"/>
<image clip-path="url(#c0_53)" preserveAspectRatio="none" x="156" y="370" width="220" height="220" xlink:href="img/1.jpg"/>
<image clip-path="url(#c1_53)" preserveAspectRatio="none" x="156" y="700" width="220" height="220" xlink:href="img/2.jpg"/>
</svg>