<?xml version="1.0" encoding="UTF-8" standalone="no"?>
<!DOCTYPE svg PUBLIC "-//W3C//DTD SVG 1.1//EN"
"http://www.w3.org/Graphics/SVG/1.1/DTD/svg11.dtd">
<svg viewBox="0 0 811 1017" version="1.1" xmlns="http://www.w3.org/2000/svg" xmlns:xlink="http://www.w3.org/1999/xlink">
<defs>
<clipPath id="c0_193"><path d="M121.2,749V557.8H312.3V749Z"/></clipPath>
<clipPath id="c1_193"><path d="M327.5,749V557.8H518.6V749Z"/></clipPath>
<clipPath id="c2_193"><path d="M532.9,749V557.8H724V749Z"/></clipPath>
<style type="text/css"><![CDATA[
.g0_193{
fill: #0E0E0E;
}
]]></style>
</defs>
<path d="M235.1,100.6v.1c.3,0,.7,.1,.9,.1c.3,.2,.3,.3,.3,.7v4.4c0,.3,0,.4,-.1,.6c0,.4,-.6,.5,-1.1,.5v.2h3.2V107c-.3,0,-.8,0,-1,-.2c-.1,-.2,-.1,-.5,-.1,-.9v-5.8c-.6,.2,-1.5,.5,-2.1,.5Z" class="g0_193"/>
<path d="M232.3,109.4h8.5v-.7h-8.5Z" class="g0_193"/>
<path d="M235,117.3c-.7,0,-1.2,-.6,-1.2,-1.3c0,-.5,.3,-.9,.8,-.9c-.1,-.2,-.4,-.4,-.7,-.4c-.2,0,-.3,0,-.4,.1c-.4,.1,-.7,.6,-.7,1.1c0,.2,.1,.4,.2,.6c.3,.6,1.1,1,2,1c.7,0,1.3,-.3,1.7,-.6c.4,-.3,.7,-.8,.7,-1.4c0,-.2,0,-.4,-.1,-.6c-.3,-.6,-.8,-1.1,-1.5,-1.3c.4,-.1,.8,-.3,1,-.6c.2,-.3,.4,-.6,.4,-1.1c0,-.2,-.1,-.4,-.2,-.6c-.3,-.7,-1,-1,-2,-1c-.5,0,-1,.1,-1.4,.3c-.3,.2,-.5,.5,-.5,1c0,.3,.1,.5,.3,.7c.1,.1,.3,.2,.6,.2c.2,0,.3,0,.4,-.1c.2,0,.2,-.1,.2,-.2c-.3,0,-.6,-.3,-.6,-.7c0,-.5,.4,-1,1,-1c.7,0,1.1,.6,1.1,1.5c0,.8,-.2,1.6,-1,1.6c-.1,0,-.3,-.1,-.5,-.1c-.2,0,-.5,0,-.5,.2c0,.2,.3,.3,.5,.3c.2,0,.5,-.1,.6,-.2c.8,0,1.1,.8,1.1,1.6c0,1,-.4,1.9,-1.3,1.9Z" class="g0_193"/>
<path d="M239.4,110.3c-.3,0,-.6,.3,-.6,.6c0,.1,0,.2,0,.2c0,.1,0,.2,0,.3c0,0,.1,.1,.1,.3c.1,.8,.3,1.6,.3,2.6c0,.3,0,.7,0,1.2h.4c0,-1.3,0,-2.4,.3,-3.4c0,-.3,0,-.5,.1,-.7c0,-.1,0,-.2,0,-.3v-.2c0,-.3,-.3,-.6,-.6,-.6Zm0,7.2c.3,0,.6,-.3,.6,-.6c0,-.3,-.3,-.6,-.6,-.6c-.3,0,-.6,.3,-.6,.6c0,.3,.3,.6,.6,.6Z" class="g0_193"/>
<path d="M356.5,157.7c.2,0,.5,.3,.5,.6c0,1.3,-1.7,2.3,-2.9,2.7c.3,-1,1.2,-3.3,2.4,-3.3Zm.1,-.3c-1.1,0,-2,.8,-2.6,1.4c-.6,.8,-1.1,1.9,-1.1,3.2c0,1.2,.4,2,1.6,2c1,0,2,-.8,2.6,-1.7l-.3,-.2c-.4,.6,-1.2,1.5,-2,1.5c-.6,0,-.9,-.5,-.9,-1.3c0,-.3,.1,-.7,.1,-1c1.5,-.3,3.9,-1.2,3.9,-2.9c0,-.7,-.6,-1,-1.3,-1Z" class="g0_193"/>
<path d="M359.8,166.2c.9,0,1.4,-.5,1.7,-1.1c0,.7,.2,1.1,.8,1.1c.6,0,.9,-.2,1.1,-.5l-.1,-.2c-.1,.2,-.3,.4,-.5,.4c-.3,0,-.4,-.4,-.4,-1.1v-2.4c0,-1.2,-.6,-1.5,-1.8,-1.5c-1.1,0,-2,.5,-2,.9c0,.4,.1,.5,.4,.5c.4,0,.5,-.1,.6,-.4c.1,-.2,.1,-.4,.2,-.5c.1,-.1,.4,-.3,.6,-.3c1.1,0,1,.6,1,1.3v.4l-1.4,.6c-.4,.3,-.8,.5,-1.2,.8c-.2,.2,-.3,.5,-.3,.8c0,.8,.5,1.2,1.3,1.2Zm-.3,-1.3c0,-.4,.2,-.7,.4,-.9c.4,-.4,.9,-.6,1.5,-1v1.4c0,.4,-.1,.7,-.3,1c-.2,.3,-.6,.5,-.9,.5c-.5,0,-.7,-.6,-.7,-1Z" class="g0_193"/>
<path d="M366.8,161.1c1.1,0,1.6,1.4,1.6,2.5c0,1.1,-.5,2.4,-1.5,2.4c-.8,0,-1.4,-.7,-1.4,-1.2c0,-.1,0,-.3,0,-.5v-1.4c0,-.3,0,-.5,0,-.7c.1,-.4,.6,-1.1,1.3,-1.1Zm.1,5.1c.8,0,1.4,-.3,1.8,-.8c.4,-.4,.8,-1,.8,-1.9c0,-.8,-.3,-1.4,-.8,-1.9c-.4,-.4,-1,-.7,-1.8,-.7c-.7,0,-1.1,.4,-1.4,.8h-.1v-.8l-1.8,.4v.2c.5,0,.8,.1,.9,.5c0,.1,0,.3,0,.5c0,.3,0,.5,0,.9v3.8c0,.4,0,.7,-.2,.9c-.1,.2,-.4,.2,-.7,.2v.2h3v-.2c-.3,0,-.5,0,-.6,0c-.5,-.1,-.5,-.5,-.5,-1.2v-1.6c.3,.4,.7,.7,1.4,.7Z" class="g0_193"/>
<path d="M373.4,161.1c1,0,1.5,1.4,1.5,2.5c0,1.1,-.5,2.4,-1.5,2.4c-.7,0,-1.4,-.7,-1.4,-1.2c0,-.1,0,-.3,0,-.5v-1.4c0,-.3,0,-.5,.1,-.7c.1,-.4,.5,-1.1,1.3,-1.1Zm.1,5.1c.7,0,1.4,-.3,1.8,-.8c.4,-.4,.7,-1,.7,-1.9c0,-.8,-.3,-1.4,-.7,-1.9c-.4,-.4,-1,-.7,-1.8,-.7c-.7,0,-1.2,.4,-1.5,.8v-.8l-1.9,.4v.2c.6,0,.8,.1,.9,.5c0,.1,0,.3,0,.5c.1,.3,.1,.5,.1,.9v3.8c0,.4,-.1,.7,-.2,.9c-.2,.2,-.4,.2,-.8,.2v.2h3v-.2c-.3,0,-.4,0,-.6,0c-.5,-.1,-.5,-.5,-.5,-1.2v-1.6c.4,.4,.8,.7,1.5,.7Z" class="g0_193"/>
<path d="M382.3,153.2c-2.1,1.4,-3.6,3.8,-3.6,6.8c0,2.8,1.5,5.6,3.6,6.8l.2,-.2c-2,-1.5,-2.6,-3.3,-2.6,-6.6c0,-3.3,.7,-5,2.6,-6.6l-.2,-.2Z" class="g0_193"/>
<path d="M390.7,158.3c0,-.5,-.4,-.9,-1,-.9c-.3,0,-.6,.1,-.9,.3c-.3,.2,-.7,.5,-.9,.9c0,-.7,-.4,-1.2,-1,-1.2c-1.2,0,-2.1,1.1,-2.5,1.9l.2,.1c.4,-.5,1.1,-1.7,2,-1.7c.3,0,.4,.6,.4,1c0,.3,-.1,.7,-.2,1.2l-.4,1.1c-.1,.6,-.4,1.4,-.7,1.8c-.1,.3,-.4,.7,-.8,.7c-.4,0,-.7,-.1,-.6,-.5c.1,-.3,0,-.7,-.4,-.7c-.4,0,-.6,.3,-.6,.7c0,.6,.5,1,1,1c1,0,1.8,-.8,2.2,-1.5c.1,.8,.5,1.5,1.3,1.5c1.2,0,2.1,-1.2,2.5,-1.9l-.2,-.1c-.5,.6,-1.2,1.6,-2,1.6c-.4,0,-.6,-.6,-.6,-1.2c0,-.4,0,-.8,.2,-1.4l.1,-.7c.1,-.5,.4,-1.2,.7,-1.6c.1,-.3,.5,-.9,.9,-.9c.4,0,.4,.3,.3,.6c0,.4,.2,.6,.5,.6c.4,0,.5,-.3,.5,-.7Z" class="g0_193"/>
<path d="M392,153.2l-.1,.2c1.9,1.6,2.5,3.3,2.5,6.6c0,3.3,-.6,5.1,-2.5,6.6l.1,.2c2.1,-1.2,3.7,-4,3.7,-6.8c0,-3,-1.5,-5.4,-3.7,-6.8Z" class="g0_193"/>
<path d="M401.9,162h7.6v-.9h-7.6Zm0,-3.1h7.6v-.8h-7.6Z" class="g0_193"/>
<path d="M418,144v.2c.5,0,1.1,.1,1.3,.2c.5,.3,.5,.4,.5,1V152c0,.3,0,.5,-.1,.7c-.1,.7,-.9,.8,-1.6,.8v.2h4.7v-.2c-.5,0,-1.3,0,-1.5,-.3c-.2,-.3,-.2,-.8,-.2,-1.3v-8.6c-.8,.4,-2.1,.7,-3.1,.7Z" class="g0_193"/>
<path d="M416.1,160.4h8.3v-.8h-8.3Z" class="g0_193"/>
<path d="M422.1,170.7c0,1.6,-.3,3.2,-1.8,3.2c-1.3,0,-1.9,-1.7,-1.9,-3.9v-.7c.4,-.9,1,-1.8,2.1,-1.8c1.3,0,1.6,1.7,1.6,3.2Zm1.2,-5.6c0,-.8,-1.3,-1.5,-2.3,-1.5c-3.2,0,-4.1,2.8,-4.1,6c0,2.4,.9,4.6,3.3,4.6c2.1,0,3.4,-1.5,3.4,-3.6c0,-1.9,-1.1,-3.3,-3,-3.3c-1,0,-1.7,.5,-2.1,1.2h-.1c0,-1.1,0,-2.3,.4,-3.1c.4,-.6,.9,-1.5,1.9,-1.5c1.6,0,1.1,1.8,2,1.8c.5,0,.6,-.2,.6,-.6Z" class="g0_193"/>
<path d="M433.4,158.3c0,-.5,-.4,-.9,-1,-.9c-.3,0,-.6,.1,-.9,.3c-.4,.2,-.7,.5,-.9,.9c0,-.7,-.4,-1.2,-1.1,-1.2c-1.1,0,-2,1.1,-2.4,1.9l.2,.1c.4,-.5,1.1,-1.7,2,-1.7c.3,0,.4,.6,.4,1c0,.3,-.1,.7,-.2,1.2l-.4,1.1c-.1,.6,-.4,1.4,-.7,1.8c-.1,.3,-.4,.7,-.8,.7c-.4,0,-.7,-.1,-.6,-.5c.1,-.3,0,-.7,-.4,-.7c-.5,0,-.6,.3,-.6,.7c0,.6,.4,1,1,1c1,0,1.8,-.8,2.1,-1.5h.1c.1,.8,.5,1.5,1.3,1.5c1.2,0,2,-1.2,2.5,-1.9l-.2,-.1c-.5,.6,-1.2,1.6,-2,1.6c-.4,0,-.6,-.6,-.6,-1.2c0,-.4,0,-.8,.1,-1.4l.2,-.7c.1,-.5,.4,-1.2,.6,-1.6c.2,-.3,.6,-.9,1,-.9c.4,0,.4,.3,.3,.6c0,.4,.2,.6,.5,.6c.4,0,.5,-.3,.5,-.7Z" class="g0_193"/>
<path d="M437,157.6c-.8,0,-1.3,-.7,-1.3,-1.4c0,-.5,.3,-1,.8,-1c0,-.2,-.4,-.4,-.7,-.4c-.2,0,-.3,0,-.5,.1c-.4,.2,-.7,.6,-.7,1.1c0,.3,.1,.5,.2,.7c.4,.7,1.2,1.1,2.2,1.1c.8,0,1.4,-.3,1.8,-.6c.5,-.4,.8,-.9,.8,-1.5c0,-.3,-.1,-.5,-.1,-.7c-.3,-.7,-.9,-1.1,-1.6,-1.3v-.1c.4,-.1,.8,-.4,1,-.7c.3,-.2,.5,-.6,.5,-1.1c0,-.3,-.1,-.5,-.2,-.7C438.9,150.4,438,150,437,150c-.6,0,-1.1,.2,-1.5,.4c-.3,.2,-.6,.6,-.6,1c0,.3,.1,.6,.3,.8c.2,.1,.4,.3,.7,.3c.2,0,.3,-.1,.5,-.1c.1,-.1,.2,-.2,.2,-.3c-.4,0,-.7,-.3,-.7,-.8c0,-.6,.5,-1.1,1.1,-1.1c.8,0,1.2,.7,1.2,1.6c0,.9,-.3,1.8,-1.1,1.8c-.2,0,-.4,-.1,-.6,-.1c-.2,0,-.5,0,-.5,.2c0,.2,.3,.4,.5,.4c.3,0,.5,-.2,.7,-.3c.9,0,1.1,.8,1.1,1.8c0,1,-.3,2,-1.3,2Z" class="g0_193"/>
<path d="M448,159.6h-3.3v1H448v3.2h1v-3.2h3.2v-1H449v-3.3h-1v3.3Z" class="g0_193"/>
<path d="M459.8,144v.2c.4,0,1.1,.1,1.3,.2c.4,.3,.4,.4,.4,1V152c0,.3,0,.5,0,.7c-.1,.7,-.9,.8,-1.7,.8v.2h4.7v-.2c-.5,0,-1.2,0,-1.4,-.3c-.2,-.3,-.3,-.8,-.3,-1.3v-8.6c-.8,.4,-2.1,.7,-3,.7Z" class="g0_193"/>
<path d="M457.8,160.4h8.4v-.8h-8.4Z" class="g0_193"/>
<path d="M461.4,167.7c-.9,0,-1.5,-.7,-1.5,-1.6c0,-1.1,.6,-2.2,1.8,-2.2c1.7,0,1.9,1.3,1.9,2.6c0,1.2,-.4,2,-1,2.9c-.4,.5,-.9,1.2,-1.6,1.8c-.6,.7,-1.5,1.5,-2.5,2.4v.5h6.2l.5,-2.9h-.4c-.1,.3,-.2,.6,-.3,.8c-.2,.5,-.6,.8,-1.4,.8h-2.8l-.1,-.1c.7,-.5,1.3,-1,1.9,-1.5c1,-.9,2.1,-1.9,2.7,-3.1c.2,-.5,.4,-1,.4,-1.6c0,-.4,-.1,-.8,-.3,-1.2c-.5,-1,-1.5,-1.7,-3,-1.7c-.9,0,-1.8,.3,-2.3,.8c-.6,.4,-1,1.1,-1,2c0,.6,.2,1.1,.5,1.4c.3,.4,.7,.6,1.3,.6c.5,0,.9,-.3,1,-.7Z" class="g0_193"/>
<path d="M475.1,158.3c0,-.5,-.4,-.9,-1,-.9c-.3,0,-.6,.1,-.9,.3c-.3,.2,-.6,.5,-.9,.9c0,-.7,-.4,-1.2,-1,-1.2c-1.1,0,-2.1,1.1,-2.4,1.9l.2,.1c.3,-.5,1,-1.7,1.9,-1.7c.3,0,.4,.6,.4,1c0,.3,0,.7,-.2,1.2l-.3,1.1c-.2,.6,-.4,1.4,-.7,1.8c-.2,.3,-.5,.7,-.8,.7c-.5,0,-.8,-.1,-.7,-.5c.1,-.3,.1,-.7,-.4,-.7c-.4,0,-.6,.3,-.6,.7c0,.6,.5,1,1.1,1c1,0,1.7,-.8,2.1,-1.5c.1,.8,.5,1.5,1.4,1.5c1.1,0,2,-1.2,2.4,-1.9l-.2,-.1c-.5,.6,-1.2,1.6,-2,1.6c-.4,0,-.6,-.6,-.6,-1.2c0,-.4,0,-.8,.2,-1.4l.2,-.7c.1,-.5,.3,-1.2,.6,-1.6c.2,-.3,.5,-.9,.9,-.9c.4,0,.4,.3,.4,.6c-.1,.4,.1,.6,.4,.6c.4,0,.5,-.3,.5,-.7Z" class="g0_193"/>
<path d="M478.5,153c-.7,0,-1.1,-.5,-1.1,-1.1c0,-.8,.4,-1.7,1.3,-1.7c1.2,0,1.4,1,1.4,1.9c0,1,-.3,1.5,-.8,2.2c-.2,.4,-.6,.8,-1.1,1.3c-.5,.5,-1.1,1.1,-1.8,1.8v.3h4.5l.4,-2.1H481c-.1,.2,-.2,.4,-.2,.6c-.2,.3,-.5,.5,-1,.5h-2.2c.5,-.4,1,-.7,1.4,-1.1c.8,-.6,1.6,-1.4,2,-2.2c.1,-.4,.2,-.8,.2,-1.2c0,-.4,0,-.6,-.1,-.9c-.4,-.7,-1.1,-1.3,-2.2,-1.3c-.7,0,-1.3,.3,-1.7,.6c-.4,.3,-.7,.8,-.7,1.5c0,.4,.1,.8,.3,1c.2,.3,.5,.4,.9,.4c.4,0,.7,-.2,.8,-.5Z" class="g0_193"/>
<path d="M489.7,159.6h-3.2v1h3.2v3.2h1v-3.2H494v-1h-3.3v-3.3h-1v3.3Z" class="g0_193"/>
<path d="M504.9,158.3c0,-.5,-.4,-.9,-1,-.9c-.3,0,-.6,.1,-.9,.3c-.3,.2,-.6,.5,-.8,.9c0,-.7,-.5,-1.2,-1.1,-1.2c-1.1,0,-2.1,1.1,-2.4,1.9l.2,.1c.3,-.5,1.1,-1.7,1.9,-1.7c.3,0,.4,.6,.4,1c0,.3,0,.7,-.2,1.2l-.3,1.1c-.2,.6,-.4,1.4,-.7,1.8c-.2,.3,-.5,.7,-.8,.7c-.5,0,-.8,-.1,-.7,-.5c.1,-.3,.1,-.7,-.4,-.7c-.4,0,-.6,.3,-.6,.7c0,.6,.5,1,1.1,1c1,0,1.7,-.8,2.1,-1.5c.1,.8,.5,1.5,1.4,1.5c1.1,0,2,-1.2,2.4,-1.9l-.2,-.1c-.5,.6,-1.2,1.6,-2,1.6c-.4,0,-.6,-.6,-.6,-1.2c0,-.4,0,-.8,.2,-1.4l.2,-.7c.1,-.5,.3,-1.2,.6,-1.6c.2,-.3,.5,-.9,.9,-.9c.4,0,.4,.3,.4,.6c-.1,.4,.1,.6,.4,.6c.4,0,.5,-.3,.5,-.7Z" class="g0_193"/>
<path d="M512.7,159.6h-3.3v1h3.3v3.2h1v-3.2h3.2v-1h-3.2v-3.3h-1v3.3Z" class="g0_193"/>
<path d="M522.7,154.1v.2c.4,0,1.1,.1,1.3,.2c.4,.3,.4,.4,.4,1v6.6c0,.3,0,.5,0,.7c-.1,.7,-.9,.8,-1.6,.8v.2h4.6v-.2c-.5,0,-1.2,0,-1.4,-.3c-.2,-.3,-.2,-.8,-.2,-1.3v-8.6c-.8,.4,-2.2,.7,-3.1,.7Z" class="g0_193"/>
<path d="M332.2,259.2c.3,0,.5,.3,.5,.6c0,1.3,-1.7,2.3,-2.9,2.7c.3,-1,1.2,-3.3,2.4,-3.3Zm.1,-.3c-1.1,0,-2,.8,-2.6,1.5c-.6,.7,-1.1,1.9,-1.1,3.1c0,1.2,.4,2,1.6,2c1,0,2,-.7,2.6,-1.7l-.3,-.2c-.4,.6,-1.2,1.6,-2,1.6c-.6,0,-.9,-.5,-.9,-1.4c0,-.2,.1,-.7,.1,-.9c1.5,-.3,3.9,-1.3,3.9,-3c0,-.6,-.6,-1,-1.3,-1Z" class="g0_193"/>
<path d="M335.5,267.7c.9,0,1.4,-.5,1.7,-1c0,.6,.2,1,.9,1c.5,0,.8,-.2,1,-.5l-.1,-.1c0,.1,-.3,.3,-.5,.3c-.3,0,-.4,-.3,-.4,-1.1v-2.4c0,-1.1,-.6,-1.5,-1.8,-1.5c-1,0,-2,.6,-2,1c0,.3,.1,.5,.5,.5c.3,0,.4,-.2,.5,-.5c.1,-.2,.1,-.4,.2,-.5c.1,-.1,.4,-.3,.6,-.3c1.1,0,1,.6,1,1.4v.4l-1.3,.6c-.5,.2,-.9,.4,-1.3,.7c-.2,.2,-.3,.5,-.3,.9c0,.7,.6,1.1,1.3,1.1Zm-.3,-1.3c0,-.4,.2,-.7,.4,-.9c.4,-.4,.9,-.6,1.5,-.9v1.3c0,.5,-.1,.8,-.3,1c-.2,.3,-.6,.5,-.9,.5c-.5,0,-.7,-.6,-.7,-1Z" class="g0_193"/>
<path d="M342.5,262.6c1.1,0,1.6,1.4,1.6,2.5c0,1.1,-.5,2.4,-1.5,2.4c-.7,0,-1.4,-.7,-1.4,-1.2c0,-.1,0,-.3,0,-.4v-1.5c0,-.2,0,-.5,0,-.6c.1,-.5,.6,-1.2,1.3,-1.2Zm.2,5.1c.7,0,1.3,-.3,1.7,-.7c.5,-.5,.8,-1.1,.8,-1.9c0,-.9,-.3,-1.5,-.7,-1.9c-.4,-.5,-1,-.8,-1.8,-.8c-.8,0,-1.2,.4,-1.5,.9h-.1v-.8l-1.8,.3v.2c.5,0,.8,.2,.9,.5c0,.1,0,.3,0,.5c0,.3,0,.6,0,1v3.7c0,.4,0,.7,-.1,.9c-.2,.2,-.4,.3,-.8,.3v.1h3v-.1c-.3,0,-.4,0,-.6,-.1c-.5,-.1,-.5,-.5,-.5,-1.1V267c.4,.4,.7,.7,1.5,.7Z" class="g0_193"/>
<path d="M349.1,262.6c1,0,1.5,1.4,1.5,2.5c0,1.1,-.5,2.4,-1.5,2.4c-.7,0,-1.4,-.7,-1.4,-1.2c0,-.1,0,-.3,0,-.4v-1.5c0,-.2,0,-.5,.1,-.6c.1,-.5,.5,-1.2,1.3,-1.2Zm.1,5.1c.8,0,1.4,-.3,1.8,-.7c.4,-.5,.7,-1.1,.7,-1.9c0,-.9,-.3,-1.5,-.7,-1.9c-.4,-.5,-1,-.8,-1.8,-.8c-.7,0,-1.1,.4,-1.5,.9v-.8l-1.9,.3v.2c.6,0,.8,.2,.9,.5c0,.1,0,.3,0,.5c.1,.3,.1,.6,.1,1v3.7c0,.4,-.1,.7,-.2,.9c-.2,.2,-.4,.3,-.8,.3v.1h3v-.1c-.2,0,-.4,0,-.6,-.1c-.5,-.1,-.5,-.5,-.5,-1.1V267c.4,.4,.8,.7,1.5,.7Z" class="g0_193"/>
<path d="M358.1,254.7c-2.2,1.4,-3.7,3.8,-3.7,6.9c0,2.7,1.6,5.5,3.6,6.8l.2,-.3c-2,-1.5,-2.5,-3.3,-2.5,-6.6c0,-3.3,.6,-5,2.5,-6.5l-.1,-.3Z" class="g0_193"/>
<path d="M366.4,259.9c0,-.6,-.4,-1,-1,-1c-.3,0,-.6,.1,-.9,.3c-.3,.3,-.6,.6,-.9,.9c0,-.6,-.4,-1.2,-1,-1.2c-1.2,0,-2.1,1.2,-2.5,2l.2,.1c.4,-.5,1.1,-1.7,2,-1.7c.3,0,.4,.5,.4,1c0,.2,0,.6,-.2,1.1l-.3,1.2c-.2,.6,-.4,1.4,-.8,1.8c-.1,.2,-.4,.6,-.7,.6c-.5,0,-.8,-.1,-.7,-.5c.1,-.3,.1,-.7,-.4,-.7c-.4,0,-.6,.3,-.6,.8c0,.5,.5,.9,1.1,.9c1,0,1.7,-.8,2.1,-1.4c.1,.8,.5,1.4,1.3,1.4c1.2,0,2.1,-1.1,2.5,-1.8l-.2,-.2c-.5,.6,-1.2,1.6,-2,1.6c-.4,0,-.6,-.6,-.6,-1.2c0,-.3,0,-.8,.2,-1.3l.1,-.7c.1,-.6,.4,-1.3,.7,-1.7c.1,-.2,.5,-.9,.9,-.9c.4,0,.4,.3,.4,.6c-.1,.4,.1,.6,.4,.6c.4,0,.5,-.3,.5,-.6Z" class="g0_193"/>
<path d="M367.7,254.7l-.1,.3c1.9,1.5,2.5,3.2,2.5,6.5c0,3.3,-.6,5.1,-2.5,6.6l.2,.3c2,-1.3,3.6,-4.1,3.6,-6.8c0,-3.1,-1.5,-5.5,-3.7,-6.9Z" class="g0_193"/>
<path d="M377.6,263.5h7.6v-.8h-7.6Zm0,-3h7.6v-.9h-7.6Z" class="g0_193"/>
<path d="M397.9,245.6v.2c.5,0,1.1,.1,1.3,.2c.5,.2,.5,.4,.5,1v6.5c0,.3,0,.6,-.1,.8c-.1,.6,-.9,.7,-1.6,.8v.2h4.7v-.2c-.5,-.1,-1.3,-.1,-1.5,-.4c-.2,-.3,-.2,-.7,-.2,-1.3v-8.6c-.8,.4,-2.1,.7,-3.1,.8Z" class="g0_193"/>
<path d="M391.8,262h16.7v-.9H391.8Z" class="g0_193"/>
<path d="M395.4,269.2c-.9,0,-1.5,-.6,-1.5,-1.6c0,-1,.6,-2.2,1.8,-2.2c1.7,0,1.8,1.4,1.8,2.6c0,1.3,-.3,2,-1,2.9c-.3,.6,-.9,1.2,-1.5,1.9c-.7,.7,-1.5,1.5,-2.5,2.4v.4h6.2l.5,-2.8h-.4c-.1,.3,-.2,.5,-.3,.7c-.2,.5,-.7,.8,-1.4,.8h-2.9v-.1c.7,-.4,1.3,-1,1.9,-1.4c1,-.9,2.1,-1.9,2.7,-3.1c.2,-.6,.3,-1.1,.3,-1.7c0,-.4,0,-.8,-.2,-1.1c-.5,-1.1,-1.5,-1.8,-3,-1.8c-.9,0,-1.8,.4,-2.4,.8c-.5,.5,-.9,1.1,-.9,2c0,.7,.2,1.1,.5,1.5c.3,.3,.7,.5,1.2,.5c.6,0,1,-.2,1.1,-.7Z" class="g0_193"/>
<path d="M404.4,267.2v5.4H401c1.1,-1.8,2.3,-3.6,3.4,-5.4Zm-3.8,5.3v.6h3.8v.6c0,1.2,-.1,1.7,-.8,1.7v.2h2.9v-.2c-.6,0,-.8,-.7,-.8,-1.8v-.5h1.8c0,0,0,-.5,0,-.5c0,0,-1.7,0,-1.8,0v-7.5h-.4l-4.7,7.4Z" class="g0_193"/>
<path d="M417.5,259.9c0,-.6,-.5,-1,-1,-1c-.3,0,-.7,.1,-1,.3c-.3,.3,-.6,.6,-.8,.9c0,-.6,-.4,-1.2,-1.1,-1.2c-1.1,0,-2.1,1.2,-2.4,2l.2,.1c.3,-.5,1.1,-1.7,2,-1.7c.2,0,.4,.5,.4,1c0,.2,-.1,.6,-.3,1.1l-.3,1.2c-.2,.6,-.4,1.4,-.7,1.8c-.2,.2,-.4,.6,-.8,.6c-.4,0,-.7,-.1,-.6,-.5c.1,-.3,0,-.7,-.4,-.7c-.5,0,-.7,.3,-.7,.8c0,.5,.5,.9,1.1,.9c1,0,1.7,-.8,2.1,-1.4c.2,.8,.6,1.4,1.4,1.4c1.2,0,2,-1.1,2.4,-1.8l-.2,-.2c-.4,.6,-1.1,1.6,-1.9,1.6c-.5,0,-.7,-.6,-.7,-1.2c0,-.3,.1,-.8,.2,-1.3l.2,-.7c.1,-.6,.3,-1.3,.6,-1.7c.2,-.2,.6,-.9,.9,-.9c.5,0,.4,.3,.4,.6c0,.4,.1,.6,.5,.6c.3,0,.5,-.3,.5,-.6Z" class="g0_193"/>
<path d="M421.3,253.1V257h-2.5c.8,-1.3,1.7,-2.6,2.5,-3.9Zm-2.8,3.9v.4h2.8v.4c0,.9,-.1,1.3,-.5,1.3v.1h2v-.1c-.4,0,-.5,-.6,-.5,-1.4v-.3h1.2c.1,0,0,-.4,0,-.4c.1,0,-1.2,0,-1.2,0v-5.4H422l-3.5,5.4Z" class="g0_193"/>
<path d="M432.1,261.1h-3.3v1h3.3v3.3h.9v-3.3h3.3v-1H433v-3.2h-.9v3.2Z" class="g0_193"/>
<path d="M443.8,245.6v.2c.5,0,1.1,.1,1.3,.2c.5,.2,.5,.4,.5,1v6.5c0,.3,0,.6,-.1,.8c0,.6,-.9,.7,-1.6,.8v.2h4.7v-.2c-.5,-.1,-1.2,-.1,-1.5,-.4c-.2,-.3,-.2,-.7,-.2,-1.3v-8.6c-.8,.4,-2.1,.7,-3.1,.8Z" class="g0_193"/>
<path d="M441.9,262h8.3v-.9h-8.3Z" class="g0_193"/>
<path d="M447.9,272.2c0,1.7,-.3,3.3,-1.8,3.3c-1.3,0,-1.9,-1.7,-1.9,-4v-.6c.5,-.9,1,-1.8,2.1,-1.8c1.3,0,1.6,1.6,1.6,3.1Zm1.2,-5.6c0,-.7,-1.3,-1.5,-2.3,-1.5c-3.2,0,-4.1,2.9,-4.1,6c0,2.4,1,4.6,3.3,4.6c2.1,0,3.4,-1.5,3.4,-3.6c0,-1.9,-1.1,-3.3,-3,-3.3c-1,0,-1.6,.6,-2.1,1.3l-.1,-.1c0,-1.1,0,-2.3,.4,-3c.4,-.6,1,-1.6,2,-1.6c1.5,0,1,1.8,1.9,1.8c.5,0,.6,-.2,.6,-.6Z" class="g0_193"/>
<path d="M459.2,259.9c0,-.6,-.4,-1,-1,-1c-.3,0,-.6,.1,-.9,.3c-.4,.3,-.7,.6,-.9,.9c0,-.6,-.4,-1.2,-1,-1.2c-1.2,0,-2.1,1.2,-2.5,2l.2,.1c.4,-.5,1.1,-1.7,2,-1.7c.3,0,.4,.5,.4,1c0,.2,-.1,.6,-.2,1.1l-.4,1.2c-.1,.6,-.4,1.4,-.7,1.8c-.1,.2,-.4,.6,-.8,.6c-.4,0,-.7,-.1,-.6,-.5c.1,-.3,0,-.7,-.4,-.7c-.4,0,-.6,.3,-.6,.8c0,.5,.5,.9,1,.9c1,0,1.8,-.8,2.2,-1.4c.1,.8,.5,1.4,1.3,1.4c1.2,0,2,-1.1,2.5,-1.8l-.2,-.2c-.5,.6,-1.2,1.6,-2,1.6c-.4,0,-.6,-.6,-.6,-1.2c0,-.3,0,-.8,.1,-1.3l.2,-.7c.1,-.6,.4,-1.3,.6,-1.7c.2,-.2,.6,-.9,1,-.9c.4,0,.4,.3,.3,.6c0,.4,.2,.6,.5,.6c.4,0,.5,-.3,.5,-.6Z" class="g0_193"/>
<path d="M462.8,259.1c-.7,0,-1.3,-.7,-1.3,-1.4c0,-.5,.3,-.9,.8,-.9c0,-.3,-.4,-.5,-.7,-.5c-.2,0,-.3,.1,-.5,.1c-.4,.2,-.6,.6,-.6,1.2c0,.2,0,.5,.1,.7c.4,.6,1.2,1,2.2,1c.8,0,1.4,-.2,1.9,-.6c.4,-.3,.7,-.8,.7,-1.5c0,-.3,-.1,-.5,-.1,-.7c-.3,-.7,-.9,-1.1,-1.6,-1.3v-.1c.4,-.1,.8,-.3,1,-.6c.3,-.3,.5,-.7,.5,-1.2c0,-.2,-.1,-.5,-.2,-.7c-.3,-.7,-1.1,-1,-2.2,-1c-.6,0,-1.1,.1,-1.5,.3c-.3,.3,-.6,.6,-.6,1.1c0,.3,.2,.5,.3,.7c.2,.2,.4,.3,.7,.3c.2,0,.4,0,.5,-.1c.1,-.1,.2,-.2,.2,-.3c-.4,0,-.7,-.3,-.7,-.7c0,-.6,.5,-1.1,1.1,-1.1c.8,0,1.2,.7,1.2,1.6c0,.9,-.3,1.7,-1.1,1.7c-.1,0,-.4,-.1,-.6,-.1c-.2,0,-.5,.1,-.5,.3c0,.2,.3,.3,.6,.3c.2,0,.5,-.1,.6,-.2c.9,0,1.2,.8,1.2,1.7c0,1,-.4,2,-1.4,2Z" class="g0_193"/>
<path d="M473.8,261.1h-3.3v1h3.3v3.3h1v-3.3H478v-1h-3.2v-3.2h-1v3.2Z" class="g0_193"/>
<path d="M485.6,245.6v.2c.4,0,1.1,.1,1.3,.2c.4,.2,.4,.4,.4,1v6.5c0,.3,0,.6,0,.8c-.1,.6,-.9,.7,-1.7,.8v.2h4.7v-.2c-.5,-.1,-1.2,-.1,-1.4,-.4c-.2,-.3,-.3,-.7,-.3,-1.3v-8.6c-.7,.4,-2.1,.7,-3,.8Z" class="g0_193"/>
<path d="M483.6,262H492v-.9h-8.4Z" class="g0_193"/>
<path d="M487.2,269.2c-.9,0,-1.5,-.6,-1.5,-1.6c0,-1,.6,-2.2,1.8,-2.2c1.7,0,1.9,1.4,1.9,2.6c0,1.3,-.4,2,-1,2.9c-.4,.6,-.9,1.2,-1.6,1.9c-.6,.7,-1.5,1.5,-2.5,2.4v.4h6.3l.5,-2.8h-.5c0,.3,-.2,.5,-.3,.7c-.2,.5,-.6,.8,-1.4,.8h-2.8l-.1,-.1c.7,-.4,1.4,-1,1.9,-1.4c1.1,-.9,2.1,-1.9,2.7,-3.1c.2,-.6,.4,-1.1,.4,-1.7c0,-.4,-.1,-.8,-.3,-1.1c-.4,-1.1,-1.4,-1.8,-2.9,-1.8c-1,0,-1.9,.4,-2.4,.8c-.5,.5,-1,1.1,-1,2c0,.7,.2,1.1,.5,1.5c.3,.3,.7,.5,1.3,.5c.5,0,.9,-.2,1,-.7Z" class="g0_193"/>
<path d="M500.9,259.9c0,-.6,-.4,-1,-.9,-1c-.4,0,-.7,.1,-1,.3c-.3,.3,-.6,.6,-.8,.9c0,-.6,-.5,-1.2,-1.1,-1.2c-1.1,0,-2.1,1.2,-2.4,2l.2,.1c.3,-.5,1.1,-1.7,1.9,-1.7c.3,0,.4,.5,.4,1c0,.2,0,.6,-.2,1.1l-.3,1.2c-.2,.6,-.4,1.4,-.7,1.8c-.2,.2,-.5,.6,-.8,.6c-.4,0,-.8,-.1,-.7,-.5c.1,-.3,.1,-.7,-.4,-.7c-.4,0,-.6,.3,-.6,.8c0,.5,.5,.9,1.1,.9c1,0,1.7,-.8,2.1,-1.4c.1,.8,.5,1.4,1.4,1.4c1.1,0,2,-1.1,2.4,-1.8l-.2,-.2c-.5,.6,-1.1,1.6,-2,1.6c-.4,0,-.6,-.6,-.6,-1.2c0,-.3,.1,-.8,.2,-1.3l.2,-.7c.1,-.6,.3,-1.3,.6,-1.7c.2,-.2,.6,-.9,.9,-.9c.4,0,.4,.3,.4,.6c0,.4,.1,.6,.4,.6c.4,0,.5,-.3,.5,-.6Z" class="g0_193"/>
<path d="M504.3,254.6c-.7,0,-1.1,-.5,-1.1,-1.2c0,-.8,.4,-1.6,1.3,-1.6c1.3,0,1.4,1,1.4,1.9c0,.9,-.3,1.4,-.7,2.1c-.3,.4,-.7,.9,-1.2,1.3c-.5,.6,-1.1,1.1,-1.8,1.8v.3h4.5l.4,-2.1h-.3c-.1,.3,-.2,.4,-.2,.6c-.2,.4,-.5,.6,-1,.6h-2.1v-.1c.4,-.3,.9,-.7,1.3,-1.1c.8,-.6,1.6,-1.3,2,-2.2c.2,-.4,.3,-.8,.3,-1.2c0,-.3,-.1,-.6,-.2,-.9c-.4,-.7,-1.1,-1.2,-2.2,-1.2c-.7,0,-1.3,.2,-1.7,.5c-.4,.4,-.7,.9,-.7,1.5c0,.5,.1,.8,.3,1.1c.2,.2,.5,.4,.9,.4c.4,0,.7,-.2,.8,-.5Z" class="g0_193"/>
<path d="M515.5,261.1h-3.2v1h3.2v3.3h1v-3.3h3.3v-1h-3.3v-3.2h-1v3.2Z" class="g0_193"/>
<path d="M530.8,259.9c0,-.6,-.5,-1,-1,-1c-.4,0,-.7,.1,-1,.3c-.3,.3,-.6,.6,-.8,.9c0,-.6,-.5,-1.2,-1.1,-1.2c-1.1,0,-2.1,1.2,-2.4,2l.2,.1c.3,-.5,1.1,-1.7,2,-1.7c.2,0,.3,.5,.3,1c0,.2,0,.6,-.2,1.1l-.3,1.2c-.2,.6,-.4,1.4,-.7,1.8c-.2,.2,-.5,.6,-.8,.6c-.4,0,-.8,-.1,-.6,-.5c0,-.3,0,-.7,-.5,-.7c-.4,0,-.6,.3,-.6,.8c0,.5,.5,.9,1.1,.9c1,0,1.7,-.8,2.1,-1.4c.1,.8,.5,1.4,1.4,1.4c1.1,0,2,-1.1,2.4,-1.8l-.2,-.2c-.5,.6,-1.1,1.6,-1.9,1.6c-.5,0,-.7,-.6,-.7,-1.2c0,-.3,.1,-.8,.2,-1.3l.2,-.7c.1,-.6,.3,-1.3,.6,-1.7c.2,-.2,.6,-.9,.9,-.9c.5,0,.4,.3,.4,.6c0,.4,.1,.6,.5,.6c.3,0,.5,-.3,.5,-.6Z" class="g0_193"/>
<path d="M538.5,261.1h-3.3v1h3.3v3.3h1v-3.3h3.2v-1h-3.2v-3.2h-1v3.2Z" class="g0_193"/>
<path d="M548.5,255.7v.2c.4,0,1.1,.1,1.3,.2c.5,.2,.4,.4,.5,1v6.5c0,.3,-.1,.6,-.1,.8c-.1,.6,-.9,.7,-1.6,.8v.2h4.7v-.2c-.5,-.1,-1.3,-.1,-1.5,-.4c-.2,-.3,-.2,-.7,-.2,-1.3v-8.6c-.8,.4,-2.1,.7,-3.1,.8Z" class="g0_193"/>
<path d="M302.2,363.4c.3,0,.5,.3,.5,.6c0,1.3,-1.7,2.3,-2.9,2.7c.3,-1,1.2,-3.3,2.4,-3.3Zm.1,-.3c-1.1,0,-2,.8,-2.6,1.5c-.6,.7,-1.1,1.8,-1.1,3.1c0,1.2,.4,2,1.6,2c1,0,2,-.8,2.6,-1.7l-.3,-.2c-.4,.6,-1.2,1.6,-2,1.6c-.6,0,-.9,-.5,-.9,-1.4c0,-.3,.1,-.7,.1,-.9c1.5,-.4,3.9,-1.3,3.9,-3c0,-.7,-.6,-1,-1.3,-1Z" class="g0_193"/>
<path d="M305.5,371.9c.9,0,1.4,-.5,1.7,-1c0,.6,.3,1,.9,1c.5,0,.8,-.2,1,-.5v-.1c-.1,.1,-.4,.3,-.6,.3c-.3,0,-.4,-.4,-.4,-1.1v-2.4c0,-1.2,-.6,-1.5,-1.8,-1.5c-1,0,-2,.6,-2,1c0,.3,.1,.5,.5,.5c.3,0,.5,-.2,.5,-.5c.1,-.2,.1,-.4,.3,-.5c.1,-.1,.3,-.3,.6,-.3c1,0,1,.6,1,1.4v.4l-1.4,.6c-.5,.2,-.9,.4,-1.2,.7c-.2,.2,-.4,.5,-.4,.9c0,.7,.6,1.1,1.3,1.1Zm-.3,-1.3c0,-.4,.2,-.7,.4,-.9c.4,-.4,.9,-.6,1.6,-.9v1.3c0,.4,-.2,.8,-.4,1c-.2,.3,-.6,.5,-.9,.5c-.5,0,-.7,-.6,-.7,-1Z" class="g0_193"/>
<path d="M312.6,366.8c1,0,1.5,1.4,1.5,2.5c0,1.1,-.5,2.4,-1.5,2.4c-.7,0,-1.4,-.7,-1.4,-1.2c0,-.1,0,-.3,0,-.4v-1.5c0,-.2,0,-.5,.1,-.7c.1,-.4,.5,-1.1,1.3,-1.1Zm.1,5.1c.7,0,1.4,-.3,1.8,-.7c.4,-.5,.7,-1.1,.7,-1.9c0,-.9,-.3,-1.5,-.7,-1.9c-.4,-.5,-1,-.8,-1.8,-.8c-.7,0,-1.2,.4,-1.5,.8v-.7l-1.9,.3v.2c.6,0,.8,.1,.9,.5c0,.1,0,.3,0,.5c.1,.3,.1,.6,.1,.9v3.8c0,.4,-.1,.7,-.2,.9c-.2,.2,-.4,.2,-.8,.3v.1h3v-.1c-.3,0,-.4,-.1,-.6,-.1c-.5,-.1,-.5,-.5,-.5,-1.1v-1.7c.4,.4,.8,.7,1.5,.7Z" class="g0_193"/>
<path d="M319.1,366.8c1,0,1.5,1.4,1.5,2.5c0,1.1,-.5,2.4,-1.4,2.4c-.8,0,-1.4,-.7,-1.5,-1.2c0,-.1,0,-.3,0,-.4v-1.5c0,-.2,0,-.5,.1,-.7c.1,-.4,.6,-1.1,1.3,-1.1Zm.1,5.1c.8,0,1.4,-.3,1.8,-.7c.4,-.5,.7,-1.1,.7,-1.9c0,-.9,-.3,-1.5,-.7,-1.9c-.4,-.5,-1,-.8,-1.8,-.8c-.7,0,-1.1,.4,-1.5,.8v-.7l-1.9,.3v.2c.6,0,.8,.1,.9,.5c0,.1,0,.3,.1,.5c0,.3,0,.6,0,.9v3.8c0,.4,-.1,.7,-.2,.9c-.1,.2,-.4,.2,-.7,.3v.1h2.9v-.1c-.2,0,-.4,-.1,-.6,-.1c-.4,-.1,-.5,-.5,-.5,-1.1v-1.7c.4,.4,.8,.7,1.5,.7Z" class="g0_193"/>
<path d="M328.1,358.9c-2.2,1.4,-3.7,3.8,-3.7,6.8c0,2.8,1.6,5.6,3.6,6.9l.2,-.3c-2,-1.5,-2.5,-3.3,-2.5,-6.6c0,-3.3,.6,-5,2.5,-6.5l-.1,-.3Z" class="g0_193"/>
<path d="M336.4,364c0,-.5,-.4,-.9,-1,-.9c-.3,0,-.6,.1,-.9,.3c-.3,.3,-.6,.6,-.9,.9c0,-.6,-.4,-1.2,-1,-1.2c-1.1,0,-2.1,1.2,-2.4,2l.2,.1c.3,-.5,1,-1.7,1.9,-1.7c.3,0,.4,.5,.4,.9c0,.3,0,.7,-.2,1.2l-.3,1.2c-.2,.6,-.4,1.3,-.7,1.7c-.2,.3,-.5,.7,-.8,.7c-.5,0,-.8,-.1,-.7,-.5c.1,-.3,.1,-.7,-.4,-.7c-.4,0,-.6,.3,-.6,.8c0,.5,.5,.9,1.1,.9c1,0,1.7,-.8,2.1,-1.5v.1c.1,.8,.5,1.4,1.4,1.4c1.1,0,2,-1.2,2.4,-1.8l-.2,-.2c-.5,.6,-1.2,1.6,-2,1.6c-.4,0,-.6,-.6,-.6,-1.2c0,-.3,0,-.8,.2,-1.3l.2,-.8c.1,-.5,.3,-1.2,.6,-1.6c.2,-.3,.5,-.9,.9,-.9c.4,0,.4,.3,.4,.6c-.1,.4,.1,.6,.4,.6c.4,0,.5,-.3,.5,-.7Z" class="g0_193"/>
<path d="M337.7,358.9l-.1,.3c1.9,1.5,2.5,3.2,2.5,6.5c0,3.3,-.5,5.1,-2.5,6.6l.2,.3c2,-1.3,3.6,-4.1,3.6,-6.9c0,-3,-1.5,-5.4,-3.7,-6.8Z" class="g0_193"/>
<path d="M347.6,367.7h7.6v-.9h-7.6Zm0,-3h7.6v-.9h-7.6Z" class="g0_193"/>
<path d="M372.1,349.8v.2c.4,0,1.1,0,1.3,.2c.5,.2,.4,.4,.5,1v6.5c0,.3,0,.6,-.1,.8c-.1,.6,-.9,.7,-1.6,.8v.2h4.7v-.2c-.5,-.1,-1.3,-.1,-1.5,-.4c-.2,-.3,-.2,-.7,-.2,-1.3V349h-.1c-.8,.4,-2,.7,-3,.8Z" class="g0_193"/>
<path d="M361.8,366.2h25v-.9h-25Z" class="g0_193"/>
<path d="M363.7,370.1v.2c.5,0,1.1,.1,1.4,.2c.4,.2,.4,.4,.4,1V378c0,.3,0,.6,0,.8c-.1,.7,-.9,.8,-1.7,.8v.2h4.7v-.2c-.5,0,-1.2,-.1,-1.4,-.3c-.3,-.3,-.3,-.8,-.3,-1.4v-8.6c-.8,.4,-2.1,.8,-3.1,.8Z" class="g0_193"/>
<path d="M373.7,373.4c-.9,0,-1.4,-.6,-1.4,-1.6c0,-1,.5,-2.2,1.8,-2.2c1.6,0,1.8,1.3,1.8,2.6c0,1.3,-.4,2,-1,2.9c-.4,.6,-.9,1.2,-1.5,1.9c-.7,.7,-1.5,1.4,-2.6,2.4v.4h6.3l.5,-2.9h-.4c-.1,.4,-.3,.6,-.3,.8c-.3,.5,-.7,.8,-1.4,.8h-2.9v-.1c.6,-.5,1.3,-1,1.9,-1.4c1,-.9,2.1,-1.9,2.6,-3.1c.3,-.6,.4,-1.1,.4,-1.7c0,-.4,-.1,-.8,-.2,-1.1c-.5,-1.1,-1.5,-1.8,-3,-1.8c-1,0,-1.8,.4,-2.4,.8c-.5,.5,-.9,1.1,-.9,2c0,.7,.2,1.1,.5,1.5c.2,.3,.6,.5,1.2,.5c.5,0,.9,-.2,1,-.7Z" class="g0_193"/>
<path d="M382.7,379.7c-2,0,-2,-2.8,-2,-4.9c0,-2.3,0,-5.2,2,-5.2c1.9,0,1.9,2.9,1.9,5.2c0,2.1,0,4.9,-1.9,4.9Zm0,-10.4c-2.6,0,-3.4,2.7,-3.4,5.4c0,2.6,.8,5.2,3.4,5.2c2.5,0,3.3,-2.6,3.3,-5.2c0,-2.7,-.7,-5.4,-3.3,-5.4Z" class="g0_193"/>
<path d="M395.8,364c0,-.5,-.4,-.9,-1,-.9c-.3,0,-.6,.1,-.9,.3c-.3,.3,-.6,.6,-.9,.9c0,-.6,-.4,-1.2,-1,-1.2c-1.1,0,-2.1,1.2,-2.5,2l.3,.1c.3,-.5,1,-1.7,1.9,-1.7c.3,0,.4,.5,.4,.9c0,.3,0,.7,-.2,1.2l-.3,1.2c-.2,.6,-.4,1.3,-.7,1.7c-.2,.3,-.5,.7,-.8,.7c-.5,0,-.8,-.1,-.7,-.5c.1,-.3,.1,-.7,-.4,-.7c-.4,0,-.6,.3,-.6,.8c0,.5,.5,.9,1.1,.9c1,0,1.7,-.8,2.1,-1.5v.1c.1,.8,.5,1.4,1.3,1.4c1.2,0,2.1,-1.2,2.5,-1.8l-.2,-.2c-.5,.6,-1.2,1.6,-2,1.6c-.4,0,-.6,-.6,-.6,-1.2c0,-.3,0,-.8,.2,-1.3l.1,-.8c.2,-.5,.4,-1.2,.7,-1.6c.2,-.3,.5,-.9,.9,-.9c.4,0,.4,.3,.4,.6c-.1,.4,.1,.6,.4,.6c.4,0,.5,-.3,.5,-.7Z" class="g0_193"/>
<path d="M401.6,355.8v0c-.3,.1,-.7,.1,-1.4,.1c-.4,0,-.8,0,-1.1,-.1l-1,4c-.1,0,-.1,.1,-.1,.1c0,.1,0,.2,.1,.2c.2,0,.2,-.1,.2,-.3c.2,-.5,.6,-1,1.3,-1c.8,0,1,.8,1,1.7c0,.8,-.1,1.4,-.4,1.9c-.3,.4,-.6,.9,-1.2,.9c-.6,0,-.8,-.5,-.9,-1c-.1,-.3,-.2,-.7,-.6,-.7c-.3,0,-.5,.2,-.5,.6c0,.1,.1,.3,.2,.5c.3,.5,.9,.8,1.7,.8c.4,0,.8,-.1,1.2,-.2c.9,-.4,1.7,-1.2,1.7,-2.6c0,-.3,0,-.6,-.2,-.9c-.2,-.7,-1,-1.2,-2,-1.2c-.3,0,-.8,.2,-1.1,.5l.1,-.2l.5,-2.1c0,0,.6,.1,1,.1c.7,0,1.4,-.4,1.5,-1.1Z" class="g0_193"/>
<path d="M410.4,365.3h-3.2v1h3.2v3.3h1v-3.3h3.3v-1h-3.3V362h-1v3.3Z" class="g0_193"/>
<path d="M426.4,349.8v.2c.4,0,1.1,0,1.3,.2c.4,.2,.4,.4,.4,1v6.5c0,.3,0,.6,0,.8c-.1,.6,-.9,.7,-1.7,.8v.2h4.7v-.2c-.5,-.1,-1.2,-.1,-1.4,-.4c-.2,-.3,-.2,-.7,-.2,-1.3V349h-.1c-.8,.4,-2.1,.7,-3,.8Z" class="g0_193"/>
<path d="M420.2,366.2h16.7v-.9H420.2Z" class="g0_193"/>
<path d="M423.8,373.4c-.9,0,-1.4,-.6,-1.4,-1.6c0,-1,.5,-2.2,1.8,-2.2c1.6,0,1.8,1.3,1.8,2.6c0,1.3,-.4,2,-1,2.9c-.4,.6,-.9,1.2,-1.5,1.9c-.7,.7,-1.5,1.4,-2.6,2.4v.4h6.3l.5,-2.9h-.4c-.1,.4,-.3,.6,-.3,.8c-.3,.5,-.7,.8,-1.4,.8h-2.9v-.1c.6,-.5,1.3,-1,1.9,-1.4c1,-.9,2.1,-1.9,2.6,-3.1c.3,-.6,.4,-1.1,.4,-1.7c0,-.4,-.1,-.8,-.2,-1.1c-.5,-1.1,-1.5,-1.8,-3,-1.8c-1,0,-1.8,.4,-2.4,.8c-.5,.5,-.9,1.1,-.9,2c0,.7,.1,1.1,.5,1.5c.2,.3,.6,.5,1.2,.5c.5,0,.9,-.2,1,-.7Z" class="g0_193"/>
<path d="M432.9,371.4v5.4h-3.5c1.2,-1.8,2.3,-3.6,3.5,-5.4Zm-3.8,5.3v.6h3.8v.6c0,1.2,-.2,1.7,-.8,1.7v.2H435v-.2c-.6,0,-.8,-.7,-.8,-1.8v-.5h1.7c0,0,0,-.5,0,-.5c0,0,-1.7,0,-1.7,0v-7.5h-.4l-4.7,7.4Z" class="g0_193"/>
<path d="M445.9,364c0,-.5,-.4,-.9,-1,-.9c-.3,0,-.6,.1,-.9,.3c-.3,.3,-.6,.6,-.9,.9c0,-.6,-.4,-1.2,-1,-1.2c-1.2,0,-2.1,1.2,-2.5,2l.2,.1c.4,-.5,1.1,-1.7,2,-1.7c.3,0,.4,.5,.4,.9c0,.3,0,.7,-.2,1.2l-.3,1.2c-.2,.6,-.4,1.3,-.8,1.7c-.1,.3,-.4,.7,-.7,.7c-.5,0,-.8,-.1,-.7,-.5c.1,-.3,.1,-.7,-.4,-.7c-.4,0,-.6,.3,-.6,.8c0,.5,.5,.9,1.1,.9c1,0,1.7,-.8,2.1,-1.5v.1c.1,.8,.5,1.4,1.3,1.4c1.2,0,2.1,-1.2,2.5,-1.8l-.2,-.2c-.5,.6,-1.2,1.6,-2,1.6c-.4,0,-.6,-.6,-.6,-1.2c0,-.3,0,-.8,.2,-1.3l.1,-.8c.1,-.5,.4,-1.2,.7,-1.6c.1,-.3,.5,-.9,.9,-.9c.4,0,.4,.3,.4,.6c-.1,.4,.1,.6,.4,.6c.4,0,.5,-.3,.5,-.7Z" class="g0_193"/>
<path d="M449.8,357.3v3.9h-2.5c.8,-1.3,1.6,-2.6,2.5,-3.9Zm-2.8,3.9v.4h2.8v.4c0,.9,-.1,1.3,-.6,1.3v.1h2.1v-.1c-.4,0,-.5,-.6,-.5,-1.4v-.3H452c0,0,0,-.4,0,-.4c0,0,-1.2,0,-1.2,0v-5.4h-.4l-3.4,5.4Z" class="g0_193"/>
<path d="M460.5,365.3h-3.2v1h3.2v3.3h1v-3.3h3.2v-1h-3.2V362h-1v3.3Z" class="g0_193"/>
<path d="M472.3,349.8v.2c.4,0,1.1,0,1.3,.2c.5,.2,.4,.4,.5,1v6.5c0,.3,-.1,.6,-.1,.8c-.1,.6,-.9,.7,-1.6,.8v.2h4.7v-.2c-.5,-.1,-1.3,-.1,-1.5,-.4c-.2,-.3,-.2,-.7,-.2,-1.3V349h-.1c-.8,.4,-2.1,.7,-3,.8Z" class="g0_193"/>
<path d="M470.3,366.2h8.4v-.9h-8.4Z" class="g0_193"/>
<path d="M476.4,376.4c0,1.7,-.4,3.3,-1.9,3.3c-1.2,0,-1.8,-1.8,-1.8,-4v-.6c.4,-.9,.9,-1.8,2,-1.8c1.3,0,1.7,1.6,1.7,3.1Zm1.2,-5.6c0,-.7,-1.3,-1.5,-2.3,-1.5c-3.2,0,-4.2,2.8,-4.2,6c0,2.4,1,4.6,3.4,4.6c2.1,0,3.4,-1.5,3.4,-3.6c0,-1.9,-1.1,-3.3,-3,-3.3c-1,0,-1.7,.6,-2.2,1.3v-.1c0,-1.1,0,-2.3,.4,-3c.3,-.6,.9,-1.6,1.9,-1.6c1.6,0,1.1,1.8,2,1.8c.5,0,.6,-.2,.6,-.6Z" class="g0_193"/>
<path d="M487.7,364c0,-.5,-.5,-.9,-1,-.9c-.3,0,-.7,.1,-1,.3c-.3,.3,-.6,.6,-.8,.9c0,-.6,-.4,-1.2,-1.1,-1.2c-1.1,0,-2.1,1.2,-2.4,2l.2,.1c.3,-.5,1.1,-1.7,2,-1.7c.2,0,.4,.5,.4,.9c0,.3,-.1,.7,-.3,1.2l-.3,1.2c-.2,.6,-.4,1.3,-.7,1.7c-.2,.3,-.4,.7,-.8,.7c-.4,0,-.7,-.1,-.6,-.5c.1,-.3,0,-.7,-.4,-.7c-.5,0,-.7,.3,-.7,.8c0,.5,.5,.9,1.1,.9c1,0,1.7,-.8,2.1,-1.5v.1c.2,.8,.6,1.4,1.4,1.4c1.2,0,2,-1.2,2.4,-1.8l-.2,-.2c-.4,.6,-1.1,1.6,-1.9,1.6c-.5,0,-.7,-.6,-.7,-1.2c0,-.3,.1,-.8,.2,-1.3l.2,-.8c.1,-.5,.3,-1.2,.6,-1.6c.2,-.3,.6,-.9,.9,-.9c.5,0,.4,.3,.4,.6c0,.4,.1,.6,.5,.6c.3,0,.5,-.3,.5,-.7Z" class="g0_193"/>
<path d="M491.2,363.3c-.7,0,-1.2,-.7,-1.2,-1.4c0,-.5,.3,-.9,.8,-.9c-.1,-.3,-.4,-.5,-.8,-.5c-.1,0,-.3,.1,-.4,.1c-.4,.2,-.7,.6,-.7,1.2c0,.2,.1,.4,.2,.7c.4,.6,1.1,1,2.2,1c.8,0,1.4,-.2,1.8,-.6c.4,-.3,.7,-.8,.7,-1.5c0,-.3,0,-.5,-.1,-.7c-.2,-.7,-.8,-1.1,-1.5,-1.3v-.1c.4,-.1,.8,-.3,1,-.6c.2,-.3,.4,-.7,.4,-1.2c0,-.2,0,-.5,-.1,-.7c-.4,-.7,-1.2,-1,-2.2,-1c-.6,0,-1.2,.1,-1.5,.3c-.3,.3,-.6,.6,-.6,1.1c0,.3,.1,.5,.3,.7c.1,.2,.4,.3,.7,.3c.2,0,.3,0,.4,-.1c.2,-.1,.2,-.2,.3,-.3c-.4,0,-.7,-.3,-.7,-.7c0,-.6,.5,-1.1,1.1,-1.1c.8,0,1.2,.7,1.2,1.6c0,.9,-.3,1.7,-1.1,1.7c-.2,0,-.4,-.1,-.6,-.1c-.2,0,-.5,.1,-.5,.2c0,.3,.3,.4,.5,.4c.3,0,.5,-.2,.7,-.2c.9,0,1.1,.8,1.1,1.7c0,1,-.4,2,-1.4,2Z" class="g0_193"/>
<path d="M502.3,365.3H499v1h3.3v3.3h.9v-3.3h3.3v-1h-3.3V362h-.9v3.3Z" class="g0_193"/>
<path d="M514,349.8v.2c.5,0,1.1,0,1.3,.2c.5,.2,.5,.4,.5,1v6.5c0,.3,0,.6,-.1,.8c0,.6,-.9,.7,-1.6,.8v.2h4.7v-.2c-.5,-.1,-1.2,-.1,-1.5,-.4c-.2,-.3,-.2,-.7,-.2,-1.3V349c-.8,.4,-2.1,.7,-3.1,.8Z" class="g0_193"/>
<path d="M512.1,366.2h8.3v-.9h-8.3Z" class="g0_193"/>
<path d="M515.7,373.4c-1,0,-1.5,-.6,-1.5,-1.6c0,-1,.6,-2.2,1.8,-2.2c1.7,0,1.8,1.3,1.8,2.6c0,1.3,-.4,2,-1,2.9c-.3,.6,-.9,1.2,-1.5,1.9c-.7,.7,-1.5,1.4,-2.5,2.4v.4H519l.5,-2.9h-.4c-.1,.4,-.2,.6,-.3,.8c-.2,.5,-.7,.8,-1.4,.8h-2.9v-.1c.7,-.5,1.3,-1,1.9,-1.4c1,-.9,2.1,-1.9,2.7,-3.1c.2,-.6,.3,-1.1,.3,-1.7c0,-.4,0,-.8,-.2,-1.1c-.5,-1.1,-1.5,-1.8,-3,-1.8c-.9,0,-1.8,.4,-2.4,.8c-.5,.5,-.9,1.1,-.9,2c0,.7,.2,1.1,.5,1.5c.3,.3,.7,.5,1.2,.5c.6,0,1,-.2,1.1,-.7Z" class="g0_193"/>
<path d="M529.4,364c0,-.5,-.4,-.9,-1,-.9c-.3,0,-.6,.1,-.9,.3c-.4,.3,-.7,.6,-.9,.9c0,-.6,-.4,-1.2,-1,-1.2c-1.2,0,-2.1,1.2,-2.5,2l.2,.1c.4,-.5,1.1,-1.7,2,-1.7c.3,0,.4,.5,.4,.9c0,.3,-.1,.7,-.2,1.2l-.4,1.2c-.1,.6,-.4,1.3,-.7,1.7c-.1,.3,-.4,.7,-.8,.7c-.4,0,-.7,-.1,-.6,-.5c.1,-.3,0,-.7,-.4,-.7c-.4,0,-.6,.3,-.6,.8c0,.5,.5,.9,1,.9c1,0,1.8,-.8,2.2,-1.5v.1c.1,.8,.5,1.4,1.3,1.4c1.2,0,2,-1.2,2.5,-1.8l-.2,-.2c-.5,.6,-1.2,1.6,-2,1.6c-.4,0,-.6,-.6,-.6,-1.2c0,-.3,0,-.8,.1,-1.3l.2,-.8c.1,-.5,.4,-1.2,.6,-1.6c.2,-.3,.6,-.9,1,-.9c.4,0,.4,.3,.3,.6c0,.4,.2,.6,.5,.6c.4,0,.5,-.3,.5,-.7Z" class="g0_193"/>
<path d="M532.8,358.7c-.7,0,-1.1,-.4,-1.1,-1.1c0,-.8,.4,-1.6,1.3,-1.6c1.2,0,1.3,.9,1.3,1.9c0,.9,-.2,1.4,-.7,2.1c-.3,.4,-.6,.8,-1.1,1.3c-.5,.5,-1.1,1.1,-1.9,1.8v.3h4.6l.4,-2.1h-.3c-.1,.3,-.2,.4,-.3,.6c-.1,.4,-.4,.6,-1,.6h-2.1v-.1c.5,-.3,1,-.7,1.4,-1.1c.7,-.6,1.5,-1.3,1.9,-2.2c.2,-.4,.3,-.8,.3,-1.2c0,-.3,-.1,-.6,-.2,-.9c-.3,-.7,-1,-1.2,-2.1,-1.2c-.7,0,-1.4,.2,-1.8,.5c-.4,.4,-.7,.8,-.7,1.5c0,.5,.2,.8,.4,1.1c.2,.2,.5,.4,.9,.4c.4,0,.7,-.2,.8,-.6Z" class="g0_193"/>
<path d="M544,365.3h-3.3v1H544v3.3h1v-3.3h3.2v-1H545V362h-1v3.3Z" class="g0_193"/>
<path d="M559.2,364c0,-.5,-.4,-.9,-1,-.9c-.3,0,-.6,.1,-.9,.3c-.3,.3,-.7,.6,-.9,.9c0,-.6,-.4,-1.2,-1,-1.2c-1.2,0,-2.1,1.2,-2.5,2l.2,.1c.4,-.5,1.1,-1.7,2,-1.7c.3,0,.4,.5,.4,.9c0,.3,-.1,.7,-.2,1.2l-.4,1.2c-.1,.6,-.4,1.3,-.7,1.7c-.1,.3,-.4,.7,-.8,.7c-.4,0,-.7,-.1,-.6,-.5c.1,-.3,0,-.7,-.4,-.7c-.4,0,-.6,.3,-.6,.8c0,.5,.5,.9,1,.9c1.1,0,1.8,-.8,2.2,-1.5v.1c.1,.8,.5,1.4,1.3,1.4c1.2,0,2.1,-1.2,2.5,-1.8l-.2,-.2c-.5,.6,-1.2,1.6,-2,1.6c-.4,0,-.6,-.6,-.6,-1.2c0,-.3,0,-.8,.2,-1.3l.1,-.8c.1,-.5,.4,-1.2,.7,-1.6c.1,-.3,.5,-.9,.9,-.9c.4,0,.4,.3,.3,.6c0,.4,.2,.6,.5,.6c.4,0,.5,-.3,.5,-.7Z" class="g0_193"/>
<path d="M567,365.3h-3.3v1H567v3.3h.9v-3.3h3.3v-1h-3.3V362H567v3.3Z" class="g0_193"/>
<path d="M576.9,359.9v.2c.5,0,1.1,0,1.4,.2c.4,.2,.4,.4,.4,1v6.5c0,.3,0,.6,0,.8c-.1,.6,-.9,.7,-1.7,.8v.2h4.7v-.2c-.5,-.1,-1.2,-.1,-1.4,-.4c-.3,-.3,-.3,-.7,-.3,-1.3v-8.6c-.8,.4,-2.1,.7,-3.1,.8Z" class="g0_193"/>
<image clip-path="url(#c0_193)" preserveAspectRatio="none" x="121" y="558" width="191" height="191" xlink:href="img/1.jpg"/>
<image clip-path="url(#c1_193)" preserveAspectRatio="none" x="327" y="558" width="192" height="191" xlink:href="img/2.jpg"/>
<image clip-path="url(#c2_193)" preserveAspectRatio="none" x="533" y="558" width="191" height="191" xlink:href="img/3.jpg"/>
</svg>