<?xml version="1.0" encoding="UTF-8" standalone="no"?>
<!DOCTYPE svg PUBLIC "-//W3C//DTD SVG 1.1//EN"
"http://www.w3.org/Graphics/SVG/1.1/DTD/svg11.dtd">
<svg viewBox="0 0 811 1017" version="1.1" xmlns="http://www.w3.org/2000/svg" xmlns:xlink="http://www.w3.org/1999/xlink">
<defs>
<style type="text/css"><![CDATA[
.g0_283{
fill: #000;
}
]]></style>
</defs>
<path d="M441.6,621.1h.3V563h-.3Z" class="g0_283"/>
<path d="M424.2,621.1v3.2H424l-6.4,-3l-.3,-.2l.3,-.1l6.4,-2.9l.2,-.1v.3l-.1,.2l-6.3,2.8l-.2,-.3h.2l6.3,2.9l-.1,.4l-.1,-.2v-3Z" class="g0_283"/>
<path d="M423.9,621.1h.3v-2.8h-.3Z" class="g0_283"/>
<path d="M424,621.3h.2V621H424Z" class="g0_283"/>
<path d="M424.2,621.3h17.7V621H424.2Z" class="g0_283"/>
<path d="M453.8,636.5h.4V608.8h-.4Z" class="g0_283"/>
<path d="M436.7,636.5v3.2l-.3,-.1l-6.3,-2.9l-.4,-.2l.4,-.1l6.3,-3l.3,-.1v.3l-.1,.2l-6.3,2.9l-.2,-.3h.2l6.3,2.9l-.2,.3l-.1,-.1v-3Z" class="g0_283"/>
<path d="M436.3,636.5h.4v-2.9h-.4Z" class="g0_283"/>
<path d="M436.5,636.7h.2v-.3h-.2Z" class="g0_283"/>
<path d="M436.7,636.7h17.5v-.3H436.7Z" class="g0_283"/>
<path d="M743.3,682.3h.4V587.9h-.4Z" class="g0_283"/>
<path d="M711.9,682.3v3.2l-.3,-.1l-6.2,-2.9l-.4,-.2l.4,-.2l6.2,-2.9l.3,-.1v.2l-.1,.2l-6.2,3l-.2,-.4h.2l6.2,2.9l-.2,.4l-.1,-.2v-2.9Z" class="g0_283"/>
<path d="M711.5,682.3h.4v-3h-.4Z" class="g0_283"/>
<path d="M711.7,682.5h.2v-.4h-.2Z" class="g0_283"/>
<path d="M711.9,682.5h31.8v-.4H711.9Z" class="g0_283"/>
<path d="M116.3,697.6h.4V561.1h-.4Z" class="g0_283"/>
<path d="M134,697.6v-3.2l.3,.1l6.3,2.9l.4,.2l-.4,.2l-6.3,2.9l-.3,.1v-.3l.1,-.2l6.3,-2.9l.2,.4h-.2l-6.3,-3l.2,-.3l.1,.1v3Z" class="g0_283"/>
<path d="M134,700.5h.4v-2.9H134Z" class="g0_283"/>
<path d="M134,697.8h.2v-.4H134Z" class="g0_283"/>
<path d="M116.3,697.8H134v-.4H116.3Z" class="g0_283"/>
<path d="M523,733.7h.3V707H523Z" class="g0_283"/>
</svg>