<?xml version="1.0" encoding="UTF-8" standalone="no"?>
<!DOCTYPE svg PUBLIC "-//W3C//DTD SVG 1.1//EN"
"http://www.w3.org/Graphics/SVG/1.1/DTD/svg11.dtd">
<svg viewBox="0 0 811 1017" version="1.1" xmlns="http://www.w3.org/2000/svg" xmlns:xlink="http://www.w3.org/1999/xlink">
<defs>
<style type="text/css"><![CDATA[
.g0_174{
fill: #70A6CC;
}
.g1_174{
fill: #000;
}
]]></style>
</defs>
<path d="M142.4,549.8H710.7V528.6H142.4Z" class="g0_174"/>
<path d="M478.3,599.7h.4V559h-.4Z" class="g1_174"/>
<path d="M421.6,599.7v3.2l-.3,-.1l-6.2,-2.9l-.4,-.2l.4,-.2l6.2,-2.8l.3,-.1v.2l-.1,.2l-6.3,2.9l-.1,-.4h.1l6.3,2.9l-.2,.4l-.1,-.2v-2.9Z" class="g1_174"/>
<path d="M421.2,599.7h.4v-2.9h-.4Z" class="g1_174"/>
<path d="M421.4,599.9h.2v-.4h-.2Z" class="g1_174"/>
<path d="M421.6,599.9h57.1v-.4H421.6Z" class="g1_174"/>
<path d="M422.8,644.6h.3V617.9h-.3Z" class="g1_174"/>
<path d="M398.6,630.2v3.2l-.3,-.1L392,630.4l-.4,-.2l.4,-.2l6.3,-2.9l.3,-.1v.3l-.1,.2l-6.4,2.9L392,630h.1l6.4,3l-.2,.3l-.1,-.2v-2.9Z" class="g1_174"/>
<path d="M398.2,630.2h.4v-2.9h-.4Z" class="g1_174"/>
<path d="M398.4,630.4h.2V630h-.2Z" class="g1_174"/>
<path d="M398.6,630.4h24.5V630H398.6Z" class="g1_174"/>
<path d="M471.6,733.2h.4V660.7h-.4Z" class="g1_174"/>
<path d="M447.4,660.7v3.2h-.3l-6.3,-3l-.3,-.2l.3,-.1l6.3,-3l.3,-.1v.3l-.1,.2l-6.3,2.9l-.2,-.3h.2l6.3,2.9l-.2,.4v-3.2Z" class="g1_174"/>
<path d="M447.1,660.7h.3v-2.9h-.3Z" class="g1_174"/>
<path d="M447.2,660.9h.2v-.3h-.2Z" class="g1_174"/>
<path d="M447.4,660.9H472v-.3H447.4Z" class="g1_174"/>
<path d="M124.5,845.8h.4V721.9h-.4Z" class="g1_174"/>
<path d="M140.4,721.9v-3.2l.3,.1l6.2,2.9l.4,.2l-.4,.2l-6.2,2.9l-.3,.1v-.3l.1,-.2l6.3,-2.9l.1,.4h-.1l-6.3,-3l.2,-.3l.1,.1v3Z" class="g1_174"/>
<path d="M140.4,724.8h.4v-2.9h-.4Z" class="g1_174"/>
<path d="M140.4,722.1h.2v-.4h-.2Z" class="g1_174"/>
<path d="M124.5,722.1h15.9v-.4H124.5Z" class="g1_174"/>
<path d="M453.8,778.1h.4V752.4h-.4Z" class="g1_174"/>
<path d="M354.7,752.4v3.2l-.2,-.1l-6.3,-2.9l-.3,-.2l.3,-.2l6.3,-2.9l.2,-.1v.4l-6.3,3l-.2,-.4h.2l6.3,3l-.2,.3l-.1,-.2v-2.9Z" class="g1_174"/>
<path d="M354.4,752.4h.3v-2.9h-.3Z" class="g1_174"/>
<path d="M354.6,752.6h.1v-.4h-.1Z" class="g1_174"/>
<path d="M354.7,752.6h99.5v-.4H354.7Z" class="g1_174"/>
<path d="M441.1,842.1h.4V783h-.4Z" class="g1_174"/>
<path d="M416.9,783v3.1l-.3,-.1l-6.3,-2.8l-.4,-.2l.4,-.2l6.3,-2.9l.3,-.1v.3l-.1,.2l-6.3,2.9l-.2,-.4h.2l6.3,2.9l-.2,.3l-.1,-.1V783Z" class="g1_174"/>
<path d="M416.5,783h.4v-2.9h-.4Z" class="g1_174"/>
<path d="M416.7,783.2h.2v-.4h-.2Z" class="g1_174"/>
<path d="M416.9,783.2h24.6v-.4H416.9Z" class="g1_174"/>
</svg>