<?xml version="1.0" encoding="UTF-8" standalone="no"?>
<!DOCTYPE svg PUBLIC "-//W3C//DTD SVG 1.1//EN"
"http://www.w3.org/Graphics/SVG/1.1/DTD/svg11.dtd">
<svg viewBox="0 0 811 1017" version="1.1" xmlns="http://www.w3.org/2000/svg" xmlns:xlink="http://www.w3.org/1999/xlink">
<defs>
<style type="text/css"><![CDATA[
.g0_39{
fill: #0E0E0E;
}
]]></style>
</defs>
<path d="M497.2,416.6h-1l-6,-8V408h1l6,8v.6Zm-7.7,.6h.7v-7.5l5.6,7.5h2v-9.8h-.6v7.5L492,408l-.5,-.6h-2v9.8Z" class="g0_39"/>
<path d="M211.9,595.4h-1l-6,-7.9v-.6h1l6,7.9v.6Zm.7,.7v-9.9h-.7v7.5l-5.2,-6.8l-.4,-.7h-2v9.9h.6v-7.5l5.7,7.5h2Z" class="g0_39"/>
<path d="M216.4,598.3c-1.4,0,-1.4,-2,-1.4,-3.5c0,-1.7,0,-3.8,1.4,-3.8c1.4,0,1.4,2.1,1.4,3.8c0,1.5,0,3.5,-1.4,3.5Zm0,.2v0c1.6,0,2.3,-1.4,2.4,-3.1V594c-.1,-1.7,-.8,-3.2,-2.4,-3.2c-1.9,0,-2.5,2,-2.5,3.9c0,1.9,.6,3.8,2.5,3.8Z" class="g0_39"/>
<path d="M289.7,595.4h-1l-6,-7.9v-.6h1l6,7.9v.6Zm.7,.7v-9.9h-.7v7.5l-5.2,-6.8l-.4,-.7h-2v9.9h.6v-7.5l5.7,7.5h2Z" class="g0_39"/>
<path d="M294.2,598.3c-1.4,0,-1.4,-2,-1.4,-3.5c0,-1.7,0,-3.8,1.4,-3.8c1.4,0,1.4,2.1,1.4,3.8c0,1.5,0,3.5,-1.4,3.5Zm0,.2v0c1.6,0,2.3,-1.4,2.4,-3.1V594c-.1,-1.7,-.8,-3.2,-2.4,-3.2c-1.9,0,-2.5,2,-2.5,3.9c0,1.9,.6,3.8,2.5,3.8Z" class="g0_39"/>
<path d="M383.3,614h-1.1l-5.9,-7.9v-.6h1l6,7.9v.6Zm.6,-9.2h-.6v7.5h-.1l-5.1,-6.8l-.5,-.7h-2v9.8h.7v-7.5l5.6,7.5h2v-9.8Z" class="g0_39"/>
<path d="M386.1,609.9v.2c.3,0,.8,0,1,.1c.3,.2,.3,.3,.3,.7v4.8c0,.2,0,.4,0,.6c-.1,.5,-.7,.5,-1.2,.5v.2h3.4v-.2c-.4,0,-.9,0,-1.1,-.2c-.1,-.2,-.1,-.6,-.1,-1v-6.2c-.6,.3,-1.6,.5,-2.3,.5Z" class="g0_39"/>
<path d="M485.8,686.1l-6.2,8.5h-1.4l6.2,-8.5h1.4Zm-8.4,9.2h9.1v-.7h-6.1l6.3,-8.5v-.7h-8.6v.7h5.5l-6.2,8.5v.7Z" class="g0_39"/>
<path d="M214.6,743.3v.2c.3,0,.8,0,.9,.1c.3,.1,.3,.2,.3,.7v4.4c0,.2,0,.4,0,.5c-.1,.5,-.6,.5,-1.1,.6v.1h3.1v-.1c-.3,-.1,-.8,-.1,-.9,-.3c-.2,-.2,-.2,-.5,-.2,-.9v-5.8c-.5,.3,-1.4,.5,-2.1,.5Z" class="g0_39"/>
<path d="M213.3,752.2h5.6v-.8h-5.6Z" class="g0_39"/>
<path d="M215.7,755.8c-.6,0,-1,-.4,-1,-1.1c0,-.7,.4,-1.5,1.2,-1.5c1.2,0,1.3,.9,1.3,1.8c0,.8,-.3,1.4,-.7,2c-.2,.3,-.6,.8,-1,1.2c-.5,.5,-1.1,1,-1.7,1.6v.3H218l.3,-1.9H218c0,.2,-.1,.4,-.2,.5c-.1,.4,-.4,.5,-.9,.5h-2c.5,-.3,.9,-.7,1.3,-1c.7,-.6,1.4,-1.3,1.8,-2.1c.2,-.4,.3,-.7,.3,-1.1c0,-.3,-.1,-.6,-.2,-.8c-.3,-.7,-1,-1.2,-2,-1.2c-.7,0,-1.2,.3,-1.6,.6c-.4,.3,-.7,.7,-.7,1.3c0,.5,.2,.8,.4,1c.2,.2,.4,.4,.8,.4c.4,0,.7,-.2,.7,-.5Z" class="g0_39"/>
<path d="M262.7,749.9c-.6,0,-1.2,-.6,-1.2,-1.2c0,-.5,.4,-.9,.8,-.9c0,-.3,-.3,-.4,-.7,-.4c-.1,0,-.3,0,-.4,.1c-.4,.1,-.6,.5,-.6,1c0,.2,0,.5,.1,.7c.4,.6,1.1,.9,2.1,.9c.7,0,1.3,-.2,1.7,-.5c.4,-.4,.7,-.8,.7,-1.4c0,-.3,-.1,-.5,-.2,-.7c-.2,-.6,-.7,-1,-1.4,-1.2v-.1c.4,-.1,.7,-.3,1,-.6c.2,-.2,.4,-.6,.4,-1c0,-.3,-.1,-.5,-.2,-.7c-.3,-.6,-1.1,-1,-2,-1c-.6,0,-1.1,.2,-1.4,.4c-.3,.2,-.6,.5,-.6,.9c0,.3,.2,.6,.3,.7c.1,.2,.4,.3,.7,.3c.1,0,.3,0,.4,-.1c.1,-.1,.2,-.2,.2,-.3c-.4,0,-.6,-.3,-.6,-.6c0,-.6,.4,-1.1,1,-1.1c.7,0,1.1,.7,1.1,1.5c0,.8,-.3,1.7,-1,1.7c-.2,-.1,-.4,-.2,-.6,-.2c-.2,0,-.5,.1,-.5,.3c0,.2,.3,.3,.5,.3c.3,0,.5,-.2,.7,-.2c.8,0,1,.7,1,1.6c0,.9,-.3,1.8,-1.3,1.8Z" class="g0_39"/>
<path d="M260.1,752.3h5.7v-.8h-5.7Z" class="g0_39"/>
<path d="M263,754.6v3.6h-2.3c.7,-1.2,1.5,-2.4,2.3,-3.6Zm-2.6,3.6v.4H263v.4c0,.8,-.1,1.1,-.5,1.1v.2h1.9v-.2c-.4,0,-.5,-.5,-.5,-1.2v-.3h1.2c0,0,0,-.4,0,-.4c0,0,-1.2,0,-1.2,0v-5h-.3l-3.2,5Z" class="g0_39"/>
<path d="M655.6,794.4c-.4,.1,-.8,.1,-1.1,.1c-.4,0,-.8,0,-1.2,-.1c.3,-.4,.7,-.6,1.2,-.6c.5,0,.8,.2,1.1,.6Zm2.5,1.5v0c.4,0,.8,0,1.2,-.1l-.1,-.7c-.3,.1,-.7,.2,-1.1,.2c-.5,0,-.9,-.3,-1.2,-.7c1.5,-.8,2.4,-2.3,2.5,-4.2v-.7c-.1,-2.8,-2,-4.8,-4.9,-4.8c-3,0,-5,2.1,-5,5.1c0,2.9,2,5.2,5,5.2c.6,0,1.1,-.1,1.6,-.3c.5,.5,1,1,2,1Zm-6.8,-2.7c-.8,-.8,-1.2,-2,-1.2,-3.2c0,-1.2,.4,-2.3,1.2,-3.2v6.4Zm5.6,.6c-.1,.1,-.3,.2,-.5,.3c-.5,-.5,-1,-.9,-1.9,-.9c-.8,0,-1.4,.3,-1.9,.9c-.2,-.1,-.5,-.2,-.6,-.3v-7.5c.5,-.5,1.8,-.7,2.5,-.7c.8,0,1.8,.2,2.4,.7v7.5Zm.7,-7c.8,.9,1.2,2,1.2,3.2c0,1.2,-.4,2.4,-1.2,3.2v-6.4Z" class="g0_39"/>
</svg>