<?xml version="1.0" encoding="UTF-8" standalone="no"?>
<!DOCTYPE svg PUBLIC "-//W3C//DTD SVG 1.1//EN"
"http://www.w3.org/Graphics/SVG/1.1/DTD/svg11.dtd">
<svg viewBox="0 0 811 1017" version="1.1" xmlns="http://www.w3.org/2000/svg" xmlns:xlink="http://www.w3.org/1999/xlink">
<defs>
<clipPath id="c0_273"><path d="M156.1,921.3v-289H445v289Z"/></clipPath>
<style type="text/css"><![CDATA[
.g0_273{
fill: #000;
}
.g1_273{
fill: #FFF;
}
.g2_273{
fill: #F9FBFB;
}
.g3_273{
fill: #F3F6F7;
}
.g4_273{
fill: #F0F3F4;
}
.g5_273{
fill: #F6F7F7;
}
.g6_273{
fill: #EDEFF0;
}
.g7_273{
fill: #040504;
}
.g8_273{
fill: #B0B2B1;
}
.g9_273{
fill: #D74562;
}
]]></style>
</defs>
<path d="M323.2,551.2h.4V468.4h-.4Z" class="g0_273"/>
<path d="M499.7,551.2h.3V468.4h-.3Z" class="g0_273"/>
<path d="M156.1,469.2H676.3v-.7H156.1Z" class="g0_273"/>
<path d="M156.1,551.2H676.3v-.4H156.1Z" class="g0_273"/>
<path d="M157.1,360.9H455.8V83.9H157.1Z" class="g1_273"/>
<path d="M179.6,286.5L173.5,160.8l.4,.4L276.3,86.4l1.4,117.9l-98.1,82.2Z" class="g2_273"/>
<path d="M179.6,287.2l-.3,-.4l.3,-.3l98.1,-82.2L276.3,86.4L173.9,161.2l-.4,-.4l-.3,-.5L277.4,84.2v.7l-.4,-.1l-.1,.5l-.1,.6h.1l1.4,118.7l-98.2,82.2l-.3,-.1l-.2,.5Z" class="g2_273"/>
<path d="M436,249.8L278.8,204.1L277.5,86l164.1,41.7L436,249.8Z" class="g3_273"/>
<path d="M278.3,204.6L276.9,85.9l.6,.1l1.3,118.1l-.4,-.1l-.1,.6Z" class="g4_273"/>
<path d="M437.1,251.3l-.4,-.1l.4,-.4v.5Zm0,-1.1l-1.1,-.4l5.6,-122.1L277.5,86l-.1,-1.1l165.4,41.9l-5.7,123.4Z" class="g3_273"/>
<path d="M277.5,86l-.7,-.1l.1,-.6l.1,-.5l.5,.1V86Z" class="g4_273"/>
<path d="M347.3,341.4L180.8,287l97.6,-81.8l157.1,45.6l-88.2,90.6Z" class="g5_273"/>
<path d="M180.8,287l-.7,-.2l98.2,-82.2l-.2,.5l.3,.1L180.8,287Z" class="g3_273"/>
<path d="M435.5,250.8L278.4,205.2l157.1,45.6Z" class="g4_273"/>
<path d="M347.6,342.7L179.5,287.8l.1,-.6l.4,.5l.8,-.7l166.5,54.4l88.2,-90.6l1.2,.4l-89.1,91.5Zm89.5,-91.9v-.6l.5,.1l-.5,.5Z" class="g5_273"/>
<path d="M180,287.7l-.4,-.5l.2,-.5l.3,.1l.7,.2l-.8,.7Z" class="g3_273"/>
<path d="M436,249.8L278.8,204.1L436,249.8Z" class="g4_273"/>
<path d="M436.7,251.2l-1.2,-.4L278.4,205.2l.4,-.4v-.7l158.3,46.1v.6l-.4,.4Z" class="g4_273"/>
<path d="M278.4,205.2l-.3,-.1l.2,-.5l.1,-.6l.4,.1v.7l-.4,.4Z" class="g6_273"/>
<path d="M179.1,287.5l168.6,55.1l.3,-.8L179.3,286.7l-.2,.8Z" class="g7_273"/>
<path d="M245.9,350.5l-2.3,3l2.4,3.1h-1.2L243,354.2l-1.8,2.4H240l2.4,-3.2l-2.2,-2.9h1.2l1.6,2.2l1.7,-2.2h1.2Z" class="g7_273"/>
<path d="M190.1,290.9l98.1,-83.2l.1,-.3L287.4,87.9h-.9l.9,119.3l-97.9,83l.6,.7Z" class="g8_273"/>
<path d="M218.3,300.1l96.6,-84.6l.1,-.4l.2,-120.2h-.9l-.2,120l-96.4,84.5l.6,.7Z" class="g8_273"/>
<path d="M247,309.5l95,-86.2l.2,-.3l1.4,-120.9h-.9l-1.4,120.7l-94.9,86l.6,.7Z" class="g8_273"/>
<path d="M276.3,319l93.4,-87.6l.1,-.3l2.6,-121.7h-.9l-2.6,121.4l-93.2,87.6l.6,.6Z" class="g8_273"/>
<path d="M306.1,328.8l91.7,-89.3l.1,-.3l3.8,-122.3l-.9,-.1L397,239l-91.5,89.1l.6,.7Z" class="g8_273"/>
<path d="M336.5,338.7l89.8,-90.9l.2,-.3l5.1,-123.1h-.9l-5.1,122.9l-89.7,90.8l.6,.6Z" class="g8_273"/>
<path d="M190.7,289.2l-3.3,2.8l.6,.6l3.3,-2.7l-.6,-.7Z" class="g7_273"/>
<path d="M176,308.4c.9,0,1.6,.4,2.1,1.1c.5,.7,.7,1.8,.7,3.1c0,1.4,-.2,2.5,-.7,3.2c-.5,.7,-1.2,1.1,-2.1,1.1c-.9,0,-1.6,-.4,-2.1,-1.1c-.5,-.7,-.7,-1.8,-.7,-3.2c0,-1.3,.2,-2.4,.7,-3.1c.5,-.7,1.2,-1.1,2.1,-1.1Zm0,.9c-.6,0,-1,.3,-1.3,.8c-.3,.6,-.4,1.4,-.4,2.5c0,1.2,.1,2,.4,2.6c.3,.5,.7,.8,1.3,.8c.6,0,1,-.3,1.3,-.8c.3,-.6,.4,-1.4,.4,-2.6c0,-1.1,-.1,-1.9,-.4,-2.5c-.3,-.5,-.7,-.8,-1.3,-.8Z" class="g7_273"/>
<path d="M180.8,316.7h1.1v-1.4h-1.1Z" class="g7_273"/>
<path d="M186.7,308.4c.9,0,1.6,.4,2.1,1.1c.5,.7,.7,1.8,.7,3.1c0,1.4,-.2,2.5,-.7,3.2c-.5,.7,-1.2,1.1,-2.1,1.1c-.9,0,-1.6,-.4,-2.1,-1.1c-.5,-.7,-.7,-1.8,-.7,-3.2c0,-1.3,.2,-2.4,.7,-3.1c.5,-.7,1.2,-1.1,2.1,-1.1Zm0,.9c-.6,0,-1,.3,-1.3,.8c-.3,.6,-.4,1.4,-.4,2.5c0,1.2,.1,2,.4,2.6c.3,.5,.7,.8,1.3,.8c.6,0,1,-.3,1.3,-.8c.3,-.6,.4,-1.4,.4,-2.6c0,-1.1,-.1,-1.9,-.4,-2.5c-.3,-.5,-.7,-.8,-1.3,-.8Z" class="g7_273"/>
<path d="M218.9,298.4l-3.2,2.8l.6,.7l3.2,-2.8l-.6,-.7Z" class="g7_273"/>
<path d="M204.2,317.8c.9,0,1.6,.4,2.1,1.1c.5,.7,.8,1.8,.8,3.2c0,1.3,-.3,2.4,-.8,3.1c-.5,.7,-1.2,1.1,-2.1,1.1c-.9,0,-1.6,-.4,-2.1,-1.1c-.5,-.7,-.7,-1.8,-.7,-3.1c0,-1.4,.2,-2.5,.7,-3.2c.5,-.7,1.2,-1.1,2.1,-1.1Zm0,.9c-.5,0,-1,.3,-1.3,.8c-.2,.6,-.4,1.4,-.4,2.6c0,1.1,.2,1.9,.4,2.5c.3,.5,.8,.8,1.3,.8c.6,0,1,-.3,1.3,-.8c.3,-.6,.4,-1.4,.4,-2.5c0,-1.2,-.1,-2,-.4,-2.6c-.3,-.5,-.7,-.8,-1.3,-.8Z" class="g7_273"/>
<path d="M209,326.1h1.2v-1.4H209Z" class="g7_273"/>
<path d="M213.5,325.2h3.9v.9h-5.2v-.9c.4,-.4,1,-1,1.7,-1.7c.7,-.8,1.2,-1.3,1.4,-1.5c.3,-.4,.6,-.7,.7,-1c.2,-.2,.2,-.5,.2,-.8c0,-.4,-.1,-.8,-.4,-1.1c-.3,-.2,-.7,-.4,-1.2,-.4c-.4,0,-.7,.1,-1.1,.2c-.4,.1,-.8,.3,-1.3,.6v-1.2c.5,-.1,.9,-.3,1.3,-.4c.4,0,.7,-.1,1.1,-.1c.8,0,1.5,.2,2,.6c.5,.5,.7,1,.7,1.7c0,.4,0,.7,-.1,1c-.2,.3,-.4,.7,-.7,1.1c-.1,.1,-.4,.4,-.9,.9c-.5,.5,-1.2,1.2,-2.1,2.1Z" class="g7_273"/>
<path d="M247.6,307.8l-3.2,2.8l.6,.7l3.2,-2.9l-.6,-.6Z" class="g7_273"/>
<path d="M233,327.4c.9,0,1.6,.4,2.1,1.1c.5,.7,.7,1.8,.7,3.1c0,1.4,-.2,2.5,-.7,3.2c-.5,.7,-1.2,1.1,-2.1,1.1c-.9,0,-1.6,-.4,-2.1,-1.1c-.5,-.7,-.7,-1.8,-.7,-3.2c0,-1.3,.2,-2.4,.7,-3.1c.5,-.7,1.2,-1.1,2.1,-1.1Zm0,.9c-.6,0,-1,.2,-1.3,.8c-.3,.6,-.4,1.4,-.4,2.5c0,1.2,.1,2,.4,2.6c.3,.5,.7,.8,1.3,.8c.6,0,1,-.3,1.3,-.8c.3,-.6,.4,-1.4,.4,-2.6c0,-1.1,-.1,-1.9,-.4,-2.5c-.3,-.6,-.7,-.8,-1.3,-.8Z" class="g7_273"/>
<path d="M237.8,335.7h1.1v-1.4h-1.1Z" class="g7_273"/>
<path d="M244.1,327.5h1.4v5.4h1.1v.9h-1.1v1.9h-1.1v-1.9h-3.7v-1.1l3.4,-5.2Zm.3,1l-2.8,4.4h2.8v-4.4Z" class="g7_273"/>
<path d="M276.8,317.3l-3.1,2.9l.7,.7l3.1,-2.9l-.7,-.7Z" class="g7_273"/>
<path d="M262.3,337.2c.9,0,1.6,.3,2.1,1c.5,.8,.7,1.8,.7,3.2c0,1.4,-.2,2.4,-.7,3.2c-.5,.7,-1.2,1,-2.1,1c-.9,0,-1.6,-.3,-2.1,-1c-.5,-.8,-.7,-1.8,-.7,-3.2c0,-1.4,.2,-2.4,.7,-3.2c.5,-.7,1.2,-1,2.1,-1Zm0,.8c-.6,0,-1,.3,-1.3,.9c-.3,.5,-.4,1.4,-.4,2.5c0,1.1,.1,2,.4,2.5c.3,.6,.7,.9,1.3,.9c.6,0,1,-.3,1.3,-.9c.3,-.5,.4,-1.4,.4,-2.5c0,-1.1,-.1,-2,-.4,-2.5c-.3,-.6,-.7,-.9,-1.3,-.9Z" class="g7_273"/>
<path d="M267.1,345.5h1.1v-1.4h-1.1Z" class="g7_273"/>
<path d="M275.3,337.5v1c-.2,-.1,-.5,-.2,-.8,-.3c-.3,-.1,-.6,-.1,-.8,-.1c-.8,0,-1.3,.2,-1.7,.7c-.4,.5,-.6,1.3,-.7,2.3c.2,-.4,.5,-.6,.8,-.8c.4,-.1,.7,-.2,1.1,-.2c.8,0,1.5,.2,2,.7c.4,.5,.7,1.2,.7,2.1c0,.8,-.3,1.5,-.8,2c-.5,.5,-1.1,.7,-2,.7c-.9,0,-1.6,-.3,-2.1,-1c-.5,-.8,-.8,-1.8,-.8,-3.2c0,-1.3,.3,-2.3,.9,-3.1c.7,-.8,1.5,-1.1,2.5,-1.1c.3,0,.6,0,.9,0c.2,.1,.5,.2,.8,.3Zm-2.2,3.5c-.5,0,-.9,.1,-1.1,.5c-.3,.3,-.5,.8,-.5,1.4c0,.5,.2,1,.5,1.4c.2,.3,.6,.5,1.1,.5c.5,0,.9,-.2,1.2,-.5c.3,-.4,.5,-.9,.5,-1.4c0,-.6,-.2,-1.1,-.5,-1.4c-.3,-.4,-.7,-.5,-1.2,-.5Z" class="g7_273"/>
<path d="M306.6,327l-3,3l.6,.7l3.1,-3l-.7,-.7Z" class="g7_273"/>
<path d="M292.1,347.1c1,0,1.7,.4,2.1,1.1c.5,.7,.8,1.8,.8,3.1c0,1.4,-.3,2.5,-.8,3.2c-.4,.7,-1.1,1.1,-2.1,1.1c-.9,0,-1.6,-.4,-2.1,-1.1c-.4,-.7,-.7,-1.8,-.7,-3.2c0,-1.3,.3,-2.4,.7,-3.1c.5,-.7,1.2,-1.1,2.1,-1.1Zm0,.9c-.5,0,-1,.3,-1.2,.8c-.3,.6,-.5,1.4,-.5,2.5c0,1.2,.2,2,.5,2.6c.2,.5,.7,.8,1.2,.8c.6,0,1,-.3,1.3,-.8c.3,-.6,.5,-1.4,.5,-2.6c0,-1.1,-.2,-1.9,-.5,-2.5c-.3,-.5,-.7,-.8,-1.3,-.8Z" class="g7_273"/>
<path d="M296.9,355.4h1.2V354h-1.2Z" class="g7_273"/>
<path d="M301.3,349.3c0,.4,.2,.8,.4,1c.3,.3,.7,.4,1.1,.4c.5,0,.9,-.1,1.2,-.4c.2,-.2,.4,-.6,.4,-1c0,-.4,-.2,-.7,-.4,-1c-.3,-.2,-.7,-.3,-1.2,-.3c-.4,0,-.8,.1,-1.1,.3c-.2,.3,-.4,.6,-.4,1Zm.4,1.8c-.4,-.1,-.8,-.4,-1.1,-.7c-.2,-.3,-.4,-.7,-.4,-1.2c0,-.6,.3,-1.2,.7,-1.5c.5,-.4,1.1,-.6,1.9,-.6c.9,0,1.5,.2,2,.6c.4,.3,.7,.9,.7,1.5c0,.5,-.2,.9,-.4,1.2c-.3,.3,-.7,.6,-1.1,.7c.5,.1,.9,.3,1.2,.7c.3,.4,.5,.8,.5,1.3c0,.8,-.3,1.4,-.8,1.9c-.5,.4,-1.1,.6,-2.1,.6c-.9,0,-1.5,-.2,-2,-.6c-.5,-.5,-.8,-1.1,-.8,-1.9c0,-.5,.2,-.9,.5,-1.3c.3,-.4,.7,-.6,1.2,-.7Zm1.1,.4c-.5,0,-.9,.2,-1.2,.5c-.3,.2,-.4,.6,-.4,1.1c0,.5,.1,.9,.4,1.2c.3,.3,.7,.4,1.2,.4c.6,0,1,-.1,1.3,-.4c.3,-.3,.5,-.7,.5,-1.2c0,-.5,-.2,-.9,-.5,-1.1c-.3,-.3,-.7,-.5,-1.3,-.5Z" class="g7_273"/>
<path d="M337,337l-3,3l.6,.6l3,-3L337,337Z" class="g7_273"/>
<path d="M320.4,364.6h1.8v-6.2l-2,.4v-1l2,-.4h1.1v7.2h1.8v1h-4.7v-1Z" class="g7_273"/>
<path d="M327.3,365.6h1.2v-1.4h-1.2Z" class="g7_273"/>
<path d="M333.3,357.2c.9,0,1.6,.4,2.1,1.1c.4,.7,.7,1.8,.7,3.2c0,1.4,-.3,2.4,-.7,3.1c-.5,.8,-1.2,1.1,-2.1,1.1c-1,0,-1.7,-.3,-2.1,-1.1c-.5,-.7,-.8,-1.7,-.8,-3.1c0,-1.4,.3,-2.5,.8,-3.2c.4,-.7,1.1,-1.1,2.1,-1.1Zm0,.9c-.6,0,-1,.3,-1.3,.8c-.3,.6,-.5,1.5,-.5,2.6c0,1.1,.2,1.9,.5,2.5c.3,.6,.7,.8,1.3,.8c.5,0,1,-.2,1.3,-.8c.2,-.6,.4,-1.4,.4,-2.5c0,-1.1,-.2,-2,-.4,-2.6c-.3,-.5,-.8,-.8,-1.3,-.8Z" class="g7_273"/>
<path d="M436.5,249.9l-89.7,92.2l.6,.6l89.8,-92.1l-.7,-.7Z" class="g7_273"/>
<path d="M424.5,329.4c-.3,.7,-.5,1.2,-.8,1.4c-.3,.2,-.6,.3,-1.1,.3h-.8v-.8h.6c.3,0,.5,-.1,.6,-.2c.2,-.1,.4,-.5,.6,-.9l.1,-.5l-2.4,-6h1l1.9,4.8l2,-4.8h1l-2.7,6.7Z" class="g7_273"/>
<path d="M180.2,155.6l5.8,126c0,.2,.1,.3,.3,.4l167.1,54.1l.3,-.8L186.9,281.2L181.1,155.5l-.9,.1Z" class="g8_273"/>
<path d="M199.4,141.6l4.8,124.7c0,.2,.2,.3,.3,.4L370,319.2l.3,-.9L205.1,265.9L200.3,141.5l-.9,.1Z" class="g8_273"/>
<path d="M218,128l3.9,123.4c0,.2,.2,.4,.4,.4L386,302.7l.3,-.8L222.8,251.1L218.9,128H218Z" class="g8_273"/>
<path d="M236,114.9L239.1,237c0,.2,.2,.4,.3,.4l162.1,49.4l.3,-.9L240,236.7L236.9,114.8l-.9,.1Z" class="g8_273"/>
<path d="M253.5,102.1L255.8,223c0,.2,.1,.4,.3,.4l160.5,47.9l.3,-.8L256.7,222.7L254.4,102.1h-.9Z" class="g8_273"/>
<path d="M270.4,89.7L272,209.4c0,.2,.2,.4,.3,.5l158.9,46.5l.3,-.9L272.9,209.1L271.3,89.7h-.9Z" class="g8_273"/>
<path d="M351.6,335.5l5.1,1.7l.3,-.9l-5.1,-1.6l-.3,.8Z" class="g7_273"/>
<path d="M362.7,351c.9,0,1.6,.3,2.1,1.1c.5,.7,.7,1.7,.7,3.1c0,1.4,-.2,2.5,-.7,3.2c-.5,.7,-1.2,1.1,-2.1,1.1c-.9,0,-1.6,-.4,-2.1,-1.1c-.5,-.7,-.8,-1.8,-.8,-3.2c0,-1.4,.3,-2.4,.8,-3.1c.5,-.8,1.2,-1.1,2.1,-1.1Zm0,.9c-.6,0,-1,.2,-1.3,.8c-.3,.6,-.4,1.4,-.4,2.5c0,1.1,.1,2,.4,2.5c.3,.6,.7,.9,1.3,.9c.6,0,1,-.3,1.3,-.9c.3,-.5,.4,-1.4,.4,-2.5c0,-1.1,-.1,-1.9,-.4,-2.5c-.3,-.6,-.7,-.8,-1.3,-.8Z" class="g7_273"/>
<path d="M367.5,359.3h1.1v-1.4h-1.1Z" class="g7_273"/>
<path d="M373.4,351c.9,0,1.6,.3,2.1,1.1c.5,.7,.7,1.7,.7,3.1c0,1.4,-.2,2.5,-.7,3.2c-.5,.7,-1.2,1.1,-2.1,1.1c-.9,0,-1.6,-.4,-2.1,-1.1c-.5,-.7,-.7,-1.8,-.7,-3.2c0,-1.4,.2,-2.4,.7,-3.1c.5,-.8,1.2,-1.1,2.1,-1.1Zm0,.9c-.6,0,-1,.2,-1.3,.8c-.3,.6,-.4,1.4,-.4,2.5c0,1.1,.1,2,.4,2.5c.3,.6,.7,.9,1.3,.9c.6,0,1,-.3,1.3,-.9c.3,-.5,.4,-1.4,.4,-2.5c0,-1.1,-.1,-1.9,-.4,-2.5c-.3,-.6,-.7,-.8,-1.3,-.8Z" class="g7_273"/>
<path d="M368.2,318.6l5,1.6l.3,-.9l-5.1,-1.6l-.2,.9Z" class="g7_273"/>
<path d="M379,333.7c.9,0,1.6,.4,2.1,1.1c.5,.8,.7,1.8,.7,3.2c0,1.4,-.2,2.4,-.7,3.1c-.5,.8,-1.2,1.1,-2.1,1.1c-.9,0,-1.6,-.3,-2.1,-1.1c-.5,-.7,-.7,-1.7,-.7,-3.1c0,-1.4,.2,-2.4,.7,-3.2c.5,-.7,1.2,-1.1,2.1,-1.1Zm0,.9c-.6,0,-1,.3,-1.3,.9c-.3,.5,-.4,1.4,-.4,2.5c0,1.1,.1,2,.4,2.5c.3,.6,.7,.9,1.3,.9c.6,0,1,-.3,1.3,-.9c.3,-.5,.4,-1.4,.4,-2.5c0,-1.1,-.1,-2,-.4,-2.5c-.3,-.6,-.7,-.9,-1.3,-.9Z" class="g7_273"/>
<path d="M383.8,342.1h1.1v-1.4h-1.1Z" class="g7_273"/>
<path d="M388.3,341.1h3.9v1H387v-1c.4,-.4,1,-1,1.7,-1.7c.7,-.7,1.2,-1.2,1.4,-1.4c.3,-.4,.6,-.8,.7,-1c.1,-.3,.2,-.6,.2,-.8c0,-.5,-.1,-.8,-.5,-1.1c-.3,-.3,-.7,-.4,-1.1,-.4c-.4,0,-.8,0,-1.1,.2c-.4,.1,-.8,.3,-1.3,.5v-1.1c.5,-.2,.9,-.3,1.3,-.4c.4,-.1,.7,-.2,1,-.2c.9,0,1.6,.3,2.1,.7c.5,.4,.7,1,.7,1.7c0,.3,0,.6,-.2,.9c-.1,.3,-.3,.7,-.7,1.1c-.1,.1,-.3,.4,-.8,.9c-.5,.5,-1.2,1.2,-2.1,2.1Z" class="g7_273"/>
<path d="M384.2,302.2l5,1.5l.3,-.9l-5,-1.5l-.3,.9Z" class="g7_273"/>
<path d="M394.8,317.1c.9,0,1.6,.3,2.1,1c.5,.8,.7,1.8,.7,3.2c0,1.4,-.2,2.4,-.7,3.2c-.5,.7,-1.2,1,-2.1,1c-.9,0,-1.6,-.3,-2.1,-1c-.5,-.8,-.7,-1.8,-.7,-3.2c0,-1.4,.2,-2.4,.7,-3.2c.5,-.7,1.2,-1,2.1,-1Zm0,.8c-.6,0,-1,.3,-1.3,.9c-.3,.5,-.4,1.4,-.4,2.5c0,1.1,.1,2,.4,2.5c.3,.6,.7,.9,1.3,.9c.6,0,1,-.3,1.3,-.9c.3,-.5,.4,-1.4,.4,-2.5c0,-1.1,-.1,-2,-.4,-2.5c-.3,-.6,-.7,-.9,-1.3,-.9Z" class="g7_273"/>
<path d="M399.6,325.4h1.1V324h-1.1Z" class="g7_273"/>
<path d="M405.9,317.2h1.4v5.3h1.2v1h-1.2v1.9h-1.1v-1.9h-3.7v-1.1l3.4,-5.2Zm.3,1l-2.8,4.3h2.8v-4.3Z" class="g7_273"/>
<path d="M399.8,286.2l4.9,1.5l.3,-.8l-5,-1.5l-.2,.8Z" class="g7_273"/>
<path d="M410.1,300.9c.9,0,1.6,.4,2.1,1.1c.5,.7,.8,1.8,.8,3.1c0,1.4,-.3,2.5,-.8,3.2c-.5,.7,-1.2,1.1,-2.1,1.1c-.9,0,-1.6,-.4,-2.1,-1.1c-.5,-.7,-.7,-1.8,-.7,-3.2c0,-1.3,.2,-2.4,.7,-3.1c.5,-.7,1.2,-1.1,2.1,-1.1Zm0,.9c-.5,0,-1,.2,-1.3,.8c-.2,.6,-.4,1.4,-.4,2.5c0,1.2,.2,2,.4,2.6c.3,.5,.8,.8,1.3,.8c.6,0,1,-.3,1.3,-.8c.3,-.6,.5,-1.4,.5,-2.6c0,-1.1,-.2,-1.9,-.5,-2.5c-.3,-.6,-.7,-.8,-1.3,-.8Z" class="g7_273"/>
<path d="M414.9,309.2h1.2v-1.4h-1.2Z" class="g7_273"/>
<path d="M423.2,301.2v1c-.3,-.1,-.6,-.2,-.9,-.3c-.3,0,-.5,-.1,-.8,-.1c-.7,0,-1.3,.3,-1.7,.8c-.4,.5,-.6,1.2,-.6,2.2c.2,-.3,.4,-.6,.8,-.7c.3,-.2,.7,-.3,1,-.3c.9,0,1.5,.3,2,.8c.5,.5,.7,1.1,.7,2c0,.8,-.2,1.5,-.7,2c-.5,.5,-1.2,.8,-2,.8c-1,0,-1.7,-.4,-2.2,-1.1c-.5,-.7,-.7,-1.8,-.7,-3.2c0,-1.3,.3,-2.3,.9,-3.1c.6,-.7,1.4,-1.1,2.4,-1.1c.3,0,.6,0,.9,.1c.3,0,.6,.1,.9,.2Zm-2.2,3.5c-.5,0,-.9,.2,-1.2,.5c-.3,.3,-.4,.8,-.4,1.4c0,.6,.1,1,.4,1.4c.3,.3,.7,.5,1.2,.5c.5,0,.9,-.2,1.2,-.5c.2,-.4,.4,-.8,.4,-1.4c0,-.6,-.2,-1.1,-.4,-1.4c-.3,-.3,-.7,-.5,-1.2,-.5Z" class="g7_273"/>
<path d="M414.8,270.8l4.9,1.5l.3,-.9l-4.9,-1.5l-.3,.9Z" class="g7_273"/>
<path d="M425,285.2c.9,0,1.6,.4,2.1,1.1c.5,.7,.7,1.8,.7,3.2c0,1.3,-.2,2.4,-.7,3.1c-.5,.7,-1.2,1.1,-2.1,1.1c-.9,0,-1.6,-.4,-2.1,-1.1c-.5,-.7,-.7,-1.8,-.7,-3.1c0,-1.4,.2,-2.5,.7,-3.2c.5,-.7,1.2,-1.1,2.1,-1.1Zm0,.9c-.6,0,-1,.3,-1.3,.8c-.3,.6,-.4,1.4,-.4,2.6c0,1.1,.1,1.9,.4,2.5c.3,.5,.7,.8,1.3,.8c.6,0,1,-.3,1.3,-.8c.3,-.6,.4,-1.4,.4,-2.5c0,-1.2,-.1,-2,-.4,-2.6c-.3,-.5,-.7,-.8,-1.3,-.8Z" class="g7_273"/>
<path d="M429.8,293.5h1.1v-1.4h-1.1Z" class="g7_273"/>
<path d="M434.2,287.4c0,.5,.1,.8,.4,1c.2,.3,.6,.4,1.1,.4c.5,0,.8,-.1,1.1,-.4c.3,-.2,.4,-.5,.4,-1c0,-.4,-.1,-.7,-.4,-1c-.3,-.2,-.6,-.3,-1.1,-.3c-.5,0,-.9,.1,-1.1,.3c-.3,.3,-.4,.6,-.4,1Zm.4,1.8c-.5,-.1,-.9,-.4,-1.1,-.7c-.3,-.3,-.4,-.7,-.4,-1.2c0,-.6,.2,-1.1,.7,-1.5c.4,-.4,1.1,-.6,1.9,-.6c.8,0,1.4,.2,1.9,.6c.5,.4,.7,.9,.7,1.5c0,.5,-.1,.9,-.4,1.2c-.3,.3,-.6,.6,-1.1,.7c.5,.1,.9,.4,1.2,.7c.3,.4,.5,.8,.5,1.3c0,.8,-.2,1.4,-.7,1.9c-.5,.4,-1.2,.6,-2.1,.6c-.9,0,-1.6,-.2,-2.1,-.6c-.5,-.5,-.7,-1.1,-.7,-1.9c0,-.5,.1,-.9,.4,-1.3c.3,-.3,.7,-.6,1.3,-.7Zm1.1,.5c-.5,0,-1,.1,-1.3,.4c-.3,.3,-.4,.6,-.4,1.1c0,.5,.1,.9,.4,1.2c.3,.3,.8,.4,1.3,.4c.5,0,.9,-.1,1.2,-.4c.3,-.3,.5,-.7,.5,-1.2c0,-.5,-.2,-.8,-.5,-1.1c-.3,-.3,-.7,-.4,-1.2,-.4Z" class="g7_273"/>
<path d="M429.4,255.8l4.9,1.5l.3,-.9L429.7,255l-.3,.8Z" class="g7_273"/>
<path d="M437.2,277.4H439v-6.2l-2,.4v-1.1l2,-.3h1.1v7.2h1.8v.9h-4.7v-.9Z" class="g7_273"/>
<path d="M444.2,278.3h1.1v-1.4h-1.1Z" class="g7_273"/>
<path d="M450.1,270c.9,0,1.6,.4,2.1,1.1c.5,.7,.7,1.8,.7,3.2c0,1.3,-.2,2.4,-.7,3.1c-.5,.7,-1.2,1.1,-2.1,1.1c-.9,0,-1.6,-.4,-2.1,-1.1c-.5,-.7,-.7,-1.8,-.7,-3.1c0,-1.4,.2,-2.5,.7,-3.2c.5,-.7,1.2,-1.1,2.1,-1.1Zm0,.9c-.6,0,-1,.3,-1.3,.8c-.3,.6,-.4,1.4,-.4,2.6c0,1.1,.1,1.9,.4,2.5c.3,.5,.7,.8,1.3,.8c.6,0,1,-.3,1.3,-.8c.3,-.6,.4,-1.4,.4,-2.5c0,-1.2,-.1,-2,-.4,-2.6c-.3,-.5,-.7,-.8,-1.3,-.8Z" class="g7_273"/>
<path d="M437,251l5.7,-124.2h-.9L436.1,251h.9Z" class="g7_273"/>
<path d="M482.3,181.1h4.8v1l-3.8,4.4h3.8v.8h-4.9v-.9l3.8,-4.5h-3.7v-.8Z" class="g7_273"/>
<path d="M436.8,247.8l-158.4,-46c-.2,0,-.3,0,-.4,.1l-98.8,82.6l.6,.7l98.5,-82.4l158.2,45.8l.3,-.8Z" class="g8_273"/>
<path d="M437.5,231.5L278.2,186c-.2,0,-.3,0,-.4,.1l-99.4,81.7l.6,.7L278.2,187l159.1,45.3l.2,-.8Z" class="g8_273"/>
<path d="M438.3,215L278,170.1c-.1,-.1,-.3,0,-.4,.1l-100,80.7l.6,.7L278,171l160,44.8l.3,-.8Z" class="g8_273"/>
<path d="M439,198.2L277.8,153.9l-.4,.1L176.8,233.7l.5,.7L277.8,154.8l161,44.3l.2,-.9Z" class="g8_273"/>
<path d="M439.8,181.3L277.6,137.6h-.4L176,216.4l.5,.7L277.6,138.5l162,43.7l.2,-.9Z" class="g8_273"/>
<path d="M440.6,164.2L277.4,121l-.4,.1L175.1,198.8l.6,.7L277.4,121.9l163,43.2l.2,-.9Z" class="g8_273"/>
<path d="M441.4,146.9L277.2,104.3l-.4,.1L174.3,181l.5,.8L277.2,105.2l164,42.6l.2,-.9Z" class="g8_273"/>
<path d="M442.2,129.4L277,87.4h-.3L173.4,163l.5,.8L277,88.3l165,41.9l.2,-.8Z" class="g8_273"/>
<path d="M434.8,248.1l4.8,1.4l.3,-.8L435,247.3l-.2,.8Z" class="g7_273"/>
<path d="M451.8,245.5c.9,0,1.6,.3,2.1,1.1c.5,.7,.7,1.8,.7,3.1c0,1.4,-.2,2.5,-.7,3.2c-.5,.7,-1.2,1.1,-2.1,1.1c-.9,0,-1.6,-.4,-2.1,-1.1c-.5,-.7,-.7,-1.8,-.7,-3.2c0,-1.3,.2,-2.4,.7,-3.1c.5,-.8,1.2,-1.1,2.1,-1.1Zm0,.9c-.6,0,-1,.2,-1.3,.8c-.3,.6,-.4,1.4,-.4,2.5c0,1.2,.1,2,.4,2.6c.3,.5,.7,.8,1.3,.8c.6,0,1,-.3,1.3,-.8c.3,-.6,.4,-1.4,.4,-2.6c0,-1.1,-.1,-1.9,-.4,-2.5c-.3,-.6,-.7,-.8,-1.3,-.8Z" class="g7_273"/>
<path d="M456.6,253.8h1.1v-1.4h-1.1Z" class="g7_273"/>
<path d="M463.5,249.4c.5,.1,.9,.4,1.2,.7c.3,.4,.5,.8,.5,1.3c0,.8,-.3,1.5,-.9,1.9c-.5,.5,-1.3,.7,-2.3,.7c-.4,0,-.7,-.1,-1.1,-.1c-.3,-.1,-.7,-.2,-1.1,-.3v-1.1c.3,.2,.6,.3,1,.4c.4,.1,.7,.1,1.1,.1c.7,0,1.3,-.1,1.6,-.4c.4,-.2,.6,-.6,.6,-1.2c0,-.4,-.2,-.8,-.5,-1.1c-.4,-.3,-.8,-.4,-1.4,-.4h-1V249h1c.5,0,1,-.1,1.2,-.3c.3,-.3,.5,-.6,.5,-1c0,-.4,-.2,-.7,-.5,-.9c-.3,-.3,-.7,-.4,-1.2,-.4c-.3,0,-.7,.1,-1,.1c-.4,.1,-.7,.2,-1.2,.3v-1c.5,-.1,.9,-.2,1.2,-.2c.4,-.1,.7,-.1,1.1,-.1c.8,0,1.5,.2,1.9,.6c.5,.3,.8,.9,.8,1.5c0,.5,-.1,.8,-.4,1.2c-.3,.3,-.6,.5,-1.1,.6Z" class="g7_273"/>
<path d="M435.5,231.8l4.9,1.4l.2,-.9L435.8,231l-.3,.8Z" class="g7_273"/>
<path d="M452.7,229.2c.9,0,1.6,.4,2.1,1.1c.4,.7,.7,1.8,.7,3.2c0,1.3,-.3,2.4,-.7,3.1c-.5,.7,-1.2,1.1,-2.1,1.1c-1,0,-1.7,-.4,-2.1,-1.1c-.5,-.7,-.8,-1.8,-.8,-3.1c0,-1.4,.3,-2.5,.8,-3.2c.4,-.7,1.1,-1.1,2.1,-1.1Zm0,.9c-.6,0,-1,.3,-1.3,.8c-.3,.6,-.5,1.4,-.5,2.6c0,1.1,.2,1.9,.5,2.5c.3,.5,.7,.8,1.3,.8c.5,0,1,-.3,1.2,-.8c.3,-.6,.5,-1.4,.5,-2.5c0,-1.2,-.2,-2,-.5,-2.6c-.2,-.5,-.7,-.8,-1.2,-.8Z" class="g7_273"/>
<path d="M457.4,237.5h1.2v-1.4h-1.2Z" class="g7_273"/>
<path d="M463.8,229.3h1.3v5.4h1.2v.9h-1.2v1.9H464v-1.9h-3.7v-1.1l3.5,-5.2Zm.2,1l-2.8,4.4H464v-4.4Z" class="g7_273"/>
<path d="M436.3,215.3l4.9,1.4l.2,-.9l-4.9,-1.3l-.2,.8Z" class="g7_273"/>
<path d="M453.5,212.7c1,0,1.7,.4,2.1,1.1c.5,.7,.8,1.8,.8,3.2c0,1.3,-.3,2.4,-.8,3.1c-.4,.8,-1.1,1.1,-2.1,1.1c-.9,0,-1.6,-.3,-2.1,-1.1c-.5,-.7,-.7,-1.8,-.7,-3.1c0,-1.4,.2,-2.5,.7,-3.2c.5,-.7,1.2,-1.1,2.1,-1.1Zm0,.9c-.5,0,-1,.3,-1.3,.8c-.2,.6,-.4,1.4,-.4,2.6c0,1.1,.2,1.9,.4,2.5c.3,.6,.8,.8,1.3,.8c.6,0,1,-.2,1.3,-.8c.3,-.6,.5,-1.4,.5,-2.5c0,-1.2,-.2,-2,-.5,-2.6c-.3,-.5,-.7,-.8,-1.3,-.8Z" class="g7_273"/>
<path d="M458.3,221.1h1.2v-1.4h-1.2Z" class="g7_273"/>
<path d="M461.9,212.9h4.3v.9h-3.3v2c.2,0,.3,-.1,.5,-.1c.1,0,.3,-.1,.5,-.1c.9,0,1.6,.3,2.1,.8c.6,.5,.8,1.2,.8,2c0,.9,-.2,1.6,-.8,2.1c-.5,.5,-1.3,.7,-2.3,.7c-.3,0,-.7,0,-1.1,-.1c-.3,0,-.7,-.1,-1.1,-.2v-1.1c.4,.1,.7,.3,1.1,.4c.3,0,.7,.1,1.1,.1c.6,0,1.1,-.2,1.5,-.5c.3,-.3,.5,-.8,.5,-1.4c0,-.5,-.2,-1,-.5,-1.3c-.4,-.4,-.9,-.5,-1.5,-.5c-.3,0,-.6,0,-.9,.1c-.3,0,-.6,.1,-.9,.3v-4.1Z" class="g7_273"/>
<path d="M437,198.6l4.9,1.4l.3,-.9l-4.9,-1.3l-.3,.8Z" class="g7_273"/>
<path d="M454.4,196.1c.9,0,1.6,.3,2.1,1c.5,.8,.7,1.8,.7,3.2c0,1.4,-.2,2.4,-.7,3.2c-.5,.7,-1.2,1,-2.1,1c-.9,0,-1.6,-.3,-2.1,-1c-.5,-.8,-.7,-1.8,-.7,-3.2c0,-1.4,.2,-2.4,.7,-3.2c.5,-.7,1.2,-1,2.1,-1Zm0,.8c-.5,0,-1,.3,-1.3,.9c-.3,.5,-.4,1.4,-.4,2.5c0,1.1,.1,2,.4,2.5c.3,.6,.8,.9,1.3,.9c.6,0,1,-.3,1.3,-.9c.3,-.5,.4,-1.4,.4,-2.5c0,-1.1,-.1,-2,-.4,-2.5c-.3,-.6,-.7,-.9,-1.3,-.9Z" class="g7_273"/>
<path d="M459.2,204.4h1.2V203h-1.2Z" class="g7_273"/>
<path d="M467.5,196.4v1c-.3,-.1,-.6,-.2,-.9,-.3c-.3,-.1,-.5,-.1,-.8,-.1c-.7,0,-1.3,.2,-1.7,.7c-.4,.5,-.6,1.3,-.7,2.3c.3,-.4,.5,-.6,.9,-.8c.3,-.1,.6,-.2,1,-.2c.9,0,1.5,.2,2,.7c.5,.5,.7,1.2,.7,2.1c0,.8,-.3,1.5,-.7,2c-.5,.5,-1.2,.7,-2,.7c-1,0,-1.7,-.3,-2.2,-1c-.5,-.8,-.8,-1.8,-.8,-3.2c0,-1.3,.4,-2.3,1,-3.1c.6,-.8,1.4,-1.1,2.4,-1.1c.3,0,.6,0,.9,0c.3,.1,.6,.2,.9,.3Zm-2.2,3.5c-.5,0,-.9,.1,-1.2,.5c-.3,.3,-.4,.8,-.4,1.4c0,.5,.1,1,.4,1.4c.3,.3,.7,.5,1.2,.5c.5,0,.9,-.2,1.1,-.5c.3,-.4,.5,-.9,.5,-1.4c0,-.6,-.2,-1.1,-.5,-1.4c-.2,-.4,-.6,-.5,-1.1,-.5Z" class="g7_273"/>
<path d="M437.8,181.7l4.9,1.4l.3,-.9l-5,-1.3l-.2,.8Z" class="g7_273"/>
<path d="M455.3,179.2c.9,0,1.6,.3,2.1,1.1c.5,.7,.7,1.7,.7,3.1c0,1.4,-.2,2.5,-.7,3.2c-.5,.7,-1.2,1.1,-2.1,1.1c-.9,0,-1.6,-.4,-2.1,-1.1c-.5,-.7,-.7,-1.8,-.7,-3.2c0,-1.4,.2,-2.4,.7,-3.1c.5,-.8,1.2,-1.1,2.1,-1.1Zm0,.9c-.6,0,-1,.2,-1.3,.8c-.3,.6,-.4,1.4,-.4,2.5c0,1.2,.1,2,.4,2.6c.3,.5,.7,.8,1.3,.8c.6,0,1,-.3,1.3,-.8c.3,-.6,.4,-1.4,.4,-2.6c0,-1.1,-.1,-1.9,-.4,-2.5c-.3,-.6,-.7,-.8,-1.3,-.8Z" class="g7_273"/>
<path d="M460.1,187.5h1.1v-1.4h-1.1Z" class="g7_273"/>
<path d="M463.4,179.3h5.2v.5l-2.9,7.7h-1.2l2.8,-7.2h-3.9v-1Z" class="g7_273"/>
<path d="M438.6,164.6l4.9,1.3l.3,-.8l-5,-1.4l-.2,.9Z" class="g7_273"/>
<path d="M456.2,162.1c.9,0,1.6,.4,2.1,1.1c.5,.7,.8,1.8,.8,3.2c0,1.3,-.3,2.4,-.8,3.1c-.5,.7,-1.2,1.1,-2.1,1.1c-.9,0,-1.6,-.4,-2.1,-1.1c-.5,-.7,-.7,-1.8,-.7,-3.1c0,-1.4,.2,-2.5,.7,-3.2c.5,-.7,1.2,-1.1,2.1,-1.1Zm0,.9c-.5,0,-1,.3,-1.3,.8c-.2,.6,-.4,1.4,-.4,2.6c0,1.1,.2,1.9,.4,2.5c.3,.5,.8,.8,1.3,.8c.6,0,1,-.3,1.3,-.8c.3,-.6,.4,-1.4,.4,-2.5c0,-1.2,-.1,-2,-.4,-2.6c-.3,-.5,-.7,-.8,-1.3,-.8Z" class="g7_273"/>
<path d="M461,170.4h1.2V169H461Z" class="g7_273"/>
<path d="M465.4,164.3c0,.5,.2,.8,.4,1c.3,.3,.7,.4,1.1,.4c.5,0,.9,-.1,1.1,-.4c.3,-.2,.5,-.5,.5,-1c0,-.4,-.2,-.7,-.5,-1c-.2,-.2,-.6,-.3,-1.1,-.3c-.4,0,-.8,.1,-1.1,.3c-.2,.3,-.4,.6,-.4,1Zm.4,1.8c-.4,-.1,-.8,-.4,-1.1,-.7c-.2,-.3,-.4,-.7,-.4,-1.2c0,-.6,.3,-1.1,.7,-1.5c.5,-.4,1.1,-.6,1.9,-.6c.8,0,1.5,.2,2,.6c.4,.4,.6,.9,.6,1.5c0,.5,-.1,.9,-.3,1.2c-.3,.3,-.7,.6,-1.2,.7c.6,.1,1,.3,1.3,.7c.3,.4,.4,.8,.4,1.3c0,.8,-.2,1.4,-.7,1.9c-.5,.4,-1.2,.6,-2.1,.6c-.9,0,-1.6,-.2,-2,-.6c-.5,-.5,-.8,-1.1,-.8,-1.9c0,-.5,.2,-.9,.5,-1.3c.3,-.4,.7,-.6,1.2,-.7Zm1.1,.4c-.5,0,-.9,.2,-1.2,.5c-.3,.3,-.5,.6,-.5,1.1c0,.5,.2,.9,.5,1.2c.3,.3,.7,.4,1.2,.4c.6,0,1,-.1,1.3,-.4c.3,-.3,.4,-.7,.4,-1.2c0,-.5,-.1,-.8,-.4,-1.1c-.3,-.3,-.7,-.5,-1.3,-.5Z" class="g7_273"/>
<path d="M439.3,147.3l5.1,1.3l.2,-.9l-5,-1.3l-.3,.9Z" class="g7_273"/>
<path d="M457.1,144.8c1,0,1.7,.4,2.1,1.1c.5,.7,.8,1.8,.8,3.2c0,1.3,-.3,2.4,-.8,3.1c-.4,.7,-1.1,1.1,-2.1,1.1c-.9,0,-1.6,-.4,-2.1,-1.1c-.4,-.7,-.7,-1.8,-.7,-3.1c0,-1.4,.3,-2.5,.7,-3.2c.5,-.7,1.2,-1.1,2.1,-1.1Zm0,.9c-.5,0,-1,.3,-1.2,.8c-.3,.6,-.5,1.4,-.5,2.6c0,1.1,.2,1.9,.5,2.5c.2,.6,.7,.8,1.2,.8c.6,0,1,-.2,1.3,-.8c.3,-.6,.5,-1.4,.5,-2.5c0,-1.2,-.2,-2,-.5,-2.6c-.3,-.5,-.7,-.8,-1.3,-.8Z" class="g7_273"/>
<path d="M461.9,153.2h1.2v-1.4h-1.2Z" class="g7_273"/>
<path d="M467.7,149.5c.5,0,.9,-.2,1.2,-.5c.3,-.3,.4,-.8,.4,-1.4c0,-.6,-.1,-1,-.4,-1.4c-.3,-.3,-.7,-.5,-1.2,-.5c-.5,0,-.9,.2,-1.2,.5c-.2,.4,-.4,.8,-.4,1.4c0,.6,.2,1.1,.4,1.4c.3,.3,.7,.5,1.2,.5Zm-2.2,3.5v-1c.3,.1,.6,.2,.9,.3c.2,0,.5,.1,.8,.1c.7,0,1.3,-.3,1.7,-.8c.4,-.5,.6,-1.2,.6,-2.2c-.2,.3,-.4,.6,-.8,.7c-.3,.2,-.7,.3,-1,.3c-.9,0,-1.5,-.3,-2,-.8c-.5,-.5,-.7,-1.1,-.7,-2c0,-.8,.2,-1.5,.7,-2c.5,-.5,1.2,-.8,2,-.8c1,0,1.7,.4,2.2,1.1c.5,.7,.7,1.8,.7,3.2c0,1.3,-.3,2.3,-.9,3.1c-.6,.7,-1.4,1.1,-2.4,1.1c-.3,0,-.6,0,-.9,-.1c-.3,0,-.6,-.1,-.9,-.2Z" class="g7_273"/>
<path d="M440.1,129.8l5.1,1.3l.2,-.9l-5,-1.3l-.3,.9Z" class="g7_273"/>
<path d="M455.9,134.7h1.8v-6.2l-2,.4v-1l2,-.4h1.1v7.2h1.8v1h-4.7v-1Z" class="g7_273"/>
<path d="M462.8,135.7H464v-1.4h-1.2Z" class="g7_273"/>
<path d="M468.8,127.3c.9,0,1.6,.4,2.1,1.1c.5,.7,.7,1.8,.7,3.2c0,1.3,-.2,2.4,-.7,3.1c-.5,.7,-1.2,1.1,-2.1,1.1c-.9,0,-1.6,-.4,-2.1,-1.1c-.5,-.7,-.7,-1.8,-.7,-3.1c0,-1.4,.2,-2.5,.7,-3.2c.5,-.7,1.2,-1.1,2.1,-1.1Zm0,.9c-.6,0,-1,.3,-1.3,.8c-.3,.6,-.4,1.4,-.4,2.6c0,1.1,.1,1.9,.4,2.5c.3,.6,.7,.8,1.3,.8c.6,0,1,-.2,1.3,-.8c.3,-.6,.4,-1.4,.4,-2.5c0,-1.2,-.1,-2,-.4,-2.6c-.3,-.5,-.7,-.8,-1.3,-.8Z" class="g7_273"/>
<path d="M196.3,283.2l15.5,3.2c37.9,7.8,75.8,15.6,113.7,23.4l17,3.5l.3,-1.7l-17,-3.5C287.9,300.3,250,292.6,212.1,284.8l-15.5,-3.2l-.3,1.6Z" class="g9_273"/>
<path d="M206.1,265.4l15.5,2.9c37.8,7,75.6,14,113.5,21l17,3.1l.3,-1.6l-17,-3.2c-37.9,-7,-75.7,-14,-113.5,-20.9l-15.5,-2.9l-.3,1.6Z" class="g9_273"/>
<path d="M215.8,247.8l15.5,2.6c37.8,6.2,75.5,12.4,113.3,18.6l17,2.8l.2,-1.7l-16.9,-2.7C307.1,261.1,269.3,254.9,231.6,248.7l-15.5,-2.5l-.3,1.6Z" class="g9_273"/>
<path d="M225.5,230.4l15.4,2.2c37.7,5.5,75.4,10.9,113.1,16.3l17,2.5l.2,-1.7l-16.9,-2.4C316.5,241.8,278.8,236.4,241.1,231l-15.4,-2.3l-.2,1.7Z" class="g9_273"/>
<path d="M235,213.2l15.4,1.9c37.6,4.6,75.3,9.3,112.9,13.9l17,2.1l.2,-1.6l-16.9,-2.1c-37.7,-4.7,-75.3,-9.3,-113,-14l-15.4,-1.9l-.2,1.7Z" class="g9_273"/>
<path d="M244.5,196.1l15.3,1.6c37.6,3.9,75.2,7.7,112.8,11.6l16.9,1.8l.2,-1.7l-16.9,-1.7C335.2,203.8,297.6,199.9,260,196l-15.4,-1.6l-.1,1.7Z" class="g9_273"/>
<path d="M253.8,179.2l15.3,1.3c37.6,3.1,75.1,6.2,112.7,9.3l16.9,1.4l.1,-1.7l-16.9,-1.4C344.3,185,306.8,181.9,269.3,178.8l-15.4,-1.3l-.1,1.7Z" class="g9_273"/>
<path d="M263,162.5l15.3,.9c37.5,2.4,75,4.7,112.5,7.1l16.9,1l.1,-1.7l-16.9,-1c-37.5,-2.4,-75,-4.7,-112.5,-7.1l-15.3,-.9l-.1,1.7Z" class="g9_273"/>
<path d="M272.2,145.9l15.3,.6c37.4,1.6,74.9,3.2,112.3,4.8l16.9,.7l.1,-1.7l-16.9,-.7C362.4,148,325,146.5,287.5,144.9l-15.2,-.7l-.1,1.7Z" class="g9_273"/>
<path d="M281.3,129.5l15.2,.3c37.4,.9,74.8,1.7,112.2,2.5l16.9,.4V131l-16.8,-.4C371.4,129.8,334,129,296.6,128.2l-15.3,-.4v1.7Z" class="g9_273"/>
<path d="M197.2,282.8L207,265c22,-39.8,44,-79.7,66,-119.5l9,-16.4l-1.5,-.8l-9,16.4c-22,39.8,-44,79.7,-66,119.5L195.7,282l1.5,.8Z" class="g9_273"/>
<path d="M212.7,286l9.8,-18.1c21.9,-40.6,43.8,-81.2,65.8,-121.8l9,-16.7l-1.5,-.8l-9,16.7c-22,40.6,-43.9,81.2,-65.8,121.8l-9.8,18.1l1.5,.8Z" class="g9_273"/>
<path d="M228.4,289.2l9.7,-18.4c21.9,-41.4,43.8,-82.7,65.6,-124l9,-17.1l-1.5,-.7l-9,17c-21.8,41.3,-43.7,82.6,-65.6,124l-9.7,18.4l1.5,.8Z" class="g9_273"/>
<path d="M244.2,292.5L254,273.7c21.8,-42.1,43.6,-84.2,65.4,-126.3l9,-17.3l-1.5,-.8l-9,17.3c-21.8,42.1,-43.6,84.2,-65.4,126.3l-9.7,18.8l1.4,.8Z" class="g9_273"/>
<path d="M260.3,295.8L270,276.6c21.7,-42.8,43.5,-85.7,65.2,-128.5l9,-17.7l-1.5,-.7l-9,17.6C312,190.2,290.2,233,268.5,275.9L258.8,295l1.5,.8Z" class="g9_273"/>
<path d="M276.5,299.1l9.7,-19.5C307.9,236,329.6,192.4,351.3,148.8l8.9,-18l-1.5,-.8l-8.9,18c-21.7,43.6,-43.4,87.3,-65.1,130.9L275,298.3l1.5,.8Z" class="g9_273"/>
<path d="M293,302.4l9.6,-19.7c21.6,-44.4,43.3,-88.9,64.9,-133.3l8.9,-18.3l-1.5,-.7L366,148.7c-21.6,44.4,-43.3,88.8,-64.9,133.2l-9.7,19.8l1.6,.7Z" class="g9_273"/>
<path d="M309.6,305.9l9.6,-20.2C340.8,240.5,362.4,195.3,384,150.1l8.9,-18.6l-1.5,-.7l-9,18.6C360.9,194.6,339.3,239.8,317.7,285l-9.6,20.1l1.5,.8Z" class="g9_273"/>
<path d="M326.4,309.3L336,288.8c21.5,-46,43.1,-92,64.6,-138l8.9,-19l-1.5,-.7l-8.9,19c-21.5,46,-43.1,92,-64.6,138l-9.6,20.5l1.5,.7Z" class="g9_273"/>
<path d="M343.4,312.8L353,292c21.5,-46.8,43,-93.7,64.5,-140.5l8.9,-19.3l-1.6,-.7L416,150.8c-21.5,46.8,-43,93.7,-64.6,140.5l-9.5,20.8l1.5,.7Z" class="g9_273"/>
<image clip-path="url(#c0_273)" preserveAspectRatio="none" x="156" y="632" width="289" height="289" xlink:href="img/1.jpg"/>
</svg>