<?xml version="1.0" encoding="UTF-8" standalone="no"?>
<!DOCTYPE svg PUBLIC "-//W3C//DTD SVG 1.1//EN"
"http://www.w3.org/Graphics/SVG/1.1/DTD/svg11.dtd">
<svg viewBox="0 0 811 1017" version="1.1" xmlns="http://www.w3.org/2000/svg" xmlns:xlink="http://www.w3.org/1999/xlink">
<defs>
<style type="text/css"><![CDATA[
.g0_200{
fill: #70A6CC;
}
.g1_200{
fill: #0E0E0E;
}
.g2_200{
fill: #000;
}
]]></style>
</defs>
<path d="M142.4,520.8H710.7V499.5H142.4Z" class="g0_200"/>
<path d="M230.3,336.5q0,-.1,-.1,-.1c-4.8,5.3,-5.4,19.2,-5.4,20.8v.6h1.4v-.6c0,-1.2,.8,-15,4,-20.4c.1,-.1,.1,-.2,.1,-.3Z" class="g1_200"/>
<path d="M224.8,367.1h1.4v-9.6h-1.4Z" class="g1_200"/>
<path d="M224.8,376h1.4v-9.6h-1.4Z" class="g1_200"/>
<path d="M224.8,385h1.4v-9.6h-1.4Z" class="g1_200"/>
<path d="M224.8,393.9h1.4v-9.6h-1.4Z" class="g1_200"/>
<path d="M230.3,415.1c0,-.1,0,-.2,-.1,-.4c-3.2,-5.4,-4,-19.1,-4,-20.3v-.7h-1.4v.7c0,1.6,.6,15.4,5.4,20.7q0,.1,0,.1c.1,0,.1,-.1,.1,-.1Z" class="g1_200"/>
<path d="M259.8,346.8h.3l2.2,-8.2c.1,-.2,.2,-.4,.3,-.6c.1,-.4,.5,-1,.8,-1.2c.1,-.1,.5,-.1,.7,-.1v-.2H261v.2c.3,0,.6,.1,.8,.4c.2,.2,.2,.8,.2,1.1c0,.2,0,.3,-.1,.6l-1.4,5.4v.2L257,336.5h-2.7v.2c.6,0,.8,0,1,.3c.3,.3,.5,.9,.5,1.3c0,.2,0,.3,-.1,.5l-1.6,6c-.1,.5,-.4,1,-.8,1.3c-.3,.3,-.9,.5,-1.3,.5v.2h3.8v-.2c-.4,0,-.8,0,-1,-.3c-.2,-.2,-.4,-.7,-.4,-1c0,-.2,0,-.4,.1,-.6l1.5,-5.9l.1,-.4l3.7,8.4Z" class="g1_200"/>
<path d="M323.7,345.5h-.3c-.3,1.8,-1,2.7,-2,2.7h-5.8l4.3,-5.5L316.1,337h4.7c1.1,0,1.8,.6,2.1,2.4h.3l-.1,-3h-8.9l4.6,6.5l-5.2,6.6h10l.1,-4Z" class="g1_200"/>
<path d="M330.7,340.6h.3l1.6,-6c0,-.2,.1,-.3,.2,-.5c.1,-.2,.3,-.7,.6,-.8c.1,-.1,.3,-.1,.5,-.1V333h-2.3v.2c.2,0,.4,.1,.6,.3c.1,.1,.2,.5,.2,.8c0,.1,-.1,.2,-.1,.4l-1,4l-.1,.1L328.7,333h-1.9l-.1,.2c.4,0,.6,0,.7,.2c.3,.2,.4,.7,.4,1c0,.1,0,.2,0,.3l-1.2,4.4c-.1,.4,-.3,.7,-.6,1c-.2,.2,-.6,.3,-.9,.3l-.1,.2h2.8l.1,-.2c-.3,0,-.6,0,-.8,-.2c-.1,-.2,-.3,-.5,-.3,-.8c0,-.1,0,-.2,.1,-.4l1.1,-4.3l.1,-.2l2.6,6.1Z" class="g1_200"/>
<path d="M328,344.8c0,-.2,-.3,-.5,-.6,-.5c-.3,0,-.5,.2,-.5,.5c0,.3,.3,.6,.5,.6c.3,0,.6,-.3,.6,-.6Zm-2.1,6.8c1,0,1.5,-.8,1.8,-1.4l-.2,-.1c-.2,.3,-.6,1.1,-1,1.1c-.1,0,-.2,-.2,-.2,-.3c0,-.2,.1,-.7,.2,-.8l.7,-2.1c.1,-.3,.1,-.4,.1,-.6c0,-.3,0,-.6,-.3,-.6c-.7,0,-1.5,.8,-1.8,1.4l.2,.1c.2,-.2,.6,-.8,.8,-.8c.2,0,.3,.1,.3,.2c0,.2,-.1,.5,-.2,.7l-.7,2c-.1,.3,-.2,.5,-.2,.7c0,.3,.2,.5,.5,.5Z" class="g1_200"/>
<path d="M329.2,350.2h5.6v-.6h-5.6Zm0,-2.2h5.6v-.6h-5.6Z" class="g1_200"/>
<path d="M336.7,344.5v.1c.3,0,.8,.1,.9,.1c.3,.2,.3,.3,.3,.8v4.7c0,.3,0,.5,0,.6c-.1,.5,-.6,.6,-1.2,.6v.1h3.4v-.1c-.3,0,-.9,0,-1,-.2c-.2,-.3,-.2,-.6,-.2,-1v-6.3c-.6,.3,-1.5,.5,-2.2,.6Z" class="g1_200"/>
<path d="M351.7,341.3c0,-.5,-.4,-1,-.9,-1c-.4,0,-.7,.2,-1,.4c-.3,.2,-.6,.5,-.8,.9c0,-.7,-.5,-1.3,-1.1,-1.3c-1.1,0,-2.1,1.2,-2.4,2l.2,.1c.3,-.5,1.1,-1.7,1.9,-1.7c.3,0,.4,.6,.4,1c0,.3,0,.7,-.2,1.2l-.3,1.1c-.2,.6,-.4,1.4,-.7,1.8c-.2,.3,-.5,.7,-.8,.7c-.5,0,-.8,-.1,-.7,-.5c.1,-.3,.1,-.8,-.4,-.8c-.4,0,-.6,.4,-.6,.8c0,.6,.5,.9,1.1,.9c1,0,1.7,-.7,2.1,-1.4c.1,.8,.5,1.4,1.4,1.4c1.1,0,2,-1.1,2.4,-1.8l-.2,-.2c-.5,.7,-1.2,1.7,-2,1.7c-.4,0,-.6,-.6,-.6,-1.2c0,-.4,.1,-.8,.2,-1.4l.2,-.7c.1,-.6,.3,-1.2,.6,-1.6c.2,-.3,.6,-1,.9,-1c.4,0,.4,.3,.4,.7c0,.4,.1,.5,.4,.5c.4,0,.5,-.2,.5,-.6Z" class="g1_200"/>
<path d="M354.9,342.4c0,-.3,-.3,-.6,-.6,-.6c-.3,0,-.5,.3,-.5,.6c0,.3,.2,.5,.5,.5c.3,0,.6,-.3,.6,-.5Zm-2.1,6.7c1,0,1.5,-.8,1.8,-1.4l-.2,-.1c-.2,.3,-.6,1.1,-1,1.1c-.1,0,-.3,-.2,-.3,-.3c0,-.2,.2,-.6,.2,-.8l.8,-2.1c.1,-.3,.1,-.4,.1,-.6c0,-.3,0,-.6,-.4,-.6c-.6,0,-1.5,.8,-1.7,1.4l.2,.1c.2,-.2,.6,-.8,.8,-.8c.2,0,.2,.1,.2,.2c.1,.2,0,.5,-.1,.7l-.7,2c-.1,.3,-.2,.5,-.2,.7c0,.4,.2,.5,.5,.5Z" class="g1_200"/>
<path d="M386.2,343c0,-.4,-.4,-.8,-.9,-.8c-.4,0,-.8,.3,-.8,.8c0,.6,.5,.8,.8,.8c.3,0,.9,-.2,.9,-.8Z" class="g1_200"/>
<path d="M392.7,343c0,-.4,-.4,-.8,-.9,-.8c-.4,0,-.8,.3,-.8,.8c0,.6,.5,.8,.8,.8c.4,0,.9,-.2,.9,-.8Z" class="g1_200"/>
<path d="M399.2,343c0,-.4,-.4,-.8,-.8,-.8c-.5,0,-.9,.3,-.9,.8c0,.6,.5,.8,.9,.8c.3,0,.8,-.2,.8,-.8Z" class="g1_200"/>
<path d="M437.1,345.5h-.3c-.3,1.8,-.9,2.7,-2,2.7H429l4.3,-5.5L429.5,337h4.7c1.1,0,1.8,.6,2.1,2.4h.3l-.1,-3h-8.9l4.6,6.5l-5.2,6.6h10l.1,-4Z" class="g1_200"/>
<path d="M444.1,340.6h.3l1.6,-6c0,-.2,.1,-.3,.2,-.5c.1,-.2,.3,-.7,.6,-.8c.1,-.1,.3,-.1,.5,-.1V333h-2.2l-.1,.2c.2,0,.5,.1,.6,.3c.2,.1,.2,.5,.2,.8c0,.1,0,.2,-.1,.4l-1,4v.1L442.1,333h-1.9l-.1,.2c.4,0,.6,0,.7,.2c.3,.2,.4,.7,.4,1c0,.1,0,.2,0,.3l-1.2,4.4c-.1,.4,-.3,.7,-.6,1c-.2,.2,-.6,.3,-.9,.3l-.1,.2h2.8l.1,-.2c-.3,0,-.6,0,-.8,-.2c-.1,-.2,-.3,-.5,-.3,-.8c0,-.1,0,-.2,.1,-.4l1.1,-4.3l.1,-.2l2.6,6.1Z" class="g1_200"/>
<path d="M441.4,344.8c0,-.2,-.2,-.5,-.5,-.5c-.4,0,-.6,.2,-.6,.5c0,.3,.3,.6,.6,.6c.2,0,.5,-.3,.5,-.6Zm-2,6.8c.9,0,1.4,-.8,1.7,-1.4l-.2,-.1c-.1,.3,-.5,1.1,-1,1.1c-.1,0,-.2,-.2,-.2,-.3c0,-.2,.1,-.7,.2,-.8l.7,-2.1c.1,-.3,.1,-.4,.1,-.6c0,-.3,0,-.6,-.3,-.6c-.7,0,-1.5,.8,-1.8,1.4l.2,.1c.2,-.2,.6,-.8,.9,-.8c.1,0,.2,.1,.2,.2c0,.2,-.1,.5,-.2,.7l-.7,2c-.1,.3,-.1,.5,-.1,.7c0,.3,.1,.5,.5,.5Z" class="g1_200"/>
<path d="M442.6,350.2h5.6v-.6h-5.6Zm0,-2.2h5.6v-.6h-5.6Z" class="g1_200"/>
<path d="M450.1,344.5v.1c.3,0,.8,.1,.9,.1c.4,.2,.3,.3,.4,.8v4.7c0,.3,-.1,.5,-.1,.6c0,.5,-.6,.6,-1.2,.6v.1h3.5v-.1c-.4,0,-1,0,-1.1,-.2c-.2,-.3,-.2,-.6,-.2,-1v-6.3c-.6,.3,-1.5,.5,-2.2,.6Z" class="g1_200"/>
<path d="M465.2,341.3c0,-.5,-.5,-1,-1,-1c-.3,0,-.7,.2,-1,.4c-.3,.2,-.6,.5,-.8,.9c0,-.7,-.4,-1.3,-1.1,-1.3c-1.1,0,-2.1,1.2,-2.4,2l.2,.1c.3,-.5,1.1,-1.7,2,-1.7c.2,0,.3,.6,.3,1c0,.3,0,.7,-.2,1.2l-.3,1.1c-.2,.6,-.4,1.4,-.7,1.8c-.2,.3,-.4,.7,-.8,.7c-.4,0,-.7,-.1,-.6,-.5c0,-.3,0,-.8,-.4,-.8c-.5,0,-.7,.4,-.7,.8c0,.6,.5,.9,1.1,.9c1,0,1.7,-.7,2.1,-1.4c.1,.8,.5,1.4,1.4,1.4c1.2,0,2,-1.1,2.4,-1.8l-.2,-.2c-.5,.7,-1.1,1.7,-1.9,1.7c-.5,0,-.7,-.6,-.7,-1.2c0,-.4,.1,-.8,.2,-1.4l.2,-.7c.1,-.6,.3,-1.2,.6,-1.6c.2,-.3,.6,-1,.9,-1c.5,0,.4,.3,.4,.7c0,.4,.1,.5,.5,.5c.3,0,.5,-.2,.5,-.6Z" class="g1_200"/>
<path d="M468.3,342.4c0,-.3,-.3,-.6,-.6,-.6c-.3,0,-.5,.3,-.5,.6c0,.3,.2,.5,.5,.5c.3,0,.6,-.3,.6,-.5Zm-2.1,6.7c1,0,1.5,-.8,1.8,-1.4l-.2,-.1c-.2,.3,-.6,1.1,-1,1.1c-.1,0,-.3,-.2,-.3,-.3c0,-.2,.2,-.6,.3,-.8l.7,-2.1c.1,-.3,.1,-.4,.1,-.6c0,-.3,0,-.6,-.3,-.6c-.7,0,-1.5,.8,-1.8,1.4l.2,.1c.2,-.2,.6,-.8,.8,-.8c.2,0,.2,.1,.2,.2c.1,.2,0,.5,-.1,.7l-.7,2c-.1,.3,-.2,.5,-.2,.7c0,.4,.2,.5,.5,.5Z" class="g1_200"/>
<path d="M477.9,334.9l.3,-.3l-1.4,5.3c-.1,.3,-.2,.5,-.2,.6c-.1,.3,-.4,.6,-.6,.7c-.1,0,-.3,.1,-.5,.1v.1h3.1l.1,-.1c-.4,0,-.6,-.1,-.8,-.2c-.1,-.1,-.2,-.3,-.2,-.6c0,-.1,.1,-.4,.2,-.7l1,-4c.1,-.4,.2,-.6,.3,-.8c.1,-.4,.3,-.7,.6,-.9c.1,-.1,.2,-.1,.4,-.1l.1,-.1h-2l-3.6,5.8h-.2l-.7,-5.8h-2.3l-.1,.1c.4,0,.6,0,.7,.1c.2,.1,.4,.3,.4,.5c0,.2,-.1,.5,-.2,.8l-1.2,4.5c-.1,.4,-.3,.8,-.6,1c-.2,.2,-.6,.4,-.9,.4v.1h2.7v-.1c-.2,-.1,-.5,-.1,-.6,-.3c-.2,-.1,-.3,-.5,-.3,-.7c0,-.2,0,-.3,0,-.5l1.3,-4.9l.1,-.2l.8,6.7h.3l4,-6.5Z" class="g1_200"/>
<path d="M247.5,364.7h-.3c-.3,1.9,-1,2.7,-2.1,2.7h-5.8l4.3,-5.5l-3.8,-5.7h4.7c1.1,0,1.8,.6,2.1,2.5h.4l-.1,-3.1h-9l4.6,6.5l-5.2,6.6h10l.2,-4Z" class="g1_200"/>
<path d="M254.5,359.8h.2l1.6,-6c.1,-.2,.1,-.3,.2,-.5c.1,-.2,.4,-.7,.6,-.8c.1,-.1,.4,-.1,.5,-.1v-.1h-2.2l-.1,.1c.3,0,.5,.1,.6,.3c.2,.1,.2,.6,.2,.8c0,.1,0,.3,0,.4l-1.1,4v.1l-2.5,-5.7h-2l-.1,.1c.5,0,.6,0,.8,.2c.2,.2,.4,.7,.4,1c0,.1,0,.2,-.1,.3l-1.2,4.4c0,.4,-.3,.7,-.5,1c-.3,.2,-.7,.3,-1,.3v.2h2.8v-.2c-.3,0,-.6,0,-.7,-.2c-.2,-.1,-.3,-.5,-.3,-.7c0,-.2,0,-.3,0,-.5l1.1,-4.3l.1,-.2l2.7,6.1Z" class="g1_200"/>
<path d="M251.7,364.1c0,-.3,-.2,-.6,-.5,-.6c-.3,0,-.6,.2,-.6,.6c0,.3,.3,.5,.6,.5c.3,0,.5,-.3,.5,-.5Zm-2,6.7c.9,0,1.5,-.8,1.7,-1.4l-.2,-.1c-.1,.3,-.5,1.1,-1,1.1c-.1,0,-.2,-.2,-.2,-.3c0,-.2,.1,-.6,.2,-.8l.7,-2.1c.1,-.3,.2,-.4,.2,-.6c0,-.3,0,-.6,-.4,-.6c-.7,0,-1.5,.8,-1.7,1.4l.2,.1c.1,-.2,.5,-.8,.8,-.8c.1,0,.2,.1,.2,.2c0,.2,-.1,.5,-.2,.7l-.7,2c-.1,.3,-.1,.5,-.1,.7c0,.3,.1,.5,.5,.5Z" class="g1_200"/>
<path d="M253,369.4h5.5v-.6H253Zm0,-2.2h5.5v-.6H253Z" class="g1_200"/>
<path d="M260.4,363.7v.1c.3,0,.8,.1,1,.2c.3,.1,.3,.2,.3,.7v4.8c0,.2,0,.4,-.1,.5c0,.5,-.6,.6,-1.2,.6v.2h3.5v-.2c-.4,0,-.9,0,-1.1,-.2c-.1,-.2,-.2,-.6,-.2,-1v-6.3c-.5,.3,-1.5,.6,-2.2,.6Z" class="g1_200"/>
<path d="M275.5,360.5c0,-.5,-.5,-.9,-1,-.9c-.3,0,-.6,.1,-1,.3c-.3,.2,-.6,.5,-.8,.9c0,-.7,-.4,-1.2,-1.1,-1.2c-1.1,0,-2.1,1.1,-2.4,1.9l.2,.1c.4,-.5,1.1,-1.7,2,-1.7c.3,0,.4,.6,.4,1c0,.3,-.1,.7,-.2,1.2l-.4,1.1c-.1,.6,-.4,1.4,-.7,1.8c-.2,.3,-.4,.7,-.8,.7c-.4,0,-.7,-.1,-.6,-.5c.1,-.3,0,-.7,-.4,-.7c-.5,0,-.6,.3,-.6,.7c0,.6,.4,1,1,1c1,0,1.8,-.8,2.1,-1.5h.1c.1,.8,.5,1.5,1.3,1.5c1.2,0,2,-1.2,2.5,-1.9l-.2,-.2c-.5,.7,-1.2,1.7,-2,1.7c-.4,0,-.7,-.6,-.7,-1.2c0,-.4,.1,-.8,.2,-1.4l.2,-.7c.1,-.6,.4,-1.2,.6,-1.6c.2,-.3,.6,-.9,1,-.9c.4,0,.4,.3,.3,.6c0,.4,.2,.5,.5,.5c.4,0,.5,-.2,.5,-.6Z" class="g1_200"/>
<path d="M278.6,361.6c0,-.3,-.2,-.6,-.5,-.6c-.3,0,-.6,.3,-.6,.6c0,.3,.3,.5,.6,.5c.2,0,.5,-.3,.5,-.5Zm-2,6.8c.9,-.1,1.4,-.9,1.7,-1.5l-.2,-.1c-.1,.3,-.5,1.1,-1,1.1c-.1,0,-.2,-.2,-.2,-.3c0,-.2,.1,-.6,.2,-.8l.7,-2c.1,-.4,.1,-.5,.1,-.7c0,-.3,0,-.6,-.3,-.6c-.7,0,-1.5,.9,-1.8,1.4l.3,.1c.1,-.2,.5,-.8,.8,-.8c.1,0,.2,.1,.2,.2c0,.2,-.1,.5,-.2,.7l-.7,2c-.1,.3,-.1,.5,-.1,.7c0,.4,.1,.6,.5,.6Z" class="g1_200"/>
<path d="M320.3,364.7H320c-.3,1.9,-1,2.7,-2,2.7h-5.8l4.3,-5.5l-3.9,-5.7h4.8c1.1,0,1.8,.6,2.1,2.5h.3l-.1,-3.1h-8.9l4.5,6.5l-5.1,6.6h9.9l.2,-4Z" class="g1_200"/>
<path d="M327.3,359.8h.3l1.6,-6c0,-.2,.1,-.3,.1,-.5c.2,-.2,.4,-.7,.7,-.8c.1,-.1,.3,-.1,.4,-.1l.1,-.1h-2.3v.1c.2,0,.4,.1,.6,.3c.1,.1,.1,.6,.1,.8c0,.1,0,.3,0,.4l-1.1,4v.1l-2.5,-5.7h-2v.1c.4,0,.6,0,.7,.2c.2,.2,.4,.7,.4,1c0,.1,0,.2,0,.3l-1.2,4.4c-.1,.4,-.3,.7,-.6,1c-.2,.2,-.7,.3,-1,.3v.2h2.8v-.2c-.3,0,-.6,0,-.7,-.2c-.2,-.1,-.3,-.5,-.3,-.7c0,-.2,0,-.3,0,-.5l1.2,-4.3v-.2l2.7,6.1Z" class="g1_200"/>
<path d="M324.6,364.1c0,-.3,-.3,-.6,-.6,-.6c-.3,0,-.5,.2,-.5,.6c0,.3,.2,.5,.5,.5c.3,0,.6,-.3,.6,-.5Zm-2.1,6.7c1,0,1.5,-.8,1.8,-1.4l-.2,-.1c-.2,.3,-.6,1.1,-1,1.1c-.1,0,-.3,-.2,-.3,-.3c0,-.2,.2,-.6,.2,-.8l.8,-2.1c.1,-.3,.1,-.4,.1,-.6c0,-.3,0,-.6,-.4,-.6c-.6,0,-1.5,.8,-1.7,1.4l.2,.1c.2,-.2,.6,-.8,.8,-.8c.2,0,.2,.1,.2,.2c.1,.2,0,.5,-.1,.7l-.7,2c-.1,.3,-.2,.5,-.2,.7c0,.3,.2,.5,.5,.5Z" class="g1_200"/>
<path d="M325.8,369.4h5.5v-.6h-5.5Zm0,-2.2h5.5v-.6h-5.5Z" class="g1_200"/>
<path d="M333.2,363.7v.1c.4,0,.8,.1,1,.2c.3,.1,.3,.2,.3,.7v4.8c0,.2,0,.4,0,.5c-.1,.5,-.7,.6,-1.2,.6v.2h3.4v-.2c-.4,0,-.9,0,-1,-.2c-.2,-.2,-.2,-.6,-.2,-1v-6.3c-.6,.3,-1.6,.6,-2.3,.6Z" class="g1_200"/>
<path d="M348.3,360.5c0,-.5,-.4,-.9,-1,-.9c-.3,0,-.6,.1,-.9,.3c-.3,.2,-.6,.5,-.9,.9c0,-.7,-.4,-1.2,-1,-1.2c-1.2,0,-2.1,1.1,-2.5,1.9l.2,.1c.4,-.5,1.1,-1.7,2,-1.7c.3,0,.4,.6,.4,1c0,.3,0,.7,-.2,1.2l-.3,1.1c-.2,.6,-.4,1.4,-.8,1.8c-.1,.3,-.4,.7,-.7,.7c-.5,0,-.8,-.1,-.7,-.5c.1,-.3,0,-.7,-.4,-.7c-.4,0,-.6,.3,-.6,.7c0,.6,.5,1,1,1c1.1,0,1.8,-.8,2.2,-1.5c.1,.8,.5,1.5,1.3,1.5c1.2,0,2.1,-1.2,2.5,-1.9l-.2,-.2c-.5,.7,-1.2,1.7,-2,1.7c-.4,0,-.6,-.6,-.6,-1.2c0,-.4,0,-.8,.2,-1.4l.1,-.7c.1,-.6,.4,-1.2,.7,-1.6c.1,-.3,.5,-.9,.9,-.9c.4,0,.4,.3,.4,.6c-.1,.4,.1,.5,.4,.5c.4,0,.5,-.2,.5,-.6Z" class="g1_200"/>
<path d="M351.5,361.6c0,-.3,-.3,-.6,-.6,-.6c-.3,0,-.5,.3,-.5,.6c0,.3,.2,.5,.5,.5c.3,0,.6,-.3,.6,-.5Zm-2.1,6.8c1,-.1,1.5,-.9,1.7,-1.5l-.1,-.1c-.2,.3,-.6,1.1,-1,1.1c-.2,0,-.3,-.2,-.3,-.3c0,-.2,.2,-.6,.2,-.8l.7,-2c.1,-.4,.2,-.5,.2,-.7c0,-.3,0,-.6,-.4,-.6c-.7,0,-1.5,.9,-1.7,1.4l.2,.1c.1,-.2,.5,-.8,.8,-.8c.2,0,.2,.1,.2,.2c0,.2,-.1,.5,-.1,.7l-.8,2c-.1,.3,-.1,.5,-.1,.7c0,.4,.1,.6,.5,.6Z" class="g1_200"/>
<path d="M355.6,356c-.7,0,-1.1,-.5,-1.1,-1.2c0,-.8,.5,-1.6,1.4,-1.6c1.2,0,1.3,1,1.3,1.9c0,.9,-.3,1.4,-.7,2.1c-.3,.4,-.7,.9,-1.2,1.3c-.5,.6,-1.1,1.1,-1.8,1.8v.3H358l.4,-2.1h-.3c-.1,.3,-.2,.4,-.2,.6c-.2,.4,-.5,.6,-1,.6h-2.1v-.1c.4,-.3,.9,-.7,1.3,-1.1c.8,-.6,1.6,-1.3,2,-2.2c.2,-.4,.3,-.8,.3,-1.2c0,-.3,-.1,-.6,-.2,-.9c-.4,-.7,-1.1,-1.2,-2.2,-1.2c-.7,0,-1.3,.2,-1.7,.5c-.4,.4,-.7,.9,-.7,1.5c0,.5,.1,.8,.3,1.1c.2,.2,.5,.4,.9,.4c.4,0,.7,-.2,.8,-.5Z" class="g1_200"/>
<path d="M386.2,362.2c0,-.4,-.4,-.8,-.9,-.8c-.4,0,-.8,.4,-.8,.8c0,.6,.5,.8,.8,.8c.3,0,.9,-.2,.9,-.8Z" class="g1_200"/>
<path d="M392.7,362.2c0,-.4,-.4,-.8,-.9,-.8c-.4,0,-.8,.4,-.8,.8c0,.6,.5,.8,.8,.8c.4,0,.9,-.2,.9,-.8Z" class="g1_200"/>
<path d="M399.2,362.2c0,-.4,-.4,-.8,-.8,-.8c-.5,0,-.9,.4,-.9,.8c0,.6,.5,.8,.9,.8c.3,0,.8,-.2,.8,-.8Z" class="g1_200"/>
<path d="M431,364.7h-.3c-.3,1.9,-1,2.7,-2,2.7h-5.8l4.3,-5.5l-3.9,-5.7h4.8c1.1,0,1.8,.6,2.1,2.5h.3l-.1,-3.1h-8.9l4.5,6.5l-5.1,6.6h10l.1,-4Z" class="g1_200"/>
<path d="M438,359.8h.3l1.6,-6c0,-.2,.1,-.3,.2,-.5c.1,-.2,.3,-.7,.6,-.8c.1,-.1,.3,-.1,.4,-.1l.1,-.1h-2.3v.1c.2,0,.4,.1,.6,.3c.1,.1,.1,.6,.1,.8c0,.1,0,.3,0,.4l-1,4l-.1,.1L436,352.3h-1.9l-.1,.1c.4,0,.6,0,.7,.2c.3,.2,.4,.7,.4,1c0,.1,0,.2,0,.3l-1.2,4.4c-.1,.4,-.3,.7,-.6,1c-.2,.2,-.6,.3,-1,.3v.2h2.8l.1,-.2c-.3,0,-.6,0,-.8,-.2c-.1,-.1,-.3,-.5,-.3,-.7c0,-.2,0,-.3,.1,-.5l1.1,-4.3l.1,-.2l2.6,6.1Z" class="g1_200"/>
<path d="M435.3,364.1c0,-.3,-.3,-.6,-.6,-.6c-.3,0,-.5,.2,-.5,.6c0,.3,.3,.5,.5,.5c.3,0,.6,-.3,.6,-.5Zm-2.1,6.7c1,0,1.5,-.8,1.8,-1.4l-.2,-.1c-.2,.3,-.6,1.1,-1,1.1c-.1,0,-.2,-.2,-.2,-.3c0,-.2,.1,-.6,.2,-.8l.7,-2.1c.1,-.3,.1,-.4,.1,-.6c0,-.3,0,-.6,-.3,-.6c-.7,0,-1.5,.8,-1.8,1.4l.2,.1c.2,-.2,.6,-.8,.8,-.8c.2,0,.2,.1,.2,.2c.1,.2,0,.5,-.1,.7l-.7,2c-.1,.3,-.2,.5,-.2,.7c0,.3,.2,.5,.5,.5Z" class="g1_200"/>
<path d="M436.5,369.4h5.6v-.6h-5.6Zm0,-2.2h5.6v-.6h-5.6Z" class="g1_200"/>
<path d="M443.9,363.7v.1c.4,0,.9,.1,1,.2c.3,.1,.3,.2,.3,.7v4.8c0,.2,0,.4,0,.5c-.1,.5,-.7,.6,-1.2,.6v.2h3.4v-.2c-.3,0,-.9,0,-1,-.2c-.2,-.2,-.2,-.6,-.2,-1v-6.3c-.6,.3,-1.5,.6,-2.3,.6Z" class="g1_200"/>
<path d="M459,360.5c0,-.5,-.4,-.9,-1,-.9c-.3,0,-.6,.1,-.9,.3c-.3,.2,-.6,.5,-.9,.9c0,-.7,-.4,-1.2,-1,-1.2c-1.1,0,-2.1,1.1,-2.4,1.9l.2,.1c.3,-.5,1,-1.7,1.9,-1.7c.3,0,.4,.6,.4,1c0,.3,0,.7,-.2,1.2l-.3,1.1c-.2,.6,-.4,1.4,-.7,1.8c-.2,.3,-.5,.7,-.8,.7c-.5,0,-.8,-.1,-.7,-.5c.1,-.3,.1,-.7,-.4,-.7c-.4,0,-.6,.3,-.6,.7c0,.6,.5,1,1.1,1c1,0,1.7,-.8,2.1,-1.5c.1,.8,.5,1.5,1.4,1.5c1.1,0,2,-1.2,2.4,-1.9l-.2,-.2c-.5,.7,-1.2,1.7,-2,1.7c-.4,0,-.6,-.6,-.6,-1.2c0,-.4,0,-.8,.2,-1.4l.2,-.7c.1,-.6,.3,-1.2,.6,-1.6c.2,-.3,.5,-.9,.9,-.9c.4,0,.4,.3,.4,.6c-.1,.4,.1,.5,.4,.5c.4,0,.5,-.2,.5,-.6Z" class="g1_200"/>
<path d="M462.2,361.6c0,-.3,-.3,-.6,-.6,-.6c-.3,0,-.5,.3,-.5,.6c0,.3,.2,.5,.5,.5c.3,0,.6,-.3,.6,-.5Zm-2.1,6.8c1,-.1,1.5,-.9,1.8,-1.5l-.2,-.1c-.2,.3,-.6,1.1,-1,1.1c-.1,0,-.3,-.2,-.3,-.3c0,-.2,.2,-.6,.2,-.8l.8,-2c.1,-.4,.1,-.5,.1,-.7c0,-.3,0,-.6,-.4,-.6c-.6,0,-1.5,.9,-1.7,1.4l.2,.1c.2,-.2,.6,-.8,.8,-.8c.2,0,.2,.1,.2,.2c0,.2,0,.5,-.1,.7l-.8,2c0,.3,-.1,.5,-.1,.7c0,.4,.1,.6,.5,.6Z" class="g1_200"/>
<path d="M471.8,354.1l.3,-.3l-1.5,5.4c0,.2,-.1,.4,-.2,.5c-.1,.3,-.3,.6,-.5,.7c-.1,0,-.3,.1,-.5,.1v.1h3.1l.1,-.1c-.4,0,-.7,-.1,-.8,-.2c-.2,-.1,-.2,-.3,-.2,-.6c0,-.1,.1,-.4,.1,-.6l1.1,-4.1c.1,-.4,.2,-.6,.2,-.8c.1,-.4,.4,-.7,.6,-.9c.2,-.1,.3,-.1,.5,-.1v-.1h-1.9l-3.7,5.8h-.1l-.7,-5.8h-2.3l-.1,.1c.4,0,.6,0,.7,.1c.1,.1,.3,.3,.3,.5c0,.2,0,.5,-.1,.8l-1.2,4.6c-.1,.3,-.3,.7,-.6,.9c-.2,.2,-.6,.4,-.9,.4l-.1,.1h2.7l.1,-.1c-.3,0,-.6,-.1,-.7,-.3c-.1,-.1,-.3,-.4,-.3,-.7c0,-.2,0,-.3,.1,-.4l1.3,-5v-.2l.9,6.7h.3l4,-6.5Z" class="g1_200"/>
<path d="M477.4,357.5H475v.7h2.4v2.4h.7v-2.4h2.4v-.7h-2.4v-2.4h-.7v2.4Z" class="g1_200"/>
<path d="M482.3,353.5v.2c.3,0,.8,0,.9,.1c.4,.2,.4,.3,.4,.8v4.7c0,.2,0,.4,-.1,.6c0,.5,-.6,.5,-1.2,.6v.1h3.5v-.1c-.4,-.1,-.9,-.1,-1.1,-.3c-.2,-.2,-.2,-.5,-.2,-.9V353c-.5,.3,-1.5,.5,-2.2,.5Z" class="g1_200"/>
<path d="M258.4,382.1c.5,0,.9,-.4,.9,-.9c0,-.5,-.4,-.8,-.9,-.8c-.5,0,-.9,.4,-.9,.8c0,.5,.4,.9,.9,.9Z" class="g1_200"/>
<path d="M258.4,388.1c.5,0,.9,-.4,.9,-.9c0,-.5,-.4,-.9,-.9,-.9c-.5,0,-.9,.4,-.9,.9c0,.5,.4,.9,.9,.9Z" class="g1_200"/>
<path d="M258.4,394c.5,0,.9,-.3,.9,-.8c0,-.5,-.4,-.9,-.9,-.9c-.5,0,-.9,.4,-.9,.9c0,.4,.4,.8,.9,.8Z" class="g1_200"/>
<path d="M334.7,382.1c.5,0,.8,-.4,.8,-.9c0,-.5,-.3,-.8,-.8,-.8c-.5,0,-.9,.4,-.9,.8c0,.5,.4,.9,.9,.9Z" class="g1_200"/>
<path d="M334.7,388.1c.5,0,.8,-.4,.8,-.9c0,-.5,-.3,-.9,-.8,-.9c-.5,0,-.9,.4,-.9,.9c0,.5,.4,.9,.9,.9Z" class="g1_200"/>
<path d="M334.7,394c.5,0,.8,-.3,.8,-.8c0,-.5,-.3,-.9,-.8,-.9c-.5,0,-.9,.4,-.9,.9c0,.4,.4,.8,.9,.8Z" class="g1_200"/>
<path d="M393.1,382.1c.5,0,.9,-.4,.9,-.9c0,-.5,-.4,-.8,-.9,-.8c-.5,0,-.9,.4,-.9,.8c0,.5,.4,.9,.9,.9Z" class="g1_200"/>
<path d="M393.1,388.1c.5,0,.9,-.4,.9,-.9c0,-.5,-.4,-.9,-.9,-.9c-.5,0,-.9,.4,-.9,.9c0,.5,.4,.9,.9,.9Z" class="g1_200"/>
<path d="M393.1,394c.5,0,.9,-.3,.9,-.8c0,-.5,-.4,-.9,-.9,-.9c-.5,0,-.9,.4,-.9,.9c0,.4,.4,.8,.9,.8Z" class="g1_200"/>
<path d="M453.9,382.1c.6,0,.9,-.4,.9,-.9c0,-.5,-.3,-.8,-.9,-.8c-.4,0,-.8,.4,-.8,.8c0,.5,.4,.9,.8,.9Z" class="g1_200"/>
<path d="M453.9,388.1c.6,0,.9,-.4,.9,-.9c0,-.5,-.3,-.9,-.9,-.9c-.4,0,-.8,.4,-.8,.9c0,.5,.4,.9,.8,.9Z" class="g1_200"/>
<path d="M453.9,394c.6,0,.9,-.3,.9,-.8c0,-.5,-.3,-.9,-.9,-.9c-.4,0,-.8,.4,-.8,.9c0,.4,.4,.8,.8,.8Z" class="g1_200"/>
<path d="M241.6,411.8h-.3c-.3,1.8,-1,2.7,-2,2.7h-5.9l4.3,-5.5l-3.8,-5.7h4.8c1,0,1.7,.6,2,2.4h.4l-.1,-3h-8.9l4.5,6.5l-5.2,6.6h10l.2,-4Z" class="g1_200"/>
<path d="M248.6,406.9h.3l1.5,-6c.1,-.2,.1,-.3,.2,-.5c.1,-.2,.4,-.7,.6,-.8c.1,-.1,.4,-.1,.5,-.1l.1,-.2h-2.3v.2c.2,0,.4,.1,.5,.3c.2,.1,.2,.5,.2,.8c0,.1,0,.2,0,.4l-1.1,4v.1l-2.5,-5.8h-2v.2c.4,0,.5,0,.7,.2c.2,.2,.4,.7,.4,1c0,.1,0,.2,-.1,.3l-1.1,4.4c-.1,.4,-.4,.7,-.6,1c-.3,.2,-.7,.3,-1,.3v.2h2.8v-.2c-.3,0,-.6,0,-.7,-.2c-.2,-.2,-.3,-.5,-.3,-.8c0,-.1,0,-.2,0,-.4l1.2,-4.3v-.2l2.7,6.1Z" class="g1_200"/>
<path d="M245.9,411.1c0,-.2,-.3,-.5,-.6,-.5c-.3,0,-.5,.2,-.5,.5c0,.3,.2,.6,.5,.6c.3,0,.6,-.3,.6,-.6Zm-2.1,6.8c1,0,1.5,-.8,1.7,-1.4l-.1,-.1c-.2,.3,-.6,1.1,-1,1.1c-.2,0,-.3,-.2,-.3,-.3c0,-.2,.2,-.7,.2,-.8l.7,-2.1c.1,-.3,.2,-.4,.2,-.6c0,-.3,0,-.6,-.4,-.6c-.7,0,-1.5,.8,-1.7,1.4l.2,.1c.1,-.2,.5,-.8,.8,-.8c.2,0,.2,.1,.2,.2c0,.2,-.1,.5,-.1,.7l-.8,2c-.1,.3,-.1,.5,-.1,.7c0,.3,.1,.5,.5,.5Z" class="g1_200"/>
<path d="M247.1,416.5h5.5v-.6h-5.5Zm0,-2.2h5.5v-.6h-5.5Z" class="g1_200"/>
<path d="M254.5,410.8v.1c.3,0,.8,.1,1,.1c.3,.2,.3,.3,.3,.8v4.7c0,.3,0,.5,0,.6c-.1,.5,-.7,.6,-1.2,.6v.1H258v-.1c-.4,0,-.9,0,-1.1,-.2c-.1,-.3,-.1,-.6,-.1,-1v-6.3c-.6,.3,-1.6,.5,-2.3,.6Z" class="g1_200"/>
<path d="M269.6,407.6c0,-.5,-.4,-1,-1,-1c-.3,0,-.6,.2,-.9,.4c-.4,.2,-.7,.5,-.9,.9c0,-.7,-.4,-1.3,-1,-1.3c-1.2,0,-2.1,1.2,-2.5,2l.2,.1c.4,-.5,1.1,-1.7,2,-1.7c.3,0,.4,.6,.4,1c0,.3,-.1,.7,-.2,1.2l-.4,1.1c-.1,.6,-.4,1.4,-.7,1.8c-.1,.3,-.4,.7,-.8,.7c-.4,0,-.7,-.1,-.6,-.5c.1,-.3,0,-.8,-.4,-.8c-.4,0,-.6,.4,-.6,.8c0,.6,.5,.9,1,.9c1,0,1.8,-.7,2.2,-1.4c.1,.8,.5,1.4,1.3,1.4c1.2,0,2,-1.1,2.5,-1.8l-.2,-.2c-.5,.7,-1.2,1.7,-2,1.7c-.4,0,-.6,-.6,-.6,-1.2c0,-.4,0,-.8,.1,-1.4l.2,-.7c.1,-.6,.4,-1.2,.6,-1.6c.2,-.3,.6,-1,1,-1c.4,0,.4,.3,.3,.7c0,.4,.2,.5,.5,.5c.4,0,.5,-.3,.5,-.6Z" class="g1_200"/>
<path d="M272.7,408.7c0,-.3,-.2,-.6,-.5,-.6c-.3,0,-.6,.2,-.6,.6c0,.3,.3,.5,.6,.5c.2,0,.5,-.3,.5,-.5Zm-2,6.7c.9,0,1.5,-.8,1.7,-1.4l-.2,-.1c-.1,.3,-.5,1.1,-1,1.1c-.1,0,-.2,-.2,-.2,-.3c0,-.2,.1,-.6,.2,-.8l.7,-2.1c.1,-.3,.2,-.4,.2,-.6c0,-.3,-.1,-.6,-.4,-.6c-.7,0,-1.5,.8,-1.7,1.4l.2,.1c.1,-.2,.5,-.8,.8,-.8c.1,0,.2,.1,.2,.2c0,.2,-.1,.5,-.2,.7l-.7,2c-.1,.3,-.1,.5,-.1,.7c0,.3,.1,.5,.5,.5Z" class="g1_200"/>
<path d="M282.4,401.2l.2,-.3l-1.4,5.3c-.1,.3,-.1,.5,-.2,.6c-.1,.3,-.3,.6,-.6,.7c-.1,0,-.2,.1,-.4,.1l-.1,.1h3.2v-.1c-.3,0,-.6,-.1,-.7,-.2c-.2,-.1,-.2,-.3,-.2,-.6c0,-.1,0,-.4,.1,-.7l1.1,-4c.1,-.4,.1,-.6,.2,-.8c.1,-.4,.3,-.7,.6,-.9c.1,-.1,.3,-.1,.5,-.1v-.1h-2l-3.6,5.8H279l-.7,-5.8h-2.4v.1c.3,0,.5,0,.7,.1c.1,.1,.3,.3,.3,.5c0,.2,0,.5,-.1,.8l-1.2,4.5c-.1,.4,-.4,.8,-.6,1c-.3,.2,-.7,.4,-1,.4v.1h2.7l.1,-.1c-.3,-.1,-.6,-.1,-.7,-.3c-.1,-.1,-.3,-.5,-.3,-.7c0,-.2,0,-.3,0,-.5l1.3,-4.9l.1,-.2l.8,6.7h.3l4.1,-6.5Z" class="g1_200"/>
<path d="M311.7,411.8h-.3c-.3,1.8,-1,2.7,-2,2.7h-5.8l4.3,-5.5L304,403.3h4.8c1.1,0,1.8,.6,2.1,2.4h.3l-.1,-3h-8.9l4.6,6.5l-5.2,6.6h10l.1,-4Z" class="g1_200"/>
<path d="M318.7,406.9h.3l1.6,-6c0,-.2,.1,-.3,.2,-.5c.1,-.2,.3,-.7,.6,-.8c.1,-.1,.3,-.1,.4,-.1l.1,-.2h-2.3v.2c.2,0,.4,.1,.6,.3c.1,.1,.2,.5,.2,.8c0,.1,-.1,.2,-.1,.4l-1,4l-.1,.1l-2.5,-5.8h-1.9l-.1,.2c.4,0,.6,0,.7,.2c.3,.2,.4,.7,.4,1c0,.1,0,.2,0,.3l-1.2,4.4c-.1,.4,-.3,.7,-.6,1c-.2,.2,-.6,.3,-1,.3v.2h2.8l.1,-.2c-.3,0,-.6,0,-.8,-.2c-.1,-.2,-.3,-.5,-.3,-.8c0,-.1,0,-.2,.1,-.4L316,401l.1,-.2l2.6,6.1Z" class="g1_200"/>
<path d="M316,411.1c0,-.2,-.3,-.5,-.6,-.5c-.3,0,-.5,.2,-.5,.5c0,.3,.3,.6,.5,.6c.3,0,.6,-.3,.6,-.6Zm-2.1,6.8c1,0,1.5,-.8,1.8,-1.4l-.2,-.1c-.2,.3,-.6,1.1,-1,1.1c-.1,0,-.2,-.2,-.2,-.3c0,-.2,.1,-.7,.2,-.8l.7,-2.1c.1,-.3,.1,-.4,.1,-.6c0,-.3,0,-.6,-.3,-.6c-.7,0,-1.5,.8,-1.8,1.4l.2,.1c.2,-.2,.6,-.8,.8,-.8c.2,0,.2,.1,.2,.2c.1,.2,0,.5,-.1,.7l-.7,2c-.1,.3,-.2,.5,-.2,.7c0,.3,.2,.5,.5,.5Z" class="g1_200"/>
<path d="M317.2,416.5h5.6v-.6h-5.6Zm0,-2.2h5.6v-.6h-5.6Z" class="g1_200"/>
<path d="M324.7,410.8v.1c.3,0,.8,.1,.9,.1c.3,.2,.3,.3,.3,.8v4.7c0,.3,0,.5,0,.6c-.1,.5,-.6,.6,-1.2,.6v.1h3.4v-.1c-.3,0,-.9,0,-1,-.2c-.2,-.3,-.2,-.6,-.2,-1v-6.3c-.6,.3,-1.5,.5,-2.2,.6Z" class="g1_200"/>
<path d="M339.7,407.6c0,-.5,-.4,-1,-1,-1c-.3,0,-.6,.2,-.9,.4c-.3,.2,-.6,.5,-.8,.9c0,-.7,-.5,-1.3,-1.1,-1.3c-1.1,0,-2.1,1.2,-2.4,2l.2,.1c.3,-.5,1.1,-1.7,1.9,-1.7c.3,0,.4,.6,.4,1c0,.3,0,.7,-.2,1.2l-.3,1.1c-.2,.6,-.4,1.4,-.7,1.8c-.2,.3,-.5,.7,-.8,.7c-.5,0,-.8,-.1,-.7,-.5c.1,-.3,.1,-.8,-.4,-.8c-.4,0,-.6,.4,-.6,.8c0,.6,.5,.9,1.1,.9c1,0,1.7,-.7,2.1,-1.4c.1,.8,.5,1.4,1.4,1.4c1.1,0,2,-1.1,2.4,-1.8l-.2,-.2c-.5,.7,-1.2,1.7,-2,1.7c-.4,0,-.6,-.6,-.6,-1.2c0,-.4,0,-.8,.2,-1.4l.2,-.7c.1,-.6,.3,-1.2,.6,-1.6c.2,-.3,.5,-1,.9,-1c.4,0,.4,.3,.4,.7c-.1,.4,.1,.5,.4,.5c.4,0,.5,-.3,.5,-.6Z" class="g1_200"/>
<path d="M342.9,408.7c0,-.3,-.3,-.6,-.6,-.6c-.3,0,-.5,.2,-.5,.6c0,.3,.2,.5,.5,.5c.3,0,.6,-.3,.6,-.5Zm-2.1,6.7c1,0,1.5,-.8,1.8,-1.4l-.2,-.1c-.2,.3,-.6,1.1,-1,1.1c-.1,0,-.3,-.2,-.3,-.3c0,-.2,.2,-.6,.2,-.8l.8,-2.1c.1,-.3,.1,-.4,.1,-.6c0,-.3,0,-.6,-.4,-.6c-.6,0,-1.5,.8,-1.7,1.4l.2,.1c.2,-.2,.6,-.8,.8,-.8c.2,0,.2,.1,.2,.2c0,.2,0,.5,-.1,.7l-.8,2c0,.3,-.1,.5,-.1,.7c0,.3,.1,.5,.5,.5Z" class="g1_200"/>
<path d="M352.5,401.2l.3,-.3l-1.5,5.3c0,.3,-.1,.5,-.2,.6c-.1,.3,-.3,.6,-.5,.7c-.1,0,-.3,.1,-.5,.1v.1h3.1l.1,-.1c-.4,0,-.7,-.1,-.8,-.2c-.1,-.1,-.2,-.3,-.2,-.6c0,-.1,.1,-.4,.1,-.7l1.1,-4c.1,-.4,.2,-.6,.2,-.8c.1,-.4,.4,-.7,.6,-.9c.2,-.1,.3,-.1,.5,-.1v-.1h-1.9l-3.7,5.8h-.1l-.7,-5.8h-2.3l-.1,.1c.4,0,.6,0,.7,.1c.2,.1,.3,.3,.3,.5c0,.2,0,.5,-.1,.8l-1.2,4.5c-.1,.4,-.3,.8,-.6,1c-.2,.2,-.6,.4,-.9,.4l-.1,.1h2.7l.1,-.1c-.3,-.1,-.5,-.1,-.7,-.3c-.1,-.1,-.3,-.5,-.3,-.7c0,-.2,0,-.3,.1,-.5l1.3,-4.9V401l.9,6.7h.3l4,-6.5Z" class="g1_200"/>
<path d="M358.1,404.6h-2.4v.7h2.4v2.4h.7v-2.4h2.4v-.7h-2.4v-2.4h-.7v2.4Z" class="g1_200"/>
<path d="M363,400.6v.2c.3,0,.8,0,.9,.1c.4,.2,.4,.3,.4,.8v4.7c0,.2,0,.4,-.1,.6c0,.5,-.6,.5,-1.2,.6v.1h3.5v-.1c-.4,-.1,-.9,-.1,-1.1,-.3c-.2,-.2,-.2,-.5,-.2,-1v-6.2c-.5,.3,-1.5,.5,-2.2,.5Z" class="g1_200"/>
<path d="M386.2,409.3c0,-.4,-.4,-.8,-.9,-.8c-.4,0,-.8,.3,-.8,.8c0,.6,.5,.8,.8,.8c.3,0,.9,-.2,.9,-.8Z" class="g1_200"/>
<path d="M392.7,409.3c0,-.4,-.4,-.8,-.9,-.8c-.4,0,-.8,.3,-.8,.8c0,.6,.5,.8,.8,.8c.4,0,.9,-.2,.9,-.8Z" class="g1_200"/>
<path d="M399.2,409.3c0,-.4,-.4,-.8,-.8,-.8c-.5,0,-.9,.3,-.9,.8c0,.6,.5,.8,.9,.8c.3,0,.8,-.2,.8,-.8Z" class="g1_200"/>
<path d="M428.6,411.8h-.3c-.3,1.8,-1,2.7,-2.1,2.7h-5.8l4.3,-5.5l-3.8,-5.7h4.7c1.1,0,1.8,.6,2.1,2.4h.3v-3h-9l4.6,6.5l-5.2,6.6h10l.2,-4Z" class="g1_200"/>
<path d="M435.6,406.9h.2l1.6,-6c.1,-.2,.1,-.3,.2,-.5c.1,-.2,.4,-.7,.6,-.8c.1,-.1,.4,-.1,.5,-.1v-.2h-2.2l-.1,.2c.3,0,.5,.1,.6,.3c.2,.1,.2,.5,.2,.8c0,.1,0,.2,-.1,.4l-1,4v.1l-2.6,-5.8h-1.9l-.1,.2c.5,0,.6,0,.8,.2c.2,.2,.4,.7,.4,1c0,.1,-.1,.2,-.1,.3l-1.2,4.4c0,.4,-.3,.7,-.5,1c-.3,.2,-.7,.3,-1,.3v.2h2.8v-.2c-.3,0,-.6,0,-.7,-.2c-.2,-.2,-.3,-.5,-.3,-.8c0,-.1,0,-.2,0,-.4l1.1,-4.3l.1,-.2l2.7,6.1Z" class="g1_200"/>
<path d="M432.8,411.1c0,-.2,-.2,-.5,-.5,-.5c-.3,0,-.6,.2,-.6,.5c0,.3,.3,.6,.6,.6c.2,0,.5,-.3,.5,-.6Zm-2,6.8c.9,0,1.5,-.8,1.7,-1.4l-.2,-.1c-.1,.3,-.5,1.1,-1,1.1c-.1,0,-.2,-.2,-.2,-.3c0,-.2,.1,-.7,.2,-.8l.7,-2.1c.1,-.3,.2,-.4,.2,-.6c0,-.3,-.1,-.6,-.4,-.6c-.7,0,-1.5,.8,-1.7,1.4l.2,.1c.1,-.2,.5,-.8,.8,-.8c.1,0,.2,.1,.2,.2c0,.2,-.1,.5,-.2,.7l-.7,2c-.1,.3,-.1,.5,-.1,.7c0,.3,.1,.5,.5,.5Z" class="g1_200"/>
<path d="M434,416.5h5.6v-.6H434Zm0,-2.2h5.6v-.6H434Z" class="g1_200"/>
<path d="M441.5,410.8v.1c.3,0,.8,.1,.9,.1c.4,.2,.4,.3,.4,.8v4.7c0,.3,0,.5,-.1,.6c0,.5,-.6,.6,-1.2,.6v.1H445v-.1c-.4,0,-.9,0,-1.1,-.2c-.2,-.3,-.2,-.6,-.2,-1v-6.3c-.5,.3,-1.5,.5,-2.2,.6Z" class="g1_200"/>
<path d="M456.6,407.6c0,-.5,-.5,-1,-1,-1c-.3,0,-.7,.2,-1,.4c-.3,.2,-.6,.5,-.8,.9c0,-.7,-.4,-1.3,-1.1,-1.3c-1.1,0,-2.1,1.2,-2.4,2l.2,.1c.4,-.5,1.1,-1.7,2,-1.7c.2,0,.4,.6,.4,1c0,.3,-.1,.7,-.2,1.2l-.4,1.1c-.1,.6,-.4,1.4,-.7,1.8c-.2,.3,-.4,.7,-.8,.7c-.4,0,-.7,-.1,-.6,-.5c.1,-.3,0,-.8,-.4,-.8c-.5,0,-.7,.4,-.7,.8c0,.6,.5,.9,1.1,.9c1,0,1.7,-.7,2.1,-1.4h.1c.1,.8,.5,1.4,1.3,1.4c1.2,0,2,-1.1,2.5,-1.8l-.2,-.2c-.5,.7,-1.2,1.7,-2,1.7c-.5,0,-.7,-.6,-.7,-1.2c0,-.4,.1,-.8,.2,-1.4l.2,-.7c.1,-.6,.4,-1.2,.6,-1.6c.2,-.3,.6,-1,1,-1c.4,0,.3,.3,.3,.7c0,.4,.1,.5,.5,.5c.3,0,.5,-.3,.5,-.6Z" class="g1_200"/>
<path d="M459.7,408.7c0,-.3,-.2,-.6,-.5,-.6c-.4,0,-.6,.2,-.6,.6c0,.3,.3,.5,.6,.5c.2,0,.5,-.3,.5,-.5Zm-2,6.7c.9,0,1.4,-.8,1.7,-1.4l-.2,-.1c-.1,.3,-.5,1.1,-1,1.1c-.1,0,-.2,-.2,-.2,-.3c0,-.2,.1,-.6,.2,-.8l.7,-2.1c.1,-.3,.1,-.4,.1,-.6c0,-.3,0,-.6,-.3,-.6c-.7,0,-1.5,.8,-1.8,1.4l.2,.1c.2,-.2,.6,-.8,.9,-.8c.1,0,.2,.1,.2,.2c0,.2,-.1,.5,-.2,.7l-.7,2c-.1,.3,-.1,.5,-.1,.7c0,.3,.1,.5,.5,.5Z" class="g1_200"/>
<path d="M469.4,401.2l.2,-.3l-1.4,5.3c-.1,.3,-.2,.5,-.2,.6c-.1,.3,-.3,.6,-.6,.7c-.1,0,-.3,.1,-.4,.1l-.1,.1H470l.1,-.1c-.3,0,-.6,-.1,-.8,-.2c-.1,-.1,-.1,-.3,-.1,-.6c0,-.1,0,-.4,.1,-.7l1,-4c.1,-.4,.2,-.6,.3,-.8c.1,-.4,.3,-.7,.6,-.9c.1,-.1,.2,-.1,.4,-.1l.1,-.1h-2l-3.6,5.8h-.2l-.7,-5.8h-2.3v.1c.3,0,.5,0,.6,.1c.2,.1,.4,.3,.4,.5c0,.2,-.1,.5,-.2,.8l-1.2,4.5c0,.4,-.3,.8,-.6,1c-.2,.2,-.6,.4,-.9,.4v.1h2.7v-.1c-.2,-.1,-.5,-.1,-.6,-.3c-.2,-.1,-.3,-.5,-.3,-.7c0,-.2,0,-.3,0,-.5l1.3,-4.9l.1,-.2l.8,6.7h.3l4.1,-6.5Z" class="g1_200"/>
<path d="M475,404.6h-2.4v.7H475v2.4h.7v-2.4H478v-.7h-2.3v-2.4H475v2.4Z" class="g1_200"/>
<path d="M486.5,401.2l.3,-.3l-1.5,5.3c0,.3,-.1,.5,-.2,.6c-.1,.3,-.3,.6,-.5,.7c-.1,0,-.3,.1,-.5,.1v.1h3.1l.1,-.1c-.4,0,-.7,-.1,-.8,-.2c-.2,-.1,-.2,-.3,-.2,-.6c0,-.1,.1,-.4,.1,-.7l1.1,-4c.1,-.4,.2,-.6,.2,-.8c.1,-.4,.4,-.7,.6,-.9c.2,-.1,.3,-.1,.5,-.1v-.1h-1.9l-3.7,5.8h-.1l-.7,-5.8h-2.3l-.1,.1c.4,0,.6,0,.7,.1c.1,.1,.3,.3,.3,.5c0,.2,0,.5,-.1,.8l-1.2,4.5c-.1,.4,-.3,.8,-.6,1c-.2,.2,-.6,.4,-.9,.4l-.1,.1h2.7l.1,-.1c-.3,-.1,-.5,-.1,-.7,-.3c-.1,-.1,-.3,-.5,-.3,-.7c0,-.2,0,-.3,.1,-.5l1.3,-4.9V401l.9,6.7h.3l4,-6.5Z" class="g1_200"/>
<path d="M490.6,336.5c0,.1,.1,.2,.1,.3c3.2,5.4,4,19.2,4,20.4v.6h1.4v-.6c0,-1.6,-.5,-15.5,-5.3,-20.8c0,0,-.1,0,-.1,0c0,0,-.1,0,-.1,.1Z" class="g1_200"/>
<path d="M494.7,367.1h1.4v-9.6h-1.4Z" class="g1_200"/>
<path d="M494.7,376h1.4v-9.6h-1.4Z" class="g1_200"/>
<path d="M494.7,385h1.4v-9.6h-1.4Z" class="g1_200"/>
<path d="M494.7,393.9h1.4v-9.6h-1.4Z" class="g1_200"/>
<path d="M490.6,415.1c0,0,.1,.1,.1,.1c0,0,.1,0,.1,-.1c4.8,-5.3,5.3,-19.1,5.3,-20.7v-.7h-1.4v.7c0,1.2,-.8,14.9,-4,20.3c0,.2,-.1,.3,-.1,.4Z" class="g1_200"/>
<path d="M505.6,336.5q0,-.1,-.1,-.1c0,0,-.1,0,-.1,0c-4.7,5.3,-5.3,19.2,-5.3,20.8v.6h1.4v-.6c0,-1.2,.8,-15,4,-20.4c0,-.1,.1,-.2,.1,-.3Z" class="g1_200"/>
<path d="M500.1,367.1h1.4v-9.6h-1.4Z" class="g1_200"/>
<path d="M500.1,376h1.4v-9.6h-1.4Z" class="g1_200"/>
<path d="M500.1,385h1.4v-9.6h-1.4Z" class="g1_200"/>
<path d="M500.1,393.9h1.4v-9.6h-1.4Z" class="g1_200"/>
<path d="M505.6,415.1c0,-.1,-.1,-.2,-.1,-.4c-3.2,-5.4,-4,-19.1,-4,-20.3v-.7h-1.4v.7c0,1.6,.6,15.4,5.3,20.7c0,.1,.1,.1,.1,.1c.1,0,.1,-.1,.1,-.1Z" class="g1_200"/>
<path d="M513,341c-.4,0,-.8,.1,-1.3,.5c-.4,.3,-.8,.6,-1.2,1.1c-.6,.8,-1.3,2,-1.3,3.3c0,1,.4,1.7,1.4,1.7c1.3,0,1.7,-.9,2.1,-1.6h.1c-.3,1,-.1,1.6,.5,1.6c.4,0,.7,-.2,1.1,-.5c.4,-.3,.8,-.8,1.1,-1.4l-.2,-.1c-.2,.4,-.9,1.4,-1.3,1.4c-.2,0,-.3,-.4,-.3,-.6c0,-.9,.6,-2.4,1,-3.4l.7,-1.9h-1l-.3,.7c-.2,-.5,-.5,-.8,-1.1,-.8Zm.2,.3c.7,0,.5,1.3,.4,1.9c0,.3,-.2,.6,-.3,.9c-.4,1.2,-1.4,3.2,-2.2,3.2c-.6,0,-.8,-1,-.8,-1.5c0,-.4,0,-.9,.2,-1.3c.4,-1.1,1.4,-3.2,2.7,-3.2Z" class="g1_200"/>
<path d="M519,349.7c-1.4,0,-1.4,-1.9,-1.4,-3.5c0,-1.7,0,-3.8,1.4,-3.8c1.4,0,1.4,2.1,1.4,3.8c0,1.6,0,3.5,-1.4,3.5Zm0,-7.5c-1.9,0,-2.4,2,-2.4,3.9c0,1.9,.6,3.8,2.4,3.8c1.9,0,2.5,-1.9,2.5,-3.8c0,-1.9,-.6,-3.9,-2.5,-3.9Z" class="g1_200"/>
<path d="M513,358.9c-.4,0,-.8,.1,-1.3,.5c-.4,.3,-.8,.6,-1.2,1.1c-.6,.8,-1.3,2,-1.3,3.3c0,1,.4,1.7,1.4,1.7c1.3,0,1.7,-.9,2.1,-1.5h.1c-.3,.9,-.1,1.5,.5,1.5c.4,0,.7,-.2,1.1,-.5c.4,-.3,.8,-.8,1.1,-1.4l-.2,-.1c-.2,.4,-.9,1.4,-1.3,1.4c-.2,0,-.3,-.4,-.3,-.6c0,-.9,.6,-2.4,1,-3.4l.7,-1.9h-1l-.3,.7c-.2,-.5,-.5,-.8,-1.1,-.8Zm.2,.3c.7,0,.5,1.3,.4,1.9c0,.3,-.2,.6,-.3,.9c-.4,1.2,-1.4,3.2,-2.2,3.2c-.6,0,-.8,-1,-.8,-1.5c0,-.4,0,-.9,.2,-1.3c.4,-1.1,1.4,-3.2,2.7,-3.2Z" class="g1_200"/>
<path d="M517.4,360.7v.1c.4,0,.8,.1,1,.1c.3,.2,.3,.3,.3,.8v4.7c0,.3,0,.5,0,.6c-.1,.5,-.7,.6,-1.2,.6v.1h3.4v-.1c-.4,0,-.9,-.1,-1.1,-.3c-.1,-.2,-.1,-.5,-.1,-.9v-6.3c-.6,.3,-1.6,.5,-2.3,.6Z" class="g1_200"/>
<path d="M515.7,381.5c.5,0,.9,-.4,.9,-.9c0,-.5,-.4,-.9,-.9,-.9c-.5,0,-.9,.4,-.9,.9c0,.4,.4,.9,.9,.9Z" class="g1_200"/>
<path d="M515.7,387.4c.5,0,.9,-.4,.9,-.9c0,-.5,-.4,-.8,-.9,-.8c-.5,0,-.9,.4,-.9,.8c0,.5,.4,.9,.9,.9Z" class="g1_200"/>
<path d="M515.7,393.4c.5,0,.9,-.4,.9,-.9c0,-.5,-.4,-.9,-.9,-.9c-.5,0,-.9,.4,-.9,.9c0,.5,.4,.9,.9,.9Z" class="g1_200"/>
<path d="M510.6,404.7c-.5,0,-.9,.1,-1.3,.4c-.5,.3,-.9,.7,-1.3,1.2c-.6,.7,-1.2,1.9,-1.2,3.2c0,1,.4,1.8,1.3,1.8c1.3,0,1.8,-.9,2.2,-1.6c-.2,.9,-.1,1.6,.5,1.6c.4,0,.8,-.2,1.2,-.5c.4,-.3,.7,-.8,1.1,-1.4l-.2,-.1c-.3,.4,-.9,1.3,-1.4,1.3c-.2,0,-.2,-.3,-.2,-.5c0,-.9,.6,-2.5,.9,-3.5l.7,-1.8h-1l-.3,.7c-.1,-.5,-.4,-.8,-1,-.8Zm.1,.3c.7,0,.6,1.3,.5,1.8c-.1,.3,-.2,.7,-.3,1c-.4,1.2,-1.5,3.1,-2.3,3.1c-.6,0,-.8,-.9,-.8,-1.4c0,-.5,0,-.9,.2,-1.4c.4,-1,1.4,-3.1,2.7,-3.1Z" class="g1_200"/>
<path d="M521.6,407l.3,-.4l-1.4,5.4c-.1,.3,-.2,.5,-.2,.6c-.1,.3,-.3,.5,-.6,.7c-.1,0,-.3,0,-.4,0l-.1,.2h3.1l.1,-.2c-.4,0,-.6,0,-.8,-.1c-.1,-.1,-.1,-.3,-.1,-.6c0,-.1,0,-.4,.1,-.7l1,-4c.1,-.4,.2,-.6,.3,-.9c.1,-.3,.3,-.6,.6,-.8c.1,-.1,.2,-.1,.4,-.1l.1,-.1h-2l-3.6,5.8h-.2l-.7,-5.8h-2.3l-.1,.1c.4,0,.6,0,.7,.1c.2,.1,.4,.3,.4,.5c0,.2,-.1,.5,-.2,.8l-1.2,4.5c0,.4,-.3,.7,-.6,1c-.2,.2,-.6,.3,-.9,.3v.2H516v-.2c-.2,0,-.5,0,-.6,-.2c-.2,-.2,-.3,-.5,-.3,-.7c0,-.2,0,-.3,0,-.5l1.3,-4.9l.1,-.2l.8,6.7h.3l4,-6.5Z" class="g1_200"/>
<path d="M525.7,336.5c0,.1,.1,.2,.2,.3c3.2,5.4,3.9,19.2,3.9,20.4v.6h1.4v-.6c0,-1.6,-.5,-15.5,-5.3,-20.8h-.1c0,0,-.1,0,-.1,.1Z" class="g1_200"/>
<path d="M529.8,367.1h1.4v-9.6h-1.4Z" class="g1_200"/>
<path d="M529.8,376h1.4v-9.6h-1.4Z" class="g1_200"/>
<path d="M529.8,385h1.4v-9.6h-1.4Z" class="g1_200"/>
<path d="M529.8,393.9h1.4v-9.6h-1.4Z" class="g1_200"/>
<path d="M525.7,415.1c0,0,.1,.1,.1,.1q.1,0,.1,-.1c4.8,-5.3,5.3,-19.1,5.3,-20.7v-.7h-1.4v.7c0,1.2,-.7,14.9,-3.9,20.3c-.1,.2,-.2,.3,-.2,.4Z" class="g1_200"/>
<path d="M536.7,377.7h7.7v-.8h-7.7Zm0,-3h7.7v-.9h-7.7Z" class="g1_200"/>
<path d="M555.4,336.5c0,-.1,-.1,-.1,-.1,-.1c0,0,-.1,0,-.1,0c-4.8,5.3,-5.3,19.2,-5.3,20.8v.6h1.4v-.6c0,-1.2,.8,-15,3.9,-20.4c.1,-.1,.2,-.2,.2,-.3Z" class="g1_200"/>
<path d="M549.9,367.1h1.4v-9.6h-1.4Z" class="g1_200"/>
<path d="M549.9,376h1.4v-9.6h-1.4Z" class="g1_200"/>
<path d="M549.9,385h1.4v-9.6h-1.4Z" class="g1_200"/>
<path d="M549.9,393.9h1.4v-9.6h-1.4Z" class="g1_200"/>
<path d="M555.4,415.1c0,-.1,-.1,-.2,-.2,-.4c-3.1,-5.4,-3.9,-19.1,-3.9,-20.3v-.7h-1.4v.7c0,1.6,.5,15.4,5.3,20.7c0,.1,.1,.1,.1,.1c0,0,.1,-.1,.1,-.1Z" class="g1_200"/>
<path d="M578.4,345.5h-.3c-.3,1.8,-1,2.7,-2,2.7h-5.8l4.3,-5.5L570.8,337h4.7c1.1,0,1.8,.6,2.1,2.4h.3l-.1,-3h-8.9l4.6,6.5l-5.2,6.6h10l.1,-4Z" class="g1_200"/>
<path d="M585.4,340.6h.3l1.6,-6c0,-.2,.1,-.3,.2,-.5c.1,-.2,.3,-.7,.6,-.8c.1,-.1,.3,-.1,.5,-.1V333h-2.3v.2c.2,0,.4,.1,.6,.3c.1,.1,.2,.5,.2,.8c0,.1,-.1,.2,-.1,.4l-1,4l-.1,.1L583.4,333h-1.9l-.1,.2c.4,0,.6,0,.7,.2c.3,.2,.4,.7,.4,1c0,.1,0,.2,0,.3l-1.2,4.4c-.1,.4,-.3,.7,-.6,1c-.2,.2,-.6,.3,-.9,.3l-.1,.2h2.8l.1,-.2c-.3,0,-.6,0,-.8,-.2c-.1,-.2,-.3,-.5,-.3,-.8c0,-.1,0,-.2,.1,-.4l1.1,-4.3l.1,-.2l2.6,6.1Z" class="g1_200"/>
<path d="M582.7,344.8c0,-.2,-.3,-.5,-.6,-.5c-.3,0,-.5,.2,-.5,.5c0,.3,.3,.6,.5,.6c.3,0,.6,-.3,.6,-.6Zm-2.1,6.8c1,0,1.5,-.8,1.8,-1.4l-.2,-.1c-.2,.3,-.6,1.1,-1,1.1c-.1,0,-.2,-.2,-.2,-.3c0,-.2,.1,-.7,.2,-.8l.7,-2.1c.1,-.3,.1,-.4,.1,-.6c0,-.3,0,-.6,-.3,-.6c-.7,0,-1.5,.8,-1.8,1.4l.2,.1c.2,-.2,.6,-.8,.8,-.8c.2,0,.3,.1,.3,.2c0,.2,-.1,.5,-.2,.7l-.7,2c-.1,.3,-.2,.5,-.2,.7c0,.3,.2,.5,.5,.5Z" class="g1_200"/>
<path d="M583.9,350.2h5.6v-.6h-5.6Zm0,-2.2h5.6v-.6h-5.6Z" class="g1_200"/>
<path d="M591.4,344.5v.1c.3,0,.8,.1,.9,.1c.4,.2,.3,.3,.4,.8v4.7c0,.3,-.1,.5,-.1,.6c-.1,.5,-.6,.6,-1.2,.6v.1h3.4v-.1c-.3,0,-.9,0,-1,-.2c-.2,-.3,-.2,-.6,-.2,-1v-6.3c-.6,.3,-1.5,.5,-2.2,.6Z" class="g1_200"/>
<path d="M598.2,349c0,.6,.5,.9,1.1,.9c.5,0,.8,-.1,1.3,-.5c.8,-.7,2.1,-2.3,2.8,-3.5c.4,-.6,.8,-1.2,1.1,-1.8c.3,-.7,1.1,-2.1,1.1,-2.9c0,-.2,-.1,-.4,-.2,-.6c-.1,-.2,-.2,-.3,-.4,-.3c-.2,0,-.3,.1,-.5,.3c-.1,.1,-.2,.3,-.2,.6c0,.4,.2,.9,.2,1.3c0,.6,-.2,1.1,-.4,1.6c-.3,.5,-.5,.9,-.8,1.4h-.1l-.3,-1.9c-.1,-.6,-.4,-1.6,-.5,-2.1c-.2,-.6,-.3,-1.2,-1.3,-1.2c-1.1,0,-1.3,1.8,-1.6,2.6l.3,.1c.1,-.6,.6,-2.3,1.1,-2.3c.3,0,.4,1,.5,1.2c.1,.3,.2,.7,.3,1.4l.6,3.5c-.4,.8,-1.2,1.7,-1.8,2.2c-.2,.2,-.6,.2,-.7,.2c-.1,0,-.2,0,-.3,-.1c-.2,-.3,-.2,-.8,-.7,-.8c-.4,0,-.6,.3,-.6,.7Z" class="g1_200"/>
<path d="M608.8,342.4c0,-.3,-.3,-.6,-.6,-.6c-.3,0,-.6,.3,-.6,.6c0,.3,.3,.5,.6,.5c.3,0,.6,-.3,.6,-.5Zm-2.1,6.7c1,0,1.5,-.8,1.7,-1.4l-.2,-.1c-.1,.3,-.5,1.1,-1,1.1c-.1,0,-.2,-.2,-.2,-.3c0,-.2,.1,-.6,.2,-.8l.7,-2.1c.1,-.3,.2,-.4,.2,-.6c0,-.3,0,-.6,-.4,-.6c-.7,0,-1.5,.8,-1.7,1.4l.2,.1c.1,-.2,.5,-.8,.8,-.8c.2,0,.2,.1,.2,.2c0,.2,-.1,.5,-.2,.7l-.7,2c-.1,.3,-.1,.5,-.1,.7c0,.4,.1,.5,.5,.5Z" class="g1_200"/>
<path d="M572.5,364.7h-.3c-.3,1.9,-1,2.7,-2,2.7h-5.8l4.3,-5.5l-3.9,-5.7h4.8c1.1,0,1.8,.6,2.1,2.5h.3l-.1,-3.1H563l4.5,6.5l-5.1,6.6h10l.1,-4Z" class="g1_200"/>
<path d="M579.5,359.8h.3l1.6,-6c0,-.2,.1,-.3,.1,-.5c.2,-.2,.4,-.7,.7,-.8c.1,-.1,.3,-.1,.4,-.1l.1,-.1h-2.3v.1c.2,0,.4,.1,.6,.3c.1,.1,.1,.6,.1,.8c0,.1,0,.3,0,.4l-1.1,4v.1l-2.5,-5.7h-2v.1c.4,0,.6,0,.7,.2c.2,.2,.4,.7,.4,1c0,.1,0,.2,0,.3l-1.2,4.4c-.1,.4,-.3,.7,-.6,1c-.2,.2,-.7,.3,-1,.3v.2h2.8v-.2c-.3,0,-.6,0,-.7,-.2c-.2,-.1,-.3,-.5,-.3,-.7c0,-.2,0,-.3,0,-.5l1.2,-4.3v-.2l2.7,6.1Z" class="g1_200"/>
<path d="M576.8,364.1c0,-.3,-.3,-.6,-.6,-.6c-.3,0,-.5,.2,-.5,.6c0,.3,.2,.5,.5,.5c.3,0,.6,-.3,.6,-.5Zm-2.1,6.7c1,0,1.5,-.8,1.8,-1.4l-.2,-.1c-.2,.3,-.6,1.1,-1,1.1c-.1,0,-.3,-.2,-.3,-.3c0,-.2,.2,-.6,.2,-.8l.8,-2.1c.1,-.3,.1,-.4,.1,-.6c0,-.3,0,-.6,-.4,-.6c-.6,0,-1.5,.8,-1.7,1.4l.2,.1c.2,-.2,.6,-.8,.8,-.8c.2,0,.2,.1,.2,.2c.1,.2,0,.5,-.1,.7l-.7,2c-.1,.3,-.2,.5,-.2,.7c0,.3,.2,.5,.5,.5Z" class="g1_200"/>
<path d="M578,369.4h5.5v-.6H578Zm0,-2.2h5.5v-.6H578Z" class="g1_200"/>
<path d="M585.4,363.7v.1c.4,0,.8,.1,1,.2c.3,.1,.3,.2,.3,.7v4.8c0,.2,0,.4,0,.5c-.1,.5,-.7,.6,-1.2,.6v.2h3.4v-.2c-.4,0,-.9,0,-1,-.2c-.2,-.2,-.2,-.6,-.2,-1v-6.3c-.6,.3,-1.6,.6,-2.3,.6Z" class="g1_200"/>
<path d="M592.3,368.2c0,.6,.5,1,1.1,1c.4,0,.8,-.2,1.3,-.6c.8,-.7,2.1,-2.3,2.8,-3.5c.4,-.6,.7,-1.2,1,-1.8c.4,-.7,1.1,-2.1,1.1,-2.9c0,-.2,0,-.4,-.1,-.6c-.1,-.2,-.3,-.2,-.5,-.2c-.1,0,-.3,0,-.4,.2c-.2,.1,-.2,.3,-.2,.6c0,.4,.2,.9,.2,1.3c0,.6,-.2,1.2,-.4,1.6c-.3,.5,-.5,.9,-.9,1.4l-.4,-1.9c-.1,-.5,-.3,-1.6,-.4,-2c-.2,-.7,-.3,-1.2,-1.3,-1.2c-1.2,0,-1.4,1.7,-1.6,2.5l.3,.1c.1,-.6,.6,-2.3,1,-2.3c.3,0,.5,1,.6,1.3c0,.3,.1,.7,.2,1.3l.6,3.5c-.3,.8,-1.1,1.7,-1.7,2.2c-.3,.2,-.6,.2,-.8,.2q-.1,0,-.2,-.1c-.2,-.3,-.2,-.8,-.7,-.8c-.4,0,-.6,.3,-.6,.7Z" class="g1_200"/>
<path d="M602.8,361.6c0,-.3,-.2,-.6,-.5,-.6c-.3,0,-.6,.3,-.6,.6c0,.3,.3,.5,.6,.5c.2,0,.5,-.3,.5,-.5Zm-2,6.8c.9,-.1,1.4,-.9,1.7,-1.5l-.2,-.1c-.1,.3,-.5,1.1,-1,1.1c-.1,0,-.2,-.2,-.2,-.3c0,-.2,.1,-.6,.2,-.8l.7,-2c.1,-.4,.1,-.5,.1,-.7c0,-.3,0,-.6,-.3,-.6c-.7,0,-1.5,.9,-1.8,1.4l.3,.1c.1,-.2,.5,-.8,.8,-.8c.1,0,.2,.1,.2,.2c0,.2,-.1,.5,-.2,.7l-.7,2c-.1,.3,-.1,.5,-.1,.7c0,.4,.1,.6,.5,.6Z" class="g1_200"/>
<path d="M611.5,360.5c0,-.5,-.4,-.9,-1,-.9c-.3,0,-.6,.1,-.9,.3c-.3,.2,-.6,.5,-.9,.9c0,-.7,-.4,-1.2,-1,-1.2c-1.1,0,-2.1,1.1,-2.4,1.9l.2,.1c.3,-.5,1,-1.7,1.9,-1.7c.3,0,.4,.6,.4,1c0,.3,0,.7,-.2,1.2l-.3,1.1c-.2,.6,-.4,1.4,-.7,1.8c-.2,.3,-.5,.7,-.8,.7c-.5,0,-.8,-.1,-.7,-.5c.1,-.3,.1,-.7,-.4,-.7c-.4,0,-.6,.3,-.6,.7c0,.6,.5,1,1.1,1c1,0,1.7,-.8,2.1,-1.5c.1,.8,.5,1.5,1.4,1.5c1.1,0,2,-1.2,2.4,-1.9l-.2,-.2c-.5,.7,-1.2,1.7,-2,1.7c-.4,0,-.6,-.6,-.6,-1.2c0,-.4,0,-.8,.2,-1.4l.2,-.7c.1,-.6,.3,-1.2,.6,-1.6c.2,-.3,.5,-.9,.9,-.9c.4,0,.4,.3,.4,.6c-.1,.4,.1,.5,.4,.5c.4,0,.5,-.2,.5,-.6Z" class="g1_200"/>
<path d="M614.7,361.6c0,-.3,-.3,-.6,-.6,-.6c-.3,0,-.5,.3,-.5,.6c0,.3,.2,.5,.5,.5c.3,0,.6,-.3,.6,-.5Zm-2.1,6.8c1,-.1,1.5,-.9,1.8,-1.5l-.2,-.1c-.2,.3,-.6,1.1,-1,1.1c-.1,0,-.3,-.2,-.3,-.3c0,-.2,.2,-.6,.2,-.8l.8,-2c.1,-.4,.1,-.5,.1,-.7c0,-.3,0,-.6,-.4,-.6c-.7,0,-1.5,.9,-1.7,1.4l.2,.1c.2,-.2,.6,-.8,.8,-.8c.2,0,.2,.1,.2,.2c0,.2,-.1,.5,-.1,.7l-.8,2c0,.3,-.1,.5,-.1,.7c0,.4,.1,.6,.5,.6Z" class="g1_200"/>
<path d="M588.9,382.1c.5,0,.9,-.4,.9,-.9c0,-.5,-.4,-.8,-.9,-.8c-.4,0,-.8,.4,-.8,.8c0,.5,.4,.9,.8,.9Z" class="g1_200"/>
<path d="M588.9,388.1c.5,0,.9,-.4,.9,-.9c0,-.5,-.4,-.9,-.9,-.9c-.4,0,-.8,.4,-.8,.9c0,.5,.4,.9,.8,.9Z" class="g1_200"/>
<path d="M588.9,394c.5,0,.9,-.3,.9,-.8c0,-.5,-.4,-.9,-.9,-.9c-.4,0,-.8,.4,-.8,.9c0,.4,.4,.8,.8,.8Z" class="g1_200"/>
<path d="M566.6,411.8h-.3c-.3,1.8,-1,2.7,-2,2.7h-5.8l4.3,-5.5l-3.9,-5.7h4.8c1.1,0,1.8,.6,2.1,2.4h.3l-.1,-3h-8.9l4.6,6.5l-5.2,6.6h10l.1,-4Z" class="g1_200"/>
<path d="M573.6,406.9h.3l1.6,-6c0,-.2,.1,-.3,.2,-.5c.1,-.2,.3,-.7,.6,-.8c.1,-.1,.3,-.1,.4,-.1l.1,-.2h-2.3v.2c.2,0,.4,.1,.6,.3c.1,.1,.1,.5,.1,.8c0,.1,0,.2,0,.4l-1,4l-.1,.1l-2.5,-5.8h-1.9l-.1,.2c.4,0,.6,0,.7,.2c.3,.2,.4,.7,.4,1c0,.1,0,.2,0,.3l-1.2,4.4c-.1,.4,-.3,.7,-.6,1c-.2,.2,-.6,.3,-1,.3v.2h2.8l.1,-.2c-.3,0,-.6,0,-.8,-.2c-.1,-.2,-.3,-.5,-.3,-.8c0,-.1,0,-.2,.1,-.4l1.1,-4.3l.1,-.2l2.6,6.1Z" class="g1_200"/>
<path d="M570.9,411.1c0,-.2,-.3,-.5,-.6,-.5c-.3,0,-.5,.2,-.5,.5c0,.3,.3,.6,.5,.6c.3,0,.6,-.3,.6,-.6Zm-2.1,6.8c1,0,1.5,-.8,1.8,-1.4l-.2,-.1c-.2,.3,-.6,1.1,-1,1.1c-.1,0,-.2,-.2,-.2,-.3c0,-.2,.1,-.7,.2,-.8l.7,-2.1c.1,-.3,.1,-.4,.1,-.6c0,-.3,0,-.6,-.3,-.6c-.7,0,-1.5,.8,-1.8,1.4l.2,.1c.2,-.2,.6,-.8,.8,-.8c.2,0,.2,.1,.2,.2c.1,.2,0,.5,-.1,.7l-.7,2c-.1,.3,-.2,.5,-.2,.7c0,.3,.2,.5,.5,.5Z" class="g1_200"/>
<path d="M572.1,416.5h5.6v-.6h-5.6Zm0,-2.2h5.6v-.6h-5.6Z" class="g1_200"/>
<path d="M579.6,410.8v.1c.3,0,.8,.1,.9,.1c.3,.2,.3,.3,.3,.8v4.7c0,.3,0,.5,0,.6c-.1,.5,-.7,.6,-1.2,.6v.1H583v-.1c-.3,0,-.9,0,-1,-.2c-.2,-.3,-.2,-.6,-.2,-1v-6.3c-.6,.3,-1.5,.5,-2.2,.6Z" class="g1_200"/>
<path d="M586.4,415.3c0,.6,.5,.9,1.1,.9c.5,0,.8,-.1,1.3,-.5c.8,-.7,2.1,-2.3,2.8,-3.5c.4,-.6,.8,-1.2,1.1,-1.8c.3,-.7,1.1,-2.1,1.1,-2.9c0,-.2,-.1,-.4,-.2,-.6c-.1,-.2,-.2,-.3,-.4,-.3c-.2,0,-.3,.1,-.5,.2c-.1,.2,-.2,.4,-.2,.7c0,.4,.2,.9,.2,1.3c0,.6,-.2,1.1,-.4,1.6c-.3,.5,-.5,.9,-.8,1.4h-.1l-.4,-1.9c-.1,-.6,-.3,-1.6,-.4,-2.1c-.2,-.6,-.3,-1.2,-1.3,-1.2c-1.2,0,-1.3,1.8,-1.6,2.6l.3,.1c.1,-.6,.6,-2.3,1.1,-2.3c.3,0,.4,1,.5,1.2c.1,.3,.2,.7,.3,1.4l.6,3.5c-.4,.8,-1.2,1.7,-1.8,2.2c-.3,.2,-.6,.2,-.7,.2c-.1,0,-.2,0,-.3,-.1c-.2,-.3,-.2,-.8,-.7,-.8c-.4,0,-.6,.3,-.6,.7Z" class="g1_200"/>
<path d="M596.9,408.7c0,-.3,-.2,-.6,-.5,-.6c-.3,0,-.6,.2,-.6,.6c0,.3,.3,.5,.6,.5c.3,0,.5,-.3,.5,-.5Zm-2,6.7c.9,0,1.5,-.8,1.7,-1.4l-.2,-.1c-.1,.3,-.5,1.1,-1,1.1c-.1,0,-.2,-.2,-.2,-.3c0,-.2,.1,-.6,.2,-.8l.7,-2.1c.1,-.3,.2,-.4,.2,-.6c0,-.3,0,-.6,-.4,-.6c-.7,0,-1.5,.8,-1.7,1.4l.2,.1c.1,-.2,.5,-.8,.8,-.8c.1,0,.2,.1,.2,.2c0,.2,-.1,.5,-.2,.7l-.7,2c-.1,.3,-.1,.5,-.1,.7c0,.3,.1,.5,.5,.5Z" class="g1_200"/>
<path d="M605.7,407.6c0,-.5,-.5,-1,-1,-1c-.4,0,-.7,.2,-1,.4c-.3,.2,-.6,.5,-.8,.9c0,-.7,-.5,-1.3,-1.1,-1.3c-1.1,0,-2.1,1.2,-2.4,2l.2,.1c.3,-.5,1.1,-1.7,2,-1.7c.2,0,.3,.6,.3,1c0,.3,0,.7,-.2,1.2l-.3,1.1c-.2,.6,-.4,1.4,-.7,1.8c-.2,.3,-.5,.7,-.8,.7c-.4,0,-.8,-.1,-.6,-.5c0,-.3,0,-.8,-.5,-.8c-.4,0,-.6,.4,-.6,.8c0,.6,.5,.9,1.1,.9c1,0,1.7,-.7,2.1,-1.4c.1,.8,.5,1.4,1.4,1.4c1.1,0,2,-1.1,2.4,-1.8l-.2,-.2c-.5,.7,-1.1,1.7,-1.9,1.7c-.5,0,-.7,-.6,-.7,-1.2c0,-.4,.1,-.8,.2,-1.4l.2,-.7c.1,-.6,.3,-1.2,.6,-1.6c.2,-.3,.6,-1,.9,-1c.4,0,.4,.3,.4,.7c0,.4,.1,.5,.5,.5c.3,0,.5,-.3,.5,-.6Z" class="g1_200"/>
<path d="M608.8,408.7c0,-.3,-.3,-.6,-.6,-.6c-.3,0,-.5,.2,-.5,.6c0,.3,.2,.5,.5,.5c.3,0,.6,-.3,.6,-.5Zm-2.1,6.7c1,0,1.5,-.8,1.8,-1.4l-.2,-.1c-.2,.3,-.6,1.1,-1,1.1c-.1,0,-.3,-.2,-.3,-.3c0,-.2,.2,-.6,.3,-.8l.7,-2.1c.1,-.3,.1,-.4,.1,-.6c0,-.3,0,-.6,-.4,-.6c-.6,0,-1.4,.8,-1.7,1.4l.2,.1c.2,-.2,.6,-.8,.8,-.8c.2,0,.2,.1,.2,.2c.1,.2,0,.5,-.1,.7l-.7,2c-.1,.3,-.2,.5,-.2,.7c0,.3,.2,.5,.5,.5Z" class="g1_200"/>
<path d="M618.4,401.2l.3,-.3l-1.4,5.3c-.1,.3,-.2,.5,-.3,.6c0,.3,-.3,.6,-.5,.7c-.1,0,-.3,.1,-.5,.1v.1h3.1l.1,-.1c-.4,0,-.6,-.1,-.8,-.2c-.1,-.1,-.2,-.3,-.2,-.6c0,-.1,.1,-.4,.1,-.7l1.1,-4c.1,-.4,.2,-.6,.3,-.8c.1,-.4,.3,-.7,.5,-.9c.2,-.1,.3,-.1,.5,-.1v-.1h-1.9l-3.6,5.8H615l-.7,-5.8H612l-.1,.1c.4,0,.6,0,.7,.1c.2,.1,.3,.3,.3,.5c0,.2,0,.5,-.1,.8l-1.2,4.5c-.1,.4,-.3,.8,-.6,1c-.2,.2,-.6,.4,-.9,.4v.1h2.7v-.1c-.2,-.1,-.5,-.1,-.7,-.3c-.1,-.1,-.2,-.5,-.2,-.7c0,-.2,0,-.3,0,-.5l1.3,-4.9l.1,-.2l.8,6.7h.3l4,-6.5Z" class="g1_200"/>
<path d="M622.5,336.5c0,.1,.1,.2,.2,.3c3.1,5.4,3.9,19.2,3.9,20.4v.6H628v-.6c0,-1.6,-.5,-15.5,-5.3,-20.8c0,0,-.1,0,-.1,0c0,0,-.1,0,-.1,.1Z" class="g1_200"/>
<path d="M626.6,367.1H628v-9.6h-1.4Z" class="g1_200"/>
<path d="M626.6,376H628v-9.6h-1.4Z" class="g1_200"/>
<path d="M626.6,385H628v-9.6h-1.4Z" class="g1_200"/>
<path d="M626.6,393.9H628v-9.6h-1.4Z" class="g1_200"/>
<path d="M622.5,415.1c0,0,.1,.1,.1,.1c0,0,.1,0,.1,-.1c4.8,-5.3,5.3,-19.1,5.3,-20.7v-.7h-1.4v.7c0,1.2,-.8,14.9,-3.9,20.3c-.1,.2,-.2,.3,-.2,.4Z" class="g1_200"/>
<path d="M462.2,591.3h.4V533.7h-.4Z" class="g2_200"/>
<path d="M429.3,650.4h.3V607.5h-.3Z" class="g2_200"/>
<path d="M367.5,689.8h.4V663.3h-.4Z" class="g2_200"/>
<path d="M350.4,689.8V693l-.3,-.1L343.8,690l-.4,-.2l.4,-.2l6.3,-2.9l.3,-.1v.3l-.1,.1l-6.4,3l-.1,-.4h.1l6.4,2.9l-.2,.4l-.1,-.2v-2.9Z" class="g2_200"/>
<path d="M350,689.8h.4v-2.9H350Z" class="g2_200"/>
<path d="M350.2,690h.2v-.4h-.2Z" class="g2_200"/>
<path d="M350.4,690h17.5v-.4H350.4Z" class="g2_200"/>
<path d="M509.9,759.3h.3V717.2h-.3Z" class="g2_200"/>
<path d="M466.5,717.2v3.2l-.3,-.1l-6.3,-2.9l-.4,-.2l.4,-.2l6.3,-2.9l.3,-.1v.3l-.1,.2l-6.3,2.9l-.2,-.4h.2l6.3,3l-.2,.3l-.1,-.2v-2.9Z" class="g2_200"/>
<path d="M466.1,717.2h.4v-2.9h-.4Z" class="g2_200"/>
<path d="M466.3,717.4h.2V717h-.2Z" class="g2_200"/>
<path d="M466.5,717.4h43.7V717H466.5Z" class="g2_200"/>
<path d="M109.2,777.7h.3V732.5h-.3Z" class="g2_200"/>
<path d="M125.1,732.5v-3.2l.3,.1l6.2,2.9l.4,.2l-.4,.2l-6.2,2.9l-.3,.1v-.3l.1,-.1l6.3,-3l.1,.4h-.1l-6.3,-2.9l.2,-.4l.1,.2v2.9Z" class="g2_200"/>
<path d="M125.1,735.4h.4v-2.9h-.4Z" class="g2_200"/>
<path d="M125.1,732.7h.2v-.4h-.2Z" class="g2_200"/>
<path d="M109.2,732.7h15.9v-.4H109.2Z" class="g2_200"/>
</svg>