<?xml version="1.0" encoding="UTF-8" standalone="no"?>
<!DOCTYPE svg PUBLIC "-//W3C//DTD SVG 1.1//EN"
"http://www.w3.org/Graphics/SVG/1.1/DTD/svg11.dtd">
<svg viewBox="0 0 811 1017" version="1.1" xmlns="http://www.w3.org/2000/svg" xmlns:xlink="http://www.w3.org/1999/xlink">
<defs>
<style type="text/css"><![CDATA[
.g0_346{
fill: #000;
}
]]></style>
</defs>
<path d="M695.2,254.5h.4V196.7h-.4Z" class="g0_346"/>
<path d="M677.8,254.5v3.2l-.3,-.1l-6.2,-3l-.4,-.1l.4,-.2l6.2,-3h.3v.2l-.1,.2l-6.2,2.9l-.2,-.3h.2l6.2,2.9l-.2,.4l-.1,-.2v-2.9Z" class="g0_346"/>
<path d="M677.4,254.5h.4v-3h-.4Z" class="g0_346"/>
<path d="M677.6,254.6h.2v-.3h-.2Z" class="g0_346"/>
<path d="M677.8,254.6h17.8v-.3H677.8Z" class="g0_346"/>
<path d="M102.6,269.8h.3V198.6h-.3Z" class="g0_346"/>
<path d="M120.3,269.8v-3.2l.2,.1l6.4,2.9l.3,.2l-.3,.2l-6.4,2.9l-.2,.1v-.3l.1,-.2l6.3,-2.9l.2,.4h-.2l-6.3,-3l.1,-.3l.1,.1v3Z" class="g0_346"/>
<path d="M120.3,272.7h.3v-2.9h-.3Z" class="g0_346"/>
<path d="M120.3,270h.1v-.4h-.1Z" class="g0_346"/>
<path d="M102.6,270h17.7v-.4H102.6Z" class="g0_346"/>
<path d="M99.4,487.4h.3V285.1h-.3Z" class="g0_346"/>
<path d="M143.1,285.1v-3.2l.3,.1l6.2,2.9l.4,.2l-.4,.2l-6.2,2.9l-.3,.1V288l.1,-.2l6.2,-2.9l.2,.4h-.2l-6.2,-3l.2,-.3l.1,.1v3Z" class="g0_346"/>
<path d="M143.1,288h.4v-2.9h-.4Z" class="g0_346"/>
<path d="M143.1,285.3h.2v-.4h-.2Z" class="g0_346"/>
<path d="M99.4,285.3h43.7v-.4H99.4Z" class="g0_346"/>
<path d="M113.7,430.8h.3V300.3h-.3Z" class="g0_346"/>
<path d="M142.3,300.3v-3.2l.2,.1l6.4,2.9l.3,.2l-.3,.2l-6.4,2.9l-.2,.1v-.3l.1,-.2l6.3,-2.9l.2,.4h-.2l-6.3,-2.9l.1,-.4l.1,.2v2.9Z" class="g0_346"/>
<path d="M142.3,303.2h.3v-2.9h-.3Z" class="g0_346"/>
<path d="M142.3,300.5h.1v-.4h-.1Z" class="g0_346"/>
<path d="M113.7,300.5h28.6v-.4H113.7Z" class="g0_346"/>
<path d="M466.4,392.4h.4v-72h-.4Z" class="g0_346"/>
<path d="M456.9,335.2h.3v-26h-.3Z" class="g0_346"/>
<path d="M466.6,329.8l.3,-.3l-9.7,-7.8l-.2,.2Z" class="g0_346"/>
<path d="M318.9,431.6h.4V346.1h-.4Z" class="g0_346"/>
<path d="M231,346.1v3.2h-.3l-6.3,-3l-.4,-.2l.4,-.1l6.3,-3l.3,-.1v.3l-.1,.2l-6.3,2.9l-.2,-.3h.2l6.3,2.9l-.2,.4l-.1,-.2v-3Z" class="g0_346"/>
<path d="M230.6,346.1h.4v-2.9h-.4Z" class="g0_346"/>
<path d="M230.8,346.3h.2V346h-.2Z" class="g0_346"/>
<path d="M231,346.3h88.3V346H231Z" class="g0_346"/>
<path d="M630.8,634.1h.3V547.8h-.3Z" class="g0_346"/>
<path d="M606.6,547.8V551l-.3,-.1L600.1,548l-.4,-.2l.4,-.2l6.2,-2.9l.3,-.1v.3l-.1,.2l-6.3,2.9l-.1,-.4h.1l6.3,2.9l-.2,.4l-.1,-.2v-2.9Z" class="g0_346"/>
<path d="M606.2,547.8h.4v-2.9h-.4Z" class="g0_346"/>
<path d="M606.4,548h.2v-.4h-.2Z" class="g0_346"/>
<path d="M606.6,548h24.5v-.4H606.6Z" class="g0_346"/>
<path d="M420.2,614.4h.4V556.8h-.4Z" class="g0_346"/>
<path d="M227.2,679.9h.4V624.3h-.4Z" class="g0_346"/>
<path d="M203.9,624.3v3.2l-.3,-.1l-6.2,-3l-.4,-.1l.4,-.2l6.2,-3l.3,-.1v.3l-.1,.2l-6.3,2.9l-.1,-.3h.1l6.3,2.9l-.2,.4l-.1,-.2v-2.9Z" class="g0_346"/>
<path d="M203.5,624.3h.4v-3h-.4Z" class="g0_346"/>
<path d="M203.7,624.4h.2v-.3h-.2Z" class="g0_346"/>
<path d="M203.9,624.4h23.7v-.3H203.9Z" class="g0_346"/>
<path d="M102.6,789.3h.3V732.4h-.3Z" class="g0_346"/>
<path d="M120.3,789.3V786l.2,.1l6.4,3l.3,.2l-.3,.1l-6.4,3l-.2,.1v-.3l.1,-.2l6.3,-2.9l.2,.3h-.2l-6.3,-2.9l.1,-.4l.1,.2v3Z" class="g0_346"/>
<path d="M120.3,792.2h.3v-2.9h-.3Z" class="g0_346"/>
<path d="M120.3,789.4h.1v-.3h-.1Z" class="g0_346"/>
<path d="M102.6,789.4h17.7v-.3H102.6Z" class="g0_346"/>
<path d="M722,804.6h.3V742.3H722Z" class="g0_346"/>
<path d="M704.6,804.6v3.1l-.3,-.1L698,804.7l-.4,-.1l.4,-.2l6.3,-3h.3v.2l-.1,.2l-6.4,2.9l-.1,-.3h.1l6.4,2.8l-.2,.4l-.1,-.2v-2.8Z" class="g0_346"/>
<path d="M704.2,804.6h.4v-3h-.4Z" class="g0_346"/>
<path d="M704.4,804.7h.2v-.3h-.2Z" class="g0_346"/>
<path d="M704.6,804.7h17.7v-.3H704.6Z" class="g0_346"/>
<path d="M227.2,851.4h.4V819.8h-.4Z" class="g0_346"/>
<path d="M203.9,819.8V823l-.3,-.1L197.4,820l-.4,-.2l.4,-.2l6.2,-2.9l.3,-.1v.2l-.1,.2l-6.3,3l-.1,-.4h.1l6.3,2.9l-.2,.4l-.1,-.2v-2.9Z" class="g0_346"/>
<path d="M203.5,819.8h.4v-3h-.4Z" class="g0_346"/>
<path d="M203.7,820h.2v-.4h-.2Z" class="g0_346"/>
<path d="M203.9,820h23.7v-.4H203.9Z" class="g0_346"/>
</svg>