<?xml version="1.0" encoding="UTF-8" standalone="no"?>
<!DOCTYPE svg PUBLIC "-//W3C//DTD SVG 1.1//EN"
"http://www.w3.org/Graphics/SVG/1.1/DTD/svg11.dtd">
<svg viewBox="0 0 811 1017" version="1.1" xmlns="http://www.w3.org/2000/svg" xmlns:xlink="http://www.w3.org/1999/xlink">
<defs>
<style type="text/css"><![CDATA[
.g0_234{
fill: #0E0E0E;
}
]]></style>
</defs>
<path d="M331.8,151.2h5.5v-.6h-5.5Z" class="g0_234"/>
<path d="M344.6,148.9h-3.7c-1,0,-1.6,1.2,-1.7,1.4h.1c0,-.1,.4,-.6,1,-.6h.6l-.8,2.3c-.2,.7,-1.1,.7,-1.1,1.4v.1c0,.2,.1,.3,.4,.3c.4,0,.8,-.3,1.3,-1.8l.8,-2.3h1.1l-.5,2.3c-.1,.3,-.1,.6,-.1,.8v.1c0,.5,.3,.9,.8,.9c.3,0,.5,-.1,.5,-.5c0,-.6,-.6,-.6,-.6,-1.2c0,0,0,-.1,0,-.3l.6,-2.1h1.1l.2,-.8Z" class="g0_234"/>
<path d="M330.7,156.1h14.7v-.8H330.7Z" class="g0_234"/>
<path d="M337.6,160c-.6,0,-1,-.5,-1,-1.1c0,-.8,.4,-1.7,1.3,-1.7c1.2,0,1.3,1,1.3,1.9c0,1,-.3,1.5,-.7,2.2c-.3,.4,-.7,.8,-1.1,1.3c-.5,.5,-1.1,1.1,-1.9,1.7v.4h4.6l.3,-2.1h-.3c0,.2,-.1,.4,-.2,.5c-.2,.4,-.5,.6,-1,.6h-2.1c.5,-.4,.9,-.8,1.4,-1.1c.7,-.6,1.5,-1.4,1.9,-2.3c.2,-.3,.3,-.7,.3,-1.1c0,-.4,-.1,-.6,-.2,-.9c-.3,-.8,-1.1,-1.3,-2.2,-1.3c-.7,0,-1.3,.3,-1.7,.6c-.4,.3,-.7,.8,-.7,1.5c0,.4,.1,.8,.4,1c.2,.3,.5,.4,.9,.4c.4,0,.7,-.2,.7,-.5Z" class="g0_234"/>
<path d="M406.8,148.9h-3.7c-1,0,-1.6,1.2,-1.7,1.4h.1c.1,-.1,.5,-.6,1,-.6h.6l-.8,2.3c-.2,.7,-1.1,.7,-1.1,1.5c0,.2,.1,.3,.4,.3c.4,0,.8,-.3,1.3,-1.8l.8,-2.3h1.1l-.5,2.3c-.1,.3,-.1,.6,-.1,.8v.1c0,.5,.3,.9,.8,.9c.3,0,.6,-.1,.6,-.4v-.1c0,-.6,-.7,-.5,-.7,-1.1c0,-.1,0,-.2,.1,-.3l.5,-2.2h1.1l.2,-.8Z" class="g0_234"/>
<path d="M400.7,156.1h6.9v-.8h-6.9Z" class="g0_234"/>
<path d="M403.7,160c-.6,0,-1,-.4,-1,-1.1c0,-.8,.4,-1.6,1.3,-1.6c1.2,0,1.3,.9,1.3,1.9c0,.9,-.3,1.4,-.7,2.1c-.3,.4,-.7,.8,-1.1,1.3c-.5,.5,-1.1,1.1,-1.9,1.8v.3h4.6l.4,-2.1h-.4c0,.2,-.1,.4,-.2,.6c-.1,.3,-.5,.5,-1,.5h-2.1c.5,-.4,1,-.7,1.4,-1.1c.7,-.6,1.5,-1.4,1.9,-2.2c.2,-.4,.3,-.8,.3,-1.2c0,-.3,-.1,-.6,-.2,-.9c-.3,-.7,-1.1,-1.3,-2.2,-1.3c-.7,0,-1.3,.3,-1.7,.6c-.4,.3,-.7,.8,-.7,1.5c0,.5,.2,.8,.4,1c.2,.3,.5,.5,.9,.5c.4,0,.7,-.2,.7,-.6Z" class="g0_234"/>
<path d="M634.9,537h-3.7c-1,0,-1.6,1.2,-1.7,1.4h.1c.1,-.1,.5,-.6,1,-.6h.6l-.8,2.2c-.2,.8,-1.1,.8,-1.1,1.5v.1c0,.2,.1,.3,.4,.3c.4,0,.8,-.3,1.3,-1.8l.8,-2.3h1.1l-.5,2.3c-.1,.3,-.1,.6,-.1,.8v.1c0,.5,.3,.9,.8,.9c.3,0,.6,-.1,.6,-.5c0,-.7,-.7,-.6,-.7,-1.2c0,-.1,0,-.2,0,-.3l.6,-2.1h1.1l.2,-.8Z" class="g0_234"/>
<path d="M628.8,544.2h6.9v-.8h-6.9Z" class="g0_234"/>
<path d="M631.8,548.1c-.6,0,-1,-.5,-1,-1.1c0,-.8,.4,-1.7,1.3,-1.7c1.2,0,1.3,1,1.3,1.9c0,.9,-.3,1.5,-.7,2.1c-.3,.5,-.7,.9,-1.1,1.4c-.5,.5,-1.1,1.1,-1.9,1.7v.4h4.6l.3,-2.1h-.3c0,.2,-.1,.4,-.2,.5c-.1,.4,-.5,.6,-1,.6H631c.5,-.4,.9,-.8,1.4,-1.1c.7,-.7,1.5,-1.4,1.9,-2.3c.2,-.4,.3,-.8,.3,-1.2c0,-.3,-.1,-.6,-.2,-.8c-.3,-.8,-1.1,-1.3,-2.2,-1.3c-.7,0,-1.3,.3,-1.7,.6c-.4,.3,-.7,.8,-.7,1.5c0,.4,.2,.8,.4,1c.2,.2,.5,.4,.9,.4c.4,0,.7,-.2,.7,-.5Z" class="g0_234"/>
<path d="M169.1,559.1h5.6v-.6h-5.6Z" class="g0_234"/>
<path d="M181.9,556.8h-3.7c-1,0,-1.6,1.2,-1.7,1.4h.1c.1,-.1,.5,-.6,1,-.6h.6l-.8,2.3c-.2,.7,-1.1,.7,-1.1,1.5c0,.2,.2,.3,.4,.3c.4,0,.8,-.3,1.4,-1.8l.7,-2.3h1.1l-.5,2.3c-.1,.3,-.1,.6,-.1,.8v.1c0,.5,.3,.9,.8,.9c.3,0,.6,-.1,.6,-.4v-.1c0,-.6,-.7,-.5,-.7,-1.1c0,-.1,0,-.2,.1,-.3l.5,-2.2h1.1l.2,-.8Z" class="g0_234"/>
<path d="M168,564h14.8v-.8H168Z" class="g0_234"/>
<path d="M175,567.9c-.7,0,-1.1,-.4,-1.1,-1.1c0,-.8,.4,-1.6,1.3,-1.6c1.2,0,1.3,.9,1.3,1.9c0,.9,-.2,1.4,-.7,2.1c-.3,.4,-.6,.8,-1.1,1.3c-.5,.5,-1.1,1.1,-1.9,1.8v.3h4.6l.4,-2.1h-.3c-.1,.3,-.2,.4,-.3,.6c-.1,.4,-.4,.6,-1,.6h-2.1v-.1c.5,-.4,1,-.7,1.4,-1.1c.7,-.6,1.5,-1.3,1.9,-2.2c.2,-.4,.3,-.8,.3,-1.2c0,-.3,0,-.6,-.2,-.9c-.3,-.7,-1,-1.2,-2.1,-1.2c-.7,0,-1.4,.2,-1.8,.5c-.4,.4,-.7,.8,-.7,1.5c0,.5,.2,.8,.4,1c.2,.3,.5,.5,.9,.5c.4,0,.7,-.2,.8,-.6Z" class="g0_234"/>
<path d="M196.6,763.8h5.5v-.6h-5.5Z" class="g0_234"/>
<path d="M209.4,761.5h-3.8c-1,0,-1.6,1.2,-1.6,1.4h.1c0,0,.4,-.6,1,-.6h.6l-.8,2.3c-.2,.7,-1.1,.8,-1.1,1.5v.1c0,.1,.1,.2,.4,.2c.4,0,.8,-.2,1.3,-1.8l.8,-2.3h1.1l-.5,2.4c-.1,.3,-.2,.5,-.2,.8v.1c0,.4,.4,.8,.9,.8c.2,0,.5,0,.5,-.4c0,-.7,-.6,-.6,-.6,-1.2c0,-.1,0,-.2,0,-.3l.6,-2.2h1.1l.2,-.8Z" class="g0_234"/>
<path d="M195.4,768.8h14.8v-.9H195.4Z" class="g0_234"/>
<path d="M202.4,772.7c-.7,0,-1.1,-.5,-1.1,-1.2c0,-.8,.5,-1.6,1.4,-1.6c1.2,0,1.3,1,1.3,1.9c0,.9,-.3,1.5,-.7,2.1c-.3,.4,-.7,.9,-1.2,1.4c-.4,.5,-1.1,1,-1.8,1.7v.3h4.6l.3,-2h-.3c0,.2,-.1,.4,-.2,.5c-.2,.4,-.5,.6,-1,.6h-2.1v-.1c.4,-.3,.9,-.7,1.3,-1c.8,-.7,1.6,-1.4,2,-2.3c.2,-.4,.3,-.8,.3,-1.2c0,-.3,-.1,-.6,-.2,-.8c-.4,-.8,-1.1,-1.3,-2.2,-1.3c-.7,0,-1.3,.2,-1.7,.6c-.4,.3,-.7,.8,-.7,1.4c0,.5,.1,.8,.4,1.1c.2,.2,.4,.4,.9,.4c.4,0,.6,-.2,.7,-.5Z" class="g0_234"/>
<path d="M277.4,761.6h-3.8c-1,0,-1.6,1.2,-1.6,1.4h.1c0,-.1,.4,-.6,1,-.6h.6l-.8,2.2c-.2,.8,-1.1,.8,-1.1,1.5v.1c0,.2,.1,.3,.4,.3c.4,0,.8,-.3,1.3,-1.8l.8,-2.3h1.1l-.5,2.3c-.1,.3,-.2,.6,-.2,.8v.1c0,.4,.4,.9,.9,.9c.2,0,.5,-.1,.5,-.5c0,-.7,-.6,-.6,-.6,-1.2c0,-.1,0,-.2,0,-.3l.6,-2.1h1.1l.2,-.8Z" class="g0_234"/>
<path d="M271.2,768.8h7V768h-7Z" class="g0_234"/>
<path d="M274.3,772.7c-.7,0,-1.1,-.5,-1.1,-1.2c0,-.7,.5,-1.6,1.4,-1.6c1.2,0,1.3,1,1.3,1.9c0,.9,-.3,1.5,-.7,2.1c-.3,.4,-.7,.9,-1.2,1.4c-.4,.5,-1.1,1.1,-1.8,1.7v.4h4.6l.3,-2.1h-.3c0,.2,-.1,.4,-.2,.5c-.2,.4,-.5,.6,-1,.6h-2.1v-.1c.4,-.3,.9,-.7,1.3,-1c.8,-.7,1.6,-1.4,2,-2.3c.2,-.4,.3,-.8,.3,-1.2c0,-.3,-.1,-.6,-.2,-.8c-.4,-.8,-1.1,-1.3,-2.2,-1.3c-.7,0,-1.3,.3,-1.7,.6c-.4,.3,-.7,.8,-.7,1.4c0,.5,.1,.9,.4,1.1c.2,.2,.4,.4,.9,.4c.4,0,.6,-.2,.7,-.5Z" class="g0_234"/>
<path d="M251.5,803.6H257v-.7h-5.5Z" class="g0_234"/>
<path d="M264.3,801.3h-3.7c-1,0,-1.6,1.2,-1.7,1.4h.1c.1,-.1,.5,-.6,1,-.6h.6l-.8,2.2c-.2,.8,-1.1,.8,-1.1,1.5v.1c0,.2,.1,.3,.4,.3c.4,0,.8,-.3,1.3,-1.8l.8,-2.3h1.1l-.5,2.3c-.1,.3,-.1,.6,-.1,.8v.1c0,.4,.3,.9,.8,.9c.3,0,.6,-.1,.6,-.5c0,-.7,-.7,-.6,-.7,-1.2c0,-.1,0,-.2,.1,-.3l.5,-2.1h1.1l.2,-.8Z" class="g0_234"/>
<path d="M250.4,808.5h14.7v-.8H250.4Z" class="g0_234"/>
<path d="M257.3,812.4c-.6,0,-1,-.5,-1,-1.2c0,-.7,.4,-1.6,1.3,-1.6c1.2,0,1.3,1,1.3,1.9c0,.9,-.3,1.5,-.7,2.1c-.3,.4,-.7,.9,-1.1,1.4c-.5,.5,-1.1,1.1,-1.9,1.7v.4h4.6l.4,-2.1h-.4c0,.2,-.1,.4,-.2,.5c-.1,.4,-.5,.6,-1,.6h-2.1c.5,-.4,1,-.8,1.4,-1.1c.7,-.7,1.5,-1.4,1.9,-2.3c.2,-.4,.3,-.8,.3,-1.2c0,-.3,-.1,-.6,-.2,-.8c-.3,-.8,-1.1,-1.3,-2.2,-1.3c-.7,0,-1.3,.3,-1.7,.6c-.4,.3,-.7,.8,-.7,1.5c0,.4,.2,.8,.4,1c.2,.2,.5,.4,.9,.4c.4,0,.7,-.2,.7,-.5Z" class="g0_234"/>
<path d="M308.1,801.3h-3.8c-1,0,-1.6,1.2,-1.7,1.4h.2c0,-.1,.4,-.6,1,-.6h.5l-.7,2.3c-.3,.7,-1.1,.7,-1.1,1.4v.1c0,.2,.1,.3,.4,.3c.4,0,.8,-.3,1.3,-1.8l.8,-2.3h1.1l-.6,2.3c0,.3,-.1,.6,-.1,.8v.1c0,.5,.3,.9,.9,.9c.2,0,.5,-.1,.5,-.5c0,-.6,-.6,-.5,-.6,-1.2c0,0,0,-.1,0,-.3l.5,-2.1h1.2l.2,-.8Z" class="g0_234"/>
<path d="M301.9,808.5h7v-.8h-7Z" class="g0_234"/>
<path d="M305,812.4c-.7,0,-1.1,-.5,-1.1,-1.1c0,-.8,.5,-1.7,1.4,-1.7c1.2,0,1.3,1,1.3,1.9c0,1,-.3,1.5,-.7,2.2c-.3,.4,-.7,.8,-1.2,1.3c-.5,.5,-1.1,1.1,-1.8,1.8v.3h4.5l.4,-2.1h-.3c-.1,.2,-.2,.4,-.2,.6c-.2,.3,-.5,.5,-1,.5h-2.1c.4,-.4,.9,-.7,1.3,-1.1c.8,-.6,1.6,-1.4,2,-2.2c.2,-.4,.3,-.8,.3,-1.2c0,-.4,-.1,-.6,-.2,-.9c-.4,-.7,-1.1,-1.3,-2.2,-1.3c-.7,0,-1.3,.3,-1.7,.6c-.4,.3,-.7,.8,-.7,1.5c0,.4,.1,.8,.3,1c.2,.3,.5,.4,.9,.4c.4,0,.7,-.2,.8,-.5Z" class="g0_234"/>
</svg>