<?xml version="1.0" encoding="UTF-8" standalone="no"?>
<!DOCTYPE svg PUBLIC "-//W3C//DTD SVG 1.1//EN"
"http://www.w3.org/Graphics/SVG/1.1/DTD/svg11.dtd">
<svg viewBox="0 0 811 1017" version="1.1" xmlns="http://www.w3.org/2000/svg" xmlns:xlink="http://www.w3.org/1999/xlink">
<defs>
<clipPath id="c0_113"><path d="M121.5,275V83.3H313.2V275Z"/></clipPath>
<clipPath id="c1_113"><path d="M328,275V83.3H519.7V275Z"/></clipPath>
<clipPath id="c2_113"><path d="M532.6,275V83.3H724.3V275Z"/></clipPath>
<clipPath id="c3_113"><path d="M121.5,482.1V290.4H313.2V482.1Z"/></clipPath>
<clipPath id="c4_113"><path d="M328,482.1V290.4H519.7V482.1Z"/></clipPath>
<clipPath id="c5_113"><path d="M532.6,482.1V290.4H724.3V482.1Z"/></clipPath>
<clipPath id="c6_113"><path d="M119.4,767.3V577h605V767.3Z"/></clipPath>
</defs>
<image clip-path="url(#c0_113)" preserveAspectRatio="none" x="121" y="83" width="192" height="192" xlink:href="img/1.jpg"/>
<image clip-path="url(#c1_113)" preserveAspectRatio="none" x="328" y="83" width="192" height="192" xlink:href="img/2.jpg"/>
<image clip-path="url(#c2_113)" preserveAspectRatio="none" x="533" y="83" width="191" height="192" xlink:href="img/3.jpg"/>
<image clip-path="url(#c3_113)" preserveAspectRatio="none" x="121" y="290" width="192" height="192" xlink:href="img/4.jpg"/>
<image clip-path="url(#c4_113)" preserveAspectRatio="none" x="328" y="290" width="192" height="192" xlink:href="img/5.jpg"/>
<image clip-path="url(#c5_113)" preserveAspectRatio="none" x="533" y="290" width="191" height="192" xlink:href="img/6.jpg"/>
<image clip-path="url(#c6_113)" preserveAspectRatio="none" x="119" y="577" width="605" height="190" xlink:href="img/7.jpg"/>
</svg>