<?xml version="1.0" encoding="UTF-8" standalone="no"?>
<!DOCTYPE svg PUBLIC "-//W3C//DTD SVG 1.1//EN"
"http://www.w3.org/Graphics/SVG/1.1/DTD/svg11.dtd">
<svg viewBox="0 0 811 1017" version="1.1" xmlns="http://www.w3.org/2000/svg" xmlns:xlink="http://www.w3.org/1999/xlink">
<defs>
<clipPath id="c0_276"><path d="M143.3,478.5V266.9H425.5V478.5Z"/></clipPath>
<clipPath id="c1_276"><path d="M442.2,478.5V266.9H583.4V478.5Z"/></clipPath>
<style type="text/css"><![CDATA[
.g0_276{
fill: #0E0E0E;
}
]]></style>
</defs>
<image clip-path="url(#c0_276)" preserveAspectRatio="none" x="143" y="267" width="283" height="212" xlink:href="img/1.jpg"/>
<image clip-path="url(#c1_276)" preserveAspectRatio="none" x="442" y="267" width="141" height="212" xlink:href="img/2.jpg"/>
<path d="M444.3,837.6v.1c.3,0,.8,.1,1,.1c.3,.2,.3,.3,.3,.8v4.7c0,.3,0,.5,0,.6c-.1,.5,-.7,.6,-1.2,.6v.1h3.4v-.1c-.4,0,-.9,-.1,-1.1,-.3c-.1,-.2,-.1,-.5,-.1,-.9V837c-.6,.3,-1.6,.5,-2.3,.6Z" class="g0_276"/>
<path d="M442.9,847.1H449v-.8h-6.1Z" class="g0_276"/>
<path d="M445.7,855.6c-.7,0,-1.3,-.7,-1.3,-1.4c0,-.6,.4,-1,.9,-1c-.1,-.3,-.4,-.4,-.8,-.4c-.1,0,-.3,0,-.4,.1c-.4,.1,-.7,.6,-.7,1.1c0,.3,.1,.5,.2,.7c.4,.7,1.1,1.1,2.1,1.1c.8,0,1.5,-.3,1.9,-.6c.4,-.4,.7,-.9,.7,-1.6c0,-.2,0,-.4,-.1,-.7c-.3,-.6,-.8,-1.1,-1.6,-1.3c.5,-.1,.8,-.4,1.1,-.7c.2,-.2,.4,-.7,.4,-1.1c0,-.3,0,-.5,-.2,-.7c-.3,-.7,-1.1,-1.1,-2.1,-1.1c-.6,0,-1.2,.2,-1.5,.4c-.3,.2,-.6,.5,-.6,1c0,.3,.1,.6,.3,.7c.1,.2,.4,.3,.7,.3c.1,0,.3,0,.4,-.1c.2,0,.2,-.1,.3,-.2c-.5,0,-.7,-.3,-.7,-.8c0,-.6,.4,-1.1,1.1,-1.1c.7,0,1.1,.7,1.1,1.6c0,.9,-.2,1.8,-1,1.8c-.2,-.1,-.4,-.2,-.6,-.2c-.2,0,-.6,.1,-.6,.3c0,.2,.4,.3,.6,.3c.2,0,.5,-.1,.7,-.2c.8,0,1.1,.8,1.1,1.8c0,1,-.4,2,-1.4,2Z" class="g0_276"/>
<path d="M461.8,839.5c-.7,0,-1.1,-.5,-1.1,-1.1c0,-.8,.5,-1.7,1.4,-1.7c1.2,0,1.3,1,1.3,1.9c0,.9,-.3,1.5,-.7,2.2c-.3,.4,-.7,.8,-1.2,1.3c-.5,.5,-1.1,1.1,-1.8,1.7v.4h4.5l.4,-2.1h-.3c-.1,.2,-.1,.4,-.2,.5c-.2,.4,-.5,.6,-1,.6H461c.4,-.4,.9,-.8,1.3,-1.1c.8,-.7,1.6,-1.4,2,-2.3c.2,-.4,.3,-.8,.3,-1.2c0,-.3,-.1,-.6,-.2,-.8c-.4,-.8,-1.1,-1.3,-2.2,-1.3c-.7,0,-1.3,.3,-1.7,.6c-.4,.3,-.7,.8,-.7,1.5c0,.4,.1,.8,.3,1c.2,.3,.5,.4,.9,.4c.5,0,.7,-.2,.8,-.5Z" class="g0_276"/>
<path d="M459.2,846.6h6.1v-.8h-6.1Z" class="g0_276"/>
<path d="M462,855.1c-.7,0,-1.3,-.7,-1.3,-1.4c0,-.5,.4,-1,.9,-1c-.1,-.2,-.4,-.4,-.8,-.4c-.1,0,-.3,0,-.4,.1c-.4,.2,-.7,.6,-.7,1.2c0,.2,.1,.4,.2,.6c.4,.7,1.1,1.1,2.1,1.1c.8,0,1.5,-.3,1.9,-.6c.4,-.4,.7,-.8,.7,-1.5c0,-.3,0,-.5,-.1,-.7c-.3,-.7,-.8,-1.1,-1.6,-1.3v-.1c.5,-.1,.8,-.3,1.1,-.6c.2,-.3,.4,-.7,.4,-1.2c0,-.3,0,-.5,-.2,-.7c-.3,-.7,-1.1,-1,-2.1,-1c-.6,0,-1.2,.1,-1.5,.3c-.3,.2,-.6,.6,-.6,1c0,.3,.1,.6,.3,.8c.1,.1,.4,.3,.7,.3c.1,0,.3,-.1,.4,-.1c.2,-.1,.2,-.2,.3,-.3c-.4,0,-.7,-.3,-.7,-.7c0,-.6,.5,-1.1,1.1,-1.1c.7,0,1.1,.6,1.1,1.5c0,.9,-.2,1.8,-1,1.8c-.2,0,-.4,-.1,-.6,-.1c-.2,0,-.6,0,-.6,.2c0,.3,.4,.4,.6,.4c.2,0,.5,-.2,.7,-.3c.9,0,1.1,.8,1.1,1.8c0,1,-.4,2,-1.4,2Z" class="g0_276"/>
</svg>