<?xml version="1.0" encoding="UTF-8" standalone="no"?>
<!DOCTYPE svg PUBLIC "-//W3C//DTD SVG 1.1//EN"
"http://www.w3.org/Graphics/SVG/1.1/DTD/svg11.dtd">
<svg viewBox="0 0 811 1017" version="1.1" xmlns="http://www.w3.org/2000/svg" xmlns:xlink="http://www.w3.org/1999/xlink">
<defs>
<clipPath id="c0_290"><path d="M107.7,375.6V184.8H298.5V375.6Z"/></clipPath>
<clipPath id="c1_290"><path d="M313.2,375.6V184.8H504V375.6Z"/></clipPath>
<clipPath id="c2_290"><path d="M519.7,375.6V184.8H710.6V375.6Z"/></clipPath>
<clipPath id="c3_290"><path d="M143.3,870.1V658.7H354.7V870.1Z"/></clipPath>
<clipPath id="c4_290"><path d="M371.9,870.1V658.7H583.4V870.1Z"/></clipPath>
<style type="text/css"><![CDATA[
.g0_290{
fill: #0E0E0E;
}
]]></style>
</defs>
<image clip-path="url(#c0_290)" preserveAspectRatio="none" x="108" y="185" width="191" height="191" xlink:href="img/1.jpg"/>
<image clip-path="url(#c1_290)" preserveAspectRatio="none" x="313" y="185" width="191" height="191" xlink:href="img/2.jpg"/>
<image clip-path="url(#c2_290)" preserveAspectRatio="none" x="520" y="185" width="191" height="191" xlink:href="img/3.jpg"/>
<path d="M365,540.9v.2h4.7v-.2c-.6,0,-1,-.1,-1.2,-.3c-.2,-.2,-.4,-.4,-.4,-.7c0,-.2,.1,-.5,.1,-.8l.9,-3.3h1.1c1,0,1.1,1.2,1,2.3h.3l.9,-4.3h-.3c-.4,.9,-.8,1.7,-2,1.7h-.9l1.2,-4.4h1.7c.3,0,.5,0,.7,.1c.9,.4,1.5,1.3,1.7,2.3h.3v-2.7h-7.3l-.1,.2c.5,0,.8,.1,1,.3c.2,.1,.3,.3,.3,.6c0,.1,0,.3,0,.4c-.1,.2,-.1,.4,-.2,.6l-1.6,6.2c-.1,.3,-.2,.6,-.3,.8c-.1,.4,-.4,.7,-.8,.9c-.1,0,-.5,.1,-.8,.1Z" class="g0_290"/>
<path d="M380.9,530.5c-2.2,1.4,-3.7,3.8,-3.7,6.8c0,2.8,1.6,5.6,3.6,6.8l.2,-.2c-2,-1.6,-2.5,-3.4,-2.5,-6.7c0,-3.3,.6,-5,2.5,-6.5l-.1,-.2Z" class="g0_290"/>
<path d="M389.2,535.6c0,-.6,-.4,-1,-1,-1c-.3,0,-.6,.2,-.9,.4c-.3,.2,-.6,.5,-.9,.9c0,-.7,-.4,-1.3,-1,-1.3c-1.1,0,-2.1,1.2,-2.4,2l.2,.1c.3,-.5,1,-1.7,1.9,-1.7c.3,0,.4,.6,.4,1c0,.3,0,.7,-.2,1.1l-.3,1.2c-.2,.6,-.4,1.4,-.7,1.8c-.2,.3,-.5,.7,-.8,.7c-.5,0,-.8,-.1,-.7,-.5c.1,-.3,.1,-.8,-.4,-.8c-.4,0,-.6,.3,-.6,.8c0,.6,.5,.9,1.1,.9c1,0,1.7,-.7,2.1,-1.4c.1,.8,.5,1.4,1.4,1.4c1.1,0,2,-1.1,2.4,-1.8l-.2,-.2c-.5,.7,-1.2,1.7,-2,1.7c-.4,0,-.6,-.6,-.6,-1.2c0,-.4,0,-.8,.2,-1.4l.2,-.7c.1,-.6,.3,-1.2,.6,-1.6c.2,-.3,.5,-1,.9,-1c.4,0,.4,.3,.4,.6c-.1,.4,.1,.6,.4,.6c.4,0,.5,-.3,.5,-.6Z" class="g0_290"/>
<path d="M390.5,530.5l-.1,.2c1.9,1.5,2.5,3.2,2.5,6.5c0,3.3,-.5,5.1,-2.5,6.7l.2,.2c2,-1.2,3.6,-4,3.6,-6.8c0,-3,-1.5,-5.4,-3.7,-6.8Z" class="g0_290"/>
<path d="M400.4,539.2H408v-.8h-7.6Zm0,-3H408v-.8h-7.6Z" class="g0_290"/>
<path d="M425.4,528.2h-.3c-.3,1.9,-1,2.7,-2.1,2.7h-5.8l4.3,-5.5l-3.8,-5.7h4.8c1,0,1.7,.6,2,2.5h.4l-.1,-3.1h-8.9l4.5,6.5l-5.2,6.6h10l.2,-4Z" class="g0_290"/>
<path d="M432.4,523.3h.2l1.6,-6c.1,-.2,.1,-.3,.2,-.5c.1,-.2,.4,-.7,.6,-.8c.1,-.1,.4,-.1,.5,-.1v-.1h-2.2l-.1,.1c.3,0,.5,.1,.6,.3c.2,.1,.2,.6,.2,.8c0,.1,0,.3,0,.4l-1.1,4v.1l-2.5,-5.7h-2l-.1,.1c.5,0,.6,0,.8,.2c.2,.3,.4,.7,.4,1c0,.1,0,.2,-.1,.3l-1.2,4.4c0,.4,-.3,.7,-.5,1c-.3,.2,-.7,.3,-1,.3v.2h2.8v-.2c-.3,0,-.6,0,-.7,-.2c-.2,-.1,-.3,-.5,-.3,-.7c0,-.2,0,-.3,0,-.5l1.1,-4.3l.1,-.2l2.7,6.1Z" class="g0_290"/>
<path d="M429.6,527.6c0,-.3,-.2,-.6,-.5,-.6c-.3,0,-.6,.3,-.6,.6c0,.3,.3,.5,.6,.5c.3,0,.5,-.3,.5,-.5Zm-2,6.7c1,0,1.5,-.8,1.7,-1.4l-.2,-.1c-.1,.3,-.5,1.1,-1,1.1c-.1,0,-.2,-.2,-.2,-.3c0,-.2,.1,-.6,.2,-.8l.7,-2.1c.1,-.3,.2,-.4,.2,-.6c0,-.3,0,-.6,-.4,-.6c-.7,0,-1.5,.8,-1.7,1.4l.2,.1c.1,-.2,.5,-.8,.8,-.8c.2,0,.2,.1,.2,.2c0,.2,-.1,.5,-.2,.7l-.7,2c-.1,.3,-.1,.5,-.1,.7c0,.4,.1,.5,.5,.5Z" class="g0_290"/>
<path d="M430.9,532.9h5.5v-.6h-5.5Zm0,-2.2h5.5v-.6h-5.5Z" class="g0_290"/>
<path d="M439.9,534.2c-1.4,0,-1.4,-2,-1.4,-3.6c0,-1.6,0,-3.8,1.4,-3.8c1.4,0,1.4,2.2,1.4,3.8c0,1.6,0,3.6,-1.4,3.6Zm0,-7.6c-1.9,0,-2.5,2,-2.5,4c0,1.9,.6,3.8,2.5,3.8c1.9,0,2.5,-1.9,2.5,-3.8c0,-2,-.6,-4,-2.5,-4Z" class="g0_290"/>
<path d="M445.2,531.7c0,.6,.4,1,1.1,1c.4,0,.8,-.2,1.3,-.6c.8,-.7,2,-2.3,2.8,-3.5c.3,-.6,.7,-1.2,1,-1.8c.4,-.7,1.1,-2.1,1.1,-2.9c0,-.2,0,-.4,-.1,-.6c-.1,-.2,-.3,-.2,-.5,-.2c-.2,0,-.3,0,-.4,.2c-.2,.1,-.2,.3,-.2,.6c0,.5,.2,.9,.2,1.3c0,.6,-.2,1.2,-.5,1.6c-.2,.5,-.4,.9,-.8,1.4h-.1l-.3,-1.9c-.1,-.5,-.3,-1.6,-.4,-2c-.2,-.7,-.3,-1.2,-1.3,-1.2c-1.2,0,-1.4,1.7,-1.6,2.5l.3,.1c.1,-.6,.5,-2.3,1,-2.3c.3,0,.5,1,.5,1.3c.1,.3,.2,.7,.3,1.3l.6,3.5c-.3,.8,-1.2,1.7,-1.8,2.2c-.2,.2,-.5,.2,-.7,.2c-.1,0,-.2,0,-.2,-.1c-.2,-.3,-.2,-.8,-.7,-.8c-.4,0,-.6,.3,-.6,.7Z" class="g0_290"/>
<path d="M455.7,525.1c0,-.3,-.3,-.6,-.6,-.6c-.3,0,-.5,.3,-.5,.6c0,.3,.2,.5,.5,.5c.3,0,.6,-.3,.6,-.5Zm-2.1,6.8c1,-.1,1.5,-.9,1.8,-1.5l-.2,-.1c-.2,.3,-.6,1.1,-1,1.1c-.1,0,-.3,-.2,-.3,-.3c0,-.2,.2,-.6,.3,-.8l.7,-2c.1,-.3,.1,-.5,.1,-.7c0,-.3,0,-.6,-.3,-.6c-.7,0,-1.5,.9,-1.8,1.4l.2,.1c.2,-.2,.6,-.8,.8,-.8c.2,0,.2,.1,.2,.2c.1,.2,0,.5,-.1,.7l-.7,2c-.1,.3,-.2,.5,-.2,.7c0,.4,.2,.6,.5,.6Z" class="g0_290"/>
<path d="M459.1,526.5c.1,-.6,.7,-1.8,1,-2.2c.3,-.3,.9,-.9,1.3,-.9c.6,0,.6,.4,.6,.8c0,1.1,-2,1.9,-2.9,2.3Zm2.5,-3.5c-.7,0,-1.4,.6,-1.8,1.2h-.1l1.5,-5.6l-2.3,.1l-.1,.2c.6,0,1.1,.2,1.1,.6c0,.1,0,.2,-.1,.5l-2.6,9.5h1l.7,-2.6l.4,-.1l.8,1.9c.2,.4,.3,.6,.4,.8c.2,.1,.3,.2,.5,.2c1,0,1.3,-.7,1.8,-1.9l-.3,-.1c-.2,.6,-.5,1.2,-.9,1.2c-.2,0,-.5,-.5,-.6,-1l-.7,-1.6l.3,-.1c.7,-.3,1.3,-.7,1.7,-1c.4,-.4,.6,-.8,.6,-1.2c0,-.6,-.5,-1,-1.3,-1Z" class="g0_290"/>
<path d="M466.4,525.1c0,-.3,-.3,-.6,-.6,-.6c-.3,0,-.5,.3,-.5,.6c0,.3,.2,.5,.5,.5c.3,0,.6,-.3,.6,-.5Zm-2.1,6.8c1,-.1,1.5,-.9,1.8,-1.5l-.2,-.1c-.2,.3,-.6,1.1,-1,1.1c-.1,0,-.3,-.2,-.3,-.3c0,-.2,.2,-.6,.3,-.8l.7,-2c.1,-.3,.1,-.5,.1,-.7c0,-.3,0,-.6,-.3,-.6c-.7,0,-1.5,.9,-1.8,1.4l.2,.1c.2,-.2,.6,-.8,.8,-.8c.2,0,.2,.1,.2,.2c.1,.2,0,.5,-.1,.7l-.7,2c-.1,.3,-.2,.5,-.2,.7c0,.4,.2,.6,.5,.6Z" class="g0_290"/>
<path d="M473,518.9c-2.1,1.4,-3.6,3.8,-3.6,6.8c0,2.8,1.5,5.6,3.6,6.8l.2,-.2c-2,-1.5,-2.6,-3.3,-2.6,-6.6c0,-3.3,.7,-5,2.6,-6.6l-.2,-.2Z" class="g0_290"/>
<path d="M481.4,524c0,-.5,-.4,-.9,-1,-.9c-.3,0,-.6,.1,-.9,.3c-.3,.2,-.7,.5,-.9,.9c0,-.7,-.4,-1.2,-1,-1.2c-1.2,0,-2.1,1.1,-2.5,1.9l.2,.1c.4,-.5,1.1,-1.7,2,-1.7c.3,0,.4,.6,.4,1c0,.3,-.1,.7,-.2,1.2l-.4,1.1c-.1,.6,-.4,1.4,-.7,1.8c-.1,.3,-.4,.7,-.8,.7c-.4,0,-.7,-.1,-.6,-.5c.1,-.3,0,-.7,-.4,-.7c-.4,0,-.6,.3,-.6,.7c0,.6,.5,1,1,1c1,0,1.8,-.8,2.2,-1.5c.1,.8,.5,1.5,1.3,1.5c1.2,0,2.1,-1.2,2.5,-1.9l-.2,-.2c-.5,.7,-1.2,1.7,-2,1.7c-.4,0,-.6,-.6,-.6,-1.2c0,-.4,0,-.8,.2,-1.4l.1,-.7c.1,-.6,.4,-1.2,.7,-1.6c.1,-.3,.5,-.9,.9,-.9c.4,0,.4,.3,.3,.6c0,.4,.2,.5,.5,.5c.4,0,.5,-.2,.5,-.6Z" class="g0_290"/>
<path d="M482.7,518.9l-.1,.2c1.9,1.6,2.5,3.3,2.5,6.6c0,3.3,-.6,5.1,-2.5,6.6l.2,.2c2,-1.2,3.6,-4,3.6,-6.8c0,-3,-1.5,-5.4,-3.7,-6.8Z" class="g0_290"/>
<path d="M414.6,537.7h73.3v-.8H414.6Z" class="g0_290"/>
<path d="M430.9,552.7h-.3c-.3,1.9,-1,2.7,-2,2.7h-5.9l4.3,-5.5l-3.8,-5.7H428c1,0,1.7,.6,2,2.5h.4l-.1,-3.1h-8.9l4.5,6.5l-5.2,6.6h10l.2,-4Z" class="g0_290"/>
<path d="M437.9,547.8h.2l1.6,-6c.1,-.1,.1,-.3,.2,-.5c.1,-.2,.4,-.6,.6,-.8c.1,-.1,.4,-.1,.5,-.1v-.1h-2.2l-.1,.1c.3,0,.5,.1,.6,.3c.2,.1,.2,.6,.2,.8c0,.1,0,.3,0,.4l-1.1,4v.1l-2.5,-5.7h-2v.1c.4,0,.5,0,.7,.2c.2,.3,.4,.7,.4,1c0,.1,0,.2,-.1,.3l-1.1,4.4c-.1,.4,-.4,.7,-.6,1c-.3,.2,-.7,.4,-1,.4v.1H435v-.1c-.3,-.1,-.6,-.1,-.7,-.3c-.2,-.1,-.3,-.5,-.3,-.7c0,-.2,0,-.3,0,-.5l1.1,-4.3l.1,-.2l2.7,6.1Z" class="g0_290"/>
<path d="M435.2,552.1c0,-.3,-.3,-.6,-.6,-.6c-.3,0,-.6,.3,-.6,.6c0,.3,.3,.5,.6,.5c.3,0,.6,-.3,.6,-.5Zm-2.1,6.8c1,-.1,1.5,-.9,1.7,-1.5l-.2,-.1c-.1,.3,-.5,1.1,-1,1.1c-.1,0,-.2,-.2,-.2,-.3c0,-.2,.1,-.6,.2,-.8l.7,-2c.1,-.4,.2,-.5,.2,-.7c0,-.3,0,-.6,-.4,-.6c-.7,0,-1.5,.8,-1.7,1.4l.2,.1c.1,-.2,.5,-.8,.8,-.8c.2,0,.2,.1,.2,.2c0,.2,-.1,.5,-.1,.7l-.8,2c-.1,.3,-.1,.5,-.1,.7c0,.4,.1,.6,.5,.6Z" class="g0_290"/>
<path d="M436.4,557.4h5.5v-.6h-5.5Zm0,-2.2h5.5v-.6h-5.5Z" class="g0_290"/>
<path d="M445.4,558.7c-1.4,0,-1.4,-2,-1.4,-3.6c0,-1.6,0,-3.8,1.4,-3.8c1.4,0,1.4,2.2,1.4,3.8c0,1.6,0,3.6,-1.4,3.6Zm0,.2v0c1.9,0,2.5,-1.9,2.5,-3.8c0,-2,-.6,-4,-2.5,-4c-1.9,0,-2.4,2,-2.4,4c0,1.9,.5,3.8,2.4,3.8Z" class="g0_290"/>
<path d="M453.6,551c.1,-.6,.7,-1.8,1,-2.2c.3,-.3,.9,-.9,1.3,-.9c.6,0,.6,.4,.6,.8c-.1,1.1,-2,1.9,-2.9,2.3Zm2.4,-3.5c-.6,0,-1.3,.6,-1.7,1.2h-.1l1.5,-5.6l-2.3,.1l-.1,.2c.6,0,1.1,.2,1.1,.6c0,.1,0,.2,-.1,.5l-2.6,9.5h1l.7,-2.6l.4,-.1l.8,1.9c.2,.4,.3,.6,.4,.8c.2,.1,.3,.2,.5,.2c1,0,1.3,-.6,1.8,-1.9l-.3,-.1c-.3,.6,-.5,1.2,-.9,1.2c-.2,0,-.5,-.5,-.6,-1l-.7,-1.6l.3,-.1c.7,-.3,1.3,-.7,1.7,-1c.4,-.4,.6,-.8,.6,-1.2c0,-.6,-.5,-1,-1.4,-1Z" class="g0_290"/>
<path d="M460.9,549.6c0,-.3,-.3,-.6,-.6,-.6c-.3,0,-.5,.3,-.5,.6c0,.3,.2,.5,.5,.5c.3,0,.6,-.3,.6,-.5Zm-2.1,6.8c1,0,1.5,-.9,1.8,-1.5l-.2,-.1c-.2,.3,-.6,1.1,-1,1.1c-.1,0,-.3,-.2,-.3,-.3c0,-.2,.2,-.6,.2,-.8l.8,-2c.1,-.3,.1,-.5,.1,-.7c0,-.3,0,-.6,-.4,-.6c-.6,0,-1.5,.9,-1.7,1.4l.2,.1c.2,-.2,.6,-.8,.8,-.8c.2,0,.2,.1,.2,.2c.1,.2,0,.5,-.1,.7l-.7,2.1c-.1,.2,-.2,.4,-.2,.6c0,.4,.2,.6,.5,.6Z" class="g0_290"/>
<path d="M467.5,543.4c-2.1,1.4,-3.6,3.8,-3.6,6.8c0,2.8,1.5,5.6,3.6,6.8l.2,-.2c-2,-1.5,-2.6,-3.3,-2.6,-6.6c0,-3.3,.7,-5,2.6,-6.6l-.2,-.2Z" class="g0_290"/>
<path d="M475.9,548.5c0,-.5,-.4,-.9,-1,-.9c-.3,0,-.6,.1,-.9,.3c-.4,.2,-.7,.5,-.9,.9c0,-.7,-.4,-1.2,-1,-1.2c-1.2,0,-2.1,1.1,-2.5,1.9l.2,.1c.4,-.5,1.1,-1.7,2,-1.7c.3,0,.4,.6,.4,1c0,.3,-.1,.7,-.2,1.2l-.4,1.1c-.1,.6,-.4,1.4,-.7,1.8c-.1,.3,-.4,.7,-.8,.7c-.4,0,-.7,-.1,-.6,-.5c.1,-.3,0,-.7,-.4,-.7c-.4,0,-.6,.3,-.6,.7c0,.6,.5,1,1,1c1,0,1.8,-.8,2.2,-1.5c.1,.8,.5,1.5,1.3,1.5c1.2,0,2,-1.2,2.5,-1.9l-.2,-.1c-.5,.6,-1.2,1.6,-2,1.6c-.4,0,-.6,-.6,-.6,-1.2c0,-.4,0,-.8,.1,-1.4l.2,-.7c.1,-.5,.4,-1.2,.6,-1.6c.2,-.3,.6,-.9,1,-.9c.4,0,.4,.3,.3,.6c0,.4,.2,.6,.5,.6c.4,0,.5,-.3,.5,-.7Z" class="g0_290"/>
<path d="M477.2,543.4l-.1,.2c1.9,1.6,2.5,3.3,2.5,6.6c0,3.3,-.6,5.1,-2.5,6.6l.1,.2c2.1,-1.2,3.7,-4,3.7,-6.8c0,-3,-1.5,-5.4,-3.7,-6.8Z" class="g0_290"/>
<image clip-path="url(#c3_290)" preserveAspectRatio="none" x="143" y="659" width="212" height="211" xlink:href="img/4.jpg"/>
<image clip-path="url(#c4_290)" preserveAspectRatio="none" x="372" y="659" width="211" height="211" xlink:href="img/5.jpg"/>
</svg>