<?xml version="1.0" encoding="UTF-8" standalone="no"?>
<!DOCTYPE svg PUBLIC "-//W3C//DTD SVG 1.1//EN"
"http://www.w3.org/Graphics/SVG/1.1/DTD/svg11.dtd">
<svg viewBox="0 0 811 1017" version="1.1" xmlns="http://www.w3.org/2000/svg" xmlns:xlink="http://www.w3.org/1999/xlink">
<defs>
<clipPath id="c0_361"><path d="M156.1,354.5V82.5H487.7v272Z"/></clipPath>
<clipPath id="c1_361"><path d="M185.7,103.1V87.3h21.6l-.2,.2C202,90.6,197,94.1,192.2,97.8l-.2,.1l-.3,.2c-2,1.6,-4,3.2,-5.9,4.9l-.1,.1Z"/></clipPath>
<clipPath id="c2_361"><path d="M454.4,118.8V87.3H467v31.5Z"/></clipPath>
<clipPath id="c3_361"><path d="M185.7,339.2V323.5l.1,.1c3.2,2.7,6.5,5.4,10,7.9l.2,.2l.3,.1c2.4,1.8,5,3.6,7.5,5.2l.3,.2l.2,.2c1,.5,1.9,1.1,2.8,1.7l.2,.1Z"/></clipPath>
<style type="text/css"><![CDATA[
.g0_361{
fill: #FFF;
}
.g1_361{
fill: #EDF7FA;
}
.g2_361{
fill: #EED3C5;
}
.g3_361{
fill: #F7B293;
}
.g4_361{
fill: #EB7D61;
}
.g5_361{
fill: #BD4441;
}
.g6_361{
fill: #040504;
}
.g7_361{
fill: #181818;
}
.g8_361{
fill: #2E3A97;
}
.g9_361{
fill: #4458A6;
}
.ga_361{
fill: #7E95CC;
}
.gb_361{
fill: #0E0E0E;
}
]]></style>
</defs>
<path d="M185.7,339.2H437.5V87.3H185.7Z" class="g0_361"/>
<path d="M257.3,244.8h-.8c-21.1,-.1,-38.4,-18,-32.9,-39.5l.1,-.2V205c6.5,-20.8,29.3,-27.5,48.6,-20.6l.1,.1l.3,.1h.2l.1,.1h.2c8.4,3.1,15.9,8.1,22.8,13.8l.1,.1l.2,.2l.1,.1c3.2,2.7,6.3,5.6,9.3,8.5l.2,.2v.1l.3,.2c1.5,1.5,3,3,4.5,4.5l.3,.3l.2,.2l.3,.3v.2l-.3,.3l-.2,.2l-.3,.3l-.2,.2l-.3,.3l-.2,.2l-.3,.3l-.2,.2l-.3,.3l-.2,.2c-.7,.7,-1.4,1.4,-2.1,2l-.2,.3l-.3,.2v.1l-.2,.2c-13.2,13,-28.7,25.5,-48.2,26.1h-.7Z" class="g1_361"/>
<path d="M366.2,244.8h-.3c-9.6,-.1,-18.8,-3.4,-26.9,-8.3l-.3,-.1l-.2,-.2l-.2,-.1l-.1,-.1l-.2,-.1c-6.5,-4,-12.3,-9,-17.8,-14.2l-.1,-.1l-.2,-.1l-.1,-.2l-.1,-.1c-1.2,-1.1,-2.5,-2.3,-3.7,-3.5l-.2,-.3c-.5,-.5,-1,-1,-1.5,-1.5l-.3,-.2l-.2,-.3l-.3,-.2l-.2,-.3l-.3,-.2c-.4,-.5,-.8,-.9,-1.3,-1.3v-.2l.3,-.3l.2,-.2l.3,-.3c2.7,-2.7,5.5,-5.5,8.3,-8.1l.2,-.2l.1,-.1l.2,-.2c12.2,-11.4,26.6,-21.5,43.9,-22h.7c45.7,1.1,46.5,60.9,.8,63h-.5Z" class="g1_361"/>
<path d="M363.3,244.7h-.1c-8.7,-.6,-16.9,-3.8,-24.2,-8.2l-.3,-.1l-.2,-.2l-.2,-.1l-.1,-.1l-.2,-.1c-6.5,-4.1,-12.4,-9.1,-17.9,-14.3l-.2,-.1l-.1,-.2l-.1,-.1l-.1,-.1c-1.3,-1.2,-2.6,-2.4,-3.8,-3.7l-.3,-.2c-.5,-.5,-1,-1,-1.5,-1.5l-.2,-.3l-.3,-.2l-.2,-.3l-.3,-.2l-.3,-.3l-.2,-.2l-.3,-.3l-.2,-.2l-.3,-.3v-.2l.3,-.3l.2,-.2l.3,-.3l.2,-.3l.3,-.2c2.7,-2.7,5.5,-5.4,8.3,-8.1l.3,-.2l.2,-.3c12.4,-11.5,27.3,-21.6,44.9,-21.5h.8c46.7,3.2,42.6,64.5,-3.8,62.9h-.4Zm-109,0v0H254l-.2,-.1c-21.1,-1.5,-36.7,-20.7,-29.4,-41.5l.1,-.3v-.1c8.1,-20.1,31.1,-25.1,49.9,-17.5l.3,.1l.2,.1h.1l.2,.1l.2,.1c8.2,3.4,15.6,8.5,22.2,14.3l.1,.1l.2,.2l.1,.1c3.2,2.8,6.2,5.7,9.2,8.6l.2,.2h.1l.2,.3l.2,.2c.2,.2,.4,.4,.6,.5l.2,.3c.3,.2,.5,.5,.8,.7l.2,.3c2.3,2.5,2.4,1.2,.3,3.5l-.3,.3c-1.4,1.4,-2.9,2.8,-4.3,4.3l-.2,.1l-.1,.1l-.2,.2v.1l-.2,.1c-13.5,13.2,-29.8,25.5,-49.7,24.6h-.7Zm47.9,57.5h.5c44.4,1.4,95.4,-6.5,122,-46.4v-.1l.1,-.2C450.9,214.8,435,165.9,394.4,142.6l-.2,-.1l-.3,-.2l-.2,-.1l-.2,-.1l-.1,-.1C362.2,124.1,318.5,122.1,283.5,125.8H283c-33,3.8,-65.4,16.3,-84.5,45l-.1,.3l-.1,.1l-.1,.1c-19.7,30.7,-15.7,68.8,8.9,95.4l.2,.2l.1,.1c24.2,25.9,60,33.9,94.3,35.1l.2,.1h.3Z" class="g2_361"/>
<path d="M301.9,302.2v0l-.2,-.1h-.3c-34.1,-1.3,-69.8,-9.3,-94,-35.1l-.1,-.1l-.2,-.2C182.5,240.1,178.5,202,198.2,171.3l.1,-.1l.1,-.1l.1,-.3c19,-28.6,51.3,-41.1,84.2,-44.9l.3,-.1h.2c35.1,-3.7,78.9,-1.8,110.2,16.2l.1,.1l.2,.1l.2,.1l.3,.2l.2,.1c40.6,23.3,56.5,72.2,30.4,112.9l-.1,.2v.1c-26.6,39.9,-77.8,47.8,-122.3,46.4h-.5Zm-.5,36.8h.8c47,2.1,97.4,-11.4,130.8,-46.1v-.1l.3,-.2l.2,-.3l.3,-.2c.7,-.8,1.4,-1.5,2,-2.3l.2,-.2h.1l.2,-.3c.2,-.3,.5,-.6,.7,-.8l.2,-.2l.1,-.1l.1,-.2l.1,-.1V138.7l-.1,-.2l-.1,-.1l-.1,-.1l-.2,-.2V138l-.2,-.2h-.1l-.2,-.3c-1.5,-1.7,-3.1,-3.4,-4.8,-5.1l-.1,-.2h-.1l-.2,-.2c-3.5,-3.6,-7.2,-6.9,-11.2,-10l-.1,-.1l-.1,-.1l-.2,-.2c-8.3,-6.5,-17.3,-12.1,-26.8,-16.7l-.2,-.1l-.2,-.1h-.1C370.5,94.2,346.1,88.8,321.9,87.6h-1.1C274,85.5,224,98.9,190.7,133.2l-.2,.2l-.1,.1l-.2,.2l-.2,.3h-.1l-.2,.2c-.7,.8,-1.3,1.5,-2,2.2l-.1,.1l-.2,.2v.1c-.3,.3,-.6,.6,-.9,1h-.1l-.1,.2l-.1,.1l-.2,.2l-.1,.1l-.1,.1l-.1,.2V287.9l.1,.1l.1,.2l.1,.1l.2,.2h.1c1.5,1.9,3.2,3.6,4.9,5.3v.1l.2,.2l.1,.1c3.6,3.6,7.3,7,11.3,10.2h.1l.2,.2l.1,.1c8.2,6.5,17.2,12.1,26.6,16.7l.3,.1l.1,.1h.1c21.9,10.6,46.1,16,70.3,17.3h.3l.2,.1h.3Z" class="g3_361"/>
<g clip-path="url(#c0_361)">
<path d="M207.1,339.1l.2,.1H415.9c3.8,-2.3,7.4,-4.7,11,-7.3l.1,-.1l.2,-.1c3.5,-2.6,6.9,-5.3,10.2,-8.1l.1,-.1V287.9l-.1,.1c-58.2,68.4,-193.3,68.4,-251.6,0l-.1,-.1v35.6c6.6,5.7,13.7,10.9,21.2,15.5l.2,.1Z" class="g4_361"/>
<path d="M185.8,138.5l.1,-.1c58.3,-68.2,193.3,-68.1,251.5,.1l.1,.2V103.1l-.1,-.1C430.7,97.3,423.6,92.1,416.1,87.5l-.2,-.2H207.3C199.7,92,192.5,97.2,185.8,103l-.1,.1v35.6l.1,-.2Z" class="g4_361"/>
</g>
<path d="M437.5,339.2H415.9l.2,-.1c7.5,-4.6,14.6,-9.8,21.3,-15.5l.1,-.1v15.7Z" class="g5_361"/>
<path d="M437.5,103.1l-.1,-.1C430.7,97.3,423.6,92.1,416.1,87.5l-.2,-.2h21.6v15.8Z" class="g5_361"/>
<path d="M185.3,342.5h.8v-3.3h-.8Z" class="g6_361"/>
<path d="M175.2,350.5h5.9v-.8h-5.9Z" class="g6_361"/>
<path d="M183.9,352.2h3.3v.8h-4.4v-.8c.4,-.3,.8,-.8,1.5,-1.4c.6,-.6,1,-1,1.1,-1.2c.3,-.4,.5,-.6,.6,-.9c.2,-.2,.2,-.4,.2,-.7c0,-.3,-.1,-.6,-.4,-.9c-.2,-.2,-.6,-.3,-1,-.3c-.3,0,-.6,0,-.9,.1c-.3,.1,-.7,.3,-1,.5v-.9c.3,-.2,.7,-.3,1,-.4c.3,-.1,.6,-.1,.9,-.1c.7,0,1.3,.2,1.7,.5c.4,.4,.7,.9,.7,1.5c0,.3,-.1,.5,-.2,.8c-.1,.2,-.3,.5,-.6,.9c-.1,.1,-.3,.3,-.7,.8c-.4,.4,-1,1,-1.8,1.7Z" class="g6_361"/>
<path d="M189.2,353h.9v-1.1h-.9Z" class="g6_361"/>
<path d="M194.2,346c.7,0,1.3,.3,1.7,.9c.4,.6,.6,1.5,.6,2.7c0,1.2,-.2,2,-.6,2.7c-.4,.6,-1,.9,-1.7,.9c-.8,0,-1.4,-.3,-1.8,-.9c-.4,-.7,-.6,-1.5,-.6,-2.7c0,-1.2,.2,-2.1,.6,-2.7c.4,-.6,1,-.9,1.8,-.9Zm0,.7c-.5,0,-.9,.3,-1.1,.8c-.3,.4,-.4,1.1,-.4,2.1c0,.9,.1,1.6,.4,2.1c.2,.5,.6,.7,1.1,.7c.4,0,.8,-.2,1,-.7c.3,-.5,.4,-1.2,.4,-2.1c0,-1,-.1,-1.7,-.4,-2.1c-.2,-.5,-.6,-.8,-1,-.8Z" class="g6_361"/>
<path d="M216.8,342.5h.7v-3.3h-.7Z" class="g6_361"/>
<path d="M206.7,350.5h5.9v-.8h-5.9Z" class="g6_361"/>
<path d="M214.8,352.2h1.5V347l-1.7,.3v-.8l1.7,-.4h.9v6.1h1.5v.8h-3.9v-.8Z" class="g6_361"/>
<path d="M220.6,353h1v-1.1h-1Z" class="g6_361"/>
<path d="M223.7,346.1h3.6v.8h-2.8v1.7l.4,-.1h.4c.8,0,1.4,.2,1.8,.6c.5,.4,.7,1,.7,1.7c0,.8,-.2,1.3,-.7,1.8c-.4,.4,-1.1,.6,-1.9,.6c-.3,0,-.6,-.1,-.9,-.1c-.3,-.1,-.6,-.1,-.9,-.2v-1c.2,.2,.5,.3,.8,.4c.3,0,.6,.1,1,.1c.5,0,.9,-.2,1.2,-.4c.3,-.3,.5,-.7,.5,-1.2c0,-.5,-.2,-.8,-.5,-1.1c-.3,-.3,-.7,-.4,-1.2,-.4c-.3,0,-.5,0,-.8,0c-.2,.1,-.5,.2,-.7,.3v-3.5Z" class="g6_361"/>
<path d="M248.3,342.5h.7v-3.3h-.7Z" class="g6_361"/>
<path d="M238.2,350.5h5.9v-.8h-5.9Z" class="g6_361"/>
<path d="M246.3,352.2h1.5V347l-1.7,.3v-.8l1.7,-.4h.9v6.1h1.5v.8h-3.9v-.8Z" class="g6_361"/>
<path d="M252.1,353h1v-1.1h-1Z" class="g6_361"/>
<path d="M257.1,346c.8,0,1.4,.3,1.8,.9c.4,.6,.6,1.5,.6,2.7c0,1.2,-.2,2,-.6,2.7c-.4,.6,-1,.9,-1.8,.9c-.8,0,-1.3,-.3,-1.8,-.9c-.4,-.7,-.6,-1.5,-.6,-2.7c0,-1.2,.2,-2.1,.6,-2.7c.5,-.6,1,-.9,1.8,-.9Zm0,.7c-.5,0,-.8,.3,-1.1,.8c-.2,.4,-.3,1.1,-.3,2.1c0,.9,.1,1.6,.3,2.1c.3,.5,.6,.7,1.1,.7c.5,0,.9,-.2,1.1,-.7c.3,-.5,.4,-1.2,.4,-2.1c0,-1,-.1,-1.7,-.4,-2.1c-.2,-.5,-.6,-.8,-1.1,-.8Z" class="g6_361"/>
<path d="M279.7,342.5h.8v-3.3h-.8Z" class="g6_361"/>
<path d="M269.6,350.5h6v-.8h-6Z" class="g6_361"/>
<path d="M279.6,346c.7,0,1.3,.3,1.7,.9c.5,.6,.7,1.5,.7,2.7c0,1.2,-.2,2,-.7,2.7c-.4,.6,-1,.9,-1.7,.9c-.8,0,-1.4,-.3,-1.8,-.9c-.4,-.7,-.6,-1.5,-.6,-2.7c0,-1.2,.2,-2.1,.6,-2.7c.4,-.6,1,-.9,1.8,-.9Zm0,.7c-.5,0,-.9,.3,-1.1,.8c-.3,.4,-.4,1.1,-.4,2.1c0,.9,.1,1.6,.4,2.1c.2,.5,.6,.7,1.1,.7c.5,0,.8,-.2,1.1,-.7c.2,-.5,.3,-1.2,.3,-2.1c0,-1,-.1,-1.7,-.3,-2.1c-.3,-.5,-.6,-.8,-1.1,-.8Z" class="g6_361"/>
<path d="M283.6,353h1v-1.1h-1Z" class="g6_361"/>
<path d="M286.6,346.1h3.7v.8h-2.8v1.7l.4,-.1h.4c.8,0,1.4,.2,1.8,.6c.5,.4,.7,1,.7,1.7c0,.8,-.2,1.3,-.7,1.8c-.5,.4,-1.1,.6,-2,.6c-.2,0,-.5,-.1,-.8,-.1c-.3,-.1,-.7,-.1,-1,-.2v-1c.3,.2,.6,.3,.9,.4c.3,0,.6,.1,.9,.1c.6,0,1,-.2,1.3,-.4c.3,-.3,.5,-.7,.5,-1.2c0,-.5,-.2,-.8,-.5,-1.1c-.3,-.3,-.7,-.4,-1.3,-.4c-.2,0,-.5,0,-.7,0c-.3,.1,-.5,.2,-.8,.3v-3.5Z" class="g6_361"/>
<path d="M311.2,342.5h.8v-3.3h-.8Z" class="g6_361"/>
<path d="M307.1,346c.8,0,1.4,.3,1.8,.9c.4,.6,.6,1.5,.6,2.7c0,1.2,-.2,2,-.6,2.7c-.4,.6,-1,.9,-1.8,.9c-.8,0,-1.4,-.3,-1.8,-.9c-.4,-.7,-.6,-1.5,-.6,-2.7c0,-1.2,.2,-2.1,.6,-2.7c.4,-.6,1,-.9,1.8,-.9Zm0,.7c-.5,0,-.8,.3,-1.1,.8c-.2,.4,-.4,1.1,-.4,2.1c0,.9,.2,1.6,.4,2.1c.3,.5,.6,.7,1.1,.7c.5,0,.8,-.2,1.1,-.7c.2,-.5,.3,-1.2,.3,-2.1c0,-1,-.1,-1.7,-.3,-2.1c-.3,-.5,-.6,-.8,-1.1,-.8Z" class="g6_361"/>
<path d="M311.1,353h1v-1.1h-1Z" class="g6_361"/>
<path d="M316.1,346c.8,0,1.4,.3,1.8,.9c.4,.6,.6,1.5,.6,2.7c0,1.2,-.2,2,-.6,2.7c-.4,.6,-1,.9,-1.8,.9c-.7,0,-1.3,-.3,-1.7,-.9c-.5,-.7,-.7,-1.5,-.7,-2.7c0,-1.2,.2,-2.1,.7,-2.7c.4,-.6,1,-.9,1.7,-.9Zm0,.7c-.5,0,-.8,.3,-1.1,.8c-.2,.4,-.3,1.1,-.3,2.1c0,.9,.1,1.6,.3,2.1c.3,.5,.6,.7,1.1,.7c.5,0,.9,-.2,1.1,-.7c.3,-.5,.4,-1.2,.4,-2.1c0,-1,-.1,-1.7,-.4,-2.1c-.2,-.5,-.6,-.8,-1.1,-.8Z" class="g6_361"/>
<path d="M342.7,342.5h.8v-3.3h-.8Z" class="g6_361"/>
<path d="M338.6,346c.8,0,1.3,.3,1.7,.9c.5,.6,.7,1.5,.7,2.7c0,1.2,-.2,2,-.7,2.7c-.4,.6,-.9,.9,-1.7,.9c-.8,0,-1.4,-.3,-1.8,-.9c-.4,-.7,-.6,-1.5,-.6,-2.7c0,-1.2,.2,-2.1,.6,-2.7c.4,-.6,1,-.9,1.8,-.9Zm0,.7c-.5,0,-.9,.3,-1.1,.8c-.2,.4,-.4,1.1,-.4,2.1c0,.9,.2,1.6,.4,2.1c.2,.5,.6,.7,1.1,.7c.5,0,.8,-.2,1.1,-.7c.2,-.5,.3,-1.2,.3,-2.1c0,-1,-.1,-1.7,-.3,-2.1c-.3,-.5,-.6,-.8,-1.1,-.8Z" class="g6_361"/>
<path d="M342.6,353h1v-1.1h-1Z" class="g6_361"/>
<path d="M345.6,346.1h3.7v.8h-2.8v1.7l.4,-.1h.4c.8,0,1.4,.2,1.8,.6c.5,.4,.7,1,.7,1.7c0,.8,-.2,1.3,-.7,1.8c-.5,.4,-1.1,.6,-2,.6c-.2,0,-.5,-.1,-.8,-.1c-.3,-.1,-.6,-.1,-1,-.2v-1c.3,.2,.6,.3,.9,.4c.3,0,.6,.1,.9,.1c.6,0,1,-.2,1.3,-.4c.3,-.3,.5,-.7,.5,-1.2c0,-.5,-.2,-.8,-.5,-1.1c-.3,-.3,-.7,-.4,-1.3,-.4c-.2,0,-.5,0,-.7,0c-.3,.1,-.5,.2,-.8,.3v-3.5Z" class="g6_361"/>
<path d="M374.2,342.5h.8v-3.3h-.8Z" class="g6_361"/>
<path d="M368.2,352.2h1.6V347l-1.7,.3v-.8l1.6,-.4h1v6.1h1.5v.8h-4v-.8Z" class="g6_361"/>
<path d="M374.1,353h1v-1.1h-1Z" class="g6_361"/>
<path d="M379.1,346c.8,0,1.4,.3,1.8,.9c.4,.6,.6,1.5,.6,2.7c0,1.2,-.2,2,-.6,2.7c-.4,.6,-1,.9,-1.8,.9c-.8,0,-1.4,-.3,-1.8,-.9c-.4,-.7,-.6,-1.5,-.6,-2.7c0,-1.2,.2,-2.1,.6,-2.7c.4,-.6,1,-.9,1.8,-.9Zm0,.7c-.5,0,-.9,.3,-1.1,.8c-.2,.4,-.4,1.1,-.4,2.1c0,.9,.2,1.6,.4,2.1c.2,.5,.6,.7,1.1,.7c.5,0,.8,-.2,1.1,-.7c.2,-.5,.3,-1.2,.3,-2.1c0,-1,-.1,-1.7,-.3,-2.1c-.3,-.5,-.6,-.8,-1.1,-.8Z" class="g6_361"/>
<path d="M405.7,342.5h.7v-3.3h-.7Z" class="g6_361"/>
<path d="M399.7,352.2h1.5V347l-1.6,.3v-.8l1.6,-.4h1v6.1h1.5v.8h-4v-.8Z" class="g6_361"/>
<path d="M405.6,353h.9v-1.1h-.9Z" class="g6_361"/>
<path d="M408.6,346.1h3.7v.8h-2.9v1.7l.4,-.1h.5c.7,0,1.3,.2,1.8,.6c.4,.4,.7,1,.7,1.7c0,.8,-.3,1.3,-.7,1.8c-.5,.4,-1.1,.6,-2,.6c-.3,0,-.6,-.1,-.9,-.1c-.3,-.1,-.6,-.1,-.9,-.2v-1c.3,.2,.6,.3,.9,.4c.3,0,.6,.1,.9,.1c.5,0,1,-.2,1.3,-.4c.3,-.3,.4,-.7,.4,-1.2c0,-.5,-.1,-.8,-.4,-1.1c-.3,-.3,-.8,-.4,-1.3,-.4c-.3,0,-.5,0,-.8,0c-.2,.1,-.5,.2,-.7,.3v-3.5Z" class="g6_361"/>
<path d="M437.2,342.5h.7v-3.3h-.7Z" class="g6_361"/>
<path d="M431.8,352.2h3.3v.8h-4.4v-.8c.4,-.3,.9,-.8,1.5,-1.4c.6,-.6,1,-1,1.1,-1.2c.3,-.4,.5,-.6,.6,-.9c.2,-.2,.2,-.4,.2,-.7c0,-.3,-.1,-.6,-.4,-.9c-.2,-.2,-.6,-.3,-1,-.3c-.3,0,-.6,0,-.9,.1c-.3,.1,-.7,.3,-1,.5v-.9c.3,-.2,.7,-.3,1,-.4c.3,-.1,.6,-.1,.9,-.1c.7,0,1.3,.2,1.7,.5c.4,.4,.7,.9,.7,1.5c0,.3,-.1,.5,-.2,.8c-.1,.2,-.3,.5,-.6,.9c-.1,.1,-.3,.3,-.7,.8c-.4,.4,-1,1,-1.8,1.7Z" class="g6_361"/>
<path d="M437.1,353h.9v-1.1h-.9Z" class="g6_361"/>
<path d="M442.1,346c.7,0,1.3,.3,1.7,.9c.4,.6,.6,1.5,.6,2.7c0,1.2,-.2,2,-.6,2.7c-.4,.6,-1,.9,-1.7,.9c-.8,0,-1.4,-.3,-1.8,-.9c-.4,-.7,-.6,-1.5,-.6,-2.7c0,-1.2,.2,-2.1,.6,-2.7c.4,-.6,1,-.9,1.8,-.9Zm0,.7c-.5,0,-.9,.3,-1.1,.8c-.3,.4,-.4,1.1,-.4,2.1c0,.9,.1,1.6,.4,2.1c.2,.5,.6,.7,1.1,.7c.4,0,.8,-.2,1,-.7c.3,-.5,.4,-1.2,.4,-2.1c0,-1,-.1,-1.7,-.4,-2.1c-.2,-.5,-.6,-.8,-1,-.8Z" class="g6_361"/>
<path d="M182.4,339.6h3.3v-.8h-3.3Z" class="g6_361"/>
<path d="M157.1,340.2H163v-.7h-5.9Z" class="g6_361"/>
<path d="M165.8,342h3.3v.8h-4.4V342c.3,-.3,.8,-.8,1.4,-1.4c.7,-.7,1,-1.1,1.2,-1.2c.3,-.4,.5,-.7,.6,-.9c.1,-.2,.2,-.5,.2,-.7c0,-.4,-.1,-.7,-.4,-.9c-.2,-.2,-.6,-.3,-1,-.3c-.3,0,-.6,0,-.9,.1c-.3,.1,-.7,.3,-1.1,.5v-1c.4,-.1,.8,-.2,1.1,-.3c.3,-.1,.6,-.1,.9,-.1c.7,0,1.3,.2,1.7,.5c.4,.4,.6,.9,.6,1.5c0,.2,0,.5,-.1,.8c-.1,.2,-.3,.5,-.6,.9c-.1,.1,-.3,.3,-.7,.7c-.4,.5,-1,1.1,-1.8,1.8Z" class="g6_361"/>
<path d="M171,342.8h1v-1.2h-1Z" class="g6_361"/>
<path d="M176,335.8c.8,0,1.4,.3,1.8,.9c.4,.6,.6,1.5,.6,2.7c0,1.1,-.2,2,-.6,2.6c-.4,.6,-1,.9,-1.8,.9c-.7,0,-1.3,-.3,-1.7,-.9c-.4,-.6,-.6,-1.5,-.6,-2.6c0,-1.2,.2,-2.1,.6,-2.7c.4,-.6,1,-.9,1.7,-.9Zm0,.7c-.4,0,-.8,.3,-1,.7c-.3,.5,-.4,1.2,-.4,2.2c0,.9,.1,1.6,.4,2.1c.2,.5,.6,.7,1,.7c.5,0,.9,-.2,1.1,-.7c.3,-.5,.4,-1.2,.4,-2.1c0,-1,-.1,-1.7,-.4,-2.2c-.2,-.4,-.6,-.7,-1.1,-.7Z" class="g6_361"/>
<path d="M182.4,308.1h3.3v-.7h-3.3Z" class="g6_361"/>
<path d="M157.1,308.8H163V308h-5.9Z" class="g6_361"/>
<path d="M165.2,310.5h1.5v-5.2l-1.7,.3v-.8l1.7,-.4h.9v6.1h1.5v.8h-3.9v-.8Z" class="g6_361"/>
<path d="M171,311.3h1v-1.1h-1Z" class="g6_361"/>
<path d="M174.1,304.4h3.6v.8h-2.8v1.7l.4,-.1h.4c.8,0,1.4,.2,1.9,.6c.4,.4,.6,1,.6,1.7c0,.8,-.2,1.3,-.7,1.7c-.4,.5,-1.1,.7,-1.9,.7c-.3,0,-.6,-.1,-.9,-.1c-.3,-.1,-.6,-.1,-.9,-.2v-1c.2,.2,.5,.3,.8,.4c.3,0,.6,.1,1,.1c.5,0,.9,-.2,1.2,-.4c.3,-.3,.5,-.7,.5,-1.2c0,-.5,-.2,-.8,-.5,-1.1c-.3,-.3,-.7,-.4,-1.2,-.4c-.3,0,-.5,0,-.8,0c-.2,.1,-.5,.2,-.7,.3v-3.5Z" class="g6_361"/>
<path d="M182.4,276.6h3.3v-.7h-3.3Z" class="g6_361"/>
<path d="M157.1,277.3H163v-.8h-5.9Z" class="g6_361"/>
<path d="M165.2,279.1h1.5v-5.3l-1.7,.3v-.8l1.7,-.4h.9v6.2h1.5v.7h-3.9v-.7Z" class="g6_361"/>
<path d="M171,279.8h1v-1.1h-1Z" class="g6_361"/>
<path d="M176,272.8c.8,0,1.4,.3,1.8,.9c.4,.6,.6,1.5,.6,2.7c0,1.2,-.2,2,-.6,2.7c-.4,.6,-1,.9,-1.8,.9c-.7,0,-1.3,-.3,-1.7,-.9c-.4,-.7,-.6,-1.5,-.6,-2.7c0,-1.2,.2,-2.1,.6,-2.7c.4,-.6,1,-.9,1.7,-.9Zm0,.8c-.4,0,-.8,.2,-1,.7c-.3,.4,-.4,1.2,-.4,2.1c0,.9,.1,1.7,.4,2.1c.2,.5,.6,.7,1,.7c.5,0,.9,-.2,1.1,-.7c.3,-.4,.4,-1.2,.4,-2.1c0,-.9,-.1,-1.7,-.4,-2.1c-.2,-.5,-.6,-.7,-1.1,-.7Z" class="g6_361"/>
<path d="M182.4,245.1h3.3v-.7h-3.3Z" class="g6_361"/>
<path d="M157.1,245.8H163V245h-5.9Z" class="g6_361"/>
<path d="M167,241.3c.8,0,1.4,.3,1.8,1c.4,.6,.6,1.5,.6,2.6c0,1.2,-.2,2.1,-.6,2.7c-.4,.6,-1,.9,-1.8,.9c-.8,0,-1.4,-.3,-1.8,-.9c-.4,-.6,-.6,-1.5,-.6,-2.7c0,-1.1,.2,-2,.6,-2.6c.4,-.7,1,-1,1.8,-1Zm0,.8c-.5,0,-.8,.2,-1.1,.7c-.2,.5,-.3,1.2,-.3,2.1c0,1,.1,1.7,.3,2.1c.3,.5,.6,.8,1.1,.8c.5,0,.9,-.3,1.1,-.8c.2,-.4,.4,-1.1,.4,-2.1c0,-.9,-.2,-1.6,-.4,-2.1c-.2,-.5,-.6,-.7,-1.1,-.7Z" class="g6_361"/>
<path d="M171,248.4h1v-1.2h-1Z" class="g6_361"/>
<path d="M174.1,241.5h3.6v.7h-2.8v1.7l.4,-.1h.4c.8,0,1.4,.2,1.9,.6c.4,.5,.6,1,.6,1.7c0,.8,-.2,1.4,-.7,1.8c-.4,.4,-1.1,.6,-1.9,.6c-.3,0,-.6,0,-.9,-.1c-.3,0,-.6,-.1,-.9,-.2v-.9c.2,.1,.5,.2,.8,.3c.3,.1,.6,.1,1,.1c.5,0,.9,-.1,1.2,-.4c.3,-.3,.5,-.7,.5,-1.2c0,-.4,-.2,-.8,-.5,-1.1c-.3,-.3,-.7,-.4,-1.2,-.4c-.3,0,-.5,0,-.8,.1c-.2,0,-.5,.1,-.7,.2v-3.4Z" class="g6_361"/>
<path d="M182.4,213.7h3.3v-.8h-3.3Z" class="g6_361"/>
<path d="M167,209.9c.8,0,1.4,.3,1.8,.9c.4,.6,.6,1.5,.6,2.6c0,1.2,-.2,2.1,-.6,2.7c-.4,.6,-1,.9,-1.8,.9c-.8,0,-1.4,-.3,-1.8,-.9c-.4,-.6,-.6,-1.5,-.6,-2.7c0,-1.1,.2,-2,.6,-2.6c.4,-.6,1,-.9,1.8,-.9Zm0,.7c-.5,0,-.8,.2,-1.1,.7c-.2,.5,-.3,1.2,-.3,2.1c0,1,.1,1.7,.3,2.2c.3,.4,.6,.7,1.1,.7c.5,0,.9,-.3,1.1,-.7c.2,-.5,.4,-1.2,.4,-2.2c0,-.9,-.2,-1.6,-.4,-2.1c-.2,-.5,-.6,-.7,-1.1,-.7Z" class="g6_361"/>
<path d="M171,216.9h1v-1.2h-1Z" class="g6_361"/>
<path d="M176,209.9c.8,0,1.4,.3,1.8,.9c.4,.6,.6,1.5,.6,2.6c0,1.2,-.2,2.1,-.6,2.7c-.4,.6,-1,.9,-1.8,.9c-.7,0,-1.3,-.3,-1.7,-.9c-.4,-.6,-.6,-1.5,-.6,-2.7c0,-1.1,.2,-2,.6,-2.6c.4,-.6,1,-.9,1.7,-.9Zm0,.7c-.4,0,-.8,.2,-1,.7c-.3,.5,-.4,1.2,-.4,2.1c0,1,.1,1.7,.4,2.2c.2,.4,.6,.7,1,.7c.5,0,.9,-.3,1.1,-.7c.3,-.5,.4,-1.2,.4,-2.2c0,-.9,-.1,-1.6,-.4,-2.1c-.2,-.5,-.6,-.7,-1.1,-.7Z" class="g6_361"/>
<path d="M182.4,182.2h3.3v-.8h-3.3Z" class="g6_361"/>
<path d="M167,178.4c.8,0,1.4,.3,1.8,.9c.4,.6,.6,1.5,.6,2.7c0,1.1,-.2,2,-.6,2.6c-.4,.6,-1,.9,-1.8,.9c-.8,0,-1.4,-.3,-1.8,-.9c-.4,-.6,-.6,-1.5,-.6,-2.6c0,-1.2,.2,-2.1,.6,-2.7c.4,-.6,1,-.9,1.8,-.9Zm0,.7c-.5,0,-.8,.2,-1.1,.7c-.2,.5,-.3,1.2,-.3,2.2c0,.9,.1,1.6,.3,2.1c.3,.5,.6,.7,1.1,.7c.5,0,.9,-.2,1.1,-.7c.2,-.5,.4,-1.2,.4,-2.1c0,-1,-.2,-1.7,-.4,-2.2c-.2,-.5,-.6,-.7,-1.1,-.7Z" class="g6_361"/>
<path d="M171,185.4h1v-1.2h-1Z" class="g6_361"/>
<path d="M174.1,178.5h3.6v.8h-2.8V181l.4,-.1l.4,-.1c.8,0,1.4,.2,1.9,.7c.4,.4,.6,1,.6,1.7c0,.7,-.2,1.3,-.7,1.7c-.4,.4,-1.1,.6,-1.9,.6c-.3,0,-.6,0,-.9,0c-.3,-.1,-.6,-.2,-.9,-.3v-.9c.2,.1,.5,.3,.8,.3c.3,.1,.6,.1,1,.1c.5,0,.9,-.1,1.2,-.4c.3,-.3,.5,-.6,.5,-1.1c0,-.5,-.2,-.9,-.5,-1.2c-.3,-.2,-.7,-.4,-1.2,-.4c-.3,0,-.5,0,-.8,.1c-.2,.1,-.5,.1,-.7,.3v-3.5Z" class="g6_361"/>
<path d="M182.4,150.7h3.3v-.8h-3.3Z" class="g6_361"/>
<path d="M165.2,153.1h1.5v-5.2l-1.7,.3v-.9l1.7,-.3h.9v6.1h1.5v.8h-3.9v-.8Z" class="g6_361"/>
<path d="M171,153.9h1v-1.2h-1Z" class="g6_361"/>
<path d="M176,146.9c.8,0,1.4,.3,1.8,.9c.4,.6,.6,1.5,.6,2.7c0,1.1,-.2,2,-.6,2.6c-.4,.6,-1,.9,-1.8,.9c-.7,0,-1.3,-.3,-1.7,-.9c-.4,-.6,-.6,-1.5,-.6,-2.6c0,-1.2,.2,-2.1,.6,-2.7c.4,-.6,1,-.9,1.7,-.9Zm0,.7c-.4,0,-.8,.3,-1,.7c-.3,.5,-.4,1.2,-.4,2.2c0,.9,.1,1.6,.4,2.1c.2,.5,.6,.7,1,.7c.5,0,.9,-.2,1.1,-.7c.3,-.5,.4,-1.2,.4,-2.1c0,-1,-.1,-1.7,-.4,-2.2c-.2,-.4,-.6,-.7,-1.1,-.7Z" class="g6_361"/>
<path d="M182.4,119.2h3.3v-.7h-3.3Z" class="g6_361"/>
<path d="M165.2,121.6h1.5v-5.2l-1.7,.3v-.8l1.7,-.4h.9v6.1h1.5v.8h-3.9v-.8Z" class="g6_361"/>
<path d="M171,122.4h1v-1.1h-1Z" class="g6_361"/>
<path d="M174.1,115.5h3.6v.8h-2.8V118l.4,-.1h.4c.8,0,1.4,.2,1.9,.6c.4,.4,.6,1,.6,1.7c0,.8,-.2,1.3,-.7,1.7c-.4,.5,-1.1,.7,-1.9,.7c-.3,0,-.6,-.1,-.9,-.1c-.3,-.1,-.6,-.1,-.9,-.2v-1c.2,.2,.5,.3,.8,.4c.3,0,.6,.1,1,.1c.5,0,.9,-.2,1.2,-.4c.3,-.3,.5,-.7,.5,-1.2c0,-.5,-.2,-.8,-.5,-1.1c-.3,-.3,-.7,-.4,-1.2,-.4c-.3,0,-.5,0,-.8,0c-.2,.1,-.5,.2,-.7,.3v-3.5Z" class="g6_361"/>
<path d="M182.4,87.7h3.3V87h-3.3Z" class="g6_361"/>
<path d="M165.8,90.2h3.3v.7h-4.4v-.7c.3,-.4,.8,-.9,1.4,-1.5c.7,-.6,1,-1,1.2,-1.2c.3,-.3,.5,-.6,.6,-.9c.1,-.2,.2,-.4,.2,-.7c0,-.3,-.1,-.6,-.4,-.8c-.2,-.3,-.6,-.4,-1,-.4c-.3,0,-.6,.1,-.9,.2c-.3,.1,-.7,.2,-1.1,.4v-.9c.4,-.2,.8,-.3,1.1,-.4c.3,0,.6,-.1,.9,-.1c.7,0,1.3,.2,1.7,.6c.4,.3,.6,.8,.6,1.4c0,.3,0,.5,-.1,.8c-.1,.3,-.3,.5,-.6,.9c-.1,.1,-.3,.3,-.7,.8c-.4,.4,-1,1,-1.8,1.8Z" class="g6_361"/>
<path d="M171,90.9h1V89.8h-1Z" class="g6_361"/>
<path d="M176,83.9c.8,0,1.4,.3,1.8,.9c.4,.6,.6,1.5,.6,2.7c0,1.2,-.2,2,-.6,2.7c-.4,.6,-1,.9,-1.8,.9c-.7,0,-1.3,-.3,-1.7,-.9c-.4,-.7,-.6,-1.5,-.6,-2.7c0,-1.2,.2,-2.1,.6,-2.7c.4,-.6,1,-.9,1.7,-.9Zm0,.8c-.4,0,-.8,.2,-1,.7c-.3,.4,-.4,1.2,-.4,2.1c0,.9,.1,1.7,.4,2.1c.2,.5,.6,.7,1,.7c.5,0,.9,-.2,1.1,-.7c.3,-.4,.4,-1.2,.4,-2.1c0,-.9,-.1,-1.7,-.4,-2.1c-.2,-.5,-.6,-.7,-1.1,-.7Z" class="g6_361"/>
<path d="M254.6,243.6l-2.7,-.3l-2.8,-.5c-21.4,-4.3,-32.8,-27.5,-20.2,-46.1l1.5,-1.9L232,193c22.1,-21,52,-5.9,70.3,12.6l7.2,7.1l1.2,1.2l.8,-.7h-1.1v.2h1.1l-.8,-.8l-8.3,8.2c-12.9,12.4,-28.8,23.8,-47.6,22.8h-.2l-.2,2.2h.3c19.5,1,35.8,-10.6,49.2,-23.4l8.4,-8.2c.2,-.2,.3,-.5,.3,-.8v-.2c0,-.3,-.1,-.6,-.3,-.8L311,211.1l-7.2,-7C292.9,193.7,280.4,184.2,265.3,181.5l-3.1,-.5c-11.7,-1.4,-23.5,1.9,-31.8,10.4v.1l-1.7,1.8v.1c-16.6,20.8,-3,48.8,22.8,52.1h.1l2.8,.3l.2,-2.2Z" class="g6_361"/>
<path d="M363.5,243.6l-3,-.3c-16.3,-2.2,-29.6,-12.7,-41.1,-23.9l-6.9,-6.8l-.8,.8h1.1v-.2h-1.1l.8,.7l8.3,-8.1l4,-3.7c18.5,-17.8,49.2,-29.3,68.6,-6.7l1.4,2l1.3,2.2c11,21.4,-5.6,43.6,-28.7,44h-3.9l-.1,2.2h1c26.2,1.4,45.9,-23.1,33.6,-47.2v-.1l-1.4,-2.3v-.1c-6.3,-9.5,-16.9,-14.7,-28.1,-15.3l-3,-.1h-.1c-16.3,.3,-30.3,9.2,-42.1,19.8l-4,3.7l-8.3,8.2c-.2,.2,-.4,.5,-.4,.8v.2c0,.3,.2,.6,.4,.8l6.9,6.8c11.8,11.5,25.5,22.2,42.4,24.5l3,.3l.2,-2.2Z" class="g6_361"/>
<path d="M302.2,301.8l-7.3,-.4l-7.1,-.5l-6.5,-.8c-48.8,-5.3,-94.9,-34.7,-95.2,-87.9l.1,-4.1l.4,-4c8.6,-57.8,65.4,-78.8,117.6,-79.4l7.5,-.1l7.6,.1l7.3,.3l7,.6c51.1,3.4,101.9,31,103.6,87.3l-.1,4l-.3,4c-7.5,58,-63.8,80,-116,80.9l-7.5,.1h-7.6l-3.5,-.1l-.1,.7l3.6,.1l7.5,.1h.1c30.2,-.3,62.6,-5,88,-22.7l3.7,-2.7c16.8,-12.9,28.7,-31.1,32,-52.2l.5,-4.1l.3,-4v-.1c1.1,-22.4,-7.7,-43.6,-23.5,-59.5l-3.2,-3C389.9,135,361.8,127.2,333.7,124.8l-7,-.5h-.1l-7.3,-.3l-7.6,-.1c-28.8,0,-59.7,4.1,-84.7,19.4l-4,2.5c-18.8,12.7,-32.5,31.6,-36.5,54.2l-.6,4l-.4,4.1c-1.5,22.4,6.9,43.8,22.3,59.9h.1l3,3.1c20.8,19.7,48.8,27.9,76.8,30.5h.1l7,.6l7.3,.3l.1,-.7Z" class="g7_361"/>
<g clip-path="url(#c0_361)">
<path d="M437.3,287.6l-3.3,3.7c-58.6,63.6,-187,63.5,-245.2,-.5L186,287.6l-.6,.5l2.8,3.2c58.6,64.3,187.5,64.4,246.3,.5l3.3,-3.7l-.5,-.5Z" class="g7_361"/>
<path d="M186,138.9l3.3,-3.6c58.5,-63.6,186.9,-63.5,245.1,.5l2.9,3.1l.5,-.5L435,135.3C376.5,71,247.5,70.8,188.7,134.7l-3.3,3.7l.6,.5Z" class="g7_361"/>
</g>
<path d="M207.5,338.9l-5.1,-3.3l-4.9,-3.3l-4.8,-3.6l-4.6,-3.6l-2.2,-1.9l-.5,.6l2.3,1.8c4.5,3.8,9.3,7.4,14.3,10.7l5.1,3.2l.4,-.6Z" class="g7_361"/>
<path d="M437.3,323.2l-4.5,3.7l-4.8,3.7l-4.8,3.4l-5.1,3.4l-2.4,1.5l.4,.6l2.4,-1.5c5.1,-3.2,10,-6.7,14.8,-10.5l4.5,-3.7l-.5,-.6Z" class="g7_361"/>
<path d="M185.9,103.4l4.6,-3.8L195.2,96L200,92.5l5.1,-3.3l2.4,-1.5l-.4,-.7l-2.4,1.5c-5.1,3.3,-10,6.8,-14.7,10.5l-4.6,3.8l.5,.6Z" class="g7_361"/>
<path d="M415.7,87.7l5.1,3.2l4.9,3.4l4.8,3.6l4.6,3.6l2.2,1.9l.5,-.6l-2.2,-1.9C431,97.1,426.2,93.6,421.3,90.3L416.1,87l-.4,.7Z" class="g7_361"/>
<path d="M185.3,339.6h.8V87h-.8Z" class="g6_361"/>
<path d="M437.2,339.6h.7V87h-.7Z" class="g6_361"/>
<path d="M185.3,339.6H437.9v-.8H185.3Z" class="g6_361"/>
<path d="M185.3,87.7H437.9V87H185.3Z" class="g6_361"/>
<path d="M454.4,339.2H467V87.3H454.4Z" class="g0_361"/>
<path d="M454.4,339.2H467V307.7H454.4Z" class="g8_361"/>
<path d="M454.4,307.7H467V276.2H454.4Z" class="g9_361"/>
<path d="M454.4,276.2H467V244.8H454.4Z" class="ga_361"/>
<path d="M454.4,244.8H467V213.3H454.4Z" class="g1_361"/>
<path d="M454.4,213.3H467V181.8H454.4Z" class="g2_361"/>
<path d="M454.4,181.8H467V150.3H454.4Z" class="g3_361"/>
<path d="M454.4,150.3H467V118.8H454.4Z" class="g4_361"/>
<path d="M467,339.6h3.4v-.8H467Z" class="g6_361"/>
<path d="M474.7,340.2h5.9v-.7h-5.9Z" class="g6_361"/>
<path d="M483.3,337.7c0,.3,.1,.6,.4,.8c.2,.2,.5,.3,.9,.3c.4,0,.7,-.1,.9,-.3c.3,-.2,.4,-.5,.4,-.8c0,-.4,-.1,-.7,-.4,-.9c-.2,-.2,-.5,-.3,-.9,-.3c-.4,0,-.7,.1,-.9,.3c-.3,.2,-.4,.5,-.4,.9Zm.4,1.4c-.4,-.1,-.7,-.2,-1,-.5c-.2,-.3,-.3,-.6,-.3,-1c0,-.6,.2,-1,.6,-1.3c.4,-.4,.9,-.5,1.6,-.5c.7,0,1.2,.1,1.6,.5c.4,.3,.6,.7,.6,1.3c0,.4,-.1,.7,-.3,1c-.2,.3,-.6,.4,-1,.5c.5,.1,.8,.3,1.1,.7c.2,.3,.4,.6,.4,1.1c0,.6,-.2,1.2,-.6,1.5c-.5,.4,-1,.5,-1.8,.5c-.8,0,-1.3,-.1,-1.8,-.5c-.4,-.3,-.6,-.9,-.6,-1.5c0,-.5,.2,-.8,.4,-1.1c.3,-.4,.6,-.6,1.1,-.7Zm.9,.4c-.4,0,-.8,.2,-1,.4c-.3,.2,-.4,.6,-.4,1c0,.4,.1,.7,.4,1c.2,.2,.6,.3,1,.3c.4,0,.8,-.1,1.1,-.4c.2,-.2,.3,-.5,.3,-.9c0,-.4,-.1,-.8,-.3,-1c-.3,-.2,-.7,-.4,-1.1,-.4Z" class="g6_361"/>
<path d="M467,308.1h3.4v-.7H467Z" class="g6_361"/>
<path d="M474.7,308.8h5.9V308h-5.9Z" class="g6_361"/>
<path d="M486.6,304.6v.8c-.3,-.1,-.5,-.2,-.7,-.2c-.3,-.1,-.5,-.1,-.7,-.1c-.7,0,-1.1,.2,-1.5,.6c-.3,.4,-.5,1.1,-.5,1.9c.2,-.3,.4,-.5,.7,-.6c.2,-.2,.5,-.2,.9,-.2c.7,0,1.2,.2,1.6,.6c.4,.4,.6,1,.6,1.7c0,.7,-.2,1.3,-.6,1.7c-.4,.4,-1,.7,-1.7,.7c-.8,0,-1.4,-.3,-1.8,-1c-.4,-.6,-.6,-1.5,-.6,-2.6c0,-1.1,.2,-2,.7,-2.6c.6,-.7,1.2,-1,2.1,-1c.3,0,.5,0,.7,.1c.3,0,.5,.1,.8,.2Zm-1.9,2.9c-.4,0,-.7,.2,-1,.4c-.2,.3,-.3,.7,-.3,1.2c0,.5,.1,.9,.3,1.2c.3,.3,.6,.4,1,.4c.4,0,.8,-.1,1,-.4c.3,-.3,.4,-.7,.4,-1.2c0,-.5,-.1,-.9,-.4,-1.2c-.2,-.2,-.6,-.4,-1,-.4Z" class="g6_361"/>
<path d="M467,276.6h3.4v-.7H467Z" class="g6_361"/>
<path d="M474.7,277.3h5.9v-.8h-5.9Z" class="g6_361"/>
<path d="M484.9,272.9h1.2v4.5h1v.8h-1v1.6h-.9v-1.6h-3.1v-.9l2.8,-4.4Zm.3,.9l-2.4,3.6h2.4v-3.6Z" class="g6_361"/>
<path d="M467,245.1h3.4v-.7H467Z" class="g6_361"/>
<path d="M474.7,245.8h5.9V245h-5.9Z" class="g6_361"/>
<path d="M483.4,247.6h3.3v.8h-4.4v-.8c.3,-.4,.8,-.9,1.4,-1.5c.6,-.6,1,-1,1.2,-1.2c.3,-.3,.5,-.6,.6,-.8c.1,-.3,.2,-.5,.2,-.7c0,-.4,-.1,-.7,-.4,-.9c-.2,-.3,-.6,-.4,-1,-.4c-.3,0,-.6,.1,-.9,.2c-.3,.1,-.7,.2,-1.1,.4v-.9c.4,-.2,.8,-.3,1.1,-.3c.3,-.1,.6,-.2,.9,-.2c.7,0,1.3,.2,1.7,.6c.4,.3,.6,.8,.6,1.4c0,.3,0,.6,-.1,.8c-.1,.3,-.3,.6,-.6,.9c-.1,.1,-.3,.4,-.7,.8c-.5,.4,-1,1,-1.8,1.8Z" class="g6_361"/>
<path d="M467,213.7h3.4v-.8H467Z" class="g6_361"/>
<path d="M476.7,209.9c.7,0,1.3,.3,1.7,.9c.5,.6,.7,1.5,.7,2.6c0,1.2,-.2,2.1,-.7,2.7c-.4,.6,-1,.9,-1.7,.9c-.8,0,-1.4,-.3,-1.8,-.9c-.4,-.6,-.6,-1.5,-.6,-2.7c0,-1.1,.2,-2,.6,-2.6c.4,-.6,1,-.9,1.8,-.9Zm0,.7c-.5,0,-.9,.2,-1.1,.7c-.3,.5,-.4,1.2,-.4,2.1c0,1,.1,1.7,.4,2.2c.2,.4,.6,.7,1.1,.7c.5,0,.8,-.3,1.1,-.7c.2,-.5,.3,-1.2,.3,-2.2c0,-.9,-.1,-1.6,-.3,-2.1c-.3,-.5,-.6,-.7,-1.1,-.7Z" class="g6_361"/>
<path d="M467,182.2h3.4v-.8H467Z" class="g6_361"/>
<path d="M475.5,184.6h3.2v.8h-4.3v-.8c.3,-.4,.8,-.8,1.4,-1.5c.6,-.6,1,-1,1.2,-1.2c.3,-.3,.5,-.6,.6,-.8c.1,-.2,.2,-.5,.2,-.7c0,-.4,-.2,-.7,-.4,-.9c-.3,-.2,-.6,-.3,-1,-.3c-.3,0,-.6,0,-1,.1c-.3,.1,-.6,.3,-1,.5v-1c.4,-.1,.7,-.2,1.1,-.3c.3,-.1,.6,-.1,.9,-.1c.7,0,1.2,.1,1.7,.5c.4,.4,.6,.8,.6,1.4c0,.3,-.1,.6,-.2,.8c-.1,.3,-.3,.6,-.5,.9c-.1,.1,-.4,.4,-.8,.8c-.4,.4,-1,1,-1.7,1.8Z" class="g6_361"/>
<path d="M467,150.7h3.4v-.8H467Z" class="g6_361"/>
<path d="M477,147h1.2v4.5h1v.8h-1v1.6h-1v-1.6h-3.1v-.9L477,147Zm.2,.8l-2.3,3.7h2.3v-3.7Z" class="g6_361"/>
<path d="M467,119.2h3.4v-.7H467Z" class="g6_361"/>
<path d="M478.6,115.7v.8c-.2,-.1,-.4,-.2,-.7,-.2c-.2,-.1,-.4,-.1,-.7,-.1c-.6,0,-1.1,.2,-1.4,.6c-.3,.4,-.5,1.1,-.5,1.9c.1,-.3,.4,-.5,.6,-.6c.3,-.2,.6,-.2,.9,-.2c.7,0,1.3,.2,1.7,.6c.4,.4,.6,1,.6,1.7c0,.7,-.2,1.3,-.6,1.7c-.5,.4,-1,.7,-1.7,.7c-.8,0,-1.4,-.3,-1.8,-1c-.5,-.6,-.7,-1.5,-.7,-2.6c0,-1.1,.3,-2,.8,-2.6c.5,-.7,1.2,-1,2.1,-1c.2,0,.5,0,.7,.1c.2,0,.5,.1,.7,.2Zm-1.8,2.9c-.4,0,-.8,.1,-1,.4c-.3,.3,-.4,.7,-.4,1.2c0,.5,.1,.9,.4,1.2c.2,.3,.6,.4,1,.4c.4,0,.7,-.1,1,-.4c.2,-.3,.4,-.7,.4,-1.2c0,-.5,-.2,-.9,-.4,-1.2c-.3,-.3,-.6,-.4,-1,-.4Z" class="g6_361"/>
<path d="M467,87.7h3.4V87H467Z" class="g6_361"/>
<path d="M475.4,85.8c0,.4,.1,.6,.3,.8c.3,.2,.6,.3,1,.3c.4,0,.7,-.1,.9,-.3c.2,-.2,.4,-.4,.4,-.8c0,-.4,-.2,-.6,-.4,-.8c-.2,-.2,-.5,-.3,-.9,-.3c-.4,0,-.7,.1,-1,.3c-.2,.2,-.3,.4,-.3,.8Zm.3,1.5c-.4,-.1,-.7,-.3,-.9,-.6c-.2,-.3,-.3,-.6,-.3,-1c0,-.5,.2,-1,.6,-1.3c.4,-.3,.9,-.5,1.6,-.5c.7,0,1.2,.2,1.6,.5c.4,.3,.6,.8,.6,1.3c0,.4,-.1,.7,-.4,1c-.2,.3,-.5,.5,-.9,.6c.5,.1,.8,.3,1.1,.6c.2,.3,.3,.7,.3,1.1c0,.7,-.2,1.2,-.6,1.5c-.4,.4,-1,.6,-1.7,.6c-.8,0,-1.4,-.2,-1.8,-.6c-.4,-.3,-.6,-.8,-.6,-1.5c0,-.4,.1,-.8,.4,-1.1c.2,-.3,.6,-.5,1,-.6Zm1,.4c-.5,0,-.8,.1,-1.1,.3c-.2,.3,-.4,.6,-.4,1c0,.4,.2,.7,.4,1c.3,.2,.6,.3,1.1,.3c.4,0,.8,-.1,1,-.3c.3,-.3,.4,-.6,.4,-1c0,-.4,-.1,-.7,-.4,-1c-.2,-.2,-.6,-.3,-1,-.3Z" class="g6_361"/>
<path d="M454.4,339.2v.4h13V87H454.1V339.6h.3v-.4h.4V87.7h11.9V338.8H454.4v.4h.4h-.4Z" class="g6_361"/>
<image clip-path="url(#c1_361)" preserveAspectRatio="none" x="186" y="87" width="21" height="16" xlink:href="img/1.jpg"/>
<image clip-path="url(#c2_361)" preserveAspectRatio="none" x="454" y="87" width="13" height="32" xlink:href="img/2.jpg"/>
<image clip-path="url(#c3_361)" preserveAspectRatio="none" x="186" y="323" width="21" height="16" xlink:href="img/3.jpg"/>
<path d="M340.7,584.1l-.4,.6c-.4,-.3,-.7,-.6,-1,-.7c-.3,-.2,-.7,-.2,-1.1,-.2c-.5,0,-.9,0,-1.3,.2c-.4,.1,-.7,.3,-1,.6c-.3,.2,-.5,.5,-.7,.9c-.1,.3,-.2,.7,-.2,1.1c0,.4,.1,.7,.3,1.1c.2,.3,.4,.6,.7,.8c.3,.3,.5,.6,.9,.8c.3,.2,.6,.4,.9,.7c.3,.3,.5,.5,.7,.8c.2,.3,.3,.6,.3,1c0,1.2,-.7,2.3,-2.2,2.3c-1.6,0,-2.3,-1.7,-2.5,-3.3h-.3l-.6,3.4h.4l.4,-1c.7,.8,1.6,1.2,2.6,1.2c.4,0,.9,-.1,1.3,-.3c.4,-.2,.8,-.4,1.1,-.7c.3,-.3,.5,-.6,.7,-1c.2,-.4,.3,-.8,.3,-1.3c0,-.5,-.1,-.9,-.3,-1.2c-.2,-.3,-.4,-.6,-.7,-.9c-.2,-.3,-.5,-.5,-.9,-.8c-.3,-.2,-.6,-.4,-.9,-.6c-.2,-.2,-.4,-.5,-.6,-.7c-.2,-.3,-.3,-.5,-.3,-.9c0,-1,.4,-1.9,1.9,-1.9c1.3,0,1.8,1.3,1.9,2.6h.3l.5,-2.6h-.2Z" class="gb_361"/>
<path d="M345,591.2l1.7,-6.3c.1,-.5,.3,-.7,.9,-.7c2.3,0,3.4,1.8,3.4,3.9c0,.4,-.1,.8,-.2,1.2c-.4,2.4,-2,4.6,-4.8,4.6c-1,0,-1.5,-.6,-1.3,-1.6c.1,-.3,.2,-.6,.3,-1.1Zm-1,-7.3v.2c.3,0,.6,0,.9,.2c.2,.2,.4,.4,.4,.6c0,.4,-.2,.9,-.3,1.3l-1.6,6c-.2,.9,-.8,1.4,-1.1,1.6c-.2,.1,-.5,.2,-.8,.2l-.1,.2h4.7c.9,0,1.7,-.1,2.5,-.3c.7,-.2,1.4,-.7,2.1,-1.3c.2,-.3,.5,-.6,.7,-.9c.2,-.3,.4,-.7,.6,-1.1c.2,-.3,.3,-.7,.4,-1.1c.1,-.4,.1,-.9,.1,-1.3c0,-.6,-.1,-1.2,-.3,-1.8c-.3,-.5,-.6,-1.1,-1.1,-1.5c-.5,-.4,-1.1,-.6,-1.6,-.8c-.6,-.1,-1.2,-.2,-1.8,-.2H344Z" class="gb_361"/>
<path d="M353.2,594v.2h4.7V594c-.6,0,-1,-.1,-1.2,-.3c-.3,-.2,-.4,-.4,-.4,-.7c0,-.2,0,-.5,.1,-.8l.9,-3.2h1.1c1,0,1,1.1,.9,2.2h.4l.9,-4.2h-.3c-.4,.8,-.8,1.6,-2,1.6h-.9l1.1,-4.4h1.8c.2,0,.5,0,.7,.1c.9,.4,1.5,1.3,1.7,2.3h.3v-2.7h-7.3l-.1,.2c.5,0,.8,.1,1,.3c.2,.1,.3,.3,.3,.6c0,.1,0,.3,0,.5c-.1,.1,-.1,.3,-.2,.6l-1.6,6.1c-.1,.4,-.2,.6,-.3,.8c-.1,.4,-.5,.7,-.8,.9c-.2,.1,-.5,.1,-.8,.1Z" class="gb_361"/>
<path d="M361.7,596.4l-.1,.2h5.9l.8,-2.3H368c-.5,1.1,-1.4,2,-3,2c-.7,0,-1,-.1,-1,-.7c0,-.2,0,-.4,0,-.6l1.1,-4.1c.1,-.3,.2,-.6,.3,-.8c.1,-.3,.3,-.7,.7,-.8c.1,-.1,.3,-.1,.5,-.1V589h-3.1l-.1,.2c.3,0,.7,0,.8,.1c.1,.1,.2,.3,.2,.5c0,.3,-.1,.5,-.2,.8l-1.2,4.5c0,.2,-.1,.4,-.1,.6c-.2,.3,-.4,.5,-.7,.6c-.1,.1,-.3,.1,-.5,.1Z" class="gb_361"/>
<path d="M371.7,592.1c.2,0,.4,.2,.4,.4c0,1,-1.2,1.7,-2.1,2c.2,-.8,.8,-2.4,1.7,-2.4Zm.1,-.3c-.8,0,-1.5,.6,-1.9,1.1c-.4,.6,-.8,1.4,-.8,2.3c0,.9,.3,1.5,1.2,1.5c.7,0,1.4,-.6,1.8,-1.3l-.1,-.1c-.3,.4,-.9,1.1,-1.5,1.1c-.5,0,-.6,-.3,-.6,-1c0,-.2,0,-.5,0,-.7c1.1,-.2,2.9,-.9,2.9,-2.1c0,-.5,-.5,-.8,-1,-.8Z" class="gb_361"/>
<path d="M378.8,596.7c.9,0,1.5,-1.1,1.8,-1.6l-.2,-.2c-.2,.4,-.7,1.3,-1.1,1.3c-.1,0,-.1,-.3,-.1,-.4c0,0,0,-.1,0,-.1c.2,-.7,.5,-1.4,.7,-2c0,-.4,.2,-.7,.2,-1.1c0,-.5,-.2,-.8,-.7,-.8c-.4,0,-.6,.2,-.9,.4c-.3,.3,-.6,.6,-.8,1.1h-.1c.1,-.3,.2,-.4,.2,-.7c0,-.4,-.3,-.8,-.8,-.8c-.6,0,-1.1,.5,-1.7,1.5c.1,-.3,.1,-.5,.1,-.8c0,-.4,0,-.7,-.5,-.7c-.9,0,-1.3,1,-1.5,1.8h.1c.2,-.4,.7,-1.5,1.1,-1.5c.2,0,.2,.3,.2,.4c0,.1,0,.2,0,.3c-.2,.6,-.4,1.1,-.6,1.8l-.6,2h.7l.7,-2.2c.4,-.8,.8,-1.6,1.4,-2.1c.2,-.2,.3,-.2,.4,-.2c.4,0,.3,.9,.2,1.1c-.1,.6,-.3,1,-.5,1.6l-.5,1.8h.7c.3,-.8,.5,-1.6,.7,-2.3c.3,-.7,.8,-1.5,1.2,-1.9c.3,-.2,.4,-.3,.6,-.3c.1,0,.2,.1,.2,.2c0,.5,-.2,.9,-.3,1.4c-.2,.6,-.4,1.1,-.6,1.7c-.1,.2,-.1,.4,-.1,.6c0,.3,.1,.7,.4,.7Z" class="gb_361"/>
<path d="M384.8,596.7c.9,0,1.4,-1,1.7,-1.5l-.2,-.1c-.2,.4,-.6,1.1,-1,1.1c-.1,0,-.1,-.3,-.1,-.4c0,-.1,0,-.3,.1,-.5c.1,-.3,.2,-.6,.3,-1c.2,-.6,.4,-1.4,.4,-1.7c0,-.5,-.2,-.8,-.7,-.8c-.8,0,-1.4,.7,-1.9,1.5v-.1c.1,-.2,.1,-.4,.1,-.7c0,-.4,-.1,-.7,-.5,-.7c-1,0,-1.3,1,-1.6,1.8l.3,.1c.1,-.5,.5,-1.6,1,-1.6c.1,0,.2,.1,.2,.2c0,.3,-.1,.7,-.2,.9c-.1,.4,-.2,.8,-.4,1.4l-.6,2h.7l.6,-1.9c.2,-.6,.6,-1.4,1,-1.9c.2,-.3,.7,-.7,1,-.7c.2,0,.3,.1,.3,.3c0,.1,-.1,.2,-.1,.3c0,.4,-.1,.6,-.2,1c-.2,.7,-.4,1.3,-.6,2c0,.1,0,.2,0,.3c0,.3,0,.7,.4,.7Z" class="gb_361"/>
<path d="M390.2,589.9c0,-.3,-.2,-.6,-.5,-.6c-.3,0,-.6,.3,-.6,.6c0,.3,.3,.5,.6,.5c.2,0,.5,-.3,.5,-.5Zm-2,6.8c.9,0,1.4,-.9,1.7,-1.5l-.2,-.1c-.1,.3,-.5,1.1,-1,1.1c-.1,0,-.2,-.2,-.2,-.3c0,-.2,.1,-.6,.2,-.8l.7,-2c.1,-.3,.1,-.5,.1,-.7c0,-.3,0,-.6,-.3,-.6c-.7,0,-1.5,.9,-1.7,1.4l.2,.1c.1,-.2,.5,-.8,.8,-.8c.1,0,.2,.1,.2,.2c0,.2,-.1,.5,-.2,.7l-.7,2c-.1,.3,-.1,.5,-.1,.7c0,.4,.1,.6,.5,.6Z" class="gb_361"/>
<path d="M392.3,596.4c-.3,0,-.4,-.3,-.3,-.6c.1,-.3,-.2,-.5,-.4,-.5c-.3,0,-.5,.2,-.5,.5c0,.6,.6,.9,1.2,.9c.4,0,.8,-.2,1,-.5c.3,-.2,.5,-.5,.5,-1c0,-.3,-.1,-.5,-.2,-.7c-.2,-.5,-.6,-.8,-.8,-1.2c-.1,-.1,-.1,-.3,-.1,-.5c0,-.3,.1,-.7,.5,-.7c.5,0,.4,.3,.4,.5c-.1,.1,.1,.4,.4,.4c.2,0,.3,-.2,.3,-.4c0,-.5,-.4,-.8,-.9,-.8c-.5,0,-.8,.2,-1.1,.4c-.2,.2,-.3,.6,-.3,1c0,.3,0,.5,.1,.7c.3,.3,.5,.7,.8,1c.1,.2,.2,.4,.2,.7c0,.3,-.1,.8,-.8,.8Z" class="gb_361"/>
<path d="M395.8,595.2c0,-.3,.1,-.7,.2,-1c.2,-.7,.8,-2.1,1.6,-2.1c.3,0,.3,.1,.3,.2c0,.1,-.1,.2,-.1,.3c0,.3,.1,.4,.4,.4c.3,0,.4,-.2,.4,-.4c0,-.5,-.4,-.8,-.9,-.8c-1,0,-1.8,1.1,-2.3,1.9c-.2,.4,-.4,.9,-.4,1.5c0,.8,.5,1.5,1.3,1.5c.9,0,1.5,-.8,1.9,-1.5l-.2,-.1c-.4,.7,-.9,1.3,-1.5,1.3c-.5,0,-.7,-.7,-.7,-1.2Z" class="gb_361"/>
<path d="M402.5,591.8c-.3,0,-.6,.2,-1,.4c-.3,.2,-.6,.5,-.9,.8c-.4,.6,-.9,1.4,-.9,2.4c0,.7,.3,1.3,1,1.3c.9,0,1.3,-.7,1.6,-1.2c-.2,.7,-.1,1.2,.4,1.2c.2,0,.5,-.2,.8,-.4c.3,-.2,.6,-.6,.8,-1l-.1,-.1c-.2,.3,-.7,1,-1,1c-.2,0,-.2,-.3,-.2,-.4c0,-.7,.4,-1.8,.7,-2.5l.5,-1.4h-.7l-.2,.5c-.2,-.3,-.4,-.6,-.8,-.6Zm.1,.3c.5,0,.4,.9,.3,1.3c0,.2,-.1,.5,-.2,.7c-.3,.9,-1.1,2.3,-1.7,2.3c-.4,0,-.5,-.7,-.5,-1.1c0,-.3,0,-.6,.1,-.9c.3,-.8,1.1,-2.3,2,-2.3Z" class="gb_361"/>
<path d="M405.9,596.7c.9,0,1.5,-1,1.8,-1.6l-.2,-.1c-.2,.3,-.6,1.2,-1.2,1.2c-.2,0,-.2,-.3,-.2,-.4c0,-.2,.1,-.4,.1,-.7l.8,-2.9h1v-.3h-.9l.3,-1.2h-.7l-.4,1.2h-.7l-.1,.3h.8l-.7,2.6c-.1,.3,-.2,.6,-.2,.8c-.1,.2,-.1,.4,-.1,.5c0,.4,.2,.6,.6,.6Z" class="gb_361"/>
<path d="M411.6,592.1c.2,0,.4,.2,.4,.4c0,1,-1.3,1.7,-2.2,2c.2,-.8,.9,-2.4,1.8,-2.4Zm.1,-.3c-.9,0,-1.5,.6,-1.9,1.1c-.5,.6,-.8,1.4,-.8,2.3c0,.9,.3,1.5,1.1,1.5c.8,0,1.5,-.6,1.9,-1.3l-.2,-.1c-.3,.4,-.9,1.1,-1.5,1.1c-.4,0,-.6,-.3,-.6,-1c0,-.2,0,-.5,.1,-.7c1,-.2,2.8,-.9,2.8,-2.1c0,-.5,-.4,-.8,-.9,-.8Z" class="gb_361"/>
<path d="M418.9,583.6c-2.1,1.4,-3.6,3.8,-3.6,6.8c0,2.8,1.6,5.6,3.6,6.8l.2,-.2c-2,-1.5,-2.5,-3.3,-2.5,-6.6c0,-3.3,.6,-5,2.5,-6.6l-.2,-.2Z" class="gb_361"/>
<path d="M428.2,588.8c0,-.6,-.5,-1,-1.1,-1c-.4,0,-.8,.1,-1.1,.3c-.4,.3,-.8,.6,-1,1c0,-.7,-.4,-1.3,-1.1,-1.3c-1.2,0,-2.1,1.2,-2.5,2l.3,.1c.3,-.4,1,-1.6,1.7,-1.6c.3,0,.4,.5,.4,.9c0,.3,-.1,.7,-.2,1.1l-.3,1.1c-.2,.6,-.4,1.3,-.7,1.7c-.1,.3,-.3,.6,-.7,.6c-.3,0,-.7,0,-.5,-.4c.1,-.3,0,-.7,-.6,-.7c-.6,0,-.9,.3,-.9,.8c0,.6,.5,1,1.2,1c1.2,0,2,-.8,2.4,-1.6h.1c.1,.9,.5,1.6,1.4,1.6c1.5,0,2.1,-1.2,2.6,-1.9l-.3,-.2c-.5,.6,-1.2,1.6,-1.9,1.6c-.4,0,-.6,-.6,-.6,-1.2c0,-.3,.1,-.7,.2,-1.3c.2,-.7,.4,-1.6,.7,-2.2c.2,-.2,.5,-.8,.8,-.8c.6,0,.4,.2,.3,.5c0,.4,.2,.6,.7,.6c.5,0,.7,-.3,.7,-.7Z" class="gb_361"/>
<path d="M429.5,583.6l-.1,.2c1.9,1.6,2.5,3.3,2.5,6.6c0,3.3,-.6,5.1,-2.5,6.6l.2,.2c2,-1.2,3.6,-4,3.6,-6.8c0,-3,-1.5,-5.4,-3.7,-6.8Z" class="gb_361"/>
<path d="M439.4,592.3H447v-.8h-7.6Zm0,-3H447v-.8h-7.6Z" class="gb_361"/>
<path d="M462.9,576h.2l1.6,-6c.1,-.2,.1,-.3,.2,-.5c.1,-.2,.4,-.7,.6,-.8c.1,-.1,.4,-.1,.5,-.1v-.2h-2.2l-.1,.2c.3,0,.5,.1,.6,.3c.2,.1,.2,.5,.2,.8c0,.1,0,.2,0,.4l-1.1,4v.1l-2.5,-5.8h-2l-.1,.2c.5,0,.6,0,.8,.2c.2,.2,.4,.7,.4,1c0,.1,0,.2,-.1,.3l-1.2,4.4c0,.4,-.3,.7,-.5,1c-.3,.2,-.7,.3,-1,.3v.2H460v-.2c-.3,0,-.6,0,-.7,-.2c-.2,-.2,-.3,-.5,-.3,-.8c0,-.1,0,-.2,0,-.4l1.1,-4.3l.1,-.2l2.7,6.1Z" class="gb_361"/>
<path d="M470.7,601.9v-.3c-.6,0,-1.5,-.3,-1.5,-.9V580.2c0,-.7,.9,-.9,1.5,-.9V579H453v.3c.6,0,1.5,.2,1.5,.9v20.4c0,.8,-.9,1,-1.5,1v.3h4.7v-.3c-.6,0,-1.6,-.3,-1.6,-1V580.2c0,-.4,.4,-.6,.8,-.6h9.9c.4,0,.7,.2,.7,.6v20.4c0,.8,-.8,1,-1.5,1v.3h4.7Z" class="gb_361"/>
<path d="M456.7,605.2c0,-.3,-.2,-.5,-.5,-.5c-.3,0,-.6,.2,-.6,.5c0,.3,.3,.6,.6,.6c.2,0,.5,-.3,.5,-.6Zm-2,6.8c.9,0,1.4,-.8,1.7,-1.4l-.2,-.1c-.1,.3,-.5,1.1,-1,1.1c-.1,0,-.2,-.2,-.2,-.3c0,-.2,.1,-.7,.2,-.8l.7,-2.1c.1,-.3,.1,-.4,.1,-.6c0,-.3,0,-.6,-.3,-.6c-.7,0,-1.5,.8,-1.8,1.4l.3,.1c.1,-.2,.5,-.8,.8,-.8c.1,0,.2,.1,.2,.2c0,.2,-.1,.5,-.2,.7l-.7,2c-.1,.3,-.1,.5,-.1,.7c0,.3,.1,.5,.5,.5Z" class="gb_361"/>
<path d="M457.9,610.6h5.6V610h-5.6Zm0,-2.2h5.6v-.6h-5.6Z" class="gb_361"/>
<path d="M465.4,604.9v.1c.3,0,.8,.1,.9,.1c.4,.2,.3,.3,.4,.8v4.7c0,.3,0,.5,-.1,.6c0,.5,-.6,.6,-1.2,.6v.1h3.5v-.1c-.4,0,-1,0,-1.1,-.2c-.2,-.3,-.2,-.6,-.2,-1v-6.3c-.6,.3,-1.5,.5,-2.2,.6Z" class="gb_361"/>
<path d="M476.3,597.1h.8V583.7h-.8Zm3,0h.8V583.7h-.8Z" class="gb_361"/>
<path d="M490,588.8c0,-.6,-.5,-1,-1.1,-1c-.4,0,-.8,.1,-1.1,.3c-.4,.3,-.8,.6,-1,1c0,-.7,-.4,-1.3,-1.1,-1.3c-1.2,0,-2.1,1.2,-2.4,2l.2,.1c.3,-.4,1,-1.6,1.7,-1.6c.3,0,.4,.5,.4,.9c0,.3,-.1,.7,-.2,1.1l-.3,1.1c-.2,.6,-.4,1.3,-.7,1.7c-.1,.3,-.3,.6,-.7,.6c-.3,0,-.7,0,-.5,-.4c.1,-.3,0,-.7,-.6,-.7c-.6,0,-.9,.3,-.9,.8c0,.6,.5,1,1.2,1c1.2,0,2,-.8,2.4,-1.6h.1c.1,.9,.5,1.6,1.4,1.6c1.5,0,2.1,-1.2,2.6,-1.9l-.3,-.2c-.5,.6,-1.2,1.6,-1.9,1.6c-.4,0,-.6,-.6,-.6,-1.2c0,-.3,.1,-.7,.2,-1.3c.2,-.7,.4,-1.6,.7,-2.2c.2,-.2,.5,-.8,.8,-.8c.6,0,.4,.2,.3,.5c0,.4,.2,.6,.7,.6c.5,0,.7,-.3,.7,-.7Z" class="gb_361"/>
<path d="M495,590.8h7.6V590H495Z" class="gb_361"/>
<path d="M507.8,597c-.3,0,-.5,-.4,-.6,-.6c-.1,-.3,-.2,-.6,-.7,-.6c-.4,0,-.6,.2,-.6,.5c0,.7,1.2,1.1,1.8,1.1c1.6,0,2,-.9,2.5,-2c.2,-.5,.5,-1.2,.7,-2l1.4,-5h1.1l.1,-.5h-1.1c.3,-1.2,.8,-3,1,-3.6c.1,-.2,.5,-.5,.8,-.5c.2,0,.6,.3,.7,.6c.1,.3,.2,.5,.7,.5c.4,0,.6,-.2,.6,-.5c0,-.6,-1.3,-1.1,-1.8,-1.1c-2.3,0,-3.1,3,-3.6,4.6h-1.1l-.1,.5h1l-1.9,7.1c-.1,.4,-.5,1.5,-.9,1.5Z" class="gb_361"/>
<path d="M514.5,589.5v.2c.4,0,.8,0,1,.1c.3,.2,.3,.3,.3,.7v4.8c0,.2,0,.4,0,.6c-.1,.4,-.7,.5,-1.2,.5v.2H518v-.2c-.3,0,-.9,0,-1,-.2c-.2,-.2,-.2,-.6,-.2,-1V589c-.6,.3,-1.6,.5,-2.3,.5Z" class="gb_361"/>
<path d="M521.8,597.1h.8V583.7h-.8Zm2.9,0h.9V583.7h-.9Z" class="gb_361"/>
<path d="M531.6,590.8h7.7V590h-7.7Z" class="gb_361"/>
<path d="M544.8,592.4c0,-.5,.1,-1,.2,-1.4c.3,-1,1.1,-2.9,2.3,-2.9c.3,0,.3,.1,.3,.3c0,.1,-.1,.2,-.1,.4c0,.3,.2,.6,.6,.6c.3,0,.5,-.2,.5,-.4v-.6c-.1,-.4,-.6,-.6,-1.2,-.6c-1.4,0,-2.5,1.4,-3.1,2.5c-.4,.5,-.6,1.3,-.6,2.1c0,1.1,.6,2,1.7,2c1.3,0,2.1,-1.1,2.6,-2.1l-.2,-.1c-.5,.9,-1.3,1.8,-2.1,1.8c-.6,0,-.9,-1,-.9,-1.6Z" class="gb_361"/>
</svg>