<?xml version="1.0" encoding="UTF-8" standalone="no"?>
<!DOCTYPE svg PUBLIC "-//W3C//DTD SVG 1.1//EN"
"http://www.w3.org/Graphics/SVG/1.1/DTD/svg11.dtd">
<svg viewBox="0 0 811 1017" version="1.1" xmlns="http://www.w3.org/2000/svg" xmlns:xlink="http://www.w3.org/1999/xlink">
<defs>
<style type="text/css"><![CDATA[
.g0_407{
fill: #AEACAB;
}
.g1_407{
fill: none;
stroke: #231F20;
stroke-width: 0.759;
stroke-linejoin: round;
}
.g2_407{
fill: none;
stroke: #C21F25;
stroke-width: 0.759;
stroke-miterlimit: 10;
stroke-dasharray: 3,2;
}
.g3_407{
fill: #C21F25;
}
.g4_407{
fill: #D1D0CF;
}
.g5_407{
fill: #DCDDDE;
}
.g6_407{
fill: #FFF;
}
]]></style>
</defs>
<path d="M176.6,123.1h38.9V103.7H176.6Z" class="g0_407"/>
<path d="M273.9,200.9h19.5V162H273.9Z" class="g0_407"/>
<path d="M157.1,220.4H312.9V200.9H157.1Z" class="g0_407"/>
<path d="M157.1,239.8H312.9V220.4H157.1Z" class="g0_407"/>
<path d="M176.6,83.9V240.1M196.1,83.9V240.1M215.5,83.9V240.1M235,83.9V240.1M254.5,83.9V240.1M273.9,83.9V240.1M293.4,83.9V240.1M156.8,103.7H313.2M156.8,123.1H313.2M156.8,142.6H313.2M156.8,162H313.2M156.8,181.5H313.2M156.8,200.9H313.2M156.8,220.4H313.2M157.1,83.9V240.1M312.9,83.9V240.1M156.8,84.2H313.2M156.8,239.8H313.2" class="g1_407"/>
<path d="M302.5,99.7H171" class="g2_407"/>
<path d="M172.5,97.5l-8.2,2.2l8.2,2.2V97.5Z" class="g3_407"/>
<path d="M302.5,119.6H171" class="g2_407"/>
<path d="M172.5,117.4l-8.2,2.2l8.2,2.2v-4.4Z" class="g3_407"/>
<path d="M302.5,138.9H171" class="g2_407"/>
<path d="M172.5,136.7l-8.2,2.2l8.2,2.2v-4.4Z" class="g3_407"/>
<path d="M302.5,158.2H171" class="g2_407"/>
<path d="M172.5,156l-8.2,2.2l8.2,2.2V156Z" class="g3_407"/>
<path d="M302.5,178.1H171" class="g2_407"/>
<path d="M172.5,175.8l-8.2,2.3l8.2,2.2v-4.5Z" class="g3_407"/>
<path d="M302.5,197.5H171" class="g2_407"/>
<path d="M172.5,195.3l-8.2,2.2l8.2,2.2v-4.4Z" class="g3_407"/>
<path d="M302.5,217H171" class="g2_407"/>
<path d="M172.5,214.8l-8.2,2.2l8.2,2.2v-4.4Z" class="g3_407"/>
<path d="M302.5,235.7H171" class="g2_407"/>
<path d="M172.5,233.5l-8.2,2.2l8.2,2.2v-4.4Z" class="g3_407"/>
<path d="M176.3,308.3h39V288.9h-39Z" class="g4_407"/>
<path d="M156.8,327.8h19.5V308.3H156.8Z" class="g4_407"/>
<path d="M176.3,327.8h39V308.3h-39Z" class="g0_407"/>
<path d="M215.3,327.8h19.5V308.3H215.3Z" class="g4_407"/>
<path d="M176.3,347.3h39V327.8h-39Z" class="g4_407"/>
<path d="M273.7,366.7h19.5V347.3H273.7Z" class="g4_407"/>
<path d="M254.3,386.2h19.4V366.7H254.3Z" class="g4_407"/>
<path d="M273.7,386.2h19.5V366.7H273.7Z" class="g0_407"/>
<path d="M293.2,386.2h19.5V366.7H293.2Z" class="g4_407"/>
<path d="M156.8,405.7H273.7V386.2H156.8Z" class="g4_407"/>
<path d="M273.7,405.7h19.5V386.2H273.7Z" class="g0_407"/>
<path d="M293.2,405.7h19.5V386.2H293.2Z" class="g4_407"/>
<path d="M156.8,425.1H312.7V405.7H156.8Z" class="g0_407"/>
<path d="M156.8,444.6H312.7V425.1H156.8Z" class="g0_407"/>
<path d="M176.3,288.6V444.9M195.8,288.6V444.9M215.3,288.6V444.9M234.8,288.6V444.9M254.3,288.6V444.9M273.7,288.6V444.9M293.2,288.6V444.9M156.5,308.3H313M156.5,327.8H313M156.5,347.3H313M156.5,366.7H313M156.5,386.2H313M156.5,405.7H313M156.5,425.1H313M156.8,288.6V444.9M312.7,288.6V444.9M156.5,288.9H313M156.5,444.6H313" class="g1_407"/>
<path d="M343.7,308.3h19.4V288.9H343.7Z" class="g5_407"/>
<path d="M363.1,308.3h39V288.9h-39Z" class="g4_407"/>
<path d="M402.1,308.3h19.5V288.9H402.1Z" class="g5_407"/>
<path d="M343.7,327.8h19.4V308.3H343.7Z" class="g4_407"/>
<path d="M363.1,327.8h39V308.3h-39Z" class="g0_407"/>
<path d="M402.1,327.8h19.5V308.3H402.1Z" class="g4_407"/>
<path d="M421.6,327.8h19.5V308.3H421.6Z" class="g5_407"/>
<path d="M343.7,347.3h19.4V327.8H343.7Z" class="g5_407"/>
<path d="M363.1,347.3h39V327.8h-39Z" class="g4_407"/>
<path d="M402.1,347.3h19.5V327.8H402.1Z" class="g5_407"/>
<path d="M460.6,347.3h19.5V327.8H460.6Z" class="g5_407"/>
<path d="M363.1,366.7h39V347.3h-39Z" class="g5_407"/>
<path d="M441.1,366.7h19.5V347.3H441.1Z" class="g5_407"/>
<path d="M460.6,366.7h19.5V347.3H460.6Z" class="g4_407"/>
<path d="M480.1,366.7h19.5V347.3H480.1Z" class="g5_407"/>
<path d="M343.7,386.2h97.4V366.7H343.7Z" class="g5_407"/>
<path d="M441.1,386.2h19.5V366.7H441.1Z" class="g4_407"/>
<path d="M460.6,386.2h19.5V366.7H460.6Z" class="g0_407"/>
<path d="M480.1,386.2h19.5V366.7H480.1Z" class="g4_407"/>
<path d="M343.7,405.7H460.6V386.2H343.7Z" class="g4_407"/>
<path d="M460.6,405.7h19.5V386.2H460.6Z" class="g0_407"/>
<path d="M480.1,405.7h19.5V386.2H480.1Z" class="g4_407"/>
<path d="M343.7,444.6H499.6V405.7H343.7Z" class="g0_407"/>
<path d="M363.1,288.6V444.9M382.6,288.6V444.9M402.1,288.6V444.9M421.6,288.6V444.9M441.1,288.6V444.9M460.6,288.6V444.9M480.1,288.6V444.9M343.4,308.3H499.9M343.4,327.8H499.9M343.4,347.3H499.9M343.4,366.7H499.9M343.4,386.2H499.9M343.4,405.7H499.9M343.4,425.1H499.9M343.7,288.6V444.9M499.6,288.6V444.9M343.4,288.9H499.9M343.4,444.6H499.9" class="g1_407"/>
<path d="M157,629.7H312.8V610.2H157Z" class="g0_407"/>
<path d="M157,649.1h19.5V629.7H157Z" class="g0_407"/>
<path d="M176.5,649.1h38.9V629.7H176.5Z" class="g6_407"/>
<path d="M215.4,649.1h97.4V629.7H215.4Z" class="g0_407"/>
<path d="M157,688.1H312.8v-39H157Z" class="g0_407"/>
<path d="M157,707.5H273.9V688.1H157Z" class="g0_407"/>
<path d="M273.9,707.5h19.5V688.1H273.9Z" class="g6_407"/>
<path d="M293.4,707.5h19.4V688.1H293.4Z" class="g0_407"/>
<path d="M157,727H273.9V707.5H157Z" class="g0_407"/>
<path d="M273.9,727h19.5V707.5H273.9Z" class="g6_407"/>
<path d="M293.4,727h19.4V707.5H293.4Z" class="g0_407"/>
<path d="M157,765.9H312.8V727H157Z" class="g6_407"/>
<path d="M176.5,609.9V766.2M196,609.9V766.2M215.4,609.9V766.2M234.9,609.9V766.2M254.4,609.9V766.2M273.9,609.9V766.2M293.4,609.9V766.2M156.7,629.7H313.1M156.7,649.1H313.1M156.7,668.6H313.1M156.7,688.1H313.1M156.7,707.5H313.1M156.7,727H313.1M156.7,746.4H313.1M157,609.9V766.2M312.8,609.9V766.2M156.7,610.2H313.1M156.7,765.9H313.1" class="g1_407"/>
<path d="M344.6,629.7h58.5V610.2H344.6Z" class="g0_407"/>
<path d="M403.1,629.7h97.4V610.2H403.1Z" class="g0_407"/>
<path d="M344.6,649.1h58.5V629.7H344.6Z" class="g0_407"/>
<path d="M403.1,649.1h97.4V629.7H403.1Z" class="g0_407"/>
<path d="M344.6,668.6h58.5V649.1H344.6Z" class="g0_407"/>
<path d="M403.1,668.6h97.4V649.1H403.1Z" class="g0_407"/>
<path d="M344.6,688.1h58.5V668.6H344.6Z" class="g0_407"/>
<path d="M403.1,688.1h97.4V668.6H403.1Z" class="g0_407"/>
<path d="M344.6,707.5h58.5V688.1H344.6Z" class="g0_407"/>
<path d="M403.1,707.5h97.4V688.1H403.1Z" class="g0_407"/>
<path d="M344.6,727h58.5V707.5H344.6Z" class="g0_407"/>
<path d="M403.1,727h97.4V707.5H403.1Z" class="g0_407"/>
<path d="M344.6,746.4h58.5V727H344.6Z" class="g0_407"/>
<path d="M403.1,746.4h58.4V727H403.1Z" class="g0_407"/>
<path d="M461.5,746.4H481V727H461.5Z" class="g6_407"/>
<path d="M481,746.4h19.5V727H481Z" class="g0_407"/>
<path d="M344.6,765.9h58.5V746.4H344.6Z" class="g6_407"/>
<path d="M403.1,765.9h97.4V746.4H403.1Z" class="g6_407"/>
<path d="M364.1,609.9V766.2M383.6,609.9V766.2M403.1,609.9V766.2M422.5,609.9V766.2M442,609.9V766.2M461.5,609.9V766.2M481,609.9V766.2M344.3,629.7H500.8M344.3,649.1H500.8M344.3,668.6H500.8M344.3,688.1H500.8M344.3,707.5H500.8M344.3,727H500.8M344.3,746.4H500.8M344.6,609.9V766.2M500.5,609.9V766.2M344.3,610.2H500.8M344.3,765.9H500.8M532.4,609.7V766" class="g1_407"/>
<image x="532" y="610" width="157" height="117" xlink:href="shade/1.png"/>
<path d="M532.4,746.4H649.2V727H532.4Z" class="g6_407"/>
<path d="M649.2,746.4h19.5V727H649.2Z" class="g0_407"/>
<path d="M668.7,746.4h19.5V727H668.7Z" class="g6_407"/>
<path d="M532.4,766.3H688.2V746.8H532.4Z" class="g0_407"/>
<path d="M551.8,609.9V766.2M571.3,609.9V766.2M590.8,609.9V766.2M610.3,609.9V766.2M629.8,609.9V766.2M649.2,609.9V766.2M668.7,609.9V766.2M532.1,629.7H688.5M532.1,649.1H688.5M532.1,668.6H688.5M532.1,688.1H688.5M532.1,707.5H688.5M532.1,727H688.5M532.1,746.4H688.5m-.3,-136.6V766.1M532,610.1H688.4M532.1,765.9H688.5M532.3,610V766.3" class="g1_407"/>
</svg>