<?xml version="1.0" encoding="UTF-8" standalone="no"?>
<!DOCTYPE svg PUBLIC "-//W3C//DTD SVG 1.1//EN"
"http://www.w3.org/Graphics/SVG/1.1/DTD/svg11.dtd">
<svg viewBox="0 0 811 1017" version="1.1" xmlns="http://www.w3.org/2000/svg" xmlns:xlink="http://www.w3.org/1999/xlink">
<defs>
<clipPath id="c0_197"><path d="M156.1,385V82.5H458.6V385Z"/></clipPath>
<style type="text/css"><![CDATA[
.g0_197{
fill: #F7F5E8;
}
.g1_197{
fill: #0E0E0E;
}
]]></style>
</defs>
<path d="M156.1,686H724.4V410H156.1Z" class="g0_197"/>
<image clip-path="url(#c0_197)" preserveAspectRatio="none" x="156" y="83" width="303" height="302" xlink:href="img/1.jpg"/>
<path d="M369.7,549.6l.4,-.5l-2,7.4c0,.3,-.1,.6,-.2,.8c-.2,.3,-.5,.7,-.8,.9c-.2,0,-.4,.1,-.6,.1l-.1,.2h4.3l.1,-.2c-.5,0,-.9,-.1,-1.1,-.2c-.2,-.2,-.2,-.5,-.2,-.8c0,-.2,0,-.6,.1,-1l1.5,-5.5c.1,-.5,.2,-.9,.3,-1.1c.2,-.5,.5,-1,.8,-1.2c.2,-.1,.4,-.1,.7,-.1v-.3h-2.6l-5,8h-.2l-1,-8h-3.2l-.1,.3c.5,0,.8,0,1,.1c.2,.1,.4,.4,.4,.7c0,.2,0,.6,-.1,1.1l-1.7,6.2c-.1,.4,-.5,1,-.8,1.3c-.3,.3,-.8,.5,-1.3,.5v.2H362v-.2c-.3,0,-.7,-.1,-.9,-.4c-.1,-.2,-.4,-.6,-.4,-1c0,-.2,0,-.4,.1,-.6l1.8,-6.7l.1,-.4l1.1,9.3h.4l5.5,-8.9Z" class="g1_197"/>
<path d="M381.3,548.4l-.4,.5c-.3,-.3,-.6,-.5,-1,-.7c-.3,-.1,-.7,-.2,-1.1,-.2c-.5,0,-.9,.1,-1.3,.2c-.3,.2,-.7,.4,-1,.6c-.2,.3,-.5,.6,-.6,.9c-.2,.4,-.3,.7,-.3,1.1c0,.4,.1,.8,.3,1.1c.2,.3,.4,.6,.7,.9c.3,.2,.6,.5,.9,.7c.3,.2,.6,.5,.9,.7c.3,.3,.5,.6,.7,.8c.2,.3,.3,.7,.3,1c0,1.2,-.7,2.3,-2.2,2.3c-1.6,0,-2.3,-1.7,-2.5,-3.2h-.3l-.5,3.4h.3l.4,-1c.8,.7,1.6,1.1,2.6,1.1c.5,0,.9,-.1,1.3,-.2c.4,-.2,.8,-.4,1.1,-.7c.3,-.3,.5,-.7,.7,-1.1c.2,-.4,.3,-.8,.3,-1.3c0,-.4,-.1,-.8,-.3,-1.2c-.2,-.3,-.4,-.6,-.7,-.9c-.2,-.2,-.5,-.5,-.8,-.7c-.4,-.2,-.7,-.5,-.9,-.7c-.3,-.2,-.5,-.4,-.7,-.7c-.2,-.2,-.3,-.5,-.3,-.8c0,-1.1,.4,-2,1.9,-2c1.3,0,1.8,1.3,1.9,2.7h.3l.5,-2.6h-.2Z" class="g1_197"/>
<path d="M382.3,558.3l-.1,.2h8.4l1,-2.8h-.3c-.6,1,-1.3,2.1,-2.6,2.3c-.4,.1,-.9,.2,-1.4,.2c-.7,0,-1.1,-.1,-1.4,-.3c-.3,-.1,-.5,-.5,-.5,-.8c0,-.3,.1,-.5,.2,-.8l.8,-3.1h1c.8,0,1,.4,1,1.3c0,.2,0,.4,0,.7h.4l.8,-4h-.4c-.1,.3,-.2,.5,-.4,.8c-.3,.5,-.7,.8,-1.5,.8h-.8l1.1,-4.3h1.7c.3,0,.6,0,.8,.1c.9,.2,1.3,1.3,1.6,2.3h.4v-2.8h-7.4v.3c.5,0,.8,.1,1,.2c.2,.1,.3,.4,.3,.7c0,.1,-.1,.2,-.1,.4c0,.2,-.1,.4,-.1,.6l-1.7,6.2c0,.3,-.1,.6,-.2,.8c-.2,.4,-.4,.7,-.8,.8c-.2,.1,-.5,.2,-.8,.2Z" class="g1_197"/>
<path d="M397.9,556.6h7.6v-.8h-7.6Zm0,-3h7.6v-.9h-7.6Z" class="g1_197"/>
<path d="M422.8,545.6h-.3c-.3,1.8,-1,2.7,-2,2.7h-5.8l4.3,-5.6l-3.9,-5.6h4.8c1.1,0,1.8,.5,2.1,2.4h.3l-.1,-3h-8.9l4.6,6.5l-5.2,6.5h10l.1,-3.9Z" class="g1_197"/>
<path d="M429.8,540.7h.3l1.6,-6c0,-.2,.1,-.3,.2,-.5c.1,-.2,.3,-.7,.6,-.8c.1,-.1,.3,-.1,.4,-.1l.1,-.2h-2.3v.2c.2,0,.4,.1,.6,.2c.1,.2,.2,.6,.2,.9c0,.1,-.1,.2,-.1,.4l-1,3.9l-.1,.2l-2.5,-5.8h-1.9l-.1,.2c.4,0,.6,0,.7,.2c.3,.2,.4,.7,.4,1c0,.1,0,.2,0,.3l-1.2,4.4c-.1,.3,-.3,.7,-.6,.9c-.2,.3,-.6,.4,-.9,.4l-.1,.2h2.8l.1,-.2c-.3,0,-.6,0,-.8,-.2c-.1,-.2,-.3,-.5,-.3,-.8c0,-.1,0,-.2,.1,-.4l1.1,-4.3l.1,-.2l2.6,6.1Z" class="g1_197"/>
<path d="M427.1,544.9c0,-.3,-.3,-.5,-.6,-.5c-.3,0,-.5,.2,-.5,.5c0,.3,.3,.6,.5,.6c.3,0,.6,-.3,.6,-.6Zm-2.1,6.8c1,0,1.5,-.8,1.8,-1.4l-.2,-.1c-.2,.2,-.6,1,-1,1c-.1,0,-.2,-.1,-.2,-.2c0,-.3,.1,-.7,.2,-.8l.7,-2.1c.1,-.3,.1,-.4,.1,-.6c0,-.3,0,-.6,-.3,-.6c-.7,0,-1.5,.8,-1.8,1.4l.2,.1c.2,-.2,.6,-.9,.8,-.9c.2,0,.2,.2,.2,.3c.1,.2,0,.5,-.1,.7l-.7,2c-.1,.3,-.2,.5,-.2,.6c0,.4,.2,.6,.5,.6Z" class="g1_197"/>
<path d="M428.3,550.3h5.6v-.6h-5.6Zm0,-2.2h5.6v-.6h-5.6Z" class="g1_197"/>
<path d="M435.8,544.6v.1c.3,0,.8,.1,.9,.1c.3,.2,.3,.3,.3,.8v4.7c0,.3,0,.5,0,.6c-.1,.5,-.6,.6,-1.2,.6v.1h3.4v-.1c-.3,0,-.9,-.1,-1,-.3c-.2,-.2,-.2,-.5,-.2,-.9V544c-.6,.3,-1.5,.5,-2.2,.6Z" class="g1_197"/>
<path d="M448.8,536.2c-2.2,1.4,-3.7,3.8,-3.7,6.9c0,2.7,1.6,5.5,3.6,6.8l.2,-.2c-1.9,-1.6,-2.5,-3.4,-2.5,-6.7c0,-3.3,.6,-5,2.5,-6.5l-.1,-.3Z" class="g1_197"/>
<path d="M450.7,549.7c-.3,0,-.4,-.2,-.5,-.5c0,-.2,-.1,-.5,-.5,-.5c-.2,0,-.4,.2,-.4,.4c0,.7,.8,.9,1.3,.9c.9,0,.9,-.2,1.3,-.7c.3,-.4,.4,-.8,.6,-1.3c.2,-.5,.5,-1.1,.7,-2l1.3,-5.1h1.3l.1,-.3h-1.3c.4,-1.2,.8,-3.2,1.2,-3.8c.1,-.2,.4,-.5,.7,-.5c.3,0,.5,.2,.5,.5c.1,.2,.2,.5,.5,.5c.3,0,.4,-.2,.4,-.4c0,-.6,-.8,-.9,-1.3,-.9c-1.8,0,-2.5,3,-2.9,4.6h-1.3l-.1,.3h1.3l-2,7.4c-.1,.3,-.4,1.4,-.9,1.4Z" class="g1_197"/>
<path d="M463.7,536.3c-2.2,1.4,-3.7,3.8,-3.7,6.8c0,2.8,1.6,5.6,3.6,6.8l.2,-.2c-2,-1.6,-2.5,-3.4,-2.5,-6.7c0,-3.2,.6,-5,2.5,-6.5l-.1,-.2Z" class="g1_197"/>
<path d="M472,541.4c0,-.5,-.4,-1,-1,-1c-.3,0,-.6,.2,-.9,.4c-.3,.2,-.6,.5,-.9,.9c0,-.7,-.4,-1.3,-1,-1.3c-1.2,0,-2.1,1.2,-2.5,2l.2,.1c.4,-.5,1.1,-1.7,2,-1.7c.3,0,.4,.6,.4,1c0,.3,0,.7,-.2,1.1l-.3,1.2c-.2,.6,-.4,1.4,-.8,1.8c-.1,.3,-.4,.7,-.7,.7c-.5,0,-.8,-.1,-.7,-.5c.1,-.3,.1,-.8,-.4,-.8c-.4,0,-.6,.4,-.6,.8c0,.6,.5,.9,1.1,.9c1,0,1.7,-.7,2.1,-1.4c.1,.8,.5,1.4,1.3,1.4c1.2,0,2.1,-1.1,2.5,-1.8l-.2,-.2c-.5,.7,-1.2,1.7,-2,1.7c-.4,0,-.6,-.6,-.6,-1.2c0,-.4,0,-.8,.2,-1.4l.1,-.7c.1,-.6,.4,-1.2,.7,-1.6c.1,-.3,.5,-1,.9,-1c.4,0,.4,.3,.4,.6c-.1,.4,.1,.6,.4,.6c.4,0,.5,-.3,.5,-.6Z" class="g1_197"/>
<path d="M475.2,542.4c0,-.2,-.3,-.5,-.6,-.5c-.3,0,-.5,.2,-.5,.5c0,.4,.2,.6,.5,.6c.3,0,.6,-.3,.6,-.6Zm-2.1,6.8c1,0,1.5,-.8,1.7,-1.4l-.1,-.1c-.2,.3,-.6,1.1,-1,1.1c-.2,0,-.3,-.2,-.3,-.3c0,-.2,.2,-.7,.2,-.8l.7,-2.1c.1,-.3,.2,-.4,.2,-.6c0,-.3,0,-.6,-.4,-.6c-.7,0,-1.5,.8,-1.7,1.4l.2,.1c.1,-.2,.5,-.8,.8,-.8c.2,0,.2,.1,.2,.2c0,.2,-.1,.5,-.1,.7l-.8,2c-.1,.3,-.1,.5,-.1,.7c0,.3,.1,.5,.5,.5Z" class="g1_197"/>
<path d="M477.2,536.3l-.1,.2c1.9,1.5,2.5,3.3,2.5,6.5c0,3.3,-.5,5.1,-2.5,6.7l.2,.2c2,-1.2,3.6,-4,3.6,-6.8c0,-3,-1.5,-5.4,-3.7,-6.8Z" class="g1_197"/>
<path d="M486.6,543.5h7.6v-.8h-7.6Z" class="g1_197"/>
<path d="M497.5,549.1c0,.6,.4,.9,1.1,.9c.4,0,.8,-.1,1.3,-.5c.8,-.7,2,-2.3,2.8,-3.5c.3,-.6,.7,-1.2,1,-1.8c.4,-.7,1.1,-2.1,1.1,-2.9c0,-.2,0,-.4,-.1,-.6c-.1,-.2,-.3,-.3,-.5,-.3c-.1,0,-.3,.1,-.4,.2c-.2,.2,-.2,.4,-.2,.7c0,.4,.2,.9,.2,1.3c0,.6,-.2,1.1,-.5,1.6c-.2,.5,-.4,.9,-.8,1.4h-.1l-.3,-1.9c-.1,-.6,-.3,-1.6,-.4,-2.1c-.2,-.6,-.3,-1.2,-1.3,-1.2c-1.2,0,-1.4,1.8,-1.6,2.6l.3,.1c.1,-.6,.5,-2.3,1,-2.3c.3,0,.5,1,.6,1.2c0,.3,.1,.7,.2,1.4l.6,3.5c-.3,.8,-1.2,1.7,-1.8,2.2c-.2,.1,-.5,.2,-.7,.2c-.1,0,-.2,0,-.2,-.1c-.2,-.3,-.2,-.8,-.7,-.8c-.4,0,-.6,.3,-.6,.7Z" class="g1_197"/>
<path d="M508,542.4c0,-.2,-.3,-.5,-.6,-.5c-.3,0,-.5,.2,-.5,.5c0,.4,.3,.6,.5,.6c.3,0,.6,-.3,.6,-.6Zm-2.1,6.8c1,0,1.5,-.8,1.8,-1.4l-.2,-.1c-.2,.3,-.6,1.1,-1,1.1c-.1,0,-.2,-.2,-.2,-.3c0,-.2,.1,-.7,.2,-.8l.7,-2.1c.1,-.3,.1,-.4,.1,-.6c0,-.3,0,-.6,-.3,-.6c-.7,0,-1.5,.8,-1.8,1.4l.2,.1c.2,-.2,.6,-.8,.8,-.8c.2,0,.3,.1,.3,.2c0,.2,-.1,.5,-.2,.7l-.7,2c-.1,.3,-.2,.5,-.2,.7c0,.3,.2,.5,.5,.5Z" class="g1_197"/>
<path d="M510.1,536.2l-.1,.3c1.9,1.5,2.5,3.2,2.5,6.5c0,3.3,-.6,5.1,-2.5,6.7l.1,.2c2.1,-1.3,3.7,-4.1,3.7,-6.8c0,-3.1,-1.6,-5.5,-3.7,-6.9Z" class="g1_197"/>
<path d="M517.9,535.9c-.7,0,-1.1,-.5,-1.1,-1.2c0,-.8,.4,-1.6,1.3,-1.6c1.2,0,1.3,1,1.3,1.9c0,.9,-.2,1.5,-.7,2.1c-.3,.4,-.6,.9,-1.1,1.4c-.5,.5,-1.1,1.1,-1.9,1.7v.3h4.6l.4,-2h-.3c-.1,.2,-.2,.4,-.3,.5c-.1,.4,-.4,.6,-1,.6H517v-.1c.5,-.3,1,-.7,1.4,-1c.7,-.7,1.5,-1.4,1.9,-2.3c.2,-.4,.3,-.8,.3,-1.2c0,-.3,0,-.6,-.2,-.8c-.3,-.8,-1,-1.3,-2.1,-1.3h-.1c-.7,0,-1.3,.3,-1.7,.6c-.4,.3,-.7,.8,-.7,1.4c0,.5,.2,.8,.4,1.1c.2,.2,.5,.4,.9,.4c.4,0,.7,-.2,.8,-.5Z" class="g1_197"/>
<path d="M412,555.1H522.1v-.9H412Z" class="g1_197"/>
<path d="M468.4,568.7h.4l2.2,-8.2c0,-.2,.1,-.4,.2,-.6c.2,-.4,.5,-1,.8,-1.2c.2,-.1,.5,-.1,.7,-.1l.1,-.2h-3.1l-.1,.2c.3,0,.6,.1,.8,.3c.2,.3,.2,.9,.2,1.2c0,.2,0,.3,0,.5l-1.4,5.5l-.1,.2l-3.4,-7.9H463l-.1,.2c.6,0,.8,0,1,.2c.3,.4,.5,1,.5,1.4c0,.2,0,.3,0,.4l-1.6,6.1c-.1,.5,-.5,1,-.8,1.3c-.4,.3,-.9,.5,-1.4,.5v.2h3.8l.1,-.2c-.4,0,-.8,-.1,-1,-.3c-.2,-.2,-.4,-.7,-.4,-1c0,-.2,0,-.4,0,-.6l1.6,-6l.1,-.3l3.6,8.4Z" class="g1_197"/>
<path d="M288.3,867.2h-.2c-4.7,5.3,-5.3,19.2,-5.3,20.7v.7h1.4v-.7c0,-1.2,.8,-14.9,4,-20.3c.1,-.1,.1,-.2,.1,-.4Z" class="g1_197"/>
<path d="M282.8,897.9h1.4v-9.6h-1.4Z" class="g1_197"/>
<path d="M288.3,919c0,-.1,0,-.2,-.1,-.3c-3.2,-5.4,-4,-19.2,-4,-20.4v-.7h-1.4v.7c0,1.6,.6,15.5,5.3,20.8q.1,0,.1,0q.1,0,.1,-.1Z" class="g1_197"/>
<path d="M315.3,878.1h.4l2.1,-8.2c.1,-.2,.2,-.4,.3,-.6c.2,-.4,.5,-1,.8,-1.2c.2,-.1,.5,-.1,.7,-.1v-.2h-3.1v.2c.3,0,.6,.1,.8,.4c.2,.2,.2,.8,.2,1.1c0,.2,0,.3,0,.5l-1.5,5.5v.2l-3.5,-7.9h-2.6l-.1,.2c.6,0,.8,0,1,.3c.3,.3,.5,.9,.5,1.3c0,.2,0,.3,0,.4l-1.7,6.1c-.1,.5,-.4,1,-.7,1.3c-.4,.3,-1,.5,-1.4,.5v.2h3.8l.1,-.2c-.4,0,-.8,0,-1,-.3c-.3,-.2,-.5,-.7,-.5,-1c0,-.2,0,-.4,.1,-.6l1.6,-6v-.3l3.7,8.4Z" class="g1_197"/>
<path d="M368.2,876.8h-.3c-.3,1.8,-1,2.7,-2,2.7h-5.8l4.3,-5.6l-3.9,-5.6h4.8c1.1,0,1.8,.6,2.1,2.4h.3l-.1,-3h-8.9l4.5,6.5l-5.1,6.6h10l.1,-4Z" class="g1_197"/>
<path d="M375.2,871.9h.3l1.6,-6c0,-.2,.1,-.3,.1,-.5c.2,-.2,.4,-.7,.7,-.8c.1,-.1,.3,-.1,.4,-.1l.1,-.2h-2.3v.2c.2,0,.4,.1,.6,.3c.1,.1,.1,.5,.1,.8c0,.1,0,.2,0,.4l-1,3.9l-.1,.2l-2.5,-5.8h-2v.2c.4,0,.6,0,.7,.2c.2,.2,.4,.7,.4,1c0,.1,0,.2,0,.3l-1.2,4.4c-.1,.4,-.3,.7,-.6,.9c-.2,.3,-.7,.4,-1,.4v.2h2.8v-.2c-.2,0,-.6,0,-.7,-.2c-.2,-.2,-.3,-.5,-.3,-.8c0,-.1,0,-.2,0,-.4l1.2,-4.3v-.2l2.7,6.1Z" class="g1_197"/>
<path d="M372.5,876.1c0,-.3,-.3,-.5,-.6,-.5c-.3,0,-.5,.2,-.5,.5c0,.3,.2,.6,.5,.6c.3,0,.6,-.3,.6,-.6Zm-2.1,6.8c1,0,1.5,-.8,1.8,-1.4l-.2,-.1c-.2,.3,-.6,1.1,-1,1.1c-.1,0,-.3,-.2,-.3,-.3c0,-.2,.2,-.7,.2,-.8l.8,-2.1c.1,-.3,.1,-.4,.1,-.6c0,-.3,0,-.6,-.4,-.6c-.6,0,-1.5,.8,-1.7,1.4l.2,.1c.2,-.2,.6,-.8,.8,-.8c.2,0,.2,.1,.2,.2c.1,.2,0,.5,-.1,.7l-.7,2c-.1,.3,-.2,.5,-.2,.7c0,.3,.2,.5,.5,.5Z" class="g1_197"/>
<path d="M373.7,881.5h5.5v-.6h-5.5Zm0,-2.2h5.5v-.6h-5.5Z" class="g1_197"/>
<path d="M381.1,875.8v.1c.4,0,.8,.1,1,.1c.3,.2,.3,.3,.3,.8v4.7c0,.3,0,.5,0,.6c-.1,.5,-.7,.6,-1.2,.6v.1h3.4v-.1c-.3,0,-.9,-.1,-1,-.2c-.2,-.3,-.2,-.6,-.2,-1v-6.3c-.6,.3,-1.6,.5,-2.3,.6Z" class="g1_197"/>
<path d="M396.2,872.6c0,-.5,-.4,-1,-1,-1c-.3,0,-.6,.2,-.9,.4c-.3,.2,-.6,.5,-.9,.9c0,-.7,-.4,-1.3,-1,-1.3c-1.1,0,-2.1,1.2,-2.5,2l.3,.1c.3,-.5,1,-1.7,1.9,-1.7c.3,0,.4,.6,.4,1c0,.3,0,.7,-.2,1.2l-.3,1.1c-.2,.6,-.4,1.4,-.7,1.8c-.2,.3,-.5,.7,-.8,.7c-.5,0,-.8,-.1,-.7,-.5c.1,-.3,.1,-.8,-.4,-.8c-.4,0,-.6,.4,-.6,.8c0,.6,.5,.9,1.1,.9c1,0,1.7,-.7,2.1,-1.4c.1,.8,.5,1.4,1.3,1.4c1.2,0,2.1,-1.1,2.5,-1.8l-.2,-.2c-.5,.7,-1.2,1.7,-2,1.7c-.4,0,-.6,-.6,-.6,-1.2c0,-.4,0,-.8,.2,-1.4l.1,-.7c.2,-.6,.4,-1.2,.7,-1.6c.1,-.3,.5,-1,.9,-1c.4,0,.4,.3,.4,.6c-.1,.5,.1,.6,.4,.6c.4,0,.5,-.3,.5,-.6Z" class="g1_197"/>
<path d="M399.4,873.7c0,-.3,-.3,-.6,-.6,-.6c-.3,0,-.5,.2,-.5,.6c0,.3,.2,.5,.5,.5c.3,0,.6,-.3,.6,-.5Zm-2.1,6.7c1,0,1.5,-.8,1.7,-1.4l-.1,-.1c-.2,.3,-.6,1.1,-1,1.1c-.2,0,-.3,-.2,-.3,-.3c0,-.2,.2,-.6,.2,-.8l.7,-2.1c.1,-.3,.2,-.4,.2,-.6c0,-.3,0,-.6,-.4,-.6c-.7,0,-1.5,.8,-1.7,1.4l.2,.1c.1,-.2,.5,-.8,.8,-.8c.2,0,.2,.1,.2,.2c0,.2,-.1,.5,-.1,.7l-.8,2c-.1,.3,-.1,.5,-.1,.7c0,.3,.1,.5,.5,.5Z" class="g1_197"/>
<path d="M430,876.8h-.3c-.3,1.8,-1,2.7,-2,2.7h-5.8l4.3,-5.6l-3.9,-5.6h4.8c1.1,0,1.8,.6,2.1,2.4h.3l-.1,-3h-8.9l4.5,6.5l-5.1,6.6h9.9l.2,-4Z" class="g1_197"/>
<path d="M437,871.9h.3l1.6,-6c0,-.2,.1,-.3,.1,-.5c.2,-.2,.4,-.7,.7,-.8c.1,-.1,.3,-.1,.4,-.1l.1,-.2h-2.3v.2c.2,0,.4,.1,.6,.3c.1,.1,.1,.5,.1,.8c0,.1,0,.2,0,.4l-1.1,3.9v.2L435,864.3h-2v.2c.4,0,.6,0,.7,.2c.2,.2,.4,.7,.4,1c0,.1,0,.2,0,.3l-1.2,4.4c-.1,.4,-.3,.7,-.6,.9c-.2,.3,-.7,.4,-1,.4v.2h2.8v-.2c-.3,0,-.6,0,-.7,-.2c-.2,-.2,-.3,-.5,-.3,-.8c0,-.1,0,-.2,0,-.4l1.2,-4.3v-.2l2.7,6.1Z" class="g1_197"/>
<path d="M434.3,876.1c0,-.3,-.3,-.5,-.6,-.5c-.3,0,-.5,.2,-.5,.5c0,.3,.2,.6,.5,.6c.3,0,.6,-.3,.6,-.6Zm-2.1,6.8c1,0,1.5,-.8,1.8,-1.4l-.2,-.1c-.2,.3,-.6,1.1,-1,1.1c-.1,0,-.3,-.2,-.3,-.3c0,-.2,.2,-.7,.2,-.8l.8,-2.1c.1,-.3,.1,-.4,.1,-.6c0,-.3,0,-.6,-.4,-.6c-.6,0,-1.5,.8,-1.7,1.4l.2,.1c.2,-.2,.6,-.8,.8,-.8c.2,0,.2,.1,.2,.2c0,.2,0,.5,-.1,.7l-.8,2c0,.3,-.1,.5,-.1,.7c0,.3,.1,.5,.5,.5Z" class="g1_197"/>
<path d="M435.5,881.5H441v-.6h-5.5Zm0,-2.2H441v-.6h-5.5Z" class="g1_197"/>
<path d="M442.9,875.8v.1c.4,0,.8,.1,1,.1c.3,.2,.3,.3,.3,.8v4.7c0,.3,0,.5,0,.6c-.1,.5,-.7,.6,-1.2,.6v.1h3.4v-.1c-.4,0,-.9,-.1,-1,-.2c-.2,-.3,-.2,-.6,-.2,-1v-6.3c-.6,.3,-1.6,.5,-2.3,.6Z" class="g1_197"/>
<path d="M458,872.6c0,-.5,-.4,-1,-1,-1c-.3,0,-.6,.2,-.9,.4c-.3,.2,-.6,.5,-.9,.9c0,-.7,-.4,-1.3,-1,-1.3c-1.2,0,-2.1,1.2,-2.5,2l.2,.1c.4,-.5,1.1,-1.7,2,-1.7c.3,0,.4,.6,.4,1c0,.3,0,.7,-.2,1.2l-.3,1.1c-.2,.6,-.4,1.4,-.8,1.8c-.1,.3,-.4,.7,-.7,.7c-.5,0,-.8,-.1,-.7,-.5c.1,-.3,0,-.8,-.4,-.8c-.4,0,-.6,.4,-.6,.8c0,.6,.5,.9,1,.9c1.1,0,1.8,-.7,2.2,-1.4c.1,.8,.5,1.4,1.3,1.4c1.2,0,2.1,-1.1,2.5,-1.8l-.2,-.2c-.5,.7,-1.2,1.7,-2,1.7c-.4,0,-.6,-.6,-.6,-1.2c0,-.4,0,-.8,.2,-1.4l.1,-.7c.1,-.6,.4,-1.2,.7,-1.6c.1,-.3,.5,-1,.9,-1c.4,0,.4,.3,.4,.6c-.1,.5,.1,.6,.4,.6c.4,0,.5,-.3,.5,-.6Z" class="g1_197"/>
<path d="M461.2,873.7c0,-.3,-.3,-.6,-.6,-.6c-.3,0,-.5,.2,-.5,.6c0,.3,.2,.5,.5,.5c.3,0,.6,-.3,.6,-.5Zm-2.1,6.7c1,0,1.5,-.8,1.7,-1.4l-.2,-.1c-.1,.3,-.5,1.1,-.9,1.1c-.2,0,-.3,-.2,-.3,-.3c0,-.2,.2,-.6,.2,-.8l.7,-2.1c.1,-.3,.2,-.4,.2,-.6c0,-.3,0,-.6,-.4,-.6c-.7,0,-1.5,.8,-1.7,1.4l.2,.1c.1,-.2,.5,-.8,.8,-.8c.2,0,.2,.1,.2,.2c0,.2,-.1,.5,-.1,.7l-.8,2c-.1,.3,-.1,.5,-.1,.7c0,.3,.1,.5,.5,.5Z" class="g1_197"/>
<path d="M465.3,868c-.7,0,-1.1,-.4,-1.1,-1.1c0,-.8,.5,-1.6,1.4,-1.6c1.2,0,1.3,.9,1.3,1.9c0,.9,-.3,1.4,-.7,2.1c-.3,.4,-.7,.8,-1.2,1.3c-.5,.5,-1.1,1.1,-1.8,1.8v.3h4.5l.4,-2.1h-.3c-.1,.2,-.2,.4,-.2,.6c-.2,.4,-.5,.6,-1,.6h-2.1v-.1c.4,-.4,.9,-.7,1.3,-1.1c.8,-.6,1.6,-1.3,2,-2.2c.2,-.4,.3,-.8,.3,-1.2c0,-.3,-.1,-.6,-.2,-.9c-.4,-.7,-1.1,-1.2,-2.2,-1.2c-.7,0,-1.3,.2,-1.7,.5c-.4,.4,-.7,.8,-.7,1.5c0,.5,.1,.8,.3,1c.2,.3,.5,.5,.9,.5c.4,0,.7,-.2,.8,-.6Z" class="g1_197"/>
<path d="M303,896h-.3c-.3,1.9,-1,2.7,-2,2.7h-5.9l4.3,-5.5l-3.8,-5.7h4.8c1.1,0,1.7,.6,2.1,2.4h.3l-.1,-3h-8.9l4.5,6.5l-5.2,6.6h10l.2,-4Z" class="g1_197"/>
<path d="M310,891.1h.3l1.5,-6c.1,-.2,.2,-.3,.2,-.5c.1,-.2,.4,-.7,.6,-.8c.1,-.1,.4,-.1,.5,-.1l.1,-.1h-2.3v.1c.2,0,.4,.1,.6,.3c.1,.1,.1,.5,.1,.8c0,.1,0,.2,0,.4l-1.1,4v.1L308,883.6h-2v.1c.4,0,.6,0,.7,.2c.2,.2,.4,.7,.4,1c0,.1,0,.2,-.1,.3l-1.1,4.4c-.1,.4,-.4,.7,-.6,1c-.3,.2,-.7,.3,-1,.3v.2h2.8v-.2c-.3,0,-.6,0,-.7,-.2c-.2,-.2,-.3,-.5,-.3,-.7c0,-.2,0,-.3,0,-.5l1.2,-4.3V885l2.7,6.1Z" class="g1_197"/>
<path d="M307.3,895.3c0,-.2,-.3,-.5,-.6,-.5c-.3,0,-.5,.2,-.5,.5c0,.4,.2,.6,.5,.6c.3,0,.6,-.3,.6,-.6Zm-2.1,6.8c1,0,1.5,-.8,1.8,-1.4l-.2,-.1c-.2,.3,-.6,1.1,-1,1.1c-.1,0,-.3,-.2,-.3,-.3c0,-.2,.2,-.6,.2,-.8l.7,-2.1c.2,-.3,.2,-.4,.2,-.6c0,-.3,0,-.6,-.4,-.6c-.7,0,-1.5,.8,-1.7,1.4l.2,.1c.1,-.2,.6,-.8,.8,-.8c.2,0,.2,.1,.2,.2c0,.2,-.1,.5,-.1,.7l-.8,2c0,.3,-.1,.5,-.1,.7c0,.3,.1,.5,.5,.5Z" class="g1_197"/>
<path d="M308.5,900.7H314v-.6h-5.5Zm0,-2.2H314v-.6h-5.5Z" class="g1_197"/>
<path d="M315.9,895v.1c.3,0,.8,.1,1,.2c.3,.1,.3,.2,.3,.7v4.8c0,.2,0,.4,0,.5c-.1,.5,-.7,.6,-1.2,.6v.2h3.4v-.2c-.4,0,-.9,0,-1.1,-.2c-.1,-.3,-.1,-.6,-.1,-1v-6.3c-.6,.3,-1.6,.5,-2.3,.6Z" class="g1_197"/>
<path d="M331,891.8c0,-.5,-.4,-1,-1,-1c-.3,0,-.6,.2,-.9,.4c-.3,.2,-.7,.5,-.9,.9c0,-.7,-.4,-1.3,-1,-1.3c-1.2,0,-2.1,1.2,-2.5,2l.2,.1c.4,-.5,1.1,-1.7,2,-1.7c.3,0,.4,.6,.4,1c0,.3,-.1,.7,-.2,1.2l-.4,1.1c-.1,.6,-.4,1.4,-.7,1.8c-.1,.3,-.4,.7,-.8,.7c-.4,0,-.7,-.1,-.6,-.5c.1,-.3,0,-.7,-.4,-.7c-.4,0,-.6,.3,-.6,.7c0,.6,.5,.9,1,.9c1,0,1.8,-.7,2.2,-1.4c.1,.8,.5,1.4,1.3,1.4c1.2,0,2,-1.1,2.5,-1.8l-.2,-.2c-.5,.7,-1.2,1.7,-2,1.7c-.4,0,-.6,-.6,-.6,-1.2c0,-.4,0,-.8,.1,-1.4l.2,-.7c.1,-.6,.4,-1.2,.7,-1.6c.1,-.3,.5,-1,.9,-1c.4,0,.4,.3,.3,.7c0,.4,.2,.5,.5,.5c.4,0,.5,-.2,.5,-.6Z" class="g1_197"/>
<path d="M334.1,892.9c0,-.3,-.2,-.6,-.5,-.6c-.3,0,-.6,.3,-.6,.6c0,.3,.3,.5,.6,.5c.3,0,.5,-.3,.5,-.5Zm-2,6.8c1,-.1,1.5,-.9,1.7,-1.5l-.2,-.1c-.1,.3,-.5,1.1,-1,1.1c-.1,0,-.2,-.2,-.2,-.3c0,-.2,.1,-.6,.2,-.8l.7,-2c.1,-.4,.2,-.5,.2,-.7c0,-.3,0,-.6,-.4,-.6c-.7,0,-1.5,.8,-1.7,1.4l.2,.1c.1,-.2,.5,-.8,.8,-.8c.2,0,.2,.1,.2,.2c0,.2,-.1,.5,-.2,.7l-.7,2c-.1,.3,-.1,.5,-.1,.7c0,.4,.1,.6,.5,.6Z" class="g1_197"/>
<path d="M364.8,896h-.3c-.3,1.9,-1,2.7,-2,2.7h-5.9l4.3,-5.5l-3.8,-5.7h4.8c1.1,0,1.7,.6,2,2.4h.4l-.1,-3h-8.9l4.5,6.5l-5.2,6.6h10l.2,-4Z" class="g1_197"/>
<path d="M371.8,891.1h.3l1.5,-6c.1,-.2,.1,-.3,.2,-.5c.1,-.2,.4,-.7,.6,-.8c.1,-.1,.4,-.1,.5,-.1l.1,-.1h-2.3v.1c.2,0,.4,.1,.5,.3c.2,.1,.2,.5,.2,.8c0,.1,0,.2,0,.4l-1.1,4v.1l-2.5,-5.7h-2v.1c.4,0,.5,0,.7,.2c.2,.2,.4,.7,.4,1c0,.1,0,.2,-.1,.3l-1.1,4.4c-.1,.4,-.4,.7,-.6,1c-.3,.2,-.7,.3,-1,.3v.2h2.8v-.2c-.3,0,-.6,0,-.7,-.2c-.2,-.2,-.3,-.5,-.3,-.7c0,-.2,0,-.3,0,-.5l1.2,-4.3V885l2.7,6.1Z" class="g1_197"/>
<path d="M369.1,895.3c0,-.2,-.3,-.5,-.6,-.5c-.3,0,-.5,.2,-.5,.5c0,.4,.2,.6,.5,.6c.3,0,.6,-.3,.6,-.6Zm-2.1,6.8c1,0,1.5,-.8,1.7,-1.4l-.1,-.1c-.2,.3,-.6,1.1,-1,1.1c-.2,0,-.3,-.2,-.3,-.3c0,-.2,.2,-.6,.2,-.8l.7,-2.1c.1,-.3,.2,-.4,.2,-.6c0,-.3,0,-.6,-.4,-.6c-.7,0,-1.5,.8,-1.7,1.4l.2,.1c.1,-.2,.5,-.8,.8,-.8c.2,0,.2,.1,.2,.2c0,.2,-.1,.5,-.1,.7l-.8,2c-.1,.3,-.1,.5,-.1,.7c0,.3,.1,.5,.5,.5Z" class="g1_197"/>
<path d="M370.3,900.7h5.5v-.6h-5.5Zm0,-2.2h5.5v-.6h-5.5Z" class="g1_197"/>
<path d="M377.7,895v.1c.3,0,.8,.1,1,.2c.3,.1,.3,.2,.3,.7v4.8c0,.2,0,.4,0,.5c-.1,.5,-.7,.6,-1.2,.6v.2h3.4v-.2c-.4,0,-.9,0,-1.1,-.2c-.1,-.3,-.1,-.6,-.1,-1v-6.3c-.6,.3,-1.6,.5,-2.3,.6Z" class="g1_197"/>
<path d="M392.8,891.8c0,-.5,-.4,-1,-1,-1c-.3,0,-.6,.2,-.9,.4c-.4,.2,-.7,.5,-.9,.9c0,-.7,-.4,-1.3,-1,-1.3c-1.2,0,-2.1,1.2,-2.5,2l.2,.1c.4,-.5,1.1,-1.7,2,-1.7c.3,0,.4,.6,.4,1c0,.3,-.1,.7,-.2,1.2l-.4,1.1c-.1,.6,-.4,1.4,-.7,1.8c-.1,.3,-.4,.7,-.8,.7c-.4,0,-.7,-.1,-.6,-.5c.1,-.3,0,-.7,-.4,-.7c-.4,0,-.6,.3,-.6,.7c0,.6,.5,.9,1,.9c1,0,1.8,-.7,2.2,-1.4c.1,.8,.5,1.4,1.3,1.4c1.2,0,2,-1.1,2.5,-1.8l-.2,-.2c-.5,.7,-1.2,1.7,-2,1.7c-.4,0,-.6,-.6,-.6,-1.2c0,-.4,0,-.8,.1,-1.4l.2,-.7c.1,-.6,.4,-1.2,.6,-1.6c.2,-.3,.6,-1,1,-1c.4,0,.4,.3,.3,.7c0,.4,.2,.5,.5,.5c.4,0,.5,-.2,.5,-.6Z" class="g1_197"/>
<path d="M395.9,892.9c0,-.3,-.2,-.6,-.5,-.6c-.3,0,-.6,.3,-.6,.6c0,.3,.3,.5,.6,.5c.3,0,.5,-.3,.5,-.5Zm-2,6.8c.9,-.1,1.5,-.9,1.7,-1.5l-.2,-.1c-.1,.3,-.5,1.1,-1,1.1c-.1,0,-.2,-.2,-.2,-.3c0,-.2,.1,-.6,.2,-.8l.7,-2c.1,-.4,.2,-.5,.2,-.7c0,-.3,-.1,-.6,-.4,-.6c-.7,0,-1.5,.8,-1.7,1.4l.2,.1c.1,-.2,.5,-.8,.8,-.8c.1,0,.2,.1,.2,.2c0,.2,-.1,.5,-.2,.7l-.7,2c-.1,.3,-.1,.5,-.1,.7c0,.4,.1,.6,.5,.6Z" class="g1_197"/>
<path d="M400.1,887.2c-.7,0,-1.1,-.4,-1.1,-1.1c0,-.8,.4,-1.6,1.3,-1.6c1.2,0,1.4,.9,1.4,1.9c0,.9,-.3,1.4,-.8,2.1c-.2,.4,-.6,.9,-1.1,1.3c-.5,.6,-1.1,1.1,-1.8,1.8v.3h4.5l.4,-2.1h-.3c-.1,.3,-.2,.4,-.2,.6c-.2,.4,-.5,.6,-1,.6h-2.1l-.1,-.1c.5,-.3,1,-.7,1.4,-1.1c.8,-.6,1.5,-1.3,2,-2.2c.1,-.4,.2,-.8,.2,-1.2c0,-.3,0,-.6,-.1,-.9c-.4,-.7,-1.1,-1.2,-2.2,-1.2c-.7,0,-1.3,.2,-1.7,.5c-.4,.4,-.7,.9,-.7,1.5c0,.5,.1,.8,.3,1.1c.2,.2,.5,.4,.9,.4c.4,0,.7,-.2,.8,-.6Z" class="g1_197"/>
<path d="M430,896h-.3c-.3,1.9,-1,2.7,-2,2.7h-5.8l4.3,-5.5l-3.9,-5.7h4.8c1.1,0,1.8,.6,2.1,2.4h.3l-.1,-3h-8.9l4.5,6.5l-5.1,6.6h9.9l.2,-4Z" class="g1_197"/>
<path d="M437,891.1h.3l1.6,-6c0,-.2,.1,-.3,.1,-.5c.2,-.2,.4,-.7,.7,-.8c.1,-.1,.3,-.1,.4,-.1l.1,-.1h-2.3v.1c.2,0,.4,.1,.6,.3c.1,.1,.1,.5,.1,.8c0,.1,0,.2,0,.4l-1.1,4v.1L435,883.6h-2v.1c.4,0,.6,0,.7,.2c.2,.2,.4,.7,.4,1c0,.1,0,.2,0,.3l-1.2,4.4c-.1,.4,-.3,.7,-.6,1c-.2,.2,-.7,.3,-1,.3v.2h2.8v-.2c-.3,0,-.6,0,-.7,-.2c-.2,-.2,-.3,-.5,-.3,-.7c0,-.2,0,-.3,0,-.5l1.2,-4.3V885l2.7,6.1Z" class="g1_197"/>
<path d="M434.3,895.3c0,-.2,-.3,-.5,-.6,-.5c-.3,0,-.5,.2,-.5,.5c0,.4,.2,.6,.5,.6c.3,0,.6,-.3,.6,-.6Zm-2.1,6.8c1,0,1.5,-.8,1.8,-1.4l-.2,-.1c-.2,.3,-.6,1.1,-1,1.1c-.1,0,-.3,-.2,-.3,-.3c0,-.2,.2,-.6,.2,-.8l.8,-2.1c.1,-.3,.1,-.4,.1,-.6c0,-.3,0,-.6,-.4,-.6c-.6,0,-1.5,.8,-1.7,1.4l.2,.1c.2,-.2,.6,-.8,.8,-.8c.2,0,.2,.1,.2,.2c0,.2,0,.5,-.1,.7l-.8,2c0,.3,-.1,.5,-.1,.7c0,.3,.1,.5,.5,.5Z" class="g1_197"/>
<path d="M435.5,900.7H441v-.6h-5.5Zm0,-2.2H441v-.6h-5.5Z" class="g1_197"/>
<path d="M442.9,895v.1c.4,0,.8,.1,1,.2c.3,.1,.3,.2,.3,.7v4.8c0,.2,0,.4,0,.5c-.1,.5,-.7,.6,-1.2,.6v.2h3.4v-.2c-.4,0,-.9,0,-1,-.2c-.2,-.3,-.2,-.6,-.2,-1v-6.3c-.6,.3,-1.6,.5,-2.3,.6Z" class="g1_197"/>
<path d="M458,891.8c0,-.5,-.4,-1,-1,-1c-.3,0,-.6,.2,-.9,.4c-.3,.2,-.6,.5,-.9,.9c0,-.7,-.4,-1.3,-1,-1.3c-1.2,0,-2.1,1.2,-2.5,2l.2,.1c.4,-.5,1.1,-1.7,2,-1.7c.3,0,.4,.6,.4,1c0,.3,0,.7,-.2,1.2l-.3,1.1c-.2,.6,-.4,1.4,-.8,1.8c-.1,.3,-.4,.7,-.7,.7c-.5,0,-.8,-.1,-.7,-.5c.1,-.3,0,-.7,-.4,-.7c-.4,0,-.6,.3,-.6,.7c0,.6,.5,.9,1,.9c1.1,0,1.8,-.7,2.2,-1.4c.1,.8,.5,1.4,1.3,1.4c1.2,0,2.1,-1.1,2.5,-1.8l-.2,-.2c-.5,.7,-1.2,1.7,-2,1.7c-.4,0,-.6,-.6,-.6,-1.2c0,-.4,0,-.8,.2,-1.4l.1,-.7c.1,-.6,.4,-1.2,.7,-1.6c.1,-.3,.5,-1,.9,-1c.4,0,.4,.3,.4,.7c-.1,.4,.1,.5,.4,.5c.4,0,.5,-.2,.5,-.6Z" class="g1_197"/>
<path d="M461.2,892.9c0,-.3,-.3,-.6,-.6,-.6c-.3,0,-.5,.3,-.5,.6c0,.3,.2,.5,.5,.5c.3,0,.6,-.3,.6,-.5Zm-2.1,6.8c1,-.1,1.5,-.9,1.7,-1.5l-.2,-.1c-.1,.3,-.5,1.1,-.9,1.1c-.2,0,-.3,-.2,-.3,-.3c0,-.2,.2,-.6,.2,-.8l.7,-2c.1,-.4,.2,-.5,.2,-.7c0,-.3,0,-.6,-.4,-.6c-.7,0,-1.5,.8,-1.7,1.4l.2,.1c.1,-.2,.5,-.8,.8,-.8c.2,0,.2,.1,.2,.2c0,.2,-.1,.5,-.1,.7l-.8,2c-.1,.3,-.1,.5,-.1,.7c0,.4,.1,.6,.5,.6Z" class="g1_197"/>
<path d="M465.5,891.8c-.7,0,-1.3,-.7,-1.3,-1.4c0,-.5,.4,-.9,.9,-.9c-.1,-.3,-.4,-.5,-.8,-.5c-.1,0,-.3,.1,-.4,.1c-.4,.2,-.7,.6,-.7,1.2c0,.2,.1,.5,.2,.7c.4,.6,1.1,1,2.1,1c.8,0,1.5,-.2,1.9,-.6c.4,-.3,.7,-.8,.7,-1.5c0,-.3,0,-.5,-.1,-.7c-.3,-.7,-.8,-1.1,-1.6,-1.3v-.1c.5,-.1,.8,-.3,1.1,-.6c.2,-.3,.4,-.7,.4,-1.2c0,-.2,0,-.5,-.2,-.7c-.3,-.7,-1.1,-1,-2.1,-1c-.6,0,-1.2,.1,-1.5,.3c-.3,.3,-.6,.6,-.6,1.1c0,.3,.1,.5,.3,.7c.1,.2,.4,.3,.7,.3c.1,0,.3,0,.4,-.1c.2,-.1,.2,-.2,.3,-.3c-.4,0,-.7,-.3,-.7,-.7c0,-.6,.4,-1.1,1.1,-1.1c.7,0,1.1,.7,1.1,1.6c0,.9,-.2,1.7,-1,1.7c-.2,0,-.4,-.1,-.6,-.1c-.2,0,-.6,.1,-.6,.3c0,.2,.4,.3,.6,.3c.2,0,.5,-.2,.7,-.2c.8,0,1.1,.8,1.1,1.7c0,1,-.4,2,-1.4,2Z" class="g1_197"/>
<path d="M299.6,915.2h-.3c-.3,1.9,-1,2.7,-2.1,2.7h-5.8l4.3,-5.5l-3.8,-5.7h4.8c1,0,1.7,.6,2,2.5h.4l-.1,-3.1h-8.9l4.5,6.5l-5.2,6.6h10l.2,-4Z" class="g1_197"/>
<path d="M306.6,910.3h.2l1.6,-6c.1,-.2,.1,-.3,.2,-.5c.1,-.2,.4,-.7,.6,-.8c.1,-.1,.4,-.1,.5,-.1v-.1h-2.2l-.1,.1c.3,0,.5,.1,.6,.3c.2,.1,.2,.6,.2,.8c0,.1,0,.3,0,.4l-1.1,4v.1l-2.5,-5.7h-2l-.1,.1c.5,0,.6,0,.8,.2c.2,.3,.4,.7,.4,1c0,.1,0,.2,-.1,.3l-1.2,4.4c0,.4,-.3,.7,-.5,1c-.3,.2,-.7,.3,-1,.3v.2h2.8v-.2c-.3,0,-.6,0,-.7,-.2c-.2,-.1,-.3,-.5,-.3,-.7c0,-.2,0,-.3,0,-.5l1.1,-4.3l.1,-.2l2.7,6.1Z" class="g1_197"/>
<path d="M303.8,914.6c0,-.3,-.2,-.6,-.5,-.6c-.3,0,-.6,.3,-.6,.6c0,.3,.3,.5,.6,.5c.3,0,.5,-.3,.5,-.5Zm-2,6.7v0c1,0,1.5,-.8,1.7,-1.4l-.2,-.1c-.1,.3,-.5,1.1,-1,1.1c-.1,0,-.2,-.2,-.2,-.3c0,-.2,.1,-.6,.2,-.8l.7,-2.1c.1,-.3,.2,-.4,.2,-.6c0,-.3,0,-.6,-.4,-.6c-.7,0,-1.5,.8,-1.7,1.4l.2,.1c.1,-.2,.5,-.8,.8,-.8c.2,0,.2,.1,.2,.2c0,.2,-.1,.5,-.2,.7l-.7,2c-.1,.3,-.1,.5,-.1,.7c0,.3,.1,.5,.5,.5Z" class="g1_197"/>
<path d="M305.1,919.9h5.5v-.6h-5.5Zm0,-2.2h5.5v-.6h-5.5Z" class="g1_197"/>
<path d="M312.5,914.2v.1c.3,0,.8,.1,1,.2c.3,.1,.3,.3,.3,.7V920c0,.2,0,.4,-.1,.5c0,.5,-.6,.6,-1.1,.6v.2H316v-.2c-.4,0,-.9,0,-1.1,-.2c-.1,-.2,-.2,-.6,-.2,-1v-6.3c-.5,.3,-1.5,.6,-2.2,.6Z" class="g1_197"/>
<path d="M327.6,911c0,-.5,-.5,-.9,-1,-.9c-.3,0,-.6,.1,-1,.3c-.3,.2,-.6,.5,-.8,.9c0,-.7,-.4,-1.2,-1.1,-1.2c-1.1,0,-2.1,1.1,-2.4,1.9l.2,.1c.4,-.5,1.1,-1.7,2,-1.7c.3,0,.4,.6,.4,1c0,.3,-.1,.7,-.2,1.2l-.4,1.1c-.1,.6,-.4,1.4,-.7,1.8c-.2,.3,-.4,.7,-.8,.7c-.4,0,-.7,-.1,-.6,-.5c.1,-.3,0,-.7,-.4,-.7c-.5,0,-.6,.3,-.6,.7c0,.6,.4,1,1,1c1,0,1.8,-.8,2.1,-1.5h.1c.1,.8,.5,1.5,1.3,1.5c1.2,0,2,-1.2,2.5,-1.9l-.2,-.1c-.5,.6,-1.2,1.6,-2,1.6c-.4,0,-.6,-.6,-.6,-1.2c0,-.4,0,-.8,.1,-1.4l.2,-.7c.1,-.5,.4,-1.2,.6,-1.6c.2,-.3,.6,-.9,1,-.9c.4,0,.4,.3,.3,.6c0,.4,.2,.5,.5,.5c.4,0,.5,-.2,.5,-.6Z" class="g1_197"/>
<path d="M330.7,912.1c0,-.3,-.2,-.6,-.5,-.6c-.3,0,-.6,.3,-.6,.6c0,.3,.3,.5,.6,.5c.2,0,.5,-.3,.5,-.5Zm-2,6.8c.9,0,1.4,-.9,1.7,-1.5l-.2,-.1c-.1,.3,-.5,1.1,-1,1.1c-.1,0,-.2,-.2,-.2,-.3c0,-.2,.1,-.6,.2,-.8l.7,-2c.1,-.3,.1,-.5,.1,-.7c0,-.3,0,-.6,-.3,-.6c-.7,0,-1.5,.9,-1.8,1.4l.3,.1c.1,-.2,.5,-.8,.8,-.8c.1,0,.2,.1,.2,.2c0,.2,-.1,.5,-.2,.7l-.7,2c-.1,.3,-.1,.5,-.1,.7c0,.4,.1,.6,.5,.6Z" class="g1_197"/>
<path d="M334.9,906.5c-.7,0,-1.1,-.5,-1.1,-1.2c0,-.8,.4,-1.6,1.3,-1.6c1.2,0,1.3,1,1.3,1.9c0,.9,-.2,1.5,-.7,2.1c-.2,.4,-.6,.9,-1.1,1.4c-.5,.5,-1.1,1,-1.8,1.7v.3h4.5l.4,-2.1h-.3c-.1,.3,-.2,.5,-.3,.6c-.1,.4,-.4,.6,-1,.6H334v-.1c.5,-.3,1,-.7,1.4,-1c.8,-.7,1.5,-1.4,2,-2.3c.1,-.4,.2,-.8,.2,-1.2c0,-.3,0,-.6,-.1,-.9c-.4,-.7,-1.1,-1.2,-2.2,-1.2c-.7,0,-1.4,.2,-1.8,.5c-.3,.4,-.7,.9,-.7,1.5c0,.5,.2,.8,.4,1.1c.2,.2,.5,.4,.9,.4c.4,0,.7,-.2,.8,-.5Z" class="g1_197"/>
<path d="M364.8,915.2h-.3c-.3,1.9,-1,2.7,-2,2.7h-5.9l4.3,-5.5l-3.8,-5.7h4.8c1.1,0,1.7,.6,2,2.5h.4l-.1,-3.1h-8.9l4.5,6.5l-5.2,6.6h10l.2,-4Z" class="g1_197"/>
<path d="M371.8,910.3h.3l1.5,-6c.1,-.2,.1,-.3,.2,-.5c.1,-.2,.4,-.7,.6,-.8c.1,-.1,.4,-.1,.5,-.1l.1,-.1h-2.3v.1c.2,0,.4,.1,.5,.3c.2,.1,.2,.6,.2,.8c0,.1,0,.3,0,.4l-1.1,4v.1l-2.5,-5.7h-2v.1c.4,0,.5,0,.7,.2c.2,.3,.4,.7,.4,1c0,.1,0,.2,-.1,.3l-1.1,4.4c-.1,.4,-.4,.7,-.6,1c-.3,.2,-.7,.3,-1,.3v.2h2.8v-.2c-.3,0,-.6,0,-.7,-.2c-.2,-.1,-.3,-.5,-.3,-.7c0,-.2,0,-.3,0,-.5l1.2,-4.3v-.2l2.7,6.1Z" class="g1_197"/>
<path d="M369.1,914.6c0,-.3,-.3,-.6,-.6,-.6c-.3,0,-.5,.3,-.5,.6c0,.3,.2,.5,.5,.5c.3,0,.6,-.3,.6,-.5Zm-2.1,6.7v0c1,0,1.5,-.8,1.7,-1.4l-.1,-.1c-.2,.3,-.6,1.1,-1,1.1c-.2,0,-.3,-.2,-.3,-.3c0,-.2,.2,-.6,.2,-.8l.7,-2.1c.1,-.3,.2,-.4,.2,-.6c0,-.3,0,-.6,-.4,-.6c-.7,0,-1.5,.8,-1.7,1.4l.2,.1c.1,-.2,.5,-.8,.8,-.8c.2,0,.2,.1,.2,.2c0,.2,-.1,.5,-.1,.7l-.8,2c-.1,.3,-.1,.5,-.1,.7c0,.3,.1,.5,.5,.5Z" class="g1_197"/>
<path d="M370.3,919.9h5.5v-.6h-5.5Zm0,-2.2h5.5v-.6h-5.5Z" class="g1_197"/>
<path d="M377.7,914.2v.1c.3,0,.8,.1,1,.2c.3,.1,.3,.3,.3,.7V920c0,.2,0,.4,0,.5c-.1,.5,-.7,.6,-1.2,.6v.2h3.4v-.2c-.4,0,-.9,0,-1.1,-.2c-.1,-.2,-.1,-.6,-.1,-1v-6.3c-.6,.3,-1.6,.6,-2.3,.6Z" class="g1_197"/>
<path d="M392.8,911c0,-.5,-.4,-.9,-1,-.9c-.3,0,-.6,.1,-.9,.3c-.4,.2,-.7,.5,-.9,.9c0,-.7,-.4,-1.2,-1,-1.2c-1.2,0,-2.1,1.1,-2.5,1.9l.2,.1c.4,-.5,1.1,-1.7,2,-1.7c.3,0,.4,.6,.4,1c0,.3,-.1,.7,-.2,1.2l-.4,1.1c-.1,.6,-.4,1.4,-.7,1.8c-.1,.3,-.4,.7,-.8,.7c-.4,0,-.7,-.1,-.6,-.5c.1,-.3,0,-.7,-.4,-.7c-.4,0,-.6,.3,-.6,.7c0,.6,.5,1,1,1c1,0,1.8,-.8,2.2,-1.5c.1,.8,.5,1.5,1.3,1.5c1.2,0,2,-1.2,2.5,-1.9l-.2,-.1c-.5,.6,-1.2,1.6,-2,1.6c-.4,0,-.6,-.6,-.6,-1.2c0,-.4,0,-.8,.1,-1.4l.2,-.7c.1,-.5,.4,-1.2,.6,-1.6c.2,-.3,.6,-.9,1,-.9c.4,0,.4,.3,.3,.6c0,.4,.2,.5,.5,.5c.4,0,.5,-.2,.5,-.6Z" class="g1_197"/>
<path d="M395.9,912.1c0,-.3,-.2,-.6,-.5,-.6c-.3,0,-.6,.3,-.6,.6c0,.3,.3,.5,.6,.5c.3,0,.5,-.3,.5,-.5Zm-2,6.8c.9,0,1.5,-.9,1.7,-1.5l-.2,-.1c-.1,.3,-.5,1.1,-1,1.1c-.1,0,-.2,-.2,-.2,-.3c0,-.2,.1,-.6,.2,-.8l.7,-2c.1,-.3,.2,-.5,.2,-.7c0,-.3,-.1,-.6,-.4,-.6c-.7,0,-1.5,.9,-1.7,1.4l.2,.1c.1,-.2,.5,-.8,.8,-.8c.1,0,.2,.1,.2,.2c0,.2,-.1,.5,-.2,.7l-.7,2c-.1,.3,-.1,.5,-.1,.7c0,.4,.1,.6,.5,.6Z" class="g1_197"/>
<path d="M400.3,911c-.7,0,-1.3,-.7,-1.3,-1.4c0,-.5,.4,-.9,.9,-.9c-.1,-.3,-.4,-.5,-.8,-.5c-.1,0,-.3,.1,-.4,.1c-.4,.2,-.7,.6,-.7,1.2c0,.2,0,.5,.2,.7c.3,.6,1.1,1,2.1,1c.8,0,1.4,-.2,1.9,-.6c.4,-.3,.7,-.8,.7,-1.5c0,-.3,0,-.5,-.1,-.7c-.3,-.7,-.8,-1.1,-1.6,-1.3V907c.4,-.1,.8,-.3,1.1,-.6c.2,-.3,.4,-.7,.4,-1.2c0,-.2,-.1,-.5,-.2,-.7c-.3,-.7,-1.1,-1,-2.1,-1c-.6,0,-1.2,.1,-1.6,.4c-.3,.2,-.5,.5,-.5,1c0,.3,.1,.5,.3,.7c.1,.2,.3,.3,.7,.3c.1,0,.3,0,.4,-.1c.1,-.1,.2,-.2,.2,-.3c-.4,0,-.7,-.3,-.7,-.7c0,-.6,.5,-1.1,1.2,-1.1c.7,0,1.1,.7,1.1,1.6c0,.9,-.2,1.8,-1,1.8c-.2,-.1,-.4,-.2,-.6,-.2c-.3,0,-.6,.1,-.6,.3c0,.2,.4,.3,.6,.3c.2,0,.5,-.1,.6,-.2c.9,0,1.2,.8,1.2,1.7c0,1,-.4,2,-1.4,2Z" class="g1_197"/>
<path d="M430,915.2h-.3c-.3,1.9,-1,2.7,-2,2.7h-5.8l4.3,-5.5l-3.9,-5.7h4.8c1.1,0,1.8,.6,2.1,2.5h.3l-.1,-3.1h-8.9l4.5,6.5l-5.1,6.6h9.9l.2,-4Z" class="g1_197"/>
<path d="M437,910.3h.3l1.6,-6c0,-.2,.1,-.3,.1,-.5c.2,-.2,.4,-.7,.7,-.8c.1,-.1,.3,-.1,.4,-.1l.1,-.1h-2.3v.1c.2,0,.4,.1,.6,.3c.1,.1,.1,.6,.1,.8c0,.1,0,.3,0,.4l-1.1,4v.1L435,902.8h-2v.1c.4,0,.6,0,.7,.2c.2,.3,.4,.7,.4,1c0,.1,0,.2,0,.3l-1.2,4.4c-.1,.4,-.3,.7,-.6,1c-.2,.2,-.7,.3,-1,.3v.2h2.8v-.2c-.3,0,-.6,0,-.7,-.2c-.2,-.1,-.3,-.5,-.3,-.7c0,-.2,0,-.3,0,-.5l1.2,-4.3v-.2l2.7,6.1Z" class="g1_197"/>
<path d="M434.3,914.6c0,-.3,-.3,-.6,-.6,-.6c-.3,0,-.5,.3,-.5,.6c0,.3,.2,.5,.5,.5c.3,0,.6,-.3,.6,-.5Zm-2.1,6.7v0c1,0,1.5,-.8,1.8,-1.4l-.2,-.1c-.2,.3,-.6,1.1,-1,1.1c-.1,0,-.3,-.2,-.3,-.3c0,-.2,.2,-.6,.2,-.8l.8,-2.1c.1,-.3,.1,-.4,.1,-.6c0,-.3,0,-.6,-.4,-.6c-.6,0,-1.5,.8,-1.7,1.4l.2,.1c.2,-.2,.6,-.8,.8,-.8c.2,0,.2,.1,.2,.2c0,.2,0,.5,-.1,.7l-.8,2c0,.3,-.1,.5,-.1,.7c0,.3,.1,.5,.5,.5Z" class="g1_197"/>
<path d="M435.5,919.9H441v-.6h-5.5Zm0,-2.2H441v-.6h-5.5Z" class="g1_197"/>
<path d="M442.9,914.2v.1c.4,0,.8,.1,1,.2c.3,.1,.3,.3,.3,.7V920c0,.2,0,.4,0,.5c-.1,.5,-.7,.6,-1.2,.6v.2h3.4v-.2c-.4,0,-.9,0,-1,-.2c-.2,-.2,-.2,-.6,-.2,-1v-6.3c-.6,.3,-1.6,.6,-2.3,.6Z" class="g1_197"/>
<path d="M458,911c0,-.5,-.4,-.9,-1,-.9c-.3,0,-.6,.1,-.9,.3c-.3,.2,-.6,.5,-.9,.9c0,-.7,-.4,-1.2,-1,-1.2c-1.2,0,-2.1,1.1,-2.5,1.9l.2,.1c.4,-.5,1.1,-1.7,2,-1.7c.3,0,.4,.6,.4,1c0,.3,0,.7,-.2,1.2l-.3,1.1c-.2,.6,-.4,1.4,-.8,1.8c-.1,.3,-.4,.7,-.7,.7c-.5,0,-.8,-.1,-.7,-.5c.1,-.3,0,-.7,-.4,-.7c-.4,0,-.6,.3,-.6,.7c0,.6,.5,1,1,1c1.1,0,1.8,-.8,2.2,-1.5c.1,.8,.5,1.5,1.3,1.5c1.2,0,2.1,-1.2,2.5,-1.9l-.2,-.1c-.5,.6,-1.2,1.6,-2,1.6c-.4,0,-.6,-.6,-.6,-1.2c0,-.4,0,-.8,.2,-1.4l.1,-.7c.1,-.5,.4,-1.2,.7,-1.6c.1,-.3,.5,-.9,.9,-.9c.4,0,.4,.3,.4,.6c-.1,.4,.1,.5,.4,.5c.4,0,.5,-.2,.5,-.6Z" class="g1_197"/>
<path d="M461.2,912.1c0,-.3,-.3,-.6,-.6,-.6c-.3,0,-.5,.3,-.5,.6c0,.3,.2,.5,.5,.5c.3,0,.6,-.3,.6,-.5Zm-2.1,6.8c1,0,1.5,-.9,1.7,-1.5l-.2,-.1c-.1,.3,-.5,1.1,-.9,1.1c-.2,0,-.3,-.2,-.3,-.3c0,-.2,.2,-.6,.2,-.8l.7,-2c.1,-.3,.2,-.5,.2,-.7c0,-.3,0,-.6,-.4,-.6c-.7,0,-1.5,.9,-1.7,1.4l.2,.1c.1,-.2,.5,-.8,.8,-.8c.2,0,.2,.1,.2,.2c0,.2,-.1,.5,-.1,.7l-.8,2c-.1,.3,-.1,.5,-.1,.7c0,.4,.1,.6,.5,.6Z" class="g1_197"/>
<path d="M465.8,905v3.9h-2.5c.8,-1.3,1.7,-2.6,2.5,-3.9Zm-2.8,3.9v.4h2.8v.4c0,.9,-.1,1.3,-.6,1.3v.1h2.1V911c-.4,0,-.5,-.6,-.5,-1.4v-.3H468c0,0,0,-.4,0,-.4c0,0,-1.2,0,-1.2,0v-5.4h-.3l-3.5,5.4Z" class="g1_197"/>
<path d="M470,867.2c0,.2,0,.3,.1,.4c3.2,5.4,4,19.1,4,20.3v.7h1.4v-.7c0,-1.5,-.6,-15.4,-5.4,-20.7q-.1,0,-.1,0Z" class="g1_197"/>
<path d="M474.1,897.9h1.4v-9.6h-1.4Z" class="g1_197"/>
<path d="M470,919q0,.1,.1,.1c4.8,-5.3,5.4,-19.2,5.4,-20.8v-.7h-1.4v.7c0,1.2,-.8,15,-4,20.4c-.1,.1,-.1,.2,-.1,.3Z" class="g1_197"/>
<path d="M485,867.2c0,0,-.1,0,-.1,0q-.1,0,-.1,0c-4.8,5.3,-5.3,19.2,-5.3,20.7v.7h1.4v-.7c0,-1.2,.7,-14.9,3.9,-20.3c.1,-.1,.2,-.2,.2,-.4Z" class="g1_197"/>
<path d="M479.5,897.9h1.4v-9.6h-1.4Z" class="g1_197"/>
<path d="M485,919c0,-.1,-.1,-.2,-.2,-.3c-3.2,-5.4,-3.9,-19.2,-3.9,-20.4v-.7h-1.4v.7c0,1.6,.5,15.5,5.3,20.8h.1c0,0,.1,0,.1,-.1Z" class="g1_197"/>
<path d="M489.9,872.3c-.4,0,-.8,.1,-1.3,.5c-.4,.3,-.8,.6,-1.2,1.1c-.6,.8,-1.3,2,-1.3,3.3c0,.9,.4,1.7,1.4,1.7c1.2,0,1.7,-.9,2.1,-1.6h.1c-.3,1,-.1,1.6,.5,1.6c.4,0,.7,-.2,1.1,-.5c.4,-.3,.8,-.8,1.1,-1.4l-.2,-.1c-.2,.4,-.9,1.4,-1.3,1.4c-.2,0,-.3,-.4,-.3,-.6c0,-.9,.6,-2.4,1,-3.4l.7,-1.9h-1l-.3,.7c-.2,-.5,-.5,-.8,-1.1,-.8Zm.2,.3c.7,0,.5,1.3,.4,1.8c0,.4,-.2,.7,-.3,1c-.4,1.2,-1.4,3.2,-2.2,3.2c-.6,0,-.8,-1,-.8,-1.5c0,-.4,0,-.9,.2,-1.3c.4,-1.1,1.4,-3.2,2.7,-3.2Z" class="g1_197"/>
<path d="M495.9,881c-1.4,0,-1.4,-1.9,-1.4,-3.5c0,-1.7,0,-3.8,1.4,-3.8c1.4,0,1.4,2.1,1.4,3.8c0,1.6,0,3.5,-1.4,3.5Zm0,-7.5c-1.9,0,-2.4,2,-2.4,3.9c0,1.9,.6,3.8,2.4,3.8c1.9,0,2.5,-1.9,2.5,-3.8c0,-1.9,-.6,-3.9,-2.5,-3.9Z" class="g1_197"/>
<path d="M489.9,890.2c-.4,0,-.8,.1,-1.3,.5c-.4,.3,-.8,.6,-1.2,1.1c-.6,.8,-1.3,2,-1.3,3.3c0,.9,.4,1.7,1.4,1.7c1.2,0,1.7,-.9,2.1,-1.6h.1c-.3,1,-.1,1.6,.5,1.6c.4,0,.7,-.2,1.1,-.5c.4,-.3,.8,-.8,1.1,-1.4l-.2,-.1c-.2,.4,-.9,1.4,-1.3,1.4c-.2,0,-.3,-.4,-.3,-.6c0,-.9,.6,-2.4,1,-3.4l.7,-1.9h-1l-.3,.7c-.2,-.5,-.5,-.8,-1.1,-.8Zm.2,.3c.7,0,.5,1.3,.4,1.8c0,.4,-.2,.7,-.3,1c-.4,1.2,-1.4,3.1,-2.2,3.1c-.6,0,-.8,-.9,-.8,-1.4c0,-.4,0,-.9,.2,-1.3c.4,-1.1,1.4,-3.2,2.7,-3.2Z" class="g1_197"/>
<path d="M494.3,891.9v.2c.3,0,.8,.1,1,.1c.3,.2,.3,.3,.3,.8v4.7c0,.3,0,.5,0,.6c-.1,.5,-.7,.5,-1.2,.6v.1h3.4v-.1c-.4,0,-.9,-.1,-1.1,-.3c-.1,-.2,-.1,-.5,-.1,-.9v-6.3c-.6,.3,-1.6,.5,-2.3,.5Z" class="g1_197"/>
<path d="M489.9,908.1c-.4,0,-.8,.1,-1.3,.5c-.4,.3,-.8,.6,-1.2,1.1c-.6,.8,-1.3,2,-1.3,3.3c0,1,.4,1.7,1.4,1.7c1.2,0,1.7,-.9,2.1,-1.6h.1c-.3,1,-.1,1.6,.5,1.6c.4,0,.7,-.2,1.1,-.5c.4,-.3,.8,-.8,1.1,-1.4l-.2,-.1c-.2,.4,-.9,1.4,-1.3,1.4c-.2,0,-.3,-.4,-.3,-.6c0,-.9,.6,-2.4,1,-3.4l.7,-1.9h-1l-.3,.7c-.2,-.5,-.5,-.8,-1.1,-.8Zm.2,.3c.7,0,.5,1.3,.4,1.9c0,.3,-.2,.6,-.3,.9c-.4,1.2,-1.4,3.2,-2.2,3.2c-.6,0,-.8,-1,-.8,-1.5c0,-.4,0,-.9,.2,-1.3c.4,-1.1,1.4,-3.2,2.7,-3.2Z" class="g1_197"/>
<path d="M495.5,912.3c-.7,0,-1.1,-.5,-1.1,-1.2c0,-.8,.5,-1.6,1.4,-1.6c1.2,0,1.3,1,1.3,1.9c0,.9,-.3,1.5,-.7,2.1c-.3,.4,-.7,.9,-1.2,1.4c-.4,.5,-1,1,-1.8,1.7v.3H498l.3,-2H498c0,.2,-.1,.4,-.2,.5c-.2,.4,-.5,.6,-1,.6h-2.1v-.1c.4,-.3,.9,-.7,1.4,-1c.7,-.7,1.5,-1.4,1.9,-2.3c.2,-.4,.3,-.8,.3,-1.2c0,-.3,-.1,-.6,-.2,-.8c-.4,-.8,-1.1,-1.3,-2.2,-1.3c-.7,0,-1.3,.2,-1.7,.6c-.4,.3,-.7,.8,-.7,1.4c0,.5,.1,.8,.4,1.1c.2,.2,.4,.4,.9,.4c.4,0,.7,-.2,.7,-.5Z" class="g1_197"/>
<path d="M500.2,867.2c0,.2,0,.3,.1,.4c3.2,5.4,4,19.1,4,20.3v.7h1.4v-.7c0,-1.5,-.6,-15.4,-5.3,-20.7q-.1,0,-.1,0q-.1,0,-.1,0Z" class="g1_197"/>
<path d="M504.3,897.9h1.4v-9.6h-1.4Z" class="g1_197"/>
<path d="M500.2,919q0,.1,.1,.1h.1c4.7,-5.3,5.3,-19.2,5.3,-20.8v-.7h-1.4v.7c0,1.2,-.8,15,-4,20.4c-.1,.1,-.1,.2,-.1,.3Z" class="g1_197"/>
<path d="M511.2,895h7.6v-.8h-7.6Zm0,-3h7.6v-.8h-7.6Z" class="g1_197"/>
<path d="M529.8,867.2h-.1c0,0,-.1,0,-.1,0c-4.7,5.3,-5.3,19.2,-5.3,20.7v.7h1.4v-.7c0,-1.2,.8,-14.9,4,-20.3c0,-.1,.1,-.2,.1,-.4Z" class="g1_197"/>
<path d="M524.3,897.9h1.4v-9.6h-1.4Z" class="g1_197"/>
<path d="M529.8,919c0,-.1,-.1,-.2,-.1,-.3c-3.2,-5.4,-4,-19.2,-4,-20.4v-.7h-1.4v.7c0,1.6,.6,15.5,5.3,20.8c0,0,.1,0,.1,0q.1,0,.1,-.1Z" class="g1_197"/>
<path d="M550.4,876.8h-.3c-.3,1.8,-1,2.7,-2,2.7h-5.8l4.3,-5.6l-3.9,-5.6h4.8c1.1,0,1.8,.6,2.1,2.4h.3l-.1,-3h-8.9l4.5,6.5l-5.1,6.6h10l.1,-4Z" class="g1_197"/>
<path d="M557.4,871.9h.3l1.6,-6c0,-.2,.1,-.3,.1,-.5c.2,-.2,.4,-.7,.7,-.8c.1,-.1,.3,-.1,.4,-.1l.1,-.2h-2.3v.2c.2,0,.4,.1,.6,.3c.1,.1,.1,.5,.1,.8c0,.1,0,.2,0,.4l-1.1,3.9v.2l-2.5,-5.8h-2v.2c.4,0,.6,0,.7,.2c.2,.2,.4,.7,.4,1c0,.1,0,.2,0,.3l-1.2,4.4c-.1,.4,-.3,.7,-.6,.9c-.2,.3,-.7,.4,-1,.4v.2h2.8v-.2c-.3,0,-.6,0,-.7,-.2c-.2,-.2,-.3,-.5,-.3,-.8c0,-.1,0,-.2,0,-.4l1.2,-4.3v-.2l2.7,6.1Z" class="g1_197"/>
<path d="M554.7,876.1c0,-.3,-.3,-.5,-.6,-.5c-.3,0,-.5,.2,-.5,.5c0,.3,.2,.6,.5,.6c.3,0,.6,-.3,.6,-.6Zm-2.1,6.8c1,0,1.5,-.8,1.8,-1.4l-.2,-.1c-.2,.3,-.6,1.1,-1,1.1c-.1,0,-.3,-.2,-.3,-.3c0,-.2,.2,-.7,.2,-.8l.8,-2.1c.1,-.3,.1,-.4,.1,-.6c0,-.3,0,-.6,-.4,-.6c-.6,0,-1.5,.8,-1.7,1.4l.2,.1c.2,-.2,.6,-.8,.8,-.8c.2,0,.2,.1,.2,.2c.1,.2,0,.5,-.1,.7l-.7,2c-.1,.3,-.2,.5,-.2,.7c0,.3,.2,.5,.5,.5Z" class="g1_197"/>
<path d="M555.9,881.5h5.5v-.6h-5.5Zm0,-2.2h5.5v-.6h-5.5Z" class="g1_197"/>
<path d="M563.3,875.8v.1c.4,0,.8,.1,1,.1c.3,.2,.3,.3,.3,.8v4.7c0,.3,0,.5,0,.6c-.1,.5,-.7,.6,-1.2,.6v.1h3.4v-.1c-.4,0,-.9,-.1,-1,-.2c-.2,-.3,-.2,-.6,-.2,-1v-6.3c-.6,.3,-1.6,.5,-2.3,.6Z" class="g1_197"/>
<path d="M570.2,880.3c0,.6,.5,.9,1.1,.9c.4,0,.8,-.1,1.3,-.5c.8,-.7,2.1,-2.3,2.8,-3.5c.4,-.6,.7,-1.2,1,-1.8c.4,-.7,1.2,-2.1,1.2,-2.9c0,-.2,-.1,-.4,-.2,-.6c-.1,-.2,-.3,-.3,-.5,-.3c-.1,0,-.3,.1,-.4,.2c-.2,.2,-.2,.4,-.2,.7c0,.4,.2,.9,.2,1.3c0,.6,-.2,1.1,-.4,1.6c-.3,.5,-.5,.9,-.9,1.4l-.4,-1.9c-.1,-.6,-.3,-1.6,-.4,-2.1c-.2,-.6,-.3,-1.2,-1.3,-1.2c-1.2,0,-1.4,1.8,-1.6,2.6l.3,.1c.1,-.6,.6,-2.3,1,-2.3c.4,0,.5,1,.6,1.2c0,.3,.1,.7,.2,1.4l.6,3.5c-.3,.8,-1.1,1.7,-1.7,2.2c-.3,.2,-.6,.2,-.8,.2q-.1,0,-.2,-.1c-.2,-.3,-.2,-.8,-.7,-.8c-.4,0,-.6,.3,-.6,.7Z" class="g1_197"/>
<path d="M580.7,873.7c0,-.3,-.2,-.6,-.5,-.6c-.3,0,-.6,.2,-.6,.6c0,.3,.3,.5,.6,.5c.2,0,.5,-.3,.5,-.5Zm-2,6.7c.9,0,1.4,-.8,1.7,-1.4l-.2,-.1c-.1,.3,-.5,1.1,-1,1.1c-.1,0,-.2,-.2,-.2,-.3c0,-.2,.1,-.6,.2,-.8l.7,-2.1c.1,-.3,.1,-.4,.1,-.6c0,-.3,0,-.6,-.3,-.6c-.7,0,-1.5,.8,-1.7,1.4l.2,.1c.1,-.2,.5,-.8,.8,-.8c.1,0,.2,.1,.2,.2c0,.2,-.1,.5,-.2,.7l-.7,2c-.1,.3,-.1,.5,-.1,.7c0,.3,.1,.5,.5,.5Z" class="g1_197"/>
<path d="M544.5,896h-.3c-.3,1.9,-1,2.7,-2,2.7h-5.9l4.3,-5.5l-3.8,-5.7h4.8c1,0,1.7,.6,2,2.4h.4l-.1,-3H535l4.5,6.5l-5.2,6.6h10l.2,-4Z" class="g1_197"/>
<path d="M551.5,891.1h.3l1.5,-6c.1,-.2,.1,-.3,.2,-.5c.1,-.2,.4,-.7,.6,-.8c.1,-.1,.4,-.1,.5,-.1v-.1h-2.2l-.1,.1c.3,0,.5,.1,.6,.3c.2,.1,.2,.5,.2,.8c0,.1,0,.2,0,.4l-1.1,4v.1l-2.5,-5.7h-2v.1c.4,0,.5,0,.7,.2c.2,.2,.4,.7,.4,1c0,.1,0,.2,-.1,.3l-1.1,4.4c-.1,.4,-.4,.7,-.6,1c-.3,.2,-.7,.3,-1,.3v.2h2.8v-.2c-.3,0,-.6,0,-.7,-.2c-.2,-.2,-.3,-.5,-.3,-.7c0,-.2,0,-.3,0,-.5l1.1,-4.3l.1,-.2l2.7,6.1Z" class="g1_197"/>
<path d="M548.8,895.3c0,-.2,-.3,-.5,-.6,-.5c-.3,0,-.5,.2,-.5,.5c0,.4,.2,.6,.5,.6c.3,0,.6,-.3,.6,-.6Zm-2.1,6.8c1,0,1.5,-.8,1.7,-1.4l-.2,-.1c-.1,.3,-.5,1.1,-.9,1.1c-.2,0,-.3,-.2,-.3,-.3c0,-.2,.2,-.6,.2,-.8l.7,-2.1c.1,-.3,.2,-.4,.2,-.6c0,-.3,0,-.6,-.4,-.6c-.7,0,-1.5,.8,-1.7,1.4l.2,.1c.1,-.2,.5,-.8,.8,-.8c.2,0,.2,.1,.2,.2c0,.2,-.1,.5,-.1,.7l-.8,2c-.1,.3,-.1,.5,-.1,.7c0,.3,.1,.5,.5,.5Z" class="g1_197"/>
<path d="M550,900.7h5.5v-.6H550Zm0,-2.2h5.5v-.6H550Z" class="g1_197"/>
<path d="M557.4,895v.1c.3,0,.8,.1,1,.2c.3,.1,.3,.2,.3,.7v4.8c0,.2,0,.4,0,.5c-.1,.5,-.7,.6,-1.2,.6v.2h3.4v-.2c-.4,0,-.9,0,-1.1,-.2c-.1,-.3,-.1,-.6,-.1,-1v-6.3c-.6,.3,-1.6,.5,-2.3,.6Z" class="g1_197"/>
<path d="M564.3,899.5c0,.6,.4,.9,1.1,.9c.4,0,.8,-.1,1.3,-.5c.8,-.7,2,-2.3,2.8,-3.5c.3,-.6,.7,-1.2,1,-1.8c.4,-.7,1.1,-2.1,1.1,-2.9c0,-.2,0,-.4,-.1,-.6c-.1,-.2,-.3,-.3,-.5,-.3c-.1,0,-.3,.1,-.4,.3c-.2,.1,-.2,.3,-.2,.6c0,.4,.2,.9,.2,1.3c0,.6,-.2,1.1,-.5,1.6c-.2,.5,-.4,.9,-.8,1.4h-.1l-.3,-1.9c-.1,-.5,-.3,-1.6,-.4,-2c-.2,-.7,-.3,-1.3,-1.3,-1.3c-1.2,0,-1.4,1.8,-1.6,2.6l.3,.1c.1,-.6,.5,-2.3,1,-2.3c.3,0,.5,1,.6,1.3c0,.3,.1,.7,.2,1.3l.6,3.5c-.3,.8,-1.2,1.7,-1.8,2.2c-.2,.2,-.5,.2,-.7,.2c-.1,0,-.2,0,-.2,-.1c-.2,-.3,-.2,-.8,-.7,-.8c-.4,0,-.6,.3,-.6,.7Z" class="g1_197"/>
<path d="M574.8,892.9c0,-.3,-.3,-.6,-.6,-.6c-.3,0,-.5,.3,-.5,.6c0,.3,.3,.5,.5,.5c.3,0,.6,-.3,.6,-.5Zm-2.1,6.8c1,-.1,1.5,-.9,1.8,-1.5l-.2,-.1c-.2,.3,-.6,1.1,-1,1.1c-.1,0,-.2,-.2,-.2,-.3c0,-.2,.1,-.6,.2,-.8l.7,-2c.1,-.4,.1,-.5,.1,-.7c0,-.3,0,-.6,-.3,-.6c-.7,0,-1.5,.8,-1.8,1.4l.2,.1c.2,-.2,.6,-.8,.8,-.8c.2,0,.3,.1,.3,.2c0,.2,-.1,.5,-.2,.7l-.7,2c-.1,.3,-.2,.5,-.2,.7c0,.4,.2,.6,.5,.6Z" class="g1_197"/>
<path d="M583.5,891.8c0,-.5,-.4,-1,-1,-1c-.3,0,-.6,.2,-.9,.4c-.3,.2,-.7,.5,-.9,.9c0,-.7,-.4,-1.3,-1,-1.3c-1.2,0,-2.1,1.2,-2.5,2l.2,.1c.4,-.5,1.1,-1.7,2,-1.7c.3,0,.4,.6,.4,1c0,.3,-.1,.7,-.2,1.2l-.4,1.1c-.1,.6,-.4,1.4,-.7,1.8c-.1,.3,-.4,.7,-.8,.7c-.4,0,-.7,-.1,-.6,-.5c.1,-.3,0,-.7,-.4,-.7c-.4,0,-.6,.3,-.6,.7c0,.6,.5,.9,1,.9c1.1,0,1.8,-.7,2.2,-1.4c.1,.8,.5,1.4,1.3,1.4c1.2,0,2.1,-1.1,2.5,-1.8l-.2,-.2c-.5,.7,-1.2,1.7,-2,1.7c-.4,0,-.6,-.6,-.6,-1.2c0,-.4,0,-.8,.2,-1.4l.1,-.7c.1,-.6,.4,-1.2,.7,-1.6c.1,-.3,.5,-1,.9,-1c.4,0,.4,.3,.3,.7c0,.4,.2,.5,.5,.5c.4,0,.5,-.2,.5,-.6Z" class="g1_197"/>
<path d="M586.7,892.9c0,-.3,-.3,-.6,-.6,-.6c-.3,0,-.6,.3,-.6,.6c0,.3,.3,.5,.6,.5c.3,0,.6,-.3,.6,-.5Zm-2.1,6.8c1,-.1,1.5,-.9,1.7,-1.5l-.2,-.1c-.1,.3,-.5,1.1,-1,1.1c-.1,0,-.2,-.2,-.2,-.3c0,-.2,.1,-.6,.2,-.8l.7,-2c.1,-.4,.2,-.5,.2,-.7c0,-.3,0,-.6,-.4,-.6c-.7,0,-1.5,.8,-1.7,1.4l.2,.1c.1,-.2,.5,-.8,.8,-.8c.2,0,.2,.1,.2,.2c0,.2,-.1,.5,-.2,.7l-.7,2c-.1,.3,-.1,.5,-.1,.7c0,.4,.1,.6,.5,.6Z" class="g1_197"/>
<path d="M541.1,915.2h-.3c-.3,1.9,-1,2.7,-2.1,2.7h-5.8l4.3,-5.5l-3.8,-5.7h4.7c1.1,0,1.8,.6,2.1,2.5h.3v-3.1h-9l4.6,6.5l-5.2,6.6h10l.2,-4Z" class="g1_197"/>
<path d="M548.1,910.3h.2l1.6,-6c.1,-.2,.1,-.3,.2,-.5c.1,-.2,.4,-.7,.6,-.8c.1,-.1,.4,-.1,.5,-.1v-.1H549l-.1,.1c.3,0,.5,.1,.6,.3c.2,.1,.2,.6,.2,.8c0,.1,0,.3,-.1,.4l-1,4v.1L546,902.8h-1.9l-.1,.1c.5,0,.6,0,.8,.2c.2,.3,.4,.7,.4,1c0,.1,-.1,.2,-.1,.3l-1.2,4.4c0,.4,-.3,.7,-.5,1c-.3,.2,-.7,.3,-1,.3v.2h2.8v-.2c-.3,0,-.6,0,-.7,-.2c-.2,-.1,-.3,-.5,-.3,-.7c0,-.2,0,-.3,0,-.5l1.1,-4.3l.1,-.2l2.7,6.1Z" class="g1_197"/>
<path d="M545.3,914.6c0,-.3,-.2,-.6,-.5,-.6c-.3,0,-.6,.3,-.6,.6c0,.3,.3,.5,.6,.5c.2,0,.5,-.3,.5,-.5Zm-2,6.7v0c.9,0,1.5,-.8,1.7,-1.4l-.2,-.1c-.1,.3,-.5,1.1,-1,1.1c-.1,0,-.2,-.2,-.2,-.3c0,-.2,.1,-.6,.2,-.8l.7,-2.1c.1,-.3,.2,-.4,.2,-.6c0,-.3,-.1,-.6,-.4,-.6c-.7,0,-1.5,.8,-1.7,1.4l.2,.1c.1,-.2,.5,-.8,.8,-.8c.1,0,.2,.1,.2,.2c0,.2,-.1,.5,-.2,.7l-.7,2c-.1,.3,-.1,.5,-.1,.7c0,.3,.1,.5,.5,.5Z" class="g1_197"/>
<path d="M546.5,919.9h5.6v-.6h-5.6Zm0,-2.2h5.6v-.6h-5.6Z" class="g1_197"/>
<path d="M554,914.2v.1c.3,0,.8,.1,.9,.2c.4,.1,.4,.3,.4,.7V920c0,.2,0,.4,-.1,.5c0,.5,-.6,.6,-1.2,.6v.2h3.5v-.2c-.4,0,-.9,0,-1.1,-.2c-.2,-.2,-.2,-.6,-.2,-1v-6.3c-.5,.3,-1.5,.6,-2.2,.6Z" class="g1_197"/>
<path d="M560.8,918.7c0,.6,.5,1,1.1,1c.5,0,.8,-.2,1.3,-.6c.9,-.7,2.1,-2.2,2.8,-3.5c.4,-.6,.8,-1.2,1.1,-1.8c.4,-.7,1.1,-2.1,1.1,-2.9c0,-.2,-.1,-.4,-.1,-.6c-.1,-.2,-.3,-.2,-.5,-.2c-.2,0,-.3,0,-.5,.2c-.1,.1,-.2,.3,-.2,.6c0,.5,.3,.9,.3,1.3c0,.6,-.3,1.2,-.5,1.6c-.2,.5,-.5,.9,-.8,1.4h-.1l-.3,-1.9c-.1,-.5,-.3,-1.6,-.4,-2c-.2,-.7,-.4,-1.2,-1.4,-1.2c-1.1,0,-1.3,1.7,-1.6,2.5l.4,.1c.1,-.6,.5,-2.3,1,-2.3c.3,0,.5,1,.5,1.3c.1,.3,.2,.7,.3,1.3l.6,3.5c-.4,.8,-1.2,1.7,-1.8,2.2c-.2,.2,-.5,.2,-.7,.2c-.1,0,-.2,0,-.2,-.1c-.3,-.3,-.3,-.8,-.7,-.8c-.4,0,-.7,.3,-.7,.7Z" class="g1_197"/>
<path d="M571.4,912.1c0,-.3,-.3,-.6,-.6,-.6c-.3,0,-.5,.3,-.5,.6c0,.3,.2,.5,.5,.5c.3,0,.6,-.3,.6,-.5Zm-2.1,6.8c1,0,1.5,-.9,1.8,-1.5l-.2,-.1c-.2,.3,-.6,1.1,-1,1.1c-.1,0,-.3,-.2,-.3,-.3c0,-.2,.2,-.6,.2,-.8l.8,-2c.1,-.3,.1,-.5,.1,-.7c0,-.3,0,-.6,-.4,-.6c-.6,0,-1.5,.9,-1.7,1.4l.2,.1c.2,-.2,.6,-.8,.8,-.8c.2,0,.2,.1,.2,.2c.1,.2,0,.5,-.1,.7l-.7,2c-.1,.3,-.2,.5,-.2,.7c0,.4,.2,.6,.5,.6Z" class="g1_197"/>
<path d="M580.1,911c0,-.5,-.5,-.9,-1,-.9c-.3,0,-.6,.1,-1,.3c-.3,.2,-.6,.5,-.8,.9c0,-.7,-.4,-1.2,-1.1,-1.2c-1.1,0,-2.1,1.1,-2.4,1.9l.2,.1c.4,-.5,1.1,-1.7,2,-1.7c.3,0,.4,.6,.4,1c0,.3,-.1,.7,-.2,1.2l-.4,1.1c-.1,.6,-.4,1.4,-.7,1.8c-.1,.3,-.4,.7,-.8,.7c-.4,0,-.7,-.1,-.6,-.5c.1,-.3,0,-.7,-.4,-.7c-.5,0,-.6,.3,-.6,.7c0,.6,.4,1,1,1c1,0,1.8,-.8,2.1,-1.5h.1c.1,.8,.5,1.5,1.3,1.5c1.2,0,2,-1.2,2.5,-1.9l-.2,-.1c-.5,.6,-1.2,1.6,-2,1.6c-.4,0,-.6,-.6,-.6,-1.2c0,-.4,0,-.8,.1,-1.4l.2,-.7c.1,-.5,.4,-1.2,.6,-1.6c.2,-.3,.6,-.9,1,-.9c.4,0,.4,.3,.3,.6c0,.4,.2,.5,.5,.5c.4,0,.5,-.2,.5,-.6Z" class="g1_197"/>
<path d="M583.2,912.1c0,-.3,-.2,-.6,-.5,-.6c-.3,0,-.6,.3,-.6,.6c0,.3,.3,.5,.6,.5c.2,0,.5,-.3,.5,-.5Zm-2,6.8c.9,0,1.4,-.9,1.7,-1.5l-.2,-.1c-.1,.3,-.5,1.1,-1,1.1c-.1,0,-.2,-.2,-.2,-.3c0,-.2,.1,-.6,.2,-.8l.7,-2c.1,-.3,.1,-.5,.1,-.7c0,-.3,0,-.6,-.3,-.6c-.7,0,-1.5,.9,-1.7,1.4l.2,.1c.1,-.2,.5,-.8,.8,-.8c.1,0,.2,.1,.2,.2c0,.2,-.1,.5,-.2,.7l-.7,2c-.1,.3,-.1,.5,-.1,.7c0,.4,.1,.6,.5,.6Z" class="g1_197"/>
<path d="M587.4,906.5c-.7,0,-1.1,-.5,-1.1,-1.2c0,-.8,.4,-1.6,1.3,-1.6c1.2,0,1.3,1,1.3,1.9c0,.9,-.2,1.5,-.7,2.1c-.2,.4,-.6,.9,-1.1,1.4c-.5,.5,-1.1,1,-1.8,1.7v.3h4.5l.4,-2.1h-.3c-.1,.3,-.2,.5,-.2,.6c-.2,.4,-.5,.6,-1.1,.6h-2.1v-.1c.5,-.3,1,-.7,1.4,-1c.8,-.7,1.5,-1.4,2,-2.3c.1,-.4,.2,-.8,.2,-1.2c0,-.3,0,-.6,-.1,-.9c-.4,-.7,-1.1,-1.2,-2.2,-1.2c-.7,0,-1.4,.2,-1.8,.5c-.3,.4,-.7,.9,-.7,1.5c0,.5,.2,.8,.4,1.1c.2,.2,.5,.4,.9,.4c.4,0,.7,-.2,.8,-.5Z" class="g1_197"/>
<path d="M592,867.2c0,.2,.1,.3,.2,.4c3.2,5.4,3.9,19.1,3.9,20.3v.7h1.4v-.7c0,-1.5,-.5,-15.4,-5.3,-20.7h-.1c0,0,-.1,0,-.1,0Z" class="g1_197"/>
<path d="M596.1,897.9h1.4v-9.6h-1.4Z" class="g1_197"/>
<path d="M592,919c0,.1,.1,.1,.1,.1q.1,0,.1,0c4.8,-5.3,5.3,-19.2,5.3,-20.8v-.7h-1.4v.7c0,1.2,-.7,15,-3.9,20.4c-.1,.1,-.2,.2,-.2,.3Z" class="g1_197"/>
</svg>