<?xml version="1.0" encoding="UTF-8" standalone="no"?>
<!DOCTYPE svg PUBLIC "-//W3C//DTD SVG 1.1//EN"
"http://www.w3.org/Graphics/SVG/1.1/DTD/svg11.dtd">
<svg viewBox="0 0 811 1017" version="1.1" xmlns="http://www.w3.org/2000/svg" xmlns:xlink="http://www.w3.org/1999/xlink">
<defs>
<clipPath id="c0_289"><path d="M156.1,922V692.8H385.3V922Z"/></clipPath>
<style type="text/css"><![CDATA[
.g0_289{
fill: #476B85;
}
.g1_289{
fill: #000;
}
.g2_289{
fill: #0E0E0E;
}
]]></style>
</defs>
<path d="M156.1,387.1H347.6V355H156.1Z" class="g0_289"/>
<path d="M347.6,387.1H549.5V355H347.6Z" class="g0_289"/>
<path d="M347.4,543.1h.4V354.7h-.4Z" class="g1_289"/>
<path d="M156.1,355.4H549.5v-.7H156.1Z" class="g1_289"/>
<path d="M156.1,387.3H549.5v-.4H156.1Z" class="g1_289"/>
<path d="M156.1,543.1H549.5v-.3H156.1Z" class="g1_289"/>
<path d="M368.9,151.9l-.1,.2h4.7l.1,-.2c-.6,0,-1,-.1,-1.3,-.3c-.2,-.2,-.3,-.4,-.3,-.7c0,-.2,0,-.4,.1,-.7l.9,-3.3h1c1.1,0,1.1,1.1,1,2.2h.3l1,-4.2H376c-.4,.8,-.8,1.6,-2,1.6h-.9l1.1,-4.4h1.7c.3,0,.6,0,.8,.1c.8,.4,1.5,1.3,1.6,2.3h.4v-2.7h-7.4v.2c.5,0,.8,.2,1,.3c.2,.1,.3,.3,.3,.6c0,.2,0,.3,-.1,.5c0,.2,0,.3,-.1,.6l-1.7,6.2c0,.3,-.1,.5,-.2,.7c-.2,.4,-.5,.7,-.8,.9c-.2,.1,-.5,.1,-.8,.1Z" class="g2_289"/>
<path d="M384.7,141.5c-2.1,1.4,-3.7,3.8,-3.7,6.8c0,2.8,1.6,5.6,3.7,6.8l.1,-.2c-1.9,-1.5,-2.5,-3.3,-2.5,-6.6c0,-3.3,.6,-5,2.5,-6.6l-.1,-.2Z" class="g2_289"/>
<path d="M393.1,146.6c0,-.5,-.5,-.9,-1,-.9c-.3,0,-.6,.1,-1,.3c-.3,.2,-.6,.5,-.8,.9c0,-.7,-.4,-1.2,-1.1,-1.2c-1.1,0,-2.1,1.1,-2.4,1.9l.2,.1c.4,-.5,1.1,-1.7,2,-1.7c.3,0,.4,.6,.4,1c0,.3,-.1,.7,-.2,1.2l-.4,1.2c-.1,.5,-.4,1.3,-.7,1.7c-.2,.3,-.4,.7,-.8,.7c-.4,0,-.7,-.1,-.6,-.5c.1,-.3,0,-.7,-.4,-.7c-.5,0,-.6,.3,-.6,.7c0,.6,.4,1,1,1c1,0,1.8,-.8,2.1,-1.5h.1c.1,.8,.5,1.5,1.3,1.5c1.2,0,2,-1.2,2.5,-1.9l-.2,-.1c-.5,.6,-1.2,1.6,-2,1.6c-.4,0,-.7,-.6,-.7,-1.2c0,-.4,.1,-.8,.2,-1.3l.2,-.8c.1,-.5,.4,-1.2,.6,-1.6c.2,-.3,.6,-.9,1,-.9c.4,0,.4,.3,.3,.6c0,.4,.2,.6,.5,.6c.4,0,.5,-.3,.5,-.7Z" class="g2_289"/>
<path d="M394.4,141.5l-.2,.2c2,1.6,2.6,3.3,2.6,6.6c0,3.3,-.6,5.1,-2.6,6.6l.2,.2c2.1,-1.2,3.7,-4,3.7,-6.8c0,-3,-1.6,-5.4,-3.7,-6.8Z" class="g2_289"/>
<path d="M404.3,150.3h7.6v-.9h-7.6Zm0,-3.1h7.6v-.8h-7.6Z" class="g2_289"/>
<path d="M422.3,138c-1,0,-1.7,-1,-1.7,-1.9c0,-.8,.4,-1.4,1.1,-1.4c-.1,-.3,-.5,-.5,-1,-.5c-.2,0,-.4,0,-.6,.1c-.6,.2,-1,.8,-1,1.6c0,.3,.1,.6,.3,.9c.5,.9,1.6,1.4,3,1.4c1.1,0,1.9,-.3,2.5,-.8c.6,-.5,1,-1.1,1,-2.1c0,-.3,0,-.6,-.2,-.9c-.3,-.9,-1.1,-1.5,-2.1,-1.8v-.1c.6,-.1,1.1,-.5,1.4,-.9c.3,-.4,.6,-.9,.6,-1.6c0,-.3,-.1,-.7,-.2,-.9c-.5,-1,-1.6,-1.5,-3,-1.5c-.8,0,-1.6,.2,-2.1,.5c-.4,.3,-.8,.8,-.8,1.4c0,.5,.2,.8,.4,1c.2,.3,.6,.5,1,.5c.2,0,.4,-.1,.6,-.2c.2,-.1,.3,-.2,.3,-.4c-.5,0,-.9,-.4,-.9,-1c0,-.8,.6,-1.5,1.5,-1.5c1.1,0,1.6,.9,1.6,2.2c0,1.2,-.3,2.4,-1.5,2.4c-.2,0,-.5,-.2,-.8,-.2c-.3,0,-.7,.1,-.7,.4c0,.3,.4,.4,.7,.4c.4,0,.7,-.2,1,-.3c1.2,0,1.5,1.1,1.5,2.4c0,1.4,-.5,2.8,-1.9,2.8Z" class="g2_289"/>
<path d="M440.5,125.1v.2c.3,0,.8,0,1,.1c.3,.2,.3,.3,.3,.8v4.7c0,.3,0,.4,0,.6c-.1,.5,-.7,.5,-1.2,.6v.1H444v-.1c-.4,0,-.9,-.1,-1.1,-.3c-.1,-.2,-.2,-.5,-.2,-.9v-6.3c-.5,.3,-1.5,.5,-2.2,.5Z" class="g2_289"/>
<path d="M428.6,134.7h27.1v-.8H428.6Z" class="g2_289"/>
<path d="M430.1,145.3h.6v-9.7h-.6Z" class="g2_289"/>
<path d="M437.5,139.2c0,-.4,-.3,-.7,-.7,-.7c-.2,0,-.5,.1,-.7,.3c-.2,.1,-.4,.3,-.6,.6c0,-.5,-.3,-.9,-.8,-.9c-.8,0,-1.5,.9,-1.8,1.4l.2,.1c.3,-.3,.8,-1.2,1.4,-1.2c.2,0,.3,.4,.3,.7c0,.2,0,.5,-.1,.9l-.3,.8c-.1,.4,-.3,1,-.5,1.3c-.1,.2,-.3,.5,-.6,.5c-.3,0,-.5,-.1,-.4,-.4c0,-.2,0,-.5,-.3,-.5c-.4,0,-.5,.2,-.5,.6c0,.4,.4,.6,.8,.6c.7,0,1.3,-.5,1.5,-1h.1c0,.6,.3,1,.9,1c.9,0,1.5,-.8,1.8,-1.3l-.1,-.1c-.4,.4,-.9,1.2,-1.5,1.2c-.3,0,-.4,-.5,-.4,-.9c0,-.3,0,-.6,.1,-1l.1,-.5c.1,-.4,.3,-.9,.5,-1.2c.1,-.2,.4,-.7,.7,-.7c.3,0,.2,.2,.2,.5c0,.2,.1,.4,.4,.4c.2,0,.3,-.2,.3,-.5Z" class="g2_289"/>
<path d="M439.2,140.8h5.5v-.6h-5.5Z" class="g2_289"/>
<path d="M447.3,136.2v.1c.3,0,.8,.1,.9,.1c.4,.2,.4,.3,.4,.8v4.7c0,.3,0,.5,-.1,.6c0,.5,-.6,.6,-1.2,.6v.1h3.5v-.1c-.4,0,-.9,0,-1.1,-.2c-.1,-.3,-.2,-.6,-.2,-1v-6.3c-.5,.3,-1.5,.5,-2.2,.6Z" class="g2_289"/>
<path d="M453.5,145.3h.6v-9.7h-.6Z" class="g2_289"/>
<path d="M464.5,133.9h-3.3v.9h3.3v3.3h.9v-3.3h3.3v-.9h-3.3v-3.3h-.9v3.3Z" class="g2_289"/>
<path d="M474.5,128.4v.2c.4,0,1.1,.1,1.3,.2c.4,.2,.4,.4,.4,1v6.5c0,.3,0,.6,0,.8c-.1,.7,-.9,.7,-1.7,.8v.2h4.7v-.2c-.5,0,-1.2,-.1,-1.4,-.3c-.3,-.3,-.3,-.8,-.3,-1.4v-8.6c-.8,.4,-2.1,.8,-3,.8Z" class="g2_289"/>
<path d="M494.6,125.1v.2c.3,0,.8,0,.9,.1c.4,.2,.3,.3,.4,.8v4.7c0,.3,-.1,.4,-.1,.6c-.1,.5,-.6,.5,-1.2,.6v.1H498v-.1c-.3,0,-.9,-.1,-1,-.3c-.2,-.2,-.2,-.5,-.2,-.9v-6.3c-.6,.3,-1.5,.5,-2.2,.5Z" class="g2_289"/>
<path d="M482.6,134.7h27.1v-.8H482.6Z" class="g2_289"/>
<path d="M484.2,145.3h.6v-9.7h-.6Z" class="g2_289"/>
<path d="M491.6,139.2c0,-.4,-.3,-.7,-.7,-.7c-.3,0,-.5,.1,-.7,.3c-.3,.1,-.5,.3,-.6,.6c0,-.5,-.4,-.9,-.8,-.9c-.8,0,-1.5,.9,-1.8,1.4l.2,.1c.2,-.3,.7,-1.2,1.4,-1.2c.2,0,.3,.4,.3,.7c0,.2,-.1,.5,-.2,.9l-.2,.8c-.1,.4,-.3,1,-.5,1.3c-.2,.2,-.4,.5,-.6,.5c-.3,0,-.6,-.1,-.5,-.4c.1,-.2,0,-.5,-.3,-.5c-.3,0,-.4,.2,-.4,.6c0,.4,.3,.6,.7,.6c.8,0,1.3,-.5,1.6,-1c.1,.6,.4,1,1,1c.8,0,1.5,-.8,1.8,-1.3l-.2,-.1c-.3,.4,-.8,1.2,-1.4,1.2c-.3,0,-.5,-.5,-.5,-.9c0,-.3,.1,-.6,.2,-1l.1,-.5c.1,-.4,.2,-.9,.4,-1.2c.2,-.2,.5,-.7,.7,-.7c.3,0,.3,.2,.3,.5c0,.2,.1,.4,.3,.4c.3,0,.4,-.2,.4,-.5Z" class="g2_289"/>
<path d="M493.2,140.8h5.6v-.6h-5.6Z" class="g2_289"/>
<path d="M502.8,143.2c-.8,0,-1.3,-.7,-1.3,-1.4c0,-.6,.3,-1,.8,-1c0,-.3,-.4,-.4,-.7,-.4c-.2,0,-.3,0,-.5,.1c-.4,.1,-.7,.6,-.7,1.1c0,.3,.1,.5,.2,.7c.4,.7,1.2,1,2.2,1c.8,0,1.4,-.2,1.8,-.6c.5,-.3,.8,-.8,.8,-1.5c0,-.2,-.1,-.5,-.2,-.7c-.2,-.6,-.8,-1.1,-1.5,-1.3c.4,-.1,.8,-.4,1,-.7c.3,-.3,.4,-.7,.4,-1.1c0,-.3,0,-.5,-.1,-.8c-.4,-.6,-1.2,-1,-2.2,-1c-.6,0,-1.1,.1,-1.5,.4c-.3,.2,-.6,.5,-.6,1c0,.3,.1,.6,.3,.7c.2,.2,.4,.3,.7,.3c.2,0,.3,0,.5,-.1c.1,0,.2,-.1,.2,-.2c-.4,0,-.7,-.4,-.7,-.8c0,-.6,.5,-1.1,1.1,-1.1c.8,0,1.2,.7,1.2,1.6c0,.9,-.3,1.8,-1.1,1.8c-.2,-.1,-.4,-.2,-.6,-.2c-.2,0,-.5,.1,-.5,.3c0,.2,.3,.3,.5,.3c.3,0,.5,-.1,.7,-.2c.9,0,1.1,.8,1.1,1.8c0,1,-.4,2,-1.3,2Z" class="g2_289"/>
<path d="M507.6,145.3h.6v-9.7h-.6Z" class="g2_289"/>
<path d="M418.4,148.7h93.1v-.8H418.4Z" class="g2_289"/>
<path d="M440.5,151.8v.1c.3,0,.8,.1,1,.2c.3,.1,.3,.2,.3,.7v4.8c0,.2,0,.4,0,.5c-.1,.5,-.7,.6,-1.2,.6v.2H444v-.2c-.4,0,-.9,0,-1.1,-.2c-.1,-.2,-.2,-.6,-.2,-1v-6.3c-.5,.3,-1.5,.6,-2.2,.6Z" class="g2_289"/>
<path d="M428.6,161.3h27.1v-.8H428.6Z" class="g2_289"/>
<path d="M430.1,172h.6v-9.8h-.6Z" class="g2_289"/>
<path d="M437.5,165.8c0,-.3,-.3,-.6,-.7,-.6c-.2,0,-.5,0,-.7,.2c-.2,.2,-.4,.4,-.6,.7c0,-.5,-.3,-.9,-.8,-.9c-.8,0,-1.5,.8,-1.8,1.4l.2,.1c.3,-.4,.8,-1.3,1.4,-1.3c.2,0,.3,.4,.3,.7c0,.3,0,.5,-.1,.9l-.3,.8c-.1,.5,-.3,1,-.5,1.3c-.1,.2,-.3,.5,-.6,.5c-.3,0,-.5,0,-.4,-.3c0,-.3,0,-.6,-.3,-.6c-.4,0,-.5,.3,-.5,.6c0,.4,.4,.7,.8,.7c.7,0,1.3,-.6,1.5,-1.1h.1c0,.6,.3,1.1,.9,1.1c.9,0,1.5,-.9,1.8,-1.4l-.1,-.1c-.4,.5,-.9,1.2,-1.5,1.2c-.3,0,-.4,-.4,-.4,-.9c0,-.2,0,-.6,.1,-1l.1,-.5c.1,-.4,.3,-.9,.5,-1.2c.1,-.2,.4,-.7,.7,-.7c.3,0,.2,.3,.2,.5c0,.3,.1,.4,.4,.4c.2,0,.3,-.2,.3,-.5Z" class="g2_289"/>
<path d="M439.2,167.4h5.5v-.6h-5.5Z" class="g2_289"/>
<path d="M447.3,162.8v.1c.3,0,.8,.1,.9,.2c.4,.2,.4,.3,.4,.7v4.8c0,.2,0,.4,-.1,.5c0,.5,-.6,.6,-1.2,.6v.2h3.5v-.2c-.4,0,-.9,0,-1.1,-.2c-.1,-.2,-.2,-.6,-.2,-1v-6.3c-.5,.3,-1.5,.6,-2.2,.6Z" class="g2_289"/>
<path d="M453.5,172h.6v-9.8h-.6Z" class="g2_289"/>
<path d="M464.5,160.5h-3.3v1h3.3v3.2h.9v-3.2h3.3v-1h-3.3v-3.3h-.9v3.3Z" class="g2_289"/>
<path d="M486.2,151.8v.1c.3,0,.8,.1,1,.2c.3,.1,.3,.2,.3,.7v4.8c0,.2,0,.4,0,.5c-.1,.5,-.7,.6,-1.2,.6v.2h3.4v-.2c-.4,0,-.9,0,-1.1,-.2c-.1,-.2,-.1,-.6,-.1,-1v-6.3c-.6,.3,-1.6,.6,-2.3,.6Z" class="g2_289"/>
<path d="M474.3,161.3h27.1v-.8H474.3Z" class="g2_289"/>
<path d="M475.8,172h.6v-9.8h-.6Z" class="g2_289"/>
<path d="M483.2,165.8c0,-.3,-.3,-.6,-.7,-.6c-.2,0,-.5,0,-.7,.2c-.2,.2,-.4,.4,-.6,.7c0,-.5,-.3,-.9,-.8,-.9c-.8,0,-1.5,.8,-1.8,1.4l.2,.1c.3,-.4,.8,-1.3,1.4,-1.3c.2,0,.3,.4,.3,.7c0,.3,0,.5,-.1,.9l-.3,.8c-.1,.5,-.3,1,-.5,1.3c-.1,.2,-.3,.5,-.6,.5c-.3,0,-.5,0,-.4,-.3c0,-.3,0,-.6,-.3,-.6c-.4,0,-.5,.3,-.5,.6c0,.4,.4,.7,.8,.7c.7,0,1.3,-.6,1.5,-1.1h.1c0,.6,.3,1.1,.9,1.1c.9,0,1.5,-.9,1.8,-1.4l-.1,-.1c-.4,.5,-.9,1.2,-1.5,1.2c-.3,0,-.4,-.4,-.4,-.9c0,-.2,0,-.6,.1,-1l.1,-.5c.1,-.4,.3,-.9,.5,-1.2c.1,-.2,.4,-.7,.7,-.7c.3,0,.3,.3,.2,.5c0,.3,.1,.4,.4,.4c.2,0,.3,-.2,.3,-.5Z" class="g2_289"/>
<path d="M484.9,167.4h5.5v-.6h-5.5Z" class="g2_289"/>
<path d="M494.4,169.8c-.7,0,-1.3,-.7,-1.3,-1.4c0,-.5,.4,-1,.9,-1c-.1,-.2,-.4,-.4,-.8,-.4c-.1,0,-.3,0,-.4,.1c-.4,.2,-.7,.6,-.7,1.1c0,.3,0,.5,.2,.7c.3,.7,1.1,1.1,2.1,1.1c.8,0,1.4,-.3,1.9,-.6c.4,-.4,.7,-.9,.7,-1.5c0,-.3,0,-.5,-.1,-.7c-.3,-.7,-.8,-1.1,-1.6,-1.3v-.1c.5,-.1,.8,-.4,1.1,-.7c.2,-.2,.4,-.6,.4,-1.1c0,-.3,-.1,-.5,-.2,-.7c-.3,-.7,-1.1,-1.1,-2.1,-1.1c-.6,0,-1.2,.2,-1.6,.4c-.3,.2,-.5,.6,-.5,1c0,.3,.1,.6,.3,.8c.1,.1,.4,.3,.7,.3c.1,0,.3,-.1,.4,-.1c.2,-.1,.2,-.2,.3,-.3c-.5,0,-.8,-.3,-.8,-.8c0,-.6,.5,-1.1,1.2,-1.1c.7,0,1.1,.7,1.1,1.6c0,.9,-.2,1.8,-1,1.8c-.2,0,-.4,-.1,-.6,-.1c-.3,0,-.6,0,-.6,.2c0,.3,.4,.4,.6,.4c.2,0,.5,-.2,.6,-.3c.9,0,1.2,.8,1.2,1.8c0,1,-.4,2,-1.4,2Z" class="g2_289"/>
<path d="M499.2,172h.6v-9.8h-.6Z" class="g2_289"/>
<image clip-path="url(#c0_289)" preserveAspectRatio="none" x="156" y="693" width="229" height="229" xlink:href="img/1.jpg"/>
</svg>