<?xml version="1.0" encoding="UTF-8" standalone="no"?>
<!DOCTYPE svg PUBLIC "-//W3C//DTD SVG 1.1//EN"
"http://www.w3.org/Graphics/SVG/1.1/DTD/svg11.dtd">
<svg viewBox="0 0 811 1017" version="1.1" xmlns="http://www.w3.org/2000/svg" xmlns:xlink="http://www.w3.org/1999/xlink">
<defs>
<style type="text/css"><![CDATA[
.g0_239{
fill: #0E0E0E;
}
]]></style>
</defs>
<path d="M299.6,199.4c0,-.1,-.1,-.1,-.1,-.1q-.1,0,-.1,0c-4.8,5.4,-5.3,19.2,-5.3,20.8v.7h1.4v-.7c0,-1.2,.8,-14.9,3.9,-20.3c.1,-.2,.2,-.3,.2,-.4Z" class="g0_239"/>
<path d="M294.1,230h1.4v-9.6h-1.4Z" class="g0_239"/>
<path d="M294.1,239h1.4v-9.6h-1.4Z" class="g0_239"/>
<path d="M294.1,247.9h1.4v-9.6h-1.4Z" class="g0_239"/>
<path d="M294.1,256.9h1.4v-9.6h-1.4Z" class="g0_239"/>
<path d="M294.1,265.8h1.4v-9.6h-1.4Z" class="g0_239"/>
<path d="M294.1,274.8h1.4v-9.6h-1.4Z" class="g0_239"/>
<path d="M294.1,283.7h1.4v-9.6h-1.4Z" class="g0_239"/>
<path d="M294.1,292.7h1.4v-9.6h-1.4Z" class="g0_239"/>
<path d="M294.1,301.6h1.4V292h-1.4Z" class="g0_239"/>
<path d="M294.1,310.6h1.4V301h-1.4Z" class="g0_239"/>
<path d="M294.1,319.5h1.4v-9.6h-1.4Z" class="g0_239"/>
<path d="M294.1,328.5h1.4v-9.6h-1.4Z" class="g0_239"/>
<path d="M299.6,349.6c0,-.1,-.1,-.2,-.2,-.3c-3.1,-5.4,-3.9,-19.2,-3.9,-20.4v-.6h-1.4v.6c0,1.6,.5,15.5,5.3,20.8h.1c0,0,.1,0,.1,-.1Z" class="g0_239"/>
<path d="M302,202.2v.2c.4,0,1.1,0,1.3,.1c.5,.3,.4,.4,.5,1.1v6.5c0,.3,0,.6,-.1,.7c-.1,.7,-.9,.8,-1.6,.9v.2h4.7v-.2c-.5,-.1,-1.3,-.1,-1.5,-.4c-.2,-.3,-.2,-.7,-.2,-1.3v-8.6c-.8,.4,-2.1,.7,-3.1,.8Z" class="g0_239"/>
<path d="M329.6,211.7c-1.9,0,-1.9,-2.7,-1.9,-4.9c0,-2.2,0,-5.1,1.9,-5.1c2,0,2,2.9,2,5.1c0,2.2,-.1,4.9,-2,4.9Zm0,-10.3c-2.6,0,-3.3,2.7,-3.3,5.4c0,2.6,.8,5.2,3.3,5.2c2.6,0,3.4,-2.6,3.4,-5.2c0,-2.7,-.7,-5.4,-3.4,-5.4Z" class="g0_239"/>
<path d="M357.3,211.7c-1.9,0,-2,-2.7,-2,-4.9c0,-2.2,0,-5.1,2,-5.1c1.9,0,1.9,2.9,1.9,5.1c0,2.2,0,4.9,-1.9,4.9Zm0,-10.3c-2.6,0,-3.4,2.7,-3.4,5.4c0,2.6,.8,5.2,3.4,5.2c2.5,0,3.3,-2.6,3.3,-5.2c0,-2.7,-.7,-5.4,-3.3,-5.4Z" class="g0_239"/>
<path d="M384.9,211.7c-1.9,0,-1.9,-2.7,-1.9,-4.9c0,-2.2,0,-5.1,1.9,-5.1c1.9,0,1.9,2.9,1.9,5.1c0,2.2,0,4.9,-1.9,4.9Zm0,-10.3c-2.6,0,-3.4,2.7,-3.4,5.4c0,2.6,.8,5.2,3.4,5.2c2.6,0,3.4,-2.6,3.4,-5.2c0,-2.7,-.8,-5.4,-3.4,-5.4Z" class="g0_239"/>
<path d="M412.5,211.7c-1.9,0,-1.9,-2.7,-1.9,-4.9c0,-2.2,0,-5.1,1.9,-5.1c1.9,0,1.9,2.9,1.9,5.1c0,2.2,0,4.9,-1.9,4.9Zm0,-10.3c-2.6,0,-3.4,2.7,-3.4,5.4c0,2.6,.9,5.2,3.4,5.2c2.6,0,3.4,-2.6,3.4,-5.2c0,-2.7,-.8,-5.4,-3.4,-5.4Z" class="g0_239"/>
<path d="M440.1,211.7c-1.9,0,-1.9,-2.7,-1.9,-4.9c0,-2.2,0,-5.1,1.9,-5.1c2,0,2,2.9,2,5.1c0,2.2,-.1,4.9,-2,4.9Zm0,-10.3c-2.6,0,-3.3,2.7,-3.3,5.4c0,2.6,.8,5.2,3.3,5.2c2.6,0,3.4,-2.6,3.4,-5.2c0,-2.7,-.8,-5.4,-3.4,-5.4Z" class="g0_239"/>
<path d="M467.8,211.7c-2,0,-2,-2.7,-2,-4.9c0,-2.2,0,-5.1,2,-5.1c1.9,0,1.9,2.9,1.9,5.1c0,2.2,0,4.9,-1.9,4.9Zm0,-10.3c-2.6,0,-3.4,2.7,-3.4,5.4c0,2.6,.8,5.2,3.4,5.2c2.5,0,3.3,-2.6,3.3,-5.2c0,-2.7,-.7,-5.4,-3.3,-5.4Z" class="g0_239"/>
<path d="M495.4,211.7c-1.9,0,-2,-2.7,-2,-4.9c0,-2.2,0,-5.1,2,-5.1c1.9,0,1.9,2.9,1.9,5.1c0,2.2,0,4.9,-1.9,4.9Zm0,-10.3c-2.6,0,-3.4,2.7,-3.4,5.4c0,2.6,.8,5.2,3.4,5.2c2.5,0,3.4,-2.6,3.4,-5.2c0,-2.7,-.8,-5.4,-3.4,-5.4Z" class="g0_239"/>
<path d="M304.2,230.6c-1.9,0,-1.9,-2.7,-1.9,-4.9c0,-2.2,0,-5.2,1.9,-5.2c1.9,0,1.9,3,1.9,5.2c0,2.2,0,4.9,-1.9,4.9Zm0,-10.3c-2.6,0,-3.4,2.7,-3.4,5.3c0,2.7,.8,5.3,3.4,5.3c2.6,0,3.4,-2.6,3.4,-5.3c0,-2.6,-.8,-5.3,-3.4,-5.3Z" class="g0_239"/>
<path d="M328,217.8v.1c.4,0,.8,.1,1,.2c.3,.1,.3,.2,.3,.7v4.8c0,.2,0,.4,0,.5c-.1,.5,-.7,.6,-1.2,.6v.2h3.4v-.2c-.3,0,-.9,0,-1,-.2c-.2,-.3,-.2,-.6,-.2,-1v-6.3c-.6,.3,-1.6,.5,-2.3,.6Z" class="g0_239"/>
<path d="M325.1,227.3h9.1v-.8h-9.1Z" class="g0_239"/>
<path d="M326.5,228.8v.1c.4,0,.8,.1,1,.2c.3,.1,.3,.3,.3,.7v4.8c0,.2,0,.4,0,.5c-.1,.5,-.7,.6,-1.2,.6v.2H330v-.2c-.4,0,-.9,0,-1.1,-.2c-.1,-.2,-.1,-.6,-.1,-1v-6.3c-.6,.3,-1.6,.6,-2.3,.6Z" class="g0_239"/>
<path d="M332.7,228.2c-.4,0,-.6,.3,-.6,.7c0,.1,0,.2,0,.2c0,.1,0,.2,0,.3c0,.1,0,.2,0,.3c.2,.9,.4,1.7,.4,2.8c0,.4,0,.8,0,1.3h.4c0,-1.4,.1,-2.5,.3,-3.6c.1,-.3,.1,-.6,.1,-.8c0,-.1,0,-.2,0,-.3v-.2c0,-.4,-.2,-.7,-.6,-.7Zm0,7.8c.4,0,.7,-.3,.7,-.7c0,-.3,-.3,-.6,-.7,-.6c-.4,0,-.6,.3,-.6,.6c0,.4,.2,.7,.6,.7Z" class="g0_239"/>
<path d="M357.3,230.6c-1.9,0,-2,-2.7,-2,-4.9c0,-2.2,0,-5.2,2,-5.2c1.9,0,1.9,3,1.9,5.2c0,2.2,0,4.9,-1.9,4.9Zm0,-10.3c-2.6,0,-3.4,2.7,-3.4,5.3c0,2.7,.8,5.3,3.4,5.3c2.5,0,3.3,-2.6,3.3,-5.3c0,-2.6,-.7,-5.3,-3.3,-5.3Z" class="g0_239"/>
<path d="M384.9,230.6c-1.9,0,-1.9,-2.7,-1.9,-4.9c0,-2.2,0,-5.2,1.9,-5.2c1.9,0,1.9,3,1.9,5.2c0,2.2,0,4.9,-1.9,4.9Zm0,-10.3c-2.6,0,-3.4,2.7,-3.4,5.3c0,2.7,.8,5.3,3.4,5.3c2.6,0,3.4,-2.6,3.4,-5.3c0,-2.6,-.8,-5.3,-3.4,-5.3Z" class="g0_239"/>
<path d="M412.5,230.6c-1.9,0,-1.9,-2.7,-1.9,-4.9c0,-2.2,0,-5.2,1.9,-5.2c1.9,0,1.9,3,1.9,5.2c0,2.2,0,4.9,-1.9,4.9Zm0,-10.3c-2.6,0,-3.4,2.7,-3.4,5.3c0,2.7,.9,5.3,3.4,5.3c2.6,0,3.4,-2.6,3.4,-5.3c0,-2.6,-.8,-5.3,-3.4,-5.3Z" class="g0_239"/>
<path d="M440.1,230.6c-1.9,0,-1.9,-2.7,-1.9,-4.9c0,-2.2,0,-5.2,1.9,-5.2c2,0,2,3,2,5.2c0,2.2,-.1,4.9,-2,4.9Zm0,-10.3c-2.6,0,-3.3,2.7,-3.3,5.3c0,2.7,.8,5.3,3.3,5.3c2.6,0,3.4,-2.6,3.4,-5.3c0,-2.6,-.8,-5.3,-3.4,-5.3Z" class="g0_239"/>
<path d="M467.8,230.6c-2,0,-2,-2.7,-2,-4.9c0,-2.2,0,-5.2,2,-5.2c1.9,0,1.9,3,1.9,5.2c0,2.2,0,4.9,-1.9,4.9Zm0,-10.3c-2.6,0,-3.4,2.7,-3.4,5.3c0,2.7,.8,5.3,3.4,5.3c2.5,0,3.3,-2.6,3.3,-5.3c0,-2.6,-.7,-5.3,-3.3,-5.3Z" class="g0_239"/>
<path d="M495.4,230.6c-1.9,0,-2,-2.7,-2,-4.9c0,-2.2,0,-5.2,2,-5.2c1.9,0,1.9,3,1.9,5.2c0,2.2,0,4.9,-1.9,4.9Zm0,-10.3c-2.6,0,-3.4,2.7,-3.4,5.3c0,2.7,.8,5.3,3.4,5.3c2.5,0,3.4,-2.6,3.4,-5.3c0,-2.6,-.8,-5.3,-3.4,-5.3Z" class="g0_239"/>
<path d="M304.2,249.5c-1.9,0,-1.9,-2.8,-1.9,-4.9c0,-2.3,0,-5.2,1.9,-5.2c1.9,0,1.9,2.9,1.9,5.2c0,2.1,0,4.9,-1.9,4.9Zm0,-10.4c-2.6,0,-3.4,2.7,-3.4,5.4c0,2.6,.8,5.2,3.4,5.2c2.6,0,3.4,-2.6,3.4,-5.2c0,-2.7,-.8,-5.4,-3.4,-5.4Z" class="g0_239"/>
<path d="M329.6,249.5c-1.9,0,-1.9,-2.8,-1.9,-4.9c0,-2.3,0,-5.2,1.9,-5.2c2,0,2,2.9,2,5.2c0,2.1,-.1,4.9,-2,4.9Zm0,-10.4c-2.6,0,-3.3,2.7,-3.3,5.4c0,2.6,.8,5.2,3.3,5.2c2.6,0,3.4,-2.6,3.4,-5.2c0,-2.7,-.7,-5.4,-3.4,-5.4Z" class="g0_239"/>
<path d="M355.7,236.6v.2c.3,0,.8,0,.9,.1c.4,.2,.3,.3,.4,.8v4.7c0,.2,-.1,.4,-.1,.6c-.1,.5,-.6,.5,-1.2,.6v.1h3.4v-.1c-.3,-.1,-.9,-.1,-1,-.3c-.2,-.2,-.2,-.5,-.2,-.9v-6.3c-.6,.3,-1.5,.5,-2.2,.5Z" class="g0_239"/>
<path d="M352.7,246.2h9.1v-.9h-9.1Z" class="g0_239"/>
<path d="M355.3,250.1c-.6,0,-1,-.5,-1,-1.2c0,-.8,.4,-1.6,1.3,-1.6c1.2,0,1.3,1,1.3,1.9c0,.9,-.3,1.5,-.7,2.1c-.3,.4,-.7,.9,-1.1,1.4c-.5,.5,-1.1,1.1,-1.9,1.7v.3h4.6l.4,-2h-.3c-.1,.2,-.2,.4,-.3,.5c-.1,.4,-.5,.6,-1,.6h-2.1v-.1c.5,-.3,1,-.7,1.4,-1c.7,-.7,1.5,-1.4,1.9,-2.3c.2,-.4,.3,-.8,.3,-1.2c0,-.3,-.1,-.6,-.2,-.8c-.3,-.8,-1.1,-1.3,-2.2,-1.3c-.7,0,-1.3,.2,-1.7,.6c-.4,.3,-.7,.8,-.7,1.4c0,.5,.2,.8,.4,1.1c.2,.2,.5,.4,.9,.4c.4,0,.7,-.2,.7,-.5Z" class="g0_239"/>
<path d="M360.3,247.1c-.3,0,-.6,.3,-.6,.7q0,.1,0,.2c0,.1,0,.2,0,.3c0,0,0,.1,.1,.3c.1,.9,.3,1.7,.3,2.8c0,.3,0,.8,0,1.3h.5c0,-1.4,0,-2.5,.2,-3.6c.1,-.3,.1,-.6,.2,-.8c0,-.1,0,-.2,0,-.3v-.2c0,-.4,-.3,-.7,-.7,-.7Zm0,7.7c.4,0,.7,-.2,.7,-.6c0,-.4,-.3,-.6,-.7,-.6c-.3,0,-.6,.2,-.6,.6c0,.4,.3,.6,.6,.6Z" class="g0_239"/>
<path d="M384.9,249.5c-1.9,0,-1.9,-2.8,-1.9,-4.9c0,-2.3,0,-5.2,1.9,-5.2c1.9,0,1.9,2.9,1.9,5.2c0,2.1,0,4.9,-1.9,4.9Zm0,-10.4c-2.6,0,-3.4,2.7,-3.4,5.4c0,2.6,.8,5.2,3.4,5.2c2.6,0,3.4,-2.6,3.4,-5.2c0,-2.7,-.8,-5.4,-3.4,-5.4Z" class="g0_239"/>
<path d="M412.5,249.5c-1.9,0,-1.9,-2.8,-1.9,-4.9c0,-2.3,0,-5.2,1.9,-5.2c1.9,0,1.9,2.9,1.9,5.2c0,2.1,0,4.9,-1.9,4.9Zm0,-10.4c-2.6,0,-3.4,2.7,-3.4,5.4c0,2.6,.9,5.2,3.4,5.2c2.6,0,3.4,-2.6,3.4,-5.2c0,-2.7,-.8,-5.4,-3.4,-5.4Z" class="g0_239"/>
<path d="M440.1,249.5c-1.9,0,-1.9,-2.8,-1.9,-4.9c0,-2.3,0,-5.2,1.9,-5.2c2,0,2,2.9,2,5.2c0,2.1,-.1,4.9,-2,4.9Zm0,-10.4c-2.6,0,-3.3,2.7,-3.3,5.4c0,2.6,.8,5.2,3.3,5.2c2.6,0,3.4,-2.6,3.4,-5.2c0,-2.7,-.8,-5.4,-3.4,-5.4Z" class="g0_239"/>
<path d="M467.8,249.5c-2,0,-2,-2.8,-2,-4.9c0,-2.3,0,-5.2,2,-5.2c1.9,0,1.9,2.9,1.9,5.2c0,2.1,0,4.9,-1.9,4.9Zm0,-10.4c-2.6,0,-3.4,2.7,-3.4,5.4c0,2.6,.8,5.2,3.4,5.2c2.5,0,3.3,-2.6,3.3,-5.2c0,-2.7,-.7,-5.4,-3.3,-5.4Z" class="g0_239"/>
<path d="M495.4,249.5c-1.9,0,-2,-2.8,-2,-4.9c0,-2.3,0,-5.2,2,-5.2c1.9,0,1.9,2.9,1.9,5.2c0,2.1,0,4.9,-1.9,4.9Zm0,-10.4c-2.6,0,-3.4,2.7,-3.4,5.4c0,2.6,.8,5.2,3.4,5.2c2.5,0,3.4,-2.6,3.4,-5.2c0,-2.7,-.8,-5.4,-3.4,-5.4Z" class="g0_239"/>
<path d="M304.2,268.3c-1.9,0,-1.9,-2.7,-1.9,-4.9c0,-2.2,0,-5.1,1.9,-5.1c1.9,0,1.9,2.9,1.9,5.1c0,2.2,0,4.9,-1.9,4.9Zm0,-10.3c-2.6,0,-3.4,2.7,-3.4,5.4c0,2.6,.8,5.2,3.4,5.2c2.6,0,3.4,-2.6,3.4,-5.2c0,-2.7,-.8,-5.4,-3.4,-5.4Z" class="g0_239"/>
<path d="M329.6,268.3c-1.9,0,-1.9,-2.7,-1.9,-4.9c0,-2.2,0,-5.1,1.9,-5.1c2,0,2,2.9,2,5.1c0,2.2,-.1,4.9,-2,4.9Zm0,-10.3c-2.6,0,-3.3,2.7,-3.3,5.4c0,2.6,.8,5.2,3.3,5.2c2.6,0,3.4,-2.6,3.4,-5.2c0,-2.7,-.7,-5.4,-3.4,-5.4Z" class="g0_239"/>
<path d="M357.3,268.3c-1.9,0,-2,-2.7,-2,-4.9c0,-2.2,0,-5.1,2,-5.1c1.9,0,1.9,2.9,1.9,5.1c0,2.2,0,4.9,-1.9,4.9Zm0,-10.3c-2.6,0,-3.4,2.7,-3.4,5.4c0,2.6,.8,5.2,3.4,5.2c2.5,0,3.3,-2.6,3.3,-5.2c0,-2.7,-.7,-5.4,-3.3,-5.4Z" class="g0_239"/>
<path d="M383.3,255.5v.2c.3,0,.8,0,.9,.1c.4,.2,.4,.3,.4,.7v4.8c0,.2,0,.4,-.1,.6c0,.4,-.6,.5,-1.2,.5v.2h3.5v-.2c-.4,0,-.9,0,-1.1,-.2c-.2,-.2,-.2,-.6,-.2,-1V255c-.5,.2,-1.5,.5,-2.2,.5Z" class="g0_239"/>
<path d="M380.3,265.1h9.2v-.9h-9.2Z" class="g0_239"/>
<path d="M383.2,273.5c-.7,0,-1.3,-.7,-1.3,-1.4c0,-.5,.3,-.9,.8,-.9c0,-.3,-.4,-.5,-.7,-.5c-.2,0,-.3,.1,-.5,.1c-.4,.2,-.6,.6,-.6,1.2c0,.2,0,.5,.1,.7c.4,.6,1.2,1,2.2,1c.8,0,1.4,-.2,1.9,-.6c.4,-.3,.7,-.8,.7,-1.5c0,-.3,0,-.5,-.1,-.7c-.3,-.7,-.9,-1.1,-1.6,-1.3v-.1c.4,-.1,.8,-.3,1,-.6c.3,-.3,.5,-.7,.5,-1.2c0,-.2,-.1,-.5,-.2,-.7c-.3,-.7,-1.1,-1,-2.2,-1c-.6,0,-1.1,.1,-1.5,.3c-.3,.3,-.6,.6,-.6,1.1c0,.3,.2,.5,.3,.7c.2,.2,.4,.3,.7,.3c.2,0,.4,0,.5,-.1c.1,-.1,.2,-.2,.2,-.3c-.4,0,-.7,-.3,-.7,-.7c0,-.6,.5,-1.1,1.1,-1.1c.8,0,1.2,.7,1.2,1.6c0,.9,-.2,1.7,-1.1,1.7c-.1,0,-.4,-.1,-.6,-.1c-.2,0,-.5,.1,-.5,.3c0,.2,.3,.3,.6,.3c.2,0,.5,-.1,.6,-.2c.9,0,1.2,.8,1.2,1.7c0,1,-.4,2,-1.4,2Z" class="g0_239"/>
<path d="M387.9,266c-.3,0,-.6,.3,-.6,.6c0,.1,0,.2,0,.3q0,.1,0,.2c0,.1,.1,.2,.1,.3c.1,1,.3,1.8,.3,2.9c0,.3,0,.8,0,1.3h.5c0,-1.4,0,-2.6,.2,-3.7c.1,-.3,.1,-.5,.2,-.8c0,-.1,0,-.2,0,-.2v-.3c0,-.3,-.3,-.6,-.7,-.6Zm0,7.7c.4,0,.7,-.3,.7,-.6c0,-.4,-.3,-.7,-.7,-.7c-.3,0,-.6,.3,-.6,.7c0,.3,.3,.6,.6,.6Z" class="g0_239"/>
<path d="M412.5,268.3c-1.9,0,-1.9,-2.7,-1.9,-4.9c0,-2.2,0,-5.1,1.9,-5.1c1.9,0,1.9,2.9,1.9,5.1c0,2.2,0,4.9,-1.9,4.9Zm0,-10.3c-2.6,0,-3.4,2.7,-3.4,5.4c0,2.6,.9,5.2,3.4,5.2c2.6,0,3.4,-2.6,3.4,-5.2c0,-2.7,-.8,-5.4,-3.4,-5.4Z" class="g0_239"/>
<path d="M440.1,268.3c-1.9,0,-1.9,-2.7,-1.9,-4.9c0,-2.2,0,-5.1,1.9,-5.1c2,0,2,2.9,2,5.1c0,2.2,-.1,4.9,-2,4.9Zm0,-10.3c-2.6,0,-3.3,2.7,-3.3,5.4c0,2.6,.8,5.2,3.3,5.2c2.6,0,3.4,-2.6,3.4,-5.2c0,-2.7,-.8,-5.4,-3.4,-5.4Z" class="g0_239"/>
<path d="M467.8,268.3c-2,0,-2,-2.7,-2,-4.9c0,-2.2,0,-5.1,2,-5.1c1.9,0,1.9,2.9,1.9,5.1c0,2.2,0,4.9,-1.9,4.9Zm0,-10.3c-2.6,0,-3.4,2.7,-3.4,5.4c0,2.6,.8,5.2,3.4,5.2c2.5,0,3.3,-2.6,3.3,-5.2c0,-2.7,-.7,-5.4,-3.3,-5.4Z" class="g0_239"/>
<path d="M495.4,268.3c-1.9,0,-2,-2.7,-2,-4.9c0,-2.2,0,-5.1,2,-5.1c1.9,0,1.9,2.9,1.9,5.1c0,2.2,0,4.9,-1.9,4.9Zm0,-10.3c-2.6,0,-3.4,2.7,-3.4,5.4c0,2.6,.8,5.2,3.4,5.2c2.5,0,3.4,-2.6,3.4,-5.2c0,-2.7,-.8,-5.4,-3.4,-5.4Z" class="g0_239"/>
<path d="M304.2,287.2c-1.9,0,-1.9,-2.7,-1.9,-4.9c0,-2.2,0,-5.2,1.9,-5.2c1.9,0,1.9,3,1.9,5.2c0,2.2,0,4.9,-1.9,4.9Zm0,-10.3c-2.6,0,-3.4,2.7,-3.4,5.4c0,2.6,.8,5.2,3.4,5.2c2.6,0,3.4,-2.6,3.4,-5.2c0,-2.7,-.8,-5.4,-3.4,-5.4Z" class="g0_239"/>
<path d="M329.6,287.2c-1.9,0,-1.9,-2.7,-1.9,-4.9c0,-2.2,0,-5.2,1.9,-5.2c2,0,2,3,2,5.2c0,2.2,-.1,4.9,-2,4.9Zm0,-10.3c-2.6,0,-3.3,2.7,-3.3,5.4c0,2.6,.8,5.2,3.3,5.2c2.6,0,3.4,-2.6,3.4,-5.2c0,-2.7,-.7,-5.4,-3.4,-5.4Z" class="g0_239"/>
<path d="M357.3,287.2c-1.9,0,-2,-2.7,-2,-4.9c0,-2.2,0,-5.2,2,-5.2c1.9,0,1.9,3,1.9,5.2c0,2.2,0,4.9,-1.9,4.9Zm0,-10.3c-2.6,0,-3.4,2.7,-3.4,5.4c0,2.6,.8,5.2,3.4,5.2c2.5,0,3.3,-2.6,3.3,-5.2c0,-2.7,-.7,-5.4,-3.3,-5.4Z" class="g0_239"/>
<path d="M384.9,287.2c-1.9,0,-1.9,-2.7,-1.9,-4.9c0,-2.2,0,-5.2,1.9,-5.2c1.9,0,1.9,3,1.9,5.2c0,2.2,0,4.9,-1.9,4.9Zm0,-10.3c-2.6,0,-3.4,2.7,-3.4,5.4c0,2.6,.8,5.2,3.4,5.2c2.6,0,3.4,-2.6,3.4,-5.2c0,-2.7,-.8,-5.4,-3.4,-5.4Z" class="g0_239"/>
<path d="M410.9,274.4v.1c.3,0,.8,.1,1,.2c.3,.1,.3,.3,.3,.7v4.8c0,.2,0,.4,0,.5c-.1,.5,-.7,.6,-1.2,.6v.2h3.4v-.2c-.4,0,-.9,0,-1.1,-.2c-.1,-.2,-.1,-.6,-.1,-1v-6.3c-.6,.3,-1.6,.6,-2.3,.6Z" class="g0_239"/>
<path d="M408,283.9h9.1v-.8H408Z" class="g0_239"/>
<path d="M411.1,286.4v3.9h-2.5c.8,-1.3,1.7,-2.6,2.5,-3.9Zm-2.8,3.8v.5h2.8v.4c0,.9,-.1,1.2,-.6,1.2v.2h2.1v-.2c-.4,0,-.5,-.5,-.5,-1.3v-.3h1.2c0,0,0,-.4,0,-.4c0,0,-1.2,0,-1.2,0v-5.5h-.3l-3.5,5.4Z" class="g0_239"/>
<path d="M415.6,284.8c-.4,0,-.7,.3,-.7,.7c0,.1,0,.2,0,.2c0,.1,0,.2,.1,.3c0,.1,0,.2,0,.3c.2,.9,.3,1.7,.3,2.8c0,.4,0,.8,0,1.4h.5c0,-1.5,0,-2.6,.3,-3.7c0,-.3,0,-.5,.1,-.8c0,-.1,0,-.2,0,-.3v-.2c0,-.4,-.3,-.7,-.6,-.7Zm0,7.8c.3,0,.6,-.3,.6,-.7c0,-.3,-.3,-.6,-.6,-.6c-.4,0,-.7,.3,-.7,.6c0,.4,.3,.7,.7,.7Z" class="g0_239"/>
<path d="M440.1,287.2c-1.9,0,-1.9,-2.7,-1.9,-4.9c0,-2.2,0,-5.2,1.9,-5.2c2,0,2,3,2,5.2c0,2.2,-.1,4.9,-2,4.9Zm0,-10.3c-2.6,0,-3.3,2.7,-3.3,5.4c0,2.6,.8,5.2,3.3,5.2c2.6,0,3.4,-2.6,3.4,-5.2c0,-2.7,-.8,-5.4,-3.4,-5.4Z" class="g0_239"/>
<path d="M467.8,287.2c-2,0,-2,-2.7,-2,-4.9c0,-2.2,0,-5.2,2,-5.2c1.9,0,1.9,3,1.9,5.2c0,2.2,0,4.9,-1.9,4.9Zm0,-10.3c-2.6,0,-3.4,2.7,-3.4,5.4c0,2.6,.8,5.2,3.4,5.2c2.5,0,3.3,-2.6,3.3,-5.2c0,-2.7,-.7,-5.4,-3.3,-5.4Z" class="g0_239"/>
<path d="M495.4,287.2c-1.9,0,-2,-2.7,-2,-4.9c0,-2.2,0,-5.2,2,-5.2c1.9,0,1.9,3,1.9,5.2c0,2.2,0,4.9,-1.9,4.9Zm0,-10.3c-2.6,0,-3.4,2.7,-3.4,5.4c0,2.6,.8,5.2,3.4,5.2c2.5,0,3.4,-2.6,3.4,-5.2c0,-2.7,-.8,-5.4,-3.4,-5.4Z" class="g0_239"/>
<path d="M304.2,306.1c-1.9,0,-1.9,-2.7,-1.9,-4.9c0,-2.2,0,-5.2,1.9,-5.2c1.9,0,1.9,3,1.9,5.2c0,2.2,0,4.9,-1.9,4.9Zm0,-10.4c-2.6,0,-3.4,2.8,-3.4,5.4c0,2.6,.8,5.2,3.4,5.2c2.6,0,3.4,-2.5,3.4,-5.2c0,-2.7,-.8,-5.4,-3.4,-5.4Z" class="g0_239"/>
<path d="M329.6,306.1c-1.9,0,-1.9,-2.7,-1.9,-4.9c0,-2.2,0,-5.2,1.9,-5.2c2,0,2,3,2,5.2c0,2.2,-.1,4.9,-2,4.9Zm0,-10.4c-2.6,0,-3.3,2.8,-3.3,5.4c0,2.6,.8,5.2,3.3,5.2c2.6,0,3.4,-2.5,3.4,-5.2c0,-2.7,-.7,-5.4,-3.4,-5.4Z" class="g0_239"/>
<path d="M357.3,306.1c-1.9,0,-2,-2.7,-2,-4.9c0,-2.2,0,-5.2,2,-5.2c1.9,0,1.9,3,1.9,5.2c0,2.2,0,4.9,-1.9,4.9Zm0,-10.4c-2.6,0,-3.4,2.8,-3.4,5.4c0,2.6,.8,5.2,3.4,5.2c2.5,0,3.3,-2.5,3.3,-5.2c0,-2.7,-.7,-5.4,-3.3,-5.4Z" class="g0_239"/>
<path d="M384.9,306.1c-1.9,0,-1.9,-2.7,-1.9,-4.9c0,-2.2,0,-5.2,1.9,-5.2c1.9,0,1.9,3,1.9,5.2c0,2.2,0,4.9,-1.9,4.9Zm0,-10.4c-2.6,0,-3.4,2.8,-3.4,5.4c0,2.6,.8,5.2,3.4,5.2c2.6,0,3.4,-2.5,3.4,-5.2c0,-2.7,-.8,-5.4,-3.4,-5.4Z" class="g0_239"/>
<path d="M412.5,306.1c-1.9,0,-1.9,-2.7,-1.9,-4.9c0,-2.2,0,-5.2,1.9,-5.2c1.9,0,1.9,3,1.9,5.2c0,2.2,0,4.9,-1.9,4.9Zm0,-10.4c-2.6,0,-3.4,2.8,-3.4,5.4c0,2.6,.9,5.2,3.4,5.2c2.6,0,3.4,-2.5,3.4,-5.2c0,-2.7,-.8,-5.4,-3.4,-5.4Z" class="g0_239"/>
<path d="M438.5,293.2v.2c.4,0,.8,.1,1,.1c.3,.2,.3,.3,.3,.8V299c0,.3,0,.5,0,.6c-.1,.5,-.7,.5,-1.2,.6v.1H442v-.1c-.4,0,-.9,-.1,-1,-.3c-.2,-.2,-.2,-.5,-.2,-.9v-6.3c-.6,.3,-1.6,.5,-2.3,.5Z" class="g0_239"/>
<path d="M435.6,302.8h9.1V302h-9.1Z" class="g0_239"/>
<path d="M440.6,303.7v0c-.3,.1,-.7,.2,-1.3,.2c-.5,0,-.8,-.1,-1.2,-.2l-1,4.1c0,.2,-.1,.2,.1,.2c.1,0,.1,-.1,.2,-.2c.2,-.6,.6,-1,1.2,-1c.9,0,1,.7,1,1.6c0,.8,-.1,1.5,-.4,1.9c-.2,.4,-.6,1,-1.2,1c-.6,0,-.8,-.6,-.9,-1c-.1,-.4,-.1,-.8,-.6,-.8c-.3,0,-.4,.3,-.4,.6c0,.2,0,.4,.1,.6c.3,.4,.9,.8,1.8,.8c.4,0,.8,-.1,1.1,-.3c.9,-.4,1.7,-1.2,1.7,-2.5c0,-.4,0,-.6,-.1,-.9c-.3,-.8,-1.1,-1.3,-2.1,-1.3c-.3,0,-.8,.2,-1,.5v-.2l.5,-2.1c0,0,.6,.2,1,.2c.8,0,1.4,-.5,1.5,-1.2Z" class="g0_239"/>
<path d="M443.2,303.7c-.4,0,-.6,.3,-.6,.7c0,.1,0,.2,0,.2c0,.1,0,.2,0,.3c0,0,0,.2,0,.3c.2,.9,.3,1.7,.3,2.8c.1,.3,.1,.8,.1,1.3h.4c0,-1.4,.1,-2.5,.3,-3.6c0,-.3,.1,-.6,.1,-.8c0,-.1,0,-.2,0,-.3v-.2c0,-.4,-.2,-.7,-.6,-.7Zm0,7.8c.3,0,.6,-.3,.6,-.7c0,-.3,-.3,-.6,-.6,-.6c-.4,0,-.6,.3,-.6,.6c0,.4,.2,.7,.6,.7Z" class="g0_239"/>
<path d="M467.8,306.1c-2,0,-2,-2.7,-2,-4.9c0,-2.2,0,-5.2,2,-5.2c1.9,0,1.9,3,1.9,5.2c0,2.2,0,4.9,-1.9,4.9Zm0,-10.4c-2.6,0,-3.4,2.8,-3.4,5.4c0,2.6,.8,5.2,3.4,5.2c2.5,0,3.3,-2.5,3.3,-5.2c0,-2.7,-.7,-5.4,-3.3,-5.4Z" class="g0_239"/>
<path d="M495.4,306.1c-1.9,0,-2,-2.7,-2,-4.9c0,-2.2,0,-5.2,2,-5.2c1.9,0,1.9,3,1.9,5.2c0,2.2,0,4.9,-1.9,4.9Zm0,-10.4c-2.6,0,-3.4,2.8,-3.4,5.4c0,2.6,.8,5.2,3.4,5.2c2.5,0,3.4,-2.5,3.4,-5.2c0,-2.7,-.8,-5.4,-3.4,-5.4Z" class="g0_239"/>
<path d="M304.2,324.9c-1.9,0,-1.9,-2.7,-1.9,-4.9c0,-2.2,0,-5.1,1.9,-5.1c1.9,0,1.9,2.9,1.9,5.1c0,2.2,0,4.9,-1.9,4.9Zm0,-10.3c-2.6,0,-3.4,2.7,-3.4,5.4c0,2.6,.8,5.2,3.4,5.2c2.6,0,3.4,-2.6,3.4,-5.2c0,-2.7,-.8,-5.4,-3.4,-5.4Z" class="g0_239"/>
<path d="M329.6,324.9c-1.9,0,-1.9,-2.7,-1.9,-4.9c0,-2.2,0,-5.1,1.9,-5.1c2,0,2,2.9,2,5.1c0,2.2,-.1,4.9,-2,4.9Zm0,-10.3c-2.6,0,-3.3,2.7,-3.3,5.4c0,2.6,.8,5.2,3.3,5.2c2.6,0,3.4,-2.6,3.4,-5.2c0,-2.7,-.7,-5.4,-3.4,-5.4Z" class="g0_239"/>
<path d="M357.3,324.9c-1.9,0,-2,-2.7,-2,-4.9c0,-2.2,0,-5.1,2,-5.1c1.9,0,1.9,2.9,1.9,5.1c0,2.2,0,4.9,-1.9,4.9Zm0,-10.3c-2.6,0,-3.4,2.7,-3.4,5.4c0,2.6,.8,5.2,3.4,5.2c2.5,0,3.3,-2.6,3.3,-5.2c0,-2.7,-.7,-5.4,-3.3,-5.4Z" class="g0_239"/>
<path d="M384.9,324.9c-1.9,0,-1.9,-2.7,-1.9,-4.9c0,-2.2,0,-5.1,1.9,-5.1c1.9,0,1.9,2.9,1.9,5.1c0,2.2,0,4.9,-1.9,4.9Zm0,-10.3c-2.6,0,-3.4,2.7,-3.4,5.4c0,2.6,.8,5.2,3.4,5.2c2.6,0,3.4,-2.6,3.4,-5.2c0,-2.7,-.8,-5.4,-3.4,-5.4Z" class="g0_239"/>
<path d="M412.5,324.9c-1.9,0,-1.9,-2.7,-1.9,-4.9c0,-2.2,0,-5.1,1.9,-5.1c1.9,0,1.9,2.9,1.9,5.1c0,2.2,0,4.9,-1.9,4.9Zm0,-10.3c-2.6,0,-3.4,2.7,-3.4,5.4c0,2.6,.9,5.2,3.4,5.2c2.6,0,3.4,-2.6,3.4,-5.2c0,-2.7,-.8,-5.4,-3.4,-5.4Z" class="g0_239"/>
<path d="M440.1,324.9c-1.9,0,-1.9,-2.7,-1.9,-4.9c0,-2.2,0,-5.1,1.9,-5.1c2,0,2,2.9,2,5.1c0,2.2,-.1,4.9,-2,4.9Zm0,-10.3c-2.6,0,-3.3,2.7,-3.3,5.4c0,2.6,.8,5.2,3.3,5.2c2.6,0,3.4,-2.6,3.4,-5.2c0,-2.7,-.8,-5.4,-3.4,-5.4Z" class="g0_239"/>
<path d="M466.2,312.1v.2c.3,0,.8,0,.9,.1c.3,.2,.3,.3,.3,.7v4.8c0,.2,0,.4,0,.6c-.1,.5,-.6,.5,-1.2,.6v.1h3.4v-.1c-.3,-.1,-.9,-.1,-1,-.3c-.2,-.2,-.2,-.6,-.2,-1v-6.2c-.6,.3,-1.5,.5,-2.2,.5Z" class="g0_239"/>
<path d="M463.2,321.7h9.1v-.9h-9.1Z" class="g0_239"/>
<path d="M467.6,327.7c0,1.3,-.2,2.4,-1.3,2.4c-.9,0,-1.4,-1.2,-1.4,-2.8v-.5c.3,-.7,.7,-1.3,1.5,-1.3c1,0,1.2,1.2,1.2,2.2Zm.9,-4.1c0,-.5,-1,-1,-1.7,-1c-2.3,0,-3,2,-3,4.3c0,1.8,.7,3.4,2.4,3.4c1.6,0,2.5,-1.1,2.5,-2.6c0,-1.4,-.8,-2.5,-2.2,-2.5c-.7,0,-1.2,.5,-1.5,1h-.1c0,-.9,0,-1.7,.3,-2.3c.3,-.4,.7,-1.1,1.4,-1.1c1.2,0,.8,1.3,1.4,1.3c.4,0,.5,-.1,.5,-.5Z" class="g0_239"/>
<path d="M470.8,322.6c-.4,0,-.6,.3,-.6,.6c0,.1,0,.2,0,.3q0,.1,0,.2c0,.1,0,.2,.1,.4c.1,.9,.3,1.7,.3,2.8c0,.3,0,.8,0,1.3h.5c0,-1.4,0,-2.5,.2,-3.7c.1,-.3,.1,-.5,.1,-.8c0,0,.1,-.1,.1,-.2v-.3c0,-.3,-.3,-.6,-.7,-.6Zm0,7.7c.4,0,.7,-.3,.7,-.6c0,-.4,-.3,-.7,-.7,-.7c-.3,0,-.6,.3,-.6,.7c0,.3,.3,.6,.6,.6Z" class="g0_239"/>
<path d="M495.4,324.9c-1.9,0,-2,-2.7,-2,-4.9c0,-2.2,0,-5.1,2,-5.1c1.9,0,1.9,2.9,1.9,5.1c0,2.2,0,4.9,-1.9,4.9Zm0,-10.3c-2.6,0,-3.4,2.7,-3.4,5.4c0,2.6,.8,5.2,3.4,5.2c2.5,0,3.4,-2.6,3.4,-5.2c0,-2.7,-.8,-5.4,-3.4,-5.4Z" class="g0_239"/>
<path d="M304.2,343.8c-1.9,0,-1.9,-2.7,-1.9,-4.9c0,-2.2,0,-5.1,1.9,-5.1c1.9,0,1.9,2.9,1.9,5.1c0,2.2,0,4.9,-1.9,4.9Zm0,-10.3c-2.6,0,-3.4,2.7,-3.4,5.4c0,2.6,.8,5.2,3.4,5.2c2.6,0,3.4,-2.6,3.4,-5.2c0,-2.7,-.8,-5.4,-3.4,-5.4Z" class="g0_239"/>
<path d="M329.6,343.8c-1.9,0,-1.9,-2.7,-1.9,-4.9c0,-2.2,0,-5.1,1.9,-5.1c2,0,2,2.9,2,5.1c0,2.2,-.1,4.9,-2,4.9Zm0,-10.3c-2.6,0,-3.3,2.7,-3.3,5.4c0,2.6,.8,5.2,3.3,5.2c2.6,0,3.4,-2.6,3.4,-5.2c0,-2.7,-.7,-5.4,-3.4,-5.4Z" class="g0_239"/>
<path d="M357.3,343.8c-1.9,0,-2,-2.7,-2,-4.9c0,-2.2,0,-5.1,2,-5.1c1.9,0,1.9,2.9,1.9,5.1c0,2.2,0,4.9,-1.9,4.9Zm0,-10.3c-2.6,0,-3.4,2.7,-3.4,5.4c0,2.6,.8,5.2,3.4,5.2c2.5,0,3.3,-2.6,3.3,-5.2c0,-2.7,-.7,-5.4,-3.3,-5.4Z" class="g0_239"/>
<path d="M384.9,343.8c-1.9,0,-1.9,-2.7,-1.9,-4.9c0,-2.2,0,-5.1,1.9,-5.1c1.9,0,1.9,2.9,1.9,5.1c0,2.2,0,4.9,-1.9,4.9Zm0,-10.3c-2.6,0,-3.4,2.7,-3.4,5.4c0,2.6,.8,5.2,3.4,5.2c2.6,0,3.4,-2.6,3.4,-5.2c0,-2.7,-.8,-5.4,-3.4,-5.4Z" class="g0_239"/>
<path d="M412.5,343.8c-1.9,0,-1.9,-2.7,-1.9,-4.9c0,-2.2,0,-5.1,1.9,-5.1c1.9,0,1.9,2.9,1.9,5.1c0,2.2,0,4.9,-1.9,4.9Zm0,-10.3c-2.6,0,-3.4,2.7,-3.4,5.4c0,2.6,.9,5.2,3.4,5.2c2.6,0,3.4,-2.6,3.4,-5.2c0,-2.7,-.8,-5.4,-3.4,-5.4Z" class="g0_239"/>
<path d="M440.1,343.8c-1.9,0,-1.9,-2.7,-1.9,-4.9c0,-2.2,0,-5.1,1.9,-5.1c2,0,2,2.9,2,5.1c0,2.2,-.1,4.9,-2,4.9Zm0,-10.3c-2.6,0,-3.3,2.7,-3.3,5.4c0,2.6,.8,5.2,3.3,5.2c2.6,0,3.4,-2.6,3.4,-5.2c0,-2.7,-.8,-5.4,-3.4,-5.4Z" class="g0_239"/>
<path d="M467.8,343.8c-2,0,-2,-2.7,-2,-4.9c0,-2.2,0,-5.1,2,-5.1c1.9,0,1.9,2.9,1.9,5.1c0,2.2,0,4.9,-1.9,4.9Zm0,-10.3c-2.6,0,-3.4,2.7,-3.4,5.4c0,2.6,.8,5.2,3.4,5.2c2.5,0,3.3,-2.6,3.3,-5.2c0,-2.7,-.7,-5.4,-3.3,-5.4Z" class="g0_239"/>
<path d="M493.8,331v.1c.3,0,.8,.1,.9,.2c.4,.1,.3,.3,.4,.7v4.8c0,.2,0,.4,-.1,.5c0,.5,-.6,.6,-1.2,.6v.2h3.5v-.2c-.4,0,-1,0,-1.1,-.2c-.2,-.2,-.2,-.6,-.2,-1v-6.3c-.6,.3,-1.5,.6,-2.2,.6Z" class="g0_239"/>
<path d="M490.8,340.5H500v-.8h-9.2Z" class="g0_239"/>
<path d="M492.8,349.6c.3,0,.5,-.1,.6,-.2c.4,-.6,.7,-1.6,1,-2.3l.7,-1.7c.4,-1.1,.9,-2.2,1.3,-3.3V342h-3.1c-.5,0,-.9,0,-.9,-.3c-.1,-.1,-.1,-.2,0,-.3h-.2l-.7,2.7h.2l.1,-.3c.2,-.5,.5,-.8,1,-.8c.2,0,.4,0,.6,0h2.5l-1.6,2.5c-.3,.6,-.5,1,-.7,1.3c-.2,.4,-.4,.7,-.5,1c-.2,.4,-.4,.7,-.5,1c0,.1,-.1,.2,-.1,.3c0,0,0,.1,0,.1c0,.2,.1,.4,.3,.4Z" class="g0_239"/>
<path d="M498.4,341.9c-.3,0,-.6,.3,-.6,.6c0,.1,0,.2,0,.3q0,.1,0,.2c0,.1,.1,.2,.1,.4c.1,.9,.3,1.7,.3,2.8c0,.3,0,.8,0,1.3h.5c0,-1.4,0,-2.5,.2,-3.7c.1,-.3,.1,-.5,.2,-.8c0,0,0,-.1,0,-.2v-.3c0,-.3,-.3,-.6,-.7,-.6Zm0,7.7c.4,0,.7,-.3,.7,-.6c0,-.4,-.3,-.7,-.7,-.7c-.3,0,-.6,.3,-.6,.7c0,.3,.3,.6,.6,.6Z" class="g0_239"/>
<path d="M502.2,199.4c0,.1,.1,.2,.1,.4c3.2,5.4,4,19.1,4,20.3v.7h1.4v-.7c0,-1.6,-.6,-15.4,-5.3,-20.8c0,0,-.1,0,-.1,0q-.1,0,-.1,.1Z" class="g0_239"/>
<path d="M506.3,230h1.4v-9.6h-1.4Z" class="g0_239"/>
<path d="M506.3,239h1.4v-9.6h-1.4Z" class="g0_239"/>
<path d="M506.3,247.9h1.4v-9.6h-1.4Z" class="g0_239"/>
<path d="M506.3,256.9h1.4v-9.6h-1.4Z" class="g0_239"/>
<path d="M506.3,265.8h1.4v-9.6h-1.4Z" class="g0_239"/>
<path d="M506.3,274.8h1.4v-9.6h-1.4Z" class="g0_239"/>
<path d="M506.3,283.7h1.4v-9.6h-1.4Z" class="g0_239"/>
<path d="M506.3,292.7h1.4v-9.6h-1.4Z" class="g0_239"/>
<path d="M506.3,301.6h1.4V292h-1.4Z" class="g0_239"/>
<path d="M506.3,310.6h1.4V301h-1.4Z" class="g0_239"/>
<path d="M506.3,319.5h1.4v-9.6h-1.4Z" class="g0_239"/>
<path d="M506.3,328.5h1.4v-9.6h-1.4Z" class="g0_239"/>
<path d="M502.2,349.6q0,.1,.1,.1c0,0,.1,0,.1,0c4.7,-5.3,5.3,-19.2,5.3,-20.8v-.6h-1.4v.6c0,1.2,-.8,15,-4,20.4c0,.1,-.1,.2,-.1,.3Z" class="g0_239"/>
<path d="M517.2,203.9c0,-.1,-.1,-.1,-.1,-.1c0,0,-.1,0,-.1,0c-4.8,5.3,-5.3,19.2,-5.3,20.8v.6h1.4v-.6c0,-1.2,.8,-15,4,-20.4c0,-.1,.1,-.2,.1,-.3Z" class="g0_239"/>
<path d="M511.7,234.5h1.4v-9.6h-1.4Z" class="g0_239"/>
<path d="M511.7,243.5h1.4v-9.6h-1.4Z" class="g0_239"/>
<path d="M511.7,252.4h1.4v-9.6h-1.4Z" class="g0_239"/>
<path d="M511.7,261.4h1.4v-9.6h-1.4Z" class="g0_239"/>
<path d="M511.7,270.3h1.4v-9.6h-1.4Z" class="g0_239"/>
<path d="M511.7,279.3h1.4v-9.6h-1.4Z" class="g0_239"/>
<path d="M511.7,288.2h1.4v-9.6h-1.4Z" class="g0_239"/>
<path d="M511.7,297.2h1.4v-9.6h-1.4Z" class="g0_239"/>
<path d="M511.7,306.1h1.4v-9.6h-1.4Z" class="g0_239"/>
<path d="M511.7,315.1h1.4v-9.6h-1.4Z" class="g0_239"/>
<path d="M511.7,324h1.4v-9.6h-1.4Z" class="g0_239"/>
<path d="M517.2,345.1c0,-.1,-.1,-.2,-.1,-.3c-3.2,-5.4,-4,-19.1,-4,-20.4v-.6h-1.4v.6c0,1.6,.5,15.5,5.3,20.8c0,0,.1,0,.1,0c0,0,.1,0,.1,-.1Z" class="g0_239"/>
<path d="M522.2,208.9c-.5,0,-.9,.2,-1.3,.5c-.5,.3,-.9,.7,-1.3,1.1c-.6,.8,-1.2,2,-1.2,3.3c0,1,.3,1.7,1.3,1.7c1.3,0,1.8,-.9,2.2,-1.5c-.2,.9,-.1,1.5,.5,1.5c.4,0,.8,-.1,1.2,-.5c.3,-.3,.7,-.8,1,-1.3l-.1,-.2c-.3,.4,-1,1.4,-1.4,1.4c-.2,0,-.3,-.4,-.3,-.6c0,-.9,.7,-2.4,1,-3.4l.7,-1.9h-1l-.3,.7c-.1,-.5,-.4,-.8,-1,-.8Zm.1,.3c.7,0,.5,1.3,.4,1.9c0,.3,-.2,.6,-.3,1c-.3,1.1,-1.4,3.1,-2.2,3.1c-.6,0,-.8,-1,-.8,-1.5c0,-.4,0,-.8,.2,-1.3c.4,-1,1.4,-3.2,2.7,-3.2Z" class="g0_239"/>
<path d="M528.2,217.7c-1.4,0,-1.5,-2,-1.5,-3.6c0,-1.6,0,-3.8,1.5,-3.8c1.4,0,1.4,2.2,1.4,3.8c0,1.6,-.1,3.6,-1.4,3.6Zm0,-7.6c-1.9,0,-2.5,2,-2.5,4c0,1.9,.6,3.8,2.5,3.8c1.8,0,2.4,-1.9,2.4,-3.8c0,-2,-.5,-4,-2.4,-4Z" class="g0_239"/>
<path d="M522.2,226.8c-.5,0,-.9,.2,-1.3,.5c-.5,.3,-.9,.7,-1.3,1.1c-.6,.8,-1.2,2,-1.2,3.3c0,1,.3,1.7,1.3,1.7c1.3,0,1.8,-.9,2.2,-1.5c-.2,.9,-.1,1.5,.5,1.5c.4,0,.8,-.1,1.2,-.5c.3,-.3,.7,-.8,1,-1.3l-.1,-.2c-.3,.4,-1,1.4,-1.4,1.4c-.2,0,-.3,-.4,-.3,-.6c0,-.9,.7,-2.4,1,-3.4l.7,-1.9h-1l-.3,.7c-.1,-.5,-.4,-.8,-1,-.8Zm.1,.3c.7,0,.5,1.3,.4,1.9c0,.3,-.2,.6,-.3,1c-.3,1.1,-1.4,3.1,-2.2,3.1c-.6,0,-.8,-1,-.8,-1.5c0,-.4,0,-.8,.2,-1.3c.4,-1,1.4,-3.2,2.7,-3.2Z" class="g0_239"/>
<path d="M526.5,228.6v.1c.4,0,.9,.1,1,.2c.3,.1,.3,.3,.3,.7v4.8c0,.2,0,.4,0,.5c-.1,.5,-.7,.6,-1.2,.6v.2H530v-.2c-.3,0,-.9,0,-1,-.2c-.2,-.2,-.2,-.6,-.2,-1V228c-.6,.3,-1.5,.6,-2.3,.6Z" class="g0_239"/>
<path d="M522.2,244.7c-.5,0,-.9,.2,-1.3,.5c-.5,.3,-.9,.7,-1.3,1.1c-.6,.8,-1.2,2,-1.2,3.3c0,1,.3,1.7,1.3,1.7c1.3,0,1.8,-.9,2.2,-1.5c-.2,.9,-.1,1.5,.5,1.5c.4,0,.8,-.1,1.2,-.5c.3,-.3,.7,-.8,1,-1.3l-.1,-.2c-.3,.4,-1,1.4,-1.4,1.4c-.2,0,-.3,-.4,-.3,-.6c0,-.9,.7,-2.4,1,-3.4l.7,-1.9h-1l-.3,.7c-.1,-.5,-.4,-.8,-1,-.8Zm.1,.3c.7,0,.5,1.3,.4,1.9c0,.3,-.2,.6,-.3,1c-.3,1.1,-1.4,3.1,-2.2,3.1c-.6,0,-.8,-1,-.8,-1.5c0,-.4,0,-.8,.2,-1.3c.4,-1,1.4,-3.2,2.7,-3.2Z" class="g0_239"/>
<path d="M527.7,248.9c-.6,0,-1,-.5,-1,-1.2c0,-.7,.4,-1.6,1.3,-1.6c1.2,0,1.3,1,1.3,1.9c0,.9,-.3,1.5,-.7,2.1c-.3,.4,-.7,.9,-1.1,1.4c-.5,.5,-1.1,1.1,-1.9,1.7v.4h4.6l.4,-2.1h-.4c0,.2,-.1,.4,-.2,.5c-.1,.4,-.5,.6,-1,.6h-2.1c.5,-.4,.9,-.8,1.4,-1.1c.7,-.7,1.5,-1.4,1.9,-2.3c.2,-.4,.3,-.8,.3,-1.2c0,-.3,-.1,-.6,-.2,-.8c-.3,-.8,-1.1,-1.3,-2.2,-1.3c-.7,0,-1.3,.3,-1.7,.6c-.4,.3,-.7,.8,-.7,1.5c0,.4,.2,.8,.4,1c.2,.2,.5,.4,.9,.4c.4,0,.7,-.2,.7,-.5Z" class="g0_239"/>
<path d="M522.2,262.6c-.5,0,-.9,.2,-1.3,.5c-.5,.3,-.9,.7,-1.3,1.1c-.6,.8,-1.2,2,-1.2,3.3c0,1,.3,1.7,1.3,1.7c1.3,0,1.8,-.9,2.2,-1.5c-.2,.9,-.1,1.5,.5,1.5c.4,0,.8,-.1,1.2,-.5c.3,-.3,.7,-.8,1,-1.3l-.1,-.2c-.3,.4,-1,1.4,-1.4,1.4c-.2,0,-.3,-.4,-.3,-.6c0,-.9,.7,-2.4,1,-3.4l.7,-1.9h-1l-.3,.7c-.1,-.5,-.4,-.8,-1,-.8Zm.1,.3c.7,0,.5,1.3,.4,1.9c0,.3,-.2,.6,-.3,1c-.3,1.1,-1.4,3.1,-2.2,3.1c-.6,0,-.8,-1,-.8,-1.5c0,-.4,0,-.8,.2,-1.3c.4,-1,1.4,-3.2,2.7,-3.2Z" class="g0_239"/>
<path d="M528,271.4c-.8,0,-1.3,-.7,-1.3,-1.4c0,-.6,.3,-1,.8,-1c-.1,-.3,-.4,-.4,-.7,-.4c-.2,0,-.3,0,-.5,.1c-.4,.1,-.7,.6,-.7,1.1c0,.3,.1,.5,.2,.7c.4,.7,1.2,1.1,2.2,1.1c.8,0,1.4,-.3,1.8,-.6c.4,-.4,.8,-.9,.8,-1.6c0,-.2,-.1,-.4,-.2,-.7c-.2,-.6,-.8,-1.1,-1.5,-1.3c.4,-.1,.8,-.4,1,-.7c.2,-.2,.4,-.6,.4,-1.1c0,-.3,0,-.5,-.1,-.7c-.4,-.7,-1.2,-1.1,-2.2,-1.1c-.6,0,-1.1,.2,-1.5,.4c-.3,.2,-.6,.5,-.6,1c0,.3,.1,.6,.3,.7c.2,.2,.4,.3,.7,.3c.2,0,.3,0,.5,-.1c.1,0,.2,-.1,.2,-.2c-.4,0,-.7,-.3,-.7,-.8c0,-.6,.5,-1.1,1.1,-1.1c.8,0,1.2,.7,1.2,1.6c0,.9,-.3,1.8,-1.1,1.8c-.2,-.1,-.4,-.2,-.6,-.2c-.2,0,-.5,.1,-.5,.3c0,.2,.3,.3,.5,.3c.3,0,.5,-.1,.7,-.2c.9,0,1.1,.8,1.1,1.8c0,1,-.4,2,-1.3,2Z" class="g0_239"/>
<path d="M522.2,280.5c-.5,0,-.9,.2,-1.3,.5c-.5,.3,-.9,.7,-1.3,1.1c-.6,.8,-1.2,2,-1.2,3.3c0,1,.3,1.7,1.3,1.7c1.3,0,1.8,-.9,2.2,-1.5c-.2,.9,-.1,1.5,.5,1.5c.4,0,.8,-.1,1.2,-.5c.3,-.3,.7,-.8,1,-1.3l-.1,-.2c-.3,.4,-1,1.4,-1.4,1.4c-.2,0,-.3,-.4,-.3,-.6c0,-.9,.7,-2.4,1,-3.4l.7,-1.9h-1l-.3,.7c-.1,-.5,-.4,-.8,-1,-.8Zm.1,.3c.7,0,.5,1.3,.4,1.9c0,.3,-.2,.6,-.3,1c-.3,1.1,-1.4,3.1,-2.2,3.1c-.6,0,-.8,-1,-.8,-1.5c0,-.4,0,-.8,.2,-1.3c.4,-1,1.4,-3.2,2.7,-3.2Z" class="g0_239"/>
<path d="M528.2,283.2l.1,4h-2.6c.9,-1.3,1.7,-2.7,2.5,-4Zm-2.7,3.9v.5h2.8v.4c0,.9,-.2,1.2,-.6,1.2v.2h2.1v-.2c-.5,0,-.6,-.5,-.6,-1.3v-.3h1.3c0,0,0,-.4,0,-.4c0,0,-1.3,0,-1.3,0v-5.5h-.3l-3.4,5.4Z" class="g0_239"/>
<path d="M522.2,298.4c-.5,0,-.9,.2,-1.3,.5c-.5,.3,-.9,.7,-1.3,1.1c-.6,.8,-1.2,2,-1.2,3.3c0,1,.3,1.7,1.3,1.7c1.3,0,1.8,-.9,2.2,-1.5c-.2,.9,-.1,1.5,.5,1.5c.4,0,.8,-.1,1.2,-.5c.3,-.3,.7,-.8,1,-1.3l-.1,-.2c-.3,.4,-1,1.4,-1.4,1.4c-.2,0,-.3,-.4,-.3,-.6c0,-.9,.7,-2.4,1,-3.4l.7,-1.9h-1l-.3,.7c-.1,-.5,-.4,-.8,-1,-.8Zm.1,.3c.7,0,.5,1.3,.4,1.9c0,.3,-.2,.6,-.3,1c-.3,1.1,-1.4,3.1,-2.2,3.1c-.6,0,-.8,-1,-.8,-1.5c0,-.4,0,-.8,.2,-1.3c.4,-1,1.4,-3.2,2.7,-3.2Z" class="g0_239"/>
<path d="M530.2,299.6h-.1c-.3,.1,-.7,.2,-1.3,.2c-.5,0,-.8,-.1,-1.1,-.2l-1.1,4.1c0,.2,-.1,.2,.1,.2c.1,0,.1,-.1,.2,-.2c.2,-.6,.6,-1,1.2,-1c.9,0,1.1,.7,1.1,1.7c0,.7,-.2,1.4,-.5,1.8c-.2,.4,-.6,1,-1.2,1c-.5,0,-.8,-.6,-.9,-1c-.1,-.4,-.1,-.7,-.5,-.7c-.3,0,-.5,.2,-.5,.5c0,.2,0,.4,.1,.6c.3,.5,1,.8,1.8,.8c.4,0,.8,-.1,1.1,-.3c1,-.4,1.8,-1.2,1.8,-2.5c0,-.3,-.1,-.6,-.2,-.9c-.3,-.7,-1,-1.3,-2,-1.3c-.4,0,-.8,.2,-1.1,.5v-.2l.6,-2c0,0,.6,.1,.9,.1c.8,0,1.4,-.5,1.6,-1.2Z" class="g0_239"/>
<path d="M522.2,316.3c-.5,0,-.9,.2,-1.3,.5c-.5,.3,-.9,.7,-1.3,1.1c-.6,.8,-1.2,2,-1.2,3.3c0,1,.3,1.7,1.3,1.7c1.3,0,1.8,-.9,2.2,-1.5c-.2,.9,-.1,1.5,.5,1.5c.4,0,.8,-.1,1.2,-.5c.3,-.3,.7,-.8,1,-1.3l-.1,-.2c-.3,.4,-1,1.4,-1.4,1.4c-.2,0,-.3,-.4,-.3,-.6c0,-.9,.7,-2.4,1,-3.4l.7,-1.9h-1l-.3,.7c-.1,-.5,-.4,-.8,-1,-.8Zm.1,.3c.7,0,.5,1.3,.4,1.9c0,.3,-.2,.6,-.3,1c-.3,1.1,-1.4,3.1,-2.2,3.1c-.6,0,-.8,-1,-.8,-1.5c0,-.4,0,-.8,.2,-1.3c.4,-1,1.4,-3.2,2.7,-3.2Z" class="g0_239"/>
<path d="M529.5,322.7c0,1.2,-.2,2.4,-1.3,2.4c-.9,0,-1.4,-1.3,-1.4,-2.9v-.5c.3,-.6,.7,-1.3,1.5,-1.3c1,0,1.2,1.2,1.2,2.3Zm.9,-4.1c0,-.5,-1,-1.1,-1.7,-1.1c-2.3,0,-3,2.1,-3,4.4c0,1.7,.7,3.4,2.5,3.4c1.5,0,2.4,-1.2,2.4,-2.7c0,-1.4,-.8,-2.4,-2.2,-2.4c-.7,0,-1.2,.4,-1.5,.9c0,-.8,-.1,-1.7,.2,-2.2c.3,-.5,.7,-1.2,1.4,-1.2c1.2,0,.8,1.3,1.5,1.3c.3,0,.4,-.1,.4,-.4Z" class="g0_239"/>
<path d="M522.2,334.2c-.5,0,-.9,.2,-1.3,.5c-.5,.3,-.9,.7,-1.3,1.1c-.6,.8,-1.2,2,-1.2,3.3c0,1,.3,1.7,1.3,1.7c1.3,0,1.8,-.9,2.2,-1.5c-.2,.9,-.1,1.5,.5,1.5c.4,0,.8,-.1,1.2,-.5c.3,-.3,.7,-.8,1,-1.3l-.1,-.2c-.3,.4,-1,1.4,-1.4,1.4c-.2,0,-.3,-.4,-.3,-.6c0,-.9,.7,-2.4,1,-3.4l.7,-1.9h-1l-.3,.7c-.1,-.5,-.4,-.8,-1,-.8Zm.1,.3c.7,0,.5,1.3,.4,1.9c0,.3,-.2,.6,-.3,1c-.3,1.1,-1.4,3.1,-2.2,3.1c-.6,0,-.8,-1,-.8,-1.5c0,-.4,0,-.8,.2,-1.3c.4,-1,1.4,-3.2,2.7,-3.2Z" class="g0_239"/>
<path d="M527.1,343.7c.3,0,.5,-.1,.6,-.3c.4,-.5,.7,-1.5,1,-2.2l.6,-1.7c.5,-1.1,.9,-2.2,1.4,-3.3v-.1h-3.2c-.4,0,-.8,0,-.9,-.3c0,-.1,0,-.3,.1,-.3h-.3l-.6,2.7h.2l.1,-.4c.2,-.4,.5,-.7,1,-.7c.1,-.1,.4,-.1,.6,-.1h2.4l-1.5,2.6c-.3,.5,-.5,1,-.8,1.3c-.2,.4,-.3,.7,-.4,1c-.2,.3,-.4,.6,-.5,1c0,.1,-.1,.2,-.1,.2q0,.1,0,.2c0,.2,.1,.4,.3,.4Z" class="g0_239"/>
<path d="M532.4,203.9c0,.1,.1,.2,.1,.3c3.2,5.4,4,19.2,4,20.4v.6h1.4v-.6c0,-1.6,-.5,-15.5,-5.3,-20.8c0,0,-.1,0,-.1,0c0,0,-.1,0,-.1,.1Z" class="g0_239"/>
<path d="M536.5,234.5h1.4v-9.6h-1.4Z" class="g0_239"/>
<path d="M536.5,243.5h1.4v-9.6h-1.4Z" class="g0_239"/>
<path d="M536.5,252.4h1.4v-9.6h-1.4Z" class="g0_239"/>
<path d="M536.5,261.4h1.4v-9.6h-1.4Z" class="g0_239"/>
<path d="M536.5,270.3h1.4v-9.6h-1.4Z" class="g0_239"/>
<path d="M536.5,279.3h1.4v-9.6h-1.4Z" class="g0_239"/>
<path d="M536.5,288.2h1.4v-9.6h-1.4Z" class="g0_239"/>
<path d="M536.5,297.2h1.4v-9.6h-1.4Z" class="g0_239"/>
<path d="M536.5,306.1h1.4v-9.6h-1.4Z" class="g0_239"/>
<path d="M536.5,315.1h1.4v-9.6h-1.4Z" class="g0_239"/>
<path d="M536.5,324h1.4v-9.6h-1.4Z" class="g0_239"/>
<path d="M532.4,345.1c0,.1,.1,.1,.1,.1c0,0,.1,0,.1,0c4.8,-5.3,5.3,-19.2,5.3,-20.8v-.6h-1.4v.6c0,1.3,-.8,15,-4,20.4c0,.1,-.1,.2,-.1,.3Z" class="g0_239"/>
<path d="M543.4,276.4H551v-.8h-7.6Zm0,-3H551v-.8h-7.6Z" class="g0_239"/>
<path d="M562,203.9q0,-.1,-.1,-.1c-4.8,5.3,-5.4,19.2,-5.4,20.8v.6h1.4v-.6c0,-1.2,.8,-15,4,-20.4c.1,-.1,.1,-.2,.1,-.3Z" class="g0_239"/>
<path d="M556.5,234.5h1.4v-9.6h-1.4Z" class="g0_239"/>
<path d="M556.5,243.5h1.4v-9.6h-1.4Z" class="g0_239"/>
<path d="M556.5,252.4h1.4v-9.6h-1.4Z" class="g0_239"/>
<path d="M556.5,261.4h1.4v-9.6h-1.4Z" class="g0_239"/>
<path d="M556.5,270.3h1.4v-9.6h-1.4Z" class="g0_239"/>
<path d="M556.5,279.3h1.4v-9.6h-1.4Z" class="g0_239"/>
<path d="M556.5,288.2h1.4v-9.6h-1.4Z" class="g0_239"/>
<path d="M556.5,297.2h1.4v-9.6h-1.4Z" class="g0_239"/>
<path d="M556.5,306.1h1.4v-9.6h-1.4Z" class="g0_239"/>
<path d="M556.5,315.1h1.4v-9.6h-1.4Z" class="g0_239"/>
<path d="M556.5,324h1.4v-9.6h-1.4Z" class="g0_239"/>
<path d="M562,345.1c0,-.1,0,-.2,-.1,-.3c-3.2,-5.4,-4,-19.1,-4,-20.4v-.6h-1.4v.6c0,1.6,.6,15.5,5.4,20.8q.1,0,.1,-.1Z" class="g0_239"/>
<path d="M571.4,215.3c-1.9,0,-1.9,-2.8,-1.9,-4.9c0,-2.2,0,-5.2,1.9,-5.2c1.9,0,1.9,3,1.9,5.2c0,2.1,0,4.9,-1.9,4.9Zm0,-10.4c-2.6,0,-3.4,2.7,-3.4,5.4c0,2.6,.9,5.2,3.4,5.2c2.6,0,3.4,-2.5,3.4,-5.2c0,-2.7,-.8,-5.4,-3.4,-5.4Z" class="g0_239"/>
<path d="M569.2,223.6v.2c.5,0,1.1,.1,1.3,.2c.5,.2,.4,.4,.5,1v6.5c0,.3,0,.6,-.1,.8c-.1,.7,-.9,.8,-1.6,.8v.2H574v-.2c-.5,0,-1.3,-.1,-1.5,-.3c-.2,-.3,-.2,-.8,-.2,-1.4v-8.6c-.8,.4,-2.1,.8,-3.1,.8Z" class="g0_239"/>
<path d="M571.4,251.1c-1.9,0,-1.9,-2.8,-1.9,-4.9c0,-2.2,0,-5.2,1.9,-5.2c1.9,0,1.9,3,1.9,5.2c0,2.1,0,4.9,-1.9,4.9Zm0,-10.4c-2.6,0,-3.4,2.7,-3.4,5.4c0,2.6,.9,5.2,3.4,5.2c2.6,0,3.4,-2.5,3.4,-5.2c0,-2.7,-.8,-5.4,-3.4,-5.4Z" class="g0_239"/>
<path d="M563.4,265.7H571v-.8h-7.6Z" class="g0_239"/>
<path d="M574,259.4v.2c.4,0,1.1,.1,1.3,.2c.4,.2,.4,.4,.4,1v6.5c0,.3,0,.6,0,.8c-.1,.7,-.9,.8,-1.7,.8v.2h4.7v-.2c-.5,0,-1.2,-.1,-1.4,-.3c-.3,-.3,-.3,-.8,-.3,-1.4v-8.6c-.8,.4,-2.1,.8,-3,.8Z" class="g0_239"/>
<path d="M571.4,286.9c-1.9,0,-1.9,-2.8,-1.9,-4.9c0,-2.2,0,-5.2,1.9,-5.2c1.9,0,1.9,3,1.9,5.2c0,2.1,0,4.9,-1.9,4.9Zm0,-10.4c-2.6,0,-3.4,2.7,-3.4,5.4c0,2.6,.9,5.2,3.4,5.2c2.6,0,3.4,-2.5,3.4,-5.2c0,-2.7,-.8,-5.4,-3.4,-5.4Z" class="g0_239"/>
<path d="M569.2,295.2v.2c.5,0,1.1,.1,1.3,.2c.5,.2,.4,.4,.5,1v6.5c0,.3,0,.6,-.1,.8c-.1,.7,-.9,.8,-1.6,.8v.2H574v-.2c-.5,0,-1.3,-.1,-1.5,-.3c-.2,-.3,-.2,-.8,-.2,-1.4v-8.6c-.8,.4,-2.1,.8,-3.1,.8Z" class="g0_239"/>
<path d="M571.4,322.7c-1.9,0,-1.9,-2.7,-1.9,-4.9c0,-2.2,0,-5.2,1.9,-5.2c1.9,0,1.9,3,1.9,5.2c0,2.2,0,4.9,-1.9,4.9Zm0,-10.4c-2.6,0,-3.4,2.7,-3.4,5.4c0,2.6,.9,5.2,3.4,5.2c2.6,0,3.4,-2.5,3.4,-5.2c0,-2.7,-.8,-5.4,-3.4,-5.4Z" class="g0_239"/>
<path d="M563.4,337.3H571v-.8h-7.6Z" class="g0_239"/>
<path d="M574,331v.2c.4,0,1.1,.1,1.3,.2c.4,.2,.4,.4,.4,1v6.5c0,.3,0,.6,0,.8c-.1,.7,-.9,.8,-1.7,.8v.2h4.7v-.2c-.5,0,-1.2,-.1,-1.4,-.3c-.3,-.3,-.3,-.8,-.3,-1.4v-8.6c-.8,.4,-2.1,.8,-3,.8Z" class="g0_239"/>
<path d="M580.8,203.9c0,.1,0,.2,.1,.3c3.2,5.4,4,19.2,4,20.4v.6h1.4v-.6c0,-1.6,-.6,-15.5,-5.3,-20.8c0,0,-.1,0,-.1,0q-.1,0,-.1,.1Z" class="g0_239"/>
<path d="M584.9,234.5h1.4v-9.6h-1.4Z" class="g0_239"/>
<path d="M584.9,243.5h1.4v-9.6h-1.4Z" class="g0_239"/>
<path d="M584.9,252.4h1.4v-9.6h-1.4Z" class="g0_239"/>
<path d="M584.9,261.4h1.4v-9.6h-1.4Z" class="g0_239"/>
<path d="M584.9,270.3h1.4v-9.6h-1.4Z" class="g0_239"/>
<path d="M584.9,279.3h1.4v-9.6h-1.4Z" class="g0_239"/>
<path d="M584.9,288.2h1.4v-9.6h-1.4Z" class="g0_239"/>
<path d="M584.9,297.2h1.4v-9.6h-1.4Z" class="g0_239"/>
<path d="M584.9,306.1h1.4v-9.6h-1.4Z" class="g0_239"/>
<path d="M584.9,315.1h1.4v-9.6h-1.4Z" class="g0_239"/>
<path d="M584.9,324h1.4v-9.6h-1.4Z" class="g0_239"/>
<path d="M580.8,345.1q0,.1,.1,.1c0,0,.1,0,.1,0c4.7,-5.3,5.3,-19.2,5.3,-20.8v-.6h-1.4v.6c0,1.3,-.8,15,-4,20.4c-.1,.1,-.1,.2,-.1,.3Z" class="g0_239"/>
<path d="M366.1,431.6L367,428c.2,-.5,.3,-1.1,.8,-1.3c.1,0,.2,0,.4,0c1.4,0,2.1,.8,2.1,1.9c0,.4,-.1,.8,-.2,1.1c-.6,.9,-1.8,1.9,-3.3,1.9h-.7Zm-.7,2.3l.6,-2h1c2,0,3.7,-.7,4.5,-1.9c.2,-.4,.3,-.8,.3,-1.3c0,-.7,-.3,-1.3,-.9,-1.7c-.7,-.4,-1.6,-.6,-2.7,-.6h-3.8v.2c.2,0,.5,0,.6,.1c.5,0,.7,.5,.7,1c0,.2,-.1,.5,-.2,1l-1.6,5.9c-.1,.5,-.4,1.2,-.6,1.5c-.3,.2,-.7,.4,-1.1,.4l-.1,.2h4.4l.1,-.2c-1,0,-1.5,-.5,-1.5,-1.1c0,-.1,.1,-.4,.2,-.6c0,-.3,.1,-.5,.1,-.9Z" class="g0_239"/>
<path d="M377.9,426.1c-2.2,1.4,-3.7,3.8,-3.7,6.8c0,2.8,1.6,5.6,3.6,6.8l.2,-.2c-1.9,-1.6,-2.5,-3.4,-2.5,-6.6c0,-3.3,.6,-5,2.5,-6.6l-.1,-.2Z" class="g0_239"/>
<path d="M386.3,431.2c0,-.5,-.5,-1,-1,-1c-.3,0,-.7,.2,-1,.4c-.3,.2,-.6,.5,-.8,.9c0,-.7,-.5,-1.3,-1.1,-1.3c-1.1,0,-2.1,1.2,-2.4,2l.2,.1c.3,-.5,1.1,-1.7,2,-1.7c.2,0,.3,.6,.3,1c0,.3,0,.7,-.2,1.2l-.3,1.1c-.2,.6,-.4,1.4,-.7,1.8c-.2,.3,-.5,.7,-.8,.7c-.4,0,-.8,-.1,-.6,-.5c0,-.3,0,-.8,-.4,-.8c-.5,0,-.7,.4,-.7,.8c0,.6,.5,.9,1.1,.9c1,0,1.7,-.7,2.1,-1.4c.1,.8,.5,1.4,1.4,1.4c1.1,0,2,-1.1,2.4,-1.8l-.2,-.2c-.5,.7,-1.1,1.7,-1.9,1.7c-.5,0,-.7,-.6,-.7,-1.2c0,-.4,.1,-.8,.2,-1.4l.2,-.7c.1,-.6,.3,-1.2,.6,-1.6c.2,-.3,.6,-1,.9,-1c.5,0,.4,.3,.4,.7c0,.4,.1,.5,.5,.5c.3,0,.5,-.2,.5,-.6Z" class="g0_239"/>
<path d="M387.6,426.1l-.2,.2c1.9,1.6,2.5,3.3,2.5,6.6c0,3.2,-.5,5,-2.5,6.6l.2,.2c2,-1.2,3.6,-4,3.6,-6.8c0,-3,-1.5,-5.4,-3.6,-6.8Z" class="g0_239"/>
<path d="M397.4,434.8H405V434h-7.6Zm0,-3H405V431h-7.6Z" class="g0_239"/>
<path d="M417,431.2c0,-.5,-.4,-1,-1,-1c-.3,0,-.6,.2,-.9,.4c-.3,.2,-.7,.5,-.9,.9c0,-.7,-.4,-1.3,-1,-1.3c-1.2,0,-2.1,1.2,-2.5,2l.2,.1c.4,-.5,1.1,-1.7,2,-1.7c.3,0,.4,.6,.4,1c0,.3,-.1,.7,-.2,1.2l-.4,1.1c-.1,.6,-.4,1.4,-.7,1.8c-.1,.3,-.4,.7,-.8,.7c-.4,0,-.7,-.1,-.6,-.5c.1,-.3,0,-.8,-.4,-.8c-.4,0,-.6,.4,-.6,.8c0,.6,.5,.9,1,.9c1,0,1.8,-.7,2.2,-1.4c.1,.8,.5,1.4,1.3,1.4c1.2,0,2,-1.1,2.5,-1.8l-.2,-.2c-.5,.7,-1.2,1.7,-2,1.7c-.4,0,-.6,-.6,-.6,-1.2c0,-.4,0,-.8,.1,-1.4l.2,-.7c.1,-.6,.4,-1.2,.7,-1.6c.1,-.3,.5,-1,.9,-1c.4,0,.4,.3,.3,.7c0,.4,.2,.5,.5,.5c.4,0,.5,-.2,.5,-.6Z" class="g0_239"/>
<path d="M422,433.3h7.6v-.8H422Z" class="g0_239"/>
<path d="M442.8,421.1c0,-.5,-.4,-1,-1,-1c-.3,0,-.6,.2,-.9,.4c-.3,.2,-.6,.5,-.9,.9c0,-.7,-.4,-1.3,-1,-1.3c-1.1,0,-2.1,1.2,-2.4,2l.2,.1c.3,-.5,1,-1.7,1.9,-1.7c.3,0,.4,.6,.4,1c0,.3,0,.7,-.2,1.2l-.3,1.1c-.2,.6,-.4,1.4,-.7,1.8c-.2,.3,-.5,.7,-.8,.7c-.5,0,-.8,-.1,-.7,-.5c.1,-.3,.1,-.7,-.4,-.7c-.4,0,-.6,.3,-.6,.7c0,.6,.5,.9,1.1,.9c1,0,1.7,-.7,2.1,-1.4c.1,.8,.5,1.4,1.4,1.4c1.1,0,2,-1.1,2.4,-1.8l-.2,-.2c-.5,.7,-1.2,1.7,-2,1.7c-.4,0,-.6,-.6,-.6,-1.2c0,-.4,0,-.8,.2,-1.4l.2,-.7c.1,-.6,.3,-1.2,.6,-1.6c.2,-.3,.5,-1,.9,-1c.4,0,.4,.3,.4,.7c-.1,.4,.1,.5,.4,.5c.4,0,.5,-.2,.5,-.6Z" class="g0_239"/>
<path d="M446.4,421.1c-.7,0,-1.3,-.7,-1.3,-1.4c0,-.5,.4,-.9,.9,-.9c-.1,-.3,-.4,-.5,-.8,-.5c-.1,0,-.3,.1,-.4,.1c-.4,.2,-.7,.6,-.7,1.2c0,.2,0,.4,.2,.7c.3,.6,1.1,1,2.1,1c.8,0,1.4,-.2,1.9,-.6c.4,-.3,.7,-.8,.7,-1.5c0,-.3,0,-.5,-.1,-.7c-.3,-.7,-.8,-1.1,-1.6,-1.3v-.1c.5,-.1,.8,-.3,1.1,-.6c.2,-.3,.4,-.7,.4,-1.2c0,-.2,-.1,-.5,-.2,-.7c-.3,-.7,-1.1,-1,-2.1,-1c-.6,0,-1.2,.1,-1.6,.3c-.3,.3,-.5,.6,-.5,1.1c0,.3,.1,.5,.3,.7c.1,.2,.4,.3,.7,.3c.1,0,.3,0,.4,-.1c.2,-.1,.2,-.2,.2,-.3c-.4,0,-.7,-.3,-.7,-.7c0,-.6,.5,-1.1,1.2,-1.1c.7,0,1.1,.7,1.1,1.6c0,.9,-.2,1.7,-1,1.7c-.2,0,-.4,-.1,-.6,-.1c-.3,0,-.6,.1,-.6,.2c0,.3,.4,.4,.6,.4c.2,0,.5,-.2,.6,-.2c.9,0,1.2,.8,1.2,1.7c0,1,-.4,2,-1.4,2Z" class="g0_239"/>
<path d="M435.6,433.3h14.8v-.8H435.6Z" class="g0_239"/>
<path d="M440.7,446.8c-1,0,-1.8,-.9,-1.8,-1.9c0,-.7,.5,-1.3,1.2,-1.3c-.1,-.4,-.6,-.6,-1.1,-.6c-.2,0,-.4,.1,-.6,.2c-.5,.2,-.9,.8,-.9,1.5c0,.4,.1,.7,.2,1c.5,.9,1.6,1.4,3,1.4c1.1,0,1.9,-.4,2.5,-.8c.6,-.5,1.1,-1.2,1.1,-2.1c0,-.4,-.1,-.7,-.2,-1c-.4,-.9,-1.2,-1.5,-2.2,-1.8c.6,-.2,1.1,-.5,1.4,-.9c.4,-.4,.6,-1,.6,-1.6c0,-.4,0,-.7,-.2,-1c-.4,-.9,-1.6,-1.4,-3,-1.4c-.8,0,-1.5,.2,-2,.5c-.5,.3,-.8,.7,-.8,1.4c0,.4,.1,.8,.4,1c.2,.2,.5,.4,.9,.4c.3,0,.5,0,.7,-.1c.1,-.1,.2,-.2,.3,-.4c-.6,0,-1,-.4,-1,-1c0,-.8,.7,-1.5,1.5,-1.5c1.1,0,1.6,.9,1.6,2.1c0,1.3,-.3,2.5,-1.4,2.5c-.3,-.1,-.6,-.2,-.8,-.2c-.3,0,-.8,.1,-.8,.3c0,.3,.5,.5,.8,.5c.3,0,.7,-.2,.9,-.3c1.2,0,1.6,1.1,1.6,2.4c0,1.4,-.6,2.7,-1.9,2.7Z" class="g0_239"/>
<path d="M447.2,436.5c-.5,0,-.9,.4,-.9,.9c0,.1,0,.2,0,.3c0,.1,0,.2,.1,.4c0,.1,0,.2,0,.4c.2,1.2,.5,2.4,.5,3.8c0,.5,0,1.2,0,1.9h.6c0,-2,.1,-3.5,.4,-5c.1,-.4,.1,-.8,.2,-1.1c0,-.1,0,-.3,0,-.4v-.3c0,-.5,-.4,-.9,-.9,-.9Zm0,10.6c.5,0,.9,-.4,.9,-.9c0,-.5,-.4,-.9,-.9,-.9c-.5,0,-.9,.4,-.9,.9c0,.5,.4,.9,.9,.9Z" class="g0_239"/>
<path d="M459.2,432.5H456v1h3.2v3.2h1v-3.2h3.2v-1h-3.2v-3.3h-1v3.3Z" class="g0_239"/>
<path d="M476.2,421.1c0,-.5,-.4,-1,-1,-1c-.3,0,-.6,.2,-.9,.4c-.3,.2,-.6,.5,-.9,.9c0,-.7,-.4,-1.3,-1,-1.3c-1.2,0,-2.1,1.2,-2.5,2l.2,.1c.4,-.5,1.1,-1.7,2,-1.7c.3,0,.4,.6,.4,1c0,.3,0,.7,-.2,1.2l-.3,1.1c-.2,.6,-.4,1.4,-.8,1.8c-.1,.3,-.4,.7,-.7,.7c-.5,0,-.8,-.1,-.7,-.5c.1,-.3,.1,-.7,-.4,-.7c-.4,0,-.6,.3,-.6,.7c0,.6,.5,.9,1.1,.9c1,0,1.7,-.7,2.1,-1.4c.1,.8,.5,1.4,1.3,1.4c1.2,0,2.1,-1.1,2.5,-1.8l-.2,-.2c-.5,.7,-1.2,1.7,-2,1.7c-.4,0,-.6,-.6,-.6,-1.2c0,-.4,0,-.8,.2,-1.4l.1,-.7c.1,-.6,.4,-1.2,.7,-1.6c.1,-.3,.5,-1,.9,-1c.4,0,.4,.3,.4,.7c-.1,.4,.1,.5,.4,.5c.4,0,.5,-.2,.5,-.6Z" class="g0_239"/>
<path d="M482,413.6h-.1c-.2,.1,-.7,.1,-1.3,.1c-.4,0,-.8,0,-1.1,-.1l-1.1,4c0,0,0,.1,0,.1c0,.1,0,.2,.1,.2c.2,0,.2,-.1,.2,-.3c.2,-.5,.6,-1,1.3,-1c.8,0,1,.8,1,1.7c0,.8,-.2,1.4,-.4,1.9c-.3,.4,-.7,.9,-1.2,.9c-.6,0,-.8,-.5,-.9,-1c-.1,-.3,-.2,-.7,-.6,-.7c-.3,0,-.5,.2,-.5,.6c0,.1,.1,.3,.2,.5c.3,.5,.9,.8,1.7,.8c.4,0,.8,-.1,1.2,-.2c.9,-.4,1.7,-1.2,1.7,-2.6c0,-.3,-.1,-.6,-.2,-.9c-.3,-.7,-1,-1.2,-2,-1.2c-.3,0,-.8,.2,-1.1,.5l.1,-.2l.5,-2.1c0,0,.6,.1,1,.1c.7,0,1.4,-.4,1.5,-1.1Z" class="g0_239"/>
<path d="M469,433.3h14.8v-.8H469Z" class="g0_239"/>
<path d="M477.1,436.5H477c-.4,.2,-1,.2,-1.8,.2c-.7,0,-1.1,0,-1.6,-.2l-1.4,5.5q0,.1,0,.1c0,.2,-.1,.3,.1,.3c.2,0,.2,-.1,.3,-.4c.3,-.7,.8,-1.3,1.7,-1.3c1.2,0,1.4,1,1.4,2.3c0,1,-.2,1.9,-.6,2.5c-.3,.6,-.8,1.3,-1.6,1.3c-.8,0,-1.1,-.7,-1.3,-1.3c-.1,-.5,-.1,-1,-.7,-1c-.5,0,-.7,.3,-.7,.7c0,.3,.1,.6,.2,.8c.4,.7,1.3,1.1,2.4,1.1c.6,0,1.1,-.1,1.6,-.3c1.3,-.6,2.3,-1.7,2.3,-3.5c0,-.5,0,-.9,-.2,-1.2c-.4,-1,-1.4,-1.8,-2.7,-1.8c-.5,0,-1.2,.3,-1.5,.7v-.3l.8,-2.8c0,0,.8,.2,1.3,.2c1,0,1.9,-.6,2.1,-1.6Z" class="g0_239"/>
<path d="M480.6,436.5c-.5,0,-.9,.4,-.9,.9c0,.1,0,.2,0,.3c0,.1,0,.2,.1,.4c0,.1,0,.2,0,.4c.2,1.2,.4,2.4,.4,3.8c.1,.5,.1,1.2,.1,1.9h.6c0,-2,0,-3.5,.4,-5c0,-.4,.1,-.8,.1,-1.1c0,-.1,.1,-.3,.1,-.4v-.3c0,-.5,-.4,-.9,-.9,-.9Zm0,10.6c.5,0,.9,-.4,.9,-.9c0,-.5,-.4,-.9,-.9,-.9c-.5,0,-.9,.4,-.9,.9c0,.5,.4,.9,.9,.9Z" class="g0_239"/>
<path d="M489.8,433.3h7.6v-.8h-7.6Z" class="g0_239"/>
<path d="M510.7,421.1c0,-.5,-.5,-1,-1,-1c-.3,0,-.6,.2,-1,.4c-.3,.2,-.6,.5,-.8,.9c0,-.7,-.4,-1.3,-1.1,-1.3c-1.1,0,-2.1,1.2,-2.4,2l.2,.1c.4,-.5,1.1,-1.7,2,-1.7c.3,0,.4,.6,.4,1c0,.3,-.1,.7,-.2,1.2l-.4,1.1c-.1,.6,-.4,1.4,-.7,1.8c-.2,.3,-.4,.7,-.8,.7c-.4,0,-.7,-.1,-.6,-.5c.1,-.3,0,-.7,-.4,-.7c-.5,0,-.6,.3,-.6,.7c0,.6,.4,.9,1,.9c1,0,1.8,-.7,2.1,-1.4h.1c.1,.8,.5,1.4,1.3,1.4c1.2,0,2,-1.1,2.5,-1.8l-.2,-.2c-.5,.7,-1.2,1.7,-2,1.7c-.4,0,-.7,-.6,-.7,-1.2c0,-.4,.1,-.8,.2,-1.4l.2,-.7c.1,-.6,.4,-1.2,.6,-1.6c.2,-.3,.6,-1,1,-1c.4,0,.4,.3,.3,.7c0,.4,.2,.5,.5,.5c.4,0,.5,-.2,.5,-.6Z" class="g0_239"/>
<path d="M513.4,421.3c.2,0,.5,-.1,.6,-.3c.4,-.5,.7,-1.5,1,-2.2l.6,-1.7c.5,-1.1,.9,-2.2,1.4,-3.3v-.1h-3.2c-.4,0,-.8,0,-.9,-.3c0,-.1,0,-.2,.1,-.3h-.3l-.6,2.7h.2l.1,-.4c.2,-.4,.5,-.7,1,-.7c.1,-.1,.4,-.1,.6,-.1h2.4l-1.5,2.6c-.3,.5,-.5,1,-.8,1.3c-.2,.4,-.3,.7,-.5,1c-.1,.4,-.3,.7,-.4,1c-.1,.1,-.1,.2,-.1,.2c0,.1,0,.2,0,.2c0,.2,.1,.4,.3,.4Z" class="g0_239"/>
<path d="M503.5,433.3h14.7v-.8H503.5Z" class="g0_239"/>
<path d="M507.4,447.1c.3,0,.6,-.1,.8,-.4c.5,-.7,1,-2.1,1.3,-3l.9,-2.4c.6,-1.5,1.2,-2.9,1.9,-4.5v-.1h-4.4c-.5,0,-1.1,0,-1.2,-.4c0,-.2,0,-.3,0,-.4h-.3l-.9,3.7h.3l.2,-.5c.2,-.6,.6,-1,1.3,-1.1c.2,0,.5,0,.9,0h3.3l-2.1,3.5c-.4,.7,-.7,1.3,-1,1.8c-.3,.5,-.5,1,-.7,1.3c-.3,.5,-.5,.9,-.7,1.4c0,.1,0,.3,0,.3c-.1,.1,-.1,.2,-.1,.3c0,.2,.2,.5,.5,.5Z" class="g0_239"/>
<path d="M515,436.5c-.5,0,-.8,.4,-.8,.9c0,.2,0,.3,0,.4c0,.1,0,.2,0,.3c0,.1,0,.3,.1,.4c.2,1.3,.4,2.4,.4,3.9c0,.5,0,1.1,0,1.8h.7c0,-1.9,0,-3.5,.3,-5c.1,-.4,.1,-.7,.2,-1.1c0,-.1,0,-.3,0,-.3v-.4c0,-.5,-.3,-.9,-.9,-.9Zm0,10.6c.5,0,.9,-.4,.9,-.9c0,-.4,-.4,-.8,-.9,-.8c-.4,0,-.8,.4,-.8,.8c0,.5,.4,.9,.8,.9Z" class="g0_239"/>
<path d="M343.3,527.4c.8,0,1.2,.9,1.5,1.6h.2v-1.7h-.2l-.3,.2c-.2,-.1,-.4,-.2,-.6,-.3c-.2,0,-.4,0,-.7,0c-.5,0,-.9,.2,-1.2,.5c-.3,.3,-.6,.7,-.6,1.3c0,.8,.5,1.1,1,1.5c.5,.4,2.1,1.1,2.1,1.8c0,.6,-.3,1.2,-1.1,1.2c-.9,0,-1.5,-.8,-1.8,-1.9h-.2v2h.2l.3,-.4c.4,.4,1,.6,1.6,.6c.6,0,1.1,-.2,1.5,-.5c.4,-.4,.5,-.8,.5,-1.4c0,-.9,-1.1,-1.6,-1.9,-2.1c-.4,-.3,-1.2,-.6,-1.2,-1.3c0,-.5,.3,-1.1,.9,-1.1Z" class="g0_239"/>
<path d="M348.2,525.5c.4,0,.8,-.4,.8,-.8c0,-.4,-.4,-.7,-.8,-.7c-.4,0,-.7,.3,-.7,.7c0,.4,.3,.8,.7,.8Zm.6,6.5v-4.8l-2.3,.4v.2c.4,0,.6,.2,.8,.3c.3,.3,.4,.6,.4,2.2v1.8c0,.2,0,.5,-.1,.7c-.1,.5,-.4,.6,-1.1,.7v.1H350v-.1c-.3,-.1,-.5,-.1,-.6,-.1c-.5,-.2,-.6,-.7,-.6,-1.4Z" class="g0_239"/>
<path d="M352.7,528.4v0l-.2,-1.2l-1.9,.4v.2c.2,0,.5,.1,.7,.3c.3,.3,.3,.4,.3,1.9v2.1c0,.3,0,.5,0,.7c0,.6,-.4,.6,-1,.7v.1h3.2v-.1c-.2,-.1,-.4,-.1,-.6,-.1c-.5,-.2,-.4,-.7,-.4,-1.4v-2.1c0,-.5,0,-.9,.2,-1.3c.3,-.5,1,-1.1,1.8,-1.1c1.3,0,1.3,1.4,1.3,2.7v1.9c0,.3,0,.5,-.1,.7c0,.6,-.3,.6,-.9,.7v.1h3.1v-.1c-.2,-.1,-.4,-.1,-.5,-.1c-.6,-.2,-.5,-.7,-.5,-1.4v-2.2c0,-.9,0,-1.5,-.4,-2c-.3,-.4,-.9,-.6,-1.7,-.6c-1.1,0,-1.8,.5,-2.4,1.2Z" class="g0_239"/>
<path d="M363.6,523c-2.2,1.4,-3.7,3.8,-3.7,6.8c0,2.8,1.6,5.6,3.7,6.8l.1,-.2c-1.9,-1.5,-2.5,-3.3,-2.5,-6.6c0,-3.3,.6,-5,2.5,-6.6l-.1,-.2Z" class="g0_239"/>
<path d="M372,528.1c0,-.5,-.5,-.9,-1,-.9c-.3,0,-.7,.1,-1,.3c-.3,.2,-.6,.5,-.8,.9c0,-.7,-.4,-1.2,-1.1,-1.2c-1.1,0,-2.1,1.1,-2.4,1.9l.2,.1c.4,-.5,1.1,-1.7,2,-1.7c.2,0,.4,.6,.4,1c0,.3,-.1,.7,-.2,1.2l-.4,1.1c-.2,.6,-.4,1.4,-.7,1.8c-.2,.3,-.4,.7,-.8,.7c-.4,0,-.7,-.1,-.6,-.5c.1,-.3,0,-.7,-.4,-.7c-.5,0,-.7,.3,-.7,.7c0,.6,.5,1,1.1,1c1,0,1.7,-.8,2.1,-1.5h.1c.1,.8,.5,1.5,1.3,1.5c1.2,0,2,-1.2,2.4,-1.9l-.1,-.2c-.5,.7,-1.2,1.7,-2,1.7c-.5,0,-.7,-.6,-.7,-1.2c0,-.4,.1,-.8,.2,-1.4l.2,-.7c.1,-.6,.3,-1.2,.6,-1.6c.2,-.3,.6,-.9,1,-.9c.4,0,.3,.3,.3,.6c0,.4,.1,.5,.5,.5c.3,0,.5,-.2,.5,-.6Z" class="g0_239"/>
<path d="M373.3,523l-.2,.2c1.9,1.6,2.6,3.3,2.6,6.6c0,3.3,-.6,5.1,-2.6,6.6l.2,.2c2.1,-1.2,3.6,-4,3.6,-6.8c0,-3,-1.5,-5.4,-3.6,-6.8Z" class="g0_239"/>
<path d="M391.2,530.3l-.3,-.2c-.3,.9,-.7,1.7,-1.7,1.7c-1.2,0,-2.1,-1.7,-3.5,-1.7c-1.3,0,-2,.8,-2.3,2l.3,.1c.3,-.8,.9,-1.3,1.7,-1.3c1.2,0,2.1,1.6,3.5,1.6c1.4,0,2.1,-.9,2.3,-2.2Zm0,-3l-.3,-.2c-.2,.9,-.7,1.6,-1.7,1.6c-1.1,0,-2.1,-1.6,-3.5,-1.6c-1.3,0,-1.9,.8,-2.3,2l.3,.1c.3,-.8,.9,-1.3,1.8,-1.3c1.1,0,2,1.6,3.4,1.6c1.4,0,2.1,-.9,2.3,-2.2Z" class="g0_239"/>
<path d="M403.4,528.1c0,-.5,-.5,-.9,-1,-.9c-.3,0,-.7,.1,-1,.3c-.3,.2,-.6,.5,-.8,.9c0,-.7,-.4,-1.2,-1.1,-1.2c-1.1,0,-2.1,1.1,-2.4,1.9l.2,.1c.4,-.5,1.1,-1.7,2,-1.7c.2,0,.4,.6,.4,1c0,.3,-.1,.7,-.2,1.2l-.4,1.1c-.1,.6,-.4,1.4,-.7,1.8c-.2,.3,-.4,.7,-.8,.7c-.4,0,-.7,-.1,-.6,-.5c.1,-.3,0,-.7,-.4,-.7c-.5,0,-.6,.3,-.6,.7c0,.6,.4,1,1,1c1,0,1.7,-.8,2.1,-1.5h.1c.1,.8,.5,1.5,1.3,1.5c1.2,0,2,-1.2,2.5,-1.9l-.2,-.2c-.5,.7,-1.2,1.7,-2,1.7c-.4,0,-.7,-.6,-.7,-1.2c0,-.4,.1,-.8,.2,-1.4l.2,-.7c.1,-.6,.4,-1.2,.6,-1.6c.2,-.3,.6,-.9,1,-.9c.4,0,.3,.3,.3,.6c0,.4,.1,.5,.5,.5c.3,0,.5,-.2,.5,-.6Z" class="g0_239"/>
<path d="M408.3,530.2H416v-.8h-7.7Z" class="g0_239"/>
<path d="M429.2,518c0,-.5,-.4,-.9,-1,-.9c-.3,0,-.6,.1,-.9,.3c-.3,.2,-.7,.5,-.9,.9c0,-.7,-.4,-1.2,-1,-1.2c-1.2,0,-2.1,1.1,-2.5,1.9l.2,.1c.4,-.5,1.1,-1.7,2,-1.7c.3,0,.4,.6,.4,1c0,.3,-.1,.7,-.2,1.2l-.4,1.1c-.1,.6,-.4,1.4,-.7,1.8c-.1,.3,-.4,.7,-.8,.7c-.4,0,-.7,-.1,-.6,-.5c.1,-.3,0,-.7,-.4,-.7c-.4,0,-.6,.3,-.6,.7c0,.6,.5,1,1,1c1,0,1.8,-.8,2.2,-1.5c.1,.8,.5,1.5,1.3,1.5c1.2,0,2,-1.2,2.5,-1.9l-.2,-.2c-.5,.7,-1.2,1.7,-2,1.7c-.4,0,-.6,-.6,-.6,-1.2c0,-.4,0,-.8,.1,-1.4l.2,-.7c.1,-.6,.4,-1.2,.7,-1.6c.1,-.3,.5,-.9,.9,-.9c.4,0,.4,.3,.3,.6c0,.4,.2,.5,.5,.5c.4,0,.5,-.2,.5,-.6Z" class="g0_239"/>
<path d="M432.8,518c-.7,0,-1.3,-.7,-1.3,-1.4c0,-.5,.3,-.9,.8,-.9c0,-.3,-.4,-.5,-.7,-.5c-.2,0,-.3,.1,-.5,.1c-.4,.2,-.6,.6,-.6,1.2c0,.2,0,.5,.1,.7c.4,.6,1.2,1,2.2,1c.8,0,1.4,-.2,1.9,-.6c.4,-.3,.7,-.8,.7,-1.5c0,-.3,-.1,-.5,-.1,-.7c-.3,-.7,-.9,-1.1,-1.6,-1.3V514c.4,-.1,.8,-.3,1,-.6c.3,-.3,.5,-.7,.5,-1.2c0,-.2,-.1,-.5,-.2,-.7c-.3,-.7,-1.1,-1,-2.2,-1c-.6,0,-1.1,.1,-1.5,.3c-.3,.3,-.6,.6,-.6,1.1c0,.3,.2,.5,.3,.7c.2,.2,.4,.3,.7,.3c.2,0,.4,0,.5,-.1c.1,-.1,.2,-.2,.2,-.3c-.4,0,-.7,-.3,-.7,-.7c0,-.6,.5,-1.1,1.1,-1.1c.8,0,1.2,.7,1.2,1.6c0,.9,-.3,1.7,-1.1,1.7c-.1,0,-.4,-.1,-.6,-.1c-.2,0,-.5,.1,-.5,.3c0,.2,.3,.3,.6,.3c.2,0,.5,-.1,.6,-.2c.9,0,1.2,.8,1.2,1.7c0,1,-.4,2,-1.4,2Z" class="g0_239"/>
<path d="M422,530.2h14.8v-.8H422Z" class="g0_239"/>
<path d="M427,543.7c-1,0,-1.7,-.9,-1.7,-1.9c0,-.7,.4,-1.3,1.1,-1.3c-.1,-.4,-.5,-.6,-1,-.6c-.2,0,-.4,.1,-.6,.2c-.6,.2,-.9,.8,-.9,1.5c0,.4,0,.7,.2,1c.5,.9,1.6,1.4,3,1.4c1.1,0,1.9,-.3,2.5,-.8c.6,-.5,1,-1.2,1,-2.1c0,-.4,0,-.7,-.2,-1c-.3,-.9,-1.1,-1.5,-2.1,-1.7v-.1c.6,-.2,1.1,-.5,1.4,-.9c.3,-.4,.6,-1,.6,-1.6c0,-.4,-.1,-.7,-.2,-1c-.5,-.9,-1.6,-1.4,-3,-1.4c-.8,0,-1.6,.2,-2.1,.5c-.4,.3,-.8,.7,-.8,1.4c0,.4,.2,.8,.4,1c.2,.2,.6,.4,1,.4c.2,0,.4,0,.6,-.1c.2,-.1,.3,-.2,.4,-.4c-.6,0,-1,-.4,-1,-1c0,-.8,.7,-1.5,1.5,-1.5c1.1,0,1.6,.9,1.6,2.2c0,1.2,-.3,2.4,-1.5,2.4c-.2,-.1,-.5,-.2,-.8,-.2c-.3,0,-.7,.1,-.7,.3c0,.4,.4,.5,.8,.5c.3,0,.6,-.2,.9,-.3c1.2,0,1.5,1.1,1.5,2.4c0,1.4,-.5,2.7,-1.9,2.7Z" class="g0_239"/>
<path d="M433.6,533.4c-.5,0,-.9,.4,-.9,.9c0,.1,0,.2,0,.3c0,.1,0,.2,0,.4c0,.1,.1,.2,.1,.4c.2,1.3,.4,2.4,.4,3.9c.1,.4,0,1.1,0,1.8h.7c0,-1.9,0,-3.5,.3,-5c.1,-.4,.1,-.8,.2,-1.1c0,-.1,0,-.3,0,-.4v-.3c0,-.5,-.3,-.9,-.8,-.9Zm0,10.6c.5,0,.9,-.4,.9,-.9c0,-.5,-.4,-.9,-.9,-.9c-.5,0,-.9,.4,-.9,.9c0,.5,.4,.9,.9,.9Z" class="g0_239"/>
<path d="M445.6,529.4h-3.3v1h3.3v3.2h1v-3.2h3.2v-1h-3.2v-3.3h-1v3.3Z" class="g0_239"/>
<path d="M462.6,518c0,-.5,-.4,-.9,-1,-.9c-.3,0,-.6,.1,-1,.3c-.3,.2,-.6,.5,-.8,.9c0,-.7,-.4,-1.2,-1.1,-1.2c-1.1,0,-2,1.1,-2.4,1.9l.2,.1c.4,-.5,1.1,-1.7,2,-1.7c.3,0,.4,.6,.4,1c0,.3,-.1,.7,-.2,1.2l-.4,1.1c-.1,.6,-.4,1.4,-.7,1.8c-.1,.3,-.4,.7,-.8,.7c-.4,0,-.7,-.1,-.6,-.5c.1,-.3,0,-.7,-.4,-.7c-.5,0,-.6,.3,-.6,.7c0,.6,.4,1,1,1c1,0,1.8,-.8,2.1,-1.5h.1c.1,.8,.5,1.5,1.3,1.5c1.2,0,2,-1.2,2.5,-1.9l-.2,-.2c-.5,.7,-1.2,1.7,-2,1.7c-.4,0,-.6,-.6,-.6,-1.2c0,-.4,0,-.8,.1,-1.4l.2,-.7c.1,-.6,.4,-1.2,.6,-1.6c.2,-.3,.6,-.9,1,-.9c.4,0,.4,.3,.3,.6c0,.4,.2,.5,.5,.5c.4,0,.5,-.2,.5,-.6Z" class="g0_239"/>
<path d="M468.4,510.5h-.1c-.2,.1,-.7,.2,-1.3,.2c-.5,0,-.8,-.1,-1.1,-.2l-1.1,4c0,0,0,.1,0,.1c0,.1,-.1,.2,.1,.2c.1,0,.1,-.1,.2,-.3c.2,-.5,.6,-1,1.2,-1c.9,0,1.1,.8,1.1,1.7c0,.8,-.2,1.4,-.5,1.9c-.2,.4,-.6,.9,-1.2,.9c-.5,0,-.8,-.5,-.9,-1c-.1,-.3,-.1,-.7,-.5,-.7c-.3,0,-.5,.2,-.5,.6c0,.2,0,.3,.1,.5c.4,.5,1,.8,1.8,.8c.4,0,.8,-.1,1.1,-.2c1,-.4,1.8,-1.2,1.8,-2.6c0,-.3,-.1,-.6,-.2,-.9c-.3,-.7,-1,-1.2,-2,-1.2c-.4,0,-.8,.2,-1.1,.5l.1,-.2l.5,-2.1c0,0,.6,.1,.9,.1c.8,0,1.4,-.4,1.6,-1.1Z" class="g0_239"/>
<path d="M455.4,530.2h14.8v-.8H455.4Z" class="g0_239"/>
<path d="M463.4,533.4v0c-.4,.2,-1,.2,-1.8,.2c-.7,0,-1.1,0,-1.6,-.2l-1.4,5.5q0,.1,0,.1c0,.2,-.1,.3,.1,.3c.2,0,.2,-.1,.3,-.4c.2,-.7,.8,-1.3,1.7,-1.3c1.1,0,1.4,1,1.4,2.3c0,1,-.2,1.9,-.6,2.5c-.4,.6,-.9,1.3,-1.7,1.3c-.7,0,-1.1,-.7,-1.2,-1.3c-.1,-.5,-.2,-1,-.8,-1c-.4,0,-.6,.3,-.6,.7c0,.3,0,.6,.2,.8c.4,.7,1.3,1.1,2.4,1.1c.5,0,1.1,-.1,1.6,-.3c1.2,-.6,2.3,-1.7,2.3,-3.5c0,-.5,0,-.9,-.2,-1.2c-.4,-1,-1.4,-1.8,-2.8,-1.8c-.5,0,-1.1,.3,-1.5,.7l.1,-.3l.7,-2.8c0,0,.8,.2,1.4,.2c1,0,1.9,-.6,2,-1.6Z" class="g0_239"/>
<path d="M467,533.4c-.6,0,-.9,.4,-.9,.9c0,.1,0,.2,0,.3c0,.1,0,.2,0,.4c0,.1,.1,.2,.1,.4c.2,1.3,.4,2.4,.4,3.9c0,.4,0,1.1,0,1.8h.7c0,-1.9,0,-3.5,.3,-5c.1,-.4,.1,-.8,.2,-1.1c0,-.1,0,-.3,0,-.4v-.3c0,-.5,-.3,-.9,-.8,-.9Zm0,10.6c.4,0,.8,-.4,.8,-.9c0,-.5,-.4,-.9,-.8,-.9c-.5,0,-.9,.4,-.9,.9c0,.5,.4,.9,.9,.9Z" class="g0_239"/>
<path d="M476.2,530.2h7.6v-.8h-7.6Z" class="g0_239"/>
<path d="M497.1,518c0,-.5,-.5,-.9,-1,-.9c-.3,0,-.7,.1,-1,.3c-.3,.2,-.6,.5,-.8,.9c0,-.7,-.5,-1.2,-1.1,-1.2c-1.1,0,-2.1,1.1,-2.4,1.9l.2,.1c.3,-.5,1.1,-1.7,2,-1.7c.2,0,.3,.6,.3,1c0,.3,0,.7,-.2,1.2l-.3,1.1c-.2,.6,-.4,1.4,-.7,1.8c-.2,.3,-.5,.7,-.8,.7c-.4,0,-.8,-.1,-.6,-.5c0,-.3,0,-.7,-.4,-.7c-.5,0,-.7,.3,-.7,.7c0,.6,.5,1,1.1,1c1,0,1.7,-.8,2.1,-1.5c.1,.8,.5,1.5,1.4,1.5c1.1,0,2,-1.2,2.4,-1.9l-.2,-.2c-.5,.7,-1.1,1.7,-1.9,1.7c-.5,0,-.7,-.6,-.7,-1.2c0,-.4,.1,-.8,.2,-1.4l.2,-.7c.1,-.6,.3,-1.2,.6,-1.6c.2,-.3,.6,-.9,.9,-.9c.5,0,.4,.3,.4,.6c0,.4,.1,.5,.5,.5c.3,0,.5,-.2,.5,-.6Z" class="g0_239"/>
<path d="M499.8,518.2c.2,0,.4,-.1,.6,-.3c.3,-.5,.7,-1.5,.9,-2.2L502,514c.4,-1.1,.9,-2.2,1.4,-3.3v-.1h-3.2c-.4,0,-.8,0,-.9,-.3c0,-.1,0,-.2,0,-.3h-.2l-.7,2.7h.2l.2,-.4c.1,-.4,.4,-.7,1,-.7c.1,0,.3,-.1,.6,-.1h2.4l-1.5,2.6c-.3,.6,-.6,1,-.8,1.3c-.2,.4,-.3,.7,-.5,1c-.2,.4,-.3,.7,-.4,1c-.1,.1,-.1,.2,-.1,.3c0,0,0,.1,0,.1c0,.2,.1,.4,.3,.4Z" class="g0_239"/>
<path d="M489.9,530.2h14.7v-.8H489.9Z" class="g0_239"/>
<path d="M493.7,544c.4,0,.7,-.1,.8,-.3c.5,-.8,1,-2.2,1.4,-3.1l.9,-2.4c.6,-1.5,1.2,-2.9,1.9,-4.5v-.1h-4.4c-.6,0,-1.1,0,-1.2,-.4c0,-.2,0,-.3,0,-.4h-.3l-.9,3.7h.2l.2,-.5c.3,-.6,.7,-1,1.4,-1.1c.2,0,.5,0,.8,0h3.4l-2.1,3.5c-.4,.8,-.8,1.3,-1.1,1.8c-.2,.5,-.4,1,-.6,1.3c-.3,.5,-.5,1,-.7,1.4c0,.1,-.1,.3,-.1,.4c0,0,0,.1,0,.2c0,.2,.2,.5,.4,.5Z" class="g0_239"/>
<path d="M501.4,533.4c-.5,0,-.9,.4,-.9,.9c0,.2,0,.3,.1,.4c0,.1,0,.2,0,.3c0,.1,0,.3,0,.4c.3,1.3,.5,2.4,.5,3.9c0,.5,0,1.1,0,1.8h.6c0,-1.9,.1,-3.5,.4,-5c.1,-.4,.1,-.7,.2,-1.1c0,-.1,0,-.2,0,-.3v-.4c0,-.5,-.4,-.9,-.9,-.9Zm0,10.6c.5,0,.9,-.4,.9,-.9c0,-.4,-.4,-.8,-.9,-.8c-.5,0,-.9,.4,-.9,.8c0,.5,.4,.9,.9,.9Z" class="g0_239"/>
<path d="M513.4,529.4h-3.2v1h3.2v3.2h1v-3.2h3.3v-1h-3.3v-3.3h-1v3.3Z" class="g0_239"/>
<path d="M523.8,533.8c.5,0,.9,-.4,.9,-.9c0,-.5,-.4,-.9,-.9,-.9c-.5,0,-.9,.4,-.9,.9c0,.4,.4,.9,.9,.9Z" class="g0_239"/>
<path d="M530.9,533.8c.5,0,.9,-.4,.9,-.9c0,-.5,-.4,-.9,-.9,-.9c-.5,0,-.9,.4,-.9,.9c0,.4,.4,.9,.9,.9Z" class="g0_239"/>
<path d="M538,533.8c.6,0,.9,-.4,.9,-.9c0,-.5,-.3,-.9,-.9,-.9c-.4,0,-.8,.4,-.8,.9c0,.4,.4,.9,.8,.9Z" class="g0_239"/>
</svg>