<?xml version="1.0" encoding="UTF-8" standalone="no"?>
<!DOCTYPE svg PUBLIC "-//W3C//DTD SVG 1.1//EN"
"http://www.w3.org/Graphics/SVG/1.1/DTD/svg11.dtd">
<svg viewBox="0 0 811 1017" version="1.1" xmlns="http://www.w3.org/2000/svg" xmlns:xlink="http://www.w3.org/1999/xlink">
<defs>
<style type="text/css"><![CDATA[
.g0_235{
fill: #70A6CC;
}
.g1_235{
fill: #000;
}
.g2_235{
fill: #0E0E0E;
}
]]></style>
</defs>
<path d="M156.1,178.6H724.4V157.4H156.1Z" class="g0_235"/>
<path d="M551.2,243.7h.4V202.2h-.4Z" class="g1_235"/>
<path d="M533.8,243.7v3.2l-.3,-.1l-6.3,-3l-.4,-.1l.4,-.2l6.3,-3l.3,-.1v.3l-.1,.2l-6.3,2.9l-.2,-.3h.2l6.3,2.9l-.2,.4l-.1,-.2v-2.9Z" class="g1_235"/>
<path d="M533.4,243.7h.4v-3h-.4Z" class="g1_235"/>
<path d="M533.6,243.8h.2v-.3h-.2Z" class="g1_235"/>
<path d="M533.8,243.8h17.8v-.3H533.8Z" class="g1_235"/>
<path d="M592.3,302.8h.3V274.2h-.3Z" class="g1_235"/>
<path d="M571.1,274.2v3.2l-.3,-.1l-6.2,-2.9l-.4,-.2l.4,-.2l6.2,-2.9l.3,-.1v.2l-.1,.2l-6.2,3l-.2,-.4h.2l6.2,2.9l-.2,.4l-.1,-.2v-2.9Z" class="g1_235"/>
<path d="M570.7,274.2h.4v-3h-.4Z" class="g1_235"/>
<path d="M570.9,274.4h.2V274h-.2Z" class="g1_235"/>
<path d="M571.1,274.4h21.5V274H571.1Z" class="g1_235"/>
<path d="M417,320.3h.4V289.5H417Z" class="g1_235"/>
<path d="M386.1,289.5v3.2l-.3,-.1l-6.2,-2.9l-.4,-.2l.4,-.2l6.2,-2.9l.3,-.1v.2l-.1,.2l-6.2,3l-.2,-.4h.2l6.2,2.9l-.2,.4l-.1,-.2v-2.9Z" class="g1_235"/>
<path d="M385.7,289.5h.4v-3h-.4Z" class="g1_235"/>
<path d="M385.9,289.7h.2v-.4h-.2Z" class="g1_235"/>
<path d="M386.1,289.7h31.3v-.4H386.1Z" class="g1_235"/>
<path d="M399.9,425.2h.4V320h-.4Z" class="g1_235"/>
<path d="M329.4,320v3.2l-.3,-.1l-6.3,-2.9l-.4,-.2l.4,-.2l6.3,-2.9l.3,-.1v.3l-.1,.2l-6.4,2.9l-.1,-.4h.1l6.4,3l-.2,.3l-.1,-.2V320Z" class="g1_235"/>
<path d="M329,320h.4v-2.9H329Z" class="g1_235"/>
<path d="M329.2,320.2h.2v-.4h-.2Z" class="g1_235"/>
<path d="M329.4,320.2h70.9v-.4H329.4Z" class="g1_235"/>
<path d="M373.8,829.4h5.6v-.6h-5.6Z" class="g2_235"/>
<path d="M386.6,827.1h-3.7c-1,0,-1.6,1.2,-1.7,1.4h.1c.1,-.1,.5,-.6,1.1,-.6h.5l-.7,2.3c-.3,.7,-1.2,.7,-1.2,1.4v.1c0,.2,.2,.3,.4,.3c.4,0,.8,-.3,1.4,-1.8l.8,-2.3h1l-.5,2.3c-.1,.3,-.1,.6,-.1,.8v.1c0,.5,.3,.9,.9,.9c.2,0,.5,-.1,.5,-.5c0,-.6,-.7,-.6,-.7,-1.2c0,0,.1,-.1,.1,-.3l.5,-2.1h1.2l.1,-.8Z" class="g2_235"/>
<path d="M372.7,834.3h14.8v-.8H372.7Z" class="g2_235"/>
<path d="M379.7,838.2c-.7,0,-1.1,-.5,-1.1,-1.1c0,-.8,.4,-1.7,1.3,-1.7c1.2,0,1.4,1,1.4,1.9c0,1,-.3,1.5,-.8,2.2c-.2,.4,-.6,.8,-1.1,1.3c-.5,.5,-1.1,1.1,-1.8,1.8v.3h4.5l.4,-2.1h-.3c-.1,.2,-.2,.4,-.2,.5c-.2,.4,-.5,.6,-1.1,.6h-2.1c.5,-.4,1,-.7,1.4,-1.1c.8,-.6,1.5,-1.4,2,-2.3c.1,-.3,.2,-.7,.2,-1.1c0,-.4,0,-.6,-.1,-.9c-.4,-.7,-1.1,-1.3,-2.2,-1.3c-.7,0,-1.4,.3,-1.8,.6c-.3,.3,-.6,.8,-.6,1.5c0,.4,.1,.8,.3,1c.2,.3,.5,.4,.9,.4c.4,0,.7,-.2,.8,-.5Z" class="g2_235"/>
<path d="M446.5,833.1l.9,-3.6c.2,-.5,.3,-1.1,.7,-1.3c.1,0,.3,0,.5,0c1.4,0,2.1,.8,2.1,1.9c0,.4,-.1,.7,-.2,1.1c-.6,.9,-1.8,1.9,-3.3,1.9h-.7Zm-.7,2.3l.6,-2h1c2,0,3.7,-.7,4.5,-1.9c.2,-.4,.3,-.8,.3,-1.3c0,-.7,-.3,-1.3,-1,-1.7c-.6,-.4,-1.5,-.6,-2.6,-.6h-3.8v.2c.2,0,.5,0,.6,.1c.5,0,.7,.5,.7,1c0,.2,-.1,.5,-.2,1l-1.6,5.9c-.1,.5,-.4,1.2,-.6,1.5c-.3,.2,-.7,.4,-1.1,.4l-.1,.2h4.4l.1,-.2c-1,0,-1.5,-.5,-1.5,-1.1c0,-.1,.1,-.4,.1,-.6c.1,-.3,.1,-.5,.2,-.9Z" class="g2_235"/>
<path d="M460.7,842.4c-1.6,-1.8,-1.8,-5.2,-1.8,-8c0,-2.7,0,-6,1.8,-8.1l-.1,-.3h-.1c-.7,.7,-2.9,3.6,-2.9,8.4c0,4.9,2.2,7.7,3,8.3l.1,-.3Z" class="g2_235"/>
<path d="M464.4,829.9h5.5v-.6h-5.5Z" class="g2_235"/>
<path d="M477.2,827.6h-3.7c-1,0,-1.6,1.2,-1.7,1.4h.1c.1,-.1,.5,-.6,1,-.6h.6l-.8,2.2c-.2,.8,-1.1,.8,-1.1,1.5v.1c0,.2,.2,.3,.4,.3c.4,0,.8,-.3,1.3,-1.8l.8,-2.3h1.1l-.5,2.3c-.1,.3,-.1,.6,-.1,.8v.1c0,.4,.3,.9,.8,.9c.3,0,.6,-.1,.6,-.5c0,-.7,-.7,-.6,-.7,-1.2c0,-.1,0,-.2,.1,-.3l.5,-2.1H477l.2,-.8Z" class="g2_235"/>
<path d="M463.3,834.8h14.8V834H463.3Z" class="g2_235"/>
<path d="M470.3,838.7c-.7,0,-1.1,-.5,-1.1,-1.2c0,-.7,.4,-1.6,1.3,-1.6c1.2,0,1.3,1,1.3,1.9c0,.9,-.2,1.5,-.7,2.1c-.3,.4,-.7,.9,-1.1,1.4c-.5,.5,-1.1,1.1,-1.9,1.7v.4h4.6l.4,-2.1h-.3c-.1,.2,-.2,.4,-.3,.5c-.1,.4,-.4,.6,-1,.6h-2.1c.5,-.4,1,-.8,1.4,-1.1c.7,-.7,1.5,-1.4,1.9,-2.3c.2,-.4,.3,-.8,.3,-1.2c0,-.3,-.1,-.6,-.2,-.8c-.3,-.8,-1.1,-1.3,-2.1,-1.3c-.8,0,-1.4,.3,-1.8,.6c-.4,.3,-.7,.8,-.7,1.5c0,.4,.2,.8,.4,1c.2,.2,.5,.4,.9,.4c.4,0,.7,-.2,.8,-.5Z" class="g2_235"/>
<path d="M480.6,842.4l.2,.3c.7,-.6,3,-3.4,3,-8.3c0,-4.8,-2.2,-7.7,-3,-8.4l-.2,.3c1.8,2.1,1.9,5.4,1.9,8.1c0,2.8,-.3,6.2,-1.9,8Z" class="g2_235"/>
<path d="M490.5,836.3h7.6v-.8h-7.6Zm0,-3h7.6v-.8h-7.6Z" class="g2_235"/>
<path d="M503.8,834.8h7.6V834h-7.6Z" class="g2_235"/>
<path d="M516.1,833.1l.9,-3.6c.2,-.5,.3,-1.1,.8,-1.3c.1,0,.2,0,.4,0c1.4,0,2.1,.8,2.1,1.9c0,.4,-.1,.7,-.2,1.1c-.6,.9,-1.8,1.9,-3.3,1.9h-.7Zm-.7,2.3l.6,-2h1c2,0,3.7,-.7,4.5,-1.9c.2,-.4,.3,-.8,.3,-1.3c0,-.7,-.3,-1.3,-.9,-1.7c-.7,-.4,-1.6,-.6,-2.7,-.6h-3.8v.2c.2,0,.5,0,.6,.1c.5,0,.7,.5,.7,1c0,.2,-.1,.5,-.2,1l-1.6,5.9c-.1,.5,-.4,1.2,-.6,1.5c-.3,.2,-.7,.4,-1.1,.4l-.1,.2h4.4l.1,-.2c-1,0,-1.5,-.5,-1.5,-1.1c0,-.1,.1,-.4,.2,-.6c0,-.3,.1,-.5,.1,-.9Z" class="g2_235"/>
<path d="M530.3,842.4c-1.6,-1.8,-1.8,-5.2,-1.8,-8c0,-2.7,0,-6,1.8,-8.1l-.1,-.3h-.1c-.7,.7,-2.9,3.6,-2.9,8.4c0,4.9,2.2,7.7,3,8.3l.1,-.3Z" class="g2_235"/>
<path d="M539,827.6h-3.7c-1,0,-1.6,1.2,-1.7,1.4h.1c.1,-.1,.5,-.6,1,-.6h.6l-.8,2.2c-.2,.8,-1.1,.8,-1.1,1.5v.1c0,.2,.2,.3,.4,.3c.4,0,.8,-.3,1.4,-1.8l.7,-2.3H537l-.5,2.3c-.1,.3,-.1,.6,-.1,.8v.1c0,.4,.3,.9,.8,.9c.3,0,.6,-.1,.6,-.5c0,-.7,-.7,-.6,-.7,-1.2c0,-.1,0,-.2,.1,-.3l.5,-2.1h1.1l.2,-.8Z" class="g2_235"/>
<path d="M532.9,834.8h7V834h-7Z" class="g2_235"/>
<path d="M536,838.7c-.7,0,-1.1,-.5,-1.1,-1.2c0,-.7,.4,-1.6,1.3,-1.6c1.2,0,1.3,1,1.3,1.9c0,.9,-.2,1.5,-.7,2.1c-.3,.4,-.6,.9,-1.1,1.4c-.5,.5,-1.1,1.1,-1.9,1.7v.4h4.6l.4,-2.1h-.3c-.1,.2,-.2,.4,-.3,.5c-.1,.4,-.4,.6,-1,.6h-2.1c.5,-.4,1,-.8,1.4,-1.1c.7,-.7,1.5,-1.4,1.9,-2.3c.2,-.4,.3,-.8,.3,-1.2c0,-.3,0,-.6,-.2,-.8c-.3,-.8,-1,-1.3,-2.1,-1.3c-.7,0,-1.4,.3,-1.8,.6c-.3,.3,-.7,.8,-.7,1.5c0,.4,.2,.8,.4,1c.2,.2,.5,.4,.9,.4c.4,0,.7,-.2,.8,-.5Z" class="g2_235"/>
<path d="M542.4,842.4l.2,.3c.7,-.6,3,-3.4,3,-8.3c0,-4.8,-2.2,-7.7,-3,-8.4l-.2,.3c1.8,2.1,1.9,5.4,1.9,8.1c0,2.8,-.3,6.2,-1.9,8Z" class="g2_235"/>
</svg>