<?xml version="1.0" encoding="UTF-8" standalone="no"?>
<!DOCTYPE svg PUBLIC "-//W3C//DTD SVG 1.1//EN"
"http://www.w3.org/Graphics/SVG/1.1/DTD/svg11.dtd">
<svg viewBox="0 0 811 1017" version="1.1" xmlns="http://www.w3.org/2000/svg" xmlns:xlink="http://www.w3.org/1999/xlink">
<defs>
<style type="text/css"><![CDATA[
.g0_386{
fill: #0E0E0E;
}
.g1_386{
fill: #FFF;
}
.g2_386{
fill: #B6D3EA;
}
.g3_386{
fill: #F1FAFD;
}
.g4_386{
fill: #F3EBE5;
}
.g5_386{
fill: #F7CBB4;
}
.g6_386{
fill: #F7A197;
}
.g7_386{
fill: #EE7F6A;
}
.g8_386{
fill: #BF4543;
}
.g9_386{
fill: #641011;
}
.ga_386{
fill: #3D56A5;
}
.gb_386{
fill: #040504;
}
.gc_386{
fill: #181818;
}
.gd_386{
fill: #0D2615;
}
.ge_386{
fill: #3F479E;
}
.gf_386{
fill: #5765AF;
}
.gg_386{
fill: #7E95CC;
}
.gh_386{
fill: #6C1D1B;
}
]]></style>
</defs>
<path d="M372.9,177l-2.7,6.6L367.4,177h5.5Zm1.3,-1.3h-8.9l4.3,10.1h.3l4.3,-10.1Z" class="g0_386"/>
<path d="M375.6,188.5c-.3,0,-.4,-.1,-.5,-.4c0,-.3,-.1,-.5,-.5,-.5c-.2,0,-.4,.2,-.4,.4c0,.6,.8,.9,1.3,.9c.8,0,.9,-.3,1.3,-.8c.2,-.3,.4,-.7,.6,-1.2c.2,-.6,.5,-1.2,.7,-2l1.3,-5.2h1.3l.1,-.3h-1.3c.4,-1.2,.8,-3.2,1.2,-3.8c.1,-.2,.4,-.5,.7,-.5c.3,0,.4,.2,.5,.5c.1,.3,.2,.5,.5,.5c.3,0,.4,-.2,.4,-.4c0,-.6,-.8,-.9,-1.3,-.9c-1.8,0,-2.5,3,-3,4.6h-1.2l-.1,.3h1.3l-2,7.4c-.1,.4,-.4,1.4,-.9,1.4Z" class="g0_386"/>
<path d="M388.6,175.1c-2.2,1.4,-3.7,3.8,-3.7,6.8c0,2.8,1.6,5.6,3.6,6.9l.2,-.3c-2,-1.5,-2.5,-3.3,-2.5,-6.6c0,-3.3,.6,-5,2.5,-6.6l-.1,-.2Z" class="g0_386"/>
<path d="M396.9,180.2c0,-.5,-.4,-.9,-1,-.9c-.3,0,-.6,.1,-.9,.3c-.3,.2,-.6,.5,-.9,.9c0,-.7,-.4,-1.2,-1,-1.2c-1.2,0,-2.1,1.1,-2.5,1.9l.2,.2c.4,-.6,1.1,-1.8,2,-1.8c.3,0,.4,.6,.4,1c0,.3,-.1,.7,-.2,1.2l-.3,1.2c-.2,.5,-.4,1.3,-.8,1.7c-.1,.3,-.4,.7,-.7,.7c-.5,0,-.8,-.1,-.7,-.5c.1,-.3,0,-.7,-.4,-.7c-.4,0,-.6,.3,-.6,.7c0,.6,.5,1,1,1c1.1,0,1.8,-.8,2.2,-1.5c.1,.8,.5,1.5,1.3,1.5c1.2,0,2.1,-1.2,2.5,-1.9l-.2,-.1c-.5,.6,-1.2,1.6,-2,1.6c-.4,0,-.6,-.6,-.6,-1.2c0,-.3,0,-.8,.2,-1.3l.1,-.8c.1,-.5,.4,-1.2,.7,-1.6c.1,-.3,.5,-.9,.9,-.9c.4,0,.4,.3,.4,.6c-.1,.4,.1,.6,.4,.6c.4,0,.5,-.3,.5,-.7Z" class="g0_386"/>
<path d="M399.1,185c0,.4,.3,.8,.7,.8c.2,0,.3,-.1,.4,-.2c0,.4,-.1,.8,-.3,1.1c-.2,.3,-.5,.6,-1,1l.3,.4c.4,-.2,.6,-.5,.9,-.7c.5,-.5,.9,-1,.9,-1.9c0,-.9,-.3,-1.4,-1,-1.4c-.5,0,-.9,.4,-.9,.9Z" class="g0_386"/>
<path d="M404.6,187.9c0,.6,.4,1,1.1,1c.4,0,.8,-.2,1.2,-.6c.9,-.7,2.1,-2.2,2.9,-3.4c.3,-.7,.7,-1.3,1,-1.8c.4,-.8,1.1,-2.2,1.1,-3c0,-.2,0,-.4,-.1,-.6c-.1,-.2,-.3,-.2,-.5,-.2c-.2,0,-.3,0,-.4,.2c-.2,.1,-.3,.3,-.3,.6c0,.5,.3,.9,.3,1.3c0,.6,-.3,1.2,-.5,1.6c-.2,.5,-.4,.9,-.8,1.5h-.1l-.3,-2c-.1,-.5,-.3,-1.6,-.4,-2c-.2,-.7,-.3,-1.2,-1.3,-1.2c-1.2,0,-1.4,1.7,-1.7,2.5l.4,.1c.1,-.5,.5,-2.3,1,-2.3c.3,0,.5,1,.5,1.3c.1,.3,.2,.7,.3,1.3l.6,3.6c-.3,.8,-1.2,1.6,-1.8,2.1c-.2,.2,-.5,.3,-.7,.3c-.1,0,-.2,-.1,-.2,-.2c-.2,-.3,-.2,-.7,-.7,-.7c-.4,0,-.6,.2,-.6,.6Z" class="g0_386"/>
<path d="M413.2,175.1l-.1,.2c1.9,1.6,2.5,3.3,2.5,6.6c0,3.3,-.5,5.1,-2.5,6.6l.2,.3c2,-1.3,3.6,-4.1,3.6,-6.9c0,-3,-1.5,-5.4,-3.7,-6.8Z" class="g0_386"/>
<path d="M423.1,183.9h7.6V183h-7.6Zm0,-3.1h7.6V180h-7.6Z" class="g0_386"/>
<path d="M441.7,204.1v-.4H440c-.4,0,-.7,-.2,-.7,-.6V160.5c0,-.4,.3,-.7,.7,-.7h1.7v-.3h-3.5v44.6h3.5Z" class="g0_386"/>
<path d="M447.8,164.1c0,.5,-.2,1.2,-.3,1.6c-.1,.4,-.5,1.3,-.8,1.6c-.2,.2,-.5,.6,-.9,.6c-.3,0,-.6,-.3,-.6,-.7c0,-.5,.1,-1.3,.3,-1.7c.3,-.6,.9,-2,1.8,-2c.3,0,.5,.3,.5,.6Zm.1,4c.3,0,.6,-.1,.8,-.4c.2,-.3,.4,-.7,.6,-1.3h-.2c-.1,.4,-.5,1.4,-.9,1.4c-.2,0,-.3,-.4,-.3,-.6c0,-.1,0,-.2,0,-.4c.1,-.4,.2,-.8,.3,-1.3c.1,-.3,.2,-.7,.4,-1.2l1.1,-4.2H448v.1c.3,0,.4,.1,.5,.1c.1,.1,.3,.3,.3,.3c0,.2,-.1,.5,-.2,.7l-.7,2.5c-.1,-.3,-.3,-.5,-.7,-.5c-.7,0,-1.4,.7,-1.8,1.2c-.2,.2,-.4,.4,-.5,.7c-.2,.4,-.4,1,-.4,1.6c0,.4,.1,.7,.3,.9c.1,.3,.4,.4,.7,.4c1,0,1.4,-.6,1.7,-1.2h.1c0,.1,0,.2,0,.3c-.1,0,-.1,.1,-.1,.1c0,.5,.2,.8,.7,.8Z" class="g0_386"/>
<path d="M450.7,170.1c-.3,0,-.3,-.2,-.4,-.4c0,-.2,-.1,-.3,-.3,-.3c-.2,0,-.3,.1,-.3,.3c0,.4,.5,.6,.9,.6c.6,0,.7,-.2,1,-.5c.1,-.3,.3,-.6,.4,-.9c.1,-.4,.4,-.9,.5,-1.5l1,-3.8h.9l.1,-.2h-.9c.2,-.8,.5,-2.3,.8,-2.7c.1,-.2,.3,-.4,.5,-.4c.3,0,.3,.1,.4,.3c0,.2,.1,.4,.4,.4c.1,0,.2,-.1,.2,-.3c0,-.4,-.5,-.6,-.9,-.6c-1.3,0,-1.9,2.2,-2.2,3.3h-.9v.2h.9l-1.5,5.4c0,.3,-.2,1.1,-.6,1.1Z" class="g0_386"/>
<path d="M460.5,160.3c-1.6,1,-2.7,2.7,-2.7,5c0,2,1.1,4,2.6,4.9l.2,-.1c-1.5,-1.2,-1.9,-2.5,-1.9,-4.9c0,-2.4,.5,-3.6,1.9,-4.8l-.1,-.1Z" class="g0_386"/>
<path d="M466.7,164c0,-.4,-.3,-.7,-.7,-.7c-.3,0,-.5,.1,-.7,.3c-.3,.1,-.5,.3,-.7,.6c0,-.5,-.3,-.9,-.7,-.9c-.8,0,-1.6,.9,-1.8,1.4l.1,.1c.3,-.3,.8,-1.2,1.5,-1.2c.2,0,.3,.4,.3,.7c0,.2,-.1,.5,-.2,.8l-.2,.9c-.1,.4,-.3,1,-.5,1.3c-.2,.2,-.4,.5,-.6,.5c-.3,0,-.6,-.1,-.5,-.4c.1,-.2,0,-.5,-.3,-.5c-.3,0,-.4,.2,-.4,.5c0,.5,.3,.7,.7,.7c.8,0,1.3,-.5,1.6,-1c.1,.6,.4,1,1,1c.8,0,1.5,-.8,1.8,-1.3l-.2,-.1c-.3,.4,-.8,1.2,-1.4,1.2c-.3,0,-.5,-.5,-.5,-.9c0,-.3,.1,-.6,.2,-1l.1,-.5c.1,-.4,.2,-.9,.4,-1.2c.2,-.2,.4,-.7,.7,-.7c.3,0,.3,.2,.3,.5c0,.2,.1,.4,.3,.4c.3,0,.4,-.2,.4,-.5Z" class="g0_386"/>
<path d="M468.3,167.5c0,.3,.2,.5,.5,.5c.1,0,.2,0,.3,0c0,.2,-.1,.5,-.2,.7c-.2,.3,-.4,.5,-.8,.7l.3,.4c.2,-.2,.4,-.4,.6,-.5c.4,-.4,.7,-.8,.7,-1.5c0,-.6,-.3,-.9,-.7,-.9c-.4,0,-.7,.2,-.7,.6Z" class="g0_386"/>
<path d="M470.4,169.6c0,.4,.4,.7,.8,.7c.4,0,.6,-.1,1,-.4c.6,-.5,1.5,-1.6,2,-2.5c.3,-.5,.6,-.9,.8,-1.3c.3,-.6,.8,-1.6,.8,-2.2c0,-.1,0,-.3,-.1,-.4c-.1,-.1,-.2,-.2,-.3,-.2c-.2,0,-.2,.1,-.4,.2c-.1,.1,-.1,.2,-.1,.4c0,.4,.2,.7,.2,1c0,.4,-.2,.8,-.4,1.2c-.2,.3,-.3,.6,-.6,1l-.3,-1.4c0,-.4,-.2,-1.2,-.3,-1.5c-.1,-.5,-.2,-.9,-.9,-.9c-.9,0,-1,1.3,-1.2,1.9l.2,.1c.1,-.5,.4,-1.7,.8,-1.7c.2,0,.3,.7,.4,.9c0,.2,.1,.5,.2,1l.4,2.5c-.3,.6,-.9,1.3,-1.3,1.6c-.2,.1,-.4,.2,-.5,.2c-.1,0,-.2,0,-.2,-.1c-.2,-.2,-.2,-.6,-.5,-.6c-.3,0,-.5,.2,-.5,.5Z" class="g0_386"/>
<path d="M477.3,160.3l-.1,.1c1.4,1.2,1.9,2.4,1.9,4.8c0,2.4,-.4,3.7,-1.9,4.9l.2,.1c1.5,-.9,2.6,-2.9,2.6,-4.9c0,-2.3,-1.1,-4,-2.7,-5Z" class="g0_386"/>
<path d="M444.4,172h37v-.9h-37Z" class="g0_386"/>
<path d="M460.5,176.8c0,.5,-.1,1.2,-.3,1.6c-.1,.4,-.5,1.3,-.7,1.6c-.2,.2,-.6,.6,-.9,.6c-.4,0,-.6,-.3,-.6,-.7c0,-.5,.1,-1.3,.3,-1.7c.2,-.6,.9,-2,1.7,-2c.3,0,.5,.3,.5,.6Zm.1,4c.3,0,.6,-.1,.8,-.4c.3,-.3,.5,-.7,.7,-1.2l-.2,-.1c-.2,.4,-.6,1.4,-1,1.4c-.2,0,-.2,-.4,-.2,-.6c0,-.1,0,-.2,0,-.4c.1,-.4,.2,-.8,.3,-1.3c.1,-.3,.2,-.7,.3,-1.2l1.1,-4.2h-1.6v.1c.3,0,.4,.1,.5,.1c.1,.1,.2,.3,.2,.3c0,.3,-.1,.5,-.1,.7l-.7,2.5c-.2,-.3,-.3,-.5,-.8,-.5c-.7,0,-1.4,.7,-1.8,1.2c-.2,.2,-.3,.5,-.5,.7c-.2,.4,-.4,1,-.4,1.6c0,.4,.1,.7,.3,.9c.2,.3,.4,.4,.8,.4c1,0,1.4,-.6,1.7,-1.2c0,.1,0,.2,0,.3c0,0,0,.1,0,.2c0,.4,.2,.7,.6,.7Z" class="g0_386"/>
<path d="M468.1,176.7c0,-.4,-.3,-.7,-.7,-.7c-.2,0,-.5,.1,-.7,.3c-.2,.1,-.4,.3,-.6,.6c0,-.5,-.3,-.9,-.8,-.9c-.8,0,-1.5,.9,-1.8,1.4l.2,.1c.3,-.3,.8,-1.2,1.4,-1.2c.2,0,.3,.4,.3,.7c0,.2,0,.5,-.1,.8l-.3,.9c-.1,.4,-.3,1,-.5,1.3c-.1,.2,-.3,.5,-.6,.5c-.3,0,-.5,-.1,-.4,-.4c0,-.2,0,-.5,-.3,-.5c-.4,0,-.5,.2,-.5,.5c0,.5,.4,.7,.8,.7c.7,0,1.3,-.5,1.5,-1h.1c0,.6,.3,1,.9,1c.9,0,1.5,-.8,1.8,-1.3l-.1,-.1c-.4,.4,-.9,1.2,-1.5,1.2c-.3,0,-.4,-.5,-.4,-.9c0,-.3,0,-.6,.1,-1l.1,-.5c.1,-.4,.3,-.9,.5,-1.2c.1,-.2,.4,-.7,.7,-.7c.3,0,.3,.2,.2,.5c0,.2,.1,.4,.4,.4c.2,0,.3,-.2,.3,-.5Z" class="g0_386"/>
<path d="M447.8,184.9c0,.4,-.2,1.1,-.3,1.5c-.1,.4,-.5,1.3,-.8,1.6c-.2,.3,-.5,.6,-.9,.6c-.3,0,-.6,-.3,-.6,-.7c0,-.5,.1,-1.3,.3,-1.7c.3,-.6,.9,-1.9,1.8,-1.9c.3,0,.5,.2,.5,.6Zm.1,3.9c.3,0,.6,-.1,.8,-.4c.2,-.2,.4,-.6,.6,-1.2l-.2,-.1c-.1,.4,-.5,1.4,-.9,1.4c-.2,0,-.3,-.4,-.3,-.6c0,-.1,0,-.2,0,-.4c.1,-.4,.2,-.8,.3,-1.3c.1,-.3,.2,-.7,.4,-1.2l1.1,-4.2H448v.1c.3,0,.4,.1,.5,.1c.1,.1,.3,.3,.3,.4c0,.2,-.1,.4,-.2,.6l-.7,2.5c-.1,-.3,-.3,-.5,-.7,-.5c-.7,0,-1.4,.7,-1.8,1.2c-.2,.2,-.4,.5,-.5,.7c-.2,.4,-.4,1,-.4,1.6c0,.4,.1,.7,.3,1c.1,.2,.4,.3,.7,.3c1,0,1.4,-.6,1.7,-1.2l.1,.1c0,0,0,.1,0,.2c-.1,0,-.1,.1,-.1,.2c0,.4,.2,.7,.7,.7Z" class="g0_386"/>
<path d="M450.7,190.8c-.3,0,-.3,-.1,-.4,-.3c0,-.2,-.1,-.4,-.3,-.4c-.2,0,-.3,.1,-.3,.3c0,.4,.5,.6,.9,.6c.6,0,.7,-.1,1,-.5c.1,-.3,.3,-.5,.4,-.9c.1,-.4,.4,-.9,.5,-1.5l1,-3.7h.9l.1,-.3h-.9c.2,-.8,.5,-2.3,.8,-2.7c.1,-.2,.3,-.4,.5,-.4c.3,0,.3,.2,.4,.4c0,.1,.1,.3,.4,.3c.1,0,.2,-.1,.2,-.3c0,-.4,-.5,-.6,-.9,-.6c-1.3,0,-1.9,2.2,-2.2,3.3h-.9v.3h.9l-1.5,5.3c0,.3,-.2,1.1,-.6,1.1Z" class="g0_386"/>
<path d="M460.5,181c-1.6,1,-2.7,2.8,-2.7,5c0,2,1.1,4,2.6,5l.2,-.2c-1.5,-1.1,-1.9,-2.5,-1.9,-4.9c0,-2.4,.5,-3.6,1.9,-4.7l-.1,-.2Z" class="g0_386"/>
<path d="M466.7,184.7c0,-.4,-.3,-.7,-.7,-.7c-.3,0,-.5,.1,-.7,.3c-.3,.1,-.5,.4,-.7,.6c0,-.5,-.3,-.9,-.7,-.9c-.8,0,-1.6,.9,-1.8,1.5h.1c.3,-.3,.8,-1.2,1.5,-1.2c.2,0,.3,.4,.3,.7c0,.2,-.1,.5,-.2,.9l-.2,.8c-.1,.4,-.3,1,-.5,1.3c-.2,.2,-.4,.5,-.6,.5c-.3,0,-.6,-.1,-.5,-.3c.1,-.3,0,-.6,-.3,-.6c-.3,0,-.4,.2,-.4,.6c0,.4,.3,.6,.7,.6c.8,0,1.3,-.5,1.6,-1c.1,.6,.4,1,1,1c.8,0,1.5,-.8,1.8,-1.3l-.2,-.1c-.3,.4,-.8,1.2,-1.4,1.2c-.3,0,-.5,-.5,-.5,-.9c0,-.3,.1,-.6,.2,-1l.1,-.5c.1,-.4,.2,-.9,.4,-1.2c.2,-.2,.4,-.7,.7,-.7c.3,0,.3,.2,.3,.5c0,.3,.1,.4,.3,.4c.3,0,.4,-.2,.4,-.5Z" class="g0_386"/>
<path d="M468.3,188.2c0,.3,.2,.6,.5,.6c.1,0,.2,-.1,.3,-.1c0,.3,-.1,.5,-.2,.7c-.2,.3,-.4,.5,-.8,.8l.3,.3c.2,-.2,.4,-.4,.6,-.5c.4,-.4,.7,-.8,.7,-1.4c0,-.7,-.3,-1,-.7,-1c-.4,0,-.7,.2,-.7,.6Z" class="g0_386"/>
<path d="M470.4,190.3c0,.5,.4,.7,.8,.7c.4,0,.6,-.1,1,-.4c.6,-.5,1.5,-1.6,2,-2.5c.3,-.4,.6,-.9,.8,-1.3c.3,-.6,.8,-1.6,.8,-2.1c0,-.2,0,-.3,-.1,-.5c-.1,-.1,-.2,-.2,-.3,-.2c-.2,0,-.2,.1,-.4,.2c-.1,.1,-.1,.2,-.1,.4c0,.4,.2,.7,.2,1c0,.4,-.2,.8,-.4,1.2c-.2,.3,-.3,.6,-.6,1l-.3,-1.4c0,-.4,-.2,-1.2,-.3,-1.5c-.1,-.5,-.2,-.9,-.9,-.9c-.9,0,-1,1.3,-1.2,1.9l.2,.1c.1,-.4,.4,-1.7,.8,-1.7c.2,0,.3,.7,.4,.9c0,.2,.1,.5,.2,1l.4,2.6c-.3,.5,-.9,1.2,-1.3,1.5c-.2,.2,-.4,.2,-.5,.2c-.1,0,-.2,0,-.2,-.1c-.2,-.2,-.2,-.5,-.5,-.5c-.3,0,-.5,.2,-.5,.4Z" class="g0_386"/>
<path d="M477.3,181l-.1,.2c1.4,1.1,1.9,2.3,1.9,4.7c0,2.4,-.4,3.8,-1.9,4.9l.2,.2c1.5,-1,2.6,-3,2.6,-5c0,-2.2,-1.1,-4,-2.7,-5Z" class="g0_386"/>
<path d="M444.4,192.7h37v-.8h-37Z" class="g0_386"/>
<path d="M460.8,197.6c0,.4,-.1,1.1,-.3,1.5c-.1,.4,-.5,1.3,-.7,1.6c-.2,.3,-.6,.6,-.9,.6c-.4,0,-.6,-.3,-.6,-.7c0,-.4,.1,-1.3,.3,-1.7c.2,-.6,.9,-1.9,1.7,-1.9c.3,0,.5,.2,.5,.6Zm.1,4c.3,0,.6,-.2,.8,-.4c.3,-.3,.5,-.7,.7,-1.3l-.2,-.1c-.2,.4,-.5,1.4,-1,1.4c-.2,0,-.2,-.4,-.2,-.6c0,-.1,0,-.2,0,-.3c.1,-.5,.2,-.9,.3,-1.4c.1,-.3,.2,-.7,.3,-1.2l1.1,-4.2h-1.6v.1c.3,.1,.4,.1,.5,.2c.1,0,.2,.2,.2,.3c0,.2,-.1,.4,-.1,.6l-.7,2.5c-.2,-.3,-.3,-.5,-.8,-.5c-.7,0,-1.4,.7,-1.8,1.2c-.2,.2,-.3,.5,-.4,.7c-.3,.4,-.5,1,-.5,1.6c0,.4,.1,.7,.3,1c.2,.2,.4,.4,.8,.4c1,-.1,1.4,-.7,1.7,-1.3v.1c0,0,0,.1,0,.2c0,0,0,.1,0,.2c0,.4,.2,.8,.6,.8Z" class="g0_386"/>
<path d="M462.4,203c0,.5,.4,.7,.8,.7c.4,0,.6,-.1,1,-.4c.6,-.5,1.5,-1.6,2,-2.5c.3,-.4,.6,-.9,.8,-1.3c.3,-.6,.8,-1.6,.8,-2.1c0,-.2,0,-.3,-.1,-.5c-.1,-.1,-.2,-.2,-.3,-.2c-.2,0,-.3,.1,-.4,.2c-.1,.1,-.1,.2,-.1,.5c0,.3,.1,.6,.1,.9c0,.5,-.1,.8,-.3,1.2c-.2,.3,-.3,.6,-.6,1l-.3,-1.4c-.1,-.4,-.2,-1.2,-.3,-1.5c-.1,-.5,-.2,-.9,-1,-.9c-.8,0,-.9,1.3,-1.1,1.9l.2,.1c.1,-.4,.4,-1.7,.8,-1.7c.2,0,.3,.7,.4,.9c0,.2,.1,.5,.2,1l.4,2.6c-.3,.6,-.9,1.2,-1.3,1.5c-.2,.2,-.4,.2,-.5,.2c-.1,0,-.2,0,-.2,-.1c-.2,-.2,-.2,-.5,-.5,-.5c-.3,0,-.5,.2,-.5,.4Z" class="g0_386"/>
<path d="M487.6,204.1V159.5H484v.3h1.8c.3,0,.6,.3,.6,.7v42.6c0,.4,-.3,.6,-.6,.6H484v.4h3.6Z" class="g0_386"/>
<path d="M337.5,304.2l-2.7,6.6L332,304.2h5.5Zm1.2,-1.3h-8.9l4.4,10h.3l4.2,-10Z" class="g0_386"/>
<path d="M344.6,302.3c-2.2,1.4,-3.7,3.8,-3.7,6.8c0,2.8,1.6,5.6,3.6,6.8l.2,-.2c-2,-1.6,-2.5,-3.4,-2.5,-6.6c0,-3.3,.6,-5,2.5,-6.6l-.1,-.2Z" class="g0_386"/>
<path d="M344.7,315.1c0,.6,.5,.9,1.1,.9c.5,0,.8,-.1,1.3,-.5c.8,-.7,2.1,-2.3,2.8,-3.5c.4,-.6,.8,-1.2,1,-1.8c.4,-.7,1.2,-2.1,1.2,-2.9c0,-.2,-.1,-.4,-.2,-.6c-.1,-.2,-.3,-.3,-.4,-.3c-.2,0,-.3,.1,-.5,.3c-.1,.1,-.2,.3,-.2,.6c0,.4,.2,.9,.2,1.3c0,.6,-.2,1.1,-.4,1.6c-.3,.5,-.5,.9,-.8,1.4h-.1l-.4,-1.9c-.1,-.5,-.3,-1.6,-.4,-2c-.2,-.7,-.3,-1.3,-1.3,-1.3c-1.2,0,-1.3,1.8,-1.6,2.6l.3,.1c.1,-.6,.6,-2.3,1.1,-2.3c.3,0,.4,1,.5,1.3c.1,.2,.1,.7,.3,1.3l.5,3.5c-.3,.8,-1.1,1.7,-1.7,2.2c-.3,.2,-.6,.2,-.7,.2q-.2,0,-.3,-.1c-.2,-.3,-.2,-.8,-.7,-.8c-.4,0,-.6,.3,-.6,.7Z" class="g0_386"/>
<path d="M355.7,306.7c-.8,0,-1.3,-.7,-1.3,-1.4c0,-.6,.3,-1,.8,-1c0,-.3,-.4,-.4,-.7,-.4c-.2,0,-.3,0,-.5,.1c-.4,.1,-.6,.6,-.6,1.1c0,.3,0,.5,.1,.7c.4,.7,1.2,1.1,2.2,1.1c.8,0,1.4,-.3,1.9,-.6c.4,-.4,.7,-.9,.7,-1.6c0,-.2,-.1,-.4,-.1,-.7c-.3,-.6,-.9,-1.1,-1.6,-1.3c.4,-.1,.8,-.4,1,-.7c.3,-.2,.5,-.6,.5,-1.1c0,-.3,-.1,-.5,-.2,-.7c-.3,-.7,-1.2,-1.1,-2.2,-1.1c-.6,0,-1.1,.2,-1.5,.4c-.3,.2,-.6,.5,-.6,1c0,.3,.2,.6,.3,.7c.2,.2,.4,.3,.7,.3c.2,0,.3,0,.5,-.1c.1,0,.2,-.1,.2,-.2c-.4,0,-.7,-.3,-.7,-.8c0,-.6,.5,-1.1,1.1,-1.1c.8,0,1.2,.7,1.2,1.6c0,.9,-.3,1.8,-1.1,1.8c-.1,-.1,-.4,-.2,-.6,-.2c-.2,0,-.5,.1,-.5,.3c0,.2,.3,.3,.6,.3c.2,0,.5,-.1,.6,-.2c.9,0,1.2,.8,1.2,1.8c0,1,-.4,2,-1.4,2Z" class="g0_386"/>
<path d="M366.7,308.7h-3.3v1h3.3v3.2h1v-3.2h3.2v-1h-3.2v-3.3h-1v3.3Z" class="g0_386"/>
<path d="M381.9,307.4c0,-.5,-.4,-1,-1,-1c-.3,0,-.6,.2,-.9,.4c-.3,.2,-.7,.5,-.9,.9c0,-.7,-.4,-1.3,-1,-1.3c-1.2,0,-2.1,1.2,-2.5,2l.2,.1c.4,-.5,1.1,-1.7,2,-1.7c.3,0,.4,.6,.4,1c0,.3,-.1,.7,-.2,1.2l-.4,1.1c-.1,.6,-.4,1.4,-.7,1.8c-.1,.3,-.4,.7,-.8,.7c-.4,0,-.7,-.1,-.6,-.5c.1,-.3,0,-.7,-.4,-.7c-.4,0,-.6,.3,-.6,.7c0,.6,.5,.9,1,.9c1,0,1.8,-.7,2.2,-1.4c.1,.8,.5,1.4,1.3,1.4c1.2,0,2.1,-1.1,2.5,-1.8l-.2,-.2c-.5,.7,-1.2,1.7,-2,1.7c-.4,0,-.6,-.6,-.6,-1.2c0,-.4,0,-.8,.2,-1.4l.1,-.7c.1,-.6,.4,-1.2,.7,-1.6c.1,-.3,.5,-1,.9,-1c.4,0,.4,.3,.3,.7c0,.4,.2,.5,.5,.5c.4,0,.5,-.2,.5,-.6Z" class="g0_386"/>
<path d="M385.3,302.1c-.7,0,-1.1,-.5,-1.1,-1.2c0,-.7,.4,-1.6,1.3,-1.6c1.2,0,1.3,1,1.3,1.9c0,.9,-.2,1.5,-.7,2.1c-.3,.4,-.6,.9,-1.1,1.4c-.5,.5,-1.1,1.1,-1.9,1.7v.4h4.6l.4,-2.1h-.3c-.1,.2,-.2,.4,-.3,.5c-.1,.4,-.4,.6,-1,.6h-2.1c.5,-.4,1,-.8,1.4,-1.1c.7,-.7,1.5,-1.4,1.9,-2.3c.2,-.4,.3,-.8,.3,-1.2c0,-.3,0,-.6,-.2,-.8c-.3,-.8,-1,-1.3,-2.1,-1.3c-.7,0,-1.4,.3,-1.8,.6c-.3,.3,-.7,.8,-.7,1.5c0,.4,.2,.8,.4,1c.2,.2,.5,.4,.9,.4c.4,0,.7,-.2,.8,-.5Z" class="g0_386"/>
<path d="M396.5,308.7h-3.3v1h3.3v3.2h1v-3.2h3.2v-1h-3.2v-3.3h-1v3.3Z" class="g0_386"/>
<path d="M408.4,312.8c-1,0,-1.7,-.9,-1.7,-1.9c0,-.7,.4,-1.3,1.1,-1.3c-.1,-.4,-.5,-.6,-1,-.6c-.2,0,-.4,0,-.6,.1c-.6,.2,-1,.8,-1,1.6c0,.3,.1,.6,.3,.9c.5,.9,1.6,1.5,2.9,1.5c1.1,0,2,-.4,2.6,-.9c.6,-.4,1,-1.1,1,-2.1c0,-.3,-.1,-.6,-.2,-.9c-.3,-.9,-1.1,-1.5,-2.1,-1.8v-.1c.6,-.1,1.1,-.5,1.4,-.9c.3,-.3,.6,-.9,.6,-1.5c0,-.4,-.1,-.7,-.2,-1c-.5,-1,-1.6,-1.4,-3,-1.4c-.8,0,-1.6,.1,-2.1,.5c-.4,.3,-.8,.7,-.8,1.4c0,.4,.2,.8,.4,1c.2,.2,.6,.4,1,.4c.2,0,.4,-.1,.6,-.2c.2,0,.3,-.2,.3,-.3c-.5,0,-.9,-.5,-.9,-1.1c0,-.8,.6,-1.5,1.5,-1.5c1,0,1.6,1,1.6,2.2c0,1.2,-.4,2.5,-1.5,2.5c-.2,-.1,-.5,-.3,-.8,-.3c-.3,0,-.7,.1,-.7,.4c0,.3,.4,.5,.7,.5c.4,0,.7,-.2,.9,-.4c1.3,0,1.6,1.1,1.6,2.5c0,1.4,-.5,2.7,-1.9,2.7Z" class="g0_386"/>
<path d="M411.8,315.1c0,.6,.5,.9,1.1,.9c.5,0,.8,-.1,1.3,-.5c.8,-.7,2.1,-2.3,2.8,-3.5c.4,-.6,.8,-1.2,1.1,-1.8c.4,-.7,1.1,-2.1,1.1,-2.9c0,-.2,-.1,-.4,-.2,-.6c0,-.2,-.2,-.3,-.4,-.3c-.2,0,-.3,.1,-.5,.3c-.1,.1,-.2,.3,-.2,.6c0,.4,.3,.9,.3,1.3c0,.6,-.3,1.1,-.5,1.6c-.2,.5,-.5,.9,-.8,1.4h-.1l-.3,-1.9c-.1,-.5,-.3,-1.6,-.4,-2c-.2,-.7,-.4,-1.3,-1.4,-1.3c-1.1,0,-1.3,1.8,-1.6,2.6l.3,.1c.2,-.6,.6,-2.3,1.1,-2.3c.3,0,.5,1,.5,1.3c.1,.2,.2,.7,.3,1.3l.6,3.5c-.4,.8,-1.2,1.7,-1.8,2.2c-.2,.2,-.6,.2,-.7,.2c-.1,0,-.2,0,-.3,-.1c-.2,-.3,-.2,-.8,-.6,-.8c-.4,0,-.7,.3,-.7,.7Z" class="g0_386"/>
<path d="M427,308.7h-3.3v1H427v3.2h1v-3.2h3.2v-1H428v-3.3h-1v3.3Z" class="g0_386"/>
<path d="M439.3,304.5v5.4h-3.5c1.2,-1.7,2.3,-3.6,3.5,-5.4Zm-3.8,5.3v.6h3.8v.6c0,1.2,-.1,1.7,-.8,1.7v.2h2.9v-.2c-.6,0,-.8,-.7,-.8,-1.8v-.5h1.7c0,0,0,-.5,0,-.5c0,0,-1.7,0,-1.7,0v-7.4h-.4l-4.7,7.3Z" class="g0_386"/>
<path d="M443.9,302.3l-.1,.2c1.9,1.6,2.5,3.3,2.5,6.6c0,3.2,-.5,5,-2.5,6.6l.2,.2c2,-1.2,3.6,-4,3.6,-6.8c0,-3,-1.5,-5.4,-3.7,-6.8Z" class="g0_386"/>
<path d="M453.8,311h7.6v-.8h-7.6Zm0,-3h7.6v-.8h-7.6Z" class="g0_386"/>
<path d="M472.3,326.7v-.4h-1.6c-.4,0,-.7,-.2,-.7,-.6V292c0,-.3,.3,-.6,.7,-.6h1.6V291h-3.5v35.7h3.5Z" class="g0_386"/>
<path d="M491.4,297.1c-.9,0,-1.5,-.7,-1.5,-1.6c0,-1.1,.6,-2.2,1.8,-2.2c1.7,0,1.9,1.3,1.9,2.6c0,1.2,-.4,2,-1,2.9c-.4,.5,-.9,1.2,-1.6,1.8c-.6,.7,-1.5,1.5,-2.5,2.4v.5h6.2l.5,-2.9h-.4c-.1,.3,-.2,.6,-.3,.8c-.2,.5,-.6,.8,-1.4,.8h-2.8l-.1,-.1c.7,-.5,1.3,-1,1.9,-1.5c1,-.9,2.1,-1.9,2.7,-3.1c.2,-.5,.4,-1,.4,-1.6c0,-.4,-.1,-.8,-.3,-1.2c-.5,-1,-1.5,-1.7,-3,-1.7c-.9,0,-1.8,.3,-2.3,.8c-.6,.4,-1,1.1,-1,2c0,.6,.2,1.1,.5,1.4c.3,.4,.7,.6,1.3,.6c.5,0,.9,-.3,1,-.7Z" class="g0_386"/>
<path d="M503.3,297.9c0,-.5,-.4,-.9,-.9,-.9c-.4,0,-.7,.1,-1,.3c-.3,.3,-.6,.5,-.8,.9c0,-.6,-.5,-1.2,-1.1,-1.2c-1.1,0,-2.1,1.2,-2.4,1.9l.2,.2c.3,-.5,1.1,-1.7,1.9,-1.7c.3,0,.4,.5,.4,.9c0,.3,0,.7,-.2,1.2l-.3,1.2c-.2,.6,-.4,1.3,-.7,1.7c-.2,.3,-.5,.7,-.8,.7c-.5,0,-.8,-.1,-.7,-.5c.1,-.3,.1,-.7,-.4,-.7c-.4,0,-.6,.3,-.6,.7c0,.6,.5,1,1.1,1c1,0,1.7,-.8,2.1,-1.5v.1c.1,.8,.5,1.4,1.4,1.4c1.1,0,2,-1.2,2.4,-1.8l-.2,-.2c-.5,.6,-1.2,1.6,-2,1.6c-.4,0,-.6,-.6,-.6,-1.2c0,-.3,.1,-.8,.2,-1.3l.2,-.8c.1,-.5,.3,-1.2,.6,-1.6c.2,-.3,.6,-.9,.9,-.9c.4,0,.4,.3,.4,.6c0,.4,.1,.6,.4,.6c.4,0,.5,-.3,.5,-.7Z" class="g0_386"/>
<path d="M477,321.7c-1,0,-1.8,-.9,-1.8,-1.9c0,-.7,.5,-1.3,1.2,-1.3c-.1,-.4,-.6,-.6,-1,-.6c-.3,0,-.5,.1,-.7,.2c-.5,.2,-.9,.8,-.9,1.5c0,.4,.1,.7,.2,1c.6,.9,1.6,1.4,3,1.4c1.1,0,2,-.3,2.6,-.8c.5,-.5,1,-1.2,1,-2.1c0,-.3,-.1,-.7,-.2,-1c-.4,-.8,-1.1,-1.5,-2.1,-1.7v-.1c.5,-.2,1,-.5,1.4,-.9c.3,-.4,.6,-.9,.6,-1.6c0,-.4,-.1,-.7,-.3,-1c-.4,-.9,-1.5,-1.4,-2.9,-1.4c-.9,0,-1.6,.2,-2.1,.5c-.4,.3,-.8,.8,-.8,1.4c0,.4,.2,.8,.4,1c.2,.2,.5,.4,1,.4c.2,0,.4,0,.6,-.1c.2,-.1,.3,-.2,.3,-.4c-.6,0,-1,-.4,-1,-1c0,-.8,.7,-1.5,1.6,-1.5c1,0,1.6,.9,1.6,2.2c0,1.2,-.4,2.4,-1.5,2.4c-.2,-.1,-.6,-.2,-.8,-.2c-.3,0,-.7,.1,-.7,.4c0,.3,.4,.4,.7,.4c.3,0,.7,-.2,.9,-.3c1.2,0,1.6,1.1,1.6,2.4c0,1.4,-.6,2.7,-1.9,2.7Z" class="g0_386"/>
<path d="M480.4,324c0,.6,.5,1,1.1,1c.5,0,.8,-.2,1.3,-.6c.8,-.7,2.1,-2.2,2.8,-3.4c.4,-.6,.8,-1.2,1.1,-1.8c.3,-.8,1.1,-2.1,1.1,-2.9c0,-.3,-.1,-.5,-.2,-.7c-.1,-.1,-.2,-.2,-.4,-.2c-.2,0,-.3,.1,-.5,.2c-.1,.1,-.2,.3,-.2,.6c0,.5,.2,1,.2,1.4c0,.6,-.2,1.1,-.4,1.6c-.3,.4,-.5,.8,-.8,1.4h-.1l-.4,-1.9c-.1,-.6,-.3,-1.7,-.4,-2.1c-.2,-.7,-.3,-1.2,-1.3,-1.2c-1.2,0,-1.3,1.8,-1.6,2.5l.3,.2c.1,-.6,.6,-2.4,1.1,-2.4c.3,0,.4,1.1,.5,1.3c.1,.3,.2,.7,.3,1.4l.6,3.5c-.4,.8,-1.2,1.6,-1.8,2.1c-.3,.2,-.6,.3,-.7,.3c-.1,0,-.2,-.1,-.3,-.2c-.2,-.2,-.2,-.7,-.7,-.7c-.4,0,-.6,.3,-.6,.6Z" class="g0_386"/>
<path d="M491.2,311.8c-.7,0,-1.1,-.5,-1.1,-1.2c0,-.7,.4,-1.6,1.3,-1.6c1.2,0,1.3,1,1.3,1.9c0,.9,-.2,1.5,-.7,2.1c-.3,.4,-.6,.9,-1.1,1.4c-.5,.5,-1.1,1.1,-1.9,1.7v.4h4.6l.4,-2.1h-.3c-.1,.2,-.2,.4,-.3,.5c-.1,.4,-.4,.6,-1,.6h-2.1c.5,-.4,1,-.8,1.4,-1.1c.7,-.7,1.5,-1.4,1.9,-2.3c.2,-.4,.3,-.8,.3,-1.2c0,-.3,0,-.6,-.2,-.8c-.3,-.8,-1,-1.3,-2.1,-1.3c-.7,0,-1.4,.3,-1.8,.6c-.4,.3,-.7,.8,-.7,1.5c0,.4,.2,.8,.4,1c.2,.2,.5,.4,.9,.4c.4,0,.7,-.2,.8,-.5Z" class="g0_386"/>
<path d="M502.4,317.6h-3.3v1h3.3v3.3h1v-3.3h3.2v-1h-3.2v-3.2h-1v3.2Z" class="g0_386"/>
<path d="M514.3,321.7c-1,0,-1.7,-.9,-1.7,-1.9c0,-.7,.4,-1.3,1.1,-1.3c-.1,-.4,-.5,-.6,-1,-.6c-.2,0,-.4,.1,-.6,.2c-.6,.2,-1,.8,-1,1.5c0,.4,.1,.7,.3,1c.5,.9,1.5,1.4,2.9,1.4c1.1,0,2,-.3,2.6,-.8c.6,-.5,1,-1.2,1,-2.1c0,-.3,-.1,-.7,-.2,-1c-.3,-.8,-1.1,-1.5,-2.1,-1.7v-.1c.6,-.2,1.1,-.5,1.4,-.9c.3,-.4,.6,-.9,.6,-1.6c0,-.4,-.1,-.7,-.2,-1c-.5,-.9,-1.6,-1.4,-3,-1.4c-.8,0,-1.6,.2,-2.1,.5c-.4,.3,-.8,.8,-.8,1.4c0,.4,.2,.8,.4,1c.2,.2,.6,.4,1,.4c.2,0,.4,0,.6,-.1c.2,-.1,.3,-.2,.3,-.4c-.5,0,-.9,-.4,-.9,-1c0,-.8,.6,-1.5,1.5,-1.5c1,0,1.6,.9,1.6,2.2c0,1.2,-.4,2.4,-1.5,2.4c-.2,-.1,-.5,-.2,-.8,-.2c-.3,0,-.7,.1,-.7,.4c0,.3,.4,.4,.7,.4c.4,0,.7,-.2,.9,-.3c1.3,0,1.6,1.1,1.6,2.4c0,1.4,-.5,2.7,-1.9,2.7Z" class="g0_386"/>
<path d="M523,326.7V291h-3.4v.4h1.6c.4,0,.7,.3,.7,.6v33.7c0,.4,-.3,.6,-.7,.6h-1.6v.4H523Z" class="g0_386"/>
<path d="M171.1,661.8H418.5V414.4H171.1Z" class="g1_386"/>
<path d="M353.7,661.8H235.9h.2c39.3,-6,78.2,-6,117.5,0h.1Z" class="g2_386"/>
<path d="M418.5,661.8H353.7c-39.4,-6,-78.4,-6,-117.8,0H171.1V651.5l2.5,-.9c90.9,-32.1,151.5,-32.1,242.4,0l2.5,.9v10.3Z" class="g3_386"/>
<path d="M418.5,651.5l-2.5,-.9c-90.9,-32.1,-151.5,-32.1,-242.4,0l-2.5,.9V618.1l2.5,-1.2c97,-50.2,145.4,-50.2,242.4,0l2.5,1.2v33.4Z" class="g4_386"/>
<path d="M418.5,618.1L416,616.9c-97,-50.2,-145.4,-50.2,-242.4,0l-2.5,1.2V565.5l1.4,-1.2l1.1,-.9c35.2,-30.1,69.6,-52.3,117.5,-53.7l2.5,-.1h2.5c48.9,.7,84.1,23.1,119.9,53.8l1.2,.9l1.3,1.2v52.6Z" class="g5_386"/>
<path d="M418.5,565.5l-1.3,-1.2l-1.2,-.9C380.9,533.3,346.4,511.1,298.6,509.7l-2.5,-.1h-2.5c-49,.7,-84.1,23.1,-120,53.8l-1.1,.9l-1.4,1.2V495.9l2.1,-1.5c65.9,-49.3,177.4,-49.3,243.2,0l2.1,1.5v69.6Z" class="g6_386"/>
<path d="M418.5,495.9l-2.1,-1.5c-65.8,-49.3,-177.3,-49.3,-243.2,0l-2.1,1.5V449.1l2.5,-1.1c70.6,-31.6,171.8,-31.6,242.4,0l2.5,1.1v46.8Z" class="g7_386"/>
<path d="M173.6,448l2.5,-1.1C246.4,416.4,346,416.7,416,448l2.5,1.1V418.5l-2.5,-.8l-2.5,-.8l-2.5,-.8l-2.5,-.7l-2.5,-.7l-1,-.3H184.6c-2.8,.8,-5.7,1.6,-8.5,2.5l-2.5,.8l-2.5,.8v30.6l2.5,-1.1Z" class="g8_386"/>
<path d="M173.6,417.7l2.5,-.8l2.5,-.8l2.5,-.7l2.5,-.7l1,-.3H171.1v4.1l2.5,-.8Z" class="g9_386"/>
<path d="M413.5,416.9l2.5,.8l2.5,.8v-4.1H405l1,.3l2.5,.7l2.5,.7l2.5,.8Z" class="g9_386"/>
<path d="M187.9,644.4l-1.7,-5.1l-1.4,1.5l-.3,-9.7L190,639l-2,-.3l1.7,5.1l-1.8,.6Z" class="ga_386"/>
<path d="M205.6,644.4l-1.5,-5.2l-1.5,1.4l.2,-9.7l5.2,8.2l-2.1,-.4l1.5,5.2l-1.8,.5Z" class="ga_386"/>
<path d="M223.2,644.3l-1.1,-5.2l-1.6,1.3l.7,-9.7l4.7,8.5l-2,-.5l1.1,5.2l-1.8,.4Z" class="ga_386"/>
<path d="M240.9,644.3L240,639l-1.7,1.2l1.3,-9.6l4.2,8.7l-1.9,-.6l.8,5.3l-1.8,.3Z" class="ga_386"/>
<path d="M258.6,644.2l-.6,-5.3l-1.8,1.1l1.8,-9.5l3.8,8.9l-2,-.7l.6,5.3l-1.8,.2Z" class="ga_386"/>
<path d="M276.2,644.2l-.3,-5.4l-1.8,1l2.3,-9.4l3.3,9.1l-1.9,-.8l.3,5.4l-1.9,.1Z" class="ga_386"/>
<path d="M293.9,644.1v-5.4l-1.9,1l2.8,-9.3l2.8,9.3l-1.8,-1v5.4h-1.9Z" class="ga_386"/>
<path d="M311.6,644.1l.3,-5.4l-1.9,.8l3.3,-9.1l2.2,9.4l-1.8,-1l-.3,5.4l-1.8,-.1Z" class="ga_386"/>
<path d="M329.3,644l.5,-5.3l-1.9,.7l3.8,-8.9l1.7,9.5l-1.7,-1.1l-.6,5.3l-1.8,-.2Z" class="ga_386"/>
<path d="M346.9,644l.9,-5.3l-2,.6l4.3,-8.7l1.2,9.6L349.6,639l-.8,5.3l-1.9,-.3Z" class="ga_386"/>
<path d="M364.6,643.9l1.2,-5.2l-2,.5l4.7,-8.5l.7,9.7l-1.6,-1.3l-1.2,5.2l-1.8,-.4Z" class="ga_386"/>
<path d="M382.3,643.9l1.4,-5.2l-2,.4l5.1,-8.2l.3,9.7l-1.6,-1.4l-1.4,5.2l-1.8,-.5Z" class="ga_386"/>
<path d="M400,643.8l1.7,-5.1l-2.1,.3l5.5,-7.9l-.2,9.7l-1.5,-1.5l-1.7,5.1l-1.7,-.6Z" class="ga_386"/>
<path d="M187.9,626.8l-2,-5l-1.4,1.6l-.8,-9.7l6,7.6l-2.1,-.2l2,5l-1.7,.7Z" class="ga_386"/>
<path d="M205.6,626.8l-1.7,-5.2l-1.5,1.5l-.3,-9.7l5.6,7.9l-2.1,-.2l1.7,5.1l-1.7,.6Z" class="ga_386"/>
<path d="M223.2,626.7l-1.4,-5.2l-1.5,1.4l.3,-9.7l5.1,8.2l-2.1,-.4l1.4,5.2l-1.8,.5Z" class="ga_386"/>
<path d="M240.9,626.6l-1.1,-5.2l-1.6,1.2l.9,-9.6l4.6,8.5l-2,-.5l1,5.3l-1.8,.3Z" class="ga_386"/>
<path d="M258.6,626.6l-.8,-5.4l-1.7,1.2l1.6,-9.6l4,8.9l-2,-.7l.7,5.3l-1.8,.3Z" class="ga_386"/>
<path d="M276.2,626.5l-.3,-5.4l-1.8,1.1l2.1,-9.5l3.4,9.1l-1.9,-.8l.4,5.4l-1.9,.1Z" class="ga_386"/>
<path d="M293.9,626.5v-5.4L292,622l2.8,-9.3l2.8,9.3l-1.8,-.9v5.4h-1.9Z" class="ga_386"/>
<path d="M311.6,626.4l.3,-5.4l-1.9,.8l3.4,-9.1l2.2,9.5l-1.8,-1.1l-.4,5.4l-1.8,-.1Z" class="ga_386"/>
<path d="M329.3,626.3L330,621l-2,.7l4,-8.9l1.5,9.6l-1.7,-1.2l-.7,5.4l-1.8,-.3Z" class="ga_386"/>
<path d="M346.9,626.3L348,621l-2,.5l4.5,-8.5l1,9.6l-1.7,-1.2l-1,5.2l-1.9,-.3Z" class="ga_386"/>
<path d="M364.6,626.2L366,621l-2,.4l5.1,-8.2l.3,9.7l-1.6,-1.4l-1.4,5.2l-1.8,-.5Z" class="ga_386"/>
<path d="M382.3,626.2l1.7,-5.1l-2,.2l5.5,-7.9l-.3,9.7l-1.4,-1.5l-1.7,5.2l-1.8,-.6Z" class="ga_386"/>
<path d="M400,626.1l2,-5l-2.1,.2l6.1,-7.6l-.9,9.7l-1.4,-1.6l-2,5l-1.7,-.7Z" class="ga_386"/>
<path d="M188,609.2l-2.4,-4.9l-1.3,1.7l-1.5,-9.6l6.5,7.2l-2,-.1l2.3,4.9l-1.6,.8Z" class="ga_386"/>
<path d="M205.6,609.1l-2,-5l-1.4,1.6l-.9,-9.6l6.1,7.5l-2.1,-.2l2,5l-1.7,.7Z" class="ga_386"/>
<path d="M223.3,609.1l-1.7,-5.2l-1.5,1.5l-.2,-9.7l5.5,8l-2.1,-.3l1.7,5.1l-1.7,.6Z" class="ga_386"/>
<path d="M240.9,609l-1.3,-5.2l-1.6,1.3l.6,-9.7l4.9,8.4l-2.1,-.5l1.3,5.3l-1.8,.4Z" class="ga_386"/>
<path d="M258.6,608.9l-.9,-5.3l-1.7,1.2l1.3,-9.6l4.2,8.7l-2,-.6l.9,5.3l-1.8,.3Z" class="ga_386"/>
<path d="M276.2,608.9l-.4,-5.4l-1.8,1.1l2,-9.5l3.6,9l-2,-.8l.5,5.4l-1.9,.2Z" class="ga_386"/>
<path d="M293.9,608.8v-5.4l-1.9,.9l2.8,-9.3l2.8,9.3l-1.8,-.9v5.4h-1.9Z" class="ga_386"/>
<path d="M311.6,608.7l.4,-5.4l-1.9,.8l3.5,-9l2,9.5l-1.7,-1.1l-.5,5.4l-1.8,-.2Z" class="ga_386"/>
<path d="M329.3,608.6l.8,-5.3l-2,.6l4.3,-8.7l1.2,9.6L332,603.6l-.9,5.3l-1.8,-.3Z" class="ga_386"/>
<path d="M346.9,608.6l1.3,-5.3l-2,.5l4.9,-8.4l.5,9.7L350,603.8l-1.3,5.2l-1.8,-.4Z" class="ga_386"/>
<path d="M364.6,608.5l1.7,-5.1l-2,.3l5.5,-8l-.3,9.7l-1.4,-1.5l-1.7,5.2l-1.8,-.6Z" class="ga_386"/>
<path d="M382.3,608.4l2.1,-5l-2.1,.2l6.1,-7.5l-.9,9.6l-1.4,-1.6l-2,5l-1.8,-.7Z" class="ga_386"/>
<path d="M400,608.4l2.4,-4.9l-2.1,.1l6.6,-7.2l-1.6,9.6l-1.2,-1.7l-2.4,4.9l-1.7,-.8Z" class="ga_386"/>
<path d="M188,591.6l-2.7,-4.7l-1.2,1.8l-2.3,-9.4l7.1,6.6l-2,.1l2.7,4.6l-1.6,1Z" class="ga_386"/>
<path d="M205.6,591.5l-2.3,-4.8l-1.3,1.6l-1.6,-9.5l6.6,7.1h-2.1l2.4,4.8l-1.7,.8Z" class="ga_386"/>
<path d="M223.3,591.5l-2,-5.1l-1.4,1.6l-.8,-9.7l6,7.6l-2.1,-.1l2,5l-1.7,.7Z" class="ga_386"/>
<path d="M240.9,591.4l-1.5,-5.2l-1.5,1.4v-9.7l5.3,8.1l-2,-.3l1.5,5.2l-1.8,.5Z" class="ga_386"/>
<path d="M258.6,591.3L257.5,586l-1.6,1.3l.9,-9.7l4.6,8.6l-2,-.6l1,5.3l-1.8,.4Z" class="ga_386"/>
<path d="M276.2,591.2l-.5,-5.4l-1.8,1.1l1.9,-9.5l3.7,9l-1.9,-.7l.5,5.3l-1.9,.2Z" class="ga_386"/>
<path d="M293.9,591.1v-5.4l-1.9,1l2.8,-9.3l2.8,9.3l-1.8,-1v5.4h-1.9Z" class="ga_386"/>
<path d="M311.6,591l.5,-5.3l-1.9,.7l3.6,-9l1.9,9.5L314,585.8l-.6,5.4l-1.8,-.2Z" class="ga_386"/>
<path d="M329.3,590.9l1,-5.3l-2,.6l4.5,-8.6l1,9.7L332.1,586l-1,5.3l-1.8,-.4Z" class="ga_386"/>
<path d="M347,590.9l1.5,-5.2l-2.1,.3l5.3,-8.1l.1,9.7l-1.5,-1.4l-1.6,5.2l-1.7,-.5Z" class="ga_386"/>
<path d="M364.7,590.8l1.9,-5l-2,.1l5.9,-7.6l-.8,9.7l-1.3,-1.6l-2,5.1l-1.7,-.7Z" class="ga_386"/>
<path d="M382.4,590.7l2.3,-4.8h-2l6.5,-7.1l-1.5,9.5l-1.3,-1.6l-2.4,4.8l-1.6,-.8Z" class="ga_386"/>
<path d="M400.1,590.6l2.7,-4.6l-2.1,-.1l7.1,-6.6l-2.3,9.4l-1.1,-1.8l-2.7,4.7l-1.6,-1Z" class="ga_386"/>
<path d="M188,574l-3,-4.5l-1,1.8l-3,-9.2l7.5,6.1l-2,.3l3.1,4.4L188,574Z" class="ga_386"/>
<path d="M205.7,573.9L203,569.2l-1.2,1.8l-2.2,-9.5l7,6.7l-2,.1l2.7,4.7l-1.6,.9Z" class="ga_386"/>
<path d="M223.3,573.8L221,568.9l-1.3,1.6L218.4,561l6.4,7.2h-2.1l2.3,4.9l-1.7,.7Z" class="ga_386"/>
<path d="M240.9,573.7l-1.7,-5.1l-1.5,1.5l-.4,-9.7l5.7,7.9l-2.1,-.3l1.8,5.1l-1.8,.6Z" class="ga_386"/>
<path d="M258.6,573.7l-1.2,-5.3l-1.6,1.3l.6,-9.7l4.8,8.5l-2,-.5l1.2,5.2l-1.8,.5Z" class="ga_386"/>
<path d="M276.2,573.6l-.6,-5.4l-1.7,1.1l1.7,-9.5l3.8,8.9l-1.9,-.7l.6,5.3l-1.9,.3Z" class="ga_386"/>
<path d="M293.9,573.4V568l-1.9,1l2.8,-9.3l2.8,9.3l-1.8,-1v5.4h-1.9Z" class="ga_386"/>
<path d="M311.6,573.3l.6,-5.3l-2,.7l3.9,-8.9l1.7,9.5L314,568.2l-.6,5.4l-1.8,-.3Z" class="ga_386"/>
<path d="M329.3,573.2l1.2,-5.2l-2,.5l4.8,-8.5l.6,9.7l-1.6,-1.3l-1.2,5.3l-1.8,-.5Z" class="ga_386"/>
<path d="M347,573.1l1.7,-5.1l-2,.3l5.6,-7.9l-.4,9.7l-1.4,-1.5l-1.8,5.1l-1.7,-.6Z" class="ga_386"/>
<path d="M364.7,573.1l2.2,-4.9h-2l6.4,-7.2l-1.4,9.5l-1.3,-1.6l-2.2,4.9l-1.7,-.7Z" class="ga_386"/>
<path d="M382.4,573l2.7,-4.7l-2.1,-.1l7,-6.7l-2.2,9.5l-1.1,-1.8l-2.7,4.7l-1.6,-.9Z" class="ga_386"/>
<path d="M400.1,572.9l3.1,-4.4l-2.1,-.3l7.6,-6.1l-3,9.2l-1,-1.8l-3.1,4.5l-1.5,-1.1Z" class="ga_386"/>
<path d="M188.1,556.3l-3.3,-4.2l-.9,1.8l-3.5,-9l7.9,5.6l-2.1,.4l3.3,4.3l-1.4,1.1Z" class="ga_386"/>
<path d="M205.7,556.3l-2.9,-4.6l-1.1,1.8L199,544.2l7.4,6.3l-2.1,.2l2.9,4.6l-1.5,1Z" class="ga_386"/>
<path d="M223.3,556.2l-2.5,-4.8l-1.2,1.7l-1.7,-9.6l6.7,7h-2.1l2.5,4.8l-1.7,.9Z" class="ga_386"/>
<path d="M240.9,556.1l-1.9,-5l-1.4,1.5l-.7,-9.7l5.9,7.7l-2.1,-.2l2,5l-1.8,.7Z" class="ga_386"/>
<path d="M258.6,556l-1.4,-5.2l-1.5,1.3l.4,-9.6l5,8.3l-2.1,-.5l1.4,5.2l-1.8,.5Z" class="ga_386"/>
<path d="M276.2,555.9l-.7,-5.4l-1.7,1.2l1.6,-9.6l3.9,8.9l-1.9,-.7l.7,5.4l-1.9,.2Z" class="ga_386"/>
<path d="M293.9,555.8v-5.4l-1.9,.9l2.8,-9.3l2.8,9.3l-1.8,-.9v5.4h-1.9Z" class="ga_386"/>
<path d="M311.6,555.7l.7,-5.4l-2,.7l3.9,-8.9l1.6,9.6l-1.7,-1.2l-.7,5.4l-1.8,-.2Z" class="ga_386"/>
<path d="M329.3,555.5l1.3,-5.2l-2,.5l5,-8.3l.4,9.6l-1.6,-1.3l-1.3,5.2l-1.8,-.5Z" class="ga_386"/>
<path d="M347,555.4l1.9,-5l-2,.2l5.9,-7.7l-.8,9.7l-1.4,-1.5l-1.9,5l-1.7,-.7Z" class="ga_386"/>
<path d="M364.7,555.3l2.5,-4.8h-2.1l6.7,-7l-1.8,9.6l-1.2,-1.7l-2.5,4.8l-1.6,-.9Z" class="ga_386"/>
<path d="M382.4,555.3l2.9,-4.6l-2,-.2l7.3,-6.3l-2.7,9.3l-1,-1.8l-2.9,4.6l-1.6,-1Z" class="ga_386"/>
<path d="M400.1,555.2l3.3,-4.3l-2,-.4l7.8,-5.6l-3.4,9l-.9,-1.8l-3.3,4.2l-1.5,-1.1Z" class="ga_386"/>
<path d="M188.1,538.7l-3.4,-4.2l-.9,1.8l-3.6,-8.9l8,5.5l-2.1,.4l3.4,4.2l-1.4,1.2Z" class="ga_386"/>
<path d="M205.7,538.6l-3,-4.5l-1,1.8l-2.9,-9.2l7.5,6.1l-2.1,.3l3,4.5l-1.5,1Z" class="ga_386"/>
<path d="M223.3,538.5l-2.5,-4.7l-1.2,1.7L217.7,526l6.8,6.8l-2.1,.1l2.6,4.8l-1.7,.8Z" class="ga_386"/>
<path d="M240.9,538.4l-2,-5l-1.3,1.6l-.9,-9.7l6,7.6l-2,-.2l2,5.1l-1.8,.6Z" class="ga_386"/>
<path d="M258.6,538.3l-1.4,-5.2l-1.6,1.4l.3,-9.7l5.1,8.3l-2,-.5l1.4,5.3l-1.8,.4Z" class="ga_386"/>
<path d="M276.2,538.2l-.7,-5.3l-1.7,1.1l1.5,-9.5l4,8.8l-1.9,-.7l.7,5.4l-1.9,.2Z" class="ga_386"/>
<path d="M293.9,538.1v-5.4l-1.9,.9l2.8,-9.2l2.8,9.2l-1.8,-.9v5.4h-1.9Z" class="ga_386"/>
<path d="M311.6,538l.7,-5.4l-2,.7l4,-8.8l1.5,9.5l-1.7,-1.1l-.7,5.3l-1.8,-.2Z" class="ga_386"/>
<path d="M329.3,537.9l1.4,-5.3l-2.1,.5l5.1,-8.3l.3,9.7l-1.5,-1.4l-1.4,5.2l-1.8,-.4Z" class="ga_386"/>
<path d="M347,537.8l2,-5.1l-2.1,.2l6.1,-7.6l-.9,9.7l-1.4,-1.6l-2,5l-1.7,-.6Z" class="ga_386"/>
<path d="M364.7,537.7l2.5,-4.8l-2,-.1L372,526l-1.9,9.5l-1.2,-1.7l-2.6,4.7l-1.6,-.8Z" class="ga_386"/>
<path d="M382.4,537.6l3,-4.5l-2,-.3l7.4,-6.1l-2.8,9.2l-1,-1.8l-3,4.5l-1.6,-1Z" class="ga_386"/>
<path d="M400.1,537.5l3.4,-4.2l-2,-.4l8,-5.5l-3.7,8.9l-.8,-1.8l-3.4,4.2l-1.5,-1.2Z" class="ga_386"/>
<path d="M188.1,521l-3.3,-4.3l-.9,1.9l-3.5,-9.1l7.9,5.7l-2.1,.4l3.3,4.3l-1.4,1.1Z" class="ga_386"/>
<path d="M205.7,520.9l-2.9,-4.5l-1.1,1.8L199,508.9l7.4,6.3l-2.1,.2l2.9,4.5l-1.5,1Z" class="ga_386"/>
<path d="M223.3,520.8L220.8,516l-1.2,1.7l-1.7,-9.5l6.7,7h-2.1L225,520l-1.7,.8Z" class="ga_386"/>
<path d="M240.9,520.8L239,515.7l-1.4,1.6l-.7,-9.7l5.9,7.7l-2.1,-.2l2,5l-1.8,.7Z" class="ga_386"/>
<path d="M258.6,520.7l-1.4,-5.3l-1.5,1.4l.4,-9.7l5,8.3L259,515l1.4,5.2l-1.8,.5Z" class="ga_386"/>
<path d="M276.2,520.5l-.7,-5.3l-1.7,1.1l1.6,-9.5l3.9,8.8l-1.9,-.6l.7,5.3l-1.9,.2Z" class="ga_386"/>
<path d="M293.9,520.4V515l-1.9,1l2.8,-9.3l2.8,9.3l-1.8,-1v5.4h-1.9Z" class="ga_386"/>
<path d="M311.6,520.3l.7,-5.3l-2,.6l3.9,-8.8l1.6,9.5l-1.7,-1.1l-.7,5.3l-1.8,-.2Z" class="ga_386"/>
<path d="M329.3,520.2l1.3,-5.2l-2,.4l5,-8.3l.4,9.7l-1.6,-1.4l-1.3,5.3l-1.8,-.5Z" class="ga_386"/>
<path d="M347,520.1l1.9,-5l-2,.2l5.9,-7.7l-.8,9.7l-1.4,-1.6l-1.9,5.1l-1.7,-.7Z" class="ga_386"/>
<path d="M364.7,520l2.5,-4.8h-2.1l6.7,-7l-1.8,9.5L368.8,516l-2.5,4.8l-1.6,-.8Z" class="ga_386"/>
<path d="M382.4,519.9l2.9,-4.5l-2,-.2l7.3,-6.3l-2.7,9.3l-1,-1.8l-2.9,4.5l-1.6,-1Z" class="ga_386"/>
<path d="M400.1,519.9l3.3,-4.3l-2,-.4l7.8,-5.7l-3.4,9.1l-.9,-1.9l-3.3,4.3l-1.5,-1.1Z" class="ga_386"/>
<path d="M188,503.3l-3,-4.5l-1,1.9l-3,-9.3l7.5,6.1l-2,.3l3.1,4.4l-1.6,1.1Z" class="ga_386"/>
<path d="M205.7,503.2L203,498.5l-1.2,1.8l-2.2,-9.5l7,6.7l-2,.1l2.7,4.7l-1.6,.9Z" class="ga_386"/>
<path d="M223.3,503.1L221,498.2l-1.3,1.7l-1.3,-9.6l6.4,7.2h-2.1l2.3,4.9l-1.7,.7Z" class="ga_386"/>
<path d="M240.9,503.1L239.2,498l-1.5,1.4l-.4,-9.6l5.7,7.8l-2.1,-.3l1.8,5.1l-1.8,.7Z" class="ga_386"/>
<path d="M258.6,503l-1.2,-5.3l-1.6,1.3l.6,-9.6l4.8,8.4l-2,-.5l1.2,5.2l-1.8,.5Z" class="ga_386"/>
<path d="M276.2,502.9l-.6,-5.4l-1.7,1.1l1.7,-9.5l3.8,8.9l-1.9,-.7l.6,5.3l-1.9,.3Z" class="ga_386"/>
<path d="M293.9,502.8v-5.4l-1.9,.9l2.8,-9.3l2.8,9.3l-1.8,-.9v5.4h-1.9Z" class="ga_386"/>
<path d="M311.6,502.6l.6,-5.3l-2,.7l3.9,-8.9l1.7,9.5L314,497.5l-.6,5.4l-1.8,-.3Z" class="ga_386"/>
<path d="M329.3,502.5l1.2,-5.2l-2,.5l4.8,-8.4l.6,9.6l-1.6,-1.3l-1.2,5.3l-1.8,-.5Z" class="ga_386"/>
<path d="M347,502.4l1.7,-5.1l-2,.3l5.6,-7.8l-.4,9.6L350.5,498l-1.8,5.1l-1.7,-.7Z" class="ga_386"/>
<path d="M364.7,502.4l2.2,-4.9h-2l6.4,-7.2l-1.4,9.6l-1.3,-1.7l-2.2,4.9l-1.7,-.7Z" class="ga_386"/>
<path d="M382.4,502.3l2.7,-4.7l-2.1,-.1l7,-6.7l-2.2,9.5l-1.1,-1.8l-2.7,4.7l-1.6,-.9Z" class="ga_386"/>
<path d="M400.1,502.2l3.1,-4.4l-2.1,-.3l7.6,-6.1l-3,9.3l-1,-1.9l-3.1,4.5l-1.5,-1.1Z" class="ga_386"/>
<path d="M188,485.5l-2.7,-4.6l-1.2,1.7l-2.3,-9.4l7.1,6.6l-2,.2l2.7,4.6l-1.6,.9Z" class="ga_386"/>
<path d="M205.6,485.5l-2.3,-4.9l-1.3,1.7l-1.6,-9.6l6.6,7.1h-2.1l2.4,4.9l-1.7,.8Z" class="ga_386"/>
<path d="M223.3,485.4l-2,-5l-1.4,1.5l-.8,-9.6l6,7.6l-2.1,-.2l2,5l-1.7,.7Z" class="ga_386"/>
<path d="M240.9,485.3l-1.5,-5.1l-1.5,1.4v-9.7l5.3,8.1l-2,-.4l1.5,5.2l-1.8,.5Z" class="ga_386"/>
<path d="M258.6,485.3L257.5,480l-1.6,1.2l.9,-9.6l4.6,8.6l-2,-.6l1,5.3l-1.8,.4Z" class="ga_386"/>
<path d="M276.2,485.2l-.5,-5.4l-1.8,1.1l1.9,-9.5l3.7,9l-1.9,-.8l.5,5.4l-1.9,.2Z" class="ga_386"/>
<path d="M293.9,485.1v-5.4l-1.9,.9l2.8,-9.3l2.8,9.3l-1.8,-.9v5.4h-1.9Z" class="ga_386"/>
<path d="M311.6,485l.5,-5.4l-1.9,.8l3.6,-9l1.9,9.5L314,479.8l-.6,5.4l-1.8,-.2Z" class="ga_386"/>
<path d="M329.3,484.9l1,-5.3l-2,.6l4.5,-8.6l1,9.6L332.1,480l-1,5.3l-1.8,-.4Z" class="ga_386"/>
<path d="M347,484.8l1.5,-5.2l-2.1,.4l5.3,-8.1l.1,9.7l-1.5,-1.4l-1.6,5.1l-1.7,-.5Z" class="ga_386"/>
<path d="M364.7,484.7l1.9,-5l-2,.2l5.9,-7.6l-.8,9.6l-1.3,-1.5l-2,5l-1.7,-.7Z" class="ga_386"/>
<path d="M382.4,484.7l2.3,-4.9h-2l6.5,-7.1l-1.5,9.6l-1.3,-1.7l-2.4,4.9l-1.6,-.8Z" class="ga_386"/>
<path d="M400.1,484.6l2.7,-4.6l-2.1,-.2l7.1,-6.6l-2.3,9.4l-1.1,-1.7l-2.7,4.6l-1.6,-.9Z" class="ga_386"/>
<path d="M188,467.8L185.6,463l-1.3,1.6l-1.5,-9.5l6.5,7.1l-2,-.1l2.3,4.9l-1.6,.8Z" class="ga_386"/>
<path d="M205.6,467.8l-2,-5l-1.4,1.5l-.9,-9.6l6.1,7.5l-2.1,-.1l2,5l-1.7,.7Z" class="ga_386"/>
<path d="M223.3,467.7l-1.7,-5.1l-1.5,1.4l-.2,-9.7l5.5,8l-2.1,-.3l1.7,5.1l-1.7,.6Z" class="ga_386"/>
<path d="M240.9,467.6l-1.3,-5.2l-1.6,1.3l.6,-9.7l4.9,8.4l-2.1,-.5l1.3,5.3l-1.8,.4Z" class="ga_386"/>
<path d="M258.6,467.6l-.9,-5.4l-1.7,1.2l1.3,-9.6l4.2,8.7l-2,-.6l.9,5.4l-1.8,.3Z" class="ga_386"/>
<path d="M276.2,467.5l-.4,-5.4l-1.8,1.1l2,-9.5l3.6,9l-2,-.7l.5,5.3l-1.9,.2Z" class="ga_386"/>
<path d="M293.9,467.4V462l-1.9,.9l2.8,-9.2l2.8,9.2l-1.8,-.9v5.4h-1.9Z" class="ga_386"/>
<path d="M311.6,467.3L312,462l-1.9,.7l3.5,-9l2,9.5l-1.7,-1.1l-.5,5.4l-1.8,-.2Z" class="ga_386"/>
<path d="M329.3,467.3l.8,-5.4l-2,.6l4.3,-8.7l1.2,9.6L332,462.2l-.9,5.4l-1.8,-.3Z" class="ga_386"/>
<path d="M346.9,467.2l1.3,-5.3l-2,.5l4.9,-8.4l.5,9.7L350,462.4l-1.3,5.2l-1.8,-.4Z" class="ga_386"/>
<path d="M364.6,467.1l1.7,-5.1l-2,.3l5.5,-8l-.3,9.7l-1.4,-1.4l-1.7,5.1l-1.8,-.6Z" class="ga_386"/>
<path d="M382.3,467.1l2.1,-5l-2.1,.1l6.1,-7.5l-.9,9.6l-1.4,-1.5l-2,5l-1.8,-.7Z" class="ga_386"/>
<path d="M400,467l2.4,-4.9l-2.1,.1l6.6,-7.1l-1.6,9.5L404.1,463l-2.4,4.8L400,467Z" class="ga_386"/>
<path d="M187.9,450.1l-2,-5l-1.4,1.5l-.8,-9.6l6,7.5l-2.1,-.1l2,5l-1.7,.7Z" class="ga_386"/>
<path d="M205.6,450l-1.7,-5.1l-1.5,1.5l-.3,-9.7l5.6,7.9l-2.1,-.3l1.7,5.1l-1.7,.6Z" class="ga_386"/>
<path d="M223.2,450l-1.4,-5.2l-1.5,1.3l.3,-9.7l5.1,8.3l-2.1,-.4l1.4,5.2l-1.8,.5Z" class="ga_386"/>
<path d="M240.9,449.9l-1.1,-5.3l-1.6,1.3l.9,-9.6l4.6,8.5l-2,-.5l1,5.3l-1.8,.3Z" class="ga_386"/>
<path d="M258.6,449.9l-.8,-5.4l-1.7,1.2l1.6,-9.6l4,8.8l-2,-.6l.7,5.3l-1.8,.3Z" class="ga_386"/>
<path d="M276.2,449.8l-.3,-5.4l-1.8,1.1l2.1,-9.5l3.4,9.1l-1.9,-.8l.4,5.4l-1.9,.1Z" class="ga_386"/>
<path d="M293.9,449.7v-5.4l-1.9,1l2.8,-9.3l2.8,9.3l-1.8,-1v5.4h-1.9Z" class="ga_386"/>
<path d="M311.6,449.7l.3,-5.4l-1.9,.8l3.4,-9.1l2.2,9.5l-1.8,-1.1l-.4,5.4l-1.8,-.1Z" class="ga_386"/>
<path d="M329.3,449.6l.7,-5.3l-2,.6l4,-8.8l1.5,9.6l-1.7,-1.2l-.7,5.4l-1.8,-.3Z" class="ga_386"/>
<path d="M346.9,449.5l1.1,-5.2l-2,.5l4.5,-8.5l1,9.6l-1.7,-1.3l-1,5.3l-1.9,-.4Z" class="ga_386"/>
<path d="M364.6,449.5l1.4,-5.2l-2,.4l5.1,-8.3l.3,9.7l-1.6,-1.3l-1.4,5.2l-1.8,-.5Z" class="ga_386"/>
<path d="M382.3,449.4l1.7,-5.1l-2,.3l5.5,-7.9l-.3,9.7l-1.4,-1.5l-1.7,5.1l-1.8,-.6Z" class="ga_386"/>
<path d="M400,449.4l2,-5l-2.1,.1L406,437l-.9,9.6l-1.4,-1.5l-2,5l-1.7,-.7Z" class="ga_386"/>
<path d="M187.9,432.3l-1.7,-5.1l-1.4,1.5l-.3,-9.7l5.5,7.9l-2,-.3l1.7,5.2l-1.8,.5Z" class="ga_386"/>
<path d="M205.6,432.3l-1.5,-5.2l-1.5,1.4l.2,-9.7L208,427l-2.1,-.4l1.5,5.2l-1.8,.5Z" class="ga_386"/>
<path d="M223.2,432.3L222.1,427l-1.6,1.3l.7,-9.7l4.7,8.5l-2,-.5l1.1,5.3l-1.8,.4Z" class="ga_386"/>
<path d="M240.9,432.2l-.9,-5.3l-1.7,1.2l1.3,-9.6l4.2,8.7l-1.9,-.6l.8,5.3l-1.8,.3Z" class="ga_386"/>
<path d="M258.6,432.2l-.6,-5.4l-1.8,1.1l1.8,-9.5l3.8,8.9l-2,-.7l.6,5.4l-1.8,.2Z" class="ga_386"/>
<path d="M276.2,432.1l-.3,-5.4l-1.8,1l2.3,-9.4l3.3,9.1l-1.9,-.8l.3,5.4l-1.9,.1Z" class="ga_386"/>
<path d="M293.9,432.1v-5.4l-1.9,.9l2.8,-9.3l2.8,9.3l-1.8,-.9v5.4h-1.9Z" class="ga_386"/>
<path d="M311.6,432l.3,-5.4l-1.9,.8l3.3,-9.1l2.2,9.4l-1.8,-1l-.3,5.4l-1.8,-.1Z" class="ga_386"/>
<path d="M329.3,432l.5,-5.4l-1.9,.7l3.8,-8.9l1.7,9.5l-1.7,-1.1l-.6,5.4l-1.8,-.2Z" class="ga_386"/>
<path d="M346.9,431.9l.9,-5.3l-2,.6l4.3,-8.7l1.2,9.6l-1.7,-1.2l-.8,5.3l-1.9,-.3Z" class="ga_386"/>
<path d="M364.6,431.9l1.2,-5.3l-2,.5l4.7,-8.5l.7,9.7L367.6,427l-1.2,5.3l-1.8,-.4Z" class="ga_386"/>
<path d="M382.3,431.8l1.4,-5.2l-2,.4l5.1,-8.2l.3,9.7l-1.6,-1.4l-1.4,5.2l-1.8,-.5Z" class="ga_386"/>
<path d="M400,431.8l1.7,-5.2l-2.1,.3l5.5,-7.9l-.2,9.7l-1.5,-1.5l-1.7,5.1l-1.7,-.5Z" class="ga_386"/>
<path d="M206.1,665.1h.7v-3.3h-.7Z" class="gb_386"/>
<path d="M196.2,672.9H202v-.8h-5.8Z" class="gb_386"/>
<path d="M204.1,674.6h1.5v-5.2l-1.6,.4v-.9l1.6,-.3h.9v6H208v.8h-3.9v-.8Z" class="gb_386"/>
<path d="M209.9,675.4h.9v-1.2h-.9Z" class="gb_386"/>
<path d="M214.8,668.5c.7,0,1.3,.3,1.7,.9c.4,.6,.6,1.5,.6,2.6c0,1.1,-.2,2,-.6,2.6c-.4,.6,-1,.9,-1.7,.9c-.8,0,-1.3,-.3,-1.8,-.9c-.4,-.6,-.6,-1.5,-.6,-2.6c0,-1.1,.2,-2,.6,-2.6c.5,-.6,1,-.9,1.8,-.9Zm0,.7c-.5,0,-.8,.2,-1.1,.7c-.2,.5,-.3,1.2,-.3,2.1c0,.9,.1,1.6,.3,2.1c.3,.5,.6,.7,1.1,.7c.5,0,.8,-.2,1.1,-.7c.2,-.5,.3,-1.2,.3,-2.1c0,-.9,-.1,-1.6,-.3,-2.1c-.3,-.5,-.6,-.7,-1.1,-.7Z" class="gb_386"/>
<path d="M250.3,665.1h.7v-3.3h-.7Z" class="gb_386"/>
<path d="M240.3,672.9h5.9v-.8h-5.9Z" class="gb_386"/>
<path d="M250.1,668.5c.8,0,1.3,.3,1.7,.9c.4,.6,.6,1.5,.6,2.6c0,1.1,-.2,2,-.6,2.6c-.4,.6,-.9,.9,-1.7,.9c-.8,0,-1.3,-.3,-1.7,-.9c-.4,-.6,-.6,-1.5,-.6,-2.6c0,-1.1,.2,-2,.6,-2.6c.4,-.6,.9,-.9,1.7,-.9Zm0,.7c-.5,0,-.8,.2,-1.1,.7c-.2,.5,-.3,1.2,-.3,2.1c0,.9,.1,1.6,.3,2.1c.3,.5,.6,.7,1.1,.7c.5,0,.8,-.2,1.1,-.7c.2,-.5,.3,-1.2,.3,-2.1c0,-.9,-.1,-1.6,-.3,-2.1c-.3,-.5,-.6,-.7,-1.1,-.7Z" class="gb_386"/>
<path d="M254.1,675.4h.9v-1.2h-.9Z" class="gb_386"/>
<path d="M257,668.6h3.6v.8h-2.7V671l.4,-.1h.4c.7,0,1.3,.2,1.8,.6c.4,.4,.6,1,.6,1.7c0,.7,-.2,1.3,-.7,1.7c-.4,.4,-1.1,.6,-1.9,.6c-.3,0,-.6,0,-.8,-.1c-.3,0,-.6,-.1,-1,-.2v-.9c.3,.2,.6,.3,.9,.3c.3,.1,.6,.1,.9,.1c.5,0,.9,-.1,1.2,-.4c.4,-.2,.5,-.6,.5,-1.1c0,-.5,-.1,-.8,-.5,-1.1c-.3,-.3,-.7,-.4,-1.2,-.4c-.2,0,-.5,0,-.7,.1c-.3,0,-.5,.1,-.8,.2v-3.4Z" class="gb_386"/>
<path d="M294.4,665.1h.8v-3.3h-.8Z" class="gb_386"/>
<path d="M290.4,668.5c.8,0,1.3,.3,1.7,.9c.4,.6,.6,1.5,.6,2.6c0,1.1,-.2,2,-.6,2.6c-.4,.6,-.9,.9,-1.7,.9c-.8,0,-1.3,-.3,-1.8,-.9c-.4,-.6,-.6,-1.5,-.6,-2.6c0,-1.1,.2,-2,.6,-2.6c.5,-.6,1,-.9,1.8,-.9Zm0,.7c-.5,0,-.8,.2,-1.1,.7c-.2,.5,-.3,1.2,-.3,2.1c0,.9,.1,1.6,.3,2.1c.3,.5,.6,.7,1.1,.7c.5,0,.8,-.2,1.1,-.7c.2,-.5,.3,-1.2,.3,-2.1c0,-.9,-.1,-1.6,-.3,-2.1c-.3,-.5,-.6,-.7,-1.1,-.7Z" class="gb_386"/>
<path d="M294.3,675.4h1v-1.2h-1Z" class="gb_386"/>
<path d="M299.3,668.5c.7,0,1.3,.3,1.7,.9c.4,.6,.6,1.5,.6,2.6c0,1.1,-.2,2,-.6,2.6c-.4,.6,-1,.9,-1.7,.9c-.8,0,-1.4,-.3,-1.8,-.9c-.4,-.6,-.6,-1.5,-.6,-2.6c0,-1.1,.2,-2,.6,-2.6c.4,-.6,1,-.9,1.8,-.9Zm0,.7c-.5,0,-.9,.2,-1.1,.7c-.2,.5,-.4,1.2,-.4,2.1c0,.9,.2,1.6,.4,2.1c.2,.5,.6,.7,1.1,.7c.4,0,.8,-.2,1,-.7c.3,-.5,.4,-1.2,.4,-2.1c0,-.9,-.1,-1.6,-.4,-2.1c-.2,-.5,-.6,-.7,-1,-.7Z" class="gb_386"/>
<path d="M338.6,665.1h.8v-3.3h-.8Z" class="gb_386"/>
<path d="M334.6,668.5c.7,0,1.3,.3,1.7,.9c.4,.6,.6,1.5,.6,2.6c0,1.1,-.2,2,-.6,2.6c-.4,.6,-1,.9,-1.7,.9c-.8,0,-1.4,-.3,-1.8,-.9c-.4,-.6,-.6,-1.5,-.6,-2.6c0,-1.1,.2,-2,.6,-2.6c.4,-.6,1,-.9,1.8,-.9Zm0,.7c-.5,0,-.9,.2,-1.1,.7c-.2,.5,-.3,1.2,-.3,2.1c0,.9,.1,1.6,.3,2.1c.2,.5,.6,.7,1.1,.7c.4,0,.8,-.2,1,-.7c.3,-.5,.4,-1.2,.4,-2.1c0,-.9,-.1,-1.6,-.4,-2.1c-.2,-.5,-.6,-.7,-1,-.7Z" class="gb_386"/>
<path d="M338.5,675.4h1v-1.2h-1Z" class="gb_386"/>
<path d="M341.5,668.6h3.6v.8h-2.8V671l.4,-.1h.4c.8,0,1.4,.2,1.8,.6c.5,.4,.7,1,.7,1.7c0,.7,-.2,1.3,-.7,1.7c-.4,.4,-1.1,.6,-1.9,.6c-.3,0,-.6,0,-.9,-.1c-.3,0,-.6,-.1,-.9,-.2v-.9c.3,.2,.6,.3,.8,.3c.3,.1,.6,.1,1,.1c.5,0,.9,-.1,1.2,-.4c.3,-.2,.5,-.6,.5,-1.1c0,-.5,-.2,-.8,-.5,-1.1c-.3,-.3,-.7,-.4,-1.2,-.4c-.3,0,-.5,0,-.8,.1c-.2,0,-.5,.1,-.7,.2v-3.4Z" class="gb_386"/>
<path d="M382.8,665.1h.8v-3.3h-.8Z" class="gb_386"/>
<path d="M377,674.6h1.5v-5.2l-1.7,.4v-.9l1.6,-.3h1v6h1.5v.8H377v-.8Z" class="gb_386"/>
<path d="M382.7,675.4h1v-1.2h-1Z" class="gb_386"/>
<path d="M387.6,668.5c.8,0,1.4,.3,1.8,.9c.4,.6,.6,1.5,.6,2.6c0,1.1,-.2,2,-.6,2.6c-.4,.6,-1,.9,-1.8,.9c-.7,0,-1.3,-.3,-1.7,-.9c-.4,-.6,-.6,-1.5,-.6,-2.6c0,-1.1,.2,-2,.6,-2.6c.4,-.6,1,-.9,1.7,-.9Zm0,.7c-.4,0,-.8,.2,-1,.7c-.3,.5,-.4,1.2,-.4,2.1c0,.9,.1,1.6,.4,2.1c.2,.5,.6,.7,1,.7c.5,0,.9,-.2,1.1,-.7c.2,-.5,.4,-1.2,.4,-2.1c0,-.9,-.2,-1.6,-.4,-2.1c-.2,-.5,-.6,-.7,-1.1,-.7Z" class="gb_386"/>
<path d="M167.9,626.8h3.2v-.7h-3.2Z" class="gb_386"/>
<path d="M143,627.5h5.8v-.8H143Z" class="gb_386"/>
<path d="M151,629.2h1.5v-5.1l-1.7,.3v-.9l1.7,-.3h.9v6h1.5v.8H151v-.8Z" class="gb_386"/>
<path d="M156.7,630h1v-1.2h-1Z" class="gb_386"/>
<path d="M161.6,623.1c.8,0,1.4,.3,1.8,.9c.4,.6,.6,1.5,.6,2.6c0,1.2,-.2,2,-.6,2.6c-.4,.6,-1,.9,-1.8,.9c-.7,0,-1.3,-.3,-1.7,-.9c-.4,-.6,-.6,-1.4,-.6,-2.6c0,-1.1,.2,-2,.6,-2.6c.4,-.6,1,-.9,1.7,-.9Zm0,.7c-.4,0,-.8,.3,-1,.7c-.3,.5,-.4,1.2,-.4,2.1c0,.9,.1,1.6,.4,2.1c.2,.5,.6,.7,1,.7c.5,0,.9,-.2,1.1,-.7c.3,-.5,.4,-1.2,.4,-2.1c0,-.9,-.1,-1.6,-.4,-2.1c-.2,-.4,-.6,-.7,-1.1,-.7Z" class="gb_386"/>
<path d="M167.9,582.7h3.2v-.8h-3.2Z" class="gb_386"/>
<path d="M143,583.3h5.8v-.8H143Z" class="gb_386"/>
<path d="M152.8,578.9c.7,0,1.3,.3,1.7,.9c.4,.6,.6,1.5,.6,2.6c0,1.2,-.2,2,-.6,2.6c-.4,.6,-1,.9,-1.7,.9c-.8,0,-1.4,-.3,-1.8,-.9c-.4,-.6,-.6,-1.4,-.6,-2.6c0,-1.1,.2,-2,.6,-2.6c.4,-.6,1,-.9,1.8,-.9Zm0,.7c-.5,0,-.9,.3,-1.1,.7c-.2,.5,-.3,1.2,-.3,2.1c0,1,.1,1.7,.3,2.1c.2,.5,.6,.7,1.1,.7c.4,0,.8,-.2,1,-.7c.3,-.4,.4,-1.1,.4,-2.1c0,-.9,-.1,-1.6,-.4,-2.1c-.2,-.4,-.6,-.7,-1,-.7Z" class="gb_386"/>
<path d="M156.7,585.8h1v-1.1h-1Z" class="gb_386"/>
<path d="M159.7,579h3.6v.8h-2.8v1.7l.4,-.1l.4,-.1c.8,0,1.4,.2,1.8,.7c.5,.4,.7,.9,.7,1.6c0,.8,-.2,1.3,-.7,1.7c-.4,.4,-1.1,.6,-1.9,.6c-.3,0,-.6,0,-.9,0c-.3,-.1,-.6,-.1,-.9,-.2v-1c.3,.2,.6,.3,.9,.4c.2,0,.5,.1,.9,.1c.5,0,.9,-.2,1.2,-.4c.3,-.3,.5,-.7,.5,-1.2c0,-.4,-.2,-.8,-.5,-1.1c-.3,-.3,-.7,-.4,-1.2,-.4c-.3,0,-.5,0,-.8,.1c-.2,0,-.5,.1,-.7,.2V579Z" class="gb_386"/>
<path d="M167.9,538.5h3.2v-.8h-3.2Z" class="gb_386"/>
<path d="M152.8,534.7c.7,0,1.3,.3,1.7,.9c.4,.6,.6,1.5,.6,2.6c0,1.2,-.2,2.1,-.6,2.7c-.4,.6,-1,.9,-1.7,.9c-.8,0,-1.4,-.3,-1.8,-.9c-.4,-.6,-.6,-1.5,-.6,-2.7c0,-1.1,.2,-2,.6,-2.6c.4,-.6,1,-.9,1.8,-.9Zm0,.8c-.5,0,-.9,.2,-1.1,.7c-.2,.4,-.3,1.1,-.3,2c0,1,.1,1.7,.3,2.1c.2,.5,.6,.7,1.1,.7c.4,0,.8,-.2,1,-.7c.3,-.4,.4,-1.1,.4,-2.1c0,-.9,-.1,-1.6,-.4,-2c-.2,-.5,-.6,-.7,-1,-.7Z" class="gb_386"/>
<path d="M156.7,541.6h1v-1.1h-1Z" class="gb_386"/>
<path d="M161.6,534.7c.8,0,1.4,.3,1.8,.9c.4,.6,.6,1.5,.6,2.6c0,1.2,-.2,2.1,-.6,2.7c-.4,.6,-1,.9,-1.8,.9c-.7,0,-1.3,-.3,-1.7,-.9c-.4,-.6,-.6,-1.5,-.6,-2.7c0,-1.1,.2,-2,.6,-2.6c.4,-.6,1,-.9,1.7,-.9Zm0,.8c-.4,0,-.8,.2,-1,.7c-.3,.4,-.4,1.1,-.4,2c0,1,.1,1.7,.4,2.1c.2,.5,.6,.7,1,.7c.5,0,.9,-.2,1.1,-.7c.3,-.4,.4,-1.1,.4,-2.1c0,-.9,-.1,-1.6,-.4,-2c-.2,-.5,-.6,-.7,-1.1,-.7Z" class="gb_386"/>
<path d="M167.9,494.3h3.2v-.8h-3.2Z" class="gb_386"/>
<path d="M152.8,490.5c.7,0,1.3,.3,1.7,.9c.4,.6,.6,1.5,.6,2.7c0,1.1,-.2,2,-.6,2.6c-.4,.6,-1,.9,-1.7,.9c-.8,0,-1.4,-.3,-1.8,-.9c-.4,-.6,-.6,-1.5,-.6,-2.6c0,-1.2,.2,-2.1,.6,-2.7c.4,-.6,1,-.9,1.8,-.9Zm0,.8c-.5,0,-.9,.2,-1.1,.7c-.2,.4,-.3,1.1,-.3,2.1c0,.9,.1,1.6,.3,2.1c.2,.4,.6,.7,1.1,.7c.4,0,.8,-.3,1,-.7c.3,-.5,.4,-1.2,.4,-2.1c0,-1,-.1,-1.7,-.4,-2.1c-.2,-.5,-.6,-.7,-1,-.7Z" class="gb_386"/>
<path d="M156.7,497.4h1v-1.1h-1Z" class="gb_386"/>
<path d="M159.7,490.7h3.6v.7h-2.8v1.7l.4,-.1h.4c.8,0,1.4,.2,1.8,.6c.5,.4,.7,1,.7,1.7c0,.7,-.2,1.3,-.7,1.7c-.4,.4,-1.1,.6,-1.9,.6c-.3,0,-.6,0,-.9,-.1c-.3,0,-.6,-.1,-.9,-.2v-.9c.3,.1,.6,.2,.9,.3c.2,.1,.6,.1,.9,.1c.5,0,.9,-.1,1.2,-.4c.3,-.3,.5,-.7,.5,-1.1c0,-.5,-.2,-.9,-.5,-1.1c-.3,-.3,-.7,-.5,-1.2,-.5c-.3,0,-.5,.1,-.8,.1c-.2,.1,-.5,.2,-.7,.3v-3.4Z" class="gb_386"/>
<path d="M167.9,450.1h3.2v-.7h-3.2Z" class="gb_386"/>
<path d="M151,452.5h1.5v-5.2l-1.7,.3v-.8l1.7,-.3h.9v6h1.5v.8H151v-.8Z" class="gb_386"/>
<path d="M156.7,453.3h1v-1.2h-1Z" class="gb_386"/>
<path d="M161.6,446.4c.8,0,1.4,.3,1.8,.9c.4,.6,.6,1.4,.6,2.6c0,1.1,-.2,2,-.6,2.6c-.4,.6,-1,.9,-1.8,.9c-.7,0,-1.3,-.3,-1.7,-.9c-.4,-.6,-.6,-1.5,-.6,-2.6c0,-1.2,.2,-2,.6,-2.6c.4,-.6,1,-.9,1.7,-.9Zm0,.7c-.4,0,-.8,.2,-1,.7c-.3,.4,-.4,1.1,-.4,2.1c0,.9,.1,1.6,.4,2.1c.2,.4,.6,.7,1,.7c.5,0,.9,-.3,1.1,-.7c.3,-.5,.4,-1.2,.4,-2.1c0,-1,-.1,-1.7,-.4,-2.1c-.2,-.5,-.6,-.7,-1.1,-.7Z" class="gb_386"/>
<path d="M236,662.2h.2l2.5,-.4h-.1l2.5,-.4l2.5,-.3l2.5,-.3l2.5,-.3l2.5,-.3l2.5,-.3l2.1,-.2l.4,-.1l2.5,-.2l2.5,-.2l2.5,-.2l2.5,-.2l2.5,-.2l2.5,-.2l2.5,-.1l2.5,-.2l2.5,-.1l2.5,-.1l2.5,-.1h2.5l2.5,-.1h12.5l2.5,.1h2.5l2.5,.1l2.5,.1l2.5,.1l2.5,.2H316l2.5,.1l2.5,.2l2.5,.2l2.5,.2l2.5,.2l2.5,.2l2.5,.2l.4,.1l2.1,.2l2.5,.3l2.5,.3l2.5,.3l2.5,.3l2.5,.3l2.5,.4l2.5,.4h.1l.2,-.8h-.2c-5.8,-.9,-11.6,-1.6,-17.5,-2.2l-2.1,-.3h-.4c-25.8,-2.7,-51.8,-2.7,-77.6,0h-.3l-2.1,.3c-5.9,.6,-11.7,1.3,-17.6,2.2h-.1l.1,.8Z" class="gc_386"/>
<path d="M171.2,651.8l2.5,-.9l2.5,-.8l1.2,-.4l1.3,-.5l2.5,-.8l2.5,-.9l1.1,-.3l1.4,-.5l2.5,-.8l2.5,-.8l1.4,-.4l1.1,-.4l2.5,-.8l2.5,-.7l2,-.6l.5,-.2l2.5,-.7l2.5,-.8l2.5,-.7l.6,-.1l1.9,-.6l2.5,-.6l2.5,-.7l2.4,-.6h.1l2.5,-.7l2.5,-.6l2.5,-.6l2.5,-.6h.2l2.3,-.5l2.5,-.6l2.5,-.5l2.5,-.5l2.1,-.4l.4,-.1l2.5,-.5l2.5,-.4l2.5,-.4l2.5,-.4h-.1l2.5,-.4l2.1,-.3l.4,-.1l2.5,-.3l2.5,-.3l2.5,-.3l2.5,-.3l2.5,-.3l2.5,-.2l2.5,-.2l2.5,-.2l2.5,-.2l2.5,-.1v-.4v.4l2.5,-.1l2.5,-.1l2.5,-.1h2.5l2.5,-.1h2.5l2.5,.1h2.5l2.5,.1l2.5,.1l2.5,.1l2.5,.1H311l2.5,.2l2.5,.2l2.5,.2l2.5,.2l2.5,.3l2.5,.3l2.5,.3l2.5,.3l2.5,.3l.5,.1l2,.3l2.5,.4l2.5,.4l2.5,.4l2.5,.4l2.5,.5l.4,.1l2.1,.4l2.5,.5l2.5,.5l2.5,.6l2.2,.5h.3l2.5,.6l2.5,.6l2.5,.6l2.5,.7l2.5,.6l2.5,.7l2.5,.6l1.9,.6l.6,.1h-.1l2.5,.7l2.5,.8l2.5,.7l.6,.2l1.9,.6l2.5,.7l2.5,.8l1.2,.4l1.3,.4l2.5,.8l2.5,.8l1.4,.5l1.1,.3l2.5,.9l2.5,.8l1.3,.5l1.2,.4l2.5,.8l2.5,.9l.3,-.7l-2.5,-.9l-2.5,-.8l-1.2,-.4l-1.3,-.5l-2.5,-.9l-2.5,-.8l-1.1,-.3l-1.4,-.5l-2.5,-.8l-2.5,-.8l-1.4,-.4l-1.1,-.4l-2.5,-.8l-2.5,-.8l-2,-.5l-.5,-.2l-2.5,-.8l-2.5,-.7l-2.5,-.7l-.6,-.1l-1.9,-.6c-4.2,-1.1,-8.4,-2.2,-12.6,-3.2l-2.5,-.6l-2.5,-.6l-.2,-.1l-2.3,-.5l-2.5,-.5l-2.5,-.5l-2.5,-.5l-2.1,-.5h-.4c-5.8,-1.2,-11.6,-2.1,-17.5,-2.9l-2.5,-.3c-5.8,-.7,-11.6,-1.3,-17.5,-1.6l-2.5,-.2c-9.2,-.4,-18.4,-.4,-27.5,0H281l-2.4,.2c-7.6,.4,-15.1,1.2,-22.6,2.3h-.4l-2.1,.3l-2.5,.4l-2.5,.4l-2.5,.4v.1l-2.5,.4l-2.5,.5h-.3l-2.2,.5l-2.5,.5l-2.5,.5l-2.5,.5l-2.2,.5l-.3,.1l-2.5,.6l-2.5,.6l-2.5,.6l-2.5,.6c-2.5,.7,-5,1.3,-7.5,2l-1.9,.6l-.6,.1l-2.5,.7l-2.5,.7l-2.5,.8l-.6,.2l-1.9,.5l-2.5,.8l-2.5,.8l-1.2,.4l-1.3,.4l-2.5,.8L186,646l-1.4,.5l-1.1,.3l-2.5,.8l-2.5,.9l-1.3,.5l-1.2,.4l-2.5,.8l-2.5,.9l.2,.7Z" class="gc_386"/>
<path d="M171.3,618.5l15,-7.6c85.6,-42.5,134.6,-41.2,219.6,1.3l10,5l2.5,1.3l.3,-.7l-2.5,-1.3C380.9,598.7,343.7,581.3,303.6,579.2l-5,-.2c-40.3,-1.1,-77.1,13.8,-112.7,31.2l-15,7.6l.4,.7Z" class="gc_386"/>
<path d="M171.4,565.8l12.4,-10.4l7.5,-5.9c29.1,-22.7,60,-37.7,97.3,-39.4l5,-.1l5,.1c39.5,1.1,71.6,17.1,102.2,41.3l7.5,6l10,8.4l.5,-.6l-10,-8.4C375.9,529.5,342.2,510.6,298.6,509.3h-5c-43.3,.5,-77.4,18.6,-110.2,45.5l-12.5,10.4l.5,.6Z" class="gc_386"/>
<path d="M171.3,496.2l5.6,-4c65.8,-46.6,174.6,-46,239.3,2.5l2.1,1.5l.5,-.6l-2.1,-1.5C351.8,445.4,242.4,444.8,176.5,491.6l-5.6,4l.4,.6Z" class="gc_386"/>
<path d="M171.3,449.5l2.5,-1.1l2.5,-1.1v-.1l2.5,-1l2.5,-1l1,-.5l1.5,-.5h-.1l2.5,-1l2.5,-.9l.1,-.1l2.4,-.8l2.5,-.9l2.3,-.8h.2l2.5,-.8l2.5,-.8l2.5,-.8l.2,-.1l2.3,-.6l2.5,-.7l2.5,-.7l1.7,-.5l.8,-.2l2.5,-.6l2.5,-.6l2.5,-.6l2.1,-.5h.4l2.5,-.6l2.5,-.5l2.5,-.5l2.5,-.5l2.1,-.3l.4,-.1l2.5,-.4l2.5,-.4l2.5,-.4h-.1l2.5,-.4l2.5,-.3l2.5,-.4l1.4,-.1l1.1,-.2l2.5,-.3l2.5,-.2l2.5,-.3l2.5,-.2l2.5,-.2l2.5,-.2l2.5,-.2l2.5,-.2l2.5,-.1l2.5,-.2l2.5,-.1l2.5,-.1h3.3l1.7,-.1h12.5l1.7,.1h3.3l2.5,.1l2.5,.1l2.5,.2l2.4,.1l2.5,.2l2.5,.2l2.5,.2l2.5,.2l2.5,.2l2.5,.3l2.5,.2l2.5,.3l1.2,.2l1.3,.1l2.5,.4l2.5,.3l2.5,.4l2.5,.4l2.5,.4l2.5,.4l.3,.1l2.2,.3l2.5,.5l2.5,.5l2.5,.5l2.5,.6h.4l2.1,.5l2.5,.6l2.5,.6l2.5,.6l.8,.2l1.7,.5l2.5,.7h-.1l2.5,.7l2.3,.6l.2,.1l2.5,.8l2.5,.8l2.5,.8h.3l2.2,.8l2.5,.9l2.4,.8l.1,.1l2.5,.9l2.5,1l1.4,.5l1.1,.5l2.5,1l2.4,1l.1,.1l2.5,1.1l2.5,1.1l.3,-.7l-2.5,-1.1C379,431,336.7,424.1,296.1,423.9h-5c-39.8,.5,-81.1,7.5,-117.6,23.8l-2.5,1.1l.3,.7Z" class="gc_386"/>
<path d="M171.2,418.9l2.5,-.8l2.5,-.8l.1,-.1l2.4,-.7l2.5,-.7l2.5,-.8l1,-.3l-.2,-.7l-1,.3L181,415l-2.5,.8l-2.5,.7l-2.5,.8l-2.5,.8l.2,.8Z" class="gc_386"/>
<path d="M404.9,414.7l1,.3l2.5,.8l2.5,.7l2.5,.7v.1l2.5,.8V418l2.5,.9l.3,-.8l-2.5,-.8l-2.5,-.8h-.1l-2.4,-.7l-2.5,-.8l-2.5,-.7h-.1l-.9,-.3l-.3,.7Z" class="gc_386"/>
<path d="M170.7,662.2h.8V414h-.8Z" class="gb_386"/>
<path d="M418.2,662.2h.7V414h-.7Z" class="gb_386"/>
<path d="M170.7,662.2H418.9v-.8H170.7Z" class="gb_386"/>
<path d="M170.7,414.8H418.9V414H170.7Z" class="gb_386"/>
<path d="M435.1,661.8h12.4V414.4H435.1Z" class="g1_386"/>
<path d="M435.1,661.8h12.4V641.2H435.1Z" class="gd_386"/>
<path d="M435.1,641.2h12.4V620.6H435.1Z" class="ge_386"/>
<path d="M435.1,620.6h12.4V600H435.1Z" class="gf_386"/>
<path d="M435.1,600h12.4V579.3H435.1Z" class="gg_386"/>
<path d="M435.1,579.3h12.4V558.7H435.1Z" class="g2_386"/>
<path d="M435.1,558.7h12.4V538.1H435.1Z" class="g3_386"/>
<path d="M435.1,538.1h12.4V517.5H435.1Z" class="g4_386"/>
<path d="M435.1,517.5h12.4V496.9H435.1Z" class="g5_386"/>
<path d="M435.1,496.9h12.4V476.2H435.1Z" class="g6_386"/>
<path d="M435.1,476.2h12.4V455.6H435.1Z" class="g7_386"/>
<path d="M435.1,455.6h12.4V435H435.1Z" class="g8_386"/>
<path d="M435.1,435h12.4V414.4H435.1Z" class="gh_386"/>
<path d="M447.5,662.2h3.3v-.8h-3.3Z" class="gb_386"/>
<path d="M455,662.8h5.8V662H455Z" class="gb_386"/>
<path d="M463,664.6h1.5v-5.2l-1.7,.3v-.8l1.7,-.3h.9v6h1.5v.7H463v-.7Z" class="gb_386"/>
<path d="M468.7,658.6h3.6v.7h-2.7V661l.4,-.1h.4c.7,0,1.3,.2,1.8,.6c.4,.4,.6,1,.6,1.7c0,.7,-.2,1.3,-.6,1.7c-.5,.4,-1.1,.6,-2,.6c-.3,0,-.5,-.1,-.8,-.1c-.3,0,-.6,-.1,-1,-.2v-.9c.3,.1,.6,.2,.9,.3c.3,.1,.6,.1,.9,.1c.5,0,.9,-.1,1.3,-.4c.3,-.3,.4,-.7,.4,-1.1c0,-.5,-.1,-.9,-.4,-1.2c-.4,-.2,-.8,-.4,-1.3,-.4c-.2,0,-.5,.1,-.7,.1c-.3,.1,-.5,.2,-.8,.3v-3.4Z" class="gb_386"/>
<path d="M447.5,621h3.3v-.8h-3.3Z" class="gb_386"/>
<path d="M455,621.6h5.8v-.8H455Z" class="gb_386"/>
<path d="M463,623.3h1.5v-5.1l-1.7,.3v-.8l1.7,-.4h.9v6h1.5v.8H463v-.8Z" class="gb_386"/>
<path d="M470.7,617.2c.7,0,1.3,.3,1.7,.9c.4,.6,.6,1.5,.6,2.6c0,1.2,-.2,2,-.6,2.6c-.4,.6,-1,.9,-1.7,.9c-.8,0,-1.4,-.3,-1.8,-.9c-.4,-.6,-.6,-1.4,-.6,-2.6c0,-1.1,.2,-2,.6,-2.6c.4,-.6,1,-.9,1.8,-.9Zm0,.7c-.5,0,-.8,.3,-1.1,.7c-.2,.5,-.3,1.2,-.3,2.1c0,1,.1,1.6,.3,2.1c.3,.5,.6,.7,1.1,.7c.5,0,.8,-.2,1.1,-.7c.2,-.5,.3,-1.1,.3,-2.1c0,-.9,-.1,-1.6,-.3,-2.1c-.3,-.4,-.6,-.7,-1.1,-.7Z" class="gb_386"/>
<path d="M447.5,579.7h3.3V579h-3.3Z" class="gb_386"/>
<path d="M455,580.3h5.8v-.7H455Z" class="gb_386"/>
<path d="M462.8,576.1h3.6v.8h-2.7v1.6l.4,-.1h.4c.7,0,1.3,.2,1.8,.6c.4,.4,.6,1,.6,1.7c0,.7,-.2,1.3,-.7,1.7c-.4,.4,-1.1,.6,-1.9,.6c-.3,0,-.6,0,-.9,-.1c-.2,0,-.6,-.1,-.9,-.2v-.9c.3,.1,.6,.2,.9,.3c.3,.1,.6,.1,.9,.1c.5,0,.9,-.1,1.2,-.4c.3,-.3,.5,-.6,.5,-1.1c0,-.5,-.2,-.9,-.5,-1.1c-.3,-.3,-.7,-.4,-1.2,-.4c-.2,0,-.5,0,-.7,0c-.3,.1,-.5,.2,-.8,.3v-3.4Z" class="gb_386"/>
<path d="M447.5,538.5h3.3v-.8h-3.3Z" class="gb_386"/>
<path d="M457,534.7c.7,0,1.3,.3,1.7,.9c.4,.6,.6,1.5,.6,2.6c0,1.2,-.2,2.1,-.6,2.7c-.4,.6,-1,.9,-1.7,.9c-.8,0,-1.4,-.3,-1.8,-.9c-.4,-.6,-.6,-1.5,-.6,-2.7c0,-1.1,.2,-2,.6,-2.6c.4,-.6,1,-.9,1.8,-.9Zm0,.8c-.5,0,-.8,.2,-1.1,.7c-.2,.4,-.3,1.1,-.3,2c0,1,.1,1.7,.3,2.1c.3,.5,.6,.7,1.1,.7c.5,0,.8,-.2,1,-.7c.3,-.4,.4,-1.1,.4,-2.1c0,-.9,-.1,-1.6,-.4,-2c-.2,-.5,-.5,-.7,-1,-.7Z" class="gb_386"/>
<path d="M447.5,497.2h3.3v-.7h-3.3Z" class="gb_386"/>
<path d="M455,493.6h3.6v.8h-2.7V496l.4,-.1h.4c.7,0,1.3,.2,1.8,.6c.4,.4,.6,1,.6,1.7c0,.7,-.2,1.3,-.7,1.7c-.4,.4,-1.1,.6,-1.9,.6c-.3,0,-.6,0,-.8,0c-.3,-.1,-.6,-.2,-1,-.3v-.9c.3,.2,.6,.3,.9,.3c.3,.1,.6,.2,.9,.2c.5,0,.9,-.2,1.2,-.5c.4,-.2,.5,-.6,.5,-1.1c0,-.5,-.1,-.8,-.5,-1.1c-.3,-.3,-.7,-.4,-1.2,-.4c-.2,0,-.5,0,-.7,.1c-.3,0,-.5,.1,-.8,.2v-3.4Z" class="gb_386"/>
<path d="M447.5,456h3.3v-.8h-3.3Z" class="gb_386"/>
<path d="M455.2,458.4h1.5v-5.2l-1.7,.3v-.8l1.7,-.3h.9v6h1.5v.8h-3.9v-.8Z" class="gb_386"/>
<path d="M462.9,452.3c.8,0,1.3,.3,1.7,.9c.4,.6,.6,1.4,.6,2.6c0,1.1,-.2,2,-.6,2.6c-.4,.6,-.9,.9,-1.7,.9c-.8,0,-1.3,-.3,-1.7,-.9c-.4,-.6,-.6,-1.5,-.6,-2.6c0,-1.2,.2,-2,.6,-2.6c.4,-.6,.9,-.9,1.7,-.9Zm0,.7c-.5,0,-.8,.2,-1.1,.7c-.2,.4,-.3,1.1,-.3,2.1c0,.9,.1,1.6,.3,2.1c.3,.4,.6,.7,1.1,.7c.5,0,.8,-.3,1.1,-.7c.2,-.5,.3,-1.2,.3,-2.1c0,-1,-.1,-1.7,-.3,-2.1c-.3,-.5,-.6,-.7,-1.1,-.7Z" class="gb_386"/>
<path d="M447.5,414.8h3.3V414h-3.3Z" class="gb_386"/>
<path d="M455.2,417.1h1.5V412l-1.7,.3v-.8l1.7,-.4h.9v6h1.5v.8h-3.9v-.8Z" class="gb_386"/>
<path d="M460.9,411.1h3.6v.8h-2.7v1.7l.4,-.1l.4,-.1c.7,0,1.3,.2,1.8,.7c.4,.4,.6,.9,.6,1.6c0,.8,-.2,1.3,-.6,1.7c-.5,.4,-1.1,.6,-2,.6c-.2,0,-.5,0,-.8,0c-.3,-.1,-.6,-.1,-.9,-.2v-1c.2,.2,.5,.3,.8,.4c.3,0,.6,.1,.9,.1c.5,0,1,-.2,1.3,-.4c.3,-.3,.4,-.7,.4,-1.2c0,-.4,-.1,-.8,-.4,-1.1c-.3,-.3,-.8,-.4,-1.3,-.4c-.2,0,-.5,0,-.7,.1c-.3,0,-.5,.1,-.8,.2v-3.4Z" class="gb_386"/>
<path d="M435.1,661.8v.4h12.8V414H434.8V662.2h.3v-.4h.4v-247h11.6V661.4h-12v.4h.4h-.4Z" class="gb_386"/>
</svg>