<?xml version="1.0" encoding="UTF-8" standalone="no"?>
<!DOCTYPE svg PUBLIC "-//W3C//DTD SVG 1.1//EN"
"http://www.w3.org/Graphics/SVG/1.1/DTD/svg11.dtd">
<svg viewBox="0 0 811 1017" version="1.1" xmlns="http://www.w3.org/2000/svg" xmlns:xlink="http://www.w3.org/1999/xlink">
<defs>
<clipPath id="c0_60"><path d="M142.4,577.5v-330h440v330Z"/></clipPath>
<style type="text/css"><![CDATA[
.g0_60{
fill: #0E0E0E;
}
]]></style>
</defs>
<path d="M591,92.3h-1.1V83.7H591Zm-1.8,.6h2.5v-4h1.1l2.9,4h3l-3.1,-4.2c1.2,-.4,1.9,-1.4,1.9,-2.7c0,-2.1,-1.6,-2.9,-3.5,-2.9h-4.8v9.8Zm8.3,-.6H596l-2.4,-3.4c.4,0,.8,0,1.3,-.1l2.6,3.5Zm-2.7,-4.1c-.2,0,-.5,0,-.8,0h-2.3V83.7h2.4c.2,0,.5,.1,.7,.2v4.3Zm.7,-4.3c.9,.4,1.4,1.1,1.4,2.1c0,.9,-.6,1.8,-1.4,2.1V83.9Z" class="g0_60"/>
<path d="M460.7,191.6h-1.1V183h1.1Zm-1.8,.6h2.5v-4h1.1l2.9,4h3L465.2,188c1.3,-.4,2,-1.4,2,-2.7c0,-2.1,-1.6,-2.9,-3.5,-2.9h-4.8v9.8Zm8.3,-.6h-1.5l-2.4,-3.4c.4,0,.8,0,1.3,-.1l2.6,3.5Zm-2.7,-4.1c-.3,0,-.5,0,-.8,0h-2.3V183h2.4c.2,0,.5,.1,.7,.2v4.3Zm.7,-4.2c.8,.4,1.3,1,1.3,2c0,1,-.5,1.8,-1.3,2.2v-4.2Z" class="g0_60"/>
<path d="M649.2,191.6H648V183h1.2Zm-1.8,.6h2.5v-4H651l2.9,4h3L653.7,188c1.3,-.4,2,-1.4,2,-2.7c0,-2.1,-1.7,-2.9,-3.6,-2.9h-4.7v9.8Zm8.2,-.6h-1.4l-2.5,-3.4c.5,0,.9,0,1.3,-.1l2.6,3.5ZM653,187.5c-.3,0,-.6,0,-.8,0h-2.3V183h2.3c.3,0,.6,.1,.8,.2v4.3Zm.6,-4.2c.9,.4,1.4,1,1.4,2c0,1,-.5,1.8,-1.4,2.2v-4.2Z" class="g0_60"/>
<image clip-path="url(#c0_60)" preserveAspectRatio="none" x="142" y="248" width="440" height="330" xlink:href="img/1.jpg"/>
<path d="M159.5,700.2h-1.2v-8.6h1.2Zm-1.8,.6h2.4v-4h1.1l2.9,4h3.1L164,696.6c1.3,-.4,2,-1.4,2,-2.7c0,-2.1,-1.7,-2.9,-3.6,-2.9h-4.7v9.8Zm8.2,-.6h-1.4L162,696.8c.5,0,.9,0,1.3,-.1l2.6,3.5Zm-2.6,-4.1c-.3,0,-.6,0,-.8,0h-2.4v-4.5h2.4c.3,0,.6,.1,.8,.1v4.4Zm.6,-4.3c.9,.4,1.4,1.1,1.4,2.1c0,.9,-.5,1.8,-1.4,2.1v-4.2Z" class="g0_60"/>
<path d="M266,759.7h-1.2v-8.5H266Zm-1.8,.7h2.4v-4h1.1l2.9,4h3.1l-3.2,-4.2c1.3,-.4,1.9,-1.4,1.9,-2.7c0,-2.2,-1.6,-2.9,-3.5,-2.9h-4.7v9.8Zm8.2,-.7H271l-2.5,-3.3c.4,0,.9,0,1.3,-.1l2.6,3.4Zm-2.6,-4.1c-.3,.1,-.6,.1,-.9,.1h-2.3v-4.5H269c.2,0,.5,.1,.8,.1v4.3Zm.6,-4.2c.9,.4,1.4,1.1,1.4,2.1c0,.9,-.5,1.8,-1.4,2.1v-4.2Z" class="g0_60"/>
<path d="M488.3,759.7h-1.1v-8.5h1.1Zm-1.8,.7H489v-4h1.1l2.9,4h3l-3.1,-4.2c1.2,-.4,1.9,-1.4,1.9,-2.7c0,-2.2,-1.6,-2.9,-3.5,-2.9h-4.8v9.8Zm8.3,-.7h-1.5l-2.4,-3.3c.4,0,.8,0,1.3,-.1l2.6,3.4Zm-2.7,-4.1c-.2,.1,-.5,.1,-.8,.1H489v-4.5h2.4c.2,0,.5,.1,.7,.1v4.3Zm.7,-4.2c.9,.4,1.4,1.1,1.4,2.1c0,.9,-.6,1.8,-1.4,2.1v-4.2Z" class="g0_60"/>
</svg>