<?xml version="1.0" encoding="UTF-8" standalone="no"?>
<!DOCTYPE svg PUBLIC "-//W3C//DTD SVG 1.1//EN"
"http://www.w3.org/Graphics/SVG/1.1/DTD/svg11.dtd">
<svg viewBox="0 0 811 1017" version="1.1" xmlns="http://www.w3.org/2000/svg" xmlns:xlink="http://www.w3.org/1999/xlink">
<defs>
<clipPath id="c0_348"><path d="M104.1,319.3V82.5H710.7V319.3Z"/></clipPath>
<clipPath id="c1_348"><path d="M142.4,796.2V530.4H473.9V796.2Z"/></clipPath>
<style type="text/css"><![CDATA[
.g0_348{
fill: #FFF;
}
.g1_348{
fill: #7E95CC;
}
.g2_348{
fill: #B3C8E7;
}
.g3_348{
fill: #EDF7FA;
}
.g4_348{
fill: #ECD7CC;
}
.g5_348{
fill: #F6BDA1;
}
.g6_348{
fill: #F4997B;
}
.g7_348{
fill: #E56C56;
}
.g8_348{
fill: #BD4441;
}
.g9_348{
fill: #040504;
}
.ga_348{
fill: #181818;
}
.gb_348{
fill: #343433;
}
.gc_348{
fill: #2E3A97;
}
.gd_348{
fill: #4458A6;
}
]]></style>
</defs>
<path d="M135.8,305.7H355.9V85.6H135.8Z" class="g0_348"/>
<path d="M218,216.9l2.2,.4l2.3,.3c26.2,.7,32.4,-35,7.4,-43.1l-.8,-.2l-2.2,-.5c-26,-2.8,-35.2,31.9,-11.1,42.3l1.9,.6l.3,.2Z" class="g1_348"/>
<path d="M217.7,216.7l-1.9,-.6l-2.2,-1c-22.7,-12.9,-9.9,-46.3,15.5,-40.8l.8,.2l1.5,.4c24.7,10.1,15.3,45.8,-11.2,42.4l-2.2,-.4l-.3,-.2Zm.3,22.6l2.2,.2l2.3,.1c54.6,-.4,62.3,-75.9,8.9,-87.4l-2.3,-.3l-2.2,-.2c-55.4,-1.7,-65.2,74.9,-11.1,87.2l2.2,.4Z" class="g2_348"/>
<path d="M224.7,261.6h-2.2l-2.3,-.1l-2.2,-.1c-32.8,-3,-58.4,-29.5,-60.1,-62.5l-.1,-2.2v-2.2c.6,-33.9,26.5,-61.6,60.2,-64.7l2.2,-.1l2.3,-.1h2.2l2.2,.1c33.2,1.6,59.9,27.3,62.7,60.4l.2,2.2v2.2c.5,34,-24.7,62.8,-58.4,66.7l-2.3,.2l-2.2,.2h-2.2ZM179.8,196.7l.1,2.2l.2,2.3c9,53.7,84.2,49.8,87.7,-4.5v-2.2l-.1,-2.2c-6.2,-54.1,-81.6,-54.1,-87.8,0l-.1,2.2v2.2Z" class="g3_348"/>
<path d="M216.2,261.2h-.4l-2.2,-.4l-2.2,-.3C178.2,254,155.3,223.9,158,190.2v-.1l.2,-2.3c4.2,-34.4,34,-59.7,68.7,-58.1l2.2,.1l2.3,.2l2.2,.3c33.6,5.1,57.8,34.7,56.2,68.6l-.2,2.3l-.2,2.2c-4.1,33.8,-32.9,58.9,-66.9,58.2l-2.3,-.1l-2.2,-.1l-1.8,-.2Zm1.8,22.3l2.2,.1h4.5c45.3,-.5,82.7,-35.1,86.8,-80.2l.2,-2.2l.1,-2.3c1.7,-46.1,-32.3,-85.6,-78.2,-90.8l-2.2,-.2l-1.4,-.1l-.9,-.1l-2.2,-.1c-46,-1.5,-85.3,32.3,-90.6,78l-.2,2.2l-.2,2.3c-2.8,46.8,31.2,87.4,77.7,93l2.2,.2l1.8,.1l.4,.1Z" class="g4_348"/>
<g clip-path="url(#c0_348)">
<path d="M217.6,283.4l-1.8,-.1l-2.2,-.2l-2.2,-.3c-46.4,-6.7,-79.3,-48.2,-75.3,-95l.2,-2.2l.3,-2.2c6.5,-45.5,46.6,-78.4,92.5,-75.7l.9,.1l1.4,.1l2.2,.2l2.2,.3c45.7,6.4,78.7,46.6,75.9,92.8l-.2,2.2l-.1,1c-4.6,45.5,-43.1,79.9,-88.9,79.2h-2.3l-2.2,-.1l-.4,-.1Zm-15.1,20.2l2.2,.4l2.2,.4C292.7,317,358.5,232.4,325,152.3l-.3,-.5L324,150C289.5,75.5,190,62.8,138,126.7l-.9,1.1l-1.3,1.8v132l1.3,1.8c16.1,20.6,39.1,34.8,64.7,40l.7,.2Z" class="g5_348"/>
<path d="M149.1,304.5l1.7,1.2h146l1.3,-.9c77,-53,77,-165.4,0,-218.4l-1.3,-.8h-146l-1.7,1.1c-4.7,3.2,-9.1,6.7,-13.3,10.5v32.4l1.3,-1.8l.9,-1.1C203.7,47.4,329.2,90,333.8,192.3v4.4C331.2,300.2,204.5,344.6,138,264.5l-.9,-1.1l-1.3,-1.8V294c3.7,3.4,7.7,6.5,11.8,9.4l1.5,1.1Z" class="g6_348"/>
</g>
<path d="M138,305.7h12.8l-1.7,-1.2c-4.5,-3,-8.7,-6.4,-12.8,-10l-.5,-.5v11.7H138Z" class="g7_348"/>
<path d="M298.1,305.7h33.5l2,-2c8,-8.2,15.2,-17.2,21.2,-26.9l1.1,-1.8V116.3l-1.1,-1.8c-6,-9.7,-13.2,-18.8,-21.2,-26.9l-2,-2H296.8l1.3,.8c77,53,77,165.4,0,218.4l-1.3,.9h1.3Z" class="g7_348"/>
<path d="M136.3,96.7L138,95.2c3.5,-3,7.2,-5.8,11.1,-8.5l1.7,-1.1h-15V97.2l.5,-.5Z" class="g7_348"/>
<path d="M355.9,305.7H331.6l2,-2c8,-8.2,15.2,-17.2,21.2,-26.9l1.1,-1.8v30.7Z" class="g8_348"/>
<path d="M355.9,116.3l-1.1,-1.8c-6,-9.7,-13.2,-18.8,-21.2,-26.9l-2,-2h24.3v30.7Z" class="g8_348"/>
<path d="M135.4,308.6h.7v-2.9h-.7Z" class="g9_348"/>
<path d="M124,315.5h5.1v-.7H124Z" class="g9_348"/>
<path d="M131.1,317h1.3v-4.6l-1.5,.3V312l1.5,-.3h.8V317h1.3v.7h-3.4V317Z" class="g9_348"/>
<path d="M137.9,311.6c.7,0,1.2,.3,1.6,.8c.3,.5,.5,1.3,.5,2.3c0,1,-.2,1.8,-.5,2.4c-.4,.5,-.9,.8,-1.6,.8c-.7,0,-1.2,-.3,-1.5,-.8c-.4,-.6,-.6,-1.4,-.6,-2.4c0,-1,.2,-1.8,.6,-2.3c.3,-.5,.8,-.8,1.5,-.8Zm0,.6c-.4,0,-.7,.2,-.9,.7c-.2,.4,-.3,1,-.3,1.8c0,.9,.1,1.5,.3,1.9c.2,.4,.5,.6,.9,.6c.4,0,.8,-.2,1,-.6c.2,-.4,.3,-1,.3,-1.9c0,-.8,-.1,-1.4,-.3,-1.8c-.2,-.5,-.6,-.7,-1,-.7Z" class="g9_348"/>
<path d="M141.4,317.7h.9v-1h-.9Z" class="g9_348"/>
<path d="M145.8,311.6c.7,0,1.2,.3,1.6,.8c.3,.5,.5,1.3,.5,2.3c0,1,-.2,1.8,-.5,2.4c-.4,.5,-.9,.8,-1.6,.8c-.7,0,-1.2,-.3,-1.5,-.8c-.4,-.6,-.6,-1.4,-.6,-2.4c0,-1,.2,-1.8,.6,-2.3c.3,-.5,.8,-.8,1.5,-.8Zm0,.6c-.4,0,-.7,.2,-.9,.7c-.3,.4,-.4,1,-.4,1.8c0,.9,.1,1.5,.4,1.9c.2,.4,.5,.6,.9,.6c.4,0,.7,-.2,1,-.6c.2,-.4,.3,-1,.3,-1.9c0,-.8,-.1,-1.4,-.3,-1.8c-.3,-.5,-.6,-.7,-1,-.7Z" class="g9_348"/>
<path d="M162.9,308.6h.8v-2.9h-.8Z" class="g9_348"/>
<path d="M154.1,315.5h5.2v-.7h-5.2Z" class="g9_348"/>
<path d="M160.8,311.7h3.9v.4l-2.2,5.6h-.8l2,-5.3h-2.9v-.7Z" class="g9_348"/>
<path d="M166.3,317.7h.9v-1h-.9Z" class="g9_348"/>
<path d="M169,311.7h3.2v.7h-2.5v1.5l.4,-.1h.3c.7,0,1.2,.1,1.6,.5c.4,.4,.6,.9,.6,1.5c0,.7,-.2,1.2,-.6,1.5c-.4,.4,-1,.6,-1.7,.6c-.3,0,-.5,-.1,-.8,-.1c-.3,-.1,-.5,-.1,-.8,-.2v-.8c.2,.1,.5,.2,.7,.3c.3,0,.6,.1,.9,.1c.4,0,.8,-.2,1.1,-.4c.2,-.2,.4,-.6,.4,-1c0,-.4,-.2,-.8,-.4,-1c-.3,-.2,-.7,-.4,-1.1,-.4c-.2,0,-.5,.1,-.7,.1c-.2,.1,-.4,.1,-.6,.2v-3Z" class="g9_348"/>
<path d="M190.4,308.6h.8v-2.9h-.8Z" class="g9_348"/>
<path d="M181.6,315.5h5.2v-.7h-5.2Z" class="g9_348"/>
<path d="M188.6,311.7h3.2v.7h-2.5v1.5l.4,-.1h.3c.7,0,1.2,.1,1.6,.5c.4,.4,.6,.9,.6,1.5c0,.7,-.2,1.2,-.6,1.5c-.4,.4,-1,.6,-1.7,.6c-.2,0,-.5,-.1,-.8,-.1c-.2,-.1,-.5,-.1,-.8,-.2v-.8c.3,.1,.5,.2,.8,.3c.2,0,.5,.1,.8,.1c.5,0,.8,-.2,1.1,-.4c.3,-.2,.4,-.6,.4,-1c0,-.4,-.1,-.8,-.4,-1c-.3,-.2,-.6,-.4,-1.1,-.4c-.2,0,-.4,.1,-.7,.1c-.2,.1,-.4,.1,-.6,.2v-3Z" class="g9_348"/>
<path d="M193.8,317.7h.9v-1h-.9Z" class="g9_348"/>
<path d="M198.2,311.6c.7,0,1.2,.3,1.5,.8c.4,.5,.6,1.3,.6,2.3c0,1,-.2,1.8,-.6,2.4c-.3,.5,-.8,.8,-1.5,.8c-.7,0,-1.2,-.3,-1.5,-.8c-.4,-.6,-.6,-1.4,-.6,-2.4c0,-1,.2,-1.8,.6,-2.3c.3,-.5,.8,-.8,1.5,-.8Zm0,.6c-.4,0,-.7,.2,-.9,.7c-.3,.4,-.4,1,-.4,1.8c0,.9,.1,1.5,.4,1.9c.2,.4,.5,.6,.9,.6c.4,0,.7,-.2,1,-.6c.2,-.4,.3,-1,.3,-1.9c0,-.8,-.1,-1.4,-.3,-1.8c-.3,-.5,-.6,-.7,-1,-.7Z" class="g9_348"/>
<path d="M217.9,308.6h.8v-2.9h-.8Z" class="g9_348"/>
<path d="M209.1,315.5h5.2v-.7h-5.2Z" class="g9_348"/>
<path d="M216.8,317h2.8v.7h-3.8V317c.3,-.3,.7,-.7,1.3,-1.2c.5,-.6,.8,-.9,1,-1.1c.2,-.3,.4,-.5,.5,-.7c.1,-.2,.2,-.4,.2,-.6c0,-.4,-.1,-.6,-.4,-.8c-.2,-.2,-.5,-.3,-.8,-.3c-.3,0,-.6,0,-.9,.1c-.2,.1,-.5,.2,-.9,.4V312c.4,-.1,.7,-.2,1,-.3c.2,-.1,.5,-.1,.7,-.1c.7,0,1.2,.2,1.5,.5c.4,.3,.6,.7,.6,1.2c0,.3,-.1,.5,-.1,.7c-.1,.2,-.3,.5,-.6,.8c0,.1,-.2,.3,-.6,.7c-.4,.4,-.9,.9,-1.5,1.5Z" class="g9_348"/>
<path d="M221.3,317.7h.9v-1h-.9Z" class="g9_348"/>
<path d="M224,311.7h3.2v.7h-2.5v1.5l.4,-.1h.3c.7,0,1.2,.1,1.6,.5c.4,.4,.6,.9,.6,1.5c0,.7,-.2,1.2,-.6,1.5c-.4,.4,-1,.6,-1.7,.6c-.2,0,-.5,-.1,-.8,-.1c-.2,-.1,-.5,-.1,-.8,-.2v-.8c.3,.1,.5,.2,.8,.3c.2,0,.5,.1,.8,.1c.5,0,.8,-.2,1.1,-.4c.3,-.2,.4,-.6,.4,-1c0,-.4,-.1,-.8,-.4,-1c-.3,-.2,-.6,-.4,-1.1,-.4c-.2,0,-.4,.1,-.7,.1c-.2,.1,-.4,.1,-.6,.2v-3Z" class="g9_348"/>
<path d="M245.4,308.6h.8v-2.9h-.8Z" class="g9_348"/>
<path d="M241.9,311.6c.6,0,1.2,.3,1.5,.8c.4,.5,.6,1.3,.6,2.3c0,1,-.2,1.8,-.6,2.4c-.3,.5,-.9,.8,-1.5,.8c-.7,0,-1.2,-.3,-1.6,-.8c-.3,-.6,-.5,-1.4,-.5,-2.4c0,-1,.2,-1.8,.5,-2.3c.4,-.5,.9,-.8,1.6,-.8Zm0,.6c-.5,0,-.8,.2,-1,.7c-.2,.4,-.3,1,-.3,1.8c0,.9,.1,1.5,.3,1.9c.2,.4,.5,.6,1,.6c.4,0,.7,-.2,.9,-.6c.2,-.4,.3,-1,.3,-1.9c0,-.8,-.1,-1.4,-.3,-1.8c-.2,-.5,-.5,-.7,-.9,-.7Z" class="g9_348"/>
<path d="M245.4,317.7h.8v-1h-.8Z" class="g9_348"/>
<path d="M249.8,311.6c.6,0,1.2,.3,1.5,.8c.4,.5,.5,1.3,.5,2.3c0,1,-.1,1.8,-.5,2.4c-.3,.5,-.9,.8,-1.5,.8c-.7,0,-1.2,-.3,-1.6,-.8c-.3,-.6,-.5,-1.4,-.5,-2.4c0,-1,.2,-1.8,.5,-2.3c.4,-.5,.9,-.8,1.6,-.8Zm0,.6c-.5,0,-.8,.2,-1,.7c-.2,.4,-.3,1,-.3,1.8c0,.9,.1,1.5,.3,1.9c.2,.4,.5,.6,1,.6c.4,0,.7,-.2,.9,-.6c.2,-.4,.3,-1,.3,-1.9c0,-.8,-.1,-1.4,-.3,-1.8c-.2,-.5,-.5,-.7,-.9,-.7Z" class="g9_348"/>
<path d="M272.9,308.6h.8v-2.9h-.8Z" class="g9_348"/>
<path d="M268.3,317h2.9v.7h-3.8V317c.3,-.3,.7,-.7,1.2,-1.2c.6,-.6,.9,-.9,1,-1.1c.3,-.3,.5,-.5,.6,-.7c.1,-.2,.1,-.4,.1,-.6c0,-.4,-.1,-.6,-.3,-.8c-.2,-.2,-.5,-.3,-.9,-.3c-.2,0,-.5,0,-.8,.1c-.3,.1,-.6,.2,-.9,.4V312c.3,-.1,.6,-.2,.9,-.3c.3,-.1,.6,-.1,.8,-.1c.6,0,1.1,.2,1.5,.5c.4,.3,.6,.7,.6,1.2c0,.3,-.1,.5,-.2,.7c-.1,.2,-.2,.5,-.5,.8c-.1,.1,-.3,.3,-.6,.7c-.4,.4,-.9,.9,-1.6,1.5Z" class="g9_348"/>
<path d="M272.9,317.7h.8v-1h-.8Z" class="g9_348"/>
<path d="M275.5,311.7h3.2v.7h-2.4v1.5l.3,-.1h.4c.7,0,1.2,.1,1.6,.5c.4,.4,.6,.9,.6,1.5c0,.7,-.2,1.2,-.6,1.5c-.4,.4,-1,.6,-1.7,.6c-.3,0,-.5,-.1,-.8,-.1c-.3,-.1,-.5,-.1,-.8,-.2v-.8c.2,.1,.5,.2,.7,.3c.3,0,.6,.1,.9,.1c.4,0,.8,-.2,1.1,-.4c.2,-.2,.4,-.6,.4,-1c0,-.4,-.2,-.8,-.4,-1c-.3,-.2,-.7,-.4,-1.1,-.4c-.3,0,-.5,.1,-.7,.1c-.2,.1,-.4,.1,-.7,.2v-3Z" class="g9_348"/>
<path d="M300.5,308.6h.7v-2.9h-.7Z" class="g9_348"/>
<path d="M295.2,311.7h3.2v.7h-2.5v1.5l.4,-.1h.3c.7,0,1.2,.1,1.6,.5c.4,.4,.6,.9,.6,1.5c0,.7,-.2,1.2,-.6,1.5c-.4,.4,-1,.6,-1.7,.6c-.3,0,-.5,-.1,-.8,-.1c-.2,-.1,-.5,-.1,-.8,-.2v-.8c.2,.1,.5,.2,.8,.3c.2,0,.5,.1,.8,.1c.4,0,.8,-.2,1.1,-.4c.2,-.2,.4,-.6,.4,-1c0,-.4,-.2,-.8,-.4,-1c-.3,-.2,-.7,-.4,-1.1,-.4c-.2,0,-.5,.1,-.7,.1c-.2,.1,-.4,.1,-.6,.2v-3Z" class="g9_348"/>
<path d="M300.4,317.7h.9v-1h-.9Z" class="g9_348"/>
<path d="M304.8,311.6c.7,0,1.2,.3,1.5,.8c.4,.5,.6,1.3,.6,2.3c0,1,-.2,1.8,-.6,2.4c-.3,.5,-.8,.8,-1.5,.8c-.7,0,-1.2,-.3,-1.6,-.8c-.3,-.6,-.5,-1.4,-.5,-2.4c0,-1,.2,-1.8,.5,-2.3c.4,-.5,.9,-.8,1.6,-.8Zm0,.6c-.4,0,-.8,.2,-1,.7c-.2,.4,-.3,1,-.3,1.8c0,.9,.1,1.5,.3,1.9c.2,.4,.6,.6,1,.6c.4,0,.7,-.2,.9,-.6c.2,-.4,.4,-1,.4,-1.9c0,-.8,-.2,-1.4,-.4,-1.8c-.2,-.5,-.5,-.7,-.9,-.7Z" class="g9_348"/>
<path d="M328,308.6h.7v-2.9H328Z" class="g9_348"/>
<path d="M322.5,311.7h3.8v.4l-2.2,5.6h-.8l2,-5.3h-2.8v-.7Z" class="g9_348"/>
<path d="M327.9,317.7h.9v-1h-.9Z" class="g9_348"/>
<path d="M330.6,311.7h3.2v.7h-2.5v1.5l.4,-.1h.3c.7,0,1.2,.1,1.6,.5c.4,.4,.6,.9,.6,1.5c0,.7,-.2,1.2,-.6,1.5c-.4,.4,-1,.6,-1.7,.6c-.3,0,-.5,-.1,-.8,-.1c-.2,-.1,-.5,-.1,-.8,-.2v-.8c.2,.1,.5,.2,.8,.3c.2,0,.5,.1,.8,.1c.4,0,.8,-.2,1.1,-.4c.3,-.2,.4,-.6,.4,-1c0,-.4,-.1,-.8,-.4,-1c-.3,-.2,-.7,-.4,-1.1,-.4c-.2,0,-.5,.1,-.7,.1c-.2,.1,-.4,.1,-.6,.2v-3Z" class="g9_348"/>
<path d="M355.5,308.6h.7v-2.9h-.7Z" class="g9_348"/>
<path d="M347.7,317H349v-4.6l-1.4,.3V312l1.4,-.3h.8V317h1.4v.7h-3.5V317Z" class="g9_348"/>
<path d="M354.5,311.6c.7,0,1.2,.3,1.6,.8c.4,.5,.5,1.3,.5,2.3c0,1,-.1,1.8,-.5,2.4c-.4,.5,-.9,.8,-1.6,.8c-.6,0,-1.1,-.3,-1.5,-.8c-.4,-.6,-.5,-1.4,-.5,-2.4c0,-1,.1,-1.8,.5,-2.3c.4,-.5,.9,-.8,1.5,-.8Zm0,.6c-.4,0,-.7,.2,-.9,.7c-.2,.4,-.3,1,-.3,1.8c0,.9,.1,1.5,.3,1.9c.2,.4,.5,.6,.9,.6c.5,0,.8,-.2,1,-.6c.2,-.4,.3,-1,.3,-1.9c0,-.8,-.1,-1.4,-.3,-1.8c-.2,-.5,-.5,-.7,-1,-.7Z" class="g9_348"/>
<path d="M358.1,317.7h.8v-1h-.8Z" class="g9_348"/>
<path d="M362.4,311.6c.7,0,1.2,.3,1.6,.8c.3,.5,.5,1.3,.5,2.3c0,1,-.2,1.8,-.5,2.4c-.4,.5,-.9,.8,-1.6,.8c-.6,0,-1.2,-.3,-1.5,-.8c-.4,-.6,-.5,-1.4,-.5,-2.4c0,-1,.1,-1.8,.5,-2.3c.3,-.5,.9,-.8,1.5,-.8Zm0,.6c-.4,0,-.7,.2,-.9,.7c-.2,.4,-.3,1,-.3,1.8c0,.9,.1,1.5,.3,1.9c.2,.4,.5,.6,.9,.6c.5,0,.8,-.2,1,-.6c.2,-.4,.3,-1,.3,-1.9c0,-.8,-.1,-1.4,-.3,-1.8c-.2,-.5,-.5,-.7,-1,-.7Z" class="g9_348"/>
<path d="M132.9,306h2.9v-.7h-2.9Z" class="g9_348"/>
<path d="M105.5,306.6h5.2v-.7h-5.2Z" class="g9_348"/>
<path d="M112.6,308.1h1.3v-4.6l-1.4,.3v-.7l1.4,-.3h.8v5.3h1.4v.7h-3.5v-.7Z" class="g9_348"/>
<path d="M119.5,302.7c.6,0,1.1,.2,1.5,.8c.4,.5,.5,1.3,.5,2.3c0,1,-.1,1.8,-.5,2.3c-.4,.6,-.9,.8,-1.5,.8c-.7,0,-1.2,-.2,-1.6,-.8c-.4,-.5,-.5,-1.3,-.5,-2.3c0,-1,.1,-1.8,.5,-2.3c.4,-.6,.9,-.8,1.6,-.8Zm0,.6c-.5,0,-.8,.2,-1,.6c-.2,.4,-.3,1.1,-.3,1.9c0,.8,.1,1.4,.3,1.9c.2,.4,.5,.6,1,.6c.4,0,.7,-.2,.9,-.6c.2,-.5,.3,-1.1,.3,-1.9c0,-.8,-.1,-1.5,-.3,-1.9c-.2,-.4,-.5,-.6,-.9,-.6Z" class="g9_348"/>
<path d="M123,308.8h.8v-1H123Z" class="g9_348"/>
<path d="M127.3,302.7c.7,0,1.2,.2,1.6,.8c.3,.5,.5,1.3,.5,2.3c0,1,-.2,1.8,-.5,2.3c-.4,.6,-.9,.8,-1.6,.8c-.6,0,-1.1,-.2,-1.5,-.8c-.4,-.5,-.5,-1.3,-.5,-2.3c0,-1,.1,-1.8,.5,-2.3c.4,-.6,.9,-.8,1.5,-.8Zm0,.6c-.4,0,-.7,.2,-.9,.6c-.2,.4,-.3,1.1,-.3,1.9c0,.8,.1,1.4,.3,1.9c.2,.4,.5,.6,.9,.6c.5,0,.8,-.2,1,-.6c.2,-.5,.3,-1.1,.3,-1.9c0,-.8,-.1,-1.5,-.3,-1.9c-.2,-.4,-.5,-.6,-1,-.6Z" class="g9_348"/>
<path d="M132.9,278.5h2.9v-.7h-2.9Z" class="g9_348"/>
<path d="M110.8,279h5.1v-.6h-5.1Z" class="g9_348"/>
<path d="M117.5,275.3h3.9v.3l-2.2,5.7h-.9l2.1,-5.4h-2.9v-.6Z" class="g9_348"/>
<path d="M123,281.3h.8v-1H123Z" class="g9_348"/>
<path d="M125.6,275.3h3.2v.6h-2.4v1.5l.3,-.1h.4c.6,0,1.2,.2,1.6,.6c.4,.3,.6,.8,.6,1.5c0,.6,-.2,1.1,-.7,1.5c-.4,.3,-.9,.5,-1.7,.5c-.2,0,-.5,0,-.7,-.1c-.3,0,-.6,-.1,-.8,-.2v-.8c.2,.2,.4,.3,.7,.3c.3,.1,.5,.1,.8,.1c.5,0,.9,-.1,1.1,-.3c.3,-.3,.4,-.6,.4,-1c0,-.5,-.1,-.8,-.4,-1c-.2,-.3,-.6,-.4,-1.1,-.4c-.2,0,-.4,0,-.6,.1c-.2,0,-.5,.1,-.7,.2v-3Z" class="g9_348"/>
<path d="M132.9,251h2.9v-.7h-2.9Z" class="g9_348"/>
<path d="M110.8,251.5h5.1v-.7h-5.1Z" class="g9_348"/>
<path d="M117.7,247.8h3.2v.6h-2.4v1.5l.3,-.1h.4c.6,0,1.2,.2,1.6,.5c.4,.4,.6,.9,.6,1.5c0,.7,-.2,1.2,-.6,1.6c-.4,.3,-1,.5,-1.8,.5c-.2,0,-.5,0,-.7,-.1c-.3,0,-.6,-.1,-.8,-.2v-.8c.2,.1,.5,.2,.7,.3c.3,.1,.5,.1,.8,.1c.5,0,.9,-.1,1.1,-.4c.3,-.2,.4,-.5,.4,-1c0,-.4,-.1,-.7,-.4,-1c-.2,-.2,-.6,-.3,-1.1,-.3c-.2,0,-.4,0,-.6,.1c-.2,0,-.5,.1,-.7,.2v-3Z" class="g9_348"/>
<path d="M123,253.8h.8v-1H123Z" class="g9_348"/>
<path d="M127.3,247.6c.7,0,1.2,.3,1.6,.8c.3,.6,.5,1.4,.5,2.4c0,1,-.2,1.8,-.5,2.3c-.4,.5,-.9,.8,-1.6,.8c-.6,0,-1.1,-.3,-1.5,-.8c-.4,-.5,-.5,-1.3,-.5,-2.3c0,-1,.1,-1.8,.5,-2.4c.4,-.5,.9,-.8,1.5,-.8Zm0,.7c-.4,0,-.7,.2,-.9,.6c-.2,.4,-.3,1,-.3,1.9c0,.8,.1,1.4,.3,1.8c.2,.4,.5,.7,.9,.7c.5,0,.8,-.3,1,-.7c.2,-.4,.3,-1,.3,-1.8c0,-.9,-.1,-1.5,-.3,-1.9c-.2,-.4,-.5,-.6,-1,-.6Z" class="g9_348"/>
<path d="M132.9,223.5h2.9v-.8h-2.9Z" class="g9_348"/>
<path d="M110.8,224h5.1v-.7h-5.1Z" class="g9_348"/>
<path d="M118.4,225.6h2.9v.7h-3.9v-.7c.3,-.3,.8,-.8,1.3,-1.3c.5,-.5,.9,-.9,1,-1.1c.3,-.2,.4,-.5,.5,-.7c.2,-.2,.2,-.4,.2,-.6c0,-.3,-.1,-.6,-.3,-.8c-.3,-.2,-.5,-.3,-.9,-.3c-.3,0,-.5,.1,-.8,.1c-.3,.1,-.6,.3,-.9,.5v-.9c.3,-.1,.6,-.2,.9,-.3c.3,0,.5,-.1,.8,-.1c.6,0,1.1,.2,1.5,.5c.3,.3,.5,.7,.5,1.2c0,.3,0,.5,-.1,.8c-.1,.2,-.3,.4,-.5,.7c-.1,.1,-.3,.3,-.7,.7c-.3,.4,-.8,.9,-1.5,1.6Z" class="g9_348"/>
<path d="M123,226.3h.8v-1.1H123Z" class="g9_348"/>
<path d="M125.6,220.2h3.2v.7h-2.4v1.5l.3,-.1h.4c.6,0,1.2,.2,1.6,.5c.4,.4,.6,.9,.6,1.5c0,.7,-.2,1.2,-.7,1.5c-.4,.4,-.9,.6,-1.7,.6c-.2,0,-.5,0,-.7,-.1c-.3,0,-.6,-.1,-.8,-.2v-.8c.2,.1,.4,.2,.7,.3c.3,.1,.5,.1,.8,.1c.5,0,.9,-.1,1.1,-.4c.3,-.2,.4,-.5,.4,-1c0,-.4,-.1,-.7,-.4,-1c-.2,-.2,-.6,-.3,-1.1,-.3c-.2,0,-.4,0,-.6,0c-.2,.1,-.5,.2,-.7,.3v-3.1Z" class="g9_348"/>
<path d="M132.9,196h2.9v-.8h-2.9Z" class="g9_348"/>
<path d="M119.5,192.6c.6,0,1.1,.3,1.5,.8c.4,.6,.5,1.3,.5,2.3c0,1.1,-.1,1.8,-.5,2.4c-.4,.5,-.9,.8,-1.5,.8c-.7,0,-1.2,-.3,-1.6,-.8c-.4,-.6,-.5,-1.3,-.5,-2.4c0,-1,.1,-1.7,.5,-2.3c.4,-.5,.9,-.8,1.6,-.8Zm0,.7c-.5,0,-.8,.2,-1,.6c-.2,.4,-.3,1,-.3,1.8c0,.9,.1,1.5,.3,1.9c.2,.4,.5,.6,1,.6c.4,0,.7,-.2,.9,-.6c.2,-.4,.3,-1,.3,-1.9c0,-.8,-.1,-1.4,-.3,-1.8c-.2,-.4,-.5,-.6,-.9,-.6Z" class="g9_348"/>
<path d="M123,198.8h.8v-1.1H123Z" class="g9_348"/>
<path d="M127.3,192.6c.7,0,1.2,.3,1.6,.8c.3,.6,.5,1.3,.5,2.3c0,1.1,-.2,1.8,-.5,2.4c-.4,.5,-.9,.8,-1.6,.8c-.6,0,-1.1,-.3,-1.5,-.8c-.4,-.6,-.5,-1.3,-.5,-2.4c0,-1,.1,-1.7,.5,-2.3c.4,-.5,.9,-.8,1.5,-.8Zm0,.7c-.4,0,-.7,.2,-.9,.6c-.2,.4,-.3,1,-.3,1.8c0,.9,.1,1.5,.3,1.9c.2,.4,.5,.6,.9,.6c.5,0,.8,-.2,1,-.6c.2,-.4,.3,-1,.3,-1.9c0,-.8,-.1,-1.4,-.3,-1.8c-.2,-.4,-.5,-.6,-1,-.6Z" class="g9_348"/>
<path d="M132.9,168.5h2.9v-.8h-2.9Z" class="g9_348"/>
<path d="M118.4,170.6h2.9v.6h-3.9v-.6c.3,-.4,.8,-.8,1.3,-1.3c.5,-.6,.9,-.9,1,-1.1c.3,-.3,.4,-.5,.5,-.7c.2,-.2,.2,-.4,.2,-.6c0,-.3,-.1,-.6,-.3,-.8c-.3,-.2,-.5,-.3,-.9,-.3c-.3,0,-.5,0,-.8,.1c-.3,.1,-.6,.2,-.9,.4v-.8c.3,-.1,.6,-.2,.9,-.3c.3,-.1,.5,-.1,.8,-.1c.6,0,1.1,.2,1.5,.5c.3,.3,.5,.7,.5,1.2c0,.3,0,.5,-.1,.7c-.1,.3,-.3,.5,-.5,.8c-.1,.1,-.3,.3,-.7,.7c-.3,.4,-.8,.9,-1.5,1.6Z" class="g9_348"/>
<path d="M123,171.2h.8v-1H123Z" class="g9_348"/>
<path d="M125.6,165.2h3.2v.7h-2.4v1.5l.3,-.1h.4c.6,0,1.2,.1,1.6,.5c.4,.4,.6,.9,.6,1.5c0,.7,-.2,1.2,-.7,1.5c-.4,.4,-.9,.6,-1.7,.6c-.2,0,-.5,-.1,-.7,-.1c-.3,0,-.6,-.1,-.8,-.2v-.8c.2,.1,.4,.2,.7,.3c.3,0,.5,.1,.8,.1c.5,0,.9,-.1,1.1,-.4c.3,-.2,.4,-.6,.4,-1c0,-.4,-.1,-.7,-.4,-1c-.2,-.2,-.6,-.4,-1.1,-.4c-.2,0,-.4,.1,-.6,.1c-.2,.1,-.5,.1,-.7,.2v-3Z" class="g9_348"/>
<path d="M132.9,141h2.9v-.8h-2.9Z" class="g9_348"/>
<path d="M117.7,137.7h3.2v.7h-2.4v1.5l.3,-.1l.4,-.1c.6,0,1.2,.2,1.6,.6c.4,.4,.6,.9,.6,1.5c0,.6,-.2,1.1,-.6,1.5c-.4,.4,-1,.5,-1.7,.5c-.3,0,-.6,0,-.8,0c-.3,-.1,-.6,-.1,-.8,-.2v-.8c.2,.1,.5,.2,.7,.3c.3,0,.5,.1,.8,.1c.5,0,.9,-.2,1.1,-.4c.3,-.3,.4,-.6,.4,-1c0,-.4,-.1,-.8,-.4,-1c-.2,-.2,-.6,-.4,-1.1,-.4c-.2,0,-.4,.1,-.6,.1c-.2,.1,-.5,.1,-.7,.2v-3Z" class="g9_348"/>
<path d="M123,143.7h.8v-1H123Z" class="g9_348"/>
<path d="M127.3,137.6c.7,0,1.2,.3,1.6,.8c.3,.5,.5,1.3,.5,2.3c0,1,-.2,1.8,-.5,2.3c-.4,.6,-.9,.8,-1.6,.8c-.6,0,-1.1,-.2,-1.5,-.8c-.4,-.5,-.5,-1.3,-.5,-2.3c0,-1,.1,-1.8,.5,-2.3c.4,-.5,.9,-.8,1.5,-.8Zm0,.6c-.4,0,-.7,.2,-.9,.7c-.2,.4,-.3,1,-.3,1.8c0,.9,.1,1.5,.3,1.9c.2,.4,.5,.6,.9,.6c.5,0,.8,-.2,1,-.6c.2,-.4,.3,-1,.3,-1.9c0,-.8,-.1,-1.4,-.3,-1.8c-.2,-.5,-.5,-.7,-1,-.7Z" class="g9_348"/>
<path d="M132.9,113.5h2.9v-.8h-2.9Z" class="g9_348"/>
<path d="M117.5,110.2h3.9v.3l-2.2,5.7h-.9l2.1,-5.3h-2.9v-.7Z" class="g9_348"/>
<path d="M123,116.2h.8v-1H123Z" class="g9_348"/>
<path d="M125.6,110.2h3.2v.7h-2.4v1.5l.3,-.1l.4,-.1c.6,0,1.2,.2,1.6,.6c.4,.4,.6,.9,.6,1.5c0,.6,-.2,1.1,-.7,1.5c-.4,.4,-.9,.5,-1.7,.5c-.2,0,-.5,0,-.7,0c-.3,-.1,-.6,-.1,-.8,-.2v-.8c.2,.1,.4,.2,.7,.3c.3,0,.5,0,.8,0c.5,0,.9,-.1,1.1,-.3c.3,-.3,.4,-.6,.4,-1c0,-.4,-.1,-.8,-.4,-1c-.2,-.3,-.6,-.4,-1.1,-.4c-.2,0,-.4,0,-.6,.1c-.2,0,-.5,.1,-.7,.2v-3Z" class="g9_348"/>
<path d="M132.9,85.9h2.9v-.7h-2.9Z" class="g9_348"/>
<path d="M112.6,88h1.3V83.4l-1.4,.3V83l1.4,-.3h.8V88h1.4v.7h-3.5V88Z" class="g9_348"/>
<path d="M119.5,82.6c.6,0,1.1,.2,1.5,.8c.4,.5,.5,1.3,.5,2.3c0,1,-.1,1.8,-.5,2.3c-.4,.6,-.9,.8,-1.5,.8c-.7,0,-1.2,-.2,-1.6,-.8c-.4,-.5,-.5,-1.3,-.5,-2.3c0,-1,.1,-1.8,.5,-2.3c.4,-.6,.9,-.8,1.6,-.8Zm0,.6c-.5,0,-.8,.2,-1,.6c-.2,.4,-.3,1.1,-.3,1.9c0,.8,.1,1.4,.3,1.9c.2,.4,.5,.6,1,.6c.4,0,.7,-.2,.9,-.6c.2,-.5,.3,-1.1,.3,-1.9c0,-.8,-.1,-1.5,-.3,-1.9c-.2,-.4,-.5,-.6,-.9,-.6Z" class="g9_348"/>
<path d="M123,88.7h.8v-1H123Z" class="g9_348"/>
<path d="M127.3,82.6c.7,0,1.2,.2,1.6,.8c.3,.5,.5,1.3,.5,2.3c0,1,-.2,1.8,-.5,2.3c-.4,.6,-.9,.8,-1.6,.8c-.6,0,-1.1,-.2,-1.5,-.8c-.4,-.5,-.5,-1.3,-.5,-2.3c0,-1,.1,-1.8,.5,-2.3c.4,-.6,.9,-.8,1.5,-.8Zm0,.6c-.4,0,-.7,.2,-.9,.6c-.2,.4,-.3,1.1,-.3,1.9c0,.8,.1,1.4,.3,1.9c.2,.4,.5,.6,.9,.6c.5,0,.8,-.2,1,-.6c.2,-.5,.3,-1.1,.3,-1.9c0,-.8,-.1,-1.5,-.3,-1.9c-.2,-.4,-.5,-.6,-1,-.6Z" class="g9_348"/>
<path d="M218,216.9l.1,-.4l-.3,-.1c-7.3,-2.1,-13,-8,-14.9,-15.3l-.1,-.2l-.4,-2l-.2,-2.2v-2.2l.2,-2.2l.4,-1.9l.1,-.2c8.6,-27.5,47.7,-17.3,41.8,10.9l-.4,1.2l.4,.1l-.4,-.1l-.3,1c-3.6,9.6,-13.5,15.3,-23.7,13.7l-2.2,-.5l-.1,.4l.1,-.4l-.1,.4l-.1,.3l2.3,.5c28.4,3.3,36.5,-35.6,9.1,-43.8h-.1l-2.2,-.4c-27.7,-2.9,-35.9,34.7,-9.5,43.6l.4,.1l.1,-.3Z" class="ga_348"/>
<path d="M218.1,238.9l-2.2,-.4l-2.2,-.4c-51.7,-14.4,-40.4,-87.8,13.2,-86l2.2,.2l2.3,.3c52.9,11.4,45.3,86.2,-8.9,86.6l-2.2,-.1l-2.2,-.2l-.1,.7l2.2,.3l2.3,.1c21.5,.6,40.5,-14.4,44.8,-35.6l.5,-3.2h.1c2.9,-23.5,-13,-45.1,-36.4,-49.3l-2.3,-.4l-2.2,-.2c-21.8,-1.5,-41.4,12.9,-46.4,34.2l-.5,2.3c-4.1,23.2,10.5,45.5,33.4,51l2.2,.5l2.3,.3l.1,-.7Z" class="ga_348"/>
<path d="M218.2,260.3l-4.5,-.5l-4.3,-.9L205,257.8c-28.5,-8.7,-47.5,-35.6,-46,-65.5l.3,-4.3l.7,-4.4c5.7,-30.2,31.7,-52.2,62.5,-52.9l4.4,.1l4.4,.3l4.3,.7l4.4,.9c28.3,7.3,48.2,32.6,48.7,61.8v4.4l-.4,4.4c-3.7,30.7,-28.4,54.5,-59.2,57l-4.4,.2l-4.4,-.1l-2.2,-.1l-.2,2.2l2.3,.1l4.5,.1c32,-.4,59.1,-23.3,65.1,-54.7l.7,-4.4v-.1C294.4,170,273,139,240.5,130.6l-4.5,-1l-4.4,-.7h-.1c-35.1,-4,-67.1,19.7,-73.7,54.3l-.6,4.5h-.1c-3.9,34.2,18.4,65.7,51.8,73.4l4.5,.8l4.5,.6l.3,-2.2Z" class="gb_348"/>
<path d="M218.1,283.1l-4.5,-.4l-4.4,-.7l-4.4,-.8c-41.4,-9.3,-70.1,-46.5,-68.6,-88.9l.3,-4.4l.5,-4.5c6.3,-44.5,45,-76.9,89.9,-75.4l4.4,.3l4.5,.5l4.4,.7l4.4,1c40.5,9.9,68.3,46.7,66.8,88.4l-.3,4.5l-.5,4.4c-5.8,41.3,-39.8,72.7,-81.5,75.3l-4.4,.2l-4.4,-.1l-2.3,-.1v.7l2.2,.2h4.5c43.8,-.4,80.6,-32.8,86.7,-76.1l.5,-4.5C315.8,158.1,285,117.3,240.3,108.8l-4.4,-.8l-4.5,-.5c-46.9,-3.9,-88.5,29.2,-95.2,75.8l-.5,4.5c-4,46,27.9,87.2,73.4,95l4.4,.6l4.5,.4l.1,-.7Z" class="ga_348"/>
<path clip-path="url(#c0_348)" d="M136.1,129.8l3.1,-4l3.5,-4C209.5,50.3,327.1,92.2,333.3,190.1l.2,4.4l-.1,4.4c-4.5,100.7,-126.5,143.5,-192.9,68l-3.1,-3.7l-1.3,-1.8l-.6,.5l1.3,1.8C202,344.3,329.3,302.8,334.2,199v-4.5C331.5,90.9,205.7,46.6,138.6,125.3l-3.1,4.1l.6,.4Z" class="ga_348"/>
<path d="M151,305.3l-1.7,-1.1l-1.5,-1.1l-.7,-.5L144.9,301l-.2,-.1l-2,-1.6l-.8,-.6l-1.4,-1.2l-1.3,-1l-1,-.8l-1.6,-1.4l-.6,-.5l-.5,.5l.6,.5l1.6,1.5l1,.8l1.3,1l1.4,1.2l.8,.6c2.2,1.7,4.4,3.4,6.7,4.9l1.7,1.2l.4,-.7Z" class="ga_348"/>
<path d="M136,97.5l.6,-.5l1.6,-1.5l1,-.8l1.3,-1l1.4,-1.2l.8,-.6l2,-1.6l.2,-.1l2.2,-1.6l.7,-.5L149.3,87L151,85.9l-.4,-.6l-1.7,1.1c-4.5,3.1,-8.8,6.4,-12.8,10l-.6,.5l.5,.6Z" class="ga_348"/>
<path d="M296.6,85.9l3.5,2.4c74.7,53.7,73.6,164.1,-2.3,216.2l-1.2,.8l.4,.7l1.3,-.9c76.3,-52.5,77.4,-163.4,2.2,-217.5L297,85.3l-.4,.6Z" class="ga_348"/>
<path d="M355.5,274.8l-1.1,1.8l-1.1,1.8l-.3,.4l-1.4,2.2l-.5,.7l-1,1.5l-1.2,1.7l-.4,.5l-1.6,2.3l-.2,.2l-1.5,2l-.8,.9h.1l-1.1,1.3l-1.2,1.5l-.6,.7l.3,.2l-.3,-.2l-1.6,1.9l-.3,.3l-1.9,2.2l-2.1,2.3l-.1,.1l-2,2.1l-.2,.2l.2,.3l-.2,-.3l-2,2l.5,.5l2,-2c8,-8.1,15.2,-17.2,21.2,-26.9l1.1,-1.8l-.7,-.4Z" class="ga_348"/>
<path d="M331.4,85.8l2,2l.2,.3l2,2l.1,.2l2.1,2.2l1.9,2.2l.3,-.2l-.3,.2l.3,.3l1.6,1.9l.6,.8l1.2,1.4l1,1.3l.8,1l1.5,1.9l.2,.3l1.6,2.2l.4,.5l1.2,1.7l1,1.5l.5,.7l1.4,2.2l.3,.5l1.1,1.8l1.1,1.8l.7,-.4l-1.1,-1.8c-6,-9.8,-13.2,-18.8,-21.2,-27l-2,-2l-.5,.5Z" class="ga_348"/>
<path d="M135.4,306h.7V85.2h-.7Z" class="g9_348"/>
<path d="M355.5,306h.7V85.2h-.7Z" class="g9_348"/>
<path d="M135.4,306H356.2v-.7H135.4Z" class="g9_348"/>
<path d="M135.4,85.9H356.2v-.7H135.4Z" class="g9_348"/>
<path d="M370.6,305.7h11V85.6h-11Z" class="g0_348"/>
<path d="M370.6,305.7h11v-22h-11Z" class="gc_348"/>
<path d="M370.6,283.7h11V261.6h-11Z" class="gd_348"/>
<path d="M370.6,261.6h11v-22h-11Z" class="g1_348"/>
<path d="M370.6,239.6h11v-22h-11Z" class="g2_348"/>
<path d="M370.6,217.6h11v-22h-11Z" class="g3_348"/>
<path d="M370.6,195.6h11v-22h-11Z" class="g4_348"/>
<path d="M370.6,173.6h11v-22h-11Z" class="g5_348"/>
<path d="M370.6,151.6h11v-22h-11Z" class="g6_348"/>
<path d="M370.6,129.6h11v-22h-11Z" class="g7_348"/>
<path d="M370.6,107.6h11v-22h-11Z" class="g8_348"/>
<path d="M381.6,284h2.9v-.7h-2.9Z" class="g9_348"/>
<path d="M388.3,284.5h5.2v-.6h-5.2Z" class="g9_348"/>
<path d="M395.9,282.3c0,.3,.1,.6,.3,.7c.2,.2,.4,.3,.8,.3c.3,0,.6,-.1,.8,-.3c.2,-.1,.3,-.4,.3,-.7c0,-.3,-.1,-.6,-.3,-.7c-.2,-.2,-.5,-.3,-.8,-.3c-.4,0,-.6,.1,-.8,.3c-.2,.1,-.3,.4,-.3,.7Zm.3,1.3c-.4,-.1,-.7,-.3,-.8,-.5c-.2,-.2,-.3,-.5,-.3,-.9c0,-.5,.1,-.8,.5,-1.1c.3,-.3,.8,-.4,1.4,-.4c.6,0,1.1,.1,1.4,.4c.3,.3,.5,.6,.5,1.1c0,.4,-.1,.7,-.3,.9c-.2,.2,-.4,.4,-.8,.5c.4,.1,.7,.3,.9,.5c.2,.3,.4,.6,.4,1c0,.6,-.2,1,-.6,1.3c-.3,.4,-.8,.5,-1.5,.5c-.7,0,-1.2,-.1,-1.5,-.5c-.4,-.3,-.6,-.7,-.6,-1.3c0,-.4,.1,-.7,.3,-1c.3,-.2,.6,-.4,1,-.5Zm.8,.3c-.4,0,-.7,.1,-.9,.3c-.3,.2,-.4,.5,-.4,.9c0,.4,.1,.6,.4,.9c.2,.2,.5,.3,.9,.3c.4,0,.7,-.1,.9,-.3c.2,-.3,.3,-.5,.3,-.9c0,-.4,-.1,-.7,-.3,-.9c-.2,-.2,-.5,-.3,-.9,-.3Z" class="g9_348"/>
<path d="M381.6,240h2.9v-.7h-2.9Z" class="g9_348"/>
<path d="M388.3,240.5h5.2v-.7h-5.2Z" class="g9_348"/>
<path d="M397.3,236.7h1v4h.9v.7h-.9v1.4h-.8v-1.4h-2.7v-.8l2.5,-3.9Zm.2,.8l-2.1,3.2h2.1v-3.2Z" class="g9_348"/>
<path d="M381.6,196h2.9v-.8h-2.9Z" class="g9_348"/>
<path d="M390.1,192.6c.6,0,1.1,.3,1.5,.8c.4,.6,.5,1.3,.5,2.3c0,1.1,-.1,1.8,-.5,2.4c-.4,.5,-.9,.8,-1.5,.8c-.7,0,-1.2,-.3,-1.6,-.8c-.3,-.6,-.5,-1.3,-.5,-2.4c0,-1,.2,-1.7,.5,-2.3c.4,-.5,.9,-.8,1.6,-.8Zm0,.7c-.5,0,-.8,.2,-1,.6c-.2,.4,-.3,1,-.3,1.8c0,.9,.1,1.5,.3,1.9c.2,.4,.5,.6,1,.6c.4,0,.7,-.2,.9,-.6c.2,-.4,.3,-1,.3,-1.9c0,-.8,-.1,-1.4,-.3,-1.8c-.2,-.4,-.5,-.6,-.9,-.6Z" class="g9_348"/>
<path d="M381.6,152h2.9v-.8h-2.9Z" class="g9_348"/>
<path d="M390.3,148.7h1.1v3.9h.8v.7h-.8v1.4h-.8v-1.4h-2.8v-.8l2.5,-3.8Zm.3,.7l-2.1,3.2h2.1v-3.2Z" class="g9_348"/>
<path d="M381.6,108h2.9v-.8h-2.9Z" class="g9_348"/>
<path d="M388.9,106.2c0,.3,.1,.6,.3,.7c.2,.2,.5,.3,.9,.3c.3,0,.6,-.1,.8,-.3c.2,-.1,.3,-.4,.3,-.7c0,-.3,-.1,-.5,-.3,-.7c-.2,-.2,-.5,-.3,-.8,-.3c-.4,0,-.7,.1,-.9,.3c-.2,.2,-.3,.4,-.3,.7Zm.3,1.3c-.3,-.1,-.6,-.2,-.8,-.5c-.2,-.2,-.3,-.5,-.3,-.9c0,-.4,.2,-.8,.5,-1.1c.4,-.3,.9,-.4,1.5,-.4c.6,0,1,.1,1.4,.4c.3,.3,.5,.7,.5,1.1c0,.4,-.1,.7,-.3,.9c-.2,.3,-.5,.4,-.8,.5c.4,.1,.7,.3,.9,.5c.2,.3,.3,.6,.3,1c0,.6,-.2,1.1,-.5,1.4c-.4,.3,-.9,.4,-1.5,.4c-.7,0,-1.2,-.1,-1.6,-.4c-.3,-.3,-.5,-.8,-.5,-1.4c0,-.4,.1,-.7,.3,-1c.2,-.2,.5,-.4,.9,-.5Zm.9,.4c-.4,0,-.7,.1,-1,.3c-.2,.2,-.3,.5,-.3,.8c0,.4,.1,.7,.3,.9c.3,.2,.6,.3,1,.3c.3,0,.6,-.1,.9,-.3c.2,-.2,.3,-.5,.3,-.9c0,-.3,-.1,-.6,-.3,-.8c-.2,-.2,-.6,-.3,-.9,-.3Z" class="g9_348"/>
<path d="M370.6,305.7v.3H382V85.2H370.3V306h.3v-.3h.4V85.9h10.3V305.3H370.6v.4h.4h-.4Z" class="g9_348"/>
<path d="M446.4,305.7H666.5V85.6H446.4Z" class="g0_348"/>
<path d="M573.1,217l2.3,.4l2.2,.2c26,.2,31.8,-35,7,-43.1l-.4,-.1l-2.2,-.5c-26.5,-3.4,-35.9,32.3,-11.1,42.4l1.5,.4l.7,.3Z" class="g1_348"/>
<path d="M572.4,216.7l-1.5,-.4l-2.2,-1c-23.5,-12.7,-10.4,-47,15.5,-40.9l.4,.1l1.9,.6c24,10.4,14.9,45.1,-11.1,42.3l-2.3,-.4l-.7,-.3ZM570.9,239l2.2,.3l2.3,.2c55.4,1.7,65.2,-74.9,11.1,-87.2h-.4l-1.9,-.3c-55.7,-5,-69.6,71.8,-15.5,86.5l2.1,.5h.1Z" class="g2_348"/>
<path d="M577.6,261.6h-2.2l-2.3,-.2l-2.2,-.2C538,257.4,513.1,229.9,512.4,196.7v-2.2l.1,-2.2c1.8,-34,28.9,-61,62.9,-62.6l2.2,-.1h2.2l2.2,.1l2.2,.1c32.9,3,58.5,29.5,60.2,62.5l.1,2.2v2.2c-.6,33.9,-26.5,61.7,-60.3,64.7l-2.2,.1l-2.2,.1h-2.2ZM534.5,196.7l.1,2.2l.2,2.3c8.9,53.7,84.2,49.8,87.7,-4.5v-2.2l-.1,-2.2c-6.2,-54.1,-81.6,-54.1,-87.8,0l-.1,2.2v2.2Z" class="g3_348"/>
<path d="M570.8,261.2l-2.1,-.3l-2.2,-.4l-2.3,-.4c-33.1,-7.4,-55.3,-38.5,-51.3,-72.3l.2,-1.5l.1,-.7c5.3,-34.4,36.3,-58.8,71,-55.8l1.9,.2l.4,.1l2.2,.3l2.2,.4c33.1,6.4,56.1,36.5,53.4,70.2v.2l-.3,2.2c-4.1,34.4,-34,59.7,-68.6,58.2l-2.3,-.2l-2.2,-.2h-.1Zm2.3,22.3l2.3,.1h4.4c46,-.7,83.5,-36.5,86.5,-82.4l.1,-2.3l.1,-2.2C667,150,631.2,111.2,584.7,107.8h-.5l-2.2,-.2h-4.4c-45.4,.5,-82.8,35.1,-86.8,80.2l-.2,2.3l-.1,2.2c-1.7,46.2,32.3,85.6,78.2,90.8l2.2,.2l1.4,.1l.8,.1Z" class="g4_348"/>
<g clip-path="url(#c0_348)">
<path d="M572.3,283.4l-1.4,-.1l-2.2,-.2l-2.2,-.3c-45.8,-6.3,-78.7,-46.6,-75.9,-92.7l.2,-2.3l.1,-1C495.5,141.3,534,107,579.8,107.6H582l2.2,.2h.5l1.8,.1c46.6,4.4,81.6,44.2,79.9,91l-.1,2.3l-.1,2.2C662,249.2,623.6,284,577.6,283.6h-2.2l-2.3,-.1l-.8,-.1Zm-14.7,20.3l2.2,.4c40,6.8,80.4,-8.8,105.3,-40.7l1.4,-1.8v-132l-1.4,-1.8l-.8,-1.1C617.1,68.4,527.8,72.8,486.4,135.3l-.9,1.4l-1.3,2.1c-38.8,65.3,-2.7,148.2,71.1,164.4l1.2,.2l1.1,.3Z" class="g5_348"/>
<path d="M504.2,304.8l1.3,.9h146l1.7,-1.2c4.6,-3.2,9.1,-6.7,13.3,-10.5V261.6l-1.4,1.8l-.8,1.1C598.6,343.8,473,301.3,468.5,198.9l-.1,-2.2v-2.2C471,91,597.8,46.6,664.3,126.7l.8,1.1l1.4,1.8V97.2c-4.2,-3.8,-8.7,-7.3,-13.3,-10.5l-1.7,-1.1h-146l-1.3,.8c-76.2,52.4,-77.2,163.3,-2,217l2,1.4Z" class="g6_348"/>
</g>
<path d="M468.6,303.7l2,2h34.9l-1.3,-.9c-77,-53,-77,-165.4,0,-218.4l1.3,-.8H470.6l-2,2c-8,8.1,-15.1,17.2,-21.1,26.9l-1.1,1.8V275l1.1,1.8c6,9.6,13,18.6,20.9,26.6l.2,.3Z" class="g7_348"/>
<path d="M653.2,305.7h13.3V294l-.6,.5c-4,3.6,-8.3,7,-12.7,10l-1.7,1.2h1.7Z" class="g7_348"/>
<path d="M666.5,97.2V85.6h-15l1.7,1.1c4.4,3.1,8.7,6.4,12.7,10l.6,.5Z" class="g7_348"/>
<path d="M470.6,305.7H446.4V275l1.1,1.8c6,9.7,13.1,18.7,21.1,26.9l2,2Z" class="g8_348"/>
<path d="M446.4,116.3V85.6h24.2l-2,2c-8,8.1,-15.1,17.2,-21.1,26.9l-1.1,1.8Z" class="g8_348"/>
<path d="M446,308.6h.8v-2.9H446Z" class="g9_348"/>
<path d="M434.6,315.5h5.2v-.7h-5.2Z" class="g9_348"/>
<path d="M441.7,317H443v-4.6l-1.4,.3V312l1.4,-.3h.8V317h1.4v.7h-3.5V317Z" class="g9_348"/>
<path d="M448.6,311.6c.6,0,1.1,.3,1.5,.8c.4,.5,.5,1.3,.5,2.3c0,1,-.1,1.8,-.5,2.4c-.4,.5,-.9,.8,-1.5,.8c-.7,0,-1.2,-.3,-1.6,-.8c-.3,-.6,-.5,-1.4,-.5,-2.4c0,-1,.2,-1.8,.5,-2.3c.4,-.5,.9,-.8,1.6,-.8Zm0,.6c-.5,0,-.8,.2,-1,.7c-.2,.4,-.3,1,-.3,1.8c0,.9,.1,1.5,.3,1.9c.2,.4,.5,.6,1,.6c.4,0,.7,-.2,.9,-.6c.2,-.4,.3,-1,.3,-1.9c0,-.8,-.1,-1.4,-.3,-1.8c-.2,-.5,-.5,-.7,-.9,-.7Z" class="g9_348"/>
<path d="M452.1,317.7h.8v-1h-.8Z" class="g9_348"/>
<path d="M456.4,311.6c.7,0,1.2,.3,1.6,.8c.4,.5,.5,1.3,.5,2.3c0,1,-.1,1.8,-.5,2.4c-.4,.5,-.9,.8,-1.6,.8c-.6,0,-1.1,-.3,-1.5,-.8c-.4,-.6,-.5,-1.4,-.5,-2.4c0,-1,.1,-1.8,.5,-2.3c.4,-.5,.9,-.8,1.5,-.8Zm0,.6c-.4,0,-.7,.2,-.9,.7c-.2,.4,-.3,1,-.3,1.8c0,.9,.1,1.5,.3,1.9c.2,.4,.5,.6,.9,.6c.5,0,.8,-.2,1,-.6c.2,-.4,.3,-1,.3,-1.9c0,-.8,-.1,-1.4,-.3,-1.8c-.2,-.5,-.5,-.7,-1,-.7Z" class="g9_348"/>
<path d="M473.5,308.6h.8v-2.9h-.8Z" class="g9_348"/>
<path d="M464.8,315.5h5.1v-.7h-5.1Z" class="g9_348"/>
<path d="M471.5,311.7h3.9v.4l-2.2,5.6h-.9l2.1,-5.3h-2.9v-.7Z" class="g9_348"/>
<path d="M477,317.7h.8v-1H477Z" class="g9_348"/>
<path d="M479.6,311.7h3.2v.7h-2.5v1.5l.4,-.1h.3c.7,0,1.3,.1,1.6,.5c.4,.4,.6,.9,.6,1.5c0,.7,-.2,1.2,-.6,1.5c-.4,.4,-.9,.6,-1.7,.6c-.2,0,-.5,-.1,-.7,-.1c-.3,-.1,-.6,-.1,-.9,-.2v-.8c.3,.1,.5,.2,.8,.3c.2,0,.5,.1,.8,.1c.5,0,.8,-.2,1.1,-.4c.3,-.2,.4,-.6,.4,-1c0,-.4,-.1,-.8,-.4,-1c-.3,-.2,-.6,-.4,-1.1,-.4c-.2,0,-.4,.1,-.6,.1c-.3,.1,-.5,.1,-.7,.2v-3Z" class="g9_348"/>
<path d="M501.1,308.6h.7v-2.9h-.7Z" class="g9_348"/>
<path d="M492.3,315.5h5.1v-.7h-5.1Z" class="g9_348"/>
<path d="M499.2,311.7h3.2v.7H500v1.5l.3,-.1h.4c.6,0,1.2,.1,1.6,.5c.4,.4,.6,.9,.6,1.5c0,.7,-.2,1.2,-.6,1.5c-.4,.4,-1,.6,-1.8,.6c-.2,0,-.5,-.1,-.7,-.1c-.3,-.1,-.6,-.1,-.8,-.2v-.8c.2,.1,.5,.2,.7,.3c.3,0,.5,.1,.8,.1c.5,0,.9,-.2,1.1,-.4c.3,-.2,.4,-.6,.4,-1c0,-.4,-.1,-.8,-.4,-1c-.2,-.2,-.6,-.4,-1.1,-.4c-.2,0,-.4,.1,-.6,.1c-.2,.1,-.5,.1,-.7,.2v-3Z" class="g9_348"/>
<path d="M504.5,317.7h.8v-1h-.8Z" class="g9_348"/>
<path d="M508.8,311.6c.7,0,1.2,.3,1.6,.8c.3,.5,.5,1.3,.5,2.3c0,1,-.2,1.8,-.5,2.4c-.4,.5,-.9,.8,-1.6,.8c-.6,0,-1.2,-.3,-1.5,-.8c-.4,-.6,-.5,-1.4,-.5,-2.4c0,-1,.1,-1.8,.5,-2.3c.3,-.5,.9,-.8,1.5,-.8Zm0,.6c-.4,0,-.7,.2,-.9,.7c-.2,.4,-.3,1,-.3,1.8c0,.9,.1,1.5,.3,1.9c.2,.4,.5,.6,.9,.6c.5,0,.8,-.2,1,-.6c.2,-.4,.3,-1,.3,-1.9c0,-.8,-.1,-1.4,-.3,-1.8c-.2,-.5,-.5,-.7,-1,-.7Z" class="g9_348"/>
<path d="M528.6,308.6h.7v-2.9h-.7Z" class="g9_348"/>
<path d="M519.8,315.5H525v-.7h-5.2Z" class="g9_348"/>
<path d="M527.4,317h2.9v.7h-3.9V317c.3,-.3,.8,-.7,1.3,-1.2c.5,-.6,.9,-.9,1,-1.1c.3,-.3,.5,-.5,.6,-.7c.1,-.2,.1,-.4,.1,-.6c0,-.4,-.1,-.6,-.3,-.8c-.2,-.2,-.5,-.3,-.9,-.3c-.3,0,-.5,0,-.8,.1c-.3,.1,-.6,.2,-.9,.4V312c.3,-.1,.6,-.2,.9,-.3c.3,-.1,.5,-.1,.8,-.1c.6,0,1.1,.2,1.5,.5c.3,.3,.5,.7,.5,1.2c0,.3,0,.5,-.1,.7c-.1,.2,-.3,.5,-.5,.8c-.1,.1,-.3,.3,-.7,.7c-.3,.4,-.8,.9,-1.5,1.5Z" class="g9_348"/>
<path d="M532,317.7h.8v-1H532Z" class="g9_348"/>
<path d="M534.6,311.7h3.2v.7h-2.4v1.5l.3,-.1h.4c.6,0,1.2,.1,1.6,.5c.4,.4,.6,.9,.6,1.5c0,.7,-.2,1.2,-.6,1.5c-.4,.4,-1,.6,-1.7,.6c-.3,0,-.6,-.1,-.8,-.1c-.3,-.1,-.6,-.1,-.8,-.2v-.8c.2,.1,.5,.2,.7,.3c.3,0,.5,.1,.8,.1c.5,0,.9,-.2,1.1,-.4c.3,-.2,.4,-.6,.4,-1c0,-.4,-.1,-.8,-.4,-1c-.2,-.2,-.6,-.4,-1.1,-.4c-.2,0,-.4,.1,-.6,.1c-.2,.1,-.5,.1,-.7,.2v-3Z" class="g9_348"/>
<path d="M556.1,308.6h.7v-2.9h-.7Z" class="g9_348"/>
<path d="M552.5,311.6c.7,0,1.2,.3,1.6,.8c.3,.5,.5,1.3,.5,2.3c0,1,-.2,1.8,-.5,2.4c-.4,.5,-.9,.8,-1.6,.8c-.7,0,-1.2,-.3,-1.5,-.8c-.4,-.6,-.6,-1.4,-.6,-2.4c0,-1,.2,-1.8,.6,-2.3c.3,-.5,.8,-.8,1.5,-.8Zm0,.6c-.4,0,-.7,.2,-.9,.7c-.2,.4,-.4,1,-.4,1.8c0,.9,.2,1.5,.4,1.9c.2,.4,.5,.6,.9,.6c.4,0,.7,-.2,1,-.6c.2,-.4,.3,-1,.3,-1.9c0,-.8,-.1,-1.4,-.3,-1.8c-.3,-.5,-.6,-.7,-1,-.7Z" class="g9_348"/>
<path d="M556,317.7h.9v-1H556Z" class="g9_348"/>
<path d="M560.4,311.6c.7,0,1.2,.3,1.5,.8c.4,.5,.6,1.3,.6,2.3c0,1,-.2,1.8,-.6,2.4c-.3,.5,-.8,.8,-1.5,.8c-.7,0,-1.2,-.3,-1.5,-.8c-.4,-.6,-.6,-1.4,-.6,-2.4c0,-1,.2,-1.8,.6,-2.3c.3,-.5,.8,-.8,1.5,-.8Zm0,.6c-.4,0,-.7,.2,-.9,.7c-.3,.4,-.4,1,-.4,1.8c0,.9,.1,1.5,.4,1.9c.2,.4,.5,.6,.9,.6c.4,0,.7,-.2,.9,-.6c.3,-.4,.4,-1,.4,-1.9c0,-.8,-.1,-1.4,-.4,-1.8c-.2,-.5,-.5,-.7,-.9,-.7Z" class="g9_348"/>
<path d="M583.6,308.6h.7v-2.9h-.7Z" class="g9_348"/>
<path d="M579,317h2.8v.7H578V317c.3,-.3,.7,-.7,1.3,-1.2c.5,-.6,.8,-.9,1,-1.1c.2,-.3,.4,-.5,.5,-.7c.1,-.2,.2,-.4,.2,-.6c0,-.4,-.1,-.6,-.4,-.8c-.2,-.2,-.5,-.3,-.8,-.3c-.3,0,-.6,0,-.9,.1c-.2,.1,-.5,.2,-.9,.4V312c.4,-.1,.7,-.2,1,-.3c.2,-.1,.5,-.1,.7,-.1c.7,0,1.2,.2,1.5,.5c.4,.3,.6,.7,.6,1.2c0,.3,-.1,.5,-.1,.7c-.1,.2,-.3,.5,-.6,.8c0,.1,-.2,.3,-.6,.7c-.4,.4,-.9,.9,-1.5,1.5Z" class="g9_348"/>
<path d="M583.5,317.7h.9v-1h-.9Z" class="g9_348"/>
<path d="M586.2,311.7h3.2v.7h-2.5v1.5l.4,-.1h.3c.7,0,1.2,.1,1.6,.5c.4,.4,.6,.9,.6,1.5c0,.7,-.2,1.2,-.6,1.5c-.4,.4,-1,.6,-1.7,.6c-.2,0,-.5,-.1,-.8,-.1c-.2,-.1,-.5,-.1,-.8,-.2v-.8c.3,.1,.5,.2,.8,.3c.2,0,.5,.1,.8,.1c.5,0,.8,-.2,1.1,-.4c.3,-.2,.4,-.6,.4,-1c0,-.4,-.1,-.8,-.4,-1c-.3,-.2,-.6,-.4,-1.1,-.4c-.2,0,-.4,.1,-.7,.1c-.2,.1,-.4,.1,-.6,.2v-3Z" class="g9_348"/>
<path d="M611.1,308.6h.8v-2.9h-.8Z" class="g9_348"/>
<path d="M605.8,311.7H609v.7h-2.5v1.5l.4,-.1h.4c.6,0,1.2,.1,1.6,.5c.3,.4,.5,.9,.5,1.5c0,.7,-.2,1.2,-.6,1.5c-.4,.4,-.9,.6,-1.7,.6c-.2,0,-.5,-.1,-.7,-.1c-.3,-.1,-.6,-.1,-.9,-.2v-.8c.3,.1,.5,.2,.8,.3c.3,0,.5,.1,.8,.1c.5,0,.8,-.2,1.1,-.4c.3,-.2,.4,-.6,.4,-1c0,-.4,-.1,-.8,-.4,-1c-.3,-.2,-.6,-.4,-1.1,-.4c-.2,0,-.4,.1,-.6,.1c-.3,.1,-.5,.1,-.7,.2v-3Z" class="g9_348"/>
<path d="M611,317.7h.9v-1H611Z" class="g9_348"/>
<path d="M615.4,311.6c.7,0,1.2,.3,1.6,.8c.3,.5,.5,1.3,.5,2.3c0,1,-.2,1.8,-.5,2.4c-.4,.5,-.9,.8,-1.6,.8c-.7,0,-1.2,-.3,-1.5,-.8c-.4,-.6,-.6,-1.4,-.6,-2.4c0,-1,.2,-1.8,.6,-2.3c.3,-.5,.8,-.8,1.5,-.8Zm0,.6c-.4,0,-.7,.2,-.9,.7c-.2,.4,-.3,1,-.3,1.8c0,.9,.1,1.5,.3,1.9c.2,.4,.5,.6,.9,.6c.4,0,.8,-.2,1,-.6c.2,-.4,.3,-1,.3,-1.9c0,-.8,-.1,-1.4,-.3,-1.8c-.2,-.5,-.6,-.7,-1,-.7Z" class="g9_348"/>
<path d="M638.6,308.6h.8v-2.9h-.8Z" class="g9_348"/>
<path d="M633.1,311.7H637v.4l-2.2,5.6h-.9l2.1,-5.3h-2.9v-.7Z" class="g9_348"/>
<path d="M638.6,317.7h.8v-1h-.8Z" class="g9_348"/>
<path d="M641.2,311.7h3.2v.7h-2.5v1.5l.4,-.1h.4c.6,0,1.2,.1,1.6,.5c.3,.4,.5,.9,.5,1.5c0,.7,-.2,1.2,-.6,1.5c-.4,.4,-.9,.6,-1.7,.6c-.2,0,-.5,-.1,-.7,-.1c-.3,-.1,-.6,-.1,-.9,-.2v-.8c.3,.1,.5,.2,.8,.3c.3,0,.5,.1,.8,.1c.5,0,.9,-.2,1.1,-.4c.3,-.2,.4,-.6,.4,-1c0,-.4,-.1,-.8,-.4,-1c-.2,-.2,-.6,-.4,-1.1,-.4c-.2,0,-.4,.1,-.6,.1c-.3,.1,-.5,.1,-.7,.2v-3Z" class="g9_348"/>
<path d="M666.1,308.6h.8v-2.9h-.8Z" class="g9_348"/>
<path d="M658.3,317h1.4v-4.6l-1.5,.3V312l1.4,-.3h.9V317h1.3v.7h-3.5V317Z" class="g9_348"/>
<path d="M665.2,311.6c.7,0,1.2,.3,1.5,.8c.4,.5,.6,1.3,.6,2.3c0,1,-.2,1.8,-.6,2.4c-.3,.5,-.8,.8,-1.5,.8c-.7,0,-1.2,-.3,-1.6,-.8c-.3,-.6,-.5,-1.4,-.5,-2.4c0,-1,.2,-1.8,.5,-2.3c.4,-.5,.9,-.8,1.6,-.8Zm0,.6c-.4,0,-.7,.2,-1,.7c-.2,.4,-.3,1,-.3,1.8c0,.9,.1,1.5,.3,1.9c.3,.4,.6,.6,1,.6c.4,0,.7,-.2,.9,-.6c.3,-.4,.4,-1,.4,-1.9c0,-.8,-.1,-1.4,-.4,-1.8c-.2,-.5,-.5,-.7,-.9,-.7Z" class="g9_348"/>
<path d="M668.7,317.7h.9v-1h-.9Z" class="g9_348"/>
<path d="M673.1,311.6c.7,0,1.2,.3,1.5,.8c.4,.5,.6,1.3,.6,2.3c0,1,-.2,1.8,-.6,2.4c-.3,.5,-.8,.8,-1.5,.8c-.7,0,-1.2,-.3,-1.6,-.8c-.3,-.6,-.5,-1.4,-.5,-2.4c0,-1,.2,-1.8,.5,-2.3c.4,-.5,.9,-.8,1.6,-.8Zm0,.6c-.4,0,-.8,.2,-1,.7c-.2,.4,-.3,1,-.3,1.8c0,.9,.1,1.5,.3,1.9c.2,.4,.6,.6,1,.6c.4,0,.7,-.2,.9,-.6c.2,-.4,.3,-1,.3,-1.9c0,-.8,-.1,-1.4,-.3,-1.8c-.2,-.5,-.5,-.7,-.9,-.7Z" class="g9_348"/>
<path d="M443.5,306h2.9v-.7h-2.9Z" class="g9_348"/>
<path d="M416.1,306.6h5.2v-.7h-5.2Z" class="g9_348"/>
<path d="M423.2,308.1h1.4v-4.6l-1.5,.3v-.7l1.5,-.3h.8v5.3h1.3v.7h-3.5v-.7Z" class="g9_348"/>
<path d="M430.1,302.7c.7,0,1.2,.2,1.5,.8c.4,.5,.6,1.3,.6,2.3c0,1,-.2,1.8,-.6,2.3c-.3,.6,-.8,.8,-1.5,.8c-.7,0,-1.2,-.2,-1.6,-.8c-.3,-.5,-.5,-1.3,-.5,-2.3c0,-1,.2,-1.8,.5,-2.3c.4,-.6,.9,-.8,1.6,-.8Zm0,.6c-.4,0,-.7,.2,-1,.6c-.2,.4,-.3,1.1,-.3,1.9c0,.8,.1,1.4,.3,1.9c.3,.4,.6,.6,1,.6c.4,0,.7,-.2,.9,-.6c.3,-.5,.4,-1.1,.4,-1.9c0,-.8,-.1,-1.5,-.4,-1.9c-.2,-.4,-.5,-.6,-.9,-.6Z" class="g9_348"/>
<path d="M433.6,308.8h.9v-1h-.9Z" class="g9_348"/>
<path d="M438,302.7c.7,0,1.2,.2,1.5,.8c.4,.5,.6,1.3,.6,2.3c0,1,-.2,1.8,-.6,2.3c-.3,.6,-.8,.8,-1.5,.8c-.7,0,-1.2,-.2,-1.6,-.8c-.3,-.5,-.5,-1.3,-.5,-2.3c0,-1,.2,-1.8,.5,-2.3c.4,-.6,.9,-.8,1.6,-.8Zm0,.6c-.4,0,-.8,.2,-1,.6c-.2,.4,-.3,1.1,-.3,1.9c0,.8,.1,1.4,.3,1.9c.2,.4,.6,.6,1,.6c.4,0,.7,-.2,.9,-.6c.2,-.5,.4,-1.1,.4,-1.9c0,-.8,-.2,-1.5,-.4,-1.9c-.2,-.4,-.5,-.6,-.9,-.6Z" class="g9_348"/>
<path d="M443.5,278.5h2.9v-.7h-2.9Z" class="g9_348"/>
<path d="M421.4,279h5.2v-.6h-5.2Z" class="g9_348"/>
<path d="M428.1,275.3H432v.3l-2.2,5.7H429l2,-5.4h-2.9v-.6Z" class="g9_348"/>
<path d="M433.6,281.3h.9v-1h-.9Z" class="g9_348"/>
<path d="M436.2,275.3h3.3v.6H437v1.5l.4,-.1h.3c.7,0,1.2,.2,1.6,.6c.4,.3,.6,.8,.6,1.5c0,.6,-.2,1.1,-.6,1.5c-.4,.3,-1,.5,-1.7,.5c-.3,0,-.5,0,-.8,-.1c-.3,0,-.5,-.1,-.8,-.2v-.8c.2,.2,.5,.3,.7,.3c.3,.1,.6,.1,.9,.1c.4,0,.8,-.1,1.1,-.3c.2,-.3,.4,-.6,.4,-1c0,-.5,-.2,-.8,-.4,-1c-.3,-.3,-.7,-.4,-1.1,-.4c-.3,0,-.5,0,-.7,.1c-.2,0,-.4,.1,-.7,.2v-3Z" class="g9_348"/>
<path d="M443.5,251h2.9v-.7h-2.9Z" class="g9_348"/>
<path d="M421.4,251.5h5.2v-.7h-5.2Z" class="g9_348"/>
<path d="M428.4,247.8h3.2v.6h-2.5v1.5l.4,-.1h.3c.7,0,1.2,.2,1.6,.5c.4,.4,.6,.9,.6,1.5c0,.7,-.2,1.2,-.6,1.6c-.4,.3,-1,.5,-1.7,.5c-.3,0,-.5,0,-.8,-.1c-.2,0,-.5,-.1,-.8,-.2v-.8c.2,.1,.5,.2,.8,.3c.2,.1,.5,.1,.8,.1c.4,0,.8,-.1,1.1,-.4c.3,-.2,.4,-.5,.4,-1c0,-.4,-.1,-.7,-.4,-1c-.3,-.2,-.7,-.3,-1.1,-.3c-.2,0,-.5,0,-.7,.1c-.2,0,-.4,.1,-.6,.2v-3Z" class="g9_348"/>
<path d="M433.6,253.8h.9v-1h-.9Z" class="g9_348"/>
<path d="M438,247.6c.7,0,1.2,.3,1.5,.8c.4,.6,.6,1.4,.6,2.4c0,1,-.2,1.8,-.6,2.3c-.3,.5,-.8,.8,-1.5,.8c-.7,0,-1.2,-.3,-1.6,-.8c-.3,-.5,-.5,-1.3,-.5,-2.3c0,-1,.2,-1.8,.5,-2.4c.4,-.5,.9,-.8,1.6,-.8Zm0,.7c-.4,0,-.7,.2,-1,.6c-.2,.4,-.3,1,-.3,1.9c0,.8,.1,1.4,.3,1.8c.3,.4,.6,.7,1,.7c.4,0,.7,-.3,.9,-.7c.2,-.4,.4,-1,.4,-1.8c0,-.9,-.2,-1.5,-.4,-1.9c-.2,-.4,-.5,-.6,-.9,-.6Z" class="g9_348"/>
<path d="M443.5,223.5h2.9v-.8h-2.9Z" class="g9_348"/>
<path d="M421.4,224h5.2v-.7h-5.2Z" class="g9_348"/>
<path d="M429.1,225.6h2.8v.7h-3.8v-.7c.3,-.3,.7,-.8,1.2,-1.3c.6,-.5,.9,-.9,1,-1.1c.3,-.2,.5,-.5,.6,-.7c.1,-.2,.1,-.4,.1,-.6c0,-.3,-.1,-.6,-.3,-.8c-.2,-.2,-.5,-.3,-.9,-.3c-.2,0,-.5,.1,-.8,.1c-.3,.1,-.6,.3,-.9,.5v-.9c.3,-.1,.6,-.2,.9,-.3c.3,0,.6,-.1,.8,-.1c.6,0,1.1,.2,1.5,.5c.4,.3,.6,.7,.6,1.2c0,.3,-.1,.5,-.2,.8c-.1,.2,-.2,.4,-.5,.7c0,.1,-.3,.3,-.6,.7c-.4,.4,-.9,.9,-1.5,1.6Z" class="g9_348"/>
<path d="M433.6,226.3h.9v-1.1h-.9Z" class="g9_348"/>
<path d="M436.2,220.2h3.3v.7H437v1.5l.4,-.1h.3c.7,0,1.2,.2,1.6,.5c.4,.4,.6,.9,.6,1.5c0,.7,-.2,1.2,-.6,1.5c-.4,.4,-1,.6,-1.7,.6c-.3,0,-.5,0,-.8,-.1c-.3,0,-.5,-.1,-.8,-.2v-.8c.2,.1,.5,.2,.7,.3c.3,.1,.6,.1,.9,.1c.4,0,.8,-.1,1.1,-.4c.2,-.2,.4,-.5,.4,-1c0,-.4,-.2,-.7,-.4,-1c-.3,-.2,-.7,-.3,-1.1,-.3c-.3,0,-.5,0,-.7,0c-.2,.1,-.4,.2,-.7,.3v-3.1Z" class="g9_348"/>
<path d="M443.5,196h2.9v-.8h-2.9Z" class="g9_348"/>
<path d="M430.1,192.6c.7,0,1.2,.3,1.5,.8c.4,.6,.6,1.3,.6,2.3c0,1.1,-.2,1.8,-.6,2.4c-.3,.5,-.8,.8,-1.5,.8c-.7,0,-1.2,-.3,-1.6,-.8c-.3,-.6,-.5,-1.3,-.5,-2.4c0,-1,.2,-1.7,.5,-2.3c.4,-.5,.9,-.8,1.6,-.8Zm0,.7c-.4,0,-.7,.2,-1,.6c-.2,.4,-.3,1,-.3,1.8c0,.9,.1,1.5,.3,1.9c.3,.4,.6,.6,1,.6c.4,0,.7,-.2,.9,-.6c.3,-.4,.4,-1,.4,-1.9c0,-.8,-.1,-1.4,-.4,-1.8c-.2,-.4,-.5,-.6,-.9,-.6Z" class="g9_348"/>
<path d="M433.6,198.8h.9v-1.1h-.9Z" class="g9_348"/>
<path d="M438,192.6c.7,0,1.2,.3,1.5,.8c.4,.6,.6,1.3,.6,2.3c0,1.1,-.2,1.8,-.6,2.4c-.3,.5,-.8,.8,-1.5,.8c-.7,0,-1.2,-.3,-1.6,-.8c-.3,-.6,-.5,-1.3,-.5,-2.4c0,-1,.2,-1.7,.5,-2.3c.4,-.5,.9,-.8,1.6,-.8Zm0,.7c-.4,0,-.7,.2,-1,.6c-.2,.4,-.3,1,-.3,1.8c0,.9,.1,1.5,.3,1.9c.3,.4,.6,.6,1,.6c.4,0,.7,-.2,.9,-.6c.2,-.4,.4,-1,.4,-1.9c0,-.8,-.2,-1.4,-.4,-1.8c-.2,-.4,-.5,-.6,-.9,-.6Z" class="g9_348"/>
<path d="M443.5,168.5h2.9v-.8h-2.9Z" class="g9_348"/>
<path d="M429.1,170.6h2.8v.6h-3.8v-.6c.3,-.4,.7,-.8,1.2,-1.3c.6,-.6,.9,-.9,1,-1.1c.3,-.3,.5,-.5,.6,-.7c.1,-.2,.1,-.4,.1,-.6c0,-.3,-.1,-.6,-.3,-.8c-.2,-.2,-.5,-.3,-.9,-.3c-.2,0,-.5,0,-.8,.1c-.3,.1,-.6,.2,-.9,.4v-.8c.3,-.1,.6,-.2,.9,-.3c.3,-.1,.6,-.1,.8,-.1c.6,0,1.1,.2,1.5,.5c.4,.3,.6,.7,.6,1.2c0,.3,-.1,.5,-.2,.7c-.1,.3,-.2,.5,-.5,.8c0,.1,-.3,.3,-.6,.7c-.4,.4,-.9,.9,-1.5,1.6Z" class="g9_348"/>
<path d="M433.6,171.2h.9v-1h-.9Z" class="g9_348"/>
<path d="M436.3,165.2h3.2v.7H437v1.5l.4,-.1h.3c.7,0,1.2,.1,1.6,.5c.4,.4,.6,.9,.6,1.5c0,.7,-.2,1.2,-.6,1.5c-.4,.4,-1,.6,-1.7,.6c-.3,0,-.5,-.1,-.8,-.1c-.3,0,-.5,-.1,-.8,-.2v-.8c.2,.1,.5,.2,.7,.3c.3,0,.6,.1,.9,.1c.4,0,.8,-.1,1.1,-.4c.2,-.2,.4,-.6,.4,-1c0,-.4,-.2,-.7,-.4,-1c-.3,-.2,-.7,-.4,-1.1,-.4c-.3,0,-.5,.1,-.7,.1c-.2,.1,-.4,.1,-.6,.2v-3Z" class="g9_348"/>
<path d="M443.5,141h2.9v-.8h-2.9Z" class="g9_348"/>
<path d="M428.4,137.7h3.2v.7h-2.5v1.5l.4,-.1l.3,-.1c.7,0,1.2,.2,1.6,.6c.4,.4,.6,.9,.6,1.5c0,.6,-.2,1.1,-.6,1.5c-.4,.4,-1,.5,-1.7,.5c-.3,0,-.5,0,-.8,0c-.2,-.1,-.5,-.1,-.8,-.2v-.8c.2,.1,.5,.2,.8,.3c.2,0,.5,.1,.8,.1c.4,0,.8,-.2,1.1,-.4c.3,-.3,.4,-.6,.4,-1c0,-.4,-.1,-.8,-.4,-1c-.3,-.2,-.7,-.4,-1.1,-.4c-.2,0,-.5,.1,-.7,.1c-.2,.1,-.4,.1,-.6,.2v-3Z" class="g9_348"/>
<path d="M433.6,143.7h.9v-1h-.9Z" class="g9_348"/>
<path d="M438,137.6c.7,0,1.2,.3,1.5,.8c.4,.5,.6,1.3,.6,2.3c0,1,-.2,1.8,-.6,2.3c-.3,.6,-.8,.8,-1.5,.8c-.7,0,-1.2,-.2,-1.6,-.8c-.3,-.5,-.5,-1.3,-.5,-2.3c0,-1,.2,-1.8,.5,-2.3c.4,-.5,.9,-.8,1.6,-.8Zm0,.6c-.4,0,-.7,.2,-1,.7c-.2,.4,-.3,1,-.3,1.8c0,.9,.1,1.5,.3,1.9c.3,.4,.6,.6,1,.6c.4,0,.7,-.2,.9,-.6c.2,-.4,.4,-1,.4,-1.9c0,-.8,-.2,-1.4,-.4,-1.8c-.2,-.5,-.5,-.7,-.9,-.7Z" class="g9_348"/>
<path d="M443.5,113.5h2.9v-.8h-2.9Z" class="g9_348"/>
<path d="M428.1,110.2H432v.3l-2.2,5.7H429l2,-5.3h-2.9v-.7Z" class="g9_348"/>
<path d="M433.6,116.2h.9v-1h-.9Z" class="g9_348"/>
<path d="M436.3,110.2h3.2v.7H437v1.5l.4,-.1l.3,-.1c.7,0,1.2,.2,1.6,.6c.4,.4,.6,.9,.6,1.5c0,.6,-.2,1.1,-.6,1.5c-.4,.4,-1,.5,-1.7,.5c-.3,0,-.5,0,-.8,0c-.3,-.1,-.5,-.1,-.8,-.2v-.8c.2,.1,.5,.2,.7,.3c.3,0,.6,0,.9,0c.4,0,.8,-.1,1.1,-.3c.2,-.3,.4,-.6,.4,-1c0,-.4,-.2,-.8,-.4,-1c-.3,-.3,-.7,-.4,-1.1,-.4c-.3,0,-.5,0,-.7,.1c-.2,0,-.4,.1,-.6,.2v-3Z" class="g9_348"/>
<path d="M443.5,85.9h2.9v-.7h-2.9Z" class="g9_348"/>
<path d="M423.2,88h1.4V83.4l-1.5,.3V83l1.5,-.3h.8V88h1.3v.7h-3.5V88Z" class="g9_348"/>
<path d="M430.1,82.6c.7,0,1.2,.2,1.5,.8c.4,.5,.6,1.3,.6,2.3c0,1,-.2,1.8,-.6,2.3c-.3,.6,-.8,.8,-1.5,.8c-.7,0,-1.2,-.2,-1.6,-.8c-.3,-.5,-.5,-1.3,-.5,-2.3c0,-1,.2,-1.8,.5,-2.3c.4,-.6,.9,-.8,1.6,-.8Zm0,.6c-.4,0,-.7,.2,-1,.6c-.2,.4,-.3,1.1,-.3,1.9c0,.8,.1,1.4,.3,1.9c.3,.4,.6,.6,1,.6c.4,0,.7,-.2,.9,-.6c.3,-.5,.4,-1.1,.4,-1.9c0,-.8,-.1,-1.5,-.4,-1.9c-.2,-.4,-.5,-.6,-.9,-.6Z" class="g9_348"/>
<path d="M433.6,88.7h.9v-1h-.9Z" class="g9_348"/>
<path d="M438,82.6c.7,0,1.2,.2,1.5,.8c.4,.5,.6,1.3,.6,2.3c0,1,-.2,1.8,-.6,2.3c-.3,.6,-.8,.8,-1.5,.8c-.7,0,-1.2,-.2,-1.6,-.8c-.3,-.5,-.5,-1.3,-.5,-2.3c0,-1,.2,-1.8,.5,-2.3c.4,-.6,.9,-.8,1.6,-.8Zm0,.6c-.4,0,-.7,.2,-1,.6c-.2,.4,-.3,1.1,-.3,1.9c0,.8,.1,1.4,.3,1.9c.3,.4,.6,.6,1,.6c.4,0,.7,-.2,.9,-.6c.2,-.5,.4,-1.1,.4,-1.9c0,-.8,-.2,-1.5,-.4,-1.9c-.2,-.4,-.5,-.6,-.9,-.6Z" class="g9_348"/>
<path d="M573.2,216.6l-.7,-.2c-11.3,-3.2,-17.9,-14.9,-15,-26.2l.4,-1.3l-.3,-.1l.3,.1l.3,-.9c7.9,-19.7,35.4,-18.2,41.2,2.2v.2l.4,1.9l.3,2.2v2.2l-.3,2.2l-.4,2v.2c-2.8,10.6,-13.1,17.5,-24,15.9l-2.2,-.4l-.1,.7l2.2,.5c27.7,2.8,35.8,-34.8,9.4,-43.7l-.3,-.1h-.1c-28.8,-6.4,-40,33.6,-12.1,43.1l.8,.2l.2,-.7Z" class="ga_348"/>
<path d="M570.9,239l.1,-.4h-.1l-2.1,-.4l-2.2,-.6l-2.2,-.7l-1.5,-.5l-.7,-.3c-11,-4.4,-19.6,-13,-24.1,-24l-.2,-.4l-.7,-1.8c-2.4,-7,-3,-14.6,-1.7,-22l.2,-.9l.3,-1.3l.5,-2.2l.7,-2.2l.7,-1.8l.2,-.4c4.5,-10.9,13.1,-19.5,24.1,-24l.7,-.3l1.5,-.5l2.2,-.7l2.2,-.5l2.1,-.5h.1c7.3,-1.3,15,-.6,22,1.9l1,.3l1.2,.5c10.8,4.5,19.2,13,23.7,23.8l.6,1.6l.2,.6c3.2,9.2,3.2,19.4,0,28.6l-.2,.6l-.6,1.6l-1,2.2l-.6,1.3l.3,.2l-.3,-.2l-.5,1c-4.8,8.7,-12.4,15.5,-21.6,19.3l-1.2,.5l-1,.4c-6.3,2.2,-13.2,3,-19.8,2.1l-2.2,-.3l-.1,.4l.1,-.4l-.1,.4l-.1,.4l2.3,.3l2.2,.2c22.7,1.6,42.8,-14.1,46.9,-36.4l.2,-1.7l.1,-.6c2.9,-23.4,-12.8,-44.9,-36,-49.2l-.4,-.1l-1.8,-.3l-2.2,-.2c-22.4,-1.9,-42.7,13.4,-47.1,35.4l-.2,1c-4.2,23.4,10.7,45.8,33.8,51.1l2.2,.4v.1l.1,-.4Z" class="ga_348"/>
<path d="M570.9,261.2l.1,-1.1l-2.2,-.3l-2.1,-.3l-2.2,-.5l-2.2,-.5l-2.1,-.6h-.1l-2.2,-.7l-2.2,-.8l-1.8,-.7l-.4,-.1l-2.1,-1l-2.2,-1L547,252.4l-1.8,-1l-.4,-.3l-2.2,-1.4l-.8,-.5l-1.4,-1L538.8,247c-3.4,-2.6,-6.5,-5.6,-9.3,-8.8h-.1l-.7,.8l.8,-.7l-1.8,-2.2c-3.7,-4.7,-6.8,-9.8,-9.1,-15.3v-.1l-.9,-2.1l-.8,-2.2l-.5,-1.8l-.1,-.4l-.7,-2.2l-.5,-2.2l-.4,-2.2l-.4,-2.2l-.1,-.6l-.2,-1.5c-.6,-5.1,-.6,-10.3,0,-15.3l.2,-1.5l.1,-.7l.4,-2.2l.4,-2.2l.5,-2.2l.7,-2.2l.1,-.4l.5,-1.8l.8,-2.1l.9,-2.2v.1v-.1c2.3,-5.5,5.4,-10.7,9.1,-15.3l1.8,-2.2l-.8,-.7l.7,.7c6.6,-7.5,14.9,-13.5,24.1,-17.3l.4,-.2l1.8,-.7c12.6,-4.7,26.4,-5.4,39.4,-2l1.6,.5l.6,.2l2.2,.7l2.1,.8l1.4,.5l.8,.3l2.2,1l1.8,.9l.4,.2c13.6,7,24.2,18.5,30.1,32.6l.5,1.2l.4,1l.8,2.1l.7,2.2l.3,1.1l.3,1.1c2.8,10.7,2.8,22.1,0,32.8l-.3,1.1l-.3,1.1l-.7,2.2l-.8,2.2l-.4,1l-.5,1.2c-5.9,14,-16.5,25.5,-30.1,32.5l-.4,.2l-1.8,.9l-2.2,1l-.8,.3l-1.4,.6l-2.1,.8l-2.2,.7l-.6,.1l-1.6,.5c-7.1,1.9,-14.6,2.5,-21.9,1.9l-2.2,-.2l-.1,1.1l.1,-1.1l-.1,1.1l-.1,1.1l2.2,.2h.1c41.4,3.2,75.6,-31.1,72.3,-72.5v-.1l-.3,-2.2c-4.9,-40.3,-43.8,-67.1,-83.3,-57.1h-.1l-2.1,.6h-.1c-3.9,1.2,-7.7,2.7,-11.3,4.5h-.1l-2.2,1.2c-5.9,3.3,-11.3,7.5,-16,12.4l-2,2.2l.8,.8l-.8,-.8c-22.1,25.3,-22.1,62.9,0,88.2l.8,-.7l-.8,.7l2,2.2c4.7,4.9,10.1,9.1,16,12.4l2.2,1.2h.1c7,3.6,14.7,5.9,22.6,6.8l.1,-1.1Z" class="gb_348"/>
<path d="M573.1,283.5l.1,-.4h-.9c-8.8,-.6,-17.5,-2.6,-25.7,-5.8l-2.1,-.9h-.1l-2.2,-1l-2.3,-1l-.3,-.2l-1.9,-1c-10,-5.2,-19,-12.5,-26.3,-21.1l-.2,-.3l-.3,.2l.3,-.2l-1.6,-2L509,249l-1.1,-1.4L506.7,246l-.3,.2l.3,-.2l-.4,-.6l-1.4,-2.2l-.4,-.5l-.3,.2l.3,-.2l-1,-1.7l-1.2,-2l-.1,-.2L501,236.6l-.9,-1.7l-.3,-.5l-1,-2.3l-.9,-2l-.1,-.2l-.9,-2.2l-.8,-2.2l-.4,-1.1l-.4,-1.1c-5.2,-15.7,-5.9,-32.6,-1.9,-48.7l.1,-.4l.4,-1.8l.7,-2.2l.7,-2.3l.4,-1.1l.4,-1.1l.8,-2.2l.9,-2.2l.1,-.2l.9,-2l1,-2.2l.3,-.6l.9,-1.6l1.2,-2.3l.1,-.2l1.2,-2l1,-1.7l-.3,-.2l.3,.2l.4,-.5l1.4,-2.2l.4,-.6l-.3,-.2l.3,.2l1.2,-1.6c3,-4,6.3,-7.8,9.9,-11.3l2.2,-2l-.3,-.3l.3,.3c5.4,-4.8,11.4,-9,17.7,-12.3l1.9,-1l.3,-.1l2.3,-1.1l2.2,-.9l.1,-.1l2.1,-.8l2.2,-.9l1.5,-.5l.7,-.2c19.5,-6.5,40.7,-5.8,59.8,1.7l1.7,.7l.5,.2l2.2,1l2.1,1l.1,.1l2.2,1.1l1.9,1l.4,.2l2.2,1.4l1.1,.7l1.1,.6l2.2,1.5v.1c2.3,1.6,4.5,3.2,6.6,5l1.8,1.6l.3,-.3l-.3,.3l.4,.4c2.2,2,4.3,4.1,6.3,6.3l.4,.4l.3,-.3l-.3,.3l1.5,1.8l.7,.8l.3,-.3l-.3,.3l1.1,1.4l1.1,1.4l.6,.8l1.6,2.2l1.5,2.2l.7,1.2l.7,1l1.3,2.2l.3,.6l.9,1.7l1.1,2.2l.2,.3l.8,1.9l1,2.2l.4,.9l.5,1.3l.9,2.2l.7,2.2l.1,.2l.6,2.1c3.7,12.1,4.7,25,3,37.6l-.4,2.2l.4,.1l-.4,-.1l-.4,2.2c-.5,3,-1.3,6,-2.2,8.9l-.6,2l-.1,.2l-.7,2.2l-.9,2.2l-.5,1.4l-.4,.8l-1,2.2l-.8,1.9l-.2,.4l-1.1,2.2l-.9,1.6l-.3,.6l-1.3,2.2l-.7,1l-.7,1.2l-1.5,2.2l-1.6,2.2l-.6,.8l.3,.3l-.3,-.3l-1.1,1.4l-1.1,1.5l.3,.2l-.3,-.3l-.7,.9l-1.5,1.7l.3,.3l-.3,-.3l-.4,.5c-2,2.2,-4.1,4.3,-6.3,6.3l-.4,.3l.3,.3l-.3,-.3l-1.8,1.6l-.7,.6l.2,.3l-.2,-.3l-1.5,1.2c-3.5,2.8,-7.2,5.3,-11,7.5l-.4,.2l.2,.3l-.2,-.3l-1.9,1l-2.2,1.1l-.1,.1l-2.1,1l-2.2,1l-.5,.2l-1.7,.7c-11.2,4.5,-23.4,6.5,-35.4,6.1l-2.3,-.1v.4l.1,-.4l-.1,.4v.4l2.2,.1c63.7,1.9,108.5,-61,85.4,-120.8l-.5,-1.3l-.4,-.9C633,99.2,551.2,88.2,509,140.9l-.6,.8c-42.8,56.7,-6.5,136.6,63.9,142.1l.8,.1v-.4Z" class="ga_348"/>
<path clip-path="url(#c0_348)" d="M666.2,261.4l-3.1,4l-3.5,4C592.8,340.9,475.2,299,468.9,201.2l-.1,-4.5v-4.4c4.6,-100.7,126.5,-143.5,193,-68l3,3.7l1.4,1.8l.6,-.4l-1.4,-1.8C600.2,46.9,473,88.5,468.1,192.3l-.1,4.4c2.8,103.6,128.6,147.9,195.6,69.2h.1l3.1,-4l-.6,-.5Z" class="ga_348"/>
<path d="M505.7,305.3L502.2,303C427.4,249.3,428.6,138.9,504.4,86.7l1.3,-.8l-.4,-.7l-1.3,.9c-76.3,52.5,-77.4,163.4,-2.2,217.5l3.5,2.4l.4,-.7Z" class="ga_348"/>
<path d="M666.3,293.8l-.6,.5l-1.7,1.4l.3,.3l-.3,-.3l-.9,.8l-1.3,1.1l-1.4,1.1l-.8,.6l.2,.3l-.2,-.3l-2.1,1.6l-.1,.1l.2,.3l-.2,-.3l-2.2,1.6l.2,.4l-.2,-.4l-.7,.5l-1.5,1.1l-1.8,1.1l.5,.7l1.7,-1.2c1.5,-1.1,3.1,-2.1,4.6,-3.3l2.1,-1.6c2.1,-1.6,4.1,-3.3,6.1,-5.1l.6,-.5l-.5,-.5Z" class="ga_348"/>
<path d="M651.2,85.9L653,87l1.5,1.1l.7,.5l2.2,1.6l.1,.1l2.1,1.6l.8,.6l1.4,1.2l.3,-.3l-.3,.3l1.3,1l.9,.8l1.7,1.5l.2,-.3l-.2,.3l.6,.5l.5,-.6l-.6,-.5c-4.1,-3.6,-8.4,-6.9,-12.8,-10l-1.7,-1.2l-.5,.7Z" class="ga_348"/>
<path d="M470.9,305.4l-2,-2l-.3,.3l.3,-.3l-.2,-.2l-2,-2.1l-.3,.3l.3,-.3l-.1,-.1l-2.1,-2.3l-2,-2.2l-.2,-.3l-.3,.2l.3,-.2l-1.6,-1.9l-.7,-.7l-1.2,-1.5l-1,-1.3l-.7,-.9l-1.5,-2l-.2,-.3v.1l-1.6,-2.3l-.4,-.5l-1.2,-1.7l-1,-1.5l-.5,-.7l-.3,.2l.3,-.2l-1.5,-2.2l-.2,-.5v.1l-1.2,-1.8l-1.1,-1.8l-.6,.4l1.1,1.8c6,9.7,13.1,18.8,21.2,26.9l2,2l.5,-.5Z" class="ga_348"/>
<path d="M446.7,116.5l1.1,-1.8l1.2,-1.8l.2,-.4l1.5,-2.3l.5,-.7l1,-1.5l1.2,-1.7l.4,-.5l1.6,-2.2l.2,-.3l1.5,-1.9l.7,-1l1,-1.3L460,97.7l.7,-.8l-.3,-.2l.2,.2L462.3,95l-.3,-.2l.3,.2l.2,-.3l2,-2.2l2.1,-2.2l.1,-.2l2,-2l.2,-.3l-.3,-.2l.3,.2l2,-2l-.5,-.5l-2,2c-8.1,8.2,-15.2,17.2,-21.2,27l-1.1,1.8l.6,.4Z" class="ga_348"/>
<path d="M446,306h.8V85.2H446Z" class="g9_348"/>
<path d="M666.1,306h.8V85.2h-.8Z" class="g9_348"/>
<path d="M446,306H666.9v-.7H446Z" class="g9_348"/>
<path d="M446,85.9H666.9v-.7H446Z" class="g9_348"/>
<path d="M681.3,305.7h11V85.6h-11Z" class="g0_348"/>
<path d="M681.3,305.7h11v-22h-11Z" class="gc_348"/>
<path d="M681.3,283.7h11V261.6h-11Z" class="gd_348"/>
<path d="M681.3,261.6h11v-22h-11Z" class="g1_348"/>
<path d="M681.3,239.6h11v-22h-11Z" class="g2_348"/>
<path d="M681.3,217.6h11v-22h-11Z" class="g3_348"/>
<path d="M681.3,195.6h11v-22h-11Z" class="g4_348"/>
<path d="M681.3,173.6h11v-22h-11Z" class="g5_348"/>
<path d="M681.3,151.6h11v-22h-11Z" class="g6_348"/>
<path d="M681.3,129.6h11v-22h-11Z" class="g7_348"/>
<path d="M681.3,107.6h11v-22h-11Z" class="g8_348"/>
<path d="M692.3,284h2.9v-.7h-2.9Z" class="g9_348"/>
<path d="M698.9,284.5h5.2v-.6h-5.2Z" class="g9_348"/>
<path d="M706.5,282.3c0,.3,.1,.6,.3,.7c.2,.2,.5,.3,.8,.3c.4,0,.6,-.1,.8,-.3c.2,-.1,.3,-.4,.3,-.7c0,-.3,-.1,-.6,-.3,-.7c-.2,-.2,-.4,-.3,-.8,-.3c-.3,0,-.6,.1,-.8,.3c-.2,.1,-.3,.4,-.3,.7Zm.3,1.3c-.3,-.1,-.6,-.3,-.8,-.5c-.2,-.2,-.3,-.5,-.3,-.9c0,-.5,.2,-.8,.5,-1.1c.4,-.3,.8,-.4,1.4,-.4c.6,0,1.1,.1,1.4,.4c.4,.3,.6,.6,.6,1.1c0,.4,-.1,.7,-.3,.9c-.2,.2,-.5,.4,-.9,.5c.4,.1,.7,.3,1,.5c.2,.3,.3,.6,.3,1c0,.6,-.2,1,-.5,1.3c-.4,.4,-.9,.5,-1.6,.5c-.6,0,-1.1,-.1,-1.5,-.5c-.4,-.3,-.5,-.7,-.5,-1.3c0,-.4,.1,-.7,.3,-1c.2,-.2,.5,-.4,.9,-.5Zm.8,.3c-.4,0,-.7,.1,-.9,.3c-.2,.2,-.3,.5,-.3,.9c0,.4,.1,.6,.3,.9c.2,.2,.5,.3,.9,.3c.4,0,.7,-.1,.9,-.3c.3,-.3,.4,-.5,.4,-.9c0,-.4,-.1,-.7,-.4,-.9c-.2,-.2,-.5,-.3,-.9,-.3Z" class="g9_348"/>
<path d="M692.3,240h2.9v-.7h-2.9Z" class="g9_348"/>
<path d="M698.9,240.5h5.2v-.7h-5.2Z" class="g9_348"/>
<path d="M707.9,236.7h1v4h.9v.7h-.9v1.4h-.8v-1.4h-2.7v-.8l2.5,-3.9Zm.2,.8l-2,3.2h2v-3.2Z" class="g9_348"/>
<path d="M692.3,196h2.9v-.8h-2.9Z" class="g9_348"/>
<path d="M700.7,192.6c.7,0,1.2,.3,1.5,.8c.4,.6,.6,1.3,.6,2.3c0,1.1,-.2,1.8,-.6,2.4c-.3,.5,-.8,.8,-1.5,.8c-.7,0,-1.2,-.3,-1.6,-.8c-.3,-.6,-.5,-1.3,-.5,-2.4c0,-1,.2,-1.7,.5,-2.3c.4,-.5,.9,-.8,1.6,-.8Zm0,.7c-.4,0,-.7,.2,-1,.6c-.2,.4,-.3,1,-.3,1.8c0,.9,.1,1.5,.3,1.9c.3,.4,.6,.6,1,.6c.4,0,.7,-.2,.9,-.6c.3,-.4,.4,-1,.4,-1.9c0,-.8,-.1,-1.4,-.4,-1.8c-.2,-.4,-.5,-.6,-.9,-.6Z" class="g9_348"/>
<path d="M692.3,152h2.9v-.8h-2.9Z" class="g9_348"/>
<path d="M701,148.7h1v3.9h.9v.7H702v1.4h-.8v-1.4h-2.7v-.8l2.5,-3.8Zm.2,.7l-2.1,3.2h2.1v-3.2Z" class="g9_348"/>
<path d="M692.3,108h2.9v-.8h-2.9Z" class="g9_348"/>
<path d="M699.6,106.2c0,.3,.1,.6,.3,.7c.2,.2,.4,.3,.8,.3c.3,0,.6,-.1,.8,-.3c.2,-.1,.3,-.4,.3,-.7c0,-.3,-.1,-.5,-.3,-.7c-.2,-.2,-.5,-.3,-.8,-.3c-.4,0,-.6,.1,-.8,.3c-.2,.2,-.3,.4,-.3,.7Zm.3,1.3c-.4,-.1,-.6,-.2,-.8,-.5c-.2,-.2,-.3,-.5,-.3,-.9c0,-.4,.1,-.8,.5,-1.1c.3,-.3,.8,-.4,1.4,-.4c.6,0,1.1,.1,1.4,.4c.4,.3,.5,.7,.5,1.1c0,.4,-.1,.7,-.3,.9c-.2,.3,-.4,.4,-.8,.5c.4,.1,.7,.3,.9,.5c.3,.3,.4,.6,.4,1c0,.6,-.2,1.1,-.6,1.4c-.3,.3,-.8,.4,-1.5,.4c-.7,0,-1.2,-.1,-1.5,-.4c-.4,-.3,-.6,-.8,-.6,-1.4c0,-.4,.1,-.7,.4,-1c.2,-.2,.5,-.4,.9,-.5Zm.8,.4c-.4,0,-.7,.1,-.9,.3c-.2,.2,-.4,.5,-.4,.8c0,.4,.2,.7,.4,.9c.2,.2,.5,.3,.9,.3c.4,0,.7,-.1,.9,-.3c.2,-.2,.3,-.5,.3,-.9c0,-.3,-.1,-.6,-.3,-.8c-.2,-.2,-.5,-.3,-.9,-.3Z" class="g9_348"/>
<path d="M681.3,305.7v.3h11.4V85.2H680.9V306h.4v-.3h.4V85.9h10.2V305.3H681.3v.4h.4h-.4Z" class="g9_348"/>
<path d="M177.3,781.9H424.7V534.6H177.3Z" class="g0_348"/>
<path d="M269.8,682.1l2.5,.6c11.6,1.8,22.9,-4.7,27.1,-15.7l.4,-1.1h2.5l.3,1.1l1.1,2.5c11.4,21.3,42.4,16.2,46.5,-7.5l.2,-2.5V657c-1.8,-25.3,-34.6,-32.4,-46.7,-10l-1.1,2.5l-.3,1.1h-2.5l-.4,-1.1L298.3,647C290.9,632.6,272,629,259.8,639.8l-2.2,2.2l-.3,.4c-10.8,13.1,-5.7,32.7,10,38.9l2.1,.7l.4,.1Z" class="g1_348"/>
<path d="M269.4,682l-2.1,-.7l-2.5,-1.2c-13.9,-7.3,-17.6,-25.5,-7.5,-37.7l.3,-.4l2.2,-2.2C272,629,290.9,632.6,298.3,647l1.1,2.5l.4,1.1h2.5l.3,-1.1l1.1,-2.5c11.4,-21.3,42.4,-16.2,46.5,7.5l.2,2.5v2.5c-1.8,25.3,-34.6,32.4,-46.7,10L302.6,667l-.3,-1.1h-2.5l-.4,1.1c-4.5,11.9,-17.3,18.5,-29.6,15.1l-.4,-.1Zm.4,25.3l2.5,.3l2.5,.1h2.5l2.5,-.1l2.5,-.2c5.9,-.8,11.8,-2.6,17.1,-5.4l.4,-.2h2.5c4.6,2.5,9.7,4.3,14.9,5.2l2.5,.4l2.5,.2l2.5,.1c15.3,.3,29.8,-6.4,39.4,-18.2l.6,-.8L366,687l1.2,-1.8c19.2,-29.9,2.2,-69,-32.5,-75.6l-.4,-.1l-2.1,-.3l-2.5,-.3l-2.5,-.1h-2.5l-2.5,.1c-6,.4,-11.9,2,-17.4,4.6l-2.2,1l-.3,.2h-2.5l-.4,-.2l-2.1,-1l-2.5,-1.1l-.9,-.4l-1.6,-.6l-2.5,-.7l-2.5,-.7l-2.5,-.5l-2.5,-.4l-2.5,-.2c-15.1,-1.1,-29.8,4.8,-40,15.9l-1.9,2.2l-.6,.8l-1.3,1.7c-20.3,28.9,-5.4,68.5,28.8,76.9l2.5,.5l.4,.1l2.1,.3Z" class="g2_348"/>
<path d="M324.7,732.5l-2.5,-.1l-2.5,-.2l-2.5,-.2l-2.5,-.4l-2.4,-.4c-3.4,-.6,-6.8,-1.5,-10,-2.6h-2.5l-2.5,.8c-3.3,1,-6.7,1.7,-10,2.2l-2.4,.4h-.1l-2.5,.2c-10.2,.8,-20.4,-.4,-30,-3.7l-2.5,-.9l-1.5,-.6l-1,-.4c-18.2,-7.8,-32.7,-22.5,-40,-41l-.4,-1.1L206,682l-.8,-2.5c-13.6,-46.3,19.1,-92.6,67.1,-95.3l2.5,-.1h5l2.5,.2l2.5,.2h.1l2.4,.4c3.3,.5,6.7,1.2,10,2.2l2.5,.8h2.5c3.2,-1.1,6.6,-2,10,-2.6l2.4,-.4l2.5,-.4c10.1,-1.1,20.3,-.2,30,2.7l2.5,.8l2.5,.9l1.5,.6c18.3,7.4,32.8,21.9,40.5,40l.5,1.4l.5,1.1l.8,2.5c15.3,45.8,-15.9,93.3,-63.8,97.7l-2.5,.1l-2.5,.1l-2.5,.1ZM299.8,701.8h2.5l.3,.2l2.2,1c31.6,14.6,67.4,-6.5,70.3,-41l.1,-2.5V657c-1.1,-35.7,-37.9,-58.6,-70.4,-43.5l-2.2,1l-.3,.2h-2.5l-.4,-.2c-30.8,-16.1,-67.7,3.2,-72.2,37.5l-.3,2.5l-.1,2.5c-.7,35.7,34.7,60.3,68,47.1l2.5,-1.1l2.1,-1l.4,-.2Z" class="g3_348"/>
<path d="M267.7,732l-.4,-.1l-2.5,-.3l-2.5,-.5C216,722.1,189.7,673.2,207.9,629.5L209,627l.8,-1.7l.4,-.8c9.2,-18,25.3,-31.4,44.6,-37.3l.6,-.2l1.9,-.5l2.5,-.6c9.8,-2.2,20,-2.5,30,-.6l2.5,.5l2.5,.6l2.3,.6c2.8,1.3,5,1.3,7.8,0l2.4,-.6l2.5,-.6c4.1,-.9,8.2,-1.5,12.4,-1.7h5l2.5,.1l2.5,.1l2.1,.2l.4,.1l2.5,.3c47,7.6,75,56.3,57.5,100.7l-.5,1.4l-1.1,2.5l-.9,1.7c-8.7,17.6,-24,30.9,-42.5,37.3l-2.5,.8l-.6,.2l-1.9,.5c-9.7,2.6,-20,3.1,-30,1.6l-2.5,-.4l-2.4,-.5l-2.5,-.6c-4.3,-.8,-5.2,-2.7,-10,-.7l-.2,.1l-2.3,.6c-4.1,1.1,-8.3,1.8,-12.5,2.1l-2.5,.2l-2.5,.1l-2.5,-.1l-2.5,-.1l-2.5,-.1l-2.1,-.2Zm2.1,25l2.5,.1l2.5,.1h2.5l2.5,-.1l2.5,-.1l.9,-.1c5.4,-.3,10.9,-1.2,16.2,-2.5h2.9c4.9,1.2,9.9,2,14.9,2.4l1.6,.1l.9,.1l2.5,.1c13.7,.5,27.4,-1.9,40,-6.9l1.9,-.8l.6,-.2l2.5,-1.1c23.2,-10.7,41.3,-29.9,50.6,-53.6l1,-2.5l.8,-2.5l.1,-.2c19.8,-60.8,-21.6,-123.6,-85,-129.6l-2,-.1l-.5,-.1l-2.5,-.1l-2.5,-.1h-2.5l-2.5,.1l-2.5,.1c-5,.3,-10,1,-14.9,2.1l-2.2,.5h-.3c-4.2,.3,-10.1,-2,-15,-2.2l-2.5,-.2l-1.6,-.1l-.9,-.1c-13.6,-.8,-27.2,1.2,-40,5.8l-2.5,1l-1.9,.8l-.6,.2c-23.7,10.2,-42.6,29.3,-52.5,53.2l-.6,1.5l-.9,2.5l-.9,2.5c-19.7,59.9,20.1,122,82.4,129.5l2.5,.3l2.5,.2Z" class="g4_348"/>
<path clip-path="url(#c1_348)" d="M269.3,756.9l-2,-.1l-2.5,-.3l-2.5,-.3C201.2,747.3,163,685.9,182.4,627l.9,-2.5l.9,-2.5l.6,-1.5c9.9,-23.9,28.8,-43,52.5,-53.2l.6,-.2l1.9,-.8l2.5,-1c12.8,-4.6,26.4,-6.6,40,-5.8l.9,.1l1.6,.1l2.5,.2c4.9,.2,10.8,2.5,15,2.2h.3l2.2,-.5c5.7,-1.3,11.6,-2,17.4,-2.2l2.5,-.1h2.5l2.5,.1l2.5,.1l.5,.1l2,.1l2.5,.3c62.2,7.5,102,69.5,82.5,129.3l-.1,.2l-.8,2.5l-1,2.5c-9.3,23.7,-27.4,42.9,-50.6,53.6l-2.5,1.1l-.6,.2l-1.9,.8c-12.6,5,-26.3,7.4,-40,6.9l-2.5,-.1l-.9,-.1l-1.6,-.1c-5,-.4,-10,-1.2,-14.9,-2.4h-2.9c-5.6,1.4,-11.3,2.3,-17.1,2.6l-2.5,.1l-2.5,.1h-2.5l-2.5,-.1l-2.5,-.1l-.5,-.1Zm-17,22.7l2.5,.4l2.5,.5l2.5,.3l2.5,.3c5.8,.7,11.6,.9,17.5,.8l2.5,-.1l2.5,-.2c5.8,-.1,12.1,-1.9,17.5,-1.9l2.5,.4l2.5,.4l2.5,.4c14.9,1.9,30.2,1.1,44.9,-2.4l2.5,-.6l2.5,-.7l.8,-.3c24.3,-7.1,45.9,-21.5,61.7,-41.2l.9,-1.2l1.6,-2V584l-1.6,-2l-.9,-1.2c-28.1,-35,-73.1,-52.1,-117.4,-44.4l-2.5,.4h-2.5c-45.1,-8.7,-91.3,8.3,-120,44l-.9,1.2l-1.6,2V732.5l1.6,2c18,23.1,43.9,39.1,72.7,44.9l.7,.2Z" class="g5_348"/>
<path d="M192.3,780.6l1.9,1.3H407.8l1.9,-1.3c5,-3.4,9.8,-7.1,14.3,-11.2l.7,-.5V732.5l-1.5,2l-1,1.2c-28.1,35,-73.1,52.1,-117.4,44.4l-2.5,-.4h-2.5c-45.1,8.7,-91.3,-8.3,-120,-44l-.9,-1.2l-1.6,-2v36.4l.7,.5c4,3.6,8.2,6.9,12.6,10l1.7,1.2Z" class="g6_348"/>
<path clip-path="url(#c1_348)" d="M178.9,582l.9,-1.2l1.1,-1.3c28.8,-34.9,74.3,-51.3,118.9,-42.7h2.5l2.5,-.4c44.3,-7.7,89.3,9.4,117.4,44.4l.9,1.2l1.6,2V547.6l-.7,-.5c-4.5,-4.1,-9.3,-7.8,-14.3,-11.2l-1.9,-1.3H194.2l-1.9,1.3c-5,3.4,-9.8,7.1,-14.3,11.2l-.7,.5V584l1.6,-2Z" class="g6_348"/>
<path d="M179.8,781.9h14.4l-1.9,-1.3c-5,-3.4,-9.8,-7.1,-14.3,-11.2l-.7,-.5v13h2.5Z" class="g7_348"/>
<path d="M409.7,781.9h15v-13l-.7,.5c-4.5,4.1,-9.3,7.8,-14.3,11.2l-1.9,1.3h1.9Z" class="g7_348"/>
<path d="M178,547.1l1.8,-1.7c4,-3.4,8.2,-6.6,12.5,-9.5l1.9,-1.3H177.3v13l.7,-.5Z" class="g7_348"/>
<path d="M424.7,547.6v-13H407.8l1.9,1.3c5,3.4,9.8,7.1,14.3,11.2l.7,.5Z" class="g7_348"/>
<path d="M177,785.2h.7v-3.3H177Z" class="g9_348"/>
<path d="M164.1,793h5.8v-.8h-5.8Z" class="g9_348"/>
<path d="M172,794.7h1.5v-5.1l-1.6,.3V789l1.6,-.3h.9v6h1.5v.8H172v-.8Z" class="g9_348"/>
<path d="M179.7,788.6c.8,0,1.4,.3,1.8,.9c.4,.6,.6,1.5,.6,2.6c0,1.2,-.2,2,-.6,2.6c-.4,.6,-1,.9,-1.8,.9c-.7,0,-1.3,-.3,-1.7,-.9c-.4,-.6,-.6,-1.4,-.6,-2.6c0,-1.1,.2,-2,.6,-2.6c.4,-.6,1,-.9,1.7,-.9Zm0,.7c-.4,0,-.8,.3,-1,.7c-.3,.5,-.4,1.2,-.4,2.1c0,.9,.1,1.6,.4,2.1c.2,.5,.6,.7,1,.7c.5,0,.9,-.2,1.1,-.7c.3,-.5,.4,-1.2,.4,-2.1c0,-.9,-.1,-1.6,-.4,-2.1c-.2,-.4,-.6,-.7,-1.1,-.7Z" class="g9_348"/>
<path d="M183.7,795.5h1v-1.2h-1Z" class="g9_348"/>
<path d="M188.6,788.6c.8,0,1.4,.3,1.8,.9c.4,.6,.6,1.5,.6,2.6c0,1.2,-.2,2,-.6,2.6c-.4,.6,-1,.9,-1.8,.9c-.7,0,-1.3,-.3,-1.7,-.9c-.4,-.6,-.6,-1.4,-.6,-2.6c0,-1.1,.2,-2,.6,-2.6c.4,-.6,1,-.9,1.7,-.9Zm0,.7c-.5,0,-.8,.3,-1.1,.7c-.2,.5,-.3,1.2,-.3,2.1c0,.9,.1,1.6,.3,2.1c.3,.5,.6,.7,1.1,.7c.5,0,.8,-.2,1.1,-.7c.2,-.5,.3,-1.2,.3,-2.1c0,-.9,-.1,-1.6,-.3,-2.1c-.3,-.4,-.6,-.7,-1.1,-.7Z" class="g9_348"/>
<path d="M207.9,785.2h.7v-3.3h-.7Z" class="g9_348"/>
<path d="M197.9,793h5.9v-.8h-5.9Z" class="g9_348"/>
<path d="M205.5,788.7h4.4v.4l-2.5,6.4h-.9l2.3,-6h-3.3v-.8Z" class="g9_348"/>
<path d="M211.7,795.5h.9v-1.2h-.9Z" class="g9_348"/>
<path d="M214.6,788.7h3.6v.8h-2.7v1.7l.4,-.1l.4,-.1c.7,0,1.3,.2,1.8,.6c.4,.5,.6,1,.6,1.7c0,.8,-.2,1.3,-.7,1.7c-.4,.4,-1.1,.6,-1.9,.6c-.3,0,-.6,0,-.8,0c-.3,-.1,-.6,-.2,-1,-.3v-.9c.3,.2,.6,.3,.9,.3c.3,.1,.6,.2,.9,.2c.5,0,.9,-.2,1.2,-.5c.4,-.2,.5,-.6,.5,-1.1c0,-.4,-.1,-.8,-.5,-1.1c-.3,-.3,-.7,-.4,-1.2,-.4c-.2,0,-.5,0,-.7,.1c-.3,0,-.5,.1,-.8,.2v-3.4Z" class="g9_348"/>
<path d="M238.8,785.2h.7v-3.3h-.7Z" class="g9_348"/>
<path d="M228.9,793h5.8v-.8h-5.8Z" class="g9_348"/>
<path d="M236.7,788.7h3.6v.8h-2.8v1.7l.4,-.1l.4,-.1c.8,0,1.4,.2,1.8,.6c.5,.5,.7,1,.7,1.7c0,.8,-.3,1.3,-.7,1.7c-.5,.4,-1.1,.6,-1.9,.6c-.3,0,-.6,0,-.9,0c-.3,-.1,-.6,-.2,-.9,-.3v-.9c.3,.2,.5,.3,.8,.3c.3,.1,.6,.2,1,.2c.5,0,.9,-.2,1.2,-.5c.3,-.2,.5,-.6,.5,-1.1c0,-.4,-.2,-.8,-.5,-1.1c-.3,-.3,-.7,-.4,-1.2,-.4c-.3,0,-.5,0,-.8,.1c-.2,0,-.5,.1,-.7,.2v-3.4Z" class="g9_348"/>
<path d="M242.6,795.5h.9v-1.2h-.9Z" class="g9_348"/>
<path d="M247.5,788.6c.8,0,1.3,.3,1.7,.9c.4,.6,.6,1.5,.6,2.6c0,1.2,-.2,2,-.6,2.6c-.4,.6,-.9,.9,-1.7,.9c-.8,0,-1.3,-.3,-1.7,-.9c-.4,-.6,-.6,-1.4,-.6,-2.6c0,-1.1,.2,-2,.6,-2.6c.4,-.6,.9,-.9,1.7,-.9Zm0,.7c-.5,0,-.8,.3,-1.1,.7c-.2,.5,-.3,1.2,-.3,2.1c0,.9,.1,1.6,.3,2.1c.3,.5,.6,.7,1.1,.7c.5,0,.8,-.2,1.1,-.7c.2,-.5,.3,-1.2,.3,-2.1c0,-.9,-.1,-1.6,-.3,-2.1c-.3,-.4,-.6,-.7,-1.1,-.7Z" class="g9_348"/>
<path d="M269.7,785.2h.8v-3.3h-.8Z" class="g9_348"/>
<path d="M259.8,793h5.8v-.8h-5.8Z" class="g9_348"/>
<path d="M268.4,794.7h3.2v.8h-4.3v-.8c.3,-.3,.8,-.8,1.4,-1.4c.6,-.6,1,-1,1.1,-1.2c.3,-.3,.5,-.6,.6,-.8c.2,-.3,.2,-.5,.2,-.7c0,-.4,-.1,-.7,-.4,-.9c-.2,-.2,-.5,-.3,-1,-.3c-.2,0,-.5,0,-.9,.1c-.3,.1,-.6,.3,-1,.5v-1c.4,-.1,.7,-.2,1,-.3c.4,-.1,.7,-.1,.9,-.1c.7,0,1.3,.2,1.7,.5c.4,.4,.6,.8,.6,1.4c0,.3,0,.6,-.1,.8c-.1,.3,-.3,.6,-.6,.9c-.1,.1,-.3,.3,-.7,.8c-.4,.4,-1,1,-1.7,1.7Z" class="g9_348"/>
<path d="M273.5,795.5h1v-1.2h-1Z" class="g9_348"/>
<path d="M276.5,788.7h3.6v.8h-2.8v1.7l.4,-.1l.4,-.1c.8,0,1.4,.2,1.8,.6c.4,.5,.7,1,.7,1.7c0,.8,-.3,1.3,-.7,1.7c-.5,.4,-1.1,.6,-1.9,.6c-.3,0,-.6,0,-.9,0c-.3,-.1,-.6,-.2,-.9,-.3v-.9c.2,.2,.5,.3,.8,.3c.3,.1,.6,.2,.9,.2c.6,0,1,-.2,1.3,-.5c.3,-.2,.4,-.6,.4,-1.1c0,-.4,-.1,-.8,-.4,-1.1c-.3,-.3,-.7,-.4,-1.3,-.4c-.2,0,-.4,0,-.7,.1c-.2,0,-.5,.1,-.7,.2v-3.4Z" class="g9_348"/>
<path d="M300.6,785.2h.8v-3.3h-.8Z" class="g9_348"/>
<path d="M296.6,788.6c.7,0,1.3,.3,1.7,.9c.4,.6,.6,1.5,.6,2.6c0,1.2,-.2,2,-.6,2.6c-.4,.6,-1,.9,-1.7,.9c-.8,0,-1.4,-.3,-1.8,-.9c-.4,-.6,-.6,-1.4,-.6,-2.6c0,-1.1,.2,-2,.6,-2.6c.4,-.6,1,-.9,1.8,-.9Zm0,.7c-.5,0,-.9,.3,-1.1,.7c-.2,.5,-.4,1.2,-.4,2.1c0,.9,.2,1.6,.4,2.1c.2,.5,.6,.7,1.1,.7c.4,0,.8,-.2,1,-.7c.3,-.5,.4,-1.2,.4,-2.1c0,-.9,-.1,-1.6,-.4,-2.1c-.2,-.4,-.6,-.7,-1,-.7Z" class="g9_348"/>
<path d="M300.5,795.5h1v-1.2h-1Z" class="g9_348"/>
<path d="M305.4,788.6c.8,0,1.4,.3,1.8,.9c.4,.6,.6,1.5,.6,2.6c0,1.2,-.2,2,-.6,2.6c-.4,.6,-1,.9,-1.8,.9c-.7,0,-1.3,-.3,-1.7,-.9c-.4,-.6,-.6,-1.4,-.6,-2.6c0,-1.1,.2,-2,.6,-2.6c.4,-.6,1,-.9,1.7,-.9Zm0,.7c-.4,0,-.8,.3,-1,.7c-.3,.5,-.4,1.2,-.4,2.1c0,.9,.1,1.6,.4,2.1c.2,.5,.6,.7,1,.7c.5,0,.9,-.2,1.1,-.7c.2,-.5,.4,-1.2,.4,-2.1c0,-.9,-.2,-1.6,-.4,-2.1c-.2,-.4,-.6,-.7,-1.1,-.7Z" class="g9_348"/>
<path d="M331.5,785.2h.8v-3.3h-.8Z" class="g9_348"/>
<path d="M326.3,794.7h3.2v.8h-4.3v-.8c.4,-.3,.8,-.8,1.4,-1.4c.6,-.6,1,-1,1.2,-1.2c.3,-.3,.5,-.6,.6,-.8c.1,-.3,.2,-.5,.2,-.7c0,-.4,-.2,-.7,-.4,-.9c-.3,-.2,-.6,-.3,-1,-.3c-.3,0,-.6,0,-.9,.1c-.3,.1,-.7,.3,-1,.5v-1c.3,-.1,.7,-.2,1,-.3c.3,-.1,.6,-.1,.9,-.1c.7,0,1.2,.2,1.7,.5c.4,.4,.6,.8,.6,1.4c0,.3,-.1,.6,-.2,.8c-.1,.3,-.3,.6,-.5,.9c-.1,.1,-.4,.3,-.8,.8c-.4,.4,-.9,1,-1.7,1.7Z" class="g9_348"/>
<path d="M331.4,795.5h1v-1.2h-1Z" class="g9_348"/>
<path d="M334.4,788.7H338v.8h-2.8v1.7l.4,-.1l.4,-.1c.8,0,1.4,.2,1.8,.6c.5,.5,.7,1,.7,1.7c0,.8,-.2,1.3,-.7,1.7c-.4,.4,-1.1,.6,-1.9,.6c-.3,0,-.6,0,-.9,0c-.3,-.1,-.6,-.2,-.9,-.3v-.9c.3,.2,.6,.3,.9,.3c.3,.1,.6,.2,.9,.2c.5,0,.9,-.2,1.2,-.5c.3,-.2,.5,-.6,.5,-1.1c0,-.4,-.2,-.8,-.5,-1.1c-.3,-.3,-.7,-.4,-1.2,-.4c-.3,0,-.5,0,-.7,.1c-.3,0,-.5,.1,-.8,.2v-3.4Z" class="g9_348"/>
<path d="M362.5,785.2h.7v-3.3h-.7Z" class="g9_348"/>
<path d="M356.5,788.7h3.6v.8h-2.8v1.7l.4,-.1l.4,-.1c.8,0,1.4,.2,1.8,.6c.4,.5,.7,1,.7,1.7c0,.8,-.3,1.3,-.7,1.7c-.5,.4,-1.1,.6,-1.9,.6c-.3,0,-.6,0,-.9,0c-.3,-.1,-.6,-.2,-.9,-.3v-.9c.2,.2,.5,.3,.8,.3c.3,.1,.6,.2,.9,.2c.6,0,1,-.2,1.3,-.5c.3,-.2,.4,-.6,.4,-1.1c0,-.4,-.1,-.8,-.4,-1.1c-.3,-.3,-.7,-.4,-1.3,-.4c-.2,0,-.5,0,-.7,.1c-.2,0,-.5,.1,-.7,.2v-3.4Z" class="g9_348"/>
<path d="M362.4,795.5h.9v-1.2h-.9Z" class="g9_348"/>
<path d="M367.3,788.6c.7,0,1.3,.3,1.7,.9c.4,.6,.6,1.5,.6,2.6c0,1.2,-.2,2,-.6,2.6c-.4,.6,-1,.9,-1.7,.9c-.8,0,-1.4,-.3,-1.8,-.9c-.4,-.6,-.6,-1.4,-.6,-2.6c0,-1.1,.2,-2,.6,-2.6c.4,-.6,1,-.9,1.8,-.9Zm0,.7c-.5,0,-.9,.3,-1.1,.7c-.2,.5,-.3,1.2,-.3,2.1c0,.9,.1,1.6,.3,2.1c.2,.5,.6,.7,1.1,.7c.5,0,.8,-.2,1,-.7c.3,-.5,.4,-1.2,.4,-2.1c0,-.9,-.1,-1.6,-.4,-2.1c-.2,-.4,-.5,-.7,-1,-.7Z" class="g9_348"/>
<path d="M393.4,785.2h.7v-3.3h-.7Z" class="g9_348"/>
<path d="M387.1,788.7h4.4v.4l-2.5,6.4h-.9l2.3,-6h-3.3v-.8Z" class="g9_348"/>
<path d="M393.3,795.5h.9v-1.2h-.9Z" class="g9_348"/>
<path d="M396.2,788.7h3.6v.8h-2.7v1.7l.4,-.1l.4,-.1c.7,0,1.3,.2,1.8,.6c.4,.5,.6,1,.6,1.7c0,.8,-.2,1.3,-.6,1.7c-.5,.4,-1.1,.6,-2,.6c-.2,0,-.5,0,-.8,0c-.3,-.1,-.6,-.2,-.9,-.3v-.9c.2,.2,.5,.3,.8,.3c.3,.1,.6,.2,.9,.2c.5,0,1,-.2,1.3,-.5c.3,-.2,.4,-.6,.4,-1.1c0,-.4,-.1,-.8,-.4,-1.1c-.3,-.3,-.8,-.4,-1.3,-.4c-.2,0,-.5,0,-.7,.1c-.3,0,-.5,.1,-.8,.2v-3.4Z" class="g9_348"/>
<path d="M424.3,785.2h.8v-3.3h-.8Z" class="g9_348"/>
<path d="M415.5,794.7H417v-5.1l-1.6,.3V789l1.6,-.3h.9v6h1.5v.8h-3.9v-.8Z" class="g9_348"/>
<path d="M423.2,788.6c.8,0,1.3,.3,1.7,.9c.4,.6,.6,1.5,.6,2.6c0,1.2,-.2,2,-.6,2.6c-.4,.6,-.9,.9,-1.7,.9c-.8,0,-1.3,-.3,-1.7,-.9c-.4,-.6,-.6,-1.4,-.6,-2.6c0,-1.1,.2,-2,.6,-2.6c.4,-.6,.9,-.9,1.7,-.9Zm0,.7c-.5,0,-.8,.3,-1.1,.7c-.2,.5,-.3,1.2,-.3,2.1c0,.9,.1,1.6,.3,2.1c.3,.5,.6,.7,1.1,.7c.5,0,.8,-.2,1.1,-.7c.2,-.5,.3,-1.2,.3,-2.1c0,-.9,-.1,-1.6,-.3,-2.1c-.3,-.4,-.6,-.7,-1.1,-.7Z" class="g9_348"/>
<path d="M427.2,795.5h.9v-1.2h-.9Z" class="g9_348"/>
<path d="M432.1,788.6c.7,0,1.3,.3,1.7,.9c.4,.6,.6,1.5,.6,2.6c0,1.2,-.2,2,-.6,2.6c-.4,.6,-1,.9,-1.7,.9c-.8,0,-1.4,-.3,-1.8,-.9c-.4,-.6,-.6,-1.4,-.6,-2.6c0,-1.1,.2,-2,.6,-2.6c.4,-.6,1,-.9,1.8,-.9Zm0,.7c-.5,0,-.9,.3,-1.1,.7c-.2,.5,-.3,1.2,-.3,2.1c0,.9,.1,1.6,.3,2.1c.2,.5,.6,.7,1.1,.7c.4,0,.8,-.2,1,-.7c.3,-.5,.4,-1.2,.4,-2.1c0,-.9,-.1,-1.6,-.4,-2.1c-.2,-.4,-.6,-.7,-1,-.7Z" class="g9_348"/>
<path d="M174.1,782.3h3.2v-.7h-3.2Z" class="g9_348"/>
<path d="M143.3,782.9h5.8v-.7h-5.8Z" class="g9_348"/>
<path d="M151.3,784.7h1.5v-5.2l-1.7,.3V779l1.7,-.3h.9v6h1.5v.8h-3.9v-.8Z" class="g9_348"/>
<path d="M159,778.6c.8,0,1.3,.3,1.7,.9c.4,.6,.6,1.4,.6,2.6c0,1.1,-.2,2,-.6,2.6c-.4,.6,-.9,.9,-1.7,.9c-.8,0,-1.3,-.3,-1.7,-.9c-.4,-.6,-.6,-1.5,-.6,-2.6c0,-1.2,.2,-2,.6,-2.6c.4,-.6,.9,-.9,1.7,-.9Zm0,.7c-.5,0,-.8,.2,-1.1,.7c-.2,.4,-.3,1.1,-.3,2.1c0,.9,.1,1.6,.3,2.1c.3,.4,.6,.7,1.1,.7c.5,0,.8,-.3,1.1,-.7c.2,-.5,.3,-1.2,.3,-2.1c0,-1,-.1,-1.7,-.3,-2.1c-.3,-.5,-.6,-.7,-1.1,-.7Z" class="g9_348"/>
<path d="M162.9,785.5h1v-1.2h-1Z" class="g9_348"/>
<path d="M167.9,778.6c.7,0,1.3,.3,1.7,.9c.4,.6,.6,1.4,.6,2.6c0,1.1,-.2,2,-.6,2.6c-.4,.6,-1,.9,-1.7,.9c-.8,0,-1.4,-.3,-1.8,-.9c-.4,-.6,-.6,-1.5,-.6,-2.6c0,-1.2,.2,-2,.6,-2.6c.4,-.6,1,-.9,1.8,-.9Zm0,.7c-.5,0,-.9,.2,-1.1,.7c-.2,.4,-.4,1.1,-.4,2.1c0,.9,.2,1.6,.4,2.1c.2,.4,.6,.7,1.1,.7c.4,0,.8,-.3,1,-.7c.3,-.5,.4,-1.2,.4,-2.1c0,-1,-.1,-1.7,-.4,-2.1c-.2,-.5,-.6,-.7,-1,-.7Z" class="g9_348"/>
<path d="M174.1,751.4h3.2v-.8h-3.2Z" class="g9_348"/>
<path d="M149.2,752h5.9v-.8h-5.9Z" class="g9_348"/>
<path d="M156.8,747.8h4.4v.4l-2.5,6.3h-1l2.4,-6h-3.3v-.7Z" class="g9_348"/>
<path d="M162.9,754.5h1v-1.1h-1Z" class="g9_348"/>
<path d="M165.9,747.8h3.6v.7h-2.7v1.7l.3,-.1h.4c.8,0,1.4,.2,1.8,.6c.5,.4,.7,1,.7,1.7c0,.7,-.2,1.3,-.7,1.7c-.4,.4,-1.1,.6,-1.9,.6c-.3,0,-.6,-.1,-.9,-.1c-.3,0,-.6,-.1,-.9,-.2v-.9c.3,.1,.6,.2,.9,.3c.3,.1,.6,.1,.9,.1c.5,0,.9,-.1,1.2,-.4c.3,-.3,.5,-.7,.5,-1.1c0,-.5,-.2,-.9,-.5,-1.2c-.3,-.2,-.7,-.4,-1.2,-.4c-.3,0,-.5,.1,-.7,.1c-.3,.1,-.5,.2,-.8,.3v-3.4Z" class="g9_348"/>
<path d="M174.1,720.5h3.2v-.8h-3.2Z" class="g9_348"/>
<path d="M149.2,721.1h5.9v-.8h-5.9Z" class="g9_348"/>
<path d="M157,716.8h3.6v.8h-2.7v1.7l.4,-.1l.4,-.1c.7,0,1.3,.2,1.8,.7c.4,.4,.6,.9,.6,1.6c0,.8,-.2,1.3,-.6,1.7c-.5,.4,-1.1,.7,-2,.7c-.2,0,-.5,-.1,-.8,-.1c-.3,-.1,-.6,-.1,-.9,-.2v-1c.2,.2,.5,.3,.8,.4c.3,0,.6,.1,.9,.1c.5,0,1,-.2,1.3,-.4c.3,-.3,.4,-.7,.4,-1.2c0,-.4,-.1,-.8,-.4,-1.1c-.3,-.3,-.8,-.4,-1.3,-.4c-.2,0,-.5,0,-.7,.1c-.3,0,-.5,.1,-.8,.2v-3.4Z" class="g9_348"/>
<path d="M162.9,723.6h1v-1.1h-1Z" class="g9_348"/>
<path d="M167.9,716.7c.7,0,1.3,.3,1.7,.9c.4,.6,.6,1.5,.6,2.6c0,1.2,-.2,2.1,-.6,2.7c-.4,.6,-1,.9,-1.7,.9c-.8,0,-1.4,-.3,-1.8,-.9c-.4,-.6,-.6,-1.5,-.6,-2.7c0,-1.1,.2,-2,.6,-2.6c.4,-.6,1,-.9,1.8,-.9Zm0,.7c-.5,0,-.9,.3,-1.1,.7c-.2,.5,-.4,1.2,-.4,2.1c0,1,.2,1.7,.4,2.1c.2,.5,.6,.7,1.1,.7c.4,0,.8,-.2,1,-.7c.3,-.4,.4,-1.1,.4,-2.1c0,-.9,-.1,-1.6,-.4,-2.1c-.2,-.4,-.6,-.7,-1,-.7Z" class="g9_348"/>
<path d="M174.1,689.5h3.2v-.7h-3.2Z" class="g9_348"/>
<path d="M149.2,690.2h5.9v-.8h-5.9Z" class="g9_348"/>
<path d="M157.8,691.9H161v.8h-4.3v-.8c.4,-.3,.8,-.8,1.4,-1.4c.6,-.6,1,-1,1.2,-1.2c.3,-.3,.5,-.6,.6,-.8c.1,-.3,.2,-.5,.2,-.7c0,-.4,-.2,-.7,-.4,-.9c-.3,-.2,-.6,-.3,-1,-.3c-.3,0,-.6,0,-.9,.1c-.3,.1,-.7,.3,-1,.5v-.9c.3,-.2,.7,-.3,1,-.4c.3,-.1,.6,-.1,.9,-.1c.7,0,1.2,.2,1.7,.5c.4,.4,.6,.9,.6,1.4c0,.3,-.1,.6,-.2,.8c-.1,.3,-.3,.6,-.5,.9c-.1,.1,-.4,.4,-.8,.8c-.4,.4,-.9,1,-1.7,1.7Z" class="g9_348"/>
<path d="M162.9,692.7h1v-1.2h-1Z" class="g9_348"/>
<path d="M165.9,685.9h3.6v.8h-2.7v1.7l.3,-.1l.4,-.1c.8,0,1.4,.2,1.8,.6c.5,.5,.7,1,.7,1.7c0,.8,-.2,1.3,-.7,1.7c-.4,.4,-1.1,.6,-1.9,.6c-.3,0,-.6,0,-.9,0c-.3,-.1,-.6,-.2,-.9,-.3v-.9c.3,.2,.6,.3,.9,.4c.3,0,.6,.1,.9,.1c.5,0,.9,-.2,1.2,-.5c.3,-.2,.5,-.6,.5,-1.1c0,-.4,-.2,-.8,-.5,-1.1c-.3,-.3,-.7,-.4,-1.2,-.4c-.3,0,-.5,0,-.7,.1c-.3,0,-.5,.1,-.8,.2v-3.4Z" class="g9_348"/>
<path d="M174.1,658.6h3.2v-.7h-3.2Z" class="g9_348"/>
<path d="M159,654.9c.8,0,1.3,.3,1.7,.9c.4,.6,.6,1.5,.6,2.6c0,1.1,-.2,2,-.6,2.6c-.4,.6,-.9,.9,-1.7,.9c-.8,0,-1.3,-.3,-1.7,-.9c-.4,-.6,-.6,-1.5,-.6,-2.6c0,-1.1,.2,-2,.6,-2.6c.4,-.6,.9,-.9,1.7,-.9Zm0,.7c-.5,0,-.8,.2,-1.1,.7c-.2,.5,-.3,1.2,-.3,2.1c0,.9,.1,1.6,.3,2.1c.3,.5,.6,.7,1.1,.7c.5,0,.8,-.2,1.1,-.7c.2,-.5,.3,-1.2,.3,-2.1c0,-.9,-.1,-1.6,-.3,-2.1c-.3,-.5,-.6,-.7,-1.1,-.7Z" class="g9_348"/>
<path d="M162.9,661.8h1v-1.2h-1Z" class="g9_348"/>
<path d="M167.9,654.9c.7,0,1.3,.3,1.7,.9c.4,.6,.6,1.5,.6,2.6c0,1.1,-.2,2,-.6,2.6c-.4,.6,-1,.9,-1.7,.9c-.8,0,-1.4,-.3,-1.8,-.9c-.4,-.6,-.6,-1.5,-.6,-2.6c0,-1.1,.2,-2,.6,-2.6c.4,-.6,1,-.9,1.8,-.9Zm0,.7c-.5,0,-.9,.2,-1.1,.7c-.2,.5,-.4,1.2,-.4,2.1c0,.9,.2,1.6,.4,2.1c.2,.5,.6,.7,1.1,.7c.4,0,.8,-.2,1,-.7c.3,-.5,.4,-1.2,.4,-2.1c0,-.9,-.1,-1.6,-.4,-2.1c-.2,-.5,-.6,-.7,-1,-.7Z" class="g9_348"/>
<path d="M174.1,627.7h3.2V627h-3.2Z" class="g9_348"/>
<path d="M157.8,630.1H161v.8h-4.3v-.8c.4,-.4,.8,-.9,1.4,-1.5c.6,-.6,1,-1,1.2,-1.1c.3,-.4,.5,-.6,.6,-.9c.1,-.2,.2,-.4,.2,-.6c0,-.4,-.2,-.7,-.4,-.9c-.3,-.3,-.6,-.4,-1,-.4c-.3,0,-.6,.1,-.9,.2c-.3,.1,-.7,.2,-1,.4v-.9c.3,-.1,.7,-.2,1,-.3c.3,-.1,.6,-.1,.9,-.1c.7,0,1.2,.1,1.7,.5c.4,.3,.6,.8,.6,1.4c0,.3,-.1,.5,-.2,.8c-.1,.2,-.3,.5,-.5,.9c-.1,.1,-.4,.3,-.8,.7c-.4,.5,-.9,1,-1.7,1.8Z" class="g9_348"/>
<path d="M162.9,630.9h1v-1.2h-1Z" class="g9_348"/>
<path d="M165.9,624.1h3.6v.8h-2.7v1.6l.3,-.1h.4c.8,0,1.4,.2,1.8,.6c.5,.4,.7,1,.7,1.7c0,.7,-.2,1.3,-.7,1.7c-.4,.4,-1.1,.6,-1.9,.6c-.3,0,-.6,0,-.9,-.1c-.3,0,-.6,-.1,-.9,-.2v-.9c.3,.1,.6,.2,.9,.3c.3,.1,.6,.1,.9,.1c.5,0,.9,-.1,1.2,-.4c.3,-.3,.5,-.6,.5,-1.1c0,-.5,-.2,-.9,-.5,-1.1c-.3,-.3,-.7,-.4,-1.2,-.4c-.3,0,-.5,0,-.7,0c-.3,.1,-.5,.2,-.8,.3v-3.4Z" class="g9_348"/>
<path d="M174.1,596.8h3.2V596h-3.2Z" class="g9_348"/>
<path d="M157,593.2h3.6v.7h-2.7v1.7l.4,-.1h.4c.7,0,1.3,.2,1.8,.6c.4,.4,.6,1,.6,1.7c0,.7,-.2,1.3,-.6,1.7c-.5,.4,-1.1,.6,-2,.6c-.2,0,-.5,0,-.8,-.1c-.3,0,-.6,-.1,-.9,-.2v-.9c.2,.1,.5,.2,.8,.3c.3,.1,.6,.1,.9,.1c.5,0,1,-.1,1.3,-.4c.3,-.3,.4,-.7,.4,-1.1c0,-.5,-.1,-.9,-.4,-1.2c-.3,-.2,-.8,-.4,-1.3,-.4c-.2,0,-.5,.1,-.7,.1c-.3,.1,-.5,.2,-.8,.3v-3.4Z" class="g9_348"/>
<path d="M162.9,599.9h1v-1.1h-1Z" class="g9_348"/>
<path d="M167.9,593c.7,0,1.3,.3,1.7,.9c.4,.6,.6,1.5,.6,2.7c0,1.1,-.2,2,-.6,2.6c-.4,.6,-1,.9,-1.7,.9c-.8,0,-1.4,-.3,-1.8,-.9c-.4,-.6,-.6,-1.5,-.6,-2.6c0,-1.2,.2,-2.1,.6,-2.7c.4,-.6,1,-.9,1.8,-.9Zm0,.8c-.5,0,-.9,.2,-1.1,.7c-.2,.4,-.4,1.1,-.4,2.1c0,.9,.2,1.6,.4,2.1c.2,.4,.6,.6,1.1,.6c.4,0,.8,-.2,1,-.6c.3,-.5,.4,-1.2,.4,-2.1c0,-1,-.1,-1.7,-.4,-2.1c-.2,-.5,-.6,-.7,-1,-.7Z" class="g9_348"/>
<path d="M174.1,565.9h3.2v-.8h-3.2Z" class="g9_348"/>
<path d="M156.8,562.2h4.4v.4l-2.5,6.4h-1l2.4,-6h-3.3v-.8Z" class="g9_348"/>
<path d="M162.9,569h1v-1.1h-1Z" class="g9_348"/>
<path d="M165.9,562.2h3.6v.8h-2.7v1.7l.3,-.1l.4,-.1c.8,0,1.4,.3,1.8,.7c.5,.4,.7,.9,.7,1.6c0,.8,-.2,1.3,-.7,1.8c-.4,.4,-1.1,.6,-1.9,.6c-.3,0,-.6,-.1,-.9,-.1c-.3,-.1,-.6,-.1,-.9,-.2v-1c.3,.2,.6,.3,.9,.4c.3,0,.6,.1,.9,.1c.5,0,.9,-.2,1.2,-.4c.3,-.3,.5,-.7,.5,-1.2c0,-.4,-.2,-.8,-.5,-1.1c-.3,-.2,-.7,-.4,-1.2,-.4c-.3,0,-.5,0,-.7,.1c-.3,.1,-.5,.1,-.8,.3v-3.5Z" class="g9_348"/>
<path d="M174.1,535h3.2v-.8h-3.2Z" class="g9_348"/>
<path d="M151.3,537.3h1.5v-5.1l-1.7,.3v-.8l1.7,-.4h.9v6h1.5v.8h-3.9v-.8Z" class="g9_348"/>
<path d="M159,531.2c.8,0,1.3,.3,1.7,.9c.4,.6,.6,1.5,.6,2.6c0,1.2,-.2,2,-.6,2.6c-.4,.6,-.9,.9,-1.7,.9c-.8,0,-1.3,-.3,-1.7,-.9c-.4,-.6,-.6,-1.4,-.6,-2.6c0,-1.1,.2,-2,.6,-2.6c.4,-.6,.9,-.9,1.7,-.9Zm0,.7c-.5,0,-.8,.3,-1.1,.7c-.2,.5,-.3,1.2,-.3,2.1c0,1,.1,1.6,.3,2.1c.3,.5,.6,.7,1.1,.7c.5,0,.8,-.2,1.1,-.7c.2,-.5,.3,-1.1,.3,-2.1c0,-.9,-.1,-1.6,-.3,-2.1c-.3,-.4,-.6,-.7,-1.1,-.7Z" class="g9_348"/>
<path d="M162.9,538.1h1V537h-1Z" class="g9_348"/>
<path d="M167.9,531.2c.7,0,1.3,.3,1.7,.9c.4,.6,.6,1.5,.6,2.6c0,1.2,-.2,2,-.6,2.6c-.4,.6,-1,.9,-1.7,.9c-.8,0,-1.4,-.3,-1.8,-.9c-.4,-.6,-.6,-1.4,-.6,-2.6c0,-1.1,.2,-2,.6,-2.6c.4,-.6,1,-.9,1.8,-.9Zm0,.7c-.5,0,-.9,.3,-1.1,.7c-.2,.5,-.4,1.2,-.4,2.1c0,1,.2,1.6,.4,2.1c.2,.5,.6,.7,1.1,.7c.4,0,.8,-.2,1,-.7c.3,-.5,.4,-1.1,.4,-2.1c0,-.9,-.1,-1.6,-.4,-2.1c-.2,-.4,-.6,-.7,-1,-.7Z" class="g9_348"/>
<path d="M269.8,682.1l.1,-.3l-.4,-.2c-8.3,-2.4,-14.6,-8.9,-16.8,-17.2v-.2l-.5,-2.3l-.3,-2.4V657l.3,-2.4l.5,-2.3v-.2c6.5,-23,37.5,-24.6,46.4,-2.5l.3,1.1c0,.2,.2,.3,.4,.3h2.5c.1,0,.3,-.1,.3,-.3l.4,-1.1c8.8,-22.1,39.8,-20.5,46.3,2.5l.1,.2l.4,2.3l.3,2.4v2.5l-.3,2.4l-.4,2.3l-.1,.2c-6.5,23,-37.5,24.6,-46.3,2.5l-.4,-1.1c0,-.2,-.2,-.3,-.3,-.3h-2.5c-.2,0,-.4,.1,-.4,.3l-.3,1.1c-4.2,10.8,-15.3,17.2,-26.8,15.4l-2.4,-.6l-.1,.4l.1,-.3l-.1,.3l-.1,.4l2.5,.5c11.8,2,23.4,-4.7,27.6,-15.9l.2,-.8h2l.2,.8h.1c10.4,25.3,46.4,19.6,48.5,-7.6V657c-2.1,-27.2,-38.1,-32.9,-48.5,-7.6h-.1l-.2,.8h-2l-.2,-.8C292.9,631.6,270,627.5,257.4,641.7l-.1,.1l-.3,.4c-11.6,14,-5.1,35,12.3,40.1l.4,.2l.1,-.4Z" class="ga_348"/>
<path d="M269.8,706.9l-2.5,-.4l-2.4,-.5l-2.5,-.7c-33.8,-10.2,-46.2,-50.7,-24.2,-78l2.2,-2.5l2.4,-2.5l2.9,-2.5c11,-8.7,25.3,-12.3,39.1,-9.9l2.4,.5l2.5,.6l4,1.4l.9,.3l2.5,1.1l2.5,1.2l.2,.1h2.5l.1,-.1l2.5,-1.2l3.4,-1.4c4.4,-1.7,9.2,-2.8,14,-3.1l2.5,-.1h2.4l2.5,.1l2.5,.3l2.5,.4l2.4,.5c35,8.6,49.2,49.6,27.3,78l-.6,.7l-2.2,2.5l-2.4,2.5C348.6,704,334.1,708.7,319.8,707l-2.6,-.4l-2.4,-.5l-2.4,-.6l-4.1,-1.4l-.9,-.3l-2.5,-1.1l-2.5,-1.2l-.1,-.1h-2.5l-.2,.1l-2.5,1.2c-4.8,2.2,-9.7,3.6,-14.9,4.3l-2.5,.2l-2.4,.1h-2.5l-2.5,-.1l-2.5,-.3l-.1,.8l2.5,.2h.1l2.5,.2h2.5c5.7,-.1,11.4,-1.2,16.7,-3.3l3.4,-1.4c4.8,-3.2,5.6,-.1,9.7,1.1l.9,.3c3,1.2,6,2,9.1,2.5l2.6,.4l2.5,.3c15,1,29.7,-4.7,40,-15.8l2.2,-2.5l.6,-.8c22.9,-29.7,6.7,-72.6,-30.2,-79.7l-2.5,-.4l-2.5,-.2l-2.5,-.2h-.1c-5.9,-.2,-11.9,.7,-17.6,2.7l-1.6,.6l-3.4,1.4l-2.4,1.2h-2.4l-2.4,-1.2L294.9,612c-2.5,-.9,-5,-1.8,-7.6,-2.4l-2.4,-.4l-2.6,-.4c-15.8,-2,-31.6,3.8,-42.5,15.5l-2.2,2.5l-.6,.8c-22.2,28.7,-7.7,70.5,27.7,79.1l2.5,.6l2.5,.4l.1,-.8Z" class="ga_348"/>
<path d="M269.9,731.1l-5,-.6l-4.9,-1l-4.9,-1.3C211.6,714.9,190.5,665.9,211.2,625l2.1,-3.8l2.2,-3.6l1.7,-2.4c9.3,-12.8,22.7,-22.3,37.9,-26.9L260,587l4.9,-1l5,-.6l4.9,-.2h4.9l5,.4l4.9,.8l4.9,1.1l4.9,1.4l.4,.1h2.5l.3,-.1l4.9,-1.4l4.9,-1.1l5,-.8l4.9,-.4h4.9l4.9,.2l5,.6l4.9,1c44.2,10.2,68.7,57.4,51.1,99.6l-2.2,4.9l-2.1,3.8l-2.3,3.6c-8.4,12.5,-20.5,22.2,-34.7,27.6l-4.9,1.7l-4.9,1.3l-4.9,1l-5,.6l-4.9,.2h-4.9l-5,-.4l-4.9,-.8L307.5,729l-4.9,-1.4l-.3,-.1h-2.5l-.4,.1l-4.9,1.4l-4.9,1.1l-5,.8l-4.9,.4h-4.9l-5,-.2l-.1,2.2l5,.2h5.2l5,-.4l5,-.8h.1l5,-1.1h.1l4.8,-1.5h2.2l4.8,1.5h.1l5,1.1h.1l4.9,.7l.1,.1c10.2,1.1,20.6,.2,30.5,-2.8l5,-1.7h.1l5,-2.1c15.2,-7.2,27.5,-19.1,35.1,-34.1l2.4,-5l1.9,-5C412,637.8,383.5,591.3,337.4,583.9v-.1l-5,-.6h-.1l-5,-.2h-5.1l-5,.4h-.1l-5,.8H312l-5,1.1h-.1l-4.8,1.5h-2.2l-4.8,-1.5H295l-5,-1.1h-.1c-10,-1.9,-20.4,-1.6,-30.4,.6l-5,1.4h-.1l-5,1.7C233.5,594,220,605.4,211.3,620.1l-2.1,3.9v.1l-2.3,5c-18.1,43.4,7.1,92.1,52.7,102.6l5,.9v.1l5,.6l.3,-2.2Z" class="gb_348"/>
<path d="M269.8,756.6l-5,-.5l-5,-.7l-4.9,-.9C196.8,741.4,163.4,680.8,183.6,624.7l2,-5l2.3,-5l2.6,-5c12,-21.1,31.4,-37.2,54.4,-44.9l5,-1.5l5,-1.3l4.9,-.9c8.2,-1.4,16.6,-1.8,24.9,-1l5,.5l5,.8c6.9,2.7,10.6,-.1,17.6,-.8l5,-.5l5,-.3l4.9,-.1l5.5,.2l4.5,.5l5,.7c58.6,10,95,68.7,77.9,125.8l-1.7,5l-2,4.9l-2.2,5c-10.8,21.9,-29.4,39.1,-52.1,48.1l-5,1.8l-5,1.5l-5,1.3c-8.1,1.8,-16.5,2.5,-24.8,2.3l-5,-.3l-5,-.6c-7.3,-.9,-10.4,-3.4,-17.6,-.8l-5,.8l-5,.6l-4.9,.3h-5l-5,-.2v.8l5,.2l5,-.1l5,-.3c4.9,-.4,9.8,-1.2,14.7,-2.4l2.7,-.1l5,1.1c3.6,.7,6.3,1.1,10,1.4l5,.3l5,.1c12,-.2,24,-2.6,35.2,-7l5,-2.2c24,-11.1,42.7,-31.4,51.7,-56.3l1.7,-5l1.4,-5C436.4,623.8,396.8,566.7,337.3,559.6l-4.6,-.4l-5.4,-.3h-.1l-5,.1c-5,.2,-10.1,.7,-15,1.7l-4.6,1l-2.8,.1l-5,-1.1l-5,-.8l-5,-.6l-5,-.3c-11.9,-.4,-23.8,1.3,-35.1,5.1l-5,1.8h-.1C215,575.7,195.3,595,184.9,619.4l-2,5l-1.7,5C164,686.9,200.6,746,259.7,756.2l5,.7l5,.5l.1,-.8Z" class="ga_348"/>
<path d="M424.4,732.2l-3.6,4.5l-3.9,4.6c-29,31.8,-72.4,46.2,-114.6,38h-2.5c-43.6,8.4,-88.3,-7.1,-117.2,-40.9l-3.4,-4.2l-1.6,-2l-.6,.5l1.6,2c27.6,35.3,72,52.9,116.2,46.2l5,-.8h2.4c44.6,8.6,90.3,-7.9,119.2,-42.9l3.6,-4.5l-.6,-.5Z" class="ga_348"/>
<path clip-path="url(#c1_348)" d="M177.6,584.3l3.6,-4.5l3.9,-4.6c29,-31.8,72.4,-46.2,114.6,-38h2.6c43.5,-8.4,88.2,7.1,117.1,40.9l3.5,4.2l1.5,2l.6,-.5l-1.5,-2h-.1c-27.6,-35.2,-72,-52.9,-116.2,-46.2l-5,.8h-2.4c-44.6,-8.6,-90.3,7.9,-119.2,42.9l-3.6,4.5l.6,.5Z" class="ga_348"/>
<path d="M194.4,781.6l-1.9,-1.3l-1.7,-1.2l-.8,-.5l-2.4,-1.8l-.2,-.2l-2.3,-1.8l-.9,-.7l-1.6,-1.3l-1.5,-1.2l-1,-.8l-1.9,-1.6l-.2,.2l.2,-.2l-.6,-.6l-.5,.6l.6,.5c4.6,4.1,9.4,7.8,14.4,11.3l1.9,1.2l.4,-.6Z" class="ga_348"/>
<path d="M424.4,768.6l-.6,.6l.2,.2l-.2,-.3l-1.9,1.7l.3,.3l-.3,-.3l-1,.8l-1.5,1.2l-1.6,1.3l-.8,.7l-2.4,1.8l-.1,.2v-.1l-2.5,1.9l-.8,.5l-1.7,1.2l-1.9,1.3l.4,.6l1.9,-1.2c5,-3.5,9.8,-7.2,14.4,-11.3l.6,-.5l-.5,-.6Z" class="ga_348"/>
<path d="M177.6,547.9l.6,-.5l1.9,-1.7l1,-.8l1.5,-1.2l1.6,-1.3l.9,-.7l2.3,-1.8l.1,-.1l2.5,-1.9l.8,-.5l1.7,-1.2l1.9,-1.3l-.4,-.6l-1.9,1.3c-5,3.4,-9.8,7.1,-14.4,11.2l-.6,.5l.5,.6Z" class="ga_348"/>
<path d="M407.6,534.9l1.9,1.3l1.7,1.2l.8,.5l2.5,1.9l.1,.1l2.4,1.8l.8,.7l1.6,1.3l1.5,1.2l1,.8l1.9,1.7v-.1l.6,.6l.5,-.6l-.6,-.5c-4.6,-4.1,-9.4,-7.8,-14.4,-11.2L408,534.3l-.4,.6Z" class="ga_348"/>
<path d="M269.8,731.6l-1.7,-.2l-.1,1.1l1.7,.2l.1,-1.1Zm-2.4,-.3l-1.7,-.2l-.1,1.1l1.7,.2l.1,-1.1ZM265,731h-.1l-1.6,-.3l-.2,1.1l1.6,.3h.1L265,731Zm-2.4,-.4l-1.7,-.3l-.2,1l1.7,.4l.2,-1.1Zm-2.4,-.5h-.3l-1.4,-.4l-.3,1.1l1.4,.3h.1l.2,.1l.3,-1.1Zm-2.4,-.6l-1.7,-.4l-.2,1l1.6,.5l.3,-1.1Zm-2.4,-.6l-.5,-.1l-1.1,-.4l-.3,1l1.1,.4l.5,.1l.3,-1Zm-2.3,-.8l-1.6,-.5l-.4,1l1.7,.6l.3,-1.1Zm-2.3,-.8l-.8,-.2l-.8,-.4l-.4,1.1l.8,.3l.8,.3l.4,-1.1Zm-2.3,-.8l-1,-.4l-.5,-.3l-.5,1l.6,.3l1,.4l.4,-1Zm-2.2,-1l-1.6,-.7l-.4,1l1.5,.7l.5,-1Zm-2.2,-1.1l-1.6,-.7l-.5,1h.1l1.5,.7l.5,-1Zm-2.2,-1l-1.5,-.9l-.6,1l1.5,.8l.6,-.9Zm-2.2,-1.2l-1.2,-.7l-.2,-.2l-.6,1l.2,.1h.1l1.2,.7l.5,-.9Zm-2.1,-1.3l-1.4,-.9l-.6,.9l1.5,1l.5,-1Zm-2,-1.3l-.5,-.3l-.9,-.6l-.7,.9l1,.6l.5,.3l.6,-.9Zm-2,-1.4l-1,-.6l-.4,-.4l-.7,.9l.5,.4l.9,.6l.7,-.9Zm-2,-1.4l-1.4,-1.1l-.6,.9l1.3,1.1l.7,-.9Zm-1.9,-1.5l-1.3,-1.1l-.8,.8l1.4,1.1l.7,-.8Zm-1.9,-1.6l-.1,-.1l-1.2,-1.1l-.7,.9l1.1,1l.2,.1l.7,-.8ZM226,712l-.8,-.7l-.4,-.4l-.8,.8l.4,.4l.8,.8l.8,-.9Zm-1.8,-1.7L223,709.1l-.8,.8l1.3,1.2l.7,-.8Zm-1.7,-1.7l-1.1,-1.3l-.8,.8l1.1,1.2l.8,-.7Zm-1.6,-1.8l-.7,-.8l-.4,-.5l-.9,.7l.5,.5v.1l.7,.7l.8,-.7Zm-1.6,-1.9l-1.1,-1.3l-.8,.7l1.1,1.3l.8,-.7ZM217.8,703h-.1l-.9,-1.4l-.9,.7l1,1.3v.1l.9,-.7Zm-1.4,-2l-1,-1.4l-.9,.7l1,1.4l.9,-.7Zm-1.5,-2l-.9,-1.4l-.9,.6l.9,1.4l.9,-.6Zm-1.3,-2l-.8,-1.4v-.1l-1,.5v.1l.9,1.4l.9,-.5Zm-1.2,-2.1l-.8,-1.5l-1,.5l.8,1.5l1,-.5Zm-1.2,-2.2l-.5,-1l-.3,-.5l-1,.5l.3,.5l.5,1l1,-.5Zm-1.1,-2.2l-.6,-1.2l-.1,-.3l-1.1,.4l.2,.3l.6,1.3l1,-.5Zm-1,-2.2l-.7,-1.6l-1,.5l.7,1.6l1,-.5Zm-1,-2.2l-.6,-1.6l-1.1,.4l.7,1.6l1,-.4Zm-.9,-2.3l-.5,-1.6l-1.1,.3l.6,1.7l1,-.4Zm-.8,-2.3l-.5,-1.6l-1.1,.3l.6,1.6l1,-.3Zm-.7,-2.3l-.5,-1.7l-1,.3l.4,1.7l1.1,-.3Zm-.7,-2.4l-.4,-1.7l-1.1,.3l.5,1.7l1,-.3Zm-.6,-2.4v0l-.3,-1.6L203,673l.3,1.6v.1l1.1,-.3ZM204,672l-.4,-1.7l-1,.2l.3,1.7L204,672Zm-.5,-2.4v-.2l-.2,-1.5l-1.1,.2l.2,1.5v.2l1.1,-.2Zm-.3,-2.4l-.2,-1.7l-1.1,.1l.2,1.7l1.1,-.1Zm-.3,-2.4v-.5l-.1,-1.2h-1.1l.1,1.2v.6l1.1,-.1Zm-.1,-2.5l-.1,-1.7l-1.1,.1l.1,1.7l1.1,-.1Zm-.2,-2.4v-1.7h-1.1v1.7h1.1Zm.1,-2.4v-1.8h-1.1v1.7l1.1,.1Zm0,-2.5v-.5l.1,-1.2l-1.1,-.1l-.1,1.3v.5h1.1Zm.2,-2.4l.1,-1.7l-1.1,-.1l-.1,1.7l1.1,.1Zm.2,-2.5v-.5l.2,-1.1l-1.1,-.2l-.2,1.1v.6l1.1,.1Zm.3,-2.4l.3,-1.7l-1.1,-.2l-.3,1.7l1.1,.2Zm.4,-2.4l.1,-.7l.2,-1l-1.1,-.2l-.2,1l-.1,.7l1.1,.2Zm.5,-2.4l.3,-1.7l-1,-.2l-.4,1.7l1.1,.2Zm.5,-2.4l.2,-.8l.2,-.8l-1,-.3l-.3,.8l-.2,.9l1.1,.2Zm.6,-2.3l.5,-1.7l-1,-.3l-.5,1.6l1,.4Zm.8,-2.4l.3,-1.1l.2,-.5l-1.1,-.4l-.1,.5l-.1,.1l-.3,1.1l1.1,.3Zm.7,-2.3l.6,-1.6l-1,-.4l-.6,1.6l1,.4Zm.9,-2.3l.6,-1.5v-.1l-1,-.4v.1h-.1l-.5,1.5l1,.4Zm.9,-2.2l.7,-1.6l-1,-.5l-.7,1.6l1,.5Zm1.1,-2.3l.7,-1.5l-1,-.5l-.7,1.6l1,.4Zm1,-2.2l.8,-1.5l-.9,-.5l-.9,1.5l1,.5Zm1.2,-2.1l.8,-1.5l-.9,-.6l-.1,.1l-.8,1.4l1,.6Zm1.2,-2.1l.9,-1.5l-.9,-.6l-.9,1.5l.9,.6Zm1.3,-2.1l.5,-.9l.4,-.5l-.9,-.7l-.4,.6l-.5,.9l.9,.6Zm1.3,-2l1,-1.3v-.1l-.8,-.7l-.1,.1l-1,1.3l.9,.7Zm1.5,-2l1,-1.4l-.9,-.7l-1,1.4l.9,.7Zm1.5,-2l1.1,-1.3l-.9,-.7l-1.1,1.3l.9,.7Zm1.5,-1.8l.4,-.5l.8,-.8l-.9,-.8l-.7,.9l-.4,.4l.8,.8Zm1.7,-1.9l1,-1.1l.1,-.1l-.8,-.8l-.1,.1v.1l-1.1,1.1l.9,.7Zm1.6,-1.7l1.2,-1.3l-.7,-.7l-1.2,1.2l.7,.8Zm1.8,-1.8l.1,-.1l1.1,-1l-.7,-.8l-1.2,1l-.1,.1l.8,.8Zm1.8,-1.6l1,-.9l.2,-.2l-.7,-.9l-.2,.2l-1.1,1l.8,.8Zm1.8,-1.6l1.3,-1.1l-.6,-.9l-1.4,1.1l.7,.9Zm1.9,-1.6l.3,-.2l1.1,-.8l-.7,-.9l-1,.8l-.4,.3l.7,.8Zm2,-1.4l1.4,-1l-.7,-.9l-1.4,1l.7,.9Zm2,-1.5l.2,-.1l1.2,-.8l-.6,-.9l-1.2,.8l-.3,.1l.7,.9Zm2,-1.3l1.5,-.9l-.6,-.9l-1.5,.9l.6,.9Zm2.1,-1.2l1.5,-.9L240,593l-1.5,.8l.5,1Zm2.1,-1.2l1.4,-.8l.1,-.1l-.5,-1l-.1,.1l-1.4,.8l.5,1Zm2.2,-1.2l1.5,-.8l-.5,-.9l-1.5,.7l.5,1Zm2.2,-1l1.6,-.7l-.5,-1l-1.5,.6l.4,1.1Zm2.3,-1l1.5,-.7l-.4,-1l-1.6,.7l.5,1Zm2.2,-1l1.6,-.5l-.3,-1.1l-1.7,.6l.4,1Zm2.3,-.8l1.6,-.5l-.3,-1l-1.6,.5l.3,1Zm2.3,-.7l.3,-.2l1.4,-.3l-.3,-1.1l-1.4,.4l-.3,.1l.3,1.1Zm2.4,-.7l1.6,-.4l-.2,-1.1l-1.7,.4l.3,1.1Zm2.4,-.6l.5,-.2l1.1,-.2l-.2,-1.1l-1.1,.3h-.1l-.5,.1l.3,1.1Zm2.3,-.5l1.7,-.3l-.2,-1.1l-1.7,.3l.2,1.1Zm2.5,-.5l.7,-.1l.9,-.1l-.1,-1.1l-1,.1l-.8,.1l.3,1.1Zm2.4,-.3l1.7,-.2l-.2,-1.1l-1.7,.2l.2,1.1ZM269,585l.8,-.1l.9,-.1l-.1,-1.1l-.9,.1l-.8,.1l.1,1.1Zm2.4,-.2l1.7,-.1v-1.1l-1.7,.1v1.1Zm2.5,-.1l.9,-.1h.8v-1.1h-.9l-.9,.1l.1,1.1Zm2.4,-.1l1.7,.1v-1.1l-1.7,-.1v1.1Zm2.5,.1h1.6l.1,-1.1h-1.7v1.1Zm2.4,.1l1.7,.1l.1,-1.1l-1.7,-.1l-.1,1.1Zm2.4,.2l1.2,.1l.5,.1l.2,-1.1l-.6,-.1l-1.2,-.1l-.1,1.1Zm2.4,.3l1.7,.2l.2,-1.1l-1.7,-.2l-.2,1.1Zm2.5,.3l1.2,.2l.4,.1l.3,-1l-.5,-.2h-.1l-1.2,-.1l-.1,1Zm2.4,.5l1.6,.4l.3,-1.1l-1.7,-.4l-.2,1.1Zm2.4,.5l1.3,.3l.3,.1l.3,-1.1h-.3v-.1l-1.4,-.3l-.2,1.1Zm2.3,.6l1.7,.5l.3,-1.1l-1.7,-.4l-.3,1Zm2.4,.7l1.6,.5l.4,-1l-.1,-.1l-1.6,-.4l-.3,1Zm2.3,.7l1.6,.6l.4,-1l-1.6,-.6l-.4,1Zm2.3,.9l1.6,.6l.4,-1l-1.6,-.6l-.4,1Zm2.3,.9l1.5,.7l.5,-1l-1.6,-.7l-.4,1Zm2.2,1l1.6,.7l.4,-1l-1.5,-.7l-.5,1Zm2.2,1l.2,.1l1.3,.7l.5,-.9l-1.3,-.7v-.1l-.2,-.1l-.5,1Zm2.2,1.2l1.5,.8l.5,-.9l-1.5,-.9l-.5,1Zm2.1,1.2l.4,.2l1.1,.7l.5,-1l-1,-.6l-.4,-.3l-.6,1Zm2.1,1.3l1.2,.7l.2,.2l.6,-.9l-.1,-.2h-.1l-1.2,-.8l-.6,1Zm2,1.3l1.4,1l.7,-.9l-1.4,-1l-.7,.9Zm2,1.4l1.4,1l.7,-.8l-1.4,-1.1l-.7,.9Zm2,1.5l.2,.1l1.1,.9l.7,-.8l-1.1,-.9l-.2,-.2l-.7,.9Zm1.9,1.5l.8,.7l.5,.4l.7,-.8l-.5,-.4v-.1l-.8,-.6l-.7,.8Zm1.8,1.6l1.3,1.2l.7,-.8l-1.2,-1.2l-.8,.8Zm1.8,1.7l1.2,1.2l.8,-.8L328,604.3l-.8,.8Zm1.8,1.7l.6,.6l.5,.6l.8,-.7l-.5,-.6v-.1l-.7,-.6l-.7,.8Zm1.6,1.8l1.2,1.3l.8,-.8l-1.2,-1.3l-.8,.8Zm1.6,1.8l1.1,1.3l.9,-.7l-1.1,-1.3l-.9,.7Zm1.6,1.9l.5,.6l.5,.7l.9,-.6l-.5,-.8l-.5,-.6l-.9,.7Zm1.5,1.9l1,1.4l.9,-.6l-1,-1.4l-.9,.6Zm1.4,2l.1,.1l.9,1.3l.9,-.6l-.9,-1.3v-.1h-.1l-.9,.6Zm1.4,2.1l.9,1.4l.9,-.6l-.9,-1.4l-.9,.6Zm1.3,2l.9,1.5l.9,-.6l-.9,-1.4l-.9,.5Zm1.2,2.1l.8,1.5l1,-.5l-.8,-1.5l-1,.5Zm1.2,2.2l.1,.2l.6,1.3l1,-.4l-.6,-1.4l-.1,-.2l-1,.5Zm1,2.2l.7,1.6l1,-.5l-.7,-1.6l-1,.5Zm1.1,2.2l.3,.7l.3,.9l1,-.4l-.3,-.9l-.3,-.7l-1,.4Zm.9,2.3l.4,.9l.2,.7l1,-.4l-.2,-.7l-.4,-.9l-1,.4Zm.8,2.3l.6,1.6l1,-.4l-.5,-1.6l-1.1,.4Zm.8,2.3l.4,1.3l.1,.3l1.1,-.3l-.1,-.3v-.1l-.4,-1.3l-1.1,.4Zm.7,2.3l.5,1.7l1,-.3l-.4,-1.7l-1.1,.3Zm.6,2.4l.4,1.5l.1,.1l1,-.2v-.1l-.4,-1.6l-1.1,.3Zm.6,2.4l.3,1.6l1.1,-.2l-.3,-1.7l-1.1,.3Zm.5,2.4l.3,1.7l1.1,-.2l-.4,-1.7l-1,.2Zm.4,2.4l.2,1.7l1.1,-.2l-.3,-1.7l-1,.2Zm.2,2.4l.3,1.7l1,-.1l-.2,-1.7l-1.1,.1Zm.3,2.4l.1,1.7h1.1l-.1,-1.7h-1.1Zm.1,2.5l.1,1.7l1.1,-.1l-.1,-1.7l-1.1,.1Zm.1,2.4v1.7H351v-1.7h-1.1Zm0,2.5l-.1,1.7h1.1L351,660h-1.1Zm-.1,2.4l-.1,1.7l1,.1l.2,-1.7l-1.1,-.1Zm-.2,2.4l-.2,1.8l1.1,.1l.2,-1.8l-1.1,-.1Zm-.2,2.5l-.3,1.7l1.1,.1l.3,-1.7l-1.1,-.1Zm-.4,2.4l-.3,1.7l1.1,.2l.3,-1.7l-1.1,-.2Zm-.4,2.4l-.4,1.7l1.1,.2l.4,-1.7l-1.1,-.2Zm-.5,2.4l-.4,1.7l1.1,.2l.3,-1.7l-1,-.2Zm-.6,2.4l-.5,1.6l1.1,.3l.5,-1.6l-1.1,-.3Zm-.7,2.3l-.5,1.7l1.1,.3l.5,-1.7l-1.1,-.3Zm-.7,2.4v.2l-.6,1.4l1.1,.3l.5,-1.3v-.1l.1,-.2l-1.1,-.3Zm-.8,2.3l-.6,1.6l1,.4l.6,-1.7l-1,-.3Zm-.9,2.3l-.2,.6l-.5,.9l1,.5l.5,-1l.2,-.7l-1,-.3Zm-1,2.2l-.7,1.5l1,.5l.7,-1.6l-1,-.4Zm-1,2.2l-.5,1.1l-.2,.4l.9,.5l.3,-.4l.5,-1.1l-1,-.5Zm-1.1,2.2l-.8,1.4v.1l1,.5v-.1l.8,-1.4l-1,-.5Zm-1.2,2.1l-.8,1.5l.9,.6l.9,-1.5l-1,-.6Zm-1.2,2.1l-1,1.5l1,.6l.9,-1.5l-.9,-.6Zm-1.4,2.1l-.7,1.1l-.2,.3l.9,.6l.2,-.2v-.1l.8,-1.1l-1,-.6Zm-1.3,2l-1.1,1.4l.9,.6l1,-1.4l-.8,-.6Zm-1.5,2l-.4,.5l-.6,.8l.8,.7l.7,-.8l.4,-.6l-.9,-.6Zm-1.5,1.9l-1.1,1.3l.8,.7l1.1,-1.3l-.8,-.7Zm-1.6,1.8l-1.1,1.3l.8,.7l1.1,-1.2l-.8,-.8Zm-1.6,1.8l-.7,.7l-.5,.6l.8,.8l.5,-.6l.7,-.7l-.8,-.8Zm-1.7,1.8l-1.3,1.2l.8,.8l1.2,-1.2l-.7,-.8Zm-1.8,1.7l-1.3,1.1l.8,.9l1.3,-1.2l-.8,-.8Zm-1.8,1.6l-.3,.3l-1,.8l.7,.9l1,-.8l.3,-.3l-.7,-.9Zm-1.9,1.6l-1.3,1.1l.7,.8l1.3,-1l-.7,-.9Zm-1.9,1.5l-1.4,1l.7,.9l1.4,-1l-.7,-.9Zm-2,1.5l-1,.7l-.4,.2l.6,1l.4,-.3l1.1,-.7l-.7,-.9Zm-2,1.3l-1.4,1l.6,.9l1.4,-.9l-.6,-1Zm-2.1,1.4l-.3,.2l-1.1,.6l.5,1l1.1,-.6l.4,-.3l-.6,-.9Zm-2,1.2l-.8,.5l-.7,.3l.5,1l.7,-.4l.8,-.4l-.5,-1Zm-2.2,1.2l-1.1,.6l-.4,.2l.5,1l.4,-.2l1.1,-.6l-.5,-1Zm-2.2,1.1l-1.5,.7l.4,1l1.6,-.7l-.5,-1Zm-2.2,1l-1.6,.7l.5,1l1.6,-.7l-.5,-1Zm-2.2,1l-1.6,.6l.4,1l1.6,-.6l-.4,-1Zm-2.3,.9l-1.6,.5l.3,1.1l1.6,-.6l-.3,-1Zm-2.3,.7l-1.7,.6l.4,1l1.6,-.5l-.3,-1.1Zm-2.4,.8v0l-1.6,.4l.3,1.1l1.6,-.4h.1l-.4,-1.1Zm-2.3,.6L293,730l.3,1l1.7,-.4l-.3,-1.1Zm-2.4,.6l-.2,.1l-1.5,.3l.2,1l1.6,-.2v-.1h.2l-.3,-1.1Zm-2.4,.5l-1.7,.3l.2,1.1l1.7,-.3l-.2,-1.1Zm-2.4,.4l-.3,.1l-1.4,.2l.1,1l1.4,-.1h.1l.3,-.1l-.2,-1.1Zm-2.4,.3l-1.7,.2l.1,1.1l1.7,-.2l-.1,-1.1Zm-2.5,.3l-.4,.1H281v1.1h1.3l.5,-.1l-.2,-1.1Zm-2.4,.2h-1.7v1.1h1.8l-.1,-1.1Zm-2.4,.1h-1.7L276,733h1.8v-1.1Zm-2.5,0l-1.7,-.1v1.1l1.7,.1v-1.1Zm-2.4,-.1h-.6l-1.1,-.1l-.1,1.1l1.1,.1h.6l.1,-1.1Zm-2.5,-.1l-.6,-.1l-.1,1.1l.7,.1v-1.1Z" class="g9_348"/>
<path d="M314.9,731.1h-.1l-1.6,-.3l-.2,1.1l1.7,.3l.2,-1.1Zm-2.4,-.4h-.2l-1.5,-.3l-.2,1l1.5,.4h.2l.2,-1.1Zm-2.4,-.5h-.2l-1.5,-.4l-.2,1.1l1.4,.3v.1h.3l.2,-1.1Zm-2.4,-.5l-.3,-.1l-1.4,-.4l-.2,1.1l1.3,.3v.1h.3l.3,-1Zm-2.4,-.7l-.3,-.1h-.1l-1.2,-.4l-.3,1.1l1.2,.4h.1l.3,.1l.3,-1.1Zm-2.3,-.7l-.6,-.2l-1,-.3l-.4,1l1.1,.4l.6,.1l.3,-1Zm-2.3,-.8l-.8,-.3l-.8,-.3l-.4,1l.9,.4l.7,.2l.4,-1Zm-2.3,-.9l-.5,-.2l-.4,-.1l-.7,-.3l-.4,1l.6,.3h.1l.4,.2l.5,.2l.4,-1.1Zm-2.2,-.9l-1.2,-.5l-.4,-.2l-.5,1l.4,.2l1.2,.5l.5,-1Zm-2.3,-1l-1.4,-.7l-.1,-.1l-.5,1h.1v.1l1.5,.7l.4,-1Zm-2.2,-1.1l-1.5,-.8l-.5,.9l1.5,.9l.5,-1Zm-2.1,-1.2l-1.5,-.8l-.5,.9l1.4,.9l.6,-1Zm-2.1,-1.2l-1.5,-.9l-.6,.9l1.5,.9l.6,-.9Zm-2.1,-1.3l-.3,-.2l-1,-.7l-.1,-.1l-.6,.9l.1,.1l1,.7l.3,.2l.6,-.9Zm-2,-1.4l-.8,-.6l-.6,-.4l-.6,.9l.5,.4h.1l.8,.6l.6,-.9Zm-2,-1.4l-.7,-.6l-.6,-.4V716l-.7,.9l.6,.5l.8,.5l.6,-.8Zm-1.9,-1.5l-1.3,-1.1l-.7,.8l1.3,1.1l.7,-.8ZM277.6,714l-1.3,-1.1l-.7,.8l1.3,1.1l.7,-.8Zm-1.8,-1.6l-.7,-.6l-.2,-.2l-.3,-.4l-.8,.8l.4,.4l.2,.2l.6,.6l.8,-.8ZM274,710.7l-1.2,-1.2l-.8,.7l1.2,1.3l.8,-.8Zm-1.7,-1.8l-1.1,-1.2l-.9,.7l1.2,1.3l.8,-.8Zm-1.6,-1.8l-.5,-.5l-.4,.4l.4,-.4l-.7,-.8l-.8,.7l.6,.8l.5,-.3l-.5,.3h.1l.4,.6l.9,-.8Zm-1.6,-1.8l-1,-1.2L268,704l-.9,.6l.2,.2l.9,1.2l.9,-.7Zm-1.6,-1.9l-1,-1.4l-.9,.7l1.1,1.3l.8,-.6Zm-1.4,-2l-.9,-1.2l-.1,-.2l-.9,.6l.1,.3l.9,1.2l.9,-.7Zm-1.4,-2l-.2,-.2l-.8,-1.2l-.9,.6l.8,1.2l.2,.2l.9,-.6Zm-1.4,-2.1l-.4,-.6l-.1,-.3l-.4,-.5l-.9,.6l.3,.5l.2,.3l.4,.6l.9,-.6Zm-1.2,-2l-.6,-1.1l-.3,-.4l-.9,.5l.2,.4v.1l.6,1l1,-.5Zm-1.2,-2.2l-.6,-1.1l-.2,-.3v-.1l-1,.5v.1h.1l.1,.3l.6,1.1l1,-.5ZM259.8,691l-.8,-1.6l-1,.5l.8,1.5l1,-.4Zm-1.1,-2.2l-.7,-1.6l-1,.4l.7,1.6l1,-.4Zm-1,-2.3l-.6,-1.6l-1,.4l.6,1.6l1,-.4Zm-.9,-2.3l-.6,-1.6l-1,.4l.6,1.6l1,-.4Zm-.8,-2.3v-.1l-.5,-1.5l-1.1,.3l.5,1.6l.1,.1l1,-.4Zm-.7,-2.3l-.1,-.3l-.4,-1.3l-1.1,.3l.4,1.3v.1l.1,.2l1.1,-.3Zm-.7,-2.4l-.1,-.4l-.3,-1.2l-1.1,.3l.3,1.2l.1,.4l1.1,-.3Zm-.6,-2.3l-.1,-.5l-.3,-1.2l-1,.2l.2,1.2l.1,.5l1.1,-.2Zm-.5,-2.4l-.1,-.6l-.2,-1.1l-1.1,.2l.2,1.1l.1,.6l1.1,-.2Zm-.4,-2.4l-.2,-.7l-.1,-.8v-.2l-1.1,.1v.3l.1,.8l.2,.7l1.1,-.2Zm-.4,-2.4l-.1,-.8l-.1,-.9l-1.1,.1l.1,1l.1,.7l1.1,-.1Zm-.3,-2.5l-.1,-.7v-1l-1.1,.1v.9l.1,.1v.7l1.1,-.1Zm-.2,-2.4v-1.7h-1.1v1.8l1.1,-.1Zm-.1,-2.4v-1.7H251v1.7h1.1Zm0,-2.5v-1.7H251v1.7h1.1Zm0,-2.4l.1,-1v-.7l-1.1,-.1v.8l-.1,.9l1.1,.1Zm.2,-2.5v-.9l.1,-.8l-1.1,-.1v.7l-.1,.1v1h1.1Zm.2,-2.4l.1,-1l.1,-.7l-1.1,-.1l-.1,.6v.1l-.1,1l1.1,.1Zm.3,-2.4v-.3l.1,-.8l.1,-.6l-1,-.2l-.2,.6l-.1,.8v.3l1.1,.2Zm.4,-2.4l.2,-1.2l.1,-.5l-1.1,-.2l-.1,.5l-.2,1.2l1.1,.2Zm.4,-2.5l.3,-1.2l.1,-.4l-1.1,-.3l-.1,.5l-.3,1.2l1.1,.2Zm.6,-2.3l.3,-1.3l.1,-.4l-1.1,-.3l-.1,.4l-.3,1.3l1.1,.3Zm.6,-2.4l.4,-1.4V637l-1,-.4l-.1,.2v.1l-.4,1.4l1.1,.3Zm.7,-2.3l.5,-1.6v-.1l-1.1,-.3l-.5,1.6l1.1,.4Zm.7,-2.4l.6,-1.6l-1,-.4l-.6,1.7l1,.3Zm.9,-2.3l.6,-1.6l-1,-.4l-.7,1.6l1.1,.4Zm.9,-2.2l.7,-1.6l-1,-.4l-.7,1.5l1,.5Zm1,-2.3l.7,-1.5l-1,-.5l-.7,1.6l1,.4Zm1.1,-2.2v-.1l.2,-.3l.5,-1.1l-.9,-.5l-.6,1.1l-.1,.3h-.1v.2l1,.4Zm1.1,-2.1l.3,-.5l.5,-1l-.9,-.6l-.6,1v.1l-.3,.5l1,.5Zm1.2,-2.1l.4,-.6l.1,-.3l.4,-.6l-.9,-.6l-.4,.6l-.2,.3l-.3,.6l.9,.6Zm1.3,-2.1l.8,-1.3l.1,-.1l-.9,-.7l-.1,.2l-.8,1.3l.9,.6Zm1.3,-2.1l.2,-.2l.8,-1.2l-.9,-.6l-.8,1.1l-.2,.3l.9,.6Zm1.5,-1.9l1,-1.4l-.9,-.7l-1,1.4l.9,.7Zm1.4,-2l.2,-.2l.9,-1.1l-.8,-.7l-.9,1.1l-.2,.2l.8,.7Zm1.6,-1.9l.7,-.8l-.4,-.4l.4,.4l.4,-.5l-.8,-.7l-.4,.5h-.1l-.6,.8l.8,.7Zm1.6,-1.8l1.2,-1.3l-.8,-.7l-1.2,1.2l.8,.8Zm1.7,-1.8l1.2,-1.2l-.8,-.8l-1.2,1.2l.8,.8Zm1.7,-1.7l.4,-.5l.2,-.2l.6,-.5l-.7,-.8l-.6,.5l-.2,.2l-.5,.5l.8,.8Zm1.8,-1.7l1.3,-1.2l-.8,-.8l-1.2,1.2l.7,.8Zm1.8,-1.6l1.3,-1.1l-.7,-.9l-1.3,1.1l.7,.9Zm1.9,-1.6l.1,-.1l.6,-.4l.7,-.5l-.7,-.9l-.7,.5l-.6,.5l-.1,.1l.7,.8Zm2,-1.5l.6,-.4l.7,-.6l-.6,-.9l-.7,.6h-.1l-.6,.5l.7,.8Zm1.9,-1.4l.2,-.1l1,-.7l.3,-.1l-.6,-1l-.3,.2l-1,.7l-.2,.1l.6,.9Zm2.1,-1.3l1.4,-1l-.6,-.9l-1.4,.9l.6,1Zm2,-1.3l1.5,-.9l-.5,-.9l-1.5,.8l.5,1Zm2.2,-1.2l1.5,-.8l-.5,-1l-1.5,.8l.5,1Zm2.1,-1.2l.2,-.1l1.4,-.6l-.5,-1l-1.4,.6v.1h-.2l.5,1Zm2.2,-1.1l.5,-.2l1.1,-.5l-.5,-1l-1.1,.5l-.4,.2l.4,1Zm2.3,-1l.7,-.3l.4,-.1l.4,-.2l-.4,-1l-.4,.1l-.4,.2H297l-.7,.3l.5,1Zm2.2,-.9l.9,-.3l.7,-.3l-.3,-1l-.7,.2l-1,.4l.4,1Zm2.3,-.8l1.1,-.4l.5,-.2l-.3,-1l-.5,.1l-1.1,.4l.3,1.1Zm2.3,-.8l1.3,-.4h.1l.3,-.1l-.3,-1.1l-.3,.1h-.1v.1l-1.3,.4l.3,1Zm2.4,-.7l1.4,-.4h.2l-.2,-1.1h-.3v.1l-1.4,.3l.3,1.1Zm2.3,-.6l1.6,-.4h.1l-.2,-1.1h-.2v.1l-1.5,.3l.2,1.1Zm2.4,-.5l1.6,-.4h.1l-.2,-1.1h-.1l-1.6,.4l.2,1.1Zm2.4,-.5l1.7,-.3l-.2,-1.1l-1.6,.3l.1,1.1Zm2.4,-.4l1.7,-.2h.1l-.2,-1.1l-1.7,.2l.1,1.1ZM318,585l1.7,-.2l-.1,-1l-1.7,.1l.1,1.1Zm2.4,-.2l1.7,-.1v-1.1l-1.8,.1l.1,1.1Zm2.5,-.1l1.7,-.1l-.1,-1.1l-1.7,.1l.1,1.1Zm2.4,-.1H327v-1.1h-1.7v1.1Zm2.4,0l1.8,.1v-1.1l-1.7,-.1l-.1,1.1Zm2.5,.1l1.7,.2l.1,-1.1l-1.7,-.2l-.1,1.1Zm2.4,.2l1.6,.2h.1l.1,-1.1h-.1l-1.6,-.2l-.1,1.1Zm2.4,.3l1.8,.2l.1,-1.1l-1.7,-.2l-.2,1.1Zm2.5,.3l1.7,.3l.1,-1l-1.6,-.3l-.2,1Zm2.4,.5l1.7,.3l.2,-1.1l-1.7,-.3l-.2,1.1Zm2.4,.5l1.6,.4l.3,-1.1l-1.7,-.4l-.2,1.1Zm2.3,.6l1.7,.4l.3,-1l-1.7,-.5l-.3,1.1Zm2.4,.6h.1l1.5,.6l.4,-1.1l-1.6,-.5h-.1l-.3,1Zm2.3,.8h.2l1.4,.6l.4,-1.1l-1.4,-.5l-.2,-.1l-.4,1.1Zm2.3,.8l.4,.1l1.2,.5l.4,-1l-1.2,-.5l-.4,-.1l-.4,1Zm2.3,.9l.6,.2l1,.5l.4,-1l-1,-.5l-.6,-.2l-.4,1Zm2.2,1l.9,.4l.7,.3l.5,-1l-.7,-.3h-.1l-.8,-.4l-.5,1Zm2.3,1l.6,.3l.5,.3l.4,.2l.5,-1l-.4,-.2l-.5,-.3l-.7,-.3l-.4,1Zm2.1,1.1l1.4,.8l.1,.1l.6,-1h-.1v-.1l-1.5,-.7l-.5,.9Zm2.2,1.2l.8,.5l.6,.4l.6,-.9l-.6,-.4H364l-.8,-.5l-.5,.9Zm2.1,1.3l1.4,.9l.6,-.9l-1.5,-.9l-.5,.9Zm2,1.3l.1,.1l.5,.3l.8,.6l.6,-.9l-.8,-.6l-.5,-.3l-.1,-.1l-.6,.9Zm2,1.4l.6,.4l.8,.6l.7,-.8L370,598l-.5,-.4l-.7,.9Zm2,1.5l1.1,.8l.2,.2l.7,-.8l-.2,-.2l-1.1,-.9l-.7,.9Zm1.9,1.5l1.1,1l.2,.1l.7,-.8l-.2,-.2l-1.1,-.9l-.7,.8Zm1.8,1.6l1.3,1.1l.7,-.8l-1.2,-1.1l-.8,.8Zm1.9,1.6l.2,.2l.2,.3l.8,.7l.7,-.7l-.7,-.8l-.3,-.3l-.2,-.2l-.7,.8Zm1.7,1.8l.9,.9l.3,.3l.8,-.8l-.3,-.2v-.1l-.9,-.9l-.8,.8Zm1.7,1.7l1.1,1.3l.8,-.7l-1.1,-1.3l-.8,.7Zm1.6,1.8l.4,.5l.7,.8l.9,-.7l-.8,-.8l-.3,-.5l-.9,.7Zm1.6,1.9l.4,.5l.6,.9l.9,-.7l-.7,-.9l-.4,-.5l-.8,.7Zm1.5,1.9l.7,1l.3,.4l.9,-.6l-.3,-.4l-.7,-1l-.9,.6Zm1.4,2l.9,1.2l.1,.2l.9,-.6l-.1,-.2l-.9,-1.2l-.9,.6Zm1.4,2l.9,1.5l1,-.6l-1,-1.5l-.9,.6Zm1.3,2.1l.6,1l.3,.5l.9,-.6l-.2,-.4l-.6,-1.1l-1,.6Zm1.3,2.1l.1,.3l.7,1.2l.9,-.5l-.6,-1.2v-.1l-.2,-.2l-.9,.5Zm1.1,2.2l.3,.6l.4,.7l.1,.2l1,-.5l-.1,-.2l-.4,-.7l-.3,-.7l-1,.6Zm1.1,2.1l.5,1l.2,.6l1,-.5l-.2,-.6h-.1l-.4,-.9l-1,.4Zm1,2.3l.6,1.1l.1,.4l1,-.4l-.1,-.4l-.6,-1.2l-1,.5Zm1,2.2l.1,.3l.4,1.1l.1,.2l1,-.4v-.2l-.5,-1.1l-.1,-.3l-1,.4Zm.9,2.3l.5,1.6l1.1,-.3v-.1l-.6,-1.6l-1,.4Zm.8,2.3l.5,1.6l1,-.3l-.5,-1.6l-1,.3Zm.7,2.3l.2,.7l.2,1l1.1,-.3l-.3,-1l-.2,-.7l-1,.3Zm.6,2.4l.4,1.7l1.1,-.3l-.4,-1.7l-1.1,.3Zm.6,2.4l.3,1.7l1.1,-.3l-.3,-1.6l-1.1,.2Zm.5,2.4l.3,1.7l1,-.2l-.2,-1.7l-1.1,.2Zm.4,2.4l.2,1.7l1.1,-.2l-.2,-1.7l-1.1,.2Zm.3,2.4l.2,1.7l1.1,-.1l-.2,-1.7l-1.1,.1Zm.2,2.4v.1l.2,1.7l1.1,-.1l-.2,-1.6v-.1h-1.1Zm.2,2.5l.1,1.7h1.1l-.1,-1.8l-1.1,.1Zm1.2,2.4h-1.1v1.7h1.1Zm-1.1,2.5v0l-.1,1.7h1.1l.1,-1.7h-1.1Zm-.1,2.4v.1l-.1,1.6l1.1,.1l.1,-1.7l-1.1,-.1Zm-.2,2.5v.1l-.1,1.6l1.1,.1l.1,-1.6v-.2h-1.1Zm-.2,2.4v.1l-.2,1.6l1.1,.1l.2,-1.5v-.2l-1.1,-.1Zm-.3,2.4l-.1,.2l-.2,1.5l1.1,.2l.2,-1.5l.1,-.2l-1.1,-.2Zm-.4,2.4l-.1,.3l-.3,1.4l1.1,.2l.3,-1.4l.1,-.3l-1.1,-.2Zm-.5,2.4l-.1,.4l-.3,1.3l1.1,.2l.3,-1.3l.1,-.3l-1.1,-.3Zm-.6,2.4l-.1,.4l-.3,1.2l1,.3l.4,-1.2l.1,-.4l-1.1,-.3Zm-.6,2.4l-.2,.5l-.3,1.1l1,.3l.4,-1v-.1l.1,-.5l-1,-.3Zm-.7,2.3l-.3,.7l-.3,.9l1,.4l.4,-.9l.2,-.8l-1,-.3Zm-.8,2.3l-.4,.9l-.2,.7l1,.4l.3,-.7l.3,-.9l-1,-.4Zm-.9,2.3l-.4,1.1l-.3,.5l1,.4l.3,-.5l.4,-1.1l-1,-.4Zm-1,2.2l-.5,1.3l-.2,.3l1,.5l.1,-.3h.1l.5,-1.3l-1,-.5Zm-1,2.3l-.4,.8l-.3,.7l.9,.5l.4,-.7l.4,-.9l-1,-.4Zm-1.1,2.1l-.8,1.6l1,.5l.8,-1.5l-1,-.6Zm-1.1,2.2l-.7,1.1l-.2,.4l.9,.5l.3,-.4l.6,-1.1l-.9,-.5Zm-1.3,2.1v.1l-.9,1.3l.9,.6l.9,-1.3l.1,-.1l-1,-.6Zm-1.3,2.1l-.3,.5l-.2,.3l-.4,.6l.9,.6l.4,-.6l.2,-.3l.3,-.5l-.9,-.6Zm-1.4,2l-.7,1l-.3,.4l.9,.6l.3,-.4l.7,-1l-.9,-.6Zm-1.4,2l-.2,.3l-.9,1l.9,.7l.8,-1.1l.3,-.3l-.9,-.6Zm-1.5,1.9l-1.1,1.3l.8,.7l1.1,-1.3l-.8,-.7Zm-1.6,1.9l-.1,.1l-1,1.1l.8,.8l1,-1.2l.1,-.1l-.8,-.7Zm-1.6,1.8l-.5,.5l-.3,.3l-.4,.4l.8,.8l.4,-.4v-.1l.3,-.2v-.1l.5,-.5l-.8,-.7Zm-1.7,1.7l-1.2,1.3l.8,.7l1.2,-1.2l-.8,-.8Zm-1.8,1.8l-1.2,1.1l.7,.8l1.3,-1.1l-.8,-.8Zm-1.8,1.6l-.2,.2l-.5,.4l-.6,.5l.8,.9l.5,-.5l.6,-.5l.2,-.2l-.8,-.8Zm-1.8,1.6l-.8,.7l-.5,.4l.6,.8l.6,-.4l.8,-.7l-.7,-.8Zm-1.9,1.5v0l.3,.5l-.3,-.5l-1.4,1.1l.7,.8l1.3,-1l-.6,-.9Zm-2,1.5l-1.4,1l.6,.9l1.5,-1l-.7,-.9Zm-2,1.4l-1.4,.9l.6,.9l1.4,-.9l-.6,-.9Zm-2.1,1.3l-.3,.2l-.9,.6l-.2,.1l.6,1l.1,-.2h.1l.9,-.5l.3,-.3l-.6,-.9Zm-2,1.3l-.8,.4l-.7,.4l.5,1l.8,-.4v-.1l.7,-.4l-.5,-.9Zm-2.2,1.2l-1,.5l-.5,.3l.5,.9l.5,-.2l1,-.6l-.5,-.9Zm-2.2,1.1l-1.3,.6l-.2,.1l.5,1l.1,-.1h.1l1.3,-.6l-.5,-1Zm-2.2,1l-1.5,.7l.4,1l1.6,-.7l-.5,-1Zm-2.2,1l-.4,.2v-.1l-1.2,.5l.4,1.1l1.2,-.5h.1l.3,-.2l-.4,-1Zm-2.3,.9l-1.6,.6l.4,1l1.6,-.6l-.4,-1Zm-2.3,.8l-1.6,.5l.3,1.1l1.7,-.5l-.4,-1.1Zm-2.3,.8l-.6,.1l-1.1,.3l.3,1.1l1.1,-.3l.6,-.2l-.3,-1Zm-2.4,.6v.1l-1.6,.4l.2,1l1.7,-.4l-.3,-1.1Zm-2.3,.6l-.2,.1l-1.5,.3l.2,1.1l1.5,-.4h.2l-.2,-1.1Zm-2.4,.5l-.3,.1l-1.4,.2l.2,1.1l1.4,-.2l.3,-.1l-.2,-1.1Zm-2.4,.5h-.4l-1.3,.2l.1,1.1l1.4,-.2l.4,-.1l-.2,-1Zm-2.5,.3l-.3,.1h-.5l-.8,.1l.1,1.1l1.3,-.1l.4,-.1l-.2,-1.1Zm-2.4,.3h-.4l-1.3,.1l.1,1.1l1.3,-.1h.4l-.1,-1.1Zm-2.4,.2h-1.7v1.1h1.8l-.1,-1.1Zm-2.5,.1H326V733h1.8l-.1,-1.1Zm-2.4,0h-1.7V733h1.7v-1.1Zm-2.5,-.1h-1.7v1.1h1.7v-1.1Zm-2.4,-.1h-.6l-1.1,-.1l-.1,1.1l1.1,.1h.6l.1,-1.1Zm-2.4,-.2l-.7,-.1h-.1l-1.6,-.2l-.1,1.1l1.6,.2h.1l.7,.1l.1,-1.1Z" class="g9_348"/>
<path d="M177,782.3h.7V534.2H177Z" class="g9_348"/>
<path d="M424.3,782.3h.8V534.2h-.8Z" class="g9_348"/>
<path d="M177,782.3H425.1v-.7H177Z" class="g9_348"/>
<path d="M177,535H425.1v-.8H177Z" class="g9_348"/>
<path d="M441.3,781.9h12.3V534.6H441.3Z" class="g0_348"/>
<path d="M441.3,781.9h12.3V757.2H441.3Z" class="gc_348"/>
<path d="M441.3,757.2h12.3V732.5H441.3Z" class="gd_348"/>
<path d="M441.3,732.5h12.3V707.7H441.3Z" class="g1_348"/>
<path d="M441.3,707.7h12.3V683H441.3Z" class="g2_348"/>
<path d="M441.3,683h12.3V658.3H441.3Z" class="g3_348"/>
<path d="M441.3,658.3h12.3V633.5H441.3Z" class="g4_348"/>
<path d="M441.3,633.5h12.3V608.8H441.3Z" class="g5_348"/>
<path d="M441.3,608.8h12.3V584H441.3Z" class="g6_348"/>
<path d="M441.3,584h12.3V559.3H441.3Z" class="g7_348"/>
<path d="M441.3,559.3h12.3V534.6H441.3Z" class="g8_348"/>
<path d="M453.6,757.6h3.3v-.8h-3.3Z" class="g9_348"/>
<path d="M461.1,758.2H467v-.8h-5.9Z" class="g9_348"/>
<path d="M469.6,755.7c0,.3,.2,.6,.4,.8c.2,.2,.5,.3,.9,.3c.4,0,.7,-.1,.9,-.3c.2,-.2,.4,-.5,.4,-.8c0,-.4,-.2,-.7,-.4,-.9c-.2,-.2,-.5,-.2,-.9,-.2c-.4,0,-.7,0,-.9,.2c-.2,.2,-.4,.5,-.4,.9Zm.4,1.4c-.4,-.1,-.7,-.3,-.9,-.5c-.3,-.3,-.4,-.6,-.4,-1c0,-.6,.2,-1,.6,-1.3c.4,-.3,.9,-.5,1.6,-.5c.7,0,1.2,.2,1.6,.5c.4,.3,.6,.7,.6,1.3c0,.4,-.1,.7,-.4,1c-.2,.2,-.5,.4,-.9,.5c.5,.1,.8,.3,1.1,.6c.2,.3,.3,.7,.3,1.1c0,.7,-.2,1.2,-.6,1.5c-.4,.4,-1,.6,-1.7,.6c-.8,0,-1.3,-.2,-1.7,-.6c-.4,-.3,-.6,-.8,-.6,-1.5c0,-.4,.1,-.8,.3,-1.1c.3,-.3,.6,-.5,1.1,-.6Zm.9,.4c-.4,0,-.8,.1,-1,.4c-.3,.2,-.4,.5,-.4,.9c0,.4,.1,.7,.4,1c.2,.2,.6,.3,1,.3c.4,0,.8,-.1,1,-.3c.3,-.3,.4,-.6,.4,-1c0,-.4,-.1,-.7,-.4,-.9c-.2,-.3,-.6,-.4,-1,-.4Z" class="g9_348"/>
<path d="M453.6,708.1h3.3v-.8h-3.3Z" class="g9_348"/>
<path d="M461.1,708.7H467V708h-5.9Z" class="g9_348"/>
<path d="M471.2,704.5h1.2v4.4h.9v.8h-.9v1.6h-.9v-1.6h-3.1v-.9l2.8,-4.3Zm.3,.8l-2.4,3.6h2.4v-3.6Z" class="g9_348"/>
<path d="M453.6,658.6h3.3v-.7h-3.3Z" class="g9_348"/>
<path d="M463.1,654.9c.8,0,1.3,.3,1.7,.9c.4,.6,.7,1.5,.7,2.6c0,1.1,-.3,2,-.7,2.6c-.4,.6,-.9,.9,-1.7,.9c-.8,0,-1.3,-.3,-1.7,-.9c-.4,-.6,-.6,-1.5,-.6,-2.6c0,-1.1,.2,-2,.6,-2.6c.4,-.6,.9,-.9,1.7,-.9Zm0,.7c-.5,0,-.8,.2,-1.1,.7c-.2,.5,-.3,1.2,-.3,2.1c0,.9,.1,1.6,.3,2.1c.3,.5,.6,.7,1.1,.7c.5,0,.8,-.2,1.1,-.7c.2,-.5,.3,-1.2,.3,-2.1c0,-.9,-.1,-1.6,-.3,-2.1c-.3,-.5,-.6,-.7,-1.1,-.7Z" class="g9_348"/>
<path d="M453.6,609.2h3.3v-.8h-3.3Z" class="g9_348"/>
<path d="M463.4,605.5h1.2V610h.9v.7h-.9v1.6h-.9v-1.6h-3.1v-.9l2.8,-4.3Zm.3,.8l-2.3,3.7h2.3v-3.7Z" class="g9_348"/>
<path d="M453.6,559.7h3.3v-.8h-3.3Z" class="g9_348"/>
<path d="M461.9,557.8c0,.3,.1,.6,.3,.8c.2,.2,.5,.3,.9,.3c.4,0,.7,-.1,.9,-.3c.3,-.2,.4,-.5,.4,-.8c0,-.4,-.1,-.6,-.4,-.8c-.2,-.2,-.5,-.3,-.9,-.3c-.4,0,-.7,.1,-.9,.3c-.2,.2,-.3,.4,-.3,.8Zm.3,1.4c-.4,-.1,-.7,-.2,-.9,-.5c-.2,-.3,-.4,-.6,-.4,-1c0,-.5,.2,-1,.6,-1.3c.4,-.3,.9,-.5,1.6,-.5c.7,0,1.2,.2,1.6,.5c.4,.3,.6,.8,.6,1.3c0,.4,-.1,.7,-.4,1c-.2,.3,-.5,.4,-.9,.5c.5,.1,.8,.3,1.1,.6c.2,.3,.3,.7,.3,1.1c0,.7,-.2,1.2,-.6,1.5c-.4,.4,-.9,.6,-1.7,.6c-.7,0,-1.3,-.2,-1.7,-.6c-.4,-.3,-.6,-.8,-.6,-1.5c0,-.4,.1,-.8,.4,-1.1c.2,-.3,.5,-.5,1,-.6Zm.9,.4c-.4,0,-.8,.1,-1,.4c-.3,.2,-.4,.5,-.4,.9c0,.4,.1,.8,.4,1c.2,.2,.6,.3,1,.3c.4,0,.8,-.1,1,-.3c.3,-.2,.4,-.6,.4,-1c0,-.4,-.1,-.7,-.4,-.9c-.2,-.3,-.6,-.4,-1,-.4Z" class="g9_348"/>
<path d="M441.3,781.9v.4H454V534.2H440.9V782.3h.4v-.4h.4V535h11.6V781.5h-12v.4h.4h-.4Z" class="g9_348"/>
</svg>