<?xml version="1.0" encoding="UTF-8" standalone="no"?>
<!DOCTYPE svg PUBLIC "-//W3C//DTD SVG 1.1//EN"
"http://www.w3.org/Graphics/SVG/1.1/DTD/svg11.dtd">
<svg viewBox="0 0 811 1017" version="1.1" xmlns="http://www.w3.org/2000/svg" xmlns:xlink="http://www.w3.org/1999/xlink">
<defs>
<clipPath id="c0_196"><path d="M107.7,274.2V83.4H298.5V274.2Z"/></clipPath>
<clipPath id="c1_196"><path d="M313.7,274.2V83.4H504.5V274.2Z"/></clipPath>
<clipPath id="c2_196"><path d="M519.8,274.2V83.4H710.6V274.2Z"/></clipPath>
<clipPath id="c3_196"><path d="M142.4,697.2V422.1h275V697.2Z"/></clipPath>
<style type="text/css"><![CDATA[
.g0_196{
fill: #0E0E0E;
}
]]></style>
</defs>
<image clip-path="url(#c0_196)" preserveAspectRatio="none" x="108" y="83" width="191" height="191" xlink:href="img/1.jpg"/>
<image clip-path="url(#c1_196)" preserveAspectRatio="none" x="314" y="83" width="191" height="191" xlink:href="img/2.jpg"/>
<image clip-path="url(#c2_196)" preserveAspectRatio="none" x="520" y="83" width="191" height="191" xlink:href="img/3.jpg"/>
<image clip-path="url(#c3_196)" preserveAspectRatio="none" x="142" y="422" width="275" height="275" xlink:href="img/4.jpg"/>
<path d="M366,806.9l-.4,.5c-.3,-.3,-.6,-.5,-.9,-.6c-.4,-.2,-.7,-.2,-1.2,-.2c-.4,0,-.8,0,-1.2,.2c-.4,.1,-.7,.3,-1,.6c-.3,.2,-.5,.5,-.7,.9c-.1,.3,-.2,.7,-.2,1.1c0,.4,.1,.7,.3,1.1c.2,.3,.4,.5,.7,.8c.2,.3,.5,.5,.9,.8c.3,.2,.6,.4,.9,.7c.3,.2,.5,.5,.7,.8c.2,.3,.3,.6,.3,1c0,1.2,-.7,2.2,-2.2,2.2c-1.6,0,-2.4,-1.6,-2.5,-3.2h-.3l-.6,3.4h.3l.5,-1c.7,.8,1.6,1.2,2.5,1.2c.5,0,1,-.1,1.4,-.3c.4,-.2,.7,-.4,1,-.7c.4,-.3,.6,-.7,.8,-1c.2,-.4,.3,-.9,.3,-1.3c0,-.5,-.1,-.9,-.3,-1.2c-.2,-.4,-.4,-.7,-.7,-.9c-.3,-.3,-.6,-.5,-.9,-.8c-.3,-.2,-.6,-.4,-.9,-.6c-.2,-.2,-.5,-.5,-.6,-.7c-.2,-.3,-.3,-.6,-.3,-.9c0,-1,.4,-1.9,1.9,-1.9c1.3,0,1.8,1.3,1.8,2.6h.3l.6,-2.6H366Z" class="g0_196"/>
<path d="M367,816.8v.2h8.4l1,-2.8H376c-.5,1.1,-1.2,2.1,-2.6,2.4c-.3,.1,-.8,.1,-1.3,.1c-.7,0,-1.2,-.1,-1.5,-.2c-.2,-.2,-.4,-.6,-.4,-.9c0,-.2,0,-.5,.1,-.8l.8,-3.1h1c.9,0,1.1,.4,1.1,1.3c0,.2,0,.4,-.1,.7h.4l.8,-4H374c-.2,.3,-.3,.6,-.4,.8c-.3,.5,-.7,.9,-1.5,.9h-.9l1.1,-4.4h1.8c.3,0,.5,0,.7,.1c.9,.3,1.4,1.3,1.7,2.3h.3v-2.7h-7.3l-.1,.2c.5,0,.8,.1,1,.2c.2,.1,.3,.4,.3,.7c0,.1,0,.3,0,.5c-.1,.1,-.1,.3,-.2,.5l-1.6,6.2c-.1,.4,-.2,.6,-.3,.8c-.1,.4,-.4,.7,-.8,.8c-.2,.1,-.5,.2,-.8,.2Z" class="g0_196"/>
<path d="M382.6,815.1h7.6v-.8h-7.6Zm0,-3h7.6v-.8h-7.6Z" class="g0_196"/>
<path d="M405.9,798.8h.2l1.6,-6c.1,-.2,.1,-.3,.2,-.5c.1,-.2,.4,-.7,.6,-.8c.1,-.1,.4,-.1,.5,-.1v-.2h-2.2l-.1,.2c.3,0,.5,.1,.6,.2c.2,.2,.2,.6,.2,.9c0,.1,0,.2,0,.4l-1.1,3.9v.2l-2.5,-5.8h-2l-.1,.2c.5,0,.6,0,.8,.2c.2,.2,.4,.7,.4,1c0,.1,0,.2,-.1,.3l-1.2,4.4c0,.3,-.3,.7,-.5,.9c-.3,.3,-.7,.4,-1,.4v.2H403v-.2c-.3,0,-.6,0,-.7,-.2c-.2,-.2,-.3,-.5,-.3,-.8c0,-.1,0,-.2,0,-.4l1.1,-4.3l.1,-.2l2.7,6.1Z" class="g0_196"/>
<path d="M413.5,818.1h-.4c-.5,3.3,-1.8,5,-3.6,5H398.2l8.1,-10.4l-6.9,-10.2h9.3c1.9,0,2.9,1.1,3.5,4.4h.3l-.1,-5.1H396.8l7.9,11.4l-9,11.4h17.5l.3,-6.5Z" class="g0_196"/>
<path d="M399.7,828c0,-.3,-.2,-.5,-.5,-.5c-.3,0,-.6,.2,-.6,.5c0,.3,.3,.6,.6,.6c.2,0,.5,-.3,.5,-.6Zm-2,6.8c.9,0,1.4,-.8,1.7,-1.4l-.2,-.1c-.1,.2,-.5,1,-1,1c-.1,0,-.2,-.1,-.2,-.2c0,-.3,.1,-.7,.2,-.8l.7,-2.1c.1,-.3,.1,-.4,.1,-.6c0,-.3,0,-.6,-.3,-.6c-.7,0,-1.5,.8,-1.8,1.3l.3,.2c.1,-.3,.5,-.9,.8,-.9c.1,0,.2,.2,.2,.3c0,.2,-.1,.5,-.2,.6l-.7,2.1c-.1,.3,-.1,.5,-.1,.6c0,.4,.1,.6,.5,.6Z" class="g0_196"/>
<path d="M400.9,833.4h5.6v-.7h-5.6Zm0,-2.3h5.6v-.6h-5.6Z" class="g0_196"/>
<path d="M408.4,827.6v.2c.3,0,.8,0,.9,.1c.4,.2,.3,.3,.4,.8v4.7c0,.3,0,.5,-.1,.6c0,.5,-.6,.5,-1.2,.6v.1h3.5v-.1c-.4,0,-1,-.1,-1.1,-.3c-.2,-.2,-.2,-.5,-.2,-.9v-6.3c-.6,.3,-1.5,.5,-2.2,.5Z" class="g0_196"/>
<path d="M422.4,806.3c-2.2,1.4,-3.7,3.8,-3.7,6.9c0,2.7,1.6,5.5,3.6,6.8l.2,-.2c-2,-1.6,-2.5,-3.4,-2.5,-6.7c0,-3.3,.6,-5,2.5,-6.5l-.1,-.3Z" class="g0_196"/>
<path d="M424.3,819.8c-.3,0,-.4,-.2,-.5,-.4c-.1,-.3,-.2,-.6,-.5,-.6c-.2,0,-.4,.2,-.4,.4c0,.7,.8,.9,1.3,.9c.8,0,.9,-.2,1.3,-.7c.2,-.3,.4,-.7,.6,-1.3c.2,-.5,.5,-1.1,.7,-2l1.3,-5.1h1.3l.1,-.3h-1.3c.4,-1.2,.8,-3.2,1.2,-3.8c.1,-.2,.3,-.5,.7,-.5c.3,0,.4,.2,.5,.5c.1,.2,.2,.5,.5,.5c.3,0,.4,-.2,.4,-.4c0,-.6,-.8,-.9,-1.3,-.9c-1.8,0,-2.5,3,-3,4.6H426l-.1,.3h1.3l-2,7.4c-.1,.3,-.4,1.4,-.9,1.4Z" class="g0_196"/>
<path d="M437.2,806.4c-2.1,1.4,-3.6,3.8,-3.6,6.8c0,2.8,1.5,5.6,3.6,6.8l.2,-.2c-2,-1.6,-2.6,-3.4,-2.6,-6.6c0,-3.3,.7,-5.1,2.6,-6.6l-.2,-.2Z" class="g0_196"/>
<path d="M445.6,811.5c0,-.5,-.4,-1,-1,-1c-.3,0,-.6,.2,-.9,.4c-.3,.2,-.7,.5,-.9,.9c0,-.7,-.4,-1.3,-1,-1.3c-1.2,0,-2.1,1.2,-2.5,2l.2,.1c.4,-.5,1.1,-1.7,2,-1.7c.3,0,.4,.6,.4,1c0,.3,-.1,.7,-.2,1.2l-.4,1.1c-.1,.6,-.4,1.4,-.7,1.8c-.1,.3,-.4,.7,-.8,.7c-.4,0,-.7,-.1,-.6,-.5c.1,-.3,0,-.8,-.4,-.8c-.4,0,-.6,.4,-.6,.8c0,.6,.5,.9,1,.9c1,0,1.8,-.7,2.2,-1.4c.1,.8,.5,1.4,1.3,1.4c1.2,0,2,-1.1,2.5,-1.8l-.2,-.2c-.5,.7,-1.2,1.7,-2,1.7c-.4,0,-.6,-.6,-.6,-1.2c0,-.4,0,-.8,.1,-1.4l.2,-.7c.1,-.6,.4,-1.2,.7,-1.6c.1,-.3,.5,-1,.9,-1c.4,0,.4,.3,.3,.7c0,.4,.2,.5,.5,.5c.4,0,.5,-.3,.5,-.6Z" class="g0_196"/>
<path d="M448.7,812.6c0,-.3,-.2,-.6,-.5,-.6c-.3,0,-.6,.2,-.6,.6c0,.3,.3,.5,.6,.5c.3,0,.5,-.3,.5,-.5Zm-2,6.7c.9,0,1.5,-.8,1.7,-1.4l-.2,-.1c-.1,.3,-.5,1.1,-1,1.1c-.1,0,-.2,-.2,-.2,-.3c0,-.2,.1,-.6,.2,-.8l.7,-2.1c.1,-.3,.2,-.4,.2,-.6c0,-.3,0,-.6,-.4,-.6c-.7,0,-1.5,.8,-1.7,1.4l.2,.1c.1,-.2,.5,-.8,.8,-.8c.2,0,.2,.1,.2,.2c0,.2,-.1,.5,-.2,.7l-.7,2c-.1,.3,-.1,.5,-.1,.7c0,.3,.1,.5,.5,.5Z" class="g0_196"/>
<path d="M450.8,806.4l-.1,.2c1.9,1.5,2.5,3.3,2.5,6.6c0,3.2,-.5,5,-2.5,6.6l.2,.2c2,-1.2,3.6,-4,3.6,-6.8c0,-3,-1.5,-5.4,-3.7,-6.8Z" class="g0_196"/>
<path d="M460.2,813.6h7.6v-.8h-7.6Z" class="g0_196"/>
<path d="M471.1,819.2c0,.6,.4,.9,1.1,.9c.4,0,.8,-.1,1.2,-.5c.9,-.7,2.1,-2.3,2.9,-3.5c.3,-.6,.7,-1.2,1,-1.8c.4,-.7,1.1,-2.1,1.1,-2.9c0,-.2,0,-.4,-.1,-.6c-.1,-.2,-.3,-.3,-.5,-.3c-.2,0,-.3,.1,-.4,.2c-.2,.2,-.3,.4,-.3,.7c0,.4,.3,.9,.3,1.3c0,.6,-.3,1.1,-.5,1.6c-.2,.5,-.4,.9,-.8,1.4H476l-.3,-1.9c-.1,-.6,-.3,-1.6,-.4,-2.1c-.2,-.6,-.4,-1.2,-1.3,-1.2c-1.2,0,-1.4,1.8,-1.7,2.6l.4,.1c.1,-.6,.5,-2.3,1,-2.3c.3,0,.5,1,.5,1.2c.1,.3,.2,.7,.3,1.4l.6,3.5c-.3,.8,-1.2,1.7,-1.8,2.2c-.2,.2,-.5,.2,-.7,.2c-.1,0,-.2,0,-.2,-.1c-.2,-.3,-.2,-.8,-.7,-.8c-.4,0,-.6,.3,-.6,.7Z" class="g0_196"/>
<path d="M481.6,812.6c0,-.3,-.3,-.6,-.6,-.6c-.3,0,-.5,.2,-.5,.6c0,.3,.2,.5,.5,.5c.3,0,.6,-.3,.6,-.5Zm-2.1,6.7c1,0,1.5,-.8,1.8,-1.4l-.2,-.1c-.2,.3,-.6,1.1,-1,1.1c-.1,0,-.3,-.2,-.3,-.3c0,-.2,.2,-.6,.2,-.8l.8,-2.1c.1,-.3,.1,-.4,.1,-.6c0,-.3,0,-.6,-.4,-.6c-.6,0,-1.5,.8,-1.7,1.4l.2,.1c.2,-.2,.6,-.8,.8,-.8c.2,0,.2,.1,.2,.2c.1,.2,0,.5,-.1,.7l-.7,2c-.1,.3,-.2,.5,-.2,.7c0,.3,.2,.5,.5,.5Z" class="g0_196"/>
<path d="M483.7,806.3l-.2,.3c2,1.5,2.6,3.2,2.6,6.5c0,3.3,-.6,5.1,-2.6,6.7l.2,.2c2.1,-1.3,3.6,-4.1,3.6,-6.8c0,-3.1,-1.5,-5.5,-3.6,-6.9Z" class="g0_196"/>
<path d="M491.4,806c-.6,0,-1,-.5,-1,-1.2c0,-.8,.4,-1.6,1.3,-1.6c1.2,0,1.3,1,1.3,1.9c0,.9,-.3,1.5,-.7,2.1c-.3,.4,-.7,.9,-1.1,1.4c-.5,.5,-1.1,1.1,-1.9,1.7v.3h4.6l.3,-1.9v-.1H494c-.1,.2,-.2,.4,-.3,.5c-.1,.4,-.5,.6,-1,.6h-2.1v-.1c.5,-.3,1,-.7,1.4,-1c.7,-.7,1.5,-1.4,1.9,-2.3c.2,-.4,.3,-.8,.3,-1.2c0,-.3,-.1,-.6,-.2,-.8c-.3,-.8,-1.1,-1.3,-2.2,-1.3c-.7,0,-1.3,.2,-1.7,.6c-.4,.3,-.7,.8,-.7,1.4c0,.5,.2,.8,.4,1.1c.2,.2,.5,.4,.9,.4c.4,0,.7,-.2,.7,-.5Z" class="g0_196"/>
</svg>