<?xml version="1.0" encoding="UTF-8" standalone="no"?>
<!DOCTYPE svg PUBLIC "-//W3C//DTD SVG 1.1//EN"
"http://www.w3.org/Graphics/SVG/1.1/DTD/svg11.dtd">
<svg viewBox="0 0 811 1017" version="1.1" xmlns="http://www.w3.org/2000/svg" xmlns:xlink="http://www.w3.org/1999/xlink">
<defs>
<style type="text/css"><![CDATA[
.g0_40{
fill: #0E0E0E;
}
]]></style>
</defs>
<path d="M204.1,132h-1.2v-8.5h1.2Zm-1.9,.6h2.5v-4h1.1l2.9,4h3.1l-3.2,-4.2c1.3,-.4,1.9,-1.4,1.9,-2.7c0,-2.1,-1.6,-2.9,-3.5,-2.9h-4.8v9.8Zm8.3,-.6h-1.4l-2.5,-3.4c.4,0,.9,0,1.3,0l2.6,3.4Zm-2.7,-4.1c-.2,0,-.5,.1,-.8,.1h-2.3v-4.5h2.4c.2,0,.5,0,.7,.1v4.3Zm.7,-4.2c.9,.4,1.4,1,1.4,2c0,1,-.5,1.8,-1.4,2.2v-4.2Z" class="g0_40"/>
</svg>