<?xml version="1.0" encoding="UTF-8" standalone="no"?>
<!DOCTYPE svg PUBLIC "-//W3C//DTD SVG 1.1//EN"
"http://www.w3.org/Graphics/SVG/1.1/DTD/svg11.dtd">
<svg viewBox="0 0 811 1017" version="1.1" xmlns="http://www.w3.org/2000/svg" xmlns:xlink="http://www.w3.org/1999/xlink">
<defs>
<style type="text/css"><![CDATA[
.g0_128{
fill: #000;
}
.g1_128{
fill: #0E0E0E;
}
]]></style>
</defs>
<path d="M426.5,922.3h.4V852.9h-.4Z" class="g0_128"/>
<path d="M142.4,853.6H711v-.7H142.4Z" class="g0_128"/>
<path d="M142.4,922.3H711v-.4H142.4Z" class="g0_128"/>
<path d="M410.1,410.6c0,-.5,-.5,-1,-1,-1c-.3,0,-.7,.2,-1,.4c-.3,.2,-.6,.5,-.8,.9c0,-.7,-.4,-1.3,-1.1,-1.3c-1.1,0,-2.1,1.2,-2.4,2l.2,.1c.3,-.5,1.1,-1.7,2,-1.7c.2,0,.3,.6,.3,1c0,.3,0,.7,-.2,1.1l-.3,1.2c-.2,.6,-.4,1.4,-.7,1.8c-.2,.3,-.4,.7,-.8,.7c-.4,0,-.7,-.1,-.6,-.5c0,-.3,0,-.8,-.4,-.8c-.5,0,-.7,.4,-.7,.8c0,.6,.5,.9,1.1,.9c1,0,1.7,-.7,2.1,-1.4c.1,.8,.5,1.4,1.4,1.4c1.2,0,2,-1.1,2.4,-1.8l-.2,-.2c-.5,.7,-1.1,1.7,-1.9,1.7c-.5,0,-.7,-.6,-.7,-1.2c0,-.4,.1,-.8,.2,-1.4l.2,-.7c.1,-.6,.3,-1.2,.6,-1.6c.2,-.3,.6,-1,.9,-1c.5,0,.4,.3,.4,.6c0,.5,.1,.6,.5,.6c.3,0,.5,-.3,.5,-.6Z" class="g1_128"/>
<path d="M413.1,413.9c.2,0,.4,.2,.4,.4c0,1,-1.2,1.7,-2.1,2c.2,-.8,.8,-2.4,1.7,-2.4Zm.1,-.3c-.8,0,-1.4,.6,-1.9,1.1c-.4,.6,-.8,1.4,-.8,2.3c0,.9,.3,1.4,1.2,1.4c.7,0,1.4,-.5,1.9,-1.2l-.2,-.1c-.3,.4,-.9,1.1,-1.5,1.1c-.4,0,-.6,-.4,-.6,-1c0,-.2,0,-.5,0,-.7c1.1,-.2,2.9,-.9,2.9,-2.1c0,-.5,-.5,-.8,-1,-.8Z" class="g1_128"/>
<path d="M420.1,414.2h7.6v-.8h-7.6Zm0,-3h7.6v-.8h-7.6Z" class="g1_128"/>
<path d="M442.7,399.4c0,-.5,-.5,-1,-1,-1c-.3,0,-.6,.2,-1,.4c-.3,.2,-.6,.5,-.8,.9c0,-.7,-.4,-1.3,-1.1,-1.3c-1.1,0,-2.1,1.2,-2.4,2l.2,.1c.4,-.5,1.1,-1.7,2,-1.7c.3,0,.4,.6,.4,1c0,.3,-.1,.7,-.2,1.1l-.4,1.2c-.1,.6,-.4,1.4,-.7,1.8c-.2,.3,-.4,.7,-.8,.7c-.4,0,-.7,-.1,-.6,-.5c.1,-.3,0,-.8,-.4,-.8c-.5,0,-.6,.4,-.6,.8c0,.6,.4,.9,1,.9c1,0,1.8,-.7,2.1,-1.4h.1c.1,.8,.5,1.4,1.3,1.4c1.2,0,2,-1.1,2.5,-1.8l-.2,-.2c-.5,.7,-1.2,1.7,-2,1.7c-.4,0,-.7,-.6,-.7,-1.2c0,-.4,.1,-.8,.2,-1.4l.2,-.7c.1,-.6,.4,-1.2,.6,-1.6c.2,-.3,.6,-1,1,-1c.4,0,.4,.3,.3,.6c0,.4,.2,.6,.5,.6c.4,0,.5,-.3,.5,-.6Z" class="g1_128"/>
<path d="M446.8,404c0,.7,-.3,1.4,-.7,1.8c-.4,.4,-1.1,.8,-1.7,1l1.1,-4.1c0,0,.1,0,.2,0c0,0,.1,0,.2,0c.7,0,.9,.7,.9,1.3Zm-2.1,-1l-1.6,5.8c-.1,.3,-.4,.4,-.9,.4v.1h2.5v-.1c-.4,0,-.9,0,-.9,-.4c0,-.1,.1,-.1,.1,-.2c0,0,0,-.1,0,-.2l.4,-1.4c.9,-.1,1.8,-.5,2.3,-1c.5,-.5,1,-1.1,1,-2c0,-1,-.6,-1.6,-1.5,-1.6c-.2,0,-.4,0,-.6,.1l.3,-1.2h-.6l-.4,1.4c-.3,.1,-.6,.3,-.9,.5c-.3,.2,-.5,.4,-.7,.7l.2,.1c.3,-.3,.8,-.7,1.3,-1Z" class="g1_128"/>
<path d="M434.3,412.7h15.9v-.8H434.3Z" class="g1_128"/>
<path d="M439.6,423.9c-.1,-.4,-.2,-.9,-.2,-1.1c0,-.3,0,-.5,.1,-.7c.1,-.4,.3,-1.6,.7,-1.6c.3,0,.3,.6,.3,.9c0,.8,-.6,1.9,-.9,2.5Zm-2.8,-3c0,0,-1.7,2.3,-1.7,3.9c0,.9,.5,1.7,1.4,1.7c1.1,0,1.8,-.7,2.3,-1.3c.2,.7,.6,1.3,1.5,1.3c2.1,0,3.4,-4.1,3.5,-5.4c0,-.7,-.1,-1.2,-.8,-1.2c-.4,0,-.6,.2,-.6,.7c0,.6,.5,1.2,.5,1.9c0,1.1,-1.1,3.5,-2.3,3.5c-.6,0,-.9,-1.2,-1,-1.7c.5,-.7,.9,-1.4,1.1,-1.9c.2,-.6,.3,-1.1,.3,-1.5c0,-.6,-.2,-1,-.7,-1c-.2,0,-.4,.1,-.6,.3c-.6,.6,-1.1,1.9,-1.1,3.2c0,.1,0,.3,0,.5c0,.1,.1,.7,.1,.9c-.3,.4,-.6,.7,-.9,.9c-.3,.2,-.6,.3,-.8,.3c-.6,0,-.7,-.6,-.7,-1.2c0,-1.8,.5,-3.1,1.2,-4.2c.1,-.2,.5,-.5,.5,-.6c0,0,-.1,-.1,-.2,-.1q-.1,0,-.2,.1c-.1,0,-.2,.1,-.3,.3c-.2,.1,-.3,.2,-.5,.2c-.2,0,-.4,-.1,-.6,-.3c-.2,-.2,-.3,-.3,-.7,-.3c-.6,0,-1.3,.5,-1.3,1.1c0,.4,.3,.5,.6,.5c.3,0,.4,-.1,.4,-.5c0,-.2,-.2,-.2,-.2,-.3c0,-.1,0,-.3,.2,-.3c.4,0,.6,.4,.8,.5c.2,.1,.3,.1,.6,0h.2Z" class="g1_128"/>
<path d="M448,425.5c0,.6,-.3,1.4,-.7,1.8c-.4,.4,-1.1,.8,-1.7,.9l1.1,-4c0,0,.1,0,.2,0q.1,-.1,.2,-.1c.7,0,.9,.7,.9,1.4Zm-2.1,-1l-1.6,5.7c-.1,.4,-.4,.4,-.9,.4v.2h2.5v-.2c-.4,0,-.8,0,-.8,-.4c0,0,0,-.1,0,-.1c0,-.1,0,-.2,0,-.3l.4,-1.4c.9,-.1,1.8,-.5,2.3,-1c.6,-.5,1.1,-1.1,1.1,-2c0,-1,-.6,-1.5,-1.6,-1.5c-.2,0,-.4,0,-.6,0l.3,-1.1h-.6l-.4,1.3c-.3,.1,-.6,.3,-.9,.5c-.3,.2,-.5,.5,-.7,.7l.2,.2c.3,-.4,.8,-.8,1.3,-1Z" class="g1_128"/>
<path d="M402.6,467.7c0,.6,.5,1,1.1,1c.5,0,.8,-.2,1.3,-.6c.8,-.7,2.1,-2.3,2.8,-3.5c.4,-.6,.8,-1.2,1.1,-1.8c.4,-.7,1.1,-2.1,1.1,-2.9c0,-.2,-.1,-.4,-.2,-.6c0,-.2,-.2,-.2,-.4,-.2c-.2,0,-.3,0,-.5,.2c-.1,.1,-.2,.3,-.2,.6c0,.4,.2,.9,.2,1.3c0,.6,-.2,1.2,-.4,1.6c-.3,.5,-.5,.9,-.8,1.4h-.1l-.3,-1.9c-.1,-.5,-.3,-1.6,-.4,-2c-.2,-.7,-.4,-1.2,-1.4,-1.2c-1.1,0,-1.3,1.7,-1.6,2.5l.3,.1c.2,-.6,.6,-2.3,1.1,-2.3c.3,0,.5,1,.5,1.3c.1,.3,.2,.7,.3,1.3l.6,3.5c-.4,.8,-1.2,1.7,-1.8,2.2c-.2,.2,-.6,.2,-.7,.2c-.1,0,-.2,0,-.3,-.1c-.2,-.3,-.2,-.8,-.6,-.8c-.4,0,-.7,.3,-.7,.7Z" class="g1_128"/>
<path d="M413.1,463.3c.2,0,.4,.2,.4,.4c0,1,-1.2,1.7,-2.2,2c.2,-.8,.9,-2.4,1.8,-2.4Zm.1,-.3c-.8,0,-1.5,.6,-1.9,1.1c-.5,.6,-.8,1.4,-.8,2.3c0,.9,.3,1.5,1.1,1.5c.8,0,1.5,-.6,1.9,-1.3l-.2,-.1c-.2,.4,-.8,1.1,-1.4,1.1c-.5,0,-.7,-.4,-.7,-1c0,-.2,.1,-.5,.1,-.7c1.1,-.2,2.9,-.9,2.9,-2.1c0,-.5,-.5,-.8,-1,-.8Z" class="g1_128"/>
<path d="M420.1,463.6h7.6v-.8h-7.6Zm0,-3h7.6v-.8h-7.6Z" class="g1_128"/>
<path d="M434.8,456.5c0,.6,.5,1,1.1,1c.5,0,.8,-.2,1.3,-.6c.8,-.7,2.1,-2.3,2.8,-3.5c.4,-.6,.8,-1.2,1.1,-1.8c.4,-.7,1.1,-2.1,1.1,-2.9c0,-.2,-.1,-.4,-.2,-.6c0,-.2,-.2,-.2,-.4,-.2c-.2,0,-.3,0,-.5,.2c-.1,.1,-.2,.3,-.2,.6c0,.4,.3,.9,.3,1.3c0,.6,-.3,1.2,-.5,1.6c-.2,.5,-.5,.9,-.8,1.4h-.1l-.3,-1.9c-.1,-.5,-.3,-1.6,-.4,-2c-.2,-.7,-.4,-1.2,-1.4,-1.2c-1.1,0,-1.3,1.7,-1.6,2.5l.3,.1c.2,-.6,.6,-2.3,1.1,-2.3c.3,0,.5,1,.5,1.3c.1,.3,.2,.7,.3,1.3l.6,3.5c-.4,.8,-1.2,1.7,-1.8,2.2c-.2,.2,-.6,.2,-.7,.2c-.1,0,-.2,0,-.3,-.1c-.2,-.3,-.2,-.8,-.6,-.8c-.4,0,-.7,.3,-.7,.7Z" class="g1_128"/>
<path d="M446.4,453.4c0,.7,-.4,1.5,-.8,1.8c-.4,.4,-1,.9,-1.7,1l1.1,-4c.1,0,.1,-.1,.2,-.1c.1,0,.2,0,.2,0c.7,0,1,.7,1,1.3Zm-2.2,-1l-1.6,5.8c-.1,.3,-.4,.4,-.8,.4l-.1,.2h2.5l.1,-.2c-.5,0,-.9,0,-.9,-.4c0,0,0,-.1,0,-.2c0,0,0,-.1,.1,-.2l.4,-1.4c.9,-.1,1.7,-.5,2.3,-1c.5,-.5,1,-1.1,1,-2c0,-1,-.6,-1.6,-1.6,-1.6c-.2,0,-.4,.1,-.5,.1l.3,-1.2h-.7l-.4,1.4c-.3,.1,-.6,.3,-.9,.5c-.2,.2,-.4,.4,-.7,.7l.2,.2c.4,-.4,.9,-.8,1.3,-1.1Z" class="g1_128"/>
<path d="M434.2,462.1h16v-.8h-16Z" class="g1_128"/>
<path d="M439.5,473.3c0,-.3,-.1,-.9,-.1,-1.1c0,-.3,0,-.5,.1,-.7c0,-.4,.3,-1.6,.7,-1.6c.2,0,.2,.6,.2,.9c0,.8,-.6,1.9,-.9,2.5Zm-2.8,-3c0,0,-1.6,2.3,-1.6,4c0,.8,.5,1.6,1.4,1.6c1,0,1.7,-.6,2.3,-1.3c.2,.7,.6,1.3,1.4,1.3c2.2,0,3.5,-4.1,3.5,-5.4c0,-.7,-.1,-1.2,-.7,-1.2c-.4,0,-.6,.2,-.6,.7c0,.6,.4,1.2,.4,2c0,1,-1.1,3.5,-2.3,3.5c-.6,0,-.8,-1.2,-.9,-1.8c.4,-.7,.8,-1.4,1,-1.9c.3,-.6,.4,-1.1,.4,-1.5c0,-.6,-.2,-1,-.7,-1c-.2,0,-.4,.1,-.6,.3c-.7,.6,-1.1,1.9,-1.1,3.2c0,.1,0,.3,0,.5c0,.2,.1,.7,.1,.9c-.3,.4,-.7,.7,-1,.9c-.3,.2,-.5,.3,-.7,.3c-.6,0,-.8,-.6,-.8,-1.2c0,-1.7,.6,-3.1,1.3,-4.2c.1,-.2,.4,-.5,.4,-.6c0,0,0,-.1,-.1,-.1c-.1,0,-.2,.1,-.2,.1c-.1,0,-.2,.1,-.4,.3c-.1,.1,-.2,.2,-.4,.2c-.3,0,-.4,-.1,-.6,-.3c-.2,-.2,-.4,-.3,-.7,-.3c-.6,0,-1.3,.5,-1.3,1.1c0,.4,.3,.5,.5,.5c.3,0,.5,-.1,.5,-.4c0,-.2,-.3,-.3,-.3,-.4c0,-.1,.1,-.2,.3,-.2c.4,0,.6,.3,.8,.4c.1,.1,.2,.1,.5,0h.2Z" class="g1_128"/>
<path d="M448,474.9c0,.6,-.3,1.4,-.7,1.8c-.4,.4,-1.1,.8,-1.7,.9l1,-4c.1,0,.2,0,.2,0c.1,0,.2,0,.3,0c.7,0,.9,.6,.9,1.3Zm-2.2,-1l-1.5,5.7c-.1,.4,-.4,.4,-.9,.4v.2h2.5V480c-.5,0,-.9,0,-.9,-.4c0,0,0,-.1,0,-.1c.1,-.1,.1,-.2,.1,-.2l.4,-1.4c.9,-.2,1.7,-.6,2.3,-1.1c.5,-.4,1,-1.1,1,-2c0,-1,-.6,-1.5,-1.6,-1.5c-.2,0,-.3,0,-.5,0l.3,-1.1h-.7l-.4,1.3c-.3,.2,-.6,.4,-.8,.6c-.3,.2,-.5,.4,-.7,.6l.2,.2c.3,-.4,.8,-.8,1.2,-1Z" class="g1_128"/>
</svg>