<?xml version="1.0" encoding="UTF-8" standalone="no"?>
<!DOCTYPE svg PUBLIC "-//W3C//DTD SVG 1.1//EN"
"http://www.w3.org/Graphics/SVG/1.1/DTD/svg11.dtd">
<svg viewBox="0 0 811 1017" version="1.1" xmlns="http://www.w3.org/2000/svg" xmlns:xlink="http://www.w3.org/1999/xlink">
<defs>
<clipPath id="c0_130"><path d="M368.5,752.4V711.1H484.6v41.3Z"/></clipPath>
<style type="text/css"><![CDATA[
.g0_130{
fill: #F7F5E8;
}
.g1_130{
fill: #0E0E0E;
}
]]></style>
</defs>
<path d="M142.4,920.5H710.7v-566H142.4Z" class="g0_130"/>
<path d="M381.5,687.2c-.4,0,-.8,.1,-1.3,.4c-.4,.3,-.8,.7,-1.2,1.2c-.7,.8,-1.3,2,-1.3,3.2c0,1,.4,1.8,1.3,1.8c1.3,0,1.8,-.9,2.2,-1.6c-.2,.9,0,1.6,.6,1.6c.4,0,.7,-.2,1.1,-.5c.4,-.3,.8,-.8,1.1,-1.4l-.2,-.1c-.3,.4,-.9,1.3,-1.3,1.3c-.2,0,-.3,-.3,-.3,-.5c0,-.9,.6,-2.5,.9,-3.4l.7,-1.9h-1l-.2,.7c-.2,-.5,-.5,-.8,-1.1,-.8Zm.2,.3c.7,0,.5,1.3,.4,1.8c-.1,.4,-.2,.7,-.3,1c-.4,1.2,-1.4,3.1,-2.3,3.1c-.6,0,-.7,-.9,-.7,-1.4c0,-.4,0,-.9,.2,-1.3c.3,-1.1,1.4,-3.2,2.7,-3.2Z" class="g1_130"/>
<path d="M392.1,688.1c0,-.5,-.4,-.9,-1,-.9c-.3,0,-.6,.1,-.9,.3c-.3,.3,-.7,.6,-.9,.9c0,-.6,-.4,-1.2,-1,-1.2c-1.2,0,-2.1,1.2,-2.5,2l.2,.1c.4,-.5,1.1,-1.7,2,-1.7c.3,0,.4,.5,.4,.9c0,.3,-.1,.7,-.2,1.2l-.3,1.2c-.2,.6,-.4,1.3,-.8,1.7c-.1,.3,-.4,.7,-.7,.7c-.5,0,-.8,-.1,-.7,-.5c.1,-.3,0,-.7,-.4,-.7c-.4,0,-.6,.3,-.6,.8c0,.5,.5,.9,1,.9c1.1,0,1.8,-.8,2.2,-1.5v.1c.1,.8,.5,1.4,1.3,1.4c1.2,0,2.1,-1.2,2.5,-1.8l-.2,-.2c-.5,.6,-1.2,1.6,-2,1.6c-.4,0,-.6,-.6,-.6,-1.2c0,-.3,0,-.8,.2,-1.3l.1,-.8c.1,-.5,.4,-1.2,.7,-1.6c.1,-.3,.5,-.9,.9,-.9c.4,0,.4,.3,.4,.6c-.1,.4,.1,.6,.4,.6c.4,0,.5,-.3,.5,-.7Z" class="g1_130"/>
<path d="M395.5,682.8c-.7,0,-1.1,-.4,-1.1,-1.1c0,-.8,.4,-1.6,1.3,-1.6c1.2,0,1.3,.9,1.3,1.9c0,.9,-.2,1.4,-.7,2.1c-.2,.4,-.6,.8,-1.1,1.3c-.5,.5,-1.1,1.1,-1.8,1.8v.3h4.5l.4,-2.1H398c-.1,.3,-.2,.4,-.2,.6c-.2,.4,-.5,.6,-1.1,.6h-2.1v-.1c.5,-.3,1,-.7,1.4,-1.1c.8,-.6,1.5,-1.3,2,-2.2c.1,-.4,.2,-.8,.2,-1.2c0,-.3,0,-.6,-.1,-.9c-.3,-.6,-.9,-1.1,-1.7,-1.2h-1c-.5,.1,-1,.3,-1.3,.5c-.3,.4,-.7,.8,-.7,1.5c0,.5,.2,.8,.4,1.1c.2,.2,.5,.4,.9,.4c.4,0,.7,-.2,.8,-.6Z" class="g1_130"/>
<path d="M406.7,689.4h-3.2v1h3.2v3.3h1v-3.3h3.2v-1h-3.2v-3.3h-1v3.3Z" class="g1_130"/>
<path d="M418.7,687.5c1.2,0,.9,1.9,.4,3.2c-.4,.9,-1.3,2.8,-2.4,2.8c-.5,0,-.7,-.3,-.7,-1c0,-.7,.3,-1.8,.5,-2.4c.3,-.6,.7,-1.5,1.1,-2c.3,-.3,.7,-.6,1.1,-.6Zm-2.2,6.3c1.7,0,2.8,-1.5,3.4,-2.6c.4,-.6,.7,-1.4,.7,-2.3c0,-1,-.5,-1.7,-1.5,-1.7c-1,0,-1.7,.5,-2,1.2l-.1,-.1l1.6,-5.5h-2.1l-.1,.3c.7,0,.9,.3,.9,.5c0,.2,-.1,.6,-.2,.8l-1.5,5.7c-.2,.5,-.4,.9,-.4,1.3c-.1,.4,-.2,.7,-.2,.9c0,.9,.6,1.5,1.5,1.5Z" class="g1_130"/>
<path d="M428.8,688.1c0,-.5,-.5,-.9,-1,-.9c-.3,0,-.6,.1,-1,.3c-.3,.3,-.6,.6,-.8,.9c0,-.6,-.4,-1.2,-1.1,-1.2c-1.1,0,-2.1,1.2,-2.4,2l.2,.1c.4,-.5,1.1,-1.7,2,-1.7c.3,0,.4,.5,.4,.9c0,.3,-.1,.7,-.2,1.2l-.4,1.2c-.1,.6,-.4,1.3,-.7,1.7c-.2,.3,-.4,.7,-.8,.7c-.4,0,-.7,-.1,-.6,-.5c.1,-.3,0,-.7,-.4,-.7c-.5,0,-.6,.3,-.6,.8c0,.5,.4,.9,1,.9c1,0,1.8,-.8,2.1,-1.5l.1,.1c.1,.8,.5,1.4,1.3,1.4c1.2,0,2,-1.2,2.5,-1.8l-.2,-.2c-.5,.6,-1.2,1.6,-2,1.6c-.4,0,-.6,-.6,-.6,-1.2c0,-.3,0,-.8,.1,-1.3l.2,-.8c.1,-.5,.4,-1.2,.6,-1.6c.2,-.3,.6,-.9,1,-.9c.4,0,.4,.3,.3,.6c0,.4,.2,.6,.5,.6c.4,0,.5,-.3,.5,-.7Z" class="g1_130"/>
<path d="M436.5,689.4h-3.2v1h3.2v3.3h1v-3.3h3.3v-1h-3.3v-3.3h-1v3.3Z" class="g1_130"/>
<path d="M445.9,691.8c0,-.4,0,-.9,.2,-1.4c.3,-1,1,-2.9,2.2,-2.9c.3,0,.3,.2,.3,.3c0,.1,-.1,.2,-.1,.4c0,.4,.2,.6,.6,.6c.4,0,.6,-.2,.6,-.6c0,-.7,-.6,-1,-1.3,-1c-1.4,0,-2.5,1.4,-3.1,2.5c-.3,.6,-.6,1.3,-.6,2.1c0,1.1,.6,2,1.7,2c1.3,0,2.2,-1.1,2.6,-2.1l-.2,-.1c-.5,1,-1.2,1.9,-2.1,1.9c-.6,0,-.8,-1,-.8,-1.7Z" class="g1_130"/>
<path d="M455.2,691.8h7.6v-.9h-7.6Zm0,-3h7.6v-.9h-7.6Z" class="g1_130"/>
<path d="M471.7,693.5c-1.9,0,-1.9,-2.7,-1.9,-4.9c0,-2.2,0,-5.1,1.9,-5.1c2,0,2,2.9,2,5.1c0,2.2,-.1,4.9,-2,4.9Zm0,.3h.1c2.5,0,3.3,-2.6,3.3,-5.2c0,-2.7,-.7,-5.4,-3.4,-5.4c-2.6,0,-3.3,2.7,-3.3,5.4c0,2.6,.8,5.2,3.3,5.2Z" class="g1_130"/>
<path d="M374.3,717.9c-.4,0,-.8,.1,-1.3,.4c-.4,.3,-.8,.7,-1.2,1.2c-.7,.7,-1.3,1.9,-1.3,3.2c0,1,.4,1.8,1.3,1.8c1.3,0,1.8,-.9,2.2,-1.6c-.2,.9,0,1.6,.6,1.6c.3,0,.7,-.2,1.1,-.5c.4,-.3,.8,-.8,1.1,-1.4l-.2,-.1c-.3,.4,-.9,1.3,-1.3,1.3c-.2,0,-.3,-.3,-.3,-.5c0,-.9,.6,-2.5,.9,-3.5l.7,-1.8h-1l-.2,.7c-.2,-.5,-.5,-.8,-1.1,-.8Zm.2,.2c.7,0,.5,1.4,.4,1.9c-.1,.3,-.2,.7,-.3,1c-.4,1.2,-1.4,3.1,-2.3,3.1c-.6,0,-.7,-.9,-.7,-1.4c0,-.5,0,-.9,.2,-1.4c.3,-1,1.4,-3.2,2.7,-3.2Z" class="g1_130"/>
<path d="M384.9,718.8c0,-.5,-.4,-.9,-1,-.9c-.3,0,-.6,.1,-.9,.3c-.3,.2,-.7,.5,-.9,.9c0,-.7,-.4,-1.2,-1,-1.2c-1.2,0,-2.1,1.1,-2.5,1.9l.2,.1c.4,-.5,1.1,-1.7,2,-1.7c.3,0,.4,.6,.4,1c0,.3,-.1,.7,-.2,1.2l-.3,1.1c-.2,.6,-.4,1.4,-.8,1.8c-.1,.3,-.4,.7,-.7,.7c-.5,0,-.8,-.1,-.7,-.5c.1,-.3,0,-.7,-.4,-.7c-.4,0,-.6,.3,-.6,.7c0,.6,.5,1,1,1c1.1,0,1.8,-.8,2.2,-1.5c.1,.8,.5,1.5,1.3,1.5c1.2,0,2.1,-1.2,2.5,-1.9l-.2,-.1c-.5,.6,-1.2,1.6,-2,1.6c-.4,0,-.6,-.6,-.6,-1.2c0,-.4,0,-.8,.2,-1.4l.1,-.7c.1,-.5,.4,-1.2,.7,-1.6c.1,-.3,.5,-.9,.9,-.9c.4,0,.4,.3,.4,.6c-.1,.4,.1,.6,.4,.6c.4,0,.5,-.3,.5,-.7Z" class="g1_130"/>
<path d="M389,723.4c0,.7,-.3,1.5,-.7,1.8c-.4,.5,-1,.9,-1.7,1l1.1,-4q.1,0,.2,0c.1,-.1,.2,-.1,.2,-.1c.7,0,.9,.7,.9,1.3Zm-2.1,-1l-1.6,5.8c-.1,.3,-.4,.4,-.8,.4l-.1,.2h2.5v-.2c-.4,0,-.8,0,-.8,-.4c0,0,0,-.1,0,-.1c0,-.1,0,-.2,.1,-.3l.3,-1.4c1,-.1,1.8,-.5,2.4,-1c.5,-.5,1,-1.1,1,-2c0,-1,-.6,-1.5,-1.6,-1.5c-.2,0,-.4,0,-.6,0l.4,-1.1h-.7l-.4,1.3c-.3,.1,-.6,.3,-.9,.5c-.2,.2,-.5,.5,-.7,.7l.2,.2c.3,-.4,.8,-.8,1.3,-1.1Z" class="g1_130"/>
<path d="M393.9,714.3c-.7,0,-1.1,-.5,-1.1,-1.2c0,-.8,.5,-1.6,1.4,-1.6c1.2,0,1.3,1,1.3,1.9c0,.9,-.3,1.5,-.7,2.1c-.3,.4,-.7,.9,-1.2,1.4c-.5,.5,-1.1,1,-1.8,1.7v.3h4.5l.4,-2.1h-.3c-.1,.3,-.1,.5,-.2,.6c-.2,.4,-.5,.6,-1,.6h-2.1v-.1c.4,-.3,.9,-.7,1.3,-1c.8,-.7,1.6,-1.4,2,-2.3c.2,-.4,.3,-.8,.3,-1.2c0,-.3,-.1,-.6,-.2,-.9c-.3,-.6,-.9,-1.1,-1.7,-1.2h-1c-.5,.1,-.9,.3,-1.2,.6c-.4,.3,-.7,.8,-.7,1.4c0,.5,.1,.8,.3,1.1c.2,.2,.5,.4,.9,.4c.5,0,.7,-.2,.8,-.5Z" class="g1_130"/>
<path d="M369.8,732.1h28.3v-.8H369.8Z" class="g1_130"/>
<path d="M377.8,744.1c0,-.3,-.1,-.9,-.1,-1.1c0,-.3,0,-.5,.1,-.7c0,-.4,.3,-1.6,.7,-1.6c.2,0,.2,.6,.2,.9c0,.8,-.5,1.9,-.9,2.5Zm-2.7,-3c0,0,-1.7,2.3,-1.7,4c0,.8,.5,1.6,1.4,1.6c1,0,1.8,-.6,2.3,-1.3c.2,.7,.6,1.3,1.4,1.3c2.2,0,3.5,-4.1,3.5,-5.4c.1,-.7,-.1,-1.2,-.7,-1.2c-.4,0,-.6,.2,-.6,.7c0,.6,.5,1.2,.4,2c0,1,-1.1,3.5,-2.2,3.5c-.6,0,-.9,-1.2,-1,-1.8c.4,-.7,.8,-1.4,1.1,-1.9c.2,-.6,.3,-1.1,.3,-1.5c0,-.6,-.2,-1,-.7,-1c-.2,0,-.4,.1,-.6,.3c-.7,.6,-1.1,1.9,-1.1,3.2c0,.1,0,.3,0,.5c0,.2,.1,.7,.1,.9c-.3,.4,-.7,.7,-1,.9c-.3,.3,-.5,.3,-.7,.3c-.6,0,-.8,-.6,-.8,-1.2c0,-1.7,.6,-3.1,1.3,-4.2c.1,-.2,.5,-.5,.5,-.6c0,0,-.1,-.1,-.2,-.1c-.1,0,-.2,.1,-.2,.1c-.1,0,-.2,.1,-.4,.3c-.1,.1,-.2,.2,-.4,.2c-.3,0,-.4,-.1,-.6,-.3c-.2,-.2,-.4,-.3,-.7,-.3c-.6,0,-1.3,.6,-1.3,1.1c0,.4,.3,.5,.6,.5c.2,0,.4,-.1,.4,-.4c0,-.2,-.2,-.3,-.2,-.4c0,-.1,0,-.2,.2,-.2c.4,0,.6,.3,.8,.4q.2,.1,.6,0h.2Z" class="g1_130"/>
<path d="M386.3,745.7c0,.6,-.3,1.4,-.7,1.8c-.4,.4,-1.1,.8,-1.7,.9l1,-4c.1,0,.2,0,.3,0c0,0,.1,0,.2,0c.7,0,.9,.6,.9,1.3Zm-2.1,-1l-1.6,5.7c-.1,.4,-.4,.4,-.9,.4v.2h2.5v-.2c-.5,0,-.9,0,-.9,-.4c0,0,.1,-.1,.1,-.1c0,-.1,0,-.2,0,-.2l.4,-1.4c.9,-.2,1.8,-.6,2.3,-1.1c.5,-.4,1,-1.1,1,-2c0,-1,-.6,-1.5,-1.5,-1.5c-.2,0,-.4,0,-.6,0l.3,-1.1h-.7l-.3,1.3c-.3,.2,-.6,.4,-.9,.6c-.3,.2,-.5,.4,-.7,.6l.2,.2c.3,-.4,.8,-.8,1.3,-1Z" class="g1_130"/>
<path d="M391.2,737.6c-.7,0,-1.1,-.5,-1.1,-1.2c0,-.8,.4,-1.6,1.3,-1.6c1.2,0,1.3,1,1.3,1.9c0,.9,-.2,1.5,-.7,2.1c-.2,.4,-.6,.9,-1.1,1.4c-.5,.5,-1.1,1.1,-1.8,1.7v.4h4.5l.4,-2.1h-.3c-.1,.2,-.2,.4,-.2,.5c-.2,.4,-.5,.6,-1.1,.6h-2.1v-.1c.5,-.3,1,-.7,1.4,-1c.8,-.7,1.5,-1.4,2,-2.3c.1,-.4,.2,-.8,.2,-1.2c0,-.3,0,-.6,-.1,-.8c-.4,-.8,-1.1,-1.3,-2.2,-1.3c-.7,0,-1.4,.3,-1.8,.6c-.3,.3,-.7,.8,-.7,1.4c0,.5,.2,.9,.4,1.1c.2,.2,.5,.4,.9,.4c.4,0,.7,-.2,.8,-.5Z" class="g1_130"/>
<path d="M406.9,731.3h-3.2v1h3.2v3.2h1v-3.2h3.3v-1h-3.3V728h-1v3.3Z" class="g1_130"/>
<path d="M420.7,718.2c1.3,0,.9,1.9,.4,3.2c-.3,.8,-1.3,2.7,-2.4,2.7c-.5,0,-.7,-.3,-.7,-.9c0,-.8,.3,-1.8,.5,-2.4c.3,-.6,.7,-1.6,1.1,-2c.3,-.3,.7,-.6,1.1,-.6Zm-2.2,6.3c1.7,0,2.9,-1.5,3.5,-2.6c.3,-.6,.6,-1.5,.6,-2.3c0,-1,-.5,-1.7,-1.5,-1.7c-.9,0,-1.6,.5,-2,1.1l1.5,-5.6l-2.1,.1v.2c.6,0,.8,.3,.8,.6c0,.2,-.1,.6,-.1,.8l-1.6,5.6c-.2,.6,-.3,1,-.4,1.4c-.1,.4,-.2,.7,-.2,.9c0,.9,.6,1.5,1.5,1.5Z" class="g1_130"/>
<path d="M430.8,718.8c0,-.5,-.4,-.9,-1,-.9c-.3,0,-.6,.1,-.9,.3c-.4,.2,-.7,.5,-.9,.9c0,-.7,-.4,-1.2,-1,-1.2c-1.2,0,-2.1,1.1,-2.5,1.9l.2,.1c.4,-.5,1.1,-1.7,2,-1.7c.3,0,.4,.6,.4,1c0,.3,-.1,.7,-.2,1.2l-.4,1.1c-.1,.6,-.4,1.4,-.7,1.8c-.1,.3,-.4,.7,-.8,.7c-.4,0,-.7,-.1,-.6,-.5c.1,-.3,0,-.7,-.4,-.7c-.4,0,-.6,.3,-.6,.7c0,.6,.5,1,1,1c1,0,1.8,-.8,2.2,-1.5c.1,.8,.5,1.5,1.3,1.5c1.2,0,2,-1.2,2.5,-1.9l-.2,-.1c-.5,.6,-1.2,1.6,-2,1.6c-.4,0,-.6,-.6,-.6,-1.2c0,-.4,0,-.8,.1,-1.4l.2,-.7c.1,-.5,.4,-1.2,.6,-1.6c.2,-.3,.6,-.9,1,-.9c.4,0,.4,.3,.3,.6c0,.4,.2,.6,.5,.6c.4,0,.5,-.3,.5,-.7Z" class="g1_130"/>
<path d="M434.9,723.4c0,.7,-.3,1.5,-.7,1.8c-.4,.5,-1,.9,-1.7,1l1.1,-4c0,0,.1,0,.2,0q.1,-.1,.2,-.1c.7,0,.9,.7,.9,1.3Zm-2.1,-1l-1.6,5.8c-.1,.3,-.4,.4,-.8,.4l-.1,.2h2.5v-.2c-.4,0,-.8,0,-.8,-.4c0,0,0,-.1,0,-.1c0,-.1,0,-.2,0,-.3l.4,-1.4c.9,-.1,1.8,-.5,2.3,-1c.6,-.5,1.1,-1.1,1.1,-2c0,-1,-.6,-1.5,-1.6,-1.5c-.2,0,-.4,0,-.6,0l.3,-1.1h-.6l-.4,1.3c-.3,.1,-.6,.3,-.9,.5c-.3,.2,-.5,.5,-.7,.7l.2,.2c.3,-.4,.8,-.8,1.3,-1.1Z" class="g1_130"/>
<path d="M416.8,732.1h20.4v-.8H416.8Z" class="g1_130"/>
<path d="M424.2,743.3c0,-.3,-.1,-.9,-.1,-1.1c0,-.2,0,-.5,.1,-.7c.1,-.4,.3,-1.6,.7,-1.6c.2,0,.2,.6,.2,.9c0,.8,-.5,1.9,-.9,2.5Zm-2.7,-3c0,0,-1.7,2.3,-1.7,4c0,.8,.5,1.6,1.4,1.6c1,0,1.8,-.6,2.3,-1.3c.2,.7,.6,1.3,1.4,1.3c2.2,0,3.5,-4.1,3.5,-5.4c.1,-.7,-.1,-1.2,-.7,-1.2c-.4,0,-.6,.2,-.6,.7c0,.6,.5,1.2,.5,2c-.1,1,-1.2,3.5,-2.3,3.5c-.6,0,-.9,-1.2,-1,-1.8c.4,-.6,.8,-1.3,1.1,-1.9c.2,-.6,.3,-1.1,.3,-1.5c0,-.6,-.2,-1,-.7,-1c-.2,0,-.4,.1,-.6,.3c-.7,.6,-1.1,1.9,-1.1,3.2c0,.2,0,.3,0,.5c0,.2,.1,.8,.1,.9c-.3,.4,-.7,.7,-1,1c-.3,.2,-.5,.2,-.7,.2c-.6,0,-.7,-.6,-.7,-1.2c0,-1.7,.5,-3.1,1.2,-4.2c.1,-.2,.5,-.5,.5,-.6c0,0,-.1,-.1,-.2,-.1c-.1,0,-.2,.1,-.2,.1c-.1,0,-.2,.1,-.3,.3c-.2,.1,-.3,.2,-.5,.2c-.2,0,-.4,-.1,-.6,-.3c-.2,-.2,-.4,-.3,-.7,-.3c-.6,0,-1.3,.6,-1.3,1.1c0,.4,.3,.5,.6,.5c.3,0,.4,-.1,.4,-.4c0,-.2,-.2,-.3,-.2,-.4c0,-.1,0,-.2,.2,-.2c.4,0,.6,.3,.8,.4c.2,.1,.3,.1,.6,.1l.2,-.1Z" class="g1_130"/>
<path d="M432.7,744.9c0,.6,-.3,1.4,-.7,1.8c-.4,.4,-1.1,.8,-1.7,.9l1.1,-4c0,0,.1,0,.2,0c0,0,.1,0,.2,0c.7,0,.9,.6,.9,1.3Zm-2.1,-1l-1.6,5.7c-.1,.4,-.4,.5,-.9,.5v.1h2.5v-.1c-.4,-.1,-.8,-.1,-.8,-.5c0,0,0,-.1,0,-.1q0,-.1,0,-.2l.4,-1.4c.9,-.2,1.8,-.6,2.3,-1.1c.5,-.4,1,-1.1,1,-2c0,-1,-.6,-1.5,-1.5,-1.5c-.2,0,-.4,0,-.6,0l.3,-1.1h-.6l-.4,1.3c-.3,.2,-.6,.4,-.9,.6c-.3,.2,-.5,.4,-.7,.6l.2,.2c.3,-.4,.8,-.8,1.3,-1Z" class="g1_130"/>
<path d="M446,731.3h-3.3v1H446v3.2h1v-3.2h3.2v-1H447V728h-1v3.3Z" class="g1_130"/>
<path d="M455.3,733.7c0,-.5,.1,-1,.2,-1.4c.3,-1,1.1,-2.9,2.2,-2.9c.4,0,.4,.2,.4,.3c0,.1,-.1,.2,-.1,.4c0,.3,.2,.6,.5,.6c.4,0,.7,-.3,.7,-.7c0,-.6,-.6,-.9,-1.3,-.9c-1.5,0,-2.6,1.4,-3.2,2.5c-.3,.5,-.5,1.3,-.5,2.1c0,1.1,.6,2,1.7,2c1.3,0,2.1,-1.1,2.6,-2.1l-.3,-.1c-.4,.9,-1.2,1.8,-2,1.8c-.6,0,-.9,-.9,-.9,-1.6Z" class="g1_130"/>
<path d="M464.6,733.7h7.7v-.9h-7.7Zm0,-3.1h7.7v-.8h-7.7Z" class="g1_130"/>
<path clip-path="url(#c0_130)" d="M481.2,735.4c-1.9,0,-1.9,-2.7,-1.9,-4.9c0,-2.2,0,-5.2,1.9,-5.2c1.9,0,1.9,3,1.9,5.2c0,2.2,0,4.9,-1.9,4.9Zm0,-10.3c-2.6,0,-3.4,2.7,-3.4,5.4c0,2.6,.8,5.2,3.4,5.2c2.6,0,3.4,-2.6,3.4,-5.2c0,-2.7,-.8,-5.4,-3.4,-5.4Z" class="g1_130"/>
<path d="M356.5,777.5c-.5,0,-.9,.1,-1.3,.5c-.5,.3,-.9,.6,-1.3,1.1c-.6,.8,-1.2,2,-1.2,3.3c0,.9,.4,1.7,1.3,1.7c1.3,0,1.8,-.9,2.2,-1.6c-.2,1,-.1,1.6,.5,1.6c.4,0,.8,-.2,1.2,-.5c.4,-.3,.7,-.8,1.1,-1.4l-.2,-.1c-.3,.4,-.9,1.4,-1.4,1.4c-.2,0,-.2,-.4,-.2,-.6c0,-.9,.6,-2.4,.9,-3.4l.7,-1.9h-1l-.3,.7c-.1,-.5,-.4,-.8,-1,-.8Zm.1,.3c.7,0,.6,1.3,.5,1.8c-.1,.4,-.2,.7,-.3,1c-.4,1.2,-1.5,3.2,-2.3,3.2c-.6,0,-.8,-1,-.8,-1.5c0,-.4,0,-.9,.2,-1.3c.4,-1.1,1.4,-3.2,2.7,-3.2Z" class="g1_130"/>
<path d="M367.1,778.4c0,-.5,-.5,-.9,-1,-.9c-.3,0,-.7,.1,-1,.3c-.3,.3,-.6,.6,-.8,.9c0,-.6,-.4,-1.2,-1.1,-1.2c-1.1,0,-2.1,1.2,-2.4,2l.2,.1c.4,-.5,1.1,-1.7,2,-1.7c.2,0,.4,.5,.4,.9c0,.3,-.1,.7,-.3,1.2l-.3,1.2c-.2,.6,-.4,1.3,-.7,1.7c-.2,.3,-.4,.7,-.8,.7c-.4,0,-.7,-.1,-.6,-.5c.1,-.3,0,-.7,-.4,-.7c-.5,0,-.7,.3,-.7,.8c0,.5,.5,.9,1.1,.9c1,0,1.7,-.8,2.1,-1.4h.1c.1,.8,.5,1.4,1.3,1.4c1.2,0,2,-1.2,2.4,-1.8l-.2,-.2c-.4,.6,-1.1,1.6,-1.9,1.6c-.5,0,-.7,-.6,-.7,-1.2c0,-.3,.1,-.8,.2,-1.3l.2,-.7c.1,-.6,.3,-1.3,.6,-1.7c.2,-.3,.6,-.9,.9,-.9c.5,0,.4,.3,.4,.6c0,.4,.1,.6,.5,.6c.3,0,.5,-.3,.5,-.7Z" class="g1_130"/>
<path d="M371.2,783.1c0,.6,-.3,1.4,-.7,1.8c-.4,.4,-1.1,.8,-1.7,.9l1,-4c.1,0,.2,0,.2,0c.1,0,.2,0,.3,0c.7,0,.9,.6,.9,1.3Zm-2.2,-1l-1.5,5.7c-.1,.4,-.4,.5,-.9,.5v.1h2.5v-.1c-.5,-.1,-.9,-.1,-.9,-.5c0,0,0,-.1,0,-.1q.1,-.1,.1,-.2l.4,-1.4c.9,-.2,1.7,-.6,2.3,-1.1c.5,-.4,1,-1.1,1,-2c0,-1,-.6,-1.5,-1.6,-1.5c-.1,0,-.3,0,-.5,0l.3,-1.1h-.7l-.4,1.3c-.3,.2,-.6,.4,-.8,.6c-.3,.2,-.5,.4,-.7,.6l.2,.2c.3,-.4,.8,-.8,1.2,-1Z" class="g1_130"/>
<path d="M376.1,773.1c-.7,0,-1.1,-.4,-1.1,-1.1c0,-.8,.4,-1.6,1.3,-1.6c1.2,0,1.3,.9,1.3,1.9c0,.9,-.2,1.4,-.7,2.1c-.3,.4,-.6,.9,-1.1,1.3c-.5,.6,-1.1,1.1,-1.9,1.8v.3h4.6l.4,-2.1h-.3c-.1,.3,-.2,.4,-.3,.6c-.1,.4,-.4,.6,-1,.6h-2.1v-.1c.5,-.3,1,-.7,1.4,-1.1c.7,-.6,1.5,-1.3,1.9,-2.2c.2,-.4,.3,-.8,.3,-1.2c0,-.3,0,-.6,-.2,-.9c-.3,-.7,-1,-1.2,-2.1,-1.2c-.7,0,-1.4,.2,-1.8,.5c-.4,.4,-.7,.9,-.7,1.5c0,.5,.2,.8,.4,1.1c.2,.2,.5,.4,.9,.4c.4,0,.7,-.2,.8,-.6Z" class="g1_130"/>
<path d="M387.3,779.7H384v1h3.3V784h1v-3.3h3.2v-1h-3.2v-3.2h-1v3.2Z" class="g1_130"/>
<path d="M399.3,777.8c1.2,0,.9,1.9,.4,3.2c-.4,.9,-1.3,2.8,-2.4,2.8c-.5,0,-.7,-.3,-.7,-1c0,-.7,.3,-1.8,.5,-2.4c.3,-.6,.7,-1.5,1.1,-2c.3,-.3,.6,-.6,1.1,-.6Zm-2.2,6.3c1.6,0,2.8,-1.5,3.4,-2.6c.4,-.6,.7,-1.4,.7,-2.3c0,-1,-.5,-1.7,-1.6,-1.7c-.9,0,-1.6,.5,-1.9,1.2l-.1,-.1l1.6,-5.5l-2.1,.1l-.1,.2c.6,0,.9,.3,.9,.5c0,.2,-.1,.6,-.2,.8l-1.6,5.7c-.1,.5,-.3,.9,-.3,1.3c-.1,.4,-.2,.7,-.2,.9c0,.9,.6,1.5,1.5,1.5Z" class="g1_130"/>
<path d="M409.4,778.4c0,-.5,-.5,-.9,-1,-.9c-.3,0,-.7,.1,-1,.3c-.3,.3,-.6,.6,-.8,.9c0,-.6,-.4,-1.2,-1.1,-1.2c-1.1,0,-2.1,1.2,-2.4,2l.2,.1c.4,-.5,1.1,-1.7,2,-1.7c.2,0,.4,.5,.4,.9c0,.3,-.1,.7,-.2,1.2l-.4,1.2c-.2,.6,-.4,1.3,-.7,1.7c-.2,.3,-.4,.7,-.8,.7c-.4,0,-.7,-.1,-.6,-.5c.1,-.3,0,-.7,-.4,-.7c-.5,0,-.7,.3,-.7,.8c0,.5,.5,.9,1.1,.9c1,0,1.7,-.8,2.1,-1.4h.1c.1,.8,.5,1.4,1.3,1.4c1.2,0,2,-1.2,2.4,-1.8l-.1,-.2c-.5,.6,-1.2,1.6,-2,1.6c-.5,0,-.7,-.6,-.7,-1.2c0,-.3,.1,-.8,.2,-1.3l.2,-.7c.1,-.6,.4,-1.3,.6,-1.7c.2,-.3,.6,-.9,1,-.9c.4,0,.3,.3,.3,.6c0,.4,.1,.6,.5,.6c.3,0,.5,-.3,.5,-.7Z" class="g1_130"/>
<path d="M413.5,783.1c0,.6,-.3,1.4,-.7,1.8c-.4,.4,-1.1,.8,-1.7,.9l1,-4c.1,0,.2,0,.3,0c0,0,.1,0,.2,0c.7,0,.9,.6,.9,1.3Zm-2.1,-1l-1.6,5.7c-.1,.4,-.4,.5,-.9,.5v.1h2.5v-.1c-.5,-.1,-.9,-.1,-.9,-.5c0,0,.1,-.1,.1,-.1q0,-.1,0,-.2l.4,-1.4c.9,-.2,1.8,-.6,2.3,-1.1c.5,-.4,1,-1.1,1,-2c0,-1,-.6,-1.5,-1.5,-1.5c-.2,0,-.4,0,-.6,0l.3,-1.1h-.7l-.3,1.3c-.4,.2,-.6,.4,-.9,.6c-.3,.2,-.5,.4,-.7,.6l.2,.2c.3,-.4,.8,-.8,1.3,-1Z" class="g1_130"/>
<path d="M421,781.5c0,-.3,-.1,-.9,-.1,-1.1c0,-.2,0,-.5,.1,-.7c0,-.4,.3,-1.6,.7,-1.6c.2,0,.2,.6,.2,.9c0,.8,-.6,1.9,-.9,2.5Zm-2.8,-3c0,0,-1.6,2.3,-1.6,4c0,.8,.5,1.6,1.4,1.6c1,0,1.7,-.6,2.3,-1.3c.2,.7,.6,1.3,1.4,1.3c2.2,0,3.5,-4.1,3.5,-5.4c0,-.7,-.1,-1.2,-.7,-1.2c-.4,0,-.6,.2,-.6,.7c0,.6,.4,1.2,.4,2c0,1,-1.1,3.5,-2.3,3.5c-.6,0,-.8,-1.2,-.9,-1.8c.4,-.6,.8,-1.3,1,-1.9c.3,-.6,.4,-1.1,.4,-1.5c0,-.6,-.2,-1,-.7,-1c-.2,0,-.4,.1,-.6,.3c-.7,.6,-1.1,1.9,-1.1,3.2c0,.1,0,.3,0,.5c0,.2,.1,.7,.1,.9c-.3,.4,-.7,.7,-1,.9c-.3,.3,-.5,.3,-.7,.3c-.6,0,-.8,-.6,-.8,-1.2c0,-1.7,.6,-3.1,1.3,-4.2c.1,-.2,.4,-.5,.4,-.6c0,0,0,-.1,-.1,-.1c-.1,0,-.2,.1,-.2,.1c-.1,0,-.2,.1,-.4,.3c-.1,.1,-.2,.2,-.4,.2c-.3,0,-.4,-.1,-.6,-.3c-.2,-.2,-.4,-.3,-.7,-.3c-.7,0,-1.3,.6,-1.3,1.1c0,.4,.3,.5,.5,.5c.3,0,.5,-.1,.5,-.4c0,-.2,-.3,-.3,-.3,-.4c0,-.1,.1,-.2,.3,-.2c.4,0,.6,.3,.7,.4c.2,.1,.3,.1,.6,0h.2Z" class="g1_130"/>
<path d="M429.5,783.1c0,.6,-.3,1.4,-.7,1.8c-.4,.4,-1.1,.8,-1.7,.9l1,-4c.1,0,.2,0,.2,0c.1,0,.2,0,.3,0c.7,0,.9,.6,.9,1.3Zm-2.2,-1l-1.5,5.7c-.1,.4,-.4,.5,-.9,.5v.1h2.5v-.1c-.5,-.1,-.9,-.1,-.9,-.5c0,0,0,-.1,0,-.1q.1,-.1,.1,-.2l.4,-1.4c.9,-.2,1.7,-.6,2.3,-1.1c.5,-.4,1,-1.1,1,-2c0,-1,-.6,-1.5,-1.6,-1.5c-.2,0,-.3,0,-.5,0l.3,-1.1h-.7l-.4,1.3c-.3,.2,-.6,.4,-.8,.6c-.3,.2,-.5,.4,-.7,.6l.2,.2c.3,-.4,.8,-.8,1.2,-1Z" class="g1_130"/>
<path d="M438.7,779.7h-3.2v1h3.2V784h1v-3.3H443v-1h-3.3v-3.2h-1v3.2Z" class="g1_130"/>
<path d="M448.1,782.1c0,-.4,0,-.9,.2,-1.4c.3,-1,1.1,-2.9,2.2,-2.9c.3,0,.4,.2,.4,.3c0,.2,-.1,.2,-.1,.4c0,.4,.2,.6,.5,.6c.4,0,.6,-.2,.6,-.6c0,-.7,-.6,-1,-1.3,-1c-1.4,0,-2.5,1.4,-3.1,2.5c-.3,.6,-.5,1.3,-.5,2.1c0,1.1,.6,2,1.7,2c1.2,0,2.1,-1,2.6,-2.1l-.3,-.1c-.5,1,-1.2,1.9,-2.1,1.9c-.6,0,-.8,-1,-.8,-1.7Z" class="g1_130"/>
<path d="M458,781.5c-.1,-.3,-.1,-.9,-.1,-1.1c0,-.2,0,-.5,0,-.7c.1,-.4,.3,-1.6,.7,-1.6c.3,0,.3,.6,.3,.9c0,.8,-.6,1.9,-.9,2.5Zm-2.8,-3c0,0,-1.7,2.3,-1.7,4c0,.8,.5,1.6,1.4,1.6c1.1,0,1.8,-.6,2.3,-1.3c.3,.7,.6,1.3,1.5,1.3c2.1,0,3.4,-4.1,3.5,-5.4c0,-.7,-.1,-1.2,-.8,-1.2c-.4,0,-.6,.2,-.6,.7c0,.6,.5,1.2,.5,2c0,1,-1.1,3.5,-2.3,3.5c-.6,0,-.9,-1.2,-1,-1.8c.5,-.6,.9,-1.3,1.1,-1.9c.2,-.6,.3,-1.1,.3,-1.5c0,-.6,-.2,-1,-.7,-1c-.2,0,-.4,.1,-.6,.3c-.6,.6,-1.1,1.9,-1.1,3.2c0,.1,0,.3,0,.5c0,.2,.1,.7,.1,.9c-.3,.4,-.6,.7,-.9,.9c-.3,.3,-.6,.3,-.8,.3c-.5,0,-.7,-.6,-.7,-1.2c0,-1.7,.5,-3.1,1.2,-4.2c.1,-.2,.5,-.5,.5,-.6c0,0,-.1,-.1,-.2,-.1c-.1,0,-.1,.1,-.2,.1c-.1,0,-.2,.1,-.3,.3c-.2,.1,-.3,.2,-.4,.2c-.3,0,-.5,-.1,-.7,-.3c-.2,-.2,-.3,-.3,-.7,-.3c-.6,0,-1.3,.6,-1.3,1.1c0,.4,.3,.5,.6,.5c.3,0,.4,-.1,.4,-.4c0,-.2,-.2,-.3,-.2,-.4c0,-.1,0,-.2,.2,-.2c.4,0,.6,.3,.8,.4c.2,.1,.3,.1,.6,0h.2Z" class="g1_130"/>
<path d="M466.4,783.1c0,.6,-.3,1.4,-.7,1.8c-.4,.4,-1,.8,-1.7,.9l1.1,-4c0,0,.1,0,.2,0q.1,0,.2,0c.7,0,.9,.6,.9,1.3Zm-2.1,-1l-1.6,5.7c-.1,.4,-.4,.5,-.8,.5l-.1,.1h2.5v-.1c-.4,-.1,-.8,-.1,-.8,-.5c0,0,0,-.1,0,-.1q0,-.1,0,-.2l.4,-1.4c.9,-.2,1.8,-.6,2.3,-1.1c.6,-.4,1.1,-1.1,1.1,-2c0,-1,-.6,-1.5,-1.6,-1.5c-.2,0,-.4,0,-.6,0l.3,-1.1h-.6l-.4,1.3c-.3,.2,-.6,.4,-.9,.6c-.3,.2,-.5,.4,-.7,.6l.2,.2c.3,-.4,.8,-.8,1.3,-1Z" class="g1_130"/>
<path d="M471.3,773.1c-.7,0,-1.1,-.4,-1.1,-1.1c0,-.8,.4,-1.6,1.3,-1.6c1.3,0,1.4,.9,1.4,1.9c0,.9,-.3,1.4,-.7,2.1c-.3,.4,-.7,.9,-1.2,1.3c-.5,.6,-1.1,1.1,-1.8,1.8v.3h4.5l.4,-2.1h-.3c-.1,.3,-.2,.4,-.2,.6c-.2,.4,-.5,.6,-1,.6h-2.1v-.1c.4,-.3,.9,-.7,1.3,-1.1c.8,-.6,1.6,-1.3,2,-2.2c.2,-.4,.3,-.8,.3,-1.2c0,-.3,-.1,-.6,-.2,-.9c-.4,-.7,-1.1,-1.2,-2.2,-1.2c-.7,0,-1.3,.2,-1.7,.5c-.4,.4,-.7,.9,-.7,1.5c0,.5,.1,.8,.3,1.1c.2,.2,.5,.4,.9,.4c.4,0,.7,-.2,.8,-.6Z" class="g1_130"/>
<path d="M480.3,782.1h7.6v-.8h-7.6Zm0,-3h7.6v-.9h-7.6Z" class="g1_130"/>
<path d="M496.8,783.8c-1.9,0,-1.9,-2.7,-1.9,-4.9c0,-2.2,0,-5.1,1.9,-5.1c1.9,0,1.9,2.9,1.9,5.1c0,2.2,0,4.9,-1.9,4.9Zm3.4,-4.8v-.3c-.1,-2.6,-.8,-5.2,-3.4,-5.2c-2.6,0,-3.4,2.7,-3.4,5.4c0,2.6,.8,5.2,3.4,5.2c2.5,0,3.3,-2.5,3.4,-5.1Z" class="g1_130"/>
</svg>