<?xml version="1.0" encoding="UTF-8" standalone="no"?>
<!DOCTYPE svg PUBLIC "-//W3C//DTD SVG 1.1//EN"
"http://www.w3.org/Graphics/SVG/1.1/DTD/svg11.dtd">
<svg viewBox="0 0 811 1017" version="1.1" xmlns="http://www.w3.org/2000/svg" xmlns:xlink="http://www.w3.org/1999/xlink">
<defs>
<style type="text/css"><![CDATA[
.g0_69{
fill: #0E0E0E;
}
]]></style>
</defs>
<path d="M329,88.7c0,-.1,-.1,-.1,-.1,-.1q-.1,0,-.1,0c-4.8,5.4,-5.3,19.2,-5.3,20.8v.7h1.4v-.7c0,-1.2,.7,-14.9,3.9,-20.3c.1,-.2,.2,-.3,.2,-.4Z" class="g0_69"/>
<path d="M323.5,119.3h1.4v-9.6h-1.4Z" class="g0_69"/>
<path d="M329,140.5c0,-.1,-.1,-.2,-.2,-.4c-3.2,-5.4,-3.9,-19.1,-3.9,-20.3v-.7h-1.4v.7c0,1.5,.5,15.4,5.3,20.7q0,.1,.1,.1c0,0,.1,-.1,.1,-.1Z" class="g0_69"/>
<path d="M333.9,93.8c-.4,0,-.8,.1,-1.3,.4c-.4,.3,-.8,.7,-1.2,1.2c-.6,.7,-1.3,1.9,-1.3,3.2c0,1,.4,1.7,1.4,1.7c1.3,0,1.7,-.8,2.1,-1.5h.1c-.3,.9,-.1,1.5,.5,1.5c.4,0,.7,-.1,1.1,-.4c.4,-.4,.8,-.8,1.1,-1.4l-.2,-.1c-.2,.4,-.9,1.3,-1.3,1.3c-.2,0,-.3,-.3,-.3,-.6c0,-.9,.6,-2.4,1,-3.4l.7,-1.8h-1l-.3,.6c-.2,-.4,-.5,-.7,-1.1,-.7Zm.2,.2c.7,0,.5,1.3,.4,1.9c0,.3,-.2,.6,-.3,1c-.3,1.2,-1.4,3.1,-2.2,3.1c-.6,0,-.8,-.9,-.8,-1.4c0,-.5,0,-.9,.2,-1.4c.4,-1,1.4,-3.2,2.7,-3.2Z" class="g0_69"/>
<path d="M338.3,95.5v.2c.3,0,.8,0,1,.1c.3,.2,.3,.3,.3,.7v4.8c0,.2,0,.4,0,.6c-.1,.4,-.7,.5,-1.2,.5v.2h3.4v-.2c-.4,0,-.9,0,-1.1,-.2c-.1,-.2,-.1,-.6,-.1,-1V95c-.6,.2,-1.6,.5,-2.3,.5Z" class="g0_69"/>
<path d="M344.4,95.5v.2c.3,0,.8,0,1,.1c.3,.2,.3,.3,.3,.7v4.8c0,.2,0,.4,0,.6c-.1,.4,-.7,.5,-1.2,.5v.2h3.4v-.2c-.4,0,-.9,0,-1.1,-.2c-.1,-.2,-.1,-.6,-.1,-1V95c-.6,.2,-1.6,.5,-2.3,.5Z" class="g0_69"/>
<path d="M369.3,93.8c-.5,0,-.9,.1,-1.4,.4c-.4,.3,-.8,.7,-1.2,1.2c-.6,.7,-1.2,1.9,-1.2,3.2c0,1,.3,1.7,1.3,1.7c1.3,0,1.8,-.8,2.1,-1.5h.1c-.2,.9,-.1,1.5,.5,1.5c.4,0,.8,-.1,1.2,-.4c.3,-.4,.7,-.8,1,-1.4l-.1,-.1c-.3,.4,-1,1.3,-1.4,1.3c-.2,0,-.3,-.3,-.3,-.6c0,-.9,.6,-2.4,1,-3.4l.7,-1.8h-1l-.3,.6c-.2,-.4,-.5,-.7,-1,-.7Zm.1,.2c.7,0,.5,1.3,.4,1.9c0,.3,-.2,.6,-.3,1c-.3,1.2,-1.4,3.1,-2.2,3.1c-.6,0,-.8,-.9,-.8,-1.4c0,-.5,0,-.9,.2,-1.4c.4,-1,1.4,-3.2,2.7,-3.2Z" class="g0_69"/>
<path d="M373.6,95.5v.2c.4,0,.8,0,1,.1c.3,.2,.3,.3,.3,.7v4.8c0,.2,0,.4,0,.6c-.1,.4,-.7,.5,-1.2,.5v.2h3.4v-.2c-.3,0,-.9,0,-1,-.2c-.2,-.2,-.2,-.6,-.2,-1V95c-.6,.2,-1.6,.5,-2.3,.5Z" class="g0_69"/>
<path d="M380.9,97.9c-.6,0,-1,-.5,-1,-1.1c0,-.8,.4,-1.7,1.3,-1.7c1.2,0,1.3,1,1.3,1.9c0,1,-.3,1.5,-.7,2.2c-.3,.4,-.7,.8,-1.1,1.3c-.5,.5,-1.1,1.1,-1.9,1.8v.3h4.6l.3,-2.1h-.3c0,.2,-.1,.4,-.2,.6c-.2,.3,-.5,.5,-1,.5h-2.1c.5,-.4,.9,-.7,1.4,-1.1c.7,-.6,1.5,-1.4,1.9,-2.2c.2,-.4,.3,-.8,.3,-1.2c0,-.3,-.1,-.6,-.2,-.9c-.3,-.7,-1.1,-1.3,-2.2,-1.3c-.7,0,-1.3,.3,-1.7,.6c-.4,.3,-.7,.8,-.7,1.5c0,.4,.1,.8,.4,1c.2,.3,.5,.4,.9,.4c.4,0,.7,-.2,.7,-.5Z" class="g0_69"/>
<path d="M404.6,93.8c-.5,0,-.9,.1,-1.3,.4c-.5,.3,-.9,.7,-1.3,1.2c-.6,.7,-1.2,1.9,-1.2,3.2c0,1,.4,1.7,1.3,1.7c1.3,0,1.8,-.8,2.2,-1.5c-.2,.9,-.1,1.5,.5,1.5c.4,0,.8,-.1,1.2,-.4c.4,-.4,.7,-.8,1.1,-1.4l-.2,-.1c-.3,.4,-.9,1.3,-1.4,1.3c-.2,0,-.2,-.3,-.2,-.6c0,-.9,.6,-2.4,.9,-3.4l.7,-1.8h-1l-.3,.6c-.1,-.4,-.4,-.7,-1,-.7Zm.1,.2c.7,0,.6,1.3,.5,1.9c-.1,.3,-.2,.6,-.3,1c-.4,1.2,-1.5,3.1,-2.3,3.1c-.6,0,-.8,-.9,-.8,-1.4c0,-.5,0,-.9,.2,-1.4c.4,-1,1.4,-3.2,2.7,-3.2Z" class="g0_69"/>
<path d="M409,95.5v.2c.3,0,.8,0,.9,.1c.3,.2,.3,.3,.3,.7v4.8c0,.2,0,.4,0,.6c-.1,.4,-.6,.5,-1.2,.5v.2h3.4v-.2c-.3,0,-.9,0,-1,-.2c-.2,-.2,-.2,-.6,-.2,-1V95c-.6,.2,-1.5,.5,-2.2,.5Z" class="g0_69"/>
<path d="M416.5,102.5c-.8,0,-1.3,-.7,-1.3,-1.4c0,-.5,.3,-1,.8,-1c0,-.2,-.4,-.4,-.7,-.4c-.2,0,-.3,0,-.5,.1c-.4,.2,-.7,.6,-.7,1.2c0,.2,.1,.4,.2,.6c.4,.7,1.2,1.1,2.2,1.1c.8,0,1.4,-.3,1.8,-.6c.5,-.4,.8,-.8,.8,-1.5c0,-.3,-.1,-.5,-.1,-.7c-.3,-.7,-.9,-1.1,-1.6,-1.3v-.1c.4,-.1,.8,-.3,1,-.7c.3,-.2,.5,-.6,.5,-1.1c0,-.3,-.1,-.5,-.2,-.7c-.3,-.7,-1.2,-1,-2.2,-1c-.6,0,-1.1,.1,-1.5,.3c-.3,.2,-.6,.6,-.6,1c0,.3,.1,.6,.3,.8c.2,.1,.4,.3,.7,.3c.2,0,.3,-.1,.5,-.1c.1,-.1,.2,-.2,.2,-.3c-.4,0,-.7,-.3,-.7,-.7c0,-.6,.5,-1.2,1.1,-1.2c.8,0,1.2,.7,1.2,1.6c0,.9,-.3,1.8,-1.1,1.8c-.2,0,-.4,-.1,-.6,-.1c-.2,0,-.5,0,-.5,.2c0,.3,.3,.4,.5,.4c.3,0,.5,-.2,.7,-.3c.9,0,1.1,.8,1.1,1.8c0,1,-.3,2,-1.3,2Z" class="g0_69"/>
<path d="M333.9,111.7c-.4,0,-.8,.1,-1.3,.4c-.4,.3,-.8,.7,-1.2,1.2c-.6,.7,-1.3,1.9,-1.3,3.2c0,1,.4,1.8,1.4,1.8c1.3,0,1.7,-.9,2.1,-1.6h.1c-.3,.9,-.1,1.6,.5,1.6c.4,0,.7,-.2,1.1,-.5c.4,-.4,.8,-.8,1.1,-1.4l-.2,-.1c-.2,.4,-.9,1.3,-1.3,1.3c-.2,0,-.3,-.3,-.3,-.6c0,-.9,.6,-2.4,1,-3.4l.7,-1.8h-1l-.3,.6c-.2,-.4,-.5,-.7,-1.1,-.7Zm.2,.2c.7,0,.5,1.3,.4,1.9c0,.3,-.2,.6,-.3,1c-.3,1.2,-1.4,3.1,-2.2,3.1c-.6,0,-.8,-.9,-.8,-1.4c0,-.5,0,-.9,.2,-1.4c.4,-1,1.4,-3.2,2.7,-3.2Z" class="g0_69"/>
<path d="M339.5,115.8c-.7,0,-1.1,-.5,-1.1,-1.1c0,-.8,.5,-1.7,1.4,-1.7c1.2,0,1.3,1,1.3,1.9c0,1,-.3,1.5,-.7,2.2c-.3,.4,-.7,.8,-1.2,1.3c-.4,.5,-1.1,1.1,-1.8,1.8v.3H342l.3,-2.1H342c0,.2,-.1,.4,-.2,.6c-.2,.3,-.5,.5,-1,.5h-2.1c.4,-.4,.9,-.7,1.3,-1.1c.8,-.6,1.6,-1.4,2,-2.2c.2,-.4,.3,-.8,.3,-1.2c0,-.3,-.1,-.6,-.2,-.9c-.4,-.7,-1.1,-1.3,-2.2,-1.3c-.7,0,-1.3,.3,-1.7,.6c-.4,.3,-.7,.8,-.7,1.5c0,.4,.1,.8,.4,1c.2,.3,.4,.4,.9,.4c.4,0,.7,-.1,.7,-.5Z" class="g0_69"/>
<path d="M344.4,113.4v.2c.3,0,.8,0,1,.1c.3,.2,.3,.3,.3,.7v4.8c0,.2,0,.4,0,.6c-.1,.4,-.7,.5,-1.2,.5v.2h3.4v-.2c-.4,0,-.9,0,-1.1,-.2c-.1,-.2,-.1,-.6,-.1,-1v-6.2c-.6,.2,-1.6,.5,-2.3,.5Z" class="g0_69"/>
<path d="M369.3,111.7c-.5,0,-.9,.1,-1.4,.4c-.4,.3,-.8,.7,-1.2,1.2c-.6,.7,-1.2,1.9,-1.2,3.2c0,1,.3,1.8,1.3,1.8c1.3,0,1.8,-.9,2.1,-1.6h.1c-.2,.9,-.1,1.6,.5,1.6c.4,0,.8,-.2,1.2,-.5c.3,-.4,.7,-.8,1,-1.4l-.1,-.1c-.3,.4,-1,1.3,-1.4,1.3c-.2,0,-.3,-.3,-.3,-.6c0,-.9,.6,-2.4,1,-3.4l.7,-1.8h-1l-.3,.6c-.2,-.4,-.5,-.7,-1,-.7Zm.1,.2c.7,0,.5,1.3,.4,1.9c0,.3,-.2,.6,-.3,1c-.3,1.2,-1.4,3.1,-2.2,3.1c-.6,0,-.8,-.9,-.8,-1.4c0,-.5,0,-.9,.2,-1.4c.4,-1,1.4,-3.2,2.7,-3.2Z" class="g0_69"/>
<path d="M374.8,115.8c-.6,0,-1,-.5,-1,-1.1c0,-.8,.4,-1.7,1.3,-1.7c1.2,0,1.3,1,1.3,1.9c0,1,-.3,1.5,-.7,2.2c-.3,.4,-.7,.8,-1.1,1.3c-.5,.5,-1.1,1.1,-1.9,1.8v.3h4.6l.3,-2.1h-.3c0,.2,-.1,.4,-.2,.6c-.1,.3,-.5,.5,-1,.5H374c.5,-.4,.9,-.7,1.4,-1.1c.7,-.6,1.5,-1.4,1.9,-2.2c.2,-.4,.3,-.8,.3,-1.2c0,-.3,-.1,-.6,-.2,-.9c-.3,-.7,-1.1,-1.3,-2.2,-1.3c-.7,0,-1.3,.3,-1.7,.6c-.4,.3,-.7,.8,-.7,1.5c0,.4,.1,.8,.4,1c.2,.3,.5,.4,.9,.4c.4,0,.7,-.1,.7,-.5Z" class="g0_69"/>
<path d="M380.9,115.8c-.6,0,-1,-.5,-1,-1.1c0,-.8,.4,-1.7,1.3,-1.7c1.2,0,1.3,1,1.3,1.9c0,1,-.3,1.5,-.7,2.2c-.3,.4,-.7,.8,-1.1,1.3c-.5,.5,-1.1,1.1,-1.9,1.8v.3h4.6l.3,-2.1h-.3c0,.2,-.1,.4,-.2,.6c-.2,.3,-.5,.5,-1,.5h-2.1c.5,-.4,.9,-.7,1.4,-1.1c.7,-.6,1.5,-1.4,1.9,-2.2c.2,-.4,.3,-.8,.3,-1.2c0,-.3,-.1,-.6,-.2,-.9c-.3,-.7,-1.1,-1.3,-2.2,-1.3c-.7,0,-1.3,.3,-1.7,.6c-.4,.3,-.7,.8,-.7,1.5c0,.4,.1,.8,.4,1c.2,.3,.5,.4,.9,.4c.4,0,.7,-.1,.7,-.5Z" class="g0_69"/>
<path d="M404.6,111.7c-.5,0,-.9,.1,-1.3,.4c-.5,.3,-.9,.7,-1.3,1.2c-.6,.7,-1.2,1.9,-1.2,3.2c0,1,.4,1.8,1.3,1.8c1.3,0,1.8,-.9,2.2,-1.6c-.2,.9,-.1,1.6,.5,1.6c.4,0,.8,-.2,1.2,-.5c.4,-.4,.7,-.8,1.1,-1.4l-.2,-.1c-.3,.4,-.9,1.3,-1.4,1.3c-.2,0,-.2,-.3,-.2,-.6c0,-.9,.6,-2.4,.9,-3.4l.7,-1.8h-1l-.3,.6c-.1,-.4,-.4,-.7,-1,-.7Zm.1,.2c.7,0,.6,1.3,.5,1.9c-.1,.3,-.2,.6,-.3,1c-.4,1.2,-1.5,3.1,-2.3,3.1c-.6,0,-.8,-.9,-.8,-1.4c0,-.5,0,-.9,.2,-1.4c.4,-1,1.4,-3.2,2.7,-3.2Z" class="g0_69"/>
<path d="M410.2,115.8c-.7,0,-1.1,-.5,-1.1,-1.1c0,-.8,.4,-1.7,1.3,-1.7c1.2,0,1.3,1,1.3,1.9c0,1,-.2,1.5,-.7,2.2c-.3,.4,-.7,.8,-1.1,1.3c-.5,.5,-1.1,1.1,-1.9,1.8v.3h4.6l.4,-2.1h-.3c-.1,.2,-.2,.4,-.3,.6c-.1,.3,-.4,.5,-1,.5h-2.1c.5,-.4,1,-.7,1.4,-1.1c.7,-.6,1.5,-1.4,1.9,-2.2c.2,-.4,.3,-.8,.3,-1.2c0,-.3,-.1,-.6,-.2,-.9c-.3,-.7,-1.1,-1.3,-2.1,-1.3c-.8,0,-1.4,.3,-1.8,.6c-.4,.3,-.7,.8,-.7,1.5c0,.4,.2,.8,.4,1c.2,.3,.5,.4,.9,.4c.4,0,.7,-.1,.8,-.5Z" class="g0_69"/>
<path d="M416.5,120.4c-.8,0,-1.3,-.7,-1.3,-1.4c0,-.5,.3,-1,.8,-1c0,-.2,-.4,-.4,-.7,-.4c-.2,0,-.3,0,-.5,.1c-.4,.2,-.7,.6,-.7,1.2c0,.2,.1,.4,.2,.6c.4,.7,1.2,1.1,2.2,1.1c.8,0,1.4,-.3,1.8,-.6c.5,-.4,.8,-.8,.8,-1.5c0,-.3,-.1,-.5,-.1,-.7c-.3,-.7,-.9,-1.1,-1.6,-1.3v-.1c.4,-.1,.8,-.3,1,-.7c.3,-.2,.5,-.6,.5,-1.1c0,-.3,-.1,-.5,-.2,-.7c-.3,-.7,-1.2,-1,-2.2,-1c-.6,0,-1.1,.1,-1.5,.3c-.3,.2,-.6,.6,-.6,1c0,.3,.1,.6,.3,.8c.2,.1,.4,.3,.7,.3c.2,0,.3,-.1,.5,-.1c.1,-.1,.2,-.2,.2,-.3c-.4,0,-.7,-.3,-.7,-.7c0,-.6,.5,-1.2,1.1,-1.2c.8,0,1.2,.7,1.2,1.6c0,.9,-.3,1.8,-1.1,1.8c-.2,0,-.4,-.1,-.6,-.1c-.2,0,-.5,0,-.5,.2c0,.3,.3,.4,.5,.4c.3,0,.5,-.2,.7,-.3c.9,0,1.1,.8,1.1,1.8c0,1,-.3,2,-1.3,2Z" class="g0_69"/>
<path d="M333.9,129.6c-.4,0,-.8,.1,-1.3,.4c-.4,.3,-.8,.7,-1.2,1.2c-.6,.7,-1.3,1.9,-1.3,3.2c0,1,.4,1.7,1.4,1.7c1.3,0,1.7,-.8,2.1,-1.5h.1c-.3,.9,-.1,1.5,.5,1.5c.4,0,.7,-.1,1.1,-.4c.4,-.4,.8,-.8,1.1,-1.4l-.2,-.1c-.2,.4,-.9,1.3,-1.3,1.3c-.2,0,-.3,-.3,-.3,-.6c0,-.9,.6,-2.4,1,-3.4l.7,-1.8h-1l-.3,.6c-.2,-.4,-.5,-.7,-1.1,-.7Zm.2,.2c.7,0,.5,1.3,.4,1.9c0,.3,-.2,.6,-.3,1c-.3,1.2,-1.4,3.1,-2.2,3.1c-.6,0,-.8,-.9,-.8,-1.4c0,-.5,0,-.9,.2,-1.4c.4,-1,1.4,-3.2,2.7,-3.2Z" class="g0_69"/>
<path d="M339.7,138.3c-.7,0,-1.2,-.7,-1.2,-1.4c0,-.5,.3,-1,.8,-1c-.1,-.2,-.4,-.4,-.8,-.4c-.1,0,-.3,0,-.4,.1c-.4,.2,-.7,.6,-.7,1.2c0,.2,.1,.4,.2,.6c.4,.7,1.1,1.1,2.2,1.1c.8,0,1.4,-.3,1.8,-.6c.4,-.4,.7,-.8,.7,-1.5c0,-.3,0,-.5,-.1,-.7c-.2,-.7,-.8,-1.1,-1.5,-1.3v-.1c.4,-.1,.7,-.3,1,-.7c.2,-.2,.4,-.6,.4,-1.1c0,-.3,0,-.5,-.1,-.7c-.4,-.7,-1.2,-1,-2.2,-1c-.6,0,-1.2,.1,-1.5,.3c-.3,.2,-.6,.6,-.6,1c0,.3,.1,.6,.3,.8c.1,.1,.4,.3,.7,.3c.2,0,.3,-.1,.4,-.1c.2,-.1,.2,-.2,.3,-.3c-.4,0,-.7,-.3,-.7,-.7c0,-.6,.5,-1.2,1.1,-1.2c.8,0,1.1,.7,1.1,1.6c0,.9,-.2,1.8,-1,1.8c-.2,0,-.4,-.1,-.6,-.1c-.2,0,-.5,0,-.5,.2c0,.3,.3,.4,.5,.4c.2,0,.5,-.2,.7,-.3c.9,0,1.1,.8,1.1,1.8c0,1,-.4,2,-1.4,2Z" class="g0_69"/>
<path d="M344.4,131.3v.2c.3,0,.8,0,1,.1c.3,.2,.3,.3,.3,.7v4.8c0,.2,0,.4,0,.6c-.1,.4,-.7,.5,-1.2,.5v.2h3.4v-.2c-.4,0,-.9,0,-1.1,-.2c-.1,-.2,-.1,-.6,-.1,-1v-6.2c-.6,.2,-1.6,.5,-2.3,.5Z" class="g0_69"/>
<path d="M369.3,129.6c-.5,0,-.9,.1,-1.4,.4c-.4,.3,-.8,.7,-1.2,1.2c-.6,.7,-1.2,1.9,-1.2,3.2c0,1,.3,1.7,1.3,1.7c1.3,0,1.8,-.8,2.1,-1.5h.1c-.2,.9,-.1,1.5,.5,1.5c.4,0,.8,-.1,1.2,-.4c.3,-.4,.7,-.8,1,-1.4l-.1,-.1c-.3,.4,-1,1.3,-1.4,1.3c-.2,0,-.3,-.3,-.3,-.6c0,-.9,.6,-2.4,1,-3.4l.7,-1.8h-1l-.3,.6c-.2,-.4,-.5,-.7,-1,-.7Zm.1,.2c.7,0,.5,1.3,.4,1.9c0,.3,-.2,.6,-.3,1c-.3,1.2,-1.4,3.1,-2.2,3.1c-.6,0,-.8,-.9,-.8,-1.4c0,-.5,0,-.9,.2,-1.4c.4,-1,1.4,-3.2,2.7,-3.2Z" class="g0_69"/>
<path d="M375.1,138.3c-.8,0,-1.3,-.7,-1.3,-1.4c0,-.5,.3,-1,.8,-1c-.1,-.2,-.4,-.4,-.7,-.4c-.2,0,-.3,0,-.5,.1c-.4,.2,-.7,.6,-.7,1.2c0,.2,.1,.4,.2,.6c.4,.7,1.2,1.1,2.2,1.1c.8,0,1.4,-.3,1.8,-.6c.4,-.4,.8,-.8,.8,-1.5c0,-.3,-.1,-.5,-.2,-.7c-.2,-.7,-.8,-1.1,-1.5,-1.3v-.1c.4,-.1,.8,-.3,1,-.7c.2,-.2,.4,-.6,.4,-1.1c0,-.3,0,-.5,-.1,-.7c-.4,-.7,-1.2,-1,-2.2,-1c-.6,0,-1.1,.1,-1.5,.3c-.3,.2,-.6,.6,-.6,1c0,.3,.1,.6,.3,.8c.1,.1,.4,.3,.7,.3c.2,0,.3,-.1,.5,-.1c.1,-.1,.2,-.2,.2,-.3c-.4,0,-.7,-.3,-.7,-.7c0,-.6,.5,-1.2,1.1,-1.2c.8,0,1.2,.7,1.2,1.6c0,.9,-.3,1.8,-1.1,1.8c-.2,0,-.4,-.1,-.6,-.1c-.2,0,-.5,0,-.5,.2c0,.3,.3,.4,.5,.4c.3,0,.5,-.2,.7,-.3c.9,0,1.1,.8,1.1,1.8c0,1,-.4,2,-1.3,2Z" class="g0_69"/>
<path d="M380.9,133.7c-.6,0,-1,-.5,-1,-1.1c0,-.8,.4,-1.7,1.3,-1.7c1.2,0,1.3,1,1.3,1.9c0,1,-.3,1.5,-.7,2.2c-.3,.4,-.7,.8,-1.1,1.3c-.5,.5,-1.1,1.1,-1.9,1.8v.3h4.6l.3,-2.1h-.3c0,.2,-.1,.4,-.2,.6c-.2,.3,-.5,.5,-1,.5h-2.1c.5,-.4,.9,-.7,1.4,-1.1c.7,-.6,1.5,-1.4,1.9,-2.2c.2,-.4,.3,-.8,.3,-1.2c0,-.3,-.1,-.6,-.2,-.9c-.3,-.7,-1.1,-1.3,-2.2,-1.3c-.7,0,-1.3,.3,-1.7,.6c-.4,.3,-.7,.8,-.7,1.5c0,.4,.1,.8,.4,1c.2,.3,.5,.4,.9,.4c.4,0,.7,-.1,.7,-.5Z" class="g0_69"/>
<path d="M404.6,129.6c-.5,0,-.9,.1,-1.3,.4c-.5,.3,-.9,.7,-1.3,1.2c-.6,.7,-1.2,1.9,-1.2,3.2c0,1,.4,1.7,1.3,1.7c1.3,0,1.8,-.8,2.2,-1.5c-.2,.9,-.1,1.5,.5,1.5c.4,0,.8,-.1,1.2,-.4c.4,-.4,.7,-.8,1.1,-1.4l-.2,-.1c-.3,.4,-.9,1.3,-1.4,1.3c-.2,0,-.2,-.3,-.2,-.6c0,-.9,.6,-2.4,.9,-3.4l.7,-1.8h-1l-.3,.6c-.1,-.4,-.4,-.7,-1,-.7Zm.1,.2c.7,0,.6,1.3,.5,1.9c-.1,.3,-.2,.6,-.3,1c-.4,1.2,-1.5,3.1,-2.3,3.1c-.6,0,-.8,-.9,-.8,-1.4c0,-.5,0,-.9,.2,-1.4c.4,-1,1.4,-3.2,2.7,-3.2Z" class="g0_69"/>
<path d="M410.4,138.3c-.8,0,-1.3,-.7,-1.3,-1.4c0,-.5,.3,-1,.8,-1c0,-.2,-.4,-.4,-.7,-.4c-.2,0,-.3,0,-.5,.1c-.4,.2,-.7,.6,-.7,1.2c0,.2,.1,.4,.2,.6c.4,.7,1.2,1.1,2.2,1.1c.8,0,1.4,-.3,1.8,-.6c.5,-.4,.8,-.8,.8,-1.5c0,-.3,-.1,-.5,-.1,-.7c-.3,-.7,-.9,-1.1,-1.6,-1.3v-.1c.4,-.1,.8,-.3,1,-.7c.3,-.2,.5,-.6,.5,-1.1c0,-.3,-.1,-.5,-.2,-.7c-.3,-.7,-1.2,-1,-2.2,-1c-.6,0,-1.1,.1,-1.5,.3c-.3,.2,-.6,.6,-.6,1c0,.3,.1,.6,.3,.8c.2,.1,.4,.3,.7,.3c.2,0,.3,-.1,.5,-.1c.1,-.1,.2,-.2,.2,-.3c-.4,0,-.7,-.3,-.7,-.7c0,-.6,.5,-1.2,1.1,-1.2c.8,0,1.2,.7,1.2,1.6c0,.9,-.3,1.8,-1.1,1.8c-.2,0,-.4,-.1,-.6,-.1c-.2,0,-.5,0,-.5,.2c0,.3,.3,.4,.5,.4c.3,0,.5,-.2,.7,-.3c.9,0,1.1,.8,1.1,1.8c0,1,-.3,2,-1.3,2Z" class="g0_69"/>
<path d="M416.5,138.3c-.8,0,-1.3,-.7,-1.3,-1.4c0,-.5,.3,-1,.8,-1c0,-.2,-.4,-.4,-.7,-.4c-.2,0,-.3,0,-.5,.1c-.4,.2,-.7,.6,-.7,1.2c0,.2,.1,.4,.2,.6c.4,.7,1.2,1.1,2.2,1.1c.8,0,1.4,-.3,1.8,-.6c.5,-.4,.8,-.8,.8,-1.5c0,-.3,-.1,-.5,-.1,-.7c-.3,-.7,-.9,-1.1,-1.6,-1.3v-.1c.4,-.1,.8,-.3,1,-.7c.3,-.2,.5,-.6,.5,-1.1c0,-.3,-.1,-.5,-.2,-.7c-.3,-.7,-1.2,-1,-2.2,-1c-.6,0,-1.1,.1,-1.5,.3c-.3,.2,-.6,.6,-.6,1c0,.3,.1,.6,.3,.8c.2,.1,.4,.3,.7,.3c.2,0,.3,-.1,.5,-.1c.1,-.1,.2,-.2,.2,-.3c-.4,0,-.7,-.3,-.7,-.7c0,-.6,.5,-1.2,1.1,-1.2c.8,0,1.2,.7,1.2,1.6c0,.9,-.3,1.8,-1.1,1.8c-.2,0,-.4,-.1,-.6,-.1c-.2,0,-.5,0,-.5,.2c0,.3,.3,.4,.5,.4c.3,0,.5,-.2,.7,-.3c.9,0,1.1,.8,1.1,1.8c0,1,-.3,2,-1.3,2Z" class="g0_69"/>
<path d="M420.9,88.7c0,.1,.1,.2,.1,.4c3.2,5.4,4,19.1,4,20.3v.7h1.4v-.7c0,-1.6,-.5,-15.4,-5.3,-20.8c0,0,-.1,0,-.1,0c0,0,-.1,0,-.1,.1Z" class="g0_69"/>
<path d="M425,119.3h1.4v-9.6H425Z" class="g0_69"/>
<path d="M420.9,140.5c0,0,.1,.1,.1,.1c0,0,.1,0,.1,-.1c4.8,-5.3,5.3,-19.2,5.3,-20.7v-.7H425v.7c0,1.2,-.8,14.9,-4,20.3c0,.2,-.1,.3,-.1,.4Z" class="g0_69"/>
<path d="M430.4,90.3l1.2,-4.5c0,-.2,.1,-.4,.2,-.5c.2,-.4,.3,-.7,.9,-.7c1.2,0,1.5,.7,1.5,1.8h.3l.2,-2h-6.6l-.9,2h.3c.5,-.9,1.1,-1.8,2.6,-1.8c.5,0,.6,.2,.6,.6c0,.2,-.1,.4,-.1,.6l-1.2,4.6c-.2,.6,-.5,1.2,-1,1.3c-.1,0,-.3,.1,-.5,.1v.1h3.4v-.1c-.4,0,-.7,-.1,-.9,-.2c-.1,-.1,-.2,-.4,-.2,-.6c0,-.2,.1,-.4,.2,-.7Z" class="g0_69"/>
<path d="M440.8,116.5h7.6v-.8h-7.6Zm0,-3h7.6v-.9h-7.6Z" class="g0_69"/>
<path d="M459.4,88.7q0,-.1,0,-.1q-.1,0,-.1,0c-4.8,5.4,-5.4,19.2,-5.4,20.8v.7h1.4v-.7c0,-1.2,.8,-14.9,4,-20.3c.1,-.2,.1,-.3,.1,-.4Z" class="g0_69"/>
<path d="M453.9,119.3h1.4v-9.6h-1.4Z" class="g0_69"/>
<path d="M459.4,140.5c0,-.1,0,-.2,-.1,-.4c-3.2,-5.4,-4,-19.1,-4,-20.3v-.7h-1.4v.7c0,1.5,.6,15.4,5.4,20.7q0,.1,0,.1h.1c0,0,0,-.1,0,-.1Z" class="g0_69"/>
<path d="M464.4,93.8c-.4,0,-.8,.1,-1.3,.4c-.4,.3,-.9,.7,-1.2,1.2c-.7,.7,-1.3,1.9,-1.3,3.2c0,1,.4,1.7,1.3,1.7c1.3,0,1.8,-.8,2.2,-1.5c-.2,.9,-.1,1.5,.6,1.5c.3,0,.7,-.1,1.1,-.4c.4,-.4,.8,-.8,1.1,-1.4l-.2,-.1c-.3,.4,-.9,1.3,-1.3,1.3c-.2,0,-.3,-.3,-.3,-.6c0,-.9,.6,-2.4,.9,-3.4l.7,-1.8h-1l-.2,.6c-.2,-.4,-.5,-.7,-1.1,-.7Zm.2,.2c.6,0,.5,1.3,.4,1.9c-.1,.3,-.2,.6,-.3,1c-.4,1.2,-1.5,3.1,-2.3,3.1c-.6,0,-.7,-.9,-.7,-1.4c0,-.5,0,-.9,.2,-1.4c.3,-1,1.4,-3.2,2.7,-3.2Z" class="g0_69"/>
<path d="M468.8,95.5v.2c.3,0,.8,0,1,.1c.3,.2,.3,.3,.3,.7v4.8c0,.2,0,.4,0,.6c-.1,.4,-.7,.5,-1.2,.5v.2h3.4v-.2c-.4,0,-.9,0,-1.1,-.2c-.1,-.2,-.1,-.6,-.1,-1V95c-.6,.2,-1.6,.5,-2.3,.5Z" class="g0_69"/>
<path d="M474.9,95.5v.2c.3,0,.8,0,1,.1c.3,.2,.3,.3,.3,.7v4.8c0,.2,0,.4,-.1,.6c0,.4,-.6,.5,-1.1,.5v.2h3.4v-.2c-.4,0,-.9,0,-1.1,-.2c-.1,-.2,-.2,-.6,-.2,-1V95c-.5,.2,-1.5,.5,-2.2,.5Z" class="g0_69"/>
<path d="M499.7,93.8c-.4,0,-.8,.1,-1.3,.4c-.4,.3,-.8,.7,-1.2,1.2c-.6,.7,-1.3,1.9,-1.3,3.2c0,1,.4,1.7,1.4,1.7c1.2,0,1.7,-.8,2.1,-1.5h.1c-.3,.9,-.1,1.5,.5,1.5c.4,0,.7,-.1,1.1,-.4c.4,-.4,.8,-.8,1.1,-1.4l-.2,-.1c-.2,.4,-.9,1.3,-1.3,1.3c-.2,0,-.3,-.3,-.3,-.6c0,-.9,.6,-2.4,1,-3.4l.7,-1.8h-1l-.3,.6c-.2,-.4,-.5,-.7,-1.1,-.7Zm.2,.2c.7,0,.5,1.3,.4,1.9c0,.3,-.2,.6,-.3,1c-.4,1.2,-1.4,3.1,-2.2,3.1c-.7,0,-.8,-.9,-.8,-1.4c0,-.5,0,-.9,.2,-1.4c.4,-1,1.4,-3.2,2.7,-3.2Z" class="g0_69"/>
<path d="M505.3,97.9c-.7,0,-1.1,-.5,-1.1,-1.1c0,-.8,.5,-1.7,1.4,-1.7c1.2,0,1.3,1,1.3,1.9c0,1,-.3,1.5,-.7,2.2c-.3,.4,-.7,.8,-1.2,1.3c-.4,.5,-1.1,1.1,-1.8,1.8v.3h4.6l.3,-2.1h-.3c0,.2,-.1,.4,-.2,.6c-.2,.3,-.5,.5,-1,.5h-2.1c.4,-.4,.9,-.7,1.3,-1.1c.8,-.6,1.6,-1.4,2,-2.2c.2,-.4,.3,-.8,.3,-1.2c0,-.3,-.1,-.6,-.2,-.9c-.4,-.7,-1.1,-1.3,-2.2,-1.3c-.7,0,-1.3,.3,-1.7,.6c-.4,.3,-.7,.8,-.7,1.5c0,.4,.1,.8,.4,1c.2,.3,.4,.4,.9,.4c.4,0,.6,-.2,.7,-.5Z" class="g0_69"/>
<path d="M510.2,95.5v.2c.3,0,.8,0,1,.1c.3,.2,.3,.3,.3,.7v4.8c0,.2,0,.4,0,.6c-.1,.4,-.7,.5,-1.2,.5v.2h3.4v-.2c-.4,0,-.9,0,-1.1,-.2c-.1,-.2,-.1,-.6,-.1,-1V95c-.6,.2,-1.6,.5,-2.3,.5Z" class="g0_69"/>
<path d="M535.1,93.8c-.5,0,-.9,.1,-1.4,.4c-.4,.3,-.8,.7,-1.2,1.2c-.6,.7,-1.2,1.9,-1.2,3.2c0,1,.3,1.7,1.3,1.7c1.3,0,1.8,-.8,2.1,-1.5h.1c-.2,.9,-.1,1.5,.5,1.5c.4,0,.7,-.1,1.1,-.4c.4,-.4,.8,-.8,1.1,-1.4l-.1,-.1c-.3,.4,-1,1.3,-1.4,1.3c-.2,0,-.3,-.3,-.3,-.6c0,-.9,.6,-2.4,1,-3.4l.7,-1.8h-1l-.3,.6c-.2,-.4,-.5,-.7,-1,-.7Zm.1,.2c.7,0,.5,1.3,.4,1.9c0,.3,-.2,.6,-.3,1c-.3,1.2,-1.4,3.1,-2.2,3.1c-.6,0,-.8,-.9,-.8,-1.4c0,-.5,0,-.9,.2,-1.4c.4,-1,1.4,-3.2,2.7,-3.2Z" class="g0_69"/>
<path d="M540.8,102.5c-.7,0,-1.2,-.7,-1.2,-1.4c0,-.5,.3,-1,.8,-1c-.1,-.2,-.4,-.4,-.7,-.4c-.2,0,-.3,0,-.5,.1c-.4,.2,-.7,.6,-.7,1.2c0,.2,.1,.4,.2,.6c.4,.7,1.1,1.1,2.2,1.1c.8,0,1.4,-.3,1.8,-.6c.4,-.4,.8,-.8,.8,-1.5c0,-.3,-.1,-.5,-.2,-.7c-.2,-.7,-.8,-1.1,-1.5,-1.3v-.1c.4,-.1,.8,-.3,1,-.7c.2,-.2,.4,-.6,.4,-1.1c0,-.3,0,-.5,-.1,-.7c-.4,-.7,-1.2,-1,-2.2,-1c-.6,0,-1.1,.1,-1.5,.3c-.3,.2,-.6,.6,-.6,1c0,.3,.1,.6,.3,.8c.1,.1,.4,.3,.7,.3c.2,0,.3,-.1,.5,-.1c.1,-.1,.2,-.2,.2,-.3c-.4,0,-.7,-.3,-.7,-.7c0,-.6,.5,-1.2,1.1,-1.2c.8,0,1.2,.7,1.2,1.6c0,.9,-.3,1.8,-1.1,1.8c-.2,0,-.4,-.1,-.6,-.1c-.2,0,-.5,0,-.5,.2c0,.3,.3,.4,.5,.4c.3,0,.5,-.2,.7,-.3c.9,0,1.1,.8,1.1,1.8c0,1,-.4,2,-1.4,2Z" class="g0_69"/>
<path d="M545.5,95.5v.2c.4,0,.8,0,1,.1c.3,.2,.3,.3,.3,.7v4.8c0,.2,0,.4,0,.6c-.1,.4,-.7,.5,-1.2,.5v.2H549v-.2c-.4,0,-.9,0,-1,-.2c-.2,-.2,-.2,-.6,-.2,-1V95c-.6,.2,-1.6,.5,-2.3,.5Z" class="g0_69"/>
<path d="M464.4,111.7c-.4,0,-.8,.1,-1.3,.4c-.4,.3,-.9,.7,-1.2,1.2c-.7,.7,-1.3,1.9,-1.3,3.2c0,1,.4,1.8,1.3,1.8c1.3,0,1.8,-.9,2.2,-1.6c-.2,.9,-.1,1.6,.6,1.6c.3,0,.7,-.2,1.1,-.5c.4,-.4,.8,-.8,1.1,-1.4l-.2,-.1c-.3,.4,-.9,1.3,-1.3,1.3c-.2,0,-.3,-.3,-.3,-.6c0,-.9,.6,-2.4,.9,-3.4l.7,-1.8h-1l-.2,.6c-.2,-.4,-.5,-.7,-1.1,-.7Zm.2,.2c.6,0,.5,1.3,.4,1.9c-.1,.3,-.2,.6,-.3,1c-.4,1.2,-1.5,3.1,-2.3,3.1c-.6,0,-.7,-.9,-.7,-1.4c0,-.5,0,-.9,.2,-1.4c.3,-1,1.4,-3.2,2.7,-3.2Z" class="g0_69"/>
<path d="M468.8,113.4v.2c.3,0,.8,0,1,.1c.3,.2,.3,.3,.3,.7v4.8c0,.2,0,.4,0,.6c-.1,.4,-.7,.5,-1.2,.5v.2h3.4v-.2c-.4,0,-.9,0,-1.1,-.2c-.1,-.2,-.1,-.6,-.1,-1v-6.2c-.6,.2,-1.6,.5,-2.3,.5Z" class="g0_69"/>
<path d="M476.1,115.8c-.7,0,-1.1,-.5,-1.1,-1.1c0,-.8,.4,-1.7,1.3,-1.7c1.2,0,1.4,1,1.4,1.9c0,1,-.3,1.5,-.7,2.2c-.3,.4,-.7,.8,-1.2,1.3c-.5,.5,-1.1,1.1,-1.8,1.8v.3h4.5l.4,-2.1h-.3c-.1,.2,-.2,.4,-.2,.6c-.2,.3,-.5,.5,-1,.5h-2.2c.5,-.4,1,-.7,1.4,-1.1c.8,-.6,1.6,-1.4,2,-2.2c.2,-.4,.2,-.8,.2,-1.2c0,-.3,0,-.6,-.1,-.9c-.4,-.7,-1.1,-1.3,-2.2,-1.3c-.7,0,-1.3,.3,-1.7,.6c-.4,.3,-.7,.8,-.7,1.5c0,.4,.1,.8,.3,1c.2,.3,.5,.4,.9,.4c.4,0,.7,-.1,.8,-.5Z" class="g0_69"/>
<path d="M499.7,111.7c-.4,0,-.8,.1,-1.3,.4c-.4,.3,-.8,.7,-1.2,1.2c-.6,.7,-1.3,1.9,-1.3,3.2c0,1,.4,1.8,1.4,1.8c1.2,0,1.7,-.9,2.1,-1.6h.1c-.3,.9,-.1,1.6,.5,1.6c.4,0,.7,-.2,1.1,-.5c.4,-.4,.8,-.8,1.1,-1.4l-.2,-.1c-.2,.4,-.9,1.3,-1.3,1.3c-.2,0,-.3,-.3,-.3,-.6c0,-.9,.6,-2.4,1,-3.4l.7,-1.8h-1l-.3,.6c-.2,-.4,-.5,-.7,-1.1,-.7Zm.2,.2c.7,0,.5,1.3,.4,1.9c0,.3,-.2,.6,-.3,1c-.4,1.2,-1.4,3.1,-2.2,3.1c-.7,0,-.8,-.9,-.8,-1.4c0,-.5,0,-.9,.2,-1.4c.4,-1,1.4,-3.2,2.7,-3.2Z" class="g0_69"/>
<path d="M505.3,115.8c-.7,0,-1.1,-.5,-1.1,-1.1c0,-.8,.5,-1.7,1.4,-1.7c1.2,0,1.3,1,1.3,1.9c0,1,-.3,1.5,-.7,2.2c-.3,.4,-.7,.8,-1.2,1.3c-.4,.5,-1.1,1.1,-1.8,1.8v.3h4.6l.3,-2.1h-.3c0,.2,-.1,.4,-.2,.6c-.2,.3,-.5,.5,-1,.5h-2.1c.4,-.4,.9,-.7,1.3,-1.1c.8,-.6,1.6,-1.4,2,-2.2c.2,-.4,.3,-.8,.3,-1.2c0,-.3,-.1,-.6,-.2,-.9c-.4,-.7,-1.1,-1.3,-2.2,-1.3c-.7,0,-1.3,.3,-1.7,.6c-.4,.3,-.7,.8,-.7,1.5c0,.4,.1,.8,.4,1c.2,.3,.4,.4,.9,.4c.4,0,.6,-.1,.7,-.5Z" class="g0_69"/>
<path d="M511.4,115.8c-.7,0,-1.1,-.5,-1.1,-1.1c0,-.8,.5,-1.7,1.4,-1.7c1.2,0,1.3,1,1.3,1.9c0,1,-.3,1.5,-.7,2.2c-.3,.4,-.7,.8,-1.2,1.3c-.4,.5,-1.1,1.1,-1.8,1.8v.3h4.6l.3,-2.1h-.3c0,.2,-.1,.4,-.2,.6c-.2,.3,-.5,.5,-1,.5h-2.1c.4,-.4,.9,-.7,1.3,-1.1c.8,-.6,1.6,-1.4,2,-2.2c.2,-.4,.3,-.8,.3,-1.2c0,-.3,-.1,-.6,-.2,-.9c-.4,-.7,-1.1,-1.3,-2.2,-1.3c-.7,0,-1.3,.3,-1.7,.6c-.4,.3,-.7,.8,-.7,1.5c0,.4,.1,.8,.4,1c.1,.3,.4,.4,.9,.4c.4,0,.6,-.1,.7,-.5Z" class="g0_69"/>
<path d="M535.1,111.7c-.5,0,-.9,.1,-1.4,.4c-.4,.3,-.8,.7,-1.2,1.2c-.6,.7,-1.2,1.9,-1.2,3.2c0,1,.3,1.8,1.3,1.8c1.3,0,1.8,-.9,2.1,-1.6h.1c-.2,.9,-.1,1.6,.5,1.6c.4,0,.7,-.2,1.1,-.5c.4,-.4,.8,-.8,1.1,-1.4l-.1,-.1c-.3,.4,-1,1.3,-1.4,1.3c-.2,0,-.3,-.3,-.3,-.6c0,-.9,.6,-2.4,1,-3.4l.7,-1.8h-1l-.3,.6c-.2,-.4,-.5,-.7,-1,-.7Zm.1,.2c.7,0,.5,1.3,.4,1.9c0,.3,-.2,.6,-.3,1c-.3,1.2,-1.4,3.1,-2.2,3.1c-.6,0,-.8,-.9,-.8,-1.4c0,-.5,0,-.9,.2,-1.4c.4,-1,1.4,-3.2,2.7,-3.2Z" class="g0_69"/>
<path d="M540.8,120.4c-.7,0,-1.2,-.7,-1.2,-1.4c0,-.5,.3,-1,.8,-1c-.1,-.2,-.4,-.4,-.7,-.4c-.2,0,-.3,0,-.5,.1c-.4,.2,-.7,.6,-.7,1.2c0,.2,.1,.4,.2,.6c.4,.7,1.1,1.1,2.2,1.1c.8,0,1.4,-.3,1.8,-.6c.4,-.4,.8,-.8,.8,-1.5c0,-.3,-.1,-.5,-.2,-.7c-.2,-.7,-.8,-1.1,-1.5,-1.3v-.1c.4,-.1,.8,-.3,1,-.7c.2,-.2,.4,-.6,.4,-1.1c0,-.3,0,-.5,-.1,-.7c-.4,-.7,-1.2,-1,-2.2,-1c-.6,0,-1.1,.1,-1.5,.3c-.3,.2,-.6,.6,-.6,1c0,.3,.1,.6,.3,.8c.1,.1,.4,.3,.7,.3c.2,0,.3,-.1,.5,-.1c.1,-.1,.2,-.2,.2,-.3c-.4,0,-.7,-.3,-.7,-.7c0,-.6,.5,-1.2,1.1,-1.2c.8,0,1.2,.7,1.2,1.6c0,.9,-.3,1.8,-1.1,1.8c-.2,0,-.4,-.1,-.6,-.1c-.2,0,-.5,0,-.5,.2c0,.3,.3,.4,.5,.4c.3,0,.5,-.2,.7,-.3c.9,0,1.1,.8,1.1,1.8c0,1,-.4,2,-1.4,2Z" class="g0_69"/>
<path d="M546.7,115.8c-.6,0,-1,-.5,-1,-1.1c0,-.8,.4,-1.7,1.3,-1.7c1.2,0,1.3,1,1.3,1.9c0,1,-.3,1.5,-.7,2.2c-.3,.4,-.7,.8,-1.1,1.3c-.5,.5,-1.1,1.1,-1.9,1.8v.3h4.6l.3,-2.1h-.3c0,.2,-.1,.4,-.2,.6c-.2,.3,-.5,.5,-1,.5h-2.1c.5,-.4,.9,-.7,1.4,-1.1c.7,-.6,1.5,-1.4,1.9,-2.2c.2,-.4,.3,-.8,.3,-1.2c0,-.3,-.1,-.6,-.2,-.9c-.3,-.7,-1.1,-1.3,-2.2,-1.3c-.7,0,-1.3,.3,-1.7,.6c-.4,.3,-.7,.8,-.7,1.5c0,.4,.1,.8,.4,1c.2,.3,.5,.4,.9,.4c.4,0,.7,-.1,.7,-.5Z" class="g0_69"/>
<path d="M464.4,129.6c-.4,0,-.8,.1,-1.3,.4c-.4,.3,-.9,.7,-1.2,1.2c-.7,.7,-1.3,1.9,-1.3,3.2c0,1,.4,1.7,1.3,1.7c1.3,0,1.8,-.8,2.2,-1.5c-.2,.9,-.1,1.5,.6,1.5c.3,0,.7,-.1,1.1,-.4c.4,-.4,.8,-.8,1.1,-1.4l-.2,-.1c-.3,.4,-.9,1.3,-1.3,1.3c-.2,0,-.3,-.3,-.3,-.6c0,-.9,.6,-2.4,.9,-3.4l.7,-1.8h-1l-.2,.6c-.2,-.4,-.5,-.7,-1.1,-.7Zm.2,.2c.6,0,.5,1.3,.4,1.9c-.1,.3,-.2,.6,-.3,1c-.4,1.2,-1.5,3.1,-2.3,3.1c-.6,0,-.7,-.9,-.7,-1.4c0,-.5,0,-.9,.2,-1.4c.3,-1,1.4,-3.2,2.7,-3.2Z" class="g0_69"/>
<path d="M468.8,131.3v.2c.3,0,.8,0,1,.1c.3,.2,.3,.3,.3,.7v4.8c0,.2,0,.4,0,.6c-.1,.4,-.7,.5,-1.2,.5v.2h3.4v-.2c-.4,0,-.9,0,-1.1,-.2c-.1,-.2,-.1,-.6,-.1,-1v-6.2c-.6,.2,-1.6,.5,-2.3,.5Z" class="g0_69"/>
<path d="M476.3,138.3c-.7,0,-1.3,-.7,-1.3,-1.4c0,-.5,.4,-1,.9,-1c-.1,-.2,-.4,-.4,-.8,-.4c-.1,0,-.3,0,-.4,.1c-.4,.2,-.7,.6,-.7,1.2c0,.2,0,.4,.2,.6c.3,.7,1.1,1.1,2.1,1.1c.8,0,1.4,-.3,1.9,-.6c.4,-.4,.7,-.8,.7,-1.5c0,-.3,0,-.5,-.1,-.7c-.3,-.7,-.8,-1.1,-1.6,-1.3v-.1c.5,-.1,.8,-.3,1.1,-.7c.2,-.2,.4,-.6,.4,-1.1c0,-.3,-.1,-.5,-.2,-.7c-.3,-.7,-1.1,-1,-2.1,-1c-.6,0,-1.2,.1,-1.6,.3c-.3,.2,-.5,.6,-.5,1c0,.3,.1,.6,.3,.8c.1,.1,.4,.3,.7,.3c.1,0,.3,-.1,.4,-.1c.2,-.1,.2,-.2,.3,-.3c-.5,0,-.8,-.3,-.8,-.7c0,-.6,.5,-1.2,1.2,-1.2c.7,0,1.1,.7,1.1,1.6c0,.9,-.2,1.8,-1,1.8c-.2,0,-.4,-.1,-.6,-.1c-.3,0,-.6,0,-.6,.2c0,.3,.4,.4,.6,.4c.2,0,.5,-.2,.6,-.3c.9,0,1.2,.8,1.2,1.8c0,1,-.4,2,-1.4,2Z" class="g0_69"/>
<path d="M499.7,129.6c-.4,0,-.8,.1,-1.3,.4c-.4,.3,-.8,.7,-1.2,1.2c-.6,.7,-1.3,1.9,-1.3,3.2c0,1,.4,1.7,1.4,1.7c1.2,0,1.7,-.8,2.1,-1.5h.1c-.3,.9,-.1,1.5,.5,1.5c.4,0,.7,-.1,1.1,-.4c.4,-.4,.8,-.8,1.1,-1.4l-.2,-.1c-.2,.4,-.9,1.3,-1.3,1.3c-.2,0,-.3,-.3,-.3,-.6c0,-.9,.6,-2.4,1,-3.4l.7,-1.8h-1l-.3,.6c-.2,-.4,-.5,-.7,-1.1,-.7Zm.2,.2c.7,0,.5,1.3,.4,1.9c0,.3,-.2,.6,-.3,1c-.4,1.2,-1.4,3.1,-2.2,3.1c-.7,0,-.8,-.9,-.8,-1.4c0,-.5,0,-.9,.2,-1.4c.4,-1,1.4,-3.2,2.7,-3.2Z" class="g0_69"/>
<path d="M505.3,133.7c-.7,0,-1.1,-.5,-1.1,-1.1c0,-.8,.5,-1.7,1.4,-1.7c1.2,0,1.3,1,1.3,1.9c0,1,-.3,1.5,-.7,2.2c-.3,.4,-.7,.8,-1.2,1.3c-.4,.5,-1.1,1.1,-1.8,1.8v.3h4.6l.3,-2.1h-.3c0,.2,-.1,.4,-.2,.6c-.2,.3,-.5,.5,-1,.5h-2.1c.4,-.4,.9,-.7,1.3,-1.1c.8,-.6,1.6,-1.4,2,-2.2c.2,-.4,.3,-.8,.3,-1.2c0,-.3,-.1,-.6,-.2,-.9c-.4,-.7,-1.1,-1.3,-2.2,-1.3c-.7,0,-1.3,.3,-1.7,.6c-.4,.3,-.7,.8,-.7,1.5c0,.4,.1,.8,.4,1c.2,.3,.4,.4,.9,.4c.4,0,.6,-.1,.7,-.5Z" class="g0_69"/>
<path d="M511.6,138.3c-.7,0,-1.3,-.7,-1.3,-1.4c0,-.5,.4,-1,.9,-1c-.1,-.2,-.4,-.4,-.8,-.4c-.1,0,-.3,0,-.4,.1c-.4,.2,-.7,.6,-.7,1.2c0,.2,.1,.4,.2,.6c.4,.7,1.1,1.1,2.1,1.1c.9,0,1.5,-.3,1.9,-.6c.4,-.4,.7,-.8,.7,-1.5c0,-.3,0,-.5,-.1,-.7c-.2,-.7,-.8,-1.1,-1.6,-1.3v-.1c.5,-.1,.8,-.3,1.1,-.7c.2,-.2,.4,-.6,.4,-1.1c0,-.3,0,-.5,-.1,-.7c-.4,-.7,-1.2,-1,-2.2,-1c-.6,0,-1.2,.1,-1.5,.3c-.3,.2,-.6,.6,-.6,1c0,.3,.1,.6,.3,.8c.1,.1,.4,.3,.7,.3c.1,0,.3,-.1,.4,-.1c.2,-.1,.2,-.2,.3,-.3c-.4,0,-.7,-.3,-.7,-.7c0,-.6,.5,-1.2,1.1,-1.2c.8,0,1.1,.7,1.1,1.6c0,.9,-.2,1.8,-1,1.8c-.2,0,-.4,-.1,-.6,-.1c-.2,0,-.5,0,-.5,.2c0,.3,.3,.4,.5,.4c.2,0,.5,-.2,.7,-.3c.9,0,1.1,.8,1.1,1.8c0,1,-.4,2,-1.4,2Z" class="g0_69"/>
<path d="M535.1,129.6c-.5,0,-.9,.1,-1.4,.4c-.4,.3,-.8,.7,-1.2,1.2c-.6,.7,-1.2,1.9,-1.2,3.2c0,1,.3,1.7,1.3,1.7c1.3,0,1.8,-.8,2.1,-1.5h.1c-.2,.9,-.1,1.5,.5,1.5c.4,0,.7,-.1,1.1,-.4c.4,-.4,.8,-.8,1.1,-1.4l-.1,-.1c-.3,.4,-1,1.3,-1.4,1.3c-.2,0,-.3,-.3,-.3,-.6c0,-.9,.6,-2.4,1,-3.4l.7,-1.8h-1l-.3,.6c-.2,-.4,-.5,-.7,-1,-.7Zm.1,.2c.7,0,.5,1.3,.4,1.9c0,.3,-.2,.6,-.3,1c-.3,1.2,-1.4,3.1,-2.2,3.1c-.6,0,-.8,-.9,-.8,-1.4c0,-.5,0,-.9,.2,-1.4c.4,-1,1.4,-3.2,2.7,-3.2Z" class="g0_69"/>
<path d="M540.8,138.3c-.7,0,-1.2,-.7,-1.2,-1.4c0,-.5,.3,-1,.8,-1c-.1,-.2,-.4,-.4,-.7,-.4c-.2,0,-.3,0,-.5,.1c-.4,.2,-.7,.6,-.7,1.2c0,.2,.1,.4,.2,.6c.4,.7,1.1,1.1,2.2,1.1c.8,0,1.4,-.3,1.8,-.6c.4,-.4,.8,-.8,.8,-1.5c0,-.3,-.1,-.5,-.2,-.7c-.2,-.7,-.8,-1.1,-1.5,-1.3v-.1c.4,-.1,.8,-.3,1,-.7c.2,-.2,.4,-.6,.4,-1.1c0,-.3,0,-.5,-.1,-.7c-.4,-.7,-1.2,-1,-2.2,-1c-.6,0,-1.1,.1,-1.5,.3c-.3,.2,-.6,.6,-.6,1c0,.3,.1,.6,.3,.8c.1,.1,.4,.3,.7,.3c.2,0,.3,-.1,.5,-.1c.1,-.1,.2,-.2,.2,-.3c-.4,0,-.7,-.3,-.7,-.7c0,-.6,.5,-1.2,1.1,-1.2c.8,0,1.2,.7,1.2,1.6c0,.9,-.3,1.8,-1.1,1.8c-.2,0,-.4,-.1,-.6,-.1c-.2,0,-.5,0,-.5,.2c0,.3,.3,.4,.5,.4c.3,0,.5,-.2,.7,-.3c.9,0,1.1,.8,1.1,1.8c0,1,-.4,2,-1.4,2Z" class="g0_69"/>
<path d="M546.9,138.3c-.7,0,-1.2,-.7,-1.2,-1.4c0,-.5,.3,-1,.8,-1c-.1,-.2,-.4,-.4,-.7,-.4c-.2,0,-.4,0,-.5,.1c-.4,.2,-.7,.6,-.7,1.2c0,.2,.1,.4,.2,.6c.4,.7,1.1,1.1,2.2,1.1c.8,0,1.4,-.3,1.8,-.6c.4,-.4,.8,-.8,.8,-1.5c0,-.3,-.1,-.5,-.2,-.7c-.2,-.7,-.8,-1.1,-1.5,-1.3v-.1c.4,-.1,.8,-.3,1,-.7c.2,-.2,.4,-.6,.4,-1.1c0,-.3,0,-.5,-.1,-.7c-.4,-.7,-1.2,-1,-2.2,-1c-.6,0,-1.1,.1,-1.5,.3c-.3,.2,-.6,.6,-.6,1c0,.3,.1,.6,.3,.8c.1,.1,.4,.3,.7,.3c.2,0,.3,-.1,.5,-.1c.1,-.1,.2,-.2,.2,-.3c-.4,0,-.7,-.3,-.7,-.7c0,-.6,.5,-1.2,1.1,-1.2c.8,0,1.2,.7,1.2,1.6c0,.9,-.3,1.8,-1.1,1.8c-.2,0,-.4,-.1,-.6,-.1c-.2,0,-.5,0,-.5,.2c0,.3,.3,.4,.5,.4c.3,0,.5,-.2,.7,-.3c.9,0,1.1,.8,1.1,1.8c0,1,-.4,2,-1.4,2Z" class="g0_69"/>
<path d="M551.4,88.7c0,.1,.1,.2,.1,.4c3.2,5.4,4,19.1,4,20.3v.7h1.4v-.7c0,-1.6,-.6,-15.4,-5.3,-20.8c0,0,-.1,0,-.1,0q-.1,0,-.1,.1Z" class="g0_69"/>
<path d="M555.5,119.3h1.4v-9.6h-1.4Z" class="g0_69"/>
<path d="M551.4,140.5c0,0,0,.1,.1,.1c0,0,.1,0,.1,-.1c4.7,-5.3,5.3,-19.2,5.3,-20.7v-.7h-1.4v.7c0,1.2,-.8,14.9,-4,20.3c0,.2,-.1,.3,-.1,.4Z" class="g0_69"/>
<path d="M313.1,365.4q0,-.1,-.1,-.1c0,0,-.1,0,-.1,0c-4.7,5.3,-5.3,19.2,-5.3,20.8v.6H309v-.6c0,-1.2,.8,-15,4,-20.4c.1,-.1,.1,-.2,.1,-.3Z" class="g0_69"/>
<path d="M307.6,396H309v-9.6h-1.4Z" class="g0_69"/>
<path d="M313.1,417.1c0,-.1,0,-.2,-.1,-.3c-3.2,-5.4,-4,-19.2,-4,-20.4v-.6h-1.4v.6c0,1.6,.6,15.5,5.3,20.8c0,0,.1,0,.1,0q.1,0,.1,-.1Z" class="g0_69"/>
<path d="M317.2,370.5c-.9,0,-1.5,-.7,-1.5,-1.6c0,-1.1,.6,-2.2,1.8,-2.2c1.7,0,1.8,1.3,1.8,2.6c0,1.2,-.3,2,-.9,2.9c-.4,.5,-1,1.2,-1.6,1.8c-.7,.7,-1.5,1.5,-2.5,2.4v.5h6.2L321,374h-.4c-.1,.3,-.2,.6,-.3,.8c-.2,.5,-.7,.8,-1.4,.8H316v-.1c.7,-.5,1.3,-1,1.9,-1.5c1,-.9,2.1,-1.8,2.7,-3.1c.2,-.5,.4,-1,.4,-1.6c0,-.4,-.1,-.8,-.3,-1.2c-.5,-1,-1.5,-1.7,-3,-1.7c-.9,0,-1.8,.3,-2.3,.8c-.6,.4,-1,1.1,-1,2c0,.6,.2,1.1,.5,1.4c.3,.4,.7,.6,1.2,.6c.6,0,1,-.3,1.1,-.7Z" class="g0_69"/>
<path d="M340.7,376.7c-.9,0,-1.7,-.9,-1.7,-1.9c0,-.7,.4,-1.3,1.1,-1.3c-.1,-.4,-.5,-.6,-1,-.6c-.2,0,-.4,.1,-.6,.2c-.5,.2,-.9,.8,-.9,1.5c0,.4,0,.7,.2,1c.5,.9,1.6,1.4,3,1.4c1.1,0,1.9,-.3,2.5,-.8c.6,-.5,1,-1.1,1,-2.1c0,-.3,0,-.7,-.1,-1c-.4,-.8,-1.2,-1.5,-2.2,-1.7v-.1c.6,-.2,1.1,-.5,1.4,-.9c.4,-.4,.6,-.9,.6,-1.6c0,-.3,-.1,-.7,-.2,-1c-.5,-.9,-1.6,-1.4,-3,-1.4c-.8,0,-1.6,.2,-2.1,.5c-.4,.3,-.7,.8,-.7,1.4c0,.4,.1,.8,.4,1c.1,.3,.5,.4,.9,.4c.2,0,.5,0,.6,-.1c.2,-.1,.3,-.2,.4,-.4c-.6,0,-1,-.4,-1,-1c0,-.8,.7,-1.5,1.5,-1.5c1.1,0,1.6,.9,1.6,2.2c0,1.2,-.3,2.4,-1.4,2.4c-.3,-.1,-.6,-.2,-.9,-.2c-.3,0,-.7,.1,-.7,.4c0,.3,.5,.4,.8,.4c.3,0,.7,-.2,.9,-.3c1.2,0,1.5,1.1,1.5,2.4c0,1.4,-.5,2.7,-1.9,2.7Z" class="g0_69"/>
<path d="M363.7,370.5c-.9,0,-1.5,-.7,-1.5,-1.6c0,-1.1,.6,-2.2,1.9,-2.2c1.6,0,1.8,1.3,1.8,2.6c0,1.2,-.4,2,-1,2.9c-.4,.5,-.9,1.2,-1.6,1.8c-.6,.7,-1.5,1.5,-2.5,2.4v.5h6.3l.5,-2.9h-.4c-.1,.3,-.3,.6,-.4,.8c-.2,.5,-.6,.8,-1.3,.8h-2.9v-.1c.6,-.5,1.3,-1,1.8,-1.5c1.1,-.9,2.1,-1.8,2.7,-3.1c.3,-.5,.4,-1,.4,-1.6c0,-.4,-.1,-.8,-.2,-1.2c-.5,-1,-1.5,-1.7,-3,-1.7c-1,0,-1.9,.3,-2.4,.8c-.5,.4,-1,1.1,-1,2c0,.6,.2,1.1,.5,1.4c.3,.4,.7,.6,1.3,.6c.5,0,.9,-.3,1,-.7Z" class="g0_69"/>
<path d="M317.9,386.4v5.4h-3.5c1.2,-1.8,2.3,-3.6,3.5,-5.4Zm-3.8,5.3v.6h3.8v.5c0,1.3,-.2,1.8,-.8,1.8v.2H320v-.2c-.6,0,-.8,-.8,-.8,-1.8v-.5h1.7c0,0,0,-.5,0,-.5c0,0,-1.7,0,-1.7,0v-7.5h-.4l-4.7,7.4Z" class="g0_69"/>
<path d="M340.5,388.4c-1,0,-1.5,-.7,-1.5,-1.6c0,-1.1,.6,-2.2,1.8,-2.2c1.6,0,1.8,1.3,1.8,2.6c0,1.2,-.4,2,-1,2.9c-.3,.5,-.9,1.2,-1.5,1.8c-.7,.7,-1.5,1.5,-2.5,2.4v.5h6.2l.5,-2.9h-.4c-.1,.3,-.2,.6,-.3,.8c-.3,.5,-.7,.8,-1.4,.8h-2.9v-.1c.6,-.5,1.3,-1,1.9,-1.5c1,-.9,2.1,-1.8,2.7,-3.1c.2,-.5,.3,-1,.3,-1.6c0,-.4,-.1,-.8,-.2,-1.2c-.5,-1,-1.5,-1.7,-3,-1.7c-1,0,-1.8,.3,-2.4,.8c-.5,.4,-.9,1.1,-.9,2c0,.6,.2,1.1,.5,1.4c.2,.4,.6,.6,1.2,.6c.6,0,1,-.3,1.1,-.7Z" class="g0_69"/>
<path d="M364,394.6c-1,0,-1.7,-.9,-1.7,-1.9c0,-.7,.4,-1.3,1.1,-1.3c-.1,-.4,-.5,-.6,-1,-.6c-.2,0,-.4,.1,-.6,.2c-.6,.2,-1,.8,-1,1.5c0,.4,.1,.7,.3,1c.5,.9,1.6,1.4,2.9,1.4c1.1,0,2,-.3,2.6,-.8c.6,-.5,1,-1.1,1,-2.1c0,-.3,-.1,-.7,-.2,-1c-.3,-.8,-1.1,-1.5,-2.1,-1.7v-.1c.6,-.2,1.1,-.5,1.4,-.9c.3,-.4,.6,-.9,.6,-1.6c0,-.3,-.1,-.7,-.2,-1c-.5,-.9,-1.6,-1.4,-3,-1.4c-.8,0,-1.6,.2,-2.1,.5c-.4,.3,-.8,.8,-.8,1.4c0,.4,.2,.8,.4,1c.2,.3,.6,.4,1,.4c.2,0,.4,0,.6,-.1c.2,-.1,.3,-.2,.3,-.4c-.5,0,-.9,-.4,-.9,-1c0,-.8,.6,-1.5,1.5,-1.5c1,0,1.6,.9,1.6,2.2c0,1.2,-.4,2.4,-1.5,2.4c-.2,-.1,-.5,-.2,-.8,-.2c-.3,0,-.7,.1,-.7,.4c0,.3,.4,.4,.7,.4c.4,0,.7,-.2,.9,-.3c1.3,0,1.6,1.1,1.6,2.4c0,1.4,-.5,2.7,-1.9,2.7Z" class="g0_69"/>
<path d="M315.9,405.8c0,-1.7,.4,-3.3,1.9,-3.3c1.2,0,1.8,1.7,1.8,3.9v.7c-.4,.9,-.9,1.8,-2,1.8c-1.3,0,-1.7,-1.7,-1.7,-3.1Zm-1.2,5.6c0,.7,1.3,1.4,2.3,1.4c3.2,0,4.1,-2.8,4.1,-5.9c0,-2.5,-.9,-4.7,-3.3,-4.7c-2.1,0,-3.4,1.6,-3.4,3.6c0,1.9,1.1,3.4,3,3.4c1,0,1.7,-.6,2.2,-1.3c0,1.2,0,2.4,-.4,3.1c-.3,.6,-.9,1.5,-1.9,1.5c-1.6,0,-1.1,-1.8,-2,-1.8c-.5,0,-.6,.2,-.6,.7Z" class="g0_69"/>
<path d="M342.9,409.3c0,1.6,-.4,3.2,-1.8,3.2c-1.3,0,-1.9,-1.7,-1.9,-3.9v-.7c.4,-.9,1,-1.7,2.1,-1.7c1.3,0,1.6,1.6,1.6,3.1Zm1.2,-5.6c0,-.8,-1.3,-1.5,-2.3,-1.5c-3.2,0,-4.1,2.8,-4.1,6c0,2.4,.9,4.6,3.3,4.6c2.1,0,3.4,-1.5,3.4,-3.6c0,-1.9,-1.1,-3.3,-3,-3.3c-1,0,-1.7,.6,-2.1,1.2h-.1c0,-1.1,0,-2.3,.4,-3.1c.3,-.6,.9,-1.5,1.9,-1.5c1.6,0,1.1,1.8,2,1.8c.5,0,.6,-.2,.6,-.6Z" class="g0_69"/>
<path d="M362.9,412.8c.3,0,.6,-.1,.8,-.4c.5,-.7,1,-2.1,1.3,-3l.9,-2.4c.6,-1.5,1.2,-2.9,1.9,-4.5v-.1h-4.4c-.5,0,-1.1,0,-1.2,-.4c0,-.2,0,-.3,0,-.5h-.3l-.9,3.8h.3l.2,-.5c.2,-.6,.6,-1,1.3,-1.1c.2,0,.5,0,.9,0H367l-2.1,3.5c-.4,.7,-.7,1.3,-1,1.8c-.3,.5,-.5,.9,-.7,1.3c-.3,.5,-.5,.9,-.7,1.4c0,.1,0,.3,0,.3c-.1,.1,-.1,.2,-.1,.3c0,.2,.2,.5,.5,.5Z" class="g0_69"/>
<path d="M368.9,365.4c0,.1,.1,.2,.2,.3c3.1,5.4,3.9,19.2,3.9,20.4v.6h1.4v-.6c0,-1.6,-.5,-15.5,-5.3,-20.8c0,0,-.1,0,-.1,0c0,0,-.1,0,-.1,.1Z" class="g0_69"/>
<path d="M373,396h1.4v-9.6H373Z" class="g0_69"/>
<path d="M368.9,417.1c0,.1,.1,.1,.1,.1c0,0,.1,0,.1,0c4.8,-5.3,5.3,-19.2,5.3,-20.8v-.6H373v.6c0,1.2,-.8,15,-3.9,20.4c-.1,.1,-.2,.2,-.2,.3Z" class="g0_69"/>
<path d="M387.1,394.5l-3.3,-3.3l3.3,-3.3l-.6,-.6l-3.3,3.3l-3.3,-3.3l-.6,.6l3.3,3.3l-3.3,3.3l.6,.6l3.3,-3.3l3.3,3.3l.6,-.6Z" class="g0_69"/>
<path d="M397.5,365.4q0,-.1,0,-.1q-.1,0,-.1,0c-4.8,5.3,-5.3,19.2,-5.3,20.8v.6h1.3v-.6c0,-1.2,.8,-15,4,-20.4c.1,-.1,.1,-.2,.1,-.3Z" class="g0_69"/>
<path d="M392.1,396h1.3v-9.6h-1.3Z" class="g0_69"/>
<path d="M397.5,417.1c0,-.1,0,-.2,-.1,-.3c-3.2,-5.4,-4,-19.2,-4,-20.4v-.6h-1.3v.6c0,1.6,.5,15.5,5.3,20.8h.1v-.1Z" class="g0_69"/>
<path d="M398.9,373.5h7.7v-.9h-7.7Z" class="g0_69"/>
<path d="M411.8,368.5v5.4h-3.5c1.2,-1.8,2.3,-3.6,3.5,-5.4Zm-3.8,5.3v.6h3.8v.5c0,1.3,-.1,1.8,-.8,1.8v.2h2.9v-.2c-.6,0,-.8,-.8,-.8,-1.8v-.5h1.7c0,0,0,-.5,0,-.5c0,0,-1.7,0,-1.7,0v-7.5h-.4l-4.7,7.4Z" class="g0_69"/>
<path d="M431.7,373.5h7.6v-.9h-7.6Z" class="g0_69"/>
<path d="M442.6,370c0,-1.7,.4,-3.3,1.8,-3.3c1.3,0,1.9,1.7,1.9,3.9v.7c-.4,.9,-1,1.8,-2.1,1.8c-1.3,0,-1.6,-1.7,-1.6,-3.1Zm-1.2,5.6c0,.7,1.3,1.4,2.3,1.4c3.2,0,4.1,-2.8,4.1,-5.9c0,-2.5,-.9,-4.7,-3.3,-4.7c-2.1,0,-3.4,1.6,-3.4,3.6c0,1.9,1.1,3.4,3,3.4c1,0,1.7,-.6,2.1,-1.3h.1c0,1.2,0,2.4,-.4,3.1c-.3,.6,-.9,1.5,-1.9,1.5c-1.6,0,-1.1,-1.8,-2,-1.8c-.5,0,-.6,.2,-.6,.7Z" class="g0_69"/>
<path d="M475.2,366.4h-.1c-.3,.2,-.9,.3,-1.8,.3c-.6,0,-1.1,-.1,-1.5,-.3l-1.5,5.6v.1c0,.1,-.1,.2,.1,.2c.2,0,.2,-.1,.3,-.3c.3,-.8,.8,-1.4,1.7,-1.4c1.2,0,1.4,1,1.4,2.3c0,1,-.2,1.9,-.6,2.6c-.3,.5,-.8,1.2,-1.6,1.2c-.8,0,-1.1,-.7,-1.2,-1.3c-.2,-.5,-.2,-1,-.8,-1c-.4,0,-.7,.3,-.7,.8c0,.2,.1,.5,.2,.7c.5,.7,1.3,1.1,2.4,1.1c.6,0,1.1,-.1,1.6,-.3c1.3,-.6,2.4,-1.7,2.4,-3.5c0,-.4,-.1,-.8,-.3,-1.2c-.4,-1,-1.4,-1.7,-2.7,-1.7c-.5,0,-1.2,.2,-1.5,.6l.1,-.3l.7,-2.8c0,0,.8,.2,1.3,.2c1,0,1.9,-.6,2.1,-1.6Z" class="g0_69"/>
<path d="M398.9,391.4h7.7v-.9h-7.7Z" class="g0_69"/>
<path d="M409.5,385.1v.2c.4,0,1.1,.1,1.3,.2c.4,.2,.4,.4,.4,1V393c0,.3,0,.6,0,.8c-.1,.6,-.9,.7,-1.7,.8v.2h4.7v-.2c-.5,-.1,-1.2,-.1,-1.4,-.4c-.2,-.3,-.3,-.7,-.3,-1.3v-8.6c-.7,.4,-2.1,.7,-3,.8Z" class="g0_69"/>
<path d="M431.7,391.4h7.6v-.9h-7.6Z" class="g0_69"/>
<path d="M444.5,386.4l.1,5.4h-3.5c1.1,-1.8,2.3,-3.6,3.4,-5.4Zm-3.8,5.3v.6h3.9v.5c0,1.3,-.2,1.8,-.8,1.8v.2h2.8v-.2c-.6,0,-.7,-.8,-.7,-1.8v-.5h1.7c0,0,0,-.5,0,-.5c0,0,-1.7,0,-1.7,0v-7.5h-.4l-4.8,7.4Z" class="g0_69"/>
<path d="M471.9,388.4c-.9,0,-1.5,-.7,-1.5,-1.6c0,-1.1,.6,-2.2,1.8,-2.2c1.7,0,1.8,1.3,1.8,2.6c0,1.2,-.3,2,-1,2.9c-.3,.5,-.9,1.2,-1.5,1.8c-.7,.7,-1.5,1.5,-2.5,2.4v.5h6.2l.5,-2.9h-.4c-.1,.3,-.2,.6,-.3,.8c-.2,.5,-.7,.8,-1.4,.8h-2.9v-.1c.7,-.5,1.3,-1,1.9,-1.5c1,-.9,2.1,-1.8,2.7,-3.1c.2,-.5,.4,-1,.4,-1.6c0,-.4,-.1,-.8,-.3,-1.2c-.5,-1,-1.5,-1.7,-3,-1.7c-.9,0,-1.8,.3,-2.4,.8c-.5,.4,-.9,1.1,-.9,2c0,.6,.2,1.1,.5,1.4c.3,.4,.7,.6,1.2,.6c.6,0,1,-.3,1.1,-.7Z" class="g0_69"/>
<path d="M408.8,409.3c0,1.6,-.3,3.2,-1.8,3.2c-1.3,0,-1.9,-1.7,-1.9,-3.9v-.7c.4,-.9,1,-1.7,2.1,-1.7c1.3,0,1.6,1.6,1.6,3.1Zm1.2,-5.6c0,-.8,-1.3,-1.5,-2.3,-1.5c-3.2,0,-4.1,2.8,-4.1,6c0,2.4,.9,4.6,3.3,4.6c2.1,0,3.4,-1.5,3.4,-3.6c0,-1.9,-1.1,-3.3,-3,-3.3c-1,0,-1.7,.6,-2.1,1.2h-.1c0,-1.1,0,-2.3,.4,-3.1c.4,-.6,1,-1.5,1.9,-1.5c1.6,0,1.1,1.8,2,1.8c.5,0,.6,-.2,.6,-.6Z" class="g0_69"/>
<path d="M433.3,403v.2c.5,0,1.1,.1,1.3,.2c.5,.2,.4,.4,.5,1v6.5c0,.3,0,.6,-.1,.8c-.1,.6,-.9,.7,-1.6,.8v.2h4.7v-.2c-.5,-.1,-1.3,-.1,-1.5,-.4c-.2,-.3,-.2,-.7,-.2,-1.3v-8.6c-.8,.4,-2.1,.7,-3.1,.8Z" class="g0_69"/>
<path d="M446.6,402.2h-.1c-.3,.2,-.9,.3,-1.7,.3c-.7,0,-1.2,-.1,-1.6,-.3l-1.5,5.6v.1c0,.1,-.1,.2,.2,.2c.2,0,.1,-.1,.2,-.3c.3,-.8,.8,-1.4,1.7,-1.4c1.2,0,1.4,1,1.4,2.3c0,1,-.2,1.9,-.6,2.6c-.3,.5,-.8,1.2,-1.6,1.2c-.8,0,-1.1,-.7,-1.2,-1.3c-.2,-.5,-.2,-1,-.8,-1c-.4,0,-.6,.3,-.6,.8c0,.2,0,.5,.1,.7c.5,.7,1.3,1.1,2.5,1.1c.5,0,1,-.1,1.5,-.3c1.3,-.5,2.4,-1.7,2.4,-3.5c0,-.4,-.1,-.8,-.2,-1.2c-.4,-1,-1.5,-1.7,-2.8,-1.7c-.5,0,-1.1,.2,-1.5,.6l.1,-.3l.7,-2.8c0,0,.8,.2,1.3,.2c1.1,0,1.9,-.6,2.1,-1.6Z" class="g0_69"/>
<path d="M464.5,409.3h7.6v-.9h-7.6Z" class="g0_69"/>
<path d="M477.1,402.5c1.5,0,1.8,1.2,1.8,2.2c0,.8,-.6,1.5,-1.2,1.9c-.9,-.5,-2.3,-1,-2.3,-2.2c0,-1,.4,-1.9,1.7,-1.9Zm.9,4.3c.7,-.3,1.4,-.6,1.6,-.9c.3,-.4,.5,-.8,.5,-1.3c0,-1.5,-1.5,-2.4,-2.9,-2.4c-.8,0,-1.5,.3,-2.1,.8c-.4,.4,-.8,1.1,-.8,1.9c0,1,.6,1.9,1.9,2.6c-1.5,.7,-2.3,1.7,-2.3,2.8c0,1.6,1.4,2.5,3.3,2.5c1.8,0,3.2,-1.1,3.2,-3c0,-1.2,-.9,-2.3,-2.4,-3Zm-.8,5.7c-1.5,0,-2,-1.1,-2,-2.3c0,-1.2,.4,-2.1,1.3,-2.5l1,.5c.4,.2,.6,.4,.8,.6c.5,.3,.9,.7,.9,1.5c0,1,-.6,2.2,-2,2.2Z" class="g0_69"/>
<path d="M481.8,365.4c0,.1,.1,.2,.2,.3c3.1,5.4,3.9,19.2,3.9,20.4v.6h1.4v-.6c0,-1.6,-.5,-15.5,-5.3,-20.8c0,0,-.1,0,-.1,0c0,0,-.1,0,-.1,.1Z" class="g0_69"/>
<path d="M485.9,396h1.4v-9.6h-1.4Z" class="g0_69"/>
<path d="M481.8,417.1c0,.1,.1,.1,.1,.1c0,0,.1,0,.1,0c4.8,-5.3,5.3,-19.2,5.3,-20.8v-.6h-1.4v.6c0,1.2,-.8,15,-3.9,20.4c-.1,.1,-.2,.2,-.2,.3Z" class="g0_69"/>
<path d="M492.8,393.1h7.6v-.8h-7.6Zm0,-3h7.6v-.8h-7.6Z" class="g0_69"/>
<path d="M511.4,365.4q0,-.1,0,-.1q-.1,0,-.1,0c-4.8,5.3,-5.4,19.2,-5.4,20.8v.6h1.4v-.6c0,-1.2,.8,-15,4,-20.4c.1,-.1,.1,-.2,.1,-.3Z" class="g0_69"/>
<path d="M505.9,396h1.4v-9.6h-1.4Z" class="g0_69"/>
<path d="M511.4,417.1c0,-.1,0,-.2,-.1,-.3c-3.2,-5.4,-4,-19.2,-4,-20.4v-.6h-1.4v.6c0,1.6,.6,15.5,5.4,20.8h.1v-.1Z" class="g0_69"/>
<path d="M513.9,367.2v.2c.4,0,1.1,.1,1.3,.2c.4,.2,.4,.4,.4,1v6.5c0,.3,0,.6,0,.8c-.1,.6,-.9,.7,-1.6,.8v.2h4.7v-.2c-.6,-.1,-1.3,-.1,-1.5,-.4c-.2,-.3,-.2,-.7,-.2,-1.3v-8.6c-.8,.4,-2.2,.7,-3.1,.8Z" class="g0_69"/>
<path d="M539.4,376.7c-2,0,-2,-2.7,-2,-4.9c0,-2.2,0,-5.1,2,-5.1c1.9,0,1.9,2.9,1.9,5.1c0,2.2,0,4.9,-1.9,4.9Zm0,-10.3c-2.7,0,-3.4,2.7,-3.4,5.4c0,2.6,.8,5.2,3.4,5.2c2.5,0,3.3,-2.6,3.3,-5.2c0,-2.7,-.7,-5.4,-3.3,-5.4Z" class="g0_69"/>
<path d="M562.6,376.7c-1.9,0,-1.9,-2.7,-1.9,-4.9c0,-2.2,0,-5.1,1.9,-5.1c2,0,2,2.9,2,5.1c0,2.2,-.1,4.9,-2,4.9Zm0,-10.3c-2.6,0,-3.4,2.7,-3.4,5.4c0,2.6,.9,5.2,3.4,5.2c2.6,0,3.4,-2.6,3.4,-5.2c0,-2.7,-.8,-5.4,-3.4,-5.4Z" class="g0_69"/>
<path d="M516.1,394.6c-1.9,0,-2,-2.7,-2,-4.9c0,-2.2,0,-5.1,2,-5.1c1.9,0,1.9,2.9,1.9,5.1c0,2.2,0,4.9,-1.9,4.9Zm0,-10.3c-2.6,0,-3.4,2.7,-3.4,5.4c0,2.6,.8,5.2,3.4,5.2c2.6,0,3.4,-2.6,3.4,-5.2c0,-2.7,-.8,-5.4,-3.4,-5.4Z" class="g0_69"/>
<path d="M537.2,385.1v.2c.4,0,1,.1,1.3,.2c.4,.2,.4,.4,.4,1V393c0,.3,0,.6,0,.8c-.1,.6,-.9,.7,-1.7,.8v.2h4.7v-.2c-.5,-.1,-1.2,-.1,-1.4,-.4c-.3,-.3,-.3,-.7,-.3,-1.3v-8.6c-.8,.4,-2.1,.7,-3,.8Z" class="g0_69"/>
<path d="M562.6,394.6c-1.9,0,-1.9,-2.7,-1.9,-4.9c0,-2.2,0,-5.1,1.9,-5.1c2,0,2,2.9,2,5.1c0,2.2,-.1,4.9,-2,4.9Zm0,-10.3c-2.6,0,-3.4,2.7,-3.4,5.4c0,2.6,.9,5.2,3.4,5.2c2.6,0,3.4,-2.6,3.4,-5.2c0,-2.7,-.8,-5.4,-3.4,-5.4Z" class="g0_69"/>
<path d="M516.1,412.5c-1.9,0,-2,-2.7,-2,-4.9c0,-2.2,0,-5.1,2,-5.1c1.9,0,1.9,2.9,1.9,5.1c0,2.2,0,4.9,-1.9,4.9Zm0,-10.3c-2.6,0,-3.4,2.7,-3.4,5.4c0,2.6,.8,5.2,3.4,5.2c2.6,0,3.4,-2.6,3.4,-5.2c0,-2.7,-.8,-5.4,-3.4,-5.4Z" class="g0_69"/>
<path d="M539.4,412.5c-2,0,-2,-2.7,-2,-4.9c0,-2.2,0,-5.1,2,-5.1c1.9,0,1.9,2.9,1.9,5.1c0,2.2,0,4.9,-1.9,4.9Zm0,-10.3c-2.7,0,-3.4,2.7,-3.4,5.4c0,2.6,.8,5.2,3.4,5.2c2.5,0,3.3,-2.6,3.3,-5.2c0,-2.7,-.7,-5.4,-3.3,-5.4Z" class="g0_69"/>
<path d="M560.4,403v.2c.5,0,1.1,.1,1.3,.2c.5,.2,.5,.4,.5,1v6.5c0,.3,0,.6,-.1,.8c-.1,.6,-.9,.7,-1.6,.8v.2h4.7v-.2c-.5,-.1,-1.3,-.1,-1.5,-.4c-.2,-.3,-.2,-.7,-.2,-1.3v-8.6c-.8,.4,-2.1,.7,-3.1,.8Z" class="g0_69"/>
<path d="M567.3,365.4c0,.1,0,.2,.1,.3c3.2,5.4,4,19.2,4,20.4v.6h1.3v-1.4c-.1,-3.3,-.9,-15.2,-5.3,-20h-.1v.1Z" class="g0_69"/>
<path d="M571.4,396h1.3v-9.6h-1.3Z" class="g0_69"/>
<path d="M567.3,417.1q0,.1,0,.1h.1c4.4,-4.8,5.2,-16.7,5.3,-20v-1.4h-1.3v.6c0,1.2,-.8,15,-4,20.4c-.1,.1,-.1,.2,-.1,.3Z" class="g0_69"/>
<path d="M313.1,503.1c0,0,0,-.1,-.1,-.1c0,0,-.1,0,-.1,.1c-4.7,5.3,-5.3,19.2,-5.3,20.7v.7H309v-.7c0,-1.2,.8,-14.9,4,-20.3c.1,-.1,.1,-.3,.1,-.4Z" class="g0_69"/>
<path d="M307.6,533.8H309v-9.6h-1.4Z" class="g0_69"/>
<path d="M313.1,554.9c0,-.1,0,-.2,-.1,-.4c-3.2,-5.4,-4,-19.1,-4,-20.3v-.7h-1.4v.7c0,1.6,.6,15.4,5.3,20.8c0,0,.1,0,.1,0q.1,0,.1,-.1Z" class="g0_69"/>
<path d="M314.5,511.3h7.6v-.9h-7.6Z" class="g0_69"/>
<path d="M327.4,506.3v5.4h-3.5c1.1,-1.8,2.3,-3.7,3.5,-5.4Zm-3.9,5.3v.6h3.9v.5c0,1.3,-.2,1.7,-.8,1.7v.3h2.8v-.3c-.5,0,-.7,-.7,-.7,-1.8v-.4h1.7c0,0,0,-.5,0,-.5c0,0,-1.7,0,-1.7,0v-7.5h-.4l-4.8,7.4Z" class="g0_69"/>
<path d="M347.3,511.3h7.6v-.9h-7.6Z" class="g0_69"/>
<path d="M358.2,507.7c0,-1.6,.3,-3.2,1.8,-3.2c1.3,0,1.9,1.7,1.9,3.9v.7c-.5,.9,-1,1.8,-2.1,1.8c-1.3,0,-1.6,-1.7,-1.6,-3.2Zm-1.2,5.6c0,.8,1.3,1.5,2.3,1.5c3.2,0,4.1,-2.8,4.1,-6c0,-2.4,-1,-4.6,-3.4,-4.6c-2,0,-3.4,1.5,-3.4,3.6c0,1.9,1.2,3.4,3.1,3.4c1,0,1.6,-.6,2.1,-1.3c0,1.1,.1,2.3,-.4,3.1c-.3,.6,-.9,1.5,-1.9,1.5c-1.5,0,-1.1,-1.8,-1.9,-1.8c-.6,0,-.6,.2,-.6,.6Z" class="g0_69"/>
<path d="M390.8,504.2h-.1c-.4,.2,-1,.2,-1.8,.2c-.7,0,-1.1,0,-1.6,-.2l-1.4,5.5q0,.1,0,.1c0,.2,-.1,.3,.1,.3c.2,0,.2,-.1,.3,-.4c.2,-.7,.8,-1.3,1.7,-1.3c1.1,0,1.4,1,1.4,2.3c0,1,-.2,1.9,-.6,2.5c-.4,.6,-.9,1.3,-1.7,1.3c-.7,0,-1,-.7,-1.2,-1.3c-.1,-.5,-.2,-1,-.8,-1c-.4,0,-.6,.3,-.6,.7c0,.3,.1,.6,.2,.8c.4,.7,1.3,1.1,2.4,1.1c.5,0,1.1,-.1,1.6,-.3c1.3,-.6,2.3,-1.7,2.3,-3.5c0,-.5,0,-.9,-.2,-1.2c-.4,-1,-1.4,-1.8,-2.8,-1.8c-.5,0,-1.1,.3,-1.5,.7l.1,-.3l.8,-2.8c0,0,.8,.2,1.3,.2c1,0,1.9,-.6,2.1,-1.6Z" class="g0_69"/>
<path d="M314.5,529.2h7.6v-.9h-7.6Z" class="g0_69"/>
<path d="M325,522.9v.2c.5,0,1.1,0,1.3,.1c.5,.3,.5,.4,.5,1.1v6.5c0,.3,0,.6,-.1,.7c0,.7,-.8,.8,-1.6,.8v.3h4.7v-.3c-.5,0,-1.2,0,-1.5,-.3c-.2,-.3,-.2,-.8,-.2,-1.3v-8.6c-.8,.4,-2.1,.7,-3.1,.8Z" class="g0_69"/>
<path d="M347.3,529.2h7.6v-.9h-7.6Z" class="g0_69"/>
<path d="M360.1,524.2v5.4h-3.4c1.1,-1.8,2.3,-3.7,3.4,-5.4Zm-3.8,5.3v.6h3.8v.5c0,1.3,-.1,1.7,-.8,1.7v.3h2.9v-.3c-.6,0,-.8,-.7,-.8,-1.8v-.4h1.8c0,0,0,-.5,0,-.5c0,0,-1.7,0,-1.8,0v-7.5H361l-4.7,7.4Z" class="g0_69"/>
<path d="M387.4,526.2c-.9,0,-1.4,-.7,-1.4,-1.6c0,-1.1,.5,-2.2,1.8,-2.2c1.6,0,1.8,1.3,1.8,2.6c0,1.2,-.4,2,-1,2.9c-.4,.5,-.9,1.1,-1.5,1.8c-.7,.7,-1.5,1.5,-2.6,2.4v.5h6.3l.5,-2.9h-.4c-.1,.3,-.3,.6,-.3,.8c-.3,.5,-.7,.7,-1.4,.7h-2.9c.6,-.5,1.3,-1,1.9,-1.5c1,-.9,2.1,-1.9,2.6,-3.1c.3,-.5,.4,-1.1,.4,-1.6c0,-.4,-.1,-.8,-.2,-1.2c-.5,-1,-1.5,-1.7,-3,-1.7c-1,0,-1.8,.3,-2.4,.8c-.5,.4,-.9,1.1,-.9,2c0,.6,.2,1.1,.5,1.4c.2,.3,.6,.6,1.2,.6c.5,0,.9,-.3,1,-.7Z" class="g0_69"/>
<path d="M324.4,547c0,1.7,-.4,3.3,-1.9,3.3c-1.2,0,-1.8,-1.7,-1.8,-3.9v-.7c.4,-.9,.9,-1.8,2,-1.8c1.3,0,1.7,1.7,1.7,3.1Zm1.2,-5.6c0,-.7,-1.3,-1.4,-2.4,-1.4c-3.1,0,-4.1,2.8,-4.1,5.9c0,2.5,1,4.7,3.4,4.7c2.1,0,3.4,-1.6,3.4,-3.6c0,-1.9,-1.1,-3.4,-3,-3.4c-1.1,0,-1.7,.6,-2.2,1.3c0,-1.2,0,-2.3,.4,-3.1c.3,-.6,.9,-1.5,1.9,-1.5c1.6,0,1.1,1.8,2,1.8c.5,0,.6,-.2,.6,-.7Z" class="g0_69"/>
<path d="M348.9,540.8v.2c.4,0,1.1,0,1.3,.1c.4,.3,.4,.4,.4,1.1v6.5c0,.3,0,.6,0,.7c-.1,.7,-.9,.8,-1.7,.8v.3h4.7v-.3c-.5,0,-1.2,0,-1.4,-.3c-.2,-.3,-.3,-.8,-.3,-1.3V540c-.7,.4,-2.1,.7,-3,.8Z" class="g0_69"/>
<path d="M362.2,540h-.1c-.4,.2,-1,.2,-1.8,.2c-.7,0,-1.1,0,-1.6,-.2l-1.4,5.5q0,.1,0,.1c0,.2,-.1,.3,.1,.3c.2,0,.2,-.1,.3,-.4c.3,-.7,.8,-1.3,1.7,-1.3c1.2,0,1.4,1,1.4,2.3c0,1,-.2,1.9,-.6,2.5c-.3,.6,-.8,1.3,-1.6,1.3c-.8,0,-1.1,-.7,-1.3,-1.3c-.1,-.5,-.2,-1,-.7,-1c-.5,0,-.7,.3,-.7,.7c0,.3,.1,.6,.2,.8c.4,.7,1.3,1.1,2.4,1.1c.6,0,1.1,-.1,1.6,-.3c1.3,-.6,2.3,-1.7,2.3,-3.5c0,-.5,0,-.9,-.2,-1.2c-.4,-1,-1.4,-1.8,-2.7,-1.8c-.5,0,-1.2,.3,-1.5,.7v-.3l.8,-2.8c0,0,.8,.2,1.3,.2c1,0,1.9,-.6,2.1,-1.6Z" class="g0_69"/>
<path d="M380,547.1h7.6v-.9H380Z" class="g0_69"/>
<path d="M392.6,540.3c1.6,-.1,1.9,1.2,1.9,2.1c0,.9,-.6,1.6,-1.2,2c-1,-.5,-2.3,-1,-2.3,-2.2c0,-1,.4,-1.9,1.6,-1.9Zm1,4.3c.6,-.3,1.3,-.6,1.6,-1c.3,-.4,.4,-.8,.4,-1.2c0,-1.5,-1.4,-2.4,-2.9,-2.4c-.8,0,-1.5,.3,-2,.8c-.5,.4,-.9,1,-.9,1.9c0,1,.7,1.9,1.9,2.6c-1.5,.7,-2.2,1.6,-2.2,2.7c0,1.7,1.4,2.6,3.2,2.6c1.8,0,3.3,-1.2,3.3,-3c0,-1.2,-1,-2.3,-2.4,-3Zm-.8,5.7c-1.5,0,-2,-1.1,-2,-2.3c0,-1.2,.4,-2.1,1.2,-2.6l1.1,.6c.3,.2,.6,.4,.8,.5c.5,.4,.9,.8,.9,1.5c0,1.1,-.7,2.3,-2,2.3Z" class="g0_69"/>
<path d="M397.4,503.1c0,.1,0,.3,.1,.4c3.2,5.4,4,19.1,4,20.3v.7h1.4v-.7c0,-1.5,-.6,-15.4,-5.3,-20.7q-.1,-.1,-.1,-.1c-.1,0,-.1,.1,-.1,.1Z" class="g0_69"/>
<path d="M401.5,533.8h1.4v-9.6h-1.4Z" class="g0_69"/>
<path d="M397.4,554.9q0,.1,.1,.1h.1c4.7,-5.4,5.3,-19.2,5.3,-20.8v-.7h-1.4v.7c0,1.2,-.8,14.9,-4,20.3c-.1,.2,-.1,.3,-.1,.4Z" class="g0_69"/>
<path d="M415.6,532.3L412.3,529l3.3,-3.3l-.6,-.6l-3.3,3.3l-3.3,-3.3l-.6,.6l3.3,3.3l-3.3,3.3l.6,.6l3.3,-3.3l3.3,3.3l.6,-.6Z" class="g0_69"/>
<path d="M426,503.1c0,0,0,-.1,-.1,-.1c0,0,-.1,0,-.1,.1c-4.7,5.3,-5.3,19.2,-5.3,20.7v.7h1.4v-.7c0,-1.2,.8,-14.9,4,-20.3c.1,-.1,.1,-.3,.1,-.4Z" class="g0_69"/>
<path d="M420.5,533.8h1.4v-9.6h-1.4Z" class="g0_69"/>
<path d="M426,554.9c0,-.1,0,-.2,-.1,-.4c-3.2,-5.4,-4,-19.1,-4,-20.3v-.7h-1.4v.7c0,1.6,.6,15.4,5.3,20.8c0,0,.1,0,.1,0q.1,0,.1,-.1Z" class="g0_69"/>
<path d="M430.1,508.3c-.9,0,-1.5,-.7,-1.5,-1.6c0,-1.1,.6,-2.2,1.8,-2.2c1.7,0,1.8,1.3,1.8,2.6c0,1.2,-.3,2,-.9,2.9c-.4,.5,-1,1.1,-1.6,1.8c-.7,.7,-1.5,1.5,-2.5,2.4v.5h6.2l.5,-2.9h-.4c-.1,.3,-.2,.6,-.3,.8c-.2,.5,-.7,.7,-1.4,.7h-2.9c.7,-.5,1.3,-1,1.9,-1.5c1,-.9,2.1,-1.9,2.7,-3.1c.2,-.5,.4,-1.1,.4,-1.6c0,-.4,-.1,-.8,-.3,-1.2c-.5,-1,-1.5,-1.7,-3,-1.7c-.9,0,-1.8,.3,-2.4,.8c-.5,.4,-.9,1.1,-.9,2c0,.6,.2,1.1,.5,1.4c.3,.3,.7,.6,1.2,.6c.6,0,1,-.3,1.1,-.7Z" class="g0_69"/>
<path d="M453.6,514.5c-.9,0,-1.7,-.9,-1.7,-1.9c0,-.7,.4,-1.3,1.1,-1.3c-.1,-.4,-.5,-.6,-1,-.6c-.2,0,-.4,.1,-.6,.2c-.5,.2,-.9,.8,-.9,1.5c0,.4,0,.7,.2,1c.5,.9,1.6,1.4,3,1.4c1.1,0,1.9,-.4,2.5,-.8c.6,-.5,1,-1.2,1,-2.1c0,-.4,0,-.7,-.2,-1c-.3,-.9,-1.1,-1.5,-2.1,-1.8c.6,-.2,1.1,-.5,1.4,-.9c.3,-.4,.6,-1,.6,-1.6c0,-.4,-.1,-.7,-.2,-1c-.5,-.9,-1.6,-1.4,-3,-1.4c-.8,0,-1.6,.2,-2.1,.5c-.4,.3,-.7,.7,-.7,1.4c0,.4,.1,.8,.4,1c.1,.2,.5,.4,.9,.4c.2,0,.5,0,.6,-.1c.2,-.1,.3,-.2,.4,-.4c-.6,0,-1,-.4,-1,-1c0,-.8,.7,-1.5,1.5,-1.5c1.1,0,1.6,.9,1.6,2.1c0,1.3,-.3,2.5,-1.4,2.5c-.3,-.1,-.6,-.2,-.9,-.2c-.3,0,-.7,.1,-.7,.3c0,.3,.5,.5,.8,.5c.3,0,.7,-.2,.9,-.3c1.2,0,1.5,1.1,1.5,2.4c0,1.4,-.5,2.7,-1.9,2.7Z" class="g0_69"/>
<path d="M476.6,508.3c-.9,0,-1.5,-.7,-1.5,-1.6c0,-1.1,.6,-2.2,1.9,-2.2c1.6,0,1.8,1.3,1.8,2.6c0,1.2,-.4,2,-1,2.9c-.4,.5,-.9,1.1,-1.6,1.8c-.6,.7,-1.5,1.5,-2.5,2.4v.5H480l.5,-2.9h-.4c-.1,.3,-.3,.6,-.4,.8c-.2,.5,-.6,.7,-1.3,.7h-2.9c.6,-.5,1.3,-1,1.8,-1.5c1.1,-.9,2.1,-1.9,2.7,-3.1c.3,-.5,.4,-1.1,.4,-1.6c0,-.4,-.1,-.8,-.2,-1.2c-.5,-1,-1.5,-1.7,-3,-1.7c-1,0,-1.9,.3,-2.4,.8c-.5,.4,-1,1.1,-1,2c0,.6,.2,1.1,.5,1.4c.3,.3,.7,.6,1.3,.6c.5,0,.9,-.3,1,-.7Z" class="g0_69"/>
<path d="M430.8,524.2v5.4h-3.5c1.2,-1.8,2.3,-3.7,3.5,-5.4Zm-3.8,5.3v.6h3.8v.5c0,1.3,-.2,1.7,-.8,1.7v.3h2.9v-.3c-.6,0,-.8,-.7,-.8,-1.8v-.4h1.7c0,0,0,-.5,0,-.5c0,0,-1.7,0,-1.7,0v-7.5h-.4l-4.7,7.4Z" class="g0_69"/>
<path d="M453.3,526.2c-.9,0,-1.4,-.7,-1.4,-1.6c0,-1.1,.6,-2.2,1.8,-2.2c1.6,0,1.8,1.3,1.8,2.6c0,1.2,-.4,2,-1,2.9c-.3,.5,-.9,1.1,-1.5,1.8c-.7,.7,-1.5,1.5,-2.6,2.4v.5h6.3l.5,-2.9h-.4c-.1,.3,-.2,.6,-.3,.8c-.3,.5,-.7,.7,-1.4,.7h-2.9c.6,-.5,1.3,-1,1.9,-1.5c1,-.9,2.1,-1.9,2.7,-3.1c.2,-.5,.3,-1.1,.3,-1.6c0,-.4,-.1,-.8,-.2,-1.2c-.5,-1,-1.5,-1.7,-3,-1.7c-1,0,-1.8,.3,-2.4,.8c-.5,.4,-.9,1.1,-.9,2c0,.6,.2,1.1,.5,1.4c.2,.3,.6,.6,1.2,.6c.6,0,1,-.3,1,-.7Z" class="g0_69"/>
<path d="M476.9,532.4c-1,0,-1.7,-.9,-1.7,-1.9c0,-.7,.4,-1.3,1.1,-1.3c-.1,-.4,-.5,-.6,-1,-.6c-.2,0,-.4,.1,-.6,.2c-.6,.2,-1,.8,-1,1.5c0,.4,.1,.7,.3,1c.5,.9,1.5,1.4,2.9,1.4c1.1,0,2,-.4,2.6,-.8c.6,-.5,1,-1.2,1,-2.1c0,-.4,-.1,-.7,-.2,-1c-.3,-.9,-1.1,-1.5,-2.1,-1.8c.6,-.2,1.1,-.5,1.4,-.9c.3,-.4,.6,-1,.6,-1.6c0,-.4,-.1,-.7,-.2,-1c-.5,-.9,-1.6,-1.4,-3,-1.4c-.8,0,-1.6,.2,-2.1,.5c-.4,.3,-.8,.7,-.8,1.4c0,.4,.2,.8,.4,1c.2,.2,.6,.4,1,.4c.2,0,.4,0,.6,-.1c.2,-.1,.3,-.2,.3,-.4c-.5,0,-.9,-.4,-.9,-1c0,-.8,.6,-1.5,1.5,-1.5c1,0,1.6,.9,1.6,2.1c0,1.3,-.4,2.5,-1.5,2.5c-.2,-.1,-.5,-.2,-.8,-.2c-.3,0,-.7,.1,-.7,.3c0,.3,.4,.5,.7,.5c.4,0,.7,-.2,.9,-.3c1.3,0,1.6,1.1,1.6,2.4c0,1.4,-.5,2.7,-1.9,2.7Z" class="g0_69"/>
<path d="M428.8,543.5c0,-1.6,.4,-3.2,1.9,-3.2c1.2,0,1.8,1.7,1.8,3.9v.7c-.4,.9,-1,1.8,-2,1.8c-1.3,0,-1.7,-1.7,-1.7,-3.2Zm-1.2,5.6c0,.8,1.3,1.5,2.3,1.5c3.2,0,4.1,-2.8,4.1,-6c0,-2.4,-.9,-4.6,-3.3,-4.6c-2.1,0,-3.4,1.5,-3.4,3.6c0,1.9,1.1,3.3,3,3.3c1,0,1.7,-.5,2.2,-1.2c0,1.1,0,2.3,-.4,3.1c-.3,.6,-.9,1.5,-1.9,1.5c-1.6,0,-1.1,-1.8,-2,-1.8c-.5,0,-.6,.2,-.6,.6Z" class="g0_69"/>
<path d="M455.8,547c0,1.7,-.4,3.3,-1.8,3.3c-1.3,0,-1.9,-1.7,-1.9,-3.9v-.7c.4,-.9,1,-1.8,2.1,-1.8c1.3,0,1.6,1.7,1.6,3.1Zm1.2,-5.6c0,-.7,-1.3,-1.4,-2.3,-1.4c-3.2,0,-4.1,2.8,-4.1,5.9c0,2.5,.9,4.7,3.3,4.7c2.1,0,3.4,-1.6,3.4,-3.6c0,-1.9,-1.1,-3.4,-3,-3.4c-1,0,-1.7,.6,-2.1,1.3h-.1c0,-1.2,0,-2.3,.4,-3.1c.3,-.6,.9,-1.5,1.9,-1.5c1.6,0,1.1,1.8,2,1.8c.5,0,.6,-.2,.6,-.7Z" class="g0_69"/>
<path d="M475.8,550.6c.3,0,.6,-.2,.8,-.4c.4,-.8,1,-2.1,1.3,-3l.9,-2.4c.6,-1.5,1.2,-2.9,1.9,-4.5v-.2h-4.4c-.5,0,-1.1,.1,-1.2,-.4c0,-.1,0,-.3,0,-.4h-.3l-.9,3.8h.3l.2,-.5c.2,-.7,.6,-1.1,1.3,-1.1c.2,0,.5,0,.9,0h3.3l-2.1,3.5c-.4,.7,-.8,1.3,-1,1.8c-.3,.5,-.5,.9,-.7,1.3c-.3,.5,-.5,.9,-.7,1.4c0,.1,0,.2,0,.3c-.1,.1,-.1,.2,-.1,.2c0,.3,.2,.6,.5,.6Z" class="g0_69"/>
<path d="M481.8,503.1c0,.1,.1,.3,.2,.4c3.1,5.4,3.9,19.1,3.9,20.3v.7h1.4v-.7c0,-1.5,-.5,-15.4,-5.3,-20.7c0,-.1,-.1,-.1,-.1,-.1c0,0,-.1,.1,-.1,.1Z" class="g0_69"/>
<path d="M485.9,533.8h1.4v-9.6h-1.4Z" class="g0_69"/>
<path d="M481.8,554.9c0,.1,.1,.1,.1,.1c0,0,.1,0,.1,0c4.8,-5.4,5.3,-19.2,5.3,-20.8v-.7h-1.4v.7c0,1.2,-.8,14.9,-3.9,20.3c-.1,.2,-.2,.3,-.2,.4Z" class="g0_69"/>
<path d="M492.8,530.9h7.6v-.8h-7.6Zm0,-3h7.6v-.8h-7.6Z" class="g0_69"/>
<path d="M511.4,503.1c0,0,0,-.1,0,-.1q-.1,0,-.1,.1c-4.8,5.3,-5.4,19.2,-5.4,20.7v.7h1.4v-.7c0,-1.2,.8,-14.9,4,-20.3c.1,-.1,.1,-.3,.1,-.4Z" class="g0_69"/>
<path d="M505.9,533.8h1.4v-9.6h-1.4Z" class="g0_69"/>
<path d="M511.4,554.9c0,-.1,0,-.2,-.1,-.4c-3.2,-5.4,-4,-19.1,-4,-20.3v-.7h-1.4v.7c0,1.6,.6,15.4,5.4,20.8h.1v-.1Z" class="g0_69"/>
<path d="M513.9,505v.2c.4,0,1.1,0,1.3,.1c.4,.3,.4,.4,.4,1.1v6.5c0,.3,0,.6,0,.7c-.1,.7,-.9,.8,-1.6,.8v.3h4.7v-.3c-.6,0,-1.3,0,-1.5,-.3c-.2,-.3,-.2,-.8,-.2,-1.3v-8.6c-.8,.4,-2.2,.7,-3.1,.8Z" class="g0_69"/>
<path d="M539.4,514.5c-2,0,-2,-2.7,-2,-4.9c0,-2.2,0,-5.1,2,-5.1c1.9,0,1.9,2.9,1.9,5.1c0,2.2,0,4.9,-1.9,4.9Zm0,-10.3c-2.7,0,-3.4,2.7,-3.4,5.4c0,2.6,.8,5.2,3.4,5.2c2.5,0,3.3,-2.6,3.3,-5.2c0,-2.7,-.7,-5.4,-3.3,-5.4Z" class="g0_69"/>
<path d="M562.6,514.5c-1.9,0,-1.9,-2.7,-1.9,-4.9c0,-2.2,0,-5.1,1.9,-5.1c2,0,2,2.9,2,5.1c0,2.2,-.1,4.9,-2,4.9Zm0,-10.3c-2.6,0,-3.4,2.7,-3.4,5.4c0,2.6,.9,5.2,3.4,5.2c2.6,0,3.4,-2.6,3.4,-5.2c0,-2.7,-.8,-5.4,-3.4,-5.4Z" class="g0_69"/>
<path d="M516.1,532.4c-1.9,0,-2,-2.7,-2,-4.9c0,-2.2,0,-5.1,2,-5.1c1.9,0,1.9,2.9,1.9,5.1c0,2.2,0,4.9,-1.9,4.9Zm0,-10.3c-2.6,0,-3.4,2.7,-3.4,5.4c0,2.6,.8,5.2,3.4,5.2c2.6,0,3.4,-2.6,3.4,-5.2c0,-2.7,-.8,-5.4,-3.4,-5.4Z" class="g0_69"/>
<path d="M537.2,522.9v.2c.4,0,1,0,1.3,.1c.4,.3,.4,.4,.4,1.1v6.5c0,.3,0,.6,0,.7c-.1,.7,-.9,.8,-1.7,.8v.3h4.7v-.3c-.5,0,-1.2,0,-1.4,-.3c-.3,-.3,-.3,-.8,-.3,-1.3v-8.6c-.8,.4,-2.1,.7,-3,.8Z" class="g0_69"/>
<path d="M562.6,532.4c-1.9,0,-1.9,-2.7,-1.9,-4.9c0,-2.2,0,-5.1,1.9,-5.1c2,0,2,2.9,2,5.1c0,2.2,-.1,4.9,-2,4.9Zm0,-10.3c-2.6,0,-3.4,2.7,-3.4,5.4c0,2.6,.9,5.2,3.4,5.2c2.6,0,3.4,-2.6,3.4,-5.2c0,-2.7,-.8,-5.4,-3.4,-5.4Z" class="g0_69"/>
<path d="M516.1,550.3c-1.9,0,-2,-2.7,-2,-4.9c0,-2.2,0,-5.1,2,-5.1c1.9,0,1.9,2.9,1.9,5.1c0,2.2,0,4.9,-1.9,4.9Zm0,-10.3c-2.6,0,-3.4,2.7,-3.4,5.4c0,2.6,.8,5.2,3.4,5.2c2.6,0,3.4,-2.6,3.4,-5.2c0,-2.7,-.8,-5.4,-3.4,-5.4Z" class="g0_69"/>
<path d="M539.4,550.3c-2,0,-2,-2.7,-2,-4.9c0,-2.2,0,-5.1,2,-5.1c1.9,0,1.9,2.9,1.9,5.1c0,2.2,0,4.9,-1.9,4.9Zm0,-10.3c-2.7,0,-3.4,2.7,-3.4,5.4c0,2.6,.8,5.2,3.4,5.2c2.5,0,3.3,-2.6,3.3,-5.2c0,-2.7,-.7,-5.4,-3.3,-5.4Z" class="g0_69"/>
<path d="M560.4,540.8v.2c.5,0,1.1,0,1.3,.1c.5,.3,.5,.4,.5,1.1v6.5c0,.3,0,.6,-.1,.7c-.1,.7,-.9,.8,-1.6,.8v.3h4.7v-.3c-.5,0,-1.3,0,-1.5,-.3c-.2,-.3,-.2,-.8,-.2,-1.3V540c-.8,.4,-2.1,.7,-3.1,.8Z" class="g0_69"/>
<path d="M567.3,503.1c0,.1,0,.3,.1,.4c3.2,5.4,4,19.1,4,20.3v.7h1.3v-1.4c-.1,-3.3,-.9,-15.2,-5.3,-20q0,-.1,0,-.1h-.1c0,0,0,.1,0,.1Z" class="g0_69"/>
<path d="M571.4,533.8h1.3v-9.6h-1.3Z" class="g0_69"/>
<path d="M567.3,554.9q0,.1,0,.1h.1c4.4,-4.9,5.2,-16.7,5.3,-20.1v-1.4h-1.3v.7c0,1.2,-.8,14.9,-4,20.3c-.1,.2,-.1,.3,-.1,.4Z" class="g0_69"/>
</svg>