<?xml version="1.0" encoding="UTF-8" standalone="no"?>
<!DOCTYPE svg PUBLIC "-//W3C//DTD SVG 1.1//EN"
"http://www.w3.org/Graphics/SVG/1.1/DTD/svg11.dtd">
<svg viewBox="0 0 811 1017" version="1.1" xmlns="http://www.w3.org/2000/svg" xmlns:xlink="http://www.w3.org/1999/xlink">
<defs>
<style type="text/css"><![CDATA[
.g0_305{
fill: #FFF;
}
.g1_305{
fill: #F9FBFB;
}
.g2_305{
fill: #F3F6F7;
}
.g3_305{
fill: #F0F3F4;
}
.g4_305{
fill: #F6F7F7;
}
.g5_305{
fill: #EDEFF0;
}
.g6_305{
fill: #040504;
}
.g7_305{
fill: #B0B2B1;
}
.g8_305{
fill: #D74562;
}
.g9_305{
fill: #4C7BBF;
}
]]></style>
</defs>
<path d="M138.3,568.1H312.9V447.2H138.3Z" class="g0_305"/>
<path d="M302.9,539.2L211.6,525.9l-.1,.3l-.3,-76.3h.1l93,9l-1.4,80.3Z" class="g1_305"/>
<path d="M303.6,540l-.3,-.1h.1l-.3,-.6l-.4,.2L211.5,526.2l.1,-.3l91.3,13.3l1.4,-80.3l-93,-9l-.1,-.3l.1,-.3l93.7,9L303.6,540Z" class="g1_305"/>
<path d="M150.1,548l-1.5,-83.2l62.6,-14.9l.3,76.3l-.1,-.3L150.1,548Z" class="g2_305"/>
<path d="M149.5,548.9v-.2l.3,.1l-.3,.1Zm0,-.6l-1.5,-84l63.2,-15v.6l-62.6,14.9l1.5,83.2l-.6,.3Z" class="g2_305"/>
<path d="M211.2,449.9v0h.1h-.1Z" class="g3_305"/>
<path d="M211.3,449.9h-.1v-.3l.1,.3Z" class="g3_305"/>
<path d="M247.1,564.5L151,548.4l60.6,-21.9l90.5,13.3l-55,24.7ZM211.5,526.2v0Z" class="g4_305"/>
<path d="M302.1,539.8L211.6,526.5l-.1,-.3l91.2,13.3l-.6,.3Z" class="g2_305"/>
<path d="M151,548.4l60.6,-21.9L151,548.4Z" class="g3_305"/>
<path d="M247.2,565.1L149.8,548.8l1.2,-.4l96.1,16.1l55,-24.7l1.2,.1l-56.1,25.2ZM149.5,548.7l-1,-.1l1,-.3v.4Z" class="g4_305"/>
<path d="M303.3,539.9l-1.2,-.1l.6,-.3l.4,-.2l.3,.6h-.1Z" class="g2_305"/>
<path d="M149.8,548.8l-.3,-.1v-.4l.6,-.3l61.3,-22.1l.1,.3v.3h.1l-61.8,22.3Z" class="g3_305"/>
<path d="M211.6,526.5h-.1v-.3l.1,.3Z" class="g5_305"/>
<path d="M303.4,539.3l-56.6,25.4l.2,.4l56.6,-25.4l-.2,-.4Z" class="g6_305"/>
<path d="M295.6,567.1l-1.3,1.7l1.4,1.8H295l-1,-1.4l-1,1.4h-.7l1.3,-1.8l-1.2,-1.7h.7l.9,1.3l.9,-1.3h.7Z" class="g6_305"/>
<path d="M302.3,539.8L210.6,526.4l-.3,-76.5h-.5l.3,76.7l.3,.2l91.8,13.5l.1,-.5Z" class="g7_305"/>
<path d="M289.8,545.4l-93,-14l-.5,-78.2h-.5l.5,78.4l.2,.2l93.2,14.1l.1,-.5Z" class="g7_305"/>
<path d="M276.7,551.3L182.4,536.6l-.9,-79.9H181l.9,80.1l.2,.2l94.5,14.8l.1,-.5Z" class="g7_305"/>
<path d="M262.9,557.5L167.2,542l-1.1,-81.6h-.5l1.1,81.9l.2,.2L262.8,558l.1,-.5Z" class="g7_305"/>
<path d="M301.2,540.2l2.8,.4l.1,-.5l-2.9,-.4v.5Z" class="g6_305"/>
<path d="M306.9,547.7c.5,0,.9,.2,1.2,.6c.3,.4,.4,1,.4,1.8c0,.7,-.1,1.3,-.4,1.7c-.3,.4,-.7,.7,-1.2,.7c-.5,0,-.9,-.3,-1.2,-.7c-.2,-.4,-.4,-1,-.4,-1.7c0,-.8,.2,-1.4,.4,-1.8c.3,-.4,.7,-.6,1.2,-.6Zm0,.5c-.3,0,-.6,.1,-.7,.4c-.2,.4,-.3,.8,-.3,1.5c0,.6,.1,1.1,.3,1.4c.1,.3,.4,.5,.7,.5c.3,0,.6,-.2,.7,-.5c.2,-.3,.3,-.8,.3,-1.4c0,-.7,-.1,-1.1,-.3,-1.5c-.1,-.3,-.4,-.4,-.7,-.4Z" class="g6_305"/>
<path d="M309.6,552.4h.6v-.8h-.6Z" class="g6_305"/>
<path d="M312.9,547.7c.5,0,.9,.2,1.2,.6c.3,.4,.4,1,.4,1.8c0,.7,-.1,1.3,-.4,1.7c-.3,.4,-.7,.7,-1.2,.7c-.5,0,-.9,-.3,-1.2,-.7c-.2,-.4,-.4,-1,-.4,-1.7c0,-.8,.2,-1.4,.4,-1.8c.3,-.4,.7,-.6,1.2,-.6Zm0,.5c-.3,0,-.5,.1,-.7,.4c-.2,.4,-.2,.8,-.2,1.5c0,.6,0,1.1,.2,1.4c.2,.3,.4,.5,.7,.5c.3,0,.6,-.2,.7,-.5c.2,-.3,.3,-.8,.3,-1.4c0,-.7,-.1,-1.1,-.3,-1.5c-.1,-.3,-.4,-.4,-.7,-.4Z" class="g6_305"/>
<path d="M288.7,545.8l2.8,.4l.1,-.5l-2.9,-.4v.5Z" class="g6_305"/>
<path d="M294.5,553.5c.6,0,.9,.2,1.2,.6c.3,.4,.4,1,.4,1.8c0,.8,-.1,1.3,-.4,1.8c-.3,.4,-.6,.6,-1.2,.6c-.5,0,-.9,-.2,-1.1,-.6c-.3,-.5,-.4,-1,-.4,-1.8c0,-.8,.1,-1.4,.4,-1.8c.2,-.4,.6,-.6,1.1,-.6Zm0,.5c-.3,0,-.5,.2,-.7,.5c-.1,.3,-.2,.8,-.2,1.4c0,.6,.1,1.1,.2,1.4c.2,.3,.4,.5,.7,.5c.4,0,.6,-.2,.8,-.5c.1,-.3,.2,-.8,.2,-1.4c0,-.6,-.1,-1.1,-.2,-1.4c-.2,-.3,-.4,-.5,-.8,-.5Z" class="g6_305"/>
<path d="M297.2,558.2h.7v-.8h-.7Z" class="g6_305"/>
<path d="M299.2,553.6h2.5v.5h-1.9v1.1h.3l.2,-.1c.6,0,1,.2,1.3,.5c.3,.2,.4,.6,.4,1.1c0,.5,-.1,.9,-.5,1.2c-.3,.2,-.7,.4,-1.3,.4c-.2,0,-.3,-.1,-.5,-.1c-.2,0,-.5,-.1,-.7,-.1v-.7c.2,.1,.4,.2,.6,.3c.2,0,.4,0,.6,0c.4,0,.7,-.1,.9,-.2c.2,-.2,.3,-.5,.3,-.8c0,-.3,-.1,-.6,-.3,-.8c-.2,-.1,-.5,-.2,-.9,-.2c-.1,0,-.3,0,-.5,0c-.1,.1,-.3,.1,-.5,.2v-2.3Z" class="g6_305"/>
<path d="M275.5,551.7l2.9,.4l.1,-.5l-2.9,-.4l-.1,.5Z" class="g6_305"/>
<path d="M280.4,563.8h1v-3.6l-1.1,.3v-.6l1.1,-.2h.6v4.1h1v.5h-2.6v-.5Z" class="g6_305"/>
<path d="M284.3,564.3h.6v-.8h-.6Z" class="g6_305"/>
<path d="M287.6,559.6c.5,0,.9,.2,1.2,.6c.2,.4,.4,1,.4,1.8c0,.8,-.2,1.3,-.4,1.8c-.3,.4,-.7,.6,-1.2,.6c-.5,0,-.9,-.2,-1.2,-.6c-.3,-.5,-.4,-1,-.4,-1.8c0,-.8,.1,-1.4,.4,-1.8c.3,-.4,.7,-.6,1.2,-.6Zm0,.5c-.3,0,-.6,.1,-.7,.5c-.2,.3,-.3,.8,-.3,1.4c0,.6,.1,1.1,.3,1.4c.1,.3,.4,.5,.7,.5c.3,0,.5,-.2,.7,-.5c.2,-.3,.3,-.8,.3,-1.4c0,-.6,-.1,-1.1,-.3,-1.4c-.2,-.4,-.4,-.5,-.7,-.5Z" class="g6_305"/>
<path d="M261.8,557.8l2.9,.5l.1,-.5l-3,-.5v.5Z" class="g6_305"/>
<path d="M266.7,570.2h1.1v-3.5l-1.1,.2v-.6l1.1,-.2h.6v4.1h1v.5h-2.7v-.5Z" class="g6_305"/>
<path d="M270.6,570.7h.7v-.8h-.7Z" class="g6_305"/>
<path d="M272.7,566.1h2.4v.5h-1.9v1.1h.3l.3,-.1c.5,0,.9,.2,1.2,.5c.3,.2,.4,.6,.4,1.1c0,.5,-.1,.9,-.4,1.2c-.3,.2,-.8,.4,-1.3,.4c-.2,0,-.4,0,-.6,-.1c-.2,0,-.4,-.1,-.6,-.1v-.7c.1,.1,.3,.2,.5,.3c.2,0,.4,0,.7,0c.3,0,.6,0,.8,-.2c.2,-.2,.3,-.5,.3,-.8c0,-.3,-.1,-.6,-.3,-.8c-.2,-.1,-.5,-.2,-.8,-.2c-.2,0,-.4,0,-.5,0c-.2,.1,-.4,.1,-.5,.2v-2.3Z" class="g6_305"/>
<path d="M149.5,548.7l97.9,16.4l.1,-.5L149.6,548.2l-.1,.5Z" class="g6_305"/>
<path d="M185.7,577.9c-.1,.4,-.3,.7,-.5,.8c-.1,.2,-.3,.2,-.6,.2h-.4v-.4h.3c.2,0,.3,-.1,.4,-.2c.1,0,.2,-.2,.3,-.5l.1,-.2l-1.4,-3.4h.6l1.1,2.7l1,-2.7h.6l-1.5,3.7Z" class="g6_305"/>
<path d="M212.7,449.8l.3,76.5l-61.5,22.2l.2,.5l61.6,-22.3l.2,-.3l-.3,-76.6h-.5Z" class="g7_305"/>
<path d="M234.2,451.8l-.1,77.5l-60.3,23l.2,.5l60.4,-23l.2,-.3l.1,-77.7h-.5Z" class="g7_305"/>
<path d="M256.3,454l-.5,78.5l-59,23.6l.2,.5l59.1,-23.7l.2,-.2l.5,-78.7h-.5Z" class="g7_305"/>
<path d="M279,456.1l-.9,79.7l-57.6,24.3l.2,.5l57.8,-24.4l.1,-.2l.9,-79.8l-.5,-.1Z" class="g7_305"/>
<path d="M302.4,458.4l-1.3,80.8l-56.1,25l.2,.5l56.2,-25.1l.2,-.3l1.3,-80.9h-.5Z" class="g7_305"/>
<path d="M152.3,548.3l-2.1,.7l.2,.5l2.1,-.8l-.2,-.4Z" class="g6_305"/>
<path d="M143.3,557.5c.5,0,.9,.2,1.2,.6c.2,.4,.4,1,.4,1.8c0,.7,-.2,1.3,-.4,1.7c-.3,.4,-.7,.6,-1.2,.6c-.5,0,-.9,-.2,-1.2,-.6c-.3,-.4,-.4,-1,-.4,-1.7c0,-.8,.1,-1.4,.4,-1.8c.3,-.4,.7,-.6,1.2,-.6Zm0,.5c-.3,0,-.6,.1,-.7,.4c-.2,.4,-.3,.8,-.3,1.5c0,.6,.1,1.1,.3,1.4c.1,.3,.4,.4,.7,.4c.3,0,.5,-.1,.7,-.4c.2,-.3,.2,-.8,.2,-1.4c0,-.7,0,-1.1,-.2,-1.5c-.2,-.3,-.4,-.4,-.7,-.4Z" class="g6_305"/>
<path d="M146,562.1h.6v-.7H146Z" class="g6_305"/>
<path d="M149.3,557.5c.5,0,.9,.2,1.2,.6c.2,.4,.4,1,.4,1.8c0,.7,-.2,1.3,-.4,1.7c-.3,.4,-.7,.6,-1.2,.6c-.5,0,-.9,-.2,-1.2,-.6c-.3,-.4,-.4,-1,-.4,-1.7c0,-.8,.1,-1.4,.4,-1.8c.3,-.4,.7,-.6,1.2,-.6Zm0,.5c-.3,0,-.6,.1,-.7,.4c-.2,.4,-.3,.8,-.3,1.5c0,.6,.1,1.1,.3,1.4c.1,.3,.4,.4,.7,.4c.3,0,.6,-.1,.7,-.4c.2,-.3,.3,-.8,.3,-1.4c0,-.7,-.1,-1.1,-.3,-1.5c-.1,-.3,-.4,-.4,-.7,-.4Z" class="g6_305"/>
<path d="M174.6,552l-2.1,.8l.2,.5l2.1,-.8l-.2,-.5Z" class="g6_305"/>
<path d="M165.7,561.4c.5,0,.9,.2,1.1,.6c.3,.4,.4,1,.4,1.8c0,.7,-.1,1.3,-.4,1.7c-.2,.4,-.6,.6,-1.1,.6c-.6,0,-1,-.2,-1.2,-.6c-.3,-.4,-.4,-1,-.4,-1.7c0,-.8,.1,-1.4,.4,-1.8c.2,-.4,.6,-.6,1.2,-.6Zm0,.5c-.4,0,-.6,.1,-.8,.4c-.1,.3,-.2,.8,-.2,1.5c0,.6,.1,1.1,.2,1.4c.2,.3,.4,.4,.8,.4c.3,0,.5,-.1,.7,-.4c.1,-.3,.2,-.8,.2,-1.4c0,-.7,-.1,-1.2,-.2,-1.5c-.2,-.3,-.4,-.4,-.7,-.4Z" class="g6_305"/>
<path d="M168.3,566h.7v-.7h-.7Z" class="g6_305"/>
<path d="M170.3,561.5h2.5v.5h-1.9v1.1l.3,-.1h.3c.5,0,.9,.1,1.2,.4c.3,.3,.4,.7,.4,1.2c0,.5,-.1,.9,-.4,1.1c-.3,.3,-.8,.4,-1.3,.4c-.2,0,-.4,0,-.6,0c-.2,0,-.4,-.1,-.7,-.2v-.6c.2,.1,.4,.2,.6,.2c.2,.1,.4,.1,.6,.1c.4,0,.7,-.1,.9,-.3c.2,-.2,.3,-.4,.3,-.7c0,-.3,-.1,-.6,-.3,-.8c-.2,-.2,-.5,-.3,-.9,-.3c-.1,0,-.3,0,-.5,.1c-.1,0,-.3,.1,-.5,.2v-2.3Z" class="g6_305"/>
<path d="M197.6,555.8l-2.1,.9l.2,.4l2.1,-.8l-.2,-.5Z" class="g6_305"/>
<path d="M187.5,569.5h1V566l-1.1,.3v-.6l1.1,-.2h.6v4h1v.6h-2.6v-.6Z" class="g6_305"/>
<path d="M191.4,570.1h.6v-.8h-.6Z" class="g6_305"/>
<path d="M194.7,565.4c.5,0,.9,.2,1.2,.6c.3,.4,.4,1,.4,1.8c0,.7,-.1,1.3,-.4,1.7c-.3,.4,-.7,.7,-1.2,.7c-.5,0,-.9,-.3,-1.2,-.7c-.2,-.4,-.4,-1,-.4,-1.7c0,-.8,.2,-1.4,.4,-1.8c.3,-.4,.7,-.6,1.2,-.6Zm0,.5c-.3,0,-.5,.1,-.7,.5c-.2,.3,-.2,.7,-.2,1.4c0,.6,0,1.1,.2,1.4c.2,.3,.4,.5,.7,.5c.4,0,.6,-.2,.8,-.5c.1,-.3,.2,-.8,.2,-1.4c0,-.7,-.1,-1.1,-.2,-1.4c-.2,-.4,-.4,-.5,-.8,-.5Z" class="g6_305"/>
<path d="M221.3,559.8l-2,.9l.2,.4l2,-.8l-.2,-.5Z" class="g6_305"/>
<path d="M211.3,573.7h1v-3.5l-1.1,.2v-.6l1.1,-.2h.6v4.1h1v.5h-2.6v-.5Z" class="g6_305"/>
<path d="M215.2,574.2h.6v-.8h-.6Z" class="g6_305"/>
<path d="M217.2,569.6h2.4v.5h-1.8v1.2l.2,-.1h.3c.5,0,.9,.1,1.2,.4c.3,.3,.5,.7,.5,1.1c0,.5,-.2,.9,-.5,1.2c-.3,.3,-.7,.4,-1.3,.4c-.2,0,-.4,0,-.6,-.1c-.2,0,-.4,0,-.6,-.1v-.6c.2,.1,.4,.2,.6,.2c.2,.1,.4,.1,.6,.1c.4,0,.6,-.1,.8,-.3c.3,-.2,.4,-.4,.4,-.8c0,-.3,-.1,-.5,-.4,-.7c-.2,-.2,-.4,-.3,-.8,-.3c-.2,0,-.3,0,-.5,.1c-.2,0,-.3,0,-.5,.1v-2.3Z" class="g6_305"/>
<path d="M245.7,563.9l-1.9,.9l.2,.4l1.9,-.8l-.2,-.5Z" class="g6_305"/>
<path d="M236.3,578h2.1v.5h-2.9V578c.3,-.3,.6,-.6,1,-1c.4,-.4,.7,-.7,.8,-.8c.2,-.2,.3,-.4,.4,-.6c.1,-.1,.1,-.3,.1,-.4c0,-.3,-.1,-.5,-.3,-.6c-.1,-.2,-.4,-.3,-.6,-.3c-.2,0,-.4,.1,-.7,.1c-.2,.1,-.4,.2,-.6,.3v-.6c.2,-.1,.4,-.2,.7,-.2c.2,-.1,.4,-.1,.6,-.1c.4,0,.8,.1,1.1,.4c.3,.2,.4,.5,.4,.9c0,.2,0,.4,-.1,.6c-.1,.1,-.2,.3,-.4,.6c0,0,-.2,.2,-.5,.5c-.2,.3,-.6,.7,-1.1,1.2Z" class="g6_305"/>
<path d="M239.7,578.5h.7v-.8h-.7Z" class="g6_305"/>
<path d="M243.1,573.8c.5,0,.9,.2,1.2,.6c.2,.4,.4,1,.4,1.8c0,.8,-.2,1.4,-.4,1.8c-.3,.4,-.7,.6,-1.2,.6c-.5,0,-.9,-.2,-1.2,-.6c-.3,-.4,-.4,-1,-.4,-1.8c0,-.8,.1,-1.4,.4,-1.8c.3,-.4,.7,-.6,1.2,-.6Zm0,.5c-.3,0,-.6,.2,-.7,.5c-.2,.3,-.3,.8,-.3,1.4c0,.6,.1,1.1,.3,1.4c.1,.3,.4,.5,.7,.5c.3,0,.5,-.2,.7,-.5c.2,-.3,.2,-.8,.2,-1.4c0,-.6,0,-1.1,-.2,-1.4c-.2,-.3,-.4,-.5,-.7,-.5Z" class="g6_305"/>
<path d="M150,548.7l-1.5,-84.4H148l1.5,84.4h.5Z" class="g6_305"/>
<path d="M119.7,506.5h2.7v.6l-2.1,2.4h2.1v.5h-2.8v-.5l2.2,-2.5h-2.1v-.5Z" class="g6_305"/>
<path d="M149.8,547.1l61.7,-22.2l91.7,13.4l.1,-.5L211.5,524.4h-.1l-61.7,22.2l.1,.5Z" class="g7_305"/>
<path d="M149.5,527.2l62,-20.4l92.1,12.3v-.5L211.5,506.3h-.1l-62.1,20.4l.2,.5Z" class="g7_305"/>
<path d="M149.1,507.1l62.3,-18.6l92.5,11.2l.1,-.5L211.4,488h-.1L149,506.7l.1,.4Z" class="g7_305"/>
<path d="M148.7,486.9L211.3,470l92.9,10.2l.1,-.5l-93,-10.2h-.1l-62.6,16.9l.1,.5Z" class="g7_305"/>
<path d="M148.4,466.5l62.9,-15.1l93.3,9.1V460l-93.3,-9.1h-.1L148.3,466l.1,.5Z" class="g7_305"/>
<path d="M150.4,546.3l-2.1,.8l.2,.4l2.1,-.7l-.2,-.5Z" class="g6_305"/>
<path d="M134,547.7c.5,0,.9,.2,1.2,.6c.3,.4,.4,1,.4,1.8c0,.7,-.1,1.3,-.4,1.7c-.3,.4,-.7,.6,-1.2,.6c-.5,0,-.9,-.2,-1.2,-.6c-.2,-.4,-.4,-1,-.4,-1.7c0,-.8,.2,-1.4,.4,-1.8c.3,-.4,.7,-.6,1.2,-.6Zm0,.5c-.3,0,-.5,.1,-.7,.4c-.2,.3,-.2,.8,-.2,1.5c0,.6,0,1.1,.2,1.4c.2,.3,.4,.4,.7,.4c.3,0,.6,-.1,.7,-.4c.2,-.3,.3,-.8,.3,-1.4c0,-.7,-.1,-1.2,-.3,-1.5c-.1,-.3,-.4,-.4,-.7,-.4Z" class="g6_305"/>
<path d="M136.7,552.3h.6v-.7h-.6Z" class="g6_305"/>
<path d="M140,547.7c.5,0,.9,.2,1.2,.6c.3,.4,.4,1,.4,1.8c0,.7,-.1,1.3,-.4,1.7c-.3,.4,-.7,.6,-1.2,.6c-.5,0,-.9,-.2,-1.1,-.6c-.3,-.4,-.5,-1,-.5,-1.7c0,-.8,.2,-1.4,.5,-1.8c.2,-.4,.6,-.6,1.1,-.6Zm0,.5c-.3,0,-.5,.1,-.7,.4c-.2,.3,-.2,.8,-.2,1.5c0,.6,0,1.1,.2,1.4c.2,.3,.4,.4,.7,.4c.4,0,.6,-.1,.8,-.4c.1,-.3,.2,-.8,.2,-1.4c0,-.7,-.1,-1.2,-.2,-1.5c-.2,-.3,-.4,-.4,-.8,-.4Z" class="g6_305"/>
<path d="M150.1,526.5l-2.1,.7l.1,.4l2.2,-.7l-.2,-.4Z" class="g6_305"/>
<path d="M133.6,527.7c.5,0,.9,.2,1.2,.7c.3,.4,.4,.9,.4,1.7c0,.8,-.1,1.4,-.4,1.8c-.3,.4,-.7,.6,-1.2,.6c-.5,0,-.9,-.2,-1.2,-.6c-.2,-.4,-.4,-1,-.4,-1.8c0,-.8,.2,-1.3,.4,-1.7c.3,-.5,.7,-.7,1.2,-.7Zm0,.5c-.3,0,-.6,.2,-.7,.5c-.2,.3,-.3,.8,-.3,1.4c0,.7,.1,1.1,.3,1.4c.1,.4,.4,.5,.7,.5c.3,0,.6,-.1,.7,-.5c.2,-.3,.3,-.7,.3,-1.4c0,-.6,-.1,-1.1,-.3,-1.4c-.1,-.3,-.4,-.5,-.7,-.5Z" class="g6_305"/>
<path d="M136.3,532.4h.6v-.8h-.6Z" class="g6_305"/>
<path d="M138.3,527.8h2.4v.5h-1.8v1.2l.2,-.1h.3c.5,0,.9,.1,1.2,.4c.3,.3,.5,.7,.5,1.1c0,.5,-.2,.9,-.5,1.2c-.3,.3,-.7,.4,-1.3,.4c-.2,0,-.4,0,-.6,0c-.2,-.1,-.4,-.1,-.6,-.2v-.6c.2,.1,.4,.2,.6,.2c.2,.1,.4,.1,.6,.1c.4,0,.6,-.1,.8,-.3c.2,-.2,.4,-.4,.4,-.8c0,-.3,-.2,-.5,-.4,-.7c-.2,-.2,-.4,-.3,-.8,-.3c-.2,0,-.3,0,-.5,.1c-.2,0,-.3,.1,-.5,.1v-2.3Z" class="g6_305"/>
<path d="M149.8,506.4l-2.2,.7l.2,.4l2.1,-.6l-.1,-.5Z" class="g6_305"/>
<path d="M132,511.8h1v-3.5l-1.1,.2v-.6l1.1,-.2h.6v4.1h1v.5H132v-.5Z" class="g6_305"/>
<path d="M135.9,512.3h.6v-.8h-.6Z" class="g6_305"/>
<path d="M139.2,507.6c.5,0,.9,.2,1.2,.6c.3,.4,.4,1,.4,1.8c0,.8,-.1,1.4,-.4,1.8c-.3,.4,-.7,.6,-1.2,.6c-.5,0,-.9,-.2,-1.2,-.6c-.2,-.4,-.4,-1,-.4,-1.8c0,-.8,.2,-1.4,.4,-1.8c.3,-.4,.7,-.6,1.2,-.6Zm0,.5c-.3,0,-.6,.2,-.7,.5c-.2,.3,-.3,.8,-.3,1.4c0,.6,.1,1.1,.3,1.4c.1,.3,.4,.5,.7,.5c.3,0,.6,-.2,.7,-.5c.2,-.3,.3,-.8,.3,-1.4c0,-.6,-.1,-1.1,-.3,-1.4c-.1,-.3,-.4,-.5,-.7,-.5Z" class="g6_305"/>
<path d="M149.4,486.2l-2.1,.6l.1,.5l2.1,-.6l-.1,-.5Z" class="g6_305"/>
<path d="M131.6,491.5h1V488l-1.1,.2v-.6l1.1,-.2h.6v4.1h1v.5h-2.6v-.5Z" class="g6_305"/>
<path d="M135.5,492h.6v-.8h-.6Z" class="g6_305"/>
<path d="M137.5,487.4h2.4v.5H138v1.2l.3,-.1h.3c.5,0,.9,.1,1.2,.4c.3,.3,.4,.7,.4,1.1c0,.5,-.1,.9,-.4,1.2c-.3,.3,-.8,.4,-1.3,.4c-.2,0,-.4,0,-.6,0c-.2,-.1,-.4,-.1,-.6,-.2v-.6c.1,.1,.3,.2,.5,.2c.2,.1,.4,.1,.7,.1c.3,0,.6,-.1,.8,-.3c.2,-.2,.3,-.4,.3,-.8c0,-.3,-.1,-.5,-.3,-.7c-.2,-.2,-.5,-.3,-.8,-.3c-.2,0,-.4,0,-.5,.1c-.2,0,-.4,.1,-.5,.1v-2.3Z" class="g6_305"/>
<path d="M149.1,465.8l-2.2,.5l.1,.5l2.2,-.5l-.1,-.5Z" class="g6_305"/>
<path d="M131.6,471h2.1v.5h-2.9V471c.2,-.2,.6,-.6,1,-1c.4,-.4,.6,-.6,.7,-.8c.2,-.2,.4,-.4,.5,-.5c0,-.2,.1,-.3,.1,-.5c0,-.2,-.1,-.4,-.3,-.6c-.2,-.1,-.4,-.2,-.7,-.2c-.1,0,-.4,0,-.6,.1c-.2,.1,-.4,.2,-.7,.3v-.6c.3,-.1,.5,-.2,.7,-.3c.3,0,.5,0,.6,0c.5,0,.9,.1,1.2,.3c.3,.3,.4,.6,.4,1c0,.2,0,.3,-.1,.5c-.1,.2,-.2,.4,-.4,.6c0,.1,-.2,.2,-.5,.5c-.3,.3,-.6,.7,-1.1,1.2Z" class="g6_305"/>
<path d="M135,471.5h.7v-.7H135Z" class="g6_305"/>
<path d="M138.4,466.9c.5,0,.9,.2,1.1,.6c.3,.4,.4,1,.4,1.7c0,.8,-.1,1.4,-.4,1.8c-.2,.4,-.6,.6,-1.1,.6c-.6,0,-.9,-.2,-1.2,-.6c-.3,-.4,-.4,-1,-.4,-1.8c0,-.7,.1,-1.3,.4,-1.7c.3,-.4,.6,-.6,1.2,-.6Zm0,.5c-.4,0,-.6,.1,-.8,.4c-.1,.3,-.2,.8,-.2,1.4c0,.7,.1,1.1,.2,1.5c.2,.3,.4,.4,.8,.4c.3,0,.5,-.1,.7,-.4c.1,-.4,.2,-.8,.2,-1.5c0,-.6,-.1,-1.1,-.2,-1.4c-.2,-.3,-.4,-.4,-.7,-.4Z" class="g6_305"/>
<path d="M243.8,492.4l-32,32.6l.7,.7l32,-32.7l-.7,-.6Z" class="g8_305"/>
<path d="M243.8,492.5l-3.3,6.5l.8,.5l3.3,-6.6l-.8,-.4Z" class="g8_305"/>
<path d="M244,492.3l-6.9,3.8l.4,.8l6.9,-3.8l-.4,-.8Z" class="g8_305"/>
<path d="M245.3,507.8l-33.4,17.1l.4,.8l33.4,-17.1l-.4,-.8Z" class="g8_305"/>
<path d="M245.2,507.8l-5.2,5.1l.7,.7l5.1,-5.1l-.6,-.7Z" class="g8_305"/>
<path d="M245.4,507.7l-7.7,1.5l.2,1l7.7,-1.6l-.2,-.9Z" class="g8_305"/>
<path d="M236.8,478.1l-25.1,47l.8,.4l25.1,-47l-.8,-.4Z" class="g8_305"/>
<path d="M236.7,478.2l-1.4,7.2l1,.2l1.3,-7.2l-.9,-.2Z" class="g8_305"/>
<path d="M236.8,478l-5.1,5l.7,.7l5.1,-5.1l-.7,-.6Z" class="g8_305"/>
<path d="M240.8,522.2l-28.7,2.7l.1,.9l28.7,-2.7l-.1,-.9Z" class="g8_305"/>
<path d="M240.7,522.2l-5.6,2.6l.4,.8l5.6,-2.5l-.4,-.9Z" class="g8_305"/>
<path d="M241,522.2l-6.6,-1.4l-.2,.9l6.6,1.4l.2,-.9Z" class="g8_305"/>
<path d="M224.9,466.9l-13.2,58.3l.9,.2l13.2,-58.3l-.9,-.2Z" class="g8_305"/>
<path d="M224.9,466.9l-.3,7.6h.9l.3,-7.5l-.9,-.1Z" class="g8_305"/>
<path d="M224.9,466.8l-2.6,5.4l.9,.4l2.6,-5.4l-.9,-.4Z" class="g8_305"/>
<path d="M231,533.6l-18.7,-8.7l-.4,.9l18.7,8.7l.4,-.9Z" class="g8_305"/>
<path d="M230.8,533.6l-3.6,.3l.1,.9l3.6,-.3l-.1,-.9Z" class="g8_305"/>
<path d="M231.2,533.7L227.5,530l-.7,.7l3.7,3.7l.7,-.7Z" class="g8_305"/>
<path d="M209.8,460.4l1.9,64.9h.9l-1.8,-64.9h-1Z" class="g8_305"/>
<path d="M209.8,460.4l.1,7.5h1l-.1,-7.5h-1Z" class="g8_305"/>
<path d="M209.8,460.4l.3,5.3l1,-.1l-.3,-5.3l-1,.1Z" class="g8_305"/>
<path d="M217.1,540.5l-4.5,-15.3l-.9,.3l4.5,15.2l.9,-.2Z" class="g8_305"/>
<path d="M216.9,540.2l-.7,-.5l-.5,.8l.7,.5l.5,-.8Z" class="g8_305"/>
<path d="M217.1,540.5l-.7,-4.5l-.9,.2l.7,4.5l.9,-.2Z" class="g8_305"/>
<path d="M193.6,459.8l18.1,65.7l.9,-.3L194.5,459.5l-.9,.3Z" class="g8_305"/>
<path d="M193.6,459.7l.8,7.3l1,-.1l-.9,-7.3l-.9,.1Z" class="g8_305"/>
<path d="M193.7,459.9l2.4,4.7l.9,-.5l-2.5,-4.7l-.8,.5Z" class="g8_305"/>
<path d="M200.7,541.4l11.8,-15.8l-.8,-.6l-11.8,15.8l.8,.6Z" class="g8_305"/>
<path d="M200.4,541.6l1.6,-.1l-.1,-1l-1.6,.1l.1,1Z" class="g8_305"/>
<path d="M200.8,541.3l1.6,-4.2l-.9,-.3l-1.6,4.1l.9,.4Z" class="g8_305"/>
<path d="M178.7,465.4l33,60.2l.8,-.5L179.5,465l-.8,.4Z" class="g8_305"/>
<path d="M178.6,465.3l1.9,6.9l.9,-.3l-1.9,-6.8l-.9,.2Z" class="g8_305"/>
<path d="M178.8,465.6l3.9,3.7l.6,-.7l-3.9,-3.7l-.6,.7Z" class="g8_305"/>
<path d="M184.5,535.7l27.8,-9.9l-.3,-.9l-27.9,9.9l.4,.9Z" class="g8_305"/>
<path d="M184.2,535.7l3.1,1l.3,-.9l-3.2,-1l-.2,.9Z" class="g8_305"/>
<path d="M184.6,535.6l3.4,-3.3l-.7,-.7l-3.3,3.3l.6,.7Z" class="g8_305"/>
<path d="M167.4,476.7l44.4,48.9l.7,-.6L168.1,476.1l-.7,.6Z" class="g8_305"/>
<path d="M167.4,476.6l2.8,6.1l.9,-.4l-2.9,-6.1l-.8,.4Z" class="g8_305"/>
<path d="M167.6,476.8l4.8,2.5l.5,-.8L168,476l-.4,.8Z" class="g8_305"/>
<path d="M171.2,524.2l40.9,1.6v-.9l-40.8,-1.7l-.1,1Z" class="g8_305"/>
<path d="M171,524.1l3.9,2.3l.5,-.8l-3.9,-2.3l-.5,.8Z" class="g8_305"/>
<path d="M171.4,524.1l4.6,-1.9l-.4,-.9l-4.6,2l.4,.8Z" class="g8_305"/>
<path d="M161.9,492l50,33.7l.5,-.8L162.5,491.2l-.6,.8Z" class="g8_305"/>
<path d="M161.8,491.9l3.7,5l.7,-.6l-3.6,-5l-.8,.6Z" class="g8_305"/>
<path d="M162.1,492l5.3,1.1l.2,-.9l-5.3,-1.1l-.2,.9Z" class="g8_305"/>
<path d="M163.3,508.7L212,525.8l.3,-.9l-48.7,-17l-.3,.8Z" class="g8_305"/>
<path d="M163.1,508.6l4,3.8l.7,-.7L163.7,508l-.6,.6Z" class="g8_305"/>
<path d="M163.5,508.8l5.1,-.5v-1l-5.2,.5l.1,1Z" class="g8_305"/>
<path d="M341.8,568.5H516.5V447.6H341.8Z" class="g0_305"/>
<path d="M506.5,539.2L415.1,525.9v.3l-.3,-76.3l93.1,9l-1.4,80.3Z" class="g1_305"/>
<path d="M507.1,540l-.2,-.1h.1l-.2,-.3l-.1,-.3l-.4,.2L415.1,526.2v-.3l91.4,13.3l1.4,-80.3l-93.1,-9h.1l-.1,-.3v-.3l93.7,9L507.1,540Z" class="g1_305"/>
<path d="M353.7,548l-1.5,-83.2l62.6,-14.9l.3,76.3l-.1,-.3L353.7,548Z" class="g2_305"/>
<path d="M353.1,548.9v-.2l.3,.1l-.3,.1Zm-.1,-.6l-1.4,-84l63.1,-15l.1,.3v.3l-62.6,14.9l1.5,83.2L415,525.9l.1,.3l-.1,-.3l-62,22.4Z" class="g2_305"/>
<path d="M414.8,449.9v0Z" class="g3_305"/>
<path d="M414.8,449.9v0v-.3l.1,.3h-.1Z" class="g3_305"/>
<path d="M450.7,564.5L354.6,548.4l60.5,-21.9l90.6,13.3l-55,24.7ZM415.1,526.2v0Z" class="g4_305"/>
<path d="M505.7,539.8L415.1,526.5h.1l-.1,-.3l91.2,13.3l-.6,.3Z" class="g2_305"/>
<path d="M354.6,548.4l60.5,-21.9l-60.5,21.9Z" class="g3_305"/>
<path d="M450.8,565.1L353.4,548.8l1.2,-.4l96.1,16.1l55,-24.7l1.2,.1l-56.1,25.2Z" class="g4_305"/>
<path d="M506.9,539.9l-1.2,-.1l.6,-.3l.4,-.2l.1,.3l.2,.3h-.1Z" class="g2_305"/>
<path d="M353.1,548.7l-1,-.1l.9,-.3l.1,.4Z" class="g4_305"/>
<path d="M353.4,548.8l-.3,-.1l-.1,-.4l62,-22.4l.1,.3v.3l-61.7,22.3Z" class="g3_305"/>
<path d="M415.1,526.5v0v-.3l.1,.3h-.1Z" class="g5_305"/>
<path d="M507,539.3l-56.6,25.4l.2,.4l56.6,-25.4l-.2,-.4Z" class="g6_305"/>
<path d="M499.2,567.1l-1.3,1.7l1.3,1.8h-.6l-1,-1.4l-1,1.4h-.7l1.3,-1.8L496,567.1h.7l.9,1.3l.9,-1.3h.7Z" class="g6_305"/>
<path d="M505.9,539.8L414.2,526.4l-.3,-76.5h-.5l.3,76.7l.2,.2l91.9,13.5l.1,-.5Z" class="g7_305"/>
<path d="M493.4,545.4l-93,-14l-.6,-78.2h-.5l.6,78.4l.2,.2l93.2,14.1l.1,-.5Z" class="g7_305"/>
<path d="M480.2,551.3L385.9,536.6l-.8,-79.9h-.5l.8,80.1l.3,.2l94.5,14.8v-.5Z" class="g7_305"/>
<path d="M466.5,557.5L370.8,542l-1.1,-81.6h-.5l1.1,81.9l.2,.2L466.4,558l.1,-.5Z" class="g7_305"/>
<path d="M504.8,540.2l2.8,.4l.1,-.5l-2.9,-.4v.5Z" class="g6_305"/>
<path d="M510.5,547.7c.5,0,.9,.2,1.2,.6c.2,.4,.4,1,.4,1.8c0,.7,-.2,1.3,-.4,1.7c-.3,.4,-.7,.7,-1.2,.7c-.5,0,-.9,-.3,-1.2,-.7c-.3,-.4,-.4,-1,-.4,-1.7c0,-.8,.1,-1.4,.4,-1.8c.3,-.4,.7,-.6,1.2,-.6Zm0,.5c-.3,0,-.6,.1,-.7,.4c-.2,.4,-.3,.8,-.3,1.5c0,.6,.1,1.1,.3,1.4c.1,.3,.4,.5,.7,.5c.3,0,.6,-.2,.7,-.5c.2,-.3,.3,-.8,.3,-1.4c0,-.7,-.1,-1.1,-.3,-1.5c-.1,-.3,-.4,-.4,-.7,-.4Z" class="g6_305"/>
<path d="M513.2,552.4h.6v-.8h-.6Z" class="g6_305"/>
<path d="M516.5,547.7c.5,0,.9,.2,1.2,.6c.3,.4,.4,1,.4,1.8c0,.7,-.1,1.3,-.4,1.7c-.3,.4,-.7,.7,-1.2,.7c-.5,0,-.9,-.3,-1.2,-.7c-.3,-.4,-.4,-1,-.4,-1.7c0,-.8,.1,-1.4,.4,-1.8c.3,-.4,.7,-.6,1.2,-.6Zm0,.5c-.3,0,-.6,.1,-.7,.4c-.2,.4,-.3,.8,-.3,1.5c0,.6,.1,1.1,.3,1.4c.1,.3,.4,.5,.7,.5c.3,0,.6,-.2,.7,-.5c.2,-.3,.3,-.8,.3,-1.4c0,-.7,-.1,-1.1,-.3,-1.5c-.1,-.3,-.4,-.4,-.7,-.4Z" class="g6_305"/>
<path d="M492.2,545.8l2.9,.4l.1,-.5l-2.9,-.4l-.1,.5Z" class="g6_305"/>
<path d="M498.1,553.5c.5,0,.9,.2,1.2,.6c.3,.4,.4,1,.4,1.8c0,.8,-.1,1.3,-.4,1.8c-.3,.4,-.7,.6,-1.2,.6c-.5,0,-.9,-.2,-1.2,-.6c-.2,-.5,-.4,-1,-.4,-1.8c0,-.8,.2,-1.4,.4,-1.8c.3,-.4,.7,-.6,1.2,-.6Zm0,.5c-.3,0,-.5,.2,-.7,.5c-.2,.3,-.2,.8,-.2,1.4c0,.6,0,1.1,.2,1.4c.2,.3,.4,.5,.7,.5c.3,0,.6,-.2,.7,-.5c.2,-.3,.3,-.8,.3,-1.4c0,-.6,-.1,-1.1,-.3,-1.4c-.1,-.3,-.4,-.5,-.7,-.5Z" class="g6_305"/>
<path d="M500.8,558.2h.7v-.8h-.7Z" class="g6_305"/>
<path d="M502.8,553.6h2.5v.5h-1.9v1.1h.3l.2,-.1c.5,0,.9,.2,1.2,.5c.3,.2,.5,.6,.5,1.1c0,.5,-.2,.9,-.5,1.2c-.3,.2,-.7,.4,-1.3,.4c-.2,0,-.4,-.1,-.6,-.1c-.2,0,-.4,-.1,-.6,-.1v-.7c.2,.1,.4,.2,.6,.3c.2,0,.4,0,.6,0c.4,0,.6,-.1,.9,-.2c.2,-.2,.3,-.5,.3,-.8c0,-.3,-.1,-.6,-.3,-.8c-.3,-.1,-.5,-.2,-.9,-.2c-.2,0,-.3,0,-.5,0c-.1,.1,-.3,.1,-.5,.2v-2.3Z" class="g6_305"/>
<path d="M479.1,551.7l2.9,.4l.1,-.5l-2.9,-.4l-.1,.5Z" class="g6_305"/>
<path d="M483.9,563.8H485v-3.6l-1.2,.3v-.6l1.1,-.2h.7v4.1h1v.5h-2.7v-.5Z" class="g6_305"/>
<path d="M487.8,564.3h.7v-.8h-.7Z" class="g6_305"/>
<path d="M491.2,559.6c.5,0,.9,.2,1.1,.6c.3,.4,.5,1,.5,1.8c0,.8,-.2,1.3,-.5,1.8c-.2,.4,-.6,.6,-1.1,.6c-.5,0,-.9,-.2,-1.2,-.6c-.3,-.5,-.4,-1,-.4,-1.8c0,-.8,.1,-1.4,.4,-1.8c.3,-.4,.7,-.6,1.2,-.6Zm0,.5c-.4,0,-.6,.1,-.8,.5c-.1,.3,-.2,.8,-.2,1.4c0,.6,.1,1.1,.2,1.4c.2,.3,.4,.5,.8,.5c.3,0,.5,-.2,.7,-.5c.2,-.3,.2,-.8,.2,-1.4c0,-.6,0,-1.1,-.2,-1.4c-.2,-.4,-.4,-.5,-.7,-.5Z" class="g6_305"/>
<path d="M465.3,557.8l3,.5l.1,-.5l-3,-.5l-.1,.5Z" class="g6_305"/>
<path d="M470.3,570.2h1v-3.5l-1.1,.2v-.6l1.1,-.2h.7v4.1h1v.5h-2.7v-.5Z" class="g6_305"/>
<path d="M474.2,570.7h.7v-.8h-.7Z" class="g6_305"/>
<path d="M476.2,566.1h2.5v.5h-1.9v1.1h.3l.2,-.1c.6,0,1,.2,1.3,.5c.3,.2,.4,.6,.4,1.1c0,.5,-.1,.9,-.4,1.2c-.4,.2,-.8,.4,-1.3,.4c-.2,0,-.4,0,-.6,-.1c-.2,0,-.4,-.1,-.7,-.1v-.7c.2,.1,.4,.2,.6,.3c.2,0,.4,0,.6,0c.4,0,.7,0,.9,-.2c.2,-.2,.3,-.5,.3,-.8c0,-.3,-.1,-.6,-.3,-.8c-.2,-.1,-.5,-.2,-.9,-.2c-.1,0,-.3,0,-.5,0c-.1,.1,-.3,.1,-.5,.2v-2.3Z" class="g6_305"/>
<path d="M353.1,548.7L451,565.1v-.5L353.2,548.2l-.1,.5Z" class="g6_305"/>
<path d="M389.3,577.9c-.2,.4,-.3,.7,-.5,.8c-.1,.2,-.3,.2,-.6,.2h-.4v-.4h.3c.2,0,.3,-.1,.4,-.2c.1,0,.1,-.2,.3,-.5l.1,-.2l-1.4,-3.4h.6l1,2.7l1.1,-2.7h.6l-1.5,3.7Z" class="g6_305"/>
<path d="M416.3,449.8l.3,76.5l-61.5,22.2l.2,.5l61.6,-22.3l.2,-.3l-.3,-76.6h-.5Z" class="g7_305"/>
<path d="M437.8,451.8l-.1,77.5l-60.3,23l.2,.5l60.4,-23l.2,-.3l.1,-77.7h-.5Z" class="g7_305"/>
<path d="M459.9,454l-.5,78.5l-59,23.6l.2,.5l59.1,-23.7l.2,-.2l.5,-78.7h-.5Z" class="g7_305"/>
<path d="M482.6,456.1l-.9,79.7l-57.6,24.3l.2,.5L482,536.2l.2,-.2l.9,-79.8l-.5,-.1Z" class="g7_305"/>
<path d="M506,458.4l-1.4,80.8l-56,25l.2,.5L505,539.6l.1,-.3l1.4,-80.9H506Z" class="g7_305"/>
<path d="M355.9,548.3l-2.1,.7l.2,.5l2.1,-.8l-.2,-.4Z" class="g6_305"/>
<path d="M346.9,557.5c.5,0,.9,.2,1.1,.6c.3,.4,.5,1,.5,1.8c0,.7,-.2,1.3,-.5,1.7c-.2,.4,-.6,.6,-1.1,.6c-.5,0,-.9,-.2,-1.2,-.6c-.3,-.4,-.4,-1,-.4,-1.7c0,-.8,.1,-1.4,.4,-1.8c.3,-.4,.7,-.6,1.2,-.6Zm0,.5c-.4,0,-.6,.1,-.8,.4c-.1,.4,-.2,.8,-.2,1.5c0,.6,.1,1.1,.2,1.4c.2,.3,.4,.4,.8,.4c.3,0,.5,-.1,.7,-.4c.1,-.3,.2,-.8,.2,-1.4c0,-.7,-.1,-1.1,-.2,-1.5c-.2,-.3,-.4,-.4,-.7,-.4Z" class="g6_305"/>
<path d="M349.5,562.1h.7v-.7h-.7Z" class="g6_305"/>
<path d="M352.9,557.5c.5,0,.9,.2,1.2,.6c.2,.4,.4,1,.4,1.8c0,.7,-.2,1.3,-.4,1.7c-.3,.4,-.7,.6,-1.2,.6c-.5,0,-.9,-.2,-1.2,-.6c-.3,-.4,-.4,-1,-.4,-1.7c0,-.8,.1,-1.4,.4,-1.8c.3,-.4,.7,-.6,1.2,-.6Zm0,.5c-.3,0,-.6,.1,-.7,.4c-.2,.4,-.3,.8,-.3,1.5c0,.6,.1,1.1,.3,1.4c.1,.3,.4,.4,.7,.4c.3,0,.5,-.1,.7,-.4c.2,-.3,.2,-.8,.2,-1.4c0,-.7,0,-1.1,-.2,-1.5c-.2,-.3,-.4,-.4,-.7,-.4Z" class="g6_305"/>
<path d="M378.2,552l-2.1,.8l.2,.5l2.1,-.8l-.2,-.5Z" class="g6_305"/>
<path d="M369.2,561.4c.6,0,.9,.2,1.2,.6c.3,.4,.4,1,.4,1.8c0,.7,-.1,1.3,-.4,1.7c-.3,.4,-.6,.6,-1.2,.6c-.5,0,-.9,-.2,-1.1,-.6c-.3,-.4,-.5,-1,-.5,-1.7c0,-.8,.2,-1.4,.5,-1.8c.2,-.4,.6,-.6,1.1,-.6Zm0,.5c-.3,0,-.5,.1,-.7,.4c-.1,.3,-.2,.8,-.2,1.5c0,.6,.1,1.1,.2,1.4c.2,.3,.4,.4,.7,.4c.4,0,.6,-.1,.8,-.4c.1,-.3,.2,-.8,.2,-1.4c0,-.7,-.1,-1.2,-.2,-1.5c-.2,-.3,-.4,-.4,-.8,-.4Z" class="g6_305"/>
<path d="M371.9,566h.7v-.7h-.7Z" class="g6_305"/>
<path d="M373.9,561.5h2.5v.5h-1.9v1.1l.3,-.1h.2c.5,0,1,.1,1.3,.4c.3,.3,.4,.7,.4,1.2c0,.5,-.2,.9,-.5,1.1c-.3,.3,-.7,.4,-1.3,.4c-.2,0,-.4,0,-.6,0c-.2,0,-.4,-.1,-.6,-.2v-.6c.2,.1,.4,.2,.6,.2c.2,.1,.4,.1,.6,.1c.4,0,.7,-.1,.9,-.3c.2,-.2,.3,-.4,.3,-.7c0,-.3,-.1,-.6,-.3,-.8c-.2,-.2,-.5,-.3,-.9,-.3c-.1,0,-.3,0,-.5,.1c-.1,0,-.3,.1,-.5,.2v-2.3Z" class="g6_305"/>
<path d="M401.2,555.8l-2.1,.9l.2,.4l2,-.8l-.1,-.5Z" class="g6_305"/>
<path d="M391.1,569.5h1V566l-1.1,.3v-.6l1.1,-.2h.6v4h1v.6h-2.6v-.6Z" class="g6_305"/>
<path d="M395,570.1h.6v-.8H395Z" class="g6_305"/>
<path d="M398.3,565.4c.5,0,.9,.2,1.2,.6c.3,.4,.4,1,.4,1.8c0,.7,-.1,1.3,-.4,1.7c-.3,.4,-.7,.7,-1.2,.7c-.5,0,-.9,-.3,-1.2,-.7c-.2,-.4,-.4,-1,-.4,-1.7c0,-.8,.2,-1.4,.4,-1.8c.3,-.4,.7,-.6,1.2,-.6Zm0,.5c-.3,0,-.5,.1,-.7,.5c-.2,.3,-.3,.7,-.3,1.4c0,.6,.1,1.1,.3,1.4c.2,.3,.4,.5,.7,.5c.3,0,.6,-.2,.7,-.5c.2,-.3,.3,-.8,.3,-1.4c0,-.7,-.1,-1.1,-.3,-1.4c-.1,-.4,-.4,-.5,-.7,-.5Z" class="g6_305"/>
<path d="M424.9,559.8l-2,.9l.1,.4l2,-.8l-.1,-.5Z" class="g6_305"/>
<path d="M414.9,573.7h1v-3.5l-1.1,.2v-.6l1.1,-.2h.6v4.1h1v.5h-2.6v-.5Z" class="g6_305"/>
<path d="M418.8,574.2h.6v-.8h-.6Z" class="g6_305"/>
<path d="M420.8,569.6h2.4v.5h-1.8v1.2l.2,-.1h.3c.5,0,.9,.1,1.2,.4c.3,.3,.5,.7,.5,1.1c0,.5,-.2,.9,-.5,1.2c-.3,.3,-.7,.4,-1.3,.4c-.2,0,-.4,0,-.6,-.1c-.2,0,-.4,0,-.6,-.1v-.6c.2,.1,.4,.2,.6,.2c.2,.1,.4,.1,.6,.1c.3,0,.6,-.1,.8,-.3c.2,-.2,.3,-.4,.3,-.8c0,-.3,-.1,-.5,-.3,-.7c-.2,-.2,-.5,-.3,-.8,-.3c-.2,0,-.3,0,-.5,.1c-.2,0,-.3,0,-.5,.1v-2.3Z" class="g6_305"/>
<path d="M449.3,563.9l-2,.9l.3,.4l1.9,-.8l-.2,-.5Z" class="g6_305"/>
<path d="M439.9,578H442v.5h-2.9V578c.2,-.3,.6,-.6,1,-1c.4,-.4,.6,-.7,.7,-.8c.2,-.2,.4,-.4,.5,-.6c0,-.1,.1,-.3,.1,-.4c0,-.3,-.1,-.5,-.3,-.6c-.1,-.2,-.4,-.3,-.6,-.3c-.2,0,-.4,.1,-.7,.1c-.2,.1,-.4,.2,-.7,.3v-.6c.3,-.1,.5,-.2,.7,-.2c.3,-.1,.5,-.1,.6,-.1c.5,0,.9,.1,1.2,.4c.3,.2,.4,.5,.4,.9c0,.2,0,.4,-.1,.6c-.1,.1,-.2,.3,-.4,.6c0,0,-.2,.2,-.5,.5c-.3,.3,-.6,.7,-1.1,1.2Z" class="g6_305"/>
<path d="M443.3,578.5h.7v-.8h-.7Z" class="g6_305"/>
<path d="M446.7,573.8c.5,0,.9,.2,1.1,.6c.3,.4,.4,1,.4,1.8c0,.8,-.1,1.4,-.4,1.8c-.2,.4,-.6,.6,-1.1,.6c-.6,0,-.9,-.2,-1.2,-.6c-.3,-.4,-.4,-1,-.4,-1.8c0,-.8,.1,-1.4,.4,-1.8c.3,-.4,.6,-.6,1.2,-.6Zm0,.5c-.4,0,-.6,.2,-.8,.5c-.1,.3,-.2,.8,-.2,1.4c0,.6,.1,1.1,.2,1.4c.2,.3,.4,.5,.8,.5c.3,0,.5,-.2,.7,-.5c.1,-.3,.2,-.8,.2,-1.4c0,-.6,-.1,-1.1,-.2,-1.4c-.2,-.3,-.4,-.5,-.7,-.5Z" class="g6_305"/>
<path d="M353.6,548.7l-1.5,-84.4h-.5l1.5,84.4h.5Z" class="g6_305"/>
<path d="M323.3,506.5H326v.6l-2.1,2.4H326v.5h-2.8v-.5l2.2,-2.5h-2.1v-.5Z" class="g6_305"/>
<path d="M353.4,547.1l61.7,-22.2l91.7,13.4l.1,-.5L415.1,524.4H415l-61.8,22.2l.2,.5Z" class="g7_305"/>
<path d="M353.1,527.2l62,-20.4l92.1,12.3v-.5L415.1,506.3H415l-62.1,20.4l.2,.5Z" class="g7_305"/>
<path d="M352.7,507.1L415,488.5l92.5,11.2l.1,-.5L415,488h-.1l-62.3,18.7l.1,.4Z" class="g7_305"/>
<path d="M352.3,486.9L414.9,470l92.9,10.2l.1,-.5l-93,-10.2h-.1l-62.6,16.9l.1,.5Z" class="g7_305"/>
<path d="M352,466.5l62.8,-15.1l93.4,9.1V460l-93.4,-9.1l-63,15.1l.2,.5Z" class="g7_305"/>
<path d="M354,546.3l-2.1,.8l.2,.4l2.1,-.7l-.2,-.5Z" class="g6_305"/>
<path d="M337.6,547.7c.5,0,.9,.2,1.2,.6c.3,.4,.4,1,.4,1.8c0,.7,-.1,1.3,-.4,1.7c-.3,.4,-.7,.6,-1.2,.6c-.5,0,-.9,-.2,-1.2,-.6c-.2,-.4,-.4,-1,-.4,-1.7c0,-.8,.2,-1.4,.4,-1.8c.3,-.4,.7,-.6,1.2,-.6Zm0,.5c-.3,0,-.6,.1,-.7,.4c-.2,.3,-.3,.8,-.3,1.5c0,.6,.1,1.1,.3,1.4c.1,.3,.4,.4,.7,.4c.3,0,.6,-.1,.7,-.4c.2,-.3,.3,-.8,.3,-1.4c0,-.7,-.1,-1.2,-.3,-1.5c-.1,-.3,-.4,-.4,-.7,-.4Z" class="g6_305"/>
<path d="M340.3,552.3h.6v-.7h-.6Z" class="g6_305"/>
<path d="M343.6,547.7c.5,0,.9,.2,1.2,.6c.3,.4,.4,1,.4,1.8c0,.7,-.1,1.3,-.4,1.7c-.3,.4,-.7,.6,-1.2,.6c-.5,0,-.9,-.2,-1.2,-.6c-.2,-.4,-.4,-1,-.4,-1.7c0,-.8,.2,-1.4,.4,-1.8c.3,-.4,.7,-.6,1.2,-.6Zm0,.5c-.3,0,-.5,.1,-.7,.4c-.2,.3,-.2,.8,-.2,1.5c0,.6,0,1.1,.2,1.4c.2,.3,.4,.4,.7,.4c.3,0,.6,-.1,.7,-.4c.2,-.3,.3,-.8,.3,-1.4c0,-.7,-.1,-1.2,-.3,-1.5c-.1,-.3,-.4,-.4,-.7,-.4Z" class="g6_305"/>
<path d="M353.7,526.5l-2.1,.7l.1,.4l2.1,-.7l-.1,-.4Z" class="g6_305"/>
<path d="M337.2,527.7c.5,0,.9,.2,1.2,.7c.2,.4,.4,.9,.4,1.7c0,.8,-.2,1.4,-.4,1.8c-.3,.4,-.7,.6,-1.2,.6c-.5,0,-.9,-.2,-1.2,-.6c-.3,-.4,-.4,-1,-.4,-1.8c0,-.8,.1,-1.3,.4,-1.7c.3,-.5,.7,-.7,1.2,-.7Zm0,.5c-.3,0,-.6,.2,-.7,.5c-.2,.3,-.3,.8,-.3,1.4c0,.7,.1,1.1,.3,1.4c.1,.4,.4,.5,.7,.5c.3,0,.6,-.1,.7,-.5c.2,-.3,.3,-.7,.3,-1.4c0,-.6,-.1,-1.1,-.3,-1.4c-.1,-.3,-.4,-.5,-.7,-.5Z" class="g6_305"/>
<path d="M339.9,532.4h.6v-.8h-.6Z" class="g6_305"/>
<path d="M341.9,527.8h2.4v.5h-1.9v1.2l.3,-.1h.3c.5,0,.9,.1,1.2,.4c.3,.3,.5,.7,.5,1.1c0,.5,-.2,.9,-.5,1.2c-.3,.3,-.7,.4,-1.3,.4c-.2,0,-.4,0,-.6,0c-.2,-.1,-.4,-.1,-.6,-.2v-.6c.2,.1,.4,.2,.6,.2c.2,.1,.4,.1,.6,.1c.3,0,.6,-.1,.8,-.3c.2,-.2,.3,-.4,.3,-.8c0,-.3,-.1,-.5,-.3,-.7c-.2,-.2,-.5,-.3,-.8,-.3c-.2,0,-.4,0,-.5,.1c-.2,0,-.3,.1,-.5,.1v-2.3Z" class="g6_305"/>
<path d="M353.3,506.4l-2.1,.7l.2,.4l2.1,-.6l-.2,-.5Z" class="g6_305"/>
<path d="M335.6,511.8h1v-3.5l-1.1,.2v-.6l1.1,-.2h.6v4.1h1v.5h-2.6v-.5Z" class="g6_305"/>
<path d="M339.5,512.3h.6v-.8h-.6Z" class="g6_305"/>
<path d="M342.8,507.6c.5,0,.9,.2,1.2,.6c.2,.4,.4,1,.4,1.8c0,.8,-.2,1.4,-.4,1.8c-.3,.4,-.7,.6,-1.2,.6c-.5,0,-.9,-.2,-1.2,-.6c-.3,-.4,-.4,-1,-.4,-1.8c0,-.8,.1,-1.4,.4,-1.8c.3,-.4,.7,-.6,1.2,-.6Zm0,.5c-.3,0,-.6,.2,-.7,.5c-.2,.3,-.3,.8,-.3,1.4c0,.6,.1,1.1,.3,1.4c.1,.3,.4,.5,.7,.5c.3,0,.5,-.2,.7,-.5c.2,-.3,.3,-.8,.3,-1.4c0,-.6,-.1,-1.1,-.3,-1.4c-.2,-.3,-.4,-.5,-.7,-.5Z" class="g6_305"/>
<path d="M353,486.2l-2.1,.6l.1,.5l2.1,-.6l-.1,-.5Z" class="g6_305"/>
<path d="M335.1,491.5h1V488l-1.1,.2v-.6l1.1,-.2h.7v4.1h1v.5h-2.7v-.5Z" class="g6_305"/>
<path d="M339,492h.7v-.8H339Z" class="g6_305"/>
<path d="M341,487.4h2.5v.5h-1.9v1.2l.3,-.1h.3c.5,0,.9,.1,1.2,.4c.3,.3,.4,.7,.4,1.1c0,.5,-.1,.9,-.4,1.2c-.3,.3,-.8,.4,-1.3,.4c-.2,0,-.4,0,-.6,0c-.2,-.1,-.4,-.1,-.6,-.2v-.6c.1,.1,.3,.2,.5,.2c.2,.1,.4,.1,.6,.1c.4,0,.7,-.1,.9,-.3c.2,-.2,.3,-.4,.3,-.8c0,-.3,-.1,-.5,-.3,-.7c-.2,-.2,-.5,-.3,-.9,-.3c-.1,0,-.3,0,-.5,.1c-.1,0,-.3,.1,-.5,.1v-2.3Z" class="g6_305"/>
<path d="M352.6,465.8l-2.1,.5l.1,.5l2.2,-.5l-.2,-.5Z" class="g6_305"/>
<path d="M335.1,471h2.2v.5h-2.9V471c.2,-.2,.5,-.6,1,-1c.4,-.4,.6,-.6,.7,-.8c.2,-.2,.4,-.4,.4,-.5c.1,-.2,.2,-.3,.2,-.5c0,-.2,-.1,-.4,-.3,-.6c-.2,-.1,-.4,-.2,-.7,-.2c-.2,0,-.4,0,-.6,.1c-.2,.1,-.4,.2,-.7,.3v-.6c.3,-.1,.5,-.2,.7,-.3c.2,0,.4,0,.6,0c.5,0,.9,.1,1.2,.3c.2,.3,.4,.6,.4,1c0,.2,-.1,.3,-.1,.5c-.1,.2,-.2,.4,-.4,.6c-.1,.1,-.2,.2,-.5,.5c-.3,.3,-.7,.7,-1.2,1.2Z" class="g6_305"/>
<path d="M338.6,471.5h.7v-.7h-.7Z" class="g6_305"/>
<path d="M341.9,466.9c.6,0,1,.2,1.2,.6c.3,.4,.4,1,.4,1.7c0,.8,-.1,1.4,-.4,1.8c-.2,.4,-.6,.6,-1.2,.6c-.5,0,-.9,-.2,-1.1,-.6c-.3,-.4,-.4,-1,-.4,-1.8c0,-.7,.1,-1.3,.4,-1.7c.2,-.4,.6,-.6,1.1,-.6Zm0,.5c-.3,0,-.5,.1,-.7,.4c-.1,.3,-.2,.8,-.2,1.4c0,.7,.1,1.1,.2,1.5c.2,.3,.4,.4,.7,.4c.4,0,.6,-.1,.8,-.4c.1,-.4,.2,-.8,.2,-1.5c0,-.6,-.1,-1.1,-.2,-1.4c-.2,-.3,-.4,-.4,-.8,-.4Z" class="g6_305"/>
<path d="M458.6,523.6l-1.4,.1v.9h1.4v-1Zm-2.4,.1l-1.4,.1v.9h1.5l-.1,-1Zm-2.3,.1h-1.4v1l1.4,-.1v-.9Zm-2.4,0l-1.4,.1v.9h1.4v-1Zm-2.3,.1l-1.5,.1l.1,.9h1.4v-1Zm-2.4,.1h-1.4v1l1.4,-.1V524Zm-2.4,0l-1.4,.1v.9h1.5l-.1,-1Zm-2.3,.1l-1.4,.1v.9h1.4v-1Zm-2.4,.1h-1.4v1l1.4,-.1v-.9Zm-2.4,0l-1.4,.1l.1,.9h1.4l-.1,-1Zm-2.3,.1l-1.4,.1v.9H435v-1Zm-2.4,.1h-1.4v1l1.4,-.1v-.9Zm-2.3,0l-1.5,.1l.1,.9h1.4v-1Zm-2.4,.1l-1.4,.1v.9h1.4v-1Zm-2.4,.1h-1.4v1l1.5,-.1l-.1,-.9Zm-2.3,0l-1.4,.1v.9h1.4v-1Zm-2.4,.1l-1.4,.1v.9h1.4v-1Zm-2.3,.1H417l.1,1l1.4,-.1v-.9Zm-2.4,0l-.4,.1v.9h.4v-1Z" class="g9_305"/>
<path d="M458.5,523.7l-1.4,.3l.3,1l1.3,-.4l-.2,-.9Zm-2.3,.6l-1.4,.4l.3,.9l1.4,-.4l-.3,-.9Zm-2.3,.6l-.9,.3l.2,.9l1,-.3l-.3,-.9Z" class="g9_305"/>
<path d="M458.7,523.7l-1.4,-.3l-.2,.9l1.4,.3l.2,-.9Zm-2.3,-.5l-1.4,-.3l-.2,1l1.4,.2l.2,-.9Zm-2.3,-.5l-1.4,-.2l-.2,.9l1.4,.3l.2,-1Z" class="g9_305"/>
<path d="M546.9,567.7H721.6V446.3H546.9Z" class="g0_305"/>
<path d="M711.6,539.2L620.3,525.9l-.1,.3l-.3,-76.3h.1l93,9l-1.4,80.3Z" class="g1_305"/>
<path d="M712.3,540l-.3,-.1h.1l-.3,-.6l-.4,.2L620.2,526.2l.1,-.3l91.3,13.3L713,458.9l-93,-9l-.1,-.3l.1,-.3l93.7,9L712.3,540Z" class="g1_305"/>
<path d="M558.8,548l-1.5,-83.2l62.6,-14.9l.3,76.3l-.1,-.3L558.8,548Z" class="g2_305"/>
<path d="M558.2,548.9v-.2l.3,.1l-.3,.1Zm0,-.6l-1.5,-84l63.2,-15v.6l-62.6,14.9l1.5,83.2l61.3,-22.1l.1,.3l-.1,-.3l-61.9,22.4Z" class="g2_305"/>
<path d="M619.9,449.9v0h.1h-.1Zm0,-.3v0Z" class="g3_305"/>
<path d="M620,449.9h-.1v-.3l.1,.3Z" class="g3_305"/>
<path d="M655.8,564.5L559.7,548.4l60.5,-21.9l90.6,13.3l-55,24.7ZM620.2,526.2v0Z" class="g4_305"/>
<path d="M710.8,539.8L620.2,526.5h.1l-.1,-.3l91.2,13.3l-.6,.3Z" class="g2_305"/>
<path d="M559.7,548.4l60.5,-21.9l-60.5,21.9Z" class="g3_305"/>
<path d="M655.9,565.1L558.5,548.8l1.2,-.4l96.1,16.1l55,-24.7l1.2,.1l-56.1,25.2Z" class="g4_305"/>
<path d="M712,539.9l-1.2,-.1l.6,-.3l.4,-.2l.3,.6H712Z" class="g2_305"/>
<path d="M558.2,548.7l-1,-.1l1,-.3v.4Z" class="g4_305"/>
<path d="M558.5,548.8l-.3,-.1v-.4l61.9,-22.4l.1,.3v.3l-61.7,22.3Z" class="g3_305"/>
<path d="M620.2,526.5v0v-.3l.1,.3h-.1Z" class="g5_305"/>
<path d="M712.1,539.3l-56.6,25.4l.2,.4l56.6,-25.4l-.2,-.4Z" class="g6_305"/>
<path d="M704.3,567.1l-1.3,1.7l1.3,1.8h-.6l-1,-1.4l-1,1.4H701l1.3,-1.8l-1.2,-1.7h.7l.9,1.3l.9,-1.3h.7Z" class="g6_305"/>
<path d="M711,539.8L619.3,526.4L619,449.9h-.5l.3,76.7l.3,.2l91.8,13.5l.1,-.5Z" class="g7_305"/>
<path d="M698.5,545.4l-93,-14L605,453.2h-.5l.5,78.4l.2,.2l93.2,14.1l.1,-.5Z" class="g7_305"/>
<path d="M685.4,551.3L591.1,536.6l-.9,-79.9h-.5l.9,80.1l.2,.2l94.5,14.8l.1,-.5Z" class="g7_305"/>
<path d="M671.6,557.5L575.9,542l-1.1,-81.6h-.5l1.1,81.9l.2,.2L671.5,558l.1,-.5Z" class="g7_305"/>
<path d="M709.9,540.2l2.8,.4l.1,-.5l-2.9,-.4v.5Z" class="g6_305"/>
<path d="M715.6,547.7c.5,0,.9,.2,1.2,.6c.3,.4,.4,1,.4,1.8c0,.7,-.1,1.3,-.4,1.7c-.3,.4,-.7,.7,-1.2,.7c-.5,0,-.9,-.3,-1.2,-.7c-.3,-.4,-.4,-1,-.4,-1.7c0,-.8,.1,-1.4,.4,-1.8c.3,-.4,.7,-.6,1.2,-.6Zm0,.5c-.3,0,-.6,.1,-.7,.4c-.2,.4,-.3,.8,-.3,1.5c0,.6,.1,1.1,.3,1.4c.1,.3,.4,.5,.7,.5c.3,0,.6,-.2,.7,-.5c.2,-.3,.3,-.8,.3,-1.4c0,-.7,-.1,-1.1,-.3,-1.5c-.1,-.3,-.4,-.4,-.7,-.4Z" class="g6_305"/>
<path d="M718.3,552.4h.6v-.8h-.6Z" class="g6_305"/>
<path d="M721.6,547.7c.5,0,.9,.2,1.2,.6c.2,.2,.3,.6,.3,1v1.6c0,.4,-.1,.7,-.3,.9c-.3,.4,-.7,.7,-1.2,.7c-.5,0,-.9,-.3,-1.2,-.7c-.2,-.4,-.4,-1,-.4,-1.7c0,-.8,.2,-1.4,.4,-1.8c.3,-.4,.7,-.6,1.2,-.6Zm0,.5c-.3,0,-.5,.1,-.7,.4c-.2,.4,-.3,.8,-.3,1.5c0,.6,.1,1.1,.3,1.4c.2,.3,.4,.5,.7,.5c.3,0,.6,-.2,.7,-.5c.2,-.3,.3,-.8,.3,-1.4c0,-.7,-.1,-1.1,-.3,-1.5c-.1,-.3,-.4,-.4,-.7,-.4Z" class="g6_305"/>
<path d="M697.4,545.8l2.8,.4l.1,-.5l-2.9,-.4v.5Z" class="g6_305"/>
<path d="M703.2,553.5c.6,0,.9,.2,1.2,.6c.3,.4,.4,1,.4,1.8c0,.8,-.1,1.3,-.4,1.8c-.3,.4,-.6,.6,-1.2,.6c-.5,0,-.9,-.2,-1.1,-.6c-.3,-.5,-.4,-1,-.4,-1.8c0,-.8,.1,-1.4,.4,-1.8c.2,-.4,.6,-.6,1.1,-.6Zm0,.5c-.3,0,-.5,.2,-.7,.5c-.1,.3,-.2,.8,-.2,1.4c0,.6,.1,1.1,.2,1.4c.2,.3,.4,.5,.7,.5c.4,0,.6,-.2,.8,-.5c.1,-.3,.2,-.8,.2,-1.4c0,-.6,-.1,-1.1,-.2,-1.4c-.2,-.3,-.4,-.5,-.8,-.5Z" class="g6_305"/>
<path d="M705.9,558.2h.7v-.8h-.7Z" class="g6_305"/>
<path d="M707.9,553.6h2.5v.5h-1.9v1.1h.3l.2,-.1c.5,0,1,.2,1.3,.5c.3,.2,.4,.6,.4,1.1c0,.5,-.2,.9,-.5,1.2c-.3,.2,-.7,.4,-1.3,.4c-.2,0,-.4,-.1,-.6,-.1c-.1,0,-.4,-.1,-.6,-.1v-.7c.2,.1,.4,.2,.6,.3c.2,0,.4,0,.6,0c.4,0,.7,-.1,.9,-.2c.2,-.2,.3,-.5,.3,-.8c0,-.3,-.1,-.6,-.3,-.8c-.2,-.1,-.5,-.2,-.9,-.2c-.1,0,-.3,0,-.5,0c-.1,.1,-.3,.1,-.5,.2v-2.3Z" class="g6_305"/>
<path d="M684.2,551.7l2.9,.4l.1,-.5l-2.9,-.4l-.1,.5Z" class="g6_305"/>
<path d="M689.1,563.8h1v-3.6l-1.1,.3v-.6l1.1,-.2h.6v4.1h1v.5h-2.6v-.5Z" class="g6_305"/>
<path d="M692.9,564.3h.7v-.8h-.7Z" class="g6_305"/>
<path d="M696.3,559.6c.5,0,.9,.2,1.2,.6c.2,.4,.4,1,.4,1.8c0,.8,-.2,1.3,-.4,1.8c-.3,.4,-.7,.6,-1.2,.6c-.5,0,-.9,-.2,-1.2,-.6c-.3,-.5,-.4,-1,-.4,-1.8c0,-.8,.1,-1.4,.4,-1.8c.3,-.4,.7,-.6,1.2,-.6Zm0,.5c-.3,0,-.6,.1,-.7,.5c-.2,.3,-.3,.8,-.3,1.4c0,.6,.1,1.1,.3,1.4c.1,.3,.4,.5,.7,.5c.3,0,.5,-.2,.7,-.5c.2,-.3,.2,-.8,.2,-1.4c0,-.6,0,-1.1,-.2,-1.4c-.2,-.4,-.4,-.5,-.7,-.5Z" class="g6_305"/>
<path d="M670.5,557.8l2.9,.5l.1,-.5l-3,-.5v.5Z" class="g6_305"/>
<path d="M675.4,570.2h1.1v-3.5l-1.2,.2v-.6l1.1,-.2h.7v4.1h1v.5h-2.7v-.5Z" class="g6_305"/>
<path d="M679.3,570.7h.7v-.8h-.7Z" class="g6_305"/>
<path d="M681.3,566.1h2.5v.5h-1.9v1.1h.3l.3,-.1c.5,0,.9,.2,1.2,.5c.3,.2,.4,.6,.4,1.1c0,.5,-.1,.9,-.4,1.2c-.3,.2,-.8,.4,-1.3,.4c-.2,0,-.4,0,-.6,-.1c-.2,0,-.4,-.1,-.6,-.1v-.7c.1,.1,.3,.2,.5,.3c.2,0,.4,0,.6,0c.4,0,.7,0,.9,-.2c.2,-.2,.3,-.5,.3,-.8c0,-.3,-.1,-.6,-.3,-.8c-.2,-.1,-.5,-.2,-.9,-.2c-.1,0,-.3,0,-.4,0c-.2,.1,-.4,.1,-.6,.2v-2.3Z" class="g6_305"/>
<path d="M558.2,548.7l97.9,16.4l.1,-.5L558.3,548.2l-.1,.5Z" class="g6_305"/>
<path d="M594.4,577.9c-.1,.4,-.3,.7,-.5,.8c-.1,.2,-.3,.2,-.6,.2h-.4v-.4h.3c.2,0,.3,-.1,.4,-.2c.1,0,.2,-.2,.3,-.5l.1,-.2l-1.4,-3.4h.6l1,2.7l1.1,-2.7h.6l-1.5,3.7Z" class="g6_305"/>
<path d="M621.4,449.8l.3,76.5l-61.5,22.2l.2,.5L622,526.7l.2,-.3l-.3,-76.6h-.5Z" class="g7_305"/>
<path d="M642.9,451.8l-.1,77.5l-60.3,23l.2,.5l60.4,-23l.2,-.3l.1,-77.7h-.5Z" class="g7_305"/>
<path d="M665,454l-.5,78.5l-59,23.6l.2,.5l59.1,-23.7l.2,-.2l.5,-78.7H665Z" class="g7_305"/>
<path d="M687.7,456.1l-.9,79.7l-57.6,24.3l.2,.5l57.8,-24.4l.1,-.2l.9,-79.8l-.5,-.1Z" class="g7_305"/>
<path d="M711.1,458.4l-1.3,80.8l-56.1,25l.2,.5l56.2,-25.1l.2,-.3l1.3,-80.9h-.5Z" class="g7_305"/>
<path d="M561,548.3l-2.1,.7l.2,.5l2.1,-.8l-.2,-.4Z" class="g6_305"/>
<path d="M552,557.5c.5,0,.9,.2,1.2,.6c.2,.4,.4,1,.4,1.8c0,.7,-.2,1.3,-.4,1.7c-.3,.4,-.7,.6,-1.2,.6c-.5,0,-.9,-.2,-1.2,-.6c-.3,-.4,-.4,-1,-.4,-1.7c0,-.8,.1,-1.4,.4,-1.8c.3,-.4,.7,-.6,1.2,-.6Zm0,.5c-.3,0,-.6,.1,-.7,.4c-.2,.4,-.3,.8,-.3,1.5c0,.6,.1,1.1,.3,1.4c.1,.3,.4,.4,.7,.4c.3,0,.5,-.1,.7,-.4c.2,-.3,.2,-.8,.2,-1.4c0,-.7,0,-1.1,-.2,-1.5c-.2,-.3,-.4,-.4,-.7,-.4Z" class="g6_305"/>
<path d="M554.7,562.1h.6v-.7h-.6Z" class="g6_305"/>
<path d="M558,557.5c.5,0,.9,.2,1.2,.6c.2,.4,.4,1,.4,1.8c0,.7,-.2,1.3,-.4,1.7c-.3,.4,-.7,.6,-1.2,.6c-.5,0,-.9,-.2,-1.2,-.6c-.3,-.4,-.4,-1,-.4,-1.7c0,-.8,.1,-1.4,.4,-1.8c.3,-.4,.7,-.6,1.2,-.6Zm0,.5c-.3,0,-.6,.1,-.7,.4c-.2,.4,-.3,.8,-.3,1.5c0,.6,.1,1.1,.3,1.4c.1,.3,.4,.4,.7,.4c.3,0,.6,-.1,.7,-.4c.2,-.3,.3,-.8,.3,-1.4c0,-.7,-.1,-1.1,-.3,-1.5c-.1,-.3,-.4,-.4,-.7,-.4Z" class="g6_305"/>
<path d="M583.3,552l-2.1,.8l.2,.5l2.1,-.8l-.2,-.5Z" class="g6_305"/>
<path d="M574.3,561.4c.6,0,1,.2,1.2,.6c.3,.4,.4,1,.4,1.8c0,.7,-.1,1.3,-.4,1.7c-.2,.4,-.6,.6,-1.2,.6c-.5,0,-.9,-.2,-1.1,-.6c-.3,-.4,-.4,-1,-.4,-1.7c0,-.8,.1,-1.4,.4,-1.8c.2,-.4,.6,-.6,1.1,-.6Zm0,.5c-.3,0,-.5,.1,-.7,.4c-.1,.3,-.2,.8,-.2,1.5c0,.6,.1,1.1,.2,1.4c.2,.3,.4,.4,.7,.4c.4,0,.6,-.1,.8,-.4c.1,-.3,.2,-.8,.2,-1.4c0,-.7,-.1,-1.2,-.2,-1.5c-.2,-.3,-.4,-.4,-.8,-.4Z" class="g6_305"/>
<path d="M577,566h.7v-.7H577Z" class="g6_305"/>
<path d="M579,561.5h2.5v.5h-1.9v1.1l.3,-.1h.2c.6,0,1,.1,1.3,.4c.3,.3,.4,.7,.4,1.2c0,.5,-.1,.9,-.4,1.1c-.4,.3,-.8,.4,-1.3,.4c-.2,0,-.4,0,-.6,0c-.2,0,-.4,-.1,-.7,-.2v-.6c.2,.1,.4,.2,.6,.2c.2,.1,.4,.1,.6,.1c.4,0,.7,-.1,.9,-.3c.2,-.2,.3,-.4,.3,-.7c0,-.3,-.1,-.6,-.3,-.8c-.2,-.2,-.5,-.3,-.9,-.3c-.1,0,-.3,0,-.5,.1c-.1,0,-.3,.1,-.5,.2v-2.3Z" class="g6_305"/>
<path d="M606.3,555.8l-2.1,.9l.2,.4l2.1,-.8l-.2,-.5Z" class="g6_305"/>
<path d="M596.2,569.5h1V566l-1.1,.3v-.6l1.1,-.2h.6v4h1v.6h-2.6v-.6Z" class="g6_305"/>
<path d="M600.1,570.1h.6v-.8h-.6Z" class="g6_305"/>
<path d="M603.4,565.4c.5,0,.9,.2,1.2,.6c.3,.4,.4,1,.4,1.8c0,.7,-.1,1.3,-.4,1.7c-.3,.4,-.7,.7,-1.2,.7c-.5,0,-.9,-.3,-1.2,-.7c-.2,-.4,-.4,-1,-.4,-1.7c0,-.8,.2,-1.4,.4,-1.8c.3,-.4,.7,-.6,1.2,-.6Zm0,.5c-.3,0,-.5,.1,-.7,.5c-.2,.3,-.2,.7,-.2,1.4c0,.6,0,1.1,.2,1.4c.2,.3,.4,.5,.7,.5c.3,0,.6,-.2,.7,-.5c.2,-.3,.3,-.8,.3,-1.4c0,-.7,-.1,-1.1,-.3,-1.4c-.1,-.4,-.4,-.5,-.7,-.5Z" class="g6_305"/>
<path d="M630,559.8l-2,.9l.2,.4l2,-.8l-.2,-.5Z" class="g6_305"/>
<path d="M620,573.7h1v-3.5l-1.1,.2v-.6l1.1,-.2h.6v4.1h1v.5H620v-.5Z" class="g6_305"/>
<path d="M623.9,574.2h.6v-.8h-.6Z" class="g6_305"/>
<path d="M625.9,569.6h2.4v.5h-1.8v1.2l.2,-.1h.3c.5,0,.9,.1,1.2,.4c.3,.3,.5,.7,.5,1.1c0,.5,-.2,.9,-.5,1.2c-.3,.3,-.7,.4,-1.3,.4c-.2,0,-.4,0,-.6,-.1c-.2,0,-.4,0,-.6,-.1v-.6c.2,.1,.4,.2,.6,.2c.2,.1,.4,.1,.6,.1c.4,0,.6,-.1,.8,-.3c.2,-.2,.4,-.4,.4,-.8c0,-.3,-.2,-.5,-.4,-.7c-.2,-.2,-.4,-.3,-.8,-.3c-.2,0,-.3,0,-.5,.1c-.2,0,-.3,0,-.5,.1v-2.3Z" class="g6_305"/>
<path d="M654.4,563.9l-1.9,.9l.2,.4l1.9,-.8l-.2,-.5Z" class="g6_305"/>
<path d="M645,578h2.1v.5h-2.9V578c.3,-.3,.6,-.6,1,-1c.4,-.4,.6,-.7,.8,-.8c.2,-.2,.3,-.4,.4,-.6c.1,-.1,.1,-.3,.1,-.4c0,-.3,-.1,-.5,-.3,-.6c-.1,-.2,-.4,-.3,-.6,-.3c-.2,0,-.4,.1,-.7,.1c-.2,.1,-.4,.2,-.6,.3v-.6c.2,-.1,.4,-.2,.7,-.2c.2,-.1,.4,-.1,.6,-.1c.4,0,.8,.1,1.1,.4c.3,.2,.4,.5,.4,.9c0,.2,0,.4,-.1,.6c-.1,.1,-.2,.3,-.4,.6c0,0,-.2,.2,-.5,.5c-.2,.3,-.6,.7,-1.1,1.2Z" class="g6_305"/>
<path d="M648.4,578.5h.7v-.8h-.7Z" class="g6_305"/>
<path d="M651.8,573.8c.5,0,.9,.2,1.2,.6c.2,.4,.4,1,.4,1.8c0,.8,-.2,1.4,-.4,1.8c-.3,.4,-.7,.6,-1.2,.6c-.5,0,-.9,-.2,-1.2,-.6c-.3,-.4,-.4,-1,-.4,-1.8c0,-.8,.1,-1.4,.4,-1.8c.3,-.4,.7,-.6,1.2,-.6Zm0,.5c-.3,0,-.6,.2,-.7,.5c-.2,.3,-.3,.8,-.3,1.4c0,.6,.1,1.1,.3,1.4c.1,.3,.4,.5,.7,.5c.3,0,.5,-.2,.7,-.5c.2,-.3,.2,-.8,.2,-1.4c0,-.6,0,-1.1,-.2,-1.4c-.2,-.3,-.4,-.5,-.7,-.5Z" class="g6_305"/>
<path d="M558.7,548.7l-1.5,-84.4h-.5l1.5,84.4h.5Z" class="g6_305"/>
<path d="M528.4,506.5h2.7v.6l-2.1,2.4h2.1v.5h-2.8v-.5l2.2,-2.5h-2.1v-.5Z" class="g6_305"/>
<path d="M558.5,547.1l61.7,-22.2l91.7,13.4l.1,-.5L620.2,524.4h-.1l-61.7,22.2l.1,.5Z" class="g7_305"/>
<path d="M558.2,527.2l62,-20.4l92.1,12.3v-.5L620.2,506.3h-.1L558,526.7l.2,.5Z" class="g7_305"/>
<path d="M557.8,507.1l62.3,-18.6l92.5,11.2l.1,-.5L620.1,488H620l-62.3,18.7l.1,.4Z" class="g7_305"/>
<path d="M557.4,486.9L620,470l92.9,10.2l.1,-.5L620,469.5h-.1l-62.6,16.9l.1,.5Z" class="g7_305"/>
<path d="M557.1,466.5L620,451.4l93.3,9.1V460L620,450.9h-.1L557,466l.1,.5Z" class="g7_305"/>
<path d="M559.1,546.3l-2.1,.8l.2,.4l2.1,-.7l-.2,-.5Z" class="g6_305"/>
<path d="M542.7,547.7c.5,0,.9,.2,1.2,.6c.3,.4,.4,1,.4,1.8c0,.7,-.1,1.3,-.4,1.7c-.3,.4,-.7,.6,-1.2,.6c-.5,0,-.9,-.2,-1.2,-.6c-.2,-.4,-.4,-1,-.4,-1.7c0,-.8,.2,-1.4,.4,-1.8c.3,-.4,.7,-.6,1.2,-.6Zm0,.5c-.3,0,-.5,.1,-.7,.4c-.2,.3,-.2,.8,-.2,1.5c0,.6,0,1.1,.2,1.4c.2,.3,.4,.4,.7,.4c.3,0,.6,-.1,.7,-.4c.2,-.3,.3,-.8,.3,-1.4c0,-.7,-.1,-1.2,-.3,-1.5c-.1,-.3,-.4,-.4,-.7,-.4Z" class="g6_305"/>
<path d="M545.4,552.3h.6v-.7h-.6Z" class="g6_305"/>
<path d="M548.7,547.7c.5,0,.9,.2,1.2,.6c.3,.4,.4,1,.4,1.8c0,.7,-.1,1.3,-.4,1.7c-.3,.4,-.7,.6,-1.2,.6c-.5,0,-.9,-.2,-1.2,-.6c-.2,-.4,-.4,-1,-.4,-1.7c0,-.8,.2,-1.4,.4,-1.8c.3,-.4,.7,-.6,1.2,-.6Zm0,.5c-.3,0,-.5,.1,-.7,.4c-.2,.3,-.2,.8,-.2,1.5c0,.6,0,1.1,.2,1.4c.2,.3,.4,.4,.7,.4c.3,0,.6,-.1,.8,-.4c.1,-.3,.2,-.8,.2,-1.4c0,-.7,-.1,-1.2,-.2,-1.5c-.2,-.3,-.5,-.4,-.8,-.4Z" class="g6_305"/>
<path d="M558.8,526.5l-2.1,.7l.1,.4l2.2,-.7l-.2,-.4Z" class="g6_305"/>
<path d="M542.3,527.7c.5,0,.9,.2,1.2,.7c.3,.4,.4,.9,.4,1.7c0,.8,-.1,1.4,-.4,1.8c-.3,.4,-.7,.6,-1.2,.6c-.5,0,-.9,-.2,-1.2,-.6c-.2,-.4,-.4,-1,-.4,-1.8c0,-.8,.2,-1.3,.4,-1.7c.3,-.5,.7,-.7,1.2,-.7Zm0,.5c-.3,0,-.6,.2,-.7,.5c-.2,.3,-.3,.8,-.3,1.4c0,.7,.1,1.1,.3,1.4c.1,.4,.4,.5,.7,.5c.3,0,.6,-.1,.7,-.5c.2,-.3,.3,-.7,.3,-1.4c0,-.6,-.1,-1.1,-.3,-1.4c-.1,-.3,-.4,-.5,-.7,-.5Z" class="g6_305"/>
<path d="M545,532.4h.6v-.8H545Z" class="g6_305"/>
<path d="M547,527.8h2.4v.5h-1.8v1.2l.2,-.1h.3c.5,0,.9,.1,1.2,.4c.3,.3,.5,.7,.5,1.1c0,.5,-.2,.9,-.5,1.2c-.3,.3,-.7,.4,-1.3,.4c-.2,0,-.4,0,-.6,0c-.2,-.1,-.4,-.1,-.6,-.2v-.6c.2,.1,.4,.2,.6,.2c.2,.1,.4,.1,.6,.1c.4,0,.6,-.1,.8,-.3c.2,-.2,.3,-.4,.3,-.8c0,-.3,-.1,-.5,-.3,-.7c-.2,-.2,-.4,-.3,-.8,-.3c-.2,0,-.3,0,-.5,.1c-.2,0,-.3,.1,-.5,.1v-2.3Z" class="g6_305"/>
<path d="M558.5,506.4l-2.2,.7l.2,.4l2.1,-.6l-.1,-.5Z" class="g6_305"/>
<path d="M540.7,511.8h1v-3.5l-1.1,.2v-.6l1.1,-.2h.6v4.1h1v.5h-2.6v-.5Z" class="g6_305"/>
<path d="M544.6,512.3h.6v-.8h-.6Z" class="g6_305"/>
<path d="M547.9,507.6c.5,0,.9,.2,1.2,.6c.3,.4,.4,1,.4,1.8c0,.8,-.1,1.4,-.4,1.8c-.3,.4,-.7,.6,-1.2,.6c-.5,0,-.9,-.2,-1.2,-.6c-.3,-.4,-.4,-1,-.4,-1.8c0,-.8,.1,-1.4,.4,-1.8c.3,-.4,.7,-.6,1.2,-.6Zm0,.5c-.3,0,-.6,.2,-.7,.5c-.2,.3,-.3,.8,-.3,1.4c0,.6,.1,1.1,.3,1.4c.1,.3,.4,.5,.7,.5c.3,0,.6,-.2,.7,-.5c.2,-.3,.3,-.8,.3,-1.4c0,-.6,-.1,-1.1,-.3,-1.4c-.1,-.3,-.4,-.5,-.7,-.5Z" class="g6_305"/>
<path d="M558.1,486.2l-2.1,.6l.1,.5l2.1,-.6l-.1,-.5Z" class="g6_305"/>
<path d="M540.2,491.5h1.1V488l-1.1,.2v-.6l1.1,-.2h.6v4.1h1v.5h-2.7v-.5Z" class="g6_305"/>
<path d="M544.1,492h.7v-.8h-.7Z" class="g6_305"/>
<path d="M546.2,487.4h2.4v.5h-1.9v1.2l.3,-.1h.3c.5,0,.9,.1,1.2,.4c.3,.3,.4,.7,.4,1.1c0,.5,-.1,.9,-.4,1.2c-.3,.3,-.8,.4,-1.3,.4c-.2,0,-.4,0,-.6,0c-.2,-.1,-.4,-.1,-.6,-.2v-.6c.1,.1,.3,.2,.5,.2c.2,.1,.4,.1,.7,.1c.3,0,.6,-.1,.8,-.3c.2,-.2,.3,-.4,.3,-.8c0,-.3,-.1,-.5,-.3,-.7c-.2,-.2,-.5,-.3,-.8,-.3c-.2,0,-.4,0,-.5,.1c-.2,0,-.4,.1,-.5,.1v-2.3Z" class="g6_305"/>
<path d="M557.8,465.8l-2.2,.5l.1,.5l2.2,-.5l-.1,-.5Z" class="g6_305"/>
<path d="M540.3,471h2.1v.5h-2.9V471c.2,-.2,.6,-.6,1,-1c.4,-.4,.6,-.6,.7,-.8c.2,-.2,.4,-.4,.5,-.5c0,-.2,.1,-.3,.1,-.5c0,-.2,-.1,-.4,-.3,-.6c-.2,-.1,-.4,-.2,-.7,-.2c-.1,0,-.4,0,-.6,.1c-.2,.1,-.4,.2,-.7,.3v-.6c.3,-.1,.5,-.2,.7,-.3c.3,0,.5,0,.6,0c.5,0,.9,.1,1.2,.3c.3,.3,.4,.6,.4,1c0,.2,0,.3,-.1,.5c-.1,.2,-.2,.4,-.4,.6c0,.1,-.2,.2,-.5,.5c-.3,.3,-.6,.7,-1.1,1.2Z" class="g6_305"/>
<path d="M543.7,471.5h.7v-.7h-.7Z" class="g6_305"/>
<path d="M547.1,466.9c.5,0,.9,.2,1.1,.6c.3,.4,.4,1,.4,1.7c0,.8,-.1,1.4,-.4,1.8c-.2,.4,-.6,.6,-1.1,.6c-.6,0,-1,-.2,-1.2,-.6c-.3,-.4,-.4,-1,-.4,-1.8c0,-.7,.1,-1.3,.4,-1.7c.2,-.4,.6,-.6,1.2,-.6Zm0,.5c-.4,0,-.6,.1,-.8,.4c-.1,.3,-.2,.8,-.2,1.4c0,.7,.1,1.1,.2,1.5c.2,.3,.4,.4,.8,.4c.3,0,.5,-.1,.7,-.4c.1,-.4,.2,-.8,.2,-1.5c0,-.6,-.1,-1.1,-.2,-1.4c-.2,-.3,-.4,-.4,-.7,-.4Z" class="g6_305"/>
<path d="M698,490h-1.4l.1,1l1.4,-.1L698,490Zm-2.3,.1l-1.4,.1v.9l1.4,-.1v-.9Zm-2.4,.1l-1.4,.1l.1,.9h1.4l-.1,-1Zm-2.3,.1l-1.4,.1v.9H691v-1Zm-2.4,.1l-1.4,.1v1l1.5,-.1l-.1,-1Zm-2.3,.2h-1.5l.1,1l1.4,-.1v-.9Zm-2.4,.1h-1.4v1l1.4,-.1v-.9Zm-2.4,.1l-1.4,.1l.1,.9l1.4,-.1l-.1,-.9Zm-2.3,.1l-1.4,.1v.9h1.4v-1Zm-2.4,.1l-1.4,.1v.9h1.5l-.1,-1Zm-2.3,.1l-1.5,.1l.1,1l1.4,-.1v-1Zm-2.4,.2h-1.4v1l1.4,-.1v-.9Zm-2.4,.1l-1.4,.1l.1,.9l1.4,-.1l-.1,-.9Zm-2.3,.1l-1.4,.1v.9l1.4,-.1v-.9Zm-2.4,.1l-1.4,.1v.9h1.5l-.1,-1Zm-2.3,.1l-1.5,.1l.1,.9h1.4v-1Zm-2.4,.2h-1.4v1l1.4,-.1v-.9Zm-2.4,.1h-1.4l.1,1l1.4,-.1l-.1,-.9Zm-2.3,.1l-1.4,.1v.9l1.4,-.1v-.9Zm-2.4,.1h-.3v1l.4,-.1l-.1,-.9Z" class="g9_305"/>
<path d="M697.9,490l-1.3,.4l.2,.9l1.4,-.4l-.3,-.9Zm-2.2,.7l-1.4,.4l.3,.9l1.3,-.4l-.2,-.9Zm-2.3,.6l-1.3,.4l.3,.9l1.3,-.4l-.3,-.9Z" class="g9_305"/>
<path d="M698.2,490l-1.4,-.3l-.2,1l1.4,.2l.2,-.9Zm-2.4,-.4l-1.4,-.3l-.1,1l1.4,.2l.1,-.9Zm-2.3,-.4l-1.4,-.3l-.2,1l1.4,.2l.2,-.9Z" class="g9_305"/>
<path d="M697.9,490l-77.3,34.9l.4,.9l77.3,-34.9l-.4,-.9Z" class="g8_305"/>
<path d="M697.8,490.1l-6.1,5.1l.6,.8l6.1,-5.2l-.6,-.7Z" class="g8_305"/>
<path d="M698,490l-8.8,1.5l.2,1l8.8,-1.6L698,490Z" class="g8_305"/>
<path d="M699.5,505.9l-1.4,.1v.9h1.4v-1Zm-2.4,.1l-1.4,.1l.1,.9h1.4l-.1,-1Zm-2.3,.1l-1.4,.1v.9h1.4v-1Zm-2.4,.1l-1.4,.1v.9h1.5l-.1,-1Zm-2.3,.1l-1.5,.1l.1,.9l1.4,-.1v-.9Zm-2.4,.1h-1.4v1l1.4,-.1v-.9Zm-2.4,.1h-1.4l.1,1l1.4,-.1l-.1,-.9Zm-2.3,.1h-1.4v1l1.4,-.1v-.9Zm-2.4,.1h-1.4v1l1.5,-.1l-.1,-.9Zm-2.3,.1h-1.5l.1,1l1.4,-.1v-.9Zm-2.4,.1h-1.4v1l1.4,-.1v-.9Zm-2.4,0l-1.4,.1l.1,.9h1.4l-.1,-1Zm-2.3,.1l-1.4,.1v.9h1.4v-1Zm-2.4,.1l-1.4,.1v.9h1.5l-.1,-1Zm-2.3,.1l-1.5,.1l.1,.9h1.4v-1Zm-2.4,.1l-1.4,.1v.9h1.4v-1Zm-2.4,.1l-1.4,.1l.1,.9h1.4l-.1,-1Zm-2.3,.1l-1.4,.1v.9l1.4,-.1v-.9Zm-2.4,.1l-1.4,.1v.9l1.5,-.1l-.1,-.9Zm-2.3,.1h-.5v1l.5,-.1v-.9Z" class="g9_305"/>
<path d="M699.4,505.9l-1.4,.4l.3,.9l1.4,-.3l-.3,-1Zm-2.3,.7l-1.3,.4l.2,.9l1.4,-.4l-.3,-.9Zm-2.2,.6l-1.4,.4l.3,.9l1.3,-.4l-.2,-.9Z" class="g9_305"/>
<path d="M699.6,505.9l-1.4,-.2l-.2,.9l1.4,.3l.2,-1Zm-2.3,-.4l-1.4,-.2l-.2,.9l1.4,.2l.2,-.9Zm-2.3,-.4l-1.4,-.3l-.2,1l1.4,.2l.2,-.9Z" class="g9_305"/>
<path d="M699.4,505.9l-78.7,19l.2,.9l78.7,-18.9l-.2,-1Z" class="g8_305"/>
<path d="M699.3,506l-7.1,3.9l.5,.8l7.1,-3.9l-.5,-.8Z" class="g8_305"/>
<path d="M699.5,505.9h-8.9v1h8.9v-1Z" class="g8_305"/>
<path d="M691,475.1l-1.4,.1v1l1.4,-.1v-1Zm-2.4,.2h-1.4l.1,1l1.4,-.1l-.1,-.9Zm-2.3,.1l-1.4,.1v.9l1.4,-.1v-.9Zm-2.4,.1l-1.4,.1l.1,1l1.4,-.1l-.1,-1Zm-2.3,.2l-1.5,.1l.1,.9l1.4,-.1v-.9Zm-2.4,.1l-1.4,.1v1l1.5,-.1l-.1,-1Zm-2.4,.2l-1.4,.1l.1,.9l1.4,-.1l-.1,-.9Zm-2.3,.1l-1.4,.1v.9h1.4v-1Zm-2.4,.2h-1.4l.1,1l1.4,-.1l-.1,-.9Zm-2.3,.1l-1.5,.1l.1,.9l1.4,-.1v-.9Zm-2.4,.1l-1.4,.1v1l1.5,-.1l-.1,-1Zm-2.4,.2l-1.4,.1l.1,.9l1.4,-.1l-.1,-.9Zm-2.3,.1l-1.4,.1v.9h1.4v-1Zm-2.4,.2h-1.4l.1,1l1.4,-.1l-.1,-.9Zm-2.3,.1l-1.4,.1v.9L658,478v-.9Zm-2.4,.1l-1.4,.1l.1,1l1.4,-.1l-.1,-1Zm-2.3,.2l-1.5,.1l.1,.9l1.4,-.1v-.9Zm-2.4,.1l-1.4,.1v.9H651l-.1,-1Zm-2.4,.2h-1.4l.1,1l1.4,-.1l-.1,-.9Zm-2.3,.1h-.4l.1,1l.3,-.1v-.9Z" class="g9_305"/>
<path d="M690.9,475.1l-1.4,.5l.3,.9l1.4,-.5l-.3,-.9Zm-2.3,.7l-1.3,.4l.2,1l1.4,-.5l-.3,-.9Zm-2.2,.7l-1.4,.4l.3,.9l1.3,-.4l-.2,-.9Z" class="g9_305"/>
<path d="M691.1,475.1l-1.4,-.2l-.2,.9l1.4,.3l.2,-1Zm-2.3,-.4l-1.4,-.2l-.2,1l1.4,.2l.2,-1Zm-2.4,-.3l-1.4,-.3l-.1,1l1.4,.2l.1,-.9Z" class="g9_305"/>
<path d="M690.7,475.2l-70.2,49.7l.6,.8L691.3,476l-.6,-.8Z" class="g8_305"/>
<path d="M690.6,475.3l-4.7,6.1l.8,.6l4.7,-6.1l-.8,-.6Z" class="g8_305"/>
<path d="M690.9,475.1L683,478l.3,.9l7.9,-2.9l-.3,-.9Z" class="g8_305"/>
<path d="M695.1,520.8l-1.4,.1v.9h1.4v-1Zm-2.3,.1h-1.5l.1,1l1.4,-.1v-.9Zm-2.4,.1H689v1l1.4,-.1V521Zm-2.4,0l-1.4,.1v.9h1.5l-.1,-1Zm-2.3,.1h-1.4v1h1.4v-1Zm-2.4,.1h-1.4v1l1.4,-.1v-.9Zm-2.4,0l-1.4,.1l.1,.9H681l-.1,-1Zm-2.3,.1l-1.4,.1v.9h1.4v-1Zm-2.4,.1h-1.4v1l1.5,-.1l-.1,-.9Zm-2.3,.1h-1.5l.1,.9h1.4v-.9Zm-2.4,0l-1.4,.1v.9h1.4v-1Zm-2.4,.1h-1.4l.1,1l1.4,-.1l-.1,-.9Zm-2.3,.1h-1.4v.9h1.4v-.9Zm-2.4,0l-1.4,.1v.9h1.4v-1Zm-2.3,.1h-1.5l.1,1l1.4,-.1v-.9Zm-2.4,.1h-1.4v1l1.4,-.1v-.9Zm-2.4,0l-1.4,.1v.9h1.5l-.1,-1ZM655,522l-1.4,.1v.9H655v-1Zm-2.4,.1h-1.4v1l1.4,-.1v-.9Zm-2.3,0l-.7,.1v.9h.7v-1Z" class="g9_305"/>
<path d="M695,520.8l-1.4,.4l.3,.9l1.4,-.3l-.3,-1Zm-2.3,.7l-1.3,.3l.2,.9l1.4,-.3l-.3,-.9Zm-2.3,.6l-1.3,.3l.3,1l1.3,-.4l-.3,-.9Z" class="g9_305"/>
<path d="M695.2,520.8l-1.4,-.2l-.2,.9l1.4,.3l.2,-1Zm-2.3,-.4l-1.4,-.3l-.2,1l1.4,.2l.2,-.9Zm-2.3,-.4l-1.4,-.3l-.2,.9l1.4,.3l.2,-.9Z" class="g9_305"/>
<path d="M695.1,520.8l-74.3,4.1v.9l74.4,-4l-.1,-1Z" class="g8_305"/>
<path d="M695,520.9l-7.4,2.4l.3,.9l7.4,-2.5l-.3,-.8Z" class="g8_305"/>
<path d="M695.2,520.8l-8.4,-1.6l-.2,1l8.4,1.6l.2,-1Z" class="g8_305"/>
<path d="M679.2,463.4l-1.4,.1l.1,1l1.4,-.1l-.1,-1Zm-2.3,.2l-1.5,.1l.1,.9l1.4,-.1v-.9Zm-2.4,.1l-1.4,.1l.1,1l1.4,-.1l-.1,-1Zm-2.4,.2l-1.4,.1l.1,.9l1.4,-.1l-.1,-.9Zm-2.3,.2l-1.4,.1v.9l1.5,-.1l-.1,-.9Zm-2.4,.1l-1.4,.1l.1,1l1.4,-.1l-.1,-1Zm-2.3,.2l-1.4,.1v.9l1.4,-.1v-.9Zm-2.4,.1l-1.4,.1l.1,1l1.4,-.1l-.1,-1Zm-2.3,.2l-1.5,.1l.1,.9l1.4,-.1v-.9Zm-2.4,.2l-1.4,.1l.1,.9l1.4,-.1l-.1,-.9Zm-2.4,.1l-1.4,.1l.1,1l1.4,-.1l-.1,-1Zm-2.3,.2l-1.4,.1v.9l1.5,-.1l-.1,-.9Zm-2.4,.1l-1.4,.1l.1,1l1.4,-.1l-.1,-1Zm-2.3,.2l-1.4,.1v.9l1.4,-.1v-.9Zm-2.4,.2l-1.4,.1l.1,.9l1.4,-.1l-.1,-.9Zm-2.3,.1l-1.4,.1v1l1.4,-.1v-1Zm-2.4,.2l-1.4,.1l.1,.9l1.4,-.1l-.1,-.9Zm-2.3,.1l-1.5,.1l.1,1l1.4,-.1v-1Zm-2.4,.2l-1.4,.1v.9l1.5,-.1l-.1,-.9Zm-2.4,.2H634l.1,.9h.4l-.1,-.9Z" class="g9_305"/>
<path d="M679.1,463.4l-1.3,.5l.2,.9l1.4,-.5l-.3,-.9Zm-2.2,.7l-1.4,.5l.3,.9l1.3,-.4l-.2,-1Zm-2.3,.8l-1.3,.4l.3,.9l1.3,-.4l-.3,-.9Z" class="g9_305"/>
<path d="M679.3,463.4l-1.4,-.2l-.1,.9l1.4,.3l.1,-1Zm-2.3,-.3l-1.4,-.3l-.2,1l1.4,.2l.2,-.9Zm-2.3,-.4l-1.4,-.2l-.2,.9l1.4,.2l.2,-.9Z" class="g9_305"/>
<path d="M678.9,463.6L620.5,525l.7,.7l58.4,-61.5l-.7,-.6Z" class="g8_305"/>
<path d="M678.8,463.7l-3.3,6.7l.9,.4l3.3,-6.7l-.9,-.4Z" class="g8_305"/>
<path d="M679,463.5l-6.5,3.6l.4,.9l6.6,-3.7l-.5,-.8Z" class="g8_305"/>
<path d="M685.4,532.6h-1.5l.1,.9h1.4v-.9Zm-2.4,0h-1.4v1H683v-1Zm-2.4,.1h-1.4v.9h1.5l-.1,-.9Zm-2.3,0h-1.4v1h1.4v-1Zm-2.4,.1h-1.4v.9h1.4v-.9Zm-2.4,0h-1.4l.1,1h1.4l-.1,-1Zm-2.3,.1h-1.4v.9h1.4v-.9Zm-2.4,0l-1.4,.1v.9h1.4v-1Zm-2.3,.1H665l.1,.9h1.4V533Zm-2.4,0l-1.4,.1v.9h1.4v-1Zm-2.4,.1h-1.4v1l1.5,-.1l-.1,-.9Zm-2.3,0l-1.4,.1v.9h1.4v-1Zm-2.4,.1h-1.4v1l1.4,-.1v-.9Zm-2.3,0l-1.5,.1l.1,.9h1.4v-1Zm-2.4,.1h-1.4v1l1.4,-.1v-.9Zm-2.4,0l-1.4,.1v.9h1.4v-1Zm-2.3,.1h-1.4v1l1.4,-.1v-.9Zm-2.4,0l-1.4,.1v.9h1.4v-1Zm-2.4,.1h-1.4v1l1.5,-.1l-.1,-.9Zm-2.3,0l-1,.1v.9h1v-1Z" class="g9_305"/>
<path d="M685.2,532.6l-1.3,.3l.2,1l1.4,-.4l-.3,-.9Zm-2.2,.6l-1.4,.3l.2,1l1.4,-.4l-.2,-.9Zm-2.3,.6l-1.4,.3l.3,1l1.3,-.4l-.2,-.9Z" class="g9_305"/>
<path d="M685.5,532.6l-1.4,-.3l-.2,.9l1.4,.3l.2,-.9Zm-2.4,-.5l-1.3,-.3l-.2,1l1.4,.2l.1,-.9Zm-2.3,-.5l-1.4,-.2l-.1,.9l1.3,.3l.2,-1Z" class="g9_305"/>
<path d="M685.4,532.6l-64.5,-7.7l-.1,.9l64.5,7.7l.1,-.9Z" class="g8_305"/>
<path d="M685.3,532.6l-6.7,1.2l.2,.9l6.7,-1.2l-.2,-.9Z" class="g8_305"/>
<path d="M685.5,532.6l-7.1,-2.9l-.3,.9l7.1,2.9l.3,-.9Z" class="g8_305"/>
<path d="M664.3,456.6l-1.4,.1v.9l1.5,-.1l-.1,-.9Zm-2.4,.2l-1.4,.1l.1,.9l1.4,-.1l-.1,-.9Zm-2.3,.1l-1.4,.1v1l1.4,-.1v-1Zm-2.4,.2l-1.4,.1l.1,.9l1.4,-.1l-.1,-.9Zm-2.3,.2l-1.5,.1l.1,.9l1.4,-.1v-.9Zm-2.4,.1l-1.4,.1l.1,1l1.4,-.1l-.1,-1Zm-2.4,.2l-1.4,.1l.1,1l1.4,-.1l-.1,-1Zm-2.3,.2l-1.4,.1v.9l1.5,-.1l-.1,-.9Zm-2.4,.2l-1.4,.1l.1,.9l1.4,-.1l-.1,-.9Zm-2.3,.1l-1.4,.1v1l1.4,-.1v-1Zm-2.4,.2l-1.4,.1l.1,1l1.4,-.1l-.1,-1Zm-2.3,.2l-1.4,.1v.9l1.4,-.1v-.9Zm-2.4,.2l-1.4,.1l.1,.9l1.4,-.1l-.1,-.9Zm-2.3,.1l-1.5,.1l.1,1l1.4,-.1v-1Zm-2.4,.2l-1.4,.1l.1,.9l1.4,-.1l-.1,-.9Zm-2.4,.2l-1.4,.1l.1,.9l1.4,-.1l-.1,-.9Zm-2.3,.1l-1.4,.1v1l1.5,-.1l-.1,-1Zm-2.4,.2l-1.4,.1l.1,1l1.4,-.1l-.1,-1Zm-2.3,.2l-1.4,.1v.9l1.4,-.1v-.9Zm-2.4,.2H619v.9h.6l-.1,-.9Z" class="g9_305"/>
<path d="M664.2,456.6l-1.4,.4l.3,.9l1.4,-.4l-.3,-.9Zm-2.3,.7l-1.3,.5l.3,.9l1.3,-.5l-.3,-.9Zm-2.2,.8l-1.4,.4l.3,.9L660,459l-.3,-.9Z" class="g9_305"/>
<path d="M664.4,456.6l-1.4,-.2l-.2,.9l1.4,.2l.2,-.9Zm-2.3,-.4l-1.4,-.2l-.2,.9l1.4,.3l.2,-1Zm-2.4,-.3l-1.4,-.3l-.1,1l1.4,.2l.1,-.9Z" class="g9_305"/>
<path d="M663.9,456.8l-43.5,68.3l.8,.5l43.5,-68.3l-.8,-.5Z" class="g8_305"/>
<path d="M663.9,456.9l-2.2,7l.9,.3l2.2,-7l-.9,-.3Z" class="g8_305"/>
<path d="M664,456.7l-4.8,4l.6,.7l4.8,-4l-.6,-.7Z" class="g8_305"/>
<path d="M671.4,539.3H670v1h1.5l-.1,-1Zm-2.3,.1h-1.4v.9h1.4v-.9Zm-2.4,0h-1.4v1l1.4,-.1v-.9Zm-2.3,0l-1.5,.1l.1,.9h1.4v-1Zm-2.4,.1h-1.4v.9H662v-.9Zm-2.4,0h-1.4v1h1.5l-.1,-1Zm-2.3,.1h-1.4v.9h1.4v-.9Zm-2.4,0h-1.4v1l1.4,-.1v-.9Zm-2.4,0l-1.4,.1v.9h1.5l-.1,-1Zm-2.3,.1h-1.4v1l1.4,-.1v-.9Zm-2.4,0l-1.4,.1v.9h1.4v-1Zm-2.3,.1H644l.1,.9h1.4v-.9Zm-2.4,0h-1.4v1h1.4v-1Zm-2.4,0l-1.4,.1v.9h1.5l-.1,-1Zm-2.3,.1H637v1l1.4,-.1v-.9Zm-2.4,0l-1.4,.1v.9H636v-1Zm-2.3,.1h-1.5l.1,.9h1.4V540Zm-2.4,0h-1.4v1h1.4v-1Zm-2.4,.1h-1.4v.9h1.4v-.9Zm-2.3,0h-1.2v1l1.2,-.1v-.9Z" class="g9_305"/>
<path d="M671.3,539.3l-1.3,.4l.2,.9l1.4,-.4l-.3,-.9Zm-2.3,.6l-1.3,.4l.2,.9l1.4,-.4l-.3,-.9Zm-2.2,.6l-1.4,.4l.2,.9l1.4,-.4l-.2,-.9Z" class="g9_305"/>
<path d="M671.5,539.3l-1.3,-.3l-.2,1l1.4,.2l.1,-.9Zm-2.3,-.5l-1.4,-.2l-.1,.9l1.3,.3l.2,-1Zm-2.3,-.4l-1.4,-.3l-.2,.9l1.4,.3l.2,-.9Z" class="g9_305"/>
<path d="M671.6,539.3L621,524.9l-.3,.9l50.6,14.4l.3,-.9Z" class="g8_305"/>
<path d="M671.4,539.3l-5.1,.6l.1,.9l5.1,-.5l-.1,-1Z" class="g8_305"/>
<path d="M671.7,539.4l-5.4,-3.6l-.5,.8l5.4,3.6l.5,-.8Z" class="g8_305"/>
<path d="M648.2,455.8l-1.4,.1l.1,.9l1.4,-.1l-.1,-.9Zm-2.3,.2l-1.4,.1v.9l1.4,-.1V456Zm-2.4,.2l-1.4,.1l.1,.9l1.4,-.1l-.1,-.9Zm-2.3,.1l-1.4,.1v1l1.4,-.1v-1Zm-2.4,.2l-1.4,.1l.1,1l1.4,-.2l-.1,-.9Zm-2.3,.2l-1.5,.1l.1,.9l1.4,-.1v-.9Zm-2.4,.2l-1.4,.1l.1,.9l1.4,-.1l-.1,-.9Zm-2.4,.1l-1.4,.1l.1,1l1.4,-.1l-.1,-1Zm-2.3,.2l-1.4,.1v1l1.5,-.1l-.1,-1Zm-2.4,.2l-1.4,.1l.1,.9l1.4,-.1l-.1,-.9Zm-2.3,.2l-1.4,.1v.9l1.4,-.1v-.9Zm-2.4,.1l-1.4,.1l.1,1l1.4,-.1l-.1,-1Zm-2.3,.2l-1.5,.1l.1,1l1.4,-.1v-1Zm-2.4,.2l-1.4,.1l.1,.9l1.4,-.1l-.1,-.9Zm-2.4,.2l-1.4,.1l.1,.9l1.4,-.1l-.1,-.9Zm-2.3,.1l-1.4,.1l.1,1l1.4,-.1l-.1,-1Zm-2.4,.2l-1.4,.1l.1,1l1.4,-.1l-.1,-1Zm-2.3,.2l-1.4,.1v.9l1.5,-.1l-.1,-.9Zm-2.4,.2l-1.4,.1l.1,.9l1.4,-.1l-.1,-.9Zm-2.3,.1l-.8,.1l.1,.9h.7v-1Z" class="g9_305"/>
<path d="M648.1,455.8l-1.3,.5l.3,.9l1.3,-.5l-.3,-.9Zm-2.2,.8l-1.4,.4l.3,.9l1.4,-.4l-.3,-.9Zm-2.3,.7l-1.3,.4l.3,.9l1.3,-.4l-.3,-.9Z" class="g9_305"/>
<path d="M648.3,455.8l-1.4,-.2l-.1,.9l1.4,.2l.1,-.9Zm-2.3,-.4l-1.4,-.2l-.1,1l1.4,.2l.1,-1Zm-2.3,-.3l-1.4,-.2l-.2,.9l1.4,.2l.2,-.9Z" class="g9_305"/>
<path d="M647.8,456.1l-27.4,69.1l.9,.3l27.4,-69.1l-.9,-.3Z" class="g8_305"/>
<path d="M647.8,456.2l-1.4,7l1,.1l1.3,-6.9l-.9,-.2Z" class="g8_305"/>
<path d="M647.9,456l-2.9,3.8l.7,.6l2.9,-3.8l-.7,-.6Z" class="g8_305"/>
<path d="M655.3,539.8l-1.4,.1v.9h1.4v-1Zm-2.4,.1h-1.4v.9H653l-.1,-.9Zm-2.3,0h-1.4v1h1.4v-1Zm-2.4,.1h-1.4v.9h1.4V540Zm-2.3,0h-1.5l.1,1l1.4,-.1V540Zm-2.4,0l-1.4,.1v.9h1.4v-1Zm-2.4,.1h-1.4v1l1.5,-.1l-.1,-.9Zm-2.3,0l-1.4,.1v.9h1.4v-1Zm-2.4,.1H635v.9h1.4v-.9Zm-2.4,0h-1.4v1h1.5l-.1,-1Zm-2.3,0l-1.4,.1v.9h1.4v-1Zm-2.4,.1h-1.4v1l1.4,-.1v-.9Zm-2.3,0l-1.5,.1l.1,.9H627v-1Zm-2.4,.1h-1.4v.9h1.4v-.9Zm-2.4,0h-1.4v1h1.5l-.1,-1Zm-2.3,.1h-1.4v.9h1.4v-.9Zm-2.4,0h-1.4v1l1.4,-.1v-.9Zm-2.3,0l-1.5,.1l.1,.9h1.4v-1Zm-2.4,.1h-1.4v.9h1.4v-.9Zm-2.4,0H609v1h1.4v-1Z" class="g9_305"/>
<path d="M655.2,539.9l-1.4,.3l.3,.9l1.3,-.3l-.2,-.9Zm-2.3,.6l-1.4,.3l.3,.9l1.4,-.3l-.3,-.9Zm-2.3,.6l-1.3,.3l.2,1l1.4,-.4l-.3,-.9Z" class="g9_305"/>
<path d="M655.4,539.8l-1.4,-.2l-.2,.9l1.4,.3l.2,-1Zm-2.3,-.4l-1.4,-.3l-.2,.9l1.4,.3l.2,-.9Zm-2.3,-.5l-1.4,-.3l-.2,.9l1.4,.3l.2,-.9Z" class="g9_305"/>
<path d="M655.5,539.9L621,524.9l-.4,.9l34.5,14.9l.4,-.8Z" class="g8_305"/>
<path d="M655.2,539.8l-3.3,.7l.2,.9l3.3,-.6l-.2,-1Z" class="g8_305"/>
<path d="M655.7,540l-3.6,-3.6l-.7,.6l3.6,3.6l.7,-.6Z" class="g8_305"/>
<path d="M633.5,461.5l-1.4,.1v.9l1.4,-.1v-.9Zm-2.4,.1l-1.4,.1l.1,1l1.4,-.1l-.1,-1Zm-2.3,.2l-1.5,.1l.1,1l1.4,-.1v-1Zm-2.4,.2l-1.4,.1l.1,.9l1.4,-.1l-.1,-.9Zm-2.4,.1l-1.4,.1l.1,1l1.4,-.1l-.1,-1Zm-2.3,.2l-1.4,.1v1l1.5,-.1l-.1,-1Zm-2.4,.2l-1.4,.1l.1,.9l1.4,-.1l-.1,-.9Zm-2.3,.2l-1.4,.1v.9l1.4,-.1v-.9Zm-2.4,.1l-1.4,.1l.1,1l1.4,-.1l-.1,-1Zm-2.3,.2l-1.4,.1v.9l1.4,-.1V463Zm-2.4,.2l-1.4,.1l.1,.9l1.4,-.1l-.1,-.9Zm-2.3,.1l-1.5,.1l.1,1l1.4,-.1v-1Zm-2.4,.2l-1.4,.1l.1,.9l1.4,-.1l-.1,-.9Zm-2.4,.2l-1.4,.1l.1,.9l1.4,-.1l-.1,-.9Zm-2.3,.1l-1.4,.1v1l1.5,-.1l-.1,-1Zm-2.4,.2l-1.4,.1l.1,.9l1.4,-.1l-.1,-.9Zm-2.3,.2l-1.4,.1v.9l1.4,-.1v-.9Zm-2.4,.1l-1.4,.1l.1,1l1.4,-.1l-.1,-1Zm-2.3,.2l-1.5,.1l.1,.9l1.4,-.1v-.9Zm-2.4,.2h-1l.1,1l1,-.1l-.1,-.9Z" class="g9_305"/>
<path d="M633.4,461.5l-1.4,.4l.3,.9l1.4,-.4l-.3,-.9Zm-2.3,.7l-1.3,.5l.3,.9l1.3,-.5l-.3,-.9Zm-2.2,.8l-1.4,.4l.3,.9l1.4,-.4l-.3,-.9Z" class="g9_305"/>
<path d="M633.6,461.5l-1.4,-.2l-.2,.9l1.4,.2l.2,-.9Zm-2.3,-.4l-1.4,-.2l-.2,.9l1.4,.2l.2,-.9Zm-2.4,-.4l-1.4,-.2l-.1,.9l1.4,.3l.1,-1Z" class="g9_305"/>
<path d="M633,461.9l-12.6,63.3l.9,.2L634,462l-1,-.1Z" class="g8_305"/>
<path d="M633,461.9l-.6,6.6l.9,.1L634,462l-1,-.1Z" class="g8_305"/>
<path d="M633.1,461.8l-1.3,3.1l.9,.4l1.2,-3.2l-.8,-.3Z" class="g8_305"/>
<path d="M639.4,533.8H638v.9h1.4v-.9Zm-2.4,0l-1.4,.1v.9h1.5l-.1,-1Zm-2.3,.1h-1.4v1l1.4,-.1v-.9Zm-2.4,0l-1.4,.1v.9h1.4v-1Zm-2.4,.1h-1.4v1l1.5,-.1l-.1,-.9Zm-2.3,0l-1.4,.1v.9h1.4v-1Zm-2.4,.1h-1.4v1l1.4,-.1v-.9Zm-2.3,0l-1.5,.1l.1,.9h1.4v-1Zm-2.4,.1h-1.4v1l1.4,-.1v-.9Zm-2.4,0l-1.4,.1v.9h1.5l-.1,-1Zm-2.3,.1h-1.4v1l1.4,-.1v-.9Zm-2.4,0l-1.4,.1v.9h1.4v-1Zm-2.3,.1h-1.5l.1,1l1.4,-.1v-.9Zm-2.4,0l-1.4,.1v.9h1.4v-1Zm-2.4,.1h-1.4v1l1.4,-.1v-.9Zm-2.3,0l-1.5,.1l.1,.9H604v-1Zm-2.4,.1h-1.4v1l1.4,-.1v-.9Zm-2.4,0l-1.4,.1v.9h1.5l-.1,-1Zm-2.3,.1h-1.4v1l1.4,-.1v-.9Zm-2.4,0l-1.4,.1v.9h1.4v-1Z" class="g9_305"/>
<path d="M639.3,533.8l-1.4,.4l.3,.9l1.3,-.4l-.2,-.9Zm-2.3,.6l-1.4,.4l.3,.9l1.3,-.4l-.2,-.9Zm-2.3,.6l-1.3,.4l.2,.9l1.4,-.4l-.3,-.9Z" class="g9_305"/>
<path d="M639.5,533.8l-1.4,-.3l-.2,.9l1.4,.3l.2,-.9Zm-2.3,-.5l-1.4,-.3l-.2,.9l1.4,.3l.2,-.9Zm-2.3,-.5l-1.4,-.3l-.2,1l1.4,.3l.2,-1Z" class="g9_305"/>
<path d="M639.6,533.8L621,524.9l-.4,.9l18.6,8.9l.4,-.9Z" class="g8_305"/>
<path d="M639.1,533.9l-1.6,1.4l.6,.7l1.6,-1.4l-.6,-.7Z" class="g8_305"/>
<path d="M639.8,534L638,531l-.8,.5l1.8,3l.8,-.5Z" class="g8_305"/>
<path d="M622.4,473l-1.4,.1l.1,.9l1.4,-.1l-.1,-.9Zm-2.3,.1l-1.4,.1v1l1.4,-.1v-1Zm-2.4,.2l-1.4,.1l.1,.9l1.4,-.1l-.1,-.9Zm-2.3,.1l-1.5,.1l.1,1l1.4,-.1v-1Zm-2.4,.2l-1.4,.1v.9l1.5,-.1l-.1,-.9Zm-2.4,.1l-1.4,.1l.1,1l1.4,-.1l-.1,-1Zm-2.3,.2l-1.4,.1v.9l1.4,-.1v-.9Zm-2.4,.1l-1.4,.1l.1,1L606,475l-.1,-1Zm-2.3,.2l-1.4,.1v.9l1.4,-.1v-.9Zm-2.4,.1l-1.4,.1l.1,1l1.4,-.1l-.1,-1Zm-2.3,.2l-1.5,.1l.1,.9l1.4,-.1v-.9Zm-2.4,.1l-1.4,.1v1l1.5,-.1l-.1,-1Zm-2.4,.2l-1.4,.1l.1,.9l1.4,-.1l-.1,-.9Zm-2.3,.1l-1.4,.1v1l1.4,-.1v-1Zm-2.4,.2l-1.4,.1l.1,.9l1.4,-.1l-.1,-.9Zm-2.3,.2h-1.4v1l1.4,-.1v-.9Zm-2.4,.1l-1.4,.1l.1,.9l1.4,-.1l-.1,-.9Zm-2.3,.2h-1.5l.1,1l1.4,-.1v-.9Zm-2.4,.1l-1.4,.1v.9l1.5,-.1l-.1,-.9Zm-2.4,.2h-1.1v1l1.2,-.1l-.1,-.9Z" class="g9_305"/>
<path d="M622.3,473l-1.3,.4l.3,.9l1.3,-.4l-.3,-.9Zm-2.2,.7l-1.4,.5l.3,.9l1.4,-.5l-.3,-.9Zm-2.3,.8l-1.3,.4l.3,.9l1.3,-.4l-.3,-.9Z" class="g9_305"/>
<path d="M622.5,473l-1.4,-.2l-.1,.9l1.4,.2l.1,-.9Zm-2.3,-.4l-1.4,-.2l-.1,.9l1.4,.2l.1,-.9Zm-2.3,-.4l-1.4,-.2l-.2,.9l1.4,.2l.2,-.9Z" class="g9_305"/>
<path d="M622,473.4l-1.7,51.9h1l1.6,-51.8l-.9,-.1Z" class="g8_305"/>
<path d="M622,473.4l-.1,6h.9l.1,-5.9l-.9,-.1Z" class="g8_305"/>
<path d="M622,473.4l-.2,2.1l1,.1l.1,-2.1l-.9,-.1Z" class="g8_305"/>
<path d="M626.3,521.8l-1.4,.1v.9h1.5l-.1,-1Zm-2.3,.1l-1.4,.1v.9H624v-1Zm-2.4,.1h-1.4v1l1.4,-.1V522Zm-2.3,.1h-1.5l.1,.9h1.4v-.9Zm-2.4,0l-1.4,.1v.9h1.4v-1Zm-2.4,.1h-1.4v1l1.5,-.1l-.1,-.9Zm-2.3,.1h-1.4v1l1.4,-.1v-.9Zm-2.4,0l-1.4,.1v.9h1.4v-1Zm-2.4,.1l-1.4,.1l.1,.9h1.4l-.1,-1Zm-2.3,.1h-1.4v1l1.4,-.1v-.9Zm-2.4,.1h-1.4v.9h1.5l-.1,-.9Zm-2.3,0l-1.5,.1l.1,.9h1.4v-1Zm-2.4,.1h-1.4v1l1.4,-.1v-.9Zm-2.4,.1h-1.4l.1,1l1.4,-.1l-.1,-.9Zm-2.3,0l-1.4,.1v.9h1.4v-1Zm-2.4,.1l-1.4,.1v.9h1.4v-1Zm-2.3,.1h-1.5l.1,1l1.4,-.1V523Zm-2.4,.1h-1.4v.9h1.4v-.9Zm-2.4,0l-1.4,.1v.9h1.5l-.1,-1Zm-2.3,.1h-1.4v1l1.4,-.1v-.9Z" class="g9_305"/>
<path d="M626.2,521.9l-1.3,.4l.2,.9l1.4,-.4l-.3,-.9Zm-2.2,.6l-1.4,.4l.2,.9l1.4,-.4l-.2,-.9Zm-2.3,.7l-1.4,.4l.3,.9l1.3,-.4l-.2,-.9Z" class="g9_305"/>
<path d="M626.4,521.9l-1.3,-.3l-.2,.9l1.4,.3l.1,-.9Zm-2.3,-.5l-1.4,-.3l-.1,.9l1.3,.3l.2,-.9Zm-2.3,-.5l-1.4,-.2l-.2,.9l1.4,.3l.2,-1Z" class="g9_305"/>
<path d="M626.1,521.9l-5.5,3l.4,.8l5.6,-3l-.5,-.8Z" class="g8_305"/>
<path d="M625.9,522.2l-.4,2.5l.9,.2l.4,-2.5l-.9,-.2Z" class="g8_305"/>
<path d="M626.8,522.2l-.5,-2l-.9,.3l.5,1.9l.9,-.2Z" class="g8_305"/>
<path d="M617.1,488.6l-1.5,.1l.1,1l1.4,-.1v-1Zm-2.4,.2h-1.4v1l1.5,-.1l-.1,-.9Zm-2.4,.1l-1.4,.1l.1,.9l1.4,-.1l-.1,-.9ZM610,489l-1.4,.1v.9H610v-1Zm-2.4,.2h-1.4l.1,1l1.4,-.1l-.1,-.9Zm-2.3,.1l-1.4,.1v.9l1.4,-.1v-.9Zm-2.4,.1l-1.4,.1v.9l1.5,-.1l-.1,-.9Zm-2.4,.1l-1.4,.1l.1,.9h1.4l-.1,-1Zm-2.3,.2h-1.4v1l1.4,-.1v-.9Zm-2.4,.1l-1.4,.1l.1,.9l1.4,-.1l-.1,-.9Zm-2.3,.1l-1.4,.1v.9h1.4v-1Zm-2.4,.1l-1.4,.1v1l1.5,-.1l-.1,-1Zm-2.3,.2h-1.5l.1,1l1.4,-.1v-.9Zm-2.4,.1l-1.4,.1v.9l1.4,-.1v-.9Zm-2.4,.1l-1.4,.1l.1,.9h1.4l-.1,-1Zm-2.3,.1l-1.4,.1v1l1.4,-.1v-1Zm-2.4,.2h-1.4l.1,1l1.4,-.1l-.1,-.9Zm-2.3,.1l-1.5,.1l.1,.9l1.4,-.1v-.9Zm-2.4,.1l-1.4,.1v.9h1.5l-.1,-1Zm-2.4,.1l-1.3,.1v1l1.4,-.1l-.1,-1Z" class="g9_305"/>
<path d="M616.9,488.7l-1.3,.4l.3,.9l1.3,-.4l-.3,-.9Zm-2.2,.7l-1.4,.4l.3,.9l1.4,-.4l-.3,-.9Zm-2.3,.7l-1.3,.4l.3,.9l1.3,-.4l-.3,-.9Z" class="g9_305"/>
<path d="M617.2,488.7l-1.4,-.3l-.2,.9l1.4,.3l.2,-.9Zm-2.4,-.5l-1.3,-.2l-.2,.9l1.4,.3l.1,-1Zm-2.3,-.4l-1.4,-.2l-.1,.9l1.4,.3l.1,-1Z" class="g9_305"/>
<path d="M616.6,489.2l3.8,36.2l.9,-.1l-3.7,-36.2l-1,.1Z" class="g8_305"/>
<path d="M616.6,489.1l.3,5h.9l-.2,-5h-1Z" class="g8_305"/>
<path d="M616.7,489.3l.3,.8l.9,-.4l-.4,-.8l-.8,.4Z" class="g8_305"/>
<path d="M618.4,505.9L617,506v.9h1.5l-.1,-1Zm-2.3,.1l-1.5,.1l.1,.9h1.4v-1Zm-2.4,.1l-1.4,.1v.9h1.4v-1Zm-2.4,.1l-1.4,.1l.1,.9l1.4,-.1l-.1,-.9Zm-2.3,.1l-1.4,.1v.9l1.4,-.1v-.9Zm-2.4,.1l-1.4,.1v.9l1.5,-.1l-.1,-.9Zm-2.3,.1l-1.5,.1l.1,.9l1.4,-.1v-.9Zm-2.4,.1l-1.4,.1v.9l1.4,-.1v-.9Zm-2.4,.1l-1.4,.1l.1,.9l1.4,-.1l-.1,-.9Zm-2.3,.1h-1.4v1l1.4,-.1v-.9Zm-2.4,.1h-1.4v1l1.5,-.1l-.1,-.9Zm-2.3,.1H591l.1,1l1.4,-.1V507Zm-2.4,.1h-1.4v1l1.4,-.1v-.9Zm-2.4,.1h-1.4l.1,1l1.4,-.1l-.1,-.9Zm-2.3,.1H584v1l1.4,-.1v-.9Zm-2.4,.1h-1.4v1l1.5,-.1l-.1,-.9Zm-2.3,.1h-1.5l.1,1l1.4,-.1v-.9Zm-2.4,.1h-1.4v1l1.4,-.1v-.9Zm-2.4,.1h-1.4l.1,1l1.4,-.1l-.1,-.9Zm-2.3,.1h-1.4v1l1.4,-.1v-.9Z" class="g9_305"/>
<path d="M618.3,505.9l-1.3,.4l.2,.9l1.4,-.4l-.3,-.9Zm-2.3,.7l-1.3,.4l.3,.9l1.3,-.4l-.3,-.9Zm-2.2,.7l-1.4,.4l.3,.9l1.4,-.4l-.3,-.9Z" class="g9_305"/>
<path d="M618.5,505.9l-1.4,-.2l-.1,.9l1.4,.2l.1,-.9Zm-2.3,-.4l-1.4,-.3l-.2,.9l1.4,.3l.2,-.9Zm-2.3,-.5l-1.4,-.2l-.2,.9l1.4,.3l.2,-1Z" class="g9_305"/>
<path d="M618,506.4l2.4,19l.9,-.1l-2.4,-19l-.9,.1Z" class="g8_305"/>
<path d="M618,506.4l.2,3.8l.9,-.1l-.2,-3.7H618Z" class="g8_305"/>
<path d="M618.9,506.5l.2,-.6l-.9,-.3l-.2,.6l.9,.3Z" class="g8_305"/>
<path d="M177.9,853.1H375.1V715.8H177.9Z" class="g0_305"/>
<path d="M363.8,820.4L260.7,805.3l-.1,.4l-.3,-86.1l105.1,10.1l-1.6,90.7Z" class="g1_305"/>
<path d="M364.5,821.2h-.3l.1,-.1l-.3,-.6l-.5,.2l-102.9,-15l.1,-.4l103.1,15.1l1.6,-90.7L260.3,719.6l.1,-.1l-.1,-.3v-.4L366.1,729l-1.6,92.2Z" class="g1_305"/>
<path d="M191.3,830.3l-1.7,-94l70.7,-16.7l.3,86.1l-.1,-.4l-69.2,25Z" class="g2_305"/>
<path d="M260.6,805.7v-.1v.1Zm-.3,-86.5v0Z" class="g3_305"/>
<path d="M190.6,831.3v-.2l.3,.1l-.3,.1Zm0,-.7l-1.7,-94.8l71.3,-17l.1,.4v.4l-70.7,16.7l1.7,94l69.2,-25l.1,.4l-.1,-.4l-69.9,25.3Z" class="g2_305"/>
<path d="M260.3,719.6v-.1v.1Z" class="g3_305"/>
<path d="M260.3,719.6v-.4l.1,.3l-.1,.1Z" class="g3_305"/>
<path d="M300.8,848.9L192.3,830.7L260.7,806l102.2,15l-62.1,27.9Z" class="g4_305"/>
<path d="M362.9,821L260.7,806l-.1,-.3l102.9,15l-.6,.3Z" class="g2_305"/>
<path d="M192.3,830.7L260.7,806l-68.4,24.7Z" class="g3_305"/>
<path d="M300.9,849.6l-110,-18.4l1.4,-.5l108.5,18.2L362.9,821l1.3,.2l-63.3,28.4ZM190.6,831.1l-1.1,-.1l1.1,-.4v.5Z" class="g4_305"/>
<path d="M364.2,821.2l-1.3,-.2l1.1,-.5l.3,.6l-.1,.1Z" class="g2_305"/>
<path d="M190.9,831.2l-.3,-.1v-.5l69.9,-25.3l.1,.4v.3h.1l-69.8,25.2Z" class="g3_305"/>
<path d="M260.7,806h-.1v-.3l.1,.3Z" class="g5_305"/>
<path d="M364.3,820.4l-63.8,28.7l.2,.5L364.6,821l-.3,-.6Z" class="g6_305"/>
<path d="M355.5,851.9l-1.4,1.9l1.5,2h-.7l-1.2,-1.5l-1.1,1.5h-.8l1.6,-2L352,851.9h.7l1.1,1.4l1,-1.4h.7Z" class="g6_305"/>
<path d="M363.1,821L259.6,805.9l-.3,-86.4h-.6l.4,86.6c0,.2,.1,.3,.2,.3L363,821.6l.1,-.6Z" class="g7_305"/>
<path d="M349,827.4L244,811.5l-.6,-88.2h-.6l.7,88.4c0,.2,.1,.3,.2,.3l105.2,16l.1,-.6Z" class="g7_305"/>
<path d="M334.2,834L227.7,817.4l-.9,-90.2h-.6l.9,90.4c0,.2,.1,.3,.3,.3l106.7,16.7l.1,-.6Z" class="g7_305"/>
<path d="M318.6,841l-108,-17.4l-1.3,-92.2h-.5l1.3,92.4c0,.2,.1,.3,.2,.3l108.2,17.5l.1,-.6Z" class="g7_305"/>
<path d="M361.8,821.4l3.2,.5l.1,-.6l-3.2,-.4l-.1,.5Z" class="g6_305"/>
<path d="M368.3,829.9c.6,0,1,.3,1.3,.7c.4,.5,.5,1.2,.5,2c0,.9,-.1,1.6,-.5,2c-.3,.5,-.7,.7,-1.3,.7c-.6,0,-1,-.2,-1.3,-.7c-.3,-.4,-.5,-1.1,-.5,-2c0,-.8,.2,-1.5,.5,-2c.3,-.4,.7,-.7,1.3,-.7Zm0,.6c-.3,0,-.6,.2,-.8,.5c-.2,.4,-.3,.9,-.3,1.6c0,.7,.1,1.3,.3,1.6c.2,.4,.5,.6,.8,.6c.4,0,.7,-.2,.8,-.6c.2,-.3,.3,-.9,.3,-1.6c0,-.7,-.1,-1.2,-.3,-1.6c-.1,-.3,-.4,-.5,-.8,-.5Z" class="g6_305"/>
<path d="M371.3,835.2h.8v-.9h-.8Z" class="g6_305"/>
<path d="M375.1,829.9c.6,0,1,.3,1.3,.7c.3,.5,.5,1.2,.5,2c0,.9,-.2,1.6,-.5,2c-.3,.5,-.7,.7,-1.3,.7c-.6,0,-1,-.2,-1.3,-.7c-.3,-.4,-.5,-1.1,-.5,-2c0,-.8,.2,-1.5,.5,-2c.3,-.4,.7,-.7,1.3,-.7Zm0,.6c-.4,0,-.6,.2,-.8,.5c-.2,.4,-.3,.9,-.3,1.6c0,.7,.1,1.3,.3,1.6c.2,.4,.4,.6,.8,.6c.4,0,.6,-.2,.8,-.6c.2,-.3,.3,-.9,.3,-1.6c0,-.7,-.1,-1.2,-.3,-1.6c-.2,-.3,-.4,-.5,-.8,-.5Z" class="g6_305"/>
<path d="M347.7,827.8l3.3,.5v-.6l-3.2,-.5l-.1,.6Z" class="g6_305"/>
<path d="M354.4,836.5c.5,0,1,.2,1.3,.7c.3,.5,.4,1.1,.4,2c0,.9,-.1,1.5,-.4,2c-.3,.5,-.8,.7,-1.3,.7c-.6,0,-1.1,-.2,-1.4,-.7c-.3,-.5,-.4,-1.1,-.4,-2c0,-.9,.1,-1.5,.4,-2c.3,-.5,.8,-.7,1.4,-.7Zm0,.6c-.4,0,-.7,.1,-.9,.5c-.1,.3,-.2,.9,-.2,1.6c0,.7,.1,1.2,.2,1.6c.2,.3,.5,.5,.9,.5c.3,0,.6,-.2,.8,-.5c.2,-.4,.2,-.9,.2,-1.6c0,-.7,0,-1.3,-.2,-1.6c-.2,-.4,-.5,-.5,-.8,-.5Z" class="g6_305"/>
<path d="M357.4,841.8h.7v-.9h-.7Z" class="g6_305"/>
<path d="M359.7,836.6h2.7v.6h-2.1v1.3l.3,-.1h.3c.6,0,1,.1,1.4,.4c.3,.3,.5,.8,.5,1.3c0,.6,-.2,1,-.5,1.3c-.4,.3,-.9,.5,-1.5,.5c-.2,0,-.4,0,-.7,-.1c-.2,0,-.4,-.1,-.7,-.1V841c.2,.1,.5,.2,.7,.2c.2,.1,.4,.1,.7,.1c.4,0,.7,-.1,.9,-.3c.3,-.2,.4,-.5,.4,-.9c0,-.3,-.1,-.6,-.4,-.8c-.2,-.3,-.5,-.4,-.9,-.4c-.2,0,-.4,.1,-.6,.1c-.2,0,-.4,.1,-.5,.2v-2.6Z" class="g6_305"/>
<path d="M332.9,834.4l3.3,.5l.1,-.5l-3.3,-.5l-.1,.5Z" class="g6_305"/>
<path d="M338.3,848.1h1.2v-4l-1.3,.3v-.7l1.3,-.2h.7v4.6h1.1v.6h-3v-.6Z" class="g6_305"/>
<path d="M342.7,848.7h.8v-.9h-.8Z" class="g6_305"/>
<path d="M346.5,843.4c.6,0,1,.2,1.3,.7c.3,.4,.5,1.1,.5,2c0,.9,-.2,1.5,-.5,2c-.3,.4,-.7,.7,-1.3,.7c-.6,0,-1,-.3,-1.3,-.7c-.3,-.5,-.5,-1.1,-.5,-2c0,-.9,.2,-1.6,.5,-2c.3,-.5,.7,-.7,1.3,-.7Zm0,.5c-.4,0,-.6,.2,-.8,.6c-.2,.3,-.3,.9,-.3,1.6c0,.7,.1,1.2,.3,1.6c.2,.3,.4,.5,.8,.5c.4,0,.6,-.2,.8,-.5c.2,-.4,.3,-.9,.3,-1.6c0,-.7,-.1,-1.3,-.3,-1.6c-.2,-.4,-.4,-.6,-.8,-.6Z" class="g6_305"/>
<path d="M317.3,841.4l3.4,.5l.1,-.5l-3.4,-.6l-.1,.6Z" class="g6_305"/>
<path d="M323,855.3h1.1v-3.9l-1.2,.2V851l1.2,-.3h.7v4.6H326v.6h-3v-.6Z" class="g6_305"/>
<path d="M327.4,855.9h.7V855h-.7Z" class="g6_305"/>
<path d="M329.6,850.7h2.8v.6h-2.1v1.3l.3,-.1h.3c.6,0,1,.1,1.4,.4c.3,.4,.5,.8,.5,1.3c0,.6,-.2,1,-.5,1.3c-.4,.3,-.9,.5,-1.5,.5c-.2,0,-.5,0,-.7,-.1c-.2,0,-.4,0,-.7,-.1v-.7c.2,.1,.4,.2,.7,.2c.2,.1,.4,.1,.7,.1c.4,0,.7,-.1,.9,-.3c.3,-.2,.4,-.5,.4,-.9c0,-.3,-.1,-.6,-.4,-.8c-.2,-.2,-.5,-.3,-.9,-.3c-.2,0,-.4,0,-.6,0c-.2,.1,-.4,.1,-.6,.2v-2.6Z" class="g6_305"/>
<path d="M190.6,831.1l110.5,18.5l.1,-.6L190.7,830.5l-.1,.6Z" class="g6_305"/>
<path d="M231.5,864.1c-.2,.5,-.4,.8,-.5,.9c-.2,.1,-.4,.2,-.7,.2h-.5v-.5h.3c.2,0,.3,-.1,.4,-.2c.1,0,.2,-.2,.4,-.5l.1,-.3l-1.6,-3.9h.7l1.2,3.1l1.2,-3.1h.7l-1.7,4.3Z" class="g6_305"/>
<path d="M262,719.4l.3,86.3l-69.4,25.2l.2,.5l69.6,-25.2l.2,-.3l-.3,-86.5H262Z" class="g7_305"/>
<path d="M286.2,721.7l-.1,87.5l-68,25.9l.2,.6l68.2,-26l.2,-.3l.1,-87.7h-.6Z" class="g7_305"/>
<path d="M311.2,724.1l-.6,88.7L244,839.5l.2,.5L311,813.3l.2,-.3l.5,-88.9h-.5Z" class="g7_305"/>
<path d="M336.8,726.6l-1,89.9l-65,27.5l.2,.5L336.2,817l.2,-.3l1,-90.1h-.6Z" class="g7_305"/>
<path d="M363.2,729.1l-1.5,91.2l-63.3,28.3l.2,.5l63.5,-28.3l.2,-.3l1.5,-91.4h-.6Z" class="g7_305"/>
<path d="M193.8,830.6l-2.4,.8l.2,.6l2.4,-.9l-.2,-.5Z" class="g6_305"/>
<path d="M183.6,841c.6,0,1,.2,1.3,.7c.3,.4,.5,1.1,.5,2c0,.9,-.2,1.5,-.5,2c-.3,.4,-.7,.7,-1.3,.7c-.6,0,-1,-.3,-1.4,-.7c-.3,-.5,-.4,-1.1,-.4,-2c0,-.9,.1,-1.6,.4,-2c.4,-.5,.8,-.7,1.4,-.7Zm0,.5c-.4,0,-.7,.2,-.8,.6c-.2,.3,-.3,.9,-.3,1.6c0,.7,.1,1.2,.3,1.6c.1,.3,.4,.5,.8,.5c.3,0,.6,-.2,.8,-.5c.2,-.4,.3,-.9,.3,-1.6c0,-.7,-.1,-1.3,-.3,-1.6c-.2,-.4,-.5,-.6,-.8,-.6Z" class="g6_305"/>
<path d="M186.6,846.3h.7v-.9h-.7Z" class="g6_305"/>
<path d="M190.4,841c.5,0,1,.2,1.3,.7c.3,.4,.5,1.1,.5,2c0,.9,-.2,1.5,-.5,2c-.3,.4,-.8,.7,-1.3,.7c-.6,0,-1.1,-.3,-1.4,-.7c-.3,-.5,-.4,-1.1,-.4,-2c0,-.9,.1,-1.6,.4,-2c.3,-.5,.8,-.7,1.4,-.7Zm0,.5c-.4,0,-.7,.2,-.9,.6c-.1,.3,-.2,.9,-.2,1.6c0,.7,.1,1.2,.2,1.6c.2,.3,.5,.5,.9,.5c.3,0,.6,-.2,.8,-.5c.2,-.4,.3,-.9,.3,-1.6c0,-.7,-.1,-1.3,-.3,-1.6c-.2,-.4,-.5,-.6,-.8,-.6Z" class="g6_305"/>
<path d="M218.9,834.8l-2.3,.9l.2,.5l2.3,-.9l-.2,-.5Z" class="g6_305"/>
<path d="M208.8,845.4c.6,0,1.1,.2,1.4,.7c.3,.4,.4,1.1,.4,2c0,.9,-.1,1.5,-.4,2c-.3,.4,-.8,.7,-1.4,.7c-.5,0,-1,-.3,-1.3,-.7c-.3,-.5,-.5,-1.1,-.5,-2c0,-.9,.2,-1.6,.5,-2c.3,-.5,.8,-.7,1.3,-.7Zm0,.5c-.3,0,-.6,.2,-.8,.6c-.2,.3,-.3,.9,-.3,1.6c0,.7,.1,1.2,.3,1.6c.2,.3,.5,.5,.8,.5c.4,0,.7,-.2,.9,-.5c.1,-.4,.2,-.9,.2,-1.6c0,-.7,-.1,-1.3,-.2,-1.6c-.2,-.4,-.5,-.6,-.9,-.6Z" class="g6_305"/>
<path d="M211.9,850.7h.7v-.9h-.7Z" class="g6_305"/>
<path d="M214.1,845.5h2.8v.6h-2.1v1.2h.3l.3,-.1c.6,0,1,.2,1.4,.5c.3,.3,.5,.8,.5,1.3c0,.6,-.2,1,-.6,1.3c-.3,.3,-.8,.5,-1.4,.5c-.2,0,-.5,-.1,-.7,-.1c-.2,0,-.4,-.1,-.7,-.2v-.7c.2,.2,.4,.2,.7,.3c.2,0,.4,.1,.7,.1c.4,0,.7,-.1,.9,-.3c.2,-.2,.4,-.5,.4,-.9c0,-.4,-.2,-.6,-.4,-.9c-.2,-.2,-.5,-.3,-.9,-.3c-.2,0,-.4,0,-.6,.1c-.2,0,-.4,.1,-.6,.2v-2.6Z" class="g6_305"/>
<path d="M244.9,839.1l-2.3,1l.2,.5l2.3,-.9l-.2,-.6Z" class="g6_305"/>
<path d="M233.5,854.6h1.1v-3.9l-1.2,.2v-.6l1.2,-.3h.7v4.6h1.2v.6h-3v-.6Z" class="g6_305"/>
<path d="M237.9,855.2h.7v-.9h-.7Z" class="g6_305"/>
<path d="M241.7,849.9c.5,0,1,.3,1.3,.7c.3,.5,.5,1.1,.5,2c0,.9,-.2,1.6,-.5,2c-.3,.5,-.8,.7,-1.3,.7c-.6,0,-1.1,-.2,-1.4,-.7c-.3,-.4,-.4,-1.1,-.4,-2c0,-.9,.1,-1.5,.4,-2c.3,-.4,.8,-.7,1.4,-.7Zm0,.6c-.4,0,-.7,.2,-.9,.5c-.1,.4,-.2,.9,-.2,1.6c0,.7,.1,1.3,.2,1.6c.2,.4,.5,.5,.9,.5c.3,0,.6,-.1,.8,-.5c.2,-.3,.3,-.9,.3,-1.6c0,-.7,-.1,-1.2,-.3,-1.6c-.2,-.3,-.5,-.5,-.8,-.5Z" class="g6_305"/>
<path d="M271.6,843.6l-2.2,1l.2,.5l2.2,-.9l-.2,-.6Z" class="g6_305"/>
<path d="M260.4,859.3h1.1v-4l-1.2,.3v-.7l1.2,-.2h.7v4.6h1.2v.6h-3v-.6Z" class="g6_305"/>
<path d="M264.8,859.9h.7V859h-.7Z" class="g6_305"/>
<path d="M267,854.7h2.8v.6h-2.1v1.3l.3,-.1h.3c.6,0,1,.1,1.4,.4c.3,.3,.5,.8,.5,1.3c0,.6,-.2,1,-.5,1.3c-.4,.3,-.9,.5,-1.5,.5c-.2,0,-.5,0,-.7,-.1c-.2,0,-.4,-.1,-.7,-.1v-.7c.2,.1,.4,.2,.7,.2c.2,.1,.4,.1,.7,.1c.4,0,.7,-.1,.9,-.3c.3,-.2,.4,-.5,.4,-.9c0,-.3,-.1,-.6,-.4,-.8c-.2,-.2,-.5,-.4,-.9,-.4c-.2,0,-.4,.1,-.6,.1c-.2,.1,-.4,.1,-.6,.2v-2.6Z" class="g6_305"/>
<path d="M299.2,848.3l-2.2,.9l.3,.6l2.2,-1l-.3,-.5Z" class="g6_305"/>
<path d="M288.6,864.1H291v.6h-3.3v-.6c.3,-.3,.7,-.6,1.1,-1.1c.5,-.4,.8,-.7,.9,-.9c.2,-.2,.4,-.4,.5,-.6c0,-.2,.1,-.4,.1,-.5c0,-.3,-.1,-.5,-.3,-.7c-.2,-.2,-.4,-.3,-.8,-.3c-.2,0,-.4,.1,-.7,.1c-.2,.1,-.5,.2,-.7,.4v-.7c.2,-.1,.5,-.2,.8,-.3c.2,0,.4,-.1,.6,-.1c.6,0,1,.2,1.3,.4c.3,.3,.5,.7,.5,1.1c0,.2,0,.4,-.1,.6c-.1,.2,-.3,.4,-.5,.7c0,.1,-.2,.3,-.5,.6c-.3,.3,-.8,.7,-1.3,1.3Z" class="g6_305"/>
<path d="M292.5,864.7h.7v-.9h-.7Z" class="g6_305"/>
<path d="M296.3,859.4c.5,0,1,.3,1.3,.7c.3,.5,.4,1.2,.4,2c0,.9,-.1,1.6,-.4,2c-.3,.5,-.8,.7,-1.3,.7c-.6,0,-1.1,-.2,-1.4,-.7c-.3,-.4,-.4,-1.1,-.4,-2c0,-.8,.1,-1.5,.4,-2c.3,-.4,.8,-.7,1.4,-.7Zm0,.6c-.4,0,-.7,.2,-.9,.5c-.1,.4,-.2,.9,-.2,1.6c0,.7,.1,1.3,.2,1.6c.2,.4,.5,.6,.9,.6c.3,0,.6,-.2,.8,-.6c.2,-.3,.2,-.9,.2,-1.6c0,-.7,0,-1.2,-.2,-1.6c-.2,-.3,-.5,-.5,-.8,-.5Z" class="g6_305"/>
<path d="M191.2,831.1l-1.7,-95.3h-.6l1.7,95.3h.6Z" class="g6_305"/>
<path d="M157,783.5h3v.6l-2.4,2.8H160v.5h-3.1v-.6l2.4,-2.8H157v-.5Z" class="g6_305"/>
<path d="M191,829.2l69.6,-25l103.6,15.1l.1,-.6l-103.6,-15h-.2l-69.7,25l.2,.5Z" class="g7_305"/>
<path d="M190.6,806.8l70,-23.1l104,13.9v-.5l-104,-13.9h-.2l-70,23.1l.2,.5Z" class="g7_305"/>
<path d="M190.2,784.2l70.3,-21.1l104.4,12.7l.1,-.6L260.5,762.5h-.1L190,783.6l.2,.6Z" class="g7_305"/>
<path d="M189.7,761.3l70.7,-19.1l104.9,11.5l.1,-.5l-105,-11.5h-.1l-70.7,19.1l.1,.5Z" class="g7_305"/>
<path d="M189.3,738.3l71,-17.1l105.4,10.3l.1,-.6L260.3,720.7h-.1l-71,17l.1,.6Z" class="g7_305"/>
<path d="M191.7,828.4l-2.4,.8l.2,.6l2.4,-.9l-.2,-.5Z" class="g6_305"/>
<path d="M173.1,829.9c.6,0,1,.2,1.4,.7c.3,.5,.4,1.1,.4,2c0,.9,-.1,1.5,-.4,2c-.4,.5,-.8,.7,-1.4,.7c-.6,0,-1,-.2,-1.3,-.7c-.3,-.5,-.5,-1.1,-.5,-2c0,-.9,.2,-1.5,.5,-2c.3,-.5,.7,-.7,1.3,-.7Zm0,.6c-.3,0,-.6,.1,-.8,.5c-.2,.4,-.3,.9,-.3,1.6c0,.7,.1,1.3,.3,1.6c.2,.4,.5,.5,.8,.5c.4,0,.7,-.1,.8,-.5c.2,-.3,.3,-.9,.3,-1.6c0,-.7,-.1,-1.2,-.3,-1.6c-.1,-.4,-.4,-.5,-.8,-.5Z" class="g6_305"/>
<path d="M176.1,835.2h.8v-.9h-.8Z" class="g6_305"/>
<path d="M179.9,829.9c.6,0,1,.2,1.3,.7c.3,.5,.5,1.1,.5,2c0,.9,-.2,1.5,-.5,2c-.3,.5,-.7,.7,-1.3,.7c-.6,0,-1,-.2,-1.3,-.7c-.3,-.5,-.5,-1.1,-.5,-2c0,-.9,.2,-1.5,.5,-2c.3,-.5,.7,-.7,1.3,-.7Zm0,.6c-.4,0,-.6,.1,-.8,.5c-.2,.4,-.3,.9,-.3,1.6c0,.7,.1,1.3,.3,1.6c.2,.4,.4,.5,.8,.5c.4,0,.6,-.1,.8,-.5c.2,-.3,.3,-.9,.3,-1.6c0,-.7,-.1,-1.2,-.3,-1.6c-.2,-.4,-.4,-.5,-.8,-.5Z" class="g6_305"/>
<path d="M191.3,806l-2.4,.8l.2,.5l2.4,-.8l-.2,-.5Z" class="g6_305"/>
<path d="M172.7,807.4c.5,0,1,.2,1.3,.7c.3,.5,.4,1.1,.4,2c0,.9,-.1,1.5,-.4,2c-.3,.5,-.8,.7,-1.3,.7c-.6,0,-1.1,-.2,-1.4,-.7c-.3,-.5,-.4,-1.1,-.4,-2c0,-.9,.1,-1.5,.4,-2c.3,-.5,.8,-.7,1.4,-.7Zm0,.6c-.4,0,-.7,.2,-.9,.5c-.1,.4,-.2,.9,-.2,1.6c0,.7,.1,1.3,.2,1.6c.2,.4,.5,.5,.9,.5c.3,0,.6,-.1,.8,-.5c.2,-.3,.2,-.9,.2,-1.6c0,-.7,0,-1.2,-.2,-1.6c-.2,-.3,-.5,-.5,-.8,-.5Z" class="g6_305"/>
<path d="M175.7,812.7h.7v-.9h-.7Z" class="g6_305"/>
<path d="M177.9,807.5h2.8v.6h-2.1v1.3l.3,-.1h.3c.6,0,1,.1,1.4,.4c.3,.4,.5,.8,.5,1.3c0,.6,-.2,1,-.5,1.3c-.4,.3,-.9,.5,-1.5,.5c-.2,0,-.4,0,-.7,-.1c-.2,0,-.4,-.1,-.7,-.1v-.7c.2,.1,.5,.2,.7,.2c.2,.1,.4,.1,.7,.1c.4,0,.7,-.1,.9,-.3c.3,-.2,.4,-.5,.4,-.9c0,-.3,-.1,-.6,-.4,-.8c-.2,-.2,-.5,-.3,-.9,-.3c-.2,0,-.4,0,-.6,0c-.2,.1,-.4,.1,-.6,.2v-2.6Z" class="g6_305"/>
<path d="M190.9,783.4l-2.4,.7l.1,.5l2.5,-.7l-.2,-.5Z" class="g6_305"/>
<path d="M170.8,789.4H172v-4l-1.3,.3v-.6l1.2,-.3h.7v4.6h1.2v.6h-3v-.6Z" class="g6_305"/>
<path d="M175.2,790h.7v-.9h-.7Z" class="g6_305"/>
<path d="M179,784.7c.6,0,1,.2,1.3,.7c.3,.5,.5,1.1,.5,2c0,.9,-.2,1.5,-.5,2c-.3,.5,-.7,.7,-1.3,.7c-.6,0,-1.1,-.2,-1.4,-.7c-.3,-.5,-.4,-1.1,-.4,-2c0,-.9,.1,-1.5,.4,-2c.3,-.5,.8,-.7,1.4,-.7Zm0,.6c-.4,0,-.7,.1,-.8,.5c-.2,.4,-.3,.9,-.3,1.6c0,.7,.1,1.2,.3,1.6c.1,.4,.4,.5,.8,.5c.3,0,.6,-.1,.8,-.5c.2,-.4,.3,-.9,.3,-1.6c0,-.7,-.1,-1.2,-.3,-1.6c-.2,-.4,-.5,-.5,-.8,-.5Z" class="g6_305"/>
<path d="M190.5,760.5l-2.4,.7l.1,.5l2.4,-.6l-.1,-.6Z" class="g6_305"/>
<path d="M170.3,766.5h1.2v-4l-1.3,.3v-.7l1.3,-.2h.7v4.6h1.1v.6h-3v-.6Z" class="g6_305"/>
<path d="M174.7,767.1h.8v-.9h-.8Z" class="g6_305"/>
<path d="M177,761.9h2.8v.6h-2.2v1.3l.4,-.1h.3c.5,0,1,.1,1.3,.4c.4,.3,.5,.8,.5,1.3c0,.6,-.1,1,-.5,1.3c-.3,.3,-.8,.5,-1.4,.5c-.3,0,-.5,0,-.7,-.1c-.2,0,-.5,-.1,-.7,-.1v-.7c.2,.1,.4,.2,.6,.2c.3,.1,.5,.1,.7,.1c.4,0,.8,-.1,1,-.3c.2,-.2,.3,-.5,.3,-.9c0,-.3,-.1,-.6,-.3,-.8c-.2,-.2,-.6,-.4,-1,-.4c-.1,0,-.3,.1,-.5,.1c-.2,0,-.4,.1,-.6,.2v-2.6Z" class="g6_305"/>
<path d="M190.1,737.5l-2.4,.6l.1,.5l2.4,-.5l-.1,-.6Z" class="g6_305"/>
<path d="M170.3,743.4h2.5v.6h-3.3v-.6c.3,-.3,.6,-.7,1.1,-1.1c.4,-.5,.7,-.8,.9,-.9c.2,-.3,.3,-.5,.4,-.7c.1,-.2,.2,-.3,.2,-.5c0,-.3,-.1,-.5,-.3,-.7c-.2,-.1,-.5,-.2,-.8,-.2c-.2,0,-.4,0,-.7,.1c-.2,.1,-.5,.2,-.8,.3V739c.3,-.1,.6,-.2,.8,-.2c.3,-.1,.5,-.1,.7,-.1c.5,0,1,.1,1.3,.4c.3,.3,.5,.6,.5,1.1c0,.2,-.1,.4,-.2,.6c0,.2,-.2,.4,-.4,.6c-.1,.1,-.2,.3,-.5,.6c-.4,.3,-.8,.8,-1.4,1.4Z" class="g6_305"/>
<path d="M174.3,744h.7v-.9h-.7Z" class="g6_305"/>
<path d="M178,738.7c.6,0,1,.2,1.4,.7c.3,.4,.4,1.1,.4,2c0,.8,-.1,1.5,-.4,2c-.4,.4,-.8,.7,-1.4,.7c-.6,0,-1,-.3,-1.3,-.7c-.3,-.5,-.5,-1.2,-.5,-2c0,-.9,.2,-1.6,.5,-2c.3,-.5,.7,-.7,1.3,-.7Zm0,.5c-.3,0,-.6,.2,-.8,.6c-.2,.3,-.3,.9,-.3,1.6c0,.7,.1,1.2,.3,1.6c.2,.3,.5,.5,.8,.5c.4,0,.7,-.2,.8,-.5c.2,-.4,.3,-.9,.3,-1.6c0,-.7,-.1,-1.3,-.3,-1.6c-.1,-.4,-.4,-.6,-.8,-.6Z" class="g6_305"/>
<path d="M297.1,767.5l-36.2,36.8l.8,.8l36.2,-36.9l-.8,-.7Z" class="g8_305"/>
<path d="M297,767.6l-3.7,7.4l1,.5l3.7,-7.4l-1,-.5Z" class="g8_305"/>
<path d="M297.2,767.4l-7.7,4.3l.5,.9l7.8,-4.3l-.6,-.9Z" class="g8_305"/>
<path d="M298.7,784.9l-37.6,19.3l.4,1l37.7,-19.4l-.5,-.9Z" class="g8_305"/>
<path d="M298.6,785l-5.8,5.6l.8,.8l5.7,-5.7l-.7,-.7Z" class="g8_305"/>
<path d="M298.9,784.8l-8.7,1.7l.2,1.1l8.7,-1.7l-.2,-1.1Z" class="g8_305"/>
<path d="M289.1,751.3l-28.3,53.1l1,.5l28.3,-53.1l-1,-.5Z" class="g8_305"/>
<path d="M289.1,751.5l-1.6,8.2l1,.2l1.6,-8.2l-1,-.2Z" class="g8_305"/>
<path d="M289.2,751.2l-5.8,5.7l.8,.8L290,752l-.8,-.8Z" class="g8_305"/>
<path d="M293.7,801.1l-32.4,3.1l.1,1l32.4,-3l-.1,-1.1Z" class="g8_305"/>
<path d="M293.5,801.2l-6.2,2.9l.4,.9l6.3,-2.9l-.5,-.9Z" class="g8_305"/>
<path d="M293.9,801.1l-7.4,-1.6l-.3,1.1l7.4,1.6l.3,-1.1Z" class="g8_305"/>
<path d="M275.7,738.7l-14.9,65.9l1,.2l15,-65.9l-1.1,-.2Z" class="g8_305"/>
<path d="M275.7,738.8l-.3,8.5h1l.4,-8.5h-1.1Z" class="g8_305"/>
<path d="M275.8,738.6l-3,6.1l1,.5l2.9,-6.2l-.9,-.4Z" class="g8_305"/>
<path d="M282.7,814l-21.2,-9.8l-.4,1l21.1,9.8l.5,-1Z" class="g8_305"/>
<path d="M282.4,814l-4,.3v1.1l4.1,-.3l-.1,-1.1Z" class="g8_305"/>
<path d="M282.8,814.1L278.6,810l-.7,.7l4.2,4.2l.7,-.8Z" class="g8_305"/>
<path d="M258.7,731.4l2.1,73.3h1l-2,-73.4l-1.1,.1Z" class="g8_305"/>
<path d="M258.7,731.4l.1,8.5h1.1l-.1,-8.5h-1.1Z" class="g8_305"/>
<path d="M258.7,731.4l.3,6l1.1,-.1l-.3,-6l-1.1,.1Z" class="g8_305"/>
<path d="M267,821.8l-5.2,-17.3l-1,.3l5.1,17.3l1.1,-.3Z" class="g8_305"/>
<path d="M266.7,821.5l-.8,-.6l-.6,.9l.8,.6l.6,-.9Z" class="g8_305"/>
<path d="M267,821.8l-.9,-5l-1,.2l.8,5l1.1,-.2Z" class="g8_305"/>
<path d="M240.4,730.7l20.4,74.1l1,-.2L241.4,730.4l-1,.3Z" class="g8_305"/>
<path d="M240.4,730.6l.9,8.3l1.1,-.1l-1,-8.3l-1,.1Z" class="g8_305"/>
<path d="M240.4,730.8l2.8,5.3l1,-.5l-2.8,-5.3l-1,.5Z" class="g8_305"/>
<path d="M248.4,822.8L261.7,805l-.8,-.6l-13.3,17.8l.8,.6Z" class="g8_305"/>
<path d="M248,823l1.8,-.1v-1L248,822v1Z" class="g8_305"/>
<path d="M248.5,822.7l1.8,-4.7l-1,-.4l-1.8,4.7l1,.4Z" class="g8_305"/>
<path d="M223.5,737.1l37.3,67.8l1,-.5L224.5,736.6l-1,.5Z" class="g8_305"/>
<path d="M223.5,737l2.1,7.7l1,-.3l-2.1,-7.7l-1,.3Z" class="g8_305"/>
<path d="M223.6,737.2l4.5,4.2l.7,-.8l-4.4,-4.2l-.8,.8Z" class="g8_305"/>
<path d="M230.1,816.4l31.4,-11.2l-.4,-1l-31.4,11.2l.4,1Z" class="g8_305"/>
<path d="M229.7,816.4l3.6,1.1l.3,-1L230,815.4l-.3,1Z" class="g8_305"/>
<path d="M230.3,816.3l3.8,-3.7l-.8,-.8l-3.8,3.7l.8,.8Z" class="g8_305"/>
<path d="M210.9,749.8l50,55.3l.8,-.8l-50,-55.2l-.8,.7Z" class="g8_305"/>
<path d="M210.8,749.7l3.2,6.8l1,-.4l-3.3,-6.9l-.9,.5Z" class="g8_305"/>
<path d="M211,749.9l5.5,2.8l.5,-.9L211.5,749l-.5,.9Z" class="g8_305"/>
<path d="M215.1,803.4l46.2,1.8v-1l-46.1,-1.9l-.1,1.1Z" class="g8_305"/>
<path d="M214.9,803.3l4.4,2.6l.5,-.9l-4.4,-2.6l-.5,.9Z" class="g8_305"/>
<path d="M215.4,803.4l5.1,-2.3l-.4,-1l-5.2,2.3l.5,1Z" class="g8_305"/>
<path d="M204.7,767L261,805.1l.6,-.9l-56.3,-38l-.6,.8Z" class="g8_305"/>
<path d="M204.5,766.9l4.1,5.7l.9,-.7l-4.1,-5.6l-.9,.6Z" class="g8_305"/>
<path d="M204.8,767.1l6,1.2l.2,-1.1l-5.9,-1.1l-.3,1Z" class="g8_305"/>
<path d="M206.1,786l55,19.2l.4,-1L206.5,785l-.4,1Z" class="g8_305"/>
<path d="M205.9,785.9l4.6,4.2l.7,-.8l-4.5,-4.2l-.8,.8Z" class="g8_305"/>
<path d="M206.4,786l5.8,-.6l-.1,-1l-5.8,.5l.1,1.1Z" class="g8_305"/>
<path d="M517.5,853.6H714.6V715.8H517.5Z" class="g0_305"/>
<path d="M703.4,820.4L600.2,805.3v.4l-.3,-86.1L705,729.7l-1.6,90.7Z" class="g1_305"/>
<path d="M704.1,821.2h-.3l.1,-.1l-.3,-.6l-.5,.2l-102.9,-15v-.4l103.2,15.1L705,729.7L599.9,719.6v-.8L705.7,729l-1.6,92.2Z" class="g1_305"/>
<path d="M530.8,830.3l-1.7,-94l70.8,-16.7l.3,86.1l-.1,-.4l-69.3,25Z" class="g2_305"/>
<path d="M530.1,831.3v-.2l.4,.1l-.4,.1Zm0,-.7l-1.7,-94.8l71.4,-17l.1,.4l-.1,.3h.1v.1l-70.8,16.7l1.7,94l69.3,-25l.1,.4l-.1,-.4l-70,25.3Z" class="g2_305"/>
<path d="M599.9,719.6v-.1v.1Z" class="g3_305"/>
<path d="M599.9,719.6v-.1h-.1l.1,-.3v.4Z" class="g3_305"/>
<path d="M640.4,848.9L531.9,830.7L600.2,806l102.3,15l-62.1,27.9Z" class="g4_305"/>
<path d="M702.5,821L600.2,806h.1l-.1,-.3l102.9,15l-.6,.3Z" class="g2_305"/>
<path d="M640.5,849.6l-110,-18.4L600.2,806l-68.3,24.7l108.5,18.2L702.5,821l1.3,.2l-63.3,28.4Z" class="g4_305"/>
<path d="M703.8,821.2l-1.3,-.2l.6,-.3l.5,-.2l.3,.6l-.1,.1ZM600.2,806h.1h-.1Z" class="g2_305"/>
<path d="M530.1,831.1l-1,-.1l1,-.4v.5Z" class="g4_305"/>
<path d="M530.5,831.2l-.4,-.1v-.5l70,-25.3l.1,.4l-.1,.3h.1l-69.7,25.2Z" class="g3_305"/>
<path d="M600.2,806h-.1l.1,-.3l.1,.3h-.1Z" class="g5_305"/>
<path d="M703.9,820.4L640,849.1l.3,.5L704.1,821l-.2,-.6Z" class="g6_305"/>
<path d="M695.1,851.9l-1.4,1.9l1.5,2h-.8l-1.1,-1.5l-1.2,1.5h-.7l1.5,-2l-1.4,-1.9h.8l1,1.4l1,-1.4h.8Z" class="g6_305"/>
<path d="M702.6,821L599.2,805.9l-.4,-86.4h-.5l.3,86.6c0,.2,.1,.3,.3,.3l103.7,15.2V821Z" class="g7_305"/>
<path d="M688.5,827.4L583.6,811.5L583,723.3h-.6l.6,88.4c0,.2,.1,.3,.3,.3l105.1,16l.1,-.6Z" class="g7_305"/>
<path d="M673.7,834L567.3,817.4l-1,-90.2h-.5l.9,90.4c0,.2,.1,.3,.2,.3l106.7,16.7l.1,-.6Z" class="g7_305"/>
<path d="M658.2,841l-108,-17.4l-1.3,-92.2h-.6l1.3,92.4c0,.2,.1,.3,.2,.3l108.3,17.5l.1,-.6Z" class="g7_305"/>
<path d="M701.4,821.4l3.2,.5l.1,-.6l-3.2,-.4l-.1,.5Z" class="g6_305"/>
<path d="M707.9,829.9c.6,0,1,.3,1.3,.7c.3,.5,.5,1.2,.5,2c0,.9,-.2,1.6,-.5,2c-.3,.5,-.7,.7,-1.3,.7c-.6,0,-1.1,-.2,-1.4,-.7c-.3,-.4,-.4,-1.1,-.4,-2c0,-.8,.1,-1.5,.4,-2c.3,-.4,.8,-.7,1.4,-.7Zm0,.6c-.4,0,-.7,.2,-.8,.5c-.2,.4,-.3,.9,-.3,1.6c0,.7,.1,1.3,.3,1.6c.1,.4,.4,.6,.8,.6c.3,0,.6,-.2,.8,-.6c.2,-.3,.3,-.9,.3,-1.6c0,-.7,-.1,-1.2,-.3,-1.6c-.2,-.3,-.5,-.5,-.8,-.5Z" class="g6_305"/>
<path d="M710.9,835.2h.7v-.9h-.7Z" class="g6_305"/>
<path d="M714.7,829.9c.5,0,1,.3,1.3,.7c.3,.5,.4,1.2,.4,2c0,.9,-.1,1.6,-.4,2c-.3,.5,-.8,.7,-1.3,.7c-.6,0,-1.1,-.2,-1.4,-.7c-.3,-.4,-.4,-1.1,-.4,-2c0,-.8,.1,-1.5,.4,-2c.3,-.4,.8,-.7,1.4,-.7Zm0,.6c-.4,0,-.7,.2,-.9,.5c-.1,.4,-.2,.9,-.2,1.6c0,.7,.1,1.3,.2,1.6c.2,.4,.5,.6,.9,.6c.3,0,.6,-.2,.8,-.6c.2,-.3,.2,-.9,.2,-1.6c0,-.7,0,-1.2,-.2,-1.6c-.2,-.3,-.5,-.5,-.8,-.5Z" class="g6_305"/>
<path d="M687.3,827.8l3.2,.5l.1,-.6l-3.2,-.5l-.1,.6Z" class="g6_305"/>
<path d="M693.9,836.5c.6,0,1,.2,1.3,.7c.3,.5,.5,1.1,.5,2c0,.9,-.2,1.5,-.5,2c-.3,.5,-.7,.7,-1.3,.7c-.6,0,-1,-.2,-1.3,-.7c-.3,-.5,-.5,-1.1,-.5,-2c0,-.9,.2,-1.5,.5,-2c.3,-.5,.7,-.7,1.3,-.7Zm0,.6c-.4,0,-.6,.1,-.8,.5c-.2,.3,-.3,.9,-.3,1.6c0,.7,.1,1.2,.3,1.6c.2,.3,.4,.5,.8,.5c.4,0,.6,-.2,.8,-.5c.2,-.4,.3,-.9,.3,-1.6c0,-.7,-.1,-1.3,-.3,-1.6c-.2,-.4,-.4,-.5,-.8,-.5Z" class="g6_305"/>
<path d="M696.9,841.8h.8v-.9h-.8Z" class="g6_305"/>
<path d="M699.2,836.6H702v.6h-2.2v1.3l.4,-.1h.3c.5,0,1,.1,1.3,.4c.4,.3,.5,.8,.5,1.3c0,.6,-.1,1,-.5,1.3c-.3,.3,-.8,.5,-1.4,.5c-.3,0,-.5,0,-.7,-.1c-.2,0,-.5,-.1,-.7,-.1V841c.2,.1,.4,.2,.6,.2c.3,.1,.5,.1,.7,.1c.4,0,.8,-.1,1,-.3c.2,-.2,.3,-.5,.3,-.9c0,-.3,-.1,-.6,-.3,-.8c-.2,-.3,-.6,-.4,-1,-.4c-.2,0,-.3,.1,-.5,.1c-.2,0,-.4,.1,-.6,.2v-2.6Z" class="g6_305"/>
<path d="M672.4,834.4l3.3,.5l.1,-.5l-3.3,-.5l-.1,.5Z" class="g6_305"/>
<path d="M677.9,848.1H679v-4l-1.2,.3v-.7l1.2,-.2h.7v4.6h1.2v.6h-3v-.6Z" class="g6_305"/>
<path d="M682.3,848.7h.7v-.9h-.7Z" class="g6_305"/>
<path d="M686.1,843.4c.5,0,1,.2,1.3,.7c.3,.4,.4,1.1,.4,2c0,.9,-.1,1.5,-.4,2c-.3,.4,-.8,.7,-1.3,.7c-.6,0,-1.1,-.3,-1.4,-.7c-.3,-.5,-.4,-1.1,-.4,-2c0,-.9,.1,-1.6,.4,-2c.3,-.5,.8,-.7,1.4,-.7Zm0,.5c-.4,0,-.7,.2,-.9,.6c-.1,.3,-.2,.9,-.2,1.6c0,.7,.1,1.2,.2,1.6c.2,.3,.5,.5,.9,.5c.3,0,.6,-.2,.8,-.5c.2,-.4,.2,-.9,.2,-1.6c0,-.7,0,-1.3,-.2,-1.6c-.2,-.4,-.5,-.6,-.8,-.6Z" class="g6_305"/>
<path d="M656.9,841.4l3.3,.5l.1,-.5l-3.3,-.6l-.1,.6Z" class="g6_305"/>
<path d="M662.5,855.3h1.2v-3.9l-1.3,.2V851l1.3,-.3h.7v4.6h1.1v.6h-3v-.6Z" class="g6_305"/>
<path d="M666.9,855.9h.8V855h-.8Z" class="g6_305"/>
<path d="M669.2,850.7H672v.6h-2.2v1.3l.3,-.1h.3c.6,0,1.1,.1,1.4,.4c.4,.4,.5,.8,.5,1.3c0,.6,-.1,1,-.5,1.3c-.3,.3,-.8,.5,-1.5,.5c-.2,0,-.4,0,-.6,-.1c-.2,0,-.5,0,-.7,-.1v-.7c.2,.1,.4,.2,.6,.2c.2,.1,.5,.1,.7,.1c.4,0,.7,-.1,1,-.3c.2,-.2,.3,-.5,.3,-.9c0,-.3,-.1,-.6,-.3,-.8c-.3,-.2,-.6,-.3,-1,-.3c-.2,0,-.3,0,-.5,0c-.2,.1,-.4,.1,-.6,.2v-2.6Z" class="g6_305"/>
<path d="M530.1,831.1l110.6,18.5V849L530.2,830.5l-.1,.6Z" class="g6_305"/>
<path d="M571,864.1c-.1,.5,-.3,.8,-.5,.9c-.2,.1,-.4,.2,-.7,.2h-.5v-.5h.4c.2,0,.3,-.1,.4,-.2c.1,0,.2,-.2,.3,-.5l.1,-.3L569,859.8h.6l1.3,3.1l1.2,-3.1h.6l-1.7,4.3Z" class="g6_305"/>
<path d="M601.6,719.4l.2,86.3l-69.4,25.2l.2,.5l69.6,-25.2l.2,-.3l-.3,-86.5h-.5Z" class="g7_305"/>
<path d="M625.8,721.7l-.1,87.5l-68.1,25.9l.2,.6l68.3,-26l.1,-.3l.2,-87.7h-.6Z" class="g7_305"/>
<path d="M650.7,724.1l-.5,88.7l-66.6,26.7l.2,.5l66.8,-26.7l.1,-.3l.6,-88.9h-.6Z" class="g7_305"/>
<path d="M676.4,726.6l-1,89.9L610.3,844l.3,.5L675.7,817l.2,-.3L677,726.6h-.6Z" class="g7_305"/>
<path d="M702.8,729.1l-1.5,91.2L638,848.6l.2,.5l63.5,-28.3l.1,-.3l1.6,-91.4h-.6Z" class="g7_305"/>
<path d="M533.3,830.6l-2.4,.8l.2,.6l2.4,-.9l-.2,-.5Z" class="g6_305"/>
<path d="M523.1,841c.6,0,1.1,.2,1.4,.7c.3,.4,.4,1.1,.4,2c0,.9,-.1,1.5,-.4,2c-.3,.4,-.8,.7,-1.4,.7c-.5,0,-1,-.3,-1.3,-.7c-.3,-.5,-.5,-1.1,-.5,-2c0,-.9,.2,-1.6,.5,-2c.3,-.5,.8,-.7,1.3,-.7Zm0,.5c-.3,0,-.6,.2,-.8,.6c-.2,.3,-.3,.9,-.3,1.6c0,.7,.1,1.2,.3,1.6c.2,.3,.5,.5,.8,.5c.4,0,.7,-.2,.8,-.5c.2,-.4,.3,-.9,.3,-1.6c0,-.7,-.1,-1.3,-.3,-1.6c-.1,-.4,-.4,-.6,-.8,-.6Z" class="g6_305"/>
<path d="M526.2,846.3h.7v-.9h-.7Z" class="g6_305"/>
<path d="M529.9,841c.6,0,1,.2,1.3,.7c.4,.4,.5,1.1,.5,2c0,.9,-.1,1.5,-.5,2c-.3,.4,-.7,.7,-1.3,.7c-.6,0,-1,-.3,-1.3,-.7c-.3,-.5,-.5,-1.1,-.5,-2c0,-.9,.2,-1.6,.5,-2c.3,-.5,.7,-.7,1.3,-.7Zm0,.5c-.3,0,-.6,.2,-.8,.6c-.2,.3,-.3,.9,-.3,1.6c0,.7,.1,1.2,.3,1.6c.2,.3,.5,.5,.8,.5c.4,0,.7,-.2,.8,-.5c.2,-.4,.3,-.9,.3,-1.6c0,-.7,-.1,-1.3,-.3,-1.6c-.1,-.4,-.4,-.6,-.8,-.6Z" class="g6_305"/>
<path d="M558.5,834.8l-2.4,.9l.2,.5l2.4,-.9l-.2,-.5Z" class="g6_305"/>
<path d="M548.4,845.4c.6,0,1,.2,1.3,.7c.3,.4,.5,1.1,.5,2c0,.9,-.2,1.5,-.5,2c-.3,.4,-.7,.7,-1.3,.7c-.6,0,-1,-.3,-1.3,-.7c-.3,-.5,-.5,-1.1,-.5,-2c0,-.9,.2,-1.6,.5,-2c.3,-.5,.7,-.7,1.3,-.7Zm0,.5c-.4,0,-.6,.2,-.8,.6c-.2,.3,-.3,.9,-.3,1.6c0,.7,.1,1.2,.3,1.6c.2,.3,.4,.5,.8,.5c.4,0,.6,-.2,.8,-.5c.2,-.4,.3,-.9,.3,-1.6c0,-.7,-.1,-1.3,-.3,-1.6c-.2,-.4,-.4,-.6,-.8,-.6Z" class="g6_305"/>
<path d="M551.4,850.7h.7v-.9h-.7Z" class="g6_305"/>
<path d="M553.7,845.5h2.7v.6h-2.1v1.2h.3l.3,-.1c.6,0,1.1,.2,1.4,.5c.3,.3,.5,.8,.5,1.3c0,.6,-.2,1,-.5,1.3c-.3,.3,-.8,.5,-1.5,.5c-.2,0,-.4,-.1,-.6,-.1c-.3,0,-.5,-.1,-.7,-.2v-.7c.2,.2,.4,.2,.6,.3c.2,0,.5,.1,.7,.1c.4,0,.7,-.1,1,-.3c.2,-.2,.3,-.5,.3,-.9c0,-.4,-.1,-.6,-.3,-.9c-.3,-.2,-.6,-.3,-1,-.3c-.2,0,-.4,0,-.5,.1c-.2,0,-.4,.1,-.6,.2v-2.6Z" class="g6_305"/>
<path d="M584.4,839.1l-2.3,1l.2,.5l2.3,-.9l-.2,-.6Z" class="g6_305"/>
<path d="M573.1,854.6h1.1v-3.9l-1.2,.2v-.6l1.2,-.3h.7v4.6H576v.6h-2.9v-.6Z" class="g6_305"/>
<path d="M577.5,855.2h.7v-.9h-.7Z" class="g6_305"/>
<path d="M581.2,849.9c.6,0,1,.3,1.4,.7c.3,.5,.4,1.1,.4,2c0,.9,-.1,1.6,-.4,2c-.4,.5,-.8,.7,-1.4,.7c-.6,0,-1,-.2,-1.3,-.7c-.3,-.4,-.5,-1.1,-.5,-2c0,-.9,.2,-1.5,.5,-2c.3,-.4,.7,-.7,1.3,-.7Zm0,.6c-.3,0,-.6,.2,-.8,.5c-.2,.4,-.3,.9,-.3,1.6c0,.7,.1,1.3,.3,1.6c.2,.4,.5,.5,.8,.5c.4,0,.7,-.1,.8,-.5c.2,-.3,.3,-.9,.3,-1.6c0,-.7,-.1,-1.2,-.3,-1.6c-.1,-.3,-.4,-.5,-.8,-.5Z" class="g6_305"/>
<path d="M611.2,843.6l-2.3,1l.2,.5l2.3,-.9l-.2,-.6Z" class="g6_305"/>
<path d="M599.9,859.3h1.2v-4l-1.3,.3v-.7l1.3,-.2h.7v4.6h1.1v.6h-3v-.6Z" class="g6_305"/>
<path d="M604.3,859.9h.8V859h-.8Z" class="g6_305"/>
<path d="M606.6,854.7h2.7v.6h-2.1v1.3l.3,-.1h.3c.6,0,1.1,.1,1.4,.4c.4,.3,.5,.8,.5,1.3c0,.6,-.1,1,-.5,1.3c-.3,.3,-.8,.5,-1.5,.5c-.2,0,-.4,0,-.6,-.1c-.3,0,-.5,-.1,-.7,-.1v-.7c.2,.1,.4,.2,.6,.2c.2,.1,.5,.1,.7,.1c.4,0,.7,-.1,1,-.3c.2,-.2,.3,-.5,.3,-.9c0,-.3,-.1,-.6,-.3,-.8c-.3,-.2,-.6,-.4,-1,-.4c-.2,0,-.4,.1,-.5,.1c-.2,.1,-.4,.1,-.6,.2v-2.6Z" class="g6_305"/>
<path d="M638.8,848.3l-2.2,.9l.2,.6l2.2,-1l-.2,-.5Z" class="g6_305"/>
<path d="M628.1,864.1h2.5v.6h-3.3v-.6c.2,-.3,.6,-.6,1.1,-1.1c.4,-.4,.7,-.7,.8,-.9c.3,-.2,.4,-.4,.5,-.6c.1,-.2,.1,-.4,.1,-.5c0,-.3,-.1,-.5,-.2,-.7c-.2,-.2,-.5,-.3,-.8,-.3c-.2,0,-.5,.1,-.7,.1c-.2,.1,-.5,.2,-.8,.4v-.7c.3,-.1,.6,-.2,.8,-.3c.3,0,.5,-.1,.7,-.1c.5,0,.9,.2,1.3,.4c.3,.3,.4,.7,.4,1.1c0,.2,0,.4,-.1,.6c-.1,.2,-.2,.4,-.4,.7c-.1,.1,-.3,.3,-.6,.6c-.3,.3,-.7,.7,-1.3,1.3Z" class="g6_305"/>
<path d="M632,864.7h.8v-.9H632Z" class="g6_305"/>
<path d="M635.8,859.4c.6,0,1,.3,1.3,.7c.3,.5,.5,1.2,.5,2c0,.9,-.2,1.6,-.5,2c-.3,.5,-.7,.7,-1.3,.7c-.6,0,-1,-.2,-1.3,-.7c-.3,-.4,-.5,-1.1,-.5,-2c0,-.8,.2,-1.5,.5,-2c.3,-.4,.7,-.7,1.3,-.7Zm0,.6c-.4,0,-.6,.2,-.8,.5c-.2,.4,-.3,.9,-.3,1.6c0,.7,.1,1.3,.3,1.6c.2,.4,.4,.6,.8,.6c.4,0,.6,-.2,.8,-.6c.2,-.3,.3,-.9,.3,-1.6c0,-.7,-.1,-1.2,-.3,-1.6c-.2,-.3,-.4,-.5,-.8,-.5Z" class="g6_305"/>
<path d="M530.8,831.1l-1.7,-95.3h-.6l1.7,95.3h.6Z" class="g6_305"/>
<path d="M496.5,783.5h3.1v.6l-2.4,2.8h2.4v.5h-3.2v-.6l2.4,-2.8h-2.3v-.5Z" class="g6_305"/>
<path d="M530.5,829.2l69.7,-25l103.5,15.1l.1,-.6l-103.6,-15h-.1l-69.8,25l.2,.5Z" class="g7_305"/>
<path d="M530.1,806.8l70,-23.1l104,13.9l.1,-.5L600.1,783.2H600l-70.1,23.1l.2,.5Z" class="g7_305"/>
<path d="M529.7,784.2L600,763.1l104.5,12.7l.1,-.6L600.1,762.5h-.2l-70.3,21.1l.1,.6Z" class="g7_305"/>
<path d="M529.3,761.3L600,742.2l104.9,11.5v-.5L600,741.7h-.1l-70.7,19.1l.1,.5Z" class="g7_305"/>
<path d="M528.9,738.3l71,-17.1l105.4,10.3v-.6L599.9,720.7h-.1l-71,17l.1,.6Z" class="g7_305"/>
<path d="M531.2,828.4l-2.4,.8l.2,.6l2.4,-.9l-.2,-.5Z" class="g6_305"/>
<path d="M512.7,829.9c.6,0,1,.2,1.3,.7c.3,.5,.5,1.1,.5,2c0,.9,-.2,1.5,-.5,2c-.3,.5,-.7,.7,-1.3,.7c-.6,0,-1.1,-.2,-1.4,-.7c-.3,-.5,-.4,-1.1,-.4,-2c0,-.9,.1,-1.5,.4,-2c.3,-.5,.8,-.7,1.4,-.7Zm0,.6c-.4,0,-.7,.1,-.8,.5c-.2,.4,-.3,.9,-.3,1.6c0,.7,.1,1.3,.3,1.6c.1,.4,.4,.5,.8,.5c.3,0,.6,-.1,.8,-.5c.2,-.3,.3,-.9,.3,-1.6c0,-.7,-.1,-1.2,-.3,-1.6c-.2,-.4,-.5,-.5,-.8,-.5Z" class="g6_305"/>
<path d="M515.7,835.2h.7v-.9h-.7Z" class="g6_305"/>
<path d="M519.5,829.9c.5,0,1,.2,1.3,.7c.3,.5,.5,1.1,.5,2c0,.9,-.2,1.5,-.5,2c-.3,.5,-.8,.7,-1.3,.7c-.6,0,-1.1,-.2,-1.4,-.7c-.3,-.5,-.4,-1.1,-.4,-2c0,-.9,.1,-1.5,.4,-2c.3,-.5,.8,-.7,1.4,-.7Zm0,.6c-.4,0,-.7,.1,-.9,.5c-.1,.4,-.2,.9,-.2,1.6c0,.7,.1,1.3,.2,1.6c.2,.4,.5,.5,.9,.5c.3,0,.6,-.1,.8,-.5c.2,-.3,.3,-.9,.3,-1.6c0,-.7,-.1,-1.2,-.3,-1.6c-.2,-.4,-.5,-.5,-.8,-.5Z" class="g6_305"/>
<path d="M530.8,806l-2.4,.8l.2,.5l2.4,-.8l-.2,-.5Z" class="g6_305"/>
<path d="M512.2,807.4c.6,0,1,.2,1.3,.7c.3,.5,.5,1.1,.5,2c0,.9,-.2,1.5,-.5,2c-.3,.5,-.7,.7,-1.3,.7c-.6,0,-1,-.2,-1.3,-.7c-.3,-.5,-.5,-1.1,-.5,-2c0,-.9,.2,-1.5,.5,-2c.3,-.5,.7,-.7,1.3,-.7Zm0,.6c-.4,0,-.6,.2,-.8,.5c-.2,.4,-.3,.9,-.3,1.6c0,.7,.1,1.3,.3,1.6c.2,.4,.4,.5,.8,.5c.4,0,.6,-.1,.8,-.5c.2,-.3,.3,-.9,.3,-1.6c0,-.7,-.1,-1.2,-.3,-1.6c-.2,-.3,-.4,-.5,-.8,-.5Z" class="g6_305"/>
<path d="M515.2,812.7h.8v-.9h-.8Z" class="g6_305"/>
<path d="M517.5,807.5h2.8v.6h-2.2v1.3l.3,-.1h.4c.5,0,1,.1,1.3,.4c.4,.4,.5,.8,.5,1.3c0,.6,-.1,1,-.5,1.3c-.3,.3,-.8,.5,-1.5,.5c-.2,0,-.4,0,-.6,-.1c-.2,0,-.5,-.1,-.7,-.1v-.7c.2,.1,.4,.2,.6,.2c.3,.1,.5,.1,.7,.1c.4,0,.8,-.1,1,-.3c.2,-.2,.3,-.5,.3,-.9c0,-.3,-.1,-.6,-.3,-.8c-.2,-.2,-.6,-.3,-1,-.3c-.2,0,-.3,0,-.5,0c-.2,.1,-.4,.1,-.6,.2v-2.6Z" class="g6_305"/>
<path d="M530.4,783.4l-2.4,.7l.2,.5l2.4,-.7l-.2,-.5Z" class="g6_305"/>
<path d="M510.4,789.4h1.1v-4l-1.2,.3v-.6l1.2,-.3h.7v4.6h1.1v.6h-2.9v-.6Z" class="g6_305"/>
<path d="M514.8,790h.7v-.9h-.7Z" class="g6_305"/>
<path d="M518.5,784.7c.6,0,1.1,.2,1.4,.7c.3,.5,.4,1.1,.4,2c0,.9,-.1,1.5,-.4,2c-.3,.5,-.8,.7,-1.4,.7c-.6,0,-1,-.2,-1.3,-.7c-.3,-.5,-.5,-1.1,-.5,-2c0,-.9,.2,-1.5,.5,-2c.3,-.5,.7,-.7,1.3,-.7Zm0,.6c-.3,0,-.6,.1,-.8,.5c-.2,.4,-.3,.9,-.3,1.6c0,.7,.1,1.2,.3,1.6c.2,.4,.5,.5,.8,.5c.4,0,.7,-.1,.8,-.5c.2,-.4,.3,-.9,.3,-1.6c0,-.7,-.1,-1.2,-.3,-1.6c-.1,-.4,-.4,-.5,-.8,-.5Z" class="g6_305"/>
<path d="M530.1,760.5l-2.5,.7l.2,.5l2.4,-.6l-.1,-.6Z" class="g6_305"/>
<path d="M509.9,766.5H511v-4l-1.2,.3v-.7l1.2,-.2h.7v4.6h1.2v.6h-3v-.6Z" class="g6_305"/>
<path d="M514.3,767.1h.7v-.9h-.7Z" class="g6_305"/>
<path d="M516.6,761.9h2.7v.6h-2.1v1.3l.3,-.1h.3c.6,0,1.1,.1,1.4,.4c.3,.3,.5,.8,.5,1.3c0,.6,-.2,1,-.5,1.3c-.4,.3,-.9,.5,-1.5,.5c-.2,0,-.4,0,-.7,-.1c-.2,0,-.4,-.1,-.7,-.1v-.7c.2,.1,.5,.2,.7,.2c.2,.1,.4,.1,.7,.1c.4,0,.7,-.1,.9,-.3c.3,-.2,.4,-.5,.4,-.9c0,-.3,-.1,-.6,-.4,-.8c-.2,-.2,-.5,-.4,-.9,-.4c-.2,0,-.4,.1,-.6,.1c-.2,0,-.3,.1,-.5,.2v-2.6Z" class="g6_305"/>
<path d="M529.7,737.5l-2.5,.6l.2,.5l2.4,-.5l-.1,-.6Z" class="g6_305"/>
<path d="M509.9,743.4h2.4v.6H509v-.6c.3,-.3,.7,-.7,1.1,-1.1c.5,-.5,.8,-.8,.9,-.9c.2,-.3,.4,-.5,.5,-.7c.1,-.2,.1,-.3,.1,-.5c0,-.3,-.1,-.5,-.3,-.7c-.2,-.1,-.4,-.2,-.7,-.2c-.3,0,-.5,0,-.7,.1c-.3,.1,-.5,.2,-.8,.3V739c.3,-.1,.5,-.2,.8,-.2c.2,-.1,.4,-.1,.6,-.1c.6,0,1,.1,1.3,.4c.4,.3,.5,.6,.5,1.1c0,.2,0,.4,-.1,.6c-.1,.2,-.2,.4,-.4,.6c-.1,.1,-.3,.3,-.6,.6c-.3,.3,-.7,.8,-1.3,1.4Z" class="g6_305"/>
<path d="M513.8,744h.7v-.9h-.7Z" class="g6_305"/>
<path d="M517.6,738.7c.6,0,1,.2,1.3,.7c.3,.4,.5,1.1,.5,2c0,.8,-.2,1.5,-.5,2c-.3,.4,-.7,.7,-1.3,.7c-.6,0,-1.1,-.3,-1.4,-.7c-.3,-.5,-.4,-1.2,-.4,-2c0,-.9,.1,-1.6,.4,-2c.3,-.5,.8,-.7,1.4,-.7Zm0,.5c-.4,0,-.7,.2,-.8,.6c-.2,.3,-.3,.9,-.3,1.6c0,.7,.1,1.2,.3,1.6c.1,.3,.4,.5,.8,.5c.3,0,.6,-.2,.8,-.5c.2,-.4,.3,-.9,.3,-1.6c0,-.7,-.1,-1.3,-.3,-1.6c-.2,-.4,-.5,-.6,-.8,-.6Z" class="g6_305"/>
<path d="M627.4,776.9l-26.9,27.4l.7,.8l27,-27.5l-.8,-.7Z" class="g8_305"/>
<path d="M627.3,777l-3.6,7.3l.9,.5l3.7,-7.3l-1,-.5Z" class="g8_305"/>
<path d="M627.6,776.8l-7.7,4.2l.5,.9l7.7,-4.2l-.5,-.9Z" class="g8_305"/>
<path d="M628.6,789.8l-28,14.4l.5,1l28,-14.4l-.5,-1Z" class="g8_305"/>
<path d="M628.5,789.9l-5.7,5.6l.8,.8l5.7,-5.6l-.8,-.8Z" class="g8_305"/>
<path d="M628.8,789.8l-8.5,1.6l.2,1.1l8.5,-1.7l-.2,-1Z" class="g8_305"/>
<path d="M621.4,764.9l-21,39.5l.9,.5l21.1,-39.5l-1,-.5Z" class="g8_305"/>
<path d="M621.4,765.1l-1.6,8.1l1.1,.2l1.5,-8.1l-1,-.2Z" class="g8_305"/>
<path d="M621.5,764.8l-5.7,5.6l.8,.7l5.7,-5.5l-.8,-.8Z" class="g8_305"/>
<path d="M624.9,801.9l-24.1,2.3l.1,1L625,803l-.1,-1.1Z" class="g8_305"/>
<path d="M624.7,802l-6.1,2.8l.5,1l6.1,-2.9l-.5,-.9Z" class="g8_305"/>
<path d="M625.1,801.9l-7.3,-1.6l-.2,1.1l7.2,1.6l.3,-1.1Z" class="g8_305"/>
<path d="M611.4,755.7l-11.1,48.9l1.1,.2l11.1,-48.9l-1.1,-.2Z" class="g8_305"/>
<path d="M611.4,755.8l-.3,8.3l1.1,.1l.3,-8.4h-1.1Z" class="g8_305"/>
<path d="M611.5,755.6l-2.9,5.9l.9,.5l2.9,-6l-.9,-.4Z" class="g8_305"/>
<path d="M616.7,811.5l-15.6,-7.3l-.5,1l15.7,7.3l.4,-1Z" class="g8_305"/>
<path d="M616.5,811.4l-4,.4l.1,1.1l4,-.4l-.1,-1.1Z" class="g8_305"/>
<path d="M616.9,811.6l-4.1,-4.1l-.8,.8l4.1,4l.8,-.7Z" class="g8_305"/>
<path d="M598.8,750.5l1.5,54.2h1.1l-1.5,-54.3l-1.1,.1Z" class="g8_305"/>
<path d="M598.8,750.4l.1,8.4H600l-.1,-8.4h-1.1Z" class="g8_305"/>
<path d="M598.8,750.5l.3,5.7h1.1l-.3,-5.8l-1.1,.1Z" class="g8_305"/>
<path d="M605.2,817.2l-3.8,-12.7l-1.1,.3l3.8,12.8l1.1,-.4Z" class="g8_305"/>
<path d="M604.9,817l-.8,-.6l-.6,.9l.9,.5l.5,-.8Z" class="g8_305"/>
<path d="M605.2,817.3l-.8,-4.9l-1.1,.2l.8,4.9l1.1,-.2Z" class="g8_305"/>
<path d="M585.3,750.2l15,54.6l1.1,-.2l-15,-54.7l-1.1,.3Z" class="g8_305"/>
<path d="M585.3,750.1l.9,8.1l1.1,-.1l-.9,-8.1l-1.1,.1Z" class="g8_305"/>
<path d="M585.4,750.3l2.7,5.1l.9,-.5l-2.7,-5.1l-.9,.5Z" class="g8_305"/>
<path d="M591.5,818.1L601.3,805l-.9,-.6l-9.8,13.1l.9,.6Z" class="g8_305"/>
<path d="M591.1,818.3l1.7,-.1v-1h-1.7v1.1Z" class="g8_305"/>
<path d="M591.6,818l1.7,-4.6l-1,-.4l-1.7,4.6l1,.4Z" class="g8_305"/>
<path d="M573,755.1l27.4,49.8l.9,-.5L573.9,754.6l-.9,.5Z" class="g8_305"/>
<path d="M573,755l2,7.5l1,-.3l-2,-7.5l-1,.3Z" class="g8_305"/>
<path d="M573.1,755.3l4.3,3.9l.7,-.7l-4.3,-4l-.7,.8Z" class="g8_305"/>
<path d="M578,813.4l23,-8.2l-.3,-1l-23,8.2l.3,1Z" class="g8_305"/>
<path d="M577.7,813.4l3.4,1.1l.3,-1L578,812.4l-.3,1Z" class="g8_305"/>
<path d="M578.2,813.3l3.7,-3.6l-.8,-.8l-3.6,3.6l.7,.8Z" class="g8_305"/>
<path d="M563.9,764.6l36.6,40.5l.8,-.8L564.6,763.9l-.7,.7Z" class="g8_305"/>
<path d="M563.8,764.5l3.1,6.6l.9,-.4l-3.1,-6.6l-.9,.4Z" class="g8_305"/>
<path d="M564,764.8l5.2,2.6l.5,-1l-5.2,-2.6l-.5,1Z" class="g8_305"/>
<path d="M567.1,803.9l33.7,1.3l.1,-1l-33.7,-1.4l-.1,1.1Z" class="g8_305"/>
<path d="M566.9,803.8l4.1,2.6l.6,-1l-4.2,-2.5l-.5,.9Z" class="g8_305"/>
<path d="M567.4,803.9l4.9,-2.2l-.5,-1l-4.9,2.2l.5,1Z" class="g8_305"/>
<path d="M559.4,777.3l41.2,27.8l.6,-.9L560,776.5l-.6,.8Z" class="g8_305"/>
<path d="M559.3,777.2l3.9,5.4l.9,-.6l-3.9,-5.4l-.9,.6Z" class="g8_305"/>
<path d="M559.6,777.4l5.7,1.1l.2,-1.1l-5.7,-1l-.2,1Z" class="g8_305"/>
<path d="M560.6,791.2l40.1,14l.3,-1l-40.1,-14l-.3,1Z" class="g8_305"/>
<path d="M560.4,791.1l4.3,4l.7,-.8l-4.3,-4l-.7,.8Z" class="g8_305"/>
<path d="M560.8,791.2l5.6,-.6l-.2,-1l-5.5,.5l.1,1.1Z" class="g8_305"/>
</svg>