<?xml version="1.0" encoding="UTF-8" standalone="no"?>
<!DOCTYPE svg PUBLIC "-//W3C//DTD SVG 1.1//EN"
"http://www.w3.org/Graphics/SVG/1.1/DTD/svg11.dtd">
<svg viewBox="0 0 811 1017" version="1.1" xmlns="http://www.w3.org/2000/svg" xmlns:xlink="http://www.w3.org/1999/xlink">
<defs>
<clipPath id="c0_186"><path d="M108,274.8V83.6H299.1V274.8Z"/></clipPath>
<clipPath id="c1_186"><path d="M313.7,274.8V83.6H504.8V274.8Z"/></clipPath>
<clipPath id="c2_186"><path d="M519.2,274.8V83.6H710.4V274.8Z"/></clipPath>
<clipPath id="c3_186"><path d="M519.2,481.8V290.7H710.4V481.8Z"/></clipPath>
<clipPath id="c4_186"><path d="M108,481.8V290.7H299.1V481.8Z"/></clipPath>
<clipPath id="c5_186"><path d="M313.7,481.8V290.7H504.8V481.8Z"/></clipPath>
<style type="text/css"><![CDATA[
.g0_186{
fill: #0E0E0E;
}
]]></style>
</defs>
<image clip-path="url(#c0_186)" preserveAspectRatio="none" x="108" y="84" width="191" height="191" xlink:href="img/1.jpg"/>
<image clip-path="url(#c1_186)" preserveAspectRatio="none" x="314" y="84" width="191" height="191" xlink:href="img/2.jpg"/>
<image clip-path="url(#c2_186)" preserveAspectRatio="none" x="519" y="84" width="191" height="191" xlink:href="img/3.jpg"/>
<image clip-path="url(#c3_186)" preserveAspectRatio="none" x="519" y="291" width="191" height="191" xlink:href="img/4.jpg"/>
<image clip-path="url(#c4_186)" preserveAspectRatio="none" x="108" y="291" width="191" height="191" xlink:href="img/5.jpg"/>
<image clip-path="url(#c5_186)" preserveAspectRatio="none" x="314" y="291" width="191" height="191" xlink:href="img/6.jpg"/>
<path d="M410.3,646.7c-2.2,1.4,-3.7,3.8,-3.7,6.9c0,2.7,1.6,5.5,3.7,6.8l.1,-.3c-1.9,-1.5,-2.5,-3.3,-2.5,-6.6c0,-3.3,.6,-5,2.5,-6.5l-.1,-.3Z" class="g0_186"/>
<path d="M418.7,651.9c0,-.6,-.5,-1,-1,-1c-.3,0,-.7,.1,-1,.3c-.3,.3,-.6,.6,-.8,.9c0,-.6,-.4,-1.2,-1.1,-1.2c-1.1,0,-2.1,1.2,-2.4,2l.2,.1c.4,-.5,1.1,-1.7,2,-1.7c.2,0,.4,.5,.4,1c0,.2,-.1,.6,-.2,1.1l-.4,1.2c-.2,.6,-.4,1.4,-.7,1.8c-.2,.2,-.4,.6,-.8,.6c-.4,0,-.7,-.1,-.6,-.5c.1,-.3,0,-.7,-.4,-.7c-.5,0,-.7,.3,-.7,.8c0,.5,.5,.9,1.1,.9c1,0,1.7,-.8,2.1,-1.4h.1c.1,.8,.5,1.4,1.3,1.4c1.2,0,2,-1.1,2.4,-1.8l-.2,-.2c-.4,.6,-1.1,1.6,-1.9,1.6c-.5,0,-.7,-.6,-.7,-1.2c0,-.3,.1,-.8,.2,-1.3l.2,-.7c.1,-.6,.3,-1.3,.6,-1.7c.2,-.2,.6,-.9,1,-.9c.4,0,.3,.3,.3,.6c0,.4,.1,.6,.5,.6c.3,0,.5,-.3,.5,-.6Z" class="g0_186"/>
<path d="M423,651.3c.9,0,1.4,-.9,1.7,-1.4l-.2,-.1c-.2,.3,-.6,1.1,-1,1.1c-.1,0,-.1,-.3,-.1,-.4c0,-.1,0,-.3,.1,-.6c.1,-.3,.2,-.6,.3,-1c.2,-.6,.4,-1.3,.4,-1.7c0,-.5,-.2,-.7,-.7,-.7c-.8,0,-1.4,.7,-1.9,1.4c.1,-.3,.1,-.4,.1,-.7c0,-.5,-.1,-.7,-.5,-.7c-1,0,-1.3,.9,-1.6,1.7l.3,.1c.1,-.4,.5,-1.6,1,-1.6c.1,0,.2,.1,.2,.3c0,.2,-.1,.6,-.1,.8c-.2,.5,-.3,.9,-.5,1.4l-.6,2h.7l.6,-1.8c.3,-.6,.7,-1.5,1,-1.9c.2,-.3,.7,-.8,1,-.8c.2,0,.3,.1,.3,.4c0,0,0,.2,-.1,.2c0,.4,-.1,.7,-.2,1c-.2,.8,-.4,1.3,-.6,2.1c0,0,0,.1,0,.2c0,.4,0,.7,.4,.7Z" class="g0_186"/>
<path d="M426.8,646.7l-.2,.3c1.9,1.5,2.5,3.2,2.5,6.5c0,3.3,-.5,5.1,-2.5,6.6l.2,.3c2.1,-1.3,3.6,-4.1,3.6,-6.8c0,-3.1,-1.5,-5.5,-3.6,-6.9Z" class="g0_186"/>
<path d="M434.4,643.9c0,-.3,-.3,-.5,-.6,-.5c-.3,0,-.4,.3,-.5,.6l-.9,2.4c0,.1,0,.3,0,.3c0,.1,0,.2,.1,.2c.1,0,.2,-.2,.3,-.3l1.3,-2.1c.2,-.2,.3,-.4,.3,-.6Z" class="g0_186"/>
<path d="M441.1,655.5h7.6v-.8h-7.6Zm0,-3h7.6v-.9h-7.6Z" class="g0_186"/>
<path d="M458.3,657.5c1.4,0,2,-1.3,2.4,-1.9l-.2,-.2c-.4,.5,-.9,1.5,-1.4,1.5c-.2,0,-.2,-.4,-.2,-.5c0,-.2,.1,-.4,.2,-.8c.1,-.4,.2,-.8,.4,-1.4c.2,-.8,.5,-1.8,.5,-2.3c0,-.7,-.3,-1,-.9,-1c-1.1,0,-2,.9,-2.6,1.9c.1,-.3,.1,-.5,.1,-1c0,-.6,-.1,-.9,-.7,-.9c-1.4,0,-1.7,1.3,-2.1,2.4l.3,.1c.2,-.6,.7,-2.1,1.4,-2.1c.1,0,.3,.1,.3,.3c0,.3,-.1,.8,-.2,1.1c-.2,.6,-.4,1.2,-.6,1.9l-.9,2.8h1l.9,-2.6c.3,-.8,.8,-1.9,1.3,-2.6c.3,-.4,.9,-1,1.4,-1c.2,0,.3,.2,.3,.5c0,0,0,.3,0,.3c-.1,.6,-.2,.9,-.4,1.4c-.3,1.1,-.4,1.8,-.7,2.8c-.1,.1,-.1,.2,-.1,.3c0,.6,.1,1,.5,1Z" class="g0_186"/>
<path d="M468.9,651.9c0,-.6,-.4,-1,-1,-1c-.3,0,-.6,.1,-.9,.3c-.3,.3,-.7,.6,-.9,.9c0,-.6,-.4,-1.2,-1,-1.2c-1.2,0,-2.1,1.2,-2.5,2l.2,.1c.4,-.5,1.1,-1.7,2,-1.7c.3,0,.4,.5,.4,1c0,.2,-.1,.6,-.2,1.1l-.4,1.2c-.1,.6,-.4,1.4,-.7,1.8c-.1,.2,-.4,.6,-.8,.6c-.4,0,-.7,-.1,-.6,-.5c.1,-.3,0,-.7,-.4,-.7c-.4,0,-.6,.3,-.6,.8c0,.5,.5,.9,1,.9c1,0,1.8,-.8,2.2,-1.4c.1,.8,.5,1.4,1.3,1.4c1.2,0,2.1,-1.1,2.5,-1.8l-.2,-.2c-.5,.6,-1.2,1.6,-2,1.6c-.4,0,-.6,-.6,-.6,-1.2c0,-.3,0,-.8,.2,-1.3l.1,-.7c.1,-.6,.4,-1.3,.7,-1.7c.1,-.2,.5,-.9,.9,-.9c.4,0,.4,.3,.3,.6c0,.4,.2,.6,.5,.6c.4,0,.5,-.3,.5,-.6Z" class="g0_186"/>
<path d="M473.2,651.3c1,0,1.5,-.9,1.7,-1.4l-.1,-.1c-.3,.3,-.7,1.1,-1,1.1c-.2,0,-.2,-.3,-.2,-.4c0,-.1,.1,-.3,.2,-.6c0,-.3,.1,-.6,.3,-1c.1,-.6,.3,-1.3,.3,-1.7c0,-.5,-.2,-.7,-.6,-.7c-.9,0,-1.5,.7,-1.9,1.4c0,-.3,.1,-.4,.1,-.7c0,-.5,-.1,-.7,-.5,-.7c-1.1,0,-1.3,.9,-1.6,1.7l.2,.1c.1,-.4,.5,-1.6,1,-1.6c.1,0,.2,.1,.2,.3c0,.2,0,.6,-.1,.8c-.1,.5,-.2,.9,-.4,1.4l-.7,2h.7l.7,-1.8c.2,-.6,.6,-1.5,1,-1.9c.2,-.3,.6,-.8,1,-.8c.1,0,.2,.1,.2,.4c0,0,0,.2,0,.2c-.1,.4,-.2,.7,-.3,1c-.2,.8,-.3,1.3,-.5,2.1c-.1,0,-.1,.1,-.1,.2c0,.4,.1,.7,.4,.7Z" class="g0_186"/>
<path d="M476.8,648.7h5.5v-.6h-5.5Z" class="g0_186"/>
<path d="M484.9,644.1v.2c.3,0,.8,0,1,.1c.3,.2,.3,.3,.3,.8v4.7c0,.2,0,.4,0,.6c-.1,.5,-.7,.5,-1.2,.6v.1h3.4v-.1c-.4,-.1,-.9,-.1,-1.1,-.3c-.1,-.2,-.1,-.5,-.1,-.9v-6.3c-.6,.3,-1.6,.5,-2.3,.5Z" class="g0_186"/>
<path d="M397.2,740.1c-2.1,1.4,-3.6,3.8,-3.6,6.9c0,2.7,1.6,5.5,3.6,6.8l.2,-.2c-2,-1.6,-2.5,-3.4,-2.5,-6.7c0,-3.3,.6,-5,2.5,-6.5l-.2,-.3Z" class="g0_186"/>
<path d="M402.9,744.3c-.4,0,-.8,.2,-1.3,.5c-.4,.3,-.8,.7,-1.2,1.1c-.6,.8,-1.3,2,-1.3,3.3c0,1,.4,1.7,1.4,1.7c1.2,0,1.7,-.8,2.1,-1.5h.1c-.3,.9,-.1,1.5,.5,1.5c.4,0,.7,-.1,1.1,-.4c.4,-.4,.8,-.8,1.1,-1.4l-.2,-.2c-.2,.4,-.9,1.4,-1.3,1.4c-.2,0,-.3,-.3,-.3,-.6c0,-.9,.6,-2.4,1,-3.4l.7,-1.8h-1l-.3,.6c-.2,-.5,-.5,-.8,-1.1,-.8Zm.2,.3c.7,0,.5,1.3,.4,1.9c0,.3,-.2,.6,-.3,1c-.4,1.2,-1.4,3.1,-2.2,3.1c-.7,0,-.8,-1,-.8,-1.5c0,-.4,0,-.8,.2,-1.3c.3,-1,1.4,-3.2,2.7,-3.2Z" class="g0_186"/>
<path d="M407.1,753.6c-.4,0,-.4,-.2,-.5,-.5c-.1,-.2,-.2,-.5,-.5,-.5c-.3,0,-.4,.2,-.4,.4c0,.6,.8,.9,1.3,.9c.8,0,.9,-.2,1.3,-.7c.2,-.4,.4,-.8,.6,-1.3c.2,-.5,.5,-1.1,.7,-2l1.3,-5.1h1.3l.1,-.3H411c.3,-1.2,.8,-3.2,1.2,-3.8c.1,-.2,.3,-.5,.7,-.5c.3,0,.4,.2,.5,.5c.1,.2,.2,.5,.5,.5c.2,0,.4,-.2,.4,-.4c0,-.6,-.8,-.9,-1.3,-.9c-1.8,0,-2.6,3,-3,4.6h-1.2l-.1,.3H410l-2,7.4c-.1,.3,-.4,1.4,-.9,1.4Z" class="g0_186"/>
<path d="M420,740.2c-2.1,1.4,-3.6,3.8,-3.6,6.8c0,2.8,1.5,5.6,3.6,6.8l.2,-.2c-2,-1.6,-2.6,-3.4,-2.6,-6.7c0,-3.2,.6,-5,2.6,-6.5l-.2,-.2Z" class="g0_186"/>
<path d="M428.4,745.3c0,-.5,-.4,-1,-1,-1c-.3,0,-.6,.2,-.9,.4c-.4,.2,-.7,.5,-.9,.9c0,-.7,-.4,-1.3,-1,-1.3c-1.2,0,-2.1,1.2,-2.5,2l.2,.1c.4,-.5,1.1,-1.7,2,-1.7c.3,0,.4,.6,.4,1c0,.3,-.1,.7,-.2,1.1l-.4,1.2c-.1,.6,-.4,1.4,-.7,1.8c-.1,.3,-.4,.7,-.8,.7c-.4,0,-.7,-.1,-.6,-.5c.1,-.3,0,-.8,-.4,-.8c-.5,0,-.6,.4,-.6,.8c0,.6,.4,.9,1,.9c1,0,1.8,-.7,2.2,-1.4c.1,.8,.5,1.4,1.3,1.4c1.2,0,2,-1.1,2.5,-1.8l-.2,-.2c-.5,.7,-1.2,1.7,-2,1.7c-.4,0,-.6,-.6,-.6,-1.2c0,-.4,0,-.8,.1,-1.4l.2,-.7c.1,-.6,.4,-1.2,.6,-1.6c.2,-.3,.6,-1,1,-1c.4,0,.4,.3,.3,.6c0,.4,.2,.6,.5,.6c.4,0,.5,-.3,.5,-.6Z" class="g0_186"/>
<path d="M429.7,740.2l-.1,.2c1.9,1.5,2.5,3.3,2.5,6.5c0,3.3,-.6,5.1,-2.5,6.7l.1,.2c2.1,-1.2,3.7,-4,3.7,-6.8c0,-3,-1.6,-5.4,-3.7,-6.8Z" class="g0_186"/>
<path d="M435.4,740.1l-.1,.3c1.9,1.5,2.5,3.2,2.5,6.5c0,3.3,-.6,5.1,-2.5,6.7l.2,.2c2,-1.3,3.6,-4.1,3.6,-6.8c0,-3.1,-1.5,-5.5,-3.7,-6.9Z" class="g0_186"/>
<path d="M443,737.1c0,-.3,-.3,-.5,-.5,-.5c-.3,0,-.5,.3,-.6,.6l-.8,2.5c0,0,-.1,.2,-.1,.2c0,.1,.1,.2,.1,.2c.2,0,.3,-.2,.4,-.2l1.3,-2.2c.1,-.1,.2,-.4,.2,-.6Z" class="g0_186"/>
<path d="M449.7,748.9h7.6v-.8h-7.6Zm0,-3h7.6v-.8h-7.6Z" class="g0_186"/>
<path d="M466.6,744.3c-.4,0,-.9,.2,-1.3,.5c-.5,.3,-.9,.7,-1.2,1.1c-.7,.8,-1.3,2,-1.3,3.3c0,1,.4,1.7,1.3,1.7c1.3,0,1.8,-.8,2.2,-1.5c-.2,.9,-.1,1.5,.6,1.5c.3,0,.7,-.1,1.1,-.4c.4,-.4,.8,-.8,1.1,-1.4l-.2,-.2c-.3,.4,-.9,1.4,-1.3,1.4c-.2,0,-.3,-.3,-.3,-.6c0,-.9,.6,-2.4,.9,-3.4l.7,-1.8h-1l-.2,.6c-.2,-.5,-.5,-.8,-1.1,-.8Zm.1,.3c.7,0,.6,1.3,.5,1.9c-.1,.3,-.2,.6,-.3,1c-.4,1.2,-1.5,3.1,-2.3,3.1c-.6,0,-.8,-1,-.8,-1.5c0,-.4,.1,-.8,.2,-1.3c.4,-1,1.5,-3.2,2.7,-3.2Z" class="g0_186"/>
<path d="M470.7,753.6c-.3,0,-.4,-.2,-.4,-.5c-.1,-.2,-.2,-.5,-.5,-.5c-.3,0,-.4,.2,-.4,.4c0,.6,.7,.9,1.2,.9h.1c.8,0,.9,-.2,1.3,-.7c.2,-.4,.4,-.8,.5,-1.3c.2,-.5,.5,-1.1,.7,-2l1.4,-5.1h1.2l.1,-.3h-1.2c.3,-1.2,.8,-3.2,1.1,-3.8c.1,-.2,.4,-.5,.8,-.5c.3,0,.4,.2,.4,.5c.1,.2,.2,.5,.6,.5c.2,0,.3,-.2,.3,-.4c0,-.6,-.7,-.9,-1.2,-.9c-1.9,0,-2.6,3,-3,4.6h-1.2l-.1,.3h1.2l-1.9,7.4c-.1,.3,-.4,1.4,-1,1.4Z" class="g0_186"/>
<path d="M481,737.3c0,-.2,-.3,-.4,-.5,-.4c-.3,0,-.5,.3,-.6,.5l-.8,2.5c0,0,-.1,.2,-.1,.3c0,0,.1,.1,.1,.1c.2,0,.3,-.1,.4,-.2l1.3,-2.1c.1,-.2,.2,-.4,.2,-.7Z" class="g0_186"/>
<path d="M488.1,740.2c-2.1,1.4,-3.7,3.8,-3.7,6.8c0,2.8,1.6,5.6,3.7,6.8l.1,-.2c-1.9,-1.6,-2.5,-3.4,-2.5,-6.7c0,-3.2,.6,-5,2.5,-6.5l-.1,-.2Z" class="g0_186"/>
<path d="M496.5,745.3c0,-.5,-.5,-1,-1,-1c-.3,0,-.7,.2,-1,.4c-.3,.2,-.6,.5,-.8,.9c0,-.7,-.4,-1.3,-1.1,-1.3c-1.1,0,-2.1,1.2,-2.4,2l.2,.1c.4,-.5,1.1,-1.7,2,-1.7c.2,0,.4,.6,.4,1c0,.3,-.1,.7,-.2,1.1l-.4,1.2c-.1,.6,-.4,1.4,-.7,1.8c-.2,.3,-.4,.7,-.8,.7c-.4,0,-.7,-.1,-.6,-.5c.1,-.3,0,-.8,-.4,-.8c-.5,0,-.6,.4,-.6,.8c0,.6,.4,.9,1,.9c1,0,1.7,-.7,2.1,-1.4h.1c.1,.8,.5,1.4,1.3,1.4c1.2,0,2,-1.1,2.5,-1.8l-.2,-.2c-.5,.7,-1.2,1.7,-2,1.7c-.4,0,-.7,-.6,-.7,-1.2c0,-.4,.1,-.8,.2,-1.4l.2,-.7c.1,-.6,.4,-1.2,.6,-1.6c.2,-.3,.6,-1,1,-1c.4,0,.3,.3,.3,.6c0,.4,.2,.6,.5,.6c.3,0,.5,-.3,.5,-.6Z" class="g0_186"/>
<path d="M497.8,740.2l-.2,.2c2,1.5,2.6,3.3,2.6,6.5c0,3.3,-.6,5.1,-2.6,6.7l.2,.2c2.1,-1.2,3.6,-4,3.6,-6.8c0,-3,-1.5,-5.4,-3.6,-6.8Z" class="g0_186"/>
<path d="M359.5,829.8c-2.2,1.4,-3.7,3.8,-3.7,6.8c0,2.8,1.6,5.6,3.6,6.9l.2,-.3c-2,-1.5,-2.5,-3.3,-2.5,-6.6c0,-3.3,.6,-5,2.5,-6.6l-.1,-.2Z" class="g0_186"/>
<path d="M361.4,843.3c-.3,0,-.4,-.2,-.5,-.5c0,-.3,-.2,-.5,-.5,-.5c-.2,0,-.4,.2,-.4,.4c0,.6,.8,.9,1.3,.9c.8,0,.9,-.2,1.3,-.8c.2,-.3,.4,-.7,.6,-1.2c.2,-.5,.5,-1.2,.7,-2l1.3,-5.1h1.3l.1,-.4h-1.3c.4,-1.1,.8,-3.1,1.2,-3.7c.1,-.2,.4,-.5,.7,-.5c.3,0,.4,.2,.5,.4c.1,.3,.2,.6,.5,.6c.3,0,.4,-.2,.4,-.5c0,-.6,-.8,-.9,-1.3,-.9c-1.8,.1,-2.5,3.1,-3,4.6h-1.2l-.1,.4h1.3l-2,7.3c-.1,.4,-.4,1.5,-.9,1.5Z" class="g0_186"/>
<path d="M374.3,829.8c-2.1,1.4,-3.6,3.8,-3.6,6.9c0,2.7,1.6,5.5,3.6,6.8l.2,-.3c-2,-1.5,-2.5,-3.3,-2.5,-6.6c0,-3.3,.6,-5,2.5,-6.5l-.2,-.3Z" class="g0_186"/>
<path d="M382.7,834.9c0,-.5,-.4,-.9,-1,-.9c-.3,0,-.6,.1,-.9,.3c-.3,.3,-.7,.6,-.9,.9c0,-.6,-.4,-1.2,-1,-1.2c-1.2,0,-2.1,1.2,-2.5,2l.2,.1c.4,-.5,1.1,-1.7,2,-1.7c.3,0,.4,.5,.4,1c0,.2,-.1,.6,-.2,1.1l-.3,1.2c-.2,.6,-.4,1.4,-.8,1.8c-.1,.2,-.4,.6,-.7,.6c-.5,0,-.8,-.1,-.7,-.5c.1,-.3,0,-.7,-.4,-.7c-.4,0,-.6,.3,-.6,.8c0,.5,.5,.9,1,.9c1.1,0,1.8,-.8,2.2,-1.4c.1,.8,.5,1.4,1.3,1.4c1.2,0,2.1,-1.1,2.5,-1.8l-.2,-.2c-.5,.6,-1.2,1.6,-2,1.6c-.4,0,-.6,-.6,-.6,-1.2c0,-.3,0,-.8,.2,-1.3l.1,-.7c.1,-.6,.4,-1.3,.7,-1.7c.1,-.2,.5,-.9,.9,-.9c.4,0,.4,.3,.4,.6c-.1,.4,.1,.6,.4,.6c.4,0,.5,-.3,.5,-.7Z" class="g0_186"/>
<path d="M384,829.8l-.1,.3c1.9,1.5,2.5,3.2,2.5,6.5c0,3.3,-.6,5.1,-2.5,6.6l.2,.3c2,-1.3,3.6,-4.1,3.6,-6.8c0,-3.1,-1.5,-5.5,-3.7,-6.9Z" class="g0_186"/>
<path d="M396.2,836.2h-3.3v1h3.3v3.3h1v-3.3h3.2v-1h-3.2V833h-1v3.2Z" class="g0_186"/>
<path d="M406.7,837.2c0,-1.4,.7,-2.9,1.7,-2.9c.8,0,.9,.7,.9,1.2c.1,1.5,-.6,2.8,-1.6,2.8c-.6,0,-1,-.6,-1,-1.1Zm.2,6.4h.1c1,0,1.7,-.2,2.3,-.6c.5,-.3,.8,-.8,.8,-1.5c0,-.8,-1.1,-1.3,-1.8,-1.5c-.5,-.1,-1.1,-.3,-1.5,-.5c-.2,0,-.3,-.2,-.3,-.4c0,-.3,.6,-.3,1.1,-.4c1.7,-.1,2.7,-1.2,2.7,-3c0,-.3,0,-.6,-.1,-.9q.2,-.1,.4,-.1c.1,0,.2,0,.3,0c.1,.2,.3,.7,.6,.7c.3,0,.6,-.3,.6,-.6c0,-.5,-.5,-.8,-1,-.8c-.3,0,-.7,.2,-1.1,.6c-.4,-.4,-.9,-.6,-1.5,-.6c-.8,0,-1.4,.4,-1.9,.8c-.4,.4,-.8,1.1,-.8,1.9c0,.7,.2,1.3,.8,1.7c-.6,.2,-.8,.4,-1,.5c-.2,.2,-.4,.4,-.4,.6c0,.4,.2,.7,.6,.8c.4,.2,1,.4,1.9,.6c.5,.1,.8,.2,1.1,.4c.3,.2,.4,.4,.4,.6c0,.8,-1.1,1.4,-2.2,1.4c-1.2,0,-1.9,-.5,-1.9,-1.3c0,-.5,.2,-.9,.7,-1.1q-.3,-.1,-.6,-.1c-.7,0,-1.1,.5,-1.1,1.1c0,.3,0,.5,.2,.7c.5,.7,1.4,1,2.6,1Z" class="g0_186"/>
<path d="M417.8,829.8c-2.1,1.4,-3.6,3.8,-3.6,6.9c0,2.7,1.5,5.5,3.6,6.8l.2,-.3c-2,-1.5,-2.6,-3.3,-2.6,-6.6c0,-3.3,.7,-5,2.6,-6.5l-.2,-.3Z" class="g0_186"/>
<path d="M426.2,834.9c0,-.5,-.4,-.9,-1,-.9c-.3,0,-.6,.1,-.9,.3c-.3,.3,-.7,.6,-.9,.9c0,-.6,-.4,-1.2,-1,-1.2c-1.2,0,-2.1,1.2,-2.5,2l.2,.1c.4,-.5,1.1,-1.7,2,-1.7c.3,0,.4,.5,.4,1c0,.2,-.1,.6,-.2,1.1l-.4,1.2c-.1,.6,-.4,1.4,-.7,1.8c-.1,.2,-.4,.6,-.8,.6c-.4,0,-.7,-.1,-.6,-.5c.1,-.3,0,-.7,-.4,-.7c-.4,0,-.6,.3,-.6,.8c0,.5,.5,.9,1,.9c1,0,1.8,-.8,2.2,-1.4c.1,.8,.5,1.4,1.3,1.4c1.2,0,2,-1.1,2.5,-1.8l-.2,-.2c-.5,.6,-1.2,1.6,-2,1.6c-.4,0,-.6,-.6,-.6,-1.2c0,-.3,0,-.8,.1,-1.3l.2,-.7c.1,-.6,.4,-1.3,.7,-1.7c.1,-.2,.5,-.9,.9,-.9c.4,0,.4,.3,.3,.6c0,.4,.2,.6,.5,.6c.4,0,.5,-.3,.5,-.7Z" class="g0_186"/>
<path d="M427.5,829.8l-.1,.3c1.9,1.5,2.5,3.2,2.5,6.5c0,3.3,-.6,5.1,-2.5,6.6l.1,.3c2.1,-1.3,3.7,-4.1,3.7,-6.8c0,-3.1,-1.5,-5.5,-3.7,-6.9Z" class="g0_186"/>
<path d="M433.2,829.8l-.1,.2c1.9,1.6,2.5,3.3,2.5,6.6c0,3.3,-.6,5.1,-2.5,6.6l.2,.3c2,-1.3,3.6,-4.1,3.6,-6.9c0,-3,-1.5,-5.4,-3.7,-6.8Z" class="g0_186"/>
<path d="M440.8,826.8c0,-.3,-.3,-.5,-.5,-.5c-.3,0,-.5,.3,-.6,.6l-.8,2.4c0,.1,-.1,.2,-.1,.3c0,.1,.1,.2,.1,.2c.2,0,.3,-.2,.4,-.3l1.3,-2.1c.1,-.2,.2,-.4,.2,-.6Z" class="g0_186"/>
<path d="M447.5,838.6h7.6v-.8h-7.6Zm0,-3h7.6v-.9h-7.6Z" class="g0_186"/>
<path d="M460.6,843.3c-.3,0,-.4,-.2,-.4,-.5c-.1,-.3,-.2,-.5,-.5,-.5c-.3,0,-.4,.2,-.4,.4c0,.6,.7,.9,1.2,.9h.1c.8,0,.9,-.2,1.3,-.8c.2,-.3,.4,-.7,.5,-1.2c.2,-.5,.6,-1.2,.7,-2l1.4,-5.1h1.2l.1,-.4h-1.2c.3,-1.1,.8,-3.1,1.1,-3.7c.1,-.2,.4,-.5,.8,-.5c.3,0,.4,.2,.5,.4c0,.3,.1,.6,.5,.6c.2,0,.3,-.2,.3,-.5c0,-.6,-.7,-.9,-1.2,-.9c-1.9,.1,-2.6,3.1,-3,4.6h-1.2l-.1,.4h1.2l-1.9,7.3c-.1,.4,-.4,1.5,-1,1.5Z" class="g0_186"/>
<path d="M470.9,827c0,-.3,-.3,-.5,-.5,-.5c-.3,0,-.5,.3,-.6,.6l-.8,2.4c0,.1,-.1,.3,-.1,.3c0,.1,.1,.2,.1,.2c.2,0,.3,-.2,.4,-.3l1.3,-2.1c.1,-.2,.2,-.4,.2,-.6Z" class="g0_186"/>
<path d="M478,829.8c-2.1,1.4,-3.7,3.8,-3.7,6.9c0,2.7,1.6,5.5,3.7,6.8l.1,-.3c-1.9,-1.5,-2.5,-3.3,-2.5,-6.6c0,-3.3,.6,-5,2.5,-6.5l-.1,-.3Z" class="g0_186"/>
<path d="M486.4,834.9c0,-.5,-.5,-.9,-1,-.9c-.3,0,-.6,.1,-1,.3c-.3,.3,-.6,.6,-.8,.9c0,-.6,-.4,-1.2,-1.1,-1.2c-1.1,0,-2.1,1.2,-2.4,2l.2,.1c.4,-.5,1.1,-1.7,2,-1.7c.3,0,.4,.5,.4,1c0,.2,-.1,.6,-.2,1.1l-.4,1.2c-.1,.6,-.4,1.4,-.7,1.8c-.2,.2,-.4,.6,-.8,.6c-.4,0,-.7,-.1,-.6,-.5c.1,-.3,0,-.7,-.4,-.7c-.5,0,-.6,.3,-.6,.8c0,.5,.4,.9,1,.9c1,0,1.8,-.8,2.1,-1.4h.1c.1,.8,.5,1.4,1.3,1.4c1.2,0,2,-1.1,2.5,-1.8l-.2,-.2c-.5,.6,-1.2,1.6,-2,1.6c-.4,0,-.7,-.6,-.7,-1.2c0,-.3,.1,-.8,.2,-1.3l.2,-.7c.1,-.6,.4,-1.3,.6,-1.7c.2,-.2,.6,-.9,1,-.9c.4,0,.4,.3,.3,.6c0,.4,.2,.6,.5,.6c.4,0,.5,-.3,.5,-.7Z" class="g0_186"/>
<path d="M487.7,829.8l-.2,.3c2,1.5,2.6,3.2,2.6,6.5c0,3.3,-.6,5.1,-2.6,6.6l.2,.3c2.1,-1.3,3.6,-4.1,3.6,-6.8c0,-3.1,-1.5,-5.5,-3.6,-6.9Z" class="g0_186"/>
<path d="M499.8,836.2h-3.2v1h3.2v3.3h1v-3.3h3.3v-1h-3.3V833h-1v3.2Z" class="g0_186"/>
<path d="M510.4,837.2c0,-1.4,.6,-2.9,1.7,-2.9c.7,0,.9,.7,.9,1.2c0,1.5,-.6,2.8,-1.7,2.8c-.5,0,-.9,-.6,-.9,-1.1Zm.2,6.4h.1c1,0,1.7,-.2,2.3,-.6c.4,-.3,.8,-.8,.8,-1.5c0,-.8,-1.2,-1.3,-1.8,-1.5c-.5,-.1,-1.1,-.3,-1.5,-.5c-.2,0,-.3,-.2,-.3,-.4c0,-.3,.6,-.3,1.1,-.4c1.6,-.1,2.7,-1.2,2.7,-3c0,-.3,0,-.6,-.2,-.9q.3,-.1,.5,-.1c.1,0,.2,0,.2,0c.2,.2,.3,.7,.7,.7c.3,0,.5,-.3,.5,-.6c0,-.5,-.5,-.8,-.9,-.8c-.4,0,-.7,.2,-1.1,.6c-.4,-.4,-.9,-.6,-1.5,-.6c-.8,0,-1.5,.4,-1.9,.8c-.5,.4,-.9,1.1,-.9,1.9c0,.7,.3,1.3,.9,1.7h-.1c-.5,.2,-.8,.4,-1,.5c-.2,.2,-.3,.4,-.3,.6c0,.4,.1,.7,.5,.8c.5,.2,1.1,.4,2,.6c.5,.1,.8,.2,1.1,.4c.3,.2,.4,.4,.4,.6c0,.8,-1.1,1.4,-2.2,1.4c-1.2,0,-2,-.5,-2,-1.3c0,-.5,.3,-.9,.7,-1.1c-.2,-.1,-.3,-.1,-.6,-.1c-.6,0,-1,.5,-1,1.1c0,.3,0,.5,.1,.7c.5,.7,1.5,1,2.7,1Z" class="g0_186"/>
<path d="M518.8,827c0,-.3,-.3,-.5,-.5,-.5c-.3,0,-.5,.3,-.5,.6l-.9,2.4c0,.1,-.1,.3,-.1,.3c0,.1,.1,.2,.2,.2c.1,0,.2,-.2,.3,-.3l1.3,-2.1c.1,-.2,.2,-.4,.2,-.6Z" class="g0_186"/>
<path d="M525.9,829.8c-2.1,1.4,-3.6,3.8,-3.6,6.9c0,2.7,1.5,5.5,3.6,6.8l.2,-.3c-2,-1.5,-2.6,-3.3,-2.6,-6.6c0,-3.3,.6,-5,2.6,-6.5l-.2,-.3Z" class="g0_186"/>
<path d="M534.3,834.9c0,-.5,-.4,-.9,-1,-.9c-.3,0,-.6,.1,-.9,.3c-.4,.3,-.7,.6,-.9,.9c0,-.6,-.4,-1.2,-1.1,-1.2c-1.1,0,-2,1.2,-2.4,2l.2,.1c.4,-.5,1.1,-1.7,2,-1.7c.3,0,.4,.5,.4,1c0,.2,-.1,.6,-.2,1.1l-.4,1.2c-.1,.6,-.4,1.4,-.7,1.8c-.1,.2,-.4,.6,-.8,.6c-.4,0,-.7,-.1,-.6,-.5c.1,-.3,0,-.7,-.4,-.7c-.5,0,-.6,.3,-.6,.8c0,.5,.4,.9,1,.9c1,0,1.8,-.8,2.1,-1.4h.1c.1,.8,.5,1.4,1.3,1.4c1.2,0,2,-1.1,2.5,-1.8l-.2,-.2c-.5,.6,-1.2,1.6,-2,1.6c-.4,0,-.6,-.6,-.6,-1.2c0,-.3,0,-.8,.1,-1.3l.2,-.7c.1,-.6,.4,-1.3,.6,-1.7c.2,-.2,.6,-.9,1,-.9c.4,0,.4,.3,.3,.6c0,.4,.2,.6,.5,.6c.4,0,.5,-.3,.5,-.7Z" class="g0_186"/>
<path d="M535.6,829.8l-.1,.3c1.9,1.5,2.5,3.2,2.5,6.5c0,3.3,-.6,5.1,-2.5,6.6l.1,.3c1.9,-1.2,3.4,-3.6,3.6,-6.1v-1.6c-.2,-2.6,-1.7,-4.7,-3.6,-6Z" class="g0_186"/>
</svg>