<?xml version="1.0" encoding="UTF-8" standalone="no"?>
<!DOCTYPE svg PUBLIC "-//W3C//DTD SVG 1.1//EN"
"http://www.w3.org/Graphics/SVG/1.1/DTD/svg11.dtd">
<svg viewBox="0 0 811 1017" version="1.1" xmlns="http://www.w3.org/2000/svg" xmlns:xlink="http://www.w3.org/1999/xlink">
<defs>
<style type="text/css"><![CDATA[
.g0_309{
fill: #000;
}
]]></style>
</defs>
<path d="M402.7,616.6h.4V589.9h-.4Z" class="g0_309"/>
<path d="M378.4,602.1v3.2l-.3,-.1l-6.2,-2.9l-.4,-.2l.4,-.2l6.2,-2.9l.3,-.1v.2l-.1,.2l-6.2,3l-.2,-.4h.2l6.2,2.9l-.2,.4L378,605v-2.9Z" class="g0_309"/>
<path d="M378,602.1h.4v-3H378Z" class="g0_309"/>
<path d="M378.3,602.3h.2v-.4h-.2Z" class="g0_309"/>
<path d="M378.5,602.3h24.6v-.4H378.5Z" class="g0_309"/>
<path d="M386.1,659.4h.4v-42h-.4Z" class="g0_309"/>
<path d="M361.8,617.4v3.2l-.3,-.1l-6.2,-2.9l-.4,-.2l.4,-.2l6.2,-2.9l.3,-.1v.2l-.1,.2l-6.2,3l-.2,-.4h.2l6.2,2.9l-.2,.4l-.1,-.2v-2.9Z" class="g0_309"/>
<path d="M361.4,617.4h.4v-3h-.4Z" class="g0_309"/>
<path d="M361.7,617.6h.2v-.4h-.2Z" class="g0_309"/>
<path d="M361.9,617.6h24.6v-.4H361.9Z" class="g0_309"/>
<path d="M327,677.8h.3V632.6H327Z" class="g0_309"/>
<path d="M309.6,632.6v3.2l-.2,-.1l-6.3,-2.9l-.4,-.2l.4,-.2l6.3,-2.8l.2,-.1v.4l-6.4,2.9l-.1,-.4h.1l6.4,2.9l-.2,.4l-.1,-.2v-2.9Z" class="g0_309"/>
<path d="M309.3,632.6h.3v-2.8h-.3Z" class="g0_309"/>
<path d="M309.5,632.8h.1v-.4h-.1Z" class="g0_309"/>
<path d="M309.6,632.8h17.7v-.4H309.6Z" class="g0_309"/>
</svg>