<?xml version="1.0" encoding="UTF-8" standalone="no"?>
<!DOCTYPE svg PUBLIC "-//W3C//DTD SVG 1.1//EN"
"http://www.w3.org/Graphics/SVG/1.1/DTD/svg11.dtd">
<svg viewBox="0 0 811 1017" version="1.1" xmlns="http://www.w3.org/2000/svg" xmlns:xlink="http://www.w3.org/1999/xlink">
<defs>
<style type="text/css"><![CDATA[
.g0_238{
fill: #F7F5E8;
}
.g1_238{
fill: #0E0E0E;
}
]]></style>
</defs>
<path d="M142.4,763.9H710.7V255.1H142.4Z" class="g0_238"/>
<path d="M189,132.4h-1.1v-8.5H189Zm-1.8,.7h2.5V129h1.1l2.9,4.1h3V133l-3.2,-4.2c1.3,-.3,2,-1.3,2,-2.7c0,-2.1,-1.6,-2.9,-3.5,-2.9h-4.8v9.9Zm8.3,-.7H194L191.6,129c.4,0,.8,.1,1.3,0l2.6,3.4Zm-2.7,-4.1c-.3,0,-.6,.1,-.8,.1h-2.3v-4.5h2.4c.2,0,.5,.1,.7,.1v4.3Zm.7,-4.2c.8,.4,1.3,1.1,1.3,2.1c0,.9,-.5,1.7,-1.3,2.1v-4.2Z" class="g1_238"/>
<path d="M321.5,163.4H327v-.6h-5.5Z" class="g1_238"/>
<path d="M334.3,161.1h-3.8c-.9,0,-1.5,1.2,-1.6,1.4h.1c0,-.1,.4,-.6,1,-.6h.6l-.8,2.3c-.2,.7,-1.1,.7,-1.1,1.5c0,.2,.1,.3,.4,.3c.4,0,.8,-.3,1.3,-1.8l.8,-2.3h1.1l-.5,2.3c-.1,.3,-.2,.6,-.2,.8v.1c0,.5,.4,.9,.9,.9c.3,0,.5,-.1,.5,-.4v-.1c0,-.6,-.6,-.5,-.6,-1.1c0,-.1,0,-.2,0,-.3l.6,-2.2h1.1l.2,-.8Z" class="g1_238"/>
<path d="M320.4,168.3h14.7v-.8H320.4Z" class="g1_238"/>
<path d="M327.3,172.2c-.6,0,-1,-.4,-1,-1.1c0,-.8,.4,-1.6,1.3,-1.6c1.2,0,1.3,.9,1.3,1.9c0,.9,-.3,1.4,-.7,2.1c-.3,.4,-.7,.8,-1.1,1.3c-.5,.5,-1.1,1.1,-1.9,1.8v.3h4.6l.3,-2.1h-.3c0,.2,-.1,.4,-.2,.6c-.2,.3,-.5,.5,-1,.5h-2.1c.5,-.4,.9,-.7,1.4,-1.1c.7,-.6,1.5,-1.4,1.9,-2.2c.2,-.4,.3,-.8,.3,-1.2c0,-.3,-.1,-.6,-.2,-.9c-.3,-.7,-1.1,-1.3,-2.2,-1.3c-.7,0,-1.3,.3,-1.7,.6c-.4,.3,-.7,.8,-.7,1.5c0,.5,.1,.8,.4,1c.2,.3,.5,.5,.9,.5c.4,0,.7,-.2,.7,-.6Z" class="g1_238"/>
<path d="M396.2,161.1h-3.7c-1,0,-1.6,1.2,-1.7,1.4h.1c.1,-.1,.5,-.6,1.1,-.6h.5l-.7,2.3c-.3,.7,-1.2,.7,-1.2,1.5c0,.2,.2,.3,.4,.3c.5,0,.8,-.2,1.4,-1.8l.8,-2.3h1l-.5,2.3c-.1,.4,-.1,.6,-.1,.8v.1c0,.5,.3,.9,.9,.9c.2,0,.5,-.1,.5,-.4v-.1c0,-.6,-.7,-.5,-.7,-1.1c0,-.1,.1,-.2,.1,-.3l.5,-2.2h1.2l.1,-.8Z" class="g1_238"/>
<path d="M390.1,168.4h7v-.9h-7Z" class="g1_238"/>
<path d="M393.2,172.3c-.7,0,-1.1,-.5,-1.1,-1.2c0,-.8,.4,-1.6,1.3,-1.6c1.2,0,1.4,1,1.4,1.9c0,.9,-.3,1.4,-.8,2.1c-.2,.4,-.6,.9,-1.1,1.3c-.5,.6,-1.1,1.1,-1.8,1.8v.3h4.5l.4,-2.1h-.3c-.1,.3,-.2,.4,-.2,.6c-.2,.4,-.5,.6,-1.1,.6h-2.1v-.1c.5,-.3,1,-.7,1.4,-1.1c.8,-.6,1.5,-1.3,2,-2.2c.1,-.4,.2,-.8,.2,-1.2c0,-.3,0,-.6,-.1,-.9c-.4,-.7,-1.1,-1.2,-2.2,-1.2c-.7,0,-1.4,.2,-1.8,.5c-.3,.4,-.6,.9,-.6,1.5c0,.5,.1,.8,.3,1.1c.2,.2,.5,.4,.9,.4c.4,0,.7,-.2,.8,-.5Z" class="g1_238"/>
<path d="M611.9,161.1h-3.7c-1,0,-1.6,1.2,-1.7,1.4h.1c.1,-.1,.5,-.6,1,-.6h.6l-.8,2.3c-.2,.7,-1.1,.7,-1.1,1.5c0,.2,.2,.3,.4,.3c.4,0,.8,-.2,1.4,-1.8l.7,-2.3h1.1l-.5,2.3c-.1,.4,-.1,.6,-.1,.8v.1c0,.5,.3,.9,.8,.9c.3,0,.6,-.1,.6,-.4v-.1c0,-.6,-.7,-.5,-.7,-1.1c0,-.1,0,-.2,.1,-.3l.5,-2.2h1.1l.2,-.8Z" class="g1_238"/>
<path d="M605.8,168.4h6.9v-.9h-6.9Z" class="g1_238"/>
<path d="M608.9,172.3c-.7,0,-1.1,-.5,-1.1,-1.2c0,-.8,.4,-1.6,1.3,-1.6c1.2,0,1.3,1,1.3,1.9c0,.9,-.2,1.4,-.7,2.1c-.3,.4,-.6,.9,-1.1,1.3c-.5,.6,-1.1,1.1,-1.9,1.8v.3h4.6l.4,-2.1h-.3c-.1,.3,-.2,.4,-.3,.6c-.1,.4,-.4,.6,-1,.6H608v-.1c.5,-.3,1,-.7,1.4,-1.1c.7,-.6,1.5,-1.3,1.9,-2.2c.2,-.4,.3,-.8,.3,-1.2c0,-.3,0,-.6,-.2,-.9c-.3,-.7,-1,-1.2,-2.1,-1.2c-.7,0,-1.4,.2,-1.8,.5c-.4,.4,-.7,.9,-.7,1.5c0,.5,.2,.8,.4,1.1c.2,.2,.5,.4,.9,.4c.4,0,.7,-.2,.8,-.5Z" class="g1_238"/>
<path d="M227,183.2h5.6v-.6H227Z" class="g1_238"/>
<path d="M239.8,181h-3.7c-1,0,-1.6,1.2,-1.7,1.4h.1c.1,-.1,.5,-.6,1,-.6h.6l-.8,2.2c-.2,.8,-1.1,.8,-1.1,1.5v.1c0,.2,.2,.3,.4,.3c.4,0,.8,-.3,1.3,-1.8l.8,-2.3h1.1l-.5,2.3c-.1,.3,-.1,.6,-.1,.8v.1c0,.4,.3,.9,.8,.9c.3,0,.6,-.1,.6,-.5c0,-.7,-.7,-.6,-.7,-1.2c0,-.1,0,-.2,.1,-.3l.5,-2.1h1.1l.2,-.8Z" class="g1_238"/>
<path d="M225.9,188.2h14.7v-.8H225.9Z" class="g1_238"/>
<path d="M232.9,192.1c-.7,0,-1.1,-.5,-1.1,-1.2c0,-.7,.4,-1.6,1.3,-1.6c1.2,0,1.3,1,1.3,1.9c0,.9,-.2,1.5,-.7,2.1c-.3,.4,-.6,.9,-1.1,1.4c-.5,.5,-1.1,1.1,-1.9,1.7v.4h4.6l.4,-2.1h-.3c-.1,.2,-.2,.4,-.3,.5c-.1,.4,-.4,.6,-1,.6H232v-.1c.5,-.3,1,-.7,1.4,-1c.7,-.7,1.5,-1.4,1.9,-2.3c.2,-.4,.3,-.8,.3,-1.2c0,-.3,-.1,-.6,-.2,-.8c-.3,-.8,-1,-1.3,-2.1,-1.3c-.7,0,-1.4,.3,-1.8,.6c-.4,.3,-.7,.8,-.7,1.4c0,.5,.2,.9,.4,1.1c.2,.2,.5,.4,.9,.4c.4,0,.7,-.2,.8,-.5Z" class="g1_238"/>
<path d="M449.2,516.2v-.4h-1.3c-.4,0,-.7,-.2,-.7,-.6V499.4c0,-.4,.3,-.7,.7,-.7h1.3v-.3h-3.1v17.8h3.1Z" class="g1_238"/>
<path d="M452.9,502.9h5.6v-.6h-5.6Z" class="g1_238"/>
<path d="M465.7,500.6H462c-1,0,-1.6,1.2,-1.7,1.4h.1c.1,-.1,.5,-.6,1.1,-.6h.5l-.7,2.3c-.3,.7,-1.2,.7,-1.2,1.4v.1c0,.2,.2,.3,.4,.3c.5,0,.8,-.3,1.4,-1.8l.8,-2.3h1.1l-.6,2.3c-.1,.3,-.1,.6,-.1,.8v.1c0,.5,.3,.9,.9,.9c.2,0,.5,-.1,.5,-.5c0,-.6,-.7,-.6,-.7,-1.2c0,-.1,.1,-.1,.1,-.3l.5,-2.1h1.2l.1,-.8Z" class="g1_238"/>
<path d="M451.8,507.8h14.8V507H451.8Z" class="g1_238"/>
<path d="M458.8,511.7c-.7,0,-1.1,-.5,-1.1,-1.1c0,-.8,.4,-1.7,1.3,-1.7c1.2,0,1.4,1,1.4,1.9c0,1,-.3,1.5,-.8,2.2c-.2,.4,-.6,.8,-1.1,1.3c-.5,.5,-1.1,1.1,-1.8,1.7v.4h4.5l.4,-2.1h-.3c-.1,.2,-.2,.4,-.2,.5c-.2,.4,-.5,.6,-1,.6h-2.2c.5,-.4,1,-.8,1.4,-1.1c.8,-.7,1.5,-1.4,2,-2.3c.1,-.3,.2,-.7,.2,-1.2c0,-.3,0,-.5,-.1,-.8c-.4,-.8,-1.1,-1.3,-2.2,-1.3c-.7,0,-1.4,.3,-1.8,.6c-.3,.3,-.6,.8,-.6,1.5c0,.4,.1,.8,.3,1c.2,.3,.5,.4,.9,.4c.4,0,.7,-.2,.8,-.5Z" class="g1_238"/>
<path d="M469.9,510.4c0,.5,.2,.8,.7,.8c.1,0,.3,0,.4,-.1c0,.4,-.1,.7,-.3,1.1c-.2,.3,-.6,.6,-1.1,.9l.4,.5c.3,-.3,.6,-.5,.8,-.7c.5,-.5,1,-1,1,-2c0,-.8,-.4,-1.3,-1,-1.3c-.5,0,-.9,.3,-.9,.8Z" class="g1_238"/>
<path d="M484.3,500.6h-3.8c-1,0,-1.6,1.2,-1.7,1.4h.2c0,-.1,.4,-.6,1,-.6h.5l-.7,2.3c-.3,.7,-1.1,.7,-1.1,1.4v.1c0,.2,.1,.3,.4,.3c.4,0,.8,-.3,1.3,-1.8l.8,-2.3h1.1l-.6,2.3c0,.3,-.1,.6,-.1,.8v.1c0,.5,.3,.9,.9,.9c.2,0,.5,-.1,.5,-.5c0,-.6,-.6,-.6,-.6,-1.2q0,-.1,0,-.3l.5,-2.1h1.2l.2,-.8Z" class="g1_238"/>
<path d="M478.1,507.8h7V507h-7Z" class="g1_238"/>
<path d="M481.2,511.7c-.7,0,-1.1,-.5,-1.1,-1.1c0,-.8,.4,-1.7,1.3,-1.7c1.3,0,1.4,1,1.4,1.9c0,1,-.3,1.5,-.7,2.2c-.3,.4,-.7,.8,-1.2,1.3c-.5,.5,-1.1,1.1,-1.8,1.7v.4h4.5l.4,-2.1h-.3c-.1,.2,-.2,.4,-.2,.5c-.2,.4,-.5,.6,-1,.6h-2.1c.4,-.4,.9,-.8,1.3,-1.1c.8,-.7,1.6,-1.4,2,-2.3c.2,-.3,.3,-.7,.3,-1.2c0,-.3,-.1,-.5,-.2,-.8c-.4,-.8,-1.1,-1.3,-2.2,-1.3c-.7,0,-1.3,.3,-1.7,.6c-.4,.3,-.7,.8,-.7,1.5c0,.4,.1,.8,.3,1c.2,.3,.5,.4,.9,.4c.4,0,.7,-.2,.8,-.5Z" class="g1_238"/>
<path d="M490.8,516.2V498.4h-3.1v.3H489c.4,0,.7,.3,.7,.7v15.8c0,.4,-.3,.6,-.7,.6h-1.3v.4h3.1Z" class="g1_238"/>
</svg>