<?xml version="1.0" encoding="UTF-8" standalone="no"?>
<!DOCTYPE svg PUBLIC "-//W3C//DTD SVG 1.1//EN"
"http://www.w3.org/Graphics/SVG/1.1/DTD/svg11.dtd">
<svg viewBox="0 0 811 1017" version="1.1" xmlns="http://www.w3.org/2000/svg" xmlns:xlink="http://www.w3.org/1999/xlink">
<defs>
<style type="text/css"><![CDATA[
.g0_36{
fill: #0E0E0E;
}
]]></style>
</defs>
<path d="M328.5,545.5c0,-.1,-.1,-.2,-.2,-.3c-1.5,-.8,-2,-2.6,-2,-5.8v-8.5c0,-1.1,-.5,-3.7,-2.2,-4.5c1.7,-.9,2.2,-3.5,2.2,-4.6v-8.4c0,-3.2,.5,-5,2,-5.8c.1,0,.2,-.2,.2,-.3c-.1,0,-.2,0,-.2,0c-1,.3,-3.2,1.5,-3.2,6.2v8.3c0,3.6,-2.1,4.6,-2.1,4.6c0,0,2.1,.9,2.1,4.6v8.3c0,4.7,2.2,5.9,3.2,6.2c0,0,.1,0,.2,0Z" class="g0_36"/>
<path d="M336.7,522.9l-4.8,5.8h-.1l1.4,-6.7c.1,-.3,.3,-.8,.3,-1c.2,-.5,.4,-.9,.8,-1c.2,-.1,.4,-.1,.7,-.1v-.3h-4.2l-.1,.3c.6,0,.9,0,1.1,.1c.2,.1,.2,.5,.2,.8c0,.2,-.1,.6,-.2,1.1l-2,9h.8l6.5,-7.9c.4,-.6,.9,-1.1,1.2,-1.5c.3,-.4,.6,-.7,.9,-.9c.3,-.2,.8,-.5,1,-.6c.2,-.1,.5,-.1,.7,-.1l.1,-.3h-3.6v.3c.3,0,.6,0,.7,0c.2,.1,.2,.4,.2,.6c0,.1,0,.4,-.3,.7c-.3,.4,-.8,1,-1.3,1.7Z" class="g0_36"/>
<path d="M346.6,523.8c-.4,0,-.9,.1,-1.4,.5c-.4,.3,-.9,.7,-1.3,1.2c-.7,.8,-1.3,2.1,-1.3,3.5c0,1,.4,1.8,1.4,1.8c1.4,0,1.9,-.9,2.3,-1.6c-.2,1,-.1,1.6,.6,1.6c.4,0,.8,-.1,1.2,-.5c.5,-.3,.9,-.8,1.2,-1.5l-.2,-.1c-.3,.4,-1,1.5,-1.4,1.5c-.2,0,-.3,-.4,-.3,-.7c0,-.9,.6,-2.6,1,-3.6l.7,-2h-1l-.3,.7c-.2,-.5,-.5,-.8,-1.2,-.8Zm.2,.3c.7,0,.6,1.4,.5,2c-.1,.3,-.2,.7,-.4,1c-.4,1.3,-1.5,3.4,-2.4,3.4c-.6,0,-.8,-1,-.8,-1.6c0,-.4,0,-.9,.2,-1.4c.4,-1.1,1.5,-3.4,2.9,-3.4Z" class="g0_36"/>
<path d="M356.8,526.2c.5,0,.9,-.4,.9,-1c0,-.5,-.4,-.9,-.9,-.9c-.5,0,-1,.4,-1,.9c0,.5,.5,1,1,1Zm0,4.7c.5,0,.9,-.5,.9,-1c0,-.5,-.4,-.9,-.9,-.9c-.5,0,-1,.4,-1,.9c0,.5,.5,1,1,1Z" class="g0_36"/>
<path d="M390.2,516.7l1.8,-6.8c.1,-.6,.4,-.7,1,-.7c2.5,0,3.6,1.8,3.6,4.1c0,.5,-.1,.9,-.1,1.4c-.5,2.4,-2.3,4.9,-5.2,4.9c-1.1,0,-1.6,-.7,-1.4,-1.7c.1,-.4,.1,-.8,.3,-1.2Zm-1,-7.9l-.1,.2c.4,0,.7,.1,1,.3c.2,.1,.4,.3,.4,.6c0,.4,-.2,.9,-.3,1.4l-1.7,6.4c-.3,1,-.8,1.5,-1.2,1.7c-.2,.2,-.5,.3,-.9,.3v.2h5c1,0,1.8,-.1,2.6,-.4c.8,-.2,1.6,-.7,2.3,-1.3c.2,-.3,.5,-.7,.8,-1c.2,-.4,.4,-.8,.6,-1.2c.2,-.4,.3,-.8,.4,-1.2c.1,-.5,.1,-.9,.1,-1.3c0,-.7,-.1,-1.3,-.3,-2c-.3,-.6,-.7,-1.1,-1.2,-1.6c-.5,-.4,-1.1,-.7,-1.7,-.9c-.6,-.1,-1.3,-.2,-1.9,-.2h-3.9Z" class="g0_36"/>
<path d="M365.2,527.1h55.6v-.9H365.2Z" class="g0_36"/>
<path d="M372.2,533.8l-4.7,5.8h-.2l1.5,-6.6c.1,-.4,.2,-.8,.3,-1.1c.1,-.4,.3,-.8,.7,-1c.2,-.1,.4,-.1,.7,-.1l.1,-.2h-4.3v.2c.5,0,.8,.1,1,.2c.2,.1,.2,.5,.2,.8c0,.2,0,.6,-.1,1.1l-2.1,8.9h.8l6.5,-7.9c.4,-.5,.9,-1.1,1.2,-1.4c.3,-.4,.6,-.7,.9,-.9c.3,-.2,.8,-.6,1.1,-.6c.2,-.1,.4,-.2,.7,-.2v-.2h-3.6v.2c.3,0,.6,0,.7,.1c.2,.1,.3,.4,.3,.5c0,.2,-.1,.5,-.4,.8c-.2,.4,-.7,1,-1.3,1.6Z" class="g0_36"/>
<path d="M383.2,537.1c0,.9,-.5,2.1,-1,2.6c-.6,.6,-1.6,1.2,-2.6,1.4l1.6,-5.9c.1,0,.2,0,.3,0c.1,-.1,.3,-.1,.4,-.1c1,0,1.3,1,1.3,2Zm-3.1,-1.5l-2.4,8.5c-.1,.5,-.5,.6,-1.2,.6l-.1,.2h3.7v-.2c-.6,0,-1.2,-.1,-1.2,-.6c0,-.1,0,-.2,0,-.3c0,0,0,-.2,.1,-.3l.6,-2c1.3,-.2,2.5,-.8,3.3,-1.6c.8,-.6,1.5,-1.6,1.5,-2.9c0,-1.4,-.9,-2.3,-2.3,-2.3c-.3,0,-.5,.1,-.8,.1l.5,-1.7h-1l-.6,2c-.4,.2,-.9,.5,-1.3,.8c-.4,.3,-.7,.6,-1,1l.3,.2c.5,-.5,1.2,-1.1,1.9,-1.5Z" class="g0_36"/>
<path d="M393.1,535.8c0,-.6,-.5,-1.1,-1.1,-1.1c-.3,0,-.6,.2,-1,.4c-.3,.2,-.6,.6,-.9,1c0,-.8,-.4,-1.4,-1.1,-1.4c-1.2,0,-2.3,1.3,-2.6,2.1l.2,.2c.4,-.6,1.2,-1.9,2.1,-1.9c.3,0,.4,.6,.4,1.1c0,.3,0,.7,-.2,1.2l-.4,1.3c-.1,.6,-.4,1.4,-.7,1.9c-.2,.3,-.5,.7,-.9,.7c-.4,0,-.8,-.1,-.6,-.5c0,-.4,0,-.8,-.5,-.8c-.5,0,-.6,.3,-.6,.8c0,.6,.5,1,1.1,1c1.1,0,1.8,-.8,2.3,-1.5c.1,.8,.5,1.5,1.4,1.5c1.3,0,2.2,-1.2,2.7,-2l-.3,-.1c-.5,.6,-1.2,1.7,-2.1,1.7c-.4,0,-.7,-.6,-.7,-1.3c0,-.4,.1,-.8,.2,-1.4l.2,-.8c.1,-.6,.4,-1.3,.7,-1.7c.2,-.3,.6,-1,1,-1c.4,0,.4,.3,.4,.6c-.1,.4,.1,.6,.5,.6c.4,0,.5,-.3,.5,-.6Z" class="g0_36"/>
<path d="M395.2,541.8c1.4,0,2.3,-1.4,2.7,-2.2l-.3,-.2c-.3,.4,-.9,1.8,-1.7,1.8c-.3,0,-.4,-.5,-.4,-.7c0,-.2,.1,-.6,.3,-1l1.1,-4.3h1.4l.1,-.3H397l.5,-1.8h-1.1l-.5,1.8h-1.1l-.1,.3h1.1l-1,3.9c-.2,.5,-.3,.9,-.3,1.2c-.1,.3,-.1,.5,-.1,.7c0,.5,.2,.8,.8,.8Z" class="g0_36"/>
<path d="M406.8,537.1h-3.5v1.1h3.5v3.5h1v-3.5h3.5v-1.1h-3.5v-3.5h-1v3.5Z" class="g0_36"/>
<path d="M416.7,541.8c1.4,0,2.3,-1.4,2.7,-2.2l-.3,-.2c-.3,.4,-.9,1.8,-1.7,1.8c-.3,0,-.4,-.5,-.4,-.7c.1,-.2,.1,-.6,.3,-1l1.1,-4.3h1.4l.1,-.3h-1.4l.5,-1.8h-1.1l-.5,1.8h-1.1l-.1,.3h1.1l-1,3.9c-.2,.5,-.2,.9,-.3,1.2c-.1,.3,-.1,.5,-.1,.7c0,.5,.2,.8,.8,.8Z" class="g0_36"/>
<path d="M424.3,529.9c0,.4,.3,.8,.7,.8c.2,0,.3,0,.5,-.1c0,.4,-.1,.8,-.3,1.1c-.3,.3,-.7,.7,-1.2,1.1l.4,.4c.3,-.2,.6,-.5,.9,-.7c.5,-.5,1,-1.1,1,-2.1c0,-.9,-.3,-1.4,-1,-1.4c-.6,0,-1,.3,-1,.9Z" class="g0_36"/>
<path d="M438.3,522.9l-4.8,5.8h-.1l1.4,-6.7c.1,-.3,.2,-.8,.3,-1c.1,-.5,.3,-.9,.7,-1c.2,-.1,.5,-.1,.7,-.1l.1,-.3h-4.3v.3c.5,0,.9,0,1,.1c.2,.1,.3,.5,.3,.8c0,.2,-.1,.6,-.2,1.1l-2,9h.8l6.4,-7.9c.5,-.6,.9,-1.1,1.2,-1.5c.3,-.4,.7,-.7,.9,-.9c.3,-.2,.9,-.5,1.1,-.6c.2,-.1,.5,-.1,.7,-.1v-.3H439l-.1,.3c.3,0,.6,0,.8,0c.1,.1,.2,.4,.2,.6c0,.1,-.1,.4,-.3,.7c-.3,.4,-.8,1,-1.3,1.7Z" class="g0_36"/>
<path d="M449.2,526.1c0,1,-.5,2.1,-1,2.7c-.6,.6,-1.6,1.2,-2.5,1.3l1.5,-5.9c.1,0,.3,0,.4,0c.1,0,.2,0,.3,0c1,0,1.3,1,1.3,1.9Zm-3.1,-1.5l-2.3,8.5c-.2,.5,-.6,.6,-1.3,.6v.2h3.6l.1,-.2c-.7,0,-1.3,0,-1.3,-.6q0,-.1,0,-.2c0,-.1,.1,-.2,.1,-.3l.6,-2.1c1.3,-.2,2.5,-.8,3.4,-1.5c.7,-.7,1.4,-1.6,1.4,-3c0,-1.4,-.8,-2.2,-2.3,-2.2c-.2,0,-.5,0,-.8,.1l.5,-1.7h-1l-.6,2c-.4,.1,-.8,.4,-1.2,.7c-.4,.3,-.8,.6,-1.1,1l.3,.2c.5,-.5,1.2,-1.1,1.9,-1.5Z" class="g0_36"/>
<path d="M457.9,526.2c.6,0,1,-.4,1,-1c0,-.5,-.4,-.9,-1,-.9c-.5,0,-.9,.4,-.9,.9c0,.5,.4,1,.9,1Zm0,4.7c.6,0,1,-.5,1,-1c0,-.5,-.4,-.9,-1,-.9c-.5,0,-.9,.4,-.9,.9c0,.5,.4,1,.9,1Z" class="g0_36"/>
<path d="M477,516.7l1.8,-6.8c.1,-.6,.4,-.7,1,-.7c2.5,0,3.6,1.8,3.6,4.1c0,.5,-.1,.9,-.1,1.4c-.5,2.4,-2.3,4.9,-5.2,4.9c-1.1,0,-1.7,-.7,-1.4,-1.7c0,-.4,.1,-.8,.3,-1.2Zm-1,-7.9l-.1,.2c.4,0,.7,.1,1,.3c.2,.1,.4,.3,.4,.6c0,.4,-.2,.9,-.3,1.4l-1.7,6.4c-.3,1,-.8,1.5,-1.2,1.7c-.2,.2,-.6,.3,-.9,.3v.2h5c1,0,1.8,-.1,2.6,-.4c.8,-.2,1.6,-.7,2.3,-1.3c.2,-.3,.5,-.7,.7,-1c.3,-.4,.5,-.8,.7,-1.2c.2,-.4,.3,-.8,.4,-1.2c.1,-.5,.1,-.9,.1,-1.3c0,-.7,-.1,-1.3,-.3,-2c-.3,-.6,-.7,-1.1,-1.2,-1.6c-.5,-.4,-1.1,-.7,-1.7,-.9c-.6,-.1,-1.3,-.2,-1.9,-.2H476Z" class="g0_36"/>
<path d="M493,512l-4.8,5.9h-.1l1.5,-6.7c0,-.4,.2,-.8,.2,-1.1c.2,-.4,.4,-.8,.8,-1c.2,0,.4,-.1,.7,-.1v-.2h-4.2l-.1,.2c.6,0,.9,.1,1.1,.2c.2,.1,.2,.5,.2,.8c0,.2,0,.6,-.2,1.1l-2,8.9h.8l6.5,-7.9c.4,-.5,.9,-1,1.2,-1.4c.3,-.4,.6,-.7,.9,-.9c.3,-.2,.8,-.5,1,-.6c.3,-.1,.5,-.2,.7,-.2l.1,-.2h-3.6v.2c.3,0,.6,0,.7,.1c.2,.1,.2,.4,.2,.5c0,.2,0,.5,-.3,.8c-.3,.4,-.7,1,-1.3,1.6Z" class="g0_36"/>
<path d="M504,515.3c0,.9,-.5,2.1,-1.1,2.6c-.6,.6,-1.5,1.2,-2.5,1.4l1.6,-5.9c.1,0,.2,0,.3,0c.1,0,.2,0,.4,0c.9,0,1.3,.9,1.3,1.9Zm-3.2,-1.5l-2.3,8.5c-.1,.5,-.5,.6,-1.2,.6l-.1,.2h3.7v-.2c-.7,0,-1.3,-.1,-1.3,-.6c0,-.1,.1,-.2,.1,-.2c0,-.1,0,-.2,.1,-.4l.5,-2c1.4,-.2,2.6,-.8,3.4,-1.5c.8,-.7,1.5,-1.7,1.5,-3c0,-1.4,-.9,-2.3,-2.3,-2.3c-.3,0,-.5,.1,-.8,.1l.4,-1.7h-.9l-.6,2c-.5,.2,-.9,.5,-1.3,.8c-.4,.3,-.7,.6,-1,1l.2,.2c.5,-.5,1.3,-1.1,1.9,-1.5Z" class="g0_36"/>
<path d="M513.9,514c0,-.6,-.5,-1.1,-1.1,-1.1c-.3,0,-.7,.2,-1,.4c-.3,.3,-.7,.6,-.9,1c0,-.7,-.4,-1.4,-1.1,-1.4c-1.2,0,-2.3,1.3,-2.6,2.2l.2,.1c.4,-.6,1.1,-1.9,2.1,-1.9c.3,0,.4,.6,.4,1.1c0,.3,-.1,.7,-.2,1.2l-.4,1.3c-.2,.6,-.4,1.5,-.7,1.9c-.2,.3,-.5,.7,-.9,.7c-.4,0,-.8,-.1,-.7,-.5c.1,-.3,.1,-.8,-.4,-.8c-.5,0,-.7,.3,-.7,.8c0,.6,.5,1,1.2,1c1,0,1.8,-.8,2.2,-1.5h.1c.1,.8,.5,1.5,1.4,1.5c1.3,0,2.2,-1.2,2.6,-1.9l-.2,-.2c-.5,.7,-1.2,1.7,-2.1,1.7c-.5,0,-.7,-.6,-.7,-1.3c0,-.3,.1,-.8,.2,-1.4l.2,-.8c.1,-.6,.4,-1.3,.7,-1.7c.2,-.3,.6,-1,1,-1c.4,0,.4,.3,.4,.6c-.1,.5,.1,.7,.5,.7c.3,0,.5,-.4,.5,-.7Z" class="g0_36"/>
<path d="M466.3,527.1h55.6v-.9H466.3Z" class="g0_36"/>
<path d="M473.4,533.8l-4.8,5.8h-.1l1.4,-6.6c.1,-.4,.2,-.8,.3,-1.1c.2,-.4,.3,-.8,.8,-1c.1,-.1,.4,-.1,.7,-.1v-.2h-4.2l-.1,.2c.5,0,.9,.1,1.1,.2c.2,.1,.2,.5,.2,.8c0,.2,-.1,.6,-.2,1.1l-2,8.9h.8l6.5,-7.9c.4,-.5,.8,-1.1,1.1,-1.4c.4,-.4,.7,-.7,1,-.9c.2,-.2,.8,-.6,1,-.6c.2,-.1,.5,-.2,.7,-.2l.1,-.2h-3.6l-.1,.2c.4,0,.6,0,.8,.1c.1,.1,.2,.4,.2,.5c0,.2,-.1,.5,-.3,.8c-.3,.4,-.8,1,-1.3,1.6Z" class="g0_36"/>
<path d="M484.4,537.1c0,.9,-.5,2.1,-1.1,2.6c-.6,.6,-1.6,1.2,-2.5,1.4l1.6,-5.9c.1,0,.2,0,.3,0c.1,-.1,.2,-.1,.3,-.1c1,0,1.4,1,1.4,2Zm-3.2,-1.5l-2.3,8.5c-.2,.5,-.6,.6,-1.3,.6v.2h3.6l.1,-.2c-.7,0,-1.3,-.1,-1.3,-.6c0,-.1,0,-.2,0,-.3c.1,0,.1,-.2,.1,-.3l.6,-2c1.3,-.2,2.6,-.8,3.4,-1.6c.7,-.6,1.5,-1.6,1.5,-2.9c0,-1.4,-.9,-2.3,-2.3,-2.3c-.3,0,-.6,.1,-.9,.1l.5,-1.7h-1l-.5,2c-.5,.2,-.9,.5,-1.3,.8c-.4,.3,-.7,.6,-1.1,1l.3,.2c.5,-.5,1.3,-1.1,1.9,-1.5Z" class="g0_36"/>
<path d="M494.3,535.8c0,-.6,-.5,-1.1,-1.1,-1.1c-.3,0,-.7,.2,-1,.4c-.4,.2,-.7,.6,-.9,1c0,-.8,-.5,-1.4,-1.2,-1.4c-1.2,0,-2.2,1.3,-2.6,2.1l.3,.2c.3,-.6,1.1,-1.9,2.1,-1.9c.3,0,.4,.6,.4,1.1c0,.3,-.1,.7,-.2,1.2l-.4,1.3c-.2,.6,-.4,1.4,-.8,1.9c-.1,.3,-.4,.7,-.8,.7c-.5,0,-.8,-.1,-.7,-.5c.1,-.4,0,-.8,-.4,-.8c-.5,0,-.7,.3,-.7,.8c0,.6,.5,1,1.1,1c1.1,0,1.9,-.8,2.3,-1.5c.2,.8,.6,1.5,1.5,1.5c1.2,0,2.1,-1.2,2.6,-2l-.2,-.1c-.5,.6,-1.3,1.7,-2.1,1.7c-.5,0,-.7,-.6,-.7,-1.3c0,-.4,0,-.8,.2,-1.4l.2,-.8c.1,-.6,.4,-1.3,.6,-1.7c.2,-.3,.6,-1,1,-1c.5,0,.5,.3,.4,.6c0,.4,.2,.6,.5,.6c.4,0,.6,-.3,.6,-.6Z" class="g0_36"/>
<path d="M496.4,541.8c1.3,0,2.2,-1.4,2.7,-2.2l-.3,-.2c-.3,.4,-1,1.8,-1.8,1.8c-.2,0,-.3,-.5,-.3,-.7c0,-.2,.1,-.6,.2,-1l1.1,-4.3h1.4l.1,-.3h-1.4l.5,-1.8h-1.1l-.5,1.8h-1.1l-.1,.3h1.1l-1,3.9c-.1,.5,-.2,.9,-.3,1.2c0,.3,-.1,.5,-.1,.7c0,.5,.3,.8,.9,.8Z" class="g0_36"/>
<path d="M507.9,537.1h-3.4v1.1h3.4v3.5H509v-3.5h3.5v-1.1H509v-3.5h-1.1v3.5Z" class="g0_36"/>
<path d="M517.9,541.8c1.3,0,2.2,-1.4,2.7,-2.2l-.3,-.2c-.3,.4,-1,1.8,-1.8,1.8c-.2,0,-.3,-.5,-.3,-.7c0,-.2,.1,-.6,.2,-1l1.2,-4.3h1.3l.1,-.3h-1.4l.5,-1.8H519l-.5,1.8h-1.1l-.1,.3h1.1l-1,3.9c-.1,.5,-.2,.9,-.3,1.2c0,.3,-.1,.5,-.1,.7c0,.5,.3,.8,.9,.8Z" class="g0_36"/>
<path d="M524.9,545.5c0,0,.1,0,.1,0c.1,0,.2,0,.2,0c.9,-.3,3.2,-1.5,3.2,-6.2V531c0,-3.7,2.1,-4.6,2.1,-4.6c0,0,-2.1,-1,-2.1,-4.6v-8.3c0,-4.7,-2.3,-5.9,-3.2,-6.2c0,0,-.1,0,-.2,0c0,0,-.1,0,-.1,0c0,.1,.2,.3,.3,.3c1.5,.8,2,2.6,2,5.8v8.4c0,1.1,.5,3.7,2.2,4.6c-1.7,.8,-2.2,3.4,-2.2,4.5v8.5c0,3.2,-.5,5,-2,5.8c-.1,.1,-.3,.2,-.3,.3Z" class="g0_36"/>
</svg>