<?xml version="1.0" encoding="UTF-8" standalone="no"?>
<!DOCTYPE svg PUBLIC "-//W3C//DTD SVG 1.1//EN"
"http://www.w3.org/Graphics/SVG/1.1/DTD/svg11.dtd">
<svg viewBox="0 0 811 1017" version="1.1" xmlns="http://www.w3.org/2000/svg" xmlns:xlink="http://www.w3.org/1999/xlink">
<defs>
<clipPath id="c0_355"><path d="M156.1,345.8V82.5H529.4V345.8Z"/></clipPath>
<style type="text/css"><![CDATA[
.g0_355{
fill: #000;
}
]]></style>
</defs>
<image clip-path="url(#c0_355)" preserveAspectRatio="none" x="156" y="83" width="373" height="263" xlink:href="img/1.jpg"/>
<path d="M485.4,866.6h.3V824.5h-.3Z" class="g0_355"/>
<path d="M447.4,824.5v3.3l-.3,-.1l-6.3,-3l-.3,-.2l.3,-.1l6.3,-3l.3,-.1v.3l-.1,.2l-6.3,2.9l-.2,-.3h.2l6.3,2.9l-.2,.4v-3.2Z" class="g0_355"/>
<path d="M447.1,824.5h.3v-2.9h-.3Z" class="g0_355"/>
<path d="M447.2,824.7h.2v-.3h-.2Z" class="g0_355"/>
<path d="M447.4,824.7h38.3v-.3H447.4Z" class="g0_355"/>
<path d="M470.2,911h.3V839.9h-.3Z" class="g0_355"/>
<path d="M445.9,839.9v3.2l-.3,-.1l-6.2,-3l-.4,-.1l.4,-.2l6.2,-3l.3,-.1v.3l-.1,.2l-6.3,2.9l-.1,-.3h.1l6.3,2.9l-.2,.4l-.1,-.2v-2.9Z" class="g0_355"/>
<path d="M445.5,839.9h.4v-3h-.4Z" class="g0_355"/>
<path d="M445.7,840h.2v-.3h-.2Z" class="g0_355"/>
<path d="M445.9,840h24.6v-.3H445.9Z" class="g0_355"/>
<path d="M260.9,913.7h.4V884.6h-.4Z" class="g0_355"/>
<path d="M276.4,901v-3.2l.3,.1l6.3,2.9l.3,.2l-.3,.2l-6.3,2.9l-.3,.1v-.3l.1,-.2l6.3,-2.9l.2,.4h-.2l-6.3,-3l.2,-.3V901Z" class="g0_355"/>
<path d="M276.4,903.9h.3V901h-.3Z" class="g0_355"/>
<path d="M276.4,901.2h.2v-.4h-.2Z" class="g0_355"/>
<path d="M260.9,901.2h15.5v-.4H260.9Z" class="g0_355"/>
</svg>