<?xml version="1.0" encoding="UTF-8" standalone="no"?>
<!DOCTYPE svg PUBLIC "-//W3C//DTD SVG 1.1//EN"
"http://www.w3.org/Graphics/SVG/1.1/DTD/svg11.dtd">
<svg viewBox="0 0 811 1017" version="1.1" xmlns="http://www.w3.org/2000/svg" xmlns:xlink="http://www.w3.org/1999/xlink">
<defs>
<style type="text/css"><![CDATA[
.g0_92{
fill: #0E0E0E;
}
]]></style>
</defs>
<path d="M385.3,140.6c0,-.5,-.4,-.9,-1,-.9c-.3,0,-.6,.1,-.9,.3c-.4,.2,-.7,.5,-.9,.9c0,-.7,-.4,-1.2,-1,-1.2c-1.2,0,-2.1,1.2,-2.5,1.9l.2,.2c.4,-.5,1.1,-1.8,2,-1.8c.3,0,.4,.6,.4,1c0,.3,-.1,.7,-.2,1.2l-.4,1.2c-.1,.5,-.4,1.3,-.7,1.7c-.1,.3,-.4,.7,-.8,.7c-.4,0,-.7,-.1,-.6,-.5c.1,-.3,0,-.7,-.4,-.7c-.4,0,-.6,.3,-.6,.7c0,.6,.4,1,1,1c1,0,1.8,-.8,2.2,-1.5c.1,.9,.5,1.5,1.3,1.5c1.2,0,2,-1.2,2.5,-1.9l-.2,-.1c-.5,.6,-1.2,1.6,-2,1.6c-.4,0,-.6,-.6,-.6,-1.2c0,-.3,0,-.8,.1,-1.3l.2,-.8c.1,-.5,.4,-1.2,.6,-1.6c.2,-.3,.6,-.9,1,-.9c.4,0,.4,.3,.3,.6c0,.4,.2,.6,.5,.6c.4,0,.5,-.3,.5,-.7Z" class="g0_92"/>
<path d="M388.1,143.9c-.7,0,-1.1,-.5,-1.1,-1.2c0,-.8,.4,-1.6,1.3,-1.6c1.2,0,1.3,1,1.3,1.9c0,.9,-.2,1.4,-.7,2.1c-.3,.4,-.6,.9,-1.1,1.3c-.5,.6,-1.1,1.1,-1.9,1.8v.3h4.6l.4,-2.1h-.3c-.1,.3,-.2,.4,-.3,.6c-.1,.4,-.4,.6,-1,.6h-2.1v-.1c.5,-.3,1,-.7,1.4,-1.1c.7,-.6,1.5,-1.3,1.9,-2.2c.2,-.4,.3,-.8,.3,-1.2c0,-.3,0,-.6,-.2,-.9c-.3,-.7,-1,-1.2,-2.1,-1.2c-.7,0,-1.4,.2,-1.8,.5c-.4,.4,-.7,.9,-.7,1.5c0,.5,.2,.8,.4,1.1c.2,.2,.5,.4,.9,.4c.4,0,.7,-.2,.8,-.5Z" class="g0_92"/>
<path d="M397,144.3h7.6v-.9H397Zm0,-3h7.6v-.9H397Z" class="g0_92"/>
<path d="M415.2,129.9c1.2,0,.9,1.9,.3,3.2c-.3,.9,-1.2,2.8,-2.4,2.8c-.4,0,-.7,-.3,-.7,-1c0,-.7,.3,-1.8,.6,-2.4c.2,-.6,.7,-1.6,1.1,-2c.2,-.3,.6,-.6,1.1,-.6Zm-.2,-4.7h-2l-.1,.2c.6,0,.9,.3,.9,.6c0,.2,-.1,.6,-.2,.8l-1.6,5.6c-.2,.6,-.3,1,-.4,1.4c-.1,.4,-.1,.7,-.1,.9c0,.9,.6,1.5,1.4,1.5c1.7,0,2.9,-1.5,3.5,-2.6c.3,-.6,.6,-1.4,.6,-2.3c0,-1,-.5,-1.7,-1.5,-1.7c-.9,0,-1.6,.5,-2,1.2v-.1l1.5,-5.5Z" class="g0_92"/>
<path d="M420.1,133.8c-.7,0,-1.1,-.5,-1.1,-1.2c0,-.8,.4,-1.6,1.3,-1.6c1.2,0,1.3,1,1.3,1.9c0,.9,-.2,1.4,-.7,2.1c-.2,.4,-.6,.9,-1.1,1.3c-.5,.6,-1.1,1.1,-1.8,1.8v.3h4.5l.4,-2.1h-.3c-.1,.3,-.2,.4,-.2,.6c-.2,.4,-.5,.6,-1.1,.6h-2.1v-.1c.5,-.3,1,-.7,1.4,-1.1c.8,-.6,1.5,-1.3,2,-2.2c.1,-.4,.2,-.8,.2,-1.2c0,-.3,0,-.6,-.1,-.9c-.4,-.7,-1.1,-1.2,-2.2,-1.2c-.7,0,-1.4,.2,-1.8,.5c-.3,.4,-.7,.9,-.7,1.5c0,.5,.2,.8,.4,1.1c.2,.2,.5,.4,.9,.4c.4,0,.7,-.2,.8,-.5Z" class="g0_92"/>
<path d="M428.5,132.7h7.6v-.9h-7.6Z" class="g0_92"/>
<path d="M444.9,129.6c-.4,0,-.8,.1,-1.3,.4c-.4,.3,-.9,.7,-1.2,1.2c-.7,.7,-1.3,1.9,-1.3,3.2c0,1,.4,1.8,1.3,1.8c1.3,0,1.8,-.9,2.2,-1.6c-.2,.9,-.1,1.6,.6,1.6c.3,0,.7,-.2,1.1,-.5c.4,-.3,.8,-.8,1.1,-1.4l-.2,-.1c-.3,.4,-.9,1.3,-1.3,1.3c-.2,0,-.3,-.3,-.3,-.5c0,-.9,.6,-2.5,.9,-3.5l.7,-1.8h-1l-.2,.7c-.2,-.5,-.5,-.8,-1.1,-.8Zm.2,.3c.6,0,.5,1.3,.4,1.8c-.1,.3,-.2,.7,-.3,1c-.4,1.2,-1.5,3.1,-2.3,3.1c-.6,0,-.7,-.9,-.7,-1.4c0,-.5,0,-.9,.2,-1.4c.3,-1,1.4,-3.1,2.7,-3.1Z" class="g0_92"/>
<path d="M450.5,133.8c-.7,0,-1.1,-.5,-1.1,-1.2c0,-.8,.4,-1.6,1.3,-1.6c1.3,0,1.4,1,1.4,1.9c0,.9,-.3,1.4,-.7,2.1c-.3,.4,-.7,.9,-1.2,1.3c-.5,.6,-1.1,1.1,-1.8,1.8v.3h4.5l.4,-2.1H453c-.1,.3,-.2,.4,-.2,.6c-.2,.4,-.5,.6,-1,.6h-2.1v-.1c.4,-.3,.9,-.7,1.3,-1.1c.8,-.6,1.6,-1.3,2,-2.2c.2,-.4,.3,-.8,.3,-1.2c0,-.3,-.1,-.6,-.2,-.9c-.4,-.7,-1.1,-1.2,-2.2,-1.2c-.7,0,-1.3,.2,-1.7,.5c-.4,.4,-.7,.9,-.7,1.5c0,.5,.1,.8,.3,1.1c.2,.2,.5,.4,.9,.4c.4,0,.7,-.2,.8,-.5Z" class="g0_92"/>
<path d="M455.4,131.3v.2c.3,0,.8,0,1,.1c.3,.2,.3,.3,.3,.8v4.7c0,.2,0,.4,-.1,.6c0,.5,-.6,.5,-1.1,.6v.1h3.4v-.1c-.4,-.1,-.9,-.1,-1.1,-.3c-.1,-.2,-.2,-.5,-.2,-.9v-6.3c-.5,.3,-1.5,.5,-2.2,.5Z" class="g0_92"/>
<path d="M468,130.5c0,-.5,-.4,-.9,-1,-.9c-.3,0,-.6,.1,-.9,.3c-.4,.2,-.7,.5,-.9,.9c0,-.7,-.4,-1.2,-1,-1.2c-1.2,0,-2.1,1.2,-2.5,1.9l.2,.2c.4,-.5,1.1,-1.8,2,-1.8c.3,0,.4,.6,.4,1c0,.3,-.1,.7,-.2,1.2l-.4,1.2c-.1,.5,-.4,1.3,-.7,1.7c-.1,.3,-.4,.7,-.8,.7c-.4,0,-.7,-.1,-.6,-.5c.1,-.3,0,-.7,-.4,-.7c-.4,0,-.6,.3,-.6,.7c0,.6,.5,1,1,1c1,0,1.8,-.8,2.2,-1.5v.1c.1,.8,.5,1.4,1.3,1.4c1.2,0,2,-1.2,2.5,-1.9l-.2,-.1c-.5,.6,-1.2,1.6,-2,1.6c-.4,0,-.6,-.6,-.6,-1.2c0,-.3,0,-.8,.1,-1.3l.2,-.8c.1,-.5,.4,-1.2,.6,-1.6c.2,-.3,.6,-.9,1,-.9c.4,0,.4,.3,.3,.6c0,.4,.2,.6,.5,.6c.4,0,.5,-.3,.5,-.7Z" class="g0_92"/>
<path d="M469.6,131.3v.2c.3,0,.8,0,.9,.1c.4,.2,.3,.3,.4,.8v4.7c0,.2,-.1,.4,-.1,.6c0,.5,-.6,.5,-1.2,.6v.1h3.5v-.1c-.4,-.1,-1,-.1,-1.1,-.3c-.2,-.2,-.2,-.5,-.2,-.9v-6.3c-.6,.3,-1.5,.5,-2.2,.5Z" class="g0_92"/>
<path d="M411.2,142.7H475v-.8H411.2Z" class="g0_92"/>
<path d="M437.4,149.9c-.4,0,-.9,.2,-1.3,.5c-.5,.3,-.9,.6,-1.3,1.1c-.6,.8,-1.2,2,-1.2,3.3c0,1,.4,1.7,1.3,1.7c1.3,0,1.8,-.9,2.2,-1.5c-.2,.9,-.1,1.5,.6,1.5c.3,0,.7,-.2,1.1,-.5c.4,-.3,.7,-.8,1.1,-1.3l-.2,-.2c-.3,.4,-.9,1.4,-1.3,1.4c-.3,0,-.3,-.4,-.3,-.6c0,-.9,.6,-2.4,.9,-3.4l.7,-1.9h-1l-.2,.7c-.2,-.5,-.5,-.8,-1.1,-.8Zm.1,.3c.7,0,.6,1.3,.5,1.9c-.1,.3,-.2,.6,-.3,.9c-.4,1.2,-1.5,3.2,-2.3,3.2c-.6,0,-.8,-1,-.8,-1.5c0,-.4,.1,-.9,.2,-1.3c.4,-1,1.5,-3.2,2.7,-3.2Z" class="g0_92"/>
<path d="M443,154.1c-.7,0,-1.1,-.5,-1.1,-1.2c0,-.8,.4,-1.6,1.3,-1.6c1.2,0,1.3,1,1.3,1.9c0,.9,-.2,1.5,-.7,2.1c-.2,.4,-.6,.9,-1.1,1.4c-.5,.5,-1.1,1.1,-1.8,1.7v.3h4.5l.4,-2h-.3c-.1,.2,-.2,.4,-.3,.5c-.1,.4,-.4,.6,-1,.6h-2.1v-.1c.5,-.3,1,-.7,1.4,-1c.7,-.7,1.5,-1.4,2,-2.3c.1,-.4,.2,-.8,.2,-1.2c0,-.3,0,-.6,-.2,-.8c-.3,-.8,-1,-1.3,-2.1,-1.3c-.7,0,-1.4,.2,-1.8,.6c-.3,.3,-.7,.8,-.7,1.4c0,.5,.2,.8,.4,1.1c.2,.2,.5,.4,.9,.4c.4,0,.7,-.2,.8,-.5Z" class="g0_92"/>
<path d="M449.1,154.1c-.7,0,-1.1,-.5,-1.1,-1.2c0,-.8,.4,-1.6,1.3,-1.6c1.2,0,1.3,1,1.3,1.9c0,.9,-.2,1.5,-.7,2.1c-.2,.4,-.6,.9,-1.1,1.4c-.5,.5,-1.1,1.1,-1.9,1.7v.3h4.6l.4,-2h-.3c-.1,.2,-.2,.4,-.3,.5c-.1,.4,-.4,.6,-1,.6h-2.1v-.1c.5,-.3,1,-.7,1.4,-1c.7,-.7,1.5,-1.4,2,-2.3c.1,-.4,.2,-.8,.2,-1.2c0,-.3,0,-.6,-.2,-.8c-.3,-.8,-1,-1.3,-2.1,-1.3c-.7,0,-1.4,.2,-1.8,.6c-.3,.3,-.7,.8,-.7,1.4c0,.5,.2,.8,.4,1.1c.2,.2,.5,.4,.9,.4c.4,0,.7,-.2,.8,-.5Z" class="g0_92"/>
<path d="M360,251.4c0,-.6,-.5,-1,-1,-1c-.3,0,-.7,.2,-1,.4c-.3,.2,-.6,.5,-.8,.9c0,-.7,-.4,-1.3,-1.1,-1.3c-1.1,0,-2.1,1.2,-2.4,2l.2,.1c.3,-.5,1.1,-1.7,2,-1.7c.2,0,.3,.5,.3,1c0,.3,0,.6,-.2,1.1l-.3,1.2c-.2,.6,-.4,1.4,-.7,1.8c-.2,.2,-.4,.7,-.8,.7c-.4,0,-.7,-.1,-.6,-.5c0,-.3,0,-.8,-.4,-.8c-.5,0,-.7,.3,-.7,.8c0,.5,.5,.9,1.1,.9c1,0,1.7,-.8,2.1,-1.4c.1,.8,.5,1.4,1.4,1.4c1.2,0,2,-1.1,2.4,-1.8l-.2,-.2c-.5,.7,-1.1,1.7,-1.9,1.7c-.5,0,-.7,-.6,-.7,-1.3c0,-.3,.1,-.7,.2,-1.3l.2,-.7c.1,-.6,.3,-1.3,.6,-1.6c.2,-.3,.6,-1,.9,-1c.5,0,.4,.3,.4,.6c0,.4,.1,.6,.5,.6c.3,0,.5,-.3,.5,-.6Z" class="g0_92"/>
<path d="M362.9,259.2c-.7,0,-1.2,-.7,-1.2,-1.4c0,-.6,.3,-1,.8,-1c-.1,-.3,-.4,-.4,-.8,-.4c-.1,0,-.3,0,-.4,.1c-.4,.1,-.7,.6,-.7,1.1c0,.3,.1,.5,.2,.7c.4,.7,1.1,1.1,2.2,1.1c.8,0,1.4,-.3,1.8,-.7c.4,-.3,.7,-.8,.7,-1.5c0,-.2,0,-.4,-.1,-.7c-.2,-.6,-.8,-1.1,-1.5,-1.3c.4,-.1,.7,-.4,1,-.7c.2,-.3,.4,-.7,.4,-1.1c0,-.3,0,-.5,-.1,-.7c-.4,-.7,-1.2,-1.1,-2.2,-1.1c-.6,0,-1.2,.2,-1.5,.4c-.3,.2,-.6,.5,-.6,1c0,.3,.1,.6,.3,.7c.1,.2,.4,.3,.7,.3c.2,0,.3,0,.4,-.1c.2,0,.2,-.1,.3,-.2c-.4,0,-.7,-.4,-.7,-.8c0,-.6,.5,-1.1,1.1,-1.1c.8,0,1.2,.7,1.2,1.6c0,.9,-.3,1.8,-1.1,1.8c-.2,-.1,-.4,-.2,-.6,-.2c-.2,0,-.5,.1,-.5,.3c0,.2,.3,.3,.5,.3c.3,0,.5,-.1,.7,-.2c.9,0,1.1,.8,1.1,1.8c0,1,-.4,2,-1.4,2Z" class="g0_92"/>
<path d="M371.7,255h7.6v-.8h-7.6Zm0,-3h7.6v-.8h-7.6Z" class="g0_92"/>
<path d="M389.8,240.7c1.2,0,.9,1.9,.4,3.2c-.3,.8,-1.3,2.7,-2.4,2.7c-.5,0,-.7,-.3,-.7,-1c0,-.7,.3,-1.8,.5,-2.3c.3,-.6,.7,-1.6,1.1,-2c.3,-.4,.7,-.6,1.1,-.6Zm-2.2,6.2c1.7,0,2.9,-1.5,3.5,-2.6c.3,-.6,.6,-1.4,.6,-2.3c0,-1,-.5,-1.7,-1.5,-1.7c-1,0,-1.7,.6,-2,1.2h-.1l1.6,-5.6l-2.1,.1v.2c.6,0,.8,.3,.8,.6c0,.2,-.1,.5,-.1,.7l-1.6,5.7c-.2,.5,-.3,1,-.4,1.3c-.1,.4,-.2,.7,-.2,.9c0,.9,.6,1.5,1.5,1.5Z" class="g0_92"/>
<path d="M395,249.1c-.8,0,-1.3,-.7,-1.3,-1.4c0,-.6,.3,-1,.8,-1c-.1,-.3,-.4,-.4,-.7,-.4c-.2,0,-.3,0,-.5,.1c-.4,.1,-.7,.6,-.7,1.1c0,.3,.1,.5,.2,.7c.4,.7,1.2,1.1,2.2,1.1c.8,0,1.4,-.3,1.8,-.7c.4,-.3,.8,-.8,.8,-1.5c0,-.2,-.1,-.4,-.2,-.7c-.2,-.6,-.8,-1.1,-1.5,-1.3c.4,-.1,.8,-.4,1,-.7c.2,-.3,.4,-.7,.4,-1.1c0,-.3,0,-.5,-.1,-.7c-.4,-.7,-1.2,-1.1,-2.2,-1.1c-.6,0,-1.1,.2,-1.5,.4c-.3,.2,-.6,.5,-.6,1c0,.3,.1,.6,.3,.7c.1,.2,.4,.3,.7,.3c.2,0,.3,0,.5,-.1c.1,0,.2,-.1,.2,-.2c-.4,0,-.7,-.4,-.7,-.8c0,-.6,.5,-1.1,1.1,-1.1c.8,0,1.2,.7,1.2,1.6c0,.9,-.3,1.8,-1.1,1.8c-.2,-.1,-.4,-.2,-.6,-.2c-.2,0,-.5,.1,-.5,.3c0,.2,.3,.3,.5,.3c.3,0,.5,-.1,.7,-.2c.9,0,1.1,.8,1.1,1.8c0,1,-.4,2,-1.3,2Z" class="g0_92"/>
<path d="M403.2,243.4h7.6v-.8h-7.6Z" class="g0_92"/>
<path d="M419.6,240.3c-.5,0,-.9,.2,-1.3,.5c-.5,.3,-.9,.7,-1.3,1.1c-.6,.8,-1.2,2,-1.2,3.3c0,1,.4,1.7,1.3,1.7c1.3,0,1.8,-.9,2.2,-1.5c-.2,.9,-.1,1.5,.5,1.5c.4,0,.8,-.1,1.2,-.5c.4,-.3,.7,-.8,1.1,-1.3l-.2,-.2c-.3,.4,-.9,1.4,-1.4,1.4c-.2,0,-.2,-.4,-.2,-.6c0,-.9,.6,-2.4,.9,-3.4l.7,-1.9h-1l-.3,.7c-.1,-.5,-.4,-.8,-1,-.8Zm.1,.3c.7,0,.6,1.3,.5,1.9c-.1,.3,-.2,.6,-.3,1c-.4,1.1,-1.5,3.1,-2.3,3.1c-.6,0,-.8,-1,-.8,-1.5c0,-.4,0,-.8,.2,-1.3c.4,-1,1.4,-3.2,2.7,-3.2Z" class="g0_92"/>
<path d="M425.4,249.1c-.8,0,-1.3,-.7,-1.3,-1.4c0,-.6,.3,-1,.8,-1c0,-.3,-.4,-.4,-.7,-.4c-.2,0,-.3,0,-.5,.1c-.4,.1,-.6,.6,-.6,1.1c0,.3,0,.5,.1,.7c.4,.7,1.2,1.1,2.2,1.1c.8,0,1.4,-.3,1.8,-.7c.5,-.3,.8,-.8,.8,-1.5c0,-.2,-.1,-.4,-.1,-.7c-.3,-.6,-.9,-1.1,-1.6,-1.3c.4,-.1,.8,-.4,1,-.7c.3,-.3,.5,-.7,.5,-1.1c0,-.3,-.1,-.5,-.2,-.7c-.3,-.7,-1.2,-1.1,-2.2,-1.1c-.6,0,-1.1,.2,-1.5,.4c-.3,.2,-.6,.5,-.6,1c0,.3,.2,.6,.3,.7c.2,.2,.4,.3,.7,.3c.2,0,.3,0,.5,-.1c.1,0,.2,-.1,.2,-.2c-.4,0,-.7,-.4,-.7,-.8c0,-.6,.5,-1.1,1.1,-1.1c.8,0,1.2,.7,1.2,1.6c0,.9,-.3,1.8,-1.1,1.8c-.1,-.1,-.4,-.2,-.6,-.2c-.2,0,-.5,.1,-.5,.3c0,.2,.3,.3,.5,.3c.3,0,.5,-.1,.7,-.2c.9,0,1.1,.8,1.1,1.8c0,1,-.3,2,-1.3,2Z" class="g0_92"/>
<path d="M430.1,242.1v.1c.3,0,.8,.1,.9,.2c.3,.1,.3,.3,.3,.7v4.8c0,.2,0,.4,0,.5c-.1,.5,-.6,.6,-1.2,.6v.2h3.4V249c-.3,0,-.9,0,-1,-.2c-.2,-.2,-.2,-.6,-.2,-1v-6.3c-.6,.3,-1.5,.6,-2.2,.6Z" class="g0_92"/>
<path d="M442.7,241.3c0,-.6,-.5,-1,-1,-1c-.3,0,-.7,.2,-1,.4c-.3,.2,-.6,.5,-.8,.9c0,-.7,-.4,-1.3,-1.1,-1.3c-1.1,0,-2.1,1.2,-2.4,2l.2,.1c.3,-.5,1.1,-1.7,2,-1.7c.2,0,.4,.5,.4,1c0,.3,-.1,.6,-.3,1.1l-.3,1.2c-.2,.6,-.4,1.4,-.7,1.8c-.2,.2,-.4,.7,-.8,.7c-.4,0,-.7,-.1,-.6,-.5c.1,-.3,0,-.8,-.4,-.8c-.5,0,-.7,.3,-.7,.8c0,.5,.5,.9,1.1,.9c1,0,1.7,-.8,2.1,-1.4c.1,.8,.6,1.4,1.4,1.4c1.2,0,2,-1.1,2.4,-1.8l-.2,-.2c-.4,.7,-1.1,1.7,-1.9,1.7c-.5,0,-.7,-.6,-.7,-1.3c0,-.3,.1,-.7,.2,-1.3l.2,-.7c.1,-.6,.3,-1.3,.6,-1.6c.2,-.3,.6,-1,.9,-1c.5,0,.4,.3,.4,.6c0,.4,.1,.6,.5,.6c.3,0,.5,-.3,.5,-.6Z" class="g0_92"/>
<path d="M444.2,242.1v.1c.4,0,.8,.1,1,.2c.3,.1,.3,.3,.3,.7v4.8c0,.2,0,.4,0,.5c-.1,.5,-.7,.6,-1.2,.6v.2h3.4V249c-.4,0,-.9,0,-1.1,-.2c-.1,-.2,-.1,-.6,-.1,-1v-6.3c-.6,.3,-1.6,.6,-2.3,.6Z" class="g0_92"/>
<path d="M453.9,243.4h7.6v-.8h-7.6Z" class="g0_92"/>
<path d="M470.3,240.3c-.5,0,-.9,.2,-1.3,.5c-.5,.3,-.9,.7,-1.3,1.1c-.6,.8,-1.2,2,-1.2,3.3c0,1,.3,1.7,1.3,1.7c1.3,0,1.8,-.9,2.1,-1.5h.1c-.2,.9,-.1,1.5,.5,1.5c.4,0,.8,-.1,1.2,-.5c.3,-.3,.7,-.8,1,-1.3l-.1,-.2c-.3,.4,-1,1.4,-1.4,1.4c-.2,0,-.3,-.4,-.3,-.6c0,-.9,.7,-2.4,1,-3.4l.7,-1.9h-1l-.3,.7c-.1,-.5,-.4,-.8,-1,-.8Zm.1,.3c.7,0,.5,1.3,.4,1.9c0,.3,-.2,.6,-.3,1c-.3,1.1,-1.4,3.1,-2.2,3.1c-.6,0,-.8,-1,-.8,-1.5c0,-.4,0,-.8,.2,-1.3c.4,-1,1.4,-3.2,2.7,-3.2Z" class="g0_92"/>
<path d="M476.1,249.1c-.8,0,-1.3,-.7,-1.3,-1.4c0,-.6,.3,-1,.8,-1c-.1,-.3,-.4,-.4,-.7,-.4c-.2,0,-.3,0,-.5,.1c-.4,.1,-.7,.6,-.7,1.1c0,.3,.1,.5,.2,.7c.4,.7,1.2,1.1,2.2,1.1c.8,0,1.4,-.3,1.8,-.7c.4,-.3,.8,-.8,.8,-1.5c0,-.2,-.1,-.4,-.2,-.7c-.2,-.6,-.8,-1.1,-1.5,-1.3c.4,-.1,.8,-.4,1,-.7c.2,-.3,.4,-.7,.4,-1.1c0,-.3,0,-.5,-.1,-.7c-.4,-.7,-1.2,-1.1,-2.2,-1.1c-.6,0,-1.1,.2,-1.5,.4c-.3,.2,-.6,.5,-.6,1c0,.3,.1,.6,.3,.7c.2,.2,.4,.3,.7,.3c.2,0,.3,0,.5,-.1c.1,0,.2,-.1,.2,-.2c-.4,0,-.7,-.4,-.7,-.8c0,-.6,.5,-1.1,1.1,-1.1c.8,0,1.2,.7,1.2,1.6c0,.9,-.3,1.8,-1.1,1.8c-.2,-.1,-.4,-.2,-.6,-.2c-.2,0,-.5,.1,-.5,.3c0,.2,.3,.3,.5,.3c.3,0,.5,-.1,.7,-.2c.9,0,1.1,.8,1.1,1.8c0,1,-.4,2,-1.3,2Z" class="g0_92"/>
<path d="M481.9,244.5c-.6,0,-1,-.5,-1,-1.2c0,-.7,.4,-1.6,1.3,-1.6c1.2,0,1.3,1,1.3,1.9c0,.9,-.3,1.5,-.7,2.1c-.3,.4,-.7,.9,-1.1,1.4c-.5,.5,-1.1,1.1,-1.9,1.7v.4h4.6l.3,-2.1h-.3c0,.2,-.1,.4,-.2,.5c-.1,.4,-.5,.6,-1,.6h-2.1c.5,-.4,.9,-.8,1.4,-1.1c.7,-.7,1.5,-1.4,1.9,-2.3c.2,-.4,.3,-.8,.3,-1.2c0,-.3,-.1,-.6,-.2,-.8c-.3,-.8,-1.1,-1.3,-2.2,-1.3c-.7,0,-1.3,.3,-1.7,.6c-.4,.3,-.7,.8,-.7,1.5c0,.4,.2,.8,.4,1c.2,.2,.5,.4,.9,.4c.4,0,.7,-.2,.7,-.5Z" class="g0_92"/>
<path d="M493.4,241.3c0,-.6,-.5,-1,-1,-1c-.4,0,-.7,.2,-1,.4c-.3,.2,-.6,.5,-.8,.9c0,-.7,-.5,-1.3,-1.1,-1.3c-1.1,0,-2.1,1.2,-2.4,2l.2,.1c.3,-.5,1.1,-1.7,1.9,-1.7c.3,0,.4,.5,.4,1c0,.3,0,.6,-.2,1.1l-.3,1.2c-.2,.6,-.4,1.4,-.7,1.8c-.2,.2,-.5,.7,-.8,.7c-.4,0,-.8,-.1,-.7,-.5c.1,-.3,.1,-.8,-.4,-.8c-.4,0,-.6,.3,-.6,.8c0,.5,.5,.9,1.1,.9c1,0,1.7,-.8,2.1,-1.4c.1,.8,.5,1.4,1.4,1.4c1.1,0,2,-1.1,2.4,-1.8l-.2,-.2c-.5,.7,-1.1,1.7,-2,1.7c-.4,0,-.6,-.6,-.6,-1.3c0,-.3,.1,-.7,.2,-1.3l.2,-.7c.1,-.6,.3,-1.3,.6,-1.6c.2,-.3,.6,-1,.9,-1c.4,0,.4,.3,.4,.6c0,.4,.1,.6,.4,.6c.4,0,.6,-.3,.6,-.6Z" class="g0_92"/>
<path d="M496.1,244.5c-.7,0,-1.1,-.5,-1.1,-1.2c0,-.7,.5,-1.6,1.4,-1.6c1.2,0,1.3,1,1.3,1.9c0,.9,-.3,1.5,-.7,2.1c-.3,.4,-.7,.9,-1.2,1.4c-.5,.5,-1.1,1.1,-1.8,1.7v.4h4.5l.4,-2.1h-.3c-.1,.2,-.2,.4,-.2,.5c-.2,.4,-.5,.6,-1,.6h-2.1c.4,-.4,.9,-.8,1.3,-1.1c.8,-.7,1.6,-1.4,2,-2.3c.2,-.4,.3,-.8,.3,-1.2c0,-.3,-.1,-.6,-.2,-.8c-.4,-.8,-1.1,-1.3,-2.2,-1.3c-.7,0,-1.3,.3,-1.7,.6c-.4,.3,-.7,.8,-.7,1.5c0,.4,.1,.8,.3,1c.2,.2,.5,.4,.9,.4c.4,0,.7,-.2,.8,-.5Z" class="g0_92"/>
<path d="M385.8,253.5H500.3v-.9H385.8Z" class="g0_92"/>
<path d="M437.4,260.7c-.4,0,-.9,.1,-1.3,.4c-.5,.3,-.9,.7,-1.3,1.2c-.6,.7,-1.2,1.9,-1.2,3.2c0,1,.4,1.8,1.3,1.8c1.3,0,1.8,-.9,2.2,-1.6c-.2,.9,-.1,1.6,.6,1.6c.3,0,.7,-.2,1.1,-.5c.4,-.4,.7,-.8,1.1,-1.4l-.2,-.1c-.3,.4,-.9,1.3,-1.3,1.3c-.3,0,-.3,-.3,-.3,-.6c0,-.9,.6,-2.4,.9,-3.4l.7,-1.8h-1l-.2,.6c-.2,-.4,-.5,-.7,-1.1,-.7Zm.1,.2c.7,0,.6,1.3,.5,1.9c-.1,.3,-.2,.6,-.3,1c-.4,1.2,-1.5,3.1,-2.3,3.1c-.6,0,-.8,-.9,-.8,-1.4c0,-.5,.1,-.9,.2,-1.4c.4,-1,1.5,-3.2,2.7,-3.2Z" class="g0_92"/>
<path d="M443.2,269.4c-.7,0,-1.3,-.7,-1.3,-1.4c0,-.5,.3,-1,.8,-1c0,-.2,-.4,-.4,-.7,-.4c-.2,0,-.3,.1,-.5,.1c-.4,.2,-.6,.6,-.6,1.2c0,.2,0,.4,.1,.6c.4,.7,1.2,1.1,2.2,1.1c.8,0,1.4,-.3,1.9,-.6c.4,-.4,.7,-.8,.7,-1.5c0,-.3,0,-.5,-.1,-.7c-.3,-.7,-.9,-1.1,-1.6,-1.3v-.1c.4,-.1,.8,-.3,1,-.6c.3,-.3,.5,-.7,.5,-1.2c0,-.3,-.1,-.5,-.2,-.7c-.3,-.7,-1.1,-1,-2.2,-1c-.6,0,-1.1,.1,-1.5,.3c-.3,.2,-.6,.6,-.6,1c0,.3,.2,.6,.3,.8c.2,.1,.4,.3,.7,.3c.2,0,.4,-.1,.5,-.1c.1,-.1,.2,-.2,.2,-.3c-.4,0,-.7,-.3,-.7,-.7c0,-.6,.5,-1.1,1.1,-1.1c.8,0,1.2,.6,1.2,1.5c0,.9,-.3,1.8,-1.1,1.8c-.1,0,-.4,-.1,-.6,-.1c-.2,0,-.5,0,-.5,.2c0,.3,.3,.4,.6,.4c.2,0,.5,-.2,.6,-.3c.9,0,1.2,.8,1.2,1.8c0,1,-.4,2,-1.4,2Z" class="g0_92"/>
<path d="M449.3,269.4c-.7,0,-1.3,-.7,-1.3,-1.4c0,-.5,.3,-1,.8,-1c0,-.2,-.4,-.4,-.7,-.4c-.2,0,-.3,.1,-.5,.1c-.4,.2,-.6,.6,-.6,1.2c0,.2,0,.4,.1,.6c.4,.7,1.2,1.1,2.2,1.1c.8,0,1.4,-.3,1.9,-.6c.4,-.4,.7,-.8,.7,-1.5c0,-.3,0,-.5,-.1,-.7c-.3,-.7,-.9,-1.1,-1.6,-1.3v-.1c.4,-.1,.8,-.3,1,-.6c.3,-.3,.5,-.7,.5,-1.2c0,-.3,-.1,-.5,-.2,-.7c-.3,-.7,-1.1,-1,-2.2,-1c-.6,0,-1.1,.1,-1.5,.3c-.3,.2,-.6,.6,-.6,1c0,.3,.2,.6,.3,.8c.2,.1,.4,.3,.7,.3c.2,0,.4,-.1,.5,-.1c.1,-.1,.2,-.2,.2,-.3c-.4,0,-.7,-.3,-.7,-.7c0,-.6,.5,-1.1,1.1,-1.1c.8,0,1.2,.6,1.2,1.5c0,.9,-.3,1.8,-1.1,1.8c-.1,0,-.4,-.1,-.6,-.1c-.2,0,-.5,0,-.5,.2c0,.3,.3,.4,.6,.4c.2,0,.5,-.2,.6,-.3c.9,0,1.2,.8,1.2,1.8c0,1,-.4,2,-1.4,2Z" class="g0_92"/>
</svg>