<?xml version="1.0" encoding="UTF-8" standalone="no"?>
<!DOCTYPE svg PUBLIC "-//W3C//DTD SVG 1.1//EN"
"http://www.w3.org/Graphics/SVG/1.1/DTD/svg11.dtd">
<svg viewBox="0 0 811 1017" version="1.1" xmlns="http://www.w3.org/2000/svg" xmlns:xlink="http://www.w3.org/1999/xlink">
<defs>
<style type="text/css"><![CDATA[
.g0_217{
fill: #FFF;
}
.g1_217{
fill: #1A78B6;
}
.g2_217{
fill: none;
stroke: #1A78B6;
stroke-width: 0.99;
stroke-linejoin: round;
}
.g3_217{
fill: none;
stroke: #B0B2B1;
stroke-width: 0.791;
stroke-linecap: square;
stroke-linejoin: round;
}
.g4_217{
fill: none;
stroke: #040504;
stroke-width: 0.791;
stroke-linejoin: round;
}
.g5_217{
fill: #040504;
}
.g6_217{
fill: none;
stroke: #1A78B6;
stroke-width: 1.484;
stroke-linecap: square;
stroke-linejoin: round;
}
.g7_217{
fill: none;
stroke: #040504;
stroke-width: 0.791;
stroke-linecap: square;
}
.g8_217{
fill: none;
stroke: #1A78B6;
stroke-width: 0.982;
stroke-linejoin: round;
}
.g9_217{
fill: none;
stroke: #B0B2B1;
stroke-width: 0.785;
stroke-linecap: square;
stroke-linejoin: round;
}
.ga_217{
fill: none;
stroke: #040504;
stroke-width: 0.785;
stroke-linejoin: round;
}
.gb_217{
fill: none;
stroke: #1A78B6;
stroke-width: 1.472;
stroke-linecap: square;
stroke-linejoin: round;
}
.gc_217{
fill: none;
stroke: #040504;
stroke-width: 0.785;
stroke-linecap: square;
}
]]></style>
</defs>
<path d="M188.3,362.1H541.8V98.7H188.3Z" class="g0_217"/>
<path d="M236.6,291.9c.8,0,1.5,-.3,2.1,-.9c.6,-.6,.9,-1.3,.9,-2.1c0,-.8,-.3,-1.5,-.9,-2.1c-.6,-.6,-1.3,-.9,-2.1,-.9c-.8,0,-1.5,.3,-2.1,.9c-.6,.6,-.9,1.3,-.9,2.1c0,.8,.3,1.5,.9,2.1c.6,.6,1.3,.9,2.1,.9Z" class="g1_217"/>
<path d="M236.6,291.9c.8,0,1.5,-.3,2.1,-.9c.6,-.6,.9,-1.3,.9,-2.1c0,-.8,-.3,-1.5,-.9,-2.1c-.6,-.6,-1.3,-.9,-2.1,-.9c-.8,0,-1.5,.3,-2.1,.9c-.6,.6,-.9,1.3,-.9,2.1c0,.8,.3,1.5,.9,2.1c.6,.6,1.3,.9,2.1,.9Z" class="g2_217"/>
<path d="M301,347.4c.8,0,1.5,-.3,2.1,-.9c.5,-.5,.9,-1.3,.9,-2.1c0,-.8,-.4,-1.5,-.9,-2.1c-.6,-.5,-1.3,-.9,-2.1,-.9c-.8,0,-1.6,.4,-2.1,.9c-.6,.6,-.9,1.3,-.9,2.1c0,.8,.3,1.6,.9,2.1c.5,.6,1.3,.9,2.1,.9Z" class="g1_217"/>
<path d="M301,347.4c.8,0,1.5,-.3,2.1,-.9c.5,-.5,.9,-1.3,.9,-2.1c0,-.8,-.4,-1.5,-.9,-2.1c-.6,-.5,-1.3,-.9,-2.1,-.9c-.8,0,-1.6,.4,-2.1,.9c-.6,.6,-.9,1.3,-.9,2.1c0,.8,.3,1.6,.9,2.1c.5,.6,1.3,.9,2.1,.9Z" class="g2_217"/>
<path d="M365.4,319.6c.8,0,1.5,-.3,2.1,-.8c.5,-.6,.8,-1.4,.8,-2.1c0,-.8,-.3,-1.6,-.8,-2.1c-.6,-.6,-1.3,-.9,-2.1,-.9c-.8,0,-1.6,.3,-2.1,.9c-.6,.5,-.9,1.3,-.9,2.1c0,.7,.3,1.5,.9,2.1c.5,.5,1.3,.8,2.1,.8Z" class="g1_217"/>
<path d="M365.4,319.6c.8,0,1.5,-.3,2.1,-.8c.5,-.6,.8,-1.4,.8,-2.1c0,-.8,-.3,-1.6,-.8,-2.1c-.6,-.6,-1.3,-.9,-2.1,-.9c-.8,0,-1.6,.3,-2.1,.9c-.6,.5,-.9,1.3,-.9,2.1c0,.7,.3,1.5,.9,2.1c.5,.5,1.3,.8,2.1,.8Z" class="g2_217"/>
<path d="M429.8,347.4c.8,0,1.5,-.3,2.1,-.9c.5,-.5,.8,-1.3,.8,-2.1c0,-.8,-.3,-1.5,-.8,-2.1c-.6,-.5,-1.3,-.9,-2.1,-.9c-.8,0,-1.6,.4,-2.1,.9c-.6,.6,-.9,1.3,-.9,2.1c0,.8,.3,1.6,.9,2.1c.5,.6,1.3,.9,2.1,.9Z" class="g1_217"/>
<path d="M429.8,347.4c.8,0,1.5,-.3,2.1,-.9c.5,-.5,.8,-1.3,.8,-2.1c0,-.8,-.3,-1.5,-.8,-2.1c-.6,-.5,-1.3,-.9,-2.1,-.9c-.8,0,-1.6,.4,-2.1,.9c-.6,.6,-.9,1.3,-.9,2.1c0,.8,.3,1.6,.9,2.1c.5,.6,1.3,.9,2.1,.9Z" class="g2_217"/>
<path d="M494.2,291.9c.8,0,1.5,-.3,2.1,-.9c.5,-.6,.8,-1.3,.8,-2.1c0,-.8,-.3,-1.5,-.8,-2.1c-.6,-.6,-1.3,-.9,-2.1,-.9c-.8,0,-1.6,.3,-2.1,.9c-.6,.6,-.9,1.3,-.9,2.1c0,.8,.3,1.5,.9,2.1c.5,.6,1.3,.9,2.1,.9Z" class="g1_217"/>
<path d="M494.2,291.9c.8,0,1.5,-.3,2.1,-.9c.5,-.6,.8,-1.3,.8,-2.1c0,-.8,-.3,-1.5,-.8,-2.1c-.6,-.6,-1.3,-.9,-2.1,-.9c-.8,0,-1.6,.3,-2.1,.9c-.6,.6,-.9,1.3,-.9,2.1c0,.8,.3,1.5,.9,2.1c.5,.6,1.3,.9,2.1,.9Z" class="g2_217"/>
<path d="M236.6,362.1V98.7" class="g3_217"/>
<path d="M236.6,362.1v3.4" class="g4_217"/>
<path d="M234.7,375.7h1.6v-5.5l-1.8,.3v-.9l1.8,-.3h.9v6.4h1.6v.8h-4.1v-.8Z" class="g5_217"/>
<path d="M301,362.1V98.7" class="g3_217"/>
<path d="M301,362.1v3.4" class="g4_217"/>
<path d="M299.7,375.7h3.4v.8h-4.5v-.8c.3,-.4,.8,-.9,1.5,-1.6c.6,-.6,1,-1,1.2,-1.2c.3,-.4,.5,-.7,.6,-.9c.2,-.2,.2,-.5,.2,-.7c0,-.4,-.1,-.7,-.4,-1c-.2,-.2,-.6,-.3,-1,-.3c-.3,0,-.7,0,-1,.1c-.3,.1,-.7,.3,-1.1,.5v-1c.4,-.1,.8,-.2,1.1,-.3c.4,-.1,.7,-.1,.9,-.1c.8,0,1.4,.1,1.8,.5c.5,.4,.7,.9,.7,1.5c0,.3,-.1,.6,-.2,.9c-.1,.2,-.3,.5,-.6,.9c-.1,.1,-.3,.4,-.7,.8c-.5,.5,-1.1,1.1,-1.9,1.9Z" class="g5_217"/>
<path d="M365.4,362.1V98.7" class="g3_217"/>
<path d="M365.4,362.1v3.4" class="g4_217"/>
<path d="M366.2,372.6c.5,.1,.9,.3,1.1,.6c.3,.4,.4,.7,.4,1.2c0,.7,-.2,1.3,-.7,1.7c-.5,.4,-1.2,.5,-2.1,.5c-.3,0,-.6,0,-.9,0c-.3,-.1,-.7,-.2,-1,-.3v-1c.3,.2,.6,.3,.9,.4c.3,.1,.6,.1,1,.1c.6,0,1.1,-.1,1.4,-.3c.3,-.3,.5,-.6,.5,-1.1c0,-.4,-.2,-.7,-.5,-1c-.3,-.2,-.7,-.3,-1.2,-.3h-.9v-.9h.9c.5,0,.9,0,1.1,-.2c.3,-.2,.4,-.5,.4,-.9c0,-.3,-.1,-.6,-.4,-.8c-.3,-.2,-.6,-.3,-1.1,-.3c-.3,0,-.6,0,-.9,.1c-.3,0,-.6,.1,-1,.2v-.8c.4,-.1,.7,-.2,1,-.3c.4,0,.7,0,1,0c.7,0,1.3,.1,1.7,.5c.4,.3,.7,.8,.7,1.3c0,.4,-.1,.8,-.4,1c-.2,.3,-.5,.5,-1,.6Z" class="g5_217"/>
<path d="M429.8,362.1V98.7" class="g3_217"/>
<path d="M429.8,362.1v3.4" class="g4_217"/>
<path d="M430.1,369.3h1.2V374h1.1v.8h-1.1v1.7h-.9v-1.7h-3.3v-.9l3,-4.6Zm.3,.8l-2.5,3.9h2.5v-3.9Z" class="g5_217"/>
<path d="M494.2,362.1V98.7" class="g3_217"/>
<path d="M494.2,362.1v3.4" class="g4_217"/>
<path d="M492.1,369.3h3.8v.8H493v1.8c.1,-.1,.3,-.1,.4,-.1c.1,-.1,.3,-.1,.4,-.1c.8,0,1.5,.3,1.9,.7c.5,.4,.7,1,.7,1.8c0,.8,-.2,1.4,-.7,1.8c-.5,.4,-1.1,.6,-2,.6c-.3,0,-.6,0,-.9,0c-.4,-.1,-.7,-.2,-1,-.3v-.9c.3,.1,.6,.2,.9,.3c.3,.1,.6,.1,1,.1c.5,0,1,-.1,1.3,-.4c.3,-.3,.5,-.7,.5,-1.2c0,-.5,-.2,-.9,-.5,-1.2c-.3,-.3,-.8,-.4,-1.3,-.4c-.3,0,-.6,0,-.8,0c-.3,.1,-.5,.2,-.8,.3v-3.6Z" class="g5_217"/>
<path d="M367.6,384.6l-2,2.7l2.1,2.7h-1.1L365,387.9l-1.5,2.1h-1.1l2.1,-2.8l-1.9,-2.6h1l1.5,2l1.4,-2h1.1Z" class="g5_217"/>
<path d="M188.3,344.4H541.8" class="g3_217"/>
<path d="M188.3,344.4h-3.4" class="g4_217"/>
<path d="M177,347.4h3.4v.8h-4.6v-.8c.4,-.4,.9,-.9,1.5,-1.6c.7,-.6,1.1,-1,1.2,-1.2c.4,-.4,.6,-.7,.7,-.9c.1,-.3,.2,-.5,.2,-.7c0,-.4,-.1,-.7,-.4,-1c-.3,-.2,-.6,-.3,-1.1,-.3c-.3,0,-.6,0,-.9,.1c-.4,.1,-.7,.3,-1.1,.5v-1c.4,-.1,.7,-.3,1.1,-.3c.3,-.1,.6,-.2,.9,-.2c.8,0,1.4,.2,1.8,.6c.4,.4,.7,.9,.7,1.5c0,.3,-.1,.6,-.2,.8c-.1,.3,-.3,.6,-.6,1c-.1,.1,-.3,.3,-.8,.8c-.4,.4,-1,1.1,-1.8,1.9Z" class="g5_217"/>
<path d="M188.3,288.9H541.8" class="g3_217"/>
<path d="M188.3,288.9h-3.4" class="g4_217"/>
<path d="M178.6,285.4h1.2v4.8h1v.8h-1v1.7h-1V291h-3.2v-1l3,-4.6Zm.2,.9l-2.4,3.9h2.4v-3.9Z" class="g5_217"/>
<path d="M188.3,233.4H541.8" class="g3_217"/>
<path d="M188.3,233.4h-3.4" class="g4_217"/>
<path d="M180.3,230.1v.9c-.2,-.1,-.5,-.2,-.7,-.3c-.3,0,-.5,-.1,-.8,-.1c-.6,0,-1.1,.2,-1.5,.7c-.3,.4,-.5,1.1,-.5,1.9c.2,-.2,.4,-.4,.7,-.6c.3,-.1,.6,-.2,.9,-.2c.8,0,1.3,.2,1.7,.6c.5,.5,.7,1.1,.7,1.8c0,.8,-.2,1.4,-.7,1.8c-.4,.5,-1,.7,-1.7,.7c-.9,0,-1.5,-.3,-1.9,-1c-.5,-.6,-.7,-1.5,-.7,-2.8c0,-1.1,.3,-2,.8,-2.7c.5,-.7,1.3,-1,2.2,-1c.2,0,.5,0,.7,.1c.3,0,.5,.1,.8,.2Zm-1.9,3.1c-.5,0,-.8,.1,-1.1,.4c-.2,.3,-.4,.7,-.4,1.2c0,.6,.2,1,.4,1.3c.3,.3,.6,.4,1.1,.4c.4,0,.8,-.1,1,-.4c.3,-.3,.4,-.7,.4,-1.3c0,-.5,-.1,-.9,-.4,-1.2c-.2,-.3,-.6,-.4,-1,-.4Z" class="g5_217"/>
<path d="M188.3,177.9H541.8" class="g3_217"/>
<path d="M188.3,177.9h-3.4" class="g4_217"/>
<path d="M176.9,176.3c0,.3,.1,.6,.4,.8c.2,.2,.5,.3,1,.3c.4,0,.7,-.1,.9,-.3c.3,-.2,.4,-.5,.4,-.8c0,-.4,-.1,-.7,-.4,-.9c-.2,-.2,-.5,-.3,-.9,-.3c-.5,0,-.8,.1,-1,.3c-.3,.2,-.4,.5,-.4,.9Zm.4,1.5c-.4,-.1,-.8,-.3,-1,-.6c-.2,-.3,-.4,-.6,-.4,-1c0,-.6,.3,-1.1,.7,-1.4c.4,-.3,.9,-.5,1.7,-.5c.7,0,1.2,.2,1.6,.5c.5,.3,.7,.8,.7,1.4c0,.4,-.2,.7,-.4,1c-.2,.3,-.6,.5,-1,.6c.5,.1,.9,.3,1.1,.6c.3,.4,.4,.7,.4,1.2c0,.7,-.2,1.2,-.6,1.6c-.4,.4,-1.1,.6,-1.8,.6c-.8,0,-1.5,-.2,-1.9,-.6c-.4,-.4,-.6,-.9,-.6,-1.6c0,-.5,.1,-.8,.4,-1.2c.2,-.3,.6,-.5,1.1,-.6Zm1,.4c-.5,0,-.9,.1,-1.1,.4c-.3,.2,-.4,.6,-.4,1c0,.4,.1,.8,.4,1c.2,.3,.6,.4,1.1,.4c.4,0,.8,-.1,1,-.4c.3,-.2,.5,-.6,.5,-1c0,-.4,-.2,-.8,-.4,-1c-.3,-.3,-.7,-.4,-1.1,-.4Z" class="g5_217"/>
<path d="M188.3,122.4H541.8" class="g3_217"/>
<path d="M188.3,122.4h-3.4" class="g4_217"/>
<path d="M170,125.3h1.6v-5.5l-1.7,.3v-.8l1.7,-.4h1v6.4h1.6v.8H170v-.8Z" class="g5_217"/>
<path d="M178.3,118.8c.8,0,1.4,.3,1.8,.9c.4,.7,.6,1.6,.6,2.8c0,1.2,-.2,2.2,-.6,2.8c-.4,.6,-1,1,-1.8,1c-.9,0,-1.5,-.4,-1.9,-1c-.4,-.6,-.6,-1.6,-.6,-2.8c0,-1.2,.2,-2.1,.6,-2.8c.4,-.6,1,-.9,1.9,-.9Zm0,.7c-.6,0,-.9,.3,-1.2,.8c-.2,.5,-.4,1.2,-.4,2.2c0,1,.2,1.7,.4,2.2c.3,.5,.6,.8,1.2,.8c.5,0,.8,-.3,1.1,-.8c.2,-.5,.4,-1.2,.4,-2.2c0,-1,-.2,-1.7,-.4,-2.2c-.3,-.5,-.6,-.8,-1.1,-.8Z" class="g5_217"/>
<path d="M163.3,230.1c.6,.3,1.1,.5,1.3,.7c.2,.3,.2,.6,.2,1v.7h-.7V232c0,-.3,-.1,-.4,-.2,-.6c-.1,-.1,-.4,-.3,-.8,-.4l-.4,-.2l-5.3,2.2v-.9l4.2,-1.7l-4.2,-1.7v-1l5.9,2.4Z" class="g5_217"/>
<path d="M204.4,110.6l3.2,25.4l3.2,23.4l3.3,21.7l3.2,19.9c5.4,31.5,11.5,63.6,21.2,94.1l2.6,7.6l2.6,6.9c4.7,11.7,11.3,26,21.2,34.3l2,1.4l1.9,1.3l1.9,1l2,.9c7.8,3,15.6,1.4,23.1,-1.7l3.9,-1.7l3.9,-2c16.2,-8.8,31.2,-20.8,49.5,-25l3.9,-.8l3.2,-.4l3.2,-.2h3.3l3.2,.2l3.2,.3c20.4,3,37.1,16.8,54.7,26.2l3.9,2l3.9,1.7c7.5,3,15.4,4.4,23.1,1.1l2,-.9l1.9,-1.1l1.9,-1.3l2,-1.6c9.2,-8.1,15.4,-21,19.9,-32.1l2.6,-6.7l2.6,-7.5C502.5,263.6,509,227.9,514.8,193.3L518,172.6l3.2,-22.3l3.2,-24.2l1.3,-10.2" class="g6_217"/>
<path d="M188.3,362.1V98.7M541.8,362.1V98.7M188.3,362.1H541.8M188.3,98.7H541.8" class="g7_217"/>
<path d="M293.5,92.7h1.2V84.1h-1.2Z" class="g5_217"/>
<path d="M302.4,88.8v3.9h-1.1V88.9c0,-.7,-.1,-1.1,-.4,-1.4c-.2,-.3,-.6,-.5,-1,-.5c-.6,0,-1.1,.2,-1.4,.6c-.3,.3,-.5,.8,-.5,1.5v3.6h-1.1V86.2H298v1.1c.2,-.4,.5,-.7,.9,-.9c.3,-.2,.7,-.3,1.2,-.3c.7,0,1.3,.2,1.7,.7c.4,.4,.6,1.1,.6,2Z" class="g5_217"/>
<path d="M305.5,84.4v1.8h2.2v.9h-2.2v3.5c0,.5,.1,.9,.3,1c.1,.2,.4,.2,.8,.2h1.1v.9h-1.1c-.8,0,-1.3,-.1,-1.7,-.4c-.3,-.3,-.4,-.9,-.4,-1.7V87.1h-.8v-.9h.8V84.4h1Z" class="g5_217"/>
<path d="M313.6,88.9c0,-.6,-.1,-1,-.5,-1.4c-.3,-.3,-.7,-.5,-1.2,-.5c-.6,0,-1.1,.2,-1.5,.5c-.3,.3,-.5,.8,-.6,1.4h3.8Zm1.1,.3v.5h-4.9c0,.8,.3,1.3,.7,1.7c.4,.4,.9,.6,1.6,.6c.4,0,.8,0,1.2,-.1c.4,-.1,.8,-.3,1.2,-.5v1c-.4,.2,-.8,.3,-1.2,.4c-.4,.1,-.8,.1,-1.2,.1c-1.1,0,-1.9,-.3,-2.5,-.9c-.6,-.6,-.9,-1.4,-.9,-2.4c0,-1.1,.3,-2,.8,-2.6c.6,-.6,1.4,-.9,2.4,-.9c.8,0,1.5,.3,2,.8c.5,.6,.8,1.4,.8,2.3Z" class="g5_217"/>
<path d="M320.2,87.2c-.1,0,-.2,-.1,-.4,-.1c-.1,0,-.3,-.1,-.4,-.1c-.6,0,-1.1,.2,-1.4,.6c-.4,.4,-.5,1,-.5,1.7v3.4h-1.1V86.2h1.1v1.1c.2,-.4,.5,-.7,.9,-.9c.3,-.2,.8,-.3,1.3,-.3c0,0,.1,0,.2,0c.1,0,.2,0,.3,0v1.1Z" class="g5_217"/>
<path d="M326,89.5c0,-.8,-.2,-1.4,-.5,-1.8c-.3,-.5,-.8,-.7,-1.3,-.7c-.6,0,-1,.2,-1.3,.7c-.4,.4,-.5,1,-.5,1.8c0,.8,.1,1.4,.5,1.8c.3,.5,.7,.7,1.3,.7c.5,0,1,-.2,1.3,-.7c.3,-.4,.5,-1,.5,-1.8Zm-3.6,2.3v3.4h-1.1v-9h1.1v1c.2,-.4,.5,-.6,.8,-.8c.4,-.2,.8,-.3,1.2,-.3c.8,0,1.5,.3,2,.9c.5,.7,.7,1.5,.7,2.5c0,1,-.2,1.8,-.7,2.5c-.5,.6,-1.2,.9,-2,.9c-.4,0,-.8,-.1,-1.2,-.3c-.3,-.2,-.6,-.4,-.8,-.8Z" class="g5_217"/>
<path d="M331.4,86.1c.9,0,1.6,.3,2.2,.9c.5,.6,.8,1.4,.8,2.5c0,1.1,-.3,1.9,-.8,2.5c-.6,.6,-1.3,.9,-2.2,.9c-.9,0,-1.7,-.3,-2.2,-.9c-.5,-.6,-.8,-1.4,-.8,-2.5c0,-1.1,.3,-1.9,.8,-2.5c.5,-.6,1.3,-.9,2.2,-.9Zm0,.9c-.6,0,-1,.2,-1.4,.7c-.3,.4,-.5,1,-.5,1.8c0,.8,.2,1.4,.5,1.8c.4,.5,.8,.7,1.4,.7c.6,0,1,-.2,1.3,-.7c.4,-.4,.5,-1,.5,-1.8c0,-.8,-.1,-1.4,-.5,-1.8c-.3,-.5,-.7,-.7,-1.3,-.7Z" class="g5_217"/>
<path d="M336.1,92.7h1.1v-9h-1.1Z" class="g5_217"/>
<path d="M344.5,89v3.7h-1v-.9c-.3,.3,-.6,.6,-1,.8c-.3,.2,-.8,.3,-1.3,.3c-.7,0,-1.2,-.2,-1.6,-.6c-.4,-.3,-.6,-.8,-.6,-1.5c0,-.7,.3,-1.2,.8,-1.6c.5,-.4,1.2,-.6,2.2,-.6h1.5v-.1c0,-.5,-.2,-.8,-.5,-1.1c-.4,-.3,-.8,-.4,-1.4,-.4c-.4,0,-.7,0,-1.1,.1c-.3,.1,-.7,.2,-1,.4v-1c.4,-.1,.8,-.2,1.1,-.3c.4,-.1,.8,-.1,1.1,-.1c1,0,1.7,.2,2.1,.7c.5,.5,.7,1.2,.7,2.2Zm-2.1,.5c-.9,0,-1.5,.1,-1.8,.3c-.3,.2,-.5,.5,-.5,1c0,.4,.1,.7,.4,.9c.2,.2,.6,.3,1,.3c.6,0,1.1,-.2,1.4,-.6c.4,-.4,.6,-1,.6,-1.7v-.2h-1.1Z" class="g5_217"/>
<path d="M347.8,84.4v1.8H350v.9h-2.2v3.5c0,.5,0,.9,.2,1c.1,.2,.4,.2,.9,.2H350v.9h-1.1c-.8,0,-1.4,-.1,-1.7,-.4c-.3,-.3,-.5,-.9,-.5,-1.7V87.1h-.8v-.9h.8V84.4h1.1Z" class="g5_217"/>
<path d="M351.4,83.7h1v1.4h-1Zm0,2.5h1v6.5h-1Z" class="g5_217"/>
<path d="M360.1,88.8v3.9H359V88.9c0,-.7,-.1,-1.1,-.4,-1.4c-.2,-.3,-.5,-.5,-1,-.5c-.6,0,-1.1,.2,-1.4,.6c-.3,.3,-.5,.8,-.5,1.5v3.6h-1.1V86.2h1.1v1.1c.3,-.4,.6,-.7,.9,-.9c.4,-.2,.8,-.3,1.2,-.3c.8,0,1.3,.2,1.7,.7c.4,.4,.6,1.1,.6,2Z" class="g5_217"/>
<path d="M367.5,91.9c0,1.1,-.2,2,-.7,2.5c-.5,.5,-1.2,.8,-2.2,.8c-.4,0,-.8,0,-1.1,-.1c-.3,0,-.7,-.1,-1,-.2V93.8c.3,.2,.6,.3,.9,.4c.4,.1,.7,.1,1,.1c.7,0,1.2,-.2,1.6,-.5c.3,-.4,.5,-.9,.5,-1.7v-.5c-.2,.4,-.5,.7,-.9,.9c-.3,.1,-.7,.2,-1.2,.2c-.8,0,-1.4,-.3,-1.9,-.9c-.5,-.6,-.8,-1.4,-.8,-2.4c0,-1,.3,-1.8,.8,-2.4c.5,-.6,1.1,-.9,1.9,-.9c.5,0,.9,.1,1.2,.3c.4,.2,.7,.4,.9,.8v-1h1v5.7Zm-1,-2.5c0,-.8,-.2,-1.4,-.5,-1.8c-.3,-.4,-.8,-.6,-1.3,-.6c-.6,0,-1.1,.2,-1.4,.6c-.3,.4,-.5,1,-.5,1.8c0,.8,.2,1.4,.5,1.8c.3,.4,.8,.6,1.4,.6c.5,0,1,-.2,1.3,-.6c.3,-.4,.5,-1,.5,-1.8Z" class="g5_217"/>
<path d="M378.2,89.5c0,-.8,-.2,-1.4,-.5,-1.8c-.3,-.5,-.8,-.7,-1.3,-.7c-.6,0,-1,.2,-1.4,.7c-.3,.4,-.5,1,-.5,1.8c0,.8,.2,1.4,.5,1.8c.4,.5,.8,.7,1.4,.7c.5,0,1,-.2,1.3,-.7c.3,-.4,.5,-1,.5,-1.8Zm-3.7,2.3v3.4h-1v-9h1v1c.3,-.4,.6,-.6,.9,-.8c.3,-.2,.7,-.3,1.2,-.3c.8,0,1.5,.3,1.9,.9c.5,.7,.8,1.5,.8,2.5c0,1,-.3,1.8,-.8,2.5c-.4,.6,-1.1,.9,-1.9,.9c-.5,0,-.9,-.1,-1.2,-.3c-.3,-.2,-.6,-.4,-.9,-.8Z" class="g5_217"/>
<path d="M383.6,86.1c.9,0,1.6,.3,2.2,.9c.5,.6,.8,1.4,.8,2.5c0,1.1,-.3,1.9,-.8,2.5c-.6,.6,-1.3,.9,-2.2,.9c-1,0,-1.7,-.3,-2.2,-.9c-.5,-.6,-.8,-1.4,-.8,-2.5c0,-1.1,.3,-1.9,.8,-2.5c.5,-.6,1.2,-.9,2.2,-.9Zm0,.9c-.6,0,-1.1,.2,-1.4,.7c-.3,.4,-.5,1,-.5,1.8c0,.8,.2,1.4,.5,1.8c.3,.5,.8,.7,1.4,.7c.5,0,1,-.2,1.3,-.7c.4,-.4,.5,-1,.5,-1.8c0,-.8,-.1,-1.4,-.5,-1.8c-.3,-.5,-.8,-.7,-1.3,-.7Z" class="g5_217"/>
<path d="M388.3,92.7h1.1v-9h-1.1Z" class="g5_217"/>
<path d="M394.3,93.3c-.3,.8,-.6,1.3,-.9,1.6c-.2,.2,-.6,.3,-1.1,.3h-.9v-.9h.7c.3,0,.5,-.1,.7,-.2c.1,-.1,.3,-.5,.5,-1l.2,-.5l-2.6,-6.4H392l2,5.1l2,-5.1h1.2l-2.9,7.1Z" class="g5_217"/>
<path d="M404.1,88.8v3.9H403V88.9c0,-.7,-.1,-1.1,-.4,-1.4c-.2,-.3,-.6,-.5,-1.1,-.5c-.5,0,-1,.2,-1.3,.6c-.3,.3,-.5,.8,-.5,1.5v3.6h-1.1V86.2h1.1v1.1c.2,-.4,.5,-.7,.9,-.9c.3,-.2,.7,-.3,1.2,-.3c.7,0,1.3,.2,1.7,.7c.4,.4,.6,1.1,.6,2Z" class="g5_217"/>
<path d="M408.7,86.1c.9,0,1.7,.3,2.2,.9c.5,.6,.8,1.4,.8,2.5c0,1.1,-.3,1.9,-.8,2.5c-.5,.6,-1.3,.9,-2.2,.9c-.9,0,-1.7,-.3,-2.2,-.9c-.5,-.6,-.8,-1.4,-.8,-2.5c0,-1.1,.3,-1.9,.8,-2.5c.5,-.6,1.3,-.9,2.2,-.9Zm0,.9c-.6,0,-1,.2,-1.4,.7c-.3,.4,-.5,1,-.5,1.8c0,.8,.2,1.4,.5,1.8c.4,.5,.8,.7,1.4,.7c.6,0,1,-.2,1.3,-.7c.4,-.4,.5,-1,.5,-1.8c0,-.8,-.1,-1.4,-.5,-1.8c-.3,-.5,-.7,-.7,-1.3,-.7Z" class="g5_217"/>
<path d="M418.5,87.5c.3,-.5,.6,-.8,1,-1.1c.3,-.2,.8,-.3,1.3,-.3c.6,0,1.2,.2,1.5,.7c.4,.5,.6,1.1,.6,2v3.9h-1.1V88.9c0,-.7,-.1,-1.1,-.3,-1.4c-.2,-.3,-.6,-.5,-1,-.5c-.6,0,-1,.2,-1.3,.6c-.4,.3,-.5,.8,-.5,1.5v3.6h-1.1V88.9c0,-.7,-.1,-1.1,-.3,-1.4c-.2,-.3,-.6,-.5,-1,-.5c-.6,0,-1,.2,-1.3,.6c-.4,.3,-.5,.8,-.5,1.5v3.6h-1.1V86.2h1.1v1.1c.2,-.4,.5,-.7,.9,-.9c.3,-.2,.7,-.3,1.2,-.3c.4,0,.8,.1,1.2,.3c.3,.3,.5,.6,.7,1.1Z" class="g5_217"/>
<path d="M425,83.7h1.1v1.4H425Zm0,2.5h1.1v6.5H425Z" class="g5_217"/>
<path d="M433.4,89v3.7h-1.1v-.9c-.2,.3,-.5,.6,-.9,.8c-.3,.2,-.8,.3,-1.3,.3c-.7,0,-1.2,-.2,-1.6,-.6c-.4,-.3,-.6,-.8,-.6,-1.5c0,-.7,.3,-1.2,.7,-1.6c.5,-.4,1.3,-.6,2.2,-.6h1.5v-.1c0,-.5,-.1,-.8,-.5,-1.1c-.3,-.3,-.7,-.4,-1.3,-.4c-.4,0,-.8,0,-1.1,.1c-.4,.1,-.7,.2,-1,.4v-1c.4,-.1,.8,-.2,1.1,-.3c.4,-.1,.7,-.1,1.1,-.1c.9,0,1.6,.2,2.1,.7c.5,.5,.7,1.2,.7,2.2Zm-2.1,.5c-.9,0,-1.5,.1,-1.8,.3c-.4,.2,-.5,.5,-.5,1c0,.4,.1,.7,.3,.9c.3,.2,.6,.3,1.1,.3c.6,0,1,-.2,1.4,-.6c.3,-.4,.5,-1,.5,-1.7v-.2h-1Z" class="g5_217"/>
<path d="M435.6,92.7h1.1v-9h-1.1Z" class="g5_217"/>
<path d="M191.2,769.1H541.8V507.8H191.2Z" class="g0_217"/>
<path d="M239.1,607.4c.8,0,1.5,-.3,2.1,-.9c.5,-.5,.8,-1.3,.8,-2.1c0,-.8,-.3,-1.5,-.8,-2.1c-.6,-.5,-1.3,-.8,-2.1,-.8c-.8,0,-1.6,.3,-2.1,.8c-.6,.6,-.9,1.3,-.9,2.1c0,.8,.3,1.6,.9,2.1c.5,.6,1.3,.9,2.1,.9Z" class="g1_217"/>
<path d="M239.1,607.4c.8,0,1.5,-.3,2.1,-.9c.5,-.5,.8,-1.3,.8,-2.1c0,-.8,-.3,-1.5,-.8,-2.1c-.6,-.5,-1.3,-.8,-2.1,-.8c-.8,0,-1.6,.3,-2.1,.8c-.6,.6,-.9,1.3,-.9,2.1c0,.8,.3,1.6,.9,2.1c.5,.6,1.3,.9,2.1,.9Z" class="g8_217"/>
<path d="M302.9,694.7c.8,0,1.6,-.4,2.1,-.9c.6,-.6,.9,-1.3,.9,-2.1c0,-.8,-.3,-1.5,-.9,-2.1c-.5,-.5,-1.3,-.8,-2.1,-.8c-.7,0,-1.5,.3,-2,.8c-.6,.6,-.9,1.3,-.9,2.1c0,.8,.3,1.5,.9,2.1c.5,.5,1.3,.9,2,.9Z" class="g1_217"/>
<path d="M302.9,694.7c.8,0,1.6,-.4,2.1,-.9c.6,-.6,.9,-1.3,.9,-2.1c0,-.8,-.3,-1.5,-.9,-2.1c-.5,-.5,-1.3,-.8,-2.1,-.8c-.7,0,-1.5,.3,-2,.8c-.6,.6,-.9,1.3,-.9,2.1c0,.8,.3,1.5,.9,2.1c.5,.5,1.3,.9,2,.9Z" class="g8_217"/>
<path d="M366.8,738.3c.8,0,1.5,-.3,2.1,-.9c.5,-.5,.9,-1.3,.9,-2.1c0,-.7,-.4,-1.5,-.9,-2c-.6,-.6,-1.3,-.9,-2.1,-.9c-.8,0,-1.5,.3,-2.1,.9c-.5,.5,-.8,1.3,-.8,2c0,.8,.3,1.6,.8,2.1c.6,.6,1.3,.9,2.1,.9Z" class="g1_217"/>
<path d="M366.8,738.3c.8,0,1.5,-.3,2.1,-.9c.5,-.5,.9,-1.3,.9,-2.1c0,-.7,-.4,-1.5,-.9,-2c-.6,-.6,-1.3,-.9,-2.1,-.9c-.8,0,-1.5,.3,-2.1,.9c-.5,.5,-.8,1.3,-.8,2c0,.8,.3,1.6,.8,2.1c.6,.6,1.3,.9,2.1,.9Z" class="g8_217"/>
<path d="M430.7,760.1c.8,0,1.5,-.3,2.1,-.8c.5,-.6,.8,-1.4,.8,-2.1c0,-.8,-.3,-1.6,-.8,-2.1c-.6,-.6,-1.3,-.9,-2.1,-.9c-.8,0,-1.6,.3,-2.1,.9c-.6,.5,-.9,1.3,-.9,2.1c0,.7,.3,1.5,.9,2.1c.5,.5,1.3,.8,2.1,.8Z" class="g1_217"/>
<path d="M430.7,760.1c.8,0,1.5,-.3,2.1,-.8c.5,-.6,.8,-1.4,.8,-2.1c0,-.8,-.3,-1.6,-.8,-2.1c-.6,-.6,-1.3,-.9,-2.1,-.9c-.8,0,-1.6,.3,-2.1,.9c-.6,.5,-.9,1.3,-.9,2.1c0,.7,.3,1.5,.9,2.1c.5,.5,1.3,.8,2.1,.8Z" class="g8_217"/>
<path d="M494.6,716.5c.7,0,1.5,-.3,2,-.9c.6,-.5,.9,-1.3,.9,-2.1c0,-.8,-.3,-1.5,-.9,-2.1c-.5,-.5,-1.3,-.8,-2,-.8c-.8,0,-1.6,.3,-2.1,.8c-.6,.6,-.9,1.3,-.9,2.1c0,.8,.3,1.6,.9,2.1c.5,.6,1.3,.9,2.1,.9Z" class="g1_217"/>
<path d="M494.6,716.5c.7,0,1.5,-.3,2,-.9c.6,-.5,.9,-1.3,.9,-2.1c0,-.8,-.3,-1.5,-.9,-2.1c-.5,-.5,-1.3,-.8,-2,-.8c-.8,0,-1.6,.3,-2.1,.8c-.6,.6,-.9,1.3,-.9,2.1c0,.8,.3,1.6,.9,2.1c.5,.6,1.3,.9,2.1,.9Z" class="g8_217"/>
<path d="M239.1,769.1V507.8" class="g9_217"/>
<path d="M239.1,769.1v3.4" class="ga_217"/>
<path d="M237.2,782.6h1.5v-5.5l-1.7,.4v-.9l1.7,-.4h1v6.4h1.6v.8h-4.1v-.8Z" class="g5_217"/>
<path d="M302.9,769.1V507.8" class="g9_217"/>
<path d="M302.9,769.1v3.4" class="ga_217"/>
<path d="M301.7,782.6h3.4v.8h-4.6v-.8c.4,-.4,.9,-.9,1.5,-1.5c.7,-.7,1.1,-1.1,1.2,-1.3c.3,-.3,.6,-.6,.7,-.9c.1,-.2,.2,-.4,.2,-.7c0,-.4,-.2,-.7,-.4,-.9c-.3,-.2,-.6,-.4,-1.1,-.4c-.3,0,-.6,.1,-.9,.2c-.4,.1,-.7,.3,-1.1,.5v-1c.4,-.2,.7,-.3,1.1,-.4c.3,0,.6,-.1,.9,-.1c.7,0,1.3,.2,1.8,.6c.4,.3,.6,.8,.6,1.5c0,.3,0,.5,-.1,.8c-.1,.3,-.3,.6,-.6,.9c-.1,.1,-.4,.4,-.8,.8c-.4,.5,-1,1.1,-1.8,1.9Z" class="g5_217"/>
<path d="M366.8,769.1V507.8" class="g9_217"/>
<path d="M366.8,769.1v3.4" class="ga_217"/>
<path d="M367.7,779.5c.4,.1,.8,.3,1.1,.7c.2,.3,.3,.7,.3,1.1c0,.7,-.2,1.3,-.7,1.7c-.5,.3,-1.2,.5,-2.1,.5c-.3,0,-.6,0,-.9,0c-.3,-.1,-.6,-.2,-1,-.3v-.9c.3,.1,.6,.2,.9,.3c.3,.1,.7,.1,1,.1c.6,0,1.1,-.1,1.4,-.3c.3,-.3,.5,-.6,.5,-1.1c0,-.4,-.2,-.7,-.5,-1c-.3,-.2,-.7,-.3,-1.2,-.3h-.8v-.8h.8c.5,0,.9,-.1,1.1,-.3c.3,-.2,.4,-.5,.4,-.8c0,-.4,-.1,-.7,-.4,-.9c-.2,-.2,-.6,-.3,-1.1,-.3c-.3,0,-.5,.1,-.8,.1c-.4,.1,-.7,.2,-1,.3v-.9c.3,-.1,.7,-.2,1,-.2c.3,-.1,.6,-.1,.9,-.1c.7,0,1.3,.2,1.7,.5c.5,.4,.7,.8,.7,1.4c0,.4,-.1,.7,-.4,1c-.2,.2,-.5,.4,-.9,.5Z" class="g5_217"/>
<path d="M430.7,769.1V507.8" class="g9_217"/>
<path d="M430.7,769.1v3.4" class="ga_217"/>
<path d="M431,776.2h1.2v4.7h1.1v.8h-1.1v1.7h-.9v-1.7H428v-.9l3,-4.6Zm.3,.9l-2.5,3.8h2.5v-3.8Z" class="g5_217"/>
<path d="M494.6,769.1V507.8" class="g9_217"/>
<path d="M494.6,769.1v3.4" class="ga_217"/>
<path d="M492.5,776.2h3.8v.9h-2.9v1.7c.1,0,.3,-.1,.4,-.1c.1,0,.3,0,.4,0c.8,0,1.4,.2,1.9,.6c.5,.5,.7,1.1,.7,1.8c0,.8,-.2,1.4,-.7,1.8c-.5,.4,-1.2,.6,-2,.6c-.3,0,-.6,0,-1,0c-.3,-.1,-.6,-.2,-.9,-.3v-.9c.3,.1,.6,.2,.9,.3c.3,.1,.6,.1,.9,.1c.6,0,1,-.1,1.4,-.4c.3,-.3,.4,-.7,.4,-1.2c0,-.5,-.1,-.9,-.4,-1.2c-.4,-.3,-.8,-.4,-1.4,-.4c-.2,0,-.5,0,-.7,.1c-.3,0,-.5,.1,-.8,.2v-3.6Z" class="g5_217"/>
<path d="M369,791.5l-2,2.6l2.1,2.7H368l-1.5,-2.1l-1.6,2.1h-1L366,794l-2,-2.5h1.1l1.4,1.9l1.4,-1.9H369Z" class="g5_217"/>
<path d="M191.2,746.3H541.8" class="g9_217"/>
<path d="M191.2,746.3h-3.4" class="ga_217"/>
<path d="M169.5,742.8h4.6v.4l-2.6,6.8h-1l2.5,-6.4h-3.5v-.8Z" class="g5_217"/>
<path d="M176,750h1v-1.2h-1Z" class="g5_217"/>
<path d="M181.1,746.8c.4,0,.8,-.1,1,-.4c.3,-.3,.4,-.7,.4,-1.3c0,-.5,-.1,-.9,-.4,-1.2c-.2,-.3,-.6,-.4,-1,-.4c-.4,0,-.8,.1,-1,.4c-.3,.3,-.4,.7,-.4,1.2c0,.6,.1,1,.4,1.3c.2,.3,.6,.4,1,.4Zm-1.9,3V749c.2,.1,.4,.2,.7,.2c.2,.1,.5,.1,.7,.1c.7,0,1.2,-.2,1.5,-.6c.3,-.5,.5,-1.1,.6,-2c-.2,.3,-.4,.5,-.7,.6c-.3,.2,-.6,.3,-1,.3c-.7,0,-1.3,-.3,-1.7,-.7c-.4,-.4,-.6,-1,-.6,-1.8c0,-.7,.2,-1.3,.7,-1.7c.4,-.5,1,-.7,1.7,-.7c.8,0,1.4,.3,1.9,1c.4,.6,.6,1.5,.6,2.7c0,1.1,-.2,2,-.8,2.7c-.5,.7,-1.2,1,-2.1,1c-.3,0,-.5,0,-.8,0c-.2,-.1,-.5,-.2,-.7,-.3Z" class="g5_217"/>
<path d="M191.2,713.5H541.8" class="g9_217"/>
<path d="M191.2,713.5h-3.4" class="ga_217"/>
<path d="M170.5,711.9c0,.4,.1,.7,.4,.9c.2,.2,.5,.3,.9,.3c.5,0,.8,-.1,1,-.3c.2,-.2,.4,-.5,.4,-.9c0,-.4,-.2,-.6,-.4,-.8c-.2,-.3,-.5,-.4,-1,-.4c-.4,0,-.7,.1,-.9,.4c-.3,.2,-.4,.4,-.4,.8Zm.4,1.5c-.4,-.1,-.8,-.2,-1,-.5c-.2,-.3,-.4,-.7,-.4,-1.1c0,-.5,.3,-1,.7,-1.3c.4,-.4,.9,-.5,1.6,-.5c.7,0,1.3,.1,1.7,.5c.4,.3,.6,.8,.6,1.3c0,.4,-.1,.8,-.3,1.1c-.3,.3,-.6,.4,-1,.5c.5,.2,.8,.4,1.1,.7c.3,.3,.4,.7,.4,1.1c0,.7,-.2,1.3,-.6,1.6c-.5,.4,-1.1,.6,-1.9,.6c-.8,0,-1.4,-.2,-1.8,-.6c-.4,-.3,-.6,-.9,-.6,-1.6c0,-.4,.1,-.8,.4,-1.1c.2,-.3,.6,-.5,1.1,-.7Zm.9,.5c-.4,0,-.8,.1,-1.1,.3c-.2,.3,-.3,.6,-.3,1c0,.5,.1,.8,.3,1.1c.3,.2,.7,.3,1.1,.3c.5,0,.9,-.1,1.1,-.3c.3,-.3,.4,-.6,.4,-1.1c0,-.4,-.1,-.7,-.4,-1c-.2,-.2,-.6,-.3,-1.1,-.3Z" class="g5_217"/>
<path d="M176,717.3h1V716h-1Z" class="g5_217"/>
<path d="M181.2,710c.8,0,1.4,.3,1.8,.9c.5,.7,.7,1.6,.7,2.8c0,1.2,-.2,2.1,-.7,2.7c-.4,.7,-1,1,-1.8,1c-.8,0,-1.4,-.3,-1.8,-1c-.5,-.6,-.7,-1.5,-.7,-2.7c0,-1.2,.2,-2.1,.7,-2.8c.4,-.6,1,-.9,1.8,-.9Zm0,.7c-.5,0,-.9,.3,-1.1,.8c-.3,.5,-.4,1.2,-.4,2.2c0,1,.1,1.7,.4,2.2c.2,.5,.6,.7,1.1,.7c.5,0,.9,-.2,1.1,-.7c.3,-.5,.4,-1.2,.4,-2.2c0,-1,-.1,-1.7,-.4,-2.2c-.2,-.5,-.6,-.8,-1.1,-.8Z" class="g5_217"/>
<path d="M191.2,680.8H541.8" class="g9_217"/>
<path d="M191.2,680.8h-3.4" class="ga_217"/>
<path d="M170.5,679.2c0,.4,.1,.6,.4,.9c.2,.2,.5,.3,.9,.3c.5,0,.8,-.1,1,-.3c.2,-.3,.4,-.5,.4,-.9c0,-.4,-.2,-.7,-.4,-.9c-.2,-.2,-.5,-.3,-1,-.3c-.4,0,-.7,.1,-.9,.3c-.3,.2,-.4,.5,-.4,.9Zm.4,1.5c-.4,-.1,-.8,-.3,-1,-.6c-.2,-.2,-.4,-.6,-.4,-1c0,-.6,.3,-1,.7,-1.4c.4,-.3,.9,-.5,1.6,-.5c.7,0,1.3,.2,1.7,.5c.4,.4,.6,.8,.6,1.4c0,.4,-.1,.8,-.3,1c-.3,.3,-.6,.5,-1,.6c.5,.1,.8,.3,1.1,.7c.3,.3,.4,.7,.4,1.1c0,.7,-.2,1.2,-.6,1.6c-.5,.4,-1.1,.6,-1.9,.6c-.8,0,-1.4,-.2,-1.8,-.6c-.4,-.4,-.6,-.9,-.6,-1.6c0,-.4,.1,-.8,.4,-1.1c.2,-.4,.6,-.6,1.1,-.7Zm.9,.4c-.4,0,-.8,.2,-1.1,.4c-.2,.2,-.3,.6,-.3,1c0,.4,.1,.8,.3,1c.3,.3,.7,.4,1.1,.4c.5,0,.9,-.1,1.1,-.4c.3,-.2,.4,-.6,.4,-1c0,-.4,-.1,-.8,-.4,-1c-.2,-.2,-.6,-.4,-1.1,-.4Z" class="g5_217"/>
<path d="M176,684.5h1v-1.2h-1Z" class="g5_217"/>
<path d="M179.3,683.7h1.6v-5.4l-1.7,.3v-.9l1.7,-.3h.9v6.3h1.6v.8h-4.1v-.8Z" class="g5_217"/>
<path d="M191.2,648.1H541.8" class="g9_217"/>
<path d="M191.2,648.1h-3.4" class="ga_217"/>
<path d="M170.5,646.5c0,.3,.1,.6,.4,.8c.2,.2,.5,.3,.9,.3c.5,0,.8,-.1,1,-.3c.2,-.2,.4,-.5,.4,-.8c0,-.4,-.2,-.7,-.4,-.9c-.2,-.2,-.5,-.3,-1,-.3c-.4,0,-.7,.1,-.9,.3c-.3,.2,-.4,.5,-.4,.9Zm.4,1.5c-.4,-.1,-.8,-.3,-1,-.6c-.2,-.3,-.4,-.6,-.4,-1c0,-.6,.3,-1.1,.7,-1.4c.4,-.3,.9,-.5,1.6,-.5c.7,0,1.3,.2,1.7,.5c.4,.3,.6,.8,.6,1.4c0,.4,-.1,.7,-.3,1c-.3,.3,-.6,.5,-1,.6c.5,.1,.8,.3,1.1,.6c.3,.3,.4,.7,.4,1.2c0,.7,-.2,1.2,-.6,1.6c-.5,.4,-1.1,.5,-1.9,.5c-.8,0,-1.4,-.1,-1.8,-.5c-.4,-.4,-.6,-.9,-.6,-1.6c0,-.5,.1,-.9,.4,-1.2c.2,-.3,.6,-.5,1.1,-.6Zm.9,.4c-.4,0,-.8,.1,-1.1,.4c-.2,.2,-.3,.6,-.3,1c0,.4,.1,.8,.3,1c.3,.2,.7,.4,1.1,.4c.5,0,.9,-.2,1.1,-.4c.3,-.3,.4,-.6,.4,-1c0,-.4,-.1,-.8,-.4,-1c-.2,-.3,-.6,-.4,-1.1,-.4Z" class="g5_217"/>
<path d="M176,651.8h1v-1.2h-1Z" class="g5_217"/>
<path d="M180,651h3.3v.8h-4.5V651c.4,-.4,.9,-.9,1.5,-1.5c.6,-.7,1,-1.1,1.2,-1.3c.3,-.3,.5,-.6,.6,-.9c.2,-.2,.2,-.4,.2,-.7c0,-.4,-.1,-.7,-.4,-.9c-.2,-.3,-.6,-.4,-1,-.4c-.3,0,-.6,.1,-1,.2c-.3,.1,-.7,.2,-1.1,.5v-1c.4,-.2,.8,-.3,1.1,-.4c.4,0,.7,-.1,1,-.1c.7,0,1.3,.2,1.7,.6c.5,.3,.7,.8,.7,1.5c0,.2,-.1,.5,-.2,.8c-.1,.3,-.3,.6,-.6,.9c0,.1,-.3,.4,-.7,.8c-.5,.5,-1.1,1.1,-1.8,1.9Z" class="g5_217"/>
<path d="M191.2,615.3H541.8" class="g9_217"/>
<path d="M191.2,615.3h-3.4" class="ga_217"/>
<path d="M170.5,613.7c0,.4,.1,.7,.4,.9c.2,.2,.5,.3,.9,.3c.5,0,.8,-.1,1,-.3c.2,-.2,.4,-.5,.4,-.9c0,-.3,-.2,-.6,-.4,-.8c-.2,-.2,-.5,-.4,-1,-.4c-.4,0,-.7,.2,-.9,.4c-.3,.2,-.4,.5,-.4,.8Zm.4,1.6c-.4,-.1,-.8,-.3,-1,-.6c-.2,-.3,-.4,-.7,-.4,-1.1c0,-.5,.3,-1,.7,-1.3c.4,-.4,.9,-.5,1.6,-.5c.7,0,1.3,.1,1.7,.5c.4,.3,.6,.8,.6,1.3c0,.4,-.1,.8,-.3,1.1c-.3,.3,-.6,.5,-1,.6c.5,.1,.8,.3,1.1,.6c.3,.3,.4,.7,.4,1.2c0,.6,-.2,1.2,-.6,1.6c-.5,.3,-1.1,.5,-1.9,.5c-.8,0,-1.4,-.2,-1.8,-.5c-.4,-.4,-.6,-1,-.6,-1.6c0,-.5,.1,-.9,.4,-1.2c.2,-.3,.6,-.5,1.1,-.6Zm.9,.4c-.4,0,-.8,.1,-1.1,.3c-.2,.3,-.3,.6,-.3,1.1c0,.4,.1,.7,.3,1c.3,.2,.7,.3,1.1,.3c.5,0,.9,-.1,1.1,-.3c.3,-.3,.4,-.6,.4,-1c0,-.5,-.1,-.8,-.4,-1.1c-.2,-.2,-.6,-.3,-1.1,-.3Z" class="g5_217"/>
<path d="M176,619.1h1v-1.3h-1Z" class="g5_217"/>
<path d="M182.1,615.2c.4,.1,.8,.3,1,.6c.3,.3,.4,.7,.4,1.2c0,.7,-.2,1.2,-.7,1.6c-.5,.4,-1.2,.6,-2.1,.6c-.3,0,-.6,0,-.9,-.1c-.3,0,-.6,-.1,-1,-.2v-1c.3,.2,.6,.3,.9,.4c.3,.1,.7,.1,1,.1c.6,0,1.1,-.1,1.4,-.4c.3,-.2,.5,-.6,.5,-1c0,-.4,-.2,-.8,-.5,-1c-.3,-.2,-.7,-.4,-1.2,-.4h-.8v-.8h.8c.5,0,.9,-.1,1.1,-.2c.3,-.2,.4,-.5,.4,-.9c0,-.3,-.1,-.6,-.4,-.8c-.2,-.2,-.6,-.3,-1.1,-.3c-.3,0,-.6,0,-.9,.1c-.3,0,-.6,.1,-1,.3v-.9c.4,-.1,.8,-.2,1.1,-.2c.3,-.1,.6,-.1,.9,-.1c.7,0,1.3,.1,1.7,.5c.5,.3,.7,.8,.7,1.3c0,.4,-.1,.8,-.4,1c-.2,.3,-.5,.5,-.9,.6Z" class="g5_217"/>
<path d="M191.2,582.6H541.8" class="g9_217"/>
<path d="M191.2,582.6h-3.4" class="ga_217"/>
<path d="M170.5,581c0,.4,.1,.7,.4,.9c.2,.2,.5,.3,.9,.3c.5,0,.8,-.1,1,-.3c.2,-.2,.4,-.5,.4,-.9c0,-.4,-.2,-.7,-.4,-.9c-.2,-.2,-.5,-.3,-1,-.3c-.4,0,-.7,.1,-.9,.3c-.3,.2,-.4,.5,-.4,.9Zm.4,1.5c-.4,-.1,-.8,-.3,-1,-.6c-.2,-.2,-.4,-.6,-.4,-1c0,-.6,.3,-1,.7,-1.4c.4,-.3,.9,-.4,1.6,-.4c.7,0,1.3,.1,1.7,.4c.4,.4,.6,.8,.6,1.4c0,.4,-.1,.8,-.3,1c-.3,.3,-.6,.5,-1,.6c.5,.1,.8,.3,1.1,.7c.3,.3,.4,.7,.4,1.1c0,.7,-.2,1.2,-.6,1.6c-.5,.4,-1.1,.6,-1.9,.6c-.8,0,-1.4,-.2,-1.8,-.6c-.4,-.4,-.6,-.9,-.6,-1.6c0,-.4,.1,-.8,.4,-1.1c.2,-.4,.6,-.6,1.1,-.7Zm.9,.4c-.4,0,-.8,.2,-1.1,.4c-.2,.3,-.3,.6,-.3,1c0,.5,.1,.8,.3,1c.3,.3,.7,.4,1.1,.4c.5,0,.9,-.1,1.1,-.4c.3,-.2,.4,-.5,.4,-1c0,-.4,-.1,-.7,-.4,-1c-.2,-.2,-.6,-.4,-1.1,-.4Z" class="g5_217"/>
<path d="M176,586.3h1v-1.2h-1Z" class="g5_217"/>
<path d="M181.5,579.2h1.3v4.6h1v.8h-1v1.7h-1v-1.7h-3.2v-.9l2.9,-4.5Zm.3,.8l-2.5,3.8h2.5V580Z" class="g5_217"/>
<path d="M191.2,549.9H541.8" class="g9_217"/>
<path d="M191.2,549.9h-3.4" class="ga_217"/>
<path d="M170.5,548.3c0,.3,.1,.6,.4,.8c.2,.2,.5,.3,.9,.3c.5,0,.8,-.1,1,-.3c.2,-.2,.4,-.5,.4,-.8c0,-.4,-.2,-.7,-.4,-.9c-.2,-.2,-.5,-.3,-1,-.3c-.4,0,-.7,.1,-.9,.3c-.3,.2,-.4,.5,-.4,.9Zm.4,1.5c-.4,-.1,-.8,-.3,-1,-.6c-.2,-.3,-.4,-.6,-.4,-1c0,-.6,.3,-1,.7,-1.4c.4,-.3,.9,-.5,1.6,-.5c.7,0,1.3,.2,1.7,.5c.4,.4,.6,.8,.6,1.4c0,.4,-.1,.7,-.3,1c-.3,.3,-.6,.5,-1,.6c.5,.1,.8,.3,1.1,.6c.3,.4,.4,.7,.4,1.2c0,.7,-.2,1.2,-.6,1.6c-.5,.4,-1.1,.5,-1.9,.5c-.8,0,-1.4,-.1,-1.8,-.5c-.4,-.4,-.6,-.9,-.6,-1.6c0,-.5,.1,-.8,.4,-1.2c.2,-.3,.6,-.5,1.1,-.6Zm.9,.4c-.4,0,-.8,.1,-1.1,.4c-.2,.2,-.3,.6,-.3,1c0,.4,.1,.8,.3,1c.3,.3,.7,.4,1.1,.4c.5,0,.9,-.1,1.1,-.4c.3,-.2,.4,-.6,.4,-1c0,-.4,-.1,-.8,-.4,-1c-.2,-.3,-.6,-.4,-1.1,-.4Z" class="g5_217"/>
<path d="M176,553.6h1v-1.2h-1Z" class="g5_217"/>
<path d="M179.1,546.4h3.8v.9H180V549c.2,0,.3,-.1,.4,-.1c.2,0,.3,0,.5,0c.8,0,1.4,.2,1.9,.6c.4,.5,.7,1.1,.7,1.8c0,.8,-.3,1.4,-.7,1.8c-.5,.4,-1.2,.6,-2.1,.6c-.3,0,-.6,0,-.9,0c-.3,-.1,-.6,-.2,-1,-.3v-.9c.3,.1,.6,.2,.9,.3c.3,.1,.7,.1,1,.1c.6,0,1,-.1,1.3,-.4c.3,-.3,.5,-.7,.5,-1.2c0,-.5,-.2,-.9,-.5,-1.2c-.3,-.3,-.7,-.4,-1.3,-.4c-.3,0,-.5,0,-.8,.1c-.2,0,-.5,.1,-.8,.2v-3.6Z" class="g5_217"/>
<path d="M191.2,517.1H541.8" class="g9_217"/>
<path d="M191.2,517.1h-3.4" class="ga_217"/>
<path d="M170.5,515.5c0,.4,.1,.7,.4,.9c.2,.2,.5,.3,.9,.3c.5,0,.8,-.1,1,-.3c.2,-.2,.4,-.5,.4,-.9c0,-.3,-.2,-.6,-.4,-.8c-.2,-.2,-.5,-.3,-1,-.3c-.4,0,-.7,.1,-.9,.3c-.3,.2,-.4,.5,-.4,.8Zm.4,1.6c-.4,-.1,-.8,-.3,-1,-.6c-.2,-.3,-.4,-.6,-.4,-1.1c0,-.5,.3,-1,.7,-1.3c.4,-.3,.9,-.5,1.6,-.5c.7,0,1.3,.2,1.7,.5c.4,.3,.6,.8,.6,1.3c0,.5,-.1,.8,-.3,1.1c-.3,.3,-.6,.5,-1,.6c.5,.1,.8,.3,1.1,.6c.3,.3,.4,.7,.4,1.2c0,.7,-.2,1.2,-.6,1.6c-.5,.3,-1.1,.5,-1.9,.5c-.8,0,-1.4,-.2,-1.8,-.5c-.4,-.4,-.6,-.9,-.6,-1.6c0,-.5,.1,-.9,.4,-1.2c.2,-.3,.6,-.5,1.1,-.6Zm.9,.4c-.4,0,-.8,.1,-1.1,.3c-.2,.3,-.3,.6,-.3,1.1c0,.4,.1,.7,.3,1c.3,.2,.7,.3,1.1,.3c.5,0,.9,-.1,1.1,-.3c.3,-.3,.4,-.6,.4,-1c0,-.5,-.1,-.8,-.4,-1.1c-.2,-.2,-.6,-.3,-1.1,-.3Z" class="g5_217"/>
<path d="M176,520.9h1v-1.2h-1Z" class="g5_217"/>
<path d="M183.2,513.9v.9c-.2,-.2,-.4,-.2,-.7,-.3c-.2,-.1,-.5,-.1,-.7,-.1c-.7,0,-1.2,.2,-1.5,.7c-.3,.4,-.5,1,-.6,1.9c.2,-.3,.5,-.5,.7,-.6c.3,-.2,.6,-.3,1,-.3c.7,0,1.3,.3,1.7,.7c.4,.4,.6,1,.6,1.8c0,.7,-.2,1.3,-.6,1.8c-.5,.4,-1.1,.6,-1.8,.6c-.8,0,-1.4,-.3,-1.9,-.9c-.4,-.7,-.6,-1.6,-.6,-2.8c0,-1.1,.2,-2,.8,-2.7c.5,-.7,1.2,-1,2.1,-1c.3,0,.5,0,.8,.1c.2,0,.5,.1,.7,.2Zm-1.9,3c-.4,0,-.8,.2,-1,.5c-.3,.3,-.4,.7,-.4,1.2c0,.5,.1,.9,.4,1.2c.2,.3,.6,.4,1,.4c.5,0,.8,-.1,1.1,-.4c.2,-.3,.3,-.7,.3,-1.2c0,-.5,-.1,-.9,-.3,-1.2c-.3,-.3,-.6,-.5,-1.1,-.5Z" class="g5_217"/>
<path d="M163.2,638.2c.7,.2,1.1,.5,1.3,.7c.2,.3,.3,.6,.3,1v.7H164v-.5c0,-.3,0,-.5,-.1,-.6c-.1,-.1,-.4,-.3,-.8,-.5l-.4,-.1l-5.3,2.2v-1l4.2,-1.7l-4.2,-1.6v-1l5.8,2.4Z" class="g5_217"/>
<path d="M207.1,519.7l3.9,12.4l3.8,11.7l3.8,11c13.8,38.6,31.4,77.2,57.5,109.1l4.5,5.3l5.1,5.7c27.1,29.3,65,53.6,100.9,70.3l6.4,2.7l5.7,2.3l5.8,2l5.1,1.5c18.2,5.1,35.8,5.4,52.4,-4.5l3.2,-2l3.2,-2.3c23.2,-18.1,37.8,-51.8,47.9,-78.6l3.2,-8.9l3.2,-9.6l3.1,-10.1" class="gb_217"/>
<path d="M191.2,769.1V507.8M541.8,769.1V507.8M191.2,769.1H541.8M191.2,507.8H541.8" class="gc_217"/>
<path d="M295.5,501.9h1.2v-8.5h-1.2Z" class="g5_217"/>
<path d="M304.3,498v3.9h-1.1v-3.8c0,-.6,-.1,-1.1,-.3,-1.4c-.2,-.3,-.6,-.4,-1.1,-.4c-.6,0,-1,.1,-1.3,.5c-.4,.4,-.5,.9,-.5,1.5v3.6h-1.1v-6.4H300v1c.2,-.4,.5,-.7,.9,-.9c.3,-.2,.7,-.3,1.2,-.3c.7,0,1.3,.3,1.6,.7c.4,.5,.6,1.2,.6,2Z" class="g5_217"/>
<path d="M307.5,493.7v1.8h2.1v.8h-2.1v3.5c0,.5,0,.9,.2,1c.1,.2,.4,.3,.9,.3h1v.8h-1c-.9,0,-1.4,-.1,-1.7,-.4c-.3,-.3,-.5,-.9,-.5,-1.7v-3.5h-.8v-.8h.8v-1.8h1.1Z" class="g5_217"/>
<path d="M315.5,498.1c0,-.5,-.2,-1,-.5,-1.3c-.3,-.4,-.7,-.6,-1.3,-.6c-.5,0,-1,.2,-1.4,.5c-.3,.4,-.5,.8,-.6,1.4h3.8Zm1,.4v.5h-4.8c0,.7,.2,1.3,.6,1.6c.4,.4,1,.6,1.7,.6c.4,0,.8,0,1.2,-.1c.3,-.1,.7,-.3,1.1,-.5v1c-.4,.2,-.8,.3,-1.2,.4c-.4,.1,-.8,.1,-1.2,.1c-1,0,-1.8,-.3,-2.4,-.9c-.6,-.6,-.9,-1.4,-.9,-2.4c0,-1.1,.3,-1.9,.8,-2.5c.6,-.6,1.4,-1,2.3,-1c.9,0,1.6,.3,2.1,.9c.5,.5,.7,1.3,.7,2.3Z" class="g5_217"/>
<path d="M322,496.5c-.1,-.1,-.2,-.1,-.4,-.2c-.1,0,-.3,0,-.4,0c-.6,0,-1.1,.2,-1.4,.6c-.3,.4,-.5,.9,-.5,1.6v3.4h-1.1v-6.4h1.1v1c.2,-.4,.5,-.7,.9,-.9c.3,-.2,.8,-.3,1.3,-.3c0,0,.1,0,.2,.1c.1,0,.2,0,.3,0v1.1Z" class="g5_217"/>
<path d="M327.7,498.7c0,-.8,-.1,-1.4,-.4,-1.8c-.4,-.5,-.8,-.7,-1.4,-.7c-.5,0,-1,.2,-1.3,.7c-.3,.4,-.5,1,-.5,1.8c0,.8,.2,1.4,.5,1.9c.3,.4,.8,.6,1.3,.6c.6,0,1,-.2,1.4,-.6c.3,-.5,.4,-1.1,.4,-1.9Zm-3.6,2.3v3.4h-1v-8.9h1v1c.3,-.4,.6,-.7,.9,-.9c.3,-.2,.7,-.3,1.2,-.3c.8,0,1.4,.4,1.9,1c.5,.6,.7,1.4,.7,2.4c0,1,-.2,1.9,-.7,2.5c-.5,.6,-1.1,.9,-1.9,.9c-.5,0,-.9,-.1,-1.2,-.3c-.3,-.2,-.6,-.4,-.9,-.8Z" class="g5_217"/>
<path d="M333.1,495.3c.9,0,1.6,.3,2.2,.9c.5,.6,.8,1.5,.8,2.5c0,1.1,-.3,1.9,-.8,2.5c-.6,.6,-1.3,.9,-2.2,.9c-.9,0,-1.7,-.3,-2.2,-.9c-.5,-.6,-.8,-1.4,-.8,-2.5c0,-1,.3,-1.9,.8,-2.5c.5,-.6,1.3,-.9,2.2,-.9Zm0,.9c-.6,0,-1,.3,-1.3,.7c-.4,.4,-.5,1.1,-.5,1.8c0,.8,.1,1.4,.4,1.8c.4,.5,.8,.7,1.4,.7c.6,0,1,-.2,1.3,-.7c.4,-.4,.5,-1,.5,-1.8c0,-.7,-.1,-1.3,-.5,-1.8c-.3,-.4,-.7,-.7,-1.3,-.7Z" class="g5_217"/>
<path d="M337.8,501.9h1.1V493h-1.1Z" class="g5_217"/>
<path d="M346.1,498.3v3.6h-1V501c-.3,.4,-.6,.6,-.9,.8c-.4,.2,-.8,.3,-1.4,.3c-.6,0,-1.1,-.2,-1.5,-.6c-.4,-.3,-.6,-.8,-.6,-1.4c0,-.8,.2,-1.3,.7,-1.7c.5,-.3,1.2,-.5,2.2,-.5h1.5v-.1c0,-.5,-.2,-.9,-.5,-1.2c-.3,-.2,-.8,-.4,-1.4,-.4c-.3,0,-.7,.1,-1,.2c-.4,.1,-.7,.2,-1,.4v-1c.3,-.2,.7,-.3,1.1,-.3c.3,-.1,.7,-.2,1,-.2c1,0,1.7,.3,2.1,.8c.5,.4,.7,1.2,.7,2.2Zm-2.1,.4c-.8,0,-1.4,.1,-1.8,.3c-.3,.2,-.5,.5,-.5,1c0,.4,.2,.7,.4,.9c.3,.2,.6,.3,1,.3c.6,0,1.1,-.2,1.4,-.6c.4,-.4,.6,-1,.6,-1.7v-.2H344Z" class="g5_217"/>
<path d="M349.3,493.7v1.8h2.2v.8h-2.2v3.5c0,.5,.1,.9,.3,1c.1,.2,.4,.3,.8,.3h1.1v.8h-1.1c-.8,0,-1.3,-.1,-1.6,-.4c-.4,-.3,-.5,-.9,-.5,-1.7v-3.5h-.8v-.8h.8v-1.8h1Z" class="g5_217"/>
<path d="M352.9,493H354v1.3h-1.1Zm0,2.5H354v6.4h-1.1Z" class="g5_217"/>
<path d="M361.6,498v3.9h-1.1v-3.8c0,-.6,-.1,-1.1,-.4,-1.4c-.2,-.3,-.6,-.4,-1,-.4c-.6,0,-1.1,.1,-1.4,.5c-.3,.4,-.5,.9,-.5,1.5v3.6h-1v-6.4h1v1c.3,-.4,.6,-.7,.9,-.9c.4,-.2,.8,-.3,1.2,-.3c.7,0,1.3,.3,1.7,.7c.4,.5,.6,1.2,.6,2Z" class="g5_217"/>
<path d="M369,501.1c0,1.1,-.3,2,-.8,2.5c-.5,.5,-1.2,.8,-2.2,.8c-.4,0,-.7,0,-1.1,-.1c-.3,0,-.6,-.1,-.9,-.2V503c.3,.2,.6,.3,.9,.4c.3,.1,.6,.1,.9,.1c.7,0,1.2,-.2,1.6,-.5c.3,-.4,.5,-.9,.5,-1.7v-.5c-.2,.4,-.5,.7,-.8,.9c-.4,.1,-.8,.2,-1.3,.2c-.8,0,-1.4,-.3,-1.9,-.9c-.5,-.6,-.7,-1.4,-.7,-2.4c0,-1,.2,-1.8,.7,-2.4c.5,-.6,1.1,-.9,1.9,-.9c.5,0,.9,.1,1.3,.3c.3,.2,.6,.5,.8,.9v-1H369v5.6Zm-1.1,-2.5c0,-.7,-.2,-1.3,-.5,-1.7c-.3,-.5,-.7,-.7,-1.3,-.7c-.6,0,-1,.2,-1.3,.7c-.3,.4,-.5,1,-.5,1.7c0,.8,.2,1.4,.5,1.8c.3,.4,.7,.7,1.3,.7c.6,0,1,-.3,1.3,-.7c.3,-.4,.5,-1,.5,-1.8Z" class="g5_217"/>
<path d="M379.5,498.7c0,-.8,-.2,-1.4,-.5,-1.8c-.3,-.5,-.7,-.7,-1.3,-.7c-.6,0,-1,.2,-1.3,.7c-.3,.4,-.5,1,-.5,1.8c0,.8,.2,1.4,.5,1.9c.3,.4,.7,.6,1.3,.6c.6,0,1,-.2,1.3,-.6c.3,-.5,.5,-1.1,.5,-1.9Zm-3.6,2.3v3.4h-1.1v-8.9h1.1v1c.2,-.4,.5,-.7,.8,-.9c.4,-.2,.8,-.3,1.3,-.3c.7,0,1.4,.4,1.9,1c.5,.6,.7,1.4,.7,2.4c0,1,-.2,1.9,-.7,2.5c-.5,.6,-1.2,.9,-1.9,.9c-.5,0,-.9,-.1,-1.3,-.3c-.3,-.2,-.6,-.4,-.8,-.8Z" class="g5_217"/>
<path d="M384.9,495.3c.9,0,1.6,.3,2.1,.9c.5,.6,.8,1.5,.8,2.5c0,1.1,-.3,1.9,-.8,2.5c-.5,.6,-1.2,.9,-2.1,.9c-1,0,-1.7,-.3,-2.2,-.9c-.5,-.6,-.8,-1.4,-.8,-2.5c0,-1,.3,-1.9,.8,-2.5c.5,-.6,1.2,-.9,2.2,-.9Zm0,.9c-.6,0,-1.1,.3,-1.4,.7c-.3,.4,-.5,1.1,-.5,1.8c0,.8,.2,1.4,.5,1.8c.3,.5,.8,.7,1.4,.7c.5,0,1,-.2,1.3,-.7c.3,-.4,.5,-1,.5,-1.8c0,-.7,-.2,-1.3,-.5,-1.8c-.3,-.4,-.8,-.7,-1.3,-.7Z" class="g5_217"/>
<path d="M389.6,501.9h1V493h-1Z" class="g5_217"/>
<path d="M395.5,502.5c-.3,.8,-.6,1.3,-.9,1.5c-.2,.3,-.6,.4,-1.1,.4h-.8v-.9h.6c.3,0,.5,-.1,.7,-.2c.1,-.1,.3,-.5,.5,-1l.2,-.5l-2.6,-6.3h1.1l2,5l2,-5h1.1l-2.8,7Z" class="g5_217"/>
<path d="M405.2,498v3.9h-1.1v-3.8c0,-.6,-.1,-1.1,-.3,-1.4c-.3,-.3,-.6,-.4,-1.1,-.4c-.6,0,-1,.1,-1.4,.5c-.3,.4,-.5,.9,-.5,1.5v3.6h-1v-6.4h1v1c.3,-.4,.6,-.7,.9,-.9c.4,-.2,.8,-.3,1.2,-.3c.8,0,1.3,.3,1.7,.7c.4,.5,.6,1.2,.6,2Z" class="g5_217"/>
<path d="M409.8,495.3c.9,0,1.6,.3,2.1,.9c.6,.6,.8,1.5,.8,2.5c0,1.1,-.2,1.9,-.8,2.5c-.5,.6,-1.2,.9,-2.1,.9c-.9,0,-1.7,-.3,-2.2,-.9c-.5,-.6,-.8,-1.4,-.8,-2.5c0,-1,.3,-1.9,.8,-2.5c.5,-.6,1.3,-.9,2.2,-.9Zm0,.9c-.6,0,-1,.3,-1.4,.7c-.3,.4,-.5,1.1,-.5,1.8c0,.8,.2,1.4,.5,1.8c.4,.5,.8,.7,1.4,.7c.5,0,1,-.2,1.3,-.7c.3,-.4,.5,-1,.5,-1.8c0,-.7,-.2,-1.3,-.5,-1.8c-.3,-.4,-.8,-.7,-1.3,-.7Z" class="g5_217"/>
<path d="M419.5,496.7c.3,-.4,.6,-.8,1,-1c.3,-.2,.8,-.4,1.3,-.4c.6,0,1.1,.3,1.5,.7c.4,.5,.6,1.2,.6,2v3.9h-1.1v-3.8c0,-.6,-.1,-1.1,-.3,-1.4c-.3,-.3,-.6,-.4,-1,-.4c-.6,0,-1,.1,-1.3,.5c-.4,.4,-.5,.9,-.5,1.5v3.6h-1.1v-3.8c0,-.6,-.1,-1.1,-.3,-1.4c-.2,-.3,-.6,-.4,-1,-.4c-.6,0,-1,.1,-1.3,.5c-.3,.4,-.5,.9,-.5,1.5v3.6h-1.1v-6.4h1.1v1c.3,-.4,.5,-.7,.9,-.9c.3,-.2,.7,-.3,1.2,-.3c.4,0,.8,.2,1.2,.4c.3,.2,.5,.6,.7,1Z" class="g5_217"/>
<path d="M426,493h1v1.3h-1Zm0,2.5h1v6.4h-1Z" class="g5_217"/>
<path d="M434.3,498.3v3.6h-1.1V501c-.2,.4,-.5,.6,-.9,.8c-.3,.2,-.8,.3,-1.3,.3c-.7,0,-1.2,-.2,-1.6,-.6c-.4,-.3,-.6,-.8,-.6,-1.4c0,-.8,.3,-1.3,.8,-1.7c.4,-.3,1.2,-.5,2.1,-.5h1.5v-.1c0,-.5,-.1,-.9,-.5,-1.2c-.3,-.2,-.7,-.4,-1.3,-.4c-.4,0,-.7,.1,-1.1,.2c-.3,.1,-.7,.2,-1,.4v-1c.4,-.2,.8,-.3,1.1,-.3c.4,-.1,.7,-.2,1.1,-.2c.9,0,1.6,.3,2.1,.8c.4,.4,.7,1.2,.7,2.2Zm-2.1,.4c-.9,0,-1.5,.1,-1.8,.3c-.3,.2,-.5,.5,-.5,1c0,.4,.1,.7,.4,.9c.2,.2,.5,.3,1,.3c.6,0,1,-.2,1.4,-.6c.3,-.4,.5,-1,.5,-1.7v-.2h-1Z" class="g5_217"/>
<path d="M436.5,501.9h1V493h-1Z" class="g5_217"/>
</svg>