<?xml version="1.0" encoding="UTF-8" standalone="no"?>
<!DOCTYPE svg PUBLIC "-//W3C//DTD SVG 1.1//EN"
"http://www.w3.org/Graphics/SVG/1.1/DTD/svg11.dtd">
<svg viewBox="0 0 811 1017" version="1.1" xmlns="http://www.w3.org/2000/svg" xmlns:xlink="http://www.w3.org/1999/xlink">
<defs>
<clipPath id="c0_57"><path d="M156.1,655.8v-220h220v220Z"/></clipPath>
<style type="text/css"><![CDATA[
.g0_57{
fill: #0E0E0E;
}
]]></style>
</defs>
<path d="M412.3,183c0,-.6,-.5,-1,-1,-1c-.3,0,-.7,.1,-1,.4c-.3,.2,-.6,.5,-.8,.8c0,-.6,-.4,-1.2,-1.1,-1.2c-1.1,0,-2.1,1.2,-2.4,2l.2,.1c.3,-.5,1.1,-1.7,2,-1.7c.2,0,.3,.5,.3,1c0,.3,0,.6,-.2,1.1l-.3,1.2c-.2,.6,-.4,1.4,-.7,1.8c-.2,.2,-.4,.6,-.8,.6c-.4,0,-.7,0,-.6,-.4c0,-.4,0,-.8,-.4,-.8c-.5,0,-.7,.3,-.7,.8c0,.5,.5,.9,1.1,.9c1,0,1.7,-.8,2.1,-1.4c.1,.8,.5,1.4,1.4,1.4c1.2,0,2,-1.1,2.4,-1.8l-.2,-.2c-.5,.6,-1.1,1.7,-1.9,1.7c-.5,0,-.7,-.7,-.7,-1.3c0,-.3,.1,-.8,.2,-1.3l.2,-.7c.1,-.6,.3,-1.3,.6,-1.7c.2,-.2,.6,-.9,.9,-.9c.5,0,.4,.3,.4,.6c0,.4,.1,.6,.5,.6c.3,0,.5,-.3,.5,-.6Z" class="g0_57"/>
<path d="M417.7,186.6h7.6v-.8h-7.6Zm0,-3h7.6v-.8h-7.6Z" class="g0_57"/>
<path d="M431.4,188.6c1.2,0,2.1,-1.3,2.5,-2.1l-.3,-.1c-.3,.4,-.9,1.6,-1.7,1.6c-.2,0,-.3,-.4,-.3,-.6c.1,-.2,.1,-.5,.3,-1l1,-3.9h1.3l.1,-.4H433l.4,-1.6h-1l-.4,1.6h-1.1l-.1,.4h1.1l-1,3.6c-.1,.4,-.2,.8,-.2,1.1c-.1,.3,-.1,.5,-.1,.6c0,.6,.2,.8,.8,.8Z" class="g0_57"/>
<path d="M442.3,183c0,-.6,-.4,-1,-1,-1c-.3,0,-.6,.1,-.9,.4c-.3,.2,-.6,.5,-.9,.8c0,-.6,-.4,-1.2,-1,-1.2c-1.2,0,-2.1,1.2,-2.5,2l.2,.1c.4,-.5,1.1,-1.7,2,-1.7c.3,0,.4,.5,.4,1c0,.3,0,.6,-.2,1.1l-.3,1.2c-.2,.6,-.4,1.4,-.8,1.8c-.1,.2,-.4,.6,-.7,.6c-.5,0,-.8,0,-.7,-.4c.1,-.4,.1,-.8,-.4,-.8c-.4,0,-.6,.3,-.6,.8c0,.5,.5,.9,1.1,.9c1,0,1.7,-.8,2.1,-1.4c.1,.8,.5,1.4,1.3,1.4c1.2,0,2.1,-1.1,2.5,-1.8l-.2,-.2c-.5,.6,-1.2,1.7,-2,1.7c-.4,0,-.6,-.7,-.6,-1.3c0,-.3,0,-.8,.2,-1.3l.1,-.7c.1,-.6,.4,-1.3,.7,-1.7c.1,-.2,.5,-.9,.9,-.9c.4,0,.4,.3,.4,.6c-.1,.4,.1,.6,.4,.6c.4,0,.5,-.3,.5,-.6Z" class="g0_57"/>
<path d="M445.9,187.3c0,.4,-.2,1.1,-.3,1.5c-.1,.4,-.5,1.3,-.8,1.6c-.2,.3,-.5,.6,-.9,.6c-.3,0,-.6,-.3,-.6,-.7c0,-.5,.1,-1.3,.3,-1.7c.3,-.6,.9,-1.9,1.8,-1.9c.3,0,.5,.2,.5,.6Zm.1,3.9c.3,0,.6,-.1,.8,-.4c.2,-.2,.4,-.6,.6,-1.2l-.2,-.1c-.1,.4,-.5,1.4,-.9,1.4c-.2,0,-.3,-.4,-.3,-.6c0,-.1,0,-.2,0,-.4c.1,-.4,.2,-.8,.3,-1.3c.1,-.3,.2,-.7,.4,-1.2l1.1,-4.2h-1.7v.1c.3,.1,.4,.1,.5,.1c.1,.1,.3,.3,.3,.4c0,.2,-.1,.4,-.2,.6l-.7,2.5c-.1,-.3,-.3,-.5,-.7,-.5c-.7,0,-1.4,.7,-1.8,1.2c-.2,.2,-.4,.5,-.5,.7c-.2,.4,-.4,1,-.4,1.6c0,.4,.1,.7,.3,1c.1,.2,.4,.3,.7,.3c1,0,1.4,-.6,1.7,-1.2l.1,.1c0,0,0,.1,0,.2c-.1,0,-.1,.1,-.1,.2c0,.4,.2,.7,.7,.7Z" class="g0_57"/>
<path d="M456,184.2h-3.3v1H456v3.3h1v-3.3h3.2v-1H457V181h-1v3.2Z" class="g0_57"/>
<path d="M471.2,183c0,-.6,-.4,-1,-1,-1c-.3,0,-.6,.1,-.9,.4c-.3,.2,-.6,.5,-.9,.8c0,-.6,-.4,-1.2,-1,-1.2c-1.2,0,-2.1,1.2,-2.5,2l.2,.1c.4,-.5,1.1,-1.7,2,-1.7c.3,0,.4,.5,.4,1c0,.3,-.1,.6,-.2,1.1l-.3,1.2c-.2,.6,-.4,1.4,-.8,1.8c-.1,.2,-.4,.6,-.7,.6c-.5,0,-.8,0,-.7,-.4c.1,-.4,0,-.8,-.4,-.8c-.4,0,-.6,.3,-.6,.8c0,.5,.5,.9,1,.9c1.1,0,1.8,-.8,2.2,-1.4c.1,.8,.5,1.4,1.3,1.4c1.2,0,2.1,-1.1,2.5,-1.8l-.2,-.2c-.5,.6,-1.2,1.7,-2,1.7c-.4,0,-.6,-.7,-.6,-1.3c0,-.3,0,-.8,.2,-1.3l.1,-.7c.1,-.6,.4,-1.3,.7,-1.7c.1,-.2,.5,-.9,.9,-.9c.4,0,.4,.3,.4,.6c-.1,.4,.1,.6,.4,.6c.4,0,.5,-.3,.5,-.6Z" class="g0_57"/>
<path d="M472.4,189.5c0,-1.9,.6,-3.3,1.7,-3.3c.4,0,.6,.3,.6,.8c0,.4,.1,.8,-.1,1.3c-.2,.7,-.7,2.3,-1.6,2.3c-.4,0,-.6,-.6,-.6,-1.1Zm3.1,-1.7v-.3c0,-.4,-.2,-.8,-.4,-1c-.2,-.3,-.5,-.5,-1,-.5c-.4,0,-.6,.1,-1,.3c-.6,.3,-1.1,.9,-1.3,1.6c-.2,.4,-.2,.8,-.2,1.2c0,.5,.1,1,.4,1.2c.2,.3,.5,.5,1,.5c.7,0,1.4,-.5,1.7,-1c.4,-.5,.8,-1.2,.8,-2Z" class="g0_57"/>
<path d="M404.9,213c0,.6,.4,1,1.1,1c.4,0,.8,-.2,1.3,-.6c.8,-.7,2,-2.2,2.8,-3.4c.3,-.7,.7,-1.3,1,-1.8c.4,-.8,1.1,-2.2,1.1,-3c0,-.2,0,-.4,-.1,-.6c-.1,-.2,-.3,-.2,-.5,-.2c-.2,0,-.3,.1,-.4,.2c-.2,.1,-.2,.3,-.2,.6c0,.5,.2,1,.2,1.4c0,.5,-.2,1.1,-.5,1.5c-.2,.5,-.4,.9,-.8,1.5h-.1l-.3,-2c-.1,-.5,-.3,-1.6,-.4,-2c-.2,-.7,-.3,-1.2,-1.3,-1.2c-1.2,0,-1.4,1.8,-1.6,2.5l.3,.1c.1,-.5,.5,-2.3,1,-2.3c.3,0,.5,1.1,.5,1.3c.1,.3,.2,.7,.3,1.4l.6,3.5c-.3,.8,-1.2,1.6,-1.8,2.1c-.2,.2,-.5,.3,-.7,.3c-.1,0,-.2,-.1,-.2,-.2c-.2,-.2,-.2,-.7,-.7,-.7c-.4,0,-.6,.2,-.6,.6Z" class="g0_57"/>
<path d="M417.7,209h7.6v-.9h-7.6Zm0,-3h7.6v-.9h-7.6Z" class="g0_57"/>
<path d="M431.4,211c1.2,0,2.1,-1.3,2.5,-2.1l-.3,-.2c-.3,.5,-.9,1.7,-1.7,1.7c-.2,0,-.3,-.5,-.3,-.6c.1,-.2,.1,-.6,.3,-1l1,-4h1.3l.1,-.3H433l.4,-1.6h-1l-.4,1.6h-1.1l-.1,.3h1.1l-1,3.6c-.1,.5,-.2,.9,-.2,1.2c-.1,.2,-.1,.4,-.1,.6c0,.5,.2,.8,.8,.8Z" class="g0_57"/>
<path d="M434.1,213c0,.6,.5,1,1.1,1c.4,0,.8,-.2,1.3,-.6c.8,-.7,2.1,-2.2,2.8,-3.4c.4,-.7,.7,-1.3,1,-1.8c.4,-.8,1.1,-2.2,1.1,-3c0,-.2,0,-.4,-.1,-.6c-.1,-.2,-.3,-.2,-.5,-.2c-.1,0,-.3,.1,-.4,.2c-.2,.1,-.2,.3,-.2,.6c0,.5,.2,1,.2,1.4c0,.5,-.2,1.1,-.4,1.5c-.3,.5,-.5,.9,-.9,1.5l-.4,-2c-.1,-.5,-.3,-1.6,-.4,-2c-.2,-.7,-.3,-1.2,-1.3,-1.2c-1.2,0,-1.4,1.8,-1.6,2.5l.3,.1c.1,-.5,.6,-2.3,1,-2.3c.4,0,.5,1.1,.6,1.3c0,.3,.1,.7,.2,1.4l.6,3.5c-.3,.8,-1.1,1.6,-1.7,2.1c-.3,.2,-.6,.3,-.8,.3c-.1,0,-.1,-.1,-.2,-.2c-.2,-.2,-.2,-.7,-.7,-.7c-.4,0,-.6,.2,-.6,.6Z" class="g0_57"/>
<path d="M445,209.6c0,.5,-.1,1.2,-.2,1.6c-.2,.4,-.5,1.3,-.8,1.6c-.2,.2,-.6,.6,-.9,.6c-.4,0,-.6,-.3,-.6,-.7c0,-.5,.1,-1.3,.3,-1.7c.2,-.6,.9,-2,1.7,-2c.3,0,.5,.3,.5,.6Zm.2,4c.3,0,.5,-.1,.8,-.4c.2,-.3,.4,-.7,.6,-1.3h-.2c-.2,.4,-.5,1.4,-.9,1.4c-.3,0,-.3,-.4,-.3,-.6c0,-.1,0,-.2,0,-.4c.1,-.4,.2,-.8,.3,-1.3c.1,-.3,.2,-.7,.3,-1.2l1.1,-4.2h-1.6v.1c.3,0,.4,.1,.5,.1c.1,.1,.2,.2,.2,.3c0,.2,-.1,.4,-.1,.7l-.7,2.5c-.2,-.3,-.3,-.5,-.7,-.5c-.8,0,-1.5,.7,-1.9,1.2c-.1,.2,-.3,.4,-.4,.7c-.3,.4,-.5,1,-.5,1.6c0,.4,.1,.7,.3,.9c.2,.2,.4,.4,.8,.4c1,0,1.4,-.6,1.7,-1.2h.1c-.1,.1,-.1,.2,-.1,.2c0,.1,0,.2,0,.2c0,.5,.2,.8,.7,.8Z" class="g0_57"/>
<path d="M455.2,206.6h-3.3v1h3.3v3.3h.9v-3.3h3.3v-1h-3.3v-3.3h-.9v3.3Z" class="g0_57"/>
<path d="M462.2,213c0,.6,.4,1,1.1,1c.4,0,.8,-.2,1.2,-.6c.9,-.7,2.1,-2.2,2.9,-3.4c.3,-.7,.7,-1.3,1,-1.8c.4,-.8,1.1,-2.2,1.1,-3c0,-.2,0,-.4,-.1,-.6c-.1,-.2,-.3,-.2,-.5,-.2c-.2,0,-.3,.1,-.4,.2c-.2,.1,-.3,.3,-.3,.6c0,.5,.3,1,.3,1.4c0,.5,-.3,1.1,-.5,1.5c-.2,.5,-.5,.9,-.8,1.5h-.1l-.3,-2c-.1,-.5,-.3,-1.6,-.4,-2c-.2,-.7,-.4,-1.2,-1.3,-1.2c-1.2,0,-1.4,1.8,-1.7,2.5l.4,.1c.1,-.5,.5,-2.3,1,-2.3c.3,0,.5,1.1,.5,1.3c.1,.3,.2,.7,.3,1.4l.6,3.5c-.3,.8,-1.2,1.6,-1.8,2.1c-.2,.2,-.5,.3,-.7,.3c-.1,0,-.2,-.1,-.2,-.2c-.2,-.2,-.2,-.7,-.7,-.7c-.4,0,-.6,.2,-.6,.6Z" class="g0_57"/>
<path d="M470.7,211.9c0,-1.9,.7,-3.3,1.7,-3.3c.4,0,.7,.3,.7,.8c0,.3,0,.7,-.1,1.3c-.2,.7,-.8,2.3,-1.6,2.3c-.5,0,-.7,-.6,-.7,-1.1Zm.6,1.3c.8,0,1.4,-.6,1.8,-1c.3,-.6,.8,-1.3,.8,-2.1c0,-.6,-.2,-1,-.5,-1.3c-.2,-.2,-.5,-.4,-1,-.4c-.3,0,-.6,.1,-.9,.2c-.6,.4,-1.1,1,-1.4,1.7c-.1,.4,-.2,.8,-.2,1.1c0,.6,.1,1.1,.4,1.3c.3,.3,.6,.5,1,.5Z" class="g0_57"/>
<path d="M407.8,229.1c.3,0,.5,-.1,.5,-.4c0,-.5,-.6,-.4,-.7,-.7c-.1,-.2,.1,-.4,.3,-.4c.9,0,1.4,1,2.6,1l-3.4,3.2c-.4,.3,-.7,.7,-.7,1.1c0,.2,.2,.3,.3,.3c.7,0,.2,-.8,.9,-.8c.9,0,1.5,1,2.6,1c1.1,0,1.5,-1.2,1.8,-2.2h-.3c-.2,.6,-.5,1.1,-1.2,1.1c-.9,0,-1.7,-.8,-2.6,-.8c1.3,-1.3,2.5,-2.3,3.8,-3.6c.2,-.2,.4,-.4,.4,-.6c0,-.3,-.1,-.4,-.3,-.4c-.2,0,-.3,.2,-.4,.4c-.1,.2,-.4,.4,-.7,.4c-.8,0,-1.4,-.9,-2.5,-.9c-.7,0,-1.3,.5,-1.3,1.4c0,.6,.3,.9,.9,.9Z" class="g0_57"/>
<path d="M417.7,231.4h7.6v-.9h-7.6Zm0,-3.1h7.6v-.8h-7.6Z" class="g0_57"/>
<path d="M431.4,233.4c1.2,0,2.1,-1.3,2.5,-2.1l-.3,-.2c-.3,.4,-.9,1.7,-1.7,1.7c-.2,0,-.3,-.5,-.3,-.6c.1,-.3,.1,-.6,.3,-1l1,-4h1.3l.1,-.3H433l.4,-1.6h-1l-.4,1.6h-1.1l-.1,.3h1.1l-1,3.6c-.1,.5,-.2,.9,-.2,1.1c-.1,.3,-.1,.5,-.1,.7c0,.5,.2,.8,.8,.8Z" class="g0_57"/>
<path d="M436.9,229.1c.3,0,.5,-.1,.5,-.4c0,-.5,-.6,-.4,-.7,-.7c-.1,-.2,.1,-.4,.3,-.4c.9,0,1.4,1,2.6,1l-3.4,3.2c-.3,.3,-.7,.7,-.7,1.1c0,.2,.2,.3,.3,.3c.7,0,.2,-.8,.9,-.8c1,0,1.5,1,2.6,1c1.2,0,1.6,-1.2,1.8,-2.2h-.3c-.2,.6,-.5,1.1,-1.2,1.1c-.9,0,-1.7,-.8,-2.6,-.8c1.4,-1.3,2.5,-2.3,3.8,-3.6c.2,-.2,.4,-.4,.4,-.6c0,-.3,-.1,-.4,-.2,-.4c-.3,0,-.4,.2,-.5,.4c-.1,.2,-.4,.4,-.7,.4c-.8,0,-1.4,-.9,-2.5,-.9c-.7,0,-1.3,.5,-1.3,1.4c0,.6,.4,.9,.9,.9Z" class="g0_57"/>
<path d="M445.1,232c0,.5,-.2,1.2,-.3,1.5c-.1,.5,-.5,1.3,-.8,1.7c-.2,.2,-.5,.6,-.9,.6c-.3,0,-.6,-.4,-.6,-.7c0,-.5,.2,-1.3,.3,-1.7c.3,-.7,.9,-2,1.8,-2c.3,0,.5,.3,.5,.6Zm.1,4c.3,0,.6,-.1,.8,-.4c.2,-.3,.5,-.7,.7,-1.3l-.3,-.1c-.1,.4,-.5,1.4,-.9,1.4c-.2,0,-.3,-.3,-.3,-.5c0,-.1,0,-.3,.1,-.4c0,-.5,.1,-.8,.3,-1.3c0,-.4,.1,-.8,.3,-1.2l1.1,-4.3h-1.6l-.1,.2c.3,0,.4,0,.5,.1c.2,.1,.3,.2,.3,.3c0,.2,-.1,.4,-.2,.6l-.6,2.5c-.2,-.3,-.4,-.4,-.8,-.4c-.7,0,-1.4,.6,-1.8,1.1c-.2,.3,-.3,.5,-.5,.8c-.2,.4,-.4,.9,-.4,1.5c0,.5,.1,.8,.3,1c.1,.2,.4,.4,.7,.4c1,0,1.4,-.6,1.8,-1.2c0,.1,0,.2,0,.2c0,.1,-.1,.2,-.1,.2c0,.5,.2,.8,.7,.8Z" class="g0_57"/>
<path d="M455.2,229H452v1h3.2v3.2h1V230h3.2v-1h-3.2v-3.3h-1V229Z" class="g0_57"/>
<path d="M465,229.1c.3,0,.5,-.1,.5,-.4c0,-.5,-.6,-.4,-.7,-.7c-.1,-.2,.1,-.4,.3,-.4c.9,0,1.4,1,2.6,1l-3.4,3.2c-.3,.3,-.7,.7,-.7,1.1c0,.2,.2,.3,.3,.3c.7,0,.2,-.8,.9,-.8c1,0,1.5,1,2.6,1c1.2,0,1.6,-1.2,1.8,-2.2h-.3c-.2,.6,-.5,1.1,-1.2,1.1c-.9,0,-1.7,-.8,-2.6,-.8c1.4,-1.3,2.5,-2.3,3.8,-3.6c.2,-.2,.4,-.4,.4,-.6c0,-.3,-.1,-.4,-.2,-.4c-.3,0,-.4,.2,-.5,.4c-.1,.2,-.4,.4,-.7,.4c-.8,0,-1.4,-.9,-2.5,-.9c-.6,0,-1.3,.5,-1.3,1.4c0,.6,.4,.9,.9,.9Z" class="g0_57"/>
<path d="M470.8,234.2c0,-1.8,.7,-3.2,1.7,-3.2c.4,0,.7,.2,.7,.8c0,.3,0,.7,-.2,1.2c-.1,.7,-.7,2.3,-1.5,2.3c-.5,0,-.7,-.6,-.7,-1.1Zm.6,1.4c.8,0,1.4,-.6,1.7,-1.1c.4,-.5,.8,-1.2,.8,-2.1c0,-.5,-.1,-.9,-.4,-1.2c-.2,-.3,-.5,-.5,-1,-.5c-.3,0,-.6,.1,-.9,.3c-.6,.4,-1.1,1,-1.4,1.7c-.2,.3,-.2,.7,-.2,1.1c0,.5,.1,1,.4,1.3c.3,.2,.5,.5,1,.5Z" class="g0_57"/>
<path d="M406.5,380.7q0,-.1,0,-.1c.2,-.3,.4,-.5,.6,-.8l.8,-.9l.9,1.2c.2,.3,.3,.4,.3,.7c0,.2,-.4,.3,-.8,.3v.3h3.8v-.3c-.6,0,-.8,-.2,-1.1,-.6l-2,-2.9l1.2,-1.3c.5,-.5,.8,-.9,1.7,-1V375h-2.8v.3c.3,0,.8,.1,.8,.4c0,.1,0,.2,0,.3c-.1,0,-.2,.2,-.4,.4l-.8,.9L407.6,376q-.1,-.2,-.1,-.3c0,-.2,.4,-.4,.8,-.4V375h-3.7v.3c.6,0,.6,.2,.9,.5l2.1,2.8l-1.9,2.1c-.3,.3,-.6,.4,-1.2,.4v.3h3.1v-.3c-.5,0,-1.1,-.1,-1.1,-.4Z" class="g0_57"/>
<path d="M416.9,379.5h7.7v-.8h-7.7Zm0,-3h7.7v-.8h-7.7Z" class="g0_57"/>
<path d="M431.4,380.7q0,-.1,0,-.1c.2,-.3,.4,-.5,.6,-.8l.8,-.9l.9,1.2c.2,.3,.3,.4,.3,.7c0,.2,-.4,.3,-.8,.3v.3H437v-.3c-.6,0,-.8,-.2,-1.1,-.6l-2,-2.9l1.2,-1.3c.5,-.5,.8,-.9,1.7,-1V375H434v.3c.3,0,.8,.1,.8,.4c0,.1,0,.2,-.1,.3c0,0,-.1,.2,-.3,.4l-.8,.9L432.5,376q-.1,-.2,-.1,-.3c0,-.2,.4,-.4,.8,-.4V375h-3.7v.3c.5,0,.6,.2,.9,.5l2.1,2.8l-1.9,2.1c-.3,.3,-.7,.4,-1.2,.4v.3h3v-.3c-.4,0,-1,-.1,-1,-.4Z" class="g0_57"/>
<path d="M438.1,382.4c0,-1.9,.7,-3.3,1.7,-3.3c.4,0,.7,.3,.7,.8c0,.4,0,.8,-.1,1.3c-.2,.7,-.8,2.3,-1.6,2.3c-.4,0,-.7,-.6,-.7,-1.1Zm.6,1.3c.8,0,1.4,-.5,1.8,-1c.4,-.5,.8,-1.3,.8,-2.1c0,-.5,-.2,-1,-.4,-1.2c-.3,-.3,-.6,-.5,-1.1,-.5c-.3,0,-.6,.1,-.9,.3c-.6,.3,-1.1,.9,-1.4,1.6c-.1,.4,-.2,.8,-.2,1.2c0,.5,.2,1,.4,1.2c.3,.3,.6,.5,1,.5Z" class="g0_57"/>
<path d="M449.7,377.1h-3.3v1h3.3v3.3h.9v-3.3h3.3v-1h-3.3v-3.2h-.9v3.2Z" class="g0_57"/>
<path d="M458.9,381.5c1.3,0,2.1,-1.3,2.6,-2.1l-.3,-.1c-.3,.4,-.9,1.6,-1.7,1.6c-.2,0,-.3,-.4,-.3,-.6c0,-.2,.1,-.5,.2,-1l1.1,-3.9h1.3l.1,-.4h-1.3l.4,-1.5h-1l-.4,1.5h-1.1l-.1,.4h1.1l-1,3.6c-.1,.4,-.2,.8,-.3,1.1c0,.3,-.1,.5,-.1,.6c0,.6,.3,.8,.8,.8Z" class="g0_57"/>
<path d="M464.8,380.7q0,-.1,0,-.1c.2,-.3,.4,-.5,.6,-.8l.8,-.9l.9,1.2c.2,.3,.3,.4,.3,.7c0,.2,-.4,.3,-.8,.3v.3h3.8v-.3c-.6,0,-.8,-.2,-1.1,-.6l-2,-2.9l1.2,-1.3c.5,-.5,.8,-.9,1.7,-1V375h-2.8v.3c.3,0,.8,.1,.8,.4c0,.1,0,.2,-.1,.3c0,0,-.1,.2,-.3,.4l-.8,.9L465.9,376q-.1,-.2,-.1,-.3c0,-.2,.4,-.4,.8,-.4V375h-3.7v.3c.5,0,.6,.2,.9,.5l2.1,2.8l-1.9,2.1c-.3,.3,-.7,.4,-1.2,.4v.3h3v-.3c-.4,0,-1,-.1,-1,-.4Z" class="g0_57"/>
<path d="M473.9,380.2c0,.4,-.2,1.1,-.3,1.5c-.1,.4,-.5,1.3,-.8,1.6c-.1,.3,-.5,.6,-.8,.6c-.4,0,-.6,-.3,-.6,-.7c0,-.5,.1,-1.3,.2,-1.7c.3,-.6,1,-1.9,1.8,-1.9c.3,0,.5,.2,.5,.6Zm-2.3,3.9h.1c1,0,1.3,-.6,1.7,-1.2v.1c0,0,0,.1,0,.2c0,0,0,.1,0,.2c0,.4,.2,.7,.6,.7h.1c.3,0,.5,-.1,.7,-.4c.3,-.2,.5,-.6,.7,-1.2l-.3,-.1c-.1,.4,-.5,1.4,-.9,1.4c-.2,0,-.2,-.4,-.2,-.6c0,-.1,0,-.2,0,-.4c0,-.4,.2,-.8,.3,-1.3c.1,-.3,.2,-.7,.3,-1.2l1.1,-4.2h-1.6l-.1,.1c.4,0,.5,.1,.6,.1c.1,.1,.2,.3,.2,.4c0,.2,-.1,.4,-.2,.6l-.6,2.5c-.2,-.3,-.3,-.5,-.8,-.5c-.7,0,-1.4,.7,-1.8,1.2c-.2,.2,-.3,.5,-.5,.7c-.2,.4,-.4,1,-.4,1.6c0,.4,.1,.7,.3,1c.2,.2,.4,.3,.7,.3Z" class="g0_57"/>
<image clip-path="url(#c0_57)" preserveAspectRatio="none" x="156" y="436" width="220" height="220" xlink:href="img/1.jpg"/>
<path d="M410.8,811.8c1.2,0,2.1,-1.3,2.5,-2.1l-.3,-.1c-.3,.4,-.9,1.6,-1.6,1.6c-.3,0,-.3,-.4,-.3,-.6c0,-.2,0,-.5,.2,-1l1,-3.9h1.3l.1,-.4h-1.3l.5,-1.6h-1.1l-.4,1.6h-1.1v.4h1l-1,3.6c-.1,.4,-.2,.8,-.2,1.1c-.1,.3,-.1,.5,-.1,.6c0,.6,.2,.8,.8,.8Z" class="g0_57"/>
<path d="M419.3,809.8h7.6V809h-7.6Zm0,-3h7.6V806h-7.6Z" class="g0_57"/>
<path d="M440.7,796.1c0,-.6,-.5,-1,-1,-1c-.4,0,-.7,.2,-1,.4c-.3,.2,-.6,.5,-.8,.9c0,-.7,-.5,-1.3,-1.1,-1.3c-1.1,0,-2.1,1.2,-2.4,2l.2,.1c.3,-.5,1.1,-1.7,2,-1.7c.2,0,.3,.5,.3,1c0,.3,0,.6,-.2,1.1l-.3,1.2c-.2,.6,-.4,1.4,-.7,1.8c-.2,.2,-.5,.7,-.8,.7c-.4,0,-.8,-.1,-.7,-.5c.1,-.3,.1,-.8,-.4,-.8c-.4,0,-.6,.3,-.6,.8c0,.5,.5,.9,1.1,.9c1,0,1.7,-.8,2.1,-1.4c.1,.8,.5,1.4,1.4,1.4c1.1,0,2,-1.1,2.4,-1.8l-.2,-.2c-.5,.7,-1.1,1.7,-1.9,1.7c-.5,0,-.7,-.6,-.7,-1.3c0,-.3,.1,-.7,.2,-1.3l.2,-.7c.1,-.6,.3,-1.3,.6,-1.6c.2,-.3,.6,-1,.9,-1c.4,0,.4,.3,.4,.6c0,.4,.1,.6,.4,.6c.4,0,.6,-.3,.6,-.6Z" class="g0_57"/>
<path d="M445.6,798.2h7.6v-.8h-7.6Z" class="g0_57"/>
<path d="M464.7,796.1c0,-.6,-.5,-1,-1,-1c-.3,0,-.6,.2,-1,.4c-.3,.2,-.6,.5,-.8,.9c0,-.7,-.4,-1.3,-1.1,-1.3c-1.1,0,-2,1.2,-2.4,2l.2,.1c.4,-.5,1.1,-1.7,2,-1.7c.3,0,.4,.5,.4,1c0,.3,-.1,.6,-.2,1.1l-.4,1.2c-.1,.6,-.4,1.4,-.7,1.8c-.1,.2,-.4,.7,-.8,.7c-.4,0,-.7,-.1,-.6,-.5c.1,-.3,0,-.8,-.4,-.8c-.5,0,-.6,.3,-.6,.8c0,.5,.4,.9,1,.9c1,0,1.8,-.8,2.1,-1.4h.1c.1,.8,.5,1.4,1.3,1.4c1.2,0,2,-1.1,2.5,-1.8l-.2,-.2c-.5,.7,-1.2,1.7,-2,1.7c-.4,0,-.6,-.6,-.6,-1.3c0,-.3,0,-.7,.1,-1.3l.2,-.7c.1,-.6,.4,-1.3,.6,-1.6c.2,-.3,.6,-1,1,-1c.4,0,.4,.3,.3,.6c0,.4,.2,.6,.5,.6c.4,0,.5,-.3,.5,-.6Z" class="g0_57"/>
<path d="M465.8,802.6c0,-1.8,.7,-3.3,1.7,-3.3c.4,0,.7,.3,.7,.8c0,.4,0,.8,-.1,1.3c-.2,.7,-.7,2.3,-1.6,2.3c-.4,0,-.7,-.6,-.7,-1.1Zm.7,1.3c.7,0,1.3,-.5,1.7,-1c.4,-.5,.8,-1.3,.8,-2.1c0,-.5,-.2,-1,-.4,-1.2c-.3,-.3,-.6,-.5,-1.1,-.5c-.3,0,-.6,.1,-.9,.3c-.6,.3,-1.1,.9,-1.4,1.6c-.1,.4,-.2,.8,-.2,1.2c0,.5,.2,1,.5,1.3c.2,.2,.5,.4,1,.4Z" class="g0_57"/>
<path d="M433.5,808.3h36.9v-.9H433.5Z" class="g0_57"/>
<path d="M452.2,816.4c0,-.5,-.5,-.9,-1,-.9c-.3,0,-.6,.1,-1,.3c-.3,.2,-.6,.5,-.8,.9c0,-.7,-.4,-1.2,-1.1,-1.2c-1.1,0,-2.1,1.1,-2.4,1.9l.2,.1c.4,-.5,1.1,-1.7,2,-1.7c.3,0,.4,.6,.4,1c0,.3,-.1,.7,-.2,1.2l-.4,1.1c-.1,.6,-.4,1.4,-.7,1.8c-.2,.3,-.4,.7,-.8,.7c-.4,0,-.7,-.1,-.6,-.5c.1,-.3,0,-.7,-.4,-.7c-.5,0,-.6,.3,-.6,.7c0,.6,.4,.9,1,.9c1,0,1.8,-.7,2.1,-1.4h.1c.1,.8,.5,1.4,1.3,1.4c1.2,0,2,-1.1,2.5,-1.8l-.2,-.2c-.5,.7,-1.2,1.7,-2,1.7c-.4,0,-.7,-.6,-.7,-1.2c0,-.4,.1,-.8,.2,-1.4l.2,-.7c.1,-.6,.4,-1.2,.6,-1.6c.2,-.3,.6,-.9,1,-.9c.4,0,.4,.3,.3,.6c0,.4,.2,.5,.5,.5c.4,0,.5,-.2,.5,-.6Z" class="g0_57"/>
<path d="M455.7,820.7c0,.5,-.1,1.1,-.2,1.5c-.2,.5,-.5,1.3,-.8,1.7c-.2,.2,-.6,.6,-.9,.6c-.4,0,-.6,-.4,-.6,-.7c0,-.5,.1,-1.3,.3,-1.7c.2,-.7,.9,-2,1.7,-2c.3,0,.5,.3,.5,.6Zm.2,4c.3,0,.5,-.2,.7,-.4c.3,-.3,.5,-.7,.7,-1.3l-.2,-.1c-.2,.4,-.5,1.4,-.9,1.4c-.3,0,-.3,-.3,-.3,-.6c0,-.1,0,-.2,0,-.3c.1,-.5,.2,-.8,.3,-1.4c.1,-.3,.2,-.7,.3,-1.1l1.1,-4.3H456v.2c.3,0,.4,0,.5,.1c.1,.1,.2,.2,.2,.3c0,.2,-.1,.4,-.1,.6l-.7,2.5c-.2,-.3,-.3,-.4,-.7,-.4c-.8,0,-1.5,.6,-1.9,1.1c-.1,.3,-.3,.5,-.4,.7c-.3,.5,-.5,1,-.5,1.6c0,.5,.1,.8,.3,1c.2,.2,.4,.4,.8,.4c1,0,1.4,-.6,1.7,-1.2h.1q-.1,.1,-.1,.2c0,.1,0,.2,0,.2c0,.5,.2,.8,.7,.8Z" class="g0_57"/>
<path d="M410.8,847.5c1.2,0,2.1,-1.3,2.5,-2.1l-.3,-.2c-.3,.5,-.9,1.7,-1.6,1.7c-.3,0,-.3,-.5,-.3,-.6c0,-.2,0,-.6,.2,-1l1,-4h1.3l.1,-.3h-1.3l.5,-1.6h-1.1l-.4,1.6h-1.1v.3h1l-1,3.6c-.1,.5,-.2,.9,-.2,1.2c-.1,.2,-.1,.4,-.1,.6c0,.5,.2,.8,.8,.8Z" class="g0_57"/>
<path d="M419.3,845.5h7.6v-.9h-7.6Zm0,-3h7.6v-.9h-7.6Z" class="g0_57"/>
<path d="M432.4,839.4c0,.6,.5,1,1.1,1c.5,0,.8,-.2,1.3,-.6c.8,-.7,2.1,-2.2,2.8,-3.4c.4,-.6,.8,-1.3,1.1,-1.8c.4,-.8,1.1,-2.1,1.1,-3c0,-.2,-.1,-.4,-.2,-.6c-.1,-.2,-.2,-.2,-.4,-.2c-.2,0,-.3,.1,-.5,.2c-.1,.1,-.2,.3,-.2,.6c0,.5,.2,1,.2,1.4c0,.6,-.2,1.1,-.4,1.5c-.3,.5,-.5,.9,-.8,1.5h-.1l-.3,-2c-.1,-.5,-.4,-1.6,-.5,-2c-.1,-.7,-.3,-1.2,-1.3,-1.2c-1.1,0,-1.3,1.8,-1.6,2.5l.3,.1c.1,-.5,.6,-2.3,1.1,-2.3c.3,0,.4,1.1,.5,1.3c.1,.3,.2,.7,.3,1.4l.6,3.5c-.4,.8,-1.2,1.6,-1.8,2.1c-.2,.2,-.6,.3,-.7,.3c-.1,0,-.2,-.1,-.3,-.2c-.2,-.2,-.2,-.7,-.7,-.7c-.4,0,-.6,.2,-.6,.6Z" class="g0_57"/>
<path d="M444.8,833.9h7.6V833h-7.6Z" class="g0_57"/>
<path d="M455.6,839.4c0,.6,.5,1,1.1,1c.5,0,.8,-.2,1.3,-.6c.8,-.7,2.1,-2.2,2.8,-3.4c.4,-.6,.8,-1.3,1.1,-1.8c.4,-.8,1.1,-2.1,1.1,-3c0,-.2,-.1,-.4,-.2,-.6c-.1,-.2,-.2,-.2,-.4,-.2c-.2,0,-.3,.1,-.5,.2c-.1,.1,-.2,.3,-.2,.6c0,.5,.2,1,.2,1.4c0,.6,-.2,1.1,-.4,1.5c-.3,.5,-.5,.9,-.8,1.5h-.1l-.3,-2c-.1,-.5,-.4,-1.6,-.5,-2c-.1,-.7,-.3,-1.2,-1.3,-1.2c-1.1,0,-1.3,1.8,-1.6,2.5l.3,.1c.1,-.5,.6,-2.3,1.1,-2.3c.3,0,.4,1.1,.5,1.3c.1,.3,.2,.7,.3,1.4l.6,3.5c-.4,.8,-1.2,1.6,-1.8,2.1c-.2,.2,-.6,.3,-.7,.3c-.1,0,-.2,-.1,-.3,-.2c-.2,-.2,-.2,-.7,-.7,-.7c-.4,0,-.6,.2,-.6,.6Z" class="g0_57"/>
<path d="M464.2,838.3c0,-1.9,.6,-3.3,1.7,-3.3c.4,0,.6,.3,.6,.8c0,.3,.1,.7,-.1,1.3c-.2,.7,-.7,2.3,-1.6,2.3c-.4,0,-.6,-.6,-.6,-1.1Zm.6,1.3c.7,0,1.4,-.6,1.7,-1c.4,-.6,.8,-1.3,.8,-2.1c0,-.6,-.1,-1,-.4,-1.3c-.2,-.2,-.5,-.4,-1,-.4c-.3,0,-.6,.1,-1,.2c-.6,.4,-1.1,1,-1.3,1.7c-.2,.4,-.2,.8,-.2,1.1c0,.6,.1,1.1,.4,1.3c.2,.3,.5,.5,1,.5Z" class="g0_57"/>
<path d="M433.5,843.9h35.2v-.8H433.5Z" class="g0_57"/>
<path d="M443.5,859.8c0,.5,.5,.9,1.1,.9c.5,0,.8,-.2,1.3,-.6c.8,-.6,2.1,-2.2,2.8,-3.4c.4,-.6,.8,-1.2,1.1,-1.8c.4,-.8,1.1,-2.1,1.1,-2.9c0,-.2,-.1,-.4,-.2,-.6c0,-.2,-.2,-.3,-.4,-.3c-.2,0,-.3,.1,-.5,.2c-.1,.2,-.2,.4,-.2,.7c0,.4,.3,.9,.3,1.3c0,.6,-.3,1.1,-.5,1.6c-.2,.5,-.5,.9,-.8,1.4h-.1l-.3,-1.9c-.1,-.6,-.3,-1.6,-.4,-2.1c-.2,-.6,-.4,-1.2,-1.4,-1.2c-1.1,0,-1.3,1.8,-1.6,2.6l.3,.1c.2,-.6,.6,-2.3,1.1,-2.3c.3,0,.5,1,.5,1.2c.1,.3,.2,.7,.3,1.4l.6,3.5c-.4,.8,-1.2,1.7,-1.8,2.2c-.2,.1,-.6,.2,-.7,.2c-.1,0,-.2,-.1,-.3,-.1c-.2,-.3,-.2,-.8,-.6,-.8c-.4,0,-.7,.3,-.7,.7Z" class="g0_57"/>
<path d="M454.5,856.4c0,.4,-.2,1.1,-.3,1.5c-.1,.4,-.5,1.3,-.8,1.6c-.2,.3,-.5,.6,-.9,.6c-.3,0,-.6,-.3,-.6,-.7c0,-.4,.2,-1.3,.3,-1.7c.3,-.6,.9,-1.9,1.8,-1.9c.3,0,.5,.2,.5,.6Zm.1,4c.3,0,.6,-.2,.8,-.4c.2,-.3,.5,-.7,.7,-1.3l-.3,-.1c-.1,.4,-.5,1.4,-.9,1.4c-.2,0,-.3,-.4,-.3,-.6c0,-.1,0,-.2,.1,-.3c0,-.5,.1,-.9,.3,-1.4c0,-.3,.1,-.7,.3,-1.2l1.1,-4.2h-1.6l-.1,.1c.3,.1,.4,.1,.5,.2c.2,0,.3,.2,.3,.3c0,.2,-.1,.4,-.2,.6l-.6,2.5c-.2,-.3,-.4,-.5,-.8,-.5c-.7,0,-1.4,.7,-1.8,1.2c-.2,.2,-.3,.5,-.5,.7c-.2,.4,-.4,1,-.4,1.6c0,.4,.1,.7,.3,1c.1,.2,.4,.4,.7,.4c1,-.1,1.4,-.7,1.8,-1.3v.1c0,0,0,.1,0,.2c0,0,-.1,.1,-.1,.2c0,.4,.2,.8,.7,.8Z" class="g0_57"/>
<path d="M410.8,883.5c1.2,0,2.1,-1.3,2.5,-2.1l-.3,-.1c-.3,.4,-.9,1.6,-1.6,1.6c-.3,0,-.3,-.5,-.3,-.6c0,-.2,0,-.6,.2,-1l1,-3.9h1.3l.1,-.4h-1.3l.5,-1.6h-1.1l-.4,1.6h-1.1v.4h1l-1,3.6c-.1,.4,-.2,.8,-.2,1.1c-.1,.3,-.1,.4,-.1,.6c0,.6,.2,.8,.8,.8Z" class="g0_57"/>
<path d="M419.3,881.5h7.6v-.8h-7.6Zm0,-3h7.6v-.9h-7.6Z" class="g0_57"/>
<path d="M435.2,869.2c.4,0,.5,-.2,.5,-.4c0,-.5,-.5,-.4,-.7,-.8c-.1,-.2,.1,-.3,.4,-.3c.9,0,1.4,.9,2.6,.9l-3.4,3.2c-.4,.3,-.7,.8,-.7,1.1c0,.3,.1,.4,.2,.4c.7,0,.3,-.8,1,-.8c.9,0,1.4,.9,2.5,.9c1.2,0,1.6,-1.2,1.8,-2.2h-.2c-.3,.6,-.6,1.2,-1.2,1.2c-.9,0,-1.7,-.8,-2.6,-.8c1.3,-1.3,2.5,-2.4,3.8,-3.7c.1,-.2,.3,-.3,.3,-.6c0,-.3,0,-.4,-.2,-.4c-.3,0,-.4,.2,-.5,.4c-.1,.2,-.3,.4,-.6,.4c-.9,0,-1.5,-.9,-2.5,-.9c-.7,0,-1.4,.5,-1.4,1.4c0,.6,.4,1,.9,1Z" class="g0_57"/>
<path d="M444.7,869.9h7.6V869h-7.6Z" class="g0_57"/>
<path d="M458.3,869.2c.4,0,.5,-.2,.5,-.4c0,-.5,-.5,-.4,-.7,-.8c-.1,-.2,.1,-.3,.4,-.3c.9,0,1.4,.9,2.6,.9l-3.4,3.2c-.4,.3,-.7,.8,-.7,1.1c0,.3,.1,.4,.2,.4c.7,0,.3,-.8,1,-.8c.9,0,1.4,.9,2.5,.9c1.2,0,1.6,-1.2,1.8,-2.2h-.2c-.3,.6,-.6,1.2,-1.2,1.2c-.9,0,-1.7,-.8,-2.7,-.8c1.4,-1.3,2.6,-2.4,3.9,-3.7c.1,-.2,.3,-.3,.3,-.6c0,-.3,0,-.4,-.2,-.4c-.3,0,-.4,.2,-.5,.4c-.1,.2,-.3,.4,-.6,.4c-.9,0,-1.5,-.9,-2.5,-.9c-.7,0,-1.4,.5,-1.4,1.4c0,.6,.4,1,.9,1Z" class="g0_57"/>
<path d="M464.1,874.3c0,-1.9,.7,-3.3,1.7,-3.3c.4,0,.7,.3,.7,.8c0,.3,0,.7,-.1,1.3c-.2,.7,-.8,2.3,-1.6,2.3c-.4,0,-.7,-.6,-.7,-1.1Zm.6,1.3c.8,0,1.4,-.5,1.8,-1c.4,-.5,.8,-1.3,.8,-2.1c0,-.5,-.2,-1,-.4,-1.3c-.3,-.2,-.6,-.4,-1.1,-.4c-.3,0,-.6,.1,-.9,.3c-.6,.3,-1.1,.9,-1.4,1.6c-.1,.4,-.2,.8,-.2,1.1c0,.6,.2,1.1,.4,1.3c.3,.3,.6,.5,1,.5Z" class="g0_57"/>
<path d="M433.5,880h35.2v-.9H433.5Z" class="g0_57"/>
<path d="M446.3,889.5c.3,0,.5,-.1,.5,-.4c0,-.5,-.6,-.4,-.7,-.8c-.1,-.2,.1,-.3,.3,-.3c.9,0,1.4,1,2.6,1l-3.4,3.1c-.3,.4,-.7,.8,-.7,1.2c0,.2,.2,.3,.3,.3c.7,0,.2,-.8,.9,-.8c1,0,1.5,.9,2.6,.9c1.1,0,1.6,-1.2,1.8,-2.1l-.3,-.1c-.2,.6,-.5,1.2,-1.2,1.2c-.9,0,-1.7,-.8,-2.6,-.8c1.4,-1.3,2.5,-2.4,3.8,-3.6c.2,-.2,.4,-.4,.4,-.7c0,-.2,-.1,-.3,-.2,-.3c-.3,0,-.4,.2,-.5,.4c-.1,.1,-.4,.3,-.7,.3c-.8,0,-1.4,-.9,-2.5,-.9c-.7,0,-1.3,.6,-1.3,1.5c0,.5,.4,.9,.9,.9Z" class="g0_57"/>
<path d="M454.5,892.4c0,.4,-.2,1.1,-.3,1.5c-.1,.5,-.5,1.3,-.8,1.6c-.2,.3,-.5,.6,-.9,.6c-.3,0,-.6,-.3,-.6,-.7c0,-.4,.1,-1.3,.3,-1.6c.3,-.7,.9,-2,1.8,-2c.3,0,.5,.3,.5,.6Zm.1,4c.3,0,.6,-.2,.8,-.4c.2,-.3,.4,-.7,.7,-1.3l-.3,-.1c-.1,.4,-.5,1.4,-.9,1.4c-.2,0,-.3,-.4,-.3,-.6c0,-.1,0,-.2,.1,-.3c0,-.5,.1,-.9,.2,-1.4c.1,-.3,.2,-.7,.4,-1.1l1.1,-4.3h-1.7v.2c.3,0,.4,0,.5,.1c.1,0,.3,.2,.3,.3c0,.2,-.1,.4,-.2,.6l-.6,2.5c-.2,-.3,-.4,-.4,-.8,-.4c-.7,0,-1.4,.6,-1.8,1.1c-.2,.2,-.4,.5,-.5,.7c-.2,.5,-.4,1,-.4,1.6c0,.4,.1,.7,.3,1c.1,.2,.4,.4,.7,.4c1,0,1.4,-.7,1.7,-1.2h.1c0,0,0,.1,0,.2q-.1,.1,-.1,.2c0,.4,.2,.8,.7,.8Z" class="g0_57"/>
</svg>