<?xml version="1.0" encoding="UTF-8" standalone="no"?>
<!DOCTYPE svg PUBLIC "-//W3C//DTD SVG 1.1//EN"
"http://www.w3.org/Graphics/SVG/1.1/DTD/svg11.dtd">
<svg viewBox="0 0 811 1017" version="1.1" xmlns="http://www.w3.org/2000/svg" xmlns:xlink="http://www.w3.org/1999/xlink">
<defs>
<clipPath id="c0_125"><path d="M119.4,272.4V82.5h605V272.4Z"/></clipPath>
<style type="text/css"><![CDATA[
.g0_125{
fill: #0E0E0E;
}
]]></style>
</defs>
<image clip-path="url(#c0_125)" preserveAspectRatio="none" x="119" y="83" width="605" height="189" xlink:href="img/1.jpg"/>
<path d="M392.1,643.5c0,-.5,-.4,-.9,-1,-.9c-.3,0,-.6,.1,-.9,.3c-.4,.2,-.7,.5,-.9,.9c0,-.7,-.4,-1.2,-1,-1.2c-1.2,0,-2.1,1.1,-2.5,1.9l.2,.1c.4,-.5,1.1,-1.7,2,-1.7c.3,0,.4,.6,.4,1c0,.3,-.1,.7,-.2,1.2l-.4,1.1c-.1,.6,-.4,1.4,-.7,1.8c-.1,.3,-.4,.7,-.8,.7c-.4,0,-.7,-.1,-.6,-.5c.1,-.3,0,-.7,-.4,-.7c-.5,0,-.6,.3,-.6,.7c0,.6,.4,1,1,1c1,0,1.8,-.8,2.2,-1.5c.1,.8,.5,1.5,1.3,1.5c1.2,0,2,-1.2,2.5,-1.9l-.2,-.2c-.5,.7,-1.2,1.7,-2,1.7c-.4,0,-.6,-.6,-.6,-1.2c0,-.4,0,-.8,.1,-1.4l.2,-.7c.1,-.6,.4,-1.2,.6,-1.6c.2,-.3,.6,-.9,1,-.9c.4,0,.4,.3,.3,.6c0,.4,.2,.5,.5,.5c.4,0,.5,-.2,.5,-.6Z" class="g0_125"/>
<path d="M396.2,648.1c0,.7,-.3,1.5,-.7,1.8c-.4,.5,-1.1,.9,-1.7,1l1.1,-4c0,0,.1,-.1,.2,-.1q.1,0,.2,0c.7,0,.9,.7,.9,1.3Zm-2.1,-1l-1.6,5.8c-.1,.3,-.4,.4,-.9,.4v.2h2.5v-.2c-.4,0,-.8,0,-.8,-.4c0,0,0,-.1,0,-.2c0,0,0,-.1,0,-.2l.4,-1.4c.9,-.1,1.8,-.5,2.3,-1c.5,-.5,1,-1.1,1,-2c0,-1,-.5,-1.6,-1.5,-1.6c-.2,0,-.4,.1,-.6,.1l.3,-1.2h-.6l-.4,1.4c-.3,.1,-.6,.3,-.9,.5c-.3,.2,-.5,.4,-.7,.7l.2,.2c.3,-.4,.8,-.8,1.3,-1.1Z" class="g0_125"/>
<path d="M403.2,647.1h7.6v-.8h-7.6Zm0,-3h7.6v-.8h-7.6Z" class="g0_125"/>
<path d="M421.9,632.5c-.4,0,-.9,.1,-1.3,.4c-.4,.3,-.9,.7,-1.2,1.2c-.7,.7,-1.3,1.9,-1.3,3.2c0,1,.4,1.8,1.3,1.8c1.3,0,1.8,-.9,2.2,-1.6c-.2,.9,-.1,1.6,.6,1.6c.3,0,.7,-.2,1.1,-.5c.4,-.3,.8,-.8,1.1,-1.4l-.2,-.1c-.3,.4,-.9,1.3,-1.3,1.3c-.2,0,-.3,-.3,-.3,-.5c0,-1,.6,-2.5,.9,-3.5l.7,-1.8h-1l-.2,.6c-.2,-.4,-.5,-.7,-1.1,-.7Zm.1,.2c.7,0,.6,1.3,.5,1.9c-.1,.3,-.2,.7,-.3,1c-.4,1.2,-1.5,3.1,-2.3,3.1c-.6,0,-.7,-.9,-.7,-1.4c0,-.5,0,-.9,.2,-1.4c.3,-1,1.4,-3.2,2.6,-3.2Z" class="g0_125"/>
<path d="M432.5,633.4c0,-.5,-.4,-.9,-1,-.9c-.3,0,-.6,.1,-.9,.3c-.4,.2,-.7,.5,-.9,.9c0,-.7,-.4,-1.2,-1,-1.2c-1.2,0,-2.1,1.1,-2.5,1.9l.2,.1c.4,-.5,1.1,-1.7,2,-1.7c.3,0,.4,.6,.4,1c0,.3,-.1,.7,-.2,1.2l-.4,1.1c-.1,.6,-.4,1.4,-.7,1.8c-.1,.3,-.4,.7,-.8,.7c-.4,0,-.7,-.1,-.6,-.5c.1,-.3,0,-.7,-.4,-.7c-.4,0,-.6,.3,-.6,.7c0,.6,.4,1,1,1c1,0,1.8,-.8,2.2,-1.5c.1,.8,.5,1.5,1.3,1.5c1.2,0,2,-1.2,2.5,-1.9l-.2,-.2c-.5,.7,-1.2,1.7,-2,1.7c-.4,0,-.6,-.6,-.6,-1.2c0,-.4,0,-.8,.1,-1.4l.2,-.7c.1,-.5,.4,-1.2,.6,-1.6c.2,-.3,.6,-.9,1,-.9c.4,0,.4,.3,.3,.6c0,.4,.2,.5,.5,.5c.4,0,.5,-.2,.5,-.6Z" class="g0_125"/>
<path d="M434.1,634.2v.2c.3,0,.8,0,.9,.1c.4,.2,.3,.3,.4,.7V640c0,.2,-.1,.4,-.1,.6c-.1,.4,-.6,.5,-1.2,.5v.2h3.4v-.2c-.3,0,-.9,0,-1,-.2c-.2,-.2,-.2,-.6,-.2,-1v-6.2c-.6,.3,-1.5,.5,-2.2,.5Z" class="g0_125"/>
<path d="M446.5,634.7h-3.3v1h3.3v3.2h1v-3.2h3.2v-1h-3.2v-3.3h-1v3.3Z" class="g0_125"/>
<path d="M458.5,632.8c1.2,0,.9,1.9,.4,3.2c-.4,.8,-1.3,2.7,-2.4,2.7c-.5,0,-.7,-.3,-.7,-.9c0,-.8,.2,-1.8,.5,-2.4c.3,-.6,.7,-1.6,1.1,-2c.3,-.3,.6,-.6,1.1,-.6Zm-2.2,6.3c1.6,0,2.8,-1.5,3.4,-2.6c.4,-.7,.7,-1.5,.7,-2.3c0,-1,-.5,-1.7,-1.6,-1.7c-.9,0,-1.6,.5,-1.9,1.1h-.1l1.6,-5.6l-2.1,.1l-.1,.2c.6,0,.9,.3,.9,.6c0,.2,-.1,.6,-.2,.8l-1.6,5.6c-.1,.6,-.3,1,-.3,1.4c-.1,.4,-.2,.7,-.2,.9c0,.8,.6,1.5,1.5,1.5Z" class="g0_125"/>
<path d="M460.3,641.1c0,.6,.5,1,1.1,1c.5,0,.8,-.2,1.3,-.6c.9,-.7,2.1,-2.3,2.8,-3.5c.4,-.6,.8,-1.2,1.1,-1.8c.4,-.7,1.1,-2.1,1.1,-2.9c0,-.2,-.1,-.4,-.1,-.6c-.1,-.2,-.3,-.2,-.5,-.2c-.2,0,-.3,0,-.5,.2c-.1,.1,-.2,.3,-.2,.6c0,.5,.3,.9,.3,1.3c0,.6,-.3,1.2,-.5,1.6c-.2,.5,-.5,.9,-.8,1.4h-.1l-.3,-1.9c-.1,-.5,-.3,-1.6,-.4,-2c-.2,-.7,-.4,-1.2,-1.4,-1.2c-1.1,0,-1.3,1.7,-1.6,2.5l.3,.1c.2,-.6,.6,-2.3,1.1,-2.3c.3,0,.5,1,.5,1.3c.1,.3,.2,.7,.3,1.3l.6,3.5c-.4,.8,-1.2,1.7,-1.8,2.2c-.2,.2,-.5,.2,-.7,.2c-.1,0,-.2,0,-.2,-.1c-.3,-.3,-.3,-.8,-.7,-.8c-.4,0,-.7,.3,-.7,.7Z" class="g0_125"/>
<path d="M469.3,634.2v.2c.3,0,.8,0,1,.1c.3,.2,.3,.3,.3,.7V640c0,.2,0,.4,0,.6c-.1,.4,-.7,.5,-1.2,.5v.2h3.4v-.2c-.4,0,-.9,0,-1.1,-.2c-.1,-.2,-.2,-.6,-.2,-1v-6.2c-.5,.3,-1.5,.5,-2.2,.5Z" class="g0_125"/>
<path d="M481.7,634.7h-3.2v1h3.2v3.2h1v-3.2H486v-1h-3.3v-3.3h-1v3.3Z" class="g0_125"/>
<path d="M491.1,637.1c0,-.5,0,-1,.2,-1.4c.3,-1,1,-2.9,2.2,-2.9c.3,0,.3,.1,.3,.3c0,.1,-.1,.2,-.1,.4c0,.3,.2,.6,.6,.6c.4,0,.6,-.3,.6,-.7c0,-.6,-.6,-.9,-1.3,-.9c-1.4,0,-2.5,1.4,-3.1,2.5c-.3,.5,-.6,1.3,-.6,2.1c0,1.1,.6,2,1.7,2c1.3,0,2.2,-1.1,2.6,-2.1l-.2,-.1c-.5,.9,-1.2,1.8,-2.1,1.8c-.6,0,-.8,-1,-.8,-1.6Z" class="g0_125"/>
<path d="M417.4,645.6h78.3v-.8H417.4Z" class="g0_125"/>
<path d="M419.9,656c0,-1.4,.6,-2.9,1.7,-2.9c.7,0,.9,.7,.9,1.2c0,1.5,-.6,2.8,-1.7,2.8c-.5,0,-.9,-.6,-.9,-1.1Zm3.5,-2.4c.2,-.1,.2,-.2,.4,-.2c.1,0,.2,0,.2,.1c.2,.2,.3,.6,.7,.6c.3,0,.6,-.2,.6,-.5c0,-.5,-.6,-.8,-1,-.8c-.4,0,-.7,.2,-1.1,.6c-.4,-.4,-.9,-.6,-1.5,-.6c-.8,0,-1.5,.3,-1.9,.8c-.5,.4,-.9,1,-.9,1.9c0,.7,.3,1.2,.9,1.7h-.1c-.5,.2,-.8,.3,-1,.5c-.2,.2,-.3,.4,-.3,.6c0,.4,.1,.6,.5,.8c.5,.2,1.1,.4,2,.6c.5,0,.8,.2,1.1,.4c.3,.2,.4,.4,.4,.6c0,.8,-1.1,1.3,-2.2,1.4c-1.2,0,-2,-.5,-2,-1.3c0,-.5,.3,-.9,.8,-1.1c-.3,-.1,-.4,-.1,-.7,-.1c-.6,0,-1,.5,-1,1.1c0,.2,0,.5,.1,.7c.6,.7,1.5,1,2.8,1c.9,0,1.7,-.2,2.3,-.6c.4,-.3,.8,-.8,.8,-1.5c0,-.8,-1.2,-1.4,-1.8,-1.5c-.5,-.2,-1.1,-.3,-1.5,-.5c-.2,0,-.3,-.2,-.3,-.4c0,-.3,.6,-.3,1.1,-.4c1.6,-.1,2.7,-1.2,2.7,-3c0,-.3,0,-.6,-.1,-.9Z" class="g0_125"/>
<path d="M433.1,653.7c0,-.5,-.5,-.9,-1,-.9c-.3,0,-.7,.1,-1,.3c-.3,.3,-.6,.6,-.8,.9c0,-.6,-.4,-1.2,-1.1,-1.2c-1.1,0,-2.1,1.2,-2.4,2l.2,.1c.3,-.5,1.1,-1.7,2,-1.7c.2,0,.4,.5,.4,.9c0,.3,-.1,.7,-.3,1.2l-.3,1.2c-.2,.6,-.4,1.3,-.7,1.7c-.2,.3,-.4,.7,-.8,.7c-.4,0,-.7,-.1,-.6,-.5c.1,-.3,0,-.7,-.4,-.7c-.5,0,-.7,.3,-.7,.8c0,.5,.5,.9,1.1,.9c1,0,1.7,-.8,2.1,-1.5l.1,.1c.1,.8,.5,1.4,1.3,1.4c1.2,0,2,-1.2,2.4,-1.8l-.2,-.2c-.4,.6,-1.1,1.6,-1.9,1.6c-.5,0,-.7,-.6,-.7,-1.2c0,-.3,.1,-.8,.2,-1.3l.2,-.8c.1,-.5,.3,-1.2,.6,-1.6c.2,-.3,.6,-.9,.9,-.9c.5,0,.4,.3,.4,.6c0,.4,.1,.6,.5,.6c.3,0,.5,-.3,.5,-.7Z" class="g0_125"/>
<path d="M434.6,654.5v.2c.4,0,.8,.1,1,.1c.3,.2,.3,.3,.3,.8v4.7c0,.3,0,.5,0,.6c-.1,.5,-.7,.5,-1.2,.6v.1h3.4v-.1c-.4,0,-.9,-.1,-1,-.3c-.2,-.2,-.2,-.5,-.2,-.9V654c-.6,.3,-1.6,.5,-2.3,.5Z" class="g0_125"/>
<path d="M447.1,655h-3.3v1h3.3v3.3h.9V656h3.3v-1H448v-3.3h-.9V655Z" class="g0_125"/>
<path d="M459,659.4c1.2,0,1.9,-1,2.4,-1.7l-.3,-.2c-.3,.4,-.8,1.3,-1.3,1.3c-.3,0,-.4,-.4,-.4,-.6c0,-.3,1.2,-3.7,1.2,-4.1c0,-.8,-.3,-1.3,-1.1,-1.3c-.4,0,-1,.1,-1.3,.3c-.3,.2,-.6,.5,-.9,.9v.1l1.5,-5.8l-2.2,.2l-.1,.2c.4,0,.6,.1,.8,.2c.1,.1,.3,.3,.3,.5c0,.3,-.1,.6,-.2,.9l-2.5,9h.8c.6,-1.7,1.2,-3.8,1.9,-5c.4,-.6,.9,-1.2,1.6,-1.2c.6,0,.4,1,.3,1.5c-.1,.2,-.2,.5,-.3,.9c-.5,1.7,-.8,2.5,-.8,3.1c0,.5,.1,.8,.6,.8Z" class="g0_125"/>
<path d="M461.1,661.4c0,.6,.5,1,1.1,1c.4,0,.8,-.2,1.3,-.6c.8,-.7,2.1,-2.2,2.8,-3.4c.4,-.6,.7,-1.3,1,-1.8c.4,-.8,1.2,-2.1,1.2,-2.9c0,-.3,-.1,-.5,-.2,-.7c-.1,-.2,-.3,-.2,-.5,-.2c-.1,0,-.2,.1,-.4,.2c-.1,.1,-.2,.3,-.2,.6c0,.5,.2,1,.2,1.4c0,.6,-.2,1.1,-.4,1.5c-.3,.5,-.5,.9,-.8,1.5h-.1l-.4,-2c-.1,-.5,-.3,-1.6,-.4,-2c-.2,-.7,-.3,-1.2,-1.3,-1.2c-1.2,0,-1.4,1.8,-1.6,2.5l.3,.1c.1,-.5,.6,-2.3,1,-2.3c.4,0,.5,1.1,.6,1.3c.1,.3,.1,.7,.3,1.4l.5,3.5c-.3,.8,-1.1,1.6,-1.7,2.1c-.3,.2,-.6,.3,-.8,.3c-.1,0,-.1,-.1,-.2,-.2c-.2,-.2,-.2,-.7,-.7,-.7c-.4,0,-.6,.3,-.6,.6Z" class="g0_125"/>
<path d="M470.1,654.5v.2c.3,0,.8,.1,.9,.1c.4,.2,.3,.3,.4,.8v4.7c0,.3,-.1,.5,-.1,.6c-.1,.5,-.6,.5,-1.2,.6v.1h3.4v-.1c-.3,0,-.9,-.1,-1,-.3c-.2,-.2,-.2,-.5,-.2,-.9V654c-.6,.3,-1.5,.5,-2.2,.5Z" class="g0_125"/>
<path d="M482.5,655h-3.3v1h3.3v3.3h1V656h3.2v-1h-3.2v-3.3h-1V655Z" class="g0_125"/>
<path d="M494.6,650.1c0,-.4,-.3,-.8,-.7,-.8c-.5,0,-.8,.4,-.8,.8c0,.4,.4,.7,.8,.7c.3,0,.7,-.3,.7,-.7Zm-2.8,9.3c1.3,0,2,-1.2,2.4,-2l-.3,-.1c-.2,.3,-.7,1.4,-1.3,1.4c-.2,0,-.4,-.2,-.4,-.4c0,-.3,.2,-.8,.3,-1.1l1,-2.7c.2,-.5,.2,-.7,.2,-.9c0,-.5,0,-.8,-.5,-.8c-.9,0,-2,1.1,-2.4,1.8l.3,.2c.2,-.3,.8,-1.1,1.1,-1.1c.3,0,.3,.1,.3,.3c0,.2,-.1,.6,-.2,.9l-1,2.8c-.1,.4,-.2,.7,-.2,.9c0,.5,.2,.8,.7,.8Z" class="g0_125"/>
</svg>