<?xml version="1.0" encoding="UTF-8" standalone="no"?>
<!DOCTYPE svg PUBLIC "-//W3C//DTD SVG 1.1//EN"
"http://www.w3.org/Graphics/SVG/1.1/DTD/svg11.dtd">
<svg viewBox="0 0 811 1017" version="1.1" xmlns="http://www.w3.org/2000/svg" xmlns:xlink="http://www.w3.org/1999/xlink">
<defs>
<style type="text/css"><![CDATA[
.g0_62{
fill: #0E0E0E;
}
]]></style>
</defs>
<path d="M230.4,682h-1.2v-8.5h1.2Zm-1.8,.7H231v-4.1h1.1l2.9,4.1h3.1v-.1l-3.2,-4.2c1.3,-.4,2,-1.4,2,-2.7c0,-2.1,-1.7,-2.9,-3.6,-2.9h-4.7v9.9Zm8.2,-.7h-1.4l-2.5,-3.4c.5,0,.9,.1,1.3,0l2.6,3.4Zm-2.6,-4.1c-.3,0,-.6,.1,-.8,.1H231v-4.5h2.4c.3,0,.6,.1,.8,.1v4.3Zm.6,-4.2c.9,.4,1.4,1.1,1.4,2.1c0,.9,-.5,1.7,-1.4,2.1v-4.2Z" class="g0_62"/>
<path d="M270.2,701.4h-1.1v-8.5h1.1Zm6.5,0h-1.5L272.8,698c.4,0,.8,0,1.3,0l2.6,3.4ZM274,697.3c-.3,0,-.5,.1,-.8,.1h-2.3v-4.5h2.4c.2,0,.5,0,.7,.1v4.3Zm.7,-4.2c.9,.4,1.3,1,1.3,2c0,1,-.5,1.8,-1.3,2.2v-4.2Zm3.2,8.9l-3.2,-4.2c1.3,-.4,2,-1.4,2,-2.7c0,-2.1,-1.6,-2.9,-3.5,-2.9h-4.8V702h2.5v-4H272l2.9,4h3Z" class="g0_62"/>
<path d="M281.1,692c-.6,0,-1,-.5,-1,-1.2c0,-.8,.4,-1.6,1.3,-1.6c1.2,0,1.3,1,1.3,1.9c0,.9,-.3,1.5,-.7,2.1c-.3,.4,-.7,.9,-1.1,1.4c-.5,.5,-1.1,1,-1.9,1.7v.3h4.6l.3,-2.1h-.3c0,.3,-.1,.5,-.2,.6c-.2,.4,-.5,.6,-1,.6h-2.1v-.1c.5,-.3,.9,-.7,1.4,-1c.7,-.7,1.5,-1.4,1.9,-2.3c.2,-.4,.3,-.8,.3,-1.2c0,-.3,-.1,-.6,-.2,-.9c-.3,-.7,-1.1,-1.2,-2.2,-1.2c-.7,0,-1.3,.2,-1.7,.6c-.4,.3,-.7,.8,-.7,1.4c0,.5,.1,.8,.4,1.1c.2,.2,.5,.4,.9,.4c.4,0,.7,-.2,.7,-.5Z" class="g0_62"/>
<path d="M431.7,701.4h-1.1v-8.5h1.1Zm6.5,0h-1.5L434.3,698c.4,0,.8,0,1.3,-.1l2.6,3.5Zm-2.7,-4.1c-.2,0,-.5,.1,-.8,.1h-2.3v-4.5h2.4c.2,0,.5,0,.7,.1v4.3Zm.7,-4.2c.9,.4,1.4,1,1.4,2c0,1,-.6,1.8,-1.4,2.2v-4.2Zm3.3,8.9l-3.2,-4.2c1.2,-.4,1.9,-1.4,1.9,-2.7c0,-2.1,-1.6,-2.9,-3.5,-2.9h-4.8V702h2.5v-4h1.1l2.9,4h3.1Z" class="g0_62"/>
<path d="M442.9,696.5c-.8,0,-1.3,-.7,-1.3,-1.4c0,-.5,.3,-.9,.8,-.9c0,-.3,-.4,-.5,-.7,-.5c-.2,0,-.3,.1,-.5,.1c-.4,.2,-.7,.6,-.7,1.2c0,.2,.1,.5,.2,.7c.4,.6,1.2,1,2.2,1c.8,0,1.4,-.2,1.8,-.6c.5,-.3,.8,-.8,.8,-1.5c0,-.3,-.1,-.5,-.2,-.7c-.2,-.7,-.8,-1.1,-1.5,-1.3v-.1c.4,-.1,.8,-.3,1,-.6c.3,-.3,.4,-.7,.4,-1.2c0,-.2,0,-.5,-.1,-.7c-.4,-.7,-1.2,-1,-2.2,-1c-.6,0,-1.1,.1,-1.5,.4c-.3,.2,-.6,.5,-.6,1c0,.3,.1,.5,.3,.7c.2,.2,.4,.3,.7,.3c.2,0,.3,0,.5,-.1c.1,-.1,.2,-.2,.2,-.3c-.4,0,-.7,-.3,-.7,-.7c0,-.6,.5,-1.1,1.1,-1.1c.8,0,1.2,.7,1.2,1.6c0,.9,-.3,1.8,-1.1,1.8c-.2,-.1,-.4,-.2,-.6,-.2c-.2,0,-.5,.1,-.5,.3c0,.2,.3,.3,.5,.3c.3,0,.5,-.1,.7,-.2c.9,0,1.1,.8,1.1,1.7c0,1,-.4,2,-1.3,2Z" class="g0_62"/>
<path d="M623.3,701.3h-1.2v-8.5h1.2Zm-1.8,.7h2.4v-4H625l2.9,4H631l-3.2,-4.3c1.3,-.3,2,-1.3,2,-2.6c0,-2.2,-1.7,-3,-3.6,-3h-4.7V702Zm8.2,-.7h-1.4L625.8,698c.5,0,.9,0,1.3,-.1l2.6,3.4Zm-2.6,-4.1c-.3,.1,-.6,.1,-.8,.1h-2.4v-4.5h2.4c.3,0,.5,.1,.8,.1v4.3Zm.6,-4.2c.9,.4,1.4,1.1,1.4,2.1c0,.9,-.5,1.8,-1.4,2.1V693Z" class="g0_62"/>
<path d="M637.3,696.6h.3l1.6,-6c0,-.2,.1,-.3,.1,-.5c.2,-.3,.4,-.7,.6,-.8c.2,-.1,.4,-.1,.5,-.1l.1,-.2h-2.3v.2c.2,0,.4,.1,.6,.2c.1,.2,.1,.6,.1,.9c0,.1,0,.2,0,.4l-1.1,3.9v.2L635.3,689h-2v.2c.4,0,.6,0,.7,.2c.2,.2,.4,.7,.4,1c0,.1,0,.2,0,.3l-1.2,4.4c-.1,.3,-.3,.7,-.6,.9c-.2,.3,-.7,.4,-1,.4v.2h2.8v-.2c-.3,0,-.6,0,-.7,-.2c-.2,-.2,-.3,-.5,-.3,-.8c0,-.1,0,-.2,0,-.4l1.2,-4.3v-.3l2.7,6.2Z" class="g0_62"/>
<path d="M468.7,741h-1.1v-8.5h1.1Zm-1.8,.7h2.5v-4h1.1l2.9,4h3.1l-3.2,-4.2c1.2,-.4,1.9,-1.4,1.9,-2.7c0,-2.1,-1.6,-2.9,-3.5,-2.9h-4.8v9.8Zm8.3,-.7h-1.5l-2.4,-3.3c.4,0,.8,0,1.3,-.1l2.6,3.4Zm-2.7,-4.1c-.3,.1,-.5,.1,-.8,.1h-2.3v-4.5h2.4c.2,0,.5,.1,.7,.1v4.3Zm.7,-4.2c.9,.4,1.3,1.1,1.3,2.1c0,.9,-.5,1.8,-1.3,2.1v-4.2Z" class="g0_62"/>
<path d="M482.7,736.3h.3l1.6,-6c.1,-.2,.1,-.3,.2,-.5c.1,-.2,.3,-.7,.6,-.8c.1,-.1,.3,-.1,.5,-.1v-.1h-2.2l-.1,.1c.2,0,.5,.1,.6,.3c.2,.1,.2,.5,.2,.8c0,.1,0,.2,-.1,.4l-1,4v.1l-2.6,-5.7h-1.9l-.1,.1c.5,0,.6,0,.7,.2c.3,.2,.4,.7,.4,1c0,.1,0,.2,0,.3l-1.2,4.4c-.1,.4,-.3,.7,-.6,1c-.2,.2,-.6,.3,-.9,.3l-.1,.2h2.8l.1,-.2c-.3,0,-.6,0,-.8,-.2c-.1,-.2,-.3,-.5,-.3,-.8c0,-.1,0,-.2,.1,-.4l1.1,-4.3l.1,-.2l2.6,6.1Z" class="g0_62"/>
<path d="M658.2,741H657v-8.5h1.2Zm-1.9,.7h2.5v-4h1.1l2.9,4h3.1l-3.2,-4.2c1.2,-.4,1.9,-1.4,1.9,-2.7c0,-2.1,-1.6,-2.9,-3.5,-2.9h-4.8v9.8Zm8.3,-.7h-1.5l-2.4,-3.3c.4,0,.9,0,1.3,-.1l2.6,3.4Zm-2.7,-4.1c-.2,.1,-.5,.1,-.8,.1h-2.3v-4.5h2.4c.2,0,.5,.1,.7,.1v4.3Zm.7,-4.2c.9,.4,1.4,1.1,1.4,2.1c0,.9,-.5,1.8,-1.4,2.1v-4.2Z" class="g0_62"/>
<path d="M672.2,736.3h.2l1.6,-6c.1,-.2,.1,-.3,.2,-.5c.1,-.2,.4,-.7,.6,-.8c.1,-.1,.4,-.1,.5,-.1v-.1h-2.2l-.1,.1c.3,0,.5,.1,.6,.3c.2,.1,.2,.5,.2,.8c0,.1,0,.2,0,.4l-1.1,4v.1l-2.5,-5.7h-2l-.1,.1c.5,0,.6,0,.8,.2c.2,.2,.4,.7,.4,1c0,.1,0,.2,-.1,.3l-1.2,4.4c0,.4,-.3,.7,-.5,1c-.3,.2,-.7,.3,-1,.3v.2h2.8v-.2c-.3,0,-.6,0,-.7,-.2c-.2,-.2,-.3,-.5,-.3,-.8c0,-.1,0,-.2,0,-.4l1.1,-4.3l.1,-.2l2.7,6.1Z" class="g0_62"/>
<path d="M608.8,820.6h-1.2V812h1.2Zm6.4,0h-1.4l-2.5,-3.4c.5,0,.9,0,1.3,-.1l2.6,3.5Zm-2.6,-4.1c-.3,0,-.6,0,-.8,0h-2.3V812h2.3c.3,0,.6,.1,.8,.1v4.4Zm.6,-4.3c.9,.4,1.4,1.1,1.4,2.1c0,.9,-.5,1.8,-1.4,2.1v-4.2Zm3.3,9L613.3,817c1.3,-.4,2,-1.4,2,-2.7c0,-2.1,-1.7,-2.9,-3.6,-2.9H607v9.8h2.5v-4h1.1l2.8,4h3.1Z" class="g0_62"/>
<path d="M619.7,811.1c-.7,0,-1.1,-.4,-1.1,-1.1c0,-.8,.5,-1.6,1.4,-1.6c1.2,0,1.3,.9,1.3,1.9c0,.9,-.3,1.4,-.7,2.1c-.3,.4,-.7,.8,-1.2,1.3c-.4,.5,-1.1,1.1,-1.8,1.8v.3h4.6l.3,-2.1h-.3c0,.2,-.1,.4,-.2,.6c-.2,.3,-.5,.5,-1,.5h-2.1c.4,-.4,.9,-.7,1.3,-1.1c.8,-.6,1.6,-1.4,2,-2.2c.2,-.4,.3,-.8,.3,-1.2c0,-.3,-.1,-.6,-.2,-.9c-.4,-.7,-1.1,-1.3,-2.2,-1.3c-.7,0,-1.3,.3,-1.7,.6c-.4,.3,-.7,.8,-.7,1.5c0,.5,.1,.8,.4,1c.1,.3,.4,.5,.9,.5c.4,0,.6,-.2,.7,-.6Z" class="g0_62"/>
<path d="M503.1,899.9H502v-8.5h1.1Zm-1.8,.7h2.5v-4h1.1l2.9,4h3.1l-3.2,-4.2c1.2,-.4,1.9,-1.4,1.9,-2.7c0,-2.2,-1.6,-2.9,-3.5,-2.9h-4.8v9.8Zm8.3,-.7h-1.5l-2.4,-3.3c.4,0,.8,0,1.3,-.1l2.6,3.4Zm-2.7,-4.1c-.2,.1,-.5,.1,-.8,.1h-2.3v-4.5h2.4c.2,0,.5,.1,.7,.1v4.3Zm.7,-4.2c.9,.4,1.4,1.1,1.4,2.1c0,.9,-.6,1.8,-1.4,2.1v-4.2Z" class="g0_62"/>
<path d="M517.1,895.2h.3l1.6,-6c.1,-.2,.1,-.3,.2,-.5c.1,-.2,.3,-.7,.6,-.8c.1,-.1,.3,-.1,.5,-.1v-.1h-2.2l-.1,.1c.2,0,.5,.1,.6,.3c.2,.1,.2,.5,.2,.8c0,.1,0,.2,-.1,.4l-1,4v.1l-2.6,-5.7h-1.9l-.1,.1c.5,0,.6,0,.7,.2c.3,.2,.4,.7,.4,1c0,.1,0,.2,0,.3l-1.2,4.4c-.1,.4,-.3,.7,-.6,.9c-.2,.3,-.6,.4,-.9,.4l-.1,.2h2.8l.1,-.2c-.3,0,-.6,0,-.8,-.2c-.1,-.2,-.3,-.5,-.3,-.8c0,-.1,0,-.2,.1,-.4l1.1,-4.3l.1,-.2l2.6,6.1Z" class="g0_62"/>
<path d="M667.9,899.9h-1.2v-8.5h1.2Zm6.4,0h-1.4l-2.5,-3.3c.4,0,.9,0,1.3,-.1l2.6,3.4Zm-2.7,-4.1c-.2,.1,-.5,.1,-.8,.1h-2.3v-4.5h2.4c.2,0,.5,.1,.7,.1v4.3Zm.7,-4.2c.9,.4,1.4,1.1,1.4,2.1c0,.9,-.5,1.8,-1.4,2.1v-4.2Zm3.3,9l-3.2,-4.2c1.3,-.4,1.9,-1.4,1.9,-2.7c0,-2.1,-1.6,-2.9,-3.5,-2.9H666v9.8h2.5v-4h1.1l2.9,4h3.1Z" class="g0_62"/>
<path d="M684.3,888.7l.2,-.4l-1.4,5.4c-.1,.3,-.1,.5,-.2,.6c-.1,.3,-.3,.5,-.6,.6c-.1,.1,-.2,.1,-.4,.1l-.1,.2H685V895c-.3,0,-.6,0,-.7,-.1c-.2,-.1,-.2,-.4,-.2,-.6c0,-.1,0,-.4,.1,-.7l1.1,-4c.1,-.4,.1,-.6,.2,-.9c.1,-.3,.3,-.6,.6,-.8c.1,-.1,.3,-.1,.4,-.1l.1,-.2h-2l-3.6,5.9h-.2l-.6,-5.9h-2.4v.2c.3,0,.5,0,.6,.1c.2,.1,.4,.3,.4,.5c0,.2,0,.5,-.1,.8l-1.2,4.5c-.1,.4,-.4,.7,-.6,1c-.3,.2,-.7,.3,-1,.3v.2h2.7V895c-.2,0,-.5,0,-.6,-.2c-.1,-.2,-.3,-.5,-.3,-.7c0,-.2,0,-.3,0,-.5l1.3,-4.9l.1,-.2l.8,6.7h.3l4.1,-6.5Z" class="g0_62"/>
</svg>