<?xml version="1.0" encoding="UTF-8" standalone="no"?>
<!DOCTYPE svg PUBLIC "-//W3C//DTD SVG 1.1//EN"
"http://www.w3.org/Graphics/SVG/1.1/DTD/svg11.dtd">
<svg viewBox="0 0 811 1017" version="1.1" xmlns="http://www.w3.org/2000/svg" xmlns:xlink="http://www.w3.org/1999/xlink">
<defs>
<clipPath id="c0_275"><path d="M156.1,671.2V483.5H390.8V671.2Z"/></clipPath>
<style type="text/css"><![CDATA[
.g0_275{
fill: #FFF;
}
.g1_275{
fill: #F9FBFB;
}
.g2_275{
fill: #F3F6F7;
}
.g3_275{
fill: #F0F3F4;
}
.g4_275{
fill: #F6F7F7;
}
.g5_275{
fill: #EDEFF0;
}
.g6_275{
fill: #040504;
}
.g7_275{
fill: #B0B2B1;
}
.g8_275{
fill: #4C7BBF;
}
]]></style>
</defs>
<path d="M157.1,360.9H455.8V82.6H157.1Z" class="g0_275"/>
<path d="M179.6,286.5L173.5,160.8l.4,.4L276.3,86.4l1.4,117.9l-98.1,82.2Z" class="g1_275"/>
<path d="M179.6,287.2l-.3,-.4l.3,-.3l98.1,-82.2L276.3,86.4L173.9,161.2l-.4,-.4l-.3,-.5L277.4,84.2v.7l-.4,-.1l-.1,.5l-.1,.6h.1l1.4,118.7l-98.2,82.2l-.3,-.1l-.2,.5Z" class="g1_275"/>
<path d="M436,249.8L278.8,204.1L277.5,86l164.1,41.7L436,249.8Z" class="g2_275"/>
<path d="M278.3,204.6L276.9,85.9l.6,.1l1.3,118.1l-.4,-.1l-.1,.6Z" class="g3_275"/>
<path d="M437.1,251.3l-.4,-.1l.4,-.4v.5Zm0,-1.1l-1.1,-.4l5.6,-122.1L277.5,86l-.1,-1.1l165.4,41.9l-5.7,123.4Z" class="g2_275"/>
<path d="M277.5,86l-.7,-.1l.1,-.6l.1,-.5l.5,.1V86Z" class="g3_275"/>
<path d="M347.3,341.4L180.8,287l97.6,-81.8l157.1,45.6l-88.2,90.6Z" class="g4_275"/>
<path d="M180.8,287l-.7,-.2l98.2,-82.2l-.2,.5l.3,.1L180.8,287Z" class="g2_275"/>
<path d="M435.5,250.8L278.4,205.2l157.1,45.6Z" class="g3_275"/>
<path d="M347.6,342.7L179.5,287.8l.1,-.6l.4,.5l.8,-.7l166.5,54.4l88.2,-90.6l1.2,.4l-89.1,91.5Zm89.5,-91.9v-.6l.5,.1l-.5,.5Z" class="g4_275"/>
<path d="M180,287.7l-.4,-.5l.2,-.5l.3,.1l.7,.2l-.8,.7Z" class="g2_275"/>
<path d="M436,249.8L278.8,204.1L436,249.8Z" class="g3_275"/>
<path d="M436.7,251.2l-1.2,-.4L278.4,205.2l.4,-.4v-.7l158.3,46.1v.6l-.4,.4Z" class="g3_275"/>
<path d="M278.4,205.2l-.3,-.1l.2,-.5l.1,-.6l.4,.1v.7l-.4,.4Z" class="g5_275"/>
<path d="M179.1,287.5l168.6,55.1l.3,-.8L179.3,286.7l-.2,.8Z" class="g6_275"/>
<path d="M245.9,350.5l-2.3,3l2.4,3.1h-1.2L243,354.2l-1.8,2.4H240l2.4,-3.2l-2.2,-2.9h1.2l1.6,2.2l1.7,-2.2h1.2Z" class="g6_275"/>
<path d="M190.1,290.9l98.1,-83.2l.1,-.3L287.4,87.9h-.9l.9,119.3l-97.9,83l.6,.7Z" class="g7_275"/>
<path d="M218.3,300.1l96.6,-84.6l.1,-.4l.2,-120.2h-.9l-.2,120l-96.4,84.5l.6,.7Z" class="g7_275"/>
<path d="M247,309.5l95,-86.2l.2,-.3l1.4,-120.9h-.9l-1.4,120.7l-94.9,86l.6,.7Z" class="g7_275"/>
<path d="M276.3,319l93.4,-87.6l.1,-.3l2.6,-121.7h-.9l-2.6,121.4l-93.2,87.6l.6,.6Z" class="g7_275"/>
<path d="M306.1,328.8l91.7,-89.3l.1,-.3l3.8,-122.3l-.9,-.1L397,239l-91.5,89.1l.6,.7Z" class="g7_275"/>
<path d="M336.5,338.7l89.8,-90.9l.2,-.3l5.1,-123.1h-.9l-5.1,122.9l-89.7,90.8l.6,.6Z" class="g7_275"/>
<path d="M190.7,289.2l-3.3,2.8l.6,.6l3.3,-2.7l-.6,-.7Z" class="g6_275"/>
<path d="M176,308.4c.9,0,1.6,.4,2.1,1.1c.5,.7,.7,1.8,.7,3.1c0,1.4,-.2,2.5,-.7,3.2c-.5,.7,-1.2,1.1,-2.1,1.1c-.9,0,-1.6,-.4,-2.1,-1.1c-.5,-.7,-.7,-1.8,-.7,-3.2c0,-1.3,.2,-2.4,.7,-3.1c.5,-.7,1.2,-1.1,2.1,-1.1Zm0,.9c-.6,0,-1,.3,-1.3,.8c-.3,.6,-.4,1.4,-.4,2.5c0,1.2,.1,2,.4,2.6c.3,.5,.7,.8,1.3,.8c.6,0,1,-.3,1.3,-.8c.3,-.6,.4,-1.4,.4,-2.6c0,-1.1,-.1,-1.9,-.4,-2.5c-.3,-.5,-.7,-.8,-1.3,-.8Z" class="g6_275"/>
<path d="M180.8,316.7h1.1v-1.4h-1.1Z" class="g6_275"/>
<path d="M186.7,308.4c.9,0,1.6,.4,2.1,1.1c.5,.7,.7,1.8,.7,3.1c0,1.4,-.2,2.5,-.7,3.2c-.5,.7,-1.2,1.1,-2.1,1.1c-.9,0,-1.6,-.4,-2.1,-1.1c-.5,-.7,-.7,-1.8,-.7,-3.2c0,-1.3,.2,-2.4,.7,-3.1c.5,-.7,1.2,-1.1,2.1,-1.1Zm0,.9c-.6,0,-1,.3,-1.3,.8c-.3,.6,-.4,1.4,-.4,2.5c0,1.2,.1,2,.4,2.6c.3,.5,.7,.8,1.3,.8c.6,0,1,-.3,1.3,-.8c.3,-.6,.4,-1.4,.4,-2.6c0,-1.1,-.1,-1.9,-.4,-2.5c-.3,-.5,-.7,-.8,-1.3,-.8Z" class="g6_275"/>
<path d="M218.9,298.4l-3.2,2.8l.6,.7l3.2,-2.8l-.6,-.7Z" class="g6_275"/>
<path d="M204.2,317.8c.9,0,1.6,.4,2.1,1.1c.5,.7,.8,1.8,.8,3.2c0,1.3,-.3,2.4,-.8,3.1c-.5,.7,-1.2,1.1,-2.1,1.1c-.9,0,-1.6,-.4,-2.1,-1.1c-.5,-.7,-.7,-1.8,-.7,-3.1c0,-1.4,.2,-2.5,.7,-3.2c.5,-.7,1.2,-1.1,2.1,-1.1Zm0,.9c-.5,0,-1,.3,-1.3,.8c-.2,.6,-.4,1.4,-.4,2.6c0,1.1,.2,1.9,.4,2.5c.3,.5,.8,.8,1.3,.8c.6,0,1,-.3,1.3,-.8c.3,-.6,.4,-1.4,.4,-2.5c0,-1.2,-.1,-2,-.4,-2.6c-.3,-.5,-.7,-.8,-1.3,-.8Z" class="g6_275"/>
<path d="M209,326.1h1.2v-1.4H209Z" class="g6_275"/>
<path d="M213.5,325.2h3.9v.9h-5.2v-.9c.4,-.4,1,-1,1.7,-1.7c.7,-.8,1.2,-1.3,1.4,-1.5c.3,-.4,.6,-.7,.7,-1c.2,-.2,.2,-.5,.2,-.8c0,-.4,-.1,-.8,-.4,-1.1c-.3,-.2,-.7,-.4,-1.2,-.4c-.4,0,-.7,.1,-1.1,.2c-.4,.1,-.8,.3,-1.3,.6v-1.2c.5,-.1,.9,-.3,1.3,-.4c.4,0,.7,-.1,1.1,-.1c.8,0,1.5,.2,2,.6c.5,.5,.7,1,.7,1.7c0,.4,0,.7,-.1,1c-.2,.3,-.4,.7,-.7,1.1c-.1,.1,-.4,.4,-.9,.9c-.5,.5,-1.2,1.2,-2.1,2.1Z" class="g6_275"/>
<path d="M247.6,307.8l-3.2,2.8l.6,.7l3.2,-2.9l-.6,-.6Z" class="g6_275"/>
<path d="M233,327.4c.9,0,1.6,.4,2.1,1.1c.5,.7,.7,1.8,.7,3.1c0,1.4,-.2,2.5,-.7,3.2c-.5,.7,-1.2,1.1,-2.1,1.1c-.9,0,-1.6,-.4,-2.1,-1.1c-.5,-.7,-.7,-1.8,-.7,-3.2c0,-1.3,.2,-2.4,.7,-3.1c.5,-.7,1.2,-1.1,2.1,-1.1Zm0,.9c-.6,0,-1,.2,-1.3,.8c-.3,.6,-.4,1.4,-.4,2.5c0,1.2,.1,2,.4,2.6c.3,.5,.7,.8,1.3,.8c.6,0,1,-.3,1.3,-.8c.3,-.6,.4,-1.4,.4,-2.6c0,-1.1,-.1,-1.9,-.4,-2.5c-.3,-.6,-.7,-.8,-1.3,-.8Z" class="g6_275"/>
<path d="M237.8,335.7h1.1v-1.4h-1.1Z" class="g6_275"/>
<path d="M244.1,327.5h1.4v5.4h1.1v.9h-1.1v1.9h-1.1v-1.9h-3.7v-1.1l3.4,-5.2Zm.3,1l-2.8,4.4h2.8v-4.4Z" class="g6_275"/>
<path d="M276.8,317.3l-3.1,2.9l.7,.7l3.1,-2.9l-.7,-.7Z" class="g6_275"/>
<path d="M262.3,337.2c.9,0,1.6,.3,2.1,1c.5,.8,.7,1.8,.7,3.2c0,1.4,-.2,2.4,-.7,3.2c-.5,.7,-1.2,1,-2.1,1c-.9,0,-1.6,-.3,-2.1,-1c-.5,-.8,-.7,-1.8,-.7,-3.2c0,-1.4,.2,-2.4,.7,-3.2c.5,-.7,1.2,-1,2.1,-1Zm0,.8c-.6,0,-1,.3,-1.3,.9c-.3,.5,-.4,1.4,-.4,2.5c0,1.1,.1,2,.4,2.5c.3,.6,.7,.9,1.3,.9c.6,0,1,-.3,1.3,-.9c.3,-.5,.4,-1.4,.4,-2.5c0,-1.1,-.1,-2,-.4,-2.5c-.3,-.6,-.7,-.9,-1.3,-.9Z" class="g6_275"/>
<path d="M267.1,345.5h1.1v-1.4h-1.1Z" class="g6_275"/>
<path d="M275.3,337.5v1c-.2,-.1,-.5,-.2,-.8,-.3c-.3,-.1,-.6,-.1,-.8,-.1c-.8,0,-1.3,.2,-1.7,.7c-.4,.5,-.6,1.3,-.7,2.3c.2,-.4,.5,-.6,.8,-.8c.4,-.1,.7,-.2,1.1,-.2c.8,0,1.5,.2,2,.7c.4,.5,.7,1.2,.7,2.1c0,.8,-.3,1.5,-.8,2c-.5,.5,-1.1,.7,-2,.7c-.9,0,-1.6,-.3,-2.1,-1c-.5,-.8,-.8,-1.8,-.8,-3.2c0,-1.3,.3,-2.3,.9,-3.1c.7,-.8,1.5,-1.1,2.5,-1.1c.3,0,.6,0,.9,0c.2,.1,.5,.2,.8,.3Zm-2.2,3.5c-.5,0,-.9,.1,-1.1,.5c-.3,.3,-.5,.8,-.5,1.4c0,.5,.2,1,.5,1.4c.2,.3,.6,.5,1.1,.5c.5,0,.9,-.2,1.2,-.5c.3,-.4,.5,-.9,.5,-1.4c0,-.6,-.2,-1.1,-.5,-1.4c-.3,-.4,-.7,-.5,-1.2,-.5Z" class="g6_275"/>
<path d="M306.6,327l-3,3l.6,.7l3.1,-3l-.7,-.7Z" class="g6_275"/>
<path d="M292.1,347.1c1,0,1.7,.4,2.1,1.1c.5,.7,.8,1.8,.8,3.1c0,1.4,-.3,2.5,-.8,3.2c-.4,.7,-1.1,1.1,-2.1,1.1c-.9,0,-1.6,-.4,-2.1,-1.1c-.4,-.7,-.7,-1.8,-.7,-3.2c0,-1.3,.3,-2.4,.7,-3.1c.5,-.7,1.2,-1.1,2.1,-1.1Zm0,.9c-.5,0,-1,.3,-1.2,.8c-.3,.6,-.5,1.4,-.5,2.5c0,1.2,.2,2,.5,2.6c.2,.5,.7,.8,1.2,.8c.6,0,1,-.3,1.3,-.8c.3,-.6,.5,-1.4,.5,-2.6c0,-1.1,-.2,-1.9,-.5,-2.5c-.3,-.5,-.7,-.8,-1.3,-.8Z" class="g6_275"/>
<path d="M296.9,355.4h1.2V354h-1.2Z" class="g6_275"/>
<path d="M301.3,349.3c0,.4,.2,.8,.4,1c.3,.3,.7,.4,1.1,.4c.5,0,.9,-.1,1.2,-.4c.2,-.2,.4,-.6,.4,-1c0,-.4,-.2,-.7,-.4,-1c-.3,-.2,-.7,-.3,-1.2,-.3c-.4,0,-.8,.1,-1.1,.3c-.2,.3,-.4,.6,-.4,1Zm.4,1.8c-.4,-.1,-.8,-.4,-1.1,-.7c-.2,-.3,-.4,-.7,-.4,-1.2c0,-.6,.3,-1.2,.7,-1.5c.5,-.4,1.1,-.6,1.9,-.6c.9,0,1.5,.2,2,.6c.4,.3,.7,.9,.7,1.5c0,.5,-.2,.9,-.4,1.2c-.3,.3,-.7,.6,-1.1,.7c.5,.1,.9,.3,1.2,.7c.3,.4,.5,.8,.5,1.3c0,.8,-.3,1.4,-.8,1.9c-.5,.4,-1.1,.6,-2.1,.6c-.9,0,-1.5,-.2,-2,-.6c-.5,-.5,-.8,-1.1,-.8,-1.9c0,-.5,.2,-.9,.5,-1.3c.3,-.4,.7,-.6,1.2,-.7Zm1.1,.4c-.5,0,-.9,.2,-1.2,.5c-.3,.2,-.4,.6,-.4,1.1c0,.5,.1,.9,.4,1.2c.3,.3,.7,.4,1.2,.4c.6,0,1,-.1,1.3,-.4c.3,-.3,.5,-.7,.5,-1.2c0,-.5,-.2,-.9,-.5,-1.1c-.3,-.3,-.7,-.5,-1.3,-.5Z" class="g6_275"/>
<path d="M337,337l-3,3l.6,.6l3,-3L337,337Z" class="g6_275"/>
<path d="M320.4,364.6h1.8v-6.2l-2,.4v-1l2,-.4h1.1v7.2h1.8v1h-4.7v-1Z" class="g6_275"/>
<path d="M327.3,365.6h1.2v-1.4h-1.2Z" class="g6_275"/>
<path d="M333.3,357.2c.9,0,1.6,.4,2.1,1.1c.4,.7,.7,1.8,.7,3.2c0,1.4,-.3,2.4,-.7,3.1c-.5,.8,-1.2,1.1,-2.1,1.1c-1,0,-1.7,-.3,-2.1,-1.1c-.5,-.7,-.8,-1.7,-.8,-3.1c0,-1.4,.3,-2.5,.8,-3.2c.4,-.7,1.1,-1.1,2.1,-1.1Zm0,.9c-.6,0,-1,.3,-1.3,.8c-.3,.6,-.5,1.5,-.5,2.6c0,1.1,.2,1.9,.5,2.5c.3,.6,.7,.8,1.3,.8c.5,0,1,-.2,1.3,-.8c.2,-.6,.4,-1.4,.4,-2.5c0,-1.1,-.2,-2,-.4,-2.6c-.3,-.5,-.8,-.8,-1.3,-.8Z" class="g6_275"/>
<path d="M436.5,249.9l-89.7,92.2l.6,.6l89.8,-92.1l-.7,-.7Z" class="g6_275"/>
<path d="M424.5,329.4c-.3,.7,-.5,1.2,-.8,1.4c-.3,.2,-.6,.3,-1.1,.3h-.8v-.8h.6c.3,0,.5,-.1,.6,-.2c.2,-.1,.4,-.5,.6,-.9l.1,-.5l-2.4,-6h1l1.9,4.8l2,-4.8h1l-2.7,6.7Z" class="g6_275"/>
<path d="M180.2,155.6l5.8,126c0,.2,.1,.3,.3,.4l167.1,54.1l.3,-.8L186.9,281.2L181.1,155.5l-.9,.1Z" class="g7_275"/>
<path d="M199.4,141.6l4.8,124.7c0,.2,.2,.3,.3,.4L370,319.2l.3,-.9L205.1,265.9L200.3,141.5l-.9,.1Z" class="g7_275"/>
<path d="M218,128l3.9,123.4c0,.2,.2,.4,.4,.4L386,302.7l.3,-.8L222.8,251.1L218.9,128H218Z" class="g7_275"/>
<path d="M236,114.9L239.1,237c0,.2,.2,.4,.3,.4l162.1,49.4l.3,-.9L240,236.7L236.9,114.8l-.9,.1Z" class="g7_275"/>
<path d="M253.5,102.1L255.8,223c0,.2,.1,.4,.3,.4l160.5,47.9l.3,-.8L256.7,222.7L254.4,102.1h-.9Z" class="g7_275"/>
<path d="M270.4,89.7L272,209.4c0,.2,.2,.4,.3,.5l158.9,46.5l.3,-.9L272.9,209.1L271.3,89.7h-.9Z" class="g7_275"/>
<path d="M351.6,335.5l5.1,1.7l.3,-.9l-5.1,-1.6l-.3,.8Z" class="g6_275"/>
<path d="M362.7,351c.9,0,1.6,.3,2.1,1.1c.5,.7,.7,1.7,.7,3.1c0,1.4,-.2,2.5,-.7,3.2c-.5,.7,-1.2,1.1,-2.1,1.1c-.9,0,-1.6,-.4,-2.1,-1.1c-.5,-.7,-.8,-1.8,-.8,-3.2c0,-1.4,.3,-2.4,.8,-3.1c.5,-.8,1.2,-1.1,2.1,-1.1Zm0,.9c-.6,0,-1,.2,-1.3,.8c-.3,.6,-.4,1.4,-.4,2.5c0,1.1,.1,2,.4,2.5c.3,.6,.7,.9,1.3,.9c.6,0,1,-.3,1.3,-.9c.3,-.5,.4,-1.4,.4,-2.5c0,-1.1,-.1,-1.9,-.4,-2.5c-.3,-.6,-.7,-.8,-1.3,-.8Z" class="g6_275"/>
<path d="M367.5,359.3h1.1v-1.4h-1.1Z" class="g6_275"/>
<path d="M373.4,351c.9,0,1.6,.3,2.1,1.1c.5,.7,.7,1.7,.7,3.1c0,1.4,-.2,2.5,-.7,3.2c-.5,.7,-1.2,1.1,-2.1,1.1c-.9,0,-1.6,-.4,-2.1,-1.1c-.5,-.7,-.7,-1.8,-.7,-3.2c0,-1.4,.2,-2.4,.7,-3.1c.5,-.8,1.2,-1.1,2.1,-1.1Zm0,.9c-.6,0,-1,.2,-1.3,.8c-.3,.6,-.4,1.4,-.4,2.5c0,1.1,.1,2,.4,2.5c.3,.6,.7,.9,1.3,.9c.6,0,1,-.3,1.3,-.9c.3,-.5,.4,-1.4,.4,-2.5c0,-1.1,-.1,-1.9,-.4,-2.5c-.3,-.6,-.7,-.8,-1.3,-.8Z" class="g6_275"/>
<path d="M368.2,318.6l5,1.6l.3,-.9l-5.1,-1.6l-.2,.9Z" class="g6_275"/>
<path d="M379,333.7c.9,0,1.6,.4,2.1,1.1c.5,.8,.7,1.8,.7,3.2c0,1.4,-.2,2.4,-.7,3.1c-.5,.8,-1.2,1.1,-2.1,1.1c-.9,0,-1.6,-.3,-2.1,-1.1c-.5,-.7,-.7,-1.7,-.7,-3.1c0,-1.4,.2,-2.4,.7,-3.2c.5,-.7,1.2,-1.1,2.1,-1.1Zm0,.9c-.6,0,-1,.3,-1.3,.9c-.3,.5,-.4,1.4,-.4,2.5c0,1.1,.1,2,.4,2.5c.3,.6,.7,.9,1.3,.9c.6,0,1,-.3,1.3,-.9c.3,-.5,.4,-1.4,.4,-2.5c0,-1.1,-.1,-2,-.4,-2.5c-.3,-.6,-.7,-.9,-1.3,-.9Z" class="g6_275"/>
<path d="M383.8,342.1h1.1v-1.4h-1.1Z" class="g6_275"/>
<path d="M388.3,341.1h3.9v1H387v-1c.4,-.4,1,-1,1.7,-1.7c.7,-.7,1.2,-1.2,1.4,-1.4c.3,-.4,.6,-.8,.7,-1c.1,-.3,.2,-.6,.2,-.8c0,-.5,-.1,-.8,-.5,-1.1c-.3,-.3,-.7,-.4,-1.1,-.4c-.4,0,-.8,0,-1.1,.2c-.4,.1,-.8,.3,-1.3,.5v-1.1c.5,-.2,.9,-.3,1.3,-.4c.4,-.1,.7,-.2,1,-.2c.9,0,1.6,.3,2.1,.7c.5,.4,.7,1,.7,1.7c0,.3,0,.6,-.2,.9c-.1,.3,-.3,.7,-.7,1.1c-.1,.1,-.3,.4,-.8,.9c-.5,.5,-1.2,1.2,-2.1,2.1Z" class="g6_275"/>
<path d="M384.2,302.2l5,1.5l.3,-.9l-5,-1.5l-.3,.9Z" class="g6_275"/>
<path d="M394.8,317.1c.9,0,1.6,.3,2.1,1c.5,.8,.7,1.8,.7,3.2c0,1.4,-.2,2.4,-.7,3.2c-.5,.7,-1.2,1,-2.1,1c-.9,0,-1.6,-.3,-2.1,-1c-.5,-.8,-.7,-1.8,-.7,-3.2c0,-1.4,.2,-2.4,.7,-3.2c.5,-.7,1.2,-1,2.1,-1Zm0,.8c-.6,0,-1,.3,-1.3,.9c-.3,.5,-.4,1.4,-.4,2.5c0,1.1,.1,2,.4,2.5c.3,.6,.7,.9,1.3,.9c.6,0,1,-.3,1.3,-.9c.3,-.5,.4,-1.4,.4,-2.5c0,-1.1,-.1,-2,-.4,-2.5c-.3,-.6,-.7,-.9,-1.3,-.9Z" class="g6_275"/>
<path d="M399.6,325.4h1.1V324h-1.1Z" class="g6_275"/>
<path d="M405.9,317.2h1.4v5.3h1.2v1h-1.2v1.9h-1.1v-1.9h-3.7v-1.1l3.4,-5.2Zm.3,1l-2.8,4.3h2.8v-4.3Z" class="g6_275"/>
<path d="M399.8,286.2l4.9,1.5l.3,-.8l-5,-1.5l-.2,.8Z" class="g6_275"/>
<path d="M410.1,300.9c.9,0,1.6,.4,2.1,1.1c.5,.7,.8,1.8,.8,3.1c0,1.4,-.3,2.5,-.8,3.2c-.5,.7,-1.2,1.1,-2.1,1.1c-.9,0,-1.6,-.4,-2.1,-1.1c-.5,-.7,-.7,-1.8,-.7,-3.2c0,-1.3,.2,-2.4,.7,-3.1c.5,-.7,1.2,-1.1,2.1,-1.1Zm0,.9c-.5,0,-1,.2,-1.3,.8c-.2,.6,-.4,1.4,-.4,2.5c0,1.2,.2,2,.4,2.6c.3,.5,.8,.8,1.3,.8c.6,0,1,-.3,1.3,-.8c.3,-.6,.5,-1.4,.5,-2.6c0,-1.1,-.2,-1.9,-.5,-2.5c-.3,-.6,-.7,-.8,-1.3,-.8Z" class="g6_275"/>
<path d="M414.9,309.2h1.2v-1.4h-1.2Z" class="g6_275"/>
<path d="M423.2,301.2v1c-.3,-.1,-.6,-.2,-.9,-.3c-.3,0,-.5,-.1,-.8,-.1c-.7,0,-1.3,.3,-1.7,.8c-.4,.5,-.6,1.2,-.6,2.2c.2,-.3,.4,-.6,.8,-.7c.3,-.2,.7,-.3,1,-.3c.9,0,1.5,.3,2,.8c.5,.5,.7,1.1,.7,2c0,.8,-.2,1.5,-.7,2c-.5,.5,-1.2,.8,-2,.8c-1,0,-1.7,-.4,-2.2,-1.1c-.5,-.7,-.7,-1.8,-.7,-3.2c0,-1.3,.3,-2.3,.9,-3.1c.6,-.7,1.4,-1.1,2.4,-1.1c.3,0,.6,0,.9,.1c.3,0,.6,.1,.9,.2Zm-2.2,3.5c-.5,0,-.9,.2,-1.2,.5c-.3,.3,-.4,.8,-.4,1.4c0,.6,.1,1,.4,1.4c.3,.3,.7,.5,1.2,.5c.5,0,.9,-.2,1.2,-.5c.2,-.4,.4,-.8,.4,-1.4c0,-.6,-.2,-1.1,-.4,-1.4c-.3,-.3,-.7,-.5,-1.2,-.5Z" class="g6_275"/>
<path d="M414.8,270.8l4.9,1.5l.3,-.9l-4.9,-1.5l-.3,.9Z" class="g6_275"/>
<path d="M425,285.2c.9,0,1.6,.4,2.1,1.1c.5,.7,.7,1.8,.7,3.2c0,1.3,-.2,2.4,-.7,3.1c-.5,.7,-1.2,1.1,-2.1,1.1c-.9,0,-1.6,-.4,-2.1,-1.1c-.5,-.7,-.7,-1.8,-.7,-3.1c0,-1.4,.2,-2.5,.7,-3.2c.5,-.7,1.2,-1.1,2.1,-1.1Zm0,.9c-.6,0,-1,.3,-1.3,.8c-.3,.6,-.4,1.4,-.4,2.6c0,1.1,.1,1.9,.4,2.5c.3,.5,.7,.8,1.3,.8c.6,0,1,-.3,1.3,-.8c.3,-.6,.4,-1.4,.4,-2.5c0,-1.2,-.1,-2,-.4,-2.6c-.3,-.5,-.7,-.8,-1.3,-.8Z" class="g6_275"/>
<path d="M429.8,293.5h1.1v-1.4h-1.1Z" class="g6_275"/>
<path d="M434.2,287.4c0,.5,.1,.8,.4,1c.2,.3,.6,.4,1.1,.4c.5,0,.8,-.1,1.1,-.4c.3,-.2,.4,-.5,.4,-1c0,-.4,-.1,-.7,-.4,-1c-.3,-.2,-.6,-.3,-1.1,-.3c-.5,0,-.9,.1,-1.1,.3c-.3,.3,-.4,.6,-.4,1Zm.4,1.8c-.5,-.1,-.9,-.4,-1.1,-.7c-.3,-.3,-.4,-.7,-.4,-1.2c0,-.6,.2,-1.1,.7,-1.5c.4,-.4,1.1,-.6,1.9,-.6c.8,0,1.4,.2,1.9,.6c.5,.4,.7,.9,.7,1.5c0,.5,-.1,.9,-.4,1.2c-.3,.3,-.6,.6,-1.1,.7c.5,.1,.9,.4,1.2,.7c.3,.4,.5,.8,.5,1.3c0,.8,-.2,1.4,-.7,1.9c-.5,.4,-1.2,.6,-2.1,.6c-.9,0,-1.6,-.2,-2.1,-.6c-.5,-.5,-.7,-1.1,-.7,-1.9c0,-.5,.1,-.9,.4,-1.3c.3,-.3,.7,-.6,1.3,-.7Zm1.1,.5c-.5,0,-1,.1,-1.3,.4c-.3,.3,-.4,.6,-.4,1.1c0,.5,.1,.9,.4,1.2c.3,.3,.8,.4,1.3,.4c.5,0,.9,-.1,1.2,-.4c.3,-.3,.5,-.7,.5,-1.2c0,-.5,-.2,-.8,-.5,-1.1c-.3,-.3,-.7,-.4,-1.2,-.4Z" class="g6_275"/>
<path d="M429.4,255.8l4.9,1.5l.3,-.9L429.7,255l-.3,.8Z" class="g6_275"/>
<path d="M437.2,277.4H439v-6.2l-2,.4v-1.1l2,-.3h1.1v7.2h1.8v.9h-4.7v-.9Z" class="g6_275"/>
<path d="M444.2,278.3h1.1v-1.4h-1.1Z" class="g6_275"/>
<path d="M450.1,270c.9,0,1.6,.4,2.1,1.1c.5,.7,.7,1.8,.7,3.2c0,1.3,-.2,2.4,-.7,3.1c-.5,.7,-1.2,1.1,-2.1,1.1c-.9,0,-1.6,-.4,-2.1,-1.1c-.5,-.7,-.7,-1.8,-.7,-3.1c0,-1.4,.2,-2.5,.7,-3.2c.5,-.7,1.2,-1.1,2.1,-1.1Zm0,.9c-.6,0,-1,.3,-1.3,.8c-.3,.6,-.4,1.4,-.4,2.6c0,1.1,.1,1.9,.4,2.5c.3,.5,.7,.8,1.3,.8c.6,0,1,-.3,1.3,-.8c.3,-.6,.4,-1.4,.4,-2.5c0,-1.2,-.1,-2,-.4,-2.6c-.3,-.5,-.7,-.8,-1.3,-.8Z" class="g6_275"/>
<path d="M437,251l5.7,-124.2h-.9L436.1,251h.9Z" class="g6_275"/>
<path d="M482.3,181.1h4.8v1l-3.8,4.4h3.8v.8h-4.9v-.9l3.8,-4.5h-3.7v-.8Z" class="g6_275"/>
<path d="M437.2,238.1L278.3,192.5c-.2,0,-.3,0,-.5,.1l-99.1,82l.6,.7l98.9,-81.9L437,239l.2,-.9Z" class="g7_275"/>
<path d="M438.1,219.3L278,174.3c-.1,0,-.2,0,-.4,.1l-99.8,80.9l.6,.7L278,175.2l159.8,45l.3,-.9Z" class="g7_275"/>
<path d="M438.9,200.3L277.8,155.9c-.1,-.1,-.3,0,-.4,.1L176.9,235.8l.5,.7L277.8,156.8l160.9,44.3l.2,-.8Z" class="g7_275"/>
<path d="M439.8,181L277.6,137.2l-.4,.1L175.9,216l.6,.7L277.6,138.1l162,43.7l.2,-.8Z" class="g7_275"/>
<path d="M440.7,161.4L277.4,118.3H277L175,195.9l.5,.7L277.4,119.2l163.1,43l.2,-.8Z" class="g7_275"/>
<path d="M441.6,141.5L277.2,99.1l-.4,.1L174,175.5l.5,.7L277.2,100l164.2,42.4l.2,-.9Z" class="g7_275"/>
<path d="M435.2,238.5l4.9,1.4l.2,-.9l-4.8,-1.4l-.3,.9Z" class="g6_275"/>
<path d="M452.3,235.9c.9,0,1.6,.3,2.1,1c.5,.8,.7,1.8,.7,3.2c0,1.4,-.2,2.4,-.7,3.2c-.5,.7,-1.2,1,-2.1,1c-.9,0,-1.6,-.3,-2.1,-1c-.5,-.8,-.7,-1.8,-.7,-3.2c0,-1.4,.2,-2.4,.7,-3.2c.5,-.7,1.2,-1,2.1,-1Zm0,.8c-.6,0,-1,.3,-1.3,.9c-.3,.5,-.4,1.4,-.4,2.5c0,1.1,.1,2,.4,2.5c.3,.6,.7,.9,1.3,.9c.6,0,1,-.3,1.3,-.9c.3,-.5,.4,-1.4,.4,-2.5c0,-1.1,-.1,-2,-.4,-2.5c-.3,-.6,-.7,-.9,-1.3,-.9Z" class="g6_275"/>
<path d="M457.1,244.2h1.1v-1.4h-1.1Z" class="g6_275"/>
<path d="M463.4,236h1.4v5.3H466v1h-1.2v1.9h-1.1v-1.9H460v-1.1l3.4,-5.2Zm.3,1l-2.8,4.3h2.8V237Z" class="g6_275"/>
<path d="M436.1,219.7l4.9,1.4l.2,-.9l-4.9,-1.4l-.2,.9Z" class="g6_275"/>
<path d="M453.3,217.1c.9,0,1.6,.4,2.1,1.1c.5,.7,.7,1.8,.7,3.1c0,1.4,-.2,2.5,-.7,3.2c-.5,.7,-1.2,1.1,-2.1,1.1c-.9,0,-1.6,-.4,-2.1,-1.1c-.5,-.7,-.7,-1.8,-.7,-3.2c0,-1.3,.2,-2.4,.7,-3.1c.5,-.7,1.2,-1.1,2.1,-1.1Zm0,.9c-.6,0,-1,.3,-1.3,.8c-.3,.6,-.4,1.4,-.4,2.5c0,1.2,.1,2,.4,2.6c.3,.5,.7,.8,1.3,.8c.6,0,1,-.3,1.3,-.8c.3,-.6,.4,-1.4,.4,-2.6c0,-1.1,-.1,-1.9,-.4,-2.5c-.3,-.5,-.7,-.8,-1.3,-.8Z" class="g6_275"/>
<path d="M458.1,225.4h1.1V224h-1.1Z" class="g6_275"/>
<path d="M466.3,217.4v1c-.2,-.1,-.5,-.2,-.8,-.3c-.3,0,-.6,-.1,-.8,-.1c-.8,0,-1.3,.3,-1.7,.8c-.4,.5,-.6,1.2,-.7,2.2c.2,-.3,.5,-.6,.8,-.7c.4,-.2,.7,-.3,1.1,-.3c.8,0,1.5,.3,2,.8c.4,.5,.7,1.1,.7,2c0,.8,-.3,1.5,-.8,2c-.5,.5,-1.1,.8,-2,.8c-.9,0,-1.6,-.4,-2.1,-1.1c-.5,-.7,-.8,-1.8,-.8,-3.2c0,-1.2,.3,-2.3,.9,-3c.7,-.8,1.5,-1.2,2.5,-1.2c.3,0,.6,0,.9,.1c.2,0,.5,.1,.8,.2Zm-2.2,3.5c-.4,0,-.8,.2,-1.1,.5c-.3,.3,-.5,.8,-.5,1.4c0,.6,.2,1.1,.5,1.4c.3,.3,.7,.5,1.1,.5c.5,0,.9,-.2,1.2,-.5c.3,-.3,.5,-.8,.5,-1.4c0,-.6,-.2,-1.1,-.5,-1.4c-.3,-.3,-.7,-.5,-1.2,-.5Z" class="g6_275"/>
<path d="M436.9,200.6l4.9,1.4l.3,-.9l-4.9,-1.3l-.3,.8Z" class="g6_275"/>
<path d="M454.3,198.1c.9,0,1.6,.3,2.1,1.1c.5,.7,.7,1.7,.7,3.1c0,1.4,-.2,2.5,-.7,3.2c-.5,.7,-1.2,1.1,-2.1,1.1c-.9,0,-1.6,-.4,-2.1,-1.1c-.5,-.7,-.7,-1.8,-.7,-3.2c0,-1.4,.2,-2.4,.7,-3.1c.5,-.8,1.2,-1.1,2.1,-1.1Zm0,.9c-.6,0,-1,.2,-1.3,.8c-.3,.6,-.4,1.4,-.4,2.5c0,1.1,.1,2,.4,2.6c.3,.5,.7,.8,1.3,.8c.6,0,1,-.3,1.3,-.8c.3,-.6,.4,-1.5,.4,-2.6c0,-1.1,-.1,-1.9,-.4,-2.5c-.3,-.6,-.7,-.8,-1.3,-.8Z" class="g6_275"/>
<path d="M459.1,206.4h1.1V205h-1.1Z" class="g6_275"/>
<path d="M463.5,200.3c0,.4,.1,.8,.4,1c.3,.2,.6,.4,1.1,.4c.5,0,.9,-.2,1.1,-.4c.3,-.2,.4,-.6,.4,-1c0,-.4,-.1,-.7,-.4,-1c-.2,-.2,-.6,-.3,-1.1,-.3c-.5,0,-.8,.1,-1.1,.3c-.3,.3,-.4,.6,-.4,1Zm.4,1.8c-.5,-.2,-.8,-.4,-1.1,-.7c-.3,-.3,-.4,-.7,-.4,-1.2c0,-.7,.2,-1.2,.7,-1.5c.5,-.4,1.1,-.6,1.9,-.6c.8,0,1.5,.2,1.9,.6c.5,.3,.7,.8,.7,1.5c0,.5,-.1,.9,-.4,1.2c-.2,.3,-.6,.5,-1.1,.7c.6,.1,1,.3,1.3,.7c.3,.3,.4,.8,.4,1.3c0,.8,-.2,1.4,-.7,1.8c-.5,.5,-1.2,.7,-2.1,.7c-.9,0,-1.6,-.2,-2.1,-.7c-.4,-.4,-.7,-1,-.7,-1.8c0,-.5,.2,-1,.5,-1.3c.3,-.4,.7,-.6,1.2,-.7Zm1.1,.4c-.5,0,-.9,.2,-1.2,.4c-.3,.3,-.5,.7,-.5,1.2c0,.5,.2,.9,.5,1.2c.3,.3,.7,.4,1.2,.4c.5,0,1,-.1,1.3,-.4c.3,-.3,.4,-.7,.4,-1.2c0,-.5,-.1,-.9,-.4,-1.2c-.3,-.2,-.7,-.4,-1.3,-.4Z" class="g6_275"/>
<path d="M437.8,181.3l5,1.4l.2,-.9l-5,-1.3l-.2,.8Z" class="g6_275"/>
<path d="M453.2,186.2H455V180l-2,.4v-1.1l2,-.3h1.1v7.2h1.8v.9h-4.7v-.9Z" class="g6_275"/>
<path d="M460.1,187.1h1.2v-1.4h-1.2Z" class="g6_275"/>
<path d="M466,178.8c1,0,1.7,.4,2.2,1.1c.4,.7,.7,1.8,.7,3.2c0,1.3,-.3,2.4,-.7,3.1c-.5,.7,-1.2,1.1,-2.2,1.1c-.9,0,-1.6,-.4,-2.1,-1.1c-.4,-.7,-.7,-1.8,-.7,-3.1c0,-1.4,.3,-2.5,.7,-3.2c.5,-.7,1.2,-1.1,2.1,-1.1Zm0,.9c-.5,0,-.9,.3,-1.2,.8c-.3,.6,-.5,1.4,-.5,2.6c0,1.1,.2,1.9,.5,2.5c.3,.5,.7,.8,1.2,.8c.6,0,1.1,-.3,1.3,-.8c.3,-.6,.5,-1.4,.5,-2.5c0,-1.2,-.2,-2,-.5,-2.6c-.2,-.5,-.7,-.8,-1.3,-.8Z" class="g6_275"/>
<path d="M438.7,161.8l5,1.3l.2,-.9l-5,-1.3l-.2,.9Z" class="g6_275"/>
<path d="M454.2,166.7H456v-6.3l-2,.4v-1l2,-.4h1.1v7.3h1.8v.9h-4.7v-.9Z" class="g6_275"/>
<path d="M461.2,167.6h1.1v-1.4h-1.1Z" class="g6_275"/>
<path d="M465.7,166.7h3.8v.9h-5.2v-.9c.5,-.5,1,-1.1,1.8,-1.8c.7,-.7,1.1,-1.2,1.3,-1.4c.4,-.4,.6,-.7,.8,-1c.1,-.3,.2,-.6,.2,-.8c0,-.5,-.2,-.8,-.5,-1.1c-.3,-.3,-.7,-.4,-1.2,-.4c-.3,0,-.7,.1,-1.1,.2c-.4,.1,-.8,.3,-1.2,.5v-1.1c.4,-.2,.9,-.3,1.2,-.4c.4,-.1,.8,-.1,1.1,-.1c.9,0,1.5,.2,2,.6c.5,.4,.8,1,.8,1.7c0,.3,-.1,.7,-.2,1c-.1,.3,-.4,.6,-.7,1c-.1,.1,-.4,.4,-.9,.9c-.4,.5,-1.1,1.3,-2,2.2Z" class="g6_275"/>
<path d="M439.6,141.9l5,1.3l.2,-.9l-5,-1.3l-.2,.9Z" class="g6_275"/>
<path d="M455.3,146.8h1.8v-6.2l-2,.4v-1l2,-.4h1.1v7.2H460v1h-4.7v-1Z" class="g6_275"/>
<path d="M462.2,147.8h1.2v-1.4h-1.2Z" class="g6_275"/>
<path d="M468.5,139.6h1.4v5.3h1.2v.9h-1.2v2h-1.1v-2h-3.7v-1l3.4,-5.2Zm.3,1l-2.8,4.3h2.8v-4.3Z" class="g6_275"/>
<path d="M196.2,282.9l15.5,5.3l.1,.1l15.7,4h.1l15.8,2.6l.1,.1l16,1.2h.1l16.1,-.2h.1l16.4,-1.6h.1L309,291.3l17,-4.7l17.3,-6.2l-.6,-1.6L325.5,285l-16.9,4.6L292,292.7l-16.3,1.7l-16.1,.1l-15.9,-1.2l-15.8,-2.7l-15.6,-4l-15.6,-5.3l-.5,1.6Z" class="g8_275"/>
<path d="M206.2,271.7l15.5,5.4h.1l15.7,3.6l15.8,1.8h16.1l16.1,-1.9h.1L302,276.8h.1L318.7,271h.1l17,-7.8h.1l17.3,-9.9l-.8,-1.5l-17.3,9.9l-16.9,7.7l-16.6,5.8l-16.3,3.7l-16,1.9H253.4L237.8,279l-15.5,-3.6l-15.5,-5.3l-.6,1.6Z" class="g8_275"/>
<path d="M216.1,259.8l15.5,5.2h.1c15.3,4.2,31.5,5.4,47.3,3.3h.1L295.2,265h.1l16.4,-5.4v-.1l16.7,-7.7l.1,-.1l17,-10.1h.1L363,228.9l-1,-1.4l-17.4,12.7l-16.9,10.1L311.1,258l-16.3,5.4l-16,3.2l-15.7,1l-15.6,-1.1l-15.4,-3.1l-15.4,-5.2l-.6,1.6Z" class="g8_275"/>
<path d="M225.8,247.1l15.4,5h.2l15.4,2.8h.2l15.6,.5h.1l15.8,-1.8h.2l16,-4.2h.1l16.4,-6.6l.1,-.1l16.6,-9.1l.1,-.1l17,-11.7l.1,-.1l17.5,-14.5l-1.1,-1.3L354,220.4l-16.9,11.7l-16.6,9.1l-16.3,6.6l-15.9,4.1l-15.7,1.8l-15.5,-.5l-15.4,-2.7l-15.3,-5l-.6,1.6Z" class="g8_275"/>
<path d="M235.4,233.7l15.4,4.6l.1,.1l15.4,2.4h15.9L298,238.5h.1l16,-4.8h.1l16.3,-7.3l.1,-.1l16.7,-9.8l.1,-.1l17,-12.6h.1L382,188.3l-1.1,-1.2l-17.5,15.4l-17,12.5l-16.6,9.9l-16.2,7.2l-15.9,4.7L282,239.1H266.5l-15.3,-2.4l-15.3,-4.6l-.5,1.6Z" class="g8_275"/>
<path d="M244.9,219.5l15.2,4.2l.2,.1l15.4,2h.1l15.5,-.3h.2l15.7,-2.6h.1l16.1,-5h.1l16.3,-7.5h.1l16.6,-10l.1,-.1l17.1,-12.6v-.1l17.5,-15.4l-1.1,-1.3l-17.5,15.4l-17,12.7L339,208.9l-16.2,7.4l-15.9,5l-15.7,2.5l-15.4,.3l-15.3,-2l-15.2,-4.2l-.4,1.6Z" class="g8_275"/>
<path d="M254.2,204.5l15.2,3.8h.1l15.4,1.7h.1l15.5,-.5h.1l15.8,-2.6h.1l16,-4.9h.1l16.3,-7.1l.1,-.1l16.6,-9.5h.1l17,-12h.1l17.5,-14.5l-1.1,-1.3L381.7,172l-17,11.9l-16.5,9.4L332,200.4l-15.9,4.8l-15.7,2.6l-15.4,.5l-15.3,-1.7l-15.1,-3.7l-.4,1.6Z" class="g8_275"/>
<path d="M263.4,188.9l15.2,3.1l15.4,1.3h.1l15.5,-.5h.1l15.7,-2.4h.1l16,-4.4h.1l16.3,-6.3l16.6,-8.4h.1l17,-10.5h.1l17.4,-12.7l-1,-1.4l-17.4,12.7l-16.9,10.4l-16.6,8.4L341,184.4l-15.9,4.3l-15.6,2.4l-15.4,.5l-15.3,-1.3l-15.1,-3.1l-.3,1.7Z" class="g8_275"/>
<path d="M272.5,172.4l15.1,2.4h.1l15.3,1h.1l15.5,-.4h.1l15.7,-2l16,-3.4h.1l16.2,-5l.1,-.1l16.5,-6.5l.1,-.1l16.9,-8.2l17.3,-10l-.9,-1.5l-17.2,10l-16.8,8.2l-16.5,6.6L350,168.3l-15.9,3.5l-15.6,1.9l-15.4,.4l-15.3,-1l-15.1,-2.4l-.2,1.7Z" class="g8_275"/>
<path d="M281.5,155.2l15.1,1.6c37.9,2.9,76.2,-3.3,112.1,-15.7l17.1,-6.3l-.6,-1.6l-17,6.3C372.3,151.9,334.7,158,296.7,155.1l-15.1,-1.6l-.1,1.7Z" class="g8_275"/>
<path d="M197.1,282.6l10,-11.1c26.1,-30.3,47.4,-64.4,66.2,-99.5l9,-17.3l-1.5,-.7l-9,17.2c-18.7,34.9,-40,69.1,-65.9,99.1l-10.1,11.2l1.3,1.1Z" class="g8_275"/>
<path d="M212.6,288l10.1,-11.2C249,245.8,270,210.5,288.5,174.4l8.9,-18.1l-1.5,-.7l-8.9,18c-18.4,35.9,-39.5,71.3,-65.6,102.1l-10,11.2l1.2,1.1Z" class="g8_275"/>
<path d="M228.4,292l9.9,-11.6c26.1,-32.1,47,-68.1,65.5,-105.1L312.7,157l-1.5,-.7l-8.9,18.3C283.9,211.3,262.9,247.4,237,279.3l-9.9,11.6l1.3,1.1Z" class="g8_275"/>
<path d="M244.2,294.6l9.9,-12.4c25.3,-33.4,46.4,-69.9,65.2,-107.3l8.9,-18.2l-1.5,-.7l-8.9,18.1c-18.7,37.3,-39.8,73.8,-65.1,107l-9.8,12.5l1.3,1Z" class="g8_275"/>
<path d="M260.2,295.9L270,282.1C294.2,247.3,315.5,210.6,335,173l8.9,-17.5l-1.5,-.7l-8.9,17.4C314,209.7,292.7,246.4,268.6,281.1l-9.7,13.8l1.3,1Z" class="g8_275"/>
<path d="M276.4,295.6l9.8,-15.4C308.8,243.9,330.3,207,351,169.6l8.8,-16.2l-1.5,-.8l-8.8,16.1l-9,16.1h.1l-9.1,16l-9.1,15.9l-9.3,15.8l-9.3,15.7l-9.5,15.6l-9.6,15.5L275,294.8l1.4,.8Z" class="g8_275"/>
<path d="M292.9,294l9.7,-17.6l9.5,-17.2l9.5,-16.8L330.9,226l9.3,-15.9l9.1,-15.6l9,-15.1l8.9,-14.8L376,150.2l-1.5,-.9l-8.8,14.4c-22.3,36.8,-43.8,74.2,-64.6,111.9l-9.7,17.6l1.5,.8Z" class="g8_275"/>
<path d="M309.6,290.8l9.6,-20.2c19,-38.7,39.8,-77.2,64.5,-112.5l8.7,-12l-1.4,-1l-8.7,12c-24.8,35.6,-45.5,73.8,-64.6,112.8L308,290.1l1.6,.7Z" class="g8_275"/>
<path d="M326.5,286.1l9.7,-23.3C353,224.4,373.1,182,400.5,149.9l8.6,-9l-1.3,-1.2l-8.5,9.1C371,182.2,352.2,222.4,334.7,262.1L325,285.5l1.5,.6Z" class="g8_275"/>
<path d="M343.8,279.9l9.8,-27l9.7,-24.4l9.5,-21.6l9.4,-18.8L391.4,172l9,-13.4L409.2,148l8.5,-8l8.3,-5.3l-.9,-1.4l-8.4,5.4l-.1,.1c-11,8.8,-19.2,20.5,-26.6,32.3l-9.3,16.2c-11.1,20.9,-20.2,42.8,-28.7,65l-9.8,27l1.6,.6Z" class="g8_275"/>
<image clip-path="url(#c0_275)" preserveAspectRatio="none" x="156" y="483" width="235" height="188" xlink:href="img/1.jpg"/>
</svg>