<?xml version="1.0" encoding="UTF-8" standalone="no"?>
<!DOCTYPE svg PUBLIC "-//W3C//DTD SVG 1.1//EN"
"http://www.w3.org/Graphics/SVG/1.1/DTD/svg11.dtd">
<svg viewBox="0 0 811 1017" version="1.1" xmlns="http://www.w3.org/2000/svg" xmlns:xlink="http://www.w3.org/1999/xlink">
<defs>
<style type="text/css"><![CDATA[
.g0_270{
fill: #0E0E0E;
}
]]></style>
</defs>
<path d="M329.6,123.7c0,-.1,-.1,-.1,-.1,-.1c0,0,-.1,0,-.1,0c-4.8,5.3,-5.3,19.2,-5.3,20.8v.6h1.4v-.6c0,-1.2,.8,-15,3.9,-20.4c.1,-.1,.2,-.2,.2,-.3Z" class="g0_270"/>
<path d="M324.1,154.3h1.4v-9.6h-1.4Z" class="g0_270"/>
<path d="M324.1,163.3h1.4v-9.6h-1.4Z" class="g0_270"/>
<path d="M324.1,172.2h1.4v-9.6h-1.4Z" class="g0_270"/>
<path d="M329.6,193.3c0,-.1,-.1,-.2,-.2,-.3c-3.1,-5.4,-3.9,-19.2,-3.9,-20.4V172h-1.4v.6c0,1.6,.5,15.5,5.3,20.8c0,0,.1,0,.1,0c0,0,.1,0,.1,-.1Z" class="g0_270"/>
<path d="M337.2,129.7c0,-.6,-.4,-1,-1,-1c-.3,0,-.6,.1,-.9,.4c-.3,.2,-.6,.5,-.9,.8c0,-.6,-.4,-1.2,-1,-1.2c-1.1,0,-2.1,1.2,-2.5,2l.3,.1c.3,-.5,1,-1.7,1.9,-1.7c.3,0,.4,.5,.4,1c0,.3,0,.6,-.2,1.1l-.3,1.2c-.2,.6,-.4,1.4,-.7,1.8c-.2,.2,-.5,.7,-.8,.7c-.5,0,-.8,-.1,-.7,-.5c.1,-.3,.1,-.8,-.4,-.8c-.4,0,-.6,.3,-.6,.8c0,.5,.5,.9,1.1,.9c1,0,1.7,-.8,2.1,-1.4c.1,.8,.5,1.4,1.4,1.4c1.1,0,2,-1.1,2.4,-1.8l-.2,-.2c-.5,.6,-1.2,1.7,-2,1.7c-.4,0,-.6,-.7,-.6,-1.3c0,-.3,0,-.7,.2,-1.3l.2,-.7c.1,-.6,.3,-1.3,.6,-1.6c.2,-.3,.5,-1,.9,-1c.4,0,.4,.3,.4,.6c-.1,.4,.1,.6,.4,.6c.4,0,.5,-.3,.5,-.6Z" class="g0_270"/>
<path d="M338.8,130.5v.1c.3,0,.8,.1,1,.2c.3,.1,.3,.2,.3,.7v4.8c0,.2,0,.4,-.1,.5c0,.5,-.6,.6,-1.1,.6v.2h3.4v-.2c-.4,0,-.9,0,-1.1,-.2c-.1,-.3,-.2,-.6,-.2,-1v-6.3c-.5,.3,-1.5,.5,-2.2,.6Z" class="g0_270"/>
<path d="M343.2,137.4c0,.5,.4,.9,1.1,.9c.4,0,.8,-.2,1.3,-.6c.8,-.6,2,-2.2,2.8,-3.4c.3,-.6,.7,-1.2,1,-1.8c.4,-.8,1.1,-2.1,1.1,-2.9c0,-.2,0,-.4,-.1,-.6c-.1,-.2,-.3,-.3,-.5,-.3c-.1,0,-.3,.1,-.4,.2c-.2,.2,-.2,.4,-.2,.7c0,.4,.2,.9,.2,1.3c0,.6,-.2,1.1,-.5,1.6c-.2,.5,-.4,.9,-.8,1.4h-.1l-.3,-1.9c-.1,-.6,-.3,-1.6,-.4,-2.1c-.2,-.7,-.3,-1.2,-1.3,-1.2c-1.2,0,-1.4,1.8,-1.6,2.6l.3,.1c.1,-.6,.5,-2.3,1,-2.3c.3,0,.5,1,.6,1.2c0,.3,.1,.7,.2,1.4l.6,3.5c-.3,.8,-1.2,1.7,-1.8,2.1c-.2,.2,-.5,.3,-.7,.3c-.1,0,-.2,-.1,-.2,-.1c-.2,-.3,-.2,-.8,-.7,-.8c-.4,0,-.6,.3,-.6,.7Z" class="g0_270"/>
<path d="M352.1,130.5v.1c.4,0,.8,.1,1,.2c.3,.1,.3,.2,.3,.7v4.8c0,.2,0,.4,0,.5c-.1,.5,-.7,.6,-1.2,.6v.2h3.4v-.2c-.4,0,-.9,0,-1.1,-.2c-.1,-.3,-.1,-.6,-.1,-1v-6.3c-.6,.3,-1.6,.5,-2.3,.6Z" class="g0_270"/>
<path d="M379.7,129.7c0,-.6,-.5,-1,-1,-1c-.4,0,-.7,.1,-1,.4c-.3,.2,-.6,.5,-.8,.8c0,-.6,-.5,-1.2,-1.1,-1.2c-1.1,0,-2.1,1.2,-2.4,2l.2,.1c.3,-.5,1.1,-1.7,2,-1.7c.2,0,.3,.5,.3,1c0,.3,0,.6,-.2,1.1l-.3,1.2c-.2,.6,-.4,1.4,-.7,1.8c-.2,.2,-.5,.7,-.8,.7c-.4,0,-.8,-.1,-.7,-.5c.1,-.3,.1,-.8,-.4,-.8c-.4,0,-.6,.3,-.6,.8c0,.5,.5,.9,1.1,.9c1,0,1.7,-.8,2.1,-1.4c.1,.8,.5,1.4,1.4,1.4c1.1,0,2,-1.1,2.4,-1.8l-.2,-.2c-.5,.6,-1.1,1.7,-1.9,1.7c-.5,0,-.7,-.7,-.7,-1.3c0,-.3,.1,-.7,.2,-1.3l.2,-.7c.1,-.6,.3,-1.3,.6,-1.6c.2,-.3,.6,-1,.9,-1c.4,0,.4,.3,.4,.6c0,.4,.1,.6,.4,.6c.4,0,.6,-.3,.6,-.6Z" class="g0_270"/>
<path d="M381.2,130.5v.1c.3,0,.8,.1,1,.2c.3,.1,.3,.2,.3,.7v4.8c0,.2,0,.4,0,.5c-.1,.5,-.7,.6,-1.2,.6v.2h3.4v-.2c-.4,0,-.9,0,-1.1,-.2c-.1,-.3,-.1,-.6,-.1,-1v-6.3c-.6,.3,-1.6,.5,-2.3,.6Z" class="g0_270"/>
<path d="M400.5,137.4c0,.5,.5,.9,1.1,.9c.5,0,.8,-.2,1.3,-.6c.8,-.6,2.1,-2.2,2.8,-3.4c.4,-.6,.8,-1.2,1,-1.8c.4,-.8,1.2,-2.1,1.2,-2.9c0,-.2,-.1,-.4,-.2,-.6c-.1,-.2,-.3,-.3,-.4,-.3c-.2,0,-.3,.1,-.5,.2c-.1,.2,-.2,.4,-.2,.7c0,.4,.2,.9,.2,1.3c0,.6,-.2,1.1,-.4,1.6c-.3,.5,-.5,.9,-.8,1.4h-.1l-.4,-1.9c-.1,-.6,-.3,-1.6,-.4,-2.1c-.2,-.7,-.3,-1.2,-1.3,-1.2c-1.2,0,-1.3,1.8,-1.6,2.6l.3,.1c.1,-.6,.6,-2.3,1.1,-2.3c.3,0,.4,1,.5,1.2c.1,.3,.1,.7,.3,1.4l.5,3.5c-.3,.8,-1.1,1.7,-1.7,2.1c-.3,.2,-.6,.3,-.7,.3c-.2,0,-.2,-.1,-.3,-.1c-.2,-.3,-.2,-.8,-.7,-.8c-.4,0,-.6,.3,-.6,.7Z" class="g0_270"/>
<path d="M409.5,130.5v.1c.3,0,.8,.1,.9,.2c.4,.1,.3,.2,.4,.7v4.8c0,.2,-.1,.4,-.1,.5c-.1,.5,-.6,.6,-1.2,.6v.2h3.4v-.2c-.3,0,-.9,0,-1,-.2c-.2,-.3,-.2,-.6,-.2,-1v-6.3c-.6,.3,-1.5,.5,-2.2,.6Z" class="g0_270"/>
<path d="M431.8,125.5v.2c.4,0,1.1,.1,1.3,.2c.4,.2,.4,.4,.4,1v6.5c0,.3,0,.6,0,.8c-.1,.7,-.9,.7,-1.7,.8v.2h4.7V135c-.5,0,-1.2,-.1,-1.4,-.3c-.3,-.3,-.3,-.8,-.3,-1.4v-8.6c-.8,.4,-2.1,.8,-3,.8Z" class="g0_270"/>
<path d="M337.2,147.6c0,-.6,-.4,-1,-1,-1c-.3,0,-.6,.1,-.9,.4c-.3,.2,-.6,.5,-.9,.8c0,-.6,-.4,-1.2,-1,-1.2c-1.1,0,-2.1,1.2,-2.5,2l.3,.1c.3,-.5,1,-1.7,1.9,-1.7c.3,0,.4,.5,.4,1c0,.3,0,.6,-.2,1.1l-.3,1.2c-.2,.6,-.4,1.4,-.7,1.8c-.2,.2,-.5,.7,-.8,.7c-.5,0,-.8,-.1,-.7,-.5c.1,-.4,.1,-.8,-.4,-.8c-.4,0,-.6,.3,-.6,.8c0,.5,.5,.9,1.1,.9c1,0,1.7,-.8,2.1,-1.4c.1,.8,.5,1.4,1.4,1.4c1.1,0,2,-1.1,2.4,-1.8l-.2,-.2c-.5,.6,-1.2,1.7,-2,1.7c-.4,0,-.6,-.7,-.6,-1.3c0,-.3,0,-.8,.2,-1.3l.2,-.7c.1,-.6,.3,-1.3,.6,-1.6c.2,-.3,.5,-1,.9,-1c.4,0,.4,.3,.4,.6c-.1,.4,.1,.6,.4,.6c.4,0,.5,-.3,.5,-.6Z" class="g0_270"/>
<path d="M340,150.8c-.7,0,-1.1,-.5,-1.1,-1.2c0,-.8,.4,-1.6,1.3,-1.6c1.2,0,1.4,1,1.4,1.9c0,.9,-.3,1.5,-.8,2.1c-.2,.4,-.6,.9,-1.1,1.4c-.5,.5,-1.1,1.1,-1.8,1.7v.4h4.5l.4,-2.1h-.3c-.1,.2,-.2,.4,-.2,.5c-.2,.4,-.5,.6,-1,.6h-2.1l-.1,-.1c.5,-.3,1,-.7,1.4,-1c.8,-.7,1.6,-1.4,2,-2.3c.2,-.4,.2,-.8,.2,-1.2c0,-.3,0,-.6,-.1,-.8c-.4,-.8,-1.1,-1.3,-2.2,-1.3c-.7,0,-1.3,.3,-1.7,.6c-.4,.3,-.7,.8,-.7,1.4c0,.5,.1,.8,.3,1.1c.2,.2,.5,.4,.9,.4c.4,0,.7,-.2,.8,-.5Z" class="g0_270"/>
<path d="M343.2,155.3c0,.5,.4,.9,1.1,.9c.4,0,.8,-.2,1.3,-.6c.8,-.6,2,-2.2,2.8,-3.4c.3,-.6,.7,-1.2,1,-1.8c.4,-.8,1.1,-2.1,1.1,-2.9c0,-.2,0,-.4,-.1,-.6c-.1,-.2,-.3,-.3,-.5,-.3c-.1,0,-.3,.1,-.4,.2c-.2,.2,-.2,.4,-.2,.7c0,.4,.2,.9,.2,1.3c0,.6,-.2,1.1,-.5,1.6c-.2,.5,-.4,.9,-.8,1.4h-.1l-.3,-1.9c-.1,-.6,-.3,-1.7,-.4,-2.1c-.2,-.7,-.3,-1.2,-1.3,-1.2c-1.2,0,-1.4,1.8,-1.6,2.6l.3,.1c.1,-.6,.5,-2.3,1,-2.3c.3,0,.5,1,.6,1.2c0,.3,.1,.7,.2,1.4l.6,3.5c-.3,.8,-1.2,1.7,-1.8,2.1c-.2,.2,-.5,.3,-.7,.3c-.1,0,-.2,-.1,-.2,-.1c-.2,-.3,-.2,-.8,-.7,-.8c-.4,0,-.6,.3,-.6,.7Z" class="g0_270"/>
<path d="M353.3,150.8c-.6,0,-1,-.5,-1,-1.2c0,-.8,.4,-1.6,1.3,-1.6c1.2,0,1.3,1,1.3,1.9c0,.9,-.3,1.5,-.7,2.1c-.3,.4,-.7,.9,-1.1,1.4c-.5,.5,-1.1,1.1,-1.9,1.7v.4h4.6l.3,-2.1h-.3c0,.2,-.1,.4,-.2,.5c-.2,.4,-.5,.6,-1,.6h-2.1v-.1c.5,-.3,.9,-.7,1.4,-1c.7,-.7,1.5,-1.4,1.9,-2.3c.2,-.4,.3,-.8,.3,-1.2c0,-.3,-.1,-.6,-.2,-.8c-.4,-.8,-1.1,-1.3,-2.2,-1.3c-.7,0,-1.3,.3,-1.7,.6c-.4,.3,-.7,.8,-.7,1.4c0,.5,.1,.8,.4,1.1c.2,.2,.5,.4,.9,.4c.4,0,.7,-.2,.7,-.5Z" class="g0_270"/>
<path d="M379.7,147.6c0,-.6,-.5,-1,-1,-1c-.4,0,-.7,.1,-1,.4c-.3,.2,-.6,.5,-.8,.8c0,-.6,-.5,-1.2,-1.1,-1.2c-1.1,0,-2.1,1.2,-2.4,2l.2,.1c.3,-.5,1.1,-1.7,2,-1.7c.2,0,.3,.5,.3,1c0,.3,0,.6,-.2,1.1l-.3,1.2c-.2,.6,-.4,1.4,-.7,1.8c-.2,.2,-.5,.7,-.8,.7c-.4,0,-.8,-.1,-.7,-.5c.1,-.4,.1,-.8,-.4,-.8c-.4,0,-.6,.3,-.6,.8c0,.5,.5,.9,1.1,.9c1,0,1.7,-.8,2.1,-1.4c.1,.8,.5,1.4,1.4,1.4c1.1,0,2,-1.1,2.4,-1.8l-.2,-.2c-.5,.6,-1.1,1.7,-1.9,1.7c-.5,0,-.7,-.7,-.7,-1.3c0,-.3,.1,-.8,.2,-1.3l.2,-.7c.1,-.6,.3,-1.3,.6,-1.6c.2,-.3,.6,-1,.9,-1c.4,0,.4,.3,.4,.6c0,.4,.1,.6,.4,.6c.4,0,.6,-.3,.6,-.6Z" class="g0_270"/>
<path d="M382.4,150.8c-.7,0,-1.1,-.5,-1.1,-1.2c0,-.8,.5,-1.6,1.4,-1.6c1.2,0,1.3,1,1.3,1.9c0,.9,-.3,1.5,-.7,2.1c-.3,.4,-.7,.9,-1.2,1.4c-.5,.5,-1.1,1.1,-1.8,1.7v.4h4.5l.4,-2.1h-.3c-.1,.2,-.1,.4,-.2,.5c-.2,.4,-.5,.6,-1,.6h-2.1v-.1c.4,-.3,.9,-.7,1.3,-1c.8,-.7,1.6,-1.4,2,-2.3c.2,-.4,.3,-.8,.3,-1.2c0,-.3,-.1,-.6,-.2,-.8c-.4,-.8,-1.1,-1.3,-2.2,-1.3c-.7,0,-1.3,.3,-1.7,.6c-.4,.3,-.7,.8,-.7,1.4c0,.5,.1,.8,.3,1.1c.2,.2,.5,.4,.9,.4c.4,0,.7,-.2,.8,-.5Z" class="g0_270"/>
<path d="M400.5,155.3c0,.5,.5,.9,1.1,.9c.5,0,.8,-.2,1.3,-.6c.8,-.6,2.1,-2.2,2.8,-3.4c.4,-.6,.8,-1.2,1,-1.8c.4,-.8,1.2,-2.1,1.2,-2.9c0,-.2,-.1,-.4,-.2,-.6c-.1,-.2,-.3,-.3,-.4,-.3c-.2,0,-.3,.1,-.5,.2c-.1,.2,-.2,.4,-.2,.7c0,.4,.2,.9,.2,1.3c0,.6,-.2,1.1,-.4,1.6c-.3,.5,-.5,.9,-.8,1.4h-.1l-.4,-1.9c-.1,-.6,-.3,-1.7,-.4,-2.1c-.2,-.7,-.3,-1.2,-1.3,-1.2c-1.2,0,-1.3,1.8,-1.6,2.6l.3,.1c.1,-.6,.6,-2.3,1.1,-2.3c.3,0,.4,1,.5,1.2c.1,.3,.1,.7,.3,1.4l.5,3.5c-.3,.8,-1.1,1.7,-1.7,2.1c-.3,.2,-.6,.3,-.7,.3c-.2,0,-.2,-.1,-.3,-.1c-.2,-.3,-.2,-.8,-.7,-.8c-.4,0,-.6,.3,-.6,.7Z" class="g0_270"/>
<path d="M410.7,150.8c-.7,0,-1.1,-.5,-1.1,-1.2c0,-.8,.4,-1.6,1.3,-1.6c1.2,0,1.3,1,1.3,1.9c0,.9,-.2,1.5,-.7,2.1c-.3,.4,-.6,.9,-1.1,1.4c-.5,.5,-1.1,1.1,-1.9,1.7v.4h4.6l.4,-2.1h-.3c-.1,.2,-.2,.4,-.3,.5c-.1,.4,-.4,.6,-1,.6h-2.1v-.1c.5,-.3,1,-.7,1.4,-1c.7,-.7,1.5,-1.4,1.9,-2.3c.2,-.4,.3,-.8,.3,-1.2c0,-.3,-.1,-.6,-.2,-.8c-.3,-.8,-1,-1.3,-2.1,-1.3c-.7,0,-1.4,.3,-1.8,.6c-.4,.3,-.7,.8,-.7,1.4c0,.5,.2,.8,.4,1.1c.2,.2,.5,.4,.9,.4c.4,0,.7,-.2,.8,-.5Z" class="g0_270"/>
<path d="M431.8,143.4v.2c.4,0,1.1,.1,1.3,.2c.4,.2,.4,.4,.4,1v6.5c0,.3,0,.6,0,.8c-.1,.7,-.9,.7,-1.7,.8v.2h4.7v-.2c-.5,0,-1.2,-.1,-1.4,-.3c-.3,-.3,-.3,-.8,-.3,-1.4v-8.6c-.8,.4,-2.1,.8,-3,.8Z" class="g0_270"/>
<path d="M337.2,165.5c0,-.6,-.4,-1,-1,-1c-.3,0,-.6,.1,-.9,.4c-.3,.2,-.6,.5,-.9,.8c0,-.6,-.4,-1.2,-1,-1.2c-1.1,0,-2.1,1.2,-2.5,2l.3,.1c.3,-.5,1,-1.7,1.9,-1.7c.3,0,.4,.5,.4,1c0,.3,0,.6,-.2,1.1l-.3,1.2c-.2,.6,-.4,1.4,-.7,1.8c-.2,.2,-.5,.7,-.8,.7c-.5,0,-.8,-.1,-.7,-.5c.1,-.3,.1,-.8,-.4,-.8c-.4,0,-.6,.3,-.6,.8c0,.5,.5,.9,1.1,.9c1,0,1.7,-.8,2.1,-1.4c.1,.8,.5,1.4,1.4,1.4c1.1,0,2,-1.1,2.4,-1.8l-.2,-.2c-.5,.6,-1.2,1.7,-2,1.7c-.4,0,-.6,-.7,-.6,-1.3c0,-.3,0,-.7,.2,-1.3l.2,-.7c.1,-.6,.3,-1.3,.6,-1.6c.2,-.3,.5,-1,.9,-1c.4,0,.4,.3,.4,.6c-.1,.4,.1,.6,.4,.6c.4,0,.5,-.3,.5,-.6Z" class="g0_270"/>
<path d="M340.2,173.3c-.7,0,-1.3,-.7,-1.3,-1.4c0,-.6,.4,-1,.9,-1c-.1,-.3,-.4,-.4,-.8,-.4c-.1,0,-.3,0,-.4,.1c-.4,.1,-.7,.6,-.7,1.1c0,.3,0,.5,.2,.7c.3,.7,1.1,1.1,2.1,1.1c.8,0,1.4,-.3,1.9,-.7c.4,-.3,.7,-.8,.7,-1.5c0,-.2,0,-.5,-.1,-.7c-.3,-.6,-.8,-1.1,-1.6,-1.3c.5,-.1,.8,-.4,1.1,-.7c.2,-.3,.4,-.7,.4,-1.1c0,-.3,-.1,-.5,-.2,-.8c-.3,-.6,-1.1,-1,-2.1,-1c-.6,0,-1.2,.1,-1.6,.4c-.3,.2,-.5,.5,-.5,1c0,.3,.1,.6,.3,.7c.1,.2,.4,.3,.7,.3c.1,0,.3,0,.4,-.1c.2,0,.2,-.1,.3,-.2c-.5,0,-.8,-.4,-.8,-.8c0,-.6,.5,-1.1,1.2,-1.1c.7,0,1.1,.7,1.1,1.6c0,.9,-.2,1.8,-1,1.8c-.2,-.1,-.4,-.2,-.6,-.2c-.3,0,-.6,.1,-.6,.3c0,.2,.4,.3,.6,.3c.2,0,.5,-.1,.6,-.2c.9,0,1.2,.8,1.2,1.8c0,1,-.4,2,-1.4,2Z" class="g0_270"/>
<path d="M343.2,173.2c0,.5,.4,.9,1.1,.9c.4,0,.8,-.2,1.3,-.6c.8,-.6,2,-2.2,2.8,-3.4c.3,-.6,.7,-1.2,1,-1.8c.4,-.8,1.1,-2.1,1.1,-2.9c0,-.2,0,-.4,-.1,-.6c-.1,-.2,-.3,-.3,-.5,-.3c-.1,0,-.3,.1,-.4,.2c-.2,.2,-.2,.4,-.2,.7c0,.4,.2,.9,.2,1.3c0,.6,-.2,1.1,-.5,1.6c-.2,.5,-.4,.9,-.8,1.4h-.1l-.3,-1.9c-.1,-.6,-.3,-1.6,-.4,-2.1c-.2,-.7,-.3,-1.2,-1.3,-1.2c-1.2,0,-1.4,1.8,-1.6,2.6l.3,.1c.1,-.6,.5,-2.3,1,-2.3c.3,0,.5,1,.6,1.2c0,.3,.1,.7,.2,1.4l.6,3.5c-.3,.8,-1.2,1.7,-1.8,2.1c-.2,.2,-.5,.3,-.7,.3c-.1,0,-.2,-.1,-.2,-.1c-.2,-.3,-.2,-.8,-.7,-.8c-.4,0,-.6,.3,-.6,.7Z" class="g0_270"/>
<path d="M353.5,173.3c-.7,0,-1.2,-.7,-1.2,-1.4c0,-.6,.3,-1,.8,-1c-.1,-.3,-.4,-.4,-.8,-.4c-.1,0,-.3,0,-.4,.1c-.4,.1,-.7,.6,-.7,1.1c0,.3,.1,.5,.2,.7c.4,.7,1.1,1.1,2.2,1.1c.8,0,1.4,-.3,1.8,-.7c.4,-.3,.8,-.8,.8,-1.5c0,-.2,-.1,-.5,-.2,-.7c-.2,-.6,-.8,-1.1,-1.5,-1.3c.4,-.1,.8,-.4,1,-.7c.2,-.3,.4,-.7,.4,-1.1c0,-.3,0,-.5,-.1,-.8c-.4,-.6,-1.2,-1,-2.2,-1c-.6,0,-1.2,.1,-1.5,.4c-.3,.2,-.6,.5,-.6,1c0,.3,.1,.6,.3,.7c.1,.2,.4,.3,.7,.3c.2,0,.3,0,.5,-.1c.1,0,.2,-.1,.2,-.2c-.4,0,-.7,-.4,-.7,-.8c0,-.6,.5,-1.1,1.1,-1.1c.8,0,1.2,.7,1.2,1.6c0,.9,-.3,1.8,-1.1,1.8c-.2,-.1,-.4,-.2,-.6,-.2c-.2,0,-.5,.1,-.5,.3c0,.2,.3,.3,.5,.3c.3,0,.5,-.1,.7,-.2c.9,0,1.1,.8,1.1,1.8c0,1,-.4,2,-1.4,2Z" class="g0_270"/>
<path d="M379.7,165.5c0,-.6,-.5,-1,-1,-1c-.4,0,-.7,.1,-1,.4c-.3,.2,-.6,.5,-.8,.8c0,-.6,-.5,-1.2,-1.1,-1.2c-1.1,0,-2.1,1.2,-2.4,2l.2,.1c.3,-.5,1.1,-1.7,2,-1.7c.2,0,.3,.5,.3,1c0,.3,0,.6,-.2,1.1l-.3,1.2c-.2,.6,-.4,1.4,-.7,1.8c-.2,.2,-.5,.7,-.8,.7c-.4,0,-.8,-.1,-.7,-.5c.1,-.3,.1,-.8,-.4,-.8c-.4,0,-.6,.3,-.6,.8c0,.5,.5,.9,1.1,.9c1,0,1.7,-.8,2.1,-1.4c.1,.8,.5,1.4,1.4,1.4c1.1,0,2,-1.1,2.4,-1.8l-.2,-.2c-.5,.6,-1.1,1.7,-1.9,1.7c-.5,0,-.7,-.7,-.7,-1.3c0,-.3,.1,-.7,.2,-1.3l.2,-.7c.1,-.6,.3,-1.3,.6,-1.6c.2,-.3,.6,-1,.9,-1c.4,0,.4,.3,.4,.6c0,.4,.1,.6,.4,.6c.4,0,.6,-.3,.6,-.6Z" class="g0_270"/>
<path d="M382.6,173.3c-.7,0,-1.3,-.7,-1.3,-1.4c0,-.6,.4,-1,.9,-1c-.1,-.3,-.4,-.4,-.8,-.4c-.1,0,-.3,0,-.4,.1c-.4,.1,-.7,.6,-.7,1.1c0,.3,.1,.5,.2,.7c.4,.7,1.1,1.1,2.1,1.1c.9,0,1.5,-.3,1.9,-.7c.4,-.3,.7,-.8,.7,-1.5c0,-.2,0,-.5,-.1,-.7c-.2,-.6,-.8,-1.1,-1.6,-1.3c.5,-.1,.8,-.4,1.1,-.7c.2,-.3,.4,-.7,.4,-1.1c0,-.3,0,-.5,-.1,-.8c-.4,-.6,-1.2,-1,-2.2,-1c-.6,0,-1.2,.1,-1.5,.4c-.3,.2,-.6,.5,-.6,1c0,.3,.1,.6,.3,.7c.1,.2,.4,.3,.7,.3c.1,0,.3,0,.4,-.1c.2,0,.2,-.1,.3,-.2c-.4,0,-.7,-.4,-.7,-.8c0,-.6,.5,-1.1,1.1,-1.1c.8,0,1.1,.7,1.1,1.6c0,.9,-.2,1.8,-1,1.8c-.2,-.1,-.4,-.2,-.6,-.2c-.2,0,-.6,.1,-.6,.3c0,.2,.4,.3,.6,.3c.2,0,.5,-.1,.7,-.2c.9,0,1.1,.8,1.1,1.8c0,1,-.4,2,-1.4,2Z" class="g0_270"/>
<path d="M400.5,173.2c0,.5,.5,.9,1.1,.9c.5,0,.8,-.2,1.3,-.6c.8,-.6,2.1,-2.2,2.8,-3.4c.4,-.6,.8,-1.2,1,-1.8c.4,-.8,1.2,-2.1,1.2,-2.9c0,-.2,-.1,-.4,-.2,-.6c-.1,-.2,-.3,-.3,-.4,-.3c-.2,0,-.3,.1,-.5,.2c-.1,.2,-.2,.4,-.2,.7c0,.4,.2,.9,.2,1.3c0,.6,-.2,1.1,-.4,1.6c-.3,.5,-.5,.9,-.8,1.4h-.1l-.4,-1.9c-.1,-.6,-.3,-1.6,-.4,-2.1c-.2,-.7,-.3,-1.2,-1.3,-1.2c-1.2,0,-1.3,1.8,-1.6,2.6l.3,.1c.1,-.6,.6,-2.3,1.1,-2.3c.3,0,.4,1,.5,1.2c.1,.3,.1,.7,.3,1.4l.5,3.5c-.3,.8,-1.1,1.7,-1.7,2.1c-.3,.2,-.6,.3,-.7,.3c-.2,0,-.2,-.1,-.3,-.1c-.2,-.3,-.2,-.8,-.7,-.8c-.4,0,-.6,.3,-.6,.7Z" class="g0_270"/>
<path d="M410.9,173.3c-.8,0,-1.3,-.7,-1.3,-1.4c0,-.6,.3,-1,.8,-1c0,-.3,-.4,-.4,-.7,-.4c-.2,0,-.3,0,-.5,.1c-.4,.1,-.6,.6,-.6,1.1c0,.3,0,.5,.1,.7c.4,.7,1.2,1.1,2.2,1.1c.8,0,1.4,-.3,1.9,-.7c.4,-.3,.7,-.8,.7,-1.5c0,-.2,-.1,-.5,-.1,-.7c-.3,-.6,-.9,-1.1,-1.6,-1.3c.4,-.1,.8,-.4,1,-.7c.3,-.3,.5,-.7,.5,-1.1c0,-.3,-.1,-.5,-.2,-.8c-.3,-.6,-1.1,-1,-2.2,-1c-.6,0,-1.1,.1,-1.5,.4c-.3,.2,-.6,.5,-.6,1c0,.3,.2,.6,.3,.7c.2,.2,.4,.3,.7,.3c.2,0,.3,0,.5,-.1c.1,0,.2,-.1,.2,-.2c-.4,0,-.7,-.4,-.7,-.8c0,-.6,.5,-1.1,1.1,-1.1c.8,0,1.2,.7,1.2,1.6c0,.9,-.3,1.8,-1.1,1.8c-.1,-.1,-.4,-.2,-.6,-.2c-.2,0,-.5,.1,-.5,.3c0,.2,.3,.3,.6,.3c.2,0,.5,-.1,.6,-.2c.9,0,1.2,.8,1.2,1.8c0,1,-.4,2,-1.4,2Z" class="g0_270"/>
<path d="M431.8,161.3v.2c.4,0,1.1,.1,1.3,.2c.4,.2,.4,.4,.4,1v6.5c0,.3,0,.6,0,.8c-.1,.7,-.9,.7,-1.7,.8v.2h4.7v-.2c-.5,0,-1.2,-.1,-1.4,-.3c-.3,-.3,-.3,-.8,-.3,-1.4v-8.6c-.8,.4,-2.1,.8,-3,.8Z" class="g0_270"/>
<path d="M337.2,183.4c0,-.6,-.4,-1,-1,-1c-.3,0,-.6,.1,-.9,.4c-.3,.2,-.6,.5,-.9,.8c0,-.6,-.4,-1.2,-1,-1.2c-1.1,0,-2.1,1.2,-2.5,2l.3,.1c.3,-.5,1,-1.7,1.9,-1.7c.3,0,.4,.5,.4,1c0,.3,0,.6,-.2,1.1l-.3,1.2c-.2,.6,-.4,1.4,-.7,1.8c-.2,.2,-.5,.7,-.8,.7c-.5,0,-.8,-.1,-.7,-.5c.1,-.3,.1,-.8,-.4,-.8c-.4,0,-.6,.3,-.6,.8c0,.5,.5,.9,1.1,.9c1,0,1.7,-.8,2.1,-1.4c.1,.8,.5,1.4,1.4,1.4c1.1,0,2,-1.1,2.4,-1.8l-.2,-.2c-.5,.6,-1.2,1.7,-2,1.7c-.4,0,-.6,-.7,-.6,-1.3c0,-.3,0,-.7,.2,-1.3l.2,-.7c.1,-.6,.3,-1.3,.6,-1.6c.2,-.3,.5,-1,.9,-1c.4,0,.4,.3,.4,.6c-.1,.4,.1,.6,.4,.6c.4,0,.5,-.3,.5,-.6Z" class="g0_270"/>
<path d="M340.5,185.1v4H338c.8,-1.3,1.7,-2.7,2.5,-4Zm-2.8,3.9v.4h2.8v.4c0,.9,-.1,1.3,-.6,1.3v.2H342v-.2c-.4,0,-.5,-.5,-.5,-1.3v-.4h1.2c0,0,0,-.3,0,-.3c0,0,-1.2,0,-1.2,0v-5.5h-.3l-3.5,5.4Z" class="g0_270"/>
<path d="M343.2,191.1c0,.5,.4,.9,1.1,.9c.4,0,.8,-.2,1.3,-.6c.8,-.6,2,-2.2,2.8,-3.4c.3,-.6,.7,-1.2,1,-1.8c.4,-.8,1.1,-2.1,1.1,-2.9c0,-.2,0,-.4,-.1,-.6c-.1,-.2,-.3,-.3,-.5,-.3c-.1,0,-.3,.1,-.4,.2c-.2,.2,-.2,.4,-.2,.7c0,.4,.2,.9,.2,1.3c0,.6,-.2,1.1,-.5,1.6c-.2,.5,-.4,.9,-.8,1.4h-.1l-.3,-1.9c-.1,-.6,-.3,-1.7,-.4,-2.1c-.2,-.7,-.3,-1.2,-1.3,-1.2c-1.2,0,-1.4,1.8,-1.6,2.6l.3,.1c.1,-.6,.5,-2.3,1,-2.3c.3,0,.5,1,.6,1.2c0,.3,.1,.7,.2,1.4l.6,3.5c-.3,.8,-1.2,1.7,-1.8,2.1c-.2,.2,-.5,.3,-.7,.3c-.1,0,-.2,-.1,-.2,-.1c-.2,-.3,-.2,-.8,-.7,-.8c-.4,0,-.6,.3,-.6,.7Z" class="g0_270"/>
<path d="M353.8,185.1v4h-2.5c.8,-1.3,1.7,-2.7,2.5,-4ZM351,189v.4h2.8v.4c0,.9,-.1,1.3,-.5,1.3v.2h2.1v-.2c-.5,0,-.6,-.5,-.6,-1.3v-.4H356c.1,0,0,-.3,0,-.3c.1,0,-1.2,0,-1.2,0v-5.5h-.3L351,189Z" class="g0_270"/>
<path d="M379.7,183.4c0,-.6,-.5,-1,-1,-1c-.4,0,-.7,.1,-1,.4c-.3,.2,-.6,.5,-.8,.8c0,-.6,-.5,-1.2,-1.1,-1.2c-1.1,0,-2.1,1.2,-2.4,2l.2,.1c.3,-.5,1.1,-1.7,2,-1.7c.2,0,.3,.5,.3,1c0,.3,0,.6,-.2,1.1l-.3,1.2c-.2,.6,-.4,1.4,-.7,1.8c-.2,.2,-.5,.7,-.8,.7c-.4,0,-.8,-.1,-.7,-.5c.1,-.3,.1,-.8,-.4,-.8c-.4,0,-.6,.3,-.6,.8c0,.5,.5,.9,1.1,.9c1,0,1.7,-.8,2.1,-1.4c.1,.8,.5,1.4,1.4,1.4c1.1,0,2,-1.1,2.4,-1.8L379,187c-.5,.6,-1.1,1.7,-1.9,1.7c-.5,0,-.7,-.7,-.7,-1.3c0,-.3,.1,-.7,.2,-1.3l.2,-.7c.1,-.6,.3,-1.3,.6,-1.6c.2,-.3,.6,-1,.9,-1c.4,0,.4,.3,.4,.6c0,.4,.1,.6,.4,.6c.4,0,.6,-.3,.6,-.6Z" class="g0_270"/>
<path d="M382.9,185.1v4h-2.5c.8,-1.3,1.7,-2.7,2.5,-4Zm-2.8,3.9v.4h2.8v.4c0,.9,-.1,1.3,-.6,1.3v.2h2.1v-.2c-.4,0,-.5,-.5,-.5,-1.3v-.4h1.2c0,0,0,-.3,0,-.3c0,0,-1.2,0,-1.2,0v-5.5h-.3l-3.5,5.4Z" class="g0_270"/>
<path d="M400.5,191.1c0,.5,.5,.9,1.1,.9c.5,0,.8,-.2,1.3,-.6c.8,-.6,2.1,-2.2,2.8,-3.4c.4,-.6,.8,-1.2,1,-1.8c.4,-.8,1.2,-2.1,1.2,-2.9c0,-.2,-.1,-.4,-.2,-.6c-.1,-.2,-.3,-.3,-.4,-.3c-.2,0,-.3,.1,-.5,.2c-.1,.2,-.2,.4,-.2,.7c0,.4,.2,.9,.2,1.3c0,.6,-.2,1.1,-.4,1.6c-.3,.5,-.5,.9,-.8,1.4h-.1l-.4,-1.9c-.1,-.6,-.3,-1.7,-.4,-2.1c-.2,-.7,-.3,-1.2,-1.3,-1.2c-1.2,0,-1.3,1.8,-1.6,2.6l.3,.1c.1,-.6,.6,-2.3,1.1,-2.3c.3,0,.4,1,.5,1.2c.1,.3,.1,.7,.3,1.4l.5,3.5c-.3,.8,-1.1,1.7,-1.7,2.1c-.3,.2,-.6,.3,-.7,.3c-.2,0,-.2,-.1,-.3,-.1c-.2,-.3,-.2,-.8,-.7,-.8c-.4,0,-.6,.3,-.6,.7Z" class="g0_270"/>
<path d="M411.2,185.1v4h-2.6c.9,-1.3,1.7,-2.7,2.6,-4Zm-2.8,3.9v.4h2.8v.4c0,.9,-.1,1.3,-.6,1.3v.2h2.1v-.2c-.4,0,-.6,-.5,-.6,-1.3v-.4h1.3c0,0,0,-.3,0,-.3c0,0,-1.3,0,-1.3,0v-5.5h-.3l-3.4,5.4Z" class="g0_270"/>
<path d="M431.8,179.2v.2c.4,0,1.1,.1,1.3,.2c.4,.2,.4,.4,.4,1v6.5c0,.3,0,.6,0,.8c-.1,.7,-.9,.7,-1.7,.8v.2h4.7v-.2c-.5,0,-1.2,-.1,-1.4,-.3c-.3,-.3,-.3,-.8,-.3,-1.4v-8.6c-.8,.4,-2.1,.8,-3,.8Z" class="g0_270"/>
<path d="M438.6,123.7c0,.1,.1,.2,.1,.3c3.2,5.4,4,19.2,4,20.4v.6h1.4v-.6c0,-1.6,-.6,-15.5,-5.3,-20.8c0,0,-.1,0,-.1,0q-.1,0,-.1,.1Z" class="g0_270"/>
<path d="M442.7,154.3h1.4v-9.6h-1.4Z" class="g0_270"/>
<path d="M442.7,163.3h1.4v-9.6h-1.4Z" class="g0_270"/>
<path d="M442.7,172.2h1.4v-9.6h-1.4Z" class="g0_270"/>
<path d="M438.6,193.3q0,.1,.1,.1c0,0,.1,0,.1,0c4.7,-5.3,5.3,-19.2,5.3,-20.8V172h-1.4v.6c0,1.2,-.8,15,-4,20.4c0,.1,-.1,.2,-.1,.3Z" class="g0_270"/>
<path d="M453.6,123.7c0,-.1,-.1,-.1,-.1,-.1c0,0,-.1,0,-.1,0c-4.8,5.3,-5.3,19.2,-5.3,20.8v.6h1.4v-.6c0,-1.2,.8,-15,4,-20.4c0,-.1,.1,-.2,.1,-.3Z" class="g0_270"/>
<path d="M448.1,154.3h1.4v-9.6h-1.4Z" class="g0_270"/>
<path d="M448.1,163.3h1.4v-9.6h-1.4Z" class="g0_270"/>
<path d="M448.1,172.2h1.4v-9.6h-1.4Z" class="g0_270"/>
<path d="M453.6,193.3c0,-.1,-.1,-.2,-.1,-.3c-3.2,-5.4,-4,-19.2,-4,-20.4V172h-1.4v.6c0,1.6,.5,15.5,5.3,20.8c0,0,.1,0,.1,0c0,0,.1,0,.1,-.1Z" class="g0_270"/>
<path d="M458.6,128.7c-.5,0,-.9,.2,-1.3,.5c-.5,.3,-.9,.6,-1.3,1.1c-.6,.8,-1.2,2,-1.2,3.3c0,1,.3,1.7,1.3,1.7c1.3,0,1.8,-.9,2.2,-1.5c-.2,.9,-.1,1.5,.5,1.5c.4,0,.8,-.2,1.2,-.5c.3,-.3,.7,-.8,1,-1.3l-.1,-.2c-.3,.4,-1,1.4,-1.4,1.4c-.2,0,-.3,-.4,-.3,-.6c0,-.9,.7,-2.4,1,-3.4l.7,-1.9h-1l-.3,.7c-.1,-.5,-.4,-.8,-1,-.8Zm.1,.3c.7,0,.5,1.3,.4,1.9c0,.3,-.1,.6,-.3,1c-.3,1.1,-1.4,3.1,-2.2,3.1c-.6,0,-.8,-1,-.8,-1.5c0,-.4,0,-.8,.2,-1.3c.4,-1,1.4,-3.2,2.7,-3.2Z" class="g0_270"/>
<path d="M462.9,130.5v.1c.4,0,.9,.1,1,.2c.3,.1,.3,.2,.3,.7v4.8c0,.2,0,.4,0,.5c-.1,.5,-.7,.6,-1.2,.6v.2h3.4v-.2c-.3,0,-.9,0,-1,-.2c-.2,-.3,-.2,-.6,-.2,-1v-6.3c-.6,.3,-1.5,.5,-2.3,.6Z" class="g0_270"/>
<path d="M469,130.5v.1c.4,0,.8,.1,1,.2c.3,.1,.3,.2,.3,.7v4.8c0,.2,0,.4,0,.5c-.1,.5,-.7,.6,-1.2,.6v.2h3.4v-.2c-.3,0,-.9,0,-1,-.2c-.2,-.3,-.2,-.6,-.2,-1v-6.3c-.6,.3,-1.5,.5,-2.3,.6Z" class="g0_270"/>
<path d="M458.6,146.6c-.5,0,-.9,.2,-1.3,.5c-.5,.3,-.9,.6,-1.3,1.1c-.6,.8,-1.2,2,-1.2,3.3c0,1,.3,1.7,1.3,1.7c1.3,0,1.8,-.9,2.2,-1.5c-.2,.9,-.1,1.5,.5,1.5c.4,0,.8,-.2,1.2,-.5c.3,-.3,.7,-.8,1,-1.3l-.1,-.2c-.3,.4,-1,1.4,-1.4,1.4c-.2,0,-.3,-.4,-.3,-.6c0,-.9,.7,-2.4,1,-3.4l.7,-1.9h-1l-.3,.7c-.1,-.5,-.4,-.8,-1,-.8Zm.1,.3c.7,0,.5,1.3,.4,1.9c0,.3,-.1,.6,-.3,.9c-.3,1.2,-1.4,3.2,-2.2,3.2c-.6,0,-.8,-1,-.8,-1.5c0,-.4,0,-.8,.2,-1.3c.4,-1,1.4,-3.2,2.7,-3.2Z" class="g0_270"/>
<path d="M462.9,148.4v.1c.4,0,.9,.1,1,.2c.3,.1,.3,.2,.3,.7v4.8c0,.2,0,.4,0,.5c-.1,.5,-.7,.6,-1.2,.6v.2h3.4v-.2c-.3,0,-.9,0,-1,-.2c-.2,-.3,-.2,-.6,-.2,-1v-6.3c-.6,.3,-1.5,.5,-2.3,.6Z" class="g0_270"/>
<path d="M470.2,150.8c-.6,0,-1,-.5,-1,-1.2c0,-.8,.4,-1.6,1.3,-1.6c1.2,0,1.3,1,1.3,1.9c0,.9,-.3,1.5,-.7,2.1c-.3,.4,-.7,.9,-1.1,1.4c-.5,.5,-1.1,1.1,-1.9,1.7v.4h4.6l.3,-2.1h-.3c0,.2,-.1,.4,-.2,.5c-.1,.4,-.5,.6,-1,.6h-2.1v-.1c.5,-.3,.9,-.7,1.4,-1c.7,-.7,1.5,-1.4,1.9,-2.3c.2,-.4,.3,-.8,.3,-1.2c0,-.3,-.1,-.6,-.2,-.8c-.3,-.8,-1.1,-1.3,-2.2,-1.3c-.7,0,-1.3,.3,-1.7,.6c-.4,.3,-.7,.8,-.7,1.4c0,.5,.2,.8,.4,1.1c.2,.2,.5,.4,.9,.4c.4,0,.7,-.2,.7,-.5Z" class="g0_270"/>
<path d="M458.6,164.5c-.5,0,-.9,.2,-1.3,.5c-.5,.3,-.9,.6,-1.3,1.1c-.6,.8,-1.2,2,-1.2,3.3c0,1,.3,1.7,1.3,1.7c1.3,0,1.8,-.9,2.2,-1.5c-.2,.9,-.1,1.5,.5,1.5c.4,0,.8,-.2,1.2,-.5c.3,-.3,.7,-.8,1,-1.3l-.1,-.2c-.3,.4,-1,1.4,-1.4,1.4c-.2,0,-.3,-.4,-.3,-.6c0,-.9,.7,-2.4,1,-3.4l.7,-1.9h-1l-.3,.7c-.1,-.5,-.4,-.8,-1,-.8Zm.1,.3c.7,0,.5,1.3,.4,1.9c0,.3,-.1,.6,-.3,1c-.3,1.1,-1.4,3.1,-2.2,3.1c-.6,0,-.8,-1,-.8,-1.5c0,-.4,0,-.8,.2,-1.3c.4,-1,1.4,-3.2,2.7,-3.2Z" class="g0_270"/>
<path d="M462.9,166.3v.1c.4,0,.9,.1,1,.2c.3,.1,.3,.2,.3,.7v4.8c0,.2,0,.4,0,.5c-.1,.5,-.7,.6,-1.2,.6v.2h3.4v-.2c-.3,0,-.9,0,-1,-.2c-.2,-.3,-.2,-.6,-.2,-1v-6.3c-.6,.3,-1.5,.5,-2.3,.6Z" class="g0_270"/>
<path d="M470.5,173.3c-.8,0,-1.3,-.7,-1.3,-1.4c0,-.6,.3,-1,.8,-1c-.1,-.3,-.4,-.4,-.7,-.4c-.2,0,-.3,0,-.5,.1c-.4,.1,-.7,.6,-.7,1.1c0,.3,.1,.5,.2,.7c.4,.7,1.2,1.1,2.2,1.1c.8,0,1.4,-.3,1.8,-.7c.4,-.3,.8,-.8,.8,-1.5c0,-.2,-.1,-.5,-.2,-.7c-.2,-.6,-.8,-1.1,-1.5,-1.3c.4,-.1,.8,-.4,1,-.7c.2,-.3,.4,-.7,.4,-1.1c0,-.3,0,-.5,-.1,-.8c-.4,-.6,-1.2,-1,-2.2,-1c-.6,0,-1.1,.1,-1.5,.4c-.3,.2,-.6,.5,-.6,1c0,.3,.1,.6,.3,.7c.2,.2,.4,.3,.7,.3c.2,0,.3,0,.5,-.1c.1,0,.2,-.1,.2,-.2c-.4,0,-.7,-.4,-.7,-.8c0,-.6,.5,-1.1,1.1,-1.1c.8,0,1.2,.7,1.2,1.6c0,.9,-.3,1.8,-1.1,1.8c-.2,-.1,-.4,-.2,-.6,-.2c-.2,0,-.5,.1,-.5,.3c0,.2,.3,.3,.5,.3c.3,0,.5,-.1,.7,-.2c.9,0,1.1,.8,1.1,1.8c0,1,-.4,2,-1.3,2Z" class="g0_270"/>
<path d="M458.6,182.4c-.5,0,-.9,.2,-1.3,.5c-.5,.3,-.9,.6,-1.3,1.1c-.6,.8,-1.2,2,-1.2,3.3c0,1,.3,1.7,1.3,1.7c1.3,0,1.8,-.9,2.2,-1.5c-.2,.9,-.1,1.5,.5,1.5c.4,0,.8,-.1,1.2,-.5c.3,-.3,.7,-.8,1,-1.3l-.1,-.2c-.3,.4,-1,1.4,-1.4,1.4c-.2,0,-.3,-.4,-.3,-.6c0,-.9,.7,-2.4,1,-3.4l.7,-1.9h-1l-.3,.7c-.1,-.5,-.4,-.8,-1,-.8Zm.1,.3c.7,0,.5,1.3,.4,1.9c0,.3,-.1,.6,-.3,1c-.3,1.1,-1.4,3.1,-2.2,3.1c-.6,0,-.8,-1,-.8,-1.5c0,-.4,0,-.8,.2,-1.3c.4,-1,1.4,-3.2,2.7,-3.2Z" class="g0_270"/>
<path d="M462.9,184.2v.1c.4,0,.9,.1,1,.2c.3,.1,.3,.2,.3,.7V190c0,.2,0,.4,0,.5c-.1,.5,-.7,.6,-1.2,.6v.2h3.4v-.2c-.3,0,-.9,0,-1,-.2c-.2,-.3,-.2,-.6,-.2,-1v-6.3c-.6,.3,-1.5,.5,-2.3,.6Z" class="g0_270"/>
<path d="M470.7,185.1v4h-2.5c.9,-1.3,1.7,-2.7,2.5,-4ZM468,189v.4h2.7v.4c0,.9,-.1,1.3,-.5,1.3v.2h2.1v-.2c-.5,0,-.6,-.5,-.6,-1.3v-.4H473c0,0,0,-.3,0,-.3c0,0,-1.3,0,-1.3,0v-5.5h-.3L468,189Z" class="g0_270"/>
<path d="M474.9,123.7c0,.1,.1,.2,.1,.3c3.2,5.4,4,19.2,4,20.4v.6h1.4v-.6c0,-1.6,-.5,-15.5,-5.3,-20.8c0,0,-.1,0,-.1,0q-.1,0,-.1,.1Z" class="g0_270"/>
<path d="M479,154.3h1.4v-9.6H479Z" class="g0_270"/>
<path d="M479,163.3h1.4v-9.6H479Z" class="g0_270"/>
<path d="M479,172.2h1.4v-9.6H479Z" class="g0_270"/>
<path d="M474.9,193.3q0,.1,.1,.1c0,0,.1,0,.1,0c4.8,-5.3,5.3,-19.2,5.3,-20.8V172H479v.6c0,1.2,-.8,15,-4,20.4c0,.1,-.1,.2,-.1,.3Z" class="g0_270"/>
<path d="M485.9,160.4h7.6v-.8h-7.6Zm0,-3h7.6v-.8h-7.6Z" class="g0_270"/>
<path d="M504.5,123.7q0,-.1,-.1,-.1c-4.8,5.3,-5.4,19.2,-5.4,20.8v.6h1.4v-.6c0,-1.2,.8,-15,4,-20.4c.1,-.1,.1,-.2,.1,-.3Z" class="g0_270"/>
<path d="M499,154.3h1.4v-9.6H499Z" class="g0_270"/>
<path d="M499,163.3h1.4v-9.6H499Z" class="g0_270"/>
<path d="M499,172.2h1.4v-9.6H499Z" class="g0_270"/>
<path d="M504.5,193.3c0,-.1,0,-.2,-.1,-.3c-3.2,-5.4,-4,-19.2,-4,-20.4V172H499v.6c0,1.6,.6,15.5,5.4,20.8q.1,0,.1,-.1Z" class="g0_270"/>
<path d="M512.2,129.7c0,-.6,-.4,-1,-1,-1c-.3,0,-.6,.1,-.9,.4c-.4,.2,-.7,.5,-.9,.8c0,-.6,-.4,-1.2,-1.1,-1.2c-1.1,0,-2,1.2,-2.4,2l.2,.1c.4,-.5,1.1,-1.7,2,-1.7c.3,0,.4,.5,.4,1c0,.3,-.1,.6,-.2,1.1l-.4,1.2c-.1,.6,-.4,1.4,-.7,1.8c-.1,.2,-.4,.7,-.8,.7c-.4,0,-.7,-.1,-.6,-.5c.1,-.3,0,-.8,-.4,-.8c-.5,0,-.6,.3,-.6,.8c0,.5,.4,.9,1,.9c1,0,1.8,-.8,2.1,-1.4h.1c.1,.8,.5,1.4,1.3,1.4c1.2,0,2,-1.1,2.5,-1.8l-.2,-.2c-.5,.6,-1.2,1.7,-2,1.7c-.4,0,-.6,-.7,-.6,-1.3c0,-.3,0,-.7,.1,-1.3l.2,-.7c.1,-.6,.4,-1.3,.6,-1.6c.2,-.3,.6,-1,1,-1c.4,0,.4,.3,.3,.6c0,.4,.2,.6,.5,.6c.4,0,.5,-.3,.5,-.6Z" class="g0_270"/>
<path d="M513.2,137.6c1,0,1.6,-.9,1.9,-1.5l-.2,-.1c-.2,.3,-.7,1.2,-1.2,1.2c-.2,0,-.3,-.3,-.3,-.4c.1,-.2,.1,-.4,.2,-.8l.8,-2.8h.9l.1,-.3h-1l.4,-1.2H514l-.3,1.2h-.8v.3h.7l-.7,2.6c-.1,.3,-.1,.6,-.2,.8c0,.2,0,.3,0,.5c0,.4,.1,.5,.5,.5Z" class="g0_270"/>
<path d="M517.4,130.5v.1c.4,0,.8,.1,1,.2c.3,.1,.3,.2,.3,.7v4.8c0,.2,0,.4,0,.5c-.1,.5,-.7,.6,-1.2,.6v.2h3.4v-.2c-.4,0,-.9,0,-1.1,-.2c-.1,-.3,-.1,-.6,-.1,-1v-6.3c-.6,.3,-1.6,.5,-2.3,.6Z" class="g0_270"/>
<path d="M512.2,147.6c0,-.6,-.4,-1,-1,-1c-.3,0,-.6,.1,-.9,.4c-.4,.2,-.7,.5,-.9,.8c0,-.6,-.4,-1.2,-1.1,-1.2c-1.1,0,-2,1.2,-2.4,2l.2,.1c.4,-.5,1.1,-1.7,2,-1.7c.3,0,.4,.5,.4,1c0,.3,-.1,.6,-.2,1.1l-.4,1.2c-.1,.6,-.4,1.4,-.7,1.8c-.1,.2,-.4,.7,-.8,.7c-.4,0,-.7,-.1,-.6,-.5c.1,-.4,0,-.8,-.4,-.8c-.5,0,-.6,.3,-.6,.8c0,.5,.4,.9,1,.9c1,0,1.8,-.8,2.1,-1.4h.1c.1,.8,.5,1.4,1.3,1.4c1.2,0,2,-1.1,2.5,-1.8l-.2,-.2c-.5,.6,-1.2,1.7,-2,1.7c-.4,0,-.6,-.7,-.6,-1.3c0,-.3,0,-.8,.1,-1.3l.2,-.7c.1,-.6,.4,-1.3,.6,-1.6c.2,-.3,.6,-1,1,-1c.4,0,.4,.3,.3,.6c0,.4,.2,.6,.5,.6c.4,0,.5,-.3,.5,-.6Z" class="g0_270"/>
<path d="M513.2,155.5c1,0,1.6,-.9,1.9,-1.5l-.2,-.1c-.2,.3,-.7,1.2,-1.2,1.2c-.2,0,-.3,-.3,-.3,-.4c.1,-.2,.1,-.4,.2,-.8l.8,-2.8h.9l.1,-.3h-1l.4,-1.2H514l-.3,1.2h-.8v.3h.7l-.7,2.6c-.1,.3,-.1,.6,-.2,.8c0,.2,0,.3,0,.5c0,.4,.1,.5,.5,.5Z" class="g0_270"/>
<path d="M518.6,150.8c-.7,0,-1.1,-.5,-1.1,-1.2c0,-.8,.5,-1.6,1.4,-1.6c1.2,0,1.3,1,1.3,1.9c0,.9,-.3,1.5,-.7,2.1c-.3,.4,-.7,.9,-1.2,1.4c-.4,.5,-1,1.1,-1.8,1.7v.4h4.6l.3,-2.1h-.3c0,.2,-.1,.4,-.2,.5c-.2,.4,-.5,.6,-1,.6h-2.1v-.1c.5,-.3,.9,-.7,1.4,-1c.7,-.7,1.5,-1.4,1.9,-2.3c.2,-.4,.3,-.8,.3,-1.2c0,-.3,-.1,-.6,-.2,-.8c-.4,-.8,-1.1,-1.3,-2.2,-1.3c-.7,0,-1.3,.3,-1.7,.6c-.4,.3,-.7,.8,-.7,1.4c0,.5,.1,.8,.4,1.1c.2,.2,.4,.4,.9,.4c.4,0,.7,-.2,.7,-.5Z" class="g0_270"/>
<path d="M512.2,165.5c0,-.6,-.4,-1,-1,-1c-.3,0,-.6,.1,-.9,.4c-.4,.2,-.7,.5,-.9,.8c0,-.6,-.4,-1.2,-1.1,-1.2c-1.1,0,-2,1.2,-2.4,2l.2,.1c.4,-.5,1.1,-1.7,2,-1.7c.3,0,.4,.5,.4,1c0,.3,-.1,.6,-.2,1.1l-.4,1.2c-.1,.6,-.4,1.4,-.7,1.8c-.1,.2,-.4,.7,-.8,.7c-.4,0,-.7,-.1,-.6,-.5c.1,-.3,0,-.8,-.4,-.8c-.5,0,-.6,.3,-.6,.8c0,.5,.4,.9,1,.9c1,0,1.8,-.8,2.1,-1.4h.1c.1,.8,.5,1.4,1.3,1.4c1.2,0,2,-1.1,2.5,-1.8l-.2,-.2c-.5,.6,-1.2,1.7,-2,1.7c-.4,0,-.6,-.7,-.6,-1.3c0,-.3,0,-.7,.1,-1.3l.2,-.7c.1,-.6,.4,-1.3,.6,-1.6c.2,-.3,.6,-1,1,-1c.4,0,.4,.3,.3,.6c0,.4,.2,.6,.5,.6c.4,0,.5,-.3,.5,-.6Z" class="g0_270"/>
<path d="M513.2,173.4c1,0,1.6,-.9,1.9,-1.5l-.2,-.1c-.2,.3,-.7,1.2,-1.2,1.2c-.2,0,-.3,-.3,-.3,-.4c.1,-.2,.1,-.4,.2,-.8l.8,-2.8h.9l.1,-.3h-1l.4,-1.2H514l-.3,1.2h-.8v.3h.7l-.7,2.6c-.1,.3,-.1,.6,-.2,.8c0,.2,0,.3,0,.5c0,.4,.1,.5,.5,.5Z" class="g0_270"/>
<path d="M518.8,173.3c-.7,0,-1.2,-.7,-1.2,-1.4c0,-.6,.3,-1,.8,-1c-.1,-.3,-.4,-.4,-.8,-.4c-.1,0,-.3,0,-.4,.1c-.4,.1,-.7,.6,-.7,1.1c0,.3,.1,.5,.2,.7c.4,.7,1.1,1.1,2.2,1.1c.8,0,1.4,-.3,1.8,-.7c.4,-.3,.8,-.8,.8,-1.5c0,-.2,-.1,-.5,-.2,-.7c-.2,-.6,-.8,-1.1,-1.5,-1.3c.4,-.1,.8,-.4,1,-.7c.2,-.3,.4,-.7,.4,-1.1c0,-.3,0,-.5,-.1,-.8c-.4,-.6,-1.2,-1,-2.2,-1c-.6,0,-1.2,.1,-1.5,.4c-.3,.2,-.6,.5,-.6,1c0,.3,.1,.6,.3,.7c.1,.2,.4,.3,.7,.3c.2,0,.3,0,.5,-.1c.1,0,.1,-.1,.2,-.2c-.4,0,-.7,-.4,-.7,-.8c0,-.6,.5,-1.1,1.1,-1.1c.8,0,1.2,.7,1.2,1.6c0,.9,-.3,1.8,-1.1,1.8c-.2,-.1,-.4,-.2,-.6,-.2c-.2,0,-.5,.1,-.5,.3c0,.2,.3,.3,.5,.3c.3,0,.5,-.1,.7,-.2c.9,0,1.1,.8,1.1,1.8c0,1,-.4,2,-1.4,2Z" class="g0_270"/>
<path d="M512.2,183.4c0,-.6,-.4,-1,-1,-1c-.3,0,-.6,.1,-.9,.4c-.4,.2,-.7,.5,-.9,.8c0,-.6,-.4,-1.2,-1.1,-1.2c-1.1,0,-2,1.2,-2.4,2l.2,.1c.4,-.5,1.1,-1.7,2,-1.7c.3,0,.4,.5,.4,1c0,.3,-.1,.6,-.2,1.1l-.4,1.2c-.1,.6,-.4,1.4,-.7,1.8c-.1,.2,-.4,.7,-.8,.7c-.4,0,-.7,-.1,-.6,-.5c.1,-.3,0,-.8,-.4,-.8c-.5,0,-.6,.3,-.6,.8c0,.5,.4,.9,1,.9c1,0,1.8,-.8,2.1,-1.4h.1c.1,.8,.5,1.4,1.3,1.4c1.2,0,2,-1.1,2.5,-1.8l-.2,-.2c-.5,.6,-1.2,1.7,-2,1.7c-.4,0,-.6,-.7,-.6,-1.3c0,-.3,0,-.7,.1,-1.3l.2,-.7c.1,-.6,.4,-1.3,.6,-1.6c.2,-.3,.6,-1,1,-1c.4,0,.4,.3,.3,.6c0,.4,.2,.6,.5,.6c.4,0,.5,-.3,.5,-.6Z" class="g0_270"/>
<path d="M513.2,191.3c1,0,1.6,-.9,1.9,-1.5l-.2,-.1c-.2,.3,-.7,1.2,-1.2,1.2c-.2,0,-.3,-.3,-.3,-.4c.1,-.2,.1,-.4,.2,-.8l.8,-2.8h.9l.1,-.3h-1l.4,-1.2H514l-.3,1.2h-.8v.3h.7l-.7,2.6c-.1,.3,-.1,.6,-.2,.8c0,.2,0,.3,0,.5c0,.4,.1,.5,.5,.5Z" class="g0_270"/>
<path d="M519.1,185.1v4h-2.5c.8,-1.3,1.7,-2.7,2.5,-4Zm-2.8,3.9v.4h2.8v.4c0,.9,-.1,1.3,-.5,1.3v.2h2v-.2c-.4,0,-.5,-.5,-.5,-1.3v-.4h1.2c.1,0,0,-.3,0,-.3c.1,0,-1.2,0,-1.2,0v-5.5h-.3l-3.5,5.4Z" class="g0_270"/>
<path d="M523.3,123.7c0,.1,0,.2,.1,.3c3.2,5.4,4,19.2,4,20.4v.6h1.4v-.6c0,-1.6,-.6,-15.5,-5.3,-20.8q-.1,0,-.1,0q-.1,0,-.1,.1Z" class="g0_270"/>
<path d="M527.4,154.3h1.4v-9.6h-1.4Z" class="g0_270"/>
<path d="M527.4,163.3h1.4v-9.6h-1.4Z" class="g0_270"/>
<path d="M527.4,172.2h1.4v-9.6h-1.4Z" class="g0_270"/>
<path d="M523.3,193.3q0,.1,.1,.1h.1c4.7,-5.3,5.3,-19.2,5.3,-20.8V172h-1.4v.6c0,1.2,-.8,15,-4,20.4c-.1,.1,-.1,.2,-.1,.3Z" class="g0_270"/>
<path d="M330,215.9c0,0,-.1,-.1,-.1,-.1c0,0,-.1,0,-.1,.1c-4.8,5.3,-5.3,19.1,-5.3,20.7v.7h1.4v-.7c0,-1.2,.8,-14.9,4,-20.3c0,-.2,.1,-.3,.1,-.4Z" class="g0_270"/>
<path d="M324.5,246.5h1.4v-9.6h-1.4Z" class="g0_270"/>
<path d="M324.5,255.5h1.4v-9.6h-1.4Z" class="g0_270"/>
<path d="M324.5,264.4h1.4v-9.6h-1.4Z" class="g0_270"/>
<path d="M330,285.6c0,-.1,-.1,-.2,-.1,-.4c-3.2,-5.4,-4,-19.1,-4,-20.3v-.7h-1.4v.7c0,1.6,.5,15.4,5.3,20.7c0,.1,.1,.1,.1,.1c0,0,.1,-.1,.1,-.1Z" class="g0_270"/>
<path d="M337.7,221.9c0,-.5,-.5,-.9,-1,-.9c-.4,0,-.7,.1,-1,.3c-.3,.2,-.6,.5,-.8,.9c0,-.7,-.5,-1.2,-1.1,-1.2c-1.1,0,-2.1,1.1,-2.4,1.9l.2,.1c.3,-.5,1.1,-1.7,2,-1.7c.2,0,.3,.6,.3,1c0,.3,0,.7,-.2,1.2l-.3,1.1c-.2,.6,-.4,1.4,-.7,1.8c-.2,.3,-.5,.7,-.8,.7c-.4,0,-.8,-.1,-.7,-.5c.1,-.3,.1,-.7,-.4,-.7c-.4,0,-.6,.3,-.6,.7c0,.6,.5,1,1.1,1c1,0,1.7,-.8,2.1,-1.5c.1,.8,.5,1.5,1.4,1.5c1.1,0,2,-1.2,2.4,-1.9l-.2,-.2c-.5,.7,-1.1,1.7,-1.9,1.7c-.5,0,-.7,-.6,-.7,-1.2c0,-.4,.1,-.8,.2,-1.4l.2,-.7c.1,-.5,.3,-1.2,.6,-1.6c.2,-.3,.6,-.9,.9,-.9c.4,0,.4,.3,.4,.6c0,.4,.1,.5,.4,.5c.4,0,.6,-.2,.6,-.6Z" class="g0_270"/>
<path d="M339.2,222.7v.2c.3,0,.8,0,1,.1c.3,.2,.3,.3,.3,.7v4.8c0,.2,0,.4,0,.6c-.1,.4,-.7,.5,-1.2,.5v.2h3.4v-.2c-.4,0,-.9,0,-1.1,-.2c-.1,-.2,-.1,-.6,-.1,-1v-6.2c-.6,.3,-1.6,.5,-2.3,.5Z" class="g0_270"/>
<path d="M343.6,229.6c0,.6,.5,1,1.1,1c.4,0,.8,-.2,1.3,-.6c.8,-.7,2,-2.3,2.8,-3.5c.4,-.6,.7,-1.2,1,-1.8c.4,-.7,1.1,-2.1,1.1,-2.9c0,-.2,0,-.4,-.1,-.6c-.1,-.2,-.3,-.2,-.5,-.2c-.1,0,-.3,0,-.4,.2c-.2,.1,-.2,.3,-.2,.6c0,.5,.2,.9,.2,1.3c0,.6,-.2,1.2,-.4,1.6c-.3,.5,-.5,.9,-.9,1.4l-.4,-1.9c-.1,-.5,-.3,-1.6,-.4,-2c-.2,-.7,-.3,-1.2,-1.3,-1.2c-1.2,0,-1.4,1.7,-1.6,2.5l.3,.1c.1,-.6,.6,-2.3,1,-2.3c.3,0,.5,1,.6,1.3c0,.3,.1,.7,.2,1.3l.6,3.5c-.3,.8,-1.1,1.7,-1.8,2.2c-.2,.2,-.5,.2,-.7,.2q-.1,0,-.2,-.1c-.2,-.3,-.2,-.8,-.7,-.8c-.4,0,-.6,.3,-.6,.7Z" class="g0_270"/>
<path d="M352.5,222.7v.2c.4,0,.9,0,1,.1c.3,.2,.3,.3,.3,.7v4.8c0,.2,0,.4,0,.6c-.1,.4,-.7,.5,-1.2,.5v.2H356v-.2c-.3,0,-.9,0,-1,-.2c-.2,-.2,-.2,-.6,-.2,-1v-6.2c-.6,.3,-1.5,.5,-2.3,.5Z" class="g0_270"/>
<path d="M380.1,221.9c0,-.5,-.5,-.9,-1,-.9c-.3,0,-.7,.1,-1,.3c-.3,.2,-.6,.5,-.8,.9c0,-.7,-.4,-1.2,-1.1,-1.2c-1.1,0,-2.1,1.1,-2.4,1.9l.2,.1c.3,-.5,1.1,-1.7,2,-1.7c.2,0,.4,.6,.4,1c0,.3,-.1,.7,-.3,1.2l-.3,1.1c-.2,.6,-.4,1.4,-.7,1.8c-.2,.3,-.4,.7,-.8,.7c-.4,0,-.7,-.1,-.6,-.5c.1,-.3,0,-.7,-.4,-.7c-.5,0,-.7,.3,-.7,.7c0,.6,.5,1,1.1,1c1,0,1.7,-.8,2.1,-1.5h.1c.1,.8,.5,1.5,1.3,1.5c1.2,0,2,-1.2,2.4,-1.9l-.2,-.2c-.4,.7,-1.1,1.7,-1.9,1.7c-.5,0,-.7,-.6,-.7,-1.2c0,-.4,.1,-.8,.2,-1.4l.2,-.7c.1,-.5,.3,-1.2,.6,-1.6c.2,-.3,.6,-.9,.9,-.9c.5,0,.4,.3,.4,.6c0,.4,.1,.5,.5,.5c.3,0,.5,-.2,.5,-.6Z" class="g0_270"/>
<path d="M381.6,222.7v.2c.4,0,.8,0,1,.1c.3,.2,.3,.3,.3,.7v4.8c0,.2,0,.4,0,.6c-.1,.4,-.7,.5,-1.2,.5v.2h3.4v-.2c-.4,0,-.9,0,-1,-.2c-.2,-.2,-.2,-.6,-.2,-1v-6.2c-.6,.3,-1.6,.5,-2.3,.5Z" class="g0_270"/>
<path d="M400.9,229.6c0,.6,.5,1,1.1,1c.5,0,.8,-.2,1.3,-.6c.8,-.7,2.1,-2.3,2.8,-3.5c.4,-.6,.8,-1.2,1.1,-1.8c.4,-.7,1.1,-2.1,1.1,-2.9c0,-.2,-.1,-.4,-.2,-.6c-.1,-.2,-.2,-.2,-.4,-.2c-.2,0,-.3,0,-.5,.2c-.1,.1,-.2,.3,-.2,.6c0,.5,.2,.9,.2,1.3c0,.6,-.2,1.2,-.4,1.6c-.3,.5,-.5,.9,-.8,1.4h-.1l-.3,-1.9c-.1,-.5,-.4,-1.6,-.5,-2c-.2,-.7,-.3,-1.2,-1.3,-1.2c-1.1,0,-1.3,1.7,-1.6,2.5l.3,.1c.1,-.6,.6,-2.3,1.1,-2.3c.3,0,.4,1,.5,1.3c.1,.3,.2,.7,.3,1.3l.6,3.5c-.4,.8,-1.2,1.7,-1.8,2.2c-.2,.2,-.6,.2,-.7,.2c-.1,0,-.2,0,-.3,-.1c-.2,-.3,-.2,-.8,-.7,-.8c-.4,0,-.6,.3,-.6,.7Z" class="g0_270"/>
<path d="M409.9,222.7v.2c.3,0,.8,0,.9,.1c.4,.2,.4,.3,.4,.7v4.8c0,.2,0,.4,-.1,.6c0,.4,-.6,.5,-1.2,.5v.2h3.5v-.2c-.4,0,-.9,0,-1.1,-.2c-.2,-.2,-.2,-.6,-.2,-1v-6.2c-.5,.3,-1.5,.5,-2.2,.5Z" class="g0_270"/>
<path d="M432.2,217.7v.2c.4,0,1.1,.1,1.3,.2c.4,.3,.4,.4,.4,1v6.6c0,.3,0,.5,0,.7c-.1,.7,-.9,.8,-1.7,.8v.2h4.7v-.2c-.5,0,-1.2,0,-1.4,-.3c-.2,-.3,-.3,-.8,-.3,-1.3V217c-.7,.4,-2.1,.7,-3,.7Z" class="g0_270"/>
<path d="M337.7,239.8c0,-.5,-.5,-.9,-1,-.9c-.4,0,-.7,.1,-1,.3c-.3,.2,-.6,.5,-.8,.9c0,-.7,-.5,-1.2,-1.1,-1.2c-1.1,0,-2.1,1.1,-2.4,1.9l.2,.1c.3,-.5,1.1,-1.7,2,-1.7c.2,0,.3,.6,.3,1c0,.3,0,.7,-.2,1.2l-.3,1.1c-.2,.6,-.4,1.4,-.7,1.8c-.2,.3,-.5,.7,-.8,.7c-.4,0,-.8,-.1,-.7,-.5c.1,-.3,.1,-.7,-.4,-.7c-.4,0,-.6,.3,-.6,.7c0,.6,.5,1,1.1,1c1,0,1.7,-.8,2.1,-1.5c.1,.8,.5,1.5,1.4,1.5c1.1,0,2,-1.2,2.4,-1.9l-.2,-.2c-.5,.7,-1.1,1.7,-1.9,1.7c-.5,0,-.7,-.6,-.7,-1.2c0,-.4,.1,-.8,.2,-1.4l.2,-.7c.1,-.6,.3,-1.2,.6,-1.6c.2,-.3,.6,-.9,.9,-.9c.4,0,.4,.3,.4,.6c0,.4,.1,.5,.4,.5c.4,0,.6,-.2,.6,-.6Z" class="g0_270"/>
<path d="M340.4,243c-.7,0,-1.1,-.4,-1.1,-1.1c0,-.8,.5,-1.6,1.4,-1.6c1.2,0,1.3,.9,1.3,1.9c0,.9,-.3,1.4,-.7,2.1c-.3,.4,-.7,.8,-1.2,1.3c-.5,.5,-1.1,1.1,-1.8,1.8v.3h4.6l.3,-2.1h-.3c0,.2,-.1,.4,-.2,.6c-.2,.3,-.5,.5,-1,.5h-2.1c.4,-.4,.9,-.7,1.3,-1.1c.8,-.6,1.6,-1.4,2,-2.2c.2,-.4,.3,-.8,.3,-1.2c0,-.3,-.1,-.6,-.2,-.9c-.4,-.7,-1.1,-1.3,-2.2,-1.3c-.7,0,-1.3,.3,-1.7,.6c-.4,.3,-.7,.8,-.7,1.5c0,.5,.1,.8,.3,1c.2,.3,.5,.5,.9,.5c.5,0,.7,-.2,.8,-.6Z" class="g0_270"/>
<path d="M343.6,247.5c0,.6,.5,1,1.1,1c.4,0,.8,-.2,1.3,-.6c.8,-.7,2,-2.3,2.8,-3.5c.4,-.6,.7,-1.2,1,-1.8c.4,-.7,1.1,-2.1,1.1,-2.9c0,-.2,0,-.4,-.1,-.6c-.1,-.2,-.3,-.2,-.5,-.2c-.1,0,-.3,0,-.4,.2c-.2,.1,-.2,.3,-.2,.6c0,.4,.2,.9,.2,1.3c0,.6,-.2,1.2,-.4,1.6c-.3,.5,-.5,.9,-.9,1.4l-.4,-1.9c-.1,-.5,-.3,-1.6,-.4,-2c-.2,-.7,-.3,-1.2,-1.3,-1.2c-1.2,0,-1.4,1.7,-1.6,2.5l.3,.1c.1,-.6,.6,-2.3,1,-2.3c.3,0,.5,1,.6,1.3c0,.3,.1,.7,.2,1.3l.6,3.5c-.3,.8,-1.1,1.7,-1.8,2.2c-.2,.2,-.5,.2,-.7,.2q-.1,0,-.2,-.1c-.2,-.3,-.2,-.8,-.7,-.8c-.4,0,-.6,.3,-.6,.7Z" class="g0_270"/>
<path d="M353.7,243c-.6,0,-1,-.4,-1,-1.1c0,-.8,.4,-1.6,1.3,-1.6c1.2,0,1.3,.9,1.3,1.9c0,.9,-.3,1.4,-.7,2.1c-.3,.4,-.7,.8,-1.1,1.3c-.5,.5,-1.1,1.1,-1.9,1.8v.3h4.6l.4,-2.1h-.4c0,.2,-.1,.4,-.2,.6c-.1,.3,-.5,.5,-1,.5h-2.1c.5,-.4,1,-.7,1.4,-1.1c.7,-.6,1.5,-1.4,1.9,-2.2c.2,-.4,.3,-.8,.3,-1.2c0,-.3,-.1,-.6,-.2,-.9c-.3,-.7,-1.1,-1.3,-2.2,-1.3c-.7,0,-1.3,.3,-1.7,.6c-.4,.3,-.7,.8,-.7,1.5c0,.5,.2,.8,.4,1c.2,.3,.5,.5,.9,.5c.4,0,.7,-.2,.7,-.6Z" class="g0_270"/>
<path d="M380.1,239.8c0,-.5,-.5,-.9,-1,-.9c-.3,0,-.7,.1,-1,.3c-.3,.2,-.6,.5,-.8,.9c0,-.7,-.4,-1.2,-1.1,-1.2c-1.1,0,-2.1,1.1,-2.4,1.9l.2,.1c.3,-.5,1.1,-1.7,2,-1.7c.2,0,.4,.6,.4,1c0,.3,-.1,.7,-.3,1.2l-.3,1.1c-.2,.6,-.4,1.4,-.7,1.8c-.2,.3,-.4,.7,-.8,.7c-.4,0,-.7,-.1,-.6,-.5c.1,-.3,0,-.7,-.4,-.7c-.5,0,-.7,.3,-.7,.7c0,.6,.5,1,1.1,1c1,0,1.7,-.8,2.1,-1.5h.1c.1,.8,.5,1.5,1.3,1.5c1.2,0,2,-1.2,2.4,-1.9l-.2,-.2c-.4,.7,-1.1,1.7,-1.9,1.7c-.5,0,-.7,-.6,-.7,-1.2c0,-.4,.1,-.8,.2,-1.4l.2,-.7c.1,-.6,.3,-1.2,.6,-1.6c.2,-.3,.6,-.9,.9,-.9c.5,0,.4,.3,.4,.6c0,.4,.1,.5,.5,.5c.3,0,.5,-.2,.5,-.6Z" class="g0_270"/>
<path d="M382.8,243c-.6,0,-1,-.4,-1,-1.1c0,-.8,.4,-1.6,1.3,-1.6c1.2,0,1.3,.9,1.3,1.9c0,.9,-.3,1.4,-.7,2.1c-.3,.4,-.7,.8,-1.1,1.3c-.5,.5,-1.1,1.1,-1.9,1.8v.3h4.6l.3,-2.1h-.3c0,.2,-.1,.4,-.2,.6c-.2,.3,-.5,.5,-1,.5H382c.5,-.4,.9,-.7,1.4,-1.1c.7,-.6,1.5,-1.4,1.9,-2.2c.2,-.4,.3,-.8,.3,-1.2c0,-.3,-.1,-.6,-.2,-.9c-.3,-.7,-1.1,-1.3,-2.2,-1.3c-.7,0,-1.3,.3,-1.7,.6c-.4,.3,-.7,.8,-.7,1.5c0,.5,.1,.8,.4,1c.2,.3,.5,.5,.9,.5c.4,0,.7,-.2,.7,-.6Z" class="g0_270"/>
<path d="M400.9,247.5c0,.6,.5,1,1.1,1c.5,0,.8,-.2,1.3,-.6c.8,-.7,2.1,-2.3,2.8,-3.5c.4,-.6,.8,-1.2,1.1,-1.8c.4,-.7,1.1,-2.1,1.1,-2.9c0,-.2,-.1,-.4,-.2,-.6c-.1,-.2,-.2,-.2,-.4,-.2c-.2,0,-.3,0,-.5,.2c-.1,.1,-.2,.3,-.2,.6c0,.4,.2,.9,.2,1.3c0,.6,-.2,1.2,-.4,1.6c-.3,.5,-.5,.9,-.8,1.4h-.1l-.3,-1.9c-.1,-.5,-.4,-1.6,-.5,-2c-.2,-.7,-.3,-1.2,-1.3,-1.2c-1.1,0,-1.3,1.7,-1.6,2.5l.3,.1c.1,-.6,.6,-2.3,1.1,-2.3c.3,0,.4,1,.5,1.3c.1,.3,.2,.7,.3,1.3l.6,3.5c-.4,.8,-1.2,1.7,-1.8,2.2c-.2,.2,-.6,.2,-.7,.2c-.1,0,-.2,0,-.3,-.1c-.2,-.3,-.2,-.8,-.7,-.8c-.4,0,-.6,.3,-.6,.7Z" class="g0_270"/>
<path d="M411.1,243c-.7,0,-1.1,-.4,-1.1,-1.1c0,-.8,.4,-1.6,1.3,-1.6c1.2,0,1.3,.9,1.3,1.9c0,.9,-.2,1.4,-.7,2.1c-.2,.4,-.6,.8,-1.1,1.3c-.5,.5,-1.1,1.1,-1.8,1.8v.3h4.5l.4,-2.1h-.3c-.1,.2,-.2,.4,-.2,.6c-.2,.3,-.5,.5,-1.1,.5h-2.1c.5,-.4,1,-.7,1.4,-1.1c.8,-.6,1.5,-1.4,2,-2.2c.1,-.4,.2,-.8,.2,-1.2c0,-.3,0,-.6,-.1,-.9c-.4,-.7,-1.1,-1.3,-2.2,-1.3c-.7,0,-1.4,.3,-1.8,.6c-.3,.3,-.7,.8,-.7,1.5c0,.5,.2,.8,.4,1c.2,.3,.5,.5,.9,.5c.4,0,.7,-.2,.8,-.6Z" class="g0_270"/>
<path d="M432.2,235.6v.2c.4,0,1.1,.1,1.3,.2c.4,.3,.4,.4,.4,1v6.6c0,.3,0,.5,0,.7c-.1,.7,-.9,.8,-1.7,.8v.2h4.7v-.2c-.5,0,-1.2,0,-1.4,-.3c-.2,-.3,-.3,-.8,-.3,-1.3v-8.6c-.7,.4,-2.1,.7,-3,.7Z" class="g0_270"/>
<path d="M337.7,257.7c0,-.5,-.5,-.9,-1,-.9c-.4,0,-.7,.1,-1,.3c-.3,.2,-.6,.5,-.8,.9c0,-.7,-.5,-1.2,-1.1,-1.2c-1.1,0,-2.1,1.1,-2.4,1.9l.2,.1c.3,-.5,1.1,-1.7,2,-1.7c.2,0,.3,.6,.3,1c0,.3,0,.7,-.2,1.2l-.3,1.1c-.2,.6,-.4,1.4,-.7,1.8c-.2,.3,-.5,.7,-.8,.7c-.4,0,-.8,-.1,-.7,-.5c.1,-.3,.1,-.7,-.4,-.7c-.4,0,-.6,.3,-.6,.7c0,.6,.5,1,1.1,1c1,0,1.7,-.8,2.1,-1.5c.1,.8,.5,1.5,1.4,1.5c1.1,0,2,-1.2,2.4,-1.9l-.2,-.2c-.5,.7,-1.1,1.7,-1.9,1.7c-.5,0,-.7,-.6,-.7,-1.2c0,-.4,.1,-.8,.2,-1.4l.2,-.7c.1,-.6,.3,-1.2,.6,-1.6c.2,-.3,.6,-.9,.9,-.9c.4,0,.4,.3,.4,.6c0,.4,.1,.5,.4,.5c.4,0,.6,-.2,.6,-.6Z" class="g0_270"/>
<path d="M340.6,265.5c-.7,0,-1.3,-.7,-1.3,-1.4c0,-.5,.4,-1,.9,-1c-.1,-.2,-.4,-.4,-.8,-.4c-.1,0,-.3,.1,-.4,.1c-.4,.2,-.7,.6,-.7,1.2c0,.2,.1,.4,.2,.7c.4,.6,1.1,1,2.1,1c.9,0,1.5,-.3,1.9,-.6c.4,-.3,.7,-.8,.7,-1.5c0,-.3,0,-.5,-.1,-.7c-.2,-.7,-.8,-1.1,-1.6,-1.3v-.1c.5,-.1,.8,-.3,1.1,-.6c.2,-.3,.4,-.7,.4,-1.2c0,-.3,0,-.5,-.1,-.7c-.4,-.7,-1.2,-1,-2.2,-1c-.6,0,-1.2,.1,-1.5,.3c-.3,.2,-.6,.6,-.6,1c0,.4,.1,.6,.3,.8c.1,.1,.4,.3,.7,.3c.1,0,.3,-.1,.4,-.1c.2,-.1,.2,-.2,.3,-.3c-.4,0,-.7,-.3,-.7,-.7c0,-.6,.5,-1.1,1.1,-1.1c.8,0,1.1,.6,1.1,1.5c0,.9,-.2,1.8,-1,1.8c-.2,0,-.4,-.1,-.6,-.1c-.2,0,-.6,0,-.6,.2c0,.3,.4,.4,.6,.4c.2,0,.5,-.2,.7,-.3c.9,0,1.1,.8,1.1,1.8c0,1,-.4,2,-1.4,2Z" class="g0_270"/>
<path d="M343.6,265.4c0,.6,.5,1,1.1,1c.4,0,.8,-.2,1.3,-.6c.8,-.7,2,-2.3,2.8,-3.5c.4,-.6,.7,-1.2,1,-1.8c.4,-.7,1.1,-2.1,1.1,-2.9c0,-.2,0,-.4,-.1,-.6c-.1,-.2,-.3,-.2,-.5,-.2c-.1,0,-.3,0,-.4,.2c-.2,.1,-.2,.3,-.2,.6c0,.5,.2,.9,.2,1.3c0,.6,-.2,1.2,-.4,1.6c-.3,.5,-.5,.9,-.9,1.4l-.4,-1.9c-.1,-.5,-.3,-1.6,-.4,-2c-.2,-.7,-.3,-1.2,-1.3,-1.2c-1.2,0,-1.4,1.7,-1.6,2.5l.3,.1c.1,-.6,.6,-2.3,1,-2.3c.3,0,.5,1,.6,1.3c0,.3,.1,.7,.2,1.3l.6,3.5c-.3,.8,-1.1,1.7,-1.8,2.2c-.2,.2,-.5,.2,-.7,.2q-.1,0,-.2,-.1c-.2,-.3,-.2,-.8,-.7,-.8c-.4,0,-.6,.3,-.6,.7Z" class="g0_270"/>
<path d="M354,265.5c-.8,0,-1.3,-.7,-1.3,-1.4c0,-.5,.3,-1,.8,-1c-.1,-.2,-.4,-.4,-.7,-.4c-.2,0,-.3,.1,-.5,.1c-.4,.2,-.7,.6,-.7,1.2c0,.2,.1,.4,.2,.7c.4,.6,1.2,1,2.2,1c.8,0,1.4,-.3,1.8,-.6c.4,-.3,.8,-.8,.8,-1.5c0,-.3,-.1,-.5,-.2,-.7c-.2,-.7,-.8,-1.1,-1.5,-1.3v-.1c.4,-.1,.8,-.3,1,-.6c.2,-.3,.4,-.7,.4,-1.2c0,-.3,0,-.5,-.1,-.7c-.4,-.7,-1.2,-1,-2.2,-1c-.6,0,-1.1,.1,-1.5,.3c-.3,.2,-.6,.6,-.6,1c0,.4,.1,.6,.3,.8c.2,.1,.4,.3,.7,.3c.2,0,.3,-.1,.5,-.1c.1,-.1,.2,-.2,.2,-.3c-.4,0,-.7,-.3,-.7,-.7c0,-.6,.5,-1.1,1.1,-1.1c.8,0,1.2,.6,1.2,1.5c0,.9,-.3,1.8,-1.1,1.8c-.2,0,-.4,-.1,-.6,-.1c-.2,0,-.5,0,-.5,.2c0,.3,.3,.4,.5,.4c.3,0,.5,-.2,.7,-.3c.9,0,1.1,.8,1.1,1.8c0,1,-.4,2,-1.3,2Z" class="g0_270"/>
<path d="M380.1,257.7c0,-.5,-.5,-.9,-1,-.9c-.3,0,-.7,.1,-1,.3c-.3,.2,-.6,.5,-.8,.9c0,-.7,-.4,-1.2,-1.1,-1.2c-1.1,0,-2.1,1.1,-2.4,1.9l.2,.1c.3,-.5,1.1,-1.7,2,-1.7c.2,0,.4,.6,.4,1c0,.3,-.1,.7,-.3,1.2l-.3,1.1c-.2,.6,-.4,1.4,-.7,1.8c-.2,.3,-.4,.7,-.8,.7c-.4,0,-.7,-.1,-.6,-.5c.1,-.3,0,-.7,-.4,-.7c-.5,0,-.7,.3,-.7,.7c0,.6,.5,1,1.1,1c1,0,1.7,-.8,2.1,-1.5h.1c.1,.8,.5,1.5,1.3,1.5c1.2,0,2,-1.2,2.4,-1.9l-.2,-.2c-.4,.7,-1.1,1.7,-1.9,1.7c-.5,0,-.7,-.6,-.7,-1.2c0,-.4,.1,-.8,.2,-1.4l.2,-.7c.1,-.6,.3,-1.2,.6,-1.6c.2,-.3,.6,-.9,.9,-.9c.5,0,.4,.3,.4,.6c0,.4,.1,.5,.5,.5c.3,0,.5,-.2,.5,-.6Z" class="g0_270"/>
<path d="M383,265.5c-.7,0,-1.2,-.7,-1.2,-1.4c0,-.5,.3,-1,.8,-1c-.1,-.2,-.4,-.4,-.8,-.4c-.1,0,-.3,.1,-.4,.1c-.4,.2,-.7,.6,-.7,1.2c0,.2,.1,.4,.2,.7c.4,.6,1.1,1,2.2,1c.8,0,1.4,-.3,1.8,-.6c.4,-.3,.8,-.8,.8,-1.5c0,-.3,-.1,-.5,-.2,-.7c-.2,-.7,-.8,-1.1,-1.5,-1.3v-.1c.4,-.1,.8,-.3,1,-.6c.2,-.3,.4,-.7,.4,-1.2c0,-.3,0,-.5,-.1,-.7c-.4,-.7,-1.2,-1,-2.2,-1c-.6,0,-1.2,.1,-1.5,.3c-.3,.2,-.6,.6,-.6,1c0,.4,.1,.6,.3,.8c.1,.1,.4,.3,.7,.3c.2,0,.3,-.1,.5,-.1c.1,-.1,.2,-.2,.2,-.3c-.4,0,-.7,-.3,-.7,-.7c0,-.6,.5,-1.1,1.1,-1.1c.8,0,1.2,.6,1.2,1.5c0,.9,-.3,1.8,-1.1,1.8c-.2,0,-.4,-.1,-.6,-.1c-.2,0,-.5,0,-.5,.2c0,.3,.3,.4,.5,.4c.3,0,.5,-.2,.7,-.3c.9,0,1.1,.8,1.1,1.8c0,1,-.4,2,-1.4,2Z" class="g0_270"/>
<path d="M400.9,265.4c0,.6,.5,1,1.1,1c.5,0,.8,-.2,1.3,-.6c.8,-.7,2.1,-2.3,2.8,-3.5c.4,-.6,.8,-1.2,1.1,-1.8c.4,-.7,1.1,-2.1,1.1,-2.9c0,-.2,-.1,-.4,-.2,-.6c-.1,-.2,-.2,-.2,-.4,-.2c-.2,0,-.3,0,-.5,.2c-.1,.1,-.2,.3,-.2,.6c0,.5,.2,.9,.2,1.3c0,.6,-.2,1.2,-.4,1.6c-.3,.5,-.5,.9,-.8,1.4h-.1l-.3,-1.9c-.1,-.5,-.4,-1.6,-.5,-2c-.2,-.7,-.3,-1.2,-1.3,-1.2c-1.1,0,-1.3,1.7,-1.6,2.5l.3,.1c.1,-.6,.6,-2.3,1.1,-2.3c.3,0,.4,1,.5,1.3c.1,.3,.2,.7,.3,1.3l.6,3.5c-.4,.8,-1.2,1.7,-1.8,2.2c-.2,.2,-.6,.2,-.7,.2c-.1,0,-.2,0,-.3,-.1c-.2,-.3,-.2,-.8,-.7,-.8c-.4,0,-.6,.3,-.6,.7Z" class="g0_270"/>
<path d="M411.3,265.5c-.7,0,-1.3,-.7,-1.3,-1.4c0,-.5,.3,-1,.8,-1c0,-.2,-.4,-.4,-.7,-.4c-.2,0,-.3,.1,-.4,.1c-.4,.2,-.7,.6,-.7,1.2c0,.2,0,.4,.1,.7c.4,.6,1.2,1,2.2,1c.8,0,1.4,-.3,1.9,-.6c.4,-.3,.7,-.8,.7,-1.5c0,-.3,0,-.5,-.1,-.7c-.3,-.7,-.9,-1.1,-1.6,-1.3v-.1c.4,-.1,.8,-.3,1,-.6c.3,-.3,.5,-.7,.5,-1.2c0,-.3,-.1,-.5,-.2,-.7c-.3,-.7,-1.1,-1,-2.2,-1c-.6,0,-1.1,.1,-1.5,.3c-.3,.2,-.5,.6,-.5,1c0,.4,.1,.6,.2,.8c.2,.1,.4,.3,.8,.3c.1,0,.3,-.1,.4,-.1c.1,-.1,.2,-.2,.2,-.3c-.4,0,-.7,-.3,-.7,-.7c0,-.6,.5,-1.1,1.1,-1.1c.8,0,1.2,.6,1.2,1.5c0,.9,-.2,1.8,-1.1,1.8c-.1,0,-.4,-.1,-.6,-.1c-.2,0,-.5,0,-.5,.2c0,.3,.3,.4,.6,.4c.2,0,.5,-.2,.6,-.3c.9,0,1.2,.8,1.2,1.8c0,1,-.4,2,-1.4,2Z" class="g0_270"/>
<path d="M432.2,253.5v.2c.4,0,1.1,.1,1.3,.2c.4,.3,.4,.4,.4,1v6.6c0,.3,0,.5,0,.7c-.1,.7,-.9,.8,-1.7,.8v.2h4.7V263c-.5,0,-1.2,0,-1.4,-.3c-.2,-.3,-.3,-.8,-.3,-1.3v-8.6c-.7,.4,-2.1,.7,-3,.7Z" class="g0_270"/>
<path d="M337.7,275.6c0,-.5,-.5,-.9,-1,-.9c-.4,0,-.7,.1,-1,.3c-.3,.2,-.6,.5,-.8,.9c0,-.7,-.5,-1.2,-1.1,-1.2c-1.1,0,-2.1,1.1,-2.4,1.9l.2,.1c.3,-.5,1.1,-1.7,2,-1.7c.2,0,.3,.6,.3,1c0,.3,0,.7,-.2,1.2l-.3,1.1c-.2,.6,-.4,1.4,-.7,1.8c-.2,.3,-.5,.7,-.8,.7c-.4,0,-.8,-.1,-.7,-.5c.1,-.3,.1,-.7,-.4,-.7c-.4,0,-.6,.3,-.6,.7c0,.6,.5,1,1.1,1c1,0,1.7,-.8,2.1,-1.5c.1,.8,.5,1.5,1.4,1.5c1.1,0,2,-1.2,2.4,-1.9l-.2,-.1c-.5,.6,-1.1,1.6,-1.9,1.6c-.5,0,-.7,-.6,-.7,-1.2c0,-.4,.1,-.8,.2,-1.4l.2,-.7c.1,-.5,.3,-1.2,.6,-1.6c.2,-.3,.6,-.9,.9,-.9c.4,0,.4,.3,.4,.6c0,.4,.1,.5,.4,.5c.4,0,.6,-.2,.6,-.6Z" class="g0_270"/>
<path d="M340.9,277.4v3.9h-2.5c.8,-1.3,1.7,-2.6,2.5,-3.9Zm-2.8,3.9v.4h2.8v.4c0,.9,-.1,1.2,-.6,1.2v.2h2.1v-.2c-.4,0,-.5,-.5,-.5,-1.3v-.3h1.2c0,0,0,-.4,0,-.4c0,0,-1.2,0,-1.2,0v-5.4h-.3l-3.5,5.4Z" class="g0_270"/>
<path d="M343.6,283.3c0,.6,.5,1,1.1,1c.4,0,.8,-.2,1.3,-.6c.8,-.7,2,-2.2,2.8,-3.5c.4,-.6,.7,-1.2,1,-1.8c.4,-.7,1.1,-2.1,1.1,-2.9c0,-.2,0,-.4,-.1,-.6c-.1,-.2,-.3,-.2,-.5,-.2c-.1,0,-.3,0,-.4,.2c-.2,.1,-.2,.3,-.2,.6c0,.5,.2,.9,.2,1.3c0,.6,-.2,1.2,-.4,1.6c-.3,.5,-.5,.9,-.9,1.4l-.4,-1.9c-.1,-.5,-.3,-1.6,-.4,-2c-.2,-.7,-.3,-1.2,-1.3,-1.2c-1.2,0,-1.4,1.7,-1.6,2.5l.3,.1c.1,-.6,.6,-2.3,1,-2.3c.3,0,.5,1,.6,1.3c0,.3,.1,.7,.2,1.3l.6,3.5c-.3,.8,-1.1,1.7,-1.8,2.2c-.2,.2,-.5,.2,-.7,.2q-.1,0,-.2,-.1c-.2,-.3,-.2,-.8,-.7,-.8c-.4,0,-.6,.3,-.6,.7Z" class="g0_270"/>
<path d="M354.2,277.4l.1,3.9h-2.6c.9,-1.3,1.7,-2.6,2.5,-3.9Zm-2.7,3.9v.4h2.8v.4c0,.9,-.2,1.2,-.6,1.2v.2h2.1v-.2c-.5,0,-.6,-.5,-.6,-1.3v-.3h1.3c0,0,0,-.4,0,-.4c0,0,-1.3,0,-1.3,0v-5.4h-.3l-3.4,5.4Z" class="g0_270"/>
<path d="M380.1,275.6c0,-.5,-.5,-.9,-1,-.9c-.3,0,-.7,.1,-1,.3c-.3,.2,-.6,.5,-.8,.9c0,-.7,-.4,-1.2,-1.1,-1.2c-1.1,0,-2.1,1.1,-2.4,1.9l.2,.1c.3,-.5,1.1,-1.7,2,-1.7c.2,0,.4,.6,.4,1c0,.3,-.1,.7,-.3,1.2l-.3,1.1c-.2,.6,-.4,1.4,-.7,1.8c-.2,.3,-.4,.7,-.8,.7c-.4,0,-.7,-.1,-.6,-.5c.1,-.3,0,-.7,-.4,-.7c-.5,0,-.7,.3,-.7,.7c0,.6,.5,1,1.1,1c1,0,1.7,-.8,2.1,-1.5h.1c.1,.8,.5,1.5,1.3,1.5c1.2,0,2,-1.2,2.4,-1.9l-.2,-.1c-.4,.6,-1.1,1.6,-1.9,1.6c-.5,0,-.7,-.6,-.7,-1.2c0,-.4,.1,-.8,.2,-1.4l.2,-.7c.1,-.5,.3,-1.2,.6,-1.6c.2,-.3,.6,-.9,.9,-.9c.5,0,.4,.3,.4,.6c0,.4,.1,.5,.5,.5c.3,0,.5,-.2,.5,-.6Z" class="g0_270"/>
<path d="M383.3,277.4v3.9h-2.5c.8,-1.3,1.7,-2.6,2.5,-3.9Zm-2.8,3.9v.4h2.8v.4c0,.9,-.1,1.2,-.5,1.2v.2h2.1v-.2c-.5,0,-.6,-.5,-.6,-1.3v-.3h1.2c.1,0,0,-.4,0,-.4c.1,0,-1.2,0,-1.2,0v-5.4H384l-3.5,5.4Z" class="g0_270"/>
<path d="M400.9,283.3c0,.6,.5,1,1.1,1c.5,0,.8,-.2,1.3,-.6c.8,-.7,2.1,-2.2,2.8,-3.5c.4,-.6,.8,-1.2,1.1,-1.8c.4,-.7,1.1,-2.1,1.1,-2.9c0,-.2,-.1,-.4,-.2,-.6c-.1,-.2,-.2,-.2,-.4,-.2c-.2,0,-.3,0,-.5,.2c-.1,.1,-.2,.3,-.2,.6c0,.5,.2,.9,.2,1.3c0,.6,-.2,1.2,-.4,1.6c-.3,.5,-.5,.9,-.8,1.4h-.1l-.3,-1.9c-.1,-.5,-.4,-1.6,-.5,-2c-.2,-.7,-.3,-1.2,-1.3,-1.2c-1.1,0,-1.3,1.7,-1.6,2.5l.3,.1c.1,-.6,.6,-2.3,1.1,-2.3c.3,0,.4,1,.5,1.3c.1,.3,.2,.7,.3,1.3l.6,3.5c-.4,.8,-1.2,1.7,-1.8,2.2c-.2,.2,-.6,.2,-.7,.2c-.1,0,-.2,0,-.3,-.1c-.2,-.3,-.2,-.8,-.7,-.8c-.4,0,-.6,.3,-.6,.7Z" class="g0_270"/>
<path d="M411.6,277.4v3.9h-2.5c.8,-1.3,1.6,-2.6,2.5,-3.9Zm-2.8,3.9v.4h2.8v.4c0,.9,-.1,1.2,-.6,1.2v.2h2.1v-.2c-.4,0,-.5,-.5,-.5,-1.3v-.3h1.2c0,0,0,-.4,0,-.4c0,0,-1.2,0,-1.2,0v-5.4h-.4l-3.4,5.4Z" class="g0_270"/>
<path d="M432.2,271.4v.2c.4,0,1.1,.1,1.3,.2c.4,.3,.4,.4,.4,1v6.6c0,.3,0,.5,0,.7c-.1,.7,-.9,.8,-1.7,.8v.2h4.7v-.2c-.5,0,-1.2,0,-1.4,-.3c-.2,-.3,-.3,-.8,-.3,-1.3v-8.6c-.7,.4,-2.1,.7,-3,.7Z" class="g0_270"/>
<path d="M439,215.9c0,.1,.1,.2,.1,.4c3.2,5.4,4,19.1,4,20.3v.7h1.4v-.7c0,-1.6,-.5,-15.4,-5.3,-20.7c0,-.1,-.1,-.1,-.1,-.1c0,0,-.1,.1,-.1,.1Z" class="g0_270"/>
<path d="M443.1,246.5h1.4v-9.6h-1.4Z" class="g0_270"/>
<path d="M443.1,255.5h1.4v-9.6h-1.4Z" class="g0_270"/>
<path d="M443.1,264.4h1.4v-9.6h-1.4Z" class="g0_270"/>
<path d="M439,285.6c0,0,.1,.1,.1,.1c0,0,.1,0,.1,-.1c4.8,-5.3,5.3,-19.1,5.3,-20.7v-.7h-1.4v.7c0,1.2,-.8,14.9,-4,20.3c0,.2,-.1,.3,-.1,.4Z" class="g0_270"/>
<path d="M454,215.9c0,0,0,-.1,-.1,-.1c0,0,-.1,0,-.1,.1c-4.7,5.3,-5.3,19.1,-5.3,20.7v.7h1.4v-.7c0,-1.2,.8,-14.9,4,-20.3c0,-.2,.1,-.3,.1,-.4Z" class="g0_270"/>
<path d="M448.5,246.5h1.4v-9.6h-1.4Z" class="g0_270"/>
<path d="M448.5,255.5h1.4v-9.6h-1.4Z" class="g0_270"/>
<path d="M448.5,264.4h1.4v-9.6h-1.4Z" class="g0_270"/>
<path d="M454,285.6c0,-.1,-.1,-.2,-.1,-.4c-3.2,-5.4,-4,-19.1,-4,-20.3v-.7h-1.4v.7c0,1.6,.6,15.4,5.3,20.7c0,.1,.1,.1,.1,.1c.1,0,.1,-.1,.1,-.1Z" class="g0_270"/>
<path d="M459,221c-.4,0,-.9,.1,-1.3,.4c-.5,.3,-.9,.7,-1.3,1.2c-.6,.7,-1.2,1.9,-1.2,3.2c0,1,.4,1.8,1.3,1.8c1.3,0,1.8,-.9,2.2,-1.6c-.2,.9,-.1,1.6,.5,1.6c.4,0,.8,-.2,1.2,-.5c.4,-.3,.7,-.8,1.1,-1.4l-.2,-.1c-.3,.4,-.9,1.3,-1.4,1.3c-.2,0,-.2,-.3,-.2,-.5c0,-1,.6,-2.5,.9,-3.5l.7,-1.8h-1l-.2,.6c-.2,-.4,-.5,-.7,-1.1,-.7Zm.1,.2c.7,0,.6,1.3,.5,1.9c-.1,.3,-.2,.7,-.3,1c-.4,1.2,-1.5,3.1,-2.3,3.1c-.6,0,-.8,-.9,-.8,-1.4c0,-.5,0,-.9,.2,-1.4c.4,-1,1.5,-3.2,2.7,-3.2Z" class="g0_270"/>
<path d="M464.6,225.1c-.7,0,-1.1,-.4,-1.1,-1.1c0,-.8,.4,-1.6,1.3,-1.6c1.2,0,1.3,.9,1.3,1.9c0,.9,-.2,1.4,-.7,2.1c-.3,.4,-.6,.8,-1.1,1.3c-.5,.5,-1.1,1.1,-1.9,1.8v.3H467l.4,-2.1h-.3c-.1,.2,-.2,.4,-.3,.6c-.1,.3,-.4,.5,-1,.5h-2.1c.5,-.4,1,-.7,1.4,-1.1c.7,-.6,1.5,-1.4,1.9,-2.2c.2,-.4,.3,-.8,.3,-1.2c0,-.3,-.1,-.6,-.2,-.9c-.3,-.7,-1,-1.3,-2.1,-1.3c-.7,0,-1.4,.3,-1.8,.6c-.4,.3,-.7,.8,-.7,1.5c0,.5,.2,.8,.4,1c.2,.3,.5,.5,.9,.5c.4,0,.7,-.2,.8,-.6Z" class="g0_270"/>
<path d="M469.5,222.7v.2c.3,0,.8,0,.9,.1c.4,.2,.3,.3,.4,.7v4.8c0,.2,-.1,.4,-.1,.6c-.1,.4,-.6,.5,-1.2,.5v.2h3.4v-.2c-.3,0,-.9,0,-1,-.2c-.2,-.2,-.2,-.6,-.2,-1v-6.2c-.6,.3,-1.5,.5,-2.2,.5Z" class="g0_270"/>
<path d="M459,238.9c-.4,0,-.9,.1,-1.3,.4c-.5,.3,-.9,.7,-1.3,1.2c-.6,.7,-1.2,1.9,-1.2,3.2c0,1,.4,1.8,1.3,1.8c1.3,0,1.8,-.9,2.2,-1.6c-.2,.9,-.1,1.6,.5,1.6c.4,0,.8,-.2,1.2,-.5c.4,-.3,.7,-.8,1.1,-1.4l-.2,-.1c-.3,.4,-.9,1.3,-1.4,1.3c-.2,0,-.2,-.3,-.2,-.5c0,-1,.6,-2.5,.9,-3.5l.7,-1.8h-1l-.2,.6c-.2,-.4,-.5,-.7,-1.1,-.7Zm.1,.2c.7,0,.6,1.3,.5,1.9c-.1,.3,-.2,.7,-.3,1c-.4,1.2,-1.5,3.1,-2.3,3.1c-.6,0,-.8,-.9,-.8,-1.4c0,-.5,0,-.9,.2,-1.4c.4,-1,1.5,-3.2,2.7,-3.2Z" class="g0_270"/>
<path d="M464.6,243c-.7,0,-1.1,-.4,-1.1,-1.1c0,-.8,.4,-1.6,1.3,-1.6c1.2,0,1.3,.9,1.3,1.9c0,.9,-.2,1.4,-.7,2.1c-.3,.4,-.6,.8,-1.1,1.3c-.5,.5,-1.1,1.1,-1.9,1.8v.3H467l.4,-2.1h-.3c-.1,.2,-.2,.4,-.3,.6c-.1,.3,-.4,.5,-1,.5h-2.1c.5,-.4,1,-.7,1.4,-1.1c.7,-.6,1.5,-1.4,1.9,-2.2c.2,-.4,.3,-.8,.3,-1.2c0,-.3,-.1,-.6,-.2,-.9c-.3,-.7,-1,-1.3,-2.1,-1.3c-.7,0,-1.4,.3,-1.8,.6c-.4,.3,-.7,.8,-.7,1.5c0,.5,.2,.8,.4,1c.2,.3,.5,.5,.9,.5c.4,0,.7,-.2,.8,-.6Z" class="g0_270"/>
<path d="M470.7,243c-.7,0,-1.1,-.4,-1.1,-1.1c0,-.8,.4,-1.6,1.3,-1.6c1.2,0,1.3,.9,1.3,1.9c0,.9,-.2,1.4,-.7,2.1c-.3,.4,-.6,.8,-1.1,1.3c-.5,.5,-1.1,1.1,-1.9,1.8v.3h4.6l.4,-2.1h-.3c-.1,.2,-.2,.4,-.3,.6c-.1,.3,-.4,.5,-1,.5h-2.1c.5,-.4,1,-.7,1.4,-1.1c.7,-.6,1.5,-1.4,1.9,-2.2c.2,-.4,.3,-.8,.3,-1.2c0,-.3,-.1,-.6,-.2,-.9c-.3,-.7,-1,-1.3,-2.1,-1.3c-.7,0,-1.4,.3,-1.8,.6c-.4,.3,-.7,.8,-.7,1.5c0,.5,.2,.8,.4,1c.2,.3,.5,.5,.9,.5c.4,0,.7,-.2,.8,-.6Z" class="g0_270"/>
<path d="M459,256.8c-.4,0,-.9,.1,-1.3,.4c-.5,.3,-.9,.7,-1.3,1.2c-.6,.7,-1.2,1.9,-1.2,3.2c0,1,.4,1.8,1.3,1.8c1.3,0,1.8,-.9,2.2,-1.6c-.2,.9,-.1,1.6,.5,1.6c.4,0,.8,-.2,1.2,-.5c.4,-.3,.7,-.8,1.1,-1.4l-.2,-.1c-.3,.4,-.9,1.3,-1.4,1.3c-.2,0,-.2,-.3,-.2,-.5c0,-1,.6,-2.5,.9,-3.5l.7,-1.8h-1l-.2,.6c-.2,-.4,-.5,-.7,-1.1,-.7Zm.1,.2c.7,0,.6,1.3,.5,1.9c-.1,.3,-.2,.7,-.3,1c-.4,1.2,-1.5,3.1,-2.3,3.1c-.6,0,-.8,-.9,-.8,-1.4c0,-.5,0,-.9,.2,-1.4c.4,-1,1.5,-3.2,2.7,-3.2Z" class="g0_270"/>
<path d="M464.6,260.9c-.7,0,-1.1,-.4,-1.1,-1.1c0,-.8,.4,-1.6,1.3,-1.6c1.2,0,1.3,.9,1.3,1.9c0,.9,-.2,1.4,-.7,2.1c-.3,.4,-.6,.8,-1.1,1.3c-.5,.5,-1.1,1.1,-1.9,1.8v.3H467l.4,-2.1h-.3c-.1,.2,-.2,.4,-.3,.6c-.1,.3,-.4,.5,-1,.5h-2.1c.5,-.4,1,-.7,1.4,-1.1c.7,-.6,1.5,-1.4,1.9,-2.2c.2,-.4,.3,-.8,.3,-1.2c0,-.3,-.1,-.6,-.2,-.9c-.3,-.7,-1,-1.3,-2.1,-1.3c-.7,0,-1.4,.3,-1.8,.6c-.4,.3,-.7,.8,-.7,1.5c0,.5,.2,.8,.4,1c.2,.3,.5,.5,.9,.5c.4,0,.7,-.2,.8,-.6Z" class="g0_270"/>
<path d="M470.9,265.5c-.8,0,-1.3,-.7,-1.3,-1.4c0,-.5,.3,-1,.8,-1c0,-.2,-.4,-.4,-.7,-.4c-.2,0,-.3,.1,-.5,.1c-.4,.2,-.6,.6,-.6,1.2c0,.2,0,.4,.1,.7c.4,.6,1.2,1,2.2,1c.8,0,1.4,-.3,1.9,-.6c.4,-.3,.7,-.8,.7,-1.5c0,-.3,-.1,-.5,-.1,-.7c-.3,-.7,-.9,-1.1,-1.6,-1.3v-.1c.4,-.1,.8,-.3,1,-.6c.3,-.3,.5,-.7,.5,-1.2c0,-.3,-.1,-.5,-.2,-.7c-.3,-.7,-1.2,-1,-2.2,-1c-.6,0,-1.1,.1,-1.5,.3c-.3,.2,-.6,.6,-.6,1c0,.4,.2,.6,.3,.8c.2,.1,.4,.3,.7,.3c.2,0,.3,-.1,.5,-.1c.1,-.1,.2,-.2,.2,-.3c-.4,0,-.7,-.3,-.7,-.7c0,-.6,.5,-1.1,1.1,-1.1c.8,0,1.2,.6,1.2,1.5c0,.9,-.3,1.8,-1.1,1.8c-.1,0,-.4,-.1,-.6,-.1c-.2,0,-.5,0,-.5,.2c0,.3,.3,.4,.6,.4c.2,0,.4,-.2,.6,-.3c.9,0,1.2,.8,1.2,1.8c0,1,-.4,2,-1.4,2Z" class="g0_270"/>
<path d="M459,274.7c-.4,0,-.9,.1,-1.3,.4c-.5,.3,-.9,.7,-1.3,1.2c-.6,.7,-1.2,1.9,-1.2,3.2c0,1,.4,1.8,1.3,1.8c1.3,0,1.8,-.9,2.2,-1.6c-.2,.9,-.1,1.6,.5,1.6c.4,0,.8,-.2,1.2,-.5c.4,-.3,.7,-.8,1.1,-1.4l-.2,-.1c-.3,.4,-.9,1.3,-1.4,1.3c-.2,0,-.2,-.3,-.2,-.5c0,-1,.6,-2.5,.9,-3.5l.7,-1.8h-1l-.2,.6c-.2,-.4,-.5,-.7,-1.1,-.7Zm.1,.2c.7,0,.6,1.3,.5,1.9c-.1,.3,-.2,.7,-.3,1c-.4,1.2,-1.5,3.1,-2.3,3.1c-.6,0,-.8,-.9,-.8,-1.4c0,-.5,0,-.9,.2,-1.4c.4,-1,1.5,-3.2,2.7,-3.2Z" class="g0_270"/>
<path d="M464.6,278.8c-.7,0,-1.1,-.4,-1.1,-1.1c0,-.8,.4,-1.6,1.3,-1.6c1.2,0,1.3,.9,1.3,1.9c0,.9,-.2,1.4,-.7,2.1c-.3,.4,-.6,.8,-1.1,1.3c-.5,.5,-1.1,1.1,-1.9,1.8v.3H467l.4,-2.1h-.3c-.1,.2,-.2,.4,-.3,.6c-.1,.3,-.4,.5,-1,.5h-2.1c.5,-.4,1,-.7,1.4,-1.1c.7,-.6,1.5,-1.4,1.9,-2.2c.2,-.4,.3,-.8,.3,-1.2c0,-.3,-.1,-.6,-.2,-.9c-.3,-.7,-1,-1.3,-2.1,-1.3c-.7,0,-1.4,.3,-1.8,.6c-.4,.3,-.7,.8,-.7,1.5c0,.5,.2,.8,.4,1c.2,.3,.5,.5,.9,.5c.4,0,.7,-.2,.8,-.6Z" class="g0_270"/>
<path d="M471.2,277.4v3.9h-2.6c.9,-1.3,1.7,-2.6,2.6,-3.9Zm-2.8,3.9v.4h2.8v.4c0,.9,-.1,1.2,-.6,1.2v.2h2.1v-.2c-.4,0,-.6,-.5,-.6,-1.3v-.3h1.3c0,0,0,-.4,0,-.4c0,0,-1.3,0,-1.3,0v-5.4h-.3l-3.4,5.4Z" class="g0_270"/>
<path d="M475.3,215.9c0,.1,.1,.2,.2,.4c3.1,5.4,3.9,19.1,3.9,20.3v.7h1.4v-.7c0,-1.6,-.5,-15.4,-5.3,-20.7c0,-.1,-.1,-.1,-.1,-.1c0,0,-.1,.1,-.1,.1Z" class="g0_270"/>
<path d="M479.4,246.5h1.4v-9.6h-1.4Z" class="g0_270"/>
<path d="M479.4,255.5h1.4v-9.6h-1.4Z" class="g0_270"/>
<path d="M479.4,264.4h1.4v-9.6h-1.4Z" class="g0_270"/>
<path d="M475.3,285.6c0,0,.1,.1,.1,.1c0,0,.1,0,.1,-.1c4.8,-5.3,5.3,-19.1,5.3,-20.7v-.7h-1.4v.7c0,1.2,-.8,14.9,-3.9,20.3c-.1,.2,-.2,.3,-.2,.4Z" class="g0_270"/>
<path d="M486.3,252.7h7.6v-.9h-7.6Zm0,-3.1h7.6v-.8h-7.6Z" class="g0_270"/>
<path d="M504.9,215.9c0,0,0,-.1,0,-.1q-.1,0,-.1,.1c-4.8,5.3,-5.4,19.1,-5.4,20.7v.7h1.4v-.7c0,-1.2,.8,-14.9,4,-20.3c.1,-.2,.1,-.3,.1,-.4Z" class="g0_270"/>
<path d="M499.4,246.5h1.4v-9.6h-1.4Z" class="g0_270"/>
<path d="M499.4,255.5h1.4v-9.6h-1.4Z" class="g0_270"/>
<path d="M499.4,264.4h1.4v-9.6h-1.4Z" class="g0_270"/>
<path d="M504.9,285.6c0,-.1,0,-.2,-.1,-.4c-3.2,-5.4,-4,-19.1,-4,-20.3v-.7h-1.4v.7c0,1.6,.6,15.4,5.4,20.7q0,.1,.1,.1c0,0,0,-.1,0,-.1Z" class="g0_270"/>
<path d="M504.4,229.6c0,.6,.5,1,1.1,1c.4,0,.8,-.2,1.3,-.6c.8,-.7,2,-2.3,2.8,-3.5c.4,-.6,.7,-1.2,1,-1.8c.4,-.7,1.1,-2.1,1.1,-2.9c0,-.2,0,-.4,-.1,-.6c-.1,-.2,-.3,-.2,-.5,-.2c-.1,0,-.3,0,-.4,.2c-.2,.1,-.2,.3,-.2,.6c0,.5,.2,.9,.2,1.3c0,.6,-.2,1.2,-.4,1.6c-.3,.5,-.5,.9,-.9,1.4h-.1l-.3,-1.9c-.1,-.5,-.3,-1.6,-.4,-2c-.2,-.7,-.3,-1.2,-1.3,-1.2c-1.2,0,-1.4,1.7,-1.6,2.5l.3,.1c.1,-.6,.6,-2.3,1,-2.3c.3,0,.5,1,.6,1.3c0,.3,.1,.7,.2,1.3l.6,3.5c-.3,.8,-1.2,1.7,-1.8,2.2c-.2,.2,-.5,.2,-.7,.2c-.1,0,-.2,0,-.2,-.1c-.2,-.3,-.2,-.8,-.7,-.8c-.4,0,-.6,.3,-.6,.7Z" class="g0_270"/>
<path d="M512.8,229.9c.9,0,1.5,-1,1.9,-1.5l-.2,-.2c-.2,.3,-.7,1.2,-1.2,1.2c-.2,0,-.3,-.3,-.3,-.4c0,-.1,.1,-.4,.2,-.7l.8,-2.9h.9l.1,-.2h-1l.3,-1.2h-.7l-.3,1.2h-.8v.2h.7l-.7,2.6c-.1,.4,-.1,.6,-.2,.8c0,.2,-.1,.4,-.1,.5c0,.4,.2,.6,.6,.6Z" class="g0_270"/>
<path d="M517,222.7v.2c.3,0,.8,0,1,.1c.3,.2,.3,.3,.3,.7v4.8c0,.2,0,.4,0,.6c-.1,.4,-.7,.5,-1.2,.5v.2h3.4v-.2c-.4,0,-.9,0,-1.1,-.2c-.1,-.2,-.1,-.6,-.1,-1v-6.2c-.6,.3,-1.6,.5,-2.3,.5Z" class="g0_270"/>
<path d="M504.4,247.5c0,.6,.5,1,1.1,1c.4,0,.8,-.2,1.3,-.6c.8,-.7,2,-2.3,2.8,-3.5c.4,-.6,.7,-1.2,1,-1.8c.4,-.7,1.1,-2.1,1.1,-2.9c0,-.2,0,-.4,-.1,-.6c-.1,-.2,-.3,-.2,-.5,-.2c-.1,0,-.3,0,-.4,.2c-.2,.1,-.2,.3,-.2,.6c0,.4,.2,.9,.2,1.3c0,.6,-.2,1.2,-.4,1.6c-.3,.5,-.5,.9,-.9,1.4h-.1l-.3,-1.9c-.1,-.5,-.3,-1.6,-.4,-2c-.2,-.7,-.3,-1.2,-1.3,-1.2c-1.2,0,-1.4,1.7,-1.6,2.5l.3,.1c.1,-.6,.6,-2.3,1,-2.3c.3,0,.5,1,.6,1.3c0,.3,.1,.7,.2,1.3l.6,3.5c-.3,.8,-1.2,1.7,-1.8,2.2c-.2,.2,-.5,.2,-.7,.2c-.1,0,-.2,0,-.2,-.1c-.2,-.3,-.2,-.8,-.7,-.8c-.4,0,-.6,.3,-.6,.7Z" class="g0_270"/>
<path d="M512.8,247.8c.9,0,1.5,-.9,1.9,-1.5l-.2,-.2c-.2,.3,-.7,1.3,-1.2,1.3c-.2,0,-.3,-.4,-.3,-.5c0,-.1,.1,-.4,.2,-.7l.8,-2.9h.9l.1,-.2h-1l.3,-1.2h-.7l-.3,1.2h-.8v.2h.7l-.7,2.6c-.1,.4,-.1,.6,-.2,.8c0,.2,-.1,.4,-.1,.5c0,.4,.2,.6,.6,.6Z" class="g0_270"/>
<path d="M518.2,243c-.7,0,-1.1,-.4,-1.1,-1.1c0,-.8,.5,-1.6,1.4,-1.6c1.2,0,1.3,.9,1.3,1.9c0,.9,-.3,1.4,-.7,2.1c-.3,.4,-.7,.8,-1.2,1.3c-.5,.5,-1.1,1.1,-1.8,1.8v.3h4.5l.4,-2.1h-.3c-.1,.2,-.2,.4,-.2,.6c-.2,.3,-.5,.5,-1,.5h-2.1c.4,-.4,.9,-.7,1.3,-1.1c.8,-.6,1.6,-1.4,2,-2.2c.2,-.4,.3,-.8,.3,-1.2c0,-.3,-.1,-.6,-.2,-.9c-.4,-.7,-1.1,-1.3,-2.2,-1.3c-.7,0,-1.3,.3,-1.7,.6c-.4,.3,-.7,.8,-.7,1.5c0,.5,.1,.8,.3,1c.2,.3,.5,.5,.9,.5c.4,0,.7,-.2,.8,-.6Z" class="g0_270"/>
<path d="M504.4,265.4c0,.6,.5,1,1.1,1c.4,0,.8,-.2,1.3,-.6c.8,-.7,2,-2.3,2.8,-3.5c.4,-.6,.7,-1.2,1,-1.8c.4,-.7,1.1,-2.1,1.1,-2.9c0,-.2,0,-.4,-.1,-.6c-.1,-.2,-.3,-.2,-.5,-.2c-.1,0,-.3,0,-.4,.2c-.2,.1,-.2,.3,-.2,.6c0,.5,.2,.9,.2,1.3c0,.6,-.2,1.2,-.4,1.6c-.3,.5,-.5,.9,-.9,1.4h-.1L509,260c-.1,-.5,-.3,-1.6,-.4,-2c-.2,-.7,-.3,-1.2,-1.3,-1.2c-1.2,0,-1.4,1.7,-1.6,2.5l.3,.1c.1,-.6,.6,-2.3,1,-2.3c.3,0,.5,1,.6,1.3c0,.3,.1,.7,.2,1.3l.6,3.5c-.3,.8,-1.2,1.7,-1.8,2.2c-.2,.2,-.5,.2,-.7,.2c-.1,0,-.2,0,-.2,-.1c-.2,-.3,-.2,-.8,-.7,-.8c-.4,0,-.6,.3,-.6,.7Z" class="g0_270"/>
<path d="M512.8,265.7c.9,0,1.5,-.9,1.9,-1.5l-.2,-.2c-.2,.3,-.7,1.3,-1.2,1.3c-.2,0,-.3,-.4,-.3,-.5c0,-.1,.1,-.4,.2,-.7l.8,-2.9h.9l.1,-.2h-1l.3,-1.2h-.7l-.3,1.2h-.8v.2h.7l-.7,2.6c-.1,.4,-.1,.6,-.2,.8c0,.2,-.1,.4,-.1,.5c0,.4,.2,.6,.6,.6Z" class="g0_270"/>
<path d="M518.4,265.5c-.7,0,-1.3,-.7,-1.3,-1.4c0,-.5,.4,-1,.9,-1c-.1,-.2,-.4,-.4,-.8,-.4c-.1,0,-.3,.1,-.4,.1c-.4,.2,-.7,.6,-.7,1.2c0,.2,.1,.4,.2,.7c.4,.6,1.1,1,2.1,1c.8,0,1.5,-.3,1.9,-.6c.4,-.3,.7,-.8,.7,-1.5c0,-.3,0,-.5,-.1,-.7c-.3,-.7,-.8,-1.1,-1.6,-1.3v-.1c.5,-.1,.8,-.3,1.1,-.6c.2,-.3,.4,-.7,.4,-1.2c0,-.3,0,-.5,-.2,-.7c-.3,-.7,-1.1,-1,-2.1,-1c-.6,0,-1.2,.1,-1.5,.3c-.3,.2,-.6,.6,-.6,1c0,.4,.1,.6,.3,.8c.1,.1,.4,.3,.7,.3c.1,0,.3,-.1,.4,-.1c.2,-.1,.2,-.2,.3,-.3c-.5,0,-.7,-.3,-.7,-.7c0,-.6,.4,-1.1,1.1,-1.1c.7,0,1.1,.6,1.1,1.5c0,.9,-.2,1.8,-1,1.8c-.2,0,-.4,-.1,-.6,-.1c-.2,0,-.6,0,-.6,.2c0,.3,.4,.4,.6,.4c.2,0,.5,-.2,.7,-.3c.8,0,1.1,.8,1.1,1.8c0,1,-.4,2,-1.4,2Z" class="g0_270"/>
<path d="M504.4,283.3c0,.6,.5,1,1.1,1c.4,0,.8,-.2,1.3,-.6c.8,-.7,2,-2.2,2.8,-3.5c.4,-.6,.7,-1.2,1,-1.8c.4,-.7,1.1,-2.1,1.1,-2.9c0,-.2,0,-.4,-.1,-.6c-.1,-.2,-.3,-.2,-.5,-.2c-.1,0,-.3,0,-.4,.2c-.2,.1,-.2,.3,-.2,.6c0,.5,.2,.9,.2,1.3c0,.6,-.2,1.2,-.4,1.6c-.3,.5,-.5,.9,-.9,1.4h-.1l-.3,-1.9c-.1,-.5,-.3,-1.6,-.4,-2c-.2,-.7,-.3,-1.2,-1.3,-1.2c-1.2,0,-1.4,1.7,-1.6,2.5l.3,.1c.1,-.6,.6,-2.3,1,-2.3c.3,0,.5,1,.6,1.3c0,.3,.1,.7,.2,1.3l.6,3.5c-.3,.8,-1.2,1.7,-1.8,2.2c-.2,.2,-.5,.2,-.7,.2c-.1,0,-.2,0,-.2,-.1c-.2,-.3,-.2,-.8,-.7,-.8c-.4,0,-.6,.3,-.6,.7Z" class="g0_270"/>
<path d="M512.8,283.6c.9,0,1.5,-.9,1.9,-1.5l-.2,-.2c-.2,.3,-.7,1.3,-1.2,1.3c-.2,0,-.3,-.4,-.3,-.5c0,-.1,.1,-.4,.2,-.7l.8,-2.9h.9l.1,-.2h-1l.3,-1.2h-.7l-.3,1.2h-.8v.2h.7l-.7,2.6c-.1,.4,-.1,.6,-.2,.8c0,.2,-.1,.4,-.1,.5c0,.4,.2,.6,.6,.6Z" class="g0_270"/>
<path d="M518.7,277.4v3.9h-2.5c.8,-1.3,1.7,-2.6,2.5,-3.9Zm-2.8,3.9v.4h2.8v.4c0,.9,-.1,1.2,-.6,1.2v.2h2.1v-.2c-.4,0,-.5,-.5,-.5,-1.3v-.3h1.2c0,0,0,-.4,0,-.4c0,0,-1.2,0,-1.2,0v-5.4h-.3l-3.5,5.4Z" class="g0_270"/>
<path d="M522.9,215.9c0,.1,0,.2,.1,.4c3.2,5.4,4,19.1,4,20.3v.7h1.4v-.7c0,-1.6,-.6,-15.4,-5.4,-20.7q0,-.1,0,-.1c-.1,0,-.1,.1,-.1,.1Z" class="g0_270"/>
<path d="M527,246.5h1.3v-9.6H527Z" class="g0_270"/>
<path d="M527,255.5h1.3v-9.6H527Z" class="g0_270"/>
<path d="M527,264.4h1.3v-9.6H527Z" class="g0_270"/>
<path d="M522.9,285.6c0,0,0,.1,.1,.1v-.1c4.8,-5.3,5.4,-19.1,5.4,-20.7v-.7H527v.7c0,1.2,-.8,14.9,-4,20.3c-.1,.2,-.1,.3,-.1,.4Z" class="g0_270"/>
</svg>