<?xml version="1.0" encoding="UTF-8" standalone="no"?>
<!DOCTYPE svg PUBLIC "-//W3C//DTD SVG 1.1//EN"
"http://www.w3.org/Graphics/SVG/1.1/DTD/svg11.dtd">
<svg viewBox="0 0 811 1017" version="1.1" xmlns="http://www.w3.org/2000/svg" xmlns:xlink="http://www.w3.org/1999/xlink">
<defs>
<style type="text/css"><![CDATA[
.g0_357{
fill: #040504;
}
.g1_357{
fill: #262324;
}
.g2_357{
fill: #FFF;
}
.g3_357{
fill: #000;
}
.g4_357{
fill: #4458A6;
}
.g5_357{
fill: #7E95CC;
}
.g6_357{
fill: #F1FAFD;
}
.g7_357{
fill: #EED3C5;
}
.g8_357{
fill: #F7B293;
}
.g9_357{
fill: #EB7D61;
}
.ga_357{
fill: none;
stroke: #181818;
stroke-width: 0.759;
stroke-linejoin: round;
}
.gb_357{
fill: none;
stroke: #040504;
stroke-width: 2.2;
stroke-linejoin: round;
}
.gc_357{
fill: none;
stroke: #040504;
stroke-width: 0.759;
stroke-linecap: square;
}
.gd_357{
fill: #BF4543;
}
]]></style>
</defs>
<path d="M320.7,182.2c-.3,0,-.4,-.2,-.4,-.4c-.1,-.3,-.2,-.6,-.6,-.6c-.2,0,-.3,.2,-.3,.5c0,.6,.7,.9,1.2,.9c.9,0,.9,-.3,1.3,-.8c.3,-.3,.4,-.7,.6,-1.2c.2,-.6,.5,-1.2,.7,-2l1.4,-5.2h1.2l.1,-.3h-1.2c.3,-1.2,.8,-3.2,1.1,-3.8c.1,-.2,.4,-.5,.7,-.5c.3,0,.5,.2,.5,.5c.1,.3,.2,.5,.5,.5c.3,0,.4,-.2,.4,-.4c0,-.6,-.7,-.9,-1.2,-.9c-1.9,0,-2.6,3,-3,4.6h-1.2l-.1,.3h1.2l-2,7.4c-.1,.4,-.4,1.4,-.9,1.4Z" class="g0_357"/>
<path d="M333.7,168.8c-2.2,1.4,-3.7,3.8,-3.7,6.8c0,2.8,1.6,5.6,3.6,6.8l.2,-.2c-2,-1.5,-2.5,-3.3,-2.5,-6.6c0,-3.3,.6,-5,2.5,-6.6l-.1,-.2Z" class="g0_357"/>
<path d="M342.9,174c0,-.6,-.5,-1,-1.1,-1c-.4,0,-.7,.1,-1.1,.3c-.4,.3,-.7,.6,-1,1c0,-.7,-.4,-1.3,-1,-1.3c-1.3,0,-2.2,1.2,-2.5,2l.2,.1c.3,-.4,1,-1.6,1.8,-1.6c.2,0,.3,.5,.3,.9c0,.3,0,.7,-.2,1.1l-.3,1.1c-.1,.6,-.4,1.3,-.6,1.7c-.2,.3,-.4,.7,-.7,.7c-.4,0,-.8,-.1,-.6,-.5c.1,-.3,0,-.7,-.6,-.7c-.6,0,-.9,.3,-.9,.8c0,.6,.6,1,1.2,1c1.2,0,2,-.8,2.5,-1.6c.1,.9,.5,1.6,1.4,1.6c1.5,0,2.2,-1.2,2.6,-1.9l-.3,-.2c-.4,.6,-1.1,1.6,-1.8,1.6c-.4,0,-.6,-.6,-.6,-1.2c0,-.3,0,-.7,.1,-1.3c.2,-.7,.4,-1.6,.8,-2.2c.1,-.2,.4,-.8,.7,-.8c.6,0,.4,.2,.3,.5c0,.4,.2,.6,.7,.6c.5,0,.7,-.3,.7,-.7Z" class="g0_357"/>
<path d="M344.2,168.8l-.1,.2c1.9,1.6,2.5,3.3,2.5,6.6c0,3.3,-.5,5.1,-2.5,6.6l.2,.2c2,-1.2,3.6,-4,3.6,-6.8c0,-3,-1.5,-5.4,-3.7,-6.8Z" class="g0_357"/>
<path d="M354.1,177.6h7.6v-.9h-7.6Zm0,-3.1h7.6v-.8h-7.6Z" class="g0_357"/>
<path d="M437.1,144v.2c.3,0,.8,0,1,.1c.3,.2,.3,.3,.3,.7v4.8c0,.2,0,.4,-.1,.5c0,.5,-.6,.6,-1.1,.6v.2h3.4v-.2c-.4,0,-.9,0,-1.1,-.2c-.1,-.2,-.2,-.6,-.2,-1v-6.3c-.5,.3,-1.5,.6,-2.2,.6Z" class="g0_357"/>
<path d="M370.1,153.5H507.4v-.8H370.1Z" class="g0_357"/>
<path d="M378,164.9h-.3c-.2,1.4,-.7,2,-1.4,2H372l3.1,-4l-2.8,-4.2h3.5c.8,0,1.3,.4,1.5,1.8h.3l-.1,-2.2H371l3.3,4.7l-3.8,4.8h7.3l.2,-2.9Z" class="g0_357"/>
<path d="M381.6,160.4c.7,0,1.1,-.7,1.3,-1l-.2,-.1c-.1,.2,-.4,.8,-.7,.8c-.1,0,-.1,-.2,-.1,-.3c0,-.1,0,-.2,.1,-.4c0,-.2,.1,-.5,.2,-.8c.1,-.4,.3,-1,.3,-1.3c0,-.3,-.2,-.5,-.5,-.5c-.6,0,-1.1,.5,-1.4,1.1v-.1c0,-.1,0,-.3,0,-.5c0,-.3,0,-.5,-.4,-.5c-.7,0,-.9,.7,-1.1,1.3l.1,.1c.1,-.4,.4,-1.2,.8,-1.2c.1,0,.2,.1,.2,.2c0,.1,-.1,.4,-.1,.6c-.2,.3,-.2,.7,-.4,1l-.5,1.6h.6l.5,-1.4c.1,-.5,.4,-1.1,.7,-1.5c.2,-.2,.5,-.5,.8,-.5q.1,0,.1,.2c0,.1,0,.2,0,.2c0,.3,-.1,.5,-.2,.8c-.1,.6,-.2,1,-.4,1.5q0,.1,0,.2c0,.3,0,.5,.3,.5Z" class="g0_357"/>
<path d="M384.4,159.8c0,-.2,.1,-.7,.3,-1.1c.1,-.5,.4,-1.3,.4,-1.5c0,-.3,0,-.4,-.3,-.4c-.6,0,-1,.6,-1.2,1.1h.1c.2,-.2,.5,-.8,.7,-.8q.1,.1,.1,.2c0,.1,0,.2,-.1,.6c-.2,.5,-.7,1.7,-.7,1.9c0,.4,.1,.6,.6,.6c.6,0,1,-.5,1.2,-1c0,.4,0,1,.4,1c.7,0,1,-.7,1.2,-1.1l-.1,-.1c-.1,.2,-.5,.9,-.8,.9c-.1,0,-.2,-.2,-.2,-.3c0,-.3,.3,-1,.4,-1.4l.5,-1.5h-.5l-.6,1.4c-.1,.5,-.8,1.9,-1.3,1.9c-.2,0,-.1,-.3,-.1,-.4Z" class="g0_357"/>
<path d="M391.9,160.4c.7,0,1.1,-.8,1.4,-1.2l-.2,-.1c-.2,.3,-.6,1,-.8,1c-.1,0,-.1,-.2,-.1,-.3q0,-.1,0,-.1c.1,-.5,.3,-1.1,.5,-1.5c0,-.3,.2,-.5,.2,-.8c0,-.4,-.2,-.6,-.6,-.6c-.2,0,-.4,.1,-.6,.3c-.3,.2,-.5,.4,-.7,.8c.1,-.2,.1,-.3,.1,-.5c0,-.4,-.2,-.6,-.5,-.6c-.5,0,-.9,.3,-1.3,1.1c0,-.2,.1,-.4,.1,-.6c0,-.3,-.1,-.5,-.4,-.5c-.7,0,-1,.7,-1.2,1.3l.1,.1c.1,-.4,.5,-1.2,.9,-1.2c0,0,.1,.2,.1,.3q0,.1,-.1,.2c-.1,.5,-.2,.9,-.4,1.3l-.4,1.6h.5l.6,-1.7c.2,-.6,.5,-1.2,1,-1.6c.1,-.1,.2,-.1,.3,-.1c.3,0,.2,.6,.2,.8c-.1,.4,-.3,.8,-.4,1.2l-.5,1.4h.6c.2,-.7,.3,-1.3,.5,-1.8c.2,-.5,.6,-1.1,1,-1.4c.1,-.2,.3,-.2,.4,-.2c.1,0,.2,0,.2,.2c0,.3,-.2,.6,-.3,1c-.2,.5,-.3,.8,-.4,1.2c-.1,.2,-.1,.3,-.1,.5c0,.3,.1,.5,.3,.5Z" class="g0_357"/>
<path d="M395.9,157c.6,0,.5,1,.2,1.7c-.2,.5,-.7,1.6,-1.3,1.6c-.3,0,-.4,-.2,-.4,-.6c0,-.4,.1,-1,.3,-1.3c.1,-.3,.4,-.9,.6,-1.1c.1,-.2,.3,-.3,.6,-.3Zm-1.3,3.4c1,0,1.6,-.8,2,-1.4c.1,-.3,.3,-.8,.3,-1.3c0,-.5,-.3,-.9,-.8,-.9c-.5,0,-.9,.3,-1.1,.6l.8,-3h-1.1l-.1,.1c.4,0,.5,.2,.5,.3c0,.1,-.1,.4,-.1,.5l-.9,3.1c-.1,.3,-.1,.5,-.2,.7c0,.2,-.1,.4,-.1,.5c0,.5,.4,.8,.8,.8Z" class="g0_357"/>
<path d="M399.7,157c.1,0,.3,.1,.3,.3c0,.7,-1,1.3,-1.6,1.5c.1,-.6,.6,-1.8,1.3,-1.8Zm0,-.2c-.6,0,-1.1,.4,-1.4,.8c-.3,.4,-.6,1,-.6,1.7c0,.7,.2,1.1,.9,1.1c.5,0,1.1,-.4,1.4,-.9l-.1,-.1c-.3,.3,-.7,.8,-1.2,.8c-.3,0,-.4,-.2,-.4,-.7c0,-.1,0,-.4,0,-.5c.8,-.2,2.2,-.7,2.2,-1.6c0,-.4,-.4,-.6,-.8,-.6Z" class="g0_357"/>
<path d="M404.1,157.1c0,-.1,-.1,-.2,-.1,-.3c-.1,0,-.3,-.1,-.4,-.1c-.2,0,-.5,.2,-.6,.3c-.2,.2,-.4,.5,-.6,.7q0,-.1,0,-.2q0,-.1,0,-.2c0,-.3,0,-.5,-.3,-.5c-.5,0,-1,.6,-1.2,1h.2c.1,-.2,.5,-.7,.7,-.7c.1,0,.1,.3,.1,.4c0,0,0,.1,0,.1c-.2,.5,-.3,.9,-.4,1.4l-.5,1.4h.6l.3,-1c.1,-.3,.2,-.6,.3,-.9c.2,-.2,.3,-.5,.4,-.7c.1,-.2,.3,-.6,.6,-.6c.1,0,.1,.1,.2,.2c.1,.1,.2,.1,.3,.1c.2,0,.4,-.1,.4,-.4Z" class="g0_357"/>
<path d="M405.4,160.4h4.5v-.6h-4.5Z" class="g0_357"/>
<path d="M410.6,159.4c0,-1.4,.5,-2.4,1.3,-2.4c.3,0,.5,.2,.5,.6c0,.2,.1,.5,-.1,.9c-.1,.6,-.5,1.7,-1.1,1.7c-.4,0,-.6,-.4,-.6,-.8Zm.5,1c.6,0,1,-.4,1.3,-.7c.3,-.4,.6,-1,.6,-1.6c0,-.4,-.1,-.8,-.3,-1c-.2,-.2,-.4,-.3,-.8,-.3c-.2,0,-.4,.1,-.7,.2c-.4,.3,-.8,.7,-1,1.3c-.1,.2,-.2,.5,-.2,.8c0,.4,.1,.8,.4,1c.1,.2,.4,.3,.7,.3Z" class="g0_357"/>
<path d="M413.9,161.9c-.2,0,-.2,-.1,-.2,-.3c-.1,-.1,-.1,-.3,-.3,-.3c-.2,0,-.2,.2,-.2,.3c0,.3,.4,.5,.7,.5c.4,0,.5,-.2,.7,-.5c.1,-.1,.2,-.3,.3,-.6c.1,-.3,.3,-.7,.4,-1.1L416,157h.7l.1,-.1h-.7c.2,-.7,.4,-1.8,.6,-2.1c.1,-.1,.2,-.3,.4,-.3c.2,0,.2,.1,.3,.3c0,.1,.1,.3,.3,.3c.1,0,.2,-.1,.2,-.3c0,-.3,-.4,-.5,-.7,-.5c-1,.1,-1.4,1.7,-1.7,2.6h-.6l-.1,.1h.7l-1.1,4.1c0,.2,-.2,.8,-.5,.8Z" class="g0_357"/>
<path d="M419.1,160.4h4.5v-.6h-4.5Z" class="g0_357"/>
<path d="M425.8,157c.6,0,.5,1,.2,1.7c-.2,.5,-.7,1.6,-1.3,1.6c-.3,0,-.4,-.2,-.4,-.6c0,-.4,.1,-1,.3,-1.3c.1,-.3,.4,-.9,.6,-1.1c.1,-.2,.3,-.3,.6,-.3Zm-1.3,3.4c1,0,1.6,-.8,2,-1.4c.1,-.3,.3,-.8,.3,-1.3c0,-.5,-.3,-.9,-.8,-.9c-.5,0,-.9,.3,-1.1,.6h-.1l.9,-3h-1.1l-.1,.1c.4,0,.5,.2,.5,.3c0,.1,-.1,.4,-.1,.5l-.9,3.1c-.1,.3,-.1,.5,-.2,.7c0,.2,-.1,.4,-.1,.5c0,.5,.4,.8,.8,.8Z" class="g0_357"/>
<path d="M429.8,156.8c-.2,0,-.4,.1,-.7,.2c-.2,.2,-.5,.4,-.7,.7c-.3,.4,-.6,1.1,-.6,1.8c0,.5,.2,.9,.7,.9c.7,0,1,-.5,1.2,-.8c-.1,.5,-.1,.8,.3,.8c.2,0,.4,-.1,.6,-.2c.2,-.2,.4,-.5,.6,-.8l-.1,-.1c-.2,.2,-.5,.8,-.7,.8c-.1,0,-.2,-.2,-.2,-.3c0,-.5,.3,-1.4,.5,-1.9l.4,-1h-.5l-.2,.3c-.1,-.2,-.2,-.4,-.6,-.4Zm.1,.2c.4,0,.3,.7,.3,1c-.1,.2,-.2,.3,-.2,.5c-.2,.7,-.8,1.7,-1.3,1.7c-.3,0,-.4,-.5,-.4,-.8c0,-.2,0,-.4,.1,-.7c.2,-.6,.8,-1.7,1.5,-1.7Z" class="g0_357"/>
<path d="M432.2,160.4c.8,0,1.1,-.7,1.3,-1.1l-.1,-.1c-.2,.2,-.5,.9,-.9,.9c-.1,0,-.1,-.2,-.1,-.3c0,-.2,0,-.4,.1,-.6l1.3,-4.9l-1.2,.1v.1c.3,0,.5,.2,.5,.3c0,.1,-.1,.4,-.1,.5l-1,3.7c-.1,.4,-.2,.6,-.2,1c0,.3,.1,.4,.4,.4Z" class="g0_357"/>
<path d="M434.8,160.4c.7,0,1.1,-.7,1.3,-1.1l-.2,-.1c-.1,.2,-.4,.9,-.8,.9c-.1,0,-.2,-.2,-.2,-.3c0,-.2,.1,-.4,.1,-.6l1.4,-4.9l-1.2,.1v.1c.3,0,.5,.2,.5,.3c0,.1,-.1,.4,-.1,.5l-1.1,3.7c-.1,.4,-.2,.6,-.2,1c0,.3,.2,.4,.5,.4Z" class="g0_357"/>
<path d="M437.8,160.2c-.2,0,-.3,-.2,-.2,-.4c0,-.3,-.2,-.4,-.3,-.4c-.3,0,-.4,.2,-.4,.4c0,.4,.4,.6,.9,.6c.3,0,.6,-.1,.8,-.3c.2,-.2,.3,-.4,.3,-.8c0,-.2,0,-.4,-.1,-.5c-.2,-.4,-.4,-.6,-.6,-.9c-.1,-.1,-.1,-.2,-.1,-.4c0,-.2,.1,-.5,.4,-.5c.3,0,.3,.2,.3,.3c-.1,.1,0,.4,.3,.4c.1,0,.2,-.2,.2,-.3c0,-.4,-.3,-.6,-.7,-.6c-.3,0,-.6,.1,-.8,.3c-.2,.1,-.2,.4,-.2,.7c0,.2,0,.4,.1,.5c.2,.3,.4,.5,.6,.8c0,.2,.1,.3,.1,.5c0,.3,-.1,.6,-.6,.6Z" class="g0_357"/>
<path d="M381.1,165.2c0,-.2,-.2,-.4,-.4,-.4c-.2,0,-.4,.2,-.4,.4c0,.2,.2,.4,.4,.4c.2,0,.4,-.2,.4,-.4Zm-1.5,5.1c.7,0,1.1,-.6,1.3,-1.1h-.1c-.2,.1,-.5,.8,-.8,.8c-.1,0,-.2,-.2,-.2,-.3c0,-.1,.1,-.4,.2,-.6l.5,-1.5c.1,-.2,.1,-.3,.1,-.5c0,-.2,0,-.4,-.2,-.4c-.6,0,-1.2,.6,-1.4,1l.2,.1c.1,-.2,.4,-.6,.6,-.6c.1,0,.2,.1,.2,.1c0,.2,-.1,.4,-.1,.6l-.6,1.5c-.1,.2,-.1,.4,-.1,.5c0,.3,.1,.4,.4,.4Z" class="g0_357"/>
<path d="M382,169.2h4.2v-.4H382Zm0,-1.7h4.2v-.4H382Z" class="g0_357"/>
<path d="M387.7,164.9v.1c.2,0,.6,.1,.7,.1q.2,.2,.2,.6v3.6c0,.1,0,.3,0,.4c0,.4,-.5,.4,-.9,.4v.1h2.6v-.1c-.3,0,-.7,0,-.8,-.1c-.1,-.2,-.1,-.5,-.1,-.8v-4.7c-.5,.2,-1.2,.4,-1.7,.4Z" class="g0_357"/>
<path d="M473.6,156.3v.1c.3,0,.6,0,.7,.1c.3,.1,.3,.2,.3,.6v3.5c0,.2,0,.4,0,.5c-.1,.3,-.5,.4,-.9,.4v.1h2.5v-.1c-.2,0,-.6,0,-.8,-.2c-.1,-.1,-.1,-.4,-.1,-.7v-4.7c-.4,.2,-1.1,.4,-1.7,.4Z" class="g0_357"/>
<path d="M444.1,163.4h61.5v-.6H444.1Z" class="g0_357"/>
<path d="M445.1,171.6h.5v-7.4h-.5Zm1.6,0h.5v-7.4h-.5Z" class="g0_357"/>
<path d="M450.4,166.6c.7,0,.5,1.1,.2,1.8c-.2,.4,-.7,1.5,-1.3,1.5c-.3,0,-.4,-.2,-.4,-.5c0,-.4,.2,-1,.3,-1.3c.1,-.4,.4,-.9,.6,-1.1c.1,-.2,.4,-.4,.6,-.4Zm-1.2,3.5c.9,0,1.5,-.8,1.9,-1.5c.2,-.3,.3,-.7,.3,-1.2c0,-.6,-.3,-1,-.8,-1c-.5,0,-.9,.3,-1.1,.7l.8,-3.1h-1.1v.2c.3,0,.4,.1,.4,.3c0,.1,0,.3,-.1,.4l-.8,3.1c-.1,.3,-.2,.6,-.2,.8c-.1,.2,-.1,.3,-.1,.4c0,.5,.3,.9,.8,.9Z" class="g0_357"/>
<path d="M454.5,166.4c-.3,0,-.5,.1,-.8,.3c-.2,.2,-.4,.4,-.6,.6c-.4,.4,-.7,1.1,-.7,1.8c0,.6,.2,1,.7,1c.7,0,1,-.5,1.2,-.9c-.1,.5,0,.9,.3,.9c.2,0,.4,-.1,.6,-.3c.2,-.2,.5,-.4,.6,-.8h-.1c-.1,.2,-.5,.7,-.7,.7c-.1,0,-.2,-.2,-.2,-.3c0,-.5,.4,-1.3,.6,-1.9l.3,-1h-.5l-.1,.4c-.1,-.3,-.3,-.5,-.6,-.5Zm0,.2c.4,0,.3,.7,.3,1c0,.2,-.1,.4,-.2,.6c-.2,.6,-.8,1.7,-1.2,1.7c-.4,0,-.4,-.5,-.4,-.8c0,-.3,0,-.5,.1,-.8c.2,-.5,.7,-1.7,1.4,-1.7Z" class="g0_357"/>
<path d="M456.9,170.1c.7,0,1,-.7,1.2,-1.2l-.1,-.1c-.1,.3,-.4,.9,-.8,.9c-.2,0,-.2,-.2,-.2,-.3c0,-.2,0,-.4,.1,-.5l1.3,-4.9h-1.1l-.1,.2c.4,0,.5,.1,.5,.3c0,.1,0,.3,-.1,.4l-1,3.8c-.1,.3,-.2,.6,-.2,.9c0,.3,.1,.5,.5,.5Z" class="g0_357"/>
<path d="M459.4,170.1c.8,0,1.1,-.7,1.3,-1.2l-.1,-.1c-.2,.3,-.5,.9,-.9,.9c-.1,0,-.1,-.2,-.1,-.3c0,-.2,0,-.4,.1,-.5L461,164h-1.2v.2c.3,0,.5,.1,.5,.3c0,.1,-.1,.3,-.1,.4l-1,3.8c-.1,.3,-.2,.6,-.2,.9c0,.3,.1,.5,.4,.5Z" class="g0_357"/>
<path d="M462.4,170h4.4v-.6h-4.4Z" class="g0_357"/>
<path d="M467.6,169c0,-.3,0,-.5,.1,-.8c.1,-.5,.6,-1.6,1.2,-1.6c.2,0,.2,.1,.2,.2c0,.1,-.1,.1,-.1,.2c0,.2,.1,.3,.3,.3c.3,0,.4,-.1,.4,-.3c0,-.4,-.4,-.6,-.7,-.6c-.8,0,-1.4,.8,-1.8,1.4c-.1,.3,-.3,.7,-.3,1.2c0,.6,.4,1.1,1,1.1c.7,0,1.1,-.6,1.4,-1.2h-.1c-.3,.5,-.7,1,-1.2,1c-.3,0,-.4,-.6,-.4,-.9Z" class="g0_357"/>
<path d="M472.3,166.6c.2,0,.3,.2,.3,.3c0,.8,-.9,1.3,-1.6,1.5c.1,-.5,.6,-1.8,1.3,-1.8Zm.1,-.2c-.6,0,-1.1,.5,-1.5,.9c-.3,.4,-.6,1,-.6,1.7c0,.6,.3,1.1,.9,1.1c.6,0,1.1,-.4,1.4,-1l-.1,-.1c-.2,.4,-.7,.9,-1.1,.9c-.4,0,-.5,-.3,-.5,-.8c0,-.1,0,-.4,0,-.5c.9,-.2,2.2,-.7,2.2,-1.6c0,-.4,-.3,-.6,-.7,-.6Z" class="g0_357"/>
<path d="M476.1,170.1c.8,0,1.1,-.7,1.3,-1.1l-.1,-.1c-.2,.3,-.5,.8,-.8,.8c-.1,0,-.1,-.2,-.1,-.2c0,-.1,.1,-.3,.1,-.5c.1,-.2,.2,-.4,.3,-.7c.1,-.5,.2,-1,.2,-1.3c0,-.4,-.1,-.6,-.5,-.6c-.6,0,-1.1,.5,-1.4,1.1c.1,-.2,.1,-.3,.1,-.5c0,-.4,-.1,-.6,-.4,-.6c-.8,0,-1,.7,-1.2,1.4h.2c.1,-.3,.4,-1.2,.7,-1.2c.1,0,.2,.1,.2,.2c0,.2,0,.5,-.1,.6c-.1,.4,-.2,.7,-.3,1.1l-.5,1.5h.5l.5,-1.4c.2,-.4,.5,-1.1,.7,-1.4c.2,-.2,.5,-.6,.8,-.6c.1,0,.2,.1,.2,.3c0,0,0,.1,0,.2c-.1,.3,-.1,.5,-.2,.7c-.2,.6,-.3,1,-.4,1.6c-.1,0,-.1,.1,-.1,.1c0,.3,.1,.6,.3,.6Z" class="g0_357"/>
<path d="M478.7,170.1c.7,0,1.1,-.7,1.4,-1.2l-.2,-.1c-.2,.3,-.5,.9,-.9,.9c-.1,0,-.2,-.2,-.2,-.3c0,-.1,.1,-.3,.1,-.5l.6,-2.2h.7l.1,-.2h-.7l.2,-.9h-.5l-.3,.9h-.6v.2h.6l-.6,2c0,.2,-.1,.4,-.1,.6c0,.1,-.1,.2,-.1,.3c0,.3,.2,.5,.5,.5Z" class="g0_357"/>
<path d="M483,166.6c.1,0,.3,.2,.3,.3c0,.8,-1,1.3,-1.7,1.5c.2,-.5,.7,-1.8,1.4,-1.8Zm0,-.2c-.6,0,-1.1,.5,-1.4,.9c-.3,.4,-.6,1,-.6,1.7c0,.6,.2,1.1,.9,1.1c.5,0,1.1,-.4,1.4,-1l-.1,-.1c-.3,.4,-.7,.9,-1.2,.9c-.3,0,-.4,-.3,-.4,-.8c0,-.1,0,-.4,0,-.5c.8,-.2,2.2,-.7,2.2,-1.6c0,-.4,-.4,-.6,-.8,-.6Z" class="g0_357"/>
<path d="M487.4,166.8c0,-.1,-.1,-.2,-.2,-.3c-.1,-.1,-.2,-.1,-.3,-.1c-.2,0,-.5,.1,-.6,.3c-.2,.2,-.5,.4,-.6,.7c0,-.1,0,-.2,0,-.3c0,0,0,-.1,0,-.2c0,-.3,0,-.5,-.3,-.5c-.5,0,-1,.6,-1.2,1l.1,.1c.2,-.2,.5,-.8,.8,-.8c.1,0,.1,.3,.1,.4c0,0,0,.1,0,.2c-.2,.4,-.3,.8,-.4,1.3l-.5,1.4h.6l.3,-.9c.1,-.3,.2,-.7,.3,-.9c.1,-.3,.3,-.5,.4,-.7c.1,-.3,.3,-.7,.6,-.7c.1,0,.1,.2,.1,.2l.1,.1c.1,0,.1,.1,.3,.1c.2,0,.4,-.2,.4,-.4Z" class="g0_357"/>
<path d="M489.4,167.6c0,-.3,-.2,-.5,-.4,-.5c-.2,0,-.4,.2,-.4,.5c0,.2,.2,.4,.4,.4c.2,0,.4,-.2,.4,-.4Zm-1.5,5.1c.7,0,1.1,-.6,1.3,-1.1l-.2,-.1c-.1,.2,-.4,.8,-.7,.8c-.1,0,-.2,-.1,-.2,-.2c0,-.1,.1,-.5,.2,-.6l.5,-1.5c.1,-.3,.1,-.4,.1,-.5c0,-.2,0,-.4,-.3,-.4c-.5,0,-1.1,.6,-1.3,1l.2,.1c.1,-.2,.4,-.7,.6,-.7c.1,0,.1,.1,.1,.2c.1,.2,0,.4,-.1,.5l-.5,1.6c-.1,.2,-.1,.3,-.1,.5c0,.2,.1,.4,.4,.4Z" class="g0_357"/>
<path d="M491.6,168.1h4.2v-.4h-4.2Z" class="g0_357"/>
<path d="M501.1,167c0,-.3,-.3,-.6,-.7,-.6c-.2,0,-.4,.1,-.6,.2c-.2,.2,-.4,.4,-.5,.6c0,-.4,-.2,-.8,-.6,-.8c-.7,0,-1.2,.7,-1.4,1.2h.2c.2,-.2,.5,-.9,.9,-.9c.2,0,.2,.3,.2,.6c0,.1,0,.3,-.1,.6l-.2,.6c0,.3,-.1,.7,-.3,.9c-.1,.1,-.2,.3,-.4,.3c-.2,0,-.4,0,-.3,-.2c.1,-.2,0,-.4,-.3,-.4c-.4,0,-.5,.2,-.5,.4c0,.4,.3,.6,.6,.6c.7,0,1.2,-.5,1.4,-.9c.1,.5,.3,.9,.8,.9c.8,0,1.2,-.7,1.4,-1.1l-.1,-.1c-.3,.4,-.7,.9,-1.1,.9c-.2,0,-.3,-.3,-.3,-.6c0,-.2,0,-.4,.1,-.7c.1,-.4,.2,-.9,.4,-1.2c.1,-.2,.3,-.5,.4,-.5c.4,0,.2,.1,.2,.3c0,.2,.1,.3,.4,.3c.2,0,.4,-.2,.4,-.4Z" class="g0_357"/>
<path d="M502.5,171.6h.4v-7.4h-.4Zm1.6,0h.5v-7.4h-.5Z" class="g0_357"/>
<path d="M368.3,176H509.1v-.8H368.3Z" class="g0_357"/>
<path d="M392.7,189.8c1.3,0,1.9,-1.3,2.3,-1.9l-.2,-.2c-.3,.5,-.9,1.5,-1.4,1.5c-.2,0,-.2,-.4,-.2,-.5c0,-.2,.1,-.4,.2,-.8c.1,-.4,.2,-.8,.4,-1.4c.2,-.8,.5,-1.8,.5,-2.3c0,-.7,-.2,-1,-.9,-1c-1.1,0,-2,.9,-2.6,1.9c.1,-.3,.2,-.5,.2,-1c0,-.6,-.2,-.9,-.7,-.9c-1.4,0,-1.8,1.3,-2.2,2.4l.3,.1c.2,-.6,.7,-2.1,1.4,-2.1c.1,0,.3,.1,.3,.3c0,.3,-.1,.8,-.2,1.1c-.2,.6,-.3,1.2,-.6,1.9l-.9,2.8h1l.9,-2.6c.3,-.8,.8,-1.9,1.3,-2.6c.3,-.4,.9,-1,1.4,-1c.2,0,.3,.2,.3,.5c0,0,0,.3,0,.3c-.1,.6,-.2,.9,-.3,1.4c-.4,1.1,-.5,1.8,-.8,2.8c-.1,.1,-.1,.2,-.1,.3c0,.5,.1,1,.6,1Z" class="g0_357"/>
<path d="M397.7,188.6c0,-.3,.4,-1.2,.6,-1.9c.3,-.9,.8,-2.4,.8,-2.8c0,-.5,-.1,-.7,-.5,-.7c-1.2,0,-1.9,1.2,-2.3,1.9l.3,.2c.3,-.4,.8,-1.5,1.3,-1.5c.1,0,.1,.2,.1,.3c0,.2,0,.4,-.3,1.1c-.3,.9,-1.1,3.1,-1.1,3.5c0,.6,.2,1.1,1,1.1c1.2,0,1.8,-1,2.2,-1.9l.1,.1c-.1,.6,-.1,1.8,.6,1.8c1.2,0,1.9,-1.3,2.2,-2.1l-.2,-.1c-.2,.4,-.8,1.6,-1.4,1.6c-.2,0,-.4,-.4,-.4,-.6c0,-.5,.5,-1.7,.8,-2.5l.9,-2.8h-1l-1,2.7c-.3,.8,-1.5,3.4,-2.4,3.4c-.3,0,-.3,-.5,-.3,-.8Z" class="g0_357"/>
<path d="M411.4,189.8c1.3,0,2.1,-1.4,2.5,-2.2l-.3,-.2c-.3,.5,-1,1.8,-1.5,1.8c-.2,0,-.1,-.4,-.1,-.6c0,0,0,-.1,0,-.2c.2,-.8,.6,-1.8,.9,-2.7c.1,-.5,.3,-.9,.3,-1.5c0,-.6,-.3,-1,-.9,-1c-.6,0,-.9,.2,-1.2,.5c-.5,.4,-.9,.9,-1.2,1.5h-.1c.1,-.4,.2,-.5,.2,-.9c0,-.7,-.3,-1.1,-1,-1.1c-.8,0,-1.6,.6,-2.3,2v-.1c.1,-.3,.1,-.6,.1,-1c0,-.6,-.1,-.9,-.7,-.9c-1.2,0,-1.8,1.3,-2.1,2.4l.2,.1c.2,-.6,.9,-2.2,1.5,-2.2c.2,0,.3,.4,.3,.6c0,.1,-.1,.3,-.1,.4c-.2,.8,-.5,1.5,-.8,2.4l-.8,2.8h1l1,-3c.4,-1.1,1,-2.2,1.9,-2.9c.2,-.2,.4,-.3,.5,-.3c.6,0,.4,1.2,.3,1.6c-.2,.7,-.4,1.3,-.7,2.2l-.8,2.4h1c.4,-1.1,.7,-2.2,1,-3.2c.4,-.9,1.1,-2,1.7,-2.5c.3,-.3,.5,-.5,.7,-.5c.2,0,.4,.1,.4,.4c0,.6,-.3,1.1,-.5,1.8c-.3,.9,-.6,1.6,-.8,2.3c-.1,.4,-.1,.6,-.1,.9c0,.5,.1,.9,.5,.9Z" class="g0_357"/>
<path d="M418.7,183.5c1.2,0,.9,1.9,.3,3.2c-.3,.9,-1.2,2.8,-2.4,2.8c-.4,0,-.7,-.3,-.7,-1c0,-.7,.3,-1.8,.6,-2.4c.2,-.6,.7,-1.5,1.1,-2c.2,-.3,.6,-.6,1.1,-.6Zm-2.3,6.3c1.7,0,2.9,-1.5,3.5,-2.6c.3,-.6,.6,-1.4,.6,-2.3c0,-1,-.5,-1.7,-1.5,-1.7c-.9,0,-1.6,.5,-2,1.2v-.1l1.5,-5.5l-2,.1l-.1,.2c.6,0,.9,.3,.9,.5c0,.2,-.1,.6,-.2,.8l-1.6,5.7c-.2,.5,-.3,.9,-.4,1.3c-.1,.4,-.1,.7,-.1,.9c0,.9,.6,1.5,1.4,1.5Z" class="g0_357"/>
<path d="M425.6,183.5c.2,0,.5,.3,.5,.6c0,1.3,-1.7,2.3,-2.9,2.7c.3,-1,1.2,-3.3,2.4,-3.3Zm.1,-.3c-1.1,0,-2,.8,-2.6,1.5c-.6,.7,-1.1,1.9,-1.1,3.1c0,1.2,.4,2,1.6,2c1,0,2,-.7,2.6,-1.7l-.3,-.2c-.4,.6,-1.2,1.6,-2,1.6c-.6,0,-.9,-.5,-.9,-1.4c0,-.3,.1,-.7,.1,-.9c1.5,-.3,3.9,-1.3,3.9,-3c0,-.6,-.6,-1,-1.3,-1Z" class="g0_357"/>
<path d="M433.6,183.8c0,-.2,-.1,-.4,-.2,-.5c-.2,-.2,-.4,-.2,-.6,-.2c-.5,0,-.9,.3,-1.2,.6c-.4,.3,-.8,.7,-1,1.2h-.1c.1,-.2,.1,-.3,.1,-.4c0,-.1,0,-.3,0,-.4c0,-.5,-.1,-.9,-.5,-.9c-1.1,0,-2,1.1,-2.2,1.8l.2,.1c.2,-.4,.9,-1.4,1.4,-1.4c.1,0,.1,.5,.1,.7c0,.1,0,.2,0,.3c-.3,.9,-.4,1.6,-.8,2.5l-.8,2.5h1.1l.6,-1.7c.1,-.5,.3,-1.2,.5,-1.7c.2,-.4,.5,-.9,.7,-1.2c.2,-.4,.6,-1.2,1.1,-1.2c.2,0,.2,.3,.3,.3l.1,.1c.1,.2,.2,.2,.5,.2c.4,0,.7,-.3,.7,-.7Z" class="g0_357"/>
<path d="M435.3,189.7h4.4v-.6h-4.4Z" class="g0_357"/>
<path d="M441.1,188c0,-2.5,.9,-4.5,2.4,-4.5c.5,0,.9,.4,.9,1.1c0,.5,0,1,-.2,1.7c-.2,1,-1,3.2,-2.1,3.2c-.6,0,-1,-.9,-1,-1.5Zm.9,1.8c1,0,1.8,-.8,2.4,-1.4c.5,-.7,1.1,-1.7,1.1,-2.9c0,-.7,-.3,-1.3,-.6,-1.7c-.4,-.3,-.8,-.6,-1.4,-.6c-.5,0,-.9,.1,-1.3,.4c-.9,.4,-1.5,1.3,-1.9,2.2c-.2,.5,-.3,1.1,-.3,1.6c0,.7,.2,1.4,.6,1.8c.3,.3,.7,.6,1.4,.6Z" class="g0_357"/>
<path d="M447,192.5c-.3,0,-.3,-.2,-.4,-.5c-.1,-.3,-.2,-.5,-.5,-.5c-.3,0,-.4,.2,-.4,.4c0,.6,.8,.9,1.3,.9c.8,0,.9,-.2,1.3,-.8c.2,-.3,.4,-.7,.6,-1.2c.2,-.5,.5,-1.2,.7,-2l1.3,-5.1h1.2l.2,-.4H451c.3,-1.1,.8,-3.1,1.1,-3.7c.2,-.3,.4,-.5,.8,-.5c.3,0,.4,.2,.5,.4c0,.3,.2,.6,.5,.6c.2,0,.4,-.2,.4,-.5c0,-.6,-.8,-.9,-1.3,-.9c-1.9,.1,-2.6,3.1,-3,4.6h-1.2l-.1,.4h1.2L448,191c-.1,.4,-.4,1.5,-1,1.5Z" class="g0_357"/>
<path d="M455.8,189.7h4.5v-.6h-4.5Z" class="g0_357"/>
<path d="M464.2,183.5c1.3,0,.9,1.9,.4,3.2c-.3,.9,-1.3,2.8,-2.4,2.8c-.5,0,-.7,-.3,-.7,-1c0,-.7,.3,-1.8,.5,-2.4c.3,-.6,.8,-1.5,1.2,-2c.2,-.3,.6,-.6,1,-.6Zm-2.2,6.3c1.7,0,2.9,-1.5,3.5,-2.6c.3,-.6,.6,-1.4,.6,-2.3c0,-1,-.5,-1.7,-1.5,-1.7c-.9,0,-1.6,.5,-2,1.2v-.1l1.5,-5.5l-2.1,.1v.2c.6,0,.8,.3,.8,.5c0,.2,-.1,.6,-.1,.8l-1.6,5.7c-.2,.5,-.3,.9,-.4,1.3c-.1,.4,-.1,.7,-.1,.9c0,.9,.5,1.5,1.4,1.5Z" class="g0_357"/>
<path d="M471.6,183.2c-.4,0,-.8,.1,-1.3,.5c-.4,.3,-.8,.6,-1.2,1.1c-.7,.8,-1.3,2,-1.3,3.3c0,.9,.4,1.7,1.3,1.7c1.3,0,1.8,-.9,2.2,-1.6c-.2,1,0,1.6,.6,1.6c.3,0,.7,-.2,1.1,-.5c.4,-.3,.8,-.8,1.1,-1.4l-.2,-.1c-.3,.4,-.9,1.4,-1.3,1.4c-.2,0,-.3,-.4,-.3,-.6c0,-.9,.6,-2.4,.9,-3.4l.7,-1.9h-1l-.2,.7c-.2,-.5,-.5,-.8,-1.1,-.8Zm.2,.3c.7,0,.5,1.3,.4,1.9c-.1,.3,-.2,.6,-.3,.9c-.4,1.2,-1.5,3.2,-2.3,3.2c-.6,0,-.7,-1,-.7,-1.5c0,-.4,0,-.9,.2,-1.3c.3,-1.1,1.4,-3.2,2.7,-3.2Z" class="g0_357"/>
<path d="M476,189.8c1.3,0,2,-1.3,2.3,-2.1l-.3,-.1c-.2,.4,-.7,1.6,-1.5,1.6c-.2,0,-.3,-.4,-.3,-.6c0,-.4,.1,-.7,.2,-1l2.5,-8.8l-2.2,.1v.2c.6,0,.8,.3,.8,.5c0,.2,-.1,.6,-.1,.8l-1.9,6.9c-.2,.6,-.3,1.1,-.3,1.7c0,.6,.2,.8,.8,.8Z" class="g0_357"/>
<path d="M480.6,189.8c1.4,0,2,-1.3,2.4,-2.1l-.3,-.1c-.2,.4,-.8,1.6,-1.5,1.6c-.3,0,-.3,-.4,-.3,-.6c0,-.4,.1,-.7,.2,-1l2.4,-8.8l-2.1,.1l-.1,.2c.6,0,.9,.3,.9,.5c0,.2,-.1,.6,-.2,.8l-1.8,6.9c-.2,.6,-.4,1.1,-.4,1.7c0,.6,.2,.8,.8,.8Z" class="g0_357"/>
<path d="M486.2,189.5c-.5,0,-.6,-.4,-.5,-.9c.1,-.4,-.3,-.7,-.6,-.7c-.4,0,-.6,.3,-.6,.8c0,.7,.8,1.1,1.6,1.1c.6,0,1.1,-.3,1.4,-.6c.4,-.3,.6,-.7,.6,-1.4c0,-.4,0,-.7,-.2,-1c-.3,-.6,-.8,-1.1,-1,-1.6c-.2,-.2,-.2,-.4,-.2,-.7c0,-.3,.1,-1,.7,-1c.6,0,.6,.4,.5,.7c-.1,.2,.1,.6,.5,.6c.3,0,.5,-.2,.5,-.6c0,-.6,-.6,-1,-1.3,-1c-.7,0,-1.1,.2,-1.5,.5c-.3,.3,-.4,.7,-.4,1.3c0,.4,0,.7,.2,1c.3,.5,.7,.9,1,1.4c.2,.3,.3,.6,.3,.9c0,.5,-.2,1.2,-1,1.2Z" class="g0_357"/>
<path d="M515.2,176h7.6v-.8h-7.6Z" class="g0_357"/>
<path d="M528.4,177.7c0,-2.5,1,-4.4,2.4,-4.4c.5,0,.9,.3,.9,1.1c0,.4,0,1,-.2,1.7c-.2,1,-1,3.1,-2.1,3.1c-.6,0,-1,-.8,-1,-1.5Zm.9,1.9c1,0,1.9,-.8,2.4,-1.4c.5,-.8,1.1,-1.8,1.1,-2.9c0,-.7,-.2,-1.3,-.6,-1.7c-.3,-.4,-.7,-.6,-1.4,-.6c-.5,0,-.9,.1,-1.3,.3c-.8,.5,-1.5,1.3,-1.9,2.3c-.2,.5,-.2,1,-.2,1.6c0,.7,.1,1.3,.5,1.7c.4,.4,.8,.7,1.4,.7Z" class="g0_357"/>
<path d="M533.3,182.2c-.3,0,-.4,-.2,-.5,-.4c0,-.3,-.1,-.6,-.5,-.6c-.2,0,-.3,.2,-.3,.5c0,.6,.7,.9,1.2,.9c.9,0,.9,-.3,1.3,-.8c.3,-.3,.4,-.7,.6,-1.2c.2,-.6,.5,-1.2,.7,-2l1.4,-5.2h1.2l.1,-.3h-1.2c.3,-1.2,.7,-3.2,1.1,-3.8c.1,-.2,.4,-.5,.7,-.5c.3,0,.5,.2,.5,.5c.1,.3,.2,.5,.5,.5c.3,0,.4,-.2,.4,-.4c0,-.6,-.7,-.9,-1.2,-.9c-1.9,0,-2.6,3,-3,4.6H535v.3h1.2l-2,7.4c-.1,.4,-.4,1.4,-.9,1.4Z" class="g0_357"/>
<path d="M539.7,182.2c-.3,0,-.4,-.2,-.4,-.4c-.1,-.3,-.2,-.6,-.5,-.6c-.3,0,-.4,.2,-.4,.5c0,.6,.7,.9,1.2,.9c.9,0,.9,-.3,1.4,-.8c.2,-.3,.4,-.7,.5,-1.2c.2,-.6,.6,-1.2,.7,-2l1.4,-5.2h1.2l.1,-.3h-1.2c.3,-1.2,.8,-3.2,1.1,-3.8c.1,-.2,.4,-.5,.8,-.5c.3,0,.4,.2,.4,.5c.1,.3,.2,.5,.6,.5c.2,0,.3,-.2,.3,-.4c0,-.6,-.7,-.9,-1.2,-.9c-1.9,0,-2.6,3,-3,4.6h-1.2l-.1,.3h1.2l-1.9,7.4c-.1,.4,-.4,1.4,-1,1.4Z" class="g0_357"/>
<path d="M547.3,179.2c-.5,0,-.6,-.4,-.5,-.8c.1,-.5,-.3,-.7,-.6,-.7c-.4,0,-.6,.3,-.6,.7c0,.8,.7,1.2,1.5,1.2c.6,0,1.2,-.3,1.5,-.6c.3,-.3,.6,-.8,.6,-1.4c0,-.4,-.1,-.7,-.3,-1.1c-.2,-.5,-.7,-1,-1,-1.5c-.1,-.2,-.2,-.5,-.2,-.7c.1,-.4,.2,-1,.8,-1c.5,0,.5,.4,.4,.6c0,.2,.1,.6,.6,.6c.3,0,.5,-.2,.5,-.5c0,-.7,-.7,-1,-1.4,-1c-.6,0,-1,.2,-1.4,.5c-.3,.3,-.5,.7,-.5,1.3c0,.4,.1,.7,.3,.9c.3,.5,.7,1,1,1.5c.2,.3,.2,.5,.2,.9c0,.4,-.1,1.1,-.9,1.1Z" class="g0_357"/>
<path d="M554.9,173c-1.1,0,-2,.8,-2.6,1.4c-.6,.8,-1.1,1.9,-1.1,3.2c0,1.2,.4,2,1.6,2c1,0,1.9,-.8,2.5,-1.7l-.2,-.2c-.4,.6,-1.2,1.5,-2,1.5c-.6,0,-.9,-.5,-.9,-1.3c0,-.3,0,-.7,.1,-1c1.5,-.3,3.9,-1.2,3.9,-2.9c0,-.7,-.6,-1,-1.3,-1Z" class="g1_357"/>
<path d="M554.7,173.3c.3,0,.6,.3,.6,.6c0,1.3,-1.7,2.3,-2.9,2.7c.2,-1,1.1,-3.3,2.3,-3.3Z" class="g2_357"/>
<path d="M558.1,179.6c1.2,0,2,-1.3,2.5,-2.1l-.3,-.2c-.3,.4,-.9,1.7,-1.7,1.7c-.2,0,-.3,-.5,-.3,-.6c0,-.3,.1,-.6,.3,-1l1,-4h1.3l.1,-.3h-1.3l.4,-1.6h-1l-.4,1.6h-1.1l-.1,.3h1.1l-1,3.6c-.1,.5,-.2,.9,-.2,1.1c-.1,.3,-.1,.5,-.1,.7c0,.5,.2,.8,.8,.8Z" class="g0_357"/>
<path d="M115.7,306.6h.3v-25h-.3Z" class="g3_357"/>
<path d="M131.3,281.6v-3.2l.2,.1l6.3,2.9l.3,.2l-.3,.2l-6.3,2.9l-.2,.1v-.3l.1,-.2l6.2,-2.9l.2,.4h-.2l-6.2,-3l.1,-.3l.1,.2v2.9Z" class="g3_357"/>
<path d="M131.3,284.5h.3v-2.9h-.3Z" class="g3_357"/>
<path d="M131.3,281.8h.2v-.4h-.2Z" class="g3_357"/>
<path d="M115.7,281.8h15.6v-.4H115.7Z" class="g3_357"/>
<path d="M436.5,311.3h.4V284.6h-.4Z" class="g3_357"/>
<path d="M412.3,296.9V300l-.3,-.1l-6.3,-2.8l-.3,-.2l.3,-.2l6.3,-2.9l.3,-.1v.3l-.1,.2l-6.3,2.9l-.2,-.4h.2l6.3,2.9l-.2,.3v-3Z" class="g3_357"/>
<path d="M412,296.9h.3V294H412Z" class="g3_357"/>
<path d="M412.1,297.1h.2v-.4h-.2Z" class="g3_357"/>
<path d="M412.3,297.1h24.6v-.4H412.3Z" class="g3_357"/>
<path d="M304.2,358v3.2l-.3,-.1l-6.4,-3l-.3,-.1l.3,-.2l6.4,-3h.3v.2l-.1,.2l-6.4,2.9l-.2,-.3h.2l6.4,2.9l-.2,.4l-.1,-.2V358Z" class="g3_357"/>
<path d="M303.8,358h.4v-3h-.4Z" class="g3_357"/>
<path d="M304,358.1h.2v-.3H304Z" class="g3_357"/>
<path d="M304.2,358.1h41v-.3h-41Z" class="g3_357"/>
<path d="M119.7,730.5H312.5V538.4H119.7Z" class="g2_357"/>
<path d="M265.8,688.5h1.9c9.9,-.4,8.6,2.4,8.7,-6.5v-3.9l-.9,-1.4l-2,-.2h-7.7l-1.5,1.6v7.8l.3,1.9l1.2,.7Z" class="g4_357"/>
<path d="M168.4,670.5h58.4l.3,-.1l1.1,-2v-7.7l-.8,-2l-.6,-.2c-9.7,0,-19.5,0,-29.2,0H168.4l-.3,.2l-.2,2v7.7l.3,2l.2,.1Z" class="g4_357"/>
<path d="M211.2,598.4l2,.1H219l2,-.1l1.1,-1.8c0,-6.4,0,-12.9,0,-19.4l-.1,-1.9l-1,-.9h-9.8l-1,.9l-.1,1.9c0,6.5,0,13,0,19.4l1.1,1.8Z" class="g4_357"/>
<path d="M168.2,670.4l-.3,-2v-7.7l.2,-2l.3,-.2h29.2c9.7,0,19.5,0,29.2,0l.6,.2l.8,2v7.7l-1.1,2l-.3,.1H203.4c-11,0,-22,0,-33.1,0h-1.9l-.2,-.1Zm96.4,17.4l-.3,-1.9v-7.8l1.5,-1.6h7.7l2,.2l.9,1.4v7.8l-.1,1.9l-.8,.7h-9.7l-1.2,-.7ZM258,699.7l1.9,.7l2,.4l1.9,.1l2,-.1l1.9,-.1c4.3,-.4,9.8,.3,13.6,-1.7l2,-1.2l.3,-.3c4.7,-4,4.5,-7.8,4.5,-13.5v-2l.1,-1.9v-3.9c0,-3.8,-1.9,-7.5,-4.9,-9.8l-2,-1.2l-1.5,-.6c-3.7,-1.4,-9.8,-1.2,-14,-2.1l-2,-.3l-1.9,-.2l-2,-.1l-1.9,.2l-2,.3c-14.4,4,-6.3,-10.1,-21.2,-17.3h-.2l-1.9,-.7l-2,-.4c-4.9,-.3,-10.6,.5,-15.6,.6l-1.9,.1l-2,.1c-5.2,.3,-10.4,.5,-15.5,.8h-2l-3.9,.2l-3.9,.2l-3.9,.2c-11.7,.9,-25.6,-2.4,-25.3,14.5v1.9l.1,2c.2,5.4,-.9,9.2,3.2,13.5l.6,.7l1.8,1.3c3.5,2.4,11.3,1.3,15.7,1.7l2,.1l3.9,.1h1.9c13,.4,26.1,.7,39,2l1.9,.3l2,.2l1.9,.1c4.5,.4,10.1,-2.8,13.6,-1.8L246,684l.3,.2c2.7,4,2.6,7.5,6.1,11.4l1.7,1.6l.3,.3l1.6,1.2l1.5,.8l.5,.2Z" class="g5_357"/>
<path d="M210.1,596.6v-1.9c0,-5.8,0,-11.7,0,-17.5l.1,-1.9l1,-.9H221l1,.9l.1,1.9c0,6.5,0,13,0,19.4l-1.1,1.8l-2,.1h-5.8l-2,-.1l-1.1,-1.8Zm-2.8,14.3l2,.4h1.9l3.9,.1c3.9,-.2,9.1,.9,12.4,-1.2l1.3,-.6l1.6,-1.3c2.6,-2.5,4.1,-6.1,3.9,-9.7l-.1,-2l-.1,-1.9l-.1,-2l-.1,-1.9c-.2,-4.5,-.4,-9,-.5,-13.6l-.1,-1.9l-.1,-2c-.4,-3,-2.1,-6,-4.7,-7.7l-1.7,-1l-1.9,-.7l-1.8,-.3H221c-10.1,0,-21.1,-1.9,-22,11.7v1.9l-.1,2l-.1,1.9c-.1,4.5,-.2,9.1,-.4,13.6l-.1,1.9l-.1,2c-.2,3.6,1.5,7.3,4.2,9.7l1,.8l2,1.1l1.9,.7Z" class="g5_357"/>
<path d="M205.4,610.2v0l-2,-1.1l-1,-.8l-.9,-.9c-2.9,-3.2,-3.6,-6.5,-3.2,-10.8l.1,-1.9v-2c.2,-4.5,.4,-9,.5,-13.5l.1,-2v-1.9l.1,-2c2.7,-12.8,14.1,-9.2,23.8,-9.7h.2l1.8,.3l1.9,.7l1.7,1l.3,.2c3,2.1,4.6,5.8,4.5,9.5l.1,1.9l.1,2c.1,4.5,.3,9,.5,13.5l.1,2l.1,1.9l.1,2l-.1,1.9c-.3,3.7,-2.4,7,-5.4,9.1l-1.3,.6l-.7,.4c-3.3,1.6,-9.7,.6,-13.6,.7h-3.9l-2,-.4l-1.9,-.7Zm52.1,89.3l-1.5,-.8l-1.6,-1.2l-.3,-.3l-1.7,-1.6l-.3,-.4c-3.2,-3.6,-3.2,-7.3,-5.8,-11L246,684l-1.7,-1.2c-4.5,-.9,-9.6,2.7,-15.5,1.7l-2,-.2l-1.9,-.3h-.6c-12.8,-1.3,-25.8,-1.6,-38.6,-2H184l-3.9,-.1l-2,-.1h-1.9c-4.2,-.4,-10.3,.6,-13.8,-1.7l-1.8,-1.3l-.6,-.7c-4.4,-4.5,-2.9,-9.8,-3.3,-15.5v-3.9c1.1,-15.8,16.1,-11.2,27.3,-12.6l1.9,-.1l3.9,-.2l7.8,-.3c4.5,-.2,9.1,-.5,13.6,-.7l2,-.1l1.9,-.1c5,0,13,-1.4,17.6,-.2l1.9,.7h.2l1.7,.9l1.6,1.1c2.7,2,4.8,4.8,6.2,7.8l.9,1.9l.8,1.9c2.1,5.5,5.2,4.5,10,3.7l2,-.3l1.9,-.2l2,.1l1.9,.2l2,.3l.7,.1c4,.8,9.8,.7,13.3,2l1.5,.6l2,1.2c3.7,2.9,5.3,7.1,4.9,11.7v2l-.1,1.9v2c.7,18,-10.6,16.3,-24.3,16.9l-1.9,-.1l-2,-.4l-1.9,-.7l-.5,-.2Zm-11.2,19.7l1.9,.4l2,.4l1.9,.3l2,.2l1.9,.1c9.8,-.2,19.9,-1.3,29.2,-4.3l2,-.9l.7,-.4c7.8,-4,13.7,-11,16.1,-19.4l.5,-1.9l.2,-.9l.2,-1.1l.3,-1.9c.6,-12,2.4,-19.7,-3,-31.1l-1,-1.9l-.4,-.7c-4.2,-7.5,-10.3,-13.2,-16.7,-18.7l-.8,-.8l-1.4,-1.2l-.6,-.5l-1.5,-1.4l-.4,-.4l-1.7,-1.5C271.8,626,267.2,619.5,263.8,612.2v-.1l-.9,-1.9c-3.3,-8.3,-7.1,-16.5,-9.2,-25.2l-.5,-2l-.5,-1.9l-.4,-1.9l-.2,-.8c-1.5,-9.5,-4.2,-16.8,-11.7,-23.1l-1.7,-1.4l-.2,-.1c-9,-6.7,-20.7,-4.9,-31.2,-4.7l-1.9,.3l-2,.4l-.8,.3l-1.1,.3l-2,.7l-1.8,.9h-.1l-1.9,1.1c-7.2,4.5,-11.9,12,-13.3,20.2l-.3,2l-.1,.3c-1.4,10.4,-3.6,18.8,-6.9,28.8l-.6,1.9l-.3,1l-.3,1l-.7,1.9c-3.2,9,-9.6,11.9,-16.5,17.5l-1.9,1.6l-.4,.3c-6.5,5.7,-11.6,12.8,-13.3,21.4l-.4,1.9l-.2,1.9v3.9l.1,2l.1,1.9c.3,10.3,.3,16.8,7.1,25.2l1.1,1.3l.7,.7c8.5,8.1,15.5,8.3,26.6,9.4l1.9,.3h.2l1.8,.2l1.9,.3c9.9,1.3,19.7,3,29.2,5.9l2,.6l1.9,.7c8.2,2.8,15.4,7,23.6,9.8l1.7,.5l2,.6l1.9,.6l.8,.2l1.2,.3Z" class="g6_357"/>
<path d="M245.1,718.9l-.8,-.2l-1.9,-.6l-2,-.6l-1.7,-.5l-.2,-.1c-8.1,-2.7,-15.3,-7,-23.4,-9.7l-1.9,-.7l-2,-.6C201.7,703,191.9,701.3,182,700l-1.9,-.3l-1.8,-.2h-.2l-1.9,-.3c-11.1,-1.1,-18.1,-1.3,-26.6,-9.4l-.7,-.7l-1.1,-1.3c-7.4,-9.2,-6.7,-16.1,-7.2,-27.1l-.1,-2v-3.9l.2,-1.9l.4,-1.9v-.3c1.8,-8.5,6.8,-15.5,13.3,-21.1l.4,-.3l1.9,-1.6c6.9,-5.6,13.3,-8.5,16.5,-17.5l.7,-1.9l.3,-1l.3,-1l.6,-1.9c3.3,-10,5.5,-18.4,6.9,-28.8l.1,-.3l.3,-2c1.5,-9,7,-17,15.2,-21.3h.1l1.8,-.9l2,-.7l1.1,-.3l.8,-.3l2,-.4l1.9,-.3l2,-.2c11.3,.2,19.2,-1.9,29.2,4.9l.2,.1l1.7,1.4c7.5,6.3,10.2,13.6,11.7,23.1l.2,.8l.4,1.9l.5,1.9l.5,2c2.1,8.7,5.9,16.9,9.2,25.2l.9,1.9v.1c3.8,8.2,8.8,14.9,15.6,20.9l.4,.4l1.5,1.4l.6,.5l1.4,1.2l.8,.8l1.1,.9c6,5.3,11.7,10.7,15.6,17.8l.4,.7l1,1.9c5.4,11.4,3.6,19.1,3,31.1l-.3,1.9l-.2,1.1l-.2,.9l-.5,1.9C301.6,704,295.7,711,287.9,715l-.7,.4l-2,.9l-1.8,.7c-3.3,1.1,-6.4,1.5,-9.9,2l-1.9,.3l-2,.2c-4.6,.7,-8.8,1.4,-13.6,1.1l-1.9,-.1l-2,-.2l-1.9,-.3l-2,-.4l-1.9,-.4l-1.2,-.3ZM193.7,729l2,.6l1.9,.7l.7,.2H303l1.7,-1.2c2.5,-2,4.9,-4.2,7.1,-6.5l.7,-.8V622.2l-.2,-.3c-8.6,-14.3,-19.4,-26.7,-27.9,-40.8l-1.1,-1.9v-.1c-8.4,-15.7,-15.7,-30,-31.2,-40.1l-.9,-.6H183.7l-1.7,1.1l-1.2,.8l-.7,.6l-1.9,1.4c-6.1,4.8,-11,10.8,-15,17.5l-.6,1l-.6,.9c-4.3,7.5,-6.9,15.5,-11.1,23l-.2,.3l-1.1,1.9l-.7,1.2c-10.1,16.3,-21.9,30.2,-27,49.3l-.2,1l-.3,.9l-.4,2l-.4,1.9l-.3,1.9c-1.4,9.3,0,22.3,1.4,31.7l.2,1.3l.5,2c2,7.8,5.8,15.1,10.9,21.4l1.7,1.9l.3,.3l1.6,1.6c16.5,16.2,32.5,15.7,52.9,22.5l2,.6l.6,.2l1.3,.4Z" class="g7_357"/>
<path d="M129.5,729.8l.8,.7h68l-.7,-.2l-1.9,-.7C178,722.9,158.9,722.3,143.8,711.1l-.7,-.5l-1.9,-1.4C124.7,695.5,120.5,679.5,119.9,658.7l-.2,-1.9v-.7v64.6c2.6,2.8,5.3,5.4,8.3,7.9l1.5,1.2Z" class="g8_357"/>
<path d="M304.7,730.5h7.8V722l-.7,.8c-2.2,2.3,-4.6,4.5,-7.1,6.5l-1.7,1.2h1.7Z" class="g8_357"/>
<path d="M119.7,651l.2,-2l.2,-1.9c2.5,-22,15.2,-38.1,26.9,-55.9l.2,-.4l1.2,-1.9l.5,-.8c5,-8,7.7,-16.3,12.1,-24.5l1,-1.9l.6,-.9c4.4,-7.7,10.3,-14.7,17.5,-19.9l.7,-.6l1.2,-.8l1.7,-1.1H148.1l-1.1,1.3c-11.2,12.1,-19.4,26.1,-27.3,40.5v71.7V651Z" class="g8_357"/>
<path d="M312.5,622.2V566.8l-.8,-1.2c-6.3,-9,-13,-17.7,-20.6,-25.6l-1.6,-1.6H251.2l.9,.6l2,1.3c13.4,9.5,20.7,22.7,28.1,36.9l1.1,1.9v.1c8.2,14.3,19.1,26.7,27.7,40.7l1.3,2l.2,.3Z" class="g8_357"/>
<path d="M121.7,730.5h8.6l-.8,-.7c-3.4,-2.7,-6.7,-5.7,-9.6,-9l-.2,-.1v9.8h2Z" class="g9_357"/>
<path d="M120.3,579.2l1.1,-2c7.3,-13.3,15.3,-26.3,25.6,-37.5l1.1,-1.3H119.7v41.8l.6,-1Z" class="g9_357"/>
<path d="M312.5,566.8V538.4h-23l1.6,1.6c7.6,7.9,14.3,16.6,20.6,25.6l.8,1.2Z" class="g9_357"/>
<path d="M265.8,688.5l-1.2,-.7l-.3,-1.9v-7.8l1.5,-1.6h7.7l2,.2l.9,1.4V682c-.1,8.9,1.2,6.1,-8.7,6.5h-1.9Zm-97.4,-18l-.2,-.1l-.3,-2v-7.7l.2,-2l.3,-.2h29.2c9.7,0,19.5,0,29.2,0l.6,.2l.8,2v7.7l-1.1,2l-.3,.1H168.4Zm42.8,-72.1l-1.1,-1.8c0,-6.4,0,-12.9,0,-19.4l.1,-1.9l1,-.9H221l1,.9l.1,1.9c0,6.5,0,13,0,19.4l-1.1,1.8l-2,.1h-5.8l-2,-.1ZM258,699.7l-.5,-.2l-1.5,-.8l-1.9,-1.5l-2,-2c-3.4,-3.7,-3.2,-7.9,-6.1,-11.2l-1.7,-1.2l-1.9,-.2l-2,.3l-4.2,1.1l-1.6,.3l-1.9,.3h-2l-1.9,-.1l-5.9,-.7l-5.8,-.5l-7.8,-.4l-11.7,-.5L182,681.9l-15.6,-.4c-4.7,-.7,-8.6,-4.5,-9.4,-9.2l-.2,-1.9l-.1,-12.2c-.1,-4.7,3.3,-9.3,7.8,-10.8l1.9,-.5l2,-.1l15.6,-.7l37,-1.8l7.8,-.4l1.9,.1c5.4,.7,9.9,4.4,12.6,8.9l1,2l.9,1.9c3.2,10.2,7.8,4.8,16.7,5.2l1.9,.2l3.9,.6l5.8,.7l3.9,.4c6.1,1.1,10.7,6,10.8,12.3l-.2,11.6l-.1,2c-1.1,7.3,-7.2,11.1,-14.4,10.6l-9.7,.5l-1.9,-.1l-2,-.4l-1.9,-.7ZM207.3,610.9l-1.9,-.7l-2,-1.1l-1,-.8c-2.7,-2.4,-4.4,-6.1,-4.2,-9.7l.1,-2l.1,-1.9c.2,-4.5,.3,-9.1,.4,-13.6l.1,-1.9l.1,-2v-1.9c.9,-13.6,11.9,-11.7,22,-11.7h2.1l1.8,.3l1.9,.7l1.7,1c2.6,1.7,4.3,4.7,4.7,7.7l.1,2l.1,1.9c.1,4.6,.3,9.1,.5,13.6l.1,1.9l.1,2l.1,1.9l.1,2c.2,3.6,-1.3,7.2,-3.9,9.7l-1.6,1.3l-1.3,.6c-3.3,2.1,-8.5,1,-12.4,1.2l-3.9,-.1h-1.9l-2,-.4Z" class="ga_357"/>
<path d="M246.3,719.2l-1.2,-.3l-.8,-.2l-1.9,-.6l-2,-.6l-1.7,-.5c-8.1,-2.8,-15.3,-7,-23.4,-9.8h-.2l-1.9,-.7c-9.5,-3.1,-19.4,-4.9,-29.2,-6.3l-2,-.2l-1.9,-.3l-1.8,-.2h-.2C167,698,160,698.7,150.9,691l-1.3,-1.2l-.7,-.7c-7.7,-8.6,-7.9,-15.6,-8.2,-26.5l-.1,-1.9l-.1,-2v-3.9l.2,-1.9l.4,-1.9c1.6,-7.9,5.9,-14.5,11.7,-19.9l1.6,-1.5l.4,-.3c6.2,-5.5,14.2,-9.1,17.6,-17.1l.8,-2l.7,-1.9l.3,-1l.3,-1c3.3,-10.1,5.8,-18.4,7.3,-29.1l.2,-1.6l.1,-.3c1,-9.1,5.8,-17.3,13.6,-22.2l1.9,-1.1h.1l1.8,-.9l2,-.7l1.1,-.3l.8,-.3l2,-.4l1.9,-.3c9.8,-.1,20.5,-2,29.2,3.5l2,1.2l.2,.1c7.9,5.8,11.8,13.8,13.2,23.3l.2,1.2l.2,.8l.4,1.9l.5,1.9c2,9.1,5.6,16.7,8.9,25.3l.8,1.9l.9,1.9c3.4,7.4,8,13.9,13.9,19.5l1.7,1.5l.4,.4l1.5,1.4l.6,.5l1.4,1.2l.8,.8c6,5.2,11.9,10.6,16,17.4l.7,1.3l.4,.7c6.1,11.6,4.8,18.5,4.1,31l-.1,2l-.3,1.9l-.2,1.1l-.2,.9c-1.9,8.8,-7.6,16.2,-15.4,20.7l-1.2,.6l-.7,.4l-2,.9c-3.6,1.5,-7,2.1,-10.9,2.6l-.8,.1l-1.9,.3c-4.5,.5,-9,1.5,-13.6,1.4l-2,-.1l-1.9,-.1l-2,-.2l-1.9,-.3l-2,-.4l-1.9,-.4Z" class="gb_357"/>
<path d="M198.3,730.5l-.7,-.2l-1.9,-.7C178,722.9,158.9,722.3,143.8,711.1l-.7,-.5l-1.9,-1.4C124.7,695.5,120.5,679.5,119.9,658.7l-.2,-1.9v-.7M312.5,722l-.7,.8c-2.2,2.3,-4.6,4.5,-7.1,6.5l-1.7,1.2M119.7,651.9V651l.2,-2c1.8,-21.9,14.3,-38.7,26.1,-56.3l1,-1.5l.2,-.4l1.2,-1.9c5.2,-8.1,7.9,-16.3,12.2,-24.6l.4,-.7l1,-1.9c4.6,-8.1,10.6,-15.3,18.1,-20.8l.7,-.6l1.2,-.8l1.7,-1.1m67.5,0l.9,.6l2,1.3c13.4,9.5,20.7,22.7,28.1,36.9l1.1,1.9v.1c8.2,14.3,19.1,26.7,27.7,40.7l1.3,2l.2,.3M130.3,730.5l-.8,-.7c-3.4,-2.7,-6.7,-5.7,-9.6,-9l-.2,-.1m0,-140.5l.6,-1c7.7,-14,15.8,-27.7,26.7,-39.5l1.1,-1.3m141.4,0l1.6,1.6c7.6,7.9,14.3,16.6,20.6,25.6l.8,1.2" class="ga_357"/>
<path d="M119.7,730.5V538.4M312.5,730.5V538.4M119.7,730.5H312.5M119.7,538.4H312.5" class="gc_357"/>
<path d="M325.5,730.2H517.7V538.7H325.5Z" class="g2_357"/>
<path d="M465.3,699.5l1.9,.5l1.9,.2l2,-.2c6.1,-.6,11.1,-8.4,15.7,-12.3l1.9,-2c6.9,-5.9,5.9,-16.1,-2.1,-20.4l-1.9,-.8v-.1l-2,-.4l-1.9,-.2c-7.1,-.4,-12.1,6.6,-17.5,10.8l-1.6,1.5l-.3,.2c-7.5,5.6,-6.8,15.6,0,21.2l1.9,1.2l1.3,.6l.7,.2Z" class="g5_357"/>
<path d="M368.2,680l2,.9l1.9,.4l2,.2C389.6,679,405,676.1,420.6,674l2,-.3l1.9,-.2l2,-.3c6.1,-1.2,13.7,.2,18.4,-4.9l1,-1.2l.5,-.7c3.2,-5.6,1.9,-12.7,-2.5,-17.2l-.2,-.2L442,647.5l-.7,-.5l-1.3,-.7l-1.9,-.8l-1.5,-.4c-4.4,-1.3,-13.1,2,-17.9,2.8l-2,.5l-1.9,.4c-5.8,1.4,-11.6,2.9,-17.5,4.3l-1.9,.5l-1.9,.4l-2,.5l-1,.3c-6.1,1.4,-12.2,2.9,-18.4,4.3l-1.9,.5l-2,.9c-5.5,3.2,-7.4,10.4,-3.8,15.8l1.3,1.7l.6,.6l1.8,1.3l.1,.1Z" class="g5_357"/>
<path d="M412.9,610.6l1.9,.3l1.9,.1l2,-.4c8.3,-1.7,9.7,-12.5,13.6,-19.4l.1,-.2l.9,-2c3.5,-8.4,9.9,-15.6,.6,-23.2l-1.6,-.9l-2,-.7l-1.9,-.3h-1.9c-9.5,1.1,-11.1,12.6,-15.6,19.2l-.1,.1l-1,2c-4.4,8.5,-10.2,15.3,-.8,23.5l1.9,1.2l1.2,.4l.8,.3Z" class="g5_357"/>
<path d="M412.1,610.3l-1.2,-.4L409,608.7l-.5,-.3c-8.7,-8.3,-2.9,-14.9,1.3,-23.2l1,-2l.1,-.1c4.8,-7.1,6.6,-19.9,17.5,-19.2l1.9,.3l2,.7l1.6,.9l.3,.2c8.9,7.8,2.5,14.7,-.9,23l-.9,2l-.1,.2c-4.5,7.9,-5.3,18.9,-15.6,19.8l-1.9,-.1l-1.9,-.3l-.8,-.3Zm-44,69.6l-1.8,-1.3l-.6,-.6l-1.3,-1.7l-.2,-.2c-3.8,-6.3,-.8,-14.1,6,-16.5l1.9,-.5l1.9,-.5c5.9,-1.3,11.7,-2.7,17.5,-4.1l2,-.5l1.9,-.4l1.9,-.5l1.2,-.3c6.1,-1.5,12.2,-2.9,18.2,-4.4l2,-.5l1.9,-.5c5.6,-.9,11.9,-3.8,17.5,-1.9l1.9,.8l1.3,.7l.7,.5l1.7,1.5l.2,.2l1.5,1.7c3.3,4.7,3.8,11.5,.5,16.2l-1,1.2l-1,.9c-4.3,4,-13.6,3,-19.4,4.3l-1.9,.2l-2,.3l-1,.1l-.9,.2c-7.1,1,-14.2,2.1,-21.4,3.3l-1.9,.3l-.5,.1c-6.9,1.1,-14,2.5,-20.8,3.5l-2,-.2l-1.9,-.4l-2,-.9l-.1,-.1Zm96.5,19.4l-1.3,-.6l-1.9,-1.2l-.2,-.2c-6.7,-5.6,-7.3,-15.4,.2,-21l.3,-.2l1.6,-1.5c5.8,-4.5,11.1,-12.3,19.4,-10.6l2,.5l1.9,.8l1.7,1.1c6.6,5,6.6,14,.4,19.3l-1.9,2c-5.3,4.6,-10.2,12.8,-17.7,12.5l-1.9,-.2l-1.9,-.5l-.7,-.2Zm-9,17.4l1.9,.5l1.9,.4l2,.3l1.9,.2l2,.1c8.9,.2,17.8,-3,24.3,-9.3l.9,-.8l1.1,-1.1c5.4,-5.9,13,-12,16.1,-19.3l.3,-.7l.5,-1.3l.7,-1.9c5.7,-21.5,-8.1,-36.3,-24.5,-47.4l-1.3,-1l-.7,-.4l-1.9,-1.5h-.1l-1.9,-1.4c-6,-4.6,-12.1,-9.9,-16.7,-16l-.7,-1l-.7,-.9c-6.9,-11,-4.7,-19.1,-3.6,-31l.1,-1.9l-.1,-1.9l-.1,-2C455,555,431.6,541.2,412.3,554.2l-1.4,1l-1.1,.9l-.8,.8l-1.2,1.2l-.8,.9l-.8,1l-1.1,1.6c-4,6.5,-7.9,13.2,-12,19.7l-1.2,1.9l-.4,.6c-5.8,8.4,-7.3,16.4,-7.8,26.5l-.1,1.9l-.1,2l-.2,1.9c-1.6,24.7,-25.4,18.7,-34.5,42.3l-.1,.2l-.6,2l-.5,1.9l-.4,2l-.2,1.9c-.8,8.3,1.9,16.4,7.6,22.5l.7,.7l1.3,1.2c8.2,7,16.6,8.2,27.2,7.1l1.9,-.1l1.9,-.1l2,-.1h1.9c10.6,-.3,22,0,32.1,3.6l.9,.3l2,.8c8.1,3.4,15.1,9,23.2,12.3l.3,.1l1.7,.7l1.9,.7l1.9,.6h.1Z" class="g6_357"/>
<path d="M455.5,716.7l-1.9,-.6l-1.9,-.7l-1.7,-.7l-.3,-.1l-1.9,-.8c-7.4,-3.4,-13.9,-8.4,-21.3,-11.5l-2,-.8l-.9,-.3c-10.1,-3.6,-21.5,-3.9,-32.1,-3.6h-1.9l-2,.1l-1.9,.1l-1.9,.1c-10.1,1,-18.2,.1,-26.3,-6.4l-.9,-.7l-1.3,-1.2c-6.2,-6.2,-9.1,-14.5,-8.3,-23.2l.2,-2l.4,-1.9l.5,-1.9l.6,-2l.1,-.2c9.1,-23.6,32.9,-17.6,34.5,-42.3l.2,-1.9l.1,-2l.1,-1.9c.5,-10.1,2,-18.1,7.8,-26.5l.4,-.6l1.2,-1.9c4.5,-6.9,8.6,-14.5,13.1,-21.3l.8,-1l.8,-.9l1.2,-1.2l.8,-.8l1.1,-.9l1.4,-1l.6,-.4c19.4,-12.3,42.1,1.6,44.1,23.6l.1,1.9l.1,2l-.1,1.9c-.9,10.9,-3.2,18.6,2.5,29l1.1,2l.7,.9c4.7,6.7,11,12,17.4,17l1.9,1.4h.1l1.9,1.5l.7,.4l1.3,1c16.4,11.1,30.2,25.9,24.5,47.4l-.7,1.9L508,687l-.3,.7C504.6,695,497,701.1,491.6,707l-1.1,1.1l-.9,.8c-7,6.8,-16.6,9.9,-26.3,9.1l-1.9,-.1l-2,-.3l-1.9,-.4l-1.9,-.5h-.1ZM409,728.4l1.9,.6l2,.5l1.9,.6l.3,.1h81.2l2,-1.3c6.6,-5,12.8,-12.1,18.5,-18l.9,-1V626.7l-.6,-.9c-9.1,-14.4,-19,-27.2,-26.7,-42.6l-1.9,-3.6c-7.5,-15,-15.1,-29.1,-29.2,-38.9l-1.8,-1.2l-1.2,-.8H402.1l-.9,.6l-1.9,1.4c-7.8,5.6,-11.9,11.6,-17.2,19.3l-.3,.4l-1.1,1.5c-5.1,7.3,-11,14,-15.9,21.3l-.4,.8l-.8,1.2l-1.2,1.8c-9.4,16.9,-20.5,33,-29.1,50.4l-.9,1.9l-.8,1.9l-.2,.7l-.5,1.3c-8.3,21.8,-5,45.1,11.8,61.9l.3,.3l1.7,1.6c20,17.4,37.1,14.3,60.4,20.4l1.9,.5l1.4,.4l.6,.1Z" class="g7_357"/>
<path d="M335.2,729.5l.9,.7h79l-.3,-.1l-1.9,-.6l-2,-.5C388.2,721.6,369,725.3,348.8,710.4L347,708.9h-.1C328.3,693.7,322.4,670.2,329.4,647.4l.1,-.4l.7,-1.9l.7,-1.9l.5,-1.3c7.7,-18.3,19.7,-34.3,29.1,-51.7l.7,-1.2l1.2,-1.9V587c4.6,-7.7,10.3,-14.1,15.5,-21.3l1.4,-1.8l.6,-.9c5.7,-7.7,9.7,-14.8,17.4,-20.8l2,-1.5l1.9,-1.4l.9,-.6H368.7c-14,17.5,-30.8,32.8,-42.2,52.3l-1,1.5V720.4c2.6,2.8,5.3,5.4,8.2,7.9l1.5,1.2Z" class="g8_357"/>
<path d="M498.3,730.2h19.4V709.9l-.9,1c-5.7,5.9,-11.9,13,-18.5,18l-2,1.3h2Z" class="g8_357"/>
<path d="M517.7,626.7V567l-.9,-1.2c-6.2,-9,-12.9,-17.6,-20.5,-25.5l-1.6,-1.6H456.3l1.2,.8l1.8,1.2c14,9.8,21.6,23.8,29.1,38.7l.1,.2l.9,1.7c7.6,15.5,17.1,28.3,26.5,42.5l1.2,2l.6,.9Z" class="g8_357"/>
<path d="M327.5,730.2h8.6l-.9,-.7c-3.3,-2.7,-6.5,-5.7,-9.5,-9l-.2,-.1v9.8h2Z" class="g9_357"/>
<path d="M326.5,591l1,-1.6c11.1,-18.6,27.3,-33.3,40.7,-50.1l.5,-.6H333.9l-.6,.7c-2.2,2.4,-4.4,4.7,-6.6,7.1l-1.2,1.3v44.7l1,-1.5Z" class="g9_357"/>
<path d="M517.7,567V538.7h-23l1.6,1.6c7.6,7.9,14.3,16.6,20.5,25.5l.9,1.2Z" class="g9_357"/>
<path d="M326.7,546.5l.8,-.8c1.9,-2.1,3.9,-4.2,5.8,-6.3l.6,-.7h-8.4v9.1l1.2,-1.3Z" class="gd_357"/>
<path d="M465.3,699.5l-.7,-.2l-1.3,-.6l-1.9,-1.2c-6,-4.6,-7.5,-14.1,-1.8,-19.5l1.8,-1.7l.3,-.2c5.4,-4.3,12,-13,19.1,-12.3l1.9,.2l2,.4v.1l1.9,.8c6.9,3.7,8.9,12.4,3.9,18.5l-1.8,1.9l-.1,.2c-4.9,4.1,-11.1,13.5,-17.5,14.1l-2,.2l-1.9,-.2l-1.9,-.5ZM368.2,680l-.1,-.1l-1.8,-1.3l-.6,-.6l-1.3,-1.7c-3.6,-5.4,-1.7,-12.6,3.8,-15.8l2,-.9l1.9,-.5c6.2,-1.4,12.3,-2.9,18.4,-4.3l1,-.3l2,-.5l1.9,-.4l1.9,-.5c5.9,-1.4,11.7,-2.9,17.5,-4.3l1.9,-.4l2,-.5c4.8,-.8,13.5,-4.1,17.9,-2.8l1.5,.4l1.9,.8l1.3,.7l.7,.5l1.7,1.5l.2,.2c4.4,4.5,5.7,11.6,2.5,17.2l-.5,.7l-1,1.2c-4.7,5.1,-12.3,3.7,-18.4,4.9l-2,.3l-1.9,.2l-2,.3c-15.6,2.1,-31,5,-46.5,7.5l-2,-.2l-1.9,-.4l-2,-.9Zm44.7,-69.4l-.8,-.3l-1.2,-.4L409,608.7c-8.7,-7.5,-4.4,-14.1,0,-22l.8,-1.5l1,-2c4.6,-6.6,6.1,-18.1,15.7,-19.3h1.9l1.9,.3l2,.7l1.6,.9c8.5,7,3.9,13.5,.3,21.3l-.9,1.9l-.9,2c-4,6.9,-5.4,17.9,-13.7,19.7l-2,.3h-1.9l-1.9,-.4Z" class="ga_357"/>
<path d="M455.6,716.7h-.1l-1.9,-.6l-1.9,-.7l-1.7,-.7l-.3,-.1c-7.5,-3.1,-14,-8.1,-21.4,-11.5l-1.8,-.8l-2,-.8c-9.8,-3.7,-20.7,-4.1,-31,-4l-2,.1h-1.9l-2,.1l-1.9,.1c-10.7,.9,-18,1,-27.2,-5.4l-1,-.9l-.9,-.7c-6.7,-5.9,-10.3,-14.5,-9.7,-23.4l.1,-1l.2,-2l.4,-1.9l.5,-1.9l.6,-2l.1,-.2c3,-7.8,8.6,-13.6,15.6,-18l1.7,-1.1l.2,-.1c8,-4.4,15,-9.6,16.6,-19.2l.2,-2l.2,-1.9l.2,-1.9l.1,-2c.4,-9.9,1.5,-18.6,7.1,-27l.8,-1.4l.4,-.6c4.6,-7.1,8.8,-14.4,13.2,-21.6l1.1,-1.6l.8,-1l.8,-.9l1.2,-1.2l.8,-.8l1.1,-.9l1.4,-1c18.5,-12.6,41.3,-.1,44.4,21.3l.3,1.9l.1,1.9l.1,2c-.4,11.6,-3.8,19.2,2.2,30.7l.2,.2l1.1,2c4.6,6.8,11,12.3,17.5,17.4l.6,.5l1.9,1.4h.1l1.9,1.5l.7,.4c16.2,11.1,30.6,24.8,26.3,46.5l-.5,1.9l-.7,1.9L508,687c-3,7.6,-10.1,13.2,-15.6,19.1l-.8,.9l-1.1,1.1c-6.6,6.8,-15.7,10.3,-25.2,10l-2,-.1l-1.9,-.1l-2,-.3l-1.9,-.4l-1.9,-.5Z" class="gb_357"/>
<path d="M415.1,730.2L410.9,729l-5.8,-1.6L399.3,726c-17.9,-3.8,-30.8,-3,-46.9,-13.2l-2.9,-1.9l-.7,-.5c-8.5,-6.3,-15,-14.8,-18.7,-24.7l-1.3,-3.8l-1,-3.9l-.7,-3.9l-.4,-3.8c-1,-13.8,3,-26.7,9.4,-38.7l2.1,-3.9l2.9,-4.8l11.1,-18.4L362.4,587l2.4,-3.8l2.7,-3.8l3,-3.9l4.4,-5.8l5,-6.7l9.2,-12.7l2.4,-2.7l2,-2l1.9,-1.8l1.9,-1.6l2,-1.5l2.8,-2M517.7,709.9l-.9,1c-5.7,5.9,-11.9,13,-18.5,18l-2,1.3m-40,-191.5l1.2,.8l1.8,1.2c14,9.8,21.6,23.8,29.1,38.7l.2,.2l.8,1.7c7.6,15.5,17.1,28.3,26.5,42.5l1.2,2l.6,.9M336.1,730.2l-.9,-.7c-3.3,-2.7,-6.5,-5.7,-9.5,-9l-.2,-.1m0,-127.9l1,-1.5c11.2,-19.3,27.9,-34.4,41.7,-51.7l.5,-.6m126,0l1.6,1.6c7.6,7.9,14.3,16.5,20.5,25.5l.9,1.2M325.5,547.8l1.2,-1.3c2.2,-2.4,4.4,-4.7,6.6,-7.1l.6,-.7" class="ga_357"/>
<path d="M325.5,730.2V538.7M517.7,730.2V538.7M325.5,730.2H517.7M325.5,538.7H517.7" class="gc_357"/>
<path d="M531.6,729.9H723.1V539.1H531.6Z" class="g2_357"/>
<path d="M622.5,598.6l1.9,.1h5.8l2,-.1l1.1,-1.7c-.1,-7,.3,-14.4,-.1,-21.2l-1,-.9h-9.7l-1,.9l-.2,1.9v19.3l1.2,1.7Z" class="g4_357"/>
<path d="M676.6,693.4l2,.5l1.9,.2c14,-.3,17.2,-18.6,4.4,-24l-.5,-.2l-2,-.6C667,666.9,661.8,685,674.7,692.6l1.6,.7l.3,.1Z" class="g5_357"/>
<path d="M574.1,679.8l2,.8l1.9,.5l1.9,.1c15.5,-2.4,30.9,-5.4,46.5,-7.6l1.9,-.3l1.9,-.2l2,-.3c6,-1.2,13.1,-.1,17.9,-4.6l1.4,-1.5l.4,-.4c3.7,-5.3,2.3,-12.9,-2.1,-17.4l-.2,-.2l-2,-1.7l-1.9,-1.1l-1.9,-.8h-.2c-5.8,-1.9,-13.3,1.9,-19.2,2.8l-1.9,.5l-1.9,.5c-5.8,1.4,-11.6,2.8,-17.4,4.2l-2,.5l-1.9,.5l-2,.4l-.7,.2c-6.2,1.5,-12.4,3,-18.6,4.3l-1.9,.6l-2,.8c-5.4,3.2,-7.3,10.3,-3.8,15.7l1.4,1.7l.5,.6l1.9,1.4Z" class="g5_357"/>
<path d="M621.3,596.9V577.6l.2,-1.9l1,-.9h9.7l1,.9c.4,6.8,0,14.2,.1,21.2l-1.1,1.7l-2,.1h-5.8l-1.9,-.1l-1.2,-1.7Zm-2.7,13.8l2,.3l1.9,.1l1.9,.1h2c3.5,-.1,8.4,.8,11.6,-.7l.2,-.1l1.7,-.9c2.9,-2,4.9,-5.2,5.3,-8.8l.1,-1.9l-.1,-1.9l-.1,-1.9l-.1,-2c-.2,-4.5,-.4,-9,-.5,-13.5l-.1,-1.9v-1.9c.1,-3.7,-1.5,-7.2,-4.5,-9.4l-.4,-.3l-1.5,-.9l-2,-.6l-1.9,-.3l-1.9,-.1c-10,.1,-20.9,-1.8,-21.7,11.6l-.1,1.9v1.9l-.1,2c-.1,4.5,-.2,9,-.4,13.5v1.9l-.1,1.9c-.1,3.6,1.7,7.4,4.5,9.6l.5,.4l1.9,1.2l1.2,.4l.7,.3Z" class="g5_357"/>
<path d="M617.9,610.4l-1.2,-.4l-1.9,-1.2l-.5,-.4l-1.5,-1.3c-1.9,-2.3,-3.1,-5.3,-3,-8.3l.1,-1.9V595c.2,-4.5,.3,-9,.4,-13.5l.1,-2v-1.9l.1,-1.9c.9,-14.4,13.4,-11.2,23.6,-11.5l1.9,.3l2,.6l1.5,.9l.4,.3l1.8,1.7c1.8,2.1,2.7,4.9,2.7,7.7v1.9l.1,1.9c.1,4.5,.3,9,.5,13.5l.1,2l.1,1.9l.1,1.9l-.1,1.9c-.4,3.6,-2.4,6.8,-5.3,8.8l-1.7,.9l-.2,.1c-3.3,1.6,-9.7,.5,-13.6,.7l-1.9,-.1l-1.9,-.1l-2,-.3l-.7,-.3Zm-43.8,69.4l-1.9,-1.4l-.5,-.6l-1.4,-1.7l-.2,-.2c-3.7,-6.2,-.7,-14,6,-16.3L578,659l1.9,-.4c5.9,-1.3,11.7,-2.7,17.4,-4.1l2,-.4l1.9,-.5l2,-.5l1.4,-.3c6,-1.5,11.9,-2.9,17.9,-4.4l1.9,-.5l2,-.5c5.6,-.9,11.7,-4.2,17.4,-2.3l1.9,.8l1.9,1.1l2,1.7l.2,.2l1.6,2c3.2,4.5,3.8,11.3,.1,15.8l-1.4,1.5l-.5,.5c-4.6,4,-13.2,3,-19.4,4.4l-1.9,.2l-1.9,.3l-2,.3l-.7,.1c-6.8,1.1,-13.7,2.1,-20.5,3.3l-2,.3l-1.2,.2c-6.6,1.1,-13.4,2.5,-20.1,3.4l-1.9,-.1l-1.9,-.5l-2,-.8Zm102.2,13.5l-1.6,-.7l-1.9,-1.3c-11.7,-9.7,-2.9,-26,11.6,-21.4l.5,.2l1.4,.7c12.3,7.1,6.4,25,-7.7,23.1l-2,-.5l-.3,-.1Zm-1.6,19.3h3.9l.4,-.1l1.5,-.1c21.7,-2.2,35.1,-22.3,29,-43.3l-.2,-.9l-.7,-1.9c-6,-16.6,-21.6,-27.1,-30.4,-42.4l-1.1,-2l-.5,-.7L676,620l-.9,-1.9l-.4,-.8C671.4,609.6,668.9,601,666,593l-.5,-1.9l-.5,-1.5c-2.7,-8.4,-2.4,-17.7,-6.9,-25.5l-.8,-1.2l-.4,-.7l-1.4,-1.9l-.1,-.1c-5.7,-7.1,-14.2,-11,-23.2,-10.6l-3.9,.1c-10.4,-.1,-17.1,.3,-25.1,7.6l-1,1l-1,1.1l-.7,.9l-1.2,1.7l-.2,.2l-1.1,1.9l-.7,1.3l-.3,.6c-3.4,7.9,-3,20,-5.3,29l-.2,.9l-.2,1c-2.7,9.4,-.4,19.7,-4.1,28.9l-1,1.9l-.5,.7l-.8,1.3l-1.1,1.2c-5.6,6.5,-13.1,8.4,-19.3,14.1l-.2,.1l-1.8,1.7c-6.1,6.2,-9.8,14.5,-9.5,23.3l.2,2l.2,1.9l.5,1.9l.5,1.9l.4,1.1l.3,.9c3.1,7.6,9.4,13.4,17.1,16.1l1.9,.6l2,.4c8.2,1.6,20,-.9,29,-.7h7.7c9.7,.1,18.6,1.2,27.6,4.8l1.4,.5l2,.8c7.6,3.5,14.8,7.4,23.2,9.2l1.9,.4l1.9,.3l2,.2l1.5,.1l.4,.1Z" class="g6_357"/>
<path d="M674.3,712.5l-1.5,-.1l-2,-.2l-1.9,-.3l-1.9,-.4l-2,-.5c-8.3,-2.1,-15.4,-6.2,-23.2,-9.5l-1.4,-.5l-.5,-.2c-9.5,-3.7,-18.9,-4.6,-29,-4.6h-5.8l-1.9,.1c-9.1,-.2,-20.8,2.6,-29.1,.2l-1.9,-.6l-1.7,-.7c-7.2,-3,-13.1,-9,-15.7,-16.3l-.4,-1.1l-.5,-1.9l-.5,-1.9l-.2,-1.9l-.2,-2v-1.9c.2,-9,4.7,-17.3,11.3,-23.1l.2,-.1l1.9,-1.7c6.4,-4.9,13.2,-6.8,18.5,-13.6l.8,-1.3l.5,-.7l1,-1.9l.5,-1.2c2.9,-8.9,1,-18.9,3.8,-28.7l.2,-.9l.4,-2c2.1,-8.6,1.5,-20.2,5.2,-27.6l.7,-1.3l1.1,-1.9l.2,-.2l1.2,-1.7l.7,-.9l1,-1.1l1,-1l1,-.9c8.8,-7.2,15.3,-6.6,26,-6.8h3.9c8.3,.1,16.3,4.2,21.4,10.7l1.4,1.9l.4,.7l.8,1.2l1,1.9c3.6,7.9,3.5,16.9,6.4,25.1l.5,1.9l.7,2c2.9,7.6,4.9,15.6,8.4,23.1l.9,1.9l.6,1.2l.5,.7l1.1,2l.4,.6c9.1,15.6,25.3,26.2,30.7,43.7l.2,.9l.3,1c5.5,21.4,-8.8,41.1,-30.8,42.4l-.4,.1h-3.9l-.4,-.1Zm-44.1,15.8l2,.5l3.8,1.1h62.7l1.2,-.5l1.9,-1l.8,-.4l1.1,-.7l2,-1.1l.2,-.2l1.7,-1.1l1.1,-.8l.8,-.6l1.8,-1.3c3.6,-3,7,-6.3,9.8,-10l1.2,-1.6l.8,-1.1V632.2l-.4,-.6l-.9,-1.9l-.7,-1.4C714.8,616.1,707.5,604.6,700,593l-.1,-.2l-1.1,-1.7C690.9,579,687,565.9,678,554.5l-1.4,-1.8l-.1,-.1l-1.7,-2l-.1,-.1l-1.6,-1.8c-3.6,-3.7,-7.6,-7,-12,-9.6H597.3c-5.1,3.1,-9.7,7.1,-13.5,11.8l-1.3,1.7l-.6,.9l-.7,1c-9.2,12.8,-9.9,26.7,-17.5,40.5l-1,1.9l-.2,.3l-.9,1.6l-1,1.8l-.1,.1c-16.1,28.8,-37.8,53.6,-22.2,88.7l1,1.9v.1l1.1,1.9c7.1,12,18.5,20.4,31.8,24.6l1.5,.4l.4,.2l2,.5c7.7,2,15.3,2.1,23.2,3.1l.7,.1l1.2,.1c7.2,1,14.3,2.3,21.3,4l1.9,.5l2,.5l1.9,.5l.7,.2l1.2,.3Z" class="g7_357"/>
<path d="M543.2,729.1l1.1,.8h91.8H636l-3.8,-1.1l-2,-.5c-9.9,-2.7,-20,-4.9,-30.2,-6.1l-.7,-.1l-2,-.2c-12.1,-1.1,-21.6,-1.8,-32.8,-7l-.9,-.4l-1.1,-.6l-1.9,-1C540.9,701.8,530.7,681,533.5,658.6V658l.2,-1.4l.4,-1.9l.3,-1.9c4.4,-20.1,18.7,-37.4,28.1,-55.6l.2,-.3l1,-1.9l.8,-1.5c4.8,-9.2,6.6,-18.1,10.3,-27.5l.9,-1.9l.4,-.8c4,-8.4,9.8,-16,17.4,-21.6l.9,-.7l1,-.7l1.9,-1.2h.1H564.5c-14.7,15.9,-21.5,33.5,-31.9,52l-1,1.9V718.5l1.7,1.7c2.6,2.8,5.5,5.4,8.5,7.8l1.4,1.1Z" class="g8_357"/>
<path d="M699.9,729.9h23.2V709.5l-.8,1.1c-5.8,8.1,-13.5,14.4,-22.4,18.8l-1.2,.5h1.2Z" class="g8_357"/>
<path d="M723.1,632.2V571.7L722,569.9c-6.5,-10.4,-13.7,-20.5,-22.1,-29.4l-1.5,-1.4H661.1h.1l1.9,1.2c15.8,10.7,22.1,24.7,30.1,41.2l.9,1.5l.2,.4c8.9,15.7,19.5,29.8,27.5,46.3l.9,1.9l.4,.6Z" class="g8_357"/>
<path d="M533.5,729.9h10.8l-1.1,-.8c-3.5,-2.7,-6.9,-5.7,-9.9,-8.9l-1.7,-1.7v11.4h1.9Z" class="g9_357"/>
<path d="M532.6,591.1l.9,-1.6c10,-18,16.7,-34.9,31,-50.4H531.6V593l1,-1.9Z" class="g9_357"/>
<path d="M723.1,571.7V539.1H698.4l1.5,1.4c8.4,8.9,15.6,19,22.1,29.4l1.1,1.8Z" class="g9_357"/>
<path d="M622.5,598.6l-1.2,-1.7V577.6l.2,-1.9l1,-.9h9.7l1,.9c.4,6.8,0,14.2,.1,21.2l-1.1,1.7l-2,.1h-5.8l-1.9,-.1Zm54.1,94.8l-.3,-.1l-1.6,-.7C661.8,685,667,666.9,682.4,669.3l2,.6l.5,.2c12.8,5.4,9.6,23.7,-4.4,24l-1.9,-.2l-2,-.5ZM574.1,679.8l-1.9,-1.4l-.5,-.6l-1.4,-1.7c-3.5,-5.4,-1.6,-12.5,3.8,-15.7l2,-.8L578,659c6.2,-1.3,12.4,-2.8,18.6,-4.3l.7,-.2l2,-.4l1.9,-.5l2,-.5c5.8,-1.4,11.6,-2.8,17.4,-4.2l1.9,-.5l1.9,-.5c5.9,-.9,13.4,-4.7,19.2,-2.8h.2l1.9,.8l1.9,1.1l2,1.7l.2,.2c4.4,4.5,5.8,12.1,2.1,17.4l-.4,.4l-1.4,1.5c-4.8,4.5,-11.9,3.4,-17.9,4.6l-2,.3l-1.9,.2l-1.9,.3c-15.6,2.2,-31,5.2,-46.5,7.6l-1.9,-.1l-1.9,-.5l-2,-.8Zm44.5,-69.1l-.7,-.3l-1.2,-.4l-1.9,-1.2l-.5,-.3c-2.3,-1.8,-4,-4.8,-4.4,-7.8l-.1,-1.9l.1,-1.9c.1,-4.5,.3,-9,.4,-13.5v-1.9l.1,-2v-1.9l.1,-1.9c-.1,-3.6,1.4,-7.1,4.3,-9.3l.5,-.4l1.4,-.8c3.2,-1.7,9.7,-.8,13.5,-1.1h2l1.9,.1l1.9,.3l2,.6l1.5,.9l.4,.3c2.5,1.9,3.9,4.4,4.4,7.5l.1,1.9v1.9c.2,4.5,.3,9,.5,13.5l.1,1.9l.1,2l.1,1.9l.1,1.9c.2,3.6,-1.4,7.3,-4.1,9.7l-1.3,1l-1.7,.9c-3.2,1.7,-8.2,.7,-11.8,.8h-2l-1.9,-.1l-1.9,-.1l-2,-.3Z" class="ga_357"/>
<path d="M674.7,712.6l-.4,-.1l-1.5,-.1l-2,-.2l-1.9,-.3l-1.9,-.4c-8.4,-1.8,-15.6,-5.7,-23.2,-9.2l-2,-.8l-1.4,-.5c-9,-3.6,-17.9,-4.7,-27.6,-4.8h-7.7c-9,-.2,-20.8,2.3,-29,.7l-2,-.4l-1.9,-.6c-7.8,-2.7,-14,-8.5,-17.1,-16.1l-.3,-.9l-.4,-1.1l-.5,-1.9l-.5,-1.9l-.2,-1.9l-.2,-2c-.3,-8.8,3.4,-17.1,9.5,-23.3l1.8,-1.7l.2,-.1c6.2,-5.7,13.7,-7.6,19.3,-14.1l1.1,-1.2l.8,-1.3l.5,-.7l1,-1.9c3.7,-9.2,1.4,-19.5,4.1,-28.9l.2,-1l.2,-.9c2.3,-9,1.9,-21.1,5.3,-29l.3,-.6l.7,-1.3l1.1,-1.9l.2,-.2l1.2,-1.7l.7,-.9l1,-1.1l1,-1c8,-7.3,14.7,-7.7,25.1,-7.6l3.9,-.1c9,-.4,17.5,3.5,23.2,10.6l.1,.1l1.4,1.9l.4,.7l.8,1.2c4.5,7.8,4.2,17.1,6.9,25.5l.5,1.5l.5,1.9c2.9,8,5.4,16.6,8.7,24.3l.4,.8l.9,1.9l.6,1.2l.5,.7l1.1,2c8.8,15.3,24.4,25.8,30.4,42.4l.7,1.9l.2,.9c6.1,21,-7.3,41.1,-29,43.3l-1.5,.1l-.4,.1h-3.9Z" class="gb_357"/>
<path d="M636.1,729.9l-9.7,-2.6l-5.8,-1.5l-5.8,-1.2c-20.7,-4.8,-37.4,-1.3,-56.1,-12.9l-2,-1.2l-2.5,-1.8c-9,-6.8,-15.6,-16.2,-18.9,-27l-1,-3.9l-.7,-3.8l-.4,-3.9l-.2,-3.8c-.2,-25.8,15.9,-44,27.6,-65.7l3.1,-5.6l1.9,-3.9l1.7,-3.9c3.8,-8.8,5.6,-18.5,10.3,-26.9l2.3,-3.9l2,-2.9c2.2,-3.2,4.8,-6.1,7.7,-8.7l2.3,-1.9l2.5,-1.9l1,-.7l2,-1.2M723.1,709.5l-.8,1.1c-5.8,8.1,-13.5,14.4,-22.4,18.8l-1.2,.5M661.1,539.1h.1l1.9,1.2c15.8,10.7,22.1,24.7,30.1,41.2l.9,1.5l.2,.4c8.9,15.7,19.5,29.8,27.5,46.3l.9,1.9l.4,.6M544.3,729.9l-1.1,-.8c-3.5,-2.7,-6.9,-5.7,-9.9,-8.9l-1.7,-1.7m0,-125.5l1,-1.9c10.4,-18.5,17.1,-36.1,31.9,-52m133.9,0l1.5,1.4c8.4,8.9,15.6,19,22.1,29.4l1.1,1.8" class="ga_357"/>
<path d="M531.6,729.9V539.1M723.1,729.9V539.1M531.6,729.9H723.1M531.6,539.1H723.1" class="gc_357"/>
</svg>