<?xml version="1.0" encoding="UTF-8" standalone="no"?>
<!DOCTYPE svg PUBLIC "-//W3C//DTD SVG 1.1//EN"
"http://www.w3.org/Graphics/SVG/1.1/DTD/svg11.dtd">
<svg viewBox="0 0 811 1017" version="1.1" xmlns="http://www.w3.org/2000/svg" xmlns:xlink="http://www.w3.org/1999/xlink">
<defs>
<style type="text/css"><![CDATA[
.g0_373{
fill: #CAE3F1;
}
.g1_373{
fill: #C5E1F1;
}
.g2_373{
fill: #D52027;
}
.g3_373{
fill: #69A4D7;
}
]]></style>
</defs>
<path d="M277.3,401.6l-119,-81.8l119,-81.7V401.6Z" class="g0_373"/>
<path d="M277.3,401.6l.4,-.6L159.6,319.8l117,-80.3V401.6h.7l.4,-.6l-.4,.6h.7V236.7L157,319.8L278,403v-1.4h-.7Z" class="g1_373"/>
<path d="M296.6,400.1V236.6l119,81.8l-119,81.7Z" class="g0_373"/>
<path d="M296.6,236.6l-.5,.6l118.2,81.2l-117,80.4V236.6h-.7l-.5,.6l.5,-.6h-.8V401.5l121,-83.1l-121,-83.2v1.4h.8Z" class="g1_373"/>
<path fill-rule="evenodd" d="M288.2,232.8c0,-1.6,1.3,-2.8,2.8,-2.8c1.5,0,2.7,1.2,2.7,2.8c0,1.5,-1.2,2.7,-2.7,2.7c-1.5,0,-2.8,-1.2,-2.8,-2.7Z" class="g2_373"/>
<path d="M288.2,232.8c0,-1.6,1.3,-2.8,2.8,-2.8c1.5,0,2.7,1.2,2.7,2.8c0,1.5,-1.2,2.7,-2.7,2.7c-1.5,0,-2.8,-1.2,-2.8,-2.7Z" class="g2_373"/>
<path d="M288.2,232.8h.8c0,-1.1,.9,-2.1,2,-2.1c1.1,0,2,1,2,2.1c0,1.1,-.9,2,-2,2c-1.1,0,-2,-.9,-2,-2h-1.5c0,1.9,1.6,3.4,3.5,3.4c1.9,0,3.5,-1.5,3.5,-3.4c0,-2,-1.6,-3.5,-3.5,-3.5c-1.9,0,-3.5,1.5,-3.5,3.5h.7Z" class="g2_373"/>
<path d="M290.3,396h1.4V230.5h-1.4Z" class="g2_373"/>
<path d="M294.8,393.4L291,407.7l-3.8,-14.3h7.6Z" class="g2_373"/>
<path d="M282.7,407.7H284V242.5h-1.3Z" class="g3_373"/>
<path d="M287.2,245.2l-3.8,-14.4l-3.9,14.4h7.7Z" class="g3_373"/>
<path d="M296.9,406.7L410.6,330l-.8,-1.1L296.1,405.6l.8,1.1Z" class="g3_373"/>
<path d="M410.2,334.1l9.7,-11.2l-14,4.8l4.3,6.4Z" class="g3_373"/>
<path d="M419.9,314L306.5,235.4l-.7,1.1L419.1,315l.8,-1Z" class="g3_373"/>
<path d="M310.5,234.3l-14,-5l9.6,11.3l4.4,-6.3Z" class="g3_373"/>
</svg>