<?xml version="1.0" encoding="UTF-8" standalone="no"?>
<!DOCTYPE svg PUBLIC "-//W3C//DTD SVG 1.1//EN"
"http://www.w3.org/Graphics/SVG/1.1/DTD/svg11.dtd">
<svg viewBox="0 0 811 1017" version="1.1" xmlns="http://www.w3.org/2000/svg" xmlns:xlink="http://www.w3.org/1999/xlink">
<defs>
<clipPath id="c0"><path d="M619.5,1017.5V0H811.3V1017.5Z"/></clipPath>
<clipPath id="c1"><path d="M40,969.4V920.5h64.4v48.9Z"/></clipPath>
<clipPath id="c2"><path d="M550.8,959.7V903.9H735v55.8Z"/></clipPath>
<style type="text/css"><![CDATA[
.g0{
fill: #FFF;
}
.g1{
fill: none;
stroke: #F5F2E4;
stroke-width: 9.776;
stroke-linecap: round;
stroke-miterlimit: 3;
}
.g2{
fill: #BF902C;
}
]]></style>
</defs>
<g clip-path="url(#c0)">
<image clip-path="url(#c0)" preserveAspectRatio="none" x="618" y="-1" width="195" height="1020" xlink:href="img/1.jpg"/>
</g>
<path d="M539.8,965.6H742.7V874.5H539.8v91.1Z" class="g0"/>
<image clip-path="url(#c2)" preserveAspectRatio="none" x="551" y="904" width="184" height="56" xlink:href="img/2.jpg"/>
<g clip-path="url(#c1)">
<image clip-path="url(#c1)" preserveAspectRatio="none" x="40" y="921" width="66" height="50" xlink:href="img/3.png"/>
</g>
<image x="491" y="43" width="252" height="698" xlink:href="shade/1.png"/>
<path d="M544.7,733.9c.2,-3.6,3.8,-7.7,6.4,-10c4.8,-4.3,10.6,-7.3,17.5,-9.2c5.4,-1.5,12,-3.1,17.5,-2.9c2.4,.1,13,.4,14.9,1.8c2.1,1.5,-3.8,3.6,-5,4.5c-4.6,3,-10.3,5.5,-14.9,8.8c-8.7,6.1,-20.3,13.4,-25.4,22.3c-2.4,4.3,-4.9,8.8,-6.7,13.3c-.8,2,-.5,7.5,.3,9.3c1.5,2.9,7.8,.3,9.7,-1.4c10,-8.5,14.6,-11.7,26.9,-17c5.1,-2.3,13,-5.5,26.5,-5c4.1,.1,8.9,1,12.7,2.6c8.4,3,-4.6,9.3,-7.6,10.7c-4.5,2.2,-24.1,14.1,-28.8,17.6c-7.1,5.3,-25.2,17.6,-20.4,23.5c3.7,4.7,26.5,-6.9,29.2,-7.8c7.9,-2.9,15.9,-4,25,-3.7c7.5,.1,14,.2,21.1,2.3c2,.7,18.2,3.7,13.8,6.3c-2.7,1.8,-21.1,6.8,-25.5,8.1c-11.3,3.5,-16.5,6,-22.7,11.1c-11,9.1,-16.4,16.7,-17.8,30.5" class="g1"/>
<path d="M553.8,764c-.5,-.6,-.8,-.7,-1.5,-.2l-.5,.3c-.3,.3,-.5,.5,-.8,.7c-.8,.7,-1.4,1.1,-1.7,1.3l-5.2,4.5l-.7,.6c-.9,.7,-1.2,1.2,-1,1.4c.1,.1,.2,.1,.7,-.2l1.7,-1.3l.2,-.1l10.4,13.4l-.2,.2l-.4,.3l-.6,.5c-.4,.3,-.5,.6,-.4,.8c.2,.2,.4,.2,.7,-.2l.3,-.2c.4,-.2,.5,-.3,.5,-.3l3.3,-2.8c0,-.1,.1,-.2,.3,-.3c1.3,-1,1.5,-1.3,1.4,-1.4c-.2,-.3,-.4,-.3,-1,.2l-.1,.1c-.3,.2,-.5,.3,-1,.5l-4.8,-6.6l.3,-.2l.6,-.4l.1,-.1c.9,-.7,1.1,-.6,2.3,.7l.8,1c.3,.3,.5,.4,.7,.3c.3,-.2,.2,-.4,-.2,-.9l-.3,-.2l-.2,-.5l-3.4,-5.3l-.3,-.4h-.1c-.2,-.3,-.4,-.4,-.5,-.3c-.1,.1,-.2,.3,-.2,.5c.1,.2,.2,.6,.5,.9c.1,.3,.2,.7,.5,1.1c.2,.5,.3,1,.3,1.3c.1,.5,-.2,.9,-.8,1.4l-.3,.3l-.2,.2l-4.8,-6.4c.5,-.5,.6,-.7,1.4,-1.2c.6,-.4,.9,-.8,1.1,-.8c.2,-.1,.4,-.2,.7,-.2c.7,-.1,1.2,0,1.8,.3c1.1,.6,1.2,.8,2.8,2.8c.4,.4,.8,.5,1,.3c.3,-.1,.3,-.2,-.2,-1l-.3,-.6l-2.4,-3.3l-.3,-.5Z" class="g2"/>
<path d="M567,766.8c-.6,-1.1,-1.8,-1.6,-2.9,-.9c-.8,.4,-1.2,1.4,-1.3,2.5v.1c0,0,-.2,0,-.2,-.1l-.1,-.2l-.2,-.5l-.1,-.5v-.1c-.1,-.2,-.3,-.2,-.5,-.1c-.2,.1,-.4,.2,-.7,.4l-1.3,.9l-1.8,1.2c-.8,.6,-1,.8,-.9,1c.1,.2,.5,.2,1.1,-.2l.1,-.1l.3,-.1c.5,-.4,.8,-.2,1.2,.4l1,1.7l.8,1.6l1,1.4l1,1.8l.1,.1c.5,.8,.5,1,-.3,1.7c-.3,.2,-.4,.5,-.3,.6c0,.1,.2,.2,.3,.1c.1,-.1,.2,-.2,.4,-.3c0,0,.3,-.1,.5,-.3l.9,-.6l2.6,-1.7l.4,-.4q.3,-.2,.4,-.3c.2,-.1,.2,-.2,.2,-.2c-.1,-.2,-.3,-.2,-.7,0l-.2,.1l-.1,.1c-.5,.2,-.8,.2,-1.1,-.2l-.2,-.6l-1.7,-2.6l-.2,-.3c-.2,-.5,-.3,-.7,-.4,-.8c-.4,-.8,-.5,-1.9,-.4,-2.9c.2,-.8,.4,-1.5,.7,-1.7q.1,0,.3,0c-.4,.5,-.3,1.5,0,2.3c.6,.9,1.2,1.1,1.9,.6c.9,-.4,1.1,-1.8,.4,-2.9Z" class="g2"/>
<path d="M578.7,763.5c-.9,-2.4,-3.3,-3.4,-6.2,-2.3c-1.7,.6,-2.6,1.5,-3,3c-.6,1.8,-.5,3.7,.2,5.5c.6,1.7,1.5,2.7,3.1,3c1,.3,2.2,.2,3.3,-.1c1.3,-.5,2.6,-1.8,3.3,-3.1c.4,-.7,.5,-1.4,.5,-1.6c-.1,-.1,-.2,-.2,-.3,-.1c-.1,0,-.2,.1,-.2,.4c-.1,.2,-.4,.6,-.5,.9c-.2,.3,-.3,.4,-.4,.5c-.3,.5,-.9,.9,-1.6,1.1c-1.6,.7,-3.3,-.1,-3.8,-1.5c-.2,-.4,-.2,-.9,-.1,-1.1c.1,-.2,.5,-.4,1.2,-.8l1.3,-.6c1,-.6,1.7,-.9,1.8,-.9c1.6,-.8,1.7,-.9,1.6,-1.6c-.1,-.3,-.1,-.5,-.2,-.7Zm-3.1,.6c.2,.7,.4,1,.1,1.4c-.2,.2,-.3,.4,-1,.7c-.5,.4,-.8,.6,-.8,.6c-.6,.2,-.8,.3,-.8,.3c-.1,.1,-.2,.2,-.3,.2c-.1,0,-.3,0,-.4,-.1V767c-.3,-.9,-.4,-2.4,-.2,-3.5c.2,-.9,.6,-1.5,1.2,-1.7c.8,-.3,1.6,.6,2.2,2.3Z" class="g2"/>
<path d="M590.7,761.3c-.4,-2.6,-2.6,-3.9,-5.6,-3.4c-1.9,.3,-3,1.1,-3.6,2.5c-.9,1.6,-1.1,3.5,-.8,5.4c.3,1.9,1.1,2.8,2.5,3.5c.9,.6,2.1,.7,3.2,.4c1.5,-.2,3,-1.2,3.9,-2.3c.5,-.7,.8,-1.3,.7,-1.6c0,-.1,-.1,-.2,-.2,-.1c-.1,0,-.2,.1,-.3,.3c-.1,.2,-.4,.6,-.7,.9c-.1,.2,-.3,.3,-.4,.4c-.5,.4,-1,.7,-1.8,.8c-1.7,.3,-3.2,-.7,-3.5,-2.2c0,-.4,0,-.9,.1,-1.1c.2,-.1,.7,-.3,1.3,-.6l1.5,-.4c1.2,-.3,1.7,-.5,1.8,-.5c1.8,-.5,2,-.5,1.9,-1.3c0,-.3,0,-.5,0,-.7Zm-3.1,.1c.1,.6,0,1,-.2,1.3c-.2,.2,-.4,.3,-1.1,.6c-.7,.2,-1,.3,-1,.3c-.5,.2,-.8,.3,-.8,.3c-.1,0,-.3,.1,-.3,.1q-.2,0,-.3,-.2v-.2c-.1,-.9,0,-2.4,.4,-3.4c.3,-.9,.9,-1.3,1.4,-1.5c.9,-.2,1.6,.8,1.9,2.7Z" class="g2"/>
<path d="M608.6,760.2c.1,-2.6,-1.7,-4.4,-4.8,-4.5c-1.9,-.1,-3.1,.5,-4.1,1.8c-1.1,1.4,-1.7,3.2,-1.7,5c-.1,1.9,.4,3.1,1.6,4.1c.9,.6,2.1,1,3.2,1c1.4,.1,3.1,-.5,4.3,-1.5c.5,-.6,1,-1.1,1,-1.4c0,-.1,-.1,-.2,-.2,-.3c-.1,0,-.3,.1,-.5,.5c-.1,.1,-.3,.3,-.6,.6c-.4,.1,-.5,.3,-.6,.3c-.5,.4,-1.2,.5,-2,.5c-1.7,-.1,-2.9,-1.3,-2.9,-3c.1,-.3,.2,-.8,.3,-1c.2,-.1,.7,-.2,1.4,-.3l1.6,-.1c1.1,-.1,1.7,-.1,1.8,-.1c1.9,0,2,-.1,2.1,-.9c.1,-.2,.1,-.4,.1,-.7Zm-3,-.5c0,.6,-.2,1,-.5,1.2c-.2,.2,-.4,.2,-1.1,.3c-.6,.1,-1.1,.2,-1.1,.2c-.5,0,-.8,0,-.8,0c-.2,.2,-.3,.2,-.4,.2c-.1,0,-.2,-.2,-.2,-.3v-.2c0,-.9,.5,-2.4,1.2,-3.3c.4,-.8,1,-1.2,1.6,-1.1c.9,0,1.4,1.1,1.3,3Z" class="g2"/>
<path d="M637.4,767.6c.5,-1.5,.4,-3.2,-.4,-4.3c-.5,-1.1,-1.7,-2.1,-3.1,-2.7c-.5,-.2,-.8,-.3,-.9,-.5c-2.9,-.8,-6.2,1.3,-7.4,4.8c-.9,2.8,.6,5.7,3.5,6.7c2.2,.6,3.5,.8,5,0c1.5,-.8,2.7,-2.3,3.3,-4Zm-3.3,-1.1c-1,3.1,-2.9,5,-4.4,4.4c-1.3,-.4,-1.7,-1.7,-.8,-4.2c1.1,-3.4,3.2,-5.8,4.6,-5.3c1.1,.3,1.3,2.6,.6,5.1Z" class="g2"/>
<path d="M649.2,774.4c.8,-1.3,1.1,-3,.7,-4.3c-.3,-1.1,-1.2,-2.3,-2.5,-3.3c-.4,-.3,-.7,-.5,-.8,-.7c-2.5,-1.5,-6.3,-.3,-8.2,2.9c-1.6,2.6,-.8,5.7,1.8,7.4c2.1,1.2,3.3,1.5,4.9,1.1c1.6,-.5,3.3,-1.6,4.1,-3.1Zm-3,-1.8c-1.7,2.8,-3.9,4.1,-5.3,3.2c-1.2,-.7,-1.1,-2.1,.2,-4.2c1.9,-3,4.5,-4.9,5.8,-4.1c1,.5,.7,2.8,-.7,5.1Z" class="g2"/>
<path d="M660.1,787.4c.1,-.2,-.1,-.6,-.7,-.8c-.7,-.5,-.7,-.8,-.8,-1.5c-.3,-1.6,-.4,-3.8,-.4,-5.2c.1,-1.2,.2,-2.1,.5,-2.4c.2,-.3,.3,-.3,1.2,-.6l1.6,-.4c.7,-.2,1.6,.1,2.7,.8c.3,.2,.6,.2,.7,.1c.1,-.2,-.1,-.5,-.7,-.9c-.3,-.1,-.6,-.3,-.9,-.6l-1,-.5l-1.2,-.7l-1.1,-.5c-.2,-.1,-.6,-.2,-.7,0c-.1,.1,.1,.3,.6,.6l.3,.2c.1,.1,.3,.2,.4,.3c.4,.2,.5,.3,.4,.4c0,.1,-.1,.1,-.2,.2l-.5,.2l-.6,.1l-3.3,.7l-1.4,.5l-.4,.1c-.2,0,-.3,0,-.4,0c-.2,-.1,-.2,-.2,0,-.5v-.1l.3,-.3l.5,-.8l3.8,-5.2c.1,-.2,.3,-.5,.5,-.9c.7,-1,.8,-1.3,.9,-1.7c.1,-.3,.1,-.5,-.3,-.7c-.5,-.4,-1,-.6,-1.6,-.9l-1.7,-.9c-.9,-.4,-1.3,-.4,-1.6,-.3c0,.2,.1,.4,.5,.6c.1,0,.3,.1,.5,.4c.2,0,.4,.1,.5,.2c.4,.2,.4,.4,.2,.9l-.2,.4l-4.1,6.4l-.9,1.3l-1.6,2.4l-.6,.9l-.1,.2c-.7,1,-1.1,1,-2.1,.6c-.6,-.4,-1,-.5,-1.1,-.1c-.1,.1,0,.2,.2,.3l.1,.1c.3,.1,.5,.2,.7,.3l4.5,2.6c.2,.1,.3,.2,.6,.2c.5,.3,.7,.4,1,.2c0,-.1,-.2,-.3,-.5,-.6l-.6,-.4c-.7,-.4,-.8,-.5,-.5,-1l.1,-.1c0,-.1,.1,-.2,.2,-.4c.3,-.3,.4,-.6,.6,-.9c.5,-1,.8,-1.1,1.2,-1.2c.7,-.2,.9,-.4,1,-.2c.2,.1,.2,.4,.2,.8c0,.1,0,.8,.1,1.9v1.2c0,.2,.1,.8,.4,1.4c0,.2,0,.3,0,.3c-.2,.1,-.5,0,-.8,-.1c-.5,-.4,-.8,-.5,-1,-.3c-.1,.3,0,.4,.5,.8l.3,.1l4.5,2.5l.6,.4c.5,.2,.6,.3,.7,.1Z" class="g2"/>
<path d="M617.1,752c.1,-.7,.3,-1.1,.5,-1.3c.2,-.1,.6,-.1,1.2,-.1c1,.2,1.7,.5,2,1c.3,.6,.4,1.6,.2,3.1c-.2,1.4,-.6,2.3,-1.1,2.8c-.5,.4,-1.3,.5,-2.5,.4l-1.1,-.2l.8,-5.7Zm.2,6.7c1.3,.2,2.1,.6,2.5,1.2c.3,.6,.3,1.9,.1,3.9c-.3,1.7,-.6,2.8,-1.1,3.3c-.5,.5,-1.3,.6,-2.4,.5c-.6,-.1,-1,-.3,-1.1,-.5c-.2,-.3,-.2,-.7,-.1,-1.4l1,-7.1l1.1,.1Zm-1.3,9.6c2.5,.4,4.4,.2,5.8,-.5c1.4,-.8,2.2,-2,2.5,-3.7c.2,-1.3,-.2,-2.5,-1,-3.5c-.8,-.9,-2.1,-1.6,-3.8,-2c1.7,0,3,-.3,4,-.9c1,-.6,1.6,-1.5,1.7,-2.6c.2,-1.4,-.2,-2.5,-1.2,-3.4c-1,-.9,-2.6,-1.4,-4.7,-1.7l-7.7,-1.1l-.1,.7l.4,.1c.3,0,.5,.1,.6,.2c.2,0,.3,.2,.4,.3c.1,.2,.2,.6,.1,1.2l-1.9,13.9c-.1,.5,-.3,.9,-.5,1.1c-.2,.2,-.6,.3,-1.1,.2h-.4l-.1,.7l7,1Z" class="g2"/>
</svg>