<?xml version="1.0" encoding="UTF-8" standalone="no"?>
<!DOCTYPE svg PUBLIC "-//W3C//DTD SVG 1.1//EN"
"http://www.w3.org/Graphics/SVG/1.1/DTD/svg11.dtd">
<svg viewBox="0 0 811 1017" version="1.1" xmlns="http://www.w3.org/2000/svg" xmlns:xlink="http://www.w3.org/1999/xlink">
<defs>
<clipPath id="c0_72"><path d="M101.1,292.8V279h605v13.8Z"/></clipPath>
<style type="text/css"><![CDATA[
.g0_72{
fill: #E6E6E6;
}
.g1_72{
fill: #000;
}
.g2_72{
fill: #F7F5E8;
}
]]></style>
</defs>
<path d="M632,136.9c15.5,-4.9,33,-9.4,49.2,-9.4c14.5,0,34.1,5.2,34.1,22.4c0,36.1,-53.4,48.5,-81.5,51.6c-4.9,.6,-17.2,.6,-17.2,7.5c0,3.1,3.1,4.1,5.8,4.1c3.5,0,17.9,-4.1,32.4,-4.1c20.2,0,35.7,9.3,35.7,31.4c0,30.8,-24.1,56.3,-50.2,69.4c-23.4,11.7,-50.5,15.4,-76,17.9l-2.4,8.5c33,0,68.4,-6.1,98.4,-20.6c29.9,-14,61.1,-43,61.1,-78.7c0,-21.3,-12,-40.3,-34.7,-40.6v-.7c23.4,-10.3,53.2,-23.7,53.2,-53.2c0,-33.4,-35.6,-40.6,-62.1,-40.6c-13.4,0,-26.9,2.4,-39.5,6.8Z" class="g0_72"/>
<path clip-path="url(#c0_72)" d="M255.2,282H706.1v-.4H255.2Z" class="g1_72"/>
<path d="M101.1,612.4H487V398.6H101.1Z" class="g2_72"/>
</svg>