<?xml version="1.0" encoding="UTF-8" standalone="no"?>
<!DOCTYPE svg PUBLIC "-//W3C//DTD SVG 1.1//EN"
"http://www.w3.org/Graphics/SVG/1.1/DTD/svg11.dtd">
<svg viewBox="0 0 811 1017" version="1.1" xmlns="http://www.w3.org/2000/svg" xmlns:xlink="http://www.w3.org/1999/xlink">
<defs>
<clipPath id="c0_382"><path d="M142.4,258.5V82.5H377v176Z"/></clipPath>
<clipPath id="c1_382"><path d="M142.6,748.5V572.1H318.9V748.5Z"/></clipPath>
<clipPath id="c2_382"><path d="M335.7,748.5V572.1H511.9V748.5Z"/></clipPath>
<clipPath id="c3_382"><path d="M529.4,748.5V572.1H705.6V748.5Z"/></clipPath>
<style type="text/css"><![CDATA[
.g0_382{
fill: #0E0E0E;
}
]]></style>
</defs>
<image clip-path="url(#c0_382)" preserveAspectRatio="none" x="142" y="83" width="235" height="176" xlink:href="img/1.jpg"/>
<path d="M333.6,516.2c0,-.5,-.4,-.9,-1,-.9c-.3,0,-.6,.1,-.9,.3c-.4,.2,-.7,.5,-.9,.9c0,-.7,-.4,-1.2,-1.1,-1.2c-1.1,0,-2,1.2,-2.4,1.9l.2,.2c.4,-.5,1.1,-1.7,2,-1.7c.3,0,.4,.5,.4,.9c0,.3,-.1,.7,-.2,1.2l-.4,1.2c-.1,.5,-.4,1.3,-.7,1.7c-.1,.3,-.4,.7,-.8,.7c-.4,0,-.7,-.1,-.6,-.5c.1,-.3,0,-.7,-.4,-.7c-.5,0,-.6,.3,-.6,.7c0,.6,.4,1,1,1c1,0,1.8,-.8,2.1,-1.5l.1,.1c.1,.8,.5,1.4,1.3,1.4c1.2,0,2,-1.2,2.5,-1.8l-.2,-.2c-.5,.6,-1.2,1.6,-2,1.6c-.4,0,-.6,-.6,-.6,-1.2c0,-.3,0,-.8,.1,-1.3l.2,-.8c.1,-.5,.4,-1.2,.6,-1.6c.2,-.3,.6,-.9,1,-.9c.4,0,.4,.3,.3,.6c0,.4,.2,.6,.5,.6c.4,0,.5,-.3,.5,-.7Z" class="g0_382"/>
<path d="M339.1,519.9h7.6V519h-7.6Zm0,-3h7.6V516h-7.6Z" class="g0_382"/>
<path d="M354.9,514.5h.8V501.2h-.8Z" class="g0_382"/>
<path d="M365,501.5l-.4,.6c-.4,-.3,-.7,-.5,-1,-.7c-.4,-.1,-.7,-.2,-1.1,-.2c-.5,0,-.9,.1,-1.3,.2c-.4,.2,-.7,.4,-1,.6c-.3,.3,-.5,.6,-.7,.9c-.1,.4,-.2,.7,-.2,1.1c0,.4,.1,.8,.3,1.1c.2,.3,.4,.6,.7,.8c.3,.3,.5,.6,.9,.8c.3,.2,.6,.5,.9,.7c.3,.3,.5,.5,.7,.8c.2,.3,.3,.7,.3,1c0,1.2,-.7,2.3,-2.2,2.3c-1.6,0,-2.3,-1.7,-2.5,-3.2h-.3l-.6,3.4h.4l.4,-1.1c.7,.8,1.6,1.2,2.6,1.2c.4,0,.9,-.1,1.3,-.3c.4,-.1,.8,-.4,1.1,-.7c.3,-.3,.5,-.6,.7,-1c.2,-.4,.3,-.8,.3,-1.3c0,-.4,-.1,-.8,-.3,-1.2c-.2,-.3,-.4,-.6,-.7,-.9c-.2,-.3,-.5,-.5,-.9,-.7c-.3,-.3,-.6,-.5,-.9,-.7c-.2,-.2,-.4,-.4,-.6,-.7c-.2,-.2,-.3,-.5,-.3,-.8c0,-1.1,.4,-2,1.9,-2c1.3,0,1.8,1.3,1.8,2.7h.4l.5,-2.7H365Z" class="g0_382"/>
<path d="M369.3,508.7l1.7,-6.4c.1,-.5,.3,-.7,.9,-.7c2.3,0,3.4,1.8,3.4,3.9c0,.4,-.1,.8,-.2,1.3c-.4,2.3,-2,4.5,-4.8,4.5c-1,0,-1.5,-.6,-1.3,-1.5c.1,-.4,.2,-.7,.3,-1.1Zm-1,-7.4v.2c.3,0,.6,.1,.9,.2c.2,.2,.4,.4,.4,.6c0,.4,-.2,.9,-.3,1.3l-1.6,6c-.2,.9,-.8,1.4,-1.1,1.6c-.2,.2,-.5,.3,-.8,.3l-.1,.2h4.7c.9,0,1.7,-.2,2.5,-.4c.7,-.2,1.4,-.6,2,-1.3c.3,-.2,.6,-.5,.8,-.9c.2,-.3,.4,-.7,.6,-1c.1,-.4,.3,-.8,.4,-1.2c.1,-.4,.1,-.8,.1,-1.2c0,-.7,-.1,-1.2,-.3,-1.8c-.3,-.6,-.6,-1.1,-1.2,-1.5c-.4,-.4,-1,-.7,-1.5,-.9c-.6,-.1,-1.2,-.2,-1.8,-.2h-3.7Z" class="g0_382"/>
<path d="M377.5,511.5v.2h4.7v-.2c-.6,0,-1,-.2,-1.2,-.4c-.3,-.1,-.4,-.4,-.4,-.7c0,-.2,0,-.4,.1,-.7l.9,-3.3h1.1c1,0,1,1.1,.9,2.2h.4l.9,-4.2h-.3c-.4,.8,-.8,1.6,-2,1.6h-.9l1.1,-4.4h1.8c.2,0,.5,0,.7,.1c.9,.4,1.5,1.3,1.7,2.3h.3v-2.7H380l-.1,.2c.5,0,.8,.2,1,.3c.2,.2,.3,.3,.3,.6c0,.2,0,.3,0,.5c-.1,.2,-.1,.4,-.2,.6l-1.6,6.2c-.1,.3,-.2,.6,-.3,.8c-.1,.3,-.5,.7,-.8,.8c-.2,.1,-.5,.2,-.8,.2Z" class="g0_382"/>
<path d="M393.3,501c-2.1,1.4,-3.6,3.8,-3.6,6.8c0,2.8,1.5,5.6,3.6,6.9l.2,-.3c-2,-1.5,-2.6,-3.3,-2.6,-6.6c0,-3.3,.7,-5,2.6,-6.6l-.2,-.2Z" class="g0_382"/>
<path d="M401.7,506.1c0,-.5,-.4,-.9,-1,-.9c-.3,0,-.6,.1,-.9,.3c-.3,.2,-.7,.5,-.9,.9c0,-.7,-.4,-1.2,-1,-1.2c-1.2,0,-2.1,1.2,-2.5,1.9l.2,.2c.4,-.5,1.1,-1.7,2,-1.7c.3,0,.4,.5,.4,.9c0,.3,-.1,.7,-.2,1.2l-.3,1.2c-.2,.5,-.4,1.3,-.8,1.7c-.1,.3,-.4,.7,-.8,.7c-.4,0,-.7,-.1,-.6,-.5c.1,-.3,0,-.7,-.4,-.7c-.4,0,-.6,.3,-.6,.7c0,.6,.5,1,1,1c1.1,0,1.8,-.8,2.2,-1.5v.1c.1,.8,.5,1.4,1.3,1.4c1.2,0,2.1,-1.2,2.5,-1.8l-.2,-.2c-.5,.6,-1.2,1.6,-2,1.6c-.4,0,-.6,-.6,-.6,-1.2c0,-.3,0,-.8,.2,-1.3l.1,-.8c.1,-.5,.4,-1.2,.7,-1.6c.1,-.3,.5,-.9,.9,-.9c.4,0,.4,.3,.4,.6c-.1,.4,.1,.6,.4,.6c.4,0,.5,-.3,.5,-.7Z" class="g0_382"/>
<path d="M404.5,509.4c-.7,0,-1.1,-.5,-1.1,-1.2c0,-.8,.4,-1.6,1.3,-1.6c1.2,0,1.3,1,1.3,1.9c0,.9,-.2,1.5,-.7,2.1c-.2,.4,-.6,.9,-1.1,1.3c-.5,.6,-1.1,1.1,-1.8,1.8v.3h4.5l.4,-2.1H407c-.1,.3,-.2,.5,-.3,.6c-.1,.4,-.4,.6,-1,.6h-2.1V513c.5,-.3,1,-.7,1.4,-1.1c.8,-.6,1.5,-1.3,2,-2.2c.1,-.4,.2,-.8,.2,-1.2c0,-.3,0,-.6,-.1,-.9c-.4,-.7,-1.1,-1.2,-2.2,-1.2c-.7,0,-1.4,.2,-1.8,.5c-.3,.4,-.7,.9,-.7,1.5c0,.5,.2,.8,.4,1.1c.2,.2,.5,.4,.9,.4c.4,0,.7,-.2,.8,-.5Z" class="g0_382"/>
<path d="M409.3,501l-.2,.2c1.9,1.6,2.5,3.3,2.5,6.6c0,3.3,-.5,5.1,-2.5,6.6l.2,.3c2,-1.3,3.6,-4.1,3.6,-6.9c0,-3,-1.5,-5.4,-3.6,-6.8Z" class="g0_382"/>
<path d="M416.1,514.5h.8V501.2h-.8Z" class="g0_382"/>
<path d="M425.8,506.1c0,-.5,-.5,-.9,-1,-.9c-.3,0,-.7,.1,-1,.3c-.3,.2,-.6,.5,-.8,.9c0,-.7,-.4,-1.2,-1.1,-1.2c-1.1,0,-2.1,1.2,-2.4,1.9l.2,.2c.4,-.5,1.1,-1.7,2,-1.7c.2,0,.4,.5,.4,.9c0,.3,-.1,.7,-.3,1.2l-.3,1.2c-.2,.5,-.4,1.3,-.7,1.7c-.2,.3,-.4,.7,-.8,.7c-.4,0,-.7,-.1,-.6,-.5c.1,-.3,0,-.7,-.4,-.7c-.5,0,-.7,.3,-.7,.7c0,.6,.5,1,1.1,1c1,0,1.7,-.8,2.1,-1.5l.1,.1c.1,.8,.5,1.4,1.3,1.4c1.2,0,2,-1.2,2.4,-1.8l-.1,-.2c-.5,.6,-1.2,1.6,-2,1.6c-.5,0,-.7,-.6,-.7,-1.2c0,-.3,.1,-.8,.2,-1.3l.2,-.8c.1,-.5,.3,-1.2,.6,-1.6c.2,-.3,.6,-.9,1,-.9c.4,0,.3,.3,.3,.6c0,.4,.1,.6,.5,.6c.3,0,.5,-.3,.5,-.7Z" class="g0_382"/>
<path d="M427.3,506.9v.2c.4,0,.8,0,1,.1c.3,.2,.3,.3,.3,.8v4.7c0,.2,0,.4,0,.6c-.1,.5,-.7,.5,-1.2,.6v.1h3.4v-.1c-.4,-.1,-.9,-.1,-1,-.3c-.2,-.2,-.2,-.5,-.2,-.9v-6.3c-.6,.3,-1.6,.5,-2.3,.5Z" class="g0_382"/>
<path d="M439.8,507.4h-3.3v1h3.3v3.3h.9v-3.3H444v-1h-3.3v-3.3h-.9v3.3Z" class="g0_382"/>
<path d="M449.5,514.5h.8V501.2h-.8Z" class="g0_382"/>
<path d="M459.5,501.5l-.4,.6c-.3,-.3,-.6,-.5,-1,-.7c-.3,-.1,-.7,-.2,-1.1,-.2c-.4,0,-.8,.1,-1.2,.2c-.4,.2,-.7,.4,-1,.6c-.3,.3,-.5,.6,-.7,.9c-.2,.4,-.2,.7,-.2,1.1c0,.4,0,.8,.2,1.1c.2,.3,.5,.6,.7,.8c.3,.3,.6,.6,.9,.8c.4,.2,.7,.5,.9,.7c.3,.3,.6,.5,.7,.8c.2,.3,.3,.7,.3,1c0,1.2,-.6,2.3,-2.2,2.3c-1.5,0,-2.3,-1.7,-2.4,-3.2h-.3l-.6,3.4h.3l.5,-1.1c.7,.8,1.5,1.2,2.5,1.2c.5,0,.9,-.1,1.4,-.3c.4,-.1,.7,-.4,1,-.7c.3,-.3,.6,-.6,.8,-1c.1,-.4,.2,-.8,.2,-1.3c0,-.4,-.1,-.8,-.2,-1.2c-.2,-.3,-.4,-.6,-.7,-.9c-.3,-.3,-.6,-.5,-.9,-.7c-.3,-.3,-.6,-.5,-.9,-.7c-.3,-.2,-.5,-.4,-.7,-.7c-.1,-.2,-.2,-.5,-.2,-.8c0,-1.1,.3,-2,1.9,-2c1.2,0,1.8,1.3,1.8,2.7h.3l.6,-2.7h-.3Z" class="g0_382"/>
<path d="M463.8,508.7l1.7,-6.4c.2,-.5,.4,-.7,1,-.7c2.3,0,3.3,1.8,3.3,3.9c0,.4,0,.8,-.1,1.3c-.4,2.3,-2.1,4.5,-4.9,4.5c-1,0,-1.5,-.6,-1.3,-1.5c.1,-.4,.2,-.7,.3,-1.1Zm-.9,-7.4l-.1,.2c.4,0,.7,.1,.9,.2c.2,.2,.4,.4,.4,.6c0,.4,-.2,.9,-.3,1.3l-1.5,6c-.3,.9,-.8,1.4,-1.1,1.6c-.2,.2,-.6,.3,-.8,.3l-.1,.2H465c.9,0,1.7,-.2,2.4,-.4c.8,-.2,1.5,-.6,2.1,-1.3c.3,-.2,.5,-.5,.7,-.9c.3,-.3,.5,-.7,.6,-1c.2,-.4,.3,-.8,.4,-1.2c.1,-.4,.2,-.8,.2,-1.2c0,-.7,-.2,-1.2,-.4,-1.8c-.2,-.6,-.6,-1.1,-1.1,-1.5c-.5,-.4,-1,-.7,-1.6,-.9c-.6,-.1,-1.1,-.2,-1.8,-.2h-3.6Z" class="g0_382"/>
<path d="M472.1,511.5l-.1,.2h4.7l.1,-.2c-.6,0,-1,-.2,-1.3,-.4c-.2,-.1,-.3,-.4,-.3,-.7c0,-.2,0,-.4,.1,-.7l.9,-3.3h1c1.1,0,1.1,1.1,1,2.2h.3l.9,-4.2h-.2c-.5,.8,-.9,1.6,-2,1.6h-.9l1.1,-4.4h1.7c.3,0,.6,0,.8,.1c.8,.4,1.5,1.3,1.6,2.3h.3v-2.7h-7.3v.2c.4,0,.8,.2,1,.3c.1,.2,.3,.3,.3,.6c0,.2,-.1,.3,-.1,.5c0,.2,-.1,.4,-.1,.6l-1.7,6.2c0,.3,-.1,.6,-.2,.8c-.2,.3,-.5,.7,-.8,.8c-.2,.1,-.5,.2,-.8,.2Z" class="g0_382"/>
<path d="M487.9,501c-2.2,1.4,-3.7,3.8,-3.7,6.8c0,2.8,1.6,5.6,3.7,6.9l.1,-.3c-1.9,-1.5,-2.5,-3.3,-2.5,-6.6c0,-3.3,.6,-5,2.5,-6.6l-.1,-.2Z" class="g0_382"/>
<path d="M496.3,506.1c0,-.5,-.5,-.9,-1,-.9c-.3,0,-.7,.1,-1,.3c-.3,.2,-.6,.5,-.8,.9c0,-.7,-.4,-1.2,-1.1,-1.2c-1.1,0,-2.1,1.2,-2.4,1.9l.2,.2c.4,-.5,1.1,-1.7,2,-1.7c.2,0,.4,.5,.4,.9c0,.3,-.1,.7,-.2,1.2l-.4,1.2c-.2,.5,-.4,1.3,-.7,1.7c-.2,.3,-.4,.7,-.8,.7c-.4,0,-.7,-.1,-.6,-.5c.1,-.3,0,-.7,-.4,-.7c-.5,0,-.7,.3,-.7,.7c0,.6,.5,1,1.1,1c1,0,1.7,-.8,2.1,-1.5l.1,.1c.1,.8,.5,1.4,1.3,1.4c1.2,0,2,-1.2,2.4,-1.8l-.1,-.2c-.5,.6,-1.2,1.6,-2,1.6c-.5,0,-.7,-.6,-.7,-1.2c0,-.3,.1,-.8,.2,-1.3l.2,-.8c.1,-.5,.3,-1.2,.6,-1.6c.2,-.3,.6,-.9,1,-.9c.4,0,.3,.3,.3,.6c0,.4,.1,.6,.5,.6c.3,0,.5,-.3,.5,-.7Z" class="g0_382"/>
<path d="M497.8,506.9v.2c.4,0,.8,0,1,.1c.3,.2,.3,.3,.3,.8v4.7c0,.2,0,.4,0,.6c-.1,.5,-.7,.5,-1.2,.6v.1h3.4v-.1c-.3,-.1,-.9,-.1,-1,-.3c-.2,-.2,-.2,-.5,-.2,-.9v-6.3c-.6,.3,-1.6,.5,-2.3,.5Z" class="g0_382"/>
<path d="M503.8,501l-.1,.2c1.9,1.6,2.5,3.3,2.5,6.6c0,3.3,-.6,5.1,-2.5,6.6l.2,.3c2,-1.3,3.6,-4.1,3.6,-6.9c0,-3,-1.5,-5.4,-3.7,-6.8Z" class="g0_382"/>
<path d="M510.6,514.5h.9V501.2h-.9Z" class="g0_382"/>
<path d="M520.3,506.1c0,-.5,-.4,-.9,-1,-.9c-.3,0,-.6,.1,-.9,.3c-.3,.2,-.6,.5,-.9,.9c0,-.7,-.4,-1.2,-1,-1.2c-1.1,0,-2.1,1.2,-2.5,1.9l.3,.2c.3,-.5,1,-1.7,1.9,-1.7c.3,0,.4,.5,.4,.9c0,.3,0,.7,-.2,1.2l-.3,1.2c-.2,.5,-.4,1.3,-.7,1.7c-.2,.3,-.5,.7,-.8,.7c-.5,0,-.8,-.1,-.7,-.5c.1,-.3,.1,-.7,-.4,-.7c-.4,0,-.6,.3,-.6,.7c0,.6,.5,1,1.1,1c1,0,1.7,-.8,2.1,-1.5v.1c.1,.8,.5,1.4,1.4,1.4c1.1,0,2,-1.2,2.4,-1.8l-.2,-.2c-.5,.6,-1.2,1.6,-2,1.6c-.4,0,-.6,-.6,-.6,-1.2c0,-.3,0,-.8,.2,-1.3l.2,-.8c.1,-.5,.3,-1.2,.6,-1.6c.2,-.3,.5,-.9,.9,-.9c.4,0,.4,.3,.4,.6c-.1,.4,.1,.6,.4,.6c.4,0,.5,-.3,.5,-.7Z" class="g0_382"/>
<path d="M523.1,509.4c-.7,0,-1.1,-.5,-1.1,-1.2c0,-.8,.4,-1.6,1.3,-1.6c1.2,0,1.4,1,1.4,1.9c0,.9,-.3,1.5,-.8,2.1c-.2,.4,-.6,.9,-1.1,1.3c-.5,.6,-1.1,1.1,-1.8,1.8v.3h4.5l.4,-2.1h-.3c-.1,.3,-.2,.5,-.2,.6c-.2,.4,-.5,.6,-1,.6h-2.1l-.1,-.1c.5,-.3,1,-.7,1.4,-1.1c.8,-.6,1.6,-1.3,2,-2.2c.1,-.4,.2,-.8,.2,-1.2c0,-.3,0,-.6,-.1,-.9c-.4,-.7,-1.1,-1.2,-2.2,-1.2c-.7,0,-1.3,.2,-1.7,.5c-.4,.4,-.7,.9,-.7,1.5c0,.5,.1,.8,.3,1.1c.2,.2,.5,.4,.9,.4c.4,0,.7,-.2,.8,-.5Z" class="g0_382"/>
<path d="M353.2,518.3H527.3v-.8H353.2Z" class="g0_382"/>
<path d="M373.2,534.9h.9V521.5h-.9Z" class="g0_382"/>
<path d="M383.3,521.9l-.4,.5c-.3,-.3,-.6,-.5,-1,-.7c-.3,-.1,-.7,-.2,-1.1,-.2c-.4,0,-.8,.1,-1.2,.2c-.4,.2,-.8,.4,-1,.6c-.3,.3,-.5,.6,-.7,.9c-.2,.4,-.3,.7,-.3,1.1c0,.4,.1,.8,.3,1.1c.2,.3,.4,.6,.7,.9c.3,.2,.6,.5,.9,.7c.4,.3,.7,.5,.9,.8c.3,.2,.5,.5,.7,.8c.2,.2,.3,.6,.3,1c0,1.1,-.6,2.2,-2.2,2.2c-1.5,0,-2.3,-1.6,-2.4,-3.2h-.3l-.6,3.4h.3l.4,-1c.8,.7,1.6,1.1,2.6,1.1c.5,0,.9,0,1.3,-.2c.5,-.2,.8,-.4,1.1,-.7c.3,-.3,.6,-.7,.8,-1.1c.1,-.4,.2,-.8,.2,-1.2c0,-.5,-.1,-.9,-.2,-1.2c-.2,-.4,-.4,-.7,-.7,-1c-.3,-.2,-.6,-.5,-.9,-.7c-.3,-.2,-.6,-.4,-.9,-.7c-.3,-.2,-.5,-.4,-.7,-.7c-.2,-.2,-.3,-.5,-.3,-.8c0,-1,.4,-2,2,-2c1.2,0,1.7,1.3,1.8,2.7h.3l.6,-2.6h-.3Z" class="g0_382"/>
<path d="M387.6,529l1.7,-6.3c.1,-.6,.4,-.7,1,-.7c2.2,0,3.3,1.7,3.3,3.9c0,.4,0,.8,-.1,1.2c-.4,2.3,-2.1,4.6,-4.9,4.6c-1,0,-1.5,-.6,-1.3,-1.6c.1,-.4,.2,-.7,.3,-1.1Zm-.9,-7.3l-.1,.2c.4,0,.7,0,.9,.2c.2,.1,.4,.3,.4,.6c0,.4,-.2,.9,-.3,1.2l-1.6,6c-.2,.9,-.7,1.4,-1.1,1.7c-.2,.1,-.5,.2,-.8,.2v.2h4.7c.9,0,1.7,-.1,2.4,-.3c.8,-.3,1.5,-.7,2.1,-1.3c.3,-.3,.5,-.6,.7,-.9c.2,-.4,.5,-.7,.6,-1.1c.2,-.4,.3,-.8,.4,-1.2c.1,-.4,.2,-.8,.2,-1.2c0,-.6,-.2,-1.2,-.4,-1.8c-.2,-.6,-.6,-1.1,-1.1,-1.5c-.5,-.4,-1,-.7,-1.6,-.8c-.6,-.2,-1.2,-.2,-1.8,-.2h-3.6Z" class="g0_382"/>
<path d="M395.9,531.8l-.1,.2h4.7l.1,-.2c-.7,0,-1.1,-.1,-1.3,-.3c-.2,-.2,-.4,-.4,-.4,-.8c0,-.2,.1,-.4,.2,-.7l.8,-3.3H401c1.1,0,1.1,1.2,1,2.2h.3l.9,-4.2h-.3c-.4,.9,-.8,1.7,-2,1.7H400l1.2,-4.4h1.7c.3,0,.6,0,.8,.1c.8,.4,1.5,1.2,1.6,2.3h.3v-2.7h-7.3v.2c.4,0,.7,.1,.9,.3c.2,.1,.3,.3,.3,.6c0,.1,0,.2,0,.4c0,.2,-.1,.4,-.1,.6l-1.7,6.2c-.1,.3,-.1,.6,-.2,.8c-.2,.4,-.5,.7,-.8,.8c-.2,.1,-.5,.2,-.8,.2Z" class="g0_382"/>
<path d="M411.7,521.3c-2.2,1.4,-3.7,3.8,-3.7,6.9c0,2.7,1.6,5.5,3.6,6.8l.2,-.2c-1.9,-1.6,-2.5,-3.4,-2.5,-6.7c0,-3.3,.6,-5,2.5,-6.5l-.1,-.3Z" class="g0_382"/>
<path d="M420.1,526.5c0,-.6,-.5,-1,-1,-1c-.3,0,-.7,.1,-1,.4c-.3,.2,-.6,.5,-.8,.8c0,-.6,-.4,-1.2,-1.1,-1.2c-1.1,0,-2.1,1.2,-2.4,2l.2,.1c.3,-.5,1.1,-1.7,2,-1.7c.2,0,.3,.5,.3,1c0,.3,0,.6,-.2,1.1l-.3,1.2c-.2,.6,-.4,1.4,-.7,1.8c-.2,.2,-.4,.7,-.8,.7c-.4,0,-.7,-.1,-.6,-.5c0,-.4,0,-.8,-.4,-.8c-.5,0,-.7,.3,-.7,.8c0,.5,.5,.9,1.1,.9c1,0,1.7,-.8,2.1,-1.4c.1,.8,.5,1.4,1.4,1.4c1.2,0,2,-1.1,2.4,-1.8l-.2,-.2c-.5,.6,-1.1,1.7,-1.9,1.7c-.5,0,-.7,-.7,-.7,-1.3c0,-.3,.1,-.8,.2,-1.3l.2,-.7c.1,-.6,.3,-1.3,.6,-1.6c.2,-.3,.6,-1,.9,-1c.5,0,.4,.3,.4,.6c0,.4,.1,.6,.5,.6c.3,0,.5,-.3,.5,-.6Z" class="g0_382"/>
<path d="M421.6,527.3v.1c.3,0,.8,.1,1,.2c.3,.1,.3,.2,.3,.7v4.8c0,.2,0,.4,0,.5c-.1,.5,-.7,.6,-1.2,.6v.2h3.4v-.2c-.4,0,-.9,0,-1.1,-.2c-.1,-.3,-.1,-.6,-.1,-1v-6.3c-.6,.3,-1.6,.5,-2.3,.6Z" class="g0_382"/>
<path d="M427.6,521.3l-.1,.3c1.9,1.5,2.5,3.2,2.5,6.5c0,3.3,-.6,5.1,-2.5,6.7l.1,.2c2.1,-1.3,3.7,-4.1,3.7,-6.8c0,-3.1,-1.5,-5.5,-3.7,-6.9Z" class="g0_382"/>
<path d="M439.8,527.7h-3.3v1h3.3V532h.9v-3.3H444v-1h-3.3v-3.2h-.9v3.2Z" class="g0_382"/>
<path d="M455.3,521.9l-.4,.5c-.3,-.3,-.6,-.5,-.9,-.7c-.4,-.1,-.7,-.2,-1.2,-.2c-.4,0,-.8,.1,-1.2,.2c-.4,.2,-.7,.4,-1,.6c-.3,.3,-.5,.6,-.7,.9c-.1,.4,-.2,.7,-.2,1.1c0,.4,.1,.8,.3,1.1c.2,.3,.4,.6,.7,.9c.2,.2,.5,.5,.9,.7c.3,.3,.6,.5,.9,.8c.3,.2,.5,.5,.7,.8c.2,.2,.3,.6,.3,1c0,1.1,-.7,2.2,-2.2,2.2c-1.6,0,-2.4,-1.6,-2.5,-3.2h-.3l-.6,3.4h.3l.5,-1c.7,.7,1.6,1.1,2.5,1.1c.5,0,1,0,1.4,-.2c.4,-.2,.7,-.4,1,-.7c.4,-.3,.6,-.7,.8,-1.1c.2,-.4,.3,-.8,.3,-1.2c0,-.5,-.1,-.9,-.3,-1.2c-.2,-.4,-.4,-.7,-.7,-1c-.3,-.2,-.6,-.5,-.9,-.7c-.3,-.2,-.6,-.4,-.9,-.7c-.2,-.2,-.5,-.4,-.6,-.7c-.2,-.2,-.3,-.5,-.3,-.8c0,-1,.4,-2,1.9,-2c1.3,0,1.8,1.3,1.8,2.7h.3l.6,-2.6h-.3Z" class="g0_382"/>
<path d="M459.7,529l1.6,-6.3c.2,-.6,.4,-.7,1,-.7c2.3,0,3.3,1.7,3.3,3.9c0,.4,0,.8,-.1,1.2c-.4,2.3,-2.1,4.6,-4.8,4.6c-1,0,-1.5,-.6,-1.3,-1.6c0,-.4,.1,-.7,.3,-1.1Zm-1,-7.3v.2c.3,0,.6,0,.8,.2c.3,.1,.4,.3,.4,.6c0,.4,-.1,.9,-.2,1.2l-1.6,6c-.3,.9,-.8,1.4,-1.1,1.7c-.2,.1,-.5,.2,-.8,.2l-.1,.2h4.7c.9,0,1.7,-.1,2.4,-.3c.8,-.3,1.5,-.7,2.1,-1.3c.3,-.3,.5,-.6,.8,-.9c.2,-.4,.4,-.7,.6,-1.1c.1,-.4,.3,-.8,.3,-1.2c.1,-.4,.2,-.8,.2,-1.2c0,-.6,-.1,-1.2,-.4,-1.8c-.2,-.6,-.6,-1.1,-1.1,-1.5c-.4,-.4,-1,-.7,-1.6,-.8c-.5,-.2,-1.1,-.2,-1.7,-.2h-3.7Z" class="g0_382"/>
<path d="M467.9,531.8v.2h4.6l.1,-.2c-.6,0,-1,-.1,-1.3,-.3c-.2,-.2,-.3,-.4,-.3,-.8c0,-.2,0,-.4,.1,-.7l.9,-3.3h1.1c1,0,1,1.2,.9,2.2h.3l1,-4.2H475c-.4,.9,-.8,1.7,-2,1.7h-.9l1.1,-4.4h1.7c.3,0,.6,0,.8,.1c.8,.4,1.5,1.2,1.6,2.3h.4v-2.7h-7.4v.2c.5,0,.8,.1,1,.3c.2,.1,.3,.3,.3,.6c0,.1,0,.2,-.1,.4c0,.2,0,.4,-.1,.6l-1.6,6.2c-.1,.3,-.2,.6,-.3,.8c-.2,.4,-.5,.7,-.8,.8c-.2,.1,-.5,.2,-.8,.2Z" class="g0_382"/>
<path d="M483.7,521.3c-2.1,1.4,-3.6,3.8,-3.6,6.9c0,2.7,1.5,5.5,3.6,6.8l.2,-.2c-2,-1.6,-2.6,-3.4,-2.6,-6.7c0,-3.3,.6,-5,2.6,-6.5l-.2,-.3Z" class="g0_382"/>
<path d="M492.1,526.5c0,-.6,-.4,-1,-1,-1c-.3,0,-.6,.1,-.9,.4c-.4,.2,-.7,.5,-.9,.8c0,-.6,-.4,-1.2,-1.1,-1.2c-1.1,0,-2,1.2,-2.4,2l.2,.1c.4,-.5,1.1,-1.7,2,-1.7c.3,0,.4,.5,.4,1c0,.3,-.1,.6,-.2,1.1l-.4,1.2c-.1,.6,-.4,1.4,-.7,1.8c-.1,.2,-.4,.7,-.8,.7c-.4,0,-.7,-.1,-.6,-.5c.1,-.4,0,-.8,-.4,-.8c-.5,0,-.6,.3,-.6,.8c0,.5,.4,.9,1,.9c1,0,1.8,-.8,2.1,-1.4h.1c.1,.8,.5,1.4,1.3,1.4c1.2,0,2,-1.1,2.5,-1.8l-.2,-.2c-.5,.6,-1.2,1.7,-2,1.7c-.4,0,-.6,-.7,-.6,-1.3c0,-.3,0,-.8,.1,-1.3l.2,-.7c.1,-.6,.4,-1.3,.6,-1.6c.2,-.3,.6,-1,1,-1c.4,0,.4,.3,.3,.6c0,.4,.2,.6,.5,.6c.4,0,.5,-.3,.5,-.6Z" class="g0_382"/>
<path d="M494.9,529.7c-.7,0,-1.1,-.5,-1.1,-1.2c0,-.8,.4,-1.6,1.3,-1.6c1.2,0,1.3,1,1.3,1.9c0,.9,-.2,1.5,-.7,2.1c-.3,.4,-.7,.9,-1.1,1.4c-.5,.5,-1.1,1.1,-1.9,1.7v.4h4.6l.4,-2.1h-.3c-.1,.2,-.2,.4,-.3,.5c-.1,.4,-.4,.6,-1,.6H494v-.1c.5,-.3,1,-.7,1.4,-1c.7,-.7,1.5,-1.4,1.9,-2.3c.2,-.4,.3,-.8,.3,-1.2c0,-.3,-.1,-.6,-.2,-.8c-.3,-.8,-1,-1.3,-2.1,-1.3c-.8,0,-1.4,.3,-1.8,.6c-.4,.3,-.7,.8,-.7,1.4c0,.5,.2,.8,.4,1.1c.2,.2,.5,.4,.9,.4c.4,0,.7,-.2,.8,-.5Z" class="g0_382"/>
<path d="M499.6,521.3l-.1,.3c1.9,1.5,2.5,3.2,2.5,6.5c0,3.3,-.5,5.1,-2.5,6.7l.2,.2c2,-1.3,3.6,-4.1,3.6,-6.8c0,-3.1,-1.5,-5.5,-3.7,-6.9Z" class="g0_382"/>
<path d="M506.5,534.9h.8V521.5h-.8Z" class="g0_382"/>
<image clip-path="url(#c1_382)" preserveAspectRatio="none" x="143" y="572" width="176" height="177" xlink:href="img/2.jpg"/>
<image clip-path="url(#c2_382)" preserveAspectRatio="none" x="336" y="572" width="176" height="177" xlink:href="img/3.jpg"/>
<image clip-path="url(#c3_382)" preserveAspectRatio="none" x="529" y="572" width="177" height="177" xlink:href="img/4.jpg"/>
</svg>