<?xml version="1.0" encoding="UTF-8" standalone="no"?>
<!DOCTYPE svg PUBLIC "-//W3C//DTD SVG 1.1//EN"
"http://www.w3.org/Graphics/SVG/1.1/DTD/svg11.dtd">
<svg viewBox="0 0 811 1017" version="1.1" xmlns="http://www.w3.org/2000/svg" xmlns:xlink="http://www.w3.org/1999/xlink">
<defs>
<style type="text/css"><![CDATA[
.g0_256{
fill: #FFF;
}
.g1_256{
fill: #1A78B6;
}
.g2_256{
fill: none;
stroke: #1A78B6;
stroke-width: 0.753;
stroke-linejoin: round;
}
.g3_256{
fill: none;
stroke: #B0B2B1;
stroke-width: 0.601;
stroke-linecap: square;
stroke-linejoin: round;
}
.g4_256{
fill: none;
stroke: #040504;
stroke-width: 0.601;
stroke-linejoin: round;
}
.g5_256{
fill: #040504;
}
.g6_256{
fill: none;
stroke: #1A78B6;
stroke-width: 1.129;
stroke-linecap: square;
stroke-linejoin: round;
}
.g7_256{
fill: none;
stroke: #040504;
stroke-width: 0.601;
stroke-linecap: square;
}
]]></style>
</defs>
<path d="M133.5,407.5H402.2V207.2H133.5Z" class="g0_256"/>
<path d="M145.7,400.6c.6,0,1.2,-.2,1.6,-.6c.5,-.5,.7,-1,.7,-1.6c0,-.6,-.2,-1.2,-.7,-1.6c-.4,-.4,-1,-.7,-1.6,-.7c-.6,0,-1.1,.3,-1.6,.7c-.4,.4,-.6,1,-.6,1.6c0,.6,.2,1.1,.6,1.6c.5,.4,1,.6,1.6,.6Z" class="g1_256"/>
<path d="M145.7,400.6c.6,0,1.2,-.2,1.6,-.6c.5,-.5,.7,-1,.7,-1.6c0,-.6,-.2,-1.2,-.7,-1.6c-.4,-.4,-1,-.7,-1.6,-.7c-.6,0,-1.1,.3,-1.6,.7c-.4,.4,-.6,1,-.6,1.6c0,.6,.2,1.1,.6,1.6c.5,.4,1,.6,1.6,.6Z" class="g2_256"/>
<path d="M219,264.1c.6,0,1.2,-.2,1.6,-.7c.4,-.4,.7,-1,.7,-1.6c0,-.6,-.3,-1.1,-.7,-1.6c-.4,-.4,-1,-.6,-1.6,-.6c-.6,0,-1.2,.2,-1.6,.6c-.4,.5,-.6,1,-.6,1.6c0,.6,.2,1.2,.6,1.6c.4,.5,1,.7,1.6,.7Z" class="g1_256"/>
<path d="M219,264.1c.6,0,1.2,-.2,1.6,-.7c.4,-.4,.7,-1,.7,-1.6c0,-.6,-.3,-1.1,-.7,-1.6c-.4,-.4,-1,-.6,-1.6,-.6c-.6,0,-1.2,.2,-1.6,.6c-.4,.5,-.6,1,-.6,1.6c0,.6,.2,1.2,.6,1.6c.4,.5,1,.7,1.6,.7Z" class="g2_256"/>
<path d="M316.7,218.6c.6,0,1.2,-.2,1.6,-.7c.5,-.4,.7,-1,.7,-1.6c0,-.6,-.2,-1.1,-.7,-1.6c-.4,-.4,-1,-.6,-1.6,-.6c-.6,0,-1.1,.2,-1.6,.6c-.4,.5,-.6,1,-.6,1.6c0,.6,.2,1.2,.6,1.6c.5,.5,1,.7,1.6,.7Z" class="g1_256"/>
<path d="M316.7,218.6c.6,0,1.2,-.2,1.6,-.7c.5,-.4,.7,-1,.7,-1.6c0,-.6,-.2,-1.1,-.7,-1.6c-.4,-.4,-1,-.6,-1.6,-.6c-.6,0,-1.1,.2,-1.6,.6c-.4,.5,-.6,1,-.6,1.6c0,.6,.2,1.2,.6,1.6c.5,.5,1,.7,1.6,.7Z" class="g2_256"/>
<path d="M390,332.4c.6,0,1.2,-.3,1.6,-.7c.5,-.4,.7,-1,.7,-1.6c0,-.6,-.2,-1.2,-.7,-1.6c-.4,-.4,-1,-.6,-1.6,-.6c-.6,0,-1.1,.2,-1.6,.6c-.4,.4,-.6,1,-.6,1.6c0,.6,.2,1.2,.6,1.6c.5,.4,1,.7,1.6,.7Z" class="g1_256"/>
<path d="M390,332.4c.6,0,1.2,-.3,1.6,-.7c.5,-.4,.7,-1,.7,-1.6c0,-.6,-.2,-1.2,-.7,-1.6c-.4,-.4,-1,-.6,-1.6,-.6c-.6,0,-1.1,.2,-1.6,.6c-.4,.4,-.6,1,-.6,1.6c0,.6,.2,1.2,.6,1.6c.5,.4,1,.7,1.6,.7Z" class="g2_256"/>
<path d="M145.7,407.5V207.2" class="g3_256"/>
<path d="M145.7,407.5v2.6" class="g4_256"/>
<path d="M142.1,412.9c.7,0,1.1,.2,1.4,.7c.4,.5,.5,1.2,.5,2.1c0,.9,-.1,1.7,-.5,2.1c-.3,.5,-.7,.8,-1.4,.8c-.6,0,-1,-.3,-1.4,-.8c-.3,-.4,-.5,-1.2,-.5,-2.1c0,-.9,.2,-1.6,.5,-2.1c.4,-.5,.8,-.7,1.4,-.7Zm0,.6c-.3,0,-.6,.2,-.8,.5c-.2,.4,-.3,1,-.3,1.7c0,.8,.1,1.3,.3,1.7c.2,.4,.5,.6,.8,.6c.4,0,.7,-.2,.9,-.6c.2,-.4,.3,-.9,.3,-1.7c0,-.7,-.1,-1.3,-.3,-1.7c-.2,-.3,-.5,-.5,-.9,-.5Z" class="g5_256"/>
<path d="M145.3,418.5h.8v-1h-.8Z" class="g5_256"/>
<path d="M149.3,412.9c.6,0,1.1,.2,1.4,.7c.4,.5,.5,1.2,.5,2.1c0,.9,-.1,1.7,-.5,2.1c-.3,.5,-.8,.8,-1.4,.8c-.6,0,-1.1,-.3,-1.4,-.8c-.3,-.4,-.5,-1.2,-.5,-2.1c0,-.9,.2,-1.6,.5,-2.1c.3,-.5,.8,-.7,1.4,-.7Zm0,.6c-.4,0,-.7,.2,-.8,.5c-.2,.4,-.3,1,-.3,1.7c0,.8,.1,1.3,.3,1.7c.1,.4,.4,.6,.8,.6c.4,0,.7,-.2,.9,-.6c.2,-.4,.3,-.9,.3,-1.7c0,-.7,-.1,-1.3,-.3,-1.7c-.2,-.3,-.5,-.5,-.9,-.5Z" class="g5_256"/>
<path d="M194.6,407.5V207.2" class="g3_256"/>
<path d="M194.6,407.5v2.6" class="g4_256"/>
<path d="M191,412.9c.6,0,1.1,.2,1.4,.7c.3,.5,.5,1.2,.5,2.1c0,.9,-.2,1.7,-.5,2.1c-.3,.5,-.8,.8,-1.4,.8c-.6,0,-1.1,-.3,-1.4,-.8c-.3,-.4,-.5,-1.2,-.5,-2.1c0,-.9,.2,-1.6,.5,-2.1c.3,-.5,.8,-.7,1.4,-.7Zm0,.6c-.4,0,-.7,.2,-.9,.5c-.2,.4,-.3,1,-.3,1.7c0,.8,.1,1.3,.3,1.7c.2,.4,.5,.6,.9,.6c.4,0,.7,-.2,.9,-.6c.2,-.4,.3,-.9,.3,-1.7c0,-.7,-.1,-1.3,-.3,-1.7c-.2,-.3,-.5,-.5,-.9,-.5Z" class="g5_256"/>
<path d="M194.2,418.5h.8v-1h-.8Z" class="g5_256"/>
<path d="M197.2,417.8h2.6v.7h-3.5v-.7c.3,-.3,.7,-.6,1.2,-1.1c.5,-.5,.8,-.8,.9,-1c.2,-.3,.4,-.5,.5,-.7c.1,-.2,.1,-.3,.1,-.5c0,-.3,-.1,-.5,-.3,-.7c-.2,-.2,-.4,-.3,-.8,-.3c-.2,0,-.4,0,-.7,.1c-.3,.1,-.5,.2,-.8,.4v-.8c.3,-.1,.6,-.2,.8,-.2c.3,-.1,.5,-.1,.7,-.1c.6,0,1,.1,1.4,.4c.3,.3,.5,.7,.5,1.1c0,.3,-.1,.5,-.1,.7c-.1,.2,-.3,.4,-.5,.7c-.1,.1,-.3,.3,-.6,.6c-.3,.4,-.8,.8,-1.4,1.4Z" class="g5_256"/>
<path d="M243.5,407.5V207.2" class="g3_256"/>
<path d="M243.5,407.5v2.6" class="g4_256"/>
<path d="M239.9,412.9c.6,0,1,.2,1.4,.7c.3,.5,.5,1.2,.5,2.1c0,.9,-.2,1.7,-.5,2.1c-.4,.5,-.8,.8,-1.4,.8c-.7,0,-1.1,-.3,-1.5,-.8c-.3,-.4,-.4,-1.2,-.4,-2.1c0,-.9,.1,-1.6,.4,-2.1c.4,-.5,.8,-.7,1.5,-.7Zm0,.6c-.4,0,-.7,.2,-.9,.5c-.2,.4,-.3,1,-.3,1.7c0,.8,.1,1.3,.3,1.7c.2,.4,.5,.6,.9,.6c.3,0,.6,-.2,.8,-.6c.2,-.4,.3,-.9,.3,-1.7c0,-.7,-.1,-1.3,-.3,-1.7c-.2,-.3,-.5,-.5,-.8,-.5Z" class="g5_256"/>
<path d="M243.1,418.5h.7v-1h-.7Z" class="g5_256"/>
<path d="M247.3,413h.9v3.5h.8v.7h-.8v1.3h-.7v-1.3H245v-.7l2.3,-3.5Zm.2,.6l-1.9,2.9h1.9v-2.9Z" class="g5_256"/>
<path d="M292.3,407.5V207.2" class="g3_256"/>
<path d="M292.3,407.5v2.6" class="g4_256"/>
<path d="M288.7,412.9c.6,0,1.1,.2,1.4,.7c.4,.5,.5,1.2,.5,2.1c0,.9,-.1,1.7,-.5,2.1c-.3,.5,-.8,.8,-1.4,.8c-.6,0,-1.1,-.3,-1.4,-.8c-.3,-.4,-.5,-1.2,-.5,-2.1c0,-.9,.2,-1.6,.5,-2.1c.3,-.5,.8,-.7,1.4,-.7Zm0,.6c-.4,0,-.6,.2,-.8,.5c-.2,.4,-.3,1,-.3,1.7c0,.8,.1,1.3,.3,1.7c.2,.4,.4,.6,.8,.6c.4,0,.7,-.2,.9,-.6c.2,-.4,.3,-.9,.3,-1.7c0,-.7,-.1,-1.3,-.3,-1.7c-.2,-.3,-.5,-.5,-.9,-.5Z" class="g5_256"/>
<path d="M291.9,418.5h.8v-1h-.8Z" class="g5_256"/>
<path d="M297.5,413.1v.7c-.2,-.1,-.4,-.2,-.6,-.2c-.2,-.1,-.4,-.1,-.6,-.1c-.5,0,-.8,.2,-1.1,.5c-.2,.3,-.4,.8,-.4,1.5c.1,-.2,.3,-.4,.5,-.5c.2,-.1,.5,-.2,.7,-.2c.6,0,1,.2,1.3,.5c.4,.4,.5,.8,.5,1.4c0,.6,-.1,1,-.5,1.4c-.3,.3,-.8,.5,-1.3,.5c-.6,0,-1.1,-.3,-1.5,-.8c-.3,-.4,-.5,-1.2,-.5,-2.1c0,-.8,.2,-1.5,.7,-2.1c.4,-.5,.9,-.7,1.6,-.7c.2,0,.4,0,.6,0c.2,.1,.4,.1,.6,.2Zm-1.5,2.3c-.3,0,-.6,.1,-.8,.4c-.2,.2,-.3,.5,-.3,.9c0,.4,.1,.7,.3,.9c.2,.3,.5,.4,.8,.4c.3,0,.6,-.1,.8,-.4c.2,-.2,.3,-.5,.3,-.9c0,-.4,-.1,-.7,-.3,-.9c-.2,-.3,-.5,-.4,-.8,-.4Z" class="g5_256"/>
<path d="M341.2,407.5V207.2" class="g3_256"/>
<path d="M341.2,407.5v2.6" class="g4_256"/>
<path d="M337.6,412.9c.6,0,1.1,.2,1.4,.7c.3,.5,.5,1.2,.5,2.1c0,.9,-.2,1.7,-.5,2.1c-.3,.5,-.8,.8,-1.4,.8c-.6,0,-1.1,-.3,-1.4,-.8c-.4,-.4,-.5,-1.2,-.5,-2.1c0,-.9,.1,-1.6,.5,-2.1c.3,-.5,.8,-.7,1.4,-.7Zm0,.6c-.4,0,-.7,.2,-.9,.5c-.2,.4,-.3,1,-.3,1.7c0,.8,.1,1.3,.3,1.7c.2,.4,.5,.6,.9,.6c.4,0,.7,-.2,.8,-.6c.2,-.4,.3,-.9,.3,-1.7c0,-.7,-.1,-1.3,-.3,-1.7c-.1,-.3,-.4,-.5,-.8,-.5Z" class="g5_256"/>
<path d="M340.8,418.5h.8v-1h-.8Z" class="g5_256"/>
<path d="M343.7,414.4c0,.3,.1,.5,.3,.6c.2,.2,.4,.3,.8,.3c.3,0,.5,-.1,.7,-.3c.2,-.1,.3,-.3,.3,-.6c0,-.3,-.1,-.5,-.3,-.7c-.2,-.2,-.4,-.2,-.7,-.2c-.4,0,-.6,0,-.8,.2c-.2,.2,-.3,.4,-.3,.7Zm.3,1.1c-.3,0,-.5,-.2,-.7,-.4c-.2,-.2,-.3,-.5,-.3,-.8c0,-.4,.2,-.8,.5,-1c.3,-.3,.7,-.4,1.3,-.4c.5,0,.9,.1,1.2,.4c.4,.2,.5,.6,.5,1c0,.3,-.1,.6,-.3,.8c-.1,.2,-.4,.4,-.7,.4c.4,.1,.6,.3,.8,.5c.2,.3,.3,.6,.3,.9c0,.5,-.1,1,-.4,1.2c-.4,.3,-.8,.5,-1.4,.5c-.6,0,-1.1,-.2,-1.4,-.5c-.4,-.2,-.5,-.7,-.5,-1.2c0,-.3,.1,-.6,.3,-.9c.2,-.2,.5,-.4,.8,-.5Zm.8,.4c-.4,0,-.7,0,-.9,.2c-.2,.2,-.3,.5,-.3,.8c0,.3,.1,.6,.3,.8c.2,.2,.5,.3,.9,.3c.3,0,.6,-.1,.8,-.3c.2,-.2,.3,-.5,.3,-.8c0,-.3,-.1,-.6,-.3,-.8c-.2,-.2,-.5,-.2,-.8,-.2Z" class="g5_256"/>
<path d="M390,407.5V207.2" class="g3_256"/>
<path d="M390,407.5v2.6" class="g4_256"/>
<path d="M385,417.8h1.2v-4.1l-1.3,.2v-.7l1.3,-.2h.7v4.8h1.2v.7H385v-.7Z" class="g5_256"/>
<path d="M389.6,418.5h.8v-1h-.8Z" class="g5_256"/>
<path d="M393.6,412.9c.6,0,1.1,.2,1.4,.7c.4,.5,.5,1.2,.5,2.1c0,.9,-.1,1.7,-.5,2.1c-.3,.5,-.8,.8,-1.4,.8c-.6,0,-1.1,-.3,-1.4,-.8c-.3,-.4,-.5,-1.2,-.5,-2.1c0,-.9,.2,-1.6,.5,-2.1c.3,-.5,.8,-.7,1.4,-.7Zm0,.6c-.4,0,-.7,.2,-.8,.5c-.2,.4,-.3,1,-.3,1.7c0,.8,.1,1.3,.3,1.7c.1,.4,.4,.6,.8,.6c.4,0,.7,-.2,.9,-.6c.2,-.4,.3,-.9,.3,-1.7c0,-.7,-.1,-1.3,-.3,-1.7c-.2,-.3,-.5,-.5,-.9,-.5Z" class="g5_256"/>
<path d="M269.8,424.6l-1.5,2l1.6,2.2h-.8l-1.2,-1.7l-1.2,1.7h-.8l1.6,-2.2l-1.5,-2h.8l1.1,1.5l1.1,-1.5h.8Z" class="g5_256"/>
<path d="M133.5,398.4H402.2" class="g3_256"/>
<path d="M133.5,398.4h-2.6" class="g4_256"/>
<path d="M118.7,395.6c.6,0,1.1,.3,1.4,.8c.3,.5,.5,1.2,.5,2.1c0,.9,-.2,1.6,-.5,2.1c-.3,.5,-.8,.7,-1.4,.7c-.6,0,-1.1,-.2,-1.4,-.7c-.4,-.5,-.5,-1.2,-.5,-2.1c0,-.9,.1,-1.6,.5,-2.1c.3,-.5,.8,-.8,1.4,-.8Zm0,.6c-.4,0,-.7,.2,-.9,.6c-.2,.4,-.3,.9,-.3,1.7c0,.7,.1,1.3,.3,1.7c.2,.4,.5,.6,.9,.6c.4,0,.6,-.2,.8,-.6c.2,-.4,.3,-1,.3,-1.7c0,-.8,-.1,-1.3,-.3,-1.7c-.2,-.4,-.4,-.6,-.8,-.6Z" class="g5_256"/>
<path d="M121.9,401.2h.7v-.9h-.7Z" class="g5_256"/>
<path d="M124.9,400.6h2.6v.6H124v-.6c.3,-.3,.7,-.7,1.2,-1.2c.5,-.5,.8,-.8,.9,-.9c.2,-.3,.4,-.5,.5,-.7c.1,-.2,.1,-.4,.1,-.5c0,-.3,-.1,-.6,-.3,-.8c-.2,-.1,-.5,-.2,-.8,-.2c-.2,0,-.5,0,-.7,.1c-.3,.1,-.6,.2,-.8,.4V396c.2,-.1,.5,-.2,.8,-.3c.2,0,.5,-.1,.7,-.1c.6,0,1,.2,1.4,.5c.3,.3,.5,.6,.5,1.1c0,.2,-.1,.5,-.2,.7c0,.2,-.2,.4,-.4,.7c-.1,0,-.3,.2,-.6,.6c-.3,.3,-.8,.8,-1.4,1.4Z" class="g5_256"/>
<path d="M133.5,375.6H402.2" class="g3_256"/>
<path d="M133.5,375.6h-2.6" class="g4_256"/>
<path d="M118.7,372.9c.6,0,1.1,.2,1.4,.7c.3,.5,.5,1.2,.5,2.1c0,1,-.2,1.7,-.5,2.2c-.3,.4,-.8,.7,-1.4,.7c-.6,0,-1.1,-.3,-1.4,-.7c-.4,-.5,-.5,-1.2,-.5,-2.2c0,-.9,.1,-1.6,.5,-2.1c.3,-.5,.8,-.7,1.4,-.7Zm0,.6c-.4,0,-.7,.2,-.9,.5c-.2,.4,-.3,1,-.3,1.7c0,.8,.1,1.4,.3,1.7c.2,.4,.5,.6,.9,.6c.4,0,.6,-.2,.8,-.6c.2,-.3,.3,-.9,.3,-1.7c0,-.7,-.1,-1.3,-.3,-1.7c-.2,-.3,-.4,-.5,-.8,-.5Z" class="g5_256"/>
<path d="M121.9,378.5h.7v-1h-.7Z" class="g5_256"/>
<path d="M126.5,375.5c.4,.1,.6,.3,.8,.5c.2,.2,.3,.5,.3,.9c0,.5,-.1,.9,-.5,1.2c-.4,.3,-.9,.5,-1.6,.5c-.2,0,-.5,0,-.7,-.1c-.3,0,-.5,-.1,-.8,-.2v-.7c.2,.1,.5,.2,.7,.3c.3,0,.5,.1,.8,.1c.4,0,.8,-.1,1,-.3c.3,-.2,.4,-.5,.4,-.8c0,-.3,-.1,-.6,-.3,-.8c-.3,-.2,-.6,-.2,-1,-.2H125v-.7h.7c.3,0,.6,0,.8,-.2c.2,-.1,.3,-.3,.3,-.6c0,-.3,-.1,-.5,-.3,-.7c-.2,-.1,-.5,-.2,-.9,-.2c-.2,0,-.4,0,-.6,.1c-.3,0,-.5,.1,-.8,.2v-.7c.3,-.1,.5,-.1,.8,-.1c.2,-.1,.5,-.1,.7,-.1c.6,0,1,.1,1.3,.4c.4,.2,.5,.6,.5,1c0,.3,-.1,.6,-.2,.8c-.2,.2,-.5,.3,-.8,.4Z" class="g5_256"/>
<path d="M133.5,352.9H402.2" class="g3_256"/>
<path d="M133.5,352.9h-2.6" class="g4_256"/>
<path d="M118.7,350.1c.6,0,1.1,.3,1.4,.8c.3,.5,.5,1.2,.5,2.1c0,.9,-.2,1.6,-.5,2.1c-.3,.5,-.8,.7,-1.4,.7c-.6,0,-1.1,-.2,-1.4,-.7c-.4,-.5,-.5,-1.2,-.5,-2.1c0,-.9,.1,-1.6,.5,-2.1c.3,-.5,.8,-.8,1.4,-.8Zm0,.6c-.4,0,-.7,.2,-.9,.6c-.2,.4,-.3,.9,-.3,1.7c0,.7,.1,1.3,.3,1.7c.2,.4,.5,.5,.9,.5c.4,0,.6,-.1,.8,-.5c.2,-.4,.3,-1,.3,-1.7c0,-.8,-.1,-1.3,-.3,-1.7c-.2,-.4,-.4,-.6,-.8,-.6Z" class="g5_256"/>
<path d="M121.9,355.7h.7v-.9h-.7Z" class="g5_256"/>
<path d="M126.1,350.2h.9v3.6h.8v.6H127v1.3h-.7v-1.3h-2.5v-.7l2.3,-3.5Zm.2,.7l-1.9,2.9h1.9v-2.9Z" class="g5_256"/>
<path d="M133.5,330.1H402.2" class="g3_256"/>
<path d="M133.5,330.1h-2.6" class="g4_256"/>
<path d="M118.7,327.4c.6,0,1.1,.2,1.4,.7c.3,.5,.5,1.2,.5,2.1c0,1,-.2,1.7,-.5,2.1c-.3,.5,-.8,.8,-1.4,.8c-.6,0,-1.1,-.3,-1.4,-.8c-.4,-.4,-.5,-1.1,-.5,-2.1c0,-.9,.1,-1.6,.5,-2.1c.3,-.5,.8,-.7,1.4,-.7Zm0,.6c-.4,0,-.7,.2,-.9,.5c-.2,.4,-.3,1,-.3,1.7c0,.8,.1,1.3,.3,1.7c.2,.4,.5,.6,.9,.6c.4,0,.6,-.2,.8,-.6c.2,-.4,.3,-.9,.3,-1.7c0,-.7,-.1,-1.3,-.3,-1.7c-.2,-.3,-.4,-.5,-.8,-.5Z" class="g5_256"/>
<path d="M121.9,333h.7v-1h-.7Z" class="g5_256"/>
<path d="M124.3,327.5h2.9v.6H125v1.4c.1,-.1,.2,-.1,.3,-.1c.1,-.1,.2,-.1,.3,-.1c.6,0,1.1,.2,1.5,.5c.3,.4,.5,.8,.5,1.4c0,.6,-.2,1.1,-.6,1.4c-.3,.3,-.8,.5,-1.5,.5c-.2,0,-.5,0,-.7,-.1c-.3,0,-.5,-.1,-.8,-.2v-.7c.3,.1,.5,.2,.7,.3c.3,0,.5,0,.8,0c.4,0,.7,-.1,1,-.3c.2,-.2,.3,-.5,.3,-.9c0,-.4,-.1,-.7,-.3,-.9c-.3,-.2,-.6,-.3,-1,-.3c-.2,0,-.4,0,-.6,0c-.2,.1,-.4,.1,-.6,.2v-2.7Z" class="g5_256"/>
<path d="M133.5,307.4H402.2" class="g3_256"/>
<path d="M133.5,307.4h-2.6" class="g4_256"/>
<path d="M118.7,304.6c.6,0,1.1,.3,1.4,.8c.3,.4,.5,1.1,.5,2.1c0,.9,-.2,1.6,-.5,2.1c-.3,.5,-.8,.7,-1.4,.7c-.6,0,-1.1,-.2,-1.4,-.7c-.4,-.5,-.5,-1.2,-.5,-2.1c0,-1,.1,-1.7,.5,-2.1c.3,-.5,.8,-.8,1.4,-.8Zm0,.6c-.4,0,-.7,.2,-.9,.6c-.2,.4,-.3,.9,-.3,1.7c0,.7,.1,1.3,.3,1.7c.2,.3,.5,.5,.9,.5c.4,0,.6,-.2,.8,-.5c.2,-.4,.3,-1,.3,-1.7c0,-.8,-.1,-1.3,-.3,-1.7c-.2,-.4,-.4,-.6,-.8,-.6Z" class="g5_256"/>
<path d="M121.9,310.2h.7v-.9h-.7Z" class="g5_256"/>
<path d="M127.4,304.8v.7c-.2,-.1,-.4,-.1,-.5,-.2c-.2,0,-.4,-.1,-.6,-.1c-.5,0,-.9,.2,-1.1,.5c-.3,.4,-.4,.9,-.5,1.5c.2,-.2,.4,-.3,.6,-.4c.2,-.2,.4,-.2,.7,-.2c.5,0,1,.2,1.3,.5c.3,.3,.5,.8,.5,1.4c0,.5,-.2,1,-.5,1.3c-.4,.3,-.8,.5,-1.4,.5c-.6,0,-1.1,-.2,-1.4,-.7c-.3,-.5,-.5,-1.2,-.5,-2.1c0,-.9,.2,-1.6,.6,-2.1c.4,-.5,1,-.8,1.7,-.8c.1,0,.3,0,.5,.1c.2,0,.4,.1,.6,.1Zm-1.5,2.4c-.3,0,-.6,.1,-.7,.3c-.2,.2,-.3,.6,-.3,1c0,.3,.1,.7,.3,.9c.1,.2,.4,.3,.7,.3c.4,0,.6,-.1,.8,-.3c.2,-.2,.3,-.6,.3,-.9c0,-.4,-.1,-.8,-.3,-1c-.2,-.2,-.4,-.3,-.8,-.3Z" class="g5_256"/>
<path d="M133.5,284.6H402.2" class="g3_256"/>
<path d="M133.5,284.6h-2.6" class="g4_256"/>
<path d="M118.7,281.9c.6,0,1.1,.2,1.4,.7c.3,.5,.5,1.2,.5,2.1c0,.9,-.2,1.6,-.5,2.1c-.3,.5,-.8,.8,-1.4,.8c-.6,0,-1.1,-.3,-1.4,-.8c-.4,-.5,-.5,-1.2,-.5,-2.1c0,-.9,.1,-1.6,.5,-2.1c.3,-.5,.8,-.7,1.4,-.7Zm0,.6c-.4,0,-.7,.1,-.9,.5c-.2,.4,-.3,1,-.3,1.7c0,.8,.1,1.3,.3,1.7c.2,.4,.5,.6,.9,.6c.4,0,.6,-.2,.8,-.6c.2,-.4,.3,-.9,.3,-1.7c0,-.7,-.1,-1.3,-.3,-1.7c-.2,-.4,-.4,-.5,-.8,-.5Z" class="g5_256"/>
<path d="M121.9,287.5h.7v-1h-.7Z" class="g5_256"/>
<path d="M124.1,282h3.5v.3l-2,5.2h-.8l1.9,-4.9h-2.6V282Z" class="g5_256"/>
<path d="M133.5,261.8H402.2" class="g3_256"/>
<path d="M133.5,261.8h-2.6" class="g4_256"/>
<path d="M118.7,259.1c.6,0,1.1,.3,1.4,.7c.3,.5,.5,1.2,.5,2.2c0,.9,-.2,1.6,-.5,2.1c-.3,.5,-.8,.7,-1.4,.7c-.6,0,-1.1,-.2,-1.4,-.7c-.4,-.5,-.5,-1.2,-.5,-2.1c0,-1,.1,-1.7,.5,-2.2c.3,-.4,.8,-.7,1.4,-.7Zm0,.6c-.4,0,-.7,.2,-.9,.6c-.2,.3,-.3,.9,-.3,1.7c0,.7,.1,1.3,.3,1.7c.2,.3,.5,.5,.9,.5c.4,0,.6,-.2,.8,-.5c.2,-.4,.3,-1,.3,-1.7c0,-.8,-.1,-1.4,-.3,-1.7c-.2,-.4,-.4,-.6,-.8,-.6Z" class="g5_256"/>
<path d="M121.9,264.7h.7v-.9h-.7Z" class="g5_256"/>
<path d="M124.8,260.6c0,.3,.1,.5,.3,.7c.2,.1,.4,.2,.8,.2c.3,0,.5,-.1,.7,-.2c.2,-.2,.3,-.4,.3,-.7c0,-.3,-.1,-.5,-.3,-.7c-.2,-.1,-.4,-.2,-.7,-.2c-.4,0,-.6,.1,-.8,.2c-.2,.2,-.3,.4,-.3,.7Zm.3,1.2c-.3,-.1,-.6,-.2,-.7,-.5c-.2,-.2,-.3,-.4,-.3,-.8c0,-.4,.2,-.7,.5,-1c.3,-.3,.7,-.4,1.3,-.4c.5,0,.9,.1,1.2,.4c.4,.3,.5,.6,.5,1c0,.4,-.1,.6,-.3,.8c-.1,.3,-.4,.4,-.7,.5c.4,.1,.6,.2,.8,.5c.2,.2,.3,.5,.3,.9c0,.5,-.1,.9,-.5,1.2c-.3,.3,-.7,.4,-1.3,.4c-.6,0,-1.1,-.1,-1.4,-.4c-.4,-.3,-.5,-.7,-.5,-1.2c0,-.4,.1,-.7,.3,-.9c.2,-.3,.5,-.4,.8,-.5Zm.8,.3c-.4,0,-.7,.1,-.9,.3c-.2,.2,-.3,.4,-.3,.8c0,.3,.1,.5,.3,.7c.2,.2,.5,.3,.9,.3c.3,0,.6,-.1,.8,-.3c.2,-.2,.3,-.4,.3,-.7c0,-.4,-.1,-.6,-.3,-.8c-.2,-.2,-.5,-.3,-.8,-.3Z" class="g5_256"/>
<path d="M133.5,239.1H402.2" class="g3_256"/>
<path d="M133.5,239.1h-2.6" class="g4_256"/>
<path d="M118.7,236.4c.6,0,1.1,.2,1.4,.7c.3,.5,.5,1.2,.5,2.1c0,.9,-.2,1.6,-.5,2.1c-.3,.5,-.8,.8,-1.4,.8c-.6,0,-1.1,-.3,-1.4,-.8c-.4,-.5,-.5,-1.2,-.5,-2.1c0,-.9,.1,-1.6,.5,-2.1c.3,-.5,.8,-.7,1.4,-.7Zm0,.5c-.4,0,-.7,.2,-.9,.6c-.2,.4,-.3,1,-.3,1.7c0,.8,.1,1.3,.3,1.7c.2,.4,.5,.6,.9,.6c.4,0,.6,-.2,.8,-.6c.2,-.4,.3,-.9,.3,-1.7c0,-.7,-.1,-1.3,-.3,-1.7c-.2,-.4,-.4,-.6,-.8,-.6Z" class="g5_256"/>
<path d="M121.9,241.9h.7V241h-.7Z" class="g5_256"/>
<path d="M125.8,239.5c.3,0,.6,-.1,.8,-.3c.2,-.3,.2,-.6,.2,-1c0,-.4,0,-.7,-.2,-.9c-.2,-.2,-.5,-.4,-.8,-.4c-.4,0,-.6,.2,-.8,.4c-.2,.2,-.3,.5,-.3,.9c0,.4,.1,.7,.3,1c.2,.2,.4,.3,.8,.3Zm-1.5,2.3v-.6c.2,0,.4,.1,.6,.2c.1,0,.3,0,.5,0c.5,0,.9,-.1,1.1,-.5c.3,-.3,.4,-.8,.5,-1.5c-.2,.2,-.3,.4,-.6,.5c-.2,.1,-.4,.2,-.7,.2c-.5,0,-1,-.2,-1.3,-.5c-.3,-.3,-.5,-.8,-.5,-1.4c0,-.5,.2,-1,.5,-1.3c.4,-.4,.8,-.5,1.4,-.5c.6,0,1.1,.2,1.4,.7c.4,.5,.5,1.2,.5,2.1c0,.9,-.2,1.6,-.6,2.1c-.4,.5,-1,.8,-1.6,.8c-.2,0,-.4,-.1,-.6,-.1c-.2,0,-.4,-.1,-.6,-.2Z" class="g5_256"/>
<path d="M133.5,216.3H402.2" class="g3_256"/>
<path d="M133.5,216.3h-2.6" class="g4_256"/>
<path d="M117.2,218.6h1.2v-4.2l-1.3,.2V214l1.3,-.3h.8v4.9h1.2v.6h-3.2v-.6Z" class="g5_256"/>
<path d="M121.9,219.2h.7v-.9h-.7Z" class="g5_256"/>
<path d="M125.9,213.6c.6,0,1,.2,1.4,.7c.3,.5,.4,1.2,.4,2.2c0,.9,-.1,1.6,-.4,2.1c-.4,.5,-.8,.7,-1.4,.7c-.7,0,-1.1,-.2,-1.5,-.7c-.3,-.5,-.4,-1.2,-.4,-2.1c0,-1,.1,-1.7,.4,-2.2c.4,-.5,.8,-.7,1.5,-.7Zm0,.6c-.4,0,-.7,.2,-.9,.6c-.2,.3,-.3,.9,-.3,1.7c0,.7,.1,1.3,.3,1.6c.2,.4,.5,.6,.9,.6c.3,0,.6,-.2,.8,-.6c.2,-.3,.3,-.9,.3,-1.6c0,-.8,-.1,-1.4,-.3,-1.7c-.2,-.4,-.5,-.6,-.8,-.6Z" class="g5_256"/>
<path d="M112.1,307.2c.5,.1,.8,.3,.9,.5c.2,.2,.3,.4,.3,.7v.6h-.6v-.4c0,-.2,0,-.3,-.1,-.4c-.1,-.1,-.3,-.3,-.7,-.4l-.3,-.1l-4,1.7v-.8l3.2,-1.2l-3.2,-1.3v-.8l4.5,1.9Z" class="g5_256"/>
<path d="M145.7,398.4l2.2,-4.1l2.3,-4C175.3,345.4,215,289.8,265.3,271.3l2.6,-.9l2.5,-.8c49.6,-15,88.2,14.7,115.2,53.9l2.2,3.2l2.2,3.4" class="g6_256"/>
<path d="M133.5,407.5V207.2M402.2,407.5V207.2M133.5,407.5H402.2M133.5,207.2H402.2" class="g7_256"/>
<path d="M247.1,195.9c-.4,.6,-.7,1.3,-.9,2c-.2,.6,-.3,1.3,-.3,2c0,.7,.1,1.3,.3,2c.2,.7,.5,1.3,.9,2h-.7c-.5,-.7,-.8,-1.4,-1,-2c-.3,-.7,-.4,-1.4,-.4,-2c0,-.7,.1,-1.3,.4,-2c.2,-.7,.5,-1.3,1,-2h.7Z" class="g5_256"/>
<path d="M248.9,202h1.5v-5.1l-1.6,.4v-.9l1.5,-.3h.9V202h1.5v.7h-3.8V202Z" class="g5_256"/>
<path d="M254.6,201.6h.9v.8l-.7,1.4h-.6l.4,-1.4v-.8Z" class="g5_256"/>
<path d="M260.4,202h1.4v-5.1l-1.5,.4v-.9l1.5,-.3h.9V202h1.5v.7h-3.8V202Z" class="g5_256"/>
<path d="M266.1,201.6h.9v.8l-.7,1.4h-.6l.4,-1.4v-.8Z" class="g5_256"/>
<path d="M271.9,202h1.4v-5.1l-1.6,.4v-.9l1.6,-.3h.9V202h1.5v.7h-3.8V202Z" class="g5_256"/>
<path d="M277.6,201.6h.9v.8l-.7,1.4h-.6l.4,-1.4v-.8Z" class="g5_256"/>
<path d="M283.4,202h1.4v-5.1l-1.6,.4v-.9l1.6,-.3h.9V202h1.4v.7h-3.7V202Z" class="g5_256"/>
<path d="M288.7,195.9h.7c.5,.7,.8,1.3,1,2c.2,.7,.3,1.3,.3,2c0,.6,-.1,1.3,-.3,2c-.2,.6,-.5,1.3,-1,2h-.7c.4,-.7,.7,-1.3,.9,-2c.2,-.7,.3,-1.3,.3,-2c0,-.7,-.1,-1.4,-.3,-2c-.2,-.7,-.5,-1.4,-.9,-2Z" class="g5_256"/>
<path d="M441.4,407.5H710.1V207.2H441.4Z" class="g0_256"/>
<path d="M453.6,400.6c.6,0,1.2,-.2,1.6,-.6c.4,-.5,.7,-1,.7,-1.6c0,-.6,-.3,-1.2,-.7,-1.6c-.4,-.4,-1,-.7,-1.6,-.7c-.6,0,-1.2,.3,-1.6,.7c-.4,.4,-.7,1,-.7,1.6c0,.6,.3,1.1,.7,1.6c.4,.4,1,.6,1.6,.6Z" class="g1_256"/>
<path d="M453.6,400.6c.6,0,1.2,-.2,1.6,-.6c.4,-.5,.7,-1,.7,-1.6c0,-.6,-.3,-1.2,-.7,-1.6c-.4,-.4,-1,-.7,-1.6,-.7c-.6,0,-1.2,.3,-1.6,.7c-.4,.4,-.7,1,-.7,1.6c0,.6,.3,1.1,.7,1.6c.4,.4,1,.6,1.6,.6Z" class="g2_256"/>
<path d="M526.9,264.1c.6,0,1.2,-.2,1.6,-.7c.4,-.4,.7,-1,.7,-1.6c0,-.6,-.3,-1.1,-.7,-1.6c-.4,-.4,-1,-.6,-1.6,-.6c-.6,0,-1.2,.2,-1.6,.6c-.4,.5,-.7,1,-.7,1.6c0,.6,.3,1.2,.7,1.6c.4,.5,1,.7,1.6,.7Z" class="g1_256"/>
<path d="M526.9,264.1c.6,0,1.2,-.2,1.6,-.7c.4,-.4,.7,-1,.7,-1.6c0,-.6,-.3,-1.1,-.7,-1.6c-.4,-.4,-1,-.6,-1.6,-.6c-.6,0,-1.2,.2,-1.6,.6c-.4,.5,-.7,1,-.7,1.6c0,.6,.3,1.2,.7,1.6c.4,.5,1,.7,1.6,.7Z" class="g2_256"/>
<path d="M624.6,218.6c.6,0,1.2,-.2,1.6,-.7c.4,-.4,.7,-1,.7,-1.6c0,-.6,-.3,-1.1,-.7,-1.6c-.4,-.4,-1,-.6,-1.6,-.6c-.6,0,-1.2,.2,-1.6,.6c-.4,.5,-.6,1,-.6,1.6c0,.6,.2,1.2,.6,1.6c.4,.5,1,.7,1.6,.7Z" class="g1_256"/>
<path d="M624.6,218.6c.6,0,1.2,-.2,1.6,-.7c.4,-.4,.7,-1,.7,-1.6c0,-.6,-.3,-1.1,-.7,-1.6c-.4,-.4,-1,-.6,-1.6,-.6c-.6,0,-1.2,.2,-1.6,.6c-.4,.5,-.6,1,-.6,1.6c0,.6,.2,1.2,.6,1.6c.4,.5,1,.7,1.6,.7Z" class="g2_256"/>
<path d="M697.9,332.4c.6,0,1.2,-.3,1.6,-.7c.4,-.4,.7,-1,.7,-1.6c0,-.6,-.3,-1.2,-.7,-1.6c-.4,-.4,-1,-.6,-1.6,-.6c-.6,0,-1.2,.2,-1.6,.6c-.4,.4,-.7,1,-.7,1.6c0,.6,.3,1.2,.7,1.6c.4,.4,1,.7,1.6,.7Z" class="g1_256"/>
<path d="M697.9,332.4c.6,0,1.2,-.3,1.6,-.7c.4,-.4,.7,-1,.7,-1.6c0,-.6,-.3,-1.2,-.7,-1.6c-.4,-.4,-1,-.6,-1.6,-.6c-.6,0,-1.2,.2,-1.6,.6c-.4,.4,-.7,1,-.7,1.6c0,.6,.3,1.2,.7,1.6c.4,.4,1,.7,1.6,.7Z" class="g2_256"/>
<path d="M453.6,407.5V207.2" class="g3_256"/>
<path d="M453.6,407.5v2.6" class="g4_256"/>
<path d="M450,412.9c.6,0,1.1,.2,1.4,.7c.3,.5,.5,1.2,.5,2.1c0,.9,-.2,1.7,-.5,2.1c-.3,.5,-.8,.8,-1.4,.8c-.6,0,-1.1,-.3,-1.4,-.8c-.3,-.4,-.5,-1.2,-.5,-2.1c0,-.9,.2,-1.6,.5,-2.1c.3,-.5,.8,-.7,1.4,-.7Zm0,.6c-.4,0,-.7,.2,-.8,.5c-.2,.4,-.3,1,-.3,1.7c0,.8,.1,1.3,.3,1.7c.1,.4,.4,.6,.8,.6c.4,0,.7,-.2,.9,-.6c.2,-.4,.3,-.9,.3,-1.7c0,-.7,-.1,-1.3,-.3,-1.7c-.2,-.3,-.5,-.5,-.9,-.5Z" class="g5_256"/>
<path d="M453.2,418.5h.8v-1h-.8Z" class="g5_256"/>
<path d="M457.2,412.9c.6,0,1.1,.2,1.4,.7c.3,.5,.5,1.2,.5,2.1c0,.9,-.2,1.7,-.5,2.1c-.3,.5,-.8,.8,-1.4,.8c-.6,0,-1.1,-.3,-1.4,-.8c-.3,-.4,-.5,-1.2,-.5,-2.1c0,-.9,.2,-1.6,.5,-2.1c.3,-.5,.8,-.7,1.4,-.7Zm0,.6c-.4,0,-.7,.2,-.9,.5c-.2,.4,-.3,1,-.3,1.7c0,.8,.1,1.3,.3,1.7c.2,.4,.5,.6,.9,.6c.4,0,.7,-.2,.9,-.6c.2,-.4,.3,-.9,.3,-1.7c0,-.7,-.1,-1.3,-.3,-1.7c-.2,-.3,-.5,-.5,-.9,-.5Z" class="g5_256"/>
<path d="M502.5,407.5V207.2" class="g3_256"/>
<path d="M502.5,407.5v2.6" class="g4_256"/>
<path d="M498.9,412.9c.6,0,1.1,.2,1.4,.7c.3,.5,.5,1.2,.5,2.1c0,.9,-.2,1.7,-.5,2.1c-.3,.5,-.8,.8,-1.4,.8c-.6,0,-1.1,-.3,-1.4,-.8c-.4,-.4,-.5,-1.2,-.5,-2.1c0,-.9,.1,-1.6,.5,-2.1c.3,-.5,.8,-.7,1.4,-.7Zm0,.6c-.4,0,-.7,.2,-.9,.5c-.2,.4,-.3,1,-.3,1.7c0,.8,.1,1.3,.3,1.7c.2,.4,.5,.6,.9,.6c.4,0,.6,-.2,.8,-.6c.2,-.4,.3,-.9,.3,-1.7c0,-.7,-.1,-1.3,-.3,-1.7c-.2,-.3,-.4,-.5,-.8,-.5Z" class="g5_256"/>
<path d="M502.1,418.5h.8v-1h-.8Z" class="g5_256"/>
<path d="M505.1,417.8h2.6v.7h-3.5v-.7c.3,-.3,.7,-.6,1.2,-1.1c.5,-.5,.8,-.8,.9,-1c.2,-.3,.4,-.5,.5,-.7c.1,-.2,.1,-.3,.1,-.5c0,-.3,-.1,-.5,-.3,-.7c-.2,-.2,-.5,-.3,-.8,-.3c-.2,0,-.5,0,-.7,.1c-.3,.1,-.6,.2,-.8,.4v-.8c.3,-.1,.5,-.2,.8,-.2c.2,-.1,.5,-.1,.7,-.1c.6,0,1,.1,1.4,.4c.3,.3,.5,.7,.5,1.1c0,.3,-.1,.5,-.2,.7c0,.2,-.2,.4,-.4,.7c-.1,.1,-.3,.3,-.6,.6c-.3,.4,-.8,.8,-1.4,1.4Z" class="g5_256"/>
<path d="M551.3,407.5V207.2" class="g3_256"/>
<path d="M551.3,407.5v2.6" class="g4_256"/>
<path d="M547.7,412.9c.7,0,1.1,.2,1.4,.7c.4,.5,.5,1.2,.5,2.1c0,.9,-.1,1.7,-.5,2.1c-.3,.5,-.7,.8,-1.4,.8c-.6,0,-1.1,-.3,-1.4,-.8c-.3,-.4,-.5,-1.2,-.5,-2.1c0,-.9,.2,-1.6,.5,-2.1c.3,-.5,.8,-.7,1.4,-.7Zm0,.6c-.3,0,-.6,.2,-.8,.5c-.2,.4,-.3,1,-.3,1.7c0,.8,.1,1.3,.3,1.7c.2,.4,.5,.6,.8,.6c.4,0,.7,-.2,.9,-.6c.2,-.4,.3,-.9,.3,-1.7c0,-.7,-.1,-1.3,-.3,-1.7c-.2,-.3,-.5,-.5,-.9,-.5Z" class="g5_256"/>
<path d="M550.9,418.5h.8v-1h-.8Z" class="g5_256"/>
<path d="M555.2,413h.9v3.5h.8v.7h-.8v1.3h-.7v-1.3h-2.5v-.7l2.3,-3.5Zm.2,.6l-1.9,2.9h1.9v-2.9Z" class="g5_256"/>
<path d="M600.2,407.5V207.2" class="g3_256"/>
<path d="M600.2,407.5v2.6" class="g4_256"/>
<path d="M596.6,412.9c.6,0,1.1,.2,1.4,.7c.3,.5,.5,1.2,.5,2.1c0,.9,-.2,1.7,-.5,2.1c-.3,.5,-.8,.8,-1.4,.8c-.6,0,-1.1,-.3,-1.4,-.8c-.3,-.4,-.5,-1.2,-.5,-2.1c0,-.9,.2,-1.6,.5,-2.1c.3,-.5,.8,-.7,1.4,-.7Zm0,.6c-.4,0,-.7,.2,-.9,.5c-.2,.4,-.3,1,-.3,1.7c0,.8,.1,1.3,.3,1.7c.2,.4,.5,.6,.9,.6c.4,0,.7,-.2,.9,-.6c.2,-.4,.2,-.9,.2,-1.7c0,-.7,0,-1.3,-.2,-1.7c-.2,-.3,-.5,-.5,-.9,-.5Z" class="g5_256"/>
<path d="M599.8,418.5h.8v-1h-.8Z" class="g5_256"/>
<path d="M605.3,413.1v.7c-.1,-.1,-.3,-.2,-.5,-.2c-.2,-.1,-.4,-.1,-.6,-.1c-.5,0,-.9,.2,-1.1,.5c-.3,.3,-.4,.8,-.5,1.5c.2,-.2,.4,-.4,.6,-.5c.2,-.1,.4,-.2,.7,-.2c.6,0,1,.2,1.3,.5c.3,.4,.5,.8,.5,1.4c0,.6,-.2,1,-.5,1.4c-.3,.3,-.8,.5,-1.3,.5c-.7,0,-1.2,-.3,-1.5,-.8c-.3,-.4,-.5,-1.2,-.5,-2.1c0,-.8,.2,-1.5,.6,-2.1c.4,-.5,1,-.7,1.7,-.7c.2,0,.4,0,.5,0c.2,.1,.4,.1,.6,.2Zm-1.4,2.3c-.4,0,-.6,.1,-.8,.4c-.2,.2,-.3,.5,-.3,.9c0,.4,.1,.7,.3,.9c.2,.3,.4,.4,.8,.4c.3,0,.6,-.1,.8,-.4c.2,-.2,.2,-.5,.2,-.9c0,-.4,0,-.7,-.2,-.9c-.2,-.3,-.5,-.4,-.8,-.4Z" class="g5_256"/>
<path d="M649,407.5V207.2" class="g3_256"/>
<path d="M649,407.5v2.6" class="g4_256"/>
<path d="M645.5,412.9c.6,0,1,.2,1.4,.7c.3,.5,.5,1.2,.5,2.1c0,.9,-.2,1.7,-.5,2.1c-.4,.5,-.8,.8,-1.4,.8c-.7,0,-1.1,-.3,-1.5,-.8c-.3,-.4,-.4,-1.2,-.4,-2.1c0,-.9,.1,-1.6,.4,-2.1c.4,-.5,.8,-.7,1.5,-.7Zm0,.6c-.4,0,-.7,.2,-.9,.5c-.2,.4,-.3,1,-.3,1.7c0,.8,.1,1.3,.3,1.7c.2,.4,.5,.6,.9,.6c.3,0,.6,-.2,.8,-.6c.2,-.4,.3,-.9,.3,-1.7c0,-.7,-.1,-1.3,-.3,-1.7c-.2,-.3,-.5,-.5,-.8,-.5Z" class="g5_256"/>
<path d="M648.7,418.5h.7v-1h-.7Z" class="g5_256"/>
<path d="M651.6,414.4c0,.3,.1,.5,.3,.6c.2,.2,.4,.3,.7,.3c.4,0,.6,-.1,.8,-.3c.2,-.1,.3,-.3,.3,-.6c0,-.3,-.1,-.5,-.3,-.7c-.2,-.2,-.4,-.2,-.8,-.2c-.3,0,-.5,0,-.7,.2c-.2,.2,-.3,.4,-.3,.7Zm.3,1.1c-.3,0,-.6,-.2,-.8,-.4c-.1,-.2,-.2,-.5,-.2,-.8c0,-.4,.1,-.8,.4,-1c.4,-.3,.8,-.4,1.3,-.4c.6,0,1,.1,1.3,.4c.3,.2,.5,.6,.5,1c0,.3,-.1,.6,-.3,.8c-.2,.2,-.4,.4,-.7,.4c.3,.1,.6,.3,.8,.5c.2,.3,.3,.6,.3,.9c0,.5,-.1,1,-.5,1.2c-.3,.3,-.8,.5,-1.4,.5c-.6,0,-1,-.2,-1.4,-.5c-.3,-.2,-.4,-.7,-.4,-1.2c0,-.3,.1,-.6,.3,-.9c.2,-.2,.4,-.4,.8,-.5Zm.7,.4c-.3,0,-.6,0,-.8,.2c-.2,.2,-.3,.5,-.3,.8c0,.3,.1,.6,.3,.8c.2,.2,.5,.3,.8,.3c.4,0,.7,-.1,.9,-.3c.2,-.2,.3,-.5,.3,-.8c0,-.3,-.1,-.6,-.3,-.8c-.2,-.2,-.5,-.2,-.9,-.2Z" class="g5_256"/>
<path d="M697.9,407.5V207.2" class="g3_256"/>
<path d="M697.9,407.5v2.6" class="g4_256"/>
<path d="M692.9,417.8h1.2v-4.1l-1.4,.2v-.7l1.4,-.2h.7v4.8H696v.7h-3.1v-.7Z" class="g5_256"/>
<path d="M697.5,418.5h.8v-1h-.8Z" class="g5_256"/>
<path d="M701.5,412.9c.6,0,1.1,.2,1.4,.7c.3,.5,.5,1.2,.5,2.1c0,.9,-.2,1.7,-.5,2.1c-.3,.5,-.8,.8,-1.4,.8c-.6,0,-1.1,-.3,-1.4,-.8c-.3,-.4,-.5,-1.2,-.5,-2.1c0,-.9,.2,-1.6,.5,-2.1c.3,-.5,.8,-.7,1.4,-.7Zm0,.6c-.4,0,-.7,.2,-.9,.5c-.2,.4,-.3,1,-.3,1.7c0,.8,.1,1.3,.3,1.7c.2,.4,.5,.6,.9,.6c.4,0,.7,-.2,.9,-.6c.2,-.4,.2,-.9,.2,-1.7c0,-.7,0,-1.3,-.2,-1.7c-.2,-.3,-.5,-.5,-.9,-.5Z" class="g5_256"/>
<path d="M577.7,424.6l-1.5,2l1.5,2.2h-.8l-1.2,-1.7l-1.2,1.7h-.8l1.6,-2.2l-1.4,-2h.8l1.1,1.5l1.1,-1.5h.8Z" class="g5_256"/>
<path d="M441.4,398.4H710.1" class="g3_256"/>
<path d="M441.4,398.4h-2.6" class="g4_256"/>
<path d="M426.5,395.6c.7,0,1.1,.3,1.5,.8c.3,.5,.4,1.2,.4,2.1c0,.9,-.1,1.6,-.4,2.1c-.4,.5,-.8,.7,-1.5,.7c-.6,0,-1,-.2,-1.4,-.7c-.3,-.5,-.4,-1.2,-.4,-2.1c0,-.9,.1,-1.6,.4,-2.1c.4,-.5,.8,-.8,1.4,-.8Zm0,.6c-.3,0,-.6,.2,-.8,.6c-.2,.4,-.3,.9,-.3,1.7c0,.7,.1,1.3,.3,1.7c.2,.4,.5,.6,.8,.6c.4,0,.7,-.2,.9,-.6c.2,-.4,.3,-1,.3,-1.7c0,-.8,-.1,-1.3,-.3,-1.7c-.2,-.4,-.5,-.6,-.9,-.6Z" class="g5_256"/>
<path d="M429.8,401.2h.7v-.9h-.7Z" class="g5_256"/>
<path d="M432.8,400.6h2.6v.6h-3.5v-.6c.3,-.3,.7,-.7,1.1,-1.2c.5,-.5,.8,-.8,1,-.9c.2,-.3,.4,-.5,.5,-.7c0,-.2,.1,-.4,.1,-.5c0,-.3,-.1,-.6,-.3,-.8c-.2,-.1,-.5,-.2,-.8,-.2c-.2,0,-.5,0,-.7,.1c-.3,.1,-.6,.2,-.9,.4V396c.3,-.1,.6,-.2,.9,-.3c.2,0,.5,-.1,.7,-.1c.5,0,1,.2,1.3,.5c.4,.3,.5,.6,.5,1.1c0,.2,0,.5,-.1,.7c-.1,.2,-.2,.4,-.4,.7c-.1,0,-.3,.2,-.6,.6c-.4,.3,-.8,.8,-1.4,1.4Z" class="g5_256"/>
<path d="M441.4,375.6H710.1" class="g3_256"/>
<path d="M441.4,375.6h-2.6" class="g4_256"/>
<path d="M426.5,372.9c.7,0,1.1,.2,1.5,.7c.3,.5,.4,1.2,.4,2.1c0,1,-.1,1.7,-.4,2.2c-.4,.4,-.8,.7,-1.5,.7c-.6,0,-1,-.3,-1.4,-.7c-.3,-.5,-.4,-1.2,-.4,-2.2c0,-.9,.1,-1.6,.4,-2.1c.4,-.5,.8,-.7,1.4,-.7Zm0,.6c-.3,0,-.6,.2,-.8,.5c-.2,.4,-.3,1,-.3,1.7c0,.8,.1,1.4,.3,1.7c.2,.4,.5,.6,.8,.6c.4,0,.7,-.2,.9,-.6c.2,-.3,.3,-.9,.3,-1.7c0,-.7,-.1,-1.3,-.3,-1.7c-.2,-.3,-.5,-.5,-.9,-.5Z" class="g5_256"/>
<path d="M429.8,378.5h.7v-1h-.7Z" class="g5_256"/>
<path d="M434.4,375.5c.3,.1,.6,.3,.8,.5c.2,.2,.3,.5,.3,.9c0,.5,-.2,.9,-.5,1.2c-.4,.3,-.9,.5,-1.6,.5c-.3,0,-.5,0,-.7,-.1c-.3,0,-.5,-.1,-.8,-.2v-.7c.2,.1,.4,.2,.7,.3c.2,0,.5,.1,.8,.1c.4,0,.8,-.1,1,-.3c.3,-.2,.4,-.5,.4,-.8c0,-.3,-.1,-.6,-.4,-.8c-.2,-.2,-.5,-.2,-.9,-.2h-.6v-.7h.6c.4,0,.7,0,.9,-.2c.2,-.1,.3,-.3,.3,-.6c0,-.3,-.1,-.5,-.3,-.7c-.2,-.1,-.5,-.2,-.9,-.2c-.2,0,-.4,0,-.7,.1c-.2,0,-.4,.1,-.7,.2v-.7c.3,-.1,.5,-.1,.8,-.1c.2,-.1,.4,-.1,.7,-.1c.5,0,1,.1,1.3,.4c.3,.2,.5,.6,.5,1c0,.3,-.1,.6,-.3,.8c-.1,.2,-.4,.3,-.7,.4Z" class="g5_256"/>
<path d="M441.4,352.9H710.1" class="g3_256"/>
<path d="M441.4,352.9h-2.6" class="g4_256"/>
<path d="M426.5,350.1c.7,0,1.1,.3,1.5,.8c.3,.5,.4,1.2,.4,2.1c0,.9,-.1,1.6,-.4,2.1c-.4,.5,-.8,.7,-1.5,.7c-.6,0,-1,-.2,-1.4,-.7c-.3,-.5,-.4,-1.2,-.4,-2.1c0,-.9,.1,-1.6,.4,-2.1c.4,-.5,.8,-.8,1.4,-.8Zm0,.6c-.3,0,-.6,.2,-.8,.6c-.2,.4,-.3,.9,-.3,1.7c0,.7,.1,1.3,.3,1.7c.2,.4,.5,.5,.8,.5c.4,0,.7,-.1,.9,-.5c.2,-.4,.3,-1,.3,-1.7c0,-.8,-.1,-1.3,-.3,-1.7c-.2,-.4,-.5,-.6,-.9,-.6Z" class="g5_256"/>
<path d="M429.8,355.7h.7v-.9h-.7Z" class="g5_256"/>
<path d="M434,350.2h.9v3.6h.8v.6h-.8v1.3h-.7v-1.3h-2.5v-.7l2.3,-3.5Zm.2,.7l-1.9,2.9h1.9v-2.9Z" class="g5_256"/>
<path d="M441.4,330.1H710.1" class="g3_256"/>
<path d="M441.4,330.1h-2.6" class="g4_256"/>
<path d="M426.5,327.4c.7,0,1.1,.2,1.5,.7c.3,.5,.4,1.2,.4,2.1c0,1,-.1,1.7,-.4,2.1c-.4,.5,-.8,.8,-1.5,.8c-.6,0,-1,-.3,-1.4,-.8c-.3,-.4,-.4,-1.1,-.4,-2.1c0,-.9,.1,-1.6,.4,-2.1c.4,-.5,.8,-.7,1.4,-.7Zm0,.6c-.3,0,-.6,.2,-.8,.5c-.2,.4,-.3,1,-.3,1.7c0,.8,.1,1.3,.3,1.7c.2,.4,.5,.6,.8,.6c.4,0,.7,-.2,.9,-.6c.2,-.4,.3,-.9,.3,-1.7c0,-.7,-.1,-1.3,-.3,-1.7c-.2,-.3,-.5,-.5,-.9,-.5Z" class="g5_256"/>
<path d="M429.8,333h.7v-1h-.7Z" class="g5_256"/>
<path d="M432.2,327.5h2.9v.6h-2.3v1.4c.1,-.1,.2,-.1,.4,-.1c.1,-.1,.2,-.1,.3,-.1c.6,0,1.1,.2,1.4,.5c.4,.4,.6,.8,.6,1.4c0,.6,-.2,1.1,-.6,1.4c-.4,.3,-.9,.5,-1.5,.5c-.3,0,-.5,0,-.7,-.1c-.3,0,-.5,-.1,-.8,-.2v-.7c.2,.1,.5,.2,.7,.3c.2,0,.5,0,.7,0c.5,0,.8,-.1,1.1,-.3c.2,-.2,.3,-.5,.3,-.9c0,-.4,-.1,-.7,-.3,-.9c-.3,-.2,-.6,-.3,-1.1,-.3c-.2,0,-.3,0,-.5,0c-.2,.1,-.4,.1,-.6,.2v-2.7Z" class="g5_256"/>
<path d="M441.4,307.4H710.1" class="g3_256"/>
<path d="M441.4,307.4h-2.6" class="g4_256"/>
<path d="M426.5,304.6c.7,0,1.1,.3,1.5,.8c.3,.4,.4,1.1,.4,2.1c0,.9,-.1,1.6,-.4,2.1c-.4,.5,-.8,.7,-1.5,.7c-.6,0,-1,-.2,-1.4,-.7c-.3,-.5,-.4,-1.2,-.4,-2.1c0,-1,.1,-1.7,.4,-2.1c.4,-.5,.8,-.8,1.4,-.8Zm0,.6c-.3,0,-.6,.2,-.8,.6c-.2,.4,-.3,.9,-.3,1.7c0,.7,.1,1.3,.3,1.7c.2,.3,.5,.5,.8,.5c.4,0,.7,-.2,.9,-.5c.2,-.4,.3,-1,.3,-1.7c0,-.8,-.1,-1.3,-.3,-1.7c-.2,-.4,-.5,-.6,-.9,-.6Z" class="g5_256"/>
<path d="M429.8,310.2h.7v-.9h-.7Z" class="g5_256"/>
<path d="M435.3,304.8v.7c-.2,-.1,-.4,-.1,-.6,-.2c-.2,0,-.3,-.1,-.5,-.1c-.5,0,-.9,.2,-1.2,.5c-.2,.4,-.4,.9,-.4,1.5c.1,-.2,.3,-.3,.5,-.4c.3,-.2,.5,-.2,.8,-.2c.5,0,1,.2,1.3,.5c.3,.3,.5,.8,.5,1.4c0,.5,-.2,1,-.5,1.3c-.4,.3,-.8,.5,-1.4,.5c-.6,0,-1.1,-.2,-1.4,-.7c-.4,-.5,-.5,-1.2,-.5,-2.1c0,-.9,.2,-1.6,.6,-2.1c.4,-.5,.9,-.8,1.6,-.8c.2,0,.4,0,.6,.1c.2,0,.4,.1,.6,.1Zm-1.5,2.4c-.3,0,-.6,.1,-.8,.3c-.2,.2,-.3,.6,-.3,1c0,.3,.1,.7,.3,.9c.2,.2,.5,.3,.8,.3c.4,0,.6,-.1,.8,-.3c.2,-.2,.3,-.6,.3,-.9c0,-.4,-.1,-.8,-.3,-1c-.2,-.2,-.4,-.3,-.8,-.3Z" class="g5_256"/>
<path d="M441.4,284.6H710.1" class="g3_256"/>
<path d="M441.4,284.6h-2.6" class="g4_256"/>
<path d="M426.5,281.9c.7,0,1.1,.2,1.5,.7c.3,.5,.4,1.2,.4,2.1c0,.9,-.1,1.6,-.4,2.1c-.4,.5,-.8,.8,-1.5,.8c-.6,0,-1,-.3,-1.4,-.8c-.3,-.5,-.4,-1.2,-.4,-2.1c0,-.9,.1,-1.6,.4,-2.1c.4,-.5,.8,-.7,1.4,-.7Zm0,.6c-.3,0,-.6,.1,-.8,.5c-.2,.4,-.3,1,-.3,1.7c0,.8,.1,1.3,.3,1.7c.2,.4,.5,.6,.8,.6c.4,0,.7,-.2,.9,-.6c.2,-.4,.3,-.9,.3,-1.7c0,-.7,-.1,-1.3,-.3,-1.7c-.2,-.4,-.5,-.5,-.9,-.5Z" class="g5_256"/>
<path d="M429.8,287.5h.7v-1h-.7Z" class="g5_256"/>
<path d="M432,282h3.5v.3l-2,5.2h-.8l1.9,-4.9H432V282Z" class="g5_256"/>
<path d="M441.4,261.8H710.1" class="g3_256"/>
<path d="M441.4,261.8h-2.6" class="g4_256"/>
<path d="M426.5,259.1c.7,0,1.1,.3,1.5,.7c.3,.5,.4,1.2,.4,2.2c0,.9,-.1,1.6,-.4,2.1c-.4,.5,-.8,.7,-1.5,.7c-.6,0,-1,-.2,-1.4,-.7c-.3,-.5,-.4,-1.2,-.4,-2.1c0,-1,.1,-1.7,.4,-2.2c.4,-.4,.8,-.7,1.4,-.7Zm0,.6c-.3,0,-.6,.2,-.8,.6c-.2,.3,-.3,.9,-.3,1.7c0,.7,.1,1.3,.3,1.7c.2,.3,.5,.5,.8,.5c.4,0,.7,-.2,.9,-.5c.2,-.4,.3,-1,.3,-1.7c0,-.8,-.1,-1.4,-.3,-1.7c-.2,-.4,-.5,-.6,-.9,-.6Z" class="g5_256"/>
<path d="M429.8,264.7h.7v-.9h-.7Z" class="g5_256"/>
<path d="M432.7,260.6c0,.3,.1,.5,.3,.7c.2,.1,.4,.2,.7,.2c.3,0,.6,-.1,.8,-.2c.2,-.2,.2,-.4,.2,-.7c0,-.3,0,-.5,-.2,-.7c-.2,-.1,-.5,-.2,-.8,-.2c-.3,0,-.5,.1,-.7,.2c-.2,.2,-.3,.4,-.3,.7Zm.3,1.2c-.3,-.1,-.6,-.2,-.8,-.5c-.1,-.2,-.2,-.4,-.2,-.8c0,-.4,.1,-.7,.4,-1c.4,-.3,.8,-.4,1.3,-.4c.6,0,1,.1,1.3,.4c.3,.3,.5,.6,.5,1c0,.4,-.1,.6,-.3,.8c-.2,.3,-.4,.4,-.7,.5c.3,.1,.6,.2,.8,.5c.2,.2,.3,.5,.3,.9c0,.5,-.2,.9,-.5,1.2c-.3,.3,-.8,.4,-1.4,.4c-.6,0,-1,-.1,-1.4,-.4c-.3,-.3,-.5,-.7,-.5,-1.2c0,-.4,.1,-.7,.3,-.9c.3,-.3,.5,-.4,.9,-.5Zm.7,.3c-.3,0,-.6,.1,-.8,.3c-.2,.2,-.3,.4,-.3,.8c0,.3,.1,.5,.3,.7c.2,.2,.5,.3,.8,.3c.4,0,.7,-.1,.9,-.3c.2,-.2,.3,-.4,.3,-.7c0,-.4,-.1,-.6,-.3,-.8c-.2,-.2,-.5,-.3,-.9,-.3Z" class="g5_256"/>
<path d="M441.4,239.1H710.1" class="g3_256"/>
<path d="M441.4,239.1h-2.6" class="g4_256"/>
<path d="M426.5,236.4c.7,0,1.1,.2,1.5,.7c.3,.5,.4,1.2,.4,2.1c0,.9,-.1,1.6,-.4,2.1c-.4,.5,-.8,.8,-1.5,.8c-.6,0,-1,-.3,-1.4,-.8c-.3,-.5,-.4,-1.2,-.4,-2.1c0,-.9,.1,-1.6,.4,-2.1c.4,-.5,.8,-.7,1.4,-.7Zm0,.5c-.3,0,-.6,.2,-.8,.6c-.2,.4,-.3,1,-.3,1.7c0,.8,.1,1.3,.3,1.7c.2,.4,.5,.6,.8,.6c.4,0,.7,-.2,.9,-.6c.2,-.4,.3,-.9,.3,-1.7c0,-.7,-.1,-1.3,-.3,-1.7c-.2,-.4,-.5,-.6,-.9,-.6Z" class="g5_256"/>
<path d="M429.8,241.9h.7V241h-.7Z" class="g5_256"/>
<path d="M433.6,239.5c.4,0,.6,-.1,.8,-.3c.2,-.3,.3,-.6,.3,-1c0,-.4,-.1,-.7,-.3,-.9c-.2,-.2,-.4,-.4,-.8,-.4c-.3,0,-.6,.2,-.8,.4c-.1,.2,-.2,.5,-.2,.9c0,.4,.1,.7,.2,1c.2,.2,.5,.3,.8,.3Zm-1.4,2.3v-.6c.2,0,.3,.1,.5,.2c.2,0,.4,0,.6,0c.5,0,.9,-.1,1.1,-.5c.3,-.3,.4,-.8,.5,-1.5c-.2,.2,-.4,.4,-.6,.5c-.2,.1,-.4,.2,-.7,.2c-.6,0,-1,-.2,-1.3,-.5c-.3,-.3,-.5,-.8,-.5,-1.4c0,-.5,.2,-1,.5,-1.3c.3,-.4,.8,-.5,1.3,-.5c.7,0,1.2,.2,1.5,.7c.3,.5,.5,1.2,.5,2.1c0,.9,-.2,1.6,-.6,2.1c-.4,.5,-1,.8,-1.7,.8c-.2,0,-.3,-.1,-.5,-.1c-.2,0,-.4,-.1,-.6,-.2Z" class="g5_256"/>
<path d="M441.4,216.3H710.1" class="g3_256"/>
<path d="M441.4,216.3h-2.6" class="g4_256"/>
<path d="M425.1,218.6h1.2v-4.2l-1.3,.2V214l1.3,-.3h.7v4.9h1.2v.6h-3.1v-.6Z" class="g5_256"/>
<path d="M429.8,219.2h.7v-.9h-.7Z" class="g5_256"/>
<path d="M433.7,213.6c.6,0,1.1,.2,1.4,.7c.4,.5,.5,1.2,.5,2.2c0,.9,-.1,1.6,-.5,2.1c-.3,.5,-.8,.7,-1.4,.7c-.6,0,-1.1,-.2,-1.4,-.7c-.3,-.5,-.5,-1.2,-.5,-2.1c0,-1,.2,-1.7,.5,-2.2c.3,-.5,.8,-.7,1.4,-.7Zm0,.6c-.4,0,-.6,.2,-.8,.6c-.2,.3,-.3,.9,-.3,1.7c0,.7,.1,1.3,.3,1.6c.2,.4,.4,.6,.8,.6c.4,0,.7,-.2,.9,-.6c.2,-.3,.3,-.9,.3,-1.6c0,-.8,-.1,-1.4,-.3,-1.7c-.2,-.4,-.5,-.6,-.9,-.6Z" class="g5_256"/>
<path d="M420,307.2c.5,.1,.8,.3,.9,.5c.2,.2,.2,.4,.2,.7v.6h-.5v-.4c0,-.2,-.1,-.3,-.2,-.4c0,-.1,-.2,-.3,-.6,-.4l-.3,-.1l-4,1.7v-.8l3.2,-1.2l-3.2,-1.3v-.8l4.5,1.9Z" class="g5_256"/>
<path d="M453.6,398.4l4.3,-7.9l4.1,-7.4C486.6,339.7,524.4,277.2,573.9,257.7l1.9,-.7l1.8,-.7c50.2,-17,85.9,24.1,111.9,61.3l4.1,6l4.3,6.5" class="g6_256"/>
<path d="M441.4,407.5V207.2M710.1,407.5V207.2M441.4,407.5H710.1M441.4,207.2H710.1" class="g7_256"/>
<path d="M554.9,195.9c-.4,.6,-.7,1.3,-.8,2c-.2,.6,-.3,1.3,-.3,2c0,.7,.1,1.3,.3,2c.2,.7,.4,1.3,.8,2h-.7c-.4,-.7,-.7,-1.4,-1,-2c-.2,-.7,-.3,-1.4,-.3,-2c0,-.7,.1,-1.3,.3,-2c.3,-.7,.6,-1.3,1,-2h.7Z" class="g5_256"/>
<path d="M556.8,202h1.4v-5.1l-1.6,.4v-.9l1.6,-.3h.9V202h1.5v.7h-3.8V202Z" class="g5_256"/>
<path d="M562.5,201.6h.9v.8l-.7,1.4h-.6l.4,-1.4v-.8Z" class="g5_256"/>
<path d="M568.9,202H572v.7h-4.2V202c.3,-.4,.8,-.9,1.4,-1.4c.6,-.6,.9,-1,1.1,-1.2c.3,-.3,.5,-.6,.6,-.8c.1,-.2,.2,-.4,.2,-.7c0,-.3,-.2,-.6,-.4,-.8c-.3,-.2,-.6,-.3,-1,-.3c-.3,0,-.6,0,-.9,.1c-.3,.1,-.6,.3,-1,.5v-1c.4,-.1,.7,-.2,1.1,-.3c.3,0,.5,-.1,.8,-.1c.7,0,1.2,.2,1.6,.5c.4,.4,.6,.8,.6,1.4c0,.3,0,.5,-.1,.8c-.1,.2,-.3,.5,-.6,.8c0,.1,-.3,.4,-.7,.8c-.4,.4,-.9,.9,-1.6,1.7Z" class="g5_256"/>
<path d="M573.9,201.6h1v.8l-.7,1.4h-.6l.3,-1.4v-.8Z" class="g5_256"/>
<path d="M580.4,202h3.1v.7h-4.2V202c.3,-.4,.8,-.9,1.4,-1.4c.6,-.6,.9,-1,1.1,-1.2c.3,-.3,.5,-.6,.6,-.8c.1,-.2,.1,-.4,.1,-.7c0,-.3,-.1,-.6,-.3,-.8c-.3,-.2,-.6,-.3,-1,-.3c-.3,0,-.6,0,-.9,.1c-.3,.1,-.6,.3,-1,.5v-1c.4,-.1,.7,-.2,1,-.3c.3,0,.6,-.1,.9,-.1c.7,0,1.2,.2,1.6,.5c.4,.4,.6,.8,.6,1.4c0,.3,0,.5,-.1,.8c-.1,.2,-.3,.5,-.6,.8c0,.1,-.3,.4,-.7,.8c-.4,.4,-.9,.9,-1.6,1.7Z" class="g5_256"/>
<path d="M585.4,201.6h1v.8l-.8,1.4h-.5l.3,-1.4v-.8Z" class="g5_256"/>
<path d="M591.2,202h1.5v-5.1l-1.6,.4v-.9l1.6,-.3h.9V202H595v.7h-3.8V202Z" class="g5_256"/>
<path d="M596.6,195.9h.7c.4,.7,.8,1.3,1,2c.2,.7,.3,1.3,.3,2c0,.6,-.1,1.3,-.3,2c-.2,.6,-.6,1.3,-1,2h-.7c.4,-.7,.7,-1.3,.9,-2c.1,-.7,.2,-1.3,.2,-2c0,-.7,-.1,-1.4,-.2,-2c-.2,-.7,-.5,-1.4,-.9,-2Z" class="g5_256"/>
<path d="M133.5,654.6H402.2V454.3H133.5Z" class="g0_256"/>
<path d="M145.7,647.7c.6,0,1.2,-.2,1.6,-.7c.5,-.4,.7,-.9,.7,-1.5c0,-.6,-.2,-1.2,-.7,-1.6c-.4,-.5,-1,-.7,-1.6,-.7c-.6,0,-1.1,.2,-1.6,.7c-.4,.4,-.6,1,-.6,1.6c0,.6,.2,1.1,.6,1.5c.5,.5,1,.7,1.6,.7Z" class="g1_256"/>
<path d="M145.7,647.7c.6,0,1.2,-.2,1.6,-.7c.5,-.4,.7,-.9,.7,-1.5c0,-.6,-.2,-1.2,-.7,-1.6c-.4,-.5,-1,-.7,-1.6,-.7c-.6,0,-1.1,.2,-1.6,.7c-.4,.4,-.6,1,-.6,1.6c0,.6,.2,1.1,.6,1.5c.5,.5,1,.7,1.6,.7Z" class="g2_256"/>
<path d="M219,511.2c.6,0,1.2,-.3,1.6,-.7c.4,-.4,.7,-1,.7,-1.6c0,-.6,-.3,-1.1,-.7,-1.6c-.4,-.4,-1,-.6,-1.6,-.6c-.6,0,-1.2,.2,-1.6,.6c-.4,.5,-.6,1,-.6,1.6c0,.6,.2,1.2,.6,1.6c.4,.4,1,.7,1.6,.7Z" class="g1_256"/>
<path d="M219,511.2c.6,0,1.2,-.3,1.6,-.7c.4,-.4,.7,-1,.7,-1.6c0,-.6,-.3,-1.1,-.7,-1.6c-.4,-.4,-1,-.6,-1.6,-.6c-.6,0,-1.2,.2,-1.6,.6c-.4,.5,-.6,1,-.6,1.6c0,.6,.2,1.2,.6,1.6c.4,.4,1,.7,1.6,.7Z" class="g2_256"/>
<path d="M316.7,465.7c.6,0,1.2,-.3,1.6,-.7c.5,-.4,.7,-1,.7,-1.6c0,-.6,-.2,-1.2,-.7,-1.6c-.4,-.4,-1,-.6,-1.6,-.6c-.6,0,-1.1,.2,-1.6,.6c-.4,.4,-.6,1,-.6,1.6c0,.6,.2,1.2,.6,1.6c.5,.4,1,.7,1.6,.7Z" class="g1_256"/>
<path d="M316.7,465.7c.6,0,1.2,-.3,1.6,-.7c.5,-.4,.7,-1,.7,-1.6c0,-.6,-.2,-1.2,-.7,-1.6c-.4,-.4,-1,-.6,-1.6,-.6c-.6,0,-1.1,.2,-1.6,.6c-.4,.4,-.6,1,-.6,1.6c0,.6,.2,1.2,.6,1.6c.5,.4,1,.7,1.6,.7Z" class="g2_256"/>
<path d="M390,579.4c.6,0,1.2,-.2,1.6,-.6c.5,-.4,.7,-1,.7,-1.6c0,-.6,-.2,-1.2,-.7,-1.6c-.4,-.4,-1,-.7,-1.6,-.7c-.6,0,-1.1,.3,-1.6,.7c-.4,.4,-.6,1,-.6,1.6c0,.6,.2,1.2,.6,1.6c.5,.4,1,.6,1.6,.6Z" class="g1_256"/>
<path d="M390,579.4c.6,0,1.2,-.2,1.6,-.6c.5,-.4,.7,-1,.7,-1.6c0,-.6,-.2,-1.2,-.7,-1.6c-.4,-.4,-1,-.7,-1.6,-.7c-.6,0,-1.1,.3,-1.6,.7c-.4,.4,-.6,1,-.6,1.6c0,.6,.2,1.2,.6,1.6c.5,.4,1,.6,1.6,.6Z" class="g2_256"/>
<path d="M145.7,654.6V454.3" class="g3_256"/>
<path d="M145.7,654.6v2.6" class="g4_256"/>
<path d="M142.1,660c.7,0,1.1,.2,1.4,.7c.4,.5,.5,1.2,.5,2.1c0,.9,-.1,1.6,-.5,2.1c-.3,.5,-.7,.7,-1.4,.7c-.6,0,-1,-.2,-1.4,-.7c-.3,-.5,-.5,-1.2,-.5,-2.1c0,-.9,.2,-1.6,.5,-2.1c.4,-.5,.8,-.7,1.4,-.7Zm0,.5c-.3,0,-.6,.2,-.8,.6c-.2,.4,-.3,.9,-.3,1.7c0,.8,.1,1.3,.3,1.7c.2,.4,.5,.6,.8,.6c.4,0,.7,-.2,.9,-.6c.2,-.4,.3,-.9,.3,-1.7c0,-.8,-.1,-1.3,-.3,-1.7c-.2,-.4,-.5,-.6,-.9,-.6Z" class="g5_256"/>
<path d="M145.3,665.5h.8v-.9h-.8Z" class="g5_256"/>
<path d="M149.3,660c.6,0,1.1,.2,1.4,.7c.4,.5,.5,1.2,.5,2.1c0,.9,-.1,1.6,-.5,2.1c-.3,.5,-.8,.7,-1.4,.7c-.6,0,-1.1,-.2,-1.4,-.7c-.3,-.5,-.5,-1.2,-.5,-2.1c0,-.9,.2,-1.6,.5,-2.1c.3,-.5,.8,-.7,1.4,-.7Zm0,.5c-.4,0,-.7,.2,-.8,.6c-.2,.4,-.3,.9,-.3,1.7c0,.8,.1,1.3,.3,1.7c.1,.4,.4,.6,.8,.6c.4,0,.7,-.2,.9,-.6c.2,-.4,.3,-.9,.3,-1.7c0,-.8,-.1,-1.3,-.3,-1.7c-.2,-.4,-.5,-.6,-.9,-.6Z" class="g5_256"/>
<path d="M194.6,654.6V454.3" class="g3_256"/>
<path d="M194.6,654.6v2.6" class="g4_256"/>
<path d="M191,660c.6,0,1.1,.2,1.4,.7c.3,.5,.5,1.2,.5,2.1c0,.9,-.2,1.6,-.5,2.1c-.3,.5,-.8,.7,-1.4,.7c-.6,0,-1.1,-.2,-1.4,-.7c-.3,-.5,-.5,-1.2,-.5,-2.1c0,-.9,.2,-1.6,.5,-2.1c.3,-.5,.8,-.7,1.4,-.7Zm0,.5c-.4,0,-.7,.2,-.9,.6c-.2,.4,-.3,.9,-.3,1.7c0,.8,.1,1.3,.3,1.7c.2,.4,.5,.6,.9,.6c.4,0,.7,-.2,.9,-.6c.2,-.4,.3,-.9,.3,-1.7c0,-.8,-.1,-1.3,-.3,-1.7c-.2,-.4,-.5,-.6,-.9,-.6Z" class="g5_256"/>
<path d="M194.2,665.5h.8v-.9h-.8Z" class="g5_256"/>
<path d="M197.2,664.9h2.6v.6h-3.5v-.6c.3,-.3,.7,-.7,1.2,-1.2c.5,-.4,.8,-.8,.9,-.9c.2,-.3,.4,-.5,.5,-.7c.1,-.2,.1,-.4,.1,-.5c0,-.3,-.1,-.6,-.3,-.7c-.2,-.2,-.4,-.3,-.8,-.3c-.2,0,-.4,0,-.7,.1c-.3,.1,-.5,.2,-.8,.4v-.8c.3,-.1,.6,-.2,.8,-.3c.3,0,.5,0,.7,0c.6,0,1,.1,1.4,.4c.3,.3,.5,.6,.5,1.1c0,.2,-.1,.5,-.1,.7c-.1,.2,-.3,.4,-.5,.7c-.1,.1,-.3,.3,-.6,.6c-.3,.3,-.8,.8,-1.4,1.4Z" class="g5_256"/>
<path d="M243.5,654.6V454.3" class="g3_256"/>
<path d="M243.5,654.6v2.6" class="g4_256"/>
<path d="M239.9,660c.6,0,1,.2,1.4,.7c.3,.5,.5,1.2,.5,2.1c0,.9,-.2,1.6,-.5,2.1c-.4,.5,-.8,.7,-1.4,.7c-.7,0,-1.1,-.2,-1.5,-.7c-.3,-.5,-.4,-1.2,-.4,-2.1c0,-.9,.1,-1.6,.4,-2.1c.4,-.5,.8,-.7,1.5,-.7Zm0,.5c-.4,0,-.7,.2,-.9,.6c-.2,.4,-.3,.9,-.3,1.7c0,.8,.1,1.3,.3,1.7c.2,.4,.5,.6,.9,.6c.3,0,.6,-.2,.8,-.6c.2,-.4,.3,-.9,.3,-1.7c0,-.8,-.1,-1.3,-.3,-1.7c-.2,-.4,-.5,-.6,-.8,-.6Z" class="g5_256"/>
<path d="M243.1,665.5h.7v-.9h-.7Z" class="g5_256"/>
<path d="M247.3,660.1h.9v3.5h.8v.6h-.8v1.3h-.7v-1.3H245v-.7l2.3,-3.4Zm.2,.6l-1.9,2.9h1.9v-2.9Z" class="g5_256"/>
<path d="M292.3,654.6V454.3" class="g3_256"/>
<path d="M292.3,654.6v2.6" class="g4_256"/>
<path d="M288.7,660c.6,0,1.1,.2,1.4,.7c.4,.5,.5,1.2,.5,2.1c0,.9,-.1,1.6,-.5,2.1c-.3,.5,-.8,.7,-1.4,.7c-.6,0,-1.1,-.2,-1.4,-.7c-.3,-.5,-.5,-1.2,-.5,-2.1c0,-.9,.2,-1.6,.5,-2.1c.3,-.5,.8,-.7,1.4,-.7Zm0,.5c-.4,0,-.6,.2,-.8,.6c-.2,.4,-.3,.9,-.3,1.7c0,.8,.1,1.3,.3,1.7c.2,.4,.4,.6,.8,.6c.4,0,.7,-.2,.9,-.6c.2,-.4,.3,-.9,.3,-1.7c0,-.8,-.1,-1.3,-.3,-1.7c-.2,-.4,-.5,-.6,-.9,-.6Z" class="g5_256"/>
<path d="M291.9,665.5h.8v-.9h-.8Z" class="g5_256"/>
<path d="M297.5,660.2v.7c-.2,-.1,-.4,-.2,-.6,-.2c-.2,-.1,-.4,-.1,-.6,-.1c-.5,0,-.8,.1,-1.1,.5c-.2,.3,-.4,.8,-.4,1.5c.1,-.2,.3,-.4,.5,-.5c.2,-.1,.5,-.2,.7,-.2c.6,0,1,.2,1.3,.5c.4,.4,.5,.8,.5,1.4c0,.5,-.1,1,-.5,1.3c-.3,.4,-.8,.5,-1.3,.5c-.6,0,-1.1,-.2,-1.5,-.7c-.3,-.5,-.5,-1.2,-.5,-2.1c0,-.9,.2,-1.6,.7,-2.1c.4,-.5,.9,-.7,1.6,-.7c.2,0,.4,0,.6,0c.2,0,.4,.1,.6,.2Zm-1.5,2.3c-.3,0,-.6,.1,-.8,.3c-.2,.3,-.3,.6,-.3,1c0,.4,.1,.7,.3,.9c.2,.2,.5,.4,.8,.4c.3,0,.6,-.2,.8,-.4c.2,-.2,.3,-.5,.3,-.9c0,-.4,-.1,-.7,-.3,-1c-.2,-.2,-.5,-.3,-.8,-.3Z" class="g5_256"/>
<path d="M341.2,654.6V454.3" class="g3_256"/>
<path d="M341.2,654.6v2.6" class="g4_256"/>
<path d="M337.6,660c.6,0,1.1,.2,1.4,.7c.3,.5,.5,1.2,.5,2.1c0,.9,-.2,1.6,-.5,2.1c-.3,.5,-.8,.7,-1.4,.7c-.6,0,-1.1,-.2,-1.4,-.7c-.4,-.5,-.5,-1.2,-.5,-2.1c0,-.9,.1,-1.6,.5,-2.1c.3,-.5,.8,-.7,1.4,-.7Zm0,.5c-.4,0,-.7,.2,-.9,.6c-.2,.4,-.3,.9,-.3,1.7c0,.8,.1,1.3,.3,1.7c.2,.4,.5,.6,.9,.6c.4,0,.7,-.2,.8,-.6c.2,-.4,.3,-.9,.3,-1.7c0,-.8,-.1,-1.3,-.3,-1.7c-.1,-.4,-.4,-.6,-.8,-.6Z" class="g5_256"/>
<path d="M340.8,665.5h.8v-.9h-.8Z" class="g5_256"/>
<path d="M343.7,661.4c0,.3,.1,.6,.3,.7c.2,.2,.4,.3,.8,.3c.3,0,.5,-.1,.7,-.3c.2,-.1,.3,-.4,.3,-.7c0,-.2,-.1,-.5,-.3,-.6c-.2,-.2,-.4,-.3,-.7,-.3c-.4,0,-.6,.1,-.8,.3c-.2,.1,-.3,.4,-.3,.6Zm.3,1.2c-.3,-.1,-.5,-.2,-.7,-.4c-.2,-.2,-.3,-.5,-.3,-.8c0,-.5,.2,-.8,.5,-1.1c.3,-.2,.7,-.3,1.3,-.3c.5,0,.9,.1,1.2,.3c.4,.3,.5,.6,.5,1.1c0,.3,-.1,.6,-.3,.8c-.1,.2,-.4,.3,-.7,.4c.4,.1,.6,.3,.8,.5c.2,.3,.3,.5,.3,.9c0,.5,-.1,.9,-.4,1.2c-.4,.3,-.8,.4,-1.4,.4c-.6,0,-1.1,-.1,-1.4,-.4c-.4,-.3,-.5,-.7,-.5,-1.2c0,-.4,.1,-.6,.3,-.9c.2,-.2,.5,-.4,.8,-.5Zm.8,.3c-.4,0,-.7,.1,-.9,.3c-.2,.2,-.3,.5,-.3,.8c0,.3,.1,.6,.3,.8c.2,.2,.5,.3,.9,.3c.3,0,.6,-.1,.8,-.3c.2,-.2,.3,-.5,.3,-.8c0,-.3,-.1,-.6,-.3,-.8c-.2,-.2,-.5,-.3,-.8,-.3Z" class="g5_256"/>
<path d="M390,654.6V454.3" class="g3_256"/>
<path d="M390,654.6v2.6" class="g4_256"/>
<path d="M385,664.9h1.2v-4.2l-1.3,.3v-.7l1.3,-.2h.7v4.8h1.2v.6H385v-.6Z" class="g5_256"/>
<path d="M389.6,665.5h.8v-.9h-.8Z" class="g5_256"/>
<path d="M393.6,660c.6,0,1.1,.2,1.4,.7c.4,.5,.5,1.2,.5,2.1c0,.9,-.1,1.6,-.5,2.1c-.3,.5,-.8,.7,-1.4,.7c-.6,0,-1.1,-.2,-1.4,-.7c-.3,-.5,-.5,-1.2,-.5,-2.1c0,-.9,.2,-1.6,.5,-2.1c.3,-.5,.8,-.7,1.4,-.7Zm0,.5c-.4,0,-.7,.2,-.8,.6c-.2,.4,-.3,.9,-.3,1.7c0,.8,.1,1.3,.3,1.7c.1,.4,.4,.6,.8,.6c.4,0,.7,-.2,.9,-.6c.2,-.4,.3,-.9,.3,-1.7c0,-.8,-.1,-1.3,-.3,-1.7c-.2,-.4,-.5,-.6,-.9,-.6Z" class="g5_256"/>
<path d="M269.8,671.7l-1.5,2l1.6,2.1h-.8l-1.2,-1.6l-1.2,1.6h-.8l1.6,-2.1l-1.5,-2h.8l1.1,1.5l1.1,-1.5h.8Z" class="g5_256"/>
<path d="M133.5,645.5H402.2" class="g3_256"/>
<path d="M133.5,645.5h-2.6" class="g4_256"/>
<path d="M118.7,642.7c.6,0,1.1,.3,1.4,.8c.3,.4,.5,1.2,.5,2.1c0,.9,-.2,1.6,-.5,2.1c-.3,.5,-.8,.7,-1.4,.7c-.6,0,-1.1,-.2,-1.4,-.7c-.4,-.5,-.5,-1.2,-.5,-2.1c0,-.9,.1,-1.7,.5,-2.1c.3,-.5,.8,-.8,1.4,-.8Zm0,.6c-.4,0,-.7,.2,-.9,.6c-.2,.4,-.3,.9,-.3,1.7c0,.7,.1,1.3,.3,1.7c.2,.3,.5,.5,.9,.5c.4,0,.6,-.2,.8,-.5c.2,-.4,.3,-1,.3,-1.7c0,-.8,-.1,-1.3,-.3,-1.7c-.2,-.4,-.4,-.6,-.8,-.6Z" class="g5_256"/>
<path d="M121.9,648.3h.7v-.9h-.7Z" class="g5_256"/>
<path d="M124.9,647.7h2.6v.6H124v-.6c.3,-.3,.7,-.7,1.2,-1.2c.5,-.5,.8,-.8,.9,-.9c.2,-.3,.4,-.5,.5,-.7c.1,-.2,.1,-.4,.1,-.6c0,-.3,-.1,-.5,-.3,-.7c-.2,-.2,-.5,-.2,-.8,-.2c-.2,0,-.5,0,-.7,.1c-.3,.1,-.6,.2,-.8,.3v-.7c.2,-.1,.5,-.2,.8,-.3c.2,0,.5,-.1,.7,-.1c.6,0,1,.2,1.4,.5c.3,.2,.5,.6,.5,1.1c0,.2,-.1,.4,-.2,.6c0,.2,-.2,.5,-.4,.7c-.1,.1,-.3,.3,-.6,.7c-.3,.3,-.8,.8,-1.4,1.4Z" class="g5_256"/>
<path d="M133.5,622.7H402.2" class="g3_256"/>
<path d="M133.5,622.7h-2.6" class="g4_256"/>
<path d="M118.7,620c.6,0,1.1,.2,1.4,.7c.3,.5,.5,1.2,.5,2.1c0,.9,-.2,1.6,-.5,2.1c-.3,.5,-.8,.8,-1.4,.8c-.6,0,-1.1,-.3,-1.4,-.8c-.4,-.5,-.5,-1.2,-.5,-2.1c0,-.9,.1,-1.6,.5,-2.1c.3,-.5,.8,-.7,1.4,-.7Zm0,.6c-.4,0,-.7,.1,-.9,.5c-.2,.4,-.3,1,-.3,1.7c0,.8,.1,1.3,.3,1.7c.2,.4,.5,.6,.9,.6c.4,0,.6,-.2,.8,-.6c.2,-.4,.3,-.9,.3,-1.7c0,-.7,-.1,-1.3,-.3,-1.7c-.2,-.4,-.4,-.5,-.8,-.5Z" class="g5_256"/>
<path d="M121.9,625.6h.7v-1h-.7Z" class="g5_256"/>
<path d="M126.5,622.6c.4,.1,.6,.2,.8,.5c.2,.2,.3,.5,.3,.9c0,.5,-.1,.9,-.5,1.2c-.4,.3,-.9,.5,-1.6,.5c-.2,0,-.5,-.1,-.7,-.1c-.3,0,-.5,-.1,-.8,-.2v-.7c.2,.1,.5,.2,.7,.2c.3,.1,.5,.1,.8,.1c.4,0,.8,-.1,1,-.2c.3,-.2,.4,-.5,.4,-.8c0,-.4,-.1,-.6,-.3,-.8c-.3,-.2,-.6,-.3,-1,-.3H125v-.6h.7c.3,0,.6,-.1,.8,-.2c.2,-.1,.3,-.4,.3,-.6c0,-.3,-.1,-.5,-.3,-.7c-.2,-.1,-.5,-.2,-.9,-.2c-.2,0,-.4,0,-.6,.1c-.3,0,-.5,.1,-.8,.2v-.7c.3,-.1,.5,-.1,.8,-.2c.2,0,.5,0,.7,0c.6,0,1,.1,1.3,.4c.4,.2,.5,.6,.5,1c0,.3,-.1,.6,-.2,.8c-.2,.2,-.5,.3,-.8,.4Z" class="g5_256"/>
<path d="M133.5,599.9H402.2" class="g3_256"/>
<path d="M133.5,599.9h-2.6" class="g4_256"/>
<path d="M118.7,597.2c.6,0,1.1,.3,1.4,.7c.3,.5,.5,1.2,.5,2.2c0,.9,-.2,1.6,-.5,2.1c-.3,.5,-.8,.7,-1.4,.7c-.6,0,-1.1,-.2,-1.4,-.7c-.4,-.5,-.5,-1.2,-.5,-2.1c0,-1,.1,-1.7,.5,-2.2c.3,-.4,.8,-.7,1.4,-.7Zm0,.6c-.4,0,-.7,.2,-.9,.6c-.2,.3,-.3,.9,-.3,1.7c0,.7,.1,1.3,.3,1.7c.2,.3,.5,.5,.9,.5c.4,0,.6,-.2,.8,-.5c.2,-.4,.3,-1,.3,-1.7c0,-.8,-.1,-1.4,-.3,-1.7c-.2,-.4,-.4,-.6,-.8,-.6Z" class="g5_256"/>
<path d="M121.9,602.8h.7v-.9h-.7Z" class="g5_256"/>
<path d="M126.1,597.3h.9v3.6h.8v.6H127v1.3h-.7v-1.3h-2.5v-.7l2.3,-3.5Zm.2,.7l-1.9,2.9h1.9V598Z" class="g5_256"/>
<path d="M133.5,577.2H402.2" class="g3_256"/>
<path d="M133.5,577.2h-2.6" class="g4_256"/>
<path d="M118.7,574.5c.6,0,1.1,.2,1.4,.7c.3,.5,.5,1.2,.5,2.1c0,.9,-.2,1.6,-.5,2.1c-.3,.5,-.8,.8,-1.4,.8c-.6,0,-1.1,-.3,-1.4,-.8c-.4,-.5,-.5,-1.2,-.5,-2.1c0,-.9,.1,-1.6,.5,-2.1c.3,-.5,.8,-.7,1.4,-.7Zm0,.5c-.4,0,-.7,.2,-.9,.6c-.2,.4,-.3,1,-.3,1.7c0,.8,.1,1.3,.3,1.7c.2,.4,.5,.6,.9,.6c.4,0,.6,-.2,.8,-.6c.2,-.4,.3,-.9,.3,-1.7c0,-.7,-.1,-1.3,-.3,-1.7c-.2,-.4,-.4,-.6,-.8,-.6Z" class="g5_256"/>
<path d="M121.9,580h.7v-.9h-.7Z" class="g5_256"/>
<path d="M124.3,574.6h2.9v.6H125v1.3c.1,0,.2,0,.3,-.1c.1,0,.2,0,.3,0c.6,0,1.1,.2,1.5,.5c.3,.4,.5,.8,.5,1.4c0,.6,-.2,1,-.6,1.4c-.3,.3,-.8,.5,-1.5,.5c-.2,0,-.5,-.1,-.7,-.1c-.3,0,-.5,-.1,-.8,-.2v-.7c.3,.1,.5,.2,.7,.2c.3,.1,.5,.1,.8,.1c.4,0,.7,-.1,1,-.3c.2,-.2,.3,-.5,.3,-.9c0,-.4,-.1,-.7,-.3,-.9c-.3,-.2,-.6,-.4,-1,-.4c-.2,0,-.4,.1,-.6,.1c-.2,.1,-.4,.1,-.6,.2v-2.7Z" class="g5_256"/>
<path d="M133.5,554.4H402.2" class="g3_256"/>
<path d="M133.5,554.4h-2.6" class="g4_256"/>
<path d="M118.7,551.7c.6,0,1.1,.3,1.4,.7c.3,.5,.5,1.2,.5,2.2c0,.9,-.2,1.6,-.5,2.1c-.3,.5,-.8,.7,-1.4,.7c-.6,0,-1.1,-.2,-1.4,-.7c-.4,-.5,-.5,-1.2,-.5,-2.1c0,-1,.1,-1.7,.5,-2.2c.3,-.4,.8,-.7,1.4,-.7Zm0,.6c-.4,0,-.7,.2,-.9,.6c-.2,.3,-.3,.9,-.3,1.7c0,.7,.1,1.3,.3,1.6c.2,.4,.5,.6,.9,.6c.4,0,.6,-.2,.8,-.6c.2,-.3,.3,-.9,.3,-1.6c0,-.8,-.1,-1.4,-.3,-1.7c-.2,-.4,-.4,-.6,-.8,-.6Z" class="g5_256"/>
<path d="M121.9,557.3h.7v-.9h-.7Z" class="g5_256"/>
<path d="M127.4,551.9v.7c-.2,-.1,-.4,-.2,-.5,-.2c-.2,0,-.4,-.1,-.6,-.1c-.5,0,-.9,.2,-1.1,.5c-.3,.4,-.4,.9,-.5,1.5c.2,-.2,.4,-.3,.6,-.5c.2,-.1,.4,-.1,.7,-.1c.5,0,1,.1,1.3,.5c.3,.3,.5,.8,.5,1.3c0,.6,-.2,1,-.5,1.4c-.4,.3,-.8,.5,-1.4,.5c-.6,0,-1.1,-.2,-1.4,-.7c-.3,-.5,-.5,-1.2,-.5,-2.1c0,-.9,.2,-1.6,.6,-2.1c.4,-.5,1,-.8,1.7,-.8c.1,0,.3,0,.5,.1c.2,0,.4,.1,.6,.1Zm-1.5,2.4c-.3,0,-.6,.1,-.7,.3c-.2,.2,-.3,.5,-.3,.9c0,.4,.1,.7,.3,1c.1,.2,.4,.3,.7,.3c.4,0,.6,-.1,.8,-.3c.2,-.3,.3,-.6,.3,-1c0,-.4,-.1,-.7,-.3,-.9c-.2,-.2,-.4,-.3,-.8,-.3Z" class="g5_256"/>
<path d="M133.5,531.7H402.2" class="g3_256"/>
<path d="M133.5,531.7h-2.6" class="g4_256"/>
<path d="M118.7,529c.6,0,1.1,.2,1.4,.7c.3,.5,.5,1.2,.5,2.1c0,.9,-.2,1.6,-.5,2.1c-.3,.5,-.8,.7,-1.4,.7c-.6,0,-1.1,-.2,-1.4,-.7c-.4,-.5,-.5,-1.2,-.5,-2.1c0,-.9,.1,-1.6,.5,-2.1c.3,-.5,.8,-.7,1.4,-.7Zm0,.5c-.4,0,-.7,.2,-.9,.6c-.2,.4,-.3,.9,-.3,1.7c0,.8,.1,1.3,.3,1.7c.2,.4,.5,.6,.9,.6c.4,0,.6,-.2,.8,-.6c.2,-.4,.3,-.9,.3,-1.7c0,-.8,-.1,-1.3,-.3,-1.7c-.2,-.4,-.4,-.6,-.8,-.6Z" class="g5_256"/>
<path d="M121.9,534.5h.7v-.9h-.7Z" class="g5_256"/>
<path d="M124.1,529.1h3.5v.3l-2,5.1h-.8l1.9,-4.8h-2.6v-.6Z" class="g5_256"/>
<path d="M133.5,508.9H402.2" class="g3_256"/>
<path d="M133.5,508.9h-2.6" class="g4_256"/>
<path d="M118.7,506.2c.6,0,1.1,.2,1.4,.7c.3,.5,.5,1.2,.5,2.1c0,1,-.2,1.7,-.5,2.2c-.3,.4,-.8,.7,-1.4,.7c-.6,0,-1.1,-.3,-1.4,-.7c-.4,-.5,-.5,-1.2,-.5,-2.2c0,-.9,.1,-1.6,.5,-2.1c.3,-.5,.8,-.7,1.4,-.7Zm0,.6c-.4,0,-.7,.2,-.9,.5c-.2,.4,-.3,1,-.3,1.7c0,.8,.1,1.4,.3,1.7c.2,.4,.5,.6,.9,.6c.4,0,.6,-.2,.8,-.6c.2,-.3,.3,-.9,.3,-1.7c0,-.7,-.1,-1.3,-.3,-1.7c-.2,-.3,-.4,-.5,-.8,-.5Z" class="g5_256"/>
<path d="M121.9,511.8h.7v-1h-.7Z" class="g5_256"/>
<path d="M124.8,507.7c0,.3,.1,.5,.3,.7c.2,.1,.4,.2,.8,.2c.3,0,.5,-.1,.7,-.2c.2,-.2,.3,-.4,.3,-.7c0,-.3,-.1,-.5,-.3,-.7c-.2,-.1,-.4,-.2,-.7,-.2c-.4,0,-.6,.1,-.8,.2c-.2,.2,-.3,.4,-.3,.7Zm.3,1.2c-.3,-.1,-.6,-.3,-.7,-.5c-.2,-.2,-.3,-.5,-.3,-.8c0,-.4,.2,-.8,.5,-1c.3,-.3,.7,-.4,1.3,-.4c.5,0,.9,.1,1.2,.4c.4,.2,.5,.6,.5,1c0,.3,-.1,.6,-.3,.8c-.1,.2,-.4,.4,-.7,.5c.4,0,.6,.2,.8,.5c.2,.2,.3,.5,.3,.8c0,.6,-.1,1,-.5,1.3c-.3,.2,-.7,.4,-1.3,.4c-.6,0,-1.1,-.2,-1.4,-.4c-.4,-.3,-.5,-.7,-.5,-1.3c0,-.3,.1,-.6,.3,-.8c.2,-.3,.5,-.5,.8,-.5Zm.8,.3c-.4,0,-.7,.1,-.9,.3c-.2,.1,-.3,.4,-.3,.7c0,.4,.1,.6,.3,.8c.2,.2,.5,.3,.9,.3c.3,0,.6,-.1,.8,-.3c.2,-.2,.3,-.4,.3,-.8c0,-.3,-.1,-.6,-.3,-.7c-.2,-.2,-.5,-.3,-.8,-.3Z" class="g5_256"/>
<path d="M133.5,486.2H402.2" class="g3_256"/>
<path d="M133.5,486.2h-2.6" class="g4_256"/>
<path d="M118.7,483.4c.6,0,1.1,.3,1.4,.8c.3,.5,.5,1.2,.5,2.1c0,.9,-.2,1.6,-.5,2.1c-.3,.5,-.8,.7,-1.4,.7c-.6,0,-1.1,-.2,-1.4,-.7c-.4,-.5,-.5,-1.2,-.5,-2.1c0,-.9,.1,-1.6,.5,-2.1c.3,-.5,.8,-.8,1.4,-.8Zm0,.6c-.4,0,-.7,.2,-.9,.6c-.2,.4,-.3,.9,-.3,1.7c0,.7,.1,1.3,.3,1.7c.2,.4,.5,.5,.9,.5c.4,0,.6,-.1,.8,-.5c.2,-.4,.3,-1,.3,-1.7c0,-.8,-.1,-1.3,-.3,-1.7c-.2,-.4,-.4,-.6,-.8,-.6Z" class="g5_256"/>
<path d="M121.9,489h.7v-.9h-.7Z" class="g5_256"/>
<path d="M125.8,486.6c.3,0,.6,-.1,.8,-.4c.2,-.2,.2,-.5,.2,-.9c0,-.4,0,-.7,-.2,-.9c-.2,-.3,-.5,-.4,-.8,-.4c-.4,0,-.6,.1,-.8,.4c-.2,.2,-.3,.5,-.3,.9c0,.4,.1,.7,.3,.9c.2,.3,.4,.4,.8,.4Zm-1.5,2.3v-.7c.2,.1,.4,.2,.6,.2c.1,.1,.3,.1,.5,.1c.5,0,.9,-.2,1.1,-.5c.3,-.3,.4,-.8,.5,-1.5c-.2,.2,-.3,.4,-.6,.5c-.2,.1,-.4,.2,-.7,.2c-.5,0,-1,-.2,-1.3,-.5c-.3,-.4,-.5,-.8,-.5,-1.4c0,-.6,.2,-1,.5,-1.3c.4,-.4,.8,-.6,1.4,-.6c.6,0,1.1,.3,1.4,.8c.4,.5,.5,1.2,.5,2.1c0,.9,-.2,1.5,-.6,2.1c-.4,.5,-1,.7,-1.6,.7c-.2,0,-.4,0,-.6,0c-.2,-.1,-.4,-.1,-.6,-.2Z" class="g5_256"/>
<path d="M133.5,463.4H402.2" class="g3_256"/>
<path d="M133.5,463.4h-2.6" class="g4_256"/>
<path d="M117.2,465.6h1.2v-4.1l-1.3,.2V461l1.3,-.2h.8v4.8h1.2v.7h-3.2v-.7Z" class="g5_256"/>
<path d="M121.9,466.3h.7v-1h-.7Z" class="g5_256"/>
<path d="M125.9,460.7c.6,0,1,.2,1.4,.7c.3,.5,.4,1.2,.4,2.1c0,1,-.1,1.7,-.4,2.1c-.4,.5,-.8,.8,-1.4,.8c-.7,0,-1.1,-.3,-1.5,-.8c-.3,-.4,-.4,-1.1,-.4,-2.1c0,-.9,.1,-1.6,.4,-2.1c.4,-.5,.8,-.7,1.5,-.7Zm0,.6c-.4,0,-.7,.2,-.9,.5c-.2,.4,-.3,1,-.3,1.7c0,.8,.1,1.4,.3,1.7c.2,.4,.5,.6,.9,.6c.3,0,.6,-.2,.8,-.6c.2,-.3,.3,-.9,.3,-1.7c0,-.7,-.1,-1.3,-.3,-1.7c-.2,-.3,-.5,-.5,-.8,-.5Z" class="g5_256"/>
<path d="M112.1,554.2c.5,.2,.8,.4,.9,.6c.2,.2,.3,.4,.3,.7v.6h-.6v-.4c0,-.2,0,-.4,-.1,-.5c-.1,-.1,-.3,-.2,-.7,-.3l-.3,-.1l-4,1.6v-.7l3.2,-1.3l-3.2,-1.3v-.7l4.5,1.8Z" class="g5_256"/>
<path d="M145.7,645.5C184,634.8,222.3,624.1,260.6,613.4l14.6,-4.1C313.5,598.6,351.8,587.9,390,577.2" class="g6_256"/>
<path d="M133.5,654.6V454.3M402.2,654.6V454.3M133.5,654.6H402.2M133.5,454.3H402.2" class="g7_256"/>
<path d="M247.1,442.9c-.4,.7,-.7,1.4,-.9,2.1c-.2,.6,-.3,1.3,-.3,2c0,.6,.1,1.3,.3,2c.2,.6,.5,1.3,.9,2h-.7c-.5,-.7,-.8,-1.4,-1,-2.1c-.3,-.6,-.4,-1.3,-.4,-1.9c0,-.7,.1,-1.4,.4,-2c.2,-.7,.5,-1.4,1,-2.1h.7Z" class="g5_256"/>
<path d="M248.9,449h1.5v-5l-1.6,.3v-.8l1.5,-.3h.9V449h1.5v.8h-3.8V449Z" class="g5_256"/>
<path d="M254.6,448.7h.9v.7l-.7,1.4h-.6l.4,-1.4v-.7Z" class="g5_256"/>
<path d="M262.1,443.1c.8,0,1.3,.3,1.7,.9c.4,.6,.6,1.4,.6,2.5c0,1.1,-.2,2,-.6,2.5c-.4,.6,-.9,.9,-1.7,.9c-.7,0,-1.3,-.3,-1.7,-.9c-.3,-.5,-.5,-1.4,-.5,-2.5c0,-1.1,.2,-1.9,.5,-2.5c.4,-.6,1,-.9,1.7,-.9Zm0,.7c-.4,0,-.8,.2,-1,.7c-.2,.4,-.3,1.1,-.3,2c0,.9,.1,1.6,.3,2c.2,.5,.6,.7,1,.7c.5,0,.8,-.2,1.1,-.7c.2,-.4,.3,-1.1,.3,-2c0,-.9,-.1,-1.6,-.3,-2c-.3,-.5,-.6,-.7,-1.1,-.7Z" class="g5_256"/>
<path d="M266.1,448.7h.9v.7l-.7,1.4h-.6l.4,-1.4v-.7Z" class="g5_256"/>
<path d="M273.6,443.1c.8,0,1.3,.3,1.7,.9c.4,.6,.6,1.4,.6,2.5c0,1.1,-.2,2,-.6,2.5c-.4,.6,-.9,.9,-1.7,.9c-.7,0,-1.3,-.3,-1.7,-.9c-.4,-.5,-.6,-1.4,-.6,-2.5c0,-1.1,.2,-1.9,.6,-2.5c.4,-.6,1,-.9,1.7,-.9Zm0,.7c-.4,0,-.8,.2,-1,.7c-.2,.4,-.4,1.1,-.4,2c0,.9,.2,1.6,.4,2c.2,.5,.6,.7,1,.7c.5,0,.8,-.2,1.1,-.7c.2,-.4,.3,-1.1,.3,-2c0,-.9,-.1,-1.6,-.3,-2c-.3,-.5,-.6,-.7,-1.1,-.7Z" class="g5_256"/>
<path d="M277.6,448.7h.9v.7l-.7,1.4h-.6l.4,-1.4v-.7Z" class="g5_256"/>
<path d="M283.4,449h1.4v-5l-1.6,.3v-.8l1.6,-.3h.9V449h1.4v.8h-3.7V449Z" class="g5_256"/>
<path d="M288.7,442.9h.7c.5,.7,.8,1.4,1,2.1c.2,.6,.3,1.3,.3,2c0,.6,-.1,1.3,-.3,1.9c-.2,.7,-.5,1.4,-1,2.1h-.7c.4,-.7,.7,-1.4,.9,-2c.2,-.7,.3,-1.4,.3,-2c0,-.7,-.1,-1.4,-.3,-2c-.2,-.7,-.5,-1.4,-.9,-2.1Z" class="g5_256"/>
<path d="M441.4,654.6H710.1V454.3H441.4Z" class="g0_256"/>
<path d="M453.6,647.7c.6,0,1.2,-.2,1.6,-.7c.4,-.4,.7,-.9,.7,-1.5c0,-.6,-.3,-1.2,-.7,-1.6c-.4,-.5,-1,-.7,-1.6,-.7c-.6,0,-1.2,.2,-1.6,.7c-.4,.4,-.7,1,-.7,1.6c0,.6,.3,1.1,.7,1.5c.4,.5,1,.7,1.6,.7Z" class="g1_256"/>
<path d="M453.6,647.7c.6,0,1.2,-.2,1.6,-.7c.4,-.4,.7,-.9,.7,-1.5c0,-.6,-.3,-1.2,-.7,-1.6c-.4,-.5,-1,-.7,-1.6,-.7c-.6,0,-1.2,.2,-1.6,.7c-.4,.4,-.7,1,-.7,1.6c0,.6,.3,1.1,.7,1.5c.4,.5,1,.7,1.6,.7Z" class="g2_256"/>
<path d="M526.9,511.2c.6,0,1.2,-.3,1.6,-.7c.4,-.4,.7,-1,.7,-1.6c0,-.6,-.3,-1.1,-.7,-1.6c-.4,-.4,-1,-.6,-1.6,-.6c-.6,0,-1.2,.2,-1.6,.6c-.4,.5,-.7,1,-.7,1.6c0,.6,.3,1.2,.7,1.6c.4,.4,1,.7,1.6,.7Z" class="g1_256"/>
<path d="M526.9,511.2c.6,0,1.2,-.3,1.6,-.7c.4,-.4,.7,-1,.7,-1.6c0,-.6,-.3,-1.1,-.7,-1.6c-.4,-.4,-1,-.6,-1.6,-.6c-.6,0,-1.2,.2,-1.6,.6c-.4,.5,-.7,1,-.7,1.6c0,.6,.3,1.2,.7,1.6c.4,.4,1,.7,1.6,.7Z" class="g2_256"/>
<path d="M624.6,465.7c.6,0,1.2,-.3,1.6,-.7c.4,-.4,.7,-1,.7,-1.6c0,-.6,-.3,-1.2,-.7,-1.6c-.4,-.4,-1,-.6,-1.6,-.6c-.6,0,-1.2,.2,-1.6,.6c-.4,.4,-.6,1,-.6,1.6c0,.6,.2,1.2,.6,1.6c.4,.4,1,.7,1.6,.7Z" class="g1_256"/>
<path d="M624.6,465.7c.6,0,1.2,-.3,1.6,-.7c.4,-.4,.7,-1,.7,-1.6c0,-.6,-.3,-1.2,-.7,-1.6c-.4,-.4,-1,-.6,-1.6,-.6c-.6,0,-1.2,.2,-1.6,.6c-.4,.4,-.6,1,-.6,1.6c0,.6,.2,1.2,.6,1.6c.4,.4,1,.7,1.6,.7Z" class="g2_256"/>
<path d="M697.9,579.4c.6,0,1.2,-.2,1.6,-.6c.4,-.4,.7,-1,.7,-1.6c0,-.6,-.3,-1.2,-.7,-1.6c-.4,-.4,-1,-.7,-1.6,-.7c-.6,0,-1.2,.3,-1.6,.7c-.4,.4,-.7,1,-.7,1.6c0,.6,.3,1.2,.7,1.6c.4,.4,1,.6,1.6,.6Z" class="g1_256"/>
<path d="M697.9,579.4c.6,0,1.2,-.2,1.6,-.6c.4,-.4,.7,-1,.7,-1.6c0,-.6,-.3,-1.2,-.7,-1.6c-.4,-.4,-1,-.7,-1.6,-.7c-.6,0,-1.2,.3,-1.6,.7c-.4,.4,-.7,1,-.7,1.6c0,.6,.3,1.2,.7,1.6c.4,.4,1,.6,1.6,.6Z" class="g2_256"/>
<path d="M453.6,654.6V454.3" class="g3_256"/>
<path d="M453.6,654.6v2.6" class="g4_256"/>
<path d="M450,660c.6,0,1.1,.2,1.4,.7c.3,.5,.5,1.2,.5,2.1c0,.9,-.2,1.6,-.5,2.1c-.3,.5,-.8,.7,-1.4,.7c-.6,0,-1.1,-.2,-1.4,-.7c-.3,-.5,-.5,-1.2,-.5,-2.1c0,-.9,.2,-1.6,.5,-2.1c.3,-.5,.8,-.7,1.4,-.7Zm0,.5c-.4,0,-.7,.2,-.8,.6c-.2,.4,-.3,.9,-.3,1.7c0,.8,.1,1.3,.3,1.7c.1,.4,.4,.6,.8,.6c.4,0,.7,-.2,.9,-.6c.2,-.4,.3,-.9,.3,-1.7c0,-.8,-.1,-1.3,-.3,-1.7c-.2,-.4,-.5,-.6,-.9,-.6Z" class="g5_256"/>
<path d="M453.2,665.5h.8v-.9h-.8Z" class="g5_256"/>
<path d="M457.2,660c.6,0,1.1,.2,1.4,.7c.3,.5,.5,1.2,.5,2.1c0,.9,-.2,1.6,-.5,2.1c-.3,.5,-.8,.7,-1.4,.7c-.6,0,-1.1,-.2,-1.4,-.7c-.3,-.5,-.5,-1.2,-.5,-2.1c0,-.9,.2,-1.6,.5,-2.1c.3,-.5,.8,-.7,1.4,-.7Zm0,.5c-.4,0,-.7,.2,-.9,.6c-.2,.4,-.3,.9,-.3,1.7c0,.8,.1,1.3,.3,1.7c.2,.4,.5,.6,.9,.6c.4,0,.7,-.2,.9,-.6c.2,-.4,.3,-.9,.3,-1.7c0,-.8,-.1,-1.3,-.3,-1.7c-.2,-.4,-.5,-.6,-.9,-.6Z" class="g5_256"/>
<path d="M502.5,654.6V454.3" class="g3_256"/>
<path d="M502.5,654.6v2.6" class="g4_256"/>
<path d="M498.9,660c.6,0,1.1,.2,1.4,.7c.3,.5,.5,1.2,.5,2.1c0,.9,-.2,1.6,-.5,2.1c-.3,.5,-.8,.7,-1.4,.7c-.6,0,-1.1,-.2,-1.4,-.7c-.4,-.5,-.5,-1.2,-.5,-2.1c0,-.9,.1,-1.6,.5,-2.1c.3,-.5,.8,-.7,1.4,-.7Zm0,.5c-.4,0,-.7,.2,-.9,.6c-.2,.4,-.3,.9,-.3,1.7c0,.8,.1,1.3,.3,1.7c.2,.4,.5,.6,.9,.6c.4,0,.6,-.2,.8,-.6c.2,-.4,.3,-.9,.3,-1.7c0,-.8,-.1,-1.3,-.3,-1.7c-.2,-.4,-.4,-.6,-.8,-.6Z" class="g5_256"/>
<path d="M502.1,665.5h.8v-.9h-.8Z" class="g5_256"/>
<path d="M505.1,664.9h2.6v.6h-3.5v-.6c.3,-.3,.7,-.7,1.2,-1.2c.5,-.4,.8,-.8,.9,-.9c.2,-.3,.4,-.5,.5,-.7c.1,-.2,.1,-.4,.1,-.5c0,-.3,-.1,-.6,-.3,-.7c-.2,-.2,-.5,-.3,-.8,-.3c-.2,0,-.5,0,-.7,.1c-.3,.1,-.6,.2,-.8,.4v-.8c.3,-.1,.5,-.2,.8,-.3c.2,0,.5,0,.7,0c.6,0,1,.1,1.4,.4c.3,.3,.5,.6,.5,1.1c0,.2,-.1,.5,-.2,.7c0,.2,-.2,.4,-.4,.7c-.1,.1,-.3,.3,-.6,.6c-.3,.3,-.8,.8,-1.4,1.4Z" class="g5_256"/>
<path d="M551.3,654.6V454.3" class="g3_256"/>
<path d="M551.3,654.6v2.6" class="g4_256"/>
<path d="M547.7,660c.7,0,1.1,.2,1.4,.7c.4,.5,.5,1.2,.5,2.1c0,.9,-.1,1.6,-.5,2.1c-.3,.5,-.7,.7,-1.4,.7c-.6,0,-1.1,-.2,-1.4,-.7c-.3,-.5,-.5,-1.2,-.5,-2.1c0,-.9,.2,-1.6,.5,-2.1c.3,-.5,.8,-.7,1.4,-.7Zm0,.5c-.3,0,-.6,.2,-.8,.6c-.2,.4,-.3,.9,-.3,1.7c0,.8,.1,1.3,.3,1.7c.2,.4,.5,.6,.8,.6c.4,0,.7,-.2,.9,-.6c.2,-.4,.3,-.9,.3,-1.7c0,-.8,-.1,-1.3,-.3,-1.7c-.2,-.4,-.5,-.6,-.9,-.6Z" class="g5_256"/>
<path d="M550.9,665.5h.8v-.9h-.8Z" class="g5_256"/>
<path d="M555.2,660.1h.9v3.5h.8v.6h-.8v1.3h-.7v-1.3h-2.5v-.7l2.3,-3.4Zm.2,.6l-1.9,2.9h1.9v-2.9Z" class="g5_256"/>
<path d="M600.2,654.6V454.3" class="g3_256"/>
<path d="M600.2,654.6v2.6" class="g4_256"/>
<path d="M596.6,660c.6,0,1.1,.2,1.4,.7c.3,.5,.5,1.2,.5,2.1c0,.9,-.2,1.6,-.5,2.1c-.3,.5,-.8,.7,-1.4,.7c-.6,0,-1.1,-.2,-1.4,-.7c-.3,-.5,-.5,-1.2,-.5,-2.1c0,-.9,.2,-1.6,.5,-2.1c.3,-.5,.8,-.7,1.4,-.7Zm0,.5c-.4,0,-.7,.2,-.9,.6c-.2,.4,-.3,.9,-.3,1.7c0,.8,.1,1.3,.3,1.7c.2,.4,.5,.6,.9,.6c.4,0,.7,-.2,.9,-.6c.2,-.4,.2,-.9,.2,-1.7c0,-.8,0,-1.3,-.2,-1.7c-.2,-.4,-.5,-.6,-.9,-.6Z" class="g5_256"/>
<path d="M599.8,665.5h.8v-.9h-.8Z" class="g5_256"/>
<path d="M605.3,660.2v.7c-.1,-.1,-.3,-.2,-.5,-.2c-.2,-.1,-.4,-.1,-.6,-.1c-.5,0,-.9,.1,-1.1,.5c-.3,.3,-.4,.8,-.5,1.5c.2,-.2,.4,-.4,.6,-.5c.2,-.1,.4,-.2,.7,-.2c.6,0,1,.2,1.3,.5c.3,.4,.5,.8,.5,1.4c0,.5,-.2,1,-.5,1.3c-.3,.4,-.8,.5,-1.3,.5c-.7,0,-1.2,-.2,-1.5,-.7c-.3,-.5,-.5,-1.2,-.5,-2.1c0,-.9,.2,-1.6,.6,-2.1c.4,-.5,1,-.7,1.7,-.7c.2,0,.4,0,.5,0c.2,0,.4,.1,.6,.2Zm-1.4,2.3c-.4,0,-.6,.1,-.8,.3c-.2,.3,-.3,.6,-.3,1c0,.4,.1,.7,.3,.9c.2,.2,.4,.4,.8,.4c.3,0,.6,-.2,.8,-.4c.2,-.2,.2,-.5,.2,-.9c0,-.4,0,-.7,-.2,-1c-.2,-.2,-.5,-.3,-.8,-.3Z" class="g5_256"/>
<path d="M649,654.6V454.3" class="g3_256"/>
<path d="M649,654.6v2.6" class="g4_256"/>
<path d="M645.5,660c.6,0,1,.2,1.4,.7c.3,.5,.5,1.2,.5,2.1c0,.9,-.2,1.6,-.5,2.1c-.4,.5,-.8,.7,-1.4,.7c-.7,0,-1.1,-.2,-1.5,-.7c-.3,-.5,-.4,-1.2,-.4,-2.1c0,-.9,.1,-1.6,.4,-2.1c.4,-.5,.8,-.7,1.5,-.7Zm0,.5c-.4,0,-.7,.2,-.9,.6c-.2,.4,-.3,.9,-.3,1.7c0,.8,.1,1.3,.3,1.7c.2,.4,.5,.6,.9,.6c.3,0,.6,-.2,.8,-.6c.2,-.4,.3,-.9,.3,-1.7c0,-.8,-.1,-1.3,-.3,-1.7c-.2,-.4,-.5,-.6,-.8,-.6Z" class="g5_256"/>
<path d="M648.7,665.5h.7v-.9h-.7Z" class="g5_256"/>
<path d="M651.6,661.4c0,.3,.1,.6,.3,.7c.2,.2,.4,.3,.7,.3c.4,0,.6,-.1,.8,-.3c.2,-.1,.3,-.4,.3,-.7c0,-.2,-.1,-.5,-.3,-.6c-.2,-.2,-.4,-.3,-.8,-.3c-.3,0,-.5,.1,-.7,.3c-.2,.1,-.3,.4,-.3,.6Zm.3,1.2c-.3,-.1,-.6,-.2,-.8,-.4c-.1,-.2,-.2,-.5,-.2,-.8c0,-.5,.1,-.8,.4,-1.1c.4,-.2,.8,-.3,1.3,-.3c.6,0,1,.1,1.3,.3c.3,.3,.5,.6,.5,1.1c0,.3,-.1,.6,-.3,.8c-.2,.2,-.4,.3,-.7,.4c.3,.1,.6,.3,.8,.5c.2,.3,.3,.5,.3,.9c0,.5,-.1,.9,-.5,1.2c-.3,.3,-.8,.4,-1.4,.4c-.6,0,-1,-.1,-1.4,-.4c-.3,-.3,-.4,-.7,-.4,-1.2c0,-.4,.1,-.6,.3,-.9c.2,-.2,.4,-.4,.8,-.5Zm.7,.3c-.3,0,-.6,.1,-.8,.3c-.2,.2,-.3,.5,-.3,.8c0,.3,.1,.6,.3,.8c.2,.2,.5,.3,.8,.3c.4,0,.7,-.1,.9,-.3c.2,-.2,.3,-.5,.3,-.8c0,-.3,-.1,-.6,-.3,-.8c-.2,-.2,-.5,-.3,-.9,-.3Z" class="g5_256"/>
<path d="M697.9,654.6V454.3" class="g3_256"/>
<path d="M697.9,654.6v2.6" class="g4_256"/>
<path d="M692.9,664.9h1.2v-4.2l-1.4,.3v-.7l1.4,-.2h.7v4.8H696v.6h-3.1v-.6Z" class="g5_256"/>
<path d="M697.5,665.5h.8v-.9h-.8Z" class="g5_256"/>
<path d="M701.5,660c.6,0,1.1,.2,1.4,.7c.3,.5,.5,1.2,.5,2.1c0,.9,-.2,1.6,-.5,2.1c-.3,.5,-.8,.7,-1.4,.7c-.6,0,-1.1,-.2,-1.4,-.7c-.3,-.5,-.5,-1.2,-.5,-2.1c0,-.9,.2,-1.6,.5,-2.1c.3,-.5,.8,-.7,1.4,-.7Zm0,.5c-.4,0,-.7,.2,-.9,.6c-.2,.4,-.3,.9,-.3,1.7c0,.8,.1,1.3,.3,1.7c.2,.4,.5,.6,.9,.6c.4,0,.7,-.2,.9,-.6c.2,-.4,.2,-.9,.2,-1.7c0,-.8,0,-1.3,-.2,-1.7c-.2,-.4,-.5,-.6,-.9,-.6Z" class="g5_256"/>
<path d="M577.7,671.7l-1.5,2l1.5,2.1h-.8l-1.2,-1.6l-1.2,1.6h-.8l1.6,-2.1l-1.4,-2h.8l1.1,1.5l1.1,-1.5h.8Z" class="g5_256"/>
<path d="M441.4,645.5H710.1" class="g3_256"/>
<path d="M441.4,645.5h-2.6" class="g4_256"/>
<path d="M426.5,642.7c.7,0,1.1,.3,1.5,.8c.3,.4,.4,1.2,.4,2.1c0,.9,-.1,1.6,-.4,2.1c-.4,.5,-.8,.7,-1.5,.7c-.6,0,-1,-.2,-1.4,-.7c-.3,-.5,-.4,-1.2,-.4,-2.1c0,-.9,.1,-1.7,.4,-2.1c.4,-.5,.8,-.8,1.4,-.8Zm0,.6c-.3,0,-.6,.2,-.8,.6c-.2,.4,-.3,.9,-.3,1.7c0,.7,.1,1.3,.3,1.7c.2,.3,.5,.5,.8,.5c.4,0,.7,-.2,.9,-.5c.2,-.4,.3,-1,.3,-1.7c0,-.8,-.1,-1.3,-.3,-1.7c-.2,-.4,-.5,-.6,-.9,-.6Z" class="g5_256"/>
<path d="M429.8,648.3h.7v-.9h-.7Z" class="g5_256"/>
<path d="M432.8,647.7h2.6v.6h-3.5v-.6c.3,-.3,.7,-.7,1.1,-1.2c.5,-.5,.8,-.8,1,-.9c.2,-.3,.4,-.5,.5,-.7c0,-.2,.1,-.4,.1,-.6c0,-.3,-.1,-.5,-.3,-.7c-.2,-.2,-.5,-.2,-.8,-.2c-.2,0,-.5,0,-.7,.1c-.3,.1,-.6,.2,-.9,.3v-.7c.3,-.1,.6,-.2,.9,-.3c.2,0,.5,-.1,.7,-.1c.5,0,1,.2,1.3,.5c.4,.2,.5,.6,.5,1.1c0,.2,0,.4,-.1,.6c-.1,.2,-.2,.5,-.4,.7c-.1,.1,-.3,.3,-.6,.7c-.4,.3,-.8,.8,-1.4,1.4Z" class="g5_256"/>
<path d="M441.4,622.7H710.1" class="g3_256"/>
<path d="M441.4,622.7h-2.6" class="g4_256"/>
<path d="M426.5,620c.7,0,1.1,.2,1.5,.7c.3,.5,.4,1.2,.4,2.1c0,.9,-.1,1.6,-.4,2.1c-.4,.5,-.8,.8,-1.5,.8c-.6,0,-1,-.3,-1.4,-.8c-.3,-.5,-.4,-1.2,-.4,-2.1c0,-.9,.1,-1.6,.4,-2.1c.4,-.5,.8,-.7,1.4,-.7Zm0,.6c-.3,0,-.6,.1,-.8,.5c-.2,.4,-.3,1,-.3,1.7c0,.8,.1,1.3,.3,1.7c.2,.4,.5,.6,.8,.6c.4,0,.7,-.2,.9,-.6c.2,-.4,.3,-.9,.3,-1.7c0,-.7,-.1,-1.3,-.3,-1.7c-.2,-.4,-.5,-.5,-.9,-.5Z" class="g5_256"/>
<path d="M429.8,625.6h.7v-1h-.7Z" class="g5_256"/>
<path d="M434.4,622.6c.3,.1,.6,.2,.8,.5c.2,.2,.3,.5,.3,.9c0,.5,-.2,.9,-.5,1.2c-.4,.3,-.9,.5,-1.6,.5c-.3,0,-.5,-.1,-.7,-.1c-.3,0,-.5,-.1,-.8,-.2v-.7c.2,.1,.4,.2,.7,.2c.2,.1,.5,.1,.8,.1c.4,0,.8,-.1,1,-.2c.3,-.2,.4,-.5,.4,-.8c0,-.4,-.1,-.6,-.4,-.8c-.2,-.2,-.5,-.3,-.9,-.3h-.6v-.6h.6c.4,0,.7,-.1,.9,-.2c.2,-.1,.3,-.4,.3,-.6c0,-.3,-.1,-.5,-.3,-.7c-.2,-.1,-.5,-.2,-.9,-.2c-.2,0,-.4,0,-.7,.1c-.2,0,-.4,.1,-.7,.2v-.7c.3,-.1,.5,-.1,.8,-.2c.2,0,.4,0,.7,0c.5,0,1,.1,1.3,.4c.3,.2,.5,.6,.5,1c0,.3,-.1,.6,-.3,.8c-.1,.2,-.4,.3,-.7,.4Z" class="g5_256"/>
<path d="M441.4,599.9H710.1" class="g3_256"/>
<path d="M441.4,599.9h-2.6" class="g4_256"/>
<path d="M426.5,597.2c.7,0,1.1,.3,1.5,.7c.3,.5,.4,1.2,.4,2.2c0,.9,-.1,1.6,-.4,2.1c-.4,.5,-.8,.7,-1.5,.7c-.6,0,-1,-.2,-1.4,-.7c-.3,-.5,-.4,-1.2,-.4,-2.1c0,-1,.1,-1.7,.4,-2.2c.4,-.4,.8,-.7,1.4,-.7Zm0,.6c-.3,0,-.6,.2,-.8,.6c-.2,.3,-.3,.9,-.3,1.7c0,.7,.1,1.3,.3,1.7c.2,.3,.5,.5,.8,.5c.4,0,.7,-.2,.9,-.5c.2,-.4,.3,-1,.3,-1.7c0,-.8,-.1,-1.4,-.3,-1.7c-.2,-.4,-.5,-.6,-.9,-.6Z" class="g5_256"/>
<path d="M429.8,602.8h.7v-.9h-.7Z" class="g5_256"/>
<path d="M434,597.3h.9v3.6h.8v.6h-.8v1.3h-.7v-1.3h-2.5v-.7l2.3,-3.5Zm.2,.7l-1.9,2.9h1.9V598Z" class="g5_256"/>
<path d="M441.4,577.2H710.1" class="g3_256"/>
<path d="M441.4,577.2h-2.6" class="g4_256"/>
<path d="M426.5,574.5c.7,0,1.1,.2,1.5,.7c.3,.5,.4,1.2,.4,2.1c0,.9,-.1,1.6,-.4,2.1c-.4,.5,-.8,.8,-1.5,.8c-.6,0,-1,-.3,-1.4,-.8c-.3,-.5,-.4,-1.2,-.4,-2.1c0,-.9,.1,-1.6,.4,-2.1c.4,-.5,.8,-.7,1.4,-.7Zm0,.5c-.3,0,-.6,.2,-.8,.6c-.2,.4,-.3,1,-.3,1.7c0,.8,.1,1.3,.3,1.7c.2,.4,.5,.6,.8,.6c.4,0,.7,-.2,.9,-.6c.2,-.4,.3,-.9,.3,-1.7c0,-.7,-.1,-1.3,-.3,-1.7c-.2,-.4,-.5,-.6,-.9,-.6Z" class="g5_256"/>
<path d="M429.8,580h.7v-.9h-.7Z" class="g5_256"/>
<path d="M432.2,574.6h2.9v.6h-2.3v1.3c.1,0,.2,0,.4,-.1c.1,0,.2,0,.3,0c.6,0,1.1,.2,1.4,.5c.4,.4,.6,.8,.6,1.4c0,.6,-.2,1,-.6,1.4c-.4,.3,-.9,.5,-1.5,.5c-.3,0,-.5,-.1,-.7,-.1c-.3,0,-.5,-.1,-.8,-.2v-.7c.2,.1,.5,.2,.7,.2c.2,.1,.5,.1,.7,.1c.5,0,.8,-.1,1.1,-.3c.2,-.2,.3,-.5,.3,-.9c0,-.4,-.1,-.7,-.3,-.9c-.3,-.2,-.6,-.4,-1.1,-.4c-.2,0,-.3,.1,-.5,.1c-.2,.1,-.4,.1,-.6,.2v-2.7Z" class="g5_256"/>
<path d="M441.4,554.4H710.1" class="g3_256"/>
<path d="M441.4,554.4h-2.6" class="g4_256"/>
<path d="M426.5,551.7c.7,0,1.1,.3,1.5,.7c.3,.5,.4,1.2,.4,2.2c0,.9,-.1,1.6,-.4,2.1c-.4,.5,-.8,.7,-1.5,.7c-.6,0,-1,-.2,-1.4,-.7c-.3,-.5,-.4,-1.2,-.4,-2.1c0,-1,.1,-1.7,.4,-2.2c.4,-.4,.8,-.7,1.4,-.7Zm0,.6c-.3,0,-.6,.2,-.8,.6c-.2,.3,-.3,.9,-.3,1.7c0,.7,.1,1.3,.3,1.6c.2,.4,.5,.6,.8,.6c.4,0,.7,-.2,.9,-.6c.2,-.3,.3,-.9,.3,-1.6c0,-.8,-.1,-1.4,-.3,-1.7c-.2,-.4,-.5,-.6,-.9,-.6Z" class="g5_256"/>
<path d="M429.8,557.3h.7v-.9h-.7Z" class="g5_256"/>
<path d="M435.3,551.9v.7c-.2,-.1,-.4,-.2,-.6,-.2c-.2,0,-.3,-.1,-.5,-.1c-.5,0,-.9,.2,-1.2,.5c-.2,.4,-.4,.9,-.4,1.5c.1,-.2,.3,-.3,.5,-.5c.3,-.1,.5,-.1,.8,-.1c.5,0,1,.1,1.3,.5c.3,.3,.5,.8,.5,1.3c0,.6,-.2,1,-.5,1.4c-.4,.3,-.8,.5,-1.4,.5c-.6,0,-1.1,-.2,-1.4,-.7c-.4,-.5,-.5,-1.2,-.5,-2.1c0,-.9,.2,-1.6,.6,-2.1c.4,-.5,.9,-.8,1.6,-.8c.2,0,.4,0,.6,.1c.2,0,.4,.1,.6,.1Zm-1.5,2.4c-.3,0,-.6,.1,-.8,.3c-.2,.2,-.3,.5,-.3,.9c0,.4,.1,.7,.3,1c.2,.2,.5,.3,.8,.3c.4,0,.6,-.1,.8,-.3c.2,-.3,.3,-.6,.3,-1c0,-.4,-.1,-.7,-.3,-.9c-.2,-.2,-.4,-.3,-.8,-.3Z" class="g5_256"/>
<path d="M441.4,531.7H710.1" class="g3_256"/>
<path d="M441.4,531.7h-2.6" class="g4_256"/>
<path d="M426.5,529c.7,0,1.1,.2,1.5,.7c.3,.5,.4,1.2,.4,2.1c0,.9,-.1,1.6,-.4,2.1c-.4,.5,-.8,.7,-1.5,.7c-.6,0,-1,-.2,-1.4,-.7c-.3,-.5,-.4,-1.2,-.4,-2.1c0,-.9,.1,-1.6,.4,-2.1c.4,-.5,.8,-.7,1.4,-.7Zm0,.5c-.3,0,-.6,.2,-.8,.6c-.2,.4,-.3,.9,-.3,1.7c0,.8,.1,1.3,.3,1.7c.2,.4,.5,.6,.8,.6c.4,0,.7,-.2,.9,-.6c.2,-.4,.3,-.9,.3,-1.7c0,-.8,-.1,-1.3,-.3,-1.7c-.2,-.4,-.5,-.6,-.9,-.6Z" class="g5_256"/>
<path d="M429.8,534.5h.7v-.9h-.7Z" class="g5_256"/>
<path d="M432,529.1h3.5v.3l-2,5.1h-.8l1.9,-4.8H432v-.6Z" class="g5_256"/>
<path d="M441.4,508.9H710.1" class="g3_256"/>
<path d="M441.4,508.9h-2.6" class="g4_256"/>
<path d="M426.5,506.2c.7,0,1.1,.2,1.5,.7c.3,.5,.4,1.2,.4,2.1c0,1,-.1,1.7,-.4,2.2c-.4,.4,-.8,.7,-1.5,.7c-.6,0,-1,-.3,-1.4,-.7c-.3,-.5,-.4,-1.2,-.4,-2.2c0,-.9,.1,-1.6,.4,-2.1c.4,-.5,.8,-.7,1.4,-.7Zm0,.6c-.3,0,-.6,.2,-.8,.5c-.2,.4,-.3,1,-.3,1.7c0,.8,.1,1.4,.3,1.7c.2,.4,.5,.6,.8,.6c.4,0,.7,-.2,.9,-.6c.2,-.3,.3,-.9,.3,-1.7c0,-.7,-.1,-1.3,-.3,-1.7c-.2,-.3,-.5,-.5,-.9,-.5Z" class="g5_256"/>
<path d="M429.8,511.8h.7v-1h-.7Z" class="g5_256"/>
<path d="M432.7,507.7c0,.3,.1,.5,.3,.7c.2,.1,.4,.2,.7,.2c.3,0,.6,-.1,.8,-.2c.2,-.2,.2,-.4,.2,-.7c0,-.3,0,-.5,-.2,-.7c-.2,-.1,-.5,-.2,-.8,-.2c-.3,0,-.5,.1,-.7,.2c-.2,.2,-.3,.4,-.3,.7Zm.3,1.2c-.3,-.1,-.6,-.3,-.8,-.5c-.1,-.2,-.2,-.5,-.2,-.8c0,-.4,.1,-.8,.4,-1c.4,-.3,.8,-.4,1.3,-.4c.6,0,1,.1,1.3,.4c.3,.2,.5,.6,.5,1c0,.3,-.1,.6,-.3,.8c-.2,.2,-.4,.4,-.7,.5c.3,0,.6,.2,.8,.5c.2,.2,.3,.5,.3,.8c0,.6,-.2,1,-.5,1.3c-.3,.2,-.8,.4,-1.4,.4c-.6,0,-1,-.2,-1.4,-.4c-.3,-.3,-.5,-.7,-.5,-1.3c0,-.3,.1,-.6,.3,-.8c.3,-.3,.5,-.5,.9,-.5Zm.7,.3c-.3,0,-.6,.1,-.8,.3c-.2,.1,-.3,.4,-.3,.7c0,.4,.1,.6,.3,.8c.2,.2,.5,.3,.8,.3c.4,0,.7,-.1,.9,-.3c.2,-.2,.3,-.4,.3,-.8c0,-.3,-.1,-.6,-.3,-.7c-.2,-.2,-.5,-.3,-.9,-.3Z" class="g5_256"/>
<path d="M441.4,486.2H710.1" class="g3_256"/>
<path d="M441.4,486.2h-2.6" class="g4_256"/>
<path d="M426.5,483.4c.7,0,1.1,.3,1.5,.8c.3,.5,.4,1.2,.4,2.1c0,.9,-.1,1.6,-.4,2.1c-.4,.5,-.8,.7,-1.5,.7c-.6,0,-1,-.2,-1.4,-.7c-.3,-.5,-.4,-1.2,-.4,-2.1c0,-.9,.1,-1.6,.4,-2.1c.4,-.5,.8,-.8,1.4,-.8Zm0,.6c-.3,0,-.6,.2,-.8,.6c-.2,.4,-.3,.9,-.3,1.7c0,.7,.1,1.3,.3,1.7c.2,.4,.5,.5,.8,.5c.4,0,.7,-.1,.9,-.5c.2,-.4,.3,-1,.3,-1.7c0,-.8,-.1,-1.3,-.3,-1.7c-.2,-.4,-.5,-.6,-.9,-.6Z" class="g5_256"/>
<path d="M429.8,489h.7v-.9h-.7Z" class="g5_256"/>
<path d="M433.6,486.6c.4,0,.6,-.1,.8,-.4c.2,-.2,.3,-.5,.3,-.9c0,-.4,-.1,-.7,-.3,-.9c-.2,-.3,-.4,-.4,-.8,-.4c-.3,0,-.6,.1,-.8,.4c-.1,.2,-.2,.5,-.2,.9c0,.4,.1,.7,.2,.9c.2,.3,.5,.4,.8,.4Zm-1.4,2.3v-.7c.2,.1,.3,.2,.5,.2c.2,.1,.4,.1,.6,.1c.5,0,.9,-.2,1.1,-.5c.3,-.3,.4,-.8,.5,-1.5c-.2,.2,-.4,.4,-.6,.5c-.2,.1,-.4,.2,-.7,.2c-.6,0,-1,-.2,-1.3,-.5c-.3,-.4,-.5,-.8,-.5,-1.4c0,-.6,.2,-1,.5,-1.3c.3,-.4,.8,-.6,1.3,-.6c.7,0,1.2,.3,1.5,.8c.3,.5,.5,1.2,.5,2.1c0,.9,-.2,1.5,-.6,2.1c-.4,.5,-1,.7,-1.7,.7c-.2,0,-.3,0,-.5,0c-.2,-.1,-.4,-.1,-.6,-.2Z" class="g5_256"/>
<path d="M441.4,463.4H710.1" class="g3_256"/>
<path d="M441.4,463.4h-2.6" class="g4_256"/>
<path d="M425.1,465.6h1.2v-4.1l-1.3,.2V461l1.3,-.2h.7v4.8h1.2v.7h-3.1v-.7Z" class="g5_256"/>
<path d="M429.8,466.3h.7v-1h-.7Z" class="g5_256"/>
<path d="M433.7,460.7c.6,0,1.1,.2,1.4,.7c.4,.5,.5,1.2,.5,2.1c0,1,-.1,1.7,-.5,2.1c-.3,.5,-.8,.8,-1.4,.8c-.6,0,-1.1,-.3,-1.4,-.8c-.3,-.4,-.5,-1.1,-.5,-2.1c0,-.9,.2,-1.6,.5,-2.1c.3,-.5,.8,-.7,1.4,-.7Zm0,.6c-.4,0,-.6,.2,-.8,.5c-.2,.4,-.3,1,-.3,1.7c0,.8,.1,1.4,.3,1.7c.2,.4,.4,.6,.8,.6c.4,0,.7,-.2,.9,-.6c.2,-.3,.3,-.9,.3,-1.7c0,-.7,-.1,-1.3,-.3,-1.7c-.2,-.3,-.5,-.5,-.9,-.5Z" class="g5_256"/>
<path d="M420,554.2c.5,.2,.8,.4,.9,.6c.2,.2,.2,.4,.2,.7v.6h-.5v-.4c0,-.2,-.1,-.4,-.2,-.5c0,-.1,-.2,-.2,-.6,-.3l-.3,-.1l-4,1.6v-.7l3.2,-1.3l-3.2,-1.3v-.7l4.5,1.8Z" class="g5_256"/>
<path d="M453.6,645.5l2.4,-4.3l2.6,-4.4l2.9,-4.7c22.7,-34.5,51.5,-67.5,80.8,-96.7l3.4,-3.2l3.2,-3.1c14.8,-13.9,31.8,-29.2,49.7,-38.8l1.6,-.8l1.4,-.7l1.5,-.6l1.3,-.6c8.3,-3.3,16.2,-4.3,24.4,-.2l1.1,.6l1.1,.7l1.2,.7c4.5,3,8.4,7,12.1,11l1.6,1.9l1.8,2.1c9.1,11,17.2,23,25.3,34.8l4.7,7.1l5.6,8.5l6.6,10.1l8,12.3" class="g6_256"/>
<path d="M441.4,654.6V454.3M710.1,654.6V454.3M441.4,654.6H710.1M441.4,454.3H710.1" class="g7_256"/>
<path d="M554.9,442.9c-.4,.7,-.7,1.4,-.8,2.1c-.2,.6,-.3,1.3,-.3,2c0,.6,.1,1.3,.3,2c.2,.6,.4,1.3,.8,2h-.7c-.4,-.7,-.7,-1.4,-1,-2.1c-.2,-.6,-.3,-1.3,-.3,-1.9c0,-.7,.1,-1.4,.3,-2c.3,-.7,.6,-1.4,1,-2.1h.7Z" class="g5_256"/>
<path d="M556.8,449h1.4v-5l-1.6,.3v-.8l1.6,-.3h.9V449h1.5v.8h-3.8V449Z" class="g5_256"/>
<path d="M562.5,448.7h.9v.7l-.7,1.4h-.6l.4,-1.4v-.7Z" class="g5_256"/>
<path d="M568.3,449h1.4v-5l-1.6,.3v-.8l1.6,-.3h.9V449h1.5v.8h-3.8V449Z" class="g5_256"/>
<path d="M573.9,448.7h1v.7l-.7,1.4h-.6l.3,-1.4v-.7Z" class="g5_256"/>
<path d="M581.8,443.2h1.1v4.3h1v.7h-1v1.6H582v-1.6h-2.9v-.8l2.7,-4.2Zm.2,.8l-2.2,3.5H582V444Z" class="g5_256"/>
<path d="M585.4,448.7h1v.7l-.8,1.4h-.5l.3,-1.4v-.7Z" class="g5_256"/>
<path d="M591.2,449h1.5v-5l-1.6,.3v-.8l1.6,-.3h.9V449H595v.8h-3.8V449Z" class="g5_256"/>
<path d="M596.6,442.9h.7c.4,.7,.8,1.4,1,2.1c.2,.6,.3,1.3,.3,2c0,.6,-.1,1.3,-.3,1.9c-.2,.7,-.6,1.4,-1,2.1h-.7c.4,-.7,.7,-1.4,.9,-2c.1,-.7,.2,-1.4,.2,-2c0,-.7,-.1,-1.4,-.2,-2c-.2,-.7,-.5,-1.4,-.9,-2.1Z" class="g5_256"/>
</svg>