<?xml version="1.0" encoding="UTF-8" standalone="no"?>
<!DOCTYPE svg PUBLIC "-//W3C//DTD SVG 1.1//EN"
"http://www.w3.org/Graphics/SVG/1.1/DTD/svg11.dtd">
<svg viewBox="0 0 811 1017" version="1.1" xmlns="http://www.w3.org/2000/svg" xmlns:xlink="http://www.w3.org/1999/xlink">
<defs>
<clipPath id="c0_164"><path d="M156.1,499V279h220V499Z"/></clipPath>
<clipPath id="c1_164"><path d="M119.4,838.2V647.5h605V838.2Z"/></clipPath>
<style type="text/css"><![CDATA[
.g0_164{
fill: #0E0E0E;
}
]]></style>
</defs>
<image clip-path="url(#c0_164)" preserveAspectRatio="none" x="156" y="279" width="220" height="220" xlink:href="img/1.jpg"/>
<path d="M423.9,605.7c.1,-.6,.7,-1.8,1,-2.2c.3,-.3,.9,-.9,1.3,-.9c.6,0,.6,.5,.6,.8c0,1.1,-2,2,-2.9,2.3Zm2.5,-3.4c-.7,0,-1.4,.5,-1.8,1.2l-.1,-.1l1.5,-5.6l-2.3,.2l-.1,.2c.6,0,1.1,.1,1.1,.6c0,0,0,.2,-.1,.4l-2.6,9.6h1l.7,-2.6l.4,-.1l.8,1.9c.2,.3,.3,.6,.4,.7c.2,.1,.3,.2,.5,.2c1,0,1.3,-.6,1.8,-1.8l-.3,-.1c-.3,.6,-.5,1.2,-.9,1.2c-.2,0,-.4,-.6,-.6,-1l-.7,-1.6l.3,-.2c.7,-.3,1.3,-.6,1.7,-1c.4,-.4,.6,-.7,.6,-1.1c0,-.7,-.5,-1,-1.3,-1Z" class="g0_164"/>
<path d="M433.5,606.9h7.6v-.8h-7.6Zm0,-3h7.6v-.8h-7.6Z" class="g0_164"/>
<path d="M450.8,589v.2c.5,0,1.1,.1,1.3,.2c.5,.2,.5,.4,.5,1v6.5c0,.3,0,.6,-.1,.8c0,.6,-.9,.7,-1.6,.8v.2h4.7v-.2c-.5,0,-1.2,-.1,-1.5,-.3c-.2,-.3,-.2,-.8,-.2,-1.4v-8.6c-.8,.4,-2.1,.8,-3.1,.8Z" class="g0_164"/>
<path d="M447.7,605.4h10.7v-.9H447.7Z" class="g0_164"/>
<path d="M451.4,613.6l.9,-3.3c.1,-.4,.1,-.9,.3,-1.1c.2,-.2,.4,-.2,.8,-.2c1.3,0,1.9,.7,1.9,1.9c0,.4,0,.7,-.2,1c-.5,.9,-1.6,1.7,-3,1.7h-.7Zm-.8,2.8l.7,-2.4h1.2l2,5H457l.1,-.2c-.3,0,-.5,0,-.7,-.1c-.2,-.1,-.6,-.3,-.7,-.5c-.1,-.2,-.3,-.4,-.4,-.7c-.1,-.3,-.2,-.6,-.4,-1.1l-1,-2.6c.4,-.1,.8,-.2,1.2,-.4c.3,-.1,.7,-.3,.9,-.6c.3,-.2,.5,-.5,.6,-.8c.2,-.3,.2,-.6,.2,-1c0,-.7,-.3,-1.3,-.9,-1.7c-.6,-.4,-1.4,-.6,-2.5,-.6h-3.7l-.1,.2c.2,0,.5,0,.6,.1c.5,0,.7,.4,.7,.9c0,.2,0,.5,-.1,.9l-1.7,6.2c-.1,.5,-.4,1.1,-.6,1.4c-.3,.2,-.7,.4,-1.1,.4l-.1,.2h4.5v-.2c-1,0,-1.4,-.5,-1.4,-1.1c0,-.1,0,-.3,0,-.5c.1,-.2,.1,-.5,.2,-.8Z" class="g0_164"/>
<image clip-path="url(#c1_164)" preserveAspectRatio="none" x="119" y="648" width="605" height="190" xlink:href="img/2.jpg"/>
</svg>