<?xml version="1.0" encoding="UTF-8" standalone="no"?>
<!DOCTYPE svg PUBLIC "-//W3C//DTD SVG 1.1//EN"
"http://www.w3.org/Graphics/SVG/1.1/DTD/svg11.dtd">
<svg viewBox="0 0 811 1017" version="1.1" xmlns="http://www.w3.org/2000/svg" xmlns:xlink="http://www.w3.org/1999/xlink">
<defs>
<style type="text/css"><![CDATA[
.g0_422{
fill: #FFF;
}
.g1_422{
fill: #838485;
}
.g2_422{
fill: #8F8F8F;
}
.g3_422{
fill: #999898;
}
.g4_422{
fill: #A0A1A0;
}
.g5_422{
fill: #AAABAB;
}
.g6_422{
fill: #B4B4B5;
}
.g7_422{
fill: #BDBDBD;
}
.g8_422{
fill: #C6C5C4;
}
.g9_422{
fill: #CDCCCB;
}
.ga_422{
fill: #D5D5D3;
}
.gb_422{
fill: #DBDBDB;
}
.gc_422{
fill: #E3E2E2;
}
.gd_422{
fill: #E9E9E9;
}
.ge_422{
fill: #EDEFF0;
}
.gf_422{
fill: #F3F6F7;
}
.gg_422{
fill: #F8F8F7;
}
.gh_422{
fill: #F9FBFB;
}
.gi_422{
fill: none;
stroke: #040504;
stroke-width: 0.609;
stroke-linejoin: round;
}
.gj_422{
fill: #040504;
}
.gk_422{
fill: none;
stroke: #040504;
stroke-width: 0.609;
stroke-linecap: square;
}
.gl_422{
fill: #000;
}
]]></style>
</defs>
<path d="M157.4,357.9H429.3V86H157.4Z" class="g0_422"/>
<path d="M249.5,357.9h10.7l-4.3,-.5l-2.1,-.2l-2.2,-.2l-2.1,.6l-.4,.3h.4Z" class="g1_422"/>
<path d="M159.6,135.2l.6,-2.1c2.1,-5.1,.1,-11.6,-.5,-17.1l-.1,-1.1l-.1,1.1c-.2,5.6,-.9,11.5,-.2,17.1l.3,2.1Z" class="g1_422"/>
<path d="M243.1,357.9h6l.4,-.3l2.1,-.6l2.2,.2l2.1,.2l4.3,.5h15L273,356.6l-1.4,-.8c-3.4,-2.1,-7.6,-1.6,-11.4,-1.9l-2.2,-.3h-2.1c-3.8,-.6,-8.5,-.1,-11.8,2.2l-2.6,2.1h1.6Z" class="g2_422"/>
<path d="M159.6,135.2l-.3,-2.1c-.7,-5.6,0,-11.5,.2,-17.1l.1,-1.1l.1,1.1c.6,5.5,2.6,12,.5,17.1l-.6,2.1Zm0,8.1l1,-1.6l.8,-2.2c1.3,-2.9,2.3,-9.7,2.1,-12.8l-.1,-2.2l-.2,-2.1c-.4,-5,-.4,-10.3,-2.1,-15l-.8,-2.1l-.7,-1.1l-.3,1.1c-1.2,10.8,-1.7,25.6,-.1,36.4l.4,1.6Z" class="g2_422"/>
<path d="M159.2,141.7l-.3,-2.2c-1.1,-10.3,-.8,-23.9,.4,-34.2l.3,-1.1l.7,1.1l.8,2.1c1.7,4.7,1.7,10,2.1,15l.2,2.1l.1,2.2c.2,3.1,-.8,9.9,-2.1,12.8l-.8,2.2l-1,1.6l-.4,-1.6Zm75.3,205.5v-4.3l-2.1,-2.1V317.2h-2.2l-2.1,-2.1h-8.6L217.4,313v-6.5l-2.2,-2.1V278.7h-4.3l-4.2,-4.3l-2.2,-2.1l-2.1,-2.2v-4.3l-2.2,-2.1v-8.6L198.1,253V223l-6.4,-6.4v-2.1h-6.5l-2.1,-2.2V199.5L181,197.3V163.1h-8.6l-4.3,-4.3L166,156.6V96.7l2.1,-2.1h62.1l2.2,2.1v2.1l2.1,2.2v8.5h34.3l2.1,2.2h12.8l2.2,2.1V116l2.1,2.1h2.2l2.1,2.1l4.3,4.3v2.2h30l2.1,2.1h8.6l2.1,2.2h4.3l2.1,2.1l4.3,4.3v2.1l2.2,2.2v2.1h27.8l2.1,2.1h4.3l2.2,2.2h4.2l2.2,2.1l2.1,2.2l4.3,4.2v4.3h12.9l2.1,2.2h2.1l2.2,2.1v45l-2.2,2.1h-2.1l-2.1,2.2h-15v4.2l-2.2,2.2l-2.1,2.1l-2.2,2.2h-2.1l-4.3,4.2v4.3l2.2,2.2v10.7h12.8l2.1,2.1v2.2l2.2,2.1h2.1l2.2,2.1l4.3,4.3v2.2l2.1,2.1l2.1,2.1V268l2.2,2.1v21.4l-6.4,6.5h-8.6l-2.2,2.1V313l-2.1,2.1h-8.6l-2.1,2.1h-2.1v4.3l-2.2,2.2v6.4l-2.1,2.1H371.5l-2.1,2.2v8.5l-2.2,2.2l-4.2,4.3H341.5l-6.4,-6.5v-2.1H333l-2.2,-2.2l-2.1,-2.1l-2.1,-2.1h-2.2l-2.1,-2.2h-2.2L318,330.1V317.2H307.3l-2.1,-2.1h-4.3l-4.3,4.3v2.1l-2.2,2.2l-4.2,4.2h-4.3v15l-2.2,2.2v2.1l-2.1,2.2h-45l-2.1,-2.2Zm-74.9,10.7h81.9l2.6,-2.1c3.3,-2.3,8,-2.8,11.8,-2.2H258l2.2,.3c3.8,.3,8,-.2,11.4,1.9l1.4,.8l2.2,1.3H429.3V86H157.4V357.9h2.2Z" class="g3_422"/>
<path d="M248.8,345.1l-1.5,-.6l-2.1,-.9l-1.4,-.7l-.7,-.5l-1.6,-1.6l-.6,-.5l-1.1,-1.7l-.7,-2.1l-.3,-.7l-.6,-1.4l-.6,-2.2l-.6,-2.1l-.4,-1.4c-.8,-3.9,-1.1,-7.6,-1.2,-11.5l-.3,-2.1l-.6,-1.9l-.3,-.3l-1.8,-1.8c-3.9,-1.7,-4.8,-1.4,-7.8,-4.6l-.8,-1l-.7,-1.1c-1.8,-4,-2.2,-6.4,-3.2,-10.7l-.2,-2.2l-.2,-1l-.1,-1.1l-.2,-2.1l-.2,-2.2l-.1,-2.1c-.4,-4.3,-.7,-8.5,-1,-12.9l-.1,-2.1l-.1,-2.2l-.3,-2.1v-.2l-2.2,-1.7l-.7,-.2l-1.4,-.6l-2.2,-.9l-1,-.7l-2.7,-2.1c-5.3,-7.1,-4.6,-19.3,-5.4,-27.9l-.2,-2.1l-.1,-2.1l-.1,-2.2l-.1,-2.1l-.1,-2.2l-.1,-2.1l-.1,-2.1l-.5,-2.2l-.3,-.7l-2.1,-1l-1.4,-.4L196,210l-2.2,-.7L191.7,208l-2.2,-1.7c-1.9,-2.6,-3.2,-5.7,-3.5,-9l-.4,-2.1V193l-.2,-2.1l-.2,-2.1c-.2,-4.3,-.5,-8.7,-.5,-12.9l-.1,-2.1l-.1,-2.2c-.2,-4.6,.3,-8.2,-.8,-12.8l-.4,-2.2l-.2,-1L182,154.5l-1,-1.4l-2.2,-1.5l-2.1,-2.1l-1.1,-1.4l-1.1,-2.2l-2.1,-2.1l-1.2,-2.1l-.9,-2.2l-.7,-2.1c-.9,-4.3,-1.6,-8.5,-1.2,-12.9l.2,-2.1l.2,-2.2l.1,-2.1c.6,-10.6,2.7,-17.8,14.2,-20l2.1,-.2l2.2,-.2l2.1,-.3l2.2,-.2l2.1,-.2H196l2.1,-.2l2.1,-.1l2.2,.3c3.5,.4,7.5,.9,10.7,2.4l2.1,1.2l.7,.4c2.9,2,6.4,3.4,8.4,6.4l1.2,2.1l2.1,2.2l.5,.1c5.1,1.2,7.6,1.2,12.8,1.2l2.2,.1l2.1,.1c4.3,.1,8.6,.5,12.8,.5l2.2,.1l2.1,.2l2.2,.2l2.1,.1l2.2,.2l2.1,.6l2.1,.6l.7,.3l1.5,.6l2.1,1.1l.4,.4l1.8,2.1l1.2,2.2l.9,2.1l.4,2.2l1.2,2.1l.5,.2l2.2,.5l2.1,.1l2.2,.1l2.1,.1l2.1,.1l2.2,.1c9.8,1.1,23.7,-.4,32.1,4.8l.5,.4l1.6,1.6l.4,.6l1.2,2.1l.6,1.4l.3,.8l.5,2.1l1.3,1.6l.9,.5l1.3,.3l2.1,.1l2.2,.1l2.1,.2l2.1,.1l2.2,.3c4.3,.5,8.5,.7,12.8,.9l2.2,.2l2.1,.2l2.1,.2l2.2,.4c3.4,.2,6.8,1.5,9.6,3.5l1.1,.8l1.3,1.3l.8,1.4l.4,.7l1,2.2l.5,2.1l.3,.3l1.7,1.9l.4,.1l2.2,.2l2.1,.2l2.1,.2l2.2,.2c12.5,2,23.9,4.6,21.9,20.5v2.1l-.3,2.2l-.2,2.1c-.8,5.2,.5,5.6,-2.6,10.7l-1.7,2.2l-2.1,2.1l-2.2,1.3l-2.1,.8l-2.2,.8l-2.1,1.4l-2.1,.6l-2.2,.5l-2.1,.4l-2.2,.3l-2.1,.2l-1.1,.1l-1,.2l-2.2,.5l-1.2,1.5l-.4,2.1l-.4,2.1c-.9,6,-5.2,8.8,-10.8,9.5l-2.2,.3l-2.1,.7l-.2,.2l.1,2.2l.1,.1l2.1,.6l2.2,.4l2.1,.4l2.2,.6l2.1,1.1l1.2,1.1l.9,1l.7,1.1l.9,2.1l.6,2.2l.4,2.1l.3,2.2l1.2,2.1l.2,.3l2.2,.5l2.1,.3l2.1,.5l1.6,.6l.6,.2l2.1,1l1.1,.9l1.1,1.3l.5,.8c2.3,4.2,3.1,15,3.7,20l1.1,1.5l1.1,2.1l1.4,2.1l-1.4,2.2l-1.1,2.1l-1.1,1.4l-.1,.8l-.3,2.1l-.4,2.1l-.5,2.2l-.8,2.1l-1.3,2.2l-.8,2.1l-.6,2.1l-1.1,2.2l-.5,.7c-2.4,4.6,-6.5,4.8,-10.7,6.9l-.7,.9l-1.4,1.8l-.4,.4l-.8,2.1c-1.5,4.6,-2.6,8.2,-7.4,10.1l-1.4,.6l-.7,.3c-6.2,1.6,-9.3,3.5,-16.1,4l-1.1,.6l-2.1,1.6l-2.1,.7l-1.1,-.7L348,332.8l-.7,-.6l-1.5,-.2l-2.1,-.2l-2.1,-.3l-2.2,-.3l-2.1,-.3l-2.2,-.4l-2.1,-.3l-.7,-.1l-1.5,-.4l-2.1,-.7l-2.1,-.8l-.5,-.3l-1.7,-1.4l-.6,-.7l-1,-2.1l-.5,-1.1l-.4,-1.1l-.4,-2.1l-.5,-2.2l-.6,-2.1l-.3,-.2L318,313.5l-2.1,-.3l-1.5,-.3l-.7,-.1l-2.1,-.5l-2.2,-1l-.8,-.5l-1.3,-1.1l-.8,-1l-1.1,-2.2l-.2,-.5l-.6,-1.6l-.4,-2.2l-.3,-2.1l-.7,-2.1l-.2,-.3l-2.1,-.1l-.4,.4l-.6,2.1c-.7,6.5,-2.5,11.8,-9.7,13l-2.2,.4l-2.1,.4l-1.4,1.2l-.6,2.1l-.2,1.1l-.1,1.1l-.2,2.1l-.3,2.2l-.4,2.1l-.4,2.1l-.7,1.8l-.2,.4l-1.3,2.1l-.6,2.2l-2.2,4.2l-2.1,2.2l-2.2,1.7c-6.4,3.3,-14.2,2.2,-21.4,3l-2.1,-.2l-.7,-.2Zm-12.2,4.3h45l2.1,-2.2v-2.1l2.2,-2.2v-15h4.3l4.2,-4.2l2.2,-2.2v-2.1l4.3,-4.3h4.3l2.1,2.1H318v12.9l2.1,2.1h2.2l2.1,2.2h2.2l2.1,2.1l2.1,2.1l2.2,2.2h2.1v2.1l6.5,6.5H363l4.2,-4.3l2.2,-2.2v-8.5l2.1,-2.2h12.9l2.1,-2.1v-6.4l2.2,-2.2v-4.3h2.1l2.1,-2.1h8.6l2.1,-2.2V300.1l2.2,-2.1h8.6l6.4,-6.5V270.1L418.6,268v-2.2l-2.1,-2.1l-2.1,-2.1v-2.2l-4.3,-4.3L407.9,253h-2.1l-2.2,-2.1v-2.2l-2.1,-2.1H388.7V235.9l-2.2,-2.2v-4.3l4.3,-4.2h2.1l2.2,-2.2l2.1,-2.1l2.2,-2.2v-4.2h15l2.1,-2.2h2.1l2.2,-2.1v-45l-2.2,-2.1h-2.1l-2.1,-2.2H401.5v-4.3l-4.3,-4.2l-2.1,-2.2l-2.2,-2.1h-4.2l-2.2,-2.2h-4.3l-2.1,-2.1H352.3v-2.1l-2.2,-2.2v-2.1l-4.3,-4.3L343.7,131h-4.3l-2.1,-2.2h-8.6l-2.1,-2.1h-30v-2.2l-4.3,-4.3l-2.1,-2.1H288L285.9,116v-2.2l-2.2,-2.1H270.9l-2.1,-2.2H234.5V101l-2.1,-2.2V96.7l-2.2,-2.2H168.1L166,96.7v59.9l6.4,6.5H181v34.2l2.1,2.2v12.8l2.1,2.2h6.5v2.1l6.4,6.4v30l2.1,2.1v8.6l2.2,2.1v4.3l2.1,2.2l2.2,2.1l4.2,4.3h4.3v25.7l2.2,2.1v6.4l2.1,2.2h8.6l2.1,2.1h2.2v23.6l2.1,2.1v4.3l2.1,2.2Z" class="g4_422"/>
<path d="M248.6,340.8l-1.3,-.9l-1.4,-1.3l-.7,-.7L244,336.5l-.9,-1.3l-.6,-.8c-1.9,-3.8,-3.1,-4,-4.3,-8.6l-.5,-2.1l-.4,-2.2c-.6,-4.3,-.7,-6.4,-2.2,-10.7l-.6,-1.7l-.4,-.4l-1.7,-2.2l-2.2,-1.2c-2.2,-1.8,-4.7,-4.6,-5.5,-7.3l-.9,-2.2l-.9,-2.1c-1.3,-4.1,-1.8,-8.7,-2.4,-12.9l-.3,-2.1l-.3,-2.1l-.2,-2.2l-.2,-2.1l-.2,-2.2l-.2,-2.1l-.1,-2.2l-.4,-2.1l-.6,-2.1l-.6,-1.7l-.5,-.5l-1.7,-1.6l-.8,-.5l-1.3,-.9c-3,-2.2,-5.3,-5.6,-6.4,-9.1l-.3,-.7l-.6,-2.2l-.5,-2.1l-.3,-2.2c-.5,-3.6,-1.2,-7,-1.4,-10.7l-.3,-2.1l-.2,-2.1c-.6,-4,-.3,-9.3,-1.3,-12.9l-.9,-2.1l-.7,-1.5L199,208l-.9,-.6l-2.1,-1l-.8,-.5l-1.4,-1.1l-1.2,-1c-1.7,-1.8,-4.2,-6.1,-4.2,-8.6L188,193l-.3,-2.1c-.2,-3.6,-.9,-7.1,-1,-10.7l-.2,-2.1l-.1,-2.2l-.1,-2.1l-.2,-2.2c-.3,-3.8,.1,-7.7,-.9,-11.5l-.2,-1.3l-.4,-2.2l-.3,-2.1l-.4,-2.1l-.4,-2.2l-.3,-2.1l-.1,-.6L182,145.9l-1,-.8l-2.2,-1.3L176.7,142l-.4,-.3l-1.8,-2.2l-1.2,-2.1l-.9,-2.2c-2.1,-6.3,-2.3,-6.1,-1.2,-12.8l.3,-2.2l.4,-2.1c.9,-4.7,.5,-6.4,3.4,-10.7l1.4,-1.5l.6,-.6l1.5,-1.4l1.3,-.8c2.3,-1.7,6.5,-2.2,9.4,-2.8l2.2,-.4l4.3,-.6l2.1,-.2l2.1,-.1l2.2,.4l2.1,.6l2.2,.6l1,.4l1.1,.4l2.1,1.2l.9,.5l1.3,.9l1.2,1.3l.9,1l.9,1.1l1.3,2.1l2.1,1.5l.9,.7c3.9,.6,7.6,1.4,11.5,2.1l.5,.1l2.1,.4c4.3,.1,8.6,.4,12.8,.7l2.2,.2l2.1,.2l2.2,.2l2.1,.1c4.3,.5,8.6,.8,12.9,1.8l2.1,1c2.9,1.3,7,5,7.9,8.2l.7,.9l.7,1.2l1.4,.6l2.1,.9l2.2,.4c11.4,1,23.1,1.3,34.2,4.1l1.1,.4l1.1,.5l2.1,1.1c2.5,1.9,4.7,4.1,6,7l.4,.5l1.4,1.6c3.8,1.9,8.1,1.5,12.2,2.2l1.4,.2l2.2,.3l2.1,.3l2.2,.4l2.1,.3l2.1,.2l2.2,.3l1.1,.1c3.3,.6,7.6,1,10.7,2.2l1,.4l2.2,1.2c3.2,2,4.8,3.5,6.6,6.9l1.9,1.9l.3,.3l1.9,.7l2.1,.8c3.7,.4,7.1,.9,10.7,1.8l2.2,.7l.7,.2c3.5,2,7.5,3.4,10.3,6.5l1.8,2.1l1.2,2.2l.5,2.1l-.3,2.1l-.2,2.2l-.4,2.1c-.6,3.6,-.7,7.4,-2.3,10.7l-.6,1.1l-.7,1.1c-3,3.1,-5.1,3.7,-7.9,7.2l-1.8,1.3l-.3,.2l-2.2,.9l-2.1,.7l-1.6,.4l-.6,.1l-2.1,.4l-2.1,.3l-2.2,.4l-1.3,.9l-.8,1l-1,1.2c-1,3.6,-2.3,6.9,-5.4,9.2l-2.2,1.3l-.3,.2l-1.8,.7l-2.2,.6l-2.1,.8l-2.2,2.1l.3,2.2l1.9,1.9l.6,.2l1.5,.6l2.2,.6l2.1,1l2.2,1.3l1,.8l1.1,1.2l.6,.9l1.2,2.2l.3,.8l.4,1.3l.6,2.2l1.2,1.9l.1,.2l2,2.2l2.2,.7c7.1,1.9,9.7,5.1,11.4,12.1l.6,2.1l.4,2.2l.4,2.1l.3,2.2c1.7,7.2,1.2,14.7,-2,21.4l-.4,.8l-.9,1.3l-1.3,1.5l-.6,.7l-1.3,2.1l-.2,.4l-1.2,1.7l-1,1.1l-1,1.1l-1.1,.9l-1.7,1.2l-.4,.3l-2.2,1.4l-.3,.5l-1.4,2.1l-.4,.6l-1.5,1.5l-.7,.8l-1.3,1.4c-3.2,6.1,-5.1,8.4,-11.5,11.3l-2.2,1.4l-.3,.1c-7.2,3.4,-15.4,4.2,-23.2,2.4l-1.1,-.2l-1,-.2l-2.2,-.5l-2.1,-.5c-7.1,-1.5,-12,-4.1,-14,-11.7l-.9,-2.1l-.1,-.1l-2.2,-2.1L318,311.6l-2.1,-.5l-.8,-.3l-1.4,-.6l-2.1,-1.1l-.6,-.4l-1.6,-1.4l-.6,-.8l-1.3,-2.1l-.2,-.4l-.8,-1.8l-.6,-2.1l-.7,-1.8L305,298l-2,-2.1l-2.1,-.1l-2.2,2.2l-.7,2.1l-.7,2.1c-1.1,3.5,-3.7,7,-7.1,8.3l-.8,.3l-1.4,.5c-5.8,1.2,-5.4,5.5,-6.3,10.2l-.1,.6l-.4,1.6l-.7,2.1l-1,2.1l-1.5,2.2l-.7,.7l-1.8,1.4l-.3,.4l-2.2,3l-.8,.9l-2.6,2.1l-.8,.7l-2.2,.6l-2.1,.4l-2.2,.2l-6.4,.8l-2.1,.2l-2.2,.2l-2.1,-.4l-.9,-.5Zm.9,4.5l2.1,.2l2.2,-.2c6.4,-.5,13.3,.2,19.2,-2.8l2.2,-1.7l2.1,-2.2l2.2,-4.2l.6,-2.2l1.3,-2.1l.2,-.4l.7,-1.8l.4,-2.1l.4,-2.1l.3,-2.2l.2,-2.1l.1,-1.1l.2,-1.1l.6,-2.1l1.4,-1.2l2.1,-.4l2.2,-.4c7.2,-1.2,9,-6.5,9.7,-13l.6,-2.1l.4,-.4l2.1,.1l.2,.3l.7,2.1l.3,2.1l.4,2.2l.6,1.6l.2,.5l1.1,2.2l.8,1l1.3,1.1l.8,.5l2.2,1l2.1,.5l.7,.1l1.5,.3l2.1,.3l2.1,1.4l.3,.2l.6,2.1l.5,2.2l.4,2.1l.4,1.1l.5,1.1l1,2.1l.6,.7l1.7,1.4l.5,.3l2.1,.8l2.1,.7l1.5,.4l.7,.1l2.1,.3l2.2,.4l2.1,.3l2.2,.3l2.1,.3l2.1,.2l1.5,.2l.7,.6l3.2,1.6l1.1,.7l2.1,-.7l2.1,-1.6l1.1,-.6c5.9,-.5,8.7,-1.7,13.9,-3.4l2.2,-.6l.7,-.3c5,-2,6.2,-3.5,8.1,-8.5l.7,-2.2l.8,-2.1l.4,-.4l1.4,-1.8l.7,-.9l2.2,-.9l.7,-.3l1.4,-.6l2.1,-.8l1.1,-.7l1.1,-.9l1.3,-1.3l.8,-1.4l.5,-.7l1.1,-2.2l.6,-2.1l.8,-2.1l1.3,-2.2l.8,-2.1l.5,-2.2l.4,-2.1l.3,-2.1l.1,-.8l1.1,-1.4l1.1,-2.1l1.4,-2.2l-1.4,-2.1l-1.1,-2.1l-1.1,-1.5c-.6,-5,-1.4,-15.8,-3.7,-20l-.5,-.8L398.3,253l-1.1,-.9l-2.1,-1l-.6,-.2l-1.6,-.6l-2.1,-.5l-2.1,-.3l-2.2,-.5l-.2,-.3l-1.2,-2.1l-.3,-2.2l-.4,-2.1l-.6,-2.2l-.9,-2.1l-.7,-1.1l-.9,-1l-1.2,-1.1L378,233.7l-2.2,-.6l-2.1,-.4l-2.2,-.4l-2.1,-.6l-.1,-.1l-.2,-2.2l.3,-.2l2.1,-.7l2.2,-.3c5.6,-.7,9.9,-3.5,10.8,-9.5l.4,-2.1l.4,-2.1l1.2,-1.5l2.2,-.5l1,-.2l1.1,-.1l2.1,-.2l2.2,-.3l2.1,-.4l2.2,-.5l2.1,-.6l2.1,-1.4l2.2,-.8l2.1,-.8l2.2,-1.3l2.1,-2.1l1.7,-2.2c3.1,-5.1,1.8,-5.5,2.6,-10.7l.2,-2.1l.3,-2.2v-2.1C419,168.6,407.6,166,395.1,164l-2.2,-.2l-2.1,-.2l-2.1,-.2l-2.2,-.2l-.4,-.1l-1.7,-1.9l-.3,-.3l-.5,-2.1l-1,-2.2l-.4,-.7l-.8,-1.4l-1.3,-1.3l-1.1,-.8c-2.8,-2,-6.2,-3.3,-9.6,-3.5l-2.2,-.4l-2.1,-.2l-2.1,-.2l-2.2,-.2c-4.3,-.2,-8.5,-.4,-12.8,-.9l-2.2,-.3l-2.1,-.1l-2.1,-.2l-2.2,-.1l-2.1,-.1l-1.3,-.3l-.9,-.5l-1.3,-1.6l-.5,-2.1l-.3,-.8l-.6,-1.4l-1.2,-2.1l-.4,-.6l-1.6,-1.6l-.5,-.4c-8.4,-5.2,-22.3,-3.7,-32.1,-4.8l-2.2,-.1l-2.1,-.1l-2.1,-.1l-2.2,-.1l-2.1,-.1l-2.2,-.5l-.5,-.2L282,126.7l-.4,-2.2l-.9,-2.1l-1.2,-2.2l-1.8,-2.1l-.4,-.4l-2.1,-1.1l-1.5,-.6l-.7,-.3l-2.1,-.6l-2.1,-.6l-2.2,-.2l-2.1,-.1l-2.2,-.2l-2.1,-.2l-2.2,-.1c-4.2,0,-8.5,-.4,-12.8,-.5l-2.1,-.1l-2.2,-.1c-5.2,0,-7.7,0,-12.8,-1.2l-.5,-.1l-2.1,-2.2l-1.2,-2.1c-2,-3,-5.5,-4.4,-8.4,-6.4l-.7,-.4l-2.1,-1.2c-3.2,-1.5,-7.2,-2,-10.7,-2.4l-2.2,-.3l-2.1,.1L196,97h-2.2l-2.1,.2l-2.2,.2l-2.1,.3l-2.2,.2l-2.1,.2c-11.5,2.2,-13.6,9.4,-14.2,20l-.1,2.1l-.2,2.2l-.2,2.1c-.4,4.4,.3,8.6,1.2,12.9l.7,2.1l.9,2.2l1.2,2.1l2.1,2.1l1.1,2.2l1.1,1.4l2.1,2.1l2.2,1.5l1,1.4l1.1,1.1l.2,1l.4,2.2c1.1,4.6,.6,8.2,.8,12.8l.1,2.2l.1,2.1c0,4.2,.3,8.6,.5,12.9l.2,2.1l.2,2.1v2.2l.4,2.1c.3,3.3,1.6,6.4,3.5,9l2.2,1.7l2.1,1.3l2.2,.7l.7,.2l1.4,.4l2.1,1l.3,.7l.5,2.2l.1,2.1l.1,2.1l.1,2.2l.1,2.1l.1,2.2l.1,2.1l.2,2.1c.8,8.6,.1,20.8,5.4,27.9l2.7,2.1l1,.7l2.2,.9l1.4,.6l.7,.2l2.2,1.7v.2l.3,2.1l.1,2.2l.1,2.1c.3,4.4,.6,8.6,1,12.9l.1,2.1l.2,2.2l.2,2.1l.1,1.1l.2,1l.2,2.2c1,4.3,1.4,6.7,3.2,10.7l.7,1.1l.8,1c3,3.2,3.9,2.9,7.8,4.6l1.8,1.8l.3,.3l.6,1.9l.2,2.1c.2,3.9,.5,7.6,1.3,11.5l.4,1.4l.6,2.1c.8,2.2,2,7.3,3.9,8.6l1.6,1.6l.7,.5l1.4,.7l2.1,.9l1.5,.6l.7,.2Z" class="g5_422"/>
<path d="M248.9,336.5l-1.6,-1.3l-.8,-.8l-1.3,-1.8l-.2,-.4l-1.9,-1.9c-5.4,-6.8,-4.6,-16.1,-8.2,-23.8l-.4,-1.3l-.6,-.8l-1.5,-2.2c-3.2,-2.9,-5.9,-6.5,-7.4,-10.7l-.8,-2.1l-.4,-1.6c-.8,-3.4,-1.6,-7.1,-2.2,-10.5l-.1,-.7l-.3,-2.2l-.3,-2.1l-.3,-2.2l-.2,-2.1l-.2,-2.2c-.4,-3.1,-1.8,-6.6,-2.8,-9.6l-1,-1.1l-1.2,-1.4c-2.2,-1.6,-4.5,-4.6,-5.6,-7.1l-.8,-2.2l-.7,-2.1l-.7,-2.2l-.5,-2.1c-.7,-3.6,-1.2,-7.1,-1.8,-10.7l-.4,-2.1l-.2,-1.5c-.7,-3.5,-.5,-8.3,-1.5,-11.4l-.6,-1.5L201.3,208l-1.1,-2.1l-2.1,-1.8l-.6,-.3L196,202.6l-1.1,-1c-4.1,-4.7,-3.5,-4.7,-4.8,-10.7l-.4,-2.1l-.2,-1.1c-.6,-3.9,-1.1,-7.8,-1.4,-11.8l-.2,-2.1l-.2,-2.2l-.1,-2.1l-.2,-2.1c0,-4.6,-1.1,-8.5,-1.8,-12.9l-.4,-1.7v-.4l-.4,-2.2l-.3,-2.1l-.4,-2.2l-.7,-2.1l-.3,-.8l-1.9,-1.3l-2.4,-2.2l-1.9,-2.1l-.2,-.3l-1.2,-1.9l-1,-1.8c-2.6,-6.2,-1.7,-4.5,-.7,-11l.4,-2.2l.3,-1.4l.2,-.7l.6,-2.1l.5,-2.2l.7,-2.1l.2,-.4l1.3,-1.8l.8,-.9l1.2,-1.2l1,-.8l1.7,-1.3c3.6,-1.4,7.4,-2.4,11.1,-3.2l2.2,-.4l2.1,-.3l2.1,-.3l2.2,.7l2.1,.8l1.1,.5l1.1,.6l2.1,1.1l.6,.5l1.5,1.1l1,1l1.2,1.5l.5,.6l1.6,1.9l.2,.3l2,.7l2.1,.4l2.1,.4c2.9,.5,5.8,1.1,8.6,1.6l2.2,.4l2.1,.4c3.5,.1,7.2,.5,10.7,.9l2.1,.3l2.2,.2l2.1,.3l2.2,.3c4.1,.4,8.8,1.2,12.8,2.2l1.6,.4l.6,.2c2.4,1.3,5.4,3.9,6.8,6.3l1.7,2.1l2.2,1l2.1,.8l.8,.4l1.3,.5c10.6,1.6,21.7,2.2,32.2,4.9l2.1,.6l.9,.4l1.2,.6c2.8,1.6,4.9,3,6.7,5.8l1.9,1.9l.2,.2c3.6,1.4,6.6,2.8,10.5,2.9l2.1,.3l2.2,.3l2.1,.4l2.2,.4l2.1,.5l2.2,.5l2.1,.4l2.1,.4c4.5,.8,8.6,1.5,12.9,3.3l2.1,1.1l.4,.2c3.3,2.2,3.4,3.8,7,6.5l1.2,.4l2.1,.9l2.2,.7l.2,.1c3.2,1.3,7,1.3,10.5,2.6l2.1,.8l2.2,.9c2.5,1.3,6.4,4.5,8.5,6.4l1.7,2.2l.5,1l.4,1.1l-.4,2.1l-.5,2.2l-.5,2.1l-.4,2.2l-.5,2.1l-.3,1.1l-.2,1l-.7,2.2l-1.2,2.1l-1.8,2.2l-.4,.2c-1.7,3.7,-3,5.1,-6.4,7.2l-2.1,1l-.3,.1l-1.9,.6l-2.1,.6c-4.5,.7,-6.7,1.7,-9.4,5.3l-.9,2.1l-.4,.8c-1.6,2.9,-3.5,4.7,-6.4,6.2l-2.2,.9l-1.3,.7l-.8,.3l-1.9,1.8l-.3,.2l-1.8,1.9l.3,2.2l1.5,1.7l.5,.4l1.7,1.5l1.4,.7l.7,.3l2.2,1l1.4,.8l.7,.5l2,1.6l.1,.3l1.4,1.9l.8,1.3l.4,.8l.8,2.2l.9,1.4l.5,.7l1.7,1.8l.3,.4l1.8,1.8l.8,.3l1.4,.7l2.1,1l.8,.4l1.3,.9l1.4,1.3l.8,.8l1,1.3l1.1,2.2l1,2.1l.6,2.1l.6,2.2l.5,2.1c1.3,7.3,2.9,12.2,-.3,19.3l-.2,.6l-.7,1.5l-1.3,2.2l-.2,.2l-1.6,1.9l-.5,.6l-2.2,1.6l-2.1,2.4l-1.8,1.8l-2.5,2.2l-1.2,2.1l-.9,1.5l-.5,.7l-1.7,2.1l-1.9,2.1l-.2,.2l-2.2,1.8l-.1,.2c-3.2,4.8,-8,8.2,-12.7,11.4l-2.1,1.1l-1,.3c-9.3,3,-9.1,2.5,-18.3,.8l-2.2,-.5l-1.2,-.3l-.9,-.2l-2.1,-.7l-2.2,-.7l-1.2,-.5l-.9,-.5L330.8,324l-.4,-.3l-1.7,-1.5l-.6,-.7l-1.5,-2.1l-1.1,-2.2l-1.1,-2.1l-2.1,-2l-.1,-.2L320.1,311l-.3,-.2L318,309.7l-2.1,-.9l-.3,-.1l-1.9,-1l-1.5,-1.2l-.6,-.6l-1.3,-1.5l-.9,-1.2l-.5,-1l-1,-2.1l-.6,-1.2l-.5,-.9l-1.6,-1.8l-.4,-.4L303,294l-2.1,-.1l-1.9,1.9l-.3,.3l-1.8,1.9c-1.5,3.4,-2.2,5.9,-5,8.5l-1.7,1.3l-1.4,.9l-.8,.4l-2.1,.9l-1,.8l-1.2,1l-.7,1.1l-1.4,2.2l-.5,2.1l-.4,2.2l-.6,2.1l-.6,1.9l-.2,.3c-1.7,4,-4.3,6.8,-8.4,8.5l-2.1,1.9l-.6,.3l-1.6,.9l-2.1,.4l-2.2,.5l-2.1,.3L258,337l-2.1,.3l-2.1,.4l-2.2,.2l-2.1,-.9l-.6,-.5Zm.6,4.8l2.1,.4l2.2,-.2l2.1,-.2l8.6,-1l2.1,-.4l2.2,-.6l.8,-.7l2.6,-2.1l.8,-.9l2.2,-3l.3,-.4l1.8,-1.4l.7,-.7l1.5,-2.2l1,-2.1l.7,-2.1l.4,-1.6l.1,-.6c.9,-4.7,.5,-9,6.3,-10.2l1.4,-.5l.8,-.3c3.4,-1.3,6,-4.8,7.1,-8.3l.7,-2.1l.7,-2.1l2.2,-2.2l2.1,.1l2,2.1l.2,.3l.7,1.8l.6,2.1l.8,1.8l.2,.4l1.3,2.1l.6,.8l1.6,1.4l.6,.4l2.1,1.1l1.4,.6l.8,.3l2.1,.5l2.1,1.3l2.2,2.1l.1,.1c2.1,7.1,5.1,11.6,12.7,13.2l2.2,.6l2.1,.5l2.1,.5l1.1,.2l1.1,.2l2.1,.3l2.2,.3l2.1,.3l2.2,.2l2.1,-.2l2.1,-.3l2.2,-.3l2.1,-.5l2.2,-.6l2.1,-.8l1.8,-.8l.3,-.1c5.5,-3.2,10.2,-5,12.9,-11.3l.8,-1.4l1.3,-1.4l.7,-.8l1.5,-1.5l.4,-.6l1.4,-2.1l.3,-.5l2.2,-1.4l.4,-.3l1.7,-1.2l1.1,-.9l1,-1.1l1,-1.1l1.2,-1.7l.2,-.4l1.3,-2.1l.6,-.7l1.3,-1.5l.9,-1.3c3.1,-6.5,4.2,-12.9,2.7,-20.1l-.3,-2.1l-.3,-2.2l-.4,-2.1l-.4,-2.2c-1.7,-6.6,-2.9,-11,-9.9,-13.6l-2.1,-.6l-2.2,-.7c-6.3,-5.5,-2,-11.9,-12.8,-16l-2.2,-.6l-1.5,-.6l-.6,-.2l-1.9,-1.9l-.3,-2.2l2.2,-2.1l2.1,-.8l2.2,-.6l1.8,-.7l.3,-.2l2.1,-1.3c2.6,-1.8,3.9,-4.2,4.9,-7.1l.6,-2.1l1,-1.2l.8,-1l1.3,-.9l2.2,-.4l2.1,-.3l2.1,-.4l.6,-.1l1.6,-.4l2.1,-.7l2.2,-.9l.3,-.2l1.8,-1.3l.9,-.8l1.2,-1.6l.9,-.5l1.3,-1.1l1.3,-1.1l.8,-.7l1.5,-1.4c2.4,-3.1,2.8,-7,3.3,-10.7l.3,-2.2l.4,-2.1l.2,-2.2l.3,-2.1l-.5,-2.1l-1.2,-2.2c-1.9,-2.7,-5.5,-5.6,-8.6,-6.6L401.5,168l-1.4,-.6c-3.2,-1.3,-7.9,-2.1,-11.4,-2.5l-2.2,-.3l-2.1,-.8l-1.9,-.7l-.3,-.3c-2.9,-2.3,-2.8,-4.9,-6.4,-7.4l-1.3,-.9l-.8,-.5c-3.8,-2.6,-8.5,-2.9,-12.9,-3.6l-1,-.2l-1.1,-.1l-2.2,-.3l-2.1,-.2l-2.1,-.3l-2.2,-.4l-2.1,-.3l-2.2,-.3c-3.5,-.6,-7.4,-.6,-10.7,-1.3l-2.1,-.8l-.8,-.3c-3.3,-3.4,-2.6,-5.1,-7.1,-8.5l-.7,-.6l-2.1,-1.1l-1.1,-.5l-1.1,-.4c-3.6,-1.3,-8.9,-1.7,-12.8,-2.2l-2.1,-.2l-2.2,-.2c-4.6,-.5,-9.3,-1,-13.9,-1.2l-1.1,-.1l-2.1,-.2l-2.2,-.4l-2.1,-.9l-1.4,-.6l-.7,-1.2c-2.4,-4,-1.8,-4.1,-5.8,-7.4l-.7,-.5l-2.1,-1.2c-3,-1.8,-9.3,-2.1,-12.9,-2.5l-2.1,-.3l-2.1,-.1l-2.2,-.2l-2.1,-.2c-4.3,-.4,-8.6,-.6,-12.9,-.9h-2.1l-2.1,-.4c-4.1,-.8,-8,-1.6,-12,-2.2l-.9,-.7l-2.1,-1.5l-1.3,-2.1l-.9,-1.1l-.9,-1L213.1,104l-1.3,-.9l-.9,-.5l-2.1,-1.2l-1.1,-.4C202.9,99.5,201,98.5,196,99.3l-4.3,.6c-2.7,.5,-8.5,1.3,-10.7,2.7l-2.2,1.3l-1.5,1.4l-.6,.6c-2.5,2.6,-3.9,5.3,-4.3,9l-.2,1.1l-.3,2.1c-.6,5.4,-2.5,9.9,-.2,15l.7,2.1l.9,2.2l1.2,2.1l1.8,2.2l.4,.3l2.1,1.8l2.2,1.3l1,.8l1.1,1.6l.1,.6l.3,2.1l.4,2.2l.4,2.1l.3,2.1c1,5.1,1.3,7.6,1.4,12.9l.1,2.1l.2,2.2l.1,2.1l.1,2.2c.3,3.6,.5,7,1,10.7l.2,2.1l.3,2.1c.5,4.4,1.7,7.4,4.6,10.8l1.2,1l1.4,1.1l.8,.5l2.1,1l.9,.6l1.2,.7l.7,1.5l.9,2.1c1,3.1,.6,7.3,1.1,10.7l.2,2.2l.2,2.1c.5,4.4,1,8.5,1.7,12.8l.3,2.2l.5,2.1l.6,2.2l.3,.7c.5,2.2,3,6.4,5,7.8l1.4,1.3l1.3,.9c4,1.8,4.5,6.8,4.7,10.7l.2,2.1l.2,2.2l.2,2.1l.2,2.2l.3,2.1l.3,2.1c.5,3.5,1,7.4,1.8,10.7l.6,2.2l.9,2.1c1.9,4.6,2.5,6.2,6.4,9.5l2.2,1.2l1.7,2.2l.4,.4l.6,1.7c1.5,4.3,1.6,6.4,2.2,10.7l.4,2.2l.5,2.1c1.2,4.6,2.7,5.4,4.9,9.4l.9,1.3l1.2,1.4l.7,.7l1.4,1.3l1.3,.9l.9,.5Z" class="g6_422"/>
<path d="M248.5,332.2l-1.2,-.8l-1.5,-1.3l-.6,-.6l-1.3,-1.6l-.8,-1.2c-3.6,-6,-4,-13.4,-6.7,-20.2l-.7,-2.1l-.8,-2.2l-.4,-1l-.7,-1.1L232.4,298l-2,-2.2l-.2,-.2l-1.4,-1.9l-.7,-1.4c-1.8,-3.4,-2.4,-5.8,-3.5,-9.3l-.5,-2.2l-.3,-1.3l-.2,-.8l-.5,-2.2l-.4,-2.1l-.4,-2.1l-.3,-2.2l-.4,-2.1l-.2,-2.2l-.4,-2.1l-.6,-2.1l-.6,-2.2c-.7,-2.4,-1.5,-4.6,-2.4,-6.9L216,250.9l-.8,-1.1l-.9,-1.1c-4.4,-5.2,-6.2,-15.4,-7.6,-21.9l-.3,-1.6L206,223l-.4,-2.1l-.3,-2.2l-.3,-2.1l-.2,-2.1l-.3,-1.3l-.2,-.9l-.9,-2.1l-.8,-2.2l-.2,-.6l-.7,-1.5l-1.1,-2.1l-.4,-.8l-1.5,-1.4l-.6,-.6l-1.7,-1.5L196,199l-1.3,-1.7l-.9,-1.8l-.2,-.3c-2.8,-9.2,-3.8,-18.3,-4.7,-27.9l-.2,-2.1l-.2,-2.1l-.3,-2.2l-.5,-2.1l-.3,-1.7l-.1,-.5l-.4,-2.1l-.4,-2.1l-.4,-2.2l-.4,-2.1l-.4,-2.2l-.1,-.2l-.5,-1.9l-.8,-2.1l-.8,-1.8l-.4,-.4L181,137.8l-.5,-.4l-1.7,-1.9l-.2,-.3l-1.4,-2.1l-.5,-.9l-.6,-1.2l-.9,-2.2l.2,-2.1l.5,-2.2l.5,-2.1c.8,-2.8,1.4,-5.3,2.4,-8l.2,-.6l1.1,-2.1l.9,-1.1l1,-1.1l1.1,-.8l2.1,-1.1l.5,-.2l1.7,-.7l4.3,-1.4l2.1,-.7l2.2,-.5l2.1,-.4l2.1,-.3l2.2,.8l2.1,1.1c2.8,1.6,4.3,2.8,6.4,5.1l1.2,1.3l1,.4l2.1,.8l2.2,.8l.8,.1l5.6,1.1l2.1,.4l2.2,.4c2.7,.5,5.8,1.4,8.5,1.4l2.2,.3l2.1,.2l2.2,.3l1.4,.2l.7,.1c7,1.1,17.1,2.4,23.6,5.3l1.4,1l.7,.7l1.4,1.5c3,3.4,2.4,2.2,6.8,4.3l.4,.1l2.1,.8c2.8,1.4,5.6,1.3,8.6,1.8l2.1,.2l2.1,.4l2.2,.3l2.1,.3l1.6,.3l.6,.1l2.1,.5c7.1,1.6,15.2,2.3,20.4,8l1,1l1.3,1.1c9.1,4.5,15,3.8,24.1,6.5l.3,.1l2.2,.6l2.1,.5l2.1,.5l1.6,.4l.6,.1l2.1,.6l2.2,.6l2.1,.8l2.1,.8l2.2,1c2.1,1.3,3.8,3.3,5.9,4.7l.5,.2l2.2,.8l2.1,.8c7.8,3.5,14.9,2.8,21.4,8.7l.2,.2l1.9,2.1l2.2,1.9l.2,.3l1.1,2.1l-.7,2.1l-.4,2.2l-.2,.7c-1.2,4,-2.1,8.1,-3,12.1l-1,2.2l-.3,.4c-1.6,3,-5.3,6,-8.6,7.1l-2.1,.8l-.9,.2l-1.2,.4l-2.2,.5c-4.7,2.7,-6,3.5,-8.5,8.1l-1.4,1.7l-.8,.9c-2.9,2.9,-5.9,3,-8.6,6l-1.6,1.7l-.5,.5l-1.5,1.6l.2,2.2l2,2.1l1.4,1.4l2.2,1.9l1.9,1l.2,.1l2.2,1.3l.9,.7l1.2,1l1.1,1.2l1.1,1.5l.4,.6l1.1,2.2l.6,.8l.8,1.3l1.3,1.5l.6,.7l1.6,1.6l.5,.5l1.6,1.5l1.1,.6l1.1,.7l2.1,1.3l.2,.2l1.9,1.7l.4,.4l1.6,2.2l.2,.2l1.1,1.9l.8,2.1l.2,.8l.5,1.4l.5,2.1l.6,2.2l.5,2.1l.1,.5l.2,1.6l.4,2.2l.4,2.1l-.3,2.2l-.6,2.1l-.1,.3l-.6,1.9l-1,2.1l-.6,1.1l-.6,1c-5,7.6,-8.3,4.2,-12.2,13.3l-1.2,1.7l-1,1.5l-.5,.7l-1.6,1.8l-.3,.3l-1.8,1.7c-4.8,3.3,-8.5,8.6,-12.9,11.8l-2.1,1.3l-.5,.2c-9.7,4.5,-11.1,3.1,-20.9,.7l-2.2,-.6l-.3,-.1l-1.8,-.7l-2.2,-.9l-.9,-.5l-1.2,-.8l-1.8,-1.4l-.4,-.3l-1.6,-1.8l-.5,-.7l-1,-1.5l-1.1,-1.9l-.2,-.2l-2,-2l-.1,-.2l-2,-1.8l-.3,-.3l-1.9,-1.6l-.9,-.5l-1.2,-.9l-2.1,-1.1l-.3,-.2L313.7,305l-.7,-.6l-1.4,-1.7l-.3,-.5l-1.4,-2.1l-.5,-.9l-.7,-1.2l-1.4,-1.6l-.5,-.6l-1.6,-1.6l-.6,-.5L303,292.1l-2.1,-.1l-1.8,1.7l-.4,.4l-1.7,1.7c-2.4,2.1,-2.9,4.6,-4.7,7l-1.3,1.6l-.8,.8c-2.3,2.1,-5.4,2.8,-7.2,5.6l-1.4,2.1l-1.2,2.2l-.6,2.1l-.3,1.3c-.9,3,-2.9,7.4,-5.4,9.4l-1.1,.9l-1.9,1.3c-3.7,2.5,-8.4,1.5,-13.1,3l-2.1,.4l-2.1,.4l-2.2,.5l-2.1,-1.2l-1,-1Zm1,4.8l2.1,.9l2.2,-.2l2.1,-.4L258,337l2.2,-.5l2.1,-.3l2.2,-.5l2.1,-.4l1.6,-.9l.6,-.3l2.1,-1.9c4.1,-1.7,6.7,-4.5,8.4,-8.5l.2,-.3l.6,-1.9l.6,-2.1l.4,-2.2l.5,-2.1l1.4,-2.2l.7,-1.1l1.2,-1l1,-.8l2.1,-.9l.8,-.4l1.4,-.9l1.7,-1.3c2.8,-2.6,3.5,-5.1,5,-8.5l1.8,-1.9l.3,-.3l1.9,-1.9l2.1,.1l1.8,1.8l.4,.4l1.6,1.8l.5,.9l.6,1.2l1,2.1l.5,1l.9,1.2l1.3,1.5l.6,.6l1.5,1.2l1.9,1l.3,.1l2.1,.9l1.8,1.1l.3,.2l2.1,1.9l.1,.2l2.1,2l1.1,2.1l1.1,2.2l1.5,2.1l.6,.7l1.7,1.5l.4,.3l2.2,1.3l.9,.5l1.2,.5l2.2,.7l2.1,.7l.9,.2l1.3,.3l2.1,.5l2.1,.4l2.2,.4l2.1,.3l1.6,.3l.6,.1l.7,-.1l1.4,-.2l2.1,-.4l2.2,-.5l2.1,-.6l1.2,-.5l1,-.3l2.1,-1.1l1.2,-.7l.9,-.6l1.8,-1.5l.4,-.4l2.1,-1.6l.3,-.2l1.9,-1.4l.7,-.7l1.4,-1.9l.2,-.3l1.8,-2.1l.2,-.2l2.1,-1.8l.2,-.2l1.9,-2.1l1.7,-2.1l.5,-.7l.9,-1.5l1.2,-2.1l2.5,-2.2l1.8,-1.8l2.1,-2.4l2.2,-1.6l.5,-.6l1.6,-1.9l.2,-.2l1.3,-2.2l.7,-1.5c3.2,-8.8,2.3,-8.8,.9,-17.7l-.4,-2.2l-.5,-2.1l-.6,-2.2l-.6,-2.1l-1,-2.1l-1.1,-2.2l-1,-1.3l-.8,-.8L392.9,256l-1.3,-.9l-.8,-.4l-2.1,-1l-1.4,-.7l-.8,-.3l-1.8,-1.8l-.3,-.4l-1.7,-1.8l-.5,-.7l-.9,-1.4l-.8,-2.2l-.4,-.8l-.8,-1.3L378,240.4l-.2,-.3l-2,-1.6l-.7,-.5l-1.4,-.8l-2.2,-1l-.7,-.3l-1.4,-.7l-1.7,-1.5l-.5,-.4l-1.5,-1.7l-.3,-2.2l1.8,-1.9l.3,-.2l1.9,-1.8l.8,-.3l1.3,-.7l2.2,-.9c2.1,-1,4.3,-2.8,5.6,-4.9l.8,-1.3l.4,-.8l.9,-2.1l.8,-1l1,-1.2l1.2,-.8l2.1,-1.3l2.2,-.5l2.1,-.5l2.1,-.6l1.9,-.6l.3,-.1c2.7,-1,6.2,-3.6,7.5,-6.3l1,-1.9l.4,-.2c3.7,-3.7,3.4,-6.2,4.7,-10.7l.4,-2.2l.5,-2.1l.5,-2.2l.4,-2.1l-.4,-1.1l-.5,-1c-1.9,-3.3,-5.3,-5,-8.1,-7.4l-2.1,-1.2l-2.2,-.9c-3.7,-1.5,-6.8,-2,-10.7,-2.7l-1.9,-.7l-.2,-.1l-2.2,-.7l-2.1,-.9c-2.7,-.9,-4.5,-3.6,-6.4,-5.5l-1.8,-1.4l-.4,-.2c-3.9,-2.3,-8.4,-3.1,-12.8,-4l-2.2,-.4l-2.1,-.4l-2.1,-.4l-2.2,-.5l-2.1,-.5l-2.2,-.4l-2.1,-.4l-2.1,-.3c-4.6,-.5,-6.5,-.7,-10.8,-2.4l-1.9,-.8l-.2,-.2l-1.9,-1.9l-.2,-.3l-1.5,-1.8l-.7,-.8l-1.8,-1.4l-.3,-.2L320.1,138l-1.2,-.6L318,137c-9.9,-2.9,-21.9,-4,-32.1,-5.1l-2.2,-.4l-1.3,-.5l-.8,-.4l-2.1,-.8l-2.2,-1c-2.5,-3,-3.1,-4.6,-6.4,-7.1l-2.1,-1.3l-.6,-.2c-3.6,-1.1,-8.5,-1.8,-12.3,-2.4l-2.1,-.2l-2.2,-.3l-2.1,-.3l-2.2,-.2c-3.5,-.5,-7.1,-.8,-10.7,-1.1l-2.1,-.1l-2.1,-.4c-3.6,-.7,-7.2,-1.4,-10.8,-2l-2.1,-.4l-2.1,-.4l-2,-.7l-.2,-.3l-1.6,-1.9l-.5,-.6l-1.2,-1.5l-1,-1l-1.5,-1.1l-.6,-.5l-2.1,-1.2l-1.1,-.5l-1.1,-.5l-2.1,-.8l-2.2,-.7l-2.1,.3l-2.1,.3l-2.2,.4c-3.7,.8,-7.5,1.8,-11.1,3.2l-1.7,1.3l-1,.8l-1.2,1.2l-.8,.9l-1.3,1.8l-.2,.4l-.7,2.1l-.5,2.2l-.6,2.1l-.2,.7l-.3,1.4l-.4,2.2c-1,6.4,-1.9,4.8,.7,11l1,1.8l1.2,1.9l.2,.3l1.9,2.1l2.4,2.2l1.9,1.3l.3,.8l.7,2.1l.4,2.2l.3,2.1l.4,2.2v.4l.4,1.7c.7,4.4,1.8,8.3,1.8,12.8l.2,2.2l.1,2.1l.2,2.2l.2,2.1c.3,4,.8,7.9,1.4,11.8l.2,1.1l.4,2.1c1.3,6,.7,6,4.8,10.7l1.1,1l1.5,1.2l.6,.3l2.1,1.8l1.1,2.1l1.1,2.8l.6,1.5c1,3.1,.8,7.9,1.5,11.4l.2,1.5l.4,2.1c.6,3.6,1.1,7.1,1.8,10.7l.5,2.1l.7,2.2l.7,2.1l.8,2.2c1.1,2.5,3.4,5.5,5.6,7.1l1.2,1.4l1,1.1c1,3,2.4,6.5,2.8,9.6l.2,2.2l.2,2.1l.3,2.2l.3,2.1l.3,2.1l.1,.8c.6,3.4,1.4,7.1,2.2,10.5l.4,1.6l.8,2.1c1.5,4.2,4.2,7.8,7.4,10.7l1.5,2.2l.6,.8l.4,1.3c4,8.3,2.6,19.3,10.1,25.7l.2,.4l1.3,1.8l.8,.8l1.6,1.3l.6,.5Z" class="g7_422"/>
<path d="M248.8,330.1l-1.5,-1.2l-.9,-1l-1.2,-1.4l-.5,-.7c-3.7,-5.5,-4.3,-11.1,-6.3,-17.1l-.7,-2.2l-.6,-2.1l-.5,-1.4l-.2,-.8l-.8,-2.1l-.8,-2.1l-.3,-.7l-2.1,-3l-.6,-.6l-1.4,-2.2l-.2,-.2l-1.1,-1.9l-.9,-2.1l-.1,-.3l-.8,-1.9l-.8,-2.1c-2.6,-7.6,-3.2,-13.8,-4.9,-21.4l-.5,-2.2l-.7,-2.1c-1.3,-6.4,-5.2,-11.4,-7.9,-17.2l-.8,-2.1l-.8,-1.8l-.1,-.3l-.6,-2.2l-.6,-2.1l-.6,-2.2c-2.2,-6.6,-2.1,-14.1,-4.5,-19.9l-.6,-1.5l-.8,-2.1l-.7,-1.6l-.3,-.5L201,201.6l-.8,-1.4l-.7,-.7l-1.4,-1.6l-.5,-.6l-1.3,-2.1l-.3,-.9l-.5,-1.3l-.7,-2.1l-.6,-2.1l-.4,-1.6l-.1,-.6l-.6,-2.1l-.5,-2.2c-1.4,-7.1,-2,-14.3,-3.1,-21.4l-.4,-2.1l-.5,-2.2c-1.7,-7.5,-2,-16.4,-7.6,-22.3l-.9,-1.2l-1.3,-1.9l-.1,-.2l-1.2,-2.2l.3,-2.1l.6,-2.2c1,-3.6,2.2,-7.4,4.1,-10.7l.6,-1.3l.7,-.8c3.8,-2.4,8,-3.8,12.2,-5.2l2.1,-.6l2.1,-.4l2.2,1.1l1.3,.8l.8,.5l2.2,1.6c4.6,5.8,20.6,6.9,27.8,8.8l2.1,.2l2.2,.3l2.1,.3c4.3,.7,8.6,1.6,12.9,2.4l2.1,.5l1.6,.4c3.3,1,8.5,1.9,11.3,4.1l.2,.2l1.9,1.7l.4,.4l1.7,.9l2.2,1c8.7,4.5,18.6,4.2,27.8,6.9l2.2,.5l2.1,.5l2.1,.6c3.2,1.1,7.8,2.3,10.3,4.6l.4,.3l2.2,1.7l.2,.1l1.9,1l2.2,.8l.9,.4l1.2,.4l2.1,.8l2.2,.6l.9,.3l1.2,.4l2.2,.4l2.1,.4l2.2,.4l2.1,.5l.3,.1l1.8,.4c4.1,1.1,6.5,2.5,10.7,3.4l1.3,.4l.9,.3c3.7,1.1,7.3,2.8,10.7,4.6l2.1,1.4l.2,.2l2,.8c8.1,3.9,19.1,5.1,25.7,10.3l1.6,1.7l.5,.5l1.3,1.7l.8,2.1c-2.6,12.3,1.3,19.2,-11.9,25.7l-.9,.4l-2.1,.7l-2.2,.7c-3.4,1.8,-6.6,3.6,-9,6.8l-1.5,2.1l-.2,.2c-2.3,3.2,-5.8,4.1,-8.6,6.9l-1.5,1.5l-.6,.6l-1.4,1.5l-.7,.8l-1.2,1.3l.2,2.2l1,1.1l.9,1l1.2,1.2c5.2,5.7,9,5.2,12.9,12.1l1.2,1.7l.9,1.2l.8,1l1.3,1.3l.7,.8l1.5,1.5l.6,.6l1.5,1.3l1.4,.9l.8,.5l1.9,1.6l.2,.2l1.9,2l.2,.3l1.3,1.8l.9,1.9l.1,.2l.7,2.2l.7,2.1l.6,2.2l.6,2.1l.5,2.2l.4,2.1l.4,2.1l-.3,2.2l-.8,2.1l-.8,1.9l-.1,.3l-1.1,2.1l-.9,1.4l-.6,.7l-1.6,1.8l-.4,.4l-1.7,1.5l-1,.6l-1.1,.7l-2.2,1.3l-.2,.2l-1.2,2.1l-.7,1.4l-.5,.7l-1.3,2.2l-.4,.6l-1,1.5l-1.1,1.3l-.7,.9l-1.4,1.4l-.8,.7l-1.4,1.2l-1.1,.9l-1,.8l-2.2,1.4l-2.1,2.1l-1.6,2.2l-.6,.6l-1.4,1.5l-.7,.6l-2.1,1.6l-2.2,1.1l-1.9,1l-.2,.1l-2.2,.8l-2.1,.7l-2.1,.2l-2.2,-.4l-2.1,-.5l-2.2,-.5l-1.4,-.4l-.7,-.2l-2.1,-.7l-2.2,-.8l-1.1,-.4l-1,-.5l-2.2,-1.1l-.8,-.6L333,320.4l-1.2,-1l-1,-1.1l-.8,-1.1l-1.3,-1.7l-.2,-.4l-4.1,-4l-.2,-.3l-1.9,-1.7l-.6,-.4l-1.6,-1.3c-8.8,-5.4,-6.6,-6.9,-12.8,-13.1l-.6,-.6l-1.5,-1.4l-.8,-.8L303,290.2l-2.1,-.1l-1.6,1.4l-.6,.5l-1.6,1.7c-3.1,2.8,-4.3,5.3,-6.6,8.5l-.3,.4l-2,1.8c-4,2.7,-5.4,4.2,-7.9,8.5l-.8,1.6l-.4,.6l-.7,2.1l-.7,2.2c-1.5,3.4,-3.3,6.2,-6.3,8.5l-.5,.4l-2.1,1.2c-4.1,1.1,-10.6,1.2,-15,1.7l-2.2,.2l-2.1,-.8l-.7,-.5Zm.7,3.1l2.1,1.2l2.2,-.5l2.1,-.4l2.1,-.4c4.5,-1.4,9.4,-.5,12.9,-2.9l.2,-.1l1.9,-1.3c3.1,-2.1,5,-6.1,6.2,-9.4l.3,-.9l.3,-1.3l.6,-2.1l1.2,-2.2c1.8,-3.2,3.6,-4.6,6.9,-6.4l1.7,-1.3l.8,-.8c2.8,-2.7,3.2,-6,6,-8.6l1.7,-1.7l.4,-.4l1.8,-1.7l2.1,.1l1.6,1.6l.6,.5l1.6,1.6l.5,.6l1.4,1.6l.7,1.2l.5,.9l1.4,2.1l.3,.5l1.4,1.7l.7,.6l1.9,1.5l.3,.2l2.1,1.1l1.2,.9l.9,.5l1.9,1.6l.3,.3l2,1.8l.1,.2l2,2l.2,.2l1.1,1.9l1,1.5l.5,.7l1.6,1.8l.4,.3l1.8,1.4l1.2,.8l.9,.5l2.2,.9l1.8,.7l.3,.1l2.2,.6l2.1,.7l2.1,.5l1.3,.2l.9,.2l2.1,.4l2.2,.4l2.1,-.2l2.1,-.6l.7,-.2l1.5,-.4l2.1,-.9l1.7,-.8l.5,-.2c5.2,-2.4,9.4,-9.3,14.4,-12.7l.6,-.4l1.8,-1.7l.3,-.3l1.6,-1.8l.5,-.7l1,-1.5l1.2,-1.7l.2,-.4l1.1,-2.2l.8,-1.5l.7,-.6l1.5,-1.5l.7,-.6l1.4,-.8l2,-1.4l.1,-.1l2,-2l.2,-.2l1.5,-2l.6,-1c4.7,-8.9,3.1,-11.2,1,-20.4l-.5,-2.1l-.5,-1.4l-.2,-.8l-.8,-2.1l-1.1,-1.9l-.2,-.2l-1.6,-2.2l-.4,-.4L391,257.3l-.2,-.2l-2.1,-1.3l-1.1,-.7l-1.1,-.6L384.9,253l-.5,-.5l-1.6,-1.6l-.6,-.7l-1.3,-1.5l-.8,-1.3l-.6,-.8l-1.1,-2.2l-.4,-.6l-1.1,-1.5l-1.1,-1.2l-1.2,-1l-.9,-.7l-2.2,-1.3l-.2,-.1l-1.9,-1l-2.2,-1.9l-1.4,-1.4l-2,-2.1l-.2,-2.2l1.5,-1.6l.5,-.5l1.6,-1.7c2.5,-2.7,4.2,-2.6,7.1,-4.7l1.5,-1.3l.8,-.9c3.2,-3.8,2.7,-5.7,7.8,-8.5l2.1,-1.2l2.2,-.6l1.2,-.4l.9,-.2c4,-1.3,6.9,-2.9,9.6,-6.2l1.1,-1.7l.3,-.4l1,-2.2l.5,-2.1l.3,-2.2l.7,-2.1l.5,-2.1l.6,-2.2l.4,-1.4l.2,-.7l.4,-2.2l.7,-2.1L406,178.1l-.2,-.3l-2.2,-1.9l-1.9,-2.1l-.2,-.2c-6.3,-5.7,-13.2,-5.2,-20.7,-8.4l-.7,-.3l-2.1,-.8l-2.2,-.8l-.5,-.2l-1.6,-1.3l-1.2,-.9l-1,-.9L370,158.8l-.6,-.4c-3.4,-1.6,-7.1,-2.9,-10.7,-3.8l-.6,-.1l-1.6,-.4l-2.1,-.5l-2.1,-.5l-2.2,-.6c-7.7,-2.6,-13.8,-1.9,-21.4,-5.3l-2.1,-.9l-.9,-.4l-1.3,-1.1c-2.2,-2.1,-3.7,-3.6,-6.4,-5.1l-.5,-.2l-1.6,-.5c-2.8,-1,-5.7,-1.8,-8.6,-2.4l-2.1,-.4l-2.2,-.4l-2.1,-.5l-.6,-.1l-1.6,-.3l-2.1,-.3l-2.2,-.3l-2.1,-.4l-2.1,-.2l-2.2,-.3l-2.1,-.2l-.4,-.1l-1.8,-.4l-2.1,-.8c-2.4,-.8,-5,-2,-7.3,-3.1L273,127.4l-.7,-.7l-1.4,-1.5c-3.4,-4.1,-18.2,-5.7,-23.6,-6.7l-2.1,-.3l-.7,-.1l-1.4,-.2l-2.2,-.3c-8.2,-.6,-15.5,-2.6,-23.5,-3.9l-2.2,-.8l-2.1,-.8l-1,-.4c-1.7,-1.9,-3.3,-3.7,-5.4,-5.1l-2.2,-1.3l-2.1,-1.1l-2.2,-.8l-2.1,.3l-2.1,.4l-2.2,.5l-2.1,.7l-4.3,1.4l-1.7,.7l-.5,.2l-2.1,1.1l-1.1,.8l-1,1.1l-.9,1.1l-1.1,2.1l-.2,.6l-.5,1.6l-.7,2.1l-.6,2.1l-.3,1.1l-.3,1.1l-.5,2.1c-1.3,5,-.9,4.3,1.3,8.6l1.4,2.1l.2,.3l1.7,1.9c5.8,4.1,5.4,15,7.2,21.4l.5,2.1l.3,2.2l.2,2.1l.2,2.2c.9,8.6,1.7,17.2,4.1,25.6l.6,2.2l.2,.3l.9,1.8c1.4,2.3,3.7,3.9,5.5,5.7l.4,.8l1.1,2.1c.9,2.1,2.2,5.2,2.8,7.3l.3,1.3l.2,2.1l.3,2.1l.3,2.2l.4,2.1l.4,2.2l.3,1.6c1.5,7.2,2.7,13.8,6.4,20.4l1.2,1.5l.9,1.1l.8,1.1l1.4,1.6l.1,.5l.8,2.1l.8,2.2l.4,1.3l.3,.8l.6,2.2c1,3.3,1.3,7.2,1.9,10.7l.4,2.1l.4,2.2l.5,2.1l.2,.8l.3,1.3l.5,2.2l.7,2.1l.6,2.2l.8,2.1l1,2.1l.4,.8l.7,1.4c2.2,3.2,3.5,3.6,5.7,7.5l.4,1l.8,2.2l.7,2.1c2.8,7.1,3.2,15.5,7.5,21.4l1.3,1.6l.6,.6l1.5,1.3l1.2,.8l1,1Z" class="g8_422"/>
<path d="M248.9,327.9l-1.6,-1.5l-.5,-.6l-1.5,-2.1l-.1,-.2c-3.5,-5.3,-4.5,-13,-6.7,-19.1l-.7,-2.2l-.7,-2.1c-1.9,-6.7,-5.2,-9.1,-7.8,-15l-.9,-2.1l-.3,-.9l-.5,-1.3l-.7,-2.1c-2.5,-7.2,-3,-14.3,-5.2,-21.4l-.1,-.3l-.5,-1.9C219,248,217.2,244.5,213.9,238l-.8,-2.1l-.9,-2.2l-.7,-2.1l-.6,-1.8l-.1,-.4l-.6,-2.1C207.9,220.9,207.9,214,205.3,208l-.8,-1.9l-.1,-.2c-2.7,-7.3,-6.6,-11.2,-8.6,-19.3l-.6,-2.1l-.6,-2.2l-.6,-2.1l-.2,-1.1c-1.4,-6.8,-1.9,-13.7,-3.4,-20.3l-.4,-2.2l-.5,-2.1c-1.4,-7.9,-2.6,-13.8,-6.4,-21l-.3,-.4L181.1,131l-.1,-.3l-1.2,-1.9l.3,-2.1c3.8,-11.7,6.1,-14.6,18,-18.6l2.1,-.3l2.2,1.3l.6,.4l1.5,1.1l1.4,1.1l.8,.4c8.2,4.3,14.6,4.7,23.5,6.7l2.2,.4l2.1,.4c8.2,1.2,15.5,2.9,23.5,5.1l2.2,.7l2.1,.8l1.3,.5l.9,.3l2.1,.8c2,1.3,4.3,2.4,6.4,3.4l2.2,.9l2.1,.9c2.2,.7,4.6,1.7,6.8,2.2l1.8,.4l2.1,.3l2.2,.4c8.1,1.6,17.6,4,25,7.5l.7,.3l2.1,1.1l1.2,.7l.9,.5l2.2,1l1.5,.7c7.6,3.3,14.8,4,22.3,6.4l1.9,.6l2.1,.9l1.4,.6c2,1.1,4.9,1.6,7.2,2.6l2.1,.8l2.2,.9c3.6,2,6.4,2.7,10.2,4.3l.5,.2l2.1,.8l2.1,.9l.9,.2l1.3,.5c7.8,2.6,14.7,3.6,20.5,10.3l.9,1.8l.1,.3l-.1,1.1c-.3,3.3,-.9,6.3,-1.1,9.6l-.2,2.1l-.2,2.2l-.6,2.1l-1.6,2.2l-.6,.6l-1.5,1.5l-.6,.5l-2.2,1.5l-.1,.2l-2,1l-2.1,.8l-.7,.3l-1.5,.5l-2.1,1.1l-.9,.5l-1.3,.7l-2.1,1.5l-2.2,1.7c-2.1,1.9,-3.9,4.9,-6.4,6.6l-.3,.2l-1.8,1.4c-2,1.5,-3.9,3.2,-5.7,5.1l-.7,.8l-1.2,1.3l-1,1.1l-.8,1l.1,2.2l.7,.8l1.2,1.3l1,1l2.1,2.2l1.2,1.1c1.8,1.5,3.6,3,5.5,4.3l1.9,1.7l.4,.4l1.7,2.2l1.6,2.1l.5,.7c4,6.2,11.1,9.5,15,15.6l.5,.8l.8,2.2l.8,2.1c1,2.5,1.6,5.2,2.2,7.9l.2,.7l.5,2.1c-.1,2.7,-2.3,6.4,-3.7,8.6l-1.3,1.6l-.5,.5l-1.6,1.7l-.6,.5l-1.5,1l-1.7,1.1l-.5,.3l-1.8,1.9c-1.3,2.1,-2.5,4.3,-4,6.4l-.6,.8l-1.1,1.3c-1.6,2,-3.3,3.6,-5.3,5.2l-1.8,1.2l-.4,.3l-2.1,1.5l-.4,.4c-1.6,2.4,-3.4,4.6,-5.7,6.4l-.3,.3l-2.2,1.3c-2.4,1.3,-5.8,3.2,-8.5,3.3l-2.2,-.5l-.3,-.1l-1.8,-.4l-2.2,-.7l-2.1,-.7c-11.4,-4.1,-9.4,-5.4,-17.1,-12.9l-.3,-.3l-1.9,-1.7l-.5,-.4c-1.9,-1.8,-3.8,-3.2,-5.9,-4.8l-2.1,-1.7L314,300.1c-1.7,-2.3,-3.3,-4.4,-5.3,-6.4l-1.4,-1.4l-.8,-.8l-1.3,-1.2l-1,-.9l-1.2,-1l-2.1,-.1l-1.5,1.1l-.7,.6l-1.6,1.5c-2,2.1,-4,4.1,-5.6,6.5l-1.3,1.8l-.3,.3c-3.7,4.5,-6.6,5.1,-9.7,10.7l-.7,1.2l-.6,.9l-1,2.2l-.6,1.5c-.9,2.8,-2.4,5.3,-4.3,7.6l-1.5,1.6l-.6,.5l-2.1,1.5l-.4,.1l-1.8,.5l-2.1,.2l-2.2,.1l-2.1,.1L258,329l-2.1,.1l-2.1,.1l-2.2,.3l-2.1,-1l-.6,-.6Zm.6,2.7l2.1,.8l2.2,-.2l2.1,-.2c3.9,-.6,9.3,-.4,12.9,-1.5l2.1,-1.2l.5,-.4c3,-2.3,4.8,-5.1,6.3,-8.5l.7,-2.2l.7,-2.1l.4,-.6l.8,-1.6c2.5,-4.3,3.9,-5.8,7.9,-8.5l2,-1.8l.2,-.4c2.4,-3.2,3.6,-5.7,6.7,-8.5l1.6,-1.7l.6,-.5l1.6,-1.4l2.1,.1l1.4,1.3l.8,.8l1.5,1.4l.6,.6c6.2,6.2,4,7.7,12.8,13.1l1.6,1.3l.6,.4l1.9,1.7l.2,.3l4.1,4l.2,.4l1.3,1.7l.8,1.1l1,1.1l1.2,1l1.3,1.1l.8,.6l2.2,1.1l1,.5l1.1,.4l2.1,.8l2.2,.7l.7,.2l1.4,.4l2.2,.5l2.1,.5l2.2,.4l2.1,-.2l2.1,-.7l2.2,-.8l.2,-.1l1.9,-1l2.2,-1.1l2.1,-1.6l.7,-.6l1.4,-1.5l.6,-.6l1.6,-2.2l2.1,-2.1l2.2,-1.4l1,-.8l1.1,-.9l1.4,-1.2l.7,-.7l1.5,-1.4l.7,-.9l1.1,-1.3l1,-1.5l.4,-.6l1.3,-2.2l.5,-.7l.7,-1.4l1.2,-2.1l.2,-.2l2.2,-1.3l1.1,-.7l1,-.6l1.7,-1.5l.4,-.4l1.6,-1.8l.6,-.7l.9,-1.4l1.1,-2.1l.1,-.3l.8,-1.9l.8,-2.1l.3,-2.2l-.4,-2.1l-.5,-2.2l-.4,-2.1l-.6,-2.1l-.6,-2.2l-.7,-2.1l-.7,-2.2l-.1,-.2l-.9,-1.9l-1.3,-1.8l-.2,-.3l-1.9,-2l-.2,-.2l-1.9,-1.6l-.8,-.5l-1.4,-.9L385,255.1l-.6,-.6L382.9,253l-.7,-.8l-1.3,-1.3l-.8,-1l-.9,-1.2L377.9,247c-3.8,-6.9,-7.6,-6.4,-12.8,-12.1l-1.2,-1.2l-.9,-1l-1.1,-1.1l-.1,-2.2l1.2,-1.3l.7,-.8l1.4,-1.5l.6,-.6l1.5,-1.5c2.3,-2.2,4.4,-3,6.8,-5l1.8,-1.9l.2,-.2c2.8,-4.4,5.2,-6.1,9.9,-8.6l.6,-.3l2.2,-.7l2.1,-.7c13.3,-6.3,10.3,-11.6,12.5,-24l.3,-2.1l-.8,-2.1l-1.3,-1.7l-.5,-.5c-5.6,-6.6,-17.3,-7.5,-25.2,-11.2l-2.1,-.8l-2,-.8l-.2,-.2c-3.3,-2.2,-7,-3.9,-10.7,-5.3l-2.1,-.7l-.9,-.3c-4.6,-1.1,-7.6,-2.5,-12,-3.8l-1.8,-.4l-.3,-.1l-2.2,-.5l-2.1,-.4l-2.1,-.4l-2.2,-.4l-1.2,-.4l-.9,-.3c-3.3,-1,-7.4,-2.4,-10.5,-4l-.2,-.1l-2.2,-1.7c-3.1,-2.6,-6,-3.3,-9.8,-4.6l-.9,-.3l-2.1,-.6l-2.1,-.5c-9.7,-3,-20.2,-2.6,-29.4,-7.1l-.6,-.3l-2.2,-1l-1.7,-.9l-.4,-.4L269,126.7c-2.4,-2.1,-5.9,-2.6,-8.8,-3.6l-2.2,-.6l-.5,-.1c-4.7,-1.2,-9.7,-2.1,-14.4,-2.9l-2.2,-.4l-2.1,-.3l-2.2,-.3c-7.9,-1.7,-24.7,-3,-29.9,-9l-2.2,-1.6l-.8,-.5l-1.3,-.8l-2.2,-1.1l-2.1,.4l-2.1,.6c-3.8,1.2,-7.2,2.4,-10.8,4.3l-1.4,.9l-.7,.8c-2.3,4.1,-3.5,7.5,-4.7,12l-.6,2.2l-.3,2.1l1.2,2.2l.1,.2l1.3,1.9l.9,1.2c4.8,4.5,6,14,7.2,20.2l.4,2.1l.5,2.2c1.5,7.6,1.9,15.7,3.5,23.5l.5,2.2l.6,2.1l.1,.6l.4,1.6l.6,2.1l.7,2.1l.5,1.3l.3,.9l1.3,2.1l.5,.6l1.4,1.6l.7,.7l.8,1.4l1.1,2.2l.3,.5l.7,1.6l.8,2.1c3.1,6.8,2.7,13.9,5.1,21.4l.6,2.2l.6,2.1l.6,2.2l.1,.3l.8,1.8l.8,2.1c2.6,6.1,5.3,8,7.3,15l.6,2.2l.7,2.1c2.2,8.2,2.5,15.3,5.4,23.6l.8,2.1l.8,1.9l.1,.3l.9,2.1l1.1,1.9l.2,.2l1.4,2.2l.6,.6l2.1,3l.3,.7l.8,2.1l.8,2.1l.2,.8l.5,1.4l.6,2.1l.7,2.2c2.1,6.2,2.7,12.4,6.8,17.8l1.2,1.4l.9,1l1.5,1.2l.7,.5Z" class="g9_422"/>
<path d="M248.9,325.8L247.3,324l-.2,-.3l-1.4,-2.2l-.5,-.9c-2.7,-4.9,-3.5,-10.9,-5.3,-16.2l-.7,-2.2l-.4,-1.5c-2,-6.3,-4,-10,-7.4,-15.6L230.3,283l-.1,-.3l-.8,-1.9l-.8,-2.1c-2.5,-6.3,-3.5,-12.7,-5,-19.3l-.6,-2.1l-.5,-2.2c-2,-6.5,-4.1,-13.2,-7.3,-19.2l-.9,-2.2l-.8,-2.1l-.4,-.9l-.5,-1.3l-.7,-2.1l-.8,-2.1c-2.1,-6.8,-2.4,-12.7,-5.2,-19.3l-.9,-2.1l-.5,-1.2c-2.8,-5.4,-4.5,-10.3,-6.5,-16l-.8,-2.1l-.7,-2.2l-.5,-2.1l-.6,-2.1c-1.6,-6.7,-2.1,-13.2,-3.7,-19.7l-.4,-1.8l-.5,-2.1c-1.4,-7.1,-2.5,-13.3,-5.6,-20l-.6,-1.4L183.5,131l-.4,-.7l-1,-1.5l.4,-2.1c3.1,-8.8,6.9,-12.9,15.6,-16.3l2.1,-.4l2.2,1.4l.4,.3l1.7,1l2.2,1l.2,.1c8.3,4,18.5,4.9,27.6,7.2l2.1,.4l2.2,.4c8.8,1.7,17.3,4.3,25.7,7.5l2.1,.6l2.2,.8l.4,.3l1.7,.8c9.7,4.6,16.8,5,26.8,7.7l1,.3l2.2,.7c9.5,2.7,18.3,7.9,27.8,10.7l2.1,.7l1.9,.5h.3l2.1,.6l2.2,.4l2.1,.5l2.2,.6c3.3,.9,7.4,2.5,10.5,4.3l.2,.1l2.1,.9c2.8,.9,5.8,2.4,8.6,3.5l2.1,.7l2.1,.7l1.8,.5c8.5,4,18.2,4.9,26.1,10l.9,.7l1.2,1l1.2,1.2l1,1.6l.2,.5c-.4,4.3,-.8,8.6,-1.1,12.8l-.2,2.2l-.6,2.1c-1.8,2.4,-4.3,4.6,-6.9,6l-.9,.5l-1.2,.5l-2.2,.9l-1.6,.7c-3.3,1.6,-6.3,3.6,-9.1,6.1l-.3,.3l-1.8,2c-2.3,3.1,-5.9,4.8,-8.6,7.4l-1.4,1.3l-.7,.7l-1.4,1.5l-.8,.9l-1,1.2l-1.1,1.5l-.5,.6l.1,2.2l.4,.4c5.2,7.3,13.8,11.1,18.5,18.9l.8,.8l1,1.3c7.6,9,11.3,7.1,15.2,19.3l.7,2.1l.2,.6l.4,1.6l.6,2.1l.5,2.1l-.4,2.2l-1.1,2.1l-1.2,2.2l-1,1.3l-.5,.8l-1.6,1.8l-.4,.3l-1.7,1.5c-2.5,1.7,-5,3.5,-6.5,6.2l-.5,.9l-1.4,2.1l-.2,.4l-1.4,1.8c-2,2.5,-4,4.4,-6.5,6.4l-.7,.5l-2.1,1.5c-3.2,3.1,-4.7,6.1,-8.6,8.6l-.1,.1l-2,1.2l-1.8,1l-.4,.1l-2.1,.9l-2.1,.4l-2.2,-.5C335.8,320.4,336,318.6,326.6,309l-.5,-.3l-1.7,-1.5l-.7,-.7c-2.5,-2.2,-5.4,-3.9,-7.7,-6.4l-.1,-.1l-1.7,-2c-2.1,-2.8,-4.4,-5.3,-6.9,-7.7l-.9,-.9l-1.2,-1.1l-1.3,-1l-.9,-.8l-2.1,-.1l-1.1,.9c-2.3,1.7,-4.9,4.2,-6.7,6.4l-.8,.8l-1.1,1.3c-2.6,3.8,-4,5.3,-7.5,8.2l-.3,.4l-1.8,2.1l-1.6,2.2c-4.9,7.1,-6.1,19.7,-17.7,18.3l-2.1,.1l-2.2,.1l-2.1,.1h-2.1l-2.2,.3l-2.1,-1.3l-.6,-.5Zm.6,2.7l2.1,1l2.2,-.3l2.1,-.1L258,329c3.2,-.4,8.1,0,10.8,-1.2l2.1,-1.5l.6,-.5c2.7,-2.4,4.6,-5.8,5.8,-9.2l.6,-1.5l1,-2.1l.6,-1l.7,-1.2c2.6,-4.4,4.2,-5.3,7.8,-8.6l1.9,-2.1l.3,-.3c2.1,-3.1,4.2,-5.6,6.9,-8.3l1.6,-1.5l.7,-.6l1.5,-1.1l2.1,.1l1.2,1l1,.9l1.3,1.2l.8,.8l1.4,1.4c1.8,1.9,3.5,3.9,5,6.1l.3,.3l1.9,2.1c2,1.8,4.3,3.3,6.4,5l1.6,1.5l.5,.4l1.9,1.7c7.3,6.9,5.8,8.9,16.3,12.9l1.1,.3l2.1,.7l2.2,.7l1.8,.4l.3,.1l2.2,.5l2.1,-.4l.7,-.2l1.4,-.5l2.2,-1l1.1,-.6l1,-.6c2.5,-1.3,4.7,-3.4,6.4,-5.6l.3,-.3l1.5,-2.1l.4,-.4c7.7,-5.1,10.7,-8.6,15.3,-16.7l1.8,-1.9l.5,-.3l1.7,-1l1.5,-1.1l.6,-.5l1.6,-1.7l.5,-.5c1.9,-2.1,3.3,-4.9,4.3,-7.4l.3,-.6l.4,-2.2c-.7,-2.8,-1.3,-5.7,-2.2,-8.5l-.6,-1.9l-.1,-.3l-.8,-2.1c-2.3,-7.8,-10.8,-10.7,-15.1,-17.1L378,249.4l-.6,-.7l-1.6,-2.1l-1.7,-2.2l-.4,-.4c-1.9,-2.2,-4.5,-3.2,-6.5,-5.2l-.9,-.8l-1.2,-1.1c-1.7,-1.8,-3.4,-3.4,-5,-5.3l-.1,-2.2l.8,-1l1,-1.1L363,226c1.6,-1.9,3.5,-3.6,5.4,-5.1l1,-.8l1.8,-1.4c2.7,-1.8,4.4,-4.7,6.8,-6.8l2.1,-1.7l2.1,-1.5l1.3,-.7l.9,-.5l2.1,-1.1l1.5,-.5l.7,-.3l2.1,-.8l2,-1l.1,-.2c2.6,-1.6,4.9,-3.6,6.5,-6.3l.6,-2.1l.2,-2.2c.3,-3.7,.7,-7,1.2,-10.7l.1,-1l.1,-1.1l-.1,-.3c-3.1,-6.9,-12.6,-9.4,-19.3,-11.4l-3.4,-1.1l-.8,-.3l-2.2,-.9c-8.2,-2.9,-15.2,-6.8,-23.5,-9.2l-.8,-.4l-1.4,-.6c-8.5,-3.6,-16.9,-3.9,-25.7,-7.6l-.6,-.3l-1.5,-.7l-2.2,-1l-.9,-.5l-1.2,-.7l-2.1,-1.1c-6.4,-3.2,-14.5,-5.3,-21.5,-6.9l-2.1,-.5l-2.1,-.4c-8.1,-.9,-16.6,-4.4,-23.6,-8.5l-2.1,-.8l-.9,-.3l-1.3,-.5l-2.1,-.8c-7.4,-2.3,-15.9,-4.3,-23.6,-5.4l-2.1,-.4l-2.1,-.4c-9.4,-2.2,-17,-2.5,-25.7,-7.1l-.8,-.4l-1.4,-1.1L203,109.5l-.6,-.4l-2.2,-1.3l-2.1,.3c-11.9,4,-14.2,6.9,-18,18.6l-.3,2.1l1.2,1.9l.1,.3l1.7,2.1l.3,.4c3.3,6.3,4.8,11.9,6,18.9l.4,2.1l.5,2.1c1.7,7.1,2.1,14.2,3.6,21.5l.2,1l.2,1.1l.6,2.1l.6,2.2c2.2,8.8,4.8,11.7,8.3,19.3l.9,2.1l.1,.2c3.5,7.2,3.1,13.8,5.7,21.2l.6,2.1l.1,.4l.6,1.8l.7,2.1l.9,2.2l.8,2.1c3.3,6.5,5.1,10,7.2,17.1l.5,1.9l.1,.3c2.2,7.1,2.7,14.2,5.2,21.4l.7,2.1l.5,1.3l.3,.9l.9,2.1c2.6,5.9,5.9,8.3,7.8,15l.7,2.1l.7,2.2c2.2,6.2,3.2,13.9,6.8,19.3l1.5,2.1l.5,.6l1.6,1.5l.6,.6Z" class="ga_422"/>
<path d="M249,323.7l-1.6,-2.2l-.1,-.1l-1.2,-2l-.9,-1.8c-2.1,-5.2,-3.2,-11.9,-5.1,-17.5l-.7,-2.1l-.6,-1.9C236.6,289.5,233,285,230.2,278.7l-.8,-2.1l-.8,-2.2l-.5,-1.6l-.2,-.5C226,265.9,225.1,259.4,223.3,253l-.6,-2.1l-.7,-2.2c-1.9,-6.7,-3.9,-11.3,-6.8,-17.6l-.7,-1.7l-.9,-2.1l-.5,-1.3l-.3,-.8l-.7,-2.2l-.7,-2.1c-1.6,-5.7,-2.5,-11.1,-4.7,-16.7l-.2,-.4l-.9,-2.2c-3,-6,-3.9,-11,-6.4,-17.1l-.7,-2.2l-.4,-1l-.3,-1.1c-4.2,-15.6,-5.6,-32,-11.5,-47.1l-.9,-2.1l-.2,-.3l-1,-1.9l.5,-2.1c3.1,-7.1,6.5,-10.6,13.4,-14l2.1,-.5l2.2,1.2l.7,.4l1.4,.7l2.2,.9c8.7,3.6,18.6,4.6,27.8,7l2.1,.3l2.2,.5c9.6,1.9,18.4,6.1,27.8,8.4l2.2,.8l1.5,.7l.6,.3l2.1,.8c10.2,4.2,19.5,4.4,30,8.8l2.2,.8l2.1,.9c8.3,3.6,18.9,7.7,27.8,9.4l1.8,.4l.4,.1l2.1,.6l2.1,.7l2.2,.7h.2l1.9,.8c3.3,1.2,5.6,3.2,8.6,4.4l2.1,.9l1,.4c3.7,1.6,7.9,2.8,11.9,3.8l1.1,.4l5.3,2c2.9,.9,5.7,1.8,8.6,2.6l2.1,.6l2.2,.8l1,.5l1.1,.5l2.1,1.3l.5,.3l1.7,1.2l1.1,1l1,1.5l.4,.6l-.1,2.1l-.2,2.2l-.1,1.1l-.1,1l-.1,2.2c-.6,4.8,1,7.5,-3.2,10.7l-.9,.7l-1.8,1.4c-2.8,1.9,-6.1,2.8,-9,4.3l-2,1.2l-1.5,.9l-.7,.5l-2.1,1.6c-2.3,1.9,-3.8,4.6,-6.4,6.3l-.3,.2l-1.9,1.3c-2.8,2.1,-5.4,4.6,-7.6,7.3l-.9,1l-.9,1.1l-1.3,1.8l-.2,.3l.2,2.2l1.7,2.1l.5,.6l1.4,1.6l.7,.8l1.3,1.3c2.1,2.2,4.8,4.4,7.3,6.1l.4,.3l1.7,1.6c2,1.9,3.6,4.9,5.6,7l.8,1l1.1,1.1l1.1,1.2l.9,1c2.2,2.4,4.9,4.2,7.3,6.4l.4,.5l1,1.6c2.2,4.1,3.8,8.5,5.1,12.9l.3,1.2l.2,.9l-.2,1.1l-.3,1.1l-1.1,2.1l-.8,1.2c-1.6,2.7,-3.8,4.7,-6.4,6.6l-1.1,.8l-1,.9c-3,2.3,-4.1,5.5,-6.5,8.3l-1.1,1.5l-1,1.1l-1.1,1l-1,1c-2.8,2.7,-6,4.3,-8.3,7.6l-.3,.4l-1.5,1.7c-2.4,2.6,-6,4.8,-9.2,6.2l-1.1,.3l-1,.2l-.8,-.2l-1.4,-.5l-2.1,-.7l-2.2,-.7l-.7,-.3C334,317.2,334.4,313.6,326,306.5l-3.7,-3.1c-3.8,-2.8,-5,-3.7,-7.9,-7.6l-.7,-.8l-1.1,-1.3c-2.3,-2.6,-4.8,-5.1,-7.4,-7.3l-1.6,-1.3l-.6,-.5l-2.1,-.1l-.9,.6l-1.3,1l-1.4,1.2c-2.3,2,-4.2,4,-6.3,6.4l-.8,1l-.9,1.1c-2.8,4.4,-4.3,4.9,-7.7,8.5l-.1,.1l-1.6,2.1l-.4,.6l-1,1.6c-1.9,2.7,-2.6,5.7,-4.1,8.5l-1.3,2.2l-.1,.1c-3.5,4.9,-4.3,6.1,-10.7,5.8H258l-2.1,.1h-2.1l-2.2,.2l-2.1,-1.4l-.5,-.5Zm.5,2.6l2.1,1.3l2.2,-.3h2.1l2.1,-.2h2.2l2.1,-.1c11.1,1.3,12.8,-10.3,17.2,-17.4l.5,-.9l1.6,-2.2l1.8,-2.1c2.7,-2.6,4.6,-3.7,6.8,-7.1l1,-1.5l1.1,-1.3c2.1,-2.5,4,-4.3,6.4,-6.4l1.1,-.8l1.1,-.9l2.1,.1l.9,.8l1.3,1c7.2,6,9.2,11.8,17.1,17l1.4,1.2l.7,.7c10.7,9,7.9,11.8,23.6,16.7l2.1,.7l2.2,.5l2.1,-.4l2.1,-.9l.4,-.1l1.8,-1l2,-1.2c2.5,-1.7,4.7,-4,6.5,-6.4l2.1,-2.2l.1,-.1c2.7,-1.8,5.3,-3.8,7.5,-6.3l1,-1.2l.8,-.9l1.4,-1.8l.2,-.4c2.4,-3.5,2.7,-4.9,6.2,-7.7l1.2,-.8l1,-.7c3.6,-2.7,5.5,-6,7.5,-10l.4,-2.2l-.5,-2.1l-.6,-2.1l-.4,-1.6l-.2,-.6C390.5,260.3,389,263.8,380.1,254.2L379,253l-1.1,-1.3l-.7,-.8c-2.1,-2.6,-3,-4.7,-5.7,-6.8l-2.1,-1.8l-2.2,-1.7c-2.7,-2.1,-4.8,-4.3,-7.1,-6.9L358.7,232l-.4,-.4l-.1,-2.2l.5,-.6l1.1,-1.5l1,-1.2l.8,-.9l1.4,-1.5l.7,-.7l1.4,-1.3c2.7,-2.6,6.2,-4.3,8.4,-7.2l.2,-.2l1.8,-2c2.5,-2.4,5.7,-4.6,8.9,-6.2l.5,-.2l1.6,-.7l2.2,-.9l1.2,-.5c2.7,-1.4,5.4,-3.5,7.3,-5.9l.5,-.6l.6,-2.1c.3,-4.3,.8,-8.6,1.1,-12.9l.2,-2.1l-.2,-.5l-1,-1.6l-1.2,-1.2l-1.2,-1c-6.8,-5.3,-16.3,-6,-24.5,-9.8l-2.1,-.8l-.4,-.1l-1.8,-.5c-3.8,-1.1,-6.1,-2.2,-9.7,-3.8l-1,-.4l-2.1,-.7c-3.8,-1.5,-6.5,-3.5,-10.7,-4.7l-2.2,-.6l-2.1,-.6l-2.1,-.5l-2.2,-.4l-2.1,-.6h-.3l-1.9,-.5c-9.1,-2.4,-17.6,-7.2,-26.4,-10.2l-3.5,-1.2c-9.8,-3.4,-18.2,-3.4,-27.9,-7.8l-2.1,-.9l-1.7,-.8l-.4,-.3l-2.2,-.8C257.9,127,250.1,124,240.9,122.2l-2.1,-.4l-2.2,-.4c-9.9,-2.3,-20.4,-3.3,-29.7,-7.6l-.2,-.1l-2.2,-1l-1.7,-1l-.4,-.3L200.2,110l-2.1,.4c-8.7,3.4,-12.5,7.5,-15.6,16.3l-.4,2.1l1,1.5l.4,.7l1.1,2.1l.6,1.4c3.1,6.7,4.2,12.9,5.6,20l.5,2.1l.4,1.8c1.6,6.5,2.1,13,3.7,19.7l.6,2.1l.5,2.1l.7,2.2l.8,2.1c2,5.7,3.7,10.6,6.5,16l.5,1.2l.9,2.1c2.8,6.6,3.1,12.5,5.2,19.3l.8,2.1l.7,2.1l.5,1.3l.4,.9l.8,2.1l.9,2.2c3.2,6,5.3,12.7,7.3,19.2l.5,2.2l.6,2.1c1.5,6.6,2.5,13,5,19.3l.8,2.1l.8,1.9l.1,.3l1.1,2.1c3.4,5.6,5.4,9.3,7.4,15.6l.4,1.5l.7,2.2c1.9,5.6,2.7,12.1,5.8,17.1l1.4,2.2l.2,.3l1.6,1.8l.6,.5Z" class="gb_422"/>
<path d="M249.1,321.5l-1.5,-2.1l-.3,-.5l-.9,-1.7l-1,-2.1c-1.3,-5.8,-2.8,-11.5,-4.5,-17.1l-.6,-2.2l-.8,-2.1c-1.9,-6.9,-6,-10.9,-8.5,-17.1l-.8,-2l-.1,-.2l-.8,-2.1c-4.2,-14.4,-5.4,-29.2,-12.9,-42.9l-1.1,-2.1l-.1,-.2l-.8,-1.9l-.8,-2.2l-.5,-1.3c-1.7,-5.3,-2.7,-10.5,-4.4,-15.8l-.7,-2.1l-.9,-2.2c-2.9,-6.1,-3.3,-10.9,-5.7,-17.1l-.9,-2.2l-.3,-.7l-.5,-1.4C194.9,164.8,193.2,148.4,188,133.1l-.6,-1.6l-.2,-.5l-1.1,-2.2l.8,-2.1c2.7,-5.6,5.8,-8.7,11.2,-11.7l2.1,-.8l2.2,1.2l1.3,.6l.8,.3l2.2,.8c8.6,3,18.8,4.3,27.8,6.6l2.1,.5l1.5,.3c9.6,2,17.5,6.7,27.2,8.6l1.3,.3l2.2,.7l2.1,.8l.8,.3c9,3.6,18.1,4.2,27,7.9l1.7,.7l.5,.2c8.9,4.2,18.2,7.5,27.8,9.9l2.1,.5l.4,.1l1.8,.4l2.1,.4l2.2,.5l2.1,.7l.5,.1c3.2,1.1,6.8,2.6,9.7,4.3l.5,.4l2.2,1.5c2.9,1.7,5.4,2.4,8.5,3.5l2.2,.7l1.2,.3l.9,.3l2.1,.5c3.7,.7,7.1,2.4,10.8,3.3l.6,.2l1.5,.5c4.1,1.2,7,1.4,10.9,3.8l1.9,1.4l1,.8l1.2,1.4l.5,.7l-.1,2.1l-.1,2.2l-.1,2.1l-.1,2.2v2.1l-.1,2.1l-.1,2.2l-.8,2.1l-1.3,1.3l-1,.9c-3.3,2.7,-6,3.4,-9.7,4.9l-2.1,1.1l-.7,.4l-1.4,.8l-1.9,1.3c-2.7,1.7,-4.2,4.5,-6.6,6.5l-.1,.1l-2.2,1.4c-2.8,2,-5.5,4.4,-7.8,7l-.7,.8l-1.2,1.4l-1,1.3l-.6,.8l-1.4,2.1l.2,2.2l1.6,2.1l.2,.3l1.6,1.9c2,2.3,4,4.4,6.4,6.4l.6,.5l2.1,1.6c4.1,2.3,5.1,5.3,7.9,8.6l.7,.9l1.1,1.2l1.1,1.2c9.1,9.3,10.1,7.1,14.9,20.8l.5,1.6l.7,2.1l-.6,2.2l-.6,1l-.7,1.1c-1.9,3.2,-4.8,5.6,-7.8,7.6l-1.1,1l-1.1,1c-2.2,2.3,-3.5,5.2,-5.6,7.5l-.8,1l-1,1.2l-1.1,1.1l-1.1,1c-2.3,2.3,-5.3,3.9,-7.4,6.4l-.1,.2l-1.5,2c-2.2,2.7,-4.1,4,-7.1,5.9l-.9,.5l-1.2,.6l-2.1,.5l-2.2,-.7l-1.2,-.4l-.9,-.3c-12,-4.7,-11.2,-6.8,-19.7,-14.7L326.6,305l-.8,-.6l-1.4,-1.1c-2.1,-1.9,-4.6,-3.2,-6.5,-5.3l-1.6,-2.2l-.4,-.6c-2.4,-3,-4.6,-5.4,-7.5,-7.9l-1.1,-1.1l-1.2,-1.1L303.3,283l-.3,-.3l-2.1,-.1c-2.3,1.5,-4.4,3.3,-6.5,5.1l-1.7,1.7l-.4,.5c-2.4,2.6,-4.5,5.2,-6.4,8.2l-2,2l-.2,.1l-2.1,1.9l-.1,.1c-2.4,2.6,-4.2,5.5,-5.7,8.6l-.6,1.5l-.3,.6l-.8,2.2l-1.1,2.1l-1.4,2.2l-.7,1l-1,1.1l-1.1,1.2l-2.2,.8H253.8l-2.2,.2l-2.1,-1.6l-.4,-.6Zm.4,2.7l2.1,1.4l2.2,-.2h2.1l2.1,-.1h4.3c5.4,0,5.8,.3,9.3,-3.8l1.4,-2l.1,-.1c2.1,-2.9,2.7,-5.8,4.2,-8.8l1.2,-1.9l1,-1.6l.4,-.6l1.6,-2.1c1.9,-2.4,4.6,-3.9,6.3,-6.4l.2,-.4l1.3,-1.8c2.2,-2.7,4.7,-5.6,7.3,-7.9l.8,-.6l1.3,-1.2l1.3,-1l.9,-.6l2.1,.1l.6,.5c2.5,2,4.8,4.2,7,6.4l1,1l1,1.2c3.1,3.2,4.1,6,8.2,8.5l1.5,1.2l2.1,1.8c7.7,6,10.8,13.1,20.7,16.3l.7,.3l2.2,.7l2.1,.7l1.4,.5l.8,.2l1,-.2l1.1,-.3c2.8,-1.2,6.4,-3.4,8.6,-5.6l.6,-.6l1.5,-1.7c2.4,-3.3,4.3,-4.4,7.3,-6.8l1.3,-1.2l1,-1l1.1,-1l1,-1.1c2.1,-2.6,3.6,-5,5.4,-7.6l.9,-1l1.3,-1.2c2.9,-2.5,5.6,-4,7.9,-7.3l.6,-1l.8,-1.2l1.1,-2.1l.3,-1.1l.2,-1.1l-.2,-.9c-.9,-3.3,-2,-6.6,-3.3,-9.8l-1,-2.1l-1.1,-2.2c-1.4,-2.9,-5.2,-4.9,-7.5,-7.3l-2.1,-2.2L379,255.1L378,254c-2.3,-2.4,-3.8,-4.9,-5.9,-7.4l-.6,-.6l-1.7,-1.6c-2.7,-1.9,-5.4,-4,-7.7,-6.4l-1.3,-1.3l-.7,-.8l-1.4,-1.6l-.5,-.6l-1.7,-2.1l-.2,-2.2l.2,-.3l1.3,-1.8l.9,-1.1l.9,-1c2,-2.4,4.2,-4.5,6.6,-6.5l1,-.8l1.9,-1.3c2.7,-1.6,4.2,-4.4,6.6,-6.4l.1,-.1l2.2,-1.6l.6,-.5l1.5,-.9c2.7,-2,5.7,-2.6,8.6,-4.1l2.1,-1.2l.3,-.2c5.1,-4,5.7,-3.7,5.8,-10.7l.1,-2.1l.1,-2.2l.1,-1l.1,-1.1l.2,-2.2l.1,-2.1c-1.3,-3,-4.2,-4.3,-6.8,-5.9l-1.1,-.5l-1,-.5c-3.9,-1.5,-8.2,-2.4,-12.3,-3.8l-.6,-.2l-5.3,-2c-3.1,-1,-6.5,-1.7,-9.7,-2.9l-2.1,-.8l-1.2,-.5c-4.6,-1.7,-5.5,-2.7,-9.5,-4.7l-2.2,-1l-1.9,-.8h-.2l-2.1,-.7l-2.2,-.7l-2.1,-.6l-.4,-.1c-9.5,-1.7,-18.5,-5.3,-27.5,-8.8l-2.1,-1l-2.1,-.9c-9.7,-4.2,-20.2,-5.4,-30,-8.8l-2.2,-.8l-2.1,-.8l-.6,-.3l-1.5,-.7c-9.6,-2.6,-18.4,-6.4,-27.9,-8.7l-2.1,-.5l-2.2,-.5c-10,-2.3,-20.3,-3.5,-29.9,-7.3l-2.2,-.9l-1.4,-.7l-.7,-.4l-2.2,-1.2l-2.1,.5c-6.9,3.4,-10.3,6.9,-13.4,14l-.5,2.1l1,1.9l.2,.3l.9,2.1c5.6,14.4,7.2,30,10.9,45l.6,2.1l.3,1.1l.4,1c2.2,5.5,3.8,12.1,6.2,17.2l.9,2.1l.9,2.2c2.4,5.7,3.3,11.2,4.9,17.1l.7,2.1l.7,2.2l.3,.8l.5,1.3l.9,2.1l.7,1.7c2.9,6.3,4.9,10.9,6.8,17.6l.7,2.2l.6,2.1c1.8,6.4,2.7,12.9,4.6,19.3l.2,.5l.5,1.6l.8,2.2l.8,2.1c2.8,6.3,6.4,10.8,8.6,17.4l.6,1.9l.7,2.1c2.2,6.1,3.1,14,6,19.3l1.2,2l.1,.1l1.6,2.2l.5,.5Z" class="gc_422"/>
<path d="M251.5,321.5l-2,-1.6l-.4,-.5l-1.3,-2.2l-.5,-.9c-2,-5.9,-2.8,-12.3,-4.9,-18.3l-.5,-2.2l-.7,-2.1c-1.7,-6,-3.7,-10.1,-7.4,-15l-1.2,-2.1l-.2,-.5l-.8,-1.7l-.9,-2.1c-2.6,-6.4,-2.7,-10.7,-4.1,-17.2l-.4,-2.1l-.3,-1.1c-1.7,-6.8,-3,-13.9,-6.1,-20.3l-.3,-.6l-.8,-1.6l-1.3,-1.7l-.3,-.4l-1,-2.1l-.9,-1.9C213.1,218.4,212,213.2,210.7,208l-.6,-2.1l-.7,-2.1c-2.8,-6.9,-3.2,-10.3,-5.2,-17.2l-.5,-2.1l-.9,-2.2l-.4,-1.2l-.3,-.9c-3.4,-7.1,-4.3,-13.6,-6.1,-21.1l-.1,-.3l-.6,-2.2c-1.9,-7.1,-2.9,-14.4,-4.9,-21.4l-.7,-2.1l-.2,-.7l-.4,-1.4l-1,-2.2l.9,-2.1c2.3,-4,5.2,-7,9.1,-9.5l2.1,-1l2.2,1.1l2.1,.7l.3,.1l1.9,.6c8.9,2.6,18.7,3.9,27.8,6.3l2.1,.6l2.2,.5l1.8,.6c3.2,1.2,6,1.7,8.9,3.6l1.4,.7l.7,.3c3.8,1.3,6.8,2,10.7,3l2.2,.4l2.1,.4l.4,.1l1.8,.5l2.1,.8c10.1,3.8,20.1,4,30,9.3l.2,.1l1.9,1.3c7.2,3.6,17.8,6.1,25.7,8.1l2.1,.4l2.2,.4l2.1,.4l.6,.1l1.6,.4l2.1,.8l2.2,.7c2.1,1.1,4.5,1.8,6.4,3.3l1.8,1.3l.3,.3l2.2,1.8l2.1,1l2.1,.7l1.3,.4l.9,.3l2.1,.7l2.2,.5l2.1,.6l.5,.1l1.6,.3c4.3,.9,8.5,2.6,12.9,3.7l1.1,.3l1,.2c4.2,.9,6.1,1.5,9.5,4.1l1.2,1.3l.7,.8l-.1,2.1v4.3l-.1,2.2V193l-.1,2.2l-.4,1.1l-.4,1l-1.7,1.5l-.9,.7l-1.2,.8c-2.5,1.7,-5.8,2,-8.6,3.6L378,205l-1.5,.9l-.7,.5l-2.1,1.6c-3.5,2.8,-2.9,3.8,-7,6.5l-1.6,1.1l-1.3,1c-2.4,1.9,-4.6,4.1,-6.6,6.4l-.7,.8l-1,1.4l-1.1,1.6l-.4,.5l-1.5,2.1l.2,2.2l1.7,2.1l1.6,2.2l.5,.6c2.1,2.4,4,4.5,6.5,6.5l1.8,1.4l.3,.3c5,3.4,4.4,3.5,8.1,8.3l.5,.7l1.1,1.4l1,1.2c8.2,9.2,10.8,7.3,15.6,20.3l.7,2.1l.8,2.1l-.7,2.2l-1.4,2l-.1,.1c-1.5,2.3,-3.8,4.6,-6.3,5.8l-.9,.6l-1.3,1.1c-2.8,2.3,-4.2,5.8,-6.4,8.4l-1,1.2l-1.1,1.3l-.9,.9l-1.3,1.2c-2.2,2.1,-4.4,2.9,-6.4,5.1l-.1,.1l-1.8,2.1c-1.7,3.1,-3.6,4.5,-6.4,6.5l-.3,.2l-2.1,1.2l-2.1,.6l-2.2,-.8l-2.1,-.9l-.9,-.3C337.5,315.7,334.3,309,326.6,303l-2.2,-1.8l-1.5,-1.1c-4,-2.7,-4.2,-4,-7,-7.3l-1,-1.3l-1.2,-1.2c-2.3,-2.5,-5.2,-5.4,-7.9,-7.3l-.6,-.6l-2,-1.6l-.2,-.1l-2.1,-.2l-.4,.3l-1.8,1.2c-2.1,1.8,-4.4,3.5,-6.4,5.5l-1.9,1.9l-.2,.3c-2.3,2.7,-4.3,5.6,-6.5,8.4l-2.1,1.9l-.2,.1l-1.9,2.1l-1.7,2.2c-2,3,-3.1,5.2,-4.3,8.5l-.5,1.7l-.1,.5l-1.2,2.1l-.8,1.2l-.8,1l-1.3,1.6l-1.4,.5l-.8,.3h-4.3l-2.1,-.1h-6.4l-2.2,-.1l-.1,-.1Zm-2,.6l2.1,1.6l2.2,-.2h12.8l2.2,-.8l1.1,-1.2l1,-1.1l.7,-1l1.4,-2.2l1.1,-2.1l.8,-2.2l.3,-.6c1,-2.6,2.8,-5.7,4.5,-7.9l1.8,-2.2l.1,-.1l2.1,-1.9l.2,-.1c2.7,-2.1,3.8,-5.3,6.3,-7.8l.6,-.8l1.5,-1.6c2.2,-2.5,5.3,-5,8,-6.9l.6,-.4l2.1,.1l.3,.3l2.8,2.1l1.2,1.1c2.2,2.1,4.4,4,6.4,6.4l.9,1.1l1.3,1.5c1.7,3.1,4.5,5,7.3,7l1.2,1.1l1.4,1.1l.8,.6c9.4,8,8.5,11.3,21.4,16.2l.9,.3l1.2,.4l2.2,.7l2.1,-.5l1.2,-.6l.9,-.5c3,-1.9,4.9,-3.2,7.1,-5.9l1.5,-2l.1,-.2c2.1,-2.5,5.1,-4.1,7.4,-6.4l1.1,-1l1.1,-1.1l1,-1.2l.8,-1c2.1,-2.3,3.4,-5.2,5.6,-7.5l1.1,-1l1.1,-1c3,-2,5.9,-4.4,7.8,-7.6l.7,-1.1l.6,-1l.6,-2.2l-.7,-2.1l-.5,-1.6C388.1,263.4,387.1,265.6,378,256.3l-1.1,-1.2l-1.1,-1.2l-.7,-.9c-2.1,-2.4,-3.2,-5.1,-5.7,-7.1l-2.2,-1.5l-2.1,-1.6c-2.6,-2.2,-4.8,-4.4,-7,-6.9L356.5,234l-.2,-.3l-1.6,-2.1l-.2,-2.2l1.4,-2.1l.6,-.8l1,-1.3l1.2,-1.4l.7,-.8c2.1,-2.4,4.5,-4.5,7,-6.4l.8,-.6l2.2,-1.4c2.3,-1.9,3.8,-4.7,6.4,-6.3l.3,-.3l1.9,-1.3l1.4,-.8l.7,-.4c3.8,-2.3,6.8,-2.4,10.7,-5.2l1.1,-.8l1,-.9l1.3,-1.3l.8,-2.1l.1,-2.2l.1,-2.1v-2.1l.1,-2.2l.1,-2.1l.1,-2.2l.1,-2.1l-.5,-.7l-1.2,-1.4l-1,-.8c-3.5,-2.7,-6.3,-3.7,-10.7,-4.6l-2.1,-.6l-1.5,-.5c-3.2,-.8,-6.1,-2.1,-9.2,-3l-2.2,-.5l-2.1,-.5l-.9,-.3L363,167c-3.1,-1,-7.4,-2.3,-10.2,-3.9l-.5,-.3l-2.2,-1.5c-2.7,-1.9,-7,-3.6,-10.2,-4.7l-.5,-.1l-2.1,-.7l-2.2,-.5l-2.1,-.4l-1.8,-.4l-.4,-.1l-2.1,-.5c-8.8,-2.3,-17.5,-5.1,-25.7,-9l-2.1,-.9l-.5,-.2c-9,-4.1,-18.2,-4.7,-27.4,-8.1l-1.3,-.5l-.8,-.3l-2.1,-.8l-2.2,-.7c-10.3,-1.9,-17.9,-6.5,-27.8,-8.7l-2.2,-.5c-9.6,-2.5,-20.6,-4,-29.9,-7.1l-2.2,-.8l-.8,-.3l-1.3,-.6l-2.2,-1.2l-2.1,.8c-5.4,3,-8.5,6.1,-11.2,11.7l-.8,2.1l1.1,2.2l.2,.5l.6,1.6c5.2,15.3,6.9,31.7,11.7,47.1l.5,1.4l.3,.7l.9,2.2c2.1,5.2,2.8,10.8,5.3,15.9l.4,1.2l.9,2.2c2.1,5.8,3.1,12,5.1,17.9l.5,1.3l.8,2.2l.8,1.9l.1,.2l1.1,2.1c7.5,13.7,8.7,28.5,12.9,42.9l.8,2.1l.1,.2l.8,2c2.5,6.2,6.6,10.2,8.5,17.1l.8,2.1l.6,2.2c2.3,6.3,3,13.1,5.5,19.2l.9,1.7l.3,.5l1.5,2.1l.4,.6Z" class="gd_422"/>
<path d="M251.2,319.4l-1.7,-1.6l-.4,-.6l-1,-2.1l-.5,-2.1c-1.2,-6,-2.7,-11.4,-4.1,-17.2l-.4,-1.7l-.1,-.4c-1.5,-6.1,-3.8,-12.6,-8.5,-17l-.1,-.1l-1.1,-2.2l-.9,-1.7l-.2,-.4c-3,-6.4,-3,-10.5,-4.2,-17.2l-.4,-2.1l-.5,-2.1c-1.3,-6.7,-2.5,-12.9,-4.8,-19.3l-.7,-1.2l-.4,-1l-1.3,-2.1l-.4,-.5l-1.2,-1.6l-.9,-1.1c-2.9,-5.3,-4.1,-10.2,-5.3,-16.1l-.6,-2.1l-.6,-2.1c-2.9,-7.4,-3.1,-12,-5,-19.3l-.6,-2.2l-.8,-2.1l-.6,-2.1l-.8,-2.2l-.7,-1.7l-.2,-.4l-1.1,-2.2l-.9,-1.4l-.2,-.7l-.5,-2.1l-.6,-2.2l-.5,-2.1l-.3,-.9l-.4,-1.3l-.5,-2.1l-.6,-2.2l-.5,-2.1c-2,-6.7,-2.5,-12.6,-4,-19.3l-.4,-1.4l-.2,-.7l-.6,-2.1l-.7,-2.2l.9,-2.1c1.9,-2.8,4.3,-5.3,7,-7.3l2.1,-1l2.2,.8l2.1,.6l1.7,.4l.5,.2c6.6,1.6,13.2,2.3,19.9,4.1l1.5,.4l2.1,.5c6.1,1.3,12,3,17.1,6.5l2.2,1l.4,.2l1.7,.6l2.2,.5c7,2.1,14.4,2.5,21.4,5.1l2.1,.6c7.4,1.6,13.1,2.4,20,6l1.4,1.2l1.4,1l.8,.5l2.1,1.1l1.1,.5l1.1,.5c6.5,2.4,12.6,3.2,19.2,5.1l2.2,.4l2.1,.4c6.9,.8,15.8,3.1,20.4,8.6l1,.8l1.7,1.4l.5,.2l2.1,.9c6.4,2.2,13,2.6,19.3,4.7l2.1,.6l2.2,.5l2.1,.6l2.1,.5l2.2,.5l2.1,.5l2.2,1.1l.8,.6l1.3,1.2l.8,.9v8.6l.1,2.1v4.3l-.9,2.1l-2.1,1.7l-.8,.5l-1.4,.7c-8.7,1.6,-15.1,7.3,-21.4,13.1l-1.2,1.2l-.9,.6l-1.8,1.5c-1.7,1.4,-3.2,3,-4.7,4.6l-1.4,1.8l-.7,.9l-1.1,1.3l-1,1.5l-.7,.6l-1.5,1.7l-.3,.4l.1,2.2l.2,.2l2.2,1.9l1.7,2.2l.4,.5l1.3,1.6c5.8,7.1,11.9,9.2,17.1,17.1l.9,1.1l.9,1.1c4.9,5.7,11.4,10.1,14.5,17.1l.9,2.2l.8,2.1l.8,2.1l-.8,2.2l-1.5,2.1l-.6,.8c-2.4,3,-3.8,2.4,-6.5,4.6l-1.3,1l-.8,.8c-2.5,2.4,-3.2,5.2,-5.3,7.8l-1.1,1.4l-.7,.7l-1.5,1.6l-.7,.6c-1.8,1.7,-4.3,2.4,-6.1,4.3l-1.7,1.8l-.3,.3c-1.9,2.7,-3.2,5.6,-6.2,7.3l-2,1.3l-.1,.1l-2.1,.6l-2,-.7l-.2,-.1l-2.1,-1c-4.3,-2,-5.5,-2.5,-8.6,-6.1l-1.7,-1.4l-.4,-.3c-3.2,-2.3,-5.9,-5.8,-9.2,-8.3L326.6,301l-1.1,-.9l-1.1,-.9L322.9,298c-2.4,-2.7,-4.7,-4.8,-7,-7.7l-.8,-.9L313.7,288c-2.6,-2.9,-6.1,-5.3,-8.5,-8.1L304,278.7l-1,-.8l-2.1,-.2l-1.3,1l-.9,.8l-1.3,1.3c-3.3,2.7,-6.5,5.3,-9.1,8.6l-.3,.3l-1.5,1.8c-2.2,2.6,-4.7,5.7,-7,8.1l-.5,.5l-1.7,2.1l-1.4,2.2l-.7,1.3c-2.3,3.5,-2.6,7.7,-4.3,10.7l-.5,.8l-1.6,2.1c-3.4,1.9,-9.1,.3,-12.9,.6h-2.1l-2.2,-.2l-.4,-.3Zm.4,2.2l2.2,.1h6.4l2.1,.1h4.3l.8,-.3l1.4,-.5l1.3,-1.6l.8,-1l.8,-1.2l1.2,-2.1l.1,-.5l.5,-1.6c1.2,-3.4,2.3,-5.6,4.3,-8.6l1.7,-2.2l1.9,-2.1l.2,-.1l2.1,-1.9c1.7,-2.1,3.3,-4.5,5,-6.6l1.5,-1.8l.2,-.3c2.7,-2.9,5.3,-4.9,8.3,-7.4l1.8,-1.2l.4,-.3l2.1,.2l.2,.1l2,1.6l.6,.6c2.5,1.8,4.9,4.3,7.1,6.4l.8,.9l1.2,1.2c2.2,2.5,4.5,6.6,7.4,8.1l.6,.5l1.5,1.1l1.2,1c8.2,6.1,11.7,13.4,21.5,17.2l.9,.3l2.1,.9l2.2,.8l2.1,-.6l2.1,-1.2l.3,-.2c2.2,-1.6,5,-3.6,6.2,-6.1l.2,-.3l1.8,-2.2c1.9,-2.1,4.5,-3.3,6.5,-5.2l1.3,-1.2l.9,-.9l1.1,-1.3l1,-1.2c1.9,-2.1,3.2,-5.2,5.3,-7.3l1.1,-1.1l1.3,-1.1c3.5,-2.3,4.6,-2.7,7.2,-6.4l.1,-.1l1.4,-2l.7,-2.2l-.8,-2.1l-.7,-2.1c-4.7,-12.5,-6.5,-10.7,-14.7,-19.3l-.9,-1l-1,-1.2l-1.1,-1.4c-2.2,-2.5,-3.5,-5.7,-6.5,-7.5l-2.1,-1.5l-.3,-.3c-3.2,-2.4,-5.6,-4.8,-8.3,-7.9l-.5,-.6l-1.6,-2.2l-1.7,-2.1l-.2,-2.2l1.5,-2.1l.4,-.5l1.1,-1.6l1,-1.4l.7,-.8c1.7,-2.1,3.7,-4,5.8,-5.7l.8,-.7l1.3,-1l1.6,-1.1l.5,-.5l2.2,-1.6l.1,-.1l1.9,-2.1l.1,-.2l2.2,-2l2.1,-1.6l.7,-.5L378,205c2.4,-1.5,5.8,-2.7,8.5,-3.5l2.2,-1.2l1.2,-.8c4,-2.4,3.5,-4.4,3.5,-8.6v-2.1l.1,-2.2v-4.3l.1,-2.1l-.7,-.8l-1.2,-1.3l-.9,-.7l-2.1,-1.3l-.4,-.2l-1.8,-.8l-2.1,-.6l-3.2,-.7c-4,-1,-7.9,-2.3,-11.8,-3.5l-2.2,-.5l-1.6,-.3l-.5,-.1l-2.1,-.6c-3.1,-.7,-8,-2.1,-10.7,-3.6l-2.2,-1.8l-.3,-.3c-2.9,-2.4,-4.9,-3,-8.2,-4.6l-2.2,-.7l-2.1,-.8l-1.6,-.4l-.6,-.1l-2.1,-.4l-2.2,-.4l-2.1,-.4c-7.5,-1.8,-16.8,-4.2,-23.9,-7.2l-1.8,-.9l-1.9,-1.3c-9.3,-5,-18.3,-5.6,-28.1,-8.6l-2.1,-.8l-2.1,-.8l-1.8,-.5l-.4,-.1l-2.1,-.4C261.1,134,257,133.1,253.8,132l-2.2,-.7l-.7,-.3c-4.4,-2.3,-5.1,-2.7,-10,-4.2l-.3,-.1l-1.8,-.6l-2.2,-.5c-9.8,-2.7,-20.3,-4.1,-29.9,-6.9l-1.9,-.6l-.3,-.1l-2.1,-.7l-2.2,-1.1l-2.1,1c-3.9,2.5,-6.8,5.5,-9.1,9.5l-.9,2.1l1,2.2l.4,1.4l.2,.7l.7,2.1c1.9,6.4,2.7,12.9,4.4,19.3l.5,2.1l.6,2.2c1.6,6,2.6,13.6,5.3,19.3l.9,2.1l.3,.9l.4,1.2l.9,2.2c1.9,6.1,2.5,11.5,5.1,17.4l.7,1.9l.6,2.1c1.7,5.9,2.7,11.6,5.1,17.4l.9,1.9l1,2.1l.3,.4l1.3,1.7l.8,1.6l.3,.6c2.9,6.1,4.2,12.8,5.8,19.3l.3,1l.3,1.1c1.6,7,1.7,12.5,4.5,19.3l.9,2.1l.8,1.7l.2,.5l1.2,2.1c3.7,4.9,5.7,9,7.4,15l.7,2.1l.5,2.2l.7,2.1l.5,2.1l.6,2.2l1,3.9l.1,.4l.5,2.1l.5,2.2l.5,2.1l.5,1.2l.5,.9l1.3,2.2l.4,.5l2,1.6l.1,.1Z" class="ge_422"/>
<path d="M251.1,317.2l-1.6,-1.8l-.2,-.3l-.4,-2.2l-.4,-2.1c-1.1,-5.8,-2.8,-11.2,-3.8,-17.1l-.5,-2.2l-.5,-2.1c-1.7,-6,-3.4,-10.7,-8,-15l-1.2,-1l-1.8,-3.3l-.3,-.6c-2.7,-5.9,-2.2,-12.3,-3.7,-18.6l-.4,-2.2l-.2,-1.1c-1.1,-6.1,-2.3,-14.9,-5.4,-20.3l-1.1,-1.8l-.1,-.3L219.7,223l-.2,-.2l-1.9,-1.9l-.2,-.3c-3.3,-6.3,-3.3,-10.3,-5,-16.8l-.6,-2.2l-.7,-2.1c-1.9,-5.6,-2.1,-13.2,-4,-19.3l-.4,-1.6l-.2,-.5l-.7,-2.2l-.7,-2.1c-1.5,-5.4,-5.7,-9.4,-6.4,-15l-.6,-1.8l-.1,-.4c-2.3,-7.6,-3,-13.1,-4.2,-20.8l-.1,-.6l-.5,-2.1l-.5,-2.1l-.6,-2.2l1.2,-2.1c1.5,-1.9,2.9,-3.5,4.8,-5l2.1,-1.3l2.2,.7l2.1,.5l2.2,.5l1.6,.3c8.8,1.2,17.6,3,26.2,5.5l2.1,.7l.6,.2c7.2,6.4,16,7.8,25.1,9.3l2.2,.3l2.1,.3l2.2,.4l1.4,.4l.7,.2c2.8,.7,5.7,1.5,8.6,2l2.1,.4l2.1,.4c3.5,.6,6.8,2,10,3.4l.7,.8l1.4,1.4l.8,.6c7.9,6.2,18.5,6.2,27.8,8.6l2.2,.3l2.1,.4l2.1,.3l2.2,.3l1.6,.2l.5,.1l2.2,.6c2.8,.9,4.6,1.9,7.1,3.6l1.4,1.9l.2,.2c1.8,2,3.8,3.6,6.3,4.7l2.1,.9l2.1,.4l1.6,.4c9.9,1.4,16.8,3.6,26.3,5.7l2.1,.4l.6,.4l1.6,1.2l.8,.9l.1,2.1c.2,3.6,.2,7.2,.3,10.7l.2,2.2l-1.1,2.1c-2.5,2.6,-7.4,2.3,-11,4.3l-2.2,1l-2.1,1.2l-2.2,1.5l-.8,.6c-2.8,2.3,-5,3.2,-7.7,6.4l-2.2,2.2l-2.1,1.8c-2.4,2.1,-4.3,4.7,-6.4,7.1l-2,1.8l-.2,.2l-1.7,1.9l-.4,.5l-1.1,1.6l.2,2.2l.9,1.2l.8,.9c2.8,2.4,5.4,4.8,7.7,7.7l.9,.9l1.3,1.3c3.3,2.6,4.8,4,7.5,7.3l1,1l1.4,1.1l.8,.6l1.2,1.5c2.5,2.8,4.4,5.5,7.4,8l.6,.6l1.5,2.1l1.5,2.2l.6,.8l1.2,1.3l1,.9l1.6,1.3l.5,.3l1,1.8l1.2,2.2l.8,2.1l.8,2.1l-.8,2.2l-.8,1.1l-1,1l-1.2,1.2l-2.1,.8l-.3,.2l-1.9,1l-1.5,1.1l-.6,.5l-1.8,1.6c-1.5,1.8,-2.8,4.3,-3.7,6.5l-.9,1.3l-.6,.8l-1.6,1.8l-.4,.3c-2.3,2.5,-3.7,1.7,-6.9,4.3l-1.2,1.1l-1,1.1l-1.2,1.5l-.4,.6l-1.2,2.1l-.5,1.1l-.5,1.1l-1.7,1.5l-.7,.6l-1.4,.9l-2.1,.7l-2.2,-.8l-1.6,-.8l-.5,-.3c-5,-2.4,-3,-2.8,-6.7,-6.1l-1.9,-1.5l-.8,-.6c-4.7,-2.3,-6.2,-5.6,-10.6,-8.6l-1.4,-1.4l-.9,-.7l-1.3,-1.7l-.4,-.5c-2.4,-3,-5.6,-4.6,-8.1,-7.9l-.6,-.6l-1.6,-1.7c-2.2,-2.3,-4.9,-4.2,-6.6,-6.9l-1.9,-2l-.3,-.1L303,275.1h-2.1l-2.2,1.3l-.2,.2l-1.9,1.7c-2.6,3.4,-4,4,-6.8,6.8l-1.8,1.8l-.3,.4c-2.2,3.4,-5.7,5.4,-7.9,8.5l-.3,.6l-1,1.6l-1.2,1.3l-.6,.8c-3,3.7,-4.6,8.3,-5.8,12.8l-.5,2.2l-1.4,2.1l-.2,.4l-2.2,1l-2.1,-.1l-2.2,-.1l-2.1,-.2l-4.3,-.2l-2.1,-.1l-2.2,-.2l-.5,-.5Zm.5,2.5l2.2,.2H258l2.2,.1l2.1,.1h2.2l2.1,.1l1.9,-.8l.3,-.1l1.6,-2.1l.5,-.8c1.7,-3,2,-7.2,4.3,-10.7l.7,-1.3l1.4,-2.2l1.7,-2.1l.5,-.5c2.2,-2.1,4.2,-4.9,6.4,-7.2l.6,-.9l1.5,-1.8c2.7,-3.4,6,-6.1,9.4,-8.9l1.3,-1.3l.9,-.8l1.3,-1l2.1,.2l1,.8l1.2,1.2c2.1,2.5,5.5,4.8,7.8,7.4l.7,.7l1.4,1.4c2.6,3.2,5,5.6,7.8,8.6l1.5,1.2l1.1,.9l1.1,.9l1.5,1.2c2.4,2.1,4.8,4.3,7,6.6l2.2,1.7l.4,.3l1.7,1.4l.8,.7l1.4,1.5l.5,.7l1.6,1l2,1.1l.1,.1l2.2,1l2.1,1l.2,.1l2,.7l2.1,-.6l.1,-.1l2,-1.3c2.6,-2,3.3,-2.2,4.7,-5.2l1.5,-2.1l.3,-.3c2.4,-3,5.1,-4,7.8,-6.1l.7,-.6l1.5,-1.6l.7,-.7l1.1,-1.4c1.7,-2.1,2.5,-4.4,4.1,-6.4l1.2,-1.4l.8,-.8c3.2,-3,5.2,-2.4,7.8,-5.6l.6,-.8l1.5,-2.1l.8,-2.2l-.8,-2.1l-.8,-2.1l-.9,-2.2c-3.1,-7,-9.6,-11.4,-14.5,-17.1l-.9,-1.1l-.9,-1.1c-5.2,-7.9,-11.3,-10,-17.1,-17.1l-1.3,-1.6l-.4,-.5l-1.7,-2.2l-2.2,-1.9l-.2,-.2l-.1,-2.2l.3,-.4l1.5,-1.7l.7,-.6l1,-1.5l1.1,-1.3l.7,-.9c1.8,-2.3,3.8,-4.5,6.1,-6.4l1.8,-1.5l.9,-.6l1.2,-1.2c6.3,-5.8,12.7,-11.5,21.4,-13.1l1.4,-.7l.8,-.5l2.1,-1.7l.9,-2.1v-4.3l-.1,-2.1v-8.6l-.8,-.9l-1.3,-1.2l-.8,-.6l-2.2,-1.1l-2.1,-.5l-2.2,-.5l-2.1,-.5l-2.1,-.6l-2.2,-.5c-6.6,-2.3,-12.8,-2.7,-19.3,-4.7l-2.1,-.6l-2.1,-.9l-.5,-.3L350.1,166c-4.5,-4.9,-10.6,-7.6,-17.1,-8.7l-2.2,-.3l-2.1,-.4c-6.7,-1.5,-15.1,-3.1,-21.4,-5.2l-2.1,-.7l-1.1,-.5l-1.1,-.5l-2.1,-1.1l-.8,-.5l-1.4,-1c-3.3,-3,-12.6,-5.5,-17.1,-6.2l-2.1,-.5l-2.2,-.5c-7,-2.2,-14.2,-3.6,-21.4,-5.1l-2.1,-.6l-2.2,-.5l-1.7,-.6l-.4,-.2l-2.2,-1l-1.8,-.9l-.3,-.2l-2.1,-1.2l-1.1,-.8l-1.1,-.4l-2.1,-.7l-2.2,-.6l-1.2,-.4l-.9,-.3l-2.1,-.5l-2.2,-.6l-2.1,-.4c-7.3,-2,-14.3,-2.8,-21.4,-4.5l-.5,-.2l-1.7,-.4l-2.1,-.6l-2.2,-.8l-2.1,1c-2.7,2,-5.1,4.5,-7,7.3l-.9,2.1l.7,2.2l.6,2.1l.2,.7l.4,1.4c1.4,6.2,2,12.6,3.9,18.7l.1,.6l.5,2.1c2,6.1,2.4,12.3,5.8,17.6l.7,1.7l.8,2.2l.6,2.1l.8,2.1c2.1,6.7,2.2,13,5,19.3l.6,2.2l.6,2.1c1.7,6.7,2.5,11.9,5.9,18.2l.9,1.1l1.2,1.6l.4,.5l1.3,2.1l.4,1l.7,1.2c2,5.7,3.2,11.2,4.4,17.1l.4,2.2l.5,2.1c1.4,7.1,1.4,12.6,4.6,19.3l.2,.4l.9,1.7l1.1,2.2l.1,.1c4.7,4.4,7,10.9,8.5,17l.1,.4l.4,1.7c1.6,6.5,3.2,12.7,4.6,19.3l1,2.1l.4,.6l1.7,1.6l.4,.3Z" class="gf_422"/>
<path d="M351.4,317.2l-1.3,-.6L348,315.4l-.5,-.3c-1.5,-3.6,-4.3,-6.7,-7.8,-8.6l-.3,-.2l-2.1,-.9c-2.7,-1.3,-6.5,-5.4,-8.9,-7.4l-1.1,-2.2l-.7,-1.1l-.9,-1l-1.3,-1.4c-2.8,-2.6,-6,-3.6,-8.5,-7l-.2,-.2l-2,-1.8c-3.4,-2.8,-3.5,-6.3,-7.5,-8.9l-1,-.8L303,272.4l-2.1,-.1l-2.2,1.1l-1.8,1l-.3,.2c-3.5,2.4,-4.1,5.4,-6.4,7.5l-.9,.9l-1.3,1.3c-1.7,1.9,-3.4,3.9,-5.7,5.1l-.7,.5l-1.9,1.6l-.2,.3l-1.5,1.9c-1.5,2.1,-2,4.2,-3.7,6.4l-1.3,2.1l-.9,2.2c-1.1,3,-1.9,5.4,-2.5,8.5l-.5,2.2l-.3,.6l-2.2,1.2l-2.1,-.1l-2.2,-.2l-2.1,-.2l-2.2,-.2l-2.1,-.2l-2.1,-.2l-2.2,-.2l-.5,-.5l-.5,-2.2l-.6,-2.1l-.5,-1.7l-.1,-.4l-.5,-2.2l-.4,-2.1l-.5,-2.2l-.6,-2.1l-.1,-.4c-1.2,-7.1,-1.8,-14.4,-5,-21l-1.2,-2.1l-.2,-.4l-1.4,-1.8l-.7,-.8l-1.4,-1.3l-.8,-.7l-2.1,-1.3l-.1,-.2L233.3,268l-.9,-1.9l-.1,-.3l-.6,-2.1l-.2,-2.1l-.2,-2.2l-.3,-2.1l-.2,-2.2l-.3,-2.1c-1.2,-7.1,-1.7,-14.4,-3.5,-21.4l-.6,-2.2l-.5,-1.2l-.3,-.9l-1,-2.1l-.8,-1.5l-.4,-.7l-1.5,-2.1l-.3,-.3l-1.8,-1.9l-.3,-.2L217.4,217l-.2,-.4l-1,-2.1l-.6,-2.2l-.4,-1.7l-.1,-.4l-.4,-2.2l-.4,-2.1l-.5,-2.1c-2.4,-8.2,-2.5,-13.2,-3.8,-21.5l-.4,-2.1l-.5,-2.1l-.3,-1.5l-.2,-.7c-1.4,-6.1,-3.3,-12.7,-8.4,-16.8l-.1,-.3l-.6,-2.2c-2.5,-7.4,-3.2,-11.5,-3.9,-19.2l-.3,-2.2l-.3,-2.1l-.4,-2.1l-.5,-2.2l1.4,-2.1l.5,-.5l1.5,-1.7l.6,-.5l2.1,-1.5l2.2,.5l2.1,.3c3.6,.7,7.1,1,10.7,1.5l2.2,.2l2.1,.5c2.9,.6,5.7,1.4,8.6,2.1l2.1,.6l2.2,.6l2.1,2.2l2.8,2.1c6.3,4.3,14.1,5.5,21.5,6.4l1.4,.3l2.1,.2c7.4,.4,14.4,3,21.8,3.8l1.8,.5l2.1,.8l1.9,.8l.3,.4c3.7,5.5,10.6,8.7,17.1,9.6l2.1,.5l1.5,.2l.7,.2l2.1,.3l2.2,.3l2.1,.3l2.1,.3l2.2,.4l2.1,.4c3.6,.4,7.2,.9,10.7,1.2l2.2,.6l.7,.3l1.4,.9l2.2,1.3l1.1,2.1l1,1.3c6,7.4,14.9,7.1,23.5,8.5l2.2,.2l2.1,.5l.7,.2c3.1,.7,6.1,1.5,9.2,2.2l3,.8l2.1,.6l.9,.7l.1,2.1l.2,2.2l.2,2.1v2.2l.2,2.1l.1,2.1l.1,2.2l-1.2,2.1l-.6,.4l-2.1,.5c-3.2,.6,-5.6,1.3,-8.6,2.5l-2.1,.9l-2.2,1.3c-2.2,1.6,-4.2,2.2,-6.4,3.6l-1.9,1.5l-.2,.3l-1.7,1.9l-.5,.6c-1.1,2.1,-3.4,4.1,-5.1,5.8l-1.3,1.4l-.7,.7c-2,2.5,-4.6,3,-7.2,6.5l-.7,1l-.6,1.1l-1.2,2.1l.2,2.2l1.2,2.1l.4,.6l1.5,1.6c2.8,3,4.4,2.4,7.1,5.7l.6,.7l1.5,1.5c3,2.7,4,3.5,6,7.1l.5,.5l1.4,1.6l.7,.7l1.8,1.4c3.5,1.5,4.2,3.7,6.8,6.2l.3,.3l1.8,1.9c1.9,2.1,2.6,4.8,4.3,6.9l1.6,1.9l.5,.4l2.2,1.7l2.1,1.2l.5,1l1.1,2.1l.6,1.2l.4,.9l-.4,1l-.6,1.2l-1.6,1.7l-1.4,.4l-.7,.2l-2.2,.9c-3.4,1.4,-6.2,4,-7.7,7.5l-.8,2.1L373,298l-1.5,2l-.1,.1l-2,1.8l-1.1,.3l-1.1,.4l-2.1,.9l-1.4,.9l-.7,.5l-2,1.6l-.2,.2c-2.2,2,-3.5,5.7,-4.4,8.4l-2,1.7l-1.1,.4l-1,.4l-.9,-.4Zm-99.8,.5l2.2,.2l2.1,.1l4.3,.2l2.1,.2l2.2,.1l2.1,.1l2.2,-1l.2,-.4l1.4,-2.1l.5,-2.2c1.2,-4.5,2.8,-9.1,5.8,-12.8l.6,-.8l1.2,-1.3l1,-1.6l.3,-.6c2.2,-3.1,5.7,-5.1,7.9,-8.5l.3,-.4l1.8,-1.8c2.8,-2.8,4.2,-3.4,6.8,-6.8l1.9,-1.7l.2,-.2l2.2,-1.3H303l1.9,1.5l.3,.1l1.9,2c1.6,2.5,4,4.4,6.2,6.4l.4,.5l1.6,1.7c2.3,2.6,4.2,4.4,7,6.6l1.7,1.9l.4,.5l1.3,1.7l.9,.7c3.7,2.9,6.8,6.6,10.7,9.2l1.3,.8l.8,.6l1.9,1.5l.3,.2l1.7,1.9l.4,.5l1.1,1.7l1,.6l2.2,1.2l.5,.3l1.6,.8l2.2,.8l2.1,-.7l1.4,-.9l.7,-.6l1.7,-1.5l.5,-1.1l.5,-1.1l1.2,-2.1l.4,-.6l1.2,-1.5l1,-1.1c1.8,-1.7,4,-3,6.4,-3.9l1.7,-1.5l.4,-.3l1.6,-1.8l.6,-.8c1.7,-2.1,2.1,-4.9,4.3,-7.4l.3,-.4l1.8,-1.6l.6,-.5l1.5,-1.1l1.9,-1l.3,-.2l2.1,-.8l1.2,-1.2l1,-1l.8,-1.1l.8,-2.2l-.8,-2.1l-.8,-2.1l-1.2,-2.2l-1,-1.8l-.5,-.3L384.4,271l-1,-.9l-1.2,-1.3l-.6,-.8l-1.5,-2.2l-1.5,-2.1l-.6,-.6c-3,-2.5,-4.9,-5.2,-7.4,-8l-1.2,-1.5l-.8,-.6l-1.4,-1.1l-1,-1c-2.7,-3.3,-4.2,-4.7,-7.5,-7.3l-1.3,-1.3l-.9,-.9c-2.3,-2.9,-4.9,-5.3,-7.7,-7.7l-.8,-.9l-.9,-1.2l-.2,-2.2l1.1,-1.6l.4,-.5l1.7,-1.9l.2,-.2l2,-1.8c2,-2.3,3.8,-4.7,6.1,-6.8l.3,-.3l2.1,-1.8c2.9,-2.8,5,-5.5,8.6,-7.5l1.3,-1.1l.8,-.6l2.2,-1.5l2.1,-1.2c3.5,-1.7,7,-2.8,10.7,-3.6l2.2,-1.4l.3,-.3l1,-2.1l-.1,-2.2v-2.1l-.1,-2.1v-2.2l-.1,-2.1l-.1,-2.2l-.1,-2.1l-.8,-.9l-1.6,-1.2l-.6,-.4C376.6,175.8,369,173,358.7,171.8l-.6,-.2l-1.6,-.4l-2.1,-.4c-2.5,-.8,-4.5,-1.9,-6.4,-3.6l-2,-2l-.2,-.2l-1.4,-1.9l-.7,-.5l-2.1,-1.2l-.8,-.5l-1.4,-.6l-2.1,-.8l-2.2,-.6l-.5,-.1l-1.6,-.2l-2.2,-.3l-2.1,-.3l-2.1,-.4l-2.2,-.3c-8.6,-2.2,-17.9,-2.4,-25.7,-7.1l-2.1,-1.5l-.8,-.6l-1.4,-1.4l-.7,-.8l-1.4,-.6l-2.1,-.9l-1.6,-.6l-.6,-.2l-2.1,-.6l-2.2,-.5c-3.7,-.6,-7,-1.3,-10.7,-2.2l-2.1,-.6l-.7,-.2l-1.4,-.4l-2.2,-.4l-2.1,-.3C255.6,137,246,135.8,238.8,130l-1.6,-1.2l-.6,-.2c-9.2,-3,-18.7,-4.9,-28.3,-6.2l-1.6,-.3l-2.2,-.5l-2.1,-.5l-2.2,-.7l-2.1,1.3c-1.9,1.5,-3.3,3.1,-4.8,5l-1.2,2.1l.6,2.2l.5,2.1l.5,2.1l.1,.6c1.1,6.8,1.6,12,3.6,18.7l.6,2.1l.1,.4l.6,1.8l.6,2.1l.6,2.2l.3,1l.7,1.1l1.3,2.1l1.2,2.2l.9,2.1l.2,.6l.6,1.6l.7,2.1l.7,2.2l.2,.5l.4,1.6c1.8,5.9,2.1,13.2,3.8,18.7l.2,.6l.7,2.1c2.1,7,2.1,12.4,5.6,19l.2,.3l1.9,1.9l.2,.2l1.8,2.2l.1,.3l1.1,1.8c2.9,5,4.2,13.6,5.2,19.3l.2,1l.2,1.1c1.7,6.9,1.3,14.6,4.1,20.8l.3,.6l1.8,3.3l1.2,1c4.6,4.3,6.3,9,8,15l.5,2.1l.5,2.2c1.1,6.5,3,12.7,4.2,19.2l.4,2.2l.2,.3l1.6,1.8l.5,.5Z" class="gg_422"/>
<path d="M350.3,315.1l-.2,-.5l-.6,-1.7l-1,-2.1L348,310c-1.7,-3.1,-3.5,-4,-6.4,-5.6l-2.2,-.9l-2.1,-.6l-1.3,-.7l-.9,-.4l-1.8,-1.7l-.3,-.3L331.2,298l-.4,-1.1l-.3,-1.1l-1.1,-2.1l-.7,-1.1l-.8,-1.1c-2.7,-3.7,-6.5,-4.2,-9.9,-6.4L316,283l-.1,-.2c-2.6,-2.1,-2.4,-5.4,-5.1,-8.4l-1.4,-1.3l-1,-.8l-1.1,-.7l-2.1,-1.1l-.9,-.4l-1.3,-.5h-2.1l-1.6,.5l-.6,.2l-2.1,.9l-1.8,1.1l-.4,.2l-2.1,1.6l-.3,.3c-2.7,2.7,-2.7,6.2,-5.4,8.6l-.7,.8l-1.9,1.3l-.3,.2l-2.1,1c-3.4,1.6,-5.5,4,-7.1,7.4l-.8,2.1L273,298c-1.9,3.7,-3,6.5,-4,10.7l-.2,1.3l-.5,.8l-1,2.1l-.7,1.7l-2.1,-.6l-2.2,-1.1l-2.1,-.5L258,311.3l-4.2,-1l-2.2,-.8l-.2,-.8l-.7,-2.2l-.6,-2.1c-3.8,-10.9,-.6,-30.3,-13.5,-36.4l-2.1,-1l-.6,-1.2l-.8,-2.1c-.6,-6.4,-1.5,-12.8,-2.1,-19.3l-.2,-2.1l-.2,-2.2C230,234.8,229.1,227.9,227,223l-1.1,-2.1l-1.2,-2.2l-.9,-1l-1.3,-1.1l-.9,-.6l-2.1,-1.5L217.4,213l-.2,-.7l-.4,-2.1l-.5,-2.2l-.4,-2.1l-.6,-2.1l-.1,-.5l-.4,-1.7l-.4,-2.1l-.6,-2.2l-.3,-2.1c-.4,-6.7,-1,-12.7,-2,-19.3l-.4,-2.1l-.2,-1.1l-.2,-1.1l-.4,-2.1c-1.4,-5.2,-2.4,-9.3,-6.6,-12.9l-1.3,-1l-1.6,-1.1l-.6,-.3l-.5,-1.8l-.7,-2.2l-.6,-2.1l-.3,-.9l-.3,-1.3l-.2,-2.1l-.2,-2.1l-.1,-2.2l-.2,-2.1l-.2,-2.2l-.2,-2.1l-.3,-2.1l-.3,-2.2l1.6,-2.1l.4,-.5l2.1,-1.7l2.2,.4l2.1,.2l2.2,.2l2.1,.3c7.6,.3,10,.8,17.1,2.9l1.1,.3l1.1,1.6c3.3,4,7.8,6.8,12.8,8.3l2.2,.6l1,.2l1.1,.2l2.1,.5c7.1,1.3,14.4,1.4,21.5,2.2l2.1,.5l2.1,.4l2.2,.4l.5,.1l1.6,.3l2.2,.4l2.1,.4l2.1,.3l2.2,.6l.5,.1l.9,2.2l.7,1.3l.6,.8l1.6,1.5l.7,.7l1.4,1.2l1.6,.9l.5,.3c5.3,2.7,11.4,3.2,17.2,4l2.1,.2l2.2,.2c6.4,.8,12.8,1.5,19.2,2.1l2.2,.9l1.5,.9l.6,1.7c5,14.2,24.9,9.5,36.4,13.5l2.2,.8l2.1,.6l1.7,.5l.4,2.1c.9,4.5,2.1,6.9,3.2,10.7l.6,2.2l-3.8,1.7l-.8,.4l-1.3,.3c-3.3,.8,-5.5,1.5,-8.6,2.9l-2.1,1.1l-2.2,.6c-3.4,1.3,-6.3,3,-8.5,6.2l-1.2,1.8l-1,2.1l-1.4,2.2l-.7,.7c-2.2,2.4,-3.9,2.3,-6.4,4.1l-2.2,1.6l-1.6,2.1l-.5,.9l-.7,1.3l-1.1,2.1l-.3,1.1l-.4,1l.2,2.2l.2,.5l.6,1.6l1.2,2.2l.3,.4l1.2,1.7l.9,.9l1.7,1.2l.5,.3l2.1,1.1l2.2,.8l2.1,2l.2,.1l1.9,1.9c2.3,1.9,2.3,5.3,4.3,7.4l1.2,1.4l1,1l1.7,1.2l.4,.2l2.1,1.1l2.2,.8l2.1,2.2l2,2.1l.2,.3l1,1.8l.7,2.2l.4,1.1c1.6,4,2.9,5,6.4,7.5l2.2,1.1l2.1,.8l.1,.2l1.1,2.1l-1.1,2.2l-.1,.1c-9.1,1.5,-13.1,4.5,-15,13.8l-.2,1.1l-1.9,2c-9.6,2.2,-12.8,5.2,-14.8,15.1l-.2,.2l-2.1,.9l-2,-1.1Zm2,2.5l1,-.4l1.1,-.4l2,-1.7l.1,-.4c.9,-2.6,2.2,-6,4.3,-8l.2,-.2l2,-1.6l.7,-.5l1.4,-.9l2.1,-.9l1.1,-.4l1.1,-.3l2,-1.8l.1,-.1l1.5,-2l.7,-2.2l.8,-2.1c1.5,-3.5,4.3,-6.1,7.7,-7.5l2.2,-.9l.7,-.2l1.4,-.4l1.6,-1.7l.6,-1.2l.4,-1l-.4,-.9l-.6,-1.2L387,276.6l-.5,-1l-2.1,-1.2l-2.2,-1.7l-.5,-.4l-1.6,-1.9c-1.7,-2.1,-2.4,-4.8,-4.3,-6.8l-1.8,-2l-.3,-.3c-2.6,-2.5,-3.3,-4.7,-6.8,-6.2l-1.8,-1.4l-.7,-.7L363,251.4l-.5,-.5c-2,-3.6,-3,-4.4,-6,-7.1L355,242.3l-.6,-.7c-2.7,-3.3,-4.3,-2.7,-7.1,-5.7l-1.5,-1.6l-.4,-.6l-1.2,-2.1l-.2,-2.2l1.2,-2.1l.6,-1.1l.7,-1c1.7,-2,3.4,-3.8,5.8,-4.9l1.4,-1.6l.7,-.7c1.8,-2.1,3.7,-3.5,5.4,-5.7l1,-1.5l.5,-.6l1.7,-1.9l.2,-.3l1.9,-1.5l1.1,-.6l1,-.6l2.2,-1l.7,-.5l1.4,-.9l2.2,-1.3c3.4,-1.6,7,-2.7,10.7,-3.4l2.1,-.5l.6,-.4l1.2,-2.1l-.1,-2.2l-.1,-2.1l-.2,-2.1v-2.2l-.2,-2.1l-.2,-2.2l-.1,-2.1l-.9,-.7l-2.1,-.6l-2.2,-.6c-2.8,-.7,-5.7,-1.4,-8.5,-2l-1.5,-.4l-.7,-.2l-2.1,-.5c-9,-1.4,-19.5,-1,-25.7,-8.7l-1,-1.3l-1.1,-2.1l-2.2,-1.3l-1.4,-.9l-.7,-.3l-2.2,-.6l-2.1,-.2l-2.2,-.2l-2.1,-.3l-2.1,-.2l-2.2,-.3l-2.1,-.4l-2.2,-.4l-2.1,-.3l-2.1,-.3l-2.2,-.3l-2.1,-.3l-.7,-.2l-1.5,-.2C302,155.1,297,153.6,291.5,148.1l-1.3,-1.8l-.3,-.4l-1.9,-.8l-2.1,-.8c-7.2,-1.3,-14.3,-3.1,-21.4,-4.1l-2.2,-.2l-2.1,-.2c-7.9,-1.2,-16.2,-2,-22.9,-6.7L234.5,131l-2.1,-2.2l-2.2,-.6l-2.1,-.6c-2.9,-.7,-5.7,-1.5,-8.6,-2.1l-2.1,-.5l-2.2,-.2c-3.6,-.5,-7.1,-.8,-10.7,-1.5l-2.1,-.3l-2.2,-.5l-2.1,1.5l-.6,.5l-1.5,1.7l-.5,.5l-1.4,2.1l.5,2.2l.4,2.1l.3,2.1l.3,2.2c.7,7.7,1.4,11.8,3.9,19.2l.6,2.2l.1,.3c5.1,4.1,7,10.7,8.4,16.8l.2,.7l.3,1.5l.5,2.1l.4,2.1c1.3,8.3,1.4,13.3,3.8,21.5l.5,2.1l.4,2.1l.4,2.2l.1,.4l.4,1.7l.6,2.2l1,2.1l.2,.4l2.1,1.5l.3,.2l1.8,1.9l.3,.3l1.5,2.1l.4,.7l.8,1.5l1,2.1l.3,.9l.5,1.2l.6,2.2c1.8,7,2.3,14.3,3.5,21.4l.3,2.1l.2,2.2l.3,2.1l.2,2.2l.2,2.1l.6,2.1l.1,.3l.9,1.9l1.1,2.1l.1,.2l2.1,1.3l.8,.7l1.4,1.3l.7,.8l1.4,1.8l.2,.4l1.2,2.1c3.2,6.6,3.8,13.9,5,21l.1,.4l.6,2.1l.5,2.2l.4,2.1l.5,2.2l.1,.4l.5,1.7l.6,2.1l.5,2.2l.5,.5l2.2,.2l2.1,.2l2.1,.2l2.2,.2l2.1,.2l2.2,.2l2.1,.1l2.2,-1.2l.3,-.6l.5,-2.2c.6,-3.1,1.4,-5.5,2.5,-8.5l.9,-2.2l1.3,-2.1c1.7,-2.2,2.2,-4.3,3.7,-6.4l1.5,-1.9l.2,-.3l1.9,-1.6l.7,-.5c2.3,-1.2,4,-3.2,5.7,-5.1l1.3,-1.3l.9,-.9c2.3,-2.1,2.9,-5.1,6.4,-7.5l.3,-.2l1.8,-1l2.2,-1.1l2.1,.1l2.2,1.2l1,.8c4.3,3,3.9,5.8,7.2,8.6l.3,.3l2,1.8c2.2,3.2,5.9,4.7,8.7,7.2l1.3,1.4l.9,1l.7,1.1l1.1,2.2c2.4,2,6.2,6.1,8.9,7.4l2.1,.9l.3,.2l1.9,1.2l1.3,1l.8,.8l1.2,1.3l.9,1.2l.6,.9l1.1,2.2l.5,.3l2.1,1.2l1.3,.6l.9,.4Z" class="gh_422"/>
<path d="M352,310.8l-.5,-2.1l-1.1,-2.2l-.3,-.5l-1.3,-1.6l-.8,-.7l-2.2,-1.1l-.5,-.4l-1.6,-.7l-2.1,-.5l-2.2,-.4l-2.1,-.3l-.5,-.2l-1.7,-.8L333.9,298l-.3,-2.2l-.6,-2.1l-.5,-2.2l-1.3,-2.1l-.4,-.5l-1.2,-1.6l-.9,-.8l-2.1,-1.4l-2.2,-.7l-2.1,-.5l-2.2,-.4l-1,-.5l-1.1,-.7l-1.2,-1.5c-.8,-4.2,-.5,-5.4,-3.1,-9.1l-1.6,-1.6l-.5,-.3l-2.2,-1.3L308,268l-.7,-.3c-8.5,-2.3,-20.3,.5,-21.4,11l-.7,2.1l-1.5,1.1c-14.3,3.3,-10.8,9.2,-14.8,20.3l-.1,.5l-1.3,1.7l-.9,1.6l-2.1,-.5c-3.6,-.9,-7.2,-1.8,-10.7,-2.7l-2.2,-.6l-.7,-2.1l-.6,-2.1c-.3,-4.9,-1,-10.1,-1.5,-15l-.3,-2.2l-.3,-2.1c-.9,-5,-2,-10.6,-7.3,-12.9l-2.1,-1.4l-2.2,-.7l-1,-2.1l-1.1,-1.1c-1,-9.1,-1.9,-17.7,-2.5,-26.8l-.3,-2.1l-.2,-2.2c-.9,-11.9,-3.1,-13.1,-9.9,-22.1l-2.1,-1.4l-2.1,-1.1l-.3,-1l-.4,-2.2c-2.5,-8.1,-1.4,-19,-2.5,-27.8l-.3,-2.2l-.2,-2.1C213,162,211.5,153.2,203.4,150.2l-1,-.3l-2.2,-.6l-.3,-1.2c-1.6,-4.3,-.8,-12.2,-1.7,-17.1l-.1,-2.2l2.1,-2.1l2.2,.1c5.1,.6,12.6,.1,17.1,1.5l2.1,.5l.5,2.2l1.2,2.1l.5,1.1c4.7,8.5,23.5,8.7,32.1,9.3H258l4.3,.3c5.5,-.3,9.7,1.4,15,2l.7,.1l1.5,2.2l2.1,2.1l2.1,1.4l.6,.8l1.6,1.6l.4,.5l1.7,1.7l.7,.4l1.5,.8l2.1,.8l2.1,.6l2.2,.5l2.1,.3l2.2,.3l2.1,.2c5,.5,10,.8,15,1.1l2.1,.3l2.2,.3l2.1,.3l2.2,.1l2.1,.3l2.1,.1l2.2,.2l2.1,.2l.3,.1l.6,2.1l.9,2.1l.4,1.1l.3,1.1l1.1,2.1c2.6,3.6,5.3,4,9.3,5.1l2.1,.3l2.2,.3c5,.4,9.9,.8,14.9,1.3l2.2,.1l2.1,.6l2.2,.7l.5,.2l.5,2.1c1.7,5.1,.5,5.6,2.2,10.7l.5,2.2l-1.6,.9l-1.7,1.2l-.4,.2c-5.7,2.7,-13.2,1.3,-17.2,6.7l-1.2,1.7l-.9,2.1l-.9,2.2l-.4,2.1l-.8,1.1l-2.2,.6l-.7,.5L348,215l-2.2,.7l-1.6,.9l-.5,.4l-1.7,1.7l-.4,.6l-1,1.6l-.9,2.1l-.3,1.1l-.2,1.1c-2.1,7.7,.5,17.5,9.5,19.2l1.4,.4l2.2,.3l1.7,1.5l.4,.6l.9,1.5l.4,2.2l.6,2.1l.2,.7l.7,1.4l1.1,2.2l.4,.5l2.1,1.6l2.2,1.2l2.1,.7l.7,.3l1.4,.4l2.2,.3l1.5,1.4c3.2,7.8,1,13.9,11.3,16.9l1.1,.2l-1.1,.3l-2.1,.6c-8.1,3.2,-9,5.6,-10.6,14.1l-.1,.7L368,298l-.8,.1l-2.1,.4L363,299l-2.2,.8l-.5,.3l-1.6,.8l-1.8,1.3l-.4,.4l-1.3,1.8l-.8,2.1l-1.2,2.2l-.7,2.1l-.2,1.1l-.3,-1.1Zm.3,5.4l2.1,-.9l.2,-.2c2,-9.9,5.2,-12.9,14.8,-15.1l1.9,-2l.2,-1.1c1.9,-9.3,5.9,-12.3,15,-13.8l.1,-.1l1.1,-2.2l-1.1,-2.1l-.1,-.2l-2.1,-.8l-2.2,-1.1c-2.4,-1.7,-4.9,-3.6,-5.9,-6.5l-.5,-1l-.4,-1.1l-.7,-2.2l-1,-1.8l-.2,-.3l-2,-2.1l-2.1,-2.2l-2.2,-.8l-2.1,-1.1l-.4,-.2L363,256.1l-1,-1c-1.8,-1.9,-2.9,-3.9,-3.7,-6.4l-1.4,-2.1l-.4,-.3l-1.9,-1.9l-.2,-.1l-2.1,-2l-2.2,-.8L348,240.4l-.5,-.3l-1.7,-1.2l-.9,-.9l-1.2,-1.7l-.3,-.4l-1.2,-2.2l-.6,-1.6c-1.2,-2.4,.4,-4.8,1.4,-6.9l.7,-1.3l.5,-.9l1.6,-2.1l2.2,-1.6l.8,-.6l1.3,-.7l2.2,-1l.4,-.4l1.7,-1.4l.7,-.7l1.4,-2.2l1,-2.1c2.1,-3.4,3.9,-5.3,7.6,-7.1l2.1,-.9l2.2,-.6c3.8,-2,6.5,-3,10.7,-4l1.3,-.3l.8,-.4l3.8,-1.7l-.6,-2.2c-1.1,-3.8,-2.3,-6.2,-3.2,-10.7l-.4,-2.1l-1.7,-.5l-2.1,-.6l-2.2,-.8c-11.2,-4,-31.1,.6,-36.2,-13.1l-.2,-.4l-.6,-1.7l-1.5,-.9l-2.2,-.9l-2.1,-.2l-1.4,-.2l-.8,-.1l-2.1,-.1l-2.1,-.2l-2.2,-.2l-2.1,-.3l-2.2,-.3l-2.1,-.3l-2.1,-.2l-2.2,-.2c-6.4,-.8,-13.4,-1.2,-19.3,-4.2l-.5,-.3l-1.6,-.9l-1.4,-1.2l-.7,-.7l-1.6,-1.5l-.6,-.8l-.7,-1.3l-.9,-2.2l-.5,-.1l-2.2,-.6l-2.1,-.3l-2.1,-.4l-2.2,-.4l-1.6,-.3l-.5,-.1l-2.2,-.4l-2.1,-.4c-6.5,-1.4,-14.5,-1.1,-21.4,-2.3l-2.2,-.4l-2.1,-.5l-1.1,-.2l-1,-.2C237,137.7,232.7,135.6,228.5,131l-.4,-.6L227,128.8c-7.7,-2.2,-10,-2.9,-18.2,-3.2l-2.1,-.3l-2.2,-.2l-2.1,-.2l-2.2,-.4l-2.1,1.7l-.4,.5l-1.6,2.1l.3,2.2l.3,2.1l.2,2.1l.2,2.2c.5,8.1,.6,9.1,3.1,16.8l.6,.3l1.6,1.1c4.9,4,5.4,5.9,7.4,11.7l.5,2.2l.4,2.1l.2,1.1l.2,1.1c1,6.4,2,12.8,2.2,19.2l.2,2.2l.3,2.1l.6,2.2l.4,2.1l.4,1.7l.1,.5l.6,2.1l.4,2.1l.5,2.2l.4,2.1l.2,.7l2.1,1.5l2.1,1.5l.9,.6l1.3,1.1l.9,1l1.2,2.2L227,223c1.9,4.2,2.8,10.4,3.3,15l.3,2.1l.2,2.2c.5,6.4,1.4,12.9,2.1,19.3l.2,2.1l.8,2.1l.6,1.2c15.4,5.6,11.4,25,15.6,37.4l.6,2.1l.7,2.2l.2,.8l2.2,.8l4.2,1l2.2,1.1l2.1,.5l2.2,1.1l2.1,.6l.7,-1.7l1,-2.1l.5,-.8l.2,-1.3c1,-4.2,2.1,-7,4,-10.7l.7,-2.2l.8,-2.1c1.6,-3.4,3.7,-5.8,7.1,-7.4l2.1,-1l.3,-.2l1.9,-1.3l.7,-.8c2.7,-2.3,2.7,-5.9,5.4,-8.6l.3,-.3l2.1,-1.6l.4,-.2l1.8,-1.1l2.1,-.9l.6,-.2l1.6,-.5H303l1.3,.5l.9,.4l2.1,1.1l1.1,.7l1,.8l1.4,1.3c2.7,3.1,2.5,6.3,5.1,8.4l.1,.2l2,2.1c3.4,2.2,7.2,2.7,9.9,6.4l.8,1.1l.7,1.1l1.1,2.1l.3,1.1l.4,1.1l1.8,1.8l.3,.3l1.8,1.7l.9,.4l1.3,.7l2.1,.6l2.2,.9c3.5,1.9,5,2.8,6.9,6.4l1,2.1l.6,1.7l.2,.5l2,1.1Z" class="g0_422"/>
<path d="M157.4,357.9v2.7" class="gi_422"/>
<path d="M157.4,363.4c.6,0,1.1,.2,1.4,.7c.4,.5,.5,1.2,.5,2.2c0,.9,-.1,1.6,-.5,2.1c-.3,.5,-.8,.7,-1.4,.7c-.6,0,-1.1,-.2,-1.4,-.7c-.3,-.5,-.5,-1.2,-.5,-2.1c0,-1,.2,-1.7,.5,-2.2c.3,-.5,.8,-.7,1.4,-.7Zm0,.6c-.4,0,-.7,.2,-.9,.5c-.2,.4,-.3,1,-.3,1.8c0,.7,.1,1.3,.3,1.7c.2,.4,.5,.5,.9,.5c.4,0,.7,-.1,.9,-.5c.2,-.4,.3,-1,.3,-1.7c0,-.8,-.1,-1.4,-.3,-1.8c-.2,-.3,-.5,-.5,-.9,-.5Z" class="gj_422"/>
<path d="M191.4,357.9v2.7" class="gi_422"/>
<path d="M190.4,368.4h2.7v.6h-3.6v-.6c.3,-.3,.7,-.7,1.2,-1.2c.5,-.5,.8,-.8,.9,-.9c.3,-.3,.4,-.5,.5,-.7c.1,-.2,.2,-.4,.2,-.6c0,-.3,-.1,-.5,-.3,-.7c-.2,-.2,-.5,-.3,-.8,-.3c-.3,0,-.5,.1,-.8,.1c-.2,.1,-.5,.2,-.8,.4v-.8c.3,-.1,.6,-.2,.8,-.2c.3,-.1,.5,-.1,.7,-.1c.6,0,1.1,.1,1.4,.4c.4,.3,.5,.7,.5,1.2c0,.2,0,.4,-.1,.6c-.1,.2,-.2,.5,-.5,.7c0,.1,-.2,.3,-.6,.7c-.3,.3,-.8,.8,-1.4,1.4Z" class="gj_422"/>
<path d="M225.4,357.9v2.7" class="gi_422"/>
<path d="M225.7,363.5h.9v3.6h.8v.6h-.8V369h-.8v-1.3h-2.5V367l2.4,-3.5Zm.1,.6l-1.8,3h1.8v-3Z" class="gj_422"/>
<path d="M259.4,357.9v2.7" class="gi_422"/>
<path d="M261,363.6v.7c-.2,-.1,-.4,-.2,-.6,-.2c-.2,-.1,-.4,-.1,-.6,-.1c-.5,0,-.9,.2,-1.1,.5c-.3,.4,-.4,.9,-.5,1.5c.2,-.2,.4,-.3,.6,-.5c.2,-.1,.5,-.1,.7,-.1c.6,0,1,.1,1.3,.5c.4,.3,.5,.8,.5,1.4c0,.5,-.1,1,-.5,1.3c-.3,.4,-.8,.5,-1.3,.5c-.7,0,-1.2,-.2,-1.5,-.7c-.3,-.5,-.5,-1.2,-.5,-2.1c0,-.9,.2,-1.6,.6,-2.1c.4,-.6,1,-.8,1.7,-.8c.2,0,.4,0,.6,0c.2,.1,.4,.1,.6,.2Zm-1.5,2.4c-.4,0,-.6,.1,-.8,.3c-.2,.2,-.3,.5,-.3,1c0,.4,.1,.7,.3,.9c.2,.2,.4,.3,.8,.3c.3,0,.6,-.1,.8,-.3c.2,-.2,.3,-.5,.3,-.9c0,-.5,-.1,-.8,-.3,-1c-.2,-.2,-.5,-.3,-.8,-.3Z" class="gj_422"/>
<path d="M293.4,357.9v2.7" class="gi_422"/>
<path d="M292.3,364.9c0,.3,.1,.5,.3,.7c.2,.1,.4,.2,.8,.2c.3,0,.5,-.1,.7,-.2c.2,-.2,.3,-.4,.3,-.7c0,-.3,-.1,-.5,-.3,-.7c-.2,-.1,-.4,-.2,-.7,-.2c-.4,0,-.6,.1,-.8,.2c-.2,.2,-.3,.4,-.3,.7Zm.3,1.2c-.3,-.1,-.5,-.3,-.7,-.5c-.2,-.2,-.3,-.5,-.3,-.8c0,-.4,.2,-.8,.5,-1c.3,-.3,.7,-.4,1.3,-.4c.5,0,1,.1,1.3,.4c.3,.2,.4,.6,.4,1c0,.3,0,.6,-.2,.8c-.2,.2,-.5,.4,-.8,.5c.4,.1,.7,.2,.9,.5c.2,.2,.3,.5,.3,.9c0,.5,-.2,.9,-.5,1.2c-.3,.3,-.8,.4,-1.4,.4c-.6,0,-1.1,-.1,-1.4,-.4c-.4,-.3,-.5,-.7,-.5,-1.2c0,-.4,.1,-.7,.3,-.9c.2,-.3,.5,-.4,.8,-.5Zm.8,.3c-.4,0,-.7,.1,-.9,.3c-.2,.2,-.3,.4,-.3,.8c0,.3,.1,.6,.3,.8c.2,.1,.5,.2,.9,.2c.3,0,.6,-.1,.8,-.2c.2,-.2,.3,-.5,.3,-.8c0,-.4,-.1,-.6,-.3,-.8c-.2,-.2,-.5,-.3,-.8,-.3Z" class="gj_422"/>
<path d="M327.4,357.9v2.7" class="gi_422"/>
<path d="M323.5,368.4h1.2v-4.2l-1.3,.2v-.7l1.3,-.2h.7v4.9h1.3v.6h-3.2v-.6Z" class="gj_422"/>
<path d="M329.8,363.4c.6,0,1.1,.2,1.4,.7c.3,.5,.5,1.2,.5,2.2c0,.9,-.2,1.6,-.5,2.1c-.3,.5,-.8,.7,-1.4,.7c-.6,0,-1.1,-.2,-1.4,-.7c-.4,-.5,-.5,-1.2,-.5,-2.1c0,-1,.1,-1.7,.5,-2.2c.3,-.5,.8,-.7,1.4,-.7Zm0,.6c-.4,0,-.7,.2,-.9,.5c-.2,.4,-.3,1,-.3,1.8c0,.7,.1,1.3,.3,1.7c.2,.4,.5,.5,.9,.5c.4,0,.7,-.1,.9,-.5c.2,-.4,.3,-1,.3,-1.7c0,-.8,-.1,-1.4,-.3,-1.8c-.2,-.3,-.5,-.5,-.9,-.5Z" class="gj_422"/>
<path d="M361.4,357.9v2.7" class="gi_422"/>
<path d="M357.5,368.4h1.2v-4.2l-1.4,.2v-.7l1.4,-.2h.7v4.9h1.3v.6h-3.2v-.6Z" class="gj_422"/>
<path d="M362.8,368.4h2.6v.6h-3.5v-.6c.3,-.3,.7,-.7,1.2,-1.2c.5,-.5,.8,-.8,.9,-.9c.2,-.3,.4,-.5,.5,-.7c.1,-.2,.2,-.4,.2,-.6c0,-.3,-.1,-.5,-.4,-.7c-.2,-.2,-.4,-.3,-.8,-.3c-.2,0,-.4,.1,-.7,.1c-.3,.1,-.6,.2,-.8,.4v-.8c.3,-.1,.5,-.2,.8,-.2c.3,-.1,.5,-.1,.7,-.1c.6,0,1.1,.1,1.4,.4c.3,.3,.5,.7,.5,1.2c0,.2,0,.4,-.1,.6c-.1,.2,-.3,.5,-.5,.7c0,.1,-.2,.3,-.6,.7c-.3,.3,-.8,.8,-1.4,1.4Z" class="gj_422"/>
<path d="M395.3,357.9v2.7" class="gi_422"/>
<path d="M391.4,368.4h1.3v-4.2l-1.4,.2v-.7l1.4,-.2h.7v4.9h1.2v.6h-3.2v-.6Z" class="gj_422"/>
<path d="M398,363.5h1v3.6h.8v.6H399V369h-.8v-1.3h-2.5V367l2.3,-3.5Zm.2,.6l-1.9,3h1.9v-3Z" class="gj_422"/>
<path d="M429.3,357.9v2.7" class="gi_422"/>
<path d="M425.4,368.4h1.3v-4.2l-1.4,.2v-.7l1.4,-.2h.7v4.9h1.2v.6h-3.2v-.6Z" class="gj_422"/>
<path d="M433.3,363.6v.7c-.1,-.1,-.3,-.2,-.5,-.2c-.2,-.1,-.4,-.1,-.6,-.1c-.5,0,-.9,.2,-1.1,.5c-.3,.4,-.4,.9,-.5,1.5c.2,-.2,.3,-.3,.6,-.5c.2,-.1,.4,-.1,.7,-.1c.6,0,1,.1,1.3,.5c.3,.3,.5,.8,.5,1.4c0,.5,-.2,1,-.5,1.3c-.3,.4,-.8,.5,-1.3,.5c-.7,0,-1.2,-.2,-1.5,-.7c-.4,-.5,-.5,-1.2,-.5,-2.1c0,-.9,.2,-1.6,.6,-2.1c.4,-.6,1,-.8,1.7,-.8c.2,0,.4,0,.5,0c.2,.1,.4,.1,.6,.2Zm-1.4,2.4c-.4,0,-.7,.1,-.8,.3c-.2,.2,-.3,.5,-.3,1c0,.4,.1,.7,.3,.9c.1,.2,.4,.3,.8,.3c.3,0,.6,-.1,.8,-.3c.2,-.2,.2,-.5,.2,-.9c0,-.5,0,-.8,-.2,-1c-.2,-.2,-.5,-.3,-.8,-.3Z" class="gj_422"/>
<path d="M157.4,357.9h-2.7" class="gi_422"/>
<path d="M149.7,355.2c.6,0,1.1,.2,1.4,.7c.3,.5,.5,1.2,.5,2.1c0,1,-.2,1.7,-.5,2.2c-.3,.5,-.8,.7,-1.4,.7c-.7,0,-1.1,-.2,-1.5,-.7c-.3,-.5,-.5,-1.2,-.5,-2.2c0,-.9,.2,-1.6,.5,-2.1c.4,-.5,.8,-.7,1.5,-.7Zm0,.6c-.4,0,-.7,.1,-.9,.5c-.2,.4,-.3,1,-.3,1.7c0,.8,.1,1.4,.3,1.8c.2,.3,.5,.5,.9,.5c.3,0,.6,-.2,.8,-.5c.2,-.4,.3,-1,.3,-1.8c0,-.7,-.1,-1.3,-.3,-1.7c-.2,-.4,-.5,-.5,-.8,-.5Z" class="gj_422"/>
<path d="M157.4,323.9h-2.7" class="gi_422"/>
<path d="M148.7,326.2h2.6v.6h-3.5v-.6c.3,-.3,.7,-.7,1.2,-1.2c.5,-.5,.8,-.8,.9,-1c.2,-.2,.4,-.5,.5,-.6c.1,-.2,.1,-.4,.1,-.6c0,-.3,-.1,-.5,-.3,-.7c-.2,-.2,-.5,-.3,-.8,-.3c-.2,0,-.5,0,-.7,.1c-.3,.1,-.6,.2,-.9,.4v-.8c.3,-.1,.6,-.2,.9,-.2c.2,-.1,.5,-.1,.7,-.1c.6,0,1,.1,1.4,.4c.3,.3,.5,.7,.5,1.2c0,.2,-.1,.4,-.1,.6c-.1,.2,-.3,.4,-.5,.7c-.1,.1,-.3,.3,-.6,.6c-.3,.4,-.8,.9,-1.4,1.5Z" class="gj_422"/>
<path d="M157.4,289.9h-2.7" class="gi_422"/>
<path d="M149.9,287.3h1v3.6h.8v.6h-.8v1.3h-.8v-1.3h-2.5v-.7l2.3,-3.5Zm.2,.6l-1.9,3h1.9v-3Z" class="gj_422"/>
<path d="M157.4,255.9h-2.7" class="gi_422"/>
<path d="M151.2,253.4v.7c-.1,-.1,-.3,-.2,-.5,-.2c-.2,-.1,-.4,-.1,-.6,-.1c-.5,0,-.9,.2,-1.1,.5c-.3,.4,-.4,.9,-.5,1.5c.2,-.2,.3,-.3,.6,-.5c.2,-.1,.4,-.1,.7,-.1c.6,0,1,.1,1.3,.5c.3,.3,.5,.8,.5,1.4c0,.5,-.2,1,-.5,1.3c-.3,.4,-.8,.5,-1.3,.5c-.7,0,-1.2,-.2,-1.5,-.7c-.4,-.5,-.5,-1.2,-.5,-2.1c0,-.9,.2,-1.6,.6,-2.1c.4,-.6,1,-.8,1.7,-.8c.2,0,.3,0,.5,0c.2,.1,.4,.1,.6,.2Zm-1.4,2.4c-.4,0,-.7,.1,-.9,.3c-.1,.2,-.2,.6,-.2,1c0,.4,.1,.7,.2,.9c.2,.2,.5,.3,.9,.3c.3,0,.6,-.1,.8,-.3c.1,-.2,.2,-.5,.2,-.9c0,-.4,-.1,-.8,-.2,-1c-.2,-.2,-.5,-.3,-.8,-.3Z" class="gj_422"/>
<path d="M157.4,222h-2.7" class="gi_422"/>
<path d="M148.6,220.7c0,.3,.1,.5,.3,.7c.2,.1,.4,.2,.8,.2c.3,0,.5,-.1,.7,-.2c.2,-.2,.3,-.4,.3,-.7c0,-.3,-.1,-.5,-.3,-.7c-.2,-.1,-.4,-.2,-.7,-.2c-.4,0,-.6,.1,-.8,.2c-.2,.2,-.3,.4,-.3,.7Zm.3,1.2c-.3,-.1,-.6,-.2,-.7,-.5c-.2,-.2,-.3,-.5,-.3,-.8c0,-.4,.1,-.8,.5,-1c.3,-.3,.7,-.4,1.3,-.4c.5,0,.9,.1,1.3,.4c.3,.2,.4,.6,.4,1c0,.3,-.1,.6,-.2,.8c-.2,.3,-.5,.4,-.8,.5c.4,.1,.7,.2,.9,.5c.2,.2,.3,.5,.3,.9c0,.5,-.2,.9,-.5,1.2c-.4,.3,-.8,.5,-1.4,.5c-.7,0,-1.1,-.2,-1.5,-.5c-.3,-.3,-.4,-.7,-.4,-1.2c0,-.4,.1,-.7,.3,-.9c.2,-.3,.4,-.4,.8,-.5Zm.8,.3c-.4,0,-.7,.1,-.9,.3c-.2,.2,-.3,.4,-.3,.8c0,.3,.1,.6,.3,.8c.2,.2,.5,.3,.9,.3c.3,0,.6,-.1,.8,-.3c.2,-.2,.3,-.5,.3,-.8c0,-.4,-.1,-.6,-.3,-.8c-.2,-.2,-.5,-.3,-.8,-.3Z" class="gj_422"/>
<path d="M157.4,188h-2.7" class="gi_422"/>
<path d="M143.3,190.2h1.3V186l-1.4,.3v-.7l1.4,-.3h.7v4.9h1.2v.7h-3.2v-.7Z" class="gj_422"/>
<path d="M149.7,185.2c.6,0,1.1,.2,1.4,.7c.3,.5,.5,1.2,.5,2.2c0,.9,-.2,1.6,-.5,2.1c-.3,.5,-.8,.8,-1.4,.8c-.7,0,-1.1,-.3,-1.5,-.8c-.3,-.5,-.5,-1.2,-.5,-2.1c0,-1,.2,-1.7,.5,-2.2c.4,-.5,.8,-.7,1.5,-.7Zm0,.6c-.4,0,-.7,.2,-.9,.6c-.2,.3,-.3,.9,-.3,1.7c0,.7,.1,1.3,.3,1.7c.2,.4,.5,.6,.9,.6c.3,0,.6,-.2,.8,-.6c.2,-.4,.3,-1,.3,-1.7c0,-.8,-.1,-1.4,-.3,-1.7c-.2,-.4,-.5,-.6,-.8,-.6Z" class="gj_422"/>
<path d="M157.4,154h-2.7" class="gi_422"/>
<path d="M143.3,156.2h1.3V152l-1.4,.3v-.7l1.4,-.3h.7v4.9h1.2v.7h-3.2v-.7Z" class="gj_422"/>
<path d="M148.7,156.2h2.6v.7h-3.5v-.7c.3,-.3,.7,-.7,1.2,-1.2c.5,-.5,.8,-.8,.9,-.9c.2,-.3,.4,-.5,.5,-.7c.1,-.2,.1,-.4,.1,-.6c0,-.3,-.1,-.5,-.3,-.7c-.2,-.2,-.5,-.3,-.8,-.3c-.2,0,-.5,.1,-.7,.2c-.3,0,-.6,.2,-.9,.3v-.7c.3,-.1,.6,-.2,.9,-.3c.2,-.1,.5,-.1,.7,-.1c.6,0,1,.2,1.4,.4c.3,.3,.5,.7,.5,1.2c0,.2,-.1,.4,-.1,.6c-.1,.2,-.3,.5,-.5,.8c-.1,0,-.3,.2,-.6,.6c-.3,.3,-.8,.8,-1.4,1.4Z" class="gj_422"/>
<path d="M157.4,120h-2.7" class="gi_422"/>
<path d="M143.3,122.2h1.3V118l-1.4,.3v-.7l1.4,-.3h.7v4.9h1.2v.7h-3.2v-.7Z" class="gj_422"/>
<path d="M149.9,117.3h1v3.6h.8v.7h-.8v1.3h-.8v-1.3h-2.5v-.8l2.3,-3.5Zm.2,.7l-1.9,2.9h1.9V118Z" class="gj_422"/>
<path d="M157.4,86h-2.7" class="gi_422"/>
<path d="M143.3,88.2h1.3V84l-1.4,.3v-.7l1.4,-.3h.7v4.9h1.2v.7h-3.2v-.7Z" class="gj_422"/>
<path d="M151.2,83.5v.6c-.1,-.1,-.3,-.1,-.5,-.2c-.2,0,-.4,0,-.6,0c-.5,0,-.9,.1,-1.1,.5c-.3,.3,-.4,.8,-.5,1.5c.2,-.2,.3,-.4,.6,-.5c.2,-.1,.4,-.2,.7,-.2c.6,0,1,.2,1.3,.5c.3,.4,.5,.8,.5,1.4c0,.6,-.2,1,-.5,1.4c-.3,.3,-.8,.5,-1.3,.5c-.7,0,-1.2,-.3,-1.5,-.8c-.4,-.4,-.5,-1.2,-.5,-2.1c0,-.9,.2,-1.6,.6,-2.1c.4,-.5,1,-.8,1.7,-.8c.2,0,.3,0,.5,.1c.2,0,.4,.1,.6,.2Zm-1.4,2.3c-.4,0,-.7,.1,-.9,.3c-.1,.3,-.2,.6,-.2,1c0,.4,.1,.7,.2,.9c.2,.3,.5,.4,.9,.4c.3,0,.6,-.1,.8,-.4c.1,-.2,.2,-.5,.2,-.9c0,-.4,-.1,-.7,-.2,-1c-.2,-.2,-.5,-.3,-.8,-.3Z" class="gj_422"/>
<path d="M157.4,357.9V86M429.3,357.9V86M157.4,357.9H429.3M157.4,86H429.3" class="gk_422"/>
<path d="M351,697.5h.4V634.8H351Z" class="gl_422"/>
<path d="M305.1,697.5v3.2l-.3,-.1l-6.2,-2.9l-.4,-.2l.4,-.2l6.2,-2.9l.3,-.1v.3l-.1,.1l-6.3,3l-.1,-.4h.1l6.3,2.9l-.2,.4l-.1,-.2v-2.9Z" class="gl_422"/>
<path d="M304.7,697.5h.4v-2.9h-.4Z" class="gl_422"/>
<path d="M304.9,697.7h.2v-.4h-.2Z" class="gl_422"/>
<path d="M305.1,697.7h46.3v-.4H305.1Z" class="gl_422"/>
<path d="M634.1,750.5h.3V672.8h-.3Z" class="gl_422"/>
<path d="M624.5,762.9h.4V736.8h-.4Z" class="gl_422"/>
<path d="M624.7,750.6h9.6v-.4h-9.6Z" class="gl_422"/>
<path d="M634.4,828.9h.4v-49h-.4Z" class="gl_422"/>
<path d="M624.9,793.4h.4V767.3h-.4Z" class="gl_422"/>
<path d="M625.1,780.1h9.6v-.4h-9.6Z" class="gl_422"/>
</svg>