<?xml version="1.0" encoding="UTF-8" standalone="no"?>
<!DOCTYPE svg PUBLIC "-//W3C//DTD SVG 1.1//EN"
"http://www.w3.org/Graphics/SVG/1.1/DTD/svg11.dtd">
<svg viewBox="0 0 811 1017" version="1.1" xmlns="http://www.w3.org/2000/svg" xmlns:xlink="http://www.w3.org/1999/xlink">
<defs>
<style type="text/css"><![CDATA[
.g0_316{
fill: #F9FBFB;
}
.g1_316{
fill: #F3F6F7;
}
.g2_316{
fill: #F0F3F4;
}
.g3_316{
fill: #F6F7F7;
}
.g4_316{
fill: #EDEFF0;
}
.g5_316{
fill: #040504;
}
.g6_316{
fill: #B0B2B1;
}
.g7_316{
fill: #D74562;
}
.g8_316{
fill: #4C7BBF;
}
]]></style>
</defs>
<path d="M423.6,235.9L268.9,213.2l-.1,.6l-.5,-129h.1L426,99.9l-2.4,136Z" class="g0_316"/>
<path d="M424.7,237.1l-.5,-.1h.2l-.2,-.5l-.3,-.5l-.7,.3L268.8,213.8l.1,-.6l154.7,22.7L426,99.9L268.4,84.8v-.1l-.1,-.5l.1,-.5L427,98.9l-2.3,138.2Z" class="g0_316"/>
<path d="M164.8,250.7L162.3,109.9l106,-25.1l.5,129l-.2,-.5L164.8,250.7Z" class="g1_316"/>
<path d="M268.3,84.2v0Z" class="g1_316"/>
<path d="M163.7,252.2v-.3l.6,.1l-.6,.2Zm0,-1.1l-2.5,-142l107,-25.4l.1,.5v.6l-106,25.1l2.5,140.8l-1.1,.4Z" class="g1_316"/>
<path d="M268.3,84.8v-.1l.1,.1h-.1Z" class="g2_316"/>
<path d="M268.4,84.8l-.1,-.1v-.5l.1,.5v.1Z" class="g2_316"/>
<path d="M329.1,278.6L166.3,251.3l102.6,-37l153.4,22.4l-93.2,41.9ZM268.8,213.8v0Z" class="g3_316"/>
<path d="M422.3,236.7L268.9,214.3h.1l-.2,-.5l154.4,22.5l-.9,.4Z" class="g1_316"/>
<path d="M166.3,251.3l102.6,-37l-102.6,37Z" class="g2_316"/>
<path d="M329.2,279.7L164.3,252l2,-.7l162.8,27.3l93.2,-41.9l1.9,.3l-95,42.7ZM163.7,251.9l-1.6,-.2l1.6,-.6v.8Z" class="g3_316"/>
<path d="M424.2,237l-1.9,-.3l.9,-.4l.7,-.3l.3,.5l.2,.5h-.2Z" class="g1_316"/>
<path d="M164.3,252l-.6,-.1v-.8L268.6,213.3l.2,.5l-.1,.5h.2l-102.6,37l-2,.7Z" class="g2_316"/>
<path d="M268.9,214.3h-.2l.1,-.5l.2,.5h-.1Zm-.2,0v0Z" class="g4_316"/>
<path d="M424.4,235.9l-95.8,43l.4,.8l95.7,-43l-.3,-.8Z" class="g5_316"/>
<path d="M384.8,269.2l-2.1,2.8l2.2,3h-1.1l-1.7,-2.3l-1.7,2.3h-1.2l2.3,-3l-2.1,-2.8h1.2l1.5,2.1l1.6,-2.1h1.1Z" class="g5_316"/>
<path d="M422.5,236.8L267.3,214.1L266.8,84.7H266l.5,129.8c0,.2,.1,.3,.3,.4l155.6,22.8l.1,-.9Z" class="g6_316"/>
<path d="M386.6,252.9L227.7,228.4L226.5,94.2h-.9l1.3,134.5c0,.3,.1,.4,.3,.5l159.3,24.6l.1,-.9Z" class="g6_316"/>
<path d="M347.8,270.4L185,243.8L182.9,104.6H182l2.1,139.6c0,.2,.2,.3,.4,.4l163.2,26.6l.1,-.8Z" class="g6_316"/>
<path d="M420.6,237.4l4.8,.7l.2,-.8l-4.8,-.7l-.2,.8Z" class="g5_316"/>
<path d="M384.7,253.5l4.9,.8l.2,-.9l-4.9,-.7l-.2,.8Z" class="g5_316"/>
<path d="M345.8,270.9l5.1,.8l.1,-.8l-5,-.8l-.2,.8Z" class="g5_316"/>
<path d="M163.7,251.8l165.8,27.8l.2,-.8L163.9,251l-.2,.8Z" class="g5_316"/>
<path d="M225.1,281.5c-.3,.6,-.5,1.1,-.8,1.3c-.3,.2,-.6,.3,-1,.3h-.8v-.8h.6c.2,0,.4,0,.6,-.2c.1,-.1,.3,-.4,.5,-.8l.1,-.5L222,275.1h1l1.8,4.5l1.8,-4.5h1.1l-2.6,6.4Z" class="g5_316"/>
<path d="M270.9,84.5l.4,129.4L167.2,251.6l.3,.8L271.9,214.6c.1,-.1,.3,-.2,.3,-.4L271.7,84.5h-.8Z" class="g6_316"/>
<path d="M319.6,89.2l-.4,131.7L217.8,260.1l.3,.8L319.8,221.6c.1,-.1,.2,-.2,.2,-.4l.4,-132h-.8Z" class="g6_316"/>
<path d="M370.2,94l-1.3,134.2l-98.4,40.7l.4,.8l98.5,-40.8c.2,-.1,.3,-.3,.3,-.4L371,94.1l-.8,-.1Z" class="g6_316"/>
<path d="M168.5,251.1l-3.6,1.3l.3,.8l3.6,-1.3l-.3,-.8Z" class="g5_316"/>
<path d="M219.1,259.6l-3.5,1.3l.3,.8l3.5,-1.3l-.3,-.8Z" class="g5_316"/>
<path d="M271.8,268.4l-3.4,1.4l.3,.8l3.4,-1.4l-.3,-.8Z" class="g5_316"/>
<path d="M164.7,251.9L162.1,109.1h-.8l2.5,142.8h.9Z" class="g5_316"/>
<path d="M143.9,180.5h4.6v.9l-3.6,4.2h3.6v.8h-4.7v-.9l3.6,-4.2h-3.5v-.8Z" class="g5_316"/>
<path d="M164.3,249.1L268.8,211.7l155.3,22.5l.2,-.8L268.9,210.8h-.3L164,248.3l.3,.8Z" class="g6_316"/>
<path d="M163.3,192.9L268.6,160.3L425.1,180l.1,-.9L268.7,159.5h-.2L163.1,192.1l.2,.8Z" class="g6_316"/>
<path d="M162.3,135.9L268.4,108.3L426,124.9l.1,-.9L268.4,107.4h-.1L162.1,135l.2,.9Z" class="g6_316"/>
<path d="M165.4,247.8l-3.6,1.3l.3,.8l3.6,-1.3l-.3,-.8Z" class="g5_316"/>
<path d="M164.4,191.7l-3.6,1.1l.2,.8l3.6,-1.1l-.2,-.8Z" class="g5_316"/>
<path d="M163.4,134.7l-3.6,.9l.2,.9l3.6,-1l-.2,-.8Z" class="g5_316"/>
<path d="M384.8,176.2L283.1,168.6l-.1,1.6l101.7,7.6l.1,-1.6Z" class="g7_316"/>
<path d="M384.6,176.2l-14.1,2.9l.3,1.6l14.1,-3l-.3,-1.5Z" class="g7_316"/>
<path d="M385,176.2l-14.4,-5l-.5,1.5l14.4,5l.5,-1.5Z" class="g7_316"/>
<path d="M219.9,200.3l63.5,-30.2l-.7,-1.4l-63.5,30.1l.7,1.5Z" class="g7_316"/>
<path d="M219.6,200.3l9.1,-.1v-1.6l-9.1,.1v1.6Z" class="g7_316"/>
<path d="M220.1,200.1l9.1,-8.4l-1.1,-1.2L219,199l1.1,1.1Z" class="g7_316"/>
<path d="M329.8,209l1.4,-.8l-.8,-1.4l-1.4,.8l.8,1.4Zm2.8,-1.6l1.4,-.8l-.8,-1.4l-1.4,.8l.8,1.4Zm2.8,-1.6l1.4,-.7l-.8,-1.4l-1.4,.8l.8,1.3Zm2.8,-1.5l1.4,-.8l-.8,-1.4l-1.4,.8l.8,1.4Zm2.8,-1.6l1.4,-.8l-.8,-1.4l-1.4,.8l.8,1.4Zm2.7,-1.6l1.4,-.8l-.8,-1.4l-1.3,.8l.7,1.4Zm2.8,-1.6l1.4,-.8l-.8,-1.3l-1.4,.7l.8,1.4Zm2.8,-1.5l1.4,-.8l-.8,-1.4l-1.4,.8l.8,1.4Zm2.8,-1.6l1.4,-.8l-.8,-1.4l-1.4,.8l.8,1.4Zm2.8,-1.6l1.4,-.8l-.8,-1.4l-1.4,.8l.8,1.4Zm2.8,-1.6l1.3,-.8l-.7,-1.4l-1.4,.8l.8,1.4Zm2.7,-1.6l1.4,-.7l-.8,-1.4l-1.3,.8l.7,1.3Zm2.8,-1.5l1.4,-.8l-.8,-1.4l-1.4,.8l.8,1.4Zm2.8,-1.6l1.4,-.8l-.8,-1.4l-1.4,.8l.8,1.4Zm2.8,-1.6l1.4,-.8l-.8,-1.4l-1.4,.8l.8,1.4Zm2.8,-1.6l1.4,-.8l-.8,-1.3l-1.4,.7l.8,1.4Zm2.8,-1.5l1.3,-.8l-.7,-1.4l-1.4,.8l.8,1.4Zm2.7,-1.6l1.4,-.8l-.8,-1.4l-1.4,.8l.8,1.4Zm2.8,-1.6l1.4,-.8l-.8,-1.4l-1.4,.8l.8,1.4Zm2.8,-1.6l1.4,-.8l-.8,-1.4l-1.4,.8l.8,1.4Z" class="g7_316"/>
<path d="M329.7,209.8h1.6l-.1,-1.6h-1.6l.1,1.6Zm3.2,-.1h1.6l-.1,-1.6h-1.6l.1,1.6Zm3.2,-.1h.1l-.1,-1.6H336l.1,1.6Z" class="g7_316"/>
<path d="M329.7,208.5l1.1,-1.2l-1.2,-1.1l-1.1,1.2l1.2,1.1Zm2.2,-2.4l1,-1.2l-1.1,-1.1l-1.1,1.2l1.2,1.1Zm2.1,-2.4l1.1,-1.1l-1.2,-1.1l-1.1,1.2l1.2,1Zm2.2,-2.3l.6,-.7l-1.2,-1.1l-.6,.7l1.2,1.1Z" class="g7_316"/>
<path d="M326.5,208.2l-1.6,-.2l-.1,1.6l1.6,.2l.1,-1.6Zm-3.2,-.3l-1.6,-.2l-.1,1.6l1.6,.2l.1,-1.6Zm-3.2,-.3l-1.5,-.1l-.2,1.6l1.6,.1l.1,-1.6Zm-3.1,-.3l-1.6,-.1l-.2,1.6l1.6,.1l.2,-1.6Zm-3.2,-.3l-1.6,-.1l-.2,1.6l1.6,.1l.2,-1.6Zm-3.2,-.2l-1.6,-.2l-.1,1.6l1.5,.2l.2,-1.6Zm-3.2,-.3l-1.6,-.2l-.1,1.6l1.6,.2l.1,-1.6Zm-3.2,-.3l-1.6,-.1l-.1,1.5l1.6,.2l.1,-1.6Zm-3.2,-.3l-1.6,-.1l-.1,1.6l1.6,.1l.1,-1.6Zm-3.2,-.3l-1.6,-.1l-.1,1.6l1.6,.1l.1,-1.6Zm-3.1,-.2l-1.6,-.2l-.2,1.6l1.6,.1l.2,-1.5Zm-3.2,-.3l-1.6,-.2l-.2,1.6l1.6,.2l.2,-1.6Zm-3.2,-.3l-1.6,-.1l-.2,1.5l1.6,.2l.2,-1.6Zm-3.2,-.3l-1.6,-.1l-.1,1.6l1.6,.1l.1,-1.6Zm-3.2,-.3l-1.6,-.1l-.1,1.6l1.6,.1l.1,-1.6Zm-3.2,-.2l-1.6,-.2l-.1,1.6l1.6,.1l.1,-1.5Zm-3.2,-.3l-1.6,-.2l-.1,1.6l1.6,.2l.1,-1.6Zm-3.2,-.3l-1.5,-.2l-.2,1.6l1.6,.2l.1,-1.6Zm-3.1,-.3l-1.6,-.1l-.2,1.6l1.6,.1l.2,-1.6Zm-3.2,-.3l-1.6,-.1l-.2,1.6l1.6,.1l.2,-1.6Zm-3.2,-.3l-1.6,-.1l-.1,1.6l1.5,.1l.2,-1.6Zm-3.2,-.2l-1.6,-.2l-.1,1.6l1.6,.2l.1,-1.6Zm-3.2,-.3l-1.6,-.2l-.1,1.6l1.6,.2l.1,-1.6Zm-3.2,-.3l-1.6,-.1l-.1,1.6l1.6,.1l.1,-1.6Zm-3.2,-.3l-1.6,-.1l-.1,1.6l1.6,.1l.1,-1.6Zm-3.1,-.3l-1.6,-.1l-.2,1.6l1.6,.1l.2,-1.6Zm-3.2,-.2l-1.6,-.2l-.2,1.6l1.6,.2l.2,-1.6Zm-3.2,-.3l-1.6,-.2l-.2,1.6l1.6,.2l.2,-1.6Zm-3.2,-.3l-1.6,-.1l-.1,1.6l1.6,.1l.1,-1.6Zm-3.2,-.3l-1.6,-.1l-.1,1.6l1.6,.1l.1,-1.6Zm-3.2,-.3l-1.6,-.1l-.1,1.6l1.6,.1l.1,-1.6Zm-3.2,-.2l-1.6,-.2l-.1,1.6l1.6,.2l.1,-1.6Zm-3.2,-.3L223,199l-.2,1.6l1.6,.2l.1,-1.6Zm-3.1,-.3l-1.6,-.1l-.2,1.6l1.6,.1l.2,-1.6Z" class="g7_316"/>
<path d="M326.3,208.6l-1.6,.3l.4,1.6l1.5,-.3l-.3,-1.6Zm-3.1,.7l-1.6,.3l.3,1.5l1.6,-.3l-.3,-1.5Zm-3.2,.6l-1.5,.3l.3,1.6l1.6,-.3l-.4,-1.6Zm-3.1,.6l-1.6,.3l.4,1.6l1.5,-.3l-.3,-1.6Zm-3.1,.6l-.9,.2l.3,1.6l.9,-.2l-.3,-1.6Z" class="g7_316"/>
<path d="M326.8,207.8l-1.5,-.6l-.5,1.5l1.5,.6l.5,-1.5Zm-3,-1.1l-1.5,-.6l-.5,1.5l1.5,.6l.5,-1.5Zm-3,-1.1l-1.5,-.6l-.5,1.5l1.5,.6l.5,-1.5Zm-3,-1.1l-1.5,-.6l-.5,1.5l1.5,.6l.5,-1.5Zm-3,-1.1l-1.5,-.6l-.5,1.5l1.5,.6l.5,-1.5Z" class="g7_316"/>
<path d="M453.8,493L299,470.4l-.1,.5l-.5,-129h.1l157.6,15.2L453.8,493Z" class="g0_316"/>
<path d="M454.8,494.3l-.4,-.1l.1,-.1l-.4,-.9l-.8,.3L298.9,470.9l.1,-.5L453.8,493l2.3,-135.9L298.5,341.9h.1l-.2,-.5l.1,-.6l158.7,15.3l-2.4,138.2Z" class="g0_316"/>
<path d="M194.9,507.9L192.4,367.1l106,-25.2l.5,129l-.2,-.5L194.9,507.9Z" class="g1_316"/>
<path d="M193.8,509.4v-.3l.6,.1l-.6,.2Zm0,-1.1L191.3,366.2l107,-25.3l.1,.5v.5l-106,25.2l2.5,140.8l-1.1,.4Z" class="g1_316"/>
<path d="M298.4,341.9v0h.1h-.1Z" class="g2_316"/>
<path d="M298.5,341.9h-.1v-.5l.2,.5h-.1Z" class="g2_316"/>
<path d="M359.2,535.7L196.5,508.5L299,471.5l153.4,22.4l-93.2,41.8Z" class="g3_316"/>
<path d="M452.4,493.9L299,471.5l.1,-.1l-.2,-.5l154.4,22.6l-.9,.4Z" class="g1_316"/>
<path d="M196.5,508.5L299,471.5l-102.5,37Z" class="g2_316"/>
<path d="M359.4,536.8l-165,-27.6l2.1,-.7l162.7,27.2l93.2,-41.8l2,.3l-95,42.6ZM193.8,509.1l-1.5,-.3l1.5,-.5v.8Z" class="g3_316"/>
<path d="M454.4,494.2l-2,-.3l1.7,-.7l.4,.9l-.1,.1Z" class="g1_316"/>
<path d="M194.4,509.2l-.6,-.1v-.8L298.7,470.4l.2,.5l-.1,.6h.2L194.4,509.2Z" class="g2_316"/>
<path d="M299,471.5h-.2l.1,-.6l.2,.5l-.1,.1Z" class="g4_316"/>
<path d="M454.5,493.1l-95.8,43l.4,.8l95.7,-43l-.3,-.8Z" class="g5_316"/>
<path d="M441.3,540.2l-2.1,2.9l2.2,3h-1.1l-1.7,-2.3l-1.7,2.3h-1.1L438,543l-2.1,-2.8h1.2l1.5,2.1l1.6,-2.1h1.1Z" class="g5_316"/>
<path d="M452.6,494L297.4,471.2l-.5,-129.4h-.8l.5,129.8c0,.2,.1,.4,.4,.4l155.5,22.8l.1,-.8Z" class="g6_316"/>
<path d="M416.8,510.1l-159,-24.6L256.6,351.4h-.9L257,485.9c0,.2,.1,.4,.3,.4l159.3,24.6l.2,-.8Z" class="g6_316"/>
<path d="M377.9,527.5L215.1,500.9L213,361.7h-.8l2.1,139.6c0,.2,.1,.4,.3,.4l163.2,26.7l.1,-.9Z" class="g6_316"/>
<path d="M450.8,494.6l4.8,.7l.1,-.9l-4.8,-.7l-.1,.9Z" class="g5_316"/>
<path d="M460.5,507.3c.8,0,1.5,.4,2,1c.4,.7,.7,1.7,.7,3c0,1.4,-.3,2.4,-.7,3c-.5,.7,-1.2,1.1,-2,1.1c-.9,0,-1.6,-.4,-2,-1.1c-.5,-.6,-.7,-1.6,-.7,-3c0,-1.3,.2,-2.3,.7,-3c.4,-.6,1.1,-1,2,-1Zm0,.8c-.6,0,-1,.3,-1.3,.8c-.2,.6,-.4,1.4,-.4,2.4c0,1.1,.2,1.9,.4,2.4c.3,.6,.7,.8,1.3,.8c.5,0,.9,-.2,1.2,-.8c.3,-.5,.4,-1.3,.4,-2.4c0,-1,-.1,-1.8,-.4,-2.4c-.3,-.5,-.7,-.8,-1.2,-.8Z" class="g5_316"/>
<path d="M465,515.2h1.1v-1.3H465Z" class="g5_316"/>
<path d="M470.6,507.3c.9,0,1.6,.4,2,1c.5,.7,.7,1.7,.7,3c0,1.4,-.2,2.4,-.7,3c-.4,.7,-1.1,1.1,-2,1.1c-.8,0,-1.5,-.4,-2,-1.1c-.4,-.6,-.6,-1.6,-.6,-3c0,-1.3,.2,-2.3,.6,-3c.5,-.6,1.2,-1,2,-1Zm0,.8c-.5,0,-.9,.3,-1.2,.8c-.2,.6,-.4,1.4,-.4,2.4c0,1.1,.2,1.9,.4,2.4c.3,.6,.7,.8,1.2,.8c.6,0,1,-.2,1.3,-.8c.2,-.5,.4,-1.3,.4,-2.4c0,-1,-.2,-1.8,-.4,-2.4c-.3,-.5,-.7,-.8,-1.3,-.8Z" class="g5_316"/>
<path d="M414.9,510.7l4.9,.7l.1,-.8l-4.9,-.8l-.1,.9Z" class="g5_316"/>
<path d="M425,524c.9,0,1.5,.3,2,1c.5,.7,.7,1.7,.7,3c0,1.3,-.2,2.3,-.7,3c-.5,.7,-1.1,1,-2,1c-.9,0,-1.5,-.3,-2,-1c-.5,-.7,-.7,-1.7,-.7,-3c0,-1.3,.2,-2.3,.7,-3c.5,-.7,1.1,-1,2,-1Zm0,.8c-.5,0,-.9,.3,-1.2,.8c-.3,.5,-.4,1.3,-.4,2.4c0,1.1,.1,1.9,.4,2.4c.3,.5,.7,.8,1.2,.8c.6,0,1,-.3,1.2,-.8c.3,-.5,.4,-1.3,.4,-2.4c0,-1.1,-.1,-1.9,-.4,-2.4c-.2,-.5,-.6,-.8,-1.2,-.8Z" class="g5_316"/>
<path d="M429.5,531.9h1.1v-1.3h-1.1Z" class="g5_316"/>
<path d="M432.9,524.1h4.2v.9h-3.2v1.9c.2,0,.3,-.1,.5,-.1c.1,0,.3,0,.4,0c.9,0,1.6,.2,2.1,.7c.5,.4,.8,1.1,.8,1.9c0,.8,-.3,1.5,-.8,1.9c-.6,.5,-1.3,.7,-2.2,.7c-.4,0,-.7,0,-1,0c-.4,-.1,-.7,-.2,-1.1,-.3v-1.1c.3,.2,.7,.3,1,.4c.3,.1,.7,.2,1,.2c.6,0,1.1,-.2,1.5,-.5c.3,-.3,.5,-.8,.5,-1.3c0,-.5,-.2,-1,-.5,-1.3c-.4,-.3,-.9,-.5,-1.5,-.5c-.2,0,-.5,.1,-.8,.1c-.3,.1,-.6,.2,-.9,.3v-3.9Z" class="g5_316"/>
<path d="M376,528.1l5,.8l.1,-.8l-5,-.9l-.1,.9Z" class="g5_316"/>
<path d="M384.5,549.1h1.7v-6l-1.8,.4v-.9l1.8,-.4h1.1v6.9H389v.8h-4.5v-.8Z" class="g5_316"/>
<path d="M391.1,549.9h1.1v-1.3h-1.1Z" class="g5_316"/>
<path d="M396.8,542c.8,0,1.5,.4,2,1.1c.4,.7,.6,1.7,.6,3c0,1.3,-.2,2.3,-.6,3c-.5,.7,-1.2,1,-2,1c-.9,0,-1.6,-.3,-2,-1c-.5,-.7,-.7,-1.7,-.7,-3c0,-1.3,.2,-2.3,.7,-3c.4,-.7,1.1,-1.1,2,-1.1Zm0,.9c-.6,0,-1,.2,-1.3,.8c-.2,.5,-.4,1.3,-.4,2.4c0,1,.2,1.8,.4,2.4c.3,.5,.7,.8,1.3,.8c.5,0,.9,-.3,1.2,-.8c.3,-.6,.4,-1.4,.4,-2.4c0,-1.1,-.1,-1.9,-.4,-2.4c-.3,-.6,-.7,-.8,-1.2,-.8Z" class="g5_316"/>
<path d="M193.9,509l165.7,27.8l.2,-.9L194,508.2l-.1,.8Z" class="g5_316"/>
<path d="M255.2,558.5c-.2,.7,-.5,1.1,-.8,1.3c-.2,.3,-.6,.4,-1,.4h-.8v-.8h.6c.3,0,.5,-.1,.6,-.2c.2,-.1,.3,-.4,.5,-.9l.2,-.4l-2.4,-5.8h1l1.8,4.6l1.9,-4.6h1l-2.6,6.4Z" class="g5_316"/>
<path d="M301,341.7l.4,129.4L197.3,508.8l.3,.8L302,471.8c.2,-.1,.3,-.3,.3,-.4l-.4,-129.7H301Z" class="g6_316"/>
<path d="M362.2,347.5l-.6,132.4L260.9,519.4l.3,.8L362.1,480.5c.2,0,.3,-.2,.3,-.4L363,347.5h-.8Z" class="g6_316"/>
<path d="M426.3,353.7l-1.8,135.4l-96.7,41.6l.4,.7l96.9,-41.6c.2,-.1,.3,-.3,.3,-.4l1.8,-135.7h-.9Z" class="g6_316"/>
<path d="M198.6,508.3l-3.5,1.3l.3,.8l3.5,-1.3l-.3,-.8Z" class="g5_316"/>
<path d="M183.4,523.9c.8,0,1.5,.3,2,1c.4,.7,.6,1.7,.6,3c0,1.3,-.2,2.3,-.6,3c-.5,.7,-1.2,1,-2,1c-.9,0,-1.6,-.3,-2,-1c-.5,-.7,-.7,-1.7,-.7,-3c0,-1.3,.2,-2.3,.7,-3c.4,-.7,1.1,-1,2,-1Zm0,.8c-.6,0,-1,.3,-1.3,.8c-.2,.5,-.4,1.3,-.4,2.4c0,1.1,.2,1.9,.4,2.4c.3,.5,.7,.8,1.3,.8c.5,0,.9,-.3,1.2,-.8c.3,-.5,.4,-1.3,.4,-2.4c0,-1.1,-.1,-1.9,-.4,-2.4c-.3,-.5,-.7,-.8,-1.2,-.8Z" class="g5_316"/>
<path d="M187.9,531.8H189v-1.3h-1.1Z" class="g5_316"/>
<path d="M193.5,523.9c.9,0,1.6,.3,2,1c.5,.7,.7,1.7,.7,3c0,1.3,-.2,2.3,-.7,3c-.4,.7,-1.1,1,-2,1c-.8,0,-1.5,-.3,-2,-1c-.4,-.7,-.6,-1.7,-.6,-3c0,-1.3,.2,-2.3,.6,-3c.5,-.7,1.2,-1,2,-1Zm0,.8c-.5,0,-.9,.3,-1.2,.8c-.3,.5,-.4,1.3,-.4,2.4c0,1.1,.1,1.9,.4,2.4c.3,.5,.7,.8,1.2,.8c.6,0,1,-.3,1.3,-.8c.2,-.5,.4,-1.3,.4,-2.4c0,-1.1,-.2,-1.9,-.4,-2.4c-.3,-.5,-.7,-.8,-1.3,-.8Z" class="g5_316"/>
<path d="M262.2,518.9l-3.5,1.4l.3,.8l3.5,-1.4l-.3,-.8Z" class="g5_316"/>
<path d="M247.2,535c.8,0,1.5,.3,2,1c.4,.7,.6,1.7,.6,3c0,1.3,-.2,2.3,-.6,3c-.5,.7,-1.2,1,-2,1c-.9,0,-1.6,-.3,-2,-1c-.5,-.7,-.7,-1.7,-.7,-3c0,-1.3,.2,-2.3,.7,-3c.4,-.7,1.1,-1,2,-1Zm0,.8c-.6,0,-1,.3,-1.3,.8c-.2,.5,-.4,1.3,-.4,2.4c0,1.1,.2,1.9,.4,2.4c.3,.5,.7,.8,1.3,.8c.5,0,.9,-.3,1.2,-.8c.3,-.5,.4,-1.3,.4,-2.4c0,-1.1,-.1,-1.9,-.4,-2.4c-.3,-.5,-.7,-.8,-1.2,-.8Z" class="g5_316"/>
<path d="M251.7,542.9h1.1v-1.3h-1.1Z" class="g5_316"/>
<path d="M255.1,535.1h4.1v.9h-3.1v1.9c.1,0,.3,-.1,.4,-.1c.2,0,.3,0,.5,0c.8,0,1.5,.2,2,.7c.5,.4,.8,1.1,.8,1.9c0,.8,-.3,1.5,-.8,1.9c-.5,.5,-1.2,.7,-2.2,.7c-.3,0,-.6,0,-1,0c-.3,-.1,-.7,-.2,-1,-.3v-1.1c.3,.2,.6,.3,.9,.4c.4,.1,.7,.2,1.1,.2c.6,0,1.1,-.2,1.4,-.5c.4,-.3,.5,-.8,.5,-1.3c0,-.5,-.1,-1,-.5,-1.3c-.3,-.3,-.8,-.5,-1.4,-.5c-.3,0,-.6,.1,-.8,.1c-.3,.1,-.6,.2,-.9,.3v-3.9Z" class="g5_316"/>
<path d="M329.1,530.1l-3.4,1.5l.4,.7l3.3,-1.4l-.3,-.8Z" class="g5_316"/>
<path d="M312.3,553.7H314v-5.9l-1.9,.3v-.9l1.9,-.4h1v6.9h1.7v.9h-4.4v-.9Z" class="g5_316"/>
<path d="M318.9,554.6H320v-1.3h-1.1Z" class="g5_316"/>
<path d="M324.5,546.7c.9,0,1.5,.3,2,1c.5,.7,.7,1.7,.7,3c0,1.3,-.2,2.3,-.7,3c-.5,.7,-1.1,1,-2,1c-.9,0,-1.5,-.3,-2,-1c-.5,-.7,-.7,-1.7,-.7,-3c0,-1.3,.2,-2.3,.7,-3c.5,-.7,1.1,-1,2,-1Zm0,.8c-.5,0,-.9,.3,-1.2,.8c-.3,.5,-.4,1.3,-.4,2.4c0,1.1,.1,1.9,.4,2.4c.3,.5,.7,.8,1.2,.8c.5,0,1,-.3,1.2,-.8c.3,-.5,.4,-1.3,.4,-2.4c0,-1.1,-.1,-1.9,-.4,-2.4c-.2,-.5,-.7,-.8,-1.2,-.8Z" class="g5_316"/>
<path d="M194.8,509.1L192.3,366.2h-.9l2.5,142.9h.9Z" class="g5_316"/>
<path d="M143.5,437.7H148v.9l-3.6,4.2H148v.7h-4.7v-.8l3.6,-4.2h-3.4v-.8Z" class="g5_316"/>
<path d="M194.5,506.3L299,468.8l155.3,22.6l.1,-.9L299,468h-.2L194.2,505.5l.3,.8Z" class="g6_316"/>
<path d="M193.4,450.1L298.8,417.5l156.4,19.6l.1,-.8L298.8,416.6h-.2L193.2,449.3l.2,.8Z" class="g6_316"/>
<path d="M192.4,393L298.6,365.5l157.6,16.6v-.9L298.6,364.6h-.2L192.2,392.2l.2,.8Z" class="g6_316"/>
<path d="M195.5,505l-3.6,1.3l.3,.8l3.6,-1.3l-.3,-.8Z" class="g5_316"/>
<path d="M167.7,507.3c.8,0,1.5,.3,2,1c.4,.7,.7,1.7,.7,3c0,1.3,-.3,2.3,-.7,3c-.5,.7,-1.2,1,-2,1c-.9,0,-1.6,-.3,-2,-1c-.5,-.7,-.7,-1.7,-.7,-3c0,-1.3,.2,-2.3,.7,-3c.4,-.7,1.1,-1,2,-1Zm0,.8c-.6,0,-1,.3,-1.2,.8c-.3,.5,-.5,1.3,-.5,2.4c0,1.1,.2,1.9,.5,2.4c.2,.5,.6,.8,1.2,.8c.5,0,.9,-.3,1.2,-.8c.3,-.5,.4,-1.3,.4,-2.4c0,-1.1,-.1,-1.9,-.4,-2.4c-.3,-.5,-.7,-.8,-1.2,-.8Z" class="g5_316"/>
<path d="M172.2,515.2h1.1v-1.3h-1.1Z" class="g5_316"/>
<path d="M177.9,507.3c.8,0,1.5,.3,2,1c.4,.7,.6,1.7,.6,3c0,1.3,-.2,2.3,-.6,3c-.5,.7,-1.2,1,-2,1c-.9,0,-1.6,-.3,-2,-1c-.5,-.7,-.7,-1.7,-.7,-3c0,-1.3,.2,-2.3,.7,-3c.4,-.7,1.1,-1,2,-1Zm0,.8c-.6,0,-1,.3,-1.3,.8c-.2,.5,-.4,1.3,-.4,2.4c0,1.1,.2,1.9,.4,2.4c.3,.5,.7,.8,1.3,.8c.5,0,.9,-.3,1.2,-.8c.3,-.5,.4,-1.3,.4,-2.4c0,-1.1,-.1,-1.9,-.4,-2.4c-.3,-.5,-.7,-.8,-1.2,-.8Z" class="g5_316"/>
<path d="M194.5,448.8l-3.6,1.2l.3,.8l3.6,-1.1l-.3,-.9Z" class="g5_316"/>
<path d="M166.5,450.9c.9,0,1.5,.4,2,1.1c.5,.6,.7,1.6,.7,3c0,1.3,-.2,2.3,-.7,3c-.5,.6,-1.1,1,-2,1c-.9,0,-1.5,-.4,-2,-1c-.5,-.7,-.7,-1.7,-.7,-3c0,-1.4,.2,-2.4,.7,-3c.5,-.7,1.1,-1.1,2,-1.1Zm0,.9c-.5,0,-.9,.2,-1.2,.8c-.3,.5,-.4,1.3,-.4,2.4c0,1,.1,1.8,.4,2.4c.3,.5,.7,.8,1.2,.8c.6,0,1,-.3,1.2,-.8c.3,-.6,.4,-1.4,.4,-2.4c0,-1.1,-.1,-1.9,-.4,-2.4c-.2,-.6,-.6,-.8,-1.2,-.8Z" class="g5_316"/>
<path d="M171,458.8h1.1v-1.3H171Z" class="g5_316"/>
<path d="M174.4,451.1h4.2v.9h-3.2v1.9c.2,-.1,.3,-.1,.5,-.2c.1,0,.3,0,.4,0c.9,0,1.6,.2,2.1,.7c.5,.5,.8,1.1,.8,1.9c0,.9,-.3,1.5,-.8,2c-.6,.5,-1.3,.7,-2.2,.7c-.4,0,-.7,0,-1,-.1c-.4,-.1,-.7,-.1,-1.1,-.2v-1.1c.3,.2,.7,.3,1,.4c.3,.1,.7,.1,1,.1c.6,0,1.1,-.2,1.5,-.5c.3,-.3,.5,-.7,.5,-1.3c0,-.5,-.2,-.9,-.5,-1.2c-.4,-.4,-.9,-.5,-1.5,-.5c-.2,0,-.5,0,-.8,.1c-.3,0,-.6,.1,-.9,.3v-3.9Z" class="g5_316"/>
<path d="M193.5,391.8l-3.6,1l.2,.8l3.7,-.9l-.3,-.9Z" class="g5_316"/>
<path d="M163.3,400.7H165v-5.9l-1.9,.4v-1l1.9,-.3h1v6.8h1.7v.9h-4.4v-.9Z" class="g5_316"/>
<path d="M169.9,401.6H171v-1.3h-1.1Z" class="g5_316"/>
<path d="M175.5,393.7c.9,0,1.5,.4,2,1c.5,.7,.7,1.7,.7,3c0,1.4,-.2,2.4,-.7,3c-.5,.7,-1.1,1.1,-2,1.1c-.9,0,-1.5,-.4,-2,-1.1c-.5,-.6,-.7,-1.6,-.7,-3c0,-1.3,.2,-2.3,.7,-3c.5,-.6,1.1,-1,2,-1Zm0,.8c-.5,0,-.9,.3,-1.2,.8c-.3,.6,-.4,1.4,-.4,2.4c0,1.1,.1,1.9,.4,2.4c.3,.6,.7,.8,1.2,.8c.5,0,1,-.2,1.2,-.8c.3,-.5,.4,-1.3,.4,-2.4c0,-1,-.1,-1.8,-.4,-2.4c-.2,-.5,-.7,-.8,-1.2,-.8Z" class="g5_316"/>
<path d="M298.8,365.8v.8h1.6v-.8h-1.6Zm0,1.6v2.4h1.6v-2.4h-1.6Zm0,3.2V373h1.6v-2.4h-1.6Zm0,3.2v2.4h1.6v-2.4h-1.6Zm0,3.2v2.4h1.6V377h-1.6Zm0,3.2v2.4h1.6v-2.4h-1.6Zm0,3.2v2.4h1.6v-2.4h-1.6Zm.1,3.2V389h1.6v-2.4h-1.6Zm0,3.2v2.4h1.6v-2.4h-1.6Zm0,3.2v2.4h1.6V393h-1.6Zm0,3.2v2.4h1.6v-2.4h-1.6Zm0,3.2v2.4h1.6v-2.4h-1.6Zm0,3.2V405h1.6v-2.4h-1.6Zm0,3.2v2.4h1.6v-2.4h-1.6Zm0,3.2v2.4h1.6V409h-1.6Zm0,3.2l.1,2.4h1.6l-.1,-2.4h-1.6Zm.1,3.2v2.4h1.6v-2.4H299Zm0,3.2V421h1.6v-2.4H299Zm0,3.2v2.4h1.6v-2.4H299Zm0,3.2v2.4h1.6V425H299Zm0,3.2v2.4h1.6v-2.4H299Zm0,3.2v2.4h1.6v-2.4H299Zm0,3.2V437h1.6v-2.4H299Zm0,3.2v2.4h1.6v-2.4H299Zm0,3.2l.1,2.4h1.6l-.1,-2.4H299Zm.1,3.2v2.4h1.6v-2.4h-1.6Zm0,3.2v2.4h1.6v-2.4h-1.6Zm0,3.2V453h1.6v-2.4h-1.6Zm0,3.2v2.4h1.6v-2.4h-1.6Zm0,3.2v2.4h1.6V457h-1.6Zm0,3.2v2.4h1.6v-2.4h-1.6Zm0,3.2v2.4h1.6v-2.4h-1.6Zm0,3.2V469h1.6v-2.4h-1.6Z" class="g8_316"/>
<path d="M298.8,366l.2,.8l1.5,-.3l-.1,-.8l-1.6,.3Zm.3,1.6l.5,2.3l1.6,-.3l-.5,-2.4l-1.6,.4Zm.7,3.1l.5,2.3l1.5,-.3l-.4,-2.3l-1.6,.3Zm.6,3.1l.5,2.4l1.6,-.4l-.5,-2.3l-1.6,.3Zm.7,3.2l.5,2.3l1.6,-.3l-.5,-2.4l-1.6,.4Z" class="g8_316"/>
<path d="M298.8,365.7l-.2,.8l1.6,.3l.2,-.8l-1.6,-.3Zm-.3,1.6l-.4,2.3l1.5,.3l.5,-2.3l-1.6,-.3Zm-.6,3.1l-.4,2.4l1.6,.3l.4,-2.4l-1.6,-.3Zm-.6,3.2l-.4,2.3l1.6,.3l.4,-2.4l-1.6,-.2Zm-.5,3.1l-.5,2.4l1.6,.3l.4,-2.4l-1.5,-.3Zm-.6,3.2l-.2,.7l1.6,.3l.2,-.8l-1.6,-.2Z" class="g8_316"/>
<path d="M423.3,486.7l-123.2,-18l-.3,1.6l123.3,17.9l.2,-1.5Z" class="g7_316"/>
<path d="M423.2,486.6L405.8,488l.1,1.6l17.4,-1.4l-.1,-1.6Z" class="g7_316"/>
<path d="M423.5,486.7l-17.3,-6.4l-.6,1.5l17.4,6.4l.5,-1.5Z" class="g7_316"/>
<path d="M218,499.8l82.2,-29.6l-.5,-1.5l-82.2,29.6l.5,1.5Z" class="g7_316"/>
<path d="M217.7,499.9l12,-.4l-.1,-1.6l-11.9,.4v1.6Z" class="g7_316"/>
<path d="M218.2,499.7L230,491.5l-.9,-1.3l-11.8,8.2l.9,1.3Z" class="g7_316"/>
</svg>