<?xml version="1.0" encoding="UTF-8" standalone="no"?>
<!DOCTYPE svg PUBLIC "-//W3C//DTD SVG 1.1//EN"
"http://www.w3.org/Graphics/SVG/1.1/DTD/svg11.dtd">
<svg viewBox="0 0 811 1017" version="1.1" xmlns="http://www.w3.org/2000/svg" xmlns:xlink="http://www.w3.org/1999/xlink">
<defs>
<clipPath id="c0_191"><path d="M402.9,260.7V169h74.8v91.7Z"/></clipPath>
<clipPath id="c1_191"><path d="M157.4,891.1V656.2H392.1V891.1Z"/></clipPath>
<style type="text/css"><![CDATA[
.g0_191{
fill: #0E0E0E;
}
]]></style>
</defs>
<path d="M417.1,175.8l1,-3.6c.1,-.5,.2,-1.1,.7,-1.2c.1,0,.2,0,.4,0c1.5,0,2.2,.8,2.2,1.9c0,.4,-.1,.7,-.3,1c-.6,1,-1.8,1.9,-3.3,1.9h-.7Zm-.6,2.4l.6,-2.1h.9c2,0,3.7,-.6,4.5,-1.8c.2,-.4,.4,-.9,.4,-1.3c0,-.8,-.4,-1.3,-1,-1.7c-.6,-.4,-1.5,-.6,-2.7,-.6h-3.7l-.1,.2c.3,0,.5,0,.7,0c.4,.1,.6,.6,.6,1c0,.3,0,.6,-.2,1l-1.6,5.9c-.1,.6,-.3,1.3,-.6,1.5c-.3,.3,-.7,.5,-1.1,.5l-.1,.2h4.5l.1,-.2c-1.1,0,-1.5,-.6,-1.5,-1.1c0,-.1,0,-.4,.1,-.7c0,-.2,.1,-.5,.2,-.8Z" class="g0_191"/>
<path d="M428.9,170.3c-2.1,1.4,-3.7,3.8,-3.7,6.9c0,2.7,1.6,5.5,3.7,6.8l.2,-.2c-2,-1.6,-2.6,-3.4,-2.6,-6.7c0,-3.3,.6,-5,2.6,-6.5l-.2,-.3Z" class="g0_191"/>
<path d="M434.3,180.9c-2,0,-2,-2.8,-2,-5c0,-2.2,0,-5.1,2,-5.1c1.9,0,1.9,2.9,1.9,5.1c0,2.2,0,5,-1.9,5Zm0,-10.4c-2.6,0,-3.4,2.7,-3.4,5.4c0,2.6,.8,5.2,3.4,5.2c2.5,0,3.3,-2.6,3.3,-5.2c0,-2.7,-.7,-5.4,-3.3,-5.4Z" class="g0_191"/>
<path d="M439,170.3l-.1,.3c1.9,1.5,2.5,3.2,2.5,6.5c0,3.3,-.6,5.1,-2.5,6.7l.2,.2c2,-1.3,3.6,-4.1,3.6,-6.8c0,-3.1,-1.5,-5.5,-3.7,-6.9Z" class="g0_191"/>
<path d="M448.9,179.1h7.6v-.8h-7.6Zm0,-3h7.6v-.8h-7.6Z" class="g0_191"/>
<path d="M463.2,171.3v.2c.5,0,1.1,.1,1.3,.2c.5,.2,.5,.4,.5,1v6.5c0,.3,0,.6,-.1,.8c0,.6,-.8,.7,-1.6,.8v.2H468v-.2c-.5,-.1,-1.2,-.1,-1.4,-.3c-.3,-.3,-.3,-.8,-.3,-1.4v-8.6c-.8,.4,-2.1,.8,-3.1,.8Z" class="g0_191"/>
<path d="M412.7,201l.9,-3.6c.2,-.5,.3,-1.1,.8,-1.2c.1,0,.2,0,.4,0c1.4,0,2.1,.8,2.1,1.9c0,.4,0,.7,-.2,1c-.6,1,-1.8,1.9,-3.3,1.9h-.7Zm-.6,2.4l.5,-2.1h1c2,0,3.7,-.6,4.5,-1.9c.2,-.3,.3,-.8,.3,-1.3c0,-.7,-.3,-1.2,-.9,-1.6c-.7,-.5,-1.6,-.7,-2.7,-.7H411v.2c.3,.1,.5,.1,.7,.1c.4,.1,.6,.5,.6,1c0,.3,-.1,.6,-.2,1l-1.6,5.9c-.1,.6,-.4,1.3,-.6,1.5c-.3,.3,-.7,.5,-1.1,.5l-.1,.2h4.5V206c-1,0,-1.5,-.6,-1.5,-1.1c0,-.1,.1,-.4,.2,-.7c0,-.2,.1,-.5,.2,-.8Z" class="g0_191"/>
<path d="M421.8,192.7c0,-.3,-.3,-.5,-.5,-.5c-.3,0,-.5,.3,-.6,.6l-.8,2.4c0,.1,-.1,.2,-.1,.3c0,.1,.1,.2,.1,.2c.2,0,.3,-.2,.4,-.3l1.3,-2.1c.1,-.2,.2,-.4,.2,-.6Z" class="g0_191"/>
<path d="M428.9,195.5c-2.1,1.4,-3.7,3.8,-3.7,6.9c0,2.7,1.6,5.5,3.7,6.8l.1,-.3c-1.9,-1.5,-2.5,-3.3,-2.5,-6.6c0,-3.3,.6,-5,2.5,-6.5l-.1,-.3Z" class="g0_191"/>
<path d="M434.3,206c-2,0,-2,-2.7,-2,-4.9c0,-2.2,0,-5.1,2,-5.1c1.9,0,1.9,2.9,1.9,5.1c0,2.2,0,4.9,-1.9,4.9Zm0,-10.3c-2.6,0,-3.4,2.7,-3.4,5.4c0,2.6,.8,5.2,3.4,5.2c2.5,0,3.3,-2.6,3.3,-5.2c0,-2.7,-.7,-5.4,-3.3,-5.4Z" class="g0_191"/>
<path d="M439,195.5l-.1,.3c1.9,1.5,2.5,3.2,2.5,6.5c0,3.3,-.6,5.1,-2.5,6.6l.2,.3c2,-1.3,3.6,-4.1,3.6,-6.8c0,-3.1,-1.5,-5.5,-3.7,-6.9Z" class="g0_191"/>
<path d="M448.9,204.3h7.6v-.9h-7.6Zm0,-3h7.6v-.9h-7.6Z" class="g0_191"/>
<path d="M464.9,199.8c-.9,0,-1.5,-.7,-1.5,-1.6c0,-1.1,.6,-2.2,1.8,-2.2c1.7,0,1.8,1.3,1.8,2.6c0,1.2,-.3,2,-.9,2.9c-.4,.5,-1,1.2,-1.6,1.8c-.7,.7,-1.5,1.5,-2.5,2.4v.5h6.2l.5,-2.9h-.4c-.1,.3,-.2,.6,-.3,.8c-.2,.5,-.7,.8,-1.4,.8h-2.9v-.1c.7,-.5,1.3,-1,1.9,-1.5c1,-.9,2.1,-1.9,2.7,-3.1c.2,-.5,.4,-1,.4,-1.6c0,-.4,-.1,-.8,-.3,-1.2c-.5,-1,-1.5,-1.7,-3,-1.7c-.9,0,-1.8,.3,-2.4,.8c-.5,.4,-.9,1.1,-.9,2c0,.6,.2,1.1,.5,1.4c.3,.4,.7,.6,1.2,.6c.6,0,1,-.3,1.1,-.7Z" class="g0_191"/>
<path d="M409.8,226.2l.9,-3.6c.2,-.5,.3,-1.1,.7,-1.2c.1,-.1,.3,-.1,.5,-.1c1.4,0,2.1,.9,2.1,2c0,.3,-.1,.7,-.2,1c-.6,1,-1.8,1.9,-3.3,1.9h-.7Zm-.7,2.4l.6,-2.1h1c2,0,3.7,-.6,4.4,-1.9c.3,-.4,.4,-.8,.4,-1.3c0,-.7,-.3,-1.2,-1,-1.7c-.6,-.4,-1.5,-.6,-2.7,-.6h-3.7v.2c.2,0,.5,.1,.6,.1c.5,.1,.7,.5,.7,1c0,.2,-.1,.6,-.2,1l-1.6,5.9c-.1,.6,-.4,1.2,-.7,1.5c-.2,.3,-.6,.4,-1.1,.4v.3h4.4l.1,-.3c-1,0,-1.5,-.5,-1.5,-1c0,-.2,.1,-.5,.1,-.7c.1,-.2,.1,-.5,.2,-.8Z" class="g0_191"/>
<path d="M418.9,217.9c0,-.3,-.3,-.5,-.6,-.5c-.3,0,-.4,.3,-.5,.5l-.8,2.5c-.1,.1,-.1,.2,-.1,.3c0,.1,0,.2,.1,.2c.1,0,.3,-.2,.3,-.3l1.4,-2.1c.1,-.2,.2,-.4,.2,-.6Z" class="g0_191"/>
<path d="M421.8,217.9c0,-.3,-.3,-.5,-.5,-.5c-.3,0,-.5,.3,-.6,.5l-.8,2.5c0,.1,-.1,.2,-.1,.3c0,.1,.1,.2,.1,.2c.2,0,.3,-.2,.4,-.3l1.3,-2.1c.1,-.2,.2,-.4,.2,-.6Z" class="g0_191"/>
<path d="M428.9,220.7c-2.1,1.4,-3.7,3.8,-3.7,6.8c0,2.8,1.6,5.6,3.7,6.9l.1,-.3c-1.9,-1.5,-2.5,-3.3,-2.5,-6.6c0,-3.3,.6,-5,2.5,-6.6l-.1,-.2Z" class="g0_191"/>
<path d="M434.3,231.2c-2,0,-2,-2.7,-2,-4.9c0,-2.2,0,-5.1,2,-5.1c1.9,0,1.9,2.9,1.9,5.1c0,2.2,0,4.9,-1.9,4.9Zm0,-10.3c-2.6,0,-3.4,2.7,-3.4,5.4c0,2.6,.8,5.2,3.4,5.2c2.5,0,3.3,-2.6,3.3,-5.2c0,-2.7,-.7,-5.4,-3.3,-5.4Z" class="g0_191"/>
<path d="M439,220.7l-.1,.2c1.9,1.6,2.5,3.3,2.5,6.6c0,3.3,-.6,5.1,-2.5,6.6l.2,.3c2,-1.3,3.6,-4.1,3.6,-6.9c0,-3,-1.5,-5.4,-3.7,-6.8Z" class="g0_191"/>
<path d="M448.9,229.5h7.6v-.9h-7.6Zm0,-3.1h7.6v-.8h-7.6Z" class="g0_191"/>
<path d="M462.2,228h7.6v-.9h-7.6Z" class="g0_191"/>
<path d="M472.7,221.7v.2c.5,0,1.1,0,1.3,.1c.5,.3,.5,.4,.5,1.1v6.5c0,.3,0,.6,-.1,.7c-.1,.7,-.9,.8,-1.6,.8v.3h4.7v-.3c-.5,0,-1.2,0,-1.5,-.3c-.2,-.3,-.2,-.8,-.2,-1.3v-8.6c-.8,.4,-2.1,.7,-3.1,.8Z" class="g0_191"/>
<path clip-path="url(#c0_191)" d="M406.9,251.4l.9,-3.6c.1,-.5,.3,-1.1,.7,-1.3c.1,0,.3,0,.4,0c1.5,0,2.2,.9,2.2,1.9c0,.4,-.1,.8,-.3,1.1c-.5,1,-1.7,1.9,-3.3,1.9h-.6Zm-.7,2.4l.6,-2.1h.9c2.1,0,3.8,-.6,4.5,-1.9c.3,-.4,.4,-.8,.4,-1.3c0,-.7,-.3,-1.3,-1,-1.7c-.6,-.4,-1.5,-.6,-2.7,-.6h-3.7l-.1,.2c.3,0,.5,0,.7,.1c.4,0,.6,.5,.6,1c0,.2,0,.5,-.1,1l-1.6,5.9c-.2,.5,-.4,1.2,-.7,1.5c-.3,.2,-.7,.4,-1.1,.4v.2h4.4l.1,-.2c-1.1,0,-1.5,-.5,-1.5,-1.1c0,-.1,0,-.4,.1,-.6c.1,-.2,.1,-.5,.2,-.8Z" class="g0_191"/>
<path d="M416,243.1c0,-.3,-.3,-.5,-.6,-.5c-.3,0,-.4,.3,-.5,.5l-.9,2.5c0,.1,0,.2,0,.3c0,.1,0,.2,.1,.2c.1,0,.2,-.2,.3,-.3l1.3,-2.1c.2,-.2,.3,-.4,.3,-.6Z" class="g0_191"/>
<path d="M418.9,243.1c0,-.3,-.3,-.5,-.6,-.5c-.3,0,-.4,.3,-.5,.5l-.8,2.5c-.1,.1,-.1,.2,-.1,.3c0,.1,0,.2,.1,.2c.1,0,.3,-.2,.3,-.3l1.4,-2.1c.1,-.2,.2,-.4,.2,-.6Z" class="g0_191"/>
<path d="M421.8,243.1c0,-.3,-.3,-.5,-.5,-.5c-.3,0,-.5,.3,-.6,.5l-.8,2.5c0,.1,-.1,.2,-.1,.3c0,.1,.1,.2,.1,.2c.2,0,.3,-.2,.4,-.3l1.3,-2.1c.1,-.2,.2,-.4,.2,-.6Z" class="g0_191"/>
<path d="M428.9,245.9c-2.1,1.4,-3.7,3.8,-3.7,6.8c0,2.8,1.6,5.6,3.7,6.8l.1,-.2c-1.9,-1.5,-2.5,-3.3,-2.5,-6.6c0,-3.3,.6,-5,2.5,-6.6l-.1,-.2Z" class="g0_191"/>
<path d="M434.3,256.4c-2,0,-2,-2.7,-2,-4.9c0,-2.2,0,-5.2,2,-5.2c1.9,0,1.9,3,1.9,5.2c0,2.2,0,4.9,-1.9,4.9Zm0,-10.3c-2.6,0,-3.4,2.7,-3.4,5.4c0,2.6,.8,5.2,3.4,5.2c2.5,0,3.3,-2.6,3.3,-5.2c0,-2.7,-.7,-5.4,-3.3,-5.4Z" class="g0_191"/>
<path d="M439,245.9l-.1,.2c1.9,1.6,2.5,3.3,2.5,6.6c0,3.3,-.6,5.1,-2.5,6.6l.2,.2c2,-1.2,3.6,-4,3.6,-6.8c0,-3,-1.5,-5.4,-3.7,-6.8Z" class="g0_191"/>
<path d="M448.9,254.6h7.6v-.8h-7.6Zm0,-3h7.6v-.8h-7.6Z" class="g0_191"/>
<path d="M467.3,253.1c0,1.7,-.3,3.3,-1.8,3.3c-1.3,0,-1.9,-1.7,-1.9,-3.9v-.7c.5,-.9,1,-1.8,2.1,-1.8c1.3,0,1.6,1.7,1.6,3.1Zm1.2,-5.6c0,-.7,-1.3,-1.4,-2.3,-1.4c-3.2,0,-4.1,2.8,-4.1,5.9c0,2.5,1,4.7,3.3,4.7c2.1,0,3.4,-1.6,3.4,-3.6c0,-2,-1.1,-3.4,-3,-3.4c-1,0,-1.6,.6,-2.1,1.3c0,-1.2,-.1,-2.4,.3,-3.1c.4,-.6,1,-1.6,2,-1.6c1.5,0,1,1.8,1.9,1.8c.5,0,.6,-.2,.6,-.6Z" class="g0_191"/>
<path d="M310.5,335.6c0,1.1,-.3,2.2,-1.3,2.2c-.8,0,-1.2,-1.2,-1.2,-2.7v-.4c.3,-.6,.6,-1.2,1.3,-1.2c.9,0,1.2,1.1,1.2,2.1Zm-.4,-4.8h-.9c-1.7,.3,-2.3,2.1,-2.3,4c0,1.7,.7,3.2,2.3,3.2c1.4,0,2.3,-1.1,2.3,-2.5c0,-1.3,-.8,-2.2,-2.1,-2.2c-.6,0,-1.1,.4,-1.4,.8c0,-.8,0,-1.6,.2,-2.1c.3,-.4,.7,-1,1.3,-1c1.1,0,.8,1.2,1.4,1.2c.3,0,.4,-.1,.4,-.4c0,-.4,-.6,-.8,-1.2,-1Z" class="g0_191"/>
<path d="M306.4,340.2H312v-.8h-5.6Z" class="g0_191"/>
<path d="M310.5,345.8c0,1.1,-.3,2.2,-1.3,2.2c-.8,0,-1.2,-1.1,-1.2,-2.6v-.5c.3,-.6,.6,-1.2,1.3,-1.2c.9,0,1.2,1.1,1.2,2.1Zm-1.3,2.4v0c1.4,0,2.3,-1,2.3,-2.4c0,-1.3,-.8,-2.3,-2.1,-2.3c-.6,0,-1.1,.4,-1.4,.9v-.1c0,-.7,0,-1.5,.2,-2c.3,-.4,.7,-1.1,1.3,-1.1c1.1,0,.8,1.2,1.4,1.2c.3,0,.4,-.1,.4,-.4c0,-.5,-.9,-1,-1.6,-1c-2.1,0,-2.8,1.9,-2.8,4.1c0,1.6,.7,3.1,2.3,3.1Z" class="g0_191"/>
<path d="M318.1,341.6h7.1v-.8h-7.1Zm0,-2.8h7.1V338h-7.1Z" class="g0_191"/>
<path d="M331.4,334.3v.2c.4,0,1,.1,1.2,.2c.5,.2,.4,.4,.5,.9v6.1c0,.3,-.1,.5,-.1,.7c-.1,.6,-.8,.7,-1.5,.7v.2h4.3v-.2c-.4,0,-1.1,0,-1.3,-.3c-.2,-.2,-.2,-.7,-.2,-1.2v-8c-.8,.4,-2,.7,-2.9,.7Z" class="g0_191"/>
<path d="M271.3,355.2h5.2v-.5h-5.2Z" class="g0_191"/>
<path d="M278.9,351v.1c.3,0,.7,.1,.9,.1c.3,.2,.3,.3,.3,.7v4.4c0,.3,0,.4,-.1,.6c0,.4,-.6,.5,-1.1,.5v.2h3.2v-.2c-.3,0,-.8,0,-1,-.2c-.1,-.2,-.1,-.5,-.1,-.9v-5.8h-.1c-.6,.3,-1.4,.5,-2,.5Z" class="g0_191"/>
<path d="M270.3,359.8h12.9v-.7H270.3Z" class="g0_191"/>
<path d="M276.4,363.5c-.7,0,-1,-.5,-1,-1.1c0,-.7,.4,-1.5,1.2,-1.5c1.1,0,1.2,.9,1.2,1.7c0,.9,-.2,1.4,-.6,2c-.3,.4,-.7,.8,-1.1,1.3c-.4,.4,-1,1,-1.7,1.6v.3h4.2l.4,-1.9h-.3c-.1,.2,-.2,.3,-.2,.5c-.2,.3,-.5,.5,-1,.5h-1.9v-.1c.4,-.3,.9,-.6,1.3,-.9c.7,-.6,1.4,-1.3,1.8,-2.1c.1,-.4,.2,-.8,.2,-1.1c0,-.3,0,-.6,-.1,-.8c-.4,-.7,-1,-1.2,-2.1,-1.2c-.6,0,-1.2,.2,-1.6,.5c-.3,.3,-.6,.8,-.6,1.4c0,.4,.1,.7,.3,1c.2,.2,.5,.3,.9,.3c.3,0,.6,-.1,.7,-.4Z" class="g0_191"/>
<path d="M364.4,433.2l1,-3.6c.1,-.5,.3,-1.1,.7,-1.3c.1,0,.2,0,.4,0c1.5,0,2.2,.8,2.2,1.9c0,.4,-.1,.7,-.3,1.1c-.5,.9,-1.8,1.9,-3.3,1.9h-.7Zm-.6,2.3l.6,-2h.9c2.1,0,3.8,-.7,4.5,-1.9c.2,-.4,.4,-.8,.4,-1.3c0,-.7,-.4,-1.3,-1,-1.7c-.6,-.4,-1.5,-.6,-2.7,-.6h-3.7l-.1,.2c.3,0,.5,0,.7,.1c.4,0,.6,.5,.6,1c0,.2,0,.5,-.1,1l-1.6,5.9c-.2,.5,-.4,1.2,-.7,1.5c-.3,.2,-.7,.4,-1.1,.4v.2h4.4l.1,-.2c-1.1,0,-1.5,-.5,-1.5,-1.1c0,-.1,0,-.4,.1,-.6c0,-.3,.1,-.6,.2,-.9Z" class="g0_191"/>
<path d="M376.2,427.7c-2.1,1.4,-3.6,3.8,-3.6,6.8c0,2.8,1.5,5.6,3.6,6.8l.2,-.2c-2,-1.6,-2.6,-3.4,-2.6,-6.6c0,-3.3,.6,-5.1,2.6,-6.6l-.2,-.2Z" class="g0_191"/>
<path d="M384.6,432.8c0,-.5,-.4,-1,-1,-1c-.3,0,-.6,.2,-.9,.4c-.4,.2,-.7,.5,-.9,.9c0,-.7,-.4,-1.3,-1,-1.3c-1.2,0,-2.1,1.2,-2.5,2l.2,.1c.4,-.5,1.1,-1.7,2,-1.7c.3,0,.4,.6,.4,1c0,.3,-.1,.7,-.2,1.1l-.4,1.2c-.1,.6,-.4,1.4,-.7,1.8c-.1,.3,-.4,.7,-.8,.7c-.4,0,-.7,-.1,-.6,-.5c.1,-.3,0,-.8,-.4,-.8c-.4,0,-.6,.4,-.6,.8c0,.6,.4,.9,1,.9c1,0,1.8,-.7,2.2,-1.4c.1,.8,.5,1.4,1.3,1.4c1.2,0,2,-1.1,2.5,-1.8l-.2,-.2c-.5,.7,-1.2,1.7,-2,1.7c-.4,0,-.6,-.6,-.6,-1.2c0,-.4,0,-.8,.1,-1.4l.2,-.7c.1,-.6,.4,-1.2,.6,-1.6c.2,-.3,.6,-1,1,-1c.4,0,.4,.3,.3,.6c0,.5,.2,.6,.5,.6c.4,0,.5,-.3,.5,-.6Z" class="g0_191"/>
<path d="M385.9,427.7l-.1,.2c1.9,1.5,2.5,3.3,2.5,6.6c0,3.2,-.6,5,-2.5,6.6l.1,.2c2.1,-1.2,3.7,-4,3.7,-6.8c0,-3,-1.6,-5.4,-3.7,-6.8Z" class="g0_191"/>
<path d="M395.8,436.4h7.6v-.8h-7.6Zm0,-3h7.6v-.8h-7.6Z" class="g0_191"/>
<path d="M415.4,432.8c0,-.5,-.5,-1,-1,-1c-.4,0,-.7,.2,-1,.4c-.3,.2,-.6,.5,-.8,.9c0,-.7,-.5,-1.3,-1.1,-1.3c-1.1,0,-2.1,1.2,-2.4,2l.2,.1c.3,-.5,1.1,-1.7,2,-1.7c.2,0,.3,.6,.3,1c0,.3,0,.7,-.2,1.1l-.3,1.2c-.2,.6,-.4,1.4,-.7,1.8c-.2,.3,-.5,.7,-.8,.7c-.4,0,-.8,-.1,-.7,-.5c.1,-.3,.1,-.8,-.4,-.8c-.4,0,-.6,.4,-.6,.8c0,.6,.5,.9,1.1,.9c1,0,1.7,-.7,2.1,-1.4c.1,.8,.5,1.4,1.4,1.4c1.1,0,2,-1.1,2.4,-1.8l-.2,-.2c-.5,.7,-1.1,1.7,-1.9,1.7c-.5,0,-.7,-.6,-.7,-1.2c0,-.4,.1,-.8,.2,-1.4l.2,-.7c.1,-.6,.3,-1.2,.6,-1.6c.2,-.3,.6,-1,.9,-1c.4,0,.4,.3,.4,.6c0,.5,.1,.6,.4,.6c.4,0,.6,-.3,.6,-.6Z" class="g0_191"/>
<path d="M418.9,432.1c-.7,0,-1.3,-.7,-1.3,-1.4c0,-.6,.4,-1,.9,-1c-.1,-.3,-.4,-.4,-.8,-.4c-.1,0,-.3,0,-.4,.1c-.4,.1,-.7,.6,-.7,1.1c0,.3,.1,.5,.2,.7c.4,.7,1.1,1.1,2.1,1.1c.8,0,1.5,-.3,1.9,-.7c.4,-.3,.7,-.8,.7,-1.5c0,-.2,0,-.4,-.1,-.7c-.3,-.6,-.8,-1.1,-1.6,-1.3c.5,-.1,.8,-.4,1.1,-.7c.2,-.3,.4,-.7,.4,-1.1c0,-.3,0,-.5,-.2,-.8c-.3,-.6,-1.1,-1,-2.1,-1c-.6,0,-1.2,.1,-1.5,.4c-.3,.2,-.6,.5,-.6,1c0,.3,.1,.6,.3,.7c.1,.2,.4,.3,.7,.3c.1,0,.3,0,.4,-.1c.2,0,.2,-.1,.3,-.2c-.4,0,-.7,-.4,-.7,-.8c0,-.6,.4,-1.1,1.1,-1.1c.7,0,1.1,.7,1.1,1.6c0,.9,-.2,1.8,-1,1.8c-.2,-.1,-.4,-.2,-.6,-.2c-.2,0,-.6,.1,-.6,.3c0,.2,.4,.3,.6,.3c.2,0,.5,-.1,.7,-.2c.9,0,1.1,.8,1.1,1.8c0,1,-.4,2,-1.4,2Z" class="g0_191"/>
<path d="M427.2,434.9h7.6v-.8h-7.6Z" class="g0_191"/>
<path d="M442.8,418.5v.2c.4,0,1.1,.1,1.3,.2c.5,.2,.4,.4,.5,1v6.5c0,.3,-.1,.6,-.1,.8c-.1,.7,-.9,.8,-1.6,.8v.2h4.7V428c-.5,0,-1.3,0,-1.5,-.3c-.2,-.3,-.2,-.8,-.2,-1.4v-8.5c-.8,.4,-2.1,.7,-3.1,.7Z" class="g0_191"/>
<path d="M440.8,434.9h8.4v-.8h-8.4Z" class="g0_191"/>
<path d="M444.4,442.2c-.9,0,-1.4,-.7,-1.4,-1.6c0,-1.1,.5,-2.2,1.8,-2.2c1.6,0,1.8,1.3,1.8,2.6c0,1.2,-.4,2,-1,2.9c-.4,.5,-.9,1.1,-1.5,1.8c-.7,.7,-1.5,1.5,-2.6,2.4v.4h6.3l.5,-2.8h-.4c-.1,.3,-.3,.6,-.3,.8c-.3,.5,-.7,.7,-1.4,.7h-2.9c.6,-.5,1.3,-1,1.9,-1.5c1,-.9,2.1,-1.9,2.6,-3.1c.3,-.5,.4,-1.1,.4,-1.6c0,-.4,-.1,-.8,-.2,-1.2c-.5,-1,-1.5,-1.7,-3,-1.7c-1,0,-1.8,.3,-2.4,.8c-.5,.4,-1,1.1,-1,2c0,.6,.2,1.1,.6,1.4c.2,.3,.6,.6,1.2,.6c.5,0,.9,-.3,1,-.7Z" class="g0_191"/>
<path d="M458.2,432.8c0,-.5,-.5,-1,-1,-1c-.3,0,-.7,.2,-1,.4c-.3,.2,-.6,.5,-.8,.9c0,-.7,-.4,-1.3,-1.1,-1.3c-1.1,0,-2.1,1.2,-2.4,2l.2,.1c.3,-.5,1.1,-1.7,2,-1.7c.2,0,.4,.6,.4,1c0,.3,-.1,.7,-.3,1.1l-.3,1.2c-.2,.6,-.4,1.4,-.7,1.8c-.2,.3,-.4,.7,-.8,.7c-.4,0,-.7,-.1,-.6,-.5c.1,-.3,0,-.8,-.4,-.8c-.5,0,-.7,.4,-.7,.8c0,.6,.5,.9,1.1,.9c1,0,1.7,-.7,2.1,-1.4c.2,.8,.6,1.4,1.4,1.4c1.2,0,2,-1.1,2.4,-1.8l-.2,-.2c-.4,.7,-1.1,1.7,-1.9,1.7c-.5,0,-.7,-.6,-.7,-1.2c0,-.4,.1,-.8,.2,-1.4l.2,-.7c.1,-.6,.3,-1.2,.6,-1.6c.2,-.3,.6,-1,.9,-1c.5,0,.4,.3,.4,.6c0,.5,.1,.6,.5,.6c.3,0,.5,-.3,.5,-.6Z" class="g0_191"/>
<path d="M461.5,427.5c-.7,0,-1.1,-.5,-1.1,-1.2c0,-.8,.5,-1.6,1.4,-1.6c1.2,0,1.3,1,1.3,1.9c0,.9,-.3,1.5,-.7,2.1c-.3,.4,-.7,.9,-1.1,1.4c-.5,.5,-1.1,1.1,-1.9,1.7v.4H464l.3,-2.1H464c0,.2,-.1,.4,-.2,.5c-.2,.4,-.5,.6,-1,.6h-2.1v-.1c.5,-.3,.9,-.7,1.4,-1c.7,-.7,1.5,-1.4,1.9,-2.3c.2,-.4,.3,-.8,.3,-1.2c0,-.3,-.1,-.6,-.2,-.8c-.4,-.8,-1.1,-1.3,-2.2,-1.3c-.7,0,-1.3,.3,-1.7,.6c-.4,.3,-.7,.8,-.7,1.4c0,.5,.1,.9,.4,1.1c.2,.2,.5,.4,.9,.4c.4,0,.7,-.2,.7,-.5Z" class="g0_191"/>
<path d="M470,434.9h7.6v-.8H470Z" class="g0_191"/>
<path d="M485.5,431.9c-1,0,-1.5,-.6,-1.5,-1.5c0,-1.1,.6,-2.3,1.8,-2.3c1.6,0,1.8,1.4,1.8,2.6c0,1.3,-.4,2,-1,2.9c-.3,.6,-.9,1.2,-1.5,1.9c-.7,.7,-1.5,1.5,-2.5,2.4v.4h6.2l.5,-2.8h-.4c-.1,.3,-.2,.5,-.3,.7c-.2,.5,-.7,.8,-1.4,.8h-2.9v-.1c.6,-.4,1.3,-.9,1.9,-1.4c1,-.9,2.1,-1.9,2.7,-3.1c.2,-.5,.3,-1.1,.3,-1.6c0,-.5,-.1,-.9,-.2,-1.2c-.5,-1,-1.5,-1.8,-3,-1.8c-1,0,-1.8,.4,-2.4,.8c-.5,.5,-.9,1.1,-.9,2c0,.7,.2,1.1,.5,1.5c.2,.3,.6,.5,1.2,.5c.6,0,1,-.2,1.1,-.7Z" class="g0_191"/>
<path d="M497.4,432.8c0,-.5,-.4,-1,-1,-1c-.3,0,-.6,.2,-.9,.4c-.4,.2,-.7,.5,-.9,.9c0,-.7,-.4,-1.3,-1,-1.3c-1.2,0,-2.1,1.2,-2.5,2l.2,.1c.4,-.5,1.1,-1.7,2,-1.7c.3,0,.4,.6,.4,1c0,.3,-.1,.7,-.2,1.1l-.4,1.2c-.1,.6,-.4,1.4,-.7,1.8c-.1,.3,-.4,.7,-.8,.7c-.4,0,-.7,-.1,-.6,-.5c.1,-.3,0,-.8,-.4,-.8c-.4,0,-.6,.4,-.6,.8c0,.6,.5,.9,1,.9c1,0,1.8,-.7,2.2,-1.4c.1,.8,.5,1.4,1.3,1.4c1.2,0,2,-1.1,2.5,-1.8l-.2,-.2c-.5,.7,-1.2,1.7,-2,1.7c-.4,0,-.6,-.6,-.6,-1.2c0,-.4,0,-.8,.1,-1.4l.2,-.7c.1,-.6,.4,-1.2,.6,-1.6c.2,-.3,.6,-1,1,-1c.4,0,.4,.3,.3,.6c0,.5,.2,.6,.5,.6c.4,0,.5,-.3,.5,-.6Z" class="g0_191"/>
<path d="M505.1,434.1h-3.2v.9h3.2v3.3h1V435h3.3v-.9h-3.3v-3.3h-1v3.3Z" class="g0_191"/>
<path d="M515.1,428.6v.2c.5,0,1.1,.1,1.3,.2c.5,.2,.5,.4,.5,1v6.5c0,.3,0,.6,-.1,.8c0,.7,-.8,.8,-1.6,.8v.2h4.7v-.2c-.5,0,-1.2,-.1,-1.5,-.3c-.2,-.3,-.2,-.8,-.2,-1.4v-8.5c-.8,.4,-2.1,.7,-3.1,.7Z" class="g0_191"/>
<image clip-path="url(#c1_191)" preserveAspectRatio="none" x="157" y="656" width="235" height="235" xlink:href="img/1.jpg"/>
</svg>