<?xml version="1.0" encoding="UTF-8" standalone="no"?>
<!DOCTYPE svg PUBLIC "-//W3C//DTD SVG 1.1//EN"
"http://www.w3.org/Graphics/SVG/1.1/DTD/svg11.dtd">
<svg viewBox="0 0 811 1017" version="1.1" xmlns="http://www.w3.org/2000/svg" xmlns:xlink="http://www.w3.org/1999/xlink">
<defs>
<clipPath id="c0_138"><path d="M372.3,286.6V251.5H480.8v35.1Z"/></clipPath>
<style type="text/css"><![CDATA[
.g0_138{
fill: #0E0E0E;
}
]]></style>
</defs>
<path d="M380.8,267.6h-3l4.1,-4.9c-.4,1.6,-.8,3.4,-1.1,4.9Zm.7,2.5l1.9,-8.5h-1.1l-6.2,7.6c-.4,.5,-.7,.9,-1.1,1.2c-.2,.4,-.5,.6,-.8,.8c-.3,.2,-.6,.4,-.8,.5c-.2,.1,-.4,.2,-.6,.2l-.1,.2h3.5v-.2c-.3,0,-.7,-.1,-.8,-.1c-.2,-.1,-.4,-.2,-.4,-.4c0,-.2,0,-.3,.2,-.5c.4,-.5,.8,-.9,1.2,-1.5l1.1,-1.4h3.2l-.5,2.2c-.1,.3,-.2,.6,-.2,.9c-.1,.2,-.2,.3,-.3,.5c-.1,.1,-.3,.1,-.4,.2c-.2,0,-.4,.1,-.7,.1l-.1,.2h4l.1,-.2c-.5,0,-.8,-.1,-1,-.3c-.1,-.1,-.2,-.3,-.2,-.5c0,-.2,0,-.6,.1,-1Z" class="g0_138"/>
<path d="M385.4,263.4h5.5v-.6h-5.5Z" class="g0_138"/>
<path d="M393.5,258.8v.2c.3,0,.8,0,1,.1c.3,.2,.3,.3,.3,.8v4.7c0,.2,0,.4,0,.6c-.1,.5,-.7,.5,-1.2,.6v.1H397v-.1c-.4,-.1,-.9,-.1,-1.1,-.3c-.1,-.2,-.1,-.5,-.1,-1v-6.2c-.6,.3,-1.6,.5,-2.3,.5Z" class="g0_138"/>
<path d="M403.7,270.2h7.6v-.8h-7.6Zm0,-3h7.6v-.9h-7.6Z" class="g0_138"/>
<path clip-path="url(#c0_138)" d="M436.8,252.3v.2c.4,0,1.1,.1,1.3,.2c.4,.2,.4,.4,.4,1v6.5c0,.3,0,.6,0,.8c-.1,.6,-.9,.7,-1.7,.8v.2h4.7v-.2c-.5,-.1,-1.2,-.1,-1.4,-.4c-.2,-.3,-.3,-.7,-.3,-1.3v-8.6c-.7,.4,-2.1,.7,-3,.8Z" class="g0_138"/>
<path d="M417.8,268.7h42.3v-.9H417.8Z" class="g0_138"/>
<path d="M421.5,276.1c.7,0,1.3,.3,1.6,.7c.3,.4,.3,.8,.3,1.5v1.6c0,1,-.2,1.5,-.6,1.8c-.3,.3,-.7,.4,-1.3,.4c-1.3,0,-1.7,-1.6,-1.7,-3c0,-1.5,.4,-3,1.7,-3Zm0,-.3c-.9,0,-1.7,.4,-2.2,1c-.5,.5,-.9,1.3,-.9,2.3c0,1.9,1.2,3.3,3.1,3.3c.5,0,.9,0,1.2,-.2c.5,-.4,.5,-.5,.8,-.9h.1v1.1l2,-.1v-.2c-.2,0,-.3,0,-.4,0c-.6,-.1,-.6,-.7,-.6,-1.4c0,-.3,0,-.9,0,-1.4v-7.9l-2.5,.4v.2c.4,0,.7,.1,.9,.3c.3,.2,.4,.5,.4,1c.1,.3,0,.7,0,1.1v2.2c-.5,-.5,-1,-.8,-1.9,-.8Z" class="g0_138"/>
<path d="M431,277.7c0,0,0,.1,0,.2c-.1,.2,-.5,.1,-.8,.1H428c.2,-1,.7,-1.9,1.7,-1.9c1,0,1.3,.8,1.3,1.6Zm-1,4.4c-1.4,0,-2.1,-1.5,-2.1,-3.1c0,-.2,0,-.6,.1,-.7h3.9c.3,0,.4,0,.4,-.2c0,-1.6,-.9,-2.3,-2.5,-2.3c-.4,0,-.9,.1,-1.3,.3c-1.1,.5,-2,1.5,-2,3.1c0,1.9,1.3,3.3,3.2,3.2c1.4,0,1.7,-.4,2.5,-1.2l-.1,-.2c-.5,.6,-1.2,1.1,-2.1,1.1Z" class="g0_138"/>
<path d="M435.7,282.4c.8,0,1.2,-.2,1.6,-.9l-.2,-.1c-.2,.3,-.5,.7,-1,.7c-.8,0,-.9,-.5,-.9,-1.8v-4.1h1.6v-.3h-1.6V274h-.1c-.3,.8,-1,1.6,-1.8,2.1v.1h.8V281c0,1,.6,1.4,1.6,1.4Z" class="g0_138"/>
<path d="M442.5,271.7c-2.1,1.4,-3.6,3.8,-3.6,6.8c0,2.8,1.5,5.5,3.6,6.8l.2,-.2c-2,-1.6,-2.6,-3.4,-2.6,-6.7c0,-3.3,.7,-5,2.6,-6.5l-.2,-.2Z" class="g0_138"/>
<path d="M450.9,277.9H448l4,-5c-.3,1.6,-.7,3.4,-1.1,5Zm.7,2.4l2,-8.5h-1.1l-6.2,7.6c-.4,.5,-.8,.9,-1.1,1.2c-.3,.4,-.6,.6,-.8,.8c-.3,.2,-.6,.4,-.8,.5c-.2,.2,-.4,.2,-.7,.2v.2h3.4l.1,-.2c-.4,0,-.7,0,-.9,-.1c-.1,-.1,-.3,-.2,-.3,-.4c0,-.2,0,-.3,.2,-.5c.4,-.5,.7,-.9,1.2,-1.5l1.1,-1.4h3.1l-.4,2.2c-.1,.3,-.2,.7,-.3,.9c-.1,.2,-.2,.4,-.3,.5c-.1,.1,-.2,.2,-.4,.2c-.2,.1,-.4,.1,-.6,.1l-.1,.2h3.9l.1,-.2c-.5,0,-.8,-.1,-1,-.3c-.1,-.1,-.2,-.2,-.2,-.5c0,-.2,0,-.5,.1,-1Z" class="g0_138"/>
<path d="M455,271.7l-.1,.2c1.9,1.5,2.5,3.2,2.5,6.5c0,3.3,-.6,5.1,-2.5,6.7l.1,.2c2.1,-1.3,3.7,-4,3.7,-6.8c0,-3,-1.6,-5.4,-3.7,-6.8Z" class="g0_138"/>
<path d="M470.6,269.6l-.2,-.2c-.8,1.2,-1.8,2.5,-3.4,2.5c-1.8,0,-2.6,-1.6,-2.6,-3.8c0,-.9,.1,-1.6,.3,-2.3c.5,-1.7,1.7,-3.9,3.9,-3.9c1.5,0,2.2,1.6,2.3,3.2h.3l.7,-3.4h-.4l-.6,.7c-.7,-.5,-1.4,-.8,-2.4,-.8c-1.8,0,-3.1,1,-4,2c-.6,.6,-1,1.2,-1.3,2c-.3,.8,-.4,1.6,-.4,2.4c0,.7,0,1.3,.2,1.8c.2,.5,.5,.9,.8,1.3c.3,.3,.8,.6,1.2,.8c.5,.2,1.1,.3,1.7,.3c1.9,0,3,-1.2,3.9,-2.6Z" class="g0_138"/>
<path d="M475.9,264.4l1.2,-4.5c0,-.3,.1,-.5,.1,-.6c.2,-.4,.4,-.7,1,-.7c1.2,0,1.5,.7,1.5,1.9h.2l.2,-2.1h-6.5l-.9,2.1h.2c.6,-1,1.2,-1.9,2.7,-1.9c.4,0,.6,.2,.6,.6c0,.2,-.1,.4,-.1,.6l-1.3,4.7c-.1,.5,-.4,1.1,-.9,1.2c-.2,0,-.3,.1,-.5,.1l-.1,.1h3.4l.1,-.1c-.4,0,-.7,-.1,-.9,-.2c-.2,-.1,-.2,-.3,-.2,-.6c0,-.2,.1,-.4,.2,-.6Z" class="g0_138"/>
</svg>