<?xml version="1.0" encoding="UTF-8" standalone="no"?>
<!DOCTYPE svg PUBLIC "-//W3C//DTD SVG 1.1//EN"
"http://www.w3.org/Graphics/SVG/1.1/DTD/svg11.dtd">
<svg viewBox="0 0 811 1017" version="1.1" xmlns="http://www.w3.org/2000/svg" xmlns:xlink="http://www.w3.org/1999/xlink">
<defs>
<style type="text/css"><![CDATA[
.g0_327{
fill: #0E0E0E;
}
]]></style>
</defs>
<path d="M338.7,185.1c1.3,0,.9,1.9,.4,3.3c-.3,.8,-1.3,2.7,-2.4,2.7c-.5,0,-.7,-.3,-.7,-1c0,-.7,.3,-1.8,.5,-2.4c.3,-.5,.8,-1.5,1.2,-2c.2,-.3,.6,-.6,1,-.6Zm-2.2,6.3c1.7,0,2.9,-1.5,3.5,-2.6c.3,-.6,.6,-1.4,.6,-2.3c0,-1,-.5,-1.7,-1.5,-1.7c-.9,0,-1.6,.6,-2,1.2v-.1l1.5,-5.5l-2.1,.1v.2c.6,0,.8,.3,.8,.6c0,.1,-.1,.5,-.1,.7l-1.6,5.7c-.2,.5,-.3,1,-.4,1.3c-.1,.4,-.1,.7,-.1,.9c0,.9,.5,1.5,1.4,1.5Z" class="g0_327"/>
<path d="M343,189.6c0,-2.5,.9,-4.5,2.3,-4.5c.6,0,1,.4,1,1.1c0,.5,0,1,-.2,1.7c-.3,1,-1,3.2,-2.2,3.2c-.5,0,-.9,-.8,-.9,-1.5Zm.9,1.8c1,0,1.8,-.8,2.3,-1.4c.6,-.7,1.1,-1.7,1.1,-2.9c0,-.7,-.2,-1.3,-.5,-1.7c-.4,-.3,-.8,-.6,-1.5,-.6c-.4,0,-.8,.1,-1.2,.4c-.9,.4,-1.5,1.3,-1.9,2.2c-.2,.6,-.3,1.1,-.3,1.6c0,.7,.2,1.4,.6,1.8c.3,.3,.7,.6,1.4,.6Z" class="g0_327"/>
<path d="M355.4,185.8c0,-.6,-.4,-1,-1,-1c-.3,0,-.6,.1,-.9,.3c-.4,.3,-.7,.6,-.9,.9c0,-.6,-.4,-1.2,-1,-1.2c-1.2,0,-2.1,1.2,-2.5,2l.2,.1c.4,-.5,1.1,-1.7,2,-1.7c.3,0,.4,.5,.4,1c0,.3,-.1,.6,-.2,1.1l-.4,1.2c-.1,.6,-.4,1.4,-.7,1.8c-.1,.2,-.4,.6,-.8,.6c-.4,0,-.7,-.1,-.6,-.5c.1,-.3,0,-.7,-.4,-.7c-.4,0,-.6,.3,-.6,.8c0,.5,.5,.9,1,.9c1,0,1.8,-.8,2.2,-1.4c.1,.8,.5,1.4,1.3,1.4c1.2,0,2,-1.1,2.5,-1.8l-.2,-.2c-.5,.6,-1.2,1.6,-2,1.6c-.4,0,-.6,-.6,-.6,-1.2c0,-.3,0,-.8,.1,-1.3l.2,-.7c.1,-.6,.4,-1.3,.6,-1.7c.2,-.2,.6,-.9,1,-.9c.4,0,.4,.3,.3,.6c0,.4,.2,.6,.5,.6c.4,0,.5,-.3,.5,-.6Z" class="g0_327"/>
<path d="M361.3,180.6c-2.2,1.4,-3.7,3.8,-3.7,6.9c0,2.7,1.6,5.5,3.6,6.8l.2,-.3c-2,-1.5,-2.5,-3.3,-2.5,-6.6c0,-3.3,.6,-5,2.5,-6.5l-.1,-.3Z" class="g0_327"/>
<path d="M367.5,184.8c-.5,0,-1,.1,-1.5,.4c-.5,.3,-1,.7,-1.4,1.2c-.7,.8,-1.4,2,-1.4,3.3c0,1,.4,1.7,1.5,1.7c1.4,0,2.1,-.9,2.5,-1.6c-.2,.8,-.2,1.6,.7,1.6c1.2,0,2,-1,2.6,-1.9l-.2,-.2c-.3,.4,-1,1.4,-1.4,1.4c-.2,0,-.3,-.4,-.3,-.6c0,-.7,.6,-2.3,.9,-3.2l.7,-1.9l-1.3,-.1l-.3,.7c-.1,-.4,-.4,-.8,-1.1,-.8Zm.1,.4c.9,0,.5,1.3,.4,1.8c-.1,.3,-.2,.6,-.4,1c-.4,1.1,-1.5,2.9,-2.3,2.9c-.6,0,-.7,-.9,-.7,-1.4c0,-.4,.1,-.8,.3,-1.3c.4,-.9,1.4,-3,2.7,-3Z" class="g0_327"/>
<path d="M372.9,190.5c0,.4,.3,.8,.7,.8c.2,0,.3,0,.4,-.1c0,.4,-.1,.7,-.3,1c-.2,.3,-.5,.7,-1,1l.3,.4c.3,-.2,.6,-.4,.8,-.7c.6,-.4,1,-.9,1,-1.9c0,-.9,-.3,-1.3,-1,-1.3c-.5,0,-.9,.3,-.9,.8Z" class="g0_327"/>
<path d="M383.8,185.3c1.7,0,.6,2.5,.4,3.1c-.4,.7,-1.1,2.6,-2.2,2.6c-.5,0,-.7,-.3,-.8,-1c0,-.7,.3,-1.7,.5,-2.2c.2,-.6,.7,-1.5,1,-1.9c.3,-.3,.6,-.6,1.1,-.6Zm-2.3,6.1c2.1,0,3.3,-1.4,3.9,-2.6c.4,-.6,.6,-1.4,.6,-2.2c-.1,-1.1,-.9,-1.8,-1.9,-1.8c-.9,0,-1.6,.6,-1.9,1.3l.1,-.4l1.6,-5.2l-2.8,.1l-.1,.3c.7,0,.8,.3,.9,.6c0,.2,-.1,.5,-.2,.7l-1.6,5.5c-.2,.5,-.3,1,-.4,1.4c-.1,.3,-.2,.7,-.1,.8c0,.9,.9,1.5,1.9,1.5Z" class="g0_327"/>
<path d="M388.6,190.5c0,.4,.3,.8,.7,.8c.2,0,.3,0,.4,-.1c0,.4,0,.7,-.3,1c-.2,.3,-.5,.7,-1,1l.3,.4c.4,-.2,.6,-.4,.9,-.7c.5,-.4,.9,-.9,.9,-1.9c0,-.9,-.3,-1.3,-1,-1.3c-.5,0,-.9,.3,-.9,.8Z" class="g0_327"/>
<path d="M397.1,189.4c0,-.4,.1,-.9,.2,-1.3c.3,-.9,1,-2.8,2.1,-2.8c.3,0,.4,.2,.4,.3c0,.1,-.2,.2,-.2,.4c0,.3,.3,.5,.8,.5c.6,0,.9,-.2,.9,-.7c0,-.7,-.7,-1,-1.6,-1c-1.7,0,-3,1.5,-3.7,2.5c-.4,.6,-.7,1.3,-.7,2.2c0,1.1,.7,1.9,2,1.9c1.5,0,2.5,-1.1,3,-2.1l-.3,-.1c-.5,.9,-1.3,1.8,-2.2,1.8c-.6,0,-.7,-1,-.7,-1.6Z" class="g0_327"/>
<path d="M402.6,180.6l-.1,.3c1.9,1.5,2.5,3.2,2.5,6.5c0,3.3,-.6,5.1,-2.5,6.6l.2,.3c2,-1.3,3.6,-4.1,3.6,-6.8c0,-3.1,-1.5,-5.5,-3.7,-6.9Z" class="g0_327"/>
<path d="M412.5,189.4h7.6v-.8h-7.6Zm0,-3h7.6v-.9h-7.6Z" class="g0_327"/>
<path d="M429.5,185.9c0,.7,-.2,1.6,-.3,2.1c-.2,.7,-.7,1.8,-1.1,2.3c-.3,.3,-.7,.8,-1.2,.8c-.5,0,-.8,-.5,-.8,-1c0,-.6,.1,-1.8,.4,-2.3c.3,-.9,1.2,-2.7,2.4,-2.7c.4,0,.6,.4,.6,.8Zm.2,5.5c.4,0,.8,-.2,1.1,-.5c.3,-.4,.6,-1,.9,-1.8l-.3,-.1c-.2,.5,-.7,1.9,-1.3,1.9c-.3,0,-.3,-.5,-.3,-.8c0,-.1,0,-.3,0,-.5c.1,-.6,.2,-1.1,.4,-1.8c.1,-.5,.3,-1,.4,-1.6l1.6,-5.8h-2.3v.2c.4,0,.5,0,.7,.1c.2,.1,.3,.3,.3,.4c0,.3,-.1,.6,-.2,.9l-.9,3.4c-.2,-.4,-.4,-.6,-1,-.6c-1,0,-2,.9,-2.5,1.6c-.3,.3,-.5,.6,-.7,1c-.3,.6,-.6,1.3,-.6,2.1c0,.6,.2,1,.4,1.4c.3,.3,.6,.5,1.1,.5c1.4,0,1.9,-.9,2.3,-1.6h.1c0,.1,0,.2,0,.3c-.1,.1,-.1,.2,-.1,.2c0,.7,.3,1.1,.9,1.1Z" class="g0_327"/>
<path d="M436.8,185.1c.3,0,.6,.3,.6,.6c0,1.3,-1.7,2.3,-3,2.7c.3,-1,1.2,-3.3,2.4,-3.3Zm.2,-.3c-1.2,0,-2.1,.8,-2.6,1.5c-.7,.7,-1.1,1.9,-1.1,3.1c0,1.2,.4,2,1.5,2c1.1,0,2,-.7,2.6,-1.7l-.2,-.2c-.4,.6,-1.2,1.6,-2.1,1.6c-.6,0,-.8,-.5,-.8,-1.4c0,-.2,0,-.7,.1,-.9c1.4,-.3,3.9,-1.3,3.9,-3c0,-.6,-.6,-1,-1.3,-1Z" class="g0_327"/>
<path d="M440.1,191.4c1.3,0,2.1,-1.3,2.5,-2.1l-.2,-.1c-.3,.4,-.9,1.6,-1.7,1.6c-.2,0,-.3,-.5,-.3,-.6c0,-.2,.1,-.6,.2,-1l1.1,-3.9H443l.1,-.4h-1.3l.4,-1.6h-1l-.5,1.6h-1l-.1,.4h1l-.9,3.6c-.1,.4,-.2,.8,-.3,1.1c0,.3,-.1,.4,-.1,.6c0,.6,.3,.8,.8,.8Z" class="g0_327"/>
<path d="M452.6,161.6q0,-.1,-.1,-.1c-4.8,5.4,-5.4,19.2,-5.4,20.8v.7h1.4v-.7c0,-1.2,.8,-14.9,4,-20.3c.1,-.2,.1,-.3,.1,-.4Z" class="g0_327"/>
<path d="M447.1,192.2h1.4v-9.6h-1.4Z" class="g0_327"/>
<path d="M452.6,213.4c0,-.1,0,-.2,-.1,-.4c-3.2,-5.4,-4,-19.1,-4,-20.3V192h-1.4v.7c0,1.5,.6,15.4,5.4,20.7q0,.1,0,.1c.1,0,.1,-.1,.1,-.1Z" class="g0_327"/>
<path d="M459.3,161.4v-.8h-3.5v9.3h1.1V162c0,-.4,.3,-.6,.7,-.6h1.7Z" class="g0_327"/>
<path d="M455.8,178.7h1.1v-9.6h-1.1Z" class="g0_327"/>
<path d="M455.8,187.6h1.1V178h-1.1Z" class="g0_327"/>
<path d="M455.8,196.6h1.1V187h-1.1Z" class="g0_327"/>
<path d="M455.8,205.5h1.1v-9.6h-1.1Z" class="g0_327"/>
<path d="M459.3,214.3v-.8h-1.7c-.4,0,-.7,-.2,-.7,-.6v-7.8h-1.1v9.2h3.5Z" class="g0_327"/>
<path d="M464.4,166.6c-.5,0,-.9,.2,-1.3,.5c-.5,.3,-.9,.7,-1.3,1.2c-.6,.7,-1.2,1.9,-1.2,3.2c0,1,.3,1.7,1.3,1.7c1.3,0,1.8,-.8,2.2,-1.5c-.2,.9,-.1,1.5,.5,1.5c.4,0,.8,-.1,1.2,-.4c.3,-.4,.7,-.8,1,-1.4l-.1,-.1c-.3,.4,-1,1.3,-1.4,1.3c-.2,0,-.3,-.3,-.3,-.6c0,-.9,.7,-2.4,1,-3.4l.7,-1.8h-1l-.3,.6c-.1,-.4,-.4,-.8,-1,-.8Zm.1,.3c.7,0,.5,1.3,.4,1.9c0,.3,-.1,.6,-.3,1c-.3,1.2,-1.4,3.1,-2.2,3.1c-.6,0,-.8,-.9,-.8,-1.5c0,-.4,0,-.8,.2,-1.3c.4,-1,1.4,-3.2,2.7,-3.2Z" class="g0_327"/>
<path d="M468.7,168.4v.2c.4,0,.9,0,1,.1c.3,.2,.3,.3,.3,.7v4.8c0,.2,0,.4,0,.6c-.1,.4,-.7,.5,-1.2,.5v.2h3.4v-.2c-.3,0,-.9,0,-1,-.2c-.2,-.2,-.2,-.6,-.2,-1v-6.3c-.6,.3,-1.5,.6,-2.3,.6Z" class="g0_327"/>
<path d="M493.6,166.6c-.4,0,-.9,.2,-1.3,.5c-.5,.3,-.9,.7,-1.3,1.2c-.6,.7,-1.2,1.9,-1.2,3.2c0,1,.4,1.7,1.3,1.7c1.3,0,1.8,-.8,2.2,-1.5c-.2,.9,-.1,1.5,.6,1.5c.3,0,.7,-.1,1.1,-.4c.4,-.4,.7,-.8,1.1,-1.4l-.2,-.1c-.3,.4,-.9,1.3,-1.4,1.3c-.2,0,-.2,-.3,-.2,-.6c0,-.9,.6,-2.4,.9,-3.4l.7,-1.8h-1l-.2,.6c-.2,-.4,-.5,-.8,-1.1,-.8Zm.1,.3c.7,0,.6,1.3,.5,1.9c-.1,.3,-.2,.6,-.3,1c-.4,1.2,-1.5,3.1,-2.3,3.1c-.6,0,-.8,-.9,-.8,-1.5c0,-.4,0,-.8,.2,-1.3c.4,-1,1.5,-3.2,2.7,-3.2Z" class="g0_327"/>
<path d="M499.2,170.8c-.7,0,-1.1,-.5,-1.1,-1.1c0,-.8,.4,-1.7,1.3,-1.7c1.2,0,1.3,1,1.3,1.9c0,1,-.2,1.5,-.7,2.2c-.3,.4,-.6,.8,-1.1,1.3c-.5,.5,-1.1,1.1,-1.9,1.8v.3h4.6l.4,-2.1h-.3c-.1,.2,-.2,.4,-.3,.6c-.1,.3,-.4,.5,-1,.5h-2.1c.5,-.4,1,-.7,1.4,-1.1c.7,-.6,1.5,-1.4,1.9,-2.2c.2,-.4,.3,-.8,.3,-1.2c0,-.3,0,-.6,-.2,-.9c-.3,-.7,-1,-1.3,-2.1,-1.3c-.7,0,-1.4,.3,-1.8,.6c-.4,.3,-.7,.8,-.7,1.5c0,.4,.2,.8,.4,1c.2,.3,.5,.4,.9,.4c.4,0,.7,-.2,.8,-.5Z" class="g0_327"/>
<path d="M522.8,166.6c-.4,0,-.9,.2,-1.3,.5c-.5,.3,-.9,.7,-1.2,1.2c-.7,.7,-1.3,1.9,-1.3,3.2c0,1,.4,1.7,1.3,1.7c1.3,0,1.8,-.8,2.2,-1.5c-.2,.9,-.1,1.5,.6,1.5c.3,0,.7,-.1,1.1,-.4c.4,-.4,.8,-.8,1.1,-1.4l-.2,-.1c-.3,.4,-.9,1.3,-1.3,1.3c-.2,0,-.3,-.3,-.3,-.6c0,-.9,.6,-2.4,.9,-3.4l.7,-1.8h-1l-.2,.6c-.2,-.4,-.5,-.8,-1.1,-.8Zm.1,.3c.7,0,.6,1.3,.5,1.9c-.1,.3,-.2,.6,-.3,1c-.4,1.2,-1.5,3.1,-2.3,3.1c-.6,0,-.7,-.9,-.7,-1.5c0,-.4,0,-.8,.1,-1.3c.4,-1,1.5,-3.2,2.7,-3.2Z" class="g0_327"/>
<path d="M528.6,175.4c-.7,0,-1.3,-.7,-1.3,-1.4c0,-.5,.3,-1,.9,-1c-.1,-.2,-.4,-.4,-.8,-.4c-.1,0,-.3,0,-.4,.1c-.4,.2,-.7,.6,-.7,1.2c0,.2,0,.4,.1,.6c.4,.7,1.2,1.1,2.2,1.1c.8,0,1.4,-.3,1.9,-.6c.4,-.4,.7,-.8,.7,-1.5c0,-.3,0,-.5,-.1,-.7c-.3,-.7,-.9,-1.1,-1.6,-1.3v-.1c.4,-.1,.8,-.3,1.1,-.7c.2,-.2,.4,-.6,.4,-1.1c0,-.3,-.1,-.5,-.2,-.7c-.3,-.7,-1.1,-1,-2.1,-1c-.7,0,-1.2,.1,-1.6,.3c-.3,.2,-.5,.6,-.5,1c0,.3,.1,.6,.3,.8c.1,.1,.3,.3,.7,.3c.1,0,.3,-.1,.4,-.1c.1,-.1,.2,-.2,.2,-.3c-.4,0,-.7,-.3,-.7,-.7c0,-.6,.5,-1.2,1.2,-1.2c.7,0,1.1,.7,1.1,1.6c0,.9,-.2,1.8,-1,1.8c-.2,0,-.5,-.1,-.6,-.1c-.3,0,-.6,0,-.6,.2c0,.3,.3,.4,.6,.4c.2,0,.5,-.2,.6,-.3c.9,0,1.2,.8,1.2,1.8c0,1,-.4,2,-1.4,2Z" class="g0_327"/>
<path d="M464.4,184.9c1.3,0,.9,1.9,.4,3.2c-.3,.8,-1.3,2.7,-2.4,2.7c-.5,0,-.7,-.3,-.7,-.9c0,-.8,.3,-1.8,.5,-2.4c.3,-.6,.8,-1.6,1.2,-2c.2,-.3,.6,-.6,1,-.6Zm-2.2,6.2c1.7,0,2.9,-1.4,3.5,-2.6c.3,-.6,.6,-1.4,.6,-2.2c0,-1.1,-.5,-1.8,-1.5,-1.8c-.9,0,-1.6,.6,-2,1.2l1.5,-5.6l-2.1,.1v.2c.6,0,.8,.3,.8,.6c0,.2,-.1,.6,-.1,.8l-1.6,5.6c-.2,.6,-.3,1,-.4,1.4c-.1,.4,-.1,.7,-.1,.9c0,.8,.5,1.4,1.4,1.4Z" class="g0_327"/>
<path d="M468.2,186.3v.2c.3,0,.8,0,.9,.1c.3,.2,.3,.3,.3,.7v4.8c0,.2,0,.4,0,.6c-.1,.4,-.7,.5,-1.2,.5v.2h3.4v-.2c-.3,0,-.9,0,-1,-.2c-.2,-.2,-.2,-.6,-.2,-1v-6.2c-.6,.2,-1.5,.5,-2.2,.5Z" class="g0_327"/>
<path d="M493.7,184.9c1.2,0,.9,1.9,.3,3.2c-.3,.8,-1.3,2.7,-2.4,2.7c-.5,0,-.7,-.3,-.7,-.9c0,-.8,.3,-1.8,.5,-2.4c.3,-.6,.8,-1.6,1.2,-2c.2,-.3,.6,-.6,1.1,-.6Zm-2.3,6.2c1.7,0,2.9,-1.4,3.5,-2.6c.3,-.6,.6,-1.4,.6,-2.2c0,-1.1,-.5,-1.8,-1.5,-1.8c-.9,0,-1.6,.6,-2,1.2l1.5,-5.6l-2.1,.1v.2c.6,0,.9,.3,.9,.6c0,.2,-.2,.6,-.2,.8l-1.6,5.6c-.2,.6,-.3,1,-.4,1.4c-.1,.4,-.1,.7,-.1,.9c0,.8,.5,1.4,1.4,1.4Z" class="g0_327"/>
<path d="M498.6,188.7c-.7,0,-1.1,-.5,-1.1,-1.1c0,-.8,.4,-1.7,1.3,-1.7c1.2,0,1.3,1,1.3,1.9c0,1,-.2,1.5,-.7,2.2c-.2,.4,-.6,.8,-1.1,1.3c-.5,.5,-1.1,1.1,-1.9,1.8v.3H501l.4,-2.1h-.3c-.1,.2,-.2,.4,-.3,.6c-.1,.3,-.4,.5,-1,.5h-2.1c.5,-.4,1,-.7,1.4,-1.1c.7,-.6,1.5,-1.4,1.9,-2.2c.2,-.4,.3,-.8,.3,-1.2c0,-.3,0,-.6,-.2,-.9c-.3,-.7,-1,-1.3,-2.1,-1.3c-.7,0,-1.4,.3,-1.8,.6c-.3,.3,-.7,.8,-.7,1.5c0,.4,.2,.8,.4,1c.2,.3,.5,.4,.9,.4c.4,0,.7,-.2,.8,-.5Z" class="g0_327"/>
<path d="M522.9,184.9c1.2,0,.9,1.9,.3,3.2c-.3,.8,-1.2,2.7,-2.4,2.7c-.4,0,-.6,-.3,-.6,-.9c0,-.8,.2,-1.8,.5,-2.4c.2,-.6,.7,-1.6,1.1,-2c.2,-.3,.6,-.6,1.1,-.6Zm-2.3,6.2c1.7,0,2.9,-1.4,3.5,-2.6c.3,-.6,.6,-1.4,.6,-2.2c0,-1.1,-.5,-1.8,-1.5,-1.8c-.9,0,-1.6,.6,-2,1.2l1.5,-5.6l-2,.1l-.1,.2c.6,0,.9,.3,.9,.6c0,.2,-.1,.6,-.2,.8l-1.6,5.6c-.2,.6,-.3,1,-.4,1.4c0,.4,-.1,.7,-.1,.9c0,.8,.6,1.4,1.4,1.4Z" class="g0_327"/>
<path d="M528,193.3c-.7,0,-1.3,-.7,-1.3,-1.4c0,-.5,.3,-1,.9,-1c-.1,-.2,-.4,-.4,-.8,-.4c-.1,0,-.3,0,-.4,.1c-.4,.2,-.7,.6,-.7,1.2c0,.2,0,.4,.2,.6c.3,.7,1.1,1.1,2.1,1.1c.8,0,1.4,-.3,1.9,-.6c.4,-.4,.7,-.8,.7,-1.5c0,-.3,0,-.5,-.1,-.7c-.3,-.7,-.9,-1.1,-1.6,-1.3v-.1c.4,-.1,.8,-.3,1.1,-.7c.2,-.2,.4,-.6,.4,-1.1c0,-.3,-.1,-.5,-.2,-.7c-.3,-.7,-1.1,-1,-2.1,-1c-.7,0,-1.2,.1,-1.6,.3c-.3,.2,-.5,.6,-.5,1c0,.3,.1,.6,.3,.8c.1,.1,.3,.3,.7,.3c.1,0,.3,-.1,.4,-.1c.1,-.1,.2,-.2,.2,-.3c-.4,0,-.7,-.3,-.7,-.7c0,-.6,.5,-1.2,1.2,-1.2c.7,0,1.1,.7,1.1,1.6c0,.9,-.2,1.8,-1,1.8c-.2,0,-.4,-.1,-.6,-.1c-.3,0,-.6,0,-.6,.2c0,.3,.4,.4,.6,.4c.2,0,.5,-.2,.6,-.3c.9,0,1.2,.8,1.2,1.8c0,1,-.4,2,-1.4,2Z" class="g0_327"/>
<path d="M462.2,207.1c0,-.5,.1,-1,.2,-1.4c.3,-1,1.1,-2.9,2.3,-2.9c.3,0,.3,.1,.3,.2c0,.2,-.1,.3,-.1,.5c0,.3,.2,.6,.6,.6c.4,0,.6,-.3,.6,-.7c0,-.7,-.6,-1,-1.3,-1c-1.4,0,-2.5,1.5,-3.1,2.5c-.4,.6,-.6,1.4,-.6,2.2c0,1.1,.6,1.9,1.7,1.9c1.3,0,2.1,-1,2.6,-2l-.2,-.1c-.5,.9,-1.3,1.8,-2.1,1.8c-.6,0,-.9,-1,-.9,-1.6Z" class="g0_327"/>
<path d="M467.7,204.2v.2c.3,0,.8,0,.9,.1c.4,.2,.3,.3,.4,.7V210c0,.2,0,.4,-.1,.6c0,.4,-.6,.5,-1.2,.5v.2h3.5v-.2c-.4,0,-1,0,-1.1,-.2c-.2,-.2,-.2,-.6,-.2,-1v-6.2c-.6,.2,-1.5,.5,-2.2,.5Z" class="g0_327"/>
<path d="M491.4,207.1c0,-.5,.1,-1,.3,-1.4c.3,-1,1,-2.9,2.2,-2.9c.3,0,.3,.1,.3,.2c0,.2,-.1,.3,-.1,.5c0,.3,.2,.6,.6,.6c.4,0,.6,-.3,.6,-.7c0,-.7,-.6,-1,-1.3,-1c-1.4,0,-2.5,1.5,-3.1,2.5c-.3,.6,-.6,1.4,-.6,2.2c0,1.1,.6,1.9,1.7,1.9c1.3,0,2.1,-1,2.6,-2l-.2,-.1c-.5,.9,-1.2,1.8,-2.1,1.8c-.6,0,-.9,-1,-.9,-1.6Z" class="g0_327"/>
<path d="M498.1,206.6c-.7,0,-1.1,-.5,-1.1,-1.1c0,-.8,.4,-1.7,1.3,-1.7c1.2,0,1.4,1,1.4,1.9c0,1,-.3,1.5,-.8,2.2c-.2,.4,-.6,.8,-1.1,1.3c-.5,.5,-1.1,1.1,-1.8,1.8v.3h4.5l.4,-2.1h-.3c-.1,.2,-.2,.4,-.2,.6c-.2,.3,-.5,.5,-1,.5h-2.2c.5,-.4,1,-.7,1.4,-1.1c.8,-.6,1.5,-1.4,2,-2.2c.1,-.4,.2,-.8,.2,-1.2c0,-.3,0,-.6,-.1,-.9c-.4,-.7,-1.1,-1.3,-2.2,-1.3c-.7,0,-1.3,.3,-1.7,.6c-.4,.3,-.7,.8,-.7,1.5c0,.4,.1,.8,.3,1c.2,.3,.5,.4,.9,.4c.4,0,.7,-.2,.8,-.5Z" class="g0_327"/>
<path d="M520.7,207.1c0,-.5,0,-1,.2,-1.4c.3,-1,1.1,-2.9,2.2,-2.9c.3,0,.4,.1,.4,.2c0,.2,-.1,.3,-.1,.5c0,.3,.1,.6,.5,.6c.4,0,.6,-.3,.6,-.7c0,-.7,-.6,-1,-1.3,-1c-1.4,0,-2.5,1.5,-3.1,2.5c-.3,.6,-.6,1.4,-.6,2.2c0,1.1,.7,1.9,1.8,1.9c1.2,0,2.1,-1,2.6,-2l-.3,-.1c-.5,.9,-1.2,1.8,-2.1,1.8c-.6,0,-.8,-1,-.8,-1.6Z" class="g0_327"/>
<path d="M527.5,211.2c-.7,0,-1.3,-.7,-1.3,-1.4c0,-.5,.4,-1,.9,-1c-.1,-.2,-.4,-.4,-.8,-.4c-.1,0,-.3,0,-.4,.1c-.4,.2,-.7,.6,-.7,1.1c0,.3,.1,.5,.2,.7c.4,.7,1.1,1.1,2.1,1.1c.8,0,1.5,-.3,1.9,-.6c.4,-.4,.7,-.8,.7,-1.5c0,-.3,0,-.5,-.1,-.7c-.3,-.7,-.8,-1.1,-1.6,-1.3v-.1c.5,-.1,.8,-.3,1.1,-.7c.2,-.2,.4,-.6,.4,-1.1c0,-.3,0,-.5,-.2,-.7c-.3,-.7,-1.1,-1,-2.1,-1c-.6,0,-1.2,.1,-1.5,.3c-.3,.2,-.6,.6,-.6,1c0,.3,.1,.6,.3,.8c.1,.1,.4,.3,.7,.3c.1,0,.3,-.1,.4,-.1c.2,-.1,.2,-.2,.3,-.3c-.4,0,-.7,-.3,-.7,-.7c0,-.6,.4,-1.2,1.1,-1.2c.7,0,1.1,.7,1.1,1.6c0,.9,-.2,1.8,-1,1.8c-.2,0,-.4,-.1,-.6,-.1c-.2,0,-.6,0,-.6,.2c0,.3,.4,.4,.6,.4c.2,0,.5,-.2,.7,-.3c.9,0,1.1,.8,1.1,1.8c0,1,-.4,2,-1.4,2Z" class="g0_327"/>
<path d="M536.7,169.9v-9.3h-3.6v.8h1.8c.3,0,.6,.2,.6,.6v7.9h1.2Z" class="g0_327"/>
<path d="M535.5,178.7h1.2v-9.6h-1.2Z" class="g0_327"/>
<path d="M535.5,187.6h1.2V178h-1.2Z" class="g0_327"/>
<path d="M535.5,196.6h1.2V187h-1.2Z" class="g0_327"/>
<path d="M535.5,205.5h1.2v-9.6h-1.2Z" class="g0_327"/>
<path d="M536.7,214.3v-9.2h-1.2v7.8c0,.4,-.3,.6,-.6,.6h-1.8v.8h3.6Z" class="g0_327"/>
<path d="M539.8,161.6c0,.1,.1,.2,.1,.4c3.2,5.4,4,19.1,4,20.3v.7h1.4v-.7c0,-1.6,-.5,-15.4,-5.3,-20.8c0,0,-.1,0,-.1,0q-.1,0,-.1,.1Z" class="g0_327"/>
<path d="M543.9,192.2h1.4v-9.6h-1.4Z" class="g0_327"/>
<path d="M539.8,213.4c0,0,0,.1,.1,.1c0,0,.1,0,.1,-.1c4.8,-5.3,5.3,-19.2,5.3,-20.7V192h-1.4v.7c0,1.2,-.8,14.9,-4,20.3c0,.2,-.1,.3,-.1,.4Z" class="g0_327"/>
<path d="M289,311.6c1.3,0,.9,1.9,.4,3.2c-.3,.8,-1.3,2.7,-2.4,2.7c-.5,0,-.7,-.3,-.7,-1c0,-.7,.3,-1.8,.5,-2.3c.3,-.6,.8,-1.6,1.2,-2c.2,-.3,.6,-.6,1,-.6Zm-2.2,6.2c1.7,0,2.9,-1.4,3.5,-2.6c.3,-.6,.6,-1.4,.6,-2.2c0,-1.1,-.5,-1.8,-1.5,-1.8c-.9,0,-1.6,.6,-2,1.2l1.5,-5.6l-2.1,.1v.2c.6,0,.8,.3,.8,.6c0,.2,-.1,.6,-.1,.7l-1.6,5.7c-.2,.5,-.3,1,-.4,1.4c-.1,.3,-.1,.7,-.1,.8c0,.9,.5,1.5,1.4,1.5Z" class="g0_327"/>
<path d="M293.3,316c0,-2.5,.9,-4.4,2.3,-4.4c.6,0,1,.3,1,1c0,.5,0,1,-.2,1.8c-.3,.9,-1,3.1,-2.2,3.1c-.5,0,-.9,-.8,-.9,-1.5Zm.9,1.8c1,0,1.8,-.7,2.3,-1.4c.6,-.7,1.1,-1.7,1.1,-2.9c0,-.7,-.2,-1.3,-.5,-1.6c-.4,-.4,-.8,-.7,-1.5,-.7c-.4,0,-.8,.1,-1.2,.4c-.9,.5,-1.5,1.3,-1.9,2.3c-.2,.5,-.3,1,-.3,1.5c0,.7,.2,1.4,.6,1.8c.3,.3,.7,.6,1.4,.6Z" class="g0_327"/>
<path d="M305.7,312.2c0,-.6,-.4,-1,-1,-1c-.3,0,-.6,.2,-.9,.4c-.4,.2,-.7,.5,-.9,.9c0,-.7,-.4,-1.3,-1,-1.3c-1.2,0,-2.1,1.2,-2.5,2l.2,.1c.4,-.5,1.1,-1.7,2,-1.7c.3,0,.4,.6,.4,1c0,.3,-.1,.7,-.2,1.1l-.4,1.2c-.1,.6,-.4,1.4,-.7,1.8c-.1,.3,-.4,.7,-.8,.7c-.4,0,-.7,-.1,-.6,-.5c.1,-.3,0,-.8,-.4,-.8c-.4,0,-.6,.3,-.6,.8c0,.6,.4,.9,1,.9c1,0,1.8,-.7,2.2,-1.4c.1,.8,.5,1.4,1.3,1.4c1.2,0,2,-1.1,2.5,-1.8l-.2,-.2c-.5,.7,-1.2,1.7,-2,1.7c-.4,0,-.6,-.6,-.6,-1.2c0,-.4,0,-.8,.1,-1.4l.2,-.7c.1,-.6,.4,-1.2,.6,-1.6c.2,-.3,.6,-1,1,-1c.4,0,.4,.3,.3,.6c0,.4,.2,.6,.5,.6c.4,0,.5,-.3,.5,-.6Z" class="g0_327"/>
<path d="M311.6,307.1c-2.2,1.4,-3.7,3.8,-3.7,6.8c0,2.8,1.6,5.5,3.6,6.8l.2,-.2c-2,-1.6,-2.5,-3.4,-2.5,-6.7c0,-3.3,.6,-5,2.5,-6.5l-.1,-.2Z" class="g0_327"/>
<path d="M317.8,311.2c-.5,0,-1,.2,-1.5,.5c-.5,.3,-1,.6,-1.4,1.1c-.7,.8,-1.4,2,-1.4,3.3c0,1,.4,1.8,1.5,1.8c1.4,0,2.1,-1,2.5,-1.7c-.2,.8,-.2,1.7,.7,1.7c1.2,0,2,-1.1,2.6,-2l-.2,-.2c-.3,.4,-1,1.4,-1.4,1.4c-.2,0,-.3,-.3,-.3,-.6c0,-.7,.6,-2.3,.9,-3.2l.7,-1.9h-1.3l-.3,.6c-.1,-.4,-.4,-.8,-1.1,-.8Zm.1,.4c.9,0,.5,1.3,.4,1.9c-.1,.3,-.3,.6,-.4,.9c-.4,1.1,-1.5,3,-2.3,3c-.6,0,-.7,-1,-.7,-1.4c0,-.5,.1,-.9,.3,-1.3c.4,-1,1.4,-3.1,2.7,-3.1Z" class="g0_327"/>
<path d="M322.7,313v.1c.3,0,.8,.1,1,.2c.3,.1,.3,.3,.3,.7v4.8c0,.2,0,.4,0,.5c-.1,.5,-.7,.6,-1.2,.6v.2h3.4v-.2c-.4,0,-.9,0,-1.1,-.2c-.1,-.2,-.1,-.6,-.1,-1v-6.3c-.6,.3,-1.6,.6,-2.3,.6Z" class="g0_327"/>
<path d="M329.6,316.9c0,.4,.3,.8,.7,.8c.2,0,.3,0,.4,-.1c0,.4,-.1,.7,-.3,1c-.2,.4,-.5,.7,-1,1l.3,.5c.3,-.3,.6,-.5,.8,-.7c.6,-.5,1,-1,1,-2c0,-.9,-.3,-1.3,-1,-1.3c-.5,0,-.9,.3,-.9,.8Z" class="g0_327"/>
<path d="M341.1,311.2c-.5,0,-1,.2,-1.5,.5c-.5,.3,-1,.6,-1.4,1.1c-.7,.8,-1.4,2,-1.4,3.3c0,1,.4,1.8,1.5,1.8c1.5,0,2.1,-1,2.5,-1.7h.1c-.3,.8,-.2,1.7,.6,1.7c1.3,0,2.1,-1.1,2.7,-2l-.3,-.2c-.3,.4,-1,1.4,-1.4,1.4c-.2,0,-.3,-.3,-.3,-.6c0,-.7,.6,-2.3,.9,-3.2l.7,-1.9h-1.3l-.2,.6c-.2,-.4,-.5,-.8,-1.2,-.8Zm.2,.4c.8,0,.5,1.3,.3,1.9c-.1,.3,-.2,.6,-.3,.9c-.5,1.1,-1.5,3,-2.4,3c-.6,0,-.7,-1,-.7,-1.4c0,-.5,.2,-.9,.4,-1.3c.4,-1,1.3,-3.1,2.7,-3.1Z" class="g0_327"/>
<path d="M347.3,315.4c-.7,0,-1.1,-.5,-1.1,-1.1c0,-.8,.4,-1.7,1.3,-1.7c1.2,0,1.3,1,1.3,1.9c0,.9,-.2,1.5,-.7,2.2c-.3,.4,-.7,.8,-1.1,1.3c-.5,.5,-1.1,1.1,-1.9,1.7v.4h4.6l.4,-2.1h-.3c-.1,.2,-.2,.4,-.3,.5c-.1,.4,-.4,.6,-1,.6h-2.1c.5,-.4,1,-.8,1.4,-1.1c.7,-.7,1.5,-1.4,1.9,-2.3c.2,-.3,.3,-.8,.3,-1.2c0,-.3,-.1,-.5,-.2,-.8c-.3,-.8,-1.1,-1.3,-2.1,-1.3c-.8,0,-1.4,.3,-1.8,.6c-.4,.3,-.7,.8,-.7,1.5c0,.4,.2,.8,.4,1c.2,.3,.5,.4,.9,.4c.4,0,.7,-.2,.8,-.5Z" class="g0_327"/>
<path d="M353,316.9c0,.4,.2,.8,.7,.8c.1,0,.2,0,.4,-.1c0,.4,-.1,.7,-.3,1c-.2,.4,-.6,.7,-1.1,1l.3,.5c.4,-.3,.7,-.5,.9,-.7c.5,-.5,.9,-1,.9,-2c0,-.9,-.3,-1.3,-.9,-1.3c-.6,0,-.9,.3,-.9,.8Z" class="g0_327"/>
<path d="M364.4,311.2c-.4,0,-.9,.2,-1.4,.5c-.5,.3,-1,.6,-1.4,1.1c-.8,.8,-1.5,2,-1.5,3.3c0,1,.5,1.8,1.5,1.8c1.5,0,2.1,-1,2.6,-1.7c-.2,.8,-.2,1.7,.6,1.7c1.3,0,2.1,-1.1,2.7,-2l-.2,-.2c-.3,.4,-1.1,1.4,-1.4,1.4c-.3,0,-.4,-.3,-.4,-.6c0,-.7,.6,-2.3,1,-3.2l.6,-1.9h-1.2l-.3,.6c-.1,-.4,-.5,-.8,-1.2,-.8Zm.2,.4c.9,0,.5,1.3,.3,1.9c0,.3,-.2,.6,-.3,.9c-.4,1.1,-1.5,3,-2.3,3c-.7,0,-.7,-1,-.7,-1.4c0,-.5,.1,-.9,.3,-1.3c.4,-1,1.3,-3.1,2.7,-3.1Z" class="g0_327"/>
<path d="M370.8,320c-.7,0,-1.3,-.7,-1.3,-1.4c0,-.5,.4,-1,.9,-1c-.1,-.3,-.4,-.4,-.8,-.4c-.1,0,-.3,0,-.4,.1c-.4,.1,-.7,.6,-.7,1.1c0,.3,0,.5,.2,.7c.3,.7,1.1,1.1,2.1,1.1c.8,0,1.4,-.3,1.9,-.6c.4,-.4,.7,-.9,.7,-1.6c0,-.2,0,-.4,-.1,-.7c-.3,-.6,-.8,-1.1,-1.6,-1.3c.4,-.1,.8,-.4,1.1,-.7c.2,-.2,.4,-.6,.4,-1.1c0,-.3,-.1,-.5,-.2,-.7c-.3,-.7,-1.1,-1.1,-2.1,-1.1c-.6,0,-1.2,.2,-1.6,.4c-.3,.2,-.5,.5,-.5,1c0,.3,.1,.6,.3,.7c.1,.2,.3,.4,.7,.4c.1,0,.3,-.1,.4,-.2c.2,0,.2,-.1,.2,-.2c-.4,0,-.7,-.3,-.7,-.8c0,-.6,.5,-1.1,1.2,-1.1c.7,0,1.1,.7,1.1,1.6c0,.9,-.2,1.8,-1,1.8c-.2,-.1,-.4,-.2,-.6,-.2c-.3,0,-.6,.1,-.6,.3c0,.2,.4,.3,.6,.3c.2,0,.5,-.1,.6,-.2c.9,0,1.2,.8,1.2,1.8c0,1,-.4,2,-1.4,2Z" class="g0_327"/>
<path d="M376.3,316.9c0,.4,.3,.8,.7,.8c.1,0,.3,0,.4,-.1c0,.4,-.1,.7,-.3,1c-.2,.4,-.6,.7,-1,1l.3,.5c.3,-.3,.6,-.5,.8,-.7c.5,-.5,1,-1,1,-2c0,-.9,-.4,-1.3,-1,-1.3c-.5,0,-.9,.3,-.9,.8Z" class="g0_327"/>
<path d="M387.8,311.2c-.5,0,-1,.2,-1.5,.5c-.5,.3,-1,.6,-1.4,1.1c-.7,.8,-1.4,2,-1.4,3.3c0,1,.4,1.8,1.5,1.8c1.5,0,2.1,-1,2.5,-1.7c-.2,.8,-.2,1.7,.7,1.7c1.2,0,2,-1.1,2.6,-2l-.2,-.2c-.3,.4,-1,1.4,-1.4,1.4c-.2,0,-.3,-.3,-.3,-.6c0,-.7,.6,-2.3,.9,-3.2l.7,-1.9h-1.3l-.3,.6c-.1,-.4,-.4,-.8,-1.1,-.8Zm.1,.4c.9,0,.5,1.3,.4,1.9c-.1,.3,-.2,.6,-.4,.9c-.4,1.1,-1.5,3,-2.3,3c-.6,0,-.7,-1,-.7,-1.4c0,-.5,.2,-.9,.4,-1.3c.3,-1,1.3,-3.1,2.6,-3.1Z" class="g0_327"/>
<path d="M394.4,314v3.9h-2.5c.8,-1.3,1.7,-2.7,2.5,-3.9Zm-2.8,3.8v.5h2.8v.4c0,.9,-.1,1.2,-.5,1.2v.2H396v-.2c-.5,0,-.6,-.5,-.6,-1.3v-.3h1.2c.1,0,0,-.4,0,-.4c.1,0,-1.2,0,-1.2,0v-5.5h-.3l-3.5,5.4Z" class="g0_327"/>
<path d="M398.7,307.1l-.1,.2c1.9,1.5,2.5,3.2,2.5,6.5c0,3.3,-.6,5.1,-2.5,6.7l.2,.2c2,-1.3,3.6,-4,3.6,-6.8c0,-3,-1.5,-5.4,-3.7,-6.8Z" class="g0_327"/>
<path d="M408.6,315.8h7.6V315h-7.6Zm0,-3h7.6V312h-7.6Z" class="g0_327"/>
<path d="M425.6,312.4c0,.6,-.2,1.5,-.3,2.1c-.2,.6,-.7,1.7,-1.1,2.2c-.3,.3,-.7,.8,-1.2,.8c-.5,0,-.8,-.4,-.8,-.9c0,-.7,.1,-1.8,.3,-2.4c.4,-.8,1.3,-2.7,2.5,-2.7c.4,0,.6,.4,.6,.9Zm.2,5.4c.4,0,.8,-.2,1.1,-.5c.3,-.4,.6,-1,.9,-1.8l-.3,-.1c-.2,.6,-.7,1.9,-1.3,1.9c-.3,0,-.3,-.5,-.3,-.8c0,-.1,0,-.3,0,-.5c.1,-.6,.2,-1.1,.4,-1.8c.1,-.4,.2,-1,.4,-1.6l1.6,-5.8H426v.2c.4,0,.5,.1,.7,.1c.1,.1,.3,.4,.3,.5c0,.3,-.1,.5,-.2,.8l-.9,3.5c-.3,-.4,-.4,-.7,-1,-.7c-1,0,-2,.9,-2.5,1.6c-.3,.3,-.5,.7,-.7,1c-.3,.6,-.6,1.3,-.6,2.2c0,.6,.2,1,.4,1.3c.3,.3,.6,.5,1.1,.5c1.3,0,1.9,-.8,2.3,-1.6h.1c0,.1,0,.2,-.1,.3c0,.1,0,.2,0,.3c0,.6,.3,1,.9,1Z" class="g0_327"/>
<path d="M432.9,311.6c.3,0,.6,.2,.6,.6c0,1.3,-1.7,2.3,-3,2.6c.3,-1,1.2,-3.2,2.4,-3.2Zm.1,-.4c-1.1,0,-2,.8,-2.5,1.5c-.7,.8,-1.1,1.9,-1.1,3.2c0,1.2,.4,1.9,1.5,1.9c1.1,0,2,-.7,2.6,-1.7l-.2,-.1c-.4,.6,-1.3,1.5,-2.1,1.5c-.6,0,-.8,-.5,-.8,-1.4c0,-.2,0,-.7,0,-.9c1.5,-.3,4,-1.3,4,-2.9c0,-.7,-.6,-1.1,-1.4,-1.1Z" class="g0_327"/>
<path d="M436.2,317.8c1.3,0,2.1,-1.2,2.5,-2.1l-.2,-.1c-.3,.4,-.9,1.6,-1.7,1.6c-.2,0,-.3,-.4,-.3,-.6c0,-.2,.1,-.5,.2,-1l1.1,-3.9h1.3l.1,-.3h-1.4l.5,-1.7h-1l-.5,1.7h-1l-.1,.3h1l-.9,3.6c-.2,.4,-.2,.8,-.3,1.1c0,.3,-.1,.5,-.1,.6c0,.6,.2,.8,.8,.8Z" class="g0_327"/>
<path d="M448.7,279.1q0,-.1,-.1,-.1h-.1c-4.7,5.3,-5.3,19.2,-5.3,20.8v.7h1.4v-.7c0,-1.2,.8,-15,4,-20.4c.1,-.1,.1,-.2,.1,-.3Z" class="g0_327"/>
<path d="M443.2,309.7h1.4v-9.6h-1.4Z" class="g0_327"/>
<path d="M443.2,318.7h1.4v-9.6h-1.4Z" class="g0_327"/>
<path d="M443.2,327.6h1.4V318h-1.4Z" class="g0_327"/>
<path d="M448.7,348.8c0,-.2,0,-.3,-.1,-.4c-3.2,-5.4,-4,-19.1,-4,-20.3v-.7h-1.4v.7c0,1.5,.6,15.4,5.3,20.7q.1,0,.1,0q.1,0,.1,0Z" class="g0_327"/>
<path d="M455.4,278.9v-.8h-3.6v9.3H453v-7.9c0,-.4,.3,-.6,.7,-.6h1.7Z" class="g0_327"/>
<path d="M451.8,296.2H453v-9.7h-1.2Z" class="g0_327"/>
<path d="M451.8,305.1H453v-9.6h-1.2Z" class="g0_327"/>
<path d="M451.8,314.1H453v-9.7h-1.2Z" class="g0_327"/>
<path d="M451.8,323H453v-9.6h-1.2Z" class="g0_327"/>
<path d="M451.8,332H453v-9.7h-1.2Z" class="g0_327"/>
<path d="M451.8,340.9H453v-9.6h-1.2Z" class="g0_327"/>
<path d="M455.4,349.7v-.8h-1.7c-.4,0,-.7,-.2,-.7,-.6v-7.8h-1.2v9.2h3.6Z" class="g0_327"/>
<path d="M460.5,284.1c-.5,0,-.9,.2,-1.4,.5c-.4,.3,-.8,.7,-1.2,1.1c-.6,.8,-1.2,2,-1.2,3.3c0,1,.3,1.7,1.3,1.7c1.3,0,1.8,-.9,2.1,-1.5h.1c-.2,.9,-.1,1.5,.5,1.5c.4,0,.8,-.1,1.2,-.5c.3,-.3,.7,-.8,1,-1.3l-.1,-.2c-.3,.4,-1,1.4,-1.4,1.4c-.2,0,-.3,-.4,-.3,-.6c0,-.9,.6,-2.4,1,-3.4l.7,-1.9h-1l-.3,.7c-.2,-.5,-.5,-.8,-1,-.8Zm.1,.3c.7,0,.5,1.3,.4,1.9c0,.3,-.2,.6,-.3,1c-.3,1.2,-1.4,3.1,-2.2,3.1c-.6,0,-.8,-1,-.8,-1.5c0,-.4,0,-.8,.2,-1.3c.4,-1,1.4,-3.2,2.7,-3.2Z" class="g0_327"/>
<path d="M464.8,285.9v.1c.4,0,.8,.1,1,.2c.3,.1,.3,.3,.3,.7v4.8c0,.2,0,.4,0,.5c-.1,.5,-.7,.6,-1.2,.6v.2h3.4v-.2c-.3,0,-.9,0,-1,-.2c-.2,-.2,-.2,-.6,-.2,-1v-6.3c-.6,.3,-1.6,.6,-2.3,.6Z" class="g0_327"/>
<path d="M470.9,285.9v.1c.4,0,.8,.1,1,.2c.3,.1,.3,.3,.3,.7v4.8c0,.2,0,.4,0,.5c-.1,.5,-.7,.6,-1.2,.6v.2h3.4v-.2c-.3,0,-.9,0,-1,-.2c-.2,-.2,-.2,-.6,-.2,-1v-6.3c-.6,.3,-1.6,.6,-2.3,.6Z" class="g0_327"/>
<path d="M495.8,284.1c-.5,0,-.9,.2,-1.3,.5c-.5,.3,-.9,.7,-1.3,1.1c-.6,.8,-1.2,2,-1.2,3.3c0,1,.4,1.7,1.3,1.7c1.3,0,1.8,-.9,2.2,-1.5c-.2,.9,-.1,1.5,.5,1.5c.4,0,.8,-.1,1.2,-.5c.4,-.3,.7,-.8,1.1,-1.3l-.2,-.2c-.3,.4,-.9,1.4,-1.4,1.4c-.2,0,-.2,-.4,-.2,-.6c0,-.9,.6,-2.4,.9,-3.4l.7,-1.9h-1l-.3,.7c-.1,-.5,-.4,-.8,-1,-.8Zm.1,.3c.7,0,.6,1.3,.5,1.9c-.1,.3,-.2,.6,-.3,1c-.4,1.2,-1.5,3.1,-2.3,3.1c-.6,0,-.8,-1,-.8,-1.5c0,-.4,0,-.8,.2,-1.3c.4,-1,1.4,-3.2,2.7,-3.2Z" class="g0_327"/>
<path d="M500.2,285.9v.1c.3,0,.8,.1,.9,.2c.3,.1,.3,.3,.3,.7v4.8c0,.2,0,.4,0,.5c-.1,.5,-.6,.6,-1.2,.6v.2h3.4v-.2c-.3,0,-.9,0,-1,-.2c-.2,-.2,-.2,-.6,-.2,-1v-6.3c-.6,.3,-1.5,.6,-2.2,.6Z" class="g0_327"/>
<path d="M507.4,288.3c-.6,0,-1,-.5,-1,-1.1c0,-.8,.4,-1.7,1.3,-1.7c1.2,0,1.3,1,1.3,1.9c0,.9,-.2,1.5,-.7,2.1c-.3,.4,-.7,.9,-1.1,1.4c-.5,.5,-1.1,1.1,-1.9,1.7v.4h4.6l.4,-2.1H510c-.1,.2,-.2,.4,-.3,.5c-.1,.4,-.4,.6,-1,.6h-2.1c.5,-.4,1,-.8,1.4,-1.1c.7,-.7,1.5,-1.4,1.9,-2.3c.2,-.4,.3,-.8,.3,-1.2c0,-.3,-.1,-.6,-.2,-.8c-.3,-.8,-1.1,-1.3,-2.1,-1.3c-.8,0,-1.4,.3,-1.8,.6c-.4,.3,-.7,.8,-.7,1.5c0,.4,.2,.8,.4,1c.2,.2,.5,.4,.9,.4c.4,0,.7,-.2,.7,-.5Z" class="g0_327"/>
<path d="M531.1,284.1c-.4,0,-.9,.2,-1.3,.5c-.5,.3,-.9,.7,-1.3,1.1c-.6,.8,-1.2,2,-1.2,3.3c0,1,.4,1.7,1.3,1.7c1.3,0,1.8,-.9,2.2,-1.5c-.2,.9,-.1,1.5,.6,1.5c.3,0,.7,-.1,1.1,-.5c.4,-.3,.7,-.8,1.1,-1.3l-.2,-.2c-.3,.4,-.9,1.4,-1.3,1.4c-.3,0,-.3,-.4,-.3,-.6c0,-.9,.6,-2.4,.9,-3.4l.7,-1.9h-1l-.2,.7c-.2,-.5,-.5,-.8,-1.1,-.8Zm.1,.3c.7,0,.6,1.3,.5,1.9c-.1,.3,-.2,.6,-.3,1c-.4,1.2,-1.5,3.1,-2.3,3.1c-.6,0,-.8,-1,-.8,-1.5c0,-.4,.1,-.8,.2,-1.3c.4,-1,1.5,-3.2,2.7,-3.2Z" class="g0_327"/>
<path d="M535.5,285.9v.1c.3,0,.8,.1,.9,.2c.4,.1,.3,.3,.4,.7v4.8c0,.2,0,.4,-.1,.5c0,.5,-.6,.6,-1.2,.6v.2H539v-.2c-.4,0,-1,0,-1.1,-.2c-.2,-.2,-.2,-.6,-.2,-1v-6.3c-.6,.3,-1.5,.6,-2.2,.6Z" class="g0_327"/>
<path d="M543,292.9c-.7,0,-1.3,-.7,-1.3,-1.4c0,-.6,.3,-1,.8,-1c0,-.3,-.4,-.4,-.7,-.4c-.2,0,-.3,0,-.5,.1c-.4,.1,-.6,.6,-.6,1.1c0,.3,0,.5,.1,.7c.4,.7,1.2,1.1,2.2,1.1c.8,0,1.4,-.3,1.9,-.6c.4,-.4,.7,-.9,.7,-1.6c0,-.2,0,-.4,-.1,-.7c-.3,-.6,-.9,-1.1,-1.6,-1.3c.4,-.1,.8,-.4,1,-.7c.3,-.2,.5,-.6,.5,-1.1c0,-.3,-.1,-.5,-.2,-.7c-.3,-.7,-1.1,-1.1,-2.2,-1.1c-.6,0,-1.1,.2,-1.5,.4c-.3,.2,-.6,.5,-.6,1c0,.3,.2,.6,.3,.7c.2,.2,.4,.3,.7,.3c.2,0,.4,0,.5,-.1c.1,0,.2,-.1,.2,-.2c-.4,0,-.7,-.3,-.7,-.8c0,-.6,.5,-1.1,1.1,-1.1c.8,0,1.2,.7,1.2,1.6c0,.9,-.3,1.8,-1.1,1.8c-.1,-.1,-.4,-.2,-.6,-.2c-.2,0,-.5,.1,-.5,.3c0,.2,.3,.3,.6,.3c.2,0,.5,-.1,.6,-.2c.9,0,1.2,.8,1.2,1.8c0,1,-.4,2,-1.4,2Z" class="g0_327"/>
<path d="M566.4,284.1c-.4,0,-.9,.2,-1.3,.5c-.4,.3,-.9,.7,-1.2,1.1c-.7,.8,-1.3,2,-1.3,3.3c0,1,.4,1.7,1.3,1.7c1.3,0,1.8,-.9,2.2,-1.5c-.2,.9,-.1,1.5,.6,1.5c.3,0,.7,-.1,1.1,-.5c.4,-.3,.8,-.8,1.1,-1.3l-.2,-.2c-.3,.4,-.9,1.4,-1.3,1.4c-.2,0,-.3,-.4,-.3,-.6c0,-.9,.6,-2.4,.9,-3.4l.7,-1.9h-1l-.2,.7c-.2,-.5,-.5,-.8,-1.1,-.8Zm.1,.3c.7,0,.6,1.3,.5,1.9c-.1,.3,-.2,.6,-.3,1c-.4,1.2,-1.5,3.1,-2.3,3.1c-.6,0,-.7,-1,-.7,-1.5c0,-.4,0,-.8,.1,-1.3c.4,-1,1.5,-3.2,2.7,-3.2Z" class="g0_327"/>
<path d="M570.8,285.9v.1c.3,0,.8,.1,.9,.2c.4,.1,.4,.3,.4,.7v4.8c0,.2,0,.4,-.1,.5c0,.5,-.6,.6,-1.2,.6v.2h3.5v-.2c-.4,0,-.9,0,-1.1,-.2c-.2,-.2,-.2,-.6,-.2,-1v-6.3c-.5,.3,-1.5,.6,-2.2,.6Z" class="g0_327"/>
<path d="M578.6,286.8v4h-2.5c.8,-1.3,1.6,-2.7,2.5,-4Zm-2.8,3.9v.5h2.8v.4c0,.9,-.1,1.2,-.6,1.2v.2h2.1v-.2c-.4,0,-.5,-.5,-.5,-1.3v-.3h1.2c0,0,0,-.4,0,-.4c0,0,-1.2,0,-1.2,0v-5.5h-.3l-3.5,5.4Z" class="g0_327"/>
<path d="M460.5,302c-.5,0,-.9,.2,-1.4,.5c-.4,.3,-.8,.7,-1.2,1.1c-.6,.8,-1.2,2,-1.2,3.3c0,1,.3,1.7,1.3,1.7c1.3,0,1.8,-.9,2.1,-1.5h.1c-.2,.9,-.1,1.5,.5,1.5c.4,0,.8,-.1,1.2,-.5c.3,-.3,.7,-.8,1,-1.3l-.1,-.2c-.3,.4,-1,1.4,-1.4,1.4c-.2,0,-.3,-.4,-.3,-.6c0,-.9,.6,-2.4,1,-3.4l.7,-1.9h-1l-.3,.7c-.2,-.5,-.5,-.8,-1,-.8Zm.1,.3c.7,0,.5,1.3,.4,1.9c0,.3,-.2,.6,-.3,1c-.3,1.2,-1.4,3.1,-2.2,3.1c-.6,0,-.8,-1,-.8,-1.5c0,-.4,0,-.8,.2,-1.3c.4,-1,1.4,-3.2,2.7,-3.2Z" class="g0_327"/>
<path d="M466,306.2c-.6,0,-1,-.5,-1,-1.1c0,-.8,.4,-1.7,1.3,-1.7c1.2,0,1.3,1,1.3,1.9c0,.9,-.3,1.5,-.7,2.1c-.3,.5,-.7,.9,-1.1,1.4c-.5,.5,-1.1,1.1,-1.9,1.7v.4h4.6l.3,-2.1h-.3c0,.2,-.1,.4,-.2,.5c-.2,.4,-.5,.6,-1,.6h-2.1c.5,-.4,.9,-.8,1.4,-1.1c.7,-.7,1.5,-1.4,1.9,-2.3c.2,-.4,.3,-.8,.3,-1.2c0,-.3,-.1,-.6,-.2,-.8c-.3,-.8,-1.1,-1.3,-2.2,-1.3c-.7,0,-1.3,.3,-1.7,.6c-.4,.3,-.7,.8,-.7,1.5c0,.4,.1,.8,.4,1c.2,.2,.5,.4,.9,.4c.4,0,.7,-.2,.7,-.5Z" class="g0_327"/>
<path d="M470.9,303.8v.1c.4,0,.8,.1,1,.2c.3,.1,.3,.3,.3,.7v4.8c0,.2,0,.4,0,.5c-.1,.5,-.7,.6,-1.2,.6v.2h3.4v-.2c-.3,0,-.9,0,-1,-.2c-.2,-.2,-.2,-.6,-.2,-1v-6.3c-.6,.3,-1.6,.6,-2.3,.6Z" class="g0_327"/>
<path d="M495.8,302c-.5,0,-.9,.2,-1.3,.5c-.5,.3,-.9,.7,-1.3,1.1c-.6,.8,-1.2,2,-1.2,3.3c0,1,.4,1.7,1.3,1.7c1.3,0,1.8,-.9,2.2,-1.5c-.2,.9,-.1,1.5,.5,1.5c.4,0,.8,-.1,1.2,-.5c.4,-.3,.7,-.8,1.1,-1.3l-.2,-.2c-.3,.4,-.9,1.4,-1.4,1.4c-.2,0,-.2,-.4,-.2,-.6c0,-.9,.6,-2.4,.9,-3.4l.7,-1.9h-1l-.3,.7c-.1,-.5,-.4,-.8,-1,-.8Zm.1,.3c.7,0,.6,1.3,.5,1.9c-.1,.3,-.2,.6,-.3,1c-.4,1.2,-1.5,3.1,-2.3,3.1c-.6,0,-.8,-1,-.8,-1.5c0,-.4,0,-.8,.2,-1.3c.4,-1,1.4,-3.2,2.7,-3.2Z" class="g0_327"/>
<path d="M501.4,306.2c-.7,0,-1.1,-.5,-1.1,-1.1c0,-.8,.4,-1.7,1.3,-1.7c1.2,0,1.3,1,1.3,1.9c0,.9,-.2,1.5,-.7,2.1c-.3,.5,-.7,.9,-1.1,1.4c-.5,.5,-1.1,1.1,-1.9,1.7v.4h4.6l.4,-2.1h-.3c-.1,.2,-.2,.4,-.3,.5c-.1,.4,-.4,.6,-1,.6h-2.1c.5,-.4,1,-.8,1.4,-1.1c.7,-.7,1.5,-1.4,1.9,-2.3c.2,-.4,.3,-.8,.3,-1.2c0,-.3,-.1,-.6,-.2,-.8c-.3,-.8,-1.1,-1.3,-2.1,-1.3c-.8,0,-1.4,.3,-1.8,.6c-.4,.3,-.7,.8,-.7,1.5c0,.4,.2,.8,.4,1c.2,.2,.5,.4,.9,.4c.4,0,.7,-.2,.8,-.5Z" class="g0_327"/>
<path d="M507.4,306.2c-.6,0,-1,-.5,-1,-1.1c0,-.8,.4,-1.7,1.3,-1.7c1.2,0,1.3,1,1.3,1.9c0,.9,-.2,1.5,-.7,2.1c-.3,.5,-.7,.9,-1.1,1.4c-.5,.5,-1.1,1.1,-1.9,1.7v.4h4.6l.4,-2.1H510c-.1,.2,-.2,.4,-.3,.5c-.1,.4,-.4,.6,-1,.6h-2.1c.5,-.4,1,-.8,1.4,-1.1c.7,-.7,1.5,-1.4,1.9,-2.3c.2,-.4,.3,-.8,.3,-1.2c0,-.3,-.1,-.6,-.2,-.8c-.3,-.8,-1.1,-1.3,-2.1,-1.3c-.8,0,-1.4,.3,-1.8,.6c-.4,.3,-.7,.8,-.7,1.5c0,.4,.2,.8,.4,1c.2,.2,.5,.4,.9,.4c.4,0,.7,-.2,.7,-.5Z" class="g0_327"/>
<path d="M531.1,302c-.4,0,-.9,.2,-1.3,.5c-.5,.3,-.9,.7,-1.3,1.1c-.6,.8,-1.2,2,-1.2,3.3c0,1,.4,1.7,1.3,1.7c1.3,0,1.8,-.9,2.2,-1.5c-.2,.9,-.1,1.5,.6,1.5c.3,0,.7,-.1,1.1,-.5c.4,-.3,.7,-.8,1.1,-1.3l-.2,-.2c-.3,.4,-.9,1.4,-1.3,1.4c-.3,0,-.3,-.4,-.3,-.6c0,-.9,.6,-2.4,.9,-3.4l.7,-1.9h-1l-.2,.7c-.2,-.5,-.5,-.8,-1.1,-.8Zm.1,.3c.7,0,.6,1.3,.5,1.9c-.1,.3,-.2,.6,-.3,1c-.4,1.2,-1.5,3.1,-2.3,3.1c-.6,0,-.8,-1,-.8,-1.5c0,-.4,.1,-.8,.2,-1.3c.4,-1,1.5,-3.2,2.7,-3.2Z" class="g0_327"/>
<path d="M536.7,306.2c-.7,0,-1.1,-.5,-1.1,-1.1c0,-.8,.4,-1.7,1.3,-1.7c1.2,0,1.3,1,1.3,1.9c0,.9,-.2,1.5,-.7,2.1c-.2,.5,-.6,.9,-1.1,1.4c-.5,.5,-1.1,1.1,-1.8,1.7v.4h4.5l.4,-2.1h-.3c-.1,.2,-.2,.4,-.3,.5c-.1,.4,-.4,.6,-1,.6h-2.1c.5,-.4,1,-.8,1.4,-1.1c.7,-.7,1.5,-1.4,2,-2.3c.1,-.4,.2,-.8,.2,-1.2c0,-.3,0,-.6,-.1,-.8c-.4,-.8,-1.1,-1.3,-2.2,-1.3c-.7,0,-1.4,.3,-1.8,.6c-.3,.3,-.7,.8,-.7,1.5c0,.4,.2,.8,.4,1c.2,.2,.5,.4,.9,.4c.4,0,.7,-.2,.8,-.5Z" class="g0_327"/>
<path d="M543,310.8c-.7,0,-1.3,-.7,-1.3,-1.4c0,-.6,.3,-1,.8,-1c0,-.3,-.4,-.4,-.7,-.4c-.2,0,-.3,0,-.5,.1c-.4,.1,-.6,.6,-.6,1.1c0,.3,0,.5,.1,.7c.4,.7,1.2,1.1,2.2,1.1c.8,0,1.4,-.3,1.9,-.6c.4,-.4,.7,-.9,.7,-1.6c0,-.2,0,-.4,-.1,-.7c-.3,-.6,-.9,-1.1,-1.6,-1.3c.4,-.1,.8,-.4,1,-.7c.3,-.2,.5,-.6,.5,-1.1c0,-.3,-.1,-.5,-.2,-.7c-.3,-.7,-1.1,-1.1,-2.2,-1.1c-.6,0,-1.1,.2,-1.5,.4c-.3,.2,-.6,.5,-.6,1c0,.3,.2,.6,.3,.7c.2,.2,.4,.3,.7,.3c.2,0,.4,0,.5,-.1c.1,0,.2,-.1,.2,-.2c-.4,0,-.7,-.3,-.7,-.8c0,-.6,.5,-1.1,1.1,-1.1c.8,0,1.2,.7,1.2,1.6c0,.9,-.3,1.8,-1.1,1.8c-.1,-.1,-.4,-.2,-.6,-.2c-.2,0,-.5,.1,-.5,.3c0,.2,.3,.3,.6,.3c.2,0,.5,-.1,.6,-.2c.9,0,1.2,.8,1.2,1.8c0,1,-.4,2,-1.4,2Z" class="g0_327"/>
<path d="M566.4,302c-.4,0,-.9,.2,-1.3,.5c-.4,.3,-.9,.7,-1.2,1.1c-.7,.8,-1.3,2,-1.3,3.3c0,1,.4,1.7,1.3,1.7c1.3,0,1.8,-.9,2.2,-1.5c-.2,.9,-.1,1.5,.6,1.5c.3,0,.7,-.1,1.1,-.5c.4,-.3,.8,-.8,1.1,-1.3l-.2,-.2c-.3,.4,-.9,1.4,-1.3,1.4c-.2,0,-.3,-.4,-.3,-.6c0,-.9,.6,-2.4,.9,-3.4l.7,-1.9h-1l-.2,.7c-.2,-.5,-.5,-.8,-1.1,-.8Zm.1,.3c.7,0,.6,1.3,.5,1.9c-.1,.3,-.2,.6,-.3,1c-.4,1.2,-1.5,3.1,-2.3,3.1c-.6,0,-.7,-1,-.7,-1.5c0,-.4,0,-.8,.1,-1.3c.4,-1,1.5,-3.2,2.7,-3.2Z" class="g0_327"/>
<path d="M572,306.2c-.7,0,-1.1,-.5,-1.1,-1.1c0,-.8,.4,-1.7,1.3,-1.7c1.2,0,1.4,1,1.4,1.9c0,.9,-.3,1.5,-.8,2.1c-.2,.5,-.6,.9,-1.1,1.4c-.5,.5,-1.1,1.1,-1.8,1.7v.4h4.5l.4,-2.1h-.3c-.1,.2,-.2,.4,-.2,.5c-.2,.4,-.5,.6,-1,.6h-2.2c.5,-.4,1,-.8,1.4,-1.1c.8,-.7,1.5,-1.4,2,-2.3c.1,-.4,.2,-.8,.2,-1.2c0,-.3,0,-.6,-.1,-.8c-.4,-.8,-1.1,-1.3,-2.2,-1.3c-.7,0,-1.3,.3,-1.7,.6c-.4,.3,-.7,.8,-.7,1.5c0,.4,.1,.8,.3,1c.2,.2,.5,.4,.9,.4c.4,0,.7,-.2,.8,-.5Z" class="g0_327"/>
<path d="M578.6,304.7v4h-2.5c.8,-1.3,1.6,-2.7,2.5,-4Zm-2.8,3.9v.5h2.8v.4c0,.9,-.1,1.2,-.6,1.2v.2h2.1v-.2c-.4,0,-.5,-.5,-.5,-1.3v-.3h1.2c0,0,0,-.4,0,-.4c0,0,-1.2,0,-1.2,0v-5.5h-.3l-3.5,5.4Z" class="g0_327"/>
<path d="M460.5,319.9c-.5,0,-.9,.2,-1.4,.5c-.4,.3,-.8,.7,-1.2,1.1c-.6,.8,-1.2,2,-1.2,3.3c0,1,.3,1.7,1.3,1.7c1.3,0,1.8,-.9,2.1,-1.5h.1c-.2,.9,-.1,1.5,.5,1.5c.4,0,.8,-.1,1.2,-.4c.3,-.4,.7,-.9,1,-1.4l-.1,-.2c-.3,.4,-1,1.4,-1.4,1.4c-.2,0,-.3,-.4,-.3,-.6c0,-.9,.6,-2.4,1,-3.4l.7,-1.9h-1l-.3,.7c-.2,-.5,-.5,-.8,-1,-.8Zm.1,.3c.7,0,.5,1.3,.4,1.9c0,.3,-.2,.6,-.3,1c-.3,1.2,-1.4,3.1,-2.2,3.1c-.6,0,-.8,-1,-.8,-1.5c0,-.4,0,-.8,.2,-1.3c.4,-1,1.4,-3.2,2.7,-3.2Z" class="g0_327"/>
<path d="M466.3,328.7c-.8,0,-1.3,-.7,-1.3,-1.4c0,-.6,.3,-1,.8,-1c-.1,-.3,-.4,-.4,-.7,-.4c-.2,0,-.3,0,-.5,.1c-.4,.1,-.7,.6,-.7,1.1c0,.3,.1,.5,.2,.7c.4,.7,1.2,1.1,2.2,1.1c.8,0,1.4,-.3,1.8,-.6c.4,-.4,.8,-.9,.8,-1.6c0,-.2,-.1,-.4,-.2,-.7c-.2,-.6,-.8,-1.1,-1.5,-1.3c.4,-.1,.8,-.4,1,-.7c.2,-.2,.4,-.6,.4,-1.1c0,-.3,0,-.5,-.1,-.7c-.4,-.7,-1.2,-1.1,-2.2,-1.1c-.6,0,-1.1,.2,-1.5,.4c-.3,.2,-.6,.5,-.6,1c0,.3,.1,.6,.3,.7c.1,.2,.4,.3,.7,.3c.2,0,.3,0,.5,-.1c.1,0,.2,-.1,.2,-.2c-.4,0,-.7,-.3,-.7,-.8c0,-.6,.5,-1.1,1.1,-1.1c.8,0,1.2,.7,1.2,1.6c0,.9,-.3,1.8,-1.1,1.8c-.2,-.1,-.4,-.2,-.6,-.2c-.2,0,-.5,.1,-.5,.3c0,.2,.3,.3,.5,.3c.3,0,.5,-.1,.7,-.2c.9,0,1.1,.8,1.1,1.8c0,1,-.4,2,-1.3,2Z" class="g0_327"/>
<path d="M470.9,321.7v.1c.4,0,.8,.1,1,.2c.3,.1,.3,.3,.3,.7v4.8c0,.2,0,.4,0,.5c-.1,.5,-.7,.6,-1.2,.6v.2h3.4v-.2c-.3,0,-.9,0,-1,-.2c-.2,-.2,-.2,-.6,-.2,-1v-6.3c-.6,.3,-1.6,.6,-2.3,.6Z" class="g0_327"/>
<path d="M495.8,319.9c-.5,0,-.9,.2,-1.3,.5c-.5,.3,-.9,.7,-1.3,1.1c-.6,.8,-1.2,2,-1.2,3.3c0,1,.4,1.7,1.3,1.7c1.3,0,1.8,-.9,2.2,-1.5c-.2,.9,-.1,1.5,.5,1.5c.4,0,.8,-.1,1.2,-.4c.4,-.4,.7,-.9,1.1,-1.4l-.2,-.2c-.3,.4,-.9,1.4,-1.4,1.4c-.2,0,-.2,-.4,-.2,-.6c0,-.9,.6,-2.4,.9,-3.4l.7,-1.9h-1l-.3,.7c-.1,-.5,-.4,-.8,-1,-.8Zm.1,.3c.7,0,.6,1.3,.5,1.9c-.1,.3,-.2,.6,-.3,1c-.4,1.2,-1.5,3.1,-2.3,3.1c-.6,0,-.8,-1,-.8,-1.5c0,-.4,0,-.8,.2,-1.3c.4,-1,1.4,-3.2,2.7,-3.2Z" class="g0_327"/>
<path d="M501.6,328.7c-.8,0,-1.3,-.7,-1.3,-1.4c0,-.6,.3,-1,.8,-1c0,-.3,-.4,-.4,-.7,-.4c-.2,0,-.3,0,-.5,.1c-.4,.1,-.7,.6,-.7,1.1c0,.3,.1,.5,.2,.7c.4,.7,1.2,1.1,2.2,1.1c.8,0,1.4,-.3,1.8,-.6c.5,-.4,.8,-.9,.8,-1.6c0,-.2,-.1,-.4,-.1,-.7c-.3,-.6,-.9,-1.1,-1.6,-1.3c.4,-.1,.8,-.4,1,-.7c.3,-.2,.5,-.6,.5,-1.1c0,-.3,-.1,-.5,-.2,-.7c-.3,-.7,-1.2,-1.1,-2.2,-1.1c-.6,0,-1.1,.2,-1.5,.4c-.3,.2,-.6,.5,-.6,1c0,.3,.1,.6,.3,.7c.2,.2,.4,.3,.7,.3c.2,0,.3,0,.5,-.1c.1,0,.2,-.1,.2,-.2c-.4,0,-.7,-.3,-.7,-.8c0,-.6,.5,-1.1,1.1,-1.1c.8,0,1.2,.7,1.2,1.6c0,.9,-.3,1.8,-1.1,1.8c-.2,-.1,-.4,-.2,-.6,-.2c-.2,0,-.5,.1,-.5,.3c0,.2,.3,.3,.5,.3c.3,0,.5,-.1,.7,-.2c.9,0,1.1,.8,1.1,1.8c0,1,-.3,2,-1.3,2Z" class="g0_327"/>
<path d="M507.4,324.1c-.6,0,-1,-.5,-1,-1.1c0,-.8,.4,-1.7,1.3,-1.7c1.2,0,1.3,1,1.3,1.9c0,.9,-.2,1.5,-.7,2.1c-.3,.4,-.7,.9,-1.1,1.4c-.5,.5,-1.1,1.1,-1.9,1.7v.4h4.6l.4,-2.1H510c-.1,.2,-.2,.4,-.3,.5c-.1,.4,-.4,.6,-1,.6h-2.1c.5,-.4,1,-.8,1.4,-1.1c.7,-.7,1.5,-1.4,1.9,-2.3c.2,-.4,.3,-.8,.3,-1.2c0,-.3,-.1,-.6,-.2,-.8c-.3,-.8,-1.1,-1.3,-2.1,-1.3c-.8,0,-1.4,.3,-1.8,.6c-.4,.3,-.7,.8,-.7,1.5c0,.4,.2,.8,.4,1c.2,.2,.5,.4,.9,.4c.4,0,.7,-.2,.7,-.5Z" class="g0_327"/>
<path d="M531.1,319.9c-.4,0,-.9,.2,-1.3,.5c-.5,.3,-.9,.7,-1.3,1.1c-.6,.8,-1.2,2,-1.2,3.3c0,1,.4,1.7,1.3,1.7c1.3,0,1.8,-.9,2.2,-1.5c-.2,.9,-.1,1.5,.6,1.5c.3,0,.7,-.1,1.1,-.4c.4,-.4,.7,-.9,1.1,-1.4l-.2,-.2c-.3,.4,-.9,1.4,-1.3,1.4c-.3,0,-.3,-.4,-.3,-.6c0,-.9,.6,-2.4,.9,-3.4l.7,-1.9h-1l-.2,.7c-.2,-.5,-.5,-.8,-1.1,-.8Zm.1,.3c.7,0,.6,1.3,.5,1.9c-.1,.3,-.2,.6,-.3,1c-.4,1.2,-1.5,3.1,-2.3,3.1c-.6,0,-.8,-1,-.8,-1.5c0,-.4,.1,-.8,.2,-1.3c.4,-1,1.5,-3.2,2.7,-3.2Z" class="g0_327"/>
<path d="M536.9,328.7c-.7,0,-1.3,-.7,-1.3,-1.4c0,-.6,.3,-1,.8,-1c0,-.3,-.4,-.4,-.7,-.4c-.2,0,-.3,0,-.5,.1c-.4,.1,-.6,.6,-.6,1.1c0,.3,0,.5,.1,.7c.4,.7,1.2,1.1,2.2,1.1c.8,0,1.4,-.3,1.9,-.6c.4,-.4,.7,-.9,.7,-1.6c0,-.2,0,-.4,-.1,-.7c-.3,-.6,-.9,-1.1,-1.6,-1.3c.4,-.1,.8,-.4,1,-.7c.3,-.2,.5,-.6,.5,-1.1c0,-.3,-.1,-.5,-.2,-.7c-.3,-.7,-1.1,-1.1,-2.2,-1.1c-.6,0,-1.1,.2,-1.5,.4c-.3,.2,-.6,.5,-.6,1c0,.3,.2,.6,.3,.7c.2,.2,.4,.3,.7,.3c.2,0,.4,0,.5,-.1c.1,0,.2,-.1,.2,-.2c-.4,0,-.7,-.3,-.7,-.8c0,-.6,.5,-1.1,1.1,-1.1c.8,0,1.2,.7,1.2,1.6c0,.9,-.3,1.8,-1.1,1.8c-.1,-.1,-.4,-.2,-.6,-.2c-.2,0,-.5,.1,-.5,.3c0,.2,.3,.3,.6,.3c.2,0,.5,-.1,.6,-.2c.9,0,1.2,.8,1.2,1.8c0,1,-.4,2,-1.4,2Z" class="g0_327"/>
<path d="M543,328.7c-.7,0,-1.3,-.7,-1.3,-1.4c0,-.6,.3,-1,.8,-1c0,-.3,-.4,-.4,-.7,-.4c-.2,0,-.3,0,-.5,.1c-.4,.1,-.6,.6,-.6,1.1c0,.3,0,.5,.1,.7c.4,.7,1.2,1.1,2.2,1.1c.8,0,1.4,-.3,1.9,-.6c.4,-.4,.7,-.9,.7,-1.6c0,-.2,0,-.4,-.1,-.7c-.3,-.6,-.9,-1.1,-1.6,-1.3c.4,-.1,.8,-.4,1,-.7c.3,-.2,.5,-.6,.5,-1.1c0,-.3,-.1,-.5,-.2,-.7c-.3,-.7,-1.1,-1.1,-2.2,-1.1c-.6,0,-1.1,.2,-1.5,.4c-.3,.2,-.6,.5,-.6,1c0,.3,.2,.6,.3,.7c.2,.2,.4,.3,.7,.3c.2,0,.4,0,.5,-.1c.1,0,.2,-.1,.2,-.2c-.4,0,-.7,-.3,-.7,-.8c0,-.6,.5,-1.1,1.1,-1.1c.8,0,1.2,.7,1.2,1.6c0,.9,-.3,1.8,-1.1,1.8c-.1,-.1,-.4,-.2,-.6,-.2c-.2,0,-.5,.1,-.5,.3c0,.2,.3,.3,.6,.3c.2,0,.5,-.1,.6,-.2c.9,0,1.2,.8,1.2,1.8c0,1,-.4,2,-1.4,2Z" class="g0_327"/>
<path d="M566.4,319.9c-.4,0,-.9,.2,-1.3,.5c-.4,.3,-.9,.7,-1.2,1.1c-.7,.8,-1.3,2,-1.3,3.3c0,1,.4,1.7,1.3,1.7c1.3,0,1.8,-.9,2.2,-1.5c-.2,.9,-.1,1.5,.6,1.5c.3,0,.7,-.1,1.1,-.4c.4,-.4,.8,-.9,1.1,-1.4l-.2,-.2c-.3,.4,-.9,1.4,-1.3,1.4c-.2,0,-.3,-.4,-.3,-.6c0,-.9,.6,-2.4,.9,-3.4l.7,-1.9h-1l-.2,.7c-.2,-.5,-.5,-.8,-1.1,-.8Zm.1,.3c.7,0,.6,1.3,.5,1.9c-.1,.3,-.2,.6,-.3,1c-.4,1.2,-1.5,3.1,-2.3,3.1c-.6,0,-.7,-1,-.7,-1.5c0,-.4,0,-.8,.1,-1.3c.4,-1,1.5,-3.2,2.7,-3.2Z" class="g0_327"/>
<path d="M572.2,328.7c-.7,0,-1.3,-.7,-1.3,-1.4c0,-.6,.3,-1,.9,-1c-.1,-.3,-.4,-.4,-.8,-.4c-.1,0,-.3,0,-.4,.1c-.4,.1,-.7,.6,-.7,1.1c0,.3,0,.5,.2,.7c.3,.7,1.1,1.1,2.1,1.1c.8,0,1.4,-.3,1.9,-.6c.4,-.4,.7,-.9,.7,-1.6c0,-.2,0,-.4,-.1,-.7c-.3,-.6,-.8,-1.1,-1.6,-1.3c.4,-.1,.8,-.4,1.1,-.7c.2,-.2,.4,-.6,.4,-1.1c0,-.3,-.1,-.5,-.2,-.7c-.3,-.7,-1.1,-1.1,-2.1,-1.1c-.7,0,-1.2,.2,-1.6,.4c-.3,.2,-.5,.5,-.5,1c0,.3,.1,.6,.3,.7c.1,.2,.3,.3,.7,.3c.1,0,.3,0,.4,-.1c.1,0,.2,-.1,.2,-.2c-.4,0,-.7,-.3,-.7,-.8c0,-.6,.5,-1.1,1.2,-1.1c.7,0,1.1,.7,1.1,1.6c0,.9,-.2,1.8,-1,1.8c-.2,-.1,-.4,-.2,-.6,-.2c-.3,0,-.6,.1,-.6,.3c0,.2,.4,.3,.6,.3c.2,0,.5,-.1,.6,-.2c.9,0,1.2,.8,1.2,1.8c0,1,-.4,2,-1.4,2Z" class="g0_327"/>
<path d="M578.6,322.6v4h-2.5c.8,-1.3,1.6,-2.7,2.5,-4Zm-2.8,3.9v.5h2.8v.4c0,.9,-.1,1.2,-.6,1.2v.2h2.1v-.2c-.4,0,-.5,-.5,-.5,-1.3V327h1.2c0,0,0,-.4,0,-.4c0,0,-1.2,0,-1.2,0v-5.5h-.3l-3.5,5.4Z" class="g0_327"/>
<path d="M460.5,337.8c-.5,0,-.9,.2,-1.4,.5c-.4,.3,-.8,.7,-1.2,1.1c-.6,.8,-1.2,2,-1.2,3.3c0,1,.3,1.7,1.3,1.7c1.3,0,1.8,-.9,2.1,-1.5h.1c-.2,.9,-.1,1.5,.5,1.5c.4,0,.8,-.1,1.2,-.4c.3,-.4,.7,-.9,1,-1.4l-.1,-.2c-.3,.4,-1,1.4,-1.4,1.4c-.2,0,-.3,-.4,-.3,-.6c0,-.9,.6,-2.4,1,-3.4l.7,-1.9h-1l-.3,.7c-.2,-.5,-.5,-.8,-1,-.8Zm.1,.3c.7,0,.5,1.3,.4,1.9c0,.3,-.2,.6,-.3,1c-.3,1.2,-1.4,3.1,-2.2,3.1c-.6,0,-.8,-1,-.8,-1.5c0,-.4,0,-.8,.2,-1.3c.4,-1,1.4,-3.2,2.7,-3.2Z" class="g0_327"/>
<path d="M466.5,340.5v4H464c.9,-1.3,1.7,-2.7,2.5,-4Zm-2.7,3.9v.5h2.7v.4c0,.9,-.1,1.2,-.5,1.2v.2h2.1v-.2c-.5,0,-.6,-.5,-.6,-1.3v-.3h1.3c0,0,0,-.4,0,-.4c0,0,-1.3,0,-1.3,0V339h-.3l-3.4,5.4Z" class="g0_327"/>
<path d="M470.9,339.6v.1c.4,0,.8,.1,1,.2c.3,.1,.3,.3,.3,.7v4.8c0,.2,0,.4,0,.5c-.1,.5,-.7,.6,-1.2,.6v.2h3.4v-.2c-.3,0,-.9,0,-1,-.2c-.2,-.2,-.2,-.6,-.2,-1V339c-.6,.3,-1.6,.6,-2.3,.6Z" class="g0_327"/>
<path d="M495.8,337.8c-.5,0,-.9,.2,-1.3,.5c-.5,.3,-.9,.7,-1.3,1.1c-.6,.8,-1.2,2,-1.2,3.3c0,1,.4,1.7,1.3,1.7c1.3,0,1.8,-.9,2.2,-1.5c-.2,.9,-.1,1.5,.5,1.5c.4,0,.8,-.1,1.2,-.4c.4,-.4,.7,-.9,1.1,-1.4l-.2,-.2c-.3,.4,-.9,1.4,-1.4,1.4c-.2,0,-.2,-.4,-.2,-.6c0,-.9,.6,-2.4,.9,-3.4l.7,-1.9h-1l-.3,.7c-.1,-.5,-.4,-.8,-1,-.8Zm.1,.3c.7,0,.6,1.3,.5,1.9c-.1,.3,-.2,.6,-.3,1c-.4,1.2,-1.5,3.1,-2.3,3.1c-.6,0,-.8,-1,-.8,-1.5c0,-.4,0,-.8,.2,-1.3c.4,-1,1.4,-3.2,2.7,-3.2Z" class="g0_327"/>
<path d="M501.9,340.5v4h-2.6c.9,-1.3,1.7,-2.7,2.6,-4Zm-2.8,3.9v.5h2.8v.4c0,.9,-.1,1.2,-.6,1.2v.2h2.1v-.2c-.5,0,-.6,-.5,-.6,-1.3v-.3h1.3c0,0,0,-.4,0,-.4c0,0,-1.3,0,-1.3,0V339h-.3l-3.4,5.4Z" class="g0_327"/>
<path d="M507.4,342c-.6,0,-1,-.5,-1,-1.1c0,-.8,.4,-1.7,1.3,-1.7c1.2,0,1.3,1,1.3,1.9c0,.9,-.2,1.5,-.7,2.2c-.3,.4,-.7,.8,-1.1,1.3c-.5,.5,-1.1,1.1,-1.9,1.7v.4h4.6l.4,-2.1H510c-.1,.2,-.2,.4,-.3,.5c-.1,.4,-.4,.6,-1,.6h-2.1c.5,-.4,1,-.8,1.4,-1.1c.7,-.7,1.5,-1.4,1.9,-2.3c.2,-.4,.3,-.8,.3,-1.2c0,-.3,-.1,-.6,-.2,-.8c-.3,-.8,-1.1,-1.3,-2.1,-1.3c-.8,0,-1.4,.3,-1.8,.6c-.4,.3,-.7,.8,-.7,1.5c0,.4,.2,.8,.4,1c.2,.2,.5,.4,.9,.4c.4,0,.7,-.2,.7,-.5Z" class="g0_327"/>
<path d="M531.1,337.8c-.4,0,-.9,.2,-1.3,.5c-.5,.3,-.9,.7,-1.3,1.1c-.6,.8,-1.2,2,-1.2,3.3c0,1,.4,1.7,1.3,1.7c1.3,0,1.8,-.9,2.2,-1.5c-.2,.9,-.1,1.5,.6,1.5c.3,0,.7,-.1,1.1,-.4c.4,-.4,.7,-.9,1.1,-1.4l-.2,-.2c-.3,.4,-.9,1.4,-1.3,1.4c-.3,0,-.3,-.4,-.3,-.6c0,-.9,.6,-2.4,.9,-3.4l.7,-1.9h-1l-.2,.7c-.2,-.5,-.5,-.8,-1.1,-.8Zm.1,.3c.7,0,.6,1.3,.5,1.9c-.1,.3,-.2,.6,-.3,1c-.4,1.2,-1.5,3.1,-2.3,3.1c-.6,0,-.8,-1,-.8,-1.5c0,-.4,.1,-.8,.2,-1.3c.4,-1,1.5,-3.2,2.7,-3.2Z" class="g0_327"/>
<path d="M537.2,340.5v4h-2.5c.8,-1.3,1.6,-2.7,2.5,-4Zm-2.8,3.9v.5h2.8v.4c0,.9,-.1,1.2,-.6,1.2v.2h2.1v-.2c-.4,0,-.6,-.5,-.6,-1.3v-.3h1.3c0,0,0,-.4,0,-.4c0,0,-1.2,0,-1.3,0V339h-.3l-3.4,5.4Z" class="g0_327"/>
<path d="M543,346.6c-.7,0,-1.3,-.7,-1.3,-1.4c0,-.6,.3,-1,.8,-1c0,-.3,-.4,-.4,-.7,-.4c-.2,0,-.3,0,-.5,.1c-.4,.1,-.6,.6,-.6,1.1c0,.3,0,.5,.1,.7c.4,.7,1.2,1.1,2.2,1.1c.8,0,1.4,-.3,1.9,-.6c.4,-.4,.7,-.9,.7,-1.6c0,-.2,0,-.4,-.1,-.7c-.3,-.6,-.9,-1.1,-1.6,-1.3c.4,-.1,.8,-.4,1,-.7c.3,-.2,.5,-.6,.5,-1.1c0,-.3,-.1,-.5,-.2,-.7c-.3,-.7,-1.1,-1.1,-2.2,-1.1c-.6,0,-1.1,.2,-1.5,.4c-.3,.2,-.6,.5,-.6,1c0,.3,.2,.6,.3,.7c.2,.2,.4,.3,.7,.3c.2,0,.4,0,.5,-.1c.1,0,.2,-.1,.2,-.2c-.4,0,-.7,-.3,-.7,-.8c0,-.6,.5,-1.1,1.1,-1.1c.8,0,1.2,.7,1.2,1.6c0,.9,-.3,1.8,-1.1,1.8c-.1,-.1,-.4,-.2,-.6,-.2c-.2,0,-.5,.1,-.5,.3c0,.2,.3,.3,.6,.3c.2,0,.5,-.1,.6,-.2c.9,0,1.2,.8,1.2,1.8c0,1,-.4,2,-1.4,2Z" class="g0_327"/>
<path d="M566.4,337.8c-.4,0,-.9,.2,-1.3,.5c-.4,.3,-.9,.7,-1.2,1.1c-.7,.8,-1.3,2,-1.3,3.3c0,1,.4,1.7,1.3,1.7c1.3,0,1.8,-.9,2.2,-1.5c-.2,.9,-.1,1.5,.6,1.5c.3,0,.7,-.1,1.1,-.4c.4,-.4,.8,-.9,1.1,-1.4l-.2,-.2c-.3,.4,-.9,1.4,-1.3,1.4c-.2,0,-.3,-.4,-.3,-.6c0,-.9,.6,-2.4,.9,-3.4l.7,-1.9h-1l-.2,.7c-.2,-.5,-.5,-.8,-1.1,-.8Zm.1,.3c.7,0,.6,1.3,.5,1.9c-.1,.3,-.2,.6,-.3,1c-.4,1.2,-1.5,3.1,-2.3,3.1c-.6,0,-.7,-1,-.7,-1.5c0,-.4,0,-.8,.1,-1.3c.4,-1,1.5,-3.2,2.7,-3.2Z" class="g0_327"/>
<path d="M572.5,340.5v4H570c.8,-1.3,1.6,-2.7,2.5,-4Zm-2.8,3.9v.5h2.8v.4c0,.9,-.1,1.2,-.6,1.2v.2H574v-.2c-.4,0,-.5,-.5,-.5,-1.3v-.3h1.2c0,0,0,-.4,0,-.4c0,0,-1.2,0,-1.2,0V339h-.3l-3.5,5.4Z" class="g0_327"/>
<path d="M578.6,340.5v4h-2.5c.8,-1.3,1.6,-2.7,2.5,-4Zm-2.8,3.9v.5h2.8v.4c0,.9,-.1,1.2,-.6,1.2v.2h2.1v-.2c-.4,0,-.5,-.5,-.5,-1.3v-.3h1.2c0,0,0,-.4,0,-.4c0,0,-1.2,0,-1.2,0V339h-.3l-3.5,5.4Z" class="g0_327"/>
<path d="M586.4,287.4v-9.3h-3.6v.8h1.8c.3,0,.6,.2,.6,.6v7.9h1.2Z" class="g0_327"/>
<path d="M585.2,296.1h1.2v-9.6h-1.2Z" class="g0_327"/>
<path d="M585.2,305.1h1.2v-9.6h-1.2Z" class="g0_327"/>
<path d="M585.2,314h1.2v-9.6h-1.2Z" class="g0_327"/>
<path d="M585.2,323h1.2v-9.6h-1.2Z" class="g0_327"/>
<path d="M585.2,331.9h1.2v-9.6h-1.2Z" class="g0_327"/>
<path d="M585.2,340.9h1.2v-9.6h-1.2Z" class="g0_327"/>
<path d="M586.4,349.7v-9.2h-1.2v7.8c0,.4,-.3,.6,-.6,.6h-1.8v.8h3.6Z" class="g0_327"/>
<path d="M589.5,279.1c0,.1,.1,.2,.1,.3c3.2,5.4,4,19.2,4,20.4v.7H595v-.7c0,-1.6,-.5,-15.5,-5.3,-20.8c0,0,-.1,0,-.1,0q-.1,0,-.1,.1Z" class="g0_327"/>
<path d="M593.6,309.7H595v-9.6h-1.4Z" class="g0_327"/>
<path d="M593.6,318.7H595v-9.6h-1.4Z" class="g0_327"/>
<path d="M593.6,327.6H595V318h-1.4Z" class="g0_327"/>
<path d="M589.5,348.8h.1c0,0,.1,0,.1,0c4.8,-5.3,5.3,-19.2,5.3,-20.7v-.7h-1.4v.7c0,1.2,-.8,14.9,-4,20.3c0,.1,-.1,.2,-.1,.4Z" class="g0_327"/>
<path d="M277.1,451.1c1.2,0,.9,1.9,.3,3.2c-.3,.8,-1.2,2.7,-2.4,2.7c-.4,0,-.6,-.3,-.6,-.9c0,-.8,.2,-1.8,.5,-2.4c.2,-.6,.7,-1.6,1.1,-2c.2,-.3,.6,-.6,1.1,-.6Zm-2.3,6.3c1.7,0,2.9,-1.5,3.5,-2.6c.3,-.7,.6,-1.5,.6,-2.3c0,-1,-.5,-1.7,-1.5,-1.7c-.9,0,-1.6,.5,-2,1.1l1.5,-5.6l-2,.1l-.1,.2c.6,0,.9,.3,.9,.6c0,.2,-.1,.6,-.2,.8l-1.6,5.6c-.2,.6,-.3,1,-.4,1.4c-.1,.4,-.1,.7,-.1,.9c0,.8,.6,1.5,1.4,1.5Z" class="g0_327"/>
<path d="M281.3,455.5c0,-2.5,1,-4.4,2.4,-4.4c.5,0,.9,.3,.9,1.1c0,.4,0,1,-.2,1.7c-.2,1,-1,3.1,-2.1,3.1c-.6,0,-1,-.8,-1,-1.5Zm.9,1.9c1,0,1.9,-.8,2.4,-1.4c.5,-.8,1.1,-1.8,1.1,-2.9c0,-.8,-.2,-1.3,-.6,-1.7c-.3,-.4,-.7,-.6,-1.4,-.6c-.5,0,-.9,.1,-1.3,.3c-.8,.5,-1.5,1.3,-1.9,2.3c-.2,.5,-.2,1,-.2,1.5c0,.8,.1,1.4,.5,1.8c.4,.4,.8,.7,1.4,.7Z" class="g0_327"/>
<path d="M293.7,451.7c0,-.5,-.4,-.9,-1,-.9c-.3,0,-.6,.1,-.9,.3c-.3,.2,-.6,.5,-.9,.9c0,-.7,-.4,-1.2,-1,-1.2c-1.1,0,-2.1,1.1,-2.4,1.9l.2,.1c.3,-.5,1,-1.7,1.9,-1.7c.3,0,.4,.6,.4,1c0,.3,0,.7,-.2,1.2l-.3,1.1c-.2,.6,-.4,1.4,-.7,1.8c-.2,.3,-.5,.7,-.8,.7c-.5,0,-.8,-.1,-.7,-.5c.1,-.3,.1,-.7,-.4,-.7c-.4,0,-.6,.3,-.6,.7c0,.6,.5,1,1.1,1c1,0,1.7,-.8,2.1,-1.5c.1,.8,.5,1.5,1.4,1.5c1.1,0,2,-1.2,2.4,-1.9l-.2,-.2c-.5,.7,-1.2,1.7,-2,1.7c-.4,0,-.6,-.6,-.6,-1.2c0,-.4,0,-.8,.2,-1.4l.2,-.7c.1,-.6,.3,-1.2,.6,-1.6c.2,-.3,.5,-.9,.9,-.9c.4,0,.4,.3,.4,.6c-.1,.4,.1,.5,.4,.5c.4,0,.5,-.2,.5,-.6Z" class="g0_327"/>
<path d="M299.6,446.6c-2.2,1.4,-3.7,3.8,-3.7,6.8c0,2.8,1.6,5.6,3.7,6.8l.1,-.2c-1.9,-1.5,-2.5,-3.3,-2.5,-6.6c0,-3.3,.6,-5,2.5,-6.6l-.1,-.2Z" class="g0_327"/>
<path d="M305.8,450.7c-.5,0,-1,.2,-1.5,.5c-.5,.3,-1,.7,-1.4,1.1c-.7,.8,-1.4,2,-1.4,3.3c0,1,.4,1.8,1.5,1.8c1.5,0,2.1,-.9,2.5,-1.7h.1c-.3,.9,-.2,1.7,.6,1.7c1.3,0,2.1,-1.1,2.6,-1.9l-.2,-.2c-.3,.3,-1,1.3,-1.4,1.3c-.2,0,-.3,-.3,-.3,-.5c0,-.8,.6,-2.4,.9,-3.3l.7,-1.9h-1.3l-.2,.6c-.2,-.3,-.5,-.8,-1.2,-.8Zm.2,.4c.8,0,.5,1.3,.3,1.9c-.1,.3,-.2,.6,-.3,.9c-.5,1.2,-1.5,3,-2.4,3c-.6,0,-.7,-.9,-.7,-1.4c0,-.4,.2,-.9,.4,-1.3c.4,-1,1.3,-3.1,2.7,-3.1Z" class="g0_327"/>
<path d="M310.8,452.5v.2c.3,0,.8,0,.9,.1c.3,.2,.3,.3,.3,.7v4.8c0,.2,0,.4,0,.6c-.1,.4,-.6,.5,-1.2,.5v.2h3.4v-.2c-.3,0,-.9,0,-1,-.2c-.2,-.2,-.2,-.6,-.2,-1V452c-.6,.3,-1.5,.5,-2.2,.5Z" class="g0_327"/>
<path d="M317.7,456.4c0,.5,.2,.8,.7,.8c.1,0,.2,0,.4,-.1c0,.4,-.1,.8,-.3,1.1c-.2,.3,-.6,.6,-1.1,1l.3,.4c.4,-.3,.7,-.5,.9,-.7c.5,-.5,.9,-1,.9,-1.9c0,-.9,-.3,-1.4,-.9,-1.4c-.6,0,-.9,.3,-.9,.8Z" class="g0_327"/>
<path d="M329.1,450.7c-.5,0,-.9,.2,-1.4,.5c-.6,.3,-1,.7,-1.4,1.1c-.8,.8,-1.5,2,-1.5,3.3c0,1,.5,1.8,1.5,1.8c1.5,0,2.1,-.9,2.6,-1.7c-.2,.9,-.2,1.7,.6,1.7c1.3,0,2.1,-1.1,2.7,-1.9l-.3,-.2c-.2,.3,-1,1.3,-1.3,1.3c-.3,0,-.4,-.3,-.4,-.5c0,-.8,.6,-2.4,1,-3.3l.6,-1.9h-1.2l-.3,.6c-.1,-.3,-.5,-.8,-1.2,-.8Zm.2,.4c.9,0,.5,1.3,.3,1.9c0,.3,-.2,.6,-.3,.9c-.4,1.2,-1.5,3,-2.3,3c-.7,0,-.7,-.9,-.7,-1.4c0,-.4,.1,-.9,.3,-1.3c.4,-1,1.3,-3.1,2.7,-3.1Z" class="g0_327"/>
<path d="M335.3,454.9c-.7,0,-1.1,-.4,-1.1,-1.1c0,-.8,.4,-1.6,1.3,-1.6c1.2,0,1.4,.9,1.4,1.9c0,.9,-.3,1.4,-.8,2.1c-.2,.4,-.6,.8,-1.1,1.3c-.5,.5,-1.1,1.1,-1.8,1.8v.3h4.5l.4,-2.1h-.3c-.1,.2,-.2,.4,-.2,.6c-.2,.3,-.5,.5,-1,.5h-2.2c.5,-.4,1,-.7,1.4,-1.1c.8,-.6,1.5,-1.4,2,-2.2c.1,-.4,.2,-.8,.2,-1.2c0,-.3,0,-.6,-.1,-.9c-.4,-.7,-1.1,-1.3,-2.2,-1.3c-.7,0,-1.3,.3,-1.7,.6c-.4,.3,-.7,.8,-.7,1.5c0,.5,.1,.8,.3,1c.2,.3,.5,.5,.9,.5c.4,0,.7,-.2,.8,-.6Z" class="g0_327"/>
<path d="M341,456.4c0,.5,.3,.8,.7,.8c.1,0,.3,0,.4,-.1c0,.4,-.1,.8,-.3,1.1c-.2,.3,-.6,.6,-1,1l.3,.4c.3,-.3,.6,-.5,.8,-.7c.5,-.5,1,-1,1,-1.9c0,-.9,-.4,-1.4,-1,-1.4c-.5,0,-.9,.3,-.9,.8Z" class="g0_327"/>
<path d="M349.8,457.4c.5,0,.8,-.4,.8,-.9c0,-.5,-.3,-.9,-.8,-.9c-.5,0,-.9,.4,-.9,.9c0,.5,.4,.9,.9,.9Z" class="g0_327"/>
<path d="M356.9,457.4c.5,0,.9,-.4,.9,-.9c0,-.5,-.4,-.9,-.9,-.9c-.5,0,-.9,.4,-.9,.9c0,.5,.4,.9,.9,.9Z" class="g0_327"/>
<path d="M364,457.4c.5,0,.9,-.4,.9,-.9c0,-.5,-.4,-.9,-.9,-.9c-.4,0,-.8,.4,-.8,.9c0,.5,.4,.9,.8,.9Z" class="g0_327"/>
<path d="M370.4,456.4c0,.5,.2,.8,.7,.8c.1,0,.2,0,.4,-.1c0,.4,-.1,.8,-.3,1.1c-.2,.3,-.6,.6,-1.1,1l.3,.4c.4,-.3,.7,-.5,.9,-.7c.5,-.5,.9,-1,.9,-1.9c0,-.9,-.3,-1.4,-.9,-1.4c-.6,0,-.9,.3,-.9,.8Z" class="g0_327"/>
<path d="M381.8,450.7c-.4,0,-.9,.2,-1.4,.5c-.5,.3,-1,.7,-1.4,1.1c-.8,.8,-1.5,2,-1.5,3.3c0,1,.5,1.8,1.5,1.8c1.5,0,2.1,-.9,2.6,-1.7c-.2,.9,-.2,1.7,.6,1.7c1.3,0,2.1,-1.1,2.7,-1.9l-.2,-.2c-.3,.3,-1.1,1.3,-1.4,1.3c-.3,0,-.4,-.3,-.4,-.5c0,-.8,.6,-2.4,1,-3.3l.6,-1.9h-1.2l-.3,.6c-.1,-.3,-.5,-.8,-1.2,-.8Zm.2,.4c.9,0,.5,1.3,.3,1.9c0,.3,-.2,.6,-.3,.9c-.4,1.2,-1.5,3,-2.3,3c-.7,0,-.7,-.9,-.7,-1.4c0,-.4,.1,-.9,.3,-1.3c.4,-1,1.3,-3.1,2.7,-3.1Z" class="g0_327"/>
<path d="M391.1,459.6h.3l1.5,-6c.1,-.2,.2,-.3,.2,-.5c.2,-.2,.4,-.7,.6,-.8c.1,-.1,.4,-.1,.5,-.1l.1,-.2H392v.2c.2,0,.4,.1,.6,.2c.1,.2,.1,.6,.1,.9c0,.1,0,.2,0,.4l-1.1,3.9v.2L389.1,452h-2v.2c.4,0,.6,0,.7,.2c.2,.2,.4,.7,.4,1c0,.1,0,.2,-.1,.3l-1.1,4.4c-.1,.3,-.4,.7,-.6,.9c-.3,.3,-.7,.4,-1,.4v.2h2.8v-.2c-.3,0,-.6,0,-.7,-.2c-.2,-.2,-.3,-.5,-.3,-.8c0,-.1,0,-.2,0,-.4l1.2,-4.3v-.2l2.7,6.1Z" class="g0_327"/>
<path d="M396.1,446.6l-.1,.2c1.9,1.6,2.5,3.3,2.5,6.6c0,3.3,-.5,5.1,-2.5,6.6l.2,.2c2,-1.2,3.6,-4,3.6,-6.8c0,-3,-1.5,-5.4,-3.7,-6.8Z" class="g0_327"/>
<path d="M406,455.3h7.6v-.8H406Zm0,-3h7.6v-.8H406Z" class="g0_327"/>
<path d="M423.1,451.9c0,.6,-.2,1.6,-.4,2.1c-.2,.6,-.7,1.7,-1.1,2.2c-.2,.4,-.7,.8,-1.2,.8c-.5,0,-.8,-.4,-.8,-.9c0,-.7,.2,-1.8,.4,-2.3c.4,-.9,1.2,-2.7,2.4,-2.7c.4,0,.7,.3,.7,.8Zm.2,5.5c.4,0,.7,-.2,1,-.6c.4,-.4,.7,-.9,1,-1.7l-.4,-.2c-.2,.6,-.7,1.9,-1.2,1.9c-.3,0,-.4,-.4,-.4,-.7c0,-.2,0,-.3,0,-.5c.1,-.7,.3,-1.2,.4,-1.9c.1,-.4,.3,-1,.5,-1.6l1.5,-5.8h-2.2l-.1,.2c.4,0,.6,.1,.7,.2c.2,.1,.3,.3,.3,.4c0,.3,-.1,.6,-.2,.9l-.9,3.4c-.2,-.4,-.4,-.6,-1,-.6c-1,0,-1.9,.9,-2.5,1.5c-.2,.4,-.4,.7,-.6,1c-.4,.6,-.7,1.4,-.7,2.2c0,.6,.2,1,.5,1.3c.2,.3,.5,.6,1,.6c1.4,-.1,1.9,-.9,2.4,-1.7c0,.1,0,.2,0,.3c0,.1,0,.2,0,.3c0,.6,.2,1.1,.9,1.1Z" class="g0_327"/>
<path d="M430.3,451.1c.3,0,.6,.3,.6,.6c0,1.3,-1.7,2.3,-2.9,2.7c.2,-1,1.1,-3.3,2.3,-3.3Zm.2,-.3c-1.1,0,-2,.8,-2.6,1.4c-.6,.8,-1.1,1.9,-1.1,3.2c0,1.2,.4,2,1.6,2c1,0,1.9,-.8,2.5,-1.8l-.2,-.1c-.4,.6,-1.2,1.5,-2,1.5c-.6,0,-.9,-.5,-.9,-1.4c0,-.2,.1,-.7,.1,-.9c1.5,-.3,3.9,-1.2,3.9,-2.9c0,-.7,-.6,-1,-1.3,-1Z" class="g0_327"/>
<path d="M433.7,457.4c1.2,0,2.1,-1.3,2.5,-2.1l-.3,-.2c-.3,.4,-.9,1.7,-1.6,1.7c-.3,0,-.4,-.5,-.4,-.6c.1,-.3,.1,-.6,.3,-1l1,-4h1.3l.1,-.3h-1.3l.4,-1.6h-1l-.4,1.6h-1.1v.3h1l-1,3.6c-.1,.5,-.2,.8,-.2,1.1c-.1,.3,-.1,.5,-.1,.7c0,.5,.2,.8,.8,.8Z" class="g0_327"/>
<path d="M446.2,418.6c0,-.1,-.1,-.1,-.1,-.1q-.1,0,-.1,0c-4.8,5.4,-5.3,19.2,-5.3,20.8v.7h1.4v-.7c0,-1.2,.7,-14.9,3.9,-20.3c.1,-.2,.2,-.3,.2,-.4Z" class="g0_327"/>
<path d="M440.7,449.2h1.4v-9.6h-1.4Z" class="g0_327"/>
<path d="M440.7,458.2h1.4v-9.6h-1.4Z" class="g0_327"/>
<path d="M440.7,467.1h1.4v-9.6h-1.4Z" class="g0_327"/>
<path d="M446.2,488.3c0,-.1,-.1,-.2,-.2,-.4c-3.2,-5.4,-3.9,-19.1,-3.9,-20.3v-.7h-1.4v.7c0,1.6,.5,15.4,5.3,20.7q0,.1,.1,.1c0,0,.1,-.1,.1,-.1Z" class="g0_327"/>
<path d="M452.9,418.4v-.8h-3.6v9.3h1.1V419c0,-.4,.3,-.6,.7,-.6h1.8Z" class="g0_327"/>
<path d="M449.3,435.7h1.1v-9.6h-1.1Z" class="g0_327"/>
<path d="M449.3,444.6h1.1V435h-1.1Z" class="g0_327"/>
<path d="M449.3,453.6h1.1V444h-1.1Z" class="g0_327"/>
<path d="M449.3,462.5h1.1v-9.6h-1.1Z" class="g0_327"/>
<path d="M449.3,471.5h1.1v-9.6h-1.1Z" class="g0_327"/>
<path d="M449.3,480.4h1.1v-9.6h-1.1Z" class="g0_327"/>
<path d="M452.9,489.2v-.8h-1.8c-.4,0,-.7,-.2,-.7,-.6V480h-1.1v9.2h3.6Z" class="g0_327"/>
<path d="M459.6,423.7c-.4,0,-.9,.1,-1.3,.4c-.5,.3,-.9,.7,-1.3,1.2c-.6,.7,-1.2,1.9,-1.2,3.2c0,1,.4,1.7,1.3,1.7c1.3,0,1.8,-.8,2.2,-1.5c-.2,.9,-.1,1.5,.6,1.5c.3,0,.7,-.1,1.1,-.4c.4,-.4,.7,-.8,1.1,-1.4l-.2,-.1c-.3,.4,-.9,1.3,-1.3,1.3c-.3,0,-.3,-.3,-.3,-.6c0,-.9,.6,-2.4,.9,-3.4l.7,-1.8h-1l-.2,.6c-.2,-.4,-.5,-.7,-1.1,-.7Zm.1,.2c.7,0,.6,1.3,.5,1.9c-.1,.3,-.2,.6,-.3,1c-.4,1.2,-1.5,3.1,-2.3,3.1c-.6,0,-.8,-.9,-.8,-1.4c0,-.5,0,-.9,.2,-1.4c.4,-1,1.5,-3.2,2.7,-3.2Z" class="g0_327"/>
<path d="M464,425.4v.2c.3,0,.8,0,.9,.1c.4,.2,.3,.3,.4,.7v4.8c0,.2,-.1,.4,-.1,.6c0,.4,-.6,.5,-1.2,.5v.2h3.4v-.2c-.3,0,-.9,0,-1,-.2c-.2,-.2,-.2,-.6,-.2,-1v-6.2c-.6,.2,-1.5,.5,-2.2,.5Z" class="g0_327"/>
<path d="M470.1,425.4v.2c.3,0,.8,0,.9,.1c.4,.2,.3,.3,.4,.7v4.8c0,.2,-.1,.4,-.1,.6c-.1,.4,-.6,.5,-1.2,.5v.2h3.4v-.2c-.3,0,-.9,0,-1,-.2c-.2,-.2,-.2,-.6,-.2,-1v-6.2c-.6,.2,-1.5,.5,-2.2,.5Z" class="g0_327"/>
<path d="M498.3,423.7c-.5,0,-.9,.1,-1.3,.4c-.5,.3,-.9,.7,-1.3,1.2c-.6,.7,-1.2,1.9,-1.2,3.2c0,1,.4,1.7,1.3,1.7c1.3,0,1.8,-.8,2.2,-1.5c-.2,.9,-.1,1.5,.5,1.5c.4,0,.8,-.1,1.2,-.4c.4,-.4,.7,-.8,1.1,-1.4l-.2,-.1c-.3,.4,-.9,1.3,-1.4,1.3c-.2,0,-.2,-.3,-.2,-.6c0,-.9,.6,-2.4,.9,-3.4l.7,-1.8h-1l-.3,.6c-.1,-.4,-.4,-.7,-1,-.7Zm.1,.2c.7,0,.6,1.3,.5,1.9c-.1,.3,-.2,.6,-.3,1c-.4,1.2,-1.5,3.1,-2.3,3.1c-.6,0,-.8,-.9,-.8,-1.4c0,-.5,0,-.9,.2,-1.4c.4,-1,1.4,-3.2,2.7,-3.2Z" class="g0_327"/>
<path d="M502.7,425.4v.2c.3,0,.8,0,.9,.1c.4,.2,.3,.3,.4,.7v4.8c0,.2,-.1,.4,-.1,.6c-.1,.4,-.6,.5,-1.2,.5v.2h3.4v-.2c-.3,0,-.9,0,-1,-.2c-.2,-.2,-.2,-.6,-.2,-1v-6.2c-.6,.2,-1.5,.5,-2.2,.5Z" class="g0_327"/>
<path d="M510,427.8c-.7,0,-1.1,-.5,-1.1,-1.1c0,-.8,.4,-1.7,1.3,-1.7c1.2,0,1.3,1,1.3,1.9c0,1,-.2,1.5,-.7,2.2c-.3,.4,-.7,.8,-1.1,1.3c-.5,.5,-1.1,1.1,-1.9,1.8v.3h4.6l.4,-2.1h-.3c-.1,.2,-.2,.4,-.3,.6c-.1,.3,-.4,.5,-1,.5h-2.1c.5,-.4,1,-.7,1.4,-1.1c.7,-.6,1.5,-1.4,1.9,-2.2c.2,-.4,.3,-.8,.3,-1.2c0,-.3,-.1,-.6,-.2,-.9c-.3,-.7,-1,-1.3,-2.1,-1.3c-.8,0,-1.4,.3,-1.8,.6c-.4,.3,-.7,.8,-.7,1.5c0,.4,.2,.8,.4,1c.2,.3,.5,.4,.9,.4c.4,0,.7,-.1,.8,-.5Z" class="g0_327"/>
<path d="M533.1,430.3c.5,0,.9,-.4,.9,-.9c0,-.5,-.4,-.9,-.9,-.9c-.5,0,-.9,.4,-.9,.9c0,.4,.4,.9,.9,.9Z" class="g0_327"/>
<path d="M540.2,430.3c.5,0,.9,-.4,.9,-.9c0,-.5,-.4,-.9,-.9,-.9c-.5,0,-.9,.4,-.9,.9c0,.4,.4,.9,.9,.9Z" class="g0_327"/>
<path d="M547.4,430.3c.5,0,.9,-.4,.9,-.9c0,-.5,-.4,-.9,-.9,-.9c-.5,0,-.9,.4,-.9,.9c0,.4,.4,.9,.9,.9Z" class="g0_327"/>
<path d="M573.3,423.7c-.4,0,-.9,.1,-1.3,.4c-.4,.3,-.9,.7,-1.2,1.2c-.7,.7,-1.3,1.9,-1.3,3.2c0,1,.4,1.7,1.3,1.7c1.3,0,1.8,-.8,2.2,-1.5c-.2,.9,-.1,1.5,.6,1.5c.3,0,.7,-.1,1.1,-.4c.4,-.4,.8,-.8,1.1,-1.4l-.2,-.1c-.3,.4,-.9,1.3,-1.3,1.3c-.2,0,-.3,-.3,-.3,-.6c0,-.9,.6,-2.4,.9,-3.4l.7,-1.8h-1l-.2,.6c-.2,-.4,-.5,-.7,-1.1,-.7Zm.1,.2c.7,0,.6,1.3,.5,1.9c-.1,.3,-.2,.6,-.3,1c-.4,1.2,-1.5,3.1,-2.3,3.1c-.6,0,-.7,-.9,-.7,-1.4c0,-.5,0,-.9,.2,-1.4c.3,-1,1.4,-3.2,2.6,-3.2Z" class="g0_327"/>
<path d="M577.7,425.4v.2c.3,0,.8,0,.9,.1c.4,.2,.4,.3,.4,.7v4.8c0,.2,0,.4,-.1,.6c0,.4,-.6,.5,-1.2,.5v.2h3.5v-.2c-.4,0,-.9,0,-1.1,-.2c-.2,-.2,-.2,-.6,-.2,-1v-6.2c-.5,.2,-1.5,.5,-2.2,.5Z" class="g0_327"/>
<path d="M588.1,432.5h.3l1.5,-6c.1,-.2,.2,-.3,.2,-.5c.1,-.2,.4,-.7,.6,-.8c.1,-.1,.4,-.1,.5,-.1l.1,-.1H589v.1c.2,0,.4,.1,.6,.3c.1,.1,.1,.5,.1,.8c0,.1,0,.2,0,.4l-1.1,4v.1L586.1,425h-2v.1c.4,0,.5,0,.7,.2c.2,.2,.4,.7,.4,1c0,.1,0,.2,-.1,.3L584,431c-.1,.4,-.4,.7,-.6,1c-.3,.2,-.7,.3,-1,.3v.2h2.8v-.2c-.3,0,-.6,0,-.7,-.2c-.2,-.2,-.3,-.5,-.3,-.7c0,-.2,0,-.3,0,-.5l1.2,-4.3v-.2l2.7,6.1Z" class="g0_327"/>
<path d="M459.6,441.6c-.4,0,-.9,.1,-1.3,.4c-.5,.3,-.9,.7,-1.3,1.2c-.6,.7,-1.2,1.9,-1.2,3.2c0,1,.4,1.8,1.3,1.8c1.3,0,1.8,-.9,2.2,-1.6c-.2,.9,-.1,1.6,.6,1.6c.3,0,.7,-.2,1.1,-.5c.4,-.4,.7,-.8,1.1,-1.4l-.2,-.1c-.3,.4,-.9,1.3,-1.3,1.3c-.3,0,-.3,-.3,-.3,-.6c0,-.9,.6,-2.4,.9,-3.4l.7,-1.8h-1l-.2,.6c-.2,-.4,-.5,-.7,-1.1,-.7Zm.1,.2c.7,0,.6,1.3,.5,1.9c-.1,.3,-.2,.6,-.3,1c-.4,1.2,-1.5,3.1,-2.3,3.1c-.6,0,-.8,-.9,-.8,-1.4c0,-.5,0,-.9,.2,-1.4c.4,-1,1.5,-3.2,2.7,-3.2Z" class="g0_327"/>
<path d="M465.2,445.7c-.7,0,-1.1,-.5,-1.1,-1.1c0,-.8,.4,-1.7,1.3,-1.7c1.2,0,1.3,1,1.3,1.9c0,1,-.2,1.5,-.7,2.2c-.3,.4,-.6,.8,-1.1,1.3c-.5,.5,-1.1,1.1,-1.9,1.8v.3h4.6l.4,-2.1h-.3c-.1,.2,-.2,.4,-.3,.6c-.1,.3,-.4,.5,-1,.5h-2.1c.5,-.4,1,-.7,1.4,-1.1c.7,-.6,1.5,-1.4,1.9,-2.2c.2,-.4,.3,-.8,.3,-1.2c0,-.3,0,-.6,-.2,-.9c-.3,-.7,-1,-1.3,-2.1,-1.3c-.7,0,-1.4,.3,-1.8,.6c-.4,.3,-.7,.8,-.7,1.5c0,.4,.2,.8,.4,1c.2,.3,.5,.4,.9,.4c.4,0,.7,-.1,.8,-.5Z" class="g0_327"/>
<path d="M470.1,443.3v.2c.3,0,.8,0,.9,.1c.4,.2,.3,.3,.4,.7v4.8c0,.2,-.1,.4,-.1,.6c-.1,.4,-.6,.5,-1.2,.5v.2h3.4v-.2c-.3,0,-.9,0,-1,-.2c-.2,-.2,-.2,-.6,-.2,-1v-6.2c-.6,.2,-1.5,.5,-2.2,.5Z" class="g0_327"/>
<path d="M498.3,441.6c-.5,0,-.9,.1,-1.3,.4c-.5,.3,-.9,.7,-1.3,1.2c-.6,.7,-1.2,1.9,-1.2,3.2c0,1,.4,1.8,1.3,1.8c1.3,0,1.8,-.9,2.2,-1.6c-.2,.9,-.1,1.6,.5,1.6c.4,0,.8,-.2,1.2,-.5c.4,-.4,.7,-.8,1.1,-1.4l-.2,-.1c-.3,.4,-.9,1.3,-1.4,1.3c-.2,0,-.2,-.3,-.2,-.6c0,-.9,.6,-2.4,.9,-3.4l.7,-1.8h-1l-.3,.6c-.1,-.4,-.4,-.7,-1,-.7Zm.1,.2c.7,0,.6,1.3,.5,1.9c-.1,.3,-.2,.6,-.3,1c-.4,1.2,-1.5,3.1,-2.3,3.1c-.6,0,-.8,-.9,-.8,-1.4c0,-.5,0,-.9,.2,-1.4c.4,-1,1.4,-3.2,2.7,-3.2Z" class="g0_327"/>
<path d="M503.9,445.7c-.7,0,-1.1,-.5,-1.1,-1.1c0,-.8,.4,-1.7,1.3,-1.7c1.2,0,1.3,1,1.3,1.9c0,1,-.2,1.5,-.7,2.2c-.3,.4,-.6,.8,-1.1,1.3c-.5,.5,-1.1,1.1,-1.9,1.8v.3h4.6l.4,-2.1h-.3c-.1,.2,-.2,.4,-.3,.6c-.1,.3,-.4,.5,-1,.5H503c.5,-.4,1,-.7,1.4,-1.1c.7,-.6,1.5,-1.4,1.9,-2.2c.2,-.4,.3,-.8,.3,-1.2c0,-.3,-.1,-.6,-.2,-.9c-.3,-.7,-1,-1.3,-2.1,-1.3c-.7,0,-1.4,.3,-1.8,.6c-.4,.3,-.7,.8,-.7,1.5c0,.4,.2,.8,.4,1c.2,.3,.5,.4,.9,.4c.4,0,.7,-.1,.8,-.5Z" class="g0_327"/>
<path d="M510,445.7c-.7,0,-1.1,-.5,-1.1,-1.1c0,-.8,.4,-1.7,1.3,-1.7c1.2,0,1.3,1,1.3,1.9c0,1,-.2,1.5,-.7,2.2c-.3,.4,-.7,.8,-1.1,1.3c-.5,.5,-1.1,1.1,-1.9,1.8v.3h4.6l.4,-2.1h-.3c-.1,.2,-.2,.4,-.3,.6c-.1,.3,-.4,.5,-1,.5h-2.1c.5,-.4,1,-.7,1.4,-1.1c.7,-.6,1.5,-1.4,1.9,-2.2c.2,-.4,.3,-.8,.3,-1.2c0,-.3,-.1,-.6,-.2,-.9c-.3,-.7,-1,-1.3,-2.1,-1.3c-.8,0,-1.4,.3,-1.8,.6c-.4,.3,-.7,.8,-.7,1.5c0,.4,.2,.8,.4,1c.2,.3,.5,.4,.9,.4c.4,0,.7,-.1,.8,-.5Z" class="g0_327"/>
<path d="M533.1,448.2c.5,0,.9,-.4,.9,-.9c0,-.5,-.4,-.9,-.9,-.9c-.5,0,-.9,.4,-.9,.9c0,.5,.4,.9,.9,.9Z" class="g0_327"/>
<path d="M540.2,448.2c.5,0,.9,-.4,.9,-.9c0,-.5,-.4,-.9,-.9,-.9c-.5,0,-.9,.4,-.9,.9c0,.5,.4,.9,.9,.9Z" class="g0_327"/>
<path d="M547.4,448.2c.5,0,.9,-.4,.9,-.9c0,-.5,-.4,-.9,-.9,-.9c-.5,0,-.9,.4,-.9,.9c0,.5,.4,.9,.9,.9Z" class="g0_327"/>
<path d="M573.3,441.6c-.4,0,-.9,.1,-1.3,.4c-.4,.3,-.9,.7,-1.2,1.2c-.7,.7,-1.3,1.9,-1.3,3.2c0,1,.4,1.8,1.3,1.8c1.3,0,1.8,-.9,2.2,-1.6c-.2,.9,-.1,1.6,.6,1.6c.3,0,.7,-.2,1.1,-.5c.4,-.4,.8,-.8,1.1,-1.4l-.2,-.1c-.3,.4,-.9,1.3,-1.3,1.3c-.2,0,-.3,-.3,-.3,-.6c0,-.9,.6,-2.4,.9,-3.4l.7,-1.8h-1l-.2,.6c-.2,-.4,-.5,-.7,-1.1,-.7Zm.1,.2c.7,0,.6,1.3,.5,1.9c-.1,.3,-.2,.6,-.3,1c-.4,1.2,-1.5,3.1,-2.3,3.1c-.6,0,-.7,-.9,-.7,-1.4c0,-.5,0,-.9,.2,-1.4c.3,-1,1.4,-3.2,2.6,-3.2Z" class="g0_327"/>
<path d="M578.9,445.7c-.7,0,-1.1,-.5,-1.1,-1.1c0,-.8,.4,-1.7,1.3,-1.7c1.2,0,1.4,1,1.4,1.9c0,1,-.3,1.5,-.8,2.2c-.2,.4,-.6,.8,-1.1,1.3c-.5,.5,-1.1,1.1,-1.8,1.8v.3h4.5l.4,-2.1h-.3c-.1,.2,-.2,.4,-.2,.6c-.2,.3,-.5,.5,-1,.5H578c.5,-.4,1,-.7,1.4,-1.1c.8,-.6,1.5,-1.4,2,-2.2c.1,-.4,.2,-.8,.2,-1.2c0,-.3,0,-.6,-.1,-.9c-.4,-.7,-1.1,-1.3,-2.2,-1.3c-.7,0,-1.3,.3,-1.7,.6c-.4,.3,-.7,.8,-.7,1.5c0,.4,.1,.8,.3,1c.2,.3,.5,.4,.9,.4c.4,0,.7,-.1,.8,-.5Z" class="g0_327"/>
<path d="M588.1,450.4h.3l1.5,-6c.1,-.2,.2,-.3,.2,-.5c.1,-.2,.4,-.7,.6,-.8c.1,-.1,.4,-.1,.5,-.1l.1,-.1H589v.1c.2,0,.4,.1,.6,.3c.1,.1,.1,.5,.1,.8c0,.1,0,.2,0,.4l-1.1,4v.1l-2.5,-5.7h-2v.1c.4,0,.5,0,.7,.2c.2,.2,.4,.7,.4,1c0,.1,0,.2,-.1,.3l-1.1,4.4c-.1,.4,-.4,.7,-.6,1c-.3,.2,-.7,.3,-1,.3v.2h2.8v-.2c-.3,0,-.6,0,-.7,-.2c-.2,-.2,-.3,-.5,-.3,-.7c0,-.2,0,-.3,0,-.5l1.2,-4.3v-.2l2.7,6.1Z" class="g0_327"/>
<path d="M456.9,466.1c.5,0,.9,-.4,.9,-.9c0,-.5,-.4,-.9,-.9,-.9c-.5,0,-.9,.4,-.9,.9c0,.4,.4,.9,.9,.9Z" class="g0_327"/>
<path d="M464,466.1c.5,0,.9,-.4,.9,-.9c0,-.5,-.4,-.9,-.9,-.9c-.5,0,-.9,.4,-.9,.9c0,.4,.4,.9,.9,.9Z" class="g0_327"/>
<path d="M471.2,466.1c.5,0,.8,-.4,.8,-.9c0,-.5,-.3,-.9,-.8,-.9c-.5,0,-.9,.4,-.9,.9c0,.4,.4,.9,.9,.9Z" class="g0_327"/>
<path d="M495.6,466.1c.5,0,.9,-.4,.9,-.9c0,-.5,-.4,-.9,-.9,-.9c-.5,0,-.9,.4,-.9,.9c0,.4,.4,.9,.9,.9Z" class="g0_327"/>
<path d="M502.7,466.1c.5,0,.9,-.4,.9,-.9c0,-.5,-.4,-.9,-.9,-.9c-.5,0,-.9,.4,-.9,.9c0,.4,.4,.9,.9,.9Z" class="g0_327"/>
<path d="M509.8,466.1c.6,0,.9,-.4,.9,-.9c0,-.5,-.3,-.9,-.9,-.9c-.4,0,-.8,.4,-.8,.9c0,.4,.4,.9,.8,.9Z" class="g0_327"/>
<path d="M533.1,466.1c.5,0,.9,-.4,.9,-.9c0,-.5,-.4,-.9,-.9,-.9c-.5,0,-.9,.4,-.9,.9c0,.4,.4,.9,.9,.9Z" class="g0_327"/>
<path d="M540.2,466.1c.5,0,.9,-.4,.9,-.9c0,-.5,-.4,-.9,-.9,-.9c-.5,0,-.9,.4,-.9,.9c0,.4,.4,.9,.9,.9Z" class="g0_327"/>
<path d="M547.4,466.1c.5,0,.9,-.4,.9,-.9c0,-.5,-.4,-.9,-.9,-.9c-.5,0,-.9,.4,-.9,.9c0,.4,.4,.9,.9,.9Z" class="g0_327"/>
<path d="M573.5,466.1c.5,0,.9,-.4,.9,-.9c0,-.5,-.4,-.9,-.9,-.9c-.4,0,-.8,.4,-.8,.9c0,.4,.4,.9,.8,.9Z" class="g0_327"/>
<path d="M580.7,466.1c.5,0,.9,-.4,.9,-.9c0,-.5,-.4,-.9,-.9,-.9c-.5,0,-.9,.4,-.9,.9c0,.4,.4,.9,.9,.9Z" class="g0_327"/>
<path d="M587.8,466.1c.5,0,.9,-.4,.9,-.9c0,-.5,-.4,-.9,-.9,-.9c-.5,0,-.9,.4,-.9,.9c0,.4,.4,.9,.9,.9Z" class="g0_327"/>
<path d="M457.9,477.4c-.4,0,-.9,.1,-1.3,.4c-.5,.3,-.9,.7,-1.2,1.2c-.7,.7,-1.3,1.9,-1.3,3.2c0,1,.4,1.8,1.3,1.8c1.3,0,1.8,-.9,2.2,-1.6c-.2,.9,-.1,1.6,.6,1.6c.3,0,.7,-.2,1.1,-.5c.4,-.4,.8,-.8,1.1,-1.4l-.2,-.1c-.3,.4,-.9,1.3,-1.3,1.3c-.2,0,-.3,-.3,-.3,-.6c0,-.9,.6,-2.4,.9,-3.4l.7,-1.8h-1l-.2,.6c-.2,-.4,-.5,-.7,-1.1,-.7Zm.1,.2c.7,0,.6,1.3,.5,1.9c-.1,.3,-.2,.6,-.3,1c-.4,1.2,-1.5,3.1,-2.3,3.1c-.6,0,-.8,-.9,-.8,-1.4c0,-.5,.1,-.9,.2,-1.4c.4,-1,1.5,-3.2,2.7,-3.2Z" class="g0_327"/>
<path d="M466.6,486.2h.3l1.5,-6c.1,-.2,.1,-.3,.2,-.5c.1,-.2,.4,-.7,.6,-.8c.1,-.1,.4,-.1,.5,-.1v-.1h-2.2l-.1,.1c.3,0,.5,.1,.6,.3c.2,.1,.2,.6,.2,.8c0,.1,0,.3,0,.4l-1.1,4v.1l-2.5,-5.7h-2v.1c.4,0,.5,0,.7,.2c.2,.3,.4,.7,.4,1c0,.1,0,.2,-.1,.3l-1.1,4.4c-.1,.4,-.4,.7,-.6,1c-.3,.2,-.7,.3,-1,.3v.2h2.8V486c-.3,0,-.6,0,-.7,-.2c-.2,-.1,-.3,-.5,-.3,-.7c0,-.2,0,-.3,0,-.5l1.1,-4.3l.1,-.2l2.7,6.1Z" class="g0_327"/>
<path d="M471.8,479.1v.2c.3,0,.8,0,.9,.1c.3,.2,.3,.3,.3,.7v4.8c0,.2,0,.4,0,.6c-.1,.4,-.6,.5,-1.2,.5v.2h3.4V486c-.3,0,-.9,0,-1,-.2c-.2,-.2,-.2,-.6,-.2,-1v-6.2c-.6,.2,-1.5,.5,-2.2,.5Z" class="g0_327"/>
<path d="M496.6,477.4c-.4,0,-.9,.1,-1.3,.4c-.5,.3,-.9,.7,-1.3,1.2c-.6,.7,-1.2,1.9,-1.2,3.2c0,1,.4,1.8,1.3,1.8c1.3,0,1.8,-.9,2.2,-1.6c-.2,.9,-.1,1.6,.6,1.6c.3,0,.7,-.2,1.1,-.5c.4,-.4,.7,-.8,1.1,-1.4l-.2,-.1c-.3,.4,-.9,1.3,-1.3,1.3c-.3,0,-.3,-.3,-.3,-.6c0,-.9,.6,-2.4,.9,-3.4l.7,-1.8h-1l-.2,.6c-.2,-.4,-.5,-.7,-1.1,-.7Zm.1,.2c.7,0,.6,1.3,.5,1.9c-.1,.3,-.2,.6,-.3,1c-.4,1.2,-1.5,3.1,-2.3,3.1c-.6,0,-.8,-.9,-.8,-1.4c0,-.5,.1,-.9,.2,-1.4c.4,-1,1.5,-3.2,2.7,-3.2Z" class="g0_327"/>
<path d="M505.3,486.2h.2l1.6,-6c.1,-.2,.1,-.3,.2,-.5c.1,-.2,.4,-.7,.6,-.8c.1,-.1,.4,-.1,.5,-.1v-.1h-2.2l-.1,.1c.3,0,.5,.1,.6,.3c.2,.1,.2,.6,.2,.8c0,.1,0,.3,0,.4l-1.1,4v.1l-2.5,-5.7h-2l-.1,.1c.5,0,.6,0,.8,.2c.2,.3,.4,.7,.4,1c0,.1,0,.2,-.1,.3l-1.2,4.4c0,.4,-.3,.7,-.5,1c-.3,.2,-.7,.3,-1,.3v.2h2.8V486c-.3,0,-.6,0,-.7,-.2c-.2,-.1,-.3,-.5,-.3,-.7c0,-.2,0,-.3,0,-.5l1.1,-4.3l.1,-.2l2.7,6.1Z" class="g0_327"/>
<path d="M511.6,481.5c-.6,0,-1,-.5,-1,-1.1c0,-.8,.4,-1.7,1.3,-1.7c1.2,0,1.3,1,1.3,1.9c0,1,-.3,1.5,-.7,2.2c-.3,.4,-.7,.8,-1.1,1.3c-.5,.5,-1.1,1.1,-1.9,1.8v.3h4.6l.4,-2.1h-.4c0,.2,-.1,.4,-.2,.6c-.1,.3,-.5,.5,-1,.5h-2.1c.5,-.4,1,-.7,1.4,-1.1c.7,-.6,1.5,-1.4,1.9,-2.2c.2,-.4,.3,-.8,.3,-1.2c0,-.3,-.1,-.6,-.2,-.9c-.3,-.7,-1.1,-1.3,-2.2,-1.3c-.7,0,-1.3,.3,-1.7,.6c-.4,.3,-.7,.8,-.7,1.5c0,.4,.2,.8,.4,1c.2,.3,.5,.4,.9,.4c.4,0,.7,-.1,.7,-.5Z" class="g0_327"/>
<path d="M533.1,484c.5,0,.9,-.4,.9,-.9c0,-.5,-.4,-.9,-.9,-.9c-.5,0,-.9,.4,-.9,.9c0,.5,.4,.9,.9,.9Z" class="g0_327"/>
<path d="M540.2,484c.5,0,.9,-.4,.9,-.9c0,-.5,-.4,-.9,-.9,-.9c-.5,0,-.9,.4,-.9,.9c0,.5,.4,.9,.9,.9Z" class="g0_327"/>
<path d="M547.4,484c.5,0,.9,-.4,.9,-.9c0,-.5,-.4,-.9,-.9,-.9c-.5,0,-.9,.4,-.9,.9c0,.5,.4,.9,.9,.9Z" class="g0_327"/>
<path d="M571.6,477.4c-.4,0,-.8,.1,-1.3,.4c-.4,.3,-.9,.7,-1.2,1.2c-.7,.7,-1.3,1.9,-1.3,3.2c0,1,.4,1.8,1.3,1.8c1.3,0,1.8,-.9,2.2,-1.6c-.2,.9,-.1,1.6,.6,1.6c.3,0,.7,-.2,1.1,-.5c.4,-.4,.8,-.8,1.1,-1.4l-.2,-.1c-.3,.4,-.9,1.3,-1.3,1.3c-.2,0,-.3,-.3,-.3,-.6c0,-.9,.6,-2.4,.9,-3.4l.7,-1.8h-1l-.2,.6c-.2,-.4,-.5,-.7,-1.1,-.7Zm.2,.2c.7,0,.5,1.3,.4,1.9c-.1,.3,-.2,.6,-.3,1c-.4,1.2,-1.5,3.1,-2.3,3.1c-.6,0,-.7,-.9,-.7,-1.4c0,-.5,0,-.9,.2,-1.4c.3,-1,1.4,-3.2,2.7,-3.2Z" class="g0_327"/>
<path d="M580.3,486.2h.3l1.6,-6c0,-.2,.1,-.3,.1,-.5c.2,-.2,.4,-.7,.6,-.8c.2,-.1,.4,-.1,.5,-.1l.1,-.2h-2.3v.2c.2,0,.4,.1,.6,.2c.1,.2,.1,.6,.1,.9c0,.1,0,.2,0,.4l-1.1,3.9v.2l-2.5,-5.8h-2v.2c.4,0,.6,0,.7,.2c.2,.2,.4,.7,.4,1c0,.1,0,.2,0,.3l-1.2,4.4c-.1,.3,-.3,.7,-.6,.9c-.2,.3,-.7,.4,-1,.4v.2h2.8V486c-.3,0,-.6,0,-.7,-.2c-.2,-.2,-.3,-.5,-.3,-.8c0,-.1,0,-.2,0,-.4l1.2,-4.3v-.2l2.7,6.1Z" class="g0_327"/>
<path d="M589.8,486.2h.2l1.6,-6c.1,-.2,.1,-.3,.2,-.5c.1,-.2,.4,-.7,.6,-.8c.1,-.1,.4,-.1,.5,-.1v-.2h-2.2l-.1,.2c.3,0,.5,.1,.6,.2c.2,.2,.2,.6,.2,.9c0,.1,0,.2,0,.4l-1.1,3.9v.2l-2.5,-5.8h-2l-.1,.2c.5,0,.6,0,.8,.2c.2,.2,.4,.7,.4,1c0,.1,0,.2,-.1,.3l-1.1,4.4c-.1,.3,-.4,.7,-.6,.9c-.3,.3,-.7,.4,-1,.4v.2h2.8V486c-.3,0,-.6,0,-.7,-.2c-.2,-.2,-.3,-.5,-.3,-.8c0,-.1,0,-.2,0,-.4l1.1,-4.3l.1,-.2l2.7,6.1Z" class="g0_327"/>
<path d="M598.4,426.9v-9.3h-3.6v.8h1.7c.4,0,.7,.2,.7,.6v7.9h1.2Z" class="g0_327"/>
<path d="M597.2,435.7h1.2v-9.6h-1.2Z" class="g0_327"/>
<path d="M597.2,444.6h1.2V435h-1.2Z" class="g0_327"/>
<path d="M597.2,453.6h1.2V444h-1.2Z" class="g0_327"/>
<path d="M597.2,462.5h1.2v-9.6h-1.2Z" class="g0_327"/>
<path d="M597.2,471.5h1.2v-9.6h-1.2Z" class="g0_327"/>
<path d="M597.2,480.4h1.2v-9.6h-1.2Z" class="g0_327"/>
<path d="M598.4,489.2V480h-1.2v7.8c0,.4,-.3,.6,-.7,.6h-1.7v.8h3.6Z" class="g0_327"/>
<path d="M601.5,418.6c0,.1,0,.2,.1,.4c3.2,5.4,4,19.1,4,20.3v.7H607v-.7c0,-1.6,-.6,-15.4,-5.4,-20.8q-.1,0,-.1,.1Z" class="g0_327"/>
<path d="M605.6,449.2H607v-9.6h-1.4Z" class="g0_327"/>
<path d="M605.6,458.2H607v-9.6h-1.4Z" class="g0_327"/>
<path d="M605.6,467.1H607v-9.6h-1.4Z" class="g0_327"/>
<path d="M601.5,488.3c0,0,0,.1,.1,.1v-.1c4.8,-5.3,5.4,-19.1,5.4,-20.7v-.7h-1.4v.7c0,1.2,-.8,14.9,-4,20.3c-.1,.2,-.1,.3,-.1,.4Z" class="g0_327"/>
<path d="M356,729.8c0,.6,-.1,1.5,-.3,2.1c-.2,.6,-.7,1.7,-1.1,2.2c-.2,.3,-.7,.8,-1.2,.8c-.5,0,-.8,-.4,-.8,-.9c0,-.7,.1,-1.8,.4,-2.3c.3,-.9,1.2,-2.7,2.4,-2.7c.4,0,.6,.3,.6,.8Zm.2,5.4c.5,0,.8,-.2,1.1,-.5c.4,-.4,.6,-1,.9,-1.8l-.3,-.1c-.2,.6,-.7,1.9,-1.2,1.9c-.3,0,-.4,-.5,-.4,-.8c0,-.1,0,-.2,0,-.4c.1,-.7,.3,-1.2,.4,-1.9c.1,-.4,.3,-1,.4,-1.6l1.6,-5.8h-2.3v.2c.4,0,.6,.1,.7,.2c.2,.1,.3,.3,.3,.4c0,.3,-.1,.6,-.2,.8l-.9,3.5c-.2,-.4,-.4,-.7,-1,-.7c-1,0,-2,.9,-2.5,1.6c-.3,.3,-.5,.7,-.7,1c-.3,.6,-.6,1.4,-.6,2.2c0,.6,.2,1,.5,1.3c.2,.3,.5,.5,1,.5c1.4,0,1.9,-.8,2.3,-1.6h.1c0,.1,0,.2,0,.3c-.1,.1,-.1,.2,-.1,.3c0,.6,.3,1,.9,1Z" class="g0_327"/>
<path d="M363.3,729c.3,0,.6,.2,.6,.6c0,1.3,-1.7,2.3,-3,2.7c.3,-1.1,1.2,-3.3,2.4,-3.3Zm.2,-.4c-1.2,0,-2,.9,-2.6,1.5c-.6,.8,-1.1,1.9,-1.1,3.2c0,1.2,.4,1.9,1.6,1.9c1,0,1.9,-.7,2.5,-1.7l-.2,-.1c-.4,.6,-1.2,1.5,-2.1,1.5c-.6,0,-.8,-.5,-.8,-1.4c0,-.2,0,-.7,.1,-.9c1.4,-.3,3.9,-1.3,3.9,-2.9c0,-.7,-.6,-1.1,-1.3,-1.1Z" class="g0_327"/>
<path d="M366.6,735.2c1.3,0,2.1,-1.2,2.5,-2l-.2,-.2c-.3,.4,-.9,1.6,-1.7,1.6c-.2,0,-.3,-.4,-.3,-.5c0,-.3,.1,-.6,.2,-1l1.1,-4h1.3l.1,-.3h-1.3l.4,-1.7h-1l-.5,1.7h-1l-.1,.3h1.1l-1,3.6c-.1,.5,-.2,.8,-.3,1.1c0,.3,-.1,.5,-.1,.7c0,.5,.3,.7,.8,.7Z" class="g0_327"/>
<path d="M379.1,748.9c-2.2,-3.4,-2.8,-12.3,-2.8,-17.8c0,-5.5,.6,-13.9,2.8,-17.3l-.2,-.6c-2.1,3.3,-4.1,8,-4.1,17.9c0,9.8,2.1,15.7,4.1,18.4l.2,-.6Z" class="g0_327"/>
<path d="M386,748.9v-.4h-1.6c-.4,0,-.7,-.2,-.7,-.6V714.2c0,-.4,.3,-.6,.7,-.6H386v-.4h-3.5v35.7H386Z" class="g0_327"/>
<path d="M391.3,719.4c-.4,0,-.9,.2,-1.3,.5c-.4,.3,-.9,.7,-1.2,1.1c-.7,.8,-1.3,2,-1.3,3.3c0,1,.4,1.7,1.3,1.7c1.3,0,1.8,-.8,2.2,-1.5c-.2,.9,-.1,1.5,.6,1.5c.3,0,.7,-.1,1.1,-.4c.4,-.4,.8,-.8,1.1,-1.4l-.2,-.2c-.3,.4,-.9,1.4,-1.3,1.4c-.2,0,-.3,-.3,-.3,-.6c0,-.9,.6,-2.4,.9,-3.4l.7,-1.8h-1l-.2,.6c-.2,-.4,-.5,-.8,-1.1,-.8Zm.1,.3c.7,0,.6,1.3,.5,1.9c-.1,.3,-.2,.6,-.3,1c-.4,1.2,-1.5,3.1,-2.3,3.1c-.6,0,-.7,-1,-.7,-1.5c0,-.4,0,-.8,.2,-1.3c.3,-1,1.4,-3.2,2.6,-3.2Z" class="g0_327"/>
<path d="M395.7,721.2v.1c.3,0,.8,.1,.9,.2c.4,.1,.4,.3,.4,.7V727c0,.2,0,.4,-.1,.5c0,.5,-.6,.6,-1.2,.6v.2h3.5v-.2c-.4,0,-.9,0,-1.1,-.2c-.2,-.2,-.2,-.6,-.2,-1v-6.3c-.5,.3,-1.5,.6,-2.2,.6Z" class="g0_327"/>
<path d="M420.5,719.4c-.4,0,-.8,.2,-1.3,.5c-.4,.3,-.8,.7,-1.2,1.1c-.7,.8,-1.3,2,-1.3,3.3c0,1,.4,1.7,1.3,1.7c1.3,0,1.8,-.8,2.2,-1.5c-.2,.9,0,1.5,.6,1.5c.4,0,.7,-.1,1.1,-.4c.4,-.4,.8,-.8,1.1,-1.4l-.2,-.2c-.3,.4,-.9,1.4,-1.3,1.4c-.2,0,-.3,-.3,-.3,-.6c0,-.9,.6,-2.4,.9,-3.4l.7,-1.8h-1l-.2,.6c-.2,-.4,-.5,-.8,-1.1,-.8Zm.2,.3c.7,0,.5,1.3,.4,1.9c-.1,.3,-.2,.6,-.3,1c-.4,1.2,-1.4,3.1,-2.3,3.1c-.6,0,-.7,-1,-.7,-1.5c0,-.4,0,-.8,.2,-1.3c.3,-1,1.4,-3.2,2.7,-3.2Z" class="g0_327"/>
<path d="M426.1,723.6c-.7,0,-1.1,-.5,-1.1,-1.1c0,-.8,.5,-1.7,1.4,-1.7c1.2,0,1.3,1,1.3,1.9c0,1,-.3,1.5,-.7,2.2c-.3,.4,-.7,.8,-1.2,1.3c-.5,.5,-1.1,1.1,-1.8,1.8v.3h4.5l.4,-2.1h-.3c-.1,.2,-.2,.4,-.2,.6c-.2,.3,-.5,.5,-1,.5h-2.1c.4,-.4,.9,-.7,1.3,-1.1c.8,-.6,1.6,-1.4,2,-2.3c.2,-.3,.3,-.7,.3,-1.1c0,-.4,-.1,-.6,-.2,-.9c-.4,-.7,-1.1,-1.3,-2.2,-1.3c-.7,0,-1.3,.3,-1.7,.6c-.4,.3,-.7,.8,-.7,1.5c0,.4,.1,.8,.3,1c.2,.3,.5,.4,.9,.4c.4,0,.7,-.2,.8,-.5Z" class="g0_327"/>
<path d="M391.4,737.7c1.2,0,.9,1.9,.4,3.2c-.4,.8,-1.3,2.7,-2.5,2.7c-.4,0,-.6,-.3,-.6,-1c0,-.7,.2,-1.8,.5,-2.3c.2,-.6,.7,-1.6,1.1,-2c.2,-.3,.6,-.6,1.1,-.6Zm-2.2,6.2c1.6,0,2.8,-1.4,3.4,-2.6c.3,-.6,.6,-1.4,.6,-2.2c0,-1.1,-.5,-1.8,-1.5,-1.8c-.9,0,-1.6,.6,-2,1.2l1.5,-5.6l-2,.1l-.1,.2c.6,0,.9,.3,.9,.6c0,.2,-.1,.6,-.2,.7l-1.6,5.7c-.2,.5,-.3,1,-.4,1.4c0,.3,-.1,.7,-.1,.9c0,.8,.6,1.4,1.5,1.4Z" class="g0_327"/>
<path d="M395.1,739.1v.1c.3,0,.8,.1,1,.2c.3,.1,.3,.3,.3,.7v4.8c0,.2,0,.4,-.1,.5c0,.5,-.6,.6,-1.1,.6v.2h3.4V746c-.4,0,-.9,0,-1.1,-.2c-.1,-.2,-.2,-.6,-.2,-1v-6.3c-.5,.3,-1.5,.6,-2.2,.6Z" class="g0_327"/>
<path d="M420.6,737.7c1.2,0,.9,1.9,.4,3.2c-.4,.8,-1.3,2.7,-2.4,2.7c-.5,0,-.7,-.3,-.7,-1c0,-.7,.2,-1.8,.5,-2.3c.3,-.6,.7,-1.6,1.1,-2c.3,-.3,.6,-.6,1.1,-.6Zm-2.2,6.2c1.6,0,2.8,-1.4,3.4,-2.6c.4,-.6,.7,-1.4,.7,-2.2c0,-1.1,-.5,-1.8,-1.6,-1.8c-.9,0,-1.6,.6,-1.9,1.2h-.1l1.6,-5.6l-2.1,.1l-.1,.2c.6,0,.9,.3,.9,.6c0,.2,-.1,.6,-.2,.7l-1.6,5.7c-.1,.5,-.3,1,-.4,1.4c0,.3,-.1,.7,-.1,.9c0,.8,.6,1.4,1.5,1.4Z" class="g0_327"/>
<path d="M425.5,741.5c-.7,0,-1.1,-.5,-1.1,-1.1c0,-.8,.5,-1.7,1.4,-1.7c1.2,0,1.3,1,1.3,1.9c0,1,-.3,1.5,-.7,2.2c-.3,.4,-.7,.8,-1.2,1.3c-.5,.5,-1.1,1.1,-1.8,1.8v.3H428l.3,-2.1H428c0,.2,-.1,.4,-.2,.5c-.2,.4,-.5,.6,-1,.6h-2.1c.4,-.4,.9,-.7,1.3,-1.1c.8,-.6,1.6,-1.4,2,-2.2c.2,-.4,.3,-.8,.3,-1.2c0,-.4,-.1,-.6,-.2,-.9c-.4,-.7,-1.1,-1.3,-2.2,-1.3c-.7,0,-1.3,.3,-1.7,.6c-.4,.3,-.7,.8,-.7,1.5c0,.4,.1,.8,.3,1c.2,.3,.5,.4,.9,.4c.5,0,.7,-.2,.8,-.5Z" class="g0_327"/>
<path d="M434.6,748.9V713.2h-3.5v.4h1.6c.4,0,.7,.2,.7,.6v33.7c0,.4,-.3,.6,-.7,.6h-1.6v.4h3.5Z" class="g0_327"/>
<path d="M438,748.9l.2,.6c2,-2.7,4.1,-8.6,4.1,-18.4c0,-9.9,-2,-14.6,-4.1,-17.9l-.2,.6c2.2,3.4,2.8,11.8,2.8,17.3c0,5.5,-.6,14.4,-2.8,17.8Z" class="g0_327"/>
<path d="M449,733.2h7.6v-.8H449Zm0,-3h7.6v-.8H449Z" class="g0_327"/>
<path d="M465.9,728.6c-.5,0,-.9,.2,-1.4,.5c-.4,.3,-.8,.7,-1.2,1.1c-.6,.8,-1.2,2,-1.2,3.3c0,1,.3,1.7,1.3,1.7c1.3,0,1.8,-.8,2.1,-1.5h.1c-.2,.9,-.1,1.5,.5,1.5c.4,0,.7,-.1,1.1,-.4c.4,-.4,.8,-.8,1.1,-1.4l-.1,-.2c-.3,.5,-1,1.4,-1.4,1.4c-.2,0,-.3,-.3,-.3,-.6c0,-.9,.6,-2.4,1,-3.4l.7,-1.8h-1l-.3,.6c-.2,-.4,-.5,-.8,-1,-.8Zm.1,.3c.7,0,.5,1.3,.4,1.9c0,.3,-.2,.6,-.3,1c-.3,1.2,-1.4,3.1,-2.2,3.1c-.6,0,-.8,-1,-.8,-1.5c0,-.4,0,-.8,.2,-1.3c.4,-1,1.4,-3.2,2.7,-3.2Z" class="g0_327"/>
<path d="M470.2,730.4v.2c.4,0,.8,0,1,.1c.3,.2,.3,.3,.3,.7v4.8c0,.2,0,.4,0,.5c-.1,.5,-.7,.6,-1.2,.6v.2h3.4v-.2c-.4,0,-.9,0,-1,-.2c-.2,-.2,-.2,-.6,-.2,-1v-6.3c-.6,.3,-1.6,.6,-2.3,.6Z" class="g0_327"/>
<path d="M479.6,729c1.2,0,.9,1.9,.4,3.2c-.3,.8,-1.3,2.7,-2.4,2.7c-.5,0,-.7,-.3,-.7,-1c0,-.7,.3,-1.7,.5,-2.3c.3,-.6,.7,-1.6,1.1,-2c.3,-.3,.7,-.6,1.1,-.6Zm-2.2,6.2c1.7,0,2.9,-1.4,3.5,-2.6c.3,-.6,.6,-1.4,.6,-2.2c0,-1.1,-.5,-1.8,-1.5,-1.8c-.9,0,-1.6,.6,-2,1.2h-.1l1.6,-5.6l-2.1,.1v.2c.6,0,.8,.3,.8,.6c0,.2,-.1,.6,-.1,.7l-1.6,5.7c-.2,.5,-.3,1,-.4,1.4c-.1,.4,-.2,.7,-.2,.9c0,.8,.6,1.4,1.5,1.4Z" class="g0_327"/>
<path d="M484.5,732.8c-.6,0,-1,-.5,-1,-1.1c0,-.8,.4,-1.7,1.3,-1.7c1.2,0,1.3,1,1.3,1.9c0,1,-.3,1.5,-.7,2.2c-.3,.4,-.7,.8,-1.1,1.3c-.5,.5,-1.1,1.1,-1.9,1.8v.3H487l.3,-2.1H487c0,.2,-.1,.4,-.2,.6c-.1,.3,-.5,.5,-1,.5h-2.1c.5,-.4,.9,-.7,1.4,-1.1c.7,-.6,1.5,-1.4,1.9,-2.2c.2,-.4,.3,-.8,.3,-1.2c0,-.4,-.1,-.6,-.2,-.9c-.3,-.7,-1.1,-1.3,-2.2,-1.3c-.7,0,-1.3,.3,-1.7,.6c-.4,.3,-.7,.8,-.7,1.5c0,.4,.1,.8,.4,1c.2,.3,.5,.4,.9,.4c.4,0,.7,-.2,.7,-.5Z" class="g0_327"/>
<path d="M493,731.7h7.6v-.8H493Z" class="g0_327"/>
<path d="M509.4,728.6c-.5,0,-.9,.2,-1.3,.5c-.5,.3,-.9,.7,-1.3,1.1c-.6,.8,-1.2,2,-1.2,3.3c0,1,.4,1.7,1.3,1.7c1.3,0,1.8,-.8,2.2,-1.5c-.2,.9,-.1,1.5,.5,1.5c.4,0,.8,-.1,1.2,-.4c.4,-.4,.7,-.8,1.1,-1.4l-.2,-.2c-.3,.5,-.9,1.4,-1.4,1.4c-.2,0,-.2,-.3,-.2,-.6c0,-.9,.6,-2.4,.9,-3.4l.7,-1.8h-1l-.3,.6c-.1,-.4,-.4,-.8,-1,-.8Zm.1,.3c.7,0,.6,1.3,.5,1.9c-.1,.3,-.2,.6,-.3,1c-.4,1.2,-1.5,3.1,-2.3,3.1c-.6,0,-.8,-1,-.8,-1.5c0,-.4,0,-.8,.2,-1.3c.4,-1,1.4,-3.2,2.7,-3.2Z" class="g0_327"/>
<path d="M515,732.8c-.7,0,-1.1,-.5,-1.1,-1.1c0,-.8,.4,-1.7,1.3,-1.7c1.2,0,1.3,1,1.3,1.9c0,1,-.2,1.5,-.7,2.2c-.3,.4,-.6,.8,-1.1,1.3c-.5,.5,-1.1,1.1,-1.9,1.8v.3h4.6l.4,-2.1h-.3c-.1,.2,-.2,.4,-.3,.6c-.1,.3,-.4,.5,-1,.5h-2.1c.5,-.4,1,-.7,1.4,-1.1c.7,-.6,1.5,-1.4,1.9,-2.2c.2,-.4,.3,-.8,.3,-1.2c0,-.4,-.1,-.6,-.2,-.9c-.3,-.7,-1,-1.3,-2.1,-1.3c-.7,0,-1.4,.3,-1.8,.6c-.4,.3,-.7,.8,-.7,1.5c0,.4,.2,.8,.4,1c.2,.3,.5,.4,.9,.4c.4,0,.7,-.2,.8,-.5Z" class="g0_327"/>
<path d="M523.2,729c1.2,0,.9,1.9,.3,3.2c-.3,.8,-1.3,2.7,-2.4,2.7c-.5,0,-.7,-.3,-.7,-1c0,-.7,.3,-1.7,.5,-2.3c.3,-.6,.8,-1.6,1.2,-2c.2,-.3,.6,-.6,1.1,-.6Zm-2.3,6.2c1.7,0,2.9,-1.4,3.5,-2.6c.3,-.6,.6,-1.4,.6,-2.2c0,-1.1,-.5,-1.8,-1.5,-1.8c-.9,0,-1.6,.6,-2,1.2l1.5,-5.6l-2.1,.1v.2c.6,0,.9,.3,.9,.6c0,.2,-.2,.6,-.2,.7l-1.6,5.7c-.2,.5,-.3,1,-.4,1.4c-.1,.4,-.1,.7,-.1,.9c0,.8,.6,1.4,1.4,1.4Z" class="g0_327"/>
<path d="M526.9,730.4v.2c.3,0,.8,0,.9,.1c.4,.2,.3,.3,.4,.7v4.8c0,.2,0,.4,-.1,.5c0,.5,-.6,.6,-1.2,.6v.2h3.5v-.2c-.4,0,-1,0,-1.1,-.2c-.2,-.2,-.2,-.6,-.2,-1v-6.3c-.6,.3,-1.5,.6,-2.2,.6Z" class="g0_327"/>
</svg>