<?xml version="1.0" encoding="UTF-8" standalone="no"?>
<!DOCTYPE svg PUBLIC "-//W3C//DTD SVG 1.1//EN"
"http://www.w3.org/Graphics/SVG/1.1/DTD/svg11.dtd">
<svg viewBox="0 0 811 1017" version="1.1" xmlns="http://www.w3.org/2000/svg" xmlns:xlink="http://www.w3.org/1999/xlink">
<defs>
<clipPath id="c0_308"><path d="M142.4,317.2V82.5H377V317.2Z"/></clipPath>
<clipPath id="c1_308"><path d="M142.4,596.4V361.7H377V596.4Z"/></clipPath>
<style type="text/css"><![CDATA[
.g0_308{
fill: #0E0E0E;
}
]]></style>
</defs>
<image clip-path="url(#c0_308)" preserveAspectRatio="none" x="142" y="83" width="235" height="234" xlink:href="img/1.jpg"/>
<image clip-path="url(#c1_308)" preserveAspectRatio="none" x="142" y="362" width="235" height="234" xlink:href="img/2.jpg"/>
<path d="M374,801.5c-.4,1.7,-.9,4.2,-2.4,4.2c-.9,0,-1.2,-.7,-1.2,-1.7c0,-.7,.2,-1.6,.4,-2.5H374Zm.7,-3.6c0,.8,-.2,1.9,-.5,3.1H371c.5,-2.2,1.4,-4.5,2.9,-4.5c.5,0,.8,.5,.8,1.4Zm1,.8c0,-.2,-.1,-2.5,-1.8,-2.5c-2.7,0,-4.5,4.1,-4.5,7c0,.5,.1,2.9,2,2.9c2.9,0,4.3,-5.1,4.3,-7.4Z" class="g0_308"/>
<path d="M381.7,804h7.6v-.8h-7.6Zm0,-3h7.6v-.8h-7.6Z" class="g0_308"/>
<path d="M396.2,806c1.2,0,1.8,-.6,2.1,-1.3h.1c0,.8,.3,1.3,1,1.3c.7,0,1.1,-.3,1.3,-.6v-.2c-.2,.2,-.5,.4,-.8,.4c-.3,0,-.5,-.4,-.5,-1.3v-3c0,-1.5,-.7,-1.9,-2.2,-1.9c-1.3,0,-2.5,.7,-2.5,1.2c0,.4,.2,.6,.6,.6c.4,0,.6,-.2,.7,-.5c.1,-.3,.1,-.5,.3,-.7c.1,-.1,.4,-.3,.7,-.3c1.3,0,1.3,.7,1.3,1.6v.5l-1.8,.8c-.6,.3,-1.1,.5,-1.5,.9c-.2,.3,-.4,.6,-.4,1.1c0,.9,.7,1.4,1.6,1.4Zm-.4,-1.6c0,-.5,.3,-.9,.6,-1.1c.5,-.5,1.1,-.8,1.9,-1.2v1.6c0,.6,-.2,1,-.5,1.4c-.2,.3,-.7,.5,-1.1,.5c-.6,0,-.9,-.7,-.9,-1.2Z" class="g0_308"/>
<path d="M406.4,800.1c0,-.4,-.3,-.7,-.8,-.7c-.2,0,-.4,.1,-.6,.1c-.7,.3,-1.2,.9,-1.5,1.5l-.2,-1.4l-2.1,.4v.2c.2,0,.5,.1,.6,.2c.3,.3,.4,.5,.4,1c0,.3,0,.7,0,1.3v1.6c0,.3,0,.6,0,.7c-.1,.7,-.3,.7,-1,.7v.2h3.2v-.2c-.2,0,-.4,0,-.5,-.1c-.5,-.2,-.5,-.7,-.5,-1.4v-.9c0,-1.1,.2,-2.1,.6,-2.7c.3,-.3,.5,-.5,.7,-.5c.6,0,.6,.6,1,.6c.4,0,.7,-.2,.7,-.6Z" class="g0_308"/>
<path d="M410.2,805.7c-1.3,0,-1.9,-1.6,-1.9,-3.1c0,-1.4,.6,-2.9,1.8,-2.9c.8,0,.8,.5,1,.8c.2,.3,.4,.5,.7,.5c.4,0,.6,-.2,.6,-.5c0,-.4,-.3,-.7,-.6,-.8c-.4,-.2,-.9,-.3,-1.5,-.3c-1,0,-1.9,.4,-2.4,.9c-.6,.6,-.9,1.4,-.9,2.5c0,.5,0,.9,.2,1.3c.4,1.1,1.2,1.9,2.7,1.9c1.3,0,2,-.5,2.6,-1.1l-.2,-.1c-.5,.4,-1.2,.9,-2.1,.9Z" class="g0_308"/>
<path d="M416.7,805.7c-1.4,0,-1.9,-1.6,-1.9,-3.1c0,-1.4,.5,-2.9,1.7,-2.9c.8,0,.9,.5,1,.8c.2,.3,.4,.5,.8,.5c.3,0,.6,-.2,.6,-.5c0,-.4,-.3,-.7,-.6,-.8c-.4,-.2,-.9,-.3,-1.6,-.3c-1,0,-1.8,.4,-2.4,.9c-.5,.6,-.9,1.4,-.9,2.5c0,.5,.1,.9,.2,1.3c.4,1.1,1.3,1.9,2.7,1.9c1.3,0,2,-.5,2.6,-1.1l-.1,-.1c-.5,.4,-1.3,.9,-2.1,.9Z" class="g0_308"/>
<path d="M423.2,799.7c1.3,0,2,1.6,2,3c0,1.7,-.8,3,-2,3c-1.7,0,-2,-1.5,-2,-3c0,-1.4,.6,-3,2,-3Zm0,-.3c-.5,0,-.9,.1,-1.3,.3c-1.1,.4,-2.1,1.4,-2.1,3c0,.5,.1,.9,.3,1.3c.5,1.1,1.2,2,3.1,2c1.1,0,1.8,-.4,2.3,-.9c.6,-.6,1,-1.4,1,-2.4c0,-.5,0,-.9,-.2,-1.3c-.6,-1.1,-1.6,-2,-3.1,-2Z" class="g0_308"/>
<path d="M429.8,799.7c.8,0,1.2,.8,1.5,1.6h.2v-1.8h-.2l-.3,.3c-.2,-.1,-.4,-.2,-.6,-.3c-.2,-.1,-.5,-.1,-.7,-.1c-.5,0,-.9,.2,-1.2,.5c-.4,.3,-.6,.8,-.6,1.4c0,.7,.5,1.1,.9,1.5c.6,.4,2.2,1,2.2,1.8c0,.6,-.3,1.1,-1.1,1.1c-.9,0,-1.5,-.7,-1.8,-1.9h-.2v2.1h.2l.3,-.4c.4,.3,1,.5,1.6,.5c.6,0,1.1,-.1,1.5,-.5c.3,-.3,.5,-.7,.5,-1.3c0,-1,-1.1,-1.6,-1.9,-2.1c-.4,-.3,-1.2,-.6,-1.2,-1.4c0,-.5,.3,-1,.9,-1Z" class="g0_308"/>
<path d="M451.5,789.3c-.5,0,-1,.1,-1.5,.5c-.5,.2,-1,.6,-1.4,1.1c-.7,.8,-1.4,2,-1.4,3.3c0,1,.4,1.7,1.5,1.7c1.5,0,2.1,-.9,2.5,-1.6c-.2,.8,-.1,1.6,.7,1.6c1.2,0,2.1,-1,2.6,-1.9l-.2,-.2c-.3,.4,-1,1.4,-1.4,1.4c-.2,0,-.3,-.4,-.3,-.6c0,-.7,.6,-2.3,.9,-3.2l.7,-1.9h-1.3l-.3,.6c-.1,-.4,-.4,-.8,-1.1,-.8Zm.1,.4c.9,0,.5,1.3,.4,1.8c-.1,.3,-.2,.7,-.3,1c-.5,1.1,-1.6,3,-2.4,3c-.6,0,-.7,-1,-.7,-1.5c0,-.4,.2,-.8,.4,-1.2c.3,-1,1.3,-3.1,2.6,-3.1Z" class="g0_308"/>
<path d="M461.6,792c0,-.5,-.4,-.9,-.8,-.9c-.5,0,-.8,.4,-.8,.9c0,.6,.5,.8,.8,.8c.3,0,.8,-.3,.8,-.8Z" class="g0_308"/>
<path d="M470.5,789.8c1.7,0,.7,2.5,.4,3.1c-.3,.8,-1.1,2.6,-2.2,2.6c-.5,0,-.7,-.3,-.7,-1c-.1,-.6,.2,-1.7,.4,-2.2c.2,-.6,.7,-1.5,1.1,-1.9c.2,-.3,.5,-.6,1,-.6Zm.1,-4.8v0l-2.8,.1v.4c.6,0,.8,.2,.8,.5c0,.2,-.1,.5,-.1,.7l-1.7,5.5c-.2,.6,-.3,1,-.4,1.4c-.1,.4,-.1,.7,-.1,.9c0,.8,.9,1.4,1.9,1.4c2.2,0,3.3,-1.4,3.9,-2.6c.4,-.6,.7,-1.4,.6,-2.2c0,-1.1,-.8,-1.8,-1.8,-1.8c-1,0,-1.7,.6,-2,1.3l.1,-.4l1.6,-5.2Z" class="g0_308"/>
<path d="M436.9,802.5h46.6v-.9H436.9Z" class="g0_308"/>
<path d="M438.7,819h.8V805.6h-.8Zm3,0h.8V805.6h-.8Z" class="g0_308"/>
<path d="M449.4,809.6c-.5,0,-1,.2,-1.5,.5c-.5,.3,-1,.7,-1.4,1.1c-.8,.8,-1.5,2,-1.5,3.3c0,1,.5,1.8,1.5,1.8c1.5,0,2.1,-.9,2.6,-1.7c-.2,.8,-.2,1.7,.6,1.7c1.3,0,2.1,-1.1,2.7,-2l-.2,-.1c-.3,.3,-1,1.3,-1.4,1.3c-.3,0,-.3,-.3,-.3,-.5c0,-.8,.6,-2.4,.9,-3.3l.7,-1.9h-1.3l-.3,.6c-.1,-.3,-.5,-.8,-1.1,-.8Zm.1,.4c.9,0,.5,1.3,.4,1.9c-.1,.3,-.3,.6,-.4,.9c-.4,1.1,-1.5,3,-2.3,3c-.7,0,-.7,-.9,-.7,-1.4c0,-.4,.1,-.9,.3,-1.3c.4,-1,1.4,-3.1,2.7,-3.1Z" class="g0_308"/>
<path d="M455.1,819h.9V805.6h-.9Zm3,0h.8V805.6h-.8Z" class="g0_308"/>
<path d="M462.6,819h.8V805.6h-.8Zm3,0h.8V805.6h-.8Z" class="g0_308"/>
<path d="M472.6,810.2c1.8,0,.7,2.5,.4,3c-.3,.8,-1.1,2.6,-2.2,2.6c-.5,0,-.7,-.3,-.7,-.9c0,-.7,.2,-1.7,.4,-2.3c.3,-.5,.7,-1.5,1.1,-1.9c.2,-.3,.6,-.5,1,-.5Zm-2.3,6.1c2.2,0,3.4,-1.5,4,-2.6c.3,-.6,.6,-1.4,.5,-2.3c0,-1,-.8,-1.7,-1.8,-1.7c-.9,0,-1.6,.6,-2,1.2l.2,-.4l1.5,-5.1l-2.8,.1v.3c.6,0,.8,.3,.8,.5c0,.2,-.1,.6,-.1,.7l-1.7,5.6c-.2,.5,-.3,1,-.4,1.3c0,.4,-.1,.7,-.1,.9c.1,.9,1,1.5,1.9,1.5Z" class="g0_308"/>
<path d="M477.8,819h.9V805.6h-.9Zm3,0h.8V805.6h-.8Z" class="g0_308"/>
</svg>