<?xml version="1.0" encoding="UTF-8" standalone="no"?>
<!DOCTYPE svg PUBLIC "-//W3C//DTD SVG 1.1//EN"
"http://www.w3.org/Graphics/SVG/1.1/DTD/svg11.dtd">
<svg viewBox="0 0 811 1017" version="1.1" xmlns="http://www.w3.org/2000/svg" xmlns:xlink="http://www.w3.org/1999/xlink">
<defs>
<style type="text/css"><![CDATA[
.g0_324{
fill: #F9FBFB;
}
.g1_324{
fill: #F3F6F7;
}
.g2_324{
fill: #F0F3F4;
}
.g3_324{
fill: #F6F7F7;
}
.g4_324{
fill: #EDEFF0;
}
.g5_324{
fill: #040504;
}
.g6_324{
fill: #B0B2B1;
}
.g7_324{
fill: #D74562;
}
.g8_324{
fill: #0E0E0E;
}
]]></style>
</defs>
<path d="M420.6,686.6L265.8,663.9l-.1,.6l-.4,-129l157.6,15.1l-2.3,136ZM265.3,534.9v0Z" class="g0_324"/>
<path d="M421.6,687.8l-.4,-.1h.1l-.2,-.5l-.2,-.5l-.8,.4L265.7,664.5l.1,-.6l154.8,22.7l2.3,-136L265.3,535.5l.1,-.1l-.1,-.5v-.5L424,549.7v.2l-2.4,137.9Z" class="g0_324"/>
<path d="M161.7,701.4L159.2,560.6L265.3,535.5l.4,129l-.1,-.5L161.7,701.4Z" class="g1_324"/>
<path d="M265.7,664.5v0Z" class="g2_324"/>
<path d="M160.7,703v-.3h.5l-.5,.3Zm-.1,-1.2l-2.5,-142l107,-25.4l.2,.5l-.1,.6h.1L159.2,560.6l2.5,140.8L265.6,664l-105,37.8Z" class="g1_324"/>
<path d="M265.3,535.5v0Zm0,-.6v0Z" class="g2_324"/>
<path d="M265.3,535.5v0h-.1l.1,-.6l.1,.5l-.1,.1Z" class="g2_324"/>
<path d="M326,729.3L163.3,702L265.8,665l153.4,22.5L326,729.3Z" class="g3_324"/>
<path d="M419.2,687.5L265.8,665h.1l-.2,-.5l154.4,22.6l-.9,.4Z" class="g1_324"/>
<path d="M163.3,702L265.8,665L163.3,702Z" class="g2_324"/>
<path d="M326.2,730.4l-165,-27.7l2.1,-.7L326,729.3l93.2,-41.8l2,.2l-95,42.7ZM160.7,702.7l-1.6,-.3l1.5,-.6l.1,.9Z" class="g3_324"/>
<path d="M421.2,687.7l-2,-.2l.9,-.4l.8,-.4l.2,.5l.2,.5h-.1Z" class="g1_324"/>
<path d="M161.2,702.7h-.5l-.1,-.9L265.6,664l.1,.5v.5h.1L163.3,702l-2.1,.7Z" class="g2_324"/>
<path d="M265.8,665h-.1v-.5l.2,.5h-.1Z" class="g4_324"/>
<path d="M421.3,686.6l-95.8,43l.4,.8l95.8,-43l-.4,-.8Z" class="g5_324"/>
<path d="M384.4,713.7l-2.1,2.8l2.2,3h-1.1l-1.7,-2.3l-1.7,2.3h-1.1l2.2,-3.1l-2,-2.7h1.1l1.5,2l1.6,-2h1.1Z" class="g5_324"/>
<path d="M419.4,687.5L264.3,664.8l-.6,-129.4h-.8l.5,129.8c0,.2,.2,.4,.4,.4l155.5,22.8l.1,-.9Z" class="g6_324"/>
<path d="M383.6,703.6L224.7,679.1L223.4,544.9l-.8,.1l1.2,134.5c0,.2,.2,.3,.4,.4l159.3,24.6l.1,-.9Z" class="g6_324"/>
<path d="M344.7,721.1L181.9,694.5L179.8,555.3H179l2.1,139.6c0,.2,.1,.4,.3,.4l163.2,26.6l.1,-.8Z" class="g6_324"/>
<path d="M417.6,688.1l4.8,.7l.1,-.8l-4.8,-.7l-.1,.8Z" class="g5_324"/>
<path d="M381.7,704.2l4.9,.8l.1,-.9l-4.9,-.7l-.1,.8Z" class="g5_324"/>
<path d="M342.8,721.6l5,.9l.1,-.9l-5,-.8l-.1,.8Z" class="g5_324"/>
<path d="M160.7,702.5l165.8,27.8l.1,-.8L160.8,701.7l-.1,.8Z" class="g5_324"/>
<path d="M234.3,728.7c-.3,.7,-.6,1.2,-.8,1.4c-.3,.2,-.6,.3,-1.1,.3h-.7v-.8h.5c.3,0,.5,-.1,.7,-.2c.1,-.1,.3,-.4,.4,-.9l.2,-.4l-2.3,-5.7h1l1.8,4.5l1.8,-4.5h1l-2.5,6.3Z" class="g5_324"/>
<path d="M267.8,535.2l.5,129.4L164.1,702.3l.3,.8L268.8,665.3c.2,-.1,.3,-.2,.3,-.4l-.4,-129.7h-.9Z" class="g6_324"/>
<path d="M316.5,539.9l-.4,131.7L214.8,710.8l.3,.8L316.7,672.3c.2,-.1,.3,-.2,.3,-.4l.4,-132h-.9Z" class="g6_324"/>
<path d="M367.1,544.8l-1.3,134.1l-98.3,40.7l.3,.8l98.6,-40.8c.2,-.1,.3,-.3,.3,-.4L368,544.8h-.9Z" class="g6_324"/>
<path d="M165.5,701.8l-3.6,1.3l.3,.8l3.5,-1.3l-.2,-.8Z" class="g5_324"/>
<path d="M216,710.3l-3.4,1.3l.3,.8l3.5,-1.3l-.4,-.8Z" class="g5_324"/>
<path d="M268.7,719.1l-3.4,1.4l.4,.8l3.4,-1.4l-.4,-.8Z" class="g5_324"/>
<path d="M161.6,702.6L159.1,559.8h-.9l2.6,142.8h.8Z" class="g5_324"/>
<path d="M143.9,631.3h4.6v.8l-3.6,4.2h3.6v.8h-4.7v-.9l3.6,-4.2h-3.5v-.7Z" class="g5_324"/>
<path d="M161.3,699.8L265.8,662.4l155.3,22.5l.1,-.8L265.8,661.5h-.2L161,699l.3,.8Z" class="g6_324"/>
<path d="M160.3,643.6L265.6,611L422,630.7l.1,-.9L265.6,610.2h-.2L160,642.8l.3,.8Z" class="g6_324"/>
<path d="M159.2,586.6L265.4,559L423,575.6l.1,-.8L265.4,558.2h-.2L159,585.7l.2,.9Z" class="g6_324"/>
<path d="M162.3,698.5l-3.6,1.3l.3,.8l3.6,-1.3l-.3,-.8Z" class="g5_324"/>
<path d="M161.3,642.4l-3.6,1.1l.3,.8l3.6,-1.1l-.3,-.8Z" class="g5_324"/>
<path d="M160.4,585.4l-3.7,.9l.2,.9l3.7,-1l-.2,-.8Z" class="g5_324"/>
<path d="M301.3,560.9l-22,101.3l1.6,.4L302.8,561.2l-1.5,-.3Z" class="g7_324"/>
<path d="M301.2,561l-.4,15.3h1.6l.4,-15.2l-1.6,-.1Z" class="g7_324"/>
<path d="M301.3,560.7L296,572.4l1.4,.6l5.4,-11.6l-1.5,-.7Z" class="g7_324"/>
<path d="M381.2,670.8l-101,-9.2l-.2,1.6l101.1,9.2l.1,-1.6Z" class="g7_324"/>
<path d="M381,670.8l-14,2.6l.3,1.6l14,-2.7l-.3,-1.5Z" class="g7_324"/>
<path d="M381.4,670.8l-14.2,-5.2l-.6,1.5l14.3,5.2l.5,-1.5Z" class="g7_324"/>
<path d="M406,565.5l-1.6,-.1V567l1.6,.1v-1.6Zm-3.2,-.2h-1.6v1.6h1.6v-1.6Zm-3.2,-.1l-1.6,-.1v1.6l1.6,.1v-1.6Zm-3.2,-.2l-1.6,-.1v1.6l1.6,.1V565Zm-3.1,-.1l-1.6,-.1l-.1,1.6l1.6,.1l.1,-1.6Zm-3.2,-.2l-1.6,-.1l-.1,1.6l1.6,.1l.1,-1.6Zm-3.2,-.2h-1.6l-.1,1.6h1.6l.1,-1.6Zm-3.2,-.1l-1.6,-.1l-.1,1.6l1.6,.1l.1,-1.6Zm-3.2,-.2l-1.6,-.1l-.1,1.6l1.6,.1l.1,-1.6Zm-3.2,-.1l-1.6,-.1l-.1,1.6l1.6,.1l.1,-1.6Zm-3.2,-.2l-1.6,-.1l-.1,1.6l1.6,.1l.1,-1.6Zm-3.2,-.2h-1.6l-.1,1.5l1.6,.1l.1,-1.6Zm-3.2,-.1l-1.6,-.1l-.1,1.6l1.6,.1l.1,-1.6Zm-3.2,-.2l-1.6,-.1l-.1,1.6l1.6,.1l.1,-1.6Zm-3.2,-.2h-1.6l-.1,1.6h1.6l.1,-1.6Zm-3.2,-.1l-1.6,-.1l-.1,1.6l1.6,.1l.1,-1.6Zm-3.2,-.2l-1.6,-.1l-.1,1.6l1.6,.1l.1,-1.6Zm-3.2,-.1l-1.6,-.1l-.1,1.6l1.6,.1l.1,-1.6Zm-3.2,-.2l-1.6,-.1l-.1,1.6l1.6,.1l.1,-1.6Zm-3.2,-.2h-1.6l-.1,1.6h1.6l.1,-1.6Zm-3.2,-.1l-1.6,-.1v1.6l1.6,.1v-1.6Zm-3.2,-.2l-1.6,-.1v1.6l1.6,.1v-1.6Zm-3.2,-.1l-1.6,-.1v1.6l1.6,.1V562Zm-3.2,-.2l-1.5,-.1l-.1,1.6l1.6,.1v-1.6Zm-3.1,-.2h-1.6l-.1,1.5l1.6,.1l.1,-1.6Zm-3.2,-.1l-1.6,-.1l-.1,1.6l1.6,.1l.1,-1.6Zm-3.2,-.2l-1.6,-.1l-.1,1.6l1.6,.1l.1,-1.6Zm-3.2,-.2h-1.6l-.1,1.6h1.6l.1,-1.6Zm-3.2,-.1l-1.6,-.1l-.1,1.6l1.6,.1l.1,-1.6Zm-3.2,-.2l-1.6,-.1l-.1,1.6l1.6,.1l.1,-1.6Zm-3.2,-.1l-1.6,-.1l-.1,1.6l1.6,.1l.1,-1.6Zm-3.2,-.2l-1.6,-.1l-.1,1.6l1.6,.1l.1,-1.6Zm-3.2,-.2h-1.6l-.1,1.6h1.6l.1,-1.6Z" class="g7_324"/>
<path d="M405.8,566l-1.5,.3l.4,1.6l1.5,-.4l-.4,-1.5Zm-3.1,.7l-1.5,.4l.3,1.5l1.6,-.3l-.4,-1.6Zm-3.1,.7l-1.5,.4l.3,1.5L400,569l-.4,-1.6Zm-3.1,.7l-1.6,.4l.4,1.6l1.6,-.4l-.4,-1.6Zm-3.1,.8l-.6,.1l.4,1.6l.5,-.2l-.3,-1.5Z" class="g7_324"/>
<path d="M406.3,565.1l-1.5,-.5l-.5,1.5l1.5,.5l.5,-1.5Zm-3,-1l-1.5,-.5l-.5,1.6l1.5,.4l.5,-1.5Zm-3.1,-1l-1.5,-.5l-.5,1.6l1.5,.5l.5,-1.6Zm-3,-1l-1.5,-.5l-.5,1.6l1.5,.5l.5,-1.6Zm-3,-1l-1.3,-.4l-.5,1.6l1.3,.4l.5,-1.6Z" class="g7_324"/>
<path d="M406.4,567.7l-.4,1.6l1.6,.4l.4,-1.6l-1.6,-.4Zm-.8,3.1l-.3,1.6l1.5,.4l.4,-1.6l-1.6,-.4Zm-.7,3.1l-.4,1.6l1.5,.4l.4,-1.6l-1.5,-.4Zm-.8,3.1l-.4,1.6l1.5,.4l.4,-1.6l-1.5,-.4Zm-.8,3.2l-.4,1.5l1.6,.4l.4,-1.6l-1.6,-.3Zm-.8,3.1l-.4,1.5l1.6,.4l.4,-1.6l-1.6,-.3Zm-.8,3.1l-.3,1.5l1.5,.4l.4,-1.6l-1.6,-.3Zm-.7,3.1l-.4,1.5l1.5,.4l.4,-1.5l-1.5,-.4Zm-.8,3.1l-.4,1.5l1.5,.4l.4,-1.5l-1.5,-.4Zm-.8,3.1l-.4,1.5l1.6,.4l.4,-1.5l-1.6,-.4Zm-.8,3.1l-.4,1.5l1.6,.4l.4,-1.5l-1.6,-.4Zm-.8,3.1l-.3,1.5l1.5,.4l.4,-1.5l-1.6,-.4Zm-.7,3.1l-.4,1.5l1.5,.4l.4,-1.5l-1.5,-.4Zm-.8,3.1l-.4,1.5l1.5,.4l.4,-1.5l-1.5,-.4Zm-.8,3.1l-.4,1.5l1.6,.4l.4,-1.5l-1.6,-.4Zm-.8,3.1l-.4,1.5l1.6,.4l.4,-1.5l-1.6,-.4Zm-.8,3.1l-.3,1.5l1.5,.4l.4,-1.5l-1.6,-.4Zm-.7,3.1l-.4,1.5l1.5,.4l.4,-1.5l-1.5,-.4Zm-.8,3.1l-.4,1.5l1.6,.4l.3,-1.5l-1.5,-.4Zm-.8,3.1l-.4,1.5l1.6,.4l.4,-1.5l-1.6,-.4Zm-.8,3.1l-.4,1.5l1.6,.4l.4,-1.5l-1.6,-.4Zm-.8,3.1l-.3,1.5l1.5,.4l.4,-1.5l-1.6,-.4Zm-.7,3.1l-.4,1.5l1.5,.4l.4,-1.5l-1.5,-.4Zm-.8,3.1l-.4,1.6l1.6,.3l.3,-1.5l-1.5,-.4Zm-.8,3.1l-.4,1.6l1.6,.3l.4,-1.5l-1.6,-.4Zm-.8,3.1l-.4,1.6l1.6,.3l.4,-1.5l-1.6,-.4Zm-.7,3.1l-.4,1.6l1.5,.3l.4,-1.5l-1.5,-.4Zm-.8,3.1l-.4,1.6l1.5,.4l.4,-1.6l-1.5,-.4Zm-.8,3.1l-.4,1.6l1.6,.4l.3,-1.6l-1.5,-.4Zm-.8,3.1l-.4,1.6l1.6,.4l.4,-1.6l-1.6,-.4Zm-.8,3.1l-.4,1.6l1.6,.4l.4,-1.6l-1.6,-.4Zm-.7,3.1l-.4,1.6l1.5,.4l.4,-1.6l-1.5,-.4Zm-.8,3.1l-.4,1.6l1.5,.4l.4,-1.6l-1.5,-.4Zm-.8,3.1l-.3,1.3l1.5,.4l.3,-1.3l-1.5,-.4Z" class="g7_324"/>
<path d="M406.7,567.9l-.1,1.6l1.6,.1l.1,-1.6l-1.6,-.1Zm-.1,3.2l-.1,1.6l1.6,.1l.1,-1.6l-1.6,-.1Zm-.2,3.2l-.1,1.6l1.6,.1l.1,-1.6l-1.6,-.1Zm-.1,3.2l-.1,1.6l1.6,.1l.1,-1.6l-1.6,-.1Zm-.2,3.2l-.1,1.5l1.6,.1l.1,-1.5l-1.6,-.1Z" class="g7_324"/>
<path d="M406.1,567.4l-.7,1.5l1.4,.7l.8,-1.4l-1.5,-.8Zm-1.4,2.9l-.8,1.4l1.5,.7l.7,-1.4l-1.4,-.7Zm-1.5,2.8l-.7,1.4l1.4,.8l.7,-1.4l-1.4,-.8Zm-1.5,2.9l-.7,1.4l1.4,.7l.7,-1.4l-1.4,-.7Z" class="g7_324"/>
<path d="M217.4,696.8l63.1,-33.7l-.8,-1.4l-63.1,33.7l.8,1.4Z" class="g7_324"/>
<path d="M217.1,696.9l9,-.7l-.1,-1.6l-9.1,.7l.2,1.6Z" class="g7_324"/>
<path d="M217.6,696.7l8.9,-8.9l-1.1,-1.1l-9,8.9l1.2,1.1Z" class="g7_324"/>
<path d="M240.5,586.8l1.4,-.6l-.6,-1.5l-1.4,.6l.6,1.5Zm2.9,-1.2l1.5,-.6l-.6,-1.5l-1.5,.6l.6,1.5Zm3,-1.2l1.5,-.6l-.6,-1.5l-1.5,.6l.6,1.5Zm3,-1.2l1.4,-.6l-.6,-1.5l-1.4,.6l.6,1.5Zm2.9,-1.2l1.5,-.6l-.6,-1.5l-1.5,.6l.6,1.5Zm3,-1.2l1.5,-.6l-.6,-1.5l-1.5,.6l.6,1.5Zm3,-1.2l1.4,-.6l-.6,-1.5l-1.4,.6l.6,1.5Zm2.9,-1.2l1.5,-.6l-.6,-1.5l-1.5,.6l.6,1.5Zm3,-1.2l1.5,-.6l-.6,-1.5l-1.5,.6l.6,1.5Zm3,-1.2l1.4,-.6l-.6,-1.5l-1.4,.6l.6,1.5Zm2.9,-1.2l1.5,-.6l-.6,-1.5l-1.5,.6l.6,1.5Zm3,-1.2l1.5,-.6l-.6,-1.5l-1.5,.6l.6,1.5Zm3,-1.2l1.4,-.6l-.6,-1.5l-1.4,.6l.6,1.5Zm2.9,-1.2l1.5,-.6l-.6,-1.5l-1.5,.6l.6,1.5Zm3,-1.2l1.5,-.6l-.6,-1.5l-1.5,.6l.6,1.5Zm3,-1.2l1.4,-.6l-.6,-1.5l-1.4,.6l.6,1.5Zm2.9,-1.2l1.5,-.6l-.6,-1.5l-1.5,.6l.6,1.5Zm3,-1.2l1.5,-.6l-.6,-1.5l-1.5,.6l.6,1.5Zm3,-1.2l1.4,-.6l-.6,-1.5l-1.4,.6l.6,1.5Zm2.9,-1.2l1.5,-.6l-.6,-1.5l-1.5,.6l.6,1.5Zm3,-1.2l1.5,-.6l-.6,-1.5l-1.5,.6l.6,1.5Z" class="g7_324"/>
<path d="M240.2,587.5l1.6,.1l.1,-1.6l-1.6,-.1l-.1,1.6Zm3.2,.2l1.6,.1l.1,-1.5l-1.6,-.2l-.1,1.6Zm3.2,.3h1.1l.1,-1.6h-1.1l-.1,1.6Z" class="g7_324"/>
<path d="M240.4,586.2l1.2,-1.1l-1.1,-1.2l-1.2,1.1l1.1,1.2Zm2.4,-2.2l1.2,-1l-1.1,-1.2l-1.2,1l1.1,1.2Zm2.4,-2.1l1.2,-1l-1.1,-1.2l-1.2,1l1.1,1.2Zm2.4,-2.1l.6,-.5l-1,-1.2l-.7,.5l1.1,1.2Z" class="g7_324"/>
<path d="M237.6,588l-.3,1.6l1.5,.3l.3,-1.6l-1.5,-.3Zm-.6,3.2l-.4,1.5l1.6,.3l.3,-1.5l-1.5,-.3Zm-.7,3.1l-.3,1.6l1.6,.3l.3,-1.6l-1.6,-.3Zm-.6,3.1l-.3,1.6l1.6,.3l.3,-1.6l-1.6,-.3Zm-.6,3.2l-.3,1.5l1.5,.4l.4,-1.6l-1.6,-.3Zm-.6,3.1l-.3,1.6l1.5,.3L236,604l-1.5,-.3Zm-.7,3.2l-.3,1.5l1.6,.3l.3,-1.5l-1.6,-.3Zm-.6,3.1l-.3,1.6l1.6,.3l.3,-1.6l-1.6,-.3Zm-.6,3.1l-.3,1.6l1.6,.3l.3,-1.6l-1.6,-.3Zm-.6,3.2l-.3,1.5l1.5,.3l.4,-1.5l-1.6,-.3Zm-.6,3.1l-.3,1.6l1.5,.3l.3,-1.6l-1.5,-.3Zm-.7,3.1l-.3,1.6l1.6,.3l.3,-1.5l-1.6,-.4Zm-.6,3.2l-.3,1.5l1.6,.4l.3,-1.6l-1.6,-.3Zm-.6,3.1l-.3,1.6l1.6,.3l.3,-1.6l-1.6,-.3Zm-.6,3.2l-.3,1.5l1.5,.3l.3,-1.5l-1.5,-.3Zm-.6,3.1l-.4,1.6l1.6,.3l.3,-1.6l-1.5,-.3Zm-.7,3.1l-.3,1.6l1.6,.3l.3,-1.6l-1.6,-.3Zm-.6,3.2l-.3,1.5l1.6,.3l.3,-1.5l-1.6,-.3Zm-.6,3.1l-.3,1.6l1.6,.3l.3,-1.6l-1.6,-.3Zm-.6,3.1l-.3,1.6l1.5,.3l.3,-1.5l-1.5,-.4Zm-.6,3.2l-.4,1.6l1.6,.3l.3,-1.6l-1.5,-.3Zm-.7,3.1l-.3,1.6l1.6,.3l.3,-1.6l-1.6,-.3Zm-.6,3.2l-.3,1.5l1.6,.3l.3,-1.5l-1.6,-.3Zm-.6,3.1l-.3,1.6l1.5,.3l.4,-1.6l-1.6,-.3Zm-.6,3.1l-.3,1.6l1.5,.3l.3,-1.6l-1.5,-.3Zm-.7,3.2l-.3,1.5l1.6,.4l.3,-1.6l-1.6,-.3Zm-.6,3.1l-.3,1.6l1.6,.3l.3,-1.6l-1.6,-.3Zm-.6,3.2l-.3,1.5l1.6,.3l.3,-1.5l-1.6,-.3Zm-.6,3.1l-.3,1.6l1.5,.3l.4,-1.6l-1.6,-.3Zm-.6,3.1l-.3,1.6l1.5,.3l.3,-1.6l-1.5,-.3Zm-.7,3.2l-.3,1.5l1.6,.3l.3,-1.5l-1.6,-.3Zm-.6,3.1l-.3,1.6l1.6,.3l.3,-1.6l-1.6,-.3Zm-.6,3.1l-.3,1.6l1.6,.3l.3,-1.5l-1.6,-.4Zm-.6,3.2l-.3,1.5l1.5,.4l.3,-1.6l-1.5,-.3Zm-.6,3.1l-.3,1.3l1.6,.3L218,695l-1.5,-.3Z" class="g7_324"/>
<path d="M237.8,588.2v1.6h1.6v-1.6h-1.6Zm0,3.2l-.1,1.6h1.6l.1,-1.6h-1.6Zm-.1,3.2v1.6h1.6v-1.6h-1.6Zm-.1,3.2v1.6h1.6v-1.6h-1.6Zm0,3.2l-.1,1.6h1.6l.1,-1.6h-1.6Z" class="g7_324"/>
<path d="M237.3,587.8l-.6,1.4l1.4,.7l.7,-1.5l-1.5,-.6Zm-1.3,2.9l-.6,1.5l1.5,.6l.6,-1.5l-1.5,-.6Zm-1.2,2.9l-.7,1.5l1.5,.6l.6,-1.4l-1.4,-.7Zm-1.3,3l-.6,1.4l1.4,.7l.7,-1.5l-1.5,-.6Z" class="g7_324"/>
<path d="M326.6,707.4l1.3,-.9l-.8,-1.3l-1.4,.9l.9,1.3Zm2.7,-1.7l1.3,-.9l-.9,-1.3l-1.3,.8l.9,1.4ZM332,704l1.3,-.9l-.9,-1.3l-1.3,.8l.9,1.4Zm2.7,-1.8l1.3,-.8l-.9,-1.4l-1.3,.9l.9,1.3Zm2.6,-1.7l1.4,-.8l-.9,-1.4l-1.3,.9l.8,1.3Zm2.7,-1.7l1.4,-.9l-.9,-1.3l-1.3,.8l.8,1.4Zm2.7,-1.7l1.4,-.9l-.9,-1.3l-1.3,.8l.8,1.4Zm2.7,-1.8l1.4,-.8l-.9,-1.4l-1.3,.9l.8,1.3Zm2.7,-1.7l1.4,-.8l-.9,-1.4l-1.3,.9l.8,1.3Zm2.7,-1.7l1.4,-.9l-.9,-1.3l-1.3,.9l.8,1.3Zm2.7,-1.7l1.4,-.9L354,688l-1.3,.8l.8,1.4Zm2.7,-1.7l1.4,-.9l-.9,-1.4l-1.3,.9l.8,1.4Zm2.7,-1.8l1.4,-.8l-.9,-1.4l-1.4,.9l.9,1.3Zm2.7,-1.7l1.4,-.9l-.9,-1.3l-1.4,.9l.9,1.3Zm2.7,-1.7l1.3,-.9l-.8,-1.3l-1.4,.8l.9,1.4Zm2.7,-1.7l1.3,-.9l-.8,-1.3l-1.4,.8l.9,1.4Zm2.7,-1.8L371,679l-.8,-1.4l-1.4,.9l.9,1.3Zm2.7,-1.7l1.3,-.8l-.8,-1.4l-1.4,.9l.9,1.3Zm2.7,-1.7l1.3,-.9l-.8,-1.3l-1.4,.8l.9,1.4Zm2.7,-1.7l1.3,-.9l-.8,-1.3l-1.4,.8l.9,1.4Zm2.7,-1.8l1.1,-.7l-.9,-1.3l-1.1,.7l.9,1.3Z" class="g7_324"/>
<path d="M326.5,708.2l1.6,-.2l-.2,-1.6l-1.6,.2l.2,1.6Zm3.1,-.3l1.6,-.2l-.1,-1.6l-1.6,.2l.1,1.6Zm3.2,-.4h.1l-.1,-1.6h-.2l.2,1.6Z" class="g7_324"/>
<path d="M326.4,706.9l1.1,-1.2l-1.2,-1.1l-1.1,1.3l1.2,1Zm2.1,-2.4l1.1,-1.2l-1.2,-1.1l-1.1,1.2l1.2,1.1Zm2.1,-2.4l1.1,-1.3l-1.3,-1l-1,1.2l1.2,1.1Zm2.1,-2.5l.8,-.9l-1.2,-1l-.8,.9l1.2,1Z" class="g7_324"/>
<path d="M323.3,706.6l-1.6,-.1l-.2,1.6l1.6,.1l.2,-1.6Zm-3.2,-.3l-1.6,-.2l-.2,1.6l1.6,.2l.2,-1.6Zm-3.2,-.3l-1.6,-.2l-.1,1.6l1.6,.1l.1,-1.5Zm-3.2,-.4l-1.6,-.2L312,707l1.6,.2l.1,-1.6Zm-3.1,-.3l-1.6,-.2l-.2,1.6l1.6,.2l.2,-1.6Zm-3.2,-.4l-1.6,-.1l-.2,1.6l1.6,.1l.2,-1.6Zm-3.2,-.3l-1.6,-.2l-.2,1.6l1.6,.2l.2,-1.6Zm-3.2,-.3l-1.6,-.2l-.1,1.6l1.5,.2l.2,-1.6Zm-3.2,-.4l-1.6,-.1l-.1,1.5l1.6,.2l.1,-1.6Zm-3.1,-.3l-1.6,-.2l-.2,1.6l1.6,.2l.2,-1.6Zm-3.2,-.4l-1.6,-.1l-.2,1.6l1.6,.1l.2,-1.6Zm-3.2,-.3l-1.6,-.2l-.2,1.6l1.6,.2l.2,-1.6Zm-3.2,-.3l-1.6,-.2l-.2,1.6l1.6,.2l.2,-1.6Zm-3.2,-.4l-1.6,-.1l-.1,1.6l1.6,.1l.1,-1.6Zm-3.2,-.3l-1.5,-.2l-.2,1.6l1.6,.2l.1,-1.6Zm-3.1,-.3l-1.6,-.2l-.2,1.6l1.6,.1l.2,-1.5Zm-3.2,-.4l-1.6,-.2l-.2,1.6l1.6,.2l.2,-1.6Zm-3.2,-.3l-1.6,-.2l-.2,1.6l1.6,.2l.2,-1.6Zm-3.2,-.4l-1.6,-.1l-.1,1.6l1.6,.1l.1,-1.6Zm-3.2,-.3l-1.5,-.2l-.2,1.6l1.6,.2l.1,-1.6Zm-3.1,-.3l-1.6,-.2l-.2,1.6l1.6,.1l.2,-1.5Zm-3.2,-.4l-1.6,-.2l-.2,1.6l1.6,.2l.2,-1.6Zm-3.2,-.3l-1.6,-.2l-.2,1.6l1.6,.2l.2,-1.6Zm-3.2,-.4l-1.6,-.1l-.1,1.6l1.5,.1l.2,-1.6Zm-3.2,-.3l-1.6,-.2l-.1,1.6l1.6,.2l.1,-1.6Zm-3.1,-.3l-1.6,-.2l-.2,1.6l1.6,.2l.2,-1.6Zm-3.2,-.4l-1.6,-.1l-.2,1.5l1.6,.2l.2,-1.6Zm-3.2,-.3l-1.6,-.2l-.2,1.6l1.6,.2l.2,-1.6Zm-3.2,-.4l-1.6,-.1l-.1,1.6l1.5,.1l.2,-1.6Zm-3.2,-.3l-1.6,-.2l-.1,1.6l1.6,.2l.1,-1.6Zm-3.1,-.3l-1.6,-.2l-.2,1.6l1.6,.2l.2,-1.6Zm-3.2,-.4l-1.6,-.1l-.2,1.6l1.6,.1l.2,-1.6Zm-3.2,-.3l-1.6,-.2l-.2,1.6l1.6,.2l.2,-1.6Zm-3.2,-.3l-1.2,-.2l-.2,1.6l1.2,.1l.2,-1.5Z" class="g7_324"/>
<path d="M323.1,707.1l-1.6,.3l.3,1.6l1.6,-.3l-.3,-1.6Zm-3.2,.6l-1.6,.2l.3,1.6l1.6,-.3l-.3,-1.5Zm-3.1,.5l-1.6,.3l.3,1.6l1.6,-.3l-.3,-1.6Zm-3.2,.6l-1.5,.3l.2,1.6l1.6,-.3l-.3,-1.6Zm-3.1,.6l-.8,.1l.3,1.6l.8,-.2l-.3,-1.5Z" class="g7_324"/>
<path d="M323.6,706.3l-1.5,-.6l-.6,1.5l1.5,.6l.6,-1.5Zm-3,-1.2l-1.5,-.6l-.6,1.5l1.5,.6l.6,-1.5Zm-3,-1.1l-1.5,-.6l-.6,1.5l1.5,.6l.6,-1.5Zm-3,-1.2l-1.5,-.6l-.5,1.5l1.5,.6l.5,-1.5Zm-3,-1.1l-1.4,-.6l-.6,1.5l1.5,.5l.5,-1.4Z" class="g7_324"/>
<path d="M353.4,593.6l1.4,-.7l-.7,-1.4l-1.4,.7l.7,1.4Zm2.9,-1.4l1.4,-.7l-.7,-1.4l-1.4,.7l.7,1.4Zm2.8,-1.4l1.5,-.7l-.7,-1.4l-1.5,.7l.7,1.4Zm2.9,-1.4l1.5,-.7l-.7,-1.4l-1.5,.7l.7,1.4Zm2.9,-1.4l1.4,-.7l-.7,-1.4l-1.4,.7l.7,1.4Zm2.9,-1.4l1.4,-.7l-.7,-1.4l-1.4,.7l.7,1.4Zm2.9,-1.4l1.4,-.7l-.7,-1.4l-1.4,.7l.7,1.4Zm2.8,-1.4l1.5,-.7l-.7,-1.4l-1.5,.7l.7,1.4Zm2.9,-1.4l1.4,-.7l-.7,-1.4l-1.4,.7l.7,1.4Zm2.9,-1.4l1.4,-.7l-.7,-1.4l-1.4,.7l.7,1.4Zm2.9,-1.4l1.4,-.7l-.7,-1.4l-1.4,.7l.7,1.4Zm2.8,-1.4l1.5,-.7l-.7,-1.4l-1.5,.7l.7,1.4Zm2.9,-1.4l1.5,-.7l-.7,-1.4l-1.5,.7l.7,1.4Zm2.9,-1.4l1.4,-.7l-.7,-1.4l-1.4,.7l.7,1.4Zm2.9,-1.4l1.4,-.7l-.7,-1.4l-1.4,.7l.7,1.4Zm2.8,-1.4l1.5,-.7l-.7,-1.4l-1.5,.7l.7,1.4Zm2.9,-1.4l1.5,-.7l-.7,-1.4l-1.5,.7l.7,1.4Zm2.9,-1.4l1.4,-.7l-.7,-1.4l-1.4,.7l.7,1.4Zm2.9,-1.4l1.4,-.7l-.7,-1.4l-1.4,.7l.7,1.4Z" class="g7_324"/>
<path d="M353.1,594.5l1.6,.1l.2,-1.6l-1.6,-.1l-.2,1.6Zm3.2,.2l1.6,.2l.1,-1.6l-1.6,-.2l-.1,1.6Zm3.2,.3v0l.2,-1.6h-.1l-.1,1.6Z" class="g7_324"/>
<path d="M353.3,593l1.1,-1.1l-1.2,-1.2l-1.1,1.2l1.2,1.1Zm2.2,-2.3l1.1,-1.2l-1.1,-1.1l-1.1,1.2l1.1,1.1Zm2.2,-2.3l1.1,-1.2l-1.1,-1.1l-1.1,1.2l1.1,1.1Zm2.2,-2.3l.4,-.3l-1.2,-1.1l-.3,.3l1.1,1.1Z" class="g7_324"/>
<path d="M350.1,592.7l-1.6,-.1l-.1,1.6l1.6,.1l.1,-1.6Zm-3.2,-.2l-1.6,-.1l-.1,1.6l1.6,.1l.1,-1.6Zm-3.2,-.2l-1.6,-.1l-.1,1.6l1.6,.1l.1,-1.6Zm-3.2,-.2l-1.6,-.1l-.1,1.6l1.6,.1l.1,-1.6Zm-3.2,-.2l-1.6,-.1l-.1,1.6l1.6,.1l.1,-1.6Zm-3.2,-.2l-1.6,-.1l-.1,1.6l1.6,.1l.1,-1.6Zm-3.2,-.2l-1.6,-.1l-.1,1.6l1.6,.1l.1,-1.6Zm-3.2,-.2l-1.6,-.1l-.1,1.6l1.6,.1l.1,-1.6Zm-3.2,-.2l-1.6,-.1l-.1,1.6l1.6,.1l.1,-1.6Zm-3.2,-.2l-1.6,-.1l-.1,1.6l1.6,.1l.1,-1.6Zm-3.2,-.2l-1.6,-.1l-.1,1.6l1.6,.1l.1,-1.6Zm-3.2,-.2l-1.6,-.1l-.1,1.6l1.6,.1l.1,-1.6Zm-3.2,-.2l-1.6,-.1l-.1,1.6l1.6,.1l.1,-1.6Zm-3.2,-.2L307,590l-.1,1.6l1.5,.1l.1,-1.6Zm-3.1,-.2l-1.6,-.1l-.1,1.6l1.6,.1l.1,-1.6Zm-3.2,-.2l-1.6,-.1l-.1,1.6l1.6,.1l.1,-1.6Zm-3.2,-.2l-1.6,-.1l-.1,1.6l1.6,.1l.1,-1.6Zm-3.2,-.2l-1.6,-.1l-.1,1.6l1.6,.1l.1,-1.6Zm-3.2,-.2L291,589l-.1,1.6l1.6,.1l.1,-1.6Zm-3.2,-.2l-1.6,-.1l-.1,1.6l1.6,.1l.1,-1.6Zm-3.2,-.1l-1.6,-.1l-.1,1.5l1.6,.1l.1,-1.5Zm-3.2,-.2l-1.6,-.1l-.1,1.6l1.6,.1l.1,-1.6Zm-3.2,-.2l-1.6,-.1l-.1,1.6l1.6,.1l.1,-1.6Zm-3.2,-.2l-1.6,-.1l-.1,1.6l1.6,.1l.1,-1.6Zm-3.2,-.2l-1.6,-.1l-.1,1.6l1.6,.1l.1,-1.6Zm-3.2,-.2l-1.6,-.1l-.1,1.6l1.6,.1l.1,-1.6Zm-3.2,-.2l-1.6,-.1l-.1,1.6l1.6,.1l.1,-1.6Zm-3.2,-.2l-1.5,-.1l-.1,1.6l1.5,.1l.1,-1.6Zm-3.1,-.2l-1.6,-.1l-.1,1.6l1.6,.1l.1,-1.6Zm-3.2,-.2l-1.6,-.1l-.1,1.6l1.6,.1l.1,-1.6Zm-3.2,-.2l-1.6,-.1l-.1,1.6l1.6,.1l.1,-1.6Zm-3.2,-.2l-1.6,-.1l-.1,1.6l1.6,.1l.1,-1.6Zm-3.2,-.2l-1.6,-.1l-.1,1.6l1.6,.1l.1,-1.6Zm-3.2,-.2l-1.6,-.1l-.1,1.6l1.6,.1l.1,-1.6Zm-3.2,-.2l-1.6,-.1l-.1,1.6l1.6,.1l.1,-1.6Z" class="g7_324"/>
<path d="M349.9,593.2l-1.6,.3l.4,1.6l1.5,-.4l-.3,-1.5Zm-3.2,.7l-1.5,.3l.3,1.6l1.6,-.4l-.4,-1.5Zm-3.1,.7l-1.5,.3l.3,1.6l1.6,-.4l-.4,-1.5Zm-3.1,.7l-1.6,.4l.4,1.5l1.6,-.3l-.4,-1.6Zm-3.1,.7l-1.6,.4l.4,1.5l1.5,-.3l-.3,-1.6Z" class="g7_324"/>
<path d="M350.4,592.3l-1.6,-.5l-.5,1.5l1.5,.5l.6,-1.5Zm-3.1,-1l-1.5,-.5l-.5,1.5l1.5,.5l.5,-1.5Zm-3,-1.1l-1.5,-.5l-.5,1.5l1.5,.6l.5,-1.6Zm-3,-1l-1.5,-.5l-.6,1.5l1.6,.5l.5,-1.5Zm-3.1,-1l-1.5,-.6l-.5,1.6l1.5,.5l.5,-1.5Z" class="g7_324"/>
<path d="M350.5,595l-.4,1.5l1.6,.4l.3,-1.6l-1.5,-.3Zm-.8,3.1l-.3,1.5l1.5,.4l.4,-1.5l-1.6,-.4Zm-.7,3.1l-.4,1.6l1.6,.3l.4,-1.5l-1.6,-.4Zm-.7,3.1l-.4,1.6l1.6,.3l.3,-1.5l-1.5,-.4Zm-.8,3.1l-.3,1.6l1.5,.4l.4,-1.6l-1.6,-.4Zm-.7,3.1l-.4,1.6l1.6,.4l.4,-1.6l-1.6,-.4Zm-.7,3.2l-.4,1.5l1.6,.4l.3,-1.6l-1.5,-.3Zm-.8,3.1l-.3,1.5l1.5,.4l.4,-1.6l-1.6,-.3Zm-.7,3.1l-.4,1.5l1.6,.4l.4,-1.5l-1.6,-.4Zm-.7,3.1l-.4,1.6l1.6,.3l.3,-1.5l-1.5,-.4Zm-.8,3.1l-.3,1.6l1.5,.3l.4,-1.5l-1.6,-.4Zm-.7,3.1l-.4,1.6l1.6,.4l.4,-1.6l-1.6,-.4Zm-.7,3.1l-.4,1.6l1.6,.4l.3,-1.6l-1.5,-.4Zm-.8,3.2l-.3,1.5l1.5,.4l.4,-1.6l-1.6,-.3Zm-.7,3.1l-.4,1.5l1.6,.4l.4,-1.6l-1.6,-.3Zm-.7,3.1l-.4,1.5l1.6,.4l.3,-1.5l-1.5,-.4Zm-.8,3.1l-.3,1.6l1.5,.3l.4,-1.5l-1.6,-.4Zm-.7,3.1l-.4,1.6l1.6,.3l.4,-1.5l-1.6,-.4Zm-.7,3.1l-.4,1.6l1.6,.4l.3,-1.6l-1.5,-.4Zm-.8,3.1l-.3,1.6l1.5,.4l.4,-1.6l-1.6,-.4Zm-.7,3.2l-.4,1.5l1.6,.4l.4,-1.6l-1.6,-.3Zm-.7,3.1l-.4,1.5l1.6,.4l.3,-1.6l-1.5,-.3Zm-.8,3.1L334,665l1.5,.4l.4,-1.5l-1.6,-.4Zm-.7,3.1l-.4,1.6l1.6,.3l.4,-1.5l-1.6,-.4Zm-.7,3.1l-.4,1.6l1.6,.3l.3,-1.5l-1.5,-.4Zm-.8,3.1l-.3,1.6l1.5,.4l.4,-1.6l-1.6,-.4Zm-.7,3.1l-.4,1.6l1.6,.4l.4,-1.6l-1.6,-.4Zm-.7,3.2l-.4,1.5l1.6,.4l.3,-1.6l-1.5,-.3Zm-.8,3.1l-.3,1.5l1.5,.4l.4,-1.6l-1.6,-.3Zm-.7,3.1l-.4,1.5l1.6,.4l.4,-1.5l-1.6,-.4Zm-.7,3.1l-.4,1.6l1.6,.3l.3,-1.5l-1.5,-.4Zm-.8,3.1l-.3,1.6l1.5,.3l.4,-1.5l-1.6,-.4Zm-.7,3.1l-.3,1.6l1.5,.4l.4,-1.6l-1.6,-.4Zm-.7,3.1l-.4,1.6l1.6,.4l.3,-1.6l-1.5,-.4Zm-.7,3.2l-.4,1.5l1.5,.4l.4,-1.6l-1.5,-.3Zm-.8,3.1l-.3,1.5l1.5,.4l.4,-1.6l-1.6,-.3Zm-.7,3.1l-.1,.3l1.6,.4v-.4l-1.5,-.3Z" class="g7_324"/>
<path d="M350.7,595.2v1.6h1.6v-1.6h-1.6Zm-.1,3.2V600h1.6v-1.6h-1.6Zm-.1,3.2l-.1,1.6H352l.1,-1.6h-1.6Zm-.1,3.2l-.1,1.6h1.6l.1,-1.6h-1.6Zm-.1,3.2l-.1,1.6h1.6l.1,-1.6h-1.6Z" class="g7_324"/>
<path d="M350.2,594.7l-.7,1.4l1.4,.7l.7,-1.4l-1.4,-.7Zm-1.4,2.8L348,599l1.5,.7l.7,-1.4l-1.4,-.8Zm-1.5,2.9l-.7,1.4l1.5,.8l.7,-1.5l-1.5,-.7Zm-1.4,2.9l-.7,1.4l1.4,.7l.7,-1.4l-1.4,-.7Zm-1.4,2.8l-.1,.2l1.4,.7l.1,-.1l-1.4,-.8Z" class="g7_324"/>
<path d="M310.7,901.3c0,.6,-.2,1.5,-.4,2.1c-.2,.6,-.7,1.7,-1,2.2c-.3,.3,-.8,.8,-1.3,.8c-.5,0,-.8,-.4,-.8,-1c0,-.6,.2,-1.7,.4,-2.3c.4,-.8,1.3,-2.7,2.4,-2.7c.4,0,.7,.4,.7,.9Zm.2,5.4c.4,0,.7,-.2,1.1,-.5c.3,-.4,.6,-1,.9,-1.8l-.4,-.1c-.2,.6,-.7,1.9,-1.2,1.9c-.3,0,-.4,-.5,-.4,-.8c0,-.1,0,-.3,0,-.5c.1,-.6,.3,-1.1,.5,-1.8c.1,-.4,.2,-1,.4,-1.6l1.5,-5.8h-2.2l-.1,.2c.5,0,.6,.1,.7,.1c.2,.1,.3,.4,.3,.5c0,.3,-.1,.5,-.1,.8l-1,3.5c-.2,-.4,-.4,-.7,-1,-.7c-1,0,-1.9,.9,-2.5,1.6c-.2,.3,-.4,.7,-.6,1c-.4,.6,-.6,1.3,-.6,2.2c0,.5,.1,1,.4,1.3c.2,.3,.6,.5,1,.5c1.4,0,1.9,-.8,2.4,-1.6c0,.1,0,.2,0,.3c0,.1,0,.2,0,.3c0,.6,.3,1,.9,1Z" class="g8_324"/>
<path d="M318.7,904.7h7.6v-.8h-7.6Zm0,-3h7.6v-.8h-7.6Z" class="g8_324"/>
<path d="M334.5,899.4h.9V886h-.9Z" class="g8_324"/>
<path d="M342.2,885.9c-2.2,1.4,-3.7,3.8,-3.7,6.8c0,2.8,1.6,5.5,3.6,6.8l.2,-.2c-2,-1.6,-2.5,-3.4,-2.5,-6.7c0,-3.3,.6,-5,2.5,-6.5l-.1,-.2Z" class="g8_324"/>
<path d="M348.5,885.9c-2.2,1.4,-3.7,3.8,-3.7,6.8c0,2.8,1.6,5.5,3.6,6.8l.2,-.2c-2,-1.6,-2.5,-3.4,-2.5,-6.7c0,-3.3,.6,-5,2.5,-6.5l-.1,-.2Z" class="g8_324"/>
<path d="M355.3,892.3c0,.9,-.4,1.9,-.9,2.4c-.5,.5,-1.3,1,-2.1,1.2l1.5,-5.2c0,0,.1,0,.2,0c.1,-.1,.2,-.1,.3,-.1c.8,0,1,.9,1,1.7ZM352.2,891l-2.2,7.6c-.1,.4,-.4,.5,-1.1,.5l-.1,.3h3.9l.1,-.3c-.7,0,-1.2,0,-1.2,-.5q0,-.1,0,-.2c0,-.1,0,-.2,.1,-.3c.1,-.7,.3,-1.2,.5,-1.9c1.3,-.1,2.6,-.7,3.4,-1.3c.8,-.6,1.5,-1.6,1.5,-2.8c0,-1.3,-.9,-2.1,-2.4,-2.1c-.3,0,-.5,.1,-.8,.2l.4,-1.6h-1.4l-.5,2c-.5,.1,-.8,.4,-1.2,.7c-.4,.2,-.7,.5,-1,.9l.3,.2c.4,-.5,1.1,-1.1,1.7,-1.4Z" class="g8_324"/>
<path d="M360.2,894.2c-.7,0,-1.1,-.5,-1.1,-1.1c0,-.8,.5,-1.7,1.4,-1.7c1.2,0,1.3,1,1.3,1.9c0,.9,-.3,1.5,-.7,2.2c-.3,.4,-.7,.8,-1.2,1.3c-.4,.5,-1.1,1.1,-1.8,1.7v.4h4.6l.3,-2.1h-.3c0,.2,-.1,.4,-.2,.5c-.2,.4,-.5,.6,-1,.6h-2.1c.4,-.4,.9,-.8,1.3,-1.1c.8,-.7,1.6,-1.4,2,-2.3c.2,-.3,.3,-.7,.3,-1.2c0,-.3,-.1,-.5,-.2,-.8c-.4,-.8,-1.1,-1.3,-2.2,-1.3c-.7,0,-1.3,.3,-1.7,.6c-.4,.3,-.7,.8,-.7,1.5c0,.4,.1,.8,.4,1c.2,.3,.4,.4,.9,.4c.4,0,.7,-.2,.7,-.5Z" class="g8_324"/>
<path d="M368.7,893.1h7.6v-.8h-7.6Z" class="g8_324"/>
<path d="M386.2,892.3c0,.9,-.4,1.9,-.9,2.4c-.5,.5,-1.3,1,-2.1,1.2l1.5,-5.2c0,0,.1,0,.2,0c.1,-.1,.2,-.1,.3,-.1c.8,0,1,.9,1,1.7ZM383.1,891l-2.2,7.6c-.1,.4,-.4,.5,-1.1,.5l-.1,.3h3.9l.1,-.3c-.7,0,-1.2,0,-1.2,-.5q0,-.1,0,-.2c0,-.1,0,-.2,.1,-.3c.1,-.7,.3,-1.2,.5,-1.9c1.3,-.1,2.6,-.7,3.4,-1.3c.8,-.6,1.5,-1.6,1.5,-2.8c0,-1.3,-.9,-2.1,-2.4,-2.1c-.3,0,-.5,.1,-.8,.2l.4,-1.6h-1.4l-.5,2c-.5,.1,-.8,.4,-1.2,.7c-.4,.2,-.7,.5,-1,.9l.3,.2c.4,-.5,1.1,-1.1,1.7,-1.4Z" class="g8_324"/>
<path d="M389.9,891.8v.1c.3,0,.8,.1,1,.2c.3,.1,.3,.3,.3,.7v4.8c0,.2,0,.4,0,.5c-.1,.5,-.7,.6,-1.2,.6v.2h3.4v-.2c-.4,0,-.9,0,-1.1,-.2c-.1,-.2,-.1,-.6,-.1,-1v-6.3c-.6,.3,-1.6,.6,-2.3,.6Z" class="g8_324"/>
<path d="M395.9,885.9l-.1,.2c1.9,1.5,2.5,3.2,2.5,6.5c0,3.3,-.6,5.1,-2.5,6.7l.1,.2c2.1,-1.3,3.7,-4,3.7,-6.8c0,-3,-1.5,-5.4,-3.7,-6.8Z" class="g8_324"/>
<path d="M413,896l-3.3,-3.3l3.3,-3.3l-.6,-.6l-3.3,3.3l-3.3,-3.3l-.6,.6l3.3,3.3l-3.3,3.3l.6,.6l3.3,-3.3l3.3,3.3l.6,-.6Z" class="g8_324"/>
<path d="M422.3,885.9c-2.2,1.4,-3.7,3.8,-3.7,6.8c0,2.8,1.6,5.5,3.6,6.8l.2,-.2c-1.9,-1.6,-2.5,-3.4,-2.5,-6.7c0,-3.3,.6,-5,2.5,-6.5l-.1,-.2Z" class="g8_324"/>
<path d="M429.1,892.3c0,.9,-.4,1.9,-.9,2.4c-.5,.5,-1.3,1,-2.1,1.2l1.5,-5.2c0,0,.2,0,.2,0c.1,-.1,.2,-.1,.3,-.1c.8,0,1,.9,1,1.7Zm-3,-1.3l-2.3,7.6c-.1,.4,-.4,.5,-1.1,.5l-.1,.3h3.9l.1,-.3c-.7,0,-1.2,0,-1.2,-.5q0,-.1,0,-.2c0,-.1,0,-.2,.1,-.3c.2,-.7,.4,-1.2,.5,-1.9c1.3,-.1,2.6,-.7,3.4,-1.3c.8,-.6,1.5,-1.6,1.5,-2.8c0,-1.3,-.9,-2.1,-2.3,-2.1c-.3,0,-.6,.1,-.9,.2l.5,-1.6h-1.5l-.5,2c-.4,.1,-.8,.4,-1.2,.7c-.4,.2,-.7,.5,-1,.9l.3,.2c.5,-.5,1.1,-1.1,1.8,-1.4Z" class="g8_324"/>
<path d="M434.2,898.8c-.7,0,-1.2,-.7,-1.2,-1.4c0,-.5,.3,-1,.8,-1c-.1,-.3,-.4,-.4,-.7,-.4c-.2,0,-.3,0,-.5,.1c-.4,.1,-.7,.6,-.7,1.1c0,.3,.1,.5,.2,.7c.4,.7,1.2,1.1,2.2,1.1c.8,0,1.4,-.3,1.8,-.6c.4,-.4,.8,-.9,.8,-1.6c0,-.2,-.1,-.4,-.2,-.7c-.2,-.6,-.8,-1.1,-1.5,-1.3c.4,-.1,.8,-.4,1,-.7c.2,-.2,.4,-.6,.4,-1.1c0,-.3,0,-.5,-.1,-.7c-.4,-.7,-1.2,-1.1,-2.2,-1.1c-.6,0,-1.1,.2,-1.5,.4c-.3,.2,-.6,.5,-.6,1c0,.3,.1,.6,.3,.7c.1,.2,.4,.4,.7,.4c.2,0,.3,-.1,.5,-.2c.1,0,.2,-.1,.2,-.2c-.4,0,-.7,-.3,-.7,-.8c0,-.6,.5,-1.1,1.1,-1.1c.8,0,1.2,.7,1.2,1.6c0,.9,-.3,1.8,-1.1,1.8c-.2,-.1,-.4,-.2,-.6,-.2c-.2,0,-.5,.1,-.5,.3c0,.2,.3,.3,.5,.3c.3,0,.5,-.1,.7,-.2c.9,0,1.1,.8,1.1,1.8c0,1,-.4,2,-1.4,2Z" class="g8_324"/>
<path d="M442.5,893.1h7.6v-.8h-7.6Z" class="g8_324"/>
<path d="M460,892.3c0,.9,-.4,1.9,-.9,2.4c-.5,.5,-1.3,1,-2.1,1.2l1.5,-5.2c0,0,.1,0,.2,0c.1,-.1,.2,-.1,.3,-.1c.8,0,1,.9,1,1.7ZM457,891l-2.3,7.6c-.1,.4,-.4,.5,-1.1,.5l-.1,.3h3.9l.1,-.3c-.7,0,-1.2,0,-1.2,-.5q0,-.1,0,-.2c0,-.1,0,-.2,.1,-.3c.2,-.7,.3,-1.2,.5,-1.9c1.3,-.1,2.6,-.7,3.4,-1.3c.8,-.6,1.5,-1.6,1.5,-2.8c0,-1.3,-.9,-2.1,-2.3,-2.1c-.3,0,-.6,.1,-.9,.2l.4,-1.6h-1.4l-.5,2c-.4,.1,-.8,.4,-1.2,.7c-.4,.2,-.7,.5,-1,.9l.3,.2c.4,-.5,1.1,-1.1,1.8,-1.4Z" class="g8_324"/>
<path d="M463.7,891.8v.1c.4,0,.8,.1,1,.2c.3,.1,.3,.3,.3,.7v4.8c0,.2,0,.4,0,.5c-.1,.5,-.7,.6,-1.2,.6v.2h3.4v-.2c-.4,0,-.9,0,-1,-.2c-.2,-.2,-.2,-.6,-.2,-1v-6.3c-.6,.3,-1.6,.6,-2.3,.6Z" class="g8_324"/>
<path d="M469.7,885.9l-.1,.2c1.9,1.5,2.5,3.2,2.5,6.5c0,3.3,-.6,5.1,-2.5,6.7l.2,.2c2,-1.3,3.6,-4,3.6,-6.8c0,-3,-1.5,-5.4,-3.7,-6.8Z" class="g8_324"/>
<path d="M475.4,885.9l-.1,.2c1.9,1.5,2.5,3.2,2.5,6.5c0,3.3,-.5,5.1,-2.5,6.7l.2,.2c2,-1.3,3.6,-4,3.6,-6.8c0,-3,-1.5,-5.4,-3.7,-6.8Z" class="g8_324"/>
<path d="M486.7,892.7c0,-.5,-.4,-.8,-.8,-.8c-.5,0,-.8,.3,-.8,.8c0,.6,.5,.8,.8,.8c.3,0,.8,-.2,.8,-.8Z" class="g8_324"/>
<path d="M496.4,885.9c-2.2,1.4,-3.7,3.8,-3.7,6.8c0,2.8,1.6,5.5,3.6,6.8l.2,-.2c-2,-1.6,-2.5,-3.4,-2.5,-6.7c0,-3.3,.6,-5,2.5,-6.5l-.1,-.2Z" class="g8_324"/>
<path d="M503.2,892.3c0,.9,-.5,1.9,-.9,2.4c-.6,.5,-1.3,1,-2.1,1.2l1.4,-5.2c.1,0,.2,0,.3,0c.1,-.1,.2,-.1,.3,-.1c.8,0,1,.9,1,1.7ZM500.1,891l-2.2,7.6c-.2,.4,-.5,.5,-1.1,.5l-.1,.3h3.9v-.3c-.6,0,-1.2,0,-1.2,-.5c0,-.1,.1,-.1,.1,-.2c0,-.1,0,-.2,.1,-.3c.1,-.7,.3,-1.2,.5,-1.9c1.3,-.1,2.6,-.7,3.4,-1.3c.8,-.6,1.5,-1.6,1.5,-2.8c0,-1.3,-.9,-2.1,-2.4,-2.1c-.3,0,-.5,.1,-.8,.2l.4,-1.6h-1.4l-.6,2c-.4,.1,-.8,.4,-1.1,.7c-.4,.2,-.7,.5,-1,.9l.3,.2c.4,-.5,1.1,-1.1,1.7,-1.4Z" class="g8_324"/>
<path d="M510.2,893.1h7.6v-.8h-7.6Z" class="g8_324"/>
<path d="M527.7,892.3c0,.9,-.5,1.9,-.9,2.4c-.6,.5,-1.3,1,-2.1,1.2l1.4,-5.2c.1,0,.2,0,.3,0c.1,-.1,.2,-.1,.3,-.1c.8,0,1,.9,1,1.7ZM524.6,891l-2.2,7.6c-.1,.4,-.5,.5,-1.1,.5l-.1,.3h3.9v-.3c-.6,0,-1.2,0,-1.2,-.5c0,-.1,.1,-.1,.1,-.2c0,-.1,0,-.2,.1,-.3c.1,-.7,.3,-1.2,.5,-1.9c1.3,-.1,2.6,-.7,3.4,-1.3c.8,-.6,1.5,-1.6,1.5,-2.8c0,-1.3,-.9,-2.1,-2.4,-2.1c-.3,0,-.5,.1,-.8,.2l.4,-1.6h-1.4l-.6,2c-.4,.1,-.8,.4,-1.1,.7c-.4,.2,-.7,.5,-1,.9l.3,.2c.4,-.5,1.1,-1.1,1.7,-1.4Z" class="g8_324"/>
<path d="M531.4,891.8v.1c.3,0,.8,.1,1,.2c.3,.1,.3,.3,.3,.7v4.8c0,.2,0,.4,0,.5c-.1,.5,-.7,.6,-1.2,.6v.2h3.4v-.2c-.4,0,-.9,0,-1.1,-.2c-.1,-.2,-.1,-.6,-.1,-1v-6.3c-.6,.3,-1.6,.6,-2.3,.6Z" class="g8_324"/>
<path d="M537.4,885.9l-.1,.2c1.9,1.5,2.5,3.2,2.5,6.5c0,3.3,-.6,5.1,-2.5,6.7l.1,.2c2.1,-1.3,3.7,-4,3.7,-6.8c0,-3,-1.6,-5.4,-3.7,-6.8Z" class="g8_324"/>
<path d="M544.2,899.4h.8V886h-.8Z" class="g8_324"/>
<path d="M332.9,903.2H546.7v-.8H332.9Z" class="g8_324"/>
<path d="M368.4,919.7h.8V906.3h-.8Zm3,0h.8V906.3h-.8Z" class="g8_324"/>
<path d="M379.2,906.2c-2.2,1.4,-3.7,3.8,-3.7,6.8c0,2.8,1.6,5.6,3.6,6.8l.2,-.2c-2,-1.5,-2.5,-3.3,-2.5,-6.6c0,-3.3,.6,-5,2.5,-6.6l-.1,-.2Z" class="g8_324"/>
<path d="M386,912.7c0,.8,-.5,1.8,-.9,2.3c-.6,.6,-1.3,1.1,-2.1,1.2l1.4,-5.2c.1,0,.2,0,.3,0c.1,-.1,.2,-.1,.3,-.1c.8,0,1,.9,1,1.8Zm-3.1,-1.3l-2.2,7.5c-.2,.5,-.5,.6,-1.1,.6l-.1,.3h3.9v-.3c-.6,0,-1.2,-.1,-1.2,-.6c0,0,.1,-.1,.1,-.2c0,0,0,-.1,.1,-.3c.1,-.6,.3,-1.2,.5,-1.8c1.3,-.2,2.6,-.7,3.4,-1.4c.8,-.6,1.5,-1.5,1.5,-2.7c0,-1.4,-.9,-2.1,-2.4,-2.1c-.3,0,-.5,0,-.8,.1l.4,-1.6h-1.4l-.6,2c-.4,.2,-.8,.4,-1.1,.7c-.4,.3,-.7,.6,-1,.9l.3,.2c.4,-.5,1.1,-1,1.7,-1.3Z" class="g8_324"/>
<path d="M390.9,914.5c-.7,0,-1.1,-.4,-1.1,-1.1c0,-.8,.4,-1.6,1.3,-1.6c1.3,0,1.4,.9,1.4,1.9c0,.9,-.3,1.4,-.7,2.1c-.3,.4,-.7,.8,-1.2,1.3c-.5,.5,-1.1,1.1,-1.8,1.8v.3h4.5l.4,-2.1h-.3c-.1,.2,-.2,.4,-.2,.6c-.2,.4,-.5,.5,-1,.5h-2.1c.4,-.4,.9,-.7,1.3,-1.1c.8,-.6,1.6,-1.3,2,-2.2c.2,-.4,.3,-.8,.3,-1.2c0,-.3,-.1,-.6,-.2,-.9c-.4,-.7,-1.1,-1.2,-2.2,-1.2c-.7,0,-1.3,.2,-1.7,.5c-.4,.4,-.7,.8,-.7,1.5c0,.5,.1,.8,.3,1c.2,.3,.5,.5,.9,.5c.4,0,.7,-.2,.8,-.6Z" class="g8_324"/>
<path d="M399.4,913.4H407v-.8h-7.6Z" class="g8_324"/>
<path d="M416.9,912.7c0,.8,-.5,1.8,-.9,2.3c-.6,.6,-1.3,1.1,-2.2,1.2l1.5,-5.2c.1,0,.2,0,.3,0c.1,-.1,.2,-.1,.3,-.1c.8,0,1,.9,1,1.8Zm-3.1,-1.3l-2.2,7.5c-.2,.5,-.5,.6,-1.1,.6l-.1,.3h3.9v-.3c-.6,0,-1.2,-.1,-1.2,-.6c0,0,.1,-.1,.1,-.2c0,0,0,-.1,.1,-.3c.1,-.6,.3,-1.2,.5,-1.8c1.3,-.2,2.6,-.7,3.4,-1.4c.8,-.6,1.5,-1.5,1.5,-2.7c0,-1.4,-.9,-2.1,-2.4,-2.1c-.3,0,-.5,0,-.8,.1l.4,-1.6h-1.4l-.6,2c-.4,.2,-.8,.4,-1.1,.7c-.4,.3,-.7,.6,-1,.9l.3,.2c.4,-.5,1.1,-1,1.7,-1.3Z" class="g8_324"/>
<path d="M420.6,912.1v.2c.3,0,.8,0,1,.1c.3,.2,.3,.3,.3,.7v4.8c0,.2,0,.4,-.1,.6c0,.5,-.6,.5,-1.1,.5v.2h3.4V919c-.4,0,-.9,0,-1.1,-.2c-.1,-.2,-.2,-.6,-.2,-1v-6.2c-.5,.3,-1.5,.5,-2.2,.5Z" class="g8_324"/>
<path d="M426.6,906.2l-.2,.2c2,1.6,2.6,3.3,2.6,6.6c0,3.3,-.6,5.1,-2.6,6.6l.2,.2c2.1,-1.2,3.6,-4,3.6,-6.8c0,-3,-1.5,-5.4,-3.6,-6.8Z" class="g8_324"/>
<path d="M443.7,916.3L440.3,913l3.4,-3.3l-.6,-.6l-3.3,3.3l-3.3,-3.3l-.6,.6l3.3,3.3l-3.3,3.3l.6,.6l3.3,-3.3l3.3,3.3l.6,-.6Z" class="g8_324"/>
<path d="M453,906.2c-2.2,1.4,-3.7,3.8,-3.7,6.8c0,2.8,1.6,5.6,3.6,6.8l.2,-.2c-2,-1.5,-2.5,-3.3,-2.5,-6.6c0,-3.3,.6,-5,2.5,-6.6l-.1,-.2Z" class="g8_324"/>
<path d="M459.8,912.7c0,.8,-.4,1.8,-.9,2.3c-.5,.6,-1.3,1.1,-2.1,1.2l1.5,-5.2c0,0,.1,0,.2,0c.1,-.1,.2,-.1,.3,-.1c.8,0,1,.9,1,1.8Zm-3.1,-1.3l-2.2,7.5c-.1,.5,-.5,.6,-1.1,.6l-.1,.3h3.9l.1,-.3c-.7,0,-1.2,-.1,-1.2,-.6c0,0,0,-.1,0,-.2c0,0,0,-.1,.1,-.3c.1,-.6,.3,-1.2,.5,-1.8c1.3,-.2,2.6,-.7,3.4,-1.4c.8,-.6,1.5,-1.5,1.5,-2.7c0,-1.4,-.9,-2.1,-2.4,-2.1c-.3,0,-.5,0,-.8,.1l.4,-1.6h-1.4l-.5,2c-.5,.2,-.8,.4,-1.2,.7c-.4,.3,-.7,.6,-1,.9l.3,.2c.4,-.5,1.1,-1,1.7,-1.3Z" class="g8_324"/>
<path d="M464.9,919.1c-.7,0,-1.2,-.7,-1.2,-1.4c0,-.5,.3,-1,.8,-1c-.1,-.2,-.4,-.4,-.8,-.4c-.1,0,-.3,.1,-.4,.1c-.4,.2,-.7,.6,-.7,1.2c0,.2,.1,.4,.2,.7c.4,.6,1.1,1,2.2,1c.8,0,1.4,-.3,1.8,-.6c.4,-.3,.7,-.8,.7,-1.5c0,-.3,0,-.5,-.1,-.7c-.2,-.7,-.8,-1.1,-1.5,-1.3v-.1c.4,-.1,.7,-.3,1,-.6c.2,-.3,.4,-.7,.4,-1.2c0,-.2,0,-.5,-.1,-.7c-.4,-.7,-1.2,-1,-2.2,-1c-.6,0,-1.2,.1,-1.5,.3c-.3,.3,-.6,.6,-.6,1c0,.4,.1,.6,.3,.8c.1,.2,.4,.3,.7,.3c.2,0,.3,0,.4,-.1c.2,-.1,.2,-.2,.3,-.3c-.4,0,-.7,-.3,-.7,-.7c0,-.6,.5,-1.1,1.1,-1.1c.8,0,1.1,.6,1.1,1.6c0,.8,-.2,1.7,-1,1.7c-.2,0,-.4,-.1,-.6,-.1c-.2,0,-.5,0,-.5,.2c0,.3,.3,.4,.5,.4c.2,0,.5,-.2,.7,-.3c.9,0,1.1,.9,1.1,1.8c0,1,-.4,2,-1.4,2Z" class="g8_324"/>
<path d="M473.2,913.4h7.6v-.8h-7.6Z" class="g8_324"/>
<path d="M490.7,912.7c0,.8,-.4,1.8,-.9,2.3c-.5,.6,-1.3,1.1,-2.1,1.2l1.5,-5.2c0,0,.1,0,.2,0c.1,-.1,.2,-.1,.3,-.1c.8,0,1,.9,1,1.8Zm-3.1,-1.3l-2.2,7.5c-.1,.5,-.5,.6,-1.1,.6l-.1,.3h3.9l.1,-.3c-.7,0,-1.2,-.1,-1.2,-.6c0,0,0,-.1,0,-.2c0,0,0,-.1,.1,-.3c.1,-.6,.3,-1.2,.5,-1.8c1.3,-.2,2.6,-.7,3.4,-1.4c.8,-.6,1.5,-1.5,1.5,-2.7c0,-1.4,-.9,-2.1,-2.4,-2.1c-.3,0,-.5,0,-.8,.1l.4,-1.6h-1.4l-.5,2c-.5,.2,-.8,.4,-1.2,.7c-.4,.3,-.7,.6,-1,.9l.3,.2c.4,-.5,1.1,-1,1.7,-1.3Z" class="g8_324"/>
<path d="M494.4,912.1v.2c.3,0,.8,0,1,.1c.3,.2,.3,.3,.3,.7v4.8c0,.2,0,.4,0,.6c-.1,.5,-.7,.5,-1.2,.5v.2h3.4V919c-.4,0,-.9,0,-1.1,-.2c-.1,-.2,-.1,-.6,-.1,-1v-6.2c-.6,.3,-1.6,.5,-2.3,.5Z" class="g8_324"/>
<path d="M500.4,906.2l-.1,.2c1.9,1.6,2.5,3.3,2.5,6.6c0,3.3,-.6,5.1,-2.5,6.6l.1,.2c2.1,-1.2,3.7,-4,3.7,-6.8c0,-3,-1.6,-5.4,-3.7,-6.8Z" class="g8_324"/>
<path d="M507.4,919.7h.8V906.3h-.8Zm2.9,0h.9V906.3h-.9Z" class="g8_324"/>
</svg>