<?xml version="1.0" encoding="UTF-8" standalone="no"?>
<!DOCTYPE svg PUBLIC "-//W3C//DTD SVG 1.1//EN"
"http://www.w3.org/Graphics/SVG/1.1/DTD/svg11.dtd">
<svg viewBox="0 0 811 1017" version="1.1" xmlns="http://www.w3.org/2000/svg" xmlns:xlink="http://www.w3.org/1999/xlink">
<defs>
<clipPath id="c0_155"><path d="M156.1,301.8V82.5H632.8V301.8Z"/></clipPath>
<style type="text/css"><![CDATA[
.g0_155{
fill: #0E0E0E;
}
]]></style>
</defs>
<image clip-path="url(#c0_155)" preserveAspectRatio="none" x="156" y="83" width="477" height="219" xlink:href="img/1.jpg"/>
<path d="M366.1,597.2c0,.6,-.1,1.6,-.3,2.1c-.2,.6,-.7,1.8,-1.1,2.2c-.2,.4,-.7,.8,-1.2,.8c-.5,0,-.8,-.4,-.8,-.9c0,-.7,.2,-1.8,.4,-2.3c.3,-.9,1.2,-2.7,2.4,-2.7c.4,0,.6,.3,.6,.8Zm.2,5.5c.5,0,.8,-.2,1.1,-.6c.4,-.4,.7,-.9,.9,-1.7l-.3,-.1c-.2,.5,-.7,1.9,-1.2,1.9c-.3,0,-.4,-.5,-.4,-.8c0,-.2,0,-.3,0,-.5c.1,-.6,.3,-1.2,.4,-1.9c.1,-.4,.3,-.9,.4,-1.6l1.6,-5.8h-2.2l-.1,.2c.4,0,.6,.1,.7,.2c.2,.1,.3,.3,.3,.4c0,.3,-.1,.6,-.2,.9l-.9,3.4c-.2,-.4,-.4,-.6,-1,-.6c-1,0,-2,.9,-2.5,1.6c-.3,.3,-.5,.6,-.7,.9c-.3,.6,-.6,1.4,-.6,2.2c0,.6,.2,1,.5,1.3c.2,.3,.5,.6,1,.6c1.4,-.1,1.9,-.9,2.4,-1.7c0,.1,0,.2,0,.3c0,.1,-.1,.2,-.1,.3c0,.6,.3,1.1,.9,1.1Z" class="g0_155"/>
<path d="M357.5,609.2h15.9v-.8H357.5Z" class="g0_155"/>
<path d="M362.2,617.5c0,.7,-.2,1.6,-.4,2.1c-.2,.6,-.7,1.8,-1,2.3c-.3,.3,-.8,.8,-1.3,.8c-.5,0,-.8,-.5,-.8,-1c0,-.6,.2,-1.8,.4,-2.3c.4,-.9,1.3,-2.7,2.4,-2.7c.4,0,.7,.4,.7,.8Zm.2,5.5c.4,0,.8,-.2,1.1,-.6c.3,-.3,.6,-.9,.9,-1.7l-.4,-.1c-.1,.5,-.7,1.9,-1.2,1.9c-.3,0,-.4,-.5,-.4,-.8c0,-.1,0,-.3,.1,-.5c0,-.6,.2,-1.1,.4,-1.8c.1,-.5,.2,-1,.4,-1.6l1.5,-5.8h-2.2l-.1,.2c.5,0,.6,0,.7,.1c.2,.1,.4,.3,.4,.4c0,.3,-.1,.6,-.2,.9l-.9,3.4c-.3,-.4,-.5,-.6,-1.1,-.6c-1,0,-1.9,.9,-2.5,1.6c-.2,.3,-.4,.6,-.6,1c-.3,.6,-.6,1.3,-.6,2.1c0,.6,.1,1,.4,1.4c.2,.3,.6,.5,1,.5c1.4,0,1.9,-.9,2.4,-1.7l.1,.1c-.1,.1,-.1,.2,-.1,.3c0,0,0,.2,0,.2c0,.6,.3,1.1,.9,1.1Z" class="g0_155"/>
<path d="M372.7,617.3c0,-.5,-.5,-.9,-1,-.9c-.4,0,-.7,.1,-1,.3c-.3,.3,-.6,.6,-.8,.9c0,-.6,-.5,-1.2,-1.1,-1.2c-1.1,0,-2.1,1.2,-2.4,2l.2,.1c.3,-.5,1.1,-1.7,2,-1.7c.2,0,.3,.5,.3,.9c0,.3,0,.7,-.2,1.2l-.3,1.2c-.2,.6,-.4,1.4,-.7,1.8c-.2,.2,-.5,.6,-.8,.6c-.4,0,-.8,-.1,-.7,-.5c.1,-.3,.1,-.7,-.4,-.7c-.4,0,-.6,.3,-.6,.8c0,.5,.5,.9,1.1,.9c1,0,1.7,-.8,2.1,-1.4c.1,.8,.5,1.4,1.4,1.4c1.1,0,2,-1.1,2.4,-1.8L372,621c-.5,.6,-1.1,1.6,-1.9,1.6c-.5,0,-.7,-.6,-.7,-1.2c0,-.3,.1,-.8,.2,-1.3l.2,-.7c.1,-.6,.3,-1.3,.6,-1.7c.2,-.2,.6,-.9,.9,-.9c.4,0,.4,.3,.4,.6c0,.4,.1,.6,.4,.6c.4,0,.6,-.3,.6,-.7Z" class="g0_155"/>
<path d="M380.3,602c-2.2,1.4,-3.7,3.8,-3.7,6.8c0,2.8,1.6,5.6,3.7,6.8l.1,-.2c-1.9,-1.5,-2.5,-3.3,-2.5,-6.6c0,-3.3,.6,-5,2.5,-6.6l-.1,-.2Z" class="g0_155"/>
<path d="M386,606.2c-.4,0,-.9,.1,-1.3,.4c-.5,.3,-.9,.7,-1.3,1.2c-.6,.7,-1.2,1.9,-1.2,3.2c0,1,.4,1.8,1.3,1.8c1.3,0,1.8,-.9,2.2,-1.6c-.2,.9,-.1,1.6,.6,1.6c.3,0,.7,-.2,1.1,-.5c.4,-.3,.7,-.8,1.1,-1.4l-.2,-.1c-.3,.4,-.9,1.3,-1.4,1.3c-.2,0,-.2,-.3,-.2,-.5c0,-.9,.6,-2.5,.9,-3.5l.7,-1.8h-1l-.2,.7c-.2,-.5,-.5,-.8,-1.1,-.8Zm.1,.2c.7,0,.6,1.4,.5,1.9c-.1,.3,-.2,.7,-.3,1c-.4,1.2,-1.5,3.1,-2.3,3.1c-.6,0,-.8,-.9,-.8,-1.4c0,-.5,0,-.9,.2,-1.4c.4,-1,1.5,-3.2,2.7,-3.2Z" class="g0_155"/>
<path d="M396.6,607.1c0,-.5,-.5,-.9,-1,-.9c-.3,0,-.7,.1,-1,.3c-.3,.2,-.6,.5,-.8,.9c0,-.7,-.4,-1.2,-1.1,-1.2c-1.1,0,-2.1,1.1,-2.4,1.9l.2,.1c.4,-.5,1.1,-1.7,2,-1.7c.2,0,.4,.6,.4,1c0,.3,-.1,.7,-.2,1.2l-.4,1.2c-.2,.5,-.4,1.3,-.7,1.7c-.2,.3,-.4,.7,-.8,.7c-.4,0,-.7,-.1,-.6,-.5c.1,-.3,0,-.7,-.4,-.7c-.5,0,-.7,.3,-.7,.7c0,.6,.5,1,1.1,1c1,0,1.7,-.8,2.1,-1.5h.1c.1,.8,.5,1.5,1.3,1.5c1.2,0,2,-1.2,2.4,-1.9l-.1,-.1c-.5,.6,-1.2,1.6,-2,1.6c-.5,0,-.7,-.6,-.7,-1.2c0,-.4,.1,-.8,.2,-1.3l.2,-.8c.1,-.5,.4,-1.2,.6,-1.6c.2,-.3,.6,-.9,1,-.9c.4,0,.3,.3,.3,.6c0,.4,.1,.6,.5,.6c.3,0,.5,-.3,.5,-.7Z" class="g0_155"/>
<path d="M399.9,601.8c-.6,0,-1,-.5,-1,-1.1c0,-.8,.4,-1.7,1.3,-1.7c1.2,0,1.3,1,1.3,1.9c0,1,-.3,1.5,-.7,2.2c-.3,.4,-.7,.8,-1.1,1.3c-.5,.5,-1.1,1.1,-1.9,1.8v.3h4.6l.3,-2.1h-.3c0,.2,-.1,.4,-.2,.6c-.2,.3,-.5,.5,-1,.5h-2.1c.5,-.4,.9,-.7,1.4,-1.1c.7,-.6,1.5,-1.4,1.9,-2.2c.2,-.4,.3,-.8,.3,-1.2c0,-.4,-.1,-.6,-.2,-.9c-.3,-.7,-1.1,-1.3,-2.2,-1.3c-.7,0,-1.3,.3,-1.7,.6c-.4,.3,-.7,.8,-.7,1.5c0,.4,.1,.8,.4,1c.2,.3,.5,.4,.9,.4c.4,0,.7,-.2,.7,-.5Z" class="g0_155"/>
<path d="M411.2,608.4h-3.3v1h3.3v3.2h.9v-3.2h3.3v-1h-3.3v-3.3h-.9v3.3Z" class="g0_155"/>
<path d="M423.2,606.5c1.2,0,.9,1.9,.3,3.2c-.3,.8,-1.2,2.8,-2.4,2.8c-.4,0,-.6,-.4,-.6,-1c0,-.8,.2,-1.8,.5,-2.4c.2,-.6,.7,-1.6,1.1,-2c.2,-.3,.6,-.6,1.1,-.6Zm-2.3,6.3c1.7,0,2.9,-1.5,3.5,-2.6c.3,-.6,.6,-1.4,.6,-2.3c0,-1,-.5,-1.7,-1.5,-1.7c-.9,0,-1.6,.5,-2,1.1l1.5,-5.5h-2l-.1,.2c.6,0,.9,.3,.9,.6c0,.2,-.1,.6,-.2,.8L420,609c-.2,.6,-.3,1,-.4,1.4c-.1,.4,-.1,.7,-.1,.9c0,.9,.6,1.5,1.4,1.5Z" class="g0_155"/>
<path d="M433.2,607.1c0,-.5,-.4,-.9,-.9,-.9c-.4,0,-.7,.1,-1,.3c-.3,.2,-.6,.5,-.8,.9c0,-.7,-.5,-1.2,-1.1,-1.2c-1.1,0,-2.1,1.1,-2.4,1.9l.2,.1c.3,-.5,1.1,-1.7,1.9,-1.7c.3,0,.4,.6,.4,1c0,.3,0,.7,-.2,1.2l-.3,1.2c-.2,.5,-.4,1.3,-.7,1.7c-.2,.3,-.5,.7,-.8,.7c-.4,0,-.8,-.1,-.7,-.5c.1,-.3,.1,-.7,-.4,-.7c-.4,0,-.6,.3,-.6,.7c0,.6,.5,1,1.1,1c1,0,1.7,-.8,2.1,-1.5c.1,.8,.5,1.5,1.4,1.5c1.1,0,2,-1.2,2.4,-1.9l-.2,-.1c-.5,.6,-1.2,1.6,-2,1.6c-.4,0,-.6,-.6,-.6,-1.2c0,-.4,.1,-.8,.2,-1.3l.2,-.8c.1,-.5,.3,-1.2,.6,-1.6c.2,-.3,.6,-.9,.9,-.9c.4,0,.4,.3,.4,.6c0,.4,.1,.6,.4,.6c.4,0,.5,-.3,.5,-.7Z" class="g0_155"/>
<path d="M441,608.4h-3.3v1H441v3.2h1v-3.2h3.2v-1H442v-3.3h-1v3.3Z" class="g0_155"/>
<path d="M450.3,610.8c0,-.5,.1,-.9,.2,-1.4c.3,-1,1.1,-2.9,2.2,-2.9c.4,0,.4,.2,.4,.3c0,.1,-.1,.2,-.1,.4c0,.3,.2,.6,.5,.6c.5,0,.7,-.3,.7,-.7c0,-.6,-.6,-.9,-1.3,-.9c-1.4,0,-2.5,1.4,-3.1,2.5c-.4,.5,-.6,1.3,-.6,2.1c0,1.1,.6,2,1.7,2c1.3,0,2.1,-1.1,2.6,-2.1l-.2,-.1c-.5,.9,-1.3,1.8,-2.1,1.8c-.6,0,-.9,-.9,-.9,-1.6Z" class="g0_155"/>
<path d="M455.5,602l-.1,.2c1.9,1.6,2.5,3.3,2.5,6.6c0,3.3,-.6,5.1,-2.5,6.6l.1,.2c2.1,-1.2,3.7,-4,3.7,-6.8c0,-3,-1.6,-5.4,-3.7,-6.8Z" class="g0_155"/>
<path d="M465.4,610.8H473v-.9h-7.6Zm0,-3.1H473v-.8h-7.6Z" class="g0_155"/>
<path d="M481.4,606.3c-1,0,-1.5,-.7,-1.5,-1.6c0,-1.1,.6,-2.3,1.8,-2.3c1.6,0,1.8,1.4,1.8,2.6c0,1.3,-.4,2.1,-1,3c-.3,.5,-.9,1.1,-1.5,1.8c-.7,.7,-1.5,1.5,-2.5,2.4v.4h6.2l.5,-2.8h-.4c-.1,.3,-.2,.6,-.3,.7c-.2,.6,-.7,.8,-1.4,.8h-2.9c.6,-.5,1.3,-1,1.9,-1.5c1,-.9,2.1,-1.9,2.7,-3.1c.2,-.5,.3,-1.1,.3,-1.6c0,-.5,-.1,-.8,-.2,-1.2c-.5,-1,-1.5,-1.7,-3,-1.7c-1,0,-1.8,.3,-2.4,.8c-.5,.4,-.9,1.1,-.9,2c0,.6,.2,1.1,.5,1.4c.2,.3,.6,.6,1.2,.6c.6,0,1,-.3,1.1,-.7Z" class="g0_155"/>
<path d="M490.6,606.2c-.4,0,-.8,.1,-1.3,.4c-.4,.3,-.9,.7,-1.2,1.2c-.7,.7,-1.3,1.9,-1.3,3.2c0,1,.4,1.8,1.3,1.8c1.3,0,1.8,-.9,2.2,-1.6c-.2,.9,-.1,1.6,.6,1.6c.3,0,.7,-.2,1.1,-.5c.4,-.3,.8,-.8,1.1,-1.4l-.2,-.1c-.3,.4,-.9,1.3,-1.3,1.3c-.2,0,-.3,-.3,-.3,-.5c0,-.9,.6,-2.5,.9,-3.5l.7,-1.8h-1l-.2,.7c-.2,-.5,-.5,-.8,-1.1,-.8Zm.1,.2c.7,0,.6,1.4,.5,1.9c-.1,.3,-.2,.7,-.3,1c-.4,1.2,-1.5,3.1,-2.3,3.1c-.6,0,-.7,-.9,-.7,-1.4c0,-.5,0,-.9,.2,-1.4c.3,-1,1.4,-3.2,2.6,-3.2Z" class="g0_155"/>
<path d="M501.2,607.1c0,-.5,-.4,-.9,-1,-.9c-.3,0,-.6,.1,-.9,.3c-.4,.2,-.7,.5,-.9,.9c0,-.7,-.4,-1.2,-1,-1.2c-1.2,0,-2.1,1.1,-2.5,1.9l.2,.1c.4,-.5,1.1,-1.7,2,-1.7c.3,0,.4,.6,.4,1c0,.3,-.1,.7,-.2,1.2l-.4,1.2c-.1,.5,-.4,1.3,-.7,1.7c-.1,.3,-.4,.7,-.8,.7c-.4,0,-.7,-.1,-.6,-.5c.1,-.3,0,-.7,-.4,-.7c-.4,0,-.6,.3,-.6,.7c0,.6,.5,1,1,1c1,0,1.8,-.8,2.2,-1.5c.1,.8,.5,1.5,1.3,1.5c1.2,0,2,-1.2,2.5,-1.9l-.2,-.1c-.5,.6,-1.2,1.6,-2,1.6c-.4,0,-.6,-.6,-.6,-1.2c0,-.4,0,-.8,.1,-1.3l.2,-.8c.1,-.5,.4,-1.2,.6,-1.6c.2,-.3,.6,-.9,1,-.9c.4,0,.4,.3,.3,.6c0,.4,.2,.6,.5,.6c.4,0,.5,-.3,.5,-.7Z" class="g0_155"/>
<path d="M509,608.4h-3.3v1H509v3.2h.9v-3.2h3.3v-1h-3.3v-3.3H509v3.3Z" class="g0_155"/>
<path d="M521,606.5c1.2,0,.9,1.9,.3,3.2c-.3,.8,-1.2,2.8,-2.4,2.8c-.5,0,-.7,-.4,-.7,-1c0,-.8,.3,-1.8,.5,-2.4c.3,-.6,.8,-1.6,1.2,-2c.2,-.3,.6,-.6,1.1,-.6Zm-2.3,6.3c1.7,0,2.9,-1.5,3.5,-2.6c.3,-.6,.6,-1.4,.6,-2.3c0,-1,-.5,-1.7,-1.5,-1.7c-.9,0,-1.6,.5,-2,1.1l1.5,-5.5h-2.1v.2c.6,0,.9,.3,.9,.6c0,.2,-.2,.6,-.2,.8l-1.6,5.6c-.2,.6,-.3,1,-.4,1.4c-.1,.4,-.1,.7,-.1,.9c0,.9,.6,1.5,1.4,1.5Z" class="g0_155"/>
</svg>