<?xml version="1.0" encoding="UTF-8" standalone="no"?>
<!DOCTYPE svg PUBLIC "-//W3C//DTD SVG 1.1//EN"
"http://www.w3.org/Graphics/SVG/1.1/DTD/svg11.dtd">
<svg viewBox="0 0 811 1017" version="1.1" xmlns="http://www.w3.org/2000/svg" xmlns:xlink="http://www.w3.org/1999/xlink">
<defs>
<clipPath id="c0_297"><path d="M156.1,741.5V539.8H357.8V741.5Z"/></clipPath>
<style type="text/css"><![CDATA[
.g0_297{
fill: #0E0E0E;
}
]]></style>
</defs>
<path d="M184.5,193.3v-2.9c.8,0,1.2,0,1.6,.3c.5,.3,.8,.8,.9,1.4h.2v-3.9H187c0,.4,-.2,.6,-.3,.8c-.3,.8,-1.1,1,-2.2,1v-4.5q0,-.2,.2,-.2h1.7c.8,0,1.7,.2,2.1,.6c.5,.3,.7,.9,.8,1.6h.3l-.1,-2.5h-7.8v.2c.5,0,.9,.1,1.1,.4c.2,.2,.3,.7,.3,1.2v6.6c0,.5,-.1,1,-.3,1.2c-.3,.3,-.7,.5,-1.2,.5v.2h4.7v-.2c-.6,0,-1.2,-.2,-1.5,-.5c-.3,-.2,-.3,-.7,-.3,-1.3Z" class="g0_297"/>
<path d="M193.5,189.1c1.3,0,2,1.6,2,3c0,1.7,-.8,3.1,-2,3.1c-1.6,0,-2,-1.6,-2,-3.1c0,-1.4,.7,-3,2,-3Zm0,-.3c-.5,0,-.9,.1,-1.3,.3c-1.1,.4,-2.1,1.4,-2.1,3c0,.5,.1,.9,.3,1.3c.5,1.1,1.2,2,3.1,2c1.1,0,1.8,-.4,2.4,-.9c.5,-.6,1,-1.4,1,-2.4c0,-.5,-.1,-.9,-.3,-1.3c-.5,-1.1,-1.5,-2,-3.1,-2Z" class="g0_297"/>
<path d="M203.1,189.5c0,-.4,-.3,-.7,-.8,-.7c-.2,0,-.4,.1,-.6,.1c-.7,.3,-1.2,.9,-1.5,1.5L200,189l-2.1,.4v.2c.2,0,.5,.1,.6,.2c.3,.3,.4,.5,.4,1c0,.3,0,.7,0,1.3v1.6c0,.3,0,.6,0,.8c-.1,.6,-.3,.6,-1,.6v.2h3.2v-.2c-.2,0,-.4,0,-.5,-.1c-.5,-.2,-.5,-.7,-.5,-1.4v-.9c0,-1.1,.2,-2.1,.7,-2.7c.2,-.3,.5,-.5,.7,-.5c.5,0,.5,.6,.9,.6c.4,0,.7,-.2,.7,-.6Z" class="g0_297"/>
<path d="M209,195.4c1.1,0,1.7,-.6,2,-1.3h.1c0,.8,.3,1.3,1,1.3c.7,0,1.1,-.2,1.4,-.6l-.1,-.2c-.1,.2,-.4,.4,-.7,.4c-.4,0,-.5,-.4,-.5,-1.3v-3c0,-1.5,-.7,-1.9,-2.2,-1.9c-1.3,0,-2.5,.7,-2.5,1.2c0,.4,.1,.6,.5,.6c.4,0,.6,-.2,.7,-.5c.1,-.3,.2,-.5,.3,-.7c.1,-.1,.4,-.3,.8,-.3c1.2,0,1.2,.7,1.2,1.6v.5l-1.7,.8c-.6,.3,-1.1,.5,-1.5,.9c-.3,.3,-.5,.6,-.5,1.1c0,.9,.7,1.4,1.7,1.4Zm-.5,-1.6c0,-.5,.3,-.9,.6,-1.1c.5,-.5,1.1,-.8,1.9,-1.2v1.6c0,.6,-.2,1,-.4,1.4c-.2,.3,-.7,.5,-1.2,.5c-.5,0,-.9,-.7,-.9,-1.2Z" class="g0_297"/>
<path d="M216,193.7v-9.3l-2.3,.4v.2c.2,0,.6,.1,.8,.4c.3,.2,.4,.3,.4,2v6.4c0,.3,0,.5,-.1,.7c-.1,.5,-.4,.6,-1.1,.6v.2h3.4v-.2c-.3,0,-.5,0,-.6,0c-.5,-.2,-.5,-.7,-.5,-1.4Z" class="g0_297"/>
<path d="M219.9,193.7v-9.3l-2.3,.4v.2c.2,0,.6,.1,.8,.4c.3,.2,.4,.3,.4,2v6.4c0,.3,0,.5,-.1,.7c-.1,.5,-.4,.6,-1,.6v.2H221v-.2c-.3,0,-.5,0,-.6,0c-.5,-.2,-.5,-.7,-.5,-1.4Z" class="g0_297"/>
<path d="M229.5,189.1c1.3,0,1.9,1.7,1.9,3.1c0,1.3,-.7,3,-1.9,3c-.9,0,-1.7,-.9,-1.7,-1.5c0,-.2,-.1,-.4,-.1,-.6v-1.8c0,-.3,.1,-.6,.1,-.8c.2,-.6,.7,-1.4,1.7,-1.4Zm.1,6.3c1,0,1.7,-.4,2.2,-.9c.6,-.6,.9,-1.3,.9,-2.4c0,-1,-.3,-1.8,-.9,-2.3c-.5,-.6,-1.2,-1,-2.2,-1c-.9,0,-1.4,.5,-1.9,1v-.9l-2.3,.4v.2c.7,0,1,.2,1.1,.7c0,.1,0,.3,0,.6c.1,.3,.1,.7,.1,1.2v4.7c0,.5,-.1,.9,-.3,1.1c-.1,.3,-.5,.3,-.9,.3v.2h3.7v-.2c-.3,0,-.5,0,-.7,-.1c-.6,-.1,-.7,-.6,-.7,-1.4v-2c.5,.5,1,.8,1.9,.8Z" class="g0_297"/>
<path d="M237.2,189.1c1.4,0,2.1,1.6,2.1,3c-.1,1.7,-.9,3.1,-2.1,3.1c-1.6,0,-1.9,-1.6,-1.9,-3.1c0,-1.4,.6,-3,1.9,-3Zm0,-.3c-.4,0,-.8,.1,-1.2,.3c-1.2,.4,-2.1,1.4,-2.1,3c0,.5,.1,.9,.3,1.3c.5,1.1,1.2,2,3,2c1.2,0,1.9,-.4,2.4,-.9c.6,-.6,1,-1.4,1,-2.4c0,-.5,-.1,-.9,-.2,-1.3c-.6,-1.1,-1.6,-2,-3.2,-2Z" class="g0_297"/>
<path d="M243.3,187.1c.4,0,.8,-.3,.8,-.7c0,-.4,-.4,-.8,-.8,-.8c-.4,0,-.7,.4,-.7,.8c0,.4,.3,.7,.7,.7Zm.6,6.5v-4.8l-2.3,.5v.2c.4,0,.6,.1,.8,.3c.3,.3,.4,.6,.4,2.1v1.8c0,.3,0,.5,-.1,.7c-.1,.6,-.4,.7,-1.1,.7v.2h3.5v-.2c-.3,0,-.5,0,-.6,0c-.5,-.2,-.6,-.8,-.6,-1.5Z" class="g0_297"/>
<path d="M247.9,190h-.1l-.2,-1.2l-1.9,.5v.2c.2,0,.5,.1,.7,.2c.3,.3,.4,.5,.4,2v2c0,.4,0,.6,-.1,.8c0,.5,-.4,.6,-1,.6v.2h3.2v-.2c-.2,0,-.4,0,-.6,0c-.5,-.2,-.4,-.7,-.4,-1.4v-2.1c0,-.6,0,-.9,.2,-1.3c.3,-.5,1,-1.1,1.9,-1.1c1.2,0,1.2,1.4,1.2,2.7v1.8c0,.4,0,.6,-.1,.8c0,.5,-.3,.6,-.9,.6v.2h3.1v-.2c-.2,0,-.4,0,-.5,0c-.5,-.2,-.5,-.8,-.5,-1.4v-2.3c0,-.9,0,-1.4,-.4,-1.9c-.3,-.4,-.9,-.7,-1.7,-.7c-1.1,0,-1.8,.6,-2.3,1.2Z" class="g0_297"/>
<path d="M256.4,195.4c.8,0,1.2,-.2,1.6,-.9l-.2,-.2c-.2,.4,-.5,.8,-1,.8c-.8,0,-.8,-.5,-.8,-1.8v-4.1h1.6v-.3H256V187h-.2c-.3,.8,-1,1.6,-1.7,2v.2h.7V194c0,.9,.6,1.4,1.6,1.4Z" class="g0_297"/>
<path d="M260.8,189.1c.8,0,1.2,.8,1.5,1.6h.2v-1.8h-.2l-.3,.3c-.2,-.1,-.4,-.2,-.6,-.3c-.2,-.1,-.5,-.1,-.7,-.1c-.5,0,-1,.2,-1.2,.5c-.4,.3,-.6,.8,-.6,1.4c0,.7,.5,1.1,.9,1.5c.6,.4,2.1,1,2.1,1.8c0,.6,-.2,1.2,-1,1.2c-.9,0,-1.5,-.8,-1.8,-2h-.2v2.1h.2l.2,-.4c.5,.3,1.1,.5,1.7,.5c.6,0,1.1,-.1,1.5,-.5c.3,-.3,.5,-.7,.5,-1.3c0,-1,-1.1,-1.6,-1.9,-2.1c-.5,-.3,-1.2,-.6,-1.2,-1.4c0,-.5,.3,-1,.9,-1Z" class="g0_297"/>
<path d="M272.6,184.6c-2.2,1.4,-3.7,3.8,-3.7,6.9c0,2.7,1.6,5.5,3.7,6.8l.1,-.2c-1.9,-1.6,-2.5,-3.4,-2.5,-6.7c0,-3.3,.6,-5,2.5,-6.5l-.1,-.3Z" class="g0_297"/>
<path d="M281,189.8c0,-.6,-.5,-1,-1,-1c-.3,0,-.7,.2,-1,.4c-.3,.2,-.6,.5,-.8,.9c0,-.7,-.4,-1.3,-1.1,-1.3c-1.1,0,-2.1,1.2,-2.4,2l.2,.1c.3,-.5,1.1,-1.7,2,-1.7c.2,0,.4,.5,.4,1c0,.3,-.1,.6,-.3,1.1l-.3,1.2c-.2,.6,-.4,1.4,-.7,1.8c-.2,.2,-.4,.7,-.8,.7c-.4,0,-.7,-.1,-.6,-.5c.1,-.3,0,-.8,-.4,-.8c-.5,0,-.7,.3,-.7,.8c0,.5,.5,.9,1.1,.9c1,0,1.7,-.8,2.1,-1.4c.2,.8,.6,1.4,1.4,1.4c1.2,0,2,-1.1,2.4,-1.8l-.2,-.2c-.4,.7,-1.1,1.7,-1.9,1.7c-.5,0,-.7,-.6,-.7,-1.3c0,-.3,.1,-.7,.2,-1.3l.2,-.7c.1,-.6,.3,-1.3,.6,-1.6c.2,-.3,.6,-1,.9,-1c.5,0,.4,.3,.4,.6c0,.4,.1,.6,.5,.6c.3,0,.5,-.3,.5,-.6Z" class="g0_297"/>
<path d="M283.2,194.5c0,.4,.3,.8,.7,.8c.1,0,.3,0,.4,-.1c0,.4,-.1,.7,-.3,1c-.2,.3,-.6,.7,-1.1,1l.4,.4c.3,-.2,.6,-.4,.8,-.6c.5,-.5,1,-1,1,-2c0,-.9,-.4,-1.3,-1,-1.3c-.5,0,-.9,.3,-.9,.8Z" class="g0_297"/>
<path d="M288.6,197.5c0,.5,.5,.9,1.1,.9c.4,0,.8,-.2,1.3,-.6c.8,-.6,2.1,-2.2,2.8,-3.4c.4,-.6,.7,-1.2,1,-1.8c.4,-.8,1.2,-2.1,1.2,-2.9c0,-.2,-.1,-.4,-.2,-.6c-.1,-.2,-.3,-.3,-.4,-.3c-.2,0,-.3,.1,-.5,.2c-.1,.2,-.2,.4,-.2,.7c0,.4,.2,.9,.2,1.3c0,.6,-.2,1.1,-.4,1.6c-.3,.5,-.5,.9,-.8,1.4h-.1l-.4,-1.9c-.1,-.6,-.3,-1.6,-.4,-2.1c-.2,-.6,-.3,-1.2,-1.3,-1.2c-1.2,0,-1.4,1.8,-1.6,2.6l.3,.1c.1,-.6,.6,-2.3,1,-2.3c.4,0,.5,1,.6,1.2c.1,.3,.1,.7,.3,1.4l.5,3.5c-.3,.8,-1.1,1.7,-1.7,2.2c-.3,.1,-.6,.2,-.8,.2c-.1,0,-.1,-.1,-.2,-.1c-.2,-.3,-.2,-.8,-.7,-.8c-.4,0,-.6,.3,-.6,.7Z" class="g0_297"/>
<path d="M297.3,184.6l-.1,.3c1.9,1.5,2.5,3.2,2.5,6.5c0,3.3,-.6,5.1,-2.5,6.7l.1,.2c2.1,-1.3,3.7,-4.1,3.7,-6.8c0,-3.1,-1.6,-5.5,-3.7,-6.9Z" class="g0_297"/>
<path d="M314.9,189.7c0,.2,.1,.3,0,.5c-.1,.4,-.3,.8,-.5,1.2l-.8,2.1h-.1l-1.6,-4.6h-.2l-1.9,4.6l-.9,-3c-.1,-.2,-.1,-.3,-.1,-.5c-.1,0,-.1,-.2,-.1,-.2c0,-.5,.4,-.7,.9,-.7v-.2h-3.1v.2c.3,0,.6,.2,.7,.4c.2,.2,.4,.5,.5,.9l1.5,5h.2l1.9,-4.8l1.7,4.8h.2l1.8,-4.7c.2,-.5,.4,-.8,.6,-1.2c.1,-.1,.5,-.4,.8,-.4v-.2H314v.2c.5,0,.9,.2,.9,.6Z" class="g0_297"/>
<path d="M319,193.6v-2.4c0,-.4,.1,-.7,.2,-.9c.4,-.5,1,-1.1,1.9,-1.1c1.1,0,1.2,1.3,1.2,2.8v1.7c0,.3,0,.6,0,.8c-.1,.5,-.3,.6,-1,.6v.2h3.2v-.2c-.2,0,-.4,0,-.5,0c-.5,-.2,-.5,-.8,-.5,-1.5v-2.1c0,-.9,-.1,-1.5,-.4,-2c-.3,-.4,-.9,-.7,-1.7,-.7c-1,0,-1.9,.6,-2.4,1.3v-5.7l-2.2,.4v.2c.3,0,.8,.3,.9,.5c0,0,0,.1,.1,.2c0,.2,0,.4,0,.7c0,.2,0,.6,0,1.1v6.2c0,.5,0,.9,-.1,1.2c-.2,.2,-.5,.2,-.9,.2v.2H320v-.2c-.2,0,-.4,0,-.5,0c-.5,-.2,-.5,-.8,-.5,-1.5Z" class="g0_297"/>
<path d="M329.8,190.7c0,0,0,.1,0,.2c-.1,.1,-.5,.1,-.7,.1h-2.3c.2,-1.1,.7,-1.9,1.7,-1.9c1,0,1.3,.8,1.3,1.6Zm-.9,4.4c-1.5,0,-2.2,-1.6,-2.2,-3.1c0,-.2,.1,-.6,.1,-.7h3.9c.3,0,.4,0,.4,-.3c0,-1.5,-.9,-2.2,-2.4,-2.2c-.5,0,-1,.1,-1.4,.3c-1.1,.5,-1.9,1.5,-1.9,3.1c0,1.9,1.2,3.3,3.1,3.2c1.4,0,1.8,-.5,2.6,-1.2l-.2,-.2c-.5,.5,-1.2,1.1,-2,1.1Z" class="g0_297"/>
<path d="M337.3,189.5c0,-.4,-.3,-.7,-.8,-.7c-.2,0,-.4,.1,-.6,.1c-.7,.3,-1.2,.9,-1.5,1.5l-.2,-1.4l-2.1,.4v.2c.2,0,.5,.1,.7,.2c.2,.3,.3,.5,.3,1c.1,.3,.1,.7,.1,1.3v1.6c0,.3,-.1,.6,-.1,.8c-.1,.6,-.3,.6,-1,.6v.2h3.2v-.2c-.2,0,-.4,0,-.5,-.1c-.5,-.2,-.5,-.7,-.5,-1.4v-.9c0,-1.1,.2,-2.1,.7,-2.7c.2,-.3,.5,-.5,.7,-.5c.6,0,.5,.6,1,.6c.4,0,.6,-.2,.6,-.6Z" class="g0_297"/>
<path d="M342.3,190.7c0,0,0,.1,0,.2c-.1,.1,-.4,.1,-.7,.1h-2.2c.2,-1.1,.6,-1.9,1.6,-1.9c1,0,1.3,.8,1.3,1.6Zm-.9,4.4c-1.5,0,-2.2,-1.6,-2.2,-3.1c0,-.2,.1,-.6,.1,-.7h3.9c.3,0,.4,0,.4,-.3c0,-1.5,-.9,-2.2,-2.4,-2.2c-.5,0,-.9,.1,-1.4,.3c-1.1,.5,-1.9,1.5,-1.9,3.1c0,1.9,1.2,3.3,3.1,3.2c1.4,0,1.8,-.5,2.6,-1.2l-.2,-.2c-.5,.5,-1.1,1.1,-2,1.1Z" class="g0_297"/>
<path d="M355.3,189.8c0,-.6,-.5,-1,-1,-1c-.3,0,-.7,.2,-1,.4c-.3,.2,-.6,.5,-.8,.9c0,-.7,-.4,-1.3,-1.1,-1.3c-1.1,0,-2.1,1.2,-2.4,2l.2,.1c.3,-.5,1.1,-1.7,2,-1.7c.2,0,.3,.5,.3,1c0,.3,0,.6,-.2,1.1l-.3,1.2c-.2,.6,-.4,1.4,-.7,1.8c-.2,.2,-.4,.7,-.8,.7c-.4,0,-.7,-.1,-.6,-.5c0,-.3,0,-.8,-.4,-.8c-.5,0,-.7,.3,-.7,.8c0,.5,.5,.9,1.1,.9c1,0,1.7,-.8,2.1,-1.4c.1,.8,.5,1.4,1.4,1.4c1.2,0,2,-1.1,2.4,-1.8l-.2,-.2c-.4,.7,-1.1,1.7,-1.9,1.7c-.5,0,-.7,-.6,-.7,-1.3c0,-.3,.1,-.7,.2,-1.3l.2,-.7c.1,-.6,.3,-1.3,.6,-1.6c.2,-.3,.6,-1,.9,-1c.5,0,.4,.3,.4,.6c0,.4,.1,.6,.5,.6c.3,0,.5,-.3,.5,-.6Z" class="g0_297"/>
<path d="M362.4,193.7v-9.3l-2.3,.4v.2c.2,0,.5,.1,.8,.4c.2,.2,.4,.3,.4,2v6.4c0,.3,0,.5,-.1,.7c-.1,.5,-.4,.6,-1.1,.6v.2h3.4v-.2c-.3,0,-.5,0,-.6,0c-.5,-.2,-.5,-.7,-.5,-1.4Z" class="g0_297"/>
<path d="M365.9,187.1c.4,0,.7,-.3,.7,-.7c0,-.4,-.3,-.8,-.7,-.8c-.4,0,-.8,.4,-.8,.8c0,.4,.4,.7,.8,.7Zm.6,6.5v-4.8l-2.3,.5v.2c.4,0,.6,.1,.8,.3c.3,.3,.3,.6,.3,2.1v1.8c0,.3,0,.5,0,.7c-.1,.6,-.5,.7,-1.1,.7v.2h3.4v-.2c-.2,0,-.4,0,-.6,0c-.5,-.2,-.5,-.8,-.5,-1.5Z" class="g0_297"/>
<path d="M372.9,190.7c0,0,0,.1,0,.2c-.1,.1,-.5,.1,-.8,.1h-2.2c.2,-1.1,.7,-1.9,1.7,-1.9c1,0,1.3,.8,1.3,1.6Zm-1,4.4c-1.4,0,-2.1,-1.6,-2.1,-3.1c0,-.2,0,-.6,.1,-.7h3.9c.3,0,.4,0,.4,-.3c0,-1.5,-.9,-2.2,-2.5,-2.2c-.4,0,-.9,.1,-1.3,.3c-1.1,.5,-2,1.5,-2,3.1c0,1.9,1.3,3.3,3.2,3.2c1.4,0,1.7,-.5,2.5,-1.2L374,194c-.5,.5,-1.2,1.1,-2.1,1.1Z" class="g0_297"/>
<path d="M377.4,189.1c.8,0,1.2,.8,1.5,1.6h.2v-1.8h-.2l-.3,.3c-.2,-.1,-.3,-.2,-.6,-.3c-.2,-.1,-.4,-.1,-.6,-.1c-.6,0,-1,.2,-1.3,.5c-.3,.3,-.5,.8,-.5,1.4c0,.7,.4,1.1,.9,1.5c.5,.4,2.1,1,2.1,1.8c0,.6,-.3,1.2,-1.1,1.2c-.8,0,-1.5,-.8,-1.8,-2h-.2v2.1h.2l.3,-.4c.4,.3,1,.5,1.6,.5c.6,0,1.1,-.1,1.5,-.5c.4,-.3,.5,-.7,.5,-1.3c0,-1,-1.1,-1.6,-1.9,-2.1c-.4,-.3,-1.2,-.6,-1.2,-1.4c0,-.5,.3,-1,.9,-1Z" class="g0_297"/>
<path d="M386.2,187.1c.4,0,.7,-.3,.7,-.7c0,-.4,-.3,-.8,-.7,-.8c-.4,0,-.8,.4,-.8,.8c0,.4,.4,.7,.8,.7Zm.6,6.5v-4.8l-2.3,.5v.2c.4,0,.6,.1,.8,.3c.3,.3,.4,.6,.4,2.1v1.8c0,.3,0,.5,-.1,.7c-.1,.6,-.5,.7,-1.1,.7v.2H388v-.2c-.3,0,-.5,0,-.6,0c-.6,-.2,-.6,-.8,-.6,-1.5Z" class="g0_297"/>
<path d="M390.7,190v0l-.2,-1.2l-1.9,.5v.2c.2,0,.5,.1,.7,.2c.2,.3,.3,.5,.3,2v2c0,.4,0,.6,0,.8c0,.5,-.4,.6,-1,.6v.2h3.2v-.2c-.2,0,-.4,0,-.6,0c-.5,-.2,-.4,-.7,-.4,-1.4v-2.1c0,-.6,0,-.9,.2,-1.3c.3,-.5,1,-1.1,1.8,-1.1c1.3,0,1.3,1.4,1.3,2.7v1.8c0,.4,0,.6,-.1,.8c0,.5,-.3,.6,-.9,.6v.2h3.1v-.2c-.2,0,-.4,0,-.6,0c-.5,-.2,-.4,-.8,-.4,-1.4v-2.3c0,-.9,0,-1.4,-.4,-1.9c-.3,-.4,-.9,-.7,-1.7,-.7c-1.1,0,-1.8,.6,-2.4,1.2Z" class="g0_297"/>
<path d="M403.2,195.4c.8,0,1.1,-.2,1.6,-.9l-.2,-.2c-.2,.4,-.5,.8,-1,.8c-.8,0,-.9,-.5,-.9,-1.8v-4.1h1.6v-.3h-1.6V187h-.1c-.3,.8,-1,1.6,-1.8,2v.2h.7V194c0,.9,.7,1.4,1.7,1.4Z" class="g0_297"/>
<path d="M407.4,193.6v-2.4c0,-.4,0,-.7,.2,-.9c.3,-.5,.9,-1.1,1.8,-1.1c1.2,0,1.3,1.3,1.3,2.8v1.7c0,.3,0,.6,0,.8c-.1,.5,-.4,.6,-1,.6v.2h3.2v-.2c-.3,0,-.4,0,-.6,0c-.4,-.2,-.4,-.8,-.4,-1.5v-2.1c0,-.9,-.1,-1.5,-.4,-2c-.4,-.4,-1,-.7,-1.7,-.7c-1.1,0,-1.9,.6,-2.4,1.3v-5.7l-2.2,.4v.2c.3,0,.7,.3,.8,.5c.1,0,.1,.1,.1,.2c.1,.2,.1,.4,.1,.7c0,.2,0,.6,0,1.1v6.2c0,.5,0,.9,-.2,1.2c-.1,.2,-.4,.2,-.8,.2v.2h3.2v-.2c-.3,0,-.4,0,-.6,0c-.5,-.2,-.4,-.8,-.4,-1.5Z" class="g0_297"/>
<path d="M418.2,190.7c0,0,0,.1,-.1,.2c0,.1,-.4,.1,-.7,.1h-2.2c.2,-1.1,.7,-1.9,1.7,-1.9c1,0,1.3,.8,1.3,1.6Zm-1,4.4c-1.4,0,-2.1,-1.6,-2.1,-3.1c0,-.2,0,-.6,.1,-.7h3.9c.3,0,.4,0,.4,-.3c0,-1.5,-.9,-2.2,-2.5,-2.2c-.4,0,-.9,.1,-1.3,.3c-1.1,.5,-2,1.5,-2,3.1c0,1.9,1.3,3.3,3.2,3.2c1.4,0,1.7,-.5,2.5,-1.2l-.1,-.2c-.5,.5,-1.2,1.1,-2.1,1.1Z" class="g0_297"/>
<path d="M429.6,189.5c0,-.4,-.4,-.7,-.8,-.7c-.2,0,-.4,.1,-.6,.1c-.7,.3,-1.2,.9,-1.5,1.5h-.1l-.1,-1.4l-2.1,.4v.2c.2,0,.5,.1,.6,.2c.3,.3,.4,.5,.4,1c0,.3,0,.7,0,1.3v1.6c0,.3,0,.6,0,.8c-.1,.6,-.4,.6,-1,.6v.2h3.2v-.2c-.3,0,-.4,0,-.6,-.1c-.4,-.2,-.4,-.7,-.4,-1.4v-.9c0,-1.1,.1,-2.1,.6,-2.7c.2,-.3,.5,-.5,.7,-.5c.6,0,.6,.6,1,.6c.4,0,.7,-.2,.7,-.6Z" class="g0_297"/>
<path d="M431.8,195.4c1.1,0,1.7,-.6,2.1,-1.3c0,.8,.3,1.3,1.1,1.3c.6,0,1.1,-.2,1.3,-.6l-.1,-.2c-.1,.2,-.4,.4,-.7,.4c-.4,0,-.5,-.4,-.5,-1.3v-3c0,-1.5,-.7,-1.9,-2.2,-1.9c-1.3,0,-2.5,.7,-2.5,1.2c0,.4,.2,.6,.6,.6c.4,0,.6,-.2,.7,-.5c.1,-.3,.1,-.5,.2,-.7c.2,-.1,.5,-.3,.8,-.3c1.3,0,1.2,.7,1.2,1.6v.5l-1.7,.8c-.6,.3,-1.1,.5,-1.5,.9c-.3,.3,-.4,.6,-.4,1.1c0,.9,.7,1.4,1.6,1.4Zm-.4,-1.6c0,-.5,.2,-.9,.5,-1.1c.5,-.5,1.1,-.8,1.9,-1.2v1.6c0,.6,-.2,1,-.4,1.4c-.2,.3,-.7,.5,-1.1,.5c-.6,0,-.9,-.7,-.9,-1.2Z" class="g0_297"/>
<path d="M438.9,190h-.1l-.1,-1.2l-2,.5v.2c.2,0,.5,.1,.7,.2c.3,.3,.4,.5,.4,2v2c0,.4,0,.6,-.1,.8c0,.5,-.4,.6,-.9,.6v.2h3.1v-.2c-.2,0,-.4,0,-.5,0c-.6,-.2,-.5,-.7,-.5,-1.4v-2.1c0,-.6,0,-.9,.2,-1.3c.3,-.5,1.1,-1.1,1.9,-1.1c1.2,0,1.2,1.4,1.2,2.7v1.8c0,.4,0,.6,0,.8c-.1,.5,-.4,.6,-1,.6v.2h3.1v-.2c-.2,0,-.4,0,-.5,0c-.5,-.2,-.5,-.8,-.5,-1.4v-2.3c0,-.9,0,-1.4,-.3,-1.9c-.4,-.4,-1,-.7,-1.7,-.7c-1.1,0,-1.9,.6,-2.4,1.2Z" class="g0_297"/>
<path d="M451.3,189.8c.2,0,.4,-.1,.4,-.4c0,-.4,-.2,-.6,-.7,-.6c-.2,0,-.4,.1,-.6,.2c-.2,.1,-.5,.2,-.7,.4c-.5,-.3,-1.1,-.6,-1.8,-.6c-.7,0,-1.4,.3,-1.7,.6c-.4,.4,-.7,.8,-.7,1.5c0,.8,.3,1.3,.7,1.6c.2,.2,.3,.3,.5,.3v.1c-.6,.1,-1.2,.5,-1.2,1.1c0,1.2,1.2,1.1,2.3,1.3c.2,0,.4,0,.6,.1c.2,0,.4,0,.6,.1c.6,.1,1.1,.5,1.1,1.1c0,.9,-.7,1.6,-2,1.6c-1.3,0,-2,-.5,-2,-1.4c0,-.3,0,-.5,.2,-.7c.1,-.2,.3,-.3,.5,-.3c-.2,-.2,-.5,-.3,-.7,-.3c-.2,0,-.3,.1,-.5,.1c-.3,.2,-.6,.6,-.6,1.1c0,.7,.4,1.1,.8,1.3c.6,.3,1.3,.4,2.2,.4c1.7,0,3.1,-.5,3.1,-2c0,-1.2,-.8,-1.9,-1.9,-2c-.5,-.1,-.9,-.2,-1.5,-.2c-.4,-.1,-1.3,0,-1.3,-.5c0,-.2,.1,-.3,.3,-.3c.2,-.1,.5,-.2,1,-.3c1.5,-.1,2.5,-.7,2.5,-2.2c0,-.4,-.2,-.9,-.4,-1.3c.2,-.1,.4,-.3,.6,-.3c.6,0,.4,.5,.9,.5Zm-4.5,1.2c0,-.9,.2,-1.9,1.1,-1.9c.9,0,1.1,1,1.1,1.9c0,.9,-.2,1.9,-1.1,1.9c-1,0,-1.1,-1.1,-1.1,-1.9Z" class="g0_297"/>
<path d="M456.8,190.7c0,0,0,.1,-.1,.2c0,.1,-.4,.1,-.7,.1h-2.2c.2,-1.1,.6,-1.9,1.7,-1.9c1,0,1.3,.8,1.3,1.6Zm-1,4.4c-1.4,0,-2.1,-1.6,-2.1,-3.1c0,-.2,0,-.6,.1,-.7h3.9c.3,0,.4,0,.4,-.3c0,-1.5,-.9,-2.2,-2.5,-2.2c-.5,0,-.9,.1,-1.3,.3c-1.1,.5,-2,1.5,-2,3.1c0,1.9,1.2,3.3,3.2,3.2c1.3,0,1.7,-.5,2.5,-1.2l-.1,-.2c-.5,.5,-1.2,1.1,-2.1,1.1Z" class="g0_297"/>
<path d="M467.6,184.6c-2.1,1.4,-3.6,3.8,-3.6,6.9c0,2.7,1.5,5.5,3.6,6.8l.2,-.2c-2,-1.6,-2.6,-3.4,-2.6,-6.7c0,-3.3,.7,-5,2.6,-6.5l-.2,-.3Z" class="g0_297"/>
<path d="M468.2,197.5c0,.6,.5,.9,1.1,.9c.7,0,1.2,-.4,1.6,-.8c.5,-.5,.8,-1.2,1,-1.9l1,-3.6c.2,-.6,.3,-1.1,.4,-1.6c.1,-.4,.2,-.7,.2,-1c0,-.4,-.2,-.7,-.6,-.7c-.8,0,-1.9,1.2,-2.3,1.9l.3,.1c.2,-.2,.7,-1.1,1.2,-1.1c.1,0,.2,.2,.2,.4c0,.4,-.1,.7,-.2,1.2l-1.5,5.4c-.1,.4,-.4,1.3,-.9,1.3c-.1,0,-.1,-.1,-.2,-.1c-.2,-.3,0,-1.1,-.7,-1.1c-.4,0,-.6,.3,-.6,.7Zm5.9,-11.4c0,-.4,-.4,-.8,-.8,-.8c-.4,0,-.7,.4,-.7,.8c0,.4,.3,.8,.7,.8c.4,0,.8,-.4,.8,-.8Z" class="g0_297"/>
<path d="M476.3,194.5c0,.4,.3,.8,.7,.8c.2,0,.3,0,.4,-.1c0,.4,-.1,.7,-.3,1c-.2,.3,-.5,.7,-1,1l.3,.4c.3,-.2,.6,-.4,.8,-.6c.6,-.5,1,-1,1,-2c0,-.9,-.3,-1.3,-1,-1.3c-.5,0,-.9,.3,-.9,.8Z" class="g0_297"/>
<path d="M482.1,197.5c0,.6,.6,.9,1.2,.9c.7,0,1.2,-.4,1.6,-.8c.4,-.5,.8,-1.2,1,-1.9l1,-3.6c.1,-.6,.3,-1.1,.4,-1.6c.1,-.4,.2,-.7,.2,-1c0,-.4,-.2,-.7,-.6,-.7c-.9,0,-2,1.2,-2.3,1.9l.3,.1c.2,-.2,.6,-1.1,1.1,-1.1c.2,0,.3,.2,.3,.4c0,.4,-.1,.7,-.2,1.2l-1.5,5.4c-.1,.4,-.4,1.3,-.9,1.3c-.1,0,-.2,-.1,-.2,-.1c-.3,-.3,-.1,-1.1,-.8,-1.1c-.4,0,-.6,.3,-.6,.7ZM488,186.1c0,-.4,-.3,-.8,-.7,-.8c-.4,0,-.8,.4,-.8,.8c0,.4,.4,.8,.8,.8c.3,0,.7,-.4,.7,-.8Z" class="g0_297"/>
<path d="M495.8,191h-3.2v1h3.2v3.3h1V192H500v-1h-3.2v-3.2h-1V191Z" class="g0_297"/>
<path d="M505.8,185.6v.2c.4,0,1.1,.1,1.3,.2c.5,.2,.4,.4,.5,1v6.5c0,.3,-.1,.6,-.1,.8c-.1,.7,-.9,.7,-1.6,.8v.2h4.7v-.2c-.5,0,-1.3,-.1,-1.5,-.3c-.2,-.3,-.2,-.8,-.2,-1.4v-8.6c-.8,.4,-2.1,.8,-3.1,.8Z" class="g0_297"/>
<path d="M512.8,184.6l-.2,.3c1.9,1.5,2.5,3.2,2.5,6.5c0,3.3,-.5,5.1,-2.5,6.7l.2,.2c2,-1.3,3.6,-4.1,3.6,-6.8c0,-3.1,-1.5,-5.5,-3.6,-6.9Z" class="g0_297"/>
<path d="M523.9,195.4c1.2,0,1.8,-.6,2.1,-1.3h.1c0,.8,.3,1.3,1,1.3c.7,0,1.1,-.2,1.3,-.6l-.1,-.2c-.1,.2,-.4,.4,-.7,.4c-.3,0,-.5,-.4,-.5,-1.3v-3c0,-1.5,-.7,-1.9,-2.2,-1.9c-1.3,0,-2.5,.7,-2.5,1.2c0,.4,.2,.6,.6,.6c.4,0,.6,-.2,.7,-.5c.1,-.3,.1,-.5,.3,-.7c.1,-.1,.4,-.3,.7,-.3c1.3,0,1.3,.7,1.3,1.6v.5l-1.8,.8c-.6,.3,-1.1,.5,-1.5,.9c-.2,.3,-.4,.6,-.4,1.1c0,.9,.7,1.4,1.6,1.4Zm-.4,-1.6c0,-.5,.3,-.9,.6,-1.1c.5,-.5,1.1,-.8,1.9,-1.2v1.6c0,.6,-.2,1,-.5,1.4c-.2,.3,-.7,.5,-1.1,.5c-.6,0,-.9,-.7,-.9,-1.2Z" class="g0_297"/>
<path d="M531,190v0l-.2,-1.2l-1.9,.5v.2c.2,0,.5,.1,.6,.2c.3,.3,.4,.5,.4,2v2c0,.4,0,.6,0,.8c-.1,.5,-.4,.6,-1,.6v.2H532v-.2c-.2,0,-.4,0,-.5,0c-.5,-.2,-.5,-.7,-.5,-1.4v-2.1c0,-.6,0,-.9,.3,-1.3c.3,-.5,1,-1.1,1.8,-1.1c1.3,0,1.2,1.4,1.2,2.7v1.8c0,.4,0,.6,0,.8c-.1,.5,-.4,.6,-1,.6v.2h3.1v-.2c-.2,0,-.4,0,-.5,0c-.5,-.2,-.4,-.8,-.4,-1.4v-2.3c0,-.9,-.1,-1.4,-.4,-1.9c-.4,-.4,-1,-.7,-1.7,-.7c-1.1,0,-1.9,.6,-2.4,1.2Z" class="g0_297"/>
<path d="M540.4,189.1c.7,0,1.2,.3,1.6,.7c.3,.4,.3,.8,.3,1.5v1.6c0,.9,-.2,1.5,-.6,1.8c-.3,.3,-.7,.4,-1.3,.4c-1.4,0,-1.7,-1.6,-1.7,-3.1c0,-1.4,.4,-2.9,1.7,-2.9Zm0,-.3c-.9,0,-1.7,.4,-2.2,1c-.5,.5,-.9,1.3,-.9,2.3c0,1.9,1.2,3.3,3.1,3.3c.5,0,.9,0,1.2,-.2c.4,-.4,.5,-.5,.8,-.9h.1v1.1l2,-.1v-.2c-.2,0,-.3,0,-.4,0c-.6,-.1,-.6,-.7,-.6,-1.4c0,-.3,0,-.9,0,-1.4v-7.9l-2.5,.4v.2c.4,0,.7,.1,.9,.3c.3,.2,.4,.4,.4,1c.1,.3,0,.7,0,1.1v2.2c-.5,-.5,-1,-.8,-1.9,-.8Z" class="g0_297"/>
<path d="M547.7,197.5c0,.5,.5,.9,1.1,.9c.4,0,.8,-.2,1.3,-.6c.8,-.6,2.1,-2.2,2.8,-3.4c.4,-.6,.7,-1.2,1,-1.8c.4,-.8,1.2,-2.1,1.2,-2.9c0,-.2,-.1,-.4,-.2,-.6c-.1,-.2,-.3,-.3,-.5,-.3c-.1,0,-.3,.1,-.4,.2c-.2,.2,-.2,.4,-.2,.7c0,.4,.2,.9,.2,1.3c0,.6,-.2,1.1,-.4,1.6c-.3,.5,-.5,.9,-.9,1.4l-.4,-1.9c-.1,-.6,-.3,-1.6,-.4,-2.1c-.2,-.6,-.3,-1.2,-1.3,-1.2c-1.2,0,-1.4,1.8,-1.6,2.6l.3,.1c.1,-.6,.6,-2.3,1,-2.3c.4,0,.5,1,.6,1.2c0,.3,.1,.7,.2,1.4l.6,3.5c-.3,.8,-1.1,1.7,-1.7,2.2c-.3,.1,-.6,.2,-.8,.2c-.1,0,-.1,-.1,-.2,-.1c-.2,-.3,-.2,-.8,-.7,-.8c-.4,0,-.6,.3,-.6,.7Z" class="g0_297"/>
<path d="M561.8,187.1c.4,0,.8,-.3,.8,-.7c0,-.4,-.4,-.8,-.8,-.8c-.4,0,-.8,.4,-.8,.8c0,.4,.4,.7,.8,.7Zm.6,6.5v-4.8l-2.3,.5v.2c.4,0,.6,.1,.8,.3c.3,.3,.4,.6,.4,2.1v1.8c0,.3,0,.5,-.1,.7c-.1,.6,-.4,.7,-1.1,.7v.2h3.5v-.2c-.3,0,-.5,0,-.6,0c-.6,-.2,-.6,-.8,-.6,-1.5Z" class="g0_297"/>
<path d="M566.3,190v0l-.2,-1.2l-1.9,.5v.2c.2,0,.5,.1,.7,.2c.3,.3,.3,.5,.3,2v2c0,.4,0,.6,0,.8c0,.5,-.4,.6,-1,.6v.2h3.2v-.2c-.2,0,-.4,0,-.6,0c-.5,-.2,-.4,-.7,-.4,-1.4v-2.1c0,-.6,0,-.9,.2,-1.3c.3,-.5,1,-1.1,1.8,-1.1c1.3,0,1.3,1.4,1.3,2.7v1.8c0,.4,0,.6,-.1,.8c0,.5,-.3,.6,-.9,.6v.2h3.1v-.2c-.2,0,-.4,0,-.6,0c-.5,-.2,-.4,-.8,-.4,-1.4v-2.3c0,-.9,0,-1.4,-.4,-1.9c-.3,-.4,-.9,-.7,-1.7,-.7c-1.1,0,-1.8,.6,-2.4,1.2Z" class="g0_297"/>
<path d="M578.8,195.4c.8,0,1.1,-.2,1.6,-.9l-.2,-.2c-.2,.4,-.5,.8,-1,.8c-.8,0,-.9,-.5,-.9,-1.8v-4.1h1.6v-.3h-1.6V187h-.1c-.3,.8,-1,1.6,-1.8,2v.2h.7V194c0,.9,.7,1.4,1.7,1.4Z" class="g0_297"/>
<path d="M583,193.6v-2.4c0,-.4,0,-.7,.2,-.9c.3,-.5,.9,-1.1,1.8,-1.1c1.2,0,1.3,1.3,1.3,2.8v1.7c0,.3,0,.6,0,.8c-.1,.5,-.4,.6,-1,.6v.2h3.2v-.2c-.3,0,-.4,0,-.6,0c-.4,-.2,-.4,-.8,-.4,-1.5v-2.1c0,-.9,-.1,-1.5,-.4,-2c-.4,-.4,-1,-.7,-1.7,-.7c-1.1,0,-1.9,.6,-2.4,1.3v-5.7l-2.2,.4v.2c.3,0,.7,.3,.9,.5c0,0,0,.1,0,.2c.1,.2,.1,.4,.1,.7c0,.2,0,.6,0,1.1v6.2c0,.5,0,.9,-.1,1.2c-.2,.2,-.5,.2,-.9,.2v.2H584v-.2c-.3,0,-.4,0,-.6,0c-.5,-.2,-.4,-.8,-.4,-1.5Z" class="g0_297"/>
<path d="M593.8,190.7c0,0,0,.1,-.1,.2c0,.1,-.4,.1,-.7,.1h-2.2c.2,-1.1,.7,-1.9,1.7,-1.9c1,0,1.3,.8,1.3,1.6Zm-1,4.4c-1.4,0,-2.1,-1.6,-2.1,-3.1c0,-.2,0,-.6,.1,-.7h3.9c.3,0,.4,0,.4,-.3c0,-1.5,-.9,-2.2,-2.5,-2.2c-.4,0,-.9,.1,-1.3,.3c-1.1,.5,-2,1.5,-2,3.1c0,1.9,1.3,3.3,3.2,3.2c1.4,0,1.7,-.5,2.5,-1.2l-.1,-.2c-.5,.5,-1.2,1.1,-2.1,1.1Z" class="g0_297"/>
<path d="M605.2,189.5c0,-.4,-.4,-.7,-.8,-.7c-.2,0,-.4,.1,-.6,.1c-.7,.3,-1.2,.9,-1.5,1.5h-.1l-.1,-1.4l-2.1,.4v.2c.2,0,.5,.1,.6,.2c.3,.3,.4,.5,.4,1c0,.3,0,.7,0,1.3v1.6c0,.3,0,.6,0,.8c-.1,.6,-.4,.6,-1,.6v.2h3.2v-.2c-.3,0,-.4,0,-.6,-.1c-.4,-.2,-.4,-.7,-.4,-1.4v-.9c0,-1.1,.1,-2.1,.6,-2.7c.2,-.3,.5,-.5,.7,-.5c.6,0,.6,.6,1,.6c.4,0,.7,-.2,.7,-.6Z" class="g0_297"/>
<path d="M607.4,195.4c1.1,0,1.7,-.6,2.1,-1.3c0,.8,.3,1.3,1.1,1.3c.6,0,1.1,-.2,1.3,-.6l-.1,-.2c-.1,.2,-.4,.4,-.7,.4c-.3,0,-.5,-.4,-.5,-1.3v-3c0,-1.5,-.7,-1.9,-2.2,-1.9c-1.3,0,-2.5,.7,-2.5,1.2c0,.4,.2,.6,.6,.6c.4,0,.6,-.2,.7,-.5c.1,-.3,.1,-.5,.3,-.7c.1,-.1,.4,-.3,.7,-.3c1.3,0,1.2,.7,1.2,1.6v.5l-1.7,.8c-.6,.3,-1.1,.5,-1.5,.9c-.2,.3,-.4,.6,-.4,1.1c0,.9,.7,1.4,1.6,1.4Zm-.4,-1.6c0,-.5,.2,-.9,.5,-1.1c.5,-.5,1.1,-.8,1.9,-1.2v1.6c0,.6,-.1,1,-.4,1.4c-.2,.3,-.7,.5,-1.1,.5c-.6,0,-.9,-.7,-.9,-1.2Z" class="g0_297"/>
<path d="M614.5,190h-.1l-.1,-1.2l-1.9,.5v.2c.1,0,.4,.1,.6,.2c.3,.3,.4,.5,.4,2v2c0,.4,0,.6,-.1,.8c0,.5,-.4,.6,-.9,.6v.2h3.1v-.2c-.2,0,-.4,0,-.5,0c-.6,-.2,-.5,-.7,-.5,-1.4v-2.1c0,-.6,0,-.9,.2,-1.3c.3,-.5,1.1,-1.1,1.9,-1.1c1.2,0,1.2,1.4,1.2,2.7v1.8c0,.4,0,.6,0,.8c-.1,.5,-.4,.6,-1,.6v.2h3.1v-.2c-.2,0,-.4,0,-.5,0c-.5,-.2,-.5,-.8,-.5,-1.4v-2.3c0,-.9,0,-1.4,-.3,-1.9c-.4,-.4,-1,-.7,-1.7,-.7c-1.1,0,-1.9,.6,-2.4,1.2Z" class="g0_297"/>
<path d="M626.9,189.8c.2,0,.4,-.1,.4,-.4c0,-.4,-.2,-.6,-.7,-.6c-.2,0,-.4,.1,-.6,.2c-.2,.1,-.5,.2,-.7,.4c-.5,-.3,-1.1,-.6,-1.8,-.6c-.7,0,-1.4,.3,-1.7,.6c-.4,.4,-.7,.8,-.7,1.5c0,.8,.3,1.3,.7,1.6c.2,.2,.3,.3,.5,.3v.1c-.6,.1,-1.2,.5,-1.2,1.1c0,1.2,1.2,1.1,2.3,1.3c.2,0,.4,0,.6,.1c.2,0,.4,0,.6,.1c.6,.1,1.1,.5,1.1,1.1c0,.9,-.7,1.6,-2,1.6c-1.3,0,-2,-.5,-2,-1.4c0,-.3,0,-.5,.2,-.7c.1,-.2,.3,-.3,.5,-.3c-.2,-.2,-.5,-.3,-.7,-.3c-.2,0,-.3,.1,-.5,.1c-.3,.2,-.6,.6,-.6,1.1c0,.7,.4,1.1,.8,1.3c.6,.3,1.3,.4,2.2,.4c1.7,0,3.1,-.5,3.1,-2c0,-1.2,-.8,-1.9,-1.9,-2c-.5,-.1,-.9,-.2,-1.4,-.2c-.5,-.1,-1.4,0,-1.4,-.5c0,-.2,.1,-.3,.3,-.3c.2,-.1,.5,-.2,1,-.3c1.5,-.1,2.5,-.7,2.5,-2.2c0,-.4,-.2,-.9,-.4,-1.3c.2,-.1,.4,-.3,.6,-.3c.6,0,.4,.5,.9,.5Zm-4.5,1.2c0,-.9,.2,-1.9,1.1,-1.9c.9,0,1.1,1,1.1,1.9c0,.9,-.2,1.9,-1.1,1.9c-1,0,-1.1,-1.1,-1.1,-1.9Z" class="g0_297"/>
<path d="M632.4,190.7c0,0,0,.1,-.1,.2c0,.1,-.4,.1,-.7,.1h-2.2c.2,-1.1,.6,-1.9,1.7,-1.9c1,0,1.3,.8,1.3,1.6Zm-1,4.4c-1.4,0,-2.1,-1.6,-2.1,-3.1c0,-.2,0,-.6,.1,-.7h3.9c.3,0,.4,0,.4,-.3c0,-1.5,-.9,-2.2,-2.5,-2.2c-.5,0,-.9,.1,-1.3,.3c-1.1,.5,-2,1.5,-2,3.1c0,1.9,1.2,3.3,3.2,3.2c1.3,0,1.7,-.5,2.5,-1.2l-.1,-.2c-.5,.5,-1.2,1.1,-2.1,1.1Z" class="g0_297"/>
<path d="M643.2,184.6c-2.1,1.4,-3.6,3.8,-3.6,6.9c0,2.7,1.6,5.5,3.6,6.8l.2,-.2c-2,-1.6,-2.5,-3.4,-2.5,-6.7c0,-3.3,.6,-5,2.5,-6.5l-.2,-.3Z" class="g0_297"/>
<path d="M648.5,186.1c0,-.4,-.3,-.8,-.7,-.8c-.4,0,-.8,.4,-.8,.8c0,.4,.4,.8,.8,.8c.3,0,.7,-.4,.7,-.8Zm-2.8,9.3c1.3,0,2,-1.1,2.4,-1.9l-.3,-.2c-.2,.4,-.7,1.5,-1.3,1.5c-.2,0,-.4,-.3,-.4,-.4c0,-.3,.2,-.9,.3,-1.1l1,-2.8c.2,-.4,.2,-.6,.2,-.9c0,-.4,0,-.8,-.5,-.8c-.9,0,-2,1.1,-2.4,1.9l.3,.1c.2,-.3,.8,-1.1,1.1,-1.1c.3,0,.3,.2,.3,.3c0,.3,-.1,.7,-.2,.9l-1,2.9c-.1,.3,-.2,.6,-.2,.8c0,.6,.2,.8,.7,.8Z" class="g0_297"/>
<path d="M651.1,194.5c0,.4,.3,.8,.7,.8c.1,0,.3,0,.4,-.1c0,.4,-.1,.7,-.3,1c-.2,.3,-.6,.7,-1,1l.3,.4c.3,-.2,.6,-.4,.8,-.6c.5,-.5,1,-1,1,-2c0,-.9,-.4,-1.3,-1,-1.3c-.5,0,-.9,.3,-.9,.8Z" class="g0_297"/>
<path d="M661.7,186.1c0,-.4,-.4,-.8,-.8,-.8c-.4,0,-.8,.4,-.8,.8c0,.4,.4,.8,.8,.8c.4,0,.8,-.4,.8,-.8Zm-2.9,9.3c1.4,0,2.1,-1.1,2.4,-1.9l-.2,-.2c-.2,.4,-.8,1.5,-1.4,1.5c-.2,0,-.3,-.3,-.3,-.4c0,-.3,.2,-.9,.3,-1.1l.9,-2.8c.2,-.4,.2,-.6,.2,-.9c0,-.4,0,-.8,-.5,-.8c-.9,0,-2,1.1,-2.3,1.9l.2,.1c.2,-.3,.8,-1.1,1.2,-1.1c.2,0,.2,.2,.2,.3c.1,.3,-.1,.7,-.2,.9l-1,2.9c-.1,.3,-.1,.6,-.1,.8c0,.6,.1,.8,.6,.8Z" class="g0_297"/>
<path d="M669.7,191h-3.2v1h3.2v3.3h1V192H674v-1h-3.3v-3.2h-1V191Z" class="g0_297"/>
<path d="M679.7,185.6v.2c.5,0,1.1,.1,1.3,.2c.5,.2,.5,.4,.5,1v6.5c0,.3,0,.6,-.1,.8c-.1,.7,-.9,.7,-1.6,.8v.2h4.7v-.2c-.5,0,-1.3,-.1,-1.5,-.3c-.2,-.3,-.2,-.8,-.2,-1.4v-8.6c-.8,.4,-2.1,.8,-3.1,.8Z" class="g0_297"/>
<path d="M686.7,184.6l-.2,.3c2,1.5,2.6,3.2,2.6,6.5c0,3.3,-.6,5.1,-2.6,6.7l.2,.2c2.1,-1.3,3.7,-4.1,3.7,-6.8c0,-3.1,-1.6,-5.5,-3.7,-6.9Z" class="g0_297"/>
<path d="M697.9,191.1c.5,0,.9,-.4,.9,-.9c0,-.5,-.4,-.9,-.9,-.9c-.5,0,-.9,.4,-.9,.9c0,.5,.4,.9,.9,.9Zm0,4.3c.5,0,.9,-.4,.9,-.8c0,-.5,-.4,-.9,-.9,-.9c-.5,0,-.9,.4,-.9,.9c0,.4,.4,.8,.9,.8Z" class="g0_297"/>
<path d="M199.7,238.1v.2h4.6l.1,-.2c-.6,0,-1,-.2,-1.2,-.4c-.3,-.1,-.4,-.4,-.4,-.7c0,-.2,0,-.4,.1,-.7l.9,-3.3h1.1c1,0,1,1.2,.9,2.2h.3l1,-4.2h-.3c-.4,.8,-.8,1.6,-2,1.6h-.9l1.1,-4.3h1.7c.3,0,.6,0,.8,0c.8,.4,1.5,1.3,1.6,2.3h.4v-2.7h-7.4v.3c.5,0,.8,.1,1,.2c.2,.2,.3,.4,.3,.7c0,.1,0,.2,-.1,.4c0,.2,0,.4,-.1,.6l-1.6,6.2c-.1,.3,-.2,.6,-.3,.8c-.2,.4,-.5,.7,-.8,.8c-.2,.1,-.5,.2,-.8,.2Z" class="g0_297"/>
<path d="M215.5,227.6c-2.1,1.4,-3.6,3.8,-3.6,6.8c0,2.8,1.5,5.6,3.6,6.9l.2,-.3c-2,-1.5,-2.6,-3.3,-2.6,-6.6c0,-3.3,.6,-5,2.6,-6.5l-.2,-.3Z" class="g0_297"/>
<path d="M223.9,232.7c0,-.5,-.4,-.9,-1,-.9c-.3,0,-.6,.1,-.9,.3c-.4,.3,-.7,.6,-.9,.9c0,-.6,-.4,-1.2,-1,-1.2c-1.2,0,-2.1,1.2,-2.5,2l.2,.1c.4,-.5,1.1,-1.7,2,-1.7c.3,0,.4,.5,.4,.9c0,.3,-.1,.7,-.2,1.2l-.4,1.2c-.1,.6,-.4,1.3,-.7,1.7c-.1,.3,-.4,.7,-.8,.7c-.4,0,-.7,-.1,-.6,-.5c.1,-.3,0,-.7,-.4,-.7c-.5,0,-.6,.3,-.6,.8c0,.5,.4,.9,1,.9c1,0,1.8,-.8,2.2,-1.5v.1c.1,.8,.5,1.4,1.3,1.4c1.2,0,2,-1.2,2.5,-1.8l-.2,-.2c-.5,.6,-1.2,1.6,-2,1.6c-.4,0,-.6,-.6,-.6,-1.2c0,-.3,0,-.8,.1,-1.3l.2,-.8c.1,-.5,.4,-1.2,.6,-1.6c.2,-.3,.6,-.9,1,-.9c.4,0,.4,.3,.3,.6c0,.4,.2,.6,.5,.6c.4,0,.5,-.3,.5,-.7Z" class="g0_297"/>
<path d="M226.1,237.5c0,.4,.3,.8,.7,.8c.2,0,.3,-.1,.4,-.1c0,.4,-.1,.7,-.3,1c-.2,.3,-.5,.6,-1,1l.3,.4c.3,-.2,.6,-.5,.8,-.7c.6,-.5,1,-1,1,-1.9c0,-.9,-.3,-1.4,-1,-1.4c-.5,0,-.9,.4,-.9,.9Z" class="g0_297"/>
<path d="M231.5,240.4c0,.6,.5,1,1.1,1c.5,0,.8,-.2,1.3,-.6c.8,-.7,2.1,-2.2,2.8,-3.4c.4,-.6,.8,-1.3,1.1,-1.8c.4,-.8,1.1,-2.1,1.1,-2.9c0,-.3,-.1,-.5,-.2,-.7c0,-.2,-.2,-.2,-.4,-.2c-.2,0,-.3,.1,-.5,.2c-.1,.1,-.2,.3,-.2,.6c0,.5,.3,1,.3,1.4c0,.6,-.3,1.1,-.5,1.5c-.2,.5,-.5,.9,-.8,1.5h-.1l-.3,-2c-.1,-.5,-.3,-1.6,-.4,-2c-.2,-.7,-.4,-1.2,-1.4,-1.2c-1.1,0,-1.3,1.8,-1.6,2.5l.3,.1c.2,-.5,.6,-2.3,1.1,-2.3c.3,0,.5,1.1,.5,1.3c.1,.3,.2,.7,.3,1.4l.6,3.5c-.4,.8,-1.2,1.6,-1.8,2.1c-.2,.2,-.6,.3,-.7,.3c-.1,0,-.2,-.1,-.3,-.2c-.2,-.2,-.2,-.7,-.6,-.7c-.4,0,-.7,.3,-.7,.6Z" class="g0_297"/>
<path d="M240.2,227.6l-.1,.3c1.9,1.5,2.5,3.2,2.5,6.5c0,3.3,-.5,5.1,-2.5,6.6l.2,.3c2,-1.3,3.6,-4.1,3.6,-6.9c0,-3,-1.5,-5.4,-3.7,-6.8Z" class="g0_297"/>
<path d="M250.1,236.4h7.6v-.9h-7.6Zm0,-3h7.6v-.9h-7.6Z" class="g0_297"/>
<path d="M268.3,214c1.2,0,.9,1.9,.3,3.2c-.3,.8,-1.2,2.7,-2.4,2.7c-.4,0,-.7,-.3,-.7,-.9c0,-.8,.3,-1.8,.5,-2.4c.3,-.6,.8,-1.6,1.2,-2c.2,-.3,.6,-.6,1.1,-.6Zm-2.3,6.3c1.7,0,2.9,-1.5,3.5,-2.6c.3,-.7,.6,-1.5,.6,-2.3c0,-1,-.5,-1.7,-1.5,-1.7c-.9,0,-1.6,.5,-2,1.1l1.5,-5.6l-2.1,.1v.2c.6,0,.9,.3,.9,.6c0,.2,-.2,.6,-.2,.8l-1.6,5.6c-.2,.6,-.3,1,-.4,1.4c-.1,.4,-.1,.7,-.1,.9c0,.8,.6,1.5,1.4,1.5Z" class="g0_297"/>
<path d="M274.4,224.4h-.9c-.3,0,-.5,-.2,-.5,-.6v-8.1c0,-.4,.1,-.5,.5,-.5h.9v-.3h-2.2v9.8h2.2v-.3Z" class="g0_297"/>
<path d="M278.5,215.9c0,-.3,-.3,-.6,-.6,-.6c-.3,0,-.5,.3,-.5,.6c0,.3,.2,.5,.5,.5c.3,0,.6,-.3,.6,-.5Zm-2.1,6.8c1,0,1.5,-.9,1.8,-1.5l-.2,-.1c-.2,.3,-.6,1.1,-1,1.1c-.1,0,-.3,-.2,-.3,-.3c0,-.2,.2,-.6,.2,-.8l.8,-2c.1,-.3,.1,-.5,.1,-.7c0,-.3,0,-.6,-.4,-.6c-.6,0,-1.5,.9,-1.7,1.4l.2,.1c.2,-.2,.6,-.8,.8,-.8c.2,0,.2,.1,.2,.2c.1,.2,0,.5,-.1,.7l-.7,2c-.1,.3,-.2,.5,-.2,.7c0,.4,.2,.6,.5,.6Z" class="g0_297"/>
<path d="M280.3,222c0,.3,.2,.6,.6,.6c.1,0,.2,0,.2,-.1c0,.3,0,.5,-.2,.8c-.1,.2,-.4,.4,-.7,.7l.2,.3c.2,-.2,.5,-.4,.6,-.5c.4,-.4,.7,-.7,.7,-1.4c0,-.7,-.2,-1,-.7,-1c-.4,0,-.7,.2,-.7,.6Z" class="g0_297"/>
<path d="M282.8,224.2c0,.4,.4,.7,.8,.7c.5,0,.9,-.4,1.2,-.7c.3,-.3,.6,-.8,.7,-1.3l.7,-2.7c.2,-.4,.3,-.8,.3,-1.1c.1,-.3,.2,-.6,.2,-.8c0,-.2,-.2,-.5,-.5,-.5c-.6,0,-1.4,.9,-1.6,1.4l.2,.1c.1,-.2,.5,-.8,.8,-.8c.1,0,.2,.1,.2,.3c0,.3,-.1,.5,-.2,.9l-1,3.9c-.1,.3,-.3,1,-.7,1c-.1,0,-.1,-.1,-.2,-.2c-.1,-.2,0,-.7,-.5,-.7c-.3,0,-.4,.2,-.4,.5Zm4.3,-8.3c0,-.3,-.3,-.6,-.6,-.6c-.3,0,-.5,.3,-.5,.6c0,.3,.2,.5,.5,.5c.3,0,.6,-.2,.6,-.5Z" class="g0_297"/>
<path d="M288.7,224.4v.3h2.2v-9.8h-2.2v.3h.9c.3,0,.5,.2,.5,.5v8.2c0,.4,-.1,.5,-.5,.5h-.9Z" class="g0_297"/>
<path d="M316.8,207.2v.1c.3,0,.8,.1,.9,.2c.3,.1,.3,.2,.3,.7V213c0,.2,0,.4,0,.5c-.1,.5,-.7,.6,-1.2,.6v.2h3.4v-.2c-.3,0,-.9,0,-1,-.2c-.2,-.2,-.2,-.6,-.2,-1v-6.3c-.6,.3,-1.5,.6,-2.2,.6Z" class="g0_297"/>
<path d="M295.1,216.7h46.5v-.8H295.1Z" class="g0_297"/>
<path d="M300.2,217.9c-2.1,1.4,-3.6,3.8,-3.6,6.9c0,2.7,1.5,5.5,3.6,6.8l.2,-.3c-2,-1.5,-2.6,-3.3,-2.6,-6.6c0,-3.3,.6,-5,2.6,-6.5l-.2,-.3Z" class="g0_297"/>
<path d="M304.8,223.7c0,.4,-.1,1.1,-.3,1.5c-.1,.4,-.5,1.3,-.7,1.6c-.2,.3,-.6,.6,-.9,.6c-.4,0,-.6,-.3,-.6,-.7c0,-.4,.1,-1.3,.3,-1.7c.2,-.6,.9,-1.9,1.7,-1.9c.3,0,.5,.2,.5,.6Zm.1,4c.4,0,.6,-.2,.8,-.4c.3,-.3,.5,-.7,.7,-1.3l-.2,-.1c-.2,.4,-.5,1.4,-.9,1.4c-.3,0,-.3,-.4,-.3,-.6c0,-.1,0,-.2,0,-.3c.1,-.5,.2,-.9,.3,-1.4c.1,-.3,.2,-.7,.3,-1.2l1.1,-4.2h-1.6v.1c.3,.1,.4,.1,.5,.2c.1,0,.2,.2,.2,.3c0,.2,-.1,.4,-.1,.6l-.7,2.5c-.2,-.3,-.3,-.5,-.8,-.5c-.7,0,-1.4,.7,-1.8,1.2c-.2,.2,-.3,.5,-.4,.7c-.3,.4,-.5,1,-.5,1.6c0,.4,.1,.7,.3,1c.2,.2,.4,.4,.8,.4c1,-.1,1.4,-.7,1.7,-1.2c0,0,0,.1,0,.2c0,0,0,.1,0,.2c0,.4,.2,.8,.6,.8Z" class="g0_297"/>
<path d="M310.5,226.4c0,-.3,-.2,-.5,-.5,-.5c-.2,0,-.4,.1,-.6,.2c-.1,.1,-.3,.3,-.4,.5c0,-.4,-.3,-.7,-.6,-.7c-.6,0,-1.2,.7,-1.4,1.1l.2,.1c.2,-.3,.6,-1,1.1,-1c.1,0,.2,.3,.2,.5c0,.2,-.1,.4,-.2,.7l-.1,.6c-.1,.4,-.3,.8,-.4,1c-.1,.2,-.3,.4,-.5,.4c-.2,0,-.4,-.1,-.3,-.3c0,-.2,0,-.4,-.2,-.4c-.3,0,-.4,.2,-.4,.4c0,.3,.3,.5,.6,.5c.6,0,1,-.4,1.2,-.8c0,.5,.3,.8,.7,.8c.7,0,1.1,-.6,1.4,-1l-.1,-.1c-.3,.4,-.7,.9,-1.1,.9c-.3,0,-.4,-.3,-.4,-.6c0,-.2,0,-.5,.1,-.8l.1,-.4c.1,-.3,.2,-.6,.4,-.9c.1,-.1,.3,-.5,.5,-.5c.2,0,.2,.2,.2,.4c0,.2,0,.3,.2,.3c.2,0,.3,-.2,.3,-.4Z" class="g0_297"/>
<path d="M313.2,229.4c-1.1,0,-1.1,-1.5,-1.1,-2.7c0,-1.2,0,-2.8,1.1,-2.8c1.1,0,1.1,1.6,1.1,2.8c0,1.2,-.1,2.7,-1.1,2.7Zm0,-5.7c-1.4,0,-1.9,1.5,-1.9,3c0,1.4,.5,2.8,1.9,2.8c1.4,0,1.9,-1.4,1.9,-2.8c0,-1.5,-.5,-3,-1.9,-3Z" class="g0_297"/>
<path d="M319.6,223.7c0,.4,-.1,1.1,-.2,1.5c-.2,.4,-.5,1.3,-.8,1.6c-.2,.3,-.5,.6,-.9,.6c-.4,0,-.6,-.3,-.6,-.7c0,-.4,.1,-1.3,.3,-1.7c.3,-.6,.9,-1.9,1.8,-1.9c.3,0,.4,.2,.4,.6Zm.2,4c.3,0,.5,-.2,.8,-.4c.2,-.3,.4,-.7,.6,-1.3l-.2,-.1c-.1,.4,-.5,1.4,-.9,1.4c-.2,0,-.3,-.4,-.3,-.6c0,-.1,0,-.2,0,-.3c.1,-.5,.2,-.9,.3,-1.4c.1,-.3,.2,-.7,.3,-1.2l1.2,-4.2h-1.7v.1c.3,.1,.4,.1,.5,.2c.1,0,.2,.2,.2,.3c0,.2,0,.4,-.1,.6l-.7,2.5c-.1,-.3,-.3,-.5,-.7,-.5c-.7,0,-1.4,.7,-1.8,1.2c-.2,.2,-.4,.5,-.5,.7c-.3,.4,-.5,1,-.5,1.6c0,.4,.2,.7,.4,1c.1,.2,.4,.4,.7,.4c1,-.1,1.4,-.7,1.7,-1.2h.1c0,0,0,.1,-.1,.2c0,0,0,.1,0,.2c0,.4,.2,.8,.7,.8Z" class="g0_297"/>
<path d="M320.8,230.7c0,.3,.3,.5,.6,.5c.3,0,.5,-.1,.7,-.3c.5,-.4,1.2,-1.3,1.6,-1.9c.2,-.4,.4,-.7,.5,-1c.3,-.4,.7,-1.2,.7,-1.6c0,-.1,-.1,-.2,-.1,-.4c-.1,-.1,-.2,-.1,-.3,-.1q-.1,0,-.2,.1c-.1,.1,-.1,.2,-.1,.4c0,.2,.1,.5,.1,.7c0,.3,-.1,.6,-.3,.9c-.1,.2,-.2,.5,-.4,.8h-.1l-.1,-1.1c-.1,-.3,-.2,-.9,-.3,-1.1c-.1,-.4,-.1,-.7,-.7,-.7c-.6,0,-.7,1,-.9,1.4l.2,.1c.1,-.3,.3,-1.3,.6,-1.3c.1,0,.2,.6,.3,.7c0,.2,.1,.4,.1,.7l.3,2c-.1,.4,-.6,.9,-.9,1.2c-.2,.1,-.3,.1,-.4,.1q-.1,0,-.2,-.1c-.1,-.1,-.1,-.4,-.3,-.4c-.3,0,-.4,.2,-.4,.4Z" class="g0_297"/>
<path d="M327.6,229.4c-1.1,0,-1.1,-1.5,-1.1,-2.7c0,-1.2,0,-2.8,1.1,-2.8c1,0,1,1.6,1,2.8c0,1.2,0,2.7,-1,2.7Zm0,-5.7c-1.5,0,-1.9,1.5,-1.9,3c0,1.4,.5,2.8,1.9,2.8c1.4,0,1.8,-1.4,1.8,-2.8c0,-1.5,-.4,-3,-1.8,-3Z" class="g0_297"/>
<path d="M331.2,217.9l-.1,.3c1.9,1.5,2.5,3.2,2.5,6.5c0,3.3,-.6,5.1,-2.5,6.6l.1,.3c2.1,-1.3,3.7,-4.1,3.7,-6.8c0,-3.1,-1.6,-5.5,-3.7,-6.9Z" class="g0_297"/>
<path d="M339,221.3c.8,0,1.1,-.7,1.3,-1.1l-.1,-.1c-.2,.3,-.5,.8,-.7,.8c-.2,0,-.2,-.2,-.2,-.3c0,0,.1,-.2,.1,-.4c.1,-.2,.2,-.4,.3,-.7c.1,-.5,.2,-1,.2,-1.3c0,-.4,-.1,-.6,-.5,-.6c-.6,0,-1,.5,-1.4,1.1c.1,-.2,.1,-.3,.1,-.5c0,-.4,-.1,-.6,-.4,-.6c-.8,0,-1,.7,-1.2,1.4h.2c.1,-.3,.4,-1.2,.8,-1.2c0,0,.1,.1,.1,.2c0,.2,0,.5,-.1,.6c-.1,.4,-.2,.7,-.3,1.1l-.5,1.5h.5l.5,-1.4c.2,-.5,.5,-1.1,.8,-1.4c.1,-.3,.5,-.6,.7,-.6c.1,0,.2,.1,.2,.3c0,0,0,.1,0,.2c-.1,.2,-.1,.5,-.2,.7c-.2,.6,-.3,1,-.4,1.5c-.1,.1,-.1,.2,-.1,.2c0,.3,.1,.6,.3,.6Z" class="g0_297"/>
<path d="M350.4,215.9h-3.2v1h3.2v3.2h1v-3.2h3.3v-1h-3.3v-3.3h-1v3.3Z" class="g0_297"/>
<path d="M362.5,214c1.2,0,.9,1.9,.3,3.2c-.3,.8,-1.3,2.7,-2.4,2.7c-.5,0,-.7,-.3,-.7,-.9c0,-.8,.3,-1.8,.5,-2.4c.3,-.6,.8,-1.6,1.2,-2c.2,-.3,.6,-.6,1.1,-.6Zm-2.3,6.3c1.7,0,2.9,-1.5,3.5,-2.6c.3,-.7,.6,-1.5,.6,-2.3c0,-1,-.5,-1.7,-1.5,-1.7c-.9,0,-1.6,.5,-2,1.1l1.5,-5.6l-2.1,.1v.2c.6,0,.9,.3,.9,.6c0,.2,-.2,.6,-.2,.8l-1.6,5.6c-.2,.6,-.3,1,-.4,1.4c-.1,.4,-.1,.7,-.1,.9c0,.8,.5,1.5,1.4,1.5Z" class="g0_297"/>
<path d="M368.6,224.4h-.9c-.4,0,-.5,-.2,-.5,-.6v-8.1c0,-.4,.1,-.5,.5,-.5h.9v-.3h-2.3v9.8h2.3v-.3Z" class="g0_297"/>
<path d="M372.7,215.9c0,-.3,-.3,-.6,-.6,-.6c-.3,0,-.5,.3,-.5,.6c0,.3,.2,.5,.5,.5c.3,0,.6,-.3,.6,-.5Zm-2.1,6.8c1,0,1.5,-.9,1.8,-1.5l-.2,-.1c-.2,.3,-.6,1.1,-1,1.1c-.1,0,-.3,-.2,-.3,-.3c0,-.2,.2,-.6,.2,-.8l.7,-2c.2,-.3,.2,-.5,.2,-.7c0,-.3,0,-.6,-.4,-.6c-.7,0,-1.5,.9,-1.7,1.4l.2,.1c.2,-.2,.6,-.8,.8,-.8c.2,0,.2,.1,.2,.2c0,.2,-.1,.5,-.1,.7l-.8,2c0,.3,-.1,.5,-.1,.7c0,.4,.1,.6,.5,.6Z" class="g0_297"/>
<path d="M376.1,219.5h-2.3v.7h2.3v2.4h.8v-2.4h2.3v-.7h-2.3v-2.4h-.8v2.4Z" class="g0_297"/>
<path d="M381,215.5v.1c.3,0,.8,.1,1,.2c.3,.1,.3,.3,.3,.7v4.8c0,.2,0,.4,0,.5c-.1,.5,-.7,.6,-1.2,.6v.2h3.4v-.2c-.4,0,-.9,0,-1.1,-.2c-.1,-.2,-.1,-.6,-.1,-1v-6.3c-.6,.3,-1.6,.6,-2.3,.6Z" class="g0_297"/>
<path d="M386.8,222c0,.3,.2,.6,.5,.6c.1,0,.2,0,.3,-.1c0,.3,-.1,.5,-.2,.8c-.2,.2,-.5,.4,-.8,.7l.2,.3c.3,-.2,.5,-.4,.6,-.5c.4,-.4,.7,-.7,.7,-1.4c0,-.7,-.2,-1,-.7,-1c-.3,0,-.6,.2,-.6,.6Z" class="g0_297"/>
<path d="M389.2,224.2c0,.4,.4,.7,.8,.7c.5,0,.9,-.4,1.2,-.7c.3,-.3,.6,-.8,.7,-1.3l.8,-2.7c.1,-.4,.2,-.8,.3,-1.1c0,-.3,.1,-.6,.1,-.8c0,-.2,-.1,-.5,-.4,-.5c-.6,0,-1.5,.9,-1.7,1.4l.2,.1c.1,-.2,.5,-.8,.8,-.8c.1,0,.2,.1,.2,.3c0,.3,-.1,.5,-.1,.9l-1.1,3.9c-.1,.3,-.3,1,-.7,1c0,0,-.1,-.1,-.1,-.2c-.2,-.2,-.1,-.7,-.6,-.7c-.3,0,-.4,.2,-.4,.5Zm4.3,-8.3c0,-.3,-.2,-.6,-.5,-.6c-.4,0,-.6,.3,-.6,.6c0,.3,.3,.5,.6,.5c.2,0,.5,-.2,.5,-.5Z" class="g0_297"/>
<path d="M395.1,224.4v.3h2.3v-9.8h-2.3v.3h.9c.4,0,.5,.2,.5,.5v8.2c0,.4,-.1,.5,-.4,.5h-1Z" class="g0_297"/>
<path d="M423.2,207.2v.1c.3,0,.8,.1,.9,.2c.4,.1,.3,.2,.4,.7V213c0,.2,0,.4,-.1,.5c0,.5,-.6,.6,-1.2,.6v.2h3.5v-.2c-.4,0,-1,0,-1.1,-.2c-.2,-.2,-.2,-.6,-.2,-1v-6.3c-.6,.3,-1.5,.6,-2.2,.6Z" class="g0_297"/>
<path d="M401.5,216.7h46.6v-.8H401.5Z" class="g0_297"/>
<path d="M406.7,217.9c-2.2,1.4,-3.7,3.8,-3.7,6.9c0,2.7,1.6,5.5,3.6,6.8l.2,-.3c-2,-1.5,-2.5,-3.3,-2.5,-6.6c0,-3.3,.6,-5,2.5,-6.5l-.1,-.3Z" class="g0_297"/>
<path d="M411.2,223.7c0,.4,-.1,1.1,-.2,1.5c-.2,.4,-.5,1.3,-.8,1.6c-.2,.3,-.6,.6,-.9,.6c-.4,0,-.6,-.3,-.6,-.7c0,-.4,.1,-1.3,.3,-1.7c.3,-.6,.9,-1.9,1.7,-1.9c.3,0,.5,.2,.5,.6Zm.2,4c.3,0,.5,-.2,.8,-.4c.2,-.3,.4,-.7,.6,-1.3l-.2,-.1c-.2,.4,-.5,1.4,-.9,1.4c-.2,0,-.3,-.4,-.3,-.6c0,-.1,0,-.2,0,-.3c.1,-.5,.2,-.9,.3,-1.4c.1,-.3,.2,-.7,.3,-1.2l1.2,-4.2h-1.7v.1c.3,.1,.4,.1,.5,.2c.1,0,.2,.2,.2,.3c0,.2,0,.4,-.1,.6l-.7,2.5c-.2,-.3,-.3,-.5,-.7,-.5c-.8,0,-1.4,.7,-1.8,1.2c-.2,.2,-.4,.5,-.5,.7c-.3,.4,-.5,1,-.5,1.6c0,.4,.2,.7,.3,1c.2,.2,.5,.4,.8,.4c1,-.1,1.4,-.7,1.7,-1.2h.1c-.1,0,-.1,.1,-.1,.2c0,0,0,.1,0,.2c0,.4,.2,.8,.7,.8Z" class="g0_297"/>
<path d="M416.9,226.4c0,-.3,-.2,-.5,-.5,-.5c-.2,0,-.4,.1,-.5,.2c-.2,.1,-.4,.3,-.5,.5c0,-.4,-.2,-.7,-.6,-.7c-.6,0,-1.1,.7,-1.3,1.1l.1,.1c.2,-.3,.6,-1,1.1,-1c.1,0,.2,.3,.2,.5c0,.2,0,.4,-.1,.7l-.2,.6c-.1,.4,-.2,.8,-.4,1c-.1,.2,-.2,.4,-.4,.4c-.3,0,-.4,-.1,-.4,-.3c.1,-.2,0,-.4,-.2,-.4c-.3,0,-.4,.2,-.4,.4c0,.3,.3,.5,.6,.5c.6,0,1,-.4,1.2,-.8c.1,.5,.3,.8,.7,.8c.7,0,1.2,-.6,1.4,-1l-.1,-.1c-.3,.4,-.7,.9,-1.1,.9c-.2,0,-.4,-.3,-.4,-.6c0,-.2,.1,-.5,.1,-.8l.1,-.4c.1,-.3,.2,-.6,.4,-.9c.1,-.1,.3,-.5,.5,-.5c.2,0,.2,.2,.2,.4c0,.2,.1,.3,.3,.3c.2,0,.2,-.2,.2,-.4Z" class="g0_297"/>
<path d="M419.6,229.4c-1,0,-1,-1.5,-1,-2.7c0,-1.2,0,-2.8,1,-2.8c1.1,0,1.1,1.6,1.1,2.8c0,1.2,0,2.7,-1.1,2.7Zm0,-5.7c-1.4,0,-1.8,1.5,-1.8,3c0,1.4,.4,2.8,1.8,2.8c1.4,0,1.9,-1.4,1.9,-2.8c0,-1.5,-.4,-3,-1.9,-3Z" class="g0_297"/>
<path d="M426.1,223.7c0,.4,-.2,1.1,-.3,1.5c-.1,.4,-.5,1.3,-.8,1.6c-.2,.3,-.5,.6,-.9,.6c-.3,0,-.5,-.3,-.5,-.7c0,-.4,.1,-1.3,.2,-1.7c.3,-.6,.9,-1.9,1.8,-1.9c.3,0,.5,.2,.5,.6Zm.1,4c.3,0,.6,-.2,.8,-.4c.2,-.3,.5,-.7,.7,-1.3l-.3,-.1c-.1,.4,-.5,1.4,-.9,1.4c-.2,0,-.3,-.4,-.3,-.6c0,-.1,0,-.2,.1,-.3c0,-.5,.1,-.9,.3,-1.4c0,-.3,.1,-.7,.3,-1.2l1.1,-4.2h-1.6l-.1,.1c.3,.1,.4,.1,.5,.2c.2,0,.3,.2,.3,.3c0,.2,-.1,.4,-.2,.6l-.6,2.5c-.2,-.3,-.4,-.5,-.8,-.5c-.7,0,-1.4,.7,-1.8,1.2c-.2,.2,-.3,.5,-.5,.7c-.2,.4,-.4,1,-.4,1.6c0,.4,.1,.7,.3,1c.1,.2,.4,.4,.7,.4c1,-.1,1.4,-.7,1.8,-1.2c0,0,0,.1,0,.2c0,0,-.1,.1,-.1,.2c0,.4,.3,.8,.7,.8Z" class="g0_297"/>
<path d="M427.2,230.7c0,.3,.3,.5,.6,.5c.3,0,.5,-.1,.8,-.3c.4,-.4,1.1,-1.3,1.5,-1.9c.2,-.4,.4,-.7,.6,-1c.2,-.4,.6,-1.2,.6,-1.6c0,-.1,0,-.2,-.1,-.4c0,-.1,-.1,-.1,-.2,-.1c-.1,0,-.2,0,-.3,.1c-.1,.1,-.1,.2,-.1,.4c0,.2,.1,.5,.1,.7c0,.3,-.1,.6,-.2,.9c-.2,.2,-.3,.5,-.5,.8l-.2,-1.1c-.1,-.3,-.2,-.9,-.2,-1.1c-.1,-.4,-.2,-.7,-.8,-.7c-.6,0,-.7,1,-.8,1.4l.1,.1c.1,-.3,.3,-1.3,.6,-1.3c.2,0,.3,.6,.3,.7c0,.2,.1,.4,.1,.7l.4,2c-.2,.4,-.7,.9,-1,1.2c-.1,.1,-.3,.1,-.4,.1q-.1,0,-.1,-.1c-.2,-.1,-.2,-.4,-.4,-.4c-.2,0,-.4,.2,-.4,.4Z" class="g0_297"/>
<path d="M432.8,224.1v.1c.2,0,.6,.1,.7,.1c.3,.2,.2,.3,.3,.6v3.6c0,.2,0,.3,-.1,.4c0,.4,-.5,.4,-.9,.5v.1h2.6v-.1c-.3,-.1,-.7,-.1,-.8,-.2c-.1,-.2,-.1,-.5,-.1,-.8v-4.7c-.5,.2,-1.2,.4,-1.7,.4Z" class="g0_297"/>
<path d="M437.6,217.9l-.1,.3c1.9,1.5,2.5,3.2,2.5,6.5c0,3.3,-.6,5.1,-2.5,6.6l.2,.3c2,-1.3,3.6,-4.1,3.6,-6.8c0,-3.1,-1.5,-5.5,-3.7,-6.9Z" class="g0_297"/>
<path d="M445.5,221.3c.7,0,1,-.7,1.3,-1.1l-.2,-.1c-.2,.3,-.5,.8,-.7,.8c-.1,0,-.1,-.2,-.1,-.3c0,0,0,-.2,.1,-.4c0,-.2,.1,-.4,.2,-.7c.1,-.5,.3,-1,.3,-1.3c0,-.4,-.2,-.6,-.5,-.6c-.7,0,-1.1,.5,-1.4,1.1h-.1c.1,-.2,.1,-.3,.1,-.5c0,-.4,0,-.6,-.4,-.6c-.7,0,-.9,.7,-1.1,1.4h.1c.1,-.3,.4,-1.2,.8,-1.2c.1,0,.1,.1,.1,.2c0,.2,0,.5,-.1,.6c-.1,.4,-.1,.7,-.3,1.1l-.5,1.5h.6l.4,-1.4c.2,-.5,.5,-1.1,.8,-1.4c.2,-.3,.5,-.6,.8,-.6c.1,0,.1,.1,.1,.3c0,0,0,.1,0,.2c0,.2,-.1,.5,-.2,.7c-.1,.6,-.2,1,-.4,1.5c0,.1,0,.2,0,.2c0,.3,0,.6,.3,.6Z" class="g0_297"/>
<path d="M456.9,215.9h-3.3v1h3.3v3.2h.9v-3.2h3.3v-1h-3.3v-3.3h-.9v3.3Z" class="g0_297"/>
<path d="M468.9,214c1.2,0,.9,1.9,.3,3.2c-.3,.8,-1.2,2.7,-2.4,2.7c-.4,0,-.6,-.3,-.6,-.9c0,-.8,.2,-1.8,.5,-2.4c.2,-.6,.7,-1.6,1.1,-2c.2,-.3,.6,-.6,1.1,-.6Zm-2.3,6.3c1.7,0,2.9,-1.5,3.5,-2.6c.3,-.7,.6,-1.5,.6,-2.3c0,-1,-.5,-1.7,-1.5,-1.7c-.9,0,-1.6,.5,-2,1.1l1.5,-5.6l-2,.1l-.1,.2c.6,0,.9,.3,.9,.6c0,.2,-.1,.6,-.2,.8l-1.6,5.6c-.2,.6,-.3,1,-.4,1.4c0,.4,-.1,.7,-.1,.9c0,.8,.6,1.5,1.4,1.5Z" class="g0_297"/>
<path d="M475.1,224.4h-1c-.3,0,-.5,-.2,-.5,-.6v-8.1c0,-.4,.1,-.5,.5,-.5h1v-.3h-2.3v9.8h2.3v-.3Z" class="g0_297"/>
<path d="M479.1,215.9c0,-.3,-.3,-.6,-.6,-.6c-.3,0,-.5,.3,-.5,.6c0,.3,.3,.5,.5,.5c.3,0,.6,-.3,.6,-.5Zm-2.1,6.8c1,0,1.5,-.9,1.8,-1.5l-.2,-.1c-.2,.3,-.6,1.1,-1,1.1c-.1,0,-.2,-.2,-.2,-.3c0,-.2,.1,-.6,.2,-.8l.7,-2c.1,-.3,.1,-.5,.1,-.7c0,-.3,0,-.6,-.3,-.6c-.7,0,-1.5,.9,-1.8,1.4l.2,.1c.2,-.2,.6,-.8,.8,-.8c.2,0,.2,.1,.2,.2c.1,.2,0,.5,-.1,.7l-.7,2c-.1,.3,-.2,.5,-.2,.7c0,.4,.2,.6,.5,.6Z" class="g0_297"/>
<path d="M482.6,219.5h-2.4v.7h2.4v2.4h.7v-2.4h2.4v-.7h-2.4v-2.4h-.7v2.4Z" class="g0_297"/>
<path d="M487.4,215.5v.1c.4,0,.8,.1,1,.2c.3,.1,.3,.3,.3,.7v4.8c0,.2,0,.4,0,.5c-.1,.5,-.7,.6,-1.2,.6v.2h3.4v-.2c-.3,0,-.9,0,-1,-.2c-.2,-.2,-.2,-.6,-.2,-1v-6.3c-.6,.3,-1.6,.6,-2.3,.6Z" class="g0_297"/>
<path d="M493.2,222c0,.3,.2,.6,.5,.6c.1,0,.2,0,.3,-.1c0,.3,-.1,.5,-.2,.8c-.2,.2,-.4,.4,-.8,.7l.3,.3c.2,-.2,.4,-.4,.6,-.5c.3,-.4,.7,-.7,.7,-1.4c0,-.7,-.3,-1,-.7,-1c-.4,0,-.7,.2,-.7,.6Z" class="g0_297"/>
<path d="M495.6,224.2c0,.4,.4,.7,.9,.7c.5,0,.8,-.4,1.1,-.7c.3,-.3,.6,-.8,.8,-1.3l.7,-2.7c.1,-.4,.2,-.8,.3,-1.1c.1,-.3,.1,-.6,.1,-.8c0,-.2,-.1,-.5,-.4,-.5c-.6,0,-1.4,.9,-1.7,1.4l.2,.1c.2,-.2,.5,-.8,.9,-.8c.1,0,.1,.1,.1,.3c0,.3,0,.5,-.1,.9l-1.1,3.9c-.1,.3,-.3,1,-.6,1c-.1,0,-.2,-.1,-.2,-.2c-.2,-.2,0,-.7,-.6,-.7c-.2,0,-.4,.2,-.4,.5Zm4.3,-8.3c0,-.3,-.2,-.6,-.5,-.6c-.3,0,-.6,.3,-.6,.6c0,.3,.3,.5,.6,.5c.2,0,.5,-.2,.5,-.5Z" class="g0_297"/>
<path d="M503.2,219.5h-2.4v.7h2.4v2.4h.7v-2.4h2.4v-.7h-2.4v-2.4h-.7v2.4Z" class="g0_297"/>
<path d="M508.1,215.5v.1c.3,0,.8,.1,.9,.2c.3,.1,.3,.3,.3,.7v4.8c0,.2,0,.4,0,.5c-.1,.5,-.6,.6,-1.2,.6v.2h3.4v-.2c-.3,0,-.9,0,-1,-.2c-.2,-.2,-.2,-.6,-.2,-1v-6.3c-.6,.3,-1.5,.6,-2.2,.6Z" class="g0_297"/>
<path d="M513.7,224.4v.3H516v-9.8h-2.3v.3h1c.3,0,.5,.2,.5,.5v8.2c0,.4,-.1,.5,-.5,.5h-1Z" class="g0_297"/>
<path d="M541.8,207.2v.1c.4,0,.8,.1,1,.2c.3,.1,.3,.2,.3,.7V213c0,.2,0,.4,0,.5c-.1,.5,-.7,.6,-1.2,.6v.2h3.4v-.2c-.3,0,-.9,0,-1,-.2c-.2,-.2,-.2,-.6,-.2,-1v-6.3c-.6,.3,-1.6,.6,-2.3,.6Z" class="g0_297"/>
<path d="M520.2,216.7h46.5v-.8H520.2Z" class="g0_297"/>
<path d="M525.3,217.9c-2.1,1.4,-3.6,3.8,-3.6,6.9c0,2.7,1.5,5.5,3.6,6.8l.2,-.3c-2,-1.5,-2.6,-3.3,-2.6,-6.6c0,-3.3,.6,-5,2.6,-6.5l-.2,-.3Z" class="g0_297"/>
<path d="M529.9,223.7c0,.4,-.1,1.1,-.3,1.5c-.1,.4,-.5,1.3,-.7,1.6c-.2,.3,-.6,.6,-.9,.6c-.4,0,-.6,-.3,-.6,-.7c0,-.4,.1,-1.3,.3,-1.7c.2,-.6,.9,-1.9,1.7,-1.9c.3,0,.5,.2,.5,.6Zm.1,4c.3,0,.6,-.2,.8,-.4c.3,-.3,.5,-.7,.7,-1.3l-.2,-.1c-.2,.4,-.6,1.4,-1,1.4c-.2,0,-.2,-.4,-.2,-.6c0,-.1,0,-.2,0,-.3c.1,-.5,.2,-.9,.3,-1.4c.1,-.3,.2,-.7,.3,-1.2l1.1,-4.2h-1.6l-.1,.1c.4,.1,.5,.1,.6,.2c.1,0,.2,.2,.2,.3c0,.2,-.1,.4,-.1,.6l-.7,2.5c-.2,-.3,-.3,-.5,-.8,-.5c-.7,0,-1.4,.7,-1.8,1.2c-.2,.2,-.3,.5,-.5,.7c-.2,.4,-.4,1,-.4,1.6c0,.4,.1,.7,.3,1c.2,.2,.4,.4,.8,.4c1,-.1,1.4,-.7,1.7,-1.2c0,0,0,.1,0,.2c0,0,0,.1,0,.2c0,.4,.2,.8,.6,.8Z" class="g0_297"/>
<path d="M535.6,226.4c0,-.3,-.2,-.5,-.5,-.5c-.2,0,-.4,.1,-.6,.2c-.1,.1,-.3,.3,-.4,.5c0,-.4,-.3,-.7,-.6,-.7c-.6,0,-1.2,.7,-1.4,1.1l.2,.1c.2,-.3,.6,-1,1,-1c.2,0,.3,.3,.3,.5c0,.2,-.1,.4,-.2,.7l-.1,.6c-.1,.4,-.3,.8,-.4,1c-.1,.2,-.3,.4,-.5,.4c-.2,0,-.4,-.1,-.3,-.3c0,-.2,0,-.4,-.2,-.4c-.3,0,-.4,.2,-.4,.4c0,.3,.3,.5,.6,.5c.5,0,1,-.4,1.2,-.8c0,.5,.3,.8,.7,.8c.7,0,1.1,-.6,1.4,-1l-.1,-.1c-.3,.4,-.7,.9,-1.1,.9c-.3,0,-.4,-.3,-.4,-.6c0,-.2,0,-.5,.1,-.8l.1,-.4c.1,-.3,.2,-.6,.4,-.9c.1,-.1,.3,-.5,.5,-.5c.2,0,.2,.2,.2,.4c0,.2,0,.3,.2,.3c.2,0,.3,-.2,.3,-.4Z" class="g0_297"/>
<path d="M537.1,224.1v.1c.2,0,.6,.1,.7,.1c.2,.2,.2,.3,.2,.6v3.6c0,.2,0,.3,0,.4c0,.4,-.5,.4,-.9,.5v.1h2.6v-.1c-.3,-.1,-.7,-.1,-.8,-.2c-.1,-.2,-.1,-.5,-.1,-.8v-4.7c-.5,.2,-1.2,.4,-1.7,.4Z" class="g0_297"/>
<path d="M544.7,223.7c0,.4,-.1,1.1,-.2,1.5c-.2,.4,-.5,1.3,-.8,1.6c-.2,.3,-.5,.6,-.9,.6c-.4,0,-.6,-.3,-.6,-.7c0,-.4,.1,-1.3,.3,-1.7c.3,-.6,.9,-1.9,1.7,-1.9c.4,0,.5,.2,.5,.6Zm.2,4c.3,0,.5,-.2,.8,-.4c.2,-.3,.4,-.7,.6,-1.3l-.2,-.1c-.2,.4,-.5,1.4,-.9,1.4c-.2,0,-.3,-.4,-.3,-.6c0,-.1,0,-.2,0,-.3c.1,-.5,.2,-.9,.3,-1.4c.1,-.3,.2,-.7,.3,-1.2l1.2,-4.2H545v.1c.3,.1,.4,.1,.5,.2c.1,0,.2,.2,.2,.3c0,.2,0,.4,-.1,.6l-.7,2.5c-.2,-.3,-.3,-.5,-.7,-.5c-.8,0,-1.4,.7,-1.8,1.2c-.2,.2,-.4,.5,-.5,.7c-.3,.4,-.5,1,-.5,1.6c0,.4,.2,.7,.4,1c.1,.2,.4,.4,.7,.4c1,-.1,1.4,-.7,1.7,-1.2h.1c-.1,0,-.1,.1,-.1,.2c0,0,0,.1,0,.2c0,.4,.2,.8,.7,.8Z" class="g0_297"/>
<path d="M545.9,230.7c0,.3,.3,.5,.6,.5c.3,0,.5,-.1,.7,-.3c.5,-.4,1.2,-1.3,1.6,-1.9c.2,-.4,.4,-.7,.5,-1c.3,-.4,.7,-1.2,.7,-1.6c0,-.1,-.1,-.2,-.1,-.4c-.1,-.1,-.2,-.1,-.3,-.1q-.1,0,-.2,.1c-.1,.1,-.1,.2,-.1,.4c0,.2,.1,.5,.1,.7c0,.3,-.1,.6,-.3,.9c-.1,.2,-.2,.5,-.4,.8h-.1l-.1,-1.1c-.1,-.3,-.2,-.9,-.3,-1.1c-.1,-.4,-.2,-.7,-.7,-.7c-.6,0,-.7,1,-.9,1.4l.2,.1c.1,-.3,.3,-1.3,.6,-1.3c.1,0,.2,.6,.3,.7c0,.2,0,.4,.1,.7l.3,2c-.2,.4,-.6,.9,-1,1.2c-.1,.1,-.3,.1,-.3,.1q-.1,0,-.2,-.1c-.1,-.1,-.1,-.4,-.3,-.4c-.3,0,-.4,.2,-.4,.4Z" class="g0_297"/>
<path d="M551.5,224.1v.1c.2,0,.6,.1,.7,.1c.2,.2,.2,.3,.2,.6v3.6c0,.2,0,.3,0,.4c-.1,.4,-.5,.4,-.9,.5v.1h2.6v-.1c-.3,-.1,-.7,-.1,-.8,-.2c-.1,-.2,-.2,-.5,-.2,-.8v-4.7c-.4,.2,-1.1,.4,-1.6,.4Z" class="g0_297"/>
<path d="M556.3,217.9l-.2,.3c2,1.5,2.6,3.2,2.6,6.5c0,3.3,-.6,5.1,-2.6,6.6l.2,.3c2.1,-1.3,3.7,-4.1,3.7,-6.8c0,-3.1,-1.6,-5.5,-3.7,-6.9Z" class="g0_297"/>
<path d="M564.1,221.3c.8,0,1.1,-.7,1.3,-1.1l-.1,-.1c-.2,.3,-.5,.8,-.8,.8c-.1,0,-.1,-.2,-.1,-.3c0,0,.1,-.2,.1,-.4c.1,-.2,.2,-.4,.3,-.7c.1,-.5,.2,-1,.2,-1.3c0,-.4,-.1,-.6,-.5,-.6c-.6,0,-1.1,.5,-1.4,1.1c.1,-.2,.1,-.3,.1,-.5c0,-.4,-.1,-.6,-.4,-.6c-.8,0,-1,.7,-1.2,1.4h.2c.1,-.3,.4,-1.2,.8,-1.2c0,0,.1,.1,.1,.2c0,.2,0,.5,-.1,.6c-.1,.4,-.2,.7,-.3,1.1l-.5,1.5h.5l.5,-1.4c.2,-.5,.5,-1.1,.7,-1.4c.2,-.3,.5,-.6,.8,-.6c.1,0,.2,.1,.2,.3c0,0,0,.1,0,.2c-.1,.2,-.1,.5,-.2,.7c-.2,.6,-.3,1,-.4,1.5c-.1,.1,-.1,.2,-.1,.2c0,.3,.1,.6,.3,.6Z" class="g0_297"/>
<path d="M575.5,215.9h-3.2v1h3.2v3.2h1v-3.2h3.3v-1h-3.3v-3.3h-1v3.3Z" class="g0_297"/>
<path d="M587.5,214c1.3,0,.9,1.9,.4,3.2c-.3,.8,-1.3,2.7,-2.4,2.7c-.5,0,-.7,-.3,-.7,-.9c0,-.8,.3,-1.8,.5,-2.4c.3,-.6,.8,-1.6,1.2,-2c.2,-.3,.6,-.6,1,-.6Zm-2.2,6.3c1.7,0,2.9,-1.5,3.5,-2.6c.3,-.7,.6,-1.5,.6,-2.3c0,-1,-.5,-1.7,-1.5,-1.7c-.9,0,-1.6,.5,-2,1.1l1.5,-5.6l-2.1,.1v.2c.6,0,.8,.3,.8,.6c0,.2,-.1,.6,-.1,.8l-1.6,5.6c-.2,.6,-.3,1,-.4,1.4c-.1,.4,-.1,.7,-.1,.9c0,.8,.5,1.5,1.4,1.5Z" class="g0_297"/>
<path d="M593.7,224.4h-.9c-.4,0,-.5,-.2,-.5,-.6v-8.1c0,-.4,.1,-.5,.4,-.5h1v-.3h-2.3v9.8h2.3v-.3Z" class="g0_297"/>
<path d="M597.8,215.9c0,-.3,-.3,-.6,-.6,-.6c-.3,0,-.5,.3,-.5,.6c0,.3,.2,.5,.5,.5c.3,0,.6,-.3,.6,-.5Zm-2.1,6.8c1,0,1.5,-.9,1.7,-1.5l-.1,-.1c-.2,.3,-.6,1.1,-1,1.1c-.2,0,-.3,-.2,-.3,-.3c0,-.2,.2,-.6,.2,-.8l.7,-2c.1,-.3,.2,-.5,.2,-.7c0,-.3,0,-.6,-.4,-.6c-.7,0,-1.5,.9,-1.7,1.4l.2,.1c.1,-.2,.5,-.8,.8,-.8c.2,0,.2,.1,.2,.2c0,.2,-.1,.5,-.1,.7l-.8,2c-.1,.3,-.1,.5,-.1,.7c0,.4,.1,.6,.5,.6Z" class="g0_297"/>
<path d="M599.6,222c0,.3,.2,.6,.5,.6c.1,0,.2,0,.3,-.1c0,.3,0,.5,-.2,.8c-.1,.2,-.4,.4,-.7,.7l.2,.3c.2,-.2,.4,-.4,.6,-.5c.4,-.4,.7,-.7,.7,-1.4c0,-.7,-.2,-1,-.7,-1c-.4,0,-.7,.2,-.7,.6Z" class="g0_297"/>
<path d="M602,224.2c0,.4,.5,.7,.9,.7c.5,0,.9,-.4,1.1,-.7c.4,-.3,.6,-.8,.8,-1.3l.7,-2.7c.1,-.4,.2,-.8,.3,-1.1c.1,-.3,.1,-.6,.1,-.8c0,-.2,-.1,-.5,-.4,-.5c-.6,0,-1.4,.9,-1.7,1.4l.2,.1c.2,-.2,.5,-.8,.9,-.8c.1,0,.2,.1,.2,.3c0,.3,-.1,.5,-.2,.9l-1.1,3.9c0,.3,-.3,1,-.6,1c-.1,0,-.1,-.1,-.2,-.2c-.1,-.2,0,-.7,-.5,-.7c-.3,0,-.5,.2,-.5,.5Zm4.4,-8.3c0,-.3,-.3,-.6,-.6,-.6c-.3,0,-.6,.3,-.6,.6c0,.3,.3,.5,.6,.5c.3,0,.6,-.2,.6,-.5Z" class="g0_297"/>
<path d="M609.6,219.5h-2.4v.7h2.4v2.4h.7v-2.4h2.4v-.7h-2.4v-2.4h-.7v2.4Z" class="g0_297"/>
<path d="M614.5,215.5v.1c.3,0,.8,.1,.9,.2c.4,.1,.4,.3,.4,.7v4.8c0,.2,0,.4,-.1,.5c0,.5,-.6,.6,-1.2,.6v.2H618v-.2c-.4,0,-.9,0,-1.1,-.2c-.2,-.2,-.2,-.6,-.2,-1v-6.3c-.5,.3,-1.5,.6,-2.2,.6Z" class="g0_297"/>
<path d="M620.2,224.4v.3h2.3v-9.8h-2.3v.3h.9c.4,0,.5,.2,.5,.5v8.2c0,.4,-.1,.5,-.4,.5h-1Z" class="g0_297"/>
<path d="M648.3,207.2v.1c.3,0,.8,.1,.9,.2c.4,.1,.3,.2,.4,.7V213c0,.2,0,.4,-.1,.5c0,.5,-.6,.6,-1.2,.6v.2h3.5v-.2c-.4,0,-1,0,-1.1,-.2c-.2,-.2,-.2,-.6,-.2,-1v-6.3c-.6,.3,-1.5,.6,-2.2,.6Z" class="g0_297"/>
<path d="M626.6,216.7h46.6v-.8H626.6Z" class="g0_297"/>
<path d="M631.7,217.9c-2.1,1.4,-3.6,3.8,-3.6,6.9c0,2.7,1.6,5.5,3.6,6.8l.2,-.3c-2,-1.5,-2.5,-3.3,-2.5,-6.6c0,-3.3,.6,-5,2.5,-6.5l-.2,-.3Z" class="g0_297"/>
<path d="M636.3,223.7c0,.4,-.1,1.1,-.2,1.5c-.2,.4,-.5,1.3,-.8,1.6c-.2,.3,-.6,.6,-.9,.6c-.4,0,-.6,-.3,-.6,-.7c0,-.4,.1,-1.3,.3,-1.7c.3,-.6,.9,-1.9,1.7,-1.9c.3,0,.5,.2,.5,.6Zm.2,4c.3,0,.5,-.2,.8,-.4c.2,-.3,.4,-.7,.6,-1.3l-.2,-.1c-.2,.4,-.5,1.4,-.9,1.4c-.2,0,-.3,-.4,-.3,-.6c0,-.1,0,-.2,0,-.3c.1,-.5,.2,-.9,.3,-1.4c.1,-.3,.2,-.7,.3,-1.2l1.2,-4.2h-1.7v.1c.3,.1,.4,.1,.5,.2c.1,0,.2,.2,.2,.3c0,.2,-.1,.4,-.1,.6l-.7,2.5c-.2,-.3,-.3,-.5,-.7,-.5c-.8,0,-1.4,.7,-1.9,1.2c-.1,.2,-.3,.5,-.4,.7c-.3,.4,-.5,1,-.5,1.6c0,.4,.1,.7,.3,1c.2,.2,.5,.4,.8,.4c1,-.1,1.4,-.7,1.7,-1.2h.1c-.1,0,-.1,.1,-.1,.2c0,0,0,.1,0,.2c0,.4,.2,.8,.7,.8Z" class="g0_297"/>
<path d="M642,226.4c0,-.3,-.2,-.5,-.5,-.5c-.2,0,-.4,.1,-.5,.2c-.2,.1,-.4,.3,-.5,.5c0,-.4,-.2,-.7,-.6,-.7c-.6,0,-1.1,.7,-1.3,1.1l.1,.1c.2,-.3,.6,-1,1.1,-1c.1,0,.2,.3,.2,.5c0,.2,0,.4,-.1,.7l-.2,.6c-.1,.4,-.2,.8,-.4,1c-.1,.2,-.2,.4,-.4,.4c-.3,0,-.5,-.1,-.4,-.3c.1,-.2,0,-.4,-.2,-.4c-.3,0,-.4,.2,-.4,.4c0,.3,.3,.5,.6,.5c.6,0,1,-.4,1.2,-.8c.1,.5,.3,.8,.7,.8c.7,0,1.2,-.6,1.4,-1l-.1,-.1c-.3,.4,-.7,.9,-1.1,.9c-.2,0,-.4,-.3,-.4,-.6c0,-.2,.1,-.5,.1,-.8l.1,-.4c.1,-.3,.2,-.6,.4,-.9c.1,-.1,.3,-.5,.5,-.5c.2,0,.2,.2,.2,.4c0,.2,.1,.3,.2,.3c.3,0,.3,-.2,.3,-.4Z" class="g0_297"/>
<path d="M643.5,224.1v.1c.3,0,.6,.1,.7,.1c.3,.2,.3,.3,.3,.6v3.6c0,.2,0,.3,-.1,.4c0,.4,-.4,.4,-.9,.5v.1h2.6v-.1c-.2,-.1,-.7,-.1,-.8,-.2c-.1,-.2,-.1,-.5,-.1,-.8v-4.7c-.4,.2,-1.2,.4,-1.7,.4Z" class="g0_297"/>
<path d="M651.2,223.7c0,.4,-.2,1.1,-.3,1.5c-.1,.4,-.5,1.3,-.8,1.6c-.2,.3,-.5,.6,-.9,.6c-.3,0,-.6,-.3,-.6,-.7c0,-.4,.2,-1.3,.3,-1.7c.3,-.6,.9,-1.9,1.8,-1.9c.3,0,.5,.2,.5,.6Zm.1,4c.3,0,.6,-.2,.8,-.4c.2,-.3,.5,-.7,.7,-1.3l-.3,-.1c-.1,.4,-.5,1.4,-.9,1.4c-.2,0,-.3,-.4,-.3,-.6c0,-.1,0,-.2,.1,-.3c0,-.5,.1,-.9,.2,-1.4c.1,-.3,.2,-.7,.4,-1.2l1.1,-4.2h-1.6l-.1,.1c.3,.1,.4,.1,.5,.2c.2,0,.3,.2,.3,.3c0,.2,-.1,.4,-.2,.6l-.6,2.5c-.2,-.3,-.4,-.5,-.8,-.5c-.7,0,-1.4,.7,-1.8,1.2c-.2,.2,-.3,.5,-.5,.7c-.2,.4,-.4,1,-.4,1.6c0,.4,.1,.7,.3,1c.1,.2,.4,.4,.7,.4c1,-.1,1.4,-.7,1.8,-1.2c0,0,0,.1,0,.2c0,0,-.1,.1,-.1,.2c0,.4,.2,.8,.7,.8Z" class="g0_297"/>
<path d="M652.3,230.7c0,.3,.3,.5,.6,.5c.3,0,.5,-.1,.8,-.3c.4,-.4,1.1,-1.3,1.5,-1.9c.2,-.4,.4,-.7,.6,-1c.2,-.4,.6,-1.2,.6,-1.6c0,-.1,-.1,-.2,-.1,-.4q-.1,-.1,-.3,-.1c0,0,-.1,0,-.2,.1c-.1,.1,-.1,.2,-.1,.4c0,.2,.1,.5,.1,.7c0,.3,-.1,.6,-.2,.9c-.2,.2,-.3,.5,-.5,.8l-.2,-1.1c-.1,-.3,-.2,-.9,-.2,-1.1c-.2,-.4,-.2,-.7,-.8,-.7c-.6,0,-.7,1,-.9,1.4l.2,.1c.1,-.3,.3,-1.3,.6,-1.3c.2,0,.3,.6,.3,.7c0,.2,.1,.4,.1,.7l.4,2c-.2,.4,-.7,.9,-1,1.2c-.1,.1,-.3,.1,-.4,.1q-.1,0,-.1,-.1c-.2,-.1,-.2,-.4,-.4,-.4c-.2,0,-.4,.2,-.4,.4Z" class="g0_297"/>
<path d="M659.1,229.4c-1.1,0,-1.1,-1.5,-1.1,-2.7c0,-1.2,0,-2.8,1.1,-2.8c1.1,0,1.1,1.6,1.1,2.8c0,1.2,-.1,2.7,-1.1,2.7Zm0,-5.7c-1.4,0,-1.9,1.5,-1.9,3c0,1.4,.5,2.8,1.9,2.8c1.4,0,1.8,-1.4,1.8,-2.8c0,-1.5,-.4,-3,-1.8,-3Z" class="g0_297"/>
<path d="M662.7,217.9l-.1,.3c1.9,1.5,2.5,3.2,2.5,6.5c0,3.3,-.6,5.1,-2.5,6.6l.2,.3c2,-1.3,3.6,-4.1,3.6,-6.8c0,-3.1,-1.5,-5.5,-3.7,-6.9Z" class="g0_297"/>
<path d="M670.6,221.3c.7,0,1,-.7,1.2,-1.1l-.1,-.1c-.2,.3,-.5,.8,-.7,.8c-.2,0,-.1,-.2,-.1,-.3c0,0,0,-.2,.1,-.4c0,-.2,.1,-.4,.2,-.7c.1,-.5,.3,-1,.3,-1.3c0,-.4,-.2,-.6,-.5,-.6c-.7,0,-1.1,.5,-1.5,1.1c.1,-.2,.1,-.3,.1,-.5c0,-.4,-.1,-.6,-.4,-.6c-.7,0,-.9,.7,-1.2,1.4h.2c.1,-.3,.4,-1.2,.8,-1.2c.1,0,.1,.1,.1,.2c0,.2,0,.5,-.1,.6c-.1,.4,-.2,.7,-.3,1.1l-.5,1.5h.6l.4,-1.4c.2,-.5,.5,-1.1,.8,-1.4c.1,-.3,.5,-.6,.7,-.6c.2,0,.2,.1,.2,.3c0,0,0,.1,0,.2c0,.2,-.1,.5,-.2,.7c-.2,.6,-.3,1,-.4,1.5c0,.1,-.1,.2,-.1,.2c0,.3,.1,.6,.4,.6Z" class="g0_297"/>
<path d="M264.3,234.9H674.9V234H264.3Z" class="g0_297"/>
<path d="M370.3,237.9v.1c.3,0,.8,.1,.9,.2c.4,.2,.3,.3,.4,.7v4.8c0,.2,-.1,.4,-.1,.5c-.1,.5,-.6,.6,-1.2,.6v.2h3.4v-.2c-.3,0,-.9,0,-1,-.2c-.2,-.2,-.2,-.6,-.2,-1v-6.3c-.6,.3,-1.5,.6,-2.2,.6Z" class="g0_297"/>
<path d="M348.6,247.4h46.5v-.8H348.6Z" class="g0_297"/>
<path d="M353.7,248.6c-2.1,1.4,-3.6,3.9,-3.6,6.9c0,2.7,1.5,5.5,3.6,6.8l.2,-.2c-2,-1.6,-2.6,-3.4,-2.6,-6.7c0,-3.3,.7,-5,2.6,-6.5l-.2,-.3Z" class="g0_297"/>
<path d="M358.3,254.4c0,.5,-.1,1.1,-.2,1.5c-.2,.5,-.5,1.3,-.8,1.7c-.2,.2,-.6,.5,-.9,.5c-.4,0,-.6,-.3,-.6,-.7c0,-.4,.1,-1.3,.3,-1.6c.2,-.7,.9,-2,1.7,-2c.3,0,.5,.3,.5,.6Zm.2,4c.3,0,.5,-.2,.7,-.4c.3,-.3,.5,-.7,.7,-1.3l-.2,-.1c-.2,.4,-.5,1.4,-.9,1.4c-.3,0,-.3,-.3,-.3,-.6c0,-.1,0,-.2,0,-.3c.1,-.5,.2,-.9,.3,-1.4c.1,-.3,.2,-.7,.3,-1.1l1.1,-4.3h-1.6v.2c.3,0,.4,0,.5,.1c.1,.1,.2,.2,.2,.3c0,.2,-.1,.4,-.1,.6l-.7,2.5c-.2,-.3,-.3,-.4,-.8,-.4c-.7,0,-1.4,.6,-1.8,1.1c-.1,.3,-.3,.5,-.4,.7c-.3,.5,-.5,1,-.5,1.6c0,.4,.1,.7,.3,1c.2,.2,.4,.4,.8,.4c1,0,1.4,-.7,1.7,-1.2q0,.1,0,.2q0,.1,0,.2c0,.5,.2,.8,.7,.8Z" class="g0_297"/>
<path d="M364,257.2c0,-.3,-.2,-.6,-.5,-.6c-.2,0,-.4,.1,-.6,.2c-.1,.1,-.3,.3,-.4,.5c0,-.4,-.3,-.7,-.6,-.7c-.6,0,-1.2,.7,-1.3,1.1l.1,.1c.2,-.3,.6,-1,1.1,-1c.1,0,.2,.3,.2,.6c0,.1,-.1,.3,-.1,.6l-.2,.7c-.1,.3,-.3,.7,-.4,.9c-.1,.2,-.3,.4,-.5,.4c-.2,0,-.4,0,-.3,-.3c0,-.1,0,-.4,-.2,-.4c-.3,0,-.4,.2,-.4,.4c0,.4,.3,.6,.6,.6c.6,0,1,-.5,1.2,-.8c.1,.4,.3,.8,.7,.8c.7,0,1.1,-.7,1.4,-1l-.1,-.1c-.3,.3,-.7,.9,-1.1,.9c-.3,0,-.4,-.4,-.4,-.7c0,-.2,.1,-.4,.1,-.7l.1,-.4c.1,-.4,.2,-.7,.4,-.9c.1,-.2,.3,-.6,.5,-.6c.2,0,.2,.2,.2,.4c0,.2,.1,.3,.2,.3c.2,0,.3,-.2,.3,-.3Z" class="g0_297"/>
<path d="M366.7,260.1c-1.1,0,-1.1,-1.5,-1.1,-2.7c0,-1.2,0,-2.8,1.1,-2.8c1.1,0,1.1,1.6,1.1,2.8c0,1.2,-.1,2.7,-1.1,2.7Zm0,-5.7c-1.4,0,-1.9,1.5,-1.9,3c0,1.4,.5,2.9,1.9,2.9c1.4,0,1.9,-1.5,1.9,-2.9c0,-1.5,-.5,-3,-1.9,-3Z" class="g0_297"/>
<path d="M373.1,254.4c0,.5,-.1,1.1,-.2,1.5c-.2,.5,-.5,1.3,-.8,1.7c-.2,.2,-.5,.5,-.9,.5c-.4,0,-.6,-.3,-.6,-.7c0,-.4,.1,-1.3,.3,-1.6c.3,-.7,.9,-2,1.8,-2c.3,0,.4,.3,.4,.6Zm.2,4c.3,0,.6,-.2,.8,-.4c.2,-.3,.4,-.7,.6,-1.3l-.2,-.1c-.1,.4,-.5,1.4,-.9,1.4c-.2,0,-.3,-.3,-.3,-.6c0,-.1,0,-.2,0,-.3c.1,-.5,.2,-.9,.3,-1.4c.1,-.3,.2,-.7,.4,-1.1l1.1,-4.3h-1.7v.2c.3,0,.4,0,.5,.1c.1,.1,.2,.2,.2,.3c0,.2,0,.4,-.1,.6l-.7,2.5c-.1,-.3,-.3,-.4,-.7,-.4c-.7,0,-1.4,.6,-1.8,1.1c-.2,.3,-.4,.5,-.5,.7c-.2,.5,-.4,1,-.4,1.6c0,.4,.1,.7,.3,1c.1,.2,.4,.4,.7,.4c1,0,1.4,-.7,1.7,-1.2h.1q0,.1,-.1,.2q0,.1,0,.2c0,.5,.2,.8,.7,.8Z" class="g0_297"/>
<path d="M374.3,261.4c0,.3,.3,.5,.6,.5c.3,0,.5,-.1,.7,-.3c.5,-.4,1.2,-1.2,1.6,-1.9c.2,-.3,.4,-.7,.6,-1c.2,-.4,.6,-1.2,.6,-1.6c0,-.1,-.1,-.2,-.1,-.3c-.1,-.1,-.2,-.2,-.3,-.2c-.1,0,-.1,.1,-.2,.1c-.1,.1,-.1,.2,-.1,.4c0,.2,.1,.5,.1,.7c0,.3,-.1,.6,-.2,.9c-.2,.3,-.3,.5,-.5,.8l-.2,-1.1c-.1,-.3,-.2,-.9,-.3,-1.1c-.1,-.4,-.1,-.7,-.7,-.7c-.6,0,-.7,1,-.9,1.4l.2,.1c.1,-.3,.3,-1.3,.6,-1.3c.1,0,.2,.6,.3,.7c0,.2,.1,.4,.1,.8l.3,1.9c-.1,.4,-.6,.9,-.9,1.2c-.2,.1,-.3,.1,-.4,.1q-.1,0,-.2,-.1c-.1,-.1,-.1,-.4,-.3,-.4c-.3,0,-.4,.2,-.4,.4Z" class="g0_297"/>
<path d="M381.1,260.1c-1.1,0,-1.1,-1.5,-1.1,-2.7c0,-1.2,0,-2.8,1.1,-2.8c1,0,1,1.6,1,2.8c0,1.2,0,2.7,-1,2.7Zm0,-5.7c-1.5,0,-1.9,1.5,-1.9,3c0,1.4,.5,2.9,1.9,2.9c1.4,0,1.8,-1.5,1.8,-2.9c0,-1.5,-.4,-3,-1.8,-3Z" class="g0_297"/>
<path d="M384.7,248.6l-.1,.3c1.9,1.5,2.5,3.2,2.5,6.5c0,3.3,-.6,5.1,-2.5,6.7l.1,.2c2.1,-1.3,3.7,-4.1,3.7,-6.8c0,-3,-1.5,-5.5,-3.7,-6.9Z" class="g0_297"/>
<path d="M392.5,252c.8,0,1.1,-.7,1.3,-1.1l-.1,-.1c-.2,.3,-.5,.8,-.7,.8c-.2,0,-.2,-.2,-.2,-.2c0,-.1,.1,-.3,.1,-.5c.1,-.2,.2,-.4,.3,-.7c.1,-.4,.2,-1,.2,-1.3c0,-.4,-.1,-.5,-.4,-.5c-.7,0,-1.1,.5,-1.5,1c.1,-.2,.1,-.3,.1,-.5c0,-.4,-.1,-.5,-.4,-.5c-.8,0,-1,.7,-1.2,1.3h.2c.1,-.3,.4,-1.2,.8,-1.2c0,0,.1,.1,.1,.2c0,.2,0,.5,-.1,.7c-.1,.3,-.2,.6,-.3,1l-.5,1.5h.6l.4,-1.4c.2,-.4,.5,-1.1,.8,-1.4c.1,-.2,.5,-.6,.7,-.6c.2,0,.2,.1,.2,.3c0,0,0,.1,0,.2c0,.3,-.1,.5,-.2,.7c-.2,.6,-.3,1,-.4,1.6c0,0,-.1,.1,-.1,.2c0,.2,.1,.5,.3,.5Z" class="g0_297"/>
<path d="M403.9,246.6h-3.2v1h3.2v3.3h1v-3.3h3.3v-1h-3.3v-3.3h-1v3.3Z" class="g0_297"/>
<path d="M435.4,237.9v.1c.3,0,.8,.1,1,.2c.3,.2,.3,.3,.3,.7v4.8c0,.2,0,.4,0,.5c-.1,.5,-.7,.6,-1.2,.6v.2h3.4v-.2c-.4,0,-.9,0,-1.1,-.2c-.1,-.2,-.1,-.6,-.1,-1v-6.3c-.6,.3,-1.6,.6,-2.3,.6Z" class="g0_297"/>
<path d="M413.8,247.4h46.5v-.8H413.8Z" class="g0_297"/>
<path d="M418.9,248.6c-2.2,1.4,-3.7,3.9,-3.7,6.9c0,2.7,1.6,5.5,3.7,6.8l.1,-.2c-1.9,-1.6,-2.5,-3.4,-2.5,-6.7c0,-3.3,.6,-5,2.5,-6.5l-.1,-.3Z" class="g0_297"/>
<path d="M423.5,254.4c0,.5,-.2,1.1,-.3,1.5c-.1,.5,-.5,1.3,-.8,1.7c-.2,.2,-.5,.5,-.9,.5c-.3,0,-.5,-.3,-.5,-.7c0,-.4,.1,-1.3,.2,-1.6c.3,-.7,.9,-2,1.8,-2c.3,0,.5,.3,.5,.6Zm.1,4c.3,0,.6,-.2,.8,-.4c.2,-.3,.5,-.7,.7,-1.3l-.3,-.1c-.1,.4,-.5,1.4,-.9,1.4c-.2,0,-.3,-.3,-.3,-.6c0,-.1,0,-.2,.1,-.3c0,-.5,.1,-.9,.3,-1.4c0,-.3,.1,-.7,.3,-1.1l1.1,-4.3h-1.6l-.1,.2c.3,0,.4,0,.5,.1c.2,.1,.3,.2,.3,.3c0,.2,-.1,.4,-.2,.6l-.6,2.5c-.2,-.3,-.3,-.4,-.8,-.4c-.7,0,-1.4,.6,-1.8,1.1c-.2,.3,-.3,.5,-.5,.7c-.2,.5,-.4,1,-.4,1.6c0,.4,.1,.7,.3,1c.2,.2,.4,.4,.7,.4c1,0,1.4,-.7,1.8,-1.2q0,.1,0,.2c0,.1,-.1,.1,-.1,.2c0,.5,.3,.8,.7,.8Z" class="g0_297"/>
<path d="M429.2,257.2c0,-.3,-.3,-.6,-.6,-.6c-.1,0,-.3,.1,-.5,.2c-.2,.1,-.3,.3,-.5,.5c0,-.4,-.2,-.7,-.5,-.7c-.7,0,-1.2,.7,-1.4,1.1l.1,.1c.2,-.3,.6,-1,1.1,-1c.2,0,.2,.3,.2,.6c0,.1,0,.3,-.1,.6l-.2,.7c-.1,.3,-.2,.7,-.4,.9c-.1,.2,-.2,.4,-.4,.4c-.2,0,-.4,0,-.4,-.3c.1,-.1,.1,-.4,-.2,-.4c-.2,0,-.3,.2,-.3,.4c0,.4,.2,.6,.6,.6c.5,0,.9,-.5,1.1,-.8h.1c0,.4,.2,.8,.7,.8c.6,0,1.1,-.7,1.3,-1l-.1,-.1c-.2,.3,-.6,.9,-1.1,.9c-.2,0,-.3,-.4,-.3,-.7c0,-.2,0,-.4,.1,-.7l.1,-.4c0,-.4,.2,-.7,.3,-.9c.1,-.2,.3,-.6,.5,-.6c.3,0,.3,.2,.2,.4c0,.2,.1,.3,.3,.3c.2,0,.3,-.2,.3,-.3Z" class="g0_297"/>
<path d="M431.9,260.1c-1.1,0,-1.1,-1.5,-1.1,-2.7c0,-1.2,0,-2.8,1.1,-2.8c1,0,1,1.6,1,2.8c0,1.2,0,2.7,-1,2.7Zm0,-5.7c-1.5,0,-1.9,1.5,-1.9,3c0,1.4,.5,2.9,1.9,2.9c1.4,0,1.8,-1.5,1.8,-2.9c0,-1.5,-.4,-3,-1.8,-3Z" class="g0_297"/>
<path d="M438.3,254.4c0,.5,-.1,1.1,-.3,1.5c-.1,.5,-.5,1.3,-.7,1.7c-.2,.2,-.6,.5,-.9,.5c-.4,0,-.6,-.3,-.6,-.7c0,-.4,.1,-1.3,.3,-1.6c.2,-.7,.9,-2,1.7,-2c.3,0,.5,.3,.5,.6Zm.1,4c.4,0,.6,-.2,.8,-.4c.3,-.3,.5,-.7,.7,-1.3l-.2,-.1c-.2,.4,-.5,1.4,-.9,1.4c-.3,0,-.3,-.3,-.3,-.6c0,-.1,0,-.2,0,-.3c.1,-.5,.2,-.9,.3,-1.4c.1,-.3,.2,-.7,.3,-1.1l1.1,-4.3h-1.6v.2c.3,0,.4,0,.5,.1c.1,.1,.2,.2,.2,.3c0,.2,-.1,.4,-.1,.6l-.7,2.5c-.2,-.3,-.3,-.4,-.8,-.4c-.7,0,-1.4,.6,-1.8,1.1c-.2,.3,-.3,.5,-.4,.7c-.3,.5,-.5,1,-.5,1.6c0,.4,.1,.7,.3,1c.2,.2,.4,.4,.8,.4c1,0,1.4,-.7,1.7,-1.2q0,.1,0,.2q0,.1,0,.2c0,.5,.2,.8,.6,.8Z" class="g0_297"/>
<path d="M439.5,261.4c0,.3,.2,.5,.6,.5c.2,0,.4,-.1,.7,-.3c.4,-.4,1.1,-1.2,1.5,-1.9c.2,-.3,.4,-.7,.6,-1c.2,-.4,.6,-1.2,.6,-1.6c0,-.1,0,-.2,-.1,-.3c0,-.1,-.1,-.2,-.2,-.2c-.1,0,-.2,.1,-.3,.1c0,.1,-.1,.2,-.1,.4c0,.2,.2,.5,.2,.7c0,.3,-.2,.6,-.3,.9c-.1,.3,-.3,.5,-.4,.8h-.1l-.2,-1.1c0,-.3,-.1,-.9,-.2,-1.1c-.1,-.4,-.2,-.7,-.7,-.7c-.7,0,-.8,1,-.9,1.4l.2,.1c0,-.3,.3,-1.3,.5,-1.3c.2,0,.3,.6,.3,.7c.1,.2,.1,.4,.2,.8l.3,1.9c-.2,.4,-.6,.9,-1,1.2c-.1,.1,-.3,.1,-.4,.1c0,0,-.1,0,-.1,-.1c-.1,-.1,-.1,-.4,-.4,-.4c-.2,0,-.3,.2,-.3,.4Z" class="g0_297"/>
<path d="M445,254.9v.1c.3,0,.6,0,.7,.1c.3,.1,.3,.2,.3,.5v3.6c0,.2,0,.3,0,.4c-.1,.4,-.5,.5,-.9,.5v.1h2.6v-.1c-.3,0,-.7,-.1,-.8,-.2c-.2,-.2,-.2,-.4,-.2,-.7v-4.8c-.4,.3,-1.1,.4,-1.7,.5Z" class="g0_297"/>
<path d="M449.9,248.6l-.2,.3c1.9,1.5,2.5,3.2,2.5,6.5c0,3.3,-.5,5.1,-2.5,6.7l.2,.2c2,-1.3,3.6,-4.1,3.6,-6.8c0,-3,-1.5,-5.5,-3.6,-6.9Z" class="g0_297"/>
<path d="M457.7,252c.7,0,1.1,-.7,1.3,-1.1l-.1,-.1c-.2,.3,-.5,.8,-.8,.8c-.1,0,-.1,-.2,-.1,-.2c0,-.1,0,-.3,.1,-.5c.1,-.2,.1,-.4,.2,-.7c.2,-.4,.3,-1,.3,-1.3c0,-.4,-.1,-.5,-.5,-.5c-.6,0,-1.1,.5,-1.4,1c0,-.2,.1,-.3,.1,-.5c0,-.4,-.1,-.5,-.4,-.5c-.8,0,-1,.7,-1.2,1.3h.2c.1,-.3,.4,-1.2,.7,-1.2c.1,0,.2,.1,.2,.2c0,.2,-.1,.5,-.1,.7c-.1,.3,-.2,.6,-.3,1l-.5,1.5h.5l.5,-1.4c.2,-.4,.4,-1.1,.7,-1.4c.2,-.2,.5,-.6,.8,-.6c.1,0,.2,.1,.2,.3c0,0,0,.1,0,.2c-.1,.3,-.2,.5,-.2,.7c-.2,.6,-.3,1,-.5,1.6c0,0,0,.1,0,.2c0,.2,0,.5,.3,.5Z" class="g0_297"/>
<path d="M469.1,246.6h-3.2v1h3.2v3.3h1v-3.3h3.2v-1h-3.2v-3.3h-1v3.3Z" class="g0_297"/>
<path d="M500.6,237.9v.1c.3,0,.8,.1,.9,.2c.4,.2,.3,.3,.4,.7v4.8c0,.2,0,.4,-.1,.5c0,.5,-.6,.6,-1.2,.6v.2h3.5v-.2c-.4,0,-1,0,-1.1,-.2c-.2,-.2,-.2,-.6,-.2,-1v-6.3c-.6,.3,-1.5,.6,-2.2,.6Z" class="g0_297"/>
<path d="M478.9,247.4h46.6v-.8H478.9Z" class="g0_297"/>
<path d="M484.1,248.6c-2.2,1.4,-3.7,3.9,-3.7,6.9c0,2.7,1.6,5.5,3.6,6.8l.2,-.2c-2,-1.6,-2.5,-3.4,-2.5,-6.7c0,-3.3,.6,-5,2.5,-6.5l-.1,-.3Z" class="g0_297"/>
<path d="M488.6,254.4c0,.5,-.1,1.1,-.2,1.5c-.2,.5,-.5,1.3,-.8,1.7c-.2,.2,-.6,.5,-.9,.5c-.4,0,-.6,-.3,-.6,-.7c0,-.4,.1,-1.3,.3,-1.6c.3,-.7,.9,-2,1.7,-2c.3,0,.5,.3,.5,.6Zm.2,4c.3,0,.5,-.2,.8,-.4c.2,-.3,.4,-.7,.6,-1.3l-.2,-.1c-.2,.4,-.5,1.4,-.9,1.4c-.2,0,-.3,-.3,-.3,-.6c0,-.1,0,-.2,0,-.3c.1,-.5,.2,-.9,.3,-1.4c.1,-.3,.2,-.7,.3,-1.1l1.2,-4.3h-1.7v.2c.3,0,.4,0,.5,.1c.1,.1,.2,.2,.2,.3c0,.2,0,.4,-.1,.6l-.7,2.5c-.2,-.3,-.3,-.4,-.7,-.4c-.8,0,-1.4,.6,-1.8,1.1c-.2,.3,-.4,.5,-.5,.7c-.3,.5,-.5,1,-.5,1.6c0,.4,.2,.7,.3,1c.2,.2,.5,.4,.8,.4c1,0,1.4,-.7,1.7,-1.2h.1q-.1,.1,-.1,.2q0,.1,0,.2c0,.5,.2,.8,.7,.8Z" class="g0_297"/>
<path d="M494.3,257.2c0,-.3,-.2,-.6,-.5,-.6c-.2,0,-.4,.1,-.5,.2c-.2,.1,-.4,.3,-.5,.5c0,-.4,-.2,-.7,-.6,-.7c-.6,0,-1.1,.7,-1.3,1.1l.1,.1c.2,-.3,.6,-1,1.1,-1c.1,0,.2,.3,.2,.6c0,.1,0,.3,-.1,.6l-.2,.7c-.1,.3,-.2,.7,-.4,.9c-.1,.2,-.2,.4,-.4,.4c-.3,0,-.4,0,-.4,-.3c.1,-.1,0,-.4,-.2,-.4c-.3,0,-.4,.2,-.4,.4c0,.4,.3,.6,.6,.6c.6,0,1,-.5,1.2,-.8c.1,.4,.3,.8,.7,.8c.7,0,1.2,-.7,1.4,-1l-.1,-.1c-.3,.3,-.7,.9,-1.1,.9c-.2,0,-.4,-.4,-.4,-.7c0,-.2,.1,-.4,.1,-.7l.1,-.4c.1,-.4,.2,-.7,.4,-.9c.1,-.2,.3,-.6,.5,-.6c.2,0,.2,.2,.2,.4c0,.2,.1,.3,.3,.3c.2,0,.2,-.2,.2,-.3Z" class="g0_297"/>
<path d="M495.8,254.9v.1c.3,0,.6,0,.7,.1c.3,.1,.3,.2,.3,.5v3.6c0,.2,0,.3,-.1,.4c0,.4,-.4,.5,-.8,.5v.1h2.5v-.1c-.2,0,-.7,-.1,-.8,-.2c-.1,-.2,-.1,-.4,-.1,-.7v-4.8c-.4,.3,-1.2,.4,-1.7,.5Z" class="g0_297"/>
<path d="M503.5,254.4c0,.5,-.2,1.1,-.3,1.5c-.1,.5,-.5,1.3,-.8,1.7c-.2,.2,-.5,.5,-.9,.5c-.3,0,-.6,-.3,-.6,-.7c0,-.4,.2,-1.3,.3,-1.6c.3,-.7,.9,-2,1.8,-2c.3,0,.5,.3,.5,.6Zm.1,4c.3,0,.6,-.2,.8,-.4c.2,-.3,.5,-.7,.7,-1.3l-.3,-.1c-.1,.4,-.5,1.4,-.9,1.4c-.2,0,-.3,-.3,-.3,-.6c0,-.1,0,-.2,.1,-.3c0,-.5,.1,-.9,.3,-1.4c0,-.3,.1,-.7,.3,-1.1l1.1,-4.3h-1.6l-.1,.2c.3,0,.4,0,.5,.1c.2,.1,.3,.2,.3,.3c0,.2,-.1,.4,-.2,.6l-.6,2.5c-.2,-.3,-.4,-.4,-.8,-.4c-.7,0,-1.4,.6,-1.8,1.1c-.2,.3,-.3,.5,-.5,.7c-.2,.5,-.4,1,-.4,1.6c0,.4,.1,.7,.3,1c.1,.2,.4,.4,.7,.4c1,0,1.4,-.7,1.8,-1.2q0,.1,0,.2c0,.1,-.1,.1,-.1,.2c0,.5,.3,.8,.7,.8Z" class="g0_297"/>
<path d="M504.6,261.4c0,.3,.3,.5,.6,.5c.3,0,.5,-.1,.8,-.3c.4,-.4,1.1,-1.2,1.5,-1.9c.2,-.3,.4,-.7,.6,-1c.2,-.4,.6,-1.2,.6,-1.6c0,-.1,0,-.2,-.1,-.3c0,-.1,-.1,-.2,-.3,-.2c0,0,-.1,.1,-.2,.1c-.1,.1,-.1,.2,-.1,.4c0,.2,.1,.5,.1,.7c0,.3,-.1,.6,-.2,.9c-.2,.3,-.3,.5,-.5,.8l-.2,-1.1c-.1,-.3,-.2,-.9,-.2,-1.1c-.1,-.4,-.2,-.7,-.8,-.7c-.6,0,-.7,1,-.9,1.4l.2,.1c.1,-.3,.3,-1.3,.6,-1.3c.2,0,.3,.6,.3,.7c0,.2,.1,.4,.1,.8l.4,1.9c-.2,.4,-.7,.9,-1,1.2c-.1,.1,-.3,.1,-.4,.1q-.1,0,-.1,-.1c-.2,-.1,-.2,-.4,-.4,-.4c-.2,0,-.4,.2,-.4,.4Z" class="g0_297"/>
<path d="M510.2,254.9v.1c.2,0,.6,0,.7,.1c.3,.1,.2,.2,.3,.5v3.6c0,.2,0,.3,-.1,.4c0,.4,-.5,.5,-.9,.5v.1h2.6v-.1c-.3,0,-.7,-.1,-.8,-.2c-.1,-.2,-.1,-.4,-.1,-.7v-4.8c-.5,.3,-1.2,.4,-1.7,.5Z" class="g0_297"/>
<path d="M515,248.6l-.1,.3c1.9,1.5,2.5,3.2,2.5,6.5c0,3.3,-.6,5.1,-2.5,6.7l.2,.2c2,-1.3,3.6,-4.1,3.6,-6.8c0,-3,-1.5,-5.5,-3.7,-6.9Z" class="g0_297"/>
<path d="M522.9,252c.7,0,1,-.7,1.2,-1.1l-.1,-.1c-.2,.3,-.5,.8,-.7,.8c-.1,0,-.1,-.2,-.1,-.2c0,-.1,0,-.3,.1,-.5c0,-.2,.1,-.4,.2,-.7c.1,-.4,.3,-1,.3,-1.3c0,-.4,-.2,-.5,-.5,-.5c-.7,0,-1.1,.5,-1.4,1h-.1c.1,-.2,.1,-.3,.1,-.5c0,-.4,0,-.5,-.4,-.5c-.7,0,-.9,.7,-1.1,1.3h.1c.1,-.3,.4,-1.2,.8,-1.2c.1,0,.1,.1,.1,.2c0,.2,0,.5,-.1,.7c-.1,.3,-.1,.6,-.3,1l-.5,1.5h.6l.4,-1.4c.2,-.4,.5,-1.1,.8,-1.4c.1,-.2,.5,-.6,.8,-.6c.1,0,.1,.1,.1,.3c0,0,0,.1,0,.2c0,.3,-.1,.5,-.2,.7c-.2,.6,-.2,1,-.4,1.6c0,0,-.1,.1,-.1,.2c0,.2,.1,.5,.4,.5Z" class="g0_297"/>
<path d="M534.3,246.6H531v1h3.3v3.3h.9v-3.3h3.3v-1h-3.3v-3.3h-.9v3.3Z" class="g0_297"/>
<path d="M565.7,237.9v.1c.4,0,.8,.1,1,.2c.3,.2,.3,.3,.3,.7v4.8c0,.2,0,.4,0,.5c-.1,.5,-.7,.6,-1.2,.6v.2h3.4v-.2c-.4,0,-.9,0,-1,-.2c-.2,-.2,-.2,-.6,-.2,-1v-6.3c-.6,.3,-1.6,.6,-2.3,.6Z" class="g0_297"/>
<path d="M544.1,247.4h46.5v-.8H544.1Z" class="g0_297"/>
<path d="M549.2,248.6c-2.1,1.4,-3.7,3.9,-3.7,6.9c0,2.7,1.6,5.5,3.7,6.8l.1,-.2c-1.9,-1.6,-2.5,-3.4,-2.5,-6.7c0,-3.3,.6,-5,2.5,-6.5l-.1,-.3Z" class="g0_297"/>
<path d="M553.8,254.4c0,.5,-.2,1.1,-.3,1.5c-.1,.5,-.5,1.3,-.8,1.7c-.1,.2,-.5,.5,-.8,.5c-.4,0,-.6,-.3,-.6,-.7c0,-.4,.1,-1.3,.2,-1.6c.3,-.7,1,-2,1.8,-2c.3,0,.5,.3,.5,.6Zm.1,4c.3,0,.6,-.2,.8,-.4c.3,-.3,.5,-.7,.7,-1.3l-.3,-.1c-.1,.4,-.5,1.4,-.9,1.4c-.2,0,-.2,-.3,-.2,-.6c0,-.1,0,-.2,0,-.3c0,-.5,.2,-.9,.3,-1.4c.1,-.3,.2,-.7,.3,-1.1l1.1,-4.3h-1.6l-.1,.2c.4,0,.5,0,.6,.1c.1,.1,.2,.2,.2,.3c0,.2,-.1,.4,-.2,.6L554,254c-.2,-.3,-.3,-.4,-.8,-.4c-.7,0,-1.4,.6,-1.8,1.1c-.2,.3,-.3,.5,-.5,.7c-.2,.5,-.4,1,-.4,1.6c0,.4,.1,.7,.3,1c.2,.2,.4,.4,.8,.4c1,0,1.3,-.7,1.7,-1.2q0,.1,0,.2q0,.1,0,.2c0,.5,.2,.8,.6,.8Z" class="g0_297"/>
<path d="M559.5,257.2c0,-.3,-.3,-.6,-.6,-.6c-.1,0,-.3,.1,-.5,.2c-.2,.1,-.3,.3,-.4,.5c0,-.4,-.3,-.7,-.6,-.7c-.6,0,-1.2,.7,-1.4,1.1l.1,.1c.2,-.3,.6,-1,1.1,-1c.2,0,.2,.3,.2,.6c0,.1,0,.3,-.1,.6l-.2,.7c0,.3,-.2,.7,-.3,.9c-.1,.2,-.3,.4,-.5,.4c-.2,0,-.4,0,-.3,-.3c0,-.1,0,-.4,-.3,-.4c-.2,0,-.3,.2,-.3,.4c0,.4,.3,.6,.6,.6c.5,0,.9,-.5,1.2,-.8c0,.4,.2,.8,.7,.8c.6,0,1.1,-.7,1.4,-1l-.2,-.1c-.2,.3,-.6,.9,-1,.9c-.3,0,-.4,-.4,-.4,-.7c0,-.2,0,-.4,.1,-.7l.1,-.4c.1,-.4,.2,-.7,.3,-.9c.1,-.2,.4,-.6,.6,-.6c.2,0,.2,.2,.2,.4c-.1,.2,0,.3,.2,.3c.2,0,.3,-.2,.3,-.3Z" class="g0_297"/>
<path d="M561,254.9v.1c.2,0,.6,0,.7,.1c.2,.1,.2,.2,.2,.5v3.6c0,.2,0,.3,0,.4c0,.4,-.5,.5,-.9,.5v.1h2.6v-.1c-.3,0,-.7,-.1,-.8,-.2c-.1,-.2,-.1,-.4,-.1,-.7v-4.8c-.5,.3,-1.2,.4,-1.7,.5Z" class="g0_297"/>
<path d="M568.6,254.4c0,.5,-.1,1.1,-.2,1.5c-.2,.5,-.5,1.3,-.8,1.7c-.2,.2,-.6,.5,-.9,.5c-.4,0,-.6,-.3,-.6,-.7c0,-.4,.1,-1.3,.3,-1.6c.3,-.7,.9,-2,1.7,-2c.3,0,.5,.3,.5,.6Zm.2,4c.3,0,.5,-.2,.8,-.4c.2,-.3,.4,-.7,.6,-1.3l-.2,-.1c-.2,.4,-.5,1.4,-.9,1.4c-.2,0,-.3,-.3,-.3,-.6c0,-.1,0,-.2,0,-.3c.1,-.5,.2,-.9,.3,-1.4c.1,-.3,.2,-.7,.3,-1.1l1.2,-4.3h-1.7v.2c.3,0,.4,0,.5,.1c.1,.1,.2,.2,.2,.3c0,.2,-.1,.4,-.1,.6l-.7,2.5c-.2,-.3,-.3,-.4,-.7,-.4c-.8,0,-1.4,.6,-1.9,1.1c-.1,.3,-.3,.5,-.4,.7c-.3,.5,-.5,1,-.5,1.6c0,.4,.1,.7,.3,1c.2,.2,.5,.4,.8,.4c1,0,1.4,-.7,1.7,-1.2h.1q-.1,.1,-.1,.2q0,.1,0,.2c0,.5,.2,.8,.7,.8Z" class="g0_297"/>
<path d="M569.8,261.4c0,.3,.3,.5,.6,.5c.2,0,.4,-.1,.7,-.3c.5,-.4,1.2,-1.2,1.6,-1.9c.2,-.3,.4,-.7,.5,-1c.2,-.4,.6,-1.2,.6,-1.6c0,-.1,0,-.2,0,-.3c-.1,-.1,-.2,-.2,-.3,-.2c-.1,0,-.2,.1,-.2,.1c-.1,.1,-.2,.2,-.2,.4c0,.2,.2,.5,.2,.7c0,.3,-.2,.6,-.3,.9c-.1,.3,-.2,.5,-.4,.8h-.1l-.2,-1.1c0,-.3,-.1,-.9,-.2,-1.1c-.1,-.4,-.2,-.7,-.7,-.7c-.6,0,-.8,1,-.9,1.4l.2,.1c0,-.3,.3,-1.3,.6,-1.3c.1,0,.2,.6,.2,.7c.1,.2,.1,.4,.2,.8l.3,1.9c-.2,.4,-.6,.9,-1,1.2c-.1,.1,-.3,.1,-.4,.1l-.1,-.1c-.1,-.1,-.1,-.4,-.4,-.4c-.2,0,-.3,.2,-.3,.4Z" class="g0_297"/>
<path d="M576.6,260.1c-1.1,0,-1.1,-1.5,-1.1,-2.7c0,-1.2,0,-2.8,1.1,-2.8c1,0,1,1.6,1,2.8c0,1.2,0,2.7,-1,2.7Zm0,-5.7c-1.5,0,-1.9,1.5,-1.9,3c0,1.4,.4,2.9,1.9,2.9c1.4,0,1.8,-1.5,1.8,-2.9c0,-1.5,-.4,-3,-1.8,-3Z" class="g0_297"/>
<path d="M580.2,248.6l-.2,.3c2,1.5,2.6,3.2,2.6,6.5c0,3.3,-.6,5.1,-2.6,6.7l.2,.2c2.1,-1.3,3.6,-4.1,3.6,-6.8c0,-3,-1.5,-5.5,-3.6,-6.9Z" class="g0_297"/>
<path d="M588,252c.7,0,1.1,-.7,1.3,-1.1l-.1,-.1c-.2,.3,-.5,.8,-.8,.8c-.1,0,-.1,-.2,-.1,-.2c0,-.1,.1,-.3,.1,-.5c.1,-.2,.2,-.4,.2,-.7c.2,-.4,.3,-1,.3,-1.3c0,-.4,-.1,-.5,-.5,-.5c-.6,0,-1.1,.5,-1.4,1c.1,-.2,.1,-.3,.1,-.5c0,-.4,-.1,-.5,-.4,-.5c-.8,0,-1,.7,-1.2,1.3h.2c.1,-.3,.4,-1.2,.7,-1.2c.1,0,.2,.1,.2,.2c0,.2,-.1,.5,-.1,.7c-.1,.3,-.2,.6,-.3,1l-.5,1.5h.5l.5,-1.4c.2,-.4,.5,-1.1,.7,-1.4c.2,-.2,.5,-.6,.8,-.6c.1,0,.2,.1,.2,.3c0,0,0,.1,0,.2c-.1,.3,-.2,.5,-.2,.7c-.2,.6,-.3,1,-.5,1.6c0,0,0,.1,0,.2c0,.2,.1,.5,.3,.5Z" class="g0_297"/>
<image clip-path="url(#c0_297)" preserveAspectRatio="none" x="156" y="540" width="202" height="201" xlink:href="img/1.jpg"/>
</svg>