<?xml version="1.0" encoding="UTF-8" standalone="no"?>
<!DOCTYPE svg PUBLIC "-//W3C//DTD SVG 1.1//EN"
"http://www.w3.org/Graphics/SVG/1.1/DTD/svg11.dtd">
<svg viewBox="0 0 811 1017" version="1.1" xmlns="http://www.w3.org/2000/svg" xmlns:xlink="http://www.w3.org/1999/xlink">
<defs>
<style type="text/css"><![CDATA[
.g0_202{
fill: #F7F5E8;
}
.g1_202{
fill: #FFF;
}
.g2_202{
fill: #1A78B6;
}
.g3_202{
fill: none;
stroke: #1A78B6;
stroke-width: 0.982;
stroke-linejoin: round;
}
.g4_202{
fill: none;
stroke: #B0B2B1;
stroke-width: 0.785;
stroke-linecap: square;
stroke-linejoin: round;
}
.g5_202{
fill: none;
stroke: #040504;
stroke-width: 0.785;
stroke-linejoin: round;
}
.g6_202{
fill: #040504;
}
.g7_202{
fill: none;
stroke: #1A78B6;
stroke-width: 1.472;
stroke-linecap: square;
stroke-linejoin: round;
}
.g8_202{
fill: none;
stroke: #040504;
stroke-width: 0.785;
stroke-linecap: square;
}
.g9_202{
fill: none;
stroke: #1A78B6;
stroke-width: 1.006;
stroke-linejoin: round;
}
.ga_202{
fill: none;
stroke: #B0B2B1;
stroke-width: 0.805;
stroke-linecap: square;
stroke-linejoin: round;
}
.gb_202{
fill: none;
stroke: #040504;
stroke-width: 0.805;
stroke-linejoin: round;
}
.gc_202{
fill: none;
stroke: #1A78B6;
stroke-width: 1.509;
stroke-linecap: square;
stroke-linejoin: round;
}
.gd_202{
fill: none;
stroke: #040504;
stroke-width: 0.805;
stroke-linecap: square;
}
]]></style>
</defs>
<path d="M142.4,910.1H710.7V807.8H142.4Z" class="g0_202"/>
<path d="M177.4,359.6H528.1V98.2H177.4Z" class="g1_202"/>
<path d="M225.3,113c.8,0,1.5,-.3,2.1,-.8c.5,-.6,.8,-1.3,.8,-2.1c0,-.8,-.3,-1.5,-.8,-2.1c-.6,-.5,-1.3,-.9,-2.1,-.9c-.8,0,-1.6,.4,-2.1,.9c-.6,.6,-.9,1.3,-.9,2.1c0,.8,.3,1.5,.9,2.1c.5,.5,1.3,.8,2.1,.8Z" class="g2_202"/>
<path d="M225.3,113c.8,0,1.5,-.3,2.1,-.8c.5,-.6,.8,-1.3,.8,-2.1c0,-.8,-.3,-1.5,-.8,-2.1c-.6,-.5,-1.3,-.9,-2.1,-.9c-.8,0,-1.6,.4,-2.1,.9c-.6,.6,-.9,1.3,-.9,2.1c0,.8,.3,1.5,.9,2.1c.5,.5,1.3,.8,2.1,.8Z" class="g3_202"/>
<path d="M289.2,237.5c.8,0,1.5,-.3,2.1,-.9c.5,-.5,.8,-1.3,.8,-2.1c0,-.7,-.3,-1.5,-.8,-2c-.6,-.6,-1.3,-.9,-2.1,-.9c-.8,0,-1.6,.3,-2.1,.9c-.6,.5,-.9,1.3,-.9,2c0,.8,.3,1.6,.9,2.1c.5,.6,1.3,.9,2.1,.9Z" class="g2_202"/>
<path d="M289.2,237.5c.8,0,1.5,-.3,2.1,-.9c.5,-.5,.8,-1.3,.8,-2.1c0,-.7,-.3,-1.5,-.8,-2c-.6,-.6,-1.3,-.9,-2.1,-.9c-.8,0,-1.6,.3,-2.1,.9c-.6,.5,-.9,1.3,-.9,2c0,.8,.3,1.6,.9,2.1c.5,.6,1.3,.9,2.1,.9Z" class="g3_202"/>
<path d="M353.1,299.7c.7,0,1.5,-.3,2.1,-.9c.5,-.5,.8,-1.3,.8,-2c0,-.8,-.3,-1.6,-.8,-2.1c-.6,-.6,-1.4,-.9,-2.1,-.9c-.8,0,-1.6,.3,-2.1,.9c-.6,.5,-.9,1.3,-.9,2.1c0,.7,.3,1.5,.9,2c.5,.6,1.3,.9,2.1,.9Z" class="g2_202"/>
<path d="M353.1,299.7c.7,0,1.5,-.3,2.1,-.9c.5,-.5,.8,-1.3,.8,-2c0,-.8,-.3,-1.6,-.8,-2.1c-.6,-.6,-1.4,-.9,-2.1,-.9c-.8,0,-1.6,.3,-2.1,.9c-.6,.5,-.9,1.3,-.9,2.1c0,.7,.3,1.5,.9,2c.5,.6,1.3,.9,2.1,.9Z" class="g3_202"/>
<path d="M417,330.8c.7,0,1.5,-.3,2,-.8c.6,-.6,.9,-1.4,.9,-2.1c0,-.8,-.3,-1.6,-.9,-2.1c-.5,-.6,-1.3,-.9,-2,-.9c-.8,0,-1.6,.3,-2.1,.9c-.6,.5,-.9,1.3,-.9,2.1c0,.7,.3,1.5,.9,2.1c.5,.5,1.3,.8,2.1,.8Z" class="g2_202"/>
<path d="M417,330.8c.7,0,1.5,-.3,2,-.8c.6,-.6,.9,-1.4,.9,-2.1c0,-.8,-.3,-1.6,-.9,-2.1c-.5,-.6,-1.3,-.9,-2,-.9c-.8,0,-1.6,.3,-2.1,.9c-.6,.5,-.9,1.3,-.9,2.1c0,.7,.3,1.5,.9,2.1c.5,.5,1.3,.8,2.1,.8Z" class="g3_202"/>
<path d="M480.9,268.6c.7,0,1.5,-.3,2,-.9c.6,-.5,.9,-1.3,.9,-2.1c0,-.7,-.3,-1.5,-.9,-2c-.5,-.6,-1.3,-.9,-2,-.9c-.8,0,-1.6,.3,-2.1,.9c-.6,.5,-.9,1.3,-.9,2c0,.8,.3,1.6,.9,2.1c.5,.6,1.3,.9,2.1,.9Z" class="g2_202"/>
<path d="M480.9,268.6c.7,0,1.5,-.3,2,-.9c.6,-.5,.9,-1.3,.9,-2.1c0,-.7,-.3,-1.5,-.9,-2c-.5,-.6,-1.3,-.9,-2,-.9c-.8,0,-1.6,.3,-2.1,.9c-.6,.5,-.9,1.3,-.9,2c0,.8,.3,1.6,.9,2.1c.5,.6,1.3,.9,2.1,.9Z" class="g3_202"/>
<path d="M225.3,359.6V98.2" class="g4_202"/>
<path d="M225.3,359.6V363" class="g5_202"/>
<path d="M223.4,373.1h1.5v-5.5l-1.7,.4v-.9l1.7,-.4h1v6.4h1.6v.8h-4.1v-.8Z" class="g6_202"/>
<path d="M289.2,359.6V98.2" class="g4_202"/>
<path d="M289.2,359.6V363" class="g5_202"/>
<path d="M287.9,373.1h3.4v.8h-4.5v-.8c.3,-.4,.8,-.9,1.5,-1.5c.6,-.7,1,-1.1,1.2,-1.3c.3,-.3,.5,-.6,.6,-.9c.1,-.2,.2,-.4,.2,-.7c0,-.4,-.1,-.7,-.4,-.9c-.3,-.3,-.6,-.4,-1,-.4c-.3,0,-.7,.1,-1,.2c-.3,.1,-.7,.3,-1.1,.5v-1c.4,-.2,.8,-.3,1.1,-.4c.3,0,.7,-.1,.9,-.1c.8,0,1.4,.2,1.8,.6c.5,.3,.7,.8,.7,1.5c0,.2,-.1,.5,-.2,.8c-.1,.3,-.3,.6,-.6,.9c-.1,.1,-.3,.4,-.8,.8c-.4,.5,-1,1.1,-1.8,1.9Z" class="g6_202"/>
<path d="M353.1,359.6V98.2" class="g4_202"/>
<path d="M353.1,359.6V363" class="g5_202"/>
<path d="M353.9,370c.5,.1,.9,.3,1.1,.7c.3,.3,.4,.7,.4,1.1c0,.7,-.2,1.3,-.7,1.7c-.5,.3,-1.2,.5,-2.1,.5c-.3,0,-.6,0,-.9,0c-.3,-.1,-.7,-.2,-1,-.3v-.9c.3,.1,.6,.2,.9,.3c.3,.1,.6,.1,1,.1c.6,0,1,-.1,1.4,-.3c.3,-.3,.4,-.6,.4,-1.1c0,-.4,-.1,-.7,-.4,-1c-.3,-.2,-.7,-.3,-1.2,-.3h-.9v-.8h.9c.5,0,.8,-.1,1.1,-.3c.2,-.2,.4,-.5,.4,-.8c0,-.4,-.2,-.7,-.4,-.9c-.3,-.2,-.7,-.3,-1.1,-.3c-.3,0,-.6,.1,-.9,.1c-.3,.1,-.6,.2,-1,.3v-.9c.4,-.1,.7,-.2,1,-.2c.4,-.1,.7,-.1,.9,-.1c.8,0,1.4,.2,1.8,.5c.4,.3,.6,.8,.6,1.4c0,.4,-.1,.7,-.3,1c-.2,.2,-.6,.4,-1,.5Z" class="g6_202"/>
<path d="M417,359.6V98.2" class="g4_202"/>
<path d="M417,359.6V363" class="g5_202"/>
<path d="M417.3,366.7h1.2v4.7h1v.8h-1v1.7h-.9v-1.7h-3.3v-.9l3,-4.6Zm.3,.9l-2.5,3.8h2.5v-3.8Z" class="g6_202"/>
<path d="M480.9,359.6V98.2" class="g4_202"/>
<path d="M480.9,359.6V363" class="g5_202"/>
<path d="M478.8,366.7h3.8v.9h-2.9v1.7c.1,0,.3,-.1,.4,-.1c.1,0,.3,0,.4,0c.8,0,1.5,.2,1.9,.6c.5,.5,.7,1.1,.7,1.8c0,.8,-.2,1.4,-.7,1.8c-.5,.4,-1.1,.6,-2,.6c-.3,0,-.6,0,-.9,0c-.4,-.1,-.7,-.2,-1,-.3v-.9c.3,.1,.6,.2,.9,.3c.3,.1,.6,.1,1,.1c.5,0,1,-.1,1.3,-.4c.3,-.3,.5,-.7,.5,-1.2c0,-.5,-.2,-.9,-.5,-1.2c-.3,-.3,-.8,-.4,-1.3,-.4c-.3,0,-.6,0,-.8,.1c-.3,0,-.5,.1,-.8,.2v-3.6Z" class="g6_202"/>
<path d="M355.2,382l-1.9,2.6l2,2.7h-1l-1.6,-2.1l-1.5,2.1h-1.1l2.1,-2.8L350.3,382h1l1.5,1.9l1.4,-1.9h1Z" class="g6_202"/>
<path d="M177.4,359H528.1" class="g4_202"/>
<path d="M177.4,359h-3.5" class="g5_202"/>
<path d="M155.7,355.6h4.6v.4l-2.6,6.7h-1l2.4,-6.3h-3.4v-.8Z" class="g6_202"/>
<path d="M162.2,362.7h1v-1.2h-1Z" class="g6_202"/>
<path d="M166.1,357.4c0,.3,.1,.6,.3,.8c.2,.2,.6,.3,1,.3c.4,0,.7,-.1,1,-.3c.2,-.2,.3,-.5,.3,-.8c0,-.4,-.1,-.7,-.3,-.9c-.3,-.2,-.6,-.3,-1,-.3c-.4,0,-.8,.1,-1,.3c-.2,.2,-.3,.5,-.3,.9Zm.3,1.5c-.4,-.1,-.7,-.3,-1,-.6c-.2,-.3,-.3,-.6,-.3,-1c0,-.6,.2,-1,.6,-1.4c.4,-.3,1,-.5,1.7,-.5c.7,0,1.3,.2,1.7,.5c.4,.4,.6,.8,.6,1.4c0,.4,-.1,.7,-.4,1c-.2,.3,-.5,.5,-.9,.6c.4,.1,.8,.3,1,.6c.3,.4,.4,.7,.4,1.2c0,.7,-.2,1.2,-.6,1.6c-.4,.4,-1,.5,-1.8,.5c-.8,0,-1.4,-.1,-1.8,-.5c-.5,-.4,-.7,-.9,-.7,-1.6c0,-.5,.2,-.8,.4,-1.2c.3,-.3,.6,-.5,1.1,-.6Zm1,.4c-.5,0,-.8,.1,-1.1,.4c-.3,.2,-.4,.6,-.4,1c0,.4,.1,.8,.4,1c.3,.3,.6,.4,1.1,.4c.4,0,.8,-.1,1.1,-.4c.2,-.2,.4,-.6,.4,-1c0,-.4,-.2,-.8,-.4,-1c-.3,-.3,-.7,-.4,-1.1,-.4Z" class="g6_202"/>
<path d="M177.4,312.3H528.1" class="g4_202"/>
<path d="M177.4,312.3h-3.5" class="g5_202"/>
<path d="M155.7,308.9h4.6v.4l-2.6,6.7h-1l2.4,-6.3h-3.4v-.8Z" class="g6_202"/>
<path d="M162.2,316h1v-1.2h-1Z" class="g6_202"/>
<path d="M167.3,312.9c.4,0,.7,-.2,1,-.5c.3,-.3,.4,-.7,.4,-1.2c0,-.5,-.1,-.9,-.4,-1.2c-.3,-.3,-.6,-.5,-1,-.5c-.5,0,-.8,.2,-1.1,.5c-.2,.3,-.3,.7,-.3,1.2c0,.5,.1,.9,.3,1.2c.3,.3,.6,.5,1.1,.5Zm-2,3V315c.3,.1,.5,.2,.8,.3c.2,0,.5,.1,.7,.1c.6,0,1.1,-.2,1.5,-.7c.3,-.4,.5,-1.1,.6,-1.9c-.2,.2,-.5,.4,-.8,.6c-.2,.1,-.6,.2,-.9,.2c-.7,0,-1.3,-.2,-1.7,-.6c-.4,-.5,-.6,-1.1,-.6,-1.8c0,-.7,.2,-1.3,.6,-1.8c.5,-.4,1,-.6,1.8,-.6c.8,0,1.4,.3,1.9,.9c.4,.6,.6,1.6,.6,2.8c0,1.1,-.3,2,-.8,2.7c-.5,.6,-1.2,1,-2.1,1c-.3,0,-.5,0,-.8,-.1c-.2,0,-.5,-.1,-.8,-.2Z" class="g6_202"/>
<path d="M177.4,265.6H528.1" class="g4_202"/>
<path d="M177.4,265.6h-3.5" class="g5_202"/>
<path d="M156.7,264c0,.4,.1,.7,.3,.9c.3,.2,.6,.3,1,.3c.4,0,.7,-.1,1,-.3c.2,-.2,.3,-.5,.3,-.9c0,-.3,-.1,-.6,-.3,-.8c-.3,-.2,-.6,-.3,-1,-.3c-.4,0,-.7,.1,-1,.3c-.2,.2,-.3,.5,-.3,.8Zm.3,1.6c-.4,-.1,-.7,-.3,-.9,-.6c-.3,-.3,-.4,-.6,-.4,-1.1c0,-.5,.2,-1,.6,-1.3c.4,-.3,1,-.5,1.7,-.5c.7,0,1.3,.2,1.7,.5c.4,.3,.6,.8,.6,1.3c0,.5,-.1,.8,-.4,1.1c-.2,.3,-.5,.5,-.9,.6c.4,.1,.8,.3,1.1,.6c.2,.3,.4,.7,.4,1.2c0,.7,-.2,1.2,-.7,1.6c-.4,.3,-1,.5,-1.8,.5c-.8,0,-1.4,-.2,-1.8,-.5c-.4,-.4,-.6,-.9,-.6,-1.6c0,-.5,.1,-.9,.3,-1.2c.3,-.3,.7,-.5,1.1,-.6Zm1,.4c-.5,0,-.8,.1,-1.1,.3c-.2,.3,-.4,.6,-.4,1.1c0,.4,.2,.7,.4,1c.3,.2,.6,.3,1.1,.3c.5,0,.8,-.1,1.1,-.3c.3,-.3,.4,-.6,.4,-1c0,-.5,-.1,-.8,-.4,-1.1c-.3,-.2,-.6,-.3,-1.1,-.3Z" class="g6_202"/>
<path d="M162.2,269.4h1v-1.2h-1Z" class="g6_202"/>
<path d="M167.4,262.1c.8,0,1.4,.3,1.8,.9c.4,.7,.7,1.6,.7,2.8c0,1.2,-.3,2.1,-.7,2.8c-.4,.6,-1,.9,-1.8,.9c-.8,0,-1.4,-.3,-1.9,-.9c-.4,-.7,-.6,-1.6,-.6,-2.8c0,-1.2,.2,-2.1,.6,-2.8c.5,-.6,1.1,-.9,1.9,-.9Zm0,.8c-.5,0,-.9,.2,-1.1,.7c-.3,.5,-.4,1.2,-.4,2.2c0,1,.1,1.7,.4,2.2c.2,.5,.6,.7,1.1,.7c.5,0,.9,-.2,1.1,-.7c.3,-.5,.4,-1.2,.4,-2.2c0,-1,-.1,-1.7,-.4,-2.2c-.2,-.5,-.6,-.7,-1.1,-.7Z" class="g6_202"/>
<path d="M177.4,219H528.1" class="g4_202"/>
<path d="M177.4,219h-3.5" class="g5_202"/>
<path d="M156.7,217.4c0,.3,.1,.6,.3,.8c.3,.2,.6,.3,1,.3c.4,0,.7,-.1,1,-.3c.2,-.2,.3,-.5,.3,-.8c0,-.4,-.1,-.7,-.3,-.9c-.3,-.2,-.6,-.3,-1,-.3c-.4,0,-.7,.1,-1,.3c-.2,.2,-.3,.5,-.3,.9Zm.3,1.5c-.4,-.1,-.7,-.3,-.9,-.6c-.3,-.3,-.4,-.6,-.4,-1c0,-.6,.2,-1,.6,-1.4c.4,-.3,1,-.5,1.7,-.5c.7,0,1.3,.2,1.7,.5c.4,.4,.6,.8,.6,1.4c0,.4,-.1,.7,-.4,1c-.2,.3,-.5,.5,-.9,.6c.4,.1,.8,.3,1.1,.6c.2,.4,.4,.7,.4,1.2c0,.7,-.2,1.2,-.7,1.6c-.4,.4,-1,.6,-1.8,.6c-.8,0,-1.4,-.2,-1.8,-.6c-.4,-.4,-.6,-.9,-.6,-1.6c0,-.5,.1,-.8,.3,-1.2c.3,-.3,.7,-.5,1.1,-.6Zm1,.4c-.5,0,-.8,.1,-1.1,.4c-.2,.2,-.4,.6,-.4,1c0,.4,.2,.8,.4,1c.3,.3,.6,.4,1.1,.4c.5,0,.8,-.1,1.1,-.4c.3,-.2,.4,-.6,.4,-1c0,-.4,-.1,-.8,-.4,-1c-.3,-.3,-.6,-.4,-1.1,-.4Z" class="g6_202"/>
<path d="M162.2,222.7h1v-1.2h-1Z" class="g6_202"/>
<path d="M165.5,221.9h1.6v-5.5l-1.8,.4v-.9l1.8,-.3h.9v6.3h1.6v.8h-4.1v-.8Z" class="g6_202"/>
<path d="M177.4,172.3H528.1" class="g4_202"/>
<path d="M177.4,172.3h-3.5" class="g5_202"/>
<path d="M156.7,170.7c0,.4,.1,.7,.3,.9c.3,.2,.6,.3,1,.3c.4,0,.7,-.1,1,-.3c.2,-.2,.3,-.5,.3,-.9c0,-.4,-.1,-.7,-.3,-.9c-.3,-.2,-.6,-.3,-1,-.3c-.4,0,-.7,.1,-1,.3c-.2,.2,-.3,.5,-.3,.9Zm.3,1.5c-.4,-.1,-.7,-.3,-.9,-.5c-.3,-.3,-.4,-.7,-.4,-1.1c0,-.6,.2,-1,.6,-1.3c.4,-.4,1,-.5,1.7,-.5c.7,0,1.3,.1,1.7,.5c.4,.3,.6,.7,.6,1.3c0,.4,-.1,.8,-.4,1.1c-.2,.2,-.5,.4,-.9,.5c.4,.1,.8,.4,1.1,.7c.2,.3,.4,.7,.4,1.1c0,.7,-.2,1.3,-.7,1.6c-.4,.4,-1,.6,-1.8,.6c-.8,0,-1.4,-.2,-1.8,-.6c-.4,-.3,-.6,-.9,-.6,-1.6c0,-.4,.1,-.8,.3,-1.1c.3,-.3,.7,-.6,1.1,-.7Zm1,.4c-.5,0,-.8,.2,-1.1,.4c-.2,.3,-.4,.6,-.4,1c0,.5,.2,.8,.4,1c.3,.3,.6,.4,1.1,.4c.5,0,.8,-.1,1.1,-.4c.3,-.2,.4,-.5,.4,-1c0,-.4,-.1,-.7,-.4,-1c-.3,-.2,-.6,-.4,-1.1,-.4Z" class="g6_202"/>
<path d="M162.2,176h1v-1.2h-1Z" class="g6_202"/>
<path d="M166.1,175.2h3.4v.8H165v-.8c.3,-.4,.8,-.9,1.5,-1.5c.6,-.6,1,-1.1,1.2,-1.2c.3,-.4,.5,-.7,.6,-.9c.2,-.3,.2,-.5,.2,-.7c0,-.4,-.1,-.7,-.4,-1c-.3,-.2,-.6,-.3,-1,-.3c-.3,0,-.7,0,-1,.1c-.3,.1,-.7,.3,-1.1,.5v-1c.4,-.1,.8,-.2,1.1,-.3c.4,-.1,.7,-.1,1,-.1c.7,0,1.3,.1,1.7,.5c.5,.4,.7,.9,.7,1.5c0,.3,-.1,.6,-.2,.8c-.1,.3,-.3,.6,-.6,1c-.1,.1,-.3,.3,-.7,.8c-.5,.4,-1.1,1,-1.9,1.8Z" class="g6_202"/>
<path d="M177.4,125.6H528.1" class="g4_202"/>
<path d="M177.4,125.6h-3.5" class="g5_202"/>
<path d="M156.7,124c0,.4,.1,.7,.3,.9c.3,.2,.6,.3,1,.3c.4,0,.7,-.1,1,-.3c.2,-.2,.3,-.5,.3,-.9c0,-.3,-.1,-.6,-.3,-.8c-.3,-.2,-.6,-.3,-1,-.3c-.4,0,-.7,.1,-1,.3c-.2,.2,-.3,.5,-.3,.8Zm.3,1.6c-.4,-.1,-.7,-.3,-.9,-.6c-.3,-.3,-.4,-.6,-.4,-1.1c0,-.5,.2,-1,.6,-1.3c.4,-.3,1,-.5,1.7,-.5c.7,0,1.3,.2,1.7,.5c.4,.3,.6,.8,.6,1.3c0,.5,-.1,.8,-.4,1.1c-.2,.3,-.5,.5,-.9,.6c.4,.1,.8,.3,1.1,.6c.2,.3,.4,.7,.4,1.2c0,.7,-.2,1.2,-.7,1.6c-.4,.3,-1,.5,-1.8,.5c-.8,0,-1.4,-.2,-1.8,-.5c-.4,-.4,-.6,-.9,-.6,-1.6c0,-.5,.1,-.9,.3,-1.2c.3,-.3,.7,-.5,1.1,-.6Zm1,.4c-.5,0,-.8,.1,-1.1,.3c-.2,.3,-.4,.6,-.4,1.1c0,.4,.2,.7,.4,1c.3,.2,.6,.4,1.1,.4c.5,0,.8,-.2,1.1,-.4c.3,-.3,.4,-.6,.4,-1c0,-.5,-.1,-.8,-.4,-1.1c-.3,-.2,-.6,-.3,-1.1,-.3Z" class="g6_202"/>
<path d="M162.2,129.4h1v-1.2h-1Z" class="g6_202"/>
<path d="M168.2,125.5c.5,.1,.9,.3,1.1,.6c.3,.4,.4,.7,.4,1.2c0,.7,-.2,1.3,-.7,1.6c-.5,.4,-1.2,.6,-2.1,.6c-.3,0,-.6,0,-.9,-.1c-.3,0,-.7,-.1,-1,-.2v-1c.3,.2,.6,.3,.9,.4c.3,.1,.6,.1,1,.1c.6,0,1.1,-.1,1.4,-.4c.3,-.2,.5,-.5,.5,-1c0,-.4,-.2,-.8,-.5,-1c-.3,-.2,-.7,-.3,-1.2,-.3h-.9v-.8h.9c.5,0,.9,-.1,1.1,-.3c.3,-.2,.4,-.5,.4,-.9c0,-.3,-.1,-.6,-.4,-.8c-.3,-.2,-.6,-.3,-1.1,-.3c-.3,0,-.6,0,-.9,.1c-.3,.1,-.6,.1,-1,.3v-.9c.4,-.1,.7,-.2,1.1,-.2c.3,-.1,.6,-.1,.9,-.1c.7,0,1.3,.2,1.7,.5c.4,.3,.7,.8,.7,1.3c0,.4,-.2,.8,-.4,1.1c-.2,.2,-.5,.4,-1,.5Z" class="g6_202"/>
<path d="M149.4,228.6c.7,.3,1.1,.5,1.3,.8c.2,.2,.3,.5,.3,.9v.7h-.8v-.5c0,-.2,0,-.4,-.2,-.6c-.1,-.1,-.3,-.2,-.8,-.4l-.4,-.2l-5.3,2.2v-.9l4.2,-1.7l-4.2,-1.7v-.9l5.9,2.3Z" class="g6_202"/>
<path d="M193.3,145.9L512.2,347.7" class="g7_202"/>
<path d="M177.4,359.6V98.2M528.1,359.6V98.2M177.4,359.6H528.1M177.4,98.2H528.1" class="g8_202"/>
<path d="M278.7,83.7H280l3.3,8.6h-1.2l-.8,-2.2h-3.9l-.8,2.2h-1.2l3.3,-8.6Zm.6,1.2l-1.5,4.3h3.1l-1.6,-4.3Z" class="g6_202"/>
<path d="M289.1,89.1c0,-.8,-.1,-1.4,-.5,-1.8c-.3,-.5,-.7,-.7,-1.3,-.7c-.5,0,-1,.2,-1.3,.7c-.3,.4,-.5,1,-.5,1.8c0,.8,.2,1.4,.5,1.8c.3,.5,.8,.7,1.3,.7c.6,0,1,-.2,1.3,-.7c.4,-.4,.5,-1,.5,-1.8Zm-3.6,2.3v3.4h-1.1V85.9h1.1v1c.2,-.4,.5,-.7,.9,-.9c.3,-.2,.7,-.3,1.2,-.3c.8,0,1.4,.3,1.9,1c.5,.6,.7,1.4,.7,2.4c0,1,-.2,1.8,-.7,2.5c-.5,.6,-1.1,.9,-1.9,.9c-.5,0,-.9,-.1,-1.2,-.3c-.4,-.2,-.7,-.5,-.9,-.8Z" class="g6_202"/>
<path d="M296.6,89.1c0,-.8,-.2,-1.4,-.5,-1.8c-.3,-.5,-.7,-.7,-1.3,-.7c-.6,0,-1,.2,-1.3,.7c-.3,.4,-.5,1,-.5,1.8c0,.8,.2,1.4,.5,1.8c.3,.5,.7,.7,1.3,.7c.6,0,1,-.2,1.3,-.7c.3,-.4,.5,-1,.5,-1.8ZM293,91.4v3.4h-1.1V85.9H293v1c.2,-.4,.5,-.7,.8,-.9c.4,-.2,.8,-.3,1.3,-.3c.7,0,1.4,.3,1.9,1c.5,.6,.7,1.4,.7,2.4c0,1,-.2,1.8,-.7,2.5c-.5,.6,-1.2,.9,-1.9,.9c-.5,0,-.9,-.1,-1.3,-.3c-.3,-.2,-.6,-.5,-.8,-.8Z" class="g6_202"/>
<path d="M303.2,86.9c-.1,-.1,-.3,-.2,-.4,-.2c-.1,0,-.3,0,-.5,0c-.6,0,-1,.2,-1.3,.5c-.4,.4,-.5,1,-.5,1.7v3.4h-1.1V85.9h1.1v1c.2,-.4,.5,-.7,.8,-.9c.4,-.2,.8,-.3,1.3,-.3c.1,0,.2,0,.3,0c.1,0,.2,.1,.3,.1v1.1Z" class="g6_202"/>
<path d="M306.5,85.7c.9,0,1.7,.3,2.2,.9c.5,.6,.8,1.4,.8,2.5c0,1.1,-.3,1.9,-.8,2.5c-.5,.6,-1.3,.9,-2.2,.9c-.9,0,-1.6,-.3,-2.1,-.9c-.6,-.6,-.8,-1.4,-.8,-2.5c0,-1.1,.2,-1.9,.8,-2.5c.5,-.6,1.2,-.9,2.1,-.9Zm0,.9c-.5,0,-1,.2,-1.3,.7c-.3,.4,-.5,1,-.5,1.8c0,.8,.1,1.4,.5,1.8c.3,.5,.8,.7,1.3,.7c.6,0,1,-.2,1.4,-.7c.3,-.4,.5,-1,.5,-1.8c0,-.8,-.2,-1.4,-.5,-1.8c-.4,-.5,-.8,-.7,-1.4,-.7Z" class="g6_202"/>
<path d="M316.2,85.9L313.9,89l2.5,3.3h-1.3l-1.9,-2.5l-1.8,2.5h-1.3l2.5,-3.4l-2.3,-3h1.3l1.7,2.3L315,85.9h1.2Z" class="g6_202"/>
<path d="M317.8,83.4h1.1v1.3h-1.1Zm0,2.5h1.1v6.4h-1.1Z" class="g6_202"/>
<path d="M326.1,87.1c.3,-.5,.6,-.8,1,-1c.4,-.3,.8,-.4,1.3,-.4c.7,0,1.2,.3,1.5,.7c.4,.5,.6,1.2,.6,2v3.9h-1.1V88.5c0,-.7,-.1,-1.1,-.3,-1.4c-.2,-.3,-.6,-.5,-1,-.5c-.6,0,-1,.2,-1.3,.6c-.3,.4,-.5,.8,-.5,1.5v3.6h-1V88.5c0,-.7,-.2,-1.1,-.4,-1.4c-.2,-.3,-.5,-.5,-1,-.5c-.5,0,-1,.2,-1.3,.6c-.3,.4,-.5,.9,-.5,1.5v3.6h-1V85.9h1v1c.3,-.4,.6,-.7,.9,-.9c.4,-.2,.8,-.3,1.2,-.3c.5,0,.9,.1,1.2,.4c.3,.2,.6,.6,.7,1Z" class="g6_202"/>
<path d="M337.6,88.6v3.7h-1v-1c-.3,.4,-.6,.7,-.9,.9c-.4,.2,-.8,.3,-1.3,.3c-.7,0,-1.2,-.2,-1.6,-.6c-.4,-.3,-.6,-.8,-.6,-1.5c0,-.7,.2,-1.2,.7,-1.6c.5,-.4,1.2,-.5,2.2,-.5h1.5v-.2c0,-.4,-.2,-.8,-.5,-1.1c-.3,-.2,-.8,-.4,-1.3,-.4c-.4,0,-.8,.1,-1.1,.2c-.4,0,-.7,.2,-1,.3v-.9c.4,-.2,.7,-.3,1.1,-.4c.4,0,.7,-.1,1.1,-.1c.9,0,1.6,.3,2.1,.7c.4,.5,.6,1.3,.6,2.2Zm-2.1,.5c-.8,0,-1.4,.1,-1.7,.3c-.4,.2,-.5,.5,-.5,1c0,.4,.1,.7,.3,.9c.3,.2,.6,.3,1,.3c.6,0,1.1,-.2,1.5,-.6c.3,-.4,.5,-1,.5,-1.7v-.2h-1.1Z" class="g6_202"/>
<path d="M340.9,84v1.9h2.2v.8h-2.2v3.5c0,.5,0,.9,.2,1c.1,.2,.4,.2,.9,.2h1.1v.9H342c-.9,0,-1.4,-.1,-1.7,-.4c-.3,-.3,-.5,-.9,-.5,-1.7V86.7H339v-.8h.8V84h1.1Z" class="g6_202"/>
<path d="M344.4,83.4h1.1v1.3h-1.1Zm0,2.5h1.1v6.4h-1.1Z" class="g6_202"/>
<path d="M353.1,88.4v3.9H352V88.5c0,-.6,-.1,-1.1,-.3,-1.4c-.3,-.3,-.6,-.5,-1.1,-.5c-.6,0,-1,.2,-1.4,.6c-.3,.4,-.5,.8,-.5,1.5v3.6h-1V85.9h1v1c.3,-.4,.6,-.7,.9,-.9c.4,-.2,.8,-.3,1.2,-.3c.8,0,1.3,.2,1.7,.7c.4,.5,.6,1.1,.6,2Z" class="g6_202"/>
<path d="M360.5,91.5c0,1.1,-.3,1.9,-.7,2.5c-.5,.5,-1.3,.8,-2.3,.8c-.4,0,-.7,-.1,-1,-.1c-.4,-.1,-.7,-.2,-1,-.3v-1c.3,.2,.6,.3,.9,.4c.3,.1,.6,.1,1,.1c.6,0,1.2,-.2,1.5,-.5c.4,-.4,.5,-1,.5,-1.7v-.5c-.2,.4,-.5,.7,-.8,.8c-.4,.2,-.8,.3,-1.2,.3c-.8,0,-1.5,-.3,-1.9,-.9c-.5,-.6,-.8,-1.4,-.8,-2.4c0,-1,.3,-1.8,.8,-2.4c.4,-.6,1.1,-.9,1.9,-.9c.4,0,.8,.1,1.2,.3c.3,.2,.6,.5,.8,.9v-1h1.1v5.6ZM359.4,89c0,-.7,-.1,-1.3,-.4,-1.8c-.4,-.4,-.8,-.6,-1.4,-.6c-.5,0,-1,.2,-1.3,.6c-.3,.5,-.5,1.1,-.5,1.8c0,.8,.2,1.4,.5,1.8c.3,.4,.8,.6,1.3,.6c.6,0,1,-.2,1.4,-.6c.3,-.4,.4,-1,.4,-1.8Z" class="g6_202"/>
<path d="M371,89.1c0,-.8,-.1,-1.4,-.4,-1.8c-.4,-.5,-.8,-.7,-1.4,-.7c-.5,0,-1,.2,-1.3,.7c-.3,.4,-.5,1,-.5,1.8c0,.8,.2,1.4,.5,1.8c.3,.5,.8,.7,1.3,.7c.6,0,1,-.2,1.4,-.7c.3,-.4,.4,-1,.4,-1.8Zm-3.6,2.3v3.4h-1V85.9h1v1c.3,-.4,.5,-.7,.9,-.9c.3,-.2,.7,-.3,1.2,-.3c.8,0,1.4,.3,1.9,1c.5,.6,.7,1.4,.7,2.4c0,1,-.2,1.8,-.7,2.5c-.5,.6,-1.1,.9,-1.9,.9c-.5,0,-.9,-.1,-1.2,-.3c-.4,-.2,-.6,-.5,-.9,-.8Z" class="g6_202"/>
<path d="M376.4,85.7c.9,0,1.6,.3,2.2,.9c.5,.6,.8,1.4,.8,2.5c0,1.1,-.3,1.9,-.8,2.5c-.6,.6,-1.3,.9,-2.2,.9c-.9,0,-1.7,-.3,-2.2,-.9c-.5,-.6,-.8,-1.4,-.8,-2.5c0,-1.1,.3,-1.9,.8,-2.5c.5,-.6,1.3,-.9,2.2,-.9Zm0,.9c-.6,0,-1,.2,-1.4,.7c-.3,.4,-.4,1,-.4,1.8c0,.8,.1,1.4,.4,1.8c.4,.5,.8,.7,1.4,.7c.6,0,1,-.2,1.3,-.7c.4,-.4,.5,-1,.5,-1.8c0,-.8,-.1,-1.4,-.5,-1.8c-.3,-.5,-.7,-.7,-1.3,-.7Z" class="g6_202"/>
<path d="M381.1,92.3h1.1V83.4h-1.1Z" class="g6_202"/>
<path d="M387.1,92.9c-.3,.8,-.6,1.3,-.9,1.5c-.3,.3,-.7,.4,-1.2,.4h-.8v-.9h.6c.3,0,.5,-.1,.7,-.2c.2,-.2,.3,-.5,.5,-1l.2,-.5l-2.6,-6.3h1.1l2.1,5l2,-5h1.1l-2.8,7Z" class="g6_202"/>
<path d="M396.7,88.4v3.9h-1V88.5c0,-.6,-.2,-1.1,-.4,-1.4c-.2,-.3,-.6,-.5,-1.1,-.5c-.5,0,-1,.2,-1.3,.6c-.4,.4,-.5,.8,-.5,1.5v3.6h-1.1V85.9h1.1v1c.2,-.4,.5,-.7,.9,-.9c.3,-.2,.7,-.3,1.2,-.3c.7,0,1.3,.2,1.6,.7c.4,.5,.6,1.1,.6,2Z" class="g6_202"/>
<path d="M401.3,85.7c.9,0,1.7,.3,2.2,.9c.5,.6,.8,1.4,.8,2.5c0,1.1,-.3,1.9,-.8,2.5c-.5,.6,-1.3,.9,-2.2,.9c-.9,0,-1.6,-.3,-2.1,-.9c-.6,-.6,-.8,-1.4,-.8,-2.5c0,-1.1,.2,-1.9,.8,-2.5c.5,-.6,1.2,-.9,2.1,-.9Zm0,.9c-.5,0,-1,.2,-1.3,.7c-.4,.4,-.5,1,-.5,1.8c0,.8,.1,1.4,.5,1.8c.3,.5,.8,.7,1.3,.7c.6,0,1,-.2,1.4,-.7c.3,-.4,.5,-1,.5,-1.8c0,-.8,-.2,-1.4,-.5,-1.8c-.4,-.5,-.8,-.7,-1.4,-.7Z" class="g6_202"/>
<path d="M411.1,87.1c.2,-.5,.5,-.8,.9,-1c.4,-.3,.8,-.4,1.3,-.4c.7,0,1.2,.3,1.6,.7c.3,.5,.5,1.2,.5,2v3.9h-1.1V88.5c0,-.7,-.1,-1.1,-.3,-1.4c-.2,-.3,-.5,-.5,-1,-.5c-.5,0,-1,.2,-1.3,.6c-.3,.4,-.5,.8,-.5,1.5v3.6h-1V88.5c0,-.7,-.1,-1.1,-.4,-1.4c-.2,-.3,-.5,-.5,-1,-.5c-.5,0,-.9,.2,-1.3,.6c-.3,.4,-.4,.9,-.4,1.5v3.6H406V85.9h1.1v1c.2,-.4,.5,-.7,.8,-.9c.4,-.2,.8,-.3,1.2,-.3c.5,0,.9,.1,1.2,.4c.4,.2,.6,.6,.8,1Z" class="g6_202"/>
<path d="M417.5,83.4h1.1v1.3h-1.1Zm0,2.5h1.1v6.4h-1.1Z" class="g6_202"/>
<path d="M425.8,88.6v3.7h-1v-1c-.3,.4,-.6,.7,-.9,.9c-.4,.2,-.8,.3,-1.4,.3c-.6,0,-1.1,-.2,-1.5,-.6c-.4,-.3,-.6,-.8,-.6,-1.5c0,-.7,.2,-1.2,.7,-1.6c.5,-.4,1.2,-.5,2.2,-.5h1.5v-.2c0,-.4,-.2,-.8,-.5,-1.1c-.3,-.2,-.8,-.4,-1.4,-.4c-.3,0,-.7,.1,-1,.2c-.4,0,-.7,.2,-1,.3v-.9c.3,-.2,.7,-.3,1.1,-.4c.4,0,.7,-.1,1.1,-.1c.9,0,1.6,.3,2,.7c.5,.5,.7,1.3,.7,2.2Zm-2.1,.5c-.8,0,-1.4,.1,-1.8,.3c-.3,.2,-.5,.5,-.5,1c0,.4,.2,.7,.4,.9c.3,.2,.6,.3,1,.3c.6,0,1.1,-.2,1.4,-.6c.4,-.4,.6,-1,.6,-1.7v-.2h-1.1Z" class="g6_202"/>
<path d="M428,92.3h1.1V83.4H428Z" class="g6_202"/>
<path d="M168.7,736.5H528V468.8H168.7Z" class="g1_202"/>
<path d="M186.7,484c.8,0,1.5,-.4,2.1,-.9c.6,-.6,.9,-1.4,.9,-2.2c0,-.8,-.3,-1.5,-.9,-2.1c-.6,-.6,-1.3,-.9,-2.1,-.9c-.8,0,-1.6,.3,-2.2,.9c-.5,.6,-.9,1.3,-.9,2.1c0,.8,.4,1.6,.9,2.2c.6,.5,1.4,.9,2.2,.9Z" class="g2_202"/>
<path d="M186.7,484c.8,0,1.5,-.4,2.1,-.9c.6,-.6,.9,-1.4,.9,-2.2c0,-.8,-.3,-1.5,-.9,-2.1c-.6,-.6,-1.3,-.9,-2.1,-.9c-.8,0,-1.6,.3,-2.2,.9c-.5,.6,-.9,1.3,-.9,2.1c0,.8,.4,1.6,.9,2.2c.6,.5,1.4,.9,2.2,.9Z" class="g9_202"/>
<path d="M189.9,491.4c.8,0,1.6,-.3,2.2,-.9c.5,-.6,.8,-1.3,.8,-2.1c0,-.8,-.3,-1.6,-.8,-2.2c-.6,-.5,-1.4,-.9,-2.2,-.9c-.8,0,-1.5,.4,-2.1,.9c-.6,.6,-.9,1.4,-.9,2.2c0,.8,.3,1.5,.9,2.1c.6,.6,1.3,.9,2.1,.9Z" class="g2_202"/>
<path d="M189.9,491.4c.8,0,1.6,-.3,2.2,-.9c.5,-.6,.8,-1.3,.8,-2.1c0,-.8,-.3,-1.6,-.8,-2.2c-.6,-.5,-1.4,-.9,-2.2,-.9c-.8,0,-1.5,.4,-2.1,.9c-.6,.6,-.9,1.4,-.9,2.2c0,.8,.3,1.5,.9,2.1c.6,.6,1.3,.9,2.1,.9Z" class="g9_202"/>
<path d="M193.2,495.1c.8,0,1.6,-.3,2.1,-.9c.6,-.6,.9,-1.3,.9,-2.1c0,-.8,-.3,-1.6,-.9,-2.2c-.5,-.5,-1.3,-.8,-2.1,-.8c-.8,0,-1.6,.3,-2.1,.8c-.6,.6,-.9,1.4,-.9,2.2c0,.8,.3,1.5,.9,2.1c.5,.6,1.3,.9,2.1,.9Z" class="g2_202"/>
<path d="M193.2,495.1c.8,0,1.6,-.3,2.1,-.9c.6,-.6,.9,-1.3,.9,-2.1c0,-.8,-.3,-1.6,-.9,-2.2c-.5,-.5,-1.3,-.8,-2.1,-.8c-.8,0,-1.6,.3,-2.1,.8c-.6,.6,-.9,1.4,-.9,2.2c0,.8,.3,1.5,.9,2.1c.5,.6,1.3,.9,2.1,.9Z" class="g9_202"/>
<path d="M196.5,496.9c.8,0,1.5,-.3,2.1,-.8c.6,-.6,.9,-1.4,.9,-2.2c0,-.8,-.3,-1.5,-.9,-2.1c-.6,-.6,-1.3,-.9,-2.1,-.9c-.8,0,-1.6,.3,-2.2,.9c-.5,.6,-.9,1.3,-.9,2.1c0,.8,.4,1.6,.9,2.2c.6,.5,1.4,.8,2.2,.8Z" class="g2_202"/>
<path d="M196.5,496.9c.8,0,1.5,-.3,2.1,-.8c.6,-.6,.9,-1.4,.9,-2.2c0,-.8,-.3,-1.5,-.9,-2.1c-.6,-.6,-1.3,-.9,-2.1,-.9c-.8,0,-1.6,.3,-2.2,.9c-.5,.6,-.9,1.3,-.9,2.1c0,.8,.4,1.6,.9,2.2c.6,.5,1.4,.8,2.2,.8Z" class="g9_202"/>
<path d="M199.7,493.2c.8,0,1.6,-.3,2.2,-.8c.5,-.6,.8,-1.4,.8,-2.2c0,-.8,-.3,-1.5,-.8,-2.1c-.6,-.6,-1.4,-.9,-2.2,-.9c-.8,0,-1.5,.3,-2.1,.9c-.6,.6,-.9,1.3,-.9,2.1c0,.8,.3,1.6,.9,2.2c.6,.5,1.3,.8,2.1,.8Z" class="g2_202"/>
<path d="M199.7,493.2c.8,0,1.6,-.3,2.2,-.8c.5,-.6,.8,-1.4,.8,-2.2c0,-.8,-.3,-1.5,-.8,-2.1c-.6,-.6,-1.4,-.9,-2.2,-.9c-.8,0,-1.5,.3,-2.1,.9c-.6,.6,-.9,1.3,-.9,2.1c0,.8,.3,1.6,.9,2.2c.6,.5,1.3,.8,2.1,.8Z" class="g9_202"/>
<path d="M183.4,736.5V468.8" class="ga_202"/>
<path d="M183.4,736.5v3.6" class="gb_202"/>
<path d="M183.4,743.8c.8,0,1.4,.3,1.9,.9c.4,.7,.6,1.6,.6,2.9c0,1.2,-.2,2.1,-.6,2.8c-.5,.6,-1.1,1,-1.9,1c-.8,0,-1.5,-.4,-1.9,-1c-.4,-.7,-.6,-1.6,-.6,-2.8c0,-1.3,.2,-2.2,.6,-2.9c.4,-.6,1.1,-.9,1.9,-.9Zm0,.7c-.5,0,-.9,.3,-1.2,.8c-.2,.5,-.3,1.3,-.3,2.3c0,1,.1,1.7,.3,2.2c.3,.5,.7,.8,1.2,.8c.5,0,.9,-.3,1.1,-.8c.3,-.5,.4,-1.2,.4,-2.2c0,-1,-.1,-1.8,-.4,-2.3c-.2,-.5,-.6,-.8,-1.1,-.8Z" class="g6_202"/>
<path d="M248.7,736.5V468.8" class="ga_202"/>
<path d="M248.7,736.5v3.6" class="gb_202"/>
<path d="M244.3,750.4h3.4v.8h-4.6v-.8c.3,-.4,.9,-.9,1.5,-1.6c.7,-.6,1.1,-1.1,1.2,-1.3c.4,-.3,.6,-.6,.7,-.9c.1,-.2,.2,-.5,.2,-.7c0,-.4,-.1,-.7,-.4,-.9c-.3,-.3,-.7,-.4,-1.1,-.4c-.3,0,-.6,0,-1,.2c-.3,.1,-.7,.2,-1.1,.4v-1c.4,-.1,.8,-.2,1.1,-.3c.4,-.1,.7,-.1,1,-.1c.8,0,1.4,.1,1.8,.5c.5,.4,.7,.9,.7,1.5c0,.3,-.1,.6,-.2,.9c-.1,.3,-.3,.6,-.6,1c-.1,.1,-.3,.3,-.8,.8c-.4,.4,-1,1.1,-1.8,1.9Z" class="g6_202"/>
<path d="M251.9,743.8c.9,0,1.5,.3,1.9,.9c.5,.7,.7,1.6,.7,2.9c0,1.2,-.2,2.1,-.7,2.8c-.4,.6,-1,1,-1.9,1c-.8,0,-1.4,-.4,-1.9,-1c-.4,-.7,-.6,-1.6,-.6,-2.8c0,-1.3,.2,-2.2,.6,-2.9c.5,-.6,1.1,-.9,1.9,-.9Zm0,.7c-.5,0,-.9,.3,-1.1,.8c-.3,.5,-.4,1.3,-.4,2.3c0,1,.1,1.7,.4,2.2c.2,.5,.6,.8,1.1,.8c.5,0,.9,-.3,1.2,-.8c.2,-.5,.4,-1.2,.4,-2.2c0,-1,-.2,-1.8,-.4,-2.3c-.3,-.5,-.7,-.8,-1.2,-.8Z" class="g6_202"/>
<path d="M314.1,736.5V468.8" class="ga_202"/>
<path d="M314.1,736.5v3.6" class="gb_202"/>
<path d="M311.2,743.9h1.3v4.8h1v.8h-1v1.7h-1v-1.7h-3.3v-1l3,-4.6Zm.3,.9l-2.5,3.9h2.5v-3.9Z" class="g6_202"/>
<path d="M317.3,743.8c.8,0,1.4,.3,1.9,.9c.4,.7,.6,1.6,.6,2.9c0,1.2,-.2,2.1,-.6,2.8c-.5,.6,-1.1,1,-1.9,1c-.8,0,-1.5,-.4,-1.9,-1c-.4,-.7,-.7,-1.6,-.7,-2.8c0,-1.3,.3,-2.2,.7,-2.9c.4,-.6,1.1,-.9,1.9,-.9Zm0,.7c-.5,0,-.9,.3,-1.2,.8c-.2,.5,-.4,1.3,-.4,2.3c0,1,.2,1.7,.4,2.2c.3,.5,.7,.8,1.2,.8c.5,0,.9,-.3,1.1,-.8c.3,-.5,.4,-1.2,.4,-2.2c0,-1,-.1,-1.8,-.4,-2.3c-.2,-.5,-.6,-.8,-1.1,-.8Z" class="g6_202"/>
<path d="M379.4,736.5V468.8" class="ga_202"/>
<path d="M379.4,736.5v3.6" class="gb_202"/>
<path d="M378.3,744v1c-.2,-.2,-.5,-.3,-.7,-.3c-.3,-.1,-.6,-.1,-.8,-.1c-.7,0,-1.2,.2,-1.5,.7c-.3,.4,-.5,1.1,-.6,2c.2,-.3,.4,-.5,.7,-.7c.3,-.2,.6,-.2,1,-.2c.7,0,1.3,.2,1.7,.6c.5,.5,.7,1.1,.7,1.9c0,.7,-.2,1.3,-.7,1.8c-.4,.4,-1,.7,-1.8,.7c-.8,0,-1.5,-.4,-1.9,-1c-.5,-.7,-.7,-1.6,-.7,-2.8c0,-1.2,.3,-2.1,.8,-2.8c.6,-.7,1.3,-1,2.3,-1c.2,0,.5,0,.7,0c.3,.1,.5,.1,.8,.2Zm-2,3.2c-.4,0,-.8,.1,-1,.4c-.3,.3,-.4,.7,-.4,1.3c0,.5,.1,.9,.4,1.2c.2,.3,.6,.5,1,.5c.5,0,.8,-.2,1.1,-.5c.3,-.3,.4,-.7,.4,-1.2c0,-.6,-.1,-1,-.4,-1.3c-.3,-.3,-.6,-.4,-1.1,-.4Z" class="g6_202"/>
<path d="M382.6,743.8c.8,0,1.5,.3,1.9,.9c.4,.7,.6,1.6,.6,2.9c0,1.2,-.2,2.1,-.6,2.8c-.4,.6,-1.1,1,-1.9,1c-.8,0,-1.4,-.4,-1.9,-1c-.4,-.7,-.6,-1.6,-.6,-2.8c0,-1.3,.2,-2.2,.6,-2.9c.5,-.6,1.1,-.9,1.9,-.9Zm0,.7c-.5,0,-.9,.3,-1.1,.8c-.3,.5,-.4,1.3,-.4,2.3c0,1,.1,1.7,.4,2.2c.2,.5,.6,.8,1.1,.8c.5,0,.9,-.3,1.2,-.8c.2,-.5,.4,-1.2,.4,-2.2c0,-1,-.2,-1.8,-.4,-2.3c-.3,-.5,-.7,-.8,-1.2,-.8Z" class="g6_202"/>
<path d="M444.8,736.5V468.8" class="ga_202"/>
<path d="M444.8,736.5v3.6" class="gb_202"/>
<path d="M440.2,745.7c0,.4,.1,.7,.4,.9c.2,.2,.5,.4,1,.4c.4,0,.7,-.2,1,-.4c.2,-.2,.3,-.5,.3,-.9c0,-.3,-.1,-.6,-.3,-.8c-.3,-.3,-.6,-.4,-1,-.4c-.5,0,-.8,.1,-1,.4c-.3,.2,-.4,.5,-.4,.8Zm.4,1.6c-.5,-.1,-.8,-.3,-1,-.6c-.3,-.3,-.4,-.6,-.4,-1c0,-.6,.2,-1.1,.6,-1.4c.5,-.4,1,-.5,1.8,-.5c.7,0,1.3,.1,1.7,.5c.4,.3,.6,.8,.6,1.4c0,.4,-.1,.7,-.4,1c-.2,.3,-.5,.5,-1,.6c.5,.1,.9,.3,1.2,.7c.2,.3,.4,.7,.4,1.2c0,.7,-.3,1.2,-.7,1.6c-.4,.4,-1,.6,-1.8,.6c-.9,0,-1.5,-.2,-1.9,-.6c-.4,-.4,-.7,-.9,-.7,-1.6c0,-.5,.2,-.9,.4,-1.2c.3,-.4,.7,-.6,1.2,-.7Zm1,.4c-.5,0,-.9,.2,-1.2,.4c-.2,.3,-.4,.6,-.4,1.1c0,.4,.2,.7,.4,1c.3,.3,.7,.4,1.2,.4c.4,0,.8,-.1,1.1,-.4c.2,-.3,.4,-.6,.4,-1c0,-.5,-.2,-.8,-.4,-1.1c-.3,-.2,-.7,-.4,-1.1,-.4Z" class="g6_202"/>
<path d="M448,743.8c.8,0,1.4,.3,1.8,.9c.5,.7,.7,1.6,.7,2.9c0,1.2,-.2,2.1,-.7,2.8c-.4,.6,-1,1,-1.8,1c-.9,0,-1.5,-.4,-1.9,-1c-.5,-.7,-.7,-1.6,-.7,-2.8c0,-1.3,.2,-2.2,.7,-2.9c.4,-.6,1,-.9,1.9,-.9Zm0,.7c-.6,0,-.9,.3,-1.2,.8c-.3,.5,-.4,1.3,-.4,2.3c0,1,.1,1.7,.4,2.2c.3,.5,.6,.8,1.2,.8c.5,0,.9,-.3,1.1,-.8c.3,-.5,.4,-1.2,.4,-2.2c0,-1,-.1,-1.8,-.4,-2.3c-.2,-.5,-.6,-.8,-1.1,-.8Z" class="g6_202"/>
<path d="M510.1,736.5V468.8" class="ga_202"/>
<path d="M510.1,736.5v3.6" class="gb_202"/>
<path d="M501.7,750.4h1.7v-5.6l-1.8,.3v-.9l1.8,-.3h.9v6.5H506v.8h-4.3v-.8Z" class="g6_202"/>
<path d="M510.1,743.8c.8,0,1.4,.3,1.9,.9c.4,.7,.6,1.6,.6,2.9c0,1.2,-.2,2.1,-.6,2.8c-.5,.6,-1.1,1,-1.9,1c-.8,0,-1.5,-.4,-1.9,-1c-.4,-.7,-.6,-1.6,-.6,-2.8c0,-1.3,.2,-2.2,.6,-2.9c.4,-.6,1.1,-.9,1.9,-.9Zm0,.7c-.5,0,-.9,.3,-1.2,.8c-.2,.5,-.3,1.3,-.3,2.3c0,1,.1,1.7,.3,2.2c.3,.5,.7,.8,1.2,.8c.5,0,.9,-.3,1.2,-.8c.2,-.5,.3,-1.2,.3,-2.2c0,-1,-.1,-1.8,-.3,-2.3c-.3,-.5,-.7,-.8,-1.2,-.8Z" class="g6_202"/>
<path d="M516.5,743.8c.8,0,1.4,.3,1.9,.9c.4,.7,.6,1.6,.6,2.9c0,1.2,-.2,2.1,-.6,2.8c-.5,.6,-1.1,1,-1.9,1c-.8,0,-1.5,-.4,-1.9,-1c-.4,-.7,-.6,-1.6,-.6,-2.8c0,-1.3,.2,-2.2,.6,-2.9c.4,-.6,1.1,-.9,1.9,-.9Zm0,.7c-.5,0,-.9,.3,-1.2,.8c-.2,.5,-.3,1.3,-.3,2.3c0,1,.1,1.7,.3,2.2c.3,.5,.7,.8,1.2,.8c.5,0,.9,-.3,1.2,-.8c.2,-.5,.3,-1.2,.3,-2.2c0,-1,-.1,-1.8,-.3,-2.3c-.3,-.5,-.7,-.8,-1.2,-.8Z" class="g6_202"/>
<path d="M350.9,759.5l-2,2.7L351,765h-1.1l-1.6,-2.2l-1.6,2.2h-1l2.1,-2.9l-1.9,-2.6h1l1.5,1.9l1.4,-1.9h1.1Z" class="g6_202"/>
<path d="M168.7,713H528" class="ga_202"/>
<path d="M168.7,713h-3.5" class="gb_202"/>
<path d="M158.4,709.3c.9,0,1.5,.3,1.9,1c.5,.6,.7,1.6,.7,2.8c0,1.3,-.2,2.2,-.7,2.9c-.4,.6,-1,.9,-1.9,.9c-.8,0,-1.4,-.3,-1.8,-.9c-.5,-.7,-.7,-1.6,-.7,-2.9c0,-1.2,.2,-2.2,.7,-2.8c.4,-.7,1,-1,1.8,-1Zm0,.8c-.5,0,-.9,.3,-1.1,.8c-.3,.5,-.4,1.2,-.4,2.2c0,1,.1,1.8,.4,2.3c.2,.5,.6,.7,1.1,.7c.6,0,.9,-.2,1.2,-.7c.3,-.5,.4,-1.3,.4,-2.3c0,-1,-.1,-1.7,-.4,-2.2c-.3,-.5,-.6,-.8,-1.2,-.8Z" class="g6_202"/>
<path d="M168.7,657.3H528" class="ga_202"/>
<path d="M168.7,657.3h-3.5" class="gb_202"/>
<path d="M157.2,660.3h3.4v.8H156v-.8c.4,-.4,.9,-.9,1.5,-1.6c.7,-.7,1.1,-1.1,1.2,-1.3c.4,-.3,.6,-.6,.7,-.9c.1,-.2,.2,-.5,.2,-.7c0,-.4,-.1,-.7,-.4,-1c-.3,-.2,-.6,-.3,-1.1,-.3c-.3,0,-.6,0,-1,.1c-.3,.1,-.7,.3,-1.1,.5v-1c.4,-.1,.8,-.3,1.2,-.3c.3,-.1,.6,-.2,.9,-.2c.8,0,1.4,.2,1.8,.6c.5,.4,.7,.9,.7,1.5c0,.3,-.1,.6,-.2,.9c-.1,.3,-.3,.6,-.6,.9c-.1,.1,-.3,.4,-.8,.9c-.4,.4,-1,1.1,-1.8,1.9Z" class="g6_202"/>
<path d="M168.7,601.6H528" class="ga_202"/>
<path d="M168.7,601.6h-3.5" class="gb_202"/>
<path d="M158.8,598.1H160v4.8h1.1v.8H160v1.7h-.9v-1.7h-3.4v-1l3.1,-4.6Zm.3,.8l-2.6,4h2.6v-4Z" class="g6_202"/>
<path d="M168.7,545.9H528" class="ga_202"/>
<path d="M168.7,545.9h-3.5" class="gb_202"/>
<path d="M160.5,542.6v.9c-.2,-.2,-.5,-.2,-.7,-.3c-.3,-.1,-.5,-.1,-.8,-.1c-.6,0,-1.1,.2,-1.5,.7c-.3,.4,-.5,1.1,-.6,2c.2,-.3,.5,-.5,.8,-.7c.3,-.1,.6,-.2,.9,-.2c.8,0,1.3,.2,1.8,.7c.4,.4,.6,1,.6,1.8c0,.7,-.2,1.3,-.7,1.8c-.4,.4,-1,.7,-1.7,.7c-.9,0,-1.5,-.4,-2,-1c-.4,-.7,-.6,-1.6,-.6,-2.8c0,-1.2,.2,-2.1,.8,-2.8c.5,-.7,1.3,-1,2.2,-1c.2,0,.5,0,.7,0c.3,.1,.6,.2,.8,.3Zm-1.9,3.1c-.5,0,-.8,.1,-1.1,.4c-.2,.3,-.4,.7,-.4,1.3c0,.5,.2,.9,.4,1.2c.3,.3,.6,.5,1.1,.5c.4,0,.8,-.2,1,-.5c.3,-.3,.4,-.7,.4,-1.2c0,-.6,-.1,-1,-.4,-1.3c-.2,-.3,-.6,-.4,-1,-.4Z" class="g6_202"/>
<path d="M168.7,490.2H528" class="ga_202"/>
<path d="M168.7,490.2h-3.5" class="gb_202"/>
<path d="M157.1,488.6c0,.3,.1,.6,.3,.9c.3,.2,.6,.3,1,.3c.5,0,.8,-.1,1,-.3c.3,-.3,.4,-.6,.4,-.9c0,-.4,-.1,-.7,-.4,-.9c-.2,-.2,-.5,-.3,-1,-.3c-.4,0,-.7,.1,-1,.3c-.2,.2,-.3,.5,-.3,.9Zm.4,1.5c-.5,-.1,-.8,-.3,-1,-.6c-.3,-.3,-.4,-.6,-.4,-1c0,-.6,.2,-1.1,.6,-1.4c.4,-.4,1,-.5,1.7,-.5c.8,0,1.3,.1,1.8,.5c.4,.3,.6,.8,.6,1.4c0,.4,-.1,.7,-.4,1c-.2,.3,-.5,.5,-1,.6c.5,.1,.9,.4,1.2,.7c.2,.3,.4,.7,.4,1.2c0,.7,-.3,1.2,-.7,1.6c-.4,.4,-1,.6,-1.9,.6c-.8,0,-1.4,-.2,-1.8,-.6c-.5,-.4,-.7,-.9,-.7,-1.6c0,-.5,.2,-.9,.4,-1.2c.3,-.3,.7,-.6,1.2,-.7Zm.9,.5c-.4,0,-.8,.1,-1.1,.3c-.2,.3,-.4,.6,-.4,1.1c0,.4,.2,.8,.4,1c.3,.3,.7,.4,1.1,.4c.5,0,.9,-.1,1.2,-.4c.2,-.2,.4,-.6,.4,-1c0,-.5,-.2,-.8,-.4,-1.1c-.3,-.2,-.7,-.3,-1.2,-.3Z" class="g6_202"/>
<path d="M149.6,602.4c.7,.2,1.1,.5,1.3,.7c.2,.3,.3,.6,.3,1v.7h-.7v-.5c0,-.2,-.1,-.4,-.2,-.6c-.1,-.1,-.4,-.3,-.8,-.4l-.5,-.2l-5.4,2.2v-.9l4.3,-1.8l-4.3,-1.7V600l6,2.4Z" class="g6_202"/>
<path d="M185,483.1L511.7,724.4" class="gc_202"/>
<path d="M168.7,736.5V468.8M528,736.5V468.8M168.7,736.5H528M168.7,468.8H528" class="gd_202"/>
<path d="M272.5,453.9h1.3l3.4,8.8H276l-.8,-2.2h-4l-.8,2.2h-1.3l3.4,-8.8Zm.7,1.2l-1.7,4.4h3.3l-1.6,-4.4Z" class="g6_202"/>
<path d="M283.2,459.4c0,-.8,-.2,-1.4,-.5,-1.8c-.4,-.5,-.8,-.7,-1.4,-.7c-.6,0,-1,.2,-1.3,.7c-.4,.4,-.5,1,-.5,1.8c0,.8,.1,1.5,.5,1.9c.3,.5,.7,.7,1.3,.7c.6,0,1,-.2,1.4,-.7c.3,-.4,.5,-1.1,.5,-1.9Zm-3.7,2.3v3.5h-1.1v-9.1h1.1v1c.2,-.4,.5,-.7,.8,-.8c.4,-.2,.8,-.3,1.3,-.3c.8,0,1.4,.3,1.9,.9c.5,.7,.8,1.5,.8,2.5c0,1.1,-.3,1.9,-.8,2.5c-.5,.7,-1.1,1,-1.9,1c-.5,0,-.9,-.1,-1.3,-.3c-.3,-.2,-.6,-.5,-.8,-.9Z" class="g6_202"/>
<path d="M290.8,459.4c0,-.8,-.1,-1.4,-.5,-1.8c-.3,-.5,-.7,-.7,-1.3,-.7c-.6,0,-1,.2,-1.4,.7c-.3,.4,-.5,1,-.5,1.8c0,.8,.2,1.5,.5,1.9c.4,.5,.8,.7,1.4,.7c.6,0,1,-.2,1.3,-.7c.4,-.4,.5,-1.1,.5,-1.9Zm-3.7,2.3v3.5h-1v-9.1h1v1c.3,-.4,.6,-.7,.9,-.8c.4,-.2,.8,-.3,1.3,-.3c.8,0,1.4,.3,1.9,.9c.5,.7,.8,1.5,.8,2.5c0,1.1,-.3,1.9,-.8,2.5c-.5,.7,-1.1,1,-1.9,1c-.5,0,-.9,-.1,-1.3,-.3c-.3,-.2,-.6,-.5,-.9,-.9Z" class="g6_202"/>
<path d="M297.6,457.1c-.1,0,-.3,-.1,-.4,-.1c-.2,0,-.3,-.1,-.5,-.1c-.6,0,-1.1,.2,-1.4,.6c-.3,.4,-.5,1,-.5,1.8v3.4h-1.1v-6.6h1.1v1.1c.2,-.4,.5,-.7,.9,-.9c.4,-.2,.8,-.3,1.3,-.3c.1,0,.2,0,.3,0c.1,0,.2,0,.3,0v1.1Z" class="g6_202"/>
<path d="M301,456c1,0,1.7,.3,2.2,.9c.6,.6,.8,1.4,.8,2.5c0,1.1,-.2,2,-.8,2.6c-.5,.6,-1.2,.9,-2.2,.9c-.9,0,-1.7,-.3,-2.2,-.9c-.6,-.6,-.8,-1.5,-.8,-2.6c0,-1.1,.2,-1.9,.8,-2.5c.5,-.6,1.3,-.9,2.2,-.9Zm0,.9c-.6,0,-1,.2,-1.4,.7c-.3,.4,-.5,1,-.5,1.8c0,.8,.2,1.4,.5,1.9c.4,.5,.8,.7,1.4,.7c.6,0,1,-.2,1.4,-.7c.3,-.5,.5,-1.1,.5,-1.9c0,-.7,-.2,-1.4,-.5,-1.8c-.4,-.5,-.8,-.7,-1.4,-.7Z" class="g6_202"/>
<path d="M311,456.1l-2.4,3.2l2.5,3.4h-1.3l-1.9,-2.6l-2,2.6h-1.2l2.5,-3.4l-2.3,-3.2h1.3l1.7,2.4l1.8,-2.4H311Z" class="g6_202"/>
<path d="M312.6,453.6h1.1v1.3h-1.1Zm0,2.5h1.1v6.6h-1.1Z" class="g6_202"/>
<path d="M321.1,457.4c.3,-.5,.6,-.9,1,-1.1c.4,-.2,.8,-.3,1.3,-.3c.7,0,1.2,.2,1.6,.7c.4,.5,.6,1.2,.6,2v4h-1.1v-3.9c0,-.7,-.1,-1.1,-.4,-1.4c-.2,-.3,-.5,-.5,-1,-.5c-.6,0,-1,.2,-1.3,.6c-.4,.3,-.5,.9,-.5,1.5v3.7h-1.1v-3.9c0,-.7,-.1,-1.1,-.3,-1.4c-.3,-.3,-.6,-.5,-1.1,-.5c-.5,0,-1,.2,-1.3,.6c-.3,.3,-.5,.9,-.5,1.5v3.7h-1.1v-6.6H317v1.1c.3,-.5,.6,-.8,.9,-.9c.3,-.2,.8,-.3,1.2,-.3c.5,0,.9,.1,1.3,.3c.3,.3,.5,.6,.7,1.1Z" class="g6_202"/>
<path d="M332.9,459v3.7h-1.1v-1c-.2,.4,-.6,.7,-.9,.9c-.4,.2,-.8,.3,-1.4,.3c-.7,0,-1.2,-.2,-1.6,-.6c-.4,-.3,-.6,-.9,-.6,-1.5c0,-.7,.3,-1.3,.8,-1.7c.5,-.3,1.2,-.5,2.2,-.5h1.5v-.1c0,-.5,-.2,-.9,-.5,-1.2c-.3,-.3,-.8,-.4,-1.4,-.4c-.4,0,-.7,0,-1.1,.1c-.3,.1,-.7,.2,-1,.4v-1c.4,-.1,.8,-.2,1.1,-.3c.4,-.1,.8,-.1,1.1,-.1c1,0,1.7,.2,2.2,.7c.5,.5,.7,1.3,.7,2.3Zm-2.2,.4c-.9,0,-1.5,.1,-1.8,.3c-.3,.2,-.5,.6,-.5,1c0,.4,.1,.7,.4,1c.2,.2,.6,.3,1,.3c.6,0,1.1,-.2,1.5,-.6c.3,-.5,.5,-1,.5,-1.7v-.3h-1.1Z" class="g6_202"/>
<path d="M336.2,454.3v1.8h2.2v.9h-2.2v3.6c0,.5,.1,.8,.2,1c.2,.1,.5,.2,.9,.2h1.1v.9h-1.1c-.8,0,-1.4,-.1,-1.7,-.4c-.3,-.4,-.5,-.9,-.5,-1.7V457h-.8v-.9h.8v-1.8h1.1Z" class="g6_202"/>
<path d="M339.9,453.6h1v1.3h-1Zm0,2.5h1v6.6h-1Z" class="g6_202"/>
<path d="M348.7,458.7v4h-1.1v-3.9c0,-.6,-.1,-1.1,-.3,-1.4c-.3,-.3,-.7,-.5,-1.1,-.5c-.6,0,-1.1,.2,-1.4,.6c-.4,.3,-.5,.9,-.5,1.5v3.7h-1.1v-6.6h1.1v1.1c.2,-.4,.5,-.7,.9,-.9c.3,-.2,.7,-.3,1.2,-.3c.8,0,1.3,.2,1.7,.7c.4,.4,.6,1.1,.6,2Z" class="g6_202"/>
<path d="M356.3,461.9c0,1.1,-.3,2,-.8,2.5c-.5,.6,-1.2,.8,-2.2,.8c-.4,0,-.8,0,-1.1,0c-.4,-.1,-.7,-.2,-1,-.3v-1.1c.3,.2,.6,.3,.9,.4c.3,.1,.7,.1,1,.1c.7,0,1.2,-.1,1.6,-.5c.3,-.4,.5,-.9,.5,-1.7v-.5c-.2,.4,-.5,.6,-.9,.8c-.3,.2,-.7,.3,-1.2,.3c-.8,0,-1.5,-.3,-2,-.9c-.5,-.6,-.7,-1.4,-.7,-2.5c0,-1,.2,-1.8,.7,-2.4c.5,-.6,1.2,-.9,2,-.9c.5,0,.9,.1,1.2,.3c.4,.1,.7,.4,.9,.8v-1h1.1v5.8Zm-1.1,-2.6c0,-.7,-.2,-1.3,-.5,-1.8c-.3,-.4,-.8,-.6,-1.3,-.6c-.6,0,-1.1,.2,-1.4,.6c-.3,.5,-.5,1.1,-.5,1.8c0,.8,.2,1.4,.5,1.9c.3,.4,.8,.6,1.4,.6c.5,0,1,-.2,1.3,-.6c.3,-.5,.5,-1.1,.5,-1.9Z" class="g6_202"/>
<path d="M367.1,459.4c0,-.8,-.2,-1.4,-.5,-1.8c-.3,-.5,-.8,-.7,-1.3,-.7c-.6,0,-1.1,.2,-1.4,.7c-.3,.4,-.5,1,-.5,1.8c0,.8,.2,1.5,.5,1.9c.3,.5,.8,.7,1.4,.7c.5,0,1,-.2,1.3,-.7c.3,-.4,.5,-1.1,.5,-1.9Zm-3.7,2.3v3.5h-1.1v-9.1h1.1v1c.2,-.4,.5,-.7,.9,-.8c.3,-.2,.7,-.3,1.2,-.3c.8,0,1.5,.3,2,.9c.5,.7,.7,1.5,.7,2.5c0,1.1,-.2,1.9,-.7,2.5c-.5,.7,-1.2,1,-2,1c-.5,0,-.9,-.1,-1.2,-.3c-.4,-.2,-.7,-.5,-.9,-.9Z" class="g6_202"/>
<path d="M372.6,456c.9,0,1.7,.3,2.2,.9c.6,.6,.8,1.4,.8,2.5c0,1.1,-.2,2,-.8,2.6c-.5,.6,-1.3,.9,-2.2,.9c-1,0,-1.7,-.3,-2.2,-.9c-.6,-.6,-.8,-1.5,-.8,-2.6c0,-1.1,.2,-1.9,.8,-2.5c.5,-.6,1.2,-.9,2.2,-.9Zm0,.9c-.6,0,-1.1,.2,-1.4,.7c-.3,.4,-.5,1,-.5,1.8c0,.8,.2,1.4,.5,1.9c.3,.5,.8,.7,1.4,.7c.6,0,1,-.2,1.4,-.7c.3,-.5,.5,-1.1,.5,-1.9c0,-.7,-.2,-1.4,-.5,-1.8c-.4,-.5,-.8,-.7,-1.4,-.7Z" class="g6_202"/>
<path d="M377.4,462.7h1.1v-9.1h-1.1Z" class="g6_202"/>
<path d="M383.5,463.3c-.3,.8,-.6,1.3,-.9,1.6c-.3,.2,-.7,.3,-1.1,.3h-.9v-.9h.6c.3,0,.6,0,.7,-.2c.2,-.1,.4,-.5,.6,-1l.2,-.5L380,456.1h1.1l2.1,5.2l2.1,-5.2h1.1l-2.9,7.2Z" class="g6_202"/>
<path d="M393.4,458.7v4h-1.1v-3.9c0,-.6,-.1,-1.1,-.3,-1.4c-.3,-.3,-.7,-.5,-1.1,-.5c-.6,0,-1.1,.2,-1.4,.6c-.4,.3,-.5,.9,-.5,1.5v3.7h-1.1v-6.6H389v1.1c.2,-.4,.5,-.7,.9,-.9c.3,-.2,.7,-.3,1.2,-.3c.8,0,1.3,.2,1.7,.7c.4,.4,.6,1.1,.6,2Z" class="g6_202"/>
<path d="M398.1,456c1,0,1.7,.3,2.3,.9c.5,.6,.8,1.4,.8,2.5c0,1.1,-.3,2,-.8,2.6c-.6,.6,-1.3,.9,-2.3,.9c-.9,0,-1.7,-.3,-2.2,-.9c-.5,-.6,-.8,-1.5,-.8,-2.6c0,-1.1,.3,-1.9,.8,-2.5c.5,-.6,1.3,-.9,2.2,-.9Zm0,.9c-.6,0,-1,.2,-1.3,.7c-.4,.4,-.6,1,-.6,1.8c0,.8,.2,1.4,.5,1.9c.4,.5,.8,.7,1.4,.7c.6,0,1.1,-.2,1.4,-.7c.3,-.5,.5,-1.1,.5,-1.9c0,-.7,-.2,-1.4,-.5,-1.8c-.3,-.5,-.8,-.7,-1.4,-.7Z" class="g6_202"/>
<path d="M408.1,457.4c.3,-.5,.6,-.9,1,-1.1c.4,-.2,.8,-.3,1.3,-.3c.7,0,1.2,.2,1.6,.7c.4,.5,.6,1.2,.6,2v4h-1.1v-3.9c0,-.7,-.1,-1.1,-.4,-1.4c-.2,-.3,-.5,-.5,-1,-.5c-.6,0,-1,.2,-1.3,.6c-.4,.3,-.5,.9,-.5,1.5v3.7h-1.1v-3.9c0,-.7,-.1,-1.1,-.3,-1.4c-.3,-.3,-.6,-.5,-1.1,-.5c-.5,0,-1,.2,-1.3,.6c-.3,.3,-.5,.9,-.5,1.5v3.7h-1.1v-6.6H404v1.1c.3,-.5,.6,-.8,.9,-.9c.3,-.2,.8,-.3,1.2,-.3c.5,0,.9,.1,1.3,.3c.3,.3,.5,.6,.7,1.1Z" class="g6_202"/>
<path d="M414.7,453.6h1.1v1.3h-1.1Zm0,2.5h1.1v6.6h-1.1Z" class="g6_202"/>
<path d="M423.2,459v3.7h-1v-1c-.3,.4,-.6,.7,-1,.9c-.3,.2,-.8,.3,-1.3,.3c-.7,0,-1.2,-.2,-1.6,-.6c-.4,-.3,-.6,-.9,-.6,-1.5c0,-.7,.2,-1.3,.7,-1.7c.5,-.3,1.2,-.5,2.2,-.5h1.6v-.1c0,-.5,-.2,-.9,-.5,-1.2c-.4,-.3,-.8,-.4,-1.4,-.4c-.4,0,-.8,0,-1.1,.1c-.4,.1,-.7,.2,-1.1,.4v-1c.4,-.1,.8,-.2,1.2,-.3c.4,-.1,.7,-.1,1.1,-.1c.9,0,1.7,.2,2.1,.7c.5,.5,.7,1.3,.7,2.3Zm-2.1,.4c-.9,0,-1.5,.1,-1.8,.3c-.4,.2,-.6,.6,-.6,1c0,.4,.2,.7,.4,1c.3,.2,.6,.3,1.1,.3c.6,0,1,-.2,1.4,-.6c.4,-.5,.6,-1,.6,-1.7v-.3h-1.1Z" class="g6_202"/>
<path d="M425.5,462.7h1.1v-9.1h-1.1Z" class="g6_202"/>
</svg>