<?xml version="1.0" encoding="UTF-8" standalone="no"?>
<!DOCTYPE svg PUBLIC "-//W3C//DTD SVG 1.1//EN"
"http://www.w3.org/Graphics/SVG/1.1/DTD/svg11.dtd">
<svg viewBox="0 0 811 1017" version="1.1" xmlns="http://www.w3.org/2000/svg" xmlns:xlink="http://www.w3.org/1999/xlink">
<defs>
<clipPath id="c0_344"><path d="M105.7,543.5V392.1H306.9V543.5Z"/></clipPath>
<clipPath id="c1_344"><path d="M307.6,543.5V392.1H507.8V543.5Z"/></clipPath>
<clipPath id="c2_344"><path d="M307,543.5V392.1h.5V543.5Z"/></clipPath>
<clipPath id="c3_344"><path d="M508.8,543.5V392.1H709.6V543.5Z"/></clipPath>
<clipPath id="c4_344"><path d="M507.7,543.5V392.1h1.1V543.5Z"/></clipPath>
<style type="text/css"><![CDATA[
.g0_344{
fill: #641011;
}
.g1_344{
fill: #ECD7CC;
}
.g2_344{
fill: #F6BDA1;
}
.g3_344{
fill: #F4997B;
}
.g4_344{
fill: #EB7661;
}
.g5_344{
fill: #B43A35;
}
.g6_344{
fill: #040504;
}
.g7_344{
fill: #181818;
}
.g8_344{
fill: #FFF;
}
.g9_344{
fill: #2E3A97;
}
.ga_344{
fill: #4458A6;
}
.gb_344{
fill: #7E95CC;
}
.gc_344{
fill: #BDC9E6;
}
.gd_344{
fill: #EDF7FA;
}
.ge_344{
fill: #FCD5CC;
}
.gf_344{
fill: #BD4441;
}
.gg_344{
fill: #000;
}
]]></style>
</defs>
<path d="M177.3,334H424.7V86.6H177.3Z" class="g0_344"/>
<path d="M232.3,234.1l2.5,.6l2.5,.3l2.5,.1H362.2c4.4,0,8.7,-1,12.5,-3.1l.8,-.4l1.7,-1.2c3.3,-2.3,5.8,-5.3,7.7,-8.8l1.1,-2.5l.8,-2.5l.4,-2.1c2,-11.4,-4.3,-22.7,-15,-27.1l-2.4,-.8h-.1l-2.5,-.6l-2.5,-.3l-2.5,-.1H239.8l-2.5,.1l-2.5,.3l-2.5,.6h-.1l-2.4,.8l-2.5,1.2l-.8,.5c-3.8,2.3,-7.1,5.7,-9.2,9.7l-.2,.3l-1.1,2.5l-.8,2.5c-2.8,11,2.1,22.4,12.1,27.9l2.5,1.2l2.4,.9h.1Z" class="g1_344"/>
<path d="M232.2,234.1l-2.4,-.9L227.3,232l-.8,-.4c-9.4,-5.7,-14,-16.8,-11.3,-27.5l.8,-2.5l1.1,-2.5l.2,-.3c2.1,-4,5.4,-7.4,9.2,-9.7l.8,-.5l2.5,-1.2l2.4,-.8h.1l2.5,-.6l2.5,-.3l2.5,-.1H362.2l2.5,.1l2.5,.3l2.5,.6h.1l2.4,.8l2.5,1.2c9.3,5.1,14.3,15.5,12.5,25.9l-.4,2.1l-.8,2.5l-1.1,2.5c-1.9,3.5,-4.4,6.5,-7.7,8.8l-1.7,1.2l-.8,.4l-2.5,1.2l-2.4,.9h-.1l-2.5,.6l-2.5,.3l-2.5,.1H239.8l-2.5,-.1l-2.5,-.3l-2.5,-.6h-.1Zm.1,25.2l2.5,.3l2.5,.2H362.2c10.8,.1,21.3,-3.3,30,-9.7l1.4,-1.1l1.1,-.8c8.2,-6.9,13.9,-16.2,16.3,-26.6l.5,-2.5l.4,-2.5l.3,-2.5c1.8,-25.2,-15.3,-47.5,-40,-52.4l-.9,-.1l-1.6,-.3l-2.5,-.3l-2.5,-.1l-2.5,-.1H239.8c-4.2,0,-8.4,.5,-12.5,1.5l-2.5,.7l-2.5,.8c-3.5,1.3,-6.8,2.9,-10,5l-.5,.3l-2,1.4l-1.4,1.1c-8,6.4,-13.9,15.1,-16.8,25l-.6,2.5l-.5,2.5l-.4,2.5c-3.1,25,12.8,48.2,37.2,54.2l2.5,.6l.9,.1l1.6,.3Z" class="g2_344"/>
<path d="M230.7,259l-.9,-.1l-2.5,-.6l-2.5,-.6c-23.1,-7.1,-37.7,-29.6,-34.7,-53.6l.4,-2.5l.5,-2.5l.6,-2.5c2.9,-9.9,8.8,-18.6,16.8,-25l1.4,-1.1l2,-1.4l.5,-.3c3.2,-2.1,6.5,-3.7,10,-5l2.5,-.8l2.5,-.7l2.5,-.6l.9,-.1l1.6,-.3l2.5,-.3l2.5,-.1l2.5,-.1H362.2l2.5,.1l2.5,.1l2.5,.3l1.6,.3l.9,.1l2.5,.6c23.5,5.8,39.3,27.6,37.5,51.8l-.3,2.5l-.4,2.5l-.5,2.5c-2.4,10.4,-8.1,19.7,-16.3,26.6l-1.1,.8l-1.4,1.1l-2,1.4c-3,2,-6.4,3.8,-9.8,5l-.7,.3l-2.5,.9c-4.8,1.4,-9.9,2.2,-15,2.1H237.3l-2.5,-.2l-2.5,-.3l-1.6,-.3Zm1.6,25.2l2.5,.2l2.5,.1H362.2c11.3,.1,22.3,-2.3,32.5,-7.2l1.6,-.8l.9,-.4c8.6,-4.5,16.3,-10.7,22.5,-18.1l1.2,-1.5l1.3,-1.6l.6,-.9l1.7,-2.5l.2,-.2v-82l-.2,-.2l-1.7,-2.5l-.6,-.8l-1.3,-1.7l-1.2,-1.5l-.9,-1l-1.6,-1.8c-2.3,-2.5,-4.9,-4.9,-7.5,-7l-1.5,-1.2l-1,-.8l-2.4,-1.7c-9,-6.1,-19.3,-10.3,-30.1,-12l-2.5,-.4l-.8,-.1l-1.7,-.2l-2.5,-.2l-2.5,-.1H239.8c-4.2,0,-8.4,.3,-12.5,1l-2.5,.4l-2.5,.6c-3.8,.8,-7.6,2,-11.1,3.5l-1.4,.6l-2.5,1.1l-1.6,.8c-8.6,4.3,-16.2,10.3,-22.5,17.5l-.9,1l-1.2,1.5l-1.3,1.7l-.6,.8l-1.7,2.5l-.2,.2v82l.2,.2l1.7,2.5l.6,.9l1.3,1.6l1.2,1.5l.9,1c2.3,2.7,4.8,5.2,7.5,7.5l1.6,1.4l1.5,1.1l1,.8c8.9,6.6,19.2,11.2,30,13.3l2.5,.5l2.5,.3l2.5,.3Z" class="g3_344"/>
<path d="M232.3,309l2.5,.2h2.5l2.5,.1H362.2l2.5,-.1h2.5l2.5,-.2h.2l2.3,-.2l2.5,-.3l2.5,-.3c4.2,-.6,8.4,-1.5,12.5,-2.7l2.5,-.7l2.4,-.8h.1c9.9,-3.4,19.1,-8.3,27.5,-14.5l.6,-.5l1.9,-1.4V251.3l-.2,.2l-1.7,2.5c-13.6,18.7,-35,29.9,-58.1,30.5H239.8c-24,.2,-46.5,-11.1,-60.6,-30.5l-1.7,-2.5l-.2,-.2v36.3l1.9,1.4c15.3,11.7,33.8,18.7,53,20h.1Z" class="g4_344"/>
<path d="M177.5,169.1l1.7,-2.5l.6,-.8c14.2,-18.9,36.4,-29.9,60,-29.7H364.7c23.1,.6,44.5,11.9,58.1,30.5l1.7,2.5l.2,.2V133.1l-1.9,-1.5l-.6,-.4C405.7,118.7,385.4,111.8,364.7,111.4H239.8c-21.6,-.2,-42.7,6.8,-60,19.8l-.6,.4l-1.9,1.5v36.2l.2,-.2Z" class="g4_344"/>
<path d="M362.2,334H239.8c-20.9,.1,-41.6,-5.1,-60,-15.2l-2.5,-1.4V287.6l1.9,1.4l.6,.5c16.6,12.4,36.8,19.4,57.5,19.7l2.5,.1H362.2c21.6,.1,42.7,-6.9,60,-19.8l.6,-.5l1.9,-1.4v29.8l-2.5,1.4c-17.6,9.7,-37.4,14.9,-57.5,15.2h-2.5Z" class="g5_344"/>
<path d="M424.7,133.1l-1.9,-1.5l-.6,-.4C405.7,118.7,385.4,111.8,364.7,111.4H239.8c-21.6,-.2,-42.7,6.8,-60,19.8l-.6,.4l-1.9,1.5V103.2l2.5,-1.4l.4,-.2C197.7,92.1,217.4,87,237.3,86.7l2.5,-.1H362.2c20.8,-.1,41.4,5.1,59.7,15l.3,.2l2.5,1.4v29.9Z" class="g5_344"/>
<path d="M177,337.3h.7V334H177Z" class="g6_344"/>
<path d="M172,346.8h1.5v-5.2l-1.6,.4v-.9l1.6,-.3h.9v6h1.5v.8H172v-.8Z" class="g6_344"/>
<path d="M179.7,340.7c.8,0,1.4,.3,1.8,.9c.4,.6,.6,1.4,.6,2.6c0,1.1,-.2,2,-.6,2.6c-.4,.6,-1,.9,-1.8,.9c-.7,0,-1.3,-.3,-1.7,-.9c-.4,-.6,-.6,-1.5,-.6,-2.6c0,-1.2,.2,-2,.6,-2.6c.4,-.6,1,-.9,1.7,-.9Zm0,.7c-.4,0,-.8,.2,-1,.7c-.3,.5,-.4,1.2,-.4,2.1c0,.9,.1,1.6,.4,2.1c.2,.4,.6,.7,1,.7c.5,0,.9,-.3,1.1,-.7c.3,-.5,.4,-1.2,.4,-2.1c0,-.9,-.1,-1.6,-.4,-2.1c-.2,-.5,-.6,-.7,-1.1,-.7Z" class="g6_344"/>
<path d="M188.6,340.7c.8,0,1.4,.3,1.8,.9c.4,.6,.6,1.4,.6,2.6c0,1.1,-.2,2,-.6,2.6c-.4,.6,-1,.9,-1.8,.9c-.7,0,-1.3,-.3,-1.7,-.9c-.4,-.6,-.6,-1.5,-.6,-2.6c0,-1.2,.2,-2,.6,-2.6c.4,-.6,1,-.9,1.7,-.9Zm0,.7c-.5,0,-.8,.2,-1.1,.7c-.2,.5,-.3,1.2,-.3,2.1c0,.9,.1,1.6,.3,2.1c.3,.4,.6,.7,1.1,.7c.5,0,.8,-.3,1.1,-.7c.2,-.5,.3,-1.2,.3,-2.1c0,-.9,-.1,-1.6,-.3,-2.1c-.3,-.5,-.6,-.7,-1.1,-.7Z" class="g6_344"/>
<path d="M207.9,337.3h.7V334h-.7Z" class="g6_344"/>
<path d="M205.5,340.8h4.4v.4l-2.5,6.4h-.9l2.3,-6h-3.3v-.8Z" class="g6_344"/>
<path d="M214.6,340.8h3.6v.8h-2.7v1.6l.4,-.1h.4c.7,0,1.3,.2,1.8,.6c.4,.4,.6,1,.6,1.7c0,.7,-.2,1.3,-.7,1.7c-.4,.4,-1.1,.6,-1.9,.6c-.3,0,-.6,0,-.8,-.1c-.3,0,-.6,-.1,-1,-.2v-.9c.3,.1,.6,.2,.9,.3c.3,.1,.6,.1,.9,.1c.5,0,.9,-.1,1.2,-.4c.4,-.3,.5,-.6,.5,-1.1c0,-.5,-.1,-.9,-.5,-1.1c-.3,-.3,-.7,-.4,-1.2,-.4c-.2,0,-.5,0,-.7,0c-.3,.1,-.5,.2,-.8,.3v-3.4Z" class="g6_344"/>
<path d="M238.8,337.3h.7V334h-.7Z" class="g6_344"/>
<path d="M236.7,340.8h3.6v.8h-2.8v1.6l.4,-.1h.4c.8,0,1.4,.2,1.8,.6c.5,.4,.7,1,.7,1.7c0,.7,-.3,1.3,-.7,1.7c-.5,.4,-1.1,.6,-1.9,.6c-.3,0,-.6,0,-.9,-.1c-.3,0,-.6,-.1,-.9,-.2v-.9c.3,.1,.5,.2,.8,.3c.3,.1,.6,.1,1,.1c.5,0,.9,-.1,1.2,-.4c.3,-.3,.5,-.6,.5,-1.1c0,-.5,-.2,-.9,-.5,-1.1c-.3,-.3,-.7,-.4,-1.2,-.4c-.3,0,-.5,0,-.8,0c-.2,.1,-.5,.2,-.7,.3v-3.4Z" class="g6_344"/>
<path d="M247.5,340.7c.8,0,1.3,.3,1.7,.9c.4,.6,.6,1.4,.6,2.6c0,1.1,-.2,2,-.6,2.6c-.4,.6,-.9,.9,-1.7,.9c-.8,0,-1.3,-.3,-1.7,-.9c-.4,-.6,-.6,-1.5,-.6,-2.6c0,-1.2,.2,-2,.6,-2.6c.4,-.6,.9,-.9,1.7,-.9Zm0,.7c-.5,0,-.8,.2,-1.1,.7c-.2,.5,-.3,1.2,-.3,2.1c0,.9,.1,1.6,.3,2.1c.3,.4,.6,.7,1.1,.7c.5,0,.8,-.3,1.1,-.7c.2,-.5,.3,-1.2,.3,-2.1c0,-.9,-.1,-1.6,-.3,-2.1c-.3,-.5,-.6,-.7,-1.1,-.7Z" class="g6_344"/>
<path d="M269.7,337.3h.8V334h-.8Z" class="g6_344"/>
<path d="M268.4,346.8h3.2v.8h-4.3v-.8c.3,-.4,.8,-.8,1.4,-1.5c.6,-.6,1,-1,1.1,-1.1c.3,-.4,.5,-.6,.6,-.9c.2,-.2,.2,-.4,.2,-.6c0,-.4,-.1,-.7,-.4,-.9c-.2,-.2,-.5,-.4,-1,-.4c-.2,0,-.5,.1,-.9,.2c-.3,.1,-.6,.2,-1,.4v-.9c.4,-.1,.7,-.2,1,-.3c.4,-.1,.7,-.1,.9,-.1c.7,0,1.3,.1,1.7,.5c.4,.3,.6,.8,.6,1.4c0,.3,0,.5,-.1,.8c-.1,.2,-.3,.5,-.6,.9c-.1,.1,-.3,.3,-.7,.7c-.4,.5,-1,1,-1.7,1.8Z" class="g6_344"/>
<path d="M276.5,340.8h3.6v.8h-2.8v1.6l.4,-.1h.4c.8,0,1.4,.2,1.8,.6c.4,.4,.7,1,.7,1.7c0,.7,-.3,1.3,-.7,1.7c-.5,.4,-1.1,.6,-1.9,.6c-.3,0,-.6,0,-.9,-.1c-.3,0,-.6,-.1,-.9,-.2v-.9c.2,.1,.5,.2,.8,.3c.3,.1,.6,.1,.9,.1c.6,0,1,-.1,1.3,-.4c.3,-.3,.4,-.6,.4,-1.1c0,-.5,-.1,-.9,-.4,-1.1c-.3,-.3,-.7,-.4,-1.3,-.4c-.2,0,-.4,0,-.7,0c-.2,.1,-.5,.2,-.7,.3v-3.4Z" class="g6_344"/>
<path d="M300.6,337.3h.8V334h-.8Z" class="g6_344"/>
<path d="M296.6,340.7c.7,0,1.3,.3,1.7,.9c.4,.6,.6,1.4,.6,2.6c0,1.1,-.2,2,-.6,2.6c-.4,.6,-1,.9,-1.7,.9c-.8,0,-1.4,-.3,-1.8,-.9c-.4,-.6,-.6,-1.5,-.6,-2.6c0,-1.2,.2,-2,.6,-2.6c.4,-.6,1,-.9,1.8,-.9Zm0,.7c-.5,0,-.9,.2,-1.1,.7c-.2,.5,-.4,1.2,-.4,2.1c0,.9,.2,1.6,.4,2.1c.2,.4,.6,.7,1.1,.7c.4,0,.8,-.3,1,-.7c.3,-.5,.4,-1.2,.4,-2.1c0,-.9,-.1,-1.6,-.4,-2.1c-.2,-.5,-.6,-.7,-1,-.7Z" class="g6_344"/>
<path d="M305.4,340.7c.8,0,1.4,.3,1.8,.9c.4,.6,.6,1.4,.6,2.6c0,1.1,-.2,2,-.6,2.6c-.4,.6,-1,.9,-1.8,.9c-.7,0,-1.3,-.3,-1.7,-.9c-.4,-.6,-.6,-1.5,-.6,-2.6c0,-1.2,.2,-2,.6,-2.6c.4,-.6,1,-.9,1.7,-.9Zm0,.7c-.4,0,-.8,.2,-1,.7c-.3,.5,-.4,1.2,-.4,2.1c0,.9,.1,1.6,.4,2.1c.2,.4,.6,.7,1,.7c.5,0,.9,-.3,1.1,-.7c.2,-.5,.4,-1.2,.4,-2.1c0,-.9,-.2,-1.6,-.4,-2.1c-.2,-.5,-.6,-.7,-1.1,-.7Z" class="g6_344"/>
<path d="M331.5,337.3h.8V334h-.8Z" class="g6_344"/>
<path d="M326.3,346.8h3.2v.8h-4.3v-.8c.4,-.4,.8,-.8,1.4,-1.5c.6,-.6,1,-1,1.2,-1.1c.3,-.4,.5,-.6,.6,-.9c.1,-.2,.2,-.4,.2,-.6c0,-.4,-.2,-.7,-.4,-.9c-.3,-.2,-.6,-.4,-1,-.4c-.3,0,-.6,.1,-.9,.2c-.3,.1,-.7,.2,-1,.4v-.9c.3,-.1,.7,-.2,1,-.3c.3,-.1,.6,-.1,.9,-.1c.7,0,1.2,.1,1.7,.5c.4,.3,.6,.8,.6,1.4c0,.3,-.1,.5,-.2,.8c-.1,.2,-.3,.5,-.5,.9c-.1,.1,-.4,.3,-.8,.7c-.4,.5,-.9,1,-1.7,1.8Z" class="g6_344"/>
<path d="M334.4,340.8H338v.8h-2.8v1.6l.4,-.1h.4c.8,0,1.4,.2,1.8,.6c.5,.4,.7,1,.7,1.7c0,.7,-.2,1.3,-.7,1.7c-.4,.4,-1.1,.6,-1.9,.6c-.3,0,-.6,0,-.9,-.1c-.3,0,-.6,-.1,-.9,-.2v-.9c.3,.1,.6,.2,.9,.3c.3,.1,.6,.1,.9,.1c.5,0,.9,-.1,1.2,-.4c.3,-.3,.5,-.6,.5,-1.1c0,-.5,-.2,-.9,-.5,-1.1c-.3,-.3,-.7,-.4,-1.2,-.4c-.3,0,-.5,0,-.7,0c-.3,.1,-.5,.2,-.8,.3v-3.4Z" class="g6_344"/>
<path d="M362.5,337.3h.7V334h-.7Z" class="g6_344"/>
<path d="M356.5,340.8h3.6v.8h-2.8v1.6l.4,-.1h.4c.8,0,1.4,.2,1.8,.6c.4,.4,.7,1,.7,1.7c0,.7,-.3,1.3,-.7,1.7c-.5,.4,-1.1,.6,-1.9,.6c-.3,0,-.6,0,-.9,-.1c-.3,0,-.6,-.1,-.9,-.2v-.9c.2,.1,.5,.2,.8,.3c.3,.1,.6,.1,.9,.1c.6,0,1,-.1,1.3,-.4c.3,-.3,.4,-.6,.4,-1.1c0,-.5,-.1,-.9,-.4,-1.1c-.3,-.3,-.7,-.4,-1.3,-.4c-.2,0,-.5,0,-.7,0c-.2,.1,-.5,.2,-.7,.3v-3.4Z" class="g6_344"/>
<path d="M367.3,340.7c.7,0,1.3,.3,1.7,.9c.4,.6,.6,1.4,.6,2.6c0,1.1,-.2,2,-.6,2.6c-.4,.6,-1,.9,-1.7,.9c-.8,0,-1.4,-.3,-1.8,-.9c-.4,-.6,-.6,-1.5,-.6,-2.6c0,-1.2,.2,-2,.6,-2.6c.4,-.6,1,-.9,1.8,-.9Zm0,.7c-.5,0,-.9,.2,-1.1,.7c-.2,.5,-.3,1.2,-.3,2.1c0,.9,.1,1.6,.3,2.1c.2,.4,.6,.7,1.1,.7c.5,0,.8,-.3,1,-.7c.3,-.5,.4,-1.2,.4,-2.1c0,-.9,-.1,-1.6,-.4,-2.1c-.2,-.5,-.5,-.7,-1,-.7Z" class="g6_344"/>
<path d="M393.4,337.3h.7V334h-.7Z" class="g6_344"/>
<path d="M387.1,340.8h4.4v.4l-2.5,6.4h-.9l2.3,-6h-3.3v-.8Z" class="g6_344"/>
<path d="M396.2,340.8h3.6v.8h-2.7v1.6l.4,-.1h.4c.7,0,1.3,.2,1.8,.6c.4,.4,.6,1,.6,1.7c0,.7,-.2,1.3,-.6,1.7c-.5,.4,-1.1,.6,-2,.6c-.2,0,-.5,0,-.8,-.1c-.3,0,-.6,-.1,-.9,-.2v-.9c.2,.1,.5,.2,.8,.3c.3,.1,.6,.1,.9,.1c.5,0,1,-.1,1.3,-.4c.3,-.3,.4,-.6,.4,-1.1c0,-.5,-.1,-.9,-.4,-1.1c-.3,-.3,-.8,-.4,-1.3,-.4c-.2,0,-.5,0,-.7,0c-.3,.1,-.5,.2,-.8,.3v-3.4Z" class="g6_344"/>
<path d="M424.3,337.3h.8V334h-.8Z" class="g6_344"/>
<path d="M415.5,346.8H417v-5.2l-1.6,.4v-.9l1.6,-.3h.9v6h1.5v.8h-3.9v-.8Z" class="g6_344"/>
<path d="M423.2,340.7c.8,0,1.3,.3,1.7,.9c.4,.6,.6,1.4,.6,2.6c0,1.1,-.2,2,-.6,2.6c-.4,.6,-.9,.9,-1.7,.9c-.8,0,-1.3,-.3,-1.7,-.9c-.4,-.6,-.6,-1.5,-.6,-2.6c0,-1.2,.2,-2,.6,-2.6c.4,-.6,.9,-.9,1.7,-.9Zm0,.7c-.5,0,-.8,.2,-1.1,.7c-.2,.5,-.3,1.2,-.3,2.1c0,.9,.1,1.6,.3,2.1c.3,.4,.6,.7,1.1,.7c.5,0,.8,-.3,1.1,-.7c.2,-.5,.3,-1.2,.3,-2.1c0,-.9,-.1,-1.6,-.3,-2.1c-.3,-.5,-.6,-.7,-1.1,-.7Z" class="g6_344"/>
<path d="M432.1,340.7c.7,0,1.3,.3,1.7,.9c.4,.6,.6,1.4,.6,2.6c0,1.1,-.2,2,-.6,2.6c-.4,.6,-1,.9,-1.7,.9c-.8,0,-1.4,-.3,-1.8,-.9c-.4,-.6,-.6,-1.5,-.6,-2.6c0,-1.2,.2,-2,.6,-2.6c.4,-.6,1,-.9,1.8,-.9Zm0,.7c-.5,0,-.9,.2,-1.1,.7c-.2,.5,-.3,1.2,-.3,2.1c0,.9,.1,1.6,.3,2.1c.2,.4,.6,.7,1.1,.7c.4,0,.8,-.3,1,-.7c.3,-.5,.4,-1.2,.4,-2.1c0,-.9,-.1,-1.6,-.4,-2.1c-.2,-.5,-.6,-.7,-1,-.7Z" class="g6_344"/>
<path d="M174.1,334.4h3.2v-.8h-3.2Z" class="g6_344"/>
<path d="M143.3,335h5.8v-.8h-5.8Z" class="g6_344"/>
<path d="M151.3,336.8h1.5v-5.2l-1.7,.3v-.8l1.7,-.3h.9v6h1.5v.7h-3.9v-.7Z" class="g6_344"/>
<path d="M159,330.6c.8,0,1.3,.3,1.7,.9c.4,.6,.6,1.5,.6,2.6c0,1.2,-.2,2.1,-.6,2.7c-.4,.6,-.9,.9,-1.7,.9c-.8,0,-1.3,-.3,-1.7,-.9c-.4,-.6,-.6,-1.5,-.6,-2.7c0,-1.1,.2,-2,.6,-2.6c.4,-.6,.9,-.9,1.7,-.9Zm0,.8c-.5,0,-.8,.2,-1.1,.7c-.2,.4,-.3,1.1,-.3,2c0,1,.1,1.7,.3,2.1c.3,.5,.6,.7,1.1,.7c.5,0,.8,-.2,1.1,-.7c.2,-.4,.3,-1.1,.3,-2.1c0,-.9,-.1,-1.6,-.3,-2c-.3,-.5,-.6,-.7,-1.1,-.7Z" class="g6_344"/>
<path d="M162.9,337.5h1v-1.1h-1Z" class="g6_344"/>
<path d="M167.9,330.6c.7,0,1.3,.3,1.7,.9c.4,.6,.6,1.5,.6,2.6c0,1.2,-.2,2.1,-.6,2.7c-.4,.6,-1,.9,-1.7,.9c-.8,0,-1.4,-.3,-1.8,-.9c-.4,-.6,-.6,-1.5,-.6,-2.7c0,-1.1,.2,-2,.6,-2.6c.4,-.6,1,-.9,1.8,-.9Zm0,.8c-.5,0,-.9,.2,-1.1,.7c-.2,.4,-.4,1.1,-.4,2c0,1,.2,1.7,.4,2.1c.2,.5,.6,.7,1.1,.7c.4,0,.8,-.2,1,-.7c.3,-.4,.4,-1.1,.4,-2.1c0,-.9,-.1,-1.6,-.4,-2c-.2,-.5,-.6,-.7,-1,-.7Z" class="g6_344"/>
<path d="M174.1,303.5h3.2v-.8h-3.2Z" class="g6_344"/>
<path d="M149.2,304.1h5.9v-.8h-5.9Z" class="g6_344"/>
<path d="M156.8,299.8h4.4v.4l-2.5,6.4h-1l2.4,-6h-3.3v-.8Z" class="g6_344"/>
<path d="M162.9,306.6h1v-1.1h-1Z" class="g6_344"/>
<path d="M165.9,299.8h3.6v.8h-2.7v1.7l.3,-.1l.4,-.1c.8,0,1.4,.2,1.8,.7c.5,.4,.7,.9,.7,1.6c0,.8,-.2,1.3,-.7,1.7c-.4,.4,-1.1,.6,-1.9,.6c-.3,0,-.6,0,-.9,0c-.3,-.1,-.6,-.2,-.9,-.2v-1c.3,.2,.6,.3,.9,.4c.3,0,.6,.1,.9,.1c.5,0,.9,-.2,1.2,-.4c.3,-.3,.5,-.7,.5,-1.2c0,-.4,-.2,-.8,-.5,-1.1c-.3,-.3,-.7,-.4,-1.2,-.4c-.3,0,-.5,0,-.7,.1c-.3,0,-.5,.1,-.8,.2v-3.4Z" class="g6_344"/>
<path d="M174.1,272.5h3.2v-.7h-3.2Z" class="g6_344"/>
<path d="M149.2,273.2h5.9v-.8h-5.9Z" class="g6_344"/>
<path d="M157,268.9h3.6v.8h-2.7v1.6l.4,-.1h.4c.7,0,1.3,.2,1.8,.6c.4,.4,.6,1,.6,1.7c0,.7,-.2,1.3,-.6,1.7c-.5,.4,-1.1,.6,-2,.6c-.2,0,-.5,0,-.8,0c-.3,-.1,-.6,-.2,-.9,-.3v-.9c.2,.2,.5,.3,.8,.3c.3,.1,.6,.2,.9,.2c.5,0,1,-.2,1.3,-.5c.3,-.2,.4,-.6,.4,-1.1c0,-.5,-.1,-.8,-.4,-1.1c-.3,-.3,-.8,-.4,-1.3,-.4c-.2,0,-.5,0,-.7,.1c-.3,0,-.5,.1,-.8,.2v-3.4Z" class="g6_344"/>
<path d="M162.9,275.7h1v-1.2h-1Z" class="g6_344"/>
<path d="M167.9,268.8c.7,0,1.3,.3,1.7,.9c.4,.6,.6,1.5,.6,2.6c0,1.2,-.2,2,-.6,2.6c-.4,.6,-1,.9,-1.7,.9c-.8,0,-1.4,-.3,-1.8,-.9c-.4,-.6,-.6,-1.4,-.6,-2.6c0,-1.1,.2,-2,.6,-2.6c.4,-.6,1,-.9,1.8,-.9Zm0,.7c-.5,0,-.9,.3,-1.1,.7c-.2,.5,-.4,1.2,-.4,2.1c0,.9,.2,1.6,.4,2.1c.2,.5,.6,.7,1.1,.7c.4,0,.8,-.2,1,-.7c.3,-.5,.4,-1.2,.4,-2.1c0,-.9,-.1,-1.6,-.4,-2.1c-.2,-.4,-.6,-.7,-1,-.7Z" class="g6_344"/>
<path d="M174.1,241.6h3.2v-.7h-3.2Z" class="g6_344"/>
<path d="M149.2,242.2h5.9v-.7h-5.9Z" class="g6_344"/>
<path d="M157.8,244H161v.8h-4.3V244c.4,-.4,.8,-.8,1.4,-1.4c.6,-.7,1,-1,1.2,-1.2c.3,-.4,.5,-.6,.6,-.9c.1,-.2,.2,-.4,.2,-.6c0,-.4,-.2,-.7,-.4,-.9c-.3,-.2,-.6,-.4,-1,-.4c-.3,0,-.6,.1,-.9,.2c-.3,.1,-.7,.2,-1,.4v-.9c.3,-.1,.7,-.2,1,-.3c.3,-.1,.6,-.1,.9,-.1c.7,0,1.2,.1,1.7,.5c.4,.3,.6,.8,.6,1.4c0,.3,-.1,.6,-.2,.8c-.1,.2,-.3,.5,-.5,.9c-.1,.1,-.4,.3,-.8,.7c-.4,.5,-.9,1,-1.7,1.8Z" class="g6_344"/>
<path d="M162.9,244.8h1v-1.2h-1Z" class="g6_344"/>
<path d="M165.9,238h3.6v.8h-2.7v1.6l.3,-.1h.4c.8,0,1.4,.2,1.8,.6c.5,.4,.7,1,.7,1.7c0,.7,-.2,1.3,-.7,1.7c-.4,.4,-1.1,.6,-1.9,.6c-.3,0,-.6,0,-.9,-.1c-.3,0,-.6,-.1,-.9,-.2v-.9c.3,.1,.6,.2,.9,.3c.3,.1,.6,.1,.9,.1c.5,0,.9,-.1,1.2,-.4c.3,-.3,.5,-.6,.5,-1.1c0,-.5,-.2,-.8,-.5,-1.1c-.3,-.3,-.7,-.4,-1.2,-.4c-.3,0,-.5,0,-.7,0c-.3,.1,-.5,.2,-.8,.3V238Z" class="g6_344"/>
<path d="M174.1,210.7h3.2v-.8h-3.2Z" class="g6_344"/>
<path d="M159,207c.8,0,1.3,.3,1.7,.9c.4,.6,.6,1.4,.6,2.6c0,1.1,-.2,2,-.6,2.6c-.4,.6,-.9,.9,-1.7,.9c-.8,0,-1.3,-.3,-1.7,-.9c-.4,-.6,-.6,-1.5,-.6,-2.6c0,-1.2,.2,-2,.6,-2.6c.4,-.6,.9,-.9,1.7,-.9Zm0,.7c-.5,0,-.8,.2,-1.1,.7c-.2,.4,-.3,1.1,-.3,2.1c0,.9,.1,1.6,.3,2.1c.3,.4,.6,.7,1.1,.7c.5,0,.8,-.3,1.1,-.7c.2,-.5,.3,-1.2,.3,-2.1c0,-1,-.1,-1.7,-.3,-2.1c-.3,-.5,-.6,-.7,-1.1,-.7Z" class="g6_344"/>
<path d="M162.9,213.9h1v-1.2h-1Z" class="g6_344"/>
<path d="M167.9,207c.7,0,1.3,.3,1.7,.9c.4,.6,.6,1.4,.6,2.6c0,1.1,-.2,2,-.6,2.6c-.4,.6,-1,.9,-1.7,.9c-.8,0,-1.4,-.3,-1.8,-.9c-.4,-.6,-.6,-1.5,-.6,-2.6c0,-1.2,.2,-2,.6,-2.6c.4,-.6,1,-.9,1.8,-.9Zm0,.7c-.5,0,-.9,.2,-1.1,.7c-.2,.4,-.4,1.1,-.4,2.1c0,.9,.2,1.6,.4,2.1c.2,.4,.6,.7,1.1,.7c.4,0,.8,-.3,1,-.7c.3,-.5,.4,-1.2,.4,-2.1c0,-1,-.1,-1.7,-.4,-2.1c-.2,-.5,-.6,-.7,-1,-.7Z" class="g6_344"/>
<path d="M174.1,179.8h3.2V179h-3.2Z" class="g6_344"/>
<path d="M157.8,182.2H161v.7h-4.3v-.7c.4,-.4,.8,-.9,1.4,-1.5c.6,-.6,1,-1,1.2,-1.2c.3,-.3,.5,-.6,.6,-.8c.1,-.2,.2,-.5,.2,-.7c0,-.3,-.2,-.6,-.4,-.9c-.3,-.2,-.6,-.3,-1,-.3c-.3,0,-.6,.1,-.9,.2c-.3,.1,-.7,.2,-1,.4v-.9c.3,-.2,.7,-.3,1,-.4c.3,0,.6,-.1,.9,-.1c.7,0,1.2,.2,1.7,.6c.4,.3,.6,.8,.6,1.4c0,.2,-.1,.5,-.2,.8c-.1,.2,-.3,.5,-.5,.8c-.1,.1,-.4,.4,-.8,.8c-.4,.4,-.9,1,-1.7,1.8Z" class="g6_344"/>
<path d="M162.9,182.9h1v-1.1h-1Z" class="g6_344"/>
<path d="M165.9,176.2h3.6v.7h-2.7v1.7l.3,-.1h.4c.8,0,1.4,.2,1.8,.6c.5,.4,.7,1,.7,1.7c0,.7,-.2,1.3,-.7,1.7c-.4,.4,-1.1,.6,-1.9,.6c-.3,0,-.6,-.1,-.9,-.1c-.3,-.1,-.6,-.1,-.9,-.2v-.9c.3,.1,.6,.2,.9,.3c.3,.1,.6,.1,.9,.1c.5,0,.9,-.1,1.2,-.4c.3,-.3,.5,-.7,.5,-1.1c0,-.5,-.2,-.9,-.5,-1.2c-.3,-.2,-.7,-.4,-1.2,-.4c-.3,0,-.5,.1,-.7,.1c-.3,.1,-.5,.1,-.8,.3v-3.4Z" class="g6_344"/>
<path d="M174.1,148.9h3.2v-.8h-3.2Z" class="g6_344"/>
<path d="M157,145.2h3.6v.8h-2.7v1.7l.4,-.1l.4,-.1c.7,0,1.3,.2,1.8,.7c.4,.4,.6,.9,.6,1.6c0,.8,-.2,1.3,-.6,1.7c-.5,.4,-1.1,.6,-2,.6c-.2,0,-.5,0,-.8,0c-.3,-.1,-.6,-.1,-.9,-.2v-1c.2,.2,.5,.3,.8,.4c.3,0,.6,.1,.9,.1c.5,0,1,-.2,1.3,-.4c.3,-.3,.4,-.7,.4,-1.2c0,-.4,-.1,-.8,-.4,-1.1c-.3,-.3,-.8,-.4,-1.3,-.4c-.2,0,-.5,0,-.7,.1c-.3,0,-.5,.1,-.8,.2v-3.4Z" class="g6_344"/>
<path d="M162.9,152h1v-1.1h-1Z" class="g6_344"/>
<path d="M167.9,145.1c.7,0,1.3,.3,1.7,.9c.4,.6,.6,1.5,.6,2.6c0,1.2,-.2,2,-.6,2.6c-.4,.6,-1,.9,-1.7,.9c-.8,0,-1.4,-.3,-1.8,-.9c-.4,-.6,-.6,-1.4,-.6,-2.6c0,-1.1,.2,-2,.6,-2.6c.4,-.6,1,-.9,1.8,-.9Zm0,.7c-.5,0,-.9,.3,-1.1,.7c-.2,.5,-.4,1.2,-.4,2.1c0,1,.2,1.7,.4,2.1c.2,.5,.6,.7,1.1,.7c.4,0,.8,-.2,1,-.7c.3,-.4,.4,-1.1,.4,-2.1c0,-.9,-.1,-1.6,-.4,-2.1c-.2,-.4,-.6,-.7,-1,-.7Z" class="g6_344"/>
<path d="M174.1,117.9h3.2v-.7h-3.2Z" class="g6_344"/>
<path d="M156.8,114.3h4.4v.4l-2.5,6.4h-1l2.4,-6h-3.3v-.8Z" class="g6_344"/>
<path d="M162.9,121.1h1v-1.2h-1Z" class="g6_344"/>
<path d="M165.9,114.3h3.6v.8h-2.7v1.6l.3,-.1h.4c.8,0,1.4,.2,1.8,.6c.5,.5,.7,1,.7,1.7c0,.7,-.2,1.3,-.7,1.7c-.4,.4,-1.1,.6,-1.9,.6c-.3,0,-.6,0,-.9,0c-.3,-.1,-.6,-.2,-.9,-.3V120c.3,.2,.6,.3,.9,.3c.3,.1,.6,.2,.9,.2c.5,0,.9,-.2,1.2,-.5c.3,-.2,.5,-.6,.5,-1.1c0,-.5,-.2,-.8,-.5,-1.1c-.3,-.3,-.7,-.4,-1.2,-.4c-.3,0,-.5,0,-.7,.1c-.3,0,-.5,.1,-.8,.2v-3.4Z" class="g6_344"/>
<path d="M174.1,87h3.2v-.7h-3.2Z" class="g6_344"/>
<path d="M151.3,89.4h1.5V84.2l-1.7,.4v-.9l1.7,-.3h.9v6h1.5v.8h-3.9v-.8Z" class="g6_344"/>
<path d="M159,83.3c.8,0,1.3,.3,1.7,.9c.4,.6,.6,1.5,.6,2.6c0,1.1,-.2,2,-.6,2.6c-.4,.6,-.9,.9,-1.7,.9c-.8,0,-1.3,-.3,-1.7,-.9c-.4,-.6,-.6,-1.5,-.6,-2.6c0,-1.1,.2,-2,.6,-2.6c.4,-.6,.9,-.9,1.7,-.9Zm0,.7c-.5,0,-.8,.2,-1.1,.7c-.2,.5,-.3,1.2,-.3,2.1c0,.9,.1,1.6,.3,2.1c.3,.4,.6,.7,1.1,.7c.5,0,.8,-.3,1.1,-.7c.2,-.5,.3,-1.2,.3,-2.1c0,-.9,-.1,-1.6,-.3,-2.1c-.3,-.5,-.6,-.7,-1.1,-.7Z" class="g6_344"/>
<path d="M162.9,90.2h1V89h-1Z" class="g6_344"/>
<path d="M167.9,83.3c.7,0,1.3,.3,1.7,.9c.4,.6,.6,1.5,.6,2.6c0,1.1,-.2,2,-.6,2.6c-.4,.6,-1,.9,-1.7,.9c-.8,0,-1.4,-.3,-1.8,-.9c-.4,-.6,-.6,-1.5,-.6,-2.6c0,-1.1,.2,-2,.6,-2.6c.4,-.6,1,-.9,1.8,-.9Zm0,.7c-.5,0,-.9,.2,-1.1,.7c-.2,.5,-.4,1.2,-.4,2.1c0,.9,.2,1.6,.4,2.1c.2,.4,.6,.7,1.1,.7c.4,0,.8,-.3,1,-.7c.3,-.5,.4,-1.2,.4,-2.1c0,-.9,-.1,-1.6,-.4,-2.1c-.2,-.5,-.6,-.7,-1,-.7Z" class="g6_344"/>
<path d="M232.3,234.1l.1,-.4h-.1c-8.1,-2.4,-14.5,-9,-16.7,-17.2l-.4,-2.1l-.1,-.4l-.3,-2.4v-2.5l.3,-2.5l.1,-.4l.4,-2c1.9,-7.4,7.3,-13.5,14.3,-16.4l2.4,-.9h.1l2.5,-.6l2.4,-.3H364.7l2.4,.3l2.5,.6h.1l2.4,.9l2.4,1.2l.8,.4c4.7,2.8,8.4,7.2,10.3,12.3l.8,2.5l.4,2l.1,.4l.3,2.5v2.5l-.3,2.4l-.1,.4l-.4,2.1l-.8,2.4c-1.7,4.5,-4.7,8.5,-8.6,11.2l-1.7,1.1l-.8,.5l-2.4,1.2l-2.4,.8h-.1l-2.5,.6l-2.4,.3l-2.5,.1H239.8l-2.5,-.1l-2.4,-.3l-2.5,-.6l-.1,.4l.1,-.4l-.1,.4l-.1,.4l2.5,.5l2.5,.4H364.8l2.5,-.4l2.5,-.5v-.1h.1c2,-.6,4,-1.4,5.8,-2.5l1.7,-1.1v-.1l1.8,-1.3c3.9,-3.3,6.7,-7.8,7.9,-12.8l.5,-2l.1,-.5c1.9,-12.5,-5.8,-24.3,-17.9,-27.9l-2.5,-.6l-2.5,-.3h-.1l-2.5,-.1H239.8l-2.5,.1h-.1l-2.5,.3l-2.5,.6c-1.7,.6,-3.5,1.2,-5.1,2.1l-.8,.5l-1.7,1.1c-4,2.9,-7.2,6.9,-8.9,11.6l-.8,2.5l-.5,2.1c-2.2,12.5,5.5,24.7,17.7,28.3h.1v.1l.1,-.4Z" class="g7_344"/>
<path d="M232.3,259.3l.1,-.4l-1.7,-.2l-.8,-.2l-2.5,-.5l-2.5,-.7l-2.5,-.8l-.7,-.3l-1.7,-.7c-12.8,-5.4,-22.6,-16,-27.2,-29.1l-.1,-.3L192,224c-2.6,-8.9,-2.6,-18.5,0,-27.3l.7,-2.1l.1,-.4c4.6,-13.1,14.4,-23.6,27.2,-29.1l1.7,-.6l.7,-.3l2.5,-.9l2.5,-.6l2.5,-.6l.8,-.1l1.6,-.3l2.5,-.3l2.5,-.1l2.5,-.1H362.2l2.5,.1l2.5,.1l2.5,.3l1.6,.3l.8,.1l2.5,.6l2.5,.6l2.5,.9l.7,.3l1.8,.6c12.7,5.5,22.6,16,27.1,29.1l.1,.4l.7,2.1l.6,2.5l.6,2.4l.3,2.5l.3,2.5v.3l.1,2.2v2.5l-.1,2.1v.3l-.3,2.5l-.3,2.5l-.6,2.5L410,224l-.7,2.1l-.1,.3c-4.5,13.1,-14.4,23.7,-27.1,29.1l-1.8,.7l-.7,.3l-2.5,.8l-2.5,.7l-2.5,.5l-.8,.2l-1.6,.2l-2.5,.3l-2.5,.2H237.3l-2.5,-.2l-2.5,-.3v.4l.1,-.4l-.1,.4v.4l2.5,.3l2.5,.1l2.5,.1H362.2l2.5,-.1l2.5,-.1h.1l2.5,-.3l1.6,-.3l.9,-.1c2.8,-.6,5.6,-1.4,8.3,-2.4l1.7,-.7h.1l2.5,-1.2c5.4,-2.6,10.3,-6.3,14.4,-10.7l.7,-.7l1.5,-1.8c10.3,-12.7,13.8,-29.6,9.2,-45.3l-.6,-2.2l-.2,-.3v-.1l-.9,-2.5c-6.1,-14.7,-18.8,-25.6,-34.2,-29.5l-2.5,-.5l-.9,-.2l-1.6,-.2l-2.5,-.3h-.1l-2.5,-.2H237.3l-2.5,.2c-3.5,.3,-6.8,.9,-10.1,1.9l-2.5,.9l-.8,.2c-7.1,2.7,-13.5,7.1,-18.7,12.6l-.7,.8l-1.5,1.7c-24,30,-7.4,73.8,30.1,80.6l1.6,.3h.1v-.4Z" class="g7_344"/>
<path d="M424.4,251.1l-1.9,2.7l-1.9,2.5c-13.6,17.1,-34.1,27.3,-55.9,27.8H237.3c-22.6,-.5,-43.7,-11.4,-57.2,-29.5l-2.3,-3.3l-.2,-.2l-.6,.4l.1,.3h.1c13.4,20.1,35.9,32.5,60.1,33.1H364.7c3.4,-.1,6.8,-.4,10.1,-1l5,-.9c5.2,-1.3,10.3,-3,15.1,-5.3l2.5,-1.3l3.7,-2c7.7,-4.6,14.5,-10.6,20.1,-17.6l1.9,-2.5l1.9,-2.7l-.6,-.5Z" class="g7_344"/>
<path d="M177.6,169.5l1.9,-2.7c13.5,-18.5,34.9,-29.7,57.8,-30.3H364.7c24,.6,46.2,12.9,59.5,32.8l.2,.2l.6,-.4l-.1,-.2c-13.5,-20.1,-36,-32.5,-60.2,-33.1l-114.9,-.1l-12.5,.1c-3.4,.1,-6.7,.3,-10.1,.9l-5,1c-5.2,1.2,-10.2,3,-15.1,5.3l-2.5,1.2l-3.6,2.1c-7.7,4.6,-14.6,10.6,-20.2,17.6l-1.9,2.5l-1.9,2.7l.6,.4Z" class="g7_344"/>
<path d="M424.4,287.3l-1.8,1.4l-.6,.5l-2.5,1.8l-.3,.2l-2.2,1.5l-1.6,1l.2,.3l-.2,-.3l-.9,.6l-2.5,1.4l-.8,.5l-1.7,.9l-2.5,1.3l-.5,.3l-2,.9l-2.5,1.2l-.9,.4l-1.5,.6l-2.5,.9l-2.5,.9l-.1,.1l-2.4,.7c-6.5,2.1,-13.2,3.4,-19.9,4l-2.4,.2h-.1l-2.5,.2l-2.5,.1H237.3l-2.5,-.1l-2.5,-.2h-.1l-2.4,-.2c-4.2,-.4,-8.3,-1,-12.4,-2l-1.3,-.3l-1.2,-.3c-4.2,-1,-8.4,-2.4,-12.4,-4l-1.5,-.6l-1,-.4l-2.5,-1.2l-2,-.9l-.5,-.3l-2.5,-1.3l-1.7,-.9l-.8,-.5l-2.5,-1.4l-.9,-.6l-1.6,-1l-2.1,-1.5l-.4,-.2l-2.4,-1.8l-.7,-.5l-1.8,-1.4l-.5,.6l1.9,1.4c10.6,8.1,22.8,14,35.7,17.3l1.3,.3l1.2,.3l2.5,.5c6.6,1.3,13.4,2,20.1,1.9H364.7c6.8,-.1,13.5,-.9,20.1,-2.4l1.3,-.3l1.2,-.3c12.9,-3.3,25.1,-9.2,35.7,-17.3l1.9,-1.4l-.5,-.6Z" class="g7_344"/>
<path d="M177.6,133.4l1.8,-1.5l.7,-.4l2.4,-1.9l.4,-.2L185,128l1.6,-1.1l.9,-.5l2.5,-1.5l.8,-.4l1.7,-1l2.5,-1.3l.5,-.2l2,-1l2.5,-1.1l1,-.4l1.5,-.6l2.4,-1l2.5,-.9h.1l2.4,-.8l2.5,-.7l2.5,-.7l1.2,-.3l1.3,-.3c6.5,-1.5,13.2,-2.3,19.9,-2.4H364.7c6.7,.1,13.4,.9,19.9,2.4l1.3,.3l1.2,.3c4.2,1.1,8.4,2.4,12.5,4.1l1.5,.6l.9,.4l2.5,1.1l2,1l.5,.2l2.5,1.3l1.7,1l.8,.4l2.5,1.5l.9,.5L417,128l2.2,1.4l.3,.2l2.5,1.9l.6,.4l1.8,1.5l.5,-.6L423,131.3c-8.5,-6.5,-18.1,-11.6,-28.2,-15h-.1h.1l-2.5,-.8c-5.7,-1.8,-11.6,-3.1,-17.5,-3.8l-2.5,-.3h-.1c-1.6,-.1,-3.3,-.3,-5,-.3l-2.5,-.1H237.3l-2.5,.1l-2.5,.1l-.2,.1l-2.3,.1c-18.5,1.8,-36.1,8.7,-50.8,19.9l-1.9,1.5l.5,.6Z" class="g7_344"/>
<path d="M239.8,333.6h-2.5c-10.9,-.2,-21.9,-1.8,-32.4,-4.8l-.4,-.2l-2.1,-.6l-2.5,-.8l-2.5,-.9l-.5,-.2l-1.9,-.7l-2.5,-1l-1.9,-.7l-.6,-.3l-2.5,-1.1l-2.3,-1.1l-.2,-.1l-2.5,-1.3l-2.2,-1.1l-.3,-.2l-2.5,-1.4l-.4,.7l2.5,1.4c17.7,9.6,37.6,14.9,57.7,15.2h2.5v-.8Z" class="g7_344"/>
<path d="M424.5,317.1l-2.5,1.4l-.3,.2l-2.2,1.1l-2.5,1.3l-.2,.1l-2.3,1.1l-2.5,1.1l-2.5,1l-2.4,1l-2,.7l-.5,.2c-12.8,4.6,-26.3,7.1,-39.9,7.3h-2.5v.8h2.5c20.2,-.3,40,-5.6,57.7,-15.2l2.5,-1.4l-.4,-.7Z" class="g7_344"/>
<path d="M177.5,103.5l2.5,-1.4l.3,-.1l2.2,-1.2L185,99.6l.2,-.1l2.3,-1.1L190,97.3l.6,-.3l1.9,-.8l2.5,-1l1.9,-.7l.5,-.2l2.5,-.9l2.5,-.8l2.1,-.6l.4,-.1c10.5,-3.1,21.5,-4.7,32.4,-4.9h2.5v-.7h-2.5c-7.6,.1,-15.1,.9,-22.6,2.4l-.3,.1l-2.2,.4c-11.3,2.6,-22.3,6.7,-32.6,12.3l-2.5,1.4l.4,.6Z" class="g7_344"/>
<path d="M362.2,87h2.5c13.6,.2,27.1,2.7,39.9,7.3l.5,.2l2,.7l2.4,1l1.9,.8l.6,.3l2.5,1.1l2.3,1.1l.2,.1l2.5,1.2l2.2,1.2l.3,.1l2.5,1.4l.4,-.6l-2.5,-1.4C404.7,91.8,384.9,86.6,364.7,86.3h-2.5V87Z" class="g7_344"/>
<path d="M177,334.4h.7V86.3H177Z" class="g6_344"/>
<path d="M424.3,334.4h.8V86.3h-.8Z" class="g6_344"/>
<path d="M177,334.4H425.1v-.8H177Z" class="g6_344"/>
<path d="M177,87H425.1v-.7H177Z" class="g6_344"/>
<path d="M441.3,334h12.3V86.6H441.3Z" class="g8_344"/>
<path d="M441.3,334h12.3V309.3H441.3Z" class="g9_344"/>
<path d="M441.3,309.3h12.3V284.5H441.3Z" class="ga_344"/>
<path d="M441.3,284.5h12.3V259.8H441.3Z" class="gb_344"/>
<path d="M441.3,259.8h12.3V235.1H441.3Z" class="gc_344"/>
<path d="M441.3,235.1h12.3V210.3H441.3Z" class="gd_344"/>
<path d="M441.3,210.3h12.3V185.6H441.3Z" class="ge_344"/>
<path d="M441.3,185.6h12.3V160.9H441.3Z" class="g2_344"/>
<path d="M441.3,160.9h12.3V136.1H441.3Z" class="g3_344"/>
<path d="M441.3,136.1h12.3V111.4H441.3Z" class="g4_344"/>
<path d="M441.3,111.4h12.3V86.6H441.3Z" class="gf_344"/>
<path d="M453.6,309.6h3.3v-.7h-3.3Z" class="g6_344"/>
<path d="M461.1,310.3H467v-.8h-5.9Z" class="g6_344"/>
<path d="M469.6,307.7c0,.4,.2,.7,.4,.9c.2,.2,.5,.3,.9,.3c.4,0,.7,-.1,.9,-.3c.2,-.2,.4,-.5,.4,-.9c0,-.3,-.2,-.6,-.4,-.8c-.2,-.2,-.5,-.3,-.9,-.3c-.4,0,-.7,.1,-.9,.3c-.2,.2,-.4,.5,-.4,.8Zm.4,1.5c-.4,-.1,-.7,-.3,-.9,-.6c-.3,-.2,-.4,-.6,-.4,-.9c0,-.6,.2,-1,.6,-1.3c.4,-.3,.9,-.5,1.6,-.5c.7,0,1.2,.2,1.6,.5c.4,.3,.6,.7,.6,1.3c0,.3,-.1,.7,-.4,.9c-.2,.3,-.5,.5,-.9,.6c.5,.1,.8,.3,1.1,.6c.2,.3,.3,.7,.3,1.1c0,.6,-.2,1.2,-.6,1.5c-.4,.4,-1,.5,-1.7,.5c-.8,0,-1.3,-.1,-1.7,-.5c-.4,-.3,-.6,-.9,-.6,-1.5c0,-.4,.1,-.8,.3,-1.1c.3,-.3,.6,-.5,1.1,-.6Zm.9,.4c-.4,0,-.8,.1,-1,.3c-.3,.3,-.4,.6,-.4,1c0,.4,.1,.7,.4,.9c.2,.3,.6,.4,1,.4c.4,0,.8,-.1,1,-.4c.3,-.2,.4,-.5,.4,-.9c0,-.4,-.1,-.7,-.4,-1c-.2,-.2,-.6,-.3,-1,-.3Z" class="g6_344"/>
<path d="M453.6,260.2h3.3v-.8h-3.3Z" class="g6_344"/>
<path d="M461.1,260.8H467V260h-5.9Z" class="g6_344"/>
<path d="M471.2,256.5h1.2V261h.9v.7h-.9v1.6h-.9v-1.6h-3.1v-.9l2.8,-4.3Zm.3,.8l-2.4,3.7h2.4v-3.7Z" class="g6_344"/>
<path d="M453.6,210.7h3.3v-.8h-3.3Z" class="g6_344"/>
<path d="M463.1,207c.8,0,1.3,.3,1.7,.9c.5,.6,.7,1.4,.7,2.6c0,1.1,-.2,2,-.7,2.6c-.4,.6,-.9,.9,-1.7,.9c-.8,0,-1.3,-.3,-1.7,-.9c-.4,-.6,-.6,-1.5,-.6,-2.6c0,-1.2,.2,-2,.6,-2.6c.4,-.6,.9,-.9,1.7,-.9Zm0,.7c-.5,0,-.8,.2,-1.1,.7c-.2,.4,-.3,1.1,-.3,2.1c0,.9,.1,1.6,.3,2.1c.3,.4,.6,.7,1.1,.7c.5,0,.8,-.3,1.1,-.7c.2,-.5,.3,-1.2,.3,-2.1c0,-1,-.1,-1.7,-.3,-2.1c-.3,-.5,-.6,-.7,-1.1,-.7Z" class="g6_344"/>
<path d="M453.6,161.2h3.3v-.7h-3.3Z" class="g6_344"/>
<path d="M463.4,157.6h1.2V162h.9v.8h-.9v1.6h-.9v-1.6h-3.1v-.9l2.8,-4.3Zm.3,.8l-2.3,3.6h2.3v-3.6Z" class="g6_344"/>
<path d="M453.6,111.8h3.3V111h-3.3Z" class="g6_344"/>
<path d="M461.9,109.9c0,.3,.1,.6,.3,.8c.2,.2,.5,.3,.9,.3c.4,0,.7,-.1,.9,-.3c.3,-.2,.4,-.5,.4,-.8c0,-.4,-.1,-.7,-.4,-.9c-.2,-.2,-.5,-.3,-.9,-.3c-.4,0,-.7,.1,-.9,.3c-.2,.2,-.3,.5,-.3,.9Zm.3,1.4c-.4,-.1,-.7,-.3,-.9,-.5c-.2,-.3,-.4,-.6,-.4,-1c0,-.6,.2,-1,.6,-1.3c.4,-.3,.9,-.5,1.6,-.5c.7,0,1.2,.2,1.6,.5c.4,.3,.6,.7,.6,1.3c0,.4,-.1,.7,-.4,1c-.2,.2,-.5,.4,-.9,.5c.5,.1,.8,.3,1.1,.6c.2,.3,.3,.7,.3,1.1c0,.7,-.2,1.2,-.6,1.5c-.4,.4,-.9,.5,-1.7,.5c-.7,0,-1.3,-.1,-1.7,-.5c-.4,-.3,-.6,-.8,-.6,-1.5c0,-.4,.1,-.8,.4,-1.1c.2,-.3,.6,-.5,1,-.6Zm.9,.4c-.4,0,-.8,.1,-1,.3c-.3,.3,-.4,.6,-.4,1c0,.4,.1,.7,.4,1c.2,.2,.6,.3,1,.3c.4,0,.8,-.1,1,-.3c.3,-.3,.4,-.6,.4,-1c0,-.4,-.1,-.7,-.4,-1c-.2,-.2,-.6,-.3,-1,-.3Z" class="g6_344"/>
<path d="M441.3,334v.4H454V86.3H440.9V334.4h.4V334h.4V87h11.6V333.6h-12v.4h.4h-.4Z" class="g6_344"/>
<image clip-path="url(#c0_344)" preserveAspectRatio="none" x="106" y="392" width="202" height="152" xlink:href="img/1.jpg"/>
<image clip-path="url(#c1_344)" preserveAspectRatio="none" x="307" y="392" width="202" height="152" xlink:href="img/2.jpg"/>
<image clip-path="url(#c2_344)" preserveAspectRatio="none" x="307" y="392" width="1" height="152" xlink:href="img/3.jpg"/>
<image clip-path="url(#c3_344)" preserveAspectRatio="none" x="508" y="392" width="202" height="152" xlink:href="img/4.jpg"/>
<image clip-path="url(#c4_344)" preserveAspectRatio="none" x="508" y="392" width="1" height="152" xlink:href="img/5.jpg"/>
<path d="M102.6,807.8h.3V719.4h-.3Z" class="gg_344"/>
<path d="M120.3,807.8v-3.2h.2l6.4,3l.3,.2l-.3,.2l-6.4,2.9l-.2,.1v-.3l.1,-.2l6.3,-2.9l.2,.4h-.2l-6.3,-3l.1,-.4l.1,.2v3Z" class="gg_344"/>
<path d="M120.3,810.7h.3v-2.9h-.3Z" class="gg_344"/>
<path d="M120.3,808h.1v-.4h-.1Z" class="gg_344"/>
<path d="M102.6,808h17.7v-.4H102.6Z" class="gg_344"/>
<path d="M552.6,823.1h.3V732.4h-.3Z" class="gg_344"/>
<path d="M538.7,823.1v3.2l-.2,-.1l-6.3,-2.9l-.4,-.2l.4,-.2l6.3,-2.9l.2,-.1v.2l-.1,.2l-6.2,3l-.2,-.4h.2l6.2,2.9l-.1,.4l-.1,-.2v-2.9Z" class="gg_344"/>
<path d="M538.4,823.1h.3v-3h-.3Z" class="gg_344"/>
<path d="M538.5,823.3h.2v-.4h-.2Z" class="gg_344"/>
<path d="M538.7,823.3h14.2v-.4H538.7Z" class="gg_344"/>
<path d="M566,838.3h.4V759.6H566Z" class="gg_344"/>
<path d="M538.3,838.3v3.2l-.3,-.1l-6.2,-2.9l-.4,-.2l.4,-.2l6.2,-2.9l.3,-.1v.3l-.1,.1l-6.3,3l-.1,-.4h.1l6.3,2.9l-.2,.4l-.1,-.2v-2.9Z" class="gg_344"/>
<path d="M537.9,838.3h.4v-2.9h-.4Z" class="gg_344"/>
<path d="M538.1,838.5h.2v-.4h-.2Z" class="gg_344"/>
<path d="M538.3,838.5h28.1v-.4H538.3Z" class="gg_344"/>
<path d="M581.4,882.7h.4v-57h-.4Z" class="gg_344"/>
<path d="M538.5,853.7v3.2l-.2,-.1L532,853.9l-.3,-.2l.3,-.2l6.3,-2.9l.2,-.1v.4l-6.3,3l-.2,-.4h.2l6.3,2.9l-.2,.4l-.1,-.2v-2.9Z" class="gg_344"/>
<path d="M538.2,853.7h.3v-2.9h-.3Z" class="gg_344"/>
<path d="M538.4,853.9h.1v-.4h-.1Z" class="gg_344"/>
<path d="M538.5,853.9h43.3v-.4H538.5Z" class="gg_344"/>
<path d="M134.3,919.5h.4V868.9h-.4Z" class="gg_344"/>
<path d="M150.2,868.9v-3.2l.3,.1l6.2,2.9l.4,.2l-.4,.2l-6.2,2.9l-.3,.1v-.3l.1,-.1l6.3,-3l.1,.4h-.1l-6.3,-2.9l.2,-.4l.1,.2v2.9Z" class="gg_344"/>
<path d="M150.2,871.8h.4v-2.9h-.4Z" class="gg_344"/>
<path d="M150.2,869.1h.2v-.4h-.2Z" class="gg_344"/>
<path d="M134.3,869.1h15.9v-.4H134.3Z" class="gg_344"/>
</svg>