<?xml version="1.0" encoding="UTF-8" standalone="no"?>
<!DOCTYPE svg PUBLIC "-//W3C//DTD SVG 1.1//EN"
"http://www.w3.org/Graphics/SVG/1.1/DTD/svg11.dtd">
<svg viewBox="0 0 811 1017" version="1.1" xmlns="http://www.w3.org/2000/svg" xmlns:xlink="http://www.w3.org/1999/xlink">
<defs>
<style type="text/css"><![CDATA[
.g0_38{
fill: #E6E6E6;
}
.g1_38{
fill: #000;
}
.g2_38{
fill: #F7F5E8;
}
]]></style>
</defs>
<path d="M729.3,277.6h-7.2c-15.8,32.6,-24.1,29.2,-57.7,29.2H603.5l69.8,-59.2c27.5,-21.6,65.6,-48.1,65.6,-87c0,-37.8,-28.1,-58.8,-64.2,-58.8c-33,0,-61.5,20.7,-61.5,55.7c0,12.4,5.7,33.1,12.3,33.1c1,0,2.1,-.8,2.1,-2.1c0,-2.1,-4.2,-12.4,-4.2,-24.8c0,-24.1,22.8,-40.6,45.4,-40.6c23.7,0,41,15.1,41,39.6c0,25.1,-16.9,44.4,-29.3,56.8L618.3,281l-46.8,46.7v4.8c38.5,-.3,77,-1,115.5,-1.3c6.9,.3,13.4,1,20.3,1.3Z" class="g0_38"/>
<path d="M256.9,233H706.1v-.3H256.9Z" class="g1_38"/>
<path d="M101.1,612.4H487V398.6H101.1Z" class="g2_38"/>
</svg>