<?xml version="1.0" encoding="UTF-8" standalone="no"?>
<!DOCTYPE svg PUBLIC "-//W3C//DTD SVG 1.1//EN"
"http://www.w3.org/Graphics/SVG/1.1/DTD/svg11.dtd">
<svg viewBox="0 0 811 1017" version="1.1" xmlns="http://www.w3.org/2000/svg" xmlns:xlink="http://www.w3.org/1999/xlink">
<defs>
<style type="text/css"><![CDATA[
.g0_199{
fill: #476B85;
}
.g1_199{
fill: #000;
}
.g2_199{
fill: #0E0E0E;
}
]]></style>
</defs>
<path d="M156.1,799H347.7V767.6H156.1Z" class="g0_199"/>
<path d="M347.7,799H549.8V767.6H347.7Z" class="g0_199"/>
<path d="M347.5,925.2h.4V767.3h-.4Z" class="g1_199"/>
<path d="M156.1,768H549.8v-.7H156.1Z" class="g1_199"/>
<path d="M156.1,799.2H549.8v-.4H156.1Z" class="g1_199"/>
<path d="M156.1,925.2H549.8v-.4H156.1Z" class="g1_199"/>
<path d="M244.1,145.1c0,-.1,-.1,-.1,-.1,-.1c0,0,-.1,0,-.1,0c-4.8,5.4,-5.3,19.2,-5.3,20.8v.7H240v-.7c0,-1.2,.8,-14.9,3.9,-20.3c.1,-.2,.2,-.3,.2,-.4Z" class="g2_199"/>
<path d="M238.6,175.7H240v-9.6h-1.4Z" class="g2_199"/>
<path d="M238.6,184.7H240v-9.6h-1.4Z" class="g2_199"/>
<path d="M238.6,193.6H240V184h-1.4Z" class="g2_199"/>
<path d="M238.6,202.6H240V193h-1.4Z" class="g2_199"/>
<path d="M244.1,223.7c0,-.1,-.1,-.2,-.2,-.3C240.8,218,240,204.2,240,203v-.6h-1.4v.6c0,1.6,.5,15.5,5.3,20.8c0,0,.1,0,.1,0c0,0,.1,0,.1,-.1Z" class="g2_199"/>
<path d="M273.5,155.5h.4l2.2,-8.2c0,-.3,.1,-.5,.2,-.7c.2,-.3,.5,-.9,.8,-1.1c.2,-.1,.5,-.2,.7,-.2l.1,-.2h-3.1l-.1,.2c.3,.1,.6,.2,.8,.4c.2,.2,.3,.8,.3,1.2c0,.1,-.1,.3,-.1,.5l-1.4,5.4l-.1,.2l-3.4,-7.9h-2.7l-.1,.2c.6,.1,.8,.1,1,.3c.3,.3,.5,.9,.5,1.4c0,.1,0,.3,0,.4l-1.6,6.1c-.1,.4,-.5,.9,-.8,1.2c-.4,.3,-.9,.6,-1.3,.6l-.1,.2h3.8l.1,-.2c-.4,-.1,-.8,-.1,-1,-.3c-.2,-.3,-.4,-.7,-.4,-1.1c0,-.2,0,-.4,0,-.6l1.6,-5.9l.1,-.3l3.6,8.4Z" class="g2_199"/>
<path d="M337.5,154.1h-.3c-.3,1.9,-1,2.7,-2,2.7h-5.9l4.3,-5.5l-3.8,-5.7h4.8c1,0,1.7,.6,2,2.5h.4l-.1,-3.1H328l4.5,6.5l-5.2,6.6h10l.2,-4Z" class="g2_199"/>
<path d="M344.5,149.2h.2l1.6,-6c.1,-.1,.1,-.3,.2,-.4c.1,-.3,.4,-.7,.6,-.9c.1,0,.4,-.1,.5,-.1v-.1h-2.2l-.1,.1c.3,0,.5,.1,.6,.3c.2,.2,.2,.6,.2,.9c0,.1,0,.2,0,.3l-1.1,4v.1l-2.5,-5.7h-2v.1c.4,0,.5,.1,.7,.2c.2,.3,.4,.7,.4,1c0,.1,0,.2,-.1,.3l-1.1,4.5c-.1,.3,-.4,.7,-.6,.9c-.3,.2,-.7,.4,-1,.4v.1h2.8v-.1c-.3,0,-.6,-.1,-.7,-.2c-.2,-.2,-.3,-.5,-.3,-.8c0,-.1,0,-.3,0,-.4l1.1,-4.4l.1,-.2l2.7,6.1Z" class="g2_199"/>
<path d="M341.8,153.5c0,-.3,-.3,-.6,-.6,-.6c-.3,0,-.6,.3,-.6,.6c0,.3,.3,.5,.6,.5c.3,0,.6,-.2,.6,-.5Zm-2.1,6.8c1,0,1.5,-.9,1.7,-1.5l-.2,-.1c-.1,.3,-.5,1.1,-1,1.1c-.1,0,-.2,-.2,-.2,-.3c0,-.2,.1,-.6,.2,-.8l.7,-2c.1,-.3,.2,-.5,.2,-.7c0,-.3,0,-.5,-.4,-.5c-.7,0,-1.5,.8,-1.7,1.3l.2,.1c.1,-.2,.5,-.8,.8,-.8c.2,0,.2,.1,.2,.2c0,.2,-.1,.5,-.2,.7l-.7,2.1c-.1,.2,-.1,.5,-.1,.6c0,.4,.1,.6,.5,.6Z" class="g2_199"/>
<path d="M343,158.8h5.5v-.6H343Zm0,-2.2h5.5V156H343Z" class="g2_199"/>
<path d="M350.4,153.1v.2c.3,0,.8,0,1,.1c.3,.2,.3,.3,.3,.7v4.8c0,.2,0,.4,0,.5c-.1,.5,-.7,.6,-1.2,.6v.2h3.4V160c-.4,0,-.9,0,-1.1,-.2c-.1,-.2,-.1,-.6,-.1,-1v-6.3c-.6,.3,-1.6,.6,-2.3,.6Z" class="g2_199"/>
<path d="M365.5,149.9c0,-.5,-.4,-.9,-1,-.9c-.3,0,-.6,.1,-.9,.3c-.4,.2,-.7,.5,-.9,.9c0,-.7,-.4,-1.2,-1.1,-1.2c-1.1,0,-2,1.2,-2.4,1.9l.2,.2c.4,-.5,1.1,-1.7,2,-1.7c.3,0,.4,.5,.4,.9c0,.3,-.1,.7,-.2,1.2l-.4,1.2c-.1,.5,-.4,1.3,-.7,1.7c-.1,.3,-.4,.7,-.8,.7c-.4,0,-.7,-.1,-.6,-.5c.1,-.3,0,-.7,-.4,-.7c-.5,0,-.6,.3,-.6,.7c0,.6,.4,1,1,1c1,0,1.8,-.8,2.1,-1.5l.1,.1c.1,.8,.5,1.4,1.3,1.4c1.2,0,2,-1.2,2.5,-1.8l-.2,-.2c-.5,.6,-1.2,1.6,-2,1.6c-.4,0,-.6,-.6,-.6,-1.2c0,-.3,0,-.8,.1,-1.3l.2,-.8c.1,-.5,.4,-1.2,.6,-1.6c.2,-.3,.6,-.9,1,-.9c.4,0,.4,.3,.3,.6c0,.4,.2,.6,.5,.6c.4,0,.5,-.3,.5,-.7Z" class="g2_199"/>
<path d="M368.6,151c0,-.3,-.2,-.6,-.5,-.6c-.3,0,-.6,.3,-.6,.6c0,.3,.3,.5,.6,.5c.2,0,.5,-.2,.5,-.5Zm-2,6.8c.9,0,1.4,-.9,1.7,-1.4l-.2,-.1c-.1,.2,-.5,1,-1,1c-.1,0,-.2,-.2,-.2,-.3c0,-.2,.1,-.6,.2,-.8l.7,-2c.1,-.3,.1,-.5,.1,-.6c0,-.4,0,-.6,-.3,-.6c-.7,0,-1.5,.8,-1.7,1.3l.2,.1c.1,-.2,.5,-.8,.8,-.8c.1,0,.2,.1,.2,.2c0,.2,-.1,.5,-.2,.7l-.7,2.1c-.1,.2,-.1,.5,-.1,.6c0,.4,.1,.6,.5,.6Z" class="g2_199"/>
<path d="M399.9,151.7c0,-.5,-.4,-.9,-.8,-.9c-.5,0,-.8,.4,-.8,.9c0,.5,.5,.8,.8,.8c.3,0,.8,-.3,.8,-.8Z" class="g2_199"/>
<path d="M406.4,151.7c0,-.5,-.4,-.9,-.8,-.9c-.5,0,-.8,.4,-.8,.9c0,.5,.5,.8,.8,.8c.3,0,.8,-.3,.8,-.8Z" class="g2_199"/>
<path d="M412.9,151.7c0,-.5,-.3,-.9,-.8,-.9c-.4,0,-.8,.4,-.8,.9c0,.5,.5,.8,.8,.8c.3,0,.8,-.3,.8,-.8Z" class="g2_199"/>
<path d="M450.9,154.1h-.3c-.3,1.9,-1,2.7,-2,2.7h-5.9l4.4,-5.5l-3.9,-5.7H448c1.1,0,1.7,.6,2.1,2.5h.3l-.1,-3.1h-8.9l4.5,6.5l-5.1,6.6h9.9l.2,-4Z" class="g2_199"/>
<path d="M457.9,149.2h.3l1.5,-6c.1,-.1,.2,-.3,.2,-.4c.1,-.3,.4,-.7,.6,-.9c.1,0,.4,-.1,.5,-.1l.1,-.1h-2.3v.1c.2,0,.4,.1,.6,.3c.1,.2,.1,.6,.1,.9c0,.1,0,.2,0,.3l-1.1,4v.1l-2.5,-5.7h-2v.1c.4,0,.6,.1,.7,.2c.2,.3,.4,.7,.4,1c0,.1,0,.2,-.1,.3l-1.1,4.5c-.1,.3,-.4,.7,-.6,.9c-.3,.2,-.7,.4,-1,.4v.1H455v-.1c-.3,0,-.6,-.1,-.7,-.2c-.2,-.2,-.3,-.5,-.3,-.8c0,-.1,0,-.3,0,-.4l1.2,-4.4v-.2l2.7,6.1Z" class="g2_199"/>
<path d="M455.2,153.5c0,-.3,-.3,-.6,-.6,-.6c-.3,0,-.5,.3,-.5,.6c0,.3,.2,.5,.5,.5c.3,0,.6,-.2,.6,-.5Zm-2.1,6.8c1,0,1.5,-.9,1.8,-1.5l-.2,-.1c-.2,.3,-.6,1.1,-1,1.1c-.1,0,-.3,-.2,-.3,-.3c0,-.2,.2,-.6,.2,-.8l.7,-2c.2,-.3,.2,-.5,.2,-.7c0,-.3,0,-.5,-.4,-.5c-.7,0,-1.5,.8,-1.7,1.3l.2,.1c.1,-.2,.6,-.8,.8,-.8c.2,0,.2,.1,.2,.2c0,.2,-.1,.5,-.1,.7l-.8,2.1c0,.2,-.1,.5,-.1,.6c0,.4,.1,.6,.5,.6Z" class="g2_199"/>
<path d="M456.4,158.8h5.5v-.6h-5.5Zm0,-2.2h5.5V156h-5.5Z" class="g2_199"/>
<path d="M463.8,153.1v.2c.3,0,.8,0,1,.1c.3,.2,.3,.3,.3,.7v4.8c0,.2,0,.4,0,.5c-.1,.5,-.7,.6,-1.2,.6v.2h3.4V160c-.4,0,-.9,0,-1.1,-.2c-.1,-.2,-.1,-.6,-.1,-1v-6.3c-.6,.3,-1.6,.6,-2.3,.6Z" class="g2_199"/>
<path d="M478.9,149.9c0,-.5,-.4,-.9,-1,-.9c-.3,0,-.6,.1,-.9,.3c-.3,.2,-.7,.5,-.9,.9c0,-.7,-.4,-1.2,-1,-1.2c-1.2,0,-2.1,1.2,-2.5,1.9l.2,.2c.4,-.5,1.1,-1.7,2,-1.7c.3,0,.4,.5,.4,.9c0,.3,-.1,.7,-.2,1.2l-.4,1.2c-.1,.5,-.4,1.3,-.7,1.7c-.1,.3,-.4,.7,-.8,.7c-.4,0,-.7,-.1,-.6,-.5c.1,-.3,0,-.7,-.4,-.7c-.4,0,-.6,.3,-.6,.7c0,.6,.5,1,1,1c1,0,1.8,-.8,2.2,-1.5v.1c.1,.8,.5,1.4,1.3,1.4c1.2,0,2.1,-1.2,2.5,-1.8l-.2,-.2c-.5,.6,-1.2,1.6,-2,1.6c-.4,0,-.6,-.6,-.6,-1.2c0,-.3,0,-.8,.2,-1.3l.1,-.8c.1,-.5,.4,-1.2,.7,-1.6c.1,-.3,.5,-.9,.9,-.9c.4,0,.4,.3,.3,.6c0,.4,.2,.6,.5,.6c.4,0,.5,-.3,.5,-.7Z" class="g2_199"/>
<path d="M482,151c0,-.3,-.2,-.6,-.5,-.6c-.3,0,-.6,.3,-.6,.6c0,.3,.3,.5,.6,.5c.3,0,.5,-.2,.5,-.5Zm-2,6.8c1,0,1.5,-.9,1.7,-1.4l-.2,-.1c-.1,.2,-.5,1,-1,1c-.1,0,-.2,-.2,-.2,-.3c0,-.2,.1,-.6,.2,-.8l.7,-2c.1,-.3,.2,-.5,.2,-.6c0,-.4,0,-.6,-.4,-.6c-.7,0,-1.5,.8,-1.7,1.3l.2,.1c.1,-.2,.5,-.8,.8,-.8c.2,0,.2,.1,.2,.2c0,.2,-.1,.5,-.2,.7l-.7,2.1c-.1,.2,-.1,.5,-.1,.6c0,.4,.1,.6,.5,.6Z" class="g2_199"/>
<path d="M491.7,143.5l.2,-.3l-1.4,5.4c-.1,.2,-.1,.4,-.2,.6c-.1,.2,-.3,.5,-.5,.6c-.2,.1,-.3,.1,-.5,.1v.1h3.1v-.1c-.3,0,-.6,0,-.7,-.1c-.2,-.2,-.2,-.4,-.2,-.6c0,-.2,0,-.4,.1,-.7l1.1,-4.1c.1,-.3,.1,-.6,.2,-.8c.1,-.3,.4,-.7,.6,-.8c.1,-.1,.3,-.1,.5,-.1v-.2h-2l-3.6,5.8h-.1l-.7,-5.8h-2.4v.2c.3,0,.5,0,.7,0c.1,.1,.3,.4,.3,.6c0,.1,0,.4,-.1,.8l-1.2,4.5c-.1,.3,-.4,.7,-.6,.9c-.3,.2,-.6,.4,-1,.4v.1H486l.1,-.1c-.3,0,-.6,-.1,-.7,-.2c-.1,-.2,-.3,-.5,-.3,-.8c0,-.1,0,-.3,.1,-.4l1.3,-5v-.2l.8,6.7h.3l4.1,-6.5Z" class="g2_199"/>
<path d="M261.2,173.3h-.3c-.3,1.9,-1,2.7,-2,2.7h-5.8l4.3,-5.5l-3.9,-5.7h4.8c1.1,0,1.8,.6,2.1,2.5h.3l-.1,-3.1h-8.9l4.5,6.6l-5.1,6.5h10l.1,-4Z" class="g2_199"/>
<path d="M268.2,168.4h.3l1.6,-6c0,-.1,.1,-.3,.1,-.4c.2,-.3,.4,-.7,.7,-.9c.1,0,.3,-.1,.4,-.1l.1,-.1h-2.3v.1c.2,.1,.4,.1,.6,.3c.1,.2,.1,.6,.1,.9c0,.1,0,.2,0,.3l-1,4l-.1,.1l-2.5,-5.7h-2v.1c.4,.1,.6,.1,.7,.2c.3,.3,.4,.7,.4,1c0,.1,0,.2,0,.3l-1.2,4.5c-.1,.3,-.3,.7,-.6,.9c-.2,.2,-.7,.4,-1,.4v.1h2.8l.1,-.1c-.3,0,-.6,-.1,-.8,-.2c-.1,-.2,-.3,-.5,-.3,-.8c0,-.1,0,-.3,.1,-.4l1.1,-4.4v-.2l2.7,6.1Z" class="g2_199"/>
<path d="M265.5,172.7c0,-.3,-.3,-.6,-.6,-.6c-.3,0,-.5,.3,-.5,.6c0,.3,.2,.5,.5,.5c.3,0,.6,-.2,.6,-.5Zm-2.1,6.8c1,0,1.5,-.9,1.8,-1.5H265c-.2,.2,-.6,1,-1,1c-.1,0,-.3,-.2,-.3,-.3c0,-.2,.2,-.6,.3,-.8l.7,-2c.1,-.3,.1,-.5,.1,-.7c0,-.3,0,-.5,-.3,-.5c-.7,0,-1.5,.8,-1.8,1.3l.2,.1c.2,-.2,.6,-.8,.8,-.8c.2,0,.2,.1,.2,.2c.1,.2,0,.5,-.1,.7l-.7,2.1c-.1,.2,-.2,.5,-.2,.6c0,.4,.2,.6,.5,.6Z" class="g2_199"/>
<path d="M266.7,178h5.6v-.6h-5.6Zm0,-2.2h5.6v-.6h-5.6Z" class="g2_199"/>
<path d="M274.1,172.3v.2c.4,0,.8,0,1,.1c.3,.2,.3,.3,.3,.7v4.8c0,.2,0,.4,0,.6c-.1,.4,-.7,.5,-1.2,.5v.2h3.4v-.2c-.3,0,-.9,0,-1,-.2c-.2,-.2,-.2,-.6,-.2,-1v-6.2c-.6,.3,-1.5,.5,-2.3,.5Z" class="g2_199"/>
<path d="M289.2,169.1c0,-.5,-.4,-.9,-1,-.9c-.3,0,-.6,.1,-.9,.3c-.3,.3,-.6,.6,-.9,.9c0,-.6,-.4,-1.2,-1,-1.2c-1.1,0,-2.1,1.2,-2.4,2l.2,.1c.3,-.5,1,-1.7,1.9,-1.7c.3,0,.4,.5,.4,.9c0,.3,0,.7,-.2,1.2l-.3,1.2c-.2,.6,-.4,1.3,-.7,1.7c-.2,.3,-.5,.7,-.8,.7c-.5,0,-.8,-.1,-.7,-.5c.1,-.3,.1,-.7,-.4,-.7c-.4,0,-.6,.3,-.6,.8c0,.5,.5,.9,1.1,.9c1,0,1.7,-.8,2.1,-1.5v.1c.1,.8,.5,1.4,1.4,1.4c1.1,0,2,-1.2,2.4,-1.8l-.2,-.2c-.5,.6,-1.2,1.6,-2,1.6c-.4,0,-.6,-.6,-.6,-1.2c0,-.3,0,-.8,.2,-1.3l.2,-.8c.1,-.5,.3,-1.2,.6,-1.6c.2,-.3,.5,-.9,.9,-.9c.4,0,.4,.3,.4,.6c-.1,.4,.1,.6,.4,.6c.4,0,.5,-.3,.5,-.7Z" class="g2_199"/>
<path d="M292.4,170.2c0,-.3,-.3,-.6,-.6,-.6c-.3,0,-.5,.3,-.5,.6c0,.3,.2,.5,.5,.5c.3,0,.6,-.2,.6,-.5Zm-2.1,6.8c1,0,1.5,-.9,1.8,-1.4l-.2,-.1c-.2,.2,-.6,1,-1,1c-.1,0,-.3,-.2,-.3,-.3c0,-.2,.2,-.6,.2,-.8l.7,-2c.2,-.3,.2,-.5,.2,-.6c0,-.4,0,-.6,-.4,-.6c-.7,0,-1.5,.8,-1.7,1.3l.2,.1c.2,-.2,.6,-.8,.8,-.8c.2,0,.2,.1,.2,.3c0,.1,-.1,.4,-.1,.6l-.8,2.1c0,.2,-.1,.5,-.1,.6c0,.4,.1,.6,.5,.6Z" class="g2_199"/>
<path d="M334.1,173.3h-.3c-.3,1.9,-1,2.7,-2.1,2.7h-5.8l4.3,-5.5l-3.8,-5.7h4.7c1.1,0,1.8,.6,2.1,2.5h.3v-3.1h-9l4.6,6.6l-5.2,6.5h10l.2,-4Z" class="g2_199"/>
<path d="M341.1,168.4h.2l1.6,-6c.1,-.1,.1,-.3,.2,-.4c.1,-.3,.4,-.7,.6,-.9c.1,0,.3,-.1,.5,-.1v-.1H342l-.1,.1c.3,.1,.5,.1,.6,.3c.2,.2,.2,.6,.2,.9c0,.1,0,.2,-.1,.3l-1,4v.1L339,160.9h-1.9l-.1,.1c.5,.1,.6,.1,.8,.2c.2,.3,.3,.7,.3,1c0,.1,0,.2,0,.3l-1.2,4.5c-.1,.3,-.3,.7,-.5,.9c-.3,.2,-.7,.4,-1,.4l-.1,.1h2.8l.1,-.1c-.3,0,-.6,-.1,-.7,-.2c-.2,-.2,-.4,-.5,-.4,-.8c0,-.1,0,-.3,.1,-.4l1.1,-4.4l.1,-.2l2.7,6.1Z" class="g2_199"/>
<path d="M338.3,172.7c0,-.3,-.2,-.6,-.5,-.6c-.3,0,-.6,.3,-.6,.6c0,.3,.3,.5,.6,.5c.2,0,.5,-.2,.5,-.5Zm-2,6.8c.9,0,1.4,-.9,1.7,-1.5h-.2c-.1,.2,-.5,1,-1,1c-.1,0,-.2,-.2,-.2,-.3c0,-.2,.1,-.6,.2,-.8l.7,-2c.1,-.3,.1,-.5,.1,-.7c0,-.3,0,-.5,-.3,-.5c-.7,0,-1.5,.8,-1.7,1.3l.2,.1c.1,-.2,.5,-.8,.8,-.8c.1,0,.2,.1,.2,.2c0,.2,-.1,.5,-.2,.7l-.7,2.1c-.1,.2,-.1,.5,-.1,.6c0,.4,.1,.6,.5,.6Z" class="g2_199"/>
<path d="M339.5,178h5.6v-.6h-5.6Zm0,-2.2h5.6v-.6h-5.6Z" class="g2_199"/>
<path d="M347,172.3v.2c.3,0,.8,0,.9,.1c.4,.2,.4,.3,.4,.7v4.8c0,.2,0,.4,-.1,.6c0,.4,-.6,.5,-1.2,.5v.2h3.5v-.2c-.4,0,-.9,0,-1.1,-.2c-.2,-.2,-.2,-.6,-.2,-1v-6.2c-.5,.3,-1.5,.5,-2.2,.5Z" class="g2_199"/>
<path d="M362.1,169.1c0,-.5,-.5,-.9,-1,-.9c-.3,0,-.7,.1,-1,.3c-.3,.3,-.6,.6,-.8,.9c0,-.6,-.4,-1.2,-1.1,-1.2c-1.1,0,-2.1,1.2,-2.4,2l.2,.1c.4,-.5,1.1,-1.7,2,-1.7c.2,0,.4,.5,.4,.9c0,.3,-.1,.7,-.2,1.2l-.4,1.2c-.2,.6,-.4,1.3,-.7,1.7c-.2,.3,-.4,.7,-.8,.7c-.4,0,-.7,-.1,-.6,-.5c.1,-.3,0,-.7,-.4,-.7c-.5,0,-.7,.3,-.7,.8c0,.5,.5,.9,1.1,.9c1,0,1.7,-.8,2.1,-1.5l.1,.1c.1,.8,.5,1.4,1.3,1.4c1.2,0,2,-1.2,2.4,-1.8l-.1,-.2c-.5,.6,-1.2,1.6,-2,1.6c-.5,0,-.7,-.6,-.7,-1.2c0,-.3,.1,-.8,.2,-1.3l.2,-.8c.1,-.5,.3,-1.2,.6,-1.6c.2,-.3,.6,-.9,1,-.9c.4,0,.3,.3,.3,.6c0,.4,.1,.6,.5,.6c.3,0,.5,-.3,.5,-.7Z" class="g2_199"/>
<path d="M365.2,170.2c0,-.3,-.2,-.6,-.6,-.6c-.3,0,-.5,.3,-.5,.6c0,.3,.3,.5,.5,.5c.3,0,.6,-.2,.6,-.5Zm-2.1,6.8c1,0,1.5,-.9,1.8,-1.4l-.2,-.1c-.2,.2,-.6,1,-1,1c-.1,0,-.2,-.2,-.2,-.3c0,-.2,.1,-.6,.2,-.8l.7,-2c.1,-.3,.1,-.5,.1,-.6c0,-.4,0,-.6,-.3,-.6c-.7,0,-1.5,.8,-1.8,1.3l.2,.1c.2,-.2,.6,-.8,.9,-.8c.1,0,.2,.1,.2,.3c0,.1,-.1,.4,-.2,.6l-.7,2.1c-.1,.2,-.1,.5,-.1,.6c0,.4,.1,.6,.4,.6Z" class="g2_199"/>
<path d="M369.4,164.6c-.7,0,-1.1,-.5,-1.1,-1.2c0,-.8,.4,-1.6,1.3,-1.6c1.2,0,1.3,1,1.3,1.9c0,.9,-.2,1.5,-.7,2.1c-.3,.4,-.7,.9,-1.1,1.4c-.5,.5,-1.1,1.1,-1.9,1.7v.4h4.6l.4,-2.1h-.3c-.1,.2,-.2,.4,-.3,.5c-.1,.4,-.4,.6,-1,.6h-2.1v-.1c.5,-.3,1,-.7,1.4,-1c.7,-.7,1.5,-1.4,1.9,-2.3c.2,-.4,.3,-.8,.3,-1.2c0,-.3,-.1,-.6,-.2,-.8c-.3,-.8,-1,-1.3,-2.1,-1.3c-.7,0,-1.4,.3,-1.8,.6c-.4,.3,-.7,.8,-.7,1.4c0,.5,.2,.9,.4,1.1c.2,.2,.5,.4,.9,.4c.4,0,.7,-.2,.8,-.5Z" class="g2_199"/>
<path d="M399.9,170.9c0,-.5,-.4,-.9,-.8,-.9c-.5,0,-.8,.4,-.8,.9c0,.5,.5,.8,.8,.8c.3,0,.8,-.3,.8,-.8Z" class="g2_199"/>
<path d="M406.4,170.9c0,-.5,-.4,-.9,-.8,-.9c-.5,0,-.8,.4,-.8,.9c0,.5,.5,.8,.8,.8c.3,0,.8,-.3,.8,-.8Z" class="g2_199"/>
<path d="M412.9,170.9c0,-.5,-.3,-.9,-.8,-.9c-.4,0,-.8,.4,-.8,.9c0,.5,.5,.8,.8,.8c.3,0,.8,-.3,.8,-.8Z" class="g2_199"/>
<path d="M444.8,173.3h-.3c-.3,1.9,-1,2.7,-2.1,2.7h-5.8l4.3,-5.5l-3.8,-5.7h4.8c1,0,1.7,.6,2,2.5h.4l-.1,-3.1h-8.9l4.5,6.6l-5.2,6.5h10l.2,-4Z" class="g2_199"/>
<path d="M451.8,168.4h.2l1.6,-6c.1,-.1,.1,-.3,.2,-.4c.1,-.3,.4,-.7,.6,-.9c.1,0,.4,-.1,.5,-.1v-.1h-2.2l-.1,.1c.3,.1,.5,.1,.6,.3c.2,.2,.2,.6,.2,.9c0,.1,0,.2,0,.3l-1.1,4v.1l-2.5,-5.7h-2l-.1,.1c.5,.1,.6,.1,.8,.2c.2,.3,.4,.7,.4,1c0,.1,0,.2,-.1,.3l-1.2,4.5c0,.3,-.3,.7,-.5,.9c-.3,.2,-.7,.4,-1,.4v.1h2.8v-.1c-.3,0,-.6,-.1,-.7,-.2c-.2,-.2,-.3,-.5,-.3,-.8c0,-.1,0,-.3,0,-.4l1.1,-4.4l.1,-.2l2.7,6.1Z" class="g2_199"/>
<path d="M449,172.7c0,-.3,-.2,-.6,-.5,-.6c-.3,0,-.6,.3,-.6,.6c0,.3,.3,.5,.6,.5c.3,0,.5,-.2,.5,-.5Zm-2,6.8c1,0,1.5,-.9,1.7,-1.5h-.2c-.1,.2,-.5,1,-1,1c-.1,0,-.2,-.2,-.2,-.3c0,-.2,.1,-.6,.2,-.8l.7,-2c.1,-.3,.2,-.5,.2,-.7c0,-.3,0,-.5,-.4,-.5c-.7,0,-1.5,.8,-1.7,1.3l.2,.1c.1,-.2,.5,-.8,.8,-.8c.2,0,.2,.1,.2,.2c0,.2,-.1,.5,-.2,.7l-.7,2.1c-.1,.2,-.1,.5,-.1,.6c0,.4,.1,.6,.5,.6Z" class="g2_199"/>
<path d="M450.3,178h5.5v-.6h-5.5Zm0,-2.2h5.5v-.6h-5.5Z" class="g2_199"/>
<path d="M457.7,172.3v.2c.3,0,.8,0,1,.1c.3,.2,.3,.3,.3,.7v4.8c0,.2,0,.4,-.1,.6c0,.4,-.6,.5,-1.1,.5v.2h3.4v-.2c-.4,0,-.9,0,-1.1,-.2c-.1,-.2,-.2,-.6,-.2,-1v-6.2c-.5,.3,-1.5,.5,-2.2,.5Z" class="g2_199"/>
<path d="M472.8,169.1c0,-.5,-.5,-.9,-1,-.9c-.3,0,-.6,.1,-1,.3c-.3,.3,-.6,.6,-.8,.9c0,-.6,-.4,-1.2,-1.1,-1.2c-1.1,0,-2.1,1.2,-2.4,2l.2,.1c.4,-.5,1.1,-1.7,2,-1.7c.3,0,.4,.5,.4,.9c0,.3,-.1,.7,-.2,1.2l-.4,1.2c-.1,.6,-.4,1.3,-.7,1.7c-.2,.3,-.4,.7,-.8,.7c-.4,0,-.7,-.1,-.6,-.5c.1,-.3,0,-.7,-.4,-.7c-.5,0,-.6,.3,-.6,.8c0,.5,.4,.9,1,.9c1,0,1.8,-.8,2.1,-1.5l.1,.1c.1,.8,.5,1.4,1.3,1.4c1.2,0,2,-1.2,2.5,-1.8l-.2,-.2c-.5,.6,-1.2,1.6,-2,1.6c-.4,0,-.6,-.6,-.6,-1.2c0,-.3,0,-.8,.1,-1.3l.2,-.8c.1,-.5,.4,-1.2,.6,-1.6c.2,-.3,.6,-.9,1,-.9c.4,0,.4,.3,.3,.6c0,.4,.2,.6,.5,.6c.4,0,.5,-.3,.5,-.7Z" class="g2_199"/>
<path d="M475.9,170.2c0,-.3,-.2,-.6,-.5,-.6c-.3,0,-.6,.3,-.6,.6c0,.3,.3,.5,.6,.5c.2,0,.5,-.2,.5,-.5Zm-2,6.8c.9,0,1.4,-.9,1.7,-1.4l-.2,-.1c-.1,.2,-.5,1,-1,1c-.1,0,-.2,-.2,-.2,-.3c0,-.2,.1,-.6,.2,-.8l.7,-2c.1,-.3,.1,-.5,.1,-.6c0,-.4,0,-.6,-.3,-.6c-.7,0,-1.5,.8,-1.7,1.3l.2,.1c.1,-.2,.5,-.8,.8,-.8c.1,0,.2,.1,.2,.3c0,.1,-.1,.4,-.2,.6l-.7,2.1c-.1,.2,-.1,.5,-.1,.6c0,.4,.1,.6,.5,.6Z" class="g2_199"/>
<path d="M485.6,162.8l.2,-.4l-1.4,5.4c-.1,.2,-.1,.4,-.2,.6c-.1,.2,-.3,.5,-.6,.6c-.1,.1,-.3,.1,-.4,.1l-.1,.2h3.2v-.2c-.3,0,-.6,0,-.7,-.1c-.2,-.1,-.2,-.4,-.2,-.6c0,-.2,0,-.4,.1,-.7l1.1,-4.1c0,-.3,.1,-.6,.2,-.8c.1,-.3,.3,-.7,.6,-.8c.1,-.1,.3,-.1,.4,-.1l.1,-.2h-2l-3.6,5.9h-.2l-.7,-5.9h-2.3v.2c.3,0,.5,0,.6,0c.2,.1,.4,.4,.4,.6c0,.2,0,.4,-.1,.8l-1.2,4.5c-.1,.3,-.4,.7,-.6,.9c-.3,.3,-.7,.4,-1,.4v.2h2.7v-.2c-.2,0,-.5,-.1,-.6,-.2c-.1,-.2,-.3,-.5,-.3,-.8c0,-.1,0,-.3,0,-.4l1.3,-4.9l.1,-.3l.8,6.8h.3l4.1,-6.5Z" class="g2_199"/>
<path d="M491.2,166.2h-2.4v.7h2.4v2.4h.7v-2.4h2.4v-.7h-2.4v-2.4h-.7v2.4Z" class="g2_199"/>
<path d="M496,162.2v.1c.4,0,.8,.1,1,.2c.3,.1,.3,.2,.3,.7V168c0,.2,0,.4,0,.5c-.1,.5,-.7,.6,-1.2,.6v.2h3.4v-.2c-.3,0,-.9,0,-1,-.2c-.2,-.3,-.2,-.6,-.2,-1v-6.3c-.6,.3,-1.6,.6,-2.3,.6Z" class="g2_199"/>
<path d="M272.1,190.8c.5,0,.9,-.4,.9,-.9c0,-.5,-.4,-.9,-.9,-.9c-.4,0,-.8,.4,-.8,.9c0,.4,.4,.9,.8,.9Z" class="g2_199"/>
<path d="M272.1,196.7c.5,0,.9,-.4,.9,-.9c0,-.5,-.4,-.8,-.9,-.8c-.4,0,-.8,.4,-.8,.8c0,.5,.4,.9,.8,.9Z" class="g2_199"/>
<path d="M272.1,202.7c.5,0,.9,-.4,.9,-.9c0,-.5,-.4,-.9,-.9,-.9c-.4,0,-.8,.4,-.8,.9c0,.5,.4,.9,.8,.9Z" class="g2_199"/>
<path d="M348.4,190.8c.5,0,.9,-.4,.9,-.9c0,-.5,-.4,-.9,-.9,-.9c-.5,0,-.9,.4,-.9,.9c0,.4,.4,.9,.9,.9Z" class="g2_199"/>
<path d="M348.4,196.7c.5,0,.9,-.4,.9,-.9c0,-.5,-.4,-.8,-.9,-.8c-.5,0,-.9,.4,-.9,.8c0,.5,.4,.9,.9,.9Z" class="g2_199"/>
<path d="M348.4,202.7c.5,0,.9,-.4,.9,-.9c0,-.5,-.4,-.9,-.9,-.9c-.5,0,-.9,.4,-.9,.9c0,.5,.4,.9,.9,.9Z" class="g2_199"/>
<path d="M406.8,190.8c.5,0,.9,-.4,.9,-.9c0,-.5,-.4,-.9,-.9,-.9c-.5,0,-.9,.4,-.9,.9c0,.4,.4,.9,.9,.9Z" class="g2_199"/>
<path d="M406.8,196.7c.5,0,.9,-.4,.9,-.9c0,-.5,-.4,-.8,-.9,-.8c-.5,0,-.9,.4,-.9,.8c0,.5,.4,.9,.9,.9Z" class="g2_199"/>
<path d="M406.8,202.7c.5,0,.9,-.4,.9,-.9c0,-.5,-.4,-.9,-.9,-.9c-.5,0,-.9,.4,-.9,.9c0,.5,.4,.9,.9,.9Z" class="g2_199"/>
<path d="M467.7,190.8c.5,0,.9,-.4,.9,-.9c0,-.5,-.4,-.9,-.9,-.9c-.5,0,-.9,.4,-.9,.9c0,.4,.4,.9,.9,.9Z" class="g2_199"/>
<path d="M467.7,196.7c.5,0,.9,-.4,.9,-.9c0,-.5,-.4,-.8,-.9,-.8c-.5,0,-.9,.4,-.9,.8c0,.5,.4,.9,.9,.9Z" class="g2_199"/>
<path d="M467.7,202.7c.5,0,.9,-.4,.9,-.9c0,-.5,-.4,-.9,-.9,-.9c-.5,0,-.9,.4,-.9,.9c0,.5,.4,.9,.9,.9Z" class="g2_199"/>
<path d="M255.3,220.4H255c-.3,1.9,-1,2.7,-2,2.7h-5.8l4.3,-5.5l-3.8,-5.7h4.7c1.1,0,1.8,.6,2.1,2.5h.3l-.1,-3.1h-8.9l4.6,6.5l-5.2,6.6h10l.1,-4Z" class="g2_199"/>
<path d="M262.3,215.5h.3l1.6,-6c0,-.1,.1,-.3,.2,-.4c.1,-.3,.3,-.7,.6,-.9c.1,0,.3,-.1,.5,-.1V208h-2.3v.1c.2,0,.4,.1,.6,.3c.2,.2,.2,.6,.2,.9c0,.1,0,.2,-.1,.3l-1,4l-.1,.1L260.3,208h-1.9l-.1,.1c.4,0,.6,.1,.7,.2c.3,.3,.4,.7,.4,1c0,.1,0,.2,0,.3l-1.2,4.5c-.1,.3,-.3,.7,-.6,.9c-.2,.2,-.6,.4,-.9,.4l-.1,.1h2.8l.1,-.1c-.3,0,-.6,-.1,-.8,-.2c-.1,-.2,-.3,-.5,-.3,-.8c0,-.1,0,-.3,.1,-.4l1.1,-4.4l.1,-.2l2.6,6.1Z" class="g2_199"/>
<path d="M259.6,219.8c0,-.3,-.2,-.6,-.6,-.6c-.3,0,-.5,.3,-.5,.6c0,.3,.3,.5,.5,.5c.3,0,.6,-.2,.6,-.5Zm-2,6.8c.9,0,1.4,-.9,1.7,-1.5l-.2,-.1c-.1,.3,-.6,1.1,-1,1.1c-.1,0,-.2,-.2,-.2,-.3c0,-.2,.1,-.6,.2,-.8l.7,-2c.1,-.3,.1,-.5,.1,-.7c0,-.3,0,-.5,-.3,-.5c-.7,0,-1.5,.8,-1.8,1.3l.2,.1c.2,-.2,.6,-.8,.9,-.8c.1,0,.2,.1,.2,.2c0,.2,-.1,.5,-.2,.7l-.7,2.1c-.1,.2,-.1,.5,-.1,.6c0,.4,.1,.6,.5,.6Z" class="g2_199"/>
<path d="M260.8,225.1h5.6v-.6h-5.6Zm0,-2.2h5.6v-.6h-5.6Z" class="g2_199"/>
<path d="M268.3,219.4v.2c.3,0,.8,0,.9,.1c.4,.2,.3,.3,.4,.7v4.8c0,.2,-.1,.4,-.1,.5c-.1,.5,-.6,.6,-1.2,.6v.2h3.4v-.2c-.3,0,-.9,0,-1,-.2c-.2,-.2,-.2,-.6,-.2,-1v-6.3c-.6,.3,-1.5,.6,-2.2,.6Z" class="g2_199"/>
<path d="M283.4,216.2c0,-.5,-.5,-.9,-1,-.9c-.4,0,-.7,.1,-1,.3c-.3,.2,-.6,.5,-.8,.9c0,-.7,-.5,-1.2,-1.1,-1.2c-1.1,0,-2.1,1.2,-2.4,1.9l.2,.2c.3,-.5,1.1,-1.7,2,-1.7c.2,0,.3,.5,.3,.9c0,.3,0,.7,-.2,1.2l-.3,1.2c-.2,.5,-.4,1.3,-.7,1.7c-.2,.3,-.5,.7,-.8,.7c-.4,0,-.8,-.1,-.7,-.5c.1,-.3,.1,-.7,-.4,-.7c-.4,0,-.6,.3,-.6,.7c0,.6,.5,1,1.1,1c1,0,1.7,-.8,2.1,-1.5v.1c.1,.8,.5,1.4,1.4,1.4c1.1,0,2,-1.2,2.4,-1.8l-.2,-.2c-.5,.6,-1.1,1.6,-1.9,1.6c-.5,0,-.7,-.6,-.7,-1.2c0,-.3,.1,-.8,.2,-1.3l.2,-.8c.1,-.5,.3,-1.2,.6,-1.6c.2,-.3,.6,-.9,.9,-.9c.4,0,.4,.3,.4,.6c0,.4,.1,.6,.4,.6c.4,0,.6,-.3,.6,-.7Z" class="g2_199"/>
<path d="M286.5,217.3c0,-.3,-.3,-.6,-.6,-.6c-.3,0,-.5,.3,-.5,.6c0,.3,.2,.5,.5,.5c.3,0,.6,-.2,.6,-.5Zm-2.1,6.8c1,0,1.5,-.9,1.8,-1.4l-.2,-.1c-.2,.2,-.6,1,-1,1c-.1,0,-.3,-.2,-.3,-.3c0,-.2,.2,-.6,.2,-.8l.8,-2c.1,-.3,.1,-.5,.1,-.6c0,-.4,0,-.6,-.4,-.6c-.6,0,-1.4,.8,-1.7,1.3l.2,.1c.2,-.2,.6,-.8,.8,-.8c.2,0,.2,.1,.2,.2c.1,.2,0,.5,-.1,.7l-.7,2.1c-.1,.2,-.2,.5,-.2,.6c0,.4,.2,.6,.5,.6Z" class="g2_199"/>
<path d="M296.1,209.8l.3,-.3l-1.4,5.4c-.1,.2,-.2,.4,-.3,.6c0,.2,-.3,.5,-.5,.6c-.1,.1,-.3,.1,-.5,.1v.1h3.1l.1,-.1c-.4,0,-.6,-.1,-.8,-.1c-.1,-.2,-.2,-.4,-.2,-.6c0,-.2,.1,-.4,.1,-.7l1.1,-4.1c.1,-.3,.2,-.6,.2,-.8c.2,-.3,.4,-.7,.6,-.8c.2,-.1,.3,-.1,.5,-.1v-.2h-1.9l-3.7,5.8h-.1l-.7,-5.8h-2.3l-.1,.2c.4,0,.6,0,.7,0c.2,.1,.3,.4,.3,.6c0,.1,0,.4,-.1,.8l-1.2,4.5c-.1,.3,-.3,.7,-.6,.9c-.2,.2,-.6,.4,-.9,.4l-.1,.1h2.8v-.1c-.2,0,-.5,-.1,-.7,-.2c-.1,-.2,-.2,-.5,-.2,-.8c0,-.1,0,-.3,0,-.4l1.3,-5l.1,-.2l.8,6.7h.3l4,-6.5Z" class="g2_199"/>
<path d="M325.5,220.4h-.3c-.3,1.9,-1,2.7,-2.1,2.7h-5.8l4.3,-5.5l-3.8,-5.7h4.8c1,0,1.7,.6,2,2.5h.4l-.1,-3.1H316l4.5,6.5l-5.2,6.6h10l.2,-4Z" class="g2_199"/>
<path d="M332.5,215.5h.2l1.6,-6c.1,-.1,.1,-.3,.2,-.4c.1,-.3,.4,-.7,.6,-.9c.1,0,.4,-.1,.5,-.1V208h-2.2l-.1,.1c.3,0,.5,.1,.6,.3c.2,.2,.2,.6,.2,.9c0,.1,0,.2,0,.3l-1.1,4v.1L330.5,208h-2l-.1,.1c.5,0,.6,.1,.8,.2c.2,.3,.4,.7,.4,1c0,.1,0,.2,-.1,.3l-1.1,4.5c-.1,.3,-.4,.7,-.6,.9c-.3,.2,-.7,.4,-1,.4v.1h2.8v-.1c-.3,0,-.6,-.1,-.7,-.2c-.2,-.2,-.3,-.5,-.3,-.8c0,-.1,0,-.3,0,-.4l1.1,-4.4l.1,-.2l2.7,6.1Z" class="g2_199"/>
<path d="M329.8,219.8c0,-.3,-.3,-.6,-.6,-.6c-.3,0,-.6,.3,-.6,.6c0,.3,.3,.5,.6,.5c.3,0,.6,-.2,.6,-.5Zm-2.1,6.8c1,0,1.5,-.9,1.7,-1.5l-.2,-.1c-.1,.3,-.5,1.1,-1,1.1c-.1,0,-.2,-.2,-.2,-.3c0,-.2,.1,-.6,.2,-.8l.7,-2c.1,-.3,.2,-.5,.2,-.7c0,-.3,0,-.5,-.4,-.5c-.7,0,-1.5,.8,-1.7,1.3l.2,.1c.1,-.2,.5,-.8,.8,-.8c.2,0,.2,.1,.2,.2c0,.2,-.1,.5,-.2,.7l-.7,2.1c-.1,.2,-.1,.5,-.1,.6c0,.4,.1,.6,.5,.6Z" class="g2_199"/>
<path d="M331,225.1h5.5v-.6H331Zm0,-2.2h5.5v-.6H331Z" class="g2_199"/>
<path d="M338.4,219.4v.2c.3,0,.8,0,1,.1c.3,.2,.3,.3,.3,.7v4.8c0,.2,0,.4,0,.5c-.1,.5,-.7,.6,-1.2,.6v.2h3.4v-.2c-.4,0,-.9,0,-1.1,-.2c-.1,-.2,-.2,-.6,-.2,-1v-6.3c-.5,.3,-1.5,.6,-2.2,.6Z" class="g2_199"/>
<path d="M353.5,216.2c0,-.5,-.5,-.9,-1,-.9c-.3,0,-.6,.1,-1,.3c-.3,.2,-.6,.5,-.8,.9c0,-.7,-.4,-1.2,-1.1,-1.2c-1.1,0,-2.1,1.2,-2.4,1.9l.2,.2c.4,-.5,1.1,-1.7,2,-1.7c.3,0,.4,.5,.4,.9c0,.3,-.1,.7,-.2,1.2l-.4,1.2c-.1,.5,-.4,1.3,-.7,1.7c-.1,.3,-.4,.7,-.8,.7c-.4,0,-.7,-.1,-.6,-.5c.1,-.3,0,-.7,-.4,-.7c-.5,0,-.6,.3,-.6,.7c0,.6,.4,1,1,1c1,0,1.8,-.8,2.1,-1.5l.1,.1c.1,.8,.5,1.4,1.3,1.4c1.2,0,2,-1.2,2.5,-1.8l-.2,-.2c-.5,.6,-1.2,1.6,-2,1.6c-.4,0,-.6,-.6,-.6,-1.2c0,-.3,0,-.8,.1,-1.3l.2,-.8c.1,-.5,.4,-1.2,.6,-1.6c.2,-.3,.6,-.9,1,-.9c.4,0,.4,.3,.3,.6c0,.4,.2,.6,.5,.6c.4,0,.5,-.3,.5,-.7Z" class="g2_199"/>
<path d="M356.6,217.3c0,-.3,-.2,-.6,-.5,-.6c-.3,0,-.6,.3,-.6,.6c0,.3,.3,.5,.6,.5c.2,0,.5,-.2,.5,-.5Zm-2,6.8c.9,0,1.4,-.9,1.7,-1.4l-.2,-.1c-.1,.2,-.5,1,-1,1c-.1,0,-.2,-.2,-.2,-.3c0,-.2,.1,-.6,.2,-.8l.7,-2c.1,-.3,.1,-.5,.1,-.6c0,-.4,0,-.6,-.3,-.6c-.7,0,-1.5,.8,-1.7,1.3l.2,.1c.1,-.2,.5,-.8,.8,-.8c.1,0,.2,.1,.2,.2c0,.2,-.1,.5,-.2,.7l-.7,2.1c-.1,.2,-.1,.5,-.1,.6c0,.4,.1,.6,.5,.6Z" class="g2_199"/>
<path d="M366.3,209.8l.2,-.3l-1.4,5.4c-.1,.2,-.1,.4,-.2,.6c-.1,.2,-.3,.5,-.6,.6c-.1,.1,-.2,.1,-.4,.1l-.1,.1H367v-.1c-.3,0,-.6,-.1,-.7,-.1c-.2,-.2,-.2,-.4,-.2,-.6c0,-.2,0,-.4,.1,-.7l1.1,-4.1c0,-.3,.1,-.6,.2,-.8c.1,-.3,.3,-.7,.6,-.8c.1,-.1,.3,-.1,.4,-.1l.1,-.2h-2l-3.6,5.8h-.2l-.6,-5.8h-2.4v.2c.3,0,.5,0,.6,0c.2,.1,.4,.4,.4,.6c0,.1,0,.4,-.1,.8l-1.2,4.5c-.1,.3,-.4,.7,-.6,.9c-.3,.2,-.7,.4,-1,.4v.1h2.7v-.1c-.2,0,-.5,-.1,-.6,-.2c-.1,-.2,-.3,-.5,-.3,-.8c0,-.1,0,-.3,0,-.4l1.3,-5l.1,-.2l.8,6.7h.3l4.1,-6.5Z" class="g2_199"/>
<path d="M371.9,213.2h-2.4v.8h2.4v2.3h.7V214H375v-.8h-2.4v-2.3h-.7v2.3Z" class="g2_199"/>
<path d="M376.7,209.3v.1c.4,0,.8,.1,1,.1c.3,.2,.3,.3,.3,.8V215c0,.3,0,.5,0,.6c-.1,.5,-.7,.6,-1.2,.6v.1h3.4v-.1c-.3,0,-.9,-.1,-1,-.2c-.2,-.3,-.2,-.6,-.2,-1v-6.3c-.6,.3,-1.6,.5,-2.3,.6Z" class="g2_199"/>
<path d="M399.9,218c0,-.5,-.4,-.9,-.8,-.9c-.5,0,-.8,.4,-.8,.9c0,.5,.5,.8,.8,.8c.3,0,.8,-.3,.8,-.8Z" class="g2_199"/>
<path d="M406.4,218c0,-.5,-.4,-.9,-.8,-.9c-.5,0,-.8,.4,-.8,.9c0,.5,.5,.8,.8,.8c.3,0,.8,-.3,.8,-.8Z" class="g2_199"/>
<path d="M412.9,218c0,-.5,-.3,-.9,-.8,-.9c-.4,0,-.8,.4,-.8,.9c0,.5,.5,.8,.8,.8c.3,0,.8,-.3,.8,-.8Z" class="g2_199"/>
<path d="M442.3,220.4H442c-.3,1.9,-1,2.7,-2,2.7h-5.8l4.3,-5.5l-3.9,-5.7h4.8c1.1,0,1.8,.6,2.1,2.5h.3l-.1,-3.1h-8.9l4.5,6.5l-5.1,6.6h10l.1,-4Z" class="g2_199"/>
<path d="M449.3,215.5h.3l1.6,-6c0,-.1,.1,-.3,.1,-.4c.2,-.3,.4,-.7,.7,-.9c.1,0,.3,-.1,.4,-.1l.1,-.1h-2.3v.1c.2,0,.4,.1,.6,.3c.1,.2,.1,.6,.1,.9c0,.1,0,.2,0,.3l-1,4l-.1,.1L447.3,208h-2v.1c.4,0,.6,.1,.7,.2c.3,.3,.4,.7,.4,1c0,.1,0,.2,0,.3l-1.2,4.5c-.1,.3,-.3,.7,-.6,.9c-.2,.2,-.7,.4,-1,.4v.1h2.8v-.1c-.2,0,-.6,-.1,-.7,-.2c-.2,-.2,-.3,-.5,-.3,-.8c0,-.1,0,-.3,0,-.4l1.2,-4.4v-.2l2.7,6.1Z" class="g2_199"/>
<path d="M446.6,219.8c0,-.3,-.3,-.6,-.6,-.6c-.3,0,-.5,.3,-.5,.6c0,.3,.2,.5,.5,.5c.3,0,.6,-.2,.6,-.5Zm-2.1,6.8c1,0,1.5,-.9,1.8,-1.5l-.2,-.1c-.2,.3,-.6,1.1,-1,1.1c-.1,0,-.3,-.2,-.3,-.3c0,-.2,.2,-.6,.2,-.8l.8,-2c.1,-.3,.1,-.5,.1,-.7c0,-.3,0,-.5,-.4,-.5c-.6,0,-1.5,.8,-1.7,1.3l.2,.1c.2,-.2,.6,-.8,.8,-.8c.2,0,.2,.1,.2,.2c.1,.2,0,.5,-.1,.7l-.7,2.1c-.1,.2,-.2,.5,-.2,.6c0,.4,.2,.6,.5,.6Z" class="g2_199"/>
<path d="M447.8,225.1h5.5v-.6h-5.5Zm0,-2.2h5.5v-.6h-5.5Z" class="g2_199"/>
<path d="M455.2,219.4v.2c.4,0,.8,0,1,.1c.3,.2,.3,.3,.3,.7v4.8c0,.2,0,.4,0,.5c-.1,.5,-.7,.6,-1.2,.6v.2h3.4v-.2c-.3,0,-.9,0,-1,-.2c-.2,-.2,-.2,-.6,-.2,-1v-6.3c-.6,.3,-1.6,.6,-2.3,.6Z" class="g2_199"/>
<path d="M470.3,216.2c0,-.5,-.4,-.9,-1,-.9c-.3,0,-.6,.1,-.9,.3c-.3,.2,-.6,.5,-.9,.9c0,-.7,-.4,-1.2,-1,-1.2c-1.1,0,-2.1,1.2,-2.5,1.9l.3,.2c.3,-.5,1,-1.7,1.9,-1.7c.3,0,.4,.5,.4,.9c0,.3,0,.7,-.2,1.2l-.3,1.2c-.2,.5,-.4,1.3,-.7,1.7c-.2,.3,-.5,.7,-.8,.7c-.5,0,-.8,-.1,-.7,-.5c.1,-.3,.1,-.7,-.4,-.7c-.4,0,-.6,.3,-.6,.7c0,.6,.5,1,1.1,1c1,0,1.7,-.8,2.1,-1.5v.1c.1,.8,.5,1.4,1.3,1.4c1.2,0,2.1,-1.2,2.5,-1.8l-.2,-.2c-.5,.6,-1.2,1.6,-2,1.6c-.4,0,-.6,-.6,-.6,-1.2c0,-.3,0,-.8,.2,-1.3l.1,-.8c.2,-.5,.4,-1.2,.7,-1.6c.2,-.3,.5,-.9,.9,-.9c.4,0,.4,.3,.4,.6c-.1,.4,.1,.6,.4,.6c.4,0,.5,-.3,.5,-.7Z" class="g2_199"/>
<path d="M473.5,217.3c0,-.3,-.3,-.6,-.6,-.6c-.3,0,-.5,.3,-.5,.6c0,.3,.2,.5,.5,.5c.3,0,.6,-.2,.6,-.5Zm-2.1,6.8c1,0,1.5,-.9,1.8,-1.4l-.2,-.1c-.2,.2,-.6,1,-1,1c-.2,0,-.3,-.2,-.3,-.3c0,-.2,.2,-.6,.2,-.8l.7,-2c.2,-.3,.2,-.5,.2,-.6c0,-.4,0,-.6,-.4,-.6c-.7,0,-1.5,.8,-1.7,1.3l.2,.1c.1,-.2,.5,-.8,.8,-.8c.2,0,.2,.1,.2,.2c0,.2,-.1,.5,-.1,.7l-.8,2.1c-.1,.2,-.1,.5,-.1,.6c0,.4,.1,.6,.5,.6Z" class="g2_199"/>
<path d="M483.1,209.8l.2,-.3l-1.4,5.4c0,.2,-.1,.4,-.2,.6c-.1,.2,-.3,.5,-.5,.6c-.2,.1,-.3,.1,-.5,.1v.1h3.1l.1,-.1c-.4,0,-.7,-.1,-.8,-.1c-.2,-.2,-.2,-.4,-.2,-.6c0,-.2,0,-.4,.1,-.7l1.1,-4.1c.1,-.3,.2,-.6,.2,-.8c.1,-.3,.4,-.7,.6,-.8c.1,-.1,.3,-.1,.5,-.1v-.2h-1.9l-3.7,5.8h-.1l-.7,-5.8h-2.4v.2c.3,0,.6,0,.7,0c.1,.1,.3,.4,.3,.6c0,.1,0,.4,-.1,.8l-1.2,4.5c-.1,.3,-.4,.7,-.6,.9c-.3,.2,-.6,.4,-.9,.4l-.1,.1h2.7l.1,-.1c-.3,0,-.6,-.1,-.7,-.2c-.1,-.2,-.3,-.5,-.3,-.8c0,-.1,0,-.3,.1,-.4l1.3,-5v-.2l.9,6.7h.3l4,-6.5Z" class="g2_199"/>
<path d="M488.7,213.2h-2.4v.8h2.4v2.3h.7V214h2.4v-.8h-2.4v-2.3h-.7v2.3Z" class="g2_199"/>
<path d="M500.3,209.8l.2,-.3l-1.4,5.4c-.1,.2,-.1,.4,-.2,.6c-.1,.2,-.3,.5,-.6,.6c-.1,.1,-.3,.1,-.4,.1l-.1,.1H501v-.1c-.3,0,-.6,-.1,-.7,-.1c-.2,-.2,-.2,-.4,-.2,-.6c0,-.2,0,-.4,.1,-.7l1.1,-4.1c0,-.3,.1,-.6,.2,-.8c.1,-.3,.3,-.7,.6,-.8c.1,-.1,.3,-.1,.4,-.1l.1,-.2h-2l-3.6,5.8h-.2l-.6,-5.8h-2.4v.2c.3,0,.5,0,.6,0c.2,.1,.4,.4,.4,.6c0,.1,0,.4,-.1,.8l-1.2,4.5c-.1,.3,-.4,.7,-.6,.9c-.3,.2,-.7,.4,-1,.4v.1h2.7v-.1c-.2,0,-.5,-.1,-.6,-.2c-.1,-.2,-.3,-.5,-.3,-.8c0,-.1,0,-.3,0,-.4l1.3,-5l.1,-.2l.8,6.7h.3l4.1,-6.5Z" class="g2_199"/>
<path d="M504.4,145.1c0,.1,0,.2,.1,.4c3.2,5.4,4,19.1,4,20.3v.7h1.4v-.7c0,-1.6,-.6,-15.4,-5.4,-20.8h-.1v.1Z" class="g2_199"/>
<path d="M508.5,175.7h1.4v-9.6h-1.4Z" class="g2_199"/>
<path d="M508.5,184.7h1.4v-9.6h-1.4Z" class="g2_199"/>
<path d="M508.5,193.6h1.4V184h-1.4Z" class="g2_199"/>
<path d="M508.5,202.6h1.4V193h-1.4Z" class="g2_199"/>
<path d="M504.4,223.7q0,.1,0,.1q.1,0,.1,0c4.8,-5.3,5.4,-19.2,5.4,-20.8v-.6h-1.4v.6c0,1.2,-.8,15,-4,20.4c-.1,.1,-.1,.2,-.1,.3Z" class="g2_199"/>
<path d="M519.4,145.1c0,-.1,-.1,-.1,-.1,-.1q-.1,0,-.1,0c-4.8,5.4,-5.3,19.2,-5.3,20.8v.7h1.4v-.7c0,-1.2,.7,-14.9,3.9,-20.3c.1,-.2,.2,-.3,.2,-.4Z" class="g2_199"/>
<path d="M513.9,175.7h1.4v-9.6h-1.4Z" class="g2_199"/>
<path d="M513.9,184.7h1.4v-9.6h-1.4Z" class="g2_199"/>
<path d="M513.9,193.6h1.4V184h-1.4Z" class="g2_199"/>
<path d="M513.9,202.6h1.4V193h-1.4Z" class="g2_199"/>
<path d="M519.4,223.7c0,-.1,-.1,-.2,-.2,-.3C516,218,515.3,204.2,515.3,203v-.6h-1.4v.6c0,1.6,.5,15.5,5.3,20.8h.1c0,0,.1,0,.1,-.1Z" class="g2_199"/>
<path d="M526.8,149.6c-.4,0,-.9,.2,-1.3,.5c-.5,.3,-.9,.7,-1.3,1.1c-.6,.8,-1.2,2,-1.2,3.3c0,1,.4,1.7,1.3,1.7c1.3,0,1.8,-.8,2.2,-1.5c-.2,.9,-.1,1.5,.6,1.5c.3,0,.7,-.1,1.1,-.4c.4,-.4,.7,-.8,1.1,-1.4l-.2,-.2c-.3,.4,-.9,1.4,-1.3,1.4c-.3,0,-.3,-.3,-.3,-.6c0,-.9,.6,-2.4,.9,-3.4l.7,-1.8h-1l-.2,.6c-.2,-.5,-.5,-.8,-1.1,-.8Zm.1,.3c.7,0,.6,1.3,.5,1.9c-.1,.3,-.2,.6,-.3,1c-.4,1.2,-1.5,3.1,-2.3,3.1c-.6,0,-.8,-1,-.8,-1.5c0,-.4,.1,-.8,.2,-1.3c.4,-1,1.5,-3.2,2.7,-3.2Z" class="g2_199"/>
<path d="M532.8,158.4c-1.4,0,-1.4,-2,-1.4,-3.6c0,-1.6,0,-3.8,1.4,-3.8c1.4,0,1.4,2.2,1.4,3.8c0,1.6,0,3.6,-1.4,3.6Zm0,-7.6c-1.9,0,-2.5,2,-2.5,4c0,1.9,.6,3.8,2.5,3.8c1.9,0,2.4,-1.9,2.4,-3.8c0,-2,-.5,-4,-2.4,-4Z" class="g2_199"/>
<path d="M526.8,167.5c-.4,0,-.9,.2,-1.3,.5c-.5,.3,-.9,.7,-1.3,1.1c-.6,.8,-1.2,2,-1.2,3.3c0,1,.4,1.7,1.3,1.7c1.3,0,1.8,-.8,2.2,-1.5c-.2,.9,-.1,1.5,.6,1.5c.3,0,.7,-.1,1.1,-.4c.4,-.4,.7,-.8,1.1,-1.4l-.2,-.2c-.3,.4,-.9,1.4,-1.3,1.4c-.3,0,-.3,-.3,-.3,-.6c0,-.9,.6,-2.4,.9,-3.4l.7,-1.8h-1l-.2,.6c-.2,-.5,-.5,-.8,-1.1,-.8Zm.1,.3c.7,0,.6,1.3,.5,1.9c-.1,.3,-.2,.6,-.3,1c-.4,1.2,-1.5,3.1,-2.3,3.1c-.6,0,-.8,-1,-.8,-1.5c0,-.4,.1,-.8,.2,-1.3c.4,-1,1.5,-3.2,2.7,-3.2Z" class="g2_199"/>
<path d="M531.2,169.3v.1c.3,0,.8,.1,.9,.2c.4,.1,.3,.3,.4,.7v4.8c0,.2,0,.4,-.1,.5c0,.5,-.6,.6,-1.2,.6v.2h3.5v-.2c-.4,0,-1,0,-1.1,-.2c-.2,-.2,-.2,-.6,-.2,-1v-6.3c-.6,.3,-1.5,.6,-2.2,.6Z" class="g2_199"/>
<path d="M529.4,190.1c.5,0,.9,-.4,.9,-.9c0,-.5,-.4,-.9,-.9,-.9c-.5,0,-.9,.4,-.9,.9c0,.5,.4,.9,.9,.9Z" class="g2_199"/>
<path d="M529.4,196.1c.5,0,.9,-.4,.9,-.9c0,-.5,-.4,-.9,-.9,-.9c-.5,0,-.9,.4,-.9,.9c0,.4,.4,.9,.9,.9Z" class="g2_199"/>
<path d="M529.4,202c.5,0,.9,-.4,.9,-.8c0,-.6,-.4,-.9,-.9,-.9c-.5,0,-.9,.4,-.9,.9c0,.4,.4,.8,.9,.8Z" class="g2_199"/>
<path d="M524.3,213.3c-.4,0,-.8,.2,-1.3,.5c-.4,.3,-.8,.6,-1.2,1.1c-.7,.8,-1.3,2,-1.3,3.3c0,1,.4,1.7,1.3,1.7c1.3,0,1.8,-.9,2.2,-1.5c-.2,.9,0,1.5,.6,1.5c.4,0,.7,-.1,1.1,-.5c.4,-.3,.8,-.8,1.1,-1.3l-.2,-.2c-.3,.4,-.9,1.4,-1.3,1.4c-.2,0,-.3,-.4,-.3,-.6c0,-.9,.6,-2.4,.9,-3.4l.7,-1.9h-.9l-.3,.7c-.2,-.5,-.5,-.8,-1.1,-.8Zm.2,.3c.7,0,.5,1.3,.4,1.9c-.1,.3,-.2,.6,-.3,1c-.4,1.1,-1.4,3.1,-2.2,3.1c-.7,0,-.8,-1,-.8,-1.5c0,-.4,0,-.8,.2,-1.3c.3,-1,1.4,-3.2,2.7,-3.2Z" class="g2_199"/>
<path d="M535.4,215.6l.2,-.3l-1.4,5.4c0,.2,-.1,.4,-.2,.6c-.1,.2,-.3,.5,-.5,.6c-.2,0,-.3,.1,-.5,.1v.1h3.1V222c-.3,0,-.6,-.1,-.7,-.2c-.2,-.1,-.2,-.3,-.2,-.5c0,-.2,0,-.4,.1,-.7l1.1,-4.1c.1,-.3,.2,-.6,.2,-.8c.1,-.3,.4,-.7,.6,-.9c.1,0,.3,-.1,.5,-.1v-.1h-1.9l-3.7,5.8H532l-.7,-5.8h-2.4v.1c.3,0,.6,.1,.7,.1c.1,.1,.3,.4,.3,.6c0,.1,0,.4,-.1,.8l-1.2,4.5c-.1,.3,-.4,.7,-.6,.9c-.3,.2,-.6,.4,-.9,.4l-.1,.1h2.7l.1,-.1c-.3,0,-.6,-.1,-.7,-.3c-.1,-.1,-.3,-.4,-.3,-.7c0,-.1,0,-.3,.1,-.4l1.3,-5v-.2l.8,6.7h.4l4,-6.5Z" class="g2_199"/>
<path d="M539.5,145.1c0,.1,.1,.2,.1,.4c3.2,5.4,4,19.1,4,20.3v.7H545v-.7c0,-1.6,-.6,-15.4,-5.3,-20.8c0,0,-.1,0,-.1,0q-.1,0,-.1,.1Z" class="g2_199"/>
<path d="M543.6,175.7H545v-9.6h-1.4Z" class="g2_199"/>
<path d="M543.6,184.7H545v-9.6h-1.4Z" class="g2_199"/>
<path d="M543.6,193.6H545V184h-1.4Z" class="g2_199"/>
<path d="M543.6,202.6H545V193h-1.4Z" class="g2_199"/>
<path d="M539.5,223.7q0,.1,.1,.1c0,0,.1,0,.1,0c4.7,-5.3,5.3,-19.2,5.3,-20.8v-.6h-1.4v.6c0,1.2,-.8,15,-4,20.4c0,.1,-.1,.2,-.1,.3Z" class="g2_199"/>
<path d="M550.5,186.3h7.6v-.8h-7.6Zm0,-3h7.6v-.8h-7.6Z" class="g2_199"/>
<path d="M569.1,145.1q0,-.1,-.1,-.1h-.1c-4.7,5.4,-5.3,19.2,-5.3,20.8v.7H565v-.7c0,-1.2,.8,-14.9,4,-20.3c.1,-.2,.1,-.3,.1,-.4Z" class="g2_199"/>
<path d="M563.6,175.7H565v-9.6h-1.4Z" class="g2_199"/>
<path d="M563.6,184.7H565v-9.6h-1.4Z" class="g2_199"/>
<path d="M563.6,193.6H565V184h-1.4Z" class="g2_199"/>
<path d="M563.6,202.6H565V193h-1.4Z" class="g2_199"/>
<path d="M569.1,223.7c0,-.1,0,-.2,-.1,-.3C565.8,218,565,204.2,565,203v-.6h-1.4v.6c0,1.6,.6,15.5,5.3,20.8q.1,0,.1,0q.1,0,.1,-.1Z" class="g2_199"/>
<path d="M592.2,154.1h-.3c-.3,1.9,-1,2.7,-2,2.7H584l4.3,-5.5l-3.8,-5.7h4.8c1,0,1.7,.6,2,2.5h.4l-.1,-3.1h-8.9l4.5,6.5l-5.2,6.6h10l.2,-4Z" class="g2_199"/>
<path d="M599.2,149.2h.3l1.5,-6c.1,-.1,.1,-.3,.2,-.4c.1,-.3,.4,-.7,.6,-.9c.1,0,.4,-.1,.5,-.1v-.1h-2.2l-.1,.1c.3,0,.5,.1,.6,.3c.2,.2,.2,.6,.2,.9c0,.1,0,.2,0,.3l-1.1,4v.1l-2.5,-5.7h-2v.1c.4,0,.5,.1,.7,.2c.2,.3,.4,.7,.4,1c0,.1,0,.2,-.1,.3l-1.1,4.5c-.1,.3,-.4,.7,-.6,.9c-.3,.2,-.7,.4,-1,.4v.1h2.8v-.1c-.3,0,-.6,-.1,-.7,-.2c-.2,-.2,-.3,-.5,-.3,-.8c0,-.1,0,-.3,0,-.4l1.1,-4.4l.1,-.2l2.7,6.1Z" class="g2_199"/>
<path d="M596.5,153.5c0,-.3,-.3,-.6,-.6,-.6c-.3,0,-.6,.3,-.6,.6c0,.3,.3,.5,.6,.5c.3,0,.6,-.2,.6,-.5Zm-2.1,6.8c1,0,1.5,-.9,1.7,-1.5l-.2,-.1c-.1,.3,-.5,1.1,-1,1.1c-.1,0,-.2,-.2,-.2,-.3c0,-.2,.2,-.6,.2,-.8l.7,-2c.1,-.3,.2,-.5,.2,-.7c0,-.3,0,-.5,-.4,-.5c-.7,0,-1.5,.8,-1.7,1.3l.2,.1c.1,-.2,.5,-.8,.8,-.8c.2,0,.2,.1,.2,.2c0,.2,-.1,.5,-.1,.7l-.8,2.1c-.1,.2,-.1,.5,-.1,.6c0,.4,.1,.6,.5,.6Z" class="g2_199"/>
<path d="M597.7,158.8h5.5v-.6h-5.5Zm0,-2.2h5.5V156h-5.5Z" class="g2_199"/>
<path d="M605.1,153.1v.2c.3,0,.8,0,1,.1c.3,.2,.3,.3,.3,.7v4.8c0,.2,0,.4,0,.5c-.1,.5,-.7,.6,-1.2,.6v.2h3.4V160c-.4,0,-.9,0,-1.1,-.2c-.1,-.2,-.1,-.6,-.1,-1v-6.3c-.6,.3,-1.6,.6,-2.3,.6Z" class="g2_199"/>
<path d="M612,157.6c0,.6,.4,1,1.1,1c.4,0,.8,-.2,1.3,-.6c.8,-.7,2,-2.2,2.8,-3.4c.3,-.7,.7,-1.3,1,-1.8c.4,-.8,1.1,-2.2,1.1,-3c0,-.2,0,-.4,-.1,-.6c-.1,-.2,-.3,-.2,-.5,-.2c-.1,0,-.3,.1,-.4,.2c-.2,.1,-.2,.3,-.2,.6c0,.5,.2,.9,.2,1.4c0,.5,-.2,1.1,-.5,1.5c-.2,.5,-.4,.9,-.8,1.5h-.1l-.3,-2c-.1,-.5,-.3,-1.6,-.4,-2c-.2,-.7,-.3,-1.2,-1.3,-1.2c-1.2,0,-1.4,1.7,-1.6,2.5l.3,.1c.1,-.5,.5,-2.3,1,-2.3c.3,0,.5,1,.5,1.3c.1,.3,.2,.7,.3,1.4l.6,3.5c-.3,.8,-1.2,1.6,-1.8,2.1c-.2,.2,-.5,.3,-.7,.3c-.1,0,-.2,-.1,-.2,-.2c-.2,-.2,-.2,-.7,-.7,-.7c-.4,0,-.6,.2,-.6,.6Z" class="g2_199"/>
<path d="M622.5,151c0,-.3,-.3,-.6,-.6,-.6c-.3,0,-.5,.3,-.5,.6c0,.3,.3,.5,.5,.5c.3,0,.6,-.2,.6,-.5Zm-2.1,6.8c1,0,1.5,-.9,1.8,-1.4l-.2,-.1c-.2,.2,-.6,1,-1,1c-.1,0,-.2,-.2,-.2,-.3c0,-.2,.1,-.6,.2,-.8l.7,-2c.1,-.3,.1,-.5,.1,-.6c0,-.4,0,-.6,-.3,-.6c-.7,0,-1.5,.8,-1.8,1.3l.2,.1c.2,-.2,.6,-.8,.8,-.8c.2,0,.3,.1,.3,.2c0,.2,-.1,.5,-.2,.7l-.7,2.1c-.1,.2,-.2,.5,-.2,.6c0,.4,.2,.6,.5,.6Z" class="g2_199"/>
<path d="M586.3,173.3H586c-.3,1.9,-1,2.7,-2.1,2.7h-5.8l4.3,-5.5l-3.8,-5.7h4.7c1.1,0,1.8,.6,2.1,2.5h.3v-3.1h-9l4.6,6.6l-5.2,6.5h10l.2,-4Z" class="g2_199"/>
<path d="M593.3,168.4h.2l1.6,-6c.1,-.1,.1,-.3,.2,-.4c.1,-.3,.4,-.7,.6,-.9c.1,0,.3,-.1,.5,-.1v-.1h-2.2l-.1,.1c.3,.1,.5,.1,.6,.3c.2,.2,.2,.6,.2,.9c0,.1,0,.2,-.1,.3l-1,4v.1l-2.6,-5.7h-1.9l-.1,.1c.5,.1,.6,.1,.8,.2c.2,.3,.3,.7,.3,1c0,.1,0,.2,0,.3l-1.2,4.5c-.1,.3,-.3,.7,-.5,.9c-.3,.2,-.7,.4,-1,.4l-.1,.1h2.8l.1,-.1c-.3,0,-.6,-.1,-.7,-.2c-.2,-.2,-.4,-.5,-.4,-.8c0,-.1,0,-.3,.1,-.4l1.1,-4.4l.1,-.2l2.7,6.1Z" class="g2_199"/>
<path d="M590.5,172.7c0,-.3,-.2,-.6,-.5,-.6c-.3,0,-.6,.3,-.6,.6c0,.3,.3,.5,.6,.5c.2,0,.5,-.2,.5,-.5Zm-2,6.8c.9,0,1.4,-.9,1.7,-1.5H590c-.1,.2,-.5,1,-1,1c-.1,0,-.2,-.2,-.2,-.3c0,-.2,.1,-.6,.2,-.8l.7,-2c.1,-.3,.1,-.5,.1,-.7c0,-.3,0,-.5,-.3,-.5c-.7,0,-1.5,.8,-1.7,1.3l.2,.1c.1,-.2,.5,-.8,.8,-.8c.1,0,.2,.1,.2,.2c0,.2,-.1,.5,-.2,.7l-.7,2.1c-.1,.2,-.1,.5,-.1,.6c0,.4,.1,.6,.5,.6Z" class="g2_199"/>
<path d="M591.7,178h5.6v-.6h-5.6Zm0,-2.2h5.6v-.6h-5.6Z" class="g2_199"/>
<path d="M599.2,172.3v.2c.3,0,.8,0,.9,.1c.4,.2,.4,.3,.4,.7v4.8c0,.2,0,.4,-.1,.6c0,.4,-.6,.5,-1.2,.5v.2h3.5v-.2c-.4,0,-.9,0,-1.1,-.2c-.2,-.2,-.2,-.6,-.2,-1v-6.2c-.5,.3,-1.5,.5,-2.2,.5Z" class="g2_199"/>
<path d="M606,176.8c0,.6,.5,1,1.1,1c.5,0,.8,-.2,1.3,-.6c.9,-.7,2.1,-2.2,2.8,-3.4c.4,-.6,.8,-1.3,1.1,-1.8c.4,-.8,1.1,-2.1,1.1,-2.9c0,-.3,-.1,-.5,-.2,-.7c0,-.1,-.2,-.2,-.4,-.2c-.2,0,-.3,.1,-.5,.2c-.1,.1,-.2,.3,-.2,.6c0,.5,.3,1,.3,1.4c0,.6,-.3,1.1,-.5,1.6c-.2,.4,-.5,.8,-.8,1.4H611l-.3,-2c-.1,-.5,-.3,-1.6,-.4,-2c-.2,-.7,-.4,-1.2,-1.4,-1.2c-1.1,0,-1.3,1.8,-1.6,2.5l.3,.2c.2,-.6,.6,-2.4,1.1,-2.4c.3,0,.5,1.1,.5,1.3c.1,.3,.2,.7,.3,1.4l.6,3.5c-.4,.8,-1.2,1.6,-1.8,2.1c-.2,.2,-.5,.3,-.7,.3c-.1,0,-.2,-.1,-.3,-.2c-.2,-.2,-.2,-.7,-.6,-.7c-.4,0,-.7,.3,-.7,.6Z" class="g2_199"/>
<path d="M616.6,170.2c0,-.3,-.3,-.6,-.6,-.6c-.3,0,-.5,.3,-.5,.6c0,.3,.2,.5,.5,.5c.3,0,.6,-.2,.6,-.5Zm-2.1,6.8c1,0,1.5,-.9,1.8,-1.4l-.2,-.1c-.2,.2,-.6,1,-1,1c-.1,0,-.3,-.2,-.3,-.3c0,-.2,.2,-.6,.2,-.8l.8,-2c.1,-.3,.1,-.5,.1,-.6c0,-.4,0,-.6,-.4,-.6c-.6,0,-1.5,.8,-1.7,1.3l.2,.1c.2,-.2,.6,-.8,.8,-.8c.2,0,.2,.1,.2,.3c0,.1,-.1,.4,-.1,.6l-.8,2.1c0,.2,-.1,.5,-.1,.6c0,.4,.1,.6,.5,.6Z" class="g2_199"/>
<path d="M625.3,169.1c0,-.5,-.5,-.9,-1,-.9c-.3,0,-.6,.1,-1,.3c-.3,.3,-.6,.6,-.8,.9c0,-.6,-.4,-1.2,-1.1,-1.2c-1.1,0,-2.1,1.2,-2.4,2l.2,.1c.4,-.5,1.1,-1.7,2,-1.7c.3,0,.4,.5,.4,.9c0,.3,-.1,.7,-.2,1.2l-.4,1.2c-.1,.6,-.4,1.3,-.7,1.7c-.2,.3,-.4,.7,-.8,.7c-.4,0,-.7,-.1,-.6,-.5c.1,-.3,0,-.7,-.4,-.7c-.5,0,-.6,.3,-.6,.8c0,.5,.4,.9,1,.9c1,0,1.8,-.8,2.1,-1.5l.1,.1c.1,.8,.5,1.4,1.3,1.4c1.2,0,2,-1.2,2.5,-1.8l-.2,-.2c-.5,.6,-1.2,1.6,-2,1.6c-.4,0,-.6,-.6,-.6,-1.2c0,-.3,0,-.8,.1,-1.3l.2,-.8c.1,-.5,.4,-1.2,.6,-1.6c.2,-.3,.6,-.9,1,-.9c.4,0,.4,.3,.3,.6c0,.4,.2,.6,.5,.6c.4,0,.5,-.3,.5,-.7Z" class="g2_199"/>
<path d="M628.4,170.2c0,-.3,-.2,-.6,-.5,-.6c-.3,0,-.6,.3,-.6,.6c0,.3,.3,.5,.6,.5c.2,0,.5,-.2,.5,-.5Zm-2,6.8c.9,0,1.4,-.9,1.7,-1.4l-.2,-.1c-.1,.2,-.5,1,-1,1c-.1,0,-.2,-.2,-.2,-.3c0,-.2,.1,-.6,.2,-.8l.7,-2c.1,-.3,.1,-.5,.1,-.6c0,-.4,0,-.6,-.3,-.6c-.7,0,-1.5,.8,-1.8,1.3l.3,.1c.1,-.2,.5,-.8,.8,-.8c.1,0,.2,.1,.2,.3c0,.1,-.1,.4,-.2,.6l-.7,2.1c-.1,.2,-.1,.5,-.1,.6c0,.4,.1,.6,.5,.6Z" class="g2_199"/>
<path d="M602.7,190.8c.5,0,.9,-.4,.9,-.9c0,-.5,-.4,-.9,-.9,-.9c-.5,0,-.9,.4,-.9,.9c0,.4,.4,.9,.9,.9Z" class="g2_199"/>
<path d="M602.7,196.7c.5,0,.9,-.4,.9,-.9c0,-.5,-.4,-.8,-.9,-.8c-.5,0,-.9,.4,-.9,.8c0,.5,.4,.9,.9,.9Z" class="g2_199"/>
<path d="M602.7,202.7c.5,0,.9,-.4,.9,-.9c0,-.5,-.4,-.9,-.9,-.9c-.5,0,-.9,.4,-.9,.9c0,.5,.4,.9,.9,.9Z" class="g2_199"/>
<path d="M580.4,220.4h-.3c-.3,1.9,-1,2.7,-2.1,2.7h-5.8l4.3,-5.5l-3.8,-5.7h4.8c1,0,1.7,.6,2,2.5h.4l-.1,-3.1h-8.9l4.5,6.5l-5.2,6.6h10l.2,-4Z" class="g2_199"/>
<path d="M587.4,215.5h.2l1.6,-6c.1,-.1,.1,-.3,.2,-.4c.1,-.3,.4,-.7,.6,-.9c.1,0,.4,-.1,.5,-.1V208h-2.2l-.1,.1c.3,0,.5,.1,.6,.3c.2,.2,.2,.6,.2,.9c0,.1,0,.2,0,.3l-1.1,4v.1L585.4,208h-2l-.1,.1c.5,0,.6,.1,.8,.2c.2,.3,.4,.7,.4,1c0,.1,0,.2,-.1,.3l-1.2,4.5c0,.3,-.3,.7,-.5,.9c-.3,.2,-.7,.4,-1,.4v.1h2.8v-.1c-.3,0,-.6,-.1,-.7,-.2c-.2,-.2,-.3,-.5,-.3,-.8c0,-.1,0,-.3,0,-.4l1.1,-4.4l.1,-.2l2.7,6.1Z" class="g2_199"/>
<path d="M584.6,219.8c0,-.3,-.2,-.6,-.5,-.6c-.3,0,-.6,.3,-.6,.6c0,.3,.3,.5,.6,.5c.3,0,.5,-.2,.5,-.5Zm-2,6.8c1,0,1.5,-.9,1.7,-1.5l-.2,-.1c-.1,.3,-.5,1.1,-1,1.1c-.1,0,-.2,-.2,-.2,-.3c0,-.2,.1,-.6,.2,-.8l.7,-2c.1,-.3,.2,-.5,.2,-.7c0,-.3,0,-.5,-.4,-.5c-.7,0,-1.5,.8,-1.7,1.3l.2,.1c.1,-.2,.5,-.8,.8,-.8c.2,0,.2,.1,.2,.2c0,.2,-.1,.5,-.2,.7l-.7,2.1c-.1,.2,-.1,.5,-.1,.6c0,.4,.1,.6,.5,.6Z" class="g2_199"/>
<path d="M585.9,225.1h5.5v-.6h-5.5Zm0,-2.2h5.5v-.6h-5.5Z" class="g2_199"/>
<path d="M593.3,219.4v.2c.3,0,.8,0,1,.1c.3,.2,.3,.3,.3,.7v4.8c0,.2,0,.4,-.1,.5c0,.5,-.6,.6,-1.1,.6v.2h3.4v-.2c-.4,0,-.9,0,-1.1,-.2c-.1,-.2,-.2,-.6,-.2,-1v-6.3c-.5,.3,-1.5,.6,-2.2,.6Z" class="g2_199"/>
<path d="M600.2,223.9c0,.6,.4,1,1.1,1c.4,0,.8,-.2,1.3,-.6c.8,-.7,2,-2.2,2.8,-3.4c.3,-.7,.7,-1.3,1,-1.8c.4,-.8,1.1,-2.2,1.1,-3c0,-.2,0,-.4,-.1,-.6c-.1,-.2,-.3,-.2,-.5,-.2c-.2,0,-.3,.1,-.4,.2c-.2,.1,-.2,.3,-.2,.6c0,.5,.2,.9,.2,1.4c0,.5,-.2,1.1,-.5,1.5c-.2,.5,-.4,.9,-.8,1.5h-.1l-.3,-2c-.1,-.5,-.3,-1.6,-.4,-2c-.2,-.7,-.3,-1.2,-1.3,-1.2c-1.2,0,-1.4,1.7,-1.6,2.5l.3,.1c.1,-.5,.5,-2.3,1,-2.3c.3,0,.5,1,.5,1.3c.1,.3,.2,.7,.3,1.4l.6,3.5c-.3,.8,-1.2,1.6,-1.8,2.1c-.2,.2,-.5,.3,-.7,.3c-.1,0,-.2,-.1,-.2,-.2c-.2,-.2,-.2,-.7,-.7,-.7c-.4,0,-.6,.2,-.6,.6Z" class="g2_199"/>
<path d="M610.7,217.3c0,-.3,-.3,-.6,-.6,-.6c-.3,0,-.5,.3,-.5,.6c0,.3,.2,.5,.5,.5c.3,0,.6,-.2,.6,-.5Zm-2.1,6.8c1,0,1.5,-.9,1.8,-1.4l-.2,-.1c-.2,.2,-.6,1,-1,1c-.1,0,-.3,-.2,-.3,-.3c0,-.2,.2,-.6,.3,-.8l.7,-2c.1,-.3,.1,-.5,.1,-.6c0,-.4,0,-.6,-.3,-.6c-.7,0,-1.5,.8,-1.8,1.3l.2,.1c.2,-.2,.6,-.8,.8,-.8c.2,0,.2,.1,.2,.2c.1,.2,0,.5,-.1,.7l-.7,2.1c-.1,.2,-.2,.5,-.2,.6c0,.4,.2,.6,.5,.6Z" class="g2_199"/>
<path d="M619.4,216.2c0,-.5,-.4,-.9,-1,-.9c-.3,0,-.6,.1,-.9,.3c-.4,.2,-.7,.5,-.9,.9c0,-.7,-.4,-1.2,-1,-1.2c-1.2,0,-2.1,1.2,-2.5,1.9l.2,.2c.4,-.5,1.1,-1.7,2,-1.7c.3,0,.4,.5,.4,.9c0,.3,-.1,.7,-.2,1.2l-.4,1.2c-.1,.5,-.4,1.3,-.7,1.7c-.1,.3,-.4,.7,-.8,.7c-.4,0,-.7,-.1,-.6,-.5c.1,-.3,0,-.7,-.4,-.7c-.4,0,-.6,.3,-.6,.7c0,.6,.5,1,1,1c1,0,1.8,-.8,2.2,-1.5v.1c.1,.8,.5,1.4,1.3,1.4c1.2,0,2,-1.2,2.5,-1.8l-.2,-.2c-.5,.6,-1.2,1.6,-2,1.6c-.4,0,-.6,-.6,-.6,-1.2c0,-.3,0,-.8,.1,-1.3l.2,-.8c.1,-.5,.4,-1.2,.6,-1.6c.2,-.3,.6,-.9,1,-.9c.4,0,.4,.3,.3,.6c0,.4,.2,.6,.5,.6c.4,0,.5,-.3,.5,-.7Z" class="g2_199"/>
<path d="M622.5,217.3c0,-.3,-.2,-.6,-.5,-.6c-.3,0,-.6,.3,-.6,.6c0,.3,.3,.5,.6,.5c.2,0,.5,-.2,.5,-.5Zm-2,6.8c.9,0,1.5,-.9,1.7,-1.4l-.2,-.1c-.1,.2,-.5,1,-1,1c-.1,0,-.2,-.2,-.2,-.3c0,-.2,.1,-.6,.2,-.8l.7,-2c.1,-.3,.2,-.5,.2,-.6c0,-.4,-.1,-.6,-.4,-.6c-.7,0,-1.5,.8,-1.7,1.3l.2,.1c.1,-.2,.5,-.8,.8,-.8c.1,0,.2,.1,.2,.2c0,.2,-.1,.5,-.2,.7l-.7,2.1c-.1,.2,-.1,.5,-.1,.6c0,.4,.1,.6,.5,.6Z" class="g2_199"/>
<path d="M632.2,209.8l.2,-.3l-1.4,5.4c-.1,.2,-.1,.4,-.2,.6c-.1,.2,-.3,.5,-.6,.6c-.1,.1,-.2,.1,-.4,.1l-.1,.1h3.2v-.1c-.3,0,-.6,-.1,-.7,-.1c-.2,-.2,-.2,-.4,-.2,-.6c0,-.2,0,-.4,.1,-.7l1.1,-4.1c.1,-.3,.1,-.6,.2,-.8c.1,-.3,.3,-.7,.6,-.8c.1,-.1,.3,-.1,.5,-.1v-.2h-2l-3.6,5.8h-.1l-.7,-5.8h-2.4v.2c.3,0,.5,0,.7,0c.1,.1,.3,.4,.3,.6c0,.1,0,.4,-.1,.8l-1.2,4.5c-.1,.3,-.4,.7,-.6,.9c-.3,.2,-.7,.4,-1,.4v.1h2.7l.1,-.1c-.3,0,-.6,-.1,-.7,-.2c-.1,-.2,-.3,-.5,-.3,-.8c0,-.1,0,-.3,0,-.4l1.3,-5l.1,-.2l.8,6.7h.3l4.1,-6.5Z" class="g2_199"/>
<path d="M636.3,145.1c0,.1,0,.2,.1,.4c3.2,5.4,4,19.1,4,20.3v.7h1.4v-.7c0,-1.6,-.6,-15.4,-5.3,-20.8q-.1,0,-.1,0q-.1,0,-.1,.1Z" class="g2_199"/>
<path d="M640.4,175.7h1.4v-9.6h-1.4Z" class="g2_199"/>
<path d="M640.4,184.7h1.4v-9.6h-1.4Z" class="g2_199"/>
<path d="M640.4,193.6h1.4V184h-1.4Z" class="g2_199"/>
<path d="M640.4,202.6h1.4V193h-1.4Z" class="g2_199"/>
<path d="M636.3,223.7q0,.1,.1,.1h.1c4.7,-5.3,5.3,-19.2,5.3,-20.8v-.6h-1.4v.6c0,1.2,-.8,15,-4,20.4c-.1,.1,-.1,.2,-.1,.3Z" class="g2_199"/>
</svg>