<?xml version="1.0" encoding="UTF-8" standalone="no"?>
<!DOCTYPE svg PUBLIC "-//W3C//DTD SVG 1.1//EN"
"http://www.w3.org/Graphics/SVG/1.1/DTD/svg11.dtd">
<svg viewBox="0 0 811 1017" version="1.1" xmlns="http://www.w3.org/2000/svg" xmlns:xlink="http://www.w3.org/1999/xlink">
<defs>
<style type="text/css"><![CDATA[
.g0_68{
fill: #0E0E0E;
}
]]></style>
</defs>
<path d="M330.2,279c-1.6,-1.9,-1.8,-5.3,-1.8,-8c0,-2.8,0,-6.1,1.8,-8.1l-.1,-.3c-.8,.6,-3,3.4,-3,8.4c0,4.9,2.2,7.7,3,8.3l.1,-.3Z" class="g0_68"/>
<path d="M335.5,268c-.4,0,-.9,.2,-1.3,.5c-.5,.3,-.9,.7,-1.2,1.1c-.7,.8,-1.3,2,-1.3,3.3c0,1,.4,1.7,1.3,1.7c1.3,0,1.8,-.8,2.2,-1.5c-.2,.9,-.1,1.5,.6,1.5c.3,0,.7,-.1,1.1,-.4c.4,-.4,.8,-.8,1.1,-1.4l-.2,-.2c-.3,.4,-.9,1.4,-1.3,1.4c-.2,0,-.3,-.3,-.3,-.6c0,-.9,.6,-2.4,.9,-3.4l.7,-1.8h-1l-.2,.6c-.2,-.5,-.5,-.8,-1.1,-.8Zm.1,.3c.7,0,.6,1.3,.5,1.9c-.1,.3,-.2,.6,-.3,1c-.4,1.2,-1.5,3.1,-2.3,3.1c-.6,0,-.7,-1,-.7,-1.5c0,-.4,0,-.8,.1,-1.3c.4,-1,1.5,-3.2,2.7,-3.2Z" class="g0_68"/>
<path d="M339.9,269.8v.1c.3,0,.8,.1,.9,.2c.4,.1,.4,.3,.4,.7v4.8c0,.2,0,.4,-.1,.5c0,.5,-.6,.6,-1.2,.6v.2h3.5v-.2c-.4,0,-.9,0,-1.1,-.2c-.2,-.2,-.2,-.6,-.2,-1v-6.3c-.5,.3,-1.5,.6,-2.2,.6Z" class="g0_68"/>
<path d="M364.7,268c-.4,0,-.8,.2,-1.3,.5c-.4,.3,-.8,.7,-1.2,1.1c-.7,.8,-1.3,2,-1.3,3.3c0,1,.4,1.7,1.3,1.7c1.3,0,1.8,-.8,2.2,-1.5c-.2,.9,0,1.5,.6,1.5c.3,0,.7,-.1,1.1,-.4c.4,-.4,.8,-.8,1.1,-1.4l-.2,-.2c-.3,.4,-.9,1.4,-1.3,1.4c-.2,0,-.3,-.3,-.3,-.6c0,-.9,.6,-2.4,.9,-3.4l.7,-1.8h-1l-.2,.6c-.2,-.5,-.5,-.8,-1.1,-.8Zm.2,.3c.7,0,.5,1.3,.4,1.9c-.1,.3,-.2,.6,-.3,1c-.4,1.2,-1.5,3.1,-2.3,3.1c-.6,0,-.7,-1,-.7,-1.5c0,-.4,0,-.8,.2,-1.3c.3,-1,1.4,-3.2,2.7,-3.2Z" class="g0_68"/>
<path d="M370.3,272.2c-.7,0,-1.1,-.5,-1.1,-1.1c0,-.8,.5,-1.7,1.4,-1.7c1.2,0,1.3,1,1.3,1.9c0,1,-.3,1.5,-.7,2.2c-.3,.4,-.7,.8,-1.2,1.3c-.5,.5,-1.1,1.1,-1.8,1.8v.3h4.5l.4,-2.1h-.3c-.1,.2,-.2,.4,-.2,.5c-.2,.4,-.5,.6,-1,.6h-2.1c.4,-.4,.9,-.7,1.3,-1.1c.8,-.6,1.6,-1.4,2,-2.3c.2,-.3,.3,-.7,.3,-1.1c0,-.4,-.1,-.6,-.2,-.9c-.4,-.8,-1.1,-1.3,-2.2,-1.3c-.7,0,-1.3,.3,-1.7,.6c-.4,.3,-.7,.8,-.7,1.5c0,.4,.1,.8,.3,1c.2,.3,.5,.4,.9,.4c.4,0,.7,-.2,.8,-.5Z" class="g0_68"/>
<path d="M393.9,268c-.4,0,-.8,.2,-1.3,.5c-.4,.3,-.8,.7,-1.2,1.1c-.6,.8,-1.2,2,-1.2,3.3c0,1,.3,1.7,1.3,1.7c1.3,0,1.7,-.8,2.1,-1.5h.1c-.2,.9,-.1,1.5,.5,1.5c.4,0,.7,-.1,1.1,-.4c.4,-.4,.8,-.8,1.1,-1.4l-.2,-.2c-.2,.4,-.9,1.4,-1.3,1.4c-.2,0,-.3,-.3,-.3,-.6c0,-.9,.6,-2.4,1,-3.4l.7,-1.8h-1l-.3,.6c-.2,-.5,-.5,-.8,-1.1,-.8Zm.2,.3c.7,0,.5,1.3,.4,1.9c0,.3,-.2,.6,-.3,1c-.3,1.2,-1.4,3.1,-2.2,3.1c-.6,0,-.8,-1,-.8,-1.5c0,-.4,0,-.8,.2,-1.3c.4,-1,1.4,-3.2,2.7,-3.2Z" class="g0_68"/>
<path d="M399.7,276.8c-.7,0,-1.2,-.7,-1.2,-1.4c0,-.5,.3,-1,.8,-1c-.1,-.2,-.4,-.4,-.8,-.4c-.1,0,-.3,0,-.4,.1c-.4,.2,-.7,.6,-.7,1.1c0,.3,.1,.5,.2,.7c.4,.7,1.1,1.1,2.2,1.1c.8,0,1.4,-.3,1.8,-.6c.4,-.4,.8,-.9,.8,-1.6c0,-.2,-.1,-.4,-.2,-.6c-.2,-.7,-.8,-1.2,-1.5,-1.3v-.1c.4,-.1,.8,-.4,1,-.7c.2,-.2,.4,-.6,.4,-1.1c0,-.3,0,-.5,-.1,-.7c-.4,-.7,-1.2,-1.1,-2.2,-1.1c-.6,0,-1.2,.2,-1.5,.4c-.3,.2,-.6,.5,-.6,1c0,.3,.1,.6,.3,.8c.1,.1,.4,.3,.7,.3c.2,0,.3,-.1,.5,-.2c.1,0,.1,-.1,.2,-.2c-.4,0,-.7,-.3,-.7,-.8c0,-.6,.5,-1.1,1.1,-1.1c.8,0,1.2,.7,1.2,1.6c0,.9,-.3,1.8,-1.1,1.8c-.2,0,-.4,-.2,-.6,-.2c-.2,0,-.5,.1,-.5,.3c0,.2,.3,.4,.5,.4c.3,0,.5,-.2,.7,-.3c.9,0,1.1,.8,1.1,1.8c0,1,-.4,2,-1.4,2Z" class="g0_68"/>
<path d="M404.5,279l.2,.3c.7,-.6,2.9,-3.4,2.9,-8.3c0,-5,-2.2,-7.8,-2.9,-8.4l-.2,.3c1.8,2,1.8,5.3,1.8,8.1c0,2.7,-.2,6.1,-1.8,8Z" class="g0_68"/>
<path d="M421.5,274.2l-3.3,-3.3l3.3,-3.3l-.6,-.6l-3.3,3.4L414.3,267l-.6,.6l3.3,3.3l-3.3,3.3l.6,.6l3.3,-3.3l3.3,3.3l.6,-.6Z" class="g0_68"/>
<path d="M432,245.1c0,-.1,-.1,-.1,-.1,-.1q-.1,0,-.1,0c-4.8,5.4,-5.3,19.2,-5.3,20.8v.7h1.4v-.7c0,-1.2,.7,-14.9,3.9,-20.4c.1,-.1,.2,-.2,.2,-.3Z" class="g0_68"/>
<path d="M426.5,275.7h1.4v-9.6h-1.4Z" class="g0_68"/>
<path d="M432,296.9c0,-.2,-.1,-.3,-.2,-.4c-3.2,-5.4,-3.9,-19.1,-3.9,-20.3v-.7h-1.4v.7c0,1.5,.5,15.4,5.3,20.7q0,.1,.1,.1c0,0,.1,-.1,.1,-.1Z" class="g0_68"/>
<path d="M436.4,250.5c1.2,0,.9,1.9,.4,3.2c-.4,.8,-1.3,2.7,-2.4,2.7c-.5,0,-.7,-.3,-.7,-1c0,-.7,.3,-1.8,.5,-2.3c.3,-.6,.7,-1.6,1.1,-2c.3,-.3,.6,-.6,1.1,-.6Zm-2.2,6.2c1.6,0,2.8,-1.4,3.4,-2.6c.4,-.6,.7,-1.4,.7,-2.2c0,-1.1,-.5,-1.8,-1.5,-1.8c-1,0,-1.7,.6,-2,1.2h-.1l1.6,-5.6l-2.1,.1l-.1,.2c.6,0,.9,.3,.9,.6c0,.2,-.1,.6,-.2,.7l-1.6,5.7c-.1,.5,-.3,1,-.3,1.4c-.1,.3,-.2,.7,-.2,.8c0,.9,.6,1.5,1.5,1.5Z" class="g0_68"/>
<path d="M440.1,251.9v.1c.4,0,.8,.1,1,.2c.3,.1,.3,.3,.3,.7v4.8c0,.2,0,.4,0,.5c-.1,.5,-.7,.6,-1.2,.6v.2h3.4v-.2c-.4,0,-.9,0,-1.1,-.2c-.1,-.2,-.1,-.6,-.1,-1v-6.3c-.6,.3,-1.6,.6,-2.3,.6Z" class="g0_68"/>
<path d="M446.2,251.9v.1c.4,0,.8,.1,1,.2c.3,.1,.3,.3,.3,.7v4.8c0,.2,0,.4,0,.5c-.1,.5,-.7,.6,-1.2,.6v.2h3.4v-.2c-.4,0,-.9,0,-1.1,-.2c-.1,-.2,-.1,-.6,-.1,-1v-6.3c-.6,.3,-1.6,.6,-2.3,.6Z" class="g0_68"/>
<path d="M470.5,250.5c1.3,0,.9,1.9,.4,3.2c-.3,.8,-1.3,2.7,-2.4,2.7c-.5,0,-.7,-.3,-.7,-1c0,-.7,.3,-1.8,.5,-2.3c.3,-.6,.7,-1.6,1.2,-2c.2,-.3,.6,-.6,1,-.6Zm-2.2,6.2c1.7,0,2.9,-1.4,3.5,-2.6c.3,-.6,.6,-1.4,.6,-2.2c0,-1.1,-.5,-1.8,-1.5,-1.8c-.9,0,-1.6,.6,-2,1.2l1.5,-5.6l-2.1,.1v.2c.6,0,.8,.3,.8,.6c0,.2,-.1,.6,-.1,.7l-1.6,5.7c-.2,.5,-.3,1,-.4,1.4c-.1,.3,-.1,.7,-.1,.8c0,.9,.5,1.5,1.4,1.5Z" class="g0_68"/>
<path d="M474.3,251.9v.1c.3,0,.8,.1,.9,.2c.3,.1,.3,.3,.3,.7v4.8c0,.2,0,.4,0,.5c-.1,.5,-.7,.6,-1.2,.6v.2h3.4v-.2c-.3,0,-.9,0,-1,-.2c-.2,-.2,-.2,-.6,-.2,-1v-6.3c-.6,.3,-1.5,.6,-2.2,.6Z" class="g0_68"/>
<path d="M481.5,254.3c-.6,0,-1,-.5,-1,-1.1c0,-.8,.4,-1.7,1.3,-1.7c1.2,0,1.3,1,1.3,1.9c0,1,-.3,1.5,-.7,2.2c-.3,.4,-.7,.8,-1.1,1.3c-.5,.5,-1.1,1.1,-1.9,1.8v.3H484l.4,-2.1h-.3c-.1,.2,-.2,.4,-.3,.5c-.1,.4,-.5,.6,-1,.6h-2.1c.5,-.4,1,-.7,1.4,-1.1c.7,-.6,1.5,-1.4,1.9,-2.3c.2,-.3,.3,-.7,.3,-1.1c0,-.4,-.1,-.6,-.2,-.9c-.3,-.8,-1.1,-1.3,-2.2,-1.3c-.7,0,-1.3,.3,-1.7,.6c-.4,.3,-.7,.8,-.7,1.5c0,.4,.2,.8,.4,1c.2,.3,.5,.4,.9,.4c.4,0,.7,-.2,.7,-.5Z" class="g0_68"/>
<path d="M504.7,250.5c1.2,0,.9,1.9,.3,3.2c-.3,.8,-1.2,2.7,-2.4,2.7c-.5,0,-.7,-.3,-.7,-1c0,-.7,.3,-1.8,.5,-2.3c.3,-.6,.8,-1.6,1.2,-2c.2,-.3,.6,-.6,1.1,-.6Zm-2.3,6.2c1.7,0,2.9,-1.4,3.5,-2.6c.3,-.6,.6,-1.4,.6,-2.2c0,-1.1,-.5,-1.8,-1.5,-1.8c-.9,0,-1.6,.6,-2,1.2l1.5,-5.6l-2.1,.1v.2c.6,0,.9,.3,.9,.6c0,.2,-.2,.6,-.2,.7l-1.6,5.7c-.2,.5,-.3,1,-.4,1.4c-.1,.3,-.1,.7,-.1,.8c0,.9,.6,1.5,1.4,1.5Z" class="g0_68"/>
<path d="M508.4,251.9v.1c.3,0,.8,.1,.9,.2c.4,.1,.3,.3,.4,.7v4.8c0,.2,0,.4,-.1,.5c0,.5,-.6,.6,-1.2,.6v.2h3.5v-.2c-.4,0,-1,0,-1.1,-.2c-.2,-.2,-.2,-.6,-.2,-1v-6.3c-.6,.3,-1.5,.6,-2.2,.6Z" class="g0_68"/>
<path d="M515.9,258.9c-.7,0,-1.3,-.7,-1.3,-1.4c0,-.5,.3,-1,.8,-1c0,-.2,-.4,-.4,-.7,-.4c-.2,0,-.3,0,-.5,.1c-.4,.2,-.6,.6,-.6,1.1c0,.3,0,.5,.1,.7c.4,.7,1.2,1.1,2.2,1.1c.8,0,1.4,-.3,1.9,-.6c.4,-.4,.7,-.9,.7,-1.6c0,-.2,0,-.4,-.1,-.6c-.3,-.7,-.9,-1.2,-1.6,-1.3v-.1c.4,-.1,.8,-.4,1,-.7c.3,-.2,.5,-.6,.5,-1.1c0,-.3,-.1,-.5,-.2,-.7c-.3,-.7,-1.1,-1.1,-2.2,-1.1c-.6,0,-1.1,.2,-1.5,.4c-.3,.2,-.6,.5,-.6,1c0,.3,.2,.6,.3,.8c.2,.1,.4,.3,.7,.3c.2,0,.4,-.1,.5,-.2c.1,0,.2,-.1,.2,-.2c-.4,0,-.7,-.3,-.7,-.8c0,-.6,.5,-1.1,1.1,-1.1c.8,0,1.2,.7,1.2,1.6c0,.9,-.3,1.8,-1.1,1.8c-.1,0,-.4,-.2,-.6,-.2c-.2,0,-.5,.1,-.5,.3c0,.2,.3,.4,.6,.4c.2,0,.5,-.2,.6,-.3c.9,0,1.2,.8,1.2,1.8c0,1,-.4,2,-1.4,2Z" class="g0_68"/>
<path d="M436.4,268.4c1.2,0,.9,1.9,.4,3.2c-.4,.8,-1.3,2.7,-2.4,2.7c-.5,0,-.7,-.3,-.7,-1c0,-.7,.3,-1.8,.5,-2.3c.3,-.6,.7,-1.6,1.1,-2c.3,-.3,.6,-.6,1.1,-.6Zm-2.2,6.2c1.6,0,2.8,-1.4,3.4,-2.6c.4,-.6,.7,-1.4,.7,-2.2c0,-1.1,-.5,-1.8,-1.5,-1.8c-1,0,-1.7,.6,-2,1.2h-.1l1.6,-5.6l-2.1,.1l-.1,.2c.6,0,.9,.3,.9,.6c0,.2,-.1,.6,-.2,.7l-1.6,5.7c-.1,.5,-.3,1,-.3,1.4c-.1,.3,-.2,.7,-.2,.8c0,.9,.6,1.5,1.5,1.5Z" class="g0_68"/>
<path d="M441.3,272.2c-.7,0,-1.1,-.5,-1.1,-1.1c0,-.8,.5,-1.7,1.4,-1.7c1.2,0,1.3,1,1.3,1.9c0,1,-.3,1.5,-.7,2.2c-.3,.4,-.7,.8,-1.2,1.3c-.4,.5,-1,1.1,-1.8,1.8v.3h4.6l.3,-2.1h-.3c0,.2,-.1,.4,-.2,.5c-.2,.4,-.5,.6,-1,.6h-2.1c.5,-.4,.9,-.7,1.4,-1.1c.7,-.6,1.5,-1.4,1.9,-2.3c.2,-.3,.3,-.7,.3,-1.1c0,-.4,-.1,-.6,-.2,-.9c-.4,-.8,-1.1,-1.3,-2.2,-1.3c-.7,0,-1.3,.3,-1.7,.6c-.4,.3,-.7,.8,-.7,1.5c0,.4,.1,.8,.4,1c.2,.3,.4,.4,.9,.4c.4,0,.7,-.2,.7,-.5Z" class="g0_68"/>
<path d="M446.2,269.8v.1c.4,0,.8,.1,1,.2c.3,.1,.3,.3,.3,.7v4.8c0,.2,0,.4,0,.5c-.1,.5,-.7,.6,-1.2,.6v.2h3.4v-.2c-.4,0,-.9,0,-1.1,-.2c-.1,-.2,-.1,-.6,-.1,-1v-6.3c-.6,.3,-1.6,.6,-2.3,.6Z" class="g0_68"/>
<path d="M470.5,268.4c1.3,0,.9,1.9,.4,3.2c-.3,.8,-1.3,2.7,-2.4,2.7c-.5,0,-.7,-.3,-.7,-1c0,-.7,.3,-1.8,.5,-2.3c.3,-.6,.7,-1.6,1.2,-2c.2,-.3,.6,-.6,1,-.6Zm-2.2,6.2c1.7,0,2.9,-1.4,3.5,-2.6c.3,-.6,.6,-1.4,.6,-2.2c0,-1.1,-.5,-1.8,-1.5,-1.8c-.9,0,-1.6,.6,-2,1.2l1.5,-5.6l-2.1,.1v.2c.6,0,.8,.3,.8,.6c0,.2,-.1,.6,-.1,.7l-1.6,5.7c-.2,.5,-.3,1,-.4,1.4c-.1,.3,-.1,.7,-.1,.8c0,.9,.5,1.5,1.4,1.5Z" class="g0_68"/>
<path d="M475.4,272.2c-.6,0,-1,-.5,-1,-1.1c0,-.8,.4,-1.7,1.3,-1.7c1.2,0,1.3,1,1.3,1.9c0,1,-.3,1.5,-.7,2.2c-.3,.4,-.7,.8,-1.1,1.3c-.5,.5,-1.1,1.1,-1.9,1.8v.3h4.6l.4,-2.1H478c-.1,.2,-.2,.4,-.3,.5c-.1,.4,-.5,.6,-1,.6h-2.1c.5,-.4,1,-.7,1.4,-1.1c.7,-.6,1.5,-1.4,1.9,-2.3c.2,-.3,.3,-.7,.3,-1.1c0,-.4,-.1,-.6,-.2,-.9c-.3,-.8,-1.1,-1.3,-2.2,-1.3c-.7,0,-1.3,.3,-1.7,.6c-.4,.3,-.7,.8,-.7,1.5c0,.4,.2,.8,.4,1c.2,.3,.5,.4,.9,.4c.4,0,.7,-.2,.7,-.5Z" class="g0_68"/>
<path d="M481.5,272.2c-.6,0,-1,-.5,-1,-1.1c0,-.8,.4,-1.7,1.3,-1.7c1.2,0,1.3,1,1.3,1.9c0,1,-.3,1.5,-.7,2.2c-.3,.4,-.7,.8,-1.1,1.3c-.5,.5,-1.1,1.1,-1.9,1.8v.3H484l.4,-2.1h-.3c-.1,.2,-.2,.4,-.3,.5c-.1,.4,-.5,.6,-1,.6h-2.1c.5,-.4,1,-.7,1.4,-1.1c.7,-.6,1.5,-1.4,1.9,-2.3c.2,-.3,.3,-.7,.3,-1.1c0,-.4,-.1,-.6,-.2,-.9c-.3,-.8,-1.1,-1.3,-2.2,-1.3c-.7,0,-1.3,.3,-1.7,.6c-.4,.3,-.7,.8,-.7,1.5c0,.4,.2,.8,.4,1c.2,.3,.5,.4,.9,.4c.4,0,.7,-.2,.7,-.5Z" class="g0_68"/>
<path d="M504.7,268.4c1.2,0,.9,1.9,.3,3.2c-.3,.8,-1.2,2.7,-2.4,2.7c-.5,0,-.7,-.3,-.7,-1c0,-.7,.3,-1.8,.5,-2.3c.3,-.6,.8,-1.6,1.2,-2c.2,-.3,.6,-.6,1.1,-.6Zm-2.3,6.2c1.7,0,2.9,-1.4,3.5,-2.6c.3,-.6,.6,-1.4,.6,-2.2c0,-1.1,-.5,-1.8,-1.5,-1.8c-.9,0,-1.6,.6,-2,1.2l1.5,-5.6l-2.1,.1v.2c.6,0,.9,.3,.9,.6c0,.2,-.2,.6,-.2,.7l-1.6,5.7c-.2,.5,-.3,1,-.4,1.4c-.1,.3,-.1,.7,-.1,.8c0,.9,.6,1.5,1.4,1.5Z" class="g0_68"/>
<path d="M509.6,272.2c-.7,0,-1.1,-.5,-1.1,-1.1c0,-.8,.4,-1.7,1.3,-1.7c1.2,0,1.3,1,1.3,1.9c0,1,-.2,1.5,-.7,2.2c-.2,.4,-.6,.8,-1.1,1.3c-.5,.5,-1.1,1.1,-1.8,1.8v.3H512l.4,-2.1h-.3c-.1,.2,-.2,.4,-.3,.5c-.1,.4,-.4,.6,-1,.6h-2.1c.5,-.4,1,-.7,1.4,-1.1c.7,-.6,1.5,-1.4,2,-2.3c.1,-.3,.2,-.7,.2,-1.1c0,-.4,0,-.6,-.1,-.9c-.4,-.8,-1.1,-1.3,-2.2,-1.3c-.7,0,-1.4,.3,-1.8,.6c-.3,.3,-.7,.8,-.7,1.5c0,.4,.2,.8,.4,1c.2,.3,.5,.4,.9,.4c.4,0,.7,-.2,.8,-.5Z" class="g0_68"/>
<path d="M515.9,276.8c-.7,0,-1.3,-.7,-1.3,-1.4c0,-.5,.3,-1,.8,-1c0,-.2,-.4,-.4,-.7,-.4c-.2,0,-.3,0,-.5,.1c-.4,.2,-.6,.6,-.6,1.1c0,.3,0,.5,.1,.7c.4,.7,1.2,1.1,2.2,1.1c.8,0,1.4,-.3,1.9,-.6c.4,-.4,.7,-.9,.7,-1.6c0,-.2,0,-.4,-.1,-.6c-.3,-.7,-.9,-1.2,-1.6,-1.3v-.1c.4,-.1,.8,-.4,1,-.7c.3,-.2,.5,-.6,.5,-1.1c0,-.3,-.1,-.5,-.2,-.7c-.3,-.7,-1.1,-1.1,-2.2,-1.1c-.6,0,-1.1,.2,-1.5,.4c-.3,.2,-.6,.5,-.6,1c0,.3,.2,.6,.3,.8c.2,.1,.4,.3,.7,.3c.2,0,.4,-.1,.5,-.2c.1,0,.2,-.1,.2,-.2c-.4,0,-.7,-.3,-.7,-.8c0,-.6,.5,-1.1,1.1,-1.1c.8,0,1.2,.7,1.2,1.6c0,.9,-.3,1.8,-1.1,1.8c-.1,0,-.4,-.2,-.6,-.2c-.2,0,-.5,.1,-.5,.3c0,.2,.3,.4,.6,.4c.2,0,.5,-.2,.6,-.3c.9,0,1.2,.8,1.2,1.8c0,1,-.4,2,-1.4,2Z" class="g0_68"/>
<path d="M436.4,286.3c1.2,0,.9,1.9,.4,3.2c-.4,.8,-1.3,2.7,-2.4,2.7c-.5,0,-.7,-.3,-.7,-1c0,-.7,.3,-1.8,.5,-2.3c.3,-.6,.7,-1.6,1.1,-2c.3,-.3,.6,-.6,1.1,-.6Zm-2.2,6.2c1.6,0,2.8,-1.4,3.4,-2.6c.4,-.6,.7,-1.4,.7,-2.2c0,-1.1,-.5,-1.8,-1.5,-1.8c-1,0,-1.7,.6,-2,1.2h-.1l1.6,-5.6l-2.1,.1l-.1,.2c.6,0,.9,.3,.9,.6c0,.2,-.1,.6,-.2,.7l-1.6,5.7c-.1,.5,-.3,1,-.3,1.4c-.1,.3,-.2,.7,-.2,.8c0,.9,.6,1.5,1.5,1.5Z" class="g0_68"/>
<path d="M441.5,294.7c-.7,0,-1.2,-.7,-1.2,-1.4c0,-.5,.3,-1,.8,-1c-.1,-.2,-.4,-.4,-.8,-.4c-.1,0,-.3,0,-.4,.1c-.4,.2,-.7,.6,-.7,1.1c0,.3,.1,.5,.2,.7c.4,.7,1.1,1.1,2.2,1.1c.8,0,1.4,-.3,1.8,-.6c.4,-.4,.8,-.9,.8,-1.6c0,-.2,-.1,-.4,-.2,-.6c-.2,-.7,-.8,-1.2,-1.5,-1.3v-.1c.4,-.1,.8,-.4,1,-.7c.2,-.2,.4,-.6,.4,-1.1c0,-.3,0,-.5,-.1,-.7c-.4,-.7,-1.2,-1.1,-2.2,-1.1c-.6,0,-1.2,.2,-1.5,.4c-.3,.2,-.6,.6,-.6,1c0,.3,.1,.6,.3,.8c.1,.1,.4,.3,.7,.3c.2,0,.3,-.1,.5,-.1c.1,-.1,.1,-.2,.2,-.3c-.4,0,-.7,-.3,-.7,-.8c0,-.6,.5,-1.1,1.1,-1.1c.8,0,1.2,.7,1.2,1.6c0,.9,-.3,1.8,-1.1,1.8c-.2,0,-.4,-.2,-.6,-.2c-.2,0,-.5,.1,-.5,.3c0,.2,.3,.4,.5,.4c.3,0,.5,-.2,.7,-.3c.9,0,1.1,.8,1.1,1.8c0,1,-.4,2,-1.4,2Z" class="g0_68"/>
<path d="M446.2,287.7v.1c.4,0,.8,.1,1,.2c.3,.1,.3,.3,.3,.7v4.8c0,.2,0,.4,0,.5c-.1,.5,-.7,.6,-1.2,.6v.2h3.4v-.2c-.4,0,-.9,0,-1.1,-.2c-.1,-.2,-.1,-.6,-.1,-1v-6.3c-.6,.3,-1.6,.6,-2.3,.6Z" class="g0_68"/>
<path d="M470.5,286.3c1.3,0,.9,1.9,.4,3.2c-.3,.8,-1.3,2.7,-2.4,2.7c-.5,0,-.7,-.3,-.7,-1c0,-.7,.3,-1.8,.5,-2.3c.3,-.6,.7,-1.6,1.2,-2c.2,-.3,.6,-.6,1,-.6Zm-2.2,6.2c1.7,0,2.9,-1.4,3.5,-2.6c.3,-.6,.6,-1.4,.6,-2.2c0,-1.1,-.5,-1.8,-1.5,-1.8c-.9,0,-1.6,.6,-2,1.2l1.5,-5.6l-2.1,.1v.2c.6,0,.8,.3,.8,.6c0,.2,-.1,.6,-.1,.7l-1.6,5.7c-.2,.5,-.3,1,-.4,1.4c-.1,.3,-.1,.7,-.1,.8c0,.9,.5,1.5,1.4,1.5Z" class="g0_68"/>
<path d="M475.7,294.7c-.8,0,-1.3,-.7,-1.3,-1.4c0,-.5,.3,-1,.8,-1c0,-.2,-.4,-.4,-.7,-.4c-.2,0,-.3,0,-.5,.1c-.4,.2,-.7,.6,-.7,1.1c0,.3,.1,.5,.2,.7c.4,.7,1.2,1.1,2.2,1.1c.8,0,1.4,-.3,1.8,-.6c.5,-.4,.8,-.9,.8,-1.6c0,-.2,-.1,-.4,-.2,-.6c-.2,-.7,-.8,-1.2,-1.5,-1.3v-.1c.4,-.1,.8,-.4,1,-.7c.3,-.2,.4,-.6,.4,-1.1c0,-.3,0,-.5,-.1,-.7c-.4,-.7,-1.2,-1.1,-2.2,-1.1c-.6,0,-1.1,.2,-1.5,.4c-.3,.2,-.6,.6,-.6,1c0,.3,.1,.6,.3,.8c.2,.1,.4,.3,.7,.3c.2,0,.3,-.1,.5,-.1c.1,-.1,.2,-.2,.2,-.3c-.4,0,-.7,-.3,-.7,-.8c0,-.6,.5,-1.1,1.1,-1.1c.8,0,1.2,.7,1.2,1.6c0,.9,-.3,1.8,-1.1,1.8c-.2,0,-.4,-.2,-.6,-.2c-.2,0,-.5,.1,-.5,.3c0,.2,.3,.4,.5,.4c.3,0,.5,-.2,.7,-.3c.9,0,1.1,.8,1.1,1.8c0,1,-.4,2,-1.3,2Z" class="g0_68"/>
<path d="M481.5,290.1c-.6,0,-1,-.5,-1,-1.1c0,-.8,.4,-1.7,1.3,-1.7c1.2,0,1.3,1,1.3,1.9c0,1,-.3,1.5,-.7,2.2c-.3,.4,-.7,.8,-1.1,1.3c-.5,.5,-1.1,1.1,-1.9,1.8v.3H484l.4,-2.1h-.3c-.1,.2,-.2,.4,-.3,.5c-.1,.4,-.5,.6,-1,.6h-2.1c.5,-.4,1,-.7,1.4,-1.1c.7,-.6,1.5,-1.4,1.9,-2.3c.2,-.3,.3,-.7,.3,-1.1c0,-.4,-.1,-.6,-.2,-.9c-.3,-.8,-1.1,-1.3,-2.2,-1.3c-.7,0,-1.3,.3,-1.7,.6c-.4,.3,-.7,.8,-.7,1.5c0,.4,.2,.8,.4,1c.2,.3,.5,.4,.9,.4c.4,0,.7,-.2,.7,-.5Z" class="g0_68"/>
<path d="M504.7,286.3c1.2,0,.9,1.9,.3,3.2c-.3,.8,-1.2,2.7,-2.4,2.7c-.5,0,-.7,-.3,-.7,-1c0,-.7,.3,-1.8,.5,-2.3c.3,-.6,.8,-1.6,1.2,-2c.2,-.3,.6,-.6,1.1,-.6Zm-2.3,6.2c1.7,0,2.9,-1.4,3.5,-2.6c.3,-.6,.6,-1.4,.6,-2.2c0,-1.1,-.5,-1.8,-1.5,-1.8c-.9,0,-1.6,.6,-2,1.2l1.5,-5.6l-2.1,.1v.2c.6,0,.9,.3,.9,.6c0,.2,-.2,.6,-.2,.7l-1.6,5.7c-.2,.5,-.3,1,-.4,1.4c-.1,.3,-.1,.7,-.1,.8c0,.9,.6,1.5,1.4,1.5Z" class="g0_68"/>
<path d="M509.8,294.7c-.7,0,-1.3,-.7,-1.3,-1.4c0,-.5,.3,-1,.8,-1c0,-.2,-.4,-.4,-.7,-.4c-.2,0,-.3,0,-.5,.1c-.4,.2,-.6,.6,-.6,1.1c0,.3,0,.5,.1,.7c.4,.7,1.2,1.1,2.2,1.1c.8,0,1.4,-.3,1.9,-.6c.4,-.4,.7,-.9,.7,-1.6c0,-.2,0,-.4,-.1,-.6c-.3,-.7,-.9,-1.2,-1.6,-1.3v-.1c.4,-.1,.8,-.4,1,-.7c.3,-.2,.5,-.6,.5,-1.1c0,-.3,-.1,-.5,-.2,-.7c-.3,-.7,-1.1,-1.1,-2.2,-1.1c-.6,0,-1.1,.2,-1.5,.4c-.3,.2,-.6,.6,-.6,1c0,.3,.2,.6,.3,.8c.2,.1,.4,.3,.7,.3c.2,0,.4,-.1,.5,-.1c.1,-.1,.2,-.2,.2,-.3c-.4,0,-.7,-.3,-.7,-.8c0,-.6,.5,-1.1,1.1,-1.1c.8,0,1.2,.7,1.2,1.6c0,.9,-.2,1.8,-1.1,1.8c-.1,0,-.4,-.2,-.6,-.2c-.2,0,-.5,.1,-.5,.3c0,.2,.3,.4,.6,.4c.2,0,.5,-.2,.6,-.3c.9,0,1.2,.8,1.2,1.8c0,1,-.4,2,-1.4,2Z" class="g0_68"/>
<path d="M515.9,294.7c-.7,0,-1.3,-.7,-1.3,-1.4c0,-.5,.3,-1,.8,-1c0,-.2,-.4,-.4,-.7,-.4c-.2,0,-.3,0,-.5,.1c-.4,.2,-.6,.6,-.6,1.1c0,.3,0,.5,.1,.7c.4,.7,1.2,1.1,2.2,1.1c.8,0,1.4,-.3,1.9,-.6c.4,-.4,.7,-.9,.7,-1.6c0,-.2,0,-.4,-.1,-.6c-.3,-.7,-.9,-1.2,-1.6,-1.3v-.1c.4,-.1,.8,-.4,1,-.7c.3,-.2,.5,-.6,.5,-1.1c0,-.3,-.1,-.5,-.2,-.7c-.3,-.7,-1.1,-1.1,-2.2,-1.1c-.6,0,-1.1,.2,-1.5,.4c-.3,.2,-.6,.6,-.6,1c0,.3,.2,.6,.3,.8c.2,.1,.4,.3,.7,.3c.2,0,.4,-.1,.5,-.1c.1,-.1,.2,-.2,.2,-.3c-.4,0,-.7,-.3,-.7,-.8c0,-.6,.5,-1.1,1.1,-1.1c.8,0,1.2,.7,1.2,1.6c0,.9,-.3,1.8,-1.1,1.8c-.1,0,-.4,-.2,-.6,-.2c-.2,0,-.5,.1,-.5,.3c0,.2,.3,.4,.6,.4c.2,0,.5,-.2,.6,-.3c.9,0,1.2,.8,1.2,1.8c0,1,-.4,2,-1.4,2Z" class="g0_68"/>
<path d="M520.3,245.1c0,.1,.1,.2,.2,.3c3.1,5.5,3.9,19.2,3.9,20.4v.7h1.4v-2.1c-.2,-4,-1.2,-14.8,-5.3,-19.4h-.1c0,0,-.1,0,-.1,.1Z" class="g0_68"/>
<path d="M524.4,275.7h1.4v-9.6h-1.4Z" class="g0_68"/>
<path d="M520.3,296.9c0,0,.1,0,.1,.1c.1,0,.1,-.1,.1,-.1c4.1,-4.5,5.1,-15.3,5.3,-19.3v-2.1h-1.4v.7c0,1.2,-.8,14.9,-3.9,20.3c-.1,.1,-.2,.2,-.2,.4Z" class="g0_68"/>
<path d="M204.5,335h7.6v-.9h-7.6Zm0,-3.1h7.6v-.8h-7.6Z" class="g0_68"/>
<path d="M222,341c-1.6,-1.8,-1.9,-5.2,-1.9,-8c0,-2.7,.1,-6,1.9,-8.1l-.2,-.2c-.8,.6,-3,3.5,-3,8.3c0,5,2.3,7.8,3,8.4l.2,-.4Z" class="g0_68"/>
<path d="M227.3,330.1c-.5,0,-.9,.2,-1.3,.5c-.5,.3,-.9,.6,-1.3,1.1c-.6,.8,-1.2,2,-1.2,3.3c0,1,.3,1.7,1.3,1.7c1.3,0,1.8,-.9,2.1,-1.5h.1c-.2,.9,-.1,1.5,.5,1.5c.4,0,.8,-.2,1.2,-.5c.3,-.3,.7,-.8,1,-1.3l-.1,-.2c-.3,.4,-1,1.4,-1.4,1.4c-.2,0,-.3,-.4,-.3,-.6c0,-.9,.7,-2.4,1,-3.4l.7,-1.9h-1l-.3,.7c-.1,-.5,-.4,-.8,-1,-.8Zm.1,.3c.7,0,.5,1.3,.4,1.9c0,.3,-.2,.6,-.3,.9c-.3,1.2,-1.4,3.2,-2.2,3.2c-.6,0,-.8,-1,-.8,-1.5c0,-.4,0,-.9,.2,-1.3c.4,-1,1.4,-3.2,2.7,-3.2Z" class="g0_68"/>
<path d="M231.6,331.9v.1c.4,0,.9,.1,1,.1c.3,.2,.3,.3,.3,.8v4.7c0,.3,0,.5,0,.6c-.1,.5,-.7,.6,-1.2,.6v.1h3.4v-.1c-.3,0,-.9,0,-1,-.2c-.2,-.3,-.2,-.6,-.2,-1v-6.3c-.6,.3,-1.5,.5,-2.3,.6Z" class="g0_68"/>
<path d="M241,330.5c1.3,0,.9,1.9,.4,3.2c-.3,.8,-1.3,2.7,-2.4,2.7c-.5,0,-.7,-.3,-.7,-1c0,-.7,.3,-1.8,.5,-2.3c.3,-.6,.8,-1.6,1.2,-2.1c.2,-.3,.6,-.5,1,-.5Zm-2.2,6.2c1.7,0,2.9,-1.5,3.5,-2.6c.3,-.6,.6,-1.4,.6,-2.3c0,-1,-.5,-1.7,-1.5,-1.7c-.9,0,-1.6,.6,-2,1.2l1.5,-5.6l-2.1,.1v.2c.6,0,.8,.3,.8,.6c0,.2,-.1,.5,-.1,.7l-1.6,5.7c-.2,.5,-.3,1,-.4,1.3c-.1,.4,-.1,.7,-.1,.9c0,.9,.5,1.5,1.4,1.5Z" class="g0_68"/>
<path d="M244.8,331.9v.1c.3,0,.8,.1,.9,.1c.3,.2,.3,.3,.3,.8v4.7c0,.3,0,.5,0,.6c-.1,.5,-.6,.6,-1.2,.6v.1h3.4v-.1c-.3,0,-.9,0,-1,-.2c-.2,-.3,-.2,-.6,-.2,-1v-6.3c-.6,.3,-1.5,.5,-2.2,.6Z" class="g0_68"/>
<path d="M250.9,331.9v.1c.3,0,.8,.1,.9,.1c.3,.2,.3,.3,.3,.8v4.7c0,.3,0,.5,0,.6c-.1,.5,-.6,.6,-1.2,.6v.1h3.4v-.1c-.3,0,-.9,0,-1,-.2c-.2,-.3,-.2,-.6,-.2,-1v-6.3c-.6,.3,-1.5,.5,-2.2,.6Z" class="g0_68"/>
<path d="M263.3,332.3H260v1h3.3v3.3h1v-3.3h3.2v-1h-3.2v-3.2h-1v3.2Z" class="g0_68"/>
<path d="M275.8,330.1c-.4,0,-.8,.2,-1.3,.5c-.4,.3,-.9,.6,-1.2,1.1c-.7,.8,-1.3,2,-1.3,3.3c0,1,.4,1.7,1.3,1.7c1.3,0,1.8,-.9,2.2,-1.5c-.2,.9,-.1,1.5,.6,1.5c.3,0,.7,-.2,1.1,-.5c.4,-.3,.8,-.8,1.1,-1.3l-.2,-.2c-.3,.4,-.9,1.4,-1.3,1.4c-.2,0,-.3,-.4,-.3,-.6c0,-.9,.6,-2.4,.9,-3.4l.7,-1.9h-1l-.2,.7c-.2,-.5,-.5,-.8,-1.1,-.8Zm.1,.3c.7,0,.6,1.3,.5,1.9c-.1,.3,-.2,.6,-.3,.9c-.4,1.2,-1.5,3.2,-2.3,3.2c-.6,0,-.7,-1,-.7,-1.5c0,-.4,0,-.9,.2,-1.3c.3,-1,1.4,-3.2,2.6,-3.2Z" class="g0_68"/>
<path d="M281.4,334.3c-.7,0,-1.1,-.5,-1.1,-1.2c0,-.8,.4,-1.6,1.3,-1.6c1.2,0,1.4,1,1.4,1.9c0,.9,-.3,1.5,-.7,2.1c-.3,.4,-.7,.9,-1.2,1.4c-.5,.5,-1.1,1.1,-1.8,1.7v.3h4.5l.4,-2h-.3c-.1,.2,-.2,.4,-.2,.5c-.2,.4,-.5,.6,-1,.6h-2.1l-.1,-.1c.5,-.3,1,-.7,1.4,-1c.8,-.7,1.6,-1.4,2,-2.3c.2,-.4,.2,-.8,.2,-1.2c0,-.3,0,-.6,-.1,-.8c-.4,-.8,-1.1,-1.3,-2.2,-1.3c-.7,0,-1.3,.3,-1.7,.6c-.4,.3,-.7,.8,-.7,1.4c0,.5,.1,.8,.3,1.1c.2,.2,.5,.4,.9,.4c.4,0,.7,-.2,.8,-.5Z" class="g0_68"/>
<path d="M289.6,330.5c1.2,0,.9,1.9,.4,3.2c-.4,.8,-1.3,2.7,-2.4,2.7c-.5,0,-.7,-.3,-.7,-1c0,-.7,.2,-1.8,.5,-2.3c.2,-.6,.7,-1.6,1.1,-2.1c.3,-.3,.6,-.5,1.1,-.5Zm-2.2,6.2c1.6,0,2.8,-1.5,3.4,-2.6c.4,-.6,.7,-1.4,.7,-2.3c0,-1,-.6,-1.7,-1.6,-1.7c-.9,0,-1.6,.6,-2,1.2l1.5,-5.6l-2,.1l-.1,.2c.6,0,.9,.3,.9,.6c0,.2,-.1,.5,-.2,.7l-1.6,5.7c-.2,.5,-.3,1,-.4,1.3c0,.4,-.1,.7,-.1,.9c0,.9,.6,1.5,1.5,1.5Z" class="g0_68"/>
<path d="M294.5,334.3c-.7,0,-1.1,-.5,-1.1,-1.2c0,-.8,.5,-1.6,1.4,-1.6c1.2,0,1.3,1,1.3,1.9c0,.9,-.3,1.5,-.7,2.1c-.3,.4,-.7,.9,-1.2,1.4c-.5,.5,-1.1,1.1,-1.8,1.7v.3h4.5l.4,-2H297c-.1,.2,-.2,.4,-.2,.5c-.2,.4,-.5,.6,-1,.6h-2.1v-.1c.4,-.3,.9,-.7,1.3,-1c.8,-.7,1.6,-1.4,2,-2.3c.2,-.4,.3,-.8,.3,-1.2c0,-.3,-.1,-.6,-.2,-.8c-.4,-.8,-1.1,-1.3,-2.2,-1.3c-.7,0,-1.3,.3,-1.7,.6c-.4,.3,-.7,.8,-.7,1.4c0,.5,.1,.8,.3,1.1c.2,.2,.5,.4,.9,.4c.4,0,.7,-.2,.8,-.5Z" class="g0_68"/>
<path d="M299.4,331.9v.1c.3,0,.8,.1,1,.1c.3,.2,.3,.3,.3,.8v4.7c0,.3,0,.5,0,.6c-.1,.5,-.7,.6,-1.2,.6v.1h3.4v-.1c-.4,0,-.9,0,-1.1,-.2c-.1,-.3,-.1,-.6,-.1,-1v-6.3c-.6,.3,-1.6,.5,-2.3,.6Z" class="g0_68"/>
<path d="M311.8,332.3h-3.2v1h3.2v3.3h1v-3.3h3.3v-1h-3.3v-3.2h-1v3.2Z" class="g0_68"/>
<path d="M324.4,330.1c-.5,0,-.9,.2,-1.3,.5c-.5,.3,-.9,.6,-1.3,1.1c-.6,.8,-1.2,2,-1.2,3.3c0,1,.3,1.7,1.3,1.7c1.3,0,1.8,-.9,2.2,-1.5c-.2,.9,-.1,1.5,.5,1.5c.4,0,.8,-.2,1.2,-.5c.3,-.3,.7,-.8,1,-1.3l-.1,-.2c-.3,.4,-1,1.4,-1.4,1.4c-.2,0,-.3,-.4,-.3,-.6c0,-.9,.7,-2.4,1,-3.4l.7,-1.9h-1l-.3,.7c-.1,-.5,-.4,-.8,-1,-.8Zm.1,.3c.7,0,.5,1.3,.4,1.9c0,.3,-.1,.6,-.3,.9c-.3,1.2,-1.4,3.2,-2.2,3.2c-.6,0,-.8,-1,-.8,-1.5c0,-.4,0,-.9,.2,-1.3c.4,-1,1.4,-3.2,2.7,-3.2Z" class="g0_68"/>
<path d="M330.2,338.9c-.8,0,-1.3,-.7,-1.3,-1.4c0,-.6,.3,-1,.8,-1c0,-.3,-.4,-.4,-.7,-.4c-.2,0,-.3,0,-.5,.1c-.4,.1,-.7,.6,-.7,1.1c0,.3,.1,.5,.2,.7c.4,.7,1.2,1,2.2,1c.8,0,1.4,-.2,1.8,-.6c.5,-.3,.8,-.8,.8,-1.5c0,-.2,-.1,-.5,-.2,-.7c-.2,-.6,-.8,-1.1,-1.5,-1.3c.4,-.1,.8,-.4,1,-.7c.3,-.3,.4,-.7,.4,-1.1c0,-.3,0,-.5,-.1,-.8c-.3,-.6,-1.2,-1,-2.2,-1c-.6,0,-1.1,.1,-1.5,.4c-.3,.2,-.6,.5,-.6,1c0,.3,.1,.6,.3,.7c.2,.2,.4,.3,.7,.3c.2,0,.3,0,.5,-.1c.1,0,.2,-.1,.2,-.2c-.4,0,-.7,-.4,-.7,-.8c0,-.6,.5,-1.1,1.1,-1.1c.8,0,1.2,.7,1.2,1.6c0,.9,-.3,1.8,-1.1,1.8c-.2,-.1,-.4,-.2,-.6,-.2c-.2,0,-.5,.1,-.5,.3c0,.2,.3,.3,.5,.3c.3,0,.5,-.1,.7,-.2c.9,0,1.1,.8,1.1,1.8c0,1,-.3,2,-1.3,2Z" class="g0_68"/>
<path d="M338.1,330.5c1.3,0,1,1.9,.4,3.2c-.3,.8,-1.3,2.7,-2.4,2.7c-.5,0,-.7,-.3,-.7,-1c0,-.7,.3,-1.8,.5,-2.3c.3,-.6,.8,-1.6,1.2,-2.1c.2,-.3,.6,-.5,1,-.5Zm-2.2,6.2c1.7,0,2.9,-1.5,3.5,-2.6c.3,-.6,.6,-1.4,.6,-2.3c0,-1,-.5,-1.7,-1.5,-1.7c-.9,0,-1.6,.6,-2,1.2l1.5,-5.6l-2.1,.1v.2c.6,0,.8,.3,.8,.6c0,.2,-.1,.5,-.1,.7L335,333c-.2,.5,-.3,1,-.4,1.3c-.1,.4,-.1,.7,-.1,.9c0,.9,.5,1.5,1.4,1.5Z" class="g0_68"/>
<path d="M343.3,338.9c-.8,0,-1.3,-.7,-1.3,-1.4c0,-.6,.3,-1,.8,-1c0,-.3,-.4,-.4,-.7,-.4c-.2,0,-.3,0,-.5,.1c-.4,.1,-.6,.6,-.6,1.1c0,.3,0,.5,.1,.7c.4,.7,1.2,1,2.2,1c.8,0,1.4,-.2,1.8,-.6c.5,-.3,.8,-.8,.8,-1.5c0,-.2,-.1,-.5,-.1,-.7c-.3,-.6,-.9,-1.1,-1.6,-1.3c.4,-.1,.8,-.4,1,-.7c.3,-.3,.5,-.7,.5,-1.1c0,-.3,-.1,-.5,-.2,-.8c-.3,-.6,-1.2,-1,-2.2,-1c-.6,0,-1.1,.1,-1.5,.4c-.3,.2,-.6,.5,-.6,1c0,.3,.2,.6,.3,.7c.2,.2,.4,.3,.7,.3c.2,0,.3,0,.5,-.1c.1,0,.2,-.1,.2,-.2c-.4,0,-.7,-.4,-.7,-.8c0,-.6,.5,-1.1,1.1,-1.1c.8,0,1.2,.7,1.2,1.6c0,.9,-.3,1.8,-1.1,1.8c-.1,-.1,-.4,-.2,-.6,-.2c-.2,0,-.5,.1,-.5,.3c0,.2,.3,.3,.5,.3c.3,0,.5,-.1,.7,-.2c.9,0,1.1,.8,1.1,1.8c0,1,-.3,2,-1.3,2Z" class="g0_68"/>
<path d="M348,331.9v.1c.3,0,.8,.1,.9,.1c.4,.2,.3,.3,.4,.8v4.7c0,.3,-.1,.5,-.1,.6c-.1,.5,-.6,.6,-1.2,.6v.1h3.4v-.1c-.3,0,-.9,0,-1,-.2c-.2,-.3,-.2,-.6,-.2,-1v-6.3c-.6,.3,-1.5,.5,-2.2,.6Z" class="g0_68"/>
<path d="M372.8,330.1c-.4,0,-.9,.2,-1.3,.5c-.5,.3,-.9,.6,-1.2,1.1c-.7,.8,-1.3,2,-1.3,3.3c0,1,.4,1.7,1.3,1.7c1.3,0,1.8,-.9,2.2,-1.5c-.2,.9,-.1,1.5,.6,1.5c.3,0,.7,-.2,1.1,-.5c.4,-.3,.7,-.8,1.1,-1.3l-.2,-.2c-.3,.4,-.9,1.4,-1.3,1.4c-.2,0,-.3,-.4,-.3,-.6c0,-.9,.6,-2.4,.9,-3.4l.7,-1.9h-1l-.2,.7c-.2,-.5,-.5,-.8,-1.1,-.8Zm.1,.3c.7,0,.6,1.3,.5,1.9c-.1,.3,-.2,.6,-.3,.9c-.4,1.2,-1.5,3.2,-2.3,3.2c-.6,0,-.8,-1,-.8,-1.5c0,-.4,.1,-.9,.2,-1.3c.4,-1,1.5,-3.2,2.7,-3.2Z" class="g0_68"/>
<path d="M377.2,331.9v.1c.3,0,.8,.1,.9,.1c.4,.2,.3,.3,.4,.8v4.7c0,.3,0,.5,-.1,.6c0,.5,-.6,.6,-1.2,.6v.1h3.5v-.1c-.4,0,-1,0,-1.1,-.2c-.2,-.3,-.2,-.6,-.2,-1v-6.3c-.6,.3,-1.5,.5,-2.2,.6Z" class="g0_68"/>
<path d="M386.6,330.5c1.2,0,.9,1.9,.3,3.2c-.3,.8,-1.2,2.7,-2.4,2.7c-.4,0,-.6,-.3,-.6,-1c0,-.7,.2,-1.8,.5,-2.3c.2,-.6,.7,-1.6,1.1,-2.1c.2,-.3,.6,-.5,1.1,-.5Zm-2.3,6.2c1.7,0,2.9,-1.5,3.5,-2.6c.3,-.6,.6,-1.4,.6,-2.3c0,-1,-.5,-1.7,-1.5,-1.7c-.9,0,-1.6,.6,-2,1.2l1.5,-5.6l-2,.1l-.1,.2c.6,0,.9,.3,.9,.6c0,.2,-.1,.5,-.2,.7l-1.6,5.7c-.2,.5,-.3,1,-.4,1.3c-.1,.4,-.1,.7,-.1,.9c0,.9,.6,1.5,1.4,1.5Z" class="g0_68"/>
<path d="M390.3,331.9v.1c.3,0,.8,.1,.9,.1c.4,.2,.4,.3,.4,.8v4.7c0,.3,0,.5,-.1,.6c0,.5,-.6,.6,-1.2,.6v.1h3.5v-.1c-.4,0,-.9,0,-1.1,-.2c-.2,-.3,-.2,-.6,-.2,-1v-6.3c-.5,.3,-1.5,.5,-2.2,.6Z" class="g0_68"/>
<path d="M397.6,334.3c-.7,0,-1.1,-.5,-1.1,-1.2c0,-.8,.4,-1.6,1.3,-1.6c1.2,0,1.4,1,1.4,1.9c0,.9,-.3,1.5,-.8,2.1c-.2,.4,-.6,.9,-1.1,1.4c-.5,.5,-1.1,1.1,-1.8,1.7v.3H400l.4,-2h-.3c-.1,.2,-.2,.4,-.2,.5c-.2,.4,-.5,.6,-1.1,.6h-2.1v-.1c.5,-.3,1,-.7,1.4,-1c.8,-.7,1.5,-1.4,2,-2.3c.1,-.4,.2,-.8,.2,-1.2c0,-.3,0,-.6,-.1,-.8c-.4,-.8,-1.1,-1.3,-2.2,-1.3c-.7,0,-1.4,.3,-1.8,.6c-.3,.3,-.7,.8,-.7,1.4c0,.5,.2,.8,.4,1.1c.2,.2,.5,.4,.9,.4c.4,0,.7,-.2,.8,-.5Z" class="g0_68"/>
<path d="M408.8,332.3h-3.2v1h3.2v3.3h1v-3.3H413v-1h-3.2v-3.2h-1v3.2Z" class="g0_68"/>
<path d="M421.3,330.1c-.4,0,-.8,.2,-1.3,.5c-.4,.3,-.8,.6,-1.2,1.1c-.6,.8,-1.2,2,-1.2,3.3c0,1,.3,1.7,1.3,1.7c1.3,0,1.7,-.9,2.1,-1.5h.1c-.2,.9,-.1,1.5,.5,1.5c.4,0,.7,-.2,1.1,-.5c.4,-.3,.8,-.8,1.1,-1.3l-.2,-.2c-.2,.4,-.9,1.4,-1.3,1.4c-.2,0,-.3,-.4,-.3,-.6c0,-.9,.6,-2.4,1,-3.4l.7,-1.9h-1l-.3,.7c-.2,-.5,-.5,-.8,-1.1,-.8Zm.2,.3c.7,0,.5,1.3,.4,1.9c0,.3,-.2,.6,-.3,.9c-.3,1.2,-1.4,3.2,-2.2,3.2c-.6,0,-.8,-1,-.8,-1.5c0,-.4,0,-.9,.2,-1.3c.4,-1,1.4,-3.2,2.7,-3.2Z" class="g0_68"/>
<path d="M426.9,334.3c-.7,0,-1.1,-.5,-1.1,-1.2c0,-.8,.5,-1.6,1.4,-1.6c1.2,0,1.3,1,1.3,1.9c0,.9,-.3,1.5,-.7,2.1c-.3,.4,-.7,.9,-1.1,1.4c-.5,.5,-1.1,1.1,-1.9,1.7v.3h4.6l.3,-2h-.3c0,.2,-.1,.4,-.2,.5c-.2,.4,-.5,.6,-1,.6h-2.1v-.1c.5,-.3,.9,-.7,1.4,-1c.7,-.7,1.5,-1.4,1.9,-2.3c.2,-.4,.3,-.8,.3,-1.2c0,-.3,-.1,-.6,-.2,-.8c-.4,-.8,-1.1,-1.3,-2.2,-1.3c-.7,0,-1.3,.3,-1.7,.6c-.4,.3,-.7,.8,-.7,1.4c0,.5,.1,.8,.4,1.1c.2,.2,.5,.4,.9,.4c.4,0,.7,-.2,.7,-.5Z" class="g0_68"/>
<path d="M435.1,330.5c1.2,0,.9,1.9,.4,3.2c-.3,.8,-1.3,2.7,-2.4,2.7c-.5,0,-.7,-.3,-.7,-1c0,-.7,.3,-1.8,.5,-2.3c.3,-.6,.7,-1.6,1.1,-2.1c.3,-.3,.7,-.5,1.1,-.5Zm-2.2,6.2c1.7,0,2.8,-1.5,3.5,-2.6c.3,-.6,.6,-1.4,.6,-2.3c0,-1,-.5,-1.7,-1.5,-1.7c-1,0,-1.7,.6,-2,1.2h-.1l1.6,-5.6l-2.1,.1v.2c.6,0,.8,.3,.8,.6c0,.2,-.1,.5,-.2,.7L432,333c-.2,.5,-.4,1,-.4,1.3c-.1,.4,-.2,.7,-.2,.9c0,.9,.6,1.5,1.5,1.5Z" class="g0_68"/>
<path d="M440,334.3c-.6,0,-1,-.5,-1,-1.2c0,-.8,.4,-1.6,1.3,-1.6c1.2,0,1.3,1,1.3,1.9c0,.9,-.3,1.5,-.7,2.1c-.3,.4,-.7,.9,-1.1,1.4c-.5,.5,-1.1,1.1,-1.9,1.7v.3h4.6l.3,-2h-.3c0,.2,-.1,.4,-.2,.5c-.2,.4,-.5,.6,-1,.6h-2.1v-.1c.5,-.3,.9,-.7,1.4,-1c.7,-.7,1.5,-1.4,1.9,-2.3c.2,-.4,.3,-.8,.3,-1.2c0,-.3,-.1,-.6,-.2,-.8c-.3,-.8,-1.1,-1.3,-2.2,-1.3c-.7,0,-1.3,.3,-1.7,.6c-.4,.3,-.7,.8,-.7,1.4c0,.5,.1,.8,.4,1.1c.2,.2,.5,.4,.9,.4c.4,0,.7,-.2,.7,-.5Z" class="g0_68"/>
<path d="M446.1,334.3c-.6,0,-1,-.5,-1,-1.2c0,-.8,.4,-1.6,1.3,-1.6c1.2,0,1.3,1,1.3,1.9c0,.9,-.3,1.5,-.7,2.1c-.3,.4,-.7,.9,-1.1,1.4c-.5,.5,-1.1,1.1,-1.9,1.7v.3h4.6l.3,-2h-.3c0,.2,-.1,.4,-.2,.5c-.2,.4,-.5,.6,-1,.6h-2.1v-.1c.5,-.3,.9,-.7,1.4,-1c.7,-.7,1.5,-1.4,1.9,-2.3c.2,-.4,.3,-.8,.3,-1.2c0,-.3,-.1,-.6,-.2,-.8c-.3,-.8,-1.1,-1.3,-2.2,-1.3c-.7,0,-1.3,.3,-1.7,.6c-.4,.3,-.7,.8,-.7,1.4c0,.5,.1,.8,.4,1.1c.2,.2,.5,.4,.9,.4c.4,0,.7,-.2,.7,-.5Z" class="g0_68"/>
<path d="M457.4,332.3h-3.3v1h3.3v3.3h.9v-3.3h3.3v-1h-3.3v-3.2h-.9v3.2Z" class="g0_68"/>
<path d="M469.9,330.1c-.4,0,-.9,.2,-1.3,.5c-.5,.3,-.9,.6,-1.2,1.1c-.7,.8,-1.3,2,-1.3,3.3c0,1,.4,1.7,1.3,1.7c1.3,0,1.8,-.9,2.2,-1.5c-.2,.9,-.1,1.5,.6,1.5c.3,0,.7,-.2,1.1,-.5c.4,-.3,.8,-.8,1.1,-1.3l-.2,-.2c-.3,.4,-.9,1.4,-1.3,1.4c-.2,0,-.3,-.4,-.3,-.6c0,-.9,.6,-2.4,.9,-3.4l.7,-1.9h-1l-.2,.7c-.2,-.5,-.5,-.8,-1.1,-.8Zm.1,.3c.7,0,.6,1.3,.5,1.9c-.1,.3,-.2,.6,-.3,.9c-.4,1.2,-1.5,3.2,-2.3,3.2c-.6,0,-.8,-1,-.8,-1.5c0,-.4,.1,-.9,.2,-1.3c.4,-1,1.5,-3.2,2.7,-3.2Z" class="g0_68"/>
<path d="M475.7,338.9c-.7,0,-1.3,-.7,-1.3,-1.4c0,-.6,.3,-1,.8,-1c0,-.3,-.4,-.4,-.7,-.4c-.2,0,-.3,0,-.4,.1c-.4,.1,-.7,.6,-.7,1.1c0,.3,0,.5,.1,.7c.4,.7,1.2,1,2.2,1c.8,0,1.4,-.2,1.9,-.6c.4,-.3,.7,-.8,.7,-1.5c0,-.2,0,-.5,-.1,-.7c-.3,-.6,-.9,-1.1,-1.6,-1.3c.4,-.1,.8,-.4,1,-.7c.3,-.3,.5,-.7,.5,-1.1c0,-.3,-.1,-.5,-.2,-.8c-.3,-.6,-1.1,-1,-2.2,-1c-.6,0,-1.1,.1,-1.5,.4c-.3,.2,-.5,.5,-.5,1c0,.3,.1,.6,.2,.7c.2,.2,.4,.3,.8,.3c.1,0,.3,0,.4,-.1c.1,0,.2,-.1,.2,-.2c-.4,0,-.7,-.4,-.7,-.8c0,-.6,.5,-1.1,1.1,-1.1c.8,0,1.2,.7,1.2,1.6c0,.9,-.2,1.8,-1.1,1.8c-.1,-.1,-.4,-.2,-.6,-.2c-.2,0,-.5,.1,-.5,.3c0,.2,.3,.3,.6,.3c.2,0,.5,-.1,.6,-.2c.9,0,1.2,.8,1.2,1.8c0,1,-.4,2,-1.4,2Z" class="g0_68"/>
<path d="M483.7,330.5c1.2,0,.9,1.9,.3,3.2c-.3,.8,-1.2,2.7,-2.4,2.7c-.4,0,-.6,-.3,-.6,-1c0,-.7,.2,-1.8,.5,-2.3c.2,-.6,.7,-1.6,1.1,-2.1c.2,-.3,.6,-.5,1.1,-.5Zm-2.3,6.2c1.7,0,2.9,-1.5,3.5,-2.6c.3,-.6,.6,-1.4,.6,-2.3c0,-1,-.5,-1.7,-1.5,-1.7c-.9,0,-1.6,.6,-2,1.2l1.5,-5.6l-2,.1l-.1,.2c.6,0,.9,.3,.9,.6c0,.2,-.1,.5,-.2,.7l-1.6,5.7c-.2,.5,-.3,1,-.4,1.3c0,.4,-.1,.7,-.1,.9c0,.9,.6,1.5,1.4,1.5Z" class="g0_68"/>
<path d="M488.8,338.9c-.7,0,-1.3,-.7,-1.3,-1.4c0,-.6,.3,-1,.9,-1c-.1,-.3,-.4,-.4,-.8,-.4c-.1,0,-.3,0,-.4,.1c-.4,.1,-.7,.6,-.7,1.1c0,.3,0,.5,.2,.7c.3,.7,1.1,1,2.1,1c.8,0,1.4,-.2,1.9,-.6c.4,-.3,.7,-.8,.7,-1.5c0,-.2,0,-.5,-.1,-.7c-.3,-.6,-.9,-1.1,-1.6,-1.3c.4,-.1,.8,-.4,1.1,-.7c.2,-.3,.4,-.7,.4,-1.1c0,-.3,-.1,-.5,-.2,-.8c-.3,-.6,-1.1,-1,-2.1,-1c-.7,0,-1.2,.1,-1.6,.4c-.3,.2,-.5,.5,-.5,1c0,.3,.1,.6,.3,.7c.1,.2,.3,.3,.7,.3c.1,0,.3,0,.4,-.1c.1,0,.2,-.1,.2,-.2c-.4,0,-.7,-.4,-.7,-.8c0,-.6,.5,-1.1,1.2,-1.1c.7,0,1.1,.7,1.1,1.6c0,.9,-.2,1.8,-1,1.8c-.2,-.1,-.4,-.2,-.6,-.2c-.3,0,-.6,.1,-.6,.3c0,.2,.3,.3,.6,.3c.2,0,.5,-.1,.6,-.2c.9,0,1.2,.8,1.2,1.8c0,1,-.4,2,-1.4,2Z" class="g0_68"/>
<path d="M494.7,334.3c-.7,0,-1.1,-.5,-1.1,-1.2c0,-.8,.4,-1.6,1.3,-1.6c1.2,0,1.4,1,1.4,1.9c0,.9,-.3,1.5,-.8,2.1c-.2,.4,-.6,.9,-1.1,1.4c-.5,.5,-1.1,1.1,-1.8,1.7v.3h4.5l.4,-2h-.3c-.1,.2,-.2,.4,-.2,.5c-.2,.4,-.5,.6,-1,.6h-2.2v-.1c.5,-.3,1,-.7,1.4,-1c.8,-.7,1.5,-1.4,2,-2.3c.1,-.4,.2,-.8,.2,-1.2c0,-.3,0,-.6,-.1,-.8c-.4,-.8,-1.1,-1.3,-2.2,-1.3c-.7,0,-1.4,.3,-1.8,.6c-.3,.3,-.6,.8,-.6,1.4c0,.5,.1,.8,.3,1.1c.2,.2,.5,.4,.9,.4c.4,0,.7,-.2,.8,-.5Z" class="g0_68"/>
<path d="M518.3,330.1c-.4,0,-.8,.2,-1.3,.5c-.4,.3,-.8,.6,-1.2,1.1c-.7,.8,-1.3,2,-1.3,3.3c0,1,.4,1.7,1.3,1.7c1.3,0,1.8,-.9,2.2,-1.5c-.2,.9,0,1.5,.6,1.5c.3,0,.7,-.2,1.1,-.5c.4,-.3,.8,-.8,1.1,-1.3l-.2,-.2c-.3,.4,-.9,1.4,-1.3,1.4c-.2,0,-.3,-.4,-.3,-.6c0,-.9,.6,-2.4,.9,-3.4l.7,-1.9h-1l-.2,.7c-.2,-.5,-.5,-.8,-1.1,-.8Zm.2,.3c.7,0,.5,1.3,.4,1.9c-.1,.3,-.2,.6,-.3,.9c-.4,1.2,-1.5,3.2,-2.3,3.2c-.6,0,-.7,-1,-.7,-1.5c0,-.4,0,-.9,.2,-1.3c.3,-1,1.4,-3.2,2.7,-3.2Z" class="g0_68"/>
<path d="M522.7,331.9v.1c.3,0,.8,.1,1,.1c.3,.2,.3,.3,.3,.8v4.7c0,.3,0,.5,0,.6c-.1,.5,-.7,.6,-1.2,.6v.1h3.4v-.1c-.4,0,-.9,0,-1.1,-.2c-.1,-.3,-.1,-.6,-.1,-1v-6.3c-.6,.3,-1.6,.5,-2.3,.6Z" class="g0_68"/>
<path d="M532.1,330.5c1.2,0,.9,1.9,.4,3.2c-.4,.8,-1.3,2.7,-2.4,2.7c-.5,0,-.7,-.3,-.7,-1c0,-.7,.2,-1.8,.5,-2.3c.3,-.6,.7,-1.6,1.1,-2.1c.3,-.3,.6,-.5,1.1,-.5Zm-2.2,6.2c1.6,0,2.8,-1.5,3.4,-2.6c.4,-.6,.7,-1.4,.7,-2.3c0,-1,-.5,-1.7,-1.6,-1.7c-.9,0,-1.6,.6,-1.9,1.2h-.1l1.6,-5.6l-2.1,.1l-.1,.2c.6,0,.9,.3,.9,.6c0,.2,-.1,.5,-.2,.7l-1.6,5.7c-.1,.5,-.3,1,-.4,1.3c0,.4,-.1,.7,-.1,.9c0,.9,.6,1.5,1.5,1.5Z" class="g0_68"/>
<path d="M535.8,331.9v.1c.3,0,.8,.1,1,.1c.3,.2,.3,.3,.3,.8v4.7c0,.3,0,.5,0,.6c-.1,.5,-.7,.6,-1.2,.6v.1h3.4v-.1c-.4,0,-.9,0,-1.1,-.2c-.1,-.3,-.1,-.6,-.1,-1v-6.3c-.6,.3,-1.6,.5,-2.3,.6Z" class="g0_68"/>
<path d="M543.3,338.9c-.7,0,-1.3,-.7,-1.3,-1.4c0,-.6,.4,-1,.9,-1c-.1,-.3,-.4,-.4,-.8,-.4c-.1,0,-.3,0,-.4,.1c-.4,.1,-.7,.6,-.7,1.1c0,.3,.1,.5,.2,.7c.4,.7,1.1,1,2.1,1c.8,0,1.5,-.2,1.9,-.6c.4,-.3,.7,-.8,.7,-1.5c0,-.2,0,-.5,-.1,-.7c-.3,-.6,-.8,-1.1,-1.6,-1.3c.5,-.1,.8,-.4,1.1,-.7c.2,-.3,.4,-.7,.4,-1.1c0,-.3,0,-.5,-.2,-.8c-.3,-.6,-1.1,-1,-2.1,-1c-.6,0,-1.2,.1,-1.5,.4c-.3,.2,-.6,.5,-.6,1c0,.3,.1,.6,.3,.7c.1,.2,.4,.3,.7,.3c.1,0,.3,0,.4,-.1c.2,0,.2,-.1,.3,-.2c-.4,0,-.7,-.4,-.7,-.8c0,-.6,.4,-1.1,1.1,-1.1c.7,0,1.1,.7,1.1,1.6c0,.9,-.2,1.8,-1,1.8c-.2,-.1,-.4,-.2,-.6,-.2c-.2,0,-.6,.1,-.6,.3c0,.2,.4,.3,.6,.3c.2,0,.5,-.1,.7,-.2c.9,0,1.1,.8,1.1,1.8c0,1,-.4,2,-1.4,2Z" class="g0_68"/>
<path d="M554.3,332.3h-3.2v1h3.2v3.3h1v-3.3h3.3v-1h-3.3v-3.2h-1v3.2Z" class="g0_68"/>
<path d="M566.9,330.1c-.5,0,-.9,.2,-1.3,.5c-.5,.3,-.9,.6,-1.3,1.1c-.6,.8,-1.2,2,-1.2,3.3c0,1,.4,1.7,1.3,1.7c1.3,0,1.8,-.9,2.2,-1.5c-.2,.9,-.1,1.5,.5,1.5c.4,0,.8,-.2,1.2,-.5c.4,-.3,.7,-.8,1.1,-1.3l-.2,-.2c-.3,.4,-.9,1.4,-1.4,1.4c-.2,0,-.2,-.4,-.2,-.6c0,-.9,.6,-2.4,.9,-3.4l.7,-1.9h-1l-.3,.7c-.1,-.5,-.4,-.8,-1,-.8Zm.1,.3c.7,0,.6,1.3,.5,1.9c-.1,.3,-.2,.6,-.3,.9c-.4,1.2,-1.5,3.2,-2.3,3.2c-.6,0,-.8,-1,-.8,-1.5c0,-.4,0,-.9,.2,-1.3c.4,-1,1.4,-3.2,2.7,-3.2Z" class="g0_68"/>
<path d="M572.5,334.3c-.7,0,-1.1,-.5,-1.1,-1.2c0,-.8,.4,-1.6,1.3,-1.6c1.2,0,1.3,1,1.3,1.9c0,.9,-.2,1.5,-.7,2.1c-.3,.4,-.7,.9,-1.1,1.4c-.5,.5,-1.1,1.1,-1.9,1.7v.3h4.6l.4,-2H575c-.1,.2,-.2,.4,-.3,.5c-.1,.4,-.4,.6,-1,.6h-2.1v-.1c.5,-.3,1,-.7,1.4,-1c.7,-.7,1.5,-1.4,1.9,-2.3c.2,-.4,.3,-.8,.3,-1.2c0,-.3,-.1,-.6,-.2,-.8c-.3,-.8,-1.1,-1.3,-2.1,-1.3c-.8,0,-1.4,.3,-1.8,.6c-.4,.3,-.7,.8,-.7,1.4c0,.5,.2,.8,.4,1.1c.2,.2,.5,.4,.9,.4c.4,0,.7,-.2,.8,-.5Z" class="g0_68"/>
<path d="M580.7,330.5c1.2,0,.9,1.9,.3,3.2c-.3,.8,-1.3,2.7,-2.4,2.7c-.5,0,-.7,-.3,-.7,-1c0,-.7,.3,-1.8,.5,-2.3c.3,-.6,.8,-1.6,1.2,-2.1c.2,-.3,.6,-.5,1.1,-.5Zm-2.3,6.2c1.7,0,2.9,-1.5,3.5,-2.6c.3,-.6,.6,-1.4,.6,-2.3c0,-1,-.5,-1.7,-1.5,-1.7c-.9,0,-1.6,.6,-2,1.2l1.5,-5.6l-2.1,.1v.2c.6,0,.9,.3,.9,.6c0,.2,-.2,.5,-.2,.7l-1.6,5.7c-.2,.5,-.3,1,-.4,1.3c-.1,.4,-.1,.7,-.1,.9c0,.9,.5,1.5,1.4,1.5Z" class="g0_68"/>
<path d="M585.6,334.3c-.7,0,-1.1,-.5,-1.1,-1.2c0,-.8,.4,-1.6,1.3,-1.6c1.2,0,1.3,1,1.3,1.9c0,.9,-.2,1.5,-.7,2.1c-.3,.4,-.6,.9,-1.1,1.4c-.5,.5,-1.1,1.1,-1.9,1.7v.3H588l.4,-2h-.3c-.1,.2,-.2,.4,-.3,.5c-.1,.4,-.4,.6,-1,.6h-2.1v-.1c.5,-.3,1,-.7,1.4,-1c.7,-.7,1.5,-1.4,1.9,-2.3c.2,-.4,.3,-.8,.3,-1.2c0,-.3,0,-.6,-.2,-.8c-.3,-.8,-1,-1.3,-2.1,-1.3c-.7,0,-1.4,.3,-1.8,.6c-.4,.3,-.7,.8,-.7,1.4c0,.5,.2,.8,.4,1.1c.2,.2,.5,.4,.9,.4c.4,0,.7,-.2,.8,-.5Z" class="g0_68"/>
<path d="M591.9,338.9c-.8,0,-1.3,-.7,-1.3,-1.4c0,-.6,.3,-1,.8,-1c0,-.3,-.4,-.4,-.7,-.4c-.2,0,-.3,0,-.5,.1c-.4,.1,-.6,.6,-.6,1.1c0,.3,0,.5,.1,.7c.4,.7,1.2,1,2.2,1c.8,0,1.4,-.2,1.9,-.6c.4,-.3,.7,-.8,.7,-1.5c0,-.2,-.1,-.5,-.1,-.7c-.3,-.6,-.9,-1.1,-1.6,-1.3c.4,-.1,.8,-.4,1,-.7c.3,-.3,.5,-.7,.5,-1.1c0,-.3,-.1,-.5,-.2,-.8c-.3,-.6,-1.1,-1,-2.2,-1c-.6,0,-1.1,.1,-1.5,.4c-.3,.2,-.6,.5,-.6,1c0,.3,.2,.6,.3,.7c.2,.2,.4,.3,.7,.3c.2,0,.3,0,.5,-.1c.1,0,.2,-.1,.2,-.2c-.4,0,-.7,-.4,-.7,-.8c0,-.6,.5,-1.1,1.1,-1.1c.8,0,1.2,.7,1.2,1.6c0,.9,-.3,1.8,-1.1,1.8c-.1,-.1,-.4,-.2,-.6,-.2c-.2,0,-.5,.1,-.5,.3c0,.2,.3,.3,.6,.3c.2,0,.5,-.1,.6,-.2c.9,0,1.2,.8,1.2,1.8c0,1,-.4,2,-1.4,2Z" class="g0_68"/>
<path d="M602.9,332.3h-3.3v1h3.3v3.3h1v-3.3h3.2v-1h-3.2v-3.2h-1v3.2Z" class="g0_68"/>
<path d="M615.4,330.1c-.4,0,-.8,.2,-1.3,.5c-.4,.3,-.8,.6,-1.2,1.1c-.7,.8,-1.3,2,-1.3,3.3c0,1,.4,1.7,1.3,1.7c1.3,0,1.8,-.9,2.2,-1.5c-.2,.9,0,1.5,.6,1.5c.4,0,.7,-.2,1.1,-.5c.4,-.3,.8,-.8,1.1,-1.3l-.2,-.2c-.3,.4,-.9,1.4,-1.3,1.4c-.2,0,-.3,-.4,-.3,-.6c0,-.9,.6,-2.4,.9,-3.4l.7,-1.9h-1l-.2,.7c-.2,-.5,-.5,-.8,-1.1,-.8Zm.2,.3c.7,0,.5,1.3,.4,1.9c-.1,.3,-.2,.6,-.3,.9c-.4,1.2,-1.4,3.2,-2.2,3.2c-.7,0,-.8,-1,-.8,-1.5c0,-.4,0,-.9,.2,-1.3c.3,-1,1.4,-3.2,2.7,-3.2Z" class="g0_68"/>
<path d="M621.2,338.9c-.7,0,-1.3,-.7,-1.3,-1.4c0,-.6,.4,-1,.9,-1c-.1,-.3,-.4,-.4,-.8,-.4c-.1,0,-.3,0,-.4,.1c-.4,.1,-.7,.6,-.7,1.1c0,.3,.1,.5,.2,.7c.4,.7,1.1,1,2.1,1c.8,0,1.5,-.2,1.9,-.6c.4,-.3,.7,-.8,.7,-1.5c0,-.2,0,-.5,-.1,-.7c-.3,-.6,-.8,-1.1,-1.6,-1.3c.5,-.1,.8,-.4,1.1,-.7c.2,-.3,.4,-.7,.4,-1.1c0,-.3,0,-.5,-.2,-.8c-.3,-.6,-1.1,-1,-2.1,-1c-.6,0,-1.2,.1,-1.5,.4c-.3,.2,-.6,.5,-.6,1c0,.3,.1,.6,.3,.7c.1,.2,.4,.3,.7,.3c.1,0,.3,0,.4,-.1c.2,0,.2,-.1,.3,-.2c-.4,0,-.7,-.4,-.7,-.8c0,-.6,.4,-1.1,1.1,-1.1c.7,0,1.1,.7,1.1,1.6c0,.9,-.2,1.8,-1,1.8c-.2,-.1,-.4,-.2,-.6,-.2c-.2,0,-.6,.1,-.6,.3c0,.2,.4,.3,.6,.3c.2,0,.5,-.1,.7,-.2c.9,0,1.1,.8,1.1,1.8c0,1,-.4,2,-1.4,2Z" class="g0_68"/>
<path d="M629.2,330.5c1.2,0,.9,1.9,.4,3.2c-.4,.8,-1.3,2.7,-2.4,2.7c-.5,0,-.7,-.3,-.7,-1c0,-.7,.3,-1.8,.5,-2.3c.3,-.6,.7,-1.6,1.1,-2.1c.3,-.3,.6,-.5,1.1,-.5Zm-2.2,6.2c1.6,0,2.8,-1.5,3.4,-2.6c.4,-.6,.7,-1.4,.7,-2.3c0,-1,-.5,-1.7,-1.6,-1.7c-.9,0,-1.6,.6,-1.9,1.2h-.1l1.6,-5.6l-2.1,.1l-.1,.2c.6,0,.9,.3,.9,.6c0,.2,-.1,.5,-.2,.7L626,333c-.1,.5,-.3,1,-.3,1.3c-.1,.4,-.2,.7,-.2,.9c0,.9,.6,1.5,1.5,1.5Z" class="g0_68"/>
<path d="M634.3,338.9c-.7,0,-1.2,-.7,-1.2,-1.4c0,-.6,.3,-1,.8,-1c-.1,-.3,-.4,-.4,-.8,-.4c-.1,0,-.3,0,-.4,.1c-.4,.1,-.7,.6,-.7,1.1c0,.3,.1,.5,.2,.7c.4,.7,1.1,1,2.2,1c.8,0,1.4,-.2,1.8,-.6c.4,-.3,.7,-.8,.7,-1.5c0,-.2,0,-.5,-.1,-.7c-.2,-.6,-.8,-1.1,-1.5,-1.3c.4,-.1,.7,-.4,1,-.7c.2,-.3,.4,-.7,.4,-1.1c0,-.3,0,-.5,-.1,-.8c-.4,-.6,-1.2,-1,-2.2,-1c-.6,0,-1.2,.1,-1.5,.4c-.3,.2,-.6,.5,-.6,1c0,.3,.1,.6,.3,.7c.1,.2,.4,.3,.7,.3c.2,0,.3,0,.4,-.1c.2,0,.2,-.1,.3,-.2c-.4,0,-.7,-.4,-.7,-.8c0,-.6,.5,-1.1,1.1,-1.1c.8,0,1.1,.7,1.1,1.6c0,.9,-.2,1.8,-1,1.8c-.2,-.1,-.4,-.2,-.6,-.2c-.2,0,-.5,.1,-.5,.3c0,.2,.3,.3,.5,.3c.2,0,.5,-.1,.7,-.2c.9,0,1.1,.8,1.1,1.8c0,1,-.4,2,-1.4,2Z" class="g0_68"/>
<path d="M640.4,338.9c-.7,0,-1.3,-.7,-1.3,-1.4c0,-.6,.4,-1,.9,-1c-.1,-.3,-.4,-.4,-.8,-.4c-.1,0,-.3,0,-.4,.1c-.4,.1,-.7,.6,-.7,1.1c0,.3,.1,.5,.2,.7c.4,.7,1.1,1,2.2,1c.8,0,1.4,-.2,1.8,-.6c.4,-.3,.7,-.8,.7,-1.5c0,-.2,0,-.5,-.1,-.7c-.2,-.6,-.8,-1.1,-1.5,-1.3c.4,-.1,.7,-.4,1,-.7c.2,-.3,.4,-.7,.4,-1.1c0,-.3,0,-.5,-.1,-.8c-.4,-.6,-1.2,-1,-2.2,-1c-.6,0,-1.2,.1,-1.5,.4c-.3,.2,-.6,.5,-.6,1c0,.3,.1,.6,.3,.7c.1,.2,.4,.3,.7,.3c.1,0,.3,0,.4,-.1c.2,0,.2,-.1,.3,-.2c-.4,0,-.7,-.4,-.7,-.8c0,-.6,.5,-1.1,1.1,-1.1c.8,0,1.1,.7,1.1,1.6c0,.9,-.2,1.8,-1,1.8c-.2,-.1,-.4,-.2,-.6,-.2c-.2,0,-.5,.1,-.5,.3c0,.2,.3,.3,.5,.3c.2,0,.5,-.1,.7,-.2c.9,0,1.1,.8,1.1,1.8c0,1,-.4,2,-1.4,2Z" class="g0_68"/>
<path d="M645.2,341l.2,.4c.7,-.6,2.9,-3.4,2.9,-8.4c0,-4.8,-2.2,-7.7,-2.9,-8.3h-.1l-.1,.2c1.8,2.1,1.8,5.4,1.8,8.1c0,2.8,-.2,6.2,-1.8,8Z" class="g0_68"/>
</svg>