<?xml version="1.0" encoding="UTF-8" standalone="no"?>
<!DOCTYPE svg PUBLIC "-//W3C//DTD SVG 1.1//EN"
"http://www.w3.org/Graphics/SVG/1.1/DTD/svg11.dtd">
<svg viewBox="0 0 811 1017" version="1.1" xmlns="http://www.w3.org/2000/svg" xmlns:xlink="http://www.w3.org/1999/xlink">
<defs>
<style type="text/css"><![CDATA[
.g0_334{
fill: #E6E6E6;
}
.g1_334{
fill: #000;
}
.g2_334{
fill: #F7F5E8;
}
]]></style>
</defs>
<path d="M568.4,100.1c-23.6,11.4,-49.4,17.2,-75.5,19l-1.7,7.9c7.2,-.4,14.1,-.4,21.2,-.8c7.6,0,16.2,.8,16.2,10c0,4.5,-3.1,15.9,-4.1,20.6L491.2,283.7c-2.4,9.3,-6.6,27.5,-13.2,34c-6.5,6.9,-25.3,6.9,-33.6,7.3l-2,7.5c17.1,-.3,34,-1,51.1,-1.3c17.9,.3,35.8,1,53.7,1.3l2,-7.5c-18.9,-.8,-35.4,.6,-35.4,-13.8c0,-9.3,11,-47.5,13.7,-58.5Zm73.3,236.1c34.7,0,63.6,-35.7,78.7,-63.6c15.8,-28.1,26.4,-65.6,26.4,-97.9c0,-36.1,-17.1,-72.9,-58,-72.9c-34.4,0,-61.9,32.3,-77.4,59.8c-16.5,28.6,-27.8,63,-27.8,96.3c0,36.4,14.4,78.3,58.1,78.3ZM691.2,109.4c21.6,0,30.9,15.8,30.9,35.4c0,32.3,-10.3,71.8,-20.6,102.4c-9.3,26.8,-27.2,81.5,-61.9,81.5c-21.7,0,-31.3,-18.6,-31.3,-37.8c0,-30.3,10.7,-71.8,20.4,-101.1c8.8,-28.5,25.7,-80.4,62.5,-80.4Z" class="g0_334"/>
<path d="M256.9,330.8H706.1v-.3H256.9Z" class="g1_334"/>
<path d="M101.1,586.5H487V395.4H101.1Z" class="g2_334"/>
</svg>