<?xml version="1.0" encoding="UTF-8" standalone="no"?>
<!DOCTYPE svg PUBLIC "-//W3C//DTD SVG 1.1//EN"
"http://www.w3.org/Graphics/SVG/1.1/DTD/svg11.dtd">
<svg viewBox="0 0 811 1017" version="1.1" xmlns="http://www.w3.org/2000/svg" xmlns:xlink="http://www.w3.org/1999/xlink">
<defs>
<clipPath id="c0_220"><path d="M142.4,675.7V373.2H528.9V675.7Z"/></clipPath>
<style type="text/css"><![CDATA[
.g0_220{
fill: #476B85;
}
.g1_220{
fill: #000;
}
.g2_220{
fill: #FFF;
}
.g3_220{
fill: #1A78B6;
}
.g4_220{
fill: none;
stroke: #1A78B6;
stroke-width: 0.968;
stroke-linejoin: round;
}
.g5_220{
fill: none;
stroke: #B0B2B1;
stroke-width: 0.774;
stroke-linecap: square;
stroke-linejoin: round;
}
.g6_220{
fill: none;
stroke: #040504;
stroke-width: 0.774;
stroke-linejoin: round;
}
.g7_220{
fill: #040504;
}
.g8_220{
fill: none;
stroke: #1A78B6;
stroke-width: 1.452;
stroke-linecap: square;
stroke-linejoin: round;
}
.g9_220{
fill: none;
stroke: #040504;
stroke-width: 0.774;
stroke-linecap: square;
}
]]></style>
</defs>
<path d="M142.4,135.9H309.6v-32H142.4Z" class="g0_220"/>
<path d="M309.6,135.9H660.3v-32H309.6Z" class="g0_220"/>
<path d="M309.5,266h.3V103.5h-.3Z" class="g1_220"/>
<path d="M142.4,104.2H660.3v-.7H142.4Z" class="g1_220"/>
<path d="M142.4,136.1H660.3v-.3H142.4Z" class="g1_220"/>
<path d="M142.4,266H660.3v-.3H142.4Z" class="g1_220"/>
<path d="M182,647H528V389.2H182Z" class="g2_220"/>
<path d="M224,580.8c.8,0,1.5,-.3,2.1,-.8c.5,-.6,.8,-1.3,.8,-2.1c0,-.8,-.3,-1.5,-.8,-2c-.6,-.6,-1.3,-.9,-2.1,-.9c-.7,0,-1.5,.3,-2,.9c-.6,.5,-.9,1.2,-.9,2c0,.8,.3,1.5,.9,2.1c.5,.5,1.3,.8,2,.8Z" class="g3_220"/>
<path d="M224,580.8c.8,0,1.5,-.3,2.1,-.8c.5,-.6,.8,-1.3,.8,-2.1c0,-.8,-.3,-1.5,-.8,-2c-.6,-.6,-1.3,-.9,-2.1,-.9c-.7,0,-1.5,.3,-2,.9c-.6,.5,-.9,1.2,-.9,2c0,.8,.3,1.5,.9,2.1c.5,.5,1.3,.8,2,.8Z" class="g4_220"/>
<path d="M276.5,547.3c.8,0,1.5,-.3,2.1,-.8c.5,-.6,.8,-1.3,.8,-2.1c0,-.7,-.3,-1.5,-.8,-2c-.6,-.6,-1.3,-.9,-2.1,-.9c-.7,0,-1.5,.3,-2,.9c-.6,.5,-.9,1.3,-.9,2c0,.8,.3,1.5,.9,2.1c.5,.5,1.3,.8,2,.8Z" class="g3_220"/>
<path d="M276.5,547.3c.8,0,1.5,-.3,2.1,-.8c.5,-.6,.8,-1.3,.8,-2.1c0,-.7,-.3,-1.5,-.8,-2c-.6,-.6,-1.3,-.9,-2.1,-.9c-.7,0,-1.5,.3,-2,.9c-.6,.5,-.9,1.3,-.9,2c0,.8,.3,1.5,.9,2.1c.5,.5,1.3,.8,2,.8Z" class="g4_220"/>
<path d="M329,446.9c.8,0,1.6,-.3,2.1,-.8c.5,-.6,.9,-1.3,.9,-2.1c0,-.8,-.4,-1.5,-.9,-2.1c-.5,-.5,-1.3,-.8,-2.1,-.8c-.7,0,-1.5,.3,-2,.8c-.6,.6,-.9,1.3,-.9,2.1c0,.8,.3,1.5,.9,2.1c.5,.5,1.3,.8,2,.8Z" class="g3_220"/>
<path d="M329,446.9c.8,0,1.6,-.3,2.1,-.8c.5,-.6,.9,-1.3,.9,-2.1c0,-.8,-.4,-1.5,-.9,-2.1c-.5,-.5,-1.3,-.8,-2.1,-.8c-.7,0,-1.5,.3,-2,.8c-.6,.6,-.9,1.3,-.9,2.1c0,.8,.3,1.5,.9,2.1c.5,.5,1.3,.8,2,.8Z" class="g4_220"/>
<path d="M381.6,413.4c.7,0,1.5,-.3,2,-.8c.6,-.6,.9,-1.3,.9,-2.1c0,-.7,-.3,-1.5,-.9,-2c-.5,-.6,-1.3,-.9,-2,-.9c-.8,0,-1.6,.3,-2.1,.9c-.5,.5,-.9,1.3,-.9,2c0,.8,.4,1.5,.9,2.1c.5,.5,1.3,.8,2.1,.8Z" class="g3_220"/>
<path d="M381.6,413.4c.7,0,1.5,-.3,2,-.8c.6,-.6,.9,-1.3,.9,-2.1c0,-.7,-.3,-1.5,-.9,-2c-.5,-.6,-1.3,-.9,-2,-.9c-.8,0,-1.6,.3,-2.1,.9c-.5,.5,-.9,1.3,-.9,2c0,.8,.4,1.5,.9,2.1c.5,.5,1.3,.8,2.1,.8Z" class="g4_220"/>
<path d="M434.1,413.4c.7,0,1.5,-.3,2,-.8c.6,-.6,.9,-1.3,.9,-2.1c0,-.7,-.3,-1.5,-.9,-2c-.5,-.6,-1.3,-.9,-2,-.9c-.8,0,-1.5,.3,-2.1,.9c-.5,.5,-.8,1.3,-.8,2c0,.8,.3,1.5,.8,2.1c.6,.5,1.3,.8,2.1,.8Z" class="g3_220"/>
<path d="M434.1,413.4c.7,0,1.5,-.3,2,-.8c.6,-.6,.9,-1.3,.9,-2.1c0,-.7,-.3,-1.5,-.9,-2c-.5,-.6,-1.3,-.9,-2,-.9c-.8,0,-1.5,.3,-2.1,.9c-.5,.5,-.8,1.3,-.8,2c0,.8,.3,1.5,.8,2.1c.6,.5,1.3,.8,2.1,.8Z" class="g4_220"/>
<path d="M224,647V389.2" class="g5_220"/>
<path d="M224,647v3.4" class="g6_220"/>
<path d="M219.1,660.4h1.5V655l-1.7,.3v-.9l1.7,-.3h1v6.3h1.5v.8h-4v-.8Z" class="g7_220"/>
<path d="M227.1,654c.8,0,1.4,.3,1.8,.9c.4,.6,.6,1.6,.6,2.7c0,1.2,-.2,2.1,-.6,2.8c-.4,.6,-1,.9,-1.8,.9c-.8,0,-1.4,-.3,-1.8,-.9c-.4,-.7,-.6,-1.6,-.6,-2.8c0,-1.1,.2,-2.1,.6,-2.7c.4,-.6,1,-.9,1.8,-.9Zm0,.7c-.5,0,-.9,.3,-1.1,.8c-.3,.4,-.4,1.2,-.4,2.1c0,1,.1,1.7,.4,2.2c.2,.5,.6,.8,1.1,.8c.5,0,.9,-.3,1.1,-.8c.3,-.5,.4,-1.2,.4,-2.2c0,-.9,-.1,-1.7,-.4,-2.1c-.2,-.5,-.6,-.8,-1.1,-.8Z" class="g7_220"/>
<path d="M276.5,647V389.2" class="g5_220"/>
<path d="M276.5,647v3.4" class="g6_220"/>
<path d="M271.6,660.4h1.5V655l-1.7,.3v-.9l1.7,-.3h1v6.3h1.5v.8h-4v-.8Z" class="g7_220"/>
<path d="M277.7,660.4h1.6V655l-1.7,.3v-.9l1.7,-.3h.9v6.3h1.6v.8h-4.1v-.8Z" class="g7_220"/>
<path d="M329,647V389.2" class="g5_220"/>
<path d="M329,647v3.4" class="g6_220"/>
<path d="M324.1,660.4h1.5V655l-1.7,.3v-.9l1.7,-.3h1v6.3h1.5v.8h-4v-.8Z" class="g7_220"/>
<path d="M330.9,660.4h3.3v.8h-4.4v-.8c.3,-.4,.8,-.9,1.4,-1.5c.7,-.7,1.1,-1.1,1.2,-1.3c.3,-.3,.5,-.6,.7,-.8c.1,-.3,.1,-.5,.1,-.7c0,-.4,-.1,-.7,-.4,-1c-.2,-.2,-.6,-.3,-1,-.3c-.3,0,-.6,0,-.9,.1c-.4,.1,-.7,.3,-1.1,.5v-1c.4,-.1,.7,-.2,1.1,-.3c.3,-.1,.6,-.1,.9,-.1c.7,0,1.3,.2,1.7,.5c.5,.4,.7,.9,.7,1.5c0,.3,-.1,.6,-.2,.8c-.1,.3,-.3,.6,-.6,.9c0,.1,-.3,.4,-.7,.8c-.4,.5,-1,1.1,-1.8,1.9Z" class="g7_220"/>
<path d="M381.6,647V389.2" class="g5_220"/>
<path d="M381.6,647v3.4" class="g6_220"/>
<path d="M376.6,660.4h1.6V655l-1.7,.3v-.9l1.6,-.3h1v6.3h1.6v.8h-4.1v-.8Z" class="g7_220"/>
<path d="M385.5,657.4c.4,.1,.8,.3,1.1,.6c.2,.3,.3,.7,.3,1.1c0,.7,-.2,1.3,-.7,1.6c-.5,.4,-1.1,.6,-2,.6c-.3,0,-.6,0,-.9,-.1c-.3,0,-.7,-.1,-1,-.2v-1c.3,.2,.5,.3,.9,.4c.3,.1,.6,.1,1,.1c.6,0,1,-.1,1.3,-.4c.3,-.2,.5,-.5,.5,-1c0,-.4,-.2,-.7,-.4,-1c-.3,-.2,-.7,-.3,-1.3,-.3h-.8V657h.9c.4,0,.8,-.1,1.1,-.3c.2,-.2,.3,-.4,.3,-.8c0,-.4,-.1,-.6,-.4,-.8c-.2,-.2,-.6,-.3,-1.1,-.3c-.2,0,-.5,0,-.8,.1c-.3,0,-.6,.1,-1,.2v-.8c.4,-.1,.7,-.2,1,-.2c.3,-.1,.6,-.1,.9,-.1c.7,0,1.3,.1,1.7,.5c.5,.3,.7,.8,.7,1.3c0,.4,-.1,.7,-.4,1c-.2,.3,-.5,.5,-.9,.6Z" class="g7_220"/>
<path d="M434.1,647V389.2" class="g5_220"/>
<path d="M434.1,647v3.4" class="g6_220"/>
<path d="M429.1,660.4h1.6V655l-1.7,.3v-.9l1.7,-.3h.9v6.3h1.6v.8h-4.1v-.8Z" class="g7_220"/>
<path d="M437.5,654.1h1.2v4.6h1v.8h-1v1.7h-1v-1.7h-3.2v-.9l3,-4.5Zm.2,.8l-2.4,3.8h2.4v-3.8Z" class="g7_220"/>
<path d="M486.6,647V389.2" class="g5_220"/>
<path d="M486.6,647v3.4" class="g6_220"/>
<path d="M481.6,660.4h1.6V655l-1.7,.3v-.9l1.7,-.3h.9v6.3h1.6v.8h-4.1v-.8Z" class="g7_220"/>
<path d="M487.6,654.1h3.8v.8h-2.9v1.7c.1,0,.3,0,.4,-.1c.2,0,.3,0,.4,0c.8,0,1.4,.2,1.9,.7c.5,.4,.7,1,.7,1.7c0,.8,-.2,1.4,-.7,1.8c-.5,.4,-1.2,.6,-2,.6c-.3,0,-.6,0,-.9,-.1c-.3,0,-.6,-.1,-1,-.2v-1c.3,.2,.6,.3,.9,.4c.3,.1,.6,.1,1,.1c.5,0,.9,-.1,1.3,-.4c.3,-.3,.4,-.7,.4,-1.2c0,-.5,-.1,-.9,-.4,-1.2c-.4,-.2,-.8,-.4,-1.3,-.4c-.3,0,-.5,0,-.8,.1c-.3,0,-.5,.1,-.8,.3v-3.6Z" class="g7_220"/>
<path d="M357.5,669.1l-1.9,2.6l2,2.7h-1L355,672.3l-1.5,2.1h-1.1l2.1,-2.7l-1.9,-2.6h1.1l1.4,1.9l1.4,-1.9h1Z" class="g7_220"/>
<path d="M182,644.9H528" class="g5_220"/>
<path d="M182,644.9h-3.3" class="g6_220"/>
<path d="M155.8,645.9h6.1v-.8h-6.1Z" class="g7_220"/>
<path d="M166.3,641.5h1.2v4.6h1.1v.8h-1.1v1.7h-.9v-1.7h-3.2V646l2.9,-4.5Zm.3,.8l-2.4,3.8h2.4v-3.8Z" class="g7_220"/>
<path d="M172.5,641.5h1.2v4.6h1v.8h-1v1.7h-.9v-1.7h-3.2V646l2.9,-4.5Zm.3,.8l-2.5,3.8h2.5v-3.8Z" class="g7_220"/>
<path d="M182,611.4H528" class="g5_220"/>
<path d="M182,611.4h-3.3" class="g6_220"/>
<path d="M155.8,612.4h6.1v-.8h-6.1Z" class="g7_220"/>
<path d="M166.3,608h1.2v4.6h1.1v.8h-1.1v1.7h-.9v-1.7h-3.2v-.9l2.9,-4.5Zm.3,.8l-2.4,3.8h2.4v-3.8Z" class="g7_220"/>
<path d="M173,611.3c.5,.1,.8,.3,1.1,.6c.3,.3,.4,.7,.4,1.1c0,.7,-.3,1.3,-.7,1.6c-.5,.4,-1.2,.6,-2.1,.6c-.3,0,-.6,0,-.9,-.1c-.3,0,-.6,-.1,-1,-.2v-1c.3,.2,.6,.3,.9,.4c.3,.1,.7,.1,1,.1c.6,0,1,-.1,1.4,-.3c.3,-.3,.4,-.6,.4,-1.1c0,-.4,-.1,-.7,-.4,-1c-.3,-.2,-.7,-.3,-1.2,-.3h-.8v-.8h.8c.5,0,.8,-.1,1.1,-.3c.2,-.2,.4,-.4,.4,-.8c0,-.3,-.2,-.6,-.4,-.8c-.3,-.2,-.6,-.3,-1.1,-.3c-.3,0,-.6,0,-.9,.1c-.3,0,-.6,.1,-1,.2v-.8c.4,-.1,.8,-.2,1.1,-.2c.3,-.1,.6,-.1,.9,-.1c.7,0,1.3,.2,1.7,.5c.4,.3,.6,.8,.6,1.3c0,.4,-.1,.7,-.3,1c-.2,.3,-.6,.5,-1,.6Z" class="g7_220"/>
<path d="M182,577.9H528" class="g5_220"/>
<path d="M182,577.9h-3.3" class="g6_220"/>
<path d="M155.8,579h6.1v-.8h-6.1Z" class="g7_220"/>
<path d="M166.3,574.5h1.2v4.6h1.1v.8h-1.1v1.7h-.9v-1.7h-3.2V579l2.9,-4.5Zm.3,.9l-2.4,3.7h2.4v-3.7Z" class="g7_220"/>
<path d="M171,580.8h3.3v.8h-4.5v-.8c.4,-.4,.9,-.9,1.5,-1.5c.6,-.6,1,-1.1,1.2,-1.2c.3,-.4,.5,-.7,.6,-.9c.1,-.3,.2,-.5,.2,-.7c0,-.4,-.1,-.7,-.4,-.9c-.3,-.3,-.6,-.4,-1,-.4c-.3,0,-.6,.1,-1,.2c-.3,.1,-.7,.2,-1,.4v-.9c.3,-.2,.7,-.3,1,-.4c.4,-.1,.7,-.1,1,-.1c.7,0,1.3,.2,1.7,.6c.4,.3,.7,.8,.7,1.4c0,.3,-.1,.6,-.2,.8c-.1,.3,-.3,.6,-.6,1c-.1,.1,-.3,.3,-.8,.8c-.4,.4,-1,1,-1.7,1.8Z" class="g7_220"/>
<path d="M182,544.4H528" class="g5_220"/>
<path d="M182,544.4h-3.3" class="g6_220"/>
<path d="M155.8,545.5h6.1v-.8h-6.1Z" class="g7_220"/>
<path d="M166.3,541.1h1.2v4.6h1.1v.8h-1.1v1.6h-.9v-1.6h-3.2v-1l2.9,-4.4Zm.3,.8l-2.4,3.8h2.4v-3.8Z" class="g7_220"/>
<path d="M170.3,547.3h1.6v-5.4l-1.7,.4v-.9l1.7,-.3h.9v6.2h1.6v.8h-4.1v-.8Z" class="g7_220"/>
<path d="M182,511H528" class="g5_220"/>
<path d="M182,511h-3.3" class="g6_220"/>
<path d="M155.8,512h6.1v-.8h-6.1Z" class="g7_220"/>
<path d="M166.3,507.6h1.2v4.6h1.1v.8h-1.1v1.6h-.9V513h-3.2v-.9l2.9,-4.5Zm.3,.8l-2.4,3.8h2.4v-3.8Z" class="g7_220"/>
<path d="M172.2,507.4c.8,0,1.4,.4,1.8,1c.4,.6,.6,1.5,.6,2.7c0,1.2,-.2,2.1,-.6,2.7c-.4,.7,-1,1,-1.8,1c-.8,0,-1.4,-.3,-1.8,-1c-.5,-.6,-.7,-1.5,-.7,-2.7c0,-1.2,.2,-2.1,.7,-2.7c.4,-.6,1,-1,1.8,-1Zm0,.8c-.5,0,-.9,.2,-1.1,.7c-.3,.5,-.4,1.2,-.4,2.2c0,1,.1,1.7,.4,2.2c.2,.5,.6,.7,1.1,.7c.5,0,.8,-.2,1.1,-.7c.2,-.5,.4,-1.2,.4,-2.2c0,-1,-.2,-1.7,-.4,-2.2c-.3,-.5,-.6,-.7,-1.1,-.7Z" class="g7_220"/>
<path d="M182,477.5H528" class="g5_220"/>
<path d="M182,477.5h-3.3" class="g6_220"/>
<path d="M155.8,478.5h6.1v-.8h-6.1Z" class="g7_220"/>
<path d="M166.9,477.4c.4,.1,.8,.3,1,.6c.3,.3,.4,.7,.4,1.1c0,.7,-.2,1.2,-.7,1.6c-.5,.4,-1.2,.6,-2,.6c-.3,0,-.6,0,-1,-.1c-.3,0,-.6,-.1,-.9,-.3V480c.2,.2,.5,.3,.8,.4c.4,.1,.7,.1,1,.1c.6,0,1.1,-.1,1.4,-.4c.3,-.2,.5,-.5,.5,-1c0,-.4,-.2,-.7,-.5,-1c-.3,-.2,-.7,-.3,-1.2,-.3h-.8V477h.9c.4,0,.8,-.1,1,-.3c.3,-.2,.4,-.4,.4,-.8c0,-.4,-.1,-.6,-.4,-.8c-.2,-.2,-.6,-.3,-1.1,-.3c-.2,0,-.5,0,-.8,.1c-.3,0,-.7,.1,-1,.2v-.8c.3,-.1,.7,-.2,1,-.3c.3,0,.6,0,.9,0c.7,0,1.3,.1,1.7,.5c.4,.3,.7,.7,.7,1.3c0,.4,-.2,.7,-.4,1c-.2,.3,-.5,.4,-.9,.6Z" class="g7_220"/>
<path d="M172.1,478c.4,0,.7,-.1,1,-.4c.2,-.3,.4,-.7,.4,-1.2c0,-.5,-.2,-.9,-.4,-1.2c-.3,-.3,-.6,-.5,-1,-.5c-.5,0,-.8,.2,-1.1,.5c-.2,.3,-.3,.7,-.3,1.2c0,.5,.1,.9,.3,1.2c.3,.3,.6,.4,1.1,.4Zm-1.9,3v-.9c.2,.2,.4,.2,.7,.3c.2,.1,.5,.1,.7,.1c.6,0,1.1,-.2,1.5,-.6c.3,-.5,.5,-1.1,.5,-2c-.2,.3,-.4,.5,-.7,.6c-.2,.2,-.6,.3,-.9,.3c-.7,0,-1.3,-.2,-1.7,-.7c-.4,-.4,-.6,-1,-.6,-1.7c0,-.8,.2,-1.3,.7,-1.8c.4,-.4,1,-.6,1.7,-.6c.8,0,1.4,.3,1.8,.9c.5,.6,.7,1.5,.7,2.7c0,1.1,-.3,2,-.8,2.7c-.5,.7,-1.3,1,-2.1,1c-.3,0,-.5,0,-.8,-.1c-.2,0,-.5,-.1,-.7,-.2Z" class="g7_220"/>
<path d="M182,444H528" class="g5_220"/>
<path d="M182,444h-3.3" class="g6_220"/>
<path d="M155.8,445h6.1v-.8h-6.1Z" class="g7_220"/>
<path d="M166.9,443.9c.4,.1,.8,.3,1,.6c.3,.3,.4,.7,.4,1.1c0,.7,-.2,1.3,-.7,1.6c-.5,.4,-1.2,.6,-2,.6c-.3,0,-.6,0,-1,-.1c-.3,0,-.6,-.1,-.9,-.2v-1c.2,.2,.5,.3,.8,.4c.4,.1,.7,.1,1,.1c.6,0,1.1,-.1,1.4,-.3c.3,-.3,.5,-.6,.5,-1.1c0,-.4,-.2,-.7,-.5,-.9c-.3,-.3,-.7,-.4,-1.2,-.4h-.8v-.8h.9c.4,0,.8,-.1,1,-.3c.3,-.2,.4,-.4,.4,-.8c0,-.3,-.1,-.6,-.4,-.8c-.2,-.2,-.6,-.3,-1.1,-.3c-.2,0,-.5,0,-.8,.1c-.3,0,-.7,.1,-1,.2v-.8c.3,-.1,.7,-.2,1,-.2c.3,-.1,.6,-.1,.9,-.1c.7,0,1.3,.2,1.7,.5c.4,.3,.7,.8,.7,1.3c0,.4,-.2,.7,-.4,1c-.2,.3,-.5,.5,-.9,.6Z" class="g7_220"/>
<path d="M170.9,442.4c0,.4,.1,.7,.3,.9c.2,.2,.6,.3,1,.3c.4,0,.7,-.1,.9,-.3c.3,-.2,.4,-.5,.4,-.9c0,-.4,-.1,-.6,-.4,-.8c-.2,-.3,-.5,-.4,-.9,-.4c-.4,0,-.8,.1,-1,.4c-.2,.2,-.3,.4,-.3,.8Zm.3,1.5c-.4,-.1,-.7,-.3,-.9,-.6c-.3,-.2,-.4,-.6,-.4,-1c0,-.5,.2,-1,.6,-1.3c.4,-.3,1,-.5,1.7,-.5c.7,0,1.2,.2,1.6,.5c.4,.3,.6,.8,.6,1.3c0,.4,-.1,.8,-.3,1c-.2,.3,-.6,.5,-1,.6c.5,.1,.9,.3,1.1,.6c.3,.4,.4,.7,.4,1.2c0,.7,-.2,1.2,-.6,1.6c-.4,.3,-1,.5,-1.8,.5c-.8,0,-1.4,-.2,-1.8,-.5c-.4,-.4,-.6,-.9,-.6,-1.6c0,-.5,.1,-.8,.3,-1.2c.3,-.3,.7,-.5,1.1,-.6Zm1,.4c-.5,0,-.8,.1,-1.1,.4c-.3,.2,-.4,.6,-.4,1c0,.4,.1,.8,.4,1c.3,.2,.6,.4,1.1,.4c.4,0,.8,-.2,1.1,-.4c.2,-.2,.3,-.6,.3,-1c0,-.4,-.1,-.8,-.3,-1c-.3,-.3,-.7,-.4,-1.1,-.4Z" class="g7_220"/>
<path d="M182,410.5H528" class="g5_220"/>
<path d="M182,410.5h-3.3" class="g6_220"/>
<path d="M155.8,411.6h6.1v-.8h-6.1Z" class="g7_220"/>
<path d="M166.9,410.4c.4,.1,.8,.3,1,.6c.3,.3,.4,.7,.4,1.1c0,.7,-.2,1.3,-.7,1.7c-.5,.3,-1.2,.5,-2,.5c-.3,0,-.6,0,-1,0c-.3,-.1,-.6,-.2,-.9,-.3v-.9c.2,.1,.5,.2,.8,.3c.4,.1,.7,.1,1,.1c.6,0,1.1,-.1,1.4,-.3c.3,-.3,.5,-.6,.5,-1.1c0,-.4,-.2,-.7,-.5,-.9c-.3,-.3,-.7,-.4,-1.2,-.4h-.8V410h.9c.4,0,.8,-.1,1,-.2c.3,-.2,.4,-.5,.4,-.9c0,-.3,-.1,-.6,-.4,-.8c-.2,-.2,-.6,-.3,-1.1,-.3c-.2,0,-.5,0,-.8,.1c-.3,.1,-.7,.1,-1,.3v-.9c.3,-.1,.7,-.2,1,-.2c.3,-.1,.6,-.1,.9,-.1c.7,0,1.3,.2,1.7,.5c.4,.3,.7,.8,.7,1.3c0,.4,-.2,.8,-.4,1c-.2,.3,-.5,.5,-.9,.6Z" class="g7_220"/>
<path d="M169.9,407.1h4.5v.4l-2.5,6.7h-1l2.4,-6.3h-3.4v-.8Z" class="g7_220"/>
<path d="M149.4,517.9c.6,.2,1.1,.5,1.3,.7c.1,.2,.2,.5,.2,.9v.7h-.7v-.5c0,-.2,0,-.4,-.2,-.5c-.1,-.2,-.3,-.3,-.8,-.5l-.4,-.1l-5.2,2.1v-.9l4.2,-1.7l-4.2,-1.6v-1l5.8,2.4Z" class="g7_220"/>
<path clip-path="url(#c0_220)" d="M197.8,635.3l7.8,-14C263.3,521.3,372.7,359.1,511.3,410.9l1,.4" class="g8_220"/>
<path d="M182,647V389.2M528,647V389.2M182,647H528M182,389.2H528" class="g9_220"/>
<path d="M282,374.9h1.3l3.2,8.5h-1.2l-.8,-2.2h-3.8l-.7,2.2h-1.3l3.3,-8.5Zm.6,1.2l-1.5,4.2h3.1l-1.6,-4.2Z" class="g7_220"/>
<path d="M292.3,380.2c0,-.7,-.2,-1.3,-.5,-1.8c-.3,-.4,-.8,-.6,-1.3,-.6c-.6,0,-1,.2,-1.3,.6c-.3,.5,-.5,1.1,-.5,1.8c0,.8,.2,1.4,.5,1.8c.3,.5,.7,.7,1.3,.7c.5,0,1,-.2,1.3,-.7c.3,-.4,.5,-1,.5,-1.8Zm-3.6,2.2v3.4h-1V377h1v1c.2,-.4,.5,-.7,.8,-.8c.4,-.2,.8,-.3,1.2,-.3c.8,0,1.4,.3,1.9,.9c.5,.6,.8,1.4,.8,2.4c0,1,-.3,1.8,-.8,2.4c-.5,.7,-1.1,1,-1.9,1c-.4,0,-.8,-.1,-1.2,-.3c-.3,-.2,-.6,-.5,-.8,-.9Z" class="g7_220"/>
<path d="M299.6,380.2c0,-.7,-.1,-1.3,-.4,-1.8c-.3,-.4,-.8,-.6,-1.3,-.6c-.6,0,-1,.2,-1.3,.6c-.3,.5,-.5,1.1,-.5,1.8c0,.8,.2,1.4,.5,1.8c.3,.5,.7,.7,1.3,.7c.5,0,1,-.2,1.3,-.7c.3,-.4,.4,-1,.4,-1.8Zm-3.5,2.2v3.4H295V377h1.1v1c.2,-.4,.5,-.7,.8,-.8c.4,-.2,.8,-.3,1.2,-.3c.8,0,1.4,.3,1.9,.9c.5,.6,.7,1.4,.7,2.4c0,1,-.2,1.8,-.7,2.4c-.5,.7,-1.1,1,-1.9,1c-.4,0,-.8,-.1,-1.2,-.3c-.3,-.2,-.6,-.5,-.8,-.9Z" class="g7_220"/>
<path d="M306.1,378c-.1,-.1,-.2,-.1,-.3,-.1c-.2,-.1,-.3,-.1,-.5,-.1c-.6,0,-1,.2,-1.4,.6c-.3,.4,-.4,.9,-.4,1.7v3.3h-1.1V377h1.1v1c.2,-.4,.5,-.6,.8,-.8c.4,-.2,.8,-.3,1.3,-.3c.1,0,.2,0,.3,0c0,0,.1,0,.2,0V378Z" class="g7_220"/>
<path d="M309.4,376.9c1,0,1.7,.3,2.2,.9c.5,.6,.8,1.4,.8,2.4c0,1.1,-.3,1.9,-.8,2.5c-.5,.6,-1.2,.9,-2.2,.9c-.9,0,-1.6,-.3,-2.1,-.9c-.5,-.6,-.8,-1.4,-.8,-2.5c0,-1,.3,-1.8,.8,-2.4c.5,-.6,1.2,-.9,2.1,-.9Zm0,.9c-.5,0,-1,.2,-1.3,.6c-.3,.5,-.5,1.1,-.5,1.8c0,.8,.2,1.4,.5,1.8c.3,.5,.8,.7,1.3,.7c.6,0,1,-.2,1.4,-.7c.3,-.4,.5,-1,.5,-1.8c0,-.7,-.2,-1.3,-.5,-1.8c-.4,-.4,-.8,-.6,-1.4,-.6Z" class="g7_220"/>
<path d="M319,377l-2.3,3.1l2.4,3.3h-1.2l-1.8,-2.5l-1.9,2.5H313l2.4,-3.3L313.2,377h1.2l1.7,2.3l1.7,-2.3H319Z" class="g7_220"/>
<path d="M320.6,374.6h1.1v1.3h-1.1Zm0,2.4h1.1v6.4h-1.1Z" class="g7_220"/>
<path d="M328.8,378.3c.3,-.5,.6,-.9,.9,-1.1c.4,-.2,.8,-.3,1.3,-.3c.7,0,1.2,.2,1.5,.7c.4,.4,.6,1.1,.6,2v3.8H332v-3.8c0,-.6,-.1,-1.1,-.3,-1.4c-.2,-.3,-.5,-.4,-1,-.4c-.5,0,-.9,.2,-1.3,.5c-.3,.4,-.4,.9,-.4,1.5v3.6h-1.1v-3.8c0,-.6,-.1,-1.1,-.3,-1.4c-.2,-.3,-.6,-.4,-1,-.4c-.5,0,-1,.2,-1.3,.5c-.3,.4,-.5,.9,-.5,1.5v3.6h-1V377h1v1c.3,-.4,.6,-.6,.9,-.8c.3,-.2,.7,-.3,1.2,-.3c.5,0,.8,.1,1.2,.3c.3,.3,.5,.6,.7,1.1Z" class="g7_220"/>
<path d="M340.1,379.8v3.6h-1v-1c-.2,.4,-.5,.7,-.9,.9c-.4,.2,-.8,.3,-1.3,.3c-.7,0,-1.2,-.2,-1.6,-.6c-.3,-.3,-.5,-.8,-.5,-1.5c0,-.7,.2,-1.2,.7,-1.6c.5,-.3,1.2,-.5,2.1,-.5h1.5v-.1c0,-.5,-.2,-.9,-.5,-1.1c-.3,-.3,-.7,-.4,-1.3,-.4c-.4,0,-.7,0,-1.1,.1c-.3,.1,-.6,.2,-1,.4v-1c.4,-.1,.8,-.2,1.1,-.3c.4,-.1,.8,-.1,1.1,-.1c.9,0,1.6,.2,2.1,.7c.4,.5,.6,1.2,.6,2.2Zm-2,.4c-.9,0,-1.5,.1,-1.8,.3c-.3,.2,-.5,.5,-.5,1c0,.4,.1,.6,.4,.9c.2,.2,.6,.3,1,.3c.6,0,1,-.2,1.4,-.6c.3,-.4,.5,-1,.5,-1.7v-.2h-1Z" class="g7_220"/>
<path d="M343.3,375.2V377h2.2v.9h-2.2v3.4c0,.5,.1,.9,.2,1c.2,.2,.5,.2,.9,.2h1.1v.9h-1.1c-.8,0,-1.4,-.2,-1.7,-.5c-.3,-.3,-.4,-.8,-.4,-1.6v-3.4h-.8V377h.8v-1.8h1Z" class="g7_220"/>
<path d="M346.8,374.6h1.1v1.3h-1.1Zm0,2.4h1.1v6.4h-1.1Z" class="g7_220"/>
<path d="M355.4,379.6v3.8h-1.1v-3.8c0,-.6,-.1,-1.1,-.3,-1.4c-.3,-.3,-.6,-.4,-1.1,-.4c-.6,0,-1,.2,-1.3,.5c-.4,.4,-.5,.9,-.5,1.5v3.6H350V377h1.1v1c.2,-.4,.5,-.6,.9,-.8c.3,-.2,.7,-.3,1.1,-.3c.8,0,1.3,.2,1.7,.7c.4,.4,.6,1.1,.6,2Z" class="g7_220"/>
<path d="M362.7,382.6c0,1.1,-.3,1.9,-.7,2.4c-.5,.6,-1.3,.8,-2.3,.8c-.3,0,-.7,0,-1,-.1c-.3,0,-.6,-.1,-.9,-.2v-1c.3,.1,.6,.3,.9,.3c.3,.1,.6,.2,.9,.2c.7,0,1.2,-.2,1.5,-.6c.4,-.3,.5,-.9,.5,-1.6v-.5c-.2,.4,-.5,.6,-.8,.8c-.3,.2,-.7,.3,-1.2,.3c-.8,0,-1.4,-.3,-1.9,-.9c-.5,-.6,-.7,-1.4,-.7,-2.4c0,-.9,.2,-1.7,.7,-2.3c.5,-.6,1.1,-.9,1.9,-.9c.5,0,.9,.1,1.2,.3c.3,.2,.6,.4,.8,.8v-1h1.1v5.6Zm-1.1,-2.5c0,-.7,-.1,-1.3,-.4,-1.7c-.3,-.4,-.8,-.6,-1.4,-.6c-.5,0,-.9,.2,-1.3,.6c-.3,.4,-.4,1,-.4,1.7c0,.8,.1,1.4,.4,1.8c.4,.4,.8,.6,1.3,.6c.6,0,1.1,-.2,1.4,-.6c.3,-.4,.4,-1,.4,-1.8Z" class="g7_220"/>
<path d="M373.1,380.2c0,-.7,-.2,-1.3,-.5,-1.8c-.3,-.4,-.7,-.6,-1.3,-.6c-.5,0,-1,.2,-1.3,.6c-.3,.5,-.5,1.1,-.5,1.8c0,.8,.2,1.4,.5,1.8c.3,.5,.8,.7,1.3,.7c.6,0,1,-.2,1.3,-.7c.3,-.4,.5,-1,.5,-1.8Zm-3.6,2.2v3.4h-1V377h1v1c.3,-.4,.5,-.7,.9,-.8c.3,-.2,.7,-.3,1.2,-.3c.7,0,1.4,.3,1.8,.9c.5,.6,.8,1.4,.8,2.4c0,1,-.3,1.8,-.8,2.4c-.4,.7,-1.1,1,-1.8,1c-.5,0,-.9,-.1,-1.2,-.3c-.4,-.2,-.6,-.5,-.9,-.9Z" class="g7_220"/>
<path d="M378.4,376.9c.9,0,1.6,.3,2.1,.9c.5,.6,.8,1.4,.8,2.4c0,1.1,-.3,1.9,-.8,2.5c-.5,.6,-1.2,.9,-2.1,.9c-.9,0,-1.7,-.3,-2.2,-.9c-.5,-.6,-.8,-1.4,-.8,-2.5c0,-1,.3,-1.8,.8,-2.4c.5,-.6,1.3,-.9,2.2,-.9Zm0,.9c-.6,0,-1,.2,-1.4,.6c-.3,.5,-.5,1.1,-.5,1.8c0,.8,.2,1.4,.5,1.8c.4,.5,.8,.7,1.4,.7c.5,0,1,-.2,1.3,-.7c.3,-.4,.5,-1,.5,-1.8c0,-.7,-.2,-1.3,-.5,-1.8c-.3,-.4,-.8,-.6,-1.3,-.6Z" class="g7_220"/>
<path d="M383,383.4h1.1v-8.8H383Z" class="g7_220"/>
<path d="M388.9,384c-.3,.7,-.6,1.2,-.9,1.5c-.3,.2,-.6,.3,-1.1,.3h-.8v-.9h.6c.3,0,.5,0,.6,-.2c.2,-.1,.4,-.4,.6,-.9l.2,-.5L385.5,377h1.1l2,5l2,-5h1.1l-2.8,7Z" class="g7_220"/>
<path d="M398.4,379.6v3.8h-1v-3.8c0,-.6,-.2,-1.1,-.4,-1.4c-.2,-.3,-.6,-.4,-1,-.4c-.6,0,-1.1,.2,-1.4,.5c-.3,.4,-.5,.9,-.5,1.5v3.6h-1V377h1v1c.3,-.4,.6,-.6,.9,-.8c.4,-.2,.7,-.3,1.2,-.3c.7,0,1.3,.2,1.6,.7c.4,.4,.6,1.1,.6,2Z" class="g7_220"/>
<path d="M403,376.9c.9,0,1.6,.3,2.1,.9c.5,.6,.8,1.4,.8,2.4c0,1.1,-.3,1.9,-.8,2.5c-.5,.6,-1.2,.9,-2.1,.9c-1,0,-1.7,-.3,-2.2,-.9c-.5,-.6,-.8,-1.4,-.8,-2.5c0,-1,.3,-1.8,.8,-2.4c.5,-.6,1.2,-.9,2.2,-.9Zm0,.9c-.6,0,-1,.2,-1.4,.6c-.3,.5,-.5,1.1,-.5,1.8c0,.8,.2,1.4,.5,1.8c.3,.5,.8,.7,1.4,.7c.5,0,1,-.2,1.3,-.7c.3,-.4,.5,-1,.5,-1.8c0,-.7,-.2,-1.3,-.5,-1.8c-.3,-.4,-.8,-.6,-1.3,-.6Z" class="g7_220"/>
<path d="M412.6,378.3c.2,-.5,.5,-.9,.9,-1.1c.4,-.2,.8,-.3,1.3,-.3c.6,0,1.1,.2,1.5,.7c.4,.4,.5,1.1,.5,2v3.8h-1v-3.8c0,-.6,-.1,-1.1,-.3,-1.4c-.2,-.3,-.6,-.4,-1,-.4c-.6,0,-1,.2,-1.3,.5c-.3,.4,-.5,.9,-.5,1.5v3.6h-1v-3.8c0,-.6,-.1,-1.1,-.3,-1.4c-.3,-.3,-.6,-.4,-1,-.4c-.6,0,-1,.2,-1.3,.5c-.3,.4,-.5,.9,-.5,1.5v3.6h-1V377h1v1c.3,-.4,.5,-.6,.9,-.8c.3,-.2,.7,-.3,1.2,-.3c.4,0,.8,.1,1.1,.3c.4,.3,.6,.6,.8,1.1Z" class="g7_220"/>
<path d="M418.9,374.6H420v1.3h-1.1Zm0,2.4H420v6.4h-1.1Z" class="g7_220"/>
<path d="M427.1,379.8v3.6h-1v-1c-.2,.4,-.5,.7,-.9,.9c-.4,.2,-.8,.3,-1.3,.3c-.7,0,-1.2,-.2,-1.6,-.6c-.3,-.3,-.5,-.8,-.5,-1.5c0,-.7,.2,-1.2,.7,-1.6c.5,-.3,1.2,-.5,2.1,-.5h1.5v-.1c0,-.5,-.2,-.9,-.5,-1.1c-.3,-.3,-.7,-.4,-1.3,-.4c-.4,0,-.7,0,-1.1,.1c-.3,.1,-.7,.2,-1,.4v-1c.4,-.1,.8,-.2,1.1,-.3c.4,-.1,.8,-.1,1.1,-.1c.9,0,1.6,.2,2.1,.7c.4,.5,.6,1.2,.6,2.2Zm-2,.4c-.9,0,-1.5,.1,-1.8,.3c-.3,.2,-.5,.5,-.5,1c0,.4,.1,.6,.4,.9c.2,.2,.6,.3,1,.3c.5,0,1,-.2,1.4,-.6c.3,-.4,.5,-1,.5,-1.7v-.2h-1Z" class="g7_220"/>
<path d="M429.3,383.4h1v-8.8h-1Z" class="g7_220"/>
</svg>