<?xml version="1.0" encoding="UTF-8" standalone="no"?>
<!DOCTYPE svg PUBLIC "-//W3C//DTD SVG 1.1//EN"
"http://www.w3.org/Graphics/SVG/1.1/DTD/svg11.dtd">
<svg viewBox="0 0 811 1017" version="1.1" xmlns="http://www.w3.org/2000/svg" xmlns:xlink="http://www.w3.org/1999/xlink">
<defs>
<style type="text/css"><![CDATA[
.g0_160{
fill: #000;
}
]]></style>
</defs>
<path d="M443.3,167.1h.4V141.4h-.4Z" class="g0_160"/>
<path d="M419,141.4v3.2h-.3l-6.2,-3l-.4,-.2l.4,-.1l6.2,-3l.3,-.1v.3l-.1,.2l-6.2,2.9l-.2,-.3h.2l6.2,2.9l-.2,.4l-.1,-.2v-3Z" class="g0_160"/>
<path d="M418.6,141.4h.4v-2.9h-.4Z" class="g0_160"/>
<path d="M418.8,141.6h.2v-.3h-.2Z" class="g0_160"/>
<path d="M419,141.6h24.7v-.3H419Z" class="g0_160"/>
<path d="M440.6,491.4h.4V465.9h-.4Z" class="g0_160"/>
<path d="M405.8,491.4v3.2l-.3,-.1l-6.3,-2.9l-.4,-.2l.4,-.2l6.3,-2.9l.3,-.1v.3l-.1,.2l-6.3,2.9l-.2,-.4h.2l6.3,3l-.2,.3l-.1,-.1v-3Z" class="g0_160"/>
<path d="M405.4,491.4h.4v-2.9h-.4Z" class="g0_160"/>
<path d="M405.6,491.6h.2v-.4h-.2Z" class="g0_160"/>
<path d="M405.8,491.6H441v-.4H405.8Z" class="g0_160"/>
</svg>