<?xml version="1.0" encoding="UTF-8" standalone="no"?>
<!DOCTYPE svg PUBLIC "-//W3C//DTD SVG 1.1//EN"
"http://www.w3.org/Graphics/SVG/1.1/DTD/svg11.dtd">
<svg viewBox="0 0 811 1017" version="1.1" xmlns="http://www.w3.org/2000/svg" xmlns:xlink="http://www.w3.org/1999/xlink">
<defs>
<style type="text/css"><![CDATA[
.g0_293{
fill: #0E0E0E;
}
.g1_293{
fill: #000;
}
]]></style>
</defs>
<path d="M189.7,166.3v-2.9c.8,0,1.2,0,1.7,.3c.4,.3,.7,.8,.8,1.5h.3v-4h-.3c0,.4,-.1,.7,-.2,.9c-.4,.7,-1.2,.9,-2.3,.9v-4.5c0,-.1,.1,-.2,.2,-.2h1.7c.9,0,1.7,.3,2.1,.6c.5,.3,.8,.9,.9,1.6h.2l-.1,-2.5H187v.2c.4,0,.8,.2,1.1,.4c.2,.3,.2,.7,.2,1.2v6.6c0,.5,0,1,-.3,1.2c-.2,.3,-.7,.5,-1.2,.5v.2h4.8v-.2c-.7,0,-1.3,-.2,-1.6,-.5c-.3,-.2,-.3,-.7,-.3,-1.3Z" class="g0_293"/>
<path d="M198.7,162.1c1.3,0,2,1.6,2,3c0,1.7,-.8,3.1,-2,3.1c-1.6,0,-1.9,-1.6,-1.9,-3.1c0,-1.4,.6,-3,1.9,-3Zm0,-.3c-.4,0,-.8,.1,-1.3,.3c-1.1,.4,-2,1.4,-2,3c0,.5,.1,.9,.3,1.3c.5,1.1,1.2,2,3,2c1.1,0,1.9,-.4,2.4,-.9c.5,-.6,1,-1.3,1,-2.4c0,-.5,-.1,-.9,-.3,-1.3c-.5,-1.1,-1.5,-2,-3.1,-2Z" class="g0_293"/>
<path d="M208.4,162.5c0,-.4,-.4,-.7,-.9,-.7c-.2,0,-.4,.1,-.6,.2c-.6,.2,-1.2,.8,-1.5,1.4l-.2,-1.4l-2.1,.4v.2c.2,0,.6,.2,.7,.3c.2,.2,.3,.4,.4,.9c0,.3,0,.7,0,1.3v1.6c0,.4,0,.6,0,.8c-.1,.6,-.4,.6,-1.1,.6v.2h3.2v-.2c-.2,0,-.3,0,-.5,-.1c-.5,-.2,-.4,-.6,-.4,-1.3v-1c0,-1.1,.1,-2.1,.6,-2.7c.2,-.3,.5,-.4,.7,-.4c.6,0,.5,.5,1,.5c.4,0,.7,-.2,.7,-.6Z" class="g0_293"/>
<path d="M214.2,168.4c1.1,0,1.7,-.5,2.1,-1.3c0,.8,.3,1.3,1.1,1.3c.6,0,1.1,-.2,1.3,-.6l-.1,-.2c-.1,.2,-.4,.4,-.7,.4c-.4,0,-.5,-.4,-.5,-1.3v-3c0,-1.5,-.7,-1.9,-2.2,-1.9c-1.3,0,-2.5,.7,-2.5,1.2c0,.4,.1,.7,.6,.7c.4,0,.6,-.3,.7,-.6c.1,-.3,.1,-.5,.2,-.7c.2,-.1,.5,-.3,.8,-.3c1.3,0,1.2,.7,1.2,1.7v.4l-1.7,.8c-.6,.3,-1.1,.5,-1.5,1c-.3,.2,-.4,.6,-.4,1c0,.9,.7,1.4,1.6,1.4Zm-.4,-1.6c0,-.5,.2,-.8,.5,-1.1c.5,-.5,1.1,-.8,1.9,-1.2v1.7c0,.5,-.2,.9,-.4,1.3c-.2,.3,-.7,.5,-1.2,.5c-.5,0,-.8,-.6,-.8,-1.2Z" class="g0_293"/>
<path d="M221.2,166.7v-9.3l-2.2,.4v.2c.1,0,.5,.2,.8,.4c.2,.3,.3,.3,.3,2v6.4c0,.3,0,.5,0,.7c-.1,.5,-.5,.6,-1.1,.6v.2h3.3v-.2c-.2,0,-.4,0,-.6,0c-.5,-.2,-.5,-.7,-.5,-1.4Z" class="g0_293"/>
<path d="M225.1,166.7v-9.3l-2.2,.4v.2c.2,0,.5,.2,.8,.4c.2,.3,.3,.3,.3,2v6.4c0,.3,0,.5,0,.7c-.1,.5,-.5,.6,-1.1,.6v.2h3.3v-.2c-.2,0,-.4,0,-.6,0c-.5,-.2,-.5,-.7,-.5,-1.4Z" class="g0_293"/>
<path d="M234.7,162.1c1.3,0,1.9,1.7,1.9,3.1c0,1.3,-.6,3,-1.8,3c-1,0,-1.8,-.9,-1.8,-1.5c0,-.2,0,-.4,0,-.6v-1.8c0,-.3,0,-.6,.1,-.8c.1,-.5,.7,-1.4,1.6,-1.4Zm.1,6.3c1,0,1.8,-.4,2.3,-.9c.5,-.5,.9,-1.3,.9,-2.3c0,-1.1,-.4,-1.8,-.9,-2.4c-.5,-.6,-1.3,-1,-2.3,-1c-.9,0,-1.4,.5,-1.8,1.1h-.1v-1l-2.3,.4v.3c.7,0,1,.1,1.1,.6c.1,.1,.1,.3,.1,.6c0,.4,0,.7,0,1.2v4.7c0,.5,-.1,.9,-.2,1.1c-.2,.3,-.5,.3,-1,.3v.2h3.7v-.2c-.3,0,-.5,0,-.7,0c-.6,-.2,-.6,-.7,-.6,-1.5v-2c.5,.5,.9,.8,1.8,.8Z" class="g0_293"/>
<path d="M240.7,168.4c1.2,0,1.8,-.5,2.1,-1.3c0,.8,.3,1.3,1.1,1.3c.6,0,1.1,-.2,1.3,-.6l-.1,-.2c-.1,.2,-.4,.4,-.7,.4c-.3,0,-.5,-.4,-.5,-1.3v-3c0,-1.5,-.7,-1.9,-2.2,-1.9c-1.3,0,-2.5,.7,-2.5,1.2c0,.4,.2,.7,.6,.7c.4,0,.6,-.3,.7,-.6c.1,-.3,.1,-.5,.3,-.7c.1,-.1,.4,-.3,.7,-.3c1.3,0,1.3,.7,1.3,1.7v.4L241,165c-.6,.3,-1.1,.5,-1.5,1c-.2,.2,-.4,.6,-.4,1c0,.9,.7,1.4,1.6,1.4Zm-.4,-1.6c0,-.5,.2,-.8,.5,-1.1c.5,-.5,1.2,-.8,2,-1.2v1.7c0,.5,-.2,.9,-.5,1.3c-.2,.3,-.7,.5,-1.1,.5c-.6,0,-.9,-.6,-.9,-1.2Z" class="g0_293"/>
<path d="M247.3,160.1c.4,0,.8,-.3,.8,-.7c0,-.4,-.4,-.8,-.8,-.8c-.3,0,-.7,.4,-.7,.8c0,.4,.3,.7,.7,.7Zm.7,6.6v-4.9l-2.4,.5v.2c.4,0,.7,.1,.8,.3c.3,.3,.4,.6,.4,2.2v1.7c0,.3,0,.5,0,.7c-.1,.6,-.5,.7,-1.1,.7v.2h3.4v-.2c-.2,0,-.4,0,-.6,0c-.5,-.2,-.5,-.7,-.5,-1.4Z" class="g0_293"/>
<path d="M255,162.5c0,-.4,-.4,-.7,-.8,-.7c-.2,0,-.4,.1,-.6,.2c-.7,.2,-1.2,.8,-1.5,1.4H252l-.1,-1.4l-2.1,.4v.2c.2,0,.5,.2,.6,.3c.3,.2,.4,.4,.4,.9c0,.3,0,.7,0,1.3v1.6c0,.4,0,.6,0,.8c-.1,.6,-.4,.6,-1,.6v.2H253v-.2c-.3,0,-.4,0,-.6,-.1c-.4,-.2,-.4,-.6,-.4,-1.3v-1c0,-1.1,.1,-2.1,.6,-2.7c.2,-.3,.5,-.4,.7,-.4c.6,0,.6,.5,1,.5c.4,0,.7,-.2,.7,-.6Z" class="g0_293"/>
<path d="M257.7,162.1c.8,0,1.2,.9,1.5,1.6h.2V162h-.2l-.3,.2c-.2,-.1,-.4,-.2,-.6,-.3c-.2,0,-.4,-.1,-.6,-.1c-.6,0,-1,.2,-1.3,.5c-.3,.4,-.5,.8,-.5,1.4c0,.8,.4,1.1,.9,1.5c.5,.4,2.1,1.1,2.1,1.8c0,.6,-.3,1.2,-1.1,1.2c-.8,0,-1.5,-.8,-1.8,-1.9h-.2v2h.2l.3,-.4c.4,.3,1,.5,1.6,.5c.6,0,1.1,-.1,1.5,-.4c.4,-.4,.5,-.8,.5,-1.4c0,-1,-1.1,-1.6,-1.9,-2.1c-.4,-.3,-1.2,-.6,-1.2,-1.4c0,-.5,.3,-1,.9,-1Z" class="g0_293"/>
<path d="M269.5,157.7c-2.1,1.4,-3.7,3.8,-3.7,6.8c0,2.8,1.6,5.6,3.7,6.8l.2,-.2c-2,-1.6,-2.6,-3.4,-2.6,-6.6c0,-3.3,.6,-5.1,2.6,-6.6l-.2,-.2Z" class="g0_293"/>
<path d="M277.9,162.8c0,-.5,-.5,-1,-1,-1c-.3,0,-.6,.2,-1,.4c-.3,.2,-.6,.5,-.8,.9c0,-.7,-.4,-1.3,-1.1,-1.3c-1.1,0,-2,1.2,-2.4,2l.2,.1c.4,-.5,1.1,-1.7,2,-1.7c.3,0,.4,.6,.4,1c0,.3,-.1,.7,-.2,1.1l-.4,1.2c-.1,.6,-.4,1.4,-.7,1.8c-.1,.3,-.4,.7,-.8,.7c-.4,0,-.7,-.1,-.6,-.5c.1,-.3,0,-.8,-.4,-.8c-.5,0,-.6,.4,-.6,.8c0,.6,.4,.9,1,.9c1,0,1.8,-.7,2.1,-1.4h.1c.1,.8,.5,1.4,1.3,1.4c1.2,0,2,-1.1,2.5,-1.8l-.2,-.2c-.5,.7,-1.2,1.7,-2,1.7c-.4,0,-.6,-.6,-.6,-1.2c0,-.4,0,-.8,.1,-1.4l.2,-.7c.1,-.6,.4,-1.2,.6,-1.6c.2,-.3,.6,-1,1,-1c.4,0,.4,.3,.3,.6c0,.5,.2,.6,.5,.6c.4,0,.5,-.3,.5,-.6Z" class="g0_293"/>
<path d="M280.1,167.5c0,.4,.3,.8,.7,.8c.2,0,.3,0,.4,-.1c0,.4,-.1,.7,-.3,1.1c-.2,.3,-.6,.6,-1,.9l.3,.5c.3,-.3,.6,-.5,.8,-.7c.6,-.5,1,-1,1,-2c0,-.9,-.3,-1.3,-1,-1.3c-.5,0,-.9,.3,-.9,.8Z" class="g0_293"/>
<path d="M285.5,170.5c0,.6,.5,.9,1.1,.9c.5,0,.8,-.1,1.3,-.5c.8,-.7,2.1,-2.3,2.8,-3.5c.4,-.6,.8,-1.2,1.1,-1.8c.4,-.7,1.1,-2.1,1.1,-2.9c0,-.2,-.1,-.4,-.2,-.6c-.1,-.2,-.2,-.3,-.4,-.3c-.2,0,-.3,.1,-.5,.2c-.1,.2,-.2,.4,-.2,.7c0,.4,.2,.9,.2,1.3c0,.6,-.2,1.1,-.4,1.6c-.3,.5,-.5,.9,-.8,1.4h-.1l-.3,-1.9c-.1,-.6,-.3,-1.6,-.5,-2.1c-.1,-.6,-.3,-1.2,-1.3,-1.2c-1.1,0,-1.3,1.8,-1.6,2.6l.3,.1c.2,-.6,.6,-2.3,1.1,-2.3c.3,0,.4,1,.5,1.2c.1,.3,.2,.7,.3,1.4l.6,3.5c-.4,.8,-1.2,1.7,-1.8,2.2c-.2,.2,-.6,.2,-.7,.2c-.1,0,-.2,0,-.3,-.1c-.2,-.3,-.2,-.8,-.6,-.8c-.5,0,-.7,.3,-.7,.7Z" class="g0_293"/>
<path d="M294.2,157.7l-.1,.2c1.9,1.5,2.5,3.3,2.5,6.6c0,3.2,-.6,5,-2.5,6.6l.2,.2c2,-1.2,3.6,-4,3.6,-6.8c0,-3,-1.5,-5.4,-3.7,-6.8Z" class="g0_293"/>
<path d="M311.8,162.7c0,.3,.1,.4,0,.6c-.1,.3,-.3,.7,-.4,1.2l-.9,2L308.9,162h-.3l-1.8,4.5h-.1l-.9,-3c-.1,-.2,-.1,-.3,-.1,-.4c0,-.1,0,-.3,0,-.3c0,-.5,.4,-.6,.9,-.6V162h-3.2v.2c.3,0,.6,.1,.8,.3c.1,.2,.3,.5,.4,.9l1.5,5h.2l1.9,-4.8l.1,.1l1.6,4.7h.2l1.9,-4.6c.2,-.6,.3,-.9,.5,-1.2c.2,-.2,.6,-.4,.8,-.4V162h-2.4v.2c.5,0,.9,.1,.9,.5Z" class="g0_293"/>
<path d="M315.9,166.7v-2.5c0,-.4,.1,-.7,.3,-.9c.3,-.5,.9,-1.1,1.8,-1.1c1.1,0,1.3,1.3,1.3,2.8v1.7c0,.4,-.1,.6,-.1,.8c-.1,.5,-.3,.6,-1,.6v.2h3.2v-.2c-.2,0,-.4,0,-.5,0c-.5,-.2,-.5,-.8,-.5,-1.4v-2.2c0,-.9,0,-1.5,-.4,-1.9c-.3,-.5,-.9,-.8,-1.7,-.8c-1,0,-1.9,.6,-2.3,1.3h-.1v-5.7l-2.2,.4v.2c.4,0,.8,.3,.9,.5q.1,.1,.1,.2c0,.2,0,.4,0,.7c.1,.3,.1,.6,.1,1.1v6.2c0,.5,0,.9,-.2,1.2c-.1,.2,-.5,.2,-.9,.2v.2h3.2v-.2c-.2,0,-.4,0,-.5,0c-.5,-.2,-.5,-.7,-.5,-1.4Z" class="g0_293"/>
<path d="M326.7,163.7c0,0,0,.1,0,.2c-.1,.2,-.4,.1,-.7,.1h-2.2c.2,-1,.6,-1.9,1.6,-1.9c1,0,1.3,.8,1.3,1.6Zm-.9,4.4c-1.5,0,-2.1,-1.5,-2.1,-3.1c0,-.1,0,-.5,0,-.7h4c.2,0,.3,0,.3,-.2c0,-1.6,-.8,-2.3,-2.4,-2.3c-.5,0,-.9,.1,-1.3,.3c-1.2,.5,-2,1.5,-2,3.1c0,1.9,1.2,3.3,3.1,3.2c1.4,0,1.8,-.4,2.6,-1.2l-.2,-.2c-.5,.6,-1.1,1.1,-2,1.1Z" class="g0_293"/>
<path d="M334.3,162.5c0,-.4,-.4,-.7,-.9,-.7c-.1,0,-.4,.1,-.6,.2c-.6,.2,-1.1,.8,-1.4,1.4h-.1l-.2,-1.4l-2.1,.4v.2c.3,0,.6,.2,.7,.3c.2,.2,.3,.4,.4,.9c0,.3,0,.7,0,1.3v1.6c0,.4,0,.6,0,.8c-.1,.6,-.4,.6,-1.1,.6v.2h3.2v-.2c-.2,0,-.3,0,-.5,-.1c-.5,-.2,-.4,-.6,-.4,-1.3v-1c0,-1.1,.1,-2.1,.6,-2.7c.2,-.3,.5,-.4,.7,-.4c.6,0,.5,.5,1,.5c.4,0,.7,-.2,.7,-.6Z" class="g0_293"/>
<path d="M339.2,163.7c0,0,0,.1,0,.2c0,.2,-.4,.1,-.7,.1h-2.2c.2,-1,.6,-1.9,1.7,-1.9c1,0,1.2,.8,1.2,1.6Zm-.9,4.4c-1.5,0,-2.1,-1.5,-2.1,-3.1c0,-.1,0,-.5,0,-.7h4c.2,0,.3,0,.3,-.2c0,-1.6,-.8,-2.3,-2.4,-2.3c-.5,0,-.9,.1,-1.3,.3c-1.2,.5,-2,1.5,-2,3.1c0,1.9,1.2,3.3,3.2,3.2c1.3,0,1.7,-.4,2.5,-1.2l-.2,-.2c-.5,.6,-1.1,1.1,-2,1.1Z" class="g0_293"/>
<path d="M350.1,157.7c-2.1,1.4,-3.6,3.8,-3.6,6.8c0,2.8,1.5,5.6,3.6,6.8l.2,-.2c-2,-1.6,-2.6,-3.4,-2.6,-6.6c0,-3.3,.6,-5.1,2.6,-6.6l-.2,-.2Z" class="g0_293"/>
<path d="M358.5,162.8c0,-.5,-.4,-1,-1,-1c-.3,0,-.6,.2,-.9,.4c-.4,.2,-.7,.5,-.9,.9c0,-.7,-.4,-1.3,-1,-1.3c-1.2,0,-2.1,1.2,-2.5,2l.2,.1c.4,-.5,1.1,-1.7,2,-1.7c.3,0,.4,.6,.4,1c0,.3,-.1,.7,-.2,1.1l-.4,1.2c-.1,.6,-.4,1.4,-.7,1.8c-.1,.3,-.4,.7,-.8,.7c-.4,0,-.7,-.1,-.6,-.5c.1,-.3,0,-.8,-.4,-.8c-.5,0,-.6,.4,-.6,.8c0,.6,.4,.9,1,.9c1,0,1.8,-.7,2.2,-1.4c.1,.8,.5,1.4,1.3,1.4c1.2,0,2,-1.1,2.5,-1.8l-.2,-.2c-.5,.7,-1.2,1.7,-2,1.7c-.4,0,-.6,-.6,-.6,-1.2c0,-.4,0,-.8,.1,-1.4l.2,-.7c.1,-.6,.4,-1.2,.6,-1.6c.2,-.3,.6,-1,1,-1c.4,0,.4,.3,.3,.6c0,.5,.2,.6,.5,.6c.4,0,.5,-.3,.5,-.6Z" class="g0_293"/>
<path d="M360.7,167.5c0,.4,.3,.8,.7,.8c.2,0,.3,0,.4,-.1c0,.4,-.1,.7,-.3,1.1c-.2,.3,-.5,.6,-1,.9l.3,.5c.3,-.3,.6,-.5,.8,-.7c.6,-.5,1,-1,1,-2c0,-.9,-.3,-1.3,-1,-1.3c-.5,0,-.9,.3,-.9,.8Z" class="g0_293"/>
<path d="M366.1,170.5c0,.6,.5,.9,1.1,.9c.5,0,.8,-.1,1.3,-.5c.8,-.7,2.1,-2.3,2.8,-3.5c.4,-.6,.8,-1.2,1.1,-1.8c.4,-.7,1.1,-2.1,1.1,-2.9c0,-.2,-.1,-.4,-.2,-.6c0,-.2,-.2,-.3,-.4,-.3c-.2,0,-.3,.1,-.5,.2c-.1,.2,-.2,.4,-.2,.7c0,.4,.2,.9,.2,1.3c0,.6,-.2,1.1,-.4,1.6c-.2,.5,-.5,.9,-.8,1.4h-.1l-.3,-1.9c-.1,-.6,-.3,-1.6,-.4,-2.1c-.2,-.6,-.4,-1.2,-1.4,-1.2c-1.1,0,-1.3,1.8,-1.6,2.6l.3,.1c.2,-.6,.6,-2.3,1.1,-2.3c.3,0,.5,1,.5,1.2c.1,.3,.2,.7,.3,1.4l.6,3.5c-.4,.8,-1.2,1.7,-1.8,2.2c-.2,.2,-.6,.2,-.7,.2c-.1,0,-.2,0,-.3,-.1c-.2,-.3,-.2,-.8,-.6,-.8c-.4,0,-.7,.3,-.7,.7Z" class="g0_293"/>
<path d="M374.8,157.7l-.1,.2c1.9,1.5,2.5,3.3,2.5,6.6c0,3.2,-.5,5,-2.5,6.6l.2,.2c2,-1.2,3.6,-4,3.6,-6.8c0,-3,-1.5,-5.4,-3.7,-6.8Z" class="g0_293"/>
<path d="M392.6,166.4v-.8h-3.8l.9,-2.2h2.9v-.8H390l1.1,-2.7h-.9l-1,2.7H385v.8h3.8l-.8,2.2h-3v.8h2.6l-1,2.7h.8l1.1,-2.7h4.1Z" class="g0_293"/>
<path d="M402.9,157.7c-2.2,1.4,-3.7,3.8,-3.7,6.8c0,2.8,1.6,5.6,3.6,6.8l.2,-.2c-2,-1.6,-2.5,-3.4,-2.5,-6.6c0,-3.3,.6,-5.1,2.5,-6.6l-.1,-.2Z" class="g0_293"/>
<path d="M411.2,162.8c0,-.5,-.4,-1,-.9,-1c-.4,0,-.7,.2,-1,.4c-.3,.2,-.6,.5,-.8,.9c0,-.7,-.5,-1.3,-1.1,-1.3c-1.1,0,-2.1,1.2,-2.4,2l.2,.1c.3,-.5,1.1,-1.7,1.9,-1.7c.3,0,.4,.6,.4,1c0,.3,0,.7,-.2,1.1l-.3,1.2c-.2,.6,-.4,1.4,-.7,1.8c-.2,.3,-.5,.7,-.8,.7c-.4,0,-.8,-.1,-.7,-.5c.1,-.3,.1,-.8,-.4,-.8c-.4,0,-.6,.4,-.6,.8c0,.6,.5,.9,1.1,.9c1,0,1.7,-.7,2.1,-1.4c.1,.8,.5,1.4,1.4,1.4c1.1,0,2,-1.1,2.4,-1.8l-.2,-.2c-.5,.7,-1.1,1.7,-2,1.7c-.4,0,-.6,-.6,-.6,-1.2c0,-.4,.1,-.8,.2,-1.4l.2,-.7c.1,-.6,.3,-1.2,.6,-1.6c.2,-.3,.6,-1,.9,-1c.4,0,.4,.3,.4,.6c0,.5,.1,.6,.4,.6c.4,0,.5,-.3,.5,-.6Z" class="g0_293"/>
<path d="M414.4,163.9c0,-.3,-.3,-.6,-.6,-.6c-.3,0,-.5,.2,-.5,.6c0,.3,.2,.5,.5,.5c.3,0,.6,-.3,.6,-.5Zm-2.1,6.7c1,0,1.5,-.8,1.8,-1.4l-.2,-.1c-.2,.3,-.6,1.1,-1,1.1c-.1,0,-.3,-.2,-.3,-.3c0,-.2,.2,-.6,.2,-.8l.8,-2.1c.1,-.3,.1,-.4,.1,-.6c0,-.3,0,-.6,-.4,-.6c-.6,0,-1.5,.8,-1.7,1.4l.2,.1c.2,-.2,.6,-.8,.8,-.8c.2,0,.2,.1,.2,.2c.1,.2,0,.5,-.1,.7l-.7,2c-.1,.3,-.2,.5,-.2,.7c0,.3,.2,.5,.5,.5Z" class="g0_293"/>
<path d="M417.4,167.5c0,.4,.3,.8,.7,.8c.1,0,.3,0,.4,-.1c0,.4,-.1,.7,-.3,1.1c-.2,.3,-.6,.6,-1,.9l.3,.5c.3,-.3,.6,-.5,.8,-.7c.5,-.5,1,-1,1,-2c0,-.9,-.4,-1.3,-1,-1.3c-.5,0,-.9,.3,-.9,.8Z" class="g0_293"/>
<path d="M422.8,170.5c0,.6,.5,.9,1.1,.9c.5,0,.8,-.1,1.3,-.5c.8,-.7,2.1,-2.3,2.8,-3.5c.4,-.6,.8,-1.2,1.1,-1.8c.3,-.7,1.1,-2.1,1.1,-2.9c0,-.2,-.1,-.4,-.2,-.6c-.1,-.2,-.2,-.3,-.4,-.3c-.2,0,-.3,.1,-.5,.2c-.1,.2,-.2,.4,-.2,.7c0,.4,.2,.9,.2,1.3c0,.6,-.2,1.1,-.4,1.6c-.3,.5,-.5,.9,-.8,1.4h-.1l-.4,-1.9c-.1,-.6,-.3,-1.6,-.4,-2.1c-.2,-.6,-.3,-1.2,-1.3,-1.2c-1.2,0,-1.3,1.8,-1.6,2.6l.3,.1c.1,-.6,.6,-2.3,1.1,-2.3c.3,0,.4,1,.5,1.2c.1,.3,.2,.7,.3,1.4l.6,3.5c-.4,.8,-1.2,1.7,-1.8,2.2c-.3,.2,-.6,.2,-.7,.2c-.1,0,-.2,0,-.3,-.1c-.2,-.3,-.2,-.8,-.7,-.8c-.4,0,-.6,.3,-.6,.7Z" class="g0_293"/>
<path d="M433.3,163.9c0,-.3,-.2,-.6,-.5,-.6c-.3,0,-.6,.2,-.6,.6c0,.3,.3,.5,.6,.5c.3,0,.5,-.3,.5,-.5Zm-2,6.7c.9,0,1.5,-.8,1.7,-1.4l-.2,-.1c-.1,.3,-.5,1.1,-1,1.1c-.1,0,-.2,-.2,-.2,-.3c0,-.2,.1,-.6,.2,-.8l.7,-2.1c.1,-.3,.2,-.4,.2,-.6c0,-.3,-.1,-.6,-.4,-.6c-.7,0,-1.5,.8,-1.7,1.4l.2,.1c.1,-.2,.5,-.8,.8,-.8c.1,0,.2,.1,.2,.2c0,.2,-.1,.5,-.2,.7l-.7,2c-.1,.3,-.1,.5,-.1,.7c0,.3,.1,.5,.5,.5Z" class="g0_293"/>
<path d="M435.4,157.7l-.1,.2c1.9,1.5,2.5,3.3,2.5,6.6c0,3.2,-.5,5,-2.5,6.6l.2,.2c2,-1.2,3.6,-4,3.6,-6.8c0,-3,-1.5,-5.4,-3.7,-6.8Z" class="g0_293"/>
<path d="M446.6,164.1c.5,0,.9,-.4,.9,-.9c0,-.5,-.4,-.9,-.9,-.9c-.5,0,-.8,.4,-.8,.9c0,.5,.3,.9,.8,.9Zm0,4.3c.5,0,.9,-.3,.9,-.8c0,-.5,-.4,-.9,-.9,-.9c-.5,0,-.8,.4,-.8,.9c0,.4,.3,.8,.8,.8Z" class="g0_293"/>
<path d="M452.5,168.1v.2h4.7v-.2c-.6,0,-1,-.1,-1.2,-.3c-.2,-.2,-.4,-.4,-.4,-.7c0,-.2,.1,-.5,.1,-.8l.9,-3.3h1.1c1,0,1.1,1.2,1,2.3h.3l.9,-4.3h-.3c-.4,.9,-.8,1.7,-2,1.7h-.9l1.2,-4.4h1.7c.3,0,.5,0,.8,.1c.8,.4,1.5,1.3,1.6,2.3h.3V158H455l-.1,.2c.5,0,.8,.1,1,.3c.2,.1,.3,.3,.3,.6c0,.1,0,.3,0,.4c-.1,.2,-.1,.4,-.2,.6l-1.6,6.2c-.1,.4,-.2,.6,-.2,.8c-.2,.4,-.5,.7,-.8,.9c-.2,0,-.6,.1,-.9,.1Z" class="g0_293"/>
<path d="M468.4,157.7c-2.2,1.4,-3.7,3.8,-3.7,6.8c0,2.8,1.6,5.6,3.6,6.8l.2,-.2c-2,-1.6,-2.5,-3.4,-2.5,-6.6c0,-3.3,.6,-5.1,2.5,-6.6l-.1,-.2Z" class="g0_293"/>
<path d="M476.7,162.8c0,-.5,-.4,-1,-.9,-1c-.4,0,-.7,.2,-1,.4c-.3,.2,-.6,.5,-.8,.9c0,-.7,-.5,-1.3,-1.1,-1.3c-1.1,0,-2.1,1.2,-2.4,2l.2,.1c.3,-.5,1.1,-1.7,1.9,-1.7c.3,0,.4,.6,.4,1c0,.3,0,.7,-.2,1.1l-.3,1.2c-.2,.6,-.4,1.4,-.7,1.8c-.2,.3,-.5,.7,-.8,.7c-.5,0,-.8,-.1,-.7,-.5c.1,-.3,.1,-.8,-.4,-.8c-.4,0,-.6,.4,-.6,.8c0,.6,.5,.9,1.1,.9c1,0,1.7,-.7,2.1,-1.4c.1,.8,.5,1.4,1.4,1.4c1.1,0,2,-1.1,2.4,-1.8l-.2,-.2c-.5,.7,-1.2,1.7,-2,1.7c-.4,0,-.6,-.6,-.6,-1.2c0,-.4,.1,-.8,.2,-1.4l.2,-.7c.1,-.6,.3,-1.2,.6,-1.6c.2,-.3,.6,-1,.9,-1c.4,0,.4,.3,.4,.6c0,.5,.1,.6,.4,.6c.4,0,.5,-.3,.5,-.6Z" class="g0_293"/>
<path d="M479,167.5c0,.4,.2,.8,.7,.8c.1,0,.2,0,.4,-.1c0,.4,-.1,.7,-.3,1.1c-.2,.3,-.6,.6,-1.1,.9l.3,.5c.4,-.3,.7,-.5,.9,-.7c.5,-.5,.9,-1,.9,-2c0,-.9,-.3,-1.3,-.9,-1.3c-.6,0,-.9,.3,-.9,.8Z" class="g0_293"/>
<path d="M484.4,170.5c0,.6,.5,.9,1.1,.9c.4,0,.8,-.1,1.3,-.5c.8,-.7,2,-2.3,2.8,-3.5c.4,-.6,.7,-1.2,1,-1.8c.4,-.7,1.1,-2.1,1.1,-2.9c0,-.2,0,-.4,-.1,-.6c-.1,-.2,-.3,-.3,-.5,-.3c-.1,0,-.3,.1,-.4,.2c-.2,.2,-.2,.4,-.2,.7c0,.4,.2,.9,.2,1.3c0,.6,-.2,1.1,-.5,1.6c-.2,.5,-.4,.9,-.8,1.4h-.1l-.3,-1.9c-.1,-.6,-.3,-1.6,-.4,-2.1c-.2,-.6,-.3,-1.2,-1.3,-1.2c-1.2,0,-1.4,1.8,-1.6,2.6l.3,.1c.1,-.6,.5,-2.3,1,-2.3c.3,0,.5,1,.6,1.2c0,.3,.1,.7,.2,1.4l.6,3.5c-.3,.8,-1.2,1.7,-1.8,2.2c-.2,.2,-.5,.2,-.7,.2c-.1,0,-.2,0,-.2,-.1c-.2,-.3,-.2,-.8,-.7,-.8c-.4,0,-.6,.3,-.6,.7Z" class="g0_293"/>
<path d="M493.1,157.7l-.2,.2c2,1.5,2.6,3.3,2.6,6.6c0,3.2,-.6,5,-2.6,6.6l.2,.2c2.1,-1.2,3.6,-4,3.6,-6.8c0,-3,-1.5,-5.4,-3.6,-6.8Z" class="g0_293"/>
<path d="M503,166.4h7.6v-.8H503Zm0,-3h7.6v-.8H503Z" class="g0_293"/>
<path d="M527.9,155.4h-.3c-.3,1.9,-1,2.7,-2,2.7h-5.8l4.3,-5.5l-3.9,-5.7H525c1.1,0,1.8,.6,2.1,2.5h.3l-.1,-3.1h-8.9l4.5,6.5l-5.1,6.6h10l.1,-4Z" class="g0_293"/>
<path d="M534.9,150.5h.3l1.6,-6c0,-.1,.1,-.3,.1,-.5c.2,-.2,.4,-.6,.7,-.8c.1,-.1,.3,-.1,.4,-.1l.1,-.1h-2.3v.1c.2,0,.4,.1,.6,.3c.1,.1,.1,.6,.1,.8c0,.1,0,.3,0,.4l-1.1,4v.1L532.9,143h-2v.1c.4,0,.6,0,.7,.2c.2,.3,.4,.7,.4,1c0,.1,0,.2,0,.3l-1.2,4.4c-.1,.4,-.3,.7,-.6,1c-.2,.2,-.7,.4,-1,.4v.1H532v-.1c-.3,-.1,-.6,-.1,-.7,-.3c-.2,-.1,-.3,-.5,-.3,-.7c0,-.2,0,-.3,0,-.5l1.2,-4.3v-.2l2.7,6.1Z" class="g0_293"/>
<path d="M532.2,154.8c0,-.3,-.3,-.6,-.6,-.6c-.3,0,-.5,.3,-.5,.6c0,.3,.2,.5,.5,.5c.3,0,.6,-.3,.6,-.5Zm-2.1,6.8c1,-.1,1.5,-.9,1.8,-1.5l-.2,-.1c-.2,.3,-.6,1.1,-1,1.1c-.1,0,-.3,-.2,-.3,-.3c0,-.2,.2,-.6,.2,-.8l.8,-2c.1,-.4,.1,-.5,.1,-.7c0,-.3,0,-.6,-.4,-.6c-.6,0,-1.5,.9,-1.7,1.4l.2,.1c.2,-.2,.6,-.8,.8,-.8c.2,0,.2,.1,.2,.2c.1,.2,0,.5,-.1,.7l-.7,2c-.1,.3,-.2,.5,-.2,.7c0,.4,.2,.6,.5,.6Z" class="g0_293"/>
<path d="M533.4,160.1h5.5v-.6h-5.5Zm0,-2.2h5.5v-.6h-5.5Z" class="g0_293"/>
<path d="M542.4,161.4c-1.4,0,-1.4,-2,-1.4,-3.6c0,-1.6,0,-3.8,1.4,-3.8c1.5,0,1.5,2.2,1.5,3.8c0,1.6,-.1,3.6,-1.5,3.6Zm0,-7.6c-1.9,0,-2.4,2,-2.4,4c0,1.9,.6,3.8,2.4,3.8c1.9,0,2.5,-1.9,2.5,-3.8c0,-2,-.5,-4,-2.5,-4Z" class="g0_293"/>
<path d="M550.6,154.6c0,-1.6,.7,-2.7,1.3,-3.6c.2,-.2,.5,-.5,.5,-.6q0,-.1,-.1,-.1c-.1,0,-.2,0,-.3,.1c0,0,-.1,.1,-.3,.3c-.1,.1,-.2,.2,-.4,.2c-.3,0,-.5,-.1,-.6,-.3c-.2,-.2,-.4,-.3,-.7,-.3c-.7,0,-1.3,.5,-1.3,1.1c0,.4,.3,.5,.5,.5c.3,0,.5,-.2,.5,-.5c0,-.2,-.3,-.2,-.3,-.4c0,0,.1,-.2,.3,-.2c.4,0,.6,.5,.7,.5q.3,.1,.6,0l.2,-.1c-.4,.7,-1.1,1.8,-1.3,2.4c-.3,.6,-.4,1.1,-.4,1.6c0,.2,.1,.4,.1,.6c.2,.6,.6,1.1,1.4,1.1c1.9,0,2.7,-1.8,3.2,-2.9c.4,-.8,.6,-1.6,.6,-2.6c0,-.7,-.1,-1.1,-.7,-1.1c-.4,0,-.6,.2,-.6,.6c0,.6,.3,1,.3,1.6c0,1.3,-.9,4,-2.4,4c-.7,0,-.8,-1.2,-.8,-1.9Z" class="g0_293"/>
<path d="M558.1,152.3c0,-.3,-.3,-.6,-.6,-.6c-.3,0,-.5,.3,-.5,.6c0,.3,.2,.5,.5,.5c.3,0,.6,-.3,.6,-.5Zm-2.1,6.8c1,0,1.5,-.9,1.7,-1.5l-.1,-.1c-.2,.3,-.6,1.1,-1,1.1c-.2,0,-.3,-.2,-.3,-.3c0,-.2,.2,-.6,.2,-.8l.7,-2c.1,-.3,.2,-.5,.2,-.7c0,-.3,0,-.5,-.4,-.5c-.7,0,-1.5,.8,-1.7,1.3l.2,.1c.1,-.2,.5,-.8,.8,-.8c.2,0,.2,.1,.2,.2c0,.2,-.1,.5,-.1,.7l-.8,2.1c-.1,.2,-.1,.4,-.1,.6c0,.4,.1,.6,.5,.6Z" class="g0_293"/>
<path d="M561.5,153.7c.1,-.6,.7,-1.8,1,-2.2c.3,-.3,.8,-.9,1.3,-.9c.6,0,.6,.4,.6,.8c-.1,1.1,-2.1,1.9,-2.9,2.3Zm2.4,-3.5c-.6,0,-1.3,.6,-1.7,1.2H562l1.6,-5.6l-2.3,.1l-.1,.2c.6,0,1.1,.2,1.1,.6c0,.1,-.1,.2,-.1,.5l-2.6,9.5h1l.7,-2.6l.4,-.1l.8,1.9c.1,.4,.3,.6,.4,.8c.1,.1,.3,.2,.5,.2c.9,0,1.2,-.6,1.8,-1.9l-.3,-.1c-.3,.6,-.5,1.2,-.9,1.2c-.2,0,-.5,-.5,-.6,-1l-.7,-1.6l.3,-.1c.7,-.3,1.3,-.7,1.7,-1c.3,-.4,.6,-.8,.6,-1.2c0,-.6,-.5,-1,-1.4,-1Z" class="g0_293"/>
<path d="M568.8,152.3c0,-.3,-.3,-.6,-.6,-.6c-.3,0,-.5,.3,-.5,.6c0,.3,.2,.5,.5,.5c.3,0,.6,-.3,.6,-.5Zm-2.1,6.8c1,0,1.5,-.9,1.7,-1.5l-.1,-.1c-.2,.3,-.6,1.1,-1,1.1c-.2,0,-.3,-.2,-.3,-.3c0,-.2,.2,-.6,.2,-.8l.7,-2c.1,-.3,.2,-.5,.2,-.7c0,-.3,0,-.5,-.4,-.5c-.7,0,-1.5,.8,-1.7,1.3l.2,.1c.1,-.2,.5,-.8,.8,-.8c.2,0,.2,.1,.2,.2c0,.2,-.1,.5,-.1,.7l-.8,2.1c-.1,.2,-.1,.4,-.1,.6c0,.4,.1,.6,.5,.6Z" class="g0_293"/>
<path d="M575.4,146.1c-2.1,1.4,-3.7,3.8,-3.7,6.8c0,2.8,1.6,5.6,3.7,6.8l.1,-.2C573.6,158,573,156.2,573,152.9c0,-3.3,.6,-5,2.5,-6.6l-.1,-.2Z" class="g0_293"/>
<path d="M583.8,151.2c0,-.5,-.5,-.9,-1,-.9c-.3,0,-.6,.1,-1,.3c-.3,.2,-.6,.5,-.8,.9c0,-.7,-.4,-1.2,-1.1,-1.2c-1.1,0,-2.1,1.1,-2.4,1.9l.2,.1c.4,-.5,1.1,-1.7,2,-1.7c.3,0,.4,.6,.4,1c0,.3,-.1,.7,-.2,1.2l-.4,1.1c-.1,.6,-.4,1.4,-.7,1.8c-.2,.3,-.4,.7,-.8,.7c-.4,0,-.7,-.1,-.6,-.5c.1,-.3,0,-.7,-.4,-.7c-.5,0,-.6,.3,-.6,.7c0,.6,.4,1,1,1c1,0,1.7,-.8,2.1,-1.5h.1c.1,.8,.5,1.5,1.3,1.5c1.2,0,2,-1.2,2.5,-1.9l-.2,-.1c-.5,.6,-1.2,1.6,-2,1.6c-.4,0,-.7,-.6,-.7,-1.2c0,-.4,.1,-.8,.2,-1.4l.2,-.7c.1,-.5,.4,-1.2,.6,-1.6c.2,-.3,.6,-.9,1,-.9c.4,0,.3,.3,.3,.6c0,.4,.2,.6,.5,.6c.4,0,.5,-.3,.5,-.7Z" class="g0_293"/>
<path d="M586,156c0,.4,.3,.7,.7,.7c.1,0,.3,0,.4,-.1c0,.4,-.1,.8,-.3,1.1c-.2,.3,-.6,.6,-1,1l.3,.4c.3,-.2,.6,-.5,.8,-.7c.5,-.5,1,-1,1,-1.9c0,-.9,-.4,-1.4,-1,-1.4c-.5,0,-.9,.3,-.9,.9Z" class="g0_293"/>
<path d="M591.4,158.9c0,.6,.5,1,1.1,1c.5,0,.8,-.2,1.3,-.6c.8,-.7,2.1,-2.2,2.8,-3.4c.4,-.7,.8,-1.3,1.1,-1.8c.3,-.8,1.1,-2.2,1.1,-3c0,-.2,-.1,-.4,-.2,-.6c-.1,-.2,-.2,-.2,-.4,-.2c-.2,0,-.3,0,-.5,.2c-.1,.1,-.2,.3,-.2,.6c0,.5,.2,.9,.2,1.3c0,.6,-.2,1.2,-.4,1.6c-.3,.5,-.5,.9,-.8,1.4h-.1l-.3,-1.9c-.1,-.5,-.4,-1.6,-.5,-2c-.2,-.7,-.3,-1.2,-1.3,-1.2c-1.1,0,-1.3,1.7,-1.6,2.5l.3,.1c.1,-.6,.6,-2.3,1.1,-2.3c.3,0,.4,1,.5,1.3c.1,.3,.2,.7,.3,1.3l.6,3.5c-.4,.8,-1.2,1.7,-1.8,2.2c-.2,.2,-.6,.2,-.7,.2c-.1,0,-.2,0,-.3,-.1c-.2,-.3,-.2,-.8,-.7,-.8c-.4,0,-.6,.3,-.6,.7Z" class="g0_293"/>
<path d="M600.1,146.1l-.1,.2c1.9,1.6,2.5,3.3,2.5,6.6c0,3.3,-.6,5.1,-2.5,6.6l.2,.2c2,-1.2,3.6,-4,3.6,-6.8c0,-3,-1.5,-5.4,-3.7,-6.8Z" class="g0_293"/>
<path d="M517.1,164.9h88.2v-.8H517.1Z" class="g0_293"/>
<path d="M533.3,179.9H533c-.3,1.9,-1,2.7,-2,2.7h-5.8l4.3,-5.5l-3.8,-5.7h4.7c1.1,0,1.8,.6,2.1,2.5h.3l-.1,-3.1h-8.9l4.6,6.5l-5.2,6.6h10l.1,-4Z" class="g0_293"/>
<path d="M540.3,175h.3l1.6,-6c0,-.1,.1,-.3,.2,-.4c.1,-.3,.3,-.7,.6,-.9c.1,-.1,.3,-.1,.5,-.1v-.1h-2.3v.1c.2,0,.4,.1,.6,.3c.1,.2,.2,.6,.2,.8c0,.1,-.1,.3,-.1,.4l-1,4l-.1,.1l-2.5,-5.7h-1.9l-.1,.1c.4,0,.6,.1,.7,.2c.3,.3,.4,.7,.4,1c0,.1,0,.2,0,.3l-1.2,4.4c-.1,.4,-.3,.7,-.6,1c-.2,.2,-.6,.4,-.9,.4l-.1,.1h2.8l.1,-.1c-.3,-.1,-.6,-.1,-.8,-.3c-.1,-.1,-.3,-.5,-.3,-.7c0,-.2,0,-.3,.1,-.5l1.1,-4.3l.1,-.2l2.6,6.1Z" class="g0_293"/>
<path d="M537.6,179.3c0,-.3,-.3,-.6,-.6,-.6c-.3,0,-.5,.3,-.5,.6c0,.3,.3,.5,.5,.5c.3,0,.6,-.3,.6,-.5Zm-2.1,6.8c1,-.1,1.5,-.9,1.8,-1.5l-.2,-.1c-.2,.3,-.6,1.1,-1,1.1c-.1,0,-.2,-.2,-.2,-.3c0,-.2,.1,-.6,.2,-.8l.7,-2c.1,-.3,.1,-.5,.1,-.7c0,-.3,0,-.6,-.3,-.6c-.7,0,-1.5,.9,-1.8,1.4l.2,.1c.2,-.2,.6,-.8,.8,-.8c.2,0,.3,.1,.3,.2c0,.2,-.1,.5,-.2,.7l-.7,2c-.1,.3,-.2,.5,-.2,.7c0,.4,.2,.6,.5,.6Z" class="g0_293"/>
<path d="M538.8,184.6h5.6V184h-5.6Zm0,-2.2h5.6v-.6h-5.6Z" class="g0_293"/>
<path d="M547.9,185.9c-1.4,0,-1.4,-2,-1.4,-3.6c0,-1.6,0,-3.8,1.4,-3.8c1.4,0,1.4,2.2,1.4,3.8c0,1.6,0,3.6,-1.4,3.6Zm-.1,.2h.1c1.8,0,2.4,-1.9,2.4,-3.8c0,-2,-.5,-4,-2.4,-4c-1.9,0,-2.5,2,-2.5,4c0,1.9,.6,3.8,2.4,3.8Z" class="g0_293"/>
<path d="M556.1,178.2c.1,-.6,.6,-1.8,1,-2.2c.3,-.3,.8,-.9,1.3,-.9c.5,0,.5,.5,.5,.8c0,1.1,-2,1.9,-2.8,2.3Zm2.4,-3.4c-.6,0,-1.3,.5,-1.8,1.1h-.1l1.5,-5.6l-2.3,.1v.2c.6,0,1,.2,1,.6c0,.1,0,.3,0,.5l-2.7,9.5h1.1l.7,-2.6l.4,-.1l.8,1.9c.1,.4,.3,.6,.4,.8c.1,.1,.3,.2,.4,.2c1,0,1.3,-.6,1.8,-1.8l-.2,-.2c-.3,.6,-.5,1.3,-1,1.3c-.2,0,-.4,-.6,-.6,-1.1l-.6,-1.6l.3,-.1c.7,-.3,1.3,-.7,1.7,-1c.3,-.4,.5,-.8,.5,-1.2c0,-.6,-.4,-.9,-1.3,-.9Z" class="g0_293"/>
<path d="M563.3,176.8c0,-.3,-.2,-.6,-.5,-.6c-.3,0,-.6,.3,-.6,.6c0,.3,.3,.5,.6,.5c.2,0,.5,-.3,.5,-.5Zm-2,6.8c.9,0,1.5,-.9,1.7,-1.5l-.2,-.1c-.1,.3,-.5,1.1,-1,1.1c-.1,0,-.2,-.2,-.2,-.3c0,-.2,.1,-.6,.2,-.8l.7,-2c.1,-.3,.2,-.5,.2,-.7c0,-.3,-.1,-.5,-.4,-.5c-.7,0,-1.5,.8,-1.7,1.3l.2,.1c.1,-.2,.5,-.8,.8,-.8c.1,0,.2,.1,.2,.2c0,.2,-.1,.5,-.2,.7l-.7,2.1c-.1,.2,-.1,.5,-.1,.6c0,.4,.1,.6,.5,.6Z" class="g0_293"/>
<path d="M570,170.6c-2.2,1.4,-3.7,3.8,-3.7,6.8c0,2.8,1.6,5.6,3.6,6.8l.2,-.2c-1.9,-1.5,-2.5,-3.3,-2.5,-6.6c0,-3.3,.6,-5,2.5,-6.6l-.1,-.2Z" class="g0_293"/>
<path d="M578.4,175.7c0,-.5,-.5,-.9,-1,-.9c-.3,0,-.7,.1,-1,.3c-.3,.2,-.6,.5,-.8,.9c0,-.7,-.4,-1.2,-1.1,-1.2c-1.1,0,-2.1,1.1,-2.4,1.9l.2,.1c.3,-.5,1.1,-1.7,2,-1.7c.2,0,.3,.6,.3,1c0,.3,0,.7,-.2,1.2l-.3,1.2c-.2,.5,-.4,1.3,-.7,1.7c-.2,.3,-.4,.7,-.8,.7c-.4,0,-.7,-.1,-.6,-.5c0,-.3,0,-.7,-.4,-.7c-.5,0,-.7,.3,-.7,.7c0,.6,.5,1,1.1,1c1,0,1.7,-.8,2.1,-1.5c.1,.8,.5,1.5,1.4,1.5c1.2,0,2,-1.2,2.4,-1.9l-.2,-.1c-.5,.6,-1.1,1.6,-1.9,1.6c-.5,0,-.7,-.6,-.7,-1.2c0,-.4,.1,-.8,.2,-1.3l.2,-.8c.1,-.5,.3,-1.2,.6,-1.6c.2,-.3,.6,-.9,.9,-.9c.5,0,.4,.3,.4,.6c0,.4,.1,.6,.5,.6c.3,0,.5,-.3,.5,-.7Z" class="g0_293"/>
<path d="M580.6,180.5c0,.4,.2,.7,.7,.7c.1,0,.3,0,.4,-.1c0,.4,-.1,.8,-.3,1.1c-.2,.3,-.6,.6,-1.1,1l.4,.4c.3,-.2,.6,-.5,.8,-.7c.5,-.5,.9,-1,.9,-1.9c0,-.9,-.3,-1.4,-.9,-1.4c-.5,0,-.9,.4,-.9,.9Z" class="g0_293"/>
<path d="M586,183.4c0,.6,.5,1,1.1,1c.4,0,.8,-.2,1.3,-.6c.8,-.7,2.1,-2.2,2.8,-3.4c.4,-.7,.7,-1.3,1,-1.8c.4,-.8,1.2,-2.2,1.2,-3c0,-.2,-.1,-.4,-.2,-.6c-.1,-.2,-.3,-.2,-.5,-.2c-.1,0,-.3,0,-.4,.2c-.2,.1,-.2,.3,-.2,.6c0,.5,.2,.9,.2,1.3c0,.6,-.2,1.2,-.4,1.6c-.3,.5,-.5,.9,-.9,1.5l-.4,-2c-.1,-.5,-.3,-1.6,-.4,-2c-.2,-.7,-.3,-1.2,-1.3,-1.2c-1.2,0,-1.4,1.7,-1.6,2.5l.3,.1c.1,-.6,.6,-2.3,1,-2.3c.4,0,.5,1,.6,1.3c.1,.3,.1,.7,.2,1.3l.6,3.5c-.3,.8,-1.1,1.7,-1.7,2.2c-.3,.2,-.6,.3,-.8,.3c-.1,0,-.1,-.1,-.2,-.2c-.2,-.3,-.2,-.8,-.7,-.8c-.4,0,-.6,.3,-.6,.7Z" class="g0_293"/>
<path d="M594.7,170.6l-.1,.2c1.9,1.6,2.5,3.3,2.5,6.6c0,3.3,-.6,5.1,-2.5,6.6l.1,.2c2.1,-1.2,3.7,-4,3.7,-6.8c0,-3,-1.6,-5.4,-3.7,-6.8Z" class="g0_293"/>
<path d="M608.2,167.5c0,.4,.3,.8,.7,.8c.2,0,.3,0,.4,-.1c0,.4,-.1,.7,-.3,1.1c-.2,.3,-.5,.6,-1,.9l.3,.5c.4,-.3,.6,-.5,.9,-.7c.5,-.5,.9,-1,.9,-2c0,-.9,-.3,-1.3,-1,-1.3c-.5,0,-.9,.3,-.9,.8Zm.9,-3.4c.5,0,.9,-.4,.9,-.9c0,-.5,-.4,-.9,-.9,-.9c-.5,0,-.9,.4,-.9,.9c0,.5,.4,.9,.9,.9Z" class="g0_293"/>
<path d="M613.6,168.1l-.1,.2h4.7l.1,-.2c-.7,0,-1.1,-.1,-1.3,-.3c-.2,-.2,-.4,-.4,-.4,-.7c0,-.2,.1,-.5,.2,-.8l.8,-3.3h1.1c1.1,0,1.1,1.2,1,2.3h.3l.9,-4.3h-.3c-.4,.9,-.8,1.7,-2,1.7h-.9l1.2,-4.4h1.7c.3,0,.6,0,.8,.1c.8,.4,1.5,1.3,1.6,2.3h.3V158H616v.2c.4,0,.7,.1,.9,.3c.2,.1,.3,.3,.3,.6c0,.1,0,.3,0,.4c0,.2,-.1,.4,-.1,.6l-1.7,6.2c-.1,.4,-.1,.6,-.2,.8c-.2,.4,-.5,.7,-.8,.9c-.2,0,-.5,.1,-.8,.1Z" class="g0_293"/>
<path d="M629.4,157.7c-2.2,1.4,-3.7,3.8,-3.7,6.8c0,2.8,1.6,5.6,3.6,6.8l.2,-.2c-1.9,-1.6,-2.5,-3.4,-2.5,-6.6c0,-3.3,.6,-5.1,2.5,-6.6l-.1,-.2Z" class="g0_293"/>
<path d="M637.8,162.8c0,-.5,-.5,-1,-1,-1c-.3,0,-.7,.2,-1,.4c-.3,.2,-.6,.5,-.8,.9c0,-.7,-.4,-1.3,-1.1,-1.3c-1.1,0,-2.1,1.2,-2.4,2l.2,.1c.3,-.5,1.1,-1.7,2,-1.7c.2,0,.3,.6,.3,1c0,.3,0,.7,-.2,1.1l-.3,1.2c-.2,.6,-.4,1.4,-.7,1.8c-.2,.3,-.4,.7,-.8,.7c-.4,0,-.7,-.1,-.6,-.5c0,-.3,0,-.8,-.4,-.8c-.5,0,-.7,.4,-.7,.8c0,.6,.5,.9,1.1,.9c1,0,1.7,-.7,2.1,-1.4c.1,.8,.5,1.4,1.4,1.4c1.2,0,2,-1.1,2.4,-1.8l-.2,-.2c-.5,.7,-1.1,1.7,-1.9,1.7c-.5,0,-.7,-.6,-.7,-1.2c0,-.4,.1,-.8,.2,-1.4l.2,-.7c.1,-.6,.3,-1.2,.6,-1.6c.2,-.3,.6,-1,.9,-1c.5,0,.4,.3,.4,.6c0,.5,.1,.6,.5,.6c.3,0,.5,-.3,.5,-.6Z" class="g0_293"/>
<path d="M640.9,163.9c0,-.3,-.3,-.6,-.6,-.6c-.3,0,-.5,.2,-.5,.6c0,.3,.2,.5,.5,.5c.3,0,.6,-.3,.6,-.5Zm-2.1,6.7c1,0,1.5,-.8,1.8,-1.4l-.2,-.1c-.2,.3,-.6,1.1,-1,1.1c-.1,0,-.3,-.2,-.3,-.3c0,-.2,.2,-.6,.3,-.8l.7,-2.1c.1,-.3,.1,-.4,.1,-.6c0,-.3,0,-.6,-.3,-.6c-.7,0,-1.5,.8,-1.8,1.4l.2,.1c.2,-.2,.6,-.8,.8,-.8c.2,0,.2,.1,.2,.2c.1,.2,0,.5,-.1,.7l-.7,2c-.1,.3,-.2,.5,-.2,.7c0,.3,.2,.5,.5,.5Z" class="g0_293"/>
<path d="M643.9,167.5c0,.4,.3,.8,.7,.8c.1,0,.3,0,.4,-.1c0,.4,-.1,.7,-.3,1.1c-.2,.3,-.6,.6,-1,.9l.3,.5c.3,-.3,.6,-.5,.8,-.7c.5,-.5,1,-1,1,-2c0,-.9,-.4,-1.3,-1,-1.3c-.5,0,-.9,.3,-.9,.8Z" class="g0_293"/>
<path d="M649.3,170.5c0,.6,.5,.9,1.1,.9c.5,0,.8,-.1,1.3,-.5c.8,-.7,2.1,-2.3,2.8,-3.5c.4,-.6,.8,-1.2,1.1,-1.8c.3,-.7,1.1,-2.1,1.1,-2.9c0,-.2,-.1,-.4,-.2,-.6c-.1,-.2,-.2,-.3,-.4,-.3c-.2,0,-.3,.1,-.5,.2c-.1,.2,-.2,.4,-.2,.7c0,.4,.2,.9,.2,1.3c0,.6,-.2,1.1,-.4,1.6c-.3,.5,-.5,.9,-.8,1.4h-.1l-.3,-1.9c-.1,-.6,-.4,-1.6,-.5,-2.1c-.2,-.6,-.3,-1.2,-1.3,-1.2c-1.1,0,-1.3,1.8,-1.6,2.6l.3,.1c.1,-.6,.6,-2.3,1.1,-2.3c.3,0,.4,1,.5,1.2c.1,.3,.2,.7,.3,1.4l.6,3.5c-.4,.8,-1.2,1.7,-1.8,2.2c-.2,.2,-.6,.2,-.7,.2c-.1,0,-.2,0,-.3,-.1c-.2,-.3,-.2,-.8,-.7,-.8c-.4,0,-.6,.3,-.6,.7Z" class="g0_293"/>
<path d="M659.9,163.9c0,-.3,-.3,-.6,-.6,-.6c-.3,0,-.6,.2,-.6,.6c0,.3,.3,.5,.6,.5c.3,0,.6,-.3,.6,-.5Zm-2.1,6.7c1,0,1.5,-.8,1.7,-1.4l-.2,-.1c-.1,.3,-.5,1.1,-1,1.1c-.1,0,-.2,-.2,-.2,-.3c0,-.2,.1,-.6,.2,-.8L659,167c.1,-.3,.2,-.4,.2,-.6c0,-.3,0,-.6,-.4,-.6c-.7,0,-1.5,.8,-1.7,1.4l.2,.1c.1,-.2,.5,-.8,.8,-.8c.2,0,.2,.1,.2,.2c0,.2,-.1,.5,-.1,.7l-.8,2c-.1,.3,-.1,.5,-.1,.7c0,.3,.1,.5,.5,.5Z" class="g0_293"/>
<path d="M661.9,157.7l-.1,.2c1.9,1.5,2.5,3.3,2.5,6.6c0,3.2,-.5,5,-2.5,6.6l.2,.2c2,-1.2,3.6,-4,3.6,-6.8c0,-3,-1.5,-5.4,-3.7,-6.8Z" class="g0_293"/>
<path d="M671.8,166.4h7.6v-.8h-7.6Zm0,-3h7.6v-.8h-7.6Z" class="g0_293"/>
<path d="M686.1,166.2c0,-1.6,.6,-2.7,1.3,-3.6c.1,-.2,.5,-.5,.5,-.6c0,-.1,0,-.2,-.1,-.2c-.1,0,-.2,.1,-.3,.1c0,.1,-.1,.2,-.3,.3c-.1,.2,-.3,.2,-.4,.2c-.3,0,-.5,-.1,-.6,-.2c-.2,-.2,-.4,-.4,-.8,-.4c-.6,0,-1.2,.6,-1.2,1.2c0,.4,.2,.5,.5,.5c.3,0,.4,-.2,.4,-.5c0,-.2,-.2,-.2,-.2,-.4c0,-.1,0,-.2,.2,-.2c.5,0,.6,.5,.8,.5c.2,.1,.3,.1,.6,0l.2,-.1c-.4,.7,-1.1,1.7,-1.3,2.3c-.3,.6,-.4,1.2,-.4,1.6c0,.3,0,.5,.1,.7c.2,.6,.6,1,1.4,1c1.9,0,2.7,-1.7,3.2,-2.9c.3,-.7,.6,-1.6,.6,-2.5c0,-.7,-.1,-1.2,-.7,-1.2c-.4,0,-.6,.3,-.6,.7c0,.6,.3,.9,.3,1.5c0,1.4,-.9,4,-2.4,4.1c-.8,0,-.8,-1.2,-.8,-1.9Z" class="g0_293"/>
<path d="M693.5,163.9c0,-.3,-.2,-.6,-.5,-.6c-.3,0,-.6,.2,-.6,.6c0,.3,.3,.5,.6,.5c.2,0,.5,-.3,.5,-.5Zm-2,6.7c.9,0,1.4,-.8,1.7,-1.4l-.2,-.1c-.1,.3,-.5,1.1,-1,1.1c-.1,0,-.2,-.2,-.2,-.3c0,-.2,.1,-.6,.2,-.8l.7,-2.1c.1,-.3,.2,-.4,.2,-.6c0,-.3,-.1,-.6,-.4,-.6c-.7,0,-1.5,.8,-1.7,1.4l.2,.1c.1,-.2,.5,-.8,.8,-.8c.1,0,.2,.1,.2,.2c0,.2,-.1,.5,-.2,.7l-.7,2c-.1,.3,-.1,.5,-.1,.7c0,.3,.1,.5,.5,.5Z" class="g0_293"/>
<path d="M281.7,265.6v-2.9c.8,0,1.2,.1,1.6,.3c.5,.3,.8,.8,.9,1.5h.3v-4h-.3c0,.4,-.2,.7,-.3,.9c-.3,.7,-1.1,.9,-2.2,.9v-4.5c0,-.1,0,-.2,.2,-.2h1.7c.8,0,1.7,.3,2.1,.6c.5,.3,.7,.9,.8,1.7h.3l-.1,-2.6h-7.8v.2c.5,0,.9,.2,1.1,.4c.2,.3,.3,.7,.3,1.2v6.6c0,.6,-.1,1,-.3,1.3c-.3,.2,-.7,.4,-1.2,.4v.2h4.7v-.2c-.6,0,-1.2,-.2,-1.5,-.5c-.3,-.2,-.3,-.7,-.3,-1.3Z" class="g0_293"/>
<path d="M290.7,261.4c1.3,0,2,1.6,2,3c0,1.7,-.8,3.1,-2,3.1c-1.6,0,-2,-1.6,-2,-3.1c0,-1.4,.7,-3,2,-3Zm0,-.3c-.5,0,-.9,.1,-1.3,.3c-1.1,.4,-2,1.5,-2,3c0,.5,0,.9,.2,1.4c.5,1,1.2,1.9,3.1,1.9c1.1,0,1.8,-.4,2.4,-.9c.5,-.5,1,-1.3,1,-2.4c0,-.5,-.1,-.9,-.3,-1.3c-.5,-1.1,-1.5,-2,-3.1,-2Z" class="g0_293"/>
<path d="M300.3,261.8c0,-.4,-.3,-.7,-.8,-.7c-.2,0,-.4,.1,-.6,.2c-.7,.2,-1.2,.8,-1.5,1.5l-.2,-1.5l-2.1,.4v.2c.2,0,.5,.2,.7,.3c.2,.2,.3,.5,.3,.9c.1,.3,.1,.8,.1,1.3v1.7c0,.3,-.1,.5,-.1,.7c-.1,.6,-.3,.6,-1,.7v.1h3.2v-.1c-.2,-.1,-.4,0,-.5,-.1c-.5,-.3,-.5,-.7,-.5,-1.4v-1c0,-1.1,.2,-2.1,.7,-2.7c.2,-.2,.5,-.4,.7,-.4c.5,0,.5,.5,.9,.5c.4,.1,.7,-.2,.7,-.6Z" class="g0_293"/>
<path d="M306.2,267.7c1.1,0,1.7,-.5,2.1,-1.2c0,.7,.3,1.2,1.1,1.2c.6,0,1,-.2,1.3,-.6l-.1,-.1c-.1,.1,-.4,.4,-.7,.4c-.4,0,-.5,-.5,-.5,-1.4v-3c0,-1.4,-.7,-1.8,-2.2,-1.8c-1.3,0,-2.5,.6,-2.5,1.1c0,.4,.1,.7,.5,.7c.4,0,.6,-.2,.8,-.6c0,-.3,.1,-.5,.2,-.6c.1,-.2,.4,-.4,.8,-.4c1.3,0,1.2,.7,1.2,1.7v.5l-1.7,.7c-.6,.3,-1.1,.6,-1.5,1c-.3,.2,-.5,.6,-.5,1c0,.9,.7,1.4,1.7,1.4Zm-.5,-1.6c0,-.5,.3,-.8,.6,-1.1c.5,-.5,1.1,-.8,1.9,-1.2v1.7c0,.6,-.2,.9,-.4,1.3c-.2,.3,-.7,.6,-1.2,.6c-.5,0,-.9,-.7,-.9,-1.3Z" class="g0_293"/>
<path d="M313.2,266v-9.3l-2.3,.4v.2c.2,.1,.6,.2,.8,.4c.3,.3,.4,.3,.4,2v6.4c0,.3,0,.5,-.1,.7c-.1,.5,-.4,.6,-1,.7v.1h3.3v-.1c-.3,-.1,-.5,-.1,-.6,-.1c-.5,-.2,-.5,-.7,-.5,-1.4Z" class="g0_293"/>
<path d="M317.1,266v-9.3l-2.3,.4v.2c.2,.1,.6,.2,.8,.4c.3,.3,.4,.3,.4,2v6.4c0,.3,0,.5,-.1,.7c-.1,.5,-.4,.6,-1,.7v.1h3.3v-.1c-.2,-.1,-.5,-.1,-.6,-.1c-.5,-.2,-.5,-.7,-.5,-1.4Z" class="g0_293"/>
<path d="M325.2,267.7c.8,0,1.2,-.2,1.6,-.9l-.2,-.1c-.2,.3,-.5,.8,-1,.8c-.8,0,-.8,-.6,-.8,-1.8v-4.2h1.6v-.2h-1.6v-1.9h-.2c-.3,.8,-1,1.5,-1.7,2v.1h.7v4.8c0,1,.6,1.4,1.6,1.4Z" class="g0_293"/>
<path d="M332.6,261.8c0,-.4,-.4,-.7,-.8,-.7c-.2,0,-.4,.1,-.6,.2c-.7,.2,-1.2,.8,-1.5,1.5h-.1l-.1,-1.5l-2.1,.4v.2c.2,0,.5,.2,.6,.3c.3,.2,.4,.5,.4,.9c0,.3,0,.8,0,1.3v1.7c0,.3,0,.5,0,.7c-.1,.6,-.4,.6,-1,.7v.1h3.2v-.1c-.3,-.1,-.4,0,-.6,-.1c-.4,-.3,-.4,-.7,-.4,-1.4v-1c0,-1.1,.2,-2.1,.6,-2.7c.3,-.2,.5,-.4,.7,-.4c.6,0,.6,.5,1,.5c.4,.1,.7,-.2,.7,-.6Z" class="g0_293"/>
<path d="M334.8,259.5c.4,0,.7,-.4,.7,-.8c0,-.4,-.4,-.7,-.7,-.7c-.4,0,-.8,.3,-.8,.7c0,.4,.4,.8,.8,.8Zm.6,6.5v-4.8l-2.4,.4v.2c.4,0,.7,.2,.9,.3c.3,.3,.3,.6,.3,2.2v1.8c0,.2,0,.5,0,.7c-.1,.5,-.5,.6,-1.1,.7v.1h3.4v-.1c-.2,-.1,-.4,-.1,-.6,-.1c-.5,-.2,-.5,-.7,-.5,-1.4Z" class="g0_293"/>
<path d="M341,261.4c1.3,0,2,1.7,2,3.1c0,1.4,-.7,3,-1.9,3c-.9,0,-1.7,-.9,-1.8,-1.5c0,-.2,0,-.3,0,-.6v-1.7c0,-.4,0,-.7,.1,-.9c.1,-.5,.7,-1.4,1.6,-1.4Zm.2,6.3c.9,0,1.7,-.3,2.2,-.9c.5,-.5,.9,-1.3,.9,-2.3c0,-1.1,-.4,-1.8,-.9,-2.4c-.5,-.6,-1.2,-1,-2.2,-1c-.9,0,-1.5,.5,-1.9,1.1v-1l-2.3,.5v.2c.7,0,.9,.2,1.1,.6c0,.1,0,.3,0,.7c0,.3,0,.6,0,1.1V269c0,.5,0,.9,-.2,1.2c-.2,.2,-.5,.2,-.9,.3v.1h3.7v-.1c-.3,-.1,-.5,-.1,-.7,-.1c-.6,-.2,-.7,-.7,-.7,-1.5v-2c.5,.5,1,.8,1.9,.8Z" class="g0_293"/>
<path d="M347.4,266v-9.3l-2.3,.4v.2c.2,.1,.6,.2,.8,.4c.3,.3,.4,.3,.4,2v6.4c0,.3,0,.5,-.1,.7c0,.5,-.4,.6,-1,.7v.1h3.3v-.1c-.2,-.1,-.4,-.1,-.6,-.1c-.5,-.2,-.5,-.7,-.5,-1.4Z" class="g0_293"/>
<path d="M353.8,263q0,.1,0,.2c-.1,.2,-.4,.1,-.7,.1h-2.2c.2,-1,.6,-1.9,1.6,-1.9c1,0,1.3,.8,1.3,1.6Zm-.9,4.4c-1.5,0,-2.1,-1.5,-2.1,-3c0,-.2,0,-.6,0,-.8h4c.2,0,.3,0,.3,-.2c0,-1.6,-.8,-2.2,-2.4,-2.2c-.5,0,-.9,0,-1.3,.2c-1.2,.5,-2,1.5,-2,3.1c0,1.9,1.2,3.3,3.1,3.2c1.4,0,1.8,-.4,2.6,-1.2l-.2,-.1c-.5,.5,-1.1,1,-2,1Z" class="g0_293"/>
<path d="M358.5,267.7c.8,0,1.2,-.2,1.6,-.9l-.1,-.1c-.3,.3,-.6,.8,-1.1,.8c-.8,0,-.8,-.6,-.8,-1.8v-4.2h1.6v-.2h-1.6v-1.9h-.2c-.3,.8,-1,1.5,-1.7,2v.1h.7v4.8c0,1,.6,1.4,1.6,1.4Z" class="g0_293"/>
<path d="M362.9,261.4c.8,0,1.2,.9,1.5,1.6h.2v-1.7h-.2l-.3,.2c-.2,-.1,-.4,-.2,-.6,-.3c-.2,0,-.4,-.1,-.6,-.1c-.6,0,-1,.3,-1.3,.6c-.3,.3,-.5,.7,-.5,1.3c0,.8,.4,1.1,.9,1.5c.5,.4,2.1,1.1,2.1,1.8c0,.6,-.3,1.2,-1.1,1.2c-.8,0,-1.5,-.8,-1.8,-1.9H361v2h.2l.3,-.4c.4,.4,1,.5,1.6,.5c.6,0,1.1,-.1,1.5,-.4c.4,-.4,.5,-.8,.5,-1.4c0,-.9,-1.1,-1.6,-1.9,-2.1c-.4,-.3,-1.2,-.6,-1.2,-1.3c0,-.5,.3,-1.1,.9,-1.1Z" class="g0_293"/>
<path d="M374.7,257c-2.1,1.4,-3.6,3.8,-3.6,6.8c0,2.8,1.5,5.6,3.6,6.8l.2,-.2c-2,-1.6,-2.6,-3.4,-2.6,-6.6c0,-3.3,.6,-5,2.6,-6.6l-.2,-.2Z" class="g0_293"/>
<path d="M383.1,262.1c0,-.5,-.4,-1,-1,-1c-.3,0,-.6,.2,-1,.4c-.3,.2,-.6,.5,-.8,.9c0,-.7,-.4,-1.3,-1.1,-1.3c-1.1,0,-2,1.2,-2.4,2l.2,.1c.4,-.5,1.1,-1.7,2,-1.7c.3,0,.4,.6,.4,1c0,.3,-.1,.7,-.2,1.2l-.4,1.1c-.1,.6,-.4,1.4,-.7,1.8c-.1,.3,-.4,.7,-.8,.7c-.4,0,-.7,-.1,-.6,-.5c.1,-.3,0,-.7,-.4,-.7c-.5,0,-.6,.3,-.6,.7c0,.6,.4,.9,1,.9c1,0,1.8,-.7,2.1,-1.4h.1c.1,.8,.5,1.4,1.3,1.4c1.2,0,2,-1.1,2.5,-1.8l-.2,-.2c-.5,.7,-1.2,1.7,-2,1.7c-.4,0,-.6,-.6,-.6,-1.2c0,-.4,0,-.8,.1,-1.4l.2,-.7c.1,-.6,.4,-1.2,.6,-1.6c.2,-.3,.6,-.9,1,-.9c.4,0,.4,.2,.3,.6c0,.4,.2,.5,.5,.5c.4,0,.5,-.2,.5,-.6Z" class="g0_293"/>
<path d="M385.3,266.8c0,.5,.3,.8,.7,.8c.2,0,.3,0,.4,-.1c0,.4,-.1,.8,-.3,1.1c-.2,.3,-.5,.6,-1,.9l.3,.5c.3,-.3,.6,-.5,.8,-.7c.6,-.5,1,-1,1,-2c0,-.8,-.3,-1.3,-1,-1.3c-.5,0,-.9,.3,-.9,.8Z" class="g0_293"/>
<path d="M390.7,269.8c0,.6,.5,.9,1.1,.9c.5,0,.8,-.1,1.3,-.5c.8,-.7,2.1,-2.3,2.8,-3.5c.4,-.6,.8,-1.2,1.1,-1.8c.4,-.7,1.1,-2.1,1.1,-2.9c0,-.2,-.1,-.4,-.2,-.6c-.1,-.2,-.2,-.3,-.4,-.3c-.2,0,-.3,.1,-.5,.3c-.1,.1,-.2,.3,-.2,.6c0,.4,.2,.9,.2,1.3c0,.6,-.2,1.1,-.4,1.6c-.3,.5,-.5,.9,-.8,1.4h-.1l-.3,-1.9c-.1,-.5,-.3,-1.6,-.5,-2c-.1,-.7,-.3,-1.3,-1.3,-1.3c-1.1,0,-1.3,1.8,-1.6,2.6l.3,.1c.2,-.6,.6,-2.3,1.1,-2.3c.3,0,.5,1,.5,1.3c.1,.3,.2,.7,.3,1.3l.6,3.5c-.4,.8,-1.2,1.7,-1.8,2.2c-.2,.2,-.6,.2,-.7,.2c-.1,0,-.2,0,-.3,-.1c-.2,-.3,-.2,-.8,-.6,-.8c-.4,0,-.7,.3,-.7,.7Z" class="g0_293"/>
<path d="M400.3,266.8c0,.5,.3,.8,.7,.8c.2,0,.3,0,.4,-.1c0,.4,0,.8,-.3,1.1c-.2,.3,-.5,.6,-1,.9l.3,.5c.4,-.3,.6,-.5,.9,-.7c.5,-.5,.9,-1,.9,-2c0,-.8,-.3,-1.3,-1,-1.3c-.5,0,-.9,.3,-.9,.8Z" class="g0_293"/>
<path d="M408.6,263.5c.3,0,.5,-.1,.5,-.4c0,-.5,-.6,-.4,-.7,-.8c-.1,-.2,.1,-.3,.3,-.3c.9,0,1.4,1,2.6,1l-3.4,3.1c-.4,.4,-.7,.8,-.7,1.2c0,.2,.2,.3,.3,.3c.7,0,.2,-.8,.9,-.8c.9,0,1.5,.9,2.5,.9c1.2,0,1.6,-1.1,1.9,-2.1h-.3c-.2,.5,-.6,1.1,-1.2,1.1c-.9,0,-1.7,-.8,-2.6,-.8c1.3,-1.3,2.5,-2.3,3.8,-3.6c.2,-.2,.4,-.4,.4,-.7c0,-.2,-.1,-.3,-.3,-.3c-.3,0,-.3,.2,-.4,.4c-.1,.2,-.4,.3,-.7,.3c-.8,0,-1.4,-.9,-2.5,-.9c-.7,0,-1.3,.6,-1.3,1.5c0,.5,.3,.9,.9,.9Z" class="g0_293"/>
<path d="M414.3,257l-.1,.2c1.9,1.6,2.5,3.3,2.5,6.6c0,3.2,-.5,5,-2.5,6.6l.2,.2c2,-1.2,3.6,-4,3.6,-6.8c0,-3,-1.5,-5.4,-3.7,-6.8Z" class="g0_293"/>
<path d="M432,262c0,.3,0,.4,-.1,.6c-.1,.3,-.2,.7,-.4,1.2l-.9,2.1L429,261.3h-.3l-1.8,4.5l-1,-3c0,-.2,0,-.3,-.1,-.4c0,-.1,0,-.2,0,-.3c0,-.4,.4,-.6,.9,-.6v-.2h-3.2v.2c.4,0,.6,.2,.8,.3c.2,.2,.3,.5,.4,.9l1.5,5h.3l1.9,-4.8v.1l1.6,4.7h.2l1.9,-4.6c.2,-.5,.3,-.9,.6,-1.2c.1,-.2,.5,-.4,.7,-.4v-.2H431v.2c.5,0,1,.1,1,.5Z" class="g0_293"/>
<path d="M436.1,266v-2.5c0,-.4,0,-.6,.2,-.9c.3,-.4,.9,-1.1,1.8,-1.1c1.1,0,1.3,1.3,1.3,2.8v1.8c0,.3,0,.5,0,.7c-.1,.6,-.4,.6,-1,.7v.1h3.2v-.1c-.3,-.1,-.4,-.1,-.6,-.1c-.5,-.2,-.4,-.8,-.4,-1.4v-2.2c0,-.9,-.1,-1.5,-.4,-1.9c-.4,-.4,-1,-.7,-1.7,-.7c-1.1,0,-1.9,.5,-2.4,1.2H436v-5.7l-2.2,.5v.2c.4,0,.8,.2,.9,.4c.1,.1,.1,.2,.1,.2c.1,.2,.1,.4,.1,.7c0,.3,0,.7,0,1.1v6.3c0,.4,0,.8,-.2,1.1c-.1,.2,-.4,.2,-.8,.3v.1h3.2v-.1c-.3,-.1,-.4,-.1,-.6,-.1c-.5,-.2,-.4,-.7,-.4,-1.4Z" class="g0_293"/>
<path d="M446.8,263q0,.1,0,.2c0,.2,-.4,.1,-.7,.1h-2.2c.2,-1,.6,-1.9,1.7,-1.9c1,0,1.2,.8,1.2,1.6Zm-.9,4.4c-1.4,0,-2.1,-1.5,-2.1,-3c0,-.2,0,-.6,.1,-.8h3.9c.3,0,.4,0,.4,-.2c0,-1.6,-.9,-2.2,-2.5,-2.2c-.5,0,-.9,0,-1.3,.2c-1.1,.5,-2,1.5,-2,3.1c0,1.9,1.2,3.3,3.2,3.2c1.3,0,1.7,-.4,2.5,-1.2l-.1,-.1c-.5,.5,-1.2,1,-2.1,1Z" class="g0_293"/>
<path d="M454.4,261.8c0,-.4,-.4,-.7,-.8,-.7c-.2,0,-.4,.1,-.6,.2c-.7,.2,-1.2,.8,-1.5,1.5h-.1l-.1,-1.5l-2.1,.4v.2c.2,0,.5,.2,.6,.3c.3,.2,.4,.5,.4,.9c0,.3,0,.8,0,1.3v1.7c0,.3,0,.5,0,.7c-.1,.6,-.4,.6,-1,.7v.1h3.2v-.1c-.3,-.1,-.4,0,-.6,-.1c-.4,-.3,-.4,-.7,-.4,-1.4v-1c0,-1.1,.2,-2.1,.6,-2.7c.3,-.2,.5,-.4,.7,-.4c.6,0,.6,.5,1,.5c.4,.1,.7,-.2,.7,-.6Z" class="g0_293"/>
<path d="M459.4,263q0,.1,-.1,.2c0,.2,-.4,.1,-.7,.1h-2.2c.2,-1,.7,-1.9,1.7,-1.9c1,0,1.3,.8,1.3,1.6Zm-1,4.4c-1.4,0,-2.1,-1.5,-2.1,-3c0,-.2,0,-.6,.1,-.8h3.9c.3,0,.4,0,.4,-.2c0,-1.6,-.9,-2.2,-2.5,-2.2c-.4,0,-.9,0,-1.3,.2c-1.1,.5,-2,1.5,-2,3.1c0,1.9,1.3,3.3,3.2,3.2c1.4,0,1.7,-.4,2.5,-1.2l-.1,-.1c-.5,.5,-1.2,1,-2.1,1Z" class="g0_293"/>
<path d="M470.3,257c-2.2,1.4,-3.7,3.8,-3.7,6.8c0,2.8,1.6,5.6,3.6,6.8l.2,-.2c-2,-1.6,-2.5,-3.4,-2.5,-6.6c0,-3.3,.6,-5,2.5,-6.6l-.1,-.2Z" class="g0_293"/>
<path d="M478.6,262.1c0,-.5,-.4,-1,-1,-1c-.3,0,-.6,.2,-.9,.4c-.3,.2,-.6,.5,-.9,.9c0,-.7,-.4,-1.3,-1,-1.3c-1.2,0,-2.1,1.2,-2.5,2l.3,.1c.3,-.5,1,-1.7,1.9,-1.7c.3,0,.4,.6,.4,1c0,.3,0,.7,-.2,1.2l-.3,1.1c-.2,.6,-.4,1.4,-.8,1.8c-.1,.3,-.4,.7,-.7,.7c-.5,0,-.8,-.1,-.7,-.5c.1,-.3,.1,-.7,-.4,-.7c-.4,0,-.6,.3,-.6,.7c0,.6,.5,.9,1.1,.9c1,0,1.7,-.7,2.1,-1.4c.1,.8,.5,1.4,1.3,1.4c1.2,0,2.1,-1.1,2.5,-1.8l-.2,-.2c-.5,.7,-1.2,1.7,-2,1.7c-.4,0,-.6,-.6,-.6,-1.2c0,-.4,0,-.8,.2,-1.4l.1,-.7c.1,-.6,.4,-1.2,.7,-1.6c.1,-.3,.5,-.9,.9,-.9c.4,0,.4,.2,.4,.6c-.1,.4,.1,.5,.4,.5c.4,0,.5,-.2,.5,-.6Z" class="g0_293"/>
<path d="M480.8,266.8c0,.5,.3,.8,.7,.8c.2,0,.3,0,.4,-.1c0,.4,0,.8,-.3,1.1c-.2,.3,-.5,.6,-1,.9l.3,.5c.4,-.3,.6,-.5,.9,-.7c.5,-.5,.9,-1,.9,-2c0,-.8,-.3,-1.3,-.9,-1.3c-.6,0,-1,.3,-1,.8Z" class="g0_293"/>
<path d="M486.3,269.8c0,.6,.4,.9,1.1,.9c.4,0,.8,-.1,1.3,-.5c.8,-.7,2,-2.3,2.8,-3.5c.3,-.6,.7,-1.2,1,-1.8c.4,-.7,1.1,-2.1,1.1,-2.9c0,-.2,0,-.4,-.1,-.6c-.1,-.2,-.3,-.3,-.5,-.3c-.2,0,-.3,.1,-.4,.3c-.2,.1,-.2,.3,-.2,.6c0,.4,.2,.9,.2,1.3c0,.6,-.2,1.1,-.5,1.6c-.2,.5,-.4,.9,-.8,1.4h-.1l-.3,-1.9c-.1,-.5,-.3,-1.6,-.4,-2c-.2,-.7,-.3,-1.3,-1.3,-1.3c-1.2,0,-1.4,1.8,-1.6,2.6l.3,.1c.1,-.6,.5,-2.3,1,-2.3c.3,0,.5,1,.5,1.3c.1,.3,.2,.7,.3,1.3l.6,3.5c-.3,.8,-1.2,1.7,-1.8,2.2c-.2,.2,-.5,.2,-.7,.2c-.1,0,-.2,0,-.2,-.1c-.2,-.3,-.2,-.8,-.7,-.8c-.4,0,-.6,.3,-.6,.7Z" class="g0_293"/>
<path d="M495.9,266.8c0,.5,.2,.8,.7,.8c.1,0,.3,0,.4,-.1c0,.4,-.1,.8,-.3,1.1c-.2,.3,-.6,.6,-1.1,.9l.3,.5c.4,-.3,.7,-.5,.9,-.7c.5,-.5,.9,-1,.9,-2c0,-.8,-.3,-1.3,-.9,-1.3c-.5,0,-.9,.3,-.9,.8Z" class="g0_293"/>
<path d="M504.1,263.5c.3,0,.5,-.1,.5,-.4c0,-.5,-.6,-.4,-.7,-.8c-.1,-.2,.1,-.3,.3,-.3c.9,0,1.4,1,2.6,1l-3.4,3.1c-.3,.4,-.7,.8,-.7,1.2c0,.2,.2,.3,.3,.3c.7,0,.2,-.8,.9,-.8c1,0,1.5,.9,2.6,.9c1.2,0,1.6,-1.1,1.8,-2.1H508c-.2,.5,-.5,1.1,-1.2,1.1c-.9,0,-1.7,-.8,-2.6,-.8c1.4,-1.3,2.5,-2.3,3.8,-3.6c.2,-.2,.4,-.4,.4,-.7c0,-.2,-.1,-.3,-.2,-.3c-.3,0,-.4,.2,-.5,.4c-.1,.2,-.4,.3,-.7,.3c-.8,0,-1.4,-.9,-2.5,-.9c-.7,0,-1.3,.6,-1.3,1.5c0,.5,.4,.9,.9,.9Z" class="g0_293"/>
<path d="M509.9,257l-.2,.2c2,1.6,2.6,3.3,2.6,6.6c0,3.2,-.6,5,-2.6,6.6l.2,.2c2.1,-1.2,3.7,-4,3.7,-6.8c0,-3,-1.6,-5.4,-3.7,-6.8Z" class="g0_293"/>
<path d="M527.7,265.7v-.8h-3.8l.9,-2.2h2.9v-.8h-2.6l1.1,-2.7h-.9l-1.1,2.7h-4.1v.8h3.8l-.9,2.2h-2.9v.8h2.6l-1.1,2.7h.9l1.1,-2.7h4.1Z" class="g0_293"/>
<path d="M537.9,257c-2.1,1.4,-3.6,3.8,-3.6,6.8c0,2.8,1.5,5.6,3.6,6.8l.2,-.2c-2,-1.6,-2.6,-3.4,-2.6,-6.6c0,-3.3,.6,-5,2.6,-6.6l-.2,-.2Z" class="g0_293"/>
<path d="M546.3,262.1c0,-.5,-.4,-1,-1,-1c-.3,0,-.6,.2,-.9,.4c-.4,.2,-.7,.5,-.9,.9c0,-.7,-.4,-1.3,-1,-1.3c-1.2,0,-2.1,1.2,-2.5,2l.2,.1c.4,-.5,1.1,-1.7,2,-1.7c.3,0,.4,.6,.4,1c0,.3,-.1,.7,-.2,1.2l-.4,1.1c-.1,.6,-.4,1.4,-.7,1.8c-.1,.3,-.4,.7,-.8,.7c-.4,0,-.7,-.1,-.6,-.5c.1,-.3,0,-.7,-.4,-.7c-.4,0,-.6,.3,-.6,.7c0,.6,.4,.9,1,.9c1,0,1.8,-.7,2.2,-1.4c.1,.8,.5,1.4,1.3,1.4c1.2,0,2,-1.1,2.5,-1.8l-.2,-.2c-.5,.7,-1.2,1.7,-2,1.7c-.4,0,-.6,-.6,-.6,-1.2c0,-.4,0,-.8,.1,-1.4l.2,-.7c.1,-.6,.4,-1.2,.6,-1.6c.2,-.3,.6,-.9,1,-.9c.4,0,.4,.2,.3,.6c0,.4,.2,.5,.5,.5c.4,0,.5,-.2,.5,-.6Z" class="g0_293"/>
<path d="M549.4,263.2c0,-.3,-.2,-.6,-.5,-.6c-.3,0,-.6,.3,-.6,.6c0,.3,.3,.5,.6,.5c.2,0,.5,-.3,.5,-.5Zm-2,6.8c.9,-.1,1.5,-.9,1.7,-1.5l-.2,-.1c-.1,.3,-.5,1.1,-1,1.1c-.1,0,-.2,-.2,-.2,-.3c0,-.2,.1,-.6,.2,-.8l.7,-2c.1,-.4,.2,-.5,.2,-.7c0,-.3,-.1,-.6,-.4,-.6c-.7,0,-1.5,.9,-1.7,1.4l.2,.1c.1,-.2,.5,-.8,.8,-.8c.1,0,.2,.1,.2,.2c0,.2,-.1,.5,-.2,.7l-.7,2c-.1,.3,-.1,.5,-.1,.7c0,.4,.1,.6,.5,.6Z" class="g0_293"/>
<path d="M552.4,266.8c0,.5,.3,.8,.7,.8c.2,0,.3,0,.4,-.1c0,.4,0,.8,-.2,1.1c-.3,.3,-.6,.6,-1.1,.9l.3,.5c.4,-.3,.6,-.5,.9,-.7c.5,-.5,.9,-1,.9,-2c0,-.8,-.3,-1.3,-.9,-1.3c-.6,0,-1,.3,-1,.8Z" class="g0_293"/>
<path d="M557.9,269.8c0,.6,.4,.9,1.1,.9c.4,0,.8,-.1,1.3,-.5c.8,-.7,2,-2.3,2.8,-3.5c.3,-.6,.7,-1.2,1,-1.8c.4,-.7,1.1,-2.1,1.1,-2.9c0,-.2,0,-.4,-.1,-.6c-.1,-.2,-.3,-.3,-.5,-.3c-.2,0,-.3,.1,-.4,.3c-.2,.1,-.2,.3,-.2,.6c0,.4,.2,.9,.2,1.3c0,.6,-.2,1.1,-.5,1.6c-.2,.5,-.4,.9,-.8,1.4h-.1l-.3,-1.9c-.1,-.5,-.3,-1.6,-.4,-2c-.2,-.7,-.3,-1.3,-1.3,-1.3c-1.2,0,-1.4,1.8,-1.6,2.6l.3,.1c.1,-.6,.5,-2.3,1,-2.3c.3,0,.5,1,.5,1.3c.1,.3,.2,.7,.3,1.3l.6,3.5c-.3,.8,-1.2,1.7,-1.8,2.2c-.2,.2,-.5,.2,-.7,.2c-.1,0,-.2,0,-.2,-.1c-.2,-.3,-.2,-.8,-.7,-.8c-.4,0,-.6,.3,-.6,.7Z" class="g0_293"/>
<path d="M568.4,263.2c0,-.3,-.3,-.6,-.6,-.6c-.3,0,-.5,.3,-.5,.6c0,.3,.3,.5,.5,.5c.3,0,.6,-.3,.6,-.5Zm-2.1,6.8c1,-.1,1.5,-.9,1.8,-1.5l-.2,-.1c-.2,.3,-.6,1.1,-1,1.1c-.1,0,-.2,-.2,-.2,-.3c0,-.2,.1,-.6,.2,-.8l.7,-2c.1,-.4,.1,-.5,.1,-.7c0,-.3,0,-.6,-.3,-.6c-.7,0,-1.5,.9,-1.8,1.4l.2,.1c.2,-.2,.6,-.8,.8,-.8c.2,0,.2,.1,.2,.2c.1,.2,0,.5,-.1,.7l-.7,2c-.1,.3,-.2,.5,-.2,.7c0,.4,.2,.6,.5,.6Z" class="g0_293"/>
<path d="M571.4,266.8c0,.5,.3,.8,.7,.8c.2,0,.3,0,.4,-.1c0,.4,-.1,.8,-.3,1.1c-.2,.3,-.6,.6,-1,.9l.3,.5c.3,-.3,.6,-.5,.8,-.7c.5,-.5,1,-1,1,-2c0,-.8,-.3,-1.3,-1,-1.3c-.5,0,-.9,.3,-.9,.8Z" class="g0_293"/>
<path d="M579.6,263.5c.4,0,.5,-.1,.5,-.4c0,-.5,-.5,-.4,-.7,-.8c-.1,-.2,.1,-.3,.4,-.3c.9,0,1.4,1,2.6,1l-3.4,3.1c-.4,.4,-.7,.8,-.7,1.2c0,.2,.1,.3,.2,.3c.7,0,.3,-.8,1,-.8c.9,0,1.4,.9,2.5,.9c1.2,0,1.6,-1.1,1.8,-2.1h-.2c-.3,.5,-.6,1.1,-1.2,1.1c-.9,0,-1.7,-.8,-2.6,-.8c1.3,-1.3,2.5,-2.3,3.8,-3.6c.1,-.2,.3,-.4,.3,-.7c0,-.2,0,-.3,-.2,-.3c-.3,0,-.4,.2,-.5,.4c-.1,.2,-.3,.3,-.6,.3c-.9,0,-1.5,-.9,-2.5,-.9c-.7,0,-1.4,.6,-1.4,1.5c0,.5,.4,.9,.9,.9Z" class="g0_293"/>
<path d="M587.4,263.2c0,-.3,-.3,-.6,-.6,-.6c-.3,0,-.5,.3,-.5,.6c0,.3,.3,.5,.5,.5c.3,0,.6,-.3,.6,-.5Zm-2.1,6.8c1,-.1,1.5,-.9,1.8,-1.5l-.2,-.1c-.2,.3,-.6,1.1,-1,1.1c-.1,0,-.2,-.2,-.2,-.3c0,-.2,.1,-.6,.2,-.8l.7,-2c.1,-.4,.1,-.5,.1,-.7c0,-.3,0,-.6,-.3,-.6c-.7,0,-1.5,.9,-1.8,1.4l.2,.1c.2,-.2,.6,-.8,.8,-.8c.2,0,.3,.1,.3,.2c0,.2,-.1,.5,-.2,.7l-.7,2c-.1,.3,-.2,.5,-.2,.7c0,.4,.2,.6,.5,.6Z" class="g0_293"/>
<path d="M589.5,257l-.1,.2c1.9,1.6,2.5,3.3,2.5,6.6c0,3.2,-.6,5,-2.5,6.6l.1,.2c2.1,-1.2,3.7,-4,3.7,-6.8c0,-3,-1.6,-5.4,-3.7,-6.8Z" class="g0_293"/>
<path d="M600.7,263.4c.4,0,.8,-.3,.9,-.7v-.3c-.1,-.5,-.5,-.8,-.9,-.8c-.5,0,-.9,.4,-.9,.9c0,.5,.4,.9,.9,.9Zm.9,3.6v-.2c-.1,-.5,-.5,-.8,-.9,-.8c-.5,0,-.9,.4,-.9,.9c0,.5,.4,.9,.9,.9c.4,0,.8,-.4,.9,-.8Z" class="g0_293"/>
<path d="M294.6,304.2v.2h4.7v-.2c-.6,0,-1,-.2,-1.2,-.3c-.2,-.2,-.4,-.4,-.4,-.8c0,-.2,.1,-.4,.1,-.7l.9,-3.3h1.1c1,0,1.1,1.2,1,2.2h.3l.9,-4.2h-.3c-.4,.8,-.8,1.6,-2,1.6h-.9l1.1,-4.3h1.8c.3,0,.5,0,.7,.1c.9,.3,1.5,1.2,1.7,2.3h.3v-2.7h-7.3l-.1,.2c.5,0,.8,.1,1,.2c.2,.2,.3,.4,.3,.7c0,.1,0,.2,0,.4c-.1,.2,-.1,.4,-.2,.6l-1.6,6.2c-.1,.3,-.2,.6,-.3,.8c-.1,.4,-.4,.7,-.8,.8c-.1,.1,-.5,.2,-.8,.2Z" class="g0_293"/>
<path d="M310.5,293.7c-2.2,1.4,-3.7,3.8,-3.7,6.9c0,2.7,1.6,5.5,3.6,6.8l.2,-.3c-2,-1.5,-2.5,-3.3,-2.5,-6.6c0,-3.3,.6,-5,2.5,-6.5l-.1,-.3Z" class="g0_293"/>
<path d="M318.8,298.9c0,-.6,-.4,-1,-1,-1c-.3,0,-.6,.1,-.9,.3c-.3,.3,-.6,.6,-.9,.9c0,-.6,-.4,-1.2,-1,-1.2c-1.1,0,-2.1,1.2,-2.4,2l.2,.1c.3,-.5,1,-1.7,1.9,-1.7c.3,0,.4,.5,.4,1c0,.3,0,.6,-.2,1.1l-.3,1.2c-.2,.6,-.4,1.4,-.7,1.8c-.2,.2,-.5,.6,-.8,.6c-.5,0,-.8,0,-.7,-.5c.1,-.3,.1,-.7,-.4,-.7c-.4,0,-.6,.3,-.6,.8c0,.5,.5,.9,1.1,.9c1,0,1.7,-.8,2.1,-1.4c.1,.8,.5,1.4,1.4,1.4c1.1,0,2,-1.1,2.4,-1.8l-.2,-.2c-.5,.6,-1.2,1.6,-2,1.6c-.4,0,-.6,-.6,-.6,-1.2c0,-.3,0,-.8,.2,-1.3l.2,-.7c.1,-.6,.3,-1.3,.6,-1.7c.2,-.2,.5,-.9,.9,-.9c.4,0,.4,.3,.4,.6c-.1,.4,.1,.6,.4,.6c.4,0,.5,-.3,.5,-.6Z" class="g0_293"/>
<path d="M321.1,303.6c0,.4,.2,.8,.7,.8c.1,0,.2,0,.4,-.1c0,.4,-.1,.7,-.3,1c-.2,.3,-.6,.7,-1.1,1l.3,.4c.4,-.2,.7,-.4,.9,-.7c.5,-.4,.9,-.9,.9,-1.9c0,-.9,-.3,-1.3,-.9,-1.3c-.6,0,-.9,.3,-.9,.8Z" class="g0_293"/>
<path d="M326.5,306.6c0,.5,.4,.9,1.1,.9c.4,0,.8,-.2,1.3,-.6c.8,-.7,2,-2.2,2.8,-3.4c.3,-.6,.7,-1.2,1,-1.8c.4,-.8,1.1,-2.1,1.1,-2.9c0,-.3,0,-.5,-.1,-.6c-.1,-.2,-.3,-.3,-.5,-.3c-.1,0,-.3,.1,-.4,.2c-.2,.1,-.2,.4,-.2,.6c0,.5,.2,1,.2,1.4c0,.6,-.2,1.1,-.5,1.6c-.2,.5,-.4,.8,-.8,1.4h-.1l-.3,-1.9c-.1,-.6,-.3,-1.7,-.4,-2.1c-.2,-.7,-.3,-1.2,-1.3,-1.2c-1.2,0,-1.4,1.8,-1.6,2.5l.3,.2c.1,-.6,.5,-2.4,1,-2.4c.3,0,.5,1.1,.6,1.3c0,.3,.1,.7,.2,1.4l.6,3.5c-.3,.8,-1.2,1.6,-1.8,2.1c-.2,.2,-.5,.3,-.7,.3c-.1,0,-.2,-.1,-.2,-.2c-.2,-.2,-.2,-.7,-.7,-.7c-.4,0,-.6,.3,-.6,.7Z" class="g0_293"/>
<path d="M336.1,303.6c0,.4,.3,.8,.7,.8c.1,0,.3,0,.4,-.1c0,.4,-.1,.7,-.3,1c-.2,.3,-.6,.7,-1.1,1l.4,.4c.3,-.2,.6,-.4,.8,-.7c.5,-.4,1,-.9,1,-1.9c0,-.9,-.4,-1.3,-1,-1.3c-.5,0,-.9,.3,-.9,.8Z" class="g0_293"/>
<path d="M344.3,300.2c.3,0,.5,-.1,.5,-.4c0,-.4,-.5,-.3,-.7,-.7c-.1,-.2,.1,-.4,.3,-.4c.9,0,1.4,1,2.7,1l-3.5,3.2c-.3,.3,-.7,.8,-.7,1.1c0,.3,.2,.4,.3,.4c.7,0,.2,-.8,.9,-.8c1,0,1.5,.9,2.6,.9c1.2,0,1.6,-1.2,1.8,-2.2h-.3c-.2,.6,-.5,1.2,-1.1,1.2c-1,0,-1.8,-.8,-2.7,-.8c1.4,-1.3,2.5,-2.4,3.8,-3.7c.2,-.2,.4,-.3,.4,-.6c0,-.3,-.1,-.4,-.2,-.4c-.3,0,-.4,.2,-.5,.4c-.1,.2,-.3,.4,-.6,.4c-.9,0,-1.5,-.9,-2.6,-.9c-.6,0,-1.3,.5,-1.3,1.4c0,.6,.4,.9,.9,.9Z" class="g0_293"/>
<path d="M350.1,293.7l-.1,.3c1.9,1.5,2.5,3.2,2.5,6.5c0,3.3,-.6,5.1,-2.5,6.6l.1,.3c2.1,-1.3,3.7,-4.1,3.7,-6.8c0,-3.1,-1.6,-5.5,-3.7,-6.9Z" class="g0_293"/>
<path d="M360,302.5h7.6v-.8H360Zm0,-3h7.6v-.9H360Z" class="g0_293"/>
<path d="M384.9,291.5h-.3c-.3,1.8,-1,2.7,-2,2.7h-5.8l4.3,-5.6l-3.8,-5.7H382c1.1,0,1.8,.6,2.1,2.5h.3l-.1,-3h-8.9l4.6,6.5l-5.2,6.5h10l.1,-3.9Z" class="g0_293"/>
<path d="M391.9,286.6h.3l1.6,-6c0,-.2,.1,-.3,.2,-.5c.1,-.2,.3,-.7,.6,-.8c.1,-.1,.3,-.1,.5,-.1V279h-2.3v.2c.2,0,.4,.1,.6,.2c.1,.2,.2,.6,.2,.9c0,.1,-.1,.2,-.1,.4l-1,3.9l-.1,.2L389.9,279H388l-.1,.2c.4,0,.6,0,.7,.2c.3,.2,.4,.7,.4,1c0,.1,0,.2,0,.3l-1.2,4.4c-.1,.3,-.3,.7,-.6,.9c-.2,.3,-.6,.4,-.9,.4l-.1,.2H389l.1,-.2c-.3,0,-.6,0,-.8,-.2c-.1,-.2,-.3,-.5,-.3,-.8c0,-.1,0,-.2,.1,-.4l1.1,-4.3l.1,-.3l2.6,6.2Z" class="g0_293"/>
<path d="M389.2,290.8c0,-.3,-.3,-.5,-.6,-.5c-.3,0,-.5,.2,-.5,.5c0,.3,.3,.6,.5,.6c.3,0,.6,-.3,.6,-.6Zm-2.1,6.8c1,0,1.5,-.8,1.8,-1.4l-.2,-.1c-.2,.2,-.6,1,-1,1c-.1,0,-.2,-.1,-.2,-.2c0,-.3,.1,-.7,.2,-.8l.7,-2.1c.1,-.3,.1,-.4,.1,-.6c0,-.3,0,-.6,-.3,-.6c-.7,0,-1.5,.8,-1.8,1.3l.2,.2c.2,-.3,.6,-.9,.8,-.9c.2,0,.3,.2,.3,.3c0,.2,-.1,.5,-.2,.7l-.7,2c-.1,.3,-.2,.5,-.2,.6c0,.4,.2,.6,.5,.6Z" class="g0_293"/>
<path d="M390.4,296.2H396v-.7h-5.6Zm0,-2.2H396v-.7h-5.6Z" class="g0_293"/>
<path d="M399.5,297.4c-1.4,0,-1.4,-2,-1.4,-3.5c0,-1.7,0,-3.8,1.4,-3.8c1.4,0,1.4,2.1,1.4,3.8c0,1.5,0,3.5,-1.4,3.5Zm0,-7.5c-1.9,0,-2.5,2,-2.5,3.9c0,1.9,.6,3.8,2.5,3.8c1.8,0,2.4,-1.9,2.4,-3.8c0,-1.9,-.5,-3.9,-2.4,-3.9Z" class="g0_293"/>
<path d="M407.7,290.7c0,-1.6,.6,-2.7,1.3,-3.6c.1,-.2,.5,-.5,.5,-.6c0,-.1,-.1,-.2,-.2,-.2c-.1,0,-.2,.1,-.2,.1c-.1,.1,-.2,.2,-.4,.3c-.1,.1,-.2,.2,-.4,.2c-.3,0,-.4,-.1,-.6,-.2c-.2,-.3,-.4,-.4,-.7,-.4c-.6,0,-1.3,.6,-1.3,1.1c0,.5,.3,.6,.6,.6c.2,0,.4,-.2,.4,-.5c0,-.2,-.2,-.2,-.2,-.4c0,-.1,0,-.2,.2,-.2c.4,0,.6,.5,.8,.5c.2,.1,.3,.1,.6,0l.1,-.1c-.4,.7,-1,1.7,-1.3,2.3c-.2,.6,-.4,1.2,-.4,1.6c0,.3,.1,.5,.1,.7c.3,.5,.7,1,1.4,1c1.9,0,2.7,-1.7,3.3,-2.9c.3,-.7,.6,-1.6,.6,-2.5c0,-.7,-.1,-1.2,-.7,-1.2c-.5,0,-.7,.3,-.7,.7c0,.6,.3,.9,.3,1.5c0,1.4,-.9,4,-2.3,4.1c-.8,0,-.8,-1.2,-.8,-1.9Z" class="g0_293"/>
<path d="M415.1,288.3c0,-.3,-.3,-.5,-.6,-.5c-.3,0,-.5,.2,-.5,.5c0,.3,.2,.6,.5,.6c.3,0,.6,-.3,.6,-.6Zm-2.1,6.8c1,0,1.5,-.8,1.8,-1.4l-.2,-.1c-.2,.2,-.6,1.1,-1,1.1c-.1,0,-.3,-.2,-.3,-.3c0,-.2,.2,-.7,.2,-.8l.8,-2.1c.1,-.3,.1,-.4,.1,-.6c0,-.3,0,-.6,-.4,-.6c-.6,0,-1.5,.8,-1.7,1.4l.2,.1c.2,-.2,.6,-.8,.8,-.8c.2,0,.2,.1,.2,.2c.1,.2,0,.5,-.1,.7l-.7,2c-.1,.3,-.2,.5,-.2,.7c0,.3,.2,.5,.5,.5Z" class="g0_293"/>
<path d="M418.5,289.7c.1,-.6,.7,-1.7,1,-2.1c.3,-.4,.8,-1,1.3,-1c.6,0,.6,.5,.6,.8c-.1,1.1,-2,2,-2.9,2.3Zm2.4,-3.4c-.6,0,-1.3,.5,-1.7,1.2h-.1l1.5,-5.6l-2.3,.1l-.1,.2c.6,0,1.1,.1,1.1,.6c0,0,0,.2,-.1,.4l-2.6,9.6h1l.7,-2.6l.4,-.1l.8,1.9c.2,.3,.3,.6,.4,.7c.2,.2,.3,.2,.5,.2c1,0,1.3,-.6,1.8,-1.8l-.3,-.1c-.3,.6,-.5,1.2,-.9,1.2c-.2,0,-.5,-.6,-.6,-1l-.7,-1.6l.3,-.2c.7,-.3,1.3,-.6,1.7,-1c.4,-.3,.6,-.7,.6,-1.1c0,-.7,-.5,-1,-1.4,-1Z" class="g0_293"/>
<path d="M425.8,288.3c0,-.3,-.3,-.5,-.6,-.5c-.3,0,-.5,.2,-.5,.5c0,.3,.2,.6,.5,.6c.3,0,.6,-.3,.6,-.6Zm-2.1,6.8c1,0,1.5,-.8,1.8,-1.4l-.2,-.1c-.2,.2,-.6,1.1,-1,1.1c-.1,0,-.3,-.2,-.3,-.3c0,-.2,.2,-.7,.2,-.8l.8,-2.1c.1,-.3,.1,-.4,.1,-.6c0,-.3,0,-.6,-.4,-.6c-.6,0,-1.5,.8,-1.7,1.4l.2,.1c.2,-.2,.6,-.8,.8,-.8c.2,0,.2,.1,.2,.2c.1,.2,0,.5,-.1,.7l-.7,2c-.1,.3,-.2,.5,-.2,.7c0,.3,.2,.5,.5,.5Z" class="g0_293"/>
<path d="M432.4,282.1c-2.1,1.4,-3.6,3.9,-3.6,6.9c0,2.8,1.5,5.5,3.6,6.8l.2,-.2c-2,-1.6,-2.6,-3.4,-2.6,-6.7c0,-3.3,.7,-5,2.6,-6.5l-.2,-.3Z" class="g0_293"/>
<path d="M440.8,287.3c0,-.6,-.4,-1,-1,-1c-.3,0,-.6,.2,-.9,.4c-.4,.2,-.7,.5,-.9,.9c0,-.7,-.4,-1.3,-1,-1.3c-1.2,0,-2.1,1.2,-2.5,2l.2,.1c.4,-.5,1.1,-1.7,2,-1.7c.3,0,.4,.5,.4,1c0,.3,-.1,.6,-.2,1.1l-.4,1.2c-.1,.6,-.4,1.4,-.7,1.8c-.1,.2,-.4,.7,-.8,.7c-.4,0,-.7,-.1,-.6,-.5c.1,-.3,0,-.8,-.4,-.8c-.4,0,-.6,.3,-.6,.8c0,.6,.5,.9,1,.9c1,0,1.8,-.7,2.2,-1.4c.1,.8,.5,1.4,1.3,1.4c1.2,0,2,-1.1,2.5,-1.8l-.2,-.2c-.5,.7,-1.2,1.7,-2,1.7c-.4,0,-.6,-.6,-.6,-1.3c0,-.3,0,-.7,.1,-1.3l.2,-.7c.1,-.6,.4,-1.2,.6,-1.6c.2,-.3,.6,-1,1,-1c.4,0,.4,.3,.3,.6c0,.4,.2,.6,.5,.6c.4,0,.5,-.3,.5,-.6Z" class="g0_293"/>
<path d="M443,292c0,.4,.3,.8,.7,.8c.2,0,.3,0,.4,-.1c0,.4,-.1,.7,-.3,1c-.2,.4,-.5,.7,-1,1l.3,.5c.3,-.3,.6,-.5,.8,-.7c.6,-.5,1,-1,1,-2c0,-.9,-.3,-1.3,-1,-1.3c-.5,0,-.9,.3,-.9,.8Z" class="g0_293"/>
<path d="M448.4,295c0,.6,.5,.9,1.1,.9c.5,0,.8,-.2,1.3,-.6c.9,-.6,2.1,-2.2,2.8,-3.4c.4,-.6,.8,-1.2,1.1,-1.8c.4,-.8,1.1,-2.1,1.1,-2.9c0,-.2,-.1,-.4,-.2,-.6c0,-.2,-.2,-.3,-.4,-.3c-.2,0,-.3,.1,-.5,.2c-.1,.2,-.2,.4,-.2,.7c0,.4,.3,.9,.3,1.3c0,.6,-.3,1.1,-.5,1.6c-.2,.5,-.5,.9,-.8,1.4h-.1l-.3,-1.9c-.1,-.6,-.3,-1.6,-.4,-2.1c-.2,-.6,-.4,-1.2,-1.4,-1.2c-1.1,0,-1.3,1.8,-1.6,2.6l.3,.1c.2,-.6,.6,-2.3,1.1,-2.3c.3,0,.5,1,.5,1.2c.1,.3,.2,.7,.3,1.4l.6,3.5c-.4,.8,-1.2,1.7,-1.8,2.2c-.2,.1,-.6,.2,-.7,.2c-.1,0,-.2,0,-.3,-.1c-.2,-.3,-.2,-.8,-.6,-.8c-.4,0,-.7,.3,-.7,.7Z" class="g0_293"/>
<path d="M458.1,292c0,.4,.2,.8,.7,.8c.1,0,.2,0,.4,-.1c0,.4,-.1,.7,-.3,1c-.3,.4,-.6,.7,-1.1,1l.3,.5c.4,-.3,.7,-.5,.9,-.7c.5,-.5,.9,-1,.9,-2c0,-.9,-.3,-1.3,-.9,-1.3c-.6,0,-.9,.3,-.9,.8Z" class="g0_293"/>
<path d="M466.3,288.7c.3,0,.5,-.1,.5,-.4c0,-.5,-.6,-.4,-.7,-.8c-.1,-.2,.1,-.3,.3,-.3c.9,0,1.4,1,2.6,1l-3.4,3.1c-.4,.4,-.7,.8,-.7,1.1c0,.3,.2,.4,.3,.4c.7,0,.2,-.8,.9,-.8c.9,0,1.5,.9,2.6,.9c1.1,0,1.5,-1.2,1.8,-2.1l-.3,-.1c-.2,.6,-.5,1.2,-1.2,1.2c-.9,0,-1.7,-.8,-2.6,-.8c1.4,-1.3,2.5,-2.4,3.8,-3.6c.2,-.2,.4,-.4,.4,-.7c0,-.2,-.1,-.4,-.3,-.4c-.2,0,-.3,.3,-.4,.4c-.1,.2,-.4,.4,-.7,.4c-.8,0,-1.4,-.9,-2.5,-.9c-.7,0,-1.3,.6,-1.3,1.5c0,.5,.3,.9,.9,.9Z" class="g0_293"/>
<path d="M472.1,282.1l-.2,.3c1.9,1.5,2.5,3.2,2.5,6.5c0,3.3,-.5,5.1,-2.5,6.7l.2,.2c2.1,-1.3,3.6,-4,3.6,-6.8c0,-3,-1.5,-5.5,-3.6,-6.9Z" class="g0_293"/>
<path d="M374.1,301H477.2v-.9H374.1Z" class="g0_293"/>
<path d="M390.4,316H390c-.3,1.8,-.9,2.7,-2,2.7h-5.8l4.3,-5.6l-3.8,-5.7h4.7c1.1,0,1.8,.6,2.1,2.5h.3l-.1,-3h-8.9l4.6,6.5l-5.2,6.5h10l.2,-3.9Z" class="g0_293"/>
<path d="M397.4,311.1h.2l1.6,-6c.1,-.2,.1,-.3,.2,-.5c.1,-.2,.4,-.7,.6,-.8c.1,-.1,.3,-.1,.5,-.1v-.2h-2.2l-.1,.2c.2,0,.5,.1,.6,.2c.2,.2,.2,.6,.2,.9c0,.1,0,.2,-.1,.4l-1,3.9v.2l-2.6,-5.8h-1.9l-.1,.2c.5,0,.6,0,.8,.2c.2,.2,.3,.7,.3,1c0,.1,0,.2,0,.3l-1.2,4.4c-.1,.3,-.3,.7,-.5,.9c-.3,.3,-.7,.4,-1,.4l-.1,.2h2.8l.1,-.2c-.3,0,-.6,0,-.8,-.2c-.1,-.2,-.3,-.5,-.3,-.8c0,-.1,0,-.2,.1,-.4l1.1,-4.3l.1,-.2l2.7,6.1Z" class="g0_293"/>
<path d="M394.6,315.3c0,-.3,-.2,-.5,-.5,-.5c-.3,0,-.6,.2,-.6,.5c0,.3,.3,.6,.6,.6c.2,0,.5,-.3,.5,-.6Zm-2,6.8c.9,0,1.4,-.8,1.7,-1.4l-.2,-.1c-.1,.2,-.5,1,-1,1c-.1,0,-.2,-.1,-.2,-.2c0,-.3,.1,-.7,.2,-.8l.7,-2.1c.1,-.3,.1,-.4,.1,-.6c0,-.3,0,-.6,-.3,-.6c-.7,0,-1.5,.8,-1.7,1.4l.2,.1c.1,-.2,.5,-.9,.8,-.9c.1,0,.2,.2,.2,.3c0,.2,-.1,.5,-.2,.7l-.7,2c-.1,.3,-.1,.5,-.1,.6c0,.4,.1,.6,.5,.6Z" class="g0_293"/>
<path d="M395.8,320.7h5.6v-.6h-5.6Zm0,-2.2h5.6v-.7h-5.6Z" class="g0_293"/>
<path d="M404.9,321.9c-1.4,0,-1.4,-1.9,-1.4,-3.5c0,-1.7,0,-3.8,1.4,-3.8c1.4,0,1.4,2.1,1.4,3.8c0,1.6,0,3.5,-1.4,3.5Zm0,-7.5c-1.9,0,-2.5,2,-2.5,3.9c0,1.9,.6,3.8,2.5,3.8c1.9,0,2.4,-1.9,2.4,-3.8c0,-1.9,-.5,-3.9,-2.4,-3.9Z" class="g0_293"/>
<path d="M413.1,314.2c.1,-.6,.6,-1.7,1,-2.1c.3,-.3,.8,-1,1.3,-1c.5,0,.5,.5,.5,.8c0,1.1,-2,2,-2.8,2.3Zm2.4,-3.4c-.6,0,-1.3,.5,-1.8,1.2h-.1l1.6,-5.6l-2.3,.1l-.1,.2c.6,0,1.1,.1,1.1,.6c0,.1,-.1,.2,-.1,.4l-2.6,9.6h1l.7,-2.6l.4,-.1l.8,1.9c.1,.3,.3,.6,.4,.7c.1,.2,.3,.2,.5,.2c.9,0,1.2,-.6,1.8,-1.8l-.3,-.1c-.3,.6,-.5,1.2,-1,1.2c-.1,0,-.4,-.6,-.5,-1l-.7,-1.6l.3,-.1c.7,-.4,1.3,-.7,1.7,-1.1c.3,-.3,.6,-.7,.6,-1.1c0,-.7,-.5,-1,-1.4,-1Z" class="g0_293"/>
<path d="M420.4,312.8c0,-.2,-.3,-.5,-.6,-.5c-.3,0,-.5,.2,-.5,.5c0,.3,.2,.6,.5,.6c.3,0,.6,-.3,.6,-.6Zm-2.1,6.8c1,0,1.5,-.8,1.7,-1.4l-.2,-.1c-.1,.3,-.5,1.1,-.9,1.1c-.2,0,-.3,-.2,-.3,-.3c0,-.2,.2,-.7,.2,-.8l.7,-2.1c.1,-.3,.2,-.4,.2,-.6c0,-.3,0,-.6,-.4,-.6c-.7,0,-1.5,.8,-1.7,1.4l.2,.1c.1,-.2,.5,-.8,.8,-.8c.2,0,.2,.1,.2,.2c0,.2,-.1,.5,-.1,.7l-.8,2c-.1,.3,-.1,.5,-.1,.7c0,.3,.1,.5,.5,.5Z" class="g0_293"/>
<path d="M427,306.7c-2.1,1.4,-3.7,3.8,-3.7,6.8c0,2.8,1.6,5.5,3.7,6.8l.1,-.2c-1.9,-1.6,-2.5,-3.4,-2.5,-6.7c0,-3.3,.6,-5,2.5,-6.5l-.1,-.2Z" class="g0_293"/>
<path d="M435.4,311.8c0,-.6,-.5,-1,-1,-1c-.3,0,-.7,.2,-1,.4c-.3,.2,-.6,.5,-.8,.9c0,-.7,-.4,-1.3,-1.1,-1.3c-1.1,0,-2.1,1.2,-2.4,2l.2,.1c.4,-.5,1.1,-1.7,2,-1.7c.2,0,.4,.6,.4,1c0,.3,-.1,.7,-.2,1.1l-.4,1.2c-.1,.6,-.4,1.4,-.7,1.8c-.2,.3,-.4,.7,-.8,.7c-.4,0,-.7,-.1,-.6,-.5c.1,-.3,0,-.8,-.4,-.8c-.5,0,-.6,.3,-.6,.8c0,.6,.4,.9,1,.9c1,0,1.7,-.7,2.1,-1.4h.1c.1,.8,.5,1.4,1.3,1.4c1.2,0,2,-1.1,2.5,-1.8l-.2,-.2c-.5,.7,-1.2,1.7,-2,1.7c-.4,0,-.7,-.6,-.7,-1.2c0,-.4,.1,-.8,.2,-1.4l.2,-.7c.1,-.6,.4,-1.2,.6,-1.6c.2,-.3,.6,-1,1,-1c.4,0,.3,.3,.3,.6c0,.4,.1,.6,.5,.6c.3,0,.5,-.3,.5,-.6Z" class="g0_293"/>
<path d="M437.6,316.5c0,.4,.3,.8,.7,.8c.1,0,.3,0,.4,-.1c0,.4,-.1,.7,-.3,1c-.2,.4,-.6,.7,-1,1l.3,.5c.3,-.3,.6,-.5,.8,-.7c.5,-.5,1,-1,1,-2c0,-.9,-.4,-1.3,-1,-1.3c-.5,0,-.9,.3,-.9,.8Z" class="g0_293"/>
<path d="M443,319.5c0,.6,.5,.9,1.1,.9c.5,0,.8,-.1,1.3,-.5c.8,-.7,2.1,-2.3,2.8,-3.5c.4,-.6,.8,-1.2,1.1,-1.8c.3,-.8,1.1,-2.1,1.1,-2.9c0,-.2,-.1,-.4,-.2,-.6c-.1,-.2,-.2,-.3,-.4,-.3c-.2,0,-.3,.1,-.5,.2c-.1,.2,-.2,.4,-.2,.7c0,.4,.2,.9,.2,1.3c0,.6,-.2,1.1,-.4,1.6c-.3,.5,-.5,.9,-.8,1.4H448l-.3,-1.9c-.2,-.6,-.4,-1.6,-.5,-2.1c-.2,-.6,-.3,-1.2,-1.3,-1.2c-1.1,0,-1.3,1.8,-1.6,2.6l.3,.1c.1,-.6,.6,-2.3,1.1,-2.3c.3,0,.4,1,.5,1.2c.1,.3,.2,.7,.3,1.4l.6,3.5c-.4,.8,-1.2,1.7,-1.8,2.2c-.2,.1,-.6,.2,-.7,.2c-.1,0,-.2,0,-.3,-.1c-.2,-.3,-.2,-.8,-.7,-.8c-.4,0,-.6,.3,-.6,.7Z" class="g0_293"/>
<path d="M452.6,316.5c0,.4,.3,.8,.7,.8c.2,0,.3,0,.4,-.1c0,.4,-.1,.7,-.3,1c-.2,.4,-.5,.7,-1,1l.3,.5c.3,-.3,.6,-.5,.8,-.7c.6,-.5,1,-1,1,-2c0,-.9,-.3,-1.3,-1,-1.3c-.5,0,-.9,.3,-.9,.8Z" class="g0_293"/>
<path d="M460.9,313.2c.3,0,.4,-.1,.4,-.4c0,-.5,-.5,-.4,-.7,-.8c0,-.2,.1,-.3,.4,-.3c.9,0,1.4,1,2.6,1l-3.4,3.1c-.4,.4,-.7,.8,-.7,1.2c0,.2,.2,.3,.3,.3c.7,0,.2,-.8,.9,-.8c.9,0,1.4,.9,2.5,.9c1.2,0,1.6,-1.2,1.9,-2.1l-.3,-.1c-.2,.6,-.6,1.2,-1.2,1.2c-.9,0,-1.7,-.8,-2.6,-.8c1.3,-1.3,2.5,-2.4,3.8,-3.6c.2,-.2,.4,-.4,.4,-.7c0,-.2,-.1,-.3,-.3,-.3c-.3,0,-.3,.2,-.4,.4c-.2,.1,-.4,.3,-.7,.3c-.8,0,-1.4,-.9,-2.5,-.9c-.7,0,-1.3,.6,-1.3,1.5c0,.5,.3,.9,.9,.9Z" class="g0_293"/>
<path d="M466.6,306.7l-.1,.2c1.9,1.5,2.5,3.2,2.5,6.5c0,3.3,-.5,5.1,-2.5,6.7l.2,.2c2,-1.3,3.6,-4,3.6,-6.8c0,-3,-1.5,-5.4,-3.7,-6.8Z" class="g0_293"/>
<path d="M480.2,303.6c0,.4,.2,.8,.7,.8c.1,0,.3,0,.4,-.1c0,.4,-.1,.7,-.3,1c-.2,.3,-.6,.7,-1.1,1l.4,.4c.3,-.2,.6,-.4,.8,-.7c.5,-.4,1,-1,1,-1.9c0,-.9,-.4,-1.3,-1,-1.3c-.5,0,-.9,.3,-.9,.8Zm.9,-3.5c.4,0,.9,-.4,.9,-.8c0,-.5,-.5,-.9,-.9,-.9c-.5,0,-.9,.4,-.9,.9c0,.5,.4,.8,.9,.8Z" class="g0_293"/>
<path d="M485.5,304.2v.2h4.6l.1,-.2c-.6,0,-1,-.2,-1.2,-.3c-.3,-.2,-.4,-.4,-.4,-.8c0,-.2,0,-.4,.1,-.7l.9,-3.3h1.1c1,0,1,1.2,.9,2.2h.3l1,-4.2h-.3c-.4,.8,-.8,1.6,-2,1.6h-.9l1.1,-4.3h1.8c.2,0,.5,0,.7,.1c.8,.3,1.5,1.2,1.6,2.3h.4v-2.7h-7.4v.2c.5,0,.8,.1,1,.2c.2,.2,.3,.4,.3,.7c0,.1,0,.2,0,.4c-.1,.2,-.1,.4,-.2,.6l-1.6,6.2c-.1,.3,-.2,.6,-.3,.8c-.1,.4,-.5,.7,-.8,.8c-.2,.1,-.5,.2,-.8,.2Z" class="g0_293"/>
<path d="M501.3,293.7c-2.1,1.4,-3.6,3.8,-3.6,6.9c0,2.7,1.5,5.5,3.6,6.8l.2,-.3c-2,-1.5,-2.6,-3.3,-2.6,-6.6c0,-3.3,.7,-5,2.6,-6.5l-.2,-.3Z" class="g0_293"/>
<path d="M509.7,298.9c0,-.6,-.4,-1,-1,-1c-.3,0,-.6,.1,-.9,.3c-.4,.3,-.7,.6,-.9,.9c0,-.6,-.4,-1.2,-1,-1.2c-1.2,0,-2.1,1.2,-2.5,2l.2,.1c.4,-.5,1.1,-1.7,2,-1.7c.3,0,.4,.5,.4,1c0,.3,-.1,.6,-.2,1.1l-.4,1.2c-.1,.6,-.4,1.4,-.7,1.8c-.1,.2,-.4,.6,-.8,.6c-.4,0,-.7,0,-.6,-.5c.1,-.3,0,-.7,-.4,-.7c-.4,0,-.6,.3,-.6,.8c0,.5,.5,.9,1,.9c1,0,1.8,-.8,2.2,-1.4c.1,.8,.5,1.4,1.3,1.4c1.2,0,2,-1.1,2.5,-1.8l-.2,-.2c-.5,.6,-1.2,1.6,-2,1.6c-.4,0,-.6,-.6,-.6,-1.2c0,-.3,0,-.8,.1,-1.3l.2,-.7c.1,-.6,.4,-1.3,.6,-1.7c.2,-.2,.6,-.9,1,-.9c.4,0,.4,.3,.3,.6c0,.4,.2,.6,.5,.6c.4,0,.5,-.3,.5,-.6Z" class="g0_293"/>
<path d="M512.8,299.9c0,-.3,-.2,-.5,-.5,-.5c-.3,0,-.6,.2,-.6,.5c0,.3,.3,.6,.6,.6c.2,0,.5,-.3,.5,-.6Zm-2,6.8c.9,0,1.5,-.8,1.7,-1.4l-.2,-.1c-.1,.2,-.5,1,-1,1c-.1,0,-.2,-.1,-.2,-.3c0,-.2,.1,-.6,.2,-.8l.7,-2c.1,-.3,.2,-.5,.2,-.6c0,-.4,-.1,-.6,-.4,-.6c-.7,0,-1.5,.8,-1.7,1.3l.2,.1c.1,-.2,.5,-.8,.8,-.8c.1,0,.2,.2,.2,.3c0,.1,-.1,.4,-.2,.6l-.7,2.1c-.1,.3,-.1,.5,-.1,.6c0,.4,.1,.6,.5,.6Z" class="g0_293"/>
<path d="M515.8,303.6c0,.4,.3,.8,.7,.8c.2,0,.3,0,.4,-.1c0,.4,0,.7,-.2,1c-.3,.3,-.6,.7,-1.1,1l.3,.4c.4,-.2,.6,-.4,.9,-.7c.5,-.4,.9,-.9,.9,-1.9c0,-.9,-.3,-1.3,-.9,-1.3c-.6,0,-1,.3,-1,.8Z" class="g0_293"/>
<path d="M521.3,306.6c0,.5,.4,.9,1.1,.9c.4,0,.8,-.2,1.3,-.6c.8,-.7,2,-2.2,2.8,-3.4c.3,-.6,.7,-1.2,1,-1.8c.4,-.8,1.1,-2.1,1.1,-2.9c0,-.3,0,-.5,-.1,-.6c-.1,-.2,-.3,-.3,-.5,-.3c-.1,0,-.3,.1,-.4,.2c-.2,.1,-.2,.4,-.2,.6c0,.5,.2,1,.2,1.4c0,.6,-.2,1.1,-.5,1.6c-.2,.5,-.4,.8,-.8,1.4h-.1l-.3,-1.9c-.1,-.6,-.3,-1.7,-.4,-2.1c-.2,-.7,-.3,-1.2,-1.3,-1.2c-1.2,0,-1.4,1.8,-1.6,2.5l.3,.2c.1,-.6,.5,-2.4,1,-2.4c.3,0,.5,1.1,.5,1.3c.1,.3,.2,.7,.3,1.4l.6,3.5c-.3,.8,-1.2,1.6,-1.8,2.1c-.2,.2,-.5,.3,-.7,.3c-.1,0,-.2,-.1,-.2,-.2c-.2,-.2,-.2,-.7,-.7,-.7c-.4,0,-.6,.3,-.6,.7Z" class="g0_293"/>
<path d="M531.8,299.9c0,-.3,-.3,-.5,-.6,-.5c-.3,0,-.5,.2,-.5,.5c0,.3,.3,.6,.5,.6c.3,0,.6,-.3,.6,-.6Zm-2.1,6.8c1,0,1.5,-.8,1.8,-1.4l-.2,-.1c-.2,.2,-.6,1,-1,1c-.1,0,-.2,-.1,-.2,-.3c0,-.2,.1,-.6,.2,-.8l.7,-2c.1,-.3,.1,-.5,.1,-.6c0,-.4,0,-.6,-.3,-.6c-.7,0,-1.5,.8,-1.8,1.3l.2,.1c.2,-.2,.6,-.8,.8,-.8c.2,0,.3,.2,.3,.3c0,.1,-.1,.4,-.2,.6l-.7,2.1c-.1,.3,-.2,.5,-.2,.6c0,.4,.2,.6,.5,.6Z" class="g0_293"/>
<path d="M534.8,303.6c0,.4,.3,.8,.7,.8c.2,0,.3,0,.4,-.1c0,.4,-.1,.7,-.3,1c-.2,.3,-.6,.7,-1,1l.3,.4c.3,-.2,.6,-.4,.8,-.7c.6,-.4,1,-.9,1,-1.9c0,-.9,-.3,-1.3,-1,-1.3c-.5,0,-.9,.3,-.9,.8Z" class="g0_293"/>
<path d="M543.1,300.2c.3,0,.4,-.1,.4,-.4c0,-.4,-.5,-.3,-.7,-.7c-.1,-.2,.1,-.4,.4,-.4c.9,0,1.4,1,2.6,1l-3.4,3.2c-.4,.3,-.7,.8,-.7,1.1c0,.3,.1,.4,.2,.4c.7,0,.3,-.8,1,-.8c.9,0,1.4,.9,2.5,.9c1.2,0,1.6,-1.2,1.8,-2.2H547c-.3,.6,-.6,1.2,-1.2,1.2c-.9,0,-1.7,-.8,-2.6,-.8c1.3,-1.3,2.5,-2.4,3.8,-3.7c.1,-.2,.3,-.3,.3,-.6c0,-.3,0,-.4,-.2,-.4c-.3,0,-.4,.2,-.5,.4c-.1,.2,-.3,.4,-.6,.4c-.9,0,-1.5,-.9,-2.5,-.9c-.7,0,-1.4,.5,-1.4,1.4c0,.6,.4,.9,1,.9Z" class="g0_293"/>
<path d="M550.8,299.9c0,-.3,-.3,-.5,-.6,-.5c-.3,0,-.5,.2,-.5,.5c0,.3,.3,.6,.5,.6c.3,0,.6,-.3,.6,-.6Zm-2.1,6.8c1,0,1.5,-.8,1.8,-1.4l-.2,-.1c-.2,.2,-.6,1,-1,1c-.1,0,-.2,-.1,-.2,-.3c0,-.2,.1,-.6,.2,-.8l.7,-2c.1,-.3,.1,-.5,.1,-.6c0,-.4,0,-.6,-.3,-.6c-.7,0,-1.5,.8,-1.8,1.3l.2,.1c.2,-.2,.6,-.8,.8,-.8c.2,0,.3,.2,.3,.3c0,.1,-.1,.4,-.2,.6l-.7,2.1c-.1,.3,-.2,.5,-.2,.6c0,.4,.2,.6,.5,.6Z" class="g0_293"/>
<path d="M552.9,293.7l-.1,.3c1.9,1.5,2.5,3.2,2.5,6.5c0,3.3,-.6,5.1,-2.5,6.6l.1,.3c2.1,-1.3,3.7,-4.1,3.7,-6.8c0,-3.1,-1.6,-5.5,-3.7,-6.9Z" class="g0_293"/>
<path d="M562.8,302.5h7.6v-.8h-7.6Zm0,-3h7.6v-.9h-7.6Z" class="g0_293"/>
<path d="M577.1,302.2c0,-1.5,.6,-2.6,1.3,-3.6c.1,-.1,.5,-.4,.5,-.5c0,-.2,-.1,-.2,-.2,-.2c-.1,0,-.2,.1,-.2,.1c-.1,.1,-.2,.1,-.4,.3c-.1,.1,-.2,.2,-.4,.2c-.3,0,-.4,-.1,-.6,-.3c-.2,-.2,-.4,-.3,-.7,-.3c-.6,0,-1.3,.6,-1.3,1.1c0,.4,.3,.5,.6,.5c.2,0,.4,-.1,.4,-.4c0,-.2,-.2,-.3,-.2,-.4c0,-.1,0,-.2,.2,-.2c.4,0,.6,.4,.8,.5c.2,0,.3,0,.6,0l.1,-.1c-.4,.7,-1,1.7,-1.3,2.3c-.2,.6,-.4,1.2,-.4,1.6c0,.2,.1,.5,.1,.7c.3,.5,.7,1,1.4,1c1.9,0,2.7,-1.7,3.3,-2.9c.3,-.7,.6,-1.6,.6,-2.6c0,-.6,-.1,-1.1,-.7,-1.1c-.5,0,-.7,.2,-.7,.7c0,.6,.3,.9,.3,1.5c0,1.4,-.9,4,-2.3,4c-.8,0,-.8,-1.2,-.8,-1.9Z" class="g0_293"/>
<path d="M584.5,299.9c0,-.3,-.3,-.5,-.6,-.5c-.3,0,-.5,.2,-.5,.5c0,.3,.2,.6,.5,.6c.3,0,.6,-.3,.6,-.6Zm-2.1,6.8c1,0,1.5,-.8,1.8,-1.4l-.2,-.1c-.2,.2,-.6,1,-1,1c-.1,0,-.3,-.1,-.3,-.3c0,-.2,.2,-.6,.2,-.8l.8,-2c.1,-.3,.1,-.5,.1,-.6c0,-.4,0,-.6,-.4,-.6c-.6,0,-1.5,.8,-1.7,1.3l.2,.1c.2,-.2,.6,-.8,.8,-.8c.2,0,.2,.2,.2,.3c.1,.1,0,.4,-.1,.6l-.7,2.1c-.1,.3,-.2,.5,-.2,.6c0,.4,.2,.6,.5,.6Z" class="g0_293"/>
<path d="M278.7,537.1h.3V510.4h-.3Z" class="g1_293"/>
<path d="M254.4,522.6v3.2l-.3,-.1l-6.2,-2.9l-.4,-.2l.4,-.2l6.2,-2.9l.3,-.1v.3l-.1,.1l-6.2,3l-.2,-.4h.2l6.2,2.9l-.2,.4l-.1,-.2v-2.9Z" class="g1_293"/>
<path d="M254,522.6h.4v-2.9H254Z" class="g1_293"/>
<path d="M254.2,522.8H279v-.4H254.2Z" class="g1_293"/>
<path d="M148.8,609.2h.3V568.4h-.3Z" class="g1_293"/>
<path d="M164.4,568.4v-3.2l.2,.1l6.3,2.9l.3,.2l-.3,.2l-6.3,2.9l-.2,.1v-.2l.1,-.2l6.2,-3l.2,.4h-.2l-6.2,-2.9l.1,-.4l.1,.2v2.9Z" class="g1_293"/>
<path d="M164.4,571.4h.3v-3h-.3Z" class="g1_293"/>
<path d="M148.8,568.6h15.7v-.4H148.8Z" class="g1_293"/>
<path d="M385.6,598.2h.3V571.5h-.3Z" class="g1_293"/>
<path d="M361.4,583.7v3.2l-.3,-.1l-6.4,-2.9l-.3,-.2l.3,-.2l6.4,-2.9l.3,-.1v.3l-.1,.2l-6.4,2.9l-.2,-.4h.2l6.4,3l-.2,.3l-.1,-.1v-3Z" class="g1_293"/>
<path d="M361,583.7h.4v-2.9H361Z" class="g1_293"/>
<path d="M361.2,583.9h24.7v-.4H361.2Z" class="g1_293"/>
<path d="M606.6,614.3h.4V573.7h-.4Z" class="g1_293"/>
<path d="M589.4,614.3v3.3l-.3,-.1l-6.2,-3l-.4,-.2l.4,-.1l6.2,-2.9l.3,-.1v.3l-.1,.2l-6.2,2.8l-.2,-.3h.2l6.2,2.9l-.2,.4v-3.2Z" class="g1_293"/>
<path d="M589.1,614.3h.3v-2.8h-.3Z" class="g1_293"/>
<path d="M589.2,614.5H607v-.3H589.2Z" class="g1_293"/>
<path d="M363.2,709.5h.4V629.6h-.4Z" class="g1_293"/>
<path d="M338.9,629.6v3.2l-.3,-.1l-6.2,-2.9l-.4,-.2l.4,-.2l6.2,-3h.3v.2l-.1,.2l-6.2,3l-.2,-.4h.2l6.2,2.9l-.2,.4l-.1,-.2v-2.9Z" class="g1_293"/>
<path d="M338.5,629.6h.4v-3h-.4Z" class="g1_293"/>
<path d="M338.8,629.8h24.8v-.4H338.8Z" class="g1_293"/>
<path d="M173,687.5h.3V660.1H173Z" class="g1_293"/>
<path d="M188.6,660.1V657l.2,.1l6.3,2.8l.3,.2l-.3,.2l-6.3,2.9l-.2,.1V663l.1,-.2l6.2,-2.9l.2,.4h-.2l-6.2,-2.9l.1,-.3l.1,.2v2.8Z" class="g1_293"/>
<path d="M188.6,663h.3v-2.9h-.3Z" class="g1_293"/>
<path d="M188.6,660.3h.1v-.4h-.1Z" class="g1_293"/>
<path d="M173,660.3h15.6v-.4H173Z" class="g1_293"/>
</svg>