<?xml version="1.0" encoding="UTF-8" standalone="no"?>
<!DOCTYPE svg PUBLIC "-//W3C//DTD SVG 1.1//EN"
"http://www.w3.org/Graphics/SVG/1.1/DTD/svg11.dtd">
<svg viewBox="0 0 811 1017" version="1.1" xmlns="http://www.w3.org/2000/svg" xmlns:xlink="http://www.w3.org/1999/xlink">
<defs>
<style type="text/css"><![CDATA[
.g0_194{
fill: #0E0E0E;
}
.g1_194{
fill: #000;
}
]]></style>
</defs>
<path d="M179.1,292.1v-9.3l-2.3,.4v.3c.2,0,.6,.1,.8,.3c.3,.3,.4,.3,.4,2v6.4c0,.3,0,.5,-.1,.7c-.1,.6,-.4,.6,-1,.7v.1h3.3v-.1c-.3,-.1,-.5,-.1,-.6,-.1c-.5,-.2,-.5,-.7,-.5,-1.4Z" class="g0_194"/>
<path d="M183.1,288.5H183l-.2,-1.2l-1.9,.4v.2c.2,0,.5,.1,.7,.3c.3,.3,.4,.4,.4,1.9v2.1c0,.3,0,.5,-.1,.7c0,.6,-.4,.6,-1,.7v.1h3.2v-.1c-.2,-.1,-.4,-.1,-.6,-.1c-.5,-.2,-.4,-.7,-.4,-1.4V290c0,-.5,0,-.9,.2,-1.3c.3,-.5,1,-1.1,1.8,-1.1c1.3,0,1.3,1.4,1.3,2.7v1.9c0,.3,0,.5,-.1,.7c0,.6,-.3,.6,-.9,.7v.1h3.1v-.1c-.2,-.1,-.4,-.1,-.5,-.1c-.6,-.1,-.5,-.7,-.5,-1.4v-2.2c0,-.9,0,-1.5,-.4,-2c-.3,-.4,-.9,-.6,-1.7,-.6c-1.1,0,-1.8,.5,-2.3,1.2Z" class="g0_194"/>
<path d="M190.5,296.1c.9,0,1.4,-.5,1.7,-1.1c0,.7,.2,1.1,.8,1.1c.6,0,.9,-.2,1.1,-.6l-.1,-.1c-.1,.2,-.3,.4,-.5,.4c-.3,0,-.4,-.4,-.4,-1.1v-2.4c0,-1.2,-.6,-1.5,-1.8,-1.5c-1.1,0,-2,.5,-2,.9c0,.4,.1,.5,.4,.5c.4,0,.5,-.1,.6,-.4c.1,-.2,.1,-.4,.2,-.5c.1,-.1,.4,-.3,.6,-.3c1.1,0,1,.5,1,1.3v.4l-1.4,.6c-.4,.2,-.8,.4,-1.2,.8c-.2,.2,-.3,.5,-.3,.8c0,.8,.5,1.1,1.3,1.2Zm-.3,-1.3c0,-.4,.2,-.7,.4,-.9c.4,-.4,.9,-.6,1.5,-1v1.3c0,.5,-.1,.8,-.3,1.1c-.2,.2,-.6,.5,-.9,.5c-.5,0,-.7,-.6,-.7,-1Z" class="g0_194"/>
<path d="M197.5,291c1.1,0,1.6,1.4,1.6,2.5c0,1.1,-.5,2.4,-1.5,2.4c-.8,0,-1.4,-.7,-1.4,-1.2c0,-.2,0,-.3,0,-.5v-1.4c0,-.3,0,-.5,0,-.7c.1,-.4,.6,-1.1,1.3,-1.1Zm.1,5.1c.8,0,1.4,-.3,1.8,-.8c.5,-.4,.8,-1,.8,-1.9c0,-.8,-.3,-1.4,-.8,-1.9c-.4,-.4,-1,-.7,-1.7,-.7c-.8,0,-1.2,.4,-1.5,.8h-.1v-.8l-1.8,.4v.2c.5,0,.8,.1,.9,.5c0,.1,0,.2,0,.5c0,.2,0,.5,0,.9v3.8c0,.4,0,.7,-.2,.9c-.1,.2,-.4,.2,-.7,.2v.2h3v-.2c-.3,0,-.5,0,-.6,0c-.5,-.1,-.5,-.6,-.5,-1.2v-1.6c.3,.4,.7,.7,1.4,.7Z" class="g0_194"/>
<path d="M204.1,291c1,0,1.5,1.4,1.5,2.5c0,1.1,-.5,2.4,-1.5,2.4c-.7,0,-1.4,-.7,-1.4,-1.2c0,-.2,0,-.3,0,-.5v-1.4c0,-.3,0,-.5,.1,-.7c.1,-.4,.5,-1.1,1.3,-1.1Zm.1,5.1c.8,0,1.4,-.3,1.8,-.8c.4,-.4,.7,-1,.7,-1.9c0,-.8,-.3,-1.4,-.7,-1.9c-.4,-.4,-1,-.7,-1.8,-.7c-.7,0,-1.2,.4,-1.5,.8v-.8l-1.9,.4v.2c.6,0,.8,.1,.9,.5c0,.1,0,.2,0,.5c.1,.2,.1,.5,.1,.9v3.8c0,.4,-.1,.7,-.2,.9c-.2,.2,-.4,.2,-.8,.2v.2h3v-.2c-.3,0,-.4,0,-.6,0c-.5,-.1,-.5,-.6,-.5,-1.2v-1.6c.4,.4,.8,.7,1.5,.7Z" class="g0_194"/>
<path d="M213,283.1c-2.1,1.4,-3.6,3.8,-3.6,6.8c0,2.8,1.5,5.6,3.6,6.8l.2,-.2c-2,-1.5,-2.6,-3.3,-2.6,-6.6c0,-3.3,.7,-5,2.6,-6.6l-.2,-.2Z" class="g0_194"/>
<path d="M221.4,288.2c0,-.5,-.4,-.9,-1,-.9c-.3,0,-.6,.1,-.9,.3c-.3,.2,-.7,.5,-.9,.9c0,-.7,-.4,-1.2,-1,-1.2c-1.2,0,-2.1,1.1,-2.5,1.9l.2,.1c.4,-.5,1.1,-1.7,2,-1.7c.3,0,.4,.6,.4,1c0,.3,-.1,.7,-.2,1.2l-.4,1.1c-.1,.6,-.4,1.4,-.7,1.8c-.1,.3,-.4,.7,-.8,.7c-.4,0,-.7,-.1,-.6,-.5c.1,-.3,0,-.7,-.4,-.7c-.4,0,-.6,.3,-.6,.7c0,.6,.5,1,1,1c1,0,1.8,-.8,2.2,-1.5c.1,.8,.5,1.5,1.3,1.5c1.2,0,2.1,-1.2,2.5,-1.9l-.2,-.2c-.5,.7,-1.2,1.7,-2,1.7c-.4,0,-.6,-.6,-.6,-1.2c0,-.4,0,-.8,.2,-1.4l.1,-.7c.1,-.6,.4,-1.2,.7,-1.6c.1,-.3,.5,-.9,.9,-.9c.4,0,.4,.3,.3,.6c0,.4,.2,.5,.5,.5c.4,0,.5,-.2,.5,-.6Z" class="g0_194"/>
<path d="M222.7,283.1l-.1,.2c1.9,1.6,2.5,3.3,2.5,6.6c0,3.3,-.6,5.1,-2.5,6.6l.1,.2c2.1,-1.2,3.7,-4,3.7,-6.8c0,-3,-1.5,-5.4,-3.7,-6.8Z" class="g0_194"/>
<path d="M232.6,291.8h7.6V291h-7.6Zm0,-3h7.6V288h-7.6Z" class="g0_194"/>
<path d="M247.5,292.1v-9.3l-2.3,.4v.3c.2,0,.5,.1,.8,.3c.2,.3,.4,.3,.4,2v6.4c0,.3,0,.5,-.1,.7c-.1,.6,-.4,.6,-1.1,.7v.1h3.4v-.1c-.3,-.1,-.5,-.1,-.6,-.1c-.5,-.2,-.5,-.7,-.5,-1.4Z" class="g0_194"/>
<path d="M251.4,288.5v0l-.2,-1.2l-1.9,.4v.2c.2,0,.5,.1,.7,.3c.2,.3,.3,.4,.3,1.9v2.1c0,.3,0,.5,0,.7c0,.6,-.4,.6,-1,.7v.1h3.2v-.1c-.2,-.1,-.4,-.1,-.6,-.1c-.5,-.2,-.4,-.7,-.4,-1.4V290c0,-.5,0,-.9,.2,-1.3c.3,-.5,1,-1.1,1.8,-1.1c1.3,0,1.2,1.4,1.2,2.7v1.9c0,.3,0,.5,0,.7c0,.6,-.4,.6,-.9,.7v.1h3.1v-.1c-.3,-.1,-.4,-.1,-.6,-.1c-.5,-.1,-.4,-.7,-.4,-1.4v-2.2c0,-.9,-.1,-1.5,-.4,-2c-.3,-.4,-.9,-.6,-1.7,-.6c-1.1,0,-1.8,.5,-2.4,1.2Z" class="g0_194"/>
<path d="M259.9,292.4v-.2h-2.4v.2c.5,0,.6,.3,.9,.6l1.3,1.9l-.9,1.3c-.2,.2,-.3,.4,-.5,.5c-.1,.2,-.3,.3,-.6,.4c-.1,0,-.3,.1,-.4,.1v.1h2.2v-.1c-.3,0,-.8,-.1,-.8,-.3c0,-.2,.1,-.3,.2,-.4l1,-1.4l.7,1.2c.1,.2,.4,.4,.4,.6c0,.2,-.4,.2,-.7,.3v.1h2.6v-.1c-.2,0,-.4,-.1,-.5,-.3c-.2,-.1,-.4,-.3,-.6,-.6l-1.3,-1.9l.9,-1.2c.1,-.1,.3,-.3,.4,-.4c.2,-.2,.5,-.4,.9,-.4v-.2h-2.1v.2c.4,0,.6,.1,.6,.3c0,.1,0,.4,-.2,.6l-.7,.9l-.7,-1.1c-.2,-.1,-.2,-.4,-.2,-.5c0,-.2,.2,-.2,.5,-.2Z" class="g0_194"/>
<path d="M263.7,298.8h6.1v-.7h-6.1Z" class="g0_194"/>
<path d="M272.3,290.8c.4,0,.6,-.3,.6,-.6c0,-.3,-.3,-.6,-.6,-.6c-.3,0,-.6,.3,-.6,.6c0,.3,.3,.6,.6,.6Zm.5,5.2v-3.9l-1.8,.4v.2c.3,0,.5,.1,.6,.2c.3,.2,.3,.5,.3,1.7V296c0,.3,0,.5,0,.6c-.1,.5,-.4,.5,-.9,.6v.1h2.7v-.1c-.1,0,-.3,0,-.4,-.1c-.4,-.1,-.5,-.6,-.5,-1.1Z" class="g0_194"/>
<path d="M276,293.1h-.1l-.1,-1l-1.5,.4v.2c.1,0,.3,0,.5,.2c.2,.2,.3,.3,.3,1.5v1.7c0,.2,0,.4,0,.5c-.1,.5,-.4,.5,-.8,.6v.1h2.5v-.1c-.2,0,-.3,0,-.4,-.1c-.5,-.1,-.4,-.5,-.4,-1.1v-1.7c0,-.4,0,-.7,.2,-1c.2,-.4,.8,-.9,1.4,-.9c1.1,0,1,1.2,1,2.2v1.5c0,.2,0,.4,0,.5c0,.5,-.3,.5,-.8,.6v.1h2.5v-.1c-.2,0,-.3,0,-.4,-.1c-.4,-.1,-.4,-.6,-.4,-1.1v-1.8c0,-.7,0,-1.2,-.3,-1.5c-.2,-.4,-.7,-.6,-1.3,-.6c-.9,0,-1.5,.5,-1.9,1Z" class="g0_194"/>
<path d="M283.6,297.1c-1.1,0,-1.5,-1.2,-1.5,-2.4c0,-1.2,.5,-2.4,1.4,-2.4c.7,0,.7,.4,.8,.7c.2,.2,.3,.4,.6,.4c.3,0,.5,-.2,.5,-.4c0,-.3,-.3,-.5,-.5,-.6c-.3,-.2,-.7,-.3,-1.2,-.3c-.8,0,-1.5,.3,-1.9,.8c-.5,.4,-.8,1,-.8,1.9c0,.4,.1,.8,.2,1.1c.3,.8,1,1.5,2.1,1.5c1.1,0,1.7,-.4,2.1,-.9l-.1,-.1c-.4,.4,-1,.7,-1.7,.7Z" class="g0_194"/>
<path d="M290.2,292.7c0,-.4,-.3,-.6,-.6,-.6c-.2,0,-.4,.1,-.5,.1c-.5,.2,-1,.7,-1.2,1.2l-.2,-1.2l-1.7,.4v.1c.2,0,.5,.2,.6,.2c.2,.2,.2,.4,.3,.8c0,.3,0,.6,0,1V296c0,.3,0,.5,0,.6c-.1,.5,-.3,.5,-.8,.6v.1h2.5v-.1c-.2,0,-.3,0,-.4,-.1c-.4,-.2,-.4,-.6,-.4,-1.1v-.8c0,-.9,.2,-1.6,.5,-2.1c.2,-.2,.4,-.4,.6,-.4c.5,0,.4,.4,.8,.5c.3,0,.5,-.2,.5,-.5Z" class="g0_194"/>
<path d="M294.2,293.6c0,0,0,.1,0,.2c-.1,.1,-.3,.1,-.6,.1h-1.7c.1,-.9,.5,-1.6,1.3,-1.6c.8,.1,1,.7,1,1.3Zm-.7,3.5c-1.2,0,-1.7,-1.2,-1.7,-2.4c0,-.2,0,-.5,0,-.6H295c.2,0,.3,0,.3,-.2c0,-1.2,-.7,-1.8,-2,-1.8c-.4,0,-.7,.1,-1.1,.2c-.9,.4,-1.5,1.2,-1.5,2.5c0,1.6,.9,2.6,2.5,2.6c1.1,0,1.4,-.4,2,-1l-.1,-.1c-.4,.4,-.9,.8,-1.6,.8Z" class="g0_194"/>
<path d="M304.1,294.6V296c0,.5,0,.8,-.1,1c-.2,.2,-.4,.1,-.7,.2v.1h2.5v-.1c-.2,0,-.3,0,-.4,-.1c-.4,-.1,-.4,-.6,-.4,-1.1v-1.8c0,-.6,0,-1.2,-.3,-1.5c-.2,-.3,-.8,-.6,-1.4,-.6c-.8,0,-1.5,.5,-1.9,1c-.3,-.6,-.8,-1,-1.7,-1c-.9,0,-1.4,.5,-1.9,1l-.2,-1l-1.5,.4v.2c.1,0,.4,0,.4,.1c.3,.2,.4,.4,.4,1.8V296c0,.3,0,.5,0,.6c-.1,.5,-.3,.5,-.8,.6v.1h2.5v-.1c-.2,0,-.3,0,-.4,-.1c-.4,-.1,-.4,-.6,-.4,-1.1v-1.6c0,-.4,0,-.8,.2,-1c.2,-.5,.9,-1,1.4,-1c1,0,1.1,1.1,1.1,2.2V296c0,.3,0,.5,0,.6c-.1,.5,-.3,.5,-.8,.6v.1h2.5v-.1c-.1,0,-.3,0,-.4,-.1c-.4,-.1,-.4,-.6,-.4,-1.1v-1.6c0,-.4,0,-.8,.2,-1c.2,-.5,.9,-1,1.4,-1c1,0,1.1,1.2,1.1,2.2Z" class="g0_194"/>
<path d="M310.1,293.6c0,0,0,.1,-.1,.2c0,.1,-.3,.1,-.5,.1h-1.8c.2,-.9,.5,-1.6,1.3,-1.6c.8,.1,1.1,.7,1.1,1.3Zm-.8,3.5c-1.2,0,-1.7,-1.2,-1.7,-2.4c0,-.2,0,-.5,.1,-.6h3.1c.2,0,.3,0,.3,-.2c0,-1.2,-.7,-1.8,-1.9,-1.8c-.4,0,-.8,.1,-1.1,.2c-.9,.4,-1.6,1.2,-1.6,2.5c0,1.6,1,2.6,2.5,2.6c1.1,0,1.4,-.4,2.1,-1l-.2,-.1c-.4,.4,-.9,.8,-1.6,.8Z" class="g0_194"/>
<path d="M313.6,293.1v0l-.2,-1l-1.5,.4v.2c.2,0,.4,0,.5,.2c.3,.2,.3,.3,.3,1.5v1.7c0,.2,0,.4,0,.5c0,.5,-.3,.5,-.8,.6v.1h2.5v-.1c-.1,0,-.3,0,-.4,-.1c-.4,-.1,-.4,-.5,-.4,-1.1v-1.7c0,-.4,0,-.7,.2,-1c.3,-.4,.8,-.9,1.5,-.9c1,0,1,1.2,1,2.2v1.5c0,.2,0,.4,-.1,.5c0,.5,-.3,.5,-.7,.6v.1h2.4v-.1c-.1,0,-.3,0,-.4,-.1c-.4,-.1,-.3,-.6,-.3,-1.1v-1.8c0,-.7,-.1,-1.2,-.3,-1.5c-.3,-.4,-.8,-.6,-1.4,-.6c-.9,0,-1.5,.5,-1.9,1Z" class="g0_194"/>
<path d="M320.4,297.4c.7,0,1,-.2,1.3,-.7l-.1,-.2c-.2,.3,-.4,.7,-.8,.7c-.7,0,-.7,-.5,-.7,-1.5v-3.3h1.3v-.2h-1.3v-1.5H320c-.3,.6,-.8,1.2,-1.4,1.6v.1h.5v3.8c0,.8,.5,1.2,1.3,1.2Z" class="g0_194"/>
<path d="M325.8,293.6c0,0,0,.1,0,.2c0,.1,-.3,.1,-.6,.1h-1.7c.1,-.9,.5,-1.6,1.3,-1.6c.8,.1,1,.7,1,1.3Zm-.7,3.5c-1.2,0,-1.7,-1.2,-1.7,-2.4c0,-.2,0,-.5,0,-.6h3.2c.2,0,.3,0,.3,-.2c0,-1.2,-.7,-1.8,-2,-1.8c-.4,0,-.7,.1,-1,.2c-.9,.4,-1.6,1.2,-1.6,2.5c0,1.6,1,2.6,2.5,2.6c1.1,0,1.4,-.4,2,-1l-.1,-.1c-.4,.4,-.9,.8,-1.6,.8Z" class="g0_194"/>
<path d="M330.3,292.3c.5,0,1,.3,1.2,.6c.3,.3,.3,.6,.3,1.2v1.3c0,.7,-.2,1.2,-.5,1.4c-.2,.2,-.6,.4,-1,.4c-1.1,0,-1.4,-1.3,-1.4,-2.5c0,-1.1,.4,-2.4,1.4,-2.4Zm0,-.2c-.8,0,-1.4,.3,-1.8,.8c-.4,.4,-.7,1.1,-.7,1.9c0,1.5,1,2.6,2.5,2.6c.4,0,.7,0,.9,-.2c.4,-.3,.4,-.4,.7,-.7h.1v.9l1.6,-.1v-.2c-.2,0,-.3,0,-.4,0c-.5,-.1,-.4,-.5,-.5,-1.1c0,-.2,0,-.7,0,-1.1v-6.3l-1.9,.3v.2c.3,0,.5,.1,.7,.2c.2,.2,.3,.4,.3,.8c0,.3,0,.6,0,.9v1.8c-.4,-.4,-.8,-.7,-1.5,-.7Z" class="g0_194"/>
<path d="M339.7,283.1c-2.1,1.4,-3.7,3.8,-3.7,6.8c0,2.8,1.6,5.6,3.7,6.8l.2,-.2c-2,-1.5,-2.6,-3.3,-2.6,-6.6c0,-3.3,.6,-5,2.6,-6.6l-.2,-.2Z" class="g0_194"/>
<path d="M348.1,288.2c0,-.5,-.5,-.9,-1,-.9c-.3,0,-.6,.1,-1,.3c-.3,.2,-.6,.5,-.8,.9c0,-.7,-.4,-1.2,-1.1,-1.2c-1.1,0,-2.1,1.1,-2.4,1.9l.2,.1c.4,-.5,1.1,-1.7,2,-1.7c.3,0,.4,.6,.4,1c0,.3,-.1,.7,-.2,1.2l-.4,1.1c-.1,.6,-.4,1.4,-.7,1.8c-.1,.3,-.4,.7,-.8,.7c-.4,0,-.7,-.1,-.6,-.5c.1,-.3,0,-.7,-.4,-.7c-.5,0,-.6,.3,-.6,.7c0,.6,.4,1,1,1c1,0,1.8,-.8,2.1,-1.5h.1c.1,.8,.5,1.5,1.3,1.5c1.2,0,2,-1.2,2.5,-1.9l-.2,-.2c-.5,.7,-1.2,1.7,-2,1.7c-.4,0,-.6,-.6,-.6,-1.2c0,-.4,0,-.8,.1,-1.4l.2,-.7c.1,-.6,.4,-1.2,.6,-1.6c.2,-.3,.6,-.9,1,-.9c.4,0,.4,.3,.3,.6c0,.4,.2,.5,.5,.5c.4,0,.5,-.2,.5,-.6Z" class="g0_194"/>
<path d="M353.1,290.3h7.6v-.8h-7.6Z" class="g0_194"/>
<path d="M366.9,284v.2c.4,0,1.1,.1,1.3,.2c.5,.3,.4,.4,.5,1V292c0,.3,-.1,.5,-.1,.7c-.1,.7,-.9,.8,-1.6,.8v.2h4.7v-.2c-.5,0,-1.3,0,-1.5,-.3c-.2,-.3,-.2,-.8,-.2,-1.3v-8.6c-.8,.4,-2.1,.7,-3.1,.7Z" class="g0_194"/>
<path d="M373.9,283.1l-.2,.2c1.9,1.6,2.5,3.3,2.5,6.6c0,3.3,-.5,5.1,-2.5,6.6l.2,.2c2,-1.2,3.6,-4,3.6,-6.8c0,-3,-1.5,-5.4,-3.6,-6.8Z" class="g0_194"/>
<path d="M383.7,291.8h7.6V291h-7.6Zm0,-3h7.6V288h-7.6Z" class="g0_194"/>
<path d="M400.6,287.3c-.4,0,-.8,.1,-1.3,.4c-.4,.3,-.8,.7,-1.2,1.2c-.7,.7,-1.3,1.9,-1.3,3.2c0,1,.4,1.8,1.3,1.8c1.3,0,1.8,-.9,2.2,-1.6c-.2,.9,0,1.6,.6,1.6c.3,0,.7,-.2,1.1,-.5c.4,-.3,.8,-.8,1.1,-1.4l-.2,-.1c-.3,.4,-.9,1.3,-1.3,1.3c-.2,0,-.3,-.3,-.3,-.5c0,-1,.6,-2.5,.9,-3.5l.7,-1.8h-1l-.2,.6c-.2,-.4,-.5,-.7,-1.1,-.7Zm.2,.2c.7,0,.5,1.3,.4,1.9c-.1,.3,-.2,.7,-.3,1c-.4,1.2,-1.5,3.1,-2.3,3.1c-.6,0,-.7,-.9,-.7,-1.4c0,-.5,0,-.9,.2,-1.4c.3,-1,1.4,-3.2,2.7,-3.2Z" class="g0_194"/>
<path d="M407.2,296.1c.9,0,1.4,-1,1.7,-1.5l-.2,-.1c-.2,.4,-.6,1.1,-1,1.1c-.2,0,-.1,-.3,-.1,-.4c0,-.1,0,-.3,.1,-.5c.1,-.3,.2,-.6,.3,-1c.2,-.6,.4,-1.4,.4,-1.8c0,-.4,-.2,-.7,-.7,-.7c-.8,0,-1.4,.7,-1.9,1.5v-.1c.1,-.2,.1,-.4,.1,-.7c0,-.4,-.1,-.7,-.5,-.7c-1,0,-1.3,1,-1.6,1.8l.3,.1c.1,-.5,.5,-1.6,1,-1.6c.1,0,.2,.1,.2,.2c0,.3,-.1,.7,-.2,.9c-.1,.4,-.2,.8,-.4,1.4l-.6,2h.7l.6,-1.9c.2,-.6,.6,-1.4,1,-1.9c.2,-.3,.7,-.7,1,-.7c.2,0,.2,.1,.2,.3c0,0,0,.2,0,.3c0,.4,-.1,.6,-.2,1c-.3,.7,-.4,1.3,-.6,2c0,.1,-.1,.2,-.1,.3c0,.3,.1,.7,.5,.7Z" class="g0_194"/>
<path d="M415.5,283.1c-2.2,1.4,-3.7,3.8,-3.7,6.8c0,2.8,1.6,5.6,3.7,6.8l.1,-.2c-1.9,-1.5,-2.5,-3.3,-2.5,-6.6c0,-3.3,.6,-5,2.5,-6.6l-.1,-.2Z" class="g0_194"/>
<path d="M423.9,288.2c0,-.5,-.5,-.9,-1,-.9c-.3,0,-.7,.1,-1,.3c-.3,.2,-.6,.5,-.8,.9c0,-.7,-.4,-1.2,-1.1,-1.2c-1.1,0,-2.1,1.1,-2.4,1.9l.2,.1c.3,-.5,1.1,-1.7,2,-1.7c.2,0,.4,.6,.4,1c0,.3,-.1,.7,-.3,1.2l-.3,1.1c-.2,.6,-.4,1.4,-.7,1.8c-.2,.3,-.4,.7,-.8,.7c-.4,0,-.7,-.1,-.6,-.5c.1,-.3,0,-.7,-.4,-.7c-.5,0,-.7,.3,-.7,.7c0,.6,.5,1,1.1,1c1,0,1.7,-.8,2.1,-1.5h.1c.1,.8,.5,1.5,1.3,1.5c1.2,0,2,-1.2,2.4,-1.9l-.2,-.2c-.4,.7,-1.1,1.7,-1.9,1.7c-.5,0,-.7,-.6,-.7,-1.2c0,-.4,.1,-.8,.2,-1.4l.2,-.7c.1,-.6,.3,-1.2,.6,-1.6c.2,-.3,.6,-.9,.9,-.9c.5,0,.4,.3,.4,.6c0,.4,.1,.5,.5,.5c.3,0,.5,-.2,.5,-.6Z" class="g0_194"/>
<path d="M428.8,290.3h7.6v-.8h-7.6Z" class="g0_194"/>
<path d="M442.7,284v.2c.4,0,1.1,.1,1.3,.2c.4,.3,.4,.4,.4,1V292c0,.3,0,.5,0,.7c-.1,.7,-.9,.8,-1.6,.8v.2h4.6v-.2c-.5,0,-1.2,0,-1.4,-.3c-.2,-.3,-.2,-.8,-.2,-1.3v-8.6c-.8,.4,-2.2,.7,-3.1,.7Z" class="g0_194"/>
<path d="M449.6,283.1l-.1,.2c1.9,1.6,2.5,3.3,2.5,6.6c0,3.3,-.5,5.1,-2.5,6.6l.2,.2c2,-1.2,3.6,-4,3.6,-6.8c0,-3,-1.5,-5.4,-3.7,-6.8Z" class="g0_194"/>
<path d="M458.4,287.7c.9,0,1.4,-.9,1.7,-1.4l-.2,-.2c-.2,.4,-.6,1.1,-1,1.1c-.1,0,-.1,-.3,-.1,-.4c0,-.1,0,-.3,.1,-.5c.1,-.3,.2,-.6,.3,-1c.2,-.6,.4,-1.4,.4,-1.8c0,-.4,-.2,-.7,-.7,-.7c-.8,0,-1.4,.7,-1.9,1.5v-.1c.1,-.2,.1,-.4,.1,-.7c0,-.4,-.1,-.7,-.5,-.7c-1,0,-1.3,1,-1.6,1.8l.3,.1c.1,-.5,.5,-1.6,1,-1.6c.1,0,.2,.1,.2,.2c0,.3,-.1,.7,-.2,.9c-.1,.4,-.2,.8,-.4,1.4l-.6,2h.7l.6,-1.9c.2,-.6,.6,-1.4,1,-1.9c.2,-.3,.7,-.7,1,-.7c.2,0,.2,.1,.2,.3c0,.1,0,.2,0,.3c0,.4,-.1,.6,-.2,1c-.2,.7,-.4,1.3,-.6,2c0,.1,-.1,.2,-.1,.3c0,.3,.1,.7,.5,.7Z" class="g0_194"/>
<path d="M468.6,289.5h-3.3v1h3.3v3.2h1v-3.2h3.2v-1h-3.2v-3.3h-1v3.3Z" class="g0_194"/>
<path d="M479.5,289.9c0,-.4,-.4,-.8,-.9,-.8c-.4,0,-.8,.4,-.8,.8c0,.6,.5,.8,.8,.8c.3,0,.9,-.2,.9,-.8Z" class="g0_194"/>
<path d="M486,289.9c0,-.4,-.4,-.8,-.9,-.8c-.4,0,-.8,.4,-.8,.8c0,.6,.5,.8,.8,.8c.3,0,.9,-.2,.9,-.8Z" class="g0_194"/>
<path d="M492.5,289.9c0,-.4,-.4,-.8,-.9,-.8c-.4,0,-.8,.4,-.8,.8c0,.6,.5,.8,.8,.8c.4,0,.9,-.2,.9,-.8Z" class="g0_194"/>
<path d="M500.7,289.5h-3.3v1h3.3v3.2h1v-3.2h3.2v-1h-3.2v-3.3h-1v3.3Z" class="g0_194"/>
<path d="M513.2,287.3c-.4,0,-.8,.1,-1.3,.4c-.4,.3,-.9,.7,-1.2,1.2c-.7,.7,-1.3,1.9,-1.3,3.2c0,1,.4,1.8,1.3,1.8c1.3,0,1.8,-.9,2.2,-1.6c-.2,.9,-.1,1.6,.6,1.6c.3,0,.7,-.2,1.1,-.5c.4,-.3,.8,-.8,1.1,-1.4l-.2,-.1c-.3,.4,-.9,1.3,-1.3,1.3c-.2,0,-.3,-.3,-.3,-.5c0,-1,.6,-2.5,.9,-3.5l.7,-1.8h-1l-.2,.6c-.2,-.4,-.5,-.7,-1.1,-.7Zm.2,.2c.6,0,.5,1.3,.4,1.9c-.1,.3,-.2,.7,-.3,1c-.4,1.2,-1.5,3.1,-2.3,3.1c-.6,0,-.7,-.9,-.7,-1.4c0,-.5,0,-.9,.2,-1.4c.3,-1,1.4,-3.2,2.7,-3.2Z" class="g0_194"/>
<path d="M518.8,291.4c-.7,0,-1.1,-.4,-1.1,-1.1c0,-.8,.4,-1.6,1.3,-1.6c1.2,0,1.4,.9,1.4,1.9c0,.9,-.3,1.4,-.7,2.1c-.3,.4,-.7,.8,-1.2,1.3c-.5,.5,-1.1,1.1,-1.8,1.8v.3h4.5l.4,-2.1h-.3c-.1,.2,-.2,.4,-.2,.6c-.2,.3,-.5,.5,-1,.5h-2.2c.5,-.4,1,-.7,1.4,-1.1c.8,-.6,1.6,-1.4,2,-2.2c.2,-.4,.2,-.8,.2,-1.2c0,-.3,0,-.6,-.1,-.9c-.4,-.7,-1.1,-1.3,-2.2,-1.3c-.7,0,-1.3,.3,-1.7,.6c-.4,.3,-.7,.8,-.7,1.5c0,.5,.1,.8,.3,1c.2,.3,.5,.5,.9,.5c.4,0,.7,-.2,.8,-.6Z" class="g0_194"/>
<path d="M528.1,283.1c-2.1,1.4,-3.6,3.8,-3.6,6.8c0,2.8,1.5,5.6,3.6,6.8l.2,-.2c-2,-1.5,-2.5,-3.3,-2.5,-6.6c0,-3.3,.6,-5,2.5,-6.6l-.2,-.2Z" class="g0_194"/>
<path d="M536.5,288.2c0,-.5,-.4,-.9,-1,-.9c-.3,0,-.6,.1,-.9,.3c-.3,.2,-.7,.5,-.9,.9c0,-.7,-.4,-1.2,-1,-1.2c-1.2,0,-2.1,1.1,-2.5,1.9l.2,.1c.4,-.5,1.1,-1.7,2,-1.7c.3,0,.4,.6,.4,1c0,.3,-.1,.7,-.2,1.2l-.3,1.1c-.2,.6,-.4,1.4,-.8,1.8c-.1,.3,-.4,.7,-.7,.7c-.5,0,-.8,-.1,-.7,-.5c.1,-.3,0,-.7,-.4,-.7c-.4,0,-.6,.3,-.6,.7c0,.6,.5,1,1,1c1.1,0,1.8,-.8,2.2,-1.5c.1,.8,.5,1.5,1.3,1.5c1.2,0,2.1,-1.2,2.5,-1.9l-.2,-.2c-.5,.7,-1.2,1.7,-2,1.7c-.4,0,-.6,-.6,-.6,-1.2c0,-.4,0,-.8,.2,-1.4l.1,-.7c.1,-.6,.4,-1.2,.7,-1.6c.1,-.3,.5,-.9,.9,-.9c.4,0,.4,.3,.4,.6c-.1,.4,.1,.5,.4,.5c.4,0,.5,-.2,.5,-.6Z" class="g0_194"/>
<path d="M541.5,290.3h7.6v-.8h-7.6Z" class="g0_194"/>
<path d="M555.3,284v.2c.5,0,1.1,.1,1.3,.2c.5,.3,.5,.4,.5,1V292c0,.3,0,.5,-.1,.7c-.1,.7,-.9,.8,-1.6,.8v.2h4.7v-.2c-.5,0,-1.3,0,-1.5,-.3c-.2,-.3,-.2,-.8,-.2,-1.3v-8.6c-.8,.4,-2.1,.7,-3.1,.7Z" class="g0_194"/>
<path d="M562.3,283.1l-.2,.2c2,1.6,2.6,3.3,2.6,6.6c0,3.3,-.6,5.1,-2.6,6.6l.2,.2c2.1,-1.2,3.6,-4,3.6,-6.8c0,-3,-1.5,-5.4,-3.6,-6.8Z" class="g0_194"/>
<path d="M570.1,282.9c-.7,0,-1.1,-.5,-1.1,-1.1c0,-.8,.4,-1.7,1.3,-1.7c1.2,0,1.3,1,1.3,1.9c0,1,-.2,1.5,-.7,2.2c-.3,.4,-.7,.8,-1.1,1.3c-.5,.5,-1.1,1.1,-1.9,1.7v.4h4.6l.4,-2.1h-.3c-.1,.2,-.2,.4,-.3,.5c-.1,.4,-.4,.6,-1,.6h-2.1c.5,-.4,1,-.8,1.4,-1.1c.7,-.6,1.5,-1.4,1.9,-2.3c.2,-.3,.3,-.7,.3,-1.1c0,-.4,-.1,-.6,-.2,-.9c-.3,-.8,-1.1,-1.3,-2.1,-1.3c-.8,0,-1.4,.3,-1.8,.6c-.4,.3,-.7,.8,-.7,1.5c0,.4,.2,.8,.4,1c.2,.3,.5,.4,.9,.4c.4,0,.7,-.2,.8,-.5Z" class="g0_194"/>
<path d="M581.3,289.5H578v1h3.3v3.2h1v-3.2h3.2v-1h-3.2v-3.3h-1v3.3Z" class="g0_194"/>
<path d="M593.8,287.3c-.4,0,-.8,.1,-1.3,.4c-.4,.3,-.8,.7,-1.2,1.2c-.7,.7,-1.3,1.9,-1.3,3.2c0,1,.4,1.8,1.3,1.8c1.3,0,1.8,-.9,2.2,-1.6c-.2,.9,-.1,1.6,.6,1.6c.3,0,.7,-.2,1.1,-.5c.4,-.3,.8,-.8,1.1,-1.4l-.2,-.1c-.3,.4,-.9,1.3,-1.3,1.3c-.2,0,-.3,-.3,-.3,-.5c0,-1,.6,-2.5,.9,-3.5l.7,-1.8h-1l-.2,.6c-.2,-.4,-.5,-.7,-1.1,-.7Zm.2,.2c.7,0,.5,1.3,.4,1.9c-.1,.3,-.2,.7,-.3,1c-.4,1.2,-1.5,3.1,-2.3,3.1c-.6,0,-.7,-.9,-.7,-1.4c0,-.5,0,-.9,.2,-1.4c.3,-1,1.4,-3.2,2.7,-3.2Z" class="g0_194"/>
<path d="M598.2,289v.2c.3,0,.8,0,1,.1c.3,.2,.3,.3,.3,.7v4.8c0,.2,0,.4,0,.6c-.1,.4,-.7,.5,-1.2,.5v.2h3.4v-.2c-.4,0,-.9,0,-1.1,-.2c-.1,-.2,-.1,-.6,-.1,-1v-6.2c-.6,.3,-1.6,.5,-2.3,.5Z" class="g0_194"/>
<path d="M608.7,283.1c-2.1,1.4,-3.6,3.8,-3.6,6.8c0,2.8,1.6,5.6,3.6,6.8l.2,-.2c-2,-1.5,-2.5,-3.3,-2.5,-6.6c0,-3.3,.6,-5,2.5,-6.6l-.2,-.2Z" class="g0_194"/>
<path d="M617.1,288.2c0,-.5,-.4,-.9,-1,-.9c-.3,0,-.6,.1,-.9,.3c-.3,.2,-.7,.5,-.9,.9c0,-.7,-.4,-1.2,-1,-1.2c-1.2,0,-2.1,1.1,-2.5,1.9l.2,.1c.4,-.5,1.1,-1.7,2,-1.7c.3,0,.4,.6,.4,1c0,.3,-.1,.7,-.2,1.2l-.3,1.1c-.2,.6,-.4,1.4,-.8,1.8c-.1,.3,-.4,.7,-.7,.7c-.5,0,-.8,-.1,-.7,-.5c.1,-.3,0,-.7,-.4,-.7c-.4,0,-.6,.3,-.6,.7c0,.6,.5,1,1,1c1.1,0,1.8,-.8,2.2,-1.5c.1,.8,.5,1.5,1.3,1.5c1.2,0,2.1,-1.2,2.5,-1.9l-.2,-.2c-.5,.7,-1.2,1.7,-2,1.7c-.4,0,-.6,-.6,-.6,-1.2c0,-.4,0,-.8,.2,-1.4l.1,-.7c.1,-.6,.4,-1.2,.7,-1.6c.1,-.3,.5,-.9,.9,-.9c.4,0,.4,.3,.4,.6c-.1,.4,.1,.5,.4,.5c.4,0,.5,-.2,.5,-.6Z" class="g0_194"/>
<path d="M622.1,290.3h7.6v-.8h-7.6Z" class="g0_194"/>
<path d="M635.9,284v.2c.5,0,1.1,.1,1.3,.2c.5,.3,.5,.4,.5,1V292c0,.3,0,.5,-.1,.7c-.1,.7,-.9,.8,-1.6,.8v.2h4.7v-.2c-.5,0,-1.3,0,-1.5,-.3c-.2,-.3,-.2,-.8,-.2,-1.3v-8.6c-.8,.4,-2.1,.7,-3.1,.7Z" class="g0_194"/>
<path d="M642.9,283.1l-.2,.2c2,1.6,2.6,3.3,2.6,6.6c0,3.3,-.6,5.1,-2.6,6.6l.2,.2c2.1,-1.2,3.7,-4,3.7,-6.8c0,-3,-1.6,-5.4,-3.7,-6.8Z" class="g0_194"/>
<path d="M655,289.5h-3.2v1H655v3.2h1v-3.2h3.3v-1H656v-3.3h-1v3.3Z" class="g0_194"/>
<path d="M667.6,287.3c-.5,0,-.9,.1,-1.3,.4c-.5,.3,-.9,.7,-1.3,1.2c-.6,.7,-1.2,1.9,-1.2,3.2c0,1,.4,1.8,1.3,1.8c1.3,0,1.8,-.9,2.2,-1.6c-.2,.9,-.1,1.6,.5,1.6c.4,0,.8,-.2,1.2,-.5c.4,-.3,.7,-.8,1.1,-1.4l-.2,-.1c-.3,.4,-.9,1.3,-1.4,1.3c-.2,0,-.2,-.3,-.2,-.5c0,-1,.6,-2.5,.9,-3.5l.7,-1.8h-1l-.3,.6c-.1,-.4,-.4,-.7,-1,-.7Zm.1,.2c.7,0,.6,1.3,.5,1.9c-.1,.3,-.2,.7,-.3,1c-.4,1.2,-1.5,3.1,-2.3,3.1c-.6,0,-.8,-.9,-.8,-1.4c0,-.5,0,-.9,.2,-1.4c.4,-1,1.4,-3.2,2.7,-3.2Z" class="g0_194"/>
<path d="M673.6,296c-1.4,0,-1.4,-2,-1.4,-3.6c0,-1.6,0,-3.7,1.4,-3.7c1.4,0,1.4,2.1,1.4,3.7c0,1.6,0,3.6,-1.4,3.6Zm0,-7.5c-1.9,0,-2.5,1.9,-2.5,3.9c0,1.9,.6,3.8,2.5,3.8c1.8,0,2.4,-1.9,2.4,-3.8c0,-2,-.5,-3.9,-2.4,-3.9Z" class="g0_194"/>
<path d="M494.5,503.8h.4v-27h-.4Z" class="g1_194"/>
<path d="M470.3,476.8V480l-.2,-.1l-6.4,-3l-.3,-.1l.3,-.2l6.4,-3l.2,-.1v.3l-.1,.2l-6.3,2.9l-.2,-.3h.2l6.3,2.9l-.1,.4l-.1,-.2v-2.9Z" class="g1_194"/>
<path d="M470,476.8h.3v-3H470Z" class="g1_194"/>
<path d="M470.2,476.9h.1v-.3h-.1Z" class="g1_194"/>
<path d="M470.3,476.9h24.6v-.3H470.3Z" class="g1_194"/>
<path d="M536.8,542.5h.4V519.8h-.4Z" class="g1_194"/>
<path d="M504.7,542.5v3.2l-.3,-.1l-6.3,-2.9l-.4,-.2l.4,-.2l6.3,-2.9l.3,-.1v.3l-.1,.1l-6.3,3l-.2,-.4h.2l6.3,2.9l-.2,.4l-.1,-.2v-2.9Z" class="g1_194"/>
<path d="M504.3,542.5h.4v-2.9h-.4Z" class="g1_194"/>
<path d="M504.5,542.7h.2v-.4h-.2Z" class="g1_194"/>
<path d="M504.7,542.7h32.5v-.4H504.7Z" class="g1_194"/>
<path d="M467,846.2h.4V819H467Z" class="g1_194"/>
<path d="M451.4,846.5v3.2l-.3,-.1l-6.2,-3l-.4,-.1l.4,-.2l6.2,-3l.3,-.1v.3l-.1,.2l-6.3,2.9l-.1,-.3h.1l6.3,2.9l-.2,.4l-.1,-.2v-2.9Z" class="g1_194"/>
<path d="M451,846.5h.4v-3H451Z" class="g1_194"/>
<path d="M451.2,846.6h.2v-.3h-.2Z" class="g1_194"/>
<path d="M451.4,846.6h16v-.3h-16Z" class="g1_194"/>
</svg>