<?xml version="1.0" encoding="UTF-8" standalone="no"?>
<!DOCTYPE svg PUBLIC "-//W3C//DTD SVG 1.1//EN"
"http://www.w3.org/Graphics/SVG/1.1/DTD/svg11.dtd">
<svg viewBox="0 0 811 1017" version="1.1" xmlns="http://www.w3.org/2000/svg" xmlns:xlink="http://www.w3.org/1999/xlink">
<defs>
<clipPath id="c0_358"><path d="M142.4,293V82.5h330V293Z"/></clipPath>
<style type="text/css"><![CDATA[
.g0_358{
fill: #0E0E0E;
}
.g1_358{
fill: #000;
}
]]></style>
</defs>
<image clip-path="url(#c0_358)" preserveAspectRatio="none" x="142" y="83" width="330" height="210" xlink:href="img/1.jpg"/>
<path d="M315.7,682.5c0,.2,.1,.3,0,.5c-.1,.4,-.3,.8,-.5,1.2l-.8,2.1l-1.7,-4.6h-.2l-1.9,4.6l-.9,-3.1c-.1,-.1,-.1,-.3,-.1,-.4c0,-.1,-.1,-.2,-.1,-.3c0,-.4,.5,-.6,1,-.6v-.2h-3.2v.2c.3,0,.6,.2,.7,.4c.2,.2,.4,.5,.5,.8l1.5,5.1h.2l1.9,-4.8h.1l1.6,4.8h.2l1.9,-4.7c.2,-.5,.3,-.9,.5,-1.2c.2,-.2,.5,-.4,.8,-.4v-.2h-2.4v.2c.5,0,.9,.2,.9,.6Z" class="g0_358"/>
<path d="M319.8,686.4v-2.5c0,-.3,.1,-.6,.2,-.8c.4,-.5,1,-1.2,1.9,-1.2c1.1,0,1.2,1.4,1.2,2.8v1.8c0,.3,0,.5,0,.7c-.1,.6,-.3,.6,-1,.7v.2h3.2v-.2c-.2,0,-.4,0,-.5,-.1c-.5,-.1,-.5,-.7,-.5,-1.4v-2.2c0,-.9,0,-1.4,-.4,-1.9c-.3,-.4,-.9,-.7,-1.7,-.7c-1,0,-1.9,.6,-2.3,1.2h-.1v-5.6l-2.2,.4v.2c.4,0,.8,.2,.9,.5c.1,0,.1,.1,.1,.2c0,.1,0,.3,0,.6c.1,.3,.1,.7,.1,1.2v6.2c0,.5,0,.9,-.2,1.1c-.2,.3,-.5,.3,-.9,.3v.2h3.2v-.2c-.2,0,-.4,0,-.5,-.1c-.5,-.1,-.5,-.7,-.5,-1.4Z" class="g0_358"/>
<path d="M330.6,683.4c0,.1,0,.2,0,.2c-.1,.2,-.4,.2,-.7,.2h-2.2c.2,-1.1,.6,-2,1.6,-1.9c1,0,1.3,.8,1.3,1.5Zm-.9,4.5c-1.5,0,-2.2,-1.6,-2.2,-3.1c0,-.2,.1,-.6,.1,-.7h3.9c.3,0,.4,-.1,.4,-.3c0,-1.5,-.9,-2.2,-2.4,-2.2c-.5,0,-.9,.1,-1.4,.2c-1.1,.6,-1.9,1.6,-1.9,3.2c0,1.9,1.2,3.2,3.1,3.2c1.4,0,1.8,-.5,2.6,-1.2l-.2,-.2c-.5,.5,-1.1,1.1,-2,1.1Z" class="g0_358"/>
<path d="M335,682.8v0l-.2,-1.2l-1.9,.5v.2c.2,0,.5,0,.7,.2c.3,.3,.3,.4,.3,2v2c0,.3,0,.5,0,.7c0,.6,-.4,.7,-1,.7v.2h3.2v-.2c-.2,0,-.4,0,-.6,-.1c-.5,-.1,-.4,-.7,-.4,-1.4v-2c0,-.6,0,-1,.2,-1.3c.3,-.6,1,-1.2,1.8,-1.2c1.3,0,1.3,1.5,1.3,2.8v1.8c0,.3,0,.5,-.1,.7c0,.6,-.3,.7,-.9,.7v.2h3.1v-.2c-.2,0,-.4,0,-.6,-.1c-.5,-.1,-.4,-.7,-.4,-1.4v-2.2c0,-.9,0,-1.5,-.4,-1.9c-.3,-.4,-.9,-.7,-1.7,-.7c-1.1,0,-1.8,.6,-2.4,1.2Z" class="g0_358"/>
<path d="M348.8,687.9c-1.9,0,-1.9,-2.7,-1.9,-4.9c0,-2.2,0,-5.1,1.9,-5.1c1.9,0,1.9,2.9,1.9,5.1c0,2.2,0,4.9,-1.9,4.9Zm0,-10.3c-2.6,0,-3.4,2.7,-3.4,5.4c0,2.6,.9,5.2,3.4,5.2c2.6,0,3.4,-2.6,3.4,-5.2c0,-2.7,-.8,-5.4,-3.4,-5.4Z" class="g0_358"/>
<path d="M366.3,688v-.8l-6.2,-2.9l6.2,-2.9v-.8l-7.6,3.5v.3l7.6,3.6Z" class="g0_358"/>
<path d="M379.3,682.5c0,-.5,-.5,-.9,-1,-.9c-.4,0,-.7,.1,-1,.3c-.3,.3,-.6,.6,-.8,.9c0,-.6,-.5,-1.2,-1.1,-1.2c-1.1,0,-2.1,1.2,-2.4,2l.2,.1c.3,-.5,1.1,-1.7,1.9,-1.7c.3,0,.4,.5,.4,.9c0,.3,0,.7,-.2,1.2l-.3,1.2c-.2,.6,-.4,1.3,-.7,1.7c-.2,.3,-.5,.7,-.8,.7c-.4,0,-.8,-.1,-.7,-.5c.1,-.3,.1,-.7,-.4,-.7c-.4,0,-.6,.3,-.6,.8c0,.5,.5,.9,1.1,.9c1,0,1.7,-.8,2.1,-1.4c.1,.8,.5,1.4,1.4,1.4c1.1,0,2,-1.2,2.4,-1.8l-.2,-.2c-.5,.6,-1.1,1.6,-1.9,1.6c-.5,0,-.7,-.6,-.7,-1.2c0,-.3,.1,-.8,.2,-1.3l.2,-.7c.1,-.6,.3,-1.3,.6,-1.7c.2,-.2,.6,-.9,.9,-.9c.4,0,.4,.3,.4,.6c0,.4,.1,.6,.4,.6c.4,0,.6,-.3,.6,-.7Z" class="g0_358"/>
<path d="M385.5,688.9h7.6v-.8h-7.6Zm7.6,-1.9v-.8l-6.2,-2.9l6.2,-2.9v-.9l-7.6,3.6v.3l7.6,3.6Z" class="g0_358"/>
<path d="M400.6,678.4v.2c.5,0,1.1,.1,1.3,.2c.5,.2,.4,.4,.5,1v6.5c0,.3,0,.6,-.1,.8c-.1,.6,-.9,.7,-1.6,.8v.2h4.7v-.2c-.5,-.1,-1.3,-.1,-1.5,-.4c-.2,-.3,-.2,-.7,-.2,-1.3v-8.6c-.8,.4,-2.1,.7,-3.1,.8Z" class="g0_358"/>
<path d="M413,683.8c.6,0,.9,-.3,.9,-.8c0,-.5,-.3,-.9,-.9,-.9c-.4,0,-.8,.4,-.8,.9c0,.4,.4,.8,.8,.8Zm0,4.4c.6,0,.9,-.4,.9,-.9c0,-.5,-.3,-.8,-.9,-.8c-.4,0,-.8,.3,-.8,.8c0,.5,.4,.9,.8,.9Z" class="g0_358"/>
<path d="M422.9,681.8c.4,0,.8,.5,.8,1.3c0,.4,-.1,1.3,-.3,1.8c-.3,.9,-1.2,3,-2.2,3c-.4,0,-.8,-.5,-.8,-1.3c0,-.4,.1,-1.2,.2,-1.7c.3,-.9,1.2,-3.1,2.3,-3.1Zm0,8.6c0,0,0,-.2,.1,-.4l2.2,-8.4h-.8l-.4,.9c-.1,-.3,-.3,-.6,-.5,-.7c-.2,-.1,-.4,-.2,-.7,-.2c-1,0,-1.9,.8,-2.4,1.5c-.5,.8,-1.1,1.9,-1.1,3.1c0,1.2,.5,2,1.6,2c.9,0,1.5,-.5,1.8,-1.2h.1l-.9,3.3c-.1,.4,-.5,.6,-1.1,.6v.2h3.1v-.2c-.5,0,-1,-.1,-1,-.5Z" class="g0_358"/>
<path d="M430.3,678.9c0,-.4,-.4,-.8,-.8,-.8c-.4,0,-.8,.4,-.8,.8c0,.4,.4,.7,.8,.7c.4,0,.8,-.3,.8,-.7Zm-2.9,9.3c1.4,0,2.1,-1.2,2.4,-2l-.2,-.1c-.2,.3,-.8,1.4,-1.4,1.4c-.2,0,-.3,-.2,-.3,-.3c0,-.3,.2,-.9,.3,-1.1l.9,-2.8c.2,-.5,.2,-.7,.2,-.9c0,-.4,0,-.8,-.5,-.8c-.9,0,-2,1.1,-2.3,1.8l.2,.2c.2,-.3,.8,-1.1,1.2,-1.1c.2,0,.2,.2,.2,.3c.1,.2,-.1,.7,-.2,.9l-1,2.8c-.1,.4,-.1,.7,-.1,.9c0,.5,.1,.8,.6,.8Z" class="g0_358"/>
<path d="M436.5,677.4c-2.2,1.4,-3.7,3.8,-3.7,6.9c0,2.7,1.6,5.5,3.6,6.8l.2,-.3c-2,-1.5,-2.5,-3.3,-2.5,-6.6c0,-3.3,.6,-5,2.5,-6.5l-.1,-.3Z" class="g0_358"/>
<path d="M444.8,682.5c0,-.5,-.4,-.9,-1,-.9c-.3,0,-.6,.1,-.9,.3c-.3,.3,-.6,.6,-.9,.9c0,-.6,-.4,-1.2,-1,-1.2c-1.2,0,-2.1,1.2,-2.5,2l.2,.1c.4,-.5,1.1,-1.7,2,-1.7c.3,0,.4,.5,.4,.9c0,.3,0,.7,-.2,1.2l-.3,1.2c-.2,.6,-.4,1.3,-.8,1.7c-.1,.3,-.4,.7,-.7,.7c-.5,0,-.8,-.1,-.7,-.5c.1,-.3,.1,-.7,-.4,-.7c-.4,0,-.6,.3,-.6,.8c0,.5,.5,.9,1.1,.9c1,0,1.7,-.8,2.1,-1.4c.1,.8,.5,1.4,1.3,1.4c1.2,0,2.1,-1.2,2.5,-1.8l-.2,-.2c-.5,.6,-1.2,1.6,-2,1.6c-.4,0,-.6,-.6,-.6,-1.2c0,-.3,0,-.8,.2,-1.3l.1,-.7c.1,-.6,.4,-1.3,.7,-1.7c.1,-.2,.5,-.9,.9,-.9c.4,0,.4,.3,.4,.6c-.1,.4,.1,.6,.4,.6c.4,0,.5,-.3,.5,-.7Z" class="g0_358"/>
<path d="M446.1,677.4l-.1,.3c1.9,1.5,2.5,3.2,2.5,6.5c0,3.3,-.6,5.1,-2.5,6.6l.2,.3c2,-1.3,3.6,-4.1,3.6,-6.8c0,-3.1,-1.5,-5.5,-3.7,-6.9Z" class="g0_358"/>
<path d="M456,686.2h7.6v-.8H456Zm0,-3h7.6v-.9H456Z" class="g0_358"/>
<path d="M472.1,668.3v.2c.5,0,1.1,.1,1.3,.2c.5,.2,.5,.4,.5,1v6.5c0,.3,0,.6,-.1,.8c0,.6,-.8,.7,-1.6,.8v.2h4.7v-.2c-.5,-.1,-1.2,-.1,-1.5,-.4c-.2,-.3,-.2,-.7,-.2,-1.3v-8.6c-.8,.4,-2.1,.7,-3.1,.8Z" class="g0_358"/>
<path d="M482.8,674.6h7.6v-.9h-7.6Z" class="g0_358"/>
<path d="M498.2,671.6c-.9,0,-1.4,-.7,-1.4,-1.6c0,-1.1,.5,-2.2,1.8,-2.2c1.6,0,1.8,1.3,1.8,2.6c0,1.2,-.4,2,-1,2.9c-.4,.5,-.9,1.2,-1.5,1.8c-.7,.7,-1.5,1.5,-2.6,2.4v.5h6.3l.5,-2.9h-.4c-.1,.3,-.2,.6,-.3,.8c-.3,.5,-.7,.8,-1.4,.8h-2.9v-.1c.6,-.5,1.3,-1,1.9,-1.5c1,-.9,2.1,-1.9,2.6,-3.1c.3,-.5,.4,-1,.4,-1.6c0,-.4,-.1,-.8,-.2,-1.2c-.5,-1,-1.5,-1.7,-3,-1.7c-1,0,-1.8,.3,-2.4,.8c-.5,.4,-.9,1.1,-.9,2c0,.6,.2,1.1,.5,1.4c.2,.4,.6,.6,1.2,.6c.5,0,1,-.3,1,-.7Z" class="g0_358"/>
<path d="M510.2,672.4c0,-.5,-.5,-.9,-1,-.9c-.3,0,-.6,.1,-1,.3c-.3,.3,-.6,.6,-.8,.9c0,-.6,-.4,-1.2,-1.1,-1.2c-1.1,0,-2.1,1.2,-2.4,2l.2,.1c.4,-.5,1.1,-1.7,2,-1.7c.3,0,.4,.5,.4,1c0,.2,-.1,.6,-.2,1.1l-.4,1.2c-.1,.6,-.4,1.4,-.7,1.8c-.2,.2,-.4,.6,-.8,.6c-.4,0,-.7,-.1,-.6,-.5c.1,-.3,0,-.7,-.4,-.7c-.5,0,-.6,.3,-.6,.8c0,.5,.4,.9,1,.9c1,0,1.8,-.8,2.1,-1.4h.1c.1,.8,.5,1.4,1.3,1.4c1.2,0,2,-1.1,2.5,-1.8l-.2,-.2c-.5,.6,-1.2,1.6,-2,1.6c-.4,0,-.6,-.6,-.6,-1.2c0,-.3,0,-.8,.1,-1.3l.2,-.7c.1,-.6,.4,-1.3,.6,-1.7c.2,-.2,.6,-.9,1,-.9c.4,0,.4,.3,.3,.6c0,.4,.2,.6,.5,.6c.4,0,.5,-.3,.5,-.7Z" class="g0_358"/>
<path d="M517.9,673.7h-3.2v1h3.2V678h1v-3.3h3.3v-1h-3.3v-3.2h-1v3.2Z" class="g0_358"/>
<path d="M533.2,672.4c0,-.5,-.5,-.9,-1,-.9c-.4,0,-.7,.1,-1,.3c-.3,.3,-.6,.6,-.8,.9c0,-.6,-.5,-1.2,-1.1,-1.2c-1.1,0,-2.1,1.2,-2.4,2l.2,.1c.3,-.5,1.1,-1.7,2,-1.7c.2,0,.3,.5,.3,1c0,.2,0,.6,-.2,1.1l-.3,1.2c-.2,.6,-.4,1.4,-.7,1.8c-.2,.2,-.5,.6,-.8,.6c-.4,0,-.8,-.1,-.6,-.5c0,-.3,0,-.7,-.5,-.7c-.4,0,-.6,.3,-.6,.8c0,.5,.5,.9,1.1,.9c1,0,1.7,-.8,2.1,-1.4c.1,.8,.5,1.4,1.4,1.4c1.1,0,2,-1.1,2.4,-1.8l-.2,-.2c-.5,.6,-1.1,1.6,-1.9,1.6c-.5,0,-.7,-.6,-.7,-1.2c0,-.3,.1,-.8,.2,-1.3l.2,-.7c.1,-.6,.3,-1.3,.6,-1.7c.2,-.2,.6,-.9,.9,-.9c.4,0,.4,.3,.4,.6c0,.4,.1,.6,.4,.6c.4,0,.6,-.3,.6,-.7Z" class="g0_358"/>
<path d="M536.5,667.9c-.7,0,-1.1,-.5,-1.1,-1.2c0,-.7,.5,-1.6,1.4,-1.6c1.2,0,1.3,1,1.3,1.9c0,.9,-.3,1.5,-.7,2.1c-.3,.4,-.7,.9,-1.2,1.4c-.5,.5,-1.1,1.1,-1.8,1.7v.4h4.5l.4,-2.1H539c-.1,.2,-.1,.4,-.2,.5c-.2,.4,-.5,.6,-1,.6h-2.1c.4,-.4,.9,-.8,1.3,-1.1c.8,-.7,1.6,-1.4,2,-2.3c.2,-.4,.3,-.8,.3,-1.2c0,-.3,-.1,-.6,-.2,-.8c-.4,-.8,-1.1,-1.3,-2.2,-1.3c-.7,0,-1.3,.3,-1.7,.6c-.4,.3,-.7,.8,-.7,1.5c0,.4,.1,.8,.3,1c.2,.2,.5,.4,.9,.4c.4,0,.7,-.2,.8,-.5Z" class="g0_358"/>
<path d="M470.2,684.7h70.5v-.9H470.2Z" class="g0_358"/>
<path d="M508.7,692.8c0,-.6,-.5,-1,-1,-1c-.3,0,-.7,.2,-1,.4c-.3,.2,-.6,.5,-.8,.9c0,-.7,-.4,-1.3,-1.1,-1.3c-1.1,0,-2.1,1.2,-2.4,2l.2,.1c.4,-.5,1.1,-1.7,2,-1.7c.2,0,.4,.5,.4,1c0,.3,-.1,.6,-.2,1.1l-.4,1.2c-.1,.6,-.4,1.4,-.7,1.8c-.2,.2,-.4,.7,-.8,.7c-.4,0,-.7,-.1,-.6,-.5c.1,-.3,0,-.8,-.4,-.8c-.5,0,-.6,.3,-.6,.8c0,.6,.4,.9,1,.9c1,0,1.7,-.7,2.1,-1.4h.1c.1,.8,.5,1.4,1.3,1.4c1.2,0,2,-1.1,2.5,-1.8l-.2,-.2c-.5,.7,-1.2,1.7,-2,1.7c-.4,0,-.7,-.6,-.7,-1.2c0,-.4,.1,-.8,.2,-1.4l.2,-.7c.1,-.6,.4,-1.2,.6,-1.6c.2,-.3,.6,-1,1,-1c.4,0,.3,.3,.3,.6c0,.4,.2,.6,.5,.6c.3,0,.5,-.3,.5,-.6Z" class="g0_358"/>
<path d="M543.7,687.3c0,.4,.3,.8,.7,.8c.2,0,.3,-.1,.4,-.1c0,.4,-.1,.7,-.3,1c-.2,.3,-.6,.6,-1,1l.3,.4c.3,-.2,.6,-.5,.8,-.7c.5,-.4,1,-1,1,-1.9c0,-.9,-.3,-1.3,-1,-1.3c-.5,0,-.9,.3,-.9,.8Zm.9,-3.5c.5,0,.9,-.4,.9,-.8c0,-.5,-.4,-.9,-.9,-.9c-.5,0,-.9,.4,-.9,.9c0,.5,.4,.8,.9,.8Z" class="g0_358"/>
<path d="M364.2,711.3c0,.3,.1,.4,0,.6c-.1,.3,-.3,.7,-.5,1.2l-.8,2h-.1l-1.6,-4.5H361l-1.9,4.5l-.9,-3c-.1,-.2,-.1,-.3,-.1,-.4c-.1,-.1,-.1,-.3,-.1,-.3c0,-.5,.4,-.6,.9,-.6v-.2h-3.1v.2c.3,0,.6,.1,.7,.3c.2,.2,.4,.5,.5,.9l1.5,5h.2l1.9,-4.8v.1l1.7,4.7h.2l1.8,-4.6c.2,-.6,.4,-.9,.6,-1.2c.1,-.2,.5,-.4,.8,-.4v-.2h-2.4v.2c.5,0,.9,.1,.9,.5Z" class="g0_358"/>
<path d="M368.3,715.3v-2.5c0,-.4,.1,-.7,.2,-.9c.4,-.5,1,-1.1,1.9,-1.1c1.1,0,1.2,1.3,1.2,2.8v1.7c0,.4,0,.6,0,.8c-.1,.6,-.3,.6,-1,.6v.2h3.2v-.2c-.2,0,-.4,0,-.5,0c-.5,-.2,-.5,-.8,-.5,-1.4v-2.2c0,-.9,-.1,-1.5,-.4,-2c-.3,-.4,-.9,-.7,-1.7,-.7c-1,0,-1.9,.6,-2.4,1.3V706l-2.2,.4v.2c.3,0,.8,.3,.9,.5q0,.1,.1,.2c0,.2,0,.4,0,.7c0,.3,0,.6,0,1.1v6.2c0,.5,0,.9,-.1,1.2c-.2,.2,-.5,.2,-.9,.2v.2h3.2v-.2c-.2,0,-.4,0,-.5,0c-.5,-.2,-.5,-.7,-.5,-1.4Z" class="g0_358"/>
<path d="M379.1,712.3c0,0,0,.1,0,.2c-.1,.2,-.5,.1,-.7,.1h-2.2c.1,-1,.6,-1.9,1.6,-1.9c1,0,1.3,.8,1.3,1.6Zm-.9,4.4c-1.5,0,-2.2,-1.5,-2.2,-3.1c0,-.1,.1,-.5,.1,-.7H380c.3,0,.4,0,.4,-.2c0,-1.6,-.9,-2.3,-2.4,-2.3c-.5,0,-1,.1,-1.4,.3c-1.1,.5,-1.9,1.5,-1.9,3.1c0,1.9,1.2,3.3,3.1,3.2c1.4,0,1.8,-.4,2.6,-1.2l-.2,-.2c-.5,.6,-1.2,1.1,-2,1.1Z" class="g0_358"/>
<path d="M383.5,711.7v0l-.2,-1.3l-1.9,.5v.2c.2,0,.5,.1,.7,.3c.2,.2,.3,.4,.3,1.9v2.1c0,.3,0,.5,0,.7c0,.5,-.4,.6,-1,.6v.2h3.2v-.2c-.2,0,-.4,0,-.6,0c-.5,-.2,-.4,-.7,-.4,-1.4v-2.1c0,-.5,0,-.9,.2,-1.3c.3,-.5,1,-1.1,1.8,-1.1c1.3,0,1.2,1.4,1.2,2.7v1.9c0,.3,0,.5,0,.7c0,.5,-.4,.6,-.9,.6v.2H389v-.2c-.3,0,-.4,0,-.6,0c-.5,-.2,-.4,-.7,-.4,-1.4V713c0,-.8,-.1,-1.4,-.4,-1.9c-.3,-.4,-.9,-.7,-1.7,-.7c-1.1,0,-1.8,.6,-2.4,1.3Z" class="g0_358"/>
<path d="M400.3,711.4c0,-.5,-.4,-1,-1,-1c-.3,0,-.6,.2,-.9,.4c-.3,.2,-.6,.5,-.9,.9c0,-.7,-.4,-1.3,-1,-1.3c-1.2,0,-2.1,1.2,-2.5,2l.2,.1c.4,-.5,1.1,-1.7,2,-1.7c.3,0,.4,.6,.4,1c0,.3,0,.7,-.2,1.1l-.3,1.2c-.2,.6,-.4,1.4,-.8,1.8c-.1,.3,-.4,.7,-.7,.7c-.5,0,-.8,-.1,-.7,-.5c.1,-.3,.1,-.8,-.4,-.8c-.4,0,-.6,.4,-.6,.8c0,.6,.5,.9,1.1,.9c1,0,1.7,-.7,2.1,-1.4c.1,.8,.5,1.4,1.3,1.4c1.2,0,2.1,-1.1,2.5,-1.8l-.2,-.2c-.5,.7,-1.2,1.7,-2,1.7c-.4,0,-.6,-.6,-.6,-1.2c0,-.4,0,-.8,.2,-1.4l.1,-.7c.1,-.6,.4,-1.2,.7,-1.6c.1,-.3,.5,-1,.9,-1c.4,0,.4,.3,.4,.6c-.1,.4,.1,.6,.4,.6c.4,0,.5,-.3,.5,-.6Z" class="g0_358"/>
<path d="M414.3,713.3V713l-7.6,-3.6v.8l6.2,2.9l-6.2,2.9v.8l7.6,-3.5Z" class="g0_358"/>
<path d="M422.1,707.2v.2c.4,0,1.1,.1,1.3,.2c.4,.2,.4,.4,.4,1v6.5c0,.3,0,.6,0,.8c-.1,.7,-.9,.8,-1.7,.8v.2h4.7v-.2c-.5,0,-1.2,-.1,-1.4,-.3c-.2,-.3,-.2,-.8,-.2,-1.4v-8.5c-.8,.4,-2.2,.7,-3.1,.7Z" class="g0_358"/>
<path d="M434.5,712.7c.5,0,.9,-.4,.9,-.9c0,-.5,-.4,-.9,-.9,-.9c-.5,0,-.8,.4,-.8,.9c0,.5,.3,.9,.8,.9Zm0,4.4c.5,0,.9,-.4,.9,-.9c0,-.5,-.4,-.9,-.9,-.9c-.5,0,-.8,.4,-.8,.9c0,.5,.3,.9,.8,.9Z" class="g0_358"/>
<path d="M444.3,710.7c.5,0,.9,.4,.9,1.2c0,.5,-.2,1.4,-.3,1.8c-.3,1,-1.2,3,-2.2,3c-.4,0,-.8,-.5,-.8,-1.2c0,-.5,0,-1.2,.2,-1.7c.3,-1,1.1,-3.1,2.2,-3.1Zm0,8.6c0,-.1,.1,-.3,.1,-.5l2.3,-8.4h-.9l-.3,.9c-.1,-.3,-.3,-.5,-.5,-.7c-.2,-.1,-.4,-.2,-.7,-.2c-1.1,0,-1.9,.9,-2.4,1.5c-.6,.8,-1.1,1.9,-1.1,3.2c0,1.1,.4,1.9,1.5,1.9c.9,0,1.5,-.5,1.9,-1.1h.1l-.9,3.2c-.2,.5,-.5,.6,-1.1,.6l-.1,.2h3.1l.1,-.2c-.5,0,-1.1,0,-1.1,-.4Z" class="g0_358"/>
<path d="M451.7,707.7c0,-.4,-.3,-.7,-.7,-.7c-.5,0,-.8,.3,-.8,.7c0,.4,.4,.8,.8,.8c.3,0,.7,-.4,.7,-.8Zm-2.8,9.3c1.3,0,2,-1.1,2.4,-1.9l-.3,-.2c-.2,.4,-.7,1.5,-1.3,1.5c-.2,0,-.4,-.3,-.4,-.4c0,-.3,.2,-.9,.3,-1.1l1,-2.8c.1,-.4,.2,-.6,.2,-.9c0,-.4,0,-.8,-.5,-.8c-.9,0,-2.1,1.2,-2.4,1.9l.3,.1c.2,-.3,.8,-1.1,1.1,-1.1c.2,0,.3,.2,.3,.3c0,.3,-.1,.7,-.2,1l-1,2.8c-.1,.3,-.2,.7,-.2,.8c0,.6,.2,.8,.7,.8Z" class="g0_358"/>
<path d="M457.9,706.3c-2.1,1.4,-3.7,3.8,-3.7,6.8c0,2.8,1.6,5.6,3.7,6.8l.2,-.2c-2,-1.6,-2.6,-3.4,-2.6,-6.6c0,-3.3,.6,-5.1,2.6,-6.6l-.2,-.2Z" class="g0_358"/>
<path d="M466.3,711.4c0,-.5,-.5,-1,-1,-1c-.3,0,-.6,.2,-1,.4c-.3,.2,-.6,.5,-.8,.9c0,-.7,-.4,-1.3,-1.1,-1.3c-1.1,0,-2.1,1.2,-2.4,2l.2,.1c.4,-.5,1.1,-1.7,2,-1.7c.3,0,.4,.6,.4,1c0,.3,-.1,.7,-.2,1.1l-.4,1.2c-.1,.6,-.4,1.4,-.7,1.8c-.1,.3,-.4,.7,-.8,.7c-.4,0,-.7,-.1,-.6,-.5c.1,-.3,0,-.8,-.4,-.8c-.5,0,-.6,.4,-.6,.8c0,.6,.4,.9,1,.9c1,0,1.8,-.7,2.1,-1.4h.1c.1,.8,.5,1.4,1.3,1.4c1.2,0,2,-1.1,2.5,-1.8l-.2,-.2c-.5,.7,-1.2,1.7,-2,1.7c-.4,0,-.6,-.6,-.6,-1.2c0,-.4,0,-.8,.1,-1.4l.2,-.7c.1,-.6,.4,-1.2,.6,-1.6c.2,-.3,.6,-1,1,-1c.4,0,.4,.3,.3,.6c0,.4,.2,.6,.5,.6c.4,0,.5,-.3,.5,-.6Z" class="g0_358"/>
<path d="M467.6,706.3l-.2,.2c2,1.5,2.6,3.3,2.6,6.6c0,3.2,-.6,5,-2.6,6.6l.2,.2c2.1,-1.2,3.7,-4,3.7,-6.8c0,-3,-1.6,-5.4,-3.7,-6.8Z" class="g0_358"/>
<path d="M477.5,715h7.6v-.8h-7.6Zm0,-3h7.6v-.8h-7.6Z" class="g0_358"/>
<path d="M494,716.8c-1.9,0,-1.9,-2.7,-1.9,-4.9c0,-2.2,0,-5.2,1.9,-5.2c1.9,0,1.9,3,1.9,5.2c0,2.2,0,4.9,-1.9,4.9Zm0,-10.3c-2.6,0,-3.4,2.7,-3.4,5.3c0,2.7,.9,5.3,3.4,5.3c2.6,0,3.4,-2.6,3.4,-5.3c0,-2.7,-.8,-5.3,-3.4,-5.3Z" class="g0_358"/>
<path d="M422.8,902.7h.3V876.2h-.3Z" class="g1_358"/>
<path d="M398.6,888.3v3.3l-.3,-.1l-6.3,-3l-.4,-.2l.4,-.1l6.3,-3l.3,-.1v.3l-.1,.2l-6.4,2.9l-.1,-.3h.1l6.4,2.9l-.2,.4l-.1,-.2v-3Z" class="g1_358"/>
<path d="M398.2,888.3h.4v-2.9h-.4Z" class="g1_358"/>
<path d="M398.4,888.5h.2v-.3h-.2Z" class="g1_358"/>
<path d="M398.6,888.5h24.5v-.3H398.6Z" class="g1_358"/>
</svg>