<?xml version="1.0" encoding="UTF-8" standalone="no"?>
<!DOCTYPE svg PUBLIC "-//W3C//DTD SVG 1.1//EN"
"http://www.w3.org/Graphics/SVG/1.1/DTD/svg11.dtd">
<svg viewBox="0 0 811 1017" version="1.1" xmlns="http://www.w3.org/2000/svg" xmlns:xlink="http://www.w3.org/1999/xlink">
<defs>
<clipPath id="c0_240"><path d="M343.3,855.9V741.3H509.8V855.9Z"/></clipPath>
<style type="text/css"><![CDATA[
.g0_240{
fill: #0E0E0E;
}
]]></style>
</defs>
<path d="M367.6,411.8c1.3,0,2.1,-1.3,2.5,-2.1l-.2,-.2c-.3,.4,-.9,1.7,-1.7,1.7c-.2,0,-.3,-.5,-.3,-.6c0,-.2,.1,-.6,.2,-1l1.1,-4h1.3l.1,-.3h-1.3l.4,-1.6h-1l-.5,1.6h-1l-.1,.3h1l-.9,3.6c-.1,.5,-.2,.9,-.3,1.1c0,.3,-.1,.5,-.1,.7c0,.5,.3,.8,.8,.8Z" class="g0_240"/>
<path d="M376.1,409.8h7.7v-.9h-7.7Zm0,-3h7.7v-.9h-7.7Z" class="g0_240"/>
<path d="M392.7,411.5c-1.9,0,-1.9,-2.7,-1.9,-4.9c0,-2.2,0,-5.1,1.9,-5.1c1.9,0,1.9,2.9,1.9,5.1c0,2.2,0,4.9,-1.9,4.9Zm0,-10.3c-2.6,0,-3.4,2.7,-3.4,5.4c0,2.6,.8,5.2,3.4,5.2c2.6,0,3.4,-2.6,3.4,-5.2c0,-2.7,-.8,-5.4,-3.4,-5.4Z" class="g0_240"/>
<path d="M398.4,410.9c0,.4,.2,.8,.7,.8c.1,0,.2,-.1,.4,-.1c0,.3,-.1,.7,-.3,1c-.2,.3,-.6,.6,-1.1,1l.3,.4c.4,-.2,.7,-.5,.9,-.7c.5,-.5,.9,-1,.9,-1.9c0,-.9,-.3,-1.4,-.9,-1.4c-.5,0,-.9,.4,-.9,.9Z" class="g0_240"/>
<path d="M412,406.1c0,-.5,-.4,-.9,-1,-.9c-.3,0,-.6,.1,-.9,.3c-.3,.2,-.7,.5,-.9,.9c0,-.7,-.4,-1.2,-1,-1.2c-1.2,0,-2.1,1.2,-2.5,1.9l.2,.2c.4,-.5,1.1,-1.7,2,-1.7c.3,0,.4,.5,.4,.9c0,.3,-.1,.7,-.2,1.2l-.3,1.2c-.2,.5,-.5,1.3,-.8,1.7c-.1,.3,-.4,.7,-.8,.7c-.4,0,-.7,-.1,-.6,-.5c.1,-.3,0,-.7,-.4,-.7c-.4,0,-.6,.3,-.6,.7c0,.6,.5,1,1,1c1.1,0,1.8,-.8,2.2,-1.5c.1,.9,.5,1.5,1.3,1.5c1.2,0,2.1,-1.2,2.5,-1.9l-.2,-.1c-.5,.6,-1.2,1.6,-2,1.6c-.4,0,-.6,-.6,-.6,-1.2c0,-.3,0,-.8,.2,-1.3l.1,-.8c.1,-.5,.4,-1.2,.7,-1.6c.1,-.3,.5,-.9,.9,-.9c.4,0,.4,.3,.4,.6c-.1,.4,.1,.6,.4,.6c.4,0,.5,-.3,.5,-.7Z" class="g0_240"/>
<path d="M416.9,409.8h7.6v-.9h-7.6Zm0,-3h7.6v-.9h-7.6Z" class="g0_240"/>
<path d="M436.5,406.1c0,-.5,-.5,-.9,-1,-.9c-.3,0,-.6,.1,-1,.3c-.3,.2,-.6,.5,-.8,.9c0,-.7,-.4,-1.2,-1.1,-1.2c-1.1,0,-2.1,1.2,-2.4,1.9l.2,.2c.4,-.5,1.1,-1.7,2,-1.7c.3,0,.4,.5,.4,.9c0,.3,-.1,.7,-.2,1.2l-.4,1.2c-.1,.5,-.4,1.3,-.7,1.7c-.2,.3,-.4,.7,-.8,.7c-.4,0,-.7,-.1,-.6,-.5c.1,-.3,0,-.7,-.4,-.7c-.5,0,-.6,.3,-.6,.7c0,.6,.4,1,1,1c1,0,1.8,-.8,2.1,-1.5h.1c.1,.9,.5,1.5,1.3,1.5c1.2,0,2,-1.2,2.5,-1.9l-.2,-.1c-.5,.6,-1.2,1.6,-2,1.6c-.4,0,-.6,-.6,-.6,-1.2c0,-.3,0,-.8,.1,-1.3l.2,-.8c.1,-.5,.4,-1.2,.6,-1.6c.2,-.3,.6,-.9,1,-.9c.4,0,.4,.3,.3,.6c0,.4,.2,.6,.5,.6c.4,0,.5,-.3,.5,-.7Z" class="g0_240"/>
<path d="M438.1,406.9v.2c.3,0,.8,0,.9,.1c.3,.2,.3,.3,.3,.8v4.7c0,.2,0,.4,0,.6c-.1,.5,-.6,.5,-1.2,.6v.1h3.4v-.1c-.3,-.1,-.9,-.1,-1,-.3c-.2,-.2,-.2,-.5,-.2,-.9v-6.3c-.6,.3,-1.5,.5,-2.2,.5Z" class="g0_240"/>
<path d="M445,410.9c0,.4,.2,.8,.7,.8c.1,0,.2,-.1,.4,-.1c0,.3,-.1,.7,-.3,1c-.3,.3,-.6,.6,-1.1,1l.3,.4c.4,-.2,.7,-.5,.9,-.7c.5,-.5,.9,-1,.9,-1.9c0,-.9,-.3,-1.4,-.9,-1.4c-.6,0,-.9,.4,-.9,.9Z" class="g0_240"/>
<path d="M450.4,413.8c0,.6,.4,1,1.1,1c.4,0,.8,-.2,1.3,-.6c.8,-.7,2,-2.2,2.8,-3.4c.3,-.7,.7,-1.3,1,-1.8c.4,-.8,1.1,-2.2,1.1,-3c0,-.2,0,-.4,-.1,-.6c-.1,-.2,-.3,-.2,-.5,-.2c-.1,0,-.3,.1,-.4,.2c-.2,.1,-.2,.3,-.2,.6c0,.5,.2,.9,.2,1.3c0,.6,-.2,1.2,-.5,1.6c-.2,.5,-.4,.9,-.8,1.5h-.1l-.3,-2c-.1,-.5,-.3,-1.6,-.4,-2c-.2,-.7,-.3,-1.2,-1.3,-1.2c-1.2,0,-1.4,1.7,-1.6,2.5l.3,.1c.1,-.5,.5,-2.3,1,-2.3c.3,0,.5,1,.6,1.3c0,.3,.1,.7,.2,1.4l.6,3.5c-.3,.8,-1.2,1.6,-1.8,2.1c-.2,.2,-.5,.3,-.7,.3c-.1,0,-.2,-.1,-.2,-.2c-.2,-.3,-.2,-.7,-.7,-.7c-.4,0,-.6,.2,-.6,.6Z" class="g0_240"/>
<path d="M463.2,409.8h7.6v-.9h-7.6Zm0,-3h7.6v-.9h-7.6Z" class="g0_240"/>
<path d="M474.6,413.8c0,.6,.5,1,1.1,1c.4,0,.8,-.2,1.3,-.6c.8,-.7,2,-2.2,2.8,-3.4c.3,-.7,.7,-1.3,1,-1.8c.4,-.8,1.1,-2.2,1.1,-3c0,-.2,0,-.4,-.1,-.6c-.1,-.2,-.3,-.2,-.5,-.2c-.1,0,-.3,.1,-.4,.2c-.2,.1,-.2,.3,-.2,.6c0,.5,.2,.9,.2,1.3c0,.6,-.2,1.2,-.5,1.6c-.2,.5,-.4,.9,-.8,1.5h-.1l-.3,-2c-.1,-.5,-.3,-1.6,-.4,-2c-.2,-.7,-.3,-1.2,-1.3,-1.2c-1.2,0,-1.4,1.7,-1.6,2.5l.3,.1c.1,-.5,.5,-2.3,1,-2.3c.3,0,.5,1,.6,1.3c0,.3,.1,.7,.2,1.4l.6,3.5c-.3,.8,-1.2,1.6,-1.8,2.1c-.2,.2,-.5,.3,-.7,.3c-.1,0,-.2,-.1,-.2,-.2c-.2,-.3,-.2,-.7,-.7,-.7c-.4,0,-.6,.2,-.6,.6Z" class="g0_240"/>
<path d="M483.5,406.9v.2c.4,0,.8,0,1,.1c.3,.2,.3,.3,.3,.8v4.7c0,.2,0,.4,0,.6c-.1,.5,-.7,.5,-1.2,.6v.1H487v-.1c-.4,-.1,-.9,-.1,-1,-.3c-.2,-.2,-.2,-.5,-.2,-.9v-6.3c-.6,.3,-1.6,.5,-2.3,.5Z" class="g0_240"/>
<path d="M367.6,443.7c1.3,0,2.1,-1.3,2.5,-2.1l-.2,-.2c-.3,.4,-.9,1.7,-1.7,1.7c-.2,0,-.3,-.5,-.3,-.6c0,-.3,.1,-.6,.2,-1l1.1,-4h1.3l.1,-.3h-1.3l.4,-1.6h-1l-.5,1.6h-1l-.1,.3h1l-.9,3.6c-.1,.5,-.2,.8,-.3,1.1c0,.3,-.1,.5,-.1,.7c0,.5,.3,.8,.8,.8Z" class="g0_240"/>
<path d="M376.1,441.6h7.7v-.8h-7.7Zm0,-3h7.7v-.8h-7.7Z" class="g0_240"/>
<path d="M392.3,423.7v.2c.4,0,1.1,.1,1.3,.2c.4,.3,.4,.4,.4,1v6.6c0,.3,0,.5,0,.7c-.1,.7,-.9,.8,-1.6,.8v.2H397v-.2c-.5,0,-1.2,0,-1.4,-.3c-.2,-.3,-.2,-.8,-.2,-1.3V423c-.8,.4,-2.2,.7,-3.1,.7Z" class="g0_240"/>
<path d="M390.3,440.1h8.4v-.8h-8.4Z" class="g0_240"/>
<path d="M394.2,453.6c-1,0,-1.7,-.9,-1.7,-1.9c0,-.7,.4,-1.3,1.1,-1.3c-.1,-.4,-.6,-.6,-1,-.6c-.2,0,-.4,.1,-.6,.2c-.6,.2,-1,.8,-1,1.5c0,.4,.1,.7,.3,1c.5,.9,1.5,1.4,2.9,1.4c1.1,0,2,-.3,2.6,-.8c.5,-.5,1,-1.2,1,-2.1c0,-.4,-.1,-.7,-.2,-1c-.3,-.9,-1.1,-1.5,-2.1,-1.7v-.1c.5,-.2,1.1,-.5,1.4,-.9c.3,-.4,.6,-.9,.6,-1.6c0,-.4,-.1,-.7,-.2,-1c-.5,-.9,-1.6,-1.4,-3,-1.4c-.9,0,-1.6,.2,-2.1,.5c-.4,.3,-.8,.8,-.8,1.4c0,.4,.2,.8,.4,1c.2,.2,.5,.4,1,.4c.2,0,.4,0,.6,-.1c.2,-.1,.3,-.2,.3,-.4c-.5,0,-.9,-.4,-.9,-1c0,-.8,.6,-1.5,1.5,-1.5c1,0,1.6,.9,1.6,2.2c0,1.2,-.4,2.4,-1.5,2.4c-.2,-.1,-.5,-.2,-.8,-.2c-.3,0,-.7,.1,-.7,.3c0,.4,.4,.5,.7,.5c.4,0,.7,-.2,.9,-.3c1.3,0,1.6,1.1,1.6,2.4c0,1.4,-.5,2.7,-1.9,2.7Z" class="g0_240"/>
<path d="M401.9,442.7c0,.5,.3,.8,.7,.8c.2,0,.3,0,.4,-.1c0,.4,0,.8,-.3,1.1c-.2,.3,-.5,.6,-1,1l.3,.4c.4,-.3,.6,-.5,.9,-.7c.5,-.5,.9,-1,.9,-1.9c0,-.9,-.3,-1.4,-.9,-1.4c-.6,0,-1,.3,-1,.8Z" class="g0_240"/>
<path d="M415.6,438c0,-.5,-.4,-.9,-1,-.9c-.3,0,-.6,.1,-1,.3c-.3,.2,-.6,.5,-.8,.9c0,-.7,-.4,-1.2,-1.1,-1.2c-1.1,0,-2,1.1,-2.4,1.9l.2,.1c.4,-.5,1.1,-1.7,2,-1.7c.3,0,.4,.6,.4,1c0,.3,-.1,.7,-.2,1.2l-.4,1.1c-.1,.6,-.4,1.4,-.7,1.8c-.1,.3,-.4,.7,-.8,.7c-.4,0,-.7,-.1,-.6,-.5c.1,-.3,0,-.7,-.4,-.7c-.5,0,-.6,.3,-.6,.7c0,.6,.4,1,1,1c1,0,1.8,-.8,2.1,-1.5h.1c.1,.8,.5,1.5,1.3,1.5c1.2,0,2,-1.2,2.5,-1.9l-.2,-.2c-.5,.7,-1.2,1.7,-2,1.7c-.4,0,-.6,-.6,-.6,-1.2c0,-.4,0,-.8,.1,-1.4l.2,-.7c.1,-.6,.4,-1.2,.6,-1.6c.2,-.3,.6,-.9,1,-.9c.4,0,.4,.3,.3,.6c0,.4,.2,.5,.5,.5c.4,0,.5,-.2,.5,-.6Z" class="g0_240"/>
<path d="M416.9,441.6h7.6v-.8h-7.6Zm0,-3h7.6v-.8h-7.6Z" class="g0_240"/>
<path d="M436.5,438c0,-.5,-.5,-.9,-1,-.9c-.3,0,-.6,.1,-1,.3c-.3,.2,-.6,.5,-.8,.9c0,-.7,-.4,-1.2,-1.1,-1.2c-1.1,0,-2.1,1.1,-2.4,1.9l.2,.1c.4,-.5,1.1,-1.7,2,-1.7c.3,0,.4,.6,.4,1c0,.3,-.1,.7,-.2,1.2l-.4,1.1c-.1,.6,-.4,1.4,-.7,1.8c-.2,.3,-.4,.7,-.8,.7c-.4,0,-.7,-.1,-.6,-.5c.1,-.3,0,-.7,-.4,-.7c-.5,0,-.6,.3,-.6,.7c0,.6,.4,1,1,1c1,0,1.8,-.8,2.1,-1.5h.1c.1,.8,.5,1.5,1.3,1.5c1.2,0,2,-1.2,2.5,-1.9l-.2,-.2c-.5,.7,-1.2,1.7,-2,1.7c-.4,0,-.6,-.6,-.6,-1.2c0,-.4,0,-.8,.1,-1.4l.2,-.7c.1,-.6,.4,-1.2,.6,-1.6c.2,-.3,.6,-.9,1,-.9c.4,0,.4,.3,.3,.6c0,.4,.2,.5,.5,.5c.4,0,.5,-.2,.5,-.6Z" class="g0_240"/>
<path d="M439.2,441.2c-.6,0,-1,-.4,-1,-1.1c0,-.8,.4,-1.6,1.3,-1.6c1.2,0,1.3,.9,1.3,1.9c0,.9,-.3,1.4,-.7,2.1c-.3,.4,-.7,.8,-1.1,1.3c-.5,.5,-1.1,1.1,-1.9,1.8v.3h4.6l.4,-2.1h-.3c-.1,.2,-.2,.4,-.3,.6c-.1,.3,-.5,.5,-1,.5h-2.1c.5,-.4,1,-.7,1.4,-1.1c.7,-.6,1.5,-1.4,1.9,-2.2c.2,-.4,.3,-.8,.3,-1.2c0,-.3,-.1,-.6,-.2,-.9c-.3,-.7,-1.1,-1.3,-2.2,-1.3c-.7,0,-1.3,.3,-1.7,.6c-.4,.3,-.7,.8,-.7,1.5c0,.5,.2,.8,.4,1c.2,.3,.5,.5,.9,.5c.4,0,.7,-.2,.7,-.6Z" class="g0_240"/>
<path d="M445,442.7c0,.5,.2,.8,.7,.8c.1,0,.2,0,.4,-.1c0,.4,-.1,.8,-.3,1.1c-.3,.3,-.6,.6,-1.1,1l.3,.4c.4,-.3,.7,-.5,.9,-.7c.5,-.5,.9,-1,.9,-1.9c0,-.9,-.3,-1.4,-.9,-1.4c-.6,0,-.9,.3,-.9,.8Z" class="g0_240"/>
<path d="M450.4,445.7c0,.6,.4,1,1.1,1c.4,0,.8,-.2,1.3,-.6c.8,-.7,2,-2.3,2.8,-3.5c.3,-.6,.7,-1.2,1,-1.8c.4,-.7,1.1,-2.1,1.1,-2.9c0,-.2,0,-.4,-.1,-.6c-.1,-.2,-.3,-.2,-.5,-.2c-.1,0,-.3,0,-.4,.2c-.2,.1,-.2,.3,-.2,.6c0,.4,.2,.9,.2,1.3c0,.6,-.2,1.2,-.5,1.6c-.2,.5,-.4,.9,-.8,1.4h-.1l-.3,-1.9c-.1,-.5,-.3,-1.6,-.4,-2c-.2,-.7,-.3,-1.2,-1.3,-1.2c-1.2,0,-1.4,1.7,-1.6,2.5l.3,.1c.1,-.6,.5,-2.3,1,-2.3c.3,0,.5,1,.6,1.3c0,.3,.1,.7,.2,1.3l.6,3.5c-.3,.8,-1.2,1.7,-1.8,2.2c-.2,.2,-.5,.2,-.7,.2c-.1,0,-.2,0,-.2,-.1c-.2,-.3,-.2,-.8,-.7,-.8c-.4,0,-.6,.3,-.6,.7Z" class="g0_240"/>
<path d="M463.2,441.6h7.6v-.8h-7.6Zm0,-3h7.6v-.8h-7.6Z" class="g0_240"/>
<path d="M474.6,445.7c0,.6,.5,1,1.1,1c.4,0,.8,-.2,1.3,-.6c.8,-.7,2,-2.3,2.8,-3.5c.3,-.6,.7,-1.2,1,-1.8c.4,-.7,1.1,-2.1,1.1,-2.9c0,-.2,0,-.4,-.1,-.6c-.1,-.2,-.3,-.2,-.5,-.2c-.1,0,-.3,0,-.4,.2c-.2,.1,-.2,.3,-.2,.6c0,.4,.2,.9,.2,1.3c0,.6,-.2,1.2,-.5,1.6c-.2,.5,-.4,.9,-.8,1.4h-.1l-.3,-1.9c-.1,-.5,-.3,-1.6,-.4,-2c-.2,-.7,-.3,-1.2,-1.3,-1.2c-1.2,0,-1.4,1.7,-1.6,2.5l.3,.1c.1,-.6,.5,-2.3,1,-2.3c.3,0,.5,1,.6,1.3c0,.3,.1,.7,.2,1.3l.6,3.5c-.3,.8,-1.2,1.7,-1.8,2.2c-.2,.2,-.5,.2,-.7,.2c-.1,0,-.2,0,-.2,-.1c-.2,-.3,-.2,-.8,-.7,-.8c-.4,0,-.6,.3,-.6,.7Z" class="g0_240"/>
<path d="M484.7,441.2c-.6,0,-1,-.4,-1,-1.1c0,-.8,.4,-1.6,1.3,-1.6c1.2,0,1.3,.9,1.3,1.9c0,.9,-.3,1.4,-.7,2.1c-.3,.4,-.7,.8,-1.1,1.3c-.5,.5,-1.1,1.1,-1.9,1.8v.3h4.6l.3,-2.1h-.3c0,.2,-.1,.4,-.2,.6c-.2,.3,-.5,.5,-1,.5h-2.1c.5,-.4,.9,-.7,1.4,-1.1c.7,-.6,1.5,-1.4,1.9,-2.2c.2,-.4,.3,-.8,.3,-1.2c0,-.3,-.1,-.6,-.2,-.9c-.3,-.7,-1.1,-1.3,-2.2,-1.3c-.7,0,-1.3,.3,-1.7,.6c-.4,.3,-.7,.8,-.7,1.5c0,.5,.1,.8,.4,1c.2,.3,.5,.5,.9,.5c.4,0,.7,-.2,.7,-.6Z" class="g0_240"/>
<path d="M367.6,480.5c1.3,0,2.1,-1.3,2.5,-2.1l-.2,-.1c-.3,.4,-.9,1.6,-1.7,1.6c-.2,0,-.3,-.4,-.3,-.6c0,-.2,.1,-.5,.2,-1l1.1,-3.9h1.3l.1,-.4h-1.3l.4,-1.6h-1l-.5,1.6h-1l-.1,.4h1l-.9,3.6c-.1,.4,-.2,.8,-.3,1.1c0,.3,-.1,.5,-.1,.6c0,.6,.3,.8,.8,.8Z" class="g0_240"/>
<path d="M376.1,478.5h7.7v-.8h-7.7Zm0,-3h7.7v-.8h-7.7Z" class="g0_240"/>
<path d="M393.9,463.9c-.9,0,-1.5,-.6,-1.5,-1.6c0,-1,.6,-2.2,1.9,-2.2c1.6,0,1.8,1.3,1.8,2.6c0,1.3,-.4,2,-1,2.9c-.4,.6,-.9,1.2,-1.6,1.9c-.6,.7,-1.5,1.5,-2.5,2.4v.4h6.3l.5,-2.9h-.5c0,.4,-.2,.6,-.3,.8c-.2,.5,-.6,.8,-1.4,.8h-2.8v-.1c.6,-.5,1.3,-1,1.8,-1.4c1.1,-.9,2.1,-1.9,2.7,-3.1c.3,-.6,.4,-1.1,.4,-1.7c0,-.4,-.1,-.8,-.3,-1.1c-.4,-1.1,-1.4,-1.8,-2.9,-1.8c-1,0,-1.9,.4,-2.4,.8c-.5,.5,-1,1.1,-1,2c0,.7,.2,1.1,.5,1.5c.3,.3,.7,.5,1.3,.5c.5,0,.9,-.2,1,-.7Z" class="g0_240"/>
<path d="M390.3,477h8.4v-.8h-8.4Z" class="g0_240"/>
<path d="M394.2,490.5c-1,0,-1.7,-.9,-1.7,-1.9c0,-.7,.4,-1.3,1.1,-1.3c-.1,-.4,-.6,-.6,-1,-.6c-.2,0,-.4,0,-.6,.1c-.6,.2,-1,.8,-1,1.6c0,.3,.1,.6,.3,.9c.5,.9,1.5,1.5,2.9,1.5c1.1,0,2,-.4,2.6,-.9c.5,-.4,1,-1.1,1,-2c0,-.4,-.1,-.7,-.2,-1c-.3,-.9,-1.1,-1.5,-2.1,-1.8V485c.5,-.1,1.1,-.4,1.4,-.9c.3,-.3,.6,-.9,.6,-1.5c0,-.4,-.1,-.7,-.2,-1c-.5,-1,-1.6,-1.4,-3,-1.4c-.9,0,-1.6,.2,-2.1,.5c-.4,.3,-.8,.7,-.8,1.4c0,.4,.2,.8,.4,1c.2,.2,.5,.4,1,.4c.2,0,.4,-.1,.6,-.2c.2,0,.3,-.2,.3,-.3c-.5,0,-.9,-.5,-.9,-1c0,-.9,.6,-1.6,1.5,-1.6c1,0,1.6,1,1.6,2.2c0,1.2,-.4,2.5,-1.5,2.5c-.2,-.1,-.5,-.3,-.8,-.3c-.3,0,-.7,.1,-.7,.4c0,.3,.4,.5,.7,.5c.4,0,.7,-.2,.9,-.3c1.3,0,1.6,1.1,1.6,2.4c0,1.4,-.5,2.7,-1.9,2.7Z" class="g0_240"/>
<path d="M401.9,479.6c0,.4,.3,.8,.7,.8c.2,0,.3,0,.4,-.1c0,.4,0,.7,-.3,1c-.2,.4,-.5,.7,-1,1l.3,.5c.4,-.3,.6,-.5,.9,-.7c.5,-.5,.9,-1,.9,-2c0,-.9,-.3,-1.3,-.9,-1.3c-.6,0,-1,.3,-1,.8Z" class="g0_240"/>
<path d="M415.6,474.9c0,-.6,-.4,-1,-1,-1c-.3,0,-.6,.2,-1,.4c-.3,.2,-.6,.5,-.8,.9c0,-.7,-.4,-1.3,-1.1,-1.3c-1.1,0,-2,1.2,-2.4,2l.2,.1c.4,-.5,1.1,-1.7,2,-1.7c.3,0,.4,.5,.4,1c0,.3,-.1,.6,-.2,1.1l-.4,1.2c-.1,.6,-.4,1.4,-.7,1.8c-.1,.2,-.4,.7,-.8,.7c-.4,0,-.7,-.1,-.6,-.5c.1,-.3,0,-.8,-.4,-.8c-.5,0,-.6,.3,-.6,.8c0,.5,.4,.9,1,.9c1,0,1.8,-.8,2.1,-1.4h.1c.1,.8,.5,1.4,1.3,1.4c1.2,0,2,-1.1,2.5,-1.8l-.2,-.2c-.5,.7,-1.2,1.7,-2,1.7c-.4,0,-.6,-.6,-.6,-1.3c0,-.3,0,-.7,.1,-1.3l.2,-.7c.1,-.6,.4,-1.3,.6,-1.6c.2,-.3,.6,-1,1,-1c.4,0,.4,.3,.3,.6c0,.4,.2,.6,.5,.6c.4,0,.5,-.3,.5,-.6Z" class="g0_240"/>
<path d="M416.9,478.5h7.6v-.8h-7.6Zm0,-3h7.6v-.8h-7.6Z" class="g0_240"/>
<path d="M436.5,474.9c0,-.6,-.5,-1,-1,-1c-.3,0,-.6,.2,-1,.4c-.3,.2,-.6,.5,-.8,.9c0,-.7,-.4,-1.3,-1.1,-1.3c-1.1,0,-2.1,1.2,-2.4,2l.2,.1c.4,-.5,1.1,-1.7,2,-1.7c.3,0,.4,.5,.4,1c0,.3,-.1,.6,-.2,1.1l-.4,1.2c-.1,.6,-.4,1.4,-.7,1.8c-.2,.2,-.4,.7,-.8,.7c-.4,0,-.7,-.1,-.6,-.5c.1,-.3,0,-.8,-.4,-.8c-.5,0,-.6,.3,-.6,.8c0,.5,.4,.9,1,.9c1,0,1.8,-.8,2.1,-1.4h.1c.1,.8,.5,1.4,1.3,1.4c1.2,0,2,-1.1,2.5,-1.8l-.2,-.2c-.5,.7,-1.2,1.7,-2,1.7c-.4,0,-.6,-.6,-.6,-1.3c0,-.3,0,-.7,.1,-1.3l.2,-.7c.1,-.6,.4,-1.3,.6,-1.6c.2,-.3,.6,-1,1,-1c.4,0,.4,.3,.3,.6c0,.4,.2,.6,.5,.6c.4,0,.5,-.3,.5,-.6Z" class="g0_240"/>
<path d="M439.5,482.7c-.8,0,-1.3,-.7,-1.3,-1.4c0,-.6,.3,-1,.8,-1c0,-.3,-.4,-.4,-.7,-.4c-.2,0,-.3,0,-.5,.1c-.4,.1,-.7,.6,-.7,1.1c0,.3,.1,.5,.2,.7c.4,.7,1.2,1.1,2.2,1.1c.8,0,1.4,-.3,1.8,-.6c.5,-.4,.8,-.9,.8,-1.6c0,-.2,-.1,-.4,-.2,-.7c-.2,-.6,-.8,-1.1,-1.5,-1.3c.4,-.1,.8,-.4,1,-.7c.3,-.3,.5,-.7,.5,-1.1c0,-.3,-.1,-.5,-.2,-.7c-.3,-.7,-1.2,-1.1,-2.2,-1.1c-.6,0,-1.1,.2,-1.5,.4c-.3,.2,-.6,.5,-.6,1c0,.3,.1,.6,.3,.7c.2,.2,.4,.3,.7,.3c.2,0,.3,0,.5,-.1c.1,0,.2,-.1,.2,-.2c-.4,0,-.7,-.4,-.7,-.8c0,-.6,.5,-1.1,1.1,-1.1c.8,0,1.2,.7,1.2,1.6c0,.9,-.3,1.8,-1.1,1.8c-.2,-.1,-.4,-.2,-.6,-.2c-.2,0,-.5,.1,-.5,.3c0,.2,.3,.3,.5,.3c.3,0,.5,-.1,.7,-.2c.9,0,1.1,.8,1.1,1.8c0,1,-.3,2,-1.3,2Z" class="g0_240"/>
<path d="M445,479.6c0,.4,.2,.8,.7,.8c.1,0,.2,0,.4,-.1c0,.4,-.1,.7,-.3,1c-.3,.4,-.6,.7,-1.1,1l.3,.5c.4,-.3,.7,-.5,.9,-.7c.5,-.5,.9,-1,.9,-2c0,-.9,-.3,-1.3,-.9,-1.3c-.6,0,-.9,.3,-.9,.8Z" class="g0_240"/>
<path d="M450.4,482.6c0,.6,.4,.9,1.1,.9c.4,0,.8,-.2,1.3,-.6c.8,-.6,2,-2.2,2.8,-3.4c.3,-.6,.7,-1.2,1,-1.8c.4,-.8,1.1,-2.1,1.1,-2.9c0,-.2,0,-.4,-.1,-.6c-.1,-.2,-.3,-.3,-.5,-.3c-.1,0,-.3,.1,-.4,.2c-.2,.2,-.2,.4,-.2,.7c0,.4,.2,.9,.2,1.3c0,.6,-.2,1.1,-.5,1.6c-.2,.5,-.4,.9,-.8,1.4h-.1l-.3,-1.9c-.1,-.6,-.3,-1.6,-.4,-2.1c-.2,-.6,-.3,-1.2,-1.3,-1.2c-1.2,0,-1.4,1.8,-1.6,2.6l.3,.1c.1,-.6,.5,-2.3,1,-2.3c.3,0,.5,1,.6,1.2c0,.3,.1,.7,.2,1.4l.6,3.5c-.3,.8,-1.2,1.7,-1.8,2.2c-.2,.1,-.5,.2,-.7,.2c-.1,0,-.2,0,-.2,-.1c-.2,-.3,-.2,-.8,-.7,-.8c-.4,0,-.6,.3,-.6,.7Z" class="g0_240"/>
<path d="M463.2,478.5h7.6v-.8h-7.6Zm0,-3h7.6v-.8h-7.6Z" class="g0_240"/>
<path d="M474.6,482.6c0,.6,.5,.9,1.1,.9c.4,0,.8,-.2,1.3,-.6c.8,-.6,2,-2.2,2.8,-3.4c.3,-.6,.7,-1.2,1,-1.8c.4,-.8,1.1,-2.1,1.1,-2.9c0,-.2,0,-.4,-.1,-.6c-.1,-.2,-.3,-.3,-.5,-.3c-.1,0,-.3,.1,-.4,.2c-.2,.2,-.2,.4,-.2,.7c0,.4,.2,.9,.2,1.3c0,.6,-.2,1.1,-.5,1.6c-.2,.5,-.4,.9,-.8,1.4h-.1l-.3,-1.9c-.1,-.6,-.3,-1.6,-.4,-2.1c-.2,-.6,-.3,-1.2,-1.3,-1.2c-1.2,0,-1.4,1.8,-1.6,2.6l.3,.1c.1,-.6,.5,-2.3,1,-2.3c.3,0,.5,1,.6,1.2c0,.3,.1,.7,.2,1.4l.6,3.5c-.3,.8,-1.2,1.7,-1.8,2.2c-.2,.1,-.5,.2,-.7,.2c-.1,0,-.2,0,-.2,-.1c-.2,-.3,-.2,-.8,-.7,-.8c-.4,0,-.6,.3,-.6,.7Z" class="g0_240"/>
<path d="M484.9,482.7c-.7,0,-1.2,-.7,-1.2,-1.4c0,-.6,.3,-1,.8,-1c-.1,-.3,-.4,-.4,-.7,-.4c-.2,0,-.4,0,-.5,.1c-.4,.1,-.7,.6,-.7,1.1c0,.3,.1,.5,.2,.7c.4,.7,1.1,1.1,2.2,1.1c.8,0,1.4,-.3,1.8,-.6c.4,-.4,.7,-.8,.8,-1.5v-.1c0,-.3,-.1,-.5,-.2,-.7c-.2,-.6,-.8,-1.1,-1.5,-1.3c.4,-.1,.8,-.4,1,-.7c.2,-.3,.4,-.7,.4,-1.1c0,-.3,0,-.5,-.1,-.7c-.4,-.7,-1.2,-1.1,-2.2,-1.1c-.6,0,-1.2,.2,-1.5,.4c-.3,.2,-.6,.5,-.6,1c0,.3,.1,.6,.3,.7c.1,.2,.4,.3,.7,.3c.2,0,.3,0,.5,-.1c.1,0,.2,-.1,.2,-.2c-.4,0,-.7,-.4,-.7,-.8c0,-.6,.5,-1.1,1.1,-1.1c.8,0,1.2,.7,1.2,1.6c0,.9,-.3,1.8,-1.1,1.8c-.2,-.1,-.4,-.2,-.6,-.2c-.2,0,-.5,.1,-.5,.3c0,.2,.3,.3,.5,.3c.3,0,.5,-.1,.7,-.2c.9,0,1.1,.8,1.1,1.8c0,1,-.4,2,-1.4,2Z" class="g0_240"/>
<path d="M367.6,509.4c1.3,0,2.1,-1.3,2.5,-2.1l-.2,-.2c-.3,.4,-.9,1.7,-1.7,1.7c-.2,0,-.3,-.5,-.3,-.6c0,-.2,.1,-.6,.2,-1l1.1,-4h1.3l.1,-.3h-1.3l.4,-1.6h-1l-.5,1.6h-1l-.1,.3h1l-.9,3.6c-.1,.5,-.2,.9,-.3,1.1c0,.3,-.1,.5,-.1,.7c0,.5,.3,.8,.8,.8Z" class="g0_240"/>
<path d="M376.1,507.4h7.7v-.9h-7.7Zm0,-3h7.7v-.9h-7.7Z" class="g0_240"/>
<path d="M390.5,499.6v.2c.4,0,1.1,0,1.3,.1c.5,.3,.4,.4,.5,1.1v6.5c0,.3,-.1,.6,-.1,.7c-.1,.7,-.9,.8,-1.6,.8v.3h4.7V509c-.5,0,-1.3,0,-1.5,-.3c-.2,-.3,-.2,-.8,-.2,-1.3v-8.6c-.8,.4,-2.1,.7,-3.1,.8Z" class="g0_240"/>
<path d="M398.4,508.5c0,.4,.2,.8,.7,.8c.1,0,.2,-.1,.4,-.1c0,.3,-.1,.7,-.3,1c-.2,.3,-.6,.6,-1.1,1l.3,.4c.4,-.2,.7,-.5,.9,-.7c.5,-.5,.9,-1,.9,-1.9c0,-.9,-.3,-1.4,-.9,-1.4c-.5,0,-.9,.4,-.9,.9Z" class="g0_240"/>
<path d="M412,503.7c0,-.5,-.4,-.9,-1,-.9c-.3,0,-.6,.1,-.9,.3c-.3,.2,-.7,.5,-.9,.9c0,-.7,-.4,-1.2,-1,-1.2c-1.2,0,-2.1,1.2,-2.5,1.9l.2,.2c.4,-.5,1.1,-1.7,2,-1.7c.3,0,.4,.5,.4,.9c0,.3,-.1,.7,-.2,1.2l-.3,1.2c-.2,.5,-.5,1.3,-.8,1.7c-.1,.3,-.4,.7,-.8,.7c-.4,0,-.7,-.1,-.6,-.5c.1,-.3,0,-.7,-.4,-.7c-.4,0,-.6,.3,-.6,.7c0,.6,.5,1,1,1c1.1,0,1.8,-.8,2.2,-1.5v.1c.1,.8,.5,1.4,1.3,1.4c1.2,0,2.1,-1.2,2.5,-1.9l-.2,-.1c-.5,.6,-1.2,1.6,-2,1.6c-.4,0,-.6,-.6,-.6,-1.2c0,-.3,0,-.8,.2,-1.3l.1,-.8c.1,-.5,.4,-1.2,.7,-1.6c.1,-.3,.5,-.9,.9,-.9c.4,0,.4,.3,.4,.6c-.1,.4,.1,.6,.4,.6c.4,0,.5,-.3,.5,-.7Z" class="g0_240"/>
<path d="M416.9,507.4h7.6v-.9h-7.6Zm0,-3h7.6v-.9h-7.6Z" class="g0_240"/>
<path d="M436.5,503.7c0,-.5,-.5,-.9,-1,-.9c-.3,0,-.6,.1,-1,.3c-.3,.2,-.6,.5,-.8,.9c0,-.7,-.4,-1.2,-1.1,-1.2c-1.1,0,-2.1,1.2,-2.4,1.9l.2,.2c.4,-.5,1.1,-1.7,2,-1.7c.3,0,.4,.5,.4,.9c0,.3,-.1,.7,-.2,1.2l-.4,1.2c-.1,.5,-.4,1.3,-.7,1.7c-.2,.3,-.4,.7,-.8,.7c-.4,0,-.7,-.1,-.6,-.5c.1,-.3,0,-.7,-.4,-.7c-.5,0,-.6,.3,-.6,.7c0,.6,.4,1,1,1c1,0,1.8,-.8,2.1,-1.5l.1,.1c.1,.8,.5,1.4,1.3,1.4c1.2,0,2,-1.2,2.5,-1.9l-.2,-.1c-.5,.6,-1.2,1.6,-2,1.6c-.4,0,-.6,-.6,-.6,-1.2c0,-.3,0,-.8,.1,-1.3l.2,-.8c.1,-.5,.4,-1.2,.6,-1.6c.2,-.3,.6,-.9,1,-.9c.4,0,.4,.3,.3,.6c0,.4,.2,.6,.5,.6c.4,0,.5,-.3,.5,-.7Z" class="g0_240"/>
<path d="M439.7,505.5l.1,3.9h-2.6c.9,-1.3,1.7,-2.6,2.5,-3.9Zm-2.7,3.9v.4h2.8v.4c0,.9,-.2,1.3,-.6,1.3v.1h2.1v-.1c-.5,0,-.6,-.6,-.6,-1.4v-.3H442c0,0,0,-.4,0,-.4c0,0,-1.3,0,-1.3,0V504h-.3l-3.4,5.4Z" class="g0_240"/>
<path d="M445,508.5c0,.4,.2,.8,.7,.8c.1,0,.2,-.1,.4,-.1c0,.3,-.1,.7,-.3,1c-.3,.3,-.6,.6,-1.1,1l.3,.4c.4,-.2,.7,-.5,.9,-.7c.5,-.5,.9,-1,.9,-1.9c0,-.9,-.3,-1.4,-.9,-1.4c-.6,0,-.9,.4,-.9,.9Z" class="g0_240"/>
<path d="M450.4,511.4c0,.6,.4,1,1.1,1c.4,0,.8,-.2,1.3,-.6c.8,-.7,2,-2.2,2.8,-3.4c.3,-.7,.7,-1.3,1,-1.8c.4,-.8,1.1,-2.2,1.1,-3c0,-.2,0,-.4,-.1,-.6c-.1,-.2,-.3,-.2,-.5,-.2c-.1,0,-.3,.1,-.4,.2c-.2,.1,-.2,.3,-.2,.6c0,.5,.2,.9,.2,1.3c0,.6,-.2,1.2,-.5,1.6c-.2,.5,-.4,.9,-.8,1.5h-.1l-.3,-2c-.1,-.5,-.3,-1.6,-.4,-2c-.2,-.7,-.3,-1.2,-1.3,-1.2c-1.2,0,-1.4,1.7,-1.6,2.5l.3,.1c.1,-.5,.5,-2.3,1,-2.3c.3,0,.5,1,.6,1.3c0,.3,.1,.7,.2,1.4l.6,3.5c-.3,.8,-1.2,1.6,-1.8,2.1c-.2,.2,-.5,.3,-.7,.3c-.1,0,-.2,-.1,-.2,-.2c-.2,-.3,-.2,-.7,-.7,-.7c-.4,0,-.6,.2,-.6,.6Z" class="g0_240"/>
<path d="M463.2,507.4h7.6v-.9h-7.6Zm0,-3h7.6v-.9h-7.6Z" class="g0_240"/>
<path d="M474.6,511.4c0,.6,.5,1,1.1,1c.4,0,.8,-.2,1.3,-.6c.8,-.7,2,-2.2,2.8,-3.4c.3,-.7,.7,-1.3,1,-1.8c.4,-.8,1.1,-2.2,1.1,-3c0,-.2,0,-.4,-.1,-.6c-.1,-.2,-.3,-.2,-.5,-.2c-.1,0,-.3,.1,-.4,.2c-.2,.1,-.2,.3,-.2,.6c0,.5,.2,.9,.2,1.3c0,.6,-.2,1.2,-.5,1.6c-.2,.5,-.4,.9,-.8,1.5h-.1l-.3,-2c-.1,-.5,-.3,-1.6,-.4,-2c-.2,-.7,-.3,-1.2,-1.3,-1.2c-1.2,0,-1.4,1.7,-1.6,2.5l.3,.1c.1,-.5,.5,-2.3,1,-2.3c.3,0,.5,1,.6,1.3c0,.3,.1,.7,.2,1.4l.6,3.5c-.3,.8,-1.2,1.6,-1.8,2.1c-.2,.2,-.5,.3,-.7,.3c-.1,0,-.2,-.1,-.2,-.2c-.2,-.3,-.2,-.7,-.7,-.7c-.4,0,-.6,.2,-.6,.6Z" class="g0_240"/>
<path d="M485.2,505.5v3.9h-2.5c.8,-1.3,1.7,-2.6,2.5,-3.9Zm-2.8,3.9v.4h2.8v.4c0,.9,-.1,1.3,-.5,1.3v.1h2.1v-.1c-.5,0,-.6,-.6,-.6,-1.4v-.3h1.3c0,0,0,-.4,0,-.4c0,0,-1.3,0,-1.3,0V504h-.3l-3.5,5.4Z" class="g0_240"/>
<path d="M339.7,580.5c-1.9,0,-1.9,-2.7,-1.9,-4.9c0,-2.2,0,-5.1,1.9,-5.1c2,0,2,2.9,2,5.1c0,2.2,0,4.9,-2,4.9Zm0,-10.3c-2.6,0,-3.3,2.7,-3.3,5.4c0,2.6,.8,5.2,3.3,5.2c2.6,0,3.4,-2.6,3.4,-5.2c0,-2.7,-.7,-5.4,-3.4,-5.4Z" class="g0_240"/>
<path d="M348.4,574.2c-.4,0,-.8,.1,-1.3,.4c-.4,.3,-.8,.7,-1.2,1.2c-.6,.7,-1.2,1.9,-1.2,3.2c0,1,.3,1.8,1.3,1.8c1.3,0,1.7,-.9,2.1,-1.6h.1c-.2,.9,-.1,1.6,.5,1.6c.4,0,.7,-.2,1.1,-.5c.4,-.3,.8,-.8,1.1,-1.4l-.1,-.1c-.3,.4,-1,1.3,-1.4,1.3c-.2,0,-.3,-.3,-.3,-.5c0,-.9,.6,-2.5,1,-3.5l.7,-1.8h-1l-.3,.7c-.2,-.5,-.5,-.8,-1.1,-.8Zm.2,.3c.7,0,.5,1.3,.4,1.8c0,.3,-.2,.7,-.3,1c-.3,1.2,-1.4,3.1,-2.2,3.1c-.6,0,-.8,-.9,-.8,-1.4c0,-.4,0,-.9,.2,-1.4c.4,-1,1.4,-3.1,2.7,-3.1Z" class="g0_240"/>
<path d="M356.7,578.9c0,-.4,-.4,-.7,-.8,-.7c-.2,0,-.4,.1,-.7,.2c-.2,.2,-.4,.4,-.6,.7c0,-.5,-.3,-.9,-.8,-.9c-.8,0,-1.5,.8,-1.7,1.4l.1,.1c.3,-.4,.8,-1.3,1.5,-1.3c.2,0,.2,.4,.2,.8c0,.2,0,.4,-.1,.8l-.3,.9c-.1,.4,-.3,1,-.5,1.3c-.1,.1,-.3,.5,-.6,.5c-.3,0,-.5,-.1,-.4,-.4c0,-.2,0,-.5,-.3,-.5c-.3,0,-.5,.2,-.5,.5c0,.4,.4,.7,.8,.7c.7,0,1.3,-.6,1.5,-1.1h.1c0,.6,.3,1.1,.9,1.1c.9,0,1.5,-.8,1.8,-1.3l-.1,-.2c-.4,.5,-.9,1.2,-1.4,1.2c-.4,0,-.5,-.4,-.5,-.9c0,-.2,0,-.5,.1,-.9l.1,-.6c.1,-.4,.3,-.9,.5,-1.2c.1,-.2,.4,-.6,.7,-.6c.3,0,.3,.2,.2,.4c0,.3,.1,.4,.4,.4c.3,0,.4,-.2,.4,-.4Z" class="g0_240"/>
<path d="M364.9,576.4h-3.2v1h3.2v3.3h1v-3.3h3.3v-1h-3.3v-3.3h-1v3.3Z" class="g0_240"/>
<path d="M377.1,580.5c-1.9,0,-1.9,-2.7,-1.9,-4.9c0,-2.2,0,-5.1,1.9,-5.1c2,0,2,2.9,2,5.1c0,2.2,-.1,4.9,-2,4.9Zm0,-10.3c-2.6,0,-3.3,2.7,-3.3,5.4c0,2.6,.8,5.2,3.3,5.2c2.6,0,3.4,-2.6,3.4,-5.2c0,-2.7,-.8,-5.4,-3.4,-5.4Z" class="g0_240"/>
<path d="M385.3,574.5c1.2,0,.9,1.9,.4,3.2c-.4,.9,-1.3,2.8,-2.4,2.8c-.5,0,-.7,-.3,-.7,-1c0,-.7,.3,-1.8,.5,-2.4c.3,-.6,.7,-1.6,1.1,-2c.3,-.3,.6,-.6,1.1,-.6Zm-2.2,6.3c1.6,0,2.8,-1.5,3.4,-2.6c.4,-.6,.7,-1.4,.7,-2.3c0,-1,-.5,-1.7,-1.6,-1.7c-.9,0,-1.6,.5,-1.9,1.2l-.1,-.1l1.6,-5.5h-2.1l-.1,.3c.6,0,.9,.2,.9,.5c0,.2,-.1,.6,-.2,.8l-1.6,5.6c-.1,.6,-.3,1,-.3,1.4c-.1,.4,-.2,.7,-.2,.9c0,.9,.6,1.5,1.5,1.5Z" class="g0_240"/>
<path d="M392.8,578.9c0,-.4,-.3,-.7,-.7,-.7c-.2,0,-.5,.1,-.7,.2c-.2,.2,-.4,.4,-.6,.7c0,-.5,-.3,-.9,-.8,-.9c-.8,0,-1.5,.8,-1.7,1.4l.1,.1c.3,-.4,.8,-1.3,1.4,-1.3c.2,0,.3,.4,.3,.8c0,.2,0,.4,-.1,.8l-.3,.9c-.1,.4,-.3,1,-.5,1.3c-.1,.1,-.3,.5,-.6,.5c-.3,0,-.5,-.1,-.4,-.4c0,-.2,0,-.5,-.3,-.5c-.4,0,-.5,.2,-.5,.5c0,.4,.4,.7,.8,.7c.7,0,1.3,-.6,1.5,-1.1h.1c0,.6,.3,1.1,.9,1.1c.9,0,1.5,-.8,1.8,-1.3l-.1,-.2c-.4,.5,-.9,1.2,-1.5,1.2c-.3,0,-.4,-.4,-.4,-.9c0,-.2,0,-.5,.1,-.9l.1,-.6c.1,-.4,.3,-.9,.5,-1.2c.1,-.2,.4,-.6,.7,-.6c.3,0,.3,.2,.2,.4c0,.3,.1,.4,.4,.4c.2,0,.3,-.2,.3,-.4Z" class="g0_240"/>
<path d="M401.1,576.4h-3.2v1h3.2v3.3h1v-3.3h3.3v-1h-3.3v-3.3h-1v3.3Z" class="g0_240"/>
<path d="M413.3,580.5c-1.9,0,-1.9,-2.7,-1.9,-4.9c0,-2.2,0,-5.1,1.9,-5.1c2,0,2,2.9,2,5.1c0,2.2,-.1,4.9,-2,4.9Zm0,-10.3c-2.6,0,-3.4,2.7,-3.4,5.4c0,2.6,.9,5.2,3.4,5.2c2.6,0,3.4,-2.6,3.4,-5.2c0,-2.7,-.8,-5.4,-3.4,-5.4Z" class="g0_240"/>
<path d="M418.8,578.8c0,-.4,.1,-.9,.2,-1.4c.3,-1,1.1,-2.9,2.2,-2.9c.4,0,.4,.2,.4,.3c0,.1,-.1,.2,-.1,.4c0,.4,.2,.6,.5,.6c.4,0,.7,-.3,.7,-.7c0,-.6,-.6,-.9,-1.3,-.9c-1.4,0,-2.5,1.4,-3.1,2.5c-.4,.6,-.6,1.3,-.6,2.1c0,1.1,.6,2,1.7,2c1.3,0,2.1,-1.1,2.6,-2.1l-.3,-.1c-.4,1,-1.2,1.9,-2,1.9c-.6,0,-.9,-1,-.9,-1.7Z" class="g0_240"/>
<path d="M428.1,578.9c0,-.4,-.3,-.7,-.8,-.7c-.2,0,-.4,.1,-.6,.2c-.3,.2,-.5,.4,-.7,.7c0,-.5,-.3,-.9,-.7,-.9c-.9,0,-1.6,.8,-1.8,1.4l.1,.1c.3,-.4,.8,-1.3,1.5,-1.3c.2,0,.3,.4,.3,.8c0,.2,-.1,.4,-.2,.8l-.2,.9c-.2,.4,-.3,1,-.6,1.3c-.1,.1,-.3,.5,-.5,.5c-.3,0,-.6,-.1,-.5,-.4c.1,-.2,0,-.5,-.3,-.5c-.3,0,-.4,.2,-.4,.5c0,.4,.3,.7,.7,.7c.8,0,1.3,-.6,1.6,-1.1c.1,.6,.4,1.1,1,1.1c.8,0,1.4,-.8,1.8,-1.3l-.2,-.2c-.3,.5,-.8,1.2,-1.4,1.2c-.3,0,-.5,-.4,-.5,-.9c0,-.2,0,-.5,.1,-.9l.2,-.6c0,-.4,.2,-.9,.4,-1.2c.2,-.2,.4,-.6,.7,-.6c.3,0,.3,.2,.3,.4c-.1,.3,.1,.4,.3,.4c.3,0,.4,-.2,.4,-.4Z" class="g0_240"/>
<path d="M436.4,576.4h-3.3v1h3.3v3.3h.9v-3.3h3.3v-1h-3.3v-3.3h-.9v3.3Z" class="g0_240"/>
<path d="M449,575.3c0,.7,-.1,1.6,-.3,2.1c-.2,.6,-.7,1.8,-1.1,2.3c-.2,.3,-.7,.8,-1.2,.8c-.5,0,-.8,-.5,-.8,-1c0,-.6,.1,-1.8,.4,-2.3c.3,-.9,1.2,-2.7,2.4,-2.7c.4,0,.6,.4,.6,.8Zm.2,5.5c.5,0,.8,-.2,1.1,-.6c.4,-.4,.6,-.9,.9,-1.7l-.3,-.1c-.2,.5,-.7,1.9,-1.2,1.9c-.3,0,-.4,-.5,-.4,-.8c0,-.1,0,-.3,0,-.5c.1,-.6,.3,-1.1,.4,-1.8c.1,-.5,.3,-1,.4,-1.7l1.6,-5.8h-2.3v.2c.4,.1,.6,.1,.7,.2c.2,.1,.3,.3,.3,.4c0,.3,-.1,.6,-.2,.9l-.9,3.4c-.2,-.4,-.4,-.6,-1,-.6c-1,0,-2,.9,-2.5,1.6c-.3,.3,-.5,.6,-.7,1c-.3,.5,-.6,1.3,-.6,2.1c0,.6,.2,1,.5,1.3c.2,.3,.5,.6,1,.6c1.4,0,1.9,-.9,2.3,-1.7l.1,.1c0,0,0,.2,0,.2c-.1,.1,-.1,.2,-.1,.3c0,.6,.3,1.1,.9,1.1Z" class="g0_240"/>
<path d="M456.7,578.9c0,-.4,-.3,-.7,-.7,-.7c-.3,0,-.5,.1,-.7,.2c-.3,.2,-.5,.4,-.7,.7c0,-.5,-.3,-.9,-.7,-.9c-.8,0,-1.6,.8,-1.8,1.4l.2,.1c.2,-.4,.7,-1.3,1.4,-1.3c.2,0,.3,.4,.3,.8c0,.2,-.1,.4,-.2,.8l-.2,.9c-.1,.4,-.3,1,-.5,1.3c-.2,.1,-.4,.5,-.6,.5c-.3,0,-.6,-.1,-.5,-.4c.1,-.2,0,-.5,-.3,-.5c-.3,0,-.4,.2,-.4,.5c0,.4,.3,.7,.7,.7c.8,0,1.3,-.6,1.6,-1.1c.1,.6,.4,1.1,1,1.1c.8,0,1.5,-.8,1.8,-1.3l-.2,-.2c-.3,.5,-.8,1.2,-1.4,1.2c-.3,0,-.5,-.4,-.5,-.9c0,-.2,.1,-.5,.2,-.9l.1,-.6c.1,-.4,.2,-.9,.4,-1.2c.2,-.2,.5,-.6,.7,-.6c.3,0,.3,.2,.3,.4c0,.3,.1,.4,.3,.4c.3,0,.4,-.2,.4,-.4Z" class="g0_240"/>
<path d="M462.7,578.8h7.6v-.9h-7.6Zm0,-3h7.6v-.9h-7.6Z" class="g0_240"/>
<path d="M479.7,575.3c0,.7,-.2,1.6,-.3,2.1c-.2,.6,-.7,1.8,-1.1,2.3c-.3,.3,-.7,.8,-1.2,.8c-.5,0,-.8,-.5,-.8,-1c0,-.6,.1,-1.8,.4,-2.3c.3,-.9,1.2,-2.7,2.4,-2.7c.4,0,.6,.4,.6,.8Zm.2,5.5c.4,0,.8,-.2,1.1,-.6c.3,-.4,.6,-.9,.9,-1.7l-.3,-.1c-.2,.5,-.7,1.9,-1.3,1.9c-.3,0,-.3,-.5,-.3,-.8c0,-.1,0,-.3,0,-.5c.1,-.6,.2,-1.1,.4,-1.8c.1,-.5,.3,-1,.4,-1.7l1.6,-5.8h-2.3v.2c.4,.1,.5,.1,.7,.2c.2,.1,.3,.3,.3,.4c0,.3,-.1,.6,-.2,.9l-.9,3.4c-.3,-.4,-.4,-.6,-1,-.6c-1,0,-2,.9,-2.5,1.6c-.3,.3,-.5,.6,-.7,1c-.3,.5,-.6,1.3,-.6,2.1c0,.6,.2,1,.4,1.3c.3,.3,.6,.6,1.1,.6c1.4,0,1.9,-.9,2.3,-1.7l.1,.1c0,0,0,.2,-.1,.2c0,.1,0,.2,0,.3c0,.6,.3,1.1,.9,1.1Z" class="g0_240"/>
<path d="M487.4,578.9c0,-.4,-.4,-.7,-.8,-.7c-.2,0,-.4,.1,-.6,.2c-.3,.2,-.5,.4,-.7,.7c0,-.5,-.3,-.9,-.7,-.9c-.9,0,-1.6,.8,-1.8,1.4l.1,.1c.3,-.4,.8,-1.3,1.5,-1.3c.2,0,.3,.4,.3,.8c0,.2,-.1,.4,-.2,.8l-.2,.9c-.2,.4,-.3,1,-.6,1.3c-.1,.1,-.3,.5,-.5,.5c-.4,0,-.6,-.1,-.5,-.4c.1,-.2,0,-.5,-.3,-.5c-.3,0,-.5,.2,-.5,.5c0,.4,.4,.7,.8,.7c.8,0,1.3,-.6,1.6,-1.1c.1,.6,.4,1.1,1,1.1c.8,0,1.4,-.8,1.8,-1.3l-.2,-.2c-.3,.5,-.8,1.2,-1.4,1.2c-.3,0,-.5,-.4,-.5,-.9c0,-.2,0,-.5,.1,-.9l.2,-.6c0,-.4,.2,-.9,.4,-1.2c.2,-.2,.4,-.6,.7,-.6c.3,0,.3,.2,.3,.4c-.1,.3,.1,.4,.3,.4c.3,0,.4,-.2,.4,-.4Z" class="g0_240"/>
<path d="M493.4,578.8H501v-.9h-7.6Zm0,-3H501v-.9h-7.6Z" class="g0_240"/>
<path d="M513,575.1c0,-.5,-.5,-.9,-1,-.9c-.3,0,-.7,.1,-1,.3c-.3,.2,-.6,.5,-.8,.9c0,-.7,-.4,-1.2,-1.1,-1.2c-1.1,0,-2.1,1.2,-2.4,1.9l.2,.2c.3,-.5,1.1,-1.7,2,-1.7c.2,0,.3,.5,.3,.9c0,.3,0,.7,-.2,1.2l-.3,1.2c-.2,.5,-.4,1.3,-.7,1.7c-.2,.3,-.4,.7,-.8,.7c-.4,0,-.7,-.1,-.6,-.5c0,-.3,0,-.7,-.4,-.7c-.5,0,-.7,.3,-.7,.7c0,.6,.5,1,1.1,1c1,0,1.7,-.8,2.1,-1.5v.1c.1,.8,.5,1.4,1.4,1.4c1.2,0,2,-1.2,2.4,-1.8l-.2,-.2c-.5,.6,-1.1,1.6,-1.9,1.6c-.5,0,-.7,-.6,-.7,-1.2c0,-.3,.1,-.8,.2,-1.3l.2,-.8c.1,-.5,.3,-1.2,.6,-1.6c.2,-.3,.6,-.9,.9,-.9c.5,0,.4,.3,.4,.6c0,.4,.1,.6,.5,.6c.3,0,.5,-.3,.5,-.7Z" class="g0_240"/>
<path d="M514.5,575.9v.2c.4,0,.8,0,1,.1c.3,.2,.3,.3,.3,.8v4.7c0,.2,0,.4,0,.6c-.1,.5,-.7,.5,-1.2,.6v.1H518v-.1c-.4,-.1,-.9,-.1,-1.1,-.3c-.1,-.2,-.1,-.5,-.1,-.9v-6.3c-.6,.3,-1.6,.5,-2.3,.5Z" class="g0_240"/>
<path d="M349.3,592.7v.2c.5,0,1.1,.1,1.3,.2c.5,.3,.5,.4,.5,1v6.6c0,.3,0,.5,-.1,.7c-.1,.7,-.9,.8,-1.6,.8v.2h4.7v-.2c-.5,0,-1.3,0,-1.5,-.3c-.2,-.3,-.2,-.8,-.2,-1.3V592c-.8,.4,-2.1,.7,-3.1,.7Z" class="g0_240"/>
<path d="M343.2,609.1h16.7v-.8H343.2Z" class="g0_240"/>
<path d="M346.8,616.4c-.9,0,-1.5,-.6,-1.5,-1.6c0,-1,.6,-2.2,1.8,-2.2c1.7,0,1.8,1.3,1.8,2.6c0,1.3,-.3,2,-1,2.9c-.3,.6,-.9,1.2,-1.5,1.9c-.7,.7,-1.5,1.4,-2.5,2.4v.4h6.2l.5,-2.9h-.4c-.1,.4,-.2,.6,-.3,.8c-.2,.5,-.7,.8,-1.4,.8h-2.9v-.1c.7,-.5,1.3,-1,1.9,-1.4c1,-.9,2.1,-1.9,2.7,-3.1c.2,-.6,.3,-1.1,.3,-1.7c0,-.4,0,-.8,-.2,-1.1c-.5,-1.1,-1.5,-1.8,-3,-1.8c-.9,0,-1.8,.4,-2.4,.8c-.5,.5,-.9,1.1,-.9,2c0,.7,.2,1.1,.5,1.5c.3,.3,.7,.5,1.2,.5c.6,0,1,-.2,1.1,-.7Z" class="g0_240"/>
<path d="M354.3,622.9c.3,0,.6,-.1,.8,-.3c.5,-.8,1,-2.2,1.3,-3.1l.9,-2.4c.6,-1.5,1.2,-2.9,1.9,-4.4v-.2h-4.4c-.5,0,-1.1,0,-1.2,-.4c0,-.1,0,-.3,0,-.4h-.3l-.9,3.7h.3l.2,-.5c.2,-.6,.6,-1,1.3,-1.1c.2,0,.5,0,.9,0h3.3l-2.1,3.5c-.4,.8,-.7,1.3,-1,1.8c-.3,.5,-.5,1,-.7,1.3c-.3,.5,-.5,1,-.6,1.4c-.1,.2,-.1,.3,-.1,.4c-.1,0,-.1,.1,-.1,.2c0,.3,.2,.5,.5,.5Z" class="g0_240"/>
<path d="M366.2,606.1c-.5,0,-.9,.1,-1.3,.4c-.5,.3,-.9,.7,-1.3,1.2c-.6,.7,-1.2,1.9,-1.2,3.2c0,1,.4,1.8,1.3,1.8c1.3,0,1.8,-.9,2.2,-1.6c-.2,.9,-.1,1.6,.5,1.6c.4,0,.8,-.2,1.2,-.5c.4,-.3,.7,-.8,1.1,-1.4l-.2,-.1c-.3,.4,-.9,1.3,-1.4,1.3c-.2,0,-.2,-.3,-.2,-.5c0,-1,.6,-2.5,.9,-3.5l.7,-1.8h-1l-.3,.6c-.1,-.4,-.4,-.7,-1,-.7Zm.1,.2c.7,0,.6,1.4,.5,1.9c-.1,.3,-.2,.7,-.3,1c-.4,1.2,-1.5,3.1,-2.3,3.1c-.6,0,-.8,-.9,-.8,-1.4c0,-.5,0,-.9,.2,-1.4c.4,-1,1.4,-3.2,2.7,-3.2Z" class="g0_240"/>
<path d="M374.4,610.7c0,-.3,-.3,-.7,-.7,-.7c-.3,0,-.5,.1,-.7,.3c-.3,.2,-.5,.4,-.7,.6c0,-.4,-.3,-.9,-.7,-.9c-.9,0,-1.6,.9,-1.8,1.5l.1,.1c.3,-.4,.8,-1.3,1.5,-1.3c.2,0,.3,.4,.3,.7c0,.3,-.1,.5,-.2,.9l-.2,.8c-.1,.5,-.3,1,-.6,1.3c-.1,.2,-.3,.5,-.5,.5c-.3,0,-.6,0,-.5,-.3c.1,-.3,0,-.6,-.3,-.6c-.3,0,-.4,.3,-.4,.6c0,.4,.3,.7,.7,.7c.8,0,1.3,-.6,1.6,-1.1c.1,.6,.4,1.1,1,1.1c.8,0,1.5,-.9,1.8,-1.4l-.2,-.1c-.3,.5,-.8,1.2,-1.4,1.2c-.3,0,-.5,-.4,-.5,-.9c0,-.2,.1,-.6,.1,-1l.2,-.5c.1,-.4,.2,-.9,.4,-1.2c.2,-.2,.4,-.7,.7,-.7c.3,0,.3,.3,.3,.5c0,.3,.1,.4,.3,.4c.3,0,.4,-.2,.4,-.5Z" class="g0_240"/>
<path d="M382.7,608.3h-3.3v1h3.3v3.2h1v-3.2h3.2v-1h-3.2V605h-1v3.3Z" class="g0_240"/>
<path d="M396.8,594.1v5.3h-3.5c1.2,-1.7,2.3,-3.6,3.5,-5.3Zm-3.8,5.3v.6h3.8v.5c0,1.2,-.2,1.7,-.8,1.7v.2h2.9v-.2c-.6,0,-.8,-.7,-.8,-1.8V600h1.7c0,0,0,-.6,0,-.6c0,0,-1.7,0,-1.7,0V592h-.4l-4.7,7.4Z" class="g0_240"/>
<path d="M392.5,609.1h8.3v-.8h-8.3Z" class="g0_240"/>
<path d="M394.8,615.9c0,-1.7,.4,-3.3,1.9,-3.3c1.2,0,1.8,1.7,1.8,3.9v.7c-.4,.9,-.9,1.8,-2,1.8c-1.3,0,-1.7,-1.7,-1.7,-3.1Zm-1.2,5.6c0,.7,1.3,1.4,2.4,1.4c3.1,0,4.1,-2.8,4.1,-5.9c0,-2.5,-1,-4.7,-3.4,-4.7c-2.1,0,-3.4,1.6,-3.4,3.6c0,1.9,1.1,3.4,3,3.4c1.1,0,1.7,-.6,2.2,-1.3c0,1.2,0,2.3,-.4,3.1c-.3,.6,-.9,1.5,-1.9,1.5c-1.6,0,-1.1,-1.8,-2,-1.8c-.5,0,-.6,.2,-.6,.7Z" class="g0_240"/>
<path d="M406.6,606.4c1.2,0,.9,1.9,.4,3.2c-.4,.8,-1.3,2.7,-2.4,2.7c-.5,0,-.7,-.3,-.7,-.9c0,-.8,.3,-1.8,.5,-2.4c.3,-.6,.7,-1.6,1.1,-2c.3,-.3,.7,-.6,1.1,-.6Zm-2.2,6.3c1.7,0,2.8,-1.5,3.4,-2.6c.4,-.7,.7,-1.5,.7,-2.3c0,-1,-.5,-1.7,-1.5,-1.7c-1,0,-1.7,.5,-2,1.1h-.1l1.6,-5.6l-2.1,.1l-.1,.2c.7,0,.9,.3,.9,.6c0,.2,-.1,.6,-.2,.8l-1.5,5.6c-.2,.6,-.4,1,-.4,1.4c-.1,.4,-.2,.7,-.2,.9c0,.8,.6,1.5,1.5,1.5Z" class="g0_240"/>
<path d="M414.2,610.7c0,-.3,-.4,-.7,-.8,-.7c-.2,0,-.4,.1,-.7,.3c-.2,.2,-.4,.4,-.6,.6c0,-.4,-.3,-.9,-.8,-.9c-.8,0,-1.5,.9,-1.7,1.5l.1,.1c.3,-.4,.8,-1.3,1.5,-1.3c.2,0,.2,.4,.2,.7c0,.3,0,.5,-.1,.9l-.3,.8c-.1,.5,-.3,1,-.5,1.3c-.1,.2,-.3,.5,-.6,.5c-.3,0,-.5,0,-.4,-.3c0,-.3,0,-.6,-.3,-.6c-.3,0,-.5,.3,-.5,.6c0,.4,.4,.7,.8,.7c.7,0,1.3,-.6,1.5,-1.1h.1c0,.6,.3,1.1,.9,1.1c.9,0,1.5,-.9,1.8,-1.4l-.1,-.1c-.4,.5,-.9,1.2,-1.4,1.2c-.4,0,-.5,-.4,-.5,-.9c0,-.2,0,-.6,.1,-1l.1,-.5c.1,-.4,.3,-.9,.5,-1.2c.1,-.2,.4,-.7,.7,-.7c.3,0,.3,.3,.2,.5c0,.3,.1,.4,.4,.4c.3,0,.4,-.2,.4,-.5Z" class="g0_240"/>
<path d="M422.4,608.3h-3.2v1h3.2v3.2h1v-3.2h3.3v-1h-3.3V605h-1v3.3Z" class="g0_240"/>
<path d="M434.2,592.7v.2c.5,0,1.1,.1,1.3,.2c.5,.3,.5,.4,.5,1v6.6c0,.3,0,.5,-.1,.7c-.1,.7,-.9,.8,-1.6,.8v.2H439v-.2c-.5,0,-1.3,0,-1.5,-.3c-.2,-.3,-.2,-.8,-.2,-1.3V592c-.8,.4,-2.1,.7,-3.1,.7Z" class="g0_240"/>
<path d="M432.3,609.1h8.3v-.8h-8.3Z" class="g0_240"/>
<path d="M436.2,622.6c-1,0,-1.8,-.9,-1.8,-1.9c0,-.7,.4,-1.3,1.1,-1.3c0,-.4,-.5,-.6,-1,-.6c-.2,0,-.4,.1,-.6,.2c-.5,.2,-.9,.8,-.9,1.5c0,.4,0,.7,.2,1c.5,.9,1.6,1.4,3,1.4c1.1,0,1.9,-.3,2.5,-.8c.6,-.5,1,-1.2,1,-2.1c0,-.3,0,-.7,-.1,-1c-.4,-.8,-1.2,-1.5,-2.2,-1.7v-.1c.6,-.2,1.1,-.5,1.4,-.9c.4,-.4,.6,-.9,.6,-1.6c0,-.4,0,-.7,-.2,-1c-.5,-.9,-1.6,-1.4,-3,-1.4c-.8,0,-1.5,.2,-2.1,.5c-.4,.3,-.7,.8,-.7,1.4c0,.4,.1,.8,.4,1c.2,.2,.5,.4,.9,.4c.3,0,.5,0,.7,-.1c.1,-.1,.2,-.2,.3,-.4c-.6,0,-1,-.4,-1,-1c0,-.8,.7,-1.5,1.5,-1.5c1.1,0,1.6,.9,1.6,2.2c0,1.2,-.3,2.4,-1.4,2.4c-.3,-.1,-.6,-.2,-.9,-.2c-.3,0,-.7,.1,-.7,.3c0,.4,.5,.5,.8,.5c.3,0,.7,-.2,.9,-.3c1.2,0,1.5,1.1,1.5,2.4c0,1.4,-.5,2.7,-1.8,2.7Z" class="g0_240"/>
<path d="M443.7,610.7c0,-.5,.1,-1,.2,-1.4c.3,-1,1.1,-2.9,2.2,-2.9c.4,0,.4,.1,.4,.3c0,.1,-.1,.2,-.1,.4c0,.3,.2,.6,.5,.6c.4,0,.7,-.3,.7,-.7c0,-.6,-.6,-.9,-1.3,-.9c-1.5,0,-2.6,1.4,-3.2,2.5c-.3,.5,-.5,1.3,-.5,2.1c0,1.1,.6,2,1.7,2c1.3,0,2.1,-1.1,2.6,-2.1l-.3,-.1c-.4,.9,-1.2,1.8,-2,1.8c-.6,0,-.9,-1,-.9,-1.6Z" class="g0_240"/>
<path d="M453,610.7c0,-.3,-.4,-.7,-.8,-.7c-.2,0,-.4,.1,-.7,.3c-.2,.2,-.4,.4,-.6,.6c0,-.4,-.3,-.9,-.7,-.9c-.9,0,-1.6,.9,-1.8,1.5l.1,.1c.3,-.4,.8,-1.3,1.5,-1.3c.2,0,.3,.4,.3,.7c0,.3,-.1,.5,-.2,.9l-.2,.8c-.2,.5,-.3,1,-.6,1.3c-.1,.2,-.3,.5,-.5,.5c-.4,0,-.6,0,-.5,-.3c.1,-.3,0,-.6,-.3,-.6c-.3,0,-.5,.3,-.5,.6c0,.4,.4,.7,.8,.7c.7,0,1.3,-.6,1.6,-1.1c.1,.6,.4,1.1,1,1.1c.8,0,1.4,-.9,1.8,-1.4l-.2,-.1c-.3,.5,-.8,1.2,-1.4,1.2c-.3,0,-.5,-.4,-.5,-.9c0,-.2,0,-.6,.1,-1l.2,-.5c0,-.4,.2,-.9,.4,-1.2c.1,-.2,.4,-.7,.7,-.7c.3,0,.3,.3,.3,.5c-.1,.3,.1,.4,.3,.4c.3,0,.4,-.2,.4,-.5Z" class="g0_240"/>
<path d="M461.3,608.3H458v1h3.3v3.2h.9v-3.2h3.3v-1h-3.3V605h-.9v3.3Z" class="g0_240"/>
<path d="M473.9,607.2c0,.6,-.2,1.6,-.3,2.1c-.2,.6,-.7,1.8,-1.1,2.2c-.3,.4,-.7,.8,-1.2,.8c-.5,0,-.8,-.4,-.8,-.9c0,-.7,.1,-1.8,.4,-2.3c.3,-.9,1.2,-2.7,2.4,-2.7c.4,0,.6,.3,.6,.8Zm.2,5.5c.4,0,.8,-.2,1.1,-.6c.3,-.4,.6,-.9,.9,-1.7l-.3,-.1c-.2,.5,-.7,1.9,-1.3,1.9c-.3,0,-.3,-.5,-.3,-.8c0,-.2,0,-.3,0,-.5c.1,-.6,.2,-1.2,.4,-1.9c.1,-.4,.3,-.9,.4,-1.6l1.6,-5.8h-2.3v.2c.4,0,.5,.1,.7,.2c.2,.1,.3,.3,.3,.4c0,.3,-.1,.6,-.2,.9l-.9,3.4c-.2,-.4,-.4,-.6,-1,-.6c-1,0,-2,.9,-2.5,1.6c-.3,.3,-.5,.6,-.7,.9c-.3,.6,-.6,1.4,-.6,2.2c0,.6,.2,1,.5,1.3c.2,.3,.5,.6,1,.6c1.4,-.1,1.9,-.9,2.3,-1.7h.1c0,.1,0,.2,0,.3c-.1,.1,-.1,.2,-.1,.3c0,.6,.3,1.1,.9,1.1Z" class="g0_240"/>
<path d="M481.6,610.7c0,-.3,-.3,-.7,-.7,-.7c-.3,0,-.5,.1,-.7,.3c-.3,.2,-.5,.4,-.7,.6c0,-.4,-.3,-.9,-.7,-.9c-.9,0,-1.6,.9,-1.8,1.5l.1,.1c.3,-.4,.8,-1.3,1.5,-1.3c.2,0,.3,.4,.3,.7c0,.3,-.1,.5,-.2,.9l-.2,.8c-.2,.5,-.3,1,-.6,1.3c-.1,.2,-.3,.5,-.5,.5c-.3,0,-.6,0,-.5,-.3c.1,-.3,0,-.6,-.3,-.6c-.3,0,-.4,.3,-.4,.6c0,.4,.3,.7,.7,.7c.8,0,1.3,-.6,1.6,-1.1c.1,.6,.4,1.1,1,1.1c.8,0,1.4,-.9,1.8,-1.4l-.2,-.1c-.3,.5,-.8,1.2,-1.4,1.2c-.3,0,-.5,-.4,-.5,-.9c0,-.2,0,-.6,.1,-1l.2,-.5c0,-.4,.2,-.9,.4,-1.2c.2,-.2,.4,-.7,.7,-.7c.3,0,.3,.3,.3,.5c0,.3,.1,.4,.3,.4c.3,0,.4,-.2,.4,-.5Z" class="g0_240"/>
<path d="M487.6,610.7h7.6v-.9h-7.6Zm0,-3.1h7.6v-.8h-7.6Z" class="g0_240"/>
<path d="M507.2,607c0,-.5,-.5,-.9,-1,-.9c-.3,0,-.7,.1,-1,.3c-.3,.2,-.6,.5,-.8,.9c0,-.7,-.4,-1.2,-1.1,-1.2c-1.1,0,-2.1,1.1,-2.4,1.9l.2,.1c.3,-.5,1.1,-1.7,2,-1.7c.2,0,.4,.6,.4,1c0,.3,-.1,.7,-.3,1.2l-.3,1.1c-.2,.6,-.4,1.4,-.7,1.8c-.2,.3,-.4,.7,-.8,.7c-.4,0,-.7,-.1,-.6,-.5c0,-.3,0,-.7,-.4,-.7c-.5,0,-.7,.3,-.7,.7c0,.6,.5,1,1.1,1c1,0,1.7,-.8,2.1,-1.5c.1,.8,.6,1.5,1.4,1.5c1.2,0,2,-1.2,2.4,-1.9l-.2,-.1c-.4,.6,-1.1,1.6,-1.9,1.6c-.5,0,-.7,-.6,-.7,-1.2c0,-.4,.1,-.8,.2,-1.4l.2,-.7c.1,-.5,.3,-1.2,.6,-1.6c.2,-.3,.6,-.9,.9,-.9c.5,0,.4,.3,.4,.6c0,.4,.1,.5,.5,.5c.3,0,.5,-.2,.5,-.6Z" class="g0_240"/>
<path d="M509.9,610.2c-.7,0,-1.1,-.4,-1.1,-1.1c0,-.8,.5,-1.6,1.4,-1.6c1.2,0,1.3,.9,1.3,1.9c0,.9,-.3,1.4,-.7,2.1c-.3,.4,-.7,.8,-1.2,1.3c-.4,.5,-1,1.1,-1.8,1.8v.3h4.6l.3,-2.1h-.3c0,.2,-.1,.4,-.2,.6c-.2,.3,-.5,.5,-1,.5h-2.1c.5,-.4,.9,-.7,1.4,-1.1c.7,-.6,1.5,-1.4,1.9,-2.2c.2,-.4,.3,-.8,.3,-1.2c0,-.3,-.1,-.6,-.2,-.9c-.4,-.7,-1.1,-1.2,-2.2,-1.2c-.7,0,-1.3,.2,-1.7,.5c-.4,.4,-.7,.8,-.7,1.5c0,.5,.1,.8,.4,1c.2,.3,.5,.5,.9,.5c.4,0,.7,-.2,.7,-.6Z" class="g0_240"/>
<path d="M351.4,629.1c1.6,0,1.9,1.2,1.9,2.2c0,.9,-.6,1.5,-1.2,1.9c-1,-.5,-2.3,-1,-2.3,-2.2c0,-.9,.3,-1.8,1.6,-1.9Zm1,4.3c.6,-.3,1.3,-.5,1.6,-.9c.2,-.4,.4,-.8,.4,-1.2c0,-1.5,-1.5,-2.4,-2.9,-2.4c-.8,0,-1.5,.2,-2,.7c-.5,.4,-.9,1.1,-.9,1.9c0,1.1,.6,2,1.9,2.7c-1.5,.7,-2.3,1.6,-2.3,2.7c0,1.7,1.5,2.6,3.3,2.6c1.8,0,3.3,-1.2,3.3,-3c0,-1.2,-1,-2.3,-2.4,-3.1Zm-.9,5.8c-1.5,0,-2,-1.1,-2,-2.3c0,-1.2,.4,-2.1,1.3,-2.6l1.1,.6c.3,.2,.5,.4,.8,.5c.4,.4,.8,.7,.8,1.5c0,1.1,-.6,2.3,-2,2.3Z" class="g0_240"/>
<path d="M343.2,646h16.7v-.8H343.2Z" class="g0_240"/>
<path d="M346.8,653.3c-.9,0,-1.5,-.6,-1.5,-1.6c0,-1.1,.6,-2.2,1.8,-2.2c1.7,0,1.8,1.3,1.8,2.6c0,1.3,-.3,2,-1,2.9c-.3,.6,-.9,1.2,-1.5,1.9c-.7,.7,-1.5,1.4,-2.5,2.4v.4h6.2l.5,-2.9h-.4c-.1,.4,-.2,.6,-.3,.8c-.2,.5,-.7,.8,-1.4,.8h-2.9v-.1c.7,-.5,1.3,-1,1.9,-1.4c1,-.9,2.1,-1.9,2.7,-3.1c.2,-.6,.3,-1.1,.3,-1.7c0,-.4,0,-.8,-.2,-1.1c-.5,-1.1,-1.5,-1.8,-3,-1.8c-.9,0,-1.8,.4,-2.4,.8c-.5,.5,-.9,1.1,-.9,2c0,.7,.2,1.1,.5,1.5c.3,.3,.7,.5,1.2,.5c.6,0,1,-.2,1.1,-.7Z" class="g0_240"/>
<path d="M354.3,659.8c.3,0,.6,-.1,.8,-.3c.5,-.8,1,-2.2,1.3,-3.1l.9,-2.4c.6,-1.5,1.2,-2.9,1.9,-4.5v-.1h-4.4c-.5,0,-1.1,0,-1.2,-.4c0,-.1,0,-.3,0,-.4h-.3l-.9,3.7h.3l.2,-.5c.2,-.6,.6,-1,1.3,-1.1c.2,0,.5,0,.9,0h3.3l-2.1,3.5c-.4,.8,-.7,1.3,-1,1.8c-.3,.5,-.5,1,-.7,1.3c-.3,.5,-.5,1,-.6,1.4c-.1,.2,-.1,.3,-.1,.4c-.1,0,-.1,.1,-.1,.2c0,.3,.2,.5,.5,.5Z" class="g0_240"/>
<path d="M366.2,643c-.5,0,-.9,.1,-1.3,.4c-.5,.3,-.9,.7,-1.3,1.2c-.6,.7,-1.2,1.9,-1.2,3.2c0,1,.4,1.8,1.3,1.8c1.3,0,1.8,-.9,2.2,-1.6c-.2,.9,-.1,1.6,.5,1.6c.4,0,.8,-.2,1.2,-.5c.4,-.3,.7,-.8,1.1,-1.4l-.2,-.1c-.3,.4,-.9,1.3,-1.4,1.3c-.2,0,-.2,-.3,-.2,-.5c0,-1,.6,-2.5,.9,-3.5l.7,-1.8h-1l-.3,.6c-.1,-.4,-.4,-.7,-1,-.7Zm.1,.2c.7,0,.6,1.3,.5,1.9c-.1,.3,-.2,.7,-.3,1c-.4,1.2,-1.5,3.1,-2.3,3.1c-.6,0,-.8,-.9,-.8,-1.4c0,-.5,0,-.9,.2,-1.4c.4,-1,1.4,-3.2,2.7,-3.2Z" class="g0_240"/>
<path d="M374.4,647.6c0,-.4,-.3,-.7,-.7,-.7c-.3,0,-.5,.1,-.7,.3c-.3,.2,-.5,.4,-.7,.6c0,-.4,-.3,-.9,-.7,-.9c-.9,0,-1.6,.9,-1.8,1.5l.1,.1c.3,-.4,.8,-1.3,1.5,-1.3c.2,0,.3,.4,.3,.7c0,.2,-.1,.5,-.2,.9l-.2,.8c-.1,.5,-.3,1,-.6,1.3c-.1,.2,-.3,.5,-.5,.5c-.3,0,-.6,0,-.5,-.3c.1,-.3,0,-.6,-.3,-.6c-.3,0,-.4,.3,-.4,.6c0,.4,.3,.7,.7,.7c.8,0,1.3,-.6,1.6,-1.1c.1,.6,.4,1.1,1,1.1c.8,0,1.5,-.9,1.8,-1.4l-.2,-.1c-.3,.5,-.8,1.2,-1.4,1.2c-.3,0,-.5,-.4,-.5,-.9c0,-.2,.1,-.6,.1,-1l.2,-.5c.1,-.4,.2,-.9,.4,-1.2c.2,-.2,.4,-.7,.7,-.7c.3,0,.3,.3,.3,.5c0,.3,.1,.4,.3,.4c.3,0,.4,-.2,.4,-.5Z" class="g0_240"/>
<path d="M382.7,645.2h-3.3v1h3.3v3.2h1v-3.2h3.2v-1h-3.2v-3.3h-1v3.3Z" class="g0_240"/>
<path d="M396.8,631v5.3h-3.5c1.2,-1.7,2.3,-3.6,3.5,-5.3Zm-3.8,5.3v.6h3.8v.5c0,1.2,-.2,1.7,-.8,1.7v.2h2.9v-.2c-.6,0,-.8,-.7,-.8,-1.8v-.4h1.7c0,0,0,-.6,0,-.6c0,0,-1.7,0,-1.7,0v-7.4h-.4l-4.7,7.4Z" class="g0_240"/>
<path d="M392.5,646h8.3v-.8h-8.3Z" class="g0_240"/>
<path d="M394.8,652.8c0,-1.7,.4,-3.3,1.9,-3.3c1.2,0,1.8,1.7,1.8,3.9v.7c-.4,.9,-.9,1.8,-2,1.8c-1.3,0,-1.7,-1.7,-1.7,-3.1Zm-1.2,5.6c0,.7,1.3,1.4,2.4,1.4c3.1,0,4.1,-2.8,4.1,-5.9c0,-2.5,-1,-4.7,-3.4,-4.7c-2.1,0,-3.4,1.6,-3.4,3.6c0,1.9,1.1,3.4,3,3.4c1.1,0,1.7,-.6,2.2,-1.3c0,1.2,0,2.3,-.4,3.1c-.3,.6,-.9,1.5,-1.9,1.5c-1.6,0,-1.1,-1.8,-2,-1.8c-.5,0,-.6,.2,-.6,.7Z" class="g0_240"/>
<path d="M406.6,643.3c1.2,0,.9,1.9,.4,3.2c-.4,.8,-1.3,2.7,-2.4,2.7c-.5,0,-.7,-.3,-.7,-.9c0,-.8,.3,-1.8,.5,-2.4c.3,-.6,.7,-1.6,1.1,-2c.3,-.3,.7,-.6,1.1,-.6Zm-2.2,6.3c1.7,0,2.8,-1.5,3.4,-2.6c.4,-.7,.7,-1.5,.7,-2.3c0,-1,-.5,-1.7,-1.5,-1.7c-1,0,-1.7,.5,-2,1.1h-.1l1.6,-5.6l-2.1,.1l-.1,.2c.7,0,.9,.3,.9,.6c0,.2,-.1,.6,-.2,.8l-1.5,5.6c-.2,.6,-.4,1,-.4,1.4c-.1,.4,-.2,.7,-.2,.9c0,.8,.6,1.5,1.5,1.5Z" class="g0_240"/>
<path d="M414.2,647.6c0,-.4,-.4,-.7,-.8,-.7c-.2,0,-.4,.1,-.7,.3c-.2,.2,-.4,.4,-.6,.6c0,-.4,-.3,-.9,-.8,-.9c-.8,0,-1.5,.9,-1.7,1.5l.1,.1c.3,-.4,.8,-1.3,1.5,-1.3c.2,0,.2,.4,.2,.7c0,.2,0,.5,-.1,.9l-.3,.8c-.1,.5,-.3,1,-.5,1.3c-.1,.2,-.3,.5,-.6,.5c-.3,0,-.5,0,-.4,-.3c0,-.3,0,-.6,-.3,-.6c-.3,0,-.5,.3,-.5,.6c0,.4,.4,.7,.8,.7c.7,0,1.3,-.6,1.5,-1.1h.1c0,.6,.3,1.1,.9,1.1c.9,0,1.5,-.9,1.8,-1.4l-.1,-.1c-.4,.5,-.9,1.2,-1.4,1.2c-.4,0,-.5,-.4,-.5,-.9c0,-.2,0,-.6,.1,-1l.1,-.5c.1,-.4,.3,-.9,.5,-1.2c.1,-.2,.4,-.7,.7,-.7c.3,0,.3,.3,.2,.5c0,.3,.1,.4,.4,.4c.3,0,.4,-.2,.4,-.5Z" class="g0_240"/>
<path d="M422.4,645.2h-3.2v1h3.2v3.2h1v-3.2h3.3v-1h-3.3v-3.3h-1v3.3Z" class="g0_240"/>
<path d="M435.9,632.9c-1,0,-1.5,-.6,-1.5,-1.5c0,-1.1,.6,-2.3,1.8,-2.3c1.6,0,1.8,1.4,1.8,2.6c0,1.3,-.4,2.1,-1,3c-.3,.5,-.9,1.1,-1.5,1.8c-.7,.7,-1.5,1.5,-2.5,2.4v.4h6.2l.5,-2.8h-.4c-.1,.3,-.2,.5,-.3,.7c-.2,.6,-.7,.8,-1.4,.8h-2.9c.7,-.5,1.3,-1,1.9,-1.5c1,-.9,2.1,-1.9,2.7,-3.1c.2,-.5,.3,-1.1,.3,-1.6c0,-.5,-.1,-.8,-.2,-1.2c-.5,-1,-1.5,-1.7,-3,-1.7c-1,0,-1.8,.3,-2.4,.7c-.5,.5,-.9,1.2,-.9,2.1c0,.6,.2,1.1,.5,1.4c.3,.3,.7,.6,1.2,.6c.6,0,1,-.3,1.1,-.8Z" class="g0_240"/>
<path d="M432.3,646h8.3v-.8h-8.3Z" class="g0_240"/>
<path d="M436.2,659.5c-1,0,-1.8,-.9,-1.8,-1.9c0,-.7,.4,-1.3,1.1,-1.3c0,-.4,-.5,-.6,-1,-.6c-.2,0,-.4,.1,-.6,.2c-.5,.2,-.9,.8,-.9,1.5c0,.4,0,.7,.2,1c.5,.9,1.6,1.4,3,1.4c1.1,0,1.9,-.3,2.5,-.8c.6,-.5,1,-1.2,1,-2.1c0,-.4,0,-.7,-.1,-1c-.4,-.9,-1.2,-1.5,-2.2,-1.7v-.1c.6,-.2,1.1,-.5,1.4,-.9c.4,-.4,.6,-.9,.6,-1.6c0,-.4,0,-.7,-.2,-1c-.5,-.9,-1.6,-1.4,-3,-1.4c-.8,0,-1.5,.2,-2.1,.5c-.4,.3,-.7,.8,-.7,1.4c0,.4,.1,.8,.4,1c.2,.2,.5,.4,.9,.4c.3,0,.5,0,.7,-.1c.1,-.1,.2,-.2,.3,-.4c-.6,0,-1,-.4,-1,-1c0,-.8,.7,-1.5,1.5,-1.5c1.1,0,1.6,.9,1.6,2.2c0,1.2,-.3,2.4,-1.4,2.4c-.3,-.1,-.6,-.2,-.9,-.2c-.3,0,-.7,.1,-.7,.3c0,.4,.5,.5,.8,.5c.3,0,.7,-.2,.9,-.3c1.2,0,1.5,1.1,1.5,2.4c0,1.4,-.5,2.7,-1.8,2.7Z" class="g0_240"/>
<path d="M443.7,647.6c0,-.5,.1,-1,.2,-1.4c.3,-1,1.1,-2.9,2.2,-2.9c.4,0,.4,.1,.4,.3c0,.1,-.1,.2,-.1,.4c0,.3,.2,.6,.5,.6c.4,0,.7,-.3,.7,-.7c0,-.6,-.6,-.9,-1.3,-.9c-1.5,0,-2.6,1.4,-3.2,2.5c-.3,.5,-.5,1.3,-.5,2.1c0,1.1,.6,2,1.7,2c1.3,0,2.1,-1.1,2.6,-2.1l-.3,-.1c-.4,.9,-1.2,1.8,-2,1.8c-.6,0,-.9,-1,-.9,-1.6Z" class="g0_240"/>
<path d="M453,647.6c0,-.4,-.4,-.7,-.8,-.7c-.2,0,-.4,.1,-.7,.3c-.2,.2,-.4,.4,-.6,.6c0,-.4,-.3,-.9,-.7,-.9c-.9,0,-1.6,.9,-1.8,1.5l.1,.1c.3,-.4,.8,-1.3,1.5,-1.3c.2,0,.3,.4,.3,.7c0,.2,-.1,.5,-.2,.9l-.2,.8c-.2,.5,-.3,1,-.6,1.3c-.1,.2,-.3,.5,-.5,.5c-.4,0,-.6,0,-.5,-.3c.1,-.3,0,-.6,-.3,-.6c-.3,0,-.5,.3,-.5,.6c0,.4,.4,.7,.8,.7c.7,0,1.3,-.6,1.6,-1.1c.1,.6,.4,1.1,1,1.1c.8,0,1.4,-.9,1.8,-1.4l-.2,-.1c-.3,.5,-.8,1.2,-1.4,1.2c-.3,0,-.5,-.4,-.5,-.9c0,-.2,0,-.6,.1,-1l.2,-.5c0,-.4,.2,-.9,.4,-1.2c.1,-.2,.4,-.7,.7,-.7c.3,0,.3,.3,.3,.5c-.1,.3,.1,.4,.3,.4c.3,0,.4,-.2,.4,-.5Z" class="g0_240"/>
<path d="M461.3,645.2H458v1h3.3v3.2h.9v-3.2h3.3v-1h-3.3v-3.3h-.9v3.3Z" class="g0_240"/>
<path d="M473.9,644.1c0,.6,-.2,1.6,-.3,2.1c-.2,.6,-.7,1.8,-1.1,2.2c-.3,.4,-.7,.8,-1.2,.8c-.5,0,-.8,-.4,-.8,-.9c0,-.7,.1,-1.8,.4,-2.3c.3,-.9,1.2,-2.7,2.4,-2.7c.4,0,.6,.3,.6,.8Zm.2,5.5c.4,0,.8,-.2,1.1,-.6c.3,-.4,.6,-.9,.9,-1.7l-.3,-.2c-.2,.6,-.7,2,-1.3,2c-.3,0,-.3,-.5,-.3,-.8c0,-.2,0,-.3,0,-.5c.1,-.7,.2,-1.2,.4,-1.9c.1,-.4,.3,-1,.4,-1.6l1.6,-5.8h-2.3v.2c.4,0,.5,.1,.7,.2c.2,.1,.3,.3,.3,.4c0,.3,-.1,.6,-.2,.9l-.9,3.4c-.2,-.4,-.4,-.6,-1,-.6c-1,0,-2,.9,-2.5,1.5c-.3,.4,-.5,.7,-.7,1c-.3,.6,-.6,1.4,-.6,2.2c0,.6,.2,1,.5,1.3c.2,.3,.5,.6,1,.6c1.4,-.1,1.9,-.9,2.3,-1.7h.1c0,.1,0,.2,0,.3c-.1,.1,-.1,.2,-.1,.3c0,.6,.3,1.1,.9,1.1Z" class="g0_240"/>
<path d="M481.6,647.6c0,-.4,-.3,-.7,-.7,-.7c-.3,0,-.5,.1,-.7,.3c-.3,.2,-.5,.4,-.7,.6c0,-.4,-.3,-.9,-.7,-.9c-.9,0,-1.6,.9,-1.8,1.5l.1,.1c.3,-.4,.8,-1.3,1.5,-1.3c.2,0,.3,.4,.3,.7c0,.2,-.1,.5,-.2,.9l-.2,.8c-.2,.5,-.3,1,-.6,1.3c-.1,.2,-.3,.5,-.5,.5c-.3,0,-.6,0,-.5,-.3c.1,-.3,0,-.6,-.3,-.6c-.3,0,-.4,.3,-.4,.6c0,.4,.3,.7,.7,.7c.8,0,1.3,-.6,1.6,-1.1c.1,.6,.4,1.1,1,1.1c.8,0,1.4,-.9,1.8,-1.4l-.2,-.1c-.3,.5,-.8,1.2,-1.4,1.2c-.3,0,-.5,-.4,-.5,-.9c0,-.2,0,-.6,.1,-1l.2,-.5c0,-.4,.2,-.9,.4,-1.2c.2,-.2,.4,-.7,.7,-.7c.3,0,.3,.3,.3,.5c0,.3,.1,.4,.3,.4c.3,0,.4,-.2,.4,-.5Z" class="g0_240"/>
<path d="M487.6,647.5h7.6v-.8h-7.6Zm0,-3h7.6v-.8h-7.6Z" class="g0_240"/>
<path d="M507.2,643.9c0,-.5,-.5,-.9,-1,-.9c-.3,0,-.7,.1,-1,.3c-.3,.2,-.6,.5,-.8,.9c0,-.7,-.4,-1.2,-1.1,-1.2c-1.1,0,-2.1,1.1,-2.4,1.9l.2,.1c.3,-.5,1.1,-1.7,2,-1.7c.2,0,.4,.6,.4,1c0,.3,-.1,.7,-.3,1.2l-.3,1.1c-.2,.6,-.4,1.4,-.7,1.8c-.2,.3,-.4,.7,-.8,.7c-.4,0,-.7,-.1,-.6,-.5c0,-.3,0,-.7,-.4,-.7c-.5,0,-.7,.3,-.7,.7c0,.6,.5,1,1.1,1c1,0,1.7,-.8,2.1,-1.5c.1,.8,.6,1.5,1.4,1.5c1.2,0,2,-1.2,2.4,-1.9l-.2,-.2c-.4,.7,-1.1,1.7,-1.9,1.7c-.5,0,-.7,-.6,-.7,-1.2c0,-.4,.1,-.8,.2,-1.4l.2,-.7c.1,-.5,.3,-1.2,.6,-1.6c.2,-.3,.6,-.9,.9,-.9c.5,0,.4,.3,.4,.6c0,.4,.1,.5,.5,.5c.3,0,.5,-.2,.5,-.6Z" class="g0_240"/>
<path d="M510.1,651.7c-.7,0,-1.2,-.7,-1.2,-1.4c0,-.5,.3,-1,.8,-1c-.1,-.2,-.4,-.4,-.8,-.4c-.1,0,-.3,.1,-.4,.1c-.4,.2,-.7,.6,-.7,1.2c0,.2,.1,.4,.2,.7c.4,.6,1.1,1,2.2,1c.8,0,1.4,-.3,1.8,-.6c.4,-.4,.8,-.8,.8,-1.5c0,-.3,-.1,-.5,-.2,-.7c-.2,-.7,-.8,-1.1,-1.5,-1.3v-.1c.4,-.1,.8,-.3,1,-.6c.2,-.3,.4,-.7,.4,-1.2c0,-.3,0,-.5,-.1,-.7c-.4,-.7,-1.2,-1,-2.2,-1c-.6,0,-1.2,.1,-1.5,.3c-.3,.2,-.6,.6,-.6,1c0,.4,.1,.6,.3,.8c.1,.1,.4,.3,.7,.3c.2,0,.3,-.1,.5,-.1c.1,-.1,.1,-.2,.2,-.3c-.4,0,-.7,-.3,-.7,-.7c0,-.6,.5,-1.1,1.1,-1.1c.8,0,1.2,.6,1.2,1.5c0,.9,-.3,1.8,-1.1,1.8c-.2,0,-.4,-.1,-.6,-.1c-.2,0,-.5,0,-.5,.2c0,.3,.3,.4,.5,.4c.3,0,.5,-.2,.7,-.3c.9,0,1.1,.8,1.1,1.8c0,1,-.4,2,-1.4,2Z" class="g0_240"/>
<path d="M368,671.8c-.5,0,-.9,.2,-1.3,.5c-.5,.3,-.9,.7,-1.3,1.1c-.6,.8,-1.2,2,-1.2,3.3c0,1,.3,1.7,1.3,1.7c1.3,0,1.8,-.8,2.2,-1.5c-.2,.9,-.1,1.5,.5,1.5c.4,0,.8,-.1,1.2,-.4c.3,-.4,.7,-.8,1,-1.4l-.1,-.1c-.3,.4,-1,1.3,-1.4,1.3c-.2,0,-.3,-.3,-.3,-.6c0,-.9,.7,-2.4,1,-3.4l.7,-1.8h-1l-.3,.6c-.1,-.4,-.4,-.8,-1,-.8Zm.1,.3c.7,0,.5,1.3,.4,1.9c0,.3,-.1,.6,-.3,1c-.3,1.2,-1.4,3.1,-2.2,3.1c-.6,0,-.8,-1,-.8,-1.5c0,-.4,0,-.8,.2,-1.3c.4,-1,1.4,-3.2,2.7,-3.2Z" class="g0_240"/>
<path d="M376.2,676.5c0,-.4,-.4,-.7,-.8,-.7c-.2,0,-.4,.1,-.6,.3c-.3,.1,-.5,.4,-.7,.6c0,-.5,-.3,-.9,-.7,-.9c-.9,0,-1.6,.9,-1.8,1.5h.1c.3,-.3,.8,-1.2,1.5,-1.2c.2,0,.3,.4,.3,.7c0,.2,-.1,.5,-.2,.9l-.2,.8c-.2,.4,-.3,1,-.6,1.3c-.1,.2,-.3,.5,-.5,.5c-.4,0,-.6,-.1,-.5,-.3c.1,-.3,0,-.6,-.3,-.6c-.3,0,-.5,.2,-.5,.6c0,.4,.4,.6,.8,.6c.8,0,1.3,-.5,1.6,-1c.1,.6,.4,1,1,1c.8,0,1.4,-.8,1.8,-1.3l-.2,-.1c-.3,.4,-.8,1.2,-1.4,1.2c-.3,0,-.5,-.5,-.5,-.9c0,-.3,0,-.6,.1,-1l.2,-.5c0,-.4,.2,-.9,.4,-1.2c.2,-.2,.4,-.7,.7,-.7c.3,0,.3,.2,.3,.5c-.1,.3,.1,.4,.3,.4c.3,0,.4,-.2,.4,-.5Z" class="g0_240"/>
<path d="M384.5,674.1h-3.3v1h3.3v3.2h.9v-3.2h3.3v-1h-3.3v-3.3h-.9v3.3Z" class="g0_240"/>
<path d="M396.5,672.2c1.2,0,.9,1.9,.3,3.2c-.3,.8,-1.2,2.7,-2.4,2.7c-.4,0,-.6,-.3,-.6,-1c0,-.7,.2,-1.7,.5,-2.3c.2,-.6,.7,-1.6,1.1,-2c.2,-.3,.6,-.6,1.1,-.6Zm-2.3,6.2c1.7,0,2.9,-1.4,3.5,-2.6c.3,-.6,.6,-1.4,.6,-2.2c0,-1.1,-.5,-1.8,-1.5,-1.8c-.9,0,-1.6,.6,-2,1.2l1.5,-5.6l-2,.1l-.1,.2c.6,0,.9,.3,.9,.6c0,.2,-.1,.6,-.2,.7l-1.6,5.7c-.2,.5,-.3,1,-.4,1.4c-.1,.3,-.1,.7,-.1,.9c0,.8,.6,1.4,1.4,1.4Z" class="g0_240"/>
<path d="M404,676.5c0,-.4,-.3,-.7,-.7,-.7c-.2,0,-.5,.1,-.7,.3c-.2,.1,-.5,.4,-.6,.6c0,-.5,-.3,-.9,-.8,-.9c-.8,0,-1.5,.9,-1.8,1.5h.2c.2,-.3,.8,-1.2,1.4,-1.2c.2,0,.3,.4,.3,.7c0,.2,0,.5,-.2,.9l-.2,.8c-.1,.4,-.3,1,-.5,1.3c-.1,.2,-.3,.5,-.6,.5c-.3,0,-.5,-.1,-.5,-.3c.1,-.3,.1,-.6,-.3,-.6c-.3,0,-.4,.2,-.4,.6c0,.4,.3,.6,.8,.6c.7,0,1.2,-.5,1.5,-1c.1,.6,.4,1,1,1c.9,0,1.5,-.8,1.8,-1.3l-.1,-.1c-.4,.4,-.9,1.2,-1.5,1.2c-.3,0,-.5,-.5,-.5,-.9c0,-.3,.1,-.6,.2,-1l.1,-.5c.1,-.4,.3,-.9,.5,-1.2c.1,-.2,.4,-.7,.6,-.7c.3,0,.3,.2,.3,.5c0,.3,.1,.4,.3,.4c.3,0,.4,-.2,.4,-.5Z" class="g0_240"/>
<path d="M412.3,674.1H409v1h3.3v3.2h1v-3.2h3.2v-1h-3.2v-3.3h-1v3.3Z" class="g0_240"/>
<path d="M421.6,676.5c0,-.5,.1,-1,.2,-1.4c.3,-1,1.1,-2.9,2.3,-2.9c.3,0,.3,.1,.3,.2c0,.2,-.1,.3,-.1,.5c0,.3,.2,.6,.6,.6c.4,0,.6,-.3,.6,-.7c0,-.7,-.6,-1,-1.3,-1c-1.4,0,-2.5,1.5,-3.1,2.5c-.4,.6,-.6,1.3,-.6,2.2c0,1.1,.6,1.9,1.7,1.9c1.3,0,2.1,-1,2.6,-2l-.2,-.1c-.5,.9,-1.3,1.8,-2.1,1.8c-.6,0,-.9,-1,-.9,-1.6Z" class="g0_240"/>
<path d="M430.9,676.5c0,-.4,-.3,-.7,-.7,-.7c-.3,0,-.5,.1,-.7,.3c-.3,.1,-.5,.4,-.6,.6c0,-.5,-.4,-.9,-.8,-.9c-.8,0,-1.6,.9,-1.8,1.5h.2c.2,-.3,.7,-1.2,1.4,-1.2c.2,0,.3,.4,.3,.7c0,.2,-.1,.5,-.2,.9l-.2,.8c-.1,.4,-.3,1,-.5,1.3c-.2,.2,-.4,.5,-.6,.5c-.3,0,-.6,-.1,-.5,-.3c.1,-.3,0,-.6,-.3,-.6c-.3,0,-.4,.2,-.4,.6c0,.4,.3,.6,.7,.6c.8,0,1.3,-.5,1.6,-1c.1,.6,.4,1,1,1c.8,0,1.5,-.8,1.8,-1.3l-.2,-.1c-.3,.4,-.8,1.2,-1.4,1.2c-.3,0,-.5,-.5,-.5,-.9c0,-.3,.1,-.6,.2,-1l.1,-.5c.1,-.4,.2,-.9,.4,-1.2c.2,-.2,.5,-.7,.7,-.7c.3,0,.3,.2,.3,.5c0,.3,.1,.4,.3,.4c.3,0,.4,-.2,.4,-.5Z" class="g0_240"/>
<path d="M439.2,674.1h-3.3v1h3.3v3.2h1v-3.2h3.2v-1h-3.2v-3.3h-1v3.3Z" class="g0_240"/>
<path d="M451.9,673c0,.6,-.2,1.5,-.4,2.1c-.2,.6,-.7,1.7,-1.1,2.2c-.2,.3,-.7,.8,-1.2,.8c-.5,0,-.8,-.4,-.8,-.9c0,-.7,.2,-1.8,.4,-2.3c.4,-.9,1.2,-2.7,2.4,-2.7c.4,0,.7,.3,.7,.8Zm.2,5.4c.4,0,.7,-.2,1,-.5c.4,-.4,.7,-1,.9,-1.8l-.3,-.1c-.2,.6,-.7,1.9,-1.2,1.9c-.3,0,-.4,-.5,-.4,-.8c0,-.1,0,-.2,0,-.4c.1,-.7,.3,-1.2,.4,-1.9c.1,-.4,.3,-1,.5,-1.6l1.5,-5.8h-2.2l-.1,.2c.4,0,.6,.1,.7,.2c.2,.1,.3,.3,.3,.4c0,.3,-.1,.6,-.2,.8l-.9,3.5c-.2,-.4,-.4,-.7,-1,-.7c-1,0,-1.9,.9,-2.5,1.6c-.2,.3,-.5,.7,-.6,1c-.4,.6,-.7,1.4,-.7,2.2c0,.6,.2,1,.5,1.3c.2,.3,.5,.5,1,.5c1.4,0,1.9,-.8,2.4,-1.6c0,.1,0,.2,0,.3c0,.1,-.1,.2,-.1,.3c0,.6,.3,1,1,1Z" class="g0_240"/>
<path d="M459.5,676.5c0,-.4,-.3,-.7,-.7,-.7c-.3,0,-.5,.1,-.7,.3c-.2,.1,-.5,.4,-.6,.6c0,-.5,-.3,-.9,-.8,-.9c-.8,0,-1.5,.9,-1.8,1.5h.2c.2,-.3,.8,-1.2,1.4,-1.2c.2,0,.3,.4,.3,.7c0,.2,-.1,.5,-.2,.9l-.2,.8c-.1,.4,-.3,1,-.5,1.3c-.2,.2,-.3,.5,-.6,.5c-.3,0,-.6,-.1,-.5,-.3c.1,-.3,0,-.6,-.3,-.6c-.3,0,-.4,.2,-.4,.6c0,.4,.3,.6,.7,.6c.8,0,1.3,-.5,1.6,-1c.1,.6,.4,1,1,1c.9,0,1.5,-.8,1.8,-1.3l-.2,-.1c-.3,.4,-.8,1.2,-1.4,1.2c-.3,0,-.5,-.5,-.5,-.9c0,-.3,.1,-.6,.2,-1l.1,-.5c.1,-.4,.3,-.9,.5,-1.2c.1,-.2,.4,-.7,.6,-.7c.3,0,.3,.2,.3,.5c0,.3,.1,.4,.3,.4c.3,0,.4,-.2,.4,-.5Z" class="g0_240"/>
<path d="M465.5,676.4h7.6v-.8h-7.6Zm0,-3h7.6v-.8h-7.6Z" class="g0_240"/>
<path d="M485.1,672.8c0,-.5,-.5,-1,-1,-1c-.3,0,-.6,.2,-1,.4c-.3,.2,-.6,.5,-.8,.9c0,-.7,-.4,-1.3,-1.1,-1.3c-1.1,0,-2.1,1.2,-2.4,2l.2,.1c.4,-.5,1.1,-1.7,2,-1.7c.3,0,.4,.6,.4,1c0,.3,-.1,.7,-.2,1.2l-.4,1.1c-.1,.6,-.4,1.4,-.7,1.8c-.2,.3,-.4,.7,-.8,.7c-.4,0,-.7,-.1,-.6,-.5c.1,-.3,0,-.8,-.4,-.8c-.5,0,-.6,.4,-.6,.8c0,.6,.4,.9,1,.9c1,0,1.8,-.7,2.1,-1.4h.1c.1,.8,.5,1.4,1.3,1.4c1.2,0,2,-1.1,2.5,-1.8l-.2,-.2c-.5,.7,-1.2,1.7,-2,1.7c-.4,0,-.7,-.6,-.7,-1.2c0,-.4,.1,-.8,.2,-1.4l.2,-.7c.1,-.6,.4,-1.2,.6,-1.6c.2,-.3,.6,-1,1,-1c.4,0,.4,.3,.3,.7c0,.4,.2,.5,.5,.5c.4,0,.5,-.2,.5,-.6Z" class="g0_240"/>
<path d="M488.3,674.6l.1,3.9h-2.6c.9,-1.3,1.7,-2.6,2.5,-3.9Zm-2.7,3.8v.5h2.8v.4c0,.9,-.2,1.2,-.6,1.2v.2h2.1v-.2c-.5,0,-.6,-.5,-.6,-1.3v-.3h1.3c0,0,0,-.4,0,-.4c0,0,-1.3,0,-1.3,0V673H489l-3.4,5.4Z" class="g0_240"/>
<path d="M409.2,747c0,.6,-.2,1.5,-.4,2.1c-.2,.6,-.7,1.7,-1.1,2.2c-.2,.3,-.7,.8,-1.2,.8c-.5,0,-.8,-.4,-.8,-.9c0,-.7,.2,-1.8,.4,-2.4c.4,-.8,1.2,-2.7,2.4,-2.7c.4,0,.7,.4,.7,.9Zm.2,5.4c.4,0,.7,-.2,1,-.5c.4,-.4,.7,-1,1,-1.8L411,750c-.2,.6,-.7,1.9,-1.2,1.9c-.3,0,-.4,-.5,-.4,-.8c0,-.1,0,-.3,0,-.5c.1,-.6,.3,-1.1,.4,-1.8c.1,-.4,.3,-1,.5,-1.6l1.5,-5.8h-2.2l-.1,.2c.4,0,.6,.1,.7,.1c.2,.2,.3,.4,.3,.5c0,.3,-.1,.5,-.2,.8l-.9,3.5c-.2,-.4,-.4,-.7,-1,-.7c-1,0,-1.9,.9,-2.5,1.6c-.2,.3,-.4,.7,-.6,1c-.4,.6,-.6,1.3,-.6,2.2c0,.6,.1,1,.4,1.3c.2,.3,.6,.5,1,.5c1.4,0,1.9,-.8,2.4,-1.6c0,.1,0,.2,0,.3c0,.1,0,.2,0,.3c0,.6,.2,1,.9,1Z" class="g0_240"/>
<path d="M410.8,756.1c0,.5,.4,.7,.8,.7c.3,0,.6,-.1,1,-.4c.5,-.5,1.5,-1.6,2,-2.5c.3,-.5,.5,-.9,.8,-1.3c.2,-.6,.8,-1.6,.8,-2.1c0,-.2,-.1,-.4,-.1,-.5c-.1,-.1,-.2,-.2,-.4,-.2c-.1,0,-.2,.1,-.3,.2c-.1,.1,-.1,.2,-.1,.4c0,.4,.1,.7,.1,1c0,.4,-.1,.8,-.3,1.2c-.2,.3,-.4,.6,-.6,1h-.1l-.2,-1.4c-.1,-.4,-.2,-1.2,-.3,-1.5c-.2,-.5,-.3,-.9,-1,-.9c-.8,0,-1,1.3,-1.2,1.9l.3,.1c.1,-.5,.4,-1.7,.7,-1.7c.3,0,.4,.7,.4,.9c.1,.2,.1,.5,.2,1l.5,2.6c-.3,.5,-.9,1.2,-1.3,1.5c-.2,.2,-.4,.2,-.6,.2c0,0,-.1,0,-.1,-.1c-.2,-.2,-.2,-.6,-.5,-.6c-.3,0,-.5,.3,-.5,.5Z" class="g0_240"/>
<path d="M422.2,750.4h7.6v-.8h-7.6Zm0,-3h7.6v-.8h-7.6Z" class="g0_240"/>
<path d="M433.6,754.5c0,.6,.4,.9,1.1,.9c.4,0,.8,-.1,1.3,-.5c.8,-.7,2,-2.3,2.8,-3.5c.3,-.6,.7,-1.2,1,-1.8c.4,-.8,1.1,-2.1,1.1,-2.9c0,-.2,0,-.4,-.1,-.6c-.1,-.2,-.3,-.3,-.5,-.3c-.2,0,-.3,.1,-.4,.2c-.2,.2,-.2,.4,-.2,.7c0,.4,.2,.9,.2,1.3c0,.6,-.2,1.1,-.5,1.6c-.2,.5,-.4,.9,-.8,1.4h-.1l-.3,-1.9c-.1,-.6,-.3,-1.6,-.4,-2.1c-.2,-.6,-.3,-1.2,-1.3,-1.2c-1.2,0,-1.4,1.8,-1.6,2.6l.3,.1c.1,-.6,.5,-2.3,1,-2.3c.3,0,.5,1,.5,1.2c.1,.3,.2,.7,.3,1.4l.6,3.5c-.3,.8,-1.2,1.7,-1.8,2.2c-.2,.1,-.5,.2,-.7,.2c-.1,0,-.2,0,-.2,-.1c-.2,-.3,-.2,-.8,-.7,-.8c-.4,0,-.6,.3,-.6,.7Z" class="g0_240"/>
<path d="M442.5,747.6v.1c.3,0,.8,.1,1,.2c.3,.1,.3,.3,.3,.7v4.8c0,.2,0,.4,0,.5c-.1,.5,-.7,.6,-1.2,.6v.2H446v-.2c-.4,0,-.9,0,-1.1,-.2c-.1,-.2,-.1,-.6,-.1,-1V747c-.6,.3,-1.6,.6,-2.3,.6Z" class="g0_240"/>
<path d="M349.4,764.4v.2c.5,0,1.1,.1,1.3,.2c.5,.2,.5,.4,.5,1v6.5c0,.3,0,.6,-.1,.8c-.1,.6,-.9,.7,-1.6,.8v.2h4.7v-.2c-.5,0,-1.3,-.1,-1.5,-.3c-.2,-.3,-.2,-.8,-.2,-1.4v-8.6c-.8,.4,-2.1,.8,-3.1,.8Z" class="g0_240"/>
<path clip-path="url(#c0_240)" d="M343.3,780.8H360v-.9H343.3Z" class="g0_240"/>
<path d="M346.9,788.1c-.9,0,-1.5,-.7,-1.5,-1.6c0,-1.1,.6,-2.2,1.8,-2.2c1.7,0,1.8,1.3,1.8,2.6c0,1.2,-.3,2,-1,2.9c-.3,.5,-.9,1.1,-1.5,1.8c-.7,.7,-1.5,1.5,-2.5,2.4v.5h6.2l.5,-2.9h-.4c-.1,.3,-.2,.6,-.3,.8c-.2,.5,-.7,.7,-1.4,.7h-2.9c.7,-.5,1.3,-1,1.9,-1.5c1,-.9,2.1,-1.9,2.7,-3.1c.2,-.5,.3,-1.1,.3,-1.6c0,-.4,0,-.8,-.2,-1.2c-.5,-1,-1.5,-1.7,-3,-1.7c-.9,0,-1.8,.3,-2.4,.8c-.5,.4,-.9,1.1,-.9,2c0,.6,.2,1.1,.5,1.4c.3,.3,.7,.6,1.2,.6c.6,0,1,-.3,1.1,-.7Z" class="g0_240"/>
<path d="M354.4,794.6c.3,0,.6,-.2,.8,-.4c.5,-.8,1,-2.1,1.3,-3l.9,-2.4c.6,-1.5,1.2,-3,1.9,-4.5v-.2h-4.4c-.5,0,-1.1,.1,-1.2,-.4c0,-.1,0,-.3,0,-.4h-.3l-.9,3.8h.3l.2,-.6c.2,-.6,.6,-1,1.3,-1c.2,0,.5,-.1,.9,-.1h3.3l-2.1,3.6c-.4,.7,-.7,1.3,-1,1.8c-.3,.5,-.5,.9,-.7,1.3c-.3,.5,-.5,.9,-.6,1.4c-.1,.1,-.1,.2,-.1,.3c-.1,.1,-.1,.2,-.1,.2c0,.3,.2,.6,.5,.6Z" class="g0_240"/>
<path d="M366.3,777.7c-.5,0,-.9,.2,-1.3,.5c-.5,.3,-.9,.6,-1.3,1.1c-.6,.8,-1.2,2,-1.2,3.3c0,1,.4,1.7,1.3,1.7c1.3,0,1.8,-.9,2.2,-1.5c-.2,.9,-.1,1.5,.5,1.5c.4,0,.8,-.2,1.2,-.5c.4,-.3,.7,-.8,1.1,-1.3l-.2,-.2c-.3,.4,-.9,1.4,-1.4,1.4c-.2,0,-.2,-.4,-.2,-.6c0,-.9,.6,-2.4,.9,-3.4l.7,-1.9h-1l-.3,.7c-.1,-.5,-.4,-.8,-1,-.8Zm.1,.3c.7,0,.6,1.3,.5,1.9c-.1,.3,-.2,.6,-.3,.9c-.4,1.2,-1.5,3.2,-2.3,3.2c-.6,0,-.8,-1,-.8,-1.5c0,-.4,0,-.9,.2,-1.3c.4,-1,1.4,-3.2,2.7,-3.2Z" class="g0_240"/>
<path d="M368.5,788c0,.4,.3,.7,.8,.7c.3,0,.6,-.1,.9,-.4c.6,-.5,1.5,-1.6,2.1,-2.5c.2,-.5,.5,-.9,.7,-1.3c.3,-.6,.8,-1.6,.8,-2.2c0,-.1,0,-.3,-.1,-.4c0,-.2,-.2,-.2,-.3,-.2c-.1,0,-.2,.1,-.3,.2c-.1,0,-.2,.2,-.2,.4c0,.3,.2,.7,.2,1c0,.4,-.2,.8,-.3,1.1c-.2,.4,-.4,.7,-.6,1.1h-.1l-.2,-1.4c-.1,-.4,-.3,-1.2,-.3,-1.5c-.2,-.5,-.3,-.9,-1,-.9c-.9,0,-1,1.3,-1.2,1.9h.2c.1,-.4,.5,-1.7,.8,-1.7c.2,0,.4,.8,.4,1c0,.2,.1,.5,.2,1l.4,2.5c-.2,.6,-.8,1.2,-1.3,1.6c-.1,.1,-.4,.2,-.5,.2c-.1,0,-.1,-.1,-.2,-.1c-.1,-.2,-.1,-.6,-.5,-.6c-.3,0,-.4,.2,-.4,.5Z" class="g0_240"/>
<path d="M382.2,779.9h-3.3v1h3.3v3.3h.9v-3.3h3.3v-1h-3.3v-3.2h-.9v3.2Z" class="g0_240"/>
<path d="M396.3,765.7v5.4h-3.5c1.2,-1.8,2.3,-3.6,3.5,-5.4Zm-3.8,5.3v.6h3.8v.6c0,1.2,-.2,1.7,-.8,1.7v.2h2.9v-.2c-.6,0,-.8,-.8,-.8,-1.8v-.5h1.7c0,0,0,-.5,0,-.5c0,0,-1.7,0,-1.7,0v-7.5h-.4l-4.7,7.4Z" class="g0_240"/>
<path d="M392,780.8h8.3v-.9H392Z" class="g0_240"/>
<path d="M394.3,787.5c0,-1.7,.4,-3.3,1.9,-3.3c1.2,0,1.8,1.8,1.8,4v.6c-.4,.9,-1,1.8,-2,1.8c-1.3,0,-1.7,-1.6,-1.7,-3.1Zm-1.2,5.6c0,.7,1.3,1.5,2.3,1.5c3.2,0,4.1,-2.9,4.1,-6c0,-2.4,-.9,-4.6,-3.3,-4.6c-2.1,0,-3.4,1.5,-3.4,3.6c0,1.9,1.1,3.3,3,3.3c1,0,1.7,-.6,2.2,-1.3v.1c0,1.1,0,2.3,-.4,3c-.3,.6,-.9,1.6,-1.9,1.6c-1.6,0,-1.1,-1.8,-2,-1.8c-.5,0,-.6,.2,-.6,.6Z" class="g0_240"/>
<path d="M406.1,778.1c1.2,0,.9,1.9,.4,3.2c-.4,.8,-1.3,2.7,-2.4,2.7c-.5,0,-.7,-.3,-.7,-1c0,-.7,.3,-1.8,.5,-2.3c.3,-.6,.7,-1.6,1.1,-2.1c.3,-.3,.6,-.5,1.1,-.5Zm-2.2,6.2c1.6,0,2.8,-1.5,3.4,-2.6c.4,-.6,.7,-1.4,.7,-2.3c0,-1,-.5,-1.7,-1.5,-1.7c-1,0,-1.7,.6,-2,1.2h-.1l1.6,-5.6l-2.1,.1l-.1,.2c.6,0,.9,.3,.9,.6c0,.2,-.1,.5,-.2,.7l-1.6,5.7c-.1,.5,-.3,1,-.3,1.3c-.1,.4,-.2,.7,-.2,.9c0,.9,.6,1.5,1.5,1.5Z" class="g0_240"/>
<path d="M407.6,788c0,.4,.4,.7,.8,.7c.4,0,.6,-.1,1,-.4c.6,-.5,1.5,-1.6,2,-2.5c.3,-.5,.6,-.9,.8,-1.3c.3,-.6,.8,-1.6,.8,-2.2c0,-.1,0,-.3,-.1,-.4c-.1,-.2,-.2,-.2,-.3,-.2c-.2,0,-.3,.1,-.4,.2c-.1,0,-.1,.2,-.1,.4c0,.3,.1,.7,.1,1c0,.4,-.1,.8,-.3,1.1c-.2,.4,-.3,.7,-.6,1.1l-.3,-1.4c-.1,-.4,-.2,-1.2,-.3,-1.5c-.1,-.5,-.2,-.9,-1,-.9c-.8,0,-.9,1.3,-1.1,1.9h.2c.1,-.4,.4,-1.7,.8,-1.7c.2,0,.3,.8,.4,1c0,.2,.1,.5,.1,1l.5,2.5c-.3,.6,-.9,1.2,-1.3,1.6c-.2,.1,-.4,.2,-.5,.2c-.1,0,-.2,-.1,-.2,-.1c-.2,-.2,-.2,-.6,-.5,-.6c-.3,0,-.5,.2,-.5,.5Z" class="g0_240"/>
<path d="M421.3,779.9h-3.2v1h3.2v3.3h1v-3.3h3.3v-1h-3.3v-3.2h-1v3.2Z" class="g0_240"/>
<path d="M433.1,764.4v.2c.4,0,1.1,.1,1.3,.2c.5,.2,.4,.4,.5,1v6.5c0,.3,0,.6,-.1,.8c-.1,.6,-.9,.7,-1.6,.8v.2h4.7v-.2c-.5,0,-1.3,-.1,-1.5,-.3c-.2,-.3,-.2,-.8,-.2,-1.4v-8.6c-.8,.4,-2.1,.8,-3.1,.8Z" class="g0_240"/>
<path d="M431.1,780.8h8.4v-.9h-8.4Z" class="g0_240"/>
<path d="M435,794.3c-1,0,-1.7,-.9,-1.7,-1.9c0,-.7,.4,-1.3,1.1,-1.3c-.1,-.4,-.5,-.6,-1,-.6c-.2,0,-.4,0,-.6,.1c-.6,.2,-.9,.8,-.9,1.6c0,.3,0,.6,.2,.9c.5,.9,1.6,1.5,3,1.5c1.1,0,1.9,-.4,2.5,-.9c.6,-.4,1,-1.1,1,-2.1c0,-.3,0,-.6,-.2,-.9c-.3,-.9,-1.1,-1.5,-2.1,-1.8v-.1c.6,-.1,1.1,-.5,1.4,-.9c.3,-.3,.6,-.9,.6,-1.5c0,-.4,-.1,-.7,-.2,-1c-.5,-1,-1.6,-1.4,-3,-1.4c-.8,0,-1.6,.1,-2.1,.5c-.4,.3,-.8,.7,-.8,1.3c0,.5,.2,.9,.4,1.1c.2,.2,.6,.4,1,.4c.2,0,.4,-.1,.6,-.2c.2,0,.3,-.2,.3,-.3c-.5,0,-.9,-.5,-.9,-1.1c0,-.8,.6,-1.5,1.5,-1.5c1.1,0,1.6,1,1.6,2.2c0,1.2,-.3,2.4,-1.5,2.4c-.2,0,-.5,-.2,-.8,-.2c-.3,0,-.7,.1,-.7,.4c0,.3,.4,.5,.8,.5c.3,0,.6,-.2,.9,-.4c1.2,0,1.5,1.1,1.5,2.5c0,1.4,-.5,2.7,-1.9,2.7Z" class="g0_240"/>
<path d="M442.6,782.4c0,-.5,.1,-1,.2,-1.5c.3,-.9,1.1,-2.9,2.2,-2.9c.4,0,.4,.2,.4,.3c0,.2,-.1,.2,-.1,.4c0,.4,.2,.6,.5,.6c.4,0,.6,-.2,.6,-.6c0,-.7,-.6,-1,-1.3,-1c-1.4,0,-2.5,1.5,-3.1,2.5c-.3,.6,-.5,1.3,-.5,2.1c0,1.2,.6,2,1.7,2c1.3,0,2.1,-1,2.6,-2l-.3,-.2c-.5,1,-1.2,1.9,-2.1,1.9c-.6,0,-.8,-1,-.8,-1.6Z" class="g0_240"/>
<path d="M445.8,788c0,.4,.4,.7,.8,.7c.4,0,.6,-.1,1,-.4c.6,-.5,1.5,-1.6,2,-2.5c.3,-.5,.6,-.9,.8,-1.3c.3,-.6,.8,-1.6,.8,-2.2c0,-.1,0,-.3,-.1,-.4c-.1,-.2,-.2,-.2,-.3,-.2c-.2,0,-.3,.1,-.4,.2c-.1,0,-.1,.2,-.1,.4c0,.3,.1,.7,.1,1c0,.4,-.1,.8,-.3,1.1c-.2,.4,-.3,.7,-.6,1.1l-.3,-1.4c-.1,-.4,-.2,-1.2,-.3,-1.5c-.1,-.5,-.2,-.9,-.9,-.9c-.9,0,-1,1.3,-1.2,1.9h.2c.1,-.4,.4,-1.7,.8,-1.7c.2,0,.3,.8,.4,1c0,.2,.1,.5,.2,1l.4,2.5c-.3,.6,-.9,1.2,-1.3,1.6c-.2,.1,-.4,.2,-.5,.2c-.1,0,-.2,-.1,-.2,-.1c-.2,-.2,-.2,-.6,-.5,-.6c-.3,0,-.5,.2,-.5,.5Z" class="g0_240"/>
<path d="M459.5,779.9h-3.2v1h3.2v3.3h1v-3.3h3.3v-1h-3.3v-3.2h-1v3.2Z" class="g0_240"/>
<path d="M472.2,778.8c0,.7,-.2,1.6,-.3,2.1c-.2,.7,-.7,1.8,-1.1,2.3c-.3,.3,-.8,.8,-1.2,.8c-.5,0,-.8,-.4,-.8,-1c0,-.6,.1,-1.8,.3,-2.3c.4,-.9,1.3,-2.7,2.4,-2.7c.5,0,.7,.4,.7,.8Zm.2,5.5c.4,0,.8,-.2,1.1,-.5c.3,-.4,.6,-1,.9,-1.8l-.3,-.1c-.2,.6,-.7,1.9,-1.3,1.9c-.3,0,-.4,-.5,-.4,-.8c0,-.1,0,-.3,.1,-.5c.1,-.6,.2,-1.1,.4,-1.8c.1,-.5,.2,-1,.4,-1.6l1.6,-5.8h-2.3l-.1,.2c.5,0,.6,0,.8,.1c.1,.1,.3,.3,.3,.5c0,.2,-.1,.5,-.2,.8l-.9,3.4c-.3,-.4,-.5,-.6,-1.1,-.6c-1,0,-1.9,.9,-2.4,1.6c-.3,.3,-.5,.7,-.7,1c-.3,.6,-.6,1.3,-.6,2.1c0,.6,.2,1,.4,1.4c.2,.3,.6,.5,1,.5c1.4,0,1.9,-.9,2.4,-1.6h.1c-.1,.1,-.1,.2,-.1,.3c0,.1,0,.2,0,.2c0,.7,.3,1.1,.9,1.1Z" class="g0_240"/>
<path d="M473.8,788c0,.4,.4,.7,.8,.7c.4,0,.6,-.1,1,-.4c.6,-.5,1.5,-1.6,2,-2.5c.3,-.5,.6,-.9,.8,-1.3c.3,-.6,.8,-1.6,.8,-2.2c0,-.1,0,-.3,-.1,-.4c-.1,-.2,-.2,-.2,-.3,-.2c-.2,0,-.3,.1,-.4,.2c-.1,0,-.1,.2,-.1,.4c0,.3,.1,.7,.1,1c0,.4,-.1,.8,-.3,1.1c-.2,.4,-.3,.7,-.6,1.1l-.3,-1.4c-.1,-.4,-.2,-1.2,-.3,-1.5c-.1,-.5,-.2,-.9,-.9,-.9c-.9,0,-1,1.3,-1.2,1.9h.2c.1,-.4,.4,-1.7,.8,-1.7c.2,0,.3,.8,.4,1c0,.2,.1,.5,.2,1l.4,2.5c-.3,.6,-.9,1.2,-1.3,1.6c-.2,.1,-.4,.2,-.5,.2c-.1,0,-.2,-.1,-.2,-.1c-.2,-.2,-.2,-.6,-.5,-.6c-.3,0,-.5,.2,-.5,.5Z" class="g0_240"/>
<path d="M485.3,782.3h7.6v-.8h-7.6Zm0,-3h7.6v-.8h-7.6Z" class="g0_240"/>
<path d="M496.6,786.4c0,.5,.5,.9,1.1,.9c.4,0,.8,-.2,1.3,-.6c.8,-.7,2.1,-2.2,2.8,-3.4c.4,-.6,.7,-1.2,1,-1.8c.4,-.8,1.1,-2.1,1.1,-2.9c0,-.2,0,-.4,-.1,-.6c-.1,-.2,-.3,-.3,-.5,-.3c-.1,0,-.3,.1,-.4,.2c-.2,.2,-.2,.4,-.2,.7c0,.4,.2,.9,.2,1.3c0,.6,-.2,1.1,-.4,1.6c-.3,.5,-.5,.8,-.9,1.4l-.4,-1.9c-.1,-.6,-.3,-1.7,-.4,-2.1c-.2,-.7,-.3,-1.2,-1.3,-1.2c-1.2,0,-1.4,1.8,-1.6,2.6l.3,.1c.1,-.6,.6,-2.3,1,-2.3c.4,0,.5,1,.6,1.2c0,.3,.1,.7,.2,1.4l.6,3.5c-.3,.8,-1.1,1.7,-1.7,2.1c-.3,.2,-.6,.3,-.8,.3c-.1,0,-.1,-.1,-.2,-.2c-.2,-.2,-.2,-.7,-.7,-.7c-.4,0,-.6,.3,-.6,.7Z" class="g0_240"/>
<path d="M506.7,781.9c-.6,0,-1,-.5,-1,-1.2c0,-.8,.4,-1.6,1.3,-1.6c1.2,0,1.3,1,1.3,1.9c0,.9,-.3,1.5,-.7,2.1c-.3,.4,-.7,.9,-1.1,1.4c-.5,.5,-1.1,1.1,-1.9,1.7v.4h4.6l.4,-2.1h-.3c-.1,.2,-.2,.4,-.3,.5c-.1,.4,-.5,.6,-1,.6h-2.1v-.1c.5,-.3,1,-.7,1.4,-1c.7,-.7,1.5,-1.4,1.9,-2.3c.2,-.4,.3,-.8,.3,-1.2c0,-.3,-.1,-.6,-.2,-.8c-.3,-.8,-1.1,-1.3,-2.1,-1.3c-.8,0,-1.4,.3,-1.8,.6c-.4,.3,-.7,.8,-.7,1.4c0,.5,.2,.8,.4,1.1c.2,.2,.5,.4,.9,.4c.4,0,.7,-.2,.7,-.5Z" class="g0_240"/>
<path d="M351.5,800.8c1.6,0,1.9,1.2,1.9,2.2c0,.9,-.6,1.5,-1.2,1.9c-1,-.5,-2.3,-1,-2.3,-2.2c0,-1,.3,-1.9,1.6,-1.9Zm1,4.3c.6,-.3,1.3,-.5,1.6,-.9c.2,-.4,.4,-.8,.4,-1.3c0,-1.5,-1.5,-2.4,-2.9,-2.4c-.8,0,-1.5,.3,-2,.8c-.5,.4,-.9,1.1,-.9,1.9c0,1.1,.6,1.9,1.9,2.6c-1.5,.7,-2.3,1.7,-2.3,2.8c0,1.6,1.5,2.5,3.3,2.5c1.8,0,3.3,-1.1,3.3,-2.9c0,-1.3,-1,-2.4,-2.4,-3.1Zm-.9,5.8c-1.5,0,-2,-1.1,-2,-2.4c0,-1.2,.4,-2,1.3,-2.5l1.1,.5c.3,.2,.5,.4,.8,.6c.4,.3,.8,.7,.8,1.5c0,1.1,-.6,2.3,-2,2.3Z" class="g0_240"/>
<path clip-path="url(#c0_240)" d="M343.3,817.7H360v-.9H343.3Z" class="g0_240"/>
<path d="M346.9,825c-.9,0,-1.5,-.7,-1.5,-1.6c0,-1.1,.6,-2.2,1.8,-2.2c1.7,0,1.8,1.3,1.8,2.6c0,1.2,-.3,2,-1,2.9c-.3,.5,-.9,1.1,-1.5,1.8c-.7,.7,-1.5,1.5,-2.5,2.4v.5h6.2l.5,-2.9h-.4c-.1,.3,-.2,.6,-.3,.8c-.2,.5,-.7,.7,-1.4,.7h-2.9c.7,-.5,1.3,-1,1.9,-1.5c1,-.9,2.1,-1.9,2.7,-3.1c.2,-.5,.3,-1.1,.3,-1.6c0,-.4,0,-.8,-.2,-1.2c-.5,-1,-1.5,-1.7,-3,-1.7c-.9,0,-1.8,.3,-2.4,.8c-.5,.4,-.9,1.1,-.9,2c0,.6,.2,1.1,.5,1.4c.3,.3,.7,.6,1.2,.6c.6,0,1,-.3,1.1,-.7Z" class="g0_240"/>
<path d="M354.4,831.5c.3,0,.6,-.2,.8,-.4c.5,-.8,1,-2.1,1.3,-3l.9,-2.4c.6,-1.5,1.2,-3,1.9,-4.5V821h-4.4c-.5,0,-1.1,.1,-1.2,-.4c0,-.1,0,-.3,0,-.4h-.3l-.9,3.8h.3l.2,-.6c.2,-.6,.6,-1,1.3,-1c.2,0,.5,-.1,.9,-.1h3.3l-2.1,3.6c-.4,.7,-.7,1.3,-1,1.8c-.3,.5,-.5,.9,-.7,1.3c-.3,.5,-.5,.9,-.6,1.4c-.1,.1,-.1,.2,-.1,.3c-.1,.1,-.1,.2,-.1,.2c0,.3,.2,.6,.5,.6Z" class="g0_240"/>
<path d="M366.3,814.6c-.5,0,-.9,.2,-1.3,.5c-.5,.3,-.9,.6,-1.3,1.1c-.6,.8,-1.2,2,-1.2,3.3c0,1,.4,1.7,1.3,1.7c1.3,0,1.8,-.9,2.2,-1.5c-.2,.9,-.1,1.5,.5,1.5c.4,0,.8,-.2,1.2,-.5c.4,-.3,.7,-.8,1.1,-1.4l-.2,-.1c-.3,.4,-.9,1.4,-1.4,1.4c-.2,0,-.2,-.4,-.2,-.6c0,-.9,.6,-2.4,.9,-3.4l.7,-1.9h-1l-.3,.7c-.1,-.5,-.4,-.8,-1,-.8Zm.1,.3c.7,0,.6,1.3,.5,1.9c-.1,.3,-.2,.6,-.3,.9c-.4,1.2,-1.5,3.2,-2.3,3.2c-.6,0,-.8,-1,-.8,-1.5c0,-.4,0,-.9,.2,-1.3c.4,-1,1.4,-3.2,2.7,-3.2Z" class="g0_240"/>
<path d="M368.5,824.9c0,.4,.3,.7,.8,.7c.3,0,.6,-.1,.9,-.4c.6,-.5,1.5,-1.6,2.1,-2.5c.2,-.5,.5,-.9,.7,-1.3c.3,-.6,.8,-1.6,.8,-2.2c0,-.1,0,-.3,-.1,-.4c0,-.2,-.2,-.2,-.3,-.2c-.1,0,-.2,0,-.3,.1c-.1,.1,-.2,.3,-.2,.5c0,.3,.2,.7,.2,1c0,.4,-.2,.8,-.3,1.1c-.2,.4,-.4,.7,-.6,1.1h-.1l-.2,-1.4c-.1,-.4,-.3,-1.2,-.3,-1.5c-.2,-.5,-.3,-.9,-1,-.9c-.9,0,-1,1.3,-1.2,1.9h.2c.1,-.4,.5,-1.7,.8,-1.7c.2,0,.4,.8,.4,1c0,.2,.1,.5,.2,1l.4,2.5c-.2,.6,-.8,1.2,-1.3,1.6c-.1,.1,-.4,.2,-.5,.2c-.1,0,-.1,-.1,-.2,-.1c-.1,-.2,-.1,-.6,-.5,-.6c-.3,0,-.4,.2,-.4,.5Z" class="g0_240"/>
<path d="M382.2,816.8h-3.3v1h3.3v3.3h.9v-3.3h3.3v-1h-3.3v-3.2h-.9v3.2Z" class="g0_240"/>
<path d="M396.3,802.6V808h-3.5c1.2,-1.8,2.3,-3.6,3.5,-5.4Zm-3.8,5.3v.6h3.8v.6c0,1.2,-.2,1.7,-.8,1.7v.2h2.9v-.2c-.6,0,-.8,-.8,-.8,-1.8v-.5h1.7c0,0,0,-.5,0,-.5c0,0,-1.7,0,-1.7,0v-7.5h-.4l-4.7,7.4Z" class="g0_240"/>
<path d="M392,817.7h8.3v-.9H392Z" class="g0_240"/>
<path d="M394.3,824.4c0,-1.7,.4,-3.3,1.9,-3.3c1.2,0,1.8,1.8,1.8,4v.6c-.4,.9,-1,1.8,-2,1.8c-1.3,0,-1.7,-1.6,-1.7,-3.1Zm-1.2,5.6c0,.7,1.3,1.5,2.3,1.5c3.2,0,4.1,-2.9,4.1,-6c0,-2.4,-.9,-4.6,-3.3,-4.6c-2.1,0,-3.4,1.5,-3.4,3.6c0,1.9,1.1,3.3,3,3.3c1,0,1.7,-.6,2.2,-1.3v.1c0,1.1,0,2.3,-.4,3c-.3,.6,-.9,1.6,-1.9,1.6c-1.6,0,-1.1,-1.8,-2,-1.8c-.5,0,-.6,.2,-.6,.6Z" class="g0_240"/>
<path d="M406.1,814.9c1.2,0,.9,2,.4,3.3c-.4,.8,-1.3,2.7,-2.4,2.7c-.5,0,-.7,-.3,-.7,-1c0,-.7,.3,-1.8,.5,-2.4c.3,-.5,.7,-1.5,1.1,-2c.3,-.3,.6,-.6,1.1,-.6Zm-2.2,6.3c1.6,0,2.8,-1.5,3.4,-2.6c.4,-.6,.7,-1.4,.7,-2.3c0,-1,-.5,-1.7,-1.5,-1.7c-1,0,-1.7,.6,-2,1.2h-.1l1.6,-5.6l-2.1,.1l-.1,.2c.6,0,.9,.3,.9,.6c0,.1,-.1,.5,-.2,.7l-1.6,5.7c-.1,.5,-.3,1,-.3,1.3c-.1,.4,-.2,.7,-.2,.9c0,.9,.6,1.5,1.5,1.5Z" class="g0_240"/>
<path d="M407.6,824.9c0,.4,.4,.7,.8,.7c.4,0,.6,-.1,1,-.4c.6,-.5,1.5,-1.6,2,-2.5c.3,-.5,.6,-.9,.8,-1.3c.3,-.6,.8,-1.6,.8,-2.2c0,-.1,0,-.3,-.1,-.4c-.1,-.2,-.2,-.2,-.3,-.2c-.2,0,-.3,0,-.4,.1c-.1,.1,-.1,.3,-.1,.5c0,.3,.1,.7,.1,1c0,.4,-.1,.8,-.3,1.1c-.2,.4,-.3,.7,-.6,1.1L411,821c-.1,-.4,-.2,-1.2,-.3,-1.5c-.1,-.5,-.2,-.9,-1,-.9c-.8,0,-.9,1.3,-1.1,1.9h.2c.1,-.4,.4,-1.7,.8,-1.7c.2,0,.3,.8,.4,1c0,.2,.1,.5,.1,1l.5,2.5c-.3,.6,-.9,1.2,-1.3,1.6c-.2,.1,-.4,.2,-.5,.2c-.1,0,-.2,-.1,-.2,-.1c-.2,-.2,-.2,-.6,-.5,-.6c-.3,0,-.5,.2,-.5,.5Z" class="g0_240"/>
<path d="M421.3,816.8h-3.2v1h3.2v3.3h1v-3.3h3.3v-1h-3.3v-3.2h-1v3.2Z" class="g0_240"/>
<path d="M434.7,804.6c-.9,0,-1.4,-.7,-1.4,-1.6c0,-1.1,.5,-2.2,1.8,-2.2c1.6,0,1.8,1.3,1.8,2.6c0,1.3,-.4,2,-1,2.9c-.4,.6,-.9,1.2,-1.5,1.9c-.7,.6,-1.5,1.4,-2.6,2.3v.5h6.3l.5,-2.9h-.4c-.1,.3,-.3,.6,-.3,.8c-.3,.5,-.7,.8,-1.4,.8h-2.9v-.1c.6,-.5,1.3,-1,1.9,-1.4c1,-.9,2.1,-1.9,2.6,-3.1c.3,-.6,.4,-1.1,.4,-1.7c0,-.4,-.1,-.8,-.2,-1.2c-.5,-1,-1.5,-1.7,-3,-1.7c-1,0,-1.8,.4,-2.4,.8c-.5,.4,-.9,1.1,-.9,2c0,.6,.2,1.1,.5,1.4c.2,.4,.6,.6,1.2,.6c.5,0,.9,-.3,1,-.7Z" class="g0_240"/>
<path d="M431.1,817.7h8.4v-.9h-8.4Z" class="g0_240"/>
<path d="M435,831.2c-1,0,-1.7,-1,-1.7,-1.9c0,-.7,.4,-1.3,1.1,-1.3c-.1,-.4,-.5,-.6,-1,-.6c-.2,0,-.4,0,-.6,.1c-.6,.2,-.9,.8,-.9,1.6c0,.3,0,.6,.2,.9c.5,.9,1.6,1.5,3,1.5c1.1,0,1.9,-.4,2.5,-.9c.6,-.4,1,-1.1,1,-2.1c0,-.3,0,-.6,-.2,-.9c-.3,-.9,-1.1,-1.5,-2.1,-1.8v-.1c.6,-.1,1.1,-.5,1.4,-.9c.3,-.3,.6,-.9,.6,-1.5c0,-.4,-.1,-.7,-.2,-1c-.5,-1,-1.6,-1.4,-3,-1.4c-.8,0,-1.6,.1,-2.1,.5c-.4,.3,-.8,.7,-.8,1.3c0,.5,.2,.8,.4,1.1c.2,.2,.6,.4,1,.4c.2,0,.4,-.1,.6,-.2c.2,-.1,.3,-.2,.3,-.3c-.5,0,-.9,-.5,-.9,-1.1c0,-.8,.6,-1.5,1.5,-1.5c1.1,0,1.6,1,1.6,2.2c0,1.2,-.3,2.4,-1.5,2.4c-.2,0,-.5,-.2,-.8,-.2c-.3,0,-.7,.1,-.7,.4c0,.3,.4,.5,.8,.5c.3,0,.6,-.2,.9,-.4c1.2,0,1.5,1.1,1.5,2.5c0,1.3,-.5,2.7,-1.9,2.7Z" class="g0_240"/>
<path d="M442.6,819.3c0,-.5,.1,-1,.2,-1.5c.3,-.9,1.1,-2.9,2.2,-2.9c.4,0,.4,.2,.4,.3c0,.2,-.1,.2,-.1,.4c0,.4,.2,.6,.5,.6c.4,0,.6,-.2,.6,-.6c0,-.7,-.6,-1,-1.3,-1c-1.4,0,-2.5,1.5,-3.1,2.5c-.3,.6,-.5,1.3,-.5,2.1c0,1.2,.6,2,1.7,2c1.3,0,2.1,-1,2.6,-2l-.3,-.2c-.5,1,-1.2,1.9,-2.1,1.9c-.6,0,-.8,-1,-.8,-1.6Z" class="g0_240"/>
<path d="M445.8,824.9c0,.4,.4,.7,.8,.7c.4,0,.6,-.1,1,-.4c.6,-.5,1.5,-1.6,2,-2.5c.3,-.5,.6,-.9,.8,-1.3c.3,-.6,.8,-1.6,.8,-2.2c0,-.1,0,-.3,-.1,-.4c-.1,-.2,-.2,-.2,-.3,-.2c-.2,0,-.3,0,-.4,.1c-.1,.1,-.1,.3,-.1,.5c0,.3,.1,.7,.1,1c0,.4,-.1,.8,-.3,1.1c-.2,.4,-.3,.7,-.6,1.1l-.3,-1.4c-.1,-.4,-.2,-1.2,-.3,-1.5c-.1,-.5,-.2,-.9,-.9,-.9c-.9,0,-1,1.3,-1.2,1.9h.2c.1,-.4,.4,-1.7,.8,-1.7c.2,0,.3,.8,.4,1c0,.2,.1,.5,.2,1l.4,2.5c-.3,.6,-.9,1.2,-1.3,1.6c-.2,.1,-.4,.2,-.5,.2c-.1,0,-.2,-.1,-.2,-.1c-.2,-.2,-.2,-.6,-.5,-.6c-.3,0,-.5,.2,-.5,.5Z" class="g0_240"/>
<path d="M459.5,816.8h-3.2v1h3.2v3.3h1v-3.3h3.3v-1h-3.3v-3.2h-1v3.2Z" class="g0_240"/>
<path d="M472.2,815.7c0,.7,-.2,1.6,-.3,2.1c-.2,.7,-.7,1.8,-1.1,2.3c-.3,.3,-.8,.8,-1.2,.8c-.5,0,-.8,-.5,-.8,-1c0,-.6,.1,-1.8,.3,-2.3c.4,-.9,1.3,-2.7,2.4,-2.7c.5,0,.7,.4,.7,.8Zm.2,5.5c.4,0,.8,-.2,1.1,-.5c.3,-.4,.6,-1,.9,-1.8l-.3,-.1c-.2,.5,-.7,1.9,-1.3,1.9c-.3,0,-.4,-.5,-.4,-.8c0,-.1,0,-.3,.1,-.5c.1,-.6,.2,-1.1,.4,-1.8c.1,-.5,.2,-1,.4,-1.6l1.6,-5.8h-2.3l-.1,.2c.5,0,.6,0,.8,.1c.1,.1,.3,.3,.3,.5c0,.2,-.1,.5,-.2,.8l-.9,3.4c-.3,-.4,-.5,-.6,-1.1,-.6c-1,0,-1.9,.9,-2.4,1.6c-.3,.3,-.5,.7,-.7,1c-.3,.6,-.6,1.3,-.6,2.1c0,.6,.2,1,.4,1.4c.2,.3,.6,.5,1,.5c1.4,0,1.9,-.9,2.4,-1.6h.1c-.1,.1,-.1,.2,-.1,.3c0,.1,0,.2,0,.2c0,.7,.3,1.1,.9,1.1Z" class="g0_240"/>
<path d="M473.8,824.9c0,.4,.4,.7,.8,.7c.4,0,.6,-.1,1,-.4c.6,-.5,1.5,-1.6,2,-2.5c.3,-.5,.6,-.9,.8,-1.3c.3,-.6,.8,-1.6,.8,-2.2c0,-.1,0,-.3,-.1,-.4c-.1,-.2,-.2,-.2,-.3,-.2c-.2,0,-.3,0,-.4,.1c-.1,.1,-.1,.3,-.1,.5c0,.3,.1,.7,.1,1c0,.4,-.1,.8,-.3,1.1c-.2,.4,-.3,.7,-.6,1.1l-.3,-1.4c-.1,-.4,-.2,-1.2,-.3,-1.5c-.1,-.5,-.2,-.9,-.9,-.9c-.9,0,-1,1.3,-1.2,1.9h.2c.1,-.4,.4,-1.7,.8,-1.7c.2,0,.3,.8,.4,1c0,.2,.1,.5,.2,1l.4,2.5c-.3,.6,-.9,1.2,-1.3,1.6c-.2,.1,-.4,.2,-.5,.2c-.1,0,-.2,-.1,-.2,-.1c-.2,-.2,-.2,-.6,-.5,-.6c-.3,0,-.5,.2,-.5,.5Z" class="g0_240"/>
<path d="M485.3,819.2h7.6v-.8h-7.6Zm0,-3h7.6v-.8h-7.6Z" class="g0_240"/>
<path d="M496.6,823.3c0,.5,.5,.9,1.1,.9c.4,0,.8,-.2,1.3,-.6c.8,-.7,2.1,-2.2,2.8,-3.4c.4,-.6,.7,-1.2,1,-1.8c.4,-.8,1.1,-2.1,1.1,-2.9c0,-.3,0,-.4,-.1,-.6c-.1,-.2,-.3,-.3,-.5,-.3c-.1,0,-.3,.1,-.4,.2c-.2,.2,-.2,.4,-.2,.7c0,.4,.2,.9,.2,1.3c0,.6,-.2,1.1,-.4,1.6c-.3,.5,-.5,.8,-.9,1.4l-.4,-1.9c-.1,-.6,-.3,-1.7,-.4,-2.1c-.2,-.7,-.3,-1.2,-1.3,-1.2c-1.2,0,-1.4,1.8,-1.6,2.5l.3,.2c.1,-.6,.6,-2.3,1,-2.3c.4,0,.5,1,.6,1.2c0,.3,.1,.7,.2,1.4l.6,3.5c-.3,.8,-1.1,1.7,-1.7,2.1c-.3,.2,-.6,.3,-.8,.3c-.1,0,-.1,-.1,-.2,-.2c-.2,-.2,-.2,-.7,-.7,-.7c-.4,0,-.6,.3,-.6,.7Z" class="g0_240"/>
<path d="M507,823.4c-.8,0,-1.3,-.7,-1.3,-1.4c0,-.6,.3,-1,.8,-1c0,-.3,-.4,-.4,-.7,-.4c-.2,0,-.3,0,-.5,.1c-.4,.1,-.7,.6,-.7,1.1c0,.3,.1,.5,.2,.7c.4,.7,1.2,1,2.2,1c.8,0,1.4,-.2,1.8,-.6c.5,-.3,.8,-.8,.8,-1.5c0,-.2,-.1,-.5,-.2,-.7c-.2,-.6,-.8,-1.1,-1.5,-1.3c.4,-.1,.8,-.4,1,-.7c.3,-.3,.5,-.7,.5,-1.1c0,-.3,-.1,-.5,-.2,-.8c-.3,-.6,-1.2,-1,-2.2,-1c-.6,0,-1.1,.1,-1.5,.4c-.3,.2,-.6,.5,-.6,1c0,.3,.1,.6,.3,.7c.2,.2,.4,.3,.7,.3c.2,0,.3,0,.5,-.1c.1,0,.2,-.1,.2,-.2c-.4,0,-.7,-.4,-.7,-.8c0,-.6,.5,-1.1,1.1,-1.1c.8,0,1.2,.7,1.2,1.6c0,.9,-.3,1.8,-1.1,1.8c-.2,-.1,-.4,-.2,-.6,-.2c-.2,0,-.5,.1,-.5,.3c0,.2,.3,.3,.5,.3c.3,0,.5,-.1,.7,-.2c.9,0,1.1,.8,1.1,1.8c0,1,-.3,2,-1.3,2Z" class="g0_240"/>
<path d="M368.1,843.5c-.5,0,-.9,.1,-1.3,.5c-.5,.3,-.9,.6,-1.3,1.1c-.6,.8,-1.2,2,-1.2,3.3c0,.9,.3,1.7,1.3,1.7c1.3,0,1.8,-.9,2.2,-1.6c-.2,1,-.1,1.6,.5,1.6c.4,0,.8,-.2,1.2,-.5c.4,-.3,.7,-.8,1.1,-1.4l-.2,-.1c-.3,.4,-.9,1.4,-1.4,1.4c-.2,0,-.2,-.4,-.2,-.6c0,-.9,.6,-2.4,.9,-3.4l.7,-1.9h-1l-.3,.7c-.1,-.5,-.4,-.8,-1,-.8Zm.1,.3c.7,0,.6,1.3,.4,1.8c0,.4,-.1,.7,-.2,1c-.4,1.2,-1.5,3.2,-2.3,3.2c-.6,0,-.8,-1,-.8,-1.5c0,-.4,0,-.9,.2,-1.3c.4,-1.1,1.4,-3.2,2.7,-3.2Z" class="g0_240"/>
<path d="M370.3,853.8c0,.4,.3,.7,.8,.7c.3,0,.6,-.1,.9,-.4c.6,-.5,1.5,-1.7,2.1,-2.5c.2,-.5,.5,-.9,.7,-1.4c.3,-.5,.8,-1.5,.8,-2.1c0,-.2,0,-.3,-.1,-.4c0,-.2,-.2,-.2,-.3,-.2c-.1,0,-.2,0,-.3,.1c-.1,.1,-.2,.3,-.2,.5c0,.3,.2,.7,.2,1c0,.4,-.2,.8,-.4,1.1c-.1,.4,-.3,.7,-.5,1.1h-.1l-.3,-1.4c0,-.4,-.2,-1.2,-.3,-1.5c-.1,-.5,-.2,-.9,-.9,-.9c-.9,0,-1,1.3,-1.2,1.8l.2,.1c.1,-.4,.4,-1.7,.8,-1.7c.2,0,.3,.8,.4,1c0,.2,.1,.5,.2,1l.4,2.5c-.2,.6,-.8,1.2,-1.3,1.6c-.2,.1,-.4,.2,-.5,.2c-.1,0,-.1,-.1,-.2,-.1c-.1,-.2,-.1,-.6,-.5,-.6c-.3,0,-.4,.2,-.4,.5Z" class="g0_240"/>
<path d="M384,845.7h-3.3v1H384V850h.9v-3.3h3.3v-1h-3.3v-3.2H384v3.2Z" class="g0_240"/>
<path d="M396,843.8c1.2,0,.9,1.9,.3,3.2c-.3,.9,-1.2,2.8,-2.4,2.8c-.4,0,-.7,-.3,-.7,-1c0,-.7,.3,-1.8,.6,-2.4c.2,-.6,.7,-1.5,1.1,-2c.2,-.3,.6,-.6,1.1,-.6Zm-2.3,6.3c1.7,0,2.9,-1.5,3.5,-2.6c.3,-.6,.6,-1.4,.6,-2.3c0,-1,-.5,-1.7,-1.5,-1.7c-.9,0,-1.6,.5,-2,1.2v-.1l1.5,-5.5l-2,.1l-.1,.2c.6,0,.9,.3,.9,.5c0,.2,-.2,.6,-.2,.8l-1.6,5.7c-.2,.5,-.3,.9,-.4,1.3c-.1,.4,-.1,.7,-.1,.9c0,.9,.6,1.5,1.4,1.5Z" class="g0_240"/>
<path d="M397.5,853.8c0,.4,.3,.7,.8,.7c.3,0,.6,-.1,.9,-.4c.6,-.5,1.5,-1.7,2.1,-2.5c.3,-.5,.5,-.9,.7,-1.4c.3,-.5,.9,-1.5,.9,-2.1c0,-.2,-.1,-.3,-.2,-.4c0,-.2,-.1,-.2,-.3,-.2c-.1,0,-.2,0,-.3,.1c-.1,.1,-.2,.3,-.2,.5c0,.3,.2,.7,.2,1c0,.4,-.2,.8,-.3,1.1c-.2,.4,-.4,.7,-.6,1.1h-.1l-.2,-1.4c-.1,-.4,-.3,-1.2,-.3,-1.5c-.2,-.5,-.3,-.9,-1,-.9c-.8,0,-1,1.3,-1.2,1.8l.3,.1c0,-.4,.4,-1.7,.7,-1.7c.2,0,.4,.8,.4,1c.1,.2,.1,.5,.2,1l.4,2.5c-.2,.6,-.8,1.2,-1.3,1.6c-.1,.1,-.4,.2,-.5,.2c-.1,0,-.1,-.1,-.2,-.1c-.1,-.2,-.1,-.6,-.5,-.6c-.2,0,-.4,.2,-.4,.5Z" class="g0_240"/>
<path d="M411.2,845.7h-3.3v1h3.3V850h1v-3.3h3.2v-1h-3.2v-3.2h-1v3.2Z" class="g0_240"/>
<path d="M420.5,848.1c0,-.4,.1,-.9,.2,-1.4c.3,-1,1.1,-2.9,2.2,-2.9c.4,0,.4,.2,.4,.3c0,.2,-.1,.2,-.1,.4c0,.4,.2,.6,.5,.6c.4,0,.7,-.2,.7,-.6c0,-.7,-.6,-1,-1.3,-1c-1.5,0,-2.6,1.5,-3.1,2.5c-.4,.6,-.6,1.3,-.6,2.1c0,1.1,.6,2,1.7,2c1.3,0,2.1,-1,2.6,-2.1l-.3,-.1c-.4,1,-1.2,1.9,-2,1.9c-.6,0,-.9,-1,-.9,-1.7Z" class="g0_240"/>
<path d="M423.8,853.8c0,.4,.3,.7,.8,.7c.3,0,.5,-.1,.9,-.4c.6,-.5,1.5,-1.7,2.1,-2.5c.2,-.5,.5,-.9,.7,-1.4c.3,-.5,.8,-1.5,.8,-2.1c0,-.2,0,-.3,-.1,-.4c0,-.2,-.2,-.2,-.3,-.2c-.1,0,-.2,0,-.3,.1c-.1,.1,-.2,.3,-.2,.5c0,.3,.2,.7,.2,1c0,.4,-.2,.8,-.4,1.1c-.1,.4,-.3,.7,-.6,1.1l-.3,-1.4c0,-.4,-.2,-1.2,-.3,-1.5c-.1,-.5,-.2,-.9,-.9,-.9c-.9,0,-1,1.3,-1.2,1.8l.2,.1c.1,-.4,.4,-1.7,.8,-1.7c.2,0,.3,.8,.4,1c0,.2,.1,.5,.2,1l.4,2.5c-.2,.6,-.8,1.2,-1.3,1.6c-.2,.1,-.4,.2,-.5,.2c-.1,0,-.1,-.1,-.2,-.1c-.1,-.2,-.1,-.6,-.5,-.6c-.3,0,-.4,.2,-.4,.5Z" class="g0_240"/>
<path d="M437.5,845.7h-3.3v1h3.3V850h.9v-3.3h3.3v-1h-3.3v-3.2h-.9v3.2Z" class="g0_240"/>
<path d="M450.1,844.6c0,.7,-.2,1.6,-.3,2.1c-.2,.6,-.7,1.8,-1.1,2.3c-.3,.3,-.7,.8,-1.2,.8c-.5,0,-.8,-.5,-.8,-1c0,-.6,.1,-1.8,.4,-2.3c.3,-.9,1.2,-2.7,2.4,-2.7c.4,0,.6,.4,.6,.8Zm.2,5.5c.4,0,.8,-.2,1.1,-.6c.3,-.3,.6,-.9,.9,-1.7l-.3,-.1c-.2,.5,-.7,1.9,-1.3,1.9c-.3,0,-.3,-.5,-.3,-.8c0,-.1,0,-.3,0,-.5c.1,-.6,.2,-1.1,.4,-1.8c.1,-.5,.3,-1,.4,-1.6l1.6,-5.9h-2.3v.3c.4,0,.5,0,.7,.1c.1,.1,.3,.3,.3,.4c0,.3,-.1,.6,-.2,.9l-.9,3.4c-.3,-.4,-.4,-.6,-1,-.6c-1,0,-2,.9,-2.5,1.6c-.3,.3,-.5,.6,-.7,1c-.3,.6,-.6,1.3,-.6,2.1c0,.6,.2,1,.4,1.4c.3,.3,.6,.5,1.1,.5c1.4,0,1.9,-.9,2.3,-1.7l.1,.1c0,0,0,.2,-.1,.3c0,0,0,.1,0,.2c0,.6,.3,1.1,.9,1.1Z" class="g0_240"/>
<path d="M451.8,853.8c0,.4,.3,.7,.8,.7c.3,0,.5,-.1,.9,-.4c.6,-.5,1.5,-1.7,2.1,-2.5c.2,-.5,.5,-.9,.7,-1.4c.3,-.5,.8,-1.5,.8,-2.1c0,-.2,0,-.3,-.1,-.4c0,-.2,-.2,-.2,-.3,-.2c-.1,0,-.2,0,-.3,.1c-.1,.1,-.2,.3,-.2,.5c0,.3,.2,.7,.2,1c0,.4,-.2,.8,-.4,1.1c-.1,.4,-.3,.7,-.6,1.1l-.3,-1.4c0,-.4,-.2,-1.2,-.3,-1.5c-.1,-.5,-.2,-.9,-.9,-.9c-.9,0,-1,1.3,-1.2,1.8l.2,.1c.1,-.4,.4,-1.7,.8,-1.7c.2,0,.3,.8,.4,1c0,.2,.1,.5,.2,1l.4,2.5c-.2,.6,-.8,1.2,-1.3,1.6c-.2,.1,-.4,.2,-.5,.2c-.1,0,-.1,-.1,-.2,-.1c-.1,-.2,-.1,-.6,-.5,-.6c-.3,0,-.4,.2,-.4,.5Z" class="g0_240"/>
<path d="M463.2,848.1h7.6v-.8h-7.6Zm0,-3h7.6v-.9h-7.6Z" class="g0_240"/>
<path d="M474.5,852.1c0,.6,.5,1,1.1,1c.5,0,.8,-.2,1.3,-.6c.8,-.7,2.1,-2.2,2.8,-3.4c.4,-.6,.8,-1.3,1.1,-1.8c.3,-.8,1.1,-2.1,1.1,-2.9c0,-.3,-.1,-.5,-.2,-.7c-.1,-.1,-.2,-.2,-.4,-.2c-.2,0,-.3,.1,-.5,.2c-.1,.1,-.2,.3,-.2,.6c0,.5,.2,1,.2,1.4c0,.6,-.2,1.1,-.4,1.6c-.3,.4,-.5,.8,-.8,1.4h-.1l-.3,-2c-.1,-.5,-.4,-1.6,-.5,-2c-.2,-.7,-.3,-1.2,-1.3,-1.2c-1.1,0,-1.3,1.8,-1.6,2.5l.3,.2c.1,-.6,.6,-2.4,1.1,-2.4c.3,0,.4,1.1,.5,1.3c.1,.3,.2,.7,.3,1.4l.6,3.5c-.4,.8,-1.2,1.6,-1.8,2.1c-.2,.2,-.6,.3,-.7,.3c-.1,0,-.2,-.1,-.3,-.2c-.2,-.2,-.2,-.7,-.7,-.7c-.4,0,-.6,.3,-.6,.6Z" class="g0_240"/>
<path d="M485.2,846.2v3.9h-2.5c.8,-1.2,1.6,-2.6,2.5,-3.9Zm-2.8,3.9v.4h2.8v.4c0,.9,-.1,1.3,-.6,1.3v.1h2.1v-.1c-.4,0,-.6,-.6,-.6,-1.3v-.4h1.3c0,0,0,-.4,0,-.4c0,0,-1.2,0,-1.3,0v-5.4h-.3l-3.4,5.4Z" class="g0_240"/>
</svg>