<?xml version="1.0" encoding="UTF-8" standalone="no"?>
<!DOCTYPE svg PUBLIC "-//W3C//DTD SVG 1.1//EN"
"http://www.w3.org/Graphics/SVG/1.1/DTD/svg11.dtd">
<svg viewBox="0 0 811 1017" version="1.1" xmlns="http://www.w3.org/2000/svg" xmlns:xlink="http://www.w3.org/1999/xlink">
<defs>
<style type="text/css"><![CDATA[
.g0_252{
fill: #70A6CC;
}
.g1_252{
fill: #0E0E0E;
}
.g2_252{
fill: #000;
}
]]></style>
</defs>
<path d="M142.4,857.9H710.7V836.6H142.4Z" class="g0_252"/>
<path d="M346.5,140c0,-1.4,.7,-2.9,1.7,-2.9c.8,0,1,.7,1,1.2c0,1.5,-.7,2.8,-1.7,2.9c-.6,0,-1,-.7,-1,-1.2Zm3.5,-2.4q.2,-.1,.4,-.1c.1,0,.2,0,.3,0c.2,.2,.3,.7,.6,.7c.3,0,.6,-.3,.6,-.6c0,-.4,-.5,-.8,-1,-.8c-.3,0,-.7,.2,-1.1,.6c-.4,-.4,-.9,-.6,-1.4,-.6c-.9,0,-1.5,.4,-2,.8c-.4,.5,-.8,1.1,-.8,1.9c0,.7,.2,1.3,.8,1.7v.1c-.6,.1,-.8,.3,-1,.4c-.2,.2,-.3,.4,-.3,.6c0,.4,.1,.7,.5,.9c.4,.2,1,.3,1.9,.5c.5,.1,.9,.2,1.1,.4c.3,.2,.4,.4,.4,.6c0,.8,-1.1,1.4,-2.2,1.4c-1.2,0,-1.9,-.5,-1.9,-1.3c0,-.5,.3,-.9,.7,-1.1q-.3,-.1,-.6,-.1c-.6,0,-1.1,.5,-1.1,1.1c0,.3,0,.5,.2,.7c.5,.7,1.5,1,2.7,1c1,0,1.7,-.2,2.3,-.6c.5,-.3,.8,-.7,.8,-1.5c0,-.8,-1.1,-1.3,-1.7,-1.5c-.6,-.1,-1.2,-.3,-1.6,-.5c-.2,0,-.3,-.2,-.3,-.3c0,-.4,.6,-.4,1.1,-.5c1.7,-.1,2.7,-1.2,2.7,-3c0,-.3,0,-.6,-.1,-.9Z" class="g1_252"/>
<path d="M353.6,141c-.7,0,-1.1,-.5,-1.1,-1.2c0,-.7,.4,-1.6,1.3,-1.6c1.2,0,1.3,1,1.3,1.9c0,.9,-.2,1.5,-.7,2.1c-.3,.4,-.7,.9,-1.1,1.4c-.5,.5,-1.1,1.1,-1.9,1.7v.4H356l.4,-2.1h-.3c-.1,.2,-.2,.4,-.3,.5c-.1,.4,-.4,.6,-1,.6h-2.1v-.1c.5,-.3,1,-.7,1.4,-1c.7,-.7,1.5,-1.4,1.9,-2.3c.2,-.4,.3,-.8,.3,-1.2c0,-.3,-.1,-.6,-.2,-.8C355.8,138.5,355,138,354,138c-.8,0,-1.4,.3,-1.8,.6c-.4,.3,-.7,.8,-.7,1.4c0,.5,.2,.9,.4,1.1c.2,.2,.5,.4,.9,.4c.4,0,.7,-.2,.8,-.5Z" class="g1_252"/>
<path d="M362.9,132.6c-2.2,1.4,-3.7,3.8,-3.7,6.9c0,2.7,1.6,5.5,3.7,6.8l.1,-.2c-1.9,-1.6,-2.5,-3.4,-2.5,-6.7c0,-3.3,.6,-5,2.5,-6.5l-.1,-.3Z" class="g1_252"/>
<path d="M365.3,143.4c1.3,0,2.1,-1.3,2.5,-2.1l-.2,-.1c-.3,.4,-.9,1.6,-1.7,1.6c-.2,0,-.3,-.4,-.3,-.6c0,-.2,.1,-.5,.2,-1l1.1,-3.9h1.3l.1,-.4H367l.4,-1.6h-1l-.5,1.6h-1l-.1,.4h1l-.9,3.6c-.1,.4,-.2,.8,-.3,1.1c0,.3,-.1,.5,-.1,.6c0,.6,.3,.8,.8,.8Z" class="g1_252"/>
<path d="M369.7,132.6l-.2,.3c2,1.5,2.6,3.2,2.6,6.5c0,3.3,-.6,5.1,-2.6,6.7l.2,.2c2.1,-1.3,3.6,-4.1,3.6,-6.8c0,-3.1,-1.5,-5.5,-3.6,-6.9Z" class="g1_252"/>
<path d="M379.6,141.4h7.6v-.8h-7.6Zm0,-3h7.6v-.8h-7.6Z" class="g1_252"/>
<path d="M398.1,133.3c1.2,0,2.1,-1.3,2.5,-2.1l-.3,-.1c-.3,.4,-.9,1.6,-1.6,1.6c-.3,0,-.3,-.4,-.3,-.6c0,-.2,0,-.5,.2,-1l1,-3.9h1.3l.1,-.4h-1.3l.5,-1.6h-1.1l-.4,1.6h-1.1v.4h1l-1,3.6c-.1,.4,-.2,.8,-.2,1.1c-.1,.3,-.1,.5,-.1,.6c0,.6,.2,.8,.8,.8Z" class="g1_252"/>
<path d="M406.1,129.8h7.6V129h-7.6Z" class="g1_252"/>
<path d="M419.2,133.3c1.3,0,2.1,-1.3,2.5,-2.1l-.2,-.1c-.3,.4,-.9,1.6,-1.7,1.6c-.2,0,-.3,-.4,-.3,-.6c0,-.2,.1,-.5,.2,-1l1.1,-3.9h1.3l.1,-.4h-1.3l.4,-1.6h-1l-.5,1.6h-1l-.1,.4h1l-.9,3.6c-.1,.4,-.2,.8,-.3,1.1c0,.3,-.1,.5,-.1,.6c0,.6,.3,.8,.8,.8Z" class="g1_252"/>
<path d="M423.8,128.5v.1c.3,0,.8,.1,.9,.2c.4,.1,.4,.2,.4,.7v4.8c0,.2,0,.4,-.1,.5c0,.5,-.6,.6,-1.2,.6v.2h3.5v-.2c-.4,0,-.9,0,-1.1,-.2c-.2,-.2,-.2,-.6,-.2,-1v-6.3c-.5,.3,-1.5,.6,-2.2,.6Z" class="g1_252"/>
<path d="M393.7,139.9h38.6V139H393.7Z" class="g1_252"/>
<path d="M395,153.7c1.2,0,2.1,-1.3,2.5,-2.1l-.3,-.2c-.3,.4,-.9,1.7,-1.6,1.7c-.3,0,-.3,-.5,-.3,-.6c0,-.3,0,-.6,.2,-1l1,-4h1.3l.1,-.3h-1.3l.5,-1.7H396l-.4,1.7h-1.1v.3h1l-1,3.6c-.1,.5,-.2,.8,-.2,1.1c-.1,.3,-.1,.5,-.1,.7c0,.5,.2,.8,.8,.8Z" class="g1_252"/>
<path d="M400.7,151.2c-.6,0,-1,-.5,-1,-1.1c0,-.8,.4,-1.7,1.3,-1.7c1.2,0,1.3,1,1.3,1.9c0,1,-.3,1.5,-.7,2.2c-.3,.4,-.7,.8,-1.1,1.3c-.5,.5,-1.1,1.1,-1.9,1.8v.3h4.6l.3,-2.1h-.3c0,.2,-.1,.4,-.2,.6c-.1,.3,-.5,.5,-1,.5h-2.1c.5,-.4,.9,-.7,1.4,-1.1c.7,-.6,1.5,-1.4,1.9,-2.2c.2,-.4,.3,-.8,.3,-1.2c0,-.3,-.1,-.6,-.2,-.9c-.3,-.7,-1.1,-1.3,-2.2,-1.3c-.7,0,-1.3,.3,-1.7,.6c-.4,.3,-.7,.8,-.7,1.5c0,.4,.2,.8,.4,1c.2,.3,.5,.4,.9,.4c.4,0,.7,-.1,.7,-.5Z" class="g1_252"/>
<path d="M409.2,150.1h7.6v-.8h-7.6Z" class="g1_252"/>
<path d="M422.3,153.7c1.3,0,2.1,-1.3,2.5,-2.1l-.2,-.2c-.3,.4,-.9,1.7,-1.7,1.7c-.2,0,-.3,-.5,-.3,-.6c0,-.3,.1,-.6,.2,-1l1.1,-4h1.3l.1,-.3H424l.4,-1.7h-1l-.5,1.7h-1l-.1,.3h1l-.9,3.6c-.1,.5,-.2,.8,-.3,1.1c0,.3,-.1,.5,-.1,.7c0,.5,.3,.8,.8,.8Z" class="g1_252"/>
<path d="M426.9,148.8v.2c.3,0,.8,0,.9,.1c.4,.2,.4,.3,.4,.7v4.8c0,.2,0,.4,-.1,.6c0,.4,-.6,.5,-1.2,.5v.2h3.5v-.2c-.4,0,-.9,0,-1.1,-.2c-.2,-.2,-.2,-.6,-.2,-1v-6.2c-.5,.2,-1.5,.5,-2.2,.5Z" class="g1_252"/>
<path d="M438.8,141.4h7.6v-.8h-7.6Zm0,-3h7.6v-.8h-7.6Z" class="g1_252"/>
<path d="M455.9,133.3c1.3,0,2.1,-1.3,2.5,-2.1l-.2,-.1c-.3,.4,-.9,1.6,-1.7,1.6c-.2,0,-.3,-.4,-.3,-.6c0,-.2,.1,-.5,.2,-1l1.1,-3.9h1.3l.1,-.4h-1.4l.5,-1.6h-1l-.5,1.6h-1l-.1,.4h1l-.9,3.6c-.2,.4,-.2,.8,-.3,1.1c0,.3,-.1,.5,-.1,.6c0,.6,.2,.8,.8,.8Z" class="g1_252"/>
<path d="M463.9,129.8h7.6V129h-7.6Z" class="g1_252"/>
<path d="M480,133.1c-1.9,0,-2,-2.8,-2,-4.9c0,-2.3,0,-5.2,2,-5.2c1.9,0,1.9,2.9,1.9,5.2c0,2.1,0,4.9,-1.9,4.9Zm0,-10.4c-2.6,0,-3.4,2.7,-3.4,5.4c0,2.6,.8,5.2,3.4,5.2c2.5,0,3.3,-2.6,3.3,-5.2c0,-2.7,-.7,-5.4,-3.3,-5.4Z" class="g1_252"/>
<path d="M453,139.9h32.8V139H453Z" class="g1_252"/>
<path d="M455,143.8v.2c.4,0,1.1,.1,1.3,.2c.4,.2,.4,.4,.4,1v6.5c0,.4,0,.6,0,.8c-.1,.7,-.9,.8,-1.7,.8v.2h4.7v-.2c-.5,0,-1.2,0,-1.4,-.3c-.2,-.3,-.3,-.8,-.3,-1.3v-8.6c-.7,.4,-2.1,.7,-3,.7Z" class="g1_252"/>
<path d="M465.6,150.1h7.6v-.8h-7.6Z" class="g1_252"/>
<path d="M481.6,153.4c-1.9,0,-1.9,-2.7,-1.9,-4.9c0,-2.2,0,-5.2,1.9,-5.2c2,0,2,3,2,5.2c0,2.2,-.1,4.9,-2,4.9Zm0,-10.3c-2.6,0,-3.3,2.7,-3.3,5.3c0,2.7,.8,5.3,3.3,5.3c2.6,0,3.4,-2.6,3.4,-5.3c0,-2.6,-.8,-5.3,-3.4,-5.3Z" class="g1_252"/>
<path d="M492.4,141.4H500v-.8h-7.6Zm0,-3H500v-.8h-7.6Z" class="g1_252"/>
<path d="M506,143.4c1.2,0,2.1,-1.3,2.5,-2.1l-.3,-.1c-.3,.4,-.9,1.6,-1.6,1.6c-.3,0,-.3,-.4,-.3,-.6c0,-.2,.1,-.5,.2,-1l1,-3.9h1.3l.1,-.4h-1.3l.5,-1.6H507l-.4,1.6h-1.1v.4h1l-1,3.6c-.1,.4,-.2,.8,-.2,1.1c-.1,.3,-.1,.5,-.1,.6c0,.6,.2,.8,.8,.8Z" class="g1_252"/>
<path d="M323.3,898h.4V871.3h-.4Z" class="g2_252"/>
</svg>