<?xml version="1.0" encoding="UTF-8" standalone="no"?>
<!DOCTYPE svg PUBLIC "-//W3C//DTD SVG 1.1//EN"
"http://www.w3.org/Graphics/SVG/1.1/DTD/svg11.dtd">
<svg viewBox="0 0 811 1017" version="1.1" xmlns="http://www.w3.org/2000/svg" xmlns:xlink="http://www.w3.org/1999/xlink">
<defs>
<clipPath id="c0_244"><path d="M142.4,388V82.5H528.9V388Z"/></clipPath>
<clipPath id="c1_244"><path d="M160.8,868.3V699.5H329.7V868.3Z"/></clipPath>
<clipPath id="c2_244"><path d="M342.4,868.3V699.5H511.3V868.3Z"/></clipPath>
<clipPath id="c3_244"><path d="M524.7,868.3V699.5H693.5V868.3Z"/></clipPath>
<style type="text/css"><![CDATA[
.g0_244{
fill: #F7F5E8;
}
.g1_244{
fill: #FFF;
}
.g2_244{
fill: #1A78B6;
}
.g3_244{
fill: none;
stroke: #1A78B6;
stroke-width: 0.982;
stroke-linejoin: round;
}
.g4_244{
fill: none;
stroke: #040504;
stroke-width: 0.294;
}
.g5_244{
fill: none;
stroke: #B0B2B1;
stroke-width: 0.785;
stroke-linecap: square;
stroke-linejoin: round;
}
.g6_244{
fill: none;
stroke: #040504;
stroke-width: 0.785;
stroke-linejoin: round;
}
.g7_244{
fill: #040504;
}
.g8_244{
fill: none;
stroke: #1A78B6;
stroke-width: 1.472;
stroke-linecap: square;
stroke-linejoin: round;
}
.g9_244{
fill: none;
stroke: #040504;
stroke-width: 0.785;
stroke-linecap: square;
}
]]></style>
</defs>
<path d="M142.4,913.9H710.7V584.4H142.4Z" class="g0_244"/>
<path d="M177,359.6H527.8V98.2H177Z" class="g1_244"/>
<path d="M193.3,303.1c.8,0,1.5,-.3,2.1,-.8c.5,-.6,.9,-1.3,.9,-2.1c0,-.8,-.4,-1.5,-.9,-2.1c-.6,-.5,-1.3,-.8,-2.1,-.8c-.8,0,-1.5,.3,-2.1,.8c-.5,.6,-.8,1.3,-.8,2.1c0,.8,.3,1.5,.8,2.1c.6,.5,1.3,.8,2.1,.8Z" class="g2_244"/>
<path d="M193.3,303.1c.8,0,1.5,-.3,2.1,-.8c.5,-.6,.9,-1.3,.9,-2.1c0,-.8,-.4,-1.5,-.9,-2.1c-.6,-.5,-1.3,-.8,-2.1,-.8c-.8,0,-1.5,.3,-2.1,.8c-.5,.6,-.8,1.3,-.8,2.1c0,.8,.3,1.5,.8,2.1c.6,.5,1.3,.8,2.1,.8Z" class="g3_244"/>
<path d="M510.4,184.3c.8,0,1.6,-.3,2.1,-.8c.6,-.6,.9,-1.3,.9,-2.1c0,-.8,-.3,-1.5,-.9,-2.1c-.5,-.5,-1.3,-.9,-2.1,-.9c-.8,0,-1.5,.4,-2.1,.9c-.5,.6,-.8,1.3,-.8,2.1c0,.8,.3,1.5,.8,2.1c.6,.5,1.3,.8,2.1,.8Z" class="g2_244"/>
<path d="M510.4,184.3c.8,0,1.6,-.3,2.1,-.8c.6,-.6,.9,-1.3,.9,-2.1c0,-.8,-.3,-1.5,-.9,-2.1c-.5,-.5,-1.3,-.9,-2.1,-.9c-.8,0,-1.5,.4,-2.1,.9c-.5,.6,-.8,1.3,-.8,2.1c0,.8,.3,1.5,.8,2.1c.6,.5,1.3,.8,2.1,.8Z" class="g3_244"/>
<path d="M209.2,110.1l8.9,7.2l-9.2,-.1l-15.3,183H193l15.3,-183l-9.2,-.1l10.1,-7ZM431.1,347.7l-6,-7.6l9.1,.6L510.1,181.4h.6L434.8,340.7l9.1,.6l-12.8,6.4Z" class="g4_244"/>
<path d="M225,359.6V98.2" class="g5_244"/>
<path d="M225,359.6V363" class="g6_244"/>
<path d="M220.3,366.7c.8,0,1.5,.3,1.9,.9c.4,.6,.6,1.6,.6,2.8c0,1.2,-.2,2.1,-.6,2.7c-.4,.7,-1.1,1,-1.9,1c-.8,0,-1.4,-.3,-1.8,-1c-.4,-.6,-.6,-1.5,-.6,-2.7c0,-1.2,.2,-2.2,.6,-2.8c.4,-.6,1,-.9,1.8,-.9Zm0,.7c-.5,0,-.8,.3,-1.1,.8c-.2,.4,-.4,1.2,-.4,2.2c0,1,.2,1.7,.4,2.2c.3,.5,.6,.7,1.1,.7c.5,0,.9,-.2,1.2,-.7c.2,-.5,.3,-1.2,.3,-2.2c0,-1,-.1,-1.8,-.3,-2.2c-.3,-.5,-.7,-.8,-1.2,-.8Z" class="g7_244"/>
<path d="M224.5,373.9h1v-1.2h-1Z" class="g7_244"/>
<path d="M230.6,370.1c.4,.1,.8,.3,1.1,.6c.2,.3,.3,.7,.3,1.2c0,.7,-.2,1.2,-.7,1.6c-.5,.4,-1.2,.6,-2.1,.6c-.3,0,-.6,0,-.9,-.1c-.3,-.1,-.6,-.2,-1,-.3v-.9c.3,.2,.6,.3,.9,.3c.3,.1,.7,.2,1,.2c.6,0,1.1,-.2,1.4,-.4c.3,-.2,.5,-.6,.5,-1c0,-.5,-.2,-.8,-.5,-1c-.3,-.3,-.7,-.4,-1.2,-.4h-.8v-.8h.8c.5,0,.9,-.1,1.1,-.3c.3,-.2,.4,-.4,.4,-.8c0,-.4,-.1,-.6,-.4,-.8c-.2,-.2,-.6,-.3,-1.1,-.3c-.3,0,-.5,0,-.9,.1c-.3,0,-.6,.1,-1,.2V367c.4,-.1,.8,-.2,1.1,-.3c.3,0,.6,0,.9,0c.7,0,1.3,.1,1.7,.5c.5,.3,.7,.7,.7,1.3c0,.4,-.1,.7,-.4,1c-.2,.3,-.5,.5,-.9,.6Z" class="g7_244"/>
<path d="M288.4,359.6V98.2" class="g5_244"/>
<path d="M288.4,359.6V363" class="g6_244"/>
<path d="M283.8,366.7c.8,0,1.4,.3,1.8,.9c.4,.6,.6,1.6,.6,2.8c0,1.2,-.2,2.1,-.6,2.7c-.4,.7,-1,1,-1.8,1c-.8,0,-1.5,-.3,-1.9,-1c-.4,-.6,-.6,-1.5,-.6,-2.7c0,-1.2,.2,-2.2,.6,-2.8c.4,-.6,1.1,-.9,1.9,-.9Zm0,.7c-.5,0,-.9,.3,-1.2,.8c-.2,.4,-.3,1.2,-.3,2.2c0,1,.1,1.7,.3,2.2c.3,.5,.7,.7,1.2,.7c.5,0,.8,-.2,1.1,-.7c.2,-.5,.4,-1.2,.4,-2.2c0,-1,-.2,-1.8,-.4,-2.2c-.3,-.5,-.6,-.8,-1.1,-.8Z" class="g7_244"/>
<path d="M287.9,373.9h1v-1.2h-1Z" class="g7_244"/>
<path d="M293.5,366.8h1.2v4.7h1v.8h-1v1.6h-1v-1.6h-3.2v-1l3,-4.5Zm.2,.8l-2.4,3.9h2.4v-3.9Z" class="g7_244"/>
<path d="M351.9,359.6V98.2" class="g5_244"/>
<path d="M351.9,359.6V363" class="g6_244"/>
<path d="M347.2,366.7c.8,0,1.4,.3,1.8,.9c.4,.6,.7,1.6,.7,2.8c0,1.2,-.3,2.1,-.7,2.7c-.4,.7,-1,1,-1.8,1c-.8,0,-1.4,-.3,-1.9,-1c-.4,-.6,-.6,-1.5,-.6,-2.7c0,-1.2,.2,-2.2,.6,-2.8c.5,-.6,1.1,-.9,1.9,-.9Zm0,.7c-.5,0,-.9,.3,-1.1,.8c-.3,.4,-.4,1.2,-.4,2.2c0,1,.1,1.7,.4,2.2c.2,.5,.6,.7,1.1,.7c.5,0,.9,-.2,1.1,-.7c.3,-.5,.4,-1.2,.4,-2.2c0,-1,-.1,-1.8,-.4,-2.2c-.2,-.5,-.6,-.8,-1.1,-.8Z" class="g7_244"/>
<path d="M351.4,373.9h1v-1.2h-1Z" class="g7_244"/>
<path d="M354.5,366.8h3.8v.8h-2.9v1.8c.1,-.1,.3,-.1,.4,-.2c.1,0,.3,0,.4,0c.8,0,1.5,.2,1.9,.7c.5,.4,.7,1,.7,1.7c0,.8,-.2,1.4,-.7,1.8c-.5,.5,-1.2,.7,-2,.7c-.3,0,-.6,0,-.9,-.1c-.4,0,-.7,-.1,-1,-.2v-1c.3,.2,.6,.3,.9,.4c.3,0,.6,.1,1,.1c.5,0,.9,-.2,1.3,-.5c.3,-.3,.4,-.7,.4,-1.2c0,-.5,-.1,-.8,-.4,-1.1c-.4,-.3,-.8,-.5,-1.3,-.5c-.3,0,-.6,.1,-.8,.1c-.3,.1,-.5,.2,-.8,.3v-3.6Z" class="g7_244"/>
<path d="M415.3,359.6V98.2" class="g5_244"/>
<path d="M415.3,359.6V363" class="g6_244"/>
<path d="M410.6,366.7c.8,0,1.4,.3,1.8,.9c.5,.6,.7,1.6,.7,2.8c0,1.2,-.2,2.1,-.7,2.7c-.4,.7,-1,1,-1.8,1c-.8,0,-1.4,-.3,-1.8,-1c-.5,-.6,-.7,-1.5,-.7,-2.7c0,-1.2,.2,-2.2,.7,-2.8c.4,-.6,1,-.9,1.8,-.9Zm0,.7c-.5,0,-.9,.3,-1.1,.8c-.3,.4,-.4,1.2,-.4,2.2c0,1,.1,1.7,.4,2.2c.2,.5,.6,.7,1.1,.7c.5,0,.9,-.2,1.1,-.7c.3,-.5,.4,-1.2,.4,-2.2c0,-1,-.1,-1.8,-.4,-2.2c-.2,-.5,-.6,-.8,-1.1,-.8Z" class="g7_244"/>
<path d="M414.8,373.9h1v-1.2h-1Z" class="g7_244"/>
<path d="M422,366.9v.9c-.2,-.1,-.5,-.2,-.7,-.2c-.3,-.1,-.5,-.1,-.8,-.1c-.6,0,-1.1,.2,-1.4,.6c-.4,.4,-.6,1.1,-.6,2c.2,-.3,.4,-.5,.7,-.7c.3,-.1,.6,-.2,.9,-.2c.8,0,1.3,.2,1.8,.7c.4,.4,.6,1,.6,1.7c0,.8,-.2,1.4,-.7,1.8c-.4,.5,-1,.7,-1.7,.7c-.8,0,-1.5,-.3,-1.9,-1c-.4,-.6,-.7,-1.5,-.7,-2.7c0,-1.2,.3,-2.1,.8,-2.7c.6,-.7,1.3,-1,2.2,-1c.2,0,.5,0,.7,0c.3,.1,.5,.1,.8,.2Zm-1.9,3.1c-.4,0,-.8,.1,-1,.4c-.3,.3,-.4,.7,-.4,1.2c0,.6,.1,1,.4,1.3c.2,.3,.6,.4,1,.4c.4,0,.8,-.1,1,-.4c.3,-.3,.4,-.7,.4,-1.3c0,-.5,-.1,-.9,-.4,-1.2c-.2,-.3,-.6,-.4,-1,-.4Z" class="g7_244"/>
<path d="M478.7,359.6V98.2" class="g5_244"/>
<path d="M478.7,359.6V363" class="g6_244"/>
<path d="M474,366.7c.8,0,1.4,.3,1.9,.9c.4,.6,.6,1.6,.6,2.8c0,1.2,-.2,2.1,-.6,2.7c-.5,.7,-1.1,1,-1.9,1c-.8,0,-1.4,-.3,-1.8,-1c-.4,-.6,-.7,-1.5,-.7,-2.7c0,-1.2,.3,-2.2,.7,-2.8c.4,-.6,1,-.9,1.8,-.9Zm0,.7c-.5,0,-.9,.3,-1.1,.8c-.3,.4,-.4,1.2,-.4,2.2c0,1,.1,1.7,.4,2.2c.2,.5,.6,.7,1.1,.7c.5,0,.9,-.2,1.2,-.7c.2,-.5,.3,-1.2,.3,-2.2c0,-1,-.1,-1.8,-.3,-2.2c-.3,-.5,-.7,-.8,-1.2,-.8Z" class="g7_244"/>
<path d="M478.2,373.9h1v-1.2h-1Z" class="g7_244"/>
<path d="M481.1,366.8h4.6v.4l-2.6,6.7h-1l2.4,-6.3h-3.4v-.8Z" class="g7_244"/>
<path d="M354.9,382l-1.9,2.6l2,2.8h-1l-1.6,-2.1l-1.5,2.1h-1.1l2.1,-2.8L350,382h1l1.5,1.9l1.4,-1.9h1Z" class="g7_244"/>
<path d="M177,359.6H527.8" class="g5_244"/>
<path d="M177,359.6h-3.4" class="g6_244"/>
<path d="M157.7,356c.8,0,1.4,.4,1.8,1c.4,.6,.7,1.6,.7,2.8c0,1.2,-.3,2.1,-.7,2.7c-.4,.7,-1,1,-1.8,1c-.8,0,-1.4,-.3,-1.9,-1c-.4,-.6,-.6,-1.5,-.6,-2.7c0,-1.2,.2,-2.2,.6,-2.8c.5,-.6,1.1,-1,1.9,-1Zm0,.8c-.5,0,-.9,.3,-1.2,.8c-.2,.4,-.3,1.2,-.3,2.2c0,.9,.1,1.7,.3,2.2c.3,.5,.7,.7,1.2,.7c.5,0,.9,-.2,1.1,-.7c.3,-.5,.4,-1.3,.4,-2.2c0,-1,-.1,-1.8,-.4,-2.2c-.2,-.5,-.6,-.8,-1.1,-.8Z" class="g7_244"/>
<path d="M161.9,363.3h1v-1.2h-1Z" class="g7_244"/>
<path d="M167,356c.9,0,1.5,.4,1.9,1c.4,.6,.6,1.6,.6,2.8c0,1.2,-.2,2.1,-.6,2.7c-.4,.7,-1,1,-1.9,1c-.8,0,-1.4,-.3,-1.8,-1c-.4,-.6,-.6,-1.5,-.6,-2.7c0,-1.2,.2,-2.2,.6,-2.8c.4,-.6,1,-1,1.8,-1Zm0,.8c-.5,0,-.8,.3,-1.1,.8c-.2,.4,-.4,1.2,-.4,2.2c0,.9,.2,1.7,.4,2.2c.3,.5,.6,.7,1.1,.7c.5,0,.9,-.2,1.2,-.7c.2,-.5,.4,-1.3,.4,-2.2c0,-1,-.2,-1.8,-.4,-2.2c-.3,-.5,-.7,-.8,-1.2,-.8Z" class="g7_244"/>
<path d="M177,312.1H527.8" class="g5_244"/>
<path d="M177,312.1h-3.4" class="g6_244"/>
<path d="M157.7,308.5c.8,0,1.4,.3,1.8,1c.4,.6,.7,1.5,.7,2.7c0,1.2,-.3,2.2,-.7,2.8c-.4,.6,-1,1,-1.8,1c-.8,0,-1.4,-.4,-1.9,-1c-.4,-.6,-.6,-1.6,-.6,-2.8c0,-1.2,.2,-2.1,.6,-2.7c.5,-.7,1.1,-1,1.9,-1Zm0,.8c-.5,0,-.9,.2,-1.2,.7c-.2,.5,-.3,1.3,-.3,2.2c0,1,.1,1.8,.3,2.2c.3,.5,.7,.8,1.2,.8c.5,0,.9,-.3,1.1,-.8c.3,-.4,.4,-1.2,.4,-2.2c0,-.9,-.1,-1.7,-.4,-2.2c-.2,-.5,-.6,-.7,-1.1,-.7Z" class="g7_244"/>
<path d="M161.9,315.8h1v-1.2h-1Z" class="g7_244"/>
<path d="M165.8,315h3.4v.8h-4.6V315c.4,-.4,.9,-.9,1.5,-1.5c.7,-.7,1.1,-1.1,1.2,-1.3c.4,-.3,.6,-.6,.7,-.9c.1,-.2,.2,-.4,.2,-.7c0,-.4,-.2,-.7,-.4,-.9c-.3,-.2,-.6,-.4,-1.1,-.4c-.3,0,-.6,.1,-.9,.2c-.4,.1,-.7,.3,-1.1,.5v-1c.4,-.2,.7,-.3,1.1,-.4c.3,0,.6,-.1,.9,-.1c.8,0,1.3,.2,1.8,.6c.4,.3,.7,.8,.7,1.5c0,.3,-.1,.5,-.2,.8c-.1,.3,-.3,.6,-.6,.9c-.1,.1,-.3,.4,-.8,.8c-.4,.5,-1,1.1,-1.8,1.9Z" class="g7_244"/>
<path d="M177,264.6H527.8" class="g5_244"/>
<path d="M177,264.6h-3.4" class="g6_244"/>
<path d="M157.7,261c.8,0,1.4,.3,1.8,.9c.4,.7,.7,1.6,.7,2.8c0,1.2,-.3,2.1,-.7,2.8c-.4,.6,-1,.9,-1.8,.9c-.8,0,-1.4,-.3,-1.9,-.9c-.4,-.7,-.6,-1.6,-.6,-2.8c0,-1.2,.2,-2.1,.6,-2.8c.5,-.6,1.1,-.9,1.9,-.9Zm0,.8c-.5,0,-.9,.2,-1.2,.7c-.2,.5,-.3,1.2,-.3,2.2c0,1,.1,1.7,.3,2.2c.3,.5,.7,.8,1.2,.8c.5,0,.9,-.3,1.1,-.8c.3,-.5,.4,-1.2,.4,-2.2c0,-1,-.1,-1.7,-.4,-2.2c-.2,-.5,-.6,-.7,-1.1,-.7Z" class="g7_244"/>
<path d="M161.9,268.3h1v-1.2h-1Z" class="g7_244"/>
<path d="M167.4,261.1h1.2v4.7h1v.8h-1v1.7h-1v-1.7h-3.2v-.9l3,-4.6Zm.2,.9l-2.4,3.8h2.4V262Z" class="g7_244"/>
<path d="M177,217H527.8" class="g5_244"/>
<path d="M177,217h-3.4" class="g6_244"/>
<path d="M157.7,213.5c.8,0,1.4,.3,1.8,.9c.4,.7,.7,1.6,.7,2.8c0,1.2,-.3,2.1,-.7,2.7c-.4,.7,-1,1,-1.8,1c-.8,0,-1.4,-.3,-1.9,-1c-.4,-.6,-.6,-1.5,-.6,-2.7c0,-1.2,.2,-2.1,.6,-2.8c.5,-.6,1.1,-.9,1.9,-.9Zm0,.7c-.5,0,-.9,.3,-1.2,.8c-.2,.5,-.3,1.2,-.3,2.2c0,1,.1,1.7,.3,2.2c.3,.5,.7,.7,1.2,.7c.5,0,.9,-.2,1.1,-.7c.3,-.5,.4,-1.2,.4,-2.2c0,-1,-.1,-1.7,-.4,-2.2c-.2,-.5,-.6,-.8,-1.1,-.8Z" class="g7_244"/>
<path d="M161.9,220.8h1v-1.3h-1Z" class="g7_244"/>
<path d="M169.1,213.8v.8c-.3,-.1,-.5,-.2,-.7,-.2c-.3,-.1,-.5,-.1,-.8,-.1c-.6,0,-1.1,.2,-1.4,.6c-.4,.5,-.6,1.1,-.6,2c.2,-.3,.4,-.5,.7,-.6c.3,-.2,.6,-.3,.9,-.3c.7,0,1.3,.2,1.7,.7c.4,.4,.7,1,.7,1.8c0,.7,-.3,1.3,-.7,1.7c-.4,.5,-1,.7,-1.7,.7c-.9,0,-1.5,-.3,-1.9,-1c-.5,-.6,-.7,-1.5,-.7,-2.7c0,-1.1,.3,-2,.8,-2.7c.6,-.7,1.3,-1,2.2,-1c.2,0,.5,0,.7,0c.3,.1,.5,.2,.8,.3Zm-1.9,3c-.5,0,-.8,.1,-1.1,.4c-.2,.3,-.3,.7,-.3,1.3c0,.5,.1,.9,.3,1.2c.3,.3,.6,.4,1.1,.4c.4,0,.7,-.1,1,-.4c.3,-.3,.4,-.7,.4,-1.2c0,-.6,-.1,-1,-.4,-1.3c-.3,-.3,-.6,-.4,-1,-.4Z" class="g7_244"/>
<path d="M177,169.5H527.8" class="g5_244"/>
<path d="M177,169.5h-3.4" class="g6_244"/>
<path d="M157.7,165.9c.8,0,1.4,.4,1.8,1c.4,.6,.7,1.6,.7,2.8c0,1.2,-.3,2.1,-.7,2.7c-.4,.7,-1,1,-1.8,1c-.8,0,-1.4,-.3,-1.9,-1c-.4,-.6,-.6,-1.5,-.6,-2.7c0,-1.2,.2,-2.2,.6,-2.8c.5,-.6,1.1,-1,1.9,-1Zm0,.8c-.5,0,-.9,.3,-1.2,.8c-.2,.4,-.3,1.2,-.3,2.2c0,.9,.1,1.7,.3,2.2c.3,.5,.7,.7,1.2,.7c.5,0,.9,-.2,1.1,-.7c.3,-.5,.4,-1.3,.4,-2.2c0,-1,-.1,-1.8,-.4,-2.2c-.2,-.5,-.6,-.8,-1.1,-.8Z" class="g7_244"/>
<path d="M161.9,173.2h1V172h-1Z" class="g7_244"/>
<path d="M165.7,167.9c0,.4,.1,.7,.4,.9c.2,.2,.5,.3,.9,.3c.5,0,.8,-.1,1,-.3c.3,-.2,.4,-.5,.4,-.9c0,-.4,-.1,-.7,-.4,-.9c-.2,-.2,-.5,-.3,-1,-.3c-.4,0,-.7,.1,-.9,.3c-.3,.2,-.4,.5,-.4,.9Zm.4,1.5c-.4,-.1,-.8,-.3,-1,-.6c-.2,-.2,-.3,-.6,-.3,-1c0,-.6,.2,-1,.6,-1.4c.4,-.3,.9,-.5,1.6,-.5c.8,0,1.3,.2,1.7,.5c.4,.4,.6,.8,.6,1.4c0,.4,-.1,.8,-.3,1c-.2,.3,-.6,.5,-1,.6c.5,.1,.8,.3,1.1,.7c.3,.3,.4,.7,.4,1.1c0,.7,-.2,1.2,-.6,1.6c-.5,.4,-1.1,.6,-1.9,.6c-.7,0,-1.3,-.2,-1.8,-.6c-.4,-.4,-.6,-.9,-.6,-1.6c0,-.4,.1,-.8,.4,-1.1c.2,-.4,.6,-.6,1.1,-.7Zm.9,.4c-.4,0,-.8,.2,-1,.4c-.3,.3,-.4,.6,-.4,1c0,.5,.1,.8,.4,1c.2,.3,.6,.4,1,.4c.5,0,.9,-.1,1.1,-.4c.3,-.2,.4,-.5,.4,-1c0,-.4,-.1,-.7,-.4,-1c-.2,-.2,-.6,-.4,-1.1,-.4Z" class="g7_244"/>
<path d="M177,122H527.8" class="g5_244"/>
<path d="M177,122h-3.4" class="g6_244"/>
<path d="M155.8,124.9h1.6v-5.5l-1.8,.4v-.9l1.7,-.3h1v6.3h1.6v.8h-4.1v-.8Z" class="g7_244"/>
<path d="M161.9,125.7h1v-1.2h-1Z" class="g7_244"/>
<path d="M167,118.4c.9,0,1.5,.3,1.9,1c.4,.6,.6,1.5,.6,2.7c0,1.2,-.2,2.2,-.6,2.8c-.4,.6,-1,1,-1.9,1c-.8,0,-1.4,-.4,-1.8,-1c-.4,-.6,-.6,-1.6,-.6,-2.8c0,-1.2,.2,-2.1,.6,-2.7c.4,-.7,1,-1,1.8,-1Zm0,.8c-.5,0,-.8,.2,-1.1,.7c-.2,.5,-.4,1.3,-.4,2.2c0,1,.2,1.8,.4,2.2c.3,.5,.6,.8,1.1,.8c.5,0,.9,-.3,1.2,-.8c.2,-.4,.4,-1.2,.4,-2.2c0,-.9,-.2,-1.7,-.4,-2.2c-.3,-.5,-.7,-.7,-1.2,-.7Z" class="g7_244"/>
<path d="M149.1,228.7c.6,.2,1,.4,1.2,.7c.2,.2,.3,.5,.3,.9v.7h-.7v-.5c0,-.2,-.1,-.4,-.2,-.5c-.1,-.2,-.4,-.3,-.8,-.5l-.4,-.1l-5.3,2.1v-.9l4.2,-1.7l-4.2,-1.7v-.9l5.9,2.4Z" class="g7_244"/>
<path clip-path="url(#c0_244)" d="M202.4,317.6L200.5,316C128.9,253.7,609,97.6,493.9,200.6l-3,2.6" class="g8_244"/>
<path d="M177,359.6V98.2M527.8,359.6V98.2M177,359.6H527.8M177,98.2H527.8" class="g9_244"/>
<path d="M226.6,83.7h2.6c1,0,1.7,.2,2.2,.7c.5,.4,.7,1.1,.7,1.9c0,.8,-.2,1.5,-.7,1.9c-.5,.5,-1.2,.7,-2.2,.7h-1.4v3.4h-1.2V83.7Zm1.2,1v3.2h1.4c.6,0,1,-.1,1.3,-.4c.3,-.3,.4,-.7,.4,-1.2c0,-.5,-.1,-.9,-.4,-1.2c-.3,-.3,-.7,-.4,-1.3,-.4h-1.4Z" class="g7_244"/>
<path d="M238.2,88.6v3.7h-1.1v-1c-.2,.4,-.5,.7,-.9,.9c-.4,.2,-.8,.3,-1.3,.3c-.7,0,-1.2,-.2,-1.6,-.6c-.4,-.3,-.6,-.8,-.6,-1.5c0,-.7,.3,-1.2,.8,-1.6c.4,-.4,1.2,-.5,2.1,-.5h1.5v-.2c0,-.4,-.1,-.8,-.5,-1.1c-.3,-.2,-.7,-.4,-1.3,-.4c-.4,0,-.7,.1,-1.1,.2c-.3,0,-.7,.2,-1,.4v-1c.4,-.2,.8,-.3,1.1,-.4c.4,0,.7,-.1,1.1,-.1c.9,0,1.6,.3,2.1,.7c.4,.5,.7,1.3,.7,2.2Zm-2.1,.5c-.9,0,-1.5,.1,-1.8,.3c-.4,.2,-.5,.5,-.5,1c0,.4,.1,.7,.4,.9c.2,.2,.5,.3,1,.3c.6,0,1,-.2,1.4,-.6c.3,-.4,.5,-1,.5,-1.7v-.2h-1Z" class="g7_244"/>
<path d="M244.1,86.9c-.1,-.1,-.3,-.2,-.4,-.2c-.1,0,-.3,0,-.5,0c-.6,0,-1,.2,-1.3,.5c-.4,.4,-.5,1,-.5,1.7v3.4h-1.1V85.9h1.1v1c.2,-.4,.5,-.7,.8,-.9c.4,-.2,.8,-.3,1.3,-.3c.1,0,.2,0,.3,0c.1,0,.2,.1,.3,.1v1.1Z" class="g7_244"/>
<path d="M250.2,88.6v3.7h-1v-1c-.3,.4,-.6,.7,-.9,.9c-.4,.2,-.8,.3,-1.3,.3c-.7,0,-1.2,-.2,-1.6,-.6c-.4,-.3,-.6,-.8,-.6,-1.5c0,-.7,.2,-1.2,.7,-1.6c.5,-.4,1.2,-.5,2.2,-.5h1.5v-.2c0,-.4,-.2,-.8,-.5,-1.1c-.3,-.2,-.8,-.4,-1.3,-.4c-.4,0,-.8,.1,-1.1,.2c-.4,0,-.7,.2,-1,.4v-1c.4,-.2,.7,-.3,1.1,-.4c.4,0,.7,-.1,1.1,-.1c.9,0,1.6,.3,2,.7c.5,.5,.7,1.3,.7,2.2Zm-2.1,.5c-.8,0,-1.4,.1,-1.8,.3c-.3,.2,-.4,.5,-.4,1c0,.4,.1,.7,.3,.9c.3,.2,.6,.3,1,.3c.6,0,1.1,-.2,1.4,-.6c.4,-.4,.6,-1,.6,-1.7v-.2h-1.1Z" class="g7_244"/>
<path d="M257.4,87.1c.3,-.5,.6,-.8,1,-1c.4,-.3,.8,-.4,1.3,-.4c.7,0,1.2,.3,1.5,.7c.4,.5,.6,1.2,.6,2v3.9h-1.1V88.5c0,-.7,-.1,-1.1,-.3,-1.4c-.2,-.3,-.6,-.5,-1,-.5c-.6,0,-1,.2,-1.3,.6c-.3,.4,-.5,.9,-.5,1.5v3.6h-1V88.5c0,-.7,-.2,-1.1,-.4,-1.4c-.2,-.3,-.5,-.5,-1,-.5c-.5,0,-1,.2,-1.3,.6c-.3,.4,-.5,.9,-.5,1.5v3.6h-1V85.9h1v1c.3,-.4,.6,-.7,.9,-.9c.3,-.2,.8,-.3,1.2,-.3c.5,0,.9,.1,1.2,.4c.3,.2,.6,.6,.7,1Z" class="g7_244"/>
<path d="M268.4,88.5c-.1,-.6,-.2,-1,-.5,-1.4c-.3,-.3,-.8,-.5,-1.3,-.5c-.6,0,-1.1,.2,-1.4,.5c-.4,.4,-.6,.8,-.6,1.4h3.8Zm1,.3v.6h-4.9c.1,.7,.3,1.2,.7,1.6c.4,.4,.9,.6,1.6,.6c.5,0,.8,-.1,1.2,-.2c.4,-.1,.8,-.2,1.2,-.4v1c-.4,.2,-.8,.3,-1.2,.4c-.4,0,-.8,.1,-1.2,.1c-1,0,-1.9,-.3,-2.5,-.9c-.6,-.6,-.9,-1.4,-.9,-2.4c0,-1.1,.3,-1.9,.9,-2.5c.6,-.7,1.3,-1,2.3,-1c.9,0,1.6,.3,2.1,.9c.5,.5,.7,1.3,.7,2.2Z" class="g7_244"/>
<path d="M272.2,84v1.9h2.2v.8h-2.2v3.5c0,.5,.1,.9,.2,1c.2,.2,.5,.2,.9,.2h1.1v.9h-1.1c-.8,0,-1.4,-.1,-1.7,-.4c-.3,-.3,-.5,-.9,-.5,-1.7V86.7h-.7v-.8h.7V84h1.1Z" class="g7_244"/>
<path d="M279.5,86.9c-.1,-.1,-.2,-.2,-.4,-.2c-.1,0,-.3,0,-.4,0c-.6,0,-1.1,.2,-1.4,.5c-.3,.4,-.5,1,-.5,1.7v3.4h-1.1V85.9h1.1v1c.2,-.4,.5,-.7,.9,-.9c.3,-.2,.8,-.3,1.3,-.3c0,0,.1,0,.2,0c.1,0,.2,.1,.3,.1v1.1Z" class="g7_244"/>
<path d="M280.6,83.4h1.1v1.3h-1.1Zm0,2.5h1.1v6.4h-1.1Z" class="g7_244"/>
<path d="M288.5,86.1v1c-.3,-.2,-.6,-.3,-.9,-.4c-.3,0,-.6,-.1,-.9,-.1c-.7,0,-1.2,.2,-1.6,.7c-.4,.4,-.5,1,-.5,1.8c0,.8,.1,1.4,.5,1.8c.4,.5,.9,.7,1.6,.7c.3,0,.6,0,.9,-.1c.3,-.1,.6,-.2,.9,-.4v1c-.3,.1,-.6,.2,-.9,.3c-.3,.1,-.6,.1,-1,.1c-1,0,-1.7,-.3,-2.3,-.9c-.6,-.6,-.9,-1.5,-.9,-2.5c0,-1,.3,-1.9,.9,-2.5c.6,-.6,1.4,-.9,2.4,-.9c.3,0,.6,.1,.9,.1c.3,.1,.6,.2,.9,.3Z" class="g7_244"/>
<path d="M298.8,89.1c0,-.8,-.2,-1.4,-.5,-1.8c-.4,-.5,-.8,-.7,-1.4,-.7c-.5,0,-1,.2,-1.3,.7c-.3,.4,-.5,1,-.5,1.8c0,.8,.2,1.4,.5,1.8c.3,.5,.8,.7,1.3,.7c.6,0,1,-.2,1.4,-.7c.3,-.4,.5,-1,.5,-1.8Zm-3.7,2.3v3.4h-1V85.9h1v1c.3,-.4,.6,-.7,.9,-.9c.3,-.2,.7,-.3,1.2,-.3c.8,0,1.4,.3,1.9,1c.5,.6,.7,1.4,.7,2.4c0,1,-.2,1.8,-.7,2.5c-.5,.6,-1.1,.9,-1.9,.9c-.5,0,-.9,-.1,-1.2,-.3c-.3,-.2,-.6,-.5,-.9,-.8Z" class="g7_244"/>
<path d="M304.1,85.7c.9,0,1.6,.3,2.2,.9c.5,.6,.8,1.4,.8,2.5c0,1.1,-.3,1.9,-.8,2.5c-.6,.6,-1.3,.9,-2.2,.9c-.9,0,-1.6,-.3,-2.2,-.9c-.5,-.6,-.8,-1.4,-.8,-2.5c0,-1.1,.3,-1.9,.8,-2.5c.6,-.6,1.3,-.9,2.2,-.9Zm0,.9c-.6,0,-1,.2,-1.3,.7c-.4,.4,-.5,1,-.5,1.8c0,.8,.1,1.4,.5,1.8c.3,.5,.7,.7,1.3,.7c.6,0,1,-.2,1.3,-.7c.4,-.4,.5,-1,.5,-1.8c0,-.8,-.1,-1.4,-.5,-1.8c-.3,-.5,-.7,-.7,-1.3,-.7Z" class="g7_244"/>
<path d="M308.8,92.3h1.1V83.4h-1.1Z" class="g7_244"/>
<path d="M314.8,92.9c-.3,.8,-.6,1.3,-.9,1.5c-.3,.3,-.7,.4,-1.1,.4h-.9v-.9h.6c.3,0,.6,-.1,.7,-.2c.2,-.2,.4,-.5,.5,-1l.2,-.5l-2.6,-6.3h1.2l2,5l2,-5h1.1l-2.8,7Z" class="g7_244"/>
<path d="M324.4,88.4v3.9h-1V88.5c0,-.6,-.2,-1.1,-.4,-1.4c-.2,-.3,-.6,-.5,-1.1,-.5c-.5,0,-1,.2,-1.3,.6c-.3,.4,-.5,.9,-.5,1.5v3.6H319V85.9h1.1v1c.2,-.4,.5,-.7,.9,-.9c.3,-.2,.7,-.3,1.2,-.3c.7,0,1.3,.3,1.7,.7c.3,.5,.5,1.1,.5,2Z" class="g7_244"/>
<path d="M329,85.7c1,0,1.7,.3,2.2,.9c.5,.6,.8,1.4,.8,2.5c0,1.1,-.3,1.9,-.8,2.5c-.5,.6,-1.2,.9,-2.2,.9c-.9,0,-1.6,-.3,-2.1,-.9c-.6,-.6,-.8,-1.4,-.8,-2.5c0,-1.1,.2,-1.9,.8,-2.5c.5,-.6,1.2,-.9,2.1,-.9Zm0,.9c-.5,0,-1,.2,-1.3,.7c-.3,.4,-.5,1,-.5,1.8c0,.8,.2,1.4,.5,1.8c.3,.5,.8,.7,1.3,.7c.6,0,1,-.2,1.4,-.7c.3,-.4,.5,-1,.5,-1.8c0,-.8,-.2,-1.4,-.5,-1.8c-.4,-.5,-.8,-.7,-1.4,-.7Z" class="g7_244"/>
<path d="M338.8,87.1c.2,-.5,.5,-.8,.9,-1c.4,-.3,.8,-.4,1.3,-.4c.7,0,1.2,.3,1.6,.7c.3,.5,.5,1.2,.5,2v3.9h-1V88.5c0,-.7,-.2,-1.1,-.4,-1.4c-.2,-.3,-.5,-.5,-1,-.5c-.5,0,-1,.2,-1.3,.6c-.3,.4,-.5,.9,-.5,1.5v3.6h-1V88.5c0,-.7,-.1,-1.1,-.3,-1.4c-.3,-.3,-.6,-.5,-1.1,-.5c-.5,0,-.9,.2,-1.3,.6c-.3,.4,-.4,.9,-.4,1.5v3.6h-1.1V85.9h1.1v1c.2,-.4,.5,-.7,.8,-.9c.4,-.2,.8,-.3,1.2,-.3c.5,0,.9,.1,1.2,.4c.4,.2,.6,.6,.8,1Z" class="g7_244"/>
<path d="M345.2,83.4h1.1v1.3h-1.1Zm0,2.5h1.1v6.4h-1.1Z" class="g7_244"/>
<path d="M353.5,88.6v3.7h-1v-1c-.3,.4,-.6,.7,-.9,.9c-.4,.2,-.8,.3,-1.3,.3c-.7,0,-1.2,-.2,-1.6,-.6c-.4,-.3,-.6,-.8,-.6,-1.5c0,-.7,.2,-1.2,.7,-1.6c.5,-.4,1.2,-.5,2.2,-.5h1.5v-.2c0,-.4,-.2,-.8,-.5,-1.1c-.3,-.2,-.8,-.4,-1.3,-.4c-.4,0,-.8,.1,-1.1,.2c-.4,0,-.7,.2,-1,.4v-1c.4,-.2,.7,-.3,1.1,-.4c.4,0,.7,-.1,1.1,-.1c.9,0,1.6,.3,2.1,.7c.4,.5,.6,1.3,.6,2.2Zm-2.1,.5c-.8,0,-1.4,.1,-1.7,.3c-.4,.2,-.5,.5,-.5,1c0,.4,.1,.7,.3,.9c.3,.2,.6,.3,1,.3c.6,0,1.1,-.2,1.5,-.6c.3,-.4,.5,-1,.5,-1.7v-.2h-1.1Z" class="g7_244"/>
<path d="M355.7,92.3h1.1V83.4h-1.1Z" class="g7_244"/>
<path d="M367.4,86.1v1c-.3,-.2,-.6,-.3,-.9,-.4c-.3,0,-.6,-.1,-.9,-.1c-.7,0,-1.2,.2,-1.6,.7c-.4,.4,-.6,1,-.6,1.8c0,.8,.2,1.4,.6,1.8c.4,.5,.9,.7,1.6,.7c.3,0,.6,0,.9,-.1c.3,-.1,.6,-.2,.9,-.4v1c-.3,.1,-.6,.2,-.9,.3c-.3,.1,-.7,.1,-1,.1c-1,0,-1.8,-.3,-2.4,-.9c-.5,-.6,-.8,-1.5,-.8,-2.5c0,-1,.3,-1.9,.9,-2.5c.5,-.6,1.3,-.9,2.3,-.9c.4,0,.7,.1,1,.1c.3,.1,.6,.2,.9,.3Z" class="g7_244"/>
<path d="M371.8,85.7v0Zm-2.7,4.1V85.9h1.1v3.8c0,.6,.1,1.1,.3,1.4c.3,.3,.6,.5,1.1,.5c.6,0,1,-.2,1.4,-.6c.3,-.3,.5,-.8,.5,-1.5V85.9h1v6.4h-1v-1c-.3,.4,-.6,.7,-.9,.9c-.4,.2,-.8,.3,-1.2,.3c-.8,0,-1.3,-.2,-1.7,-.7c-.4,-.5,-.6,-1.1,-.6,-2Z" class="g7_244"/>
<path d="M380.4,86.9c-.1,-.1,-.2,-.2,-.4,-.2c-.1,0,-.2,0,-.4,0c-.6,0,-1.1,.2,-1.4,.5c-.3,.4,-.5,1,-.5,1.7v3.4h-1V85.9h1v1c.2,-.4,.5,-.7,.9,-.9c.4,-.2,.8,-.3,1.3,-.3q.1,0,.2,0c.1,0,.2,.1,.3,.1v1.1Z" class="g7_244"/>
<path d="M380.8,85.9h1.1l2,5.4l2,-5.4h1.2l-2.5,6.4h-1.4l-2.4,-6.4Z" class="g7_244"/>
<path d="M393,88.5c0,-.6,-.2,-1,-.5,-1.4c-.3,-.3,-.7,-.5,-1.3,-.5c-.6,0,-1,.2,-1.4,.5c-.3,.4,-.5,.8,-.6,1.4H393Zm1,.3v.6h-4.8c0,.7,.2,1.2,.6,1.6c.4,.4,1,.6,1.7,.6c.4,0,.8,-.1,1.2,-.2c.3,-.1,.7,-.2,1.1,-.4v1c-.4,.2,-.8,.3,-1.2,.4c-.4,0,-.8,.1,-1.2,.1c-1,0,-1.8,-.3,-2.4,-.9c-.6,-.6,-.9,-1.4,-.9,-2.4c0,-1.1,.2,-1.9,.8,-2.5c.6,-.7,1.4,-1,2.3,-1c.9,0,1.6,.3,2.1,.9c.5,.5,.7,1.3,.7,2.2Z" class="g7_244"/>
<path d="M398.9,85.9H400l1.3,5l1.3,-5h1.3l1.3,5l1.3,-5h1.1l-1.7,6.4h-1.3L403.2,87l-1.4,5.3h-1.2l-1.7,-6.4Z" class="g7_244"/>
<path d="M409.2,83.4h1v1.3h-1Zm0,2.5h1v6.4h-1Z" class="g7_244"/>
<path d="M413.5,84v1.9h2.2v.8h-2.2v3.5c0,.5,.1,.9,.2,1c.1,.2,.4,.2,.9,.2h1.1v.9h-1.1c-.8,0,-1.4,-.1,-1.7,-.4c-.3,-.3,-.5,-.9,-.5,-1.7V86.7h-.8v-.8h.8V84h1.1Z" class="g7_244"/>
<path d="M422.4,88.4v3.9h-1V88.5c0,-.6,-.2,-1.1,-.4,-1.4c-.2,-.3,-.6,-.5,-1.1,-.5c-.5,0,-1,.2,-1.3,.6c-.4,.4,-.5,.9,-.5,1.5v3.6H417V83.4h1.1v3.5c.2,-.4,.5,-.7,.9,-.9c.3,-.2,.7,-.3,1.2,-.3c.7,0,1.3,.3,1.6,.7c.4,.5,.6,1.1,.6,2Z" class="g7_244"/>
<path d="M429.3,84v1.9h2.2v.8h-2.2v3.5c0,.5,.1,.9,.2,1c.2,.2,.5,.2,.9,.2h1.1v.9h-1.1c-.8,0,-1.4,-.1,-1.7,-.4c-.3,-.3,-.4,-.9,-.4,-1.7V86.7h-.8v-.8h.8V84h1Z" class="g7_244"/>
<path d="M437.9,88.6v3.7h-1v-1c-.3,.4,-.6,.7,-.9,.9c-.4,.2,-.8,.3,-1.3,.3c-.7,0,-1.2,-.2,-1.6,-.6c-.4,-.3,-.6,-.8,-.6,-1.5c0,-.7,.2,-1.2,.7,-1.6c.5,-.4,1.2,-.5,2.2,-.5h1.5v-.2c0,-.4,-.2,-.8,-.5,-1.1c-.3,-.2,-.8,-.4,-1.3,-.4c-.4,0,-.8,.1,-1.1,.2c-.4,0,-.7,.2,-1,.4v-1c.4,-.2,.7,-.3,1.1,-.4c.4,0,.7,-.1,1.1,-.1c.9,0,1.6,.3,2,.7c.5,.5,.7,1.3,.7,2.2Zm-2.1,.5c-.8,0,-1.4,.1,-1.8,.3c-.3,.2,-.4,.5,-.4,1c0,.4,.1,.7,.3,.9c.3,.2,.6,.3,1,.3c.6,0,1.1,-.2,1.4,-.6c.4,-.4,.6,-1,.6,-1.7v-.2h-1.1Z" class="g7_244"/>
<path d="M445.5,88.4v3.9h-1.1V88.5c0,-.6,-.1,-1.1,-.3,-1.4c-.3,-.3,-.6,-.5,-1.1,-.5c-.6,0,-1,.2,-1.4,.6c-.3,.4,-.5,.9,-.5,1.5v3.6h-1V85.9h1v1c.3,-.4,.6,-.7,.9,-.9c.4,-.2,.8,-.3,1.2,-.3c.8,0,1.3,.3,1.7,.7c.4,.5,.6,1.1,.6,2Z" class="g7_244"/>
<path d="M452.9,91.5c0,1.1,-.3,1.9,-.7,2.5c-.5,.5,-1.3,.8,-2.3,.8c-.4,0,-.7,-.1,-1,-.1c-.4,-.1,-.7,-.1,-1,-.3v-1c.3,.2,.6,.3,.9,.4c.3,.1,.6,.1,1,.1c.6,0,1.2,-.2,1.5,-.5c.4,-.4,.5,-1,.5,-1.7v-.5c-.2,.4,-.5,.7,-.8,.8c-.3,.2,-.8,.3,-1.2,.3c-.8,0,-1.5,-.3,-1.9,-.9c-.5,-.6,-.8,-1.4,-.8,-2.4c0,-1,.3,-1.8,.8,-2.4c.4,-.6,1.1,-.9,1.9,-.9c.4,0,.9,.1,1.2,.3c.3,.2,.6,.5,.8,.9v-1h1.1v5.6ZM451.8,89c0,-.7,-.1,-1.3,-.4,-1.8c-.4,-.4,-.8,-.6,-1.4,-.6c-.5,0,-1,.2,-1.3,.6c-.3,.5,-.5,1.1,-.5,1.8c0,.8,.2,1.4,.5,1.8c.3,.4,.8,.6,1.3,.6c.6,0,1,-.2,1.4,-.6c.3,-.4,.4,-1,.4,-1.8Z" class="g7_244"/>
<path d="M459.5,88.5c0,-.6,-.1,-1,-.5,-1.4c-.3,-.3,-.7,-.5,-1.2,-.5c-.6,0,-1.1,.2,-1.4,.5c-.4,.4,-.6,.8,-.6,1.4h3.7Zm1.1,.3v.6h-4.9c.1,.7,.3,1.2,.7,1.6c.4,.4,.9,.6,1.6,.6c.4,0,.8,-.1,1.2,-.2c.4,-.1,.8,-.2,1.1,-.4v1c-.3,.2,-.7,.3,-1.1,.4c-.4,0,-.8,.1,-1.2,.1c-1.1,0,-1.9,-.3,-2.5,-.9c-.6,-.6,-.9,-1.4,-.9,-2.4c0,-1.1,.3,-1.9,.9,-2.5c.5,-.7,1.3,-1,2.3,-1c.8,0,1.5,.3,2,.9c.5,.5,.8,1.3,.8,2.2Z" class="g7_244"/>
<path d="M467.7,88.4v3.9h-1.1V88.5c0,-.6,-.1,-1.1,-.3,-1.4c-.3,-.3,-.6,-.5,-1.1,-.5c-.6,0,-1,.2,-1.4,.6c-.3,.4,-.5,.9,-.5,1.5v3.6h-1V85.9h1v1c.3,-.4,.6,-.7,.9,-.9c.4,-.2,.8,-.3,1.2,-.3c.8,0,1.3,.3,1.7,.7c.4,.5,.6,1.1,.6,2Z" class="g7_244"/>
<path d="M470.8,84v1.9H473v.8h-2.2v3.5c0,.5,.1,.9,.3,1c.1,.2,.4,.2,.8,.2H473v.9h-1.1c-.8,0,-1.3,-.1,-1.7,-.4c-.3,-.3,-.4,-.9,-.4,-1.7V86.7H469v-.8h.8V84h1Z" class="g7_244"/>
<path d="M478.5,86.1v1c-.3,-.2,-.6,-.3,-.9,-.4c-.3,-.1,-.7,-.1,-1,-.1c-.5,0,-.9,.1,-1.2,.2c-.3,.2,-.4,.5,-.4,.8c0,.2,.1,.4,.3,.6c.2,.1,.6,.2,1.1,.4h.4c.7,.2,1.3,.4,1.6,.7c.3,.3,.5,.7,.5,1.2c0,.6,-.3,1.1,-.7,1.5c-.5,.3,-1.2,.5,-2,.5c-.3,0,-.7,0,-1.1,-.1c-.3,-.1,-.7,-.2,-1.2,-.3V91c.4,.2,.8,.3,1.2,.5c.4,.1,.8,.1,1.1,.1c.5,0,.9,-.1,1.2,-.3c.2,-.1,.4,-.4,.4,-.7c0,-.3,-.1,-.5,-.3,-.6c-.2,-.2,-.6,-.3,-1.3,-.5l-.4,-.1c-.6,-.1,-1.1,-.3,-1.4,-.6c-.3,-.3,-.4,-.7,-.4,-1.2c0,-.6,.2,-1.1,.6,-1.4c.5,-.3,1.1,-.5,1.9,-.5c.4,0,.7,.1,1.1,.1c.3,.1,.6,.1,.9,.3Z" class="g7_244"/>
<image clip-path="url(#c1_244)" preserveAspectRatio="none" x="161" y="699" width="169" height="169" xlink:href="img/1.jpg"/>
<image clip-path="url(#c2_244)" preserveAspectRatio="none" x="342" y="699" width="169" height="169" xlink:href="img/2.jpg"/>
<image clip-path="url(#c3_244)" preserveAspectRatio="none" x="525" y="699" width="169" height="169" xlink:href="img/3.jpg"/>
</svg>