<?xml version="1.0" encoding="UTF-8" standalone="no"?>
<!DOCTYPE svg PUBLIC "-//W3C//DTD SVG 1.1//EN"
"http://www.w3.org/Graphics/SVG/1.1/DTD/svg11.dtd">
<svg viewBox="0 0 811 1017" version="1.1" xmlns="http://www.w3.org/2000/svg" xmlns:xlink="http://www.w3.org/1999/xlink">
<defs>
<style type="text/css"><![CDATA[
.g0_224{
fill: #0E0E0E;
}
]]></style>
</defs>
<path d="M185.3,408.3c0,.6,.5,.9,1.1,.9c.4,0,.8,-.1,1.3,-.5c.8,-.7,2,-2.3,2.8,-3.5c.4,-.6,.7,-1.2,1,-1.8c.4,-.7,1.1,-2.1,1.1,-2.9c0,-.2,0,-.4,-.1,-.6c-.1,-.2,-.3,-.3,-.5,-.3c-.1,0,-.3,.1,-.4,.3c-.2,.1,-.2,.3,-.2,.6c0,.4,.2,.9,.2,1.3c0,.6,-.2,1.1,-.4,1.6c-.3,.5,-.5,.9,-.9,1.4h-.1l-.3,-1.9c-.1,-.6,-.3,-1.6,-.4,-2.1c-.2,-.6,-.3,-1.2,-1.3,-1.2c-1.2,0,-1.4,1.8,-1.6,2.6l.3,.1c.1,-.6,.6,-2.3,1,-2.3c.3,0,.5,1,.6,1.2c0,.3,.1,.7,.2,1.4l.6,3.5c-.3,.8,-1.2,1.7,-1.8,2.2c-.2,.2,-.5,.2,-.7,.2c-.1,0,-.2,0,-.2,-.1c-.2,-.3,-.2,-.8,-.7,-.8c-.4,0,-.6,.3,-.6,.7Z" class="g0_224"/>
<path d="M198.1,404.2h7.7v-.8h-7.7Zm0,-3h7.7v-.8h-7.7Z" class="g0_224"/>
<path d="M217.7,400.6c0,-.5,-.4,-1,-1,-1c-.3,0,-.6,.2,-.9,.4c-.3,.2,-.7,.5,-.9,.9c0,-.7,-.4,-1.3,-1,-1.3c-1.2,0,-2.1,1.2,-2.5,2l.2,.1c.4,-.5,1.1,-1.7,2,-1.7c.3,0,.4,.6,.4,1c0,.3,-.1,.7,-.2,1.2l-.3,1.1c-.2,.6,-.4,1.4,-.8,1.8c-.1,.3,-.4,.7,-.7,.7c-.5,0,-.8,-.1,-.7,-.5c.1,-.3,0,-.8,-.4,-.8c-.4,0,-.6,.4,-.6,.8c0,.6,.5,.9,1,.9c1.1,0,1.8,-.7,2.2,-1.4c.1,.8,.5,1.4,1.3,1.4c1.2,0,2.1,-1.1,2.5,-1.8l-.2,-.2c-.5,.7,-1.2,1.7,-2,1.7c-.4,0,-.6,-.6,-.6,-1.2c0,-.4,0,-.8,.2,-1.4l.1,-.7c.1,-.6,.4,-1.2,.7,-1.6c.1,-.3,.5,-1,.9,-1c.4,0,.4,.3,.4,.7c-.1,.4,.1,.5,.4,.5c.4,0,.5,-.2,.5,-.6Z" class="g0_224"/>
<path d="M221.1,395.3c-.7,0,-1.1,-.5,-1.1,-1.2c0,-.7,.4,-1.6,1.3,-1.6c1.2,0,1.3,1,1.3,1.9c0,.9,-.2,1.5,-.7,2.1c-.2,.4,-.6,.9,-1.1,1.4c-.5,.5,-1.1,1.1,-1.8,1.7v.4h4.5l.4,-2.1h-.3c-.1,.2,-.2,.4,-.3,.5c-.1,.4,-.4,.6,-1,.6h-2.1c.5,-.4,1,-.8,1.4,-1.1c.7,-.7,1.5,-1.4,2,-2.3c.1,-.4,.2,-.8,.2,-1.2c0,-.3,0,-.6,-.1,-.8c-.4,-.8,-1.1,-1.3,-2.2,-1.3c-.7,0,-1.4,.3,-1.8,.6c-.3,.3,-.7,.8,-.7,1.5c0,.4,.2,.8,.4,1c.2,.2,.5,.4,.9,.4c.4,0,.7,-.2,.8,-.5Z" class="g0_224"/>
<path d="M232.3,401.9H229v1h3.3v3.2h1v-3.2h3.2v-1h-3.2v-3.3h-1v3.3Z" class="g0_224"/>
<path d="M244.2,406c-1,0,-1.7,-.9,-1.7,-1.9c0,-.7,.4,-1.3,1.1,-1.3c-.1,-.4,-.5,-.6,-1,-.6c-.2,0,-.4,0,-.6,.1c-.6,.2,-1,.8,-1,1.6c0,.3,.1,.6,.3,.9c.5,.9,1.6,1.5,3,1.5c1.1,0,1.9,-.4,2.5,-.9c.6,-.4,1,-1.1,1,-2.1c0,-.3,-.1,-.6,-.2,-.9c-.3,-.9,-1.1,-1.5,-2.1,-1.8v-.1c.6,-.1,1.1,-.5,1.4,-.9c.3,-.3,.6,-.9,.6,-1.5c0,-.4,-.1,-.7,-.2,-1c-.5,-1,-1.6,-1.4,-3,-1.4c-.8,0,-1.6,.1,-2.1,.5c-.4,.3,-.8,.7,-.8,1.3c0,.5,.2,.8,.4,1.1c.2,.2,.6,.4,1,.4c.2,0,.4,-.1,.6,-.2c.2,0,.3,-.2,.3,-.3c-.5,0,-.9,-.5,-.9,-1.1c0,-.8,.6,-1.5,1.5,-1.5c1.1,0,1.6,1,1.6,2.2c0,1.2,-.4,2.4,-1.5,2.4c-.2,0,-.5,-.2,-.8,-.2c-.3,0,-.7,.1,-.7,.4c0,.3,.4,.5,.7,.5c.4,0,.7,-.2,1,-.4c1.2,0,1.5,1.1,1.5,2.5c0,1.4,-.5,2.7,-1.9,2.7Z" class="g0_224"/>
<path d="M255.9,400.6c0,-.5,-.5,-1,-1,-1c-.3,0,-.7,.2,-1,.4c-.3,.2,-.6,.5,-.8,.9c0,-.7,-.4,-1.3,-1.1,-1.3c-1.1,0,-2.1,1.2,-2.4,2l.2,.1c.4,-.5,1.1,-1.7,2,-1.7c.2,0,.4,.6,.4,1c0,.3,-.1,.7,-.2,1.2l-.4,1.1c-.2,.6,-.4,1.4,-.7,1.8c-.2,.3,-.4,.7,-.8,.7c-.4,0,-.7,-.1,-.6,-.5c.1,-.3,0,-.8,-.4,-.8c-.5,0,-.7,.4,-.7,.8c0,.6,.5,.9,1.1,.9c1,0,1.7,-.7,2.1,-1.4h.1c.1,.8,.5,1.4,1.3,1.4c1.2,0,2,-1.1,2.4,-1.8l-.1,-.2c-.5,.7,-1.2,1.7,-2,1.7c-.5,0,-.7,-.6,-.7,-1.2c0,-.4,.1,-.8,.2,-1.4l.2,-.7c.1,-.6,.4,-1.2,.6,-1.6c.2,-.3,.6,-1,1,-1c.4,0,.3,.3,.3,.7c0,.4,.1,.5,.5,.5c.3,0,.5,-.2,.5,-.6Z" class="g0_224"/>
<path d="M260.8,402.7h7.7v-.8h-7.7Z" class="g0_224"/>
<path d="M274.7,396.4v.2c.4,0,1.1,.1,1.3,.2c.5,.2,.4,.4,.5,1v6.5c0,.4,-.1,.6,-.1,.8c-.1,.7,-.9,.8,-1.6,.8v.2h4.7v-.2c-.6,0,-1.3,0,-1.5,-.3c-.2,-.3,-.2,-.8,-.2,-1.3v-8.6c-.8,.4,-2.2,.7,-3.1,.7Z" class="g0_224"/>
<path d="M285.3,402.7h7.6v-.8h-7.6Z" class="g0_224"/>
<path d="M300.9,386.3v.2c.5,0,1.1,.1,1.4,.2c.4,.2,.4,.4,.4,1v6.5c0,.4,0,.6,0,.8c-.1,.7,-.9,.8,-1.7,.8v.2h4.7v-.2c-.5,0,-1.2,0,-1.4,-.3c-.3,-.3,-.3,-.8,-.3,-1.3v-8.6c-.8,.4,-2.1,.7,-3.1,.7Z" class="g0_224"/>
<path d="M299,402.7h8.3v-.8H299Z" class="g0_224"/>
<path d="M306.4,410.8c0,-.5,-.5,-.9,-1,-.9c-.3,0,-.6,.1,-1,.3c-.3,.2,-.6,.5,-.8,.9c0,-.7,-.4,-1.2,-1.1,-1.2c-1.1,0,-2.1,1.2,-2.4,1.9l.2,.2c.4,-.5,1.1,-1.8,2,-1.8c.3,0,.4,.6,.4,1c0,.3,-.1,.7,-.2,1.2l-.4,1.2c-.1,.5,-.4,1.3,-.7,1.7c-.1,.3,-.4,.7,-.8,.7c-.4,0,-.7,-.1,-.6,-.5c.1,-.3,0,-.7,-.4,-.7c-.5,0,-.6,.3,-.6,.7c0,.6,.4,1,1,1c1,0,1.8,-.8,2.1,-1.5h.1c.1,.9,.5,1.5,1.3,1.5c1.2,0,2,-1.2,2.5,-1.9l-.2,-.1c-.5,.6,-1.2,1.6,-2,1.6c-.4,0,-.6,-.6,-.6,-1.2c0,-.3,0,-.8,.1,-1.3l.2,-.8c.1,-.5,.4,-1.2,.6,-1.6c.2,-.3,.6,-.9,1,-.9c.4,0,.4,.3,.3,.6c0,.4,.2,.6,.5,.6c.4,0,.5,-.3,.5,-.7Z" class="g0_224"/>
<path d="M184.6,471.9c0,.6,.5,1,1.1,1c.5,0,.8,-.2,1.3,-.6c.8,-.7,2.1,-2.2,2.8,-3.4c.4,-.7,.7,-1.3,1,-1.8c.4,-.8,1.2,-2.2,1.2,-3c0,-.2,-.1,-.4,-.2,-.6c-.1,-.2,-.3,-.2,-.4,-.2c-.2,0,-.3,.1,-.5,.2c-.1,.1,-.2,.3,-.2,.6c0,.5,.2,.9,.2,1.3c0,.6,-.2,1.2,-.4,1.6c-.3,.5,-.5,.9,-.8,1.5h-.1l-.4,-2c-.1,-.5,-.3,-1.6,-.4,-2c-.2,-.7,-.3,-1.2,-1.3,-1.2c-1.2,0,-1.3,1.7,-1.6,2.5l.3,.1c.1,-.5,.6,-2.3,1.1,-2.3c.3,0,.4,1,.5,1.3c.1,.3,.1,.7,.3,1.4l.5,3.5c-.3,.8,-1.1,1.6,-1.7,2.1c-.3,.2,-.6,.3,-.7,.3c-.2,0,-.2,-.1,-.3,-.2c-.2,-.2,-.2,-.7,-.7,-.7c-.4,0,-.6,.2,-.6,.6Z" class="g0_224"/>
<path d="M197.5,467.9h7.6V467h-7.6Zm0,-3h7.6V464h-7.6Z" class="g0_224"/>
<path d="M213.6,450v.2c.4,0,1.1,0,1.3,.1c.5,.3,.4,.4,.5,1.1v6.5c0,.3,0,.6,-.1,.8c-.1,.6,-.9,.7,-1.6,.8v.2h4.7v-.2c-.5,-.1,-1.3,-.1,-1.5,-.4c-.2,-.3,-.2,-.7,-.2,-1.3v-8.6c-.8,.4,-2.1,.7,-3.1,.8Z" class="g0_224"/>
<path d="M211.6,466.3H220v-.8h-8.4Z" class="g0_224"/>
<path d="M219,474.5c0,-.6,-.4,-1,-.9,-1c-.4,0,-.7,.1,-1,.4c-.3,.2,-.6,.5,-.8,.8c0,-.6,-.5,-1.2,-1.1,-1.2c-1.1,0,-2.1,1.2,-2.4,2l.2,.1c.3,-.5,1.1,-1.7,1.9,-1.7c.3,0,.4,.5,.4,1c0,.3,0,.6,-.2,1.1l-.3,1.2c-.2,.6,-.4,1.4,-.7,1.8c-.2,.2,-.5,.7,-.8,.7c-.5,0,-.8,-.1,-.7,-.5c.1,-.4,.1,-.8,-.4,-.8c-.4,0,-.6,.3,-.6,.8c0,.5,.5,.9,1.1,.9c1,0,1.7,-.8,2.1,-1.4c.1,.8,.5,1.4,1.4,1.4c1.1,0,2,-1.1,2.4,-1.8l-.2,-.2c-.5,.6,-1.2,1.7,-2,1.7c-.4,0,-.6,-.7,-.6,-1.3c0,-.3,.1,-.8,.2,-1.3l.2,-.7c.1,-.6,.3,-1.3,.6,-1.6c.2,-.3,.6,-1,.9,-1c.4,0,.4,.3,.4,.6c0,.4,.1,.6,.4,.6c.4,0,.5,-.3,.5,-.6Z" class="g0_224"/>
</svg>