<?xml version="1.0" encoding="UTF-8" standalone="no"?>
<!DOCTYPE svg PUBLIC "-//W3C//DTD SVG 1.1//EN"
"http://www.w3.org/Graphics/SVG/1.1/DTD/svg11.dtd">
<svg viewBox="0 0 811 1017" version="1.1" xmlns="http://www.w3.org/2000/svg" xmlns:xlink="http://www.w3.org/1999/xlink">
<defs>
<clipPath id="c0_381"><path d="M157,319.6V209.8H267V319.6Z"/></clipPath>
<clipPath id="c1_381"><path d="M272.2,319.6V209.8h110V319.6Z"/></clipPath>
<clipPath id="c2_381"><path d="M386.8,319.6V209.8H496.7V319.6Z"/></clipPath>
<clipPath id="c3_381"><path d="M501.9,319.6V209.8H611.8V319.6Z"/></clipPath>
<clipPath id="c4_381"><path d="M157,441.2V331.4H267V441.2Z"/></clipPath>
<clipPath id="c5_381"><path d="M272.2,441.2V331.4h110V441.2Z"/></clipPath>
<clipPath id="c6_381"><path d="M386.8,441.2V331.4H496.7V441.2Z"/></clipPath>
<clipPath id="c7_381"><path d="M501.9,441.2V331.4H611.8V441.2Z"/></clipPath>
<clipPath id="c8_381"><path d="M157,565.8V455.9H267V565.8Z"/></clipPath>
<clipPath id="c9_381"><path d="M272.2,565.8V455.9h110V565.8Z"/></clipPath>
<clipPath id="ca_381"><path d="M386.8,565.8V455.9H496.7V565.8Z"/></clipPath>
<clipPath id="cb_381"><path d="M501.9,565.8V455.9H611.8V565.8Z"/></clipPath>
<clipPath id="cc_381"><path d="M157,688V578.1H267V688Z"/></clipPath>
<clipPath id="cd_381"><path d="M272.2,688V578.1h110V688Z"/></clipPath>
<clipPath id="ce_381"><path d="M386.8,688V578.1H496.7V688Z"/></clipPath>
<clipPath id="cf_381"><path d="M501.9,688V578.1H611.8V688Z"/></clipPath>
</defs>
<image clip-path="url(#c0_381)" preserveAspectRatio="none" x="157" y="210" width="110" height="110" xlink:href="img/1.jpg"/>
<image clip-path="url(#c1_381)" preserveAspectRatio="none" x="272" y="210" width="110" height="110" xlink:href="img/2.jpg"/>
<image clip-path="url(#c2_381)" preserveAspectRatio="none" x="387" y="210" width="110" height="110" xlink:href="img/3.jpg"/>
<image clip-path="url(#c3_381)" preserveAspectRatio="none" x="502" y="210" width="110" height="110" xlink:href="img/4.jpg"/>
<image clip-path="url(#c4_381)" preserveAspectRatio="none" x="157" y="331" width="110" height="110" xlink:href="img/5.jpg"/>
<image clip-path="url(#c5_381)" preserveAspectRatio="none" x="272" y="331" width="110" height="110" xlink:href="img/6.jpg"/>
<image clip-path="url(#c6_381)" preserveAspectRatio="none" x="387" y="331" width="110" height="110" xlink:href="img/7.jpg"/>
<image clip-path="url(#c7_381)" preserveAspectRatio="none" x="502" y="331" width="110" height="110" xlink:href="img/8.jpg"/>
<image clip-path="url(#c8_381)" preserveAspectRatio="none" x="157" y="456" width="110" height="110" xlink:href="img/9.jpg"/>
<image clip-path="url(#c9_381)" preserveAspectRatio="none" x="272" y="456" width="110" height="110" xlink:href="img/10.jpg"/>
<image clip-path="url(#ca_381)" preserveAspectRatio="none" x="387" y="456" width="110" height="110" xlink:href="img/11.jpg"/>
<image clip-path="url(#cb_381)" preserveAspectRatio="none" x="502" y="456" width="110" height="110" xlink:href="img/12.jpg"/>
<image clip-path="url(#cc_381)" preserveAspectRatio="none" x="157" y="578" width="110" height="110" xlink:href="img/13.jpg"/>
<image clip-path="url(#cd_381)" preserveAspectRatio="none" x="272" y="578" width="110" height="110" xlink:href="img/14.jpg"/>
<image clip-path="url(#ce_381)" preserveAspectRatio="none" x="387" y="578" width="110" height="110" xlink:href="img/15.jpg"/>
<image clip-path="url(#cf_381)" preserveAspectRatio="none" x="502" y="578" width="110" height="110" xlink:href="img/16.jpg"/>
</svg>