<?xml version="1.0" encoding="UTF-8" standalone="no"?>
<!DOCTYPE svg PUBLIC "-//W3C//DTD SVG 1.1//EN"
"http://www.w3.org/Graphics/SVG/1.1/DTD/svg11.dtd">
<svg viewBox="0 0 811 1017" version="1.1" xmlns="http://www.w3.org/2000/svg" xmlns:xlink="http://www.w3.org/1999/xlink">
<defs>
<clipPath id="c0_117"><path d="M157.2,619.8V385.1H391.9V619.8Z"/></clipPath>
<clipPath id="c1_117"><path d="M420.4,619.8V385.1H655.1V619.8Z"/></clipPath>
<style type="text/css"><![CDATA[
.g0_117{
fill: #0E0E0E;
}
]]></style>
</defs>
<path d="M563.8,83.1h-3.7c-1,0,-1.6,1.2,-1.7,1.4h.2c0,-.1,.4,-.6,1,-.6h.5l-.7,2.2c-.3,.7,-1.2,.8,-1.2,1.5v.1c0,.2,.2,.3,.4,.3c.5,0,.8,-.3,1.4,-1.8l.8,-2.3h1.1l-.6,2.3c0,.3,-.1,.6,-.1,.8v.1c0,.4,.3,.9,.9,.9c.2,0,.5,-.1,.5,-.5c0,-.7,-.6,-.6,-.6,-1.2c0,-.1,0,-.2,0,-.3l.5,-2.1h1.2l.1,-.8Z" class="g0_117"/>
<path d="M557.7,90.3h7v-.8h-7Z" class="g0_117"/>
<path d="M560.8,94.2c-.7,0,-1.1,-.5,-1.1,-1.2c0,-.7,.4,-1.6,1.3,-1.6c1.2,0,1.4,1,1.4,1.9c0,.9,-.3,1.5,-.8,2.1c-.2,.4,-.6,.9,-1.1,1.4c-.5,.5,-1.1,1.1,-1.8,1.7v.4h4.5l.4,-2.1h-.3c-.1,.2,-.2,.4,-.2,.5c-.2,.4,-.5,.6,-1,.6H560l-.1,-.1c.5,-.3,1,-.7,1.4,-1c.8,-.7,1.5,-1.4,2,-2.3c.1,-.4,.2,-.8,.2,-1.2c0,-.3,0,-.6,-.1,-.8c-.4,-.8,-1.1,-1.3,-2.2,-1.3c-.7,0,-1.3,.3,-1.7,.6c-.4,.3,-.7,.8,-.7,1.4c0,.5,.1,.9,.3,1.1c.2,.2,.5,.4,.9,.4c.4,0,.7,-.2,.8,-.5Z" class="g0_117"/>
<path d="M381.3,135.1c-1.4,0,-1.9,-1.5,-1.9,-3.1c0,-1.4,.6,-2.9,1.7,-2.9c.8,0,.9,.5,1.1,.8c.1,.3,.3,.5,.7,.5c.3,0,.6,-.2,.6,-.5c0,-.4,-.3,-.7,-.6,-.8c-.4,-.2,-.9,-.3,-1.5,-.3c-1.1,0,-1.9,.4,-2.5,.9c-.5,.6,-.9,1.4,-.9,2.5c0,.5,.1,.9,.2,1.3c.4,1.1,1.3,1.9,2.7,1.9c1.4,0,2.1,-.4,2.6,-1.1l-.1,-.1c-.5,.4,-1.3,.9,-2.1,.9Z" class="g0_117"/>
<path d="M387.8,129.1c1.3,0,2,1.6,2,3c0,1.7,-.8,3.1,-2,3.1c-1.6,0,-2,-1.6,-2,-3.1c0,-1.4,.7,-3,2,-3Zm0,-.3c-.5,0,-.9,.1,-1.3,.3c-1.1,.4,-2.1,1.4,-2.1,3c0,.5,.1,.9,.3,1.3c.5,1.1,1.2,2,3.1,2c1.1,0,1.8,-.4,2.3,-.9c.6,-.6,1.1,-1.3,1.1,-2.4c0,-.5,-.1,-.9,-.3,-1.3c-.5,-1.1,-1.6,-2,-3.1,-2Z" class="g0_117"/>
<path d="M394.4,129.1c.8,0,1.2,.9,1.5,1.6h.2v-1.8h-.2l-.3,.3c-.2,-.1,-.4,-.2,-.6,-.3c-.2,0,-.4,-.1,-.7,-.1c-.5,0,-.9,.2,-1.2,.5c-.3,.3,-.5,.8,-.5,1.4c0,.7,.4,1.1,.9,1.5c.5,.4,2.1,1.1,2.1,1.8c0,.6,-.3,1.2,-1.1,1.2c-.8,0,-1.5,-.8,-1.8,-2h-.2v2.1h.2l.3,-.4c.4,.3,1,.5,1.6,.5c.6,0,1.1,-.1,1.5,-.4c.4,-.4,.5,-.8,.5,-1.4c0,-1,-1.1,-1.6,-1.9,-2.1c-.4,-.3,-1.2,-.6,-1.2,-1.4c0,-.5,.3,-1,.9,-1Z" class="g0_117"/>
<path d="M402.3,124.7c-2.1,1.3,-3.6,3.8,-3.6,6.8c0,2.8,1.5,5.5,3.6,6.8l.2,-.2c-2,-1.6,-2.6,-3.4,-2.6,-6.7c0,-3.3,.7,-5,2.6,-6.5l-.2,-.2Z" class="g0_117"/>
<path d="M410.7,129.8c0,-.6,-.4,-1,-1,-1c-.3,0,-.6,.2,-.9,.4c-.3,.2,-.7,.5,-.9,.9c0,-.7,-.4,-1.3,-1,-1.3c-1.2,0,-2.1,1.2,-2.5,2l.2,.1c.4,-.5,1.1,-1.7,2,-1.7c.3,0,.4,.5,.4,1c0,.3,-.1,.6,-.2,1.1l-.4,1.2c-.1,.6,-.4,1.4,-.7,1.8c-.1,.2,-.4,.7,-.8,.7c-.4,0,-.7,-.1,-.6,-.5c.1,-.3,0,-.8,-.4,-.8c-.4,0,-.6,.3,-.6,.8c0,.6,.5,.9,1,.9c1,0,1.8,-.7,2.2,-1.4c.1,.8,.5,1.4,1.3,1.4c1.2,0,2,-1.1,2.5,-1.8l-.2,-.2c-.5,.7,-1.2,1.7,-2,1.7c-.4,0,-.6,-.6,-.6,-1.2c0,-.4,0,-.8,.1,-1.4l.2,-.7c.1,-.6,.4,-1.2,.7,-1.6c.1,-.3,.5,-1,.9,-1c.4,0,.4,.3,.3,.6c0,.4,.2,.6,.5,.6c.4,0,.5,-.3,.5,-.6Z" class="g0_117"/>
<path d="M412,124.7l-.1,.2c1.9,1.5,2.5,3.2,2.5,6.5c0,3.3,-.6,5.1,-2.5,6.7l.1,.2c2.1,-1.3,3.7,-4,3.7,-6.8c0,-3,-1.5,-5.5,-3.7,-6.8Z" class="g0_117"/>
<path d="M421.9,133.4h7.6v-.8h-7.6Zm0,-3h7.6v-.8h-7.6Z" class="g0_117"/>
<path d="M437,129.1c.7,0,1.1,.9,1.4,1.6h.2v-1.8h-.1l-.4,.3c-.1,-.1,-.3,-.2,-.6,-.3c-.2,0,-.4,-.1,-.6,-.1c-.6,0,-1,.2,-1.3,.5c-.3,.3,-.5,.8,-.5,1.4c0,.7,.4,1.1,.9,1.5c.5,.4,2.1,1.1,2.1,1.8c0,.6,-.3,1.2,-1.1,1.2c-.8,0,-1.5,-.8,-1.8,-2H435v2.1h.2l.3,-.4c.4,.3,1,.5,1.7,.5c.5,0,1,-.1,1.4,-.4c.4,-.4,.5,-.8,.5,-1.4c0,-1,-1,-1.6,-1.9,-2.1c-.4,-.3,-1.1,-.6,-1.1,-1.4c0,-.5,.2,-1,.9,-1Z" class="g0_117"/>
<path d="M441.8,127.1c.4,0,.8,-.3,.8,-.7c0,-.4,-.4,-.8,-.8,-.8c-.3,0,-.7,.4,-.7,.8c0,.4,.3,.7,.7,.7Zm.7,6.5v-4.8l-2.4,.5v.2c.4,0,.7,.1,.8,.3c.3,.3,.4,.6,.4,2.1v1.8c0,.3,0,.5,-.1,.7c0,.6,-.4,.7,-1.1,.7v.2h3.5v-.2c-.2,0,-.5,0,-.6,0c-.5,-.2,-.5,-.7,-.5,-1.5Z" class="g0_117"/>
<path d="M446.4,130h-.1l-.1,-1.2l-2,.5v.2c.2,0,.5,.1,.7,.2c.3,.3,.4,.5,.4,2v2c0,.4,0,.6,-.1,.8c0,.5,-.4,.6,-.9,.6v.2h3.1v-.2c-.2,0,-.4,0,-.5,0c-.6,-.2,-.5,-.7,-.5,-1.4v-2.1c0,-.6,0,-.9,.2,-1.3c.3,-.5,1.1,-1.1,1.9,-1.1c1.2,0,1.2,1.4,1.2,2.7v1.8c0,.4,0,.6,0,.8c-.1,.5,-.4,.6,-1,.6v.2h3.1v-.2c-.2,0,-.4,0,-.5,0c-.5,-.2,-.5,-.8,-.5,-1.4v-2.3c0,-.8,0,-1.4,-.3,-1.9c-.4,-.4,-1,-.7,-1.8,-.7c-1,0,-1.8,.6,-2.3,1.2Z" class="g0_117"/>
<path d="M460.6,144.3c-2.1,-2.5,-2.7,-8.8,-2.7,-12.9c0,-4.1,.6,-10.4,2.7,-12.9l-.2,-.5c-1.6,1.8,-3.9,6,-3.9,13.4c0,7.4,2.2,11.5,3.9,13.3l.2,-.4Z" class="g0_117"/>
<path d="M468.6,129.8c0,-.6,-.5,-1,-1,-1c-.3,0,-.7,.2,-1,.4c-.3,.2,-.6,.5,-.8,.9c0,-.7,-.4,-1.3,-1.1,-1.3c-1.1,0,-2.1,1.2,-2.4,2l.2,.1c.4,-.5,1.1,-1.7,2,-1.7c.2,0,.4,.5,.4,1c0,.3,-.1,.6,-.2,1.1l-.4,1.2c-.2,.6,-.4,1.4,-.7,1.8c-.2,.2,-.4,.7,-.8,.7c-.4,0,-.7,-.1,-.6,-.5c.1,-.3,0,-.8,-.4,-.8c-.5,0,-.7,.3,-.7,.8c0,.6,.5,.9,1.1,.9c1,0,1.7,-.7,2.1,-1.4h.1c.1,.8,.5,1.4,1.3,1.4c1.2,0,2,-1.1,2.4,-1.8l-.1,-.2c-.5,.7,-1.2,1.7,-2,1.7c-.5,0,-.7,-.6,-.7,-1.2c0,-.4,.1,-.8,.2,-1.4l.2,-.7c.1,-.6,.4,-1.2,.6,-1.6c.2,-.3,.6,-1,1,-1c.4,0,.3,.3,.3,.6c0,.4,.1,.6,.5,.6c.3,0,.5,-.3,.5,-.6Z" class="g0_117"/>
<path d="M476.3,131.1h-3.2v.9h3.2v3.3h1V132h3.3v-.9h-3.3v-3.3h-1v3.3Z" class="g0_117"/>
<path d="M494.5,118.7h-5.1c-1.3,0,-2.2,1.6,-2.3,1.9h.2c.1,-.1,.6,-.8,1.4,-.8h.7l-1,3.1c-.3,1,-1.5,1,-1.5,2v.1c0,.2,.2,.4,.5,.4c.6,0,1.1,-.4,1.8,-2.5l1.1,-3.1h1.5l-.7,3.1c-.1,.5,-.2,.8,-.2,1.1v.2c0,.6,.5,1.2,1.2,1.2c.3,0,.7,-.1,.7,-.6v-.1c0,-.9,-.9,-.7,-.9,-1.6c0,-.1,.1,-.2,.1,-.4l.7,-2.9h1.6l.2,-1.1Z" class="g0_117"/>
<path d="M486.1,131.9h9.6v-.8h-9.6Z" class="g0_117"/>
<path d="M490.3,139.2c-.9,0,-1.4,-.7,-1.4,-1.6c0,-1.1,.6,-2.3,1.8,-2.3c1.6,0,1.8,1.4,1.8,2.6c0,1.3,-.4,2.1,-1,3c-.4,.5,-.9,1.1,-1.5,1.8c-.7,.7,-1.5,1.5,-2.6,2.4v.4h6.3l.5,-2.8h-.4c-.1,.3,-.2,.6,-.3,.7c-.3,.6,-.7,.8,-1.4,.8h-2.9c.6,-.5,1.3,-1,1.9,-1.5c1,-.9,2.1,-1.9,2.6,-3.1c.3,-.5,.4,-1.1,.4,-1.6c0,-.5,-.1,-.8,-.2,-1.2c-.5,-1,-1.5,-1.7,-3,-1.7c-1,0,-1.8,.3,-2.4,.8c-.5,.4,-.9,1.1,-.9,2c0,.6,.2,1.1,.5,1.4c.2,.3,.6,.6,1.2,.6c.6,0,1,-.3,1,-.7Z" class="g0_117"/>
<path d="M498.2,144.3l.2,.4c1.7,-1.8,3.9,-5.9,3.9,-13.3c0,-7.4,-2.2,-11.6,-3.9,-13.4l-.2,.5c2.2,2.5,2.8,8.8,2.8,12.9c0,4.1,-.6,10.4,-2.8,12.9Z" class="g0_117"/>
<image clip-path="url(#c0_117)" preserveAspectRatio="none" x="157" y="385" width="235" height="235" xlink:href="img/1.jpg"/>
<image clip-path="url(#c1_117)" preserveAspectRatio="none" x="420" y="385" width="235" height="235" xlink:href="img/2.jpg"/>
</svg>