<?xml version="1.0" encoding="UTF-8" standalone="no"?>
<!DOCTYPE svg PUBLIC "-//W3C//DTD SVG 1.1//EN"
"http://www.w3.org/Graphics/SVG/1.1/DTD/svg11.dtd">
<svg viewBox="0 0 811 1017" version="1.1" xmlns="http://www.w3.org/2000/svg" xmlns:xlink="http://www.w3.org/1999/xlink">
<defs>
<clipPath id="c0_61"><path d="M156.1,499V169h440V499Z"/></clipPath>
<style type="text/css"><![CDATA[
.g0_61{
fill: #0E0E0E;
}
]]></style>
</defs>
<path d="M295.9,92.3h-1.1V83.7h1.1Zm-1.8,.6h2.5v-4h1.1l2.9,4h3l-3.2,-4.2c1.3,-.4,2,-1.4,2,-2.7c0,-2.1,-1.6,-2.9,-3.5,-2.9h-4.8v9.8Zm8.3,-.6h-1.5l-2.4,-3.4c.4,0,.8,0,1.3,-.1l2.6,3.5Zm-2.7,-4.1c-.3,0,-.5,0,-.8,0h-2.3V83.7H299c.2,0,.5,.1,.7,.2v4.3Zm.7,-4.3c.8,.4,1.3,1.1,1.3,2.1c0,.9,-.5,1.8,-1.3,2.1V83.9Z" class="g0_61"/>
<image clip-path="url(#c0_61)" preserveAspectRatio="none" x="156" y="169" width="440" height="330" xlink:href="img/1.jpg"/>
<path d="M363.1,677.4c-.3,0,-.4,-.2,-.4,-.4c-.1,-.3,-.2,-.6,-.5,-.6c-.3,0,-.4,.2,-.4,.5c0,.6,.7,.8,1.2,.8c.9,0,1,-.2,1.4,-.7c.2,-.3,.4,-.7,.5,-1.2c.2,-.6,.6,-1.2,.7,-2.1l1.4,-5.1h1.2l.1,-.3h-1.2c.3,-1.2,.8,-3.2,1.1,-3.8c.1,-.2,.4,-.5,.8,-.5c.3,0,.4,.2,.5,.5c0,.2,.1,.5,.5,.5c.2,0,.3,-.2,.3,-.4c0,-.6,-.7,-.9,-1.2,-.9c-1.9,0,-2.6,3,-3,4.6h-1.2l-.1,.3H366l-1.9,7.4c-.1,.3,-.4,1.4,-1,1.4Z" class="g0_61"/>
<path d="M376.1,664c-2.2,1.4,-3.7,3.8,-3.7,6.8c0,2.8,1.6,5.6,3.6,6.8l.2,-.2c-1.9,-1.6,-2.5,-3.4,-2.5,-6.6c0,-3.3,.6,-5,2.5,-6.6l-.1,-.2Z" class="g0_61"/>
<path d="M384.5,669.1c0,-.5,-.5,-1,-1,-1c-.3,0,-.7,.2,-1,.4c-.3,.2,-.6,.5,-.8,.9c0,-.7,-.4,-1.3,-1.1,-1.3c-1.1,0,-2.1,1.2,-2.4,2l.2,.1c.3,-.5,1.1,-1.7,2,-1.7c.2,0,.4,.6,.4,1c0,.3,-.1,.7,-.3,1.2l-.3,1.1c-.2,.6,-.4,1.4,-.7,1.8c-.2,.3,-.4,.7,-.8,.7c-.4,0,-.7,-.1,-.6,-.5c0,-.3,0,-.8,-.4,-.8c-.5,0,-.7,.4,-.7,.8c0,.6,.5,.9,1.1,.9c1,0,1.7,-.7,2.1,-1.4c.1,.8,.6,1.4,1.4,1.4c1.2,0,2,-1.1,2.4,-1.8l-.2,-.2c-.4,.7,-1.1,1.7,-1.9,1.7c-.5,0,-.7,-.6,-.7,-1.2c0,-.4,.1,-.8,.2,-1.4l.2,-.7c.1,-.6,.3,-1.2,.6,-1.6c.2,-.3,.6,-1,.9,-1c.5,0,.4,.3,.4,.7c0,.4,.1,.5,.5,.5c.3,0,.5,-.2,.5,-.6Z" class="g0_61"/>
<path d="M385.8,664l-.2,.2c1.9,1.6,2.6,3.3,2.6,6.6c0,3.2,-.6,5,-2.6,6.6l.2,.2c2.1,-1.2,3.6,-4,3.6,-6.8c0,-3,-1.5,-5.4,-3.6,-6.8Z" class="g0_61"/>
<path d="M395.6,672.7h7.7v-.8h-7.7Zm0,-3h7.7v-.8h-7.7Z" class="g0_61"/>
<path d="M412.5,668.1c-.4,0,-.8,.2,-1.3,.5c-.4,.3,-.8,.7,-1.2,1.2c-.7,.7,-1.3,1.9,-1.3,3.2c0,1,.4,1.7,1.3,1.7c1.3,0,1.8,-.8,2.2,-1.5c-.2,.9,0,1.5,.6,1.5c.4,0,.7,-.1,1.1,-.4c.4,-.4,.8,-.8,1.1,-1.4l-.2,-.1c-.2,.4,-.9,1.3,-1.3,1.3c-.2,0,-.3,-.3,-.3,-.6c0,-.9,.6,-2.4,.9,-3.4l.7,-1.8h-.9l-.3,.6c-.2,-.4,-.5,-.8,-1.1,-.8Zm.2,.3c.7,0,.5,1.3,.4,1.9c-.1,.3,-.2,.6,-.3,1c-.4,1.2,-1.4,3.1,-2.2,3.1c-.7,0,-.8,-.9,-.8,-1.5c0,-.4,0,-.8,.2,-1.3c.3,-1,1.4,-3.2,2.7,-3.2Z" class="g0_61"/>
<path d="M423.1,669.1c0,-.5,-.4,-1,-1,-1c-.3,0,-.6,.2,-.9,.4c-.3,.2,-.6,.5,-.9,.9c0,-.7,-.4,-1.3,-1,-1.3c-1.2,0,-2.1,1.2,-2.5,2l.2,.1c.4,-.5,1.1,-1.7,2,-1.7c.3,0,.4,.6,.4,1c0,.3,-.1,.7,-.2,1.2l-.3,1.1c-.2,.6,-.4,1.4,-.8,1.8c-.1,.3,-.4,.7,-.7,.7c-.5,0,-.8,-.1,-.7,-.5c.1,-.3,0,-.8,-.4,-.8c-.4,0,-.6,.4,-.6,.8c0,.6,.5,.9,1,.9c1.1,0,1.8,-.7,2.2,-1.4c.1,.8,.5,1.4,1.3,1.4c1.2,0,2.1,-1.1,2.5,-1.8l-.2,-.2c-.5,.7,-1.2,1.7,-2,1.7c-.4,0,-.6,-.6,-.6,-1.2c0,-.4,0,-.8,.2,-1.4l.1,-.7c.1,-.6,.4,-1.2,.7,-1.6c.1,-.3,.5,-1,.9,-1c.4,0,.4,.3,.4,.7c-.1,.4,.1,.5,.4,.5c.4,0,.5,-.2,.5,-.6Z" class="g0_61"/>
<path d="M426.7,668.4c-.7,0,-1.3,-.7,-1.3,-1.4c0,-.6,.3,-1,.8,-1c0,-.3,-.4,-.4,-.7,-.4c-.2,0,-.3,0,-.4,.1c-.4,.1,-.7,.6,-.7,1.1c0,.3,0,.5,.1,.7c.4,.7,1.2,1.1,2.2,1.1c.8,0,1.4,-.3,1.9,-.6c.4,-.4,.7,-.9,.7,-1.6c0,-.2,0,-.4,-.1,-.7c-.3,-.6,-.9,-1.1,-1.6,-1.3c.4,-.1,.8,-.4,1,-.7c.3,-.2,.5,-.6,.5,-1.1c0,-.3,-.1,-.5,-.2,-.7c-.3,-.7,-1.1,-1.1,-2.2,-1.1c-.6,0,-1.1,.2,-1.5,.4c-.3,.2,-.5,.5,-.5,1c0,.3,.1,.6,.2,.7c.2,.2,.4,.3,.8,.3c.1,0,.3,0,.4,-.1c.1,0,.2,-.1,.2,-.2c-.4,0,-.7,-.3,-.7,-.8c0,-.6,.5,-1.1,1.1,-1.1c.8,0,1.2,.7,1.2,1.6c0,.9,-.2,1.8,-1.1,1.8c-.1,-.1,-.4,-.2,-.6,-.2c-.2,0,-.5,.1,-.5,.3c0,.2,.3,.3,.6,.3c.2,0,.5,-.1,.6,-.2c.9,0,1.2,.8,1.2,1.8c0,1,-.4,2,-1.4,2Z" class="g0_61"/>
<path d="M437.7,670.4h-3.2v1h3.2v3.2h1v-3.2h3.2v-1h-3.2v-3.3h-1v3.3Z" class="g0_61"/>
<path d="M449.7,668.5c1.2,0,.9,1.9,.4,3.2c-.4,.8,-1.3,2.7,-2.4,2.7c-.5,0,-.7,-.3,-.7,-1c0,-.7,.3,-1.7,.5,-2.3c.3,-.6,.7,-1.6,1.1,-2c.3,-.3,.7,-.6,1.1,-.6Zm-2.2,6.2c1.7,0,2.8,-1.4,3.5,-2.6c.3,-.6,.6,-1.4,.6,-2.2c0,-1.1,-.5,-1.8,-1.5,-1.8c-1,0,-1.7,.6,-2,1.2H448l1.6,-5.6l-2.1,.1l-.1,.2c.7,0,.9,.3,.9,.6c0,.2,-.1,.6,-.2,.8l-1.5,5.6c-.2,.5,-.4,1,-.4,1.4c-.1,.4,-.2,.7,-.2,.9c0,.8,.6,1.4,1.5,1.4Z" class="g0_61"/>
<path d="M459.8,669.1c0,-.5,-.5,-1,-1,-1c-.3,0,-.6,.2,-1,.4c-.3,.2,-.6,.5,-.8,.9c0,-.7,-.4,-1.3,-1.1,-1.3c-1.1,0,-2.1,1.2,-2.4,2l.2,.1c.4,-.5,1.1,-1.7,2,-1.7c.3,0,.4,.6,.4,1c0,.3,-.1,.7,-.2,1.2l-.4,1.1c-.1,.6,-.4,1.4,-.7,1.8c-.1,.3,-.4,.7,-.8,.7c-.4,0,-.7,-.1,-.6,-.5c.1,-.3,0,-.8,-.4,-.8c-.5,0,-.6,.4,-.6,.8c0,.6,.4,.9,1,.9c1,0,1.8,-.7,2.1,-1.4h.1c.1,.8,.5,1.4,1.3,1.4c1.2,0,2,-1.1,2.5,-1.8l-.2,-.2c-.5,.7,-1.2,1.7,-2,1.7c-.4,0,-.6,-.6,-.6,-1.2c0,-.4,0,-.8,.1,-1.4l.2,-.7c.1,-.6,.4,-1.2,.6,-1.6c.2,-.3,.6,-1,1,-1c.4,0,.4,.3,.3,.7c0,.4,.2,.5,.5,.5c.4,0,.5,-.2,.5,-.6Z" class="g0_61"/>
<path d="M463.1,663.8c-.6,0,-1,-.5,-1,-1.2c0,-.7,.4,-1.6,1.3,-1.6c1.2,0,1.3,1,1.3,1.9c0,.9,-.3,1.5,-.7,2.1c-.3,.4,-.7,.9,-1.1,1.4c-.5,.5,-1.1,1.1,-1.9,1.7v.4h4.6l.4,-2.1h-.3c-.1,.2,-.2,.4,-.3,.5c-.1,.4,-.5,.6,-1,.6h-2.1c.5,-.4,1,-.8,1.4,-1.1c.7,-.7,1.5,-1.4,1.9,-2.3c.2,-.4,.3,-.8,.3,-1.2c0,-.3,-.1,-.6,-.2,-.8c-.3,-.8,-1.1,-1.3,-2.2,-1.3c-.7,0,-1.3,.3,-1.7,.6c-.4,.3,-.7,.8,-.7,1.5c0,.4,.2,.8,.4,1c.2,.2,.5,.4,.9,.4c.4,0,.7,-.2,.7,-.5Z" class="g0_61"/>
<path d="M474.4,670.4h-3.3v1h3.3v3.2h1v-3.2h3.2v-1h-3.2v-3.3h-1v3.3Z" class="g0_61"/>
<path d="M483.7,672.8c0,-.5,.1,-1,.2,-1.4c.3,-1,1.1,-2.9,2.2,-2.9c.4,0,.4,.1,.4,.2c0,.2,-.1,.3,-.1,.5c0,.3,.2,.6,.5,.6c.4,0,.7,-.3,.7,-.7c0,-.7,-.6,-1,-1.3,-1c-1.5,0,-2.6,1.5,-3.2,2.5c-.3,.6,-.5,1.4,-.5,2.2c0,1.1,.6,1.9,1.7,1.9c1.3,0,2.1,-1,2.6,-2l-.3,-.1c-.4,.9,-1.2,1.8,-2,1.8c-.6,0,-.9,-1,-.9,-1.6Z" class="g0_61"/>
<path d="M495.5,669.1c0,-.5,-.4,-1,-1,-1c-.3,0,-.6,.2,-.9,.4c-.3,.2,-.7,.5,-.9,.9c0,-.7,-.4,-1.3,-1,-1.3c-1.2,0,-2.1,1.2,-2.5,2l.2,.1c.4,-.5,1.1,-1.7,2,-1.7c.3,0,.4,.6,.4,1c0,.3,-.1,.7,-.2,1.2l-.4,1.1c-.1,.6,-.4,1.4,-.7,1.8c-.1,.3,-.4,.7,-.8,.7c-.4,0,-.7,-.1,-.6,-.5c.1,-.3,0,-.8,-.4,-.8c-.4,0,-.6,.4,-.6,.8c0,.6,.5,.9,1,.9c1,0,1.8,-.7,2.2,-1.4c.1,.8,.5,1.4,1.3,1.4c1.2,0,2,-1.1,2.5,-1.8l-.2,-.2c-.5,.7,-1.2,1.7,-2,1.7c-.4,0,-.6,-.6,-.6,-1.2c0,-.4,0,-.8,.1,-1.4l.2,-.7c.1,-.6,.4,-1.2,.7,-1.6c.1,-.3,.5,-1,.9,-1c.4,0,.4,.3,.3,.7c0,.4,.2,.5,.5,.5c.4,0,.5,-.2,.5,-.6Z" class="g0_61"/>
<path d="M503.2,670.4H500v1h3.2v3.2h1v-3.2h3.3v-1h-3.3v-3.3h-1v3.3Z" class="g0_61"/>
<path d="M515.9,669.3c0,.6,-.2,1.6,-.3,2.1c-.2,.6,-.7,1.7,-1.1,2.2c-.3,.3,-.7,.8,-1.2,.8c-.5,0,-.8,-.4,-.8,-.9c0,-.7,.1,-1.8,.4,-2.3c.3,-.9,1.2,-2.7,2.4,-2.7c.4,0,.6,.3,.6,.8Zm.2,5.4c.4,0,.8,-.1,1.1,-.5c.3,-.4,.6,-1,.9,-1.8l-.3,-.1c-.2,.6,-.7,1.9,-1.3,1.9c-.3,0,-.3,-.5,-.3,-.7c0,-.2,0,-.3,0,-.5c.1,-.7,.2,-1.2,.4,-1.9c.1,-.4,.3,-1,.4,-1.6l1.6,-5.8h-2.3v.2c.4,0,.5,.1,.7,.2c.1,.1,.3,.3,.3,.4c0,.3,-.1,.6,-.2,.9l-.9,3.4c-.3,-.4,-.4,-.7,-1,-.7c-1,0,-2,1,-2.5,1.6c-.3,.3,-.5,.7,-.7,1c-.3,.6,-.6,1.4,-.6,2.2c0,.6,.2,1,.4,1.3c.3,.3,.6,.5,1.1,.5c1.4,0,1.9,-.8,2.3,-1.6h.1c0,.1,0,.2,-.1,.3c0,.1,0,.2,0,.3c0,.6,.3,1,.9,1Z" class="g0_61"/>
<path d="M408.2,837.9c-.3,0,-.4,-.2,-.4,-.5c-.1,-.2,-.2,-.5,-.5,-.5c-.3,0,-.4,.2,-.4,.4c0,.6,.7,.9,1.2,.9h.1c.8,0,.9,-.2,1.3,-.7c.2,-.3,.4,-.7,.5,-1.3c.2,-.5,.6,-1.1,.7,-2l1.4,-5.1h1.2l.1,-.3h-1.2c.3,-1.2,.8,-3.2,1.1,-3.8c.1,-.2,.4,-.5,.8,-.5c.3,0,.4,.2,.5,.5c0,.2,.1,.5,.5,.5c.2,0,.3,-.2,.3,-.4c0,-.5,-.4,-.8,-.8,-.9h-.8c-1.6,.4,-2.2,3.1,-2.6,4.6H410l-.1,.3h1.2l-1.9,7.4c-.1,.3,-.4,1.4,-1,1.4Z" class="g0_61"/>
<path d="M422.1,830.9c.5,0,.9,-.4,.9,-.9c0,-.5,-.4,-.9,-.9,-.9c-.5,0,-.9,.4,-.9,.9c0,.5,.4,.9,.9,.9Zm0,4.3c.5,0,.9,-.3,.9,-.8c0,-.5,-.4,-.9,-.9,-.9c-.5,0,-.9,.4,-.9,.9c0,.4,.4,.8,.9,.8Z" class="g0_61"/>
<path d="M431,834.5h-1.1v-8.6H431Zm6.5,0H436l-2.4,-3.4c.4,0,.9,0,1.3,-.1l2.6,3.5Zm-2.7,-4.1c-.2,0,-.5,0,-.8,0h-2.3v-4.5h2.4c.2,0,.5,.1,.7,.2v4.3Zm.7,-4.3c.9,.4,1.4,1.1,1.4,2.1c0,.9,-.6,1.8,-1.4,2.1v-4.2Zm3.3,9l-3.2,-4.2c1.2,-.4,1.9,-1.4,1.9,-2.7c0,-2.1,-1.6,-2.9,-3.5,-2.9h-4.8v9.8h2.5v-4h1.1l2.9,4h3.1Z" class="g0_61"/>
<path d="M457.8,831.3l-2.9,-3l-.5,.4l1.8,2.2H444.4v.8h11.8l-1.8,2.2l.5,.4l2.9,-3Z" class="g0_61"/>
<path d="M465.7,834.5h-1.1v-8.6h1.1Zm6.5,0h-1.5l-2.4,-3.4c.4,0,.9,0,1.3,-.1l2.6,3.5Zm-2.7,-4.1c-.2,0,-.5,0,-.8,0h-2.3v-4.5h2.4c.2,0,.5,.1,.7,.2v4.3Zm.7,-4.3c.9,.4,1.4,1.1,1.4,2.1c0,.9,-.6,1.8,-1.4,2.1v-4.2Zm3.3,9l-3.2,-4.2c1.2,-.4,1.9,-1.4,1.9,-2.7c0,-2.1,-1.6,-2.9,-3.5,-2.9h-4.8v9.8h2.5v-4h1.1l2.9,4h3.1Z" class="g0_61"/>
</svg>