<?xml version="1.0" encoding="UTF-8" standalone="no"?>
<!DOCTYPE svg PUBLIC "-//W3C//DTD SVG 1.1//EN"
"http://www.w3.org/Graphics/SVG/1.1/DTD/svg11.dtd">
<svg viewBox="0 0 811 1017" version="1.1" xmlns="http://www.w3.org/2000/svg" xmlns:xlink="http://www.w3.org/1999/xlink">
<defs>
<style type="text/css"><![CDATA[
.g0_336{
fill: #0E0E0E;
}
]]></style>
</defs>
<path d="M390,459.5c0,.7,-.2,1.6,-.3,2.1c-.2,.7,-.7,1.8,-1.1,2.3c-.3,.3,-.7,.8,-1.2,.8c-.5,0,-.8,-.5,-.8,-1c0,-.6,.1,-1.8,.3,-2.3c.4,-.9,1.3,-2.7,2.5,-2.7c.4,0,.6,.4,.6,.8Zm.2,5.5c.4,0,.8,-.2,1.1,-.5c.3,-.4,.6,-1,.9,-1.8l-.3,-.1c-.2,.5,-.7,1.9,-1.3,1.9c-.3,0,-.3,-.5,-.3,-.8c0,-.1,0,-.3,0,-.5c.1,-.6,.2,-1.1,.4,-1.8c.1,-.5,.2,-1,.4,-1.6l1.6,-5.8h-2.3v.2c.4,0,.5,0,.7,.1c.1,.1,.3,.3,.3,.5c0,.2,-.1,.5,-.2,.8l-.9,3.4c-.3,-.4,-.4,-.6,-1,-.6c-1,0,-2,.9,-2.5,1.6c-.3,.3,-.5,.7,-.7,1c-.3,.6,-.6,1.3,-.6,2.1c0,.6,.2,1,.4,1.4c.3,.3,.6,.5,1.1,.5c1.3,0,1.9,-.9,2.3,-1.6h.1c0,.1,0,.2,-.1,.3c0,.1,0,.2,0,.2c0,.7,.3,1.1,.9,1.1Z" class="g0_336"/>
<path d="M398,463h7.6v-.8H398Zm0,-3h7.6v-.9H398Z" class="g0_336"/>
<path d="M422.2,445.4L418,468.2l-3.5,-7.5l-3.2,1.6l.2,.4l1.7,-.6l4.9,10.2l5,-26.9h-.9Z" class="g0_336"/>
<path d="M422.7,446.2h43.7v-.8H422.7Z" class="g0_336"/>
<path d="M429.9,459.4c0,-.6,-.4,-1,-1,-1c-.3,0,-.6,.1,-1,.3c-.3,.3,-.6,.6,-.8,.9c0,-.6,-.4,-1.2,-1.1,-1.2c-1.1,0,-2,1.2,-2.4,2l.2,.1c.4,-.5,1.1,-1.7,2,-1.7c.3,0,.4,.5,.4,1c0,.3,-.1,.6,-.2,1.1l-.4,1.2c-.1,.6,-.4,1.4,-.7,1.8c-.1,.2,-.4,.6,-.8,.6c-.4,0,-.7,0,-.6,-.4c.1,-.4,0,-.8,-.4,-.8c-.5,0,-.6,.3,-.6,.8c0,.5,.4,.9,1,.9c1,0,1.8,-.8,2.1,-1.4h.1c.1,.8,.5,1.4,1.3,1.4c1.2,0,2,-1.1,2.5,-1.8l-.2,-.2c-.5,.6,-1.2,1.6,-2,1.6c-.4,0,-.6,-.6,-.6,-1.2c0,-.3,0,-.8,.1,-1.3l.2,-.7c.1,-.6,.4,-1.3,.6,-1.7c.2,-.2,.6,-.9,1,-.9c.4,0,.4,.3,.3,.6c0,.4,.2,.6,.5,.6c.4,0,.5,-.3,.5,-.6Z" class="g0_336"/>
<path d="M433.2,455.9c-.6,0,-1,-.5,-1,-1.1c0,-.8,.4,-1.7,1.3,-1.7c1.2,0,1.3,1,1.3,1.9c0,1,-.2,1.5,-.7,2.2c-.3,.4,-.7,.8,-1.1,1.3c-.5,.5,-1.1,1.1,-1.9,1.8v.3h4.6l.4,-2.1h-.3c-.1,.2,-.2,.4,-.3,.5c-.1,.4,-.5,.6,-1,.6h-2.1c.5,-.4,1,-.7,1.4,-1.1c.7,-.6,1.5,-1.4,1.9,-2.3c.2,-.3,.3,-.7,.3,-1.1c0,-.4,-.1,-.6,-.2,-.9c-.3,-.8,-1.1,-1.3,-2.1,-1.3c-.8,0,-1.4,.3,-1.8,.6c-.4,.3,-.7,.8,-.7,1.5c0,.4,.2,.8,.4,1c.2,.3,.5,.4,.9,.4c.4,0,.7,-.2,.7,-.5Z" class="g0_336"/>
<path d="M444.5,460.6h-3.3v1h3.3v3.3h1v-3.3h3.2v-1h-3.2v-3.2h-1v3.2Z" class="g0_336"/>
<path d="M451.5,467.1c0,.5,.4,.9,1.1,.9c.4,0,.8,-.2,1.3,-.6c.8,-.7,2,-2.2,2.8,-3.4c.3,-.6,.7,-1.2,1,-1.8c.4,-.8,1.1,-2.1,1.1,-2.9c0,-.3,0,-.4,-.1,-.6c-.1,-.2,-.3,-.3,-.5,-.3c-.1,0,-.3,.1,-.4,.2c-.2,.2,-.2,.4,-.2,.7c0,.4,.2,.9,.2,1.3c0,.6,-.2,1.1,-.5,1.6c-.2,.5,-.4,.8,-.8,1.4h-.1l-.3,-1.9c-.1,-.6,-.3,-1.7,-.4,-2.1c-.2,-.7,-.3,-1.2,-1.3,-1.2c-1.2,0,-1.4,1.8,-1.6,2.5l.3,.2c.1,-.6,.5,-2.3,1,-2.3c.3,0,.5,1,.6,1.2c0,.3,.1,.7,.2,1.4l.6,3.5c-.3,.8,-1.2,1.7,-1.8,2.1c-.2,.2,-.5,.3,-.7,.3c-.1,0,-.2,-.1,-.2,-.2c-.2,-.2,-.2,-.7,-.7,-.7c-.4,0,-.6,.3,-.6,.7Z" class="g0_336"/>
<path d="M462.2,455.9c-.7,0,-1.1,-.5,-1.1,-1.1c0,-.8,.5,-1.7,1.4,-1.7c1.2,0,1.3,1,1.3,1.9c0,1,-.3,1.5,-.7,2.2c-.3,.4,-.7,.8,-1.2,1.3c-.4,.5,-1,1.1,-1.8,1.8v.3h4.6l.3,-2.1h-.3c0,.2,-.1,.4,-.2,.5c-.2,.4,-.5,.6,-1,.6h-2.1c.5,-.4,.9,-.7,1.4,-1.1c.7,-.6,1.5,-1.4,1.9,-2.3c.2,-.3,.3,-.7,.3,-1.1c0,-.4,-.1,-.6,-.2,-.9c-.4,-.8,-1.1,-1.3,-2.2,-1.3c-.7,0,-1.3,.3,-1.7,.6c-.4,.3,-.7,.8,-.7,1.5c0,.4,.1,.8,.4,1c.2,.3,.4,.4,.9,.4c.4,0,.7,-.2,.7,-.5Z" class="g0_336"/>
<path d="M354.1,584.5c0,.7,-.2,1.6,-.4,2.1c-.2,.7,-.7,1.8,-1.1,2.3c-.2,.3,-.7,.8,-1.2,.8c-.5,0,-.8,-.5,-.8,-1c0,-.6,.2,-1.8,.4,-2.3c.4,-.9,1.2,-2.7,2.4,-2.7c.4,0,.7,.4,.7,.8Zm.2,5.5c.4,0,.7,-.2,1,-.5c.4,-.4,.7,-1,.9,-1.8l-.3,-.1c-.2,.5,-.7,1.9,-1.2,1.9c-.3,0,-.4,-.5,-.4,-.8c0,-.1,0,-.3,0,-.5c.1,-.6,.3,-1.1,.4,-1.8c.1,-.5,.3,-1,.5,-1.6l1.5,-5.8h-2.2l-.1,.2c.4,0,.6,0,.7,.1c.2,.1,.3,.3,.3,.4c0,.3,-.1,.6,-.2,.9l-.9,3.4c-.2,-.4,-.4,-.6,-1,-.6c-1,0,-1.9,.9,-2.5,1.6c-.2,.3,-.5,.6,-.7,1c-.3,.6,-.6,1.3,-.6,2.1c0,.6,.2,1,.5,1.4c.2,.3,.5,.5,1,.5c1.4,0,1.9,-.9,2.4,-1.6c0,.1,0,.2,0,.3c0,.1,-.1,.2,-.1,.2c0,.7,.3,1.1,1,1.1Z" class="g0_336"/>
<path d="M357.8,592.4c-.4,0,-.5,-.3,-.4,-.6c.1,-.3,-.2,-.5,-.4,-.5c-.3,0,-.5,.2,-.5,.5c0,.6,.6,.8,1.2,.8c.4,0,.8,-.2,1.1,-.4c.2,-.2,.4,-.5,.4,-1c0,-.3,0,-.5,-.2,-.8c-.2,-.4,-.5,-.7,-.7,-1.1c-.1,-.1,-.2,-.3,-.2,-.5c.1,-.3,.1,-.8,.6,-.8c.4,0,.4,.4,.3,.5c0,.2,.1,.5,.4,.5c.2,0,.4,-.2,.4,-.4c0,-.5,-.5,-.8,-1,-.8c-.5,0,-.8,.2,-1,.4c-.3,.2,-.4,.5,-.4,1c0,.2,0,.4,.2,.6c.2,.4,.5,.7,.7,1.1c.1,.2,.2,.4,.2,.6c0,.4,-.1,.9,-.7,.9Z" class="g0_336"/>
<path d="M363.7,588.6c0,.5,-.1,1.2,-.2,1.6c-.2,.4,-.5,1.3,-.8,1.6c-.2,.3,-.6,.6,-.9,.6c-.4,0,-.6,-.3,-.6,-.7c0,-.5,.1,-1.3,.3,-1.7c.2,-.6,.9,-1.9,1.7,-1.9c.3,0,.5,.2,.5,.5Zm.2,4c.3,0,.5,-.1,.8,-.4c.2,-.2,.4,-.7,.6,-1.2l-.2,-.1c-.2,.4,-.5,1.4,-.9,1.4c-.3,0,-.3,-.4,-.3,-.6c0,-.1,0,-.2,0,-.4c.1,-.4,.2,-.8,.3,-1.3c.1,-.3,.2,-.7,.3,-1.2l1.2,-4.2H364v.1c.3,0,.4,.1,.5,.1c.1,.1,.2,.3,.2,.4c0,.2,-.1,.4,-.1,.6l-.7,2.5c-.2,-.3,-.3,-.5,-.7,-.5c-.8,0,-1.5,.7,-1.9,1.2c-.1,.2,-.3,.5,-.4,.7c-.3,.4,-.5,1,-.5,1.6c0,.4,.1,.7,.3,.9c.2,.3,.4,.4,.8,.4c1,0,1.4,-.6,1.7,-1.2l.1,.1c-.1,0,-.1,.1,-.1,.2c0,0,0,.1,0,.2c0,.4,.2,.7,.7,.7Z" class="g0_336"/>
<path d="M366.6,594.6c-.2,0,-.3,-.1,-.3,-.3c0,-.2,-.1,-.4,-.4,-.4c-.1,0,-.2,.1,-.2,.3c0,.4,.5,.6,.9,.6c.6,0,.6,-.1,.9,-.5c.2,-.3,.3,-.6,.5,-.9c.1,-.4,.3,-.9,.5,-1.5l1,-3.7h.9v-.3h-.9c.3,-.8,.6,-2.3,.9,-2.7c0,-.2,.2,-.4,.5,-.4c.2,0,.3,.1,.4,.3c0,.2,.1,.4,.3,.4c.2,0,.3,-.1,.3,-.3c0,-.4,-.5,-.6,-.9,-.6c-1.4,0,-1.9,2.2,-2.2,3.3h-.9l-.1,.3h.9l-1.4,5.3c0,.3,-.3,1.1,-.7,1.1Z" class="g0_336"/>
<path d="M378.2,579.2c-2.1,1.4,-3.6,3.8,-3.6,6.9c0,2.7,1.5,5.5,3.6,6.8l.2,-.3c-2,-1.5,-2.6,-3.3,-2.6,-6.6c0,-3.3,.6,-5,2.6,-6.5l-.2,-.3Z" class="g0_336"/>
<path d="M386.6,584.4c0,-.6,-.4,-1,-1,-1c-.3,0,-.6,.1,-.9,.3c-.4,.3,-.7,.6,-.9,.9c0,-.6,-.4,-1.2,-1,-1.2c-1.2,0,-2.1,1.2,-2.5,2l.2,.1c.4,-.5,1.1,-1.7,2,-1.7c.3,0,.4,.5,.4,1c0,.3,-.1,.6,-.2,1.1l-.4,1.2c-.1,.6,-.4,1.4,-.7,1.8c-.1,.2,-.4,.6,-.8,.6c-.4,0,-.7,0,-.6,-.4c.1,-.4,0,-.8,-.4,-.8c-.4,0,-.6,.3,-.6,.8c0,.5,.5,.9,1,.9c1,0,1.8,-.8,2.2,-1.4c.1,.8,.5,1.4,1.3,1.4c1.2,0,2,-1.1,2.5,-1.8L386,588c-.5,.6,-1.2,1.6,-2,1.6c-.4,0,-.6,-.6,-.6,-1.2c0,-.3,0,-.8,.1,-1.3l.2,-.7c.1,-.6,.4,-1.3,.6,-1.7c.2,-.2,.6,-.9,1,-.9c.4,0,.4,.3,.3,.6c0,.4,.2,.6,.5,.6c.4,0,.5,-.3,.5,-.6Z" class="g0_336"/>
<path d="M388.8,589.1c0,.4,.3,.8,.7,.8c.2,0,.3,0,.4,-.1c0,.4,-.1,.7,-.3,1c-.2,.3,-.5,.7,-1,1l.3,.4c.3,-.2,.6,-.4,.8,-.7c.6,-.4,1,-.9,1,-1.9c0,-.9,-.3,-1.3,-1,-1.3c-.5,0,-.9,.3,-.9,.8Z" class="g0_336"/>
<path d="M394.2,592.1c0,.5,.5,.9,1.1,.9c.5,0,.8,-.2,1.3,-.6c.8,-.7,2.1,-2.2,2.8,-3.4c.4,-.6,.8,-1.2,1.1,-1.8c.4,-.8,1.1,-2.1,1.1,-2.9c0,-.3,-.1,-.5,-.2,-.6c0,-.2,-.2,-.3,-.4,-.3c-.2,0,-.3,.1,-.5,.2c-.1,.1,-.2,.4,-.2,.6c0,.5,.3,1,.3,1.4c0,.6,-.3,1.1,-.5,1.6c-.2,.5,-.5,.8,-.8,1.4h-.1l-.3,-1.9c-.1,-.6,-.3,-1.7,-.4,-2.1c-.2,-.7,-.4,-1.2,-1.4,-1.2c-1.1,0,-1.3,1.8,-1.6,2.5l.3,.2c.2,-.6,.6,-2.4,1.1,-2.4c.3,0,.5,1.1,.5,1.3c.1,.3,.2,.7,.3,1.4l.6,3.5c-.4,.8,-1.2,1.6,-1.8,2.1c-.2,.2,-.6,.3,-.7,.3c-.1,0,-.2,-.1,-.3,-.2c-.2,-.2,-.2,-.7,-.6,-.7c-.4,0,-.7,.3,-.7,.7Z" class="g0_336"/>
<path d="M402.9,579.2l-.1,.3c1.9,1.5,2.5,3.2,2.5,6.5c0,3.3,-.5,5.1,-2.5,6.6l.2,.3c2,-1.3,3.6,-4.1,3.6,-6.8c0,-3.1,-1.5,-5.5,-3.7,-6.9Z" class="g0_336"/>
<path d="M412.8,588h7.6v-.8h-7.6Zm0,-3h7.6v-.9h-7.6Z" class="g0_336"/>
<path d="M437,570.4l-4.2,22.8l-3.5,-7.5l-3.2,1.6l.2,.4L428,587l4.9,10.3l5,-26.9H437Z" class="g0_336"/>
<path d="M437.5,571.2h43.7v-.8H437.5Z" class="g0_336"/>
<path d="M444.7,584.4c0,-.6,-.5,-1,-1,-1c-.3,0,-.7,.1,-1,.3c-.3,.3,-.6,.6,-.8,.9c0,-.6,-.4,-1.2,-1.1,-1.2c-1.1,0,-2.1,1.2,-2.4,2l.2,.1c.4,-.5,1.1,-1.7,2,-1.7c.2,0,.4,.5,.4,1c0,.3,-.1,.6,-.2,1.1l-.4,1.2c-.1,.6,-.4,1.4,-.7,1.8c-.2,.2,-.4,.6,-.8,.6c-.4,0,-.7,0,-.6,-.4c.1,-.4,0,-.8,-.4,-.8c-.5,0,-.6,.3,-.6,.8c0,.5,.4,.9,1,.9c1,0,1.7,-.8,2.1,-1.4h.1c.1,.8,.5,1.4,1.3,1.4c1.2,0,2,-1.1,2.4,-1.8l-.1,-.2c-.5,.6,-1.2,1.6,-2,1.6c-.5,0,-.7,-.6,-.7,-1.2c0,-.3,.1,-.8,.2,-1.3l.2,-.7c.1,-.6,.4,-1.3,.6,-1.7c.2,-.2,.6,-.9,1,-.9c.4,0,.3,.3,.3,.6c0,.4,.1,.6,.5,.6c.3,0,.5,-.3,.5,-.6Z" class="g0_336"/>
<path d="M448,580.9c-.6,0,-1,-.5,-1,-1.1c0,-.8,.4,-1.7,1.3,-1.7c1.2,0,1.3,1,1.3,1.9c0,1,-.3,1.5,-.7,2.2c-.3,.4,-.7,.8,-1.1,1.3c-.5,.5,-1.1,1.1,-1.9,1.7v.4h4.6l.3,-2.1h-.3c0,.2,-.1,.4,-.2,.5c-.2,.4,-.5,.6,-1,.6h-2.1c.5,-.4,.9,-.8,1.4,-1.1c.7,-.7,1.5,-1.4,1.9,-2.3c.2,-.3,.3,-.7,.3,-1.2c0,-.3,-.1,-.5,-.2,-.8c-.3,-.8,-1.1,-1.3,-2.2,-1.3c-.7,0,-1.3,.3,-1.7,.6c-.4,.3,-.7,.8,-.7,1.5c0,.4,.1,.8,.4,1c.2,.3,.5,.4,.9,.4c.4,0,.7,-.2,.7,-.5Z" class="g0_336"/>
<path d="M459.3,585.6H456v1h3.3v3.3h.9v-3.3h3.3v-1h-3.3v-3.2h-.9v3.2Z" class="g0_336"/>
<path d="M466.3,592.1c0,.5,.4,.9,1.1,.9c.4,0,.8,-.2,1.2,-.6c.9,-.7,2.1,-2.2,2.9,-3.4c.3,-.6,.7,-1.2,1,-1.8c.4,-.8,1.1,-2.1,1.1,-2.9c0,-.3,0,-.5,-.1,-.6c-.1,-.2,-.3,-.3,-.5,-.3c-.2,0,-.3,.1,-.4,.2c-.2,.1,-.3,.4,-.3,.6c0,.5,.3,1,.3,1.4c0,.6,-.3,1.1,-.5,1.6c-.2,.5,-.4,.8,-.8,1.4h-.1l-.3,-1.9c-.1,-.6,-.3,-1.7,-.4,-2.1c-.2,-.7,-.4,-1.2,-1.3,-1.2c-1.2,0,-1.4,1.8,-1.7,2.5l.4,.2c.1,-.6,.5,-2.4,1,-2.4c.3,0,.5,1.1,.5,1.3c.1,.3,.2,.7,.3,1.4l.6,3.5c-.3,.8,-1.2,1.6,-1.8,2.1c-.2,.2,-.5,.3,-.7,.3c-.1,0,-.2,-.1,-.2,-.2c-.2,-.2,-.2,-.7,-.7,-.7c-.4,0,-.6,.3,-.6,.7Z" class="g0_336"/>
<path d="M477,580.9c-.7,0,-1.1,-.5,-1.1,-1.1c0,-.8,.5,-1.7,1.4,-1.7c1.2,0,1.3,1,1.3,1.9c0,1,-.3,1.5,-.7,2.2c-.3,.4,-.7,.8,-1.2,1.3c-.5,.5,-1.1,1.1,-1.8,1.7v.4h4.5l.4,-2.1h-.3c-.1,.2,-.2,.4,-.2,.5c-.2,.4,-.5,.6,-1,.6h-2.1c.4,-.4,.9,-.8,1.3,-1.1c.8,-.7,1.6,-1.4,2,-2.3c.2,-.3,.3,-.7,.3,-1.2c0,-.3,-.1,-.5,-.2,-.8c-.4,-.8,-1.1,-1.3,-2.2,-1.3c-.7,0,-1.3,.3,-1.7,.6c-.4,.3,-.7,.8,-.7,1.5c0,.4,.1,.8,.3,1c.2,.3,.5,.4,.9,.4c.4,0,.7,-.2,.8,-.5Z" class="g0_336"/>
<path d="M485.5,586.5h7.6v-.9h-7.6Z" class="g0_336"/>
<path d="M503.3,584c0,-.2,-.1,-.3,-.2,-.5c-.2,-.2,-.4,-.2,-.6,-.2c-.4,0,-.9,.3,-1.2,.6c-.4,.3,-.8,.7,-1,1.2c0,-.2,0,-.3,0,-.4c0,-.1,0,-.3,0,-.4c0,-.5,0,-.9,-.5,-.9c-1,0,-1.9,1.1,-2.2,1.8l.2,.1c.2,-.4,.9,-1.4,1.4,-1.4c.2,0,.2,.5,.2,.7c0,.1,-.1,.2,-.1,.3c-.2,.9,-.4,1.6,-.7,2.5l-.8,2.5h1l.6,-1.7c.2,-.5,.4,-1.2,.6,-1.7c.2,-.4,.4,-.9,.6,-1.2c.2,-.4,.6,-1.2,1.2,-1.2c.1,0,.1,.3,.2,.3l.1,.1c.1,.2,.2,.3,.5,.3c.4,0,.7,-.4,.7,-.8Z" class="g0_336"/>
<path d="M353.7,670.5c0,.6,-.2,1.6,-.4,2.1c-.2,.6,-.7,1.8,-1,2.2c-.3,.4,-.8,.8,-1.3,.8c-.5,0,-.8,-.4,-.8,-.9c0,-.7,.2,-1.8,.4,-2.3c.4,-.9,1.3,-2.7,2.4,-2.7c.4,0,.7,.4,.7,.8Zm.2,5.5c.4,0,.7,-.2,1.1,-.6c.3,-.4,.6,-.9,.9,-1.7l-.4,-.1c-.2,.5,-.7,1.9,-1.2,1.9c-.3,0,-.4,-.5,-.4,-.8c0,-.2,0,-.3,0,-.5c.1,-.6,.3,-1.2,.4,-1.9c.2,-.4,.3,-.9,.5,-1.6l1.5,-5.8h-2.2l-.1,.2c.5,0,.6,.1,.7,.2c.2,.1,.3,.3,.3,.4c0,.3,-.1,.6,-.1,.9l-1,3.4c-.2,-.4,-.4,-.6,-1,-.6c-1,0,-1.9,.9,-2.5,1.6c-.2,.3,-.4,.6,-.6,.9c-.4,.6,-.6,1.4,-.6,2.2c0,.6,.1,1,.4,1.3c.2,.3,.6,.6,1,.6c1.4,0,1.9,-.9,2.4,-1.7c0,.1,0,.2,0,.3c0,.1,0,.2,0,.3c0,.6,.2,1.1,.9,1.1Z" class="g0_336"/>
<path d="M357.4,678.4c-.4,0,-.4,-.3,-.4,-.7c.1,-.3,-.1,-.5,-.4,-.5c-.3,0,-.4,.3,-.4,.6c0,.5,.5,.8,1.1,.8c.5,0,.9,-.2,1.1,-.4c.2,-.3,.4,-.6,.4,-1c0,-.3,0,-.6,-.2,-.8c-.2,-.4,-.5,-.8,-.7,-1.1c-.1,-.2,-.1,-.4,-.1,-.6c0,-.2,.1,-.7,.5,-.7c.4,0,.4,.3,.3,.5c0,.2,.1,.4,.4,.4c.3,0,.4,-.1,.4,-.4c0,-.5,-.5,-.7,-1,-.7c-.5,0,-.8,.1,-1,.4c-.3,.2,-.4,.5,-.4,.9c0,.3,.1,.5,.2,.7c.2,.4,.5,.7,.7,1.1c.2,.2,.2,.4,.2,.6c0,.4,-.1,.9,-.7,.9Z" class="g0_336"/>
<path d="M363.3,674.6c0,.5,-.1,1.2,-.2,1.6c-.2,.4,-.5,1.2,-.8,1.6c-.2,.2,-.5,.6,-.9,.6c-.4,0,-.6,-.3,-.6,-.7c0,-.5,.1,-1.3,.3,-1.7c.3,-.7,.9,-2,1.8,-2c.3,0,.4,.3,.4,.6Zm.2,4c.3,0,.5,-.1,.8,-.4c.2,-.3,.4,-.7,.6,-1.3l-.2,-.1c-.1,.4,-.5,1.4,-.9,1.4c-.2,0,-.3,-.3,-.3,-.5c0,-.1,0,-.3,0,-.4c.1,-.5,.2,-.8,.3,-1.3c.1,-.4,.2,-.8,.3,-1.2l1.2,-4.3h-1.7v.2c.3,0,.4,0,.5,.1c.1,.1,.2,.2,.2,.3c0,.2,0,.4,-.1,.6l-.7,2.6c-.1,-.3,-.3,-.5,-.7,-.5c-.8,0,-1.4,.6,-1.8,1.1c-.2,.3,-.4,.5,-.5,.8c-.3,.4,-.5,.9,-.5,1.5c0,.5,.2,.8,.4,1c.1,.2,.4,.4,.7,.4c1,0,1.4,-.6,1.7,-1.2h.1c0,.1,0,.2,-.1,.2c0,.1,0,.2,0,.2c0,.5,.2,.8,.7,.8Z" class="g0_336"/>
<path d="M366.3,680.6c-.3,0,-.3,-.2,-.4,-.4c0,-.2,-.1,-.4,-.4,-.4c-.1,0,-.2,.2,-.2,.3c0,.5,.5,.7,.9,.7c.6,0,.7,-.2,1,-.6c.1,-.2,.2,-.5,.4,-.9c.1,-.3,.4,-.8,.5,-1.4l1,-3.8h.9l.1,-.2h-1c.3,-.9,.6,-2.3,.9,-2.8c.1,-.1,.3,-.3,.5,-.3c.2,0,.3,.1,.4,.3c0,.2,.1,.4,.4,.4c.1,0,.2,-.2,.2,-.3c0,-.5,-.5,-.7,-.9,-.7c-1.4,.1,-1.9,2.2,-2.2,3.4h-.9v.2h.9l-1.5,5.4c0,.3,-.2,1.1,-.6,1.1Z" class="g0_336"/>
<path d="M377.9,665.2c-2.2,1.4,-3.7,3.8,-3.7,6.8c0,2.8,1.6,5.6,3.6,6.8l.2,-.2c-2,-1.5,-2.5,-3.3,-2.5,-6.6c0,-3.3,.6,-5,2.5,-6.6l-.1,-.2Z" class="g0_336"/>
<path d="M386.2,670.3c0,-.5,-.4,-.9,-1,-.9c-.3,0,-.6,.1,-.9,.3c-.3,.2,-.6,.5,-.9,.9c0,-.7,-.4,-1.2,-1,-1.2c-1.2,0,-2.1,1.1,-2.5,1.9l.3,.1c.3,-.5,1,-1.7,1.9,-1.7c.3,0,.4,.6,.4,1c0,.3,0,.7,-.2,1.2l-.3,1.2c-.2,.5,-.4,1.3,-.8,1.7c-.1,.3,-.4,.7,-.7,.7c-.5,0,-.8,-.1,-.7,-.5c.1,-.3,.1,-.7,-.4,-.7c-.4,0,-.6,.3,-.6,.7c0,.6,.5,1,1.1,1c1,0,1.7,-.8,2.1,-1.5c.1,.8,.5,1.5,1.3,1.5c1.2,0,2.1,-1.2,2.5,-1.9l-.2,-.1c-.5,.6,-1.2,1.6,-2,1.6c-.4,0,-.6,-.6,-.6,-1.2c0,-.4,0,-.8,.2,-1.3l.1,-.8c.1,-.5,.4,-1.2,.7,-1.6c.1,-.3,.5,-.9,.9,-.9c.4,0,.4,.3,.4,.6c-.1,.4,.1,.6,.4,.6c.4,0,.5,-.3,.5,-.7Z" class="g0_336"/>
<path d="M388.4,675.1c0,.4,.3,.7,.7,.7c.2,0,.3,0,.4,-.1c0,.4,0,.8,-.3,1.1c-.2,.3,-.5,.6,-1,1l.3,.4c.4,-.2,.6,-.5,.9,-.7c.5,-.5,.9,-1,.9,-1.9c0,-.9,-.3,-1.4,-1,-1.4c-.5,0,-.9,.4,-.9,.9Z" class="g0_336"/>
<path d="M393.9,678c0,.6,.4,1,1.1,1c.4,0,.8,-.2,1.3,-.6c.8,-.7,2,-2.2,2.8,-3.4c.3,-.7,.7,-1.3,1,-1.8c.4,-.8,1.1,-2.2,1.1,-3c0,-.2,0,-.4,-.1,-.6c-.1,-.2,-.3,-.2,-.5,-.2c-.2,0,-.3,0,-.4,.2c-.2,.1,-.2,.3,-.2,.6c0,.5,.2,.9,.2,1.3c0,.6,-.2,1.2,-.5,1.6c-.2,.5,-.4,.9,-.8,1.5h-.1l-.3,-2c-.1,-.5,-.3,-1.6,-.4,-2c-.2,-.7,-.3,-1.2,-1.3,-1.2c-1.2,0,-1.4,1.7,-1.6,2.5l.3,.1c.1,-.6,.5,-2.3,1,-2.3c.3,0,.5,1,.5,1.3c.1,.3,.2,.7,.3,1.3l.6,3.5c-.3,.8,-1.2,1.7,-1.8,2.2c-.2,.2,-.5,.3,-.7,.3c-.1,0,-.2,-.1,-.2,-.2c-.2,-.3,-.2,-.8,-.7,-.8c-.4,0,-.6,.3,-.6,.7Z" class="g0_336"/>
<path d="M402.6,665.2l-.2,.2c1.9,1.6,2.5,3.3,2.5,6.6c0,3.3,-.5,5.1,-2.5,6.6l.2,.2c2,-1.2,3.6,-4,3.6,-6.8c0,-3,-1.5,-5.4,-3.6,-6.8Z" class="g0_336"/>
<path d="M412.4,674H420v-.9h-7.6Zm0,-3.1H420v-.8h-7.6Z" class="g0_336"/>
<path d="M436.7,656.3l-4.3,22.8l-3.5,-7.4l-3.2,1.6l.2,.4l1.7,-.7l4.9,10.3l5,-27h-.8Z" class="g0_336"/>
<path d="M437.1,657.1h43.7v-.8H437.1Z" class="g0_336"/>
<path d="M444.3,670.3c0,-.5,-.4,-.9,-1,-.9c-.3,0,-.6,.1,-.9,.3c-.4,.2,-.7,.5,-.9,.9c0,-.7,-.4,-1.2,-1,-1.2c-1.2,0,-2.1,1.1,-2.5,1.9l.2,.1c.4,-.5,1.1,-1.7,2,-1.7c.3,0,.4,.6,.4,1c0,.3,-.1,.7,-.2,1.2l-.4,1.2c-.1,.5,-.4,1.3,-.7,1.7c-.1,.3,-.4,.7,-.8,.7c-.4,0,-.7,-.1,-.6,-.5c.1,-.3,0,-.7,-.4,-.7c-.5,0,-.6,.3,-.6,.7c0,.6,.4,1,1,1c1,0,1.8,-.8,2.2,-1.5c.1,.8,.5,1.5,1.3,1.5c1.2,0,2,-1.2,2.5,-1.9l-.2,-.1c-.5,.6,-1.2,1.6,-2,1.6c-.4,0,-.6,-.6,-.6,-1.2c0,-.4,0,-.8,.1,-1.3l.2,-.8c.1,-.5,.4,-1.2,.6,-1.6c.2,-.3,.6,-.9,1,-.9c.4,0,.4,.3,.3,.6c0,.4,.2,.6,.5,.6c.4,0,.5,-.3,.5,-.7Z" class="g0_336"/>
<path d="M447.7,666.9c-.7,0,-1.1,-.5,-1.1,-1.2c0,-.8,.4,-1.6,1.3,-1.6c1.2,0,1.3,1,1.3,1.9c0,.9,-.2,1.5,-.7,2.1c-.3,.4,-.6,.9,-1.1,1.4c-.5,.5,-1.1,1,-1.9,1.7v.3h4.6l.4,-2h-.3c-.1,.2,-.2,.4,-.3,.5c-.1,.4,-.4,.6,-1,.6h-2.1v-.1c.5,-.3,1,-.7,1.4,-1c.7,-.7,1.5,-1.4,1.9,-2.3c.2,-.4,.3,-.8,.3,-1.2c0,-.3,-.1,-.6,-.2,-.8c-.3,-.8,-1,-1.3,-2.1,-1.3c-.7,0,-1.4,.2,-1.8,.6c-.4,.3,-.7,.8,-.7,1.4c0,.5,.2,.8,.4,1.1c.2,.2,.5,.4,.9,.4c.4,0,.7,-.2,.8,-.5Z" class="g0_336"/>
<path d="M458.9,671.6h-3.3v1h3.3v3.2h1v-3.2h3.2v-1h-3.2v-3.3h-1v3.3Z" class="g0_336"/>
<path d="M465.9,678c0,.6,.5,1,1.1,1c.4,0,.8,-.2,1.3,-.6c.8,-.7,2,-2.2,2.8,-3.4c.4,-.7,.7,-1.3,1,-1.8c.4,-.8,1.1,-2.2,1.1,-3c0,-.2,0,-.4,-.1,-.6c-.1,-.2,-.3,-.2,-.5,-.2c-.1,0,-.3,0,-.4,.2c-.2,.1,-.2,.3,-.2,.6c0,.5,.2,.9,.2,1.3c0,.6,-.2,1.2,-.5,1.6c-.2,.5,-.4,.9,-.8,1.5h-.1l-.3,-2c-.1,-.5,-.3,-1.6,-.4,-2c-.2,-.7,-.3,-1.2,-1.3,-1.2c-1.2,0,-1.4,1.7,-1.6,2.5l.3,.1c.1,-.6,.5,-2.3,1,-2.3c.3,0,.5,1,.6,1.3c0,.3,.1,.7,.2,1.3l.6,3.5c-.3,.8,-1.2,1.7,-1.8,2.2c-.2,.2,-.5,.3,-.7,.3c-.1,0,-.2,-.1,-.2,-.2c-.2,-.3,-.2,-.8,-.7,-.8c-.4,0,-.6,.3,-.6,.7Z" class="g0_336"/>
<path d="M476.6,666.9c-.6,0,-1,-.5,-1,-1.2c0,-.8,.4,-1.6,1.3,-1.6c1.2,0,1.3,1,1.3,1.9c0,.9,-.3,1.5,-.7,2.1c-.3,.4,-.7,.9,-1.1,1.4c-.5,.5,-1.1,1,-1.9,1.7v.3h4.6l.3,-2h-.3c0,.2,-.1,.4,-.2,.5c-.2,.4,-.5,.6,-1,.6h-2.1v-.1c.5,-.3,.9,-.7,1.4,-1c.7,-.7,1.5,-1.4,1.9,-2.3c.2,-.4,.3,-.8,.3,-1.2c0,-.3,-.1,-.6,-.2,-.8c-.3,-.8,-1.1,-1.3,-2.2,-1.3c-.7,0,-1.3,.2,-1.7,.6c-.4,.3,-.7,.8,-.7,1.4c0,.5,.1,.8,.4,1.1c.2,.2,.5,.4,.9,.4c.4,0,.7,-.2,.7,-.5Z" class="g0_336"/>
<path d="M485.1,672.4h7.6v-.8h-7.6Z" class="g0_336"/>
<path d="M498.9,666.1v.3c.5,0,1.1,0,1.3,.1c.5,.3,.5,.4,.5,1.1v6.5c0,.3,0,.5,-.1,.7c-.1,.7,-.9,.8,-1.6,.8v.2h4.7v-.2c-.5,0,-1.3,0,-1.5,-.3c-.2,-.3,-.2,-.8,-.2,-1.3v-8.6c-.8,.4,-2.1,.7,-3.1,.7Z" class="g0_336"/>
<path d="M333.1,811.9c0,.7,-.2,1.6,-.3,2.2c-.2,.6,-.7,1.7,-1.1,2.2c-.3,.3,-.7,.8,-1.2,.8c-.5,0,-.8,-.4,-.8,-1c0,-.6,.1,-1.7,.3,-2.3c.4,-.8,1.3,-2.7,2.5,-2.7c.4,0,.6,.4,.6,.8Zm.2,5.5c.4,0,.8,-.2,1.1,-.5c.3,-.4,.6,-1,.9,-1.8L335,815c-.2,.6,-.7,1.9,-1.3,1.9c-.3,0,-.3,-.5,-.3,-.8c0,-.1,0,-.3,0,-.5c.1,-.6,.2,-1.1,.4,-1.8c.1,-.5,.2,-1,.4,-1.6l1.6,-5.8h-2.3v.2c.4,0,.5,0,.7,.1c.1,.1,.3,.3,.3,.5c0,.2,-.1,.5,-.2,.8l-.9,3.5c-.3,-.5,-.4,-.7,-1.1,-.7c-.9,0,-1.9,.9,-2.4,1.6c-.3,.3,-.5,.7,-.7,1c-.3,.6,-.6,1.3,-.6,2.1c0,.6,.2,1,.4,1.4c.3,.3,.6,.5,1.1,.5c1.3,0,1.9,-.9,2.3,-1.6h.1c0,.1,0,.2,-.1,.3c0,.1,0,.2,0,.2c0,.7,.3,1.1,.9,1.1Z" class="g0_336"/>
<path d="M339.1,820c1,0,1.4,-.9,1.7,-1.4l-.2,-.1c-.2,.4,-.6,1.1,-1,1.1c-.1,0,-.1,-.3,-.1,-.4c0,-.1,0,-.3,.1,-.5c.1,-.3,.2,-.6,.3,-1c.2,-.6,.4,-1.4,.4,-1.8c0,-.4,-.2,-.7,-.7,-.7c-.8,0,-1.4,.7,-1.8,1.4h-.1c.1,-.2,.1,-.4,.1,-.7c0,-.4,0,-.7,-.5,-.7c-1,0,-1.3,1,-1.5,1.8l.2,.1c.1,-.5,.5,-1.6,1,-1.6c.1,0,.2,.1,.2,.2c0,.2,-.1,.7,-.1,.9c-.2,.4,-.3,.8,-.5,1.4l-.6,2h.7l.6,-1.9c.3,-.6,.7,-1.4,1,-1.9c.2,-.3,.7,-.7,1,-.7c.2,0,.3,.1,.3,.3c0,0,0,.2,0,.3c-.1,.3,-.2,.6,-.3,.9c-.2,.8,-.4,1.4,-.6,2.1c0,.1,0,.2,0,.3c0,.3,.1,.6,.4,.6Z" class="g0_336"/>
<path d="M342.6,818.7c0,-1.8,.6,-3.2,1.7,-3.2c.4,0,.6,.2,.6,.8c0,.3,.1,.7,-.1,1.2c-.2,.7,-.7,2.3,-1.6,2.3c-.4,0,-.6,-.6,-.6,-1.1Zm.6,1.3c.7,0,1.4,-.5,1.7,-1c.4,-.5,.8,-1.2,.8,-2.1c0,-.5,-.1,-.9,-.4,-1.2c-.2,-.3,-.5,-.5,-1,-.5c-.3,0,-.6,.1,-1,.3c-.6,.3,-1.1,1,-1.3,1.7c-.2,.3,-.2,.7,-.2,1.1c0,.5,.1,1,.4,1.3c.2,.2,.5,.4,1,.4Z" class="g0_336"/>
<path d="M347.3,820c.9,0,1.5,-.9,1.8,-1.5l-.2,-.1c-.2,.3,-.6,1.2,-1.2,1.2c-.2,0,-.2,-.3,-.2,-.4c0,-.2,0,-.4,.1,-.7l.8,-2.9h1v-.3h-.9l.3,-1.2H348l-.3,1.2H347l-.1,.3h.8l-.7,2.6c-.1,.3,-.2,.6,-.2,.8c-.1,.2,-.1,.4,-.1,.5c0,.4,.2,.5,.6,.5Z" class="g0_336"/>
<path d="M350.9,820h4.5v-.6h-4.5Z" class="g0_336"/>
<path d="M358.7,815.2c-.3,0,-.6,.1,-1,.4c-.3,.2,-.6,.5,-.9,.8c-.4,.6,-.9,1.4,-.9,2.4c0,.7,.3,1.2,1,1.2c.9,0,1.3,-.6,1.6,-1.1c-.2,.7,-.1,1.1,.4,1.1c.2,0,.5,-.1,.8,-.3c.3,-.2,.6,-.6,.8,-1l-.1,-.1c-.2,.3,-.7,1,-1,1c-.2,0,-.2,-.3,-.2,-.4c0,-.7,.4,-1.8,.7,-2.5l.5,-1.4h-.7l-.2,.5c-.2,-.3,-.4,-.6,-.8,-.6Zm.1,.2c.5,0,.4,1,.3,1.4c0,.2,-.1,.5,-.2,.7c-.3,.9,-1.1,2.3,-1.7,2.3c-.4,0,-.5,-.7,-.5,-1.1c0,-.3,0,-.6,.1,-.9c.3,-.8,1.1,-2.4,2,-2.4Z" class="g0_336"/>
<path d="M362.1,820h4.4v-.6h-4.4Z" class="g0_336"/>
<path d="M370.9,815.7c0,-.2,-.1,-.3,-.2,-.4c-.1,-.1,-.2,-.2,-.4,-.2c-.3,0,-.7,.3,-.9,.5c-.2,.2,-.5,.5,-.7,.9c0,-.1,0,-.2,0,-.3c0,-.1,0,-.2,0,-.3c0,-.4,0,-.7,-.4,-.7c-.7,0,-1.4,.8,-1.6,1.3l.2,.1c.1,-.2,.7,-1,1,-1c.1,0,.1,.4,.1,.5q0,.1,0,.2c-.2,.7,-.3,1.2,-.6,1.9l-.5,1.8h.7l.4,-1.3c.2,-.4,.3,-.8,.5,-1.2c.1,-.3,.3,-.6,.4,-.9c.2,-.3,.5,-.8,.9,-.8c.1,0,.1,.1,.1,.2l.1,.1c.1,.1,.2,.1,.4,.1c.3,0,.5,-.2,.5,-.5Z" class="g0_336"/>
<path d="M374.4,815.5c.2,0,.4,.2,.4,.4c0,1,-1.2,1.7,-2.1,2c.2,-.8,.8,-2.4,1.7,-2.4Zm.1,-.3c-.8,0,-1.5,.6,-1.9,1.1c-.4,.6,-.8,1.4,-.8,2.3c0,.9,.3,1.4,1.2,1.4c.7,0,1.4,-.5,1.8,-1.2l-.1,-.1c-.3,.4,-.9,1.1,-1.5,1.1c-.5,0,-.7,-.4,-.7,-1c0,-.2,.1,-.5,.1,-.7c1.1,-.2,2.9,-.9,2.9,-2.1c0,-.5,-.5,-.8,-1,-.8Z" class="g0_336"/>
<path d="M379.2,815.2c-.3,0,-.6,.1,-1,.4c-.3,.2,-.6,.5,-.9,.8c-.4,.6,-.9,1.4,-.9,2.4c0,.7,.3,1.2,1,1.2c.9,0,1.3,-.6,1.6,-1.1c-.2,.7,-.1,1.1,.4,1.1c.2,0,.5,-.1,.8,-.3c.3,-.2,.6,-.6,.8,-1l-.1,-.1c-.2,.3,-.7,1,-1,1c-.2,0,-.2,-.3,-.2,-.4c0,-.7,.4,-1.8,.7,-2.5l.5,-1.4h-.7l-.2,.5c-.2,-.3,-.4,-.6,-.8,-.6Zm.1,.2c.5,0,.4,1,.3,1.4c0,.2,-.1,.5,-.2,.7c-.3,.9,-1.1,2.3,-1.7,2.3c-.4,0,-.5,-.7,-.5,-1.1c0,-.3,0,-.6,.1,-.9c.3,-.8,1.1,-2.4,2,-2.4Z" class="g0_336"/>
<path d="M382.4,820c1,0,1.4,-.9,1.7,-1.5l-.2,-.1c-.2,.3,-.6,1.2,-1.1,1.2c-.2,0,-.3,-.3,-.3,-.4c0,-.3,.1,-.5,.2,-.7l1.8,-6.5l-1.6,.1v.1c.4,0,.6,.2,.6,.4c0,.2,-.1,.5,-.1,.6l-1.4,5c-.1,.5,-.2,.8,-.2,1.3c0,.4,.1,.5,.6,.5Z" class="g0_336"/>
<path d="M386,820h4.4v-.6H386Z" class="g0_336"/>
<path d="M391.8,819.8c-.4,0,-.4,-.3,-.4,-.6c.1,-.3,-.2,-.5,-.4,-.5c-.3,0,-.5,.2,-.5,.5c0,.6,.6,.8,1.2,.8c.4,0,.8,-.1,1.1,-.4c.2,-.2,.4,-.5,.4,-1c0,-.3,0,-.5,-.2,-.8c-.2,-.4,-.5,-.7,-.7,-1.1c-.1,-.1,-.2,-.3,-.2,-.5c.1,-.3,.1,-.8,.6,-.8c.4,0,.4,.4,.3,.5c0,.2,.1,.5,.4,.5c.2,0,.4,-.2,.4,-.4c0,-.5,-.5,-.8,-1,-.8c-.5,0,-.8,.2,-1,.4c-.3,.2,-.4,.5,-.4,1c0,.2,0,.5,.2,.7c.2,.3,.5,.7,.7,1c.1,.2,.2,.4,.2,.7c0,.3,-.1,.8,-.7,.8Z" class="g0_336"/>
<path d="M397.7,816.1c0,.4,-.1,1.1,-.2,1.5c-.2,.4,-.5,1.3,-.8,1.6c-.2,.3,-.6,.6,-.9,.6c-.4,0,-.6,-.3,-.6,-.7c0,-.4,.1,-1.3,.3,-1.7c.2,-.6,.9,-1.9,1.7,-1.9c.3,0,.5,.2,.5,.6Zm.2,3.9c.3,0,.5,-.1,.8,-.4c.2,-.2,.4,-.6,.6,-1.2l-.2,-.1c-.2,.4,-.5,1.4,-.9,1.4c-.3,0,-.3,-.4,-.3,-.6c0,-.1,0,-.2,0,-.4c.1,-.4,.2,-.8,.3,-1.3c.1,-.3,.2,-.7,.3,-1.2l1.2,-4.2H398v.1c.3,.1,.4,.1,.5,.2c.1,0,.2,.2,.2,.3c0,.2,-.1,.4,-.1,.6l-.7,2.5c-.2,-.3,-.3,-.5,-.7,-.5c-.8,0,-1.5,.7,-1.9,1.2c-.1,.2,-.3,.5,-.4,.7c-.3,.4,-.5,1,-.5,1.6c0,.4,.1,.7,.3,1c.2,.2,.5,.3,.8,.3c1,0,1.4,-.6,1.7,-1.2l.1,.1c-.1,0,-.1,.1,-.1,.2c0,0,0,.1,0,.2c0,.4,.2,.7,.7,.7Z" class="g0_336"/>
<path d="M400.6,822c-.2,0,-.2,-.1,-.3,-.3c0,-.2,-.1,-.4,-.4,-.4c-.1,0,-.2,.1,-.2,.3c0,.4,.5,.6,.9,.6c.6,0,.6,-.1,.9,-.5c.2,-.2,.3,-.5,.5,-.9c.1,-.4,.3,-.9,.5,-1.5l1,-3.7h.9v-.3h-.9c.3,-.8,.6,-2.3,.9,-2.7c0,-.2,.2,-.4,.5,-.4c.2,0,.3,.2,.4,.4c0,.2,.1,.3,.3,.3c.2,0,.3,-.1,.3,-.3c0,-.4,-.5,-.6,-.9,-.6c-1.4,0,-1.9,2.2,-2.2,3.3h-.9l-.1,.3h.9l-1.4,5.4c0,.2,-.3,1,-.7,1Z" class="g0_336"/>
<path d="M412.2,806.6c-2.1,1.4,-3.6,3.8,-3.6,6.9c0,2.7,1.5,5.5,3.6,6.8l.2,-.2c-2,-1.6,-2.6,-3.4,-2.6,-6.7c0,-3.3,.7,-5,2.6,-6.5l-.2,-.3Z" class="g0_336"/>
<path d="M420.6,811.8c0,-.6,-.4,-1,-1,-1c-.3,0,-.6,.1,-.9,.4c-.4,.2,-.7,.5,-.9,.8c0,-.6,-.4,-1.2,-1,-1.2c-1.2,0,-2.1,1.2,-2.5,2l.2,.1c.4,-.5,1.1,-1.7,2,-1.7c.3,0,.4,.5,.4,1c0,.3,-.1,.6,-.2,1.1l-.4,1.2c-.1,.6,-.4,1.4,-.7,1.8c-.1,.2,-.4,.7,-.8,.7c-.4,0,-.7,-.1,-.6,-.5c.1,-.4,0,-.8,-.4,-.8c-.4,0,-.6,.3,-.6,.8c0,.5,.5,.9,1,.9c1,0,1.8,-.8,2.2,-1.4c.1,.8,.5,1.4,1.3,1.4c1.2,0,2,-1.1,2.5,-1.8l-.2,-.2c-.5,.6,-1.2,1.7,-2,1.7c-.4,0,-.6,-.7,-.6,-1.3c0,-.3,0,-.7,.1,-1.3l.2,-.7c.1,-.6,.4,-1.3,.6,-1.6c.2,-.3,.6,-1,1,-1c.4,0,.4,.3,.3,.6c0,.4,.2,.6,.5,.6c.4,0,.5,-.3,.5,-.6Z" class="g0_336"/>
<path d="M422.8,816.5c0,.4,.3,.8,.7,.8c.2,0,.3,0,.4,-.1c0,.4,-.1,.7,-.3,1c-.2,.3,-.5,.7,-1,1l.3,.4c.3,-.2,.6,-.4,.8,-.6c.6,-.5,1,-1,1,-2c0,-.9,-.3,-1.3,-1,-1.3c-.5,0,-.9,.3,-.9,.8Z" class="g0_336"/>
<path d="M428.2,819.5c0,.5,.5,.9,1.1,.9c.5,0,.8,-.2,1.3,-.6c.9,-.6,2.1,-2.2,2.8,-3.4c.4,-.6,.8,-1.2,1.1,-1.8c.4,-.8,1.1,-2.1,1.1,-2.9c0,-.2,-.1,-.4,-.1,-.6c-.1,-.2,-.3,-.3,-.5,-.3c-.2,0,-.3,.1,-.5,.2c-.1,.2,-.2,.4,-.2,.7c0,.4,.3,.9,.3,1.3c0,.6,-.3,1.1,-.5,1.6c-.2,.5,-.5,.9,-.8,1.4h-.1l-.3,-1.9c-.1,-.6,-.3,-1.7,-.4,-2.1c-.2,-.7,-.4,-1.2,-1.4,-1.2c-1.1,0,-1.3,1.8,-1.6,2.6l.3,.1c.2,-.6,.6,-2.3,1.1,-2.3c.3,0,.5,1,.5,1.2c.1,.3,.2,.7,.3,1.4l.6,3.5c-.4,.8,-1.2,1.7,-1.8,2.1c-.2,.2,-.5,.3,-.7,.3c-.1,0,-.2,-.1,-.2,-.1c-.3,-.3,-.3,-.8,-.7,-.8c-.4,0,-.7,.3,-.7,.7Z" class="g0_336"/>
<path d="M436.9,806.6l-.1,.3c1.9,1.5,2.5,3.2,2.5,6.5c0,3.3,-.5,5.1,-2.5,6.7l.2,.2c2,-1.3,3.6,-4.1,3.6,-6.8c0,-3.1,-1.5,-5.5,-3.7,-6.9Z" class="g0_336"/>
<path d="M446.8,815.4h7.6v-.8h-7.6Zm0,-3h7.6v-.8h-7.6Z" class="g0_336"/>
<path d="M466.4,811.8c0,-.6,-.5,-1,-1,-1c-.3,0,-.6,.1,-1,.4c-.3,.2,-.6,.5,-.8,.8c0,-.6,-.4,-1.2,-1.1,-1.2c-1.1,0,-2.1,1.2,-2.4,2l.2,.1c.4,-.5,1.1,-1.7,2,-1.7c.3,0,.4,.5,.4,1c0,.3,-.1,.6,-.2,1.1l-.4,1.2c-.1,.6,-.4,1.4,-.7,1.8c-.2,.2,-.4,.7,-.8,.7c-.4,0,-.7,-.1,-.6,-.5c.1,-.4,0,-.8,-.4,-.8c-.5,0,-.6,.3,-.6,.8c0,.5,.4,.9,1,.9c1,0,1.8,-.8,2.1,-1.4h.1c.1,.8,.5,1.4,1.3,1.4c1.2,0,2,-1.1,2.5,-1.8l-.2,-.2c-.5,.6,-1.2,1.7,-2,1.7c-.4,0,-.6,-.7,-.6,-1.3c0,-.3,0,-.7,.1,-1.3l.2,-.7c.1,-.6,.4,-1.3,.6,-1.6c.2,-.3,.6,-1,1,-1c.4,0,.4,.3,.3,.6c0,.4,.2,.6,.5,.6c.4,0,.5,-.3,.5,-.6Z" class="g0_336"/>
<path d="M469.7,807.2c-.6,0,-1,-.5,-1,-1.1c0,-.8,.4,-1.7,1.3,-1.7c1.2,0,1.3,1,1.3,1.9c0,1,-.3,1.5,-.7,2.2c-.3,.4,-.7,.8,-1.1,1.3c-.5,.5,-1.1,1.1,-1.9,1.8v.3h4.6l.4,-2.1h-.4c0,.2,-.1,.4,-.2,.5c-.1,.4,-.5,.6,-1,.6h-2.1c.5,-.4,1,-.7,1.4,-1.1c.7,-.6,1.5,-1.4,1.9,-2.3c.2,-.3,.3,-.7,.3,-1.1c0,-.4,-.1,-.6,-.2,-.9c-.3,-.6,-.8,-1.1,-1.6,-1.2h-1.1c-.5,.1,-.9,.3,-1.2,.5c-.4,.3,-.7,.8,-.7,1.5c0,.4,.2,.8,.4,1c.2,.3,.5,.4,.9,.4c.4,0,.7,-.2,.7,-.5Z" class="g0_336"/>
<path d="M481,813h-3.3v1H481v3.3h1V814h3.2v-1H482v-3.2h-1V813Z" class="g0_336"/>
<path d="M488,819.5c0,.5,.4,.9,1.1,.9c.4,0,.8,-.2,1.3,-.6c.8,-.6,2,-2.2,2.8,-3.4c.3,-.6,.7,-1.2,1,-1.8c.4,-.8,1.1,-2.1,1.1,-2.9c0,-.2,0,-.4,-.1,-.6c-.1,-.2,-.3,-.3,-.5,-.3c-.2,0,-.3,.1,-.4,.2c-.2,.2,-.2,.4,-.2,.7c0,.4,.2,.9,.2,1.3c0,.6,-.2,1.1,-.5,1.6c-.2,.5,-.4,.9,-.8,1.4h-.1l-.3,-1.9c-.1,-.6,-.3,-1.7,-.4,-2.1c-.2,-.7,-.3,-1.2,-1.3,-1.2c-1.2,0,-1.4,1.8,-1.6,2.6l.3,.1c.1,-.6,.5,-2.3,1,-2.3c.3,0,.5,1,.5,1.2c.1,.3,.2,.7,.3,1.4l.6,3.5c-.3,.8,-1.2,1.7,-1.8,2.1c-.2,.2,-.5,.3,-.7,.3c-.1,0,-.2,-.1,-.2,-.1c-.2,-.3,-.2,-.8,-.7,-.8c-.4,0,-.6,.3,-.6,.7Z" class="g0_336"/>
<path d="M498.7,807.2c-.7,0,-1.1,-.5,-1.1,-1.1c0,-.8,.5,-1.7,1.4,-1.7c1.2,0,1.3,1,1.3,1.9c0,1,-.3,1.5,-.7,2.2c-.3,.4,-.7,.8,-1.2,1.3c-.4,.5,-1.1,1.1,-1.8,1.8v.3h4.6l.3,-2.1h-.3c0,.2,-.1,.4,-.2,.5c-.2,.4,-.5,.6,-1,.6h-2.1c.4,-.4,.9,-.7,1.3,-1.1c.8,-.6,1.6,-1.4,2,-2.3c.2,-.3,.3,-.7,.3,-1.1c0,-.4,-.1,-.6,-.2,-.9c-.3,-.6,-.8,-1.1,-1.7,-1.2h-1c-.5,.1,-.9,.3,-1.2,.5c-.4,.3,-.7,.8,-.7,1.5c0,.4,.1,.8,.4,1c.2,.3,.4,.4,.9,.4c.4,0,.6,-.2,.7,-.5Z" class="g0_336"/>
<path d="M507.2,813.9h7.6v-.8h-7.6Z" class="g0_336"/>
<path d="M521,807.6v.2c.5,0,1.1,.1,1.3,.2c.5,.2,.5,.4,.5,1v6.5c0,.3,0,.6,-.1,.8c-.1,.7,-.9,.7,-1.6,.8v.2h4.7v-.2c-.5,0,-1.3,-.1,-1.5,-.3c-.2,-.3,-.2,-.8,-.2,-1.4v-8.6c-.8,.4,-2.1,.8,-3.1,.8Z" class="g0_336"/>
</svg>