<?xml version="1.0" encoding="UTF-8" standalone="no"?>
<!DOCTYPE svg PUBLIC "-//W3C//DTD SVG 1.1//EN"
"http://www.w3.org/Graphics/SVG/1.1/DTD/svg11.dtd">
<svg viewBox="0 0 811 1017" version="1.1" xmlns="http://www.w3.org/2000/svg" xmlns:xlink="http://www.w3.org/1999/xlink">
<defs>
<style type="text/css"><![CDATA[
.g0_111{
fill: #0E0E0E;
}
]]></style>
</defs>
<path d="M330.9,456.1h-1.2v-8.5h1.2Zm6.4,0h-1.4l-2.5,-3.4c.4,0,.9,0,1.3,0l2.6,3.4ZM334.6,452c-.2,0,-.5,.1,-.8,.1h-2.3v-4.5h2.4c.2,0,.5,.1,.7,.1V452Zm.7,-4.2c.9,.4,1.4,1,1.4,2.1c0,.9,-.5,1.7,-1.4,2.1v-4.2Zm3.3,8.9l-3.2,-4.2c1.3,-.4,1.9,-1.4,1.9,-2.7c0,-2.1,-1.6,-2.9,-3.5,-2.9H329v9.8h2.5v-4h1.1l2.9,4h3.1Z" class="g0_111"/>
<path d="M342.7,451.4c1,0,1.5,-.9,1.7,-1.4l-.1,-.1c-.3,.3,-.7,1.1,-1,1.1c-.2,0,-.2,-.3,-.2,-.4c0,-.1,.1,-.3,.2,-.6c0,-.2,.1,-.5,.3,-1c.1,-.5,.3,-1.3,.3,-1.7c0,-.5,-.1,-.7,-.6,-.7c-.9,0,-1.5,.7,-1.9,1.4c0,-.2,.1,-.4,.1,-.7c0,-.4,-.1,-.7,-.5,-.7c-1,0,-1.3,.9,-1.6,1.8h.2c.2,-.4,.5,-1.5,1,-1.5c.1,0,.2,0,.2,.2c0,.2,0,.6,-.1,.8c-.1,.5,-.2,.9,-.4,1.4l-.7,2h.8l.6,-1.8c.2,-.6,.6,-1.5,1,-1.9c.2,-.3,.6,-.8,1,-.8c.1,0,.2,.1,.2,.4c0,0,0,.2,0,.2c-.1,.4,-.2,.7,-.3,1c-.2,.8,-.3,1.3,-.5,2.1c0,.1,-.1,.1,-.1,.2c0,.4,.1,.7,.4,.7Z" class="g0_111"/>
<path d="M407.8,577.8c-.3,0,-.4,-.2,-.5,-.5c0,-.2,-.1,-.5,-.5,-.5c-.2,0,-.3,.2,-.3,.4c0,.6,.7,.9,1.2,.9h.1c.8,0,.8,-.2,1.2,-.8c.3,-.3,.4,-.7,.6,-1.2c.2,-.5,.5,-1.2,.7,-2l1.4,-5.1h1.2l.1,-.4h-1.2c.3,-1.1,.7,-3.1,1.1,-3.7c.1,-.2,.4,-.5,.7,-.5c.3,0,.5,.2,.5,.5c.1,.2,.2,.5,.5,.5c.3,0,.4,-.2,.4,-.4c0,-.5,-.4,-.8,-.9,-.9h-.7c-1.6,.4,-2.3,3.1,-2.6,4.5h-1.3v.4h1.2l-2,7.4c-.1,.3,-.4,1.4,-.9,1.4Z" class="g0_111"/>
<path d="M415,570.5c0,-.3,-.3,-.5,-.6,-.5c-.3,0,-.5,.2,-.5,.5c0,.3,.2,.6,.5,.6c.3,0,.6,-.3,.6,-.6Zm-2.1,6.8c1,0,1.5,-.8,1.8,-1.4l-.2,-.1c-.2,.2,-.6,1,-1,1c-.1,0,-.3,-.1,-.3,-.2c0,-.3,.2,-.7,.2,-.8l.8,-2.1c.1,-.3,.1,-.4,.1,-.6c0,-.3,0,-.6,-.4,-.6c-.6,0,-1.5,.8,-1.7,1.4l.2,.1c.2,-.2,.6,-.9,.8,-.9c.2,0,.2,.2,.2,.3c.1,.2,0,.5,-.1,.7l-.7,2c-.1,.3,-.2,.5,-.2,.6c0,.4,.2,.6,.5,.6Z" class="g0_111"/>
<path d="M422.5,570.8c.6,0,.9,-.4,.9,-.9c0,-.5,-.3,-.9,-.9,-.9c-.4,0,-.8,.4,-.8,.9c0,.5,.4,.9,.8,.9Zm0,4.3c.6,0,.9,-.4,.9,-.8c0,-.5,-.3,-.9,-.9,-.9c-.4,0,-.8,.4,-.8,.9c0,.4,.4,.8,.8,.8Z" class="g0_111"/>
<path d="M431.5,574.3h-1.2v-8.5h1.2Zm6.4,0h-1.4L434,571c.4,0,.9,0,1.3,-.1l2.6,3.4Zm-2.6,-4.1c-.3,.1,-.6,.1,-.9,.1h-2.3v-4.5h2.4c.2,0,.5,.1,.8,.1v4.3Zm.6,-4.2c.9,.4,1.4,1.1,1.4,2.1c0,.9,-.5,1.8,-1.4,2.1V566Zm3.3,9L436,570.8c1.3,-.4,2,-1.4,2,-2.7c0,-2.1,-1.7,-2.9,-3.6,-2.9h-4.7V575h2.4v-4h1.1l2.9,4h3.1Z" class="g0_111"/>
<path d="M458.2,571.2l-2.9,-3.1l-.5,.5l1.8,2.2H444.8v.8h11.8l-1.8,2.1l.5,.5l2.9,-3Z" class="g0_111"/>
<path d="M466.2,574.3H465v-8.5h1.2Zm6.4,0h-1.4L468.7,571c.4,0,.9,0,1.3,-.1l2.6,3.4ZM470,570.2c-.3,.1,-.6,.1,-.9,.1h-2.3v-4.5h2.4c.2,0,.5,.1,.8,.1v4.3Zm.6,-4.2c.9,.4,1.4,1.1,1.4,2.1c0,.9,-.5,1.8,-1.4,2.1V566Zm3.3,9l-3.2,-4.2c1.3,-.4,2,-1.4,2,-2.7c0,-2.1,-1.7,-2.9,-3.6,-2.9h-4.7V575h2.4v-4h1.1l2.9,4h3.1Z" class="g0_111"/>
</svg>