<?xml version="1.0" encoding="UTF-8" standalone="no"?>
<!DOCTYPE svg PUBLIC "-//W3C//DTD SVG 1.1//EN"
"http://www.w3.org/Graphics/SVG/1.1/DTD/svg11.dtd">
<svg viewBox="0 0 811 1017" version="1.1" xmlns="http://www.w3.org/2000/svg" xmlns:xlink="http://www.w3.org/1999/xlink">
<defs>
<clipPath id="c0_335"><path d="M156.1,219.6V82.5h495V219.6Z"/></clipPath>
<clipPath id="c1_335"><path d="M121,800.5V547H724.4V800.5Z"/></clipPath>
<clipPath id="c2_335"><path d="M121.8,799.3V548.4H387.6V799.3Z"/></clipPath>
<style type="text/css"><![CDATA[
.g0_335{
fill: #FFF;
}
.g1_335{
fill: #4458A6;
}
.g2_335{
fill: #7E95CC;
}
.g3_335{
fill: #B6D3EA;
}
.g4_335{
fill: #EDF7FA;
}
.g5_335{
fill: #FACBC8;
}
.g6_335{
fill: #EE7F6A;
}
.g7_335{
fill: #BD4441;
}
.g8_335{
fill: #641011;
}
.g9_335{
fill: #040504;
}
.ga_335{
fill: #181818;
}
]]></style>
</defs>
<image clip-path="url(#c0_335)" preserveAspectRatio="none" x="156" y="83" width="495" height="137" xlink:href="img/1.jpg"/>
<path d="M429.2,786.3H663.9V551.5H429.2Z" class="g0_335"/>
<path d="M543,689.6l2.4,.3h2.3c23.6,-2.1,27.2,-34,4.6,-41.1l-2.2,-.5l-2.4,-.3c-24.9,-.5,-30.8,33.1,-7.1,41l.2,.1l2.2,.5Z" class="g1_335"/>
<path d="M540.8,689.1l-.2,-.1l-2.4,-.8c-22.5,-10.7,-12.7,-43.3,11.9,-39.9l2.2,.5h.2c23.7,7.9,17.8,41.6,-7.1,41.1l-2.4,-.3l-2.2,-.5Zm-.2,21.3l2.4,.3l2.4,.1c52.7,-.6,59,-73.8,7.1,-83.4l-2.4,-.2C497.4,624.8,487,697.5,538.2,710l2.4,.4Z" class="g2_335"/>
<path d="M547.7,731.8h-3.2l-1.5,-.1c-32.6,-1.9,-58.2,-28.2,-59.3,-60.8v-3.2c.6,-32.9,26.4,-59.6,59.3,-61.6h5.6c32.5,1,58.8,26.7,60.7,59.3l.1,1.5v.8c.6,33,-24.2,60.7,-56.9,63.8l-2.4,.2l-1.5,.1h-.9ZM504.6,670.1l.2,2.4l.2,2.4c3,20.2,19.9,35.3,40.4,35.9h2.3l2.4,-.1c20.4,-1.8,36.5,-17.9,38.2,-38.2l.2,-2.4v-2.4l-.2,-2.3c-6.2,-51,-77.3,-51,-83.5,0l-.2,2.3v2.4Z" class="g3_335"/>
<path d="M547.7,752.8h-2.3l-2.4,-.1l-2.4,-.1c-42.6,-3.1,-76,-37.4,-77.8,-80.1l-.1,-2.4v-2.4c.7,-43.6,34.4,-79.3,77.9,-82.4l2.4,-.1l2.4,-.1h2.3l2.4,.1c42.7,1.8,77,35.2,80.1,77.8l.1,2.4l.1,2.3c.5,43.7,-32.2,80.3,-75.6,84.7l-2.3,.2l-2.4,.1l-2.4,.1Zm-64,-82.7v.8l.1,1.6l.1,2.4c3.1,31.8,29.4,56.2,61.5,56.9h3.2c33.1,-1.1,59.7,-27.7,60.8,-60.9v-4l-.1,-1.5c-1.9,-32.6,-28.2,-58.3,-60.7,-59.3h-3.2c-33,.6,-59.7,26.4,-61.6,59.3l-.1,1.5v3.2Z" class="g4_335"/>
<path d="M547.7,773.7H543l-2.4,-.1C486.4,770.4,443.7,726.8,441.8,672.5l-.1,-2.4v-2.4c.8,-55.2,43.8,-100.2,98.9,-103.4l2.4,-.1l2.4,-.1h2.3l2.4,.1c54.3,1.9,97.9,44.6,101.1,98.8l.1,2.4v2.3c.6,55.3,-41.4,101.2,-96.5,105.7l-2.3,.2l-2.4,.1h-2.4Zm-85,-103.6l.1,2.4l.1,2.4l.2,2.3c4.3,42.5,39.5,74.9,82.3,75.6h2.3l2.4,-.1c43.6,-1.9,78.3,-36.6,80.2,-80.2l.1,-2.4v-2.4l-.1,-2.3l-.1,-2.4c-3.1,-42.6,-37.4,-76,-80.1,-77.8l-2.4,-.1h-2.3c-43.7,.7,-79.3,34.4,-82.5,77.9l-.1,2.4l-.1,2.3v2.4Z" class="g5_335"/>
<path d="M591.7,786.3H501.4l-1.1,-.4l-2.4,-1C466.7,771.8,442,746.7,429.6,715.2l-.4,-1.1V623.8c12.2,-32,37.1,-57.6,68.7,-70.9l2.4,-.9l1.1,-.5h90.3l1.1,.5c31.5,12.4,56.7,37.1,69.7,68.3l1,2.4l.4,1.1v90.3c-5.5,14.3,-13.6,27.6,-23.9,39l-2.2,2.3v.1c-11.4,12,-25.1,21.7,-40.3,28.4l-.1,.1l-2.2,.9l-2.4,1l-1.1,.4ZM441.7,670.1l.1,2.4l.1,2.4l.2,2.3c4.3,54.1,49,95.8,103.3,96.5h4.7c55.2,-2,99.2,-46,101.2,-101.2l.1,-2.4v-2.4l-.1,-2.3l-.1,-2.4C648,608.8,604.4,566.1,550.1,564.2l-2.4,-.1h-2.3c-55.3,.7,-100.3,43.8,-103.5,98.9l-.1,2.4l-.1,2.3v2.4Z" class="g6_335"/>
<path d="M501.4,786.3H458.5l-.9,-.7c-10.4,-7.9,-19.8,-17.3,-27.8,-27.7l-.6,-.9V714.1l.4,1.1c12.8,32.3,38.4,57.9,70.7,70.7l1.1,.4Z" class="g7_335"/>
<path d="M634.6,786.3H591.7l1.1,-.4c32.3,-12.8,57.9,-38.4,70.7,-70.7l.4,-1.1V757l-.6,.9c-8,10.4,-17.4,19.8,-27.8,27.7l-.9,.7Z" class="g7_335"/>
<path d="M429.2,623.8V580.9l.6,-.9c8,-10.5,17.4,-19.8,27.8,-27.8l.9,-.7h42.9l-1.1,.5c-32.3,12.7,-57.9,38.4,-70.7,70.7l-.4,1.1Z" class="g7_335"/>
<path d="M663.9,623.8l-.4,-1.1C650.7,590.4,625.1,564.7,592.8,552l-1.1,-.5h42.9l.9,.7c10.4,8,19.8,17.3,27.8,27.8l.6,.9v42.9Z" class="g7_335"/>
<path d="M431.5,786.3h27l-.9,-.7c-10.4,-7.9,-19.8,-17.3,-27.8,-27.7l-.6,-.9v29.3h2.3Z" class="g8_335"/>
<path d="M635.5,786.3h28.4V757l-.6,.9c-8,10.4,-17.4,19.8,-27.8,27.7l-.9,.7h.9Z" class="g8_335"/>
<path d="M429.8,580l1.7,-2.2c7.6,-9.6,16.4,-18.2,26.1,-25.6l.9,-.7H429.2v29.4l.6,-.9Z" class="g8_335"/>
<path d="M663.9,580.9V551.5H634.6l.9,.7c10.4,8,19.8,17.3,27.8,27.8l.6,.9Z" class="g8_335"/>
<path d="M462.3,789.4h.8v-3.1h-.8Z" class="g9_335"/>
<path d="M452.9,796.8h5.5v-.7h-5.5Z" class="g9_335"/>
<path d="M460.5,798.5h1.4v-4.9l-1.6,.3v-.8l1.6,-.3h.8v5.7h1.5v.7h-3.7v-.7Z" class="g9_335"/>
<path d="M465.9,799.2h.9v-1.1h-.9Z" class="g9_335"/>
<path d="M470.6,792.7c.7,0,1.3,.2,1.6,.8c.4,.6,.6,1.4,.6,2.5c0,1.1,-.2,1.9,-.6,2.5c-.3,.5,-.9,.8,-1.6,.8c-.7,0,-1.3,-.3,-1.7,-.8c-.3,-.6,-.5,-1.4,-.5,-2.5c0,-1.1,.2,-1.9,.5,-2.5c.4,-.6,1,-.8,1.7,-.8Zm0,.6c-.5,0,-.8,.3,-1,.7c-.2,.4,-.4,1.1,-.4,2c0,.9,.2,1.5,.4,2c.2,.4,.5,.6,1,.6c.4,0,.8,-.2,1,-.6c.2,-.5,.3,-1.1,.3,-2c0,-.9,-.1,-1.6,-.3,-2c-.2,-.4,-.6,-.7,-1,-.7Z" class="g9_335"/>
<path d="M504.2,789.4h.8v-3.1h-.8Z" class="g9_335"/>
<path d="M494.8,796.8h5.6v-.7h-5.6Z" class="g9_335"/>
<path d="M504.1,792.7c.7,0,1.3,.2,1.7,.8c.3,.6,.5,1.4,.5,2.5c0,1.1,-.2,1.9,-.5,2.5c-.4,.5,-1,.8,-1.7,.8c-.7,0,-1.3,-.3,-1.7,-.8c-.3,-.6,-.5,-1.4,-.5,-2.5c0,-1.1,.2,-1.9,.5,-2.5c.4,-.6,1,-.8,1.7,-.8Zm0,.6c-.4,0,-.8,.3,-1,.7c-.2,.4,-.3,1.1,-.3,2c0,.9,.1,1.5,.3,2c.2,.4,.6,.6,1,.6c.5,0,.8,-.2,1,-.6c.2,-.5,.4,-1.1,.4,-2c0,-.9,-.2,-1.6,-.4,-2c-.2,-.4,-.5,-.7,-1,-.7Z" class="g9_335"/>
<path d="M507.9,799.2h.9v-1.1h-.9Z" class="g9_335"/>
<path d="M510.7,792.8h3.4v.7h-2.6v1.6l.3,-.1l.4,-.1c.7,0,1.3,.2,1.7,.6c.4,.4,.7,1,.7,1.6c0,.7,-.3,1.3,-.7,1.6c-.4,.4,-1,.6,-1.8,.6c-.3,0,-.6,0,-.8,0c-.3,-.1,-.6,-.2,-.9,-.2v-.9c.3,.1,.5,.2,.8,.3c.3,.1,.6,.1,.9,.1c.5,0,.9,-.1,1.2,-.4c.2,-.3,.4,-.6,.4,-1.1c0,-.4,-.2,-.8,-.4,-1c-.3,-.3,-.7,-.4,-1.2,-.4c-.3,0,-.5,0,-.7,.1c-.3,0,-.5,.1,-.7,.2v-3.2Z" class="g9_335"/>
<path d="M546.2,789.4h.7v-3.1h-.7Z" class="g9_335"/>
<path d="M542.3,792.7c.8,0,1.3,.2,1.7,.8c.4,.6,.6,1.4,.6,2.5c0,1.1,-.2,1.9,-.6,2.5c-.4,.5,-.9,.8,-1.7,.8c-.7,0,-1.2,-.3,-1.6,-.8c-.4,-.6,-.6,-1.4,-.6,-2.5c0,-1.1,.2,-1.9,.6,-2.5c.4,-.6,.9,-.8,1.6,-.8Zm0,.6c-.4,0,-.8,.3,-1,.7c-.2,.4,-.3,1.1,-.3,2c0,.9,.1,1.5,.3,2c.2,.4,.6,.6,1,.6c.5,0,.8,-.2,1,-.6c.3,-.5,.4,-1.1,.4,-2c0,-.9,-.1,-1.6,-.4,-2c-.2,-.4,-.5,-.7,-1,-.7Z" class="g9_335"/>
<path d="M546.1,799.2h.9v-1.1h-.9Z" class="g9_335"/>
<path d="M550.8,792.7c.7,0,1.2,.2,1.6,.8c.4,.6,.6,1.4,.6,2.5c0,1.1,-.2,1.9,-.6,2.5c-.4,.5,-.9,.8,-1.6,.8c-.8,0,-1.3,-.3,-1.7,-.8c-.4,-.6,-.6,-1.4,-.6,-2.5c0,-1.1,.2,-1.9,.6,-2.5c.4,-.6,.9,-.8,1.7,-.8Zm0,.6c-.5,0,-.8,.3,-1.1,.7c-.2,.4,-.3,1.1,-.3,2c0,.9,.1,1.5,.3,2c.3,.4,.6,.6,1.1,.6c.4,0,.7,-.2,1,-.6c.2,-.5,.3,-1.1,.3,-2c0,-.9,-.1,-1.6,-.3,-2c-.3,-.4,-.6,-.7,-1,-.7Z" class="g9_335"/>
<path d="M588.1,789.4h.7v-3.1h-.7Z" class="g9_335"/>
<path d="M584.3,792.7c.7,0,1.2,.2,1.6,.8c.4,.6,.6,1.4,.6,2.5c0,1.1,-.2,1.9,-.6,2.5c-.4,.5,-.9,.8,-1.6,.8c-.8,0,-1.3,-.3,-1.7,-.8c-.4,-.6,-.6,-1.4,-.6,-2.5c0,-1.1,.2,-1.9,.6,-2.5c.4,-.6,.9,-.8,1.7,-.8Zm0,.6c-.5,0,-.8,.3,-1.1,.7c-.2,.4,-.3,1.1,-.3,2c0,.9,.1,1.5,.3,2c.3,.4,.6,.6,1.1,.6c.4,0,.7,-.2,1,-.6c.2,-.5,.3,-1.1,.3,-2c0,-.9,-.1,-1.6,-.3,-2c-.3,-.4,-.6,-.7,-1,-.7Z" class="g9_335"/>
<path d="M588,799.2h.9v-1.1H588Z" class="g9_335"/>
<path d="M590.8,792.8h3.4v.7h-2.6v1.6l.4,-.1l.4,-.1c.7,0,1.3,.2,1.7,.6c.4,.4,.6,1,.6,1.6c0,.7,-.2,1.3,-.6,1.6c-.5,.4,-1.1,.6,-1.9,.6c-.2,0,-.5,0,-.8,0c-.3,-.1,-.5,-.2,-.8,-.2v-.9c.2,.1,.5,.2,.8,.3c.2,.1,.5,.1,.8,.1c.5,0,.9,-.1,1.2,-.4c.3,-.3,.4,-.6,.4,-1.1c0,-.4,-.1,-.8,-.4,-1c-.3,-.3,-.7,-.4,-1.2,-.4c-.2,0,-.4,0,-.7,.1c-.2,0,-.4,.1,-.7,.2v-3.2Z" class="g9_335"/>
<path d="M630,789.4h.8v-3.1H630Z" class="g9_335"/>
<path d="M624.5,798.5h1.4v-4.9l-1.6,.3v-.8l1.6,-.3h.9v5.7h1.4v.7h-3.7v-.7Z" class="g9_335"/>
<path d="M629.9,799.2h.9v-1.1h-.9Z" class="g9_335"/>
<path d="M634.6,792.7c.7,0,1.3,.2,1.7,.8c.3,.6,.5,1.4,.5,2.5c0,1.1,-.2,1.9,-.5,2.5c-.4,.5,-1,.8,-1.7,.8c-.7,0,-1.3,-.3,-1.7,-.8c-.3,-.6,-.5,-1.4,-.5,-2.5c0,-1.1,.2,-1.9,.5,-2.5c.4,-.6,1,-.8,1.7,-.8Zm0,.6c-.4,0,-.8,.3,-1,.7c-.2,.4,-.3,1.1,-.3,2c0,.9,.1,1.5,.3,2c.2,.4,.6,.6,1,.6c.5,0,.8,-.2,1,-.6c.2,-.5,.4,-1.1,.4,-2c0,-.9,-.2,-1.6,-.4,-2c-.2,-.4,-.5,-.7,-1,-.7Z" class="g9_335"/>
<path d="M426.1,753.2h3.1v-.8h-3.1Z" class="g9_335"/>
<path d="M402.5,753.7H408V753h-5.5Z" class="g9_335"/>
<path d="M410,755.4h1.5v-4.9l-1.6,.3V750l1.6,-.3h.8v5.7h1.4v.7H410v-.7Z" class="g9_335"/>
<path d="M415.5,756.1h.9V755h-.9Z" class="g9_335"/>
<path d="M420.2,749.6c.7,0,1.2,.3,1.6,.8c.4,.6,.6,1.4,.6,2.5c0,1.1,-.2,1.9,-.6,2.5c-.4,.6,-.9,.9,-1.6,.9c-.8,0,-1.3,-.3,-1.7,-.9c-.4,-.6,-.6,-1.4,-.6,-2.5c0,-1.1,.2,-1.9,.6,-2.5c.4,-.5,.9,-.8,1.7,-.8Zm0,.7c-.5,0,-.8,.2,-1,.6c-.3,.5,-.4,1.1,-.4,2c0,.9,.1,1.6,.4,2c.2,.4,.5,.7,1,.7c.4,0,.8,-.3,1,-.7c.2,-.4,.3,-1.1,.3,-2c0,-.9,-.1,-1.5,-.3,-2c-.2,-.4,-.6,-.6,-1,-.6Z" class="g9_335"/>
<path d="M426.1,711.2h3.1v-.7h-3.1Z" class="g9_335"/>
<path d="M402.5,711.8H408v-.7h-5.5Z" class="g9_335"/>
<path d="M411.7,707.7c.8,0,1.3,.2,1.7,.8c.4,.6,.6,1.4,.6,2.5c0,1.1,-.2,1.9,-.6,2.5c-.4,.5,-.9,.8,-1.7,.8c-.7,0,-1.2,-.3,-1.6,-.8c-.4,-.6,-.6,-1.4,-.6,-2.5c0,-1.1,.2,-1.9,.6,-2.5c.4,-.6,.9,-.8,1.6,-.8Zm0,.6c-.4,0,-.7,.3,-1,.7c-.2,.4,-.3,1.1,-.3,2c0,.9,.1,1.5,.3,2c.3,.4,.6,.6,1,.6c.5,0,.8,-.2,1.1,-.6c.2,-.5,.3,-1.1,.3,-2c0,-.9,-.1,-1.6,-.3,-2c-.3,-.4,-.6,-.7,-1.1,-.7Z" class="g9_335"/>
<path d="M415.5,714.2h.9v-1.1h-.9Z" class="g9_335"/>
<path d="M418.3,707.8h3.4v.7h-2.6v1.6l.4,-.1h.4c.7,0,1.3,.2,1.7,.5c.4,.4,.6,1,.6,1.6c0,.7,-.2,1.3,-.6,1.7c-.5,.3,-1.1,.5,-1.9,.5c-.2,0,-.5,0,-.8,0c-.3,-.1,-.6,-.2,-.9,-.2v-.9c.3,.1,.6,.2,.8,.3c.3,.1,.6,.1,.9,.1c.5,0,.9,-.1,1.2,-.4c.3,-.3,.4,-.6,.4,-1.1c0,-.4,-.1,-.8,-.4,-1c-.3,-.3,-.7,-.4,-1.2,-.4c-.2,0,-.4,0,-.7,.1c-.2,0,-.4,.1,-.7,.2v-3.2Z" class="g9_335"/>
<path d="M426.1,669.3h3.1v-.8h-3.1Z" class="g9_335"/>
<path d="M411.7,665.7c.8,0,1.3,.3,1.7,.9c.4,.6,.6,1.4,.6,2.5c0,1.1,-.2,1.9,-.6,2.5c-.4,.5,-.9,.8,-1.7,.8c-.7,0,-1.2,-.3,-1.6,-.8c-.4,-.6,-.6,-1.4,-.6,-2.5c0,-1.1,.2,-1.9,.6,-2.5c.4,-.6,.9,-.9,1.6,-.9Zm0,.7c-.4,0,-.7,.2,-1,.7c-.2,.4,-.3,1.1,-.3,2c0,.9,.1,1.5,.3,2c.3,.4,.6,.6,1,.6c.5,0,.8,-.2,1.1,-.6c.2,-.5,.3,-1.1,.3,-2c0,-.9,-.1,-1.6,-.3,-2c-.3,-.5,-.6,-.7,-1.1,-.7Z" class="g9_335"/>
<path d="M415.5,672.3h.9v-1.1h-.9Z" class="g9_335"/>
<path d="M420.2,665.7c.7,0,1.2,.3,1.6,.9c.4,.6,.6,1.4,.6,2.5c0,1.1,-.2,1.9,-.6,2.5c-.4,.5,-.9,.8,-1.6,.8c-.8,0,-1.3,-.3,-1.7,-.8c-.4,-.6,-.6,-1.4,-.6,-2.5c0,-1.1,.2,-1.9,.6,-2.5c.4,-.6,.9,-.9,1.7,-.9Zm0,.7c-.5,0,-.8,.2,-1,.7c-.3,.4,-.4,1.1,-.4,2c0,.9,.1,1.5,.4,2c.2,.4,.5,.6,1,.6c.4,0,.8,-.2,1,-.6c.2,-.5,.3,-1.1,.3,-2c0,-.9,-.1,-1.6,-.3,-2c-.2,-.5,-.6,-.7,-1,-.7Z" class="g9_335"/>
<path d="M426.1,627.4h3.1v-.8h-3.1Z" class="g9_335"/>
<path d="M411.7,623.8c.8,0,1.3,.3,1.7,.9c.4,.5,.6,1.4,.6,2.4c0,1.1,-.2,2,-.6,2.5c-.4,.6,-.9,.9,-1.7,.9c-.7,0,-1.2,-.3,-1.6,-.9c-.4,-.5,-.6,-1.4,-.6,-2.5c0,-1,.2,-1.9,.6,-2.4c.4,-.6,.9,-.9,1.6,-.9Zm0,.7c-.4,0,-.7,.2,-1,.7c-.2,.4,-.3,1.1,-.3,1.9c0,.9,.1,1.6,.3,2c.3,.5,.6,.7,1,.7c.5,0,.8,-.2,1.1,-.7c.2,-.4,.3,-1.1,.3,-2c0,-.8,-.1,-1.5,-.3,-1.9c-.3,-.5,-.6,-.7,-1.1,-.7Z" class="g9_335"/>
<path d="M415.5,630.4h.9v-1.1h-.9Z" class="g9_335"/>
<path d="M418.3,623.9h3.4v.8h-2.6v1.5l.4,-.1h.4c.7,0,1.3,.2,1.7,.6c.4,.4,.6,.9,.6,1.6c0,.7,-.2,1.2,-.6,1.6c-.5,.4,-1.1,.6,-1.9,.6c-.2,0,-.5,0,-.8,-.1c-.3,0,-.6,-.1,-.9,-.2v-.9c.3,.2,.6,.3,.8,.3c.3,.1,.6,.1,.9,.1c.5,0,.9,-.1,1.2,-.3c.3,-.3,.4,-.7,.4,-1.1c0,-.5,-.1,-.8,-.4,-1.1c-.3,-.2,-.7,-.4,-1.2,-.4c-.2,0,-.4,.1,-.7,.1c-.2,.1,-.4,.1,-.7,.3v-3.3Z" class="g9_335"/>
<path d="M426.1,585.5h3.1v-.8h-3.1Z" class="g9_335"/>
<path d="M410,587.7h1.5v-4.9l-1.6,.3v-.8l1.6,-.3h.8v5.7h1.4v.7H410v-.7Z" class="g9_335"/>
<path d="M415.5,588.4h.9v-1.1h-.9Z" class="g9_335"/>
<path d="M420.2,581.9c.7,0,1.2,.3,1.6,.8c.4,.6,.6,1.4,.6,2.5c0,1.1,-.2,1.9,-.6,2.5c-.4,.6,-.9,.9,-1.6,.9c-.8,0,-1.3,-.3,-1.7,-.9c-.4,-.6,-.6,-1.4,-.6,-2.5c0,-1.1,.2,-1.9,.6,-2.5c.4,-.5,.9,-.8,1.7,-.8Zm0,.7c-.5,0,-.8,.2,-1,.6c-.3,.5,-.4,1.1,-.4,2c0,.9,.1,1.6,.4,2c.2,.4,.5,.7,1,.7c.4,0,.8,-.3,1,-.7c.2,-.4,.3,-1.1,.3,-2c0,-.9,-.1,-1.5,-.3,-2c-.2,-.4,-.6,-.6,-1,-.6Z" class="g9_335"/>
<path d="M543,689.6l.1,-.4l-2.2,-.5c-6.7,-1.8,-12.2,-7.3,-14.1,-14v-.1l-.5,-2.2l-.3,-2.3v-2.3l.3,-2.4l.5,-2.1v-.2c1.9,-6.6,7.3,-12,13.9,-13.9l.2,-.1l2.2,-.5l2.3,-.2h2.3l2.3,.2l2.2,.5l.2,.1c6.6,1.9,11.9,7.3,13.9,13.9v.2l.4,-.1l-.4,.1l.5,2.1c2.2,13.1,-8.2,24.8,-21.4,24.1l-2.4,-.3v.4l.1,-.4l-.1,.4l-.1,.4l2.4,.2h.1c26.8,.3,31,-36.6,4.8,-42.3h-.1l-2.3,-.3c-25.6,-.5,-31.4,34,-7.1,41.9l2.2,.5l.1,-.4Z" class="ga_335"/>
<path d="M538.3,709.7v-.1l-2.3,-.5C493.5,696.8,495.2,638,538.3,628.2l2.4,-.4l2.3,-.3c45.1,-2.6,62.4,55.2,23.5,77.9l-2.3,1.1l-2.6,1.1l.3,.7l2.6,-1.1c42.3,-21.3,25.8,-83,-21.5,-80.4h-.1l-2.3,.2c-47,8.2,-48.9,72.5,-2.4,83.4l.1,-.7Z" class="ga_335"/>
<path d="M545.4,731.4l-4.8,-.2l-4.7,-.7C464.3,715.8,468.1,616,540.6,606.7l4.8,-.3l4.7,.1l4.7,.5c28.9,3.8,51.2,27,54,56l.2,4.7v4.8c-1.7,29.1,-23.2,53.1,-51.9,58l-4.7,.7l-4.7,.2h-2.3v.8h2.3l4.8,-.3c31.2,-3,55.4,-28.1,57.2,-59.4l.1,-4.8c-.7,-33.1,-26.6,-60,-59.7,-61.9l-4.7,-.1h-.1l-4.7,.2c-31.2,3,-55.4,28.2,-57.2,59.4v.1l-.1,4.7c.6,30.4,22.6,56,52.5,61.2l4.8,.6l4.7,.3l.1,-.8Z" class="ga_335"/>
<path d="M500.6,736.9L498,735.1l-3.7,-2.9L492,730.3C463.8,705.1,456.3,664.1,473.9,630.6l2.7,-4.6l1.5,-2.3c21.2,-32,61.5,-45.1,97.5,-31.6l4.6,2l4.6,2.2l4.7,2.7l2.3,1.4c32,21.2,45.1,61.6,31.5,97.5l-1.9,4.7l-2.3,4.6c-17.6,33.4,-55.6,50.5,-92.3,41.4l-4.6,-1.3l-4.7,-1.6l-1.3,-.5l-1.3,3.3l1.4,.5l4.8,1.7c39.5,12.2,81.8,-5.3,101.1,-41.8l.1,-.1l2.3,-4.7c17.3,-38.3,4.1,-83.5,-30.9,-106.6L591.4,596l-.1,-.1l-4.8,-2.7h-.1c-38.9,-20.5,-87,-8.2,-111.2,28.5h-.1l-1.5,2.4c-22.4,36.5,-14.5,83.7,18.5,110.9l3.7,2.9l.1,.1l2.7,1.8l2,-2.9Z" class="g9_335"/>
<path clip-path="url(#c1_335)" d="M528.8,772.2v-.3l-.7,-.2c-7.8,-1.4,-15.6,-3.7,-22.9,-6.9l-.5,-.2l-1.9,-.8l-2.3,-1.2l-.8,-.3l-1.6,-.9l-2.4,-1.2l-.4,-.3l-1.9,-1.1l-2.1,-1.3l-.3,-.1l-2.4,-1.6l-.9,-.6l-1.4,-1l-2,-1.4l-.4,-.3c-11,-8.2,-20.3,-18.6,-27.2,-30.4l-1.1,-1.9l-.3,-.5L454,717.4l-.8,-1.6l-.4,-.8l-1.1,-2.4l-.9,-1.9l-.2,-.4l-.9,-2.4l-1,-2.3l-.2,-.8l-.6,-1.6l-.8,-2.4l-.7,-2.3l-.3,-.9l-.4,-1.5c-5.4,-20.2,-4.7,-41.7,2.2,-61.4l.6,-1.7l.2,-.7l1,-2.4l.9,-2.3l.2,-.5l.9,-1.9l1.1,-2.3l.4,-.8l.8,-1.6l1.3,-2.4l.3,-.4l1.1,-1.9l1.2,-2.1l.2,-.3l1.5,-2.4l.7,-1l.9,-1.3c8,-11.3,18.1,-20.9,29.8,-28.2l.3,-.2l2.1,-1.3l1.9,-1l.4,-.3l2.4,-1.3l1.6,-.8l.8,-.4l2.3,-1.1l1.9,-.9l.5,-.2c3.8,-1.6,7.8,-3.1,11.8,-4.2l.9,-.3l1.5,-.4l2.3,-.6l2.4,-.6l2.4,-.5l1.6,-.3l.7,-.1c14.9,-2.6,30.3,-1.8,44.9,2.1l1.5,.4l.9,.3c4,1.1,7.9,2.6,11.8,4.2l.4,.2l2,.9l2.3,1.1l.8,.4l1.6,.8l2.3,1.3l.5,.3l1.9,1l2.1,1.3l.3,.2l2.3,1.5l1,.7l1.4,.9l2,1.4l.2,-.3l-.3,.3l.5,.3l2.3,1.9l.3,.2l.3,-.3l-.3,.3l2.1,1.7c3.7,3.1,7.2,6.5,10.4,10.1l1.4,1.6l.3,-.2l-.3,.2l.7,.8l1.7,2.1l.3,-.3l-.3,.3l.2,.2l1.8,2.4l.3,-.2l-.3,.2l.3,.4l.3,-.2l-.3,.2l1.4,2l1,1.3l.7,1l1.5,2.4l.2,.3l1.2,2.1l1.1,1.9l.3,.4l1.3,2.4l.8,1.6l.4,.8l1.1,2.3l.8,1.9l.2,.5l1,2.3l.9,2.4l.3,.7l.6,1.7c2.6,7.6,4.4,15.5,5.2,23.6l.3,2.4l.3,-.1l-.4,.1l.2,2.3h.4h-.4l.1,2.4c.3,7.1,-.2,14.2,-1.4,21.2l-.2,.8L649,689l-.5,2.4l-.5,2.3l-.6,2.4l-.4,1.5l-.3,.9l-.7,2.3l-.8,2.4l-.6,1.6l-.3,.8l-.9,2.3l-1,2.4l-.2,.4l-.8,1.9l-1.1,2.4l-.4,.8l-.8,1.6l-1.3,2.3l-.3,.5l-1.1,1.9l-1.2,2.1l-.2,.3l-1.5,2.3l-.7,1l-1,1.4l-1.4,1.9l.3,.3l-.3,-.3l-.3,.4l-1.8,2.4l-.2,.3l-1.7,2.1l-.7,.7l.3,.3l-.3,-.3l-1.4,1.6l-1,1.1l.3,.3l-.3,-.3l-1.2,1.3c-2.3,2.5,-4.8,4.9,-7.4,7.1l-.8,.6l.2,.3l-.2,-.3l-2.1,1.8l.3,.2l-.3,-.2l-.3,.2l-2.3,1.8l-.5,.3h.1l-2,1.4l-1.4,1l.2,.3l-.2,-.3l-1,.6l-2.3,1.6l-.3,.1l-2.1,1.3l-1.9,1.1l-.5,.3l-2.3,1.2l-1.6,.9l-.8,.3l-2.3,1.2l-2,.8l-.4,.2c-17.8,7.7,-37.5,10.3,-56.7,7.4l-2.4,-.4v.4v-.3v.3l-.1,.4l2.4,.4c94.7,12.8,156.5,-93.4,97.8,-169.5l-.2,-.3C571.5,533.4,461.5,560.9,443.3,648.7l-.3,1.7l-.1,.7c-9.8,57.4,28.5,111.5,85.8,121.5l.1,-.4Z" class="ga_335"/>
<path d="M501.5,786l-1.1,-.5c-3.2,-1.3,-6.5,-2.7,-9.6,-4.3l-1.4,-.6l-.3,.6l1.3,.7c3.2,1.6,6.5,3,9.8,4.3l1.1,.5l.2,-.7Z" class="ga_335"/>
<path d="M473.8,771.1l-1.7,-1.3l-.6,-.4L469.7,768l-1.2,-1v.1l-1.2,-1l-1.7,-1.4l-.3,.3l.3,-.3l-.6,-.5l-2.1,-1.9l-.3,-.2L460.3,760l-.1,-.1l-2.3,-2.3l-.3,.3l.3,-.3l-2.3,-2.4c-2.9,-3,-5.6,-6.1,-8.1,-9.4l-1.4,-1.9l-.4,-.5L444,741l-.3,-.3l-1.4,-2l-1,-1.6l-.5,-.8l-1.5,-2.4l-.3,-.5l-1.1,-1.8c-3,-5.3,-5.7,-10.9,-8,-16.6l-.4,-1.1l-.7,.3l.4,1.1c8.7,22,23.4,41.1,42.4,55.1l1.8,1.3l.4,-.6Z" class="ga_335"/>
<path d="M663.6,713.9l-.4,1.1l-1,2.4l-1,2.3v.1l-1.1,2.3l-1.1,2.4l.3,.2l-.3,-.2l-.1,.2l-1.1,2.2l-1.3,2.3l-1.3,2.4l-1.1,1.8l-.3,.5l-1.5,2.4l-.5,.8l-1,1.6l-1.4,2l.3,.2l-.3,-.2l-.3,.3l-1.7,2.4l.3,.2l-.3,-.2l-.4,.5l-1.4,1.9l.3,.2l-.3,-.2l-.9,1.2l.3,.2l-.3,-.2l-.9,1.1l-1.5,1.8l-.5,.6l-1.9,2.1l.3,.3l-.3,-.3l-.2,.3l-2.1,2.3h-.1l-2.3,2.4l.3,.3l-.3,-.3l-2.4,2.3v.1l-1,.9l.5,.5l1,-.9c13.3,-12.6,23.8,-28.1,30.6,-45.2l.4,-1.1l-.7,-.3Z" class="ga_335"/>
<path d="M617.1,772.6l-.8,.5l-1.5,1l-.9,.6l-2.3,1.5l-.6,.3l-1.8,1l-2.4,1.4c-3.1,1.7,-6.2,3.2,-9.4,4.7h-.1l-2.3,1l-2.4,.9l-1.1,.5l.3,.7l1.1,-.5c8.4,-3.3,16.4,-7.4,23.8,-12.4l.8,-.6l-.4,-.6Z" class="ga_335"/>
<path d="M429.5,623.9l.4,-1.1c1.3,-3.2,2.7,-6.3,4.2,-9.4l.1,-.2l1.1,-2.2l1.3,-2.4l1.3,-2.3l1.1,-1.8l.3,-.6l1.5,-2.4l.5,-.8l1,-1.5l1.4,-2l.3,-.4l1.7,-2.4l.4,-.5l1.3,-1.8c2.6,-3.3,5.3,-6.4,8.1,-9.4l.1,-.1l2.3,-2.3l2.3,-2.4h.1l1,-.9l-.5,-.6l-1,.9C446.4,590,436,605.5,429.2,622.5l-.4,1.1l.7,.3Z" class="ga_335"/>
<path d="M476,565.3l.8,-.6l1.5,-1l.9,-.5l2.3,-1.5l.6,-.4l1.8,-1l2.3,-1.3l2.4,-1.3l2.2,-1.1l.2,-.1c3.1,-1.5,6.2,-2.9,9.4,-4.2l1.1,-.4l-.2,-.7l-1.1,.4c-8.4,3.3,-16.4,7.5,-23.8,12.5l-.9,.6l.5,.6Z" class="ga_335"/>
<path d="M591.5,551.9l1.1,.4l2.4,1l2.3,1h.1l2.3,1.1l2.4,1.1l.2,.1l1.4,.7l.3,-.7l-1.3,-.7l-.3,-.1l-2.3,-1.1l-2.4,-1.1c-1.6,-.7,-3.2,-1.4,-4.8,-2l-1.1,-.4l-.3,.7Z" class="ga_335"/>
<path d="M619.2,566.8L621,568l.6,.4h-.1l1.9,1.4l1.2,1l.3,-.3l-.3,.3l1.1,.9l1.8,1.5l.2,-.3l-.2,.3l.6,.5l2.1,1.8l.3,-.2l-.3,.2l.3,.3l2.3,2.1l2.4,2.4l2.3,2.3l.1,.1l2.1,2.3l.2,.2l1.9,2.2l.3,-.3l-.3,.3l.5,.6l.3,-.3l-.3,.3l1.5,1.7l.9,1.2l.9,1.2l1.4,1.8l.4,.5l1.7,2.4l.3,.4l1.3,2l1.1,1.5l.5,.8l.3,-.2l-.3,.2l1.5,2.4l.3,-.2l-.3,.2l.3,.6l1.1,1.8l1.3,2.3l1.3,2.4l1.1,2.2l.1,.2l.3,-.2l-.3,.2l1.1,2.3l1.1,2.4v.1l1,2.3l1,2.3l.4,1.1l.7,-.2l-.4,-1.2c-8.7,-21.9,-23.4,-41.1,-42.4,-55.1l-1.8,-1.3l-.5,.7Z" class="ga_335"/>
<path d="M458.7,786l-.9,-.7l-2.1,-1.6l-.2,-.2l-2.4,-1.9l-.3,-.3l-2.1,-1.7l-.7,-.7l-1.6,-1.4l-1,-.9L446,775.3c-2.8,-2.6,-5.4,-5.4,-8,-8.2l-1.5,-1.6h.1l-.7,-.8l-1.7,-2l-.3,-.3L432,760l-.2,-.2l-1.7,-2.2l-.6,-.9l-.7,.5l.7,.9c8,10.5,17.4,19.9,27.9,27.9l.9,.6l.4,-.6Z" class="ga_335"/>
<path d="M663.6,756.7l-.6,.9l.3,.3l-.3,-.3l-1.7,2.2l-.2,.2l-1.9,2.4l.3,.2l-.3,-.2l-.3,.3l-1.7,2l-.7,.8l-1.4,1.6l-.9,1l.3,.3l-.3,-.3l-1.3,1.4l-1.1,1.1l.3,.3l-.3,-.3l-1.2,1.2l.3,.3l-.3,-.3l-1.2,1.2l.3,.3l-.3,-.3l-1.2,1.2l.3,.3l-.3,-.3l-1.1,1.1l.2,.3l-.2,-.3l-1.4,1.3l-1,.9l.3,.3l-.3,-.3l-1.6,1.4l-.8,.7l-2,1.7l-.3,.3l.2,.3l-.2,-.3l-2.4,1.9l-.2,.2l.3,.3l-.3,-.4l-2.2,1.7l.3,.3l-.3,-.3l-.8,.7l.4,.6l.9,-.7c10.5,-7.9,19.9,-17.3,27.9,-27.8l.6,-.9l-.6,-.5Z" class="ga_335"/>
<path d="M429.5,581.1l.6,-.9l1.7,-2.2l-.3,-.2l.3,.2l.2,-.1l-.3,-.3l.3,.3l1.9,-2.4l.3,-.4l1.7,-2l.7,-.7h-.1l1.5,-1.6l.9,-1.1l1.3,-1.3l1.1,-1.2l1.2,-1.2l1.1,-1.2l-.2,-.2l.2,.2l1.3,-1.1l1.1,-1.1l1.4,-1.3l1,-.9l1.6,-1.5l.7,-.6l2.1,-1.7l.3,-.3l2.4,-2l.2,-.1l2.1,-1.7l.9,-.7l-.4,-.6l-.9,.7c-10.5,8,-19.9,17.4,-27.9,27.9l-.7,.9l.7,.4Z" class="ga_335"/>
<path d="M634.4,551.8l.8,.7l2.2,1.7l.3,-.3l-.3,.3l.2,.2l.2,-.3l-.2,.2l2.4,2l.2,-.3l-.2,.3l.3,.3l2,1.7l.8,.6l1.6,1.5l1,.9l1.4,1.3l1.1,1.1l.3,-.3l-.3,.3l1.2,1.1l.3,-.2l-.3,.2l1.2,1.2l.3,-.2l-.3,.2l1.2,1.2l.3,-.2l-.3,.2l1.1,1.2l1.3,1.3l.3,-.2l-.3,.2l.9,1.1l1.4,1.6l.7,.7l1.7,2l.3,.4l.3,-.2l-.3,.2l1.9,2.4l.3,-.3l-.3,.3l.2,.1l1.7,2.2l.3,-.2l-.3,.2l.6,.9l.6,-.4l-.6,-.9c-8,-10.5,-17.4,-19.9,-27.9,-27.9l-.9,-.7l-.4,.6Z" class="ga_335"/>
<path d="M428.8,786.7h.7V551.2h-.7Z" class="g9_335"/>
<path d="M663.6,786.7h.7V551.2h-.7Z" class="g9_335"/>
<path d="M428.8,786.7H664.3v-.8H428.8Z" class="g9_335"/>
<path d="M428.8,551.9H664.3v-.7H428.8Z" class="g9_335"/>
<path d="M538.3,710.6l6.7,-.4v.9l-6.6,.4l-.1,-.9Z" class="ga_335"/>
<path d="M549.2,705.8c.8,0,1.5,.3,2,.9c.5,.7,.8,1.6,.9,2.9c.1,1.3,-.1,2.3,-.5,3.1c-.4,.7,-1.1,1.1,-1.9,1.1c-.9,.1,-1.6,-.2,-2.1,-.9c-.5,-.6,-.8,-1.6,-.8,-2.9c-.1,-1.3,0,-2.3,.5,-3c.4,-.7,1,-1.1,1.9,-1.2Zm0,.8c-.5,.1,-.9,.4,-1.1,.9c-.3,.6,-.4,1.4,-.3,2.4c.1,1.1,.3,1.9,.6,2.4c.3,.5,.7,.7,1.2,.7c.6,-.1,1,-.3,1.2,-.9c.2,-.5,.3,-1.3,.2,-2.4c0,-1,-.2,-1.8,-.5,-2.3c-.3,-.6,-.7,-.8,-1.3,-.8Z" class="ga_335"/>
<path d="M554.1,712.1l1.1,-.1l.1,1.3l-1.1,.1l-.1,-1.3Z" class="ga_335"/>
<path d="M557,705.4l4.1,-.2l.1,.9l-3.2,.2l.2,1.9c.1,-.1,.3,-.2,.4,-.2c.2,0,.3,0,.5,-.1c.8,0,1.5,.2,2.1,.6c.5,.5,.8,1.1,.8,1.9c.1,.8,-.1,1.5,-.6,2c-.5,.5,-1.2,.7,-2.2,.8c-.3,0,-.6,0,-.9,0c-.4,-.1,-.7,-.1,-1.1,-.2l-.1,-1.1c.3,.2,.7,.3,1,.4c.4,0,.7,0,1.1,0c.6,0,1,-.2,1.4,-.5c.3,-.4,.4,-.8,.4,-1.4c0,-.5,-.2,-.9,-.6,-1.2c-.4,-.3,-.9,-.4,-1.5,-.4c-.2,0,-.5,.1,-.8,.2c-.3,.1,-.5,.2,-.8,.3l-.3,-3.9Z" class="ga_335"/>
<path d="M504.5,736.6c.8,.4,1.3,.9,1.5,1.7c.2,.8,0,1.8,-.5,3c-.4,1.3,-1,2.1,-1.7,2.6c-.7,.4,-1.4,.5,-2.2,.2c-.8,-.3,-1.3,-.9,-1.5,-1.7c-.2,-.8,0,-1.8,.5,-3c.4,-1.2,1,-2.1,1.7,-2.5c.7,-.5,1.4,-.6,2.2,-.3Zm-.3,.8c-.5,-.2,-1,-.1,-1.4,.3c-.4,.4,-.9,1.1,-1.3,2.1c-.3,1,-.5,1.7,-.5,2.3c.1,.6,.4,1,.9,1.2c.5,.2,1,.1,1.4,-.3c.5,-.4,.9,-1,1.3,-2c.4,-1,.5,-1.8,.5,-2.4c-.1,-.6,-.4,-1,-.9,-1.2Z" class="g9_335"/>
<path d="M506.3,744.4l1,.4l-.5,1.2l-1,-.4l.5,-1.2Z" class="g9_335"/>
<path d="M513.9,740.3c.8,.4,1.3,.9,1.5,1.7c.2,.8,0,1.8,-.5,3.1c-.4,1.2,-1,2,-1.7,2.5c-.7,.4,-1.4,.5,-2.2,.2c-.8,-.3,-1.3,-.9,-1.5,-1.7c-.2,-.8,0,-1.8,.5,-3c.4,-1.2,1,-2.1,1.7,-2.5c.7,-.5,1.4,-.6,2.2,-.3Zm-.3,.8c-.5,-.2,-1,-.1,-1.4,.3c-.5,.4,-.9,1.1,-1.3,2.1c-.3,1,-.5,1.8,-.5,2.3c.1,.6,.4,1,.9,1.2c.5,.2,1,.1,1.4,-.3c.5,-.4,.9,-1,1.3,-2c.3,-1,.5,-1.8,.5,-2.4c-.1,-.6,-.4,-1,-.9,-1.2Z" class="g9_335"/>
<path d="M478.8,769.9c.7,.4,1.2,.9,1.3,1.7c.2,.9,0,1.9,-.6,3c-.5,1.2,-1.1,2,-1.8,2.5c-.7,.4,-1.5,.4,-2.2,.1c-.8,-.4,-1.3,-.9,-1.4,-1.8c-.2,-.8,0,-1.8,.6,-3c.5,-1.1,1.1,-2,1.8,-2.4c.7,-.4,1.5,-.5,2.3,-.1Zm-.4,.7c-.5,-.2,-1,-.1,-1.4,.3c-.5,.3,-.9,1,-1.4,2c-.4,.9,-.6,1.7,-.6,2.3c0,.6,.3,1,.8,1.2c.5,.3,1,.2,1.4,-.2c.5,-.4,.9,-1,1.4,-2c.4,-1,.6,-1.7,.6,-2.3c0,-.6,-.3,-1,-.8,-1.3Z" class="ga_335"/>
<path d="M480.2,777.7l1,.5l-.6,1.2l-1,-.5l.6,-1.2Z" class="ga_335"/>
<path d="M485.9,773.3l3.7,1.7l-.4,.8l-2.8,-1.3l-.8,1.7c.2,0,.3,0,.5,.1c.1,0,.3,.1,.4,.1c.8,.4,1.3,.9,1.6,1.5c.2,.6,.2,1.3,-.1,2.1c-.4,.7,-.9,1.2,-1.5,1.4c-.7,.2,-1.5,.1,-2.3,-.3c-.3,-.1,-.6,-.3,-.9,-.4c-.3,-.2,-.5,-.5,-.8,-.7l.4,-1c.2,.3,.5,.6,.7,.8c.3,.2,.6,.4,.9,.5c.6,.3,1.1,.3,1.5,.2c.5,-.2,.8,-.5,1,-1c.2,-.5,.3,-.9,.1,-1.3c-.2,-.5,-.6,-.8,-1.1,-1.1c-.3,-.1,-.6,-.2,-.8,-.2c-.3,-.1,-.6,-.1,-.9,-.1l1.6,-3.5Z" class="ga_335"/>
<path d="M618,765.7c.7,-.5,1.5,-.5,2.2,-.1c.8,.3,1.5,1,2.1,2.2c.7,1.1,1,2.1,1,2.9c-.1,.8,-.5,1.4,-1.2,1.9c-.8,.4,-1.5,.5,-2.3,.1c-.7,-.4,-1.4,-1.1,-2.1,-2.2c-.6,-1.1,-.9,-2.1,-.9,-2.9c.1,-.8,.4,-1.5,1.2,-1.9Zm.4,.7c-.5,.3,-.7,.7,-.6,1.3c0,.6,.3,1.3,.8,2.3c.6,.9,1.1,1.5,1.6,1.8c.5,.3,1,.3,1.5,.1c.4,-.3,.6,-.8,.6,-1.3c0,-.6,-.3,-1.4,-.9,-2.3c-.5,-.9,-1,-1.5,-1.5,-1.8c-.5,-.4,-1,-.4,-1.5,-.1Z" class="ga_335"/>
<path d="M625.2,769l.9,-.5l.7,1.1l-.9,.5l-.7,-1.1Z" class="ga_335"/>
<path d="M624.8,761.8l3.6,-2.1l.4,.7l-2.7,1.6l1,1.7l.3,-.4l.4,-.2c.7,-.5,1.4,-.6,2.1,-.5c.7,.2,1.2,.6,1.6,1.3c.5,.7,.6,1.4,.3,2.1c-.2,.6,-.7,1.2,-1.5,1.7c-.3,.1,-.6,.3,-.9,.4c-.3,.1,-.6,.2,-1,.3l-.5,-.9c.3,0,.7,0,1,-.1c.3,-.1,.6,-.3,1,-.5c.5,-.3,.8,-.6,.9,-1.1c.2,-.4,.1,-.9,-.2,-1.4c-.2,-.4,-.6,-.7,-1.1,-.8c-.4,-.1,-.9,0,-1.4,.3c-.3,.2,-.5,.3,-.7,.5c-.2,.2,-.4,.5,-.6,.7l-2,-3.3Z" class="ga_335"/>
<path d="M461.4,568.8c.7,-.4,1.5,-.4,2.2,-.1c.7,.4,1.4,1.1,2.1,2.2c.7,1.1,1,2.1,.9,2.9c0,.9,-.4,1.5,-1.1,1.9c-.8,.5,-1.5,.5,-2.3,.2c-.7,-.4,-1.4,-1.1,-2.1,-2.3c-.6,-1.1,-1,-2,-.9,-2.9c0,-.8,.4,-1.4,1.2,-1.9Zm.4,.8c-.5,.2,-.7,.7,-.6,1.3c0,.5,.3,1.3,.8,2.2c.6,.9,1.1,1.5,1.6,1.9c.5,.3,1,.3,1.4,0c.5,-.3,.7,-.7,.7,-1.3c-.1,-.6,-.4,-1.3,-.9,-2.2c-.5,-1,-1.1,-1.6,-1.6,-1.9c-.5,-.3,-.9,-.3,-1.4,0Z" class="ga_335"/>
<path d="M468.6,572.2l.9,-.6l.7,1.1l-1,.6l-.6,-1.1Z" class="ga_335"/>
<path d="M468.2,564.9l3.5,-2.1l.5,.8l-2.7,1.6l1,1.6l.3,-.3l.4,-.3c.7,-.4,1.4,-.5,2.1,-.4c.6,.2,1.2,.6,1.6,1.3c.4,.7,.5,1.4,.3,2c-.2,.7,-.7,1.3,-1.5,1.7c-.3,.2,-.6,.3,-.9,.5c-.3,.1,-.7,.2,-1,.3l-.6,-.9c.4,0,.7,-.1,1.1,-.2c.3,-.1,.6,-.2,.9,-.4c.5,-.3,.9,-.7,1,-1.1c.1,-.5,.1,-.9,-.2,-1.4c-.3,-.5,-.6,-.7,-1.1,-.8c-.5,-.1,-.9,0,-1.5,.3c-.2,.1,-.4,.3,-.6,.5c-.2,.2,-.4,.4,-.6,.7l-2,-3.4Z" class="ga_335"/>
<path d="M609.2,554.8c.8,.4,1.2,.9,1.4,1.8c.1,.8,-.1,1.8,-.6,3c-.6,1.1,-1.2,1.9,-1.9,2.4c-.7,.4,-1.4,.5,-2.2,.1c-.8,-.4,-1.3,-.9,-1.4,-1.8c-.1,-.8,.1,-1.8,.6,-2.9c.5,-1.2,1.2,-2,1.9,-2.5c.7,-.4,1.4,-.5,2.2,-.1Zm-.4,.8c-.4,-.3,-.9,-.2,-1.4,.2c-.4,.3,-.9,1,-1.3,2c-.5,.9,-.7,1.7,-.6,2.3c0,.6,.2,1,.7,1.2c.5,.3,1,.2,1.5,-.2c.4,-.3,.9,-1,1.3,-2c.5,-.9,.7,-1.7,.6,-2.3c0,-.6,-.3,-1,-.8,-1.2Z" class="ga_335"/>
<path d="M610.6,562.6l1,.5l-.6,1.2l-.9,-.5l.5,-1.2Z" class="ga_335"/>
<path d="M616.3,558.2l3.7,1.7l-.3,.8l-2.9,-1.3l-.8,1.7c.2,0,.4,0,.5,.1c.2,0,.3,.1,.4,.1c.8,.4,1.3,.9,1.6,1.5c.3,.7,.2,1.3,-.1,2.1c-.3,.7,-.8,1.2,-1.5,1.4c-.7,.2,-1.4,.1,-2.3,-.3c-.3,-.1,-.6,-.2,-.8,-.4c-.3,-.2,-.6,-.4,-.9,-.7l.4,-.9c.3,.2,.5,.5,.8,.7c.2,.2,.5,.4,.9,.5c.5,.3,1,.3,1.4,.2c.5,-.1,.8,-.5,1.1,-1c.2,-.4,.2,-.9,0,-1.3c-.2,-.5,-.5,-.8,-1.1,-1c-.2,-.2,-.5,-.2,-.8,-.3c-.3,-.1,-.6,-.1,-.9,-.1l1.6,-3.5Z" class="ga_335"/>
<path d="M679.7,786.3h11.7V551.5H679.7Z" class="g0_335"/>
<path d="M679.7,786.3h11.7V757H679.7Z" class="g1_335"/>
<path d="M679.7,757h11.7V727.6H679.7Z" class="g2_335"/>
<path d="M679.7,727.6h11.7V698.3H679.7Z" class="g3_335"/>
<path d="M679.7,698.3h11.7V668.9H679.7Z" class="g4_335"/>
<path d="M679.7,668.9h11.7V639.6H679.7Z" class="g5_335"/>
<path d="M679.7,639.6h11.7V610.2H679.7Z" class="g6_335"/>
<path d="M679.7,610.2h11.7V580.9H679.7Z" class="g7_335"/>
<path d="M679.7,580.9h11.7V551.5H679.7Z" class="g8_335"/>
<path d="M691.4,786.7h3.1v-.8h-3.1Z" class="g9_335"/>
<path d="M698.5,787.3h5.6v-.8h-5.6Z" class="g9_335"/>
<path d="M706.1,788.9h1.4V784l-1.5,.3v-.7l1.5,-.4h.9v5.7h1.4v.8h-3.7v-.8Z" class="g9_335"/>
<path d="M711.6,789.7h.9v-1.1h-.9Z" class="g9_335"/>
<path d="M716.2,783.1c.7,0,1.3,.3,1.7,.9c.4,.6,.5,1.4,.5,2.5c0,1,-.1,1.9,-.5,2.4c-.4,.6,-1,.9,-1.7,.9c-.7,0,-1.3,-.3,-1.6,-.9c-.4,-.5,-.6,-1.4,-.6,-2.4c0,-1.1,.2,-1.9,.6,-2.5c.3,-.6,.9,-.9,1.6,-.9Zm0,.7c-.4,0,-.8,.2,-1,.7c-.2,.4,-.3,1.1,-.3,2c0,.8,.1,1.5,.3,1.9c.2,.5,.6,.7,1,.7c.5,0,.8,-.2,1,-.7c.3,-.4,.4,-1.1,.4,-1.9c0,-.9,-.1,-1.6,-.4,-2c-.2,-.5,-.5,-.7,-1,-.7Z" class="g9_335"/>
<path d="M721.8,783.1c.8,0,1.3,.3,1.7,.9c.2,.4,.4,.8,.5,1.4v2.1c-.1,.6,-.3,1.1,-.5,1.4c-.4,.6,-.9,.9,-1.7,.9c-.7,0,-1.2,-.3,-1.6,-.9c-.4,-.5,-.6,-1.4,-.6,-2.4c0,-1.1,.2,-1.9,.6,-2.5c.4,-.6,.9,-.9,1.6,-.9Zm0,.7c-.4,0,-.8,.2,-1,.7c-.2,.4,-.3,1.1,-.3,2c0,.8,.1,1.5,.3,1.9c.2,.5,.6,.7,1,.7c.5,0,.8,-.2,1,-.7c.3,-.4,.4,-1.1,.4,-1.9c0,-.9,-.1,-1.6,-.4,-2c-.2,-.5,-.5,-.7,-1,-.7Z" class="g9_335"/>
<path d="M691.4,757.4h3.1v-.8h-3.1Z" class="g9_335"/>
<path d="M698.5,757.9h5.6v-.7h-5.6Z" class="g9_335"/>
<path d="M707.8,753.8c.7,0,1.3,.3,1.7,.8c.3,.6,.5,1.4,.5,2.5c0,1.1,-.2,1.9,-.5,2.5c-.4,.6,-1,.8,-1.7,.8c-.7,0,-1.3,-.2,-1.7,-.8c-.3,-.6,-.5,-1.4,-.5,-2.5c0,-1.1,.2,-1.9,.5,-2.5c.4,-.5,1,-.8,1.7,-.8Zm0,.7c-.4,0,-.8,.2,-1,.6c-.2,.5,-.3,1.1,-.3,2c0,.9,.1,1.6,.3,2c.2,.4,.6,.7,1,.7c.5,0,.8,-.3,1,-.7c.2,-.4,.4,-1.1,.4,-2c0,-.9,-.2,-1.5,-.4,-2c-.2,-.4,-.5,-.6,-1,-.6Z" class="g9_335"/>
<path d="M711.6,760.3h.9v-1.1h-.9Z" class="g9_335"/>
<path d="M714.1,753.9h4.2v.4l-2.4,6H715l2.2,-5.7h-3.1v-.7Z" class="g9_335"/>
<path d="M720,753.9h3.4v.7h-2.6v1.6l.4,-.1h.3c.8,0,1.3,.2,1.7,.6c.5,.4,.7,.9,.7,1.6c0,.7,-.2,1.2,-.7,1.6c-.4,.4,-1,.5,-1.8,.5c-.3,0,-.5,0,-.8,0c-.3,-.1,-.6,-.1,-.9,-.2v-.9c.3,.1,.5,.2,.8,.3c.3,.1,.6,.1,.9,.1c.5,0,.9,-.1,1.2,-.4c.3,-.2,.4,-.6,.4,-1c0,-.5,-.1,-.8,-.4,-1.1c-.3,-.3,-.7,-.4,-1.2,-.4c-.2,0,-.5,0,-.7,.1c-.2,0,-.5,.1,-.7,.2v-3.2Z" class="g9_335"/>
<path d="M691.4,728h3.1v-.8h-3.1Z" class="g9_335"/>
<path d="M698.5,728.6h5.6v-.8h-5.6Z" class="g9_335"/>
<path d="M707.8,724.4c.7,0,1.3,.3,1.7,.9c.3,.6,.5,1.4,.5,2.5c0,1,-.2,1.9,-.5,2.4c-.4,.6,-1,.9,-1.7,.9c-.7,0,-1.3,-.3,-1.7,-.9c-.3,-.5,-.5,-1.4,-.5,-2.4c0,-1.1,.2,-1.9,.5,-2.5c.4,-.6,1,-.9,1.7,-.9Zm0,.7c-.4,0,-.8,.2,-1,.7c-.2,.4,-.3,1.1,-.3,2c0,.8,.1,1.5,.3,2c.2,.4,.6,.6,1,.6c.5,0,.8,-.2,1,-.6c.2,-.5,.4,-1.2,.4,-2c0,-.9,-.2,-1.6,-.4,-2c-.2,-.5,-.5,-.7,-1,-.7Z" class="g9_335"/>
<path d="M711.6,731h.9v-1.1h-.9Z" class="g9_335"/>
<path d="M714.4,724.5h3.4v.8h-2.6v1.6l.3,-.1l.4,-.1c.7,0,1.3,.2,1.7,.6c.4,.4,.7,.9,.7,1.6c0,.7,-.3,1.2,-.7,1.6c-.4,.4,-1,.6,-1.8,.6c-.3,0,-.6,0,-.8,-.1c-.3,0,-.6,-.1,-.9,-.2V730c.3,.1,.5,.2,.8,.3c.3,0,.6,.1,.9,.1c.5,0,.9,-.2,1.2,-.4c.2,-.3,.4,-.6,.4,-1.1c0,-.4,-.2,-.8,-.4,-1c-.3,-.3,-.7,-.4,-1.2,-.4c-.3,0,-.5,0,-.7,0c-.3,.1,-.5,.2,-.7,.3v-3.3Z" class="g9_335"/>
<path d="M721.8,724.4c.8,0,1.3,.3,1.7,.9c.2,.4,.4,.8,.5,1.4v2.1c-.1,.6,-.3,1.1,-.5,1.4c-.4,.6,-.9,.9,-1.7,.9c-.7,0,-1.2,-.3,-1.6,-.9c-.4,-.5,-.6,-1.4,-.6,-2.4c0,-1.1,.2,-1.9,.6,-2.5c.4,-.6,.9,-.9,1.6,-.9Zm0,.7c-.4,0,-.8,.2,-1,.7c-.2,.4,-.3,1.1,-.3,2c0,.8,.1,1.5,.3,2c.2,.4,.6,.6,1,.6c.5,0,.8,-.2,1,-.6c.3,-.5,.4,-1.2,.4,-2c0,-.9,-.1,-1.6,-.4,-2c-.2,-.5,-.5,-.7,-1,-.7Z" class="g9_335"/>
<path d="M691.4,698.7h3.1v-.8h-3.1Z" class="g9_335"/>
<path d="M698.5,699.2h5.6v-.7h-5.6Z" class="g9_335"/>
<path d="M707.8,695.1c.7,0,1.3,.3,1.7,.8c.3,.6,.5,1.4,.5,2.5c0,1.1,-.2,1.9,-.5,2.5c-.4,.6,-1,.9,-1.7,.9c-.7,0,-1.3,-.3,-1.7,-.9c-.3,-.6,-.5,-1.4,-.5,-2.5c0,-1.1,.2,-1.9,.5,-2.5c.4,-.5,1,-.8,1.7,-.8Zm0,.7c-.4,0,-.8,.2,-1,.6c-.2,.5,-.3,1.1,-.3,2c0,.9,.1,1.6,.3,2c.2,.4,.6,.7,1,.7c.5,0,.8,-.3,1,-.7c.2,-.4,.4,-1.1,.4,-2c0,-.9,-.2,-1.5,-.4,-2c-.2,-.4,-.5,-.6,-1,-.6Z" class="g9_335"/>
<path d="M711.6,701.6h.9v-1.1h-.9Z" class="g9_335"/>
<path d="M715.1,700.9h3v.7h-4v-.7c.3,-.3,.7,-.8,1.3,-1.4c.6,-.6,.9,-.9,1.1,-1.1c.3,-.3,.5,-.6,.6,-.8c.1,-.2,.1,-.4,.1,-.6c0,-.4,-.1,-.6,-.3,-.9c-.3,-.2,-.6,-.3,-1,-.3c-.2,0,-.5,.1,-.8,.2c-.3,0,-.7,.2,-1,.4v-.9c.4,-.1,.7,-.2,1,-.3c.3,-.1,.6,-.1,.8,-.1c.7,0,1.2,.1,1.6,.5c.4,.3,.6,.8,.6,1.3c0,.3,0,.5,-.1,.8c-.1,.2,-.3,.5,-.6,.8c-.1,.1,-.3,.3,-.7,.7c-.3,.4,-.9,1,-1.6,1.7Z" class="g9_335"/>
<path d="M720,695.2h3.4v.7h-2.6v1.6l.4,-.1h.3c.8,0,1.3,.2,1.7,.6c.5,.4,.7,.9,.7,1.6c0,.7,-.2,1.2,-.7,1.6c-.4,.4,-1,.6,-1.8,.6c-.3,0,-.5,-.1,-.8,-.1c-.3,-.1,-.6,-.1,-.9,-.2v-.9c.3,.1,.5,.2,.8,.3c.3,.1,.6,.1,.9,.1c.5,0,.9,-.1,1.2,-.4c.3,-.2,.4,-.6,.4,-1c0,-.5,-.1,-.8,-.4,-1.1c-.3,-.3,-.7,-.4,-1.2,-.4c-.2,0,-.5,0,-.7,.1c-.2,0,-.5,.1,-.7,.2v-3.2Z" class="g9_335"/>
<path d="M691.4,669.3h3.1v-.8h-3.1Z" class="g9_335"/>
<path d="M700.4,665.7c.7,0,1.3,.3,1.7,.9c.3,.6,.5,1.4,.5,2.5c0,1.1,-.2,1.9,-.5,2.5c-.4,.5,-1,.8,-1.7,.8c-.7,0,-1.3,-.3,-1.6,-.8c-.4,-.6,-.6,-1.4,-.6,-2.5c0,-1.1,.2,-1.9,.6,-2.5c.3,-.6,.9,-.9,1.6,-.9Zm0,.7c-.4,0,-.8,.2,-1,.7c-.2,.4,-.3,1.1,-.3,2c0,.9,.1,1.5,.3,2c.2,.4,.6,.6,1,.6c.5,0,.8,-.2,1,-.6c.2,-.5,.4,-1.1,.4,-2c0,-.9,-.2,-1.6,-.4,-2c-.2,-.5,-.5,-.7,-1,-.7Z" class="g9_335"/>
<path d="M704.2,672.3h.9v-1.1h-.9Z" class="g9_335"/>
<path d="M708.8,665.7c.7,0,1.3,.3,1.7,.9c.4,.6,.5,1.4,.5,2.5c0,1.1,-.1,1.9,-.5,2.5c-.4,.5,-1,.8,-1.7,.8c-.7,0,-1.2,-.3,-1.6,-.8c-.4,-.6,-.6,-1.4,-.6,-2.5c0,-1.1,.2,-1.9,.6,-2.5c.4,-.6,.9,-.9,1.6,-.9Zm0,.7c-.4,0,-.8,.2,-1,.7c-.2,.4,-.3,1.1,-.3,2c0,.9,.1,1.5,.3,2c.2,.4,.6,.6,1,.6c.5,0,.8,-.2,1,-.6c.3,-.5,.4,-1.1,.4,-2c0,-.9,-.1,-1.6,-.4,-2c-.2,-.5,-.5,-.7,-1,-.7Z" class="g9_335"/>
<path d="M714.4,665.7c.8,0,1.3,.3,1.7,.9c.4,.6,.6,1.4,.6,2.5c0,1.1,-.2,1.9,-.6,2.5c-.4,.5,-.9,.8,-1.7,.8c-.7,0,-1.2,-.3,-1.6,-.8c-.4,-.6,-.6,-1.4,-.6,-2.5c0,-1.1,.2,-1.9,.6,-2.5c.4,-.6,.9,-.9,1.6,-.9Zm0,.7c-.4,0,-.7,.2,-1,.7c-.2,.4,-.3,1.1,-.3,2c0,.9,.1,1.5,.3,2c.3,.4,.6,.6,1,.6c.5,0,.8,-.2,1.1,-.6c.2,-.5,.3,-1.1,.3,-2c0,-.9,-.1,-1.6,-.3,-2c-.3,-.5,-.6,-.7,-1.1,-.7Z" class="g9_335"/>
<path d="M691.4,640h3.1v-.8h-3.1Z" class="g9_335"/>
<path d="M700.4,636.4c.7,0,1.3,.3,1.7,.8c.3,.6,.5,1.4,.5,2.5c0,1.1,-.2,1.9,-.5,2.5c-.4,.6,-1,.9,-1.7,.9c-.7,0,-1.3,-.3,-1.6,-.9c-.4,-.6,-.6,-1.4,-.6,-2.5c0,-1.1,.2,-1.9,.6,-2.5c.3,-.5,.9,-.8,1.6,-.8Zm0,.7c-.4,0,-.8,.2,-1,.6c-.2,.5,-.3,1.1,-.3,2c0,.9,.1,1.6,.3,2c.2,.4,.6,.7,1,.7c.5,0,.8,-.3,1,-.7c.2,-.4,.4,-1.1,.4,-2c0,-.9,-.2,-1.5,-.4,-2c-.2,-.4,-.5,-.6,-1,-.6Z" class="g9_335"/>
<path d="M704.2,642.9h.9v-1.1h-.9Z" class="g9_335"/>
<path d="M707.7,642.2h3.1v.7h-4.1v-.7c.3,-.3,.7,-.8,1.3,-1.4c.6,-.6,.9,-.9,1.1,-1.1c.3,-.3,.5,-.6,.6,-.8c.1,-.2,.1,-.4,.1,-.6c0,-.4,-.1,-.6,-.3,-.9c-.3,-.2,-.6,-.3,-1,-.3c-.2,0,-.5,.1,-.8,.2c-.3,.1,-.6,.2,-1,.4v-.9c.4,-.1,.7,-.2,1,-.3c.3,-.1,.6,-.1,.8,-.1c.7,0,1.2,.2,1.6,.5c.4,.3,.6,.8,.6,1.3c0,.3,0,.5,-.1,.8c-.1,.2,-.3,.5,-.6,.8c0,.1,-.3,.3,-.7,.7c-.3,.4,-.9,1,-1.6,1.7Z" class="g9_335"/>
<path d="M712.6,636.5H716v.7h-2.6v1.6l.4,-.1h.3c.8,0,1.3,.2,1.7,.6c.5,.4,.7,.9,.7,1.6c0,.7,-.2,1.2,-.7,1.6c-.4,.4,-1,.6,-1.8,.6c-.3,0,-.5,-.1,-.8,-.1c-.3,-.1,-.6,-.1,-.9,-.2v-.9c.3,.1,.5,.3,.8,.3c.3,.1,.6,.1,.9,.1c.5,0,.9,-.1,1.2,-.4c.3,-.2,.4,-.6,.4,-1c0,-.5,-.1,-.8,-.4,-1.1c-.3,-.3,-.7,-.4,-1.2,-.4c-.2,0,-.5,0,-.7,.1c-.2,0,-.5,.1,-.7,.2v-3.2Z" class="g9_335"/>
<path d="M691.4,610.6h3.1v-.7h-3.1Z" class="g9_335"/>
<path d="M700.4,607c.7,0,1.3,.3,1.7,.9c.3,.6,.5,1.4,.5,2.5c0,1.1,-.2,1.9,-.5,2.5c-.4,.5,-1,.8,-1.7,.8c-.7,0,-1.3,-.3,-1.6,-.8c-.4,-.6,-.6,-1.4,-.6,-2.5c0,-1.1,.2,-1.9,.6,-2.5c.3,-.6,.9,-.9,1.6,-.9Zm0,.7c-.4,0,-.8,.2,-1,.7c-.2,.4,-.3,1.1,-.3,2c0,.9,.1,1.5,.3,2c.2,.4,.6,.6,1,.6c.5,0,.8,-.2,1,-.6c.2,-.5,.4,-1.1,.4,-2c0,-.9,-.2,-1.6,-.4,-2c-.2,-.5,-.5,-.7,-1,-.7Z" class="g9_335"/>
<path d="M704.2,613.6h.9v-1.1h-.9Z" class="g9_335"/>
<path d="M707,607.2h3.4v.7h-2.6v1.6l.3,-.1l.4,-.1c.7,0,1.3,.2,1.7,.6c.5,.4,.7,.9,.7,1.6c0,.7,-.2,1.3,-.7,1.6c-.4,.4,-1,.6,-1.8,.6c-.3,0,-.5,0,-.8,-.1c-.3,0,-.6,-.1,-.9,-.2v-.8c.3,.1,.5,.2,.8,.3c.3,0,.6,.1,.9,.1c.5,0,.9,-.2,1.2,-.4c.2,-.3,.4,-.6,.4,-1.1c0,-.4,-.2,-.8,-.4,-1c-.3,-.3,-.7,-.4,-1.2,-.4c-.3,0,-.5,0,-.7,0c-.2,.1,-.5,.2,-.7,.3v-3.2Z" class="g9_335"/>
<path d="M714.4,607c.8,0,1.3,.3,1.7,.9c.4,.6,.6,1.4,.6,2.5c0,1.1,-.2,1.9,-.6,2.5c-.4,.5,-.9,.8,-1.7,.8c-.7,0,-1.2,-.3,-1.6,-.8c-.4,-.6,-.6,-1.4,-.6,-2.5c0,-1.1,.2,-1.9,.6,-2.5c.4,-.6,.9,-.9,1.6,-.9Zm0,.7c-.4,0,-.7,.2,-1,.7c-.2,.4,-.3,1.1,-.3,2c0,.9,.1,1.5,.3,2c.3,.4,.6,.6,1,.6c.5,0,.8,-.2,1.1,-.6c.2,-.5,.3,-1.1,.3,-2c0,-.9,-.1,-1.6,-.3,-2c-.3,-.5,-.6,-.7,-1.1,-.7Z" class="g9_335"/>
<path d="M691.4,581.3h3.1v-.8h-3.1Z" class="g9_335"/>
<path d="M700.4,577.7c.7,0,1.3,.3,1.7,.8c.3,.6,.5,1.4,.5,2.5c0,1.1,-.2,1.9,-.5,2.5c-.4,.6,-1,.9,-1.7,.9c-.7,0,-1.3,-.3,-1.6,-.9c-.4,-.6,-.6,-1.4,-.6,-2.5c0,-1.1,.2,-1.9,.6,-2.5c.3,-.5,.9,-.8,1.6,-.8Zm0,.7c-.4,0,-.8,.2,-1,.6c-.2,.5,-.3,1.1,-.3,2c0,.9,.1,1.6,.3,2c.2,.5,.6,.7,1,.7c.5,0,.8,-.2,1,-.7c.2,-.4,.4,-1.1,.4,-2c0,-.9,-.2,-1.5,-.4,-2c-.2,-.4,-.5,-.6,-1,-.6Z" class="g9_335"/>
<path d="M704.2,584.2h.9v-1.1h-.9Z" class="g9_335"/>
<path d="M706.7,577.8h4.2v.4l-2.4,6h-.9l2.2,-5.7h-3.1v-.7Z" class="g9_335"/>
<path d="M712.6,577.8H716v.7h-2.6v1.6l.4,-.1h.3c.8,0,1.3,.2,1.7,.6c.5,.4,.7,.9,.7,1.6c0,.7,-.2,1.2,-.7,1.6c-.4,.4,-1,.6,-1.8,.6c-.3,0,-.5,-.1,-.8,-.1c-.3,-.1,-.6,-.1,-.9,-.2v-.9c.3,.1,.5,.3,.8,.3c.3,.1,.6,.1,.9,.1c.5,0,.9,-.1,1.2,-.4c.3,-.2,.4,-.6,.4,-1c0,-.5,-.1,-.8,-.4,-1.1c-.3,-.3,-.7,-.4,-1.2,-.4c-.2,0,-.5,0,-.7,.1c-.2,0,-.5,.1,-.7,.2v-3.2Z" class="g9_335"/>
<path d="M691.4,551.9h3.1v-.7h-3.1Z" class="g9_335"/>
<path d="M698.7,554.2h1.4v-5l-1.5,.4v-.8l1.5,-.3h.9v5.7h1.4v.7h-3.7v-.7Z" class="g9_335"/>
<path d="M704.2,554.9h.9v-1.1h-.9Z" class="g9_335"/>
<path d="M708.8,548.3c.7,0,1.3,.3,1.7,.9c.4,.6,.5,1.4,.5,2.5c0,1.1,-.1,1.9,-.5,2.5c-.4,.5,-1,.8,-1.7,.8c-.7,0,-1.2,-.3,-1.6,-.8c-.4,-.6,-.6,-1.4,-.6,-2.5c0,-1.1,.2,-1.9,.6,-2.5c.4,-.6,.9,-.9,1.6,-.9Zm0,.7c-.4,0,-.8,.2,-1,.7c-.2,.4,-.3,1.1,-.3,2c0,.9,.1,1.5,.3,2c.2,.4,.6,.6,1,.6c.5,0,.8,-.2,1,-.6c.3,-.5,.4,-1.1,.4,-2c0,-.9,-.1,-1.6,-.4,-2c-.2,-.5,-.5,-.7,-1,-.7Z" class="g9_335"/>
<path d="M714.4,548.3c.8,0,1.3,.3,1.7,.9c.4,.6,.6,1.4,.6,2.5c0,1.1,-.2,1.9,-.6,2.5c-.4,.5,-.9,.8,-1.7,.8c-.7,0,-1.2,-.3,-1.6,-.8c-.4,-.6,-.6,-1.4,-.6,-2.5c0,-1.1,.2,-1.9,.6,-2.5c.4,-.6,.9,-.9,1.6,-.9Zm0,.7c-.4,0,-.7,.2,-1,.7c-.2,.4,-.3,1.1,-.3,2c0,.9,.1,1.5,.3,2c.3,.4,.6,.6,1,.6c.5,0,.8,-.2,1.1,-.6c.2,-.5,.3,-1.1,.3,-2c0,-.9,-.1,-1.6,-.3,-2c-.3,-.5,-.6,-.7,-1.1,-.7Z" class="g9_335"/>
<path d="M679.7,786.3v.4h12.1V551.2H679.3V786.7h.4v-.4h.4V551.9H691v234H679.7v.4h.4h-.4Z" class="g9_335"/>
<image clip-path="url(#c2_335)" preserveAspectRatio="none" x="122" y="548" width="266" height="251" xlink:href="img/2.jpg"/>
</svg>