<?xml version="1.0" encoding="UTF-8" standalone="no"?>
<!DOCTYPE svg PUBLIC "-//W3C//DTD SVG 1.1//EN"
"http://www.w3.org/Graphics/SVG/1.1/DTD/svg11.dtd">
<svg viewBox="0 0 811 1017" version="1.1" xmlns="http://www.w3.org/2000/svg" xmlns:xlink="http://www.w3.org/1999/xlink">
<defs>
<style type="text/css"><![CDATA[
.g0_254{
fill: #000;
}
.g1_254{
fill: #FFF;
}
.g2_254{
fill: #1A78B6;
}
.g3_254{
fill: none;
stroke: #1A78B6;
stroke-width: 0.982;
stroke-linejoin: round;
}
.g4_254{
fill: none;
stroke: #040504;
stroke-width: 0.294;
}
.g5_254{
fill: none;
stroke: #B0B2B1;
stroke-width: 0.785;
stroke-linecap: square;
stroke-linejoin: round;
}
.g6_254{
fill: none;
stroke: #040504;
stroke-width: 0.785;
stroke-linejoin: round;
}
.g7_254{
fill: #040504;
}
.g8_254{
fill: none;
stroke: #1A78B6;
stroke-width: 1.472;
stroke-linecap: square;
stroke-linejoin: round;
}
.g9_254{
fill: none;
stroke: #040504;
stroke-width: 0.785;
stroke-linecap: square;
}
.ga_254{
fill: #0E0E0E;
}
]]></style>
</defs>
<path d="M467.5,114.1h.4V88h-.4Z" class="g0_254"/>
<path d="M392.5,88v3.2l-.3,-.1l-6.3,-2.9l-.3,-.2l.3,-.2l6.3,-2.9l.3,-.1v.3l-.1,.1l-6.3,3l-.2,-.4h.2l6.3,3l-.2,.3l-.1,-.2V88Z" class="g0_254"/>
<path d="M392.1,88h.4V85.1h-.4Z" class="g0_254"/>
<path d="M392.3,88.2h.2v-.4h-.2Z" class="g0_254"/>
<path d="M392.5,88.2h75.4v-.4H392.5Z" class="g0_254"/>
<path d="M451.6,188.6h.4V103.2h-.4Z" class="g0_254"/>
<path d="M434.2,103.2v3.2l-.2,-.1l-6.3,-2.9l-.3,-.2l.3,-.2l6.3,-2.9l.2,-.1v.3l-.1,.2l-6.2,2.9l-.2,-.4h.2l6.2,3l-.1,.3l-.1,-.2v-2.9Z" class="g0_254"/>
<path d="M433.9,103.2h.3v-2.9h-.3Z" class="g0_254"/>
<path d="M434,103.4h.2V103H434Z" class="g0_254"/>
<path d="M434.2,103.4H452V103H434.2Z" class="g0_254"/>
<path d="M177.1,547.2H527.7V286H177.1Z" class="g1_254"/>
<path d="M193.2,538.2c.8,0,1.5,-.3,2.1,-.8c.6,-.6,.9,-1.3,.9,-2.1c0,-.8,-.3,-1.5,-.9,-2.1c-.6,-.5,-1.3,-.8,-2.1,-.8c-.8,0,-1.5,.3,-2.1,.8c-.5,.6,-.8,1.3,-.8,2.1c0,.8,.3,1.5,.8,2.1c.6,.5,1.3,.8,2.1,.8Z" class="g2_254"/>
<path d="M193.2,538.2c.8,0,1.5,-.3,2.1,-.8c.6,-.6,.9,-1.3,.9,-2.1c0,-.8,-.3,-1.5,-.9,-2.1c-.6,-.5,-1.3,-.8,-2.1,-.8c-.8,0,-1.5,.3,-2.1,.8c-.5,.6,-.8,1.3,-.8,2.1c0,.8,.3,1.5,.8,2.1c.6,.5,1.3,.8,2.1,.8Z" class="g3_254"/>
<path d="M288.7,360.2c.8,0,1.6,-.3,2.1,-.9c.6,-.5,.9,-1.3,.9,-2.1c0,-.7,-.3,-1.5,-.9,-2c-.5,-.6,-1.3,-.9,-2.1,-.9c-.7,0,-1.5,.3,-2,.9c-.6,.5,-.9,1.3,-.9,2c0,.8,.3,1.6,.9,2.1c.5,.6,1.3,.9,2,.9Z" class="g2_254"/>
<path d="M288.7,360.2c.8,0,1.6,-.3,2.1,-.9c.6,-.5,.9,-1.3,.9,-2.1c0,-.7,-.3,-1.5,-.9,-2c-.5,-.6,-1.3,-.9,-2.1,-.9c-.7,0,-1.5,.3,-2,.9c-.6,.5,-.9,1.3,-.9,2c0,.8,.3,1.6,.9,2.1c.5,.6,1.3,.9,2,.9Z" class="g3_254"/>
<path d="M416.1,300.8c.8,0,1.6,-.3,2.1,-.8c.6,-.6,.9,-1.3,.9,-2.1c0,-.8,-.3,-1.6,-.9,-2.1c-.5,-.6,-1.3,-.9,-2.1,-.9c-.8,0,-1.5,.3,-2.1,.9c-.5,.5,-.8,1.3,-.8,2.1c0,.8,.3,1.5,.8,2.1c.6,.5,1.3,.8,2.1,.8Z" class="g2_254"/>
<path d="M416.1,300.8c.8,0,1.6,-.3,2.1,-.8c.6,-.6,.9,-1.3,.9,-2.1c0,-.8,-.3,-1.6,-.9,-2.1c-.5,-.6,-1.3,-.9,-2.1,-.9c-.8,0,-1.5,.3,-2.1,.9c-.5,.5,-.8,1.3,-.8,2.1c0,.8,.3,1.5,.8,2.1c.6,.5,1.3,.8,2.1,.8Z" class="g3_254"/>
<path d="M511.7,449.2c.7,0,1.5,-.3,2,-.8c.6,-.6,.9,-1.3,.9,-2.1c0,-.8,-.3,-1.6,-.9,-2.1c-.5,-.6,-1.3,-.9,-2,-.9c-.8,0,-1.6,.3,-2.1,.9c-.6,.5,-.9,1.3,-.9,2.1c0,.8,.3,1.5,.9,2.1c.5,.5,1.3,.8,2.1,.8Z" class="g2_254"/>
<path d="M511.7,449.2c.7,0,1.5,-.3,2,-.8c.6,-.6,.9,-1.3,.9,-2.1c0,-.8,-.3,-1.6,-.9,-2.1c-.5,-.6,-1.3,-.9,-2,-.9c-.8,0,-1.6,.3,-2.1,.9c-.6,.5,-.9,1.3,-.9,2.1c0,.8,.3,1.5,.9,2.1c.5,.5,1.3,.8,2.1,.8Z" class="g3_254"/>
<path d="M288.7,357.2v10l-4.1,-1.9L193.4,535.4l-.3,-.2L284.3,365.1l-4.1,-1.9l8.5,-6ZM416.1,297.9l9,5.3l-3.9,2.2l90.6,140.8l-.3,.1L420.9,305.6l-4,2.2l-.8,-9.9Z" class="g4_254"/>
<path d="M193.2,547.2V286" class="g5_254"/>
<path d="M193.2,547.2v3.5" class="g6_254"/>
<path d="M188.5,554.3c.8,0,1.4,.3,1.9,.9c.4,.7,.6,1.6,.6,2.8c0,1.2,-.2,2.1,-.6,2.8c-.5,.6,-1.1,.9,-1.9,.9c-.8,0,-1.4,-.3,-1.8,-.9c-.4,-.7,-.6,-1.6,-.6,-2.8c0,-1.2,.2,-2.1,.6,-2.8c.4,-.6,1,-.9,1.8,-.9Zm0,.8c-.5,0,-.8,.2,-1.1,.7c-.2,.5,-.4,1.2,-.4,2.2c0,1,.2,1.7,.4,2.2c.3,.5,.6,.7,1.1,.7c.5,0,.9,-.2,1.2,-.7c.2,-.5,.3,-1.2,.3,-2.2c0,-1,-.1,-1.7,-.3,-2.2c-.3,-.5,-.7,-.7,-1.2,-.7Z" class="g7_254"/>
<path d="M192.7,561.6h1v-1.2h-1Z" class="g7_254"/>
<path d="M197.9,554.3c.8,0,1.4,.3,1.8,.9c.5,.7,.7,1.6,.7,2.8c0,1.2,-.2,2.1,-.7,2.8c-.4,.6,-1,.9,-1.8,.9c-.8,0,-1.4,-.3,-1.8,-.9c-.5,-.7,-.7,-1.6,-.7,-2.8c0,-1.2,.2,-2.1,.7,-2.8c.4,-.6,1,-.9,1.8,-.9Zm0,.8c-.5,0,-.9,.2,-1.1,.7c-.3,.5,-.4,1.2,-.4,2.2c0,1,.1,1.7,.4,2.2c.2,.5,.6,.7,1.1,.7c.5,0,.9,-.2,1.1,-.7c.3,-.5,.4,-1.2,.4,-2.2c0,-1,-.1,-1.7,-.4,-2.2c-.2,-.5,-.6,-.7,-1.1,-.7Z" class="g7_254"/>
<path d="M256.9,547.2V286" class="g5_254"/>
<path d="M256.9,547.2v3.5" class="g6_254"/>
<path d="M252.2,554.3c.8,0,1.4,.3,1.9,.9c.4,.7,.6,1.6,.6,2.8c0,1.2,-.2,2.1,-.6,2.8c-.5,.6,-1.1,.9,-1.9,.9c-.8,0,-1.4,-.3,-1.8,-.9c-.4,-.7,-.7,-1.6,-.7,-2.8c0,-1.2,.3,-2.1,.7,-2.8c.4,-.6,1,-.9,1.8,-.9Zm0,.8c-.5,0,-.9,.2,-1.1,.7c-.3,.5,-.4,1.2,-.4,2.2c0,1,.1,1.7,.4,2.2c.2,.5,.6,.7,1.1,.7c.5,0,.9,-.2,1.1,-.7c.3,-.5,.4,-1.2,.4,-2.2c0,-1,-.1,-1.7,-.4,-2.2c-.2,-.5,-.6,-.7,-1.1,-.7Z" class="g7_254"/>
<path d="M256.4,561.6h1v-1.2h-1Z" class="g7_254"/>
<path d="M260.3,560.8h3.4v.8h-4.5v-.8c.4,-.4,.9,-.9,1.5,-1.6c.6,-.6,1,-1,1.2,-1.2c.3,-.4,.5,-.7,.6,-.9c.2,-.2,.2,-.5,.2,-.7c0,-.4,-.1,-.7,-.4,-.9c-.3,-.3,-.6,-.4,-1,-.4c-.3,0,-.7,.1,-1,.2c-.3,.1,-.7,.2,-1.1,.4v-.9c.4,-.2,.8,-.3,1.1,-.4c.4,-.1,.7,-.1,1,-.1c.7,0,1.3,.2,1.7,.5c.5,.4,.7,.9,.7,1.5c0,.3,-.1,.6,-.2,.9c-.1,.2,-.3,.5,-.6,.9c-.1,.1,-.3,.4,-.7,.8c-.5,.4,-1.1,1.1,-1.9,1.9Z" class="g7_254"/>
<path d="M320.6,547.2V286" class="g5_254"/>
<path d="M320.6,547.2v3.5" class="g6_254"/>
<path d="M315.9,554.3c.8,0,1.4,.3,1.8,.9c.5,.7,.7,1.6,.7,2.8c0,1.2,-.2,2.1,-.7,2.8c-.4,.6,-1,.9,-1.8,.9c-.8,0,-1.4,-.3,-1.8,-.9c-.5,-.7,-.7,-1.6,-.7,-2.8c0,-1.2,.2,-2.1,.7,-2.8c.4,-.6,1,-.9,1.8,-.9Zm0,.8c-.5,0,-.9,.2,-1.1,.7c-.3,.5,-.4,1.2,-.4,2.2c0,1,.1,1.7,.4,2.2c.2,.5,.6,.7,1.1,.7c.5,0,.9,-.2,1.1,-.7c.3,-.5,.4,-1.2,.4,-2.2c0,-1,-.1,-1.7,-.4,-2.2c-.2,-.5,-.6,-.7,-1.1,-.7Z" class="g7_254"/>
<path d="M320.1,561.6h1v-1.2h-1Z" class="g7_254"/>
<path d="M325.6,554.4h1.2v4.7h1v.8h-1v1.7h-.9v-1.7h-3.3V559l3,-4.6Zm.3,.9l-2.5,3.8h2.5v-3.8Z" class="g7_254"/>
<path d="M384.3,547.2V286" class="g5_254"/>
<path d="M384.3,547.2v3.5" class="g6_254"/>
<path d="M379.6,554.3c.8,0,1.4,.3,1.8,.9c.5,.7,.7,1.6,.7,2.8c0,1.2,-.2,2.1,-.7,2.8c-.4,.6,-1,.9,-1.8,.9c-.8,0,-1.4,-.3,-1.8,-.9c-.5,-.7,-.7,-1.6,-.7,-2.8c0,-1.2,.2,-2.1,.7,-2.8c.4,-.6,1,-.9,1.8,-.9Zm0,.8c-.5,0,-.9,.2,-1.1,.7c-.3,.5,-.4,1.2,-.4,2.2c0,1,.1,1.7,.4,2.2c.2,.5,.6,.7,1.1,.7c.5,0,.9,-.2,1.1,-.7c.3,-.5,.4,-1.2,.4,-2.2c0,-1,-.1,-1.7,-.4,-2.2c-.2,-.5,-.6,-.7,-1.1,-.7Z" class="g7_254"/>
<path d="M383.8,561.6h1v-1.2h-1Z" class="g7_254"/>
<path d="M391,554.6v.9c-.2,-.2,-.5,-.2,-.7,-.3c-.3,-.1,-.5,-.1,-.8,-.1c-.6,0,-1.1,.2,-1.4,.7c-.4,.4,-.6,1,-.6,1.9c.2,-.3,.4,-.5,.7,-.6c.3,-.2,.6,-.3,.9,-.3c.8,0,1.3,.3,1.7,.7c.5,.4,.7,1,.7,1.8c0,.7,-.3,1.3,-.7,1.7c-.4,.5,-1,.7,-1.7,.7c-.8,0,-1.5,-.3,-1.9,-.9c-.5,-.7,-.7,-1.6,-.7,-2.8c0,-1.1,.3,-2,.8,-2.7c.6,-.7,1.3,-1,2.2,-1c.2,0,.5,0,.7,.1c.3,0,.5,.1,.8,.2Zm-1.9,3c-.5,0,-.8,.2,-1.1,.5c-.2,.3,-.3,.7,-.3,1.2c0,.5,.1,.9,.3,1.2c.3,.3,.6,.4,1.1,.4c.4,0,.8,-.1,1,-.4c.3,-.3,.4,-.7,.4,-1.2c0,-.5,-.1,-.9,-.4,-1.2c-.2,-.3,-.6,-.5,-1,-.5Z" class="g7_254"/>
<path d="M448,547.2V286" class="g5_254"/>
<path d="M448,547.2v3.5" class="g6_254"/>
<path d="M443.3,554.3c.8,0,1.4,.3,1.8,.9c.4,.7,.7,1.6,.7,2.8c0,1.2,-.3,2.1,-.7,2.8c-.4,.6,-1,.9,-1.8,.9c-.8,0,-1.4,-.3,-1.9,-.9c-.4,-.7,-.6,-1.6,-.6,-2.8c0,-1.2,.2,-2.1,.6,-2.8c.5,-.6,1.1,-.9,1.9,-.9Zm0,.8c-.5,0,-.9,.2,-1.1,.7c-.3,.5,-.4,1.2,-.4,2.2c0,1,.1,1.7,.4,2.2c.2,.5,.6,.7,1.1,.7c.5,0,.9,-.2,1.1,-.7c.3,-.5,.4,-1.2,.4,-2.2c0,-1,-.1,-1.7,-.4,-2.2c-.2,-.5,-.6,-.7,-1.1,-.7Z" class="g7_254"/>
<path d="M447.5,561.6h1v-1.2h-1Z" class="g7_254"/>
<path d="M451.3,556.2c0,.4,.1,.7,.4,.9c.2,.2,.5,.3,.9,.3c.5,0,.8,-.1,1,-.3c.3,-.2,.4,-.5,.4,-.9c0,-.3,-.1,-.6,-.4,-.8c-.2,-.2,-.5,-.3,-1,-.3c-.4,0,-.7,.1,-.9,.3c-.3,.2,-.4,.5,-.4,.8Zm.4,1.6c-.4,-.1,-.8,-.3,-1,-.6c-.2,-.3,-.3,-.6,-.3,-1.1c0,-.5,.2,-1,.6,-1.3c.4,-.3,.9,-.5,1.6,-.5c.8,0,1.3,.2,1.7,.5c.4,.3,.6,.8,.6,1.3c0,.5,-.1,.8,-.3,1.1c-.2,.3,-.6,.5,-1,.6c.5,.1,.8,.3,1.1,.6c.3,.3,.4,.7,.4,1.2c0,.7,-.2,1.2,-.6,1.6c-.5,.3,-1.1,.5,-1.9,.5c-.7,0,-1.4,-.2,-1.8,-.5c-.4,-.4,-.6,-.9,-.6,-1.6c0,-.5,.1,-.9,.4,-1.2c.2,-.3,.6,-.5,1.1,-.6Zm.9,.4c-.4,0,-.8,.1,-1,.3c-.3,.3,-.4,.6,-.4,1.1c0,.4,.1,.7,.4,1c.2,.2,.6,.3,1,.3c.5,0,.9,-.1,1.1,-.3c.3,-.3,.4,-.6,.4,-1c0,-.5,-.1,-.8,-.4,-1.1c-.2,-.2,-.6,-.3,-1.1,-.3Z" class="g7_254"/>
<path d="M511.7,547.2V286" class="g5_254"/>
<path d="M511.7,547.2v3.5" class="g6_254"/>
<path d="M505.1,560.8h1.5v-5.5l-1.7,.3v-.8l1.7,-.4h1v6.4h1.6v.8h-4.1v-.8Z" class="g7_254"/>
<path d="M511.1,561.6h1.1v-1.2h-1.1Z" class="g7_254"/>
<path d="M516.3,554.3c.8,0,1.4,.3,1.9,.9c.4,.7,.6,1.6,.6,2.8c0,1.2,-.2,2.1,-.6,2.8c-.5,.6,-1.1,.9,-1.9,.9c-.8,0,-1.4,-.3,-1.8,-.9c-.4,-.7,-.6,-1.6,-.6,-2.8c0,-1.2,.2,-2.1,.6,-2.8c.4,-.6,1,-.9,1.8,-.9Zm0,.8c-.5,0,-.8,.2,-1.1,.7c-.2,.5,-.4,1.2,-.4,2.2c0,1,.2,1.7,.4,2.2c.3,.5,.6,.7,1.1,.7c.5,0,.9,-.2,1.2,-.7c.2,-.5,.3,-1.2,.3,-2.2c0,-1,-.1,-1.7,-.3,-2.2c-.3,-.5,-.7,-.7,-1.2,-.7Z" class="g7_254"/>
<path d="M354.9,569.6l-1.9,2.6l2,2.8h-1l-1.6,-2.1l-1.6,2.1h-1l2.1,-2.8L350,569.6h1l1.4,1.9l1.5,-1.9h1Z" class="g7_254"/>
<path d="M177.1,535.3H527.7" class="g5_254"/>
<path d="M177.1,535.3h-3.4" class="g6_254"/>
<path d="M157.8,531.7c.8,0,1.4,.4,1.8,1c.4,.6,.6,1.6,.6,2.8c0,1.2,-.2,2.1,-.6,2.7c-.4,.7,-1,1,-1.8,1c-.8,0,-1.4,-.3,-1.9,-1c-.4,-.6,-.6,-1.5,-.6,-2.7c0,-1.2,.2,-2.2,.6,-2.8c.5,-.6,1.1,-1,1.9,-1Zm0,.8c-.5,0,-.9,.3,-1.1,.7c-.3,.5,-.4,1.3,-.4,2.3c0,.9,.1,1.7,.4,2.2c.2,.5,.6,.7,1.1,.7c.5,0,.9,-.2,1.1,-.7c.3,-.5,.4,-1.3,.4,-2.2c0,-1,-.1,-1.8,-.4,-2.3c-.2,-.4,-.6,-.7,-1.1,-.7Z" class="g7_254"/>
<path d="M162,539h1v-1.2h-1Z" class="g7_254"/>
<path d="M165.9,538.2h3.4v.8h-4.6v-.8c.4,-.4,.9,-.9,1.5,-1.5c.7,-.7,1.1,-1.1,1.2,-1.3c.4,-.3,.6,-.6,.7,-.8c.1,-.3,.2,-.5,.2,-.7c0,-.4,-.2,-.7,-.4,-1c-.3,-.2,-.6,-.3,-1.1,-.3c-.3,0,-.6,0,-.9,.1c-.4,.1,-.7,.3,-1.1,.5v-1c.4,-.1,.7,-.3,1.1,-.3c.3,-.1,.6,-.2,.9,-.2c.8,0,1.3,.2,1.8,.6c.4,.4,.6,.9,.6,1.5c0,.3,0,.6,-.1,.8c-.1,.3,-.3,.6,-.6,1c-.1,.1,-.4,.3,-.8,.8c-.4,.4,-1,1,-1.8,1.8Z" class="g7_254"/>
<path d="M177.1,505.6H527.7" class="g5_254"/>
<path d="M177.1,505.6h-3.4" class="g6_254"/>
<path d="M157.8,502.1c.8,0,1.4,.3,1.8,.9c.4,.7,.6,1.6,.6,2.8c0,1.2,-.2,2.1,-.6,2.7c-.4,.7,-1,1,-1.8,1c-.8,0,-1.4,-.3,-1.9,-1c-.4,-.6,-.6,-1.5,-.6,-2.7c0,-1.2,.2,-2.1,.6,-2.8c.5,-.6,1.1,-.9,1.9,-.9Zm0,.7c-.5,0,-.9,.3,-1.1,.8c-.3,.5,-.4,1.2,-.4,2.2c0,1,.1,1.7,.4,2.2c.2,.5,.6,.7,1.1,.7c.5,0,.9,-.2,1.1,-.7c.3,-.5,.4,-1.2,.4,-2.2c0,-1,-.1,-1.7,-.4,-2.2c-.2,-.5,-.6,-.8,-1.1,-.8Z" class="g7_254"/>
<path d="M162,509.4h1v-1.3h-1Z" class="g7_254"/>
<path d="M168,505.5c.5,.1,.8,.3,1.1,.6c.2,.3,.4,.7,.4,1.2c0,.7,-.3,1.2,-.7,1.6c-.5,.4,-1.2,.6,-2.1,.6c-.3,0,-.6,0,-.9,-.1c-.4,-.1,-.7,-.1,-1,-.3v-.9c.2,.2,.5,.3,.9,.4c.3,0,.6,.1,1,.1c.6,0,1,-.1,1.3,-.4c.4,-.2,.5,-.6,.5,-1c0,-.4,-.1,-.8,-.4,-1c-.3,-.3,-.7,-.4,-1.3,-.4H166v-.8h.9c.5,0,.8,-.1,1.1,-.3c.2,-.1,.4,-.4,.4,-.8c0,-.3,-.2,-.6,-.4,-.8c-.3,-.2,-.7,-.3,-1.2,-.3c-.2,0,-.5,0,-.8,.1c-.3,0,-.7,.1,-1,.2v-.8c.4,-.1,.7,-.2,1,-.3c.3,0,.6,0,.9,0c.8,0,1.3,.1,1.8,.5c.4,.3,.6,.8,.6,1.3c0,.4,-.1,.8,-.3,1c-.3,.3,-.6,.5,-1,.6Z" class="g7_254"/>
<path d="M177.1,475.9H527.7" class="g5_254"/>
<path d="M177.1,475.9h-3.4" class="g6_254"/>
<path d="M157.8,472.4c.8,0,1.4,.3,1.8,.9c.4,.7,.6,1.6,.6,2.8c0,1.2,-.2,2.1,-.6,2.8c-.4,.6,-1,.9,-1.8,.9c-.8,0,-1.4,-.3,-1.9,-.9c-.4,-.7,-.6,-1.6,-.6,-2.8c0,-1.2,.2,-2.1,.6,-2.8c.5,-.6,1.1,-.9,1.9,-.9Zm0,.8c-.5,0,-.9,.2,-1.1,.7c-.3,.5,-.4,1.2,-.4,2.2c0,1,.1,1.7,.4,2.2c.2,.5,.6,.7,1.1,.7c.5,0,.9,-.2,1.1,-.7c.3,-.5,.4,-1.2,.4,-2.2c0,-1,-.1,-1.7,-.4,-2.2c-.2,-.5,-.6,-.7,-1.1,-.7Z" class="g7_254"/>
<path d="M162,479.7h1v-1.2h-1Z" class="g7_254"/>
<path d="M167.5,472.5h1.2v4.7h1v.8h-1v1.7h-1V478h-3.2v-.9l3,-4.6Zm.2,.9l-2.4,3.8h2.4v-3.8Z" class="g7_254"/>
<path d="M177.1,446.3H527.7" class="g5_254"/>
<path d="M177.1,446.3h-3.4" class="g6_254"/>
<path d="M157.8,442.7c.8,0,1.4,.3,1.8,1c.4,.6,.6,1.5,.6,2.7c0,1.2,-.2,2.2,-.6,2.8c-.4,.6,-1,.9,-1.8,.9c-.8,0,-1.4,-.3,-1.9,-.9c-.4,-.6,-.6,-1.6,-.6,-2.8c0,-1.2,.2,-2.1,.6,-2.7c.5,-.7,1.1,-1,1.9,-1Zm0,.8c-.5,0,-.9,.2,-1.1,.7c-.3,.5,-.4,1.2,-.4,2.2c0,1,.1,1.7,.4,2.2c.2,.5,.6,.8,1.1,.8c.5,0,.9,-.3,1.1,-.8c.3,-.5,.4,-1.2,.4,-2.2c0,-1,-.1,-1.7,-.4,-2.2c-.2,-.5,-.6,-.7,-1.1,-.7Z" class="g7_254"/>
<path d="M162,450h1v-1.2h-1Z" class="g7_254"/>
<path d="M165.1,442.8h3.8v.9H166v1.7c.1,0,.2,-.1,.4,-.1c.1,0,.3,0,.4,0c.8,0,1.4,.2,1.9,.6c.5,.5,.7,1.1,.7,1.8c0,.8,-.2,1.4,-.7,1.8c-.5,.4,-1.2,.6,-2,.6c-.3,0,-.6,0,-1,0c-.3,-.1,-.6,-.2,-.9,-.3v-.9c.3,.1,.6,.2,.9,.3c.3,.1,.6,.1,.9,.1c.6,0,1,-.1,1.4,-.4c.3,-.3,.4,-.7,.4,-1.2c0,-.5,-.1,-.9,-.4,-1.2c-.4,-.3,-.8,-.4,-1.4,-.4c-.2,0,-.5,0,-.7,.1c-.3,0,-.6,.1,-.8,.2v-3.6Z" class="g7_254"/>
<path d="M177.1,416.6H527.7" class="g5_254"/>
<path d="M177.1,416.6h-3.4" class="g6_254"/>
<path d="M157.8,413c.8,0,1.4,.4,1.8,1c.4,.6,.6,1.5,.6,2.7c0,1.3,-.2,2.2,-.6,2.8c-.4,.6,-1,1,-1.8,1c-.8,0,-1.4,-.4,-1.9,-1c-.4,-.6,-.6,-1.5,-.6,-2.8c0,-1.2,.2,-2.1,.6,-2.7c.5,-.6,1.1,-1,1.9,-1Zm0,.8c-.5,0,-.9,.2,-1.1,.7c-.3,.5,-.4,1.3,-.4,2.2c0,1,.1,1.8,.4,2.3c.2,.4,.6,.7,1.1,.7c.5,0,.9,-.3,1.1,-.7c.3,-.5,.4,-1.3,.4,-2.3c0,-.9,-.1,-1.7,-.4,-2.2c-.2,-.5,-.6,-.7,-1.1,-.7Z" class="g7_254"/>
<path d="M162,420.3h1v-1.2h-1Z" class="g7_254"/>
<path d="M169.2,413.3v.9c-.3,-.1,-.5,-.2,-.8,-.3c-.2,0,-.4,-.1,-.7,-.1c-.6,0,-1.1,.3,-1.5,.7c-.3,.4,-.5,1.1,-.5,2c.2,-.3,.4,-.5,.7,-.7c.3,-.1,.6,-.2,.9,-.2c.7,0,1.3,.2,1.7,.6c.4,.5,.6,1.1,.6,1.8c0,.8,-.2,1.3,-.6,1.8c-.4,.4,-1,.7,-1.7,.7c-.9,0,-1.5,-.4,-1.9,-1c-.5,-.6,-.7,-1.5,-.7,-2.8c0,-1.1,.3,-2,.8,-2.7c.5,-.6,1.3,-1,2.2,-1c.2,0,.5,.1,.7,.1c.3,.1,.5,.1,.8,.2Zm-1.9,3.1c-.5,0,-.8,.1,-1.1,.4c-.2,.3,-.4,.7,-.4,1.2c0,.5,.2,.9,.4,1.2c.3,.3,.6,.5,1.1,.5c.4,0,.7,-.2,1,-.5c.2,-.3,.4,-.7,.4,-1.2c0,-.5,-.2,-.9,-.4,-1.2c-.3,-.3,-.6,-.4,-1,-.4Z" class="g7_254"/>
<path d="M177.1,386.9H527.7" class="g5_254"/>
<path d="M177.1,386.9h-3.4" class="g6_254"/>
<path d="M157.8,383.4c.8,0,1.4,.3,1.8,.9c.4,.6,.6,1.6,.6,2.8c0,1.2,-.2,2.1,-.6,2.7c-.4,.7,-1,1,-1.8,1c-.8,0,-1.4,-.3,-1.9,-1c-.4,-.6,-.6,-1.5,-.6,-2.7c0,-1.2,.2,-2.2,.6,-2.8c.5,-.6,1.1,-.9,1.9,-.9Zm0,.7c-.5,0,-.9,.3,-1.1,.8c-.3,.4,-.4,1.2,-.4,2.2c0,1,.1,1.7,.4,2.2c.2,.5,.6,.7,1.1,.7c.5,0,.9,-.2,1.1,-.7c.3,-.5,.4,-1.2,.4,-2.2c0,-1,-.1,-1.8,-.4,-2.2c-.2,-.5,-.6,-.8,-1.1,-.8Z" class="g7_254"/>
<path d="M162,390.6h1v-1.2h-1Z" class="g7_254"/>
<path d="M164.8,383.5h4.6v.4l-2.6,6.7h-1l2.5,-6.3h-3.5v-.8Z" class="g7_254"/>
<path d="M177.1,357.2H527.7" class="g5_254"/>
<path d="M177.1,357.2h-3.4" class="g6_254"/>
<path d="M157.8,353.7c.8,0,1.4,.3,1.8,.9c.4,.7,.6,1.6,.6,2.8c0,1.2,-.2,2.1,-.6,2.8c-.4,.6,-1,.9,-1.8,.9c-.8,0,-1.4,-.3,-1.9,-.9c-.4,-.7,-.6,-1.6,-.6,-2.8c0,-1.2,.2,-2.1,.6,-2.8c.5,-.6,1.1,-.9,1.9,-.9Zm0,.7c-.5,0,-.9,.3,-1.1,.8c-.3,.5,-.4,1.2,-.4,2.2c0,1,.1,1.7,.4,2.2c.2,.5,.6,.7,1.1,.7c.5,0,.9,-.2,1.1,-.7c.3,-.5,.4,-1.2,.4,-2.2c0,-1,-.1,-1.7,-.4,-2.2c-.2,-.5,-.6,-.8,-1.1,-.8Z" class="g7_254"/>
<path d="M162,361h1v-1.3h-1Z" class="g7_254"/>
<path d="M165.8,355.6c0,.4,.1,.7,.4,.9c.2,.2,.5,.3,.9,.3c.5,0,.8,-.1,1,-.3c.3,-.2,.4,-.5,.4,-.9c0,-.3,-.1,-.6,-.4,-.8c-.2,-.3,-.5,-.4,-1,-.4c-.4,0,-.7,.1,-.9,.4c-.3,.2,-.4,.5,-.4,.8Zm.4,1.6c-.4,-.1,-.8,-.3,-1,-.6c-.2,-.3,-.3,-.7,-.3,-1.1c0,-.5,.2,-1,.6,-1.3c.4,-.4,.9,-.5,1.6,-.5c.8,0,1.3,.1,1.7,.5c.4,.3,.6,.8,.6,1.3c0,.4,-.1,.8,-.3,1.1c-.3,.3,-.6,.5,-1,.6c.5,.1,.8,.3,1.1,.6c.3,.3,.4,.7,.4,1.1c0,.7,-.2,1.3,-.6,1.6c-.5,.4,-1.1,.6,-1.9,.6c-.7,0,-1.4,-.2,-1.8,-.6c-.4,-.3,-.6,-.9,-.6,-1.6c0,-.4,.1,-.8,.4,-1.1c.2,-.3,.6,-.5,1.1,-.6Zm.9,.4c-.4,0,-.8,.1,-1,.3c-.3,.3,-.4,.6,-.4,1c0,.5,.1,.8,.4,1.1c.2,.2,.6,.3,1,.3c.5,0,.9,-.1,1.1,-.3c.3,-.3,.4,-.6,.4,-1.1c0,-.4,-.1,-.7,-.4,-1c-.2,-.2,-.6,-.3,-1.1,-.3Z" class="g7_254"/>
<path d="M177.1,327.6H527.7" class="g5_254"/>
<path d="M177.1,327.6h-3.4" class="g6_254"/>
<path d="M157.8,324c.8,0,1.4,.3,1.8,1c.4,.6,.6,1.5,.6,2.7c0,1.2,-.2,2.1,-.6,2.8c-.4,.6,-1,.9,-1.8,.9c-.8,0,-1.4,-.3,-1.9,-.9c-.4,-.7,-.6,-1.6,-.6,-2.8c0,-1.2,.2,-2.1,.6,-2.7c.5,-.7,1.1,-1,1.9,-1Zm0,.8c-.5,0,-.9,.2,-1.1,.7c-.3,.5,-.4,1.2,-.4,2.2c0,1,.1,1.7,.4,2.2c.2,.5,.6,.8,1.1,.8c.5,0,.9,-.3,1.1,-.8c.3,-.5,.4,-1.2,.4,-2.2c0,-1,-.1,-1.7,-.4,-2.2c-.2,-.5,-.6,-.7,-1.1,-.7Z" class="g7_254"/>
<path d="M162,331.3h1v-1.2h-1Z" class="g7_254"/>
<path d="M167,328.1c.5,0,.8,-.1,1.1,-.4c.2,-.3,.3,-.7,.3,-1.3c0,-.5,-.1,-.9,-.3,-1.2c-.3,-.3,-.6,-.4,-1.1,-.4c-.4,0,-.8,.1,-1,.4c-.3,.3,-.4,.7,-.4,1.2c0,.6,.1,1,.4,1.3c.2,.3,.6,.4,1,.4Zm-1.9,3v-.8c.2,.1,.5,.2,.7,.2c.3,.1,.5,.1,.8,.1c.6,0,1.1,-.2,1.4,-.6c.4,-.5,.6,-1.1,.6,-2c-.2,.3,-.4,.5,-.7,.6c-.3,.2,-.6,.3,-.9,.3c-.8,0,-1.3,-.3,-1.7,-.7c-.5,-.4,-.7,-1,-.7,-1.8c0,-.7,.3,-1.3,.7,-1.7c.4,-.5,1,-.7,1.7,-.7c.9,0,1.5,.3,1.9,1c.5,.6,.7,1.5,.7,2.7c0,1.1,-.3,2,-.8,2.7c-.6,.7,-1.3,1,-2.2,1c-.2,0,-.5,0,-.7,0c-.3,-.1,-.5,-.2,-.8,-.3Z" class="g7_254"/>
<path d="M177.1,297.9H527.7" class="g5_254"/>
<path d="M177.1,297.9h-3.4" class="g6_254"/>
<path d="M155.9,300.8h1.6v-5.5l-1.8,.4v-.9l1.7,-.3h1v6.3H160v.8h-4.1v-.8Z" class="g7_254"/>
<path d="M162,301.6h1v-1.2h-1Z" class="g7_254"/>
<path d="M167.1,294.3c.8,0,1.5,.3,1.9,1c.4,.6,.6,1.5,.6,2.7c0,1.2,-.2,2.2,-.6,2.8c-.4,.6,-1.1,.9,-1.9,.9c-.8,0,-1.4,-.3,-1.8,-.9c-.4,-.6,-.6,-1.6,-.6,-2.8c0,-1.2,.2,-2.1,.6,-2.7c.4,-.7,1,-1,1.8,-1Zm0,.8c-.5,0,-.8,.2,-1.1,.7c-.2,.5,-.4,1.3,-.4,2.2c0,1,.2,1.8,.4,2.2c.3,.5,.6,.8,1.1,.8c.5,0,.9,-.3,1.2,-.8c.2,-.4,.3,-1.2,.3,-2.2c0,-.9,-.1,-1.7,-.3,-2.2c-.3,-.5,-.7,-.7,-1.2,-.7Z" class="g7_254"/>
<path d="M149.2,416.4c.6,.2,1,.5,1.2,.7c.2,.2,.3,.6,.3,.9v.8H150v-.6c0,-.2,-.1,-.4,-.2,-.5c-.1,-.2,-.4,-.3,-.8,-.5l-.4,-.1l-5.3,2.1v-.9l4.2,-1.7l-4.2,-1.7V414l5.9,2.4Z" class="g7_254"/>
<path d="M193.2,535.3l2.9,-5.3l2.9,-5.2C231.8,466.2,283.5,393.7,349.1,369.5l3.3,-1.1l3.4,-1.1c64.6,-19.5,114.9,19.3,150.1,70.3l2.9,4.3l2.9,4.4" class="g8_254"/>
<path d="M177.1,547.2V286M527.7,547.2V286M177.1,547.2H527.7M177.1,286H527.7" class="g9_254"/>
<path d="M236.6,272.2v1.2c-.4,-.4,-.8,-.6,-1.2,-.8c-.5,-.2,-.9,-.3,-1.4,-.3c-1,0,-1.8,.3,-2.3,.9c-.5,.6,-.8,1.5,-.8,2.6c0,1.2,.3,2,.8,2.6c.5,.6,1.3,.9,2.3,.9c.5,0,.9,-.1,1.4,-.2c.4,-.2,.8,-.5,1.2,-.9v1.3c-.4,.2,-.8,.4,-1.3,.6c-.4,.1,-.9,.2,-1.4,.2c-1.3,0,-2.3,-.4,-3.1,-1.2c-.7,-.8,-1.1,-1.9,-1.1,-3.3c0,-1.4,.4,-2.4,1.1,-3.2c.8,-.8,1.8,-1.2,3.1,-1.2c.5,0,1,0,1.5,.2c.4,.1,.8,.3,1.2,.6Z" class="g7_254"/>
<path d="M240.9,273.5v0Zm-2.6,4.1v-3.9h1v3.8c0,.6,.2,1.1,.4,1.4c.2,.3,.6,.5,1.1,.5c.5,0,1,-.2,1.3,-.6c.3,-.4,.5,-.8,.5,-1.5v-3.6h1.1v6.4h-1.1v-1c-.2,.4,-.5,.7,-.9,.9c-.3,.2,-.7,.3,-1.2,.3c-.7,0,-1.3,-.3,-1.7,-.7c-.3,-.5,-.5,-1.1,-.5,-2Z" class="g7_254"/>
<path d="M246.9,274.6c.2,-.3,.5,-.6,.8,-.8c.4,-.2,.8,-.3,1.2,-.3c.8,0,1.5,.3,1.9,.9c.5,.7,.8,1.5,.8,2.5c0,1,-.3,1.8,-.8,2.4c-.4,.7,-1.1,1,-1.9,1c-.4,0,-.8,-.1,-1.2,-.3c-.3,-.2,-.6,-.5,-.8,-.9v1h-1.1v-8.9h1.1v3.4Zm3.6,2.3c0,-.8,-.2,-1.4,-.5,-1.8c-.3,-.5,-.8,-.7,-1.3,-.7c-.6,0,-1,.2,-1.3,.7c-.4,.4,-.5,1,-.5,1.8c0,.8,.1,1.4,.5,1.8c.3,.5,.7,.7,1.3,.7c.5,0,1,-.2,1.3,-.7c.3,-.4,.5,-1,.5,-1.8Z" class="g7_254"/>
<path d="M253.3,271.2h1.1v1.3h-1.1Zm0,2.5h1.1v6.4h-1.1Z" class="g7_254"/>
<path d="M261.2,273.9v1c-.3,-.2,-.6,-.3,-.9,-.4c-.3,0,-.6,-.1,-.9,-.1c-.7,0,-1.2,.2,-1.6,.7c-.4,.4,-.5,1,-.5,1.8c0,.8,.1,1.4,.5,1.8c.4,.5,.9,.7,1.6,.7c.3,0,.6,-.1,.9,-.1c.3,-.1,.6,-.2,.9,-.4v1c-.3,.1,-.6,.2,-.9,.3c-.3,0,-.6,.1,-1,.1c-1,0,-1.7,-.3,-2.3,-.9c-.6,-.6,-.9,-1.5,-.9,-2.5c0,-1.1,.3,-1.9,.9,-2.5c.6,-.6,1.4,-.9,2.4,-.9c.3,0,.6,0,.9,.1c.3,.1,.6,.2,.9,.3Z" class="g7_254"/>
<path d="M266.9,271.5h2.9c.9,0,1.6,.2,2.1,.6c.5,.3,.7,.9,.7,1.5c0,.6,-.1,1,-.4,1.3c-.2,.3,-.6,.5,-1,.6c.5,.1,1,.4,1.3,.7c.3,.4,.5,.9,.5,1.5c0,.8,-.3,1.4,-.8,1.8c-.5,.4,-1.3,.6,-2.2,.6h-3.1v-8.6Zm1.1,1v2.6h1.8c.5,0,.9,-.1,1.2,-.4c.3,-.2,.4,-.5,.4,-.9c0,-.5,-.1,-.8,-.4,-1c-.3,-.2,-.7,-.3,-1.2,-.3H268Zm0,3.5v3.2h1.9c.6,0,1.1,-.2,1.4,-.4c.3,-.3,.4,-.7,.4,-1.2c0,-.6,-.1,-1,-.4,-1.2c-.3,-.3,-.8,-.4,-1.4,-.4H268Z" class="g7_254"/>
<path d="M279.4,276.3c-.1,-.6,-.2,-1,-.5,-1.4c-.3,-.3,-.8,-.5,-1.3,-.5c-.6,0,-1,.2,-1.4,.5c-.4,.3,-.6,.8,-.6,1.4h3.8Zm1,.3v.5h-4.9c.1,.8,.3,1.3,.7,1.7c.4,.4,.9,.6,1.6,.6c.5,0,.8,-.1,1.2,-.2c.4,-.1,.8,-.2,1.2,-.4v1c-.4,.1,-.8,.3,-1.2,.4c-.4,0,-.8,.1,-1.2,.1c-1,0,-1.9,-.3,-2.5,-.9c-.6,-.6,-.9,-1.4,-.9,-2.4c0,-1.1,.3,-1.9,.9,-2.6c.6,-.6,1.3,-.9,2.3,-.9c.9,0,1.6,.3,2.1,.9c.5,.5,.7,1.3,.7,2.2Z" class="g7_254"/>
<path d="M281.7,273.7h5v.9l-4,4.7h4v.8h-5.2v-1l4,-4.6h-3.8v-.8Z" class="g7_254"/>
<path d="M288.3,271.2h1.1v1.3h-1.1Zm0,2.5h1.1v6.4h-1.1Z" class="g7_254"/>
<path d="M296.1,276.3c0,-.6,-.2,-1,-.5,-1.4c-.3,-.3,-.8,-.5,-1.3,-.5c-.6,0,-1,.2,-1.4,.5c-.4,.3,-.6,.8,-.6,1.4h3.8Zm1,.3v.5h-4.8c0,.8,.2,1.3,.6,1.7c.4,.4,1,.6,1.7,.6c.4,0,.8,-.1,1.1,-.2c.4,-.1,.8,-.2,1.2,-.4v1c-.4,.1,-.8,.3,-1.2,.4c-.4,0,-.8,.1,-1.2,.1c-1,0,-1.9,-.3,-2.5,-.9c-.6,-.6,-.9,-1.4,-.9,-2.4c0,-1.1,.3,-1.9,.9,-2.6c.6,-.6,1.3,-.9,2.3,-.9c.9,0,1.6,.3,2.1,.9c.5,.5,.7,1.3,.7,2.2Z" class="g7_254"/>
<path d="M302.6,274.7c-.1,-.1,-.3,-.2,-.4,-.2c-.1,0,-.3,0,-.5,0c-.6,0,-1,.2,-1.3,.5c-.4,.4,-.5,1,-.5,1.7v3.4h-1.1v-6.4h1.1v1c.2,-.4,.5,-.7,.8,-.9c.4,-.2,.8,-.3,1.4,-.3c0,0,.1,0,.2,0c.1,0,.2,.1,.3,.1v1.1Z" class="g7_254"/>
<path d="M312.5,276.4v3.7h-1.1v-1c-.2,.4,-.5,.7,-.9,.9c-.3,.2,-.8,.3,-1.3,.3c-.7,0,-1.2,-.2,-1.6,-.6c-.4,-.3,-.6,-.8,-.6,-1.5c0,-.7,.3,-1.2,.8,-1.6c.5,-.4,1.2,-.6,2.1,-.6h1.5v-.1c0,-.4,-.1,-.8,-.5,-1.1c-.3,-.3,-.7,-.4,-1.3,-.4c-.4,0,-.7,.1,-1.1,.1c-.3,.1,-.7,.3,-1,.4V274c.4,-.2,.8,-.3,1.1,-.4c.4,0,.8,-.1,1.1,-.1c.9,0,1.6,.3,2.1,.7c.5,.5,.7,1.3,.7,2.2Zm-2.1,.5c-.9,0,-1.5,.1,-1.8,.3c-.3,.2,-.5,.5,-.5,1c0,.3,.1,.6,.4,.9c.2,.2,.6,.3,1,.3c.6,0,1,-.2,1.4,-.6c.3,-.4,.5,-1,.5,-1.7v-.2h-1Z" class="g7_254"/>
<path d="M320,276.2v3.9h-1v-3.8c0,-.7,-.2,-1.1,-.4,-1.4c-.2,-.3,-.6,-.5,-1.1,-.5c-.5,0,-1,.2,-1.3,.6c-.3,.3,-.5,.8,-.5,1.5v3.6h-1.1v-6.4h1.1v1c.2,-.4,.5,-.7,.9,-.9c.3,-.2,.7,-.3,1.2,-.3c.7,0,1.3,.2,1.6,.7c.4,.5,.6,1.1,.6,2Z" class="g7_254"/>
<path d="M322.8,276.9c0,.8,.1,1.4,.4,1.8c.4,.5,.8,.7,1.4,.7c.5,0,1,-.2,1.3,-.7c.3,-.4,.5,-1,.5,-1.8c0,-.8,-.2,-1.4,-.5,-1.8c-.3,-.5,-.8,-.7,-1.3,-.7c-.6,0,-1,.2,-1.4,.7c-.3,.4,-.4,1,-.4,1.8Zm3.6,-2.3v-3.4h1v8.9h-1v-1c-.3,.4,-.5,.7,-.9,.9c-.3,.2,-.7,.3,-1.2,.3c-.8,0,-1.4,-.3,-1.9,-1c-.5,-.6,-.7,-1.4,-.7,-2.4c0,-1,.2,-1.8,.7,-2.5c.5,-.6,1.1,-.9,1.9,-.9c.5,0,.9,.1,1.2,.3c.4,.2,.6,.5,.9,.8Z" class="g7_254"/>
<path d="M332.6,273.7h1.1l2,5.4l2,-5.4h1.2l-2.5,6.4H335l-2.4,-6.4Z" class="g7_254"/>
<path d="M344.8,276.3c0,-.6,-.2,-1,-.5,-1.4c-.3,-.3,-.7,-.5,-1.3,-.5c-.6,0,-1,.2,-1.4,.5c-.3,.3,-.5,.8,-.6,1.4h3.8Zm1,.3v.5H341c0,.8,.2,1.3,.6,1.7c.4,.4,1,.6,1.7,.6c.4,0,.8,-.1,1.2,-.2c.3,-.1,.7,-.2,1.1,-.4v1c-.4,.1,-.8,.3,-1.2,.4c-.4,0,-.8,.1,-1.2,.1c-1,0,-1.8,-.3,-2.4,-.9c-.6,-.6,-.9,-1.4,-.9,-2.4c0,-1.1,.2,-1.9,.8,-2.6c.6,-.6,1.4,-.9,2.3,-.9c.9,0,1.6,.3,2.1,.9c.5,.5,.7,1.3,.7,2.2Z" class="g7_254"/>
<path d="M352.2,273.9v1c-.3,-.2,-.6,-.3,-.9,-.4c-.3,0,-.6,-.1,-.9,-.1c-.7,0,-1.2,.2,-1.6,.7c-.4,.4,-.6,1,-.6,1.8c0,.8,.2,1.4,.6,1.8c.4,.5,.9,.7,1.6,.7c.3,0,.6,-.1,.9,-.1c.3,-.1,.6,-.2,.9,-.4v1c-.3,.1,-.6,.2,-.9,.3c-.3,0,-.7,.1,-1,.1c-1,0,-1.8,-.3,-2.3,-.9c-.6,-.6,-.9,-1.5,-.9,-2.5c0,-1.1,.3,-1.9,.9,-2.5c.6,-.6,1.3,-.9,2.4,-.9c.3,0,.6,0,.9,.1c.3,.1,.6,.2,.9,.3Z" class="g7_254"/>
<path d="M355.1,271.8v1.9h2.2v.8h-2.2V278c0,.5,.1,.9,.2,1c.2,.2,.4,.2,.9,.2h1.1v.9h-1.1c-.8,0,-1.4,-.1,-1.7,-.4c-.3,-.4,-.5,-.9,-.5,-1.7v-3.5h-.7v-.8h.7v-1.9h1.1Z" class="g7_254"/>
<path d="M361.2,273.5c.9,0,1.6,.3,2.1,.9c.6,.6,.8,1.4,.8,2.5c0,1.1,-.2,1.9,-.8,2.5c-.5,.6,-1.2,.9,-2.1,.9c-1,0,-1.7,-.3,-2.2,-.9c-.5,-.6,-.8,-1.4,-.8,-2.5c0,-1.1,.3,-1.9,.8,-2.5c.5,-.6,1.2,-.9,2.2,-.9Zm0,.9c-.6,0,-1.1,.2,-1.4,.7c-.3,.4,-.5,1,-.5,1.8c0,.8,.2,1.4,.5,1.8c.3,.5,.8,.7,1.4,.7c.5,0,1,-.2,1.3,-.7c.3,-.4,.5,-1,.5,-1.8c0,-.8,-.2,-1.4,-.5,-1.8c-.3,-.5,-.8,-.7,-1.3,-.7Z" class="g7_254"/>
<path d="M369.6,274.7c-.1,-.1,-.2,-.2,-.4,-.2c-.1,0,-.3,0,-.4,0c-.6,0,-1.1,.2,-1.4,.5c-.3,.4,-.5,1,-.5,1.7v3.4h-1.1v-6.4h1.1v1c.2,-.4,.5,-.7,.9,-.9c.3,-.2,.8,-.3,1.3,-.3c0,0,.1,0,.2,0c.1,0,.2,.1,.3,.1v1.1Z" class="g7_254"/>
<path d="M374.8,273.9v1c-.3,-.2,-.6,-.3,-.9,-.4c-.3,-.1,-.7,-.1,-1,-.1c-.5,0,-.9,.1,-1.2,.2c-.3,.2,-.4,.4,-.4,.8c0,.2,.1,.4,.3,.5c.2,.2,.6,.3,1.1,.4l.4,.1c.7,.2,1.3,.4,1.6,.7c.3,.3,.5,.7,.5,1.2c0,.6,-.3,1.1,-.7,1.5c-.5,.3,-1.2,.5,-2,.5c-.3,0,-.7,-.1,-1.1,-.1c-.3,-.1,-.7,-.2,-1.2,-.3v-1.1c.4,.2,.8,.3,1.2,.4c.4,.1,.8,.2,1.1,.2c.5,0,.9,-.1,1.2,-.3c.2,-.1,.4,-.4,.4,-.7c0,-.3,-.1,-.5,-.3,-.6c-.2,-.2,-.6,-.3,-1.3,-.5l-.4,-.1c-.6,-.1,-1.1,-.3,-1.4,-.6c-.3,-.3,-.4,-.7,-.4,-1.2c0,-.6,.2,-1.1,.6,-1.4c.5,-.3,1.1,-.5,1.9,-.5c.4,0,.7,0,1.1,.1c.3,.1,.6,.1,.9,.3Z" class="g7_254"/>
<path d="M381.6,271.8v1.9h2.2v.8h-2.2V278c0,.5,.1,.9,.3,1c.1,.2,.4,.2,.8,.2h1.1v.9h-1.1c-.8,0,-1.3,-.1,-1.7,-.4c-.3,-.4,-.4,-.9,-.4,-1.7v-3.5h-.8v-.8h.8v-1.9h1Z" class="g7_254"/>
<path d="M387.7,273.5c.9,0,1.7,.3,2.2,.9c.5,.6,.8,1.4,.8,2.5c0,1.1,-.3,1.9,-.8,2.5c-.5,.6,-1.3,.9,-2.2,.9c-.9,0,-1.6,-.3,-2.2,-.9c-.5,-.6,-.7,-1.4,-.7,-2.5c0,-1.1,.2,-1.9,.7,-2.5c.6,-.6,1.3,-.9,2.2,-.9Zm0,.9c-.6,0,-1,.2,-1.3,.7c-.4,.4,-.5,1,-.5,1.8c0,.8,.1,1.4,.5,1.8c.3,.5,.7,.7,1.3,.7c.6,0,1,-.2,1.4,-.7c.3,-.4,.4,-1,.4,-1.8c0,-.8,-.1,-1.4,-.4,-1.8c-.4,-.5,-.8,-.7,-1.4,-.7Z" class="g7_254"/>
<path d="M400.8,273.9v1c-.3,-.2,-.6,-.3,-.9,-.4c-.3,0,-.6,-.1,-.9,-.1c-.7,0,-1.2,.2,-1.6,.7c-.4,.4,-.6,1,-.6,1.8c0,.8,.2,1.4,.6,1.8c.4,.5,.9,.7,1.6,.7c.3,0,.6,-.1,.9,-.1c.3,-.1,.6,-.2,.9,-.4v1c-.3,.1,-.6,.2,-.9,.3c-.3,0,-.7,.1,-1,.1c-1,0,-1.8,-.3,-2.3,-.9c-.6,-.6,-.9,-1.5,-.9,-2.5c0,-1.1,.3,-1.9,.9,-2.5c.6,-.6,1.3,-.9,2.4,-.9c.3,0,.6,0,.9,.1c.3,.1,.6,.2,.9,.3Z" class="g7_254"/>
<path d="M405.1,273.5c1,0,1.7,.3,2.2,.9c.5,.6,.8,1.4,.8,2.5c0,1.1,-.3,1.9,-.8,2.5c-.5,.6,-1.2,.9,-2.2,.9c-.9,0,-1.6,-.3,-2.1,-.9c-.6,-.6,-.8,-1.4,-.8,-2.5c0,-1.1,.2,-1.9,.8,-2.5c.5,-.6,1.2,-.9,2.1,-.9Zm0,.9c-.5,0,-1,.2,-1.3,.7c-.3,.4,-.5,1,-.5,1.8c0,.8,.2,1.4,.5,1.8c.3,.5,.8,.7,1.3,.7c.6,0,1.1,-.2,1.4,-.7c.3,-.4,.5,-1,.5,-1.8c0,-.8,-.2,-1.4,-.5,-1.8c-.3,-.5,-.8,-.7,-1.4,-.7Z" class="g7_254"/>
<path d="M415.2,276.2v3.9h-1v-3.8c0,-.7,-.2,-1.1,-.4,-1.4c-.2,-.3,-.6,-.5,-1.1,-.5c-.5,0,-1,.2,-1.3,.6c-.4,.3,-.5,.8,-.5,1.5v3.6h-1.1v-6.4h1.1v1c.2,-.4,.5,-.7,.9,-.9c.3,-.2,.7,-.3,1.2,-.3c.7,0,1.3,.2,1.6,.7c.4,.5,.6,1.1,.6,2Z" class="g7_254"/>
<path d="M418.4,271.8v1.9h2.1v.8h-2.1V278c0,.5,0,.9,.2,1c.1,.2,.4,.2,.9,.2h1v.9h-1c-.9,0,-1.4,-.1,-1.7,-.4c-.3,-.4,-.5,-.9,-.5,-1.7v-3.5h-.8v-.8h.8v-1.9h1.1Z" class="g7_254"/>
<path d="M425.7,274.7c-.1,-.1,-.3,-.2,-.4,-.2c-.2,0,-.3,0,-.5,0c-.6,0,-1,.2,-1.4,.5c-.3,.4,-.4,1,-.4,1.7v3.4h-1.1v-6.4H423v1c.2,-.4,.5,-.7,.8,-.9c.4,-.2,.8,-.3,1.3,-.3c.1,0,.2,0,.3,0c.1,0,.2,.1,.3,.1v1.1Z" class="g7_254"/>
<path d="M429,273.5c.9,0,1.7,.3,2.2,.9c.5,.6,.8,1.4,.8,2.5c0,1.1,-.3,1.9,-.8,2.5c-.5,.6,-1.3,.9,-2.2,.9c-.9,0,-1.6,-.3,-2.2,-.9c-.5,-.6,-.7,-1.4,-.7,-2.5c0,-1.1,.2,-1.9,.7,-2.5c.6,-.6,1.3,-.9,2.2,-.9Zm0,.9c-.6,0,-1,.2,-1.3,.7c-.4,.4,-.5,1,-.5,1.8c0,.8,.1,1.4,.5,1.8c.3,.5,.7,.7,1.3,.7c.6,0,1,-.2,1.4,-.7c.3,-.4,.5,-1,.5,-1.8c0,-.8,-.2,-1.4,-.5,-1.8c-.4,-.5,-.8,-.7,-1.4,-.7Z" class="g7_254"/>
<path d="M433.7,280.1h1.1v-8.9h-1.1Z" class="g7_254"/>
<path d="M445.4,276.9c0,-.8,-.2,-1.4,-.5,-1.8c-.3,-.5,-.8,-.7,-1.3,-.7c-.6,0,-1,.2,-1.4,.7c-.3,.4,-.4,1,-.4,1.8c0,.8,.1,1.4,.4,1.8c.4,.5,.8,.7,1.4,.7c.5,0,1,-.2,1.3,-.7c.3,-.4,.5,-1,.5,-1.8Zm-3.6,2.2v3.5h-1.1v-8.9h1.1v.9c.2,-.3,.5,-.6,.8,-.8c.4,-.2,.8,-.3,1.2,-.3c.8,0,1.4,.3,1.9,.9c.5,.7,.8,1.5,.8,2.5c0,1,-.3,1.8,-.8,2.4c-.5,.7,-1.1,1,-1.9,1c-.4,0,-.8,-.1,-1.2,-.3c-.3,-.2,-.6,-.5,-.8,-.9Z" class="g7_254"/>
<path d="M450.7,273.5c.9,0,1.7,.3,2.2,.9c.5,.6,.8,1.4,.8,2.5c0,1.1,-.3,1.9,-.8,2.5c-.5,.6,-1.3,.9,-2.2,.9c-.9,0,-1.6,-.3,-2.2,-.9c-.5,-.6,-.7,-1.4,-.7,-2.5c0,-1.1,.2,-1.9,.7,-2.5c.6,-.6,1.3,-.9,2.2,-.9Zm0,.9c-.5,0,-1,.2,-1.3,.7c-.4,.4,-.5,1,-.5,1.8c0,.8,.1,1.4,.5,1.8c.3,.5,.7,.7,1.3,.7c.6,0,1,-.2,1.4,-.7c.3,-.4,.5,-1,.5,-1.8c0,-.8,-.2,-1.4,-.5,-1.8c-.4,-.5,-.8,-.7,-1.4,-.7Z" class="g7_254"/>
<path d="M455.4,271.2h1.1v1.3h-1.1Zm0,2.5h1.1v6.4h-1.1Z" class="g7_254"/>
<path d="M464.1,276.2v3.9H463v-3.8c0,-.7,-.1,-1.1,-.4,-1.4c-.2,-.3,-.6,-.5,-1,-.5c-.6,0,-1,.2,-1.4,.6c-.3,.3,-.5,.8,-.5,1.5v3.6h-1v-6.4h1v1c.3,-.4,.6,-.7,.9,-.9c.4,-.2,.8,-.3,1.2,-.3c.7,0,1.3,.2,1.7,.7c.4,.5,.6,1.1,.6,2Z" class="g7_254"/>
<path d="M467.2,271.8v1.9h2.2v.8h-2.2V278c0,.5,.1,.9,.2,1c.2,.2,.5,.2,.9,.2h1.1v.9h-1.1c-.8,0,-1.4,-.1,-1.7,-.4c-.3,-.4,-.4,-.9,-.4,-1.7v-3.5h-.8v-.8h.8v-1.9h1Z" class="g7_254"/>
<path d="M474.9,273.9v1c-.3,-.2,-.6,-.3,-.9,-.4c-.4,-.1,-.7,-.1,-1,-.1c-.6,0,-1,.1,-1.2,.2c-.3,.2,-.4,.4,-.4,.8c0,.2,.1,.4,.3,.5c.2,.2,.5,.3,1.1,.4l.4,.1c.7,.2,1.2,.4,1.6,.7c.3,.3,.4,.7,.4,1.2c0,.6,-.2,1.1,-.7,1.5c-.4,.3,-1.1,.5,-1.9,.5c-.4,0,-.7,-.1,-1.1,-.1c-.4,-.1,-.8,-.2,-1.2,-.3v-1.1c.4,.2,.8,.3,1.2,.4c.4,.1,.7,.2,1.1,.2c.5,0,.9,-.1,1.1,-.3c.3,-.1,.5,-.4,.5,-.7c0,-.3,-.1,-.5,-.3,-.6c-.2,-.2,-.7,-.3,-1.3,-.5l-.4,-.1c-.6,-.1,-1.1,-.3,-1.4,-.6c-.3,-.3,-.4,-.7,-.4,-1.2c0,-.6,.2,-1.1,.6,-1.4c.4,-.3,1,-.5,1.8,-.5c.4,0,.8,0,1.1,.1c.4,.1,.7,.1,1,.3Z" class="g7_254"/>
<path d="M271.5,893.5l.8,-3.3c.1,-.6,.4,-1,1,-1c1.5,0,2.1,.5,2.1,1.9c0,.3,-.1,.6,-.2,.9c-.4,.8,-1.5,1.5,-2.7,1.5h-1Zm-4.2,5.5l-.1,.2h4.9c.7,0,1.2,-.1,1.7,-.2c.6,-.2,1,-.4,1.4,-.6c.4,-.3,.7,-.6,.9,-1c.2,-.3,.3,-.7,.3,-1.2c0,-.6,-.2,-1.2,-.6,-1.6c-.4,-.4,-1,-.7,-1.8,-.9c.3,-.1,.6,-.2,.9,-.3c.4,-.1,.7,-.2,1,-.4c.3,-.2,.5,-.4,.7,-.7c.1,-.3,.2,-.7,.2,-1.1c0,-.5,-.1,-.9,-.3,-1.2c-.2,-.3,-.5,-.5,-.8,-.7c-.3,-.2,-.7,-.3,-1.1,-.4c-.4,0,-.8,-.1,-1.2,-.1h-3.6v.3c.4,0,.7,.2,.9,.3c.2,.2,.2,.5,.2,.8c0,.2,0,.5,-.1,.9l-1.6,6.1c-.1,.3,-.3,.6,-.3,.8c-.2,.4,-.5,.6,-.9,.8c-.2,.1,-.4,.2,-.7,.2Zm3.4,-2.6l.7,-2.5h.8c1.5,0,2.6,.6,2.6,2.1c0,.3,0,.7,-.2,1c-.5,1.1,-1.3,1.9,-2.9,1.9c-.8,0,-1.3,-.3,-1.3,-1c0,-.5,.3,-1.1,.3,-1.5Z" class="ga_254"/>
<path d="M280.2,901.4c-.7,0,-1.3,-.6,-1.3,-1.4c0,-.5,.4,-.9,.9,-.9c-.1,-.3,-.4,-.4,-.8,-.4c-.1,0,-.3,0,-.4,.1c-.4,.1,-.7,.6,-.7,1.1c0,.2,.1,.5,.2,.7c.3,.6,1.1,1,2.1,1c.8,0,1.5,-.2,1.9,-.6c.4,-.3,.7,-.8,.7,-1.5c0,-.2,0,-.5,-.1,-.7c-.3,-.6,-.8,-1.1,-1.6,-1.3c.5,-.2,.8,-.4,1.1,-.7c.2,-.3,.4,-.7,.4,-1.2c0,-.2,0,-.5,-.2,-.7c-.3,-.7,-1.1,-1,-2.1,-1c-.6,0,-1.2,.1,-1.5,.4c-.4,.2,-.6,.5,-.6,1c0,.3,.1,.6,.3,.7c.1,.2,.4,.3,.7,.3c.1,0,.3,0,.4,-.1c.2,0,.2,-.1,.3,-.3c-.5,0,-.7,-.3,-.7,-.7c0,-.6,.4,-1.1,1.1,-1.1c.7,0,1.1,.7,1.1,1.6c0,.9,-.2,1.8,-1,1.8c-.2,-.1,-.4,-.2,-.6,-.2c-.2,0,-.6,.1,-.6,.3c0,.2,.4,.3,.6,.3c.2,0,.5,-.1,.7,-.2c.8,0,1.1,.8,1.1,1.7c0,1.1,-.4,2,-1.4,2Z" class="ga_254"/>
<path d="M289.4,888.5c-2.2,1.4,-3.7,3.8,-3.7,6.9c0,2.7,1.6,5.5,3.6,6.8l.2,-.3c-2,-1.5,-2.5,-3.3,-2.5,-6.6c0,-3.3,.6,-5,2.5,-6.5l-.1,-.3Z" class="ga_254"/>
<path d="M291.8,899.3c1.2,0,2.1,-1.3,2.5,-2.1L294,897c-.3,.5,-.9,1.7,-1.6,1.7c-.3,0,-.3,-.5,-.3,-.6c0,-.2,.1,-.6,.2,-1l1,-3.9h1.3l.1,-.4h-1.3l.5,-1.6h-1.1l-.4,1.6h-1.1v.4h1l-1,3.5c-.1,.5,-.2,.9,-.2,1.2c-.1,.2,-.1,.4,-.1,.6c0,.6,.2,.8,.8,.8Z" class="ga_254"/>
<path d="M296.1,888.5l-.1,.3c1.9,1.5,2.5,3.2,2.5,6.5c0,3.3,-.5,5.1,-2.5,6.6l.2,.3c2,-1.3,3.6,-4.1,3.6,-6.8c0,-3.1,-1.5,-5.5,-3.7,-6.9Z" class="ga_254"/>
<path d="M306,897.3h7.6v-.8H306Zm0,-3h7.6v-.9H306Z" class="ga_254"/>
<path d="M325.3,878.4c-2.1,1.4,-3.7,3.8,-3.7,6.9c0,2.7,1.6,5.5,3.7,6.8l.1,-.3c-1.9,-1.5,-2.5,-3.3,-2.5,-6.6c0,-3.3,.6,-5,2.5,-6.5l-.1,-.3Z" class="ga_254"/>
<path d="M328.5,879.4v.2c.4,0,1,.1,1.3,.2c.4,.2,.4,.4,.4,1v6.5c0,.3,0,.6,0,.8c-.1,.6,-.9,.7,-1.7,.8v.2h4.7v-.2c-.5,-.1,-1.2,-.1,-1.4,-.4c-.3,-.3,-.3,-.7,-.3,-1.3v-8.6c-.8,.4,-2.1,.7,-3,.8Z" class="ga_254"/>
<path d="M339.1,885.7h7.6v-.9h-7.6Z" class="ga_254"/>
<path d="M352.2,889.2c1.3,0,2.1,-1.3,2.5,-2.1l-.3,-.2c-.2,.5,-.8,1.7,-1.6,1.7c-.2,0,-.3,-.5,-.3,-.6c0,-.2,.1,-.6,.2,-1l1.1,-3.9h1.3v-.4h-1.3l.5,-1.6h-1l-.5,1.6h-1l-.1,.4h1l-.9,3.6c-.2,.4,-.2,.8,-.3,1.1c-.1,.2,-.1,.4,-.1,.6c0,.6,.2,.8,.8,.8Z" class="ga_254"/>
<path d="M356.5,878.4l-.1,.3c1.9,1.5,2.5,3.2,2.5,6.5c0,3.3,-.5,5.1,-2.5,6.6l.2,.3c2,-1.3,3.6,-4.1,3.6,-6.8c0,-3.1,-1.5,-5.5,-3.7,-6.9Z" class="ga_254"/>
<path d="M364.5,883.6c-.7,0,-1.2,-.7,-1.2,-1.4c0,-.6,.3,-1,.8,-1c-.1,-.3,-.4,-.4,-.8,-.4c-.1,0,-.3,0,-.4,.1c-.4,.1,-.7,.6,-.7,1.1c0,.3,.1,.5,.2,.7c.4,.7,1.1,1.1,2.2,1.1c.8,0,1.4,-.3,1.8,-.7c.4,-.3,.8,-.8,.8,-1.5c0,-.2,-.1,-.4,-.2,-.7c-.2,-.6,-.8,-1.1,-1.5,-1.3c.4,-.1,.8,-.4,1,-.7c.2,-.3,.4,-.7,.4,-1.1c0,-.3,0,-.5,-.1,-.7c-.4,-.7,-1.2,-1.1,-2.2,-1.1c-.6,0,-1.2,.2,-1.5,.4c-.3,.2,-.6,.5,-.6,1c0,.3,.1,.6,.3,.7c.1,.2,.4,.3,.7,.3c.2,0,.3,0,.5,-.1c.1,0,.2,-.1,.2,-.2c-.4,0,-.7,-.4,-.7,-.8c0,-.6,.5,-1.1,1.1,-1.1c.8,0,1.2,.7,1.2,1.6c0,.9,-.3,1.8,-1.1,1.8c-.2,-.1,-.4,-.2,-.6,-.2c-.2,0,-.5,.1,-.5,.3c0,.2,.3,.3,.5,.3c.3,0,.5,-.1,.7,-.2c.9,0,1.1,.8,1.1,1.8c0,1,-.4,2,-1.4,2Z" class="ga_254"/>
<path d="M367.5,891.2c0,.6,.5,1,1.1,1c.4,0,.8,-.2,1.3,-.6c.8,-.7,2.1,-2.2,2.8,-3.4c.4,-.6,.7,-1.3,1,-1.8c.4,-.8,1.2,-2.1,1.2,-2.9c0,-.3,-.1,-.5,-.2,-.7c-.1,-.1,-.3,-.2,-.4,-.2c-.2,0,-.3,.1,-.5,.2c-.1,.1,-.2,.3,-.2,.6c0,.5,.2,1,.2,1.4c0,.6,-.2,1.1,-.4,1.6c-.3,.4,-.5,.8,-.8,1.4h-.1l-.4,-2c-.1,-.5,-.3,-1.6,-.4,-2c-.2,-.7,-.3,-1.2,-1.3,-1.2c-1.2,0,-1.4,1.8,-1.6,2.5l.3,.2c.1,-.6,.6,-2.4,1,-2.4c.4,0,.5,1.1,.6,1.3c.1,.3,.1,.7,.3,1.4l.5,3.5c-.3,.8,-1.1,1.6,-1.7,2.1c-.3,.2,-.6,.3,-.8,.3c-.1,0,-.1,-.1,-.2,-.2c-.2,-.2,-.2,-.7,-.7,-.7c-.4,0,-.6,.3,-.6,.6Z" class="ga_254"/>
<path d="M376.5,884.3v.2c.3,0,.8,.1,.9,.1c.4,.2,.3,.3,.4,.8v4.7c0,.3,-.1,.5,-.1,.6c-.1,.5,-.6,.5,-1.2,.6v.1h3.4v-.1c-.3,0,-.9,-.1,-1,-.3c-.2,-.2,-.2,-.5,-.2,-.9v-6.3c-.6,.3,-1.5,.5,-2.2,.5Z" class="ga_254"/>
<path d="M388.9,884.8h-3.3v1h3.3v3.3h1v-3.3h3.2v-1h-3.2v-3.2h-1v3.2Z" class="ga_254"/>
<path d="M402,878.4c-2.1,1.4,-3.6,3.8,-3.6,6.9c0,2.7,1.6,5.5,3.6,6.8l.2,-.3c-2,-1.5,-2.5,-3.3,-2.5,-6.6c0,-3.3,.6,-5,2.5,-6.5l-.2,-.3Z" class="ga_254"/>
<path d="M405.2,879.4v.2c.4,0,1.1,.1,1.3,.2c.5,.2,.4,.4,.5,1v6.5c0,.3,-.1,.6,-.1,.8c-.1,.6,-.9,.7,-1.6,.8v.2H410v-.2c-.5,-.1,-1.3,-.1,-1.5,-.4c-.2,-.3,-.2,-.7,-.2,-1.3v-8.6c-.8,.4,-2.1,.7,-3.1,.8Z" class="ga_254"/>
<path d="M415.8,885.7h7.6v-.9h-7.6Z" class="ga_254"/>
<path d="M428.9,889.2c1.3,0,2.1,-1.3,2.6,-2.1l-.3,-.2c-.3,.5,-.9,1.7,-1.7,1.7c-.2,0,-.3,-.5,-.3,-.6c0,-.2,.1,-.6,.3,-1l1,-3.9h1.3l.1,-.4h-1.3l.4,-1.6h-1l-.4,1.6h-1.1l-.1,.4h1.1l-1,3.6c-.1,.4,-.2,.8,-.3,1.1c0,.2,-.1,.4,-.1,.6c0,.6,.3,.8,.8,.8Z" class="ga_254"/>
<path d="M433.3,878.4l-.1,.3c1.9,1.5,2.5,3.2,2.5,6.5c0,3.3,-.6,5.1,-2.5,6.6l.1,.3c2.1,-1.3,3.7,-4.1,3.7,-6.8c0,-3.1,-1.6,-5.5,-3.7,-6.9Z" class="ga_254"/>
<path d="M441.1,879c-.7,0,-1.1,-.5,-1.1,-1.2c0,-.7,.4,-1.6,1.3,-1.6c1.2,0,1.3,1,1.3,1.9c0,.9,-.2,1.5,-.7,2.1c-.3,.4,-.6,.9,-1.1,1.4c-.5,.5,-1.1,1.1,-1.9,1.7v.4h4.6l.4,-2.1h-.3c-.1,.2,-.2,.4,-.3,.5c-.1,.4,-.4,.6,-1,.6h-2.1v-.1c.5,-.3,1,-.7,1.4,-1c.7,-.7,1.5,-1.4,1.9,-2.3c.2,-.4,.3,-.8,.3,-1.2c0,-.3,0,-.6,-.2,-.8c-.3,-.8,-1,-1.3,-2.1,-1.3c-.7,0,-1.4,.3,-1.8,.6c-.4,.3,-.7,.8,-.7,1.4c0,.5,.2,.9,.4,1.1c.2,.2,.5,.4,.9,.4c.4,0,.7,-.2,.8,-.5Z" class="ga_254"/>
<path d="M446.5,889.2c1.3,0,2.1,-1.3,2.5,-2.1l-.2,-.2c-.3,.5,-.9,1.7,-1.7,1.7c-.2,0,-.3,-.5,-.3,-.6c0,-.2,.1,-.6,.2,-1l1.1,-3.9h1.3l.1,-.4h-1.3l.4,-1.6h-1l-.5,1.6h-1l-.1,.4h1.1l-1,3.6c-.1,.4,-.2,.8,-.3,1.1c0,.2,-.1,.4,-.1,.6c0,.6,.3,.8,.8,.8Z" class="ga_254"/>
<path d="M449.3,891.2c0,.6,.4,1,1.1,1c.4,0,.8,-.2,1.3,-.6c.8,-.7,2,-2.2,2.8,-3.4c.3,-.6,.7,-1.3,1,-1.8c.4,-.8,1.1,-2.1,1.1,-2.9c0,-.3,0,-.5,-.1,-.7c-.1,-.1,-.3,-.2,-.5,-.2c-.1,0,-.3,.1,-.4,.2c-.2,.1,-.2,.3,-.2,.6c0,.5,.2,1,.2,1.4c0,.6,-.2,1.1,-.5,1.6c-.2,.4,-.4,.8,-.8,1.4h-.1l-.3,-2c-.1,-.5,-.3,-1.6,-.4,-2c-.2,-.7,-.3,-1.2,-1.3,-1.2c-1.2,0,-1.4,1.8,-1.6,2.5l.3,.2c.1,-.6,.5,-2.4,1,-2.4c.3,0,.5,1.1,.6,1.3c0,.3,.1,.7,.2,1.4l.6,3.5c-.3,.8,-1.2,1.6,-1.8,2.1c-.2,.2,-.5,.3,-.7,.3c-.1,0,-.2,-.1,-.2,-.2c-.2,-.2,-.2,-.7,-.7,-.7c-.4,0,-.6,.3,-.6,.6Z" class="ga_254"/>
<path d="M459.4,886.8c-.6,0,-1.1,-.5,-1.1,-1.2c0,-.8,.5,-1.6,1.4,-1.6c1.2,0,1.3,1,1.3,1.9c0,.9,-.3,1.5,-.7,2.1c-.3,.4,-.7,.9,-1.1,1.4c-.5,.5,-1.1,1,-1.9,1.7v.3h4.6l.3,-2h-.3c0,.2,-.1,.4,-.2,.5c-.2,.4,-.5,.6,-1,.6h-2.1v-.1c.5,-.3,.9,-.7,1.4,-1c.7,-.7,1.5,-1.4,1.9,-2.3c.2,-.4,.3,-.8,.3,-1.2c0,-.3,-.1,-.6,-.2,-.8c-.4,-.8,-1.1,-1.3,-2.2,-1.3c-.7,0,-1.3,.2,-1.7,.6c-.4,.3,-.7,.8,-.7,1.4c0,.5,.1,.8,.4,1.1c.2,.2,.5,.4,.9,.4c.4,0,.7,-.2,.7,-.5Z" class="ga_254"/>
<path d="M470.7,884.8h-3.3v1h3.3v3.3h.9v-3.3h3.3v-1h-3.3v-3.2h-.9v3.2Z" class="ga_254"/>
<path d="M483.8,878.4c-2.1,1.4,-3.7,3.8,-3.7,6.9c0,2.7,1.6,5.5,3.7,6.8l.1,-.3c-1.9,-1.5,-2.5,-3.3,-2.5,-6.6c0,-3.3,.6,-5,2.5,-6.5l-.1,-.3Z" class="ga_254"/>
<path d="M487,879.4v.2c.4,0,1.1,.1,1.3,.2c.4,.2,.4,.4,.4,1v6.5c0,.3,0,.6,0,.8c-.1,.6,-.9,.7,-1.7,.8v.2h4.7v-.2c-.5,-.1,-1.2,-.1,-1.4,-.4c-.3,-.3,-.3,-.7,-.3,-1.3v-8.6c-.8,.4,-2.1,.7,-3,.8Z" class="ga_254"/>
<path d="M497.6,885.7h7.6v-.9h-7.6Z" class="ga_254"/>
<path d="M510.7,889.2c1.3,0,2.1,-1.3,2.5,-2.1l-.2,-.2c-.3,.5,-.9,1.7,-1.7,1.7c-.2,0,-.3,-.5,-.3,-.6c0,-.2,.1,-.6,.2,-1l1.1,-3.9h1.3l.1,-.4h-1.4l.5,-1.6h-1l-.5,1.6h-1l-.1,.4h1l-.9,3.6c-.2,.4,-.2,.8,-.3,1.1c0,.2,-.1,.4,-.1,.6c0,.6,.2,.8,.8,.8Z" class="ga_254"/>
<path d="M515.1,878.4l-.2,.3c1.9,1.5,2.5,3.2,2.5,6.5c0,3.3,-.5,5.1,-2.5,6.6l.2,.3c2.1,-1.3,3.6,-4.1,3.6,-6.8c0,-3.1,-1.5,-5.5,-3.6,-6.9Z" class="ga_254"/>
<path d="M521.5,889.2c1.2,0,2,-1.3,2.5,-2.1l-.3,-.2c-.3,.5,-.9,1.7,-1.7,1.7c-.2,0,-.3,-.5,-.3,-.6c0,-.2,.1,-.6,.3,-1l1,-3.9h1.3l.1,-.4h-1.3l.4,-1.6h-1l-.4,1.6H521l-.1,.4H522l-1,3.6c-.1,.4,-.2,.8,-.2,1.1c-.1,.2,-.2,.4,-.2,.6c0,.6,.3,.8,.9,.8Z" class="ga_254"/>
<path d="M527.9,879c-.7,0,-1.1,-.5,-1.1,-1.2c0,-.7,.4,-1.6,1.3,-1.6c1.2,0,1.3,1,1.3,1.9c0,.9,-.2,1.5,-.7,2.1c-.3,.4,-.6,.9,-1.1,1.4c-.5,.5,-1.1,1.1,-1.9,1.7v.4h4.6l.4,-2.1h-.3c-.1,.2,-.2,.4,-.3,.5c-.1,.4,-.4,.6,-1,.6H527v-.1c.5,-.3,1,-.7,1.4,-1c.7,-.7,1.5,-1.4,1.9,-2.3c.2,-.4,.3,-.8,.3,-1.2c0,-.3,-.1,-.6,-.2,-.8c-.3,-.8,-1,-1.3,-2.1,-1.3c-.7,0,-1.4,.3,-1.8,.6c-.4,.3,-.7,.8,-.7,1.4c0,.5,.2,.9,.4,1.1c.2,.2,.5,.4,.9,.4c.4,0,.7,-.2,.8,-.5Z" class="ga_254"/>
<path d="M531,891.2c0,.6,.5,1,1.1,1c.5,0,.8,-.2,1.3,-.6c.8,-.7,2.1,-2.2,2.8,-3.4c.4,-.6,.8,-1.3,1.1,-1.8c.4,-.8,1.1,-2.1,1.1,-2.9c0,-.3,-.1,-.5,-.2,-.7c0,-.1,-.2,-.2,-.4,-.2c-.2,0,-.3,.1,-.5,.2c-.1,.1,-.2,.3,-.2,.6c0,.5,.3,1,.3,1.4c0,.6,-.3,1.1,-.5,1.6c-.2,.4,-.5,.8,-.8,1.4H536l-.3,-2c-.1,-.5,-.3,-1.6,-.4,-2c-.2,-.7,-.4,-1.2,-1.4,-1.2c-1.1,0,-1.3,1.8,-1.6,2.5l.3,.2c.2,-.6,.6,-2.4,1.1,-2.4c.3,0,.5,1.1,.5,1.3c.1,.3,.2,.7,.3,1.4l.6,3.5c-.4,.8,-1.2,1.6,-1.8,2.1c-.2,.2,-.6,.3,-.7,.3c-.1,0,-.2,-.1,-.3,-.2c-.2,-.2,-.2,-.7,-.6,-.7c-.4,0,-.7,.3,-.7,.6Z" class="ga_254"/>
<path d="M541.4,891.3c-.7,0,-1.3,-.6,-1.3,-1.4c0,-.5,.4,-.9,.9,-.9c-.1,-.3,-.4,-.4,-.8,-.4c-.1,0,-.3,0,-.4,.1c-.4,.1,-.7,.6,-.7,1.1c0,.2,0,.5,.2,.7c.3,.6,1.1,1,2.1,1c.8,0,1.4,-.2,1.9,-.6c.4,-.3,.7,-.8,.7,-1.5c0,-.2,0,-.5,-.1,-.7c-.3,-.6,-.8,-1.1,-1.6,-1.3c.4,-.2,.8,-.4,1.1,-.7c.2,-.3,.4,-.7,.4,-1.2c0,-.2,-.1,-.5,-.2,-.7c-.3,-.7,-1.1,-1,-2.1,-1c-.6,0,-1.2,.1,-1.6,.4c-.3,.2,-.5,.5,-.5,1c0,.3,.1,.6,.3,.7c.1,.2,.3,.3,.7,.3c.1,0,.3,0,.4,-.1c.1,0,.2,-.1,.2,-.3c-.4,0,-.7,-.3,-.7,-.7c0,-.6,.5,-1.1,1.2,-1.1c.7,0,1.1,.7,1.1,1.6c0,.9,-.2,1.8,-1,1.8c-.2,-.1,-.4,-.2,-.6,-.2c-.3,0,-.6,.1,-.6,.3c0,.2,.4,.3,.6,.3c.2,0,.5,-.1,.6,-.2c.9,0,1.2,.8,1.2,1.7c0,1.1,-.4,2,-1.4,2Z" class="ga_254"/>
<path d="M552.4,884.8h-3.2v1h3.2v3.3h1v-3.3h3.3v-1h-3.3v-3.2h-1v3.2Z" class="ga_254"/>
<path d="M561.7,889.2c1.3,0,2.1,-1.3,2.5,-2.1l-.3,-.2c-.2,.5,-.8,1.7,-1.6,1.7c-.2,0,-.3,-.5,-.3,-.6c0,-.2,.1,-.6,.2,-1l1.1,-3.9h1.3v-.4h-1.3l.5,-1.6h-1l-.5,1.6h-1l-.1,.4h1l-.9,3.6c-.2,.4,-.2,.8,-.3,1.1c-.1,.2,-.1,.4,-.1,.6c0,.6,.2,.8,.8,.8Z" class="ga_254"/>
<path d="M568.3,883.6c-.7,0,-1.3,-.7,-1.3,-1.4c0,-.6,.4,-1,.9,-1c-.1,-.3,-.4,-.4,-.8,-.4c-.1,0,-.3,0,-.4,.1c-.4,.1,-.7,.6,-.7,1.1c0,.3,.1,.5,.2,.7c.4,.7,1.1,1.1,2.1,1.1c.8,0,1.5,-.3,1.9,-.7c.4,-.3,.7,-.8,.7,-1.5c0,-.2,0,-.4,-.1,-.7c-.3,-.6,-.8,-1.1,-1.6,-1.3c.5,-.1,.8,-.4,1.1,-.7c.2,-.3,.4,-.7,.4,-1.1c0,-.3,0,-.5,-.2,-.7c-.3,-.7,-1.1,-1.1,-2.1,-1.1c-.6,0,-1.2,.2,-1.5,.4c-.3,.2,-.6,.5,-.6,1c0,.3,.1,.6,.3,.7c.1,.2,.4,.3,.7,.3c.1,0,.3,0,.4,-.1c.2,0,.2,-.1,.3,-.2c-.5,0,-.7,-.4,-.7,-.8c0,-.6,.4,-1.1,1.1,-1.1c.7,0,1.1,.7,1.1,1.6c0,.9,-.2,1.8,-1,1.8c-.2,-.1,-.4,-.2,-.6,-.2c-.2,0,-.6,.1,-.6,.3c0,.2,.4,.3,.6,.3c.2,0,.5,-.1,.7,-.2c.8,0,1.1,.8,1.1,1.8c0,1,-.4,2,-1.4,2Z" class="ga_254"/>
<path d="M571.3,891.2c0,.6,.5,1,1.1,1c.4,0,.8,-.2,1.3,-.6c.8,-.7,2,-2.2,2.8,-3.4c.4,-.6,.7,-1.3,1,-1.8c.4,-.8,1.1,-2.1,1.1,-2.9c0,-.3,0,-.5,-.1,-.7c-.1,-.1,-.3,-.2,-.5,-.2c-.1,0,-.3,.1,-.4,.2c-.2,.1,-.2,.3,-.2,.6c0,.5,.2,1,.2,1.4c0,.6,-.2,1.1,-.4,1.6c-.3,.4,-.5,.8,-.9,1.4h-.1l-.3,-2c-.1,-.5,-.3,-1.6,-.4,-2c-.2,-.7,-.3,-1.2,-1.3,-1.2c-1.2,0,-1.4,1.8,-1.6,2.5l.3,.2c.1,-.6,.6,-2.4,1,-2.4c.3,0,.5,1.1,.6,1.3c0,.3,.1,.7,.2,1.4l.6,3.5c-.3,.8,-1.2,1.6,-1.8,2.1c-.2,.2,-.5,.3,-.7,.3c-.1,0,-.2,-.1,-.2,-.2c-.2,-.2,-.2,-.7,-.7,-.7c-.4,0,-.6,.3,-.6,.6Z" class="ga_254"/>
<path d="M581.9,885.3v3.9h-2.5c.9,-1.2,1.7,-2.6,2.5,-3.9Zm-2.7,3.9v.4h2.7v.4c0,.9,-.1,1.3,-.5,1.3v.1h2.1v-.1c-.5,0,-.6,-.6,-.6,-1.3v-.4h1.3c0,0,0,-.4,0,-.4c0,0,-1.3,0,-1.3,0v-5.4h-.3l-3.4,5.4Z" class="ga_254"/>
<path d="M320.2,895.8H585.6v-.9H320.2Z" class="ga_254"/>
<path d="M352,899.5c-2.2,1.4,-3.7,3.8,-3.7,6.9c0,2.7,1.6,5.5,3.6,6.8l.2,-.2c-2,-1.6,-2.5,-3.4,-2.5,-6.7c0,-3.3,.6,-5,2.5,-6.5l-.1,-.3Z" class="ga_254"/>
<path d="M355.1,900.5v.2c.5,0,1.1,.1,1.3,.2c.5,.2,.5,.4,.5,1v6.5c0,.3,0,.6,-.1,.8c-.1,.7,-.9,.7,-1.6,.8v.2h4.7V910c-.5,0,-1.3,-.1,-1.5,-.3c-.2,-.3,-.2,-.8,-.2,-1.4v-8.6c-.8,.4,-2.1,.8,-3.1,.8Z" class="ga_254"/>
<path d="M365.7,906.8h7.7V906h-7.7Z" class="ga_254"/>
<path d="M378.9,910.3c1.2,0,2.1,-1.3,2.5,-2.1l-.3,-.1c-.3,.4,-.9,1.6,-1.6,1.6c-.3,0,-.3,-.4,-.3,-.6c0,-.2,0,-.5,.2,-1l1,-3.9h1.3l.1,-.4h-1.3l.5,-1.6h-1.1l-.4,1.6h-1.1v.4h1l-1,3.6c-.1,.4,-.2,.8,-.2,1.1c-.1,.3,-.1,.5,-.1,.6c0,.6,.2,.8,.8,.8Z" class="ga_254"/>
<path d="M383.2,899.5l-.1,.3c1.9,1.5,2.5,3.2,2.5,6.5c0,3.3,-.6,5.1,-2.5,6.7l.2,.2c2,-1.3,3.6,-4.1,3.6,-6.8c0,-3.1,-1.5,-5.5,-3.7,-6.9Z" class="ga_254"/>
<path d="M391.2,905.8c-.7,0,-1.3,-.7,-1.3,-1.4c0,-.5,.4,-1,.9,-1c-.1,-.2,-.4,-.4,-.8,-.4c-.1,0,-.3,0,-.4,.1c-.4,.2,-.7,.6,-.7,1.1c0,.3,0,.5,.2,.7c.3,.7,1.1,1.1,2.1,1.1c.8,0,1.4,-.3,1.9,-.6c.4,-.4,.7,-.9,.7,-1.5c0,-.3,0,-.5,-.1,-.7c-.3,-.7,-.8,-1.1,-1.6,-1.3v-.1c.5,-.1,.8,-.4,1.1,-.7c.2,-.2,.4,-.6,.4,-1.1c0,-.3,-.1,-.5,-.2,-.7c-.3,-.7,-1.1,-1.1,-2.1,-1.1c-.6,0,-1.2,.2,-1.6,.4c-.3,.2,-.5,.6,-.5,1c0,.3,.1,.6,.3,.8c.1,.1,.3,.3,.7,.3c.1,0,.3,-.1,.4,-.1c.2,-.1,.2,-.2,.2,-.3c-.4,0,-.7,-.3,-.7,-.7c0,-.6,.5,-1.2,1.2,-1.2c.7,0,1.1,.7,1.1,1.6c0,.9,-.2,1.8,-1,1.8c-.2,0,-.4,-.1,-.6,-.1c-.3,0,-.6,0,-.6,.2c0,.3,.4,.4,.6,.4c.2,0,.5,-.2,.6,-.3c.9,0,1.2,.8,1.2,1.8c0,1,-.4,2,-1.4,2Z" class="ga_254"/>
<path d="M402.2,905.9H399v1h3.2v3.3h1v-3.3h3.3v-1h-3.3v-3.2h-1v3.2Z" class="ga_254"/>
<path d="M415.4,899.5c-2.2,1.4,-3.7,3.8,-3.7,6.9c0,2.7,1.6,5.5,3.6,6.8l.2,-.2c-1.9,-1.6,-2.5,-3.4,-2.5,-6.7c0,-3.3,.6,-5,2.5,-6.5l-.1,-.3Z" class="ga_254"/>
<path d="M418.5,900.5v.2c.5,0,1.1,.1,1.3,.2c.5,.2,.5,.4,.5,1v6.5c0,.3,0,.6,-.1,.8c-.1,.7,-.9,.7,-1.6,.8v.2h4.7V910c-.5,0,-1.3,-.1,-1.5,-.3c-.2,-.3,-.2,-.8,-.2,-1.4v-8.6c-.8,.4,-2.1,.8,-3.1,.8Z" class="ga_254"/>
<path d="M429.1,906.8h7.7V906h-7.7Z" class="ga_254"/>
<path d="M442.3,910.3c1.2,0,2.1,-1.3,2.5,-2.1l-.3,-.1c-.3,.4,-.9,1.6,-1.6,1.6c-.3,0,-.3,-.4,-.3,-.6c0,-.2,.1,-.5,.2,-1l1,-3.9h1.3l.1,-.4h-1.3l.5,-1.6h-1.1l-.4,1.6h-1.1v.4h1l-1,3.6c-.1,.4,-.2,.8,-.2,1.1c-.1,.3,-.1,.5,-.1,.6c0,.6,.2,.8,.8,.8Z" class="ga_254"/>
<path d="M446.6,899.5l-.1,.3c1.9,1.5,2.5,3.2,2.5,6.5c0,3.3,-.5,5.1,-2.5,6.7l.2,.2c2,-1.3,3.6,-4.1,3.6,-6.8c0,-3.1,-1.5,-5.5,-3.7,-6.9Z" class="ga_254"/>
<path d="M454.4,901.2c-.7,0,-1.1,-.5,-1.1,-1.1c0,-.8,.4,-1.7,1.3,-1.7c1.2,0,1.4,1,1.4,1.9c0,1,-.3,1.5,-.7,2.2c-.3,.4,-.7,.8,-1.2,1.3c-.5,.5,-1.1,1.1,-1.8,1.8v.3h4.5l.4,-2.1h-.3c-.1,.2,-.2,.4,-.2,.6c-.2,.3,-.5,.5,-1,.5h-2.2c.5,-.4,1,-.7,1.4,-1.1c.8,-.6,1.6,-1.4,2,-2.2c.2,-.4,.3,-.8,.3,-1.2c0,-.4,-.1,-.6,-.2,-.9c-.4,-.7,-1.1,-1.3,-2.2,-1.3c-.7,0,-1.3,.3,-1.7,.6c-.4,.3,-.7,.8,-.7,1.5c0,.4,.1,.8,.3,1c.2,.3,.5,.4,.9,.4c.4,0,.7,-.2,.8,-.5Z" class="ga_254"/>
<path d="M459.9,910.3c1.2,0,2.1,-1.3,2.5,-2.1l-.3,-.1c-.3,.4,-.9,1.6,-1.6,1.6c-.3,0,-.4,-.4,-.4,-.6c.1,-.2,.1,-.5,.3,-1l1,-3.9h1.3l.1,-.4h-1.3l.4,-1.6h-1l-.4,1.6h-1.1v.4h1l-1,3.6c-.1,.4,-.2,.8,-.2,1.1c-.1,.3,-.1,.5,-.1,.6c0,.6,.2,.8,.8,.8Z" class="ga_254"/>
<path d="M470.7,905.9h-3.3v1h3.3v3.3h.9v-3.3h3.3v-1h-3.3v-3.2h-.9v3.2Z" class="ga_254"/>
<path d="M483.8,899.5c-2.1,1.4,-3.7,3.8,-3.7,6.9c0,2.7,1.6,5.5,3.7,6.8l.1,-.2c-1.9,-1.6,-2.5,-3.4,-2.5,-6.7c0,-3.3,.6,-5,2.5,-6.5l-.1,-.3Z" class="ga_254"/>
<path d="M487,900.5v.2c.4,0,1.1,.1,1.3,.2c.4,.2,.4,.4,.4,1v6.5c0,.3,0,.6,0,.8c-.1,.7,-.9,.7,-1.7,.8v.2h4.7V910c-.5,0,-1.2,-.1,-1.4,-.3c-.3,-.3,-.3,-.8,-.3,-1.4v-8.6c-.8,.4,-2.1,.8,-3,.8Z" class="ga_254"/>
<path d="M497.6,906.8h7.6V906h-7.6Z" class="ga_254"/>
<path d="M510.7,910.3c1.3,0,2.1,-1.3,2.5,-2.1l-.2,-.1c-.3,.4,-.9,1.6,-1.7,1.6c-.2,0,-.3,-.4,-.3,-.6c0,-.2,.1,-.5,.2,-1l1.1,-3.9h1.3l.1,-.4h-1.4l.5,-1.6h-1l-.5,1.6h-1l-.1,.4h1l-.9,3.6c-.2,.4,-.2,.8,-.3,1.1c0,.3,-.1,.5,-.1,.6c0,.6,.2,.8,.8,.8Z" class="ga_254"/>
<path d="M515.1,899.5l-.2,.3c1.9,1.5,2.5,3.2,2.5,6.5c0,3.3,-.5,5.1,-2.5,6.7l.2,.2c2.1,-1.3,3.6,-4.1,3.6,-6.8c0,-3.1,-1.5,-5.5,-3.6,-6.9Z" class="ga_254"/>
<path d="M521.5,910.3c1.2,0,2,-1.3,2.5,-2.1l-.3,-.1c-.3,.4,-.9,1.6,-1.7,1.6c-.2,0,-.3,-.4,-.3,-.6c0,-.2,.1,-.5,.3,-1l1,-3.9h1.3l.1,-.4h-1.3l.4,-1.6h-1l-.4,1.6H521l-.1,.4H522l-1,3.6c-.1,.4,-.2,.8,-.2,1.1c-.1,.3,-.2,.5,-.2,.6c0,.6,.3,.8,.9,.8Z" class="ga_254"/>
<path d="M527.9,901.2c-.7,0,-1.1,-.5,-1.1,-1.1c0,-.8,.4,-1.7,1.3,-1.7c1.2,0,1.3,1,1.3,1.9c0,1,-.2,1.5,-.7,2.2c-.3,.4,-.6,.8,-1.1,1.3c-.5,.5,-1.1,1.1,-1.9,1.8v.3h4.6l.4,-2.1h-.3c-.1,.2,-.2,.4,-.3,.6c-.1,.3,-.4,.5,-1,.5H527c.5,-.4,1,-.7,1.4,-1.1c.7,-.6,1.5,-1.4,1.9,-2.2c.2,-.4,.3,-.8,.3,-1.2c0,-.4,-.1,-.6,-.2,-.9c-.3,-.7,-1,-1.3,-2.1,-1.3c-.7,0,-1.4,.3,-1.8,.6c-.4,.3,-.7,.8,-.7,1.5c0,.4,.2,.8,.4,1c.2,.3,.5,.4,.9,.4c.4,0,.7,-.2,.8,-.5Z" class="ga_254"/>
<path d="M539.1,905.9h-3.3v1h3.3v3.3h1v-3.3h3.2v-1h-3.2v-3.2h-1v3.2Z" class="ga_254"/>
<path d="M548.4,910.3c1.2,0,2.1,-1.3,2.5,-2.1l-.3,-.1c-.3,.4,-.9,1.6,-1.6,1.6c-.3,0,-.4,-.4,-.4,-.6c.1,-.2,.1,-.5,.3,-1l1,-3.9h1.3l.1,-.4H550l.4,-1.6h-1l-.4,1.6h-1.1v.4h1l-1,3.6c-.1,.4,-.2,.8,-.2,1.1c-.1,.3,-.1,.5,-.1,.6c0,.6,.2,.8,.8,.8Z" class="ga_254"/>
<path d="M555,905.8c-.7,0,-1.3,-.7,-1.3,-1.4c0,-.5,.3,-1,.8,-1c0,-.2,-.4,-.4,-.7,-.4c-.2,0,-.3,0,-.5,.1c-.4,.2,-.6,.6,-.6,1.1c0,.3,0,.5,.1,.7c.4,.7,1.2,1.1,2.2,1.1c.8,0,1.4,-.3,1.9,-.6c.4,-.4,.7,-.9,.7,-1.5c0,-.3,0,-.5,-.1,-.7c-.3,-.7,-.9,-1.1,-1.6,-1.3v-.1c.4,-.1,.8,-.4,1,-.7c.3,-.2,.5,-.6,.5,-1.1c0,-.3,-.1,-.5,-.2,-.7c-.3,-.7,-1.1,-1.1,-2.2,-1.1c-.6,0,-1.1,.2,-1.5,.4c-.3,.2,-.6,.6,-.6,1c0,.3,.2,.6,.3,.8c.2,.1,.4,.3,.7,.3c.2,0,.4,-.1,.5,-.1c.1,-.1,.2,-.2,.2,-.3c-.4,0,-.7,-.3,-.7,-.7c0,-.6,.5,-1.2,1.1,-1.2c.8,0,1.2,.7,1.2,1.6c0,.9,-.2,1.8,-1.1,1.8c-.1,0,-.4,-.1,-.6,-.1c-.2,0,-.5,0,-.5,.2c0,.3,.3,.4,.6,.4c.2,0,.5,-.2,.6,-.3c.9,0,1.2,.8,1.2,1.8c0,1,-.4,2,-1.4,2Z" class="ga_254"/>
</svg>