<?xml version="1.0" encoding="UTF-8" standalone="no"?>
<!DOCTYPE svg PUBLIC "-//W3C//DTD SVG 1.1//EN"
"http://www.w3.org/Graphics/SVG/1.1/DTD/svg11.dtd">
<svg viewBox="0 0 811 1017" version="1.1" xmlns="http://www.w3.org/2000/svg" xmlns:xlink="http://www.w3.org/1999/xlink">
<defs>
<style type="text/css"><![CDATA[
.g0_218{
fill: #F7F5E8;
}
.g1_218{
fill: #FFF;
}
.g2_218{
fill: #1A78B6;
}
.g3_218{
fill: none;
stroke: #1A78B6;
stroke-width: 0.982;
stroke-linejoin: round;
}
.g4_218{
fill: none;
stroke: #B0B2B1;
stroke-width: 0.786;
stroke-linecap: square;
stroke-linejoin: round;
}
.g5_218{
fill: none;
stroke: #040504;
stroke-width: 0.786;
stroke-linejoin: round;
}
.g6_218{
fill: #040504;
}
.g7_218{
fill: none;
stroke: #1A78B6;
stroke-width: 1.474;
stroke-linecap: square;
stroke-linejoin: round;
}
.g8_218{
fill: none;
stroke: #040504;
stroke-width: 0.786;
stroke-linecap: square;
}
]]></style>
</defs>
<path d="M142.4,914H710.7V545.8H142.4Z" class="g0_218"/>
<path d="M198.9,359.7H549.8V98.2H198.9Z" class="g1_218"/>
<path d="M216.5,350.8c.8,0,1.5,-.3,2.1,-.9c.5,-.5,.8,-1.3,.8,-2.1c0,-.8,-.3,-1.5,-.8,-2.1c-.6,-.5,-1.3,-.8,-2.1,-.8c-.8,0,-1.5,.3,-2.1,.8c-.6,.6,-.9,1.3,-.9,2.1c0,.8,.3,1.6,.9,2.1c.6,.6,1.3,.9,2.1,.9Z" class="g2_218"/>
<path d="M216.5,350.8c.8,0,1.5,-.3,2.1,-.9c.5,-.5,.8,-1.3,.8,-2.1c0,-.8,-.3,-1.5,-.8,-2.1c-.6,-.5,-1.3,-.8,-2.1,-.8c-.8,0,-1.5,.3,-2.1,.8c-.6,.6,-.9,1.3,-.9,2.1c0,.8,.3,1.6,.9,2.1c.6,.6,1.3,.9,2.1,.9Z" class="g3_218"/>
<path d="M219.7,350.8c.8,0,1.5,-.3,2.1,-.9c.5,-.5,.8,-1.3,.8,-2.1c0,-.8,-.3,-1.5,-.8,-2.1c-.6,-.5,-1.3,-.8,-2.1,-.8c-.8,0,-1.6,.3,-2.1,.8c-.6,.6,-.9,1.3,-.9,2.1c0,.8,.3,1.6,.9,2.1c.5,.6,1.3,.9,2.1,.9Z" class="g2_218"/>
<path d="M219.7,350.8c.8,0,1.5,-.3,2.1,-.9c.5,-.5,.8,-1.3,.8,-2.1c0,-.8,-.3,-1.5,-.8,-2.1c-.6,-.5,-1.3,-.8,-2.1,-.8c-.8,0,-1.6,.3,-2.1,.8c-.6,.6,-.9,1.3,-.9,2.1c0,.8,.3,1.6,.9,2.1c.5,.6,1.3,.9,2.1,.9Z" class="g3_218"/>
<path d="M222.9,350.8c.7,0,1.5,-.3,2,-.9c.6,-.5,.9,-1.3,.9,-2.1c0,-.8,-.3,-1.5,-.9,-2.1c-.5,-.5,-1.3,-.8,-2,-.8c-.8,0,-1.6,.3,-2.1,.8c-.6,.6,-.9,1.3,-.9,2.1c0,.8,.3,1.6,.9,2.1c.5,.6,1.3,.9,2.1,.9Z" class="g2_218"/>
<path d="M222.9,350.8c.7,0,1.5,-.3,2,-.9c.6,-.5,.9,-1.3,.9,-2.1c0,-.8,-.3,-1.5,-.9,-2.1c-.5,-.5,-1.3,-.8,-2,-.8c-.8,0,-1.6,.3,-2.1,.8c-.6,.6,-.9,1.3,-.9,2.1c0,.8,.3,1.6,.9,2.1c.5,.6,1.3,.9,2.1,.9Z" class="g3_218"/>
<path d="M226.1,350.8c.7,0,1.5,-.3,2,-.9c.6,-.5,.9,-1.3,.9,-2.1c0,-.8,-.3,-1.5,-.9,-2.1c-.5,-.5,-1.3,-.8,-2,-.8c-.8,0,-1.6,.3,-2.1,.8c-.6,.6,-.9,1.3,-.9,2.1c0,.8,.3,1.6,.9,2.1c.5,.6,1.3,.9,2.1,.9Z" class="g2_218"/>
<path d="M226.1,350.8c.7,0,1.5,-.3,2,-.9c.6,-.5,.9,-1.3,.9,-2.1c0,-.8,-.3,-1.5,-.9,-2.1c-.5,-.5,-1.3,-.8,-2,-.8c-.8,0,-1.6,.3,-2.1,.8c-.6,.6,-.9,1.3,-.9,2.1c0,.8,.3,1.6,.9,2.1c.5,.6,1.3,.9,2.1,.9Z" class="g3_218"/>
<path d="M229.2,350.8c.8,0,1.6,-.3,2.1,-.9c.6,-.5,.9,-1.3,.9,-2.1c0,-.8,-.3,-1.5,-.9,-2.1c-.5,-.5,-1.3,-.8,-2.1,-.8c-.7,0,-1.5,.3,-2,.8c-.6,.6,-.9,1.3,-.9,2.1c0,.8,.3,1.6,.9,2.1c.5,.6,1.3,.9,2,.9Z" class="g2_218"/>
<path d="M229.2,350.8c.8,0,1.6,-.3,2.1,-.9c.6,-.5,.9,-1.3,.9,-2.1c0,-.8,-.3,-1.5,-.9,-2.1c-.5,-.5,-1.3,-.8,-2.1,-.8c-.7,0,-1.5,.3,-2,.8c-.6,.6,-.9,1.3,-.9,2.1c0,.8,.3,1.6,.9,2.1c.5,.6,1.3,.9,2,.9Z" class="g3_218"/>
<path d="M213.3,359.7V98.2" class="g4_218"/>
<path d="M213.3,359.7v3.4" class="g5_218"/>
<path d="M213.3,366.8c.8,0,1.4,.3,1.8,.9c.5,.7,.7,1.6,.7,2.8c0,1.2,-.2,2.1,-.7,2.7c-.4,.7,-1,1,-1.8,1c-.8,0,-1.4,-.3,-1.8,-1c-.5,-.6,-.7,-1.5,-.7,-2.7c0,-1.2,.2,-2.1,.7,-2.8c.4,-.6,1,-.9,1.8,-.9Zm0,.7c-.5,0,-.9,.3,-1.1,.8c-.3,.5,-.4,1.2,-.4,2.2c0,1,.1,1.7,.4,2.2c.2,.5,.6,.7,1.1,.7c.5,0,.9,-.2,1.1,-.7c.3,-.5,.4,-1.2,.4,-2.2c0,-1,-.1,-1.7,-.4,-2.2c-.2,-.5,-.6,-.8,-1.1,-.8Z" class="g6_218"/>
<path d="M277.1,359.7V98.2" class="g4_218"/>
<path d="M277.1,359.7v3.4" class="g5_218"/>
<path d="M272.7,373.2h3.4v.9h-4.5v-.9c.3,-.3,.8,-.9,1.5,-1.5c.6,-.6,1,-1,1.2,-1.2c.3,-.4,.5,-.7,.6,-.9c.1,-.3,.2,-.5,.2,-.7c0,-.4,-.1,-.7,-.4,-1c-.3,-.2,-.6,-.3,-1,-.3c-.3,0,-.7,0,-1,.1c-.3,.1,-.7,.3,-1.1,.5v-1c.4,-.1,.8,-.2,1.1,-.3c.4,-.1,.7,-.1,.9,-.1c.8,0,1.4,.1,1.8,.5c.5,.4,.7,.9,.7,1.5c0,.3,-.1,.6,-.2,.8c-.1,.3,-.3,.6,-.6,1c-.1,.1,-.3,.3,-.8,.8c-.4,.4,-1,1,-1.8,1.8Z" class="g6_218"/>
<path d="M280.2,366.8c.8,0,1.4,.3,1.9,.9c.4,.7,.6,1.6,.6,2.8c0,1.2,-.2,2.1,-.6,2.7c-.5,.7,-1.1,1,-1.9,1c-.8,0,-1.4,-.3,-1.8,-1c-.4,-.6,-.6,-1.5,-.6,-2.7c0,-1.2,.2,-2.1,.6,-2.8c.4,-.6,1,-.9,1.8,-.9Zm0,.7c-.5,0,-.8,.3,-1.1,.8c-.3,.5,-.4,1.2,-.4,2.2c0,1,.1,1.7,.4,2.2c.3,.5,.6,.7,1.1,.7c.5,0,.9,-.2,1.2,-.7c.2,-.5,.3,-1.2,.3,-2.2c0,-1,-.1,-1.7,-.3,-2.2c-.3,-.5,-.7,-.8,-1.2,-.8Z" class="g6_218"/>
<path d="M340.9,359.7V98.2" class="g4_218"/>
<path d="M340.9,359.7v3.4" class="g5_218"/>
<path d="M338.1,366.9h1.2v4.7h1.1v.8h-1.1v1.7h-.9v-1.7h-3.3v-1l3,-4.5Zm.3,.8l-2.5,3.9h2.5v-3.9Z" class="g6_218"/>
<path d="M344,366.8c.8,0,1.4,.3,1.9,.9c.4,.7,.6,1.6,.6,2.8c0,1.2,-.2,2.1,-.6,2.7c-.5,.7,-1.1,1,-1.9,1c-.8,0,-1.4,-.3,-1.8,-1c-.4,-.6,-.6,-1.5,-.6,-2.7c0,-1.2,.2,-2.1,.6,-2.8c.4,-.6,1,-.9,1.8,-.9Zm0,.7c-.5,0,-.8,.3,-1.1,.8c-.2,.5,-.4,1.2,-.4,2.2c0,1,.2,1.7,.4,2.2c.3,.5,.6,.7,1.1,.7c.5,0,.9,-.2,1.2,-.7c.2,-.5,.3,-1.2,.3,-2.2c0,-1,-.1,-1.7,-.3,-2.2c-.3,-.5,-.7,-.8,-1.2,-.8Z" class="g6_218"/>
<path d="M404.7,359.7V98.2" class="g4_218"/>
<path d="M404.7,359.7v3.4" class="g5_218"/>
<path d="M403.6,367v.9c-.2,-.1,-.5,-.2,-.7,-.2c-.3,-.1,-.5,-.1,-.7,-.1c-.7,0,-1.2,.2,-1.5,.6c-.3,.5,-.5,1.1,-.6,2c.2,-.3,.4,-.5,.7,-.7c.3,-.1,.6,-.2,1,-.2c.7,0,1.3,.2,1.7,.7c.4,.4,.6,1,.6,1.8c0,.7,-.2,1.3,-.7,1.7c-.4,.5,-1,.7,-1.7,.7c-.8,0,-1.5,-.3,-1.9,-1c-.4,-.6,-.6,-1.5,-.6,-2.7c0,-1.2,.2,-2.1,.8,-2.7c.5,-.7,1.2,-1,2.1,-1c.3,0,.5,0,.8,0c.2,.1,.5,.2,.7,.2Zm-1.9,3.1c-.4,0,-.8,.1,-1,.4c-.3,.3,-.4,.7,-.4,1.3c0,.5,.1,.9,.4,1.2c.2,.3,.6,.4,1,.4c.4,0,.8,-.1,1,-.4c.3,-.3,.4,-.7,.4,-1.2c0,-.6,-.1,-1,-.4,-1.3c-.2,-.3,-.6,-.4,-1,-.4Z" class="g6_218"/>
<path d="M407.8,366.8c.8,0,1.5,.3,1.9,.9c.4,.7,.6,1.6,.6,2.8c0,1.2,-.2,2.1,-.6,2.7c-.4,.7,-1.1,1,-1.9,1c-.8,0,-1.4,-.3,-1.8,-1c-.4,-.6,-.6,-1.5,-.6,-2.7c0,-1.2,.2,-2.1,.6,-2.8c.4,-.6,1,-.9,1.8,-.9Zm0,.7c-.5,0,-.8,.3,-1.1,.8c-.2,.5,-.4,1.2,-.4,2.2c0,1,.2,1.7,.4,2.2c.3,.5,.6,.7,1.1,.7c.5,0,.9,-.2,1.2,-.7c.2,-.5,.3,-1.2,.3,-2.2c0,-1,-.1,-1.7,-.3,-2.2c-.3,-.5,-.7,-.8,-1.2,-.8Z" class="g6_218"/>
<path d="M468.5,359.7V98.2" class="g4_218"/>
<path d="M468.5,359.7v3.4" class="g5_218"/>
<path d="M464.1,368.7c0,.4,.1,.7,.3,.9c.3,.2,.6,.3,1,.3c.4,0,.7,-.1,1,-.3c.2,-.2,.3,-.5,.3,-.9c0,-.4,-.1,-.7,-.3,-.9c-.3,-.2,-.6,-.3,-1,-.3c-.4,0,-.7,.1,-1,.3c-.2,.2,-.3,.5,-.3,.9Zm.3,1.5c-.4,-.1,-.7,-.3,-.9,-.5c-.3,-.3,-.4,-.7,-.4,-1.1c0,-.6,.2,-1,.6,-1.3c.4,-.4,1,-.5,1.7,-.5c.7,0,1.3,.1,1.7,.5c.4,.3,.6,.7,.6,1.3c0,.4,-.1,.8,-.4,1.1c-.2,.2,-.5,.4,-.9,.5c.4,.1,.8,.4,1.1,.7c.2,.3,.4,.7,.4,1.1c0,.7,-.3,1.3,-.7,1.6c-.4,.4,-1,.6,-1.8,.6c-.8,0,-1.4,-.2,-1.8,-.6c-.4,-.3,-.7,-.9,-.7,-1.6c0,-.4,.2,-.8,.4,-1.1c.3,-.3,.7,-.6,1.1,-.7Zm1,.5c-.5,0,-.8,.1,-1.1,.3c-.3,.3,-.4,.6,-.4,1c0,.5,.1,.8,.4,1.1c.3,.2,.6,.3,1.1,.3c.5,0,.8,-.1,1.1,-.3c.2,-.3,.4,-.6,.4,-1.1c0,-.4,-.2,-.7,-.4,-1c-.3,-.2,-.6,-.3,-1.1,-.3Z" class="g6_218"/>
<path d="M471.6,366.8c.9,0,1.5,.3,1.9,.9c.4,.7,.6,1.6,.6,2.8c0,1.2,-.2,2.1,-.6,2.7c-.4,.7,-1,1,-1.9,1c-.8,0,-1.4,-.3,-1.8,-1c-.4,-.6,-.6,-1.5,-.6,-2.7c0,-1.2,.2,-2.1,.6,-2.8c.4,-.6,1,-.9,1.8,-.9Zm0,.7c-.5,0,-.8,.3,-1.1,.8c-.2,.5,-.4,1.2,-.4,2.2c0,1,.2,1.7,.4,2.2c.3,.5,.6,.7,1.1,.7c.6,0,.9,-.2,1.2,-.7c.2,-.5,.4,-1.2,.4,-2.2c0,-1,-.2,-1.7,-.4,-2.2c-.3,-.5,-.6,-.8,-1.2,-.8Z" class="g6_218"/>
<path d="M532.3,359.7V98.2" class="g4_218"/>
<path d="M532.3,359.7v3.4" class="g5_218"/>
<path d="M524.2,373.2h1.6v-5.4l-1.8,.3v-.9l1.7,-.3h1v6.3h1.6v.9h-4.1v-.9Z" class="g6_218"/>
<path d="M532.3,366.8c.8,0,1.4,.3,1.9,.9c.4,.7,.6,1.6,.6,2.8c0,1.2,-.2,2.1,-.6,2.7c-.5,.7,-1.1,1,-1.9,1c-.8,0,-1.4,-.3,-1.8,-1c-.4,-.6,-.6,-1.5,-.6,-2.7c0,-1.2,.2,-2.1,.6,-2.8c.4,-.6,1,-.9,1.8,-.9Zm0,.7c-.5,0,-.8,.3,-1.1,.8c-.2,.5,-.4,1.2,-.4,2.2c0,1,.2,1.7,.4,2.2c.3,.5,.6,.7,1.1,.7c.5,0,.9,-.2,1.2,-.7c.2,-.5,.3,-1.2,.3,-2.2c0,-1,-.1,-1.7,-.3,-2.2c-.3,-.5,-.7,-.8,-1.2,-.8Z" class="g6_218"/>
<path d="M538.6,366.8c.8,0,1.4,.3,1.8,.9c.4,.7,.7,1.6,.7,2.8c0,1.2,-.3,2.1,-.7,2.7c-.4,.7,-1,1,-1.8,1c-.8,0,-1.4,-.3,-1.9,-1c-.4,-.6,-.6,-1.5,-.6,-2.7c0,-1.2,.2,-2.1,.6,-2.8c.5,-.6,1.1,-.9,1.9,-.9Zm0,.7c-.5,0,-.9,.3,-1.1,.8c-.3,.5,-.4,1.2,-.4,2.2c0,1,.1,1.7,.4,2.2c.2,.5,.6,.7,1.1,.7c.5,0,.9,-.2,1.1,-.7c.3,-.5,.4,-1.2,.4,-2.2c0,-1,-.1,-1.7,-.4,-2.2c-.2,-.5,-.6,-.8,-1.1,-.8Z" class="g6_218"/>
<path d="M376.9,382.1l-2,2.6l2.1,2.8h-1.1l-1.5,-2.1l-1.6,2.1h-1l2.1,-2.8l-2,-2.6H373l1.4,1.9l1.4,-1.9h1.1Z" class="g6_218"/>
<path d="M198.9,347.8H549.8" class="g4_218"/>
<path d="M198.9,347.8h-3.4" class="g5_218"/>
<path d="M188.9,344.3c.8,0,1.4,.3,1.9,.9c.4,.7,.6,1.6,.6,2.8c0,1.2,-.2,2.1,-.6,2.7c-.5,.7,-1.1,1,-1.9,1c-.8,0,-1.4,-.3,-1.8,-1c-.4,-.6,-.6,-1.5,-.6,-2.7c0,-1.2,.2,-2.1,.6,-2.8c.4,-.6,1,-.9,1.8,-.9Zm0,.7c-.5,0,-.8,.3,-1.1,.8c-.2,.5,-.4,1.2,-.4,2.2c0,1,.2,1.7,.4,2.2c.3,.5,.6,.7,1.1,.7c.5,0,.9,-.2,1.2,-.7c.2,-.5,.3,-1.2,.3,-2.2c0,-1,-.1,-1.7,-.3,-2.2c-.3,-.5,-.7,-.8,-1.2,-.8Z" class="g6_218"/>
<path d="M198.9,316.5H549.8" class="g4_218"/>
<path d="M198.9,316.5h-3.4" class="g5_218"/>
<path d="M155.8,319.4h1.6v-5.5l-1.8,.4v-.9l1.7,-.4h1v6.4h1.6v.8h-4.1v-.8Z" class="g6_218"/>
<path d="M163.9,312.9c.8,0,1.4,.3,1.9,1c.4,.6,.6,1.5,.6,2.7c0,1.2,-.2,2.2,-.6,2.8c-.5,.6,-1.1,.9,-1.9,.9c-.8,0,-1.4,-.3,-1.8,-.9c-.4,-.6,-.7,-1.6,-.7,-2.8c0,-1.2,.3,-2.1,.7,-2.7c.4,-.7,1,-1,1.8,-1Zm0,.8c-.5,0,-.9,.2,-1.1,.7c-.3,.5,-.4,1.2,-.4,2.2c0,1,.1,1.7,.4,2.2c.2,.5,.6,.8,1.1,.8c.5,0,.9,-.3,1.2,-.8c.2,-.5,.3,-1.2,.3,-2.2c0,-1,-.1,-1.7,-.3,-2.2c-.3,-.5,-.7,-.7,-1.2,-.7Z" class="g6_218"/>
<path d="M170.2,312.9c.8,0,1.4,.3,1.8,1c.4,.6,.7,1.5,.7,2.7c0,1.2,-.3,2.2,-.7,2.8c-.4,.6,-1,.9,-1.8,.9c-.8,0,-1.4,-.3,-1.9,-.9c-.4,-.6,-.6,-1.6,-.6,-2.8c0,-1.2,.2,-2.1,.6,-2.7c.5,-.7,1.1,-1,1.9,-1Zm0,.8c-.5,0,-.9,.2,-1.1,.7c-.3,.5,-.4,1.2,-.4,2.2c0,1,.1,1.7,.4,2.2c.2,.5,.6,.8,1.1,.8c.5,0,.9,-.3,1.1,-.8c.3,-.5,.4,-1.2,.4,-2.2c0,-1,-.1,-1.7,-.4,-2.2c-.2,-.5,-.6,-.7,-1.1,-.7Z" class="g6_218"/>
<path d="M176.4,312.9c.8,0,1.4,.3,1.9,1c.4,.6,.6,1.5,.6,2.7c0,1.2,-.2,2.2,-.6,2.8c-.5,.6,-1.1,.9,-1.9,.9c-.8,0,-1.4,-.3,-1.8,-.9c-.4,-.6,-.6,-1.6,-.6,-2.8c0,-1.2,.2,-2.1,.6,-2.7c.4,-.7,1,-1,1.8,-1Zm0,.8c-.5,0,-.8,.2,-1.1,.7c-.2,.5,-.4,1.2,-.4,2.2c0,1,.2,1.7,.4,2.2c.3,.5,.6,.8,1.1,.8c.5,0,.9,-.3,1.2,-.8c.2,-.5,.3,-1.2,.3,-2.2c0,-1,-.1,-1.7,-.3,-2.2c-.3,-.5,-.7,-.7,-1.2,-.7Z" class="g6_218"/>
<path d="M182.7,312.9c.8,0,1.4,.3,1.8,1c.4,.6,.7,1.5,.7,2.7c0,1.2,-.3,2.2,-.7,2.8c-.4,.6,-1,.9,-1.8,.9c-.8,0,-1.4,-.3,-1.9,-.9c-.4,-.6,-.6,-1.6,-.6,-2.8c0,-1.2,.2,-2.1,.6,-2.7c.5,-.7,1.1,-1,1.9,-1Zm0,.8c-.5,0,-.9,.2,-1.1,.7c-.3,.5,-.4,1.2,-.4,2.2c0,1,.1,1.7,.4,2.2c.2,.5,.6,.8,1.1,.8c.5,0,.9,-.3,1.1,-.8c.3,-.5,.4,-1.2,.4,-2.2c0,-1,-.1,-1.7,-.4,-2.2c-.2,-.5,-.6,-.7,-1.1,-.7Z" class="g6_218"/>
<path d="M188.9,312.9c.8,0,1.4,.3,1.9,1c.4,.6,.6,1.5,.6,2.7c0,1.2,-.2,2.2,-.6,2.8c-.5,.6,-1.1,.9,-1.9,.9c-.8,0,-1.4,-.3,-1.8,-.9c-.4,-.6,-.6,-1.6,-.6,-2.8c0,-1.2,.2,-2.1,.6,-2.7c.4,-.7,1,-1,1.8,-1Zm0,.8c-.5,0,-.8,.2,-1.1,.7c-.2,.5,-.4,1.2,-.4,2.2c0,1,.2,1.7,.4,2.2c.3,.5,.6,.8,1.1,.8c.5,0,.9,-.3,1.2,-.8c.2,-.5,.3,-1.2,.3,-2.2c0,-1,-.1,-1.7,-.3,-2.2c-.3,-.5,-.7,-.7,-1.2,-.7Z" class="g6_218"/>
<path d="M198.9,285.1H549.8" class="g4_218"/>
<path d="M198.9,285.1h-3.4" class="g5_218"/>
<path d="M156.4,288h3.4v.9h-4.5V288c.3,-.3,.8,-.9,1.5,-1.5c.6,-.6,1,-1.1,1.2,-1.2c.3,-.4,.5,-.7,.6,-.9c.1,-.3,.2,-.5,.2,-.7c0,-.4,-.1,-.7,-.4,-1c-.3,-.2,-.6,-.3,-1,-.3c-.3,0,-.7,0,-1,.1c-.3,.1,-.7,.3,-1.1,.5v-1c.4,-.1,.8,-.2,1.1,-.3c.3,-.1,.7,-.1,.9,-.1c.8,0,1.4,.1,1.8,.5c.5,.4,.7,.9,.7,1.5c0,.3,-.1,.6,-.2,.8c-.1,.3,-.3,.6,-.6,1c-.1,.1,-.3,.3,-.8,.8c-.4,.4,-1,1,-1.8,1.8Z" class="g6_218"/>
<path d="M163.9,281.6c.8,0,1.4,.3,1.9,.9c.4,.6,.6,1.6,.6,2.8c0,1.2,-.2,2.1,-.6,2.7c-.5,.7,-1.1,1,-1.9,1c-.8,0,-1.4,-.3,-1.8,-1c-.4,-.6,-.7,-1.5,-.7,-2.7c0,-1.2,.3,-2.2,.7,-2.8c.4,-.6,1,-.9,1.8,-.9Zm0,.7c-.5,0,-.9,.3,-1.1,.8c-.3,.5,-.4,1.2,-.4,2.2c0,1,.1,1.7,.4,2.2c.2,.5,.6,.7,1.1,.7c.5,0,.9,-.2,1.2,-.7c.2,-.5,.3,-1.2,.3,-2.2c0,-1,-.1,-1.7,-.3,-2.2c-.3,-.5,-.7,-.8,-1.2,-.8Z" class="g6_218"/>
<path d="M170.2,281.6c.8,0,1.4,.3,1.8,.9c.4,.6,.7,1.6,.7,2.8c0,1.2,-.3,2.1,-.7,2.7c-.4,.7,-1,1,-1.8,1c-.8,0,-1.4,-.3,-1.9,-1c-.4,-.6,-.6,-1.5,-.6,-2.7c0,-1.2,.2,-2.2,.6,-2.8c.5,-.6,1.1,-.9,1.9,-.9Zm0,.7c-.5,0,-.9,.3,-1.1,.8c-.3,.5,-.4,1.2,-.4,2.2c0,1,.1,1.7,.4,2.2c.2,.5,.6,.7,1.1,.7c.5,0,.9,-.2,1.1,-.7c.3,-.5,.4,-1.2,.4,-2.2c0,-1,-.1,-1.7,-.4,-2.2c-.2,-.5,-.6,-.8,-1.1,-.8Z" class="g6_218"/>
<path d="M176.4,281.6c.8,0,1.4,.3,1.9,.9c.4,.6,.6,1.6,.6,2.8c0,1.2,-.2,2.1,-.6,2.7c-.5,.7,-1.1,1,-1.9,1c-.8,0,-1.4,-.3,-1.8,-1c-.4,-.6,-.6,-1.5,-.6,-2.7c0,-1.2,.2,-2.2,.6,-2.8c.4,-.6,1,-.9,1.8,-.9Zm0,.7c-.5,0,-.8,.3,-1.1,.8c-.2,.5,-.4,1.2,-.4,2.2c0,1,.2,1.7,.4,2.2c.3,.5,.6,.7,1.1,.7c.5,0,.9,-.2,1.2,-.7c.2,-.5,.3,-1.2,.3,-2.2c0,-1,-.1,-1.7,-.3,-2.2c-.3,-.5,-.7,-.8,-1.2,-.8Z" class="g6_218"/>
<path d="M182.7,281.6c.8,0,1.4,.3,1.8,.9c.4,.6,.7,1.6,.7,2.8c0,1.2,-.3,2.1,-.7,2.7c-.4,.7,-1,1,-1.8,1c-.8,0,-1.4,-.3,-1.9,-1c-.4,-.6,-.6,-1.5,-.6,-2.7c0,-1.2,.2,-2.2,.6,-2.8c.5,-.6,1.1,-.9,1.9,-.9Zm0,.7c-.5,0,-.9,.3,-1.1,.8c-.3,.5,-.4,1.2,-.4,2.2c0,1,.1,1.7,.4,2.2c.2,.5,.6,.7,1.1,.7c.5,0,.9,-.2,1.1,-.7c.3,-.5,.4,-1.2,.4,-2.2c0,-1,-.1,-1.7,-.4,-2.2c-.2,-.5,-.6,-.8,-1.1,-.8Z" class="g6_218"/>
<path d="M188.9,281.6c.8,0,1.4,.3,1.9,.9c.4,.6,.6,1.6,.6,2.8c0,1.2,-.2,2.1,-.6,2.7c-.5,.7,-1.1,1,-1.9,1c-.8,0,-1.4,-.3,-1.8,-1c-.4,-.6,-.6,-1.5,-.6,-2.7c0,-1.2,.2,-2.2,.6,-2.8c.4,-.6,1,-.9,1.8,-.9Zm0,.7c-.5,0,-.8,.3,-1.1,.8c-.2,.5,-.4,1.2,-.4,2.2c0,1,.2,1.7,.4,2.2c.3,.5,.6,.7,1.1,.7c.5,0,.9,-.2,1.2,-.7c.2,-.5,.3,-1.2,.3,-2.2c0,-1,-.1,-1.7,-.3,-2.2c-.3,-.5,-.7,-.8,-1.2,-.8Z" class="g6_218"/>
<path d="M198.9,253.8H549.8" class="g4_218"/>
<path d="M198.9,253.8h-3.4" class="g5_218"/>
<path d="M158.5,253.6c.5,.1,.9,.3,1.1,.7c.3,.3,.4,.7,.4,1.1c0,.7,-.2,1.3,-.7,1.7c-.5,.3,-1.2,.5,-2.1,.5c-.3,0,-.6,0,-.9,-.1c-.3,0,-.7,-.1,-1,-.2v-1c.3,.2,.6,.3,.9,.4c.3,.1,.6,.1,1,.1c.6,0,1.1,-.1,1.4,-.3c.3,-.3,.4,-.6,.4,-1.1c0,-.4,-.1,-.7,-.4,-1c-.3,-.2,-.7,-.3,-1.2,-.3h-.9v-.8h.9c.5,0,.9,-.1,1.1,-.3c.3,-.2,.4,-.5,.4,-.8c0,-.4,-.1,-.7,-.4,-.9c-.3,-.2,-.6,-.3,-1.1,-.3c-.3,0,-.6,0,-.9,.1c-.3,.1,-.6,.2,-1,.3v-.9c.4,-.1,.7,-.2,1,-.2c.4,-.1,.7,-.1,1,-.1c.7,0,1.3,.2,1.7,.5c.4,.3,.6,.8,.6,1.4c0,.4,-.1,.7,-.3,1c-.2,.2,-.5,.4,-1,.5Z" class="g6_218"/>
<path d="M163.9,250.2c.8,0,1.4,.3,1.9,1c.4,.6,.6,1.5,.6,2.7c0,1.2,-.2,2.1,-.6,2.8c-.5,.6,-1.1,.9,-1.9,.9c-.8,0,-1.4,-.3,-1.8,-.9c-.4,-.7,-.7,-1.6,-.7,-2.8c0,-1.2,.3,-2.1,.7,-2.7c.4,-.7,1,-1,1.8,-1Zm0,.8c-.5,0,-.9,.2,-1.1,.7c-.3,.5,-.4,1.2,-.4,2.2c0,1,.1,1.7,.4,2.2c.2,.5,.6,.8,1.1,.8c.5,0,.9,-.3,1.2,-.8c.2,-.5,.3,-1.2,.3,-2.2c0,-1,-.1,-1.7,-.3,-2.2c-.3,-.5,-.7,-.7,-1.2,-.7Z" class="g6_218"/>
<path d="M170.2,250.2c.8,0,1.4,.3,1.8,1c.4,.6,.7,1.5,.7,2.7c0,1.2,-.3,2.1,-.7,2.8c-.4,.6,-1,.9,-1.8,.9c-.8,0,-1.4,-.3,-1.9,-.9c-.4,-.7,-.6,-1.6,-.6,-2.8c0,-1.2,.2,-2.1,.6,-2.7c.5,-.7,1.1,-1,1.9,-1Zm0,.8c-.5,0,-.9,.2,-1.1,.7c-.3,.5,-.4,1.2,-.4,2.2c0,1,.1,1.7,.4,2.2c.2,.5,.6,.8,1.1,.8c.5,0,.9,-.3,1.1,-.8c.3,-.5,.4,-1.2,.4,-2.2c0,-1,-.1,-1.7,-.4,-2.2c-.2,-.5,-.6,-.7,-1.1,-.7Z" class="g6_218"/>
<path d="M176.4,250.2c.8,0,1.4,.3,1.9,1c.4,.6,.6,1.5,.6,2.7c0,1.2,-.2,2.1,-.6,2.8c-.5,.6,-1.1,.9,-1.9,.9c-.8,0,-1.4,-.3,-1.8,-.9c-.4,-.7,-.6,-1.6,-.6,-2.8c0,-1.2,.2,-2.1,.6,-2.7c.4,-.7,1,-1,1.8,-1Zm0,.8c-.5,0,-.8,.2,-1.1,.7c-.2,.5,-.4,1.2,-.4,2.2c0,1,.2,1.7,.4,2.2c.3,.5,.6,.8,1.1,.8c.5,0,.9,-.3,1.2,-.8c.2,-.5,.3,-1.2,.3,-2.2c0,-1,-.1,-1.7,-.3,-2.2c-.3,-.5,-.7,-.7,-1.2,-.7Z" class="g6_218"/>
<path d="M182.7,250.2c.8,0,1.4,.3,1.8,1c.4,.6,.7,1.5,.7,2.7c0,1.2,-.3,2.1,-.7,2.8c-.4,.6,-1,.9,-1.8,.9c-.8,0,-1.4,-.3,-1.9,-.9c-.4,-.7,-.6,-1.6,-.6,-2.8c0,-1.2,.2,-2.1,.6,-2.7c.5,-.7,1.1,-1,1.9,-1Zm0,.8c-.5,0,-.9,.2,-1.1,.7c-.3,.5,-.4,1.2,-.4,2.2c0,1,.1,1.7,.4,2.2c.2,.5,.6,.8,1.1,.8c.5,0,.9,-.3,1.1,-.8c.3,-.5,.4,-1.2,.4,-2.2c0,-1,-.1,-1.7,-.4,-2.2c-.2,-.5,-.6,-.7,-1.1,-.7Z" class="g6_218"/>
<path d="M188.9,250.2c.8,0,1.4,.3,1.9,1c.4,.6,.6,1.5,.6,2.7c0,1.2,-.2,2.1,-.6,2.8c-.5,.6,-1.1,.9,-1.9,.9c-.8,0,-1.4,-.3,-1.8,-.9c-.4,-.7,-.6,-1.6,-.6,-2.8c0,-1.2,.2,-2.1,.6,-2.7c.4,-.7,1,-1,1.8,-1Zm0,.8c-.5,0,-.8,.2,-1.1,.7c-.2,.5,-.4,1.2,-.4,2.2c0,1,.2,1.7,.4,2.2c.3,.5,.6,.8,1.1,.8c.5,0,.9,-.3,1.2,-.8c.2,-.5,.3,-1.2,.3,-2.2c0,-1,-.1,-1.7,-.3,-2.2c-.3,-.5,-.7,-.7,-1.2,-.7Z" class="g6_218"/>
<path d="M198.9,222.4H549.8" class="g4_218"/>
<path d="M198.9,222.4h-3.4" class="g5_218"/>
<path d="M158,219h1.2v4.6h1.1v.9h-1.1v1.6h-.9v-1.6H155v-1l3,-4.5Zm.3,.8l-2.5,3.8h2.5v-3.8Z" class="g6_218"/>
<path d="M163.9,218.8c.8,0,1.4,.4,1.9,1c.4,.6,.6,1.6,.6,2.8c0,1.2,-.2,2.1,-.6,2.7c-.5,.7,-1.1,1,-1.9,1c-.8,0,-1.4,-.3,-1.8,-1c-.4,-.6,-.7,-1.5,-.7,-2.7c0,-1.2,.3,-2.2,.7,-2.8c.4,-.6,1,-1,1.8,-1Zm0,.8c-.5,0,-.9,.3,-1.1,.8c-.3,.4,-.4,1.2,-.4,2.2c0,.9,.1,1.7,.4,2.2c.2,.5,.6,.7,1.1,.7c.5,0,.9,-.2,1.2,-.7c.2,-.5,.3,-1.3,.3,-2.2c0,-1,-.1,-1.8,-.3,-2.2c-.3,-.5,-.7,-.8,-1.2,-.8Z" class="g6_218"/>
<path d="M170.2,218.8c.8,0,1.4,.4,1.8,1c.4,.6,.7,1.6,.7,2.8c0,1.2,-.3,2.1,-.7,2.7c-.4,.7,-1,1,-1.8,1c-.8,0,-1.4,-.3,-1.9,-1c-.4,-.6,-.6,-1.5,-.6,-2.7c0,-1.2,.2,-2.2,.6,-2.8c.5,-.6,1.1,-1,1.9,-1Zm0,.8c-.5,0,-.9,.3,-1.1,.8c-.3,.4,-.4,1.2,-.4,2.2c0,.9,.1,1.7,.4,2.2c.2,.5,.6,.7,1.1,.7c.5,0,.9,-.2,1.1,-.7c.3,-.5,.4,-1.3,.4,-2.2c0,-1,-.1,-1.8,-.4,-2.2c-.2,-.5,-.6,-.8,-1.1,-.8Z" class="g6_218"/>
<path d="M176.4,218.8c.8,0,1.4,.4,1.9,1c.4,.6,.6,1.6,.6,2.8c0,1.2,-.2,2.1,-.6,2.7c-.5,.7,-1.1,1,-1.9,1c-.8,0,-1.4,-.3,-1.8,-1c-.4,-.6,-.6,-1.5,-.6,-2.7c0,-1.2,.2,-2.2,.6,-2.8c.4,-.6,1,-1,1.8,-1Zm0,.8c-.5,0,-.8,.3,-1.1,.8c-.2,.4,-.4,1.2,-.4,2.2c0,.9,.2,1.7,.4,2.2c.3,.5,.6,.7,1.1,.7c.5,0,.9,-.2,1.2,-.7c.2,-.5,.3,-1.3,.3,-2.2c0,-1,-.1,-1.8,-.3,-2.2c-.3,-.5,-.7,-.8,-1.2,-.8Z" class="g6_218"/>
<path d="M182.7,218.8c.8,0,1.4,.4,1.8,1c.4,.6,.7,1.6,.7,2.8c0,1.2,-.3,2.1,-.7,2.7c-.4,.7,-1,1,-1.8,1c-.8,0,-1.4,-.3,-1.9,-1c-.4,-.6,-.6,-1.5,-.6,-2.7c0,-1.2,.2,-2.2,.6,-2.8c.5,-.6,1.1,-1,1.9,-1Zm0,.8c-.5,0,-.9,.3,-1.1,.8c-.3,.4,-.4,1.2,-.4,2.2c0,.9,.1,1.7,.4,2.2c.2,.5,.6,.7,1.1,.7c.5,0,.9,-.2,1.1,-.7c.3,-.5,.4,-1.3,.4,-2.2c0,-1,-.1,-1.8,-.4,-2.2c-.2,-.5,-.6,-.8,-1.1,-.8Z" class="g6_218"/>
<path d="M188.9,218.8c.8,0,1.4,.4,1.9,1c.4,.6,.6,1.6,.6,2.8c0,1.2,-.2,2.1,-.6,2.7c-.5,.7,-1.1,1,-1.9,1c-.8,0,-1.4,-.3,-1.8,-1c-.4,-.6,-.6,-1.5,-.6,-2.7c0,-1.2,.2,-2.2,.6,-2.8c.4,-.6,1,-1,1.8,-1Zm0,.8c-.5,0,-.8,.3,-1.1,.8c-.2,.4,-.4,1.2,-.4,2.2c0,.9,.2,1.7,.4,2.2c.3,.5,.6,.7,1.1,.7c.5,0,.9,-.2,1.2,-.7c.2,-.5,.3,-1.3,.3,-2.2c0,-1,-.1,-1.8,-.3,-2.2c-.3,-.5,-.7,-.8,-1.2,-.8Z" class="g6_218"/>
<path d="M198.9,191.1H549.8" class="g4_218"/>
<path d="M198.9,191.1h-3.4" class="g5_218"/>
<path d="M155.6,187.6h3.8v.8h-2.9v1.8c.1,-.1,.3,-.1,.4,-.1c.2,0,.3,0,.4,0c.8,0,1.5,.2,1.9,.6c.5,.4,.7,1,.7,1.8c0,.8,-.2,1.4,-.7,1.8c-.5,.4,-1.1,.6,-2,.6c-.3,0,-.6,0,-.9,-.1c-.3,0,-.7,-.1,-1,-.2v-1c.3,.2,.6,.3,.9,.4c.3,.1,.6,.1,1,.1c.5,0,1,-.1,1.3,-.4c.3,-.3,.5,-.7,.5,-1.2c0,-.5,-.2,-.9,-.5,-1.2c-.3,-.3,-.8,-.4,-1.3,-.4c-.3,0,-.5,0,-.8,.1c-.3,0,-.5,.1,-.8,.2v-3.6Z" class="g6_218"/>
<path d="M163.9,187.5c.8,0,1.4,.3,1.9,.9c.4,.7,.6,1.6,.6,2.8c0,1.2,-.2,2.1,-.6,2.8c-.5,.6,-1.1,.9,-1.9,.9c-.8,0,-1.4,-.3,-1.8,-.9c-.4,-.7,-.7,-1.6,-.7,-2.8c0,-1.2,.3,-2.1,.7,-2.8c.4,-.6,1,-.9,1.8,-.9Zm0,.8c-.5,0,-.9,.2,-1.1,.7c-.3,.5,-.4,1.2,-.4,2.2c0,1,.1,1.7,.4,2.2c.2,.5,.6,.8,1.1,.8c.5,0,.9,-.3,1.2,-.8c.2,-.5,.3,-1.2,.3,-2.2c0,-1,-.1,-1.7,-.3,-2.2c-.3,-.5,-.7,-.7,-1.2,-.7Z" class="g6_218"/>
<path d="M170.2,187.5c.8,0,1.4,.3,1.8,.9c.4,.7,.7,1.6,.7,2.8c0,1.2,-.3,2.1,-.7,2.8c-.4,.6,-1,.9,-1.8,.9c-.8,0,-1.4,-.3,-1.9,-.9c-.4,-.7,-.6,-1.6,-.6,-2.8c0,-1.2,.2,-2.1,.6,-2.8c.5,-.6,1.1,-.9,1.9,-.9Zm0,.8c-.5,0,-.9,.2,-1.1,.7c-.3,.5,-.4,1.2,-.4,2.2c0,1,.1,1.7,.4,2.2c.2,.5,.6,.8,1.1,.8c.5,0,.9,-.3,1.1,-.8c.3,-.5,.4,-1.2,.4,-2.2c0,-1,-.1,-1.7,-.4,-2.2c-.2,-.5,-.6,-.7,-1.1,-.7Z" class="g6_218"/>
<path d="M176.4,187.5c.8,0,1.4,.3,1.9,.9c.4,.7,.6,1.6,.6,2.8c0,1.2,-.2,2.1,-.6,2.8c-.5,.6,-1.1,.9,-1.9,.9c-.8,0,-1.4,-.3,-1.8,-.9c-.4,-.7,-.6,-1.6,-.6,-2.8c0,-1.2,.2,-2.1,.6,-2.8c.4,-.6,1,-.9,1.8,-.9Zm0,.8c-.5,0,-.8,.2,-1.1,.7c-.2,.5,-.4,1.2,-.4,2.2c0,1,.2,1.7,.4,2.2c.3,.5,.6,.8,1.1,.8c.5,0,.9,-.3,1.2,-.8c.2,-.5,.3,-1.2,.3,-2.2c0,-1,-.1,-1.7,-.3,-2.2c-.3,-.5,-.7,-.7,-1.2,-.7Z" class="g6_218"/>
<path d="M182.7,187.5c.8,0,1.4,.3,1.8,.9c.4,.7,.7,1.6,.7,2.8c0,1.2,-.3,2.1,-.7,2.8c-.4,.6,-1,.9,-1.8,.9c-.8,0,-1.4,-.3,-1.9,-.9c-.4,-.7,-.6,-1.6,-.6,-2.8c0,-1.2,.2,-2.1,.6,-2.8c.5,-.6,1.1,-.9,1.9,-.9Zm0,.8c-.5,0,-.9,.2,-1.1,.7c-.3,.5,-.4,1.2,-.4,2.2c0,1,.1,1.7,.4,2.2c.2,.5,.6,.8,1.1,.8c.5,0,.9,-.3,1.1,-.8c.3,-.5,.4,-1.2,.4,-2.2c0,-1,-.1,-1.7,-.4,-2.2c-.2,-.5,-.6,-.7,-1.1,-.7Z" class="g6_218"/>
<path d="M188.9,187.5c.8,0,1.4,.3,1.9,.9c.4,.7,.6,1.6,.6,2.8c0,1.2,-.2,2.1,-.6,2.8c-.5,.6,-1.1,.9,-1.9,.9c-.8,0,-1.4,-.3,-1.8,-.9c-.4,-.7,-.6,-1.6,-.6,-2.8c0,-1.2,.2,-2.1,.6,-2.8c.4,-.6,1,-.9,1.8,-.9Zm0,.8c-.5,0,-.8,.2,-1.1,.7c-.2,.5,-.4,1.2,-.4,2.2c0,1,.2,1.7,.4,2.2c.3,.5,.6,.8,1.1,.8c.5,0,.9,-.3,1.2,-.8c.2,-.5,.3,-1.2,.3,-2.2c0,-1,-.1,-1.7,-.3,-2.2c-.3,-.5,-.7,-.7,-1.2,-.7Z" class="g6_218"/>
<path d="M198.9,159.7H549.8" class="g4_218"/>
<path d="M198.9,159.7h-3.4" class="g5_218"/>
<path d="M159.7,156.4v.9c-.2,-.1,-.5,-.2,-.7,-.3c-.3,0,-.5,0,-.8,0c-.6,0,-1.1,.2,-1.4,.6c-.4,.4,-.6,1.1,-.6,2c.2,-.3,.4,-.5,.7,-.7c.3,-.1,.6,-.2,1,-.2c.7,0,1.2,.2,1.7,.7c.4,.4,.6,1,.6,1.7c0,.8,-.2,1.4,-.7,1.8c-.4,.4,-1,.7,-1.7,.7c-.8,0,-1.5,-.3,-1.9,-1c-.4,-.6,-.7,-1.5,-.7,-2.7c0,-1.2,.3,-2.1,.8,-2.8c.6,-.6,1.3,-1,2.2,-1c.2,0,.5,.1,.7,.1c.3,.1,.5,.1,.8,.2Zm-1.9,3.1c-.4,0,-.8,.1,-1,.4c-.3,.3,-.4,.7,-.4,1.2c0,.5,.1,1,.4,1.3c.2,.3,.6,.4,1,.4c.4,0,.8,-.1,1,-.4c.3,-.3,.4,-.8,.4,-1.3c0,-.5,-.1,-.9,-.4,-1.2c-.2,-.3,-.6,-.4,-1,-.4Z" class="g6_218"/>
<path d="M163.9,156.1c.8,0,1.4,.4,1.9,1c.4,.6,.6,1.5,.6,2.8c0,1.2,-.2,2.1,-.6,2.7c-.5,.7,-1.1,1,-1.9,1c-.8,0,-1.4,-.3,-1.8,-1c-.4,-.6,-.7,-1.5,-.7,-2.7c0,-1.3,.3,-2.2,.7,-2.8c.4,-.6,1,-1,1.8,-1Zm0,.8c-.5,0,-.9,.3,-1.1,.7c-.3,.5,-.4,1.3,-.4,2.3c0,.9,.1,1.7,.4,2.2c.2,.5,.6,.7,1.1,.7c.5,0,.9,-.2,1.2,-.7c.2,-.5,.3,-1.3,.3,-2.2c0,-1,-.1,-1.8,-.3,-2.3c-.3,-.4,-.7,-.7,-1.2,-.7Z" class="g6_218"/>
<path d="M170.2,156.1c.8,0,1.4,.4,1.8,1c.4,.6,.7,1.5,.7,2.8c0,1.2,-.3,2.1,-.7,2.7c-.4,.7,-1,1,-1.8,1c-.8,0,-1.4,-.3,-1.9,-1c-.4,-.6,-.6,-1.5,-.6,-2.7c0,-1.3,.2,-2.2,.6,-2.8c.5,-.6,1.1,-1,1.9,-1Zm0,.8c-.5,0,-.9,.3,-1.1,.7c-.3,.5,-.4,1.3,-.4,2.3c0,.9,.1,1.7,.4,2.2c.2,.5,.6,.7,1.1,.7c.5,0,.9,-.2,1.1,-.7c.3,-.5,.4,-1.3,.4,-2.2c0,-1,-.1,-1.8,-.4,-2.3c-.2,-.4,-.6,-.7,-1.1,-.7Z" class="g6_218"/>
<path d="M176.4,156.1c.8,0,1.4,.4,1.9,1c.4,.6,.6,1.5,.6,2.8c0,1.2,-.2,2.1,-.6,2.7c-.5,.7,-1.1,1,-1.9,1c-.8,0,-1.4,-.3,-1.8,-1c-.4,-.6,-.6,-1.5,-.6,-2.7c0,-1.3,.2,-2.2,.6,-2.8c.4,-.6,1,-1,1.8,-1Zm0,.8c-.5,0,-.8,.3,-1.1,.7c-.2,.5,-.4,1.3,-.4,2.3c0,.9,.2,1.7,.4,2.2c.3,.5,.6,.7,1.1,.7c.5,0,.9,-.2,1.2,-.7c.2,-.5,.3,-1.3,.3,-2.2c0,-1,-.1,-1.8,-.3,-2.3c-.3,-.4,-.7,-.7,-1.2,-.7Z" class="g6_218"/>
<path d="M182.7,156.1c.8,0,1.4,.4,1.8,1c.4,.6,.7,1.5,.7,2.8c0,1.2,-.3,2.1,-.7,2.7c-.4,.7,-1,1,-1.8,1c-.8,0,-1.4,-.3,-1.9,-1c-.4,-.6,-.6,-1.5,-.6,-2.7c0,-1.3,.2,-2.2,.6,-2.8c.5,-.6,1.1,-1,1.9,-1Zm0,.8c-.5,0,-.9,.3,-1.1,.7c-.3,.5,-.4,1.3,-.4,2.3c0,.9,.1,1.7,.4,2.2c.2,.5,.6,.7,1.1,.7c.5,0,.9,-.2,1.1,-.7c.3,-.5,.4,-1.3,.4,-2.2c0,-1,-.1,-1.8,-.4,-2.3c-.2,-.4,-.6,-.7,-1.1,-.7Z" class="g6_218"/>
<path d="M188.9,156.1c.8,0,1.4,.4,1.9,1c.4,.6,.6,1.5,.6,2.8c0,1.2,-.2,2.1,-.6,2.7c-.5,.7,-1.1,1,-1.9,1c-.8,0,-1.4,-.3,-1.8,-1c-.4,-.6,-.6,-1.5,-.6,-2.7c0,-1.3,.2,-2.2,.6,-2.8c.4,-.6,1,-1,1.8,-1Zm0,.8c-.5,0,-.8,.3,-1.1,.7c-.2,.5,-.4,1.3,-.4,2.3c0,.9,.2,1.7,.4,2.2c.3,.5,.6,.7,1.1,.7c.5,0,.9,-.2,1.2,-.7c.2,-.5,.3,-1.3,.3,-2.2c0,-1,-.1,-1.8,-.3,-2.3c-.3,-.4,-.7,-.7,-1.2,-.7Z" class="g6_218"/>
<path d="M198.9,128.3H549.8" class="g4_218"/>
<path d="M198.9,128.3h-3.4" class="g5_218"/>
<path d="M155.4,124.9H160v.4l-2.6,6.8h-1.1l2.5,-6.4h-3.4v-.8Z" class="g6_218"/>
<path d="M163.9,124.8c.8,0,1.4,.3,1.9,.9c.4,.7,.6,1.6,.6,2.8c0,1.2,-.2,2.1,-.6,2.8c-.5,.6,-1.1,.9,-1.9,.9c-.8,0,-1.4,-.3,-1.8,-.9c-.4,-.7,-.7,-1.6,-.7,-2.8c0,-1.2,.3,-2.1,.7,-2.8c.4,-.6,1,-.9,1.8,-.9Zm0,.8c-.5,0,-.9,.2,-1.1,.7c-.3,.5,-.4,1.2,-.4,2.2c0,1,.1,1.7,.4,2.2c.2,.5,.6,.7,1.1,.7c.5,0,.9,-.2,1.2,-.7c.2,-.5,.3,-1.2,.3,-2.2c0,-1,-.1,-1.7,-.3,-2.2c-.3,-.5,-.7,-.7,-1.2,-.7Z" class="g6_218"/>
<path d="M170.2,124.8c.8,0,1.4,.3,1.8,.9c.4,.7,.7,1.6,.7,2.8c0,1.2,-.3,2.1,-.7,2.8c-.4,.6,-1,.9,-1.8,.9c-.8,0,-1.4,-.3,-1.9,-.9c-.4,-.7,-.6,-1.6,-.6,-2.8c0,-1.2,.2,-2.1,.6,-2.8c.5,-.6,1.1,-.9,1.9,-.9Zm0,.8c-.5,0,-.9,.2,-1.1,.7c-.3,.5,-.4,1.2,-.4,2.2c0,1,.1,1.7,.4,2.2c.2,.5,.6,.7,1.1,.7c.5,0,.9,-.2,1.1,-.7c.3,-.5,.4,-1.2,.4,-2.2c0,-1,-.1,-1.7,-.4,-2.2c-.2,-.5,-.6,-.7,-1.1,-.7Z" class="g6_218"/>
<path d="M176.4,124.8c.8,0,1.4,.3,1.9,.9c.4,.7,.6,1.6,.6,2.8c0,1.2,-.2,2.1,-.6,2.8c-.5,.6,-1.1,.9,-1.9,.9c-.8,0,-1.4,-.3,-1.8,-.9c-.4,-.7,-.6,-1.6,-.6,-2.8c0,-1.2,.2,-2.1,.6,-2.8c.4,-.6,1,-.9,1.8,-.9Zm0,.8c-.5,0,-.8,.2,-1.1,.7c-.2,.5,-.4,1.2,-.4,2.2c0,1,.2,1.7,.4,2.2c.3,.5,.6,.7,1.1,.7c.5,0,.9,-.2,1.2,-.7c.2,-.5,.3,-1.2,.3,-2.2c0,-1,-.1,-1.7,-.3,-2.2c-.3,-.5,-.7,-.7,-1.2,-.7Z" class="g6_218"/>
<path d="M182.7,124.8c.8,0,1.4,.3,1.8,.9c.4,.7,.7,1.6,.7,2.8c0,1.2,-.3,2.1,-.7,2.8c-.4,.6,-1,.9,-1.8,.9c-.8,0,-1.4,-.3,-1.9,-.9c-.4,-.7,-.6,-1.6,-.6,-2.8c0,-1.2,.2,-2.1,.6,-2.8c.5,-.6,1.1,-.9,1.9,-.9Zm0,.8c-.5,0,-.9,.2,-1.1,.7c-.3,.5,-.4,1.2,-.4,2.2c0,1,.1,1.7,.4,2.2c.2,.5,.6,.7,1.1,.7c.5,0,.9,-.2,1.1,-.7c.3,-.5,.4,-1.2,.4,-2.2c0,-1,-.1,-1.7,-.4,-2.2c-.2,-.5,-.6,-.7,-1.1,-.7Z" class="g6_218"/>
<path d="M188.9,124.8c.8,0,1.4,.3,1.9,.9c.4,.7,.6,1.6,.6,2.8c0,1.2,-.2,2.1,-.6,2.8c-.5,.6,-1.1,.9,-1.9,.9c-.8,0,-1.4,-.3,-1.8,-.9c-.4,-.7,-.6,-1.6,-.6,-2.8c0,-1.2,.2,-2.1,.6,-2.8c.4,-.6,1,-.9,1.8,-.9Zm0,.8c-.5,0,-.8,.2,-1.1,.7c-.2,.5,-.4,1.2,-.4,2.2c0,1,.2,1.7,.4,2.2c.3,.5,.6,.7,1.1,.7c.5,0,.9,-.2,1.2,-.7c.2,-.5,.3,-1.2,.3,-2.2c0,-1,-.1,-1.7,-.3,-2.2c-.3,-.5,-.7,-.7,-1.2,-.7Z" class="g6_218"/>
<path d="M149.1,228.7c.6,.3,1,.5,1.2,.7c.2,.3,.3,.6,.3,1v.7h-.7v-.5c0,-.3,-.1,-.5,-.2,-.6c-.1,-.1,-.4,-.3,-.8,-.4l-.4,-.2l-5.3,2.2v-1l4.2,-1.6l-4.2,-1.7v-.9l5.9,2.3Z" class="g6_218"/>
<path d="M214.9,347.8l52.6,-.1l16.7,-.2c50.3,-1.2,95.8,-6.6,136.4,-38.7l4.8,-3.9l4.7,-4.1c47.9,-43.7,77,-114,98.1,-173.7L533,112.8l.9,-2.7" class="g7_218"/>
<path d="M198.9,359.7V98.2M549.8,359.7V98.2M198.9,359.7H549.8M198.9,98.2H549.8" class="g8_218"/>
</svg>