<?xml version="1.0" encoding="UTF-8" standalone="no"?>
<!DOCTYPE svg PUBLIC "-//W3C//DTD SVG 1.1//EN"
"http://www.w3.org/Graphics/SVG/1.1/DTD/svg11.dtd">
<svg viewBox="0 0 811 1017" version="1.1" xmlns="http://www.w3.org/2000/svg" xmlns:xlink="http://www.w3.org/1999/xlink">
<defs>
<style type="text/css"><![CDATA[
.g0_195{
fill: #0E0E0E;
}
]]></style>
</defs>
<path d="M380.8,897.1l-.1,.2h8.4l1,-2.8h-.4c-.5,1,-1.2,2.1,-2.5,2.3c-.4,.1,-.9,.2,-1.4,.2c-.7,0,-1.2,-.1,-1.4,-.3c-.3,-.1,-.5,-.5,-.5,-.9c0,-.2,.1,-.4,.1,-.7l.8,-3.1h1.1c.8,0,1,.4,1,1.3c0,.2,0,.4,0,.7h.4l.8,-4h-.4c-.2,.3,-.3,.5,-.4,.8c-.3,.5,-.7,.8,-1.5,.8H385l1.1,-4.3h1.7c.3,0,.6,0,.8,0c.9,.3,1.3,1.4,1.6,2.4h.3v-2.8h-7.3v.3c.4,0,.7,.1,.9,.2c.2,.1,.3,.4,.3,.7c0,.1,0,.2,0,.4c0,.2,-.1,.4,-.1,.6l-1.7,6.2c-.1,.3,-.1,.6,-.2,.8c-.2,.4,-.5,.7,-.8,.8c-.2,.1,-.5,.2,-.8,.2Z" class="g0_195"/>
<path d="M396.4,895.4H404v-.8h-7.6Zm0,-3H404v-.9h-7.6Z" class="g0_195"/>
<path d="M419.6,879h.3l1.5,-6c.1,-.1,.2,-.3,.2,-.4c.2,-.3,.4,-.7,.6,-.9c.1,0,.4,-.1,.5,-.1l.1,-.1h-2.3v.1c.2,.1,.4,.1,.6,.3c.1,.2,.1,.6,.1,.9c0,.1,0,.2,0,.3l-1.1,4v.1l-2.5,-5.7h-2v.1c.4,.1,.6,.1,.7,.2c.2,.3,.4,.7,.4,1c0,.1,0,.2,-.1,.3l-1.1,4.5c-.1,.3,-.4,.7,-.6,.9c-.3,.2,-.7,.4,-1,.4v.1h2.8v-.1c-.3,0,-.6,-.1,-.7,-.2c-.2,-.2,-.3,-.5,-.3,-.8c0,-.1,0,-.3,0,-.4l1.2,-4.4v-.2l2.7,6.1Z" class="g0_195"/>
<path d="M427.2,898.4h-.4c-.5,3.2,-1.7,5,-3.5,5H411.9L420,893l-6.9,-10.2h9.3c1.9,0,3,1.1,3.5,4.4h.3l-.1,-5.2H410.5l7.9,11.4l-9,11.5h17.5l.3,-6.5Z" class="g0_195"/>
<path d="M413.4,908.3c0,-.3,-.2,-.6,-.5,-.6c-.3,0,-.6,.3,-.6,.6c0,.3,.3,.5,.6,.5c.3,0,.5,-.2,.5,-.5Zm-2,6.8c1,0,1.5,-.9,1.7,-1.5l-.2,-.1c-.1,.3,-.5,1.1,-1,1.1c-.1,0,-.2,-.2,-.2,-.3c0,-.2,.1,-.6,.2,-.8l.7,-2c.1,-.3,.2,-.5,.2,-.7c0,-.3,0,-.5,-.4,-.5c-.7,0,-1.5,.8,-1.7,1.3l.2,.1c.1,-.2,.5,-.8,.8,-.8c.2,0,.2,.1,.2,.2c0,.2,-.1,.5,-.2,.7l-.7,2.1c-.1,.2,-.1,.5,-.1,.6c0,.4,.1,.6,.5,.6Z" class="g0_195"/>
<path d="M414.7,913.6h5.5V913h-5.5Zm0,-2.2h5.5v-.6h-5.5Z" class="g0_195"/>
<path d="M422.1,907.9v.2c.3,0,.8,0,1,.1c.3,.2,.3,.3,.3,.7v4.8c0,.2,0,.4,-.1,.6c0,.4,-.6,.5,-1.1,.5v.2h3.4v-.2c-.4,0,-.9,0,-1.1,-.2c-.1,-.2,-.2,-.6,-.2,-1v-6.2c-.5,.2,-1.5,.5,-2.2,.5Z" class="g0_195"/>
<path d="M432.6,900.1h.9V886.7h-.9Z" class="g0_195"/>
<path d="M435.9,900.1c-.4,0,-.4,-.2,-.5,-.5c-.1,-.3,-.2,-.5,-.5,-.5c-.3,0,-.4,.2,-.4,.4c0,.6,.8,.9,1.3,.9c.8,0,.9,-.2,1.3,-.8c.2,-.3,.4,-.7,.6,-1.2c.2,-.5,.5,-1.2,.7,-2l1.3,-5.1H441l.1,-.4h-1.3c.3,-1.1,.8,-3.1,1.2,-3.7c.1,-.3,.3,-.5,.7,-.5c.3,0,.4,.2,.5,.4c.1,.3,.2,.6,.5,.6c.2,0,.4,-.2,.4,-.5c0,-.6,-.8,-.9,-1.3,-.9c-1.8,.1,-2.6,3.1,-3,4.6h-1.2l-.1,.4h1.3l-2,7.3c-.1,.4,-.4,1.5,-.9,1.5Z" class="g0_195"/>
<path d="M451.3,886.6c-2.1,1.4,-3.7,3.8,-3.7,6.8c0,2.8,1.6,5.6,3.7,6.9l.1,-.3c-1.9,-1.5,-2.5,-3.3,-2.5,-6.6c0,-3.3,.6,-5,2.5,-6.6l-.1,-.2Z" class="g0_195"/>
<path d="M459.7,891.7c0,-.5,-.5,-.9,-1,-.9c-.3,0,-.6,.1,-1,.3c-.3,.3,-.6,.6,-.8,.9c0,-.6,-.4,-1.2,-1.1,-1.2c-1.1,0,-2.1,1.2,-2.4,2l.2,.1c.4,-.5,1.1,-1.7,2,-1.7c.3,0,.4,.5,.4,1c0,.2,-.1,.6,-.2,1.1l-.4,1.2c-.1,.6,-.4,1.4,-.7,1.8c-.2,.2,-.4,.6,-.8,.6c-.4,0,-.7,-.1,-.6,-.5c.1,-.3,0,-.7,-.4,-.7c-.5,0,-.6,.3,-.6,.8c0,.5,.4,.9,1,.9c1,0,1.8,-.8,2.1,-1.4h.1c.1,.8,.5,1.4,1.3,1.4c1.2,0,2,-1.1,2.5,-1.8l-.2,-.2c-.5,.6,-1.2,1.6,-2,1.6c-.4,0,-.7,-.6,-.7,-1.2c0,-.3,.1,-.8,.2,-1.3l.2,-.7c.1,-.6,.4,-1.3,.6,-1.7c.2,-.2,.6,-.9,1,-.9c.4,0,.3,.3,.3,.6c0,.4,.2,.6,.5,.6c.4,0,.5,-.3,.5,-.7Z" class="g0_195"/>
<path d="M462.8,892.8c0,-.3,-.2,-.6,-.5,-.6c-.3,0,-.6,.3,-.6,.6c0,.3,.3,.6,.6,.6c.2,0,.5,-.3,.5,-.6Zm-2,6.8c.9,0,1.4,-.8,1.7,-1.4l-.2,-.1c-.1,.2,-.5,1,-1,1c-.1,0,-.2,-.1,-.2,-.3c0,-.2,.1,-.6,.2,-.8l.7,-2c.1,-.3,.1,-.5,.1,-.6c0,-.4,0,-.6,-.3,-.6c-.7,0,-1.5,.8,-1.8,1.3l.2,.1c.2,-.2,.6,-.8,.9,-.8c.1,0,.2,.2,.2,.3c0,.1,-.1,.4,-.2,.6l-.7,2.1c-.1,.2,-.1,.5,-.1,.6c0,.4,.1,.6,.5,.6Z" class="g0_195"/>
<path d="M464.9,886.6l-.1,.2c1.9,1.6,2.5,3.3,2.5,6.6c0,3.3,-.6,5.1,-2.5,6.6l.2,.3c2,-1.3,3.6,-4.1,3.6,-6.9c0,-3,-1.5,-5.4,-3.7,-6.8Z" class="g0_195"/>
<path d="M474.3,893.9h7.6V893h-7.6Z" class="g0_195"/>
<path d="M485.1,899.4c0,.6,.5,1,1.1,1c.5,0,.8,-.2,1.3,-.6c.8,-.7,2.1,-2.2,2.8,-3.4c.4,-.6,.8,-1.2,1.1,-1.8c.4,-.8,1.1,-2.1,1.1,-2.9c0,-.3,-.1,-.5,-.2,-.6c0,-.2,-.2,-.3,-.4,-.3c-.2,0,-.3,.1,-.5,.2c-.1,.1,-.2,.3,-.2,.6c0,.5,.2,1,.2,1.4c0,.6,-.2,1.1,-.4,1.6c-.3,.4,-.5,.8,-.8,1.4h-.1l-.3,-1.9c-.1,-.6,-.3,-1.7,-.4,-2.1c-.2,-.7,-.4,-1.2,-1.4,-1.2c-1.1,0,-1.3,1.8,-1.6,2.5l.3,.2c.2,-.6,.6,-2.4,1.1,-2.4c.3,0,.5,1.1,.5,1.3c.1,.3,.2,.7,.3,1.4l.6,3.5c-.4,.8,-1.2,1.6,-1.8,2.1c-.2,.2,-.6,.3,-.7,.3c-.1,0,-.2,-.1,-.3,-.2c-.2,-.2,-.2,-.7,-.6,-.7c-.4,0,-.7,.3,-.7,.6Z" class="g0_195"/>
<path d="M495.7,892.8c0,-.3,-.3,-.6,-.6,-.6c-.3,0,-.5,.3,-.5,.6c0,.3,.2,.6,.5,.6c.3,0,.6,-.3,.6,-.6Zm-2.1,6.8c1,0,1.5,-.8,1.7,-1.4l-.1,-.1c-.2,.2,-.6,1,-1,1c-.2,0,-.3,-.1,-.3,-.3c0,-.2,.2,-.6,.2,-.8l.7,-2c.1,-.3,.2,-.5,.2,-.6c0,-.4,0,-.6,-.4,-.6c-.7,0,-1.5,.8,-1.7,1.3l.2,.1c.1,-.2,.5,-.8,.8,-.8c.2,0,.2,.2,.2,.3c0,.1,-.1,.4,-.1,.6l-.8,2.1c-.1,.2,-.1,.5,-.1,.6c0,.4,.1,.6,.5,.6Z" class="g0_195"/>
<path d="M498.8,900.1h.8V886.7h-.8Z" class="g0_195"/>
</svg>