<?xml version="1.0" encoding="UTF-8" standalone="no"?>
<!DOCTYPE svg PUBLIC "-//W3C//DTD SVG 1.1//EN"
"http://www.w3.org/Graphics/SVG/1.1/DTD/svg11.dtd">
<svg viewBox="0 0 811 1017" version="1.1" xmlns="http://www.w3.org/2000/svg" xmlns:xlink="http://www.w3.org/1999/xlink">
<defs>
<clipPath id="c0_59"><path d="M156.1,558.2v-330h440v330Z"/></clipPath>
<style type="text/css"><![CDATA[
.g0_59{
fill: #0E0E0E;
}
]]></style>
</defs>
<image clip-path="url(#c0_59)" preserveAspectRatio="none" x="156" y="228" width="440" height="330" xlink:href="img/1.jpg"/>
<path d="M387.1,638.1h-1.2v-8.5h1.2Zm-1.8,.6h2.4v-4h1.1l2.9,4h3.1l-3.2,-4.2c1.3,-.4,1.9,-1.4,1.9,-2.7c0,-2.1,-1.6,-2.9,-3.5,-2.9h-4.7v9.8Zm8.2,-.6h-1.4l-2.5,-3.4c.4,0,.9,0,1.3,0l2.6,3.4ZM390.9,634c-.3,0,-.6,.1,-.9,.1h-2.3v-4.5h2.4c.2,0,.5,0,.8,.1V634Zm.6,-4.2c.9,.4,1.4,1,1.4,2c0,1,-.5,1.8,-1.4,2.2v-4.2Z" class="g0_59"/>
<path d="M587.7,916.2h-1.2v-8.6h1.2Zm-1.8,.6h2.4v-4h1.1l2.9,4h3.1l-3.2,-4.2c1.3,-.4,1.9,-1.4,1.9,-2.7c0,-2.1,-1.6,-2.9,-3.5,-2.9h-4.7v9.8Zm8.2,-.6h-1.4l-2.5,-3.4c.4,0,.9,0,1.3,-.1l2.6,3.5Zm-2.6,-4.1c-.3,0,-.6,0,-.9,0h-2.3v-4.5h2.4c.2,0,.5,.1,.8,.1v4.4Zm.6,-4.3c.9,.4,1.4,1.1,1.4,2.1c0,.9,-.5,1.8,-1.4,2.1v-4.2Z" class="g0_59"/>
</svg>