<?xml version="1.0" encoding="UTF-8" standalone="no"?>
<!DOCTYPE svg PUBLIC "-//W3C//DTD SVG 1.1//EN"
"http://www.w3.org/Graphics/SVG/1.1/DTD/svg11.dtd">
<svg viewBox="0 0 811 1017" version="1.1" xmlns="http://www.w3.org/2000/svg" xmlns:xlink="http://www.w3.org/1999/xlink">
<defs>
<clipPath id="c0_425"><path d="M457.6,204.6V82.5H631.3V204.6Z"/></clipPath>
<style type="text/css"><![CDATA[
.g0_425{
fill: #000;
}
.g1_425{
fill: #FFF;
}
.g2_425{
fill: #838485;
}
.g3_425{
fill: #8F8F8F;
}
.g4_425{
fill: #999898;
}
.g5_425{
fill: #A0A1A0;
}
.g6_425{
fill: #AAABAB;
}
.g7_425{
fill: #B4B4B5;
}
.g8_425{
fill: #BDBDBD;
}
.g9_425{
fill: #C6C5C4;
}
.ga_425{
fill: #CDCCCB;
}
.gb_425{
fill: #D5D5D3;
}
.gc_425{
fill: #DBDBDB;
}
.gd_425{
fill: #E3E2E2;
}
.ge_425{
fill: #E9E9E9;
}
.gf_425{
fill: #EDEFF0;
}
.gg_425{
fill: #F3F6F7;
}
.gh_425{
fill: #F8F8F7;
}
.gi_425{
fill: #F9FBFB;
}
.gj_425{
fill: none;
stroke: #040504;
stroke-width: 0.609;
stroke-linejoin: round;
}
.gk_425{
fill: #040504;
}
.gl_425{
fill: none;
stroke: #040504;
stroke-width: 0.609;
stroke-linecap: square;
}
.gm_425{
fill: none;
stroke: #040504;
stroke-width: 2.284;
stroke-linejoin: round;
}
]]></style>
</defs>
<path clip-path="url(#c0_425)" d="M463.5,200.8h.3V82.5h-.3Z" class="g0_425"/>
<path d="M549.1,337.9h.4V219.5h-.4Z" class="g0_425"/>
<path d="M171.2,683.7H443.1V411.8H171.2Z" class="g1_425"/>
<path d="M263.2,683.7h10.7l-2.1,-.2l-2.1,-.2l-2.2,-.3l-2.1,-.2l-2.2,.7l-.4,.2h.4Z" class="g2_425"/>
<path d="M173.3,461l.7,-2.1c2.1,-5.1,.1,-11.6,-.5,-17.1l-.2,-1.1l-.1,1.1c-.2,5.6,-.9,11.5,-.1,17.1l.2,2.1Z" class="g2_425"/>
<path d="M256.8,683.7h6l.4,-.2l2.2,-.7l2.1,.2l2.2,.3l2.1,.2l2.1,.2h15l-3.5,-2.1c-3.5,-2.1,-7.6,-1.6,-11.5,-1.9l-2.1,-.3h-2.1c-3.9,-.6,-8.6,-.1,-11.8,2.2l-1.1,.8l-1.6,1.3h1.6Z" class="g3_425"/>
<path d="M173.3,461l-.2,-2.1c-.8,-5.6,-.1,-11.5,.1,-17.1l.1,-1.1l.2,1.1c.6,5.5,2.6,12,.5,17.1l-.7,2.1Zm0,8.1l1.1,-1.6l.8,-2.2c1.2,-2.9,2.3,-9.7,2.1,-12.8l-.2,-2.2l-.2,-2.1c-.3,-5,-.3,-10.2,-2.1,-15l-.8,-2.1l-.7,-1.1l-.2,1.1c-1.3,10.8,-1.7,25.6,-.1,36.4l.3,1.6Z" class="g3_425"/>
<path d="M173,467.5l-.3,-2.2c-1.2,-10.3,-.9,-23.9,.4,-34.2l.2,-1.1l.7,1.1l.8,2.1c1.8,4.8,1.8,10,2.1,15l.2,2.1l.2,2.2c.2,3.1,-.9,9.9,-2.1,12.8l-.8,2.2l-1.1,1.6l-.3,-1.6ZM248.2,673v-4.3l-2.1,-2.1V643H244l-2.2,-2.1h-8.5l-2.2,-2.1v-6.5L229,630.2V604.5h-4.3l-2.2,-2.1l-2.1,-2.2l-2.1,-2.1l-2.2,-2.2v-4.2L214,589.5V581l-2.2,-2.2v-30l-6.4,-6.4v-2.1H199l-2.1,-2.2V525.3l-2.2,-2.2V488.9h-8.5l-4.3,-4.3l-2.2,-2.1v-60l2.2,-2.1H244l2.1,2.1v2.1l2.1,2.2v8.5h34.3l2.1,2.2h12.9l2.1,2.1v2.2l2.2,2.1h2.1l2.2,2.2l4.2,4.2v2.2h30l2.2,2.1H351l2.2,2.2h4.2l2.2,2.1l2.1,2.1l2.2,2.2v2.1l2.1,2.2v2.1h27.8l2.2,2.2h4.3l2.1,2.1h4.3l2.1,2.1l2.2,2.2l2.1,2.1l2.2,2.2v4.2h12.8l2.1,2.2h2.2l2.1,2.1v45l-2.1,2.1h-2.2l-2.1,2.2h-15v4.2l-2.1,2.2l-2.2,2.1l-2.1,2.2h-2.2l-4.2,4.3v4.2l2.1,2.2v10.7h12.9l2.1,2.1v2.2l2.1,2.1h2.2l2.1,2.2l4.3,4.2v2.2l2.1,2.1l2.2,2.2v2.1l2.1,2.1v21.5l-4.3,4.2l-2.1,2.2h-8.6l-2.1,2.1v12.9l-2.1,2.1h-8.6l-2.2,2.1h-2.1v4.3l-2.1,2.2v6.4l-2.2,2.1H385.3l-2.2,2.2v8.5l-2.1,2.2l-2.1,2.1l-2.2,2.2H355.3L353.2,673L351,670.9l-2.1,-2.2v-2.1h-2.2l-6.4,-6.4h-2.1L336,658h-2.1l-2.2,-2.1V643H321l-2.1,-2.1h-4.3l-4.3,4.3v2.1l-2.1,2.2l-2.1,2.1l-2.2,2.1h-4.3v15l-2.1,2.2V673l-2.1,2.2h-45L248.2,673Zm-74.9,10.7h81.9l1.6,-1.3l1.1,-.8c3.2,-2.3,7.9,-2.8,11.8,-2.2h2.1l2.1,.3c3.9,.3,8,-.2,11.5,1.9l3.5,2.1H443.1V411.8H171.2V683.7h2.1Z" class="g4_425"/>
<path d="M262.5,670.9l-1.4,-.6l-2.1,-.8l-1.5,-.8l-.7,-.5l-1.6,-1.6l-.5,-.5l-1.1,-1.6l-.8,-2.2l-.3,-.7l-.5,-1.4l-.7,-2.2l-.6,-2.1l-.3,-1.4c-.9,-3.9,-1.1,-7.6,-1.3,-11.5l-.2,-2.1l-.7,-1.9l-.2,-.2l-1.9,-1.9c-3.9,-1.7,-4.7,-1.4,-7.7,-4.6l-.9,-1l-.7,-1.1c-1.8,-4,-2.2,-6.4,-3.2,-10.7l-.2,-2.1l-.1,-1.1l-.2,-1.1l-.1,-2.1l-.2,-2.2l-.1,-2.1c-.4,-4.3,-.8,-8.5,-1,-12.9l-.1,-2.1l-.1,-2.1l-.3,-2.2l-.1,-.2L229,587.6l-.7,-.2l-1.5,-.6l-2.1,-.9l-1.1,-.7l-1.1,-.8l-1.6,-1.3c-5.3,-7,-4.6,-19.3,-5.4,-27.8l-.1,-2.2l-.1,-2.1l-.1,-2.2l-.1,-2.1l-.2,-2.2v-2.1l-.1,-2.1l-.5,-2.2l-.3,-.7l-2.2,-1l-1.4,-.4l-.7,-.2l-2.1,-.7l-2.2,-1.3l-2.1,-1.7c-2,-2.6,-3.3,-5.7,-3.6,-9l-.3,-2.1l-.1,-2.1l-.2,-2.2l-.1,-2.1c-.2,-4.3,-.6,-8.6,-.5,-12.9l-.1,-2.1l-.1,-2.2c-.3,-4.6,.2,-8.2,-.9,-12.8l-.4,-2.1l-.1,-1.1l-1.1,-1.1l-1.1,-1.4l-1.1,-.7l-1,-.7L191.1,476l-.7,-.7l-1,-1.4l-1.1,-2.1l-2.1,-2.2l-1.3,-2.1l-.9,-2.2l-.6,-2.1c-.9,-4.3,-1.6,-8.5,-1.2,-12.9l.2,-2.1l.1,-2.1l.1,-2.2c.7,-10.5,2.7,-17.8,14.3,-20l2.1,-.2l2.1,-.2l2.2,-.3l2.1,-.2l2.2,-.2h2.1l2.1,-.2l2.2,-.1l2.1,.3c3.5,.4,7.5,.9,10.7,2.5l2.2,1.1l.7,.4c2.8,2,6.3,3.4,8.4,6.4l1.2,2.1l.4,.5l1.7,1.7l.4,.1c5.1,1.2,7.7,1.2,12.9,1.3h2.1l2.2,.1c4.2,.1,8.6,.5,12.8,.5l2.1,.1l2.2,.2l2.1,.2l2.2,.1l2.1,.2l2.1,.6l2.2,.6l.7,.3l1.4,.6l2.2,1.2l.4,.3l1.7,2.2l1.2,2.1l1,2.1l.4,2.2l1.2,2.1l.5,.3l2.1,.4l2.2,.1l2.1,.1l2.2,.1l2.1,.1l2.1,.1c9.9,1.1,23.7,-.4,32.2,4.8l.5,.4l1.6,1.6l.4,.6l1.1,2.1l.6,1.5l.3,.7l.6,2.1l1.3,1.6l.8,.6l1.3,.2l2.2,.1l2.1,.1l2.1,.2l2.2,.1l2.1,.3c4.4,.5,8.5,.7,12.9,.9l2.1,.2l2.2,.2l2.1,.2l2.1,.4c3.5,.2,6.9,1.5,9.7,3.5l1,.8l1.3,1.3l.9,1.4l.3,.8l1,2.1l.6,2.1l.2,.3l1.7,1.9l.5,.1l2.1,.2l2.1,.2l2.2,.2l2.1,.2c12.6,2,24,4.6,21.9,20.5v2.1l-.2,2.2l-.3,2.1c-.7,5.2,.5,5.6,-2.5,10.7l-1.7,2.2l-2.2,2.1l-2.1,1.3l-2.2,.8l-2.1,.8l-2.1,1.4l-2.2,.6l-2.1,.5l-2.2,.4l-2.1,.3l-2.2,.2l-1,.1l-1.1,.2l-2.1,.5l-1.2,1.5l-.4,2.1l-.4,2.1c-1,6,-5.2,8.8,-10.9,9.5l-2.1,.3l-2.2,.7l-.2,.3l.1,2.1l.1,.1l2.2,.7l2.1,.3l2.2,.4l2.1,.6l2.1,1.1l1.3,1.1l.9,1.1l.7,1l.8,2.2l.6,2.1l.4,2.1l.3,2.2l1.2,2.1l.3,.3l2.1,.5l2.1,.3l2.2,.5l1.6,.6l.5,.2l2.2,1l1,.9l1.1,1.3l.5,.9c2.4,4.1,3.1,14.9,3.8,19.9l1.1,1.5l1,2.1l1.5,2.1l-1.5,2.2l-1,2.1l-1.1,1.5l-.1,.7l-.4,2.1l-.3,2.2l-.6,2.1l-.7,2.1l-1.3,2.2l-.9,2.1l-.6,2.2l-1.1,2.1l-.4,.7c-2.5,4.6,-6.5,4.8,-10.7,6.9l-.7,1l-1.5,1.7l-.4,.4l-.8,2.1c-1.4,4.6,-2.6,8.2,-7.3,10.1l-1.5,.6l-.7,.3c-6.1,1.6,-9.2,3.5,-16,4l-1.1,.6l-2.1,1.6l-2.2,.7l-1.1,-.7l-1,-.6l-2.2,-1L361,658l-1.4,-.1l-2.2,-.3l-2.1,-.3l-2.1,-.3l-2.2,-.3l-2.1,-.4l-2.2,-.3l-.7,-.1l-1.4,-.4l-2.1,-.7l-2.2,-.8l-.4,-.3l-1.7,-1.4l-.6,-.7l-1.1,-2.1l-.5,-1.1l-.4,-1.1l-.4,-2.1l-.5,-2.2l-.6,-2.1l-.2,-.2l-2.2,-1.3l-2.1,-.4l-1.4,-.2l-.7,-.2l-2.2,-.5l-2.1,-.9l-.9,-.6L321,635.5l-.8,-1l-1.1,-2.2l-.2,-.5l-.5,-1.6l-.5,-2.1l-.3,-2.2l-.6,-2.1l-.2,-.3l-2.2,-.1l-.3,.4l-.6,2.1c-.7,6.5,-2.6,11.8,-9.8,13l-2.1,.4l-2.2,.4l-1.4,1.2l-.6,2.1l-.1,1.1l-.1,1.1l-.2,2.1l-.3,2.2l-.4,2.1l-.5,2.1l-.6,1.8l-.3,.4l-1.3,2.1l-.6,2.2l-2.1,4.3l-2.2,2.1l-2.1,1.7c-6.5,3.3,-14.2,2.2,-21.4,3.1l-2.2,-.3l-.7,-.2Zm-12.1,4.3h45l2.1,-2.2v-2.1l2.1,-2.2v-15h4.3l2.2,-2.1l2.1,-2.1l2.1,-2.2v-2.1l4.3,-4.3h4.3L321,643h10.7v12.9l2.2,2.1H336l2.2,2.2h2.1l6.4,6.4h2.2v2.1l2.1,2.2l2.2,2.1l2.1,2.2h21.4l2.2,-2.2l2.1,-2.1l2.1,-2.2v-8.5l2.2,-2.2h12.8l2.2,-2.1v-6.4l2.1,-2.2V643h2.1l2.2,-2.1h8.6l2.1,-2.1V625.9l2.1,-2.1h8.6l2.1,-2.2l4.3,-4.2V595.9l-2.1,-2.1v-2.1l-2.2,-2.2l-2.1,-2.1v-2.2l-6.4,-6.4h-2.2l-2.1,-2.1v-2.2l-2.1,-2.1H402.4V561.7l-2.1,-2.2v-4.2l4.2,-4.3h2.2l2.1,-2.2l2.2,-2.1l2.1,-2.2v-4.2h15l2.1,-2.2h2.2l2.1,-2.1V491l-2.1,-2.1h-2.2l-2.1,-2.2H415.3v-4.2l-2.2,-2.2L411,478.2L408.8,476l-2.1,-2.1h-4.3l-2.1,-2.1H396l-2.2,-2.2H366v-2.1l-2.1,-2.2v-2.1L361.7,461l-2.1,-2.1l-2.2,-2.1h-4.2L351,454.6h-8.5l-2.2,-2.1h-30v-2.2l-4.2,-4.2l-2.2,-2.2h-2.1l-2.2,-2.1v-2.2l-2.1,-2.1H284.6l-2.1,-2.2H248.2v-8.5l-2.1,-2.2v-2.1L244,420.4H181.9l-2.2,2.1v60l6.5,6.4h8.5v34.2l2.2,2.2v12.8l2.1,2.2h6.4v2.1l4.3,4.3l2.1,2.1v30L214,581v8.5l2.1,2.2v4.2l2.2,2.2l2.1,2.1l2.1,2.2l2.2,2.1H229v25.7l2.1,2.1v6.5l2.2,2.1h8.5L244,643h2.1v23.6l2.1,2.1V673l2.2,2.2Z" class="g5_425"/>
<path d="M262.4,666.6l-1.3,-.9l-1.4,-1.2l-.7,-.8l-1.3,-1.4l-.9,-1.3l-.5,-.8c-2,-3.7,-3.1,-4,-4.3,-8.6l-.5,-2.1l-.5,-2.2c-.5,-4.3,-.6,-6.4,-2.2,-10.7l-.6,-1.6l-.4,-.5l-1.7,-2.2L244,631.1c-2.2,-1.7,-4.7,-4.6,-5.5,-7.3l-1,-2.2l-.9,-2.1c-1.2,-4,-1.7,-8.7,-2.3,-12.9l-.3,-2.1l-.3,-2.1l-.3,-2.2l-.1,-2.1l-.3,-2.2l-.1,-2.1l-.2,-2.1l-.3,-2.2l-.7,-2.1l-.6,-1.7l-.5,-.5L229,583.6l-.9,-.5l-1.3,-.9c-3,-2.2,-5.3,-5.6,-6.4,-9.1l-.2,-.7l-.7,-2.2l-.4,-2.1l-.4,-2.1c-.4,-3.7,-1.1,-7.1,-1.3,-10.7l-.3,-2.2l-.3,-2.1c-.5,-4,-.2,-9.3,-1.3,-12.9l-.9,-2.1l-.6,-1.4l-1.2,-.8l-1,-.6l-2.1,-1l-.7,-.5l-1.4,-1.1l-1.3,-1c-1.7,-1.8,-4.1,-6.1,-4.2,-8.6l-.3,-2.1l-.4,-2.2c-.2,-3.6,-.9,-7.1,-1,-10.7l-.2,-2.1v-2.2l-.2,-2.1l-.1,-2.2c-.4,-3.8,0,-7.7,-.9,-11.5l-.3,-1.3l-.3,-2.1l-.4,-2.2l-.4,-2.1l-.3,-2.2l-.4,-2.1v-.5l-1.1,-1.6l-1.1,-.9l-2.1,-1.3l-2.2,-1.8l-.3,-.3l-1.8,-2.2L187,463.2l-.8,-2.2c-2.2,-6.3,-2.3,-6.1,-1.2,-12.8l.3,-2.1l.3,-2.2c.9,-4.7,.5,-6.4,3.5,-10.7l1.3,-1.5l.6,-.6l1.6,-1.4l1.3,-.8c2.2,-1.7,6.5,-2.2,9.4,-2.8l2.1,-.4l2.2,-.3l2.1,-.3l2.1,-.2l2.2,-.1l2.1,.5l2.2,.5l2.1,.6l1.1,.4l1,.4l2.2,1.2l.8,.5l1.3,.9l1.3,1.3l.9,1l.9,1.1l1.2,2.1l2.2,1.5l.8,.7c3.9,.6,7.7,1.4,11.6,2.1l.4,.1l2.1,.4c4.3,.1,8.6,.4,12.9,.7l2.1,.2l2.2,.2l2.1,.2l2.2,.1c4.3,.5,8.6,.8,12.8,1.8l2.1,1c3,1.3,7,5,8,8.2l.6,.9l.8,1.2l1.4,.6l2.1,.9l2.1,.4c11.5,1,23.1,1.3,34.3,4.2l1.1,.3l1,.5l2.2,1.1c2.5,1.9,4.6,4.1,5.9,7l.5,.5l1.4,1.7c3.8,1.8,8.1,1.4,12.2,2.1l1.4,.2l2.1,.3l2.2,.3l2.1,.4l2.2,.3l2.1,.2l2.1,.3l1.1,.1c3.3,.6,7.6,1,10.7,2.2l1.1,.4l2.1,1.2c3.3,2,4.8,3.6,6.7,6.9l1.9,1.9l.2,.3l1.9,.7l2.2,.8c3.7,.4,7,.9,10.7,1.8l2.1,.7l.7,.3c3.6,1.9,7.6,3.3,10.4,6.4l1.8,2.1l1.2,2.2l.5,2.1l-.3,2.1l-.2,2.2l-.4,2.1c-.7,3.6,-.7,7.4,-2.4,10.7l-.6,1.1l-.7,1.1c-2.9,3.1,-5.1,3.8,-7.8,7.3l-1.9,1.2l-.3,.2l-2.1,.9l-2.2,.7l-1.6,.4l-.5,.1l-2.2,.4l-2.1,.3l-2.1,.5l-1.3,.8l-.9,1l-1,1.2c-.9,3.6,-2.2,6.9,-5.4,9.2l-2.1,1.3l-.4,.2l-1.8,.7l-2.1,.7l-2.2,.7l-2.1,2.2l.2,2.1l1.9,1.9l.6,.2l1.6,.6l2.1,.6l2.2,1l2.1,1.3l1.1,.8l1,1.2l.6,1l1.3,2.1l.3,.9l.4,1.2l.5,2.2l1.2,1.9l.1,.2l2.1,2.2l2.1,.7c7.1,1.9,9.7,5.1,11.5,12.1l.5,2.2l.4,2.1l.5,2.1l.2,2.2c1.6,8.9,1.5,13,-1.9,21.4l-.5,.8l-.9,1.3l-1.2,1.5l-.7,.7l-1.2,2.1l-.3,.4l-1.2,1.8l-.9,1l-1.1,1.1l-1.1,.9l-1.7,1.2l-.4,.3l-2.1,1.4l-.3,.5l-1.4,2.1l-.5,.6l-1.4,1.6l-.7,.7l-1.4,1.4c-3.1,6.1,-5.1,8.4,-11.5,11.3l-2.1,1.4l-.3,.1c-7.3,3.4,-15.5,4.2,-23.3,2.4l-1,-.2l-1.1,-.2l-2.1,-.5l-2.2,-.4c-7.1,-1.6,-11.9,-4.2,-14,-11.8l-.8,-2.1l-.2,-.1l-2.1,-2l-2.2,-1.3l-2.1,-.6l-.7,-.3l-1.4,-.6l-2.2,-1.1l-.6,-.4l-1.5,-1.4l-.7,-.8l-1.3,-2.1l-.2,-.4l-.7,-1.7l-.6,-2.2l-.8,-1.8l-.1,-.3l-2,-2.1l-2.2,-.1l-2.1,2.2l-.8,2.1l-.6,2.2c-1.1,3.4,-3.8,6.9,-7.2,8.2l-.7,.3l-1.4,.6c-5.8,1.1,-5.4,5.4,-6.3,10.1l-.1,.6l-.4,1.6l-.8,2.1l-1,2.1l-1.5,2.2l-.6,.7l-1.9,1.4l-.3,.5l-1.2,1.7l-.9,1.3l-.9,.8l-1.3,1.1l-1.2,1.1l-.9,.6l-2.1,.6l-2.2,.4l-2.1,.2l-6.4,.8l-2.2,.2l-2.1,.2l-2.2,-.4l-.8,-.5Zm.8,4.5l2.2,.3l2.1,-.3c6.5,-.5,13.3,.2,19.3,-2.8l2.1,-1.7l2.2,-2.1l2.1,-4.3l.6,-2.2l1.3,-2.1l.3,-.4l.6,-1.8l.5,-2.1l.4,-2.1l.3,-2.2l.2,-2.1l.1,-1.1l.1,-1.1l.6,-2.1l1.4,-1.2l2.2,-.4l2.1,-.4c7.2,-1.2,9.1,-6.5,9.8,-13l.6,-2.1l.3,-.4l2.2,.1l.2,.3l.6,2.1l.3,2.2l.5,2.1l.5,1.6l.2,.5l1.1,2.2l.8,1l1.3,1.1l.9,.6l2.1,.9l2.2,.5l.7,.2l1.4,.2l2.1,.4l2.2,1.3l.2,.2l.6,2.1l.5,2.2l.4,2.1l.4,1.1l.5,1.1l1.1,2.1l.6,.7l1.7,1.4l.4,.3l2.2,.8l2.1,.7l1.4,.4l.7,.1l2.2,.3l2.1,.4l2.2,.3l2.1,.3l2.1,.3l2.2,.3l1.4,.1l.7,.6l2.2,1l1,.6l1.1,.7l2.2,-.7l2.1,-1.6l1.1,-.6c5.8,-.5,8.6,-1.7,13.9,-3.4l2.1,-.6l.7,-.3c5.1,-2,6.3,-3.5,8.2,-8.5l.6,-2.2l.8,-2.1l.4,-.4l1.5,-1.7l.7,-1l2.1,-.9l.7,-.3l1.4,-.6l2.2,-.8l1.1,-.7l1,-.9l1.3,-1.3l.9,-1.4l.4,-.7l1.1,-2.1l.6,-2.2l.9,-2.1l1.3,-2.2l.7,-2.1l.6,-2.1l.3,-2.2l.4,-2.1l.1,-.7l1.1,-1.5l1,-2.1l1.5,-2.2l-1.5,-2.1l-1,-2.1l-1.1,-1.5c-.7,-5,-1.4,-15.8,-3.8,-19.9l-.5,-.9L412,578.8l-1,-.9l-2.2,-1l-.5,-.2l-1.6,-.6l-2.2,-.5l-2.1,-.3l-2.1,-.5l-.3,-.3l-1.2,-2.1l-.3,-2.2l-.4,-2.1l-.6,-2.1l-.8,-2.2l-.7,-1l-.9,-1.1l-1.3,-1.1l-2.1,-1.1l-2.1,-.6l-2.2,-.4l-2.1,-.3l-2.2,-.7l-.1,-.1l-.1,-2.1l.2,-.3l2.2,-.7l2.1,-.3c5.7,-.7,9.9,-3.5,10.9,-9.5l.4,-2.1l.4,-2.1l1.2,-1.5l2.1,-.5l1.1,-.2l1,-.1l2.2,-.2l2.1,-.3l2.2,-.4l2.1,-.5l2.2,-.6l2.1,-1.4l2.1,-.8l2.2,-.8l2.1,-1.3l2.2,-2.1l1.7,-2.2c3,-5.1,1.8,-5.5,2.5,-10.7l.3,-2.1l.2,-2.2v-2.1c2.1,-15.9,-9.3,-18.5,-21.9,-20.5l-2.1,-.2l-2.2,-.2l-2.1,-.2l-2.1,-.2l-.5,-.1L398.1,487l-.2,-.3l-.6,-2.1l-1,-2.1l-.3,-.8l-.9,-1.4L393.8,479l-1,-.8c-2.8,-2,-6.2,-3.3,-9.7,-3.5l-2.1,-.4l-2.1,-.2l-2.2,-.2l-2.1,-.2c-4.4,-.2,-8.5,-.4,-12.9,-.9l-2.1,-.3l-2.2,-.1l-2.1,-.2l-2.1,-.1L351,472l-1.3,-.2l-.8,-.6l-1.3,-1.6l-.6,-2.1l-.3,-.7l-.6,-1.5L345,463.2l-.4,-.6L343,461l-.5,-.4c-8.5,-5.2,-22.3,-3.7,-32.2,-4.8l-2.1,-.1l-2.1,-.1l-2.2,-.1l-2.1,-.1l-2.2,-.1l-2.1,-.4l-.5,-.3l-1.2,-2.1l-.4,-2.2l-1,-2.1l-1.2,-2.1l-1.7,-2.2l-.4,-.3l-2.2,-1.2l-1.4,-.6l-.7,-.3l-2.2,-.6l-2.1,-.6l-2.1,-.2l-2.2,-.1l-2.1,-.2l-2.2,-.2l-2.1,-.1c-4.2,0,-8.6,-.4,-12.8,-.5l-2.2,-.1h-2.1c-5.2,-.1,-7.8,-.1,-12.9,-1.3l-.4,-.1l-1.7,-1.7l-.4,-.5l-1.2,-2.1c-2.1,-3,-5.6,-4.4,-8.4,-6.4l-.7,-.4l-2.2,-1.1c-3.2,-1.6,-7.2,-2.1,-10.7,-2.5l-2.1,-.3l-2.2,.1l-2.1,.2h-2.1l-2.2,.2l-2.1,.2l-2.2,.3l-2.1,.2l-2.1,.2c-11.6,2.2,-13.6,9.5,-14.3,20l-.1,2.2l-.1,2.1l-.2,2.1c-.4,4.4,.3,8.6,1.2,12.9l.6,2.1l.9,2.2l1.3,2.1l2.1,2.2l1.1,2.1l1,1.4l.7,.7l1.5,1.5l1,.7l1.1,.7l1.1,1.4l1.1,1.1l.1,1.1l.4,2.1c1.1,4.6,.6,8.2,.9,12.8l.1,2.2l.1,2.1c-.1,4.3,.3,8.6,.5,12.9l.1,2.1l.2,2.2l.1,2.1l.3,2.1c.3,3.3,1.6,6.4,3.6,9l2.1,1.7l2.2,1.3l2.1,.7l.7,.2l1.4,.4l2.2,1l.3,.7l.5,2.2l.1,2.1v2.1l.2,2.2l.1,2.1l.1,2.2l.1,2.1l.1,2.2c.8,8.5,.1,20.8,5.4,27.8l1.6,1.3l1.1,.8l1.1,.7l2.1,.9l1.5,.6l.7,.2l2.1,1.7l.1,.2l.3,2.2l.1,2.1l.1,2.1c.2,4.4,.6,8.6,1,12.9l.1,2.1l.2,2.2l.1,2.1l.2,1.1l.1,1.1l.2,2.1c1,4.3,1.4,6.7,3.2,10.7l.7,1.1l.9,1c3,3.2,3.8,2.9,7.7,4.6l1.9,1.9l.2,.2l.7,1.9l.2,2.1c.2,3.9,.4,7.6,1.3,11.5l.3,1.4l.6,2.1c.8,2.3,2.1,7.3,3.9,8.6l1.6,1.6l.7,.5l1.5,.8l2.1,.8l1.4,.6l.7,.2Z" class="g6_425"/>
<path d="M262.6,662.3L261.1,661l-.8,-.8L259,658.4l-.3,-.4l-1.9,-1.9c-5.4,-6.8,-4.5,-16.1,-8.1,-23.8l-.5,-1.3l-.5,-.8l-1.6,-2.1c-3.2,-3,-5.9,-6.6,-7.3,-10.7l-.8,-2.2l-.5,-1.6c-.8,-3.4,-1.5,-7.1,-2.1,-10.5l-.1,-.7l-.4,-2.2l-.3,-2.1l-.2,-2.2l-.3,-2.1l-.2,-2.1c-.4,-3.2,-1.8,-6.7,-2.8,-9.7l-1,-1L229,579.5c-2.2,-1.6,-4.6,-4.6,-5.7,-7.1l-.8,-2.2l-.7,-2.1l-.6,-2.1l-.5,-2.2c-.8,-3.5,-1.3,-7.1,-1.9,-10.7l-.3,-2.1l-.2,-1.5c-.7,-3.5,-.5,-8.2,-1.5,-11.4l-.7,-1.5l-.2,-.6l-.9,-2.2l-1,-2.1L211.8,530l-.6,-.4l-1.5,-1.2l-1.1,-1c-4,-4.7,-3.5,-4.7,-4.7,-10.7l-.5,-2.1l-.1,-1.1c-.6,-3.9,-1.2,-7.8,-1.4,-11.8l-.3,-2.1l-.2,-2.2l-.1,-2.1l-.2,-2.1c.1,-4.6,-1,-8.5,-1.8,-12.9l-.3,-1.7l-.1,-.4l-.3,-2.2l-.4,-2.1l-.3,-2.1l-.7,-2.2l-.3,-.8L195,467.5l-2.4,-2.2l-1.9,-2.1l-.3,-.3L189.3,461l-1,-1.7c-2.6,-6.3,-1.7,-4.6,-.8,-11.1l.5,-2.1l.3,-1.5l.2,-.7l.6,-2.1l.5,-2.2l.6,-2.1l.2,-.4l1.4,-1.8l.8,-.9l1.2,-1.2l.9,-.8l1.8,-1.3c3.5,-1.4,7.4,-2.4,11.1,-3.2l2.1,-.3l2.1,-.4l2.2,-.3l2.1,.7l2.2,.8l1,.5l1.1,.6l2.1,1.1l.7,.5l1.5,1.2l.9,.9l1.2,1.5l.5,.6l1.7,1.9l.2,.3l1.9,.7l2.2,.4l2.1,.4c2.9,.5,5.7,1.1,8.6,1.6l2.1,.4l2.1,.4c3.6,.1,7.2,.5,10.8,.9l2.1,.3l2.1,.2l2.2,.3l2.1,.3c4.1,.4,8.8,1.3,12.9,2.2l1.6,.5l.5,.2c2.5,1.2,5.4,3.8,6.8,6.2l1.8,2.1l2.1,1l2.2,.8l.7,.4l1.4,.5c10.6,1.6,21.6,2.2,32.1,4.9l2.1,.6l.9,.4l1.3,.6c2.7,1.6,4.9,3,6.6,5.8l2,1.9l.2,.3c3.6,1.3,6.6,2.7,10.5,2.8l2.1,.3l2.1,.3l2.2,.4l2.1,.4l2.2,.5l2.1,.5l2.2,.4l2.1,.4c4.5,.9,8.6,1.5,12.8,3.3l2.2,1.1l.3,.3c3.4,2.1,3.4,3.7,7.1,6.4l1.1,.4l2.2,.9l2.1,.7l.3,.1c3.2,1.3,7,1.3,10.4,2.6l2.2,.8l2.1,.9c2.5,1.3,6.4,4.5,8.6,6.4l1.6,2.2l.5,1l.5,1.1l-.5,2.1l-.5,2.2l-.4,2.1l-.4,2.2l-.6,2.1l-.2,1.1l-.3,1.1l-.6,2.1l-1.3,2.1l-1.8,2.2l-.3,.2c-1.8,3.7,-3.1,5.1,-6.4,7.2l-2.2,1l-.3,.1l-1.8,.7l-2.2,.6c-4.4,.6,-6.6,1.6,-9.3,5.2l-.9,2.1l-.5,.8c-1.5,2.9,-3.4,4.7,-6.4,6.2l-2.1,.9l-1.4,.7l-.8,.3l-1.9,1.8l-.2,.3l-1.8,1.9l.2,2.1l1.6,1.7l.5,.4l1.6,1.5l1.5,.7l.7,.3l2.1,1l1.4,.8l.8,.5l1.9,1.7l.2,.2l1.4,1.9l.7,1.3l.4,.8l.9,2.2l.9,1.4l.4,.7l1.7,1.8l.4,.4l1.8,1.8l.8,.3l1.3,.7l2.1,1l.9,.5l1.3,.8l1.4,1.3l.7,.8l1,1.3l1.2,2.2l.9,2.1l.7,2.2l.5,2.1l.5,2.1c1.4,7.3,3,12.2,-.3,19.3l-.2,.6l-.7,1.6l-1.3,2.1l-.1,.2l-1.6,1.9l-.6,.6l-2.1,1.6l-1.9,2.1l-.3,.3l-1.8,1.9l-.3,.2l-2.1,1.9l-1.2,2.1l-1,1.5l-.4,.7l-1.7,2.1l-2,2.2l-.2,.1l-2.1,1.8l-.2,.2c-3.2,4.9,-8,8.2,-12.6,11.4l-2.2,1.1l-.9,.3c-9.4,3,-9.1,2.5,-18.4,.8l-2.1,-.4l-1.3,-.4l-.8,-.2l-2.2,-.7l-2.1,-.7l-1.2,-.5l-1,-.4l-2.1,-1.4l-.5,-.3L342.5,648l-.6,-.7l-1.6,-2.1L339.2,643l-1,-2.1l-2.2,-2l-.1,-.1l-2,-1.9l-.4,-.3l-1.8,-1l-2.1,-1l-.3,-.1l-1.8,-1L326,632.3l-.7,-.5L324,630.2l-.8,-1.2l-.6,-.9l-.9,-2.2l-.7,-1.2l-.4,-.9L318.9,622l-.4,-.4l-1.7,-1.8l-2.2,-.1l-1.9,1.9l-.2,.3l-1.8,1.9c-1.6,3.4,-2.2,5.9,-5.1,8.5l-1.7,1.4l-1.3,.8l-.8,.4l-2.2,.9l-1,.8l-1.1,1l-.8,1.2l-1.3,2.1l-.5,2.1l-.5,2.2l-.6,2.1l-.6,1.9l-.1,.3c-1.7,4.1,-4.4,6.8,-8.5,8.5l-2.1,1.9l-.5,.3l-1.6,.9l-2.2,.4l-2.1,.5l-2.2,.3l-2.1,.5l-2.1,.3l-2.2,.4l-2.1,.2l-2.2,-.9l-.6,-.5Zm.6,4.8l2.2,.4l2.1,-.2l2.2,-.2l6.4,-.8l2.1,-.2l2.2,-.4l2.1,-.6l.9,-.6l1.2,-1.1l1.3,-1.1l.9,-.8l.9,-1.3l1.2,-1.7l.3,-.5l1.9,-1.4l.6,-.7l1.5,-2.2l1,-2.1l.8,-2.1l.4,-1.6l.1,-.6c.9,-4.7,.5,-9,6.3,-10.1l1.4,-.6l.7,-.3c3.4,-1.3,6.1,-4.8,7.2,-8.2l.6,-2.2l.8,-2.1l2.1,-2.2l2.2,.1l2,2.1l.1,.3l.8,1.8l.6,2.2l.7,1.7l.2,.4l1.3,2.1l.7,.8l1.5,1.4l.6,.4l2.2,1.1l1.4,.6l.7,.3l2.1,.6l2.2,1.3l2.1,2l.2,.1c2.1,7.1,5,11.6,12.7,13.3l2.1,.6l2.2,.5l2.1,.4l1.1,.2l1,.2l2.2,.3l2.1,.3l2.2,.3l2.1,.2l2.2,-.2l2.1,-.3l2.1,-.3l2.2,-.5l2.1,-.6l2.2,-.7l1.8,-.9l.3,-.1c5.4,-3.2,10.2,-5.1,12.8,-11.3l.8,-1.4l1.4,-1.4l.7,-.7l1.4,-1.6l.5,-.6l1.4,-2.1l.3,-.5l2.1,-1.4l.4,-.3l1.7,-1.2l1.1,-.9l1.1,-1.1l.9,-1l1.2,-1.8l.3,-.4l1.2,-2.1l.7,-.7l1.2,-1.5l.9,-1.3c3.2,-6.5,4.2,-12.9,2.8,-20.1l-.4,-2.1l-.2,-2.2l-.5,-2.1l-.4,-2.1C412.8,585,411.5,580.6,404.5,578l-2.1,-.6l-2.1,-.7c-6.3,-5.5,-2,-11.9,-12.9,-16l-2.1,-.6l-1.5,-.6l-.7,-.2l-1.9,-1.9l-.2,-2.1l2.1,-2.2l2.2,-.7l2.1,-.7l1.8,-.7l.4,-.2l2.1,-1.3c2.5,-1.8,3.8,-4.2,4.8,-7.1l.6,-2.1l1,-1.2l.9,-1l1.3,-.8l2.1,-.5l2.1,-.3l2.2,-.4l.5,-.1l1.6,-.4l2.2,-.7l2.1,-.9l.3,-.2l1.9,-1.2l.8,-.9l1.3,-1.6l.9,-.5l3.4,-2.9l1.4,-1.4c2.4,-3.1,2.8,-7,3.3,-10.7l.4,-2.2l.4,-2.1l.2,-2.2l.3,-2.1l-.5,-2.1L426,501.7c-1.9,-2.7,-5.5,-5.6,-8.6,-6.6l-2.1,-1.3l-1.5,-.6c-3.2,-1.3,-7.9,-2.1,-11.4,-2.5l-2.1,-.3l-2.2,-.8l-1.9,-.7l-.2,-.3c-3,-2.3,-2.9,-4.9,-6.4,-7.4l-1.3,-.9l-.9,-.5c-3.8,-2.6,-8.5,-2.9,-12.8,-3.6l-1.1,-.2l-1.1,-.1l-2.1,-.3l-2.1,-.2l-2.2,-.3l-2.1,-.4l-2.2,-.3l-2.1,-.3c-3.5,-.6,-7.5,-.6,-10.7,-1.3l-2.2,-.7l-.7,-.3c-3.3,-3.5,-2.6,-5.2,-7.1,-8.6l-.7,-.5L336,461.5l-1,-.5l-1.1,-.3c-3.7,-1.4,-8.9,-1.8,-12.9,-2.3l-2.1,-.2l-2.1,-.2c-4.6,-.5,-9.4,-1,-14,-1.2l-1,-.1l-2.2,-.2l-2.1,-.4l-2.1,-.9l-1.4,-.6l-.8,-1.2c-2.4,-4,-1.8,-4.1,-5.7,-7.3l-.7,-.6l-2.2,-1.2c-2.9,-1.8,-9.2,-2.1,-12.8,-2.5l-2.1,-.3l-2.2,-.1l-2.1,-.2l-2.2,-.2c-4.2,-.4,-8.5,-.6,-12.8,-.9h-2.2l-2.1,-.4c-4,-.8,-7.9,-1.6,-12,-2.2l-.8,-.7l-2.2,-1.5l-1.2,-2.1l-.9,-1.1l-.9,-1l-1.3,-1.3l-1.3,-.9l-.8,-.5l-2.2,-1.2l-1,-.4c-4.9,-1.5,-6.7,-2.5,-11.8,-1.7l-2.1,.3l-2.2,.3c-2.6,.5,-8.5,1.3,-10.7,2.7l-.8,.5l-1.3,.8l-1.6,1.4l-.6,.6c-2.5,2.7,-3.8,5.3,-4.2,9l-.2,1.1l-.4,2.1c-.6,5.4,-2.4,9.9,-.2,15l.8,2.1l.8,2.2l1.3,2.1l1.8,2.2l.3,.3l2.2,1.8l2.1,1.3l1.1,.9l1.1,1.6v.5l.4,2.1l.3,2.2l.4,2.1l.4,2.2c1,5,1.3,7.5,1.4,12.8l.1,2.1l.1,2.2l.2,2.1v2.2c.3,3.6,.6,7,1.1,10.7l.1,2.1l.4,2.2c.3,3.9,1.8,7.7,4.5,10.7l1.3,1l1.4,1.1l.7,.5l2.1,1l1,.6l1.2,.8l.6,1.4l.9,2.1c1.1,3.2,.6,7.3,1.2,10.7l.1,2.2l.3,2.1c.4,4.4,.9,8.5,1.6,12.9l.4,2.1l.4,2.1l.7,2.2l.2,.7c.6,2.3,3.1,6.4,5,7.9l1.4,1.2l1.3,.9c4.1,1.8,4.5,6.8,4.8,10.7l.1,2.1l.3,2.2l.1,2.1l.3,2.2l.3,2.1l.3,2.1c.5,3.5,.9,7.4,1.8,10.8l.5,2.1l.9,2.1c2,4.6,2.5,6.2,6.5,9.5l2.1,1.2l1.7,2.2l.4,.5l.6,1.6c1.6,4.3,1.7,6.4,2.2,10.7l.5,2.2l.5,2.1c1.2,4.6,2.7,5.4,4.8,9.4l.9,1.3l1.3,1.4l.7,.8l1.4,1.2l1.3,.9l.8,.5Z" class="g7_425"/>
<path d="M262.3,658l-1.2,-.8l-1.6,-1.3l-.5,-.6l-1.4,-1.6l-.8,-1.1c-3.6,-6.1,-4,-13.4,-6.7,-20.3l-.7,-2.1l-.8,-2.1l-.4,-1.1l-.7,-1.1l-1.4,-2.1l-1.9,-2.2l-.2,-.2l-1.4,-1.9l-.8,-1.4c-1.8,-3.4,-2.4,-5.7,-3.4,-9.3l-.5,-2.2l-.4,-1.2l-.2,-.9l-.4,-2.1l-.5,-2.2l-.4,-2.1l-.3,-2.2l-.3,-2.1l-.3,-2.1l-.4,-2.2l-.5,-2.1l-.7,-2.2c-.7,-2.3,-1.5,-4.6,-2.4,-6.9l-1.3,-1.6l-.8,-1.1l-1,-1.1c-4.4,-5.2,-6.2,-15.4,-7.6,-21.9l-.3,-1.6l-.4,-2.2l-.4,-2.1l-.3,-2.2l-.2,-2.1l-.2,-2.1l-.3,-1.3l-.3,-.9l-.8,-2.1l-.8,-2.2l-.3,-.5l-.7,-1.6l-1,-2.1l-.4,-.8l-1.6,-1.4l-.6,-.6l-1.7,-1.5l-.4,-.5l-1.2,-1.7l-.9,-1.7l-.2,-.4c-2.8,-9.2,-3.8,-18.3,-4.8,-27.8l-.1,-2.2l-.2,-2.1l-.4,-2.2l-.4,-2.1l-.4,-1.7v-.4l-.5,-2.2l-.4,-2.1l-.3,-2.2l-.4,-2.1l-.4,-2.2l-.1,-.2l-.6,-1.9l-.8,-2.1l-.7,-1.8l-.5,-.4l-1.7,-1.7l-.4,-.4l-1.7,-1.9l-.2,-.3L191,458.9l-.6,-.9l-.6,-1.2l-.9,-2.2l.2,-2.1l.6,-2.2l.4,-2.1c.9,-2.8,1.4,-5.3,2.5,-8l.2,-.6l1.1,-2.1l.8,-1.1l1.1,-1.1l1.1,-.8l2.1,-1.1l.4,-.2l1.7,-.7l2.2,-.7l2.1,-.7l2.2,-.6l2.1,-.6l2.1,-.4l2.2,-.3l2.1,.8l2.2,1.1c2.7,1.6,4.2,2.8,6.4,5.1l1.2,1.3l.9,.4l2.2,.8l2.1,.8l.9,.1l3.4,.7l2.1,.4l2.2,.4l2.1,.4c2.8,.5,5.9,1.4,8.6,1.4l2.1,.3l2.2,.2l2.1,.3l1.4,.2l.8,.1c7,1.1,17.1,2.4,23.5,5.3l1.4,1l.7,.7l1.4,1.5c3,3.4,2.5,2.2,6.8,4.3l.4,.1l2.2,.8c2.7,1.4,5.5,1.4,8.5,1.8l2.2,.3l2.1,.3l2.1,.3l2.2,.3l1.6,.3l.5,.1l2.2,.5c7,1.6,15.2,2.3,20.3,8l1.1,1l1.3,1.1c9.1,4.5,14.9,3.8,24,6.5l.4,.1l2.1,.6l2.2,.5l2.1,.5l1.6,.4l2.7,.7l2.1,.6l2.2,.9l2.1,.7l2.1,1c2.2,1.3,3.8,3.4,6,4.7l.5,.2l2.1,.8l2.1,.9c7.9,3.4,14.9,2.8,21.5,8.6l.2,.2l1.9,2.1l2.1,1.9l.3,.3l1,2.1l-.6,2.1l-.4,2.2l-.3,.7c-1.1,4,-2.1,8.1,-3,12.1l-1,2.2l-.2,.4c-1.7,3,-5.4,6,-8.6,7.1l-2.2,.8l-.9,.2l-1.2,.4l-2.1,.6c-4.7,2.6,-6,3.4,-8.6,8l-1.3,1.7l-.8,.9c-2.9,2.9,-5.9,3,-8.6,6l-1.7,1.7l-.4,.5l-1.5,1.7l.1,2.1l2.1,2.1l1.4,1.4l.9,.8l1.2,1.1l2,1l.2,.1l2.1,1.3l1,.8l1.2,.9l1,1.2l1.1,1.5l.4,.6l1.1,2.2l.6,.8l.9,1.3L396,576l.6,.7l1.5,1.6l.5,.5l1.7,1.6l1,.6l1.1,.6l2.1,1.3l.3,.2l1.9,1.7l.3,.4l1.7,2.2l.1,.2l1.2,1.9l.7,2.2l.3,.7l.4,1.4l.6,2.1l.5,2.2l.5,2.1l.1,.6l.3,1.6l.4,2.1l.3,2.1l-.2,2.2l-.7,2.1l-.1,.3l-.6,1.9l-1,2.1l-.5,1.1l-.7,1c-5,7.6,-8.2,4.3,-12.2,13.3l-1.1,1.7l-1,1.5l-.6,.7l-1.6,1.8l-.3,.3l-1.8,1.7c-4.8,3.3,-8.4,8.6,-12.8,11.8l-2.2,1.3l-.5,.2c-9.7,4.6,-11,3.2,-20.9,.8l-2.1,-.7l-.3,-.1l-1.9,-.7l-2.1,-.9l-1,-.5l-1.2,-.8L345,647.3l-.4,-.3l-1.7,-1.8l-.4,-.7l-1,-1.5l-1.2,-1.9l-.1,-.2l-2,-2l-.2,-.1l-2,-1.9l-.2,-.3L333.9,635l-.9,-.5l-1.3,-.9l-2.1,-1.1l-.2,-.2l-1.9,-1.4l-.7,-.7l-1.5,-1.7l-.3,-.4l-1.3,-2.2l-.5,-.8l-.7,-1.3L321,622.2l-.5,-.6L318.9,620l-.5,-.5l-1.6,-1.6l-2.2,-.1l-1.7,1.7l-.4,.4l-1.8,1.7c-2.3,2.1,-2.8,4.7,-4.6,7l-1.4,1.6l-.8,.8c-2.2,2.1,-5.3,2.8,-7.1,5.6l-1.4,2.2l-1.3,2.1l-.6,2.1l-.3,1.3c-.8,3,-2.9,7.4,-5.3,9.4l-1.1,.9l-1.9,1.3c-3.7,2.5,-8.4,1.6,-13.1,3l-2.1,.4l-2.2,.4l-2.1,.5L263.2,659l-.9,-1Zm.9,4.8l2.2,.9l2.1,-.2l2.2,-.4l2.1,-.3l2.1,-.5l2.2,-.3l2.1,-.5l2.2,-.4l1.6,-.9l.5,-.3l2.1,-1.9c4.1,-1.7,6.8,-4.4,8.5,-8.5l.1,-.3l.6,-1.9l.6,-2.1l.5,-2.2l.5,-2.1l1.3,-2.1l.8,-1.2l1.1,-1l1,-.8l2.2,-.9l.8,-.4l1.3,-.8l1.7,-1.4c2.9,-2.6,3.5,-5.1,5.1,-8.5l1.8,-1.9l.2,-.3l1.9,-1.9l2.2,.1l1.7,1.8l.4,.4l1.7,1.8l.4,.9l.7,1.2l.9,2.2l.6,.9l.8,1.2l1.3,1.6l.7,.5l1.5,1.2l1.8,1l.3,.1l2.1,.9l1.8,1.1l.4,.3l2,1.9l.1,.1l2.2,2l1,2.1l1.1,2.2l1.6,2.1l.6,.7l1.6,1.5l.5,.3l2.1,1.3l1,.5l1.2,.5l2.1,.7l2.2,.7l.8,.2l1.3,.4l2.1,.4l2.2,.5l2.1,.3l2.2,.3l1.6,.3l.5,.1l.7,-.1l1.5,-.2l2.1,-.4l2.1,-.5l2.2,-.6l1.2,-.5l.9,-.3l2.2,-1.1l1.1,-.7l1,-.6l1.8,-1.5l.3,-.4l2.2,-1.6l.3,-.2l1.8,-1.4l.7,-.7l1.5,-1.8l.2,-.4l1.7,-2.1l.2,-.2l2.1,-1.8l.2,-.1l2,-2.2l1.7,-2.1l.4,-.7l1,-1.5l1.2,-2.1l2.1,-1.9l.3,-.2l1.8,-1.9l.3,-.3l1.9,-2.1l2.1,-1.6l.6,-.6l1.6,-1.9l.1,-.2l1.3,-2.2l.7,-1.5c3.2,-8.9,2.4,-8.8,.9,-17.7l-.4,-2.2l-.5,-2.1l-.5,-2.1l-.7,-2.2l-.9,-2.1l-1.2,-2.2l-1,-1.3l-.7,-.8l-1.4,-1.3l-1.3,-.8l-.9,-.5l-2.1,-1l-1.3,-.7l-.8,-.3l-1.8,-1.8l-.4,-.4l-1.7,-1.8l-.4,-.7l-.9,-1.4l-.9,-2.2l-.4,-.8l-.7,-1.3l-1.4,-1.9l-.2,-.2l-1.9,-1.7l-.8,-.5l-1.4,-.8l-2.1,-1l-.7,-.3l-1.5,-.7l-1.6,-1.5l-.5,-.4l-1.6,-1.7l-.2,-2.1l1.8,-1.9l.2,-.3l1.9,-1.8l.8,-.3l1.4,-.7l2.1,-.9c2.1,-1,4.4,-2.8,5.6,-4.9l.8,-1.3l.5,-.8l.9,-2.1l.8,-1l1,-1.2l1.1,-.7l2.2,-1.4l2.1,-.5l2.1,-.4l2.2,-.6l1.8,-.7l.3,-.1c2.8,-1,6.3,-3.6,7.6,-6.3l1,-1.9l.3,-.2c3.8,-3.7,3.5,-6.2,4.8,-10.7l.4,-2.2l.4,-2.1l.5,-2.2l.4,-2.1l-.4,-1.1l-.5,-1c-1.9,-3.3,-5.3,-5,-8,-7.3l-2.2,-1.3l-2.1,-.9c-3.7,-1.5,-6.8,-2,-10.7,-2.7l-1.9,-.7l-.3,-.1l-2.1,-.7l-2.2,-.9c-2.7,-.9,-4.4,-3.6,-6.4,-5.5l-1.8,-1.3l-.3,-.3c-3.9,-2.3,-8.5,-3.1,-12.9,-4l-2.1,-.4l-2.1,-.4L366,477l-2.1,-.5l-2.2,-.5l-2.1,-.4l-2.2,-.4l-2.1,-.3c-4.5,-.5,-6.5,-.7,-10.7,-2.4l-1.9,-.8l-.2,-.2l-2,-1.9l-.2,-.3l-1.4,-1.8l-.7,-.7l-1.9,-1.5l-.3,-.2l-2.1,-1.3l-1.3,-.6l-.9,-.4c-9.8,-2.9,-21.8,-4,-32.1,-5l-2.1,-.5l-1.4,-.5l-.7,-.4l-2.2,-.8l-2.1,-1c-2.6,-3,-3.1,-4.6,-6.5,-7l-2.1,-1.3l-.5,-.2c-3.6,-1.2,-8.5,-1.9,-12.3,-2.5l-2.2,-.2l-2.1,-.3l-2.2,-.3l-2.1,-.2c-3.6,-.5,-7.1,-.8,-10.7,-1.1l-2.2,-.1l-2.1,-.4c-3.6,-.6,-7.1,-1.4,-10.7,-2l-2.1,-.4l-2.2,-.4l-1.9,-.7l-.2,-.3l-1.7,-1.9l-.5,-.6l-1.2,-1.5l-.9,-.9l-1.5,-1.2l-.7,-.5l-2.1,-1.1l-1.1,-.6l-1,-.5l-2.2,-.8l-2.1,-.7l-2.2,.3l-2.1,.3l-2.1,.4c-3.7,.8,-7.6,1.8,-11.1,3.2l-1.8,1.3l-.9,.8l-1.2,1.2l-.8,.9l-1.4,1.8l-.2,.4l-.6,2.1l-.5,2.2l-.6,2.1l-.2,.7l-.3,1.5l-.5,2.1c-.9,6.5,-1.8,4.8,.8,11.1l1,1.7l1.1,1.9l.3,.3l1.9,2.1l2.4,2.2l1.9,1.3l.3,.8l.7,2.1l.3,2.2l.4,2.1l.3,2.2l.1,.4l.3,1.7c.8,4.4,1.9,8.3,1.8,12.9l.2,2.1l.1,2.1l.2,2.2l.3,2.1c.2,4,.8,7.9,1.4,11.8l.1,1.1l.4,2.1c1.3,6,.8,6,4.8,10.7l1.1,1l1.5,1.2l.6,.4l2.2,1.7l1,2.1l.9,2.2l.2,.6l.7,1.5c1,3.2,.8,7.9,1.5,11.4l.2,1.5l.3,2.1c.6,3.6,1.1,7.2,1.9,10.7l.5,2.2l.6,2.1l.7,2.1l.8,2.2c1.1,2.5,3.5,5.5,5.7,7.1l1.1,1.5l1,1c1,3,2.4,6.5,2.8,9.7l.2,2.1l.3,2.1l.2,2.2l.3,2.1l.4,2.2l.1,.7c.6,3.4,1.3,7.1,2.1,10.5l.5,1.6l.8,2.1c1.4,4.2,4.1,7.8,7.3,10.8l1.6,2.1l.5,.8l.5,1.3c3.9,8.4,2.5,19.3,10,25.7l.3,.4l1.3,1.8l.8,.8l1.5,1.3l.6,.5Z" class="g8_425"/>
<path d="M262.5,655.9l-1.4,-1.2l-.9,-1L259,652.3l-.6,-.7c-3.6,-5.5,-4.2,-11.1,-6.2,-17.1l-.7,-2.2l-.7,-2.1l-.4,-1.3l-.3,-.8l-.7,-2.2l-.9,-2.1l-.3,-.7l-1,-1.5l-1.1,-1.5l-.5,-.6l-1.5,-2.1l-.1,-.3l-1.1,-1.9l-.9,-2.1l-.2,-.3l-.7,-1.9l-.8,-2.1c-2.6,-7.6,-3.2,-13.8,-4.9,-21.4l-.6,-2.2l-.6,-2.1c-1.4,-6.3,-5.3,-11.4,-8,-17.1l-.8,-2.2l-.7,-1.8l-.1,-.3l-.7,-2.2l-.5,-2.1l-.6,-2.1c-2.2,-6.7,-2.2,-14.2,-4.5,-20l-.6,-1.5l-.9,-2.1l-.7,-1.6l-.3,-.5l-1,-2.2L214,526l-.7,-.7l-1.5,-1.6l-.5,-.6L210.1,521l-.4,-.9l-.5,-1.2l-.6,-2.2l-.6,-2.1l-.4,-1.6l-.2,-.6l-.5,-2.1l-.5,-2.2C205,501,204.3,493.9,203.3,486.7l-.4,-2.1l-.5,-2.1c-1.7,-7.6,-2,-16.5,-7.7,-22.4l-.9,-1.2L192.6,457l-.2,-.2l-1.1,-2.2l.2,-2.1l.6,-2.2c1.1,-3.6,2.2,-7.4,4.1,-10.7l.7,-1.3l.7,-.8c3.7,-2.4,7.9,-3.8,12.1,-5.2l2.1,-.6l2.2,-.3l2.1,1l1.4,.8l.8,.5l2.1,1.6c4.7,5.8,20.6,6.9,27.8,8.8l2.2,.3l2.1,.3l2.2,.2c4.3,.7,8.5,1.6,12.8,2.4l3.8,.9c3.3,1,8.5,2,11.2,4.1l.2,.2l1.9,1.7l.4,.4l1.8,.9l2.1,1c8.7,4.5,18.6,4.2,27.9,6.9l2.1,.5l2.1,.5l2.2,.7c3.1,1,7.8,2.2,10.2,4.5l.5,.3l2.1,1.7l.2,.2l2,.9l2.1,.8l1,.4l1.2,.4l2.1,.8l2.1,.6l1,.3l1.2,.4l2.1,.4l2.2,.4l2.1,.4l2.1,.5l.4,.1l1.8,.5c4.1,1,6.5,2.4,10.7,3.4l1.3,.4l.8,.2c3.8,1.1,7.3,2.8,10.7,4.6l2.2,1.4l.2,.2l1.9,.8c8.2,3.9,19.1,5.1,25.7,10.3l1.7,1.7l.5,.5l1.3,1.7l.8,2.1c-2.7,12.3,1.2,19.2,-12,25.7l-.9,.4l-2.1,.7l-2.1,.7c-3.5,1.8,-6.7,3.6,-9.1,6.8l-1.5,2.1l-.1,.2c-2.3,3.2,-5.8,4.1,-8.6,6.9l-1.5,1.5l-.6,.6l-1.5,1.5l-.7,.8l-1.1,1.4l.1,2.1l1,1.1l1,1l1.2,1.2c5.1,5.7,8.9,5.2,12.8,12.1l1.2,1.7l.9,1.2l.9,1l1.3,1.4l2.1,2.2l.7,.7l1.5,1.3l1.3,.8l.8,.5l2,1.6l.1,.2l1.9,2l.3,.3l1.3,1.8l.8,1.9l.1,.3l.8,2.1l.7,2.1l.6,2.2l.5,2.1l.5,2.2l.5,2.1l.4,2.1l-.4,2.2l-.7,2.1l-.8,2l-.1,.2l-1.2,2.1l-.9,1.4l-.5,.8l-1.6,1.7l-.4,.4l-1.8,1.5l-.9,.6l-1.2,.7l-2.1,1.3l-.2,.2l-1.2,2.1l-.8,1.4l-.4,.8l-1.3,2.1l-.4,.6l-1.1,1.5l-1.1,1.4l-.7,.8l-1.4,1.4l-.8,.7l-1.3,1.2l-1.2,1l-1,.7l-2.1,1.4l-2.2,2.1l-1.5,2.2l-.6,.6l-1.5,1.5l-.6,.6l-2.2,1.6l-2.1,1.1l-2,1l-.2,.1l-2.1,.8l-2.1,.7l-2.2,.2l-2.1,-.4l-2.2,-.4l-2.1,-.6l-1.4,-.4l-.8,-.2l-2.1,-.7l-2.1,-.8l-1.1,-.4L351,649l-2.1,-1.1l-.8,-.6l-1.4,-1l-1.1,-1.1l-1,-1.1l-.9,-1.1l-1.2,-1.7l-.3,-.4L340.3,639l-.2,-.2l-1.9,-1.9l-.3,-.3L336,635l-.5,-.5l-1.6,-1.3c-8.8,-5.4,-6.7,-6.9,-12.9,-13.1l-.6,-.6l-1.5,-1.4L316.8,616l-2.2,-.1l-1.6,1.5l-.5,.5l-1.7,1.6c-3,2.8,-4.3,5.3,-6.6,8.6l-.3,.3l-1.9,1.8c-4.1,2.7,-5.5,4.2,-8,8.6l-.8,1.5l-.3,.6l-.7,2.1l-.8,2.2c-1.4,3.4,-3.2,6.3,-6.3,8.5l-.5,.4l-2.1,1.3c-4,1,-10.6,1.1,-15,1.6l-2.1,.2l-2.2,-.8l-.7,-.5Zm.7,3.1l2.2,1.2l2.1,-.5l2.2,-.4l2.1,-.4c4.5,-1.4,9.3,-.5,12.8,-2.9l.3,-.1l1.9,-1.3c3,-2.1,5,-6,6.1,-9.4l.3,-.9l.3,-1.3l.6,-2.1l1.3,-2.1c1.8,-3.3,3.6,-4.7,6.8,-6.5l1.7,-1.3l.8,-.8c2.8,-2.7,3.2,-6,6,-8.6l1.8,-1.7l.4,-.4l1.7,-1.7l2.2,.1l1.6,1.6l.5,.5l1.6,1.6l.5,.6l1.5,1.6l.7,1.3l.5,.8l1.3,2.2l.3,.4l1.5,1.7l.7,.7l1.9,1.4l.2,.2l2.1,1.1l1.3,.9l.9,.5l1.9,1.6l.2,.3l2,1.9l.2,.1l2,2l.1,.2l1.2,1.9l1,1.5l.4,.7l1.7,1.8l.4,.3l1.7,1.4l1.2,.8l1,.5l2.1,.9l1.9,.7l.3,.1l2.1,.7l2.1,.6l2.2,.5l1.3,.2l.8,.2l2.2,.4l2.1,.4l2.2,-.2l2.1,-.6l.6,-.2l1.5,-.4l2.2,-.9l1.6,-.8l.5,-.2c5.2,-2.4,9.4,-9.3,14.5,-12.6l.5,-.5l1.8,-1.7l.3,-.3l1.6,-1.8l.6,-.7l1,-1.5l1.1,-1.7l.3,-.4l1.1,-2.1l.8,-1.5l.6,-.7l1.5,-1.5l.7,-.6l1.4,-.8l2,-1.4l.2,-.1l2,-2l.1,-.2l1.5,-1.9l.7,-1.1c4.6,-8.9,3,-11.2,1,-20.4l-.6,-2.1l-.4,-1.4l-.3,-.7l-.7,-2.2l-1.2,-1.9l-.1,-.2L407,585.2l-.3,-.4l-1.9,-1.7l-.3,-.2l-2.1,-1.3l-1.1,-.6l-1,-.6l-1.7,-1.6l-.5,-.5l-1.5,-1.6L396,576l-1.3,-1.5l-.9,-1.3l-.6,-.8l-1.1,-2.2l-.4,-.6l-1.1,-1.5l-1,-1.1l-1.2,-1l-1,-.8l-2.1,-1.3l-.2,-.1l-2,-1l-1.2,-1.1l-.9,-.8l-1.4,-1.4l-2.1,-2.1l-.1,-2.1l1.5,-1.7l.4,-.5l1.7,-1.7c2.4,-2.7,4.2,-2.6,7,-4.7l1.6,-1.3l.8,-.9c3.2,-3.8,2.6,-5.6,7.7,-8.5l2.2,-1.2l2.1,-.6l1.2,-.4l.9,-.2c4,-1.3,6.9,-2.9,9.6,-6.2l1.2,-1.7l.2,-.4l1,-2.2l.6,-2.1l.3,-2.1l.6,-2.2l.6,-2.1l.5,-2.2l.4,-1.4l.3,-.7l.4,-2.2l.6,-2.1l-1,-2.1l-.3,-.3l-2.1,-1.9l-1.9,-2.1l-.2,-.2c-6.4,-5.7,-13.2,-5.2,-20.7,-8.4l-.8,-.2l-2.1,-.9l-2.1,-.8l-.5,-.2l-1.7,-1.3l-1.2,-.9l-.9,-.9l-1.6,-1.2l-.6,-.4c-3.3,-1.6,-7,-2.9,-10.7,-3.7l-.5,-.2l-1.6,-.4l-2.1,-.5l-2.2,-.5l-2.1,-.6c-7.8,-2.6,-13.8,-1.9,-21.4,-5.3l-2.2,-.9l-.8,-.3l-1.3,-1.2c-2.2,-2.1,-3.7,-3.5,-6.5,-5.1l-.5,-.2l-1.6,-.5c-2.8,-1,-5.7,-1.7,-8.6,-2.4l-2.1,-.4l-2.1,-.4l-2.2,-.4l-.5,-.2l-1.6,-.3l-2.2,-.3l-2.1,-.3l-2.1,-.3l-2.2,-.3l-2.1,-.3l-2.2,-.2l-2.1,-.5l-2.1,-.8c-2.4,-.8,-5.1,-2,-7.4,-3.1l-1.2,-1.3l-.8,-.8L284.6,451c-3.3,-4,-18.2,-5.7,-23.5,-6.7L259,444l-.8,-.1l-1.4,-.2l-2.1,-.3c-8.2,-.6,-15.5,-2.5,-23.6,-3.9l-2.1,-.8l-2.2,-.8l-.9,-.4c-1.7,-1.9,-3.4,-3.7,-5.5,-5.1l-2.1,-1.3L216.1,430l-2.1,-.8l-2.2,.3l-2.1,.4l-2.1,.6l-2.2,.6l-2.1,.7l-2.2,.7l-1.7,.7l-.4,.2l-2.1,1.1l-1.1,.8l-1.1,1.1l-.8,1.1l-1.1,2.1l-.2,.6l-.6,1.6l-.7,2.1l-.5,2.2l-.4,1l-.3,1.1l-.4,2.1c-1.4,5,-1,4.4,1.3,8.6l1.4,2.1l.2,.3l1.7,1.9c5.8,4.2,5.3,15,7.2,21.4l.4,2.1l.4,2.2l.2,2.1l.1,2.2c.9,8.7,1.8,17.2,4.2,25.7l.6,2.1l.2,.4l.9,1.7c1.3,2.3,3.6,3.9,5.5,5.7l.4,.8l1,2.1c1,2.1,2.3,5.2,2.9,7.3l.3,1.3l.2,2.1l.2,2.1l.3,2.2l.4,2.1l.4,2.2l.3,1.6c1.6,7.2,2.7,13.8,6.4,20.4l1.2,1.5l1,1.1l.8,1.1l1.3,1.6l.2,.5l.8,2.2l.7,2.1l.5,1.3l.2,.8l.7,2.2c1,3.3,1.2,7.2,1.8,10.7l.4,2.1l.5,2.2l.4,2.1l.2,.9l.4,1.2l.5,2.2l.6,2.1l.7,2.2l.7,2.1l1.1,2.2l.3,.7l.8,1.4c2.1,3.2,3.4,3.6,5.6,7.5l.4,1.1l.8,2.1l.7,2.1c2.9,7.1,3.2,15.5,7.5,21.4l1.4,1.6l.5,.6l1.6,1.3l1.2,.8l.9,1Z" class="g9_425"/>
<path d="M262.6,653.7l-1.5,-1.5l-.5,-.6l-1.5,-2.1l-.1,-.2c-3.6,-5.3,-4.6,-13,-6.7,-19.1l-.8,-2.1l-.6,-2.2c-2,-6.7,-5.2,-9.1,-7.8,-15l-.9,-2.1l-.4,-.9l-.4,-1.3l-.8,-2.1c-2.4,-7.1,-2.9,-14.3,-5.1,-21.4l-.1,-.3l-.5,-1.8c-2.2,-7.1,-3.9,-10.7,-7.2,-17.2l-.9,-2.1l-.8,-2.2l-.7,-2.1l-.6,-1.8l-.1,-.3l-.7,-2.2c-2.2,-6.3,-2.2,-13.3,-4.9,-19.3l-.7,-1.9l-.1,-.2c-2.8,-7.3,-6.6,-11.2,-8.6,-19.3l-.7,-2.1l-.6,-2.2l-.5,-2.1l-.2,-1.1c-1.5,-6.8,-2,-13.7,-3.4,-20.3l-.5,-2.1l-.4,-2.2c-1.5,-7.9,-2.7,-13.8,-6.4,-21l-.4,-.4l-1.6,-2.1l-.2,-.3l-1.1,-1.9l.3,-2.1c3.7,-11.7,6,-14.6,17.9,-18.6l2.2,-.3l2.1,1.3l.7,.4l1.5,1.1l1.3,1.1l.8,.4c8.3,4.3,14.7,4.7,23.6,6.7l2.1,.4l2.1,.5c8.3,1.1,15.6,2.8,23.6,5l2.1,.7l2.2,.8l1.3,.5l.8,.3l2.2,.8c1.9,1.3,4.3,2.4,6.4,3.4l2.1,.9l2.2,.9c2.1,.7,4.6,1.7,6.7,2.2l1.8,.4l2.2,.4l2.1,.3c8.1,1.6,17.6,4,25.1,7.5l.6,.3l2.1,1.1l1.2,.7l1,.5l2.1,1l1.5,.7c7.6,3.3,14.8,4,22.4,6.4l1.8,.6l2.2,.9l1.4,.7c2,1,4.9,1.5,7.1,2.5l2.2,.8l2.1,.9c3.7,2,6.5,2.7,10.2,4.3l.5,.2l2.2,.8l2.1,.9l.8,.3l1.3,.4c7.9,2.6,14.8,3.6,20.6,10.3l.9,1.8l.1,.3l-.1,1.1c-.4,3.3,-1,6.3,-1.1,9.6l-.2,2.2l-.2,2.1l-.7,2.1l-1.5,2.2l-.6,.6l-1.6,1.5l-.6,.5l-2.1,1.6l-.2,.1l-2,1l-2.1,.9l-.6,.2l-1.5,.6l-2.2,1l-.9,.5l-1.2,.8l-2.2,1.4l-2.1,1.7c-2.1,1.9,-4,4.9,-6.4,6.6l-.3,.2l-1.9,1.4c-2,1.5,-3.9,3.2,-5.6,5.1l-.8,.8l-1.2,1.3l-.9,1.2l-.8,1l.1,2.1l.7,.8l1.2,1.3l.9,1l1.2,1.2l1,1l1.2,1.1c1.7,1.6,3.5,3,5.5,4.3l1.8,1.7l.4,.4l1.8,2.2l1.5,2.1l.6,.7c4,6.3,11.1,9.5,15,15.6l.4,.9l.9,2.1l.7,2.1c1,2.6,1.6,5.3,2.3,7.9l.1,.7l.5,2.1c-.1,2.7,-2.2,6.4,-3.7,8.6l-1.2,1.6l-.5,.5l-1.7,1.7l-.6,.5l-1.5,1.1l-1.6,1l-.5,.3l-1.9,1.9c-1.3,2.1,-2.5,4.3,-4,6.4l-.6,.8l-1,1.3c-1.6,2,-3.4,3.6,-5.4,5.2l-1.8,1.3l-.3,.2l-2.2,1.5l-.3,.4c-1.6,2.4,-3.5,4.6,-5.8,6.4l-.3,.3l-2.1,1.3c-2.4,1.3,-5.8,3.2,-8.6,3.3l-2.1,-.5l-.4,-.1l-1.8,-.4l-2.1,-.7l-2.2,-.6c-11.3,-4.2,-9.4,-5.5,-17.1,-13l-.3,-.3L338.2,635l-.6,-.5c-1.8,-1.8,-3.8,-3.2,-5.9,-4.8l-2.1,-1.6l-1.9,-2.2c-1.7,-2.3,-3.3,-4.4,-5.3,-6.4L321,618.1l-.8,-.8l-1.3,-1.2l-.9,-.9l-1.2,-1l-2.2,-.1l-1.4,1.1l-.7,.6l-1.6,1.5c-2,2.1,-4,4.1,-5.6,6.5l-1.4,1.8l-.2,.3c-3.8,4.6,-6.6,5.1,-9.8,10.7l-.7,1.2l-.5,1l-1.1,2.1l-.5,1.5c-1,2.8,-2.5,5.4,-4.3,7.6l-1.6,1.6l-.6,.5l-2.1,1.5l-.4,.1l-1.7,.6l-2.2,.1l-2.1,.1l-2.2,.2l-2.1,.1l-2.1,.1l-2.2,.2l-2.1,.2l-2.2,-1l-.6,-.6Zm.6,2.7l2.2,.8l2.1,-.2l2.2,-.2c3.8,-.6,9.2,-.3,12.8,-1.4l2.1,-1.3l.5,-.4c3.1,-2.2,4.9,-5.1,6.3,-8.5l.8,-2.2l.7,-2.1l.3,-.6l.8,-1.5c2.5,-4.4,3.9,-5.9,8,-8.6l1.9,-1.8l.3,-.3c2.3,-3.3,3.6,-5.8,6.6,-8.6l1.7,-1.6l.5,-.6l1.6,-1.4l2.2,.1l3.6,3.5l.6,.6c6.2,6.2,4.1,7.7,12.9,13.1l1.6,1.3l.5,.5l1.9,1.6l.3,.3l1.9,1.9l.2,.2l1.9,1.9l.3,.4l1.2,1.7l.9,1.1l1,1.1l1.1,1.1l1.4,1l.8,.6L351,649l1.1,.5l1.1,.4l2.1,.8l2.1,.7l.8,.2l1.4,.4l2.1,.6l2.2,.4l2.1,.4l2.2,-.2l2.1,-.7l2.1,-.8l.2,-.1l2,-1l2.1,-1.1l2.2,-1.6l.6,-.6l1.5,-1.5l.6,-.6l1.5,-2.2l2.2,-2.1l2.1,-1.4l1,-.7l1.2,-1l1.3,-1.2l.8,-.7l1.4,-1.4l.7,-.8l1.1,-1.4l1.1,-1.5l.4,-.6l1.3,-2.1l.4,-.8l.8,-1.4l1.2,-2.1l.2,-.2l2.1,-1.3l1.2,-.7l.9,-.6l1.8,-1.5l.4,-.4l1.6,-1.8l.5,-.7l.9,-1.4l1.2,-2.1l.1,-.2l.8,-2l.7,-2.1l.4,-2.2l-.4,-2.1l-.5,-2.1l-.5,-2.2l-.5,-2.1l-.6,-2.2l-.7,-2.1l-.8,-2.1l-.1,-.3l-.8,-1.9l-1.3,-1.8l-.3,-.3l-1.9,-2l-.1,-.2l-2,-1.6l-.8,-.5l-1.3,-.8L398.8,581l-.7,-.7L396,578.1l-1.3,-1.4l-.9,-1l-.9,-1.2l-1.2,-1.7c-3.9,-6.9,-7.7,-6.4,-12.8,-12.1l-1.2,-1.2l-1,-1l-1,-1.1l-.1,-2.1l1.1,-1.4l.7,-.8l1.5,-1.5l.6,-.6l1.5,-1.5c2.3,-2.3,4.3,-2.9,6.8,-5l1.8,-1.9l.1,-.2c2.9,-4.4,5.2,-6,10,-8.6l.6,-.3l2.1,-.7l2.1,-.7c13.4,-6.3,10.4,-11.6,12.5,-24l.4,-2.1l-.8,-2.1l-1.3,-1.7l-.5,-.5c-5.6,-6.5,-17.4,-7.5,-25.2,-11.1l-2.2,-.9l-1.9,-.8l-.2,-.2c-3.3,-2.2,-7,-3.9,-10.7,-5.3l-2.2,-.7l-.8,-.2c-4.6,-1.2,-7.6,-2.6,-12,-3.8l-1.8,-.5l-.4,-.1l-2.1,-.5l-2.1,-.4l-2.2,-.4l-2.1,-.4l-1.2,-.4l-1,-.3c-3.3,-1,-7.4,-2.4,-10.5,-4l-.2,-.1l-2.1,-1.7c-3.2,-2.6,-6.1,-3.3,-9.9,-4.6l-.8,-.2l-2.2,-.7l-2.1,-.5c-9.7,-3,-20.1,-2.6,-29.3,-7.1l-.7,-.3l-2.1,-1l-1.8,-.9l-.4,-.4l-1.9,-1.7c-2.3,-2.1,-5.9,-2.6,-8.8,-3.6l-2.1,-.6l-.5,-.1c-4.8,-1.2,-9.7,-2,-14.5,-2.9l-2.1,-.4l-2.2,-.2l-2.1,-.3c-7.9,-1.8,-24.8,-3.1,-30,-9.1l-2.1,-1.6l-.8,-.5l-1.4,-.8l-2.1,-1l-2.2,.3l-2.1,.6c-3.8,1.2,-7.2,2.4,-10.7,4.3l-1.4,.9l-.7,.8c-2.4,4.2,-3.5,7.5,-4.8,12l-.6,2.2l-.2,2.1l1.1,2.2l.2,.2l1.2,1.9l.9,1.2c4.8,4.5,6.1,14,7.3,20.2l.4,2.2l.5,2.1c1.5,7.6,1.9,15.7,3.5,23.5l.5,2.2l.5,2.1l.2,.6l.4,1.6l.6,2.1l.6,2.2l.5,1.2l.4,.9l1.2,2.1l.5,.6l1.5,1.6l.7,.7l.8,1.4l1,2.2l.3,.5l.7,1.6l.9,2.1c3,6.8,2.6,13.9,5.1,21.5l.6,2.1l.5,2.1l.7,2.2l.1,.3l.7,1.8l.8,2.2c2.6,6,5.3,8,7.3,15l.7,2.1l.6,2.1c2.2,8.2,2.5,15.3,5.5,23.6l.8,2.1l.7,1.9l.2,.3l.9,2.1l1.1,1.9l.1,.2l1.5,2.2l.5,.6l1.1,1.5l1,1.5l.3,.7l.9,2.1l.7,2.2l.3,.8l.4,1.3l.7,2.1l.7,2.2c2,6.2,2.7,12.4,6.8,17.8l1.2,1.4l.9,1l1.4,1.2l.7,.5Z" class="ga_425"/>
<path d="M262.7,651.6l-1.6,-1.8l-.2,-.3l-1.4,-2.2l-.5,-.9c-2.8,-4.9,-3.5,-10.8,-5.3,-16.2l-.7,-2.1l-.5,-1.6c-1.9,-6.3,-3.9,-10,-7.3,-15.6l-1.1,-2.1l-.1,-.3l-.8,-1.9l-.9,-2.1c-2.5,-6.3,-3.4,-12.7,-4.9,-19.3l-.6,-2.1l-.5,-2.1c-2.1,-6.6,-4.1,-13.3,-7.3,-19.3l-1,-2.2l-.8,-2.1l-.4,-.9l-.4,-1.2l-.7,-2.2l-.8,-2.1c-2.2,-6.8,-2.5,-12.7,-5.3,-19.3l-.9,-2.1l-.4,-1.2c-2.8,-5.4,-4.6,-10.3,-6.6,-16l-.7,-2.1l-.7,-2.2l-.6,-2.1l-.6,-2.1c-1.6,-6.7,-2.1,-13.2,-3.7,-19.7l-.3,-1.7l-.5,-2.2c-1.5,-7.1,-2.5,-13.3,-5.6,-20l-.6,-1.4l-1.2,-2.1l-.3,-.7l-1,-1.5l.3,-2.1c3.1,-8.8,6.9,-12.9,15.6,-16.3l2.2,-.4l2.1,1.4l.4,.3l1.8,1l2.1,1l.2,.1c8.4,4,18.6,5,27.6,7.2l2.2,.4l2.1,.4c8.8,1.7,17.4,4.3,25.7,7.5l2.2,.6l2.1,.8l.4,.3l1.7,.8c9.7,4.7,16.9,5,26.8,7.7l1.1,.3l2.1,.7c9.5,2.7,18.3,7.9,27.9,10.8l2.1,.6l1.8,.5l.3,.1l2.2,.5l2.1,.4l2.2,.6l2.1,.5c3.4,.9,7.5,2.5,10.5,4.3l.2,.1l2.2,.9c2.8,.9,5.8,2.4,8.5,3.5l2.2,.7l2.1,.7l1.8,.5c8.4,4,18.2,4.9,26,10l1,.7l1.2,1l1.2,1.2l.9,1.6l.3,.5c-.5,4.3,-.8,8.6,-1.1,12.9l-.2,2.1l-.7,2.1c-1.7,2.4,-4.3,4.6,-6.9,6l-.8,.5l-1.3,.5l-2.1,.9l-1.6,.7c-3.4,1.6,-6.4,3.6,-9.1,6.1l-.4,.3l-1.8,2c-2.3,3.1,-5.8,4.8,-8.5,7.4l-1.5,1.3l-.7,.7l-1.3,1.5l-.8,.9l-1,1.2l-1.2,1.5l-.4,.7l.1,2.1l.3,.4c6.5,8.6,12.8,10,18.6,18.9l.7,.8l1.1,1.3c7.5,9,11.2,7.1,15.2,19.3l.6,2.1l.2,.6l.5,1.6l.5,2.1l.5,2.1l-.4,2.2l-1.1,2.1l-1.2,2.2l-.9,1.3l-.6,.8l-1.6,1.8l-.4,.4l-1.7,1.4c-2.4,1.7,-5,3.5,-6.4,6.2l-.6,.9l-1.3,2.2l-.3,.3l-1.3,1.8c-2,2.5,-4,4.4,-6.6,6.4l-.6,.5l-2.2,1.5c-3.1,3.1,-4.7,6.1,-8.5,8.6l-.2,.1l-2,1.2l-1.8,1l-.3,.1l-2.1,.9l-2.2,.4l-2.1,-.5c-14.3,-4.2,-14.1,-6,-23.6,-15.5l-.4,-.4L338.2,633l-.7,-.7c-2.5,-2.2,-5.5,-3.9,-7.8,-6.4l-.1,-.1l-1.7,-2c-2,-2.8,-4.4,-5.3,-6.9,-7.7l-.9,-.9l-1.2,-1.1l-1.3,-1l-.8,-.7l-2.2,-.2l-1.1,.9c-2.2,1.7,-4.9,4.2,-6.7,6.4l-.7,.8l-1.1,1.3c-2.6,3.8,-4.1,5.3,-7.5,8.2l-.4,.4l-1.7,2.1l-1.6,2.2c-4.9,7.1,-6.2,19.7,-17.7,18.3l-2.2,.1l-2.1,.1l-2.1,.1l-2.2,.1l-2.1,.2l-2.2,-1.3l-.5,-.5Zm.5,2.7l2.2,1l2.1,-.2l2.2,-.2l2.1,-.1c3.1,-.4,8,0,10.7,-1.2l2.1,-1.5l.6,-.5c2.8,-2.4,4.7,-5.8,5.9,-9.2l.5,-1.5l1.1,-2.1l.5,-1l.7,-1.2c2.7,-4.4,4.3,-5.3,7.9,-8.5l1.9,-2.2l.2,-.3c2.2,-3.1,4.3,-5.6,7,-8.2l1.6,-1.6l.7,-.6l1.4,-1.1l2.2,.1l1.2,1l.9,.9l1.3,1.3l.8,.7l1.4,1.4c1.9,1.9,3.5,4,5.1,6.1l.2,.3l1.9,2.2c2.1,1.7,4.4,3.2,6.4,5l1.6,1.4l.6,.5l1.8,1.6c7.4,6.9,5.8,8.9,16.4,12.9l1,.4l2.2,.6l2.1,.7l1.8,.4l.4,.1l2.1,.5l2.2,-.3l.7,-.3l1.4,-.5l2.1,-1l1.2,-.6l1,-.6c2.5,-1.3,4.6,-3.3,6.4,-5.5l.2,-.4l1.6,-2.1l.3,-.4c7.8,-5.1,10.8,-8.6,15.3,-16.7l1.9,-1.9l.5,-.3l1.6,-1l1.5,-1.1l.6,-.5l1.7,-1.6l.5,-.6c1.8,-2,3.3,-4.9,4.3,-7.4l.2,-.6l.4,-2.2c-.6,-2.8,-1.3,-5.7,-2.1,-8.5l-.7,-1.9l-.1,-.3l-.7,-2.1C405.7,586,397.2,583.1,392.8,576.7l-1.1,-1.5l-.6,-.7l-1.5,-2.1l-1.8,-2.2l-.4,-.4c-1.8,-2.1,-4.4,-3.2,-6.4,-5.2l-.9,-.8l-1.2,-1.1c-1.8,-1.7,-3.4,-3.4,-5,-5.3l-.1,-2.1l.8,-1l.9,-1.2l1.2,-1.3c1.7,-1.8,3.5,-3.5,5.4,-5.1l1,-.8l1.9,-1.4c2.7,-1.8,4.3,-4.6,6.7,-6.8l2.1,-1.7l2.2,-1.4l1.2,-.8l.9,-.5l2.2,-1l1.5,-.6l.6,-.2l2.1,-.9l2,-1l.2,-.1c2.5,-1.7,4.8,-3.7,6.4,-6.4l.7,-2.1l.2,-2.1c.3,-3.7,.7,-7.1,1.1,-10.8l.2,-1l.1,-1.1l-.1,-.3c-3.2,-6.8,-12.7,-9.4,-19.3,-11.4l-3.5,-1.1l-.8,-.3l-2.1,-.9c-8.3,-2.8,-15.3,-6.8,-23.6,-9.2l-.7,-.3l-1.4,-.7c-8.5,-3.6,-17,-3.9,-25.7,-7.6l-.7,-.3l-1.5,-.7l-2.1,-1l-1,-.4l-1.2,-.8l-2.1,-1.1c-6.3,-3.2,-14.5,-5.3,-21.4,-6.9l-2.1,-.4l-2.2,-.5c-8.1,-.9,-16.5,-4.3,-23.5,-8.5l-2.2,-.8l-.8,-.3l-1.3,-.5l-2.2,-.8c-7.4,-2.3,-15.8,-4.3,-23.5,-5.4l-2.2,-.3l-2.1,-.5c-9.4,-2.2,-17,-2.5,-25.7,-7.1l-.8,-.4l-1.3,-1.1l-1.5,-1.1l-.7,-.4L214,433.6l-2.2,.3c-11.9,4,-14.2,6.9,-17.9,18.6l-.3,2.1l1.1,1.9l.2,.3l1.6,2.1l.4,.4c3.3,6.3,4.7,11.9,6,18.9l.4,2.1l.4,2.2c1.8,7,2.2,14.1,3.6,21.4l.3,1l.2,1.1l.5,2.1l.6,2.2c2.2,8.8,4.8,11.7,8.4,19.3l.9,2.1l.1,.2c3.4,7.2,3.1,13.8,5.6,21.2l.7,2.2l.1,.3l.6,1.8l.7,2.1l.8,2.2l.9,2.1c3.3,6.5,5,10.1,7.2,17.2l.5,1.8l.1,.3c2.2,7.1,2.7,14.3,5.1,21.4l.8,2.1l.4,1.3l.4,.9l.9,2.1c2.6,5.9,5.8,8.3,7.8,15l.6,2.2l.8,2.1c2.1,6.2,3.1,13.9,6.8,19.3l1.5,2.1l.5,.6l1.5,1.5l.6,.6Z" class="gb_425"/>
<path d="M262.8,649.5l-1.6,-2.2l-.1,-.1l-1.3,-2l-.8,-1.8c-2.2,-5.2,-3.2,-11.9,-5.2,-17.5l-.7,-2.1l-.6,-1.9c-2.1,-6.6,-5.7,-11.1,-8.5,-17.4l-.9,-2.1l-.7,-2.2l-.6,-1.6l-.1,-.5c-2,-6.4,-2.8,-12.9,-4.6,-19.3l-.7,-2.1l-.6,-2.2c-2,-6.7,-3.9,-11.3,-6.8,-17.6l-.7,-1.6l-.9,-2.2l-.6,-1.3l-.3,-.8l-.7,-2.2l-.7,-2.1c-1.5,-5.7,-2.4,-11,-4.7,-16.7l-.2,-.4l-.8,-2.2c-3,-6,-3.9,-10.9,-6.4,-17.1l-.8,-2.2l-.4,-1l-.3,-1.1C207.4,490.4,206,474,200.1,458.9l-1,-2.1l-.1,-.3l-1.1,-1.9l.6,-2.1c3,-7.1,6.4,-10.6,13.3,-14L214,438l2.1,1.3l.7,.3l1.5,.7l2.1,.9c8.7,3.6,18.7,4.6,27.8,7l2.2,.4l2.1,.4c9.7,1.9,18.4,6.1,27.9,8.4l2.1,.8l1.5,.7l.6,.3l2.2,.8c10.2,4.2,19.5,4.5,30,8.8l2.1,.8l2.1,.9c8.4,3.6,19,7.7,27.9,9.4l1.8,.4l.3,.1l2.2,.6l2.1,.7l2.1,.7l.3,.1l1.9,.7c3.3,1.2,5.5,3.2,8.6,4.4l2.1,.9l.9,.4c3.8,1.6,8,2.9,11.9,3.9l1.1,.4l3.2,1.1l2.2,.8c2.8,.9,5.6,1.8,8.5,2.6l2.2,.6l2.1,.8l1.1,.5l1,.5l2.2,1.3l.5,.3l1.6,1.2l1.2,1l1,1.5l.4,.6l-.2,2.1l-.1,2.2l-.1,1.1l-.1,1l-.2,2.2c-.5,4.9,1,7.5,-3.1,10.7l-.9,.7l-1.9,1.4c-2.7,1.9,-6,2.8,-9,4.3l-2,1.2l-1.5,.9l-.6,.5l-2.1,1.6c-2.4,1.9,-3.9,4.6,-6.5,6.3l-.3,.2l-1.8,1.3c-2.8,2.1,-5.4,4.6,-7.7,7.3l-.9,1l-.8,1.1l-1.3,1.8l-.2,.4l.2,2.1l1.7,2.1l.4,.6l1.4,1.6l.8,.8l1.2,1.3c2.2,2.2,4.8,4.4,7.3,6.1l.4,.3l1.8,1.6c1.9,1.9,3.6,4.9,5.5,7l.9,1l1,1.2l1.1,1.2l1,.9c2.2,2.4,4.8,4.2,7.2,6.4l.4,.5l1.1,1.7c2.2,4,3.8,8.4,5,12.8l.3,1.2l.3,.9l-.3,1.1l-.2,1.1l-1.2,2.1l-.7,1.2c-1.7,2.7,-3.8,4.7,-6.4,6.6l-1.1,.8l-1.1,.9c-2.9,2.3,-4,5.5,-6.4,8.3l-1.2,1.5l-.9,1.1l-1.1,1l-1.1,1c-2.8,2.7,-6,4.3,-8.2,7.6l-.3,.4l-1.6,1.7c-2.4,2.6,-6,4.8,-9.1,6.2l-1.1,.3l-1.1,.2l-.8,-.2l-1.3,-.4l-2.2,-.7l-2.1,-.8l-.7,-.3c-11.2,-4.3,-10.8,-7.9,-19.2,-15l-2.5,-2.1l-1.2,-1c-3.7,-2.8,-5,-3.6,-7.8,-7.6l-.7,-.8l-1.2,-1.3c-2.2,-2.6,-4.8,-5.1,-7.4,-7.3l-1.5,-1.3l-.6,-.5l-2.2,-.1l-.8,.6l-1.3,1l-1.4,1.2c-2.4,2,-4.3,4,-6.3,6.4l-.9,1.1l-.8,1c-2.9,4.4,-4.4,5,-7.7,8.5l-.2,.1l-1.6,2.1l-.4,.6l-1,1.6c-1.9,2.7,-2.6,5.7,-4,8.5l-1.3,2.2l-.1,.1c-3.5,4.9,-4.3,6.1,-10.7,5.8l-2.2,.1h-2.1l-2.1,.1h-2.2l-2.1,.1L263.2,650l-.4,-.5Zm.4,2.6l2.2,1.3l2.1,-.2l2.2,-.1l2.1,-.1l2.1,-.1l2.2,-.1c11,1.4,12.7,-10.3,17.1,-17.4l.6,-.9l1.6,-2.2l1.7,-2.1c2.7,-2.6,4.7,-3.7,6.8,-7.1l1.1,-1.5l1.1,-1.3c2,-2.5,3.9,-4.3,6.4,-6.4l1.1,-.8l1,-.9l2.2,.2l.8,.7l1.3,1c7.3,6,9.2,11.8,17.1,17l1.5,1.2l.7,.7c10.6,9,7.9,11.8,23.5,16.7l2.2,.7l2.1,.5l2.2,-.4l2.1,-.9l.3,-.1l1.8,-1l2,-1.2c2.6,-1.7,4.7,-4,6.6,-6.4l2,-2.1l.1,-.2c2.7,-1.8,5.4,-3.8,7.5,-6.3l1.1,-1.2l.8,-.9l1.3,-1.8l.3,-.3c2.3,-3.6,2.6,-5,6.2,-7.8l1.2,-.8l.9,-.7c3.6,-2.7,5.6,-6,7.5,-10l.4,-2.2l-.5,-2.1l-.5,-2.1l-.5,-1.6l-.2,-.6C404.2,586.1,402.8,589.6,393.8,580l-1,-1.2l-1.1,-1.3l-.7,-.8c-2.1,-2.5,-3.1,-4.7,-5.7,-6.8l-2.2,-1.8L381,566.4c-2.8,-2.1,-4.8,-4.3,-7.1,-6.9l-1.5,-1.7l-.3,-.4l-.1,-2.1l.4,-.7l1.2,-1.5l1,-1.2l.8,-.9l1.3,-1.5l.7,-.7l1.5,-1.3c2.6,-2.6,6.2,-4.3,8.4,-7.2l.1,-.2l1.8,-2c2.5,-2.4,5.8,-4.6,8.9,-6.1l.6,-.3l1.6,-.7l2.1,-.9l1.3,-.5c2.7,-1.4,5.4,-3.5,7.3,-5.9l.4,-.6l.7,-2.1c.3,-4.3,.7,-8.6,1,-12.9l.3,-2.1l-.3,-.5l-.9,-1.6L411,502.7l-1.2,-1c-6.8,-5.3,-16.4,-6,-24.5,-9.8l-2.2,-.8l-.3,-.1l-1.8,-.5c-3.9,-1.1,-6.1,-2.1,-9.8,-3.8l-.9,-.4l-2.1,-.7c-3.8,-1.5,-6.6,-3.5,-10.8,-4.7l-2.1,-.6l-2.1,-.5l-2.2,-.6l-2.1,-.4l-2.2,-.6h-.3l-1.8,-.5c-9.1,-2.4,-17.6,-7.2,-26.4,-10.2l-1.4,-.5l-2.2,-.7c-9.7,-3.4,-18.1,-3.4,-27.8,-7.8l-2.2,-.9l-1.7,-.8l-.4,-.3l-2.1,-.8c-8.7,-2.9,-16.6,-5.9,-25.7,-7.7l-2.2,-.4l-2.1,-.4c-10,-2.3,-20.4,-3.3,-29.8,-7.6l-.2,-.1l-2.1,-1l-1.8,-1l-.4,-.3L214,435.8l-2.2,.4c-8.7,3.4,-12.5,7.5,-15.6,16.3l-.3,2.1l1,1.5l.3,.7l1.2,2.1l.6,1.4c3.1,6.7,4.1,12.9,5.6,20l.5,2.2l.3,1.7c1.6,6.5,2.1,13,3.7,19.7l.6,2.1l.6,2.1l.7,2.2l.7,2.1c2,5.7,3.8,10.6,6.6,16l.4,1.2l.9,2.1c2.8,6.6,3.1,12.5,5.3,19.3l.8,2.1l.7,2.2l.4,1.2l.4,.9l.8,2.1l1,2.2c3.2,6,5.2,12.7,7.3,19.3l.5,2.1l.6,2.1c1.5,6.6,2.4,13,4.9,19.3l.9,2.1l.8,1.9l.1,.3l1.1,2.1c3.4,5.6,5.4,9.3,7.3,15.6l.5,1.6l.7,2.1c1.9,5.6,2.6,12.1,5.8,17.1l1.4,2.2l.2,.3l1.6,1.8l.5,.5Z" class="gc_425"/>
<path d="M262.8,647.3l-1.4,-2.1l-.3,-.5l-1,-1.7l-.9,-2.1c-1.3,-5.7,-2.8,-11.5,-4.5,-17.1l-.6,-2.2l-.8,-2.1c-1.9,-6.9,-6,-10.9,-8.6,-17.1l-.7,-1.9l-.1,-.3l-.8,-2.1c-4.3,-14.3,-5.4,-29.2,-12.9,-42.8l-1.1,-2.2l-.1,-.2l-.8,-1.9l-.9,-2.2l-.5,-1.3c-1.7,-5.3,-2.7,-10.5,-4.3,-15.8l-.8,-2.1l-.8,-2.2c-2.9,-6.1,-3.4,-10.9,-5.8,-17.1l-.8,-2.2l-.3,-.7l-.5,-1.4c-4.9,-15.4,-6.6,-31.7,-11.7,-47.1l-.7,-1.6l-.2,-.5l-1,-2.2l.7,-2.1c2.7,-5.6,5.9,-8.7,11.2,-11.7L214,440l2.1,1.2l1.4,.6l.8,.3l2.1,.8c8.7,3,18.9,4.3,27.8,6.6l2.2,.5l1.4,.3c9.7,2,17.5,6.7,27.3,8.6l1.3,.3l2.1,.7l2.1,.9l.8,.2c9,3.6,18.1,4.3,27.1,7.9l1.6,.7l.5,.2c9,4.2,18.3,7.5,27.9,9.9l2.1,.5l.4,.1l1.7,.4l2.2,.4l2.1,.5l2.2,.7l.4,.2c3.3,1,6.8,2.5,9.7,4.2l2.7,1.9c2.9,1.7,5.5,2.4,8.6,3.6l2.1,.6l1.3,.4l.9,.2l2.1,.5c3.7,.8,7.1,2.4,10.7,3.4l.6,.1l1.5,.5c4.2,1.2,7.1,1.4,10.9,3.8l2,1.4l1,.8l1.1,1.4l.5,.7l-.1,2.1v2.2l-.1,2.1l-.2,2.2v2.1l-.1,2.2l-.1,2.1l-.7,2.1l-1.3,1.3l-1.1,.9c-3.3,2.7,-6,3.4,-9.6,4.9l-2.2,1.1l-.7,.4l-1.4,.9l-1.8,1.2c-2.7,1.7,-4.3,4.5,-6.6,6.5l-.2,.1l-2.1,1.4c-2.9,2,-5.5,4.4,-7.9,7l-.7,.8l-1.1,1.4l-1,1.3l-.6,.8l-1.4,2.2l.2,2.1l1.6,2.1l.2,.3l1.5,1.9c2.1,2.3,4.1,4.4,6.5,6.4l.6,.5l2.1,1.6c4.1,2.3,5.1,5.4,7.8,8.6l.8,.9l1,1.3l1.1,1.1c9.2,9.3,10.2,7.1,15,20.8l.5,1.6l.6,2.1l-.5,2.2l-.6,1l-.8,1.1c-1.8,3.2,-4.7,5.6,-7.8,7.6l-1,1l-1.1,1c-2.3,2.3,-3.5,5.2,-5.6,7.6l-.8,1l-1,1.1l-1.2,1.1l-1,1c-2.4,2.3,-5.3,3.9,-7.4,6.5l-.1,.1l-1.5,2c-2.3,2.7,-4.2,4,-7.1,5.9l-1,.5l-1.1,.6l-2.2,.5l-2.1,-.7l-1.2,-.4l-1,-.3C349.8,642.3,350.6,640.3,342,632.3l-1.7,-1.5l-.7,-.6l-1.4,-1.1c-2.1,-1.9,-4.7,-3.2,-6.6,-5.3l-1.5,-2.2l-.5,-.6c-2.4,-3,-4.5,-5.4,-7.4,-7.9L321,612l-1.2,-1.1l-.9,-.7l-1.8,-1.4l-.3,-.3l-2.2,-.1c-2.2,1.5,-4.4,3.3,-6.4,5.1l-1.7,1.7l-.4,.5c-2.4,2.6,-4.5,5.2,-6.5,8.2l-2,2l-.1,.1l-2.1,1.9l-.2,.2c-2.3,2.5,-4.1,5.4,-5.6,8.5l-.7,1.5l-.2,.7l-.8,2.1l-1.1,2.1l-1.4,2.2l-.8,1l-.9,1.1l-1.2,1.2l-2.1,.9H267.5l-2.1,.1l-2.2,-1.6l-.4,-.6Zm.4,2.7l2.2,1.4l2.1,-.1h2.2l2.1,-.1h2.1l2.2,-.1c5.3,0,5.8,.3,9.3,-3.8l1.4,-2l.1,-.1c2,-2.9,2.6,-5.7,4.2,-8.7l1.1,-2l1,-1.5l.4,-.7l1.6,-2.1c1.9,-2.4,4.7,-3.8,6.3,-6.4l.3,-.4l1.3,-1.8c2.1,-2.7,4.6,-5.5,7.2,-7.9l.8,-.6l1.4,-1.2l1.3,-1l.8,-.6l2.2,.1l.6,.5c2.5,2,4.8,4.1,7,6.4l.9,1l1,1.2c3.1,3.3,4.1,6,8.2,8.6l1.5,1.1l1.2,1l1,.8c7.7,6,10.7,13.1,20.7,16.3l.7,.3l2.1,.8l2.2,.7l1.3,.4l.8,.2l1.1,-.2l1.1,-.3c2.8,-1.2,6.4,-3.4,8.5,-5.6l.6,-.6l1.6,-1.7c2.4,-3.3,4.3,-4.4,7.2,-6.8l1.3,-1.2l1.1,-1l1.1,-1l.9,-1.1c2.2,-2.6,3.6,-5,5.5,-7.6l.8,-1l1.3,-1.2c2.9,-2.5,5.7,-4,7.9,-7.3l.7,-1l.7,-1.2l1.2,-2.1l.2,-1.1l.3,-1.1l-.3,-.9c-.8,-3.3,-2,-6.6,-3.2,-9.8l-1.1,-2.1l-1,-2.1c-1.5,-3,-5.2,-5,-7.5,-7.4l-1.2,-1.2l-1,-.9L392.7,581l-1,-1.2c-2.3,-2.4,-3.8,-4.9,-5.8,-7.4l-.6,-.6l-1.8,-1.6c-2.7,-1.9,-5.3,-4,-7.7,-6.4l-1.2,-1.3l-.8,-.8l-1.4,-1.6l-.4,-.6l-1.7,-2.1l-.2,-2.1l.2,-.4l1.3,-1.8l.8,-1.1l.9,-1c2,-2.4,4.2,-4.5,6.6,-6.5l1.1,-.8l1.8,-1.3c2.7,-1.6,4.3,-4.4,6.6,-6.4l.2,-.1l2.1,-1.6l.6,-.5l1.5,-.9c2.8,-1.9,5.8,-2.6,8.6,-4.1l2.1,-1.2l.3,-.2c5.2,-4,5.8,-3.7,5.9,-10.7v-2.1l.2,-2.2l.1,-1l.1,-1.1l.1,-2.2l.2,-2.1c-1.4,-3,-4.2,-4.3,-6.9,-5.9l-1,-.5l-1.1,-.5c-3.9,-1.5,-8.2,-2.4,-12.2,-3.8l-.6,-.2l-2.2,-.8l-3.2,-1.1c-3,-1.1,-6.5,-1.8,-9.6,-3l-2.2,-.8l-1.2,-.5c-4.6,-1.6,-5.5,-2.7,-9.5,-4.7l-2.1,-1l-1.9,-.7l-.3,-.1l-2.1,-.7l-2.1,-.7l-2.2,-.6l-.3,-.1c-9.6,-1.7,-18.6,-5.3,-27.5,-8.8l-2.2,-1l-2.1,-.9c-9.6,-4.2,-20.1,-5.4,-30,-8.7l-2.1,-.9l-2.2,-.8l-.6,-.3l-1.5,-.7c-9.5,-2.6,-18.3,-6.4,-27.8,-8.7l-2.2,-.5l-2.1,-.4c-10,-2.4,-20.4,-3.6,-30,-7.4l-2.1,-.9l-1.5,-.7l-.7,-.3L214,438l-2.2,.5c-6.9,3.4,-10.3,6.9,-13.3,14l-.6,2.1l1.1,1.9l.1,.3l1,2.1c5.6,14.4,7.1,30,10.8,45l.6,2.1l.3,1.1l.4,1c2.3,5.5,3.8,12.1,6.3,17.2l.9,2.1l.8,2.2c2.4,5.7,3.3,11.2,4.9,17.1l.7,2.1l.7,2.2l.3,.8l.6,1.3l.9,2.2l.7,1.6c2.9,6.3,4.8,10.9,6.8,17.6l.6,2.2l.7,2.1c1.8,6.4,2.6,12.9,4.6,19.3l.1,.5l.6,1.6l.7,2.2l.9,2.1c2.8,6.3,6.4,10.8,8.5,17.4l.6,1.9l.7,2.1c2.2,6.1,3.1,14,6,19.3l1.3,2l.1,.1l1.6,2.2l.4,.5Z" class="gd_425"/>
<path d="M265.2,647.3l-2,-1.6l-.3,-.5L261.5,643l-.4,-.8c-2,-6,-2.9,-12.4,-4.9,-18.4l-.6,-2.2l-.6,-2.1c-1.8,-6,-3.7,-10.1,-7.5,-15l-1.2,-2.1l-.2,-.5l-.7,-1.7l-.9,-2.1c-2.6,-6.4,-2.8,-10.7,-4.1,-17.1l-.5,-2.2l-.2,-1.1c-1.8,-6.8,-3,-13.9,-6.1,-20.3l-.3,-.6l-.9,-1.5l-1.3,-1.8l-.2,-.4l-1,-2.1l-.9,-1.9c-2.1,-4.9,-3.2,-10.1,-4.6,-15.3l-.6,-2.1l-.6,-2.1c-2.8,-6.9,-3.3,-10.3,-5.2,-17.2l-.6,-2.1l-.8,-2.2l-.5,-1.2l-.3,-.9c-3.4,-7.1,-4.2,-13.6,-6.1,-21l-.1,-.4l-.6,-2.1c-1.9,-7.2,-2.9,-14.4,-4.8,-21.5l-.7,-2.1l-.2,-.7l-.5,-1.4l-.9,-2.2l.8,-2.1c2.4,-4,5.2,-6.9,9.1,-9.4L214,442l2.1,1.1l2.2,.7l.3,.1l1.8,.6c8.9,2.6,18.7,4,27.8,6.4l2.2,.5l2.1,.5l1.9,.6c3.2,1.2,5.9,1.7,8.8,3.6l2.2,1c3.8,1.4,6.8,2,10.7,3l2.1,.4l2.2,.4l.3,.1l1.8,.6l2.1,.7c10.2,3.8,20.2,4,30,9.3l.3,.1l1.9,1.3c7.1,3.7,17.7,6.1,25.7,8.1l2.1,.4l2.1,.4l2.2,.4l.6,.2l1.5,.3l2.2,.8l2.1,.7c2.1,1.1,4.6,1.9,6.4,3.3l1.8,1.3l.4,.3L366,491l2.2,1l2.1,.8l1.3,.4l.8,.2l2.2,.7l2.1,.5l2.2,.6l.5,.1l1.6,.3c4.3,.9,8.5,2.6,12.8,3.7l1.1,.3l1.1,.2c4.2,.9,6,1.5,9.5,4.1l1.2,1.3l.6,.8v6.4l-.2,2.2V521l-.4,1.1l-.4,1l-1.8,1.5l-.8,.7l-1.3,.8c-2.4,1.7,-5.7,2.1,-8.6,3.6l-2.1,1.1l-1.4,.9l-.7,.5l-2.2,1.6c-3.5,2.9,-2.8,3.9,-6.9,6.5l-1.6,1.1l-1.4,1c-2.4,1.9,-4.6,4.1,-6.5,6.4l-.7,.9l-1,1.3l-1.1,1.6l-.5,.5l-1.4,2.2l.1,2.1l1.8,2.1l1.6,2.2l.5,.6c2.1,2.4,4,4.5,6.4,6.5l1.8,1.4l.4,.3c4.9,3.4,4.4,3.5,8,8.3l.5,.7l1.2,1.5l1,1.1c8.2,9.2,10.7,7.3,15.6,20.3l.7,2.1l.7,2.1l-.7,2.2l-1.4,2v.1c-1.6,2.4,-3.8,4.6,-6.4,5.8l-.9,.6l-1.2,1.1c-2.8,2.3,-4.2,5.8,-6.4,8.5l-1.1,1.2l-1.1,1.2l-.8,.9l-1.3,1.2c-2.3,2.1,-4.4,2.9,-6.4,5.1l-.2,.1l-1.7,2.2c-1.7,3.1,-3.6,4.4,-6.4,6.4l-.3,.2l-2.1,1.2l-2.2,.6l-2.1,-.8l-2.2,-.9l-.8,-.3C351.2,641.5,348,634.8,340.3,628.8l-.9,-.7L338.2,627l-1.5,-1.1c-4,-2.7,-4.2,-3.9,-7.1,-7.3l-1,-1.3l-1.1,-1.2c-2.4,-2.4,-5.3,-5.3,-7.9,-7.3l-.7,-.6l-2,-1.6l-.1,-.1l-2.2,-.2l-.4,.3l-1.7,1.2c-2.2,1.9,-4.5,3.5,-6.4,5.6l-1.9,1.8l-.3,.3c-2.3,2.7,-4.3,5.6,-6.4,8.4l-2.1,1.9l-.2,.1l-2,2.2l-1.7,2.1c-2,3,-3,5.2,-4.2,8.6l-.5,1.6l-.2,.5l-1.1,2.1l-.9,1.2l-.7,1l-1.4,1.6l-2.1,.8H267.5l-2.1,-.1l-.2,-.2Zm-2,.6l2.2,1.6l2.1,-.1h12.9l2.1,-.9l1.2,-1.2l.9,-1.1l.8,-1l1.4,-2.2l1.1,-2.1l.8,-2.1l.2,-.7c1,-2.6,2.8,-5.7,4.5,-7.9l1.8,-2.1l.2,-.2l2.1,-1.9l.1,-.1c2.7,-2.1,3.9,-5.3,6.3,-7.8l.7,-.8l1.5,-1.6c2.2,-2.5,5.3,-5,8,-6.9l.5,-.4l2.2,.1l.3,.3l1.8,1.4l.9,.7L321,612c2.3,2.1,4.5,4,6.5,6.4l.9,1.1l1.2,1.5c1.7,3.1,4.6,5,7.4,7.1l1.2,1l1.4,1.1l.7,.6c9.5,8.1,8.6,11.3,21.4,16.2l1,.3l1.2,.4l2.1,.7l2.2,-.5l1.1,-.6l1,-.5c2.9,-1.9,4.8,-3.2,7.1,-5.9l1.5,-2l.1,-.1c2.1,-2.6,5,-4.2,7.4,-6.5l1,-1l1.2,-1.1l1,-1.1l.8,-1c2.1,-2.4,3.3,-5.3,5.6,-7.6l1.1,-1l1,-1c3.1,-2,6,-4.4,7.8,-7.6l.8,-1.1l.6,-1l.5,-2.2l-.6,-2.1l-.5,-1.6c-4.8,-13.7,-5.8,-11.5,-15,-20.8L390.6,581l-1,-1.3l-.8,-.9c-2,-2.3,-3.2,-5.1,-5.7,-7.1L381,570.2l-2.1,-1.6c-2.7,-2.2,-4.9,-4.4,-7.1,-6.9l-1.5,-1.9l-.2,-.3l-1.6,-2.1l-.2,-2.1l1.4,-2.2l.6,-.8l1,-1.3l1.1,-1.4l.7,-.8c2.1,-2.3,4.5,-4.5,7.1,-6.4l.8,-.6l2.1,-1.4c2.4,-1.9,3.9,-4.7,6.5,-6.3l.3,-.3l1.8,-1.2l1.4,-.9l.7,-.4c3.9,-2.3,6.9,-2.4,10.7,-5.2l1.1,-.8l1.1,-.9l1.3,-1.3l.7,-2.1l.1,-2.1l.1,-2.2v-2.1l.2,-2.2l.1,-2.1v-2.2l.1,-2.1l-.5,-.7l-1.1,-1.4l-1,-.8c-3.6,-2.7,-6.3,-3.7,-10.7,-4.6l-2.2,-.6l-1.5,-.5c-3.2,-.8,-6,-2,-9.2,-3l-2.1,-.5l-2.1,-.5l-.9,-.2l-1.3,-.4c-3.1,-1,-7.4,-2.3,-10.2,-3.9l-.5,-.3l-2.1,-1.5c-2.8,-1.9,-7.1,-3.6,-10.3,-4.6l-.4,-.2l-2.2,-.7l-2.1,-.5l-2.2,-.4l-1.7,-.4l-.4,-.1l-2.1,-.5c-8.8,-2.3,-17.5,-5.1,-25.7,-9l-2.2,-.9l-.5,-.2c-8.9,-4.1,-18.2,-4.7,-27.3,-8.1l-1.4,-.5l-.8,-.2l-2.1,-.9l-2.1,-.7c-10.4,-1.9,-17.9,-6.5,-27.9,-8.7l-.7,-.2l-1.4,-.3c-9.7,-2.5,-20.7,-4,-30,-7.1l-2.1,-.8l-.8,-.3l-1.4,-.6L214,440l-2.2,.8c-5.3,3,-8.5,6.1,-11.2,11.7l-.7,2.1l1,2.2l.2,.5l.7,1.6c5.1,15.4,6.8,31.7,11.7,47.1l.5,1.4l.3,.7l.8,2.2c2.2,5.2,2.9,10.8,5.3,15.9l.5,1.2l.8,2.2c2.2,5.8,3.2,12,5.1,17.9l.5,1.3l.9,2.2l.8,1.9l.1,.2l1.1,2.2c7.5,13.6,8.6,28.5,12.9,42.8l.8,2.1l.1,.3l.7,1.9c2.6,6.2,6.7,10.2,8.6,17.1l.8,2.1l.6,2.2c2.2,6.3,3,13.1,5.5,19.2l.9,1.7l.3,.5l1.4,2.1l.4,.6Z" class="ge_425"/>
<path d="M264.9,645.2l-1.7,-1.6l-.3,-.6l-1.1,-2.1l-.5,-2.1c-1.1,-6,-2.7,-11.4,-4.1,-17.2l-.4,-1.7l-.1,-.4c-1.5,-6.1,-3.8,-12.6,-8.5,-16.9l-.1,-.2L247,600.2l-.9,-1.7l-.2,-.4C243,591.7,243,587.6,241.7,581l-.3,-2.2l-.5,-2.1C239.5,570,238.4,563.8,236,557.4l-.6,-1.2l-.5,-.9l-1.3,-2.2l-.3,-.5L232.1,551l-1,-1.1c-2.8,-5.3,-4.1,-10.2,-5.3,-16.1l-.6,-2.1l-.5,-2.1c-3,-7.4,-3.2,-12,-5.1,-19.3l-.6,-2.2l-.7,-2.1l-.7,-2.1l-.8,-2.2l-.7,-1.7l-.2,-.4l-1.1,-2.2L214,496l-.2,-.7l-.6,-2.1l-.5,-2.2l-.6,-2.1l-.3,-.9l-.3,-1.3l-.5,-2.1l-.6,-2.1l-.5,-2.2c-2,-6.7,-2.5,-12.6,-4.1,-19.3l-.4,-1.4l-.2,-.7l-.6,-2.1l-.7,-2.2l1,-2.1c1.9,-2.8,4.2,-5.3,6.9,-7.2l2.2,-1.1l2.1,.8l2.2,.6l1.7,.5l.4,.1c6.6,1.7,13.2,2.3,20,4.1l3.6,.9l2.1,.5l2.1,.5l1,.3l1.2,.4l2.1,.6l2.2,.7l1,.4l1.1,.8l2.2,1.2l.3,.2l1.8,1l2.1,.9l.5,.2l1.7,.6l2.1,.5c7.1,2.1,14.5,2.6,21.4,5.1l.7,.2l1.5,.4c7.4,1.7,13.1,2.5,20,6.1l1.4,1.1l1.3,1l.8,.5l2.2,1.1l1,.5l1.1,.5c6.5,2.4,12.6,3.3,19.3,5.1l2.1,.4l2.2,.5c6.9,.7,15.7,3,20.4,8.5l1,.8l1.7,1.4l.4,.2l2.2,.9c6.4,2.2,12.9,2.6,19.2,4.7l2.2,.6l2.1,.5l2.1,.6l2.2,.5l2.1,.5l2.2,.5l2.1,1.1l.9,.6l1.3,1.3l.7,.8v2.1l.1,2.2v2.1l-.1,2.2l.1,2.1v2.2l.1,2.1l-.9,2.1l-2.2,1.7l-.8,.5l-1.3,.7c-8.7,1.6,-15.2,7.4,-21.4,13.1l-1.3,1.2l-.9,.6l-1.8,1.5c-1.6,1.4,-3.2,3,-4.6,4.6l-1.5,1.8l-.6,.9l-1.1,1.3l-1.1,1.5l-.6,.6l-1.5,1.7l-.4,.5l.2,2.1l.2,.2l2.1,1.9l1.7,2.2l.5,.5l1.3,1.6c5.8,7.1,11.8,9.2,17,17.2l.9,1l1,1.1c4.8,5.7,11.4,10.1,14.5,17.1l.9,2.2l.8,2.1l.7,2.1l-.7,2.2l-1.6,2.1l-.6,.8c-2.4,3,-3.8,2.4,-6.4,4.6l-1.3,1.1l-.9,.7c-2.4,2.4,-3.1,5.2,-5.2,7.8l-1.2,1.4l-.7,.8l-1.4,1.5l-.7,.6c-1.9,1.7,-4.4,2.4,-6.1,4.3l-1.8,1.8l-.3,.3c-1.8,2.7,-3.1,5.7,-6.1,7.3l-2,1.3l-.1,.1l-2.2,.6l-1.9,-.7l-.2,-.1l-2.2,-.9c-4.3,-2.1,-5.4,-2.6,-8.5,-6.2l-1.8,-1.4l-.4,-.3c-3.2,-2.3,-5.9,-5.8,-9.2,-8.2l-1.5,-1.3l-1.1,-.9l-1,-.9l-1.5,-1.2c-2.4,-2.7,-4.8,-4.8,-7.1,-7.7l-.8,-.9l-1.3,-1.4c-2.6,-2.9,-6.1,-5.3,-8.6,-8.1l-1.2,-1.2l-.9,-.8l-2.2,-.2l-1.3,1l-.8,.8l-1.4,1.3c-3.2,2.7,-6.5,5.3,-9.1,8.6l-.2,.3l-1.5,1.9c-2.2,2.5,-4.7,5.6,-7.1,8l-.4,.5l-1.7,2.2l-1.5,2.1l-.7,1.3c-2.2,3.5,-2.6,7.7,-4.3,10.7l-.5,.8l-1.6,2.1c-3.3,1.9,-9.1,.3,-12.8,.6h-2.2l-2.1,-.2l-.5,-.3Zm.5,2.3l2.1,.1h12.9l2.1,-.8l1.4,-1.6l.7,-1l.9,-1.2l1.1,-2.1l.2,-.5l.5,-1.6c1.2,-3.4,2.2,-5.6,4.2,-8.6l1.7,-2.1l2,-2.2l.2,-.1l2.1,-1.9c1.7,-2.1,3.2,-4.5,4.9,-6.5l1.5,-1.9l.3,-.3c2.7,-2.9,5.2,-4.9,8.3,-7.4l1.7,-1.2l.4,-.3l2.2,.2l.1,.1l2,1.6l.7,.6c2.4,1.8,4.9,4.3,7.1,6.4l.8,.9l1.1,1.3c2.3,2.4,4.6,6.5,7.4,8l.7,.5l1.5,1.1l1.2,1.1c8.1,6,11.7,13.3,21.5,17.1l.8,.3l2.2,.9l2.1,.8l2.2,-.6l2.1,-1.2l.3,-.2c2.2,-1.5,5,-3.6,6.1,-6.1l.3,-.3l1.7,-2.2c1.9,-2.1,4.5,-3.3,6.6,-5.2l1.3,-1.2l.8,-.9l1.1,-1.2l1.1,-1.2c1.8,-2.2,3.2,-5.3,5.2,-7.4l1.2,-1.1l1.2,-1c3.6,-2.4,4.6,-2.8,7.3,-6.5l.1,-.1l1.3,-2l.7,-2.2l-.7,-2.1l-.7,-2.1c-4.8,-12.5,-6.6,-10.7,-14.7,-19.3l-.9,-1l-1,-1.1l-1.2,-1.5C385.2,577,383.9,573.8,381,572l-2.1,-1.5l-.4,-.3c-3.2,-2.4,-5.6,-4.8,-8.2,-7.9l-.5,-.6l-1.6,-2.2l-1.8,-2.1l-.1,-2.1l1.4,-2.2l.5,-.5l1.1,-1.6l1,-1.3l.7,-.9c1.7,-2.1,3.6,-4,5.7,-5.7l.8,-.7l1.4,-1l1.6,-1.1l.5,-.5l2.1,-1.5l.2,-.2l1.8,-2.1l.2,-.2l2.1,-2l2.2,-1.6l.7,-.5l1.4,-.9c2.4,-1.5,5.8,-2.7,8.6,-3.5l2.1,-1.2l1.3,-.8c4,-2.4,3.4,-4.4,3.4,-8.6v-2.1l.2,-2.2V506l-.6,-.8l-1.2,-1.3l-.9,-.7l-2.2,-1.3l-.3,-.2l-1.8,-.8l-2.2,-.5l-3.2,-.8c-4,-1,-7.8,-2.3,-11.8,-3.5l-2.1,-.5l-1.6,-.3l-.5,-.1l-2.2,-.6c-3.1,-.7,-7.9,-2.1,-10.7,-3.6l-2.1,-1.8l-.4,-.3c-2.9,-2.4,-4.8,-3,-8.2,-4.6l-2.1,-.7l-2.2,-.8l-1.5,-.3l-.6,-.2l-2.2,-.4l-2.1,-.4l-2.1,-.4c-7.6,-1.8,-16.9,-4.1,-23.9,-7.2l-1.8,-.9l-1.9,-1.2c-9.3,-5,-18.3,-5.6,-28.1,-8.7l-2.2,-.8l-2.1,-.7l-1.8,-.6l-.3,-.1l-2.2,-.4c-3.3,-.7,-7.5,-1.6,-10.7,-2.7l-2.1,-.7l-.7,-.3c-4.4,-2.3,-5.2,-2.7,-10,-4.2l-.3,-.1l-1.9,-.6l-2.1,-.5c-9.8,-2.7,-20.3,-4.1,-30,-6.9l-1.8,-.6l-.3,-.1l-2.2,-.7L214,442l-2.2,1.1c-3.9,2.5,-6.7,5.4,-9.1,9.4l-.8,2.1l.9,2.2l.5,1.4l.2,.7l.7,2.1c1.8,6.4,2.6,13,4.4,19.3l.4,2.2l.6,2.1c1.7,6.1,2.7,13.6,5.4,19.3l.8,2.1l.3,.9l.5,1.2l.8,2.2c2,6.1,2.5,11.5,5.2,17.4l.6,1.9l.6,2.1c1.8,5.9,2.7,11.6,5.2,17.4l.9,1.9l1,2.1l.2,.4l1.3,1.8l.9,1.5l.3,.6c2.9,6.1,4.2,12.8,5.8,19.3l.3,1l.2,1.1c1.6,7,1.8,12.5,4.6,19.3l.9,2.1l.7,1.7l.2,.5l1.2,2.1c3.8,4.9,5.7,9,7.5,15l.6,2.1l.6,2.2l.6,2.1l.6,2.2l.6,2.1l.5,2.1l.5,1.8v.4l.5,2.1l.5,2.2l.5,2.1l.6,1.3l.4,.8l1.4,2.2l.3,.5l2,1.6l.2,.2Z" class="gf_425"/>
<path d="M264.8,643l-1.6,-1.8l-.1,-.3l-.4,-2.1l-.5,-2.2c-1.1,-5.8,-2.8,-11.2,-3.8,-17.1l-.5,-2.2l-.5,-2.1c-1.6,-6,-3.3,-10.7,-8,-15l-1.2,-1l-.6,-1.1l-1.2,-2.2l-.3,-.6c-2.6,-5.9,-2.2,-12.3,-3.7,-18.6l-.4,-2.2l-.2,-1c-1.1,-6.2,-2.3,-15,-5.3,-20.4l-1.1,-1.8l-.2,-.3l-1.7,-2.2l-.2,-.2l-1.9,-1.9l-.3,-.2c-3.2,-6.4,-3.2,-10.4,-5,-16.9l-.5,-2.2l-.7,-2.1c-2,-5.6,-2.2,-13.2,-4,-19.3l-.5,-1.6l-.8,-2.7l-.7,-2.1c-1.5,-5.4,-5.7,-9.4,-6.5,-15l-.6,-1.8v-.3c-2.3,-7.6,-3.1,-13.1,-4.2,-20.9l-.1,-.6l-.5,-2.1l-.5,-2.1l-.6,-2.2l1.1,-2.1c1.6,-1.9,3,-3.5,4.8,-5l2.2,-1.3l2.1,.7l2.2,.5l2.1,.5l1.6,.3c8.9,1.2,17.7,3,26.2,5.5l2.2,.7l.6,.2c7.2,6.4,15.9,7.8,25.1,9.3l2.1,.3l2.2,.3l2.1,.4l1.4,.4l.7,.2c2.8,.7,5.8,1.5,8.6,2l2.2,.4l2.1,.4c3.5,.6,6.8,2,10,3.4l.7,.9l1.3,1.3l.8,.6c8,6.2,18.5,6.2,27.9,8.6l2.1,.3l2.2,.4l2.1,.3l2.1,.3l1.6,.2l.6,.1l2.1,.6c2.8,.9,4.6,1.9,7.1,3.6l1.5,1.9l.2,.2c1.7,2,3.8,3.7,6.2,4.8l2.2,.8l2.1,.4l1.6,.4c9.9,1.4,16.8,3.6,26.2,5.7l2.2,.4l.6,.4l1.5,1.2l.9,.9l.1,2.1c.2,3.6,.1,7.2,.3,10.8l.1,2.1l-1.1,2.1c-2.4,2.6,-7.4,2.3,-11,4.3l-2.1,1l-2.2,1.2l-2.1,1.5l-.8,.6c-2.8,2.3,-5.1,3.2,-7.8,6.4l-2.1,2.2l-2.2,1.8c-2.4,2.1,-4.3,4.7,-6.4,7.1l-1.9,1.8l-.2,.2l-1.8,1.9l-.4,.5l-1,1.7l.1,2.1l.9,1.2l.9,.9c2.8,2.4,5.3,4.9,7.7,7.7l.8,.9l1.3,1.3c3.3,2.6,4.8,4,7.5,7.3l1.1,1l1.3,1.1l.8,.6l1.3,1.6c2.5,2.7,4.3,5.4,7.3,7.9l.6,.6l1.5,2.2l1.6,2.1l.6,.8l1.2,1.3l.9,.9l1.6,1.3l.6,.3l1,1.8l1.1,2.2l.8,2.1l.9,2.1l-.9,2.2l-.8,1.1l-.9,1l-1.2,1.2l-2.2,.9l-.2,.1l-1.9,1l-1.6,1.1l-.6,.5l-1.8,1.6c-1.5,1.8,-2.8,4.3,-3.6,6.5l-1,1.3l-.5,.8l-1.6,1.8l-.4,.4c-2.3,2.5,-3.7,1.6,-6.9,4.2l-1.3,1.1l-1,1.1l-1.1,1.5l-.5,.6l-1.2,2.2l-.5,1l-.4,1.1l-1.7,1.5l-.8,.6l-1.3,.9l-2.2,.7l-2.1,-.8l-1.6,-.8l-.6,-.2c-5,-2.5,-2.9,-2.9,-6.6,-6.2l-1.9,-1.5l-.8,-.6c-4.7,-2.3,-6.3,-5.6,-10.6,-8.6l-1.5,-1.4l-.9,-.7l-1.2,-1.7l-.4,-.5c-2.4,-3,-5.6,-4.6,-8.2,-7.9l-2.1,-2.3c-2.3,-2.3,-4.9,-4.2,-6.6,-6.9l-2,-1.9l-.2,-.2l-1.9,-1.5h-2.2l-2.1,1.3l-.3,.2l-1.9,1.7c-2.5,3.4,-3.9,4,-6.7,6.8l-1.8,1.8l-.3,.4c-2.2,3.4,-5.7,5.4,-7.9,8.5l-.4,.6l-1,1.6l-1.1,1.3l-.6,.8c-3,3.7,-4.6,8.3,-5.9,12.9l-.4,2.1l-1.4,2.1l-.3,.4l-2.1,1l-2.2,-.1l-2.1,-.1l-2.2,-.1l-4.2,-.3h-2.2l-2.1,-.3l-.6,-.5Zm.6,2.5l2.1,.2h4.3l2.1,.1l2.2,.1h2.1l2.2,.1l1.9,-.8l.2,-.1l1.6,-2.1l.5,-.8c1.7,-3,2.1,-7.2,4.3,-10.7l.7,-1.3l1.5,-2.1l1.7,-2.2l.4,-.5c2.3,-2.1,4.2,-4.9,6.4,-7.2l.7,-.9l1.5,-1.8c2.7,-3.4,6,-6.1,9.3,-8.9l1.4,-1.3l.8,-.8l1.3,-1l2.2,.2l.9,.8l1.2,1.2c2.2,2.5,5.6,4.8,7.9,7.4l.7,.7l1.3,1.4c2.6,3.3,5.1,5.6,7.9,8.6l1.5,1.2l1,.9l1.1,.9l1.5,1.3c2.5,2,4.9,4.2,7.1,6.5l2.1,1.7l.4,.3l1.8,1.4l.7,.8l1.4,1.5l.5,.6l3.6,2.1l.2,.1l2.1,1.1l2.2,.9l.2,.1l1.9,.7l2.2,-.6l.1,-.1l2,-1.3c2.6,-2,3.2,-2.1,4.7,-5.1l1.4,-2.2l.3,-.3c2.5,-3,5.2,-3.9,7.9,-6.1l.7,-.6l1.4,-1.5l.7,-.8l1.2,-1.4c1.7,-2.1,2.4,-4.3,4,-6.4l1.2,-1.4l.9,-.8c3.2,-3,5.1,-2.4,7.7,-5.6l.6,-.8l1.5,-2.1l.8,-2.2l-.8,-2.1l-.7,-2.1l-.9,-2.2c-3.1,-7,-9.7,-11.4,-14.5,-17.1l-1,-1.1l-.9,-1c-5.2,-8,-11.2,-10.1,-17,-17.2l-1.3,-1.6l-.5,-.5L366,559.5l-2.1,-1.9l-.2,-.2l-.2,-2.1l.4,-.5l1.5,-1.7l.6,-.6l1.1,-1.5l1.1,-1.3l.6,-.9c1.8,-2.3,3.9,-4.5,6.1,-6.4l1.8,-1.5l.9,-.6l1.3,-1.2c6.2,-5.8,12.7,-11.5,21.4,-13.1l1.3,-.7l.8,-.5l2.1,-1.7l1,-2.1l-.1,-2.1v-2.2l-.1,-2.1l.1,-2.2v-2.1l-.1,-2.2V506l-.8,-.8l-1.2,-1.3l-.9,-.6l-2.1,-1.1l-2.2,-.5l-2.1,-.5l-2.2,-.5l-2.1,-.6l-2.1,-.5c-6.7,-2.3,-12.8,-2.7,-19.3,-4.7l-2.1,-.6l-2.2,-.9l-.4,-.2l-1.7,-1.4c-4.6,-4.9,-10.6,-7.6,-17.2,-8.7l-2.1,-.3l-2.1,-.3c-6.7,-1.6,-15.1,-3.2,-21.5,-5.3l-2.1,-.7l-1.1,-.5l-1,-.5l-2.2,-1.1l-.8,-.5l-1.3,-1c-3.3,-3,-12.6,-5.5,-17.1,-6.2l-2.2,-.5l-2.1,-.5c-7.1,-2.2,-14.2,-3.6,-21.4,-5.1l-2.2,-.6l-2.1,-.5l-1.7,-.6l-.5,-.2l-2.1,-1l-1.8,-.9l-.3,-.2l-2.2,-1.2l-1.1,-.8l-1,-.4l-2.2,-.7l-2.1,-.6l-1.2,-.4l-1,-.3l-2.1,-.5l-2.1,-.5l-2.2,-.5c-7.2,-1.9,-14.3,-2.8,-21.4,-4.5l-.4,-.1l-1.7,-.5l-2.2,-.6l-2.1,-.8l-2.2,1.1c-2.7,1.9,-5,4.4,-6.9,7.2l-1,2.1l.7,2.2l.6,2.1l.2,.7l.4,1.4c1.5,6.2,2.1,12.6,3.9,18.7l.2,.6l.5,2.2c1.9,6,2.4,12.3,5.7,17.5l.7,1.7l.8,2.2l.7,2.1l.7,2.1c2.2,6.7,2.3,13,5,19.3l.7,2.2l.5,2.1c1.7,6.7,2.5,11.9,5.9,18.2l1,1.1l1.2,1.6l.3,.5l1.3,2.2l.5,.9l.6,1.2c2.1,5.7,3.3,11.2,4.5,17.1l.4,2.2l.5,2.1c1.4,7.1,1.3,12.6,4.5,19.3l.2,.4l.9,1.7l1.1,2.2l.1,.2c4.7,4.3,7,10.8,8.5,16.9l.1,.4l.4,1.7c1.6,6.5,3.2,12.7,4.6,19.3l1.1,2.1l.3,.6l1.7,1.6l.5,.3Z" class="gg_425"/>
<path d="M365.1,643l-3.4,-1.8l-.5,-.3c-1.5,-3.6,-4.3,-6.7,-7.7,-8.6l-.3,-.1l-2.2,-1c-2.6,-1.3,-6.5,-5.4,-8.9,-7.4l-1,-2.2l-.8,-1l-.8,-1.1l-1.3,-1.4c-2.9,-2.6,-6,-3.5,-8.6,-7l-.1,-.2l-2,-1.8c-3.4,-2.7,-3.6,-6.3,-7.5,-8.9l-1.1,-.8l-2.1,-1.2l-2.2,-.1l-2.1,1.1l-1.8,1l-.4,.3c-3.5,2.3,-4,5.3,-6.4,7.4l-.8,.9l-1.3,1.3c-1.7,1.9,-3.4,3.9,-5.7,5.1l-.7,.5l-1.9,1.6l-.3,.4l-1.4,1.8c-1.5,2.1,-2.1,4.2,-3.7,6.4l-1.3,2.2l-1,2.1c-1.1,3,-1.9,5.4,-2.5,8.6l-.4,2.1l-.4,.6l-2.1,1.2l-2.2,-.1l-2.1,-.2l-2.2,-.2l-2.1,-.2l-2.1,-.2l-2.2,-.2l-2.1,-.2l-.5,-.5l-.6,-2.1l-.6,-2.2l-.5,-1.7l-.1,-.4l-.4,-2.2l-.4,-2.1l-.6,-2.1l-.5,-2.2l-.1,-.4c-1.3,-7.1,-1.9,-14.4,-5.1,-21l-1.1,-2.1l-.2,-.3l-1.5,-1.9l-.7,-.8l-1.3,-1.3l-.8,-.7l-2.2,-1.3l-.1,-.2l-1,-2.1l-1,-1.9l-.1,-.2l-.5,-2.2l-.2,-2.1l-.3,-2.2l-.2,-2.1l-.2,-2.1l-.4,-2.2c-1.2,-7.1,-1.7,-14.4,-3.4,-21.4l-.6,-2.1l-.5,-1.3l-.4,-.9l-.9,-2.1l-1.3,-2.2l-1.5,-2.1l-.2,-.3l-1.8,-1.9l-.3,-.2l-2.2,-1.5l-.2,-.4l-.9,-2.1l-.6,-2.2l-.4,-1.7l-.1,-.4l-.4,-2.2l-.4,-2.1l-.5,-2.1c-2.4,-8.2,-2.5,-13.2,-3.8,-21.5l-.5,-2.1l-.4,-2.1l-.4,-1.5l-.1,-.7C221,495.6,219,489.1,214,484.9l-.1,-.3l-.7,-2.1c-2.4,-7.5,-3.1,-11.6,-3.9,-19.3L209,461l-.3,-2.1l-.3,-2.1l-.6,-2.2l1.5,-2.1l.4,-.5l1.5,-1.7l.6,-.5l2.2,-1.5l2.1,.5l2.2,.4c3.5,.6,7.1,.9,10.7,1.4l2.1,.2l2.2,.5c2.8,.6,5.7,1.4,8.5,2.1l2.2,.6l2.1,.6l2.1,2.2l2.2,1.6l.7,.5c6.3,4.3,14,5.5,21.4,6.4l1.4,.3l2.2,.2c7.4,.4,14.4,3.1,21.7,3.8l1.8,.5l2.2,.8l1.9,.8l.2,.4c3.8,5.5,10.7,8.7,17.1,9.6l2.2,.5l1.4,.3l.7,.1l2.2,.3l2.1,.3l2.1,.3l2.2,.3l2.1,.4l2.2,.4c3.5,.4,7.1,.9,10.7,1.3l2.1,.5l.7,.3l3.6,2.2l1.2,2.1l.9,1.4c6,7.3,15,7,23.6,8.4l2.1,.2l2.2,.5l.7,.2c3,.7,6.1,1.5,9.1,2.2l.9,.2l2.1,.6l2.2,.6l.8,.7l.2,2.1l.1,2.2l.2,2.1l.1,2.2l.1,2.1l.1,2.2l.2,2.1l-1.2,2.1l-.6,.4l-2.2,.5c-3.1,.6,-5.6,1.3,-8.5,2.5l-2.2,.9l-2.1,1.3c-2.3,1.6,-4.2,2.2,-6.4,3.6l-1.9,1.5l-.3,.3L375,536l-.4,.6c-1.1,2.1,-3.5,4.1,-5.1,5.8l-1.3,1.4l-.8,.7c-2,2.5,-4.6,3,-7.1,6.5l-.7,1l-.7,1.1l-1.1,2.2l.2,2.1l1.2,2.1l.4,.6l1.4,1.6c2.8,3.1,4.4,2.4,7.2,5.7l.6,.7l1.5,1.5c2.9,2.7,3.9,3.5,6,7.1l.4,.5l1.4,1.6l.8,.7l1.8,1.5c3.4,1.4,4.2,3.7,6.7,6.1l.3,.3l1.9,2c1.8,2,2.5,4.7,4.2,6.8l1.6,1.9l.6,.5l2.1,1.6l2.2,1.2l.5,1l1.1,2.1l.5,1.2l.4,.9l-.4,1l-.5,1.2l-1.6,1.7l-1.5,.4l-.7,.3L396,612c-3.5,1.4,-6.3,4,-7.7,7.5l-.9,2.1l-.7,2.2l-1.4,2l-.2,.1l-2,1.8l-1,.4l-1.1,.3l-2.1,.9l-1.5,.9l-.7,.5l-1.9,1.6l-.2,.3c-2.2,1.9,-3.5,5.6,-4.4,8.3l-2,1.7l-1.1,.4l-1.1,.4l-.9,-.4Zm-99.7,.5l2.1,.3h2.2l4.2,.3l2.2,.1l2.1,.1l2.2,.1l2.1,-1l.3,-.4l1.4,-2.1l.4,-2.1c1.3,-4.6,2.9,-9.2,5.9,-12.9l.6,-.8l1.1,-1.3l1,-1.6l.4,-.6c2.2,-3.1,5.7,-5.1,7.9,-8.5l.3,-.4l1.8,-1.8c2.8,-2.8,4.2,-3.4,6.7,-6.8l1.9,-1.7l.3,-.2l2.1,-1.3h2.2l1.9,1.5l.2,.2l2,1.9c1.6,2.5,4,4.4,6.1,6.4l.5,.5l1.5,1.7c2.4,2.7,4.3,4.4,7,6.6l1.8,1.9l.4,.5l1.2,1.7l.9,.7c3.7,2.9,6.8,6.6,10.7,9.2l1.4,.8l.8,.6l1.9,1.5l.2,.2l1.8,2l.3,.4l1.2,1.7l1,.6l2.1,1.3l.6,.2l1.6,.8l2.1,.8l2.2,-.7l1.3,-.9l.8,-.6l1.7,-1.5l.4,-1.1l.5,-1l1.2,-2.2l.5,-.6l1.1,-1.5l1,-1.1c1.9,-1.7,4.1,-3,6.4,-3.9l1.8,-1.4l.4,-.4l1.6,-1.8l.5,-.8c1.8,-2.1,2.1,-4.9,4.3,-7.4l.3,-.4l1.8,-1.6l.6,-.5l1.6,-1.1l1.9,-1l.2,-.1l2.2,-.9l1.2,-1.2l.9,-1l.8,-1.1l.9,-2.2l-.9,-2.1l-.8,-2.1l-1.1,-2.2l-1,-1.8l-.6,-.3l-1.6,-1.3l-.9,-.9L396,594.6l-.6,-.8l-1.6,-2.1l-1.5,-2.2l-.6,-.6c-3,-2.5,-4.8,-5.2,-7.3,-7.9l-1.3,-1.6l-.8,-.6L381,577.7l-1.1,-1c-2.7,-3.3,-4.2,-4.7,-7.5,-7.3l-1.3,-1.3l-.8,-.9c-2.4,-2.8,-4.9,-5.3,-7.7,-7.7l-.9,-.9l-.9,-1.2l-.1,-2.1l1,-1.7l.4,-.5l1.8,-1.9l.2,-.2l1.9,-1.8c2,-2.3,3.8,-4.7,6.1,-6.8l.3,-.3l2.2,-1.8c2.8,-2.8,5,-5.5,8.5,-7.4l1.4,-1.2l.8,-.6l2.1,-1.5l2.2,-1.2c3.4,-1.7,6.9,-2.8,10.7,-3.6l2.1,-1.4l.3,-.3l1.1,-2.1l-.1,-2.1l-.1,-2.2l-.1,-2.1v-4.3l-.1,-2.2l-.1,-2.1l-.9,-.9l-1.5,-1.2l-.6,-.4c-10,-1.9,-17.5,-4.6,-27.9,-5.9l-.5,-.2l-1.6,-.4l-2.1,-.4c-2.5,-.8,-4.5,-1.9,-6.5,-3.6l-1.9,-2l-.2,-.2l-1.5,-1.9l-.7,-.4l-2.1,-1.3l-.7,-.5l-1.4,-.6l-2.2,-.8l-2.1,-.6l-.6,-.1l-1.6,-.2l-2.1,-.3l-2.1,-.3l-2.2,-.4l-2.1,-.3c-8.6,-2.2,-18,-2.4,-25.7,-7.1l-2.2,-1.5l-.8,-.6l-1.3,-1.3l-.7,-.9l-1.4,-.6l-2.2,-.9l-1.6,-.6l-.5,-.2l-2.2,-.6l-2.1,-.5c-3.7,-.6,-7.1,-1.3,-10.7,-2.2l-2.2,-.6l-.7,-.2l-1.4,-.4l-2.1,-.4l-2.2,-.3c-8.8,-1.4,-18.5,-2.5,-25.7,-8.4L251,454.6l-.6,-.2c-9.3,-3,-18.8,-4.9,-28.4,-6.2l-1.6,-.3l-2.1,-.5l-2.2,-.5l-2.1,-.7l-2.2,1.3c-1.8,1.5,-3.2,3.1,-4.8,5l-1.1,2.1l.6,2.2l.5,2.1l.5,2.1l.1,.6c1.1,6.8,1.5,12,3.6,18.7l.6,2.2v.3l.6,1.8l.6,2.1l.7,2.2l.3,1l.7,1.1l1.2,2.2l.2,.3l1.1,1.8l.9,2.1l.2,.6l.6,1.6l.7,2.1l.8,2.7l.5,1.6c1.8,5.9,2,13.2,3.8,18.7l.2,.6l.7,2.1c2.1,7.1,2,12.4,5.5,19.1l.3,.2l1.9,1.9l.2,.2l1.7,2.2l.2,.3l1.1,1.8c2.8,5,4.2,13.6,5.1,19.3l.2,1.1l.2,1c1.7,6.9,1.4,14.6,4.1,20.8l.3,.6l1.2,2.2l.6,1.1l1.2,1c4.7,4.3,6.4,9,8,15l.5,2.1l.5,2.2c1.2,6.6,3.1,12.7,4.3,19.3l.4,2.1l.1,.3l1.6,1.8l.6,.5Z" class="gh_425"/>
<path d="M364,640.9l-.1,-.5l-.6,-1.6l-1.1,-2.2l-.5,-.8c-1.6,-3,-3.5,-4,-6.4,-5.6l-2.1,-.9l-2.2,-.6l-1.2,-.6l-.9,-.5L347,625.9l-.3,-.3l-1.8,-1.8l-.3,-1.1l-.4,-1.1l-1,-2.1l-.7,-1.1l-.8,-1.1c-2.7,-3.7,-6.6,-4.2,-10,-6.4l-1.9,-2.1l-.2,-.2c-2.5,-2.1,-2.3,-5.3,-5.1,-8.4l-1.3,-1.3l-1.1,-.8l-1.1,-.7l-2.1,-1.1l-.9,-.4l-1.2,-.5h-2.2l-1.6,.5l-.5,.2l-2.2,.9l-1.7,1.1l-.4,.2l-2.1,1.6l-.4,.3c-2.7,2.7,-2.6,6.3,-5.4,8.6l-.7,.8l-1.8,1.3l-.3,.2l-2.1,1c-3.4,1.6,-5.5,4,-7.1,7.4l-.8,2.1l-.7,2.2c-2,3.7,-3.1,6.5,-4,10.7l-.3,1.3l-.5,.8l-.9,2.2l-.7,1.6l-2.2,-.6l-2.1,-1l-2.2,-.6l-2.1,-1l-4.3,-1.1l-2.1,-.8l-.3,-.8l-.6,-2.2l-.6,-2.1c-4.2,-11.9,-.3,-29.5,-13.5,-36.4l-2.2,-1l-.6,-1.1l-.7,-2.2c-.7,-6.4,-1.6,-12.8,-2.2,-19.3l-.2,-2.1l-.2,-2.1c-.5,-5.4,-1.4,-12.3,-3.5,-17.2l-1.1,-2.1l-1.2,-2.2l-1,-1l-1.2,-1.1l-.9,-.6l-2.1,-1.5l-2.2,-1.5l-.2,-.7l-.4,-2.1l-.5,-2.2l-.4,-2.1l-.5,-2.1l-.1,-.5l-.4,-1.7l-.4,-2.1l-.6,-2.2l-.3,-2.1c-.5,-6.6,-1,-12.7,-2.1,-19.3l-.3,-2.1l-.2,-1.1l-.2,-1.1l-.5,-2.1c-1.4,-5.1,-2.3,-9.3,-6.6,-12.8l-1.3,-1.1l-1.6,-1.1L214,480l-.6,-1.8l-.6,-2.2l-.7,-2.1l-.3,-.9l-.3,-1.3l-.2,-2.1l-.1,-2.1l-.2,-2.2l-.1,-2.1l-.3,-2.2l-.1,-2.1l-.3,-2.1l-.4,-2.2l1.6,-2.1l.4,-.4l2.2,-1.8l2.1,.4l2.2,.2l2.1,.3l2.1,.2c7.6,.3,10.1,.8,17.2,2.9l1.1,.3l1,1.6c3.3,4,7.9,6.9,12.9,8.3l2.1,.6l1.1,.2l1.1,.2l2.1,.5c7.1,1.4,14.3,1.4,21.4,2.2l2.1,.5l2.2,.4l2.1,.4l.6,.1l1.6,.3l2.1,.4l2.2,.4l2.1,.3l2.1,.6l.5,.1l1,2.2l.7,1.3l.6,.8l1.5,1.6l.7,.6l1.5,1.2l1.6,.9l.5,.3c5.3,2.7,11.3,3.2,17.1,4l2.2,.2l2.1,.2c6.5,.8,12.8,1.5,19.3,2.1l2.1,.9l1.5,.9l.7,1.7c5,14.3,24.8,9.5,36.4,13.6l2.1,.7l2.1,.6l1.8,.5l.4,2.1c.8,4.5,2.1,6.9,3.2,10.8l.5,2.1l-3.7,1.7l-.9,.4l-1.3,.3c-3.3,.8,-5.5,1.5,-8.5,2.9l-2.2,1.1L381,528c-3.5,1.4,-6.4,3,-8.6,6.2l-1.2,1.8l-.9,2.1l-1.4,2.2l-.7,.7c-2.3,2.4,-3.9,2.3,-6.5,4.1l-2.1,1.6l-1.6,2.1l-.6,.9l-.7,1.3l-1,2.1l-.4,1.1l-.3,1.1l.1,2.1l.2,.5l.6,1.6l1.3,2.2l.2,.4l1.3,1.7l.9,.9l1.7,1.3l.4,.2l2.2,1.1l2.1,.8l2.2,2l.1,.1l2,1.9c2.3,2,2.2,5.3,4.3,7.4l1.2,1.5l.9,.9l1.7,1.2l.5,.2l2.1,1.1l2.1,.8l2.2,2.2l2,2.1l.1,.3l1,1.9l.8,2.1l.4,1.1c1.6,4,2.9,5,6.4,7.5l2.1,1.1l2.2,.8l.1,.2l1,2.1l-1,2.2l-.1,.1c-9.1,1.6,-13.2,4.5,-15,13.8l-.3,1.1l-1.9,2c-9.5,2.2,-12.7,5.3,-14.7,15.1l-.2,.2L366,642l-2,-1.1Zm2,2.5l1.1,-.4l1.1,-.4l2,-1.7l.1,-.4c.9,-2.6,2.1,-6,4.3,-7.9l.2,-.3l1.9,-1.6l.7,-.5l1.5,-.9l2.1,-.9l1.1,-.3l1,-.4l2,-1.8l.2,-.1l1.4,-2l.7,-2.2l.9,-2.1c1.4,-3.5,4.2,-6.1,7.7,-7.5l2.1,-.8l.7,-.3l1.5,-.4l1.6,-1.7l.5,-1.2l.4,-1l-.4,-.9l-.5,-1.2l-1.1,-2.1l-.5,-1l-2.2,-1.2L396,598.6l-.6,-.5l-1.6,-1.9c-1.7,-2.1,-2.4,-4.8,-4.2,-6.8l-1.9,-2l-.3,-.3c-2.5,-2.4,-3.3,-4.7,-6.7,-6.1l-1.8,-1.5l-.8,-.7l-1.4,-1.6l-.4,-.5c-2.1,-3.6,-3.1,-4.4,-6,-7.1l-1.5,-1.5l-.6,-.7c-2.8,-3.3,-4.4,-2.6,-7.2,-5.7l-1.4,-1.6l-.4,-.6L358,557.4l-.2,-2.1l1.1,-2.2l.7,-1.1l.7,-1c1.7,-2,3.3,-3.8,5.7,-4.9l1.4,-1.6l.8,-.7c1.8,-2.1,3.6,-3.4,5.4,-5.7l1,-1.5l.4,-.6l1.7,-1.9l.3,-.3l1.9,-1.5l1,-.6l1.1,-.6l2.1,-1l.8,-.5l1.4,-.9l2.1,-1.3c3.4,-1.6,7,-2.7,10.7,-3.4l2.2,-.5l.6,-.4l1.2,-2.1l-.2,-2.1l-.1,-2.2l-.1,-2.1l-.1,-2.2l-.2,-2.1l-.1,-2.2l-.2,-2.1l-.8,-.7l-2.2,-.6l-2.1,-.6c-2.8,-.7,-5.8,-1.4,-8.6,-2l-1.4,-.4l-.7,-.2l-2.2,-.5c-9,-1.4,-19.5,-1,-25.7,-8.6l-.9,-1.4l-1.2,-2.1l-3.6,-2.2l-.7,-.3l-2.1,-.5l-2.2,-.3l-2.1,-.2l-2.1,-.3l-2.2,-.2l-2.1,-.3l-2.2,-.4l-2.1,-.4l-2.2,-.3l-2.1,-.3l-2.1,-.3l-2.2,-.3l-.7,-.1l-1.4,-.3c-7.5,-1.3,-12.5,-2.8,-17.9,-8.3l-1.4,-1.8l-.2,-.4l-1.9,-.8l-2.2,-.8C292.5,468.8,285.4,467,278.2,466l-2.1,-.2l-2.2,-.2c-7.8,-1.2,-16.1,-2,-22.8,-6.7l-.7,-.5l-2.2,-1.6l-2.1,-2.2L244,454l-2.2,-.6c-2.8,-.7,-5.7,-1.5,-8.5,-2.1l-2.2,-.5l-2.1,-.2c-3.6,-.5,-7.2,-.8,-10.7,-1.4l-2.2,-.4l-2.1,-.5l-2.2,1.5l-.6,.5l-1.5,1.7l-.4,.5l-1.5,2.1l.6,2.2l.3,2.1l.3,2.1l.3,2.2c.8,7.7,1.5,11.8,3.9,19.3l.7,2.1l.1,.3c5,4.2,7,10.7,8.4,16.8l.1,.7l.4,1.5l.4,2.1l.5,2.1c1.3,8.3,1.4,13.3,3.8,21.5l.5,2.1l.4,2.1l.4,2.2l.1,.4l.4,1.7l.6,2.2l.9,2.1l.2,.4l2.2,1.5l.3,.2l1.8,1.9l.2,.3l1.5,2.1l1.3,2.2l.9,2.1l.4,.9l.5,1.3l.6,2.1c1.7,7,2.2,14.3,3.4,21.4l.4,2.2l.2,2.1l.2,2.1l.3,2.2l.2,2.1l.5,2.2l.1,.2l1,1.9l1,2.1l.1,.2l2.2,1.3l.8,.7l1.3,1.3l.7,.8l1.5,1.9l.2,.3l1.1,2.1c3.2,6.6,3.8,13.9,5.1,21l.1,.4l.5,2.2l.6,2.1l.4,2.1l.4,2.2l.1,.4l.5,1.7l.6,2.2l.6,2.1l.5,.5l2.1,.2l2.2,.2l2.1,.2l2.1,.2l2.2,.2l2.1,.2l2.2,.1l2.1,-1.2l.4,-.6l.4,-2.1c.6,-3.2,1.4,-5.6,2.5,-8.6l1,-2.1l1.3,-2.2c1.6,-2.2,2.2,-4.3,3.7,-6.4l1.4,-1.8l.3,-.4l1.9,-1.6l.7,-.5c2.3,-1.2,4,-3.2,5.7,-5.1l1.3,-1.3l.8,-.9c2.4,-2.1,2.9,-5.1,6.4,-7.4l.4,-.3l1.8,-1l2.1,-1.1l2.2,.1l2.1,1.2l1.1,.8c4.3,3.1,3.8,5.8,7.2,8.6l.3,.3l2,1.8c2.2,3.2,5.9,4.7,8.7,7.2l1.3,1.4l.8,1.1l.8,1l1,2.2c2.4,2,6.3,6.1,8.9,7.4l2.2,1l.3,.1l1.8,1.2l1.3,1l.8,.8l1.2,1.3l1,1.2l.6,1l1,2.1l.5,.3l3.4,1.8l.9,.4Z" class="gi_425"/>
<path d="M365.8,636.6l-.6,-2.1l-1,-2.2l-.3,-.5l-1.3,-1.6l-.9,-.7l-2.1,-1.1l-.5,-.3l-1.7,-.8l-2.1,-.5l-2.1,-.4l-2.2,-.3l-.4,-.2l-1.7,-.8l-1.3,-1.3l-.3,-2.2l-.6,-2.1l-.5,-2.1L345,615.2l-.4,-.5l-1.3,-1.6l-.8,-.7l-2.2,-1.5l-2.1,-.7l-2.2,-.4l-2.1,-.5l-1.1,-.5l-1.1,-.7l-1.1,-1.5c-.9,-4.2,-.5,-5.4,-3.1,-9.1l-1.6,-1.6l-.6,-.3l-2.1,-1.3l-1.4,-.5l-.8,-.2c-8.4,-2.4,-20.3,.4,-21.4,10.9l-.7,2.1l-1.4,1.1c-14.3,3.3,-10.8,9.2,-14.9,20.4l-.1,.4l-1.2,1.7l-.9,1.6l-2.2,-.5c-3.5,-.9,-7.1,-1.8,-10.7,-2.7l-2.1,-.5l-.7,-2.2l-.6,-2.1c-.4,-4.9,-1.1,-10.1,-1.6,-15l-.3,-2.2l-.2,-2.1c-.9,-5,-2.1,-10.6,-7.3,-12.8l-2.2,-1.5l-2.1,-.7l-1.1,-2.1l-1.1,-1.1c-1,-9.1,-1.8,-17.7,-2.5,-26.8l-.2,-2.1l-.2,-2.1c-.9,-12,-3.2,-13.2,-9.9,-22.2l-2.1,-1.4l-2.2,-1.1l-.2,-1l-.4,-2.2c-2.5,-8.1,-1.4,-18.9,-2.6,-27.8l-.2,-2.2l-.2,-2.1C226.7,487.8,225.3,479,217.2,476l-1.1,-.3l-2.1,-.6l-.4,-1.2c-1.5,-4.2,-.7,-12.2,-1.6,-17.1l-.2,-2.2l2.2,-2.1l2.1,.1c5.1,.6,12.7,.1,17.2,1.5l2.1,.5l.4,2.2l1.2,2.1l.5,1.1c4.7,8.5,23.6,8.7,32.2,9.3l2.1,.1l4.3,.2c5.5,-.3,9.6,1.4,15,2l.7,.2l1.4,2.1l2.2,2.1l2.1,1.5l.5,.7l1.6,1.6l.5,.5l1.7,1.7l.7,.5l1.4,.7l2.2,.8l2.1,.6l2.1,.5l2.2,.3l2.1,.3l2.2,.2c4.9,.6,10,.8,14.9,1.1l2.2,.3l2.1,.3l2.2,.3l2.1,.1l2.2,.3l2.1,.1l2.1,.2l2.2,.2l.2,.1l.7,2.1l.9,2.2l.3,1l.3,1.1l1.1,2.1c2.6,3.6,5.3,4,9.3,5.1l2.2,.3l2.1,.3c5,.4,10,.8,15,1.3l2.1,.1l2.2,.6l2.1,.8l.6,.1l.5,2.1c1.6,5.1,.5,5.7,2.1,10.8l.6,2.1l-1.6,.9l-1.7,1.2l-.5,.2c-5.7,2.7,-13.1,1.3,-17.1,6.7l-1.2,1.7l-1.9,4.3l-.4,2.1l-.8,1.1l-2.1,.6l-.7,.5l-1.5,.5l-2.1,.7l-1.6,.9l-.6,.4l-1.7,1.7l-.4,.6l-.9,1.6l-.9,2.1l-.3,1.1l-.3,1.1c-2,7.8,.5,17.5,9.5,19.2l1.5,.4l2.1,.4l1.7,1.4l.5,.6l.8,1.5l.4,2.2l.6,2.1l.3,.7l.6,1.5l1.1,2.1l.4,.5l2.2,1.6l2.1,1.3l2.2,.6l.7,.3l1.4,.4l2.1,.3l1.6,1.4c3.2,7.8,1,13.9,11.3,16.9l1.1,.2l-1.1,.3l-2.2,.7c-8.1,3.1,-9,5.5,-10.5,14l-.2,.7l-1.4,1.5l-.7,.1l-2.1,.4l-2.2,.5l-2.1,.8l-.6,.3l-1.6,.8l-1.8,1.4l-.3,.3l-1.3,1.8l-.8,2.1l-1.3,2.2l-.6,2.1l-.3,1.1l-.2,-1.1Zm.2,5.4l2.2,-.9l.2,-.2c2,-9.8,5.2,-12.9,14.7,-15.1l1.9,-2l.3,-1.1c1.8,-9.3,5.9,-12.2,15,-13.8l.1,-.1l1,-2.2l-1,-2.1l-.1,-.2l-2.2,-.8L396,602.4c-2.5,-1.7,-4.9,-3.6,-6,-6.5l-.4,-1l-.4,-1.1l-.8,-2.1l-1,-1.9l-.1,-.3l-2,-2.1l-2.2,-2.2l-2.1,-.8l-2.1,-1.1l-.5,-.2l-1.7,-1.2l-.9,-.9c-1.9,-1.9,-2.9,-4,-3.8,-6.5l-1.4,-2.1l-.3,-.3l-2,-1.9l-.1,-.1l-2.2,-2l-2.1,-.8l-2.2,-1.1l-.4,-.2l-1.7,-1.3l-.9,-.9l-1.3,-1.7l-.2,-.4l-1.3,-2.2l-.6,-1.6c-1.1,-2.4,.4,-4.8,1.4,-6.9l.7,-1.3l.6,-.9l1.6,-2.1l2.1,-1.6l.9,-.6l1.3,-.7l2.1,-1l.4,-.4l1.8,-1.4l.7,-.7l1.4,-2.2l.9,-2.1c2.2,-3.4,3.9,-5.3,7.7,-7.1L381,528l2.1,-.6c3.8,-2,6.6,-3,10.7,-4l1.3,-.3l.9,-.4l3.7,-1.7l-.5,-2.1c-1.1,-3.9,-2.4,-6.3,-3.2,-10.8l-.4,-2.1l-1.8,-.5l-2.1,-.6l-2.1,-.7c-11.3,-4.1,-31.2,.5,-36.2,-13.2l-.2,-.4l-.7,-1.7L351,488l-2.1,-.9l-2.2,-.2l-1.4,-.2h-.7l-2.1,-.2l-2.2,-.2l-2.1,-.2l-2.2,-.3l-2.1,-.3l-2.2,-.3l-2.1,-.2l-2.1,-.2c-6.5,-.8,-13.4,-1.2,-19.3,-4.2l-.5,-.3l-1.6,-.9l-1.5,-1.2l-.7,-.6L302.4,476l-.6,-.8l-.7,-1.3l-1,-2.1l-.5,-.2l-2.1,-.6l-2.1,-.3l-2.2,-.4l-2.1,-.4l-1.6,-.3l-.6,-.1l-2.1,-.4l-2.2,-.4c-6.5,-1.4,-14.5,-1.1,-21.4,-2.3l-2.1,-.4l-2.1,-.5l-1.1,-.2l-1.1,-.2c-6,-1.6,-10.3,-3.7,-14.6,-8.3l-.4,-.6l-1,-1.6c-7.8,-2.2,-10,-2.9,-18.3,-3.2l-2.1,-.2l-2.1,-.3l-2.2,-.2l-2.1,-.4l-2.2,1.8l-.4,.4l-1.6,2.1l.4,2.2l.3,2.1l.1,2.1l.3,2.2c.4,8.1,.5,9.1,3.1,16.8l.5,.3l1.6,1.1c4.9,4,5.5,5.9,7.4,11.8l.5,2.1l.5,2.1l.2,1.1l.2,1.1c1,6.4,1.9,12.8,2.2,19.3l.2,2.1l.3,2.1l.6,2.2l.4,2.1l.4,1.7l.1,.5l.5,2.1l.4,2.1l.5,2.2l.4,2.1l.2,.7l2.2,1.5l2.1,1.5l.9,.6l1.2,1.1l1,1l1.2,2.2l1.1,2.1c1.8,4.2,2.7,10.4,3.3,15l.2,2.2l.2,2.1c.5,6.4,1.5,12.9,2.1,19.3l.3,2.1l.7,2.2l.6,1.1c15.5,5.7,11.4,25,15.7,37.4l.6,2.1l.6,2.2l.3,.8l2.1,.8l4.3,1.1l2.1,1l2.2,.6l2.1,1l2.2,.6l.7,-1.6l.9,-2.2l.5,-.8l.3,-1.3c.9,-4.2,2,-7,4,-10.7l.7,-2.2l.8,-2.1c1.6,-3.4,3.7,-5.8,7.1,-7.4l2.1,-1l.3,-.2l1.8,-1.3l.7,-.8c2.8,-2.3,2.7,-5.9,5.4,-8.6l.4,-.3l2.1,-1.6l.4,-.2l1.7,-1.1l2.2,-.9l.5,-.2l1.6,-.5h2.2l1.2,.5l.9,.4l2.1,1.1l1.1,.7l1.1,.8l1.3,1.3c2.8,3.1,2.6,6.3,5.1,8.4l.2,.2l1.9,2.1c3.4,2.2,7.3,2.7,10,6.5l.8,1l.7,1.1l1,2.1l.4,1.1l.3,1.1l1.8,1.8l.3,.3l1.9,1.7l.9,.5l1.2,.6l2.2,.6l2.1,.9c3.5,1.9,5,2.8,6.9,6.4l1.1,2.2l.6,1.6l.1,.5l2,1.1Z" class="g1_425"/>
<path d="M171.2,683.7v2.7" class="gj_425"/>
<path d="M171.2,689.2c.6,0,1.1,.2,1.4,.7c.3,.5,.5,1.2,.5,2.2c0,.9,-.2,1.6,-.5,2.1c-.3,.5,-.8,.8,-1.4,.8c-.7,0,-1.1,-.3,-1.5,-.8c-.3,-.5,-.5,-1.2,-.5,-2.1c0,-1,.2,-1.7,.5,-2.2c.4,-.5,.8,-.7,1.5,-.7Zm0,.6c-.4,0,-.7,.2,-.9,.6c-.2,.3,-.3,.9,-.3,1.7c0,.7,.1,1.3,.3,1.7c.2,.4,.5,.6,.9,.6c.3,0,.6,-.2,.8,-.6c.2,-.4,.3,-1,.3,-1.7c0,-.8,-.1,-1.4,-.3,-1.7c-.2,-.4,-.5,-.6,-.8,-.6Z" class="gk_425"/>
<path d="M205.2,683.7v2.7" class="gj_425"/>
<path d="M204.2,694.2h2.6v.6h-3.5v-.6c.3,-.3,.7,-.7,1.2,-1.2c.4,-.5,.8,-.8,.9,-.9c.2,-.3,.4,-.5,.5,-.7c.1,-.2,.1,-.4,.1,-.6c0,-.3,-.1,-.5,-.3,-.7c-.2,-.2,-.5,-.3,-.8,-.3c-.2,0,-.5,.1,-.7,.1c-.3,.1,-.6,.3,-.9,.4v-.7c.3,-.2,.6,-.3,.9,-.3c.2,-.1,.5,-.1,.7,-.1c.6,0,1,.1,1.4,.4c.3,.3,.5,.7,.5,1.2c0,.2,-.1,.4,-.1,.6c-.1,.2,-.3,.5,-.5,.7c-.1,.1,-.3,.3,-.6,.7c-.3,.3,-.8,.8,-1.4,1.4Z" class="gk_425"/>
<path d="M239.1,683.7v2.7" class="gj_425"/>
<path d="M239.4,689.3h.9v3.6h.8v.6h-.8v1.3h-.7v-1.3h-2.5v-.7l2.3,-3.5Zm.2,.6l-1.9,3h1.9v-3Z" class="gk_425"/>
<path d="M273.1,683.7v2.7" class="gj_425"/>
<path d="M274.7,689.4v.7c-.2,-.1,-.4,-.2,-.6,-.2c-.1,-.1,-.3,-.1,-.5,-.1c-.5,0,-.9,.2,-1.2,.5c-.2,.4,-.4,.9,-.4,1.5c.1,-.2,.3,-.3,.5,-.5c.3,-.1,.5,-.1,.8,-.1c.5,0,1,.1,1.3,.5c.3,.3,.5,.8,.5,1.4c0,.5,-.2,1,-.5,1.3c-.4,.4,-.8,.6,-1.4,.6c-.6,0,-1.1,-.3,-1.4,-.8c-.4,-.5,-.6,-1.2,-.6,-2.1c0,-.9,.3,-1.6,.7,-2.1c.4,-.5,.9,-.8,1.6,-.8c.2,0,.4,0,.6,0c.2,.1,.4,.1,.6,.2Zm-1.5,2.4c-.3,0,-.6,.1,-.8,.3c-.2,.2,-.3,.6,-.3,1c0,.4,.1,.7,.3,.9c.2,.2,.5,.4,.8,.4c.4,0,.6,-.2,.8,-.4c.2,-.2,.3,-.5,.3,-.9c0,-.4,-.1,-.8,-.3,-1c-.2,-.2,-.4,-.3,-.8,-.3Z" class="gk_425"/>
<path d="M307.1,683.7v2.7" class="gj_425"/>
<path d="M306.1,690.7c0,.3,.1,.5,.3,.7c.1,.1,.4,.2,.7,.2c.3,0,.6,-.1,.8,-.2c.2,-.2,.3,-.4,.3,-.7c0,-.3,-.1,-.5,-.3,-.7c-.2,-.1,-.5,-.2,-.8,-.2c-.3,0,-.6,.1,-.7,.2c-.2,.2,-.3,.4,-.3,.7Zm.3,1.2c-.3,-.1,-.6,-.2,-.8,-.5c-.2,-.2,-.2,-.5,-.2,-.8c0,-.4,.1,-.8,.4,-1c.3,-.3,.8,-.4,1.3,-.4c.6,0,1,.1,1.3,.4c.3,.2,.5,.6,.5,1c0,.3,-.1,.6,-.3,.8c-.2,.3,-.4,.4,-.7,.5c.3,.1,.6,.2,.8,.5c.2,.2,.3,.5,.3,.9c0,.5,-.1,.9,-.5,1.2c-.3,.3,-.8,.5,-1.4,.5c-.6,0,-1.1,-.2,-1.4,-.5c-.3,-.3,-.5,-.7,-.5,-1.2c0,-.4,.1,-.7,.3,-.9c.2,-.3,.5,-.4,.9,-.5Zm.7,.3c-.3,0,-.6,.1,-.8,.3c-.2,.2,-.3,.4,-.3,.8c0,.3,.1,.6,.3,.8c.2,.2,.5,.3,.8,.3c.4,0,.7,-.1,.9,-.3c.2,-.2,.3,-.5,.3,-.8c0,-.4,-.1,-.6,-.3,-.8c-.2,-.2,-.5,-.3,-.9,-.3Z" class="gk_425"/>
<path d="M341.1,683.7v2.7" class="gj_425"/>
<path d="M337.2,694.2h1.2V690l-1.3,.2v-.6l1.3,-.3h.8v4.9h1.2v.6h-3.2v-.6Z" class="gk_425"/>
<path d="M343.5,689.2c.7,0,1.1,.2,1.5,.7c.3,.5,.5,1.2,.5,2.2c0,.9,-.2,1.6,-.5,2.1c-.4,.5,-.8,.8,-1.5,.8c-.6,0,-1.1,-.3,-1.4,-.8c-.3,-.5,-.5,-1.2,-.5,-2.1c0,-1,.2,-1.7,.5,-2.2c.3,-.5,.8,-.7,1.4,-.7Zm0,.6c-.3,0,-.6,.2,-.8,.6c-.2,.3,-.3,.9,-.3,1.7c0,.7,.1,1.3,.3,1.7c.2,.4,.5,.6,.8,.6c.4,0,.7,-.2,.9,-.6c.2,-.4,.3,-1,.3,-1.7c0,-.8,-.1,-1.4,-.3,-1.7c-.2,-.4,-.5,-.6,-.9,-.6Z" class="gk_425"/>
<path d="M375.1,683.7v2.7" class="gj_425"/>
<path d="M371.2,694.2h1.2V690l-1.3,.2v-.6l1.3,-.3h.8v4.9h1.2v.6h-3.2v-.6Z" class="gk_425"/>
<path d="M376.6,694.2h2.6v.6h-3.5v-.6c.3,-.3,.6,-.7,1.1,-1.2c.5,-.5,.8,-.8,1,-.9c.2,-.3,.4,-.5,.5,-.7c.1,-.2,.1,-.4,.1,-.6c0,-.3,-.1,-.5,-.3,-.7c-.2,-.2,-.5,-.3,-.8,-.3c-.2,0,-.5,.1,-.8,.1c-.2,.1,-.5,.3,-.8,.4v-.7c.3,-.2,.6,-.3,.8,-.3c.3,-.1,.6,-.1,.8,-.1c.5,0,1,.1,1.3,.4c.4,.3,.6,.7,.6,1.2c0,.2,-.1,.4,-.2,.6c-.1,.2,-.2,.5,-.4,.7c-.1,.1,-.3,.3,-.6,.7c-.4,.3,-.8,.8,-1.4,1.4Z" class="gk_425"/>
<path d="M409.1,683.7v2.7" class="gj_425"/>
<path d="M405.2,694.2h1.2V690l-1.3,.2v-.6l1.3,-.3h.8v4.9h1.2v.6h-3.2v-.6Z" class="gk_425"/>
<path d="M411.8,689.3h.9v3.6h.8v.6h-.8v1.3H412v-1.3h-2.5v-.7l2.3,-3.5Zm.2,.6l-1.9,3H412v-3Z" class="gk_425"/>
<path d="M443.1,683.7v2.7" class="gj_425"/>
<path d="M439.2,694.2h1.2V690l-1.3,.2v-.6l1.3,-.3h.8v4.9h1.2v.6h-3.2v-.6Z" class="gk_425"/>
<path d="M447.1,689.4v.7c-.2,-.1,-.4,-.2,-.6,-.2c-.2,-.1,-.4,-.1,-.5,-.1c-.5,0,-.9,.2,-1.2,.5c-.2,.4,-.4,.9,-.4,1.5c.1,-.2,.3,-.3,.5,-.5c.2,-.1,.5,-.1,.7,-.1c.6,0,1,.1,1.4,.5c.3,.3,.5,.8,.5,1.4c0,.5,-.2,1,-.6,1.3c-.3,.4,-.7,.6,-1.3,.6c-.6,0,-1.1,-.3,-1.5,-.8c-.3,-.5,-.5,-1.2,-.5,-2.1c0,-.9,.2,-1.6,.6,-2.1c.5,-.5,1,-.8,1.7,-.8c.2,0,.4,0,.6,0c.2,.1,.4,.1,.6,.2Zm-1.5,2.4c-.3,0,-.6,.1,-.8,.3c-.2,.2,-.3,.6,-.3,1c0,.4,.1,.7,.3,.9c.2,.2,.5,.4,.8,.4c.3,0,.6,-.2,.8,-.4c.2,-.2,.3,-.5,.3,-.9c0,-.4,-.1,-.8,-.3,-1c-.2,-.2,-.5,-.3,-.8,-.3Z" class="gk_425"/>
<path d="M171.2,683.7h-2.7" class="gj_425"/>
<path d="M163.4,681c.6,0,1.1,.2,1.4,.7c.4,.5,.5,1.2,.5,2.1c0,1,-.1,1.7,-.5,2.2c-.3,.5,-.8,.7,-1.4,.7c-.6,0,-1.1,-.2,-1.4,-.7c-.3,-.5,-.5,-1.2,-.5,-2.2c0,-.9,.2,-1.6,.5,-2.1c.3,-.5,.8,-.7,1.4,-.7Zm0,.6c-.4,0,-.7,.2,-.9,.5c-.2,.4,-.3,1,-.3,1.7c0,.8,.1,1.4,.3,1.8c.2,.3,.5,.5,.9,.5c.4,0,.7,-.2,.9,-.5c.2,-.4,.3,-1,.3,-1.8c0,-.7,-.1,-1.3,-.3,-1.7c-.2,-.3,-.5,-.5,-.9,-.5Z" class="gk_425"/>
<path d="M171.2,649.7h-2.7" class="gj_425"/>
<path d="M162.4,652h2.7v.6h-3.6V652c.3,-.3,.7,-.7,1.2,-1.2c.5,-.5,.8,-.8,.9,-1c.3,-.2,.4,-.5,.5,-.6c.1,-.2,.2,-.4,.2,-.6c0,-.3,-.1,-.5,-.3,-.7c-.2,-.2,-.5,-.3,-.8,-.3c-.3,0,-.5,.1,-.8,.1c-.2,.1,-.5,.2,-.8,.4v-.8c.3,-.1,.6,-.2,.8,-.2c.3,-.1,.5,-.1,.8,-.1c.5,0,1,.1,1.3,.4c.4,.3,.5,.7,.5,1.2c0,.2,0,.4,-.1,.6c-.1,.2,-.2,.5,-.5,.7c0,.1,-.2,.3,-.5,.7c-.4,.3,-.8,.8,-1.5,1.4Z" class="gk_425"/>
<path d="M171.2,615.7h-2.7" class="gj_425"/>
<path d="M163.7,613.1h.9v3.6h.8v.6h-.8v1.3h-.7v-1.3h-2.5v-.7l2.3,-3.5Zm.2,.6l-1.9,3h1.9v-3Z" class="gk_425"/>
<path d="M171.2,581.8h-2.7" class="gj_425"/>
<path d="M165,579.2v.7c-.2,-.1,-.4,-.2,-.6,-.2c-.2,-.1,-.4,-.1,-.6,-.1c-.4,0,-.8,.2,-1.1,.5c-.2,.4,-.4,.9,-.4,1.5c.1,-.2,.3,-.3,.5,-.5c.2,-.1,.5,-.1,.7,-.1c.6,0,1,.1,1.4,.5c.3,.3,.5,.8,.5,1.4c0,.5,-.2,1,-.6,1.3c-.3,.4,-.7,.6,-1.3,.6c-.6,0,-1.1,-.3,-1.5,-.8c-.3,-.5,-.5,-1.2,-.5,-2.1c0,-.9,.2,-1.6,.6,-2.1c.5,-.5,1,-.8,1.7,-.8c.2,0,.4,0,.6,.1c.2,0,.4,0,.6,.1Zm-1.5,2.4c-.3,0,-.6,.1,-.8,.3c-.2,.2,-.3,.6,-.3,1c0,.4,.1,.7,.3,.9c.2,.2,.5,.4,.8,.4c.3,0,.6,-.2,.8,-.4c.2,-.2,.3,-.5,.3,-.9c0,-.4,-.1,-.8,-.3,-1c-.2,-.2,-.5,-.3,-.8,-.3Z" class="gk_425"/>
<path d="M171.2,547.8h-2.7" class="gj_425"/>
<path d="M162.4,546.5c0,.3,.1,.5,.3,.7c.1,.1,.4,.2,.7,.2c.3,0,.6,-.1,.8,-.2c.1,-.2,.2,-.4,.2,-.7c0,-.3,-.1,-.5,-.2,-.7c-.2,-.1,-.5,-.2,-.8,-.2c-.3,0,-.6,.1,-.7,.2c-.2,.2,-.3,.4,-.3,.7Zm.3,1.2c-.4,-.1,-.6,-.2,-.8,-.4c-.2,-.3,-.3,-.5,-.3,-.9c0,-.4,.2,-.8,.5,-1c.3,-.3,.8,-.4,1.3,-.4c.6,0,1,.1,1.3,.4c.3,.2,.5,.6,.5,1c0,.4,-.1,.6,-.3,.9c-.2,.2,-.4,.3,-.7,.4c.3,.1,.6,.2,.8,.5c.2,.2,.3,.5,.3,.9c0,.5,-.2,.9,-.5,1.2c-.3,.3,-.8,.5,-1.4,.5c-.6,0,-1.1,-.2,-1.4,-.5c-.3,-.3,-.5,-.7,-.5,-1.2c0,-.4,.1,-.7,.3,-.9c.2,-.3,.5,-.4,.9,-.5Zm.7,.3c-.3,0,-.6,.1,-.8,.3c-.2,.2,-.3,.5,-.3,.8c0,.3,.1,.6,.3,.8c.2,.2,.5,.3,.8,.3c.4,0,.6,-.1,.8,-.3c.3,-.2,.4,-.5,.4,-.8c0,-.3,-.1,-.6,-.3,-.8c-.3,-.2,-.5,-.3,-.9,-.3Z" class="gk_425"/>
<path d="M171.2,513.8h-2.7" class="gj_425"/>
<path d="M157.1,516h1.2v-4.2l-1.3,.3v-.7l1.3,-.3h.8V516h1.2v.7h-3.2V516Z" class="gk_425"/>
<path d="M163.4,511c.6,0,1.1,.3,1.4,.8c.4,.4,.5,1.2,.5,2.1c0,.9,-.1,1.6,-.5,2.1c-.3,.5,-.8,.8,-1.4,.8c-.6,0,-1.1,-.3,-1.4,-.8c-.3,-.5,-.5,-1.2,-.5,-2.1c0,-.9,.2,-1.7,.5,-2.1c.3,-.5,.8,-.8,1.4,-.8Zm0,.6c-.4,0,-.7,.2,-.9,.6c-.2,.4,-.3,.9,-.3,1.7c0,.8,.1,1.3,.3,1.7c.2,.4,.5,.6,.9,.6c.4,0,.7,-.2,.9,-.6c.2,-.4,.3,-.9,.3,-1.7c0,-.8,-.1,-1.3,-.3,-1.7c-.2,-.4,-.5,-.6,-.9,-.6Z" class="gk_425"/>
<path d="M171.2,479.8h-2.7" class="gj_425"/>
<path d="M157.1,482h1.2v-4.2l-1.3,.3v-.7l1.3,-.3h.8V482h1.2v.7h-3.2V482Z" class="gk_425"/>
<path d="M162.4,482h2.7v.7h-3.6V482c.3,-.3,.7,-.7,1.2,-1.1c.5,-.5,.8,-.9,.9,-1c.3,-.3,.4,-.5,.5,-.7c.1,-.2,.2,-.4,.2,-.5c0,-.3,-.1,-.6,-.3,-.8c-.2,-.2,-.5,-.2,-.8,-.2c-.3,0,-.5,0,-.8,.1c-.2,.1,-.5,.2,-.8,.3v-.7c.3,-.1,.6,-.2,.8,-.3c.3,0,.5,-.1,.7,-.1c.6,0,1.1,.2,1.4,.5c.4,.2,.5,.6,.5,1.1c0,.2,0,.5,-.1,.7c-.1,.2,-.2,.4,-.5,.7c0,0,-.2,.3,-.5,.6c-.4,.3,-.8,.8,-1.5,1.4Z" class="gk_425"/>
<path d="M171.2,445.8h-2.7" class="gj_425"/>
<path d="M157.1,448h1.2v-4.2l-1.3,.3v-.7l1.3,-.3h.8V448h1.2v.7h-3.2V448Z" class="gk_425"/>
<path d="M163.7,443.1h.9v3.6h.8v.7h-.8v1.3h-.7v-1.3h-2.5v-.8l2.3,-3.5Zm.2,.7l-1.9,2.9h1.9v-2.9Z" class="gk_425"/>
<path d="M171.2,411.8h-2.7" class="gj_425"/>
<path d="M157.1,414.1h1.2v-4.3l-1.3,.3v-.7l1.3,-.3h.8v5h1.2v.6h-3.2v-.6Z" class="gk_425"/>
<path d="M165,409.3v.6c-.2,0,-.4,-.1,-.6,-.2c-.2,0,-.4,0,-.6,0c-.4,0,-.8,.1,-1.1,.5c-.2,.3,-.4,.8,-.4,1.5c.1,-.2,.3,-.4,.5,-.5c.2,-.1,.5,-.2,.7,-.2c.6,0,1,.2,1.4,.5c.3,.4,.5,.8,.5,1.4c0,.6,-.2,1,-.6,1.4c-.3,.3,-.7,.5,-1.3,.5c-.6,0,-1.1,-.2,-1.5,-.7c-.3,-.5,-.5,-1.2,-.5,-2.2c0,-.9,.2,-1.6,.6,-2.1c.5,-.5,1,-.8,1.7,-.8c.2,0,.4,.1,.6,.1c.2,0,.4,.1,.6,.2Zm-1.5,2.3c-.3,0,-.6,.1,-.8,.4c-.2,.2,-.3,.5,-.3,.9c0,.4,.1,.7,.3,1c.2,.2,.5,.3,.8,.3c.3,0,.6,-.1,.8,-.3c.2,-.3,.3,-.6,.3,-1c0,-.4,-.1,-.7,-.3,-.9c-.2,-.3,-.5,-.4,-.8,-.4Z" class="gk_425"/>
<path d="M171.2,683.7V411.8M443.1,683.7V411.8M171.2,683.7H443.1M171.2,411.8H443.1" class="gl_425"/>
<path d="M261.3,647.4l-.6,-.9l-.5,-.9l-.4,-.8l-.4,-.9l-.4,-.8l-.3,-.9l-.3,-.9l-.3,-.8l-.2,-.9l-.2,-.9l-.3,-.9l-.2,-.9l-.2,-1l-.2,-.9l-.3,-1l-.3,-1m5.1,14.4l.6,.8l.6,.7l.6,.6l.6,.5l.7,.4l.6,.3l.7,.3l.7,.2l.8,.1l.8,.1h3.5l1,-.1h3l1,-.1h1.8l.8,-.1l.8,-.1l.8,-.2l.7,-.2l.8,-.2l.7,-.4l.6,-.4l.7,-.4l.7,-.6l.6,-.7l.7,-.8l.6,-.8l.5,-.8l.5,-.8l.4,-.8l.4,-.8l.4,-.8l.3,-.8l.3,-.7l.3,-.8l.4,-.8l.3,-.8l.3,-.8l.4,-.8l.4,-.9l.5,-.8l.5,-.9m56.6,7.9l-.7,-.7l-.6,-.6l-.6,-.6l-.5,-.6l-.4,-.5l-.4,-.5l-.4,-.5l-.4,-.4l-.4,-.5l-.4,-.4l-.5,-.5l-.4,-.5l-.5,-.6l-.6,-.5l-.7,-.7l-.7,-.6m8.2,8.7l.7,.7l.7,.6l.6,.6l.5,.4l.5,.4l.5,.3l.5,.3l.5,.2l.5,.3l.6,.2l.5,.2l.6,.2l.7,.2l.8,.3l.8,.3l1,.4l.9,.4l1,.3l.9,.2l1,.3l.9,.1l.9,.1l.9,.1h.8l.9,-.1l.9,-.1l.9,-.2l.8,-.3l.9,-.3l.9,-.4l.8,-.5l.9,-.6l.8,-.5l.7,-.5l.6,-.5l.6,-.5l.4,-.4l.4,-.4l.4,-.4l.3,-.4l.3,-.4l.4,-.5l.3,-.4l.4,-.5l.5,-.5l.5,-.6l.6,-.7l.7,-.7M256.2,633l-.2,-1l-.3,-1l-.3,-1l-.3,-1l-.2,-.9l-.3,-1l-.3,-.9l-.3,-1l-.3,-.9l-.3,-.9l-.3,-.9l-.4,-1l-.3,-.9l-.4,-1l-.4,-.9l-.4,-1m41.5,16.5l.6,-.9l.4,-.7l.5,-.6l.4,-.6l.4,-.4l.4,-.5l.4,-.4l.4,-.3l.4,-.4l.4,-.3l.4,-.4l.5,-.4l.5,-.5l.6,-.5l.7,-.6l.7,-.7l.7,-.7l.6,-.7l.5,-.6l.5,-.6l.4,-.6l.4,-.5l.4,-.6l.3,-.5l.4,-.5l.3,-.5l.4,-.6l.4,-.5l.5,-.6l.5,-.7l.6,-.6l.7,-.8m23.6,9.4l-.7,-.7l-.6,-.7l-.5,-.6l-.5,-.6l-.4,-.5l-.4,-.5l-.4,-.5l-.4,-.5l-.3,-.5l-.4,-.5l-.4,-.5l-.4,-.6l-.5,-.6l-.5,-.6l-.6,-.6l-.7,-.8m7.7,9.3l.7,.7l.7,.6l.6,.5l.6,.5l.5,.5l.6,.3l.5,.4l.5,.4m0,0l.5,.3l.5,.4l.5,.3l.6,.4l.6,.5l.6,.5l.7,.6l.8,.7m40.4,5.4l.7,-.7l.6,-.6l.7,-.5l.5,-.5l.5,-.4l.6,-.4l.4,-.3l.5,-.4l.5,-.3l.5,-.4l.5,-.4l.5,-.4l.5,-.5l.6,-.5l.6,-.7l.7,-.7l.7,-.8l.5,-.7l.5,-.6l.5,-.7l.4,-.6l.3,-.5l.4,-.6l.3,-.5l.3,-.5l.3,-.6l.4,-.5l.4,-.6l.5,-.6l.5,-.6l.6,-.7l.7,-.7M248,612.1l-.6,-.9l-.5,-.9l-.5,-.8l-.4,-.8l-.5,-.8l-.4,-.9l-.3,-.8l-.4,-.8l-.3,-.8l-.4,-.8l-.3,-.9l-.3,-.8l-.3,-.9l-.3,-.9l-.3,-1l-.3,-1m6.1,13.8l.5,.8l.4,.6l.3,.4l.2,.4l.2,.2l.1,.1l.1,.1h.1v.1l.1,.1l.1,.2l.1,.2l.1,.4l.2,.5l.3,.6l.4,.9M308,616.4l.8,-.7l.9,-.6l.9,-.5l1,-.4l1,-.4l1.1,-.2l1.1,-.1l1.1,-.1l1.1,.1l1.1,.2l1.1,.2l1.1,.3l1,.5l.9,.5l.9,.6l.8,.7m73.8,4.8l.8,-.7l.6,-.6l.6,-.5l.6,-.4l.5,-.4l.5,-.4l.4,-.3l.5,-.3l.4,-.3l.5,-.4l.4,-.3l.5,-.5l.5,-.5l.5,-.6l.5,-.6l.7,-.8l.6,-.9l.5,-.8l.4,-.8l.4,-.9l.2,-.8l.3,-.9l.1,-.8l.1,-.9v-1.7l-.1,-.9l-.2,-.9l-.2,-.9l-.2,-1l-.3,-.9l-.4,-1M241.9,598.3l-.3,-1l-.3,-1l-.3,-1l-.2,-1l-.2,-1l-.2,-1l-.2,-1l-.2,-1l-.2,-1l-.2,-1l-.2,-1l-.2,-1l-.2,-1l-.3,-1l-.2,-1.1l-.2,-1m169.1,17.4l-.3,-1l-.3,-.8l-.2,-.8l-.2,-.7l-.2,-.7L406,595l-.2,-.5l-.2,-.6l-.2,-.5l-.3,-.5l-.3,-.5l-.3,-.5l-.5,-.6l-.5,-.6l-.6,-.7l-.7,-.7M238.3,582.2l-.3,-1l-.2,-1l-.3,-1l-.3,-1l-.2,-1l-.3,-1l-.3,-.9l-.2,-1l-.3,-.9l-.3,-1l-.3,-1l-.3,-.9l-.4,-1l-.3,-1l-.3,-.9l-.4,-1m159.5,14.7l-.6,-.8l-.6,-.6l-.5,-.7l-.5,-.6l-.4,-.5l-.4,-.6l-.3,-.5l-.4,-.5l-.3,-.5l-.3,-.5l-.4,-.6l-.4,-.5l-.5,-.6l-.6,-.6l-.6,-.7l-.7,-.7m7.5,9.5l.7,.7l.7,.7l.6,.5l.5,.5l.5,.5l.5,.4l.5,.4l.5,.4l.5,.3l.5,.4l.5,.4l.5,.5l.6,.5l.6,.5l.7,.6l.7,.7m-171,-27.4l-.5,-1l-.4,-.9l-.4,-.9l-.4,-.9l-.4,-.9l-.4,-.9l-.3,-.9l-.4,-.8l-.3,-.9l-.3,-.9L227,552l-.3,-.9l-.3,-.9l-.3,-1l-.3,-1l-.3,-1m5.7,14.7l.4,.8l.3,.6l.3,.4l.1,.3l.1,.1l.1,.1h.1v-.1l.1,.1v.1l.2,.3l.1,.5l.3,.6l.3,.9m142.7,-2.5l-.8,-.8l-.6,-.8l-.5,-.9l-.4,-1l-.4,-1l-.2,-1.1l-.2,-1.1v-2.1l.1,-1.1l.2,-1.1l.3,-1l.5,-1l.5,-.9l.6,-.9l.7,-.8m.2,15.6l.7,.7l.7,.6l.6,.6l.6,.4l.5,.5l.5,.3l.6,.4l.5,.3l.5,.4l.5,.3l.5,.4l.5,.4l.6,.5l.6,.6l.7,.6l.7,.7M225.5,547.2l-.3,-1l-.2,-1l-.3,-1l-.2,-1l-.3,-1l-.2,-1l-.3,-1l-.2,-.9l-.2,-1l-.3,-1l-.2,-1l-.3,-1l-.3,-.9l-.3,-1l-.3,-1l-.4,-1m154.9,17.1l.7,-.7l.6,-.6l.7,-.6l.6,-.4l.5,-.5l.5,-.3l.6,-.4l.5,-.4l.5,-.3l.5,-.4l.6,-.3l.5,-.5l.6,-.4l.7,-.6l.6,-.6l.8,-.7l.7,-.7l.6,-.6l.5,-.6l.5,-.5l.4,-.5l.3,-.5l.4,-.4l.3,-.4l.4,-.4l.4,-.4l.4,-.3l.5,-.4l.5,-.5l.7,-.4l.7,-.5l.8,-.5M221.2,531.4l-.3,-1l-.4,-1l-.4,-1l-.3,-1l-.4,-1l-.4,-.9l-.4,-1l-.3,-1l-.4,-.9l-.4,-1l-.3,-1l-.4,-1l-.4,-1l-.3,-.9l-.4,-1l-.3,-1m178.3,17.5l.9,-.6l.9,-.4l.8,-.4l.9,-.4l.8,-.4l.8,-.3l.8,-.3l.7,-.3l.8,-.3l.8,-.4l.8,-.3l.7,-.4l.8,-.4l.8,-.5l.9,-.6l.8,-.6l.8,-.6l.7,-.7l.5,-.6l.5,-.7l.5,-.7l.3,-.7l.3,-.7l.2,-.7l.1,-.8l.2,-.8l.1,-.8v-.9l.1,-.9v-1l.1,-1v-1M213.6,511.8l-.4,-1l-.3,-.9l-.4,-1l-.3,-.9l-.3,-1l-.3,-.9l-.2,-1l-.3,-.9l-.2,-.9l-.2,-1l-.3,-.9l-.2,-1l-.2,-1l-.2,-1l-.2,-1l-.2,-1m4.2,15.4l.3,.9l.3,.6l.1,.4l.1,.2l.1,.1v-.5l.1,.1l.1,.2l.1,.4l.3,.6l.3,.9M411.1,514l.1,-1v-1l.1,-1v-2.6l-.1,-.9l-.2,-.8m0,0l-.2,-.7l-.2,-.7l-.4,-.7l-.4,-.7l-.5,-.7l-.6,-.6L408,502l-.9,-.6m-197.7,-5l-.2,-1.1l-.2,-1l-.2,-1l-.2,-1.1l-.2,-1l-.2,-1l-.3,-1.1l-.2,-1l-.2,-1l-.2,-1.1l-.2,-1l-.2,-1l-.2,-1l-.3,-1.1l-.2,-1l-.2,-1m170.9,11.3l-.9,-.3l-.6,-.2l-.5,-.2l-.2,-.1l-.2,-.1h.2l.1,-.1h-.1l-.1,-.1l-.2,-.2l-.5,-.2l-.6,-.2l-.8,-.4m4.4,2.1l1,.3l1,.3l1,.3l1,.4l1,.3l.9,.3l1,.3l1,.3l1,.3l1,.3l.9,.3l1,.3l1,.3l1,.3l1,.3l1,.4l1,.3l1,.3l.9,.2l1,.3l.9,.2l.9,.3l.9,.2l.9,.3l.8,.3l.9,.3l.9,.3l.8,.4l.9,.4l.9,.4l.8,.5l.9,.5M206,479.9l-.2,-1.1l-.3,-1l-.2,-1l-.2,-1l-.2,-1l-.2,-1l-.2,-1l-.2,-1l-.2,-1l-.2,-1l-.2,-1l-.3,-1l-.2,-1l-.3,-1l-.3,-1l-.3,-1M326.5,473l-.8,-.4l-.7,-.2l-.4,-.2l-.2,-.1l-.2,-.1v-.1h.2v-.1l-.1,-.1l-.3,-.1l-.4,-.2l-.6,-.3l-.9,-.4m4.4,2.3l1,.4l1,.4l.9,.3l1,.4l.9,.4l1,.3l.9,.3l.9,.4l1,.3l.9,.3l1,.3l.9,.4l1,.3l1,.3l1,.3l1,.2l1,.3l1,.3l1,.2l1,.3l1,.2l1,.2l1,.2l1,.2l.9,.2l1,.3l1,.2l1,.3l1,.2l1,.3l.9,.3l1,.4l1,.3l1,.4l.9,.4l1,.4l.9,.5l.9,.4l.8,.4l.9,.5l.9,.4l.9,.4l.9,.5l.9,.4l.9,.5l.9,.4l1,.4l1,.4M202.3,463.8l-.3,-1l-.3,-1.2l-.3,-1.2l-.2,-1.3l-.1,-1.3l-.1,-1.4v-2.7l.1,-1.3l.2,-1.4l.2,-1.2l.3,-1.3l.4,-1.1l.5,-1.1l.6,-.9l.7,-.9m71,11.6l-.9,-.3l-.6,-.2l-.4,-.1l-.2,-.1h-.1h.6v-.1l-.3,-.1l-.3,-.2l-.6,-.2l-.9,-.3m3.7,1.6l1,.3l1,.3l1,.4l1,.3l1,.3l1,.4l1,.3l1,.4l1,.3l.9,.4l1,.4l1,.3l1,.4l1,.3l1,.3l1,.4m0,0l1,.3l1,.3l1,.3l1,.2l1,.3l1,.2l1,.2l1,.3l1,.2l1,.2l1,.2l1,.2l1,.2l1,.3l1,.2l1.1,.3l1,.2l1,.3l.9,.3l1,.3l1,.3l.9,.3l.9,.3l.9,.3l1,.3l.9,.4l.9,.3l.9,.4l1,.3l.9,.4l1,.4l.9,.4M204,444.5l.8,-.7l.9,-.6l1.1,-.6l1.1,-.4l1.2,-.4l1.3,-.2l1.4,-.2l1.4,-.2H216l1.4,.1l1.3,.1l1.3,.2l1.3,.2l1.1,.3l1.1,.4l1,.3l1,.3l1,.3l.9,.3l1,.2l1,.3l1,.2l1,.2l1,.2l1,.2l1,.2l1,.2l1,.2l1,.2l1,.2l1,.2l1.1,.3l1,.2l1,.2l1.1,.2l1,.2l1,.2l1,.2l1,.2l1.1,.2l1,.2l1,.3l1,.2l1,.2l1,.2l1.1,.3l1,.2l1,.3l1,.2l1,.3l1,.2l1,.3l.9,.3l1,.2l.9,.3l1,.3l.9,.3l1,.3l.9,.3l1,.4l.9,.3l1,.4l1,.3" class="gm_425"/>
</svg>