<?xml version="1.0" encoding="UTF-8" standalone="no"?>
<!DOCTYPE svg PUBLIC "-//W3C//DTD SVG 1.1//EN"
"http://www.w3.org/Graphics/SVG/1.1/DTD/svg11.dtd">
<svg viewBox="0 0 811 1017" version="1.1" xmlns="http://www.w3.org/2000/svg" xmlns:xlink="http://www.w3.org/1999/xlink">
<defs>
<clipPath id="c0_64"><path d="M142.4,302.5V82.5h220v220Z"/></clipPath>
<clipPath id="c1_64"><path d="M142.4,823.7V603.6h220V823.7Z"/></clipPath>
<style type="text/css"><![CDATA[
.g0_64{
fill: #0E0E0E;
}
]]></style>
</defs>
<image clip-path="url(#c0_64)" preserveAspectRatio="none" x="142" y="83" width="220" height="220" xlink:href="img/1.jpg"/>
<path d="M634.8,463.9h-1.1v-8.5h1.1Zm-1.8,.7h2.5v-4h1.1l2.9,4h3.1l-3.2,-4.2c1.2,-.4,1.9,-1.4,1.9,-2.7c0,-2.2,-1.6,-2.9,-3.5,-2.9H633v9.8Zm8.3,-.7h-1.5l-2.4,-3.3c.4,0,.8,0,1.3,-.1l2.6,3.4Zm-2.7,-4.1c-.3,.1,-.5,.1,-.8,.1h-2.3v-4.5h2.4c.2,0,.5,.1,.7,.1v4.3Zm.7,-4.2c.9,.4,1.3,1.1,1.3,2.1c0,.9,-.5,1.8,-1.3,2.1v-4.2Z" class="g0_64"/>
<path d="M648.8,459.2h.3l1.6,-6c.1,-.2,.1,-.3,.2,-.5c.1,-.2,.3,-.7,.6,-.8c.1,-.1,.3,-.1,.5,-.1v-.1h-2.2l-.1,.1c.2,0,.5,.1,.6,.2c.2,.2,.2,.6,.2,.9c0,.1,0,.2,-.1,.4l-1,3.9v.2l-2.6,-5.7h-1.9l-.1,.1c.5,0,.6,0,.7,.2c.3,.2,.4,.7,.4,1c0,.1,0,.2,0,.3l-1.2,4.4c-.1,.3,-.3,.7,-.6,.9c-.2,.3,-.6,.4,-.9,.4l-.1,.2h2.8l.1,-.2c-.3,0,-.6,0,-.8,-.2c-.1,-.2,-.3,-.5,-.3,-.8c0,-.1,0,-.2,.1,-.4l1.1,-4.3l.1,-.2l2.6,6.1Z" class="g0_64"/>
<path d="M230.3,484.3h-1.1v-8.5h1.1Zm-1.8,.7H231v-4h1.1l2.9,4h3.1l-3.2,-4.2c1.2,-.4,1.9,-1.4,1.9,-2.7c0,-2.1,-1.6,-2.9,-3.5,-2.9h-4.8V485Zm8.3,-.7h-1.5L232.9,481c.4,0,.9,0,1.3,-.1l2.6,3.4Zm-2.7,-4.1c-.2,.1,-.5,.1,-.8,.1H231v-4.5h2.4c.2,0,.5,.1,.7,.1v4.3Zm.7,-4.2c.9,.4,1.4,1.1,1.4,2.1c0,.9,-.5,1.8,-1.4,2.1V476Z" class="g0_64"/>
<image clip-path="url(#c1_64)" preserveAspectRatio="none" x="142" y="604" width="220" height="220" xlink:href="img/2.jpg"/>
</svg>