<?xml version="1.0" encoding="UTF-8" standalone="no"?>
<!DOCTYPE svg PUBLIC "-//W3C//DTD SVG 1.1//EN"
"http://www.w3.org/Graphics/SVG/1.1/DTD/svg11.dtd">
<svg viewBox="0 0 811 1017" version="1.1" xmlns="http://www.w3.org/2000/svg" xmlns:xlink="http://www.w3.org/1999/xlink">
<defs>
<style type="text/css"><![CDATA[
.g0_272{
fill: #FFF;
}
.g1_272{
fill: #D74562;
}
.g2_272{
fill: none;
stroke: #D74562;
stroke-width: 0.982;
stroke-linejoin: round;
}
.g3_272{
fill: none;
stroke: #B0B2B1;
stroke-width: 0.785;
stroke-linecap: square;
stroke-linejoin: round;
}
.g4_272{
fill: none;
stroke: #040504;
stroke-width: 0.785;
stroke-linejoin: round;
}
.g5_272{
fill: #040504;
}
.g6_272{
fill: none;
stroke: #D74562;
stroke-width: 1.472;
stroke-linecap: square;
stroke-linejoin: round;
}
.g7_272{
fill: none;
stroke: #040504;
stroke-width: 0.785;
stroke-linecap: square;
}
]]></style>
</defs>
<path d="M177.4,481.4H528V220.1H177.4Z" class="g0_272"/>
<path d="M219.9,452.7c.8,0,1.6,-.3,2.1,-.9c.6,-.6,.9,-1.3,.9,-2.1c0,-.8,-.3,-1.5,-.9,-2.1c-.5,-.5,-1.3,-.8,-2.1,-.8c-.7,0,-1.5,.3,-2,.8c-.6,.6,-.9,1.3,-.9,2.1c0,.8,.3,1.5,.9,2.1c.5,.6,1.3,.9,2,.9Z" class="g1_272"/>
<path d="M219.9,452.7c.8,0,1.6,-.3,2.1,-.9c.6,-.6,.9,-1.3,.9,-2.1c0,-.8,-.3,-1.5,-.9,-2.1c-.5,-.5,-1.3,-.8,-2.1,-.8c-.7,0,-1.5,.3,-2,.8c-.6,.6,-.9,1.3,-.9,2.1c0,.8,.3,1.5,.9,2.1c.5,.6,1.3,.9,2,.9Z" class="g2_272"/>
<path d="M485.5,254.8c.8,0,1.6,-.4,2.1,-.9c.6,-.6,.9,-1.3,.9,-2.1c0,-.8,-.3,-1.5,-.9,-2.1c-.5,-.5,-1.3,-.8,-2.1,-.8c-.7,0,-1.5,.3,-2,.8c-.6,.6,-.9,1.3,-.9,2.1c0,.8,.3,1.5,.9,2.1c.5,.5,1.3,.9,2,.9Z" class="g1_272"/>
<path d="M485.5,254.8c.8,0,1.6,-.4,2.1,-.9c.6,-.6,.9,-1.3,.9,-2.1c0,-.8,-.3,-1.5,-.9,-2.1c-.5,-.5,-1.3,-.8,-2.1,-.8c-.7,0,-1.5,.3,-2,.8c-.6,.6,-.9,1.3,-.9,2.1c0,.8,.3,1.5,.9,2.1c.5,.5,1.3,.9,2,.9Z" class="g2_272"/>
<path d="M219.9,481.4V220.1" class="g3_272"/>
<path d="M219.9,481.4v3.4" class="g4_272"/>
<path d="M215.3,488.4c.8,0,1.4,.3,1.8,1c.4,.6,.6,1.5,.6,2.7c0,1.3,-.2,2.2,-.6,2.8c-.4,.6,-1,1,-1.8,1c-.8,0,-1.5,-.4,-1.9,-1c-.4,-.6,-.6,-1.5,-.6,-2.8c0,-1.2,.2,-2.1,.6,-2.7c.4,-.7,1.1,-1,1.9,-1Zm0,.8c-.5,0,-.9,.2,-1.2,.7c-.2,.5,-.3,1.3,-.3,2.2c0,1,.1,1.8,.3,2.3c.3,.4,.7,.7,1.2,.7c.5,0,.8,-.3,1.1,-.7c.2,-.5,.4,-1.3,.4,-2.3c0,-.9,-.2,-1.7,-.4,-2.2c-.3,-.5,-.6,-.7,-1.1,-.7Z" class="g5_272"/>
<path d="M219.4,495.7h1v-1.2h-1Z" class="g5_272"/>
<path d="M224.6,488.4c.8,0,1.4,.3,1.9,1c.4,.6,.6,1.5,.6,2.7c0,1.3,-.2,2.2,-.6,2.8c-.5,.6,-1.1,1,-1.9,1c-.8,0,-1.4,-.4,-1.8,-1c-.4,-.6,-.7,-1.5,-.7,-2.8c0,-1.2,.3,-2.1,.7,-2.7c.4,-.7,1,-1,1.8,-1Zm0,.8c-.5,0,-.8,.2,-1.1,.7c-.3,.5,-.4,1.3,-.4,2.2c0,1,.1,1.8,.4,2.3c.3,.4,.6,.7,1.1,.7c.5,0,.9,-.3,1.2,-.7c.2,-.5,.3,-1.3,.3,-2.3c0,-.9,-.1,-1.7,-.3,-2.2c-.3,-.5,-.7,-.7,-1.2,-.7Z" class="g5_272"/>
<path d="M273.1,481.4V220.1" class="g3_272"/>
<path d="M273.1,481.4v3.4" class="g4_272"/>
<path d="M268.4,488.4c.8,0,1.4,.3,1.8,1c.4,.6,.6,1.5,.6,2.7c0,1.3,-.2,2.2,-.6,2.8c-.4,.6,-1,1,-1.8,1c-.8,0,-1.4,-.4,-1.9,-1c-.4,-.6,-.6,-1.5,-.6,-2.8c0,-1.2,.2,-2.1,.6,-2.7c.5,-.7,1.1,-1,1.9,-1Zm0,.8c-.5,0,-.9,.2,-1.1,.7c-.3,.5,-.4,1.3,-.4,2.2c0,1,.1,1.8,.4,2.3c.2,.4,.6,.7,1.1,.7c.5,0,.9,-.3,1.1,-.7c.3,-.5,.4,-1.3,.4,-2.3c0,-.9,-.1,-1.7,-.4,-2.2c-.2,-.5,-.6,-.7,-1.1,-.7Z" class="g5_272"/>
<path d="M272.6,495.7h1v-1.2h-1Z" class="g5_272"/>
<path d="M276.5,494.9h3.4v.8h-4.6v-.8c.4,-.4,.9,-.9,1.5,-1.5c.7,-.7,1.1,-1.1,1.2,-1.3c.3,-.3,.6,-.6,.7,-.9c.1,-.2,.2,-.4,.2,-.7c0,-.3,-.2,-.7,-.4,-.9c-.3,-.2,-.6,-.4,-1.1,-.4c-.3,0,-.6,.1,-.9,.2c-.4,.1,-.7,.3,-1.1,.5v-1c.4,-.2,.7,-.3,1.1,-.4c.3,0,.6,-.1,.9,-.1c.8,0,1.3,.2,1.8,.6c.4,.4,.6,.9,.6,1.5c0,.3,0,.5,-.1,.8c-.1,.3,-.3,.6,-.6,.9c-.1,.1,-.4,.4,-.8,.8c-.4,.5,-1,1.1,-1.8,1.9Z" class="g5_272"/>
<path d="M326.2,481.4V220.1" class="g3_272"/>
<path d="M326.2,481.4v3.4" class="g4_272"/>
<path d="M321.5,488.4c.8,0,1.4,.3,1.8,1c.5,.6,.7,1.5,.7,2.7c0,1.3,-.2,2.2,-.7,2.8c-.4,.6,-1,1,-1.8,1c-.8,0,-1.4,-.4,-1.8,-1c-.5,-.6,-.7,-1.5,-.7,-2.8c0,-1.2,.2,-2.1,.7,-2.7c.4,-.7,1,-1,1.8,-1Zm0,.8c-.5,0,-.9,.2,-1.1,.7c-.3,.5,-.4,1.3,-.4,2.2c0,1,.1,1.8,.4,2.3c.2,.4,.6,.7,1.1,.7c.5,0,.9,-.3,1.1,-.7c.3,-.5,.4,-1.3,.4,-2.3c0,-.9,-.1,-1.7,-.4,-2.2c-.2,-.5,-.6,-.7,-1.1,-.7Z" class="g5_272"/>
<path d="M325.7,495.7h1v-1.2h-1Z" class="g5_272"/>
<path d="M331.2,488.6h1.2v4.6h1v.8h-1v1.7h-.9V494h-3.3v-.9l3,-4.5Zm.3,.8l-2.5,3.8h2.5v-3.8Z" class="g5_272"/>
<path d="M379.3,481.4V220.1" class="g3_272"/>
<path d="M379.3,481.4v3.4" class="g4_272"/>
<path d="M374.6,488.4c.8,0,1.4,.3,1.9,1c.4,.6,.6,1.5,.6,2.7c0,1.3,-.2,2.2,-.6,2.8c-.5,.6,-1.1,1,-1.9,1c-.8,0,-1.4,-.4,-1.8,-1c-.4,-.6,-.7,-1.5,-.7,-2.8c0,-1.2,.3,-2.1,.7,-2.7c.4,-.7,1,-1,1.8,-1Zm0,.8c-.5,0,-.9,.2,-1.1,.7c-.3,.5,-.4,1.3,-.4,2.2c0,1,.1,1.8,.4,2.3c.2,.4,.6,.7,1.1,.7c.5,0,.9,-.3,1.1,-.7c.3,-.5,.4,-1.3,.4,-2.3c0,-.9,-.1,-1.7,-.4,-2.2c-.2,-.5,-.6,-.7,-1.1,-.7Z" class="g5_272"/>
<path d="M378.8,495.7h1v-1.2h-1Z" class="g5_272"/>
<path d="M386,488.7v.9c-.2,-.1,-.5,-.2,-.7,-.3c-.3,0,-.5,-.1,-.7,-.1c-.7,0,-1.2,.3,-1.5,.7c-.4,.4,-.5,1.1,-.6,1.9c.2,-.2,.4,-.4,.7,-.6c.3,-.1,.6,-.2,1,-.2c.7,0,1.2,.2,1.7,.6c.4,.5,.6,1.1,.6,1.8c0,.8,-.2,1.3,-.7,1.8c-.4,.4,-1,.7,-1.7,.7c-.8,0,-1.5,-.4,-1.9,-1c-.4,-.6,-.7,-1.5,-.7,-2.8c0,-1.1,.3,-2,.9,-2.7c.5,-.6,1.2,-1,2.1,-1c.3,0,.5,.1,.7,.1c.3,0,.6,.1,.8,.2Zm-1.9,3.1c-.4,0,-.8,.1,-1,.4c-.3,.3,-.4,.7,-.4,1.2c0,.5,.1,.9,.4,1.2c.2,.3,.6,.5,1,.5c.4,0,.8,-.2,1,-.5c.3,-.3,.4,-.7,.4,-1.2c0,-.5,-.1,-.9,-.4,-1.2c-.2,-.3,-.6,-.4,-1,-.4Z" class="g5_272"/>
<path d="M432.4,481.4V220.1" class="g3_272"/>
<path d="M432.4,481.4v3.4" class="g4_272"/>
<path d="M427.7,488.4c.8,0,1.4,.3,1.9,1c.4,.6,.6,1.5,.6,2.7c0,1.3,-.2,2.2,-.6,2.8c-.5,.6,-1.1,1,-1.9,1c-.8,0,-1.4,-.4,-1.8,-1c-.4,-.6,-.6,-1.5,-.6,-2.8c0,-1.2,.2,-2.1,.6,-2.7c.4,-.7,1,-1,1.8,-1Zm0,.8c-.5,0,-.8,.2,-1.1,.7c-.2,.5,-.4,1.3,-.4,2.2c0,1,.2,1.8,.4,2.3c.3,.4,.6,.7,1.1,.7c.5,0,.9,-.3,1.2,-.7c.2,-.5,.3,-1.3,.3,-2.3c0,-.9,-.1,-1.7,-.3,-2.2c-.3,-.5,-.7,-.7,-1.2,-.7Z" class="g5_272"/>
<path d="M431.9,495.7h1v-1.2h-1Z" class="g5_272"/>
<path d="M435.8,490.4c0,.3,.1,.6,.3,.8c.3,.3,.6,.4,1,.4c.4,0,.7,-.1,1,-.4c.2,-.2,.3,-.5,.3,-.8c0,-.4,-.1,-.7,-.3,-.9c-.3,-.2,-.6,-.3,-1,-.3c-.4,0,-.7,.1,-1,.3c-.2,.2,-.3,.5,-.3,.9Zm.3,1.5c-.4,-.1,-.7,-.3,-.9,-.6c-.3,-.3,-.4,-.6,-.4,-1c0,-.6,.2,-1,.6,-1.4c.4,-.3,1,-.5,1.7,-.5c.7,0,1.3,.2,1.7,.5c.4,.4,.6,.8,.6,1.4c0,.4,-.1,.7,-.4,1c-.2,.3,-.5,.5,-.9,.6c.4,.1,.8,.3,1.1,.6c.2,.4,.4,.7,.4,1.2c0,.7,-.3,1.2,-.7,1.6c-.4,.4,-1,.6,-1.8,.6c-.8,0,-1.4,-.2,-1.8,-.6c-.4,-.4,-.7,-.9,-.7,-1.6c0,-.5,.2,-.8,.4,-1.2c.3,-.3,.7,-.5,1.1,-.6Zm1,.4c-.5,0,-.8,.1,-1.1,.4c-.3,.2,-.4,.6,-.4,1c0,.4,.1,.8,.4,1c.3,.3,.6,.4,1.1,.4c.5,0,.8,-.1,1.1,-.4c.3,-.2,.4,-.6,.4,-1c0,-.4,-.1,-.8,-.4,-1c-.3,-.3,-.6,-.4,-1.1,-.4Z" class="g5_272"/>
<path d="M485.5,481.4V220.1" class="g3_272"/>
<path d="M485.5,481.4v3.4" class="g4_272"/>
<path d="M478.9,494.9h1.6v-5.5l-1.7,.4v-.9l1.7,-.3h1v6.3h1.6v.8h-4.2v-.8Z" class="g5_272"/>
<path d="M485,495.7h1v-1.2h-1Z" class="g5_272"/>
<path d="M490.2,488.4c.8,0,1.4,.3,1.9,1c.4,.6,.6,1.5,.6,2.7c0,1.3,-.2,2.2,-.6,2.8c-.5,.6,-1.1,1,-1.9,1c-.8,0,-1.4,-.4,-1.8,-1c-.4,-.6,-.7,-1.5,-.7,-2.8c0,-1.2,.3,-2.1,.7,-2.7c.4,-.7,1,-1,1.8,-1Zm0,.8c-.5,0,-.9,.2,-1.1,.7c-.3,.5,-.4,1.3,-.4,2.2c0,1,.1,1.8,.4,2.3c.2,.4,.6,.7,1.1,.7c.5,0,.9,-.3,1.1,-.7c.3,-.5,.4,-1.3,.4,-2.3c0,-.9,-.1,-1.7,-.4,-2.2c-.2,-.5,-.6,-.7,-1.1,-.7Z" class="g5_272"/>
<path d="M355.2,503.8l-1.9,2.6l2,2.7h-1L352.7,507l-1.5,2.1h-1.1l2.1,-2.8l-1.9,-2.5h1l1.5,1.9l1.4,-1.9h1Z" class="g5_272"/>
<path d="M177.4,449.7H528" class="g3_272"/>
<path d="M177.4,449.7H174" class="g4_272"/>
<path d="M158.1,446.2c.8,0,1.4,.3,1.8,.9c.4,.6,.7,1.6,.7,2.8c0,1.2,-.3,2.1,-.7,2.7c-.4,.7,-1,1,-1.8,1c-.8,0,-1.4,-.3,-1.9,-1c-.4,-.6,-.6,-1.5,-.6,-2.7c0,-1.2,.2,-2.2,.6,-2.8c.5,-.6,1.1,-.9,1.9,-.9Zm0,.7c-.5,0,-.9,.3,-1.1,.8c-.3,.5,-.4,1.2,-.4,2.2c0,1,.1,1.7,.4,2.2c.2,.5,.6,.7,1.1,.7c.5,0,.9,-.2,1.1,-.7c.3,-.5,.4,-1.2,.4,-2.2c0,-1,-.1,-1.7,-.4,-2.2c-.2,-.5,-.6,-.8,-1.1,-.8Z" class="g5_272"/>
<path d="M162.3,453.4h1v-1.2h-1Z" class="g5_272"/>
<path d="M166.2,452.6h3.4v.8h-4.5v-.8c.3,-.3,.8,-.9,1.5,-1.5c.6,-.6,1,-1.1,1.1,-1.2c.4,-.4,.6,-.7,.7,-.9c.1,-.3,.2,-.5,.2,-.7c0,-.4,-.2,-.7,-.4,-1c-.3,-.2,-.6,-.3,-1.1,-.3c-.3,0,-.6,0,-.9,.1c-.4,.1,-.7,.3,-1.1,.5v-1c.4,-.1,.8,-.2,1.1,-.3c.3,-.1,.6,-.1,.9,-.1c.8,0,1.4,.1,1.8,.5c.4,.4,.7,.9,.7,1.5c0,.3,-.1,.6,-.2,.8c-.1,.3,-.3,.6,-.6,1c-.1,.1,-.3,.3,-.8,.8c-.4,.4,-1,1,-1.8,1.8Z" class="g5_272"/>
<path d="M177.4,410.1H528" class="g3_272"/>
<path d="M177.4,410.1H174" class="g4_272"/>
<path d="M158.1,406.6c.8,0,1.4,.3,1.8,.9c.4,.7,.7,1.6,.7,2.8c0,1.2,-.3,2.1,-.7,2.8c-.4,.6,-1,.9,-1.8,.9c-.8,0,-1.4,-.3,-1.9,-.9c-.4,-.7,-.6,-1.6,-.6,-2.8c0,-1.2,.2,-2.1,.6,-2.8c.5,-.6,1.1,-.9,1.9,-.9Zm0,.7c-.5,0,-.9,.3,-1.1,.8c-.3,.5,-.4,1.2,-.4,2.2c0,1,.1,1.7,.4,2.2c.2,.5,.6,.7,1.1,.7c.5,0,.9,-.2,1.1,-.7c.3,-.5,.4,-1.2,.4,-2.2c0,-1,-.1,-1.7,-.4,-2.2c-.2,-.5,-.6,-.8,-1.1,-.8Z" class="g5_272"/>
<path d="M162.3,413.9h1v-1.3h-1Z" class="g5_272"/>
<path d="M168.3,410c.5,.1,.8,.3,1.1,.6c.3,.3,.4,.7,.4,1.2c0,.7,-.3,1.2,-.7,1.6c-.5,.4,-1.2,.6,-2.1,.6c-.3,0,-.6,0,-.9,-.1c-.4,0,-.7,-.1,-1,-.2v-1c.2,.2,.5,.3,.9,.4c.3,.1,.6,.1,1,.1c.6,0,1,-.1,1.3,-.4c.4,-.2,.5,-.6,.5,-1c0,-.4,-.1,-.8,-.4,-1c-.3,-.2,-.7,-.4,-1.3,-.4h-.8v-.8h.9c.5,0,.8,-.1,1.1,-.2c.2,-.2,.4,-.5,.4,-.9c0,-.3,-.2,-.6,-.4,-.8c-.3,-.2,-.7,-.3,-1.2,-.3c-.2,0,-.5,0,-.8,.1c-.3,0,-.6,.1,-1,.2v-.8c.4,-.1,.7,-.2,1,-.2c.3,-.1,.7,-.1,.9,-.1c.8,0,1.4,.1,1.8,.5c.4,.3,.6,.8,.6,1.3c0,.4,-.1,.8,-.3,1c-.2,.3,-.6,.5,-1,.6Z" class="g5_272"/>
<path d="M177.4,370.6H528" class="g3_272"/>
<path d="M177.4,370.6H174" class="g4_272"/>
<path d="M158.1,367c.8,0,1.4,.3,1.8,1c.4,.6,.7,1.5,.7,2.7c0,1.2,-.3,2.1,-.7,2.8c-.4,.6,-1,.9,-1.8,.9c-.8,0,-1.4,-.3,-1.9,-.9c-.4,-.7,-.6,-1.6,-.6,-2.8c0,-1.2,.2,-2.1,.6,-2.7c.5,-.7,1.1,-1,1.9,-1Zm0,.8c-.5,0,-.9,.2,-1.1,.7c-.3,.5,-.4,1.2,-.4,2.2c0,1,.1,1.7,.4,2.2c.2,.5,.6,.8,1.1,.8c.5,0,.9,-.3,1.1,-.8c.3,-.5,.4,-1.2,.4,-2.2c0,-1,-.1,-1.7,-.4,-2.2c-.2,-.5,-.6,-.7,-1.1,-.7Z" class="g5_272"/>
<path d="M162.3,374.3h1v-1.2h-1Z" class="g5_272"/>
<path d="M167.8,367.1H169v4.7h1v.8h-1v1.7h-1v-1.7h-3.2v-.9l3,-4.6Zm.2,.9l-2.4,3.8H168V368Z" class="g5_272"/>
<path d="M177.4,331H528" class="g3_272"/>
<path d="M177.4,331H174" class="g4_272"/>
<path d="M158.1,327.4c.8,0,1.4,.3,1.8,1c.4,.6,.7,1.5,.7,2.7c0,1.2,-.3,2.2,-.7,2.8c-.4,.6,-1,.9,-1.8,.9c-.8,0,-1.4,-.3,-1.9,-.9c-.4,-.6,-.6,-1.6,-.6,-2.8c0,-1.2,.2,-2.1,.6,-2.7c.5,-.7,1.1,-1,1.9,-1Zm0,.8c-.5,0,-.9,.2,-1.1,.7c-.3,.5,-.4,1.2,-.4,2.2c0,1,.1,1.7,.4,2.2c.2,.5,.6,.8,1.1,.8c.5,0,.9,-.3,1.1,-.8c.3,-.5,.4,-1.2,.4,-2.2c0,-1,-.1,-1.7,-.4,-2.2c-.2,-.5,-.6,-.7,-1.1,-.7Z" class="g5_272"/>
<path d="M162.3,334.7h1v-1.2h-1Z" class="g5_272"/>
<path d="M165.4,327.5h3.8v.9h-2.9v1.7c.1,0,.3,-.1,.4,-.1c.1,0,.3,0,.4,0c.8,0,1.5,.2,1.9,.6c.5,.5,.7,1.1,.7,1.8c0,.8,-.2,1.4,-.7,1.8c-.5,.4,-1.2,.6,-2,.6c-.3,0,-.6,0,-.9,0c-.4,-.1,-.7,-.2,-1,-.3v-.9c.3,.1,.6,.2,.9,.3c.3,.1,.6,.1,1,.1c.5,0,.9,-.1,1.3,-.4c.3,-.3,.4,-.7,.4,-1.2c0,-.5,-.1,-.9,-.4,-1.2c-.4,-.3,-.8,-.4,-1.3,-.4c-.3,0,-.6,0,-.8,.1c-.3,0,-.5,.1,-.8,.2v-3.6Z" class="g5_272"/>
<path d="M177.4,291.4H528" class="g3_272"/>
<path d="M177.4,291.4H174" class="g4_272"/>
<path d="M158.1,287.8c.8,0,1.4,.4,1.8,1c.4,.6,.7,1.5,.7,2.8c0,1.2,-.3,2.1,-.7,2.7c-.4,.6,-1,1,-1.8,1c-.8,0,-1.4,-.4,-1.9,-1c-.4,-.6,-.6,-1.5,-.6,-2.7c0,-1.3,.2,-2.2,.6,-2.8c.5,-.6,1.1,-1,1.9,-1Zm0,.8c-.5,0,-.9,.2,-1.1,.7c-.3,.5,-.4,1.3,-.4,2.3c0,.9,.1,1.7,.4,2.2c.2,.4,.6,.7,1.1,.7c.5,0,.9,-.3,1.1,-.7c.3,-.5,.4,-1.3,.4,-2.2c0,-1,-.1,-1.8,-.4,-2.3c-.2,-.5,-.6,-.7,-1.1,-.7Z" class="g5_272"/>
<path d="M162.3,295.1h1v-1.2h-1Z" class="g5_272"/>
<path d="M169.5,288.1v.9c-.2,-.1,-.5,-.2,-.7,-.3c-.3,0,-.5,-.1,-.8,-.1c-.6,0,-1.1,.3,-1.4,.7c-.4,.4,-.6,1.1,-.6,2c.2,-.3,.4,-.5,.7,-.7c.3,-.1,.6,-.2,.9,-.2c.7,0,1.3,.2,1.7,.6c.4,.5,.7,1.1,.7,1.8c0,.8,-.3,1.3,-.7,1.8c-.4,.4,-1,.7,-1.7,.7c-.9,0,-1.5,-.4,-1.9,-1c-.5,-.6,-.7,-1.5,-.7,-2.7c0,-1.2,.3,-2.1,.8,-2.8c.6,-.6,1.3,-1,2.2,-1c.2,0,.5,.1,.7,.1c.3,.1,.5,.1,.8,.2Zm-1.9,3.1c-.5,0,-.8,.1,-1.1,.4c-.2,.3,-.3,.7,-.3,1.2c0,.5,.1,.9,.3,1.2c.3,.3,.6,.5,1.1,.5c.4,0,.7,-.2,1,-.5c.3,-.3,.4,-.7,.4,-1.2c0,-.5,-.1,-.9,-.4,-1.2c-.3,-.3,-.6,-.4,-1,-.4Z" class="g5_272"/>
<path d="M177.4,251.8H528" class="g3_272"/>
<path d="M177.4,251.8H174" class="g4_272"/>
<path d="M158.1,248.3c.8,0,1.4,.3,1.8,.9c.4,.6,.7,1.6,.7,2.8c0,1.2,-.3,2.1,-.7,2.7c-.4,.7,-1,1,-1.8,1c-.8,0,-1.4,-.3,-1.9,-1c-.4,-.6,-.6,-1.5,-.6,-2.7c0,-1.2,.2,-2.2,.6,-2.8c.5,-.6,1.1,-.9,1.9,-.9Zm0,.7c-.5,0,-.9,.3,-1.1,.8c-.3,.4,-.4,1.2,-.4,2.2c0,.9,.1,1.7,.4,2.2c.2,.5,.6,.7,1.1,.7c.5,0,.9,-.2,1.1,-.7c.3,-.5,.4,-1.3,.4,-2.2c0,-1,-.1,-1.8,-.4,-2.2c-.2,-.5,-.6,-.8,-1.1,-.8Z" class="g5_272"/>
<path d="M162.3,255.5h1v-1.2h-1Z" class="g5_272"/>
<path d="M165.1,248.4h4.6v.4l-2.6,6.7h-1l2.5,-6.3h-3.5v-.8Z" class="g5_272"/>
<path d="M149.5,350.5c.6,.3,1.1,.5,1.2,.7c.2,.3,.3,.6,.3,1v.7h-.7v-.5c0,-.3,-.1,-.5,-.2,-.6c-.1,-.1,-.4,-.3,-.8,-.4l-.4,-.2l-5.3,2.2v-1l4.2,-1.6l-4.2,-1.7v-.9l5.9,2.3Z" class="g5_272"/>
<path d="M193.4,469.5l2.6,-2C300.5,389.7,405,311.8,509.4,234l2.7,-2" class="g6_272"/>
<path d="M177.4,481.4V220.1M528,481.4V220.1M177.4,481.4H528M177.4,220.1H528" class="g7_272"/>
<path d="M296.1,205.7h1.2v7.6h4.2v1h-5.4v-8.6Z" class="g5_272"/>
<path d="M302.6,205.3h1.1v1.3h-1.1Zm0,2.5h1.1v6.5h-1.1Z" class="g5_272"/>
<path d="M311.3,210.4v3.9h-1.1v-3.9c0,-.6,-.1,-1.1,-.3,-1.4c-.3,-.3,-.6,-.4,-1.1,-.4c-.6,0,-1,.2,-1.4,.5c-.3,.4,-.5,.9,-.5,1.5v3.7h-1v-6.5h1v1c.3,-.4,.6,-.7,.9,-.9c.4,-.1,.8,-.2,1.2,-.2c.8,0,1.3,.2,1.7,.6c.4,.5,.6,1.2,.6,2.1Z" class="g5_272"/>
<path d="M317.8,210.5c0,-.6,-.1,-1.1,-.5,-1.4c-.3,-.4,-.7,-.5,-1.2,-.5c-.6,0,-1.1,.1,-1.4,.5c-.4,.3,-.6,.8,-.6,1.4h3.7Zm1.1,.3v.5H314c.1,.7,.3,1.3,.7,1.7c.4,.3,.9,.5,1.6,.5c.4,0,.8,0,1.2,-.1c.4,-.1,.8,-.3,1.1,-.5v1c-.3,.2,-.7,.3,-1.1,.4c-.4,.1,-.8,.1,-1.2,.1c-1.1,0,-1.9,-.3,-2.5,-.9c-.6,-.6,-.9,-1.4,-.9,-2.4c0,-1.1,.3,-1.9,.9,-2.5c.5,-.6,1.3,-.9,2.3,-.9c.8,0,1.5,.2,2,.8c.5,.6,.8,1.3,.8,2.3Z" class="g5_272"/>
<path d="M325.7,210.6v3.7h-1.1v-1c-.2,.4,-.5,.7,-.9,.8c-.4,.2,-.8,.3,-1.3,.3c-.7,0,-1.2,-.2,-1.6,-.5c-.4,-.4,-.6,-.9,-.6,-1.5c0,-.7,.3,-1.3,.7,-1.7c.5,-.3,1.3,-.5,2.2,-.5h1.5v-.1c0,-.5,-.2,-.9,-.5,-1.1c-.3,-.3,-.7,-.4,-1.3,-.4c-.4,0,-.8,0,-1.1,.1c-.3,.1,-.7,.2,-1,.4v-1c.4,-.1,.8,-.3,1.1,-.3c.4,-.1,.7,-.1,1.1,-.1c.9,0,1.6,.2,2.1,.7c.4,.5,.7,1.2,.7,2.2Zm-2.1,.4c-.9,0,-1.5,.1,-1.8,.3c-.4,.2,-.5,.5,-.5,1c0,.4,.1,.7,.4,.9c.2,.2,.5,.3,1,.3c.5,0,1,-.2,1.4,-.6c.3,-.4,.5,-1,.5,-1.6V211h-1Z" class="g5_272"/>
<path d="M331.6,208.8c-.1,-.1,-.3,-.1,-.4,-.2c-.2,0,-.3,0,-.5,0c-.6,0,-1,.2,-1.4,.6c-.3,.4,-.4,.9,-.4,1.7v3.4h-1.1v-6.5h1.1v1c.2,-.4,.5,-.7,.8,-.9c.4,-.1,.8,-.2,1.3,-.2c.1,0,.2,0,.3,0c.1,0,.2,0,.3,0v1.1Z" class="g5_272"/>
<path d="M336.4,205.3h1.1v1.3h-1.1Zm0,2.5h1.1v6.5h-1.1Z" class="g5_272"/>
<path d="M345.1,210.4v3.9H344v-3.9c0,-.6,-.1,-1.1,-.4,-1.4c-.2,-.3,-.5,-.4,-1,-.4c-.6,0,-1,.2,-1.4,.5c-.3,.4,-.5,.9,-.5,1.5v3.7h-1v-6.5h1v1c.3,-.4,.6,-.7,.9,-.9c.4,-.1,.8,-.2,1.2,-.2c.8,0,1.3,.2,1.7,.6c.4,.5,.6,1.2,.6,2.1Z" class="g5_272"/>
<path d="M348.2,206v1.8h2.2v.8h-2.2v3.5c0,.6,.1,.9,.2,1c.2,.2,.5,.3,.9,.3h1.1v.9h-1.1c-.8,0,-1.4,-.2,-1.7,-.5c-.3,-.3,-.4,-.9,-.4,-1.7v-3.5h-.8v-.8h.8V206h1Z" class="g5_272"/>
<path d="M356.2,210.5c0,-.6,-.1,-1.1,-.4,-1.4c-.4,-.4,-.8,-.5,-1.3,-.5c-.6,0,-1.1,.1,-1.4,.5c-.4,.3,-.6,.8,-.6,1.4h3.7Zm1.1,.3v.5h-4.9c.1,.7,.3,1.3,.7,1.7c.4,.3,.9,.5,1.6,.5c.4,0,.8,0,1.2,-.1c.4,-.1,.8,-.3,1.2,-.5v1c-.4,.2,-.8,.3,-1.2,.4c-.4,.1,-.8,.1,-1.2,.1c-1.1,0,-1.9,-.3,-2.5,-.9c-.6,-.6,-.9,-1.4,-.9,-2.4c0,-1.1,.3,-1.9,.9,-2.5c.6,-.6,1.3,-.9,2.3,-.9c.9,0,1.5,.2,2,.8c.5,.6,.8,1.3,.8,2.3Z" class="g5_272"/>
<path d="M362.8,208.8c-.1,-.1,-.3,-.1,-.4,-.2c-.2,0,-.3,0,-.5,0c-.6,0,-1,.2,-1.4,.6c-.3,.4,-.4,.9,-.4,1.7v3.4H359v-6.5h1.1v1c.2,-.4,.5,-.7,.8,-.9c.4,-.1,.8,-.2,1.3,-.2c.1,0,.2,0,.3,0c.1,0,.2,0,.3,0v1.1Z" class="g5_272"/>
<path d="M368.5,211c0,-.7,-.2,-1.4,-.5,-1.8c-.3,-.4,-.7,-.7,-1.3,-.7c-.6,0,-1,.3,-1.3,.7c-.3,.4,-.5,1.1,-.5,1.8c0,.8,.2,1.4,.5,1.9c.3,.4,.7,.6,1.3,.6c.6,0,1,-.2,1.3,-.6c.3,-.5,.5,-1.1,.5,-1.9Zm-3.6,2.3v3.4h-1.1v-8.9h1.1v1c.2,-.4,.5,-.7,.8,-.9c.4,-.1,.8,-.2,1.3,-.2c.7,0,1.4,.3,1.9,.9c.5,.6,.7,1.4,.7,2.4c0,1,-.2,1.9,-.7,2.5c-.5,.6,-1.2,.9,-1.9,.9c-.5,0,-.9,-.1,-1.3,-.3c-.3,-.1,-.6,-.4,-.8,-.8Z" class="g5_272"/>
<path d="M373.9,207.7c.9,0,1.6,.3,2.1,.9c.6,.6,.8,1.4,.8,2.4c0,1.1,-.2,1.9,-.8,2.5c-.5,.6,-1.2,.9,-2.1,.9c-1,0,-1.7,-.3,-2.2,-.9c-.5,-.6,-.8,-1.4,-.8,-2.5c0,-1,.3,-1.8,.8,-2.4c.5,-.6,1.2,-.9,2.2,-.9Zm0,.9c-.6,0,-1.1,.2,-1.4,.6c-.3,.5,-.5,1.1,-.5,1.8c0,.8,.2,1.4,.5,1.9c.3,.4,.8,.6,1.4,.6c.5,0,1,-.2,1.3,-.6c.3,-.5,.5,-1.1,.5,-1.9c0,-.7,-.2,-1.3,-.5,-1.8c-.3,-.4,-.8,-.6,-1.3,-.6Z" class="g5_272"/>
<path d="M378.6,214.3h1v-9h-1Z" class="g5_272"/>
<path d="M386.9,210.6v3.7h-1.1v-1c-.2,.4,-.5,.7,-.9,.8c-.3,.2,-.8,.3,-1.3,.3c-.7,0,-1.2,-.2,-1.6,-.5c-.4,-.4,-.6,-.9,-.6,-1.5c0,-.7,.3,-1.3,.8,-1.7c.5,-.3,1.2,-.5,2.1,-.5h1.5v-.1c0,-.5,-.1,-.9,-.5,-1.1c-.3,-.3,-.7,-.4,-1.3,-.4c-.4,0,-.7,0,-1.1,.1c-.3,.1,-.7,.2,-1,.4v-1c.4,-.1,.8,-.3,1.1,-.3c.4,-.1,.8,-.1,1.1,-.1c.9,0,1.6,.2,2.1,.7c.5,.5,.7,1.2,.7,2.2Zm-2.1,.4c-.9,0,-1.5,.1,-1.8,.3c-.3,.2,-.5,.5,-.5,1c0,.4,.1,.7,.4,.9c.2,.2,.6,.3,1,.3c.6,0,1,-.2,1.4,-.6c.3,-.4,.5,-1,.5,-1.6V211h-1Z" class="g5_272"/>
<path d="M390.1,206v1.8h2.2v.8h-2.2v3.5c0,.6,.1,.9,.2,1c.2,.2,.5,.3,.9,.3h1.1v.9h-1.1c-.8,0,-1.4,-.2,-1.7,-.5c-.3,-.3,-.5,-.9,-.5,-1.7v-3.5h-.7v-.8h.7V206h1.1Z" class="g5_272"/>
<path d="M393.7,205.3h1v1.3h-1Zm0,2.5h1v6.5h-1Z" class="g5_272"/>
<path d="M399.4,207.7c1,0,1.7,.3,2.2,.9c.5,.6,.8,1.4,.8,2.4c0,1.1,-.3,1.9,-.8,2.5c-.5,.6,-1.2,.9,-2.2,.9c-.9,0,-1.6,-.3,-2.1,-.9c-.5,-.6,-.8,-1.4,-.8,-2.5c0,-1,.3,-1.8,.8,-2.4c.5,-.6,1.2,-.9,2.1,-.9Zm0,.9c-.5,0,-1,.2,-1.3,.6c-.3,.5,-.5,1.1,-.5,1.8c0,.8,.2,1.4,.5,1.9c.3,.4,.8,.6,1.3,.6c.6,0,1.1,-.2,1.4,-.6c.3,-.5,.5,-1.1,.5,-1.9c0,-.7,-.2,-1.3,-.5,-1.8c-.3,-.4,-.8,-.6,-1.4,-.6Z" class="g5_272"/>
<path d="M409.5,210.4v3.9h-1v-3.9c0,-.6,-.2,-1.1,-.4,-1.4c-.2,-.3,-.6,-.4,-1.1,-.4c-.5,0,-1,.2,-1.3,.5c-.4,.4,-.5,.9,-.5,1.5v3.7h-1.1v-6.5h1.1v1c.2,-.4,.5,-.7,.9,-.9c.3,-.1,.7,-.2,1.2,-.2c.7,0,1.3,.2,1.6,.6c.4,.5,.6,1.2,.6,2.1Z" class="g5_272"/>
</svg>