<?xml version="1.0" encoding="UTF-8" standalone="no"?>
<!DOCTYPE svg PUBLIC "-//W3C//DTD SVG 1.1//EN"
"http://www.w3.org/Graphics/SVG/1.1/DTD/svg11.dtd">
<svg viewBox="0 0 811 1017" version="1.1" xmlns="http://www.w3.org/2000/svg" xmlns:xlink="http://www.w3.org/1999/xlink">
<defs>
<style type="text/css"><![CDATA[
.g0_213{
fill: #0E0E0E;
}
.g1_213{
fill: #000;
}
]]></style>
</defs>
<path d="M260.4,336c0,-1.4,.6,-2.9,1.7,-2.9c.7,0,.9,.7,.9,1.2c0,1.5,-.6,2.8,-1.7,2.8c-.6,0,-.9,-.6,-.9,-1.1Zm3.4,-2.4q.2,-.1,.5,-.1c.1,0,.2,0,.2,0c.2,.2,.3,.7,.7,.7c.3,0,.5,-.3,.5,-.6c0,-.5,-.5,-.8,-.9,-.8c-.4,0,-.7,.2,-1.1,.6c-.4,-.4,-.9,-.6,-1.5,-.6c-.8,0,-1.5,.4,-1.9,.8c-.5,.5,-.9,1.1,-.9,1.9c0,.7,.2,1.3,.9,1.7l-.1,.1c-.5,.1,-.8,.3,-1,.4c-.2,.2,-.3,.4,-.3,.6c0,.4,.1,.7,.5,.9c.4,.1,1.1,.3,2,.5c.4,.1,.8,.2,1.1,.4c.3,.2,.4,.4,.4,.6c0,.8,-1.1,1.4,-2.2,1.4c-1.2,0,-2,-.5,-2,-1.3c0,-.5,.3,-.9,.7,-1.1c-.2,-.1,-.3,-.1,-.6,-.1c-.6,0,-1,.5,-1,1.1c0,.3,0,.5,.1,.7c.5,.7,1.5,1,2.7,1c1,0,1.8,-.2,2.4,-.6c.4,-.3,.8,-.7,.8,-1.5c0,-.8,-1.2,-1.3,-1.8,-1.5c-.5,-.1,-1.1,-.3,-1.5,-.5c-.2,0,-.3,-.2,-.3,-.4c0,-.3,.6,-.3,1.1,-.4c1.6,-.1,2.7,-1.2,2.7,-3c0,-.3,-.1,-.6,-.2,-.9Z" class="g0_213"/>
<path d="M266.2,334.6v.1c.3,0,.8,.1,1,.1c.3,.2,.3,.3,.3,.8v4.7c0,.3,0,.5,-.1,.6c0,.5,-.6,.6,-1.1,.6v.1h3.4v-.1c-.4,0,-.9,0,-1.1,-.2c-.1,-.3,-.2,-.6,-.2,-1V334c-.5,.3,-1.5,.5,-2.2,.6Z" class="g0_213"/>
<path d="M276.7,328.6c-2.1,1.4,-3.6,3.8,-3.6,6.9c0,2.7,1.5,5.5,3.6,6.8l.2,-.2c-2,-1.6,-2.5,-3.4,-2.5,-6.7c0,-3.3,.6,-5,2.5,-6.5l-.2,-.3Z" class="g0_213"/>
<path d="M285.1,333.8c0,-.6,-.4,-1,-1,-1c-.3,0,-.6,.1,-.9,.3c-.3,.3,-.7,.6,-.9,.9c0,-.6,-.4,-1.2,-1,-1.2c-1.2,0,-2.1,1.2,-2.5,2l.2,.1c.4,-.5,1.1,-1.7,2,-1.7c.3,0,.4,.5,.4,1c0,.3,-.1,.6,-.2,1.1l-.3,1.2c-.2,.6,-.4,1.4,-.8,1.8c-.1,.2,-.4,.6,-.7,.6c-.5,0,-.8,0,-.7,-.4c.1,-.4,0,-.8,-.4,-.8c-.4,0,-.6,.3,-.6,.8c0,.5,.5,.9,1,.9c1.1,0,1.8,-.8,2.2,-1.4c.1,.8,.5,1.4,1.3,1.4c1.2,0,2.1,-1.1,2.5,-1.8l-.2,-.2c-.5,.6,-1.2,1.6,-2,1.6c-.4,0,-.6,-.6,-.6,-1.2c0,-.3,0,-.8,.2,-1.3l.1,-.7c.1,-.6,.4,-1.3,.7,-1.7c.1,-.2,.5,-.9,.9,-.9c.4,0,.4,.3,.3,.6c0,.4,.2,.6,.5,.6c.4,0,.5,-.3,.5,-.6Z" class="g0_213"/>
<path d="M286.4,328.6l-.1,.3c1.9,1.5,2.5,3.2,2.5,6.5c0,3.3,-.6,5.1,-2.5,6.7l.2,.2c2,-1.3,3.6,-4.1,3.6,-6.8c0,-3.1,-1.5,-5.5,-3.7,-6.9Z" class="g0_213"/>
<path d="M296.3,337.4h7.6v-.8h-7.6Zm0,-3h7.6v-.8h-7.6Z" class="g0_213"/>
<path d="M322.6,323.7c0,-.6,-.4,-1,-1,-1c-.3,0,-.6,.1,-.9,.4c-.3,.2,-.7,.5,-.9,.8c0,-.6,-.4,-1.2,-1,-1.2c-1.2,0,-2.1,1.2,-2.5,2l.2,.1c.4,-.5,1.1,-1.7,2,-1.7c.3,0,.4,.5,.4,1c0,.3,-.1,.6,-.2,1.1l-.3,1.2c-.2,.6,-.4,1.4,-.8,1.8c-.1,.2,-.4,.6,-.7,.6c-.5,0,-.8,0,-.7,-.4c.1,-.4,0,-.8,-.4,-.8c-.4,0,-.6,.3,-.6,.8c0,.5,.5,.9,1,.9c1.1,0,1.8,-.8,2.2,-1.4c.1,.8,.5,1.4,1.3,1.4c1.2,0,2.1,-1.1,2.5,-1.8l-.2,-.2c-.5,.6,-1.2,1.7,-2,1.7c-.4,0,-.6,-.7,-.6,-1.3c0,-.3,0,-.8,.2,-1.3l.1,-.7c.1,-.6,.4,-1.3,.7,-1.7c.1,-.2,.5,-.9,.9,-.9c.4,0,.4,.3,.4,.6c-.1,.4,.1,.6,.4,.6c.4,0,.5,-.3,.5,-.6Z" class="g0_213"/>
<path d="M330.4,324.9h-3.3v1h3.3v3.3h.9v-3.3h3.3v-1h-3.3v-3.2h-.9v3.2Z" class="g0_213"/>
<path d="M340.3,319.5v.2c.5,0,1.1,.1,1.4,.2c.4,.2,.4,.4,.4,1v6.5c0,.3,0,.6,0,.8c-.1,.6,-.9,.7,-1.7,.8v.2h4.7V329c-.5,0,-1.2,-.1,-1.4,-.3c-.3,-.3,-.3,-.8,-.3,-1.4v-8.6c-.8,.4,-2.1,.8,-3.1,.8Z" class="g0_213"/>
<path d="M310.5,335.9h41.2V335H310.5Z" class="g0_213"/>
<path d="M311.4,346.1H319v-.8h-7.6Z" class="g0_213"/>
<path d="M323.8,349.4c-1,0,-1.7,-1,-1.7,-1.9c0,-.7,.4,-1.3,1.1,-1.3c-.1,-.4,-.5,-.6,-1,-.6c-.2,0,-.4,0,-.6,.1c-.5,.2,-.9,.8,-.9,1.6c0,.3,0,.6,.2,.9c.5,.9,1.6,1.5,3,1.5c1.1,0,1.9,-.4,2.5,-.9c.6,-.4,1,-1.1,1,-2.1c0,-.3,0,-.6,-.2,-.9c-.3,-.9,-1.1,-1.5,-2.1,-1.8v-.1c.6,-.1,1.1,-.5,1.4,-.9c.3,-.3,.6,-.9,.6,-1.5c0,-.4,-.1,-.7,-.2,-1c-.5,-1,-1.6,-1.4,-3,-1.4c-.8,0,-1.6,.1,-2.1,.5c-.4,.3,-.7,.7,-.7,1.3c0,.5,.1,.8,.4,1.1c.1,.2,.5,.4,.9,.4c.2,0,.4,-.1,.6,-.2c.2,-.1,.3,-.2,.4,-.3c-.6,0,-1,-.5,-1,-1.1c0,-.8,.7,-1.5,1.5,-1.5c1.1,0,1.6,1,1.6,2.2c0,1.2,-.3,2.4,-1.4,2.4c-.3,0,-.6,-.2,-.9,-.2c-.3,0,-.7,.1,-.7,.4c0,.3,.5,.5,.8,.5c.3,0,.6,-.2,.9,-.4c1.2,0,1.5,1.1,1.5,2.5c0,1.3,-.5,2.7,-1.9,2.7Z" class="g0_213"/>
<path d="M335.3,345.3h-3.2v.9h3.2v3.3h1v-3.3h3.3v-.9h-3.3V342h-1v3.3Z" class="g0_213"/>
<path d="M345.3,339.8v.2c.5,0,1.1,.1,1.3,.2c.5,.2,.4,.4,.5,1v6.5c0,.3,0,.6,-.1,.8c-.1,.7,-.9,.8,-1.6,.8v.2h4.7v-.2c-.5,0,-1.3,0,-1.5,-.3c-.2,-.3,-.2,-.8,-.2,-1.4v-8.5c-.8,.4,-2.1,.7,-3.1,.7Z" class="g0_213"/>
<path d="M367.4,323.7c0,-.6,-.4,-1,-1,-1c-.3,0,-.6,.1,-.9,.4c-.3,.2,-.6,.5,-.9,.8c0,-.6,-.4,-1.2,-1,-1.2c-1.1,0,-2.1,1.2,-2.5,2l.3,.1c.3,-.5,1,-1.7,1.9,-1.7c.3,0,.4,.5,.4,1c0,.3,0,.6,-.2,1.1l-.3,1.2c-.2,.6,-.4,1.4,-.7,1.8c-.2,.2,-.5,.6,-.8,.6c-.5,0,-.8,0,-.7,-.4c.1,-.4,.1,-.8,-.4,-.8c-.4,0,-.6,.3,-.6,.8c0,.5,.5,.9,1.1,.9c1,0,1.7,-.8,2.1,-1.4c.1,.8,.5,1.4,1.4,1.4c1.1,0,2,-1.1,2.4,-1.8l-.2,-.2c-.5,.6,-1.2,1.7,-2,1.7c-.4,0,-.6,-.7,-.6,-1.3c0,-.3,0,-.8,.2,-1.3l.2,-.7c.1,-.6,.3,-1.3,.6,-1.7c.2,-.2,.5,-.9,.9,-.9c.4,0,.4,.3,.4,.6c-.1,.4,.1,.6,.4,.6c.4,0,.5,-.3,.5,-.6Z" class="g0_213"/>
<path d="M372.4,325.8H380V325h-7.6Z" class="g0_213"/>
<path d="M387.9,322.8c-.9,0,-1.5,-.7,-1.5,-1.6c0,-1.1,.6,-2.2,1.8,-2.2c1.7,0,1.8,1.3,1.8,2.6c0,1.3,-.3,2,-.9,2.9c-.4,.6,-1,1.2,-1.6,1.9c-.7,.6,-1.5,1.4,-2.5,2.3v.5h6.2l.5,-2.9h-.4c-.1,.3,-.2,.6,-.3,.8c-.2,.5,-.7,.8,-1.4,.8h-2.9v-.1c.7,-.5,1.3,-1,1.9,-1.4c1,-.9,2.1,-1.9,2.7,-3.1c.2,-.6,.4,-1.1,.4,-1.7c0,-.4,-.1,-.8,-.3,-1.2c-.5,-1,-1.5,-1.7,-3,-1.7c-.9,0,-1.8,.4,-2.4,.8c-.5,.4,-.9,1.1,-.9,2c0,.6,.2,1.1,.5,1.4c.3,.4,.7,.6,1.2,.6c.6,0,1,-.3,1.1,-.7Z" class="g0_213"/>
<path d="M355.3,335.9h42.3V335H355.3Z" class="g0_213"/>
<path d="M356.2,346.1h7.6v-.8h-7.6Z" class="g0_213"/>
<path d="M368.7,349.4c-1,0,-1.8,-1,-1.8,-1.9c0,-.7,.5,-1.3,1.2,-1.3c-.1,-.4,-.6,-.6,-1.1,-.6c-.2,0,-.4,0,-.6,.1c-.5,.2,-.9,.8,-.9,1.6c0,.3,.1,.6,.2,.9c.5,.9,1.6,1.5,3,1.5c1.1,0,1.9,-.4,2.5,-.9c.6,-.4,1,-1.1,1,-2.1c0,-.3,0,-.6,-.1,-.9c-.4,-.9,-1.2,-1.5,-2.2,-1.8v-.1c.6,-.1,1.1,-.5,1.4,-.9c.4,-.3,.6,-.9,.6,-1.5c0,-.4,0,-.7,-.2,-1c-.5,-1,-1.6,-1.4,-3,-1.4c-.8,0,-1.5,.1,-2,.5c-.5,.3,-.8,.7,-.8,1.3c0,.5,.1,.8,.4,1.1c.2,.2,.5,.4,.9,.4c.3,0,.5,-.1,.7,-.2c.1,-.1,.2,-.2,.3,-.3c-.6,0,-1,-.5,-1,-1.1c0,-.8,.7,-1.5,1.5,-1.5c1.1,0,1.6,1,1.6,2.2c0,1.2,-.3,2.4,-1.4,2.4c-.3,0,-.6,-.2,-.8,-.2c-.3,0,-.8,.1,-.8,.4c0,.3,.5,.5,.8,.5c.3,0,.7,-.2,.9,-.4c1.2,0,1.6,1.1,1.6,2.5c0,1.3,-.6,2.7,-1.9,2.7Z" class="g0_213"/>
<path d="M377.4,346.1H385v-.8h-7.6Z" class="g0_213"/>
<path d="M392.8,343.1c-.9,0,-1.4,-.6,-1.4,-1.5c0,-1.1,.5,-2.3,1.8,-2.3c1.6,0,1.8,1.4,1.8,2.6c0,1.3,-.4,2,-1,2.9c-.4,.6,-.9,1.2,-1.5,1.9c-.7,.7,-1.5,1.5,-2.6,2.4v.4h6.3l.5,-2.8h-.4c-.1,.3,-.3,.5,-.3,.7c-.3,.5,-.7,.8,-1.4,.8h-2.9v-.1c.6,-.4,1.3,-.9,1.9,-1.4c1,-.9,2.1,-1.9,2.6,-3.1c.3,-.5,.4,-1.1,.4,-1.6c0,-.5,-.1,-.9,-.2,-1.2c-.5,-1,-1.5,-1.8,-3,-1.8c-1,0,-1.8,.4,-2.4,.8c-.5,.5,-.9,1.1,-.9,2c0,.7,.1,1.1,.5,1.5c.2,.3,.6,.5,1.2,.5c.5,0,.9,-.2,1,-.7Z" class="g0_213"/>
<path d="M404.1,337.4h7.6v-.8h-7.6Zm0,-3h7.6v-.8h-7.6Z" class="g0_213"/>
<path d="M425.5,323.7c0,-.6,-.5,-1,-1,-1c-.3,0,-.7,.1,-1,.4c-.3,.2,-.6,.5,-.8,.8c0,-.6,-.4,-1.2,-1.1,-1.2c-1.1,0,-2.1,1.2,-2.4,2l.2,.1c.4,-.5,1.1,-1.7,2,-1.7c.2,0,.4,.5,.4,1c0,.3,-.1,.6,-.2,1.1l-.4,1.2c-.1,.6,-.4,1.4,-.7,1.8c-.2,.2,-.4,.6,-.8,.6c-.4,0,-.7,0,-.6,-.4c.1,-.4,0,-.8,-.4,-.8c-.5,0,-.6,.3,-.6,.8c0,.5,.4,.9,1,.9c1,0,1.7,-.8,2.1,-1.4h.1c.1,.8,.5,1.4,1.3,1.4c1.2,0,2,-1.1,2.5,-1.8l-.2,-.2c-.5,.6,-1.2,1.7,-2,1.7c-.4,0,-.7,-.7,-.7,-1.3c0,-.3,.1,-.8,.2,-1.3l.2,-.7c.1,-.6,.4,-1.3,.6,-1.7c.2,-.2,.6,-.9,1,-.9c.4,0,.3,.3,.3,.6c0,.4,.2,.6,.5,.6c.4,0,.5,-.3,.5,-.6Z" class="g0_213"/>
<path d="M433.2,324.9H430v1h3.2v3.3h1v-3.3h3.3v-1h-3.3v-3.2h-1v3.2Z" class="g0_213"/>
<path d="M443.2,319.5v.2c.5,0,1.1,.1,1.3,.2c.5,.2,.5,.4,.5,1v6.5c0,.3,0,.6,-.1,.8c-.1,.6,-.9,.7,-1.6,.8v.2H448V329c-.5,0,-1.3,-.1,-1.5,-.3c-.2,-.3,-.2,-.8,-.2,-1.4v-8.6c-.8,.4,-2.1,.8,-3.1,.8Z" class="g0_213"/>
<path d="M418.3,335.9h31.3V335H418.3Z" class="g0_213"/>
<path d="M425.9,346.1h7.7v-.8h-7.7Z" class="g0_213"/>
<path d="M438.1,343.1c-.9,0,-1.5,-.6,-1.5,-1.5c0,-1.1,.6,-2.3,1.9,-2.3c1.6,0,1.8,1.4,1.8,2.6c0,1.3,-.4,2,-1,2.9c-.4,.6,-.9,1.2,-1.6,1.9c-.6,.7,-1.5,1.5,-2.5,2.4v.4h6.3l.5,-2.8h-.5c0,.3,-.2,.5,-.3,.7c-.2,.5,-.6,.8,-1.3,.8H437v-.1c.6,-.4,1.3,-.9,1.8,-1.4c1.1,-.9,2.1,-1.9,2.7,-3.1c.3,-.5,.4,-1.1,.4,-1.6c0,-.5,-.1,-.9,-.3,-1.2c-.4,-1,-1.4,-1.8,-2.9,-1.8c-1,0,-1.9,.4,-2.4,.8c-.5,.5,-1,1.1,-1,2c0,.7,.2,1.1,.5,1.5c.3,.3,.7,.5,1.3,.5c.5,0,.9,-.2,1,-.7Z" class="g0_213"/>
<path d="M460.4,323.7c0,-.6,-.5,-1,-1,-1c-.3,0,-.7,.1,-1,.4c-.3,.2,-.6,.5,-.8,.8c0,-.6,-.4,-1.2,-1.1,-1.2c-1.1,0,-2.1,1.2,-2.4,2l.2,.1c.4,-.5,1.1,-1.7,2,-1.7c.2,0,.4,.5,.4,1c0,.3,-.1,.6,-.2,1.1l-.4,1.2c-.1,.6,-.4,1.4,-.7,1.8c-.2,.2,-.4,.6,-.8,.6c-.4,0,-.7,0,-.6,-.4c.1,-.4,0,-.8,-.4,-.8c-.5,0,-.7,.3,-.7,.8c0,.5,.5,.9,1.1,.9c1,0,1.7,-.8,2.1,-1.4h.1c.1,.8,.5,1.4,1.3,1.4c1.2,0,2,-1.1,2.4,-1.8l-.1,-.2c-.5,.6,-1.2,1.7,-2,1.7c-.5,0,-.7,-.7,-.7,-1.3c0,-.3,.1,-.8,.2,-1.3l.2,-.7c.1,-.6,.4,-1.3,.6,-1.7c.2,-.2,.6,-.9,1,-.9c.4,0,.3,.3,.3,.6c0,.4,.1,.6,.5,.6c.3,0,.5,-.3,.5,-.6Z" class="g0_213"/>
<path d="M465.3,325.8H473V325h-7.7Z" class="g0_213"/>
<path d="M480.8,322.8c-.9,0,-1.5,-.7,-1.5,-1.6c0,-1.1,.6,-2.2,1.9,-2.2c1.6,0,1.8,1.3,1.8,2.6c0,1.3,-.4,2,-1,2.9c-.4,.6,-.9,1.2,-1.6,1.9c-.6,.6,-1.5,1.4,-2.5,2.3v.5h6.3l.5,-2.9h-.4c-.1,.3,-.3,.6,-.4,.8c-.2,.5,-.6,.8,-1.3,.8h-2.9v-.1c.6,-.5,1.3,-1,1.8,-1.4c1.1,-.9,2.1,-1.9,2.7,-3.1c.3,-.6,.4,-1.1,.4,-1.7c0,-.4,-.1,-.8,-.2,-1.2c-.5,-1,-1.5,-1.7,-3,-1.7c-1,0,-1.9,.4,-2.4,.8c-.5,.4,-1,1.1,-1,2c0,.6,.2,1.1,.5,1.4c.3,.4,.7,.6,1.3,.6c.5,0,.9,-.3,1,-.7Z" class="g0_213"/>
<path d="M453.2,335.9h32.4V335H453.2Z" class="g0_213"/>
<path d="M461.4,346.1H469v-.8h-7.6Z" class="g0_213"/>
<path d="M476.9,339.1l-.1,-.1c-.4,.2,-1,.3,-1.8,.3c-.7,0,-1.1,-.1,-1.6,-.2l-1.4,5.5c0,0,0,.1,0,.1c0,.2,-.1,.3,.1,.3c.2,0,.2,-.2,.3,-.4c.3,-.7,.8,-1.3,1.7,-1.3c1.1,0,1.4,.9,1.4,2.2c0,1.1,-.2,2,-.6,2.6c-.3,.5,-.8,1.3,-1.7,1.3c-.7,0,-1,-.8,-1.2,-1.4c-.1,-.4,-.2,-1,-.8,-1c-.4,0,-.6,.3,-.6,.8c0,.3,.1,.5,.2,.8c.4,.6,1.3,1.1,2.4,1.1c.6,0,1.1,-.1,1.6,-.3c1.3,-.6,2.3,-1.7,2.3,-3.6c0,-.4,0,-.8,-.2,-1.2c-.4,-1,-1.4,-1.7,-2.8,-1.7c-.5,0,-1.1,.3,-1.4,.7v-.3l.8,-2.8c0,0,.8,.1,1.3,.1c1,0,1.9,-.6,2.1,-1.5Z" class="g0_213"/>
<path d="M492.1,337.4h7.6v-.8h-7.6Zm0,-3h7.6v-.8h-7.6Z" class="g0_213"/>
<path d="M508.6,339.2c-1.9,0,-1.9,-2.8,-1.9,-5c0,-2.2,0,-5.1,1.9,-5.1c2,0,2,2.9,2,5.1c0,2.2,-.1,5,-2,5Zm0,-10.4c-2.6,0,-3.3,2.7,-3.3,5.4c0,2.6,.8,5.2,3.3,5.2c2.6,0,3.4,-2.6,3.4,-5.2c0,-2.7,-.7,-5.4,-3.4,-5.4Z" class="g0_213"/>
<path d="M515.1,339.4c.5,0,.9,-.4,.9,-.9c0,-.5,-.4,-.8,-.9,-.8c-.4,0,-.8,.4,-.8,.8c0,.5,.4,.9,.8,.9Z" class="g0_213"/>
<path d="M519.5,329.6v.2c.4,0,1.1,.1,1.3,.2c.4,.2,.4,.4,.4,1v6.5c0,.3,0,.6,0,.8c-.1,.6,-.9,.7,-1.7,.8v.2h4.7v-.2c-.5,-.1,-1.2,-.1,-1.4,-.3c-.3,-.3,-.3,-.8,-.3,-1.4v-8.6c-.8,.4,-2.1,.8,-3,.8Z" class="g0_213"/>
<path d="M533,333.8c0,-.6,-.4,-1,-1,-1c-.3,0,-.6,.1,-.9,.3c-.3,.3,-.6,.6,-.9,.9c0,-.6,-.4,-1.2,-1,-1.2c-1.1,0,-2.1,1.2,-2.4,2l.2,.1c.3,-.5,1,-1.7,1.9,-1.7c.3,0,.4,.5,.4,1c0,.3,0,.6,-.2,1.1l-.3,1.2c-.2,.6,-.4,1.4,-.7,1.8c-.2,.2,-.5,.6,-.8,.6c-.5,0,-.8,0,-.7,-.4c.1,-.4,.1,-.8,-.4,-.8c-.4,0,-.6,.3,-.6,.8c0,.5,.5,.9,1.1,.9c1,0,1.7,-.8,2.1,-1.4c.1,.8,.5,1.4,1.4,1.4c1.1,0,2,-1.1,2.4,-1.8l-.2,-.2c-.5,.6,-1.2,1.6,-2,1.6c-.4,0,-.6,-.6,-.6,-1.2c0,-.3,0,-.8,.2,-1.3l.2,-.7c.1,-.6,.3,-1.3,.6,-1.7c.2,-.2,.5,-.9,.9,-.9c.4,0,.4,.3,.4,.6c-.1,.4,.1,.6,.4,.6c.4,0,.5,-.3,.5,-.6Z" class="g0_213"/>
<path d="M536.4,328.5c-.7,0,-1.1,-.5,-1.1,-1.2c0,-.8,.4,-1.6,1.3,-1.6c1.2,0,1.4,1,1.4,1.9c0,.9,-.3,1.5,-.8,2.1c-.2,.4,-.6,.9,-1.1,1.4c-.5,.5,-1.1,1,-1.8,1.7v.3h4.5l.4,-2.1h-.3c-.1,.3,-.2,.5,-.2,.6c-.2,.4,-.5,.6,-1,.6h-2.1l-.1,-.1c.5,-.3,1,-.7,1.4,-1c.8,-.7,1.6,-1.4,2,-2.3c.2,-.4,.2,-.8,.2,-1.2c0,-.3,0,-.6,-.1,-.9c-.4,-.7,-1.1,-1.2,-2.2,-1.2c-.7,0,-1.3,.2,-1.7,.6c-.4,.3,-.7,.8,-.7,1.4c0,.5,.1,.8,.3,1.1c.2,.2,.5,.4,.9,.4c.4,0,.7,-.2,.8,-.5Z" class="g0_213"/>
<path d="M544.8,335.9h7.7v-.8h-7.7Z" class="g0_213"/>
<path d="M560.9,339.2c-1.9,0,-1.9,-2.8,-1.9,-5c0,-2.2,0,-5.1,1.9,-5.1c1.9,0,1.9,2.9,1.9,5.1c0,2.2,0,5,-1.9,5Zm0,-10.4c-2.6,0,-3.4,2.7,-3.4,5.4c0,2.6,.8,5.2,3.4,5.2c2.6,0,3.4,-2.6,3.4,-5.2c0,-2.7,-.8,-5.4,-3.4,-5.4Z" class="g0_213"/>
<path d="M567.4,339.4c.5,0,.9,-.4,.9,-.9c0,-.5,-.4,-.8,-.9,-.8c-.5,0,-.9,.4,-.9,.8c0,.5,.4,.9,.9,.9Z" class="g0_213"/>
<path d="M571.7,329.6v.2c.4,0,1.1,.1,1.3,.2c.5,.2,.4,.4,.5,1v6.5c0,.3,-.1,.6,-.1,.8c-.1,.6,-.9,.7,-1.6,.8v.2h4.7v-.2c-.5,-.1,-1.3,-.1,-1.5,-.3c-.2,-.3,-.2,-.8,-.2,-1.4v-8.6c-.8,.4,-2.1,.8,-3.1,.8Z" class="g0_213"/>
<path d="M585.3,333.8c0,-.6,-.5,-1,-1,-1c-.3,0,-.7,.1,-1,.3c-.3,.3,-.6,.6,-.8,.9c0,-.6,-.4,-1.2,-1.1,-1.2c-1.1,0,-2.1,1.2,-2.4,2l.2,.1c.4,-.5,1.1,-1.7,2,-1.7c.2,0,.4,.5,.4,1c0,.3,-.1,.6,-.2,1.1l-.4,1.2c-.1,.6,-.4,1.4,-.7,1.8c-.2,.2,-.4,.6,-.8,.6c-.4,0,-.7,0,-.6,-.4c.1,-.4,0,-.8,-.4,-.8c-.5,0,-.6,.3,-.6,.8c0,.5,.4,.9,1,.9c1,0,1.7,-.8,2.1,-1.4h.1c.1,.8,.5,1.4,1.3,1.4c1.2,0,2,-1.1,2.5,-1.8l-.2,-.2c-.5,.6,-1.2,1.6,-2,1.6c-.4,0,-.7,-.6,-.7,-1.2c0,-.3,.1,-.8,.2,-1.3l.2,-.7c.1,-.6,.4,-1.3,.6,-1.7c.2,-.2,.6,-.9,1,-.9c.4,0,.3,.3,.3,.6c0,.4,.1,.6,.5,.6c.3,0,.5,-.3,.5,-.6Z" class="g0_213"/>
<path d="M590.2,335.9h7.7v-.8h-7.7Z" class="g0_213"/>
<path d="M606.3,339.2c-1.9,0,-1.9,-2.8,-1.9,-5c0,-2.2,0,-5.1,1.9,-5.1c1.9,0,1.9,2.9,1.9,5.1c0,2.2,0,5,-1.9,5Zm0,-10.4c-2.6,0,-3.4,2.7,-3.4,5.4c0,2.6,.8,5.2,3.4,5.2c2.6,0,3.4,-2.6,3.4,-5.2c0,-2.7,-.8,-5.4,-3.4,-5.4Z" class="g0_213"/>
<path d="M612.8,339.4c.5,0,.9,-.4,.9,-.9c0,-.5,-.4,-.8,-.9,-.8c-.5,0,-.9,.4,-.9,.8c0,.5,.4,.9,.9,.9Z" class="g0_213"/>
<path d="M618.7,332.9c-.9,0,-1.4,-.7,-1.4,-1.6c0,-1.1,.5,-2.2,1.8,-2.2c1.6,0,1.8,1.3,1.8,2.6c0,1.3,-.4,2,-1,2.9c-.4,.6,-.9,1.2,-1.5,1.8c-.7,.7,-1.5,1.5,-2.6,2.4v.5h6.3l.5,-2.9h-.4c-.1,.3,-.3,.6,-.3,.8c-.3,.5,-.7,.8,-1.4,.8h-2.9v-.1c.6,-.5,1.3,-1,1.9,-1.5c1,-.8,2.1,-1.8,2.6,-3c.3,-.6,.4,-1.1,.4,-1.7c0,-.4,-.1,-.8,-.2,-1.2c-.5,-1,-1.5,-1.7,-3,-1.7c-1,0,-1.8,.4,-2.4,.8c-.5,.4,-1,1.1,-1,2c0,.6,.2,1.1,.6,1.4c.2,.4,.6,.6,1.2,.6c.5,0,.9,-.3,1,-.7Z" class="g0_213"/>
<path d="M561.8,616.8h.4V545.3h-.4Z" class="g1_213"/>
<path d="M537.5,545.3v3.2l-.2,-.1L531,545.5l-.3,-.2l.3,-.2l6.3,-2.9l.2,-.1v.3l-.1,.2l-6.2,2.9l-.2,-.4h.2l6.2,3l-.1,.3l-.1,-.1v-3Z" class="g1_213"/>
<path d="M537.2,545.3h.3v-2.9h-.3Z" class="g1_213"/>
<path d="M537.4,545.5h.1v-.4h-.1Z" class="g1_213"/>
<path d="M537.5,545.5h24.7v-.4H537.5Z" class="g1_213"/>
</svg>