<?xml version="1.0" encoding="UTF-8" standalone="no"?>
<!DOCTYPE svg PUBLIC "-//W3C//DTD SVG 1.1//EN"
"http://www.w3.org/Graphics/SVG/1.1/DTD/svg11.dtd">
<svg viewBox="0 0 811 1017" version="1.1" xmlns="http://www.w3.org/2000/svg" xmlns:xlink="http://www.w3.org/1999/xlink">
<defs>
<style type="text/css"><![CDATA[
.g0_89{
fill: #0E0E0E;
}
]]></style>
</defs>
<path d="M394.2,579.6q0,-.1,-.1,-.1c0,0,-.1,0,-.1,0c-4.7,5.4,-5.3,19.2,-5.3,20.8v.7h1.4v-.7c0,-1.2,.8,-14.9,4,-20.3c0,-.2,.1,-.3,.1,-.4Z" class="g0_89"/>
<path d="M388.7,610.2h1.4v-9.6h-1.4Z" class="g0_89"/>
<path d="M394.2,631.4c0,-.1,-.1,-.2,-.1,-.4c-3.2,-5.4,-4,-19.1,-4,-20.3V610h-1.4v.7c0,1.6,.6,15.4,5.3,20.7c0,.1,.1,.1,.1,.1c.1,0,.1,-.1,.1,-.1Z" class="g0_89"/>
<path d="M399.2,584.7c-.5,0,-.9,.1,-1.3,.4c-.5,.3,-.9,.7,-1.3,1.2c-.6,.7,-1.2,1.9,-1.2,3.2c0,1,.4,1.8,1.3,1.8c1.3,0,1.8,-.9,2.2,-1.6c-.2,.9,-.1,1.6,.5,1.6c.4,0,.8,-.2,1.2,-.5c.4,-.4,.7,-.8,1.1,-1.4l-.2,-.1c-.3,.4,-.9,1.3,-1.4,1.3c-.2,0,-.2,-.3,-.2,-.6c0,-.9,.6,-2.4,.9,-3.4l.7,-1.8h-1l-.3,.6c-.1,-.4,-.4,-.7,-1,-.7Zm.1,.2c.7,0,.6,1.3,.5,1.9c-.1,.3,-.2,.6,-.3,1c-.4,1.2,-1.5,3.1,-2.3,3.1c-.6,0,-.8,-.9,-.8,-1.4c0,-.5,0,-.9,.2,-1.4c.4,-1,1.4,-3.2,2.7,-3.2Z" class="g0_89"/>
<path d="M403.6,586.4v.2c.3,0,.8,0,.9,.1c.4,.2,.3,.3,.4,.7v4.8c0,.2,-.1,.4,-.1,.6c-.1,.4,-.6,.5,-1.2,.5v.2H407v-.2c-.3,0,-.9,0,-1,-.2c-.2,-.2,-.2,-.6,-.2,-1v-6.2c-.6,.2,-1.5,.5,-2.2,.5Z" class="g0_89"/>
<path d="M409.7,586.4v.2c.3,0,.8,0,.9,.1c.4,.2,.3,.3,.4,.7v4.8c0,.2,-.1,.4,-.1,.6c-.1,.4,-.6,.5,-1.2,.5v.2h3.4v-.2c-.3,0,-.9,0,-1,-.2c-.2,-.2,-.2,-.6,-.2,-1v-6.2c-.6,.2,-1.5,.5,-2.2,.5Z" class="g0_89"/>
<path d="M434.5,584.7c-.4,0,-.9,.1,-1.3,.4c-.5,.3,-.9,.7,-1.2,1.2c-.7,.7,-1.3,1.9,-1.3,3.2c0,1,.4,1.8,1.3,1.8c1.3,0,1.8,-.9,2.2,-1.6c-.2,.9,-.1,1.6,.6,1.6c.3,0,.7,-.2,1.1,-.5c.4,-.4,.7,-.8,1.1,-1.4l-.2,-.1c-.3,.4,-.9,1.3,-1.3,1.3c-.2,0,-.3,-.3,-.3,-.6c0,-.9,.6,-2.4,.9,-3.4l.7,-1.8h-1l-.2,.6c-.2,-.4,-.5,-.7,-1.1,-.7Zm.1,.2c.7,0,.6,1.3,.5,1.9c-.1,.3,-.2,.6,-.3,1c-.4,1.2,-1.5,3.1,-2.3,3.1c-.6,0,-.8,-.9,-.8,-1.4c0,-.5,.1,-.9,.2,-1.4c.4,-1,1.5,-3.2,2.7,-3.2Z" class="g0_89"/>
<path d="M438.9,586.4v.2c.3,0,.8,0,.9,.1c.4,.2,.3,.3,.4,.7v4.8c0,.2,0,.4,-.1,.6c0,.4,-.6,.5,-1.2,.5v.2h3.5v-.2c-.4,0,-1,0,-1.1,-.2c-.2,-.2,-.2,-.6,-.2,-1v-6.2c-.6,.2,-1.5,.5,-2.2,.5Z" class="g0_89"/>
<path d="M446.2,588.8c-.7,0,-1.1,-.4,-1.1,-1.1c0,-.8,.4,-1.6,1.3,-1.6c1.2,0,1.3,.9,1.3,1.8c0,1,-.2,1.5,-.7,2.2c-.2,.4,-.6,.8,-1.1,1.3c-.5,.5,-1.1,1.1,-1.8,1.8v.3h4.5l.4,-2.1h-.3c-.1,.2,-.2,.4,-.2,.6c-.2,.3,-.5,.5,-1.1,.5h-2.1c.5,-.4,1,-.7,1.4,-1.1c.8,-.6,1.5,-1.4,2,-2.2c.1,-.4,.2,-.8,.2,-1.2c0,-.3,0,-.6,-.1,-.9c-.4,-.7,-1.1,-1.3,-2.2,-1.3c-.7,0,-1.4,.3,-1.8,.6c-.3,.3,-.7,.8,-.7,1.5c0,.5,.2,.8,.4,1c.2,.3,.5,.4,.9,.4c.4,0,.7,-.1,.8,-.5Z" class="g0_89"/>
<path d="M469.8,584.7c-.4,0,-.9,.1,-1.3,.4c-.4,.3,-.9,.7,-1.2,1.2c-.7,.7,-1.3,1.9,-1.3,3.2c0,1,.4,1.8,1.3,1.8c1.3,0,1.8,-.9,2.2,-1.6c-.2,.9,-.1,1.6,.6,1.6c.3,0,.7,-.2,1.1,-.5c.4,-.4,.8,-.8,1.1,-1.4l-.2,-.1c-.3,.4,-.9,1.3,-1.3,1.3c-.2,0,-.3,-.3,-.3,-.6c0,-.9,.6,-2.4,.9,-3.4l.7,-1.8h-1l-.2,.6c-.2,-.4,-.5,-.7,-1.1,-.7Zm.1,.2c.7,0,.6,1.3,.5,1.9c-.1,.3,-.2,.6,-.3,1c-.4,1.2,-1.5,3.1,-2.3,3.1c-.6,0,-.7,-.9,-.7,-1.4c0,-.5,0,-.9,.2,-1.4c.3,-1,1.4,-3.2,2.6,-3.2Z" class="g0_89"/>
<path d="M474.2,586.4v.2c.3,0,.8,0,1,.1c.3,.2,.3,.3,.3,.7v4.8c0,.2,0,.4,-.1,.6c0,.4,-.6,.5,-1.1,.5v.2h3.4v-.2c-.4,0,-.9,0,-1.1,-.2c-.1,-.2,-.2,-.6,-.2,-1v-6.2c-.5,.2,-1.5,.5,-2.2,.5Z" class="g0_89"/>
<path d="M481.7,593.4c-.7,0,-1.3,-.7,-1.3,-1.4c0,-.5,.4,-1,.9,-1c-.1,-.2,-.4,-.4,-.8,-.4c-.1,0,-.3,0,-.4,.1c-.4,.2,-.7,.6,-.7,1.2c0,.2,0,.4,.2,.6c.3,.7,1.1,1.1,2.1,1.1c.8,0,1.4,-.3,1.9,-.6c.4,-.4,.7,-.8,.7,-1.5c0,-.3,0,-.5,-.1,-.7c-.3,-.7,-.8,-1.1,-1.6,-1.3v-.1c.5,-.1,.8,-.3,1.1,-.6c.2,-.3,.4,-.7,.4,-1.2c0,-.3,-.1,-.5,-.2,-.7c-.3,-.7,-1.1,-1,-2.1,-1c-.6,0,-1.2,.1,-1.6,.3c-.3,.2,-.5,.6,-.5,1c0,.3,.1,.6,.3,.8c.1,.1,.4,.3,.7,.3c.1,0,.3,-.1,.4,-.1c.2,-.1,.2,-.2,.2,-.3c-.4,0,-.7,-.3,-.7,-.7c0,-.6,.5,-1.1,1.2,-1.1c.7,0,1.1,.6,1.1,1.5c0,.9,-.2,1.8,-1,1.8c-.2,0,-.4,-.1,-.6,-.1c-.3,0,-.6,0,-.6,.2c0,.3,.4,.4,.6,.4c.2,0,.5,-.2,.6,-.3c.9,0,1.2,.8,1.2,1.8c0,1,-.4,2,-1.4,2Z" class="g0_89"/>
<path d="M399.2,602.6c-.5,0,-.9,.1,-1.3,.4c-.5,.3,-.9,.7,-1.3,1.2c-.6,.7,-1.2,1.9,-1.2,3.2c0,1,.4,1.8,1.3,1.8c1.3,0,1.8,-.9,2.2,-1.6c-.2,.9,-.1,1.6,.5,1.6c.4,0,.8,-.2,1.2,-.5c.4,-.4,.7,-.8,1.1,-1.4l-.2,-.1c-.3,.4,-.9,1.3,-1.4,1.3c-.2,0,-.2,-.3,-.2,-.6c0,-.9,.6,-2.4,.9,-3.4l.7,-1.8h-1l-.3,.6c-.1,-.4,-.4,-.7,-1,-.7Zm.1,.2c.7,0,.6,1.3,.5,1.9c-.1,.3,-.2,.6,-.3,1c-.4,1.2,-1.5,3.1,-2.3,3.1c-.6,0,-.8,-.9,-.8,-1.4c0,-.5,0,-.9,.2,-1.4c.4,-1,1.4,-3.2,2.7,-3.2Z" class="g0_89"/>
<path d="M404.8,606.7c-.7,0,-1.1,-.4,-1.1,-1.1c0,-.8,.4,-1.6,1.3,-1.6c1.2,0,1.3,.9,1.3,1.8c0,1,-.2,1.5,-.7,2.2c-.3,.4,-.6,.8,-1.1,1.3c-.5,.5,-1.1,1.1,-1.9,1.8v.3h4.6l.4,-2.1h-.3c-.1,.2,-.2,.4,-.3,.6c-.1,.3,-.4,.5,-1,.5h-2.1c.5,-.4,1,-.7,1.4,-1.1c.7,-.6,1.5,-1.4,1.9,-2.2c.2,-.4,.3,-.8,.3,-1.2c0,-.3,-.1,-.6,-.2,-.9c-.3,-.7,-1,-1.3,-2.1,-1.3c-.7,0,-1.4,.3,-1.8,.6c-.4,.3,-.7,.8,-.7,1.5c0,.5,.2,.8,.4,1c.2,.3,.5,.4,.9,.4c.4,0,.7,-.1,.8,-.5Z" class="g0_89"/>
<path d="M409.7,604.3v.2c.3,0,.8,0,.9,.1c.4,.2,.3,.3,.4,.7v4.8c0,.2,-.1,.4,-.1,.6c-.1,.4,-.6,.5,-1.2,.5v.2h3.4v-.2c-.3,0,-.9,0,-1,-.2c-.2,-.2,-.2,-.6,-.2,-1v-6.2c-.6,.2,-1.5,.5,-2.2,.5Z" class="g0_89"/>
<path d="M434.5,602.6c-.4,0,-.9,.1,-1.3,.4c-.5,.3,-.9,.7,-1.2,1.2c-.7,.7,-1.3,1.9,-1.3,3.2c0,1,.4,1.8,1.3,1.8c1.3,0,1.8,-.9,2.2,-1.6c-.2,.9,-.1,1.6,.6,1.6c.3,0,.7,-.2,1.1,-.5c.4,-.4,.7,-.8,1.1,-1.4l-.2,-.1c-.3,.4,-.9,1.3,-1.3,1.3c-.2,0,-.3,-.3,-.3,-.6c0,-.9,.6,-2.4,.9,-3.4l.7,-1.8h-1l-.2,.6c-.2,-.4,-.5,-.7,-1.1,-.7Zm.1,.2c.7,0,.6,1.3,.5,1.9c-.1,.3,-.2,.6,-.3,1c-.4,1.2,-1.5,3.1,-2.3,3.1c-.6,0,-.8,-.9,-.8,-1.4c0,-.5,.1,-.9,.2,-1.4c.4,-1,1.5,-3.2,2.7,-3.2Z" class="g0_89"/>
<path d="M440.1,606.7c-.7,0,-1.1,-.4,-1.1,-1.1c0,-.8,.4,-1.6,1.3,-1.6c1.2,0,1.3,.9,1.3,1.8c0,1,-.2,1.5,-.7,2.2c-.2,.4,-.6,.8,-1.1,1.3c-.5,.5,-1.1,1.1,-1.8,1.8v.3h4.5l.4,-2.1h-.3c-.1,.2,-.2,.4,-.2,.6c-.2,.3,-.5,.5,-1.1,.5h-2.1c.5,-.4,1,-.7,1.4,-1.1c.8,-.6,1.5,-1.4,2,-2.2c.1,-.4,.2,-.8,.2,-1.2c0,-.3,0,-.6,-.1,-.9c-.4,-.7,-1.1,-1.3,-2.2,-1.3c-.7,0,-1.4,.3,-1.8,.6c-.3,.3,-.7,.8,-.7,1.5c0,.5,.2,.8,.4,1c.2,.3,.5,.4,.9,.4c.4,0,.7,-.1,.8,-.5Z" class="g0_89"/>
<path d="M446.2,606.7c-.7,0,-1.1,-.4,-1.1,-1.1c0,-.8,.4,-1.6,1.3,-1.6c1.2,0,1.3,.9,1.3,1.8c0,1,-.2,1.5,-.7,2.2c-.2,.4,-.6,.8,-1.1,1.3c-.5,.5,-1.1,1.1,-1.8,1.8v.3h4.5l.4,-2.1h-.3c-.1,.2,-.2,.4,-.2,.6c-.2,.3,-.5,.5,-1.1,.5h-2.1c.5,-.4,1,-.7,1.4,-1.1c.8,-.6,1.5,-1.4,2,-2.2c.1,-.4,.2,-.8,.2,-1.2c0,-.3,0,-.6,-.1,-.9c-.4,-.7,-1.1,-1.3,-2.2,-1.3c-.7,0,-1.4,.3,-1.8,.6c-.3,.3,-.7,.8,-.7,1.5c0,.5,.2,.8,.4,1c.2,.3,.5,.4,.9,.4c.4,0,.7,-.1,.8,-.5Z" class="g0_89"/>
<path d="M469.8,602.6c-.4,0,-.9,.1,-1.3,.4c-.4,.3,-.9,.7,-1.2,1.2c-.7,.7,-1.3,1.9,-1.3,3.2c0,1,.4,1.8,1.3,1.8c1.3,0,1.8,-.9,2.2,-1.6c-.2,.9,-.1,1.6,.6,1.6c.3,0,.7,-.2,1.1,-.5c.4,-.4,.8,-.8,1.1,-1.4l-.2,-.1c-.3,.4,-.9,1.3,-1.3,1.3c-.2,0,-.3,-.3,-.3,-.6c0,-.9,.6,-2.4,.9,-3.4l.7,-1.8h-1l-.2,.6c-.2,-.4,-.5,-.7,-1.1,-.7Zm.1,.2c.7,0,.6,1.3,.5,1.9c-.1,.3,-.2,.6,-.3,1c-.4,1.2,-1.5,3.1,-2.3,3.1c-.6,0,-.7,-.9,-.7,-1.4c0,-.5,0,-.9,.2,-1.4c.3,-1,1.4,-3.2,2.6,-3.2Z" class="g0_89"/>
<path d="M475.4,606.7c-.7,0,-1.1,-.4,-1.1,-1.1c0,-.8,.4,-1.6,1.3,-1.6c1.2,0,1.4,.9,1.4,1.8c0,1,-.3,1.5,-.8,2.2c-.2,.4,-.6,.8,-1.1,1.3c-.5,.5,-1.1,1.1,-1.8,1.8v.3h4.5l.4,-2.1h-.3c-.1,.2,-.2,.4,-.2,.6c-.2,.3,-.5,.5,-1,.5h-2.2c.5,-.4,1,-.7,1.4,-1.1c.8,-.6,1.6,-1.4,2,-2.2c.1,-.4,.2,-.8,.2,-1.2c0,-.3,0,-.6,-.1,-.9c-.4,-.7,-1.1,-1.3,-2.2,-1.3c-.7,0,-1.3,.3,-1.7,.6c-.4,.3,-.7,.8,-.7,1.5c0,.5,.1,.8,.3,1c.2,.3,.5,.4,.9,.4c.4,0,.7,-.1,.8,-.5Z" class="g0_89"/>
<path d="M481.7,611.3c-.7,0,-1.3,-.7,-1.3,-1.4c0,-.5,.4,-1,.9,-1c-.1,-.2,-.4,-.4,-.8,-.4c-.1,0,-.3,.1,-.4,.1c-.4,.2,-.7,.6,-.7,1.2c0,.2,0,.4,.2,.6c.3,.7,1.1,1.1,2.1,1.1c.8,0,1.4,-.3,1.9,-.6c.4,-.4,.7,-.8,.7,-1.5c0,-.3,0,-.5,-.1,-.7c-.3,-.7,-.8,-1.1,-1.6,-1.3v-.1c.5,-.1,.8,-.3,1.1,-.6c.2,-.3,.4,-.7,.4,-1.2c0,-.3,-.1,-.5,-.2,-.7c-.3,-.7,-1.1,-1,-2.1,-1c-.6,0,-1.2,.1,-1.6,.3c-.3,.2,-.5,.6,-.5,1c0,.3,.1,.6,.3,.8c.1,.1,.4,.3,.7,.3c.1,0,.3,-.1,.4,-.1c.2,-.1,.2,-.2,.2,-.3c-.4,0,-.7,-.3,-.7,-.7c0,-.6,.5,-1.1,1.2,-1.1c.7,0,1.1,.6,1.1,1.5c0,.9,-.2,1.8,-1,1.8c-.2,0,-.4,-.1,-.6,-.1c-.3,0,-.6,0,-.6,.2c0,.3,.4,.4,.6,.4c.2,0,.5,-.2,.6,-.3c.9,0,1.2,.8,1.2,1.8c0,1,-.4,2,-1.4,2Z" class="g0_89"/>
<path d="M399.2,620.5c-.5,0,-.9,.1,-1.3,.4c-.5,.3,-.9,.7,-1.3,1.2c-.6,.7,-1.2,1.9,-1.2,3.2c0,1,.4,1.8,1.3,1.8c1.3,0,1.8,-.9,2.2,-1.6c-.2,.9,-.1,1.6,.5,1.6c.4,0,.8,-.2,1.2,-.5c.4,-.4,.7,-.8,1.1,-1.4l-.2,-.1c-.3,.4,-.9,1.3,-1.4,1.3c-.2,0,-.2,-.3,-.2,-.6c0,-.9,.6,-2.4,.9,-3.4l.7,-1.8h-1l-.3,.6c-.1,-.4,-.4,-.7,-1,-.7Zm.1,.2c.7,0,.6,1.3,.5,1.9c-.1,.3,-.2,.6,-.3,1c-.4,1.2,-1.5,3.1,-2.3,3.1c-.6,0,-.8,-.9,-.8,-1.4c0,-.5,0,-.9,.2,-1.4c.4,-1,1.4,-3.2,2.7,-3.2Z" class="g0_89"/>
<path d="M405,629.2c-.8,0,-1.3,-.7,-1.3,-1.4c0,-.5,.3,-1,.8,-1c0,-.2,-.4,-.4,-.7,-.4c-.2,0,-.3,0,-.5,.1c-.4,.2,-.6,.6,-.6,1.2c0,.2,0,.4,.1,.6c.4,.7,1.2,1.1,2.2,1.1c.8,0,1.4,-.3,1.9,-.6c.4,-.4,.7,-.8,.7,-1.5c0,-.3,-.1,-.5,-.1,-.7c-.3,-.7,-.9,-1.1,-1.6,-1.3v-.1c.4,-.1,.8,-.3,1,-.6c.3,-.3,.5,-.7,.5,-1.2c0,-.3,-.1,-.5,-.2,-.7c-.3,-.7,-1.2,-1,-2.2,-1c-.6,0,-1.1,.1,-1.5,.3c-.3,.2,-.6,.6,-.6,1c0,.3,.2,.6,.3,.8c.2,.1,.4,.3,.7,.3c.2,0,.3,-.1,.5,-.1c.1,-.1,.2,-.2,.2,-.3c-.4,0,-.7,-.3,-.7,-.7c0,-.6,.5,-1.1,1.1,-1.1c.8,0,1.2,.6,1.2,1.5c0,.9,-.3,1.8,-1.1,1.8c-.1,0,-.4,-.1,-.6,-.1c-.2,0,-.5,0,-.5,.2c0,.3,.3,.4,.5,.4c.3,0,.6,-.2,.7,-.3c.9,0,1.2,.8,1.2,1.8c0,1,-.4,2,-1.4,2Z" class="g0_89"/>
<path d="M409.7,622.2v.2c.3,0,.8,0,.9,.1c.4,.2,.3,.3,.4,.7V628c0,.2,-.1,.4,-.1,.6c-.1,.4,-.6,.5,-1.2,.5v.2h3.4v-.2c-.3,0,-.9,0,-1,-.2c-.2,-.2,-.2,-.6,-.2,-1v-6.2c-.6,.2,-1.5,.5,-2.2,.5Z" class="g0_89"/>
<path d="M434.5,620.5c-.4,0,-.9,.1,-1.3,.4c-.5,.3,-.9,.7,-1.2,1.2c-.7,.7,-1.3,1.9,-1.3,3.2c0,1,.4,1.8,1.3,1.8c1.3,0,1.8,-.9,2.2,-1.6c-.2,.9,-.1,1.6,.6,1.6c.3,0,.7,-.2,1.1,-.5c.4,-.4,.7,-.8,1.1,-1.4l-.2,-.1c-.3,.4,-.9,1.3,-1.3,1.3c-.2,0,-.3,-.3,-.3,-.6c0,-.9,.6,-2.4,.9,-3.4l.7,-1.8h-1l-.2,.6c-.2,-.4,-.5,-.7,-1.1,-.7Zm.1,.2c.7,0,.6,1.3,.5,1.9c-.1,.3,-.2,.6,-.3,1c-.4,1.2,-1.5,3.1,-2.3,3.1c-.6,0,-.8,-.9,-.8,-1.4c0,-.5,.1,-.9,.2,-1.4c.4,-1,1.5,-3.2,2.7,-3.2Z" class="g0_89"/>
<path d="M440.3,629.2c-.7,0,-1.3,-.7,-1.3,-1.4c0,-.5,.3,-1,.8,-1c0,-.2,-.4,-.4,-.7,-.4c-.2,0,-.3,0,-.4,.1c-.4,.2,-.7,.6,-.7,1.2c0,.2,0,.4,.1,.6c.4,.7,1.2,1.1,2.2,1.1c.8,0,1.4,-.3,1.9,-.6c.4,-.4,.7,-.8,.7,-1.5c0,-.3,0,-.5,-.1,-.7c-.3,-.7,-.9,-1.1,-1.6,-1.3v-.1c.4,-.1,.8,-.3,1,-.6c.3,-.3,.5,-.7,.5,-1.2c0,-.3,-.1,-.5,-.2,-.7c-.3,-.7,-1.1,-1,-2.2,-1c-.6,0,-1.1,.1,-1.5,.3c-.3,.2,-.5,.6,-.5,1c0,.3,.1,.6,.2,.8c.2,.1,.4,.3,.7,.3c.2,0,.4,-.1,.5,-.1c.1,-.1,.2,-.2,.2,-.3c-.4,0,-.7,-.3,-.7,-.7c0,-.6,.5,-1.1,1.1,-1.1c.8,0,1.2,.6,1.2,1.5c0,.9,-.2,1.8,-1.1,1.8c-.1,0,-.4,-.1,-.6,-.1c-.2,0,-.5,0,-.5,.2c0,.3,.3,.4,.6,.4c.2,0,.5,-.2,.6,-.3c.9,0,1.2,.8,1.2,1.8c0,1,-.4,2,-1.4,2Z" class="g0_89"/>
<path d="M446.2,624.6c-.7,0,-1.1,-.4,-1.1,-1.1c0,-.8,.4,-1.7,1.3,-1.7c1.2,0,1.3,1,1.3,1.9c0,1,-.2,1.5,-.7,2.2c-.2,.4,-.6,.8,-1.1,1.3c-.5,.5,-1.1,1.1,-1.8,1.8v.3h4.5l.4,-2.1h-.3c-.1,.2,-.2,.4,-.2,.6c-.2,.3,-.5,.5,-1.1,.5h-2.1c.5,-.4,1,-.7,1.4,-1.1c.8,-.6,1.5,-1.4,2,-2.2c.1,-.4,.2,-.8,.2,-1.2c0,-.3,0,-.6,-.1,-.9c-.4,-.7,-1.1,-1.3,-2.2,-1.3c-.7,0,-1.4,.3,-1.8,.6c-.3,.3,-.7,.8,-.7,1.5c0,.5,.2,.8,.4,1c.2,.3,.5,.4,.9,.4c.4,0,.7,-.1,.8,-.5Z" class="g0_89"/>
<path d="M469.8,620.5c-.4,0,-.9,.1,-1.3,.4c-.4,.3,-.9,.7,-1.2,1.2c-.7,.7,-1.3,1.9,-1.3,3.2c0,1,.4,1.8,1.3,1.8c1.3,0,1.8,-.9,2.2,-1.6c-.2,.9,-.1,1.6,.6,1.6c.3,0,.7,-.2,1.1,-.5c.4,-.4,.8,-.8,1.1,-1.4l-.2,-.1c-.3,.4,-.9,1.3,-1.3,1.3c-.2,0,-.3,-.3,-.3,-.6c0,-.9,.6,-2.4,.9,-3.4l.7,-1.8h-1l-.2,.6c-.2,-.4,-.5,-.7,-1.1,-.7Zm.1,.2c.7,0,.6,1.3,.5,1.9c-.1,.3,-.2,.6,-.3,1c-.4,1.2,-1.5,3.1,-2.3,3.1c-.6,0,-.7,-.9,-.7,-1.4c0,-.5,0,-.9,.2,-1.4c.3,-1,1.4,-3.2,2.6,-3.2Z" class="g0_89"/>
<path d="M475.6,629.2c-.7,0,-1.3,-.7,-1.3,-1.4c0,-.5,.4,-1,.9,-1c-.1,-.2,-.4,-.4,-.8,-.4c-.1,0,-.3,0,-.4,.1c-.4,.2,-.7,.6,-.7,1.2c0,.2,0,.4,.2,.6c.3,.7,1.1,1.1,2.1,1.1c.8,0,1.4,-.3,1.9,-.6c.4,-.4,.7,-.8,.7,-1.5c0,-.3,0,-.5,-.1,-.7c-.3,-.7,-.8,-1.1,-1.6,-1.3v-.1c.5,-.1,.8,-.3,1.1,-.6c.2,-.3,.4,-.7,.4,-1.2c0,-.3,-.1,-.5,-.2,-.7c-.3,-.7,-1.1,-1,-2.1,-1c-.6,0,-1.2,.1,-1.6,.3c-.3,.2,-.5,.6,-.5,1c0,.3,.1,.6,.3,.8c.1,.1,.4,.3,.7,.3c.1,0,.3,-.1,.4,-.1c.2,-.1,.2,-.2,.3,-.3c-.5,0,-.8,-.3,-.8,-.7c0,-.6,.5,-1.1,1.2,-1.1c.7,0,1.1,.6,1.1,1.5c0,.9,-.2,1.8,-1,1.8c-.2,0,-.4,-.1,-.6,-.1c-.3,0,-.6,0,-.6,.2c0,.3,.4,.4,.6,.4c.2,0,.5,-.2,.6,-.3c.9,0,1.2,.8,1.2,1.8c0,1,-.4,2,-1.4,2Z" class="g0_89"/>
<path d="M481.7,629.2c-.7,0,-1.3,-.7,-1.3,-1.4c0,-.5,.4,-1,.9,-1c-.1,-.2,-.4,-.4,-.8,-.4c-.1,0,-.3,0,-.4,.1c-.4,.2,-.7,.6,-.7,1.2c0,.2,0,.4,.2,.6c.3,.7,1.1,1.1,2.1,1.1c.8,0,1.4,-.3,1.9,-.6c.4,-.4,.7,-.8,.7,-1.5c0,-.3,0,-.5,-.1,-.7c-.3,-.7,-.8,-1.1,-1.6,-1.3v-.1c.5,-.1,.8,-.3,1.1,-.6c.2,-.3,.4,-.7,.4,-1.2c0,-.3,-.1,-.5,-.2,-.7c-.3,-.7,-1.1,-1,-2.1,-1c-.6,0,-1.2,.1,-1.6,.3c-.3,.2,-.5,.6,-.5,1c0,.3,.1,.6,.3,.8c.1,.1,.4,.3,.7,.3c.1,0,.3,-.1,.4,-.1c.2,-.1,.2,-.2,.2,-.3c-.4,0,-.7,-.3,-.7,-.7c0,-.6,.5,-1.1,1.2,-1.1c.7,0,1.1,.6,1.1,1.5c0,.9,-.2,1.8,-1,1.8c-.2,0,-.4,-.1,-.6,-.1c-.3,0,-.6,0,-.6,.2c0,.3,.4,.4,.6,.4c.2,0,.5,-.2,.6,-.3c.9,0,1.2,.8,1.2,1.8c0,1,-.4,2,-1.4,2Z" class="g0_89"/>
<path d="M486.2,579.6c0,.1,0,.2,.1,.4c3.2,5.4,4,19.1,4,20.3v.7h1.4v-.8c-.1,-1.9,-.7,-15.4,-5.4,-20.7h-.1v.1Z" class="g0_89"/>
<path d="M490.3,610.2h1.4v-9.6h-1.4Z" class="g0_89"/>
<path d="M486.2,631.4c0,0,0,.1,0,.1h.1v-.1c4.7,-5.2,5.3,-18.7,5.4,-20.6V610h-1.4v.7c0,1.2,-.8,14.9,-4,20.3c-.1,.2,-.1,.3,-.1,.4Z" class="g0_89"/>
<path d="M433.4,718.1c0,0,0,-.1,-.1,-.1c0,0,-.1,0,-.1,.1c-4.7,5.3,-5.3,19.1,-5.3,20.7v.7h1.4v-.7c0,-1.2,.8,-14.9,4,-20.3c0,-.2,.1,-.3,.1,-.4Z" class="g0_89"/>
<path d="M427.9,748.8h1.4v-9.6h-1.4Z" class="g0_89"/>
<path d="M433.4,769.9c0,-.1,-.1,-.2,-.1,-.4c-3.2,-5.4,-4,-19.1,-4,-20.3v-.7h-1.4v.7c0,1.6,.6,15.4,5.3,20.7c0,.1,.1,.1,.1,.1c.1,0,.1,-.1,.1,-.1Z" class="g0_89"/>
<path d="M441.1,724.1c0,-.5,-.5,-.9,-1,-.9c-.3,0,-.7,.1,-1,.3c-.3,.2,-.6,.5,-.8,.9c0,-.7,-.4,-1.2,-1.1,-1.2c-1.1,0,-2.1,1.1,-2.4,1.9l.2,.1c.3,-.5,1.1,-1.7,2,-1.7c.2,0,.3,.6,.3,1c0,.3,0,.7,-.2,1.2l-.3,1.2c-.2,.5,-.4,1.3,-.7,1.7c-.2,.3,-.4,.7,-.8,.7c-.4,0,-.7,-.1,-.6,-.5c0,-.3,0,-.7,-.4,-.7c-.5,0,-.7,.3,-.7,.7c0,.6,.5,1,1.1,1c1,0,1.7,-.8,2.1,-1.5c.1,.8,.5,1.5,1.4,1.5c1.2,0,2,-1.2,2.4,-1.9l-.2,-.1c-.5,.6,-1.1,1.6,-1.9,1.6c-.5,0,-.7,-.6,-.7,-1.2c0,-.4,.1,-.8,.2,-1.3l.2,-.8c.1,-.5,.3,-1.2,.6,-1.6c.2,-.3,.6,-.9,.9,-.9c.5,0,.4,.3,.4,.6c0,.4,.1,.6,.5,.6c.3,0,.5,-.3,.5,-.7Z" class="g0_89"/>
<path d="M442.6,724.9v.2c.4,0,.8,0,1,.1c.3,.2,.3,.3,.3,.8v4.7c0,.2,0,.4,0,.6c-.1,.5,-.7,.5,-1.2,.6v.1h3.4v-.1c-.4,-.1,-.9,-.1,-1.1,-.3c-.1,-.2,-.1,-.6,-.1,-1v-6.2c-.6,.3,-1.6,.5,-2.3,.5Z" class="g0_89"/>
<path d="M441.1,742c0,-.5,-.5,-.9,-1,-.9c-.3,0,-.7,.1,-1,.3c-.3,.2,-.6,.5,-.8,.9c0,-.7,-.4,-1.2,-1.1,-1.2c-1.1,0,-2.1,1.1,-2.4,1.9l.2,.1c.3,-.5,1.1,-1.7,2,-1.7c.2,0,.3,.6,.3,1c0,.3,0,.7,-.2,1.2l-.3,1.2c-.2,.5,-.4,1.3,-.7,1.7c-.2,.3,-.4,.7,-.8,.7c-.4,0,-.7,-.1,-.6,-.5c0,-.3,0,-.7,-.4,-.7c-.5,0,-.7,.3,-.7,.7c0,.6,.5,1,1.1,1c1,0,1.7,-.8,2.1,-1.5c.1,.8,.5,1.5,1.4,1.5c1.2,0,2,-1.2,2.4,-1.9l-.2,-.1c-.5,.6,-1.1,1.6,-1.9,1.6c-.5,0,-.7,-.6,-.7,-1.2c0,-.4,.1,-.8,.2,-1.3l.2,-.8c.1,-.5,.3,-1.2,.6,-1.6c.2,-.3,.6,-.9,.9,-.9c.5,0,.4,.3,.4,.6c0,.4,.1,.6,.5,.6c.3,0,.5,-.3,.5,-.7Z" class="g0_89"/>
<path d="M443.8,745.2c-.7,0,-1.1,-.4,-1.1,-1.1c0,-.8,.5,-1.6,1.4,-1.6c1.2,0,1.3,.9,1.3,1.9c0,.9,-.3,1.4,-.7,2.1c-.3,.4,-.7,.8,-1.2,1.3c-.4,.5,-1,1.1,-1.8,1.8v.3h4.6l.3,-2.1h-.3c0,.2,-.1,.4,-.2,.6c-.2,.4,-.5,.6,-1,.6H443v-.1c.5,-.4,.9,-.7,1.4,-1.1c.7,-.6,1.5,-1.3,1.9,-2.2c.2,-.4,.3,-.8,.3,-1.2c0,-.3,-.1,-.6,-.2,-.9c-.4,-.7,-1.1,-1.2,-2.2,-1.2c-.7,0,-1.3,.2,-1.7,.5c-.4,.4,-.7,.8,-.7,1.5c0,.5,.1,.8,.4,1c.2,.3,.4,.5,.9,.5c.4,0,.7,-.2,.7,-.6Z" class="g0_89"/>
<path d="M441.1,759.9c0,-.5,-.5,-.9,-1,-.9c-.3,0,-.7,.1,-1,.3c-.3,.2,-.6,.5,-.8,.9c0,-.7,-.4,-1.2,-1.1,-1.2c-1.1,0,-2.1,1.1,-2.4,1.9l.2,.1c.3,-.5,1.1,-1.7,2,-1.7c.2,0,.3,.6,.3,1c0,.3,0,.7,-.2,1.2l-.3,1.2c-.2,.5,-.4,1.3,-.7,1.7c-.2,.3,-.4,.7,-.8,.7c-.4,0,-.7,-.1,-.6,-.5c0,-.3,0,-.7,-.4,-.7c-.5,0,-.7,.3,-.7,.7c0,.6,.5,1,1.1,1c1,0,1.7,-.8,2.1,-1.5c.1,.8,.5,1.5,1.4,1.5c1.2,0,2,-1.2,2.4,-1.9l-.2,-.1c-.5,.6,-1.1,1.6,-1.9,1.6c-.5,0,-.7,-.6,-.7,-1.2c0,-.4,.1,-.8,.2,-1.3l.2,-.8c.1,-.5,.3,-1.2,.6,-1.6c.2,-.3,.6,-.9,.9,-.9c.5,0,.4,.3,.4,.6c0,.4,.1,.6,.5,.6c.3,0,.5,-.3,.5,-.7Z" class="g0_89"/>
<path d="M444,767.7c-.7,0,-1.2,-.7,-1.2,-1.4c0,-.5,.3,-.9,.8,-.9c-.1,-.3,-.4,-.5,-.8,-.5c-.1,0,-.3,.1,-.4,.1c-.4,.2,-.7,.6,-.7,1.2c0,.2,.1,.4,.2,.7c.4,.6,1.1,1,2.2,1c.8,0,1.4,-.2,1.8,-.6c.4,-.3,.8,-.8,.8,-1.5c0,-.3,-.1,-.5,-.2,-.7c-.2,-.7,-.8,-1.1,-1.5,-1.3v-.1c.4,-.1,.7,-.3,1,-.6c.2,-.3,.4,-.7,.4,-1.2c0,-.2,0,-.5,-.1,-.7c-.4,-.7,-1.2,-1,-2.2,-1c-.6,0,-1.2,.1,-1.5,.3c-.3,.3,-.6,.6,-.6,1c0,.4,.1,.6,.3,.8c.1,.2,.4,.3,.7,.3c.2,0,.3,0,.5,-.1c.1,-.1,.1,-.2,.2,-.3c-.4,0,-.7,-.3,-.7,-.7c0,-.6,.5,-1.1,1.1,-1.1c.8,0,1.2,.6,1.2,1.6c0,.8,-.3,1.7,-1.1,1.7c-.2,0,-.4,-.1,-.6,-.1c-.2,0,-.5,0,-.5,.2c0,.3,.3,.4,.5,.4c.3,0,.5,-.2,.7,-.2c.9,0,1.1,.8,1.1,1.7c0,1,-.4,2,-1.4,2Z" class="g0_89"/>
<path d="M448.5,718.1c0,.1,0,.2,.1,.4c3.2,5.4,4,19.1,4,20.3v.7H454v-.7c0,-1.6,-.6,-15.4,-5.3,-20.7q-.1,-.1,-.1,-.1c-.1,0,-.1,.1,-.1,.1Z" class="g0_89"/>
<path d="M452.6,748.8H454v-9.6h-1.4Z" class="g0_89"/>
<path d="M448.5,769.9c0,0,0,.1,.1,.1l.1,-.1c4.7,-5.3,5.3,-19.1,5.3,-20.7v-.7h-1.4v.7c0,1.2,-.8,14.9,-4,20.3c-.1,.2,-.1,.3,-.1,.4Z" class="g0_89"/>
<path d="M433.2,856.1c0,-.1,-.1,-.1,-.1,-.1q-.1,0,-.1,0c-4.8,5.3,-5.3,19.2,-5.3,20.8v.7h1.4v-.7c0,-1.2,.8,-14.9,3.9,-20.4c.1,-.1,.2,-.2,.2,-.3Z" class="g0_89"/>
<path d="M427.7,886.7h1.4v-9.6h-1.4Z" class="g0_89"/>
<path d="M433.2,907.9c0,-.2,-.1,-.3,-.2,-.4c-3.1,-5.4,-3.9,-19.1,-3.9,-20.3v-.7h-1.4v.7c0,1.5,.5,15.4,5.3,20.7h.1c0,0,.1,0,.1,0Z" class="g0_89"/>
<path d="M437.6,861.5c1.2,0,.9,1.9,.4,3.2c-.4,.8,-1.3,2.7,-2.4,2.7c-.5,0,-.7,-.3,-.7,-1c0,-.7,.3,-1.8,.5,-2.3c.3,-.6,.7,-1.6,1.1,-2c.3,-.3,.7,-.6,1.1,-.6Zm-2.2,6.2c1.7,0,2.8,-1.4,3.5,-2.6c.3,-.6,.6,-1.4,.6,-2.2c0,-1.1,-.5,-1.8,-1.5,-1.8c-1,0,-1.7,.6,-2,1.2h-.1l1.6,-5.6l-2.1,.1l-.1,.2c.7,0,.9,.3,.9,.6c0,.2,-.1,.6,-.2,.7l-1.5,5.7c-.2,.5,-.4,1,-.4,1.4c-.1,.3,-.2,.7,-.2,.8c0,.9,.6,1.5,1.5,1.5Z" class="g0_89"/>
<path d="M441.3,862.9v.1c.4,0,.8,.1,1,.2c.3,.1,.3,.3,.3,.7v4.8c0,.2,0,.4,0,.5c-.1,.5,-.7,.6,-1.2,.6v.2h3.4v-.2c-.4,0,-.9,0,-1,-.2c-.2,-.2,-.2,-.6,-.2,-1v-6.3c-.6,.3,-1.6,.6,-2.3,.6Z" class="g0_89"/>
<path d="M437.6,879.4c1.2,0,.9,1.9,.4,3.2c-.4,.8,-1.3,2.7,-2.4,2.7c-.5,0,-.7,-.3,-.7,-1c0,-.7,.3,-1.8,.5,-2.3c.3,-.6,.7,-1.6,1.1,-2c.3,-.3,.7,-.6,1.1,-.6Zm-2.2,6.2c1.7,0,2.8,-1.4,3.5,-2.6c.3,-.6,.6,-1.4,.6,-2.2c0,-1.1,-.5,-1.8,-1.5,-1.8c-1,0,-1.7,.6,-2,1.2h-.1l1.6,-5.6l-2.1,.1l-.1,.2c.7,0,.9,.3,.9,.6c0,.2,-.1,.6,-.2,.7l-1.5,5.7c-.2,.5,-.4,1,-.4,1.4c-.1,.3,-.2,.7,-.2,.8c0,.9,.6,1.5,1.5,1.5Z" class="g0_89"/>
<path d="M442.5,883.2c-.6,0,-1,-.5,-1,-1.1c0,-.8,.4,-1.7,1.3,-1.7c1.2,0,1.3,1,1.3,1.9c0,.9,-.3,1.5,-.7,2.2c-.3,.4,-.7,.8,-1.1,1.3c-.5,.5,-1.1,1.1,-1.9,1.7v.4H445l.3,-2.1H445c0,.2,-.1,.4,-.2,.5c-.2,.4,-.5,.6,-1,.6h-2.1c.5,-.4,.9,-.8,1.4,-1.1c.7,-.7,1.5,-1.4,1.9,-2.3c.2,-.3,.3,-.7,.3,-1.2c0,-.3,-.1,-.5,-.2,-.8c-.3,-.8,-1.1,-1.3,-2.2,-1.3c-.7,0,-1.3,.3,-1.7,.6c-.4,.3,-.7,.8,-.7,1.5c0,.4,.1,.8,.4,1c.2,.3,.5,.4,.9,.4c.4,0,.7,-.2,.7,-.5Z" class="g0_89"/>
<path d="M437.6,897.3c1.2,0,.9,1.9,.4,3.2c-.4,.8,-1.3,2.7,-2.4,2.7c-.5,0,-.7,-.3,-.7,-1c0,-.7,.3,-1.8,.5,-2.3c.3,-.6,.7,-1.6,1.1,-2c.3,-.3,.7,-.6,1.1,-.6Zm-2.2,6.2c1.7,0,2.8,-1.4,3.5,-2.6c.3,-.6,.6,-1.4,.6,-2.2c0,-1.1,-.5,-1.8,-1.5,-1.8c-1,0,-1.7,.6,-2,1.2h-.1l1.6,-5.6l-2.1,.1l-.1,.2c.7,0,.9,.3,.9,.6c0,.2,-.1,.6,-.2,.7l-1.5,5.7c-.2,.5,-.4,1,-.4,1.4c-.1,.3,-.2,.7,-.2,.8c0,.9,.6,1.5,1.5,1.5Z" class="g0_89"/>
<path d="M442.7,905.7c-.7,0,-1.2,-.7,-1.2,-1.4c0,-.5,.3,-1,.8,-1c-.1,-.3,-.4,-.4,-.7,-.4c-.2,0,-.4,0,-.5,.1c-.4,.1,-.7,.6,-.7,1.1c0,.3,.1,.5,.2,.7c.4,.7,1.1,1.1,2.2,1.1c.8,0,1.4,-.3,1.8,-.6c.4,-.4,.8,-.9,.8,-1.6c0,-.2,-.1,-.4,-.2,-.7c-.2,-.6,-.8,-1.1,-1.5,-1.3c.4,-.1,.8,-.4,1,-.7c.2,-.2,.4,-.6,.4,-1.1c0,-.3,0,-.5,-.1,-.7c-.4,-.7,-1.2,-1.1,-2.2,-1.1c-.6,0,-1.2,.2,-1.5,.4c-.3,.2,-.6,.5,-.6,1c0,.3,.1,.6,.3,.7c.1,.2,.4,.4,.7,.4c.2,0,.3,-.1,.5,-.2c.1,0,.2,-.1,.2,-.2c-.4,0,-.7,-.3,-.7,-.8c0,-.6,.5,-1.1,1.1,-1.1c.8,0,1.2,.7,1.2,1.6c0,.9,-.3,1.8,-1.1,1.8c-.2,-.1,-.4,-.2,-.6,-.2c-.2,0,-.5,.1,-.5,.3c0,.2,.3,.3,.5,.3c.3,0,.5,-.1,.7,-.2c.9,0,1.1,.8,1.1,1.8c0,1,-.4,2,-1.4,2Z" class="g0_89"/>
<path d="M447.2,856.1c0,.1,0,.2,.1,.3c3.2,5.5,4,19.2,4,20.4v.7h1.4v-.7c0,-1.6,-.6,-15.5,-5.3,-20.8c0,0,-.1,0,-.1,0q-.1,0,-.1,.1Z" class="g0_89"/>
<path d="M451.3,886.7h1.4v-9.6h-1.4Z" class="g0_89"/>
<path d="M447.2,907.9h.1c0,0,.1,0,.1,0c4.7,-5.3,5.3,-19.2,5.3,-20.7v-.7h-1.4v.7c0,1.2,-.8,14.9,-4,20.3c-.1,.1,-.1,.2,-.1,.4Z" class="g0_89"/>
</svg>