<?xml version="1.0" encoding="UTF-8" standalone="no"?>
<!DOCTYPE svg PUBLIC "-//W3C//DTD SVG 1.1//EN"
"http://www.w3.org/Graphics/SVG/1.1/DTD/svg11.dtd">
<svg viewBox="0 0 811 1017" version="1.1" xmlns="http://www.w3.org/2000/svg" xmlns:xlink="http://www.w3.org/1999/xlink">
<defs>
<clipPath id="c0_242"><path d="M142.4,388V82.5H528.9V388Z"/></clipPath>
<style type="text/css"><![CDATA[
.g0_242{
fill: #FFF;
}
.g1_242{
fill: #1A78B6;
}
.g2_242{
fill: none;
stroke: #1A78B6;
stroke-width: 0.982;
stroke-linejoin: round;
}
.g3_242{
fill: none;
stroke: #B0B2B1;
stroke-width: 0.785;
stroke-linecap: square;
stroke-linejoin: round;
}
.g4_242{
fill: none;
stroke: #040504;
stroke-width: 0.785;
stroke-linejoin: round;
}
.g5_242{
fill: #040504;
}
.g6_242{
fill: none;
stroke: #1A78B6;
stroke-width: 1.472;
stroke-linecap: square;
stroke-linejoin: round;
}
.g7_242{
fill: none;
stroke: #040504;
stroke-width: 0.785;
stroke-linecap: square;
}
]]></style>
</defs>
<path d="M177.1,359.5H527.7V98.3H177.1Z" class="g0_242"/>
<path d="M248.4,310.9c.8,0,1.5,-.4,2.1,-.9c.5,-.6,.8,-1.3,.8,-2.1c0,-.8,-.3,-1.5,-.8,-2.1c-.6,-.5,-1.3,-.8,-2.1,-.8c-.8,0,-1.5,.3,-2.1,.8c-.5,.6,-.9,1.3,-.9,2.1c0,.8,.4,1.5,.9,2.1c.6,.5,1.3,.9,2.1,.9Z" class="g1_242"/>
<path d="M248.4,310.9c.8,0,1.5,-.4,2.1,-.9c.5,-.6,.8,-1.3,.8,-2.1c0,-.8,-.3,-1.5,-.8,-2.1c-.6,-.5,-1.3,-.8,-2.1,-.8c-.8,0,-1.5,.3,-2.1,.8c-.5,.6,-.9,1.3,-.9,2.1c0,.8,.4,1.5,.9,2.1c.6,.5,1.3,.9,2.1,.9Z" class="g2_242"/>
<path d="M482.5,310.9c.8,0,1.6,-.4,2.1,-.9c.6,-.6,.9,-1.3,.9,-2.1c0,-.8,-.3,-1.5,-.9,-2.1c-.5,-.5,-1.3,-.8,-2.1,-.8c-.8,0,-1.5,.3,-2.1,.8c-.5,.6,-.8,1.3,-.8,2.1c0,.8,.3,1.5,.8,2.1c.6,.5,1.3,.9,2.1,.9Z" class="g1_242"/>
<path d="M482.5,310.9c.8,0,1.6,-.4,2.1,-.9c.6,-.6,.9,-1.3,.9,-2.1c0,-.8,-.3,-1.5,-.9,-2.1c-.5,-.5,-1.3,-.8,-2.1,-.8c-.8,0,-1.5,.3,-2.1,.8c-.5,.6,-.8,1.3,-.8,2.1c0,.8,.3,1.5,.8,2.1c.6,.5,1.3,.9,2.1,.9Z" class="g2_242"/>
<path d="M482.5,152.9c.8,0,1.6,-.3,2.1,-.9c.6,-.5,.9,-1.3,.9,-2.1c0,-.8,-.3,-1.5,-.9,-2.1c-.5,-.5,-1.3,-.8,-2.1,-.8c-.8,0,-1.5,.3,-2.1,.8c-.5,.6,-.8,1.3,-.8,2.1c0,.8,.3,1.6,.8,2.1c.6,.6,1.3,.9,2.1,.9Z" class="g1_242"/>
<path d="M482.5,152.9c.8,0,1.6,-.3,2.1,-.9c.6,-.5,.9,-1.3,.9,-2.1c0,-.8,-.3,-1.5,-.9,-2.1c-.5,-.5,-1.3,-.8,-2.1,-.8c-.8,0,-1.5,.3,-2.1,.8c-.5,.6,-.8,1.3,-.8,2.1c0,.8,.3,1.6,.8,2.1c.6,.6,1.3,.9,2.1,.9Z" class="g2_242"/>
<path d="M248.4,152.9c.8,0,1.5,-.3,2.1,-.9c.5,-.5,.8,-1.3,.8,-2.1c0,-.8,-.3,-1.5,-.8,-2.1c-.6,-.5,-1.3,-.8,-2.1,-.8c-.8,0,-1.5,.3,-2.1,.8c-.5,.6,-.9,1.3,-.9,2.1c0,.8,.4,1.6,.9,2.1c.6,.6,1.3,.9,2.1,.9Z" class="g1_242"/>
<path d="M248.4,152.9c.8,0,1.5,-.3,2.1,-.9c.5,-.5,.8,-1.3,.8,-2.1c0,-.8,-.3,-1.5,-.8,-2.1c-.6,-.5,-1.3,-.8,-2.1,-.8c-.8,0,-1.5,.3,-2.1,.8c-.5,.6,-.9,1.3,-.9,2.1c0,.8,.4,1.6,.9,2.1c.6,.6,1.3,.9,2.1,.9Z" class="g2_242"/>
<path d="M178.1,359.5V98.3" class="g3_242"/>
<path d="M178.1,359.5V363" class="g4_242"/>
<path d="M173.5,366.6c.8,0,1.4,.3,1.8,.9c.4,.7,.6,1.6,.6,2.8c0,1.2,-.2,2.1,-.6,2.8c-.4,.6,-1,.9,-1.8,.9c-.8,0,-1.5,-.3,-1.9,-.9c-.4,-.7,-.6,-1.6,-.6,-2.8c0,-1.2,.2,-2.1,.6,-2.8c.4,-.6,1.1,-.9,1.9,-.9Zm0,.7c-.5,0,-.9,.3,-1.2,.8c-.2,.5,-.3,1.2,-.3,2.2c0,1,.1,1.7,.3,2.2c.3,.5,.7,.7,1.2,.7c.5,0,.8,-.2,1.1,-.7c.2,-.5,.4,-1.2,.4,-2.2c0,-1,-.2,-1.7,-.4,-2.2c-.3,-.5,-.6,-.8,-1.1,-.8Z" class="g5_242"/>
<path d="M177.6,373.9h1v-1.3h-1Z" class="g5_242"/>
<path d="M180.9,373.1h1.6v-5.5l-1.7,.3v-.8l1.7,-.4h1v6.4H185v.8h-4.1v-.8Z" class="g5_242"/>
<path d="M225,359.5V98.3" class="g3_242"/>
<path d="M225,359.5V363" class="g4_242"/>
<path d="M220.3,366.6c.8,0,1.4,.3,1.8,.9c.5,.7,.7,1.6,.7,2.8c0,1.2,-.2,2.1,-.7,2.8c-.4,.6,-1,.9,-1.8,.9c-.8,0,-1.4,-.3,-1.8,-.9c-.5,-.7,-.7,-1.6,-.7,-2.8c0,-1.2,.2,-2.1,.7,-2.8c.4,-.6,1,-.9,1.8,-.9Zm0,.7c-.5,0,-.9,.3,-1.1,.8c-.3,.5,-.4,1.2,-.4,2.2c0,1,.1,1.7,.4,2.2c.2,.5,.6,.7,1.1,.7c.5,0,.9,-.2,1.1,-.7c.3,-.5,.4,-1.2,.4,-2.2c0,-1,-.1,-1.7,-.4,-2.2c-.2,-.5,-.6,-.8,-1.1,-.8Z" class="g5_242"/>
<path d="M224.5,373.9h1v-1.3h-1Z" class="g5_242"/>
<path d="M228.4,373.1h3.4v.8h-4.5v-.8c.3,-.4,.8,-.9,1.5,-1.6c.6,-.6,1,-1,1.2,-1.2c.3,-.4,.5,-.7,.6,-.9c.1,-.2,.2,-.5,.2,-.7c0,-.4,-.1,-.7,-.4,-.9c-.3,-.3,-.6,-.4,-1.1,-.4c-.3,0,-.6,0,-.9,.2c-.4,.1,-.7,.2,-1.1,.4v-.9c.4,-.2,.8,-.3,1.1,-.4c.3,-.1,.6,-.1,.9,-.1c.8,0,1.4,.2,1.8,.5c.4,.4,.7,.9,.7,1.5c0,.3,-.1,.6,-.2,.9c-.1,.2,-.3,.5,-.6,.9c-.1,.1,-.3,.4,-.8,.8c-.4,.4,-1,1.1,-1.8,1.9Z" class="g5_242"/>
<path d="M271.8,359.5V98.3" class="g3_242"/>
<path d="M271.8,359.5V363" class="g4_242"/>
<path d="M267.1,366.6c.8,0,1.4,.3,1.9,.9c.4,.7,.6,1.6,.6,2.8c0,1.2,-.2,2.1,-.6,2.8c-.5,.6,-1.1,.9,-1.9,.9c-.8,0,-1.4,-.3,-1.8,-.9c-.4,-.7,-.7,-1.6,-.7,-2.8c0,-1.2,.3,-2.1,.7,-2.8c.4,-.6,1,-.9,1.8,-.9Zm0,.7c-.5,0,-.9,.3,-1.1,.8c-.3,.5,-.4,1.2,-.4,2.2c0,1,.1,1.7,.4,2.2c.2,.5,.6,.7,1.1,.7c.5,0,.9,-.2,1.1,-.7c.3,-.5,.4,-1.2,.4,-2.2c0,-1,-.1,-1.7,-.4,-2.2c-.2,-.5,-.6,-.8,-1.1,-.8Z" class="g5_242"/>
<path d="M271.3,373.9h1v-1.3h-1Z" class="g5_242"/>
<path d="M277.3,370c.5,.1,.9,.3,1.1,.6c.3,.3,.4,.7,.4,1.2c0,.7,-.2,1.2,-.7,1.6c-.5,.4,-1.2,.6,-2.1,.6c-.3,0,-.6,0,-.9,-.1c-.3,0,-.6,-.1,-1,-.2v-1c.3,.2,.6,.3,.9,.4c.3,.1,.6,.1,1,.1c.6,0,1.1,-.1,1.4,-.4c.3,-.2,.5,-.6,.5,-1c0,-.4,-.2,-.8,-.5,-1c-.3,-.2,-.7,-.4,-1.2,-.4h-.9v-.8h.9c.5,0,.9,-.1,1.1,-.2c.3,-.2,.4,-.5,.4,-.9c0,-.3,-.1,-.6,-.4,-.8c-.3,-.2,-.6,-.3,-1.1,-.3c-.3,0,-.6,0,-.9,.1c-.3,0,-.6,.1,-1,.2v-.8c.4,-.1,.7,-.2,1.1,-.2c.3,-.1,.6,-.1,.9,-.1c.7,0,1.3,.1,1.7,.5c.4,.3,.7,.8,.7,1.3c0,.4,-.2,.8,-.4,1c-.2,.3,-.5,.5,-1,.6Z" class="g5_242"/>
<path d="M318.6,359.5V98.3" class="g3_242"/>
<path d="M318.6,359.5V363" class="g4_242"/>
<path d="M313.9,366.6c.8,0,1.5,.3,1.9,.9c.4,.7,.6,1.6,.6,2.8c0,1.2,-.2,2.1,-.6,2.8c-.4,.6,-1.1,.9,-1.9,.9c-.8,0,-1.4,-.3,-1.8,-.9c-.4,-.7,-.6,-1.6,-.6,-2.8c0,-1.2,.2,-2.1,.6,-2.8c.4,-.6,1,-.9,1.8,-.9Zm0,.7c-.5,0,-.8,.3,-1.1,.8c-.2,.5,-.4,1.2,-.4,2.2c0,1,.2,1.7,.4,2.2c.3,.5,.6,.7,1.1,.7c.5,0,.9,-.2,1.2,-.7c.2,-.5,.3,-1.2,.3,-2.2c0,-1,-.1,-1.7,-.3,-2.2c-.3,-.5,-.7,-.8,-1.2,-.8Z" class="g5_242"/>
<path d="M318.1,373.9h1v-1.3h-1Z" class="g5_242"/>
<path d="M323.6,366.7h1.3v4.7h1v.8h-1v1.7h-1v-1.7h-3.2v-1l2.9,-4.5Zm.3,.9l-2.4,3.8h2.4v-3.8Z" class="g5_242"/>
<path d="M365.5,359.5V98.3" class="g3_242"/>
<path d="M365.5,359.5V363" class="g4_242"/>
<path d="M360.8,366.6c.8,0,1.4,.3,1.8,.9c.4,.7,.6,1.6,.6,2.8c0,1.2,-.2,2.1,-.6,2.8c-.4,.6,-1,.9,-1.8,.9c-.8,0,-1.4,-.3,-1.9,-.9c-.4,-.7,-.6,-1.6,-.6,-2.8c0,-1.2,.2,-2.1,.6,-2.8c.5,-.6,1.1,-.9,1.9,-.9Zm0,.7c-.5,0,-.9,.3,-1.2,.8c-.2,.5,-.3,1.2,-.3,2.2c0,1,.1,1.7,.3,2.2c.3,.5,.7,.7,1.2,.7c.5,0,.8,-.2,1.1,-.7c.2,-.5,.4,-1.2,.4,-2.2c0,-1,-.2,-1.7,-.4,-2.2c-.3,-.5,-.6,-.8,-1.1,-.8Z" class="g5_242"/>
<path d="M364.9,373.9H366v-1.3h-1.1Z" class="g5_242"/>
<path d="M368.1,366.7h3.8v.8H369v1.8c.1,-.1,.2,-.1,.4,-.1c.1,-.1,.3,-.1,.4,-.1c.8,0,1.4,.3,1.9,.7c.5,.4,.7,1,.7,1.8c0,.7,-.2,1.3,-.7,1.8c-.5,.4,-1.2,.6,-2,.6c-.3,0,-.7,0,-1,-.1c-.3,0,-.6,-.1,-.9,-.2v-1c.3,.2,.6,.3,.9,.4c.3,.1,.6,.1,.9,.1c.6,0,1,-.2,1.3,-.4c.4,-.3,.5,-.7,.5,-1.2c0,-.5,-.1,-.9,-.5,-1.2c-.3,-.3,-.7,-.5,-1.3,-.5c-.2,0,-.5,.1,-.7,.1c-.3,.1,-.6,.2,-.8,.3v-3.6Z" class="g5_242"/>
<path d="M412.3,359.5V98.3" class="g3_242"/>
<path d="M412.3,359.5V363" class="g4_242"/>
<path d="M407.6,366.6c.8,0,1.4,.3,1.8,.9c.5,.7,.7,1.6,.7,2.8c0,1.2,-.2,2.1,-.7,2.8c-.4,.6,-1,.9,-1.8,.9c-.8,0,-1.4,-.3,-1.8,-.9c-.5,-.7,-.7,-1.6,-.7,-2.8c0,-1.2,.2,-2.1,.7,-2.8c.4,-.6,1,-.9,1.8,-.9Zm0,.7c-.5,0,-.9,.3,-1.1,.8c-.3,.5,-.4,1.2,-.4,2.2c0,1,.1,1.7,.4,2.2c.2,.5,.6,.7,1.1,.7c.5,0,.9,-.2,1.1,-.7c.3,-.5,.4,-1.2,.4,-2.2c0,-1,-.1,-1.7,-.4,-2.2c-.2,-.5,-.6,-.8,-1.1,-.8Z" class="g5_242"/>
<path d="M411.8,373.9h1v-1.3h-1Z" class="g5_242"/>
<path d="M419,366.9v.8c-.2,-.1,-.5,-.2,-.7,-.2c-.3,-.1,-.5,-.1,-.8,-.1c-.6,0,-1.1,.2,-1.4,.6c-.4,.5,-.6,1.1,-.6,2c.2,-.3,.4,-.5,.7,-.6c.3,-.2,.6,-.3,.9,-.3c.8,0,1.3,.3,1.7,.7c.5,.4,.7,1,.7,1.8c0,.7,-.2,1.3,-.7,1.7c-.4,.5,-1,.7,-1.7,.7c-.8,0,-1.5,-.3,-1.9,-.9c-.5,-.7,-.7,-1.6,-.7,-2.8c0,-1.1,.3,-2,.8,-2.7c.6,-.7,1.3,-1,2.2,-1c.2,0,.5,0,.7,.1c.3,0,.5,.1,.8,.2Zm-1.9,3c-.5,0,-.8,.2,-1.1,.4c-.2,.3,-.3,.8,-.3,1.3c0,.5,.1,.9,.3,1.2c.3,.3,.6,.4,1.1,.4c.4,0,.8,-.1,1,-.4c.3,-.3,.4,-.7,.4,-1.2c0,-.5,-.1,-1,-.4,-1.3c-.2,-.2,-.6,-.4,-1,-.4Z" class="g5_242"/>
<path d="M459.1,359.5V98.3" class="g3_242"/>
<path d="M459.1,359.5V363" class="g4_242"/>
<path d="M454.4,366.6c.8,0,1.4,.3,1.9,.9c.4,.7,.6,1.6,.6,2.8c0,1.2,-.2,2.1,-.6,2.8c-.5,.6,-1.1,.9,-1.9,.9c-.8,0,-1.4,-.3,-1.8,-.9c-.4,-.7,-.7,-1.6,-.7,-2.8c0,-1.2,.3,-2.1,.7,-2.8c.4,-.6,1,-.9,1.8,-.9Zm0,.7c-.5,0,-.9,.3,-1.1,.8c-.3,.5,-.4,1.2,-.4,2.2c0,1,.1,1.7,.4,2.2c.2,.5,.6,.7,1.1,.7c.5,0,.9,-.2,1.2,-.7c.2,-.5,.3,-1.2,.3,-2.2c0,-1,-.1,-1.7,-.3,-2.2c-.3,-.5,-.7,-.8,-1.2,-.8Z" class="g5_242"/>
<path d="M458.6,373.9h1v-1.3h-1Z" class="g5_242"/>
<path d="M461.5,366.7h4.6v.4l-2.6,6.8h-1l2.4,-6.4h-3.4v-.8Z" class="g5_242"/>
<path d="M505.9,359.5V98.3" class="g3_242"/>
<path d="M505.9,359.5V363" class="g4_242"/>
<path d="M501.2,366.6c.9,0,1.5,.3,1.9,.9c.4,.7,.6,1.6,.6,2.8c0,1.2,-.2,2.1,-.6,2.8c-.4,.6,-1,.9,-1.9,.9c-.8,0,-1.4,-.3,-1.8,-.9c-.4,-.7,-.6,-1.6,-.6,-2.8c0,-1.2,.2,-2.1,.6,-2.8c.4,-.6,1,-.9,1.8,-.9Zm0,.7c-.4,0,-.8,.3,-1.1,.8c-.2,.5,-.4,1.2,-.4,2.2c0,1,.2,1.7,.4,2.2c.3,.5,.7,.7,1.1,.7c.5,0,.9,-.2,1.2,-.7c.2,-.5,.4,-1.2,.4,-2.2c0,-1,-.2,-1.7,-.4,-2.2c-.3,-.5,-.7,-.8,-1.2,-.8Z" class="g5_242"/>
<path d="M505.4,373.9h1v-1.3h-1Z" class="g5_242"/>
<path d="M509.3,368.5c0,.4,.1,.7,.3,.9c.3,.2,.6,.3,1,.3c.4,0,.8,-.1,1,-.3c.2,-.2,.3,-.5,.3,-.9c0,-.3,-.1,-.6,-.3,-.8c-.2,-.2,-.6,-.4,-1,-.4c-.4,0,-.7,.2,-1,.4c-.2,.2,-.3,.5,-.3,.8Zm.3,1.6c-.4,-.1,-.7,-.3,-.9,-.6c-.3,-.3,-.4,-.7,-.4,-1.1c0,-.5,.2,-1,.6,-1.3c.4,-.4,1,-.5,1.7,-.5c.7,0,1.3,.1,1.7,.5c.4,.3,.6,.8,.6,1.3c0,.4,-.1,.8,-.3,1.1c-.3,.3,-.6,.5,-1,.6c.5,.1,.8,.3,1.1,.6c.2,.3,.4,.7,.4,1.2c0,.6,-.2,1.2,-.7,1.6c-.4,.3,-1,.5,-1.8,.5c-.8,0,-1.4,-.2,-1.8,-.5c-.4,-.4,-.6,-1,-.6,-1.6c0,-.5,.1,-.9,.4,-1.2c.2,-.3,.6,-.5,1,-.6Zm1,.4c-.4,0,-.8,.1,-1.1,.3c-.2,.3,-.4,.6,-.4,1.1c0,.4,.2,.7,.4,1c.3,.2,.7,.3,1.1,.3c.5,0,.8,-.1,1.1,-.3c.3,-.3,.4,-.6,.4,-1c0,-.5,-.1,-.8,-.4,-1.1c-.3,-.2,-.6,-.3,-1.1,-.3Z" class="g5_242"/>
<path d="M354.9,381.9l-1.9,2.6l2,2.8h-1l-1.6,-2.1l-1.6,2.1h-1l2.1,-2.8L350,381.9h1l1.4,1.9l1.5,-1.9h1Z" class="g5_242"/>
<path d="M177.1,355.3H527.7" class="g3_242"/>
<path d="M177.1,355.3h-3.4" class="g4_242"/>
<path d="M157.8,351.7c.8,0,1.4,.4,1.8,1c.4,.6,.6,1.6,.6,2.8c0,1.2,-.2,2.1,-.6,2.7c-.4,.7,-1,1,-1.8,1c-.8,0,-1.4,-.3,-1.9,-1c-.4,-.6,-.6,-1.5,-.6,-2.7c0,-1.2,.2,-2.2,.6,-2.8c.5,-.6,1.1,-1,1.9,-1Zm0,.8c-.5,0,-.9,.3,-1.1,.7c-.3,.5,-.4,1.3,-.4,2.3c0,.9,.1,1.7,.4,2.2c.2,.5,.6,.7,1.1,.7c.5,0,.9,-.2,1.1,-.7c.3,-.5,.4,-1.3,.4,-2.2c0,-1,-.1,-1.8,-.4,-2.3c-.2,-.4,-.6,-.7,-1.1,-.7Z" class="g5_242"/>
<path d="M162,359h1v-1.2h-1Z" class="g5_242"/>
<path d="M165.2,358.2h1.6v-5.4l-1.7,.3v-.9l1.7,-.3h1v6.3h1.6v.8h-4.2v-.8Z" class="g5_242"/>
<path d="M177.1,323.7H527.7" class="g3_242"/>
<path d="M177.1,323.7h-3.4" class="g4_242"/>
<path d="M157.8,320.1c.8,0,1.4,.4,1.8,1c.4,.6,.6,1.6,.6,2.8c0,1.2,-.2,2.1,-.6,2.7c-.4,.7,-1,1,-1.8,1c-.8,0,-1.4,-.3,-1.9,-1c-.4,-.6,-.6,-1.5,-.6,-2.7c0,-1.2,.2,-2.2,.6,-2.8c.5,-.6,1.1,-1,1.9,-1Zm0,.8c-.5,0,-.9,.3,-1.1,.8c-.3,.4,-.4,1.2,-.4,2.2c0,.9,.1,1.7,.4,2.2c.2,.5,.6,.7,1.1,.7c.5,0,.9,-.2,1.1,-.7c.3,-.5,.4,-1.3,.4,-2.2c0,-1,-.1,-1.8,-.4,-2.2c-.2,-.5,-.6,-.8,-1.1,-.8Z" class="g5_242"/>
<path d="M162,327.4h1v-1.2h-1Z" class="g5_242"/>
<path d="M165.9,326.6h3.4v.8h-4.6v-.8c.4,-.4,.9,-.9,1.5,-1.5c.7,-.7,1.1,-1.1,1.2,-1.3c.4,-.3,.6,-.6,.7,-.8c.1,-.3,.2,-.5,.2,-.7c0,-.4,-.2,-.7,-.4,-1c-.3,-.2,-.6,-.3,-1.1,-.3c-.3,0,-.6,0,-.9,.1c-.4,.1,-.7,.3,-1.1,.5v-1c.4,-.1,.7,-.3,1.1,-.3c.3,-.1,.6,-.2,.9,-.2c.8,0,1.3,.2,1.8,.6c.4,.4,.6,.9,.6,1.5c0,.3,0,.6,-.1,.8c-.1,.3,-.3,.6,-.6,1c-.1,.1,-.4,.3,-.8,.8c-.4,.4,-1,1,-1.8,1.8Z" class="g5_242"/>
<path d="M177.1,292.1H527.7" class="g3_242"/>
<path d="M177.1,292.1h-3.4" class="g4_242"/>
<path d="M157.8,288.6c.8,0,1.4,.3,1.8,.9c.4,.6,.6,1.6,.6,2.8c0,1.2,-.2,2.1,-.6,2.7c-.4,.7,-1,1,-1.8,1c-.8,0,-1.4,-.3,-1.9,-1c-.4,-.6,-.6,-1.5,-.6,-2.7c0,-1.2,.2,-2.2,.6,-2.8c.5,-.6,1.1,-.9,1.9,-.9Zm0,.7c-.5,0,-.9,.3,-1.1,.8c-.3,.4,-.4,1.2,-.4,2.2c0,.9,.1,1.7,.4,2.2c.2,.5,.6,.7,1.1,.7c.5,0,.9,-.2,1.1,-.7c.3,-.5,.4,-1.3,.4,-2.2c0,-1,-.1,-1.8,-.4,-2.2c-.2,-.5,-.6,-.8,-1.1,-.8Z" class="g5_242"/>
<path d="M162,295.8h1v-1.2h-1Z" class="g5_242"/>
<path d="M168,292c.5,.1,.8,.3,1.1,.6c.2,.3,.4,.7,.4,1.2c0,.7,-.3,1.2,-.7,1.6c-.5,.4,-1.2,.6,-2.1,.6c-.3,0,-.6,-.1,-.9,-.1c-.4,-.1,-.7,-.2,-1,-.3v-.9c.2,.1,.5,.3,.9,.3c.3,.1,.6,.2,1,.2c.6,0,1,-.2,1.3,-.4c.4,-.2,.5,-.6,.5,-1c0,-.5,-.1,-.8,-.4,-1c-.3,-.3,-.7,-.4,-1.3,-.4H166v-.8h.9c.5,0,.8,-.1,1.1,-.3c.2,-.2,.4,-.4,.4,-.8c0,-.4,-.2,-.6,-.4,-.8c-.3,-.2,-.7,-.3,-1.2,-.3c-.2,0,-.5,0,-.8,.1c-.3,0,-.7,.1,-1,.2v-.8c.4,-.1,.7,-.2,1,-.3c.3,0,.6,0,.9,0c.8,0,1.3,.1,1.8,.5c.4,.3,.6,.7,.6,1.3c0,.4,-.1,.7,-.3,1c-.3,.3,-.6,.5,-1,.6Z" class="g5_242"/>
<path d="M177.1,260.5H527.7" class="g3_242"/>
<path d="M177.1,260.5h-3.4" class="g4_242"/>
<path d="M157.8,257c.8,0,1.4,.3,1.8,.9c.4,.6,.6,1.6,.6,2.8c0,1.2,-.2,2.1,-.6,2.7c-.4,.7,-1,1,-1.8,1c-.8,0,-1.4,-.3,-1.9,-1c-.4,-.6,-.6,-1.5,-.6,-2.7c0,-1.2,.2,-2.2,.6,-2.8c.5,-.6,1.1,-.9,1.9,-.9Zm0,.7c-.5,0,-.9,.3,-1.1,.8c-.3,.4,-.4,1.2,-.4,2.2c0,1,.1,1.7,.4,2.2c.2,.5,.6,.7,1.1,.7c.5,0,.9,-.2,1.1,-.7c.3,-.5,.4,-1.2,.4,-2.2c0,-1,-.1,-1.8,-.4,-2.2c-.2,-.5,-.6,-.8,-1.1,-.8Z" class="g5_242"/>
<path d="M162,264.2h1V263h-1Z" class="g5_242"/>
<path d="M167.5,257.1h1.2v4.6h1v.9h-1v1.6h-1v-1.6h-3.2v-1l3,-4.5Zm.2,.8l-2.4,3.8h2.4v-3.8Z" class="g5_242"/>
<path d="M177.1,228.9H527.7" class="g3_242"/>
<path d="M177.1,228.9h-3.4" class="g4_242"/>
<path d="M157.8,225.4c.8,0,1.4,.3,1.8,.9c.4,.6,.6,1.6,.6,2.8c0,1.2,-.2,2.1,-.6,2.7c-.4,.7,-1,1,-1.8,1c-.8,0,-1.4,-.3,-1.9,-1c-.4,-.6,-.6,-1.5,-.6,-2.7c0,-1.2,.2,-2.2,.6,-2.8c.5,-.6,1.1,-.9,1.9,-.9Zm0,.7c-.5,0,-.9,.3,-1.1,.8c-.3,.5,-.4,1.2,-.4,2.2c0,1,.1,1.7,.4,2.2c.2,.5,.6,.7,1.1,.7c.5,0,.9,-.2,1.1,-.7c.3,-.5,.4,-1.2,.4,-2.2c0,-1,-.1,-1.7,-.4,-2.2c-.2,-.5,-.6,-.8,-1.1,-.8Z" class="g5_242"/>
<path d="M162,232.6h1v-1.2h-1Z" class="g5_242"/>
<path d="M165.1,225.5h3.8v.8H166v1.8c.1,-.1,.2,-.1,.4,-.2c.1,0,.3,0,.4,0c.8,0,1.4,.2,1.9,.7c.5,.4,.7,1,.7,1.7c0,.8,-.2,1.4,-.7,1.8c-.5,.5,-1.2,.7,-2,.7c-.3,0,-.6,0,-1,-.1c-.3,0,-.6,-.1,-.9,-.2v-1c.3,.2,.6,.3,.9,.4c.3,0,.6,.1,.9,.1c.6,0,1,-.2,1.4,-.5c.3,-.3,.4,-.7,.4,-1.2c0,-.5,-.1,-.8,-.4,-1.1c-.4,-.3,-.8,-.5,-1.4,-.5c-.2,0,-.5,.1,-.7,.1c-.3,.1,-.6,.2,-.8,.3v-3.6Z" class="g5_242"/>
<path d="M177.1,197.3H527.7" class="g3_242"/>
<path d="M177.1,197.3h-3.4" class="g4_242"/>
<path d="M157.8,193.8c.8,0,1.4,.3,1.8,.9c.4,.6,.6,1.6,.6,2.8c0,1.2,-.2,2.1,-.6,2.7c-.4,.7,-1,1,-1.8,1c-.8,0,-1.4,-.3,-1.9,-1c-.4,-.6,-.6,-1.5,-.6,-2.7c0,-1.2,.2,-2.2,.6,-2.8c.5,-.6,1.1,-.9,1.9,-.9Zm0,.7c-.5,0,-.9,.3,-1.1,.8c-.3,.5,-.4,1.2,-.4,2.2c0,1,.1,1.7,.4,2.2c.2,.5,.6,.7,1.1,.7c.5,0,.9,-.2,1.1,-.7c.3,-.5,.4,-1.2,.4,-2.2c0,-1,-.1,-1.7,-.4,-2.2c-.2,-.5,-.6,-.8,-1.1,-.8Z" class="g5_242"/>
<path d="M162,201h1v-1.2h-1Z" class="g5_242"/>
<path d="M169.2,194v.9c-.3,-.1,-.5,-.2,-.8,-.2c-.2,-.1,-.4,-.1,-.7,-.1c-.6,0,-1.1,.2,-1.5,.6c-.3,.5,-.5,1.1,-.5,2c.2,-.3,.4,-.5,.7,-.7c.3,-.1,.6,-.2,.9,-.2c.7,0,1.3,.2,1.7,.7c.4,.4,.6,1,.6,1.8c0,.7,-.2,1.3,-.6,1.7c-.4,.5,-1,.7,-1.7,.7c-.9,0,-1.5,-.3,-1.9,-1c-.5,-.6,-.7,-1.5,-.7,-2.7c0,-1.2,.3,-2.1,.8,-2.7c.5,-.7,1.3,-1,2.2,-1c.2,0,.5,0,.7,0c.3,.1,.5,.2,.8,.2Zm-1.9,3.1c-.5,0,-.8,.1,-1.1,.4c-.2,.3,-.4,.7,-.4,1.3c0,.5,.2,.9,.4,1.2c.3,.3,.6,.4,1.1,.4c.4,0,.7,-.1,1,-.4c.2,-.3,.4,-.7,.4,-1.2c0,-.6,-.2,-1,-.4,-1.3c-.3,-.3,-.6,-.4,-1,-.4Z" class="g5_242"/>
<path d="M177.1,165.7H527.7" class="g3_242"/>
<path d="M177.1,165.7h-3.4" class="g4_242"/>
<path d="M157.8,162.2c.8,0,1.4,.3,1.8,.9c.4,.7,.6,1.6,.6,2.8c0,1.2,-.2,2.1,-.6,2.7c-.4,.7,-1,1,-1.8,1c-.8,0,-1.4,-.3,-1.9,-1c-.4,-.6,-.6,-1.5,-.6,-2.7c0,-1.2,.2,-2.1,.6,-2.8c.5,-.6,1.1,-.9,1.9,-.9Zm0,.7c-.5,0,-.9,.3,-1.1,.8c-.3,.5,-.4,1.2,-.4,2.2c0,1,.1,1.7,.4,2.2c.2,.5,.6,.7,1.1,.7c.5,0,.9,-.2,1.1,-.7c.3,-.5,.4,-1.2,.4,-2.2c0,-1,-.1,-1.7,-.4,-2.2c-.2,-.5,-.6,-.8,-1.1,-.8Z" class="g5_242"/>
<path d="M162,169.5h1v-1.3h-1Z" class="g5_242"/>
<path d="M164.8,162.3h4.6v.4l-2.6,6.8h-1l2.5,-6.4h-3.5v-.8Z" class="g5_242"/>
<path d="M177.1,134.1H527.7" class="g3_242"/>
<path d="M177.1,134.1h-3.4" class="g4_242"/>
<path d="M157.8,130.6c.8,0,1.4,.3,1.8,.9c.4,.7,.6,1.6,.6,2.8c0,1.2,-.2,2.1,-.6,2.7c-.4,.7,-1,1,-1.8,1c-.8,0,-1.4,-.3,-1.9,-1c-.4,-.6,-.6,-1.5,-.6,-2.7c0,-1.2,.2,-2.1,.6,-2.8c.5,-.6,1.1,-.9,1.9,-.9Zm0,.7c-.5,0,-.9,.3,-1.1,.8c-.3,.5,-.4,1.2,-.4,2.2c0,1,.1,1.7,.4,2.2c.2,.5,.6,.7,1.1,.7c.5,0,.9,-.2,1.1,-.7c.3,-.5,.4,-1.2,.4,-2.2c0,-1,-.1,-1.7,-.4,-2.2c-.2,-.5,-.6,-.8,-1.1,-.8Z" class="g5_242"/>
<path d="M162,137.9h1v-1.3h-1Z" class="g5_242"/>
<path d="M165.8,132.5c0,.4,.1,.7,.4,.9c.2,.2,.5,.3,.9,.3c.5,0,.8,-.1,1,-.3c.3,-.2,.4,-.5,.4,-.9c0,-.4,-.1,-.6,-.4,-.9c-.2,-.2,-.5,-.3,-1,-.3c-.4,0,-.7,.1,-.9,.3c-.3,.3,-.4,.5,-.4,.9Zm.4,1.5c-.4,-.1,-.8,-.3,-1,-.5c-.2,-.3,-.3,-.7,-.3,-1.1c0,-.5,.2,-1,.6,-1.3c.4,-.4,.9,-.5,1.6,-.5c.8,0,1.3,.1,1.7,.5c.4,.3,.6,.8,.6,1.3c0,.4,-.1,.8,-.3,1.1c-.3,.2,-.6,.4,-1,.5c.5,.2,.8,.4,1.1,.7c.3,.3,.4,.7,.4,1.1c0,.7,-.2,1.3,-.6,1.6c-.5,.4,-1.1,.6,-1.9,.6c-.7,0,-1.4,-.2,-1.8,-.6c-.4,-.3,-.6,-.9,-.6,-1.6c0,-.4,.1,-.8,.4,-1.1c.2,-.3,.6,-.5,1.1,-.7Zm.9,.5c-.4,0,-.8,.1,-1,.3c-.3,.3,-.4,.6,-.4,1c0,.5,.1,.8,.4,1.1c.2,.2,.6,.3,1,.3c.5,0,.9,-.1,1.1,-.3c.3,-.3,.4,-.6,.4,-1.1c0,-.4,-.1,-.7,-.4,-1c-.2,-.2,-.6,-.3,-1.1,-.3Z" class="g5_242"/>
<path d="M177.1,102.5H527.7" class="g3_242"/>
<path d="M177.1,102.5h-3.4" class="g4_242"/>
<path d="M157.8,99c.8,0,1.4,.3,1.8,.9c.4,.7,.6,1.6,.6,2.8c0,1.2,-.2,2.1,-.6,2.7c-.4,.7,-1,1,-1.8,1c-.8,0,-1.4,-.3,-1.9,-1c-.4,-.6,-.6,-1.5,-.6,-2.7c0,-1.2,.2,-2.1,.6,-2.8c.5,-.6,1.1,-.9,1.9,-.9Zm0,.7c-.5,0,-.9,.3,-1.1,.8c-.3,.5,-.4,1.2,-.4,2.2c0,1,.1,1.7,.4,2.2c.2,.5,.6,.7,1.1,.7c.5,0,.9,-.2,1.1,-.7c.3,-.5,.4,-1.2,.4,-2.2c0,-1,-.1,-1.7,-.4,-2.2c-.2,-.5,-.6,-.8,-1.1,-.8Z" class="g5_242"/>
<path d="M162,106.3h1V105h-1Z" class="g5_242"/>
<path d="M167,103.1c.5,0,.8,-.2,1.1,-.5c.2,-.3,.3,-.7,.3,-1.2c0,-.5,-.1,-.9,-.3,-1.2c-.3,-.3,-.6,-.5,-1.1,-.5c-.4,0,-.8,.2,-1,.5c-.3,.3,-.4,.7,-.4,1.2c0,.5,.1,.9,.4,1.2c.2,.3,.6,.5,1,.5Zm-1.9,3v-.9c.2,.1,.5,.2,.7,.3c.3,0,.5,.1,.8,.1c.6,0,1.1,-.2,1.4,-.7c.4,-.4,.6,-1,.6,-1.9c-.2,.3,-.4,.5,-.7,.6c-.3,.2,-.6,.2,-.9,.2c-.8,0,-1.3,-.2,-1.7,-.6c-.5,-.5,-.7,-1,-.7,-1.8c0,-.7,.3,-1.3,.7,-1.8c.4,-.4,1,-.6,1.7,-.6c.9,0,1.5,.3,1.9,.9c.5,.7,.7,1.6,.7,2.8c0,1.1,-.3,2,-.8,2.7c-.6,.7,-1.3,1,-2.2,1c-.2,0,-.5,0,-.7,-.1c-.3,0,-.5,-.1,-.8,-.2Z" class="g5_242"/>
<path d="M149.2,228.7c.6,.2,1,.5,1.2,.7c.2,.2,.3,.5,.3,.9v.7H150v-.5c0,-.2,-.1,-.4,-.2,-.5c-.1,-.2,-.4,-.3,-.8,-.5l-.4,-.1l-5.3,2.1v-.9l4.2,-1.7l-4.2,-1.7v-.9l5.9,2.4Z" class="g5_242"/>
<path clip-path="url(#c0_242)" d="M193.1,274.7l11.5,7.6c405.8,260.5,409.6,-358,11.2,-113.8l-11.2,7" class="g6_242"/>
<path d="M177.1,359.5V98.3M527.7,359.5V98.3M177.1,359.5H527.7M177.1,98.3H527.7" class="g7_242"/>
<path d="M269,83.8h2.6c1,0,1.7,.2,2.2,.7c.5,.4,.8,1,.8,1.9c0,.8,-.3,1.5,-.8,1.9c-.5,.4,-1.2,.7,-2.2,.7h-1.4v3.4H269V83.8Zm1.2,1V88h1.4c.6,0,1,-.1,1.3,-.4c.3,-.3,.4,-.7,.4,-1.2c0,-.5,-.1,-.9,-.4,-1.2c-.3,-.3,-.7,-.4,-1.3,-.4h-1.4Z" class="g5_242"/>
<path d="M280.6,88.7v3.7h-1.1v-1c-.2,.4,-.5,.7,-.9,.9c-.3,.2,-.8,.3,-1.3,.3c-.7,0,-1.2,-.2,-1.6,-.6c-.4,-.4,-.6,-.8,-.6,-1.5c0,-.7,.3,-1.2,.8,-1.6c.5,-.4,1.2,-.6,2.1,-.6h1.5v-.1c0,-.5,-.1,-.8,-.4,-1.1c-.4,-.3,-.8,-.4,-1.4,-.4c-.4,0,-.7,0,-1.1,.1c-.3,.1,-.7,.3,-1,.4v-.9c.4,-.2,.8,-.3,1.1,-.4c.4,-.1,.8,-.1,1.1,-.1c.9,0,1.6,.2,2.1,.7c.5,.5,.7,1.2,.7,2.2Zm-2.1,.5c-.9,0,-1.5,.1,-1.8,.3c-.3,.2,-.5,.5,-.5,1c0,.3,.1,.6,.4,.9c.2,.2,.6,.3,1,.3c.6,0,1,-.2,1.4,-.6c.4,-.5,.5,-1,.5,-1.7v-.2h-1Z" class="g5_242"/>
<path d="M286.5,87c-.1,-.1,-.2,-.2,-.4,-.2c-.1,0,-.3,0,-.4,0c-.6,0,-1.1,.1,-1.4,.5c-.3,.4,-.5,1,-.5,1.7v3.4h-1.1V86h1.1v1c.2,-.4,.5,-.7,.9,-.9c.3,-.2,.8,-.3,1.3,-.3c0,0,.1,0,.2,0c.1,0,.2,0,.3,.1V87Z" class="g5_242"/>
<path d="M292.7,88.7v3.7h-1.1v-1c-.2,.4,-.5,.7,-.9,.9c-.4,.2,-.8,.3,-1.3,.3c-.7,0,-1.2,-.2,-1.6,-.6c-.4,-.4,-.6,-.8,-.6,-1.5c0,-.7,.3,-1.2,.7,-1.6c.5,-.4,1.2,-.6,2.2,-.6h1.5v-.1c0,-.5,-.2,-.8,-.5,-1.1c-.3,-.3,-.8,-.4,-1.3,-.4c-.4,0,-.8,0,-1.1,.1c-.4,.1,-.7,.3,-1,.4v-.9c.4,-.2,.7,-.3,1.1,-.4c.4,-.1,.7,-.1,1.1,-.1c.9,0,1.6,.2,2.1,.7c.4,.5,.7,1.2,.7,2.2Zm-2.2,.5c-.8,0,-1.4,.1,-1.7,.3c-.4,.2,-.5,.5,-.5,1c0,.3,.1,.6,.3,.9c.3,.2,.6,.3,1,.3c.6,0,1.1,-.2,1.5,-.6c.3,-.5,.5,-1,.5,-1.7v-.2h-1.1Z" class="g5_242"/>
<path d="M299.8,87.2c.3,-.5,.6,-.8,1,-1.1c.4,-.2,.8,-.3,1.3,-.3c.7,0,1.2,.2,1.5,.7c.4,.5,.6,1.1,.6,2v3.9h-1.1V88.6c0,-.7,-.1,-1.1,-.3,-1.4c-.2,-.3,-.5,-.5,-1,-.5c-.5,0,-1,.2,-1.3,.6c-.3,.3,-.5,.8,-.5,1.5v3.6h-1V88.6c0,-.7,-.1,-1.1,-.4,-1.4c-.2,-.3,-.5,-.5,-1,-.5c-.5,0,-.9,.2,-1.3,.6c-.3,.3,-.4,.8,-.4,1.5v3.6h-1.1V86h1.1v1c.2,-.4,.5,-.7,.8,-.9c.4,-.2,.8,-.3,1.2,-.3c.5,0,.9,.1,1.2,.4c.3,.2,.6,.5,.7,1Z" class="g5_242"/>
<path d="M310.8,88.6c0,-.6,-.2,-1,-.5,-1.4c-.3,-.3,-.8,-.5,-1.3,-.5c-.6,0,-1,.2,-1.4,.5c-.4,.3,-.6,.8,-.6,1.4h3.8Zm1,.3v.5H307c0,.8,.2,1.3,.6,1.7c.4,.4,1,.6,1.7,.6c.4,0,.8,-.1,1.1,-.2c.4,-.1,.8,-.2,1.2,-.4v1c-.4,.1,-.8,.3,-1.2,.3c-.4,.1,-.8,.2,-1.2,.2c-1,0,-1.9,-.3,-2.5,-.9c-.6,-.6,-.9,-1.4,-.9,-2.5c0,-1,.3,-1.8,.9,-2.5c.6,-.6,1.3,-.9,2.3,-.9c.9,0,1.6,.3,2.1,.8c.5,.6,.7,1.4,.7,2.3Z" class="g5_242"/>
<path d="M314.6,84.1V86h2.2v.8h-2.2v3.5c0,.5,.1,.8,.2,1c.2,.1,.5,.2,.9,.2h1.1v.9h-1.1c-.8,0,-1.4,-.1,-1.7,-.5c-.3,-.3,-.5,-.8,-.5,-1.6V86.8h-.7V86h.7V84.1h1.1Z" class="g5_242"/>
<path d="M321.9,87c-.1,-.1,-.2,-.2,-.4,-.2c-.1,0,-.3,0,-.4,0c-.6,0,-1.1,.1,-1.4,.5c-.3,.4,-.5,1,-.5,1.7v3.4h-1.1V86h1.1v1c.2,-.4,.5,-.7,.9,-.9c.3,-.2,.8,-.3,1.3,-.3c0,0,.1,0,.2,0c.1,0,.2,0,.3,.1V87Z" class="g5_242"/>
<path d="M323,83.5h1.1v1.3H323Zm0,2.5h1.1v6.4H323Z" class="g5_242"/>
<path d="M330.9,86.2v1c-.3,-.2,-.6,-.3,-.9,-.4c-.3,-.1,-.6,-.1,-.9,-.1c-.7,0,-1.2,.2,-1.6,.7c-.4,.4,-.6,1,-.6,1.8c0,.8,.2,1.4,.6,1.8c.4,.5,.9,.7,1.6,.7c.3,0,.6,-.1,.9,-.1c.3,-.1,.6,-.3,.9,-.4v1c-.3,.1,-.6,.2,-.9,.3c-.3,0,-.6,.1,-1,.1c-1,0,-1.7,-.3,-2.3,-.9c-.6,-.7,-.9,-1.5,-.9,-2.5c0,-1.1,.3,-1.9,.9,-2.5c.6,-.6,1.4,-.9,2.4,-.9c.3,0,.6,0,.9,.1c.3,.1,.6,.2,.9,.3Z" class="g5_242"/>
<path d="M341.1,89.2c0,-.8,-.1,-1.4,-.4,-1.8c-.4,-.5,-.8,-.7,-1.4,-.7c-.5,0,-1,.2,-1.3,.7c-.3,.4,-.5,1,-.5,1.8c0,.8,.2,1.4,.5,1.8c.3,.5,.8,.7,1.3,.7c.6,0,1,-.2,1.4,-.7c.3,-.4,.4,-1,.4,-1.8Zm-3.6,2.2v3.5h-1V86h1v.9c.3,-.3,.5,-.6,.9,-.8c.3,-.2,.7,-.3,1.2,-.3c.8,0,1.4,.3,1.9,.9c.5,.7,.7,1.5,.7,2.5c0,1,-.2,1.8,-.7,2.4c-.5,.7,-1.1,1,-1.9,1c-.5,0,-.9,-.1,-1.2,-.3c-.4,-.2,-.6,-.5,-.9,-.9Z" class="g5_242"/>
<path d="M346.5,85.8c.9,0,1.6,.3,2.2,.9c.5,.6,.7,1.4,.7,2.5c0,1,-.2,1.9,-.7,2.5c-.6,.6,-1.3,.9,-2.2,.9c-.9,0,-1.7,-.3,-2.2,-.9c-.5,-.6,-.8,-1.5,-.8,-2.5c0,-1.1,.3,-1.9,.8,-2.5c.5,-.6,1.3,-.9,2.2,-.9Zm0,.9c-.6,0,-1,.2,-1.4,.7c-.3,.4,-.5,1,-.5,1.8c0,.8,.2,1.4,.5,1.8c.4,.5,.8,.7,1.4,.7c.6,0,1,-.2,1.3,-.7c.4,-.4,.5,-1,.5,-1.8c0,-.8,-.1,-1.4,-.5,-1.8c-.3,-.5,-.7,-.7,-1.3,-.7Z" class="g5_242"/>
<path d="M351.2,92.4h1.1V83.5h-1.1Z" class="g5_242"/>
<path d="M357.2,93c-.3,.8,-.6,1.3,-.9,1.5c-.3,.2,-.7,.4,-1.2,.4h-.8V94h.6c.3,0,.5,-.1,.7,-.2c.2,-.2,.3,-.5,.5,-1l.2,-.5L353.7,86h1.1l2,5l2.1,-5H360l-2.8,7Z" class="g5_242"/>
<path d="M366.8,88.5v3.9h-1.1V88.6c0,-.7,-.1,-1.1,-.3,-1.4c-.3,-.3,-.6,-.5,-1.1,-.5c-.6,0,-1,.2,-1.3,.6c-.4,.3,-.5,.8,-.5,1.5v3.6h-1.1V86h1.1v1c.2,-.4,.5,-.7,.9,-.9c.3,-.2,.7,-.3,1.1,-.3c.8,0,1.3,.2,1.7,.7c.4,.5,.6,1.1,.6,2Z" class="g5_242"/>
<path d="M371.4,85.8c.9,0,1.6,.3,2.2,.9c.5,.6,.8,1.4,.8,2.5c0,1,-.3,1.9,-.8,2.5c-.6,.6,-1.3,.9,-2.2,.9c-.9,0,-1.6,-.3,-2.2,-.9c-.5,-.6,-.8,-1.5,-.8,-2.5c0,-1.1,.3,-1.9,.8,-2.5c.6,-.6,1.3,-.9,2.2,-.9Zm0,.9c-.6,0,-1,.2,-1.3,.7c-.4,.4,-.5,1,-.5,1.8c0,.8,.1,1.4,.5,1.8c.3,.5,.7,.7,1.3,.7c.6,0,1,-.2,1.3,-.7c.4,-.4,.5,-1,.5,-1.8c0,-.8,-.1,-1.4,-.5,-1.8c-.3,-.5,-.7,-.7,-1.3,-.7Z" class="g5_242"/>
<path d="M381.1,87.2c.3,-.5,.6,-.8,1,-1.1c.3,-.2,.8,-.3,1.3,-.3c.7,0,1.2,.2,1.5,.7c.4,.5,.6,1.1,.6,2v3.9h-1.1V88.6c0,-.7,-.1,-1.1,-.3,-1.4c-.2,-.3,-.6,-.5,-1,-.5c-.6,0,-1,.2,-1.3,.6c-.3,.3,-.5,.8,-.5,1.5v3.6h-1.1V88.6c0,-.7,-.1,-1.1,-.3,-1.4c-.2,-.3,-.5,-.5,-1,-.5c-.5,0,-1,.2,-1.3,.6c-.3,.3,-.5,.8,-.5,1.5v3.6h-1V86h1v1c.3,-.4,.6,-.7,.9,-.9c.3,-.2,.7,-.3,1.2,-.3c.5,0,.9,.1,1.2,.4c.3,.2,.6,.5,.7,1Z" class="g5_242"/>
<path d="M387.6,83.5h1v1.3h-1Zm0,2.5h1v6.4h-1Z" class="g5_242"/>
<path d="M395.9,88.7v3.7h-1.1v-1c-.2,.4,-.5,.7,-.9,.9c-.3,.2,-.8,.3,-1.3,.3c-.6,0,-1.2,-.2,-1.6,-.6c-.3,-.4,-.5,-.8,-.5,-1.5c0,-.7,.2,-1.2,.7,-1.6c.5,-.4,1.2,-.6,2.2,-.6h1.4v-.1c0,-.5,-.1,-.8,-.4,-1.1c-.4,-.3,-.8,-.4,-1.4,-.4c-.4,0,-.7,0,-1.1,.1c-.3,.1,-.6,.3,-1,.4v-.9c.4,-.2,.8,-.3,1.2,-.4c.3,-.1,.7,-.1,1,-.1c1,0,1.7,.2,2.1,.7c.5,.5,.7,1.2,.7,2.2Zm-2.1,.5c-.9,0,-1.5,.1,-1.8,.3c-.3,.2,-.5,.5,-.5,1c0,.3,.1,.6,.4,.9c.2,.2,.6,.3,1,.3c.6,0,1.1,-.2,1.4,-.6c.4,-.5,.5,-1,.5,-1.7v-.2h-1Z" class="g5_242"/>
<path d="M398.1,92.4h1V83.5h-1Z" class="g5_242"/>
<path d="M409.7,86.2v1c-.3,-.2,-.6,-.3,-.9,-.4c-.3,-.1,-.6,-.1,-.9,-.1c-.7,0,-1.2,.2,-1.6,.7c-.4,.4,-.5,1,-.5,1.8c0,.8,.1,1.4,.5,1.8c.4,.5,.9,.7,1.6,.7c.3,0,.6,-.1,.9,-.1c.3,-.1,.6,-.3,.9,-.4v1c-.3,.1,-.6,.2,-.9,.3c-.3,0,-.6,.1,-1,.1c-1,0,-1.7,-.3,-2.3,-.9c-.6,-.7,-.9,-1.5,-.9,-2.5c0,-1.1,.3,-1.9,.9,-2.5c.6,-.6,1.4,-.9,2.4,-.9c.3,0,.6,0,.9,.1c.3,.1,.6,.2,.9,.3Z" class="g5_242"/>
<path d="M414.1,85.8v0Zm-2.6,4.1V86h1v3.8c0,.6,.1,1.1,.4,1.4c.2,.3,.6,.5,1.1,.5c.5,0,1,-.2,1.3,-.6c.3,-.4,.5,-.9,.5,-1.5V86h1.1v6.4h-1.1v-1c-.3,.4,-.6,.7,-.9,.9c-.3,.2,-.7,.3,-1.2,.3c-.7,0,-1.3,-.3,-1.7,-.7c-.3,-.5,-.5,-1.2,-.5,-2Z" class="g5_242"/>
<path d="M422.8,87c-.1,-.1,-.3,-.2,-.4,-.2c-.2,0,-.3,0,-.5,0c-.6,0,-1,.1,-1.4,.5c-.3,.4,-.4,1,-.4,1.7v3.4H419V86h1.1v1c.2,-.4,.5,-.7,.8,-.9c.4,-.2,.8,-.3,1.3,-.3c.1,0,.2,0,.3,0c.1,0,.2,0,.3,.1V87Z" class="g5_242"/>
<path d="M423.1,86h1.2l2,5.4l2,-5.4h1.1L427,92.4h-1.5L423.1,86Z" class="g5_242"/>
<path d="M435.3,88.6c0,-.6,-.2,-1,-.5,-1.4c-.3,-.3,-.7,-.5,-1.2,-.5c-.6,0,-1.1,.2,-1.5,.5c-.3,.3,-.5,.8,-.6,1.4h3.8Zm1.1,.3v.5h-4.9c0,.8,.3,1.3,.7,1.7c.4,.4,.9,.6,1.6,.6c.4,0,.8,-.1,1.2,-.2c.4,-.1,.7,-.2,1.1,-.4v1c-.4,.1,-.7,.3,-1.1,.3c-.4,.1,-.8,.2,-1.3,.2c-1,0,-1.8,-.3,-2.4,-.9c-.6,-.6,-.9,-1.4,-.9,-2.5c0,-1,.3,-1.8,.9,-2.5c.5,-.6,1.3,-.9,2.3,-.9c.8,0,1.5,.3,2,.8c.5,.6,.8,1.4,.8,2.3Z" class="g5_242"/>
</svg>