<?xml version="1.0" encoding="UTF-8" standalone="no"?>
<!DOCTYPE svg PUBLIC "-//W3C//DTD SVG 1.1//EN"
"http://www.w3.org/Graphics/SVG/1.1/DTD/svg11.dtd">
<svg viewBox="0 0 811 1017" version="1.1" xmlns="http://www.w3.org/2000/svg" xmlns:xlink="http://www.w3.org/1999/xlink">
<defs>
<clipPath id="c0_393"><path d="M483.5,156.7V82.5H648v74.2Z"/></clipPath>
<style type="text/css"><![CDATA[
.g0_393{
fill: #000;
}
]]></style>
</defs>
<path clip-path="url(#c0_393)" d="M489.3,154.1h.4V82.5h-.4Z" class="g0_393"/>
<path d="M489.3,245.3h.4V173.7h-.4Z" class="g0_393"/>
<path d="M351.4,464.5h.3V437.8h-.3Z" class="g0_393"/>
<path d="M327.2,450.1v3.2l-.3,-.1l-6.3,-2.9l-.4,-.2l.4,-.2l6.3,-2.9l.3,-.1v.2l-.1,.2l-6.4,3l-.1,-.4h.1l6.4,2.9l-.2,.4l-.1,-.2v-2.9Z" class="g0_393"/>
<path d="M326.8,450.1h.4v-3h-.4Z" class="g0_393"/>
<path d="M327,450.3h.2v-.4H327Z" class="g0_393"/>
<path d="M327.2,450.3h24.5v-.4H327.2Z" class="g0_393"/>
<path d="M652.5,496h.4V469.8h-.4Z" class="g0_393"/>
<path d="M635.2,496v3.2l-.2,-.1l-6.3,-2.9l-.3,-.2l.3,-.2l6.3,-2.9l.2,-.1v.5l-6.3,2.9l-.2,-.4h.2l6.3,3l-.2,.3l-.1,-.2V496Z" class="g0_393"/>
<path d="M634.9,496h.3v-2.9h-.3Z" class="g0_393"/>
<path d="M635.1,496.2h.1v-.4h-.1Z" class="g0_393"/>
<path d="M635.2,496.2h17.7v-.4H635.2Z" class="g0_393"/>
<path d="M652.3,553h.4V526.4h-.4Z" class="g0_393"/>
<path d="M635.4,526.4v3.2h-.2l-6.4,-3l-.3,-.2l.3,-.1l6.4,-3l.2,-.1v.3l-.1,.2l-6.3,2.9l-.2,-.3h.2l6.3,2.9l-.1,.4l-.1,-.2v-3Z" class="g0_393"/>
<path d="M635.1,526.4h.3v-2.9h-.3Z" class="g0_393"/>
<path d="M635.2,526.6h.2v-.3h-.2Z" class="g0_393"/>
<path d="M635.4,526.6h17.3v-.3H635.4Z" class="g0_393"/>
<path d="M319.6,615h.3V559.3h-.3Z" class="g0_393"/>
<path d="M295.3,581.4v3.2H295l-6.2,-3l-.4,-.2l.4,-.1l6.2,-3l.3,-.1v.3l-.1,.2l-6.3,2.9l-.1,-.3h.1l6.3,2.9l-.2,.4l-.1,-.2v-3Z" class="g0_393"/>
<path d="M294.9,581.4h.4v-2.9h-.4Z" class="g0_393"/>
<path d="M295.1,581.6h.2v-.3h-.2Z" class="g0_393"/>
<path d="M295.3,581.6h24.6v-.3H295.3Z" class="g0_393"/>
<path d="M96.6,619.7H97V506.5h-.4Z" class="g0_393"/>
<path d="M132.5,619.7v-3.2l.2,.1l6.4,2.9l.3,.2l-.3,.2l-6.4,2.9l-.2,.1v-.3l.1,-.2l6.3,-2.9l.2,.4h-.2l-6.3,-3l.1,-.3l.1,.1v3Z" class="g0_393"/>
<path d="M132.5,622.6h.3v-2.9h-.3Z" class="g0_393"/>
<path d="M132.5,619.9h.1v-.4h-.1Z" class="g0_393"/>
<path d="M96.6,619.9h35.9v-.4H96.6Z" class="g0_393"/>
<path d="M564,685.2h.4V644.5H564Z" class="g0_393"/>
<path d="M531,665.6v3.2l-.3,-.1l-6.3,-2.9l-.3,-.2l.3,-.2l6.3,-2.9l.3,-.1v.3l-.1,.1l-6.3,3l-.2,-.4h.2l6.3,2.9l-.2,.4v-3.1Z" class="g0_393"/>
<path d="M530.7,665.6h.3v-2.9h-.3Z" class="g0_393"/>
<path d="M530.8,665.8h.2v-.4h-.2Z" class="g0_393"/>
<path d="M531,665.8h33.4v-.4H531Z" class="g0_393"/>
<path d="M339.2,725.5h.3V699.3h-.3Z" class="g0_393"/>
<path d="M315,711.3v3.2h-.3l-6.3,-3l-.4,-.2l.4,-.2l6.3,-2.9l.3,-.1v.3l-.1,.2l-6.3,2.9l-.2,-.4h.2l6.3,3l-.2,.4l-.1,-.2v-3Z" class="g0_393"/>
<path d="M314.6,711.3h.4v-2.9h-.4Z" class="g0_393"/>
<path d="M314.8,711.5h.2v-.4h-.2Z" class="g0_393"/>
<path d="M315,711.5h24.5v-.4H315Z" class="g0_393"/>
<path d="M374.2,787.8h.4V747.1h-.4Z" class="g0_393"/>
<path d="M357,787.8V791l-.3,-.1L350.4,788l-.3,-.2l.3,-.2l6.3,-2.9l.3,-.1v.3l-.1,.1l-6.3,3l-.2,-.4h.2l6.3,2.9l-.2,.4l-.1,-.2v-2.9Z" class="g0_393"/>
<path d="M356.6,787.8h.4v-2.9h-.4Z" class="g0_393"/>
<path d="M356.9,788h.1v-.4h-.1Z" class="g0_393"/>
<path d="M357,788h17.6v-.4H357Z" class="g0_393"/>
<path d="M169.2,803h.4V763.1h-.4Z" class="g0_393"/>
<path d="M184.7,803v-3.2l.3,.1l6.2,2.9l.4,.2l-.4,.2l-6.2,2.9l-.3,.1v-.3l.1,-.2l6.2,-2.9l.2,.4H191l-6.2,-2.9l.2,-.4l.1,.2V803Z" class="g0_393"/>
<path d="M184.7,805.9h.4V803h-.4Z" class="g0_393"/>
<path d="M184.7,803.2h.2v-.4h-.2Z" class="g0_393"/>
<path d="M169.2,803.2h15.5v-.4H169.2Z" class="g0_393"/>
<path d="M570.6,818.4h.4V763.7h-.4Z" class="g0_393"/>
<path d="M553.4,818.4v3.2l-.3,-.1l-6.2,-2.9l-.4,-.2l.4,-.2l6.2,-2.9l.3,-.1v.3l-.1,.2l-6.2,2.9l-.2,-.4h.2l6.2,3l-.2,.3l-.1,-.2v-2.9Z" class="g0_393"/>
<path d="M553,818.4h.4v-2.9H553Z" class="g0_393"/>
<path d="M553.2,818.6h.2v-.4h-.2Z" class="g0_393"/>
<path d="M553.4,818.6H571v-.4H553.4Z" class="g0_393"/>
<path d="M548.7,875.6h.4V833.5h-.4Z" class="g0_393"/>
<path d="M524.4,833.5v3.2l-.3,-.1l-6.2,-2.9l-.3,-.2l.3,-.2l6.2,-2.9l.3,-.1v.3l-.1,.2l-6.2,2.9l-.2,-.4h.2l6.2,3l-.2,.3v-3.1Z" class="g0_393"/>
<path d="M524.1,833.5h.3v-2.9h-.3Z" class="g0_393"/>
<path d="M524.2,833.7h.2v-.4h-.2Z" class="g0_393"/>
<path d="M524.4,833.7h24.7v-.4H524.4Z" class="g0_393"/>
</svg>