<?xml version="1.0" encoding="UTF-8" standalone="no"?>
<!DOCTYPE svg PUBLIC "-//W3C//DTD SVG 1.1//EN"
"http://www.w3.org/Graphics/SVG/1.1/DTD/svg11.dtd">
<svg viewBox="0 0 811 1017" version="1.1" xmlns="http://www.w3.org/2000/svg" xmlns:xlink="http://www.w3.org/1999/xlink">
<defs>
<style type="text/css"><![CDATA[
.g0_359{
fill: #FFF;
}
.g1_359{
fill: none;
stroke: #B0B2B1;
stroke-width: 0.589;
stroke-linecap: square;
stroke-linejoin: round;
}
.g2_359{
fill: none;
stroke: #040504;
stroke-width: 0.589;
stroke-linejoin: round;
}
.g3_359{
fill: #040504;
}
.g4_359{
fill: none;
stroke: #1A78B6;
stroke-width: 1.107;
stroke-linecap: square;
stroke-linejoin: round;
}
.g5_359{
fill: none;
stroke: #040504;
stroke-width: 0.589;
stroke-linecap: square;
}
.g6_359{
fill: none;
stroke: #B0B2B1;
stroke-width: 0.678;
stroke-linecap: square;
stroke-linejoin: round;
}
.g7_359{
fill: none;
stroke: #040504;
stroke-width: 0.678;
stroke-linejoin: round;
}
.g8_359{
fill: none;
stroke: #1A78B6;
stroke-width: 1.272;
stroke-linecap: square;
stroke-linejoin: round;
}
.g9_359{
fill: none;
stroke: #040504;
stroke-width: 0.678;
stroke-linecap: square;
}
]]></style>
</defs>
<path d="M147.2,290.5H410.8V94.1H147.2Z" class="g0_359"/>
<path d="M147.2,290.5V94.1" class="g1_359"/>
<path d="M147.2,290.5v2.6" class="g2_359"/>
<path d="M141.3,295.8c.6,0,1.1,.2,1.4,.7c.3,.5,.5,1.2,.5,2.1c0,.9,-.2,1.6,-.5,2.1c-.3,.4,-.8,.7,-1.4,.7c-.6,0,-1,-.3,-1.3,-.7c-.4,-.5,-.5,-1.2,-.5,-2.1c0,-.9,.1,-1.6,.5,-2.1c.3,-.5,.7,-.7,1.3,-.7Zm0,.6c-.3,0,-.6,.1,-.8,.5c-.2,.4,-.3,.9,-.3,1.7c0,.7,.1,1.3,.3,1.6c.2,.4,.5,.6,.8,.6c.4,0,.7,-.2,.9,-.6c.2,-.3,.3,-.9,.3,-1.6c0,-.8,-.1,-1.3,-.3,-1.7c-.2,-.4,-.5,-.5,-.9,-.5Z" class="g3_359"/>
<path d="M144.5,301.3h.7v-1h-.7Z" class="g3_359"/>
<path d="M148.4,295.8c.6,0,1,.2,1.4,.7c.3,.5,.4,1.2,.4,2.1c0,.9,-.1,1.6,-.4,2.1c-.4,.4,-.8,.7,-1.4,.7c-.6,0,-1.1,-.3,-1.4,-.7c-.3,-.5,-.5,-1.2,-.5,-2.1c0,-.9,.2,-1.6,.5,-2.1c.3,-.5,.8,-.7,1.4,-.7Zm0,.6c-.4,0,-.7,.1,-.9,.5c-.2,.4,-.3,.9,-.3,1.7c0,.7,.1,1.3,.3,1.6c.2,.4,.5,.6,.9,.6c.4,0,.6,-.2,.8,-.6c.2,-.3,.3,-.9,.3,-1.6c0,-.8,-.1,-1.3,-.3,-1.7c-.2,-.4,-.4,-.5,-.8,-.5Z" class="g3_359"/>
<path d="M153.1,295.8c.6,0,1,.2,1.4,.7c.3,.5,.4,1.2,.4,2.1c0,.9,-.1,1.6,-.4,2.1c-.4,.4,-.8,.7,-1.4,.7c-.6,0,-1.1,-.3,-1.4,-.7c-.3,-.5,-.5,-1.2,-.5,-2.1c0,-.9,.2,-1.6,.5,-2.1c.3,-.5,.8,-.7,1.4,-.7Zm0,.6c-.4,0,-.7,.1,-.9,.5c-.2,.4,-.3,.9,-.3,1.7c0,.7,.1,1.3,.3,1.6c.2,.4,.5,.6,.9,.6c.3,0,.6,-.2,.8,-.6c.2,-.3,.3,-.9,.3,-1.6c0,-.8,-.1,-1.3,-.3,-1.7c-.2,-.4,-.5,-.5,-.8,-.5Z" class="g3_359"/>
<path d="M180.1,290.5V94.1" class="g1_359"/>
<path d="M180.1,290.5v2.6" class="g2_359"/>
<path d="M174.3,295.8c.6,0,1,.2,1.4,.7c.3,.5,.4,1.2,.4,2.1c0,.9,-.1,1.6,-.4,2.1c-.4,.4,-.8,.7,-1.4,.7c-.6,0,-1.1,-.3,-1.4,-.7c-.3,-.5,-.5,-1.2,-.5,-2.1c0,-.9,.2,-1.6,.5,-2.1c.3,-.5,.8,-.7,1.4,-.7Zm0,.6c-.4,0,-.7,.1,-.9,.5c-.2,.4,-.2,.9,-.2,1.7c0,.7,0,1.3,.2,1.6c.2,.4,.5,.6,.9,.6c.4,0,.6,-.2,.8,-.6c.2,-.3,.3,-.9,.3,-1.6c0,-.8,-.1,-1.3,-.3,-1.7c-.2,-.4,-.4,-.5,-.8,-.5Z" class="g3_359"/>
<path d="M177.4,301.3h.8v-1h-.8Z" class="g3_359"/>
<path d="M180.4,300.7h2.5v.6h-3.4v-.6c.3,-.3,.7,-.7,1.1,-1.2c.5,-.5,.8,-.8,.9,-.9c.3,-.3,.4,-.5,.5,-.7c.1,-.2,.2,-.4,.2,-.5c0,-.3,-.1,-.5,-.3,-.7c-.2,-.2,-.5,-.3,-.8,-.3c-.2,0,-.5,0,-.7,.1c-.3,.1,-.6,.2,-.8,.4v-.8c.2,-.1,.5,-.2,.8,-.2c.2,-.1,.5,-.1,.7,-.1c.5,0,1,.1,1.3,.4c.3,.3,.5,.7,.5,1.1c0,.2,0,.5,-.1,.7c-.1,.1,-.3,.4,-.5,.7c0,0,-.2,.2,-.5,.6c-.4,.3,-.8,.8,-1.4,1.4Z" class="g3_359"/>
<path d="M184.5,295.9h2.8v.6h-2.2v1.3c.1,0,.2,0,.4,-.1c.1,0,.2,0,.3,0c.6,0,1,.2,1.4,.5c.3,.3,.5,.8,.5,1.3c0,.6,-.2,1.1,-.5,1.4c-.4,.3,-.9,.5,-1.5,.5c-.3,0,-.5,0,-.7,-.1c-.3,0,-.5,-.1,-.8,-.2v-.7c.3,.1,.5,.2,.7,.3c.2,0,.5,.1,.7,.1c.5,0,.8,-.2,1,-.4c.3,-.2,.4,-.5,.4,-.9c0,-.3,-.1,-.6,-.4,-.9c-.2,-.2,-.5,-.3,-1,-.3c-.2,0,-.3,0,-.5,.1c-.2,0,-.4,.1,-.6,.2v-2.7Z" class="g3_359"/>
<path d="M213.1,290.5V94.1" class="g1_359"/>
<path d="M213.1,290.5v2.6" class="g2_359"/>
<path d="M207.2,295.8c.6,0,1.1,.2,1.4,.7c.3,.5,.5,1.2,.5,2.1c0,.9,-.2,1.6,-.5,2.1c-.3,.4,-.8,.7,-1.4,.7c-.6,0,-1,-.3,-1.4,-.7c-.3,-.5,-.4,-1.2,-.4,-2.1c0,-.9,.1,-1.6,.4,-2.1c.4,-.5,.8,-.7,1.4,-.7Zm0,.6c-.3,0,-.6,.1,-.8,.5c-.2,.4,-.3,.9,-.3,1.7c0,.7,.1,1.3,.3,1.6c.2,.4,.5,.6,.8,.6c.4,0,.7,-.2,.9,-.6c.2,-.3,.3,-.9,.3,-1.6c0,-.8,-.1,-1.3,-.3,-1.7c-.2,-.4,-.5,-.5,-.9,-.5Z" class="g3_359"/>
<path d="M210.4,301.3h.7v-1h-.7Z" class="g3_359"/>
<path d="M212.7,295.9h2.9v.6h-2.2v1.3c.1,0,.2,0,.3,-.1c.1,0,.2,0,.3,0c.6,0,1.1,.2,1.4,.5c.4,.3,.6,.8,.6,1.3c0,.6,-.2,1.1,-.6,1.4c-.3,.3,-.8,.5,-1.5,.5c-.2,0,-.4,0,-.7,-.1c-.2,0,-.5,-.1,-.7,-.2v-.7c.2,.1,.4,.2,.7,.3c.2,0,.4,.1,.7,.1c.4,0,.7,-.2,1,-.4c.2,-.2,.3,-.5,.3,-.9c0,-.3,-.1,-.6,-.3,-.9c-.3,-.2,-.6,-.3,-1,-.3c-.2,0,-.4,0,-.6,.1c-.2,0,-.4,.1,-.6,.2v-2.7Z" class="g3_359"/>
<path d="M219,295.8c.6,0,1,.2,1.3,.7c.4,.5,.5,1.2,.5,2.1c0,.9,-.1,1.6,-.5,2.1c-.3,.4,-.7,.7,-1.3,.7c-.6,0,-1.1,-.3,-1.4,-.7c-.3,-.5,-.5,-1.2,-.5,-2.1c0,-.9,.2,-1.6,.5,-2.1c.3,-.5,.8,-.7,1.4,-.7Zm0,.6c-.4,0,-.7,.1,-.9,.5c-.2,.4,-.3,.9,-.3,1.7c0,.7,.1,1.3,.3,1.6c.2,.4,.5,.6,.9,.6c.3,0,.6,-.2,.8,-.6c.2,-.3,.3,-.9,.3,-1.6c0,-.8,-.1,-1.3,-.3,-1.7c-.2,-.4,-.5,-.5,-.8,-.5Z" class="g3_359"/>
<path d="M246,290.5V94.1" class="g1_359"/>
<path d="M246,290.5v2.6" class="g2_359"/>
<path d="M240.2,295.8c.6,0,1,.2,1.4,.7c.3,.5,.4,1.2,.4,2.1c0,.9,-.1,1.6,-.4,2.1c-.4,.4,-.8,.7,-1.4,.7c-.6,0,-1.1,-.3,-1.4,-.7c-.3,-.5,-.5,-1.2,-.5,-2.1c0,-.9,.2,-1.6,.5,-2.1c.3,-.5,.8,-.7,1.4,-.7Zm0,.6c-.4,0,-.7,.1,-.9,.5c-.2,.4,-.3,.9,-.3,1.7c0,.7,.1,1.3,.3,1.6c.2,.4,.5,.6,.9,.6c.4,0,.6,-.2,.8,-.6c.2,-.3,.3,-.9,.3,-1.6c0,-.8,-.1,-1.3,-.3,-1.7c-.2,-.4,-.4,-.5,-.8,-.5Z" class="g3_359"/>
<path d="M243.3,301.3h.8v-1h-.8Z" class="g3_359"/>
<path d="M245.5,295.9h3.4v.3l-1.9,5.1h-.8l1.9,-4.8h-2.6v-.6Z" class="g3_359"/>
<path d="M250.4,295.9h2.8v.6H251v1.3c.1,0,.2,0,.3,-.1c.1,0,.3,0,.4,0c.6,0,1,.2,1.4,.5c.3,.3,.5,.8,.5,1.3c0,.6,-.2,1.1,-.5,1.4c-.4,.3,-.9,.5,-1.5,.5c-.3,0,-.5,0,-.7,-.1c-.3,0,-.5,-.1,-.8,-.2v-.7c.2,.1,.5,.2,.7,.3c.2,0,.5,.1,.7,.1c.5,0,.8,-.2,1,-.4c.3,-.2,.4,-.5,.4,-.9c0,-.3,-.1,-.6,-.4,-.9c-.2,-.2,-.5,-.3,-1,-.3c-.2,0,-.4,0,-.5,.1c-.2,0,-.4,.1,-.6,.2v-2.7Z" class="g3_359"/>
<path d="M279,290.5V94.1" class="g1_359"/>
<path d="M279,290.5v2.6" class="g2_359"/>
<path d="M271.7,300.7h1.2v-4.2l-1.3,.3v-.7l1.3,-.2h.7v4.8h1.2v.6h-3.1v-.6Z" class="g3_359"/>
<path d="M276.3,301.3h.7v-1h-.7Z" class="g3_359"/>
<path d="M280.2,295.8c.6,0,1,.2,1.3,.7c.4,.5,.5,1.2,.5,2.1c0,.9,-.1,1.6,-.5,2.1c-.3,.4,-.7,.7,-1.3,.7c-.6,0,-1.1,-.3,-1.4,-.7c-.3,-.5,-.5,-1.2,-.5,-2.1c0,-.9,.2,-1.6,.5,-2.1c.3,-.5,.8,-.7,1.4,-.7Zm0,.6c-.4,0,-.7,.1,-.9,.5c-.2,.4,-.3,.9,-.3,1.7c0,.7,.1,1.3,.3,1.6c.2,.4,.5,.6,.9,.6c.3,0,.6,-.2,.8,-.6c.2,-.3,.3,-.9,.3,-1.6c0,-.8,-.1,-1.3,-.3,-1.7c-.2,-.4,-.5,-.5,-.8,-.5Z" class="g3_359"/>
<path d="M284.9,295.8c.6,0,1,.2,1.3,.7c.4,.5,.5,1.2,.5,2.1c0,.9,-.1,1.6,-.5,2.1c-.3,.4,-.7,.7,-1.3,.7c-.6,0,-1.1,-.3,-1.4,-.7c-.3,-.5,-.5,-1.2,-.5,-2.1c0,-.9,.2,-1.6,.5,-2.1c.3,-.5,.8,-.7,1.4,-.7Zm0,.6c-.4,0,-.7,.1,-.9,.5c-.2,.4,-.3,.9,-.3,1.7c0,.7,.1,1.3,.3,1.6c.2,.4,.5,.6,.9,.6c.3,0,.6,-.2,.8,-.6c.2,-.3,.3,-.9,.3,-1.6c0,-.8,-.1,-1.3,-.3,-1.7c-.2,-.4,-.5,-.5,-.8,-.5Z" class="g3_359"/>
<path d="M311.9,290.5V94.1" class="g1_359"/>
<path d="M311.9,290.5v2.6" class="g2_359"/>
<path d="M304.6,300.7h1.2v-4.2l-1.3,.3v-.7l1.3,-.2h.7v4.8h1.2v.6h-3.1v-.6Z" class="g3_359"/>
<path d="M309.2,301.3h.8v-1h-.8Z" class="g3_359"/>
<path d="M312.2,300.7h2.5v.6h-3.4v-.6c.3,-.3,.7,-.7,1.1,-1.2c.5,-.5,.8,-.8,.9,-.9c.3,-.3,.4,-.5,.5,-.7c.1,-.2,.2,-.4,.2,-.5c0,-.3,-.1,-.5,-.3,-.7c-.2,-.2,-.5,-.3,-.8,-.3c-.3,0,-.5,0,-.7,.1c-.3,.1,-.6,.2,-.9,.4v-.8c.3,-.1,.6,-.2,.9,-.2c.2,-.1,.4,-.1,.7,-.1c.5,0,1,.1,1.3,.4c.3,.3,.5,.7,.5,1.1c0,.2,-.1,.5,-.1,.7c-.1,.1,-.3,.4,-.5,.7c0,0,-.2,.2,-.6,.6c-.3,.3,-.7,.8,-1.3,1.4Z" class="g3_359"/>
<path d="M316.3,295.9h2.8v.6h-2.2v1.3c.1,0,.2,0,.3,-.1c.1,0,.3,0,.4,0c.6,0,1,.2,1.4,.5c.3,.3,.5,.8,.5,1.3c0,.6,-.2,1.1,-.5,1.4c-.4,.3,-.9,.5,-1.6,.5c-.2,0,-.4,0,-.6,-.1c-.3,0,-.5,-.1,-.8,-.2v-.7c.2,.1,.5,.2,.7,.3c.2,0,.5,.1,.7,.1c.4,0,.8,-.2,1,-.4c.3,-.2,.4,-.5,.4,-.9c0,-.3,-.1,-.6,-.4,-.9c-.2,-.2,-.6,-.3,-1,-.3c-.2,0,-.4,0,-.6,.1c-.1,0,-.3,.1,-.5,.2v-2.7Z" class="g3_359"/>
<path d="M344.9,290.5V94.1" class="g1_359"/>
<path d="M344.9,290.5v2.6" class="g2_359"/>
<path d="M337.6,300.7h1.2v-4.2l-1.3,.3v-.7l1.3,-.2h.7v4.8h1.2v.6h-3.1v-.6Z" class="g3_359"/>
<path d="M342.2,301.3h.7v-1h-.7Z" class="g3_359"/>
<path d="M344.5,295.9h2.9v.6h-2.2v1.3c.1,0,.2,0,.3,-.1c.1,0,.2,0,.3,0c.6,0,1.1,.2,1.4,.5c.4,.3,.6,.8,.6,1.3c0,.6,-.2,1.1,-.6,1.4c-.3,.3,-.8,.5,-1.5,.5c-.2,0,-.5,0,-.7,-.1c-.2,0,-.5,-.1,-.7,-.2v-.7c.2,.1,.4,.2,.6,.3c.3,0,.5,.1,.8,.1c.4,0,.7,-.2,1,-.4c.2,-.2,.3,-.5,.3,-.9c0,-.3,-.1,-.6,-.3,-.9c-.3,-.2,-.6,-.3,-1,-.3c-.2,0,-.4,0,-.6,.1c-.2,0,-.4,.1,-.6,.2v-2.7Z" class="g3_359"/>
<path d="M350.8,295.8c.6,0,1,.2,1.3,.7c.4,.5,.5,1.2,.5,2.1c0,.9,-.1,1.6,-.5,2.1c-.3,.4,-.7,.7,-1.3,.7c-.7,0,-1.1,-.3,-1.4,-.7c-.3,-.5,-.5,-1.2,-.5,-2.1c0,-.9,.2,-1.6,.5,-2.1c.3,-.5,.7,-.7,1.4,-.7Zm0,.6c-.4,0,-.7,.1,-.9,.5c-.2,.4,-.3,.9,-.3,1.7c0,.7,.1,1.3,.3,1.6c.2,.4,.5,.6,.9,.6c.3,0,.6,-.2,.8,-.6c.2,-.3,.3,-.9,.3,-1.6c0,-.8,-.1,-1.3,-.3,-1.7c-.2,-.4,-.5,-.5,-.8,-.5Z" class="g3_359"/>
<path d="M377.8,290.5V94.1" class="g1_359"/>
<path d="M377.8,290.5v2.6" class="g2_359"/>
<path d="M370.5,300.7h1.2v-4.2l-1.3,.3v-.7l1.3,-.2h.7v4.8h1.2v.6h-3.1v-.6Z" class="g3_359"/>
<path d="M375.1,301.3h.8v-1h-.8Z" class="g3_359"/>
<path d="M377.3,295.9h3.4v.3l-1.9,5.1H378l1.8,-4.8h-2.5v-.6Z" class="g3_359"/>
<path d="M382.1,295.9H385v.6h-2.2v1.3c.1,0,.2,0,.3,-.1c.1,0,.2,0,.4,0c.6,0,1,.2,1.4,.5c.3,.3,.5,.8,.5,1.3c0,.6,-.2,1.1,-.5,1.4c-.4,.3,-.9,.5,-1.6,.5c-.2,0,-.4,0,-.7,-.1c-.2,0,-.4,-.1,-.7,-.2v-.7c.2,.1,.5,.2,.7,.3c.2,0,.5,.1,.7,.1c.4,0,.8,-.2,1,-.4c.3,-.2,.4,-.5,.4,-.9c0,-.3,-.1,-.6,-.4,-.9c-.2,-.2,-.6,-.3,-1,-.3c-.2,0,-.4,0,-.6,.1c-.2,0,-.3,.1,-.6,.2v-2.7Z" class="g3_359"/>
<path d="M410.8,290.5V94.1" class="g1_359"/>
<path d="M410.8,290.5v2.6" class="g2_359"/>
<path d="M404,300.7h2.5v.6h-3.4v-.6c.3,-.3,.7,-.7,1.1,-1.2c.5,-.5,.8,-.8,.9,-.9c.3,-.3,.4,-.5,.5,-.7c.1,-.2,.2,-.4,.2,-.5c0,-.3,-.1,-.5,-.3,-.7c-.2,-.2,-.5,-.3,-.8,-.3c-.3,0,-.5,0,-.8,.1c-.2,.1,-.5,.2,-.8,.4v-.8c.3,-.1,.6,-.2,.9,-.2c.2,-.1,.4,-.1,.7,-.1c.5,0,1,.1,1.3,.4c.3,.3,.5,.7,.5,1.1c0,.2,-.1,.5,-.1,.7c-.1,.1,-.3,.4,-.5,.7c0,0,-.2,.2,-.6,.6c-.3,.3,-.7,.8,-1.3,1.4Z" class="g3_359"/>
<path d="M408,301.3h.8v-1H408Z" class="g3_359"/>
<path d="M412,295.8c.6,0,1,.2,1.3,.7c.4,.5,.5,1.2,.5,2.1c0,.9,-.1,1.6,-.5,2.1c-.3,.4,-.7,.7,-1.3,.7c-.7,0,-1.1,-.3,-1.4,-.7c-.4,-.5,-.5,-1.2,-.5,-2.1c0,-.9,.1,-1.6,.5,-2.1c.3,-.5,.7,-.7,1.4,-.7Zm0,.6c-.4,0,-.7,.1,-.9,.5c-.2,.4,-.3,.9,-.3,1.7c0,.7,.1,1.3,.3,1.6c.2,.4,.5,.6,.9,.6c.3,0,.6,-.2,.8,-.6c.2,-.3,.3,-.9,.3,-1.6c0,-.8,-.1,-1.3,-.3,-1.7c-.2,-.4,-.5,-.5,-.8,-.5Z" class="g3_359"/>
<path d="M416.6,295.8c.6,0,1.1,.2,1.4,.7c.3,.5,.5,1.2,.5,2.1c0,.9,-.2,1.6,-.5,2.1c-.3,.4,-.8,.7,-1.4,.7c-.6,0,-1,-.3,-1.3,-.7c-.4,-.5,-.5,-1.2,-.5,-2.1c0,-.9,.1,-1.6,.5,-2.1c.3,-.5,.7,-.7,1.3,-.7Zm0,.6c-.3,0,-.6,.1,-.8,.5c-.2,.4,-.3,.9,-.3,1.7c0,.7,.1,1.3,.3,1.6c.2,.4,.5,.6,.8,.6c.4,0,.7,-.2,.9,-.6c.2,-.3,.3,-.9,.3,-1.6c0,-.8,-.1,-1.3,-.3,-1.7c-.2,-.4,-.5,-.5,-.9,-.5Z" class="g3_359"/>
<path d="M280.9,307.3l-1.5,2l1.5,2.1h-.7L279,309.8l-1.2,1.6H277l1.6,-2.2l-1.4,-1.9h.7l1.1,1.5l1.1,-1.5h.8Z" class="g3_359"/>
<path d="M147.2,282.5H410.8" class="g1_359"/>
<path d="M147.2,282.5h-2.6" class="g2_359"/>
<path d="M139.7,279.8c.6,0,1.1,.2,1.4,.7c.3,.5,.4,1.2,.4,2.1c0,.9,-.1,1.6,-.4,2.1c-.3,.4,-.8,.7,-1.4,.7c-.6,0,-1.1,-.3,-1.4,-.7c-.3,-.5,-.5,-1.2,-.5,-2.1c0,-.9,.2,-1.6,.5,-2.1c.3,-.5,.8,-.7,1.4,-.7Zm0,.6c-.4,0,-.7,.2,-.9,.5c-.1,.4,-.2,.9,-.2,1.7c0,.7,.1,1.3,.2,1.6c.2,.4,.5,.6,.9,.6c.4,0,.6,-.2,.8,-.6c.2,-.3,.3,-.9,.3,-1.6c0,-.8,-.1,-1.3,-.3,-1.7c-.2,-.3,-.4,-.5,-.8,-.5Z" class="g3_359"/>
<path d="M147.2,246.6H410.8" class="g1_359"/>
<path d="M147.2,246.6h-2.6" class="g2_359"/>
<path d="M134.1,248.8h2.5v.6h-3.4v-.6c.3,-.3,.6,-.7,1.1,-1.2c.5,-.5,.8,-.8,.9,-.9c.2,-.3,.4,-.5,.5,-.7c.1,-.2,.1,-.3,.1,-.5c0,-.3,-.1,-.5,-.3,-.7c-.2,-.2,-.4,-.3,-.7,-.3c-.3,0,-.5,.1,-.8,.1c-.2,.1,-.5,.2,-.8,.4v-.7c.3,-.2,.6,-.2,.8,-.3c.3,-.1,.5,-.1,.7,-.1c.6,0,1,.1,1.4,.4c.3,.3,.5,.7,.5,1.1c0,.3,-.1,.5,-.2,.7c0,.2,-.2,.4,-.4,.7c-.1,0,-.3,.2,-.6,.6c-.3,.3,-.8,.8,-1.3,1.4Z" class="g3_359"/>
<path d="M139.7,243.9c.6,0,1.1,.2,1.4,.7c.3,.5,.4,1.2,.4,2.1c0,.9,-.1,1.6,-.4,2.1c-.3,.4,-.8,.7,-1.4,.7c-.6,0,-1.1,-.3,-1.4,-.7c-.3,-.5,-.5,-1.2,-.5,-2.1c0,-.9,.2,-1.6,.5,-2.1c.3,-.5,.8,-.7,1.4,-.7Zm0,.6c-.4,0,-.7,.2,-.9,.5c-.1,.4,-.2,1,-.2,1.7c0,.7,.1,1.3,.2,1.7c.2,.3,.5,.5,.9,.5c.4,0,.6,-.2,.8,-.5c.2,-.4,.3,-1,.3,-1.7c0,-.7,-.1,-1.3,-.3,-1.7c-.2,-.3,-.4,-.5,-.8,-.5Z" class="g3_359"/>
<path d="M147.2,210.7H410.8" class="g1_359"/>
<path d="M147.2,210.7h-2.6" class="g2_359"/>
<path d="M135.2,208.1h1v3.5h.7v.6h-.7v1.3h-.8v-1.3H133v-.7l2.2,-3.4Zm.2,.6l-1.8,2.9h1.8v-2.9Z" class="g3_359"/>
<path d="M139.7,208c.6,0,1.1,.2,1.4,.7c.3,.5,.4,1.2,.4,2.1c0,.9,-.1,1.6,-.4,2.1c-.3,.5,-.8,.7,-1.4,.7c-.6,0,-1.1,-.2,-1.4,-.7c-.3,-.5,-.5,-1.2,-.5,-2.1c0,-.9,.2,-1.6,.5,-2.1c.3,-.5,.8,-.7,1.4,-.7Zm0,.6c-.4,0,-.7,.2,-.9,.5c-.1,.4,-.2,1,-.2,1.7c0,.7,.1,1.3,.2,1.7c.2,.3,.5,.5,.9,.5c.4,0,.6,-.2,.8,-.5c.2,-.4,.3,-1,.3,-1.7c0,-.7,-.1,-1.3,-.3,-1.7c-.2,-.3,-.4,-.5,-.8,-.5Z" class="g3_359"/>
<path d="M147.2,174.8H410.8" class="g1_359"/>
<path d="M147.2,174.8h-2.6" class="g2_359"/>
<path d="M136.5,172.3v.7c-.2,-.1,-.3,-.2,-.5,-.2c-.2,0,-.4,-.1,-.6,-.1c-.5,0,-.8,.2,-1.1,.5c-.2,.3,-.4,.8,-.4,1.5c.1,-.2,.3,-.4,.5,-.5c.2,-.1,.5,-.2,.7,-.2c.6,0,1,.2,1.3,.5c.3,.4,.5,.8,.5,1.4c0,.5,-.2,1,-.5,1.3c-.3,.3,-.8,.5,-1.3,.5c-.6,0,-1.1,-.2,-1.4,-.7c-.4,-.5,-.5,-1.2,-.5,-2.1c0,-.8,.2,-1.5,.6,-2c.4,-.5,.9,-.8,1.6,-.8c.2,0,.4,0,.5,.1c.2,0,.4,.1,.6,.1Zm-1.4,2.3c-.3,0,-.6,.1,-.8,.4c-.2,.2,-.3,.5,-.3,.9c0,.4,.1,.7,.3,.9c.2,.2,.5,.3,.8,.3c.3,0,.6,-.1,.8,-.3c.1,-.2,.2,-.5,.2,-.9c0,-.4,-.1,-.7,-.2,-.9c-.2,-.3,-.5,-.4,-.8,-.4Z" class="g3_359"/>
<path d="M139.7,172.1c.6,0,1.1,.3,1.4,.7c.3,.5,.4,1.2,.4,2.1c0,.9,-.1,1.6,-.4,2.1c-.3,.5,-.8,.7,-1.4,.7c-.6,0,-1.1,-.2,-1.4,-.7c-.3,-.5,-.5,-1.2,-.5,-2.1c0,-.9,.2,-1.6,.5,-2.1c.3,-.4,.8,-.7,1.4,-.7Zm0,.6c-.4,0,-.7,.2,-.9,.6c-.1,.3,-.2,.9,-.2,1.6c0,.8,.1,1.3,.2,1.7c.2,.3,.5,.5,.9,.5c.4,0,.6,-.2,.8,-.5c.2,-.4,.3,-.9,.3,-1.7c0,-.7,-.1,-1.3,-.3,-1.6c-.2,-.4,-.4,-.6,-.8,-.6Z" class="g3_359"/>
<path d="M147.2,138.9H410.8" class="g1_359"/>
<path d="M147.2,138.9h-2.6" class="g2_359"/>
<path d="M134,137.7c0,.3,.1,.5,.3,.6c.1,.2,.4,.3,.7,.3c.3,0,.5,-.1,.7,-.3c.2,-.1,.3,-.3,.3,-.6c0,-.3,-.1,-.5,-.3,-.7c-.2,-.1,-.4,-.2,-.7,-.2c-.3,0,-.6,.1,-.7,.2c-.2,.2,-.3,.4,-.3,.7Zm.3,1.1c-.3,0,-.6,-.2,-.8,-.4c-.1,-.2,-.2,-.5,-.2,-.8c0,-.4,.1,-.7,.4,-1c.3,-.2,.8,-.4,1.3,-.4c.5,0,.9,.2,1.3,.4c.3,.3,.4,.6,.4,1c0,.3,-.1,.6,-.3,.8c-.1,.2,-.4,.4,-.7,.4c.4,.1,.6,.3,.8,.5c.2,.3,.3,.5,.3,.9c0,.5,-.1,.9,-.4,1.2c-.4,.3,-.8,.4,-1.4,.4c-.6,0,-1.1,-.1,-1.4,-.4c-.3,-.3,-.5,-.7,-.5,-1.2c0,-.4,.1,-.6,.3,-.9c.2,-.2,.5,-.4,.9,-.5Zm.7,.4c-.4,0,-.6,0,-.8,.2c-.2,.2,-.3,.5,-.3,.8c0,.3,.1,.6,.3,.8c.2,.1,.4,.2,.8,.2c.3,0,.6,-.1,.8,-.2c.2,-.2,.3,-.5,.3,-.8c0,-.3,-.1,-.6,-.3,-.8c-.2,-.2,-.5,-.2,-.8,-.2Z" class="g3_359"/>
<path d="M139.7,136.2c.6,0,1.1,.3,1.4,.7c.3,.5,.4,1.2,.4,2.1c0,.9,-.1,1.6,-.4,2.1c-.3,.5,-.8,.7,-1.4,.7c-.6,0,-1.1,-.2,-1.4,-.7c-.3,-.5,-.5,-1.2,-.5,-2.1c0,-.9,.2,-1.6,.5,-2.1c.3,-.4,.8,-.7,1.4,-.7Zm0,.6c-.4,0,-.7,.2,-.9,.6c-.1,.3,-.2,.9,-.2,1.6c0,.8,.1,1.3,.2,1.7c.2,.4,.5,.5,.9,.5c.4,0,.6,-.1,.8,-.5c.2,-.4,.3,-.9,.3,-1.7c0,-.7,-.1,-1.3,-.3,-1.6c-.2,-.4,-.4,-.6,-.8,-.6Z" class="g3_359"/>
<path d="M147.2,103H410.8" class="g1_359"/>
<path d="M147.2,103h-2.6" class="g2_359"/>
<path d="M128.9,105.2h1.2v-4.1l-1.3,.3v-.7l1.2,-.3h.8v4.8H132v.6h-3.1v-.6Z" class="g3_359"/>
<path d="M135,100.3c.6,0,1.1,.3,1.4,.8c.3,.4,.5,1.1,.5,2c0,.9,-.2,1.6,-.5,2.1c-.3,.5,-.8,.7,-1.4,.7c-.6,0,-1.1,-.2,-1.4,-.7c-.3,-.5,-.5,-1.2,-.5,-2.1c0,-.9,.2,-1.6,.5,-2c.3,-.5,.8,-.8,1.4,-.8Zm0,.6c-.4,0,-.7,.2,-.9,.6c-.1,.3,-.2,.9,-.2,1.6c0,.8,.1,1.3,.2,1.7c.2,.4,.5,.5,.9,.5c.4,0,.7,-.1,.8,-.5c.2,-.4,.3,-.9,.3,-1.7c0,-.7,-.1,-1.3,-.3,-1.6c-.1,-.4,-.4,-.6,-.8,-.6Z" class="g3_359"/>
<path d="M139.7,100.3c.6,0,1.1,.3,1.4,.8c.3,.4,.4,1.1,.4,2c0,.9,-.1,1.6,-.4,2.1c-.3,.5,-.8,.7,-1.4,.7c-.6,0,-1.1,-.2,-1.4,-.7c-.3,-.5,-.5,-1.2,-.5,-2.1c0,-.9,.2,-1.6,.5,-2c.3,-.5,.8,-.8,1.4,-.8Zm0,.6c-.4,0,-.7,.2,-.9,.6c-.1,.3,-.2,.9,-.2,1.6c0,.8,.1,1.3,.2,1.7c.2,.4,.5,.5,.9,.5c.4,0,.6,-.1,.8,-.5c.2,-.4,.3,-.9,.3,-1.7c0,-.7,-.1,-1.3,-.3,-1.6c-.2,-.4,-.4,-.6,-.8,-.6Z" class="g3_359"/>
<path d="M123.8,192.1c.5,.2,.8,.4,1,.5c.1,.2,.2,.5,.2,.8v.5h-.6v-.4c0,-.2,0,-.3,-.1,-.4c-.1,-.1,-.3,-.2,-.6,-.4l-.3,-.1l-4,1.7v-.7l3.2,-1.3L119.4,191v-.7l4.4,1.8Z" class="g3_359"/>
<path d="M148.5,103l1.3,89.7l1.4,29.9l1.3,15c1.8,13.3,3.5,28.2,17.1,34.3l2.6,1.1l2.7,.9l2.6,.8l4,.9l3.9,.7l5.3,.7l5.3,.6l6.6,.6l7.9,.5c31.1,1.7,62.4,1.8,93.5,2.3l40.9,.3l59.3,.2l5.3,.1" class="g4_359"/>
<path d="M147.2,290.5V94.1M410.8,290.5V94.1M147.2,290.5H410.8M147.2,94.1H410.8" class="g5_359"/>
<path d="M244.1,89.7h.8V83.2h-.8Z" class="g3_359"/>
<path d="M250.7,86.7v3h-.8V86.8c0,-.5,-.1,-.8,-.3,-1.1c-.2,-.2,-.5,-.3,-.8,-.3c-.4,0,-.8,.1,-1,.4c-.3,.3,-.4,.6,-.4,1.1v2.8h-.8V84.8h.8v.8c.2,-.3,.4,-.5,.7,-.7c.2,-.1,.5,-.2,.9,-.2c.5,0,.9,.2,1.2,.5c.3,.4,.5,.9,.5,1.5Z" class="g3_359"/>
<path d="M251.7,84.8h.8l1.5,4.1l1.5,-4.1h.9l-1.8,4.9h-1.1l-1.8,-4.9Z" class="g3_359"/>
<path d="M260.8,86.8c0,-.4,-.1,-.8,-.3,-1c-.3,-.3,-.6,-.4,-1,-.4c-.4,0,-.8,.1,-1,.3c-.3,.3,-.5,.7,-.5,1.1h2.8Zm.8,.2v.4H258c0,.6,.2,1,.5,1.3c.3,.3,.7,.4,1.2,.4c.3,0,.6,0,.9,-.1c.3,-.1,.6,-.2,.8,-.3v.7c-.2,.1,-.5,.2,-.8,.3c-.3,.1,-.6,.1,-.9,.1c-.8,0,-1.4,-.2,-1.9,-.7c-.4,-.4,-.7,-1,-.7,-1.8c0,-.8,.3,-1.4,.7,-1.9c.4,-.5,1,-.7,1.7,-.7c.7,0,1.2,.2,1.6,.6c.3,.4,.5,1,.5,1.7Z" class="g3_359"/>
<path d="M265.7,85.6c0,-.1,-.1,-.1,-.3,-.2c-.1,0,-.2,0,-.3,0c-.5,0,-.8,.2,-1,.4c-.3,.3,-.4,.8,-.4,1.3v2.6h-.8V84.8h.8v.8c.2,-.3,.4,-.5,.7,-.7c.2,-.1,.6,-.2,.9,-.2q.1,0,.2,0c.1,0,.2,0,.2,0v.9Z" class="g3_359"/>
<path d="M269.7,85v.7c-.3,-.1,-.5,-.2,-.7,-.3c-.3,0,-.5,0,-.8,0c-.4,0,-.7,0,-.9,.1c-.2,.2,-.3,.3,-.3,.6c0,.2,.1,.3,.2,.4c.2,.1,.5,.2,.9,.3l.3,.1c.5,.1,.9,.3,1.2,.5c.2,.2,.3,.5,.3,.9c0,.5,-.2,.8,-.5,1.1c-.4,.2,-.9,.4,-1.5,.4c-.2,0,-.5,0,-.8,-.1c-.3,0,-.6,-.1,-.9,-.2v-.8c.3,.1,.6,.2,.9,.3c.3,.1,.6,.1,.8,.1c.4,0,.7,0,.9,-.2c.2,-.1,.3,-.3,.3,-.5c0,-.2,-.1,-.4,-.2,-.5c-.2,-.1,-.5,-.2,-1,-.4h-.2c-.5,-.1,-.9,-.3,-1.1,-.5c-.2,-.2,-.3,-.5,-.3,-.9c0,-.4,.1,-.8,.4,-1c.4,-.3,.8,-.4,1.4,-.4c.3,0,.6,0,.8,.1c.3,0,.5,.1,.8,.2Z" class="g3_359"/>
<path d="M274.5,86.8c0,-.4,-.1,-.8,-.3,-1c-.3,-.3,-.6,-.4,-1,-.4c-.4,0,-.8,.1,-1,.3c-.3,.3,-.5,.7,-.5,1.1h2.8Zm.8,.2v.4h-3.6c0,.6,.2,1,.5,1.3c.3,.3,.7,.4,1.2,.4c.3,0,.6,0,.9,-.1c.3,-.1,.6,-.2,.8,-.3v.7c-.2,.1,-.5,.2,-.8,.3c-.3,.1,-.6,.1,-.9,.1c-.8,0,-1.4,-.2,-1.9,-.7c-.4,-.4,-.7,-1,-.7,-1.8c0,-.8,.3,-1.4,.7,-1.9c.4,-.5,1,-.7,1.7,-.7c.7,0,1.2,.2,1.6,.6c.3,.4,.5,1,.5,1.7Z" class="g3_359"/>
<path d="M281.9,82.9v.7h-.8c-.2,0,-.4,0,-.6,.2c-.1,.1,-.1,.3,-.1,.6v.4h1.3v.6h-1.3v4.3h-.8V85.4h-.8v-.6h.8v-.3c0,-.6,.1,-1,.4,-1.2c.2,-.2,.4,-.3,.8,-.4h1.1Z" class="g3_359"/>
<path d="M284.5,84.7v0Zm-2,3V84.8h.8v2.9c0,.5,.1,.8,.3,1c.1,.3,.4,.4,.8,.4c.4,0,.7,-.1,1,-.4c.2,-.3,.3,-.7,.3,-1.1V84.8h.8v4.9h-.8v-.8c-.1,.3,-.4,.5,-.6,.7c-.3,.1,-.6,.2,-.9,.2c-.6,0,-1,-.2,-1.3,-.5c-.3,-.4,-.4,-.9,-.4,-1.6Z" class="g3_359"/>
<path d="M292.2,86.7v3h-.8V86.8c0,-.5,-.1,-.8,-.3,-1.1c-.1,-.2,-.4,-.3,-.8,-.3c-.4,0,-.7,.1,-1,.4c-.2,.3,-.3,.6,-.3,1.1v2.8h-.8V84.8h.8v.8c.1,-.3,.4,-.5,.6,-.7c.3,-.1,.6,-.2,.9,-.2c.6,0,1,.2,1.3,.5c.3,.4,.4,.9,.4,1.5Z" class="g3_359"/>
<path d="M297.3,85v.7c-.2,-.1,-.5,-.2,-.7,-.2c-.2,-.1,-.4,-.1,-.7,-.1c-.5,0,-.9,.1,-1.2,.5c-.3,.3,-.4,.7,-.4,1.3c0,.6,.1,1.1,.4,1.4c.3,.3,.7,.5,1.2,.5c.3,0,.5,0,.7,-.1c.2,0,.5,-.1,.7,-.3v.8c-.2,.1,-.5,.1,-.7,.2c-.2,.1,-.5,.1,-.8,.1c-.7,0,-1.3,-.2,-1.7,-.7c-.4,-.5,-.6,-1.1,-.6,-1.9c0,-.8,.2,-1.4,.6,-1.8c.4,-.5,1,-.7,1.8,-.7c.2,0,.5,0,.7,.1c.2,0,.5,.1,.7,.2Z" class="g3_359"/>
<path d="M299.5,83.4v1.4h1.6v.6h-1.6v2.7c0,.4,0,.6,.1,.7c.1,.1,.3,.2,.7,.2h.8v.7h-.8c-.6,0,-1.1,-.2,-1.3,-.4c-.2,-.2,-.3,-.6,-.3,-1.2V85.4h-.6v-.6h.6V83.4h.8Z" class="g3_359"/>
<path d="M302.1,82.9h.8v1h-.8Zm0,1.9h.8v4.9h-.8Z" class="g3_359"/>
<path d="M306.5,84.7c.7,0,1.2,.2,1.6,.7c.4,.4,.6,1,.6,1.8c0,.8,-.2,1.5,-.6,1.9c-.4,.5,-.9,.7,-1.6,.7c-.7,0,-1.3,-.2,-1.7,-.7c-.3,-.4,-.5,-1.1,-.5,-1.9c0,-.8,.2,-1.4,.5,-1.8c.4,-.5,1,-.7,1.7,-.7Zm0,.7c-.4,0,-.8,.1,-1,.5c-.3,.3,-.4,.8,-.4,1.3c0,.6,.1,1.1,.4,1.4c.2,.3,.5,.5,1,.5c.4,0,.7,-.2,1,-.5c.2,-.3,.4,-.8,.4,-1.4c0,-.5,-.2,-1,-.4,-1.3c-.3,-.4,-.6,-.5,-1,-.5Z" class="g3_359"/>
<path d="M314,86.7v3h-.7V86.8c0,-.5,-.1,-.8,-.3,-1.1c-.2,-.2,-.5,-.3,-.8,-.3c-.5,0,-.8,.1,-1,.4c-.3,.3,-.4,.6,-.4,1.1v2.8H310V84.8h.8v.8c.2,-.3,.4,-.5,.7,-.7c.2,-.1,.5,-.2,.9,-.2c.5,0,.9,.2,1.2,.5c.3,.4,.4,.9,.4,1.5Z" class="g3_359"/>
<path d="M452,290.5H715.6V94.1H452Z" class="g0_359"/>
<path d="M452,290.5V94.1" class="g1_359"/>
<path d="M452,290.5v2.6" class="g2_359"/>
<path d="M446.2,295.8c.6,0,1,.2,1.4,.7c.3,.5,.4,1.2,.4,2.1c0,.9,-.1,1.6,-.4,2.1c-.4,.4,-.8,.7,-1.4,.7c-.6,0,-1.1,-.3,-1.4,-.7c-.3,-.5,-.5,-1.2,-.5,-2.1c0,-.9,.2,-1.6,.5,-2.1c.3,-.5,.8,-.7,1.4,-.7Zm0,.6c-.4,0,-.7,.1,-.9,.5c-.2,.4,-.2,.9,-.2,1.7c0,.7,0,1.3,.2,1.6c.2,.4,.5,.6,.9,.6c.4,0,.6,-.2,.8,-.6c.2,-.3,.3,-.9,.3,-1.6c0,-.8,-.1,-1.3,-.3,-1.7c-.2,-.4,-.4,-.5,-.8,-.5Z" class="g3_359"/>
<path d="M449.3,301.3h.8v-1h-.8Z" class="g3_359"/>
<path d="M453.2,295.8c.6,0,1.1,.2,1.4,.7c.3,.5,.5,1.2,.5,2.1c0,.9,-.2,1.6,-.5,2.1c-.3,.4,-.8,.7,-1.4,.7c-.6,0,-1,-.3,-1.4,-.7c-.3,-.5,-.4,-1.2,-.4,-2.1c0,-.9,.1,-1.6,.4,-2.1c.4,-.5,.8,-.7,1.4,-.7Zm0,.6c-.4,0,-.6,.1,-.8,.5c-.2,.4,-.3,.9,-.3,1.7c0,.7,.1,1.3,.3,1.6c.2,.4,.4,.6,.8,.6c.4,0,.7,-.2,.9,-.6c.2,-.3,.3,-.9,.3,-1.6c0,-.8,-.1,-1.3,-.3,-1.7c-.2,-.4,-.5,-.5,-.9,-.5Z" class="g3_359"/>
<path d="M457.9,295.8c.6,0,1.1,.2,1.4,.7c.3,.5,.5,1.2,.5,2.1c0,.9,-.2,1.6,-.5,2.1c-.3,.4,-.8,.7,-1.4,.7c-.6,0,-1,-.3,-1.4,-.7c-.3,-.5,-.4,-1.2,-.4,-2.1c0,-.9,.1,-1.6,.4,-2.1c.4,-.5,.8,-.7,1.4,-.7Zm0,.6c-.4,0,-.6,.1,-.8,.5c-.2,.4,-.3,.9,-.3,1.7c0,.7,.1,1.3,.3,1.6c.2,.4,.4,.6,.8,.6c.4,0,.7,-.2,.9,-.6c.2,-.3,.2,-.9,.2,-1.6c0,-.8,0,-1.3,-.2,-1.7c-.2,-.4,-.5,-.5,-.9,-.5Z" class="g3_359"/>
<path d="M485,290.5V94.1" class="g1_359"/>
<path d="M485,290.5v2.6" class="g2_359"/>
<path d="M479.1,295.8c.6,0,1.1,.2,1.4,.7c.3,.5,.5,1.2,.5,2.1c0,.9,-.2,1.6,-.5,2.1c-.3,.4,-.8,.7,-1.4,.7c-.6,0,-1,-.3,-1.4,-.7c-.3,-.5,-.4,-1.2,-.4,-2.1c0,-.9,.1,-1.6,.4,-2.1c.4,-.5,.8,-.7,1.4,-.7Zm0,.6c-.3,0,-.6,.1,-.8,.5c-.2,.4,-.3,.9,-.3,1.7c0,.7,.1,1.3,.3,1.6c.2,.4,.5,.6,.8,.6c.4,0,.7,-.2,.9,-.6c.2,-.3,.3,-.9,.3,-1.6c0,-.8,-.1,-1.3,-.3,-1.7c-.2,-.4,-.5,-.5,-.9,-.5Z" class="g3_359"/>
<path d="M482.3,301.3h.7v-1h-.7Z" class="g3_359"/>
<path d="M485.2,300.7h2.6v.6h-3.4v-.6c.2,-.3,.6,-.7,1.1,-1.2c.5,-.5,.8,-.8,.9,-.9c.2,-.3,.4,-.5,.5,-.7c.1,-.2,.1,-.4,.1,-.5c0,-.3,-.1,-.5,-.3,-.7c-.2,-.2,-.4,-.3,-.8,-.3c-.2,0,-.4,0,-.7,.1c-.2,.1,-.5,.2,-.8,.4v-.8c.3,-.1,.6,-.2,.8,-.2c.3,-.1,.5,-.1,.7,-.1c.6,0,1,.1,1.4,.4c.3,.3,.5,.7,.5,1.1c0,.2,-.1,.5,-.2,.7c-.1,.1,-.2,.4,-.4,.7c-.1,0,-.3,.2,-.6,.6c-.3,.3,-.8,.8,-1.4,1.4Z" class="g3_359"/>
<path d="M489.3,295.9h2.9v.6H490v1.3c.1,0,.2,0,.3,-.1c.1,0,.2,0,.3,0c.6,0,1.1,.2,1.4,.5c.4,.3,.6,.8,.6,1.3c0,.6,-.2,1.1,-.6,1.4c-.3,.3,-.8,.5,-1.5,.5c-.2,0,-.5,0,-.7,-.1c-.2,0,-.5,-.1,-.7,-.2v-.7c.2,.1,.4,.2,.7,.3c.2,0,.4,.1,.7,.1c.4,0,.7,-.2,1,-.4c.2,-.2,.3,-.5,.3,-.9c0,-.3,-.1,-.6,-.3,-.9c-.3,-.2,-.6,-.3,-1,-.3c-.2,0,-.4,0,-.6,.1c-.2,0,-.4,.1,-.6,.2v-2.7Z" class="g3_359"/>
<path d="M517.9,290.5V94.1" class="g1_359"/>
<path d="M517.9,290.5v2.6" class="g2_359"/>
<path d="M512.1,295.8c.6,0,1,.2,1.4,.7c.3,.5,.4,1.2,.4,2.1c0,.9,-.1,1.6,-.4,2.1c-.4,.4,-.8,.7,-1.4,.7c-.6,0,-1.1,-.3,-1.4,-.7c-.3,-.5,-.5,-1.2,-.5,-2.1c0,-.9,.2,-1.6,.5,-2.1c.3,-.5,.8,-.7,1.4,-.7Zm0,.6c-.4,0,-.7,.1,-.9,.5c-.2,.4,-.3,.9,-.3,1.7c0,.7,.1,1.3,.3,1.6c.2,.4,.5,.6,.9,.6c.3,0,.6,-.2,.8,-.6c.2,-.3,.3,-.9,.3,-1.6c0,-.8,-.1,-1.3,-.3,-1.7c-.2,-.4,-.5,-.5,-.8,-.5Z" class="g3_359"/>
<path d="M515.2,301.3h.8v-1h-.8Z" class="g3_359"/>
<path d="M517.6,295.9h2.8v.6h-2.2v1.3c.1,0,.2,0,.3,-.1c.2,0,.3,0,.4,0c.6,0,1,.2,1.4,.5c.3,.3,.5,.8,.5,1.3c0,.6,-.2,1.1,-.5,1.4c-.4,.3,-.9,.5,-1.5,.5c-.3,0,-.5,0,-.7,-.1c-.3,0,-.5,-.1,-.8,-.2v-.7c.3,.1,.5,.2,.7,.3c.2,0,.5,.1,.7,.1c.5,0,.8,-.2,1,-.4c.3,-.2,.4,-.5,.4,-.9c0,-.3,-.1,-.6,-.4,-.9c-.2,-.2,-.5,-.3,-1,-.3c-.2,0,-.3,0,-.5,.1c-.2,0,-.4,.1,-.6,.2v-2.7Z" class="g3_359"/>
<path d="M523.8,295.8c.6,0,1.1,.2,1.4,.7c.3,.5,.5,1.2,.5,2.1c0,.9,-.2,1.6,-.5,2.1c-.3,.4,-.8,.7,-1.4,.7c-.6,0,-1.1,-.3,-1.4,-.7c-.3,-.5,-.4,-1.2,-.4,-2.1c0,-.9,.1,-1.6,.4,-2.1c.3,-.5,.8,-.7,1.4,-.7Zm0,.6c-.4,0,-.6,.1,-.8,.5c-.2,.4,-.3,.9,-.3,1.7c0,.7,.1,1.3,.3,1.6c.2,.4,.4,.6,.8,.6c.4,0,.7,-.2,.9,-.6c.1,-.3,.2,-.9,.2,-1.6c0,-.8,-.1,-1.3,-.2,-1.7c-.2,-.4,-.5,-.5,-.9,-.5Z" class="g3_359"/>
<path d="M550.9,290.5V94.1" class="g1_359"/>
<path d="M550.9,290.5v2.6" class="g2_359"/>
<path d="M545,295.8c.6,0,1.1,.2,1.4,.7c.3,.5,.5,1.2,.5,2.1c0,.9,-.2,1.6,-.5,2.1c-.3,.4,-.8,.7,-1.4,.7c-.6,0,-1,-.3,-1.4,-.7c-.3,-.5,-.4,-1.2,-.4,-2.1c0,-.9,.1,-1.6,.4,-2.1c.4,-.5,.8,-.7,1.4,-.7Zm0,.6c-.4,0,-.6,.1,-.8,.5c-.2,.4,-.3,.9,-.3,1.7c0,.7,.1,1.3,.3,1.6c.2,.4,.4,.6,.8,.6c.4,0,.7,-.2,.9,-.6c.2,-.3,.3,-.9,.3,-1.6c0,-.8,-.1,-1.3,-.3,-1.7c-.2,-.4,-.5,-.5,-.9,-.5Z" class="g3_359"/>
<path d="M548.2,301.3h.7v-1h-.7Z" class="g3_359"/>
<path d="M550.3,295.9h3.5v.3l-2,5.1h-.7l1.8,-4.8h-2.6v-.6Z" class="g3_359"/>
<path d="M555.2,295.9h2.9v.6h-2.2v1.3c.1,0,.2,0,.3,-.1c.1,0,.2,0,.3,0c.6,0,1.1,.2,1.4,.5c.4,.3,.6,.8,.6,1.3c0,.6,-.2,1.1,-.6,1.4c-.3,.3,-.8,.5,-1.5,.5c-.2,0,-.5,0,-.7,-.1c-.2,0,-.5,-.1,-.7,-.2v-.7c.2,.1,.4,.2,.6,.3c.3,0,.5,.1,.8,.1c.4,0,.7,-.2,1,-.4c.2,-.2,.3,-.5,.3,-.9c0,-.3,-.1,-.6,-.3,-.9c-.3,-.2,-.6,-.3,-1,-.3c-.2,0,-.4,0,-.6,.1c-.2,0,-.4,.1,-.6,.2v-2.7Z" class="g3_359"/>
<path d="M583.8,290.5V94.1" class="g1_359"/>
<path d="M583.8,290.5v2.6" class="g2_359"/>
<path d="M576.5,300.7h1.2v-4.2l-1.3,.3v-.7l1.3,-.2h.7v4.8h1.2v.6h-3.1v-.6Z" class="g3_359"/>
<path d="M581.1,301.3h.8v-1h-.8Z" class="g3_359"/>
<path d="M585,295.8c.6,0,1.1,.2,1.4,.7c.3,.5,.5,1.2,.5,2.1c0,.9,-.2,1.6,-.5,2.1c-.3,.4,-.8,.7,-1.4,.7c-.6,0,-1.1,-.3,-1.4,-.7c-.3,-.5,-.5,-1.2,-.5,-2.1c0,-.9,.2,-1.6,.5,-2.1c.3,-.5,.8,-.7,1.4,-.7Zm0,.6c-.4,0,-.6,.1,-.8,.5c-.2,.4,-.3,.9,-.3,1.7c0,.7,.1,1.3,.3,1.6c.2,.4,.4,.6,.8,.6c.4,0,.7,-.2,.9,-.6c.1,-.3,.2,-.9,.2,-1.6c0,-.8,-.1,-1.3,-.2,-1.7c-.2,-.4,-.5,-.5,-.9,-.5Z" class="g3_359"/>
<path d="M589.7,295.8c.6,0,1.1,.2,1.4,.7c.3,.5,.5,1.2,.5,2.1c0,.9,-.2,1.6,-.5,2.1c-.3,.4,-.8,.7,-1.4,.7c-.6,0,-1.1,-.3,-1.4,-.7c-.3,-.5,-.5,-1.2,-.5,-2.1c0,-.9,.2,-1.6,.5,-2.1c.3,-.5,.8,-.7,1.4,-.7Zm0,.6c-.4,0,-.7,.1,-.8,.5c-.2,.4,-.3,.9,-.3,1.7c0,.7,.1,1.3,.3,1.6c.1,.4,.4,.6,.8,.6c.4,0,.7,-.2,.9,-.6c.1,-.3,.2,-.9,.2,-1.6c0,-.8,-.1,-1.3,-.2,-1.7c-.2,-.4,-.5,-.5,-.9,-.5Z" class="g3_359"/>
<path d="M616.8,290.5V94.1" class="g1_359"/>
<path d="M616.8,290.5v2.6" class="g2_359"/>
<path d="M609.5,300.7h1.2v-4.2l-1.3,.3v-.7l1.3,-.2h.7v4.8h1.2v.6h-3.1v-.6Z" class="g3_359"/>
<path d="M614.1,301.3h.7v-1h-.7Z" class="g3_359"/>
<path d="M617,300.7h2.6v.6h-3.5v-.6c.3,-.3,.7,-.7,1.2,-1.2c.5,-.5,.8,-.8,.9,-.9c.2,-.3,.4,-.5,.5,-.7c.1,-.2,.1,-.4,.1,-.5c0,-.3,-.1,-.5,-.3,-.7c-.2,-.2,-.5,-.3,-.8,-.3c-.2,0,-.5,0,-.7,.1c-.3,.1,-.5,.2,-.8,.4v-.8c.3,-.1,.6,-.2,.8,-.2c.3,-.1,.5,-.1,.7,-.1c.6,0,1,.1,1.3,.4c.4,.3,.5,.7,.5,1.1c0,.2,0,.5,-.1,.7c-.1,.1,-.2,.4,-.4,.7c-.1,0,-.3,.2,-.6,.6c-.3,.3,-.8,.8,-1.4,1.4Z" class="g3_359"/>
<path d="M621.1,295.9H624v.6h-2.2v1.3c.1,0,.2,0,.3,-.1c.1,0,.2,0,.3,0c.6,0,1.1,.2,1.4,.5c.4,.3,.6,.8,.6,1.3c0,.6,-.2,1.1,-.6,1.4c-.3,.3,-.9,.5,-1.5,.5c-.2,0,-.5,0,-.7,-.1c-.2,0,-.5,-.1,-.7,-.2v-.7c.2,.1,.4,.2,.6,.3c.3,0,.5,.1,.8,.1c.4,0,.7,-.2,1,-.4c.2,-.2,.3,-.5,.3,-.9c0,-.3,-.1,-.6,-.3,-.9c-.3,-.2,-.6,-.3,-1,-.3c-.2,0,-.4,0,-.6,.1c-.2,0,-.4,.1,-.6,.2v-2.7Z" class="g3_359"/>
<path d="M649.7,290.5V94.1" class="g1_359"/>
<path d="M649.7,290.5v2.6" class="g2_359"/>
<path d="M642.4,300.7h1.2v-4.2l-1.3,.3v-.7l1.3,-.2h.7v4.8h1.2v.6h-3.1v-.6Z" class="g3_359"/>
<path d="M647,301.3h.8v-1H647Z" class="g3_359"/>
<path d="M649.4,295.9h2.8v.6H650v1.3c.1,0,.2,0,.3,-.1c.1,0,.2,0,.4,0c.6,0,1,.2,1.4,.5c.3,.3,.5,.8,.5,1.3c0,.6,-.2,1.1,-.5,1.4c-.4,.3,-.9,.5,-1.6,.5c-.2,0,-.4,0,-.6,-.1c-.3,0,-.5,-.1,-.8,-.2v-.7c.2,.1,.5,.2,.7,.3c.2,0,.5,.1,.7,.1c.4,0,.8,-.2,1,-.4c.3,-.2,.4,-.5,.4,-.9c0,-.3,-.1,-.6,-.4,-.9c-.2,-.2,-.6,-.3,-1,-.3c-.2,0,-.4,0,-.6,.1c-.1,0,-.3,.1,-.5,.2v-2.7Z" class="g3_359"/>
<path d="M655.6,295.8c.6,0,1.1,.2,1.4,.7c.3,.5,.5,1.2,.5,2.1c0,.9,-.2,1.6,-.5,2.1c-.3,.4,-.8,.7,-1.4,.7c-.6,0,-1.1,-.3,-1.4,-.7c-.3,-.5,-.5,-1.2,-.5,-2.1c0,-.9,.2,-1.6,.5,-2.1c.3,-.5,.8,-.7,1.4,-.7Zm0,.6c-.4,0,-.7,.1,-.8,.5c-.2,.4,-.3,.9,-.3,1.7c0,.7,.1,1.3,.3,1.6c.1,.4,.4,.6,.8,.6c.4,0,.7,-.2,.8,-.6c.2,-.3,.3,-.9,.3,-1.6c0,-.8,-.1,-1.3,-.3,-1.7c-.1,-.4,-.4,-.5,-.8,-.5Z" class="g3_359"/>
<path d="M682.7,290.5V94.1" class="g1_359"/>
<path d="M682.7,290.5v2.6" class="g2_359"/>
<path d="M675.4,300.7h1.2v-4.2l-1.3,.3v-.7l1.3,-.2h.7v4.8h1.2v.6h-3.1v-.6Z" class="g3_359"/>
<path d="M679.9,301.3h.8v-1h-.8Z" class="g3_359"/>
<path d="M682.1,295.9h3.5v.3l-2,5.1h-.7l1.8,-4.8h-2.6v-.6Z" class="g3_359"/>
<path d="M687,295.9h2.9v.6h-2.2v1.3c.1,0,.2,0,.3,-.1c.1,0,.2,0,.3,0c.6,0,1.1,.2,1.4,.5c.4,.3,.5,.8,.5,1.3c0,.6,-.1,1.1,-.5,1.4c-.4,.3,-.9,.5,-1.5,.5c-.2,0,-.5,0,-.7,-.1c-.2,0,-.5,-.1,-.7,-.2v-.7c.2,.1,.4,.2,.6,.3c.3,0,.5,.1,.8,.1c.4,0,.7,-.2,1,-.4c.2,-.2,.3,-.5,.3,-.9c0,-.3,-.1,-.6,-.3,-.9c-.3,-.2,-.6,-.3,-1,-.3c-.2,0,-.4,0,-.6,.1c-.2,0,-.4,.1,-.6,.2v-2.7Z" class="g3_359"/>
<path d="M715.6,290.5V94.1" class="g1_359"/>
<path d="M715.6,290.5v2.6" class="g2_359"/>
<path d="M708.8,300.7h2.6v.6h-3.5v-.6c.3,-.3,.7,-.7,1.2,-1.2c.5,-.5,.8,-.8,.9,-.9c.2,-.3,.4,-.5,.5,-.7c.1,-.2,.1,-.4,.1,-.5c0,-.3,-.1,-.5,-.3,-.7c-.2,-.2,-.5,-.3,-.8,-.3c-.2,0,-.5,0,-.7,.1c-.3,.1,-.5,.2,-.8,.4v-.8c.3,-.1,.6,-.2,.8,-.2c.3,-.1,.5,-.1,.7,-.1c.6,0,1,.1,1.3,.4c.4,.3,.5,.7,.5,1.1c0,.2,0,.5,-.1,.7c-.1,.1,-.2,.4,-.4,.7c-.1,0,-.3,.2,-.6,.6c-.3,.3,-.8,.8,-1.4,1.4Z" class="g3_359"/>
<path d="M712.9,301.3h.8v-1h-.8Z" class="g3_359"/>
<path d="M716.8,295.8c.6,0,1.1,.2,1.4,.7c.3,.5,.5,1.2,.5,2.1c0,.9,-.2,1.6,-.5,2.1c-.3,.4,-.8,.7,-1.4,.7c-.6,0,-1.1,-.3,-1.4,-.7c-.3,-.5,-.5,-1.2,-.5,-2.1c0,-.9,.2,-1.6,.5,-2.1c.3,-.5,.8,-.7,1.4,-.7Zm0,.6c-.4,0,-.7,.1,-.8,.5c-.2,.4,-.3,.9,-.3,1.7c0,.7,.1,1.3,.3,1.6c.1,.4,.4,.6,.8,.6c.4,0,.7,-.2,.8,-.6c.2,-.3,.3,-.9,.3,-1.6c0,-.8,-.1,-1.3,-.3,-1.7c-.1,-.4,-.4,-.5,-.8,-.5Z" class="g3_359"/>
<path d="M721.5,295.8c.6,0,1.1,.2,1.4,.7c.3,.5,.5,1.2,.5,2.1c0,.9,-.2,1.6,-.5,2.1c-.3,.4,-.8,.7,-1.4,.7c-.6,0,-1.1,-.3,-1.4,-.7c-.3,-.5,-.5,-1.2,-.5,-2.1c0,-.9,.2,-1.6,.5,-2.1c.3,-.5,.8,-.7,1.4,-.7Zm0,.6c-.4,0,-.7,.1,-.9,.5c-.1,.4,-.2,.9,-.2,1.7c0,.7,.1,1.3,.2,1.6c.2,.4,.5,.6,.9,.6c.4,0,.7,-.2,.8,-.6c.2,-.3,.3,-.9,.3,-1.6c0,-.8,-.1,-1.3,-.3,-1.7c-.1,-.4,-.4,-.5,-.8,-.5Z" class="g3_359"/>
<path d="M585.7,307.3l-1.5,2l1.6,2.1H585l-1.2,-1.6l-1.2,1.6h-.7l1.5,-2.2L582,307.3h.8l1,1.5l1.1,-1.5h.8Z" class="g3_359"/>
<path d="M452,281.6H715.6" class="g1_359"/>
<path d="M452,281.6h-2.5" class="g2_359"/>
<path d="M444.5,278.9c.6,0,1.1,.2,1.4,.7c.3,.5,.5,1.2,.5,2.1c0,.9,-.2,1.6,-.5,2.1c-.3,.4,-.8,.7,-1.4,.7c-.6,0,-1,-.3,-1.3,-.7c-.4,-.5,-.5,-1.2,-.5,-2.1c0,-.9,.1,-1.6,.5,-2.1c.3,-.5,.7,-.7,1.3,-.7Zm0,.6c-.3,0,-.6,.1,-.8,.5c-.2,.4,-.3,.9,-.3,1.7c0,.7,.1,1.3,.3,1.6c.2,.4,.5,.6,.8,.6c.4,0,.7,-.2,.9,-.6c.2,-.3,.3,-.9,.3,-1.6c0,-.8,-.1,-1.3,-.3,-1.7c-.2,-.4,-.5,-.5,-.9,-.5Z" class="g3_359"/>
<path d="M452,245.1H715.6" class="g1_359"/>
<path d="M452,245.1h-2.5" class="g2_359"/>
<path d="M438.9,247.3h2.5v.6H438v-.6c.3,-.3,.7,-.6,1.2,-1.1c.4,-.5,.7,-.8,.9,-1c.2,-.2,.4,-.4,.4,-.6c.1,-.2,.2,-.4,.2,-.6c0,-.2,-.1,-.5,-.3,-.7c-.2,-.1,-.5,-.2,-.8,-.2c-.2,0,-.5,0,-.7,.1c-.3,.1,-.5,.2,-.8,.3v-.7c.3,-.1,.5,-.2,.8,-.3c.2,0,.5,0,.7,0c.5,0,1,.1,1.3,.4c.4,.3,.5,.6,.5,1.1c0,.2,0,.4,-.1,.6c-.1,.2,-.2,.4,-.5,.7c0,.1,-.2,.3,-.5,.6c-.4,.4,-.8,.8,-1.4,1.4Z" class="g3_359"/>
<path d="M444.5,242.5c.6,0,1.1,.2,1.4,.7c.3,.4,.5,1.1,.5,2c0,1,-.2,1.6,-.5,2.1c-.3,.5,-.8,.7,-1.4,.7c-.6,0,-1,-.2,-1.3,-.7c-.4,-.5,-.5,-1.1,-.5,-2.1c0,-.9,.1,-1.6,.5,-2c.3,-.5,.7,-.7,1.3,-.7Zm0,.5c-.3,0,-.6,.2,-.8,.6c-.2,.4,-.3,.9,-.3,1.6c0,.8,.1,1.3,.3,1.7c.2,.4,.5,.6,.8,.6c.4,0,.7,-.2,.9,-.6c.2,-.4,.3,-.9,.3,-1.7c0,-.7,-.1,-1.2,-.3,-1.6c-.2,-.4,-.5,-.6,-.9,-.6Z" class="g3_359"/>
<path d="M452,208.7H715.6" class="g1_359"/>
<path d="M452,208.7h-2.5" class="g2_359"/>
<path d="M440.1,206.1h.9v3.5h.8v.6H441v1.3h-.7v-1.3h-2.4v-.7l2.2,-3.4Zm.2,.6l-1.9,2.9h1.9v-2.9Z" class="g3_359"/>
<path d="M444.5,206c.6,0,1.1,.3,1.4,.7c.3,.5,.5,1.2,.5,2.1c0,.9,-.2,1.6,-.5,2.1c-.3,.5,-.8,.7,-1.4,.7c-.6,0,-1,-.2,-1.3,-.7c-.4,-.5,-.5,-1.2,-.5,-2.1c0,-.9,.1,-1.6,.5,-2.1c.3,-.4,.7,-.7,1.3,-.7Zm0,.6c-.3,0,-.6,.2,-.8,.5c-.2,.4,-.3,1,-.3,1.7c0,.7,.1,1.3,.3,1.7c.2,.3,.5,.5,.8,.5c.4,0,.7,-.2,.9,-.5c.2,-.4,.3,-1,.3,-1.7c0,-.7,-.1,-1.3,-.3,-1.7c-.2,-.3,-.5,-.5,-.9,-.5Z" class="g3_359"/>
<path d="M452,172.3H715.6" class="g1_359"/>
<path d="M452,172.3h-2.5" class="g2_359"/>
<path d="M441.4,169.8v.7c-.2,-.1,-.4,-.2,-.6,-.2c-.2,-.1,-.4,-.1,-.5,-.1c-.5,0,-.9,.2,-1.1,.5c-.3,.3,-.4,.8,-.5,1.5c.2,-.3,.3,-.4,.6,-.5c.2,-.1,.4,-.2,.7,-.2c.5,0,.9,.2,1.3,.5c.3,.3,.4,.8,.4,1.3c0,.6,-.1,1,-.5,1.4c-.3,.3,-.7,.5,-1.3,.5c-.6,0,-1.1,-.3,-1.4,-.7c-.3,-.5,-.5,-1.2,-.5,-2.1c0,-.9,.2,-1.6,.6,-2.1c.4,-.5,1,-.7,1.6,-.7c.2,0,.4,0,.6,0c.2,.1,.4,.1,.6,.2Zm-1.5,2.3c-.3,0,-.6,.1,-.7,.3c-.2,.2,-.3,.5,-.3,.9c0,.4,.1,.7,.3,1c.1,.2,.4,.3,.7,.3c.4,0,.6,-.1,.8,-.3c.2,-.3,.3,-.6,.3,-1c0,-.4,-.1,-.7,-.3,-.9c-.2,-.2,-.4,-.3,-.8,-.3Z" class="g3_359"/>
<path d="M444.5,169.6c.6,0,1.1,.2,1.4,.7c.3,.5,.5,1.2,.5,2.1c0,.9,-.2,1.6,-.5,2.1c-.3,.4,-.8,.7,-1.4,.7c-.6,0,-1,-.3,-1.3,-.7c-.4,-.5,-.5,-1.2,-.5,-2.1c0,-.9,.1,-1.6,.5,-2.1c.3,-.5,.7,-.7,1.3,-.7Zm0,.6c-.3,0,-.6,.1,-.8,.5c-.2,.4,-.3,.9,-.3,1.7c0,.7,.1,1.3,.3,1.6c.2,.4,.5,.6,.8,.6c.4,0,.7,-.2,.9,-.6c.2,-.3,.3,-.9,.3,-1.6c0,-.8,-.1,-1.3,-.3,-1.7c-.2,-.4,-.5,-.5,-.9,-.5Z" class="g3_359"/>
<path d="M452,135.8H715.6" class="g1_359"/>
<path d="M452,135.8h-2.5" class="g2_359"/>
<path d="M438.8,134.6c0,.3,.1,.5,.3,.7c.2,.1,.4,.2,.7,.2c.3,0,.6,-.1,.8,-.2c.1,-.2,.2,-.4,.2,-.7c0,-.3,-.1,-.5,-.2,-.6c-.2,-.2,-.5,-.3,-.8,-.3c-.3,0,-.5,.1,-.7,.3c-.2,.1,-.3,.3,-.3,.6Zm.3,1.2c-.3,-.1,-.5,-.3,-.7,-.5c-.2,-.2,-.3,-.4,-.3,-.8c0,-.4,.2,-.7,.5,-1c.3,-.2,.7,-.4,1.2,-.4c.6,0,1,.2,1.3,.4c.3,.3,.5,.6,.5,1c0,.4,-.1,.6,-.3,.8c-.2,.2,-.4,.4,-.7,.5c.3,0,.6,.2,.8,.4c.2,.3,.3,.6,.3,.9c0,.5,-.2,.9,-.5,1.2c-.3,.3,-.8,.4,-1.4,.4c-.6,0,-1,-.1,-1.3,-.4c-.4,-.3,-.5,-.7,-.5,-1.2c0,-.3,.1,-.6,.3,-.9c.2,-.2,.5,-.4,.8,-.4Zm.7,.3c-.3,0,-.6,.1,-.8,.2c-.2,.2,-.3,.5,-.3,.8c0,.3,.1,.6,.3,.8c.2,.2,.5,.3,.8,.3c.4,0,.7,-.1,.9,-.3c.2,-.2,.3,-.5,.3,-.8c0,-.3,-.1,-.6,-.3,-.8c-.2,-.1,-.5,-.2,-.9,-.2Z" class="g3_359"/>
<path d="M444.5,133.1c.6,0,1.1,.3,1.4,.8c.3,.4,.5,1.1,.5,2c0,.9,-.2,1.6,-.5,2.1c-.3,.5,-.8,.7,-1.4,.7c-.6,0,-1,-.2,-1.3,-.7c-.4,-.5,-.5,-1.2,-.5,-2.1c0,-.9,.1,-1.6,.5,-2c.3,-.5,.7,-.8,1.3,-.8Zm0,.6c-.3,0,-.6,.2,-.8,.6c-.2,.3,-.3,.9,-.3,1.6c0,.8,.1,1.3,.3,1.7c.2,.4,.5,.6,.8,.6c.4,0,.7,-.2,.9,-.6c.2,-.4,.3,-.9,.3,-1.7c0,-.7,-.1,-1.3,-.3,-1.6c-.2,-.4,-.5,-.6,-.9,-.6Z" class="g3_359"/>
<path d="M452,99.4H715.6" class="g1_359"/>
<path d="M452,99.4h-2.5" class="g2_359"/>
<path d="M433.7,101.6h1.2V97.5l-1.3,.2v-.6l1.3,-.3h.7v4.8h1.2v.6h-3.1v-.6Z" class="g3_359"/>
<path d="M439.8,96.7c.6,0,1.1,.3,1.4,.7c.3,.5,.5,1.2,.5,2.1c0,.9,-.2,1.6,-.5,2.1c-.3,.5,-.8,.7,-1.4,.7c-.6,0,-1,-.2,-1.3,-.7c-.4,-.5,-.5,-1.2,-.5,-2.1c0,-.9,.1,-1.6,.5,-2.1c.3,-.4,.7,-.7,1.3,-.7Zm0,.6c-.3,0,-.6,.2,-.8,.5c-.2,.4,-.3,1,-.3,1.7c0,.7,.1,1.3,.3,1.7c.2,.3,.5,.5,.8,.5c.4,0,.7,-.2,.9,-.5c.2,-.4,.3,-1,.3,-1.7c0,-.7,-.1,-1.3,-.3,-1.7c-.2,-.3,-.5,-.5,-.9,-.5Z" class="g3_359"/>
<path d="M444.5,96.7c.6,0,1.1,.3,1.4,.7c.3,.5,.5,1.2,.5,2.1c0,.9,-.2,1.6,-.5,2.1c-.3,.5,-.8,.7,-1.4,.7c-.6,0,-1,-.2,-1.3,-.7c-.4,-.5,-.5,-1.2,-.5,-2.1c0,-.9,.1,-1.6,.5,-2.1c.3,-.4,.7,-.7,1.3,-.7Zm0,.6c-.3,0,-.6,.2,-.8,.5c-.2,.4,-.3,1,-.3,1.7c0,.7,.1,1.3,.3,1.7c.2,.3,.5,.5,.8,.5c.4,0,.7,-.2,.9,-.5c.2,-.4,.3,-1,.3,-1.7c0,-.7,-.1,-1.3,-.3,-1.7c-.2,-.3,-.5,-.5,-.9,-.5Z" class="g3_359"/>
<path d="M428.7,192.1c.5,.2,.8,.4,.9,.5c.2,.2,.2,.5,.2,.8v.5h-.5v-.4c0,-.2,-.1,-.3,-.1,-.4c-.1,-.1,-.3,-.2,-.7,-.4l-.3,-.1l-3.9,1.7v-.7l3.1,-1.3L424.3,191v-.7l4.4,1.8Z" class="g3_359"/>
<path d="M453.4,103l1.3,91.1l1.3,30.3l1.3,15.2c1.7,11.7,3.2,26.6,14.5,33.2l2.7,1.4l2.6,1.1l2.6,.9l2.7,.7l3.9,.8l4,.7l5.2,.7l5.3,.5l6.6,.5l7.9,.4l10.6,.4l13.1,.3l17.2,.3l22.4,.1H714.3" class="g4_359"/>
<path d="M452,290.5V94.1M715.6,290.5V94.1M452,290.5H715.6M452,94.1H715.6" class="g5_359"/>
<path d="M538.7,89.5l1.1,1.3h-1l-1,-1c-.1,0,-.2,0,-.2,0q-.1,0,-.1,0c-1,0,-1.7,-.3,-2.2,-.9c-.6,-.6,-.8,-1.4,-.8,-2.5c0,-1,.2,-1.8,.8,-2.4c.5,-.6,1.2,-.9,2.2,-.9c.9,0,1.6,.3,2.1,.9c.6,.6,.8,1.4,.8,2.4c0,.8,-.1,1.4,-.4,2c-.3,.5,-.8,.9,-1.3,1.1Zm-1.2,-5.7c-.7,0,-1.2,.2,-1.6,.7c-.3,.5,-.5,1.1,-.5,1.9c0,.8,.2,1.5,.5,2c.4,.4,.9,.7,1.6,.7c.6,0,1.1,-.3,1.5,-.7c.3,-.5,.5,-1.2,.5,-2c0,-.8,-.2,-1.4,-.5,-1.9c-.4,-.5,-.9,-.7,-1.5,-.7Z" class="g3_359"/>
<path d="M543.7,84.7v0Zm-2,3V84.8h.8v2.9c0,.5,.1,.8,.3,1c.1,.3,.4,.4,.8,.4c.4,0,.7,-.1,1,-.4c.2,-.3,.3,-.7,.3,-1.1V84.8h.8v4.9h-.8v-.8c-.1,.3,-.4,.5,-.6,.7c-.3,.1,-.6,.2,-.9,.2c-.6,0,-1,-.2,-1.3,-.5c-.3,-.4,-.4,-.9,-.4,-1.6Z" class="g3_359"/>
<path d="M551.2,86.9v2.8h-.8v-.8c-.2,.3,-.4,.5,-.7,.7c-.3,.1,-.6,.2,-1,.2c-.5,0,-.9,-.2,-1.2,-.4c-.3,-.3,-.4,-.7,-.4,-1.2c0,-.5,.2,-.9,.5,-1.2c.4,-.3,.9,-.4,1.7,-.4h1.1v-.1c0,-.3,-.1,-.6,-.4,-.8c-.2,-.2,-.6,-.3,-1,-.3c-.3,0,-.5,0,-.8,.1c-.3,0,-.5,.1,-.8,.3V85c.3,-.1,.6,-.2,.9,-.2c.3,-.1,.5,-.1,.8,-.1c.7,0,1.2,.2,1.6,.5c.3,.4,.5,1,.5,1.7Zm-1.6,.3c-.7,0,-1.1,.1,-1.4,.2c-.2,.2,-.3,.4,-.3,.8c0,.3,.1,.5,.3,.7c.1,.1,.4,.2,.7,.2c.5,0,.8,-.1,1.1,-.5c.2,-.3,.4,-.7,.4,-1.2v-.2h-.8Z" class="g3_359"/>
<path d="M555.9,85v.7c-.2,-.1,-.5,-.2,-.7,-.3c-.2,0,-.5,0,-.8,0c-.3,0,-.6,0,-.8,.1c-.2,.2,-.3,.3,-.3,.6c0,.2,0,.3,.2,.4c.1,.1,.4,.2,.8,.3l.3,.1c.6,.1,1,.3,1.2,.5c.2,.2,.4,.5,.4,.9c0,.5,-.2,.8,-.6,1.1c-.3,.2,-.8,.4,-1.4,.4c-.3,0,-.6,0,-.9,-.1c-.2,0,-.5,-.1,-.8,-.2v-.8c.3,.1,.5,.2,.8,.3c.3,.1,.6,.1,.9,.1c.3,0,.6,0,.8,-.2c.2,-.1,.3,-.3,.3,-.5c0,-.2,0,-.4,-.2,-.5c-.1,-.1,-.4,-.2,-.9,-.4h-.3c-.5,-.1,-.9,-.3,-1.1,-.5c-.2,-.2,-.3,-.5,-.3,-.9c0,-.4,.2,-.8,.5,-1c.3,-.3,.8,-.4,1.4,-.4c.2,0,.5,0,.8,.1c.2,0,.5,.1,.7,.2Z" class="g3_359"/>
<path d="M557.4,82.9h.8v1h-.8Zm0,1.9h.8v4.9h-.8Z" class="g3_359"/>
<path d="M559.5,87.6h2.3v-.7h-2.3Z" class="g3_359"/>
<path d="M563.1,82.9h.8v1h-.8Zm0,1.9h.8v4.9h-.8Z" class="g3_359"/>
<path d="M569.6,86.7v3h-.8V86.8c0,-.5,-.1,-.8,-.3,-1.1c-.2,-.2,-.4,-.3,-.8,-.3c-.4,0,-.8,.1,-1,.4c-.3,.3,-.4,.6,-.4,1.1v2.8h-.8V84.8h.8v.8c.2,-.3,.4,-.5,.7,-.7c.2,-.1,.5,-.2,.9,-.2c.5,0,1,.2,1.2,.5c.3,.4,.5,.9,.5,1.5Z" class="g3_359"/>
<path d="M570.6,84.8h.8l1.5,4.1l1.6,-4.1h.8l-1.8,4.9h-1.1l-1.8,-4.9Z" class="g3_359"/>
<path d="M579.7,86.8c0,-.4,-.1,-.8,-.3,-1c-.3,-.3,-.6,-.4,-1,-.4c-.4,0,-.8,.1,-1,.3c-.3,.3,-.5,.7,-.5,1.1h2.8Zm.8,.2v.4h-3.6c0,.6,.2,1,.5,1.3c.3,.3,.7,.4,1.2,.4c.3,0,.6,0,.9,-.1c.3,-.1,.6,-.2,.9,-.3v.7c-.3,.1,-.6,.2,-.9,.3c-.3,.1,-.6,.1,-.9,.1c-.8,0,-1.4,-.2,-1.9,-.7c-.4,-.4,-.6,-1,-.6,-1.8c0,-.8,.2,-1.4,.6,-1.9c.4,-.5,1,-.7,1.7,-.7c.7,0,1.2,.2,1.6,.6c.4,.4,.5,1,.5,1.7Z" class="g3_359"/>
<path d="M584.7,85.6c-.1,-.1,-.2,-.1,-.3,-.2c-.1,0,-.3,0,-.4,0c-.4,0,-.8,.2,-1,.4c-.3,.3,-.4,.8,-.4,1.3v2.6h-.8V84.8h.8v.8c.2,-.3,.4,-.5,.7,-.7c.2,-.1,.6,-.2,.9,-.2c.1,0,.2,0,.2,0c.1,0,.2,0,.2,0l.1,.9Z" class="g3_359"/>
<path d="M588.6,85v.7c-.3,-.1,-.5,-.2,-.7,-.3c-.3,0,-.5,0,-.8,0c-.4,0,-.7,0,-.9,.1c-.2,.2,-.3,.3,-.3,.6c0,.2,.1,.3,.2,.4c.2,.1,.5,.2,.9,.3l.3,.1c.5,.1,.9,.3,1.2,.5c.2,.2,.3,.5,.3,.9c0,.5,-.1,.8,-.5,1.1c-.4,.2,-.8,.4,-1.5,.4c-.2,0,-.5,0,-.8,-.1c-.3,0,-.6,-.1,-.9,-.2v-.8c.3,.1,.6,.2,.9,.3c.3,.1,.6,.1,.8,.1c.4,0,.7,0,.9,-.2c.2,-.1,.3,-.3,.3,-.5c0,-.2,-.1,-.4,-.2,-.5c-.1,-.1,-.5,-.2,-1,-.4h-.2c-.5,-.1,-.9,-.3,-1.1,-.5c-.2,-.2,-.3,-.5,-.3,-.9c0,-.4,.1,-.8,.5,-1c.3,-.3,.7,-.4,1.3,-.4c.3,0,.6,0,.9,.1c.2,0,.5,.1,.7,.2Z" class="g3_359"/>
<path d="M593.5,86.8c-.1,-.4,-.2,-.8,-.4,-1c-.3,-.3,-.6,-.4,-1,-.4c-.4,0,-.8,.1,-1,.3c-.3,.3,-.4,.7,-.5,1.1h2.9Zm.7,.2v.4h-3.6c0,.6,.2,1,.5,1.3c.3,.3,.7,.4,1.2,.4c.3,0,.6,0,.9,-.1c.3,-.1,.6,-.2,.9,-.3v.7c-.3,.1,-.6,.2,-.9,.3c-.3,.1,-.6,.1,-.9,.1c-.8,0,-1.4,-.2,-1.9,-.7c-.4,-.4,-.6,-1,-.6,-1.8c0,-.8,.2,-1.4,.6,-1.9c.4,-.5,1,-.7,1.7,-.7c.7,0,1.2,.2,1.6,.6c.4,.4,.5,1,.5,1.7Z" class="g3_359"/>
<path d="M600.8,82.9v.7h-.7c-.3,0,-.5,0,-.6,.2c-.1,.1,-.2,.3,-.2,.6v.4h1.3v.6h-1.3v4.3h-.8V85.4h-.8v-.6h.8v-.3c0,-.6,.1,-1,.4,-1.2c.2,-.2,.4,-.3,.8,-.4h1.1Z" class="g3_359"/>
<path d="M603.4,84.7v0Zm-2,3V84.8h.8v2.9c0,.5,.1,.8,.3,1c.1,.3,.4,.4,.8,.4c.4,0,.7,-.1,1,-.4c.2,-.3,.4,-.7,.4,-1.1V84.8h.8v4.9h-.8v-.8c-.2,.3,-.5,.5,-.7,.7c-.3,.1,-.6,.2,-.9,.2c-.6,0,-1,-.2,-1.3,-.5c-.3,-.4,-.4,-.9,-.4,-1.6Z" class="g3_359"/>
<path d="M611.1,86.7v3h-.8V86.8c0,-.5,-.1,-.8,-.2,-1.1c-.2,-.2,-.5,-.3,-.8,-.3c-.5,0,-.8,.1,-1.1,.4c-.2,.3,-.3,.6,-.3,1.1v2.8h-.8V84.8h.8v.8c.2,-.3,.4,-.5,.6,-.7c.3,-.1,.6,-.2,.9,-.2c.6,0,1,.2,1.3,.5c.3,.4,.4,.9,.4,1.5Z" class="g3_359"/>
<path d="M616.2,85v.7c-.2,-.1,-.5,-.2,-.7,-.2c-.2,-.1,-.4,-.1,-.7,-.1c-.5,0,-.9,.1,-1.2,.5c-.3,.3,-.4,.7,-.4,1.3c0,.6,.1,1.1,.4,1.4c.3,.3,.7,.5,1.2,.5c.3,0,.5,0,.7,-.1c.2,0,.5,-.1,.7,-.3v.8c-.2,.1,-.5,.1,-.7,.2c-.2,.1,-.5,.1,-.8,.1c-.7,0,-1.3,-.2,-1.7,-.7c-.4,-.5,-.6,-1.1,-.6,-1.9c0,-.8,.2,-1.4,.6,-1.8c.4,-.5,1,-.7,1.8,-.7c.2,0,.5,0,.7,.1c.2,0,.5,.1,.7,.2Z" class="g3_359"/>
<path d="M618.4,83.4v1.4H620v.6h-1.6v2.7c0,.4,0,.6,.1,.7c.1,.1,.4,.2,.7,.2h.8v.7h-.8c-.6,0,-1.1,-.2,-1.3,-.4c-.2,-.2,-.3,-.6,-.3,-1.2V85.4H617v-.6h.6V83.4h.8Z" class="g3_359"/>
<path d="M621.1,82.9h.7v1h-.7Zm0,1.9h.7v4.9h-.7Z" class="g3_359"/>
<path d="M625.4,84.7c.7,0,1.2,.2,1.6,.7c.4,.4,.6,1,.6,1.8c0,.8,-.2,1.5,-.6,1.9c-.4,.5,-.9,.7,-1.6,.7c-.7,0,-1.2,-.2,-1.6,-.7c-.4,-.4,-.6,-1.1,-.6,-1.9c0,-.8,.2,-1.4,.6,-1.8c.4,-.5,.9,-.7,1.6,-.7Zm0,.7c-.4,0,-.8,.1,-1,.5c-.3,.3,-.4,.8,-.4,1.3c0,.6,.1,1.1,.4,1.4c.2,.3,.6,.5,1,.5c.4,0,.7,-.2,1,-.5c.2,-.3,.4,-.8,.4,-1.4c0,-.5,-.2,-1,-.4,-1.3c-.3,-.4,-.6,-.5,-1,-.5Z" class="g3_359"/>
<path d="M633,86.7v3h-.8V86.8c0,-.5,-.1,-.8,-.3,-1.1c-.2,-.2,-.5,-.3,-.8,-.3c-.4,0,-.8,.1,-1,.4c-.3,.3,-.4,.6,-.4,1.1v2.8h-.8V84.8h.8v.8c.2,-.3,.4,-.5,.7,-.7c.2,-.1,.5,-.2,.9,-.2c.5,0,.9,.2,1.2,.5c.3,.4,.5,.9,.5,1.5Z" class="g3_359"/>
<path d="M183.9,757.2H486.8V531.5H183.9Z" class="g0_359"/>
<path d="M183.9,757.2V531.5" class="g6_359"/>
<path d="M183.9,757.2v3" class="g7_359"/>
<path d="M183.9,763.3c.7,0,1.2,.3,1.6,.8c.4,.6,.5,1.4,.5,2.4c0,1.1,-.1,1.9,-.5,2.4c-.4,.6,-.9,.8,-1.6,.8c-.7,0,-1.2,-.2,-1.6,-.8c-.4,-.5,-.5,-1.3,-.5,-2.4c0,-1,.1,-1.8,.5,-2.4c.4,-.5,.9,-.8,1.6,-.8Zm0,.7c-.4,0,-.8,.2,-1,.6c-.2,.4,-.3,1.1,-.3,1.9c0,.9,.1,1.5,.3,1.9c.2,.5,.6,.7,1,.7c.4,0,.8,-.2,1,-.7c.2,-.4,.3,-1,.3,-1.9c0,-.8,-.1,-1.5,-.3,-1.9c-.2,-.4,-.6,-.6,-1,-.6Z" class="g3_359"/>
<path d="M231.2,757.2V531.5" class="g6_359"/>
<path d="M231.2,757.2v3" class="g7_359"/>
<path d="M229.4,763.4h3.3v.7h-2.5v1.6c.1,-.1,.3,-.1,.4,-.1c.1,-.1,.2,-.1,.3,-.1c.7,0,1.3,.2,1.7,.6c.4,.4,.6,.9,.6,1.5c0,.7,-.2,1.2,-.6,1.6c-.5,.4,-1,.5,-1.8,.5c-.2,0,-.5,0,-.8,0c-.3,-.1,-.5,-.1,-.8,-.2v-.9c.2,.2,.5,.3,.8,.3c.2,.1,.5,.1,.8,.1c.5,0,.8,-.1,1.1,-.3c.3,-.3,.4,-.6,.4,-1.1c0,-.4,-.1,-.7,-.4,-1c-.3,-.2,-.6,-.4,-1.1,-.4c-.2,0,-.5,.1,-.7,.1c-.2,.1,-.4,.1,-.7,.2v-3.1Z" class="g3_359"/>
<path d="M278.6,757.2V531.5" class="g6_359"/>
<path d="M278.6,757.2v3" class="g7_359"/>
<path d="M274.2,768.9h1.4v-4.7l-1.5,.3v-.8l1.5,-.3h.8v5.5h1.4v.7h-3.6v-.7Z" class="g3_359"/>
<path d="M281.2,763.3c.7,0,1.3,.3,1.6,.8c.4,.6,.6,1.4,.6,2.4c0,1.1,-.2,1.9,-.6,2.4c-.3,.6,-.9,.8,-1.6,.8c-.6,0,-1.2,-.2,-1.5,-.8c-.4,-.5,-.6,-1.3,-.6,-2.4c0,-1,.2,-1.8,.6,-2.4c.3,-.5,.9,-.8,1.5,-.8Zm0,.7c-.4,0,-.7,.2,-.9,.6c-.2,.4,-.3,1.1,-.3,1.9c0,.9,.1,1.5,.3,1.9c.2,.5,.5,.7,.9,.7c.5,0,.8,-.2,1,-.7c.2,-.4,.3,-1,.3,-1.9c0,-.8,-.1,-1.5,-.3,-1.9c-.2,-.4,-.5,-.6,-1,-.6Z" class="g3_359"/>
<path d="M325.9,757.2V531.5" class="g6_359"/>
<path d="M325.9,757.2v3" class="g7_359"/>
<path d="M321.5,768.9h1.4v-4.7l-1.5,.3v-.8l1.5,-.3h.8v5.5h1.4v.7h-3.6v-.7Z" class="g3_359"/>
<path d="M326.8,763.4h3.3v.7h-2.5v1.6c.1,-.1,.2,-.1,.3,-.1c.1,-.1,.3,-.1,.4,-.1c.7,0,1.2,.2,1.6,.6c.4,.4,.6,.9,.6,1.5c0,.7,-.2,1.2,-.6,1.6c-.4,.4,-1,.5,-1.7,.5c-.3,0,-.6,0,-.8,0c-.3,-.1,-.6,-.1,-.9,-.2v-.9c.3,.2,.5,.3,.8,.3c.3,.1,.5,.1,.8,.1c.5,0,.9,-.1,1.2,-.3c.3,-.3,.4,-.6,.4,-1.1c0,-.4,-.1,-.7,-.4,-1c-.3,-.2,-.7,-.4,-1.2,-.4c-.2,0,-.4,.1,-.6,.1c-.3,.1,-.5,.1,-.7,.2v-3.1Z" class="g3_359"/>
<path d="M373.2,757.2V531.5" class="g6_359"/>
<path d="M373.2,757.2v3" class="g7_359"/>
<path d="M369.4,768.9h3v.7h-4v-.7c.3,-.3,.8,-.8,1.3,-1.3c.6,-.6,.9,-.9,1.1,-1.1c.2,-.3,.4,-.5,.5,-.7c.1,-.3,.2,-.5,.2,-.7c0,-.3,-.1,-.6,-.4,-.8c-.2,-.2,-.5,-.3,-.9,-.3c-.2,0,-.5,.1,-.8,.2c-.3,.1,-.6,.2,-.9,.4v-.9c.3,-.1,.6,-.2,.9,-.3c.3,0,.6,-.1,.8,-.1c.7,0,1.2,.2,1.5,.5c.4,.3,.6,.8,.6,1.3c0,.2,0,.5,-.1,.7c-.1,.2,-.3,.5,-.5,.8c-.1,.1,-.3,.3,-.7,.7c-.4,.4,-.9,.9,-1.6,1.6Z" class="g3_359"/>
<path d="M375.9,763.3c.7,0,1.2,.3,1.6,.8c.4,.6,.5,1.4,.5,2.4c0,1.1,-.1,1.9,-.5,2.4c-.4,.6,-.9,.8,-1.6,.8c-.7,0,-1.2,-.2,-1.6,-.8c-.4,-.5,-.5,-1.3,-.5,-2.4c0,-1,.1,-1.8,.5,-2.4c.4,-.5,.9,-.8,1.6,-.8Zm0,.7c-.4,0,-.8,.2,-1,.6c-.2,.4,-.3,1.1,-.3,1.9c0,.9,.1,1.5,.3,1.9c.2,.5,.6,.7,1,.7c.4,0,.8,-.2,1,-.7c.2,-.4,.3,-1,.3,-1.9c0,-.8,-.1,-1.5,-.3,-1.9c-.2,-.4,-.6,-.6,-1,-.6Z" class="g3_359"/>
<path d="M420.5,757.2V531.5" class="g6_359"/>
<path d="M420.5,757.2v3" class="g7_359"/>
<path d="M416.8,768.9h2.9v.7h-3.9v-.7c.3,-.3,.7,-.8,1.2,-1.3c.6,-.6,.9,-.9,1.1,-1.1c.2,-.3,.4,-.5,.5,-.7c.2,-.3,.2,-.5,.2,-.7c0,-.3,-.1,-.6,-.3,-.8c-.3,-.2,-.6,-.3,-.9,-.3c-.3,0,-.6,.1,-.9,.2c-.3,.1,-.6,.2,-.9,.4v-.9c.3,-.1,.6,-.2,.9,-.3c.3,0,.6,-.1,.8,-.1c.7,0,1.2,.2,1.6,.5c.4,.3,.5,.8,.5,1.3c0,.2,0,.5,-.1,.7c-.1,.2,-.3,.5,-.5,.8c-.1,.1,-.3,.3,-.7,.7c-.3,.4,-.9,.9,-1.5,1.6Z" class="g3_359"/>
<path d="M421.4,763.4h3.3v.7h-2.5v1.6c.1,-.1,.2,-.1,.4,-.1c.1,-.1,.2,-.1,.3,-.1c.7,0,1.3,.2,1.7,.6c.4,.4,.6,.9,.6,1.5c0,.7,-.2,1.2,-.6,1.6c-.5,.4,-1,.5,-1.8,.5c-.3,0,-.5,0,-.8,0c-.3,-.1,-.5,-.1,-.8,-.2v-.9c.2,.2,.5,.3,.7,.3c.3,.1,.6,.1,.9,.1c.5,0,.8,-.1,1.1,-.3c.3,-.3,.4,-.6,.4,-1.1c0,-.4,-.1,-.7,-.4,-1c-.3,-.2,-.6,-.4,-1.1,-.4c-.2,0,-.5,.1,-.7,.1c-.2,.1,-.4,.1,-.7,.2v-3.1Z" class="g3_359"/>
<path d="M467.9,757.2V531.5" class="g6_359"/>
<path d="M467.9,757.2v3" class="g7_359"/>
<path d="M465.9,766.3c.4,.1,.7,.2,.9,.5c.3,.3,.4,.6,.4,1c0,.6,-.2,1.1,-.7,1.4c-.4,.4,-1,.5,-1.7,.5c-.3,0,-.6,0,-.8,0c-.3,-.1,-.6,-.2,-.9,-.3v-.8c.2,.2,.5,.3,.8,.3c.2,.1,.5,.1,.8,.1c.6,0,1,-.1,1.2,-.3c.3,-.2,.4,-.5,.4,-.9c0,-.3,-.1,-.6,-.3,-.8c-.3,-.2,-.7,-.3,-1.1,-.3h-.7V766h.7c.4,0,.7,-.1,1,-.3c.2,-.1,.3,-.4,.3,-.7c0,-.3,-.1,-.5,-.3,-.7c-.3,-.2,-.6,-.3,-1,-.3c-.2,0,-.5,.1,-.7,.1c-.3,.1,-.6,.1,-.9,.2v-.7c.3,-.1,.6,-.2,.9,-.2c.3,-.1,.5,-.1,.8,-.1c.6,0,1.1,.2,1.5,.5c.3,.2,.5,.6,.5,1.1c0,.4,-.1,.7,-.3,.9c-.2,.2,-.4,.4,-.8,.5Z" class="g3_359"/>
<path d="M470.5,763.3c.7,0,1.3,.3,1.6,.8c.4,.6,.6,1.4,.6,2.4c0,1.1,-.2,1.9,-.6,2.4c-.3,.6,-.9,.8,-1.6,.8c-.6,0,-1.2,-.2,-1.5,-.8c-.4,-.5,-.6,-1.3,-.6,-2.4c0,-1,.2,-1.8,.6,-2.4c.3,-.5,.9,-.8,1.5,-.8Zm0,.7c-.4,0,-.7,.2,-.9,.6c-.2,.4,-.4,1.1,-.4,1.9c0,.9,.2,1.5,.4,1.9c.2,.5,.5,.7,.9,.7c.5,0,.8,-.2,1,-.7c.2,-.4,.3,-1,.3,-1.9c0,-.8,-.1,-1.5,-.3,-1.9c-.2,-.4,-.5,-.6,-1,-.6Z" class="g3_359"/>
<path d="M337.5,776.6l-1.7,2.2l1.8,2.4h-.9l-1.4,-1.8l-1.3,1.8h-.9l1.8,-2.4l-1.7,-2.2h.9l1.3,1.6l1.2,-1.6h.9Z" class="g3_359"/>
<path d="M183.9,757.2H486.8" class="g6_359"/>
<path d="M183.9,757.2h-3" class="g7_359"/>
<path d="M175.3,754.2c.7,0,1.2,.2,1.6,.8c.3,.5,.5,1.3,.5,2.4c0,1,-.2,1.8,-.5,2.4c-.4,.5,-.9,.8,-1.6,.8c-.7,0,-1.3,-.3,-1.6,-.8c-.4,-.6,-.6,-1.4,-.6,-2.4c0,-1.1,.2,-1.9,.6,-2.4c.3,-.6,.9,-.8,1.6,-.8Zm0,.6c-.5,0,-.8,.2,-1,.7c-.2,.4,-.3,1,-.3,1.9c0,.8,.1,1.5,.3,1.9c.2,.4,.5,.6,1,.6c.4,0,.7,-.2,.9,-.6c.3,-.4,.4,-1.1,.4,-1.9c0,-.9,-.1,-1.5,-.4,-1.9c-.2,-.5,-.5,-.7,-.9,-.7Z" class="g3_359"/>
<path d="M183.9,712.1H486.8" class="g6_359"/>
<path d="M183.9,712.1h-3" class="g7_359"/>
<path d="M173.5,709.1h3.3v.7h-2.5v1.6c.1,-.1,.2,-.1,.3,-.1c.1,-.1,.3,-.1,.4,-.1c.7,0,1.2,.2,1.6,.6c.4,.4,.6,.9,.6,1.5c0,.7,-.2,1.2,-.6,1.6c-.4,.4,-1,.5,-1.7,.5c-.3,0,-.6,0,-.8,0c-.3,-.1,-.6,-.1,-.9,-.2v-.9c.3,.2,.5,.3,.8,.3c.3,.1,.5,.1,.8,.1c.5,0,.9,-.1,1.2,-.3c.2,-.3,.4,-.6,.4,-1.1c0,-.4,-.2,-.7,-.4,-1c-.3,-.2,-.7,-.4,-1.2,-.4c-.2,0,-.4,.1,-.6,.1c-.3,.1,-.5,.1,-.7,.2v-3.1Z" class="g3_359"/>
<path d="M183.9,667H486.8" class="g6_359"/>
<path d="M183.9,667h-3" class="g7_359"/>
<path d="M168.2,669.5h1.4v-4.7l-1.5,.3v-.8l1.5,-.3h.8v5.5h1.4v.7h-3.6v-.7Z" class="g3_359"/>
<path d="M175.3,663.9c.7,0,1.2,.3,1.6,.8c.3,.6,.5,1.4,.5,2.4c0,1,-.2,1.8,-.5,2.4c-.4,.5,-.9,.8,-1.6,.8c-.7,0,-1.3,-.3,-1.6,-.8c-.4,-.6,-.6,-1.4,-.6,-2.4c0,-1,.2,-1.8,.6,-2.4c.3,-.5,.9,-.8,1.6,-.8Zm0,.6c-.5,0,-.8,.3,-1,.7c-.2,.4,-.3,1,-.3,1.9c0,.8,.1,1.5,.3,1.9c.2,.4,.5,.6,1,.6c.4,0,.7,-.2,.9,-.6c.3,-.4,.4,-1.1,.4,-1.9c0,-.9,-.1,-1.5,-.4,-1.9c-.2,-.4,-.5,-.7,-.9,-.7Z" class="g3_359"/>
<path d="M183.9,621.8H486.8" class="g6_359"/>
<path d="M183.9,621.8h-3" class="g7_359"/>
<path d="M168.2,624.3h1.4v-4.7l-1.5,.3v-.7l1.5,-.3h.8v5.4h1.4v.7h-3.6v-.7Z" class="g3_359"/>
<path d="M173.5,618.9h3.3v.7h-2.5v1.5c.1,-.1,.2,-.1,.3,-.1c.1,0,.3,0,.4,0c.7,0,1.2,.1,1.6,.5c.4,.4,.6,.9,.6,1.6c0,.6,-.2,1.1,-.6,1.5c-.4,.4,-1,.6,-1.7,.6c-.3,0,-.6,-.1,-.8,-.1c-.3,0,-.6,-.1,-.9,-.2v-.8c.3,.1,.5,.2,.8,.3c.3,0,.5,.1,.8,.1c.5,0,.9,-.2,1.2,-.4c.2,-.3,.4,-.6,.4,-1c0,-.5,-.2,-.8,-.4,-1.1c-.3,-.2,-.7,-.3,-1.2,-.3c-.2,0,-.4,0,-.6,0c-.3,.1,-.5,.2,-.7,.3v-3.1Z" class="g3_359"/>
<path d="M183.9,576.7H486.8" class="g6_359"/>
<path d="M183.9,576.7h-3" class="g7_359"/>
<path d="M168.8,579.2h2.9v.7h-3.9v-.7c.3,-.3,.7,-.8,1.3,-1.3c.5,-.6,.9,-.9,1,-1.1c.3,-.3,.5,-.5,.6,-.8c.1,-.2,.1,-.4,.1,-.6c0,-.3,-.1,-.6,-.3,-.8c-.2,-.2,-.5,-.3,-.9,-.3c-.3,0,-.5,.1,-.8,.1c-.3,.1,-.6,.3,-1,.5V574c.4,-.1,.7,-.2,1,-.3c.3,-.1,.5,-.1,.8,-.1c.6,0,1.1,.2,1.5,.5c.4,.3,.6,.7,.6,1.3c0,.2,-.1,.5,-.2,.7c-.1,.2,-.2,.5,-.5,.8c0,.1,-.3,.3,-.6,.7c-.4,.4,-.9,.9,-1.6,1.6Z" class="g3_359"/>
<path d="M175.3,573.6c.7,0,1.2,.3,1.6,.8c.3,.6,.5,1.4,.5,2.4c0,1.1,-.2,1.9,-.5,2.4c-.4,.5,-.9,.8,-1.6,.8c-.7,0,-1.3,-.3,-1.6,-.8c-.4,-.5,-.6,-1.3,-.6,-2.4c0,-1,.2,-1.8,.6,-2.4c.3,-.5,.9,-.8,1.6,-.8Zm0,.7c-.5,0,-.8,.2,-1,.6c-.2,.4,-.3,1.1,-.3,1.9c0,.9,.1,1.5,.3,1.9c.2,.4,.5,.7,1,.7c.4,0,.7,-.3,.9,-.7c.3,-.4,.4,-1,.4,-1.9c0,-.8,-.1,-1.5,-.4,-1.9c-.2,-.4,-.5,-.6,-.9,-.6Z" class="g3_359"/>
<path d="M183.9,531.5H486.8" class="g6_359"/>
<path d="M183.9,531.5h-3" class="g7_359"/>
<path d="M168.8,534.1h2.9v.7h-3.9v-.7c.3,-.4,.7,-.8,1.3,-1.4c.5,-.5,.9,-.9,1,-1c.3,-.3,.5,-.6,.6,-.8c.1,-.2,.1,-.4,.1,-.6c0,-.3,-.1,-.6,-.3,-.8c-.2,-.2,-.5,-.3,-.9,-.3c-.3,0,-.5,0,-.8,.1c-.3,.1,-.6,.2,-1,.4v-.8c.4,-.2,.7,-.3,1,-.3c.3,-.1,.5,-.1,.8,-.1c.6,0,1.1,.1,1.5,.5c.4,.3,.6,.7,.6,1.2c0,.3,-.1,.5,-.2,.8c-.1,.2,-.2,.5,-.5,.8c0,0,-.3,.3,-.6,.7c-.4,.3,-.9,.9,-1.6,1.6Z" class="g3_359"/>
<path d="M173.5,528.6h3.3v.7h-2.5v1.5c.1,0,.2,-.1,.3,-.1c.1,0,.3,0,.4,0c.7,0,1.2,.2,1.6,.5c.4,.4,.6,.9,.6,1.6c0,.6,-.2,1.2,-.6,1.5c-.4,.4,-1,.6,-1.7,.6c-.3,0,-.6,0,-.8,-.1c-.3,0,-.6,-.1,-.9,-.2v-.8c.3,.1,.5,.2,.8,.3c.3,0,.5,.1,.8,.1c.5,0,.9,-.1,1.2,-.4c.2,-.2,.4,-.6,.4,-1c0,-.5,-.2,-.8,-.4,-1c-.3,-.3,-.7,-.4,-1.2,-.4c-.2,0,-.4,0,-.6,.1c-.3,0,-.5,.1,-.7,.2v-3.1Z" class="g3_359"/>
<path d="M162.4,644.2c.6,.2,1,.4,1.1,.6c.2,.2,.3,.5,.3,.8v.6h-.7v-.4c0,-.2,0,-.4,-.1,-.5c-.1,-.1,-.3,-.3,-.7,-.4l-.4,-.1l-4.5,1.8v-.8l3.6,-1.4l-3.6,-1.5v-.8l5,2.1Z" class="g3_359"/>
<path d="M192.7,531.5l.6,15.5l.9,20.8l1.1,19c2,31,4.2,63.6,11.4,94l1.5,5.7l1.6,5.4c3.8,11.8,9,23.2,17.4,32.4l2.3,2.4L232,729l2.6,2.2l2.8,2.1c10.6,7.5,23.4,11.8,35.9,14.7l5.9,1.2l6.5,1.2c33.9,5.5,69.6,6,103.9,6.7l20.5,.1h76.6" class="g8_359"/>
<path d="M183.9,757.2V531.5M486.8,757.2V531.5M183.9,757.2H486.8M183.9,531.5H486.8" class="g9_359"/>
<path d="M273.9,526.3l1.3,1.5H274l-1.1,-1.2c-.1,0,-.2,0,-.2,0c-.1,0,-.2,0,-.2,0c-1.1,0,-1.9,-.4,-2.5,-1c-.6,-.7,-1,-1.7,-1,-2.8c0,-1.2,.4,-2.2,1,-2.9c.6,-.7,1.4,-1,2.5,-1c1,0,1.9,.3,2.5,1c.6,.7,.9,1.7,.9,2.9c0,.8,-.2,1.5,-.5,2.2c-.3,.6,-.9,1,-1.5,1.3Zm-1.4,-6.6c-.7,0,-1.3,.3,-1.8,.8c-.4,.6,-.6,1.3,-.6,2.3c0,.9,.2,1.6,.6,2.2c.5,.5,1.1,.8,1.8,.8c.7,0,1.3,-.3,1.7,-.8c.4,-.6,.7,-1.3,.7,-2.2c0,-1,-.3,-1.7,-.7,-2.3c-.4,-.5,-1,-.8,-1.7,-.8Z" class="g3_359"/>
<path d="M279.7,520.8v0Zm-2.3,3.5v-3.4h.9v3.3c0,.5,.1,.9,.3,1.2c.2,.3,.5,.4,.9,.4c.5,0,.9,-.2,1.2,-.5c.3,-.3,.4,-.7,.4,-1.3v-3.1h.9v5.6h-.9v-.9c-.2,.3,-.5,.6,-.8,.8c-.3,.1,-.6,.2,-1,.2c-.6,0,-1.1,-.2,-1.5,-.6c-.3,-.4,-.4,-1,-.4,-1.7Z" class="g3_359"/>
<path d="M288.3,523.3v3.2h-1v-.9c-.2,.3,-.4,.6,-.7,.8c-.4,.1,-.7,.2,-1.2,.2c-.6,0,-1,-.2,-1.3,-.5c-.4,-.3,-.6,-.7,-.6,-1.3c0,-.6,.3,-1.1,.7,-1.4c.4,-.3,1,-.5,1.9,-.5h1.2v-.1c0,-.4,-.1,-.7,-.4,-.9c-.3,-.3,-.6,-.4,-1.1,-.4c-.4,0,-.7,.1,-1,.1c-.3,.1,-.6,.2,-.8,.4v-.9c.3,-.1,.6,-.2,.9,-.2c.3,-.1,.7,-.1,1,-.1c.8,0,1.4,.2,1.8,.6c.4,.4,.6,1,.6,1.9Zm-1.9,.4c-.7,0,-1.2,0,-1.5,.2c-.3,.2,-.4,.5,-.4,.9c0,.3,.1,.6,.3,.7c.2,.2,.5,.3,.9,.3c.5,0,.9,-.1,1.2,-.5c.3,-.4,.4,-.8,.4,-1.4v-.2h-.9Z" class="g3_359"/>
<path d="M293.7,521.1v.8c-.3,-.1,-.5,-.2,-.8,-.3c-.3,0,-.6,-.1,-.9,-.1c-.4,0,-.8,.1,-1,.2c-.2,.2,-.3,.4,-.3,.7c0,.2,0,.3,.2,.5c.2,.1,.5,.2,1,.3l.3,.1c.6,.1,1.1,.3,1.4,.6c.2,.2,.4,.6,.4,1c0,.5,-.2,.9,-.6,1.2c-.4,.3,-1,.5,-1.7,.5c-.3,0,-.6,0,-1,-.1c-.3,0,-.6,-.1,-1,-.3v-.9c.4,.2,.7,.3,1,.4c.4,.1,.7,.1,1,.1c.4,0,.8,0,1,-.2c.2,-.1,.3,-.3,.3,-.6c0,-.3,0,-.5,-.2,-.6c-.2,-.1,-.5,-.2,-1.1,-.4h-.3c-.6,-.2,-1,-.3,-1.3,-.6c-.2,-.2,-.3,-.6,-.3,-1c0,-.5,.2,-.9,.5,-1.2c.4,-.3,.9,-.4,1.6,-.4c.3,0,.7,0,1,0c.3,.1,.5,.2,.8,.3Z" class="g3_359"/>
<path d="M295.4,518.7h1v1.2h-1Zm0,2.2h1v5.6h-1Z" class="g3_359"/>
<path d="M297.8,524.1h2.7v-.8h-2.7Z" class="g3_359"/>
<path d="M301.9,518.7h.9v1.2h-.9Zm0,2.2h.9v5.6h-.9Z" class="g3_359"/>
<path d="M309.4,523.1v3.4h-.9v-3.4c0,-.5,-.1,-.9,-.3,-1.2c-.2,-.2,-.5,-.4,-1,-.4c-.4,0,-.8,.2,-1.1,.5c-.3,.3,-.5,.8,-.5,1.3v3.2h-.9v-5.6h.9v.9c.3,-.4,.5,-.6,.8,-.8c.3,-.2,.7,-.2,1,-.2c.7,0,1.2,.2,1.5,.5c.3,.4,.5,1,.5,1.8Z" class="g3_359"/>
<path d="M310.6,520.9h.9l1.8,4.7l1.7,-4.7h1l-2.1,5.6h-1.3l-2,-5.6Z" class="g3_359"/>
<path d="M321.1,523.2c0,-.5,-.2,-.9,-.4,-1.2c-.3,-.3,-.7,-.5,-1.1,-.5c-.5,0,-.9,.2,-1.2,.5c-.4,.2,-.5,.7,-.6,1.2h3.3Zm.9,.2v.5h-4.2c0,.6,.2,1.1,.6,1.4c.3,.4,.8,.5,1.4,.5c.3,0,.7,0,1,-.1c.3,-.1,.7,-.2,1,-.4v.9c-.3,.1,-.7,.2,-1,.3c-.4,.1,-.7,.1,-1.1,.1c-.9,0,-1.6,-.3,-2.1,-.8c-.5,-.5,-.8,-1.2,-.8,-2.1c0,-.9,.3,-1.6,.8,-2.1c.5,-.6,1.1,-.8,2,-.8c.7,0,1.3,.2,1.7,.7c.5,.5,.7,1.1,.7,1.9Z" class="g3_359"/>
<path d="M326.7,521.7c-.1,0,-.2,-.1,-.3,-.1c-.1,0,-.3,0,-.4,0c-.5,0,-.9,.1,-1.2,.5c-.3,.3,-.4,.8,-.4,1.4v3h-.9v-5.6h.9v.9c.2,-.4,.4,-.6,.7,-.8c.3,-.2,.7,-.2,1.2,-.2c0,0,.1,0,.2,0c0,0,.1,0,.2,0v.9Z" class="g3_359"/>
<path d="M331.2,521.1v.8c-.2,-.1,-.5,-.2,-.8,-.3c-.3,0,-.5,-.1,-.8,-.1c-.5,0,-.8,.1,-1.1,.2c-.2,.2,-.3,.4,-.3,.7c0,.2,.1,.3,.2,.5c.2,.1,.5,.2,1,.3l.3,.1c.7,.1,1.1,.3,1.4,.6c.3,.2,.4,.6,.4,1c0,.5,-.2,.9,-.6,1.2c-.4,.3,-1,.5,-1.7,.5c-.3,0,-.6,0,-.9,-.1c-.3,0,-.7,-.1,-1,-.3v-.9c.3,.2,.6,.3,1,.4c.3,.1,.6,.1,.9,.1c.5,0,.8,0,1,-.2c.3,-.1,.4,-.3,.4,-.6c0,-.3,-.1,-.5,-.3,-.6c-.1,-.1,-.5,-.2,-1.1,-.4h-.3c-.5,-.2,-1,-.3,-1.2,-.6c-.3,-.2,-.4,-.6,-.4,-1c0,-.5,.2,-.9,.6,-1.2c.3,-.3,.9,-.4,1.6,-.4c.3,0,.6,0,.9,0c.3,.1,.6,.2,.8,.3Z" class="g3_359"/>
<path d="M336.8,523.2c0,-.5,-.1,-.9,-.4,-1.2c-.3,-.3,-.6,-.5,-1.1,-.5c-.5,0,-.9,.2,-1.2,.5c-.3,.2,-.5,.7,-.5,1.2h3.2Zm.9,.2v.5h-4.2c.1,.6,.3,1.1,.6,1.4c.4,.4,.8,.5,1.4,.5c.4,0,.7,0,1.1,-.1c.3,-.1,.6,-.2,.9,-.4v.9c-.3,.1,-.6,.2,-1,.3c-.3,.1,-.7,.1,-1,.1c-.9,0,-1.6,-.3,-2.1,-.8c-.6,-.5,-.8,-1.2,-.8,-2.1c0,-.9,.2,-1.6,.7,-2.1c.5,-.6,1.2,-.8,2,-.8c.8,0,1.4,.2,1.8,.7c.4,.5,.6,1.1,.6,1.9Z" class="g3_359"/>
<path d="M344.7,518.7c-.5,.8,-.8,1.5,-1,2.3c-.2,.7,-.3,1.5,-.3,2.3c0,.7,.1,1.5,.3,2.2c.2,.8,.5,1.5,1,2.3h-.8c-.5,-.8,-.9,-1.5,-1.1,-2.3c-.3,-.8,-.4,-1.5,-.4,-2.2c0,-.8,.1,-1.5,.4,-2.3c.2,-.7,.6,-1.5,1.1,-2.3h.8Z" class="g3_359"/>
<path d="M346.5,526.5h.9v-7.8h-.9Z" class="g3_359"/>
<path d="M351.4,520.8c.8,0,1.5,.2,1.9,.7c.5,.5,.7,1.3,.7,2.2c0,.9,-.2,1.6,-.7,2.1c-.4,.5,-1.1,.8,-1.9,.8c-.8,0,-1.4,-.3,-1.8,-.8c-.5,-.5,-.7,-1.2,-.7,-2.1c0,-.9,.2,-1.7,.7,-2.2c.4,-.5,1,-.7,1.8,-.7Zm0,.7c-.5,0,-.8,.2,-1.1,.6c-.3,.4,-.5,.9,-.5,1.6c0,.6,.2,1.2,.5,1.5c.3,.4,.6,.6,1.1,.6c.5,0,.9,-.2,1.2,-.6c.3,-.3,.4,-.9,.4,-1.5c0,-.7,-.1,-1.2,-.4,-1.6c-.3,-.4,-.7,-.6,-1.2,-.6Z" class="g3_359"/>
<path d="M359.5,521.1v.9c-.2,-.2,-.5,-.3,-.8,-.4c-.2,0,-.5,-.1,-.8,-.1c-.5,0,-1,.2,-1.3,.6c-.4,.4,-.5,.9,-.5,1.6c0,.7,.1,1.2,.5,1.6c.3,.3,.8,.5,1.3,.5c.3,0,.6,0,.8,-.1c.3,-.1,.6,-.2,.8,-.3v.8c-.2,.2,-.5,.2,-.8,.3c-.3,.1,-.5,.1,-.9,.1c-.8,0,-1.5,-.3,-1.9,-.8c-.5,-.5,-.8,-1.2,-.8,-2.1c0,-.9,.3,-1.6,.8,-2.2c.5,-.5,1.1,-.7,2,-.7c.3,0,.6,0,.8,0c.3,.1,.6,.2,.8,.3Z" class="g3_359"/>
<path d="M365.5,523.3v3.2h-1v-.9c-.2,.3,-.4,.6,-.7,.8c-.4,.1,-.7,.2,-1.2,.2c-.6,0,-1,-.2,-1.3,-.5c-.4,-.3,-.5,-.7,-.5,-1.3c0,-.6,.2,-1.1,.6,-1.4c.4,-.3,1,-.5,1.9,-.5h1.2v-.1c0,-.4,-.1,-.7,-.4,-.9c-.2,-.3,-.6,-.4,-1.1,-.4c-.4,0,-.7,.1,-1,.1c-.3,.1,-.6,.2,-.8,.4v-.9c.3,-.1,.6,-.2,.9,-.2c.4,-.1,.7,-.1,1,-.1c.8,0,1.4,.2,1.8,.6c.4,.4,.6,1,.6,1.9Zm-1.9,.4c-.7,0,-1.2,0,-1.5,.2c-.3,.2,-.4,.5,-.4,.9c0,.3,.1,.6,.3,.7c.2,.2,.5,.3,.9,.3c.5,0,.9,-.1,1.2,-.5c.3,-.4,.4,-.8,.4,-1.4v-.2h-.9Z" class="g3_359"/>
<path d="M367.3,526.5h1v-7.8h-1Z" class="g3_359"/>
<path d="M370.2,518.7h.9v1.2h-.9Zm0,2.2h.9v5.6h-.9Z" class="g3_359"/>
<path d="M373.9,519.3v1.6h1.9v.7h-1.9v3c0,.5,.1,.8,.2,.9c.1,.1,.4,.2,.7,.2h1v.8h-1c-.7,0,-1.1,-.2,-1.4,-.4c-.3,-.3,-.4,-.8,-.4,-1.5v-3h-.7v-.7h.7v-1.6h.9Z" class="g3_359"/>
<path d="M379.3,527c-.3,.6,-.5,1.1,-.8,1.3c-.2,.2,-.5,.3,-.9,.3h-.8v-.8h.6c.2,0,.4,-.1,.6,-.2c.1,-.1,.2,-.4,.4,-.8l.2,-.4l-2.3,-5.5h1l1.7,4.3l1.8,-4.3h.9l-2.4,6.1Z" class="g3_359"/>
<path d="M387.2,525.6h3.5v.9H386v-.9c.4,-.4,.9,-.9,1.6,-1.6c.6,-.6,1.1,-1.1,1.2,-1.3c.3,-.3,.6,-.6,.7,-.9c.1,-.2,.2,-.5,.2,-.7c0,-.4,-.1,-.7,-.4,-1c-.3,-.2,-.7,-.4,-1.1,-.4c-.3,0,-.7,.1,-1,.2c-.3,.1,-.7,.3,-1.1,.5v-1c.4,-.2,.8,-.3,1.1,-.4c.4,-.1,.7,-.1,1,-.1c.7,0,1.4,.2,1.8,.6c.5,.4,.7,.9,.7,1.5c0,.3,-.1,.6,-.2,.9c-.1,.3,-.3,.6,-.6,.9c-.1,.1,-.3,.4,-.8,.9c-.4,.4,-1.1,1.1,-1.9,1.9Z" class="g3_359"/>
<path d="M392.9,519h3.9v.9h-3v1.8c.1,-.1,.3,-.1,.4,-.1c.2,0,.3,-.1,.5,-.1c.8,0,1.4,.3,1.9,.7c.5,.5,.7,1.1,.7,1.9c0,.8,-.2,1.4,-.7,1.8c-.5,.5,-1.2,.7,-2.1,.7c-.3,0,-.6,0,-1,-.1c-.3,0,-.6,-.1,-1,-.2v-1c.3,.1,.7,.3,1,.3c.3,.1,.6,.2,1,.2c.6,0,1,-.2,1.3,-.5c.4,-.3,.5,-.7,.5,-1.2c0,-.5,-.1,-1,-.5,-1.3c-.3,-.3,-.7,-.4,-1.3,-.4c-.3,0,-.6,0,-.8,.1c-.3,0,-.6,.1,-.8,.3V519Z" class="g3_359"/>
<path d="M399,518.7h.8c.5,.8,.9,1.6,1.2,2.3c.2,.8,.3,1.5,.3,2.3c0,.7,-.1,1.4,-.3,2.2c-.3,.8,-.7,1.5,-1.2,2.3H399c.5,-.8,.8,-1.5,1,-2.3c.3,-.7,.4,-1.5,.4,-2.2c0,-.8,-.1,-1.6,-.4,-2.3c-.2,-.8,-.5,-1.5,-1,-2.3Z" class="g3_359"/>
</svg>