<?xml version="1.0" encoding="UTF-8" standalone="no"?>
<!DOCTYPE svg PUBLIC "-//W3C//DTD SVG 1.1//EN"
"http://www.w3.org/Graphics/SVG/1.1/DTD/svg11.dtd">
<svg viewBox="0 0 811 1017" version="1.1" xmlns="http://www.w3.org/2000/svg" xmlns:xlink="http://www.w3.org/1999/xlink">
<defs>
<clipPath id="c0_400"><path d="M142.7,775.8V554.4H316.6V775.8Z"/></clipPath>
<style type="text/css"><![CDATA[
.g0_400{
fill: #D9E3F3;
}
.g1_400{
fill: none;
stroke: #B2B4B5;
stroke-width: 0.759;
stroke-miterlimit: 10;
}
.g2_400{
fill: #211E1E;
}
.g3_400{
fill: #B3C5E5;
}
.g4_400{
fill: #8BA8D6;
}
.g5_400{
fill: #C4DFB3;
}
.g6_400{
fill: #A5CF8B;
}
.g7_400{
fill: none;
stroke: #706B6B;
stroke-width: 1.226;
stroke-miterlimit: 10;
stroke-dasharray: 3,2;
}
.g8_400{
fill: #706B6B;
}
.g9_400{
fill: #CD5456;
}
.ga_400{
fill: none;
stroke: #BD2025;
stroke-width: 0.759;
stroke-miterlimit: 10;
}
]]></style>
</defs>
<path d="M354.7,654h55.9V601.4H354.7Z" class="g0_400"/>
<path d="M354.7,654h55.9V601.4H354.7Z" class="g1_400"/>
<path d="M378.1,631.6c-.4,.4,-.7,.7,-1.1,.9c-.3,.2,-.6,.3,-1,.3c-.5,0,-.9,-.1,-1.1,-.4c-.3,-.2,-.4,-.5,-.4,-.9c0,-.3,0,-.5,.1,-.7c.1,-.2,.2,-.3,.4,-.5c.2,-.1,.5,-.2,.8,-.3c.3,0,.6,-.1,1,-.1h1.3v1.7Zm1.4,-3.4c0,-.5,0,-.9,-.1,-1.3c-.2,-.4,-.3,-.7,-.6,-.9c-.2,-.3,-.6,-.5,-1,-.6c-.4,-.1,-.8,-.2,-1.4,-.2c-.3,0,-.6,0,-.9,.1c-.3,0,-.6,.1,-.9,.2c-.2,.1,-.4,.2,-.6,.3c-.2,.1,-.4,.2,-.5,.3c0,0,-.1,.1,-.1,.2c0,.1,0,.2,0,.3c0,.1,0,.2,0,.3q0,.1,0,.2c.1,0,.1,.1,.1,.1q.1,0,.2,0c0,0,.1,0,.3,-.1c.1,-.1,.3,-.2,.5,-.3c.2,-.1,.5,-.2,.8,-.3c.3,-.1,.6,-.1,.9,-.1c.4,0,.7,0,.9,.1c.2,.1,.4,.2,.6,.4c.1,.1,.2,.3,.3,.5c0,.3,.1,.6,.1,.9v.6H377c-.6,0,-1.2,0,-1.7,.1c-.5,.2,-.9,.3,-1.3,.5c-.3,.3,-.6,.5,-.7,.9c-.2,.3,-.3,.7,-.3,1.1c0,.4,0,.8,.2,1.1c.1,.3,.3,.5,.5,.7c.3,.2,.6,.4,.9,.5c.3,.1,.7,.2,1.1,.2c.5,0,1,-.1,1.4,-.4c.4,-.2,.8,-.4,1.2,-.8v.8c0,0,0,.1,0,.1q.1,.1,.2,.1c.1,0,.2,0,.4,0c.2,0,.3,0,.4,0c0,0,.1,0,.2,-.1c0,0,0,-.1,0,-.1v-5.4Z" class="g2_400"/>
<path d="M392.6,632.9q0,-.1,0,-.2c-.1,0,-.1,-.1,-.1,-.1c0,0,-.1,0,-.1,0h-1.3v-6.3q0,-.1,0,-.1c0,0,0,-.1,-.1,-.1c0,0,-.1,0,-.2,0c-.1,0,-.2,0,-.3,0c-.2,0,-.3,0,-.3,0c-.1,0,-.2,0,-.2,0q-.1,0,-.1,0c-.1,0,-.1,.1,-.1,.1l-1.7,1q0,.1,-.1,.1q0,.1,0,.1q-.1,.1,-.1,.2c0,0,0,.1,0,.2c0,.2,0,.3,0,.4q.1,.1,.1,.1c0,.1,.1,.1,.1,.1c.1,0,.2,-.1,.3,-.1l1.2,-.7v5h-1.4q-.1,0,-.1,0c-.1,0,-.1,.1,-.1,.1q0,.1,0,.2c-.1,.1,-.1,.2,-.1,.3c0,.1,0,.2,.1,.3q0,.1,0,.2c0,0,.1,0,.1,.1h4.3c0,0,.1,0,.1,0q0,-.1,.1,-.1q0,-.1,0,-.2c0,-.1,0,-.2,0,-.3c0,-.1,0,-.2,0,-.3Zm-6.2,0q0,-.1,0,-.2c0,0,-.1,-.1,-.1,-.1H385v-6.3q0,-.1,-.1,-.1c0,0,0,-.1,0,-.1c-.1,0,-.2,0,-.3,0c0,0,-.2,0,-.3,0c-.1,0,-.2,0,-.3,0c-.1,0,-.2,0,-.2,0c0,0,-.1,0,-.1,0c0,0,-.1,.1,-.1,.1l-1.6,1q-.1,.1,-.1,.1q-.1,.1,-.1,.1q0,.1,0,.2c0,0,0,.1,0,.2c0,.2,0,.3,0,.4q0,.1,0,.1q.1,.1,.2,.1c0,0,.1,-.1,.2,-.1l1.2,-.7v5H382c0,0,-.1,0,-.1,0c0,0,0,.1,-.1,.1q0,.1,0,.2c0,.1,0,.2,0,.3c0,.1,0,.2,0,.3q0,.1,0,.2q.1,0,.1,.1c0,0,.1,0,.1,0h4.2q.1,0,.1,0c0,-.1,.1,-.1,.1,-.1q0,-.1,0,-.2c0,-.1,.1,-.2,.1,-.3c0,-.1,0,-.2,-.1,-.3Z" class="g2_400"/>
<path d="M354.7,706.5h55.9V654H354.7Z" class="g3_400"/>
<path d="M354.7,706.5h55.9V654H354.7Z" class="g1_400"/>
<path d="M410.6,654h55.9V601.4H410.6Z" class="g3_400"/>
<path d="M410.6,654h55.9V601.4H410.6Z" class="g1_400"/>
<path d="M435.1,631.6c-.4,.4,-.7,.7,-1,.9c-.4,.2,-.7,.3,-1.1,.3c-.5,0,-.8,-.1,-1.1,-.4c-.3,-.2,-.4,-.5,-.4,-.9c0,-.3,.1,-.5,.1,-.7c.1,-.2,.3,-.3,.5,-.5c.2,-.1,.4,-.2,.7,-.3c.3,0,.7,-.1,1.1,-.1h1.2v1.7Zm1.5,-3.4c0,-.5,-.1,-.9,-.2,-1.3c-.1,-.4,-.3,-.7,-.5,-.9c-.3,-.3,-.6,-.5,-1,-.6c-.4,-.1,-.9,-.2,-1.5,-.2c-.3,0,-.6,0,-.9,.1c-.3,0,-.6,.1,-.8,.2c-.3,.1,-.5,.2,-.7,.3c-.2,.1,-.3,.2,-.4,.3c-.1,0,-.2,.1,-.2,.2c0,.1,0,.2,0,.3c0,.1,0,.2,0,.3q0,.1,.1,.2c0,0,0,.1,.1,.1h.1c.1,0,.2,0,.3,-.1c.2,-.1,.3,-.2,.6,-.3c.2,-.1,.4,-.2,.7,-.3c.3,-.1,.6,-.1,1,-.1c.3,0,.6,0,.8,.1c.3,.1,.4,.2,.6,.4c.1,.1,.2,.3,.3,.5c.1,.3,.1,.6,.1,.9v.6H434c-.6,0,-1.2,0,-1.7,.1c-.5,.2,-.9,.3,-1.2,.5c-.4,.3,-.6,.5,-.8,.9c-.2,.3,-.3,.7,-.3,1.1c0,.4,.1,.8,.2,1.1c.1,.3,.3,.5,.6,.7c.2,.2,.5,.4,.8,.5c.4,.1,.8,.2,1.2,.2c.5,0,.9,-.1,1.3,-.4c.5,-.2,.9,-.4,1.2,-.8v.8c0,0,0,.1,.1,.1c0,.1,.1,.1,.2,.1c.1,0,.2,0,.3,0c.2,0,.3,0,.4,0q.1,0,.2,-.1c0,0,.1,-.1,.1,-.1v-5.4Z" class="g2_400"/>
<path d="M449.7,632.9c0,-.1,0,-.2,0,-.2q-.1,-.1,-.1,-.1q-.1,-.1,-.1,-.1h-3.1l.9,-.9c.5,-.4,.8,-.8,1.1,-1.2c.3,-.3,.5,-.6,.7,-.9c.1,-.3,.2,-.5,.2,-.8c.1,-.2,.1,-.4,.1,-.7c0,-.3,0,-.5,-.1,-.8c-.1,-.2,-.3,-.4,-.5,-.6c-.2,-.2,-.4,-.3,-.7,-.4c-.3,-.1,-.7,-.2,-1.1,-.2c-.2,0,-.4,0,-.7,.1c-.2,0,-.4,.1,-.6,.2c-.2,0,-.4,.1,-.5,.2c-.1,0,-.2,.1,-.3,.2c0,0,-.1,0,-.1,.1v.1c0,0,0,.1,-.1,.2c0,0,0,.1,0,.2c0,.1,0,.2,.1,.3c0,.1,0,.2,0,.2q0,.1,.1,.2c.1,0,.2,0,.3,-.1c0,-.1,.2,-.1,.3,-.2c.1,-.1,.3,-.1,.5,-.2c.2,-.1,.4,-.1,.6,-.1c.2,0,.3,0,.4,.1c.1,0,.2,.1,.3,.2c.1,.1,.2,.2,.2,.3c.1,.1,.1,.2,.1,.4c0,.1,0,.3,-.1,.4c0,.2,-.1,.3,-.2,.5c-.1,.2,-.2,.4,-.3,.7c-.2,.2,-.4,.4,-.7,.7l-1.3,1.4c-.1,.1,-.1,.2,-.2,.2c0,.1,-.1,.2,-.1,.3c-.1,0,-.1,.1,-.1,.2c0,.1,0,.2,0,.3c0,.2,0,.3,0,.4c0,.1,.1,.1,.1,.2c0,0,.1,0,.2,.1c0,0,.1,0,.2,0h4.4c0,0,.1,0,.1,0q0,-.1,.1,-.2c0,0,0,-.1,0,-.2c0,0,0,-.1,0,-.2q0,-.2,0,-.3Zm-6.2,0c0,-.1,-.1,-.1,-.1,-.2c0,0,0,-.1,-.1,-.1H442v-6.3q0,-.1,0,-.1c0,0,-.1,-.1,-.1,-.1q-.1,0,-.2,0c-.1,0,-.2,0,-.4,0c-.1,0,-.2,0,-.3,0q-.1,0,-.2,0c0,0,-.1,0,-.1,0c0,0,0,.1,-.1,.1l-1.6,1q-.1,.1,-.1,.1c0,.1,-.1,.1,-.1,.1q0,.1,0,.2c0,0,0,.1,0,.2c0,.2,0,.3,0,.4q0,.1,.1,.1q0,.1,.1,.1c.1,0,.1,-.1,.2,-.1l1.3,-.7v5h-1.6c0,0,0,.1,0,.1q-.1,.1,-.1,.2c0,.1,0,.2,0,.3c0,.1,0,.2,0,.3q0,.1,.1,.2v.1q.1,0,.1,0h4.2q.1,0,.1,0q.1,-.1,.1,-.1c0,-.1,.1,-.1,.1,-.2c0,-.1,0,-.2,0,-.3c0,-.1,0,-.2,0,-.3Z" class="g2_400"/>
<path d="M410.6,706.5h55.9V654H410.6Z" class="g4_400"/>
<path d="M410.6,706.5h55.9V654H410.6Z" class="g1_400"/>
<path fill-rule="evenodd" d="M342.2,765l15.2,-28.2h60.7L402.9,765H342.2Z" class="g5_400"/>
<path d="M342.2,765l15.2,-28.2h60.7L402.9,765H342.2Z" class="g1_400"/>
<path d="M376.3,754c0,.3,-.2,.7,-.3,1c-.2,.2,-.4,.5,-.7,.7c-.2,.1,-.5,.2,-.9,.2c-.4,0,-.8,-.1,-1.2,-.4c-.3,-.2,-.7,-.6,-1.1,-1.1v-3.2c.2,-.3,.4,-.5,.6,-.7c.2,-.2,.4,-.4,.6,-.5c.2,-.1,.4,-.2,.6,-.2c.2,-.1,.4,-.1,.5,-.1c.4,0,.7,.1,1,.3c.3,.1,.5,.4,.6,.7c.2,.3,.3,.6,.3,1c.1,.4,.1,.8,.1,1.2c0,.3,0,.7,-.1,1.1Zm1.5,-2.9c-.1,-.6,-.3,-1,-.6,-1.4c-.2,-.4,-.6,-.7,-1,-.9c-.4,-.3,-.9,-.4,-1.5,-.4c-.2,0,-.4,0,-.6,.1c-.3,0,-.5,.1,-.7,.2c-.2,.1,-.4,.3,-.6,.4c-.3,.2,-.5,.4,-.7,.6V745q0,-.1,-.1,-.2l-.1,-.1c0,0,-.1,0,-.2,0c-.1,0,-.2,0,-.4,0c-.1,0,-.2,0,-.3,0c-.1,0,-.2,0,-.2,0q-.1,.1,-.2,.1q0,.1,0,.2v11.8c0,0,0,.1,0,.1c.1,0,.1,.1,.1,.1c.1,0,.2,0,.3,0c0,.1,.1,.1,.3,.1c.1,0,.2,0,.3,-.1c0,0,.1,0,.2,0c0,0,.1,-.1,.1,-.1c0,0,0,-.1,0,-.1v-1c.2,.3,.5,.5,.7,.6c.2,.2,.4,.3,.6,.5c.2,.1,.4,.2,.6,.2c.2,.1,.5,.1,.7,.1c.6,0,1.1,-.1,1.5,-.3c.4,-.2,.8,-.5,1.1,-.9c.3,-.4,.5,-.9,.6,-1.4c.2,-.6,.3,-1.2,.3,-1.9c0,-.6,-.1,-1.1,-.2,-1.6Z" class="g2_400"/>
<path d="M390.6,756.1c-.1,0,-.1,-.1,-.1,-.2l-.1,-.1h-1.3v-6.3c0,0,0,-.1,0,-.1q-.1,0,-.1,0q-.1,-.1,-.2,-.1c-.1,0,-.3,0,-.4,0c-.1,0,-.2,0,-.3,0q-.1,0,-.2,0c0,0,-.1,0,-.1,.1c0,0,-.1,0,-.1,0l-1.6,1.1q-.1,0,-.1,0q-.1,.1,-.1,.2v.1q0,.1,0,.2c0,.2,0,.3,0,.4q0,.1,.1,.2h.1c0,0,.1,0,.2,-.1l1.2,-.7v5h-1.4c0,0,-.1,0,-.1,0q0,.1,-.1,.1c0,.1,0,.2,0,.2c0,.1,0,.2,0,.3c0,.1,0,.2,0,.3q0,.1,.1,.2c0,0,0,.1,0,.1q.1,0,.1,0h4.2q.1,0,.1,0c.1,0,.1,-.1,.1,-.1q0,-.1,.1,-.2c0,-.1,0,-.2,0,-.3c0,-.1,0,-.2,0,-.3Zm-6.2,0c0,0,0,-.1,-.1,-.2v-.1q-.1,0,-.1,0h-1.3v-6.3c0,0,0,-.1,0,-.1c0,0,-.1,0,-.1,0q-.1,-.1,-.2,-.1c-.1,0,-.2,0,-.4,0c-.1,0,-.2,0,-.3,0q-.1,0,-.2,0l-.1,.1l-1.7,1.1c0,0,-.1,0,-.1,0c0,.1,-.1,.1,-.1,.2v.1q0,.1,0,.2c0,.2,0,.3,0,.4q0,.1,.1,.2c0,0,.1,0,.1,0q.1,0,.2,-.1l1.3,-.7v5h-1.6q0,.1,0,.1c0,.1,-.1,.2,-.1,.2c0,.1,0,.2,0,.3c0,.1,0,.2,0,.3c0,.1,.1,.1,.1,.2c0,0,0,.1,.1,.1h4.4c0,0,0,-.1,0,-.1q.1,-.1,.1,-.2c0,-.1,0,-.2,0,-.3c0,-.1,0,-.2,0,-.3Z" class="g2_400"/>
<path fill-rule="evenodd" d="M403.2,765l15.1,-28.2H479L463.8,765H403.2Z" class="g6_400"/>
<path d="M403.2,765l15.1,-28.2H479L463.8,765H403.2Z" class="g1_400"/>
<path d="M437.2,754c0,.3,-.2,.7,-.3,1c-.2,.2,-.4,.5,-.7,.7c-.2,.1,-.5,.2,-.9,.2c-.4,0,-.8,-.1,-1.2,-.4c-.3,-.2,-.7,-.6,-1.1,-1.1v-3.2c.2,-.3,.4,-.5,.6,-.7c.2,-.2,.4,-.4,.6,-.5c.2,-.1,.4,-.2,.6,-.2c.2,-.1,.4,-.1,.6,-.1c.3,0,.7,.1,.9,.3c.3,.1,.5,.4,.6,.7c.2,.3,.3,.6,.4,1c0,.4,0,.8,0,1.2c0,.3,0,.7,-.1,1.1Zm1.5,-2.9c-.1,-.6,-.3,-1,-.6,-1.4c-.2,-.4,-.6,-.7,-1,-.9c-.4,-.3,-.9,-.4,-1.5,-.4c-.2,0,-.4,0,-.6,.1c-.2,0,-.5,.1,-.7,.2c-.2,.1,-.4,.3,-.6,.4c-.2,.2,-.5,.4,-.7,.6V745q0,-.1,-.1,-.2l-.1,-.1c0,0,-.1,0,-.2,0c-.1,0,-.2,0,-.4,0c-.1,0,-.2,0,-.3,0c-.1,0,-.2,0,-.2,0q-.1,.1,-.1,.1q-.1,.1,-.1,.2v11.8c0,0,0,.1,0,.1c.1,0,.1,.1,.2,.1c0,0,.1,0,.2,0c0,.1,.1,.1,.3,.1c.1,0,.2,0,.3,-.1c0,0,.1,0,.2,0c0,0,.1,-.1,.1,-.1c0,0,0,-.1,0,-.1v-1c.2,.3,.5,.5,.7,.6c.2,.2,.4,.3,.6,.5c.2,.1,.4,.2,.6,.2c.2,.1,.5,.1,.7,.1c.6,0,1.1,-.1,1.5,-.3c.4,-.2,.8,-.5,1.1,-.9c.3,-.4,.5,-.9,.6,-1.4c.2,-.6,.3,-1.2,.3,-1.9c0,-.6,-.1,-1.1,-.2,-1.6Z" class="g2_400"/>
<path d="M451.5,756.1c0,-.1,0,-.2,0,-.2c0,-.1,-.1,-.1,-.1,-.1c0,0,-.1,0,-.1,0h-3l.9,-1c.4,-.4,.8,-.8,1,-1.1c.3,-.4,.5,-.7,.7,-1c.1,-.2,.2,-.5,.3,-.7c0,-.3,0,-.5,0,-.8c0,-.2,0,-.5,-.1,-.8c-.1,-.2,-.2,-.4,-.4,-.6c-.2,-.2,-.5,-.3,-.8,-.4c-.3,-.1,-.6,-.2,-1,-.2c-.3,0,-.5,.1,-.8,.1c-.2,.1,-.4,.1,-.6,.2c-.2,.1,-.4,.1,-.5,.2c-.1,.1,-.2,.1,-.3,.2c0,0,0,.1,-.1,.1c0,0,0,.1,0,.1q0,.1,0,.2c0,0,0,.1,0,.2c0,.1,0,.2,0,.3c0,.1,0,.2,0,.3c0,0,0,.1,.1,.1h.1c0,0,.1,0,.2,-.1c.1,0,.2,-.1,.3,-.2c.2,-.1,.3,-.1,.5,-.2c.2,0,.4,-.1,.6,-.1c.2,0,.3,.1,.4,.1c.2,.1,.3,.1,.3,.2c.1,.1,.2,.2,.2,.3c.1,.1,.1,.3,.1,.4c0,.1,0,.3,-.1,.4c0,.2,-.1,.4,-.1,.6c-.1,.1,-.3,.3,-.4,.6c-.2,.2,-.4,.4,-.7,.7l-1.3,1.4c-.1,.1,-.1,.2,-.2,.3c0,0,-.1,.1,-.1,.2c0,.1,-.1,.1,-.1,.2c0,.1,0,.2,0,.4c0,.1,0,.2,0,.3c.1,.1,.1,.2,.1,.2c.1,0,.1,.1,.2,.1c0,0,.1,0,.2,0h4.4c0,0,.1,0,.1,0c0,0,.1,-.1,.1,-.1q0,-.1,0,-.2c0,-.1,0,-.2,0,-.3c0,-.1,0,-.2,0,-.3Zm-6.2,0c0,0,0,-.1,-.1,-.2v-.1q-.1,0,-.1,0h-1.3v-6.3c0,0,0,-.1,0,-.1h-.1c0,-.1,-.1,-.1,-.2,-.1c-.1,0,-.2,0,-.4,0c-.1,0,-.2,0,-.3,0c0,0,-.1,0,-.2,0l-.1,.1l-1.7,1.1c0,0,-.1,0,-.1,0q0,.1,-.1,.2v.1q0,.1,0,.2c0,.2,0,.3,0,.4c0,.1,.1,.1,.1,.2c0,0,.1,0,.1,0c.1,0,.2,0,.2,-.1l1.3,-.7v5h-1.4q-.1,0,-.1,0q-.1,.1,-.1,.1c0,.1,-.1,.2,-.1,.2c0,.1,0,.2,0,.3c0,.1,0,.2,0,.3c0,.1,.1,.1,.1,.2c0,0,0,.1,.1,.1h4.4c0,0,0,-.1,0,-.1q.1,-.1,.1,-.2c0,-.1,0,-.2,0,-.3c0,-.1,0,-.2,0,-.3Z" class="g2_400"/>
<path d="M532.5,652.4h56V599.8h-56Z" class="g0_400"/>
<path d="M532.5,652.4h56V599.8h-56Z" class="g1_400"/>
<path d="M556,630c-.4,.4,-.7,.7,-1.1,.9c-.3,.2,-.6,.3,-1,.3c-.5,0,-.9,-.2,-1.1,-.4c-.3,-.2,-.4,-.6,-.4,-1c0,-.2,0,-.4,.1,-.6c.1,-.2,.2,-.4,.4,-.5c.2,-.1,.5,-.2,.8,-.3c.3,-.1,.6,-.1,1,-.1H556V630Zm1.4,-3.4c0,-.5,0,-1,-.1,-1.3c-.2,-.4,-.3,-.7,-.6,-1c-.2,-.2,-.6,-.4,-1,-.6c-.4,-.1,-.8,-.1,-1.4,-.1c-.3,0,-.6,0,-.9,0c-.3,.1,-.6,.2,-.9,.3c-.2,0,-.4,.1,-.6,.2c-.2,.1,-.4,.2,-.5,.3c0,.1,-.1,.2,-.1,.2c0,.1,0,.3,0,.4c0,.1,0,.2,0,.2c0,.1,0,.2,0,.2q.1,.1,.1,.1q.1,.1,.2,.1c0,0,.1,-.1,.3,-.2c.1,0,.3,-.1,.5,-.2c.2,-.2,.5,-.2,.8,-.3c.3,-.1,.6,-.2,.9,-.2c.4,0,.7,.1,.9,.2c.2,0,.4,.2,.6,.3c.1,.2,.2,.4,.3,.6c0,.2,.1,.5,.1,.8v.6h-1.1c-.6,0,-1.2,.1,-1.7,.2c-.5,.1,-.9,.3,-1.3,.5c-.3,.2,-.6,.5,-.7,.8c-.2,.3,-.3,.7,-.3,1.2c0,.4,0,.7,.2,1c.1,.3,.3,.6,.5,.8c.3,.2,.6,.3,.9,.4c.3,.2,.7,.2,1.1,.2c.5,0,1,-.1,1.4,-.3c.4,-.2,.8,-.5,1.2,-.9v.8c0,.1,0,.2,0,.2c.1,0,.1,.1,.2,.1c.1,0,.2,0,.4,0c.2,0,.3,0,.4,0c0,0,.1,-.1,.2,-.1c0,0,0,-.1,0,-.2v-5.3Z" class="g2_400"/>
<path d="M570.5,631.3c0,-.1,0,-.2,0,-.2c0,-.1,-.1,-.1,-.1,-.1c0,0,-.1,-.1,-.1,-.1h-1.2v-6.3l-.1,-.1h-.1c0,0,-.1,0,-.2,0c-.1,0,-.2,0,-.3,0c-.1,0,-.2,0,-.3,0c-.1,0,-.2,0,-.2,0q-.1,0,-.1,0q-.1,0,-.1,0l-1.6,1.1c-.1,0,-.1,.1,-.2,.1v.1c0,0,0,.1,-.1,.1c0,.1,0,.2,0,.3c0,.1,0,.2,.1,.3c0,.1,0,.2,0,.2q.1,0,.2,0c0,0,.1,0,.2,0l1.2,-.7v4.9h-1.4c0,0,-.1,.1,-.1,.1c0,0,-.1,0,-.1,.1c0,0,0,.1,0,.2c0,0,0,.1,0,.3c0,.1,0,.2,0,.2c0,.1,0,.2,0,.2q.1,.1,.1,.1c0,0,.1,0,.1,0h4.2c0,0,.1,0,.1,0c0,0,.1,0,.1,-.1c0,0,0,-.1,0,-.2c0,0,0,-.1,0,-.2c0,-.2,0,-.3,0,-.3Zm-6.2,0c0,-.1,0,-.2,0,-.2c0,-.1,-.1,-.1,-.1,-.1c0,0,0,-.1,-.1,-.1h-1.2v-6.3l-.1,-.1c-.1,0,-.2,0,-.3,0c-.1,0,-.2,0,-.3,0c-.1,0,-.2,0,-.3,0c-.1,0,-.2,0,-.2,0q-.1,0,-.1,0c0,0,-.1,0,-.1,0l-1.6,1.1c-.1,0,-.1,.1,-.1,.1q-.1,0,-.1,.1c0,0,0,.1,0,.1c0,.1,0,.2,0,.3c0,.1,0,.2,0,.3c0,.1,0,.2,0,.2q.1,0,.2,0c0,0,.1,0,.2,0l1.2,-.7v4.9h-1.4c0,0,-.1,.1,-.1,.1l-.1,.1c0,0,0,.1,0,.2c0,0,0,.1,0,.3c0,.1,0,.2,0,.2c0,.1,0,.2,0,.2q.1,.1,.1,.1c0,0,.1,0,.1,0h4.2q.1,0,.1,0c0,0,.1,0,.1,-.1c0,0,0,-.1,0,-.2c0,0,.1,-.1,.1,-.2c0,-.2,-.1,-.3,-.1,-.3Z" class="g2_400"/>
<path d="M532.5,704.8h56V652.4h-56Z" class="g3_400"/>
<path d="M532.5,704.8h56V652.4h-56Z" class="g1_400"/>
<path d="M588.5,652.4h55.9V599.8H588.5Z" class="g3_400"/>
<path d="M588.5,652.4h55.9V599.8H588.5Z" class="g1_400"/>
<path d="M612,630c-.4,.4,-.7,.7,-1.1,.9c-.3,.2,-.6,.3,-1,.3c-.5,0,-.9,-.2,-1.1,-.4c-.3,-.2,-.4,-.6,-.4,-1c0,-.2,0,-.4,.1,-.6c.1,-.2,.2,-.4,.4,-.5c.2,-.1,.5,-.2,.8,-.3c.3,-.1,.6,-.1,1,-.1H612V630Zm1.4,-3.4c0,-.5,0,-1,-.1,-1.3c-.2,-.4,-.3,-.7,-.6,-1c-.2,-.2,-.6,-.4,-1,-.6c-.4,-.1,-.8,-.1,-1.4,-.1c-.3,0,-.6,0,-.9,0c-.3,.1,-.6,.2,-.9,.3c-.2,0,-.4,.1,-.6,.2c-.2,.1,-.4,.2,-.5,.3c0,.1,-.1,.2,-.1,.2c0,.1,0,.3,0,.4c0,.1,0,.2,0,.2c0,.1,0,.2,0,.2q.1,.1,.1,.1q.1,.1,.2,.1c0,0,.1,-.1,.3,-.2c.1,0,.3,-.1,.5,-.2c.2,-.2,.5,-.2,.8,-.3c.3,-.1,.6,-.2,.9,-.2c.4,0,.7,.1,.9,.2c.2,0,.4,.2,.6,.3c.1,.2,.2,.4,.3,.6c0,.2,.1,.5,.1,.8v.6h-1.1c-.6,0,-1.2,.1,-1.7,.2c-.5,.1,-.9,.3,-1.3,.5c-.3,.2,-.6,.5,-.7,.8c-.2,.3,-.3,.7,-.3,1.2c0,.4,0,.7,.2,1c.1,.3,.3,.6,.5,.8c.3,.2,.6,.3,.9,.4c.3,.2,.7,.2,1.1,.2c.5,0,1,-.1,1.4,-.3c.4,-.2,.8,-.5,1.2,-.9v.8c0,.1,0,.2,0,.2c.1,0,.1,.1,.2,.1c.1,0,.2,0,.4,0c.2,0,.3,0,.4,0c0,0,.1,-.1,.2,-.1c0,0,0,-.1,0,-.2v-5.3Z" class="g2_400"/>
<path d="M626.6,631.2c0,-.1,-.1,-.1,-.1,-.2c0,0,0,-.1,-.1,-.1h-3.1l.9,-.9c.5,-.5,.8,-.9,1.1,-1.2c.3,-.3,.5,-.6,.6,-.9c.2,-.3,.3,-.6,.3,-.8c.1,-.2,.1,-.5,.1,-.7c0,-.3,-.1,-.6,-.2,-.8c-.1,-.3,-.2,-.5,-.4,-.7c-.2,-.1,-.4,-.3,-.7,-.4c-.3,-.1,-.7,-.1,-1.1,-.1c-.2,0,-.5,0,-.7,0c-.2,.1,-.5,.1,-.6,.2c-.2,.1,-.4,.2,-.5,.2c-.2,.1,-.3,.2,-.3,.2q-.1,.1,-.1,.1q0,.1,-.1,.1q0,.1,0,.2q0,.1,0,.2c0,.2,0,.3,0,.4q0,.1,.1,.2c0,0,0,.1,0,.1c0,0,.1,0,.1,0q.1,0,.2,0c.1,-.1,.2,-.2,.4,-.2c.1,-.1,.3,-.2,.4,-.2c.2,-.1,.4,-.1,.7,-.1c.1,0,.3,0,.4,0c.1,.1,.2,.2,.3,.2c.1,.1,.1,.2,.2,.3c0,.2,0,.3,0,.4c0,.2,0,.3,0,.5c0,.1,-.1,.3,-.2,.5c-.1,.2,-.2,.4,-.4,.6c-.1,.2,-.4,.5,-.6,.8l-1.3,1.4c-.1,.1,-.2,.1,-.2,.2q-.1,.1,-.2,.2c0,.1,0,.2,0,.3c0,.1,0,.2,0,.3c0,.1,0,.2,0,.3c0,.1,0,.2,.1,.2c0,.1,.1,.1,.1,.1c.1,0,.2,0,.3,0h4.5V632c.1,0,.1,-.1,.1,-.2c0,-.1,0,-.2,0,-.3c0,-.1,0,-.2,0,-.3Zm-6.3,.1c0,-.1,0,-.2,0,-.2c0,-.1,-.1,-.1,-.1,-.1c0,0,0,-.1,-.1,-.1h-1.2v-6.3l-.1,-.1c-.1,0,-.2,0,-.3,0c-.1,0,-.2,0,-.3,0c-.1,0,-.2,0,-.3,0c-.1,0,-.2,0,-.2,0q-.1,0,-.1,0q-.1,0,-.1,0l-1.6,1.1c-.1,0,-.1,.1,-.2,.1v.1c0,0,0,.1,0,.1c0,.1,-.1,.2,-.1,.3c0,.1,.1,.2,.1,.3c0,.1,0,.2,0,.2q.1,0,.2,0c0,0,.1,0,.2,0l1.2,-.7v4.9h-1.4c0,0,-.1,.1,-.1,.1c0,0,-.1,0,-.1,.1c0,0,0,.1,0,.2c0,0,0,.1,0,.3c0,.1,0,.2,0,.2c0,.1,0,.2,0,.2q.1,.1,.1,.1c0,0,.1,0,.1,0h4.2q.1,0,.1,0c0,0,.1,0,.1,-.1c0,0,0,-.1,0,-.2c0,0,.1,-.1,.1,-.2c0,-.2,-.1,-.3,-.1,-.3Z" class="g2_400"/>
<path d="M588.5,704.8h55.9V652.4H588.5Z" class="g4_400"/>
<path d="M588.5,704.8h55.9V652.4H588.5Z" class="g1_400"/>
<path fill-rule="evenodd" d="M492,746.8l21.7,-23.7L572.5,738l-21.6,23.7L492,746.8Z" class="g6_400"/>
<path d="M492,746.8l21.7,-23.7L572.5,738l-21.6,23.7L492,746.8Z" class="g1_400"/>
<path d="M528.1,743.3c.1,-.4,.2,-.8,.2,-1.2c.1,-.3,0,-.7,0,-1c-.1,-.4,-.2,-.6,-.4,-.9c-.2,-.2,-.5,-.4,-.9,-.5c-.2,0,-.4,0,-.6,0c-.2,0,-.4,0,-.6,.1c-.2,.1,-.4,.2,-.7,.3c-.2,.2,-.5,.3,-.8,.6l-.8,3c.3,.6,.6,1.1,.9,1.4c.3,.4,.6,.6,1,.7c.4,.1,.7,.1,1,-.1c.3,-.1,.5,-.2,.8,-.5c.2,-.2,.4,-.5,.6,-.8c.1,-.4,.2,-.7,.3,-1.1Zm1.5,.2c-.1,.7,-.3,1.3,-.6,1.8c-.3,.5,-.6,.9,-1,1.2c-.4,.3,-.8,.5,-1.3,.6c-.5,.1,-.9,.1,-1.5,-.1c-.2,0,-.4,-.1,-.6,-.2c-.2,-.1,-.4,-.3,-.6,-.4c-.2,-.2,-.3,-.4,-.5,-.6c-.2,-.2,-.3,-.4,-.5,-.7l-.2,.9l-.1,.1l-.1,.1h-.2c-.1,0,-.2,-.1,-.3,-.1c-.1,0,-.2,-.1,-.3,-.1l-.2,-.1l-.1,-.1v-.1l2.9,-11.5l.1,-.1l.1,-.1c.1,0,.2,0,.3,0c.1,.1,.2,.1,.3,.1c.2,.1,.3,.1,.4,.1l.2,.1l.1,.2v.1l-1.2,4.6c.3,-.2,.5,-.3,.8,-.4c.3,-.1,.5,-.2,.7,-.2c.3,-.1,.5,-.1,.7,-.1c.2,0,.4,0,.7,.1c.5,.1,1,.4,1.3,.7c.4,.3,.6,.7,.8,1.1c.1,.5,.2,1,.2,1.5c0,.5,-.1,1.1,-.3,1.6Z" class="g2_400"/>
<path d="M541,750.2c-.1,.1,-.1,.2,-.1,.3l-.1,.2h-.2l-4.1,-1h-.1v-.3c0,-.1,0,-.2,0,-.3c0,-.1,.1,-.2,.1,-.3l.1,-.2h.1l.1,-.1l1.4,.4l1.2,-4.8l-1.4,.3c-.1,0,-.1,.1,-.2,.1l-.1,-.1v-.2c0,-.1,0,-.2,0,-.3c0,-.1,.1,-.2,.1,-.3l.1,-.1l.1,-.1l.1,-.1l1.8,-.6h.4c.1,.1,.2,.1,.3,.1c.1,0,.3,.1,.4,.1l.1,.1l.1,.1v.1l-1.5,6.1l1.2,.3h.1v.3c0,.1,0,.2,0,.3Zm-5.9,-1.5c-.1,.1,-.1,.2,-.1,.3l-.1,.1l-.1,.1h-.1l-4.3,-1l-.2,-.1l-.1,-.1c-.1,-.1,-.1,-.2,-.1,-.3c0,0,.1,-.2,.1,-.3c0,-.1,.1,-.2,.1,-.3l.1,-.2l.2,-.2c0,-.1,.1,-.1,.2,-.2l1.7,-1c.3,-.2,.5,-.4,.8,-.6c.2,-.2,.4,-.4,.5,-.5c.1,-.2,.2,-.3,.3,-.5c.1,-.1,.1,-.2,.1,-.4c.1,-.1,.1,-.2,.1,-.4c0,-.1,-.1,-.2,-.1,-.3c-.1,-.1,-.2,-.2,-.3,-.3c-.1,0,-.2,-.1,-.4,-.1c-.2,-.1,-.4,-.1,-.6,-.1c-.2,0,-.3,0,-.5,.1c-.1,0,-.3,0,-.4,.1c-.1,0,-.2,0,-.2,0h-.1v-.4c0,-.1,0,-.2,.1,-.3v-.3l.1,-.1l.1,-.1l.1,-.1c.1,0,.2,-.1,.3,-.1c.2,0,.3,-.1,.5,-.1c.2,0,.5,0,.7,0c.2,0,.5,.1,.7,.1c.4,.1,.7,.2,1,.4c.3,.2,.5,.4,.6,.6c.2,.2,.3,.5,.3,.7c0,.3,0,.6,-.1,.8c0,.3,-.1,.5,-.2,.7c-.1,.2,-.3,.5,-.5,.7c-.2,.2,-.5,.5,-.8,.7c-.4,.3,-.8,.6,-1.4,.9l-1.1,.7l3,.7l.1,.1v.3c0,.1,0,.2,0,.3Z" class="g2_400"/>
<path fill-rule="evenodd" d="M551.3,761.8l21.6,-23.6l58.8,14.9l-21.6,23.6L551.3,761.8Z" class="g6_400"/>
<path d="M551.3,761.8l21.6,-23.6l58.8,14.9l-21.6,23.6L551.3,761.8Z" class="g1_400"/>
<path d="M587.4,758.4c.1,-.4,.1,-.8,.2,-1.2c0,-.4,0,-.8,-.1,-1.1c-.1,-.3,-.2,-.6,-.4,-.8c-.2,-.3,-.5,-.4,-.9,-.5c-.2,-.1,-.4,-.1,-.6,-.1c-.1,0,-.3,.1,-.6,.1c-.2,.1,-.4,.2,-.7,.4c-.2,.1,-.5,.3,-.8,.5l-.8,3.1c.3,.6,.6,1,.9,1.4c.3,.3,.6,.5,1,.6c.4,.1,.7,.1,1,0c.3,-.1,.6,-.3,.8,-.5c.2,-.3,.4,-.6,.6,-.9c.1,-.3,.3,-.7,.4,-1Zm1.5,.2c-.2,.6,-.4,1.2,-.7,1.7c-.3,.5,-.6,.9,-1,1.2c-.4,.3,-.8,.5,-1.3,.6c-.4,.1,-.9,.1,-1.5,0c-.2,-.1,-.4,-.2,-.6,-.3c-.2,-.1,-.4,-.2,-.6,-.4c-.1,-.1,-.3,-.3,-.5,-.5c-.1,-.2,-.3,-.5,-.5,-.8l-.2,.9l-.1,.2h-.3c-.1,0,-.2,0,-.3,0c-.1,-.1,-.2,-.1,-.3,-.1l-.2,-.1l-.1,-.1v-.2l3,-11.4v-.1l.1,-.1c.1,0,.2,0,.3,0c.1,0,.2,0,.3,.1c.2,0,.3,0,.4,.1l.2,.1l.1,.1v.1l-1.2,4.7c.3,-.2,.6,-.4,.8,-.5c.3,-.1,.5,-.2,.7,-.2c.3,0,.5,-.1,.7,-.1c.2,0,.5,.1,.7,.1c.5,.2,1,.4,1.3,.7c.4,.4,.6,.7,.8,1.2c.1,.4,.2,.9,.2,1.4c0,.6,-.1,1.1,-.2,1.7Z" class="g2_400"/>
<path d="M600.3,765.2c-.1,.2,-.1,.3,-.1,.3l-.1,.2l-.1,.1h-.1l-4.3,-1.1l-.2,-.1l-.1,-.1l-.1,-.2c0,-.1,.1,-.2,.1,-.3c0,-.2,.1,-.3,.1,-.3l.1,-.3l.2,-.1c0,-.1,.1,-.2,.2,-.2l1.7,-1.1c.3,-.2,.5,-.4,.8,-.5c.2,-.2,.3,-.4,.5,-.5c.1,-.2,.2,-.4,.3,-.5c.1,-.1,.1,-.3,.2,-.4c0,-.2,0,-.3,0,-.4c0,-.1,-.1,-.2,-.1,-.3c-.1,-.1,-.2,-.2,-.3,-.3c-.1,-.1,-.2,-.1,-.4,-.2c-.2,0,-.4,-.1,-.6,0c-.2,0,-.3,0,-.5,0c-.1,.1,-.3,.1,-.4,.1q-.1,.1,-.2,.1l-.1,-.1v-.3c0,-.1,0,-.2,.1,-.4v-.2l.1,-.1l.1,-.1l.1,-.1c.1,-.1,.2,-.1,.3,-.1c.2,-.1,.3,-.1,.5,-.1c.2,0,.5,0,.7,0c.2,0,.5,0,.7,.1c.4,.1,.7,.2,1,.4c.3,.1,.5,.3,.6,.6c.2,.2,.2,.4,.3,.7c0,.2,0,.5,-.1,.8c0,.2,-.1,.5,-.2,.7c-.1,.2,-.3,.4,-.5,.7c-.2,.2,-.5,.4,-.8,.7c-.4,.3,-.8,.5,-1.4,.9l-1.1,.6l3,.8h.1v.4c0,0,0,.1,0,.2Zm-6,-1.5c-.1,.1,-.1,.2,-.1,.3l-.1,.2l-.1,.1h-.1l-4.3,-1.1q-.1,0,-.2,-.1l-.1,-.1c0,-.1,-.1,-.1,0,-.2c0,-.1,0,-.2,0,-.3c0,-.2,.1,-.3,.1,-.4l.1,-.2l.2,-.2c.1,0,.1,-.1,.2,-.1l1.7,-1.1c.3,-.2,.6,-.4,.8,-.6c.2,-.1,.4,-.3,.5,-.5c.1,-.1,.2,-.3,.3,-.4c.1,-.2,.1,-.3,.2,-.4c0,-.2,0,-.3,0,-.4c0,-.1,-.1,-.2,-.1,-.3q-.1,-.2,-.3,-.3c-.1,-.1,-.2,-.2,-.4,-.2c-.2,-.1,-.4,-.1,-.6,-.1c-.2,.1,-.3,.1,-.5,.1c-.1,.1,-.3,.1,-.4,.1q-.1,.1,-.2,.1l-.1,-.1v-.4c0,0,.1,-.2,.1,-.3v-.2l.1,-.2l.1,-.1h.1c.1,-.1,.2,-.1,.3,-.2c.2,0,.3,0,.6,0c.2,-.1,.4,-.1,.6,-.1c.3,.1,.5,.1,.7,.2c.4,.1,.7,.2,1,.4c.3,.1,.5,.3,.6,.5c.2,.3,.3,.5,.3,.8c0,.2,0,.5,-.1,.8c0,.2,-.1,.5,-.2,.7c-.1,.2,-.3,.4,-.5,.6c-.2,.3,-.5,.5,-.8,.8c-.4,.2,-.8,.5,-1.4,.9l-1,.6l2.9,.8h.1v.4c0,0,0,.1,0,.2Z" class="g2_400"/>
<image clip-path="url(#c0_400)" preserveAspectRatio="none" x="143" y="554" width="174" height="222" xlink:href="img/1.jpg"/>
<path d="M410,572L382.6,726.1" class="g7_400"/>
<path d="M379.5,723.1l1.2,13.7l5.9,-12.5l-7.1,-1.2Z" class="g8_400"/>
<path d="M411.1,572l25.2,154.9" class="g7_400"/>
<path d="M432.4,725.1l5.6,12.5l1.4,-13.7l-7,1.2Z" class="g8_400"/>
<path fill-rule="evenodd" d="M403.7,563.3c0,-1,2.9,-1.8,6.5,-1.8c3.6,0,6.5,.8,6.5,1.8v7.4c0,1,-2.9,1.8,-6.5,1.8c-3.6,0,-6.5,-.8,-6.5,-1.8v-7.4Z" class="g9_400"/>
<path d="M403.7,563.3c0,-1,2.9,-1.8,6.5,-1.8c3.6,0,6.5,.8,6.5,1.8v7.4c0,1,-2.9,1.8,-6.5,1.8c-3.6,0,-6.5,-.8,-6.5,-1.8v-7.4Zm13,0c0,1.1,-2.9,1.9,-6.5,1.9c-3.6,0,-6.5,-.8,-6.5,-1.9" class="ga_400"/>
<path fill-rule="evenodd" d="M400.6,556.9c0,-1,4.5,-1.9,10,-1.9c5.5,0,10,.9,10,1.9v7.9c0,1,-4.5,1.9,-10,1.9c-5.5,0,-10,-.9,-10,-1.9v-7.9Z" class="g9_400"/>
<path d="M400.6,556.9c0,-1,4.5,-1.9,10,-1.9c5.5,0,10,.9,10,1.9v7.9c0,1,-4.5,1.9,-10,1.9c-5.5,0,-10,-.9,-10,-1.9v-7.9Zm20,0c0,1.1,-4.5,2,-10,2c-5.5,0,-10,-.9,-10,-2" class="ga_400"/>
<path d="M547.1,719.7L604.7,572.1" class="g7_400"/>
<path d="M551.3,718.8l-8.1,11.1l1.5,-13.7l6.6,2.6Z" class="g8_400"/>
<path d="M606.2,572.1L595.8,732.8" class="g7_400"/>
<path d="M592.4,730.1l2.7,13.5l4.4,-13l-7.1,-.5Z" class="g8_400"/>
<path fill-rule="evenodd" d="M601.8,561.4c.3,-1,3.3,-.9,6.7,.1c3.4,1,6,2.7,5.7,3.6l-2.1,7c-.3,1,-3.3,.9,-6.7,-.1c-3.5,-1,-6,-2.6,-5.7,-3.6l2.1,-7Z" class="g9_400"/>
<path d="M601.8,561.4c.3,-1,3.3,-.9,6.7,.1c3.4,1,6,2.7,5.7,3.6l-2.1,7c-.3,1,-3.3,.9,-6.7,-.1c-3.5,-1,-6,-2.6,-5.7,-3.6l2.1,-7Zm12.4,3.7c-.3,1,-3.3,.9,-6.7,-.1c-3.4,-1,-6,-2.6,-5.7,-3.6" class="ga_400"/>
<path fill-rule="evenodd" d="M600.3,554c.3,-1,4.8,-.6,10.1,1c5.3,1.6,9.3,3.7,9,4.8l-2.3,7.5c-.3,1,-4.9,.6,-10.1,-1c-5.3,-1.6,-9.3,-3.7,-9,-4.8l2.3,-7.5Z" class="g9_400"/>
<path d="M600.3,554c.3,-1,4.8,-.6,10.1,1c5.3,1.6,9.3,3.7,9,4.8l-2.3,7.5c-.3,1,-4.9,.6,-10.1,-1c-5.3,-1.6,-9.3,-3.7,-9,-4.8l2.3,-7.5m19.1,5.8c-.4,1,-4.9,.6,-10.1,-1c-5.3,-1.6,-9.3,-3.7,-9,-4.8" class="ga_400"/>
<path d="M611.9,682.3c-.3,.4,-.7,.7,-1,.8c-.3,.2,-.7,.3,-1.1,.3c-.4,0,-.8,-.1,-1.1,-.3c-.2,-.3,-.3,-.6,-.3,-1c0,-.2,0,-.5,.1,-.6c.1,-.2,.2,-.4,.4,-.5c.2,-.1,.5,-.2,.7,-.3c.3,-.1,.7,-.1,1.1,-.1h1.2v1.7Zm1.5,-3.4c0,-.5,-.1,-1,-.2,-1.3c-.1,-.4,-.3,-.7,-.5,-1c-.3,-.2,-.6,-.4,-1,-.5c-.4,-.1,-.9,-.2,-1.5,-.2c-.3,0,-.6,0,-.9,.1c-.3,0,-.5,.1,-.8,.2c-.2,.1,-.5,.2,-.7,.3c-.1,.1,-.3,.2,-.4,.2c0,.1,-.1,.2,-.1,.3c0,.1,0,.2,0,.3c0,.1,0,.2,0,.3c0,0,0,.1,0,.1q.1,.1,.1,.1q.1,.1,.1,.1c.1,0,.2,-.1,.4,-.1c.1,-.1,.3,-.2,.5,-.3c.2,-.1,.5,-.2,.8,-.3c.2,-.1,.6,-.1,.9,-.1c.3,0,.6,0,.9,.1c.2,.1,.4,.2,.5,.3c.2,.2,.3,.4,.3,.6c.1,.3,.1,.5,.1,.8v.6h-1.1c-.6,0,-1.1,.1,-1.6,.2c-.5,.1,-.9,.3,-1.3,.5c-.3,.2,-.6,.5,-.8,.8c-.1,.3,-.2,.7,-.2,1.2c0,.3,0,.7,.2,1c.1,.3,.3,.5,.5,.7c.3,.2,.5,.4,.9,.5c.3,.1,.7,.2,1.1,.2c.5,0,.9,-.1,1.4,-.3c.4,-.2,.8,-.5,1.1,-.9v.8q0,.1,.1,.2c0,0,.1,0,.2,0c.1,0,.2,.1,.3,.1c.2,0,.3,-.1,.4,-.1q.1,0,.2,0c0,-.1,.1,-.1,.1,-.2v-5.3Z" class="g2_400"/>
<path d="M626.4,683.5c0,-.1,-.1,-.2,-.1,-.2c0,0,0,-.1,-.1,-.1h-3.1l.9,-1c.5,-.4,.8,-.8,1.1,-1.1c.3,-.3,.5,-.7,.6,-.9c.2,-.3,.3,-.6,.3,-.8c.1,-.2,.1,-.5,.1,-.7c0,-.3,-.1,-.6,-.2,-.8c0,-.3,-.2,-.5,-.4,-.6c-.2,-.2,-.4,-.4,-.7,-.5c-.3,-.1,-.7,-.1,-1.1,-.1c-.2,0,-.4,0,-.7,.1c-.2,0,-.4,.1,-.6,.1c-.2,.1,-.4,.2,-.5,.2c-.1,.1,-.2,.2,-.3,.2q0,.1,-.1,.1q0,.1,0,.2c0,0,0,.1,0,.1c0,.1,0,.2,0,.2c0,.2,0,.3,0,.4q0,.1,0,.2q0,.1,.1,.1c0,0,0,.1,.1,.1c0,0,.1,-.1,.2,-.1c.1,-.1,.2,-.2,.3,-.2c.1,-.1,.3,-.2,.5,-.2c.2,-.1,.4,-.1,.6,-.1c.1,0,.3,0,.4,.1c.1,0,.2,.1,.3,.2c.1,0,.2,.1,.2,.3c0,.1,.1,.2,.1,.3c0,.2,-.1,.3,-.1,.5c0,.1,-.1,.3,-.2,.5c-.1,.2,-.2,.4,-.4,.6c-.1,.2,-.3,.5,-.6,.7l-1.3,1.4c-.1,.1,-.1,.2,-.2,.3c0,0,-.1,.1,-.1,.2c0,.1,-.1,.1,-.1,.2c0,.1,0,.2,0,.4c0,.1,0,.2,0,.3q.1,.1,.1,.2c.1,0,.1,.1,.2,.1c0,0,.1,0,.2,0h4.5q0,-.1,0,-.1c.1,-.1,.1,-.2,.1,-.2c0,-.1,0,-.2,0,-.3c0,-.1,0,-.2,0,-.3Zm-6.1,0c0,-.1,-.1,-.2,-.1,-.2c0,0,0,-.1,-.1,-.1H617l.9,-1c.5,-.4,.8,-.8,1.1,-1.1c.3,-.3,.5,-.7,.6,-.9c.2,-.3,.3,-.6,.3,-.8c.1,-.2,.1,-.5,.1,-.7c0,-.3,-.1,-.6,-.2,-.8c-.1,-.3,-.2,-.5,-.4,-.6c-.2,-.2,-.4,-.4,-.7,-.5c-.3,-.1,-.7,-.1,-1.1,-.1c-.2,0,-.5,0,-.7,.1c-.2,0,-.4,.1,-.6,.1c-.2,.1,-.4,.2,-.5,.2c-.1,.1,-.2,.2,-.3,.2c0,.1,-.1,.1,-.1,.1q0,.1,0,.2c0,0,0,.1,0,.1c0,.1,-.1,.2,-.1,.2c0,.2,.1,.3,.1,.4q0,.1,0,.2q0,.1,.1,.1c0,0,0,.1,.1,.1c0,0,.1,-.1,.2,-.1c.1,-.1,.2,-.2,.3,-.2c.1,-.1,.3,-.2,.5,-.2c.1,-.1,.4,-.1,.6,-.1c.1,0,.3,0,.4,.1c.1,0,.2,.1,.3,.2c.1,0,.1,.1,.2,.3c0,.1,.1,.2,.1,.3c0,.2,-.1,.3,-.1,.5c0,.1,-.1,.3,-.2,.5c-.1,.2,-.2,.4,-.4,.6c-.1,.2,-.3,.5,-.6,.7l-1.3,1.4c-.1,.1,-.1,.2,-.2,.3c0,0,-.1,.1,-.1,.2c0,.1,-.1,.1,-.1,.2c0,.1,0,.2,0,.4c0,.1,0,.2,0,.3q.1,.1,.1,.2c.1,0,.1,.1,.2,.1c0,0,.1,0,.2,0H620q.1,0,.2,0q0,-.1,0,-.1c0,-.1,.1,-.2,.1,-.2c0,-.1,0,-.2,0,-.3c0,-.1,0,-.2,0,-.3Z" class="g2_400"/>
<path d="M435.1,684.1c-.4,.4,-.7,.7,-1.1,.9c-.3,.2,-.6,.2,-1,.2c-.5,0,-.9,-.1,-1.1,-.3c-.3,-.3,-.4,-.6,-.4,-1c0,-.2,0,-.4,.1,-.6c.1,-.2,.3,-.4,.5,-.5c.1,-.1,.4,-.2,.7,-.3c.3,-.1,.6,-.1,1,-.1h1.3v1.7Zm1.4,-3.4c0,-.5,-.1,-.9,-.2,-1.3c-.1,-.4,-.3,-.7,-.5,-.9c-.3,-.3,-.6,-.5,-1,-.6c-.4,-.1,-.9,-.2,-1.4,-.2c-.3,0,-.6,0,-.9,.1c-.3,0,-.6,.1,-.9,.2c-.2,.1,-.4,.2,-.6,.3c-.2,.1,-.3,.2,-.4,.2c-.1,.1,-.2,.2,-.2,.3c0,.1,0,.2,0,.3c0,.1,0,.2,0,.3c0,0,0,.1,.1,.1q0,.1,.1,.2h.1c.1,0,.2,-.1,.3,-.1c.1,-.1,.3,-.2,.5,-.3c.3,-.1,.5,-.2,.8,-.3c.3,-.1,.6,-.1,.9,-.1c.4,0,.7,0,.9,.1c.2,.1,.4,.2,.5,.3c.2,.2,.3,.4,.4,.6c0,.3,.1,.5,.1,.8v.6H434c-.6,0,-1.2,.1,-1.7,.2c-.5,.1,-.9,.3,-1.2,.5c-.4,.2,-.6,.5,-.8,.8c-.2,.3,-.3,.7,-.3,1.2c0,.4,.1,.7,.2,1c.1,.3,.3,.5,.6,.7c.2,.3,.5,.4,.8,.5c.4,.1,.7,.2,1.1,.2c.5,0,1,-.1,1.4,-.3c.4,-.2,.8,-.5,1.1,-.9v.8c0,.1,.1,.1,.1,.2c0,0,.1,0,.2,0c.1,.1,.2,.1,.4,.1c.1,0,.2,0,.3,-.1c.1,0,.2,0,.2,0q.1,-.1,.1,-.2v-5.3Z" class="g2_400"/>
<path d="M449.5,685.3q0,-.1,0,-.2c-.1,0,-.1,-.1,-.1,-.1q-.1,0,-.1,0h-3l.9,-.9c.4,-.5,.8,-.9,1,-1.2c.3,-.3,.5,-.6,.7,-.9c.1,-.3,.2,-.5,.3,-.8c0,-.2,0,-.5,0,-.7c0,-.3,0,-.6,-.1,-.8c-.1,-.2,-.3,-.5,-.5,-.6c-.2,-.2,-.4,-.3,-.7,-.4c-.3,-.1,-.6,-.2,-1,-.2c-.3,0,-.5,0,-.7,.1c-.3,0,-.5,.1,-.7,.1c-.2,.1,-.3,.2,-.5,.3c-.1,0,-.2,.1,-.2,.1q-.1,.1,-.1,.2c0,0,-.1,0,-.1,.1c0,0,0,.1,0,.1c0,.1,0,.2,0,.3c0,.1,0,.2,0,.3c0,.1,0,.2,0,.2q.1,.1,.1,.1c0,.1,.1,.1,.1,.1c0,0,.1,-.1,.2,-.1c.1,-.1,.2,-.2,.3,-.2c.2,-.1,.3,-.2,.5,-.2c.2,-.1,.4,-.1,.6,-.1c.2,0,.3,0,.4,.1c.2,0,.3,.1,.3,.2c.1,.1,.2,.2,.2,.3c.1,.1,.1,.2,.1,.3c0,.2,0,.3,-.1,.5c0,.1,-.1,.3,-.1,.5c-.1,.2,-.3,.4,-.4,.6c-.2,.2,-.4,.5,-.6,.8l-1.4,1.4c0,0,-.1,.1,-.1,.2c-.1,0,-.1,.1,-.2,.2q0,.1,0,.2c0,.1,-.1,.2,-.1,.4c0,.1,.1,.2,.1,.3c0,.1,0,.2,.1,.2c0,0,.1,.1,.1,.1q.1,0,.2,0h4.4c0,0,.1,0,.1,0c0,0,0,-.1,.1,-.1q0,-.1,0,-.2c0,-.1,0,-.2,0,-.3c0,-.1,0,-.2,0,-.3Zm-6.1,0q0,-.1,0,-.2c-.1,0,-.1,-.1,-.1,-.1q-.1,0,-.1,0h-3l.9,-.9c.4,-.5,.8,-.9,1,-1.2c.3,-.3,.5,-.6,.7,-.9c.1,-.3,.2,-.5,.2,-.8c.1,-.2,.1,-.5,.1,-.7c0,-.3,0,-.6,-.1,-.8c-.1,-.2,-.3,-.5,-.5,-.6c-.2,-.2,-.4,-.3,-.7,-.4c-.3,-.1,-.6,-.2,-1,-.2c-.3,0,-.5,0,-.8,.1c-.2,0,-.4,.1,-.6,.1c-.2,.1,-.3,.2,-.5,.3c-.1,0,-.2,.1,-.2,.1q-.1,.1,-.1,.2q-.1,0,-.1,.1c0,0,0,.1,0,.1c0,.1,0,.2,0,.3c0,.1,0,.2,0,.3c0,.1,0,.2,0,.2q.1,.1,.1,.1c0,.1,.1,.1,.1,.1c0,0,.1,-.1,.2,-.1c.1,-.1,.2,-.2,.3,-.2c.2,-.1,.3,-.2,.5,-.2c.2,-.1,.4,-.1,.6,-.1c.2,0,.3,0,.4,.1c.2,0,.3,.1,.3,.2c.1,.1,.2,.2,.2,.3c.1,.1,.1,.2,.1,.3c0,.2,0,.3,-.1,.5c0,.1,-.1,.3,-.1,.5c-.1,.2,-.3,.4,-.4,.6c-.2,.2,-.4,.5,-.7,.8l-1.3,1.4c0,0,-.1,.1,-.2,.2c0,0,0,.1,-.1,.2q0,.1,0,.2c-.1,.1,-.1,.2,-.1,.4c0,.1,.1,.2,.1,.3c0,.1,0,.2,.1,.2c0,0,0,.1,.1,.1q.1,0,.2,0h4.4c0,0,.1,0,.1,0c0,0,0,-.1,.1,-.1q0,-.1,0,-.2c0,-.1,0,-.2,0,-.3c0,-.1,0,-.2,0,-.3Z" class="g2_400"/>
<path d="M378.1,684.2c-.4,.4,-.7,.7,-1.1,.9c-.3,.2,-.6,.3,-1,.3c-.5,0,-.9,-.1,-1.1,-.4c-.3,-.2,-.4,-.5,-.4,-1c0,-.2,0,-.4,.1,-.6c.1,-.2,.2,-.3,.4,-.5c.2,-.1,.5,-.2,.8,-.3c.3,0,.6,-.1,1,-.1h1.3v1.7Zm1.4,-3.4c0,-.5,0,-.9,-.1,-1.3c-.2,-.4,-.3,-.7,-.6,-1c-.2,-.2,-.6,-.4,-1,-.5c-.4,-.2,-.8,-.2,-1.4,-.2c-.3,0,-.6,0,-.9,.1c-.3,0,-.6,.1,-.9,.2c-.2,.1,-.4,.2,-.6,.3c-.2,.1,-.4,.2,-.5,.2c0,.1,-.1,.2,-.1,.3c0,.1,0,.2,0,.3c0,.1,0,.2,0,.3c0,0,0,.1,0,.2q.1,0,.1,.1q.1,0,.2,0c0,0,.1,-.1,.3,-.1c.1,-.1,.3,-.2,.5,-.3c.2,-.1,.5,-.2,.8,-.3c.3,-.1,.6,-.1,.9,-.1c.4,0,.7,0,.9,.1c.2,.1,.4,.2,.6,.3c.1,.2,.2,.4,.3,.6c0,.3,.1,.5,.1,.8v.7H377c-.6,0,-1.2,0,-1.7,.1c-.5,.1,-.9,.3,-1.3,.5c-.3,.2,-.6,.5,-.7,.8c-.2,.4,-.3,.8,-.3,1.2c0,.4,0,.7,.2,1c.1,.3,.3,.6,.5,.8c.3,.2,.6,.4,.9,.5c.3,.1,.7,.1,1.1,.1c.5,0,1,-.1,1.4,-.3c.4,-.2,.8,-.5,1.2,-.8v.8c0,0,0,.1,0,.1q.1,.1,.2,.1c.1,0,.2,0,.4,0c.2,0,.3,0,.4,0c0,0,.1,0,.2,-.1c0,0,0,-.1,0,-.1v-5.4Z" class="g2_400"/>
<path d="M392.6,685.5q0,-.1,0,-.2c-.1,0,-.1,-.1,-.1,-.1c0,0,-.1,0,-.1,0h-1.3v-6.3q0,-.1,0,-.1q0,-.1,-.1,-.1c0,0,-.1,0,-.2,0c-.1,0,-.2,0,-.3,0c-.2,0,-.3,0,-.3,0c-.1,0,-.2,0,-.2,0q-.1,0,-.1,0q-.1,0,-.1,.1l-1.7,1c0,0,0,.1,-.1,.1c0,0,0,.1,0,.1q-.1,.1,-.1,.2c0,0,0,.1,0,.2c0,.2,0,.3,0,.4c.1,0,.1,.1,.1,.1c0,.1,.1,.1,.1,.1c.1,0,.2,-.1,.3,-.1l1.2,-.7v5h-1.4q-.1,0,-.1,0c-.1,0,-.1,.1,-.1,.1q0,.1,0,.2c-.1,.1,-.1,.2,-.1,.3c0,.1,0,.2,.1,.3c0,0,0,.1,0,.1c0,.1,.1,.1,.1,.1q0,.1,.1,.1h4.2c0,0,.1,0,.1,-.1l.1,-.1c0,0,0,-.1,0,-.1c0,-.1,0,-.2,0,-.3c0,-.1,0,-.2,0,-.3Zm-6.1,0c0,-.1,0,-.2,0,-.2q-.1,-.1,-.1,-.2q-.1,0,-.1,0h-3.1l.9,-.9c.5,-.4,.8,-.8,1.1,-1.2c.3,-.3,.5,-.6,.7,-.9c.1,-.3,.2,-.5,.2,-.8c.1,-.2,.1,-.5,.1,-.7c0,-.3,0,-.6,-.1,-.8c-.1,-.2,-.3,-.5,-.5,-.6c-.2,-.2,-.4,-.4,-.7,-.5c-.3,-.1,-.7,-.1,-1,-.1c-.3,0,-.5,0,-.8,.1c-.2,0,-.4,.1,-.6,.1c-.2,.1,-.4,.2,-.5,.3c-.1,0,-.2,.1,-.3,.1c0,.1,-.1,.1,-.1,.2v.1c0,0,0,.1,-.1,.1c0,.1,0,.2,0,.3c0,.1,0,.2,.1,.3c0,.1,0,.2,0,.2q0,.1,.1,.1q0,.1,0,.1c.1,0,.2,-.1,.3,-.1c0,-.1,.2,-.1,.3,-.2c.1,-.1,.3,-.2,.5,-.2c.2,-.1,.4,-.1,.6,-.1c.2,0,.3,0,.4,.1c.1,0,.2,.1,.3,.2c.1,.1,.2,.2,.2,.3c0,.1,.1,.2,.1,.3c0,.2,0,.3,-.1,.5c0,.2,-.1,.3,-.2,.5c-.1,.2,-.2,.4,-.3,.6c-.2,.3,-.4,.5,-.7,.8l-1.3,1.4c-.1,.1,-.1,.2,-.2,.2c0,.1,-.1,.2,-.1,.2c-.1,.1,-.1,.2,-.1,.3c0,.1,0,.2,0,.3c0,.2,0,.3,0,.4c0,0,.1,.1,.1,.2q.1,0,.2,0c0,.1,.1,.1,.2,.1h4.4c0,0,.1,0,.1,-.1l.1,-.1c0,0,0,-.1,0,-.2q0,-.1,0,-.3c0,-.1,0,-.2,0,-.2Z" class="g2_400"/>
<path d="M556,682.6c-.4,.4,-.7,.7,-1.1,.9c-.3,.2,-.6,.3,-1,.3c-.5,0,-.9,-.2,-1.1,-.4c-.3,-.3,-.4,-.6,-.4,-1c0,-.2,0,-.5,.1,-.6c.1,-.2,.2,-.4,.4,-.5c.2,-.2,.5,-.3,.8,-.3c.3,-.1,.6,-.1,1,-.1H556v1.7Zm1.4,-3.5c0,-.5,0,-.9,-.1,-1.3c-.2,-.3,-.3,-.6,-.6,-.9c-.2,-.2,-.6,-.4,-1,-.6c-.4,-.1,-.8,-.2,-1.4,-.2c-.3,0,-.6,.1,-.9,.1c-.3,.1,-.6,.1,-.9,.2c-.2,.1,-.4,.2,-.6,.3c-.2,.1,-.4,.2,-.5,.3c0,.1,-.1,.1,-.1,.2c0,.1,0,.2,0,.4q0,.1,0,.2c0,.1,0,.2,0,.2q.1,.1,.1,.1q.1,0,.2,0c0,0,.1,0,.3,-.1c.1,-.1,.3,-.2,.5,-.3c.2,-.1,.5,-.2,.8,-.2c.3,-.1,.6,-.2,.9,-.2c.4,0,.7,.1,.9,.1c.2,.1,.4,.2,.6,.4c.1,.2,.2,.4,.3,.6c0,.2,.1,.5,.1,.8v.6h-1.1c-.6,0,-1.2,.1,-1.7,.2c-.5,.1,-.9,.3,-1.3,.5c-.3,.2,-.6,.5,-.7,.8c-.2,.3,-.3,.7,-.3,1.2c0,.4,0,.7,.2,1c.1,.3,.3,.5,.5,.8c.3,.2,.6,.3,.9,.4c.3,.1,.7,.2,1.1,.2c.5,0,1,-.1,1.4,-.3c.4,-.2,.8,-.5,1.2,-.9v.8q0,.1,0,.2q.1,0,.2,.1c.1,0,.2,0,.4,0c.2,0,.3,0,.4,0c0,-.1,.1,-.1,.2,-.1q0,-.1,0,-.2v-5.4Z" class="g2_400"/>
<path d="M570.5,683.8c0,0,0,-.1,0,-.1c0,-.1,-.1,-.1,-.1,-.1c0,-.1,-.1,-.1,-.1,-.1h-1.2v-6.3l-.1,-.1h-.1c0,0,-.1,-.1,-.2,-.1c-.1,0,-.2,0,-.3,0c-.1,0,-.2,0,-.3,0c-.1,0,-.2,0,-.2,0q-.1,.1,-.1,.1q-.1,0,-.1,0l-1.6,1.1q-.1,0,-.2,.1v.1c0,0,0,.1,-.1,.1c0,.1,0,.2,0,.3c0,.1,0,.2,.1,.3q0,.1,0,.2q.1,0,.2,0c0,0,.1,0,.2,-.1l1.2,-.6v4.9h-1.4c0,0,-.1,0,-.1,.1c0,0,-.1,0,-.1,.1c0,0,0,.1,0,.1c0,.1,0,.2,0,.3c0,.1,0,.2,0,.3c0,.1,0,.2,0,.2c.1,0,.1,.1,.1,.1c0,0,.1,0,.1,0h4.2c0,0,.1,0,.1,0c0,0,.1,-.1,.1,-.1c0,0,0,-.1,0,-.2c0,-.1,0,-.2,0,-.3c0,-.1,0,-.2,0,-.3Zm-6.1,0q0,-.1,0,-.2c-.1,0,-.1,-.1,-.1,-.1q-.1,0,-.1,0h-3.1l.9,-.9c.5,-.5,.8,-.9,1.1,-1.2c.3,-.4,.5,-.7,.7,-.9c.1,-.3,.2,-.6,.2,-.8c.1,-.3,.1,-.5,.1,-.7c0,-.3,0,-.6,-.1,-.8c-.1,-.3,-.3,-.5,-.5,-.7c-.2,-.2,-.4,-.3,-.7,-.4c-.3,-.1,-.7,-.1,-1.1,-.1c-.2,0,-.4,0,-.7,0c-.2,.1,-.4,.1,-.6,.2c-.2,.1,-.4,.1,-.5,.2c-.1,.1,-.2,.1,-.3,.2c0,0,-.1,.1,-.1,.1c0,0,0,.1,0,.1q0,.1,-.1,.2c0,0,0,.1,0,.2c0,.1,0,.3,.1,.4c0,0,0,.1,0,.2c0,0,0,.1,.1,.1c.1,0,.2,0,.3,-.1c0,0,.2,-.1,.3,-.2c.1,0,.3,-.1,.5,-.2c.1,0,.4,0,.6,0c.2,0,.3,0,.4,0c.1,.1,.2,.1,.3,.2c.1,.1,.2,.2,.2,.3c0,.1,.1,.3,.1,.4c0,.1,0,.3,-.1,.4c0,.2,-.1,.4,-.2,.6c-.1,.2,-.2,.4,-.3,.6c-.2,.2,-.4,.5,-.7,.7l-1.3,1.5c-.1,0,-.2,.1,-.2,.2c0,.1,-.1,.1,-.1,.2q-.1,.1,-.1,.2c0,.1,0,.2,0,.4c0,.1,0,.2,0,.3c0,.1,.1,.2,.1,.2c0,.1,.1,.1,.2,.1c0,0,.1,0,.2,0h4.4c0,0,.1,0,.1,0c0,0,0,-.1,.1,-.1q0,-.1,0,-.2c0,-.1,0,-.2,0,-.3c0,-.1,0,-.2,0,-.3Z" class="g2_400"/>
</svg>