<?xml version="1.0" encoding="UTF-8" standalone="no"?>
<!DOCTYPE svg PUBLIC "-//W3C//DTD SVG 1.1//EN"
"http://www.w3.org/Graphics/SVG/1.1/DTD/svg11.dtd">
<svg viewBox="0 0 811 1017" version="1.1" xmlns="http://www.w3.org/2000/svg" xmlns:xlink="http://www.w3.org/1999/xlink">
<defs>
<style type="text/css"><![CDATA[
.g0_253{
fill: #70A6CC;
}
.g1_253{
fill: #000;
}
.g2_253{
fill: #FFF;
}
.g3_253{
fill: #1A78B6;
}
.g4_253{
fill: none;
stroke: #1A78B6;
stroke-width: 0.982;
stroke-linejoin: round;
}
.g5_253{
fill: none;
stroke: #B0B2B1;
stroke-width: 0.785;
stroke-linecap: square;
stroke-linejoin: round;
}
.g6_253{
fill: none;
stroke: #040504;
stroke-width: 0.785;
stroke-linejoin: round;
}
.g7_253{
fill: #040504;
}
.g8_253{
fill: none;
stroke: #1A78B6;
stroke-width: 1.472;
stroke-linecap: square;
stroke-linejoin: round;
}
.g9_253{
fill: none;
stroke: #040504;
stroke-width: 0.785;
stroke-linecap: square;
}
]]></style>
</defs>
<path d="M156.1,862.1H724.4V840.9H156.1Z" class="g0_253"/>
<path d="M604.5,109.2h.3V82.6h-.3Z" class="g1_253"/>
<path d="M336.3,153.1h.4V126.5h-.4Z" class="g1_253"/>
<path d="M190.9,493.1H541.5V231.8H190.9Z" class="g2_253"/>
<path d="M206.8,484.1c.8,0,1.6,-.3,2.1,-.8c.6,-.6,.9,-1.3,.9,-2.1c0,-.8,-.3,-1.5,-.9,-2.1c-.5,-.5,-1.3,-.9,-2.1,-.9c-.8,0,-1.5,.4,-2.1,.9c-.5,.6,-.8,1.3,-.8,2.1c0,.8,.3,1.5,.8,2.1c.6,.5,1.3,.8,2.1,.8Z" class="g3_253"/>
<path d="M206.8,484.1c.8,0,1.6,-.3,2.1,-.8c.6,-.6,.9,-1.3,.9,-2.1c0,-.8,-.3,-1.5,-.9,-2.1c-.5,-.5,-1.3,-.9,-2.1,-.9c-.8,0,-1.5,.4,-2.1,.9c-.5,.6,-.8,1.3,-.8,2.1c0,.8,.3,1.5,.8,2.1c.6,.5,1.3,.8,2.1,.8Z" class="g4_253"/>
<path d="M302.4,246.6c.8,0,1.6,-.3,2.1,-.8c.6,-.6,.9,-1.3,.9,-2.1c0,-.8,-.3,-1.5,-.9,-2.1c-.5,-.5,-1.3,-.8,-2.1,-.8c-.7,0,-1.5,.3,-2,.8c-.6,.6,-.9,1.3,-.9,2.1c0,.8,.3,1.5,.9,2.1c.5,.5,1.3,.8,2,.8Z" class="g3_253"/>
<path d="M302.4,246.6c.8,0,1.6,-.3,2.1,-.8c.6,-.6,.9,-1.3,.9,-2.1c0,-.8,-.3,-1.5,-.9,-2.1c-.5,-.5,-1.3,-.8,-2.1,-.8c-.7,0,-1.5,.3,-2,.8c-.6,.6,-.9,1.3,-.9,2.1c0,.8,.3,1.5,.9,2.1c.5,.5,1.3,.8,2,.8Z" class="g4_253"/>
<path d="M525.5,365.4c.8,0,1.6,-.3,2.1,-.9c.6,-.5,.9,-1.3,.9,-2.1c0,-.7,-.3,-1.5,-.9,-2c-.5,-.6,-1.3,-.9,-2.1,-.9c-.7,0,-1.5,.3,-2,.9c-.6,.5,-.9,1.3,-.9,2c0,.8,.3,1.6,.9,2.1c.5,.6,1.3,.9,2,.9Z" class="g3_253"/>
<path d="M525.5,365.4c.8,0,1.6,-.3,2.1,-.9c.6,-.5,.9,-1.3,.9,-2.1c0,-.7,-.3,-1.5,-.9,-2c-.5,-.6,-1.3,-.9,-2.1,-.9c-.7,0,-1.5,.3,-2,.9c-.6,.5,-.9,1.3,-.9,2c0,.8,.3,1.6,.9,2.1c.5,.6,1.3,.9,2,.9Z" class="g4_253"/>
<path d="M206.8,493.1V231.8" class="g5_253"/>
<path d="M206.8,493.1v3.4" class="g6_253"/>
<path d="M202.1,500.1c.8,0,1.5,.3,1.9,1c.4,.6,.6,1.5,.6,2.7c0,1.2,-.2,2.2,-.6,2.8c-.4,.6,-1.1,.9,-1.9,.9c-.8,0,-1.4,-.3,-1.8,-.9c-.4,-.6,-.6,-1.6,-.6,-2.8c0,-1.2,.2,-2.1,.6,-2.7c.4,-.7,1,-1,1.8,-1Zm0,.8c-.5,0,-.8,.2,-1.1,.7c-.2,.5,-.4,1.2,-.4,2.2c0,1,.2,1.7,.4,2.2c.3,.5,.6,.8,1.1,.8c.5,0,.9,-.3,1.2,-.8c.2,-.5,.3,-1.2,.3,-2.2c0,-1,-.1,-1.7,-.3,-2.2c-.3,-.5,-.7,-.7,-1.2,-.7Z" class="g7_253"/>
<path d="M206.3,507.4h1v-1.2h-1Z" class="g7_253"/>
<path d="M211.5,500.1c.8,0,1.4,.3,1.8,1c.5,.6,.7,1.5,.7,2.7c0,1.2,-.2,2.2,-.7,2.8c-.4,.6,-1,.9,-1.8,.9c-.8,0,-1.4,-.3,-1.8,-.9c-.5,-.6,-.7,-1.6,-.7,-2.8c0,-1.2,.2,-2.1,.7,-2.7c.4,-.7,1,-1,1.8,-1Zm0,.8c-.5,0,-.9,.2,-1.1,.7c-.3,.5,-.4,1.2,-.4,2.2c0,1,.1,1.7,.4,2.2c.2,.5,.6,.8,1.1,.8c.5,0,.9,-.3,1.1,-.8c.3,-.5,.4,-1.2,.4,-2.2c0,-1,-.1,-1.7,-.4,-2.2c-.2,-.5,-.6,-.7,-1.1,-.7Z" class="g7_253"/>
<path d="M270.6,493.1V231.8" class="g5_253"/>
<path d="M270.6,493.1v3.4" class="g6_253"/>
<path d="M265.9,500.1c.8,0,1.4,.3,1.8,1c.4,.6,.7,1.5,.7,2.7c0,1.2,-.3,2.2,-.7,2.8c-.4,.6,-1,.9,-1.8,.9c-.8,0,-1.4,-.3,-1.9,-.9c-.4,-.6,-.6,-1.6,-.6,-2.8c0,-1.2,.2,-2.1,.6,-2.7c.5,-.7,1.1,-1,1.9,-1Zm0,.8c-.5,0,-.9,.2,-1.1,.7c-.3,.5,-.4,1.2,-.4,2.2c0,1,.1,1.7,.4,2.2c.2,.5,.6,.8,1.1,.8c.5,0,.9,-.3,1.1,-.8c.3,-.5,.4,-1.2,.4,-2.2c0,-1,-.1,-1.7,-.4,-2.2c-.2,-.5,-.6,-.7,-1.1,-.7Z" class="g7_253"/>
<path d="M270.1,507.4h1v-1.2h-1Z" class="g7_253"/>
<path d="M274,506.6h3.4v.8h-4.6v-.8c.4,-.4,.9,-.9,1.6,-1.5c.6,-.7,1,-1.1,1.1,-1.3c.4,-.3,.6,-.6,.7,-.9c.1,-.2,.2,-.4,.2,-.7c0,-.4,-.2,-.7,-.4,-.9c-.3,-.3,-.6,-.4,-1.1,-.4c-.3,0,-.6,.1,-.9,.2c-.4,.1,-.7,.3,-1.1,.5v-1c.4,-.2,.7,-.3,1.1,-.4c.3,0,.6,-.1,.9,-.1c.8,0,1.4,.2,1.8,.6c.4,.3,.7,.8,.7,1.5c0,.2,-.1,.5,-.2,.8c-.1,.3,-.3,.6,-.6,.9c-.1,.1,-.3,.4,-.8,.8c-.4,.5,-1,1.1,-1.8,1.9Z" class="g7_253"/>
<path d="M334.3,493.1V231.8" class="g5_253"/>
<path d="M334.3,493.1v3.4" class="g6_253"/>
<path d="M329.6,500.1c.8,0,1.4,.3,1.9,1c.4,.6,.6,1.5,.6,2.7c0,1.2,-.2,2.2,-.6,2.8c-.5,.6,-1.1,.9,-1.9,.9c-.8,0,-1.4,-.3,-1.8,-.9c-.4,-.6,-.6,-1.6,-.6,-2.8c0,-1.2,.2,-2.1,.6,-2.7c.4,-.7,1,-1,1.8,-1Zm0,.8c-.5,0,-.8,.2,-1.1,.7c-.2,.5,-.4,1.2,-.4,2.2c0,1,.2,1.7,.4,2.2c.3,.5,.6,.8,1.1,.8c.5,0,.9,-.3,1.2,-.8c.2,-.5,.3,-1.2,.3,-2.2c0,-1,-.1,-1.7,-.3,-2.2c-.3,-.5,-.7,-.7,-1.2,-.7Z" class="g7_253"/>
<path d="M333.8,507.4h1v-1.2h-1Z" class="g7_253"/>
<path d="M339.3,500.2h1.2v4.7h1.1v.8h-1.1v1.7h-.9v-1.7h-3.2v-.9l2.9,-4.6Zm.3,.9l-2.5,3.8h2.5v-3.8Z" class="g7_253"/>
<path d="M398.1,493.1V231.8" class="g5_253"/>
<path d="M398.1,493.1v3.4" class="g6_253"/>
<path d="M393.4,500.1c.8,0,1.4,.3,1.8,1c.4,.6,.6,1.5,.6,2.7c0,1.2,-.2,2.2,-.6,2.8c-.4,.6,-1,.9,-1.8,.9c-.8,0,-1.4,-.3,-1.9,-.9c-.4,-.6,-.6,-1.6,-.6,-2.8c0,-1.2,.2,-2.1,.6,-2.7c.5,-.7,1.1,-1,1.9,-1Zm0,.8c-.5,0,-.9,.2,-1.2,.7c-.2,.5,-.3,1.2,-.3,2.2c0,1,.1,1.7,.3,2.2c.3,.5,.7,.8,1.2,.8c.5,0,.8,-.3,1.1,-.8c.2,-.5,.4,-1.2,.4,-2.2c0,-1,-.2,-1.7,-.4,-2.2c-.3,-.5,-.6,-.7,-1.1,-.7Z" class="g7_253"/>
<path d="M397.5,507.4h1.1v-1.2h-1.1Z" class="g7_253"/>
<path d="M404.8,500.4v.9c-.3,-.1,-.5,-.2,-.8,-.3c-.2,0,-.5,-.1,-.7,-.1c-.6,0,-1.1,.2,-1.5,.7c-.3,.4,-.5,1.1,-.5,1.9c.2,-.2,.4,-.5,.7,-.6c.3,-.2,.6,-.2,.9,-.2c.7,0,1.3,.2,1.7,.6c.4,.5,.6,1.1,.6,1.8c0,.7,-.2,1.3,-.6,1.8c-.4,.4,-1,.6,-1.7,.6c-.9,0,-1.5,-.3,-1.9,-.9c-.5,-.6,-.7,-1.6,-.7,-2.8c0,-1.1,.3,-2,.8,-2.7c.5,-.7,1.3,-1,2.2,-1c.2,0,.5,0,.7,.1c.3,0,.5,.1,.8,.2Zm-1.9,3c-.5,0,-.8,.2,-1.1,.5c-.2,.3,-.4,.7,-.4,1.2c0,.5,.2,.9,.4,1.2c.3,.3,.6,.5,1.1,.5c.4,0,.7,-.2,1,-.5c.2,-.3,.4,-.7,.4,-1.2c0,-.5,-.2,-.9,-.4,-1.2c-.3,-.3,-.6,-.5,-1,-.5Z" class="g7_253"/>
<path d="M461.8,493.1V231.8" class="g5_253"/>
<path d="M461.8,493.1v3.4" class="g6_253"/>
<path d="M457.1,500.1c.8,0,1.4,.3,1.8,1c.5,.6,.7,1.5,.7,2.7c0,1.2,-.2,2.2,-.7,2.8c-.4,.6,-1,.9,-1.8,.9c-.8,0,-1.4,-.3,-1.8,-.9c-.5,-.6,-.7,-1.6,-.7,-2.8c0,-1.2,.2,-2.1,.7,-2.7c.4,-.7,1,-1,1.8,-1Zm0,.8c-.5,0,-.9,.2,-1.1,.7c-.3,.5,-.4,1.2,-.4,2.2c0,1,.1,1.7,.4,2.2c.2,.5,.6,.8,1.1,.8c.5,0,.9,-.3,1.1,-.8c.3,-.5,.4,-1.2,.4,-2.2c0,-1,-.1,-1.7,-.4,-2.2c-.2,-.5,-.6,-.7,-1.1,-.7Z" class="g7_253"/>
<path d="M461.3,507.4h1v-1.2h-1Z" class="g7_253"/>
<path d="M465.2,502.1c0,.3,.1,.6,.3,.8c.2,.2,.6,.3,1,.3c.4,0,.7,-.1,1,-.3c.2,-.2,.3,-.5,.3,-.8c0,-.4,-.1,-.7,-.3,-.9c-.3,-.2,-.6,-.3,-1,-.3c-.4,0,-.8,.1,-1,.3c-.2,.2,-.3,.5,-.3,.9Zm.3,1.5c-.4,-.1,-.7,-.3,-1,-.6c-.2,-.3,-.3,-.6,-.3,-1c0,-.6,.2,-1.1,.6,-1.4c.4,-.3,1,-.5,1.7,-.5c.7,0,1.2,.2,1.7,.5c.4,.3,.6,.8,.6,1.4c0,.4,-.2,.7,-.4,1c-.2,.3,-.5,.5,-1,.6c.5,.1,.9,.3,1.1,.6c.3,.3,.4,.7,.4,1.2c0,.7,-.2,1.2,-.6,1.6c-.4,.4,-1,.5,-1.8,.5c-.8,0,-1.4,-.1,-1.8,-.5c-.5,-.4,-.7,-.9,-.7,-1.6c0,-.5,.2,-.9,.4,-1.2c.3,-.3,.6,-.5,1.1,-.6Zm1,.4c-.5,0,-.8,.1,-1.1,.4c-.3,.2,-.4,.6,-.4,1c0,.4,.1,.8,.4,1c.3,.2,.6,.4,1.1,.4c.4,0,.8,-.2,1.1,-.4c.2,-.2,.4,-.6,.4,-1c0,-.4,-.2,-.8,-.4,-1c-.3,-.3,-.7,-.4,-1.1,-.4Z" class="g7_253"/>
<path d="M525.5,493.1V231.8" class="g5_253"/>
<path d="M525.5,493.1v3.4" class="g6_253"/>
<path d="M519,506.6h1.5v-5.5l-1.7,.4v-.9l1.7,-.4h1v6.4h1.6v.8H519v-.8Z" class="g7_253"/>
<path d="M525,507.4h1v-1.2h-1Z" class="g7_253"/>
<path d="M530.2,500.1c.8,0,1.4,.3,1.9,1c.4,.6,.6,1.5,.6,2.7c0,1.2,-.2,2.2,-.6,2.8c-.5,.6,-1.1,.9,-1.9,.9c-.8,0,-1.4,-.3,-1.8,-.9c-.4,-.6,-.7,-1.6,-.7,-2.8c0,-1.2,.3,-2.1,.7,-2.7c.4,-.7,1,-1,1.8,-1Zm0,.8c-.5,0,-.9,.2,-1.1,.7c-.3,.5,-.4,1.2,-.4,2.2c0,1,.1,1.7,.4,2.2c.2,.5,.6,.8,1.1,.8c.5,0,.9,-.3,1.1,-.8c.3,-.5,.4,-1.2,.4,-2.2c0,-1,-.1,-1.7,-.4,-2.2c-.2,-.5,-.6,-.7,-1.1,-.7Z" class="g7_253"/>
<path d="M368.7,515.5l-2,2.6l2.1,2.7h-1.1l-1.5,-2.1l-1.6,2.1h-1l2,-2.8l-1.9,-2.5h1.1l1.4,1.9l1.4,-1.9h1.1Z" class="g7_253"/>
<path d="M190.9,481.2H541.5" class="g5_253"/>
<path d="M190.9,481.2h-3.4" class="g6_253"/>
<path d="M171.5,477.6c.8,0,1.4,.4,1.9,1c.4,.6,.6,1.5,.6,2.8c0,1.2,-.2,2.1,-.6,2.7c-.5,.6,-1.1,1,-1.9,1c-.8,0,-1.4,-.4,-1.8,-1c-.4,-.6,-.6,-1.5,-.6,-2.7c0,-1.3,.2,-2.2,.6,-2.8c.4,-.6,1,-1,1.8,-1Zm0,.8c-.5,0,-.8,.2,-1.1,.7c-.2,.5,-.4,1.3,-.4,2.3c0,.9,.2,1.7,.4,2.2c.3,.5,.6,.7,1.1,.7c.5,0,.9,-.2,1.2,-.7c.2,-.5,.3,-1.3,.3,-2.2c0,-1,-.1,-1.8,-.3,-2.3c-.3,-.5,-.7,-.7,-1.2,-.7Z" class="g7_253"/>
<path d="M175.7,484.9h1v-1.2h-1Z" class="g7_253"/>
<path d="M179.7,484.1H183v.8h-4.5v-.8c.4,-.4,.9,-.9,1.5,-1.5c.6,-.7,1,-1.1,1.2,-1.3c.3,-.3,.5,-.6,.6,-.8c.2,-.3,.2,-.5,.2,-.8c0,-.3,-.1,-.6,-.4,-.9c-.2,-.2,-.6,-.3,-1,-.3c-.3,0,-.6,0,-1,.1c-.3,.1,-.7,.3,-1.1,.5v-1c.4,-.1,.8,-.3,1.1,-.3c.4,-.1,.7,-.2,1,-.2c.7,0,1.3,.2,1.7,.6c.5,.4,.7,.9,.7,1.5c0,.3,-.1,.6,-.2,.8c-.1,.3,-.3,.6,-.6,.9c0,.1,-.3,.4,-.7,.9c-.5,.4,-1.1,1,-1.8,1.8Z" class="g7_253"/>
<path d="M190.9,441.6H541.5" class="g5_253"/>
<path d="M190.9,441.6h-3.4" class="g6_253"/>
<path d="M171.5,438.1c.8,0,1.4,.3,1.9,.9c.4,.6,.6,1.6,.6,2.8c0,1.2,-.2,2.1,-.6,2.7c-.5,.7,-1.1,1,-1.9,1c-.8,0,-1.4,-.3,-1.8,-1c-.4,-.6,-.6,-1.5,-.6,-2.7c0,-1.2,.2,-2.2,.6,-2.8c.4,-.6,1,-.9,1.8,-.9Zm0,.7c-.5,0,-.8,.3,-1.1,.8c-.2,.4,-.4,1.2,-.4,2.2c0,.9,.2,1.7,.4,2.2c.3,.5,.6,.7,1.1,.7c.5,0,.9,-.2,1.2,-.7c.2,-.5,.3,-1.3,.3,-2.2c0,-1,-.1,-1.8,-.3,-2.2c-.3,-.5,-.7,-.8,-1.2,-.8Z" class="g7_253"/>
<path d="M175.7,445.3h1v-1.2h-1Z" class="g7_253"/>
<path d="M181.8,441.5c.4,.1,.8,.3,1,.6c.3,.3,.4,.7,.4,1.2c0,.7,-.2,1.2,-.7,1.6c-.5,.4,-1.2,.6,-2.1,.6c-.3,0,-.6,0,-.9,-.1c-.3,-.1,-.6,-.2,-1,-.3v-.9c.3,.1,.6,.3,.9,.3c.3,.1,.7,.2,1,.2c.6,0,1.1,-.2,1.4,-.4c.3,-.2,.5,-.6,.5,-1c0,-.5,-.2,-.8,-.5,-1c-.3,-.3,-.7,-.4,-1.2,-.4h-.8v-.8h.8c.5,0,.9,-.1,1.1,-.3c.3,-.2,.4,-.4,.4,-.8c0,-.4,-.1,-.6,-.4,-.8c-.2,-.2,-.6,-.3,-1.1,-.3c-.3,0,-.6,0,-.9,.1c-.3,0,-.6,.1,-1,.2v-.8c.4,-.1,.7,-.2,1.1,-.3c.3,0,.6,0,.9,0c.7,0,1.3,.1,1.7,.5c.5,.3,.7,.7,.7,1.3c0,.4,-.1,.7,-.4,1c-.2,.3,-.5,.5,-.9,.6Z" class="g7_253"/>
<path d="M190.9,402H541.5" class="g5_253"/>
<path d="M190.9,402h-3.4" class="g6_253"/>
<path d="M171.5,398.5c.8,0,1.4,.3,1.9,.9c.4,.7,.6,1.6,.6,2.8c0,1.2,-.2,2.1,-.6,2.7c-.5,.7,-1.1,1,-1.9,1c-.8,0,-1.4,-.3,-1.8,-1c-.4,-.6,-.6,-1.5,-.6,-2.7c0,-1.2,.2,-2.1,.6,-2.8c.4,-.6,1,-.9,1.8,-.9Zm0,.7c-.5,0,-.8,.3,-1.1,.8c-.2,.5,-.4,1.2,-.4,2.2c0,1,.2,1.7,.4,2.2c.3,.5,.6,.7,1.1,.7c.5,0,.9,-.2,1.2,-.7c.2,-.5,.3,-1.2,.3,-2.2c0,-1,-.1,-1.7,-.3,-2.2c-.3,-.5,-.7,-.8,-1.2,-.8Z" class="g7_253"/>
<path d="M175.7,405.8h1v-1.3h-1Z" class="g7_253"/>
<path d="M181.2,398.6h1.2v4.7h1.1v.8h-1.1v1.7h-.9v-1.7h-3.2v-1l2.9,-4.5Zm.3,.8l-2.5,3.9h2.5v-3.9Z" class="g7_253"/>
<path d="M190.9,362.4H541.5" class="g5_253"/>
<path d="M190.9,362.4h-3.4" class="g6_253"/>
<path d="M171.5,358.9c.8,0,1.4,.3,1.9,.9c.4,.7,.6,1.6,.6,2.8c0,1.2,-.2,2.1,-.6,2.8c-.5,.6,-1.1,.9,-1.9,.9c-.8,0,-1.4,-.3,-1.8,-.9c-.4,-.7,-.6,-1.6,-.6,-2.8c0,-1.2,.2,-2.1,.6,-2.8c.4,-.6,1,-.9,1.8,-.9Zm0,.8c-.5,0,-.8,.2,-1.1,.7c-.2,.5,-.4,1.2,-.4,2.2c0,1,.2,1.7,.4,2.2c.3,.5,.6,.7,1.1,.7c.5,0,.9,-.2,1.2,-.7c.2,-.5,.3,-1.2,.3,-2.2c0,-1,-.1,-1.7,-.3,-2.2c-.3,-.5,-.7,-.7,-1.2,-.7Z" class="g7_253"/>
<path d="M175.7,366.2h1V365h-1Z" class="g7_253"/>
<path d="M178.8,359h3.8v.8h-2.9v1.8c.2,-.1,.3,-.1,.4,-.1c.2,0,.3,-.1,.5,-.1c.8,0,1.4,.3,1.9,.7c.4,.4,.7,1,.7,1.8c0,.8,-.3,1.3,-.8,1.8c-.4,.4,-1.1,.6,-2,.6c-.3,0,-.6,0,-.9,-.1c-.3,0,-.6,-.1,-1,-.2v-1c.3,.2,.6,.3,.9,.4c.3,.1,.7,.1,1,.1c.5,0,1,-.1,1.3,-.4c.3,-.3,.5,-.7,.5,-1.2c0,-.5,-.2,-.9,-.5,-1.2c-.3,-.3,-.8,-.4,-1.3,-.4c-.3,0,-.5,0,-.8,0c-.2,.1,-.5,.2,-.8,.3V359Z" class="g7_253"/>
<path d="M190.9,322.9H541.5" class="g5_253"/>
<path d="M190.9,322.9h-3.4" class="g6_253"/>
<path d="M171.5,319.3c.8,0,1.4,.3,1.9,1c.4,.6,.6,1.5,.6,2.7c0,1.2,-.2,2.1,-.6,2.8c-.5,.6,-1.1,.9,-1.9,.9c-.8,0,-1.4,-.3,-1.8,-.9c-.4,-.7,-.6,-1.6,-.6,-2.8c0,-1.2,.2,-2.1,.6,-2.7c.4,-.7,1,-1,1.8,-1Zm0,.8c-.5,0,-.8,.2,-1.1,.7c-.2,.5,-.4,1.2,-.4,2.2c0,1,.2,1.7,.4,2.2c.3,.5,.6,.8,1.1,.8c.5,0,.9,-.3,1.2,-.8c.2,-.5,.3,-1.2,.3,-2.2c0,-1,-.1,-1.7,-.3,-2.2c-.3,-.5,-.7,-.7,-1.2,-.7Z" class="g7_253"/>
<path d="M175.7,326.6h1v-1.2h-1Z" class="g7_253"/>
<path d="M182.9,319.6v.9c-.2,-.1,-.5,-.2,-.7,-.3c-.2,0,-.5,-.1,-.7,-.1c-.7,0,-1.2,.2,-1.5,.7c-.3,.4,-.5,1.1,-.6,1.9c.2,-.3,.4,-.5,.7,-.6c.3,-.2,.6,-.2,1,-.2c.7,0,1.3,.2,1.7,.6c.4,.5,.6,1,.6,1.8c0,.7,-.2,1.3,-.7,1.8c-.4,.4,-1,.6,-1.7,.6c-.8,0,-1.4,-.3,-1.9,-.9c-.4,-.7,-.6,-1.6,-.6,-2.8c0,-1.1,.2,-2,.8,-2.7c.5,-.7,1.2,-1,2.1,-1c.3,0,.5,0,.8,.1c.2,0,.5,.1,.7,.2Zm-1.9,3c-.4,0,-.8,.2,-1,.5c-.3,.3,-.4,.7,-.4,1.2c0,.5,.1,.9,.4,1.2c.2,.3,.6,.5,1,.5c.4,0,.8,-.2,1,-.5c.3,-.3,.4,-.7,.4,-1.2c0,-.5,-.1,-.9,-.4,-1.2c-.2,-.3,-.6,-.5,-1,-.5Z" class="g7_253"/>
<path d="M190.9,283.3H541.5" class="g5_253"/>
<path d="M190.9,283.3h-3.4" class="g6_253"/>
<path d="M171.5,279.7c.8,0,1.4,.3,1.9,1c.4,.6,.6,1.5,.6,2.7c0,1.2,-.2,2.2,-.6,2.8c-.5,.6,-1.1,1,-1.9,1c-.8,0,-1.4,-.4,-1.8,-1c-.4,-.6,-.6,-1.6,-.6,-2.8c0,-1.2,.2,-2.1,.6,-2.7c.4,-.7,1,-1,1.8,-1Zm0,.8c-.5,0,-.8,.2,-1.1,.7c-.2,.5,-.4,1.3,-.4,2.2c0,1,.2,1.8,.4,2.2c.3,.5,.6,.8,1.1,.8c.5,0,.9,-.3,1.2,-.8c.2,-.4,.3,-1.2,.3,-2.2c0,-.9,-.1,-1.7,-.3,-2.2c-.3,-.5,-.7,-.7,-1.2,-.7Z" class="g7_253"/>
<path d="M175.7,287h1v-1.2h-1Z" class="g7_253"/>
<path d="M178.6,279.9h4.6v.4l-2.6,6.7h-1l2.4,-6.3h-3.4v-.8Z" class="g7_253"/>
<path d="M190.9,243.7H541.5" class="g5_253"/>
<path d="M190.9,243.7h-3.4" class="g6_253"/>
<path d="M171.5,240.1c.8,0,1.4,.4,1.9,1c.4,.6,.6,1.6,.6,2.8c0,1.2,-.2,2.1,-.6,2.7c-.5,.7,-1.1,1,-1.9,1c-.8,0,-1.4,-.3,-1.8,-1c-.4,-.6,-.6,-1.5,-.6,-2.7c0,-1.2,.2,-2.2,.6,-2.8c.4,-.6,1,-1,1.8,-1Zm0,.8c-.5,0,-.8,.3,-1.1,.7c-.2,.5,-.4,1.3,-.4,2.3c0,.9,.2,1.7,.4,2.2c.3,.5,.6,.7,1.1,.7c.5,0,.9,-.2,1.2,-.7c.2,-.5,.3,-1.3,.3,-2.2c0,-1,-.1,-1.8,-.3,-2.3c-.3,-.4,-.7,-.7,-1.2,-.7Z" class="g7_253"/>
<path d="M175.7,247.4h1v-1.2h-1Z" class="g7_253"/>
<path d="M179.6,242.1c0,.4,.1,.7,.3,.9c.2,.2,.6,.3,1,.3c.4,0,.7,-.1,1,-.3c.2,-.2,.3,-.5,.3,-.9c0,-.4,-.1,-.7,-.3,-.9c-.3,-.2,-.6,-.3,-1,-.3c-.4,0,-.8,.1,-1,.3c-.2,.2,-.3,.5,-.3,.9Zm.3,1.5c-.4,-.1,-.7,-.3,-.9,-.6c-.3,-.2,-.4,-.6,-.4,-1c0,-.6,.2,-1,.6,-1.4c.4,-.3,1,-.5,1.7,-.5c.7,0,1.3,.2,1.7,.5c.4,.4,.6,.8,.6,1.4c0,.4,-.1,.8,-.4,1c-.2,.3,-.5,.5,-.9,.6c.4,.1,.8,.3,1.1,.7c.2,.3,.3,.7,.3,1.1c0,.7,-.2,1.2,-.6,1.6c-.4,.4,-1,.6,-1.8,.6c-.8,0,-1.4,-.2,-1.8,-.6c-.5,-.4,-.7,-.9,-.7,-1.6c0,-.4,.2,-.8,.4,-1.1c.3,-.4,.7,-.6,1.1,-.7Zm1,.4c-.5,0,-.8,.2,-1.1,.4c-.3,.2,-.4,.6,-.4,1c0,.4,.1,.8,.4,1c.3,.3,.6,.4,1.1,.4c.5,0,.8,-.1,1.1,-.4c.2,-.2,.4,-.6,.4,-1c0,-.4,-.2,-.8,-.4,-1c-.3,-.2,-.6,-.4,-1.1,-.4Z" class="g7_253"/>
<path d="M162.9,362.2c.7,.2,1.1,.5,1.3,.7c.2,.3,.3,.6,.3,1v.7h-.8v-.5c0,-.3,0,-.5,-.1,-.6c-.1,-.1,-.4,-.3,-.8,-.5l-.4,-.1l-5.3,2.2v-1l4.2,-1.7l-4.2,-1.6v-1l5.8,2.4Z" class="g7_253"/>
<path d="M206.8,481.2l2,-4.7C271.4,325.3,374.6,284.1,521.1,360.1l4.4,2.3" class="g8_253"/>
<path d="M190.9,493.1V231.8M541.5,493.1V231.8M190.9,493.1H541.5M190.9,231.8H541.5" class="g9_253"/>
<path d="M323.2,225.8l1.5,1.7h-1.4l-1.2,-1.4c-.2,0,-.3,0,-.3,0c-.1,0,-.2,0,-.2,0c-1.2,0,-2.2,-.4,-2.9,-1.2c-.7,-.8,-1.1,-1.9,-1.1,-3.2c0,-1.4,.4,-2.5,1.1,-3.3c.7,-.8,1.7,-1.2,2.9,-1.2c1.2,0,2.1,.4,2.9,1.2c.7,.8,1,1.9,1,3.3c0,.9,-.2,1.8,-.6,2.5c-.4,.7,-.9,1.2,-1.7,1.6Zm-1.6,-7.7c-.9,0,-1.5,.4,-2,1c-.5,.6,-.8,1.5,-.8,2.6c0,1,.3,1.9,.8,2.5c.5,.6,1.1,1,2,1c.8,0,1.5,-.4,2,-1c.5,-.6,.7,-1.5,.7,-2.5c0,-1.1,-.2,-2,-.7,-2.6c-.5,-.6,-1.2,-1,-2,-1Z" class="g7_253"/>
<path d="M329.9,219.3v0Zm-2.7,4.1v-3.9h1.1v3.9c0,.6,.1,1,.3,1.3c.3,.3,.6,.5,1.1,.5c.6,0,1,-.2,1.3,-.6c.4,-.3,.5,-.8,.5,-1.5v-3.6h1.1v6.4h-1.1v-1c-.2,.4,-.5,.7,-.8,.9c-.4,.2,-.8,.3,-1.2,.3c-.8,0,-1.3,-.2,-1.7,-.7c-.4,-.4,-.6,-1.1,-.6,-2Z" class="g7_253"/>
<path d="M339.8,222.3v3.6h-1V225c-.3,.4,-.6,.6,-.9,.8c-.4,.2,-.8,.3,-1.4,.3c-.6,0,-1.1,-.2,-1.5,-.6c-.4,-.3,-.6,-.8,-.6,-1.4c0,-.8,.2,-1.3,.7,-1.7c.5,-.3,1.2,-.5,2.2,-.5h1.5v-.1c0,-.5,-.2,-.9,-.5,-1.2c-.3,-.2,-.8,-.4,-1.4,-.4c-.3,0,-.7,.1,-1,.2c-.4,.1,-.7,.2,-1,.4v-1c.3,-.2,.7,-.3,1.1,-.3c.3,-.1,.7,-.2,1,-.2c1,0,1.7,.3,2.1,.8c.5,.4,.7,1.2,.7,2.2Zm-2.1,.4c-.8,0,-1.4,.1,-1.8,.3c-.3,.2,-.5,.5,-.5,1c0,.4,.2,.7,.4,.9c.3,.2,.6,.3,1,.3c.6,0,1.1,-.2,1.4,-.6c.4,-.4,.6,-1,.6,-1.7v-.2h-1.1Z" class="g7_253"/>
<path d="M342.6,222.7c0,.8,.2,1.4,.5,1.9c.3,.4,.8,.6,1.3,.6c.6,0,1,-.2,1.4,-.6c.3,-.5,.4,-1.1,.4,-1.9c0,-.8,-.1,-1.4,-.4,-1.8c-.4,-.5,-.8,-.7,-1.4,-.7c-.5,0,-1,.2,-1.3,.7c-.3,.4,-.5,1,-.5,1.8Zm3.6,-2.2V217h1.1v8.9h-1.1V225c-.2,.4,-.5,.6,-.8,.8c-.3,.2,-.7,.3,-1.2,.3c-.8,0,-1.4,-.3,-1.9,-.9c-.5,-.6,-.8,-1.5,-.8,-2.5c0,-1,.3,-1.8,.8,-2.4c.5,-.6,1.1,-1,1.9,-1c.5,0,.9,.1,1.2,.3c.3,.2,.6,.5,.8,.9Z" class="g7_253"/>
<path d="M353.2,220.5c-.1,-.1,-.2,-.1,-.4,-.2c-.1,0,-.3,0,-.4,0c-.6,0,-1.1,.2,-1.4,.6c-.3,.4,-.5,.9,-.5,1.6v3.4h-1.1v-6.4h1.1v1c.2,-.4,.5,-.7,.9,-.9c.3,-.2,.8,-.3,1.3,-.3c0,0,.1,0,.2,.1c.1,0,.2,0,.3,0v1.1Z" class="g7_253"/>
<path d="M359.4,222.3v3.6h-1.1V225c-.2,.4,-.5,.6,-.9,.8c-.4,.2,-.8,.3,-1.3,.3c-.7,0,-1.2,-.2,-1.6,-.6c-.4,-.3,-.6,-.8,-.6,-1.4c0,-.8,.3,-1.3,.7,-1.7c.5,-.3,1.3,-.5,2.2,-.5h1.5v-.1c0,-.5,-.2,-.9,-.5,-1.2c-.3,-.2,-.7,-.4,-1.3,-.4c-.4,0,-.7,.1,-1.1,.2c-.3,.1,-.7,.2,-1,.4v-1c.4,-.2,.8,-.3,1.1,-.3c.4,-.1,.7,-.2,1.1,-.2c.9,0,1.6,.3,2.1,.8c.4,.4,.7,1.2,.7,2.2Zm-2.1,.4c-.9,0,-1.5,.1,-1.8,.3c-.4,.2,-.5,.5,-.5,1c0,.4,.1,.7,.4,.9c.2,.2,.5,.3,1,.3c.5,0,1,-.2,1.4,-.6c.3,-.4,.5,-1,.5,-1.7v-.2h-1Z" class="g7_253"/>
<path d="M362.6,217.7v1.8h2.2v.8h-2.2v3.5c0,.5,.1,.9,.2,1c.1,.2,.4,.3,.9,.3h1.1v.8h-1.1c-.8,0,-1.4,-.1,-1.7,-.4c-.3,-.3,-.5,-.9,-.5,-1.7v-3.5h-.7v-.8h.7v-1.8h1.1Z" class="g7_253"/>
<path d="M366.2,217h1v1.3h-1Zm0,2.5h1v6.4h-1Z" class="g7_253"/>
<path d="M374.1,219.7v1c-.3,-.1,-.6,-.3,-.9,-.3c-.3,-.1,-.6,-.2,-.9,-.2c-.7,0,-1.3,.3,-1.6,.7c-.4,.4,-.6,1,-.6,1.8c0,.8,.2,1.4,.6,1.9c.3,.4,.9,.6,1.6,.6c.3,0,.6,0,.9,-.1c.3,-.1,.6,-.2,.9,-.4v1c-.3,.1,-.6,.2,-.9,.3c-.4,.1,-.7,.1,-1.1,.1c-.9,0,-1.7,-.3,-2.3,-.9c-.5,-.6,-.8,-1.4,-.8,-2.5c0,-1,.3,-1.9,.8,-2.5c.6,-.6,1.4,-.9,2.4,-.9c.3,0,.7,.1,1,.1c.3,.1,.6,.2,.9,.3Z" class="g7_253"/>
<path d="M379.7,217.3h3c.9,0,1.5,.2,2,.6c.5,.4,.7,.9,.7,1.6c0,.5,-.1,.9,-.3,1.2c-.3,.3,-.6,.5,-1.1,.6c.6,.1,1,.4,1.3,.8c.3,.4,.5,.9,.5,1.4c0,.8,-.3,1.4,-.8,1.8c-.5,.4,-1.2,.6,-2.2,.6h-3.1v-8.6Zm1.2,1v2.6h1.7c.6,0,1,-.1,1.3,-.3c.2,-.2,.4,-.6,.4,-1c0,-.4,-.2,-.8,-.4,-1c-.3,-.2,-.7,-.3,-1.3,-.3h-1.7Zm0,3.5V225h1.8c.7,0,1.1,-.1,1.4,-.4c.3,-.3,.5,-.7,.5,-1.2c0,-.5,-.2,-.9,-.5,-1.2c-.3,-.2,-.7,-.4,-1.4,-.4h-1.8Z" class="g7_253"/>
<path d="M392.2,222.1c0,-.5,-.2,-1,-.5,-1.3c-.3,-.4,-.7,-.6,-1.3,-.6c-.5,0,-1,.2,-1.4,.5c-.3,.4,-.5,.8,-.6,1.4h3.8Zm1.1,.4v.5h-4.9c0,.7,.3,1.3,.6,1.6c.4,.4,1,.6,1.7,.6c.4,0,.8,0,1.2,-.1c.3,-.1,.7,-.3,1.1,-.5v1c-.4,.2,-.8,.3,-1.2,.4c-.4,.1,-.8,.1,-1.2,.1c-1,0,-1.8,-.3,-2.4,-.9c-.6,-.6,-.9,-1.4,-.9,-2.4c0,-1.1,.3,-1.9,.8,-2.5c.6,-.6,1.4,-1,2.3,-1c.9,0,1.6,.3,2.1,.9c.5,.5,.8,1.3,.8,2.3Z" class="g7_253"/>
<path d="M394.5,219.5h5.1v1l-4,4.6h4v.8h-5.2V225l4,-4.7h-3.9v-.8Z" class="g7_253"/>
<path d="M401.2,217h1v1.3h-1Zm0,2.5h1v6.4h-1Z" class="g7_253"/>
<path d="M408.9,222.1c0,-.5,-.2,-1,-.5,-1.3c-.3,-.4,-.7,-.6,-1.2,-.6c-.6,0,-1.1,.2,-1.5,.5c-.3,.4,-.5,.8,-.6,1.4h3.8Zm1.1,.4v.5h-4.9c0,.7,.3,1.3,.6,1.6c.4,.4,1,.6,1.7,.6c.4,0,.8,0,1.2,-.1c.4,-.1,.7,-.3,1.1,-.5v1c-.4,.2,-.8,.3,-1.2,.4c-.4,.1,-.8,.1,-1.2,.1c-1,0,-1.8,-.3,-2.4,-.9c-.6,-.6,-.9,-1.4,-.9,-2.4c0,-1.1,.3,-1.9,.8,-2.5c.6,-.6,1.4,-1,2.3,-1c.9,0,1.6,.3,2.1,.9c.5,.5,.8,1.3,.8,2.3Z" class="g7_253"/>
<path d="M415.4,220.5c-.1,-.1,-.2,-.1,-.4,-.2c-.1,0,-.3,0,-.4,0c-.6,0,-1.1,.2,-1.4,.6c-.3,.4,-.5,.9,-.5,1.6v3.4h-1v-6.4h1v1c.2,-.4,.5,-.7,.9,-.9c.3,-.2,.8,-.3,1.3,-.3q.1,0,.2,.1c.1,0,.2,0,.3,0v1.1Z" class="g7_253"/>
<path d="M361.5,902.2h.4V875.5h-.4Z" class="g1_253"/>
</svg>