<?xml version="1.0" encoding="UTF-8" standalone="no"?>
<!DOCTYPE svg PUBLIC "-//W3C//DTD SVG 1.1//EN"
"http://www.w3.org/Graphics/SVG/1.1/DTD/svg11.dtd">
<svg viewBox="0 0 811 1017" version="1.1" xmlns="http://www.w3.org/2000/svg" xmlns:xlink="http://www.w3.org/1999/xlink">
<defs>
<style type="text/css"><![CDATA[
.g0_325{
fill: #0E0E0E;
}
]]></style>
</defs>
<path d="M323.4,358.8c0,.6,-.2,1.6,-.3,2.1c-.2,.6,-.7,1.8,-1.1,2.2c-.3,.4,-.7,.8,-1.2,.8c-.5,0,-.8,-.4,-.8,-.9c0,-.6,.1,-1.8,.4,-2.3c.3,-.9,1.2,-2.7,2.4,-2.7c.4,0,.6,.4,.6,.8Zm.2,5.5c.5,0,.8,-.2,1.1,-.6c.3,-.4,.6,-.9,.9,-1.7l-.3,-.1c-.2,.5,-.7,1.9,-1.2,1.9c-.3,0,-.4,-.5,-.4,-.8c0,-.2,0,-.3,0,-.5c.1,-.6,.2,-1.2,.4,-1.9c.1,-.4,.3,-.9,.4,-1.6l1.6,-5.8h-2.3v.2c.4,.1,.5,.1,.7,.2c.2,.1,.3,.3,.3,.4c0,.3,-.1,.6,-.2,.9l-.9,3.4c-.2,-.4,-.4,-.6,-1,-.6c-1,0,-2,.9,-2.5,1.6c-.3,.3,-.5,.6,-.7,.9c-.3,.6,-.6,1.4,-.6,2.2c0,.6,.2,1,.5,1.3c.2,.3,.5,.6,1,.6c1.4,0,1.9,-.9,2.3,-1.7l.1,.1c0,0,0,.1,0,.2c-.1,.1,-.1,.2,-.1,.3c0,.6,.3,1.1,.9,1.1Z" class="g0_325"/>
<path d="M331.4,362.3h7.7v-.9h-7.7Zm0,-3h7.7v-.9h-7.7Z" class="g0_325"/>
<path d="M345.1,351.3h.9V342h-.9Z" class="g0_325"/>
<path d="M345.1,360.3h.9v-9.4h-.9Z" class="g0_325"/>
<path d="M345.1,369.2h.9v-9.3h-.9Z" class="g0_325"/>
<path d="M345.1,378.2h.9v-9.4h-.9Z" class="g0_325"/>
<path d="M361.7,343.4c-2.2,1.4,-3.7,3.8,-3.7,6.8c0,2.8,1.6,5.6,3.6,6.9l.2,-.3c-2,-1.5,-2.5,-3.3,-2.5,-6.6c0,-3.3,.6,-5,2.5,-6.6l-.1,-.2Z" class="g0_325"/>
<path d="M368.5,349.9c0,.8,-.4,1.9,-.9,2.3c-.5,.6,-1.3,1.1,-2.1,1.2l1.5,-5.2c0,0,.1,0,.2,0c.1,0,.2,0,.3,0c.8,0,1,.8,1,1.7Zm-3.1,-1.3l-2.2,7.5c-.1,.5,-.5,.6,-1.1,.6l-.1,.3h3.9l.1,-.3c-.7,0,-1.2,-.1,-1.2,-.6c0,0,0,-.1,0,-.2c0,0,0,-.1,.1,-.3c.1,-.6,.3,-1.2,.5,-1.8c1.3,-.2,2.6,-.7,3.4,-1.4c.8,-.6,1.5,-1.5,1.5,-2.7c0,-1.3,-.9,-2.1,-2.4,-2.1c-.3,0,-.5,.1,-.8,.1l.4,-1.6h-1.4l-.5,2c-.5,.2,-.8,.4,-1.2,.7c-.4,.3,-.7,.6,-1,.9l.3,.2c.4,-.4,1.1,-1,1.7,-1.3Z" class="g0_325"/>
<path d="M373.4,351.8c-.7,0,-1.1,-.5,-1.1,-1.2c0,-.8,.5,-1.6,1.4,-1.6c1.2,0,1.3,1,1.3,1.9c0,.9,-.3,1.4,-.7,2.1c-.3,.4,-.7,.9,-1.2,1.3c-.5,.6,-1.1,1.1,-1.8,1.8v.3h4.6l.3,-2.1h-.3c0,.3,-.1,.4,-.2,.6c-.2,.4,-.5,.6,-1,.6h-2.1v-.1c.4,-.3,.9,-.7,1.3,-1.1c.8,-.6,1.6,-1.3,2,-2.2c.2,-.4,.3,-.8,.3,-1.2c0,-.3,-.1,-.6,-.2,-.9c-.4,-.7,-1.1,-1.2,-2.2,-1.2c-.7,0,-1.3,.2,-1.7,.5c-.4,.4,-.7,.9,-.7,1.5c0,.5,.1,.8,.3,1.1c.2,.2,.5,.4,.9,.4c.5,0,.7,-.2,.8,-.5Z" class="g0_325"/>
<path d="M381.9,350.7h7.6v-.9h-7.6Z" class="g0_325"/>
<path d="M399.4,349.9c0,.8,-.5,1.9,-.9,2.3c-.5,.6,-1.3,1.1,-2.1,1.2l1.4,-5.2c.1,0,.2,0,.3,0c.1,0,.2,0,.3,0c.8,0,1,.8,1,1.7Zm-3.1,-1.3l-2.2,7.5c-.1,.5,-.5,.6,-1.1,.6l-.1,.3h3.9l.1,-.3c-.7,0,-1.3,-.1,-1.3,-.6c0,0,.1,-.1,.1,-.2c0,0,0,-.1,.1,-.3c.1,-.6,.3,-1.2,.5,-1.8c1.3,-.2,2.6,-.7,3.4,-1.4c.8,-.6,1.5,-1.5,1.5,-2.7c0,-1.3,-.9,-2.1,-2.4,-2.1c-.3,0,-.5,.1,-.8,.1l.4,-1.6H397l-.5,2c-.5,.2,-.9,.4,-1.2,.7c-.4,.3,-.7,.6,-1,.9l.3,.2c.4,-.4,1.1,-1,1.7,-1.3Z" class="g0_325"/>
<path d="M403.1,349.3v.2c.3,0,.8,0,1,.1c.3,.2,.3,.3,.3,.8v4.7c0,.2,0,.4,0,.6c-.1,.5,-.7,.5,-1.2,.6v.1h3.4v-.1c-.4,-.1,-.9,-.1,-1.1,-.3c-.1,-.2,-.1,-.5,-.1,-.9v-6.3c-.6,.3,-1.6,.5,-2.3,.5Z" class="g0_325"/>
<path d="M409.1,343.4l-.1,.2c1.9,1.6,2.5,3.3,2.5,6.6c0,3.3,-.6,5.1,-2.5,6.6l.1,.3c2.1,-1.3,3.7,-4.1,3.7,-6.9c0,-3,-1.6,-5.4,-3.7,-6.8Z" class="g0_325"/>
<path d="M426.2,353.5l-3.3,-3.3l3.3,-3.3l-.6,-.6l-3.3,3.3L419,346.3l-.6,.6l3.3,3.3l-3.3,3.3l.6,.6l3.3,-3.3l3.3,3.3l.6,-.6Z" class="g0_325"/>
<path d="M435.5,343.4c-2.2,1.4,-3.7,3.8,-3.7,6.8c0,2.8,1.6,5.6,3.6,6.9l.2,-.3c-1.9,-1.5,-2.5,-3.3,-2.5,-6.6c0,-3.3,.6,-5,2.5,-6.6l-.1,-.2Z" class="g0_325"/>
<path d="M442.3,349.9c0,.8,-.4,1.9,-.9,2.3c-.5,.6,-1.3,1.1,-2.1,1.2l1.5,-5.2c0,0,.1,0,.2,0c.1,0,.2,0,.3,0c.8,0,1,.8,1,1.7Zm-3,-1.3l-2.3,7.5c-.1,.5,-.4,.6,-1.1,.6l-.1,.3h3.9l.1,-.3c-.7,0,-1.2,-.1,-1.2,-.6c0,0,0,-.1,0,-.2c0,0,0,-.1,.1,-.3c.1,-.6,.3,-1.2,.5,-1.8c1.3,-.2,2.6,-.7,3.4,-1.4c.8,-.6,1.5,-1.5,1.5,-2.7c0,-1.3,-.9,-2.1,-2.4,-2.1c-.2,0,-.5,.1,-.8,.1l.4,-1.6h-1.4l-.5,2c-.4,.2,-.8,.4,-1.2,.7c-.4,.3,-.7,.6,-1,.9l.3,.2c.4,-.4,1.1,-1,1.8,-1.3Z" class="g0_325"/>
<path d="M447.4,356.3c-.7,0,-1.2,-.7,-1.2,-1.4c0,-.5,.3,-.9,.8,-.9c-.1,-.3,-.4,-.5,-.7,-.5c-.2,0,-.4,.1,-.5,.1c-.4,.2,-.7,.6,-.7,1.2c0,.2,.1,.5,.2,.7c.4,.6,1.1,1,2.2,1c.8,0,1.4,-.2,1.8,-.6c.4,-.3,.8,-.8,.8,-1.5c0,-.3,-.1,-.5,-.2,-.7c-.2,-.7,-.8,-1.1,-1.5,-1.3v-.1c.4,-.1,.8,-.3,1,-.6c.2,-.3,.4,-.7,.4,-1.2c0,-.2,0,-.5,-.1,-.7c-.4,-.7,-1.2,-1,-2.2,-1c-.6,0,-1.2,.1,-1.5,.4c-.3,.2,-.6,.5,-.6,1c0,.3,.1,.5,.3,.7c.1,.2,.4,.3,.7,.3c.2,0,.3,0,.5,-.1c.1,-.1,.2,-.2,.2,-.3c-.4,0,-.7,-.3,-.7,-.7c0,-.6,.5,-1.1,1.1,-1.1c.8,0,1.2,.7,1.2,1.6c0,.9,-.3,1.7,-1.1,1.7c-.2,0,-.4,-.1,-.6,-.1c-.2,0,-.5,.1,-.5,.3c0,.2,.3,.3,.5,.3c.3,0,.5,-.1,.7,-.2c.9,0,1.1,.8,1.1,1.7c0,1,-.4,2,-1.4,2Z" class="g0_325"/>
<path d="M455.7,350.7h7.6v-.9h-7.6Z" class="g0_325"/>
<path d="M473.2,349.9c0,.8,-.4,1.9,-.9,2.3c-.5,.6,-1.3,1.1,-2.1,1.2l1.5,-5.2c0,0,.1,0,.2,0c.1,0,.2,0,.3,0c.8,0,1,.8,1,1.7Zm-3.1,-1.3l-2.2,7.5c-.1,.5,-.4,.6,-1.1,.6l-.1,.3h3.9l.1,-.3c-.7,0,-1.2,-.1,-1.2,-.6c0,0,0,-.1,0,-.2c0,0,0,-.1,.1,-.3c.1,-.6,.3,-1.2,.5,-1.8c1.3,-.2,2.6,-.7,3.4,-1.4c.8,-.6,1.5,-1.5,1.5,-2.7c0,-1.3,-.9,-2.1,-2.4,-2.1c-.3,0,-.5,.1,-.8,.1l.4,-1.6h-1.4l-.5,2c-.4,.2,-.8,.4,-1.2,.7c-.4,.3,-.7,.6,-1,.9l.3,.2c.4,-.4,1.1,-1,1.7,-1.3Z" class="g0_325"/>
<path d="M476.9,349.3v.2c.4,0,.8,0,1,.1c.3,.2,.3,.3,.3,.8v4.7c0,.2,0,.4,0,.6c-.1,.5,-.7,.5,-1.2,.6v.1h3.4v-.1c-.4,-.1,-.9,-.1,-1.1,-.3c-.1,-.2,-.1,-.5,-.1,-.9v-6.3c-.6,.3,-1.6,.5,-2.3,.5Z" class="g0_325"/>
<path d="M482.9,343.4l-.1,.2c1.9,1.6,2.5,3.3,2.5,6.6c0,3.3,-.6,5.1,-2.5,6.6l.1,.3c2.1,-1.3,3.7,-4.1,3.7,-6.9c0,-3,-1.5,-5.4,-3.7,-6.8Z" class="g0_325"/>
<path d="M349.1,360.7H495.5v-.8H349.1Z" class="g0_325"/>
<path d="M350.9,377.3h.8V363.9h-.8Zm3,0h.8V363.9h-.8Z" class="g0_325"/>
<path d="M361.7,363.7c-2.2,1.4,-3.7,3.8,-3.7,6.9c0,2.7,1.6,5.5,3.6,6.8l.2,-.2c-2,-1.6,-2.5,-3.4,-2.5,-6.7c0,-3.3,.6,-5,2.5,-6.5l-.1,-.3Z" class="g0_325"/>
<path d="M368.5,370.2c0,.9,-.4,1.9,-.9,2.4c-.5,.5,-1.3,1,-2.1,1.2l1.5,-5.2c0,0,.1,-.1,.2,-.1c.1,0,.2,0,.3,0c.8,0,1,.9,1,1.7Zm-3.1,-1.3l-2.2,7.6c-.1,.4,-.5,.5,-1.1,.5l-.1,.3h3.9l.1,-.3c-.7,0,-1.2,0,-1.2,-.5q0,-.1,0,-.2c0,-.1,0,-.2,.1,-.3c.1,-.7,.3,-1.3,.5,-1.9c1.3,-.1,2.6,-.7,3.4,-1.4c.8,-.6,1.5,-1.5,1.5,-2.7c0,-1.3,-.9,-2.1,-2.4,-2.1c-.3,0,-.5,.1,-.8,.2l.4,-1.6h-1.4l-.5,1.9c-.5,.2,-.8,.5,-1.2,.8c-.4,.2,-.7,.5,-1,.8l.3,.3c.4,-.5,1.1,-1.1,1.7,-1.4Z" class="g0_325"/>
<path d="M373.4,372.1c-.7,0,-1.1,-.5,-1.1,-1.2c0,-.8,.5,-1.6,1.4,-1.6c1.2,0,1.3,1,1.3,1.9c0,.9,-.3,1.5,-.7,2.1c-.3,.4,-.7,.9,-1.2,1.4c-.5,.5,-1.1,1.1,-1.8,1.7v.3h4.6l.3,-2h-.3c0,.2,-.1,.4,-.2,.5c-.2,.4,-.5,.6,-1,.6h-2.1v-.1c.4,-.3,.9,-.7,1.3,-1c.8,-.7,1.6,-1.4,2,-2.3c.2,-.4,.3,-.8,.3,-1.2c0,-.3,-.1,-.6,-.2,-.8c-.4,-.8,-1.1,-1.3,-2.2,-1.3c-.7,0,-1.3,.3,-1.7,.6c-.4,.3,-.7,.8,-.7,1.4c0,.5,.1,.8,.3,1.1c.2,.2,.5,.4,.9,.4c.5,0,.7,-.2,.8,-.5Z" class="g0_325"/>
<path d="M381.9,371h7.6v-.8h-7.6Z" class="g0_325"/>
<path d="M399.4,370.2c0,.9,-.5,1.9,-.9,2.4c-.5,.5,-1.3,1,-2.1,1.2l1.4,-5.2c.1,0,.2,-.1,.3,-.1c.1,0,.2,0,.3,0c.8,0,1,.9,1,1.7Zm-3.1,-1.3l-2.2,7.6c-.1,.4,-.5,.5,-1.1,.5l-.1,.3h3.9l.1,-.3c-.7,0,-1.3,0,-1.3,-.5c0,-.1,.1,-.1,.1,-.2c0,-.1,0,-.2,.1,-.3c.1,-.7,.3,-1.3,.5,-1.9c1.3,-.1,2.6,-.7,3.4,-1.4c.8,-.6,1.5,-1.5,1.5,-2.7c0,-1.3,-.9,-2.1,-2.4,-2.1c-.3,0,-.5,.1,-.8,.2l.4,-1.6H397l-.5,1.9c-.5,.2,-.9,.5,-1.2,.8c-.4,.2,-.7,.5,-1,.8l.3,.3c.4,-.5,1.1,-1.1,1.7,-1.4Z" class="g0_325"/>
<path d="M403.1,369.7v.1c.3,0,.8,.1,1,.1c.3,.2,.3,.3,.3,.8v4.7c0,.3,0,.5,0,.6c-.1,.5,-.7,.6,-1.2,.6v.2h3.4v-.2c-.4,0,-.9,0,-1.1,-.2c-.1,-.3,-.1,-.6,-.1,-1v-6.3c-.6,.3,-1.6,.5,-2.3,.6Z" class="g0_325"/>
<path d="M409.1,363.7l-.1,.3c1.9,1.5,2.5,3.2,2.5,6.5c0,3.3,-.6,5.1,-2.5,6.7l.1,.2c2.1,-1.3,3.7,-4.1,3.7,-6.8c0,-3.1,-1.6,-5.5,-3.7,-6.9Z" class="g0_325"/>
<path d="M426.2,373.9l-3.3,-3.3l3.3,-3.3l-.6,-.6l-3.3,3.3L419,366.7l-.6,.6l3.3,3.3l-3.3,3.3l.6,.6l3.3,-3.4l3.3,3.4l.6,-.6Z" class="g0_325"/>
<path d="M435.5,363.7c-2.2,1.4,-3.7,3.8,-3.7,6.9c0,2.7,1.6,5.5,3.6,6.8l.2,-.2c-1.9,-1.6,-2.5,-3.4,-2.5,-6.7c0,-3.3,.6,-5,2.5,-6.5l-.1,-.3Z" class="g0_325"/>
<path d="M442.3,370.2c0,.9,-.4,1.9,-.9,2.4c-.5,.5,-1.3,1,-2.1,1.2l1.5,-5.2c0,0,.1,-.1,.2,-.1c.1,0,.2,0,.3,0c.8,0,1,.9,1,1.7Zm-3,-1.3l-2.3,7.6c-.1,.4,-.4,.5,-1.1,.5l-.1,.3h3.9l.1,-.3c-.7,0,-1.2,0,-1.2,-.5q0,-.1,0,-.2c0,-.1,0,-.2,.1,-.3c.1,-.7,.3,-1.3,.5,-1.9c1.3,-.1,2.6,-.7,3.4,-1.4c.8,-.6,1.5,-1.5,1.5,-2.7c0,-1.3,-.9,-2.1,-2.4,-2.1c-.2,0,-.5,.1,-.8,.2l.4,-1.6h-1.4l-.5,1.9c-.4,.2,-.8,.5,-1.2,.8c-.4,.2,-.7,.5,-1,.8l.3,.3c.4,-.5,1.1,-1.1,1.8,-1.4Z" class="g0_325"/>
<path d="M447.4,376.7c-.7,0,-1.2,-.7,-1.2,-1.4c0,-.6,.3,-1,.8,-1c-.1,-.3,-.4,-.4,-.7,-.4c-.2,0,-.4,0,-.5,.1c-.4,.1,-.7,.6,-.7,1.1c0,.3,.1,.5,.2,.7c.4,.7,1.1,1,2.2,1c.8,0,1.4,-.2,1.8,-.6c.4,-.3,.8,-.8,.8,-1.5c0,-.2,-.1,-.5,-.2,-.7c-.2,-.6,-.8,-1.1,-1.5,-1.3c.4,-.1,.8,-.4,1,-.7c.2,-.3,.4,-.7,.4,-1.1c0,-.3,0,-.5,-.1,-.8c-.4,-.6,-1.2,-1,-2.2,-1c-.6,0,-1.2,.1,-1.5,.4c-.3,.2,-.6,.5,-.6,1c0,.3,.1,.6,.3,.7c.1,.2,.4,.3,.7,.3c.2,0,.3,0,.5,-.1c.1,0,.2,-.1,.2,-.2c-.4,0,-.7,-.4,-.7,-.8c0,-.6,.5,-1.1,1.1,-1.1c.8,0,1.2,.7,1.2,1.6c0,.9,-.3,1.8,-1.1,1.8c-.2,-.1,-.4,-.2,-.6,-.2c-.2,0,-.5,.1,-.5,.3c0,.2,.3,.3,.5,.3c.3,0,.5,-.1,.7,-.2c.9,0,1.1,.8,1.1,1.8c0,1,-.4,2,-1.4,2Z" class="g0_325"/>
<path d="M455.7,371h7.6v-.8h-7.6Z" class="g0_325"/>
<path d="M473.2,370.2c0,.9,-.4,1.9,-.9,2.4c-.5,.5,-1.3,1,-2.1,1.2l1.5,-5.2c0,0,.1,-.1,.2,-.1c.1,0,.2,0,.3,0c.8,0,1,.9,1,1.7Zm-3.1,-1.3l-2.2,7.6c-.1,.4,-.4,.5,-1.1,.5l-.1,.3h3.9l.1,-.3c-.7,0,-1.2,0,-1.2,-.5q0,-.1,0,-.2c0,-.1,0,-.2,.1,-.3c.1,-.7,.3,-1.3,.5,-1.9c1.3,-.1,2.6,-.7,3.4,-1.4c.8,-.6,1.5,-1.5,1.5,-2.7c0,-1.3,-.9,-2.1,-2.4,-2.1c-.3,0,-.5,.1,-.8,.2l.4,-1.6h-1.4l-.5,1.9c-.4,.2,-.8,.5,-1.2,.8c-.4,.2,-.7,.5,-1,.8l.3,.3c.4,-.5,1.1,-1.1,1.7,-1.4Z" class="g0_325"/>
<path d="M476.9,369.7v.1c.4,0,.8,.1,1,.1c.3,.2,.3,.3,.3,.8v4.7c0,.3,0,.5,0,.6c-.1,.5,-.7,.6,-1.2,.6v.2h3.4v-.2c-.4,0,-.9,0,-1.1,-.2c-.1,-.3,-.1,-.6,-.1,-1v-6.3c-.6,.3,-1.6,.5,-2.3,.6Z" class="g0_325"/>
<path d="M482.9,363.7l-.1,.3c1.9,1.5,2.5,3.2,2.5,6.5c0,3.3,-.6,5.1,-2.5,6.7l.1,.2c2.1,-1.3,3.7,-4.1,3.7,-6.8c0,-3.1,-1.5,-5.5,-3.7,-6.9Z" class="g0_325"/>
<path d="M489.9,377.3h.8V363.9h-.8Zm2.9,0h.9V363.9h-.9Z" class="g0_325"/>
<path d="M503.5,360.4c0,-.5,-.4,-.9,-.9,-.9c-.4,0,-.8,.4,-.8,.9c0,.5,.5,.8,.8,.8c.3,0,.9,-.3,.9,-.8Z" class="g0_325"/>
<path d="M513.1,353.5c-2.2,1.4,-3.7,3.8,-3.7,6.8c0,2.8,1.6,5.6,3.6,6.9l.2,-.3c-1.9,-1.5,-2.5,-3.3,-2.5,-6.6c0,-3.3,.6,-5,2.5,-6.6l-.1,-.2Z" class="g0_325"/>
<path d="M519.9,360c0,.8,-.4,1.9,-.9,2.3c-.5,.6,-1.3,1.1,-2.1,1.2l1.5,-5.2c0,0,.2,0,.2,0c.1,0,.2,0,.3,0c.8,0,1,.8,1,1.7Zm-3,-1.3l-2.3,7.5c-.1,.5,-.4,.6,-1.1,.6l-.1,.3h3.9l.1,-.3c-.7,0,-1.2,-.1,-1.2,-.6c0,0,0,-.1,0,-.2c0,0,0,-.1,.1,-.3c.2,-.6,.3,-1.2,.5,-1.8c1.3,-.2,2.6,-.7,3.4,-1.4c.8,-.6,1.5,-1.5,1.5,-2.7c0,-1.3,-.9,-2.1,-2.3,-2.1c-.3,0,-.6,.1,-.9,.1l.5,-1.6h-1.5l-.5,2c-.4,.2,-.8,.4,-1.2,.7c-.4,.3,-.7,.6,-1,.9l.3,.2c.4,-.4,1.1,-1,1.8,-1.3Z" class="g0_325"/>
<path d="M526.9,360.8h7.6v-.9h-7.6Z" class="g0_325"/>
<path d="M544.4,360c0,.8,-.4,1.9,-.9,2.3c-.5,.6,-1.3,1.1,-2.1,1.2l1.5,-5.2c0,0,.2,0,.2,0c.1,0,.2,0,.3,0c.8,0,1,.8,1,1.7Zm-3,-1.3l-2.3,7.5c-.1,.5,-.4,.6,-1.1,.6l-.1,.3h3.9l.1,-.3c-.7,0,-1.2,-.1,-1.2,-.6c0,0,0,-.1,0,-.2c0,0,0,-.1,.1,-.3c.2,-.6,.3,-1.2,.5,-1.8c1.3,-.2,2.6,-.7,3.4,-1.4c.8,-.6,1.5,-1.5,1.5,-2.7c0,-1.3,-.9,-2.1,-2.3,-2.1c-.3,0,-.6,.1,-.9,.1l.5,-1.6H542l-.5,2c-.4,.2,-.8,.4,-1.2,.7c-.4,.3,-.7,.6,-1,.9l.3,.2c.4,-.4,1.1,-1,1.8,-1.3Z" class="g0_325"/>
<path d="M548.1,359.4v.2c.4,0,.8,0,1,.1c.3,.2,.3,.3,.3,.8v4.7c0,.2,0,.4,0,.6c-.1,.5,-.7,.5,-1.2,.6v.1h3.4v-.1c-.4,-.1,-.9,-.1,-1,-.3c-.2,-.2,-.2,-.5,-.2,-1v-6.2c-.6,.3,-1.6,.5,-2.3,.5Z" class="g0_325"/>
<path d="M554.1,353.5l-.1,.2c1.9,1.6,2.5,3.3,2.5,6.6c0,3.3,-.6,5.1,-2.5,6.6l.2,.3c2,-1.3,3.6,-4.1,3.6,-6.9c0,-3,-1.5,-5.4,-3.7,-6.8Z" class="g0_325"/>
<path d="M560.5,351.3h.9V342h-.9Z" class="g0_325"/>
<path d="M560.5,360.3h.9v-9.4h-.9Z" class="g0_325"/>
<path d="M560.5,369.2h.9v-9.3h-.9Z" class="g0_325"/>
<path d="M560.5,378.2h.9v-9.4h-.9Z" class="g0_325"/>
</svg>