<?xml version="1.0" encoding="UTF-8" standalone="no"?>
<!DOCTYPE svg PUBLIC "-//W3C//DTD SVG 1.1//EN"
"http://www.w3.org/Graphics/SVG/1.1/DTD/svg11.dtd">
<svg viewBox="0 0 811 1017" version="1.1" xmlns="http://www.w3.org/2000/svg" xmlns:xlink="http://www.w3.org/1999/xlink">
<defs>
<style type="text/css"><![CDATA[
.g0_104{
fill: #70A6CC;
}
.g1_104{
fill: #000;
}
]]></style>
</defs>
<path d="M142.4,512.4H710.7V491.2H142.4Z" class="g0_104"/>
<path d="M436.2,577.5h.3V526.3h-.3Z" class="g1_104"/>
<path d="M418.8,577.5v3.2l-.3,-.1l-6.3,-2.9l-.3,-.2l.3,-.2l6.3,-2.9l.3,-.1v.3l-.1,.2l-6.3,2.9l-.2,-.4h.2l6.3,2.9l-.2,.4v-3.1Z" class="g1_104"/>
<path d="M418.5,577.5h.3v-2.9h-.3Z" class="g1_104"/>
<path d="M418.6,577.7h.2v-.4h-.2Z" class="g1_104"/>
<path d="M418.8,577.7h17.7v-.4H418.8Z" class="g1_104"/>
<path d="M448.4,592.7h.4V566.1h-.4Z" class="g1_104"/>
<path d="M431,592.7v3.2l-.3,-.1l-6.3,-2.9l-.4,-.2l.4,-.2l6.3,-2.8l.3,-.1v.3l-.1,.2l-6.3,2.8l-.2,-.4h.2l6.3,3l-.2,.3v-3.1Z" class="g1_104"/>
<path d="M430.7,592.7h.3v-2.8h-.3Z" class="g1_104"/>
<path d="M430.8,592.9h.2v-.4h-.2Z" class="g1_104"/>
<path d="M431,592.9h17.8v-.4H431Z" class="g1_104"/>
<path d="M448.6,634.2h.4V608.1h-.4Z" class="g1_104"/>
<path d="M431.1,608v3.2l-.3,-.1l-6.2,-2.9l-.4,-.2l.4,-.2l6.2,-2.9l.3,-.1v.3l-.1,.2l-6.2,2.9l-.2,-.4h.2l6.2,3l-.2,.3l-.1,-.1v-3Z" class="g1_104"/>
<path d="M430.7,608h.4v-2.9h-.4Z" class="g1_104"/>
<path d="M431,608.2h.2v-.4H431Z" class="g1_104"/>
<path d="M431.2,608.2H449v-.4H431.2Z" class="g1_104"/>
<path d="M116.2,623.3h.4V597.1h-.4Z" class="g1_104"/>
<path d="M126,623.3v-3.2l.2,.1l6.4,3l.3,.1l-.3,.2l-6.4,2.9l-.2,.1v-.4l6.4,-2.9l.2,.3h-.2L126,620.6l.2,-.4l.1,.2v2.9Z" class="g1_104"/>
<path d="M126,626.3h.3v-3H126Z" class="g1_104"/>
<path d="M126,623.5h.1v-.3H126Z" class="g1_104"/>
<path d="M116.2,623.5H126v-.3h-9.8Z" class="g1_104"/>
<path d="M116.2,663.9h.4V638.6h-.4Z" class="g1_104"/>
<path d="M126,638.6v-3.2l.2,.1l6.4,2.9l.3,.2l-.3,.1l-6.4,3l-.2,.1v-.5l6.4,-2.9l.2,.3h-.2L126,635.9l.2,-.4l.1,.2v2.9Z" class="g1_104"/>
<path d="M126,641.5h.3v-2.9H126Z" class="g1_104"/>
<path d="M126,638.7h.1v-.3H126Z" class="g1_104"/>
<path d="M116.2,638.7H126v-.3h-9.8Z" class="g1_104"/>
<path d="M431,712.1h.4V654.6H431Z" class="g1_104"/>
<path d="M405,653.9v3.2l-.3,-.1l-6.3,-3l-.4,-.1l.4,-.2l6.3,-3h.3v.2l-.1,.2l-6.3,2.9l-.2,-.3h.2l6.3,2.9l-.2,.4l-.1,-.2v-2.9Z" class="g1_104"/>
<path d="M404.6,653.9h.4v-3h-.4Z" class="g1_104"/>
<path d="M404.8,654h.2v-.3h-.2Z" class="g1_104"/>
<path d="M405,654h26.4v-.3H405Z" class="g1_104"/>
</svg>