<?xml version="1.0" encoding="UTF-8" standalone="no"?>
<!DOCTYPE svg PUBLIC "-//W3C//DTD SVG 1.1//EN"
"http://www.w3.org/Graphics/SVG/1.1/DTD/svg11.dtd">
<svg viewBox="0 0 811 1017" version="1.1" xmlns="http://www.w3.org/2000/svg" xmlns:xlink="http://www.w3.org/1999/xlink">
<defs>
<clipPath id="c0_214"><path d="M107.4,274.4V83.2H298.6V274.4Z"/></clipPath>
<clipPath id="c1_214"><path d="M313.6,274.4V83.2H504.8V274.4Z"/></clipPath>
<clipPath id="c2_214"><path d="M519.1,274.4V83.2H710.3V274.4Z"/></clipPath>
<clipPath id="c3_214"><path d="M107.4,557.3v-192H299.3v192Z"/></clipPath>
<clipPath id="c4_214"><path d="M312.4,557.3v-192H504.3v192Z"/></clipPath>
<clipPath id="c5_214"><path d="M518.4,557.3v-192H710.3v192Z"/></clipPath>
<clipPath id="c6_214"><path d="M143.6,910.3V675.5H378.3V910.3Z"/></clipPath>
</defs>
<image clip-path="url(#c0_214)" preserveAspectRatio="none" x="107" y="83" width="192" height="191" xlink:href="img/1.jpg"/>
<image clip-path="url(#c1_214)" preserveAspectRatio="none" x="314" y="83" width="191" height="191" xlink:href="img/2.jpg"/>
<image clip-path="url(#c2_214)" preserveAspectRatio="none" x="519" y="83" width="191" height="191" xlink:href="img/3.jpg"/>
<image clip-path="url(#c3_214)" preserveAspectRatio="none" x="107" y="365" width="192" height="192" xlink:href="img/4.jpg"/>
<image clip-path="url(#c4_214)" preserveAspectRatio="none" x="312" y="365" width="192" height="192" xlink:href="img/5.jpg"/>
<image clip-path="url(#c5_214)" preserveAspectRatio="none" x="518" y="365" width="192" height="192" xlink:href="img/6.jpg"/>
<image clip-path="url(#c6_214)" preserveAspectRatio="none" x="144" y="675" width="234" height="235" xlink:href="img/7.jpg"/>
</svg>