<?xml version="1.0" encoding="UTF-8" standalone="no"?>
<!DOCTYPE svg PUBLIC "-//W3C//DTD SVG 1.1//EN"
"http://www.w3.org/Graphics/SVG/1.1/DTD/svg11.dtd">
<svg viewBox="0 0 811 1017" version="1.1" xmlns="http://www.w3.org/2000/svg" xmlns:xlink="http://www.w3.org/1999/xlink">
<defs>
<style type="text/css"><![CDATA[
.g0_133{
fill: #0E0E0E;
}
]]></style>
</defs>
<path d="M308.2,162.9c0,-.1,-.1,-.1,-.1,-.1q-.1,0,-.1,0c-4.8,5.4,-5.3,19.2,-5.3,20.8v.7h1.4v-.7c0,-1.2,.8,-14.9,3.9,-20.4c.1,-.1,.2,-.2,.2,-.3Z" class="g0_133"/>
<path d="M302.7,193.5h1.4v-9.6h-1.4Z" class="g0_133"/>
<path d="M308.2,214.7c0,-.2,-.1,-.3,-.2,-.4c-3.1,-5.4,-3.9,-19.1,-3.9,-20.3v-.7h-1.4v.7c0,1.5,.5,15.4,5.3,20.7h.1c0,0,.1,0,.1,0Z" class="g0_133"/>
<path d="M317,168.9c0,-.5,-.4,-1,-.9,-1c-.4,0,-.7,.2,-1,.4c-.3,.2,-.6,.5,-.8,.9c0,-.7,-.5,-1.3,-1.1,-1.3c-1.1,0,-2.1,1.2,-2.4,2l.2,.1c.3,-.5,1.1,-1.7,1.9,-1.7c.3,0,.4,.6,.4,1c0,.3,0,.7,-.2,1.1l-.3,1.2c-.2,.6,-.4,1.4,-.7,1.8c-.2,.3,-.5,.7,-.8,.7c-.5,0,-.8,-.1,-.7,-.5c.1,-.3,.1,-.8,-.4,-.8c-.4,0,-.6,.4,-.6,.8c0,.6,.5,.9,1.1,.9c1,0,1.7,-.7,2.1,-1.4c.1,.8,.5,1.4,1.4,1.4c1.1,0,2,-1.1,2.4,-1.8l-.2,-.2c-.5,.7,-1.2,1.7,-2,1.7c-.4,0,-.6,-.6,-.6,-1.2c0,-.4,.1,-.8,.2,-1.4l.2,-.7c.1,-.6,.3,-1.2,.6,-1.6c.2,-.3,.6,-1,.9,-1c.4,0,.4,.3,.4,.6c0,.4,.1,.6,.4,.6c.4,0,.5,-.3,.5,-.6Z" class="g0_133"/>
<path d="M321.2,173.5c0,.7,-.4,1.4,-.7,1.8c-.5,.4,-1.1,.8,-1.8,1l1.1,-4.1c.1,0,.2,0,.2,0c.1,0,.2,0,.3,0c.6,0,.9,.7,.9,1.3Zm-2.2,-1l-1.6,5.8c-.1,.3,-.3,.4,-.8,.4v.1H319l.1,-.1c-.5,0,-.9,0,-.9,-.4q0,-.1,0,-.2c0,0,.1,-.1,.1,-.2l.4,-1.4c.9,-.1,1.7,-.5,2.3,-1c.5,-.5,1,-1.1,1,-2c0,-1,-.6,-1.6,-1.6,-1.6c-.2,0,-.3,0,-.5,.1l.3,-1.2h-.7l-.4,1.4c-.3,.1,-.6,.3,-.8,.5c-.3,.2,-.5,.4,-.8,.7l.2,.1c.4,-.3,.9,-.7,1.3,-1Z" class="g0_133"/>
<path d="M309.2,194.5c0,.6,.5,.9,1.1,.9c.5,0,.8,-.1,1.3,-.5c.8,-.7,2.1,-2.3,2.8,-3.5c.4,-.6,.8,-1.2,1.1,-1.8c.4,-.7,1.1,-2.1,1.1,-2.9c0,-.2,-.1,-.4,-.2,-.6c0,-.2,-.2,-.3,-.4,-.3c-.2,0,-.3,.1,-.5,.2c-.1,.2,-.2,.4,-.2,.7c0,.4,.2,.9,.2,1.3c0,.6,-.2,1.1,-.4,1.6c-.3,.5,-.5,.9,-.8,1.4h-.1l-.3,-1.9c-.1,-.6,-.3,-1.6,-.4,-2.1c-.2,-.6,-.4,-1.2,-1.4,-1.2c-1.1,0,-1.3,1.8,-1.6,2.6l.3,.1c.2,-.6,.6,-2.3,1.1,-2.3c.3,0,.5,1,.5,1.2c.1,.3,.2,.7,.3,1.4l.6,3.5c-.4,.8,-1.2,1.7,-1.8,2.2c-.2,.1,-.6,.2,-.7,.2c-.1,0,-.2,0,-.3,-.1c-.2,-.3,-.2,-.8,-.6,-.8c-.4,0,-.7,.3,-.7,.7Z" class="g0_133"/>
<path d="M320.8,191.4c0,.7,-.4,1.4,-.8,1.8c-.4,.4,-1,.8,-1.7,1l1.1,-4.1q.1,0,.2,0c.1,0,.2,0,.2,0c.7,0,1,.7,1,1.3Zm-2.2,-1l-1.6,5.8c-.1,.3,-.4,.4,-.8,.4l-.1,.1h2.5l.1,-.1c-.5,0,-.9,0,-.9,-.4q0,-.1,0,-.2c0,0,0,-.1,.1,-.2l.4,-1.4c.9,-.1,1.7,-.5,2.3,-1c.5,-.5,1,-1.1,1,-2c0,-1,-.6,-1.6,-1.6,-1.6c-.2,0,-.4,0,-.5,.1l.3,-1.2h-.7l-.4,1.4c-.3,.1,-.6,.3,-.9,.5c-.2,.2,-.5,.4,-.7,.7l.2,.1c.3,-.3,.9,-.7,1.3,-1Z" class="g0_133"/>
<path d="M313.9,207.7c0,-.3,-.1,-.8,-.1,-1c0,-.3,0,-.6,.1,-.8c0,-.4,.3,-1.5,.7,-1.5c.2,0,.2,.5,.2,.8c0,.9,-.6,1.9,-.9,2.5Zm-2.8,-3c0,0,-1.6,2.3,-1.6,4c0,.8,.5,1.6,1.4,1.6c1,0,1.7,-.6,2.3,-1.3c.2,.8,.6,1.3,1.4,1.3c2.2,0,3.5,-4.1,3.5,-5.4c0,-.6,-.1,-1.2,-.7,-1.2c-.4,0,-.6,.3,-.6,.7c0,.7,.4,1.3,.4,2c0,1.1,-1.1,3.5,-2.3,3.5c-.6,0,-.8,-1.2,-.9,-1.8c.4,-.6,.8,-1.3,1,-1.9c.3,-.5,.4,-1,.4,-1.5c0,-.5,-.2,-1,-.7,-1c-.2,0,-.4,.1,-.6,.3c-.7,.7,-1.1,1.9,-1.1,3.2c0,.2,0,.3,0,.5c0,.2,.1,.8,.1,1c-.3,.4,-.7,.7,-1,.9c-.3,.2,-.5,.3,-.7,.3c-.6,0,-.8,-.6,-.8,-1.3c0,-1.7,.6,-3,1.3,-4.2c.1,-.1,.4,-.4,.4,-.5c0,-.1,0,-.2,-.1,-.2c-.1,0,-.2,.1,-.2,.1c-.1,.1,-.2,.2,-.4,.3c-.1,.2,-.2,.2,-.4,.2c-.3,0,-.5,-.1,-.6,-.2c-.2,-.2,-.4,-.4,-.7,-.4c-.7,0,-1.3,.6,-1.3,1.2c0,.4,.3,.5,.5,.5c.3,0,.5,-.2,.5,-.5c0,-.2,-.3,-.2,-.3,-.4c0,-.1,.1,-.2,.3,-.2c.4,0,.6,.4,.7,.5c.2,.1,.3,.1,.6,0l.2,-.1Z" class="g0_133"/>
<path d="M322.4,209.3c0,.7,-.4,1.4,-.7,1.8c-.4,.4,-1.1,.8,-1.7,1l1,-4.1c.1,0,.2,0,.2,0c.1,0,.2,0,.3,0c.6,0,.9,.7,.9,1.3Zm-2.2,-1l-1.5,5.8c-.2,.3,-.4,.4,-.9,.4v.1h2.5v-.1c-.5,0,-.9,0,-.9,-.4q0,-.1,0,-.2c.1,0,.1,-.1,.1,-.2l.4,-1.4c.9,-.1,1.7,-.5,2.3,-1c.5,-.5,1,-1.1,1,-2c0,-1,-.6,-1.6,-1.6,-1.6c-.2,0,-.3,0,-.5,.1l.3,-1.2h-.7l-.4,1.4c-.3,.1,-.6,.3,-.8,.5c-.3,.2,-.5,.4,-.7,.7l.1,.1c.4,-.3,.9,-.7,1.3,-1Z" class="g0_133"/>
<path d="M325.1,162.9c0,.1,0,.2,.1,.3c3.2,5.5,4,19.2,4,20.4v.7h1.4v-.7c0,-1.6,-.6,-15.4,-5.3,-20.8q-.1,0,-.1,0q-.1,0,-.1,.1Z" class="g0_133"/>
<path d="M329.2,193.5h1.4v-9.6h-1.4Z" class="g0_133"/>
<path d="M325.1,214.7h.2c4.7,-5.3,5.3,-19.2,5.3,-20.7v-.7h-1.4v.7c0,1.2,-.8,14.9,-4,20.3c-.1,.1,-.1,.2,-.1,.4Z" class="g0_133"/>
<path d="M336.1,190.7h7.6v-.9h-7.6Zm0,-3h7.6v-.9h-7.6Z" class="g0_133"/>
<path d="M354.7,162.9q0,-.1,-.1,-.1c0,0,-.1,0,-.1,0c-4.8,5.4,-5.3,19.2,-5.3,20.8v.7h1.4v-.7c0,-1.2,.8,-14.9,4,-20.4c0,-.1,.1,-.2,.1,-.3Z" class="g0_133"/>
<path d="M349.2,193.5h1.4v-9.6h-1.4Z" class="g0_133"/>
<path d="M354.7,214.7c0,-.2,-.1,-.3,-.1,-.4c-3.2,-5.4,-4,-19.1,-4,-20.3v-.7h-1.4v.7c0,1.5,.5,15.4,5.3,20.7c0,0,.1,0,.1,0q.1,0,.1,0Z" class="g0_133"/>
<path d="M360,167.9c-.5,0,-.9,.2,-1.3,.5c-.5,.3,-.9,.7,-1.3,1.1c-.6,.8,-1.2,2,-1.2,3.3c0,1,.4,1.7,1.3,1.7c1.3,0,1.8,-.8,2.2,-1.5c-.2,.9,-.1,1.5,.5,1.5c.4,0,.8,-.1,1.2,-.4c.4,-.4,.7,-.8,1.1,-1.4l-.2,-.2c-.3,.4,-.9,1.4,-1.4,1.4c-.2,0,-.2,-.3,-.2,-.6c0,-.9,.6,-2.4,.9,-3.4l.7,-1.8h-1l-.3,.6c-.1,-.5,-.4,-.8,-1,-.8Zm.1,.3c.7,0,.6,1.3,.5,1.9c-.1,.3,-.2,.6,-.3,1c-.4,1.2,-1.5,3.1,-2.3,3.1c-.6,0,-.8,-1,-.8,-1.5c0,-.4,0,-.8,.2,-1.3c.4,-1,1.4,-3.2,2.7,-3.2Z" class="g0_133"/>
<path d="M382.7,168.3c1.2,0,.9,1.9,.3,3.2c-.3,.8,-1.2,2.7,-2.4,2.7c-.4,0,-.7,-.3,-.7,-1c0,-.7,.3,-1.8,.6,-2.3c.2,-.6,.7,-1.6,1.1,-2c.2,-.3,.6,-.6,1.1,-.6Zm-2.3,6.2c1.7,0,2.9,-1.4,3.5,-2.6c.3,-.6,.6,-1.4,.6,-2.2c0,-1.1,-.5,-1.8,-1.5,-1.8c-.9,0,-1.6,.6,-2,1.2l1.5,-5.6l-2,.1l-.1,.2c.6,0,.9,.3,.9,.6c0,.2,-.1,.6,-.2,.7l-1.6,5.7c-.2,.5,-.3,1,-.4,1.4c-.1,.3,-.1,.7,-.1,.8c0,.9,.6,1.5,1.4,1.5Z" class="g0_133"/>
<path d="M403.2,172.6c0,-.5,.1,-1,.2,-1.5c.3,-.9,1.1,-2.8,2.2,-2.8c.4,0,.4,.1,.4,.2c0,.2,-.1,.3,-.1,.5c0,.3,.2,.6,.5,.6c.4,0,.6,-.3,.6,-.7c0,-.7,-.6,-1,-1.3,-1c-1.4,0,-2.5,1.5,-3.1,2.5c-.3,.6,-.5,1.3,-.5,2.2c0,1.1,.6,1.9,1.7,1.9c1.3,0,2.1,-1,2.6,-2l-.3,-.1c-.5,.9,-1.2,1.8,-2.1,1.8c-.6,0,-.8,-1,-.8,-1.6Z" class="g0_133"/>
<path d="M360.1,187c0,.6,-.2,1.5,-.3,2.1c-.2,.6,-.7,1.7,-1.1,2.2c-.3,.3,-.8,.8,-1.2,.8c-.5,0,-.8,-.4,-.8,-.9c0,-.7,.1,-1.8,.3,-2.3c.4,-.9,1.3,-2.8,2.4,-2.8c.5,0,.7,.4,.7,.9Zm.2,5.4c.4,0,.8,-.2,1.1,-.5c.3,-.4,.6,-1,.9,-1.8L362,190c-.2,.6,-.7,1.9,-1.3,1.9c-.3,0,-.3,-.5,-.3,-.8c0,-.1,0,-.3,0,-.5c.1,-.6,.2,-1.1,.4,-1.8c.1,-.4,.2,-1,.4,-1.6l1.6,-5.8h-2.3v.2c.4,0,.5,.1,.7,.1c.1,.2,.3,.4,.3,.5c0,.3,-.1,.5,-.2,.8l-.9,3.5c-.3,-.4,-.5,-.7,-1.1,-.7c-1,0,-1.9,.9,-2.4,1.6c-.3,.3,-.5,.7,-.7,1c-.3,.6,-.6,1.3,-.6,2.2c0,.6,.2,1,.4,1.3c.2,.3,.6,.5,1.1,.5c1.3,0,1.9,-.8,2.3,-1.6h.1c-.1,.1,-.1,.2,-.1,.3c0,.1,0,.2,0,.3c0,.6,.3,1,.9,1Z" class="g0_133"/>
<path d="M383.1,186.2c.3,0,.5,.2,.5,.6c0,1.3,-1.6,2.3,-2.9,2.6c.3,-1,1.2,-3.2,2.4,-3.2Zm.1,-.4c-1.1,0,-2,.9,-2.6,1.5c-.6,.8,-1.1,1.9,-1.1,3.2c0,1.2,.4,1.9,1.6,1.9c1,0,2,-.7,2.6,-1.7l-.2,-.1c-.4,.6,-1.3,1.5,-2.1,1.5c-.6,0,-.8,-.5,-.8,-1.4c0,-.2,0,-.7,0,-.9c1.5,-.3,4,-1.3,4,-2.9c0,-.7,-.7,-1.1,-1.4,-1.1Z" class="g0_133"/>
<path d="M401.3,195.1c-.3,0,-.4,-.2,-.5,-.5c0,-.2,-.1,-.5,-.5,-.5c-.2,0,-.4,.2,-.4,.4c0,.7,.8,.9,1.3,.9c.9,0,.9,-.2,1.3,-.7c.3,-.3,.4,-.8,.6,-1.3c.2,-.5,.5,-1.1,.7,-2l1.3,-5.1h1.3l.1,-.3h-1.3c.4,-1.2,.8,-3.2,1.2,-3.8c.1,-.2,.4,-.5,.7,-.5c.3,0,.5,.2,.5,.5c.1,.2,.2,.5,.5,.5c.3,0,.4,-.2,.4,-.4c0,-.6,-.8,-.9,-1.3,-.9c-1.8,0,-2.5,3,-2.9,4.6H403l-.1,.3h1.3l-2,7.4c-.1,.3,-.4,1.4,-.9,1.4Z" class="g0_133"/>
<path d="M357.7,206.9c0,-1.3,.6,-2.9,1.7,-2.9c.7,0,.9,.7,.9,1.2c0,1.5,-.6,2.9,-1.7,2.9c-.5,0,-.9,-.6,-.9,-1.2Zm3.4,-2.3q.3,-.2,.5,-.2c.1,0,.2,0,.2,0c.2,.2,.3,.7,.7,.7c.3,0,.5,-.3,.5,-.6c0,-.4,-.5,-.8,-.9,-.8c-.4,0,-.7,.2,-1.1,.7c-.4,-.5,-.9,-.7,-1.5,-.7c-.8,0,-1.5,.4,-1.9,.8c-.5,.5,-.9,1.1,-.9,2c0,.6,.3,1.2,.9,1.6l-.1,.1c-.5,.1,-.8,.3,-1,.5c-.2,.1,-.3,.3,-.3,.5c0,.4,.1,.7,.5,.9c.4,.2,1.1,.4,2,.5c.5,.1,.8,.2,1.1,.4c.3,.2,.4,.4,.4,.6c0,.8,-1.1,1.4,-2.2,1.4c-1.2,0,-2,-.5,-2,-1.3c0,-.5,.3,-.8,.7,-1c-.2,-.1,-.3,-.2,-.6,-.2c-.6,0,-1,.5,-1,1.1c0,.3,0,.5,.1,.7c.6,.7,1.5,1,2.8,1c.9,0,1.7,-.2,2.3,-.6c.4,-.3,.8,-.7,.8,-1.5c0,-.8,-1.2,-1.3,-1.8,-1.5c-.5,-.1,-1.1,-.3,-1.5,-.4c-.2,-.1,-.3,-.2,-.3,-.4c0,-.4,.6,-.4,1.1,-.5c1.6,-.1,2.7,-1.2,2.7,-2.9c0,-.4,0,-.7,-.2,-.9Z" class="g0_133"/>
<path d="M382.5,210.3c1.2,0,1.9,-.9,2.4,-1.7l-.3,-.2c-.3,.4,-.8,1.3,-1.3,1.3c-.3,0,-.4,-.3,-.4,-.5c0,-.4,1.2,-3.7,1.2,-4.2c0,-.8,-.3,-1.3,-1.1,-1.3c-.4,0,-1,.2,-1.3,.4c-.3,.2,-.6,.5,-.9,.8v.2l1.5,-5.8l-2.2,.1l-.1,.2c.4,0,.6,.2,.8,.3c.2,.1,.3,.3,.3,.4c0,.3,-.1,.7,-.2,.9l-2.5,9h.8c.6,-1.7,1.2,-3.7,1.9,-5c.4,-.6,.9,-1.1,1.6,-1.1c.6,0,.4,1,.3,1.4c-.1,.2,-.2,.6,-.3,1c-.5,1.6,-.8,2.4,-.8,3.1c0,.5,.1,.7,.6,.7Z" class="g0_133"/>
<path d="M406.4,201c0,-.4,-.4,-.7,-.8,-.7c-.4,0,-.7,.3,-.7,.7c0,.4,.3,.8,.7,.8c.4,0,.8,-.4,.8,-.8Zm-2.9,9.3c1.4,0,2.1,-1.1,2.4,-1.9l-.2,-.2c-.2,.4,-.8,1.5,-1.4,1.5c-.1,0,-.3,-.3,-.3,-.4c0,-.3,.2,-.9,.3,-1.1l.9,-2.8c.2,-.4,.2,-.6,.2,-.9c0,-.4,0,-.8,-.5,-.8c-.9,0,-2,1.2,-2.3,1.9l.2,.1c.3,-.3,.8,-1.1,1.2,-1.1c.2,0,.2,.2,.2,.3c.1,.3,-.1,.7,-.2,1l-1,2.8c-.1,.3,-.1,.7,-.1,.8c0,.6,.1,.8,.6,.8Z" class="g0_133"/>
<path d="M409.6,162.9c0,.1,0,.2,.1,.3c3.2,5.5,4,19.2,4,20.4v.7h1.4v-.7c0,-1.6,-.6,-15.4,-5.4,-20.8q-.1,0,-.1,.1Z" class="g0_133"/>
<path d="M413.7,193.5h1.4v-9.6h-1.4Z" class="g0_133"/>
<path d="M409.6,214.7h.1c4.8,-5.3,5.4,-19.2,5.4,-20.7v-.7h-1.4v.7c0,1.2,-.8,14.9,-4,20.3c-.1,.1,-.1,.2,-.1,.4Z" class="g0_133"/>
<path d="M427.8,192l-3.3,-3.3l3.3,-3.3l-.6,-.6l-3.3,3.4l-3.3,-3.4l-.6,.6l3.3,3.3L420,192l.6,.6l3.3,-3.3l3.3,3.3l.6,-.6Z" class="g0_133"/>
<path d="M438.2,162.9q0,-.1,-.1,-.1c0,0,-.1,0,-.1,0c-4.8,5.4,-5.3,19.2,-5.3,20.8v.7h1.4v-.7c0,-1.2,.8,-14.9,4,-20.4c0,-.1,.1,-.2,.1,-.3Z" class="g0_133"/>
<path d="M432.7,193.5h1.4v-9.6h-1.4Z" class="g0_133"/>
<path d="M438.2,214.7c0,-.2,-.1,-.3,-.1,-.4c-3.2,-5.4,-4,-19.1,-4,-20.3v-.7h-1.4v.7c0,1.5,.5,15.4,5.3,20.7c0,0,.1,0,.1,0q.1,0,.1,0Z" class="g0_133"/>
<path d="M447.1,168.9c0,-.5,-.5,-1,-1,-1c-.3,0,-.7,.2,-1,.4c-.3,.2,-.6,.5,-.8,.9c0,-.7,-.4,-1.3,-1.1,-1.3c-1.1,0,-2.1,1.2,-2.4,2l.2,.1c.4,-.5,1.1,-1.7,2,-1.7c.2,0,.4,.6,.4,1c0,.3,-.1,.7,-.2,1.1l-.4,1.2c-.2,.6,-.4,1.4,-.7,1.8c-.2,.3,-.4,.7,-.8,.7c-.4,0,-.7,-.1,-.6,-.5c.1,-.3,0,-.8,-.4,-.8c-.5,0,-.7,.4,-.7,.8c0,.6,.5,.9,1.1,.9c1,0,1.7,-.7,2.1,-1.4h.1c.1,.8,.5,1.4,1.3,1.4c1.2,0,2,-1.1,2.4,-1.8l-.1,-.2c-.5,.7,-1.2,1.7,-2,1.7c-.5,0,-.7,-.6,-.7,-1.2c0,-.4,.1,-.8,.2,-1.4l.2,-.7c.1,-.6,.3,-1.2,.6,-1.6c.2,-.3,.6,-1,1,-1c.4,0,.3,.3,.3,.6c0,.4,.1,.6,.5,.6c.3,0,.5,-.3,.5,-.6Z" class="g0_133"/>
<path d="M450.2,169.9c0,-.2,-.2,-.5,-.6,-.5c-.3,0,-.5,.2,-.5,.5c0,.4,.3,.6,.5,.6c.3,0,.6,-.3,.6,-.6Zm-2,6.8c.9,0,1.4,-.8,1.7,-1.4l-.2,-.1c-.1,.3,-.6,1.1,-1,1.1c-.1,0,-.2,-.2,-.2,-.3c0,-.2,.1,-.7,.2,-.8l.7,-2.1c.1,-.3,.1,-.4,.1,-.6c0,-.3,0,-.6,-.3,-.6c-.7,0,-1.5,.8,-1.8,1.4l.2,.1c.2,-.2,.6,-.8,.9,-.8c.1,0,.2,.1,.2,.2c0,.2,-.1,.5,-.2,.7l-.7,2c-.1,.3,-.1,.5,-.1,.7c0,.3,.1,.5,.5,.5Z" class="g0_133"/>
<path d="M439.3,194.5c0,.6,.4,.9,1.1,.9c.4,0,.8,-.1,1.3,-.5c.8,-.7,2,-2.3,2.8,-3.5c.3,-.6,.7,-1.2,1,-1.8c.4,-.7,1.1,-2.1,1.1,-2.9c0,-.2,0,-.4,-.1,-.6c-.1,-.2,-.3,-.3,-.5,-.3c-.2,0,-.3,.1,-.4,.2c-.2,.2,-.2,.4,-.2,.7c0,.4,.2,.9,.2,1.3c0,.6,-.2,1.1,-.5,1.6c-.2,.5,-.4,.9,-.8,1.4h-.1l-.3,-1.9c-.1,-.6,-.3,-1.6,-.4,-2.1c-.2,-.6,-.3,-1.2,-1.3,-1.2c-1.2,0,-1.4,1.8,-1.6,2.6l.3,.1c.1,-.6,.5,-2.3,1,-2.3c.3,0,.5,1,.5,1.2c.1,.3,.2,.7,.3,1.4l.6,3.5c-.3,.8,-1.2,1.7,-1.8,2.2c-.2,.1,-.5,.2,-.7,.2c-.1,0,-.2,0,-.2,-.1c-.2,-.3,-.2,-.8,-.7,-.8c-.4,0,-.6,.3,-.6,.7Z" class="g0_133"/>
<path d="M449.8,187.8c0,-.2,-.3,-.5,-.6,-.5c-.3,0,-.5,.2,-.5,.5c0,.4,.2,.6,.5,.6c.3,0,.6,-.3,.6,-.6Zm-2.1,6.8c1,0,1.5,-.8,1.8,-1.4l-.2,-.1c-.2,.3,-.6,1.1,-1,1.1c-.1,0,-.3,-.2,-.3,-.3c0,-.2,.2,-.7,.3,-.8L449,191c.1,-.3,.1,-.4,.1,-.6c0,-.3,0,-.6,-.3,-.6c-.7,0,-1.5,.8,-1.8,1.4l.2,.1c.2,-.2,.6,-.8,.8,-.8c.2,0,.2,.1,.2,.2c.1,.2,0,.5,-.1,.7l-.7,2c-.1,.3,-.2,.5,-.2,.7c0,.3,.2,.5,.5,.5Z" class="g0_133"/>
<path d="M443.9,207.7c0,-.3,-.1,-.8,-.1,-1c0,-.3,0,-.6,.1,-.8c.1,-.4,.3,-1.5,.7,-1.5c.2,0,.2,.5,.2,.8c0,.9,-.5,1.9,-.9,2.5Zm-2.7,-3c0,0,-1.7,2.3,-1.7,4c0,.8,.5,1.6,1.4,1.6c1,0,1.8,-.6,2.3,-1.3c.2,.8,.6,1.3,1.4,1.3c2.2,0,3.5,-4.1,3.5,-5.4c.1,-.6,-.1,-1.2,-.7,-1.2c-.4,0,-.6,.3,-.6,.7c0,.7,.5,1.3,.5,2c-.1,1.1,-1.2,3.5,-2.3,3.5c-.6,0,-.9,-1.2,-1,-1.8c.4,-.6,.8,-1.3,1.1,-1.9c.2,-.5,.3,-1,.3,-1.5c0,-.5,-.2,-1,-.7,-1c-.2,0,-.4,.1,-.6,.3c-.7,.7,-1.1,1.9,-1.1,3.2c0,.2,0,.3,0,.5c0,.2,.1,.8,.1,1c-.3,.4,-.7,.7,-1,.9c-.3,.2,-.5,.3,-.7,.3c-.6,0,-.7,-.6,-.7,-1.3c0,-1.7,.5,-3,1.2,-4.2c.1,-.1,.5,-.4,.5,-.5c0,-.1,-.1,-.2,-.2,-.2c-.1,0,-.2,.1,-.2,.1c-.1,.1,-.2,.2,-.3,.3c-.2,.2,-.3,.2,-.5,.2c-.2,0,-.4,-.1,-.6,-.2c-.2,-.2,-.4,-.4,-.7,-.4c-.6,0,-1.3,.6,-1.3,1.2c0,.4,.3,.5,.6,.5c.3,0,.4,-.2,.4,-.5c0,-.2,-.2,-.2,-.2,-.4c0,-.1,0,-.2,.2,-.2c.4,0,.6,.4,.8,.5c.2,.1,.3,.1,.6,0l.2,-.1Z" class="g0_133"/>
<path d="M451.4,205.7c0,-.2,-.2,-.5,-.5,-.5c-.3,0,-.6,.2,-.6,.5c0,.4,.3,.6,.6,.6c.2,0,.5,-.3,.5,-.6Zm-2,6.8c.9,0,1.4,-.8,1.7,-1.4l-.2,-.1c-.1,.3,-.5,1.1,-1,1.1c-.1,0,-.2,-.2,-.2,-.3c0,-.2,.1,-.7,.2,-.8l.7,-2.1c.1,-.3,.1,-.4,.1,-.6c0,-.3,0,-.6,-.3,-.6c-.7,0,-1.5,.8,-1.7,1.4l.2,.1c.1,-.2,.5,-.8,.8,-.8c.1,0,.2,.1,.2,.2c0,.2,-.1,.5,-.2,.7l-.7,2c-.1,.3,-.1,.5,-.1,.7c0,.3,.1,.5,.5,.5Z" class="g0_133"/>
<path d="M453.4,162.9c0,.1,.1,.2,.1,.3c3.2,5.5,4,19.2,4,20.4v.7h1.4v-.7c0,-1.6,-.6,-15.4,-5.3,-20.8c0,0,-.1,0,-.1,0q-.1,0,-.1,.1Z" class="g0_133"/>
<path d="M457.5,193.5h1.4v-9.6h-1.4Z" class="g0_133"/>
<path d="M453.4,214.7h.1c0,0,.1,0,.1,0c4.7,-5.3,5.3,-19.2,5.3,-20.7v-.7h-1.4v.7c0,1.2,-.8,14.9,-4,20.3c0,.1,-.1,.2,-.1,.4Z" class="g0_133"/>
<path d="M464.4,190.7H472v-.9h-7.6Zm0,-3H472v-.9h-7.6Z" class="g0_133"/>
<path d="M483,162.9q0,-.1,-.1,-.1h-.1c-4.7,5.4,-5.3,19.2,-5.3,20.8v.7h1.4v-.7c0,-1.2,.8,-14.9,4,-20.4c.1,-.1,.1,-.2,.1,-.3Z" class="g0_133"/>
<path d="M477.5,193.5h1.4v-9.6h-1.4Z" class="g0_133"/>
<path d="M483,214.7c0,-.2,0,-.3,-.1,-.4c-3.2,-5.4,-4,-19.1,-4,-20.3v-.7h-1.4v.7c0,1.5,.6,15.4,5.3,20.7q.1,0,.1,0q.1,0,.1,0Z" class="g0_133"/>
<path d="M488.9,167.9c-.4,0,-.8,.2,-1.3,.5c-.4,.3,-.8,.7,-1.2,1.1c-.6,.8,-1.3,2,-1.3,3.3c0,1,.4,1.7,1.4,1.7c1.2,0,1.7,-.8,2.1,-1.5h.1c-.3,.9,-.1,1.5,.5,1.5c.4,0,.7,-.1,1.1,-.4c.4,-.4,.8,-.8,1.1,-1.4l-.2,-.2c-.2,.4,-.9,1.4,-1.3,1.4c-.2,0,-.3,-.3,-.3,-.6c0,-.9,.6,-2.4,1,-3.4l.7,-1.8h-1l-.3,.6c-.2,-.5,-.5,-.8,-1.1,-.8Zm.2,.3c.7,0,.5,1.3,.4,1.9c0,.3,-.2,.6,-.3,1c-.4,1.2,-1.4,3.1,-2.2,3.1c-.7,0,-.8,-1,-.8,-1.5c0,-.4,0,-.8,.2,-1.3c.4,-1,1.4,-3.2,2.7,-3.2Z" class="g0_133"/>
<path d="M499.5,168.9c0,-.5,-.4,-1,-1,-1c-.3,0,-.6,.2,-.9,.4c-.3,.2,-.6,.5,-.9,.9c0,-.7,-.4,-1.3,-1,-1.3c-1.1,0,-2.1,1.2,-2.5,2l.3,.1c.3,-.5,1,-1.7,1.9,-1.7c.3,0,.4,.6,.4,1c0,.3,0,.7,-.2,1.1l-.3,1.2c-.2,.6,-.4,1.4,-.7,1.8c-.2,.3,-.5,.7,-.8,.7c-.5,0,-.8,-.1,-.7,-.5c.1,-.3,.1,-.8,-.4,-.8c-.4,0,-.6,.4,-.6,.8c0,.6,.5,.9,1.1,.9c1,0,1.7,-.7,2.1,-1.4c.1,.8,.5,1.4,1.3,1.4c1.2,0,2.1,-1.1,2.5,-1.8l-.2,-.2c-.5,.7,-1.2,1.7,-2,1.7c-.4,0,-.6,-.6,-.6,-1.2c0,-.4,0,-.8,.2,-1.4l.1,-.7c.2,-.6,.4,-1.2,.7,-1.6c.1,-.3,.5,-1,.9,-1c.4,0,.4,.3,.4,.6c-.1,.4,.1,.6,.4,.6c.4,0,.5,-.3,.5,-.6Z" class="g0_133"/>
<path d="M502.7,169.9c0,-.2,-.3,-.5,-.6,-.5c-.3,0,-.5,.2,-.5,.5c0,.4,.2,.6,.5,.6c.3,0,.6,-.3,.6,-.6Zm-2.1,6.8c1,0,1.5,-.8,1.8,-1.4l-.2,-.1c-.2,.3,-.6,1.1,-1,1.1c-.2,0,-.3,-.2,-.3,-.3c0,-.2,.2,-.7,.2,-.8l.7,-2.1c.1,-.3,.2,-.4,.2,-.6c0,-.3,0,-.6,-.4,-.6c-.7,0,-1.5,.8,-1.7,1.4l.2,.1c.1,-.2,.5,-.8,.8,-.8c.2,0,.2,.1,.2,.2c0,.2,-.1,.5,-.1,.7l-.8,2c-.1,.3,-.1,.5,-.1,.7c0,.3,.1,.5,.5,.5Z" class="g0_133"/>
<path d="M511.2,170.2h-3.3v.9h3.3v3.3h1v-3.3h3.2v-.9h-3.2v-3.3h-1v3.3Z" class="g0_133"/>
<path d="M523.2,168.3c1.2,0,.9,1.9,.4,3.2c-.4,.8,-1.3,2.7,-2.4,2.7c-.5,0,-.7,-.3,-.7,-1c0,-.7,.3,-1.8,.5,-2.3c.3,-.6,.7,-1.6,1.1,-2c.3,-.3,.6,-.6,1.1,-.6Zm-2.2,6.2c1.6,0,2.8,-1.4,3.4,-2.6c.4,-.6,.7,-1.4,.7,-2.2c0,-1.1,-.5,-1.8,-1.6,-1.8c-.9,0,-1.6,.6,-1.9,1.2h-.1l1.6,-5.6l-2.1,.1l-.1,.2c.6,0,.9,.3,.9,.6c0,.2,-.1,.6,-.2,.7l-1.6,5.7c-.1,.5,-.3,1,-.3,1.4c-.1,.3,-.2,.7,-.2,.8c0,.9,.6,1.5,1.5,1.5Z" class="g0_133"/>
<path d="M525,176.6c0,.6,.5,.9,1.1,.9c.5,0,.9,-.1,1.3,-.5c.9,-.7,2.1,-2.3,2.8,-3.5c.4,-.6,.8,-1.2,1.1,-1.8c.4,-.7,1.1,-2.1,1.1,-2.9c0,-.2,-.1,-.4,-.1,-.6c-.1,-.2,-.3,-.3,-.5,-.3c-.2,0,-.3,.1,-.4,.2c-.2,.2,-.3,.4,-.3,.7c0,.4,.3,.9,.3,1.3c0,.6,-.3,1.1,-.5,1.6c-.2,.5,-.5,.9,-.8,1.4H530l-.3,-1.9c-.1,-.6,-.3,-1.6,-.4,-2.1c-.2,-.6,-.4,-1.2,-1.4,-1.2c-1.1,0,-1.3,1.8,-1.6,2.6l.4,.1c.1,-.6,.5,-2.3,1,-2.3c.3,0,.5,1,.5,1.2c.1,.3,.2,.7,.3,1.4l.6,3.5c-.4,.8,-1.2,1.7,-1.8,2.2c-.2,.1,-.5,.2,-.7,.2c-.1,0,-.2,0,-.2,-.1c-.3,-.3,-.3,-.8,-.7,-.8c-.4,0,-.7,.3,-.7,.7Z" class="g0_133"/>
<path d="M535.6,169.9c0,-.2,-.3,-.5,-.6,-.5c-.3,0,-.5,.2,-.5,.5c0,.4,.2,.6,.5,.6c.3,0,.6,-.3,.6,-.6Zm-2.1,6.8c1,0,1.5,-.8,1.8,-1.4l-.2,-.1c-.2,.3,-.6,1.1,-1,1.1c-.1,0,-.3,-.2,-.3,-.3c0,-.2,.2,-.7,.2,-.8l.8,-2.1c.1,-.3,.1,-.4,.1,-.6c0,-.3,0,-.6,-.4,-.6c-.6,0,-1.5,.8,-1.7,1.4l.2,.1c.2,-.2,.6,-.8,.8,-.8c.2,0,.2,.1,.2,.2c.1,.2,0,.5,-.1,.7l-.7,2c-.1,.3,-.2,.5,-.2,.7c0,.3,.2,.5,.5,.5Z" class="g0_133"/>
<path d="M544.1,170.2h-3.2v.9h3.2v3.3h1v-3.3h3.3v-.9h-3.3v-3.3h-1v3.3Z" class="g0_133"/>
<path d="M553.4,172.6c0,-.5,.1,-1,.2,-1.5c.3,-.9,1.1,-2.8,2.3,-2.8c.3,0,.3,.1,.3,.2c0,.2,-.1,.3,-.1,.5c0,.3,.2,.6,.6,.6c.4,0,.6,-.3,.6,-.7c0,-.7,-.6,-1,-1.3,-1c-1.4,0,-2.5,1.5,-3.1,2.5c-.3,.6,-.6,1.3,-.6,2.2c0,1.1,.6,1.9,1.7,1.9c1.3,0,2.1,-1,2.6,-2l-.2,-.1c-.5,.9,-1.3,1.8,-2.1,1.8c-.6,0,-.9,-1,-.9,-1.6Z" class="g0_133"/>
<path d="M563.3,171.9c0,-.3,-.1,-.8,-.1,-1c0,-.3,0,-.6,.1,-.8c0,-.4,.3,-1.5,.7,-1.5c.2,0,.2,.5,.2,.8c0,.9,-.5,1.9,-.9,2.5Zm-2.8,-3c0,0,-1.6,2.3,-1.6,4c0,.8,.5,1.6,1.4,1.6c1,0,1.7,-.6,2.3,-1.3c.2,.8,.6,1.3,1.4,1.3c2.2,0,3.5,-4.1,3.5,-5.4c0,-.6,-.1,-1.2,-.7,-1.2c-.4,0,-.6,.3,-.6,.7c0,.7,.5,1.3,.4,2c0,1.1,-1.1,3.5,-2.3,3.5c-.5,0,-.8,-1.2,-.9,-1.8c.4,-.6,.8,-1.3,1.1,-1.9c.2,-.5,.3,-1,.3,-1.5c0,-.5,-.2,-1,-.7,-1c-.2,0,-.4,.1,-.6,.3c-.7,.7,-1.1,1.9,-1.1,3.2c0,.2,0,.3,0,.5c0,.2,.1,.8,.1,1c-.3,.4,-.7,.7,-1,.9c-.3,.2,-.5,.3,-.7,.3c-.6,0,-.8,-.6,-.8,-1.3c0,-1.7,.6,-3,1.3,-4.2c.1,-.1,.5,-.4,.5,-.5c0,-.1,-.1,-.2,-.2,-.2c-.1,0,-.2,.1,-.2,.1c-.1,.1,-.2,.2,-.4,.3c-.1,.2,-.2,.2,-.4,.2c-.3,0,-.4,-.1,-.6,-.2c-.2,-.2,-.4,-.4,-.7,-.4c-.6,0,-1.3,.6,-1.3,1.1c0,.5,.3,.6,.6,.6c.2,0,.4,-.2,.4,-.5c0,-.2,-.3,-.2,-.3,-.4c0,-.1,.1,-.2,.3,-.2c.4,0,.6,.4,.8,.5q.2,.1,.6,0l.1,-.1Z" class="g0_133"/>
<path d="M570.8,169.9c0,-.2,-.2,-.5,-.6,-.5c-.3,0,-.5,.2,-.5,.5c0,.4,.3,.6,.5,.6c.3,0,.6,-.3,.6,-.6Zm-2,6.8c.9,0,1.4,-.8,1.7,-1.4l-.2,-.1c-.2,.3,-.6,1.1,-1,1.1c-.1,0,-.2,-.2,-.2,-.3c0,-.2,.1,-.7,.2,-.8l.7,-2.1c.1,-.3,.1,-.4,.1,-.6c0,-.3,0,-.6,-.3,-.6c-.7,0,-1.5,.8,-1.8,1.4l.2,.1c.2,-.2,.6,-.8,.9,-.8c.1,0,.2,.1,.2,.2c0,.2,-.1,.5,-.2,.7l-.7,2c-.1,.3,-.1,.5,-.1,.7c0,.3,.1,.5,.5,.5Z" class="g0_133"/>
<path d="M488.1,187c0,.6,-.2,1.5,-.3,2.1c-.2,.6,-.7,1.7,-1.1,2.2c-.3,.3,-.7,.8,-1.2,.8c-.5,0,-.8,-.4,-.8,-.9c0,-.7,.1,-1.8,.4,-2.3c.3,-.9,1.2,-2.8,2.4,-2.8c.4,0,.6,.4,.6,.9Zm.2,5.4c.4,0,.8,-.2,1.1,-.5c.3,-.4,.6,-1,.9,-1.8L490,190c-.2,.6,-.7,1.9,-1.3,1.9c-.2,0,-.3,-.5,-.3,-.8c0,-.1,0,-.3,0,-.5c.1,-.6,.2,-1.1,.4,-1.8c.1,-.4,.3,-1,.4,-1.6l1.6,-5.8h-2.3v.2c.4,0,.5,.1,.7,.1c.2,.2,.3,.4,.3,.5c0,.3,-.1,.5,-.2,.8l-.9,3.5c-.2,-.4,-.4,-.7,-1,-.7c-1,0,-2,.9,-2.5,1.6c-.3,.3,-.5,.7,-.7,1c-.3,.6,-.6,1.3,-.6,2.2c0,.6,.2,1,.5,1.3c.2,.3,.5,.5,1,.5c1.4,0,1.9,-.8,2.3,-1.6h.1c0,.1,0,.2,0,.3c-.1,.1,-.1,.2,-.1,.3c0,.6,.3,1,.9,1Z" class="g0_133"/>
<path d="M498.6,186.8c0,-.5,-.4,-1,-1,-1c-.3,0,-.6,.2,-.9,.4c-.4,.2,-.7,.5,-.9,.9c0,-.7,-.4,-1.3,-1,-1.3c-1.2,0,-2.1,1.2,-2.5,2l.2,.1c.4,-.5,1.1,-1.7,2,-1.7c.3,0,.4,.6,.4,1c0,.3,-.1,.7,-.2,1.1l-.4,1.2c-.1,.6,-.4,1.4,-.7,1.8c-.1,.3,-.4,.7,-.8,.7c-.4,0,-.7,-.1,-.6,-.5c.1,-.3,0,-.8,-.4,-.8c-.4,0,-.6,.4,-.6,.8c0,.6,.4,.9,1,.9c1,0,1.8,-.7,2.2,-1.4c.1,.8,.5,1.4,1.3,1.4c1.2,0,2,-1.1,2.5,-1.8l-.2,-.2c-.5,.7,-1.2,1.7,-2,1.7c-.4,0,-.6,-.6,-.6,-1.2c0,-.4,0,-.8,.1,-1.4l.2,-.7c.1,-.6,.4,-1.2,.6,-1.6c.2,-.3,.6,-1,1,-1c.4,0,.4,.3,.3,.6c0,.4,.2,.6,.5,.6c.4,0,.5,-.3,.5,-.6Z" class="g0_133"/>
<path d="M501.7,187.8c0,-.2,-.2,-.5,-.5,-.5c-.3,0,-.6,.2,-.6,.5c0,.4,.3,.6,.6,.6c.2,0,.5,-.3,.5,-.6Zm-2,6.8c.9,0,1.5,-.8,1.7,-1.4l-.2,-.1c-.1,.3,-.5,1.1,-1,1.1c-.1,0,-.2,-.2,-.2,-.3c0,-.2,.1,-.7,.2,-.8l.7,-2.1c.1,-.3,.2,-.4,.2,-.6c0,-.3,-.1,-.6,-.4,-.6c-.7,0,-1.5,.8,-1.7,1.4l.2,.1c.1,-.2,.5,-.8,.8,-.8c.1,0,.2,.1,.2,.2c0,.2,-.1,.5,-.2,.7l-.7,2c-.1,.3,-.1,.5,-.1,.7c0,.3,.1,.5,.5,.5Z" class="g0_133"/>
<path d="M510.3,188.1H507v.9h3.3v3.3h1V189h3.2v-.9h-3.2v-3.3h-1v3.3Z" class="g0_133"/>
<path d="M522.3,186.2c.3,0,.6,.2,.6,.6c0,1.3,-1.7,2.3,-3,2.6c.3,-1,1.2,-3.2,2.4,-3.2Zm.1,-.4c-1.1,0,-2,.9,-2.5,1.5c-.7,.8,-1.1,1.9,-1.1,3.2c0,1.2,.4,1.9,1.5,1.9c1.1,0,2,-.7,2.6,-1.7l-.2,-.1c-.4,.6,-1.2,1.5,-2.1,1.5c-.6,0,-.8,-.5,-.8,-1.4c0,-.2,0,-.7,0,-.9c1.5,-.3,4,-1.3,4,-2.9c0,-.7,-.6,-1.1,-1.4,-1.1Z" class="g0_133"/>
<path d="M523.3,194.5c0,.6,.5,.9,1.1,.9c.5,0,.8,-.1,1.3,-.5c.8,-.7,2.1,-2.3,2.8,-3.5c.4,-.6,.8,-1.2,1.1,-1.8c.4,-.7,1.1,-2.1,1.1,-2.9c0,-.2,-.1,-.4,-.2,-.6c0,-.2,-.2,-.3,-.4,-.3c-.2,0,-.3,.1,-.5,.2c-.1,.2,-.2,.4,-.2,.7c0,.4,.2,.9,.2,1.3c0,.6,-.2,1.1,-.4,1.6c-.2,.5,-.5,.9,-.8,1.4h-.1l-.3,-1.9c-.1,-.6,-.3,-1.6,-.4,-2.1c-.2,-.6,-.4,-1.2,-1.4,-1.2c-1.1,0,-1.3,1.8,-1.6,2.6l.3,.1c.2,-.6,.6,-2.3,1.1,-2.3c.3,0,.5,1,.5,1.2c.1,.3,.2,.7,.3,1.4l.6,3.5c-.4,.8,-1.2,1.7,-1.8,2.2c-.2,.1,-.6,.2,-.7,.2c-.1,0,-.2,0,-.3,-.1c-.2,-.3,-.2,-.8,-.6,-.8c-.4,0,-.7,.3,-.7,.7Z" class="g0_133"/>
<path d="M533.9,187.8c0,-.2,-.3,-.5,-.6,-.5c-.3,0,-.5,.2,-.5,.5c0,.4,.2,.6,.5,.6c.3,0,.6,-.3,.6,-.6Zm-2.1,6.8c1,0,1.5,-.8,1.8,-1.4l-.2,-.1c-.2,.3,-.6,1.1,-1,1.1c-.1,0,-.3,-.2,-.3,-.3c0,-.2,.2,-.7,.2,-.8L533,191c.2,-.3,.2,-.4,.2,-.6c0,-.3,0,-.6,-.4,-.6c-.7,0,-1.5,.8,-1.7,1.4l.2,.1c.1,-.2,.5,-.8,.8,-.8c.2,0,.2,.1,.2,.2c0,.2,-.1,.5,-.1,.7l-.8,2c0,.3,-.1,.5,-.1,.7c0,.3,.1,.5,.5,.5Z" class="g0_133"/>
<path d="M542.4,188.1h-3.3v.9h3.3v3.3h1V189h3.2v-.9h-3.2v-3.3h-1v3.3Z" class="g0_133"/>
<path d="M551.1,195.1c-.3,0,-.3,-.2,-.4,-.5c-.1,-.2,-.2,-.5,-.5,-.5c-.3,0,-.4,.2,-.4,.4c0,.7,.8,.9,1.3,.9c.8,0,.9,-.2,1.3,-.7c.2,-.3,.4,-.8,.6,-1.3c.2,-.5,.5,-1.1,.7,-2l1.3,-5.1h1.2l.2,-.3h-1.3c.3,-1.2,.8,-3.2,1.1,-3.8c.2,-.2,.4,-.5,.8,-.5c.3,0,.4,.2,.5,.5c.1,.2,.2,.5,.5,.5c.2,0,.4,-.2,.4,-.4c0,-.6,-.8,-.9,-1.3,-.9c-1.9,0,-2.6,3,-3,4.6h-1.2l-.1,.3H554l-1.9,7.4c-.1,.3,-.4,1.4,-1,1.4Z" class="g0_133"/>
<path d="M564.3,189.8c-.1,-.3,-.1,-.8,-.1,-1c0,-.3,0,-.6,0,-.8c.1,-.4,.3,-1.5,.7,-1.5c.3,0,.3,.5,.3,.8c0,.9,-.6,1.9,-.9,2.5Zm-2.8,-3c0,0,-1.7,2.3,-1.7,4c0,.8,.5,1.6,1.4,1.6c1.1,0,1.8,-.6,2.3,-1.3c.3,.8,.6,1.3,1.5,1.3c2.1,0,3.5,-4.1,3.5,-5.4c0,-.6,-.1,-1.2,-.7,-1.2c-.5,0,-.7,.3,-.7,.7c0,.7,.5,1.3,.5,2c0,1,-1.1,3.5,-2.3,3.5c-.6,0,-.9,-1.2,-1,-1.8c.5,-.6,.9,-1.3,1.1,-1.9c.2,-.5,.4,-1,.4,-1.5c0,-.5,-.3,-1,-.7,-1c-.3,0,-.5,.1,-.7,.3c-.6,.7,-1.1,1.9,-1.1,3.2c0,.2,0,.3,0,.5c0,.2,.1,.8,.1,1c-.3,.4,-.6,.7,-.9,.9c-.3,.2,-.6,.3,-.8,.3c-.5,0,-.7,-.6,-.7,-1.3c0,-1.7,.5,-3,1.2,-4.2c.1,-.1,.5,-.4,.5,-.5c0,-.1,-.1,-.2,-.2,-.2c0,0,-.1,.1,-.2,.1c-.1,.1,-.1,.2,-.3,.3c-.1,.2,-.3,.2,-.4,.2c-.3,0,-.5,-.1,-.6,-.2c-.2,-.2,-.4,-.4,-.8,-.4c-.6,0,-1.3,.6,-1.3,1.1c0,.5,.3,.6,.6,.6c.3,0,.4,-.2,.4,-.5c0,-.2,-.2,-.2,-.2,-.4c0,-.1,0,-.2,.2,-.2c.4,0,.6,.4,.8,.5c.2,.1,.3,.1,.6,0l.2,-.1Z" class="g0_133"/>
<path d="M571.8,187.8c0,-.2,-.3,-.5,-.6,-.5c-.3,0,-.6,.2,-.6,.5c0,.4,.3,.6,.6,.6c.3,0,.6,-.3,.6,-.6Zm-2.1,6.8c1,0,1.5,-.8,1.7,-1.4l-.2,-.1c-.1,.3,-.5,1.1,-1,1.1c-.1,0,-.2,-.2,-.2,-.3c0,-.2,.1,-.7,.2,-.8l.7,-2.1c.1,-.3,.2,-.4,.2,-.6c0,-.3,0,-.6,-.4,-.6c-.7,0,-1.5,.8,-1.7,1.4l.2,.1c.1,-.2,.5,-.8,.8,-.8c.2,0,.2,.1,.2,.2c0,.2,-.1,.5,-.2,.7l-.7,2c-.1,.3,-.1,.5,-.1,.7c0,.3,.1,.5,.5,.5Z" class="g0_133"/>
<path d="M486.9,206.9c0,-1.3,.7,-2.9,1.7,-2.9c.8,0,.9,.7,.9,1.2c.1,1.5,-.6,2.9,-1.6,2.9c-.6,0,-1,-.6,-1,-1.2Zm3.5,-2.3q.2,-.2,.4,-.2c.1,0,.2,0,.3,0c.1,.2,.3,.7,.6,.7c.3,0,.6,-.3,.6,-.6c0,-.4,-.5,-.8,-1,-.8c-.3,0,-.7,.2,-1.1,.7c-.4,-.5,-.9,-.7,-1.5,-.7c-.8,0,-1.4,.4,-1.9,.8c-.5,.5,-.9,1.1,-.9,2c0,.6,.3,1.2,.9,1.6v.1c-.6,.1,-.8,.3,-1,.5c-.2,.1,-.4,.3,-.4,.5c0,.4,.1,.7,.6,.9c.4,.2,1,.4,1.9,.5c.5,.1,.8,.2,1.1,.4c.3,.2,.4,.4,.4,.6c0,.8,-1.1,1.4,-2.2,1.4c-1.2,0,-2,-.5,-2,-1.3c0,-.5,.3,-.8,.8,-1c-.3,-.1,-.3,-.2,-.6,-.2c-.7,0,-1.1,.5,-1.1,1.1c0,.3,0,.5,.1,.7c.6,.7,1.5,1,2.8,1c1,0,1.7,-.2,2.3,-.6c.5,-.3,.8,-.7,.8,-1.5c0,-.8,-1.1,-1.3,-1.8,-1.5c-.5,-.1,-1.1,-.3,-1.5,-.4c-.2,-.1,-.3,-.2,-.3,-.4c0,-.4,.6,-.4,1.1,-.5c1.7,-.1,2.7,-1.2,2.7,-2.9c0,-.4,0,-.7,-.1,-.9Z" class="g0_133"/>
<path d="M500.1,204.7c0,-.5,-.4,-1,-1,-1c-.3,0,-.6,.2,-1,.4c-.3,.2,-.6,.5,-.8,.9c0,-.7,-.4,-1.3,-1.1,-1.3c-1.1,0,-2,1.2,-2.4,2l.2,.1c.4,-.5,1.1,-1.7,2,-1.7c.3,0,.4,.6,.4,1c0,.3,-.1,.7,-.2,1.1l-.4,1.2c-.1,.6,-.4,1.4,-.7,1.8c-.1,.3,-.4,.7,-.8,.7c-.4,0,-.7,-.1,-.6,-.5c.1,-.3,0,-.8,-.4,-.8c-.5,0,-.6,.4,-.6,.8c0,.6,.4,.9,1,.9c1,0,1.8,-.7,2.1,-1.4h.1c.1,.8,.5,1.4,1.3,1.4c1.2,0,2,-1.1,2.5,-1.8l-.2,-.2c-.5,.7,-1.2,1.7,-2,1.7c-.4,0,-.6,-.6,-.6,-1.2c0,-.4,0,-.8,.1,-1.4l.2,-.7c.1,-.6,.4,-1.2,.6,-1.6c.2,-.3,.6,-1,1,-1c.4,0,.4,.3,.3,.6c0,.4,.2,.6,.5,.6c.4,0,.5,-.3,.5,-.6Z" class="g0_133"/>
<path d="M503.2,205.7c0,-.2,-.2,-.5,-.5,-.5c-.3,0,-.6,.2,-.6,.5c0,.4,.3,.6,.6,.6c.2,0,.5,-.3,.5,-.6Zm-2,6.8c.9,0,1.4,-.8,1.7,-1.4l-.2,-.1c-.1,.3,-.5,1.1,-1,1.1c-.1,0,-.2,-.2,-.2,-.3c0,-.2,.1,-.7,.2,-.8l.7,-2.1c.1,-.3,.1,-.4,.1,-.6c0,-.3,0,-.6,-.3,-.6c-.7,0,-1.5,.8,-1.7,1.4l.2,.1c.1,-.2,.5,-.8,.8,-.8c.1,0,.2,.1,.2,.2c0,.2,-.1,.5,-.2,.7l-.7,2c-.1,.3,-.1,.5,-.1,.7c0,.3,.1,.5,.5,.5Z" class="g0_133"/>
<path d="M511.8,206h-3.3v.9h3.3v3.3h.9v-3.3H516V206h-3.3v-3.3h-.9V206Z" class="g0_133"/>
<path d="M523.7,210.3c1.2,0,1.9,-.9,2.4,-1.7l-.3,-.2c-.3,.4,-.8,1.3,-1.3,1.3c-.3,0,-.4,-.3,-.4,-.5c0,-.4,1.2,-3.7,1.2,-4.2c0,-.8,-.3,-1.3,-1.1,-1.3c-.4,0,-1,.2,-1.3,.4c-.3,.2,-.6,.5,-.8,.8l-.1,.2l1.5,-5.8l-2.2,.1l-.1,.2c.4,0,.6,.2,.8,.3c.2,.1,.3,.3,.3,.4c0,.3,-.1,.7,-.2,.9l-2.5,9h.8c.6,-1.7,1.2,-3.7,1.9,-5c.4,-.6,.9,-1.1,1.6,-1.1c.6,0,.4,1,.3,1.4c-.1,.2,-.2,.6,-.3,1c-.5,1.6,-.8,2.4,-.8,3.1c0,.5,.1,.7,.6,.7Z" class="g0_133"/>
<path d="M525.8,212.4c0,.6,.5,.9,1.1,.9c.5,0,.8,-.1,1.3,-.5c.8,-.7,2.1,-2.3,2.8,-3.5c.4,-.6,.8,-1.2,1.1,-1.8c.3,-.7,1.1,-2.1,1.1,-2.9c0,-.2,-.1,-.4,-.2,-.6c-.1,-.2,-.3,-.3,-.4,-.3c-.2,0,-.3,.1,-.5,.2c-.1,.2,-.2,.4,-.2,.7c0,.4,.2,.9,.2,1.3c0,.6,-.2,1.1,-.4,1.6c-.3,.5,-.5,.9,-.8,1.4h-.1l-.4,-1.9c-.1,-.6,-.3,-1.6,-.4,-2.1c-.2,-.6,-.3,-1.2,-1.3,-1.2c-1.2,0,-1.3,1.8,-1.6,2.6l.3,.1c.1,-.6,.6,-2.3,1.1,-2.3c.3,0,.4,1,.5,1.2c.1,.3,.2,.7,.3,1.4l.6,3.5c-.4,.8,-1.2,1.7,-1.8,2.2c-.3,.1,-.6,.2,-.7,.2c-.1,0,-.2,0,-.3,-.1c-.2,-.3,-.2,-.8,-.7,-.8c-.4,0,-.6,.3,-.6,.7Z" class="g0_133"/>
<path d="M536.3,205.7c0,-.2,-.2,-.5,-.5,-.5c-.3,0,-.6,.2,-.6,.5c0,.4,.3,.6,.6,.6c.2,0,.5,-.3,.5,-.6Zm-2,6.8c.9,0,1.5,-.8,1.7,-1.4l-.2,-.1c-.1,.3,-.5,1.1,-1,1.1c-.1,0,-.2,-.2,-.2,-.3c0,-.2,.1,-.7,.2,-.8l.7,-2.1c.1,-.3,.2,-.4,.2,-.6c0,-.3,-.1,-.6,-.4,-.6c-.7,0,-1.5,.8,-1.7,1.4l.2,.1c.1,-.2,.5,-.8,.8,-.8c.1,0,.2,.1,.2,.2c0,.2,-.1,.5,-.2,.7l-.7,2c-.1,.3,-.1,.5,-.1,.7c0,.3,.1,.5,.5,.5Z" class="g0_133"/>
<path d="M544.9,206h-3.3v.9h3.3v3.3h1v-3.3h3.2V206h-3.2v-3.3h-1V206Z" class="g0_133"/>
<path d="M557,201c0,-.4,-.3,-.7,-.8,-.7c-.4,0,-.7,.3,-.7,.7c0,.4,.4,.8,.7,.8c.4,0,.8,-.4,.8,-.8Zm-2.8,9.3c1.3,0,2,-1.1,2.4,-1.9l-.3,-.2c-.2,.4,-.7,1.5,-1.3,1.5c-.2,0,-.4,-.3,-.4,-.4c0,-.3,.2,-.9,.3,-1.1l1,-2.8c.1,-.4,.2,-.6,.2,-.9c0,-.4,0,-.8,-.5,-.8c-.9,0,-2.1,1.2,-2.4,1.9l.3,.1c.2,-.3,.8,-1.1,1.1,-1.1c.2,0,.3,.2,.3,.3c0,.3,-.1,.7,-.2,1l-1,2.8c-.1,.3,-.2,.7,-.2,.8c0,.6,.2,.8,.7,.8Z" class="g0_133"/>
<path d="M563.4,207.7c-.1,-.3,-.1,-.8,-.1,-1c0,-.3,0,-.6,0,-.8c.1,-.4,.3,-1.5,.7,-1.5c.3,0,.3,.5,.3,.8c0,.9,-.6,1.9,-.9,2.5Zm-2.8,-3c0,0,-1.7,2.3,-1.7,4c0,.8,.5,1.6,1.4,1.6c1.1,0,1.8,-.6,2.3,-1.3c.3,.8,.6,1.3,1.5,1.3c2.1,0,3.4,-4.1,3.5,-5.4c0,-.6,-.1,-1.2,-.8,-1.2c-.4,0,-.6,.3,-.6,.7c0,.7,.5,1.3,.5,2c0,1.1,-1.1,3.5,-2.3,3.5c-.6,0,-.9,-1.2,-1,-1.8c.5,-.6,.9,-1.3,1.1,-1.9c.2,-.5,.3,-1,.3,-1.5c0,-.5,-.2,-1,-.7,-1c-.2,0,-.4,.1,-.6,.3c-.6,.7,-1.1,1.9,-1.1,3.2c0,.2,0,.3,0,.5c0,.2,.1,.8,.1,1c-.3,.4,-.6,.7,-.9,.9c-.3,.2,-.6,.3,-.8,.3c-.6,0,-.7,-.6,-.7,-1.3c0,-1.7,.5,-3,1.2,-4.2c.1,-.1,.5,-.4,.5,-.5c0,-.1,-.1,-.2,-.2,-.2c-.1,0,-.1,.1,-.2,.1c-.1,.1,-.2,.2,-.3,.3c-.2,.2,-.3,.2,-.4,.2c-.3,0,-.5,-.1,-.7,-.2c-.2,-.2,-.3,-.4,-.7,-.4c-.6,0,-1.3,.6,-1.3,1.2c0,.4,.3,.5,.6,.5c.3,0,.4,-.2,.4,-.5c0,-.2,-.2,-.2,-.2,-.4c0,-.1,0,-.2,.2,-.2c.4,0,.6,.4,.8,.5c.2,.1,.3,.1,.6,0l.2,-.1Z" class="g0_133"/>
<path d="M570.8,205.7c0,-.2,-.2,-.5,-.5,-.5c-.3,0,-.6,.2,-.6,.5c0,.4,.3,.6,.6,.6c.2,0,.5,-.3,.5,-.6Zm-2,6.8c.9,0,1.5,-.8,1.7,-1.4l-.2,-.1c-.1,.3,-.5,1.1,-1,1.1c-.1,0,-.2,-.2,-.2,-.3c0,-.2,.1,-.7,.2,-.8l.7,-2.1c.1,-.3,.2,-.4,.2,-.6c0,-.3,-.1,-.6,-.4,-.6c-.7,0,-1.5,.8,-1.7,1.4l.2,.1c.1,-.2,.5,-.8,.8,-.8c.1,0,.2,.1,.2,.2c0,.2,-.1,.5,-.2,.7l-.7,2c-.1,.3,-.1,.5,-.1,.7c0,.3,.1,.5,.5,.5Z" class="g0_133"/>
<path d="M573.7,162.9c0,.1,.1,.2,.2,.3c3.1,5.5,3.9,19.2,3.9,20.4v.7h1.4v-.8c0,-2.1,-.6,-15.5,-5.3,-20.7c0,0,-.1,0,-.1,0c0,0,-.1,0,-.1,.1Z" class="g0_133"/>
<path d="M577.8,193.5h1.4v-9.6h-1.4Z" class="g0_133"/>
<path d="M573.7,214.7c0,0,.1,0,.1,0c0,0,.1,0,.1,0c4.7,-5.2,5.3,-18.6,5.3,-20.6v-.8h-1.4v.7c0,1.2,-.8,14.9,-3.9,20.3c-.1,.1,-.2,.2,-.2,.4Z" class="g0_133"/>
<path d="M410.5,322.2c0,-.1,-.1,-.1,-.1,-.1q-.1,0,-.1,0c-4.8,5.3,-5.3,19.2,-5.3,20.8v.6h1.3v-.6c0,-1.2,.8,-15,4,-20.4c.1,-.1,.2,-.2,.2,-.3Z" class="g0_133"/>
<path d="M405,352.8h1.4v-9.6H405Z" class="g0_133"/>
<path d="M410.5,373.9c0,-.1,-.1,-.2,-.2,-.3c-3.2,-5.4,-4,-19.2,-4,-20.4v-.6H405v.6c0,1.6,.5,15.5,5.3,20.8h.1c0,0,.1,0,.1,-.1Z" class="g0_133"/>
<path d="M412.9,324v.2c.4,0,1.1,.1,1.3,.2c.5,.2,.4,.4,.5,1v6.5c0,.3,-.1,.6,-.1,.8c-.1,.6,-.9,.7,-1.6,.8v.2h4.7v-.2c-.5,0,-1.3,-.1,-1.5,-.3c-.2,-.3,-.2,-.8,-.2,-1.4v-8.6c-.8,.4,-2.1,.8,-3.1,.8Z" class="g0_133"/>
<path d="M438.4,333.6c-2,0,-2,-2.8,-2,-4.9c0,-2.3,0,-5.2,2,-5.2c1.9,0,1.9,2.9,1.9,5.2c0,2.1,0,4.9,-1.9,4.9Zm0,-10.4c-2.6,0,-3.4,2.7,-3.4,5.4c0,2.6,.8,5.2,3.4,5.2c2.5,0,3.3,-2.6,3.3,-5.2c0,-2.7,-.7,-5.4,-3.3,-5.4Z" class="g0_133"/>
<path d="M462.1,328.3c0,.7,-.2,1.6,-.3,2.2c-.2,.6,-.7,1.7,-1.1,2.2c-.3,.3,-.8,.8,-1.2,.8c-.5,0,-.8,-.4,-.8,-1c0,-.6,.1,-1.8,.3,-2.3c.4,-.8,1.3,-2.7,2.4,-2.7c.5,0,.7,.4,.7,.8Zm.2,5.5c.4,0,.8,-.2,1.1,-.5c.3,-.4,.6,-1,.9,-1.8l-.3,-.1c-.2,.6,-.7,1.9,-1.3,1.9c-.3,0,-.3,-.5,-.3,-.8c0,-.1,0,-.3,0,-.5c.1,-.6,.2,-1.1,.4,-1.8c.1,-.5,.2,-1,.4,-1.6l1.6,-5.8h-2.3v.2c.4,0,.5,0,.7,.1c.1,.1,.3,.3,.3,.5c0,.2,-.1,.5,-.2,.8l-.9,3.5c-.3,-.5,-.4,-.7,-1.1,-.7c-1,0,-1.9,.9,-2.4,1.6c-.3,.3,-.5,.7,-.7,1c-.3,.6,-.6,1.3,-.6,2.1c0,.6,.2,1,.4,1.4c.3,.3,.6,.5,1.1,.5c1.3,0,1.9,-.9,2.3,-1.6h.1c-.1,.1,-.1,.2,-.1,.3c0,.1,0,.2,0,.2c0,.7,.3,1.1,.9,1.1Z" class="g0_133"/>
<path d="M469.8,331.9c0,-.4,-.4,-.7,-.8,-.7c-.2,0,-.4,.1,-.7,.2c-.2,.2,-.4,.4,-.6,.7c0,-.5,-.3,-.9,-.8,-.9c-.8,0,-1.5,.9,-1.7,1.4l.1,.1c.3,-.4,.8,-1.2,1.5,-1.2c.2,0,.2,.4,.2,.7c0,.2,0,.5,-.1,.8l-.3,.9c-.1,.4,-.3,1,-.5,1.3c-.1,.2,-.3,.5,-.6,.5c-.3,0,-.5,-.1,-.4,-.4c0,-.2,0,-.5,-.3,-.5c-.3,0,-.5,.2,-.5,.5c0,.4,.4,.7,.8,.7c.7,0,1.3,-.5,1.6,-1c0,.6,.3,1,1,1c.8,0,1.4,-.8,1.7,-1.3l-.1,-.1c-.4,.4,-.9,1.2,-1.4,1.2c-.4,0,-.5,-.5,-.5,-.9c0,-.3,0,-.6,.1,-1l.2,-.5c0,-.5,.2,-.9,.4,-1.2c.1,-.2,.4,-.7,.7,-.7c.3,0,.3,.2,.3,.4c-.1,.3,0,.5,.3,.5c.3,0,.4,-.2,.4,-.5Z" class="g0_133"/>
<path d="M415.1,351.5c-1.9,0,-1.9,-2.8,-1.9,-4.9c0,-2.3,0,-5.2,1.9,-5.2c1.9,0,1.9,2.9,1.9,5.2c0,2.1,0,4.9,-1.9,4.9Zm0,-10.4c-2.6,0,-3.4,2.7,-3.4,5.4c0,2.6,.8,5.2,3.4,5.2c2.6,0,3.4,-2.6,3.4,-5.2c0,-2.7,-.8,-5.4,-3.4,-5.4Z" class="g0_133"/>
<path d="M436.2,341.9v.2c.4,0,1.1,.1,1.3,.2c.4,.2,.4,.4,.4,1v6.5c0,.3,0,.6,0,.8c-.1,.6,-.9,.7,-1.7,.8v.2h4.7v-.2c-.5,0,-1.2,-.1,-1.4,-.3c-.3,-.3,-.3,-.8,-.3,-1.4v-8.6c-.8,.4,-2.1,.8,-3,.8Z" class="g0_133"/>
<path d="M462.4,346.2c0,.7,-.2,1.6,-.3,2.2c-.2,.6,-.7,1.7,-1.1,2.2c-.3,.3,-.8,.8,-1.2,.8c-.5,0,-.8,-.4,-.8,-1c0,-.6,.1,-1.8,.3,-2.3c.4,-.8,1.3,-2.7,2.5,-2.7c.4,0,.6,.4,.6,.8Zm.2,5.5c.4,0,.8,-.2,1.1,-.5c.3,-.4,.6,-1,.9,-1.8l-.3,-.1c-.2,.6,-.7,1.9,-1.3,1.9c-.3,0,-.3,-.5,-.3,-.8c0,-.1,0,-.3,0,-.5c.1,-.6,.2,-1.1,.4,-1.8c.1,-.5,.2,-1,.4,-1.6l1.6,-5.8h-2.3v.2c.4,0,.5,0,.7,.1c.1,.1,.3,.3,.3,.5c0,.2,-.1,.5,-.2,.8l-.9,3.5c-.3,-.5,-.4,-.7,-1.1,-.7c-.9,0,-1.9,.9,-2.4,1.6c-.3,.3,-.5,.7,-.7,1c-.3,.6,-.6,1.3,-.6,2.1c0,.6,.2,1,.4,1.4c.3,.3,.6,.5,1.1,.5c1.3,0,1.9,-.9,2.3,-1.6h.1c0,.1,0,.2,-.1,.3c0,.1,0,.2,0,.2c0,.7,.3,1.1,.9,1.1Z" class="g0_133"/>
<path d="M464.1,355.4c0,.4,.3,.7,.8,.7c.3,0,.5,-.1,.9,-.4c.6,-.5,1.5,-1.6,2,-2.5c.3,-.5,.6,-.9,.8,-1.3c.3,-.6,.8,-1.6,.8,-2.2c0,-.1,0,-.3,-.1,-.4c-.1,-.2,-.2,-.2,-.3,-.2c-.1,0,-.2,.1,-.3,.2c-.2,0,-.2,.2,-.2,.4c0,.3,.2,.7,.2,1c0,.4,-.2,.8,-.4,1.1c-.1,.4,-.3,.7,-.6,1.1l-.3,-1.4c0,-.4,-.2,-1.2,-.3,-1.5c-.1,-.5,-.2,-.9,-.9,-.9c-.9,0,-1,1.3,-1.2,1.9h.2c.1,-.4,.4,-1.7,.8,-1.7c.2,0,.3,.8,.4,1c0,.2,.1,.5,.2,1l.4,2.5c-.2,.6,-.9,1.2,-1.3,1.6c-.2,.1,-.4,.2,-.5,.2c-.1,0,-.2,-.1,-.2,-.1c-.1,-.2,-.1,-.6,-.5,-.6c-.3,0,-.4,.2,-.4,.5Z" class="g0_133"/>
<path d="M415.1,369.4c-1.9,0,-1.9,-2.8,-1.9,-4.9c0,-2.3,0,-5.2,1.9,-5.2c1.9,0,1.9,2.9,1.9,5.2c0,2.1,0,4.9,-1.9,4.9Zm0,-10.4c-2.6,0,-3.4,2.7,-3.4,5.4c0,2.6,.8,5.2,3.4,5.2c2.6,0,3.4,-2.6,3.4,-5.2c0,-2.7,-.8,-5.4,-3.4,-5.4Z" class="g0_133"/>
<path d="M438.4,369.4c-2,0,-2,-2.8,-2,-4.9c0,-2.3,0,-5.2,2,-5.2c1.9,0,1.9,2.9,1.9,5.2c0,2.1,0,4.9,-1.9,4.9Zm0,-10.4c-2.6,0,-3.4,2.7,-3.4,5.4c0,2.6,.8,5.2,3.4,5.2c2.5,0,3.3,-2.6,3.3,-5.2c0,-2.7,-.7,-5.4,-3.3,-5.4Z" class="g0_133"/>
<path d="M462,359.8v.2c.5,0,1.1,.1,1.3,.2c.5,.2,.5,.4,.5,1v6.5c0,.3,0,.6,-.1,.8c0,.6,-.9,.7,-1.6,.8v.2h4.7v-.2c-.5,0,-1.2,-.1,-1.5,-.3c-.2,-.3,-.2,-.8,-.2,-1.4V359c-.8,.4,-2.1,.8,-3.1,.8Z" class="g0_133"/>
<path d="M471.5,322.2c0,.1,0,.2,.1,.3c3.2,5.4,4,19.2,4,20.4v.6h1.3v-2.1c-.2,-4,-1.2,-14.8,-5.2,-19.3q-.1,0,-.1,0q-.1,0,-.1,.1Z" class="g0_133"/>
<path d="M475.6,352.8h1.3v-9.6h-1.3Z" class="g0_133"/>
<path d="M471.5,373.9q0,.1,.1,.1h.1c4,-4.5,5,-15.3,5.2,-19.3v-2.1h-1.3v.6c0,1.2,-.8,15,-4,20.4c-.1,.1,-.1,.2,-.1,.3Z" class="g0_133"/>
<path d="M377.1,440.6c0,-.1,-.1,-.1,-.1,-.1c0,0,-.1,0,-.1,0c-4.8,5.3,-5.3,19.2,-5.3,20.8v.6H373v-.6c0,-1.2,.8,-15,3.9,-20.4c.1,-.1,.2,-.2,.2,-.3Z" class="g0_133"/>
<path d="M371.6,471.2H373v-9.6h-1.4Z" class="g0_133"/>
<path d="M377.1,492.3c0,-.1,-.1,-.2,-.2,-.3C373.8,486.6,373,472.8,373,471.6V471h-1.4v.6c0,1.6,.5,15.5,5.3,20.8c0,0,.1,0,.1,0c0,0,.1,0,.1,-.1Z" class="g0_133"/>
<path d="M386.4,451.9c-1.4,0,-1.9,-1.6,-1.9,-3.1c0,-1.4,.6,-2.9,1.7,-2.9c.9,0,.9,.5,1.1,.8c.2,.3,.3,.5,.7,.5c.4,0,.6,-.2,.6,-.5c0,-.4,-.3,-.7,-.6,-.8c-.4,-.2,-.9,-.3,-1.5,-.3c-1.1,0,-1.9,.4,-2.4,.9c-.6,.6,-1,1.4,-1,2.5c0,.5,.1,.9,.3,1.3c.4,1.1,1.2,1.9,2.6,1.9c1.4,0,2.1,-.5,2.6,-1.1l-.1,-.1c-.5,.4,-1.3,.9,-2.1,.9Z" class="g0_133"/>
<path d="M392.9,445.9c1.3,0,2,1.6,2,3c0,1.7,-.8,3.1,-2,3.1c-1.6,0,-2,-1.6,-2,-3.1c0,-1.4,.7,-3,2,-3Zm0,-.3c-.5,0,-.9,.1,-1.3,.3c-1.1,.4,-2,1.4,-2,3c0,.5,0,.9,.2,1.3c.5,1.1,1.2,2,3.1,2c1.1,0,1.8,-.4,2.4,-.9c.5,-.6,1,-1.4,1,-2.4c0,-.5,-.1,-.9,-.3,-1.3c-.5,-1.1,-1.5,-2,-3.1,-2Z" class="g0_133"/>
<path d="M399.6,445.9c.7,0,1.1,.8,1.4,1.6h.2v-1.8h-.1l-.4,.3c-.1,-.1,-.3,-.2,-.6,-.3c-.2,-.1,-.4,-.1,-.6,-.1c-.6,0,-1,.2,-1.3,.5c-.3,.3,-.5,.8,-.5,1.4c0,.7,.4,1.1,.9,1.5c.5,.4,2.1,1,2.1,1.8c0,.6,-.3,1.2,-1.1,1.2c-.8,0,-1.5,-.8,-1.8,-2h-.2v2.1h.2l.3,-.4c.4,.3,1,.5,1.7,.5c.5,0,1,-.1,1.4,-.5c.4,-.3,.5,-.7,.5,-1.3c0,-1,-1,-1.6,-1.9,-2.1c-.4,-.3,-1.1,-.6,-1.1,-1.4c0,-.5,.2,-1,.9,-1Z" class="g0_133"/>
<path d="M407.5,441.4c-2.2,1.4,-3.7,3.8,-3.7,6.9c0,2.7,1.6,5.5,3.6,6.8l.2,-.2c-2,-1.6,-2.5,-3.4,-2.5,-6.7c0,-3.3,.6,-5,2.5,-6.5l-.1,-.3Z" class="g0_133"/>
<path d="M414.6,446.3c0,-.3,-.1,-.4,-.2,-.6c-.2,-.1,-.4,-.2,-.6,-.2c-.4,0,-.9,.3,-1.2,.6c-.4,.3,-.8,.8,-1,1.2c0,-.1,0,-.3,0,-.4c0,-.1,0,-.2,0,-.4c0,-.5,0,-.9,-.5,-.9c-1,0,-1.9,1.1,-2.2,1.8l.2,.1c.2,-.4,.9,-1.4,1.4,-1.4c.2,0,.2,.5,.2,.7c0,.1,-.1,.2,-.1,.3c-.2,.9,-.4,1.6,-.7,2.5l-.8,2.5h1l.6,-1.7c.2,-.5,.4,-1.2,.6,-1.7c.2,-.4,.4,-.9,.6,-1.2c.2,-.4,.7,-1.1,1.2,-1.1c.1,0,.1,.2,.2,.2l.1,.2c.1,.1,.3,.2,.5,.2c.4,0,.7,-.3,.7,-.7Z" class="g0_133"/>
<path d="M415.9,441.4l-.1,.3c1.9,1.5,2.5,3.2,2.5,6.5c0,3.3,-.5,5.1,-2.5,6.7l.2,.2c2,-1.3,3.6,-4.1,3.6,-6.8c0,-3.1,-1.5,-5.5,-3.7,-6.9Z" class="g0_133"/>
<path d="M444.7,445.9c.8,0,1.2,.8,1.5,1.6h.2v-1.8h-.2l-.3,.3c-.2,-.1,-.4,-.2,-.6,-.3c-.3,-.1,-.5,-.1,-.7,-.1c-.6,0,-1,.2,-1.3,.5c-.3,.3,-.5,.8,-.5,1.4c0,.7,.4,1.1,.9,1.5c.6,.4,2.1,1,2.1,1.8c0,.6,-.3,1.2,-1,1.2c-.9,0,-1.5,-.8,-1.8,-2h-.2v2.1h.2l.2,-.4c.5,.3,1.1,.5,1.7,.5c.6,0,1.1,-.1,1.4,-.5c.4,-.3,.6,-.7,.6,-1.3c0,-1,-1.1,-1.6,-1.9,-2.1c-.5,-.3,-1.2,-.6,-1.2,-1.4c0,-.5,.3,-1,.9,-1Z" class="g0_133"/>
<path d="M449.6,443.9c.4,0,.7,-.3,.7,-.7c0,-.4,-.4,-.8,-.7,-.8c-.4,0,-.8,.4,-.8,.8c0,.4,.4,.7,.8,.7Zm.6,6.5v-4.8l-2.4,.5v.2c.4,0,.7,.1,.9,.3c.3,.3,.3,.6,.3,2.1v1.8c0,.3,0,.5,0,.7c-.1,.6,-.5,.7,-1.1,.7v.2h3.4v-.2c-.2,0,-.4,0,-.6,0c-.5,-.2,-.5,-.8,-.5,-1.5Z" class="g0_133"/>
<path d="M454.1,446.8v0l-.2,-1.2l-1.9,.5v.2c.2,0,.5,.1,.6,.2c.3,.3,.4,.5,.4,2v2c0,.3,0,.6,0,.8c-.1,.5,-.4,.6,-1,.6v.2h3.1v-.2c-.2,0,-.4,0,-.5,0c-.5,-.2,-.5,-.7,-.5,-1.5v-2c0,-.6,0,-.9,.3,-1.3c.3,-.5,1,-1.1,1.8,-1.1c1.3,0,1.2,1.4,1.2,2.7v1.8c0,.3,0,.6,0,.8c-.1,.5,-.4,.6,-1,.6v.2h3.1v-.2c-.2,0,-.4,0,-.5,0c-.5,-.2,-.4,-.8,-.4,-1.5v-2.2c0,-.9,-.1,-1.5,-.4,-1.9c-.4,-.4,-1,-.7,-1.7,-.7c-1.1,0,-1.9,.6,-2.4,1.2Z" class="g0_133"/>
<path d="M465,441.4c-2.2,1.4,-3.7,3.8,-3.7,6.9c0,2.7,1.6,5.5,3.6,6.8l.2,-.2c-2,-1.6,-2.5,-3.4,-2.5,-6.7c0,-3.3,.6,-5,2.5,-6.5l-.1,-.3Z" class="g0_133"/>
<path d="M472.1,446.3c0,-.3,-.1,-.4,-.2,-.6c-.2,-.1,-.4,-.2,-.6,-.2c-.4,0,-.9,.3,-1.2,.6c-.4,.3,-.8,.8,-1,1.2H469c.1,-.1,.1,-.3,.1,-.4c0,-.1,0,-.2,0,-.4c0,-.5,-.1,-.9,-.5,-.9c-1.1,0,-1.9,1.1,-2.2,1.8l.2,.1c.2,-.4,.9,-1.4,1.4,-1.4c.2,0,.2,.5,.2,.7c0,.1,-.1,.2,-.1,.3c-.2,.9,-.4,1.6,-.7,2.5l-.8,2.5h1l.6,-1.7c.2,-.5,.4,-1.2,.6,-1.7c.2,-.4,.4,-.9,.6,-1.2c.2,-.4,.6,-1.1,1.2,-1.1c.1,0,.1,.2,.2,.2l.1,.2c.1,.1,.2,.2,.5,.2c.4,0,.7,-.3,.7,-.7Z" class="g0_133"/>
<path d="M473.4,441.4l-.1,.3c1.9,1.5,2.5,3.2,2.5,6.5c0,3.3,-.5,5.1,-2.5,6.7l.2,.2c2,-1.3,3.6,-4.1,3.6,-6.8c0,-3.1,-1.5,-5.5,-3.7,-6.9Z" class="g0_133"/>
<path d="M498.6,452c-1.9,0,-1.9,-2.8,-1.9,-4.9c0,-2.3,0,-5.2,1.9,-5.2c2,0,2,2.9,2,5.2c0,2.1,-.1,4.9,-2,4.9Zm0,-10.4c-2.6,0,-3.3,2.7,-3.3,5.4c0,2.6,.8,5.2,3.3,5.2c2.6,0,3.4,-2.6,3.4,-5.2c0,-2.7,-.7,-5.4,-3.4,-5.4Z" class="g0_133"/>
<path d="M378.5,466.6h7.6v-.8h-7.6Z" class="g0_133"/>
<path d="M392.2,463.8c.8,0,1.2,.8,1.5,1.6h.2v-1.8h-.2l-.3,.3c-.2,-.1,-.4,-.2,-.6,-.3c-.2,-.1,-.5,-.1,-.7,-.1c-.5,0,-1,.2,-1.3,.5c-.3,.3,-.5,.8,-.5,1.4c0,.7,.5,1.1,.9,1.5c.6,.4,2.1,1,2.1,1.8c0,.6,-.2,1.2,-1,1.2c-.9,0,-1.5,-.8,-1.8,-2h-.2V470h.2l.2,-.4c.5,.3,1.1,.5,1.7,.5c.6,0,1.1,-.1,1.5,-.5c.3,-.3,.5,-.7,.5,-1.3c0,-1,-1.1,-1.6,-1.9,-2.1c-.5,-.3,-1.2,-.6,-1.2,-1.4c0,-.5,.3,-1,.9,-1Z" class="g0_133"/>
<path d="M397.1,461.8c.4,0,.7,-.3,.7,-.7c0,-.4,-.3,-.8,-.7,-.8c-.4,0,-.8,.4,-.8,.8c0,.4,.4,.7,.8,.7Zm.6,6.5v-4.8l-2.3,.5v.2c.4,0,.6,.1,.8,.3c.3,.3,.3,.6,.3,2.1v1.8c0,.3,0,.5,0,.7c-.1,.6,-.5,.7,-1.1,.7v.2h3.4v-.2c-.2,0,-.4,0,-.6,0c-.5,-.2,-.5,-.8,-.5,-1.5Z" class="g0_133"/>
<path d="M401.6,464.7v0l-.2,-1.2l-1.9,.5v.2c.2,0,.5,.1,.6,.2c.3,.3,.4,.5,.4,2v2c0,.4,0,.6,0,.8c-.1,.5,-.4,.6,-1,.6v.2h3.2v-.2c-.3,0,-.5,0,-.6,0c-.5,-.2,-.4,-.7,-.4,-1.5v-2c0,-.6,0,-.9,.2,-1.3c.3,-.5,1,-1.1,1.8,-1.1c1.3,0,1.2,1.4,1.2,2.7v1.8c0,.4,0,.6,0,.8c0,.5,-.4,.6,-1,.6v.2H407v-.2c-.2,0,-.4,0,-.5,0c-.5,-.2,-.4,-.8,-.4,-1.5v-2.2c0,-.9,-.1,-1.5,-.4,-1.9c-.3,-.4,-1,-.7,-1.7,-.7c-1.1,0,-1.8,.6,-2.4,1.2Z" class="g0_133"/>
<path d="M412.5,459.3c-2.2,1.4,-3.7,3.8,-3.7,6.9c0,2.7,1.6,5.5,3.6,6.8l.2,-.2c-2,-1.6,-2.5,-3.4,-2.5,-6.7c0,-3.3,.6,-5,2.5,-6.5l-.1,-.3Z" class="g0_133"/>
<path d="M419.6,464.2c0,-.2,-.1,-.4,-.2,-.6c-.2,-.1,-.4,-.2,-.6,-.2c-.4,0,-.9,.3,-1.2,.6c-.4,.3,-.8,.8,-1,1.2c0,-.1,0,-.3,0,-.4c.1,-.1,.1,-.2,.1,-.4c0,-.5,-.1,-.9,-.6,-.9c-1,0,-1.9,1.1,-2.2,1.8l.2,.1c.2,-.3,.9,-1.4,1.4,-1.4c.2,0,.2,.5,.2,.7c0,.1,-.1,.2,-.1,.3c-.2,.9,-.4,1.6,-.7,2.5l-.8,2.5h1.1l.5,-1.7c.2,-.5,.4,-1.2,.6,-1.7c.2,-.4,.4,-.9,.6,-1.2c.3,-.4,.7,-1.1,1.2,-1.1c.1,0,.1,.2,.2,.2l.1,.2c.1,.1,.3,.2,.5,.2c.4,0,.7,-.3,.7,-.7Z" class="g0_133"/>
<path d="M421,459.3l-.2,.3c1.9,1.5,2.6,3.2,2.6,6.5c0,3.3,-.6,5.1,-2.6,6.7l.2,.2c2.1,-1.3,3.6,-4.1,3.6,-6.8c0,-3.1,-1.5,-5.5,-3.6,-6.9Z" class="g0_133"/>
<path d="M444.9,469.8c-1.4,0,-1.9,-1.6,-1.9,-3.1c0,-1.4,.5,-2.9,1.7,-2.9c.8,0,.9,.5,1,.8c.2,.3,.4,.5,.8,.5c.3,0,.6,-.2,.6,-.5c0,-.4,-.3,-.7,-.6,-.8c-.4,-.2,-.9,-.3,-1.6,-.3c-1,0,-1.8,.4,-2.4,.9c-.5,.6,-.9,1.4,-.9,2.5c0,.5,.1,.9,.2,1.3c.4,1.1,1.3,1.9,2.7,1.9c1.4,0,2.1,-.5,2.6,-1.1l-.1,-.1c-.5,.4,-1.3,.9,-2.1,.9Z" class="g0_133"/>
<path d="M451.4,463.8c1.3,0,2,1.6,2,3c0,1.7,-.8,3.1,-2,3.1c-1.6,0,-2,-1.6,-2,-3.1c0,-1.4,.7,-3,2,-3Zm0,-.3c-.5,0,-.9,.1,-1.3,.3c-1.1,.4,-2.1,1.4,-2.1,3c0,.5,.1,.9,.3,1.3c.5,1.1,1.2,2,3.1,2c1.1,0,1.8,-.4,2.3,-.9c.6,-.6,1,-1.4,1,-2.4c0,-.5,0,-.9,-.2,-1.3c-.6,-1.1,-1.6,-2,-3.1,-2Z" class="g0_133"/>
<path d="M458,463.8c.8,0,1.2,.8,1.5,1.6h.2v-1.8h-.2l-.3,.3c-.2,-.1,-.4,-.2,-.6,-.3c-.2,-.1,-.4,-.1,-.7,-.1c-.5,0,-.9,.2,-1.2,.5c-.3,.3,-.6,.8,-.6,1.4c0,.7,.5,1.1,1,1.5c.5,.4,2.1,1,2.1,1.8c0,.6,-.3,1.2,-1.1,1.2c-.9,0,-1.5,-.8,-1.8,-2h-.2V470h.2l.3,-.4c.4,.3,1,.5,1.6,.5c.6,0,1.1,-.1,1.5,-.5c.4,-.3,.5,-.7,.5,-1.3c0,-1,-1.1,-1.6,-1.9,-2.1c-.4,-.3,-1.2,-.6,-1.2,-1.4c0,-.5,.3,-1,.9,-1Z" class="g0_133"/>
<path d="M465.9,459.3c-2.1,1.4,-3.6,3.8,-3.6,6.9c0,2.7,1.5,5.5,3.6,6.8l.2,-.2c-2,-1.6,-2.6,-3.4,-2.6,-6.7c0,-3.3,.6,-5,2.6,-6.5l-.2,-.3Z" class="g0_133"/>
<path d="M473.1,464.2c0,-.2,-.1,-.4,-.2,-.6c-.2,-.1,-.4,-.2,-.6,-.2c-.5,0,-1,.3,-1.2,.6c-.4,.3,-.8,.8,-1,1.2H470c.1,-.1,.1,-.3,.1,-.4c0,-.1,0,-.2,0,-.4c0,-.5,-.1,-.9,-.5,-.9c-1.1,0,-2,1.1,-2.2,1.8l.2,.1c.2,-.3,.9,-1.4,1.4,-1.4c.1,0,.1,.5,.1,.7c0,.1,0,.2,0,.3c-.3,.9,-.4,1.6,-.8,2.5l-.8,2.5h1.1l.5,-1.7c.2,-.5,.4,-1.2,.6,-1.7c.2,-.4,.5,-.9,.7,-1.2c.2,-.4,.6,-1.1,1.1,-1.1c.2,0,.2,.2,.3,.2l.1,.2c.1,.1,.2,.2,.5,.2c.4,0,.7,-.3,.7,-.7Z" class="g0_133"/>
<path d="M474.4,459.3l-.1,.3c1.9,1.5,2.5,3.2,2.5,6.5c0,3.3,-.6,5.1,-2.5,6.7l.2,.2c2,-1.3,3.6,-4.1,3.6,-6.8c0,-3.1,-1.5,-5.5,-3.7,-6.9Z" class="g0_133"/>
<path d="M498.6,469.9c-1.9,0,-1.9,-2.8,-1.9,-4.9c0,-2.3,0,-5.2,1.9,-5.2c2,0,2,2.9,2,5.2c0,2.1,-.1,4.9,-2,4.9Zm0,-10.4c-2.6,0,-3.3,2.7,-3.3,5.4c0,2.6,.8,5.2,3.3,5.2c2.6,0,3.4,-2.6,3.4,-5.2c0,-2.7,-.7,-5.4,-3.4,-5.4Z" class="g0_133"/>
<path d="M401.8,487.8c-1.9,0,-1.9,-2.8,-1.9,-4.9c0,-2.3,0,-5.2,1.9,-5.2c1.9,0,1.9,2.9,1.9,5.2c0,2.1,0,4.9,-1.9,4.9Zm0,-10.4c-2.6,0,-3.4,2.7,-3.4,5.4c0,2.6,.9,5.2,3.4,5.2c2.6,0,3.4,-2.6,3.4,-5.2c0,-2.7,-.8,-5.4,-3.4,-5.4Z" class="g0_133"/>
<path d="M460.3,487.8c-1.9,0,-2,-2.8,-2,-4.9c0,-2.3,0,-5.2,2,-5.2c1.9,0,1.9,2.9,1.9,5.2c0,2.1,0,4.9,-1.9,4.9Zm0,-10.4c-2.6,0,-3.4,2.7,-3.4,5.4c0,2.6,.8,5.2,3.4,5.2c2.6,0,3.4,-2.6,3.4,-5.2c0,-2.7,-.8,-5.4,-3.4,-5.4Z" class="g0_133"/>
<path d="M496.4,478.2v.2c.5,0,1.1,.1,1.4,.2c.4,.2,.4,.4,.4,1v6.5c0,.3,0,.6,0,.8c-.1,.7,-.9,.7,-1.7,.8v.2h4.7v-.2c-.5,0,-1.2,-.1,-1.4,-.3c-.3,-.3,-.3,-.8,-.3,-1.4v-8.6c-.8,.4,-2.1,.8,-3.1,.8Z" class="g0_133"/>
<path d="M503.3,440.6c0,.1,0,.2,.1,.3c3.2,5.4,4,19.2,4,20.4v.6h1.4v-.6c0,-1.6,-.6,-15.5,-5.3,-20.8q-.1,0,-.1,0q-.1,0,-.1,.1Z" class="g0_133"/>
<path d="M507.4,471.2h1.4v-9.6h-1.4Z" class="g0_133"/>
<path d="M503.3,492.3q0,.1,.1,.1h.1c4.7,-5.3,5.3,-19.2,5.3,-20.8V471h-1.4v.6c0,1.2,-.8,15,-4,20.4c-.1,.1,-.1,.2,-.1,.3Z" class="g0_133"/>
<path d="M410.5,559c0,-.1,-.1,-.1,-.1,-.1q-.1,0,-.1,0c-4.8,5.3,-5.3,19.2,-5.3,20.8v.7h1.4v-.7c0,-1.2,.7,-15,3.9,-20.4c.1,-.1,.2,-.2,.2,-.3Z" class="g0_133"/>
<path d="M405,589.6h1.4V580H405Z" class="g0_133"/>
<path d="M410.5,610.8c0,-.2,-.1,-.3,-.2,-.4c-3.2,-5.4,-3.9,-19.1,-3.9,-20.3v-.7H405v.7c0,1.5,.5,15.4,5.3,20.7h.1c0,0,.1,0,.1,0Z" class="g0_133"/>
<path d="M412.8,570.3c-.5,0,-.6,-.4,-.5,-.8c.1,-.5,-.3,-.7,-.6,-.7c-.4,0,-.6,.3,-.6,.7c0,.8,.7,1.1,1.5,1.1c.6,0,1.2,-.2,1.5,-.5c.3,-.4,.6,-.8,.6,-1.5c0,-.4,-.1,-.7,-.3,-1c-.2,-.6,-.7,-1,-1,-1.5c-.1,-.2,-.2,-.5,-.2,-.8c.1,-.3,.2,-1,.8,-1c.6,0,.5,.5,.4,.7c0,.2,.2,.6,.6,.6c.3,0,.5,-.2,.5,-.5c0,-.7,-.7,-1.1,-1.4,-1.1c-.6,0,-1,.2,-1.4,.5c-.3,.3,-.5,.8,-.5,1.4c0,.3,.1,.6,.3,.9c.3,.5,.7,1,1,1.5c.2,.2,.2,.5,.2,.8c0,.5,-.1,1.2,-.9,1.2Z" class="g0_133"/>
<path d="M420.9,568.7c0,-.4,-.3,-.7,-.7,-.7c-.3,0,-.5,.1,-.7,.3c-.3,.1,-.5,.3,-.7,.6c0,-.5,-.3,-.9,-.7,-.9c-.8,0,-1.5,.9,-1.8,1.4l.2,.1c.2,-.3,.7,-1.2,1.4,-1.2c.2,0,.3,.4,.3,.7c0,.2,-.1,.5,-.2,.8l-.2,.9c-.1,.4,-.3,1,-.5,1.3c-.2,.2,-.4,.5,-.6,.5c-.3,0,-.6,-.1,-.5,-.4c.1,-.2,0,-.5,-.3,-.5c-.3,0,-.4,.2,-.4,.5c0,.5,.3,.7,.7,.7c.8,0,1.3,-.5,1.6,-1c.1,.6,.4,1,1,1c.8,0,1.5,-.8,1.8,-1.3l-.2,-.1c-.3,.4,-.8,1.2,-1.4,1.2c-.3,0,-.5,-.5,-.5,-.9c0,-.3,.1,-.6,.2,-1l.1,-.5c.1,-.4,.2,-.9,.4,-1.2c.2,-.2,.5,-.7,.7,-.7c.3,0,.3,.2,.3,.5c0,.2,.1,.4,.3,.4c.3,0,.4,-.2,.4,-.5Z" class="g0_133"/>
<path d="M442.4,570.4c-1.9,0,-1.9,-2.7,-1.9,-4.9c0,-2.2,0,-5.2,1.9,-5.2c1.9,0,1.9,3,1.9,5.2c0,2.2,0,4.9,-1.9,4.9Zm0,-10.4c-2.6,0,-3.4,2.7,-3.4,5.4c0,2.6,.8,5.2,3.4,5.2c2.6,0,3.4,-2.5,3.4,-5.2c0,-2.7,-.8,-5.4,-3.4,-5.4Z" class="g0_133"/>
<path d="M466.8,570.4c-1.9,0,-1.9,-2.7,-1.9,-4.9c0,-2.2,0,-5.2,1.9,-5.2c1.9,0,1.9,3,1.9,5.2c0,2.2,0,4.9,-1.9,4.9Zm0,-10.4c-2.6,0,-3.4,2.7,-3.4,5.4c0,2.6,.8,5.2,3.4,5.2c2.6,0,3.4,-2.5,3.4,-5.2c0,-2.7,-.8,-5.4,-3.4,-5.4Z" class="g0_133"/>
<path d="M416.5,588.3c-1.9,0,-1.9,-2.7,-1.9,-4.9c0,-2.2,0,-5.2,1.9,-5.2c2,0,2,3,2,5.2c0,2.2,-.1,4.9,-2,4.9Zm0,-10.4c-2.6,0,-3.3,2.7,-3.3,5.4c0,2.6,.8,5.2,3.3,5.2c2.6,0,3.4,-2.5,3.4,-5.2c0,-2.7,-.8,-5.4,-3.4,-5.4Z" class="g0_133"/>
<path d="M438.9,588.2c-.5,0,-.6,-.4,-.5,-.8c.1,-.5,-.2,-.7,-.6,-.7c-.4,0,-.6,.3,-.6,.7c0,.8,.8,1.1,1.6,1.1c.6,0,1.1,-.2,1.5,-.5c.3,-.4,.5,-.8,.5,-1.5c0,-.4,0,-.7,-.2,-1c-.3,-.6,-.7,-1,-1,-1.5c-.1,-.2,-.2,-.5,-.2,-.8c0,-.3,.1,-1,.7,-1c.6,0,.6,.5,.5,.7c-.1,.2,.1,.6,.5,.6c.4,0,.5,-.2,.5,-.5c0,-.7,-.6,-1.1,-1.3,-1.1c-.6,0,-1.1,.2,-1.4,.5c-.4,.3,-.5,.8,-.5,1.4c0,.3,.1,.6,.2,.9c.3,.5,.7,1,1.1,1.5c.1,.2,.2,.5,.2,.8c0,.5,-.1,1.2,-1,1.2Z" class="g0_133"/>
<path d="M441,592.2c0,.5,.4,.7,.8,.7c.4,0,.6,-.1,1,-.4c.6,-.5,1.5,-1.6,2,-2.5c.3,-.5,.6,-.9,.8,-1.3c.3,-.6,.8,-1.6,.8,-2.2c0,-.1,0,-.3,-.1,-.4c-.1,-.1,-.2,-.2,-.3,-.2c-.2,0,-.3,.1,-.4,.2c-.1,.1,-.1,.2,-.1,.4c0,.4,.1,.7,.1,1c0,.4,-.1,.8,-.3,1.2c-.2,.3,-.3,.6,-.6,1l-.3,-1.4c-.1,-.4,-.2,-1.2,-.3,-1.5c-.1,-.5,-.2,-.9,-.9,-.9c-.9,0,-1,1.3,-1.2,1.9l.2,.1c.1,-.5,.4,-1.7,.8,-1.7c.2,0,.3,.7,.4,.9c0,.2,.1,.5,.2,1l.4,2.5c-.3,.6,-.9,1.3,-1.3,1.6c-.2,.1,-.4,.2,-.5,.2c-.1,0,-.2,0,-.2,-.1c-.2,-.2,-.2,-.6,-.5,-.6c-.3,0,-.5,.2,-.5,.5Z" class="g0_133"/>
<path d="M466.8,588.3c-1.9,0,-1.9,-2.7,-1.9,-4.9c0,-2.2,0,-5.2,1.9,-5.2c1.9,0,1.9,3,1.9,5.2c0,2.2,0,4.9,-1.9,4.9Zm0,-10.4c-2.6,0,-3.4,2.7,-3.4,5.4c0,2.6,.8,5.2,3.4,5.2c2.6,0,3.4,-2.5,3.4,-5.2c0,-2.7,-.8,-5.4,-3.4,-5.4Z" class="g0_133"/>
<path d="M416.5,606.2c-1.9,0,-1.9,-2.7,-1.9,-4.9c0,-2.2,0,-5.2,1.9,-5.2c2,0,2,3,2,5.2c0,2.2,-.1,4.9,-2,4.9Zm0,-10.4c-2.6,0,-3.3,2.7,-3.3,5.4c0,2.6,.8,5.2,3.3,5.2c2.6,0,3.4,-2.5,3.4,-5.2c0,-2.7,-.8,-5.4,-3.4,-5.4Z" class="g0_133"/>
<path d="M442.4,606.2c-1.9,0,-1.9,-2.7,-1.9,-4.9c0,-2.2,0,-5.2,1.9,-5.2c1.9,0,1.9,3,1.9,5.2c0,2.2,0,4.9,-1.9,4.9Zm0,-10.4c-2.6,0,-3.4,2.7,-3.4,5.4c0,2.6,.8,5.2,3.4,5.2c2.6,0,3.4,-2.5,3.4,-5.2c0,-2.7,-.8,-5.4,-3.4,-5.4Z" class="g0_133"/>
<path d="M464.6,596.6v.2c.4,0,1.1,.1,1.3,.2c.5,.2,.4,.4,.5,1v6.5c0,.3,-.1,.6,-.1,.8c-.1,.7,-.9,.8,-1.6,.8v.2h4.7v-.2c-.5,0,-1.3,-.1,-1.5,-.3c-.2,-.3,-.2,-.8,-.2,-1.4v-8.6c-.8,.4,-2.1,.8,-3.1,.8Z" class="g0_133"/>
<path d="M471.4,559c0,.1,.1,.2,.2,.3c3.1,5.4,3.9,19.2,3.9,20.4v.7h1.4v-.7c0,-1.6,-.5,-15.5,-5.3,-20.8c0,0,-.1,0,-.1,0c0,0,-.1,0,-.1,.1Z" class="g0_133"/>
<path d="M475.5,589.6h1.4V580h-1.4Z" class="g0_133"/>
<path d="M471.4,610.8c0,0,.1,0,.1,0c0,0,.1,0,.1,0c4.8,-5.3,5.3,-19.2,5.3,-20.7v-.7h-1.4v.7c0,1.2,-.8,14.9,-3.9,20.3c-.1,.1,-.2,.2,-.2,.4Z" class="g0_133"/>
<path d="M412.2,678.3c0,0,-.1,0,-.1,0q-.1,0,-.1,0c-4.8,5.3,-5.3,19.2,-5.3,20.7v.7h1.4V699c0,-1.2,.8,-14.9,3.9,-20.3c.1,-.1,.2,-.2,.2,-.4Z" class="g0_133"/>
<path d="M406.7,709h1.4v-9.6h-1.4Z" class="g0_133"/>
<path d="M412.2,730.1c0,-.1,-.1,-.2,-.2,-.3c-3.1,-5.5,-3.9,-19.2,-3.9,-20.4v-.7h-1.4v.7c0,1.6,.5,15.5,5.3,20.8h.1c0,0,.1,0,.1,-.1Z" class="g0_133"/>
<path d="M417.4,683.4c-.5,0,-.9,.1,-1.3,.5c-.5,.2,-.9,.6,-1.3,1.1c-.6,.8,-1.2,2,-1.2,3.3c0,.9,.3,1.7,1.3,1.7c1.3,0,1.8,-.9,2.2,-1.6c-.2,.9,-.1,1.6,.5,1.6c.4,0,.8,-.2,1.2,-.5c.4,-.3,.7,-.8,1,-1.4l-.1,-.1c-.3,.4,-1,1.3,-1.4,1.3c-.2,0,-.2,-.3,-.2,-.5c0,-.9,.6,-2.5,.9,-3.4l.7,-1.9h-1l-.3,.7c-.1,-.5,-.4,-.8,-1,-.8Zm.1,.3c.7,0,.6,1.3,.4,1.8c0,.4,-.1,.7,-.2,1c-.4,1.2,-1.5,3.1,-2.3,3.1c-.6,0,-.8,-.9,-.8,-1.4c0,-.4,0,-.9,.2,-1.3c.4,-1.1,1.4,-3.2,2.7,-3.2Z" class="g0_133"/>
<path d="M440.6,683.7c1.3,0,.9,1.9,.4,3.2c-.3,.9,-1.3,2.8,-2.4,2.8c-.5,0,-.7,-.3,-.7,-1c0,-.7,.3,-1.8,.5,-2.4c.3,-.6,.8,-1.5,1.2,-2c.2,-.3,.6,-.6,1,-.6Zm-2.2,6.3c1.7,0,2.9,-1.5,3.5,-2.6c.3,-.6,.6,-1.4,.6,-2.3c0,-1,-.5,-1.7,-1.5,-1.7c-.9,0,-1.6,.5,-2,1.2v-.1l1.5,-5.5h-2.1v.3c.6,0,.8,.3,.8,.5c0,.2,-.1,.6,-.1,.8l-1.6,5.7c-.2,.5,-.3,.9,-.4,1.3c-.1,.4,-.1,.7,-.1,.9c0,.9,.5,1.5,1.4,1.5Z" class="g0_133"/>
<path d="M461.8,688c0,-.4,.1,-.9,.2,-1.4c.3,-1,1.1,-2.9,2.2,-2.9c.4,0,.4,.2,.4,.3c0,.1,-.1,.2,-.1,.4c0,.4,.2,.6,.5,.6c.4,0,.7,-.2,.7,-.6c0,-.7,-.6,-1,-1.3,-1c-1.5,0,-2.6,1.4,-3.2,2.5c-.3,.6,-.5,1.3,-.5,2.1c0,1.1,.6,2,1.7,2c1.3,0,2.1,-1.1,2.6,-2.1l-.3,-.1c-.4,1,-1.2,1.9,-2,1.9c-.6,0,-.9,-1,-.9,-1.7Z" class="g0_133"/>
<path d="M417.5,702.4c0,.7,-.2,1.6,-.4,2.1c-.1,.6,-.6,1.8,-1,2.3c-.3,.3,-.8,.8,-1.2,.8c-.5,0,-.8,-.5,-.8,-1c0,-.6,.1,-1.8,.3,-2.3c.4,-.9,1.3,-2.7,2.4,-2.7c.5,0,.7,.4,.7,.8Zm.2,5.5c.4,0,.8,-.2,1.1,-.6c.3,-.3,.6,-.9,.9,-1.7l-.3,-.1c-.2,.5,-.7,1.9,-1.3,1.9c-.3,0,-.4,-.5,-.4,-.8c0,-.1,0,-.3,.1,-.5c.1,-.6,.2,-1.1,.4,-1.8c.1,-.5,.2,-1,.4,-1.6l1.6,-5.9h-2.3l-.1,.3c.5,0,.6,0,.8,.1c.1,.1,.3,.3,.3,.4c0,.3,-.1,.6,-.2,.9l-.9,3.4c-.3,-.4,-.5,-.6,-1.1,-.6c-1,0,-1.9,.9,-2.4,1.6c-.3,.3,-.5,.6,-.7,1c-.3,.6,-.6,1.3,-.6,2.1c0,.6,.2,1,.4,1.4c.2,.2,.6,.5,1,.5c1.4,0,1.9,-.9,2.4,-1.7l.1,.1c-.1,0,-.1,.2,-.1,.2c0,.1,0,.2,0,.3c0,.6,.3,1.1,.9,1.1Z" class="g0_133"/>
<path d="M441.1,701.6c.2,0,.5,.3,.5,.6c0,1.3,-1.7,2.3,-2.9,2.7c.3,-1,1.2,-3.3,2.4,-3.3Zm.1,-.3c-1.1,0,-2,.8,-2.6,1.5c-.6,.7,-1.1,1.8,-1.1,3.1c0,1.2,.4,2,1.6,2c1,0,2,-.8,2.6,-1.7l-.3,-.2c-.4,.6,-1.2,1.6,-2,1.6c-.6,0,-.9,-.5,-.9,-1.4c0,-.3,.1,-.7,.1,-.9c1.5,-.4,3.9,-1.3,3.9,-3c0,-.7,-.6,-1,-1.3,-1Z" class="g0_133"/>
<path d="M459.9,710.6c-.3,0,-.4,-.2,-.4,-.5c-.1,-.3,-.2,-.5,-.6,-.5c-.2,0,-.3,.2,-.3,.4c0,.6,.7,.9,1.2,.9c.9,0,.9,-.2,1.3,-.8c.3,-.3,.4,-.7,.6,-1.2c.2,-.5,.5,-1.2,.7,-2l1.4,-5.1H465l.1,-.4h-1.2c.3,-1.1,.8,-3.1,1.1,-3.8c.1,-.2,.4,-.4,.7,-.4c.4,0,.5,.2,.5,.4c.1,.3,.2,.6,.5,.6c.3,0,.4,-.3,.4,-.5c0,-.6,-.7,-.9,-1.2,-.9c-1.9,.1,-2.6,3,-3,4.6h-1.2l-.1,.4h1.2l-2,7.3c-.1,.4,-.4,1.5,-.9,1.5Z" class="g0_133"/>
<path d="M416.8,725.5c-1.9,0,-1.9,-2.7,-1.9,-4.9c0,-2.2,0,-5.1,1.9,-5.1c1.9,0,1.9,2.9,1.9,5.1c0,2.2,0,4.9,-1.9,4.9Zm0,-10.3c-2.6,0,-3.4,2.7,-3.4,5.4c0,2.6,.8,5.2,3.4,5.2c2.6,0,3.4,-2.6,3.4,-5.2c0,-2.7,-.8,-5.4,-3.4,-5.4Z" class="g0_133"/>
<path d="M440.1,725.5c-1.9,0,-2,-2.7,-2,-4.9c0,-2.2,0,-5.1,2,-5.1c1.9,0,1.9,2.9,1.9,5.1c0,2.2,0,4.9,-1.9,4.9Zm0,-10.3c-2.6,0,-3.4,2.7,-3.4,5.4c0,2.6,.8,5.2,3.4,5.2c2.5,0,3.3,-2.6,3.3,-5.2c0,-2.7,-.7,-5.4,-3.3,-5.4Z" class="g0_133"/>
<path d="M461.2,716v.2c.5,0,1.1,0,1.4,.2c.4,.2,.4,.4,.4,1v6.5c0,.3,0,.6,0,.8c-.1,.6,-.9,.7,-1.7,.8v.2H466v-.2c-.5,-.1,-1.2,-.1,-1.4,-.4c-.3,-.3,-.3,-.7,-.3,-1.3v-8.6c-.8,.4,-2.1,.7,-3.1,.8Z" class="g0_133"/>
<path d="M468.2,678.3c0,.2,0,.3,.1,.4c3.2,5.4,4,19.1,4,20.3v.7h1.4V699c0,-1.5,-.6,-15.4,-5.3,-20.7c0,0,-.1,0,-.1,0q-.1,0,-.1,0Z" class="g0_133"/>
<path d="M472.3,709h1.4v-9.6h-1.4Z" class="g0_133"/>
<path d="M468.2,730.1q0,.1,.1,.1c0,0,.1,0,.1,0c4.7,-5.3,5.3,-19.2,5.3,-20.8v-.7h-1.4v.7c0,1.2,-.8,14.9,-4,20.4c-.1,.1,-.1,.2,-.1,.3Z" class="g0_133"/>
</svg>