<?xml version="1.0" encoding="UTF-8" standalone="no"?>
<!DOCTYPE svg PUBLIC "-//W3C//DTD SVG 1.1//EN"
"http://www.w3.org/Graphics/SVG/1.1/DTD/svg11.dtd">
<svg viewBox="0 0 811 1017" version="1.1" xmlns="http://www.w3.org/2000/svg" xmlns:xlink="http://www.w3.org/1999/xlink">
<defs>
<style type="text/css"><![CDATA[
.g0_119{
fill: #0E0E0E;
}
]]></style>
</defs>
<path d="M369.2,288.4c-2.3,-3.4,-2.9,-12.3,-2.9,-17.8c0,-5.5,.6,-13.8,2.9,-17.2l-.2,-.6c-2.2,3.2,-4.1,7.9,-4.1,17.8c0,9.8,2,15.8,4.1,18.4l.2,-.6Z" class="g0_119"/>
<path d="M374.4,259c-.4,0,-.8,.1,-1.3,.4c-.4,.3,-.8,.7,-1.2,1.2c-.6,.7,-1.3,1.9,-1.3,3.2c0,1,.4,1.8,1.3,1.8c1.3,0,1.8,-.9,2.2,-1.6c-.2,.9,0,1.6,.6,1.6c.4,0,.7,-.2,1.1,-.5c.4,-.3,.8,-.8,1.1,-1.4l-.2,-.1c-.2,.4,-.9,1.3,-1.3,1.3c-.2,0,-.3,-.3,-.3,-.5c0,-1,.6,-2.5,1,-3.5l.7,-1.8h-1l-.3,.6c-.2,-.4,-.5,-.7,-1.1,-.7Zm.2,.2c.7,0,.5,1.3,.4,1.9c0,.3,-.2,.7,-.3,1c-.4,1.2,-1.4,3.1,-2.2,3.1c-.7,0,-.8,-.9,-.8,-1.4c0,-.5,0,-.9,.2,-1.4c.3,-1,1.4,-3.2,2.7,-3.2Z" class="g0_119"/>
<path d="M378.8,260.7v.2c.3,0,.8,0,1,.1c.3,.2,.3,.3,.3,.7v4.8c0,.2,0,.4,0,.6c-.1,.4,-.7,.5,-1.2,.5v.2h3.4v-.2c-.4,0,-.9,0,-1.1,-.2c-.1,-.2,-.1,-.6,-.1,-1v-6.2c-.6,.3,-1.6,.5,-2.3,.5Z" class="g0_119"/>
<path d="M384.9,260.7v.2c.3,0,.8,0,1,.1c.3,.2,.3,.3,.3,.7v4.8c0,.2,0,.4,0,.6c-.1,.4,-.7,.5,-1.2,.5v.2h3.4v-.2c-.4,0,-.9,0,-1.1,-.2c-.1,-.2,-.1,-.6,-.1,-1v-6.2c-.6,.3,-1.6,.5,-2.3,.5Z" class="g0_119"/>
<path d="M409.7,259c-.4,0,-.8,.1,-1.3,.4c-.4,.3,-.8,.7,-1.2,1.2c-.6,.7,-1.2,1.9,-1.2,3.2c0,1,.3,1.8,1.3,1.8c1.3,0,1.7,-.9,2.1,-1.6h.1c-.2,.9,-.1,1.6,.5,1.6c.4,0,.7,-.2,1.1,-.5c.4,-.3,.8,-.8,1.1,-1.4l-.1,-.1c-.3,.4,-1,1.3,-1.4,1.3c-.2,0,-.3,-.3,-.3,-.5c0,-1,.6,-2.5,1,-3.5l.7,-1.8h-1l-.3,.6c-.2,-.4,-.5,-.7,-1.1,-.7Zm.2,.2c.7,0,.5,1.3,.4,1.9c0,.3,-.2,.7,-.3,1c-.3,1.2,-1.4,3.1,-2.2,3.1c-.6,0,-.8,-.9,-.8,-1.4c0,-.5,0,-.9,.2,-1.4c.4,-1,1.4,-3.2,2.7,-3.2Z" class="g0_119"/>
<path d="M414.1,260.7v.2c.4,0,.8,0,1,.1c.3,.2,.3,.3,.3,.7v4.8c0,.2,0,.4,0,.6c-.1,.4,-.7,.5,-1.2,.5v.2h3.4v-.2c-.4,0,-.9,0,-1,-.2c-.2,-.2,-.2,-.6,-.2,-1v-6.2c-.6,.3,-1.6,.5,-2.3,.5Z" class="g0_119"/>
<path d="M421.4,263.1c-.6,0,-1,-.4,-1,-1.1c0,-.8,.4,-1.6,1.3,-1.6c1.2,0,1.3,.9,1.3,1.9c0,.9,-.3,1.4,-.7,2.1c-.3,.4,-.7,.8,-1.1,1.3c-.5,.5,-1.1,1.1,-1.9,1.8v.3h4.6l.3,-2.1h-.3c0,.2,-.1,.4,-.2,.6c-.2,.3,-.5,.5,-1,.5h-2.1c.5,-.4,.9,-.7,1.4,-1.1c.7,-.6,1.5,-1.4,1.9,-2.2c.2,-.4,.3,-.8,.3,-1.2c0,-.3,-.1,-.6,-.2,-.9c-.4,-.7,-1.1,-1.3,-2.2,-1.3c-.7,0,-1.3,.3,-1.7,.6c-.4,.3,-.7,.8,-.7,1.5c0,.5,.1,.8,.4,1c.2,.3,.5,.5,.9,.5c.4,0,.7,-.2,.7,-.6Z" class="g0_119"/>
<path d="M374.4,276.9c-.4,0,-.8,.1,-1.3,.4c-.4,.3,-.8,.7,-1.2,1.2c-.6,.7,-1.3,1.9,-1.3,3.2c0,1,.4,1.8,1.3,1.8c1.3,0,1.8,-.9,2.2,-1.6c-.2,.9,0,1.6,.6,1.6c.4,0,.7,-.2,1.1,-.5c.4,-.3,.8,-.8,1.1,-1.4l-.2,-.1c-.2,.4,-.9,1.3,-1.3,1.3c-.2,0,-.3,-.3,-.3,-.5c0,-1,.6,-2.5,1,-3.5l.7,-1.8h-1l-.3,.6c-.2,-.4,-.5,-.7,-1.1,-.7Zm.2,.2c.7,0,.5,1.3,.4,1.9c0,.3,-.2,.7,-.3,1c-.4,1.2,-1.4,3.1,-2.2,3.1c-.7,0,-.8,-.9,-.8,-1.4c0,-.5,0,-.9,.2,-1.4c.3,-1,1.4,-3.2,2.7,-3.2Z" class="g0_119"/>
<path d="M380,281c-.7,0,-1.1,-.4,-1.1,-1.1c0,-.8,.5,-1.6,1.4,-1.6c1.2,0,1.3,.9,1.3,1.9c0,.9,-.3,1.4,-.7,2.1c-.3,.4,-.7,.8,-1.2,1.3c-.4,.5,-1.1,1.1,-1.8,1.8v.3h4.6l.3,-2.1h-.3c0,.2,-.1,.4,-.2,.6c-.2,.3,-.5,.5,-1,.5h-2.1c.4,-.4,.9,-.7,1.3,-1.1c.8,-.6,1.6,-1.4,2,-2.2c.2,-.4,.3,-.8,.3,-1.2c0,-.3,-.1,-.6,-.2,-.9c-.4,-.7,-1.1,-1.3,-2.2,-1.3c-.7,0,-1.3,.3,-1.7,.6c-.4,.3,-.7,.8,-.7,1.5c0,.5,.1,.8,.3,1c.2,.3,.5,.5,1,.5c.4,0,.6,-.2,.7,-.6Z" class="g0_119"/>
<path d="M384.9,278.6v.2c.3,0,.8,0,1,.1c.3,.2,.3,.3,.3,.7v4.8c0,.2,0,.4,0,.6c-.1,.4,-.7,.5,-1.2,.5v.2h3.4v-.2c-.4,0,-.9,0,-1.1,-.2c-.1,-.2,-.1,-.6,-.1,-1v-6.2c-.6,.3,-1.6,.5,-2.3,.5Z" class="g0_119"/>
<path d="M409.7,276.9c-.4,0,-.8,.1,-1.3,.4c-.4,.3,-.8,.7,-1.2,1.2c-.6,.7,-1.2,1.9,-1.2,3.2c0,1,.3,1.8,1.3,1.8c1.3,0,1.7,-.9,2.1,-1.6h.1c-.2,.9,-.1,1.6,.5,1.6c.4,0,.7,-.2,1.1,-.5c.4,-.3,.8,-.8,1.1,-1.4l-.1,-.1c-.3,.4,-1,1.3,-1.4,1.3c-.2,0,-.3,-.3,-.3,-.5c0,-1,.6,-2.5,1,-3.5l.7,-1.8h-1l-.3,.6c-.2,-.4,-.5,-.7,-1.1,-.7Zm.2,.2c.7,0,.5,1.3,.4,1.9c0,.3,-.2,.7,-.3,1c-.3,1.2,-1.4,3.1,-2.2,3.1c-.6,0,-.8,-.9,-.8,-1.4c0,-.5,0,-.9,.2,-1.4c.4,-1,1.4,-3.2,2.7,-3.2Z" class="g0_119"/>
<path d="M415.3,281c-.6,0,-1,-.4,-1,-1.1c0,-.8,.4,-1.6,1.3,-1.6c1.2,0,1.3,.9,1.3,1.9c0,.9,-.3,1.4,-.7,2.1c-.3,.4,-.7,.8,-1.1,1.3c-.5,.5,-1.1,1.1,-1.9,1.8v.3h4.6l.3,-2.1h-.3c0,.2,-.1,.4,-.2,.6c-.2,.3,-.5,.5,-1,.5h-2.1c.5,-.4,.9,-.7,1.4,-1.1c.7,-.6,1.5,-1.4,1.9,-2.2c.2,-.4,.3,-.8,.3,-1.2c0,-.3,-.1,-.6,-.2,-.9c-.3,-.7,-1.1,-1.3,-2.2,-1.3c-.7,0,-1.3,.3,-1.7,.6c-.4,.3,-.7,.8,-.7,1.5c0,.5,.1,.8,.4,1c.2,.3,.5,.5,.9,.5c.4,0,.7,-.2,.7,-.6Z" class="g0_119"/>
<path d="M421.4,281c-.6,0,-1,-.4,-1,-1.1c0,-.8,.4,-1.6,1.3,-1.6c1.2,0,1.3,.9,1.3,1.9c0,.9,-.3,1.4,-.7,2.1c-.3,.4,-.7,.8,-1.1,1.3c-.5,.5,-1.1,1.1,-1.9,1.8v.3h4.6l.3,-2.1h-.3c0,.2,-.1,.4,-.2,.6c-.2,.3,-.5,.5,-1,.5h-2.1c.5,-.4,.9,-.7,1.4,-1.1c.7,-.6,1.5,-1.4,1.9,-2.2c.2,-.4,.3,-.8,.3,-1.2c0,-.3,-.1,-.6,-.2,-.9c-.4,-.7,-1.1,-1.3,-2.2,-1.3c-.7,0,-1.3,.3,-1.7,.6c-.4,.3,-.7,.8,-.7,1.5c0,.5,.1,.8,.4,1c.2,.3,.5,.5,.9,.5c.4,0,.7,-.2,.7,-.6Z" class="g0_119"/>
<path d="M426.4,288.4l.2,.6c2.1,-2.6,4.1,-8.6,4.1,-18.4c0,-9.9,-1.9,-14.6,-4.1,-17.8l-.2,.6c2.2,3.4,2.8,11.7,2.8,17.2c0,5.5,-.6,14.4,-2.8,17.8Z" class="g0_119"/>
<path d="M444.6,274.1l-3.3,-3.3l3.3,-3.3l-.6,-.6l-3.3,3.3l-3.3,-3.3l-.6,.6l3.3,3.3l-3.3,3.3l.6,.6l3.3,-3.3l3.3,3.3l.6,-.6Z" class="g0_119"/>
<path d="M455,288.4c-2.3,-3.4,-2.9,-12.3,-2.9,-17.8c0,-5.5,.6,-13.8,2.9,-17.2l-.2,-.6c-2.2,3.2,-4.1,7.9,-4.1,17.8c0,9.8,2,15.8,4.1,18.4l.2,-.6Z" class="g0_119"/>
<path d="M462.9,259.9c0,-.5,-.4,-.9,-.9,-.9c-.4,0,-.7,.1,-1,.3c-.3,.2,-.6,.5,-.8,.9c0,-.7,-.5,-1.2,-1.1,-1.2c-1.1,0,-2.1,1.1,-2.4,1.9l.2,.1c.3,-.5,1.1,-1.7,1.9,-1.7c.3,0,.4,.6,.4,1c0,.3,0,.7,-.2,1.2l-.3,1.1c-.2,.6,-.4,1.4,-.7,1.8c-.2,.3,-.5,.7,-.8,.7c-.5,0,-.8,-.1,-.7,-.5c.1,-.3,.1,-.7,-.4,-.7c-.4,0,-.6,.3,-.6,.7c0,.6,.5,1,1.1,1c1,0,1.7,-.8,2.1,-1.5c.1,.8,.5,1.5,1.4,1.5c1.1,0,2,-1.2,2.4,-1.9l-.2,-.1c-.5,.6,-1.2,1.6,-2,1.6c-.4,0,-.6,-.6,-.6,-1.2c0,-.4,.1,-.8,.2,-1.4l.2,-.7c.1,-.5,.3,-1.2,.6,-1.6c.2,-.3,.6,-.9,.9,-.9c.4,0,.4,.3,.4,.6c0,.4,.1,.5,.4,.5c.4,0,.5,-.2,.5,-.6Z" class="g0_119"/>
<path d="M466.1,261c0,-.3,-.3,-.6,-.6,-.6c-.3,0,-.5,.3,-.5,.6c0,.3,.2,.5,.5,.5c.3,0,.6,-.3,.6,-.5Zm-2.1,6.8c1,0,1.5,-.9,1.8,-1.5l-.2,-.1c-.2,.3,-.6,1.1,-1,1.1c-.1,0,-.3,-.2,-.3,-.3c0,-.2,.2,-.6,.2,-.8l.8,-2c.1,-.3,.1,-.5,.1,-.7c0,-.3,0,-.6,-.4,-.6c-.6,0,-1.5,.9,-1.7,1.4l.2,.1c.2,-.2,.6,-.8,.8,-.8c.2,0,.2,.1,.2,.2c.1,.2,0,.5,-.1,.7l-.7,2c-.1,.3,-.2,.5,-.2,.7c0,.4,.2,.6,.5,.6Z" class="g0_119"/>
<path d="M455.1,285.5c0,.6,.5,1,1.1,1c.5,0,.8,-.2,1.3,-.6c.8,-.7,2.1,-2.2,2.8,-3.5c.4,-.6,.8,-1.2,1.1,-1.8c.4,-.7,1.1,-2.1,1.1,-2.9c0,-.2,-.1,-.4,-.2,-.6c-.1,-.2,-.2,-.2,-.4,-.2c-.2,0,-.3,0,-.5,.2c-.1,.1,-.2,.3,-.2,.6c0,.5,.2,.9,.2,1.3c0,.6,-.2,1.2,-.4,1.6c-.3,.5,-.5,.9,-.8,1.4h-.1l-.3,-1.9c-.1,-.5,-.3,-1.6,-.4,-2c-.2,-.7,-.4,-1.2,-1.4,-1.2c-1.1,0,-1.3,1.7,-1.6,2.5l.3,.1c.2,-.6,.6,-2.3,1.1,-2.3c.3,0,.5,1,.5,1.3c.1,.3,.2,.7,.3,1.3l.6,3.5c-.4,.8,-1.2,1.7,-1.8,2.2c-.2,.2,-.6,.2,-.7,.2c-.1,0,-.2,0,-.3,-.1c-.2,-.3,-.2,-.8,-.6,-.8c-.4,0,-.7,.3,-.7,.7Z" class="g0_119"/>
<path d="M465.7,278.9c0,-.3,-.3,-.6,-.6,-.6c-.3,0,-.5,.3,-.5,.6c0,.3,.2,.5,.5,.5c.3,0,.6,-.3,.6,-.5Zm-2.1,6.8c1,0,1.5,-.9,1.8,-1.5l-.2,-.1c-.2,.3,-.6,1.1,-1,1.1c-.2,0,-.3,-.2,-.3,-.3c0,-.2,.2,-.6,.2,-.8l.7,-2c.1,-.3,.2,-.5,.2,-.7c0,-.3,0,-.6,-.4,-.6c-.7,0,-1.5,.9,-1.7,1.4l.2,.1c.1,-.2,.5,-.8,.8,-.8c.2,0,.2,.1,.2,.2c0,.2,-.1,.5,-.1,.7l-.8,2c-.1,.3,-.1,.5,-.1,.7c0,.4,.1,.6,.5,.6Z" class="g0_119"/>
<path d="M468.3,288.4l.2,.6c2.1,-2.6,4.1,-8.6,4.1,-18.4c0,-9.9,-1.9,-14.6,-4.1,-17.8l-.2,.6c2.3,3.4,2.9,11.7,2.9,17.2c0,5.5,-.6,14.4,-2.9,17.8Z" class="g0_119"/>
<path d="M479.3,272.8h7.6v-.9h-7.6Zm0,-3.1h7.6v-.8h-7.6Z" class="g0_119"/>
<path d="M497.9,288.4c-2.2,-3.4,-2.8,-12.3,-2.8,-17.8c0,-5.5,.6,-13.8,2.8,-17.2l-.1,-.6c-2.2,3.2,-4.1,7.9,-4.1,17.8c0,9.8,2,15.8,4.1,18.4l.1,-.6Z" class="g0_119"/>
<path d="M505.9,259.9c0,-.5,-.4,-.9,-1,-.9c-.3,0,-.6,.1,-.9,.3c-.4,.2,-.7,.5,-.9,.9c0,-.7,-.4,-1.2,-1,-1.2c-1.2,0,-2.1,1.1,-2.5,1.9l.2,.1c.4,-.5,1.1,-1.7,2,-1.7c.3,0,.4,.6,.4,1c0,.3,-.1,.7,-.2,1.2l-.4,1.1c-.1,.6,-.4,1.4,-.7,1.8c-.1,.3,-.4,.7,-.8,.7c-.4,0,-.7,-.1,-.6,-.5c.1,-.3,0,-.7,-.4,-.7c-.4,0,-.6,.3,-.6,.7c0,.6,.5,1,1,1c1,0,1.8,-.8,2.2,-1.5c.1,.8,.5,1.5,1.3,1.5c1.2,0,2,-1.2,2.5,-1.9l-.2,-.1c-.5,.6,-1.2,1.6,-2,1.6c-.4,0,-.6,-.6,-.6,-1.2c0,-.4,0,-.8,.1,-1.4l.2,-.7c.1,-.5,.4,-1.2,.6,-1.6c.2,-.3,.6,-.9,1,-.9c.4,0,.4,.3,.3,.6c0,.4,.2,.5,.5,.5c.4,0,.5,-.2,.5,-.6Z" class="g0_119"/>
<path d="M506.9,267.8c1,0,1.6,-1,1.9,-1.6l-.2,-.1c-.2,.3,-.7,1.2,-1.2,1.2c-.2,0,-.2,-.3,-.2,-.4c0,-.2,0,-.4,.1,-.7l.8,-2.9h.9l.1,-.3h-1l.4,-1.1h-.8l-.3,1.1h-.8v.3h.7l-.7,2.6c-.1,.3,-.1,.6,-.2,.8c0,.2,0,.4,0,.5c0,.4,.1,.6,.5,.6Z" class="g0_119"/>
<path d="M498.1,285.5c0,.6,.5,1,1.1,1c.4,0,.8,-.2,1.3,-.6c.8,-.7,2,-2.2,2.8,-3.5c.4,-.6,.7,-1.2,1,-1.8c.4,-.7,1.1,-2.1,1.1,-2.9c0,-.2,0,-.4,-.1,-.6c-.1,-.2,-.3,-.2,-.5,-.2c-.1,0,-.3,0,-.4,.2c-.2,.1,-.2,.3,-.2,.6c0,.5,.2,.9,.2,1.3c0,.6,-.2,1.2,-.4,1.6c-.3,.5,-.5,.9,-.9,1.4l-.4,-1.9c-.1,-.5,-.3,-1.6,-.4,-2c-.2,-.7,-.3,-1.2,-1.3,-1.2c-1.2,0,-1.4,1.7,-1.6,2.5l.3,.1c.1,-.6,.6,-2.3,1,-2.3c.3,0,.5,1,.6,1.3c0,.3,.1,.7,.2,1.3l.6,3.5c-.3,.8,-1.1,1.7,-1.8,2.2c-.2,.2,-.5,.2,-.7,.2q-.1,0,-.2,-.1c-.2,-.3,-.2,-.8,-.7,-.8c-.4,0,-.6,.3,-.6,.7Z" class="g0_119"/>
<path d="M506.5,285.7c1,0,1.6,-1,1.9,-1.6l-.2,-.1c-.2,.3,-.7,1.2,-1.2,1.2c-.2,0,-.3,-.3,-.3,-.4c0,-.2,.1,-.4,.2,-.7l.8,-2.9h.9l.1,-.3h-1l.3,-1.2h-.7l-.3,1.2h-.8v.3h.7l-.7,2.6c-.1,.3,-.1,.6,-.2,.8c0,.2,-.1,.4,-.1,.5c0,.4,.2,.6,.6,.6Z" class="g0_119"/>
<path d="M511.2,288.4l.2,.6c2.1,-2.6,4.1,-8.6,4.1,-18.4c0,-9.9,-1.9,-14.6,-4.1,-17.8l-.2,.6c2.2,3.4,2.8,11.7,2.8,17.2c0,5.5,-.6,14.4,-2.8,17.8Z" class="g0_119"/>
<path d="M335.7,401.9c-2.3,-3.4,-2.9,-12.4,-2.9,-17.9c0,-5.5,.6,-13.8,2.9,-17.2l-.2,-.6c-2.2,3.2,-4.1,8,-4.1,17.8c0,9.9,2,15.8,4.1,18.5l.2,-.6Z" class="g0_119"/>
<path d="M340.9,372.4c-.4,0,-.8,.1,-1.3,.5c-.4,.2,-.8,.6,-1.2,1.1c-.6,.8,-1.2,2,-1.2,3.2c0,1,.3,1.8,1.3,1.8c1.3,0,1.7,-.9,2.1,-1.6h.1c-.2,.9,-.1,1.6,.5,1.6c.4,0,.7,-.2,1.1,-.5c.4,-.3,.8,-.8,1.1,-1.4l-.1,-.1c-.3,.4,-1,1.3,-1.4,1.3c-.2,0,-.3,-.3,-.3,-.5c0,-.9,.6,-2.5,1,-3.4l.7,-1.9h-1l-.3,.7c-.2,-.5,-.5,-.8,-1.1,-.8Zm.2,.3c.7,0,.5,1.3,.4,1.8c0,.4,-.2,.7,-.3,1c-.3,1.2,-1.4,3.1,-2.2,3.1c-.6,0,-.8,-.9,-.8,-1.4c0,-.4,0,-.9,.2,-1.3c.4,-1.1,1.4,-3.2,2.7,-3.2Z" class="g0_119"/>
<path d="M345.3,374.1v.2c.4,0,.8,.1,1,.1c.3,.2,.3,.3,.3,.8v4.7c0,.3,0,.4,0,.6c-.1,.5,-.7,.5,-1.2,.6v.1h3.4v-.1c-.4,0,-.9,-.1,-1,-.3c-.2,-.2,-.2,-.5,-.2,-.9v-6.3c-.6,.3,-1.6,.5,-2.3,.5Z" class="g0_119"/>
<path d="M351.4,374.1v.2c.4,0,.8,.1,1,.1c.3,.2,.3,.3,.3,.8v4.7c0,.3,0,.4,0,.6c-.1,.5,-.7,.5,-1.2,.6v.1h3.4v-.1c-.4,0,-.9,-.1,-1,-.3c-.2,-.2,-.2,-.5,-.2,-.9v-6.3c-.6,.3,-1.6,.5,-2.3,.5Z" class="g0_119"/>
<path d="M376.3,372.4c-.5,0,-.9,.1,-1.3,.5c-.5,.2,-.9,.6,-1.3,1.1c-.6,.8,-1.2,2,-1.2,3.2c0,1,.3,1.8,1.3,1.8c1.3,0,1.8,-.9,2.2,-1.6c-.2,.9,-.1,1.6,.5,1.6c.4,0,.8,-.2,1.2,-.5c.3,-.3,.7,-.8,1,-1.4l-.1,-.1c-.3,.4,-1,1.3,-1.4,1.3c-.2,0,-.2,-.3,-.2,-.5c0,-.9,.6,-2.5,.9,-3.4l.7,-1.9h-1l-.3,.7c-.1,-.5,-.4,-.8,-1,-.8Zm.1,.3c.7,0,.6,1.3,.4,1.8c0,.4,-.1,.7,-.3,1c-.3,1.2,-1.4,3.1,-2.2,3.1c-.6,0,-.8,-.9,-.8,-1.4c0,-.4,0,-.9,.2,-1.3c.4,-1.1,1.4,-3.2,2.7,-3.2Z" class="g0_119"/>
<path d="M380.7,374.1v.2c.3,0,.8,.1,.9,.1c.3,.2,.3,.3,.3,.8v4.7c0,.3,0,.4,0,.6c-.1,.5,-.7,.5,-1.2,.6v.1h3.4v-.1c-.3,0,-.9,-.1,-1,-.3c-.2,-.2,-.2,-.5,-.2,-.9v-6.3c-.6,.3,-1.5,.5,-2.2,.5Z" class="g0_119"/>
<path d="M387.9,376.6c-.6,0,-1,-.5,-1,-1.2c0,-.8,.4,-1.6,1.3,-1.6c1.2,0,1.3,1,1.3,1.9c0,.9,-.3,1.5,-.7,2.1c-.3,.4,-.7,.9,-1.1,1.4c-.5,.5,-1.1,1,-1.9,1.7v.3h4.6l.4,-2.1h-.4c0,.3,-.1,.5,-.2,.6c-.1,.4,-.5,.6,-1,.6h-2.1v-.1c.5,-.3,1,-.7,1.4,-1c.7,-.7,1.5,-1.4,1.9,-2.3c.2,-.4,.3,-.8,.3,-1.2c0,-.3,-.1,-.6,-.2,-.8c-.3,-.8,-1.1,-1.3,-2.2,-1.3c-.7,0,-1.3,.2,-1.7,.6c-.4,.3,-.7,.8,-.7,1.4c0,.5,.2,.8,.4,1.1c.2,.2,.5,.4,.9,.4c.4,0,.7,-.2,.7,-.5Z" class="g0_119"/>
<path d="M340.9,390.3c-.4,0,-.8,.1,-1.3,.5c-.4,.2,-.8,.6,-1.2,1.1c-.6,.8,-1.2,2,-1.2,3.3c0,.9,.3,1.7,1.3,1.7c1.3,0,1.7,-.9,2.1,-1.6h.1c-.2,.9,-.1,1.6,.5,1.6c.4,0,.7,-.2,1.1,-.5c.4,-.3,.8,-.8,1.1,-1.4l-.1,-.1c-.3,.4,-1,1.3,-1.4,1.3c-.2,0,-.3,-.3,-.3,-.5c0,-.9,.6,-2.5,1,-3.4l.7,-1.9h-1l-.3,.7c-.2,-.5,-.5,-.8,-1.1,-.8Zm.2,.3c.7,0,.5,1.3,.4,1.8c0,.4,-.2,.7,-.3,1c-.3,1.2,-1.4,3.1,-2.2,3.1c-.6,0,-.8,-.9,-.8,-1.4c0,-.4,0,-.9,.2,-1.3c.4,-1.1,1.4,-3.2,2.7,-3.2Z" class="g0_119"/>
<path d="M346.5,394.5c-.6,0,-1,-.5,-1,-1.2c0,-.8,.4,-1.6,1.3,-1.6c1.2,0,1.3,1,1.3,1.9c0,.9,-.3,1.5,-.7,2.1c-.3,.4,-.7,.9,-1.1,1.4c-.5,.5,-1.1,1,-1.9,1.7v.3H349l.3,-2.1H349c0,.3,-.1,.5,-.2,.6c-.2,.4,-.5,.6,-1,.6h-2.1v-.1c.5,-.3,.9,-.7,1.4,-1c.7,-.7,1.5,-1.4,1.9,-2.3c.2,-.4,.3,-.8,.3,-1.2c0,-.3,-.1,-.6,-.2,-.9c-.3,-.7,-1.1,-1.2,-2.2,-1.2c-.7,0,-1.3,.2,-1.7,.6c-.4,.3,-.7,.8,-.7,1.4c0,.5,.1,.8,.4,1.1c.2,.2,.5,.4,.9,.4c.4,0,.7,-.2,.7,-.5Z" class="g0_119"/>
<path d="M351.4,392v.2c.4,0,.8,.1,1,.1c.3,.2,.3,.3,.3,.8v4.7c0,.3,0,.5,0,.6c-.1,.5,-.7,.5,-1.2,.6v.1h3.4V399c-.4,0,-.9,-.1,-1,-.3c-.2,-.2,-.2,-.5,-.2,-.9v-6.3c-.6,.3,-1.6,.5,-2.3,.5Z" class="g0_119"/>
<path d="M376.3,390.3c-.5,0,-.9,.1,-1.3,.5c-.5,.2,-.9,.6,-1.3,1.1c-.6,.8,-1.2,2,-1.2,3.3c0,.9,.3,1.7,1.3,1.7c1.3,0,1.8,-.9,2.2,-1.6c-.2,.9,-.1,1.6,.5,1.6c.4,0,.8,-.2,1.2,-.5c.3,-.3,.7,-.8,1,-1.4l-.1,-.1c-.3,.4,-1,1.3,-1.4,1.3c-.2,0,-.2,-.3,-.2,-.5c0,-.9,.6,-2.5,.9,-3.4l.7,-1.9h-1l-.3,.7c-.1,-.5,-.4,-.8,-1,-.8Zm.1,.3c.7,0,.6,1.3,.4,1.8c0,.4,-.1,.7,-.3,1c-.3,1.2,-1.4,3.1,-2.2,3.1c-.6,0,-.8,-.9,-.8,-1.4c0,-.4,0,-.9,.2,-1.3c.4,-1.1,1.4,-3.2,2.7,-3.2Z" class="g0_119"/>
<path d="M381.8,394.5c-.6,0,-1,-.5,-1,-1.2c0,-.8,.4,-1.6,1.3,-1.6c1.2,0,1.3,1,1.3,1.9c0,.9,-.3,1.5,-.7,2.1c-.3,.4,-.7,.9,-1.1,1.4c-.5,.5,-1.1,1,-1.9,1.7v.3h4.6l.4,-2.1h-.4c0,.3,-.1,.5,-.2,.6c-.1,.4,-.5,.6,-1,.6H381v-.1c.5,-.3,1,-.7,1.4,-1c.7,-.7,1.5,-1.4,1.9,-2.3c.2,-.4,.3,-.8,.3,-1.2c0,-.3,-.1,-.6,-.2,-.9c-.3,-.7,-1.1,-1.2,-2.2,-1.2c-.7,0,-1.3,.2,-1.7,.6c-.4,.3,-.7,.8,-.7,1.4c0,.5,.2,.8,.4,1.1c.2,.2,.5,.4,.9,.4c.4,0,.7,-.2,.7,-.5Z" class="g0_119"/>
<path d="M387.9,394.5c-.6,0,-1,-.5,-1,-1.2c0,-.8,.4,-1.6,1.3,-1.6c1.2,0,1.3,1,1.3,1.9c0,.9,-.3,1.5,-.7,2.1c-.3,.4,-.7,.9,-1.1,1.4c-.5,.5,-1.1,1,-1.9,1.7v.3h4.6l.4,-2.1h-.4c0,.3,-.1,.5,-.2,.6c-.1,.4,-.5,.6,-1,.6h-2.1v-.1c.5,-.3,1,-.7,1.4,-1c.7,-.7,1.5,-1.4,1.9,-2.3c.2,-.4,.3,-.8,.3,-1.2c0,-.3,-.1,-.6,-.2,-.9c-.3,-.7,-1.1,-1.2,-2.2,-1.2c-.7,0,-1.3,.2,-1.7,.6c-.4,.3,-.7,.8,-.7,1.4c0,.5,.2,.8,.4,1.1c.2,.2,.5,.4,.9,.4c.4,0,.7,-.2,.7,-.5Z" class="g0_119"/>
<path d="M392.9,401.9l.2,.6c2.1,-2.7,4.1,-8.6,4.1,-18.5c0,-9.8,-1.9,-14.6,-4.1,-17.8l-.2,.6c2.2,3.4,2.9,11.7,2.9,17.2c0,5.5,-.7,14.5,-2.9,17.9Z" class="g0_119"/>
<path d="M411.1,387.6l-3.3,-3.3l3.3,-3.4l-.6,-.6l-3.3,3.4l-3.3,-3.4l-.6,.6l3.3,3.4l-3.3,3.3l.6,.5l3.3,-3.3l3.3,3.3l.6,-.5Z" class="g0_119"/>
<path d="M421.5,401.9c-2.2,-3.4,-2.8,-12.4,-2.8,-17.9c0,-5.5,.6,-13.8,2.8,-17.2l-.2,-.6c-2.2,3.2,-4.1,8,-4.1,17.8c0,9.9,2,15.8,4.1,18.5l.2,-.6Z" class="g0_119"/>
<path d="M429.5,373.3c0,-.5,-.5,-.9,-1,-.9c-.3,0,-.7,.1,-1,.3c-.3,.3,-.6,.6,-.8,.9c0,-.6,-.4,-1.2,-1.1,-1.2c-1.1,0,-2.1,1.2,-2.4,2l.2,.1c.3,-.5,1.1,-1.7,2,-1.7c.2,0,.3,.5,.3,.9c0,.3,0,.7,-.2,1.2l-.3,1.2c-.2,.6,-.4,1.3,-.7,1.7c-.2,.3,-.4,.7,-.8,.7c-.4,0,-.7,-.1,-.6,-.5c0,-.3,0,-.7,-.4,-.7c-.5,0,-.7,.3,-.7,.8c0,.5,.5,.9,1.1,.9c1,0,1.7,-.8,2.1,-1.5v.1c.1,.8,.5,1.4,1.4,1.4c1.2,0,2,-1.2,2.4,-1.8l-.2,-.2c-.5,.6,-1.1,1.6,-1.9,1.6c-.5,0,-.7,-.6,-.7,-1.2c0,-.3,.1,-.8,.2,-1.3l.2,-.8c.1,-.5,.3,-1.2,.6,-1.6c.2,-.3,.6,-.9,.9,-.9c.5,0,.4,.3,.4,.6c0,.4,.1,.6,.5,.6c.3,0,.5,-.3,.5,-.7Z" class="g0_119"/>
<path d="M432.6,374.4c0,-.3,-.3,-.6,-.6,-.6c-.3,0,-.5,.3,-.5,.6c0,.3,.3,.5,.5,.5c.3,0,.6,-.2,.6,-.5Zm-2.1,6.8c1,0,1.5,-.9,1.8,-1.4l-.2,-.1c-.2,.2,-.6,1,-1,1c-.1,0,-.2,-.2,-.2,-.3c0,-.2,.1,-.6,.2,-.8l.7,-2c.1,-.3,.1,-.5,.1,-.6c0,-.4,0,-.6,-.3,-.6c-.7,0,-1.5,.8,-1.8,1.3l.2,.1c.2,-.2,.6,-.8,.8,-.8c.2,0,.2,.1,.2,.3c.1,.1,0,.4,-.1,.6l-.7,2.1c-.1,.2,-.2,.5,-.2,.6c0,.4,.2,.6,.5,.6Z" class="g0_119"/>
<path d="M421.6,398.9c0,.6,.5,1,1.1,1c.5,0,.9,-.2,1.3,-.6c.9,-.7,2.1,-2.2,2.9,-3.4c.3,-.6,.7,-1.3,1,-1.8c.4,-.8,1.1,-2.1,1.1,-2.9c0,-.3,-.1,-.5,-.1,-.7c-.1,-.1,-.3,-.2,-.5,-.2c-.2,0,-.3,.1,-.5,.2c-.1,.1,-.2,.3,-.2,.6c0,.5,.3,1,.3,1.4c0,.6,-.3,1.1,-.5,1.6c-.2,.4,-.5,.8,-.8,1.4h-.1l-.3,-2c-.1,-.5,-.3,-1.6,-.4,-2c-.2,-.7,-.4,-1.2,-1.4,-1.2c-1.1,0,-1.3,1.8,-1.6,2.5l.4,.2c.1,-.6,.5,-2.4,1,-2.4c.3,0,.5,1.1,.5,1.3c.1,.3,.2,.7,.3,1.4l.6,3.5c-.4,.8,-1.2,1.6,-1.8,2.1c-.2,.2,-.5,.3,-.7,.3c-.1,0,-.2,-.1,-.2,-.2c-.3,-.2,-.3,-.7,-.7,-.7c-.4,0,-.7,.3,-.7,.6Z" class="g0_119"/>
<path d="M432.2,392.3c0,-.3,-.3,-.6,-.6,-.6c-.3,0,-.5,.3,-.5,.6c0,.3,.2,.5,.5,.5c.3,0,.6,-.2,.6,-.5Zm-2.1,6.8c1,0,1.5,-.9,1.8,-1.4l-.2,-.1c-.2,.2,-.6,1,-1,1c-.1,0,-.3,-.2,-.3,-.3c0,-.2,.2,-.6,.2,-.8l.8,-2c.1,-.3,.1,-.5,.1,-.6c0,-.4,0,-.6,-.4,-.6c-.6,0,-1.5,.8,-1.7,1.3l.2,.1c.2,-.2,.6,-.8,.8,-.8c.2,0,.2,.1,.2,.3c.1,.1,0,.4,-.1,.6l-.7,2.1c-.1,.2,-.2,.5,-.2,.6c0,.4,.2,.6,.5,.6Z" class="g0_119"/>
<path d="M434.9,401.9l.2,.6c2,-2.7,4.1,-8.6,4.1,-18.5c0,-9.8,-2,-14.6,-4.1,-17.8H435l-.1,.6c2.2,3.4,2.8,11.7,2.8,17.2c0,5.5,-.6,14.5,-2.8,17.9Z" class="g0_119"/>
<path d="M445.9,386.2h7.6v-.8h-7.6Zm0,-3h7.6v-.9h-7.6Z" class="g0_119"/>
<path d="M464.5,401.9c-2.3,-3.4,-2.9,-12.4,-2.9,-17.9c0,-5.5,.6,-13.8,2.9,-17.2l-.2,-.6c-2.2,3.2,-4.1,8,-4.1,17.8c0,9.9,2,15.8,4.1,18.5l.2,-.6Z" class="g0_119"/>
<path d="M469.7,372.4c-.4,0,-.8,.1,-1.3,.5c-.4,.2,-.8,.6,-1.2,1.1c-.6,.8,-1.3,2,-1.3,3.2c0,1,.4,1.8,1.4,1.8c1.2,0,1.7,-.9,2.1,-1.6h.1c-.3,.9,-.1,1.6,.5,1.6c.4,0,.7,-.2,1.1,-.5c.4,-.3,.8,-.8,1.1,-1.4L472,377c-.2,.4,-.9,1.3,-1.3,1.3c-.2,0,-.3,-.3,-.3,-.5c0,-.9,.6,-2.5,1,-3.4l.7,-1.9h-1l-.3,.7c-.2,-.5,-.5,-.8,-1.1,-.8Zm.2,.3c.7,0,.5,1.3,.4,1.8c0,.4,-.2,.7,-.3,1c-.4,1.2,-1.4,3.1,-2.2,3.1c-.7,0,-.8,-.9,-.8,-1.4c0,-.4,0,-.9,.2,-1.3c.3,-1.1,1.4,-3.2,2.7,-3.2Z" class="g0_119"/>
<path d="M474.1,374.1v.2c.3,0,.8,.1,1,.1c.3,.2,.3,.3,.3,.8v4.7c0,.3,0,.4,0,.6c-.1,.5,-.7,.5,-1.2,.6v.1h3.4v-.1c-.4,0,-.9,-.1,-1.1,-.3c-.1,-.2,-.1,-.5,-.1,-.9v-6.3c-.6,.3,-1.6,.5,-2.3,.5Z" class="g0_119"/>
<path d="M480.2,374.1v.2c.3,0,.8,.1,1,.1c.3,.2,.3,.3,.3,.8v4.7c0,.3,0,.4,0,.6c-.1,.5,-.7,.5,-1.2,.6v.1h3.4v-.1c-.4,0,-.9,-.1,-1.1,-.3c-.1,-.2,-.1,-.5,-.1,-.9v-6.3c-.6,.3,-1.6,.5,-2.3,.5Z" class="g0_119"/>
<path d="M492.8,373.3c0,-.5,-.4,-.9,-1,-.9c-.3,0,-.6,.1,-.9,.3c-.3,.3,-.6,.6,-.9,.9c0,-.6,-.4,-1.2,-1,-1.2c-1.2,0,-2.1,1.2,-2.5,2l.2,.1c.4,-.5,1.1,-1.7,2,-1.7c.3,0,.4,.5,.4,.9c0,.3,-.1,.7,-.2,1.2l-.3,1.2c-.2,.6,-.4,1.3,-.8,1.7c-.1,.3,-.4,.7,-.7,.7c-.5,0,-.8,-.1,-.7,-.5c.1,-.3,0,-.7,-.4,-.7c-.4,0,-.6,.3,-.6,.8c0,.5,.5,.9,1,.9c1.1,0,1.8,-.8,2.2,-1.5v.1c.1,.8,.5,1.4,1.3,1.4c1.2,0,2.1,-1.2,2.5,-1.8l-.2,-.2c-.5,.6,-1.2,1.6,-2,1.6c-.4,0,-.6,-.6,-.6,-1.2c0,-.3,0,-.8,.2,-1.3l.1,-.8c.1,-.5,.4,-1.2,.7,-1.6c.1,-.3,.5,-.9,.9,-.9c.4,0,.4,.3,.4,.6c-.1,.4,.1,.6,.4,.6c.4,0,.5,-.3,.5,-.7Z" class="g0_119"/>
<path d="M496,374.4c0,-.3,-.3,-.6,-.6,-.6c-.3,0,-.5,.3,-.5,.6c0,.3,.2,.5,.5,.5c.3,0,.6,-.2,.6,-.5Zm-2.1,6.8c1,0,1.5,-.9,1.7,-1.4l-.2,-.1c-.1,.2,-.5,1,-.9,1c-.2,0,-.3,-.2,-.3,-.3c0,-.2,.2,-.6,.2,-.8l.7,-2c.1,-.3,.2,-.5,.2,-.6c0,-.4,0,-.6,-.4,-.6c-.7,0,-1.5,.8,-1.7,1.3l.2,.1c.1,-.2,.5,-.8,.8,-.8c.2,0,.2,.1,.2,.3c0,.1,-.1,.4,-.1,.6l-.8,2.1c-.1,.2,-.1,.5,-.1,.6c0,.4,.1,.6,.5,.6Z" class="g0_119"/>
<path d="M504.5,374.6h-3.3v1h3.3v3.3h1v-3.3h3.2v-1h-3.2v-3.2h-1v3.2Z" class="g0_119"/>
<path d="M517,372.4c-.4,0,-.8,.1,-1.3,.5c-.4,.2,-.8,.6,-1.2,1.1c-.7,.8,-1.3,2,-1.3,3.2c0,1,.4,1.8,1.3,1.8c1.3,0,1.8,-.9,2.2,-1.6c-.2,.9,0,1.6,.6,1.6c.3,0,.7,-.2,1.1,-.5c.4,-.3,.8,-.8,1.1,-1.4l-.2,-.1c-.3,.4,-.9,1.3,-1.3,1.3c-.2,0,-.3,-.3,-.3,-.5c0,-.9,.6,-2.5,.9,-3.4l.7,-1.9h-1l-.2,.7c-.2,-.5,-.5,-.8,-1.1,-.8Zm.2,.3c.7,0,.5,1.3,.4,1.8c-.1,.4,-.2,.7,-.3,1c-.4,1.2,-1.4,3.1,-2.3,3.1c-.6,0,-.7,-.9,-.7,-1.4c0,-.4,0,-.9,.2,-1.3c.3,-1.1,1.4,-3.2,2.7,-3.2Z" class="g0_119"/>
<path d="M521.4,374.1v.2c.3,0,.8,.1,1,.1c.3,.2,.3,.3,.3,.8v4.7c0,.3,0,.4,0,.6c-.1,.5,-.7,.5,-1.2,.6v.1h3.4v-.1c-.4,0,-.9,-.1,-1.1,-.3c-.1,-.2,-.1,-.5,-.1,-.9v-6.3c-.6,.3,-1.6,.5,-2.3,.5Z" class="g0_119"/>
<path d="M528.7,376.6c-.7,0,-1.1,-.5,-1.1,-1.2c0,-.8,.5,-1.6,1.4,-1.6c1.2,0,1.3,1,1.3,1.9c0,.9,-.3,1.5,-.7,2.1c-.3,.4,-.7,.9,-1.2,1.4c-.5,.5,-1.1,1,-1.8,1.7v.3h4.5l.4,-2.1h-.3c-.1,.3,-.2,.5,-.2,.6c-.2,.4,-.5,.6,-1,.6h-2.1v-.1c.4,-.3,.9,-.7,1.3,-1c.8,-.7,1.6,-1.4,2,-2.3c.2,-.4,.3,-.8,.3,-1.2c0,-.3,-.1,-.6,-.2,-.8c-.4,-.8,-1.1,-1.3,-2.2,-1.3c-.7,0,-1.3,.2,-1.7,.6c-.4,.3,-.7,.8,-.7,1.4c0,.5,.1,.8,.3,1.1c.2,.2,.5,.4,.9,.4c.4,0,.7,-.2,.8,-.5Z" class="g0_119"/>
<path d="M531.9,381c0,.6,.5,1,1.1,1c.4,0,.8,-.2,1.3,-.6c.8,-.7,2,-2.2,2.8,-3.4c.4,-.6,.7,-1.3,1,-1.8c.4,-.8,1.1,-2.1,1.1,-2.9c0,-.3,0,-.5,-.1,-.7c-.1,-.2,-.3,-.2,-.5,-.2c-.1,0,-.3,.1,-.4,.2c-.2,.1,-.2,.3,-.2,.6c0,.5,.2,1,.2,1.4c0,.6,-.2,1.1,-.4,1.5c-.3,.5,-.5,.9,-.9,1.5h-.1l-.3,-2c-.1,-.5,-.3,-1.6,-.4,-2c-.2,-.7,-.3,-1.2,-1.3,-1.2c-1.2,0,-1.4,1.8,-1.6,2.5l.3,.1c.1,-.5,.6,-2.3,1,-2.3c.3,0,.5,1.1,.6,1.3c0,.3,.1,.7,.2,1.4l.6,3.5c-.3,.8,-1.2,1.6,-1.8,2.1c-.2,.2,-.5,.3,-.7,.3c-.1,0,-.2,-.1,-.2,-.2c-.2,-.2,-.2,-.7,-.7,-.7c-.4,0,-.6,.3,-.6,.6Z" class="g0_119"/>
<path d="M542.4,374.4c0,-.3,-.2,-.6,-.6,-.6c-.3,0,-.5,.3,-.5,.6c0,.3,.3,.5,.5,.5c.3,0,.6,-.2,.6,-.5Zm-2,6.8c.9,0,1.4,-.9,1.7,-1.4l-.2,-.1c-.1,.2,-.6,1,-1,1c-.1,0,-.2,-.2,-.2,-.3c0,-.2,.1,-.6,.2,-.8l.7,-2c.1,-.3,.1,-.5,.1,-.6c0,-.4,0,-.6,-.3,-.6c-.7,0,-1.5,.8,-1.8,1.3l.2,.1c.2,-.2,.6,-.8,.9,-.8c.1,0,.2,.1,.2,.3c0,.1,-.1,.4,-.2,.6L540,380c-.1,.2,-.1,.5,-.1,.6c0,.4,.1,.6,.5,.6Z" class="g0_119"/>
<path d="M469.7,390.3c-.4,0,-.8,.1,-1.3,.5c-.4,.2,-.8,.6,-1.2,1.1c-.6,.8,-1.3,2,-1.3,3.3c0,.9,.4,1.7,1.4,1.7c1.2,0,1.7,-.9,2.1,-1.6h.1c-.3,.9,-.1,1.6,.5,1.6c.4,0,.7,-.2,1.1,-.5c.4,-.3,.8,-.8,1.1,-1.4l-.2,-.1c-.2,.4,-.9,1.3,-1.3,1.3c-.2,0,-.3,-.3,-.3,-.5c0,-.9,.6,-2.5,1,-3.4l.7,-1.9h-1l-.3,.7c-.2,-.5,-.5,-.8,-1.1,-.8Zm.2,.3c.7,0,.5,1.3,.4,1.8c0,.4,-.2,.7,-.3,1c-.4,1.2,-1.4,3.1,-2.2,3.1c-.7,0,-.8,-.9,-.8,-1.4c0,-.4,0,-.9,.2,-1.3c.3,-1.1,1.4,-3.2,2.7,-3.2Z" class="g0_119"/>
<path d="M475.3,394.5c-.7,0,-1.1,-.5,-1.1,-1.2c0,-.8,.5,-1.6,1.4,-1.6c1.2,0,1.3,1,1.3,1.9c0,.9,-.3,1.5,-.7,2.1c-.3,.4,-.7,.9,-1.2,1.4c-.4,.5,-1.1,1,-1.8,1.7v.3h4.6l.3,-2.1h-.3c0,.3,-.1,.5,-.2,.6c-.2,.4,-.5,.6,-1,.6h-2.1v-.1c.4,-.3,.9,-.7,1.3,-1c.8,-.7,1.6,-1.4,2,-2.3c.2,-.4,.3,-.8,.3,-1.2c0,-.3,-.1,-.6,-.2,-.9c-.4,-.7,-1.1,-1.2,-2.2,-1.2c-.7,0,-1.3,.2,-1.7,.6c-.4,.3,-.7,.8,-.7,1.4c0,.5,.1,.8,.4,1.1c.1,.2,.4,.4,.9,.4c.4,0,.6,-.2,.7,-.5Z" class="g0_119"/>
<path d="M480.2,392v.2c.3,0,.8,.1,1,.1c.3,.2,.3,.3,.3,.8v4.7c0,.3,0,.5,0,.6c-.1,.5,-.7,.5,-1.2,.6v.1h3.4V399c-.4,0,-.9,-.1,-1.1,-.3c-.1,-.2,-.1,-.5,-.1,-.9v-6.3c-.6,.3,-1.6,.5,-2.3,.5Z" class="g0_119"/>
<path d="M492.8,391.2c0,-.5,-.4,-.9,-1,-.9c-.3,0,-.6,.1,-.9,.3c-.3,.3,-.6,.6,-.9,.9c0,-.6,-.4,-1.2,-1,-1.2c-1.2,0,-2.1,1.2,-2.5,2l.2,.1c.4,-.5,1.1,-1.7,2,-1.7c.3,0,.4,.5,.4,.9c0,.3,-.1,.7,-.2,1.2l-.3,1.2c-.2,.6,-.4,1.3,-.8,1.7c-.1,.3,-.4,.7,-.7,.7c-.5,0,-.8,-.1,-.7,-.5c.1,-.3,0,-.7,-.4,-.7c-.4,0,-.6,.3,-.6,.8c0,.5,.5,.9,1,.9c1.1,0,1.8,-.8,2.2,-1.5v.1c.1,.8,.5,1.4,1.3,1.4c1.2,0,2.1,-1.2,2.5,-1.8l-.2,-.2c-.5,.6,-1.2,1.6,-2,1.6c-.4,0,-.6,-.6,-.6,-1.2c0,-.3,0,-.8,.2,-1.3l.1,-.8c.1,-.5,.4,-1.2,.7,-1.6c.1,-.3,.5,-.9,.9,-.9c.4,0,.4,.3,.4,.6c-.1,.4,.1,.6,.4,.6c.4,0,.5,-.3,.5,-.7Z" class="g0_119"/>
<path d="M496,392.3c0,-.3,-.3,-.6,-.6,-.6c-.3,0,-.5,.3,-.5,.6c0,.3,.2,.5,.5,.5c.3,0,.6,-.2,.6,-.5Zm-2.1,6.8c1,0,1.5,-.9,1.7,-1.4l-.2,-.1c-.1,.2,-.5,1,-.9,1c-.2,0,-.3,-.2,-.3,-.3c0,-.2,.2,-.6,.2,-.8l.7,-2c.1,-.3,.2,-.5,.2,-.6c0,-.4,0,-.6,-.4,-.6c-.7,0,-1.5,.8,-1.7,1.3l.2,.1c.1,-.2,.5,-.8,.8,-.8c.2,0,.2,.1,.2,.3c0,.1,-.1,.4,-.1,.6l-.8,2.1c-.1,.2,-.1,.5,-.1,.6c0,.4,.1,.6,.5,.6Z" class="g0_119"/>
<path d="M504.5,392.5h-3.3v1h3.3v3.3h1v-3.3h3.2v-1h-3.2v-3.2h-1v3.2Z" class="g0_119"/>
<path d="M517,390.3c-.4,0,-.8,.1,-1.3,.5c-.4,.2,-.8,.6,-1.2,1.1c-.7,.8,-1.3,2,-1.3,3.3c0,.9,.4,1.7,1.3,1.7c1.3,0,1.8,-.9,2.2,-1.6c-.2,.9,0,1.6,.6,1.6c.3,0,.7,-.2,1.1,-.5c.4,-.3,.8,-.8,1.1,-1.4l-.2,-.1c-.3,.4,-.9,1.3,-1.3,1.3c-.2,0,-.3,-.3,-.3,-.5c0,-.9,.6,-2.5,.9,-3.4l.7,-1.9h-1l-.2,.7c-.2,-.5,-.5,-.8,-1.1,-.8Zm.2,.3c.7,0,.5,1.3,.4,1.8c-.1,.4,-.2,.7,-.3,1c-.4,1.2,-1.4,3.1,-2.3,3.1c-.6,0,-.7,-.9,-.7,-1.4c0,-.4,0,-.9,.2,-1.3c.3,-1.1,1.4,-3.2,2.7,-3.2Z" class="g0_119"/>
<path d="M522.6,394.5c-.7,0,-1.1,-.5,-1.1,-1.2c0,-.8,.5,-1.6,1.4,-1.6c1.2,0,1.3,1,1.3,1.9c0,.9,-.3,1.5,-.7,2.1c-.3,.4,-.7,.9,-1.2,1.4c-.5,.5,-1.1,1,-1.8,1.7v.3H525l.4,-2.1h-.3c-.1,.3,-.2,.5,-.2,.6c-.2,.4,-.5,.6,-1,.6h-2.1v-.1c.4,-.3,.9,-.7,1.3,-1c.8,-.7,1.6,-1.4,2,-2.3c.2,-.4,.3,-.8,.3,-1.2c0,-.3,-.1,-.6,-.2,-.9c-.4,-.7,-1.1,-1.2,-2.2,-1.2c-.7,0,-1.3,.2,-1.7,.6c-.4,.3,-.7,.8,-.7,1.4c0,.5,.1,.8,.3,1.1c.2,.2,.5,.4,.9,.4c.4,0,.7,-.2,.8,-.5Z" class="g0_119"/>
<path d="M528.7,394.5c-.7,0,-1.1,-.5,-1.1,-1.2c0,-.8,.5,-1.6,1.4,-1.6c1.2,0,1.3,1,1.3,1.9c0,.9,-.3,1.5,-.7,2.1c-.3,.4,-.7,.9,-1.2,1.4c-.5,.5,-1.1,1,-1.8,1.7v.3h4.5l.4,-2.1h-.3c-.1,.3,-.2,.5,-.2,.6c-.2,.4,-.5,.6,-1,.6h-2.1v-.1c.4,-.3,.9,-.7,1.3,-1c.8,-.7,1.6,-1.4,2,-2.3c.2,-.4,.3,-.8,.3,-1.2c0,-.3,-.1,-.6,-.2,-.9c-.4,-.7,-1.1,-1.2,-2.2,-1.2c-.7,0,-1.3,.2,-1.7,.6c-.4,.3,-.7,.8,-.7,1.4c0,.5,.1,.8,.3,1.1c.2,.2,.5,.4,.9,.4c.4,0,.7,-.2,.8,-.5Z" class="g0_119"/>
<path d="M531.9,398.9c0,.6,.5,1,1.1,1c.4,0,.8,-.2,1.3,-.6c.8,-.7,2,-2.2,2.8,-3.4c.4,-.6,.7,-1.3,1,-1.8c.4,-.8,1.1,-2.1,1.1,-2.9c0,-.3,0,-.5,-.1,-.7c-.1,-.1,-.3,-.2,-.5,-.2c-.1,0,-.3,.1,-.4,.2c-.2,.1,-.2,.3,-.2,.6c0,.5,.2,1,.2,1.4c0,.6,-.2,1.1,-.4,1.6c-.3,.4,-.5,.8,-.9,1.4h-.1l-.3,-2c-.1,-.5,-.3,-1.6,-.4,-2c-.2,-.7,-.3,-1.2,-1.3,-1.2c-1.2,0,-1.4,1.8,-1.6,2.5l.3,.2c.1,-.6,.6,-2.4,1,-2.4c.3,0,.5,1.1,.6,1.3c0,.3,.1,.7,.2,1.4l.6,3.5c-.3,.8,-1.2,1.6,-1.8,2.1c-.2,.2,-.5,.3,-.7,.3c-.1,0,-.2,-.1,-.2,-.2c-.2,-.2,-.2,-.7,-.7,-.7c-.4,0,-.6,.3,-.6,.6Z" class="g0_119"/>
<path d="M542.4,392.3c0,-.3,-.2,-.6,-.6,-.6c-.3,0,-.5,.3,-.5,.6c0,.3,.3,.5,.5,.5c.3,0,.6,-.2,.6,-.5Zm-2,6.8c.9,0,1.4,-.9,1.7,-1.4l-.2,-.1c-.1,.2,-.6,1,-1,1c-.1,0,-.2,-.2,-.2,-.3c0,-.2,.1,-.6,.2,-.8l.7,-2c.1,-.3,.1,-.5,.1,-.6c0,-.4,0,-.6,-.3,-.6c-.7,0,-1.5,.8,-1.8,1.3l.2,.1c.2,-.2,.6,-.8,.9,-.8c.1,0,.2,.1,.2,.3c0,.1,-.1,.4,-.2,.6l-.7,2.1c-.1,.2,-.1,.5,-.1,.6c0,.4,.1,.6,.5,.6Z" class="g0_119"/>
<path d="M544.7,401.9l.2,.6C547,399.8,549,393.9,549,384c0,-9.8,-2,-14.6,-4.1,-17.8l-.2,.6c2.2,3.4,2.8,11.7,2.8,17.2c0,5.5,-.6,14.5,-2.8,17.9Z" class="g0_119"/>
<path d="M381.2,793.8c-2.2,-3.4,-2.8,-12.4,-2.8,-17.9c0,-5.5,.6,-13.8,2.8,-17.2l-.2,-.6c-2.2,3.2,-4.1,8,-4.1,17.8c0,9.9,2,15.8,4.1,18.5l.2,-.6Z" class="g0_119"/>
<path d="M383.9,761.1v.2c.5,0,1.1,0,1.3,.2c.5,.2,.5,.4,.5,1V769c0,.3,0,.6,-.1,.8c0,.6,-.8,.7,-1.6,.8v.2h4.7v-.2c-.5,-.1,-1.2,-.1,-1.5,-.4c-.2,-.3,-.2,-.7,-.2,-1.3v-8.6c-.8,.4,-2.1,.7,-3.1,.8Z" class="g0_119"/>
<path d="M409.4,770.6c-1.9,0,-1.9,-2.7,-1.9,-4.9c0,-2.2,0,-5.1,1.9,-5.1c1.9,0,1.9,2.9,1.9,5.1c0,2.2,0,4.9,-1.9,4.9Zm0,-10.3c-2.6,0,-3.4,2.7,-3.4,5.4c0,2.6,.8,5.2,3.4,5.2c2.6,0,3.4,-2.6,3.4,-5.2c0,-2.7,-.8,-5.4,-3.4,-5.4Z" class="g0_119"/>
<path d="M386.1,788.5c-1.9,0,-1.9,-2.7,-1.9,-4.9c0,-2.2,0,-5.1,1.9,-5.1c2,0,2,2.9,2,5.1c0,2.2,-.1,4.9,-2,4.9Zm0,-10.3c-2.6,0,-3.3,2.7,-3.3,5.4c0,2.6,.8,5.2,3.3,5.2c2.6,0,3.4,-2.6,3.4,-5.2c0,-2.7,-.8,-5.4,-3.4,-5.4Z" class="g0_119"/>
<path d="M407.2,779v.2c.5,0,1.1,0,1.3,.2c.5,.2,.4,.4,.5,1v6.5c0,.3,0,.6,-.1,.8c-.1,.6,-.9,.7,-1.6,.8v.2H412v-.2c-.5,-.1,-1.3,-.1,-1.5,-.4c-.2,-.3,-.2,-.7,-.2,-1.3v-8.6c-.8,.4,-2.1,.7,-3.1,.8Z" class="g0_119"/>
<path d="M414.3,793.8l.2,.6c2.1,-2.7,4.1,-8.6,4.1,-18.5c0,-9.8,-1.9,-14.6,-4.1,-17.8l-.2,.6c2.3,3.4,2.9,11.7,2.9,17.2c0,5.5,-.6,14.5,-2.9,17.9Z" class="g0_119"/>
<path d="M432.5,779.5l-3.3,-3.3l3.3,-3.4l-.6,-.6l-3.3,3.4l-3.3,-3.4l-.6,.6l3.3,3.4l-3.3,3.3l.6,.5l3.3,-3.3l3.3,3.3l.6,-.5Z" class="g0_119"/>
<path d="M442.9,793.8c-2.2,-3.4,-2.8,-12.4,-2.8,-17.9c0,-5.5,.6,-13.8,2.8,-17.2l-.2,-.6c-2.1,3.2,-4.1,8,-4.1,17.8c0,9.9,2.1,15.8,4.1,18.5l.2,-.6Z" class="g0_119"/>
<path d="M450.9,765.2c0,-.5,-.4,-.9,-1,-.9c-.3,0,-.6,.1,-.9,.3c-.4,.3,-.7,.6,-.9,.9c0,-.6,-.4,-1.2,-1,-1.2c-1.2,0,-2.1,1.2,-2.5,2l.2,.1c.4,-.5,1.1,-1.7,2,-1.7c.3,0,.4,.5,.4,.9c0,.3,-.1,.7,-.2,1.2l-.4,1.2c-.1,.6,-.4,1.3,-.7,1.7c-.1,.3,-.4,.7,-.8,.7c-.4,0,-.7,-.1,-.6,-.5c.1,-.3,0,-.7,-.4,-.7c-.5,0,-.6,.3,-.6,.8c0,.5,.4,.9,1,.9c1,0,1.8,-.8,2.1,-1.5l.1,.1c.1,.8,.5,1.4,1.3,1.4c1.2,0,2,-1.2,2.5,-1.8l-.2,-.2c-.5,.6,-1.2,1.6,-2,1.6c-.4,0,-.6,-.6,-.6,-1.2c0,-.3,0,-.8,.1,-1.3l.2,-.8c.1,-.5,.4,-1.2,.6,-1.6c.2,-.3,.6,-.9,1,-.9c.4,0,.4,.3,.3,.6c0,.4,.2,.6,.5,.6c.4,0,.5,-.3,.5,-.7Z" class="g0_119"/>
<path d="M454,766.3c0,-.3,-.2,-.6,-.5,-.6c-.3,0,-.6,.3,-.6,.6c0,.3,.3,.5,.6,.5c.2,0,.5,-.2,.5,-.5Zm-2,6.8c.9,0,1.4,-.9,1.7,-1.4l-.2,-.1c-.1,.2,-.5,1,-1,1c-.1,0,-.2,-.2,-.2,-.3c0,-.2,.1,-.6,.2,-.8l.7,-2c.1,-.3,.1,-.5,.1,-.6c0,-.4,0,-.6,-.3,-.6c-.7,0,-1.5,.8,-1.7,1.3l.2,.1c.1,-.2,.5,-.8,.8,-.8c.1,0,.2,.1,.2,.3c0,.1,-.1,.4,-.2,.6l-.7,2.1c-.1,.2,-.1,.5,-.1,.6c0,.4,.1,.6,.5,.6Z" class="g0_119"/>
<path d="M443.1,790.8c0,.6,.5,1,1.1,1c.4,0,.8,-.2,1.3,-.6c.8,-.7,2,-2.2,2.8,-3.4c.4,-.6,.7,-1.3,1,-1.8c.4,-.8,1.1,-2.1,1.1,-2.9c0,-.3,0,-.5,-.1,-.7c-.1,-.1,-.3,-.2,-.5,-.2c-.1,0,-.3,.1,-.4,.2c-.2,.1,-.2,.3,-.2,.6c0,.5,.2,1,.2,1.4c0,.6,-.2,1.1,-.4,1.6c-.3,.4,-.5,.8,-.9,1.4H448l-.3,-2c-.1,-.5,-.3,-1.6,-.4,-2c-.2,-.7,-.3,-1.2,-1.3,-1.2c-1.2,0,-1.4,1.8,-1.6,2.5l.3,.2c.1,-.6,.6,-2.4,1,-2.4c.3,0,.5,1.1,.6,1.3c0,.3,.1,.7,.2,1.4l.6,3.5c-.3,.8,-1.1,1.6,-1.8,2.1c-.2,.2,-.5,.3,-.7,.3c-.1,0,-.1,-.1,-.2,-.2c-.2,-.2,-.2,-.7,-.7,-.7c-.4,0,-.6,.3,-.6,.6Z" class="g0_119"/>
<path d="M453.6,784.2c0,-.3,-.2,-.6,-.5,-.6c-.4,0,-.6,.3,-.6,.6c0,.3,.3,.5,.6,.5c.2,0,.5,-.2,.5,-.5Zm-2,6.8c.9,0,1.4,-.9,1.7,-1.4l-.2,-.1c-.1,.2,-.5,1,-1,1c-.1,0,-.2,-.2,-.2,-.3c0,-.2,.1,-.6,.2,-.8l.7,-2c.1,-.3,.1,-.5,.1,-.6c0,-.4,0,-.6,-.3,-.6c-.7,0,-1.5,.8,-1.8,1.3l.2,.1c.2,-.2,.6,-.8,.9,-.8c.1,0,.2,.1,.2,.3c0,.1,-.1,.4,-.2,.6l-.7,2.1c-.1,.2,-.1,.5,-.1,.6c0,.4,.1,.6,.5,.6Z" class="g0_119"/>
<path d="M456.3,793.8l.2,.6c2.1,-2.7,4.1,-8.6,4.1,-18.5c0,-9.8,-1.9,-14.6,-4.1,-17.8l-.2,.6c2.2,3.4,2.9,11.7,2.9,17.2c0,5.5,-.7,14.5,-2.9,17.9Z" class="g0_119"/>
<path d="M467.3,778.1h7.6v-.8h-7.6Zm0,-3h7.6v-.9h-7.6Z" class="g0_119"/>
<path d="M485.9,793.8C483.7,790.4,483,781.4,483,775.9c0,-5.5,.7,-13.8,2.9,-17.2l-.2,-.6c-2.2,3.2,-4.1,8,-4.1,17.8c0,9.9,2,15.8,4.1,18.5l.2,-.6Z" class="g0_119"/>
<path d="M493.9,765.2c0,-.5,-.5,-.9,-1,-.9c-.3,0,-.7,.1,-1,.3c-.3,.3,-.6,.6,-.8,.9c0,-.6,-.5,-1.2,-1.1,-1.2c-1.1,0,-2.1,1.2,-2.4,2l.2,.1c.3,-.5,1.1,-1.7,2,-1.7c.2,0,.3,.5,.3,.9c0,.3,0,.7,-.2,1.2l-.3,1.2c-.2,.6,-.4,1.3,-.7,1.7c-.2,.3,-.5,.7,-.8,.7c-.4,0,-.8,-.1,-.6,-.5c0,-.3,0,-.7,-.4,-.7c-.5,0,-.7,.3,-.7,.8c0,.5,.5,.9,1.1,.9c1,0,1.7,-.8,2.1,-1.5v.1c.1,.8,.5,1.4,1.4,1.4c1.1,0,2,-1.2,2.4,-1.8l-.2,-.2c-.5,.6,-1.1,1.6,-1.9,1.6c-.5,0,-.7,-.6,-.7,-1.2c0,-.3,.1,-.8,.2,-1.3l.2,-.8c.1,-.5,.3,-1.2,.6,-1.6c.2,-.3,.6,-.9,.9,-.9c.5,0,.4,.3,.4,.6c0,.4,.1,.6,.5,.6c.3,0,.5,-.3,.5,-.7Z" class="g0_119"/>
<path d="M494.9,773.1c.9,0,1.5,-.9,1.8,-1.5l-.2,-.1c-.2,.3,-.6,1.2,-1.2,1.2c-.1,0,-.2,-.4,-.2,-.5c0,-.1,.1,-.4,.2,-.7l.7,-2.9h1v-.2h-.9l.3,-1.2h-.7l-.4,1.2h-.7l-.1,.2h.8l-.7,2.6c-.1,.4,-.2,.6,-.2,.9c-.1,.2,-.1,.3,-.1,.4c0,.4,.2,.6,.6,.6Z" class="g0_119"/>
<path d="M486,790.8c0,.6,.5,1,1.1,1c.5,0,.8,-.2,1.3,-.6c.9,-.7,2.1,-2.2,2.8,-3.4c.4,-.6,.8,-1.3,1.1,-1.8c.4,-.8,1.1,-2.1,1.1,-2.9c0,-.3,-.1,-.5,-.1,-.7c-.1,-.1,-.3,-.2,-.5,-.2c-.2,0,-.3,.1,-.5,.2c-.1,.1,-.2,.3,-.2,.6c0,.5,.3,1,.3,1.4c0,.6,-.3,1.1,-.5,1.6c-.2,.4,-.5,.8,-.8,1.4H491l-.3,-2c-.1,-.5,-.3,-1.6,-.4,-2c-.2,-.7,-.4,-1.2,-1.4,-1.2c-1.1,0,-1.3,1.8,-1.6,2.5l.3,.2c.2,-.6,.6,-2.4,1.1,-2.4c.3,0,.5,1.1,.5,1.3c.1,.3,.2,.7,.3,1.4l.6,3.5c-.4,.8,-1.2,1.6,-1.8,2.1c-.2,.2,-.5,.3,-.7,.3c-.1,0,-.2,-.1,-.2,-.2c-.3,-.2,-.3,-.7,-.7,-.7c-.4,0,-.7,.3,-.7,.6Z" class="g0_119"/>
<path d="M494.5,791c.9,0,1.5,-.9,1.8,-1.5l-.2,-.1c-.2,.3,-.6,1.2,-1.2,1.2c-.2,0,-.2,-.4,-.2,-.5c0,-.1,.1,-.4,.2,-.7l.7,-2.9h1v-.2h-.9l.3,-1.2h-.7l-.4,1.2h-.7l-.1,.2h.8l-.7,2.6c-.1,.4,-.2,.6,-.2,.9c-.1,.2,-.1,.3,-.1,.4c0,.4,.2,.6,.6,.6Z" class="g0_119"/>
<path d="M499.1,793.8l.2,.6c2.1,-2.7,4.1,-8.6,4.1,-18.5c0,-9.8,-1.9,-14.6,-4.1,-17.8l-.2,.6c2.3,3.4,2.9,11.7,2.9,17.2c0,5.5,-.6,14.5,-2.9,17.9Z" class="g0_119"/>
</svg>