<?xml version="1.0" encoding="UTF-8" standalone="no"?>
<!DOCTYPE svg PUBLIC "-//W3C//DTD SVG 1.1//EN"
"http://www.w3.org/Graphics/SVG/1.1/DTD/svg11.dtd">
<svg viewBox="0 0 811 1017" version="1.1" xmlns="http://www.w3.org/2000/svg" xmlns:xlink="http://www.w3.org/1999/xlink">
<defs>
<style type="text/css"><![CDATA[
.g0_268{
fill: #70A6CC;
}
.g1_268{
fill: #000;
}
]]></style>
</defs>
<path d="M142.4,103.7H710.7V82.5H142.4Z" class="g0_268"/>
<path d="M515.7,203h.4V115.1h-.4Z" class="g1_268"/>
<path d="M497.4,356h.3V222h-.3Z" class="g1_268"/>
<path d="M704.7,396.5h.4V338h-.4Z" class="g1_268"/>
<path d="M640.3,396.5v3.2l-.3,-.1l-6.3,-3l-.4,-.1l.4,-.2l6.3,-3l.3,-.1v.3l-.1,.2l-6.3,2.9l-.2,-.3h.2l6.3,2.9l-.2,.4l-.1,-.2v-2.9Z" class="g1_268"/>
<path d="M639.9,396.5h.4v-3h-.4Z" class="g1_268"/>
<path d="M640.1,396.6h.2v-.3h-.2Z" class="g1_268"/>
<path d="M640.3,396.6h64.8v-.3H640.3Z" class="g1_268"/>
</svg>