<?xml version="1.0" encoding="UTF-8" standalone="no"?>
<!DOCTYPE svg PUBLIC "-//W3C//DTD SVG 1.1//EN"
"http://www.w3.org/Graphics/SVG/1.1/DTD/svg11.dtd">
<svg viewBox="0 0 811 1017" version="1.1" xmlns="http://www.w3.org/2000/svg" xmlns:xlink="http://www.w3.org/1999/xlink">
<defs>
<style type="text/css"><![CDATA[
.g0_159{
fill: #0E0E0E;
}
.g1_159{
fill: #000;
}
]]></style>
</defs>
<path d="M342.1,122c-2.3,-3.4,-2.9,-12.3,-2.9,-17.8c0,-5.5,.6,-13.9,2.9,-17.2l-.2,-.7c-2.2,3.3,-4.1,8,-4.1,17.9c0,9.8,2,15.7,4.1,18.4l.2,-.6Z" class="g0_159"/>
<path d="M345.4,100.9c-.4,0,-.4,-.2,-.5,-.4c-.1,-.3,-.2,-.6,-.5,-.6c-.2,0,-.4,.2,-.4,.5c0,.6,.8,.8,1.3,.8c.8,0,.9,-.2,1.3,-.7c.2,-.3,.4,-.7,.6,-1.2c.2,-.6,.5,-1.2,.7,-2.1l1.3,-5.1h1.3l.1,-.3h-1.3c.4,-1.2,.8,-3.2,1.2,-3.8c.1,-.2,.3,-.5,.7,-.5c.3,0,.4,.2,.5,.5c.1,.2,.2,.5,.5,.5c.2,0,.4,-.2,.4,-.4c0,-.6,-.8,-.9,-1.3,-.9c-1.8,0,-2.6,3,-3,4.6h-1.2l-.1,.3h1.3l-2,7.4c-.1,.3,-.4,1.4,-.9,1.4Z" class="g0_159"/>
<path d="M358.3,87.5c-2.1,1.4,-3.6,3.8,-3.6,6.8c0,2.8,1.5,5.6,3.6,6.8l.2,-.2c-2,-1.6,-2.6,-3.4,-2.6,-6.6c0,-3.3,.6,-5,2.6,-6.6l-.2,-.2Z" class="g0_159"/>
<path d="M366.7,92.6c0,-.5,-.4,-1,-1,-1c-.3,0,-.6,.2,-.9,.4c-.4,.2,-.7,.5,-.9,.9c0,-.7,-.4,-1.3,-1,-1.3c-1.2,0,-2.1,1.2,-2.5,2l.2,.1c.4,-.5,1.1,-1.7,2,-1.7c.3,0,.4,.6,.4,1c0,.3,-.1,.7,-.2,1.2l-.4,1.1c-.1,.6,-.4,1.4,-.7,1.8c-.1,.3,-.4,.7,-.8,.7c-.4,0,-.7,-.1,-.6,-.5c.1,-.3,0,-.7,-.4,-.7c-.4,0,-.6,.3,-.6,.7c0,.6,.5,.9,1,.9c1,0,1.8,-.7,2.2,-1.4c.1,.8,.5,1.4,1.3,1.4c1.2,0,2,-1.1,2.5,-1.8l-.2,-.2c-.5,.7,-1.2,1.7,-2,1.7c-.4,0,-.6,-.6,-.6,-1.2c0,-.4,0,-.8,.1,-1.4l.2,-.7c.1,-.6,.4,-1.2,.6,-1.6c.2,-.3,.6,-1,1,-1c.4,0,.4,.3,.3,.7c0,.4,.2,.5,.5,.5c.4,0,.5,-.2,.5,-.6Z" class="g0_159"/>
<path d="M368,87.5l-.1,.2c1.9,1.6,2.5,3.3,2.5,6.6c0,3.2,-.6,5,-2.5,6.6l.1,.2c2.1,-1.2,3.7,-4,3.7,-6.8c0,-3,-1.5,-5.4,-3.7,-6.8Z" class="g0_159"/>
<path d="M344.6,104.8h28.5V104H344.6Z" class="g0_159"/>
<path d="M347.2,115.1c0,-1.3,.6,-2.8,1.7,-2.8c.7,0,.9,.6,.9,1.2c0,1.5,-.6,2.8,-1.7,2.8c-.5,0,-.9,-.6,-.9,-1.2Zm3.4,-2.3c.3,-.1,.3,-.2,.5,-.2c.1,0,.2,0,.2,.1c.2,.2,.3,.6,.7,.6c.3,0,.5,-.2,.5,-.5c0,-.5,-.5,-.8,-.9,-.8c-.4,0,-.7,.2,-1.1,.6c-.4,-.4,-.9,-.6,-1.5,-.6c-.8,0,-1.5,.3,-1.9,.8c-.5,.4,-.9,1,-.9,1.9c0,.7,.3,1.2,.9,1.7H347c-.5,.2,-.8,.3,-1,.5c-.2,.2,-.3,.4,-.3,.6c0,.3,.1,.6,.5,.8c.4,.2,1.1,.4,2,.6c.5,0,.8,.2,1.1,.4c.3,.2,.4,.3,.4,.6c0,.7,-1.1,1.3,-2.2,1.4c-1.2,0,-2,-.5,-2,-1.3c0,-.6,.3,-.9,.7,-1.1c-.2,-.1,-.3,-.1,-.6,-.1c-.6,0,-1,.5,-1,1.1c0,.2,0,.5,.1,.7c.6,.7,1.5,1,2.8,1c.9,0,1.7,-.2,2.3,-.6c.4,-.3,.8,-.8,.8,-1.5c0,-.8,-1.2,-1.4,-1.8,-1.5c-.5,-.2,-1.1,-.3,-1.5,-.5c-.2,-.1,-.3,-.2,-.3,-.4c0,-.3,.6,-.4,1.1,-.4c1.6,-.1,2.7,-1.2,2.7,-3c0,-.3,0,-.7,-.2,-.9Z" class="g0_159"/>
<path d="M358.3,107.8c-2.2,1.4,-3.7,3.8,-3.7,6.8c0,2.8,1.6,5.6,3.7,6.9l.1,-.3c-1.9,-1.5,-2.5,-3.3,-2.5,-6.6c0,-3.3,.6,-5,2.5,-6.6l-.1,-.2Z" class="g0_159"/>
<path d="M366.7,112.9c0,-.5,-.5,-.9,-1,-.9c-.3,0,-.7,.1,-1,.3c-.3,.2,-.6,.5,-.8,.9c0,-.7,-.4,-1.2,-1.1,-1.2c-1.1,0,-2.1,1.2,-2.4,1.9l.2,.2c.4,-.5,1.1,-1.8,2,-1.8c.2,0,.4,.6,.4,1c0,.3,-.1,.7,-.2,1.2l-.4,1.2c-.2,.5,-.4,1.3,-.7,1.7c-.2,.3,-.4,.7,-.8,.7c-.4,0,-.7,-.1,-.6,-.5c.1,-.3,0,-.7,-.4,-.7c-.5,0,-.7,.3,-.7,.7c0,.6,.5,1,1.1,1c1,0,1.7,-.8,2.1,-1.5h.1c.1,.9,.5,1.5,1.3,1.5c1.2,0,2,-1.2,2.4,-1.9l-.1,-.1c-.5,.6,-1.2,1.6,-2,1.6c-.5,0,-.7,-.6,-.7,-1.2c0,-.3,.1,-.8,.2,-1.3l.2,-.8c.1,-.5,.3,-1.2,.6,-1.6c.2,-.3,.6,-.9,1,-.9c.4,0,.3,.3,.3,.6c0,.4,.1,.6,.5,.6c.3,0,.5,-.3,.5,-.7Z" class="g0_159"/>
<path d="M368,107.8l-.2,.2c1.9,1.6,2.6,3.3,2.6,6.6c0,3.3,-.6,5.1,-2.6,6.6l.2,.3c2.1,-1.3,3.6,-4.1,3.6,-6.9c0,-3,-1.5,-5.4,-3.6,-6.8Z" class="g0_159"/>
<path d="M375.7,122l.2,.6C378,119.9,380,114,380,104.2c0,-9.9,-2,-14.6,-4.1,-17.9l-.2,.7c2.2,3.3,2.8,11.7,2.8,17.2c0,5.5,-.6,14.4,-2.8,17.8Z" class="g0_159"/>
<path d="M384.4,83.2c0,-.3,-.3,-.5,-.6,-.5c-.3,0,-.4,.3,-.5,.6l-.8,2.5c-.1,0,-.1,.2,-.1,.2c0,.1,0,.2,.1,.2c.1,0,.3,-.2,.3,-.2l1.4,-2.2c.1,-.1,.2,-.4,.2,-.6Z" class="g0_159"/>
<path d="M391.1,106.3h7.6v-.8h-7.6Zm0,-3h7.6v-.8h-7.6Z" class="g0_159"/>
<path d="M406,100.9c-.3,0,-.4,-.2,-.5,-.4c0,-.3,-.1,-.6,-.5,-.6c-.2,0,-.4,.2,-.4,.5c0,.6,.8,.8,1.3,.8c.9,0,.9,-.2,1.3,-.7c.3,-.3,.4,-.7,.6,-1.2c.2,-.6,.5,-1.2,.7,-2.1l1.3,-5.1h1.3l.1,-.3h-1.3c.4,-1.2,.8,-3.2,1.2,-3.8c.1,-.2,.4,-.5,.7,-.5c.3,0,.4,.2,.5,.5c.1,.2,.2,.5,.5,.5c.3,0,.4,-.2,.4,-.4c0,-.6,-.8,-.9,-1.3,-.9c-1.8,0,-2.5,3,-2.9,4.6h-1.3l-.1,.3h1.3l-2,7.4c-.1,.3,-.4,1.4,-.9,1.4Z" class="g0_159"/>
<path d="M416.3,85.4c0,-.3,-.3,-.5,-.6,-.5c-.3,0,-.4,.3,-.5,.6l-.8,2.4c-.1,.1,-.1,.2,-.1,.3c0,.1,0,.2,.1,.2c.1,0,.3,-.2,.3,-.3L416.1,86c.1,-.2,.2,-.4,.2,-.6Z" class="g0_159"/>
<path d="M423.4,87.5c-2.2,1.4,-3.7,3.8,-3.7,6.8c0,2.8,1.6,5.6,3.6,6.8l.2,-.2c-2,-1.6,-2.5,-3.4,-2.5,-6.6c0,-3.3,.6,-5,2.5,-6.6l-.1,-.2Z" class="g0_159"/>
<path d="M431.7,92.6c0,-.5,-.4,-1,-.9,-1c-.4,0,-.7,.2,-1,.4c-.3,.2,-.6,.5,-.8,.9c0,-.7,-.5,-1.3,-1.1,-1.3c-1.1,0,-2.1,1.2,-2.4,2l.2,.1c.3,-.5,1.1,-1.7,1.9,-1.7c.3,0,.4,.6,.4,1c0,.3,0,.7,-.2,1.2l-.3,1.1c-.2,.6,-.4,1.4,-.7,1.8c-.2,.3,-.5,.7,-.8,.7c-.4,0,-.8,-.1,-.7,-.5c.1,-.3,.1,-.7,-.4,-.7c-.4,0,-.6,.3,-.6,.7c0,.6,.5,.9,1.1,.9c1,0,1.7,-.7,2.1,-1.4c.1,.8,.5,1.4,1.4,1.4c1.1,0,2,-1.1,2.4,-1.8l-.2,-.2c-.5,.7,-1.2,1.7,-2,1.7c-.4,0,-.6,-.6,-.6,-1.2c0,-.4,.1,-.8,.2,-1.4l.2,-.7c.1,-.6,.3,-1.2,.6,-1.6c.2,-.3,.6,-1,.9,-1c.4,0,.4,.3,.4,.7c0,.4,.1,.5,.4,.5c.4,0,.5,-.2,.5,-.6Z" class="g0_159"/>
<path d="M433,87.5l-.1,.2c1.9,1.6,2.5,3.3,2.5,6.6c0,3.2,-.5,5,-2.5,6.6l.2,.2c2,-1.2,3.6,-4,3.6,-6.8c0,-3,-1.5,-5.4,-3.7,-6.8Z" class="g0_159"/>
<path d="M440.7,94.8c0,-1.3,.7,-2.8,1.7,-2.8c.7,0,.9,.6,.9,1.1c0,1.5,-.6,2.9,-1.7,2.9c-.5,0,-.9,-.6,-.9,-1.2Zm3.5,-2.3c.2,-.1,.2,-.2,.4,-.2c.1,0,.2,0,.2,.1c.2,.1,.4,.6,.7,.6c.3,0,.6,-.3,.6,-.6c0,-.4,-.6,-.8,-1,-.8c-.3,0,-.7,.2,-1.1,.7c-.4,-.5,-.9,-.7,-1.5,-.7c-.8,0,-1.4,.4,-1.9,.8c-.5,.5,-.9,1.1,-.9,2c0,.6,.3,1.2,.9,1.6v.1c-.6,.2,-.8,.3,-1,.5c-.3,.1,-.4,.3,-.4,.6c0,.3,.1,.6,.6,.8c.4,.2,1,.4,1.9,.5c.5,.1,.8,.3,1.1,.4c.3,.2,.4,.4,.4,.6c0,.8,-1.1,1.4,-2.2,1.4c-1.2,0,-2,-.5,-2,-1.3c0,-.5,.3,-.8,.8,-1c-.3,-.1,-.3,-.2,-.6,-.2c-.7,0,-1.1,.5,-1.1,1.2c0,.2,0,.4,.1,.6c.6,.7,1.5,1,2.8,1c1,0,1.7,-.2,2.3,-.5c.5,-.4,.8,-.8,.8,-1.5c0,-.9,-1.1,-1.4,-1.8,-1.6c-.5,-.1,-1.1,-.3,-1.5,-.4c-.2,-.1,-.3,-.2,-.3,-.4c0,-.4,.6,-.4,1.1,-.4c1.7,-.2,2.7,-1.3,2.7,-3c0,-.4,0,-.7,-.1,-.9Z" class="g0_159"/>
<path d="M451.8,87.5c-2.1,1.4,-3.7,3.8,-3.7,6.8c0,2.8,1.6,5.6,3.7,6.8l.2,-.2c-2,-1.6,-2.6,-3.4,-2.6,-6.6c0,-3.3,.6,-5,2.6,-6.6l-.2,-.2Z" class="g0_159"/>
<path d="M460.2,92.6c0,-.5,-.5,-1,-1,-1c-.3,0,-.6,.2,-1,.4c-.3,.2,-.6,.5,-.8,.9c0,-.7,-.4,-1.3,-1.1,-1.3c-1.1,0,-2.1,1.2,-2.4,2l.2,.1c.4,-.5,1.1,-1.7,2,-1.7c.3,0,.4,.6,.4,1c0,.3,-.1,.7,-.2,1.2l-.4,1.1c-.1,.6,-.4,1.4,-.7,1.8c-.1,.3,-.4,.7,-.8,.7c-.4,0,-.7,-.1,-.6,-.5c.1,-.3,0,-.7,-.4,-.7c-.5,0,-.6,.3,-.6,.7c0,.6,.4,.9,1,.9c1,0,1.8,-.7,2.1,-1.4h.1c.1,.8,.5,1.4,1.3,1.4c1.2,0,2,-1.1,2.5,-1.8l-.2,-.2c-.5,.7,-1.2,1.7,-2,1.7c-.4,0,-.6,-.6,-.6,-1.2c0,-.4,0,-.8,.1,-1.4l.2,-.7c.1,-.6,.4,-1.2,.6,-1.6c.2,-.3,.6,-1,1,-1c.4,0,.4,.3,.3,.7c0,.4,.2,.5,.5,.5c.4,0,.5,-.2,.5,-.6Z" class="g0_159"/>
<path d="M461.5,87.5l-.1,.2c1.9,1.6,2.5,3.3,2.5,6.6c0,3.2,-.6,5,-2.5,6.6l.1,.2c2.1,-1.2,3.7,-4,3.7,-6.8c0,-3,-1.6,-5.4,-3.7,-6.8Z" class="g0_159"/>
<path d="M470.9,94.7h7.6v-.8h-7.6Z" class="g0_159"/>
<path d="M483.5,100.9c-.3,0,-.4,-.2,-.5,-.4c-.1,-.3,-.2,-.6,-.5,-.6c-.2,0,-.4,.2,-.4,.5c0,.6,.8,.8,1.3,.8c.8,0,.9,-.2,1.3,-.7c.2,-.3,.4,-.7,.6,-1.2c.2,-.6,.5,-1.2,.7,-2.1l1.3,-5.1h1.3l.1,-.3h-1.3c.4,-1.2,.8,-3.2,1.2,-3.8c.1,-.2,.4,-.5,.7,-.5c.3,0,.4,.2,.5,.5c.1,.2,.2,.5,.5,.5c.3,0,.4,-.2,.4,-.4c0,-.6,-.8,-.9,-1.3,-.9c-1.8,0,-2.5,3,-3,4.6h-1.2l-.1,.3h1.3l-2,7.4c-.1,.3,-.4,1.4,-.9,1.4Z" class="g0_159"/>
<path d="M496.4,87.5c-2.1,1.4,-3.6,3.8,-3.6,6.8c0,2.8,1.5,5.6,3.6,6.8l.2,-.2c-2,-1.6,-2.6,-3.4,-2.6,-6.6c0,-3.3,.7,-5,2.6,-6.6l-.2,-.2Z" class="g0_159"/>
<path d="M504.8,92.6c0,-.5,-.4,-1,-1,-1c-.3,0,-.6,.2,-.9,.4c-.3,.2,-.7,.5,-.9,.9c0,-.7,-.4,-1.3,-1,-1.3c-1.2,0,-2.1,1.2,-2.5,2l.2,.1c.4,-.5,1.1,-1.7,2,-1.7c.3,0,.4,.6,.4,1c0,.3,-.1,.7,-.2,1.2l-.3,1.1c-.2,.6,-.4,1.4,-.8,1.8c-.1,.3,-.4,.7,-.7,.7c-.5,0,-.8,-.1,-.7,-.5c.1,-.3,0,-.7,-.4,-.7c-.4,0,-.6,.3,-.6,.7c0,.6,.5,.9,1,.9c1.1,0,1.8,-.7,2.2,-1.4c.1,.8,.5,1.4,1.3,1.4c1.2,0,2.1,-1.1,2.5,-1.8l-.2,-.2c-.5,.7,-1.2,1.7,-2,1.7c-.4,0,-.6,-.6,-.6,-1.2c0,-.4,0,-.8,.2,-1.4l.1,-.7c.1,-.6,.4,-1.2,.7,-1.6c.1,-.3,.5,-1,.9,-1c.4,0,.4,.3,.4,.7c-.1,.4,.1,.5,.4,.5c.4,0,.5,-.2,.5,-.6Z" class="g0_159"/>
<path d="M506.1,87.5l-.1,.2c1.9,1.6,2.5,3.3,2.5,6.6c0,3.2,-.6,5,-2.5,6.6l.2,.2c2,-1.2,3.6,-4,3.6,-6.8c0,-3,-1.5,-5.4,-3.7,-6.8Z" class="g0_159"/>
<path d="M513.8,94.8c0,-1.3,.6,-2.8,1.7,-2.8c.7,0,.9,.6,.9,1.1c0,1.5,-.6,2.9,-1.7,2.9c-.6,0,-.9,-.6,-.9,-1.2Zm3.4,-2.3c.2,-.1,.2,-.2,.5,-.2c.1,0,.2,0,.2,.1c.2,.1,.3,.6,.7,.6c.3,0,.5,-.3,.5,-.6c0,-.4,-.5,-.8,-.9,-.8c-.4,0,-.7,.2,-1.1,.7c-.4,-.5,-.9,-.7,-1.5,-.7c-.8,0,-1.5,.4,-1.9,.8c-.5,.5,-.9,1.1,-.9,2c0,.6,.2,1.2,.9,1.6l-.1,.1c-.5,.2,-.8,.3,-1,.5c-.2,.1,-.3,.3,-.3,.6c0,.3,.1,.6,.5,.8c.4,.2,1.1,.4,2,.5c.4,.1,.8,.3,1.1,.4c.2,.2,.4,.4,.4,.6c0,.8,-1.1,1.4,-2.2,1.4c-1.2,0,-2,-.5,-2,-1.3c0,-.5,.3,-.8,.7,-1c-.2,-.1,-.3,-.2,-.6,-.2c-.6,0,-1,.5,-1,1.2c0,.2,0,.4,.1,.6c.5,.7,1.5,1,2.7,1c1,0,1.8,-.2,2.4,-.5c.4,-.4,.8,-.8,.8,-1.5c0,-.9,-1.2,-1.4,-1.8,-1.6c-.5,-.1,-1.1,-.3,-1.6,-.4c-.1,-.1,-.2,-.2,-.2,-.4c0,-.4,.6,-.4,1,-.4c1.7,-.2,2.8,-1.3,2.8,-3c0,-.4,-.1,-.7,-.2,-.9Z" class="g0_159"/>
<path d="M522.2,85.4c0,-.3,-.3,-.5,-.5,-.5c-.3,0,-.5,.3,-.6,.6l-.8,2.4c0,.1,-.1,.2,-.1,.3c0,.1,.1,.2,.1,.2c.2,0,.3,-.2,.4,-.3L522,86c.1,-.2,.2,-.4,.2,-.6Z" class="g0_159"/>
<path d="M529.3,87.5c-2.1,1.4,-3.7,3.8,-3.7,6.8c0,2.8,1.6,5.6,3.7,6.8l.1,-.2c-1.9,-1.6,-2.5,-3.4,-2.5,-6.6c0,-3.3,.6,-5,2.5,-6.6l-.1,-.2Z" class="g0_159"/>
<path d="M537.7,92.6c0,-.5,-.5,-1,-1,-1c-.3,0,-.7,.2,-1,.4c-.3,.2,-.6,.5,-.8,.9c0,-.7,-.4,-1.3,-1.1,-1.3c-1.1,0,-2.1,1.2,-2.4,2l.2,.1c.4,-.5,1.1,-1.7,2,-1.7c.2,0,.4,.6,.4,1c0,.3,-.1,.7,-.2,1.2l-.4,1.1c-.1,.6,-.4,1.4,-.7,1.8c-.2,.3,-.4,.7,-.8,.7c-.4,0,-.7,-.1,-.6,-.5c.1,-.3,0,-.7,-.4,-.7c-.5,0,-.6,.3,-.6,.7c0,.6,.4,.9,1,.9c1,0,1.7,-.7,2.1,-1.4h.1c.1,.8,.5,1.4,1.3,1.4c1.2,0,2,-1.1,2.5,-1.8l-.2,-.2c-.5,.7,-1.2,1.7,-2,1.7c-.4,0,-.7,-.6,-.7,-1.2c0,-.4,.1,-.8,.2,-1.4l.2,-.7c.1,-.6,.4,-1.2,.6,-1.6c.2,-.3,.6,-1,1,-1c.4,0,.3,.3,.3,.7c0,.4,.2,.5,.5,.5c.4,0,.5,-.2,.5,-.6Z" class="g0_159"/>
<path d="M539,87.5l-.2,.2c2,1.6,2.6,3.3,2.6,6.6c0,3.2,-.6,5,-2.6,6.6l.2,.2c2.1,-1.2,3.6,-4,3.6,-6.8c0,-3,-1.5,-5.4,-3.6,-6.8Z" class="g0_159"/>
<path d="M405.3,104.8H544.1V104H405.3Z" class="g0_159"/>
<path d="M459.6,115.9c0,-1.3,.6,-2.8,1.7,-2.8c.7,0,.9,.6,.9,1.2c0,1.4,-.6,2.8,-1.7,2.8c-.6,0,-.9,-.6,-.9,-1.2Zm3.4,-2.3c.2,-.1,.2,-.2,.5,-.2q.1,0,.2,.1c.2,.2,.3,.6,.7,.6c.3,0,.5,-.2,.5,-.6c0,-.4,-.5,-.7,-.9,-.7c-.4,0,-.8,.2,-1.1,.6c-.4,-.4,-.9,-.6,-1.5,-.6c-.9,0,-1.5,.3,-1.9,.8c-.5,.4,-.9,1,-.9,1.9c0,.7,.2,1.2,.8,1.7c-.5,.2,-.8,.3,-1,.5c-.2,.2,-.3,.4,-.3,.6c0,.3,.1,.6,.5,.8c.4,.2,1.1,.4,1.9,.6c.5,0,.9,.2,1.2,.4c.2,.1,.4,.3,.4,.6c0,.7,-1.1,1.3,-2.2,1.3c-1.2,.1,-2,-.4,-2,-1.3c0,-.5,.3,-.8,.7,-1c-.2,-.1,-.3,-.2,-.6,-.2c-.6,0,-1,.6,-1,1.2c0,.2,0,.5,.1,.7c.5,.7,1.5,1,2.7,1c1,0,1.8,-.2,2.4,-.6c.4,-.4,.7,-.8,.7,-1.5c0,-.9,-1.1,-1.4,-1.7,-1.5c-.5,-.2,-1.1,-.3,-1.6,-.5c-.2,-.1,-.2,-.2,-.2,-.4c0,-.3,.6,-.4,1,-.4c1.7,-.1,2.8,-1.2,2.8,-3c0,-.3,-.1,-.7,-.2,-.9Z" class="g0_159"/>
<path d="M470.7,108.6c-2.2,1.4,-3.7,3.8,-3.7,6.8c0,2.8,1.6,5.6,3.6,6.9l.2,-.3c-1.9,-1.5,-2.5,-3.3,-2.5,-6.6c0,-3.3,.6,-5,2.5,-6.6l-.1,-.2Z" class="g0_159"/>
<path d="M479.1,113.7c0,-.5,-.5,-.9,-1,-.9c-.4,0,-.7,.1,-1,.3c-.3,.2,-.6,.5,-.8,.9c0,-.7,-.5,-1.2,-1.1,-1.2c-1.1,0,-2.1,1.1,-2.4,1.9l.2,.1c.3,-.5,1.1,-1.7,2,-1.7c.2,0,.3,.6,.3,1c0,.3,0,.7,-.2,1.2l-.3,1.2c-.2,.5,-.4,1.3,-.7,1.7c-.2,.3,-.5,.7,-.8,.7c-.4,0,-.8,-.1,-.7,-.5c.1,-.3,.1,-.7,-.4,-.7c-.4,0,-.6,.3,-.6,.7c0,.6,.5,1,1.1,1c1,0,1.7,-.8,2.1,-1.5c.1,.8,.5,1.5,1.4,1.5c1.1,0,2,-1.2,2.4,-1.9l-.2,-.1c-.5,.6,-1.1,1.6,-1.9,1.6c-.5,0,-.7,-.6,-.7,-1.2c0,-.4,.1,-.8,.2,-1.3l.2,-.8c.1,-.5,.3,-1.2,.6,-1.6c.2,-.3,.6,-.9,.9,-.9c.4,0,.4,.3,.4,.6c0,.4,.1,.6,.4,.6c.4,0,.6,-.3,.6,-.7Z" class="g0_159"/>
<path d="M480.3,108.6l-.1,.2c1.9,1.6,2.5,3.3,2.5,6.6c0,3.3,-.5,5.1,-2.5,6.6l.2,.3c2,-1.3,3.6,-4.1,3.6,-6.9c0,-3,-1.5,-5.4,-3.7,-6.8Z" class="g0_159"/>
<path d="M488.1,110.3c-.7,0,-1.1,-.5,-1.1,-1.2c0,-.8,.5,-1.6,1.4,-1.6c1.2,0,1.3,1,1.3,1.9c0,.9,-.3,1.5,-.7,2.1c-.3,.4,-.7,.9,-1.2,1.4c-.4,.5,-1,1.1,-1.8,1.7v.3h4.6l.3,-2h-.3c0,.2,-.1,.4,-.2,.5c-.2,.4,-.5,.6,-1,.6h-2.1v-.1c.4,-.3,.9,-.7,1.3,-1c.8,-.7,1.6,-1.4,2,-2.3c.2,-.4,.3,-.8,.3,-1.2c0,-.3,-.1,-.6,-.2,-.8c-.4,-.8,-1.1,-1.3,-2.2,-1.3c-.7,0,-1.3,.2,-1.7,.6c-.4,.3,-.7,.8,-.7,1.4c0,.5,.1,.8,.4,1.1c.2,.2,.4,.4,.9,.4c.4,0,.7,-.2,.7,-.5Z" class="g0_159"/>
<path d="M393.1,239.7c-2.3,-3.4,-2.9,-12.4,-2.9,-17.9c0,-5.5,.6,-13.8,2.9,-17.2l-.2,-.6c-2.2,3.2,-4.1,8,-4.1,17.8c0,9.9,2,15.8,4.1,18.5l.2,-.6Z" class="g0_159"/>
<path d="M407.7,206.1v.2c.4,0,1.1,0,1.3,.2c.4,.2,.4,.4,.4,1V214c0,.3,0,.6,0,.8c-.1,.6,-.9,.7,-1.6,.8v.2h4.6v-.2c-.5,-.1,-1.2,-.1,-1.4,-.4c-.2,-.3,-.2,-.7,-.2,-1.3v-8.6c-.8,.4,-2.2,.7,-3.1,.8Z" class="g0_159"/>
<path d="M395.6,222.5h28.5v-.9H395.6Z" class="g0_159"/>
<path d="M396.4,238.9c-.4,0,-.4,-.2,-.5,-.5c-.1,-.2,-.2,-.5,-.5,-.5c-.2,0,-.4,.2,-.4,.4c0,.6,.8,.9,1.3,.9c.8,0,.9,-.2,1.3,-.8c.2,-.3,.4,-.7,.6,-1.2c.2,-.5,.5,-1.2,.7,-2l1.3,-5.1h1.3l.1,-.4h-1.3c.4,-1.1,.8,-3.1,1.2,-3.7c.1,-.2,.3,-.5,.7,-.5c.3,0,.4,.2,.5,.5c.1,.2,.2,.5,.5,.5c.2,0,.4,-.2,.4,-.4c0,-.7,-.8,-.9,-1.3,-.9c-1.8,0,-2.6,3,-3,4.5h-1.2l-.1,.4h1.3l-2,7.4c-.1,.3,-.4,1.4,-.9,1.4Z" class="g0_159"/>
<path d="M409.3,225.4c-2.1,1.4,-3.6,3.9,-3.6,6.9c0,2.7,1.5,5.5,3.6,6.8l.2,-.2c-2,-1.6,-2.6,-3.4,-2.6,-6.7c0,-3.3,.6,-5,2.6,-6.5l-.2,-.3Z" class="g0_159"/>
<path d="M417.7,230.6c0,-.6,-.4,-1,-1,-1c-.3,0,-.6,.2,-.9,.4c-.4,.2,-.7,.5,-.9,.9c0,-.7,-.4,-1.3,-1,-1.3c-1.2,0,-2.1,1.2,-2.5,2l.2,.1c.4,-.5,1.1,-1.7,2,-1.7c.3,0,.4,.5,.4,1c0,.3,-.1,.6,-.2,1.1l-.4,1.2c-.1,.6,-.4,1.4,-.7,1.8c-.1,.2,-.4,.7,-.8,.7c-.4,0,-.7,-.1,-.6,-.5c.1,-.3,0,-.8,-.4,-.8c-.4,0,-.6,.3,-.6,.8c0,.5,.5,.9,1,.9c1,0,1.8,-.8,2.2,-1.4c.1,.8,.5,1.4,1.3,1.4c1.2,0,2,-1.1,2.5,-1.8l-.2,-.2c-.5,.7,-1.2,1.7,-2,1.7c-.4,0,-.6,-.6,-.6,-1.3c0,-.3,0,-.7,.1,-1.3l.2,-.7c.1,-.6,.4,-1.3,.6,-1.6c.2,-.3,.6,-1,1,-1c.4,0,.4,.3,.3,.6c0,.4,.2,.6,.5,.6c.4,0,.5,-.3,.5,-.6Z" class="g0_159"/>
<path d="M419,225.4l-.1,.3c1.9,1.5,2.5,3.2,2.5,6.5c0,3.3,-.6,5.1,-2.5,6.7l.1,.2c2.1,-1.3,3.7,-4.1,3.7,-6.8c0,-3,-1.5,-5.5,-3.7,-6.9Z" class="g0_159"/>
<path d="M426.7,239.7l.2,.6c2.1,-2.7,4.1,-8.6,4.1,-18.5c0,-9.8,-2,-14.6,-4.1,-17.8l-.2,.6c2.2,3.4,2.8,11.7,2.8,17.2c0,5.5,-.6,14.5,-2.8,17.9Z" class="g0_159"/>
<path d="M435.4,200.9c0,-.3,-.3,-.5,-.6,-.5c-.3,0,-.4,.3,-.5,.5l-.8,2.5c-.1,.1,-.1,.2,-.1,.3c0,.1,0,.2,.1,.2c.1,0,.3,-.2,.3,-.3l1.4,-2.1c.1,-.2,.2,-.4,.2,-.6Z" class="g0_159"/>
<path d="M442.1,224h7.6v-.9h-7.6Zm0,-3h7.6v-.9h-7.6Z" class="g0_159"/>
<path d="M458.2,218.6c-.3,0,-.4,-.2,-.5,-.5c0,-.3,-.1,-.5,-.5,-.5c-.2,0,-.3,.2,-.3,.4c0,.6,.7,.9,1.2,.9c.9,0,.9,-.2,1.3,-.8c.3,-.3,.4,-.7,.6,-1.2c.2,-.5,.5,-1.2,.7,-2l1.4,-5.1h1.2l.1,-.4h-1.2c.3,-1.2,.7,-3.1,1.1,-3.8c.1,-.2,.4,-.4,.7,-.4c.3,0,.5,.2,.5,.4c.1,.3,.2,.6,.5,.6c.3,0,.4,-.3,.4,-.5c0,-.6,-.7,-.9,-1.3,-.9c-1.8,.1,-2.5,3,-2.9,4.6h-1.3v.4h1.2l-2,7.3c-.1,.4,-.4,1.5,-.9,1.5Z" class="g0_159"/>
<path d="M468.5,203c0,-.2,-.3,-.4,-.6,-.4c-.3,0,-.4,.3,-.5,.5l-.8,2.5c-.1,0,-.1,.2,-.1,.3c0,0,0,.1,.1,.1c.1,0,.3,-.1,.3,-.2l1.4,-2.1c.1,-.2,.2,-.4,.2,-.7Z" class="g0_159"/>
<path d="M475.6,205.1c-2.2,1.4,-3.7,3.8,-3.7,6.9c0,2.7,1.6,5.5,3.6,6.8l.2,-.3c-1.9,-1.5,-2.5,-3.3,-2.5,-6.6c0,-3.3,.6,-5,2.5,-6.5l-.1,-.3Z" class="g0_159"/>
<path d="M484,210.2c0,-.5,-.5,-.9,-1,-.9c-.4,0,-.7,.1,-1,.3c-.3,.3,-.6,.6,-.8,.9c0,-.6,-.5,-1.2,-1.1,-1.2c-1.1,0,-2.1,1.2,-2.4,2l.2,.1c.3,-.5,1.1,-1.7,2,-1.7c.2,0,.3,.5,.3,.9c0,.3,0,.7,-.2,1.2l-.3,1.2c-.2,.6,-.4,1.3,-.7,1.7c-.2,.3,-.5,.7,-.8,.7c-.4,0,-.8,-.1,-.6,-.5c0,-.3,0,-.7,-.4,-.7c-.5,0,-.7,.3,-.7,.8c0,.5,.5,.9,1.1,.9c1,0,1.7,-.8,2.1,-1.5v.1c.1,.8,.5,1.4,1.4,1.4c1.1,0,2,-1.2,2.4,-1.8l-.2,-.2c-.5,.6,-1.1,1.6,-1.9,1.6c-.5,0,-.7,-.6,-.7,-1.2c0,-.3,.1,-.8,.2,-1.3l.2,-.8c.1,-.5,.3,-1.2,.6,-1.6c.2,-.3,.6,-.9,.9,-.9c.5,0,.4,.3,.4,.6c0,.4,.1,.6,.5,.6c.3,0,.5,-.3,.5,-.7Z" class="g0_159"/>
<path d="M485.2,205.1l-.1,.3c1.9,1.5,2.5,3.2,2.5,6.5c0,3.3,-.5,5.1,-2.5,6.6l.2,.3c2,-1.3,3.6,-4.1,3.6,-6.8c0,-3.1,-1.5,-5.5,-3.7,-6.9Z" class="g0_159"/>
<path d="M456.3,222.5h35.3v-.9H456.3Z" class="g0_159"/>
<path d="M457,239.7c-.3,0,-.4,-.2,-.5,-.5c0,-.2,-.1,-.5,-.5,-.5c-.2,0,-.4,.2,-.4,.4c0,.6,.8,.9,1.3,.9c.8,0,.9,-.2,1.3,-.8c.2,-.3,.4,-.7,.6,-1.2c.2,-.5,.5,-1.2,.7,-2l1.3,-5.1h1.3l.1,-.4h-1.3c.4,-1.1,.8,-3.1,1.2,-3.7c.1,-.2,.4,-.5,.7,-.5c.3,0,.4,.2,.5,.4c.1,.3,.2,.6,.5,.6c.3,0,.4,-.2,.4,-.5c0,-.6,-.8,-.8,-1.3,-.8c-1.8,0,-2.5,3,-3,4.5h-1.2l-.1,.4h1.3l-2,7.3c-.1,.4,-.4,1.5,-.9,1.5Z" class="g0_159"/>
<path d="M470,226.2c-2.2,1.4,-3.7,3.8,-3.7,6.9c0,2.7,1.6,5.5,3.6,6.8l.2,-.2c-2,-1.6,-2.5,-3.4,-2.5,-6.7c0,-3.3,.6,-5,2.5,-6.5l-.1,-.3Z" class="g0_159"/>
<path d="M478.3,231.4c0,-.6,-.4,-1,-1,-1c-.3,0,-.6,.1,-.9,.4c-.3,.2,-.6,.5,-.9,.8c0,-.6,-.4,-1.2,-1,-1.2c-1.2,0,-2.1,1.2,-2.5,2l.2,.1c.4,-.5,1.1,-1.7,2,-1.7c.3,0,.4,.5,.4,1c0,.3,0,.6,-.2,1.1l-.3,1.2c-.2,.6,-.4,1.4,-.8,1.8c-.1,.2,-.4,.7,-.7,.7c-.5,0,-.8,-.1,-.7,-.5c.1,-.4,.1,-.8,-.4,-.8c-.4,0,-.6,.3,-.6,.8c0,.5,.5,.9,1.1,.9c1,0,1.7,-.8,2.1,-1.4c.1,.8,.5,1.4,1.3,1.4c1.2,0,2.1,-1.1,2.5,-1.8l-.2,-.2c-.5,.6,-1.2,1.7,-2,1.7c-.4,0,-.6,-.7,-.6,-1.3c0,-.3,0,-.8,.2,-1.3l.1,-.7c.1,-.6,.4,-1.3,.7,-1.6c.1,-.3,.5,-1,.9,-1c.4,0,.4,.3,.4,.6c-.1,.4,.1,.6,.4,.6c.4,0,.5,-.3,.5,-.6Z" class="g0_159"/>
<path d="M479.6,226.2l-.1,.3c1.9,1.5,2.5,3.2,2.5,6.5c0,3.3,-.6,5.1,-2.5,6.7l.2,.2c2,-1.3,3.6,-4.1,3.6,-6.8c0,-3.1,-1.5,-5.5,-3.7,-6.9Z" class="g0_159"/>
<path d="M487.4,227.9c-.7,0,-1.1,-.5,-1.1,-1.1c0,-.8,.4,-1.7,1.3,-1.7c1.2,0,1.4,1,1.4,1.9c0,1,-.3,1.5,-.8,2.2c-.2,.4,-.6,.8,-1.1,1.3c-.5,.5,-1.1,1.1,-1.8,1.8v.3h4.5l.4,-2.1h-.3c-.1,.2,-.2,.4,-.2,.6c-.2,.3,-.5,.5,-1,.5h-2.2c.5,-.4,1,-.7,1.4,-1.1c.8,-.6,1.6,-1.4,2,-2.2c.1,-.4,.2,-.8,.2,-1.2c0,-.4,0,-.6,-.1,-.9c-.4,-.7,-1.1,-1.3,-2.2,-1.3c-.7,0,-1.3,.3,-1.7,.6c-.4,.3,-.7,.8,-.7,1.5c0,.4,.1,.8,.3,1c.2,.3,.5,.4,.9,.4c.4,0,.7,-.2,.8,-.5Z" class="g0_159"/>
<path d="M403,365.7c-2.2,1.4,-3.7,3.8,-3.7,6.9c0,2.7,1.6,5.5,3.6,6.8l.2,-.3c-2,-1.5,-2.5,-3.3,-2.5,-6.6c0,-3.3,.6,-5,2.5,-6.5l-.1,-.3Z" class="g0_159"/>
<path d="M411.3,370.8c0,-.5,-.4,-.9,-1,-.9c-.3,0,-.6,.1,-.9,.3c-.3,.3,-.6,.6,-.9,.9c0,-.6,-.4,-1.2,-1,-1.2c-1.1,0,-2.1,1.2,-2.4,2l.2,.1c.3,-.5,1,-1.7,1.9,-1.7c.3,0,.4,.5,.4,1c0,.2,0,.6,-.2,1.1l-.3,1.2c-.2,.6,-.4,1.4,-.7,1.8c-.2,.2,-.5,.6,-.8,.6c-.5,0,-.8,-.1,-.7,-.5c.1,-.3,.1,-.7,-.4,-.7c-.4,0,-.6,.3,-.6,.8c0,.5,.5,.9,1.1,.9c1,0,1.7,-.8,2.1,-1.4c.1,.8,.5,1.4,1.4,1.4c1.1,0,2,-1.1,2.4,-1.8l-.2,-.2c-.5,.6,-1.2,1.6,-2,1.6c-.4,0,-.6,-.6,-.6,-1.2c0,-.3,0,-.8,.2,-1.3l.2,-.7c.1,-.6,.3,-1.3,.6,-1.7c.2,-.2,.5,-.9,.9,-.9c.4,0,.4,.3,.4,.6c-.1,.4,.1,.6,.4,.6c.4,0,.5,-.3,.5,-.7Z" class="g0_159"/>
<path d="M415.6,370.3c1,0,1.5,-.9,1.8,-1.4l-.2,-.1c-.2,.3,-.7,1.1,-1,1.1c-.2,0,-.2,-.3,-.2,-.4c0,-.1,.1,-.3,.2,-.6c.1,-.3,.2,-.6,.3,-1c.2,-.6,.3,-1.3,.3,-1.7c0,-.5,-.1,-.7,-.6,-.7c-.8,0,-1.5,.7,-1.9,1.4c.1,-.3,.1,-.4,.1,-.7c0,-.5,-.1,-.7,-.5,-.7c-1,0,-1.3,.9,-1.6,1.7l.2,.1c.2,-.4,.6,-1.6,1.1,-1.6c0,0,.2,.1,.2,.3c0,.2,-.1,.6,-.2,.8c-.1,.5,-.2,.9,-.4,1.4l-.6,2h.7l.6,-1.9c.2,-.5,.6,-1.4,1,-1.9c.2,-.2,.6,-.7,1,-.7c.2,0,.2,.1,.2,.3c0,.1,0,.3,0,.3c0,.4,-.2,.7,-.2,1c-.3,.8,-.4,1.3,-.6,2.1c0,0,-.1,.1,-.1,.2c0,.4,.1,.7,.4,.7Z" class="g0_159"/>
<path d="M419.4,365.7l-.1,.3c1.9,1.5,2.5,3.2,2.5,6.5c0,3.3,-.6,5.1,-2.5,6.6l.2,.3c2,-1.3,3.6,-4.1,3.6,-6.8c0,-3.1,-1.5,-5.5,-3.7,-6.9Z" class="g0_159"/>
<path d="M427,362.9c0,-.3,-.3,-.5,-.5,-.5c-.3,0,-.5,.3,-.5,.6l-.9,2.4c0,.1,-.1,.2,-.1,.3c0,.1,.1,.2,.1,.2c.2,0,.3,-.2,.4,-.3l1.3,-2.1c.1,-.2,.2,-.4,.2,-.6Z" class="g0_159"/>
<path d="M433.7,374.5h7.6v-.8h-7.6Zm0,-3h7.6v-.9h-7.6Z" class="g0_159"/>
<path d="M451,376.5c1.3,0,2,-1.3,2.4,-1.9l-.3,-.2c-.3,.5,-.9,1.5,-1.3,1.5c-.3,0,-.2,-.4,-.2,-.5c0,-.2,0,-.4,.1,-.8c.2,-.4,.3,-.8,.5,-1.4c.2,-.8,.5,-1.8,.5,-2.3c0,-.7,-.3,-1,-.9,-1c-1.2,0,-2,.9,-2.6,1.9c.1,-.3,.1,-.5,.1,-1c0,-.6,-.1,-.9,-.7,-.9c-1.4,0,-1.8,1.3,-2.2,2.4l.4,.1c.1,-.6,.7,-2.1,1.3,-2.1c.2,0,.3,.1,.3,.3c0,.3,-.1,.8,-.2,1.1c-.1,.6,-.3,1.2,-.5,1.9l-.9,2.8h1l.8,-2.6c.3,-.8,.9,-1.9,1.4,-2.6c.3,-.4,.9,-1,1.4,-1c.2,0,.3,.2,.3,.5c0,0,0,.3,0,.3c-.1,.6,-.3,.9,-.4,1.4c-.3,1.1,-.5,1.8,-.8,2.8c0,.1,-.1,.2,-.1,.3c0,.5,.2,1,.6,1Z" class="g0_159"/>
<path d="M461.6,370.8c0,-.5,-.5,-.9,-1,-.9c-.3,0,-.7,.1,-1,.3c-.3,.3,-.6,.6,-.8,.9c0,-.6,-.4,-1.2,-1.1,-1.2c-1.1,0,-2.1,1.2,-2.4,2l.2,.1c.4,-.5,1.1,-1.7,2,-1.7c.2,0,.4,.5,.4,1c0,.2,-.1,.6,-.2,1.1l-.4,1.2c-.1,.6,-.4,1.4,-.7,1.8c-.2,.2,-.4,.6,-.8,.6c-.4,0,-.7,-.1,-.6,-.5c.1,-.3,0,-.7,-.4,-.7c-.5,0,-.6,.3,-.6,.8c0,.5,.4,.9,1,.9c1,0,1.7,-.8,2.1,-1.4h.1c.1,.8,.5,1.4,1.3,1.4c1.2,0,2,-1.1,2.4,-1.8l-.1,-.2c-.5,.6,-1.2,1.6,-2,1.6c-.5,0,-.7,-.6,-.7,-1.2c0,-.3,.1,-.8,.2,-1.3l.2,-.7c.1,-.6,.4,-1.3,.6,-1.7c.2,-.2,.6,-.9,1,-.9c.4,0,.3,.3,.3,.6c0,.4,.1,.6,.5,.6c.3,0,.5,-.3,.5,-.7Z" class="g0_159"/>
<path d="M465.9,370.3c1,0,1.4,-.9,1.7,-1.4l-.2,-.1c-.2,.3,-.6,1.1,-1,1.1c-.1,0,-.1,-.3,-.1,-.4c0,-.1,0,-.3,.1,-.6c.1,-.3,.2,-.6,.3,-1c.2,-.6,.4,-1.3,.4,-1.7c0,-.5,-.2,-.7,-.7,-.7c-.8,0,-1.4,.7,-1.8,1.4h-.1c.1,-.3,.1,-.4,.1,-.7c0,-.5,0,-.7,-.5,-.7c-1,0,-1.3,.9,-1.5,1.7l.2,.1c.1,-.4,.5,-1.6,1,-1.6c.1,0,.2,.1,.2,.3c0,.2,-.1,.6,-.1,.8c-.2,.5,-.3,.9,-.5,1.4l-.6,2h.7l.6,-1.9c.3,-.5,.7,-1.4,1,-1.9c.2,-.2,.7,-.7,1,-.7c.2,0,.3,.1,.3,.3c0,.1,0,.3,0,.3c-.1,.4,-.2,.7,-.3,1c-.2,.8,-.4,1.3,-.6,2.1c0,0,0,.1,0,.2c0,.4,.1,.7,.4,.7Z" class="g0_159"/>
<path d="M469.5,367.7H475v-.6h-5.5Z" class="g0_159"/>
<path d="M477.6,363.1v.2c.3,0,.8,0,.9,.1c.4,.2,.3,.3,.4,.8v4.7c0,.2,0,.4,-.1,.6c0,.5,-.6,.5,-1.2,.6v.1h3.5v-.1c-.4,-.1,-.9,-.1,-1.1,-.3c-.2,-.2,-.2,-.5,-.2,-1v-6.2c-.5,.3,-1.5,.5,-2.2,.5Z" class="g0_159"/>
<path d="M424.3,688.3h.4v-42h-.4Z" class="g1_159"/>
<path d="M400,646.3v3.2l-.2,-.1l-6.3,-3l-.3,-.1l.3,-.2l6.3,-3l.2,-.1v.3l-.1,.2l-6.2,2.9l-.2,-.3h.2l6.2,2.9l-.1,.4l-.1,-.2v-2.9Z" class="g1_159"/>
<path d="M399.7,646.3h.3v-3h-.3Z" class="g1_159"/>
<path d="M399.9,646.4h.1v-.3h-.1Z" class="g1_159"/>
<path d="M400,646.4h24.7v-.3H400Z" class="g1_159"/>
<path d="M480.6,895.4h.4V854.7h-.4Z" class="g1_159"/>
<path d="M463.4,895.4v3.2l-.3,-.1l-6.2,-2.9l-.4,-.2l.4,-.2l6.2,-2.9l.3,-.1v.3l-.1,.2l-6.2,2.9l-.2,-.4h.2l6.2,3l-.2,.3l-.1,-.2v-2.9Z" class="g1_159"/>
<path d="M463,895.4h.4v-2.9H463Z" class="g1_159"/>
<path d="M463.2,895.6h.2v-.4h-.2Z" class="g1_159"/>
<path d="M463.4,895.6H481v-.4H463.4Z" class="g1_159"/>
</svg>